<?xml version="1.0" encoding="utf-8"?>
<!-- Generator: Adobe Illustrator 19.0.0, SVG Export Plug-In . SVG Version: 6.00 Build 0)  -->
<svg version="1.1" xmlns="http://www.w3.org/2000/svg" xmlns:xlink="http://www.w3.org/1999/xlink" x="0px" y="0px"
	 viewBox="0 0 344 280" style="enable-background:new 0 0 344 280;" xml:space="preserve">
<style type="text/css">
	.st0{fill:#4F9E35;}
	.st1{fill:#4F4F51;}
	.st2{fill:#FFFFFF;}
	.st3{fill:#414042;}
	.st4{fill:#F9A455;}
	.st5{fill:#A04D15;}
	.st6{fill:#F2D291;}
	.st7{fill:#DDB97A;}
	.st8{fill:#BFF9AA;}
	.st9{fill:#A9E291;}
	.st10{fill:#80D15E;}
	.st11{fill:#98E080;}
	.st12{fill:#2EEBFF;}
</style>
<g id="Layer_2">
</g>
<g id="kolba_4">
</g>
<g id="kolba_3">
</g>
<g id="kolby">
</g>
<g id="doma">
</g>
<g id="butylka_3">
</g>
<g id="butylka_2">
</g>
<g id="butylka_1">
</g>
<g id="vanna_2">
</g>
<g id="sneg">
</g>
<g id="vanna_1">
</g>
<g id="shariki_2">
</g>
<g id="shariki_1">
</g>
<g id="voronka">
</g>
<g id="gradusnik">
</g>
<g id="kolba_2">
</g>
<g id="kolba_1">
</g>
<g id="probirki">
</g>
<g id="potato">
</g>
<g id="zavod">
</g>
<g id="blank">
</g>
<g id="ticks">
</g>
<g id="car">
</g>
<g id="lupa">
	<path class="st0" d="M272.2,89.1c0-5.1-4.1-9.2-9.2-9.2s-9.2,4.1-9.2,9.2c0,0.2,0,0.4,0,0.6h0c-0.1-1.7-1.5-3.1-3.3-3.1
		s-3.2,1.4-3.3,3.1h-42c0-0.2,0.1-0.4,0.1-0.6c0-2.1-1.7-3.7-3.7-3.7s-3.7,1.7-3.7,3.7c0,0.2,0,0.4,0.1,0.6h-15.7
		c0.2-0.6,0.3-1.2,0.3-1.8c0-2.7-2.2-5-5-5c-2.7,0-5,2.2-5,5c0,0.6,0.1,1.2,0.3,1.8h-22.1c0-0.2,0-0.4,0-0.6c0-5.1-4.1-9.2-9.2-9.2
		c-5.1,0-9.2,4.1-9.2,9.2c0,0.2,0,0.4,0,0.6h0c-0.1-2.8-2.4-5.1-5.3-5.1c-2.9,0-5.2,2.3-5.3,5.1h0c-0.1-5.2-4.4-9.5-9.6-9.5
		c-5.3,0-9.6,4.3-9.6,9.6c0,0.6,0.1,1.1,0.2,1.7v105c0,6.6,5.4,12,12,12h145.4c6.6,0,12-5.4,12-12V89.6h0
		C272.2,89.4,272.2,89.3,272.2,89.1z"/>
	<path class="st1" d="M93.1,120.7C77.3,104.9,70.4,93.3,74,86.2c4.2-8.3,18.8-6.4,20.5-6.1L93.6,86c-3.9-0.6-12.5-0.6-14.3,2.9
		c-3.1,6.1,10.8,20.6,15.5,25.3L93.1,120.7z"/>
	<path class="st1" d="M281,120.9l-1.2-6.8c4.7-4.7,18.4-19.1,15.3-25.2c-1.7-3.5-10.4-3.4-14.3-2.9l-0.9-5.9
		c1.7-0.2,16.3-2.2,20.5,6.1C304.1,93.3,296.8,105.1,281,120.9z"/>
	<g>
		<path class="st2" d="M249.8,181.4c-3.9,0-7.1-3.2-7.1-7.1s3.2-7.1,7.1-7.1c3.9,0,7.1,3.2,7.1,7.1S253.8,181.4,249.8,181.4z
			 M249.8,168.1c-3.4,0-6.1,2.8-6.1,6.1s2.8,6.1,6.1,6.1s6.1-2.8,6.1-6.1S253.2,168.1,249.8,168.1z"/>
		<path class="st2" d="M249.8,181.6c-4,0-7.3-3.3-7.3-7.3c0-4,3.3-7.3,7.3-7.3c4,0,7.3,3.3,7.3,7.3
			C257.1,178.3,253.8,181.6,249.8,181.6z M249.8,167.3c-3.9,0-7,3.1-7,7s3.1,7,7,7s7-3.1,7-7S253.7,167.3,249.8,167.3z M249.8,180.6
			c-3.5,0-6.3-2.8-6.3-6.3c0-3.5,2.8-6.3,6.3-6.3s6.3,2.8,6.3,6.3C256.1,177.7,253.3,180.6,249.8,180.6z M249.8,168.3
			c-3.3,0-6,2.7-6,6c0,3.3,2.7,6,6,6s6-2.7,6-6C255.8,171,253.1,168.3,249.8,168.3z"/>
	</g>
	<g>
		<path class="st2" d="M128.3,197.8c-5.3,0-9.5-4.3-9.5-9.5c0-5.3,4.3-9.5,9.5-9.5c5.3,0,9.5,4.3,9.5,9.5
			C137.9,193.5,133.6,197.8,128.3,197.8z M128.3,180c-4.5,0-8.2,3.7-8.2,8.2c0,4.5,3.7,8.2,8.2,8.2c4.5,0,8.2-3.7,8.2-8.2
			C136.5,183.7,132.8,180,128.3,180z"/>
		<path class="st2" d="M128.3,197.9c-5.3,0-9.7-4.3-9.7-9.7s4.3-9.7,9.7-9.7c5.3,0,9.7,4.3,9.7,9.7S133.7,197.9,128.3,197.9z
			 M128.3,178.8c-5.2,0-9.4,4.2-9.4,9.4c0,5.2,4.2,9.4,9.4,9.4c5.2,0,9.4-4.2,9.4-9.4C137.7,183.1,133.5,178.8,128.3,178.8z
			 M128.3,196.6c-4.6,0-8.3-3.7-8.3-8.3c0-4.6,3.7-8.3,8.3-8.3c4.6,0,8.3,3.7,8.3,8.3C136.7,192.8,132.9,196.6,128.3,196.6z
			 M128.3,180.2c-4.5,0-8.1,3.6-8.1,8.1c0,4.5,3.6,8.1,8.1,8.1c4.5,0,8.1-3.6,8.1-8.1C136.4,183.8,132.8,180.2,128.3,180.2z"/>
	</g>
	<g>
		<path class="st2" d="M128.3,168.1c-2.5,0-4.5-2-4.5-4.5c0-2.5,2-4.5,4.5-4.5c2.5,0,4.5,2,4.5,4.5
			C132.8,166.1,130.8,168.1,128.3,168.1z M128.3,159.7c-2.1,0-3.9,1.7-3.9,3.9c0,2.1,1.7,3.9,3.9,3.9c2.1,0,3.9-1.7,3.9-3.9
			C132.2,161.5,130.5,159.7,128.3,159.7z"/>
		<path class="st2" d="M128.3,168.3c-2.6,0-4.7-2.1-4.7-4.7s2.1-4.7,4.7-4.7s4.7,2.1,4.7,4.7S130.9,168.3,128.3,168.3z M128.3,159.2
			c-2.4,0-4.4,2-4.4,4.4s2,4.4,4.4,4.4s4.4-2,4.4-4.4S130.7,159.2,128.3,159.2z M128.3,167.6c-2.2,0-4-1.8-4-4c0-2.2,1.8-4,4-4
			s4,1.8,4,4C132.3,165.8,130.5,167.6,128.3,167.6z M128.3,159.9c-2.1,0-3.8,1.7-3.8,3.8s1.7,3.8,3.8,3.8s3.8-1.7,3.8-3.8
			S130.4,159.9,128.3,159.9z"/>
	</g>
	<g>
		<path class="st2" d="M136.5,157c-2.5,0-4.5-2-4.5-4.5s2-4.5,4.5-4.5c2.5,0,4.5,2,4.5,4.5S139,157,136.5,157z M136.5,148.6
			c-2.1,0-3.9,1.7-3.9,3.9s1.7,3.9,3.9,3.9c2.1,0,3.9-1.7,3.9-3.9S138.7,148.6,136.5,148.6z"/>
		<path class="st2" d="M136.5,157.1c-2.6,0-4.7-2.1-4.7-4.7s2.1-4.7,4.7-4.7c2.6,0,4.7,2.1,4.7,4.7S139.1,157.1,136.5,157.1z
			 M136.5,148.1c-2.4,0-4.4,2-4.4,4.4s2,4.4,4.4,4.4c2.4,0,4.4-2,4.4-4.4S139,148.1,136.5,148.1z M136.5,156.5c-2.2,0-4-1.8-4-4
			c0-2.2,1.8-4,4-4c2.2,0,4,1.8,4,4C140.6,154.7,138.7,156.5,136.5,156.5z M136.5,148.7c-2.1,0-3.8,1.7-3.8,3.8s1.7,3.8,3.8,3.8
			c2.1,0,3.8-1.7,3.8-3.8S138.6,148.7,136.5,148.7z"/>
	</g>
	<g>
		<path class="st2" d="M247.6,146.1c-3.7,0-6.6-3-6.6-6.6s3-6.6,6.6-6.6c3.7,0,6.6,3,6.6,6.6S251.2,146.1,247.6,146.1z M247.6,133.8
			c-3.1,0-5.7,2.6-5.7,5.7c0,3.1,2.6,5.7,5.7,5.7s5.7-2.6,5.7-5.7C253.3,136.3,250.7,133.8,247.6,133.8z"/>
		<path class="st2" d="M247.6,146.2c-3.7,0-6.8-3-6.8-6.8c0-3.7,3-6.8,6.8-6.8s6.8,3,6.8,6.8C254.3,143.2,251.3,146.2,247.6,146.2z
			 M247.6,133c-3.6,0-6.5,2.9-6.5,6.5c0,3.6,2.9,6.5,6.5,6.5s6.5-2.9,6.5-6.5C254.1,135.9,251.2,133,247.6,133z M247.6,145.3
			c-3.2,0-5.8-2.6-5.8-5.8c0-3.2,2.6-5.8,5.8-5.8s5.8,2.6,5.8,5.8C253.4,142.7,250.8,145.3,247.6,145.3z M247.6,133.9
			c-3.1,0-5.6,2.5-5.6,5.6c0,3.1,2.5,5.6,5.6,5.6s5.6-2.5,5.6-5.6C253.2,136.4,250.7,133.9,247.6,133.9z"/>
	</g>
	<g>
		<path class="st2" d="M256,157.5c-2,0-3.5-1.6-3.5-3.5c0-2,1.6-3.5,3.5-3.5c2,0,3.5,1.6,3.5,3.5C259.5,155.9,257.9,157.5,256,157.5
			z M256,150.9c-1.7,0-3.1,1.4-3.1,3.1s1.4,3.1,3.1,3.1c1.7,0,3.1-1.4,3.1-3.1S257.6,150.9,256,150.9z"/>
		<path class="st2" d="M256,157.6c-2,0-3.7-1.6-3.7-3.7c0-2,1.6-3.7,3.7-3.7c2,0,3.7,1.6,3.7,3.7C259.6,156,258,157.6,256,157.6z
			 M256,150.5c-1.9,0-3.4,1.5-3.4,3.4c0,1.9,1.5,3.4,3.4,3.4c1.9,0,3.4-1.5,3.4-3.4C259.4,152.1,257.9,150.5,256,150.5z M256,157.1
			c-1.8,0-3.2-1.4-3.2-3.2s1.4-3.2,3.2-3.2c1.8,0,3.2,1.4,3.2,3.2S257.7,157.1,256,157.1z M256,151c-1.6,0-2.9,1.3-2.9,2.9
			s1.3,2.9,2.9,2.9c1.6,0,2.9-1.3,2.9-2.9S257.6,151,256,151z"/>
	</g>
	<g>
		<path class="st2" d="M214.1,107.5c-2,0-3.5-1.6-3.5-3.5c0-2,1.6-3.5,3.5-3.5c2,0,3.5,1.6,3.5,3.5
			C217.7,105.9,216.1,107.5,214.1,107.5z M214.1,100.9c-1.7,0-3.1,1.4-3.1,3.1s1.4,3.1,3.1,3.1s3.1-1.4,3.1-3.1
			S215.8,100.9,214.1,100.9z"/>
		<path class="st2" d="M214.1,107.6c-2,0-3.7-1.6-3.7-3.7s1.6-3.7,3.7-3.7c2,0,3.7,1.6,3.7,3.7S216.1,107.6,214.1,107.6z
			 M214.1,100.5c-1.9,0-3.4,1.5-3.4,3.4s1.5,3.4,3.4,3.4c1.9,0,3.4-1.5,3.4-3.4S216,100.5,214.1,100.5z M214.1,107.1
			c-1.8,0-3.2-1.4-3.2-3.2s1.4-3.2,3.2-3.2c1.8,0,3.2,1.4,3.2,3.2S215.9,107.1,214.1,107.1z M214.1,101c-1.6,0-2.9,1.3-2.9,2.9
			s1.3,2.9,2.9,2.9c1.6,0,2.9-1.3,2.9-2.9S215.7,101,214.1,101z"/>
	</g>
	<g>
		<path class="st2" d="M262.6,103.3c-2,0-3.5-1.6-3.5-3.5c0-2,1.6-3.5,3.5-3.5c2,0,3.5,1.6,3.5,3.5
			C266.1,101.7,264.5,103.3,262.6,103.3z M262.6,96.7c-1.7,0-3.1,1.4-3.1,3.1s1.4,3.1,3.1,3.1s3.1-1.4,3.1-3.1
			S264.3,96.7,262.6,96.7z"/>
		<path class="st2" d="M262.6,103.4c-2,0-3.7-1.6-3.7-3.7s1.6-3.7,3.7-3.7c2,0,3.7,1.6,3.7,3.7S264.6,103.4,262.6,103.4z
			 M262.6,96.3c-1.9,0-3.4,1.5-3.4,3.4s1.5,3.4,3.4,3.4c1.9,0,3.4-1.5,3.4-3.4S264.5,96.3,262.6,96.3z M262.6,102.9
			c-1.8,0-3.2-1.4-3.2-3.2s1.4-3.2,3.2-3.2c1.8,0,3.2,1.4,3.2,3.2S264.3,102.9,262.6,102.9z M262.6,96.8c-1.6,0-2.9,1.3-2.9,2.9
			s1.3,2.9,2.9,2.9c1.6,0,2.9-1.3,2.9-2.9S264.2,96.8,262.6,96.8z"/>
	</g>
	<g>
		<path class="st2" d="M127.5,107.2c-2.5,0-4.5-2-4.5-4.5s2-4.5,4.5-4.5c2.5,0,4.5,2,4.5,4.5S130,107.2,127.5,107.2z M127.5,98.7
			c-2.1,0-3.9,1.7-3.9,3.9s1.7,3.9,3.9,3.9s3.9-1.7,3.9-3.9S129.6,98.7,127.5,98.7z"/>
		<path class="st2" d="M127.5,107.3c-2.6,0-4.7-2.1-4.7-4.7s2.1-4.7,4.7-4.7c2.6,0,4.7,2.1,4.7,4.7S130.1,107.3,127.5,107.3z
			 M127.5,98.2c-2.4,0-4.4,2-4.4,4.4s2,4.4,4.4,4.4c2.4,0,4.4-2,4.4-4.4S129.9,98.2,127.5,98.2z M127.5,106.7c-2.2,0-4-1.8-4-4
			s1.8-4,4-4c2.2,0,4,1.8,4,4S129.7,106.7,127.5,106.7z M127.5,98.9c-2.1,0-3.8,1.7-3.8,3.8s1.7,3.8,3.8,3.8c2.1,0,3.8-1.7,3.8-3.8
			S129.6,98.9,127.5,98.9z"/>
	</g>
	<path class="st2" d="M268.6,219.3H106c-7.4,0-13.5-6.1-13.5-13.5V68.2c0-7.4,6.1-13.5,13.5-13.5h162.6c7.4,0,13.5,6.1,13.5,13.5
		v137.6C282.1,213.2,276,219.3,268.6,219.3z M106,57.7c-5.8,0-10.5,4.7-10.5,10.5v137.6c0,5.8,4.7,10.5,10.5,10.5h162.6
		c5.8,0,10.5-4.7,10.5-10.5V68.2c0-5.8-4.7-10.5-10.5-10.5H106z"/>
	<path class="st3" d="M281,66.9H93c-4.7,0-8.5-3.8-8.5-8.5v0c0-4.7,3.8-8.5,8.5-8.5H281c4.7,0,8.5,3.8,8.5,8.5v0
		C289.5,63.1,285.7,66.9,281,66.9z"/>
	<circle class="st3" cx="187" cy="47" r="10.8"/>
	<g>
		<path class="st4" d="M191.6,102.7c0,0-2.7-11-38.2,9c-35.6,19.9-46.1,24.9-46.3,28.3c2.7,2.2,13.4-2.3,52.1-15.1
			C197.9,112.1,191.6,102.7,191.6,102.7z"/>
		<path class="st5" d="M170.5,118.8l-2.9-6c-0.3-0.5,0-1.2,0.5-1.4h0c0.5-0.3,1.2,0,1.4,0.5l2.9,6c0.3,0.5,0,1.2-0.5,1.4v0
			C171.4,119.6,170.7,119.4,170.5,118.8z"/>
		<path class="st5" d="M175.1,111.5l-2.9-6c-0.3-0.5,0-1.2,0.5-1.4l0,0c0.5-0.3,1.2,0,1.4,0.5l2.9,6c0.3,0.5,0,1.2-0.5,1.4l0,0
			C176,112.3,175.4,112,175.1,111.5z"/>
		<path class="st5" d="M161.5,113.4l-1.3-2.7c-0.3-0.5,0-1.2,0.5-1.4h0c0.5-0.3,1.2,0,1.4,0.5l1.3,2.7c0.3,0.5,0,1.2-0.5,1.4l0,0
			C162.4,114.1,161.8,113.9,161.5,113.4z"/>
		<path class="st5" d="M152.1,123.5l-1.3-2.7c-0.3-0.5,0-1.2,0.5-1.4l0,0c0.5-0.3,1.2,0,1.4,0.5l1.3,2.7c0.3,0.5,0,1.2-0.5,1.4l0,0
			C153,124.3,152.3,124.1,152.1,123.5z"/>
		<path class="st5" d="M147.3,122.5l-1.3-2.7c-0.3-0.5,0-1.2,0.5-1.4l0,0c0.5-0.3,1.2,0,1.4,0.5l1.3,2.7c0.3,0.5,0,1.2-0.5,1.4l0,0
			C148.1,123.3,147.5,123.1,147.3,122.5z"/>
		<path class="st5" d="M127.3,132.9l-1.3-2.7c-0.3-0.5,0-1.2,0.5-1.4h0c0.5-0.3,1.2,0,1.4,0.5l1.3,2.7c0.3,0.5,0,1.2-0.5,1.4l0,0
			C128.2,133.7,127.5,133.5,127.3,132.9z"/>
	</g>
	<g>
		<path class="st6" d="M258.2,121.3c0,0,1.3-8.1-9.9-13.8c-11.2-5.8-24.6-1.6-26.6,6.2c-2,7.8,9.3,16.6,17.8,16.9
			C248,130.9,255.2,130.5,258.2,121.3z"/>
		<circle class="st7" cx="229.9" cy="112.4" r="2.1"/>
		<circle class="st7" cx="241.9" cy="126.5" r="2.1"/>
		<circle class="st7" cx="234.7" cy="111.4" r="1.2"/>
		<circle class="st7" cx="229.3" cy="118.6" r="1.2"/>
		<circle class="st7" cx="249.8" cy="114.4" r="1.2"/>
		<circle class="st7" cx="246.3" cy="122.6" r="1.2"/>
		<circle class="st7" cx="251.8" cy="124.4" r="2.1"/>
	</g>
	<g>
		<circle class="st8" cx="191.3" cy="160.2" r="38.2"/>
		<path class="st9" d="M226.4,169.8c0,0-0.1,0-0.1,0.1c-0.3,0.1-0.6-0.1-0.7-0.4c-5.2-16.7-17.8-26.7-37.4-29.8
			c-14.7-2.3-28.1,0.4-28.2,0.5c-0.3,0.1-0.6-0.1-0.7-0.4c-0.1-0.3,0.1-0.6,0.4-0.7c0.1,0,13.7-2.8,28.6-0.5
			c19.9,3.1,33.1,13.6,38.4,30.6C226.7,169.4,226.6,169.6,226.4,169.8z"/>
		<path class="st9" d="M205.3,161.6c-0.2,0.1-0.5,0.1-0.7-0.1c-5.5-5.4-4.2-18.5-4.1-19c0-0.3,0.3-0.5,0.6-0.5
			c0.3,0,0.5,0.3,0.5,0.6c0,0.1-1.4,13,3.8,18.1c0.2,0.2,0.2,0.6,0,0.8C205.4,161.5,205.3,161.6,205.3,161.6z"/>
		<path class="st9" d="M191.1,161.5c-0.2,0.1-0.4,0.1-0.6,0c-3.5-2.6-5.5-7.1-5.7-13.2c-0.2-4.5,0.7-8.3,0.7-8.4
			c0.1-0.3,0.4-0.5,0.7-0.4c0.3,0.1,0.5,0.4,0.4,0.7c0,0.1-3.3,14.8,4.6,20.5c0.3,0.2,0.3,0.5,0.1,0.8
			C191.2,161.4,191.1,161.4,191.1,161.5z"/>
		<path class="st9" d="M171.8,159.5c-0.2,0.1-0.4,0.1-0.6,0c-3.8-2.5-5.5-6.9-4.8-12.8c0.5-4.4,2.1-8,2.1-8.1
			c0.1-0.3,0.5-0.4,0.8-0.3c0.3,0.1,0.4,0.5,0.3,0.8c-0.1,0.1-6.1,14,2.2,19.5c0.3,0.2,0.3,0.5,0.2,0.8
			C171.9,159.4,171.9,159.5,171.8,159.5z"/>
		<path class="st9" d="M203,136.5c-0.2,0.1-0.4,0.1-0.6,0c-1.5-0.9-2.8-1.1-4-0.7c-2.5,0.9-3.8,4.3-3.8,4.3
			c-0.1,0.3-0.4,0.4-0.7,0.3c-0.3-0.1-0.4-0.4-0.3-0.7c0.1-0.2,1.5-3.9,4.5-5c1.6-0.6,3.3-0.3,5,0.8c0.3,0.2,0.4,0.5,0.2,0.8
			C203.2,136.4,203.1,136.5,203,136.5z"/>
		<path class="st9" d="M178.2,138.8c-0.1,0.1-0.2,0.1-0.4,0.1c-0.3,0-0.5-0.3-0.5-0.6c0-0.1,0.8-7.1,8.1-7.9c0.3,0,0.6,0.2,0.6,0.5
			c0,0.3-0.2,0.6-0.5,0.6c-6.4,0.7-7,6.6-7.1,6.8C178.5,138.5,178.4,138.7,178.2,138.8z"/>
		<path class="st9" d="M196.8,158.8c-0.1,0.1-0.3,0.1-0.4,0.1c-0.3-0.1-0.5-0.4-0.5-0.7c0.9-4.7,4.8-5.7,4.9-5.8
			c0.3-0.1,0.6,0.1,0.7,0.4c0.1,0.3-0.1,0.6-0.4,0.7c-0.1,0-3.4,0.9-4.1,4.9C197,158.6,196.9,158.7,196.8,158.8z"/>
		<path class="st9" d="M208.2,151.9C208.2,151.9,208.1,152,208.2,151.9c-0.3,0.2-0.7,0-0.8-0.2c-1.8-3.9-5.5-3-5.7-3
			c-0.3,0.1-0.6-0.1-0.7-0.4c-0.1-0.3,0.1-0.6,0.4-0.7c0,0,4.8-1.2,7,3.6C208.5,151.5,208.4,151.8,208.2,151.9z"/>
		<path class="st9" d="M192.1,154.6C192.1,154.6,192.1,154.6,192.1,154.6c-0.3,0.2-0.7,0-0.8-0.2c-0.4-0.9-1-1.4-1.8-1.6
			c-1.6-0.5-3.4,0.6-3.4,0.6c-0.3,0.2-0.6,0.1-0.8-0.2c-0.2-0.3-0.1-0.6,0.2-0.8l0,0c0.1-0.1,2.2-1.3,4.3-0.7
			c1.1,0.3,1.9,1.1,2.5,2.2C192.4,154.1,192.3,154.4,192.1,154.6z"/>
		<path class="st9" d="M180,148.3c-0.2,0.1-0.4,0.1-0.5,0c-0.3-0.1-0.4-0.5-0.3-0.8c1.9-4.1,5.8-3.5,5.9-3.5
			c0.3,0.1,0.5,0.3,0.5,0.7c-0.1,0.3-0.3,0.5-0.7,0.5l0,0c-0.1,0-3.1-0.4-4.7,2.9C180.2,148.2,180.1,148.3,180,148.3z"/>
		<path class="st9" d="M195.2,137.7c-0.2,0.1-0.4,0.1-0.5,0c-0.1,0-1.9-0.9-2.3-2.6c-0.2-1,0.1-2,1-3c0.2-0.2,0.6-0.3,0.8-0.1
			c0.2,0.2,0.3,0.6,0.1,0.8c-0.6,0.7-0.9,1.4-0.7,2c0.2,1.1,1.7,1.8,1.7,1.8c0.3,0.1,0.4,0.5,0.3,0.8
			C195.4,137.6,195.3,137.7,195.2,137.7z"/>
		<path class="st9" d="M165.3,159.8c-0.1,0.1-0.2,0.1-0.3,0.1c-0.3,0-0.6-0.3-0.6-0.6c0.1-3.5,2.8-5.2,2.9-5.3
			c0.3-0.2,0.6-0.1,0.8,0.2c0.2,0.3,0.1,0.6-0.2,0.8c-0.1,0.1-2.2,1.4-2.3,4.3C165.6,159.5,165.5,159.7,165.3,159.8z"/>
		<path class="st9" d="M174.8,150.3C174.7,150.3,174.7,150.3,174.8,150.3c-0.4,0.2-0.7,0-0.8-0.3c-1.7-4.6-6.5-3.1-6.7-3
			c-0.3,0.1-0.6-0.1-0.7-0.4s0.1-0.6,0.4-0.7c0.1,0,6.1-1.9,8.2,3.7C175.1,149.8,175,150.1,174.8,150.3z"/>
		<path class="st9" d="M179.4,135.4c-0.1,0.1-0.3,0.1-0.5,0.1c-1.2-0.4-3.4-1.7-3-4c0.1-0.3,0.3-0.5,0.7-0.5
			c0.3,0.1,0.5,0.3,0.5,0.7c-0.3,1.9,2.1,2.7,2.2,2.7c0.3,0.1,0.5,0.4,0.4,0.7C179.6,135.3,179.5,135.4,179.4,135.4z"/>
		<path class="st10" d="M216.3,122.9c0,0-8.7,1.9-8.7,15.3c0.1,13.4-16.3,32.7-16.3,32.7s-8.9,24.2,17.3,25.5
			C208.6,196.5,253.4,167.9,216.3,122.9z"/>
		<path class="st11" d="M226,176.2c0,0-15.7-12-41.9-11.6s-26-0.7-33.8-3.5c0,0-6.4-4.6,4.5,16.8S203.7,218.8,226,176.2z"/>
		<path class="st8" d="M215.6,190.9c-0.1,0-0.1,0.1-0.2,0.1c-0.1,0-13.7,2.8-28.6,0.5c-19.9-3.1-33.1-13.6-38.4-30.6
			c-0.1-0.3,0.1-0.6,0.4-0.7c0.3-0.1,0.6,0.1,0.7,0.4c5.2,16.7,17.8,26.7,37.4,29.8c14.7,2.3,28.1-0.4,28.2-0.5
			c0.3-0.1,0.6,0.1,0.7,0.4C215.9,190.5,215.8,190.8,215.6,190.9z"/>
		<path class="st8" d="M174.3,187.9c-0.1,0.1-0.2,0.1-0.4,0.1c-0.3,0-0.5-0.3-0.5-0.6c0-0.1,1.4-13-3.8-18.1c-0.2-0.2-0.2-0.6,0-0.8
			c0.2-0.2,0.6-0.2,0.8,0c5.5,5.4,4.2,18.5,4.1,19C174.5,187.7,174.4,187.8,174.3,187.9z"/>
		<path class="st8" d="M189.3,190.6c-0.1,0.1-0.3,0.1-0.4,0.1c-0.3-0.1-0.5-0.4-0.4-0.7c0-0.1,3.3-14.8-4.6-20.5
			c-0.3-0.2-0.3-0.5-0.1-0.8c0.2-0.3,0.5-0.3,0.8-0.1c3.5,2.6,5.5,7.1,5.7,13.2c0.2,4.5-0.7,8.3-0.7,8.4
			C189.6,190.4,189.5,190.5,189.3,190.6z"/>
		<path class="st8" d="M206.2,191.7c-0.2,0.1-0.4,0.1-0.5,0c-0.3-0.1-0.4-0.5-0.3-0.8c0.1-0.1,6.1-14-2.2-19.5
			c-0.3-0.2-0.3-0.5-0.2-0.8c0.2-0.3,0.5-0.3,0.8-0.2c3.8,2.5,5.5,6.9,4.8,12.8c-0.5,4.4-2.1,8-2.1,8.1
			C206.4,191.5,206.3,191.6,206.2,191.7z"/>
		<path class="st8" d="M178,194.7c-0.3,0.2-0.7,0.4-1,0.5c-1.6,0.6-3.3,0.3-5-0.8c-0.3-0.2-0.4-0.5-0.2-0.8c0.2-0.3,0.5-0.4,0.8-0.2
			c1.5,0.9,2.8,1.1,4,0.7c2.5-0.9,3.8-4.3,3.8-4.3c0.1-0.3,0.4-0.4,0.7-0.3c0.3,0.1,0.4,0.4,0.3,0.7
			C181.5,190.3,180.4,193.3,178,194.7z"/>
		<path class="st8" d="M193.5,198.4c-1,0.6-2.3,1.1-3.9,1.3c-0.3,0-0.6-0.2-0.6-0.5c0-0.3,0.2-0.6,0.5-0.6c6.4-0.7,7-6.6,7.1-6.8
			c0-0.3,0.3-0.5,0.6-0.5c0.3,0,0.5,0.3,0.5,0.6C197.7,191.8,197.2,196.1,193.5,198.4z"/>
		<path class="st8" d="M175.7,176.8c-0.8,0.5-1.5,0.7-1.6,0.7c-0.3,0.1-0.6-0.1-0.7-0.4c-0.1-0.3,0.1-0.6,0.4-0.7
			c0.1,0,3.4-0.9,4.1-4.9c0.1-0.3,0.4-0.5,0.7-0.5c0.3,0.1,0.5,0.4,0.5,0.7C178.6,174.5,177,176,175.7,176.8z"/>
		<path class="st8" d="M173.8,182.3c0,0-0.1,0.1-0.2,0.1c0,0-4.8,1.2-7-3.6c-0.1-0.3,0-0.6,0.3-0.8c0.3-0.1,0.6,0,0.8,0.3
			c1.8,3.9,5.5,3,5.7,3c0.3-0.1,0.6,0.1,0.7,0.4C174.1,181.9,174,182.2,173.8,182.3z"/>
		<path class="st8" d="M189.5,177.6L189.5,177.6c-0.1,0.1-2.2,1.3-4.3,0.7c-1.1-0.3-1.9-1.1-2.5-2.2c-0.1-0.3,0-0.6,0.3-0.8
			c0.3-0.1,0.6,0,0.8,0.3c0.4,0.9,1,1.4,1.8,1.6c1.6,0.5,3.4-0.6,3.4-0.6c0.3-0.2,0.6-0.1,0.8,0.2S189.8,177.5,189.5,177.6z"/>
		<path class="st8" d="M193.5,185.1c-1.7,1.1-3.5,0.8-3.5,0.8c-0.3-0.1-0.5-0.3-0.5-0.7c0.1-0.3,0.3-0.5,0.7-0.5l0,0
			c0.1,0,3.1,0.4,4.7-2.9c0.1-0.3,0.5-0.4,0.8-0.3c0.3,0.1,0.4,0.5,0.3,0.8C195.2,183.7,194.4,184.6,193.5,185.1z"/>
		<path class="st8" d="M181.6,197.9c-0.2,0.1-0.5,0.1-0.7-0.1c-0.2-0.2-0.3-0.6-0.1-0.8c0.6-0.7,0.9-1.4,0.7-2
			c-0.2-1.1-1.7-1.8-1.7-1.8c-0.3-0.1-0.4-0.5-0.3-0.8c0.1-0.3,0.5-0.4,0.8-0.3c0.1,0,1.9,0.9,2.3,2.6c0.2,1-0.1,2-1,3
			C181.7,197.8,181.6,197.9,181.6,197.9z"/>
		<path class="st8" d="M207.7,175.9c-0.3,0.2-0.6,0.1-0.8-0.2c-0.2-0.3-0.1-0.6,0.2-0.8c0.1-0.1,2.2-1.4,2.3-4.3
			c0-0.3,0.3-0.6,0.6-0.6c0.3,0,0.6,0.3,0.6,0.6C210.4,174.2,207.8,175.9,207.7,175.9L207.7,175.9z"/>
		<path class="st8" d="M208.3,184c0,0-0.1,0-0.1,0.1c-0.1,0-6.1,1.9-8.2-3.7c-0.1-0.3,0-0.6,0.3-0.7c0.3-0.1,0.6,0,0.7,0.3
			c1.7,4.6,6.5,3.1,6.7,3c0.3-0.1,0.6,0.1,0.7,0.4C208.6,183.6,208.5,183.9,208.3,184z"/>
		<path class="st8" d="M198.9,198.8c-0.1,0.1-0.3,0.1-0.4,0.1c-0.3-0.1-0.5-0.3-0.5-0.7c0.3-1.9-2.2-2.7-2.2-2.7
			c-0.3-0.1-0.5-0.4-0.4-0.7c0.1-0.3,0.4-0.5,0.7-0.4c1.2,0.4,3.4,1.7,3,4C199.1,198.6,199,198.8,198.9,198.8z"/>
	</g>
	<path class="st2" d="M114.6,118.6L114.6,118.6c-2.3,0-4.1-1.9-4.1-4.1V79.6c0-2.3,1.9-4.1,4.1-4.1h0c2.3,0,4.1,1.9,4.1,4.1v34.8
		C118.8,116.7,116.9,118.6,114.6,118.6z"/>
	<path class="st1" d="M207.2,244.2h-41.4c-1.8,0-3.2-1.5-3.2-3.2l0,0c0-1.8,1.5-3.2,3.2-3.2h41.4c1.8,0,3.2,1.5,3.2,3.2l0,0
		C210.5,242.7,209,244.2,207.2,244.2z"/>
	<path class="st12" d="M186.2,221.4c0,0-8.3,7.8,0,19.5C194.5,229.2,186.2,221.4,186.2,221.4z"/>
	<path class="st12" d="M199.1,222.7c0,0-10.6,4.2-7,18.2C204.1,233,199.1,222.7,199.1,222.7z"/>
	<path class="st12" d="M173.5,222.7c0,0,10.6,4.2,7,18.2C168.5,233,173.5,222.7,173.5,222.7z"/>
</g>
</svg>
