<?xml version="1.0" encoding="utf-8"?>
<!-- Generator: Adobe Illustrator 19.0.0, SVG Export Plug-In . SVG Version: 6.00 Build 0)  -->
<svg version="1.1" xmlns="http://www.w3.org/2000/svg" xmlns:xlink="http://www.w3.org/1999/xlink" x="0px" y="0px"
	 viewBox="0 0 368 238" style="enable-background:new 0 0 368 238;" xml:space="preserve">
<style type="text/css">
	.st0{fill:#BFF9AA;}
	.st1{fill:#A9E291;}
	.st2{fill:#80D15E;}
	.st3{fill:#98E080;}
	.st4{fill:#519E38;}
	.st5{fill:#F9A455;}
	.st6{fill:#A04D15;}
	.st7{fill:#F2D291;}
	.st8{fill:#DDB97A;}
	.st9{fill:#0E3656;}
	.st10{fill:#446666;}
	.st11{fill:#FFFFFF;}
</style>
<g id="Layer_2">
</g>
<g id="kolba_4">
</g>
<g id="kolba_3">
</g>
<g id="kolby">
</g>
<g id="doma">
</g>
<g id="butylka_3">
</g>
<g id="butylka_2">
</g>
<g id="butylka_1">
</g>
<g id="vanna_2">
</g>
<g id="sneg">
</g>
<g id="vanna_1">
</g>
<g id="shariki_2">
</g>
<g id="shariki_1">
</g>
<g id="voronka">
</g>
<g id="gradusnik">
</g>
<g id="kolba_2">
</g>
<g id="kolba_1">
</g>
<g id="probirki">
</g>
<g id="potato">
</g>
<g id="zavod">
</g>
<g id="blank">
</g>
<g id="ticks">
</g>
<g id="car">
</g>
<g id="lupa">
	<g>
		<circle class="st0" cx="186" cy="124.1" r="50.6"/>
		<path class="st1" d="M232.5,136.7c-0.1,0-0.1,0.1-0.2,0.1c-0.4,0.1-0.8-0.1-1-0.5c-6.9-22.2-23.6-35.4-49.6-39.5
			c-19.5-3-37.3,0.6-37.4,0.6c-0.4,0.1-0.8-0.2-0.9-0.6c-0.1-0.4,0.2-0.8,0.6-0.9c0.2,0,18.2-3.7,37.9-0.6
			c26.3,4.1,43.9,18.1,50.9,40.5C232.9,136.2,232.7,136.6,232.5,136.7z"/>
		<path class="st1" d="M204.5,125.9c-0.3,0.2-0.7,0.1-0.9-0.1c-7.3-7.2-5.5-24.5-5.4-25.2c0-0.4,0.4-0.7,0.8-0.7
			c0.4,0,0.7,0.4,0.7,0.8c0,0.2-1.8,17.3,5,24c0.3,0.3,0.3,0.8,0,1.1C204.6,125.8,204.6,125.9,204.5,125.9z"/>
		<path class="st1" d="M185.7,125.7c-0.3,0.2-0.6,0.2-0.8,0c-4.7-3.4-7.3-9.5-7.6-17.5c-0.2-6,0.9-11,1-11.2
			c0.1-0.4,0.5-0.7,0.9-0.6c0.4,0.1,0.7,0.5,0.6,0.9c0,0.2-4.4,19.6,6,27.1c0.3,0.2,0.4,0.7,0.2,1.1
			C185.8,125.6,185.7,125.7,185.7,125.7z"/>
		<path class="st1" d="M160.1,123.1c-0.2,0.1-0.6,0.2-0.8,0c-5-3.3-7.2-9.2-6.3-17c0.7-5.8,2.8-10.5,2.8-10.7c0.2-0.4,0.6-0.6,1-0.4
			c0.4,0.2,0.6,0.6,0.4,1c-0.1,0.2-8.1,18.6,2.9,25.9c0.4,0.2,0.4,0.7,0.2,1.1C160.3,123,160.2,123.1,160.1,123.1z"/>
		<path class="st1" d="M201.5,92.7c-0.2,0.1-0.5,0.2-0.8,0c-1.9-1.2-3.7-1.4-5.4-0.9c-3.4,1.2-5.1,5.7-5.1,5.7
			c-0.1,0.4-0.6,0.6-1,0.4c-0.4-0.1-0.6-0.6-0.4-1c0.1-0.2,2-5.2,6-6.6c2.1-0.7,4.3-0.4,6.6,1c0.4,0.2,0.5,0.7,0.3,1
			C201.7,92.5,201.6,92.6,201.5,92.7z"/>
		<path class="st1" d="M168.7,95.6c-0.1,0.1-0.3,0.1-0.5,0.1c-0.4,0-0.7-0.4-0.7-0.8c0-0.1,1-9.4,10.7-10.4c0.4,0,0.8,0.3,0.8,0.7
			c0,0.4-0.3,0.8-0.7,0.8c-8.5,0.9-9.3,8.7-9.4,9.1C169,95.3,168.9,95.5,168.7,95.6z"/>
		<path class="st1" d="M193.3,122.2c-0.2,0.1-0.3,0.1-0.5,0.1c-0.4-0.1-0.7-0.5-0.6-0.9c1.1-6.2,6.3-7.6,6.6-7.6
			c0.4-0.1,0.8,0.1,0.9,0.6c0.1,0.4-0.1,0.8-0.5,0.9c-0.2,0.1-4.5,1.2-5.4,6.4C193.6,121.9,193.4,122.1,193.3,122.2z"/>
		<path class="st1" d="M208.3,113.1C208.3,113.1,208.3,113.1,208.3,113.1c-0.5,0.2-0.9,0.1-1.1-0.3c-2.4-5.1-7.3-4-7.5-3.9
			c-0.4,0.1-0.8-0.1-0.9-0.5c-0.1-0.4,0.1-0.8,0.5-0.9c0.1,0,6.3-1.6,9.3,4.7C208.8,112.5,208.7,112.9,208.3,113.1z"/>
		<path class="st1" d="M187,116.6C187,116.6,187,116.6,187,116.6c-0.4,0.2-0.9,0.1-1.1-0.3c-0.6-1.2-1.3-1.9-2.3-2.1
			c-2.1-0.6-4.5,0.8-4.5,0.8c-0.4,0.2-0.8,0.1-1-0.3c-0.2-0.4-0.1-0.8,0.3-1l0,0c0.1-0.1,3-1.8,5.7-1c1.4,0.4,2.5,1.4,3.3,2.9
			C187.5,115.9,187.4,116.4,187,116.6z"/>
		<path class="st1" d="M171,108.3c-0.2,0.1-0.5,0.2-0.7,0c-0.4-0.2-0.5-0.6-0.4-1c2.5-5.4,7.7-4.7,7.8-4.7c0.4,0.1,0.7,0.5,0.6,0.9
			c-0.1,0.4-0.5,0.7-0.9,0.6l0,0c-0.2,0-4.1-0.6-6.2,3.8C171.2,108.1,171.1,108.2,171,108.3z"/>
		<path class="st1" d="M191.1,94.3c-0.2,0.1-0.5,0.2-0.7,0c-0.1,0-2.6-1.2-3.1-3.4c-0.3-1.3,0.2-2.6,1.3-4c0.3-0.3,0.8-0.4,1.1-0.1
			c0.3,0.3,0.4,0.8,0.1,1.1c-0.8,1-1.1,1.8-1,2.6c0.3,1.5,2.2,2.3,2.2,2.3c0.4,0.2,0.6,0.6,0.4,1C191.4,94.1,191.3,94.2,191.1,94.3z
			"/>
		<path class="st1" d="M151.6,123.5c-0.1,0.1-0.3,0.1-0.4,0.1c-0.4,0-0.7-0.4-0.7-0.8c0.2-4.7,3.7-6.9,3.8-7c0.3-0.2,0.8-0.1,1,0.3
			c0.2,0.4,0.1,0.8-0.3,1c-0.1,0.1-3,1.9-3.1,5.7C151.9,123.2,151.8,123.4,151.6,123.5z"/>
		<path class="st1" d="M164.1,110.9c0,0-0.1,0-0.1,0.1c-0.4,0.1-0.8-0.1-1-0.4c-2.3-6.1-8.7-4.1-8.9-4c-0.4,0.1-0.8-0.1-1-0.5
			c-0.1-0.4,0.1-0.8,0.5-1c0.1,0,8-2.5,10.8,4.9C164.5,110.3,164.4,110.7,164.1,110.9z"/>
		<path class="st1" d="M170.2,91.2c-0.2,0.1-0.4,0.1-0.6,0.1c-1.6-0.5-4.5-2.2-4-5.3c0.1-0.4,0.5-0.7,0.9-0.6
			c0.4,0.1,0.7,0.5,0.6,0.9c-0.4,2.5,2.8,3.5,3,3.6c0.4,0.1,0.6,0.5,0.5,1C170.5,91,170.3,91.1,170.2,91.2z"/>
		<path class="st2" d="M219.1,74.6c0,0-11.5,2.5-11.5,20.3S186,138.4,186,138.4s-11.8,32.1,22.9,33.8
			C208.9,172.2,268.3,134.3,219.1,74.6z"/>
		<path class="st3" d="M232,145.3c0,0-20.8-15.9-55.6-15.4s-34.4-0.9-44.8-4.7c0,0-8.5-6.2,6,22.2S202.4,201.7,232,145.3z"/>
		<path class="st0" d="M218.2,164.7c-0.1,0-0.2,0.1-0.2,0.1c-0.2,0-18.2,3.7-37.9,0.6c-26.3-4.1-43.9-18.1-50.9-40.5
			c-0.1-0.4,0.1-0.8,0.5-1c0.4-0.1,0.8,0.1,1,0.5c6.9,22.2,23.6,35.4,49.6,39.5c19.5,3,37.3-0.6,37.4-0.6c0.4-0.1,0.8,0.2,0.9,0.6
			C218.6,164.2,218.5,164.5,218.2,164.7z"/>
		<path class="st0" d="M163.4,160.8c-0.1,0.1-0.3,0.1-0.5,0.1c-0.4,0-0.7-0.4-0.7-0.8c0-0.2,1.8-17.3-5-24c-0.3-0.3-0.3-0.8,0-1.1
			c0.3-0.3,0.8-0.3,1.1,0c7.3,7.2,5.5,24.5,5.4,25.2C163.8,160.5,163.6,160.7,163.4,160.8z"/>
		<path class="st0" d="M183.4,164.3c-0.2,0.1-0.4,0.1-0.6,0.1c-0.4-0.1-0.7-0.5-0.6-0.9c0-0.2,4.4-19.6-6-27.1
			c-0.3-0.2-0.4-0.7-0.2-1.1c0.2-0.3,0.7-0.4,1.1-0.2c4.7,3.4,7.3,9.5,7.6,17.5c0.2,6-0.9,11-1,11.2
			C183.7,164,183.6,164.2,183.4,164.3z"/>
		<path class="st0" d="M205.8,165.8c-0.2,0.1-0.5,0.2-0.7,0c-0.4-0.2-0.6-0.6-0.4-1c0.1-0.2,8.1-18.6-2.9-25.9
			c-0.4-0.2-0.4-0.7-0.2-1.1c0.2-0.4,0.7-0.4,1.1-0.2c5,3.3,7.2,9.2,6.3,17c-0.7,5.8-2.8,10.5-2.8,10.7
			C206,165.6,205.9,165.7,205.8,165.8z"/>
		<path class="st0" d="M168.4,169.8c-0.4,0.3-0.9,0.5-1.3,0.6c-2.1,0.7-4.3,0.4-6.6-1c-0.4-0.2-0.5-0.7-0.3-1c0.2-0.4,0.7-0.5,1-0.3
			c1.9,1.2,3.7,1.4,5.4,0.9c3.4-1.2,5.1-5.7,5.1-5.7c0.1-0.4,0.6-0.6,1-0.4c0.4,0.1,0.6,0.6,0.4,1C173,164,171.5,167.9,168.4,169.8z
			"/>
		<path class="st0" d="M188.9,174.6c-1.4,0.8-3.1,1.4-5.2,1.7c-0.4,0-0.8-0.3-0.8-0.7c0-0.4,0.3-0.8,0.7-0.8
			c8.5-0.9,9.3-8.7,9.4-9.1c0-0.4,0.4-0.7,0.8-0.7c0.4,0,0.7,0.4,0.7,0.8C194.4,165.9,193.8,171.6,188.9,174.6z"/>
		<path class="st0" d="M165.3,146.1c-1.1,0.7-2,0.9-2.1,0.9c-0.4,0.1-0.8-0.1-0.9-0.6c-0.1-0.4,0.1-0.8,0.5-0.9
			c0.2-0.1,4.5-1.2,5.4-6.4c0.1-0.4,0.5-0.7,0.9-0.6c0.4,0.1,0.7,0.5,0.6,0.9C169.1,143.1,167,145,165.3,146.1z"/>
		<path class="st0" d="M162.8,153.3c-0.1,0-0.1,0.1-0.2,0.1c-0.1,0-6.3,1.6-9.3-4.7c-0.2-0.4,0-0.8,0.4-1c0.4-0.2,0.8,0,1,0.4
			c2.4,5.1,7.3,4,7.5,3.9c0.4-0.1,0.8,0.1,0.9,0.5C163.2,152.8,163.1,153.2,162.8,153.3z"/>
		<path class="st0" d="M183.6,147.2L183.6,147.2c-0.1,0.1-3,1.8-5.7,1c-1.4-0.4-2.5-1.4-3.3-2.9c-0.2-0.4,0-0.8,0.3-1
			c0.4-0.2,0.8,0,1,0.3c0.6,1.2,1.3,1.9,2.3,2.1c2.1,0.6,4.4-0.8,4.5-0.8c0.4-0.2,0.8-0.1,1,0.3C184,146.5,183.9,146.9,183.6,147.2z
			"/>
		<path class="st0" d="M188.9,157.1c-2.3,1.4-4.6,1.1-4.7,1c-0.4-0.1-0.7-0.5-0.6-0.9c0.1-0.4,0.5-0.7,0.9-0.6l0,0
			c0.2,0,4.1,0.6,6.2-3.8c0.2-0.4,0.6-0.5,1-0.4c0.4,0.2,0.5,0.6,0.4,1C191.2,155.3,190,156.4,188.9,157.1z"/>
		<path class="st0" d="M173.1,174c-0.3,0.2-0.6,0.1-0.9-0.1c-0.3-0.3-0.4-0.8-0.1-1.1c0.8-1,1.1-1.8,1-2.6c-0.3-1.5-2.2-2.3-2.2-2.3
			c-0.4-0.2-0.6-0.6-0.4-1c0.2-0.4,0.6-0.6,1-0.4c0.1,0,2.6,1.2,3.1,3.4c0.3,1.3-0.2,2.6-1.3,4C173.2,173.9,173.2,174,173.1,174z"/>
		<path class="st0" d="M207.7,144.9c-0.4,0.2-0.8,0.1-1-0.3c-0.2-0.4-0.1-0.8,0.3-1c0.1-0.1,3-1.9,3.1-5.7c0-0.4,0.4-0.7,0.8-0.7
			c0.4,0,0.7,0.4,0.7,0.8C211.4,142.6,207.8,144.8,207.7,144.9L207.7,144.9z"/>
		<path class="st0" d="M208.5,155.6c0,0-0.1,0.1-0.2,0.1c-0.1,0-8,2.5-10.8-4.9c-0.1-0.4,0-0.8,0.4-1c0.4-0.1,0.8,0.1,1,0.4
			c2.3,6.1,8.7,4.1,8.9,4c0.4-0.1,0.8,0.1,1,0.5C209,155.1,208.8,155.5,208.5,155.6z"/>
		<path class="st0" d="M196,175.3c-0.2,0.1-0.3,0.1-0.5,0.1c-0.4-0.1-0.7-0.5-0.6-0.9c0.4-2.5-2.9-3.6-3-3.6
			c-0.4-0.1-0.6-0.5-0.5-0.9c0.1-0.4,0.5-0.6,1-0.5c1.6,0.5,4.5,2.2,4,5.3C196.3,175,196.2,175.2,196,175.3z"/>
	</g>
	<g>
		<path class="st4" d="M166.7,50.3c0,0-4.7-14.2-49.5,16c-44.8,30.3-58.2,38-58,42.5c3.8,2.6,17.5-4.5,67.2-25.7
			C176.1,61.9,166.7,50.3,166.7,50.3z"/>
		<path class="st5" d="M168.6,43.2c0,0-4.7-14.2-49.5,16c-44.8,30.3-58.2,38-58,42.5c3.8,2.6,17.5-4.5,67.2-25.7
			C178,54.9,168.6,43.2,168.6,43.2z"/>
		<path class="st6" d="M142.6,67.1l-4.8-8.3c-0.3-0.5-0.1-1.2,0.4-1.5l0.6-0.3c0.5-0.3,1.2-0.1,1.5,0.4l4.8,8.3
			c0.3,0.5,0.1,1.2-0.4,1.5l-0.6,0.3C143.6,67.8,142.9,67.6,142.6,67.1z"/>
		<path class="st6" d="M148,56.9l-4.8-8.3c-0.3-0.5-0.1-1.2,0.4-1.5l0.6-0.3c0.5-0.3,1.2-0.1,1.5,0.4l4.8,8.3
			c0.3,0.5,0.1,1.2-0.4,1.5l-0.6,0.3C148.9,57.6,148.3,57.4,148,56.9z"/>
		<path class="st6" d="M130.2,60.9l-2.3-4c-0.3-0.5-0.1-1.2,0.4-1.5l0.6-0.3c0.5-0.3,1.2-0.1,1.5,0.4l2.3,4c0.3,0.5,0.1,1.2-0.4,1.5
			l-0.6,0.3C131.2,61.6,130.5,61.4,130.2,60.9z"/>
		<path class="st6" d="M118.8,75.3l-2.3-4c-0.3-0.5-0.1-1.2,0.4-1.5l0.6-0.3c0.5-0.3,1.2-0.1,1.5,0.4l2.3,4c0.3,0.5,0.1,1.2-0.4,1.5
			l-0.6,0.3C119.8,76,119.1,75.8,118.8,75.3z"/>
		<path class="st6" d="M112.4,74.6l-2.3-4c-0.3-0.5-0.1-1.2,0.4-1.5l0.6-0.3c0.5-0.3,1.2-0.1,1.5,0.4l2.3,4c0.3,0.5,0.1,1.2-0.4,1.5
			l-0.6,0.3C113.3,75.3,112.7,75.1,112.4,74.6z"/>
		<path class="st6" d="M87.1,90.5l-2.3-4c-0.3-0.5-0.1-1.2,0.4-1.5l0.6-0.3c0.5-0.3,1.2-0.1,1.5,0.4l2.3,4c0.3,0.5,0.1,1.2-0.4,1.5
			l-0.6,0.3C88.1,91.2,87.4,91,87.1,90.5z"/>
	</g>
	<g>
		<path class="st4" d="M263,48.4c0,0-4.9-9.6-21.5-6.9c-16.5,2.7-27.4,17.7-23.5,27.6s23,10.3,32.4,3.9
			C259.8,66.6,267.2,60.5,263,48.4z"/>
		<path class="st7" d="M258.8,44.2c0,0-4.9-9.6-21.5-6.9S209.9,55,213.8,64.9s23,10.3,32.4,3.9S263,56.3,258.8,44.2z"/>
		<circle class="st8" cx="221.6" cy="57.1" r="2.7"/>
		<circle class="st8" cx="245.6" cy="62.5" r="2.7"/>
		<circle class="st8" cx="225.9" cy="52.2" r="1.6"/>
		<circle class="st8" cx="225.9" cy="64.1" r="1.6"/>
		<circle class="st8" cx="244.4" cy="43.4" r="1.6"/>
		<circle class="st8" cx="247.2" cy="54.9" r="1.6"/>
		<circle class="st8" cx="254.5" cy="52.6" r="2.8"/>
	</g>
	<g>
		<path class="st9" d="M263.6,95.2c-12.8-12.8-33.7-12.8-46.5,0c-12.8,12.8-12.8,33.7,0,46.5c12.8,12.8,33.7,12.8,46.5,0
			C276.4,128.9,276.4,108.1,263.6,95.2z M257.8,135.9c-4.7,4.7-10.9,7.2-17.4,7.2c-6.6,0-12.8-2.6-17.4-7.2
			c-4.7-4.7-7.2-10.9-7.2-17.4c0-6.6,2.6-12.8,7.2-17.4c4.7-4.7,10.9-7.2,17.4-7.2c6.6,0,12.8,2.6,17.4,7.2
			c4.7,4.7,7.2,10.9,7.2,17.4C265,125.1,262.4,131.3,257.8,135.9z"/>
		<g>
			<g>
				<g>
					<g>
						
							<rect x="271.1" y="136.9" transform="matrix(0.7071 -0.7071 0.7071 0.7071 -27.8292 239.52)" class="st10" width="8.2" height="32.9"/>
					</g>
				</g>
			</g>
		</g>
		<g>
			<g>
				<g>
					<g>
						
							<rect x="278.6" y="143.1" transform="matrix(0.7071 -0.7071 0.7071 0.7071 -32.6407 251.1699)" class="st9" width="16.4" height="43.9"/>
					</g>
				</g>
			</g>
		</g>
		<g>
			<g>
				<g>
					<g>
						<g>
							<path class="st11" d="M233.5,131.1c-1.6,1.6-4.2,1.6-5.8,0c-3.4-3.4-5.2-7.8-5.2-12.6c0-4.8,1.9-9.2,5.2-12.6
								c1.6-1.6,4.2-1.6,5.8,0c1.6,1.6,1.6,4.2,0,5.8c-1.8,1.8-2.8,4.2-2.8,6.8c0,2.6,1,5,2.8,6.8
								C235.2,126.9,235.2,129.5,233.5,131.1z"/>
						</g>
					</g>
				</g>
			</g>
		</g>
	</g>
</g>
</svg>
