<?xml version="1.0" encoding="utf-8"?>
<!-- Generator: Adobe Illustrator 19.0.0, SVG Export Plug-In . SVG Version: 6.00 Build 0)  -->
<svg version="1.1" xmlns="http://www.w3.org/2000/svg" xmlns:xlink="http://www.w3.org/1999/xlink" x="0px" y="0px"
	 viewBox="0 0 227.6 244" style="enable-background:new 0 0 227.6 244;" xml:space="preserve">
<style type="text/css">
	.st0{fill:#2D2D2D;}
	.st1{fill:#4D4C4B;}
	.st2{fill:#F9DDC5;}
	.st3{fill:#EC145A;}
	.st4{fill:#62BA47;}
	.st5{fill:#FFFFFF;}
	.st6{fill:#231F20;}
	.st7{fill:#D1C97D;}
	.st8{fill:#DDD9A8;}
	.st9{fill:#F7F3A4;}
	.st10{fill:#D98A5A;}
	.st11{fill:#40AE77;}
</style>
<g id="Layer_2">
</g>
<g id="kolba_4">
</g>
<g id="kolba_3">
</g>
<g id="kolby">
</g>
<g id="doma">
</g>
<g id="butylka_3">
</g>
<g id="butylka_2">
</g>
<g id="butylka_1">
</g>
<g id="vanna_2">
</g>
<g id="sneg">
</g>
<g id="vanna_1">
</g>
<g id="shariki_2">
</g>
<g id="shariki_1">
</g>
<g id="voronka">
</g>
<g id="gradusnik">
</g>
<g id="kolba_2">
</g>
<g id="kolba_1">
</g>
<g id="probirki">
</g>
<g id="potato">
</g>
<g id="zavod">
</g>
<g id="blank">
</g>
<g id="ticks">
</g>
<g id="car">
</g>
<g id="lupa">
	<path class="st0" d="M174.9,209.6H52.7c-4.3,0-7.9-3.5-7.9-7.9V44.4c0-4.3,3.5-7.9,7.9-7.9h122.3c4.3,0,7.9,3.5,7.9,7.9v157.3
		C182.8,206,179.3,209.6,174.9,209.6z"/>
	<path class="st1" d="M171.4,36.5c6.3,0,11.4,5.1,11.4,11.4v150.3c0,6.3-5.1,11.4-11.4,11.4H56.2c-6.3,0-11.4-5.1-11.4-11.4V47.9
		c0-6.3,5.1-11.4,11.4-11.4H171.4 M171.4,29.9H56.2c-9.9,0-18,8.1-18,18v150.3c0,9.9,8.1,18,18,18h115.3c9.9,0,18-8.1,18-18V47.9
		C189.5,38,181.4,29.9,171.4,29.9L171.4,29.9z"/>
	<path class="st2" d="M38.1,143.2v55c0,9.9,8.1,18,18,18h115.3c9.9,0,18-8.1,18-18v-55H38.1z"/>
	<path class="st3" d="M126,168.2c-0.2,0-0.4,0-0.6,0c-1.7-3.9-5.6-6.6-10.1-6.6c-4.5,0-8.4,2.7-10.1,6.6c-0.1,0-0.2,0-0.3,0
		c-5.4,0-10.6,5.4-10.6,10.8c0,4.3,3.5,10,7.3,11.3c1.2-0.3,3-0.8,5.3-1.2c-2.6-0.9-2.8-2.7-2.8-2.7c0-0.2,0.1-0.4,0.4-0.4
		c0.2,0,0.4,0.1,0.4,0.4c0,0.1,0.3,2,4.1,2.5c0,0,0.1,0,0.1,0c0.9-0.1,1.8-0.2,2.8-0.3c-0.8-1.1-1.3-3-1.3-3.3
		c0-0.2,0.1-0.4,0.3-0.5c0.2,0,0.4,0.1,0.5,0.3c0.2,0.7,0.7,2.7,1.5,3.3c0,0,0,0,0.1,0.1c2.9-0.1,6-0.1,9.5,0.4
		c0.2-0.1,0.3-0.1,0.4-0.1c3.4-0.7,3.6-2.4,3.6-2.5c0-0.2,0.2-0.4,0.4-0.4c0.2,0,0.4,0.2,0.4,0.4c0,0.1-0.2,1.8-2.8,2.8
		c1.7,0.3,3.4,0.6,5.1,1.1c3.7-1.4,7-7,7-11.1C136.5,173.8,131.4,168.2,126,168.2z"/>
	<g>
		<circle class="st4" cx="133.8" cy="163.3" r="11.9"/>
		<g>
			<path class="st5" d="M130.9,161.6c-1,0.1-1.3,1.3-1.3,2.1l0,0v0c0,0.1,0,0.2,0,0.3c0,0.4,0,0.7-0.1,1.1c0,0.2-0.1,0.5-0.1,0.5
				c-0.4,0-0.6-0.5-0.7-0.7c-0.2-0.6-0.4-1.2-0.5-1.9c-0.1-0.7-0.2-1.4-0.2-2.1c0-0.3,0-0.6,0-0.9c0-0.1,0-0.2,0-0.3
				c0-0.1,0-0.2,0-0.2c0.1-0.5-0.6,0-0.8,0.2c-0.8,1.4-0.6,3-0.5,4.5c0,0.4,0,0.8-0.1,1.2c0,0.3-0.1,0.8-0.3,1c-0.1,0.1-0.4,0-0.5,0
				c-0.2-0.1-0.3-0.3-0.3-0.5c0-0.2-0.3-0.1-0.4,0c-0.2,0.2-0.4,0.5-0.3,0.7c0.1,0.5,0.6,1,1.1,0.8c0.9-0.3,1.3-1.3,1.5-2.1
				c0.1-0.4,0.2-0.8,0.2-1.2c0.1,0.6,0.3,1.2,0.6,1.7c0.2,0.4,0.5,0.8,1,0.7c0.4-0.1,0.6-0.5,0.8-0.9c0.2,0.4,0.4,0.7,0.9,0.6
				c0.5,0,0.9-0.6,1.1-1c0.2-0.5,0.3-1,0.3-1.5C132.1,163,131.9,161.5,130.9,161.6z M131.2,165c0,0.1,0,0.2-0.1,0.3
				c-0.2,0-0.3-0.3-0.4-0.4c-0.2-0.3-0.2-0.7-0.3-1c0-0.4,0-0.7,0-1.1c0-0.1,0-0.2,0.1-0.3c0.5,0.3,0.6,0.9,0.6,1.5
				C131.3,164.3,131.3,164.6,131.2,165z"/>
			<path class="st5" d="M142.7,163c-1.1-0.4-1.7,1-1.9,1.8c-0.2,0.8-0.4,2.1,0.5,2.4c0.4,0.2,1-0.1,1.2-0.4c0.3-0.4,0.5-0.8,0.7-1.3
				C143.4,164.7,143.6,163.4,142.7,163z M142,166.4c0,0.1-0.1,0.2-0.1,0.2c-0.2-0.1-0.2-0.4-0.2-0.6c-0.1-0.4,0-0.7,0-1.1
				c0.1-0.4,0.2-0.7,0.3-1c0-0.1,0.1-0.2,0.1-0.2c0.4,0.5,0.3,1.1,0.2,1.7C142.3,165.7,142.2,166.1,142,166.4z"/>
			<path class="st5" d="M139.8,163.2c0.2-0.3,0.4-0.5,0.6-0.8c0.4-0.6,0.8-1.3,0.7-2c0-0.7-1-0.7-1.4-0.5c-0.7,0.3-1.1,1.1-1.3,1.8
				c-0.3,0.9-0.4,1.8-0.4,2.8c0,0,0,0,0,0c-0.3,0.4-1,1.2-1.6,0.9c-0.1-0.1-0.2-0.3-0.3-0.4c0.4-0.5,0.8-0.9,1.2-1.5
				c0.3-0.5,0.5-1.3-0.1-1.6c-0.5-0.3-1.2,0-1.5,0.5c-0.3,0.4-0.5,1-0.6,1.5c0,0.3-0.1,0.8,0,1.2c-0.3,0.2-0.7,0.3-1.1,0.2
				c-0.4-0.1-0.6-0.5-0.6-0.8c-0.1-0.5-0.1-1,0-1.5c0-0.2,0.1-0.3,0.1-0.5c0,0,0-0.1,0-0.1c0.3,0.1,0.4,0.5,0.4,0.7
				c0.1,0.4,1-0.2,0.9-0.6c-0.1-0.4-0.3-0.7-0.6-0.9c-0.4-0.2-0.9,0.1-1.1,0.4c-0.6,0.6-0.7,1.6-0.7,2.4c0,0.5,0.1,1.2,0.6,1.5
				c0.6,0.4,1.5,0,2.1-0.3c0.2,0.4,0.5,0.7,1,0.6c0.6-0.1,1.2-0.4,1.7-0.9c0,0.5,0.1,1,0.5,1.2c0.6,0.3,1.3,0,1.6-0.5
				c0.5-0.6,0.7-1.5,0.5-2.2C140.4,163.3,140.1,163.2,139.8,163.2z M136.2,162.8c0-0.1,0.1-0.3,0.2-0.4c0,0,0,0,0,0
				c0.3,0.1,0.3,0.4,0.3,0.6c-0.1,0.4-0.3,0.8-0.6,1.1c0-0.1,0-0.1,0-0.2C136,163.5,136.1,163.1,136.2,162.8z M139.6,160.8
				c0.1-0.1,0.2-0.3,0.3-0.4c0,0,0,0,0,0c0.4,0.5,0,1.1-0.2,1.5c-0.2,0.4-0.5,0.9-0.8,1.2c0.1-0.4,0.1-0.8,0.2-1.2
				C139.3,161.6,139.4,161.2,139.6,160.8z M139.4,165.7c0,0-0.1,0.1-0.1,0.2c0,0-0.1,0-0.1,0c-0.3-0.1-0.3-0.7-0.3-0.9
				c0-0.2,0-0.4,0-0.6c0.1-0.1,0.2-0.3,0.3-0.4c0.2-0.2,0.4,0.1,0.5,0.4C139.8,164.7,139.6,165.3,139.4,165.7z"/>
		</g>
	</g>
	<g>
		<path class="st4" d="M80.6,171.3c-0.1,0.1,0.3,0.2,0.4,0.3c0,0.1-0.2,0-0.3,0c0,0.1,0.1,0.1,0.2,0.2c0,0-0.1,0-0.1,0.1
			c0.2,0.1,0.3,0.5,0.6,0.6c0.5,0.2,1.2,0.4,1.2,0.5c0.1-1-0.4-1.9,0.4-2.7c0-0.1-0.1-0.1-0.1-0.2c0.1,0,0.1,0,0.1,0
			c0-0.2-0.2-0.1-0.1-0.3c0,0,0.1,0,0.2,0c0.1,0-0.1-0.1-0.1-0.2c0-0.1,0.2,0,0.2,0c0-0.1-0.3-0.3-0.3-0.5c0.2,0.1,0.3,0.2,0.4,0.3
			c-0.1-0.2-0.3-0.3-0.3-0.6c0.2,0.1,0.3,0.3,0.5,0.4c-0.1-0.3-0.3-0.4-0.4-0.7c0.3,0.1,0.4,0.4,0.6,0.6c-0.2-0.4-0.4-0.9-0.4-1.3
			c0.3,0.3,0.4,0.7,0.6,1.1c0-0.4-0.3-0.9-0.2-1.6c0.2,0.4,0.3,1,0.5,1.4c0.1-0.5-0.3-1.3-0.1-1.8c0.2,0.5,0.2,1.1,0.4,1.6
			c0-0.5-0.1-1.3,0-1.8c0.2,0.5,0.2,1.2,0.3,1.8c0.1-0.4-0.1-1.3,0.2-1.6c0,0.5,0,0.9,0,1.4c0,0.8,0.4,1.5,0.1,2.2
			c-0.3,0.7-0.8,1.3-0.8,2.3c1.1,0.3,1.4,0.4,2.4,0.3c0.4,0,0.7-0.2,1.1-0.1c0.1,0,0.2,0.2,0.3,0.2c0.3,0.1,0.5,0.1,0.8,0.1
			c-0.5,0.1-1.3,0.2-1.4,0.2c-0.2,0-0.9-0.1-0.4-0.1c0.3,0,0.6,0,0.6-0.1c0-0.3-0.5-0.1-0.8,0c-1,0.1-1.4,0.3-3,0
			c0.4,0,0.4-0.3,0.4-0.5c-0.1-1.2,0.1-1.5,0.5-2c0.6-1-0.2-1-0.5-1.4c-0.1,0.1,0,0.4,0,0.5c-0.1-0.1-0.2-0.4-0.4-0.5
			c-0.1,0.1,0.1,0.3,0.1,0.5c-0.1-0.1-0.2-0.2-0.3-0.3c-0.1,0.1,0.1,0.3,0.1,0.4c-0.1,0-0.2-0.2-0.3-0.2c-0.1,0.1,0.1,0.1,0,0.3
			c-0.1,0-0.1-0.1-0.2,0c0,0.1,0,0.2,0.1,0.2c0,0.1-0.1,0-0.1,0c-0.1,0,0,0.1,0,0.2c-0.8-0.1-0.2,2.4-0.8,3.3c0.4,0.3,1.4,0.2,2,0.1
			c-0.8,0.5-1.4,0.3-2.2,0.4c-0.1,0-0.2,0.1-0.3,0.1c-0.4,0.1-0.9,0.3-1.4,0.4c-0.5,0.2-2,0.5-2.1,0.5c3.7-1.3,3.1-1.5,3.4-1.7
			c-0.6-0.2-0.8-0.9-1.2-1.1c0,0,0-0.1,0.1-0.1c0-0.1-0.1,0-0.2,0c0-0.1,0-0.1,0.1-0.1c0-0.1-0.2,0-0.3-0.1c0-0.1,0.1-0.1,0.2-0.1
			c-0.1-0.1-0.3-0.1-0.4-0.2c0.1-0.1,0.2-0.1,0.4-0.1c-0.1-0.1-0.4-0.1-0.5-0.3c0.2,0,0.4,0,0.5,0c-0.2-0.2-0.6-0.2-0.7-0.5
			c0.3,0,0.5,0.1,0.8,0.2c-0.3-0.2-0.7-0.3-0.8-0.7c0.3,0.2,0.7,0.3,0.9,0.5c-0.1-0.3-0.7-0.5-0.9-0.8c0.4,0,0.7,0.4,1.1,0.6
			c-0.3,0-0.6-0.3-0.8-0.4c0.1,0.3,0.6,0.5,0.9,0.7c-0.2,0.1-0.5-0.1-0.7-0.2c0,0.2,0.4,0.4,0.6,0.5C81,171.4,80.8,171.3,80.6,171.3
			"/>
		<path class="st4" d="M83.9,164.6c-4.1,0-7.5,3.3-7.5,7.5c0,4.1,3.3,7.5,7.5,7.5c4.1,0,7.5-3.3,7.5-7.5
			C91.4,168,88,164.6,83.9,164.6 M83.9,164.9c4,0,7.2,3.2,7.2,7.2c0,4-3.2,7.2-7.2,7.2c-4,0-7.2-3.2-7.2-7.2
			C76.7,168.1,79.9,164.9,83.9,164.9"/>
	</g>
	<g>
		<g>
			<g>
				<path class="st5" d="M99.5,184.7c0.8,1.5,2.5,0.2,2.7-1.1c0.2-1.9-1-3.9-2-5.5c-0.1-0.2-0.4,0.1-0.5,0.1c-1,0.9-2,2.4-1.3,3.4
					c0.2,0.3,0.9-0.7,0.7-1c-0.3-0.5,0.4-1.3,0.8-1.7c-0.2,0-0.3,0.1-0.5,0.1c0.4,0.7,0.8,1.3,1.2,2c0.2,0.4,0.3,0.8,0.5,1.2
					c0.1,0.3,0.2,0.5,0.3,0.8c-0.3,1.3-0.7,1.6-1.2,0.7C100,183.5,99.3,184.4,99.5,184.7L99.5,184.7z"/>
				<path class="st5" d="M104.5,182.8c-0.3,0.9-0.8-0.7-0.9-0.9c-0.1-0.3-0.3-0.6-0.5-0.8c-0.5-0.5-1.1-0.2-1.7,0.2
					c0.1,0,0.2,0,0.4,0c-0.3-0.8-0.8-2.9,0.9-2.2c0.4,0.2,1-0.8,0.6-1c-1-0.5-1.7-0.1-2.3,0.8c-0.6,1-0.3,2.2,0.1,3.1
					c0.1,0.2,0.2,0.2,0.4,0c1.4-1.1,1.5,1.3,2.3,1.8c0.6,0.5,1.2-0.9,1.3-1.3C105.4,182.1,104.7,182.3,104.5,182.8L104.5,182.8z"/>
			</g>
			<path class="st5" d="M108.1,182.3c0.3,1,1.4,0.6,1.8-0.1c0.3-0.5,0.3-1.1,0.3-1.7c0-0.9,0-1.7,0.3-2.5c-0.3,0.2-0.7,0.3-1,0.5
				c0.2,1.2,0.3,3.1,1.3,4c0.7,0.6,1.7-0.8,1.9-1.2c0.3-0.7-0.6-0.2-0.8,0.1c-0.3,0.8-0.8-0.4-0.9-0.6c-0.3-0.9-0.5-1.9-0.6-2.8
				c-0.1-0.5-0.9,0.3-1,0.5c-0.2,0.6-0.3,1.1-0.3,1.7c0,0.3,0,0.7,0,1c0,0.2,0,0.4,0,0.5c0,0.5-0.3,0.2-0.4,0
				C108.8,181.2,108,182,108.1,182.3L108.1,182.3z"/>
			<path class="st5" d="M115.4,177.9c0.1,1.3,0.2,2.7,0.1,4c0,0.5,0.8-0.2,0.8-0.5c0.1-0.8,0.3-1.2,0.8-1.7c0.6-0.6,0.9-1.3,1.2-2.1
				c0.2-0.6-0.8-0.1-0.9,0.2c-0.4,1-0.4,2.3-0.4,3.4c0,0.3,0,0.7,0.3,0.9c0.4,0.3,1-0.2,1.3-0.4c0.5-0.4,0.1-0.8-0.4-0.4
				c-0.4,0.3-0.4-1.3-0.3-1.5c0-0.7,0.1-1.5,0.4-2.2c-0.3,0.1-0.6,0.1-0.9,0.2c-0.2,0.8-0.6,1.3-1.1,1.9c-0.6,0.6-0.7,1.4-0.8,2.2
				c0.3-0.2,0.6-0.3,0.8-0.5c0.1-1.3,0-2.7-0.1-4.1C116.3,176.9,115.4,177.6,115.4,177.9L115.4,177.9z"/>
			<g>
				<path class="st5" d="M122,181.8c-0.1,1,0.8,1.4,1.7,0.9c0.8-0.5,1.1-1.4,1.3-2.2c0.1-0.7,0.3-1.7-0.4-2.2
					c-0.3-0.2-0.9-0.1-1.2,0.1c-0.7,0.3-1,0.9-1.1,1.5c-0.1,0.5,1,0,1.1-0.3c0.1-0.6,0.4-0.7,0.6-0.1c0.1,0.4,0.1,0.7,0.1,1.1
					c0,0.4-0.1,0.9-0.3,1.3c-0.1,0.1-0.1,0.3-0.3,0.4c0.1-0.1,0-0.1-0.1-0.1c-0.3-0.1-0.3-0.4-0.3-0.6
					C123.1,181,122,181.5,122,181.8L122,181.8z"/>
				<path class="st5" d="M122.4,177.9c0,2.5-0.5,5.1-1.1,7.5c-0.1,0.5,0.8,0,0.9-0.3c0.7-2.5,1.3-5.1,1.3-7.6
					C123.5,177.1,122.4,177.5,122.4,177.9L122.4,177.9z"/>
			</g>
			<g>
				<path class="st5" d="M131.3,180.9c-0.5,0.9-0.9,1.8-1.2,2.7c-0.1,0.4-0.2,1,0.1,1.3c0.4,0.5,1.2,0.3,1.7,0.1
					c0.7-0.3,0-0.6-0.5-0.4c-0.3,0.1-0.3-0.8-0.3-0.8c0.1-0.4,0.2-0.9,0.4-1.3c0.2-0.6,0.5-1.1,0.9-1.7
					C132.7,180.5,131.5,180.6,131.3,180.9L131.3,180.9z"/>
				<path class="st5" d="M128.1,183.6c0,0.8,0.8,0.9,1.4,0.8c0.9-0.3,1.5-1.1,1.9-1.9c0.2-0.4-0.9-0.2-1.1,0.1c-0.1,0.2,0,0,0.1,0
					c-0.1,0-0.1-0.1-0.2-0.1c-0.2-0.1-0.2-0.3-0.2-0.5c0-0.3,0.2-0.7,0.4-0.9c0.3-0.5,0.5,0.2,0.4,0.5c-0.2,0.5,1,0.3,1.1,0
					c0.3-0.7-0.2-1.3-1.1-1.3c-1,0-1.7,0.9-1.9,1.7c-0.4,1.6,1.8,1.7,2.4,0.6c-0.4,0-0.7,0-1.1,0.1c-0.2,0.4-0.4,0.7-0.7,1.1
					c-0.3,0.3-0.6,0-0.6-0.3C129.2,182.9,128.1,183.3,128.1,183.6L128.1,183.6z"/>
			</g>
			<path class="st5" d="M115.3,181.3c-0.5,0.5-0.7-1.3-0.7-1.5c-0.1-0.8-0.1-1.5-0.1-2.3c0-0.5-0.9,0.2-0.9,0.5c0,0.7,0,1.3,0,2
				c0,0.3,0,0.7-0.1,1c-0.1,0.4,0,0.5-0.4,0.3c-0.9-0.5-0.6-2.7-0.4-3.5c0.1-0.6-0.8,0-0.9,0.4c-0.2,0.8-0.5,4.4,1.2,4.1
				c1.9-0.4,1.5-3.5,1.5-4.8c-0.3,0.2-0.6,0.3-0.9,0.5c0,1.2,0,2.5,0.4,3.6c0.3,1,1.2,0.6,1.7,0
				C116.2,181.2,115.8,180.9,115.3,181.3L115.3,181.3z"/>
			<path class="st5" d="M128.2,183.2c-0.6,0.3-0.2-1.5-0.2-1.6c0.2-0.7,0.5-1.5,0.7-2.2c0.2-0.5-0.9-0.1-1,0.2
				c-0.2,0.6-0.4,1.2-0.7,1.9c-0.1,0.3-0.3,0.7-0.4,1c-0.2,0.4-0.2,0.5-0.4,0.2c-0.6-0.8,0.4-2.7,0.8-3.5c0.3-0.5-0.8-0.3-0.9,0
				c-0.4,0.7-1.9,4-0.3,4.3c1.9,0.3,2.5-2.8,3-4c-0.4,0.1-0.7,0.1-1,0.2c-0.4,1.1-0.8,2.3-0.8,3.5c0,1,0.9,0.9,1.6,0.6
				C129,183.4,128.8,182.9,128.2,183.2L128.2,183.2z"/>
			<path class="st5" d="M121.6,178.5c0.1-1.3-1.8-0.8-2.3-0.2c-0.7,0.8-0.9,2-0.8,3c0.1,1,0.9,1.3,1.7,0.7
				C121.3,181.3,121.4,179.7,121.6,178.5c-0.4,0.1-0.7,0.2-1.1,0.3c-0.1,0.7-1,4.6,1.1,3.6c0.5-0.2,0.6-0.9-0.1-0.6
				c-0.2,0.1-0.2-1.1-0.2-1.1C121.3,180,121.5,179.3,121.6,178.5c0.1-0.5-1,0-1.1,0.3c-0.1,0.7-0.2,1.4-0.4,2.1
				c-0.1,0.2-0.2,0.7-0.3,0.7c-0.2,0-0.3-0.3-0.3-0.4c-0.2-0.5-0.1-1,0-1.5c0-0.3,0.1-0.5,0.3-0.8c0.1-0.1,0.1-0.3,0.2-0.4
				c0.2-0.2,0.5,0.3,0.5,0.4C120.5,179.4,121.6,178.9,121.6,178.5L121.6,178.5z"/>
			<g>
				<path class="st5" d="M104.2,179.6c0.3,0.8,0.5,4.4,1.9,3.9c1.7-0.7,1-3.8,0.9-5c0-0.5-0.9,0.3-0.8,0.7c0.1,0.9,0.2,1.7,0.3,2.6
					c0,0.3,0.1,1-0.3,0.8c-0.5-0.2-0.6-1.3-0.7-1.7c-0.1-0.6-0.2-1.3-0.4-1.9C104.8,178.4,104.1,179.2,104.2,179.6L104.2,179.6z"/>
				<path class="st5" d="M106.2,179.1c0.4,1.7,0.9,3.4,1.3,5c0.1,0.4,0.5,2-0.1,1.9c-1.1-0.1,0.1-3,0.3-3.3c0.4-0.6-0.4-0.5-0.6,0
					c-0.6,1.1-1.1,2.6-0.5,3.9c0.2,0.5,0.9,0.5,1.2,0.1c0.7-0.8,0.7-1.7,0.5-2.7c-0.2-1.9-0.9-3.7-1.3-5.6
					C106.9,177.9,106.1,178.7,106.2,179.1L106.2,179.1z"/>
			</g>
			<path class="st5" d="M123.8,178.9c0.8,0.8,1.8,1,2.8,0.6c0.1-0.1,0.4-0.2,0.3-0.4c-0.1-0.2-0.4,0-0.5,0c-0.6,0.3-1.3-0.2-1.7-0.6
				C124.3,178.2,123.5,178.6,123.8,178.9L123.8,178.9z"/>
		</g>
	</g>
	<g>
		<path class="st3" d="M129.5,199.4v-8.3c-13-3.6-24-1.1-27.8,0v8.6C105.3,198.6,116.4,196,129.5,199.4z"/>
		<path class="st3" d="M103,200.1c2.1,0.6,6.5,1.6,12.3,1.6c5.9,0,10.6-1.2,12.8-1.9C116.8,197.2,107.2,199,103,200.1z"/>
	</g>
	<g>
		<path class="st6" d="M178.4,70.3c-0.2-8.4-12.3-15.2-27.1-15.2c-14.8,0-26.8,6.8-27.1,15.2h0v9.2h0c0.6,8.2,12.4,14.8,27,14.8
			c14.6,0,26.5-6.6,27-14.8h0L178.4,70.3L178.4,70.3z"/>
		<ellipse class="st7" cx="146.3" cy="74.8" rx="27.1" ry="15.4"/>
		<rect x="119.3" y="66.2" class="st7" width="54.1" height="9.2"/>
		<ellipse class="st8" cx="146.3" cy="66.5" rx="27.1" ry="15.4"/>
		<polygon class="st9" points="161.6,76.3 155.4,70.9 165.2,66.5 		"/>
		<polygon class="st9" points="146.2,68 150.7,74.9 140.1,76.5 		"/>
		<polygon class="st10" points="137.6,59.1 136.7,67.3 127.5,61.8 		"/>
		<polygon class="st11" points="153.3,67.9 146,64.1 154.5,57.5 		"/>
	</g>
	<g>
		<path class="st6" d="M114.3,70.3c-0.2-8.4-12.3-15.2-27.1-15.2c-14.8,0-26.8,6.8-27.1,15.2h0v9.2h0c0.6,8.2,12.4,14.8,27,14.8
			c14.6,0,26.5-6.6,27-14.8h0L114.3,70.3L114.3,70.3z"/>
		<ellipse class="st7" cx="82.3" cy="74.8" rx="27.1" ry="15.4"/>
		<rect x="55.2" y="66.2" class="st7" width="54.1" height="9.2"/>
		<ellipse class="st8" cx="82.3" cy="66.5" rx="27.1" ry="15.4"/>
		<polygon class="st9" points="97.5,76.3 91.3,70.9 101.1,66.5 		"/>
		<polygon class="st9" points="82.1,68 86.6,74.9 76,76.5 		"/>
		<polygon class="st10" points="73.5,59.1 72.6,67.3 63.4,61.8 		"/>
		<polygon class="st11" points="89.2,67.9 81.9,64.1 90.4,57.5 		"/>
	</g>
	<g>
		<path class="st6" d="M178.4,113.7c-0.2-8.4-12.3-15.2-27.1-15.2c-14.8,0-26.8,6.8-27.1,15.2h0v9.2h0c0.6,8.2,12.4,14.8,27,14.8
			c14.6,0,26.5-6.6,27-14.8h0L178.4,113.7L178.4,113.7z"/>
		<ellipse class="st7" cx="146.3" cy="118.1" rx="27.1" ry="15.4"/>
		<rect x="119.3" y="109.5" class="st7" width="54.1" height="9.2"/>
		<ellipse class="st8" cx="146.3" cy="109.8" rx="27.1" ry="15.4"/>
		<polygon class="st9" points="161.6,119.6 155.4,114.2 165.2,109.8 		"/>
		<polygon class="st9" points="146.2,111.3 150.7,118.2 140.1,119.8 		"/>
		<polygon class="st10" points="137.6,102.4 136.7,110.6 127.5,105.1 		"/>
		<polygon class="st11" points="153.3,111.2 146,107.4 154.5,100.8 		"/>
	</g>
	<g>
		<path class="st6" d="M114.3,113.7c-0.2-8.4-12.3-15.2-27.1-15.2c-14.8,0-26.8,6.8-27.1,15.2h0v9.2h0c0.6,8.2,12.4,14.8,27,14.8
			c14.6,0,26.5-6.6,27-14.8h0L114.3,113.7L114.3,113.7z"/>
		<ellipse class="st7" cx="82.3" cy="118.1" rx="27.1" ry="15.4"/>
		<rect x="55.2" y="109.5" class="st7" width="54.1" height="9.2"/>
		<ellipse class="st8" cx="82.3" cy="109.8" rx="27.1" ry="15.4"/>
		<polygon class="st9" points="97.5,119.6 91.3,114.2 101.1,109.8 		"/>
		<polygon class="st9" points="82.1,111.3 86.6,118.2 76,119.8 		"/>
		<polygon class="st10" points="73.5,102.4 72.6,110.6 63.4,105.1 		"/>
		<polygon class="st11" points="89.2,111.2 81.9,107.4 90.4,100.8 		"/>
	</g>
	<path class="st5" d="M61.6,94.8h-1.7c-2,0-3.6-1.6-3.6-3.6V64.8c0-2,1.6-3.6,3.6-3.6h1.7c2,0,3.6,1.6,3.6,3.6v26.4
		C65.1,93.1,63.5,94.8,61.6,94.8z"/>
	<circle class="st5" cx="60.7" cy="51.4" r="4.7"/>
</g>
</svg>
