<?xml version="1.0" encoding="utf-8"?>
<!-- Generator: Adobe Illustrator 19.0.0, SVG Export Plug-In . SVG Version: 6.00 Build 0)  -->
<svg version="1.1" xmlns="http://www.w3.org/2000/svg" xmlns:xlink="http://www.w3.org/1999/xlink" x="0px" y="0px"
	 viewBox="0 0 299 188" style="enable-background:new 0 0 299 188;" xml:space="preserve">
<style type="text/css">
	.st0{fill:#519E38;}
	.st1{fill:#D1C97D;}
	.st2{fill:#DDD9A8;}
	.st3{fill:#F7F3A4;}
	.st4{fill:#D98A5A;}
	.st5{fill:#40AE77;}
</style>
<g id="Layer_2">
</g>
<g id="kolba_4">
</g>
<g id="kolba_3">
</g>
<g id="kolby">
</g>
<g id="doma">
</g>
<g id="butylka_3">
</g>
<g id="butylka_2">
</g>
<g id="butylka_1">
</g>
<g id="vanna_2">
</g>
<g id="sneg">
</g>
<g id="vanna_1">
</g>
<g id="shariki_2">
</g>
<g id="shariki_1">
</g>
<g id="voronka">
</g>
<g id="gradusnik">
</g>
<g id="kolba_2">
</g>
<g id="kolba_1">
</g>
<g id="probirki">
</g>
<g id="potato">
</g>
<g id="zavod">
</g>
<g id="blank">
</g>
<g id="ticks">
</g>
<g id="car">
</g>
<g id="lupa">
	<g>
		<path class="st0" d="M104.5,57.8c-0.3-9.2-13.5-16.7-29.7-16.7c-16.3,0-29.5,7.4-29.7,16.7h0v10.1h0c0.6,9.1,13.7,16.3,29.7,16.3
			c16,0,29.1-7.2,29.7-16.3h0L104.5,57.8L104.5,57.8z"/>
		<path class="st0" d="M182.6,57.8c-0.3-9.2-13.5-16.7-29.7-16.7c-16.3,0-29.5,7.4-29.7,16.7h0v10.1h0c0.6,9.1,13.7,16.3,29.7,16.3
			c16,0,29.1-7.2,29.7-16.3h0L182.6,57.8L182.6,57.8z"/>
		<path class="st0" d="M257.9,57.8c-0.3-9.2-13.5-16.7-29.7-16.7c-16.3,0-29.5,7.4-29.7,16.7h0v10.1h0c0.6,9.1,13.7,16.3,29.7,16.3
			c16,0,29.1-7.2,29.7-16.3h0L257.9,57.8L257.9,57.8z"/>
		<path class="st0" d="M104.5,124c-0.3-9.2-13.5-16.7-29.7-16.7c-16.3,0-29.5,7.4-29.7,16.7h0v10.1h0c0.6,9.1,13.7,16.3,29.7,16.3
			c16,0,29.1-7.2,29.7-16.3h0L104.5,124L104.5,124z"/>
		<path class="st0" d="M182.6,124c-0.3-9.2-13.5-16.7-29.7-16.7c-16.3,0-29.5,7.4-29.7,16.7h0v10.1h0c0.6,9.1,13.7,16.3,29.7,16.3
			c16,0,29.1-7.2,29.7-16.3h0L182.6,124L182.6,124z"/>
		<path class="st0" d="M257.9,124c-0.3-9.2-13.5-16.7-29.7-16.7c-16.3,0-29.5,7.4-29.7,16.7h0v10.1h0c0.6,9.1,13.7,16.3,29.7,16.3
			c16,0,29.1-7.2,29.7-16.3h0L257.9,124L257.9,124z"/>
		<ellipse class="st1" cx="69.5" cy="128.8" rx="29.7" ry="17"/>
		<rect x="39.7" y="119.4" class="st1" width="59.5" height="10.1"/>
		<ellipse class="st2" cx="69.5" cy="119.7" rx="29.7" ry="17"/>
		<ellipse class="st1" cx="148.5" cy="128.8" rx="29.7" ry="17"/>
		<rect x="118.7" y="119.4" class="st1" width="59.5" height="10.1"/>
		<ellipse class="st2" cx="148.5" cy="119.7" rx="29.7" ry="17"/>
		<ellipse class="st1" cx="222.6" cy="128.8" rx="29.7" ry="17"/>
		<rect x="192.9" y="119.4" class="st1" width="59.5" height="10.1"/>
		<ellipse class="st2" cx="222.6" cy="119.7" rx="29.7" ry="17"/>
		<ellipse class="st1" cx="69.5" cy="62.6" rx="29.7" ry="17"/>
		<rect x="39.7" y="53.2" class="st1" width="59.5" height="10.1"/>
		<ellipse class="st2" cx="69.5" cy="53.5" rx="29.7" ry="17"/>
		<ellipse class="st1" cx="148.5" cy="62.6" rx="29.7" ry="17"/>
		<rect x="118.7" y="53.2" class="st1" width="59.5" height="10.1"/>
		<ellipse class="st2" cx="148.5" cy="53.5" rx="29.7" ry="17"/>
		<ellipse class="st1" cx="222.6" cy="62.6" rx="29.7" ry="17"/>
		<rect x="192.9" y="53.2" class="st1" width="59.5" height="10.1"/>
		<ellipse class="st2" cx="222.6" cy="53.5" rx="29.7" ry="17"/>
		<polygon class="st3" points="222.6,40.3 229.4,46.3 218.7,51.1 		"/>
		<polygon class="st3" points="52.3,43.3 59.1,49.3 48.4,54.1 		"/>
		<polygon class="st3" points="69.2,52.5 64.3,44.8 76,43.1 		"/>
		<polygon class="st3" points="138.8,43.3 145.6,49.3 134.9,54.1 		"/>
		<polygon class="st3" points="163.3,52.3 170.1,58.3 159.4,63.1 		"/>
		<polygon class="st4" points="206.9,57.7 208,48.7 218,54.7 		"/>
		<polygon class="st4" points="138.4,62.2 139.5,53.2 149.5,59.2 		"/>
		<polygon class="st4" points="78.7,62.2 79.7,53.2 89.8,59.2 		"/>
		<polygon class="st5" points="234.4,47.5 242.4,51.7 233.1,58.9 		"/>
		<polygon class="st5" points="154.1,42.7 162.1,46.9 152.8,54.1 		"/>
		<polygon class="st3" points="82.1,129.3 75.3,123.3 86,118.5 		"/>
		<polygon class="st3" points="57.6,120.3 50.8,114.3 61.5,109.5 		"/>
		<polygon class="st4" points="82.4,110.4 81.4,119.4 71.3,113.4 		"/>
		<polygon class="st5" points="66.8,129.9 58.7,125.7 68.1,118.5 		"/>
		<polygon class="st5" points="61.4,52.5 69.5,56.8 60.1,64 		"/>
		<polygon class="st3" points="239.4,130.6 232.6,124.6 243.3,119.7 		"/>
		<polygon class="st3" points="222.5,121.4 227.4,129 215.7,130.7 		"/>
		<polygon class="st4" points="213,111.6 212,120.6 201.9,114.6 		"/>
		<polygon class="st5" points="230.3,121.3 222.2,117.1 231.6,109.9 		"/>
		<polygon class="st5" points="226.9,60.1 222.1,67.8 215.6,58 		"/>
		<polygon class="st3" points="150.3,133.4 143.5,127.4 154.2,122.5 		"/>
		<polygon class="st4" points="166,115.9 165,124.9 154.9,118.9 		"/>
		<polygon class="st5" points="138.5,126.2 130.5,121.9 139.8,114.7 		"/>
		<polygon class="st5" points="146,113.5 150.8,105.8 157.4,115.6 		"/>
	</g>
</g>
</svg>
