<?xml version="1.0" encoding="utf-8"?>
<!-- Generator: Adobe Illustrator 19.0.0, SVG Export Plug-In . SVG Version: 6.00 Build 0)  -->
<svg version="1.1" xmlns="http://www.w3.org/2000/svg" xmlns:xlink="http://www.w3.org/1999/xlink" x="0px" y="0px"
	 viewBox="0 0 306 202" style="enable-background:new 0 0 306 202;" xml:space="preserve">
<style type="text/css">
	.st0{fill:#DDD9A8;}
	.st1{fill:#EFEFEF;}
	.st2{fill:#DDDDDD;}
	.st3{fill:#FFFFFF;}
	.st4{fill:#D98A5A;}
	.st5{fill:#F7F3A4;}
	.st6{fill:#40AE77;}
</style>
<g id="Layer_2">
</g>
<g id="kolba_4">
</g>
<g id="kolba_3">
</g>
<g id="kolby">
</g>
<g id="doma">
</g>
<g id="butylka_3">
</g>
<g id="butylka_2">
</g>
<g id="butylka_1">
</g>
<g id="vanna_2">
</g>
<g id="sneg">
</g>
<g id="vanna_1">
</g>
<g id="shariki_2">
</g>
<g id="shariki_1">
</g>
<g id="voronka">
</g>
<g id="gradusnik">
</g>
<g id="kolba_2">
</g>
<g id="kolba_1">
</g>
<g id="probirki">
</g>
<g id="potato">
</g>
<g id="zavod">
</g>
<g id="blank">
</g>
<g id="ticks">
</g>
<g id="car">
</g>
<g id="lupa">
	<ellipse class="st0" cx="157.9" cy="97.5" rx="79.2" ry="55"/>
	<path class="st1" d="M58.4,97.5c14.4,41,53.5,70.5,99.5,70.5s85.1-29.4,99.5-70.5H58.4z"/>
	<path class="st2" d="M258.5,97.5H57.3c-2.1,0-3.9-1.7-3.9-3.9v0c0-2.1,1.7-3.9,3.9-3.9h201.2c2.1,0,3.9,1.7,3.9,3.9v0
		C262.4,95.7,260.7,97.5,258.5,97.5z"/>
	<path class="st3" d="M94.3,132c-0.9,0-1.8-0.2-2.7-0.7c-12.1-7.1-17.8-20.2-18-20.7c-1.2-2.7,0.1-5.9,2.8-7c2.7-1.2,5.9,0.1,7,2.8
		c0.1,0.1,4.6,10.4,13.6,15.7c2.6,1.5,3.4,4.8,1.9,7.3C97.9,131,96.1,132,94.3,132z"/>
	<polygon class="st4" points="122.3,59 131,56.3 129.5,68 	"/>
	<polygon class="st5" points="128.5,76 137.1,73.3 135.6,85 	"/>
	<polygon class="st5" points="198.2,66.5 205,72.5 194.2,77.3 	"/>
	<polygon class="st5" points="179.9,48.3 185.9,55.1 174.6,58.5 	"/>
	<polygon class="st5" points="91.6,79.2 97.6,86 86.4,89.4 	"/>
	<polygon class="st4" points="174.4,74.9 175.5,65.9 185.5,72 	"/>
	<polygon class="st4" points="155.5,77.2 160.8,84.5 149.3,86.8 	"/>
	<polygon class="st4" points="151.6,56.3 152.6,47.3 162.7,53.4 	"/>
	<polygon class="st4" points="111.2,86.6 112.2,77.6 122.3,83.6 	"/>
	<polygon class="st6" points="157,59.4 165,63.6 155.7,70.8 	"/>
	<polygon class="st6" points="213.4,71.9 221.4,76.1 212.1,83.3 	"/>
	<polygon class="st6" points="93.4,74.3 97.4,66.1 104.8,75.3 	"/>
	<polygon class="st6" points="176.6,85.7 180.6,77.5 188,86.7 	"/>
</g>
</svg>
