<?xml version="1.0" encoding="utf-8"?>
<svg xmlns="http://www.w3.org/2000/svg"
	xmlns:xlink="http://www.w3.org/1999/xlink"
	width="198px" height="22px" viewBox="0 0 198 22">
<path fillRule="evenodd" d="M 196.21 6.42C 195.87 4.79 195.4 3.7 194.79 3.13 194.18 2.56 193.2 2.28 191.86 2.28 191.86 2.28 190 2.28 190 2.28 190 2.28 190 17.25 190 17.25 190 18.22 190.17 18.89 190.5 19.27 190.84 19.65 191.54 19.84 192.6 19.84 192.6 19.84 193.16 19.84 193.16 19.84 193.16 19.84 193.16 21.58 193.16 21.58 193.16 21.58 181.29 21.58 181.29 21.58 181.29 21.58 181.29 19.84 181.29 19.84 181.29 19.84 181.8 19.84 181.8 19.84 182.88 19.84 183.58 19.65 183.9 19.26 184.22 18.86 184.38 18.2 184.38 17.25 184.38 17.25 184.38 2.28 184.38 2.28 184.38 2.28 182.58 2.28 182.58 2.28 181.5 2.28 180.71 2.39 180.2 2.62 179.69 2.85 179.27 3.31 178.93 3.99 178.58 4.67 178.37 5.48 178.3 6.42 178.3 6.42 176.51 6.42 176.51 6.42 176.51 6.42 176.51 0.39 176.51 0.39 176.51 0.39 198 0.39 198 0.39 198 0.39 198 6.42 198 6.42 198 6.42 196.21 6.42 196.21 6.42ZM 172.66 2.56C 172.19 2.85 171.87 3.22 171.7 3.68 171.53 4.13 171.44 4.79 171.44 5.65 171.44 5.65 171.44 21.92 171.44 21.92 171.44 21.92 169.42 21.92 169.42 21.92 169.42 21.92 155.5 6.42 155.5 6.42 155.5 6.42 155.5 16.15 155.5 16.15 155.5 17.72 155.78 18.72 156.36 19.17 156.93 19.62 157.67 19.84 158.57 19.84 158.57 19.84 158.57 21.58 158.57 21.58 158.57 21.58 150.51 21.58 150.51 21.58 150.51 21.58 150.51 19.84 150.51 19.84 151.19 19.84 151.79 19.68 152.3 19.35 152.8 19.02 153.13 18.64 153.26 18.21 153.4 17.78 153.47 17.1 153.47 16.17 153.47 16.17 153.47 5.36 153.47 5.36 153.47 3.2 152.44 2.12 150.4 2.12 150.4 2.12 150.4 0.39 150.4 0.39 150.4 0.39 157.65 0.39 157.65 0.39 157.65 0.39 169.42 13.36 169.42 13.36 169.42 13.36 169.42 5.59 169.42 5.59 169.42 3.28 168.43 2.12 166.46 2.12 166.46 2.12 166.46 0.39 166.46 0.39 166.46 0.39 174.17 0.39 174.17 0.39 174.17 0.39 174.17 2.12 174.17 2.12 173.63 2.12 173.13 2.27 172.66 2.56ZM 136.87 18.65C 136.99 18.95 137.3 19.21 137.81 19.41 138.31 19.61 139.08 19.72 140.12 19.72 141.52 19.72 142.55 19.54 143.21 19.2 143.87 18.86 144.47 18.25 144.99 17.39 145.51 16.52 145.89 15.6 146.12 14.62 146.12 14.62 147.89 14.62 147.89 14.62 147.89 14.62 147.75 21.58 147.75 21.58 147.75 21.58 128.11 21.58 128.11 21.58 128.11 21.58 128.11 19.84 128.11 19.84 128.11 19.84 128.51 19.84 128.51 19.84 129.58 19.84 130.27 19.65 130.59 19.26 130.91 18.86 131.08 18.2 131.08 17.25 131.08 17.25 131.08 4.68 131.08 4.68 131.08 3.72 130.91 3.04 130.58 2.66 130.24 2.28 129.55 2.09 128.51 2.09 128.51 2.09 128.11 2.09 128.11 2.09 128.11 2.09 128.11 0.39 128.11 0.39 128.11 0.39 146.41 0.39 146.41 0.39 146.41 0.39 146.72 5.87 146.72 5.87 146.72 5.87 144.95 5.87 144.95 5.87 144.63 4.91 144.28 4.15 143.89 3.58 143.5 3.02 143.1 2.65 142.71 2.49 142.31 2.33 141.64 2.25 140.7 2.25 140.7 2.25 136.7 2.25 136.7 2.25 136.7 2.25 136.7 9.56 136.7 9.56 136.7 9.56 138.69 9.56 138.69 9.56 139.64 9.56 140.27 9.38 140.59 9.03 140.9 8.67 141.07 7.98 141.12 6.93 141.12 6.93 142.91 6.93 142.91 6.93 142.91 6.93 142.91 14.12 142.91 14.12 142.91 14.12 141.12 14.12 141.12 14.12 141.13 13.99 141.13 13.89 141.13 13.83 141.13 13.22 141 12.67 140.74 12.18 140.48 11.69 139.82 11.45 138.76 11.45 138.76 11.45 136.7 11.45 136.7 11.45 136.7 11.45 136.7 16.68 136.7 16.68 136.7 17.68 136.76 18.34 136.87 18.65ZM 120.72 19.64C 119.39 20.51 118.01 21.05 116.58 21.26 115.16 21.47 112.76 21.58 109.39 21.58 109.39 21.58 101.67 21.58 101.67 21.58 101.67 21.58 101.67 19.84 101.67 19.84 102.8 19.84 103.54 19.67 103.91 19.32 104.28 18.97 104.47 18.28 104.47 17.25 104.47 17.25 104.47 4.7 104.47 4.7 104.47 3.7 104.29 3.02 103.95 2.65 103.6 2.29 102.84 2.11 101.67 2.11 101.67 2.11 101.67 0.39 101.67 0.39 101.67 0.39 104.25 0.29 104.25 0.29 106.84 0.19 108.88 0.14 110.36 0.14 112.83 0.14 114.84 0.28 116.39 0.56 117.93 0.84 119.4 1.46 120.77 2.41 122.15 3.36 123.21 4.6 123.96 6.11 124.7 7.63 125.07 9.3 125.07 11.12 125.07 12.99 124.68 14.65 123.89 16.12 123.11 17.59 122.05 18.76 120.72 19.64ZM 117.57 5.57C 116.84 4.2 115.89 3.27 114.73 2.78 113.57 2.29 112.02 2.04 110.09 2.04 110.09 2.04 110.09 16.64 110.09 16.64 110.09 17.58 110.14 18.21 110.23 18.53 110.32 18.85 110.55 19.13 110.94 19.36 111.32 19.59 111.92 19.7 112.72 19.7 114.71 19.7 116.19 18.98 117.18 17.54 118.17 16.11 118.66 13.96 118.66 11.09 118.66 8.78 118.29 6.94 117.57 5.57ZM 87.75 19.84C 88.89 19.84 89.64 19.67 90.02 19.33 90.39 18.98 90.58 18.29 90.58 17.25 90.58 17.25 90.58 4.72 90.58 4.72 90.58 3.71 90.4 3.02 90.05 2.66 89.7 2.3 88.93 2.12 87.75 2.12 87.75 2.12 87.75 0.39 87.75 0.39 87.75 0.39 99.1 0.39 99.1 0.39 99.1 0.39 99.1 2.12 99.1 2.12 99.1 2.12 98.77 2.12 98.77 2.12 97.7 2.12 97.01 2.32 96.69 2.71 96.36 3.1 96.2 3.77 96.2 4.72 96.2 4.72 96.2 17.25 96.2 17.25 96.2 18.22 96.37 18.89 96.7 19.27 97.03 19.65 97.72 19.84 98.77 19.84 98.77 19.84 99.1 19.84 99.1 19.84 99.1 19.84 99.1 21.58 99.1 21.58 99.1 21.58 87.75 21.58 87.75 21.58 87.75 21.58 87.75 19.84 87.75 19.84ZM 78.02 22.01C 76.91 22.01 75.83 21.78 74.77 21.33 73.71 20.87 72.86 20.26 72.23 19.5 71.98 19.97 71.8 20.54 71.69 21.22 71.69 21.22 69.79 21.22 69.79 21.22 69.79 21.22 69.79 13.97 69.79 13.97 69.79 13.97 71.69 13.97 71.69 13.97 72.21 16.13 73.01 17.68 74.06 18.61 75.12 19.53 76.26 20 77.48 20 78.39 20 79.11 19.73 79.65 19.2 80.19 18.67 80.46 18.04 80.46 17.33 80.46 16.81 80.29 16.3 79.95 15.79 79.62 15.28 78.81 14.72 77.55 14.09 75.11 12.89 73.46 12.02 72.61 11.46 71.75 10.9 71.06 10.18 70.55 9.31 70.03 8.43 69.77 7.43 69.77 6.29 69.77 4.47 70.43 2.97 71.76 1.79 73.08 0.6 74.62 0.01 76.36 0.01 78.19 0.01 79.74 0.62 81.02 1.83 81.23 1.51 81.4 1.03 81.54 0.39 81.54 0.39 83.36 0.39 83.36 0.39 83.36 0.39 83.36 6.64 83.36 6.64 83.36 6.64 81.59 6.64 81.59 6.64 81.27 5.25 80.67 4.11 79.78 3.22 78.89 2.32 77.9 1.87 76.79 1.87 75.95 1.87 75.29 2.1 74.8 2.56 74.31 3.02 74.06 3.59 74.06 4.28 74.06 4.81 74.22 5.3 74.54 5.75 74.85 6.21 75.28 6.58 75.82 6.88 76.36 7.18 77.5 7.73 79.24 8.53 80.8 9.26 81.96 9.91 82.71 10.48 83.46 11.05 84.05 11.78 84.49 12.65 84.93 13.52 85.15 14.46 85.15 15.47 85.15 17.34 84.45 18.9 83.04 20.15 81.64 21.39 79.96 22.01 78.02 22.01ZM 55.22 18.65C 55.33 18.95 55.64 19.21 56.15 19.41 56.66 19.61 57.43 19.72 58.46 19.72 59.87 19.72 60.9 19.54 61.56 19.2 62.22 18.86 62.81 18.25 63.33 17.39 63.86 16.52 64.23 15.6 64.47 14.62 64.47 14.62 66.24 14.62 66.24 14.62 66.24 14.62 66.1 21.58 66.1 21.58 66.1 21.58 46.46 21.58 46.46 21.58 46.46 21.58 46.46 19.84 46.46 19.84 46.46 19.84 46.85 19.84 46.85 19.84 47.92 19.84 48.61 19.65 48.94 19.26 49.26 18.86 49.42 18.2 49.42 17.25 49.42 17.25 49.42 4.68 49.42 4.68 49.42 3.72 49.25 3.04 48.92 2.66 48.59 2.28 47.9 2.09 46.85 2.09 46.85 2.09 46.46 2.09 46.46 2.09 46.46 2.09 46.46 0.39 46.46 0.39 46.46 0.39 64.75 0.39 64.75 0.39 64.75 0.39 65.07 5.87 65.07 5.87 65.07 5.87 63.29 5.87 63.29 5.87 62.98 4.91 62.62 4.15 62.23 3.58 61.84 3.02 61.45 2.65 61.05 2.49 60.66 2.33 59.99 2.25 59.05 2.25 59.05 2.25 55.04 2.25 55.04 2.25 55.04 2.25 55.04 9.56 55.04 9.56 55.04 9.56 57.04 9.56 57.04 9.56 57.99 9.56 58.62 9.38 58.93 9.03 59.24 8.67 59.42 7.98 59.46 6.93 59.46 6.93 61.25 6.93 61.25 6.93 61.25 6.93 61.25 14.12 61.25 14.12 61.25 14.12 59.46 14.12 59.46 14.12 59.47 13.99 59.48 13.89 59.48 13.83 59.48 13.22 59.35 12.67 59.09 12.18 58.83 11.69 58.17 11.45 57.1 11.45 57.1 11.45 55.04 11.45 55.04 11.45 55.04 11.45 55.04 16.68 55.04 16.68 55.04 17.68 55.1 18.34 55.22 18.65ZM 35.1 16.11C 34.27 14.63 33.68 13.67 33.35 13.25 33.01 12.82 32.66 12.55 32.31 12.43 31.95 12.31 31.19 12.24 30 12.23 30 12.23 30 17.25 30 17.25 30 18.22 30.17 18.89 30.51 19.27 30.85 19.65 31.54 19.84 32.59 19.84 32.59 19.84 32.97 19.84 32.97 19.84 32.97 19.84 32.97 21.58 32.97 21.58 32.97 21.58 21.39 21.58 21.39 21.58 21.39 21.58 21.39 19.84 21.39 19.84 21.39 19.84 21.82 19.84 21.82 19.84 22.89 19.84 23.59 19.65 23.91 19.26 24.24 18.86 24.4 18.2 24.4 17.25 24.4 17.25 24.4 4.72 24.4 4.72 24.4 3.75 24.23 3.07 23.89 2.69 23.55 2.31 22.86 2.12 21.82 2.12 21.82 2.12 21.39 2.12 21.39 2.12 21.39 2.12 21.39 0.39 21.39 0.39 21.39 0.39 30 0.37 30 0.37 30 0.37 31.94 0.36 31.94 0.36 33.85 0.36 35.24 0.42 36.13 0.54 37.01 0.67 37.88 0.97 38.73 1.44 39.59 1.92 40.26 2.56 40.75 3.39 41.24 4.21 41.49 5.1 41.49 6.04 41.49 8.57 40.04 10.29 37.15 11.22 37.92 11.69 39.12 13.19 40.74 15.72 42.01 17.66 42.91 18.84 43.45 19.24 43.99 19.64 44.58 19.84 45.22 19.84 45.22 19.84 45.22 21.58 45.22 21.58 45.22 21.58 38.51 21.58 38.51 21.58 37.9 20.86 36.76 19.03 35.1 16.11ZM 34.56 3.17C 33.84 2.6 32.62 2.31 30.88 2.31 30.65 2.31 30.36 2.32 30 2.33 30 2.33 30 10.33 30 10.33 31.79 10.35 32.99 10.24 33.62 10 34.24 9.77 34.73 9.35 35.09 8.74 35.45 8.13 35.63 7.3 35.63 6.26 35.63 4.77 35.27 3.74 34.56 3.17ZM 15.44 11.72C 14.14 12.04 12.42 12.2 10.29 12.2 10.29 12.2 8.7 12.2 8.7 12.2 8.7 12.2 8.7 17.25 8.7 17.25 8.7 18.22 8.87 18.89 9.2 19.27 9.53 19.65 10.23 19.84 11.28 19.84 11.28 19.84 11.78 19.84 11.78 19.84 11.78 19.84 11.78 21.58 11.78 21.58 11.78 21.58 0.14 21.58 0.14 21.58 0.14 21.58 0.14 19.84 0.14 19.84 0.14 19.84 0.52 19.84 0.52 19.84 1.58 19.84 2.28 19.65 2.6 19.26 2.92 18.86 3.08 18.2 3.08 17.25 3.08 17.25 3.08 4.72 3.08 4.72 3.08 3.75 2.91 3.07 2.58 2.69 2.25 2.31 1.56 2.12 0.52 2.12 0.52 2.12-0.01 2.12-0.01 2.12-0.01 2.12-0.01 0.39-0.01 0.39-0.01 0.39 8.7 0.2 8.7 0.2 10.88 0.2 12.56 0.26 13.75 0.37 14.94 0.49 16.03 0.8 17.02 1.33 18.01 1.85 18.76 2.54 19.26 3.4 19.76 4.26 20.01 5.2 20.01 6.22 20.01 7.6 19.58 8.79 18.7 9.77 17.83 10.75 16.75 11.41 15.44 11.72ZM 13.33 3.71C 12.92 3.04 12.39 2.6 11.76 2.4 11.13 2.19 10.11 2.09 8.7 2.09 8.7 2.09 8.7 10.33 8.7 10.33 8.7 10.33 9.75 10.33 9.75 10.33 11.43 10.33 12.55 9.96 13.11 9.24 13.67 8.52 13.95 7.55 13.95 6.34 13.95 5.26 13.74 4.38 13.33 3.71Z" fill="rgb(42,42,42)"/></svg>