<?xml version="1.0" encoding="utf-8"?>
<!-- Generator: Adobe Illustrator 19.0.0, SVG Export Plug-In . SVG Version: 6.00 Build 0)  -->
<svg version="1.1" xmlns="http://www.w3.org/2000/svg" xmlns:xlink="http://www.w3.org/1999/xlink" x="0px" y="0px"
	 viewBox="110 -116 277.6 288" style="enable-background:new 110 -116 277.6 288;" xml:space="preserve">
<style type="text/css">
	.st0{fill:#519E38;}
	.st1{fill:#F4F4F4;}
	.st2{fill:#D6D6D6;}
	.st3{fill:#EAEAEA;}
	.st4{fill:#FFFFFF;}
	.st5{fill:#483290;}
	.st6{fill:#62BA47;}
	.st7{fill:#62BA46;}
	.st8{fill:url(#SVGID_1_);}
	.st9{fill:url(#SVGID_2_);}
	.st10{fill:url(#SVGID_3_);}
	.st11{fill:url(#SVGID_4_);}
	.st12{fill:url(#SVGID_5_);}
</style>
<g id="bottle">
	<g id="kolba_3">
	</g>
	<g id="kolby">
	</g>
	<g id="doma">
	</g>
	<g id="car">
	</g>
	<g id="butylka_3">
	</g>
	<g id="butylka_2">
		<g>
			<path class="st0" d="M286.5,108.9c0,0,0-64.5,0-99.6s-14.6-48.4-14.6-48.4c3.9-21.7-6.5-28.2-6.5-28.2v-7.8h2.2c0,0,0-8.4,0-11.2
				c0-2.8-3.9-2.5-3.9-2.5h-14.3h-1.3h-14.3c0,0-3.9-0.3-3.9,2.5c0,2.8,0,11.2,0,11.2h2.3v7.8h-0.1c0,0-10.4,6.5-6.5,28.2
				c0,0-14.6,13.4-14.6,48.4s0,99.6,0,99.6s-1.5,21.4,14.3,21.4c4.3,0,7.8,0,10.8,0c8.1,0,11.8,0,11.8,0h0.7h0.8h0.1h11.7h0.1
				c3,0,6.5,0,10.8,0c0,0,0,0,0.1,0C288,130.3,286.5,108.9,286.5,108.9z"/>
			<path class="st1" d="M278.8,103.8c0,0,0-64.5,0-99.6s-14.6-48.4-14.6-48.4c3.9-21.7-6.5-28.2-6.5-28.2v-8h-33v8h-0.1
				c0,0-10.4,6.5-6.5,28.2c0,0-14.6,13.4-14.6,48.4c0,35.1,0,99.6,0,99.6s-1.5,21.4,14.3,21.4c4.3,0,7.8,0,10.8,0
				c8.1,0,11.8,0,11.8,0h1.6h11.8c3,0,6.6,0,10.8,0C280.3,125.2,278.8,103.8,278.8,103.8z"/>
			<path class="st2" d="M256.1-93.9h-14.3h-1.3h-14.3c0,0-3.9-0.3-3.9,2.5c0,2.8,0,11.2,0,11.2h18.1h1.3H260c0,0,0-8.4,0-11.2
				S256.1-93.9,256.1-93.9z"/>
			<path class="st3" d="M278.8,103.8c0,0,0-64.5,0-99.6s-14.6-48.4-14.6-48.4c3.9-21.7-6.5-28.2-6.5-28.2v-8h-16.6v205.6h0.8h11.8
				c3,0,6.6,0,10.8,0C280.3,125.2,278.8,103.8,278.8,103.8z"/>
			<path class="st4" d="M215.8-7.3c-0.2,0-0.4,0-0.5,0c-2.3-0.3-3.9-2.4-3.6-4.7c1.9-14.4,8.8-23.1,9.1-23.5
				c1.4-1.8,4.1-2.1,5.9-0.6c1.8,1.4,2.1,4.1,0.6,5.8c-0.1,0.1-5.8,7.4-7.4,19.3C219.6-8.8,217.9-7.3,215.8-7.3z"/>
		</g>
		<g>
			<circle class="st5" cx="240.4" cy="36.3" r="20"/>
			<g>
				<circle class="st6" cx="224.5" cy="54" r="6.3"/>
				<g>
					<path class="st4" d="M221.7,52.9c0.1-0.4,0.6-0.4,0.9-0.2c0.4,0.3-0.2,0.7-0.4,0.9s-0.6,0.5-0.5,0.9c0.1,0.3,0.7,0.2,0.9,0.3
						c0.4,0.1,0.5,0.3,0.4,0.7c-0.2,0.6-1,0.3-1.2,0c-0.2-0.2-0.8,0.4-0.6,0.6c0.8,0.8,1.9,0.2,2.4-0.6c0.2-0.3,0.3-0.9,0-1.2
						c-0.2-0.3-0.8-0.2-1.1-0.3c-0.1-0.1-0.1,0-0.1,0.1c0.1-0.1,0.3-0.2,0.4-0.4c0.2-0.2,0.4-0.3,0.5-0.5c0.2-0.3,0.2-0.9-0.1-1.1
						c-0.8-0.5-1.8,0.4-2,1.1C220.9,53.5,221.6,53.1,221.7,52.9L221.7,52.9z"/>
					<g>
						<path class="st4" d="M227.2,52.3c-0.8,1.3-1.7,2.5-2.6,3.6c-0.4,0.5,0.2,0.5,0.5,0.1c0.9-1.2,1.9-2.5,2.7-3.8
							C228.2,51.7,227.4,52,227.2,52.3L227.2,52.3z"/>
						<path class="st4" d="M225.8,51.9c-0.5,0-0.8,0.5-0.9,0.9c-0.1,0.4,0.2,0.8,0.6,0.8C226.4,53.6,226.9,52,225.8,51.9
							c-0.2,0-0.6,0.5-0.3,0.5c0.2,0,0.3,0.2,0.4,0.4c0,0.1,0,0.2,0,0.2c0,0.1,0,0,0,0h-0.1c-0.2,0-0.4-0.2-0.4-0.4
							c0-0.1,0-0.2,0-0.3s0,0,0,0h0.1C225.8,52.4,226.1,51.9,225.8,51.9z"/>
						<path class="st4" d="M227.2,54.6c-0.5,0-0.8,0.5-0.9,0.9c-0.1,0.4,0.2,0.8,0.6,0.8C227.7,56.3,228.2,54.7,227.2,54.6
							c-0.2,0-0.6,0.5-0.3,0.5c0.2,0,0.3,0.2,0.4,0.4c0,0.1,0,0.2,0,0.2c0,0.1,0,0,0,0h-0.1c-0.2,0-0.4-0.2-0.4-0.4
							c0-0.1,0-0.2,0-0.3s0,0,0,0h0.1C227.1,55.1,227.4,54.6,227.2,54.6z"/>
					</g>
				</g>
			</g>
			<g>
				<path class="st4" d="M256,38.7c-0.2,0-0.5,0.1-0.6,0.3s-0.2,0.4-0.4,0.5l0,0h-0.1c-0.1-0.2,0-0.6,0.1-0.7
					c0.1-0.6,0.4-1.2,0.7-1.7c0.1-0.1,0.2-0.2,0.3-0.4c0.1-0.1,0.1-0.3-0.2-0.3c-0.2,0-0.5,0.1-0.6,0.2c-0.1,0.1-0.2,0.3-0.3,0.4
					c-0.1,0.2-0.3,0.3-0.5,0.5c-0.2,0.1-0.3,0.1-0.5,0.2l0,0c0.2-0.6,0.3-1.2,0.5-1.8c0-0.1,0-0.2-0.1-0.2c-0.2-0.1-0.7,0.1-0.8,0.3
					c-0.3,0.9-0.8,1.7-1.5,2.3l-0.1-0.1c-0.1-0.1-0.1-0.2-0.1-0.3c0-0.2,0-0.5,0.1-0.7c0-0.2,0.1-0.3,0.1-0.5
					c0.1-0.4,0.3-0.8,0.4-1.1c0-0.1,0.1-0.2,0.1-0.3c0.1-0.2-0.2-0.2-0.3-0.2c-0.2,0-0.4,0.2-0.5,0.3s-0.1,0.3-0.1,0.4
					c-0.1,0.3-0.2,0.6-0.3,0.9c0,0.1-0.1,0.3-0.1,0.4c-0.1,0.3-0.2,0.5-0.4,0.7l0,0l-0.1-0.1c-0.3-0.3-0.1-1,0-1.4
					c0-0.2,0.1-0.3,0.1-0.5c0-0.1,0.1-0.1,0.1-0.2v-0.1c0.1-0.2,0.2-0.5,0.3-0.7c0.1-0.1,0-0.3-0.2-0.3s-0.5,0.1-0.6,0.3
					c-0.2,0.4-0.4,0.7-0.5,1.1c-0.2,0.4-0.4,0.9-0.7,1.3l0,0l0,0c0,0-0.1-0.1-0.1-0.2c-0.1-0.2,0-0.5,0-0.7c0-0.7,0.2-1.5,0.3-2.2
					l0,0V34c0,0,0,0-0.1-0.1c-0.2-0.1-0.5,0-0.6,0.2c-0.5,0.4-0.6,1.1-0.8,1.6c-0.1,0.3-0.2,0.7-0.4,1c0,0,0,0.1-0.1,0.1
					c-0.1-0.1-0.1-0.2-0.1-0.3l0,0c0-0.1,0-0.2-0.2-0.2s-0.4,0.2-0.5,0.4l0,0l0,0c-0.1-0.1-0.2-0.2-0.2-0.3c-0.1-0.2,0-0.5,0-0.7
					s0-0.3,0.1-0.5c0.1-0.4,0.2-0.8,0.2-1.2c0-0.1,0.1-0.2,0.1-0.4s-0.2-0.2-0.4-0.2c-0.2,0.1-0.4,0.2-0.5,0.4
					c0,0.2-0.1,0.4-0.1,0.6c0,0.2-0.1,0.4-0.1,0.7c0,0.2-0.1,0.4-0.1,0.5c-0.1,0.3-0.1,0.5-0.3,0.8l0,0c0,0-0.1,0-0.2-0.1
					c-0.4-0.2-0.3-1-0.3-1.3c0.1-0.5,0.2-1,0.4-1.5c0.1-0.1,0.1-0.2,0-0.2c-0.1-0.1-0.3-0.1-0.4,0c-0.1,0-0.2,0.1-0.2,0.1l0,0
					l-0.1,0.1c-0.1,0-0.1,0.1-0.2,0.1c-0.4,0.1-0.7,0-0.9-0.3c-0.1-0.1-0.2-0.2-0.3-0.3c-0.3-0.2-0.6-0.1-0.9,0.1
					c0-0.2,0-0.5-0.1-0.7c0-0.2-0.4,0-0.4,0c-0.2,0.1-0.3,0.3-0.3,0.5c-0.1,0-0.2,0-0.3,0.1c-0.1,0-0.3,0.1-0.3,0.2l-0.1,0.1
					l-0.1,0.1c-0.1,0-0.1,0.1-0.2,0.1c-0.4,0.2-0.7,0-0.9-0.2c0,0,0-0.1-0.1-0.1l0,0l0,0c-0.1-0.1-0.3-0.2-0.4-0.2c0,0,0,0-0.1,0
					l0,0h-0.1c-0.1,0-0.2,0-0.3,0c-0.2,0.1-0.3,0.3-0.4,0.5c-0.1,0.2-0.2,0.5-0.3,0.7c0,0.1-0.1,0.1-0.1,0.2
					c-0.1,0.3-0.3,0.6-0.4,0.8c-0.1-0.7-0.1-1.3-0.2-2c0-0.2-0.3-0.1-0.5,0.1c-0.1-0.1-0.3-0.1-0.4-0.1c0,0,0,0-0.1,0l0,0
					c-1,0.2-1.2,1.4-1.1,2.1c0,0.1,0,0.3,0,0.4l0,0c0,0.2,0,0.6-0.2,0.8c-0.2,0.2-0.5-0.5-0.5-0.6c-0.3-0.7-0.3-1.6-0.4-2.4
					c0-0.2-0.3-0.1-0.4,0c-0.2,0.1-0.4,0.3-0.3,0.5c0.1,0.6,0.2,1.2,0.2,1.9c0,0.3,0,0.6,0,0.8l0,0c-0.1,0-0.1,0-0.2,0
					c-0.4-0.1-0.6-0.9-0.6-1.2c-0.1-0.5-0.1-1.1-0.1-1.6c0-0.2-0.1-0.3-0.3-0.2c-0.2,0.1-0.4,0.3-0.4,0.5c-0.1,0.7,0,1.4,0.2,2
					c0,0.1,0.1,0.2,0.1,0.4c-0.1,0-0.1,0.1-0.2,0.1c-0.1,0.1-0.1,0.1-0.2,0.2c-0.3,0-0.6-0.8-0.6-1c-0.2-0.6-0.3-1.3-0.4-1.9
					c0-0.2-0.3-0.1-0.4,0c-0.2,0.1-0.3,0.4-0.3,0.6c0.1,0.6,0.3,1.2,0.3,1.8c0,0.3,0.1,0.5,0,0.8l0,0c0,0-0.1,0-0.2,0
					c-0.4-0.1-0.6-0.8-0.7-1.1c-0.1-0.2-0.1-0.4-0.1-0.7v-0.1c0,0,0,0,0-0.1c0-0.2,0-0.5,0-0.8c0-0.2-0.1-0.3-0.3-0.1
					c-0.2,0.1-0.3,0.4-0.3,0.6c0,0.3,0,0.7,0.1,1c0.1,0.5,0.1,1,0,1.5c0,0.1,0,0.1,0,0.2l0,0l0,0l0,0l0,0h-0.1
					c-0.3-0.1-0.4-0.4-0.6-0.6c-0.5-0.7-0.7-1.6-1-2.4c-0.1-0.4-0.2-0.8-0.3-1.2c-0.1-0.2-0.1-0.6-0.1-0.8c0-0.4-0.5,0-0.6,0.3
					c-0.5,1.3,0,2.6,0.3,3.8c0,0.1,0,0.3,0.1,0.4c-0.3,0.1-0.6,0.1-0.9-0.1c-0.3-0.1-0.7,0.7-0.4,0.8c0.5,0.3,1,0.2,1.4-0.1l0,0
					c0,0.2,0,0.7-0.1,0.9c-0.1,0.1-0.4,0.1-0.5,0c-0.2-0.1-0.3-0.2-0.4-0.4s-0.3-0.1-0.4,0c-0.1,0.2-0.3,0.4-0.2,0.6
					c0.1,0.4,0.6,0.8,1.2,0.6c0.8-0.3,0.9-1.3,1-1.9c0-0.1,0-0.3,0-0.4c0-0.1,0.1-0.1,0.1-0.2c0.2,0.4,0.4,0.8,0.7,1.1
					c0.3,0.4,0.7,0.5,1.1,0.2c0.2-0.2,0.4-0.5,0.4-0.7c0.2,0.3,0.4,0.5,0.8,0.5c0.4-0.1,0.6-0.4,0.8-0.7c0.1,0.1,0.2,0.2,0.3,0.3
					c-0.2,0.5-0.3,0.9,0,1.3c0.2,0.3,0.7-0.5,0.5-0.7s-0.1-0.4,0-0.7l0,0c0.2-0.1,0.3-0.3,0.4-0.5c0-0.1,0.1-0.1,0.1-0.2
					c0.2,0.3,0.4,0.5,0.7,0.5c0.4,0,0.7-0.3,0.9-0.7c0,0.1,0.1,0.2,0.2,0.2c0.4,0.5,1,0,1.3-0.3l0.1-0.1c0.2,0.3,0.4,0.5,0.8,0.4
					c0.1,0,0.2,0,0.3-0.1c-0.3,0.6-0.5,1.2-0.6,1.8c-0.1,0.5,0,1.1,0.6,1.1c0.4,0,0.7-0.4,0.8-0.7c0.3-0.6,0.2-1.3,0.2-1.9
					c0-0.4-0.1-0.7-0.1-1.1c0.1-0.2,0.2-0.5,0.4-0.7c0.1,0.6,0.3,1.5,1,1.5c0.4,0,0.8-0.4,0.9-0.8c0.2-0.4,0.3-0.8,0.3-1.3
					c0-0.2,0-0.4,0-0.7c0.1,0,0.3-0.1,0.4-0.1c-0.1,0.3-0.1,0.6-0.1,0.8c0,0.6,0,1.2,0.4,1.7c0.2,0.2,0.4,0.3,0.6,0.2
					c0.1,0,0.2,0,0.3-0.1c0,0.8-0.1,1.5-0.2,2.2c0,0.2,0.2,0.2,0.3,0.1c0.2-0.1,0.3-0.3,0.4-0.5c0.1-0.6,0.1-1.2,0.2-1.8
					c0.3,0,0.5-0.1,0.8-0.3c0.5-0.4,0.7-1.2,0.7-1.9c0-0.1,0-0.2,0-0.4c0.2,0,0.5-0.1,0.7-0.2c-0.1,0.5-0.2,1-0.3,1.5
					c0,0.5,0,1.3,0.6,1.4c0.4,0.1,0.7,0,1-0.3c0.1,0.3,0.4,0.5,0.7,0.5c0.1,0,0.3-0.1,0.4-0.1c0.2,0.3,0.6,0.3,0.9,0.1
					c0.3-0.2,0.5-0.4,0.6-0.7c0,0.1,0,0.2,0,0.3c0,0.3,0,0.5,0.2,0.8c0.1,0.2,0.7,0.1,0.7,0.1h0.1c0.2-0.1,0.3-0.2,0.5-0.3
					c0,0.3,0.1,0.7,0.4,0.8c0.3,0.1,0.6,0,0.9-0.1c0,0.1,0,0.2,0.1,0.2c0.1,0.3,0.5,0.4,0.8,0.3c0.4-0.1,0.8-0.5,1.1-0.9
					c-0.1,0.4-0.2,0.8-0.4,1.1c-0.1,0.2,0.1,0.2,0.3,0.2s0.4-0.1,0.5-0.3c0.1-0.3,0.3-0.6,0.5-0.8c0.1-0.1,0.2-0.1,0.4-0.2l0,0
					c-0.2,0.5-0.3,0.9-0.4,1.4c0,0.4,0.2,0.6,0.7,0.6c0.7-0.1,1.3-0.5,1.6-1.1C256.4,38.8,256.2,38.7,256,38.7z M228.7,38.4
					L228.7,38.4L228.7,38.4L228.7,38.4L228.7,38.4z M228.7,38.4L228.7,38.4L228.7,38.4L228.7,38.4z M230.3,38L230.3,38L230.3,38z
					 M233.3,37.3L233.3,37.3L233.3,37.3z M235.8,35.6c0-0.3-0.1-0.6,0-1c0-0.1,0-0.2,0.1-0.3c0.5,0,0.7,0.9,0.7,1.2s0.1,0.6,0,1
					c0,0.1,0,0.1,0,0.2v0.1l0,0C236.1,37,235.8,35.9,235.8,35.6z M236.9,39.4c0,0.1,0,0.2-0.1,0.2c0,0,0,0-0.1,0
					c-0.1,0-0.1,0-0.2-0.1c-0.2-0.1-0.1-0.5-0.1-0.7c0.1-0.3,0.2-0.6,0.3-0.9c0,0.2,0,0.3,0,0.5C237,38.7,237,39.1,236.9,39.4z
					 M239.3,36.4c0,0.1,0,0.1-0.1,0.2v0.1l0,0c-0.4,0.1-0.6-1-0.6-1.3s0-0.6,0-0.9c0.1-0.1,0.1-0.2,0.2-0.3c0.1,0,0.1,0,0.2,0.1
					c0,0,0,0,0,0.1l0.1,0.1c0.2,0.3,0.2,0.8,0.3,1C239.3,35.7,239.3,36.1,239.3,36.4z M241.4,36.6c-0.1-0.1-0.2-0.2-0.3-0.3
					c-0.2-0.4-0.2-0.8-0.2-1.2c0-0.3,0.1-0.7,0.2-1c0,0,0,0,0.1,0c0.2,0.2,0.3,0.6,0.4,0.9l0,0c0,0.5,0,1.1,0,1.6l0,0l0,0
					C241.5,36.6,241.5,36.6,241.4,36.6z M242.7,36.7C242.8,36.7,242.8,36.7,242.7,36.7L242.7,36.7z M242.8,36.6
					C242.7,36.7,242.7,36.7,242.8,36.6C242.7,36.7,242.7,36.7,242.8,36.6c-0.3,0.1-0.5-0.2-0.4-0.4l0,0c0-0.6,0.1-1.1,0.1-1.7
					c0-0.1,0-0.3,0.1-0.4l0,0l0,0c0.1,0,0.2,0.1,0.2,0.1l0,0c0,0,0,0,0.1,0.1c0.2,0.3,0.2,0.7,0.2,1.1
					C243,35.8,242.9,36.3,242.8,36.6z M245.3,37L245.3,37L245.3,37z M250.8,38.1L250.8,38.1L250.8,38.1z"/>
			</g>
			<path class="st5" d="M231,11.7c0,1.4-1.1,2.6-2.6,2.6c-1.4,0-2.6-1.1-2.6-2.6c0-1.4,1.1-2.6,2.6-2.6C229.8,9.2,231,10.3,231,11.7
				L231,11.7z"/>
			<path class="st6" d="M231.1,20.4c0,1.8-1.5,3.3-3.3,3.3c-1.8,0-3.3-1.5-3.3-3.3s1.5-3.3,3.3-3.3
				C229.6,17.1,231.1,18.5,231.1,20.4L231.1,20.4z"/>
			<path class="st6" d="M222.3,15.3c0,1.1-0.9,1.9-1.9,1.9c-1.1,0-2-0.9-2-1.9c0-1.1,0.9-2,2-2C221.4,13.3,222.3,14.2,222.3,15.3
				L222.3,15.3z"/>
			<g>
				<circle class="st6" cx="257.5" cy="18" r="11"/>
				<g>
					<path class="st4" d="M254.8,16.4c-0.9,0.1-1.2,1.2-1.2,1.9l0,0l0,0c0,0.1,0,0.2,0,0.3c0,0.4,0,0.6-0.1,1c0,0.1-0.1,0.4-0.1,0.4
						c-0.3,0-0.6-0.5-0.7-0.7c-0.2-0.6-0.4-1.2-0.5-1.7c-0.1-0.6-0.2-1.3-0.2-2c0-0.3,0-0.5,0-0.8c0-0.1,0-0.2,0-0.3s0-0.2,0-0.2
						c0.1-0.5-0.6,0-0.7,0.2c-0.7,1.3-0.5,2.8-0.5,4.2c0,0.4,0,0.8-0.1,1.1c0,0.3-0.1,0.7-0.3,0.9c-0.1,0.1-0.4,0-0.5,0
						c-0.2-0.1-0.3-0.3-0.3-0.5s-0.3-0.1-0.4,0c-0.2,0.2-0.3,0.4-0.3,0.6c0.1,0.5,0.5,0.9,1.1,0.8c0.8-0.2,1.2-1.2,1.4-2
						c0.1-0.4,0.1-0.7,0.2-1.1c0.1,0.5,0.3,1.1,0.5,1.6c0.2,0.4,0.5,0.7,1,0.7c0.3-0.1,0.6-0.4,0.8-0.8c0.2,0.4,0.4,0.6,0.8,0.6
						c0.5,0,0.8-0.5,1-0.9s0.3-0.9,0.3-1.4C255.9,17.7,255.8,16.3,254.8,16.4z M255.1,19.6c0,0.1,0,0.2-0.1,0.3
						c-0.2,0-0.3-0.3-0.4-0.4c-0.1-0.3-0.2-0.6-0.2-1c0-0.3,0-0.7,0-1c0-0.1,0-0.2,0.1-0.3c0.5,0.3,0.6,0.9,0.6,1.4
						C255.2,18.9,255.2,19.2,255.1,19.6z"/>
					<path class="st4" d="M265.8,17.7c-1-0.4-1.5,1-1.7,1.7s-0.4,1.9,0.5,2.3c0.4,0.2,0.9-0.1,1.2-0.4c0.3-0.3,0.5-0.8,0.6-1.2
						C266.5,19.3,266.7,18,265.8,17.7z M265.2,20.9c0,0.1-0.1,0.2-0.1,0.2c-0.2-0.1-0.2-0.4-0.2-0.5c-0.1-0.3,0-0.7,0-1
						c0.1-0.3,0.2-0.7,0.3-1c0-0.1,0.1-0.2,0.1-0.2c0.4,0.4,0.3,1.1,0.2,1.6C265.4,20.2,265.3,20.6,265.2,20.9z"/>
					<path class="st4" d="M263.1,17.9c0.2-0.2,0.4-0.5,0.5-0.8c0.4-0.6,0.7-1.2,0.7-1.9c0-0.6-0.9-0.7-1.3-0.5c-0.6,0.3-1,1-1.2,1.6
						c-0.2,0.9-0.4,1.7-0.4,2.6l0,0c-0.3,0.4-1,1.1-1.5,0.8c-0.1-0.1-0.2-0.2-0.2-0.4c0.4-0.4,0.8-0.9,1.1-1.4
						c0.3-0.4,0.5-1.2-0.1-1.5c-0.5-0.3-1.1,0-1.4,0.4c-0.3,0.4-0.5,0.9-0.5,1.4c0,0.3-0.1,0.7,0,1.1c-0.3,0.2-0.6,0.3-1,0.2
						s-0.5-0.5-0.6-0.8c-0.1-0.5-0.1-0.9,0-1.4c0-0.1,0.1-0.3,0.1-0.4v-0.1c0.2,0.1,0.3,0.5,0.4,0.6c0.1,0.3,0.9-0.2,0.8-0.5
						c-0.1-0.3-0.2-0.7-0.6-0.8c-0.3-0.2-0.8,0.1-1,0.3c-0.6,0.6-0.7,1.5-0.6,2.3c0,0.5,0.1,1.1,0.6,1.4c0.6,0.4,1.4,0,2-0.3
						c0.2,0.4,0.4,0.6,0.9,0.6c0.6-0.1,1.1-0.4,1.6-0.8c0,0.4,0.1,0.9,0.4,1.1c0.5,0.3,1.2,0,1.5-0.5c0.5-0.6,0.7-1.4,0.4-2.1
						C263.7,18,263.4,17.9,263.1,17.9z M259.8,17.5c0-0.1,0.1-0.3,0.2-0.4l0,0c0.2,0.1,0.3,0.4,0.3,0.6c-0.1,0.4-0.3,0.7-0.6,1.1
						c0-0.1,0-0.1,0-0.2C259.6,18.2,259.7,17.8,259.8,17.5z M263,15.7c0.1-0.1,0.1-0.3,0.2-0.4l0,0c0.4,0.4,0,1-0.2,1.4
						s-0.4,0.8-0.7,1.2c0.1-0.4,0.1-0.8,0.2-1.1C262.6,16.4,262.8,16,263,15.7z M262.7,20.2c0,0-0.1,0.1-0.1,0.2h-0.1
						c-0.2-0.1-0.3-0.7-0.3-0.9s0-0.4,0-0.6c0.1-0.1,0.2-0.2,0.3-0.4c0.2-0.1,0.4,0.1,0.4,0.4C263.1,19.3,262.9,19.8,262.7,20.2z"/>
				</g>
			</g>
			<g>
				<path class="st7" d="M216.1,27.8c-0.1,0-0.2-0.2-0.3-0.2c-0.4-0.2-0.7,0.1-1.1,0.1c-1,0-1.3,0-2.4-0.3c0-1,0.6-1.6,0.8-2.4
					c0.2-0.7-0.1-1.5-0.1-2.3c0-0.5,0-0.9,0-1.4c-0.3,0.3-0.2,1.2-0.2,1.6c-0.1-0.6-0.1-1.4-0.3-1.9c-0.1,0.6,0,1.3,0,1.9
					c-0.2-0.5-0.2-1.2-0.4-1.6c-0.3,0.5,0.2,1.3,0.1,1.8c-0.2-0.5-0.3-1-0.6-1.5c-0.1,0.6,0.2,1.2,0.2,1.6c-0.2-0.4-0.3-0.8-0.6-1.1
					c0,0.4,0.3,0.9,0.4,1.3c-0.3-0.1-0.4-0.5-0.6-0.6c0,0.3,0.3,0.5,0.4,0.8c-0.2-0.1-0.3-0.3-0.5-0.4c0,0.3,0.3,0.4,0.3,0.6
					c-0.1-0.1-0.3-0.2-0.4-0.3c0,0.2,0.3,0.4,0.3,0.5c0,0-0.2-0.1-0.2,0c0,0,0.2,0.1,0.1,0.2c-0.1,0-0.1,0-0.2,0
					c0,0.2,0.2,0.1,0.1,0.3c-0.1,0-0.1-0.1-0.1,0s0.1,0.1,0.1,0.2c-0.8,0.8-0.4,1.8-0.5,2.8c0.1-0.1-0.7-0.3-1.2-0.5
					c-0.3-0.1-0.4-0.5-0.6-0.6c0-0.1,0.1,0,0.1-0.1c-0.1,0-0.2-0.1-0.2-0.2c0.1,0,0.3,0.1,0.3,0c-0.1-0.1-0.5-0.2-0.5-0.3
					c0.2,0,0.4,0.1,0.6,0.1c-0.2-0.1-0.6-0.3-0.6-0.5c0.2,0.1,0.5,0.3,0.7,0.2c-0.3-0.2-0.8-0.4-0.9-0.7c0.3,0.1,0.6,0.4,0.8,0.4
					c-0.4-0.1-0.7-0.6-1.1-0.6c0.2,0.4,0.8,0.6,0.9,0.8c-0.3-0.2-0.6-0.3-1-0.5c0.1,0.4,0.6,0.5,0.9,0.8c-0.3,0-0.5-0.2-0.8-0.2
					c0.1,0.3,0.6,0.2,0.7,0.5c-0.1-0.1-0.3,0-0.5,0c0,0.2,0.4,0.2,0.5,0.3c-0.2,0-0.3,0-0.4,0.1c0.1,0.1,0.3,0.1,0.4,0.2
					c-0.1,0-0.2,0-0.2,0.1s0.3,0,0.3,0.1c-0.1,0-0.1,0.1-0.1,0.1c0.1,0,0.2,0,0.2,0c-0.1,0-0.1,0-0.1,0.1c0.4,0.2,0.7,0.9,1.3,1.2
					c-0.3,0.2,0.3,0.4-3.5,1.8c0.1,0,1.7-0.4,2.2-0.5c0.5-0.2,0.9-0.3,1.4-0.4c0.1,0,0.2-0.1,0.3-0.1c0.8-0.1,1.5,0.1,2.3-0.4
					c-0.6,0.1-1.6,0.2-2-0.1c0.5-0.8,0.2-2.9,0.6-3.3c0.4-0.4,1.1-1.8,1.9-0.6c0.1,0.2,0.2,0.4-0.1,0.9c-0.4,0.6-0.6,0.9-0.5,2.1
					c0,0.3,0,0.5-0.4,0.5c1.7,0.4,2.2,0.2,3.1,0c0.3,0,0.8-0.3,0.8,0c0,0.1-0.3,0.1-0.6,0.1c-0.5,0,0.2,0.2,0.4,0.2
					c0.1,0,1-0.1,1.5-0.2C216.6,27.9,216.4,27.9,216.1,27.8z"/>
				<path class="st7" d="M211.2,19.2c-3.8,0-6.9,3.1-6.9,6.9c0,3.8,3.1,6.9,6.9,6.9s6.9-3.1,6.9-6.9C218.2,22.3,215,19.2,211.2,19.2
					 M211.2,19.5c3.7,0,6.7,3,6.7,6.7s-3,6.7-6.7,6.7s-6.7-3-6.7-6.7S207.5,19.5,211.2,19.5"/>
			</g>
		</g>
	</g>
	<g id="butylka_1">
	</g>
	<g id="shariki_2">
	</g>
	<g id="shariki_1">
	</g>
	<g id="voronka">
	</g>
	<g id="gradusnik">
	</g>
	<g id="kolba_2">
	</g>
	<g id="kolba_1">
	</g>
	<g id="probirki">
	</g>
	<g id="lupa">
	</g>
	<g id="bidon">
	</g>
	<g id="blank">
	</g>
	<g id="ticks">
	</g>
</g>
<g id="snow">
	<g id="sneg">
		<g>
			
				<linearGradient id="SVGID_1_" gradientUnits="userSpaceOnUse" x1="324.5308" y1="122.0043" x2="340.5183" y2="76.7064" gradientTransform="matrix(1 0 0 -1 0 55)">
				<stop  offset="0" style="stop-color:#404B71"/>
				<stop  offset="0.6044" style="stop-color:#3C476E"/>
				<stop  offset="1" style="stop-color:#354169"/>
			</linearGradient>
			<path class="st8" d="M328-26l-1.7-6.4l1.6-2.7l0.2,0.8c0.2,0.8,1.1,1.3,1.9,1.1c0.1,0,0.3-0.1,0.4-0.2c0.6-0.3,0.9-1.1,0.7-1.8
				l-1-3.9l1.9-3.3l2,3.4l-1,3.9c-0.2,0.8,0.3,1.7,1.1,1.9c0.4,0.1,0.9,0,1.2-0.2c0.4-0.2,0.6-0.5,0.7-1l0.2-0.8l1.6,2.7l-1.7,6.4
				c-0.2,0.8,0.3,1.7,1.1,1.9c0.4,0.1,0.9,0,1.2-0.2c0.4-0.2,0.6-0.5,0.7-1l0.9-3.3l2.5,4.4c0.4,0.8,1.4,1,2.2,0.6
				c0.8-0.4,1-1.4,0.6-2.2l-2.5-4.4l3.3,0.9c0.4,0.1,0.9,0,1.2-0.2c0.4-0.2,0.6-0.5,0.7-1c0.2-0.8-0.3-1.7-1.1-1.9l-6.4-1.7
				l-1.6-2.7l0.8,0.2c0.4,0.1,0.9,0,1.2-0.2c0.4-0.2,0.6-0.5,0.7-1c0.2-0.8-0.3-1.7-1.1-1.9l-3.8-1l-1.9-3.3h3.8l2.8,2.8
				c0.5,0.5,1.3,0.6,1.9,0.3c0.1-0.1,0.2-0.2,0.3-0.3c0.6-0.6,0.6-1.6,0-2.2l-0.6-0.6h3.1l4.7,4.7c0.5,0.5,1.3,0.6,1.9,0.3
				c0.1-0.1,0.2-0.2,0.3-0.3c0.6-0.6,0.6-1.6,0-2.2l-2.4-2.4h5c0.3,0,0.6-0.1,0.8-0.2c0.5-0.3,0.8-0.8,0.8-1.4
				c0-0.9-0.7-1.6-1.6-1.6h-5l2.4-2.4c0.6-0.6,0.6-1.6,0-2.2c-0.6-0.6-1.6-0.6-2.2,0l-4.7,4.7H343l0.6-0.6c0.6-0.6,0.6-1.6,0-2.2
				c-0.6-0.6-1.6-0.6-2.2,0l-2.8,2.8h-3.8l1.9-3.3l3.9-1c0.1,0,0.3-0.1,0.4-0.2c0.6-0.3,0.9-1.1,0.7-1.8c-0.2-0.8-1.1-1.3-1.9-1.1
				l-0.8,0.2l1.6-2.7l6.4-1.7c0.1,0,0.3-0.1,0.4-0.2c0.6-0.4,0.9-1.1,0.7-1.8c-0.2-0.8-1.1-1.3-1.9-1.1l-3.3,0.9l2.5-4.4
				c0.4-0.8,0.2-1.7-0.6-2.2c-0.8-0.4-1.7-0.2-2.2,0.6l-2.5,4.4l-0.9-3.3c-0.2-0.8-1.1-1.3-1.9-1.1c-0.8,0.2-1.4,1.1-1.1,1.9
				l1.7,6.4l-1.6,2.7l-0.2-0.8c-0.2-0.8-1.1-1.3-1.9-1.1s-1.3,1.1-1.1,1.9l1,3.9l-1.9,3.3l-1.9-3.3l1-3.9c0.2-0.8-0.3-1.7-1.1-1.9
				c-0.8-0.2-1.7,0.3-1.9,1.1l-0.2,0.8l-1.6-2.7L328-65c0.2-0.8-0.3-1.7-1.1-1.9s-1.7,0.3-1.9,1.1l-0.9,3.3l-2.5-4.4
				c-0.4-0.8-1.4-1-2.2-0.6c-0.8,0.4-1,1.4-0.6,2.2l2.5,4.4l-3.3-0.9c-0.8-0.2-1.7,0.3-1.9,1.1s0.3,1.7,1.1,1.9l6.4,1.7l1.6,2.7
				l-0.8-0.2c-0.8-0.2-1.7,0.3-1.9,1.1c-0.2,0.8,0.3,1.7,1.1,1.9l3.8,1l1.9,3.3h-3.8l-2.8-2.8c-0.6-0.6-1.6-0.6-2.2,0
				c-0.6,0.6-0.6,1.6,0,2.2l0.6,0.6H318l-4.7-4.7c-0.6-0.6-1.6-0.6-2.2,0c-0.6,0.6-0.6,1.6,0,2.2l2.4,2.4h-5c-0.9,0-1.6,0.7-1.6,1.6
				s0.7,1.6,1.6,1.6h5l-2.4,2.4c-0.6,0.6-0.6,1.6,0,2.2c0.5,0.5,1.3,0.6,1.9,0.3c0.1-0.1,0.2-0.2,0.3-0.3l4.7-4.7h3.1l-0.6,0.6
				c-0.6,0.6-0.6,1.6,0,2.2c0.5,0.5,1.3,0.6,1.9,0.3c0.1-0.1,0.2-0.2,0.3-0.3l2.8-2.8h3.8l-1.9,3.3l-3.9,1c-0.8,0.2-1.3,1.1-1.1,1.9
				s1.1,1.3,1.9,1.1l0.8-0.2l-1.6,2.7l-6.4,1.7c-0.8,0.2-1.3,1.1-1.1,1.9c0.2,0.8,1.1,1.3,1.9,1.1l3.3-0.9l-2.5,4.4
				c-0.4,0.8-0.2,1.7,0.6,2.2c0.5,0.3,1.1,0.3,1.6,0c0.2-0.1,0.4-0.3,0.6-0.6l2.5-4.4l0.9,3.3c0.2,0.8,1.1,1.3,1.9,1.1
				c0.1,0,0.3-0.1,0.4-0.2C327.9-24.6,328.2-25.3,328-26z"/>
			
				<linearGradient id="SVGID_2_" gradientUnits="userSpaceOnUse" x1="205.8302" y1="58.1562" x2="210.664" y2="44.4603" gradientTransform="matrix(1 0 0 -1 0 55)">
				<stop  offset="0" style="stop-color:#404B71"/>
				<stop  offset="0.6044" style="stop-color:#3C476E"/>
				<stop  offset="1" style="stop-color:#354169"/>
			</linearGradient>
			<path class="st9" d="M206.9,9.2l-0.5-1.9l0.5-0.8l0.1,0.2c0.1,0.3,0.3,0.4,0.6,0.3h0.1c0.2-0.1,0.3-0.3,0.2-0.5l-0.3-1.2l0.6-1
				l0.6,1l-0.3,1.2c-0.1,0.3,0.1,0.5,0.3,0.6c0.1,0,0.3,0,0.4,0c0.1-0.1,0.2-0.2,0.2-0.3l0.1-0.2l0.5,0.8l-0.5,1.9
				c-0.1,0.3,0.1,0.5,0.3,0.6c0.1,0,0.3,0,0.4,0c0.1-0.1,0.2-0.2,0.2-0.3l0.3-1l0.8,1.3c0.1,0.2,0.4,0.3,0.7,0.2
				c0.2-0.1,0.3-0.4,0.2-0.7l-0.8-1.3l1,0.3c0.1,0,0.3,0,0.4,0c0.1-0.1,0.2-0.2,0.2-0.3c0.1-0.3-0.1-0.5-0.3-0.6L211,7l-0.5-0.8
				l0.2,0.1c0.1,0,0.3,0,0.4,0c0.1-0.1,0.2-0.2,0.2-0.3c0.1-0.3-0.1-0.5-0.3-0.6l-1.2-0.3l-0.6-1h1.2l0.9,0.9
				c0.2,0.2,0.4,0.2,0.6,0.1c0,0,0.1,0,0.1-0.1c0.2-0.2,0.2-0.5,0-0.7l-0.2-0.2h0.9l1.4,1.4c0.2,0.2,0.4,0.2,0.6,0.1
				c0,0,0.1,0,0.1-0.1c0.2-0.2,0.2-0.5,0-0.7l-0.7-0.7h1.5c0.1,0,0.2,0,0.2-0.1c0.1-0.1,0.2-0.2,0.2-0.4c0-0.3-0.2-0.5-0.5-0.5H214
				l0.7-0.7c0.2-0.2,0.2-0.5,0-0.7s-0.5-0.2-0.7,0l-1.4,1.4h-0.9l0.2-0.2c0.2-0.2,0.2-0.5,0-0.7s-0.5-0.2-0.7,0l-0.9,0.9H209l0.6-1
				l1.2-0.3h0.1c0.2-0.1,0.3-0.3,0.2-0.5C211,1,210.8,0.9,210.5,1l-0.2,0.1l0.5-0.8l1.9-0.5h0.1c0.2-0.1,0.3-0.3,0.2-0.5
				c-0.1-0.3-0.3-0.4-0.6-0.3l-1,0.3l0.8-1.3c0.1-0.2,0.1-0.5-0.2-0.7c-0.2-0.1-0.5-0.1-0.7,0.2l-0.8,1.3l-0.3-1
				c-0.1-0.3-0.3-0.4-0.6-0.3c-0.3,0.1-0.4,0.3-0.3,0.6l0.5,1.9l-0.5,0.8l-0.1-0.2c-0.1-0.3-0.3-0.4-0.6-0.3
				c-0.3,0.1-0.4,0.3-0.3,0.6l0.3,1.2l-0.6,1l-0.6-1l0.3-1.2c0.1-0.3-0.1-0.5-0.3-0.6c-0.3-0.1-0.5,0.1-0.6,0.3l-0.1,0.2L206.2,0
				l0.5-1.9c0.1-0.3-0.1-0.5-0.3-0.6c-0.3-0.1-0.5,0.1-0.6,0.3l-0.3,1l-0.8-1.3c-0.1-0.2-0.4-0.3-0.7-0.2c-0.2,0.1-0.3,0.4-0.2,0.7
				l0.8,1.3l-1-0.3c-0.3-0.1-0.5,0.1-0.6,0.3c-0.1,0.3,0.1,0.5,0.3,0.6l1.9,0.5l0.5,0.8l-0.2-0.1c-0.3-0.1-0.5,0.1-0.6,0.3
				c-0.1,0.3,0.1,0.5,0.3,0.6l1.2,0.3l0.6,1h-1.2l-0.9-0.9c-0.2-0.2-0.5-0.2-0.7,0c-0.2,0.2-0.2,0.5,0,0.7l0.2,0.2h-0.9l-1.4-1.4
				c-0.2-0.2-0.5-0.2-0.7,0c-0.2,0.2-0.2,0.5,0,0.7l0.7,0.7H201c-0.3,0-0.5,0.2-0.5,0.5s0.2,0.5,0.5,0.5h1.5L201.8,5
				c-0.2,0.2-0.2,0.5,0,0.7s0.4,0.2,0.6,0.1c0,0,0.1,0,0.1-0.1l1.4-1.4h0.9l-0.2,0.2c-0.2,0.2-0.2,0.5,0,0.7s0.4,0.2,0.6,0.1
				c0,0,0.1,0,0.1-0.1l0.9-0.9h1.2l-0.6,1l-1.2,0.3c-0.3,0.1-0.4,0.3-0.3,0.6c0.1,0.3,0.3,0.4,0.6,0.3l0.2-0.1l-0.5,0.8l-1.9,0.5
				c-0.3,0.1-0.4,0.3-0.3,0.6c0.1,0.3,0.3,0.4,0.6,0.3l1-0.3l-0.8,1.3c-0.1,0.2-0.1,0.5,0.2,0.7c0.2,0.1,0.3,0.1,0.5,0
				c0.1,0,0.1-0.1,0.2-0.2l0.8-1.3l0.3,1c0.1,0.3,0.3,0.4,0.6,0.3h0.1C206.9,9.6,207,9.4,206.9,9.2z"/>
			
				<linearGradient id="SVGID_3_" gradientUnits="userSpaceOnUse" x1="140.8745" y1="33.5724" x2="151.2947" y2="4.0484" gradientTransform="matrix(1 0 0 -1 0 55)">
				<stop  offset="0" style="stop-color:#404B71"/>
				<stop  offset="0.6044" style="stop-color:#3C476E"/>
				<stop  offset="1" style="stop-color:#354169"/>
			</linearGradient>
			<path class="st10" d="M143.3,48.1l-1.1-4.2l1-1.8l0.1,0.5c0.1,0.6,0.7,0.9,1.3,0.7c0.1,0,0.2-0.1,0.2-0.1
				c0.4-0.2,0.6-0.7,0.5-1.2l-0.7-2.5l1.2-2.2l1.2,2.2l-0.7,2.5c-0.1,0.6,0.2,1.1,0.7,1.3c0.3,0.1,0.6,0,0.8-0.1s0.4-0.4,0.5-0.6
				l0.1-0.5l1,1.8l-1.1,4.2c-0.1,0.6,0.2,1.1,0.7,1.3c0.3,0.1,0.6,0,0.8-0.1s0.4-0.4,0.5-0.6l0.6-2.2l1.6,2.8
				c0.3,0.5,0.9,0.7,1.4,0.4s0.7-0.9,0.4-1.4l-1.6-2.8L155,46c0.3,0.1,0.6,0,0.8-0.1s0.4-0.4,0.5-0.6c0.1-0.6-0.2-1.1-0.7-1.3
				l-4.2-1.1l-1-1.8l0.5,0.1c0.3,0.1,0.6,0,0.8-0.1s0.4-0.4,0.5-0.6c0.1-0.6-0.2-1.1-0.7-1.3l-2.5-0.7l-1.2-2.2h2.5l1.8,1.8
				c0.3,0.3,0.9,0.4,1.2,0.2c0.1,0,0.1-0.1,0.2-0.2c0.4-0.4,0.4-1.1,0-1.5l-0.4-0.4h2l3,3c0.3,0.3,0.9,0.4,1.2,0.2
				c0.1,0,0.1-0.1,0.2-0.2c0.4-0.4,0.4-1.1,0-1.5l-1.6-1.6h3.3c0.2,0,0.4,0,0.5-0.1c0.3-0.2,0.5-0.5,0.5-0.9c0-0.6-0.5-1-1-1h-3.3
				l1.6-1.6c0.4-0.4,0.4-1.1,0-1.5c-0.4-0.4-1.1-0.4-1.5,0l-3,3h-2l0.4-0.4c0.4-0.4,0.4-1.1,0-1.5c-0.4-0.4-1.1-0.4-1.5,0l-1.8,1.8
				h-2.5l1.2-2.2l2.5-0.7c0.1,0,0.2-0.1,0.2-0.1c0.4-0.2,0.6-0.7,0.5-1.2c-0.1-0.6-0.7-0.9-1.3-0.7l-0.5,0.1l1-1.8l4.2-1.1
				c0.1,0,0.2-0.1,0.2-0.1c0.4-0.2,0.6-0.7,0.5-1.2c-0.1-0.6-0.7-0.9-1.3-0.7l-2.2,0.6l1.6-2.8c0.3-0.5,0.1-1.1-0.4-1.4
				c-0.5-0.3-1.1-0.1-1.4,0.4l-1.6,2.8l-0.6-2.2c-0.1-0.6-0.7-0.9-1.3-0.7c-0.5,0.1-0.9,0.7-0.7,1.3l1.1,4.2l-1,1.8l-0.1-0.5
				c-0.1-0.6-0.7-0.9-1.3-0.7c-0.6,0.2-0.9,0.7-0.7,1.3l0.7,2.5l-1.2,2.2l-1.2-2.2l0.7-2.5c0.1-0.6-0.2-1.1-0.7-1.3
				c-0.6-0.1-1.1,0.2-1.3,0.7l-0.1,0.5l-1-1.8l1.1-4.2c0.1-0.6-0.2-1.1-0.7-1.3c-0.6-0.1-1.1,0.2-1.3,0.7l-0.6,2.2L139,21
				c-0.3-0.5-0.9-0.7-1.4-0.4s-0.7,0.9-0.4,1.4l1.6,2.8l-2.2-0.6c-0.6-0.1-1.1,0.2-1.3,0.7c-0.1,0.6,0.2,1.1,0.7,1.3l4.2,1.1l1,1.8
				l-0.5-0.1c-0.6-0.1-1.1,0.2-1.3,0.7c-0.1,0.6,0.2,1.1,0.7,1.3l2.5,0.7l1.2,2.2h-2.5l-1.8-1.8c-0.4-0.4-1.1-0.4-1.5,0
				c-0.4,0.4-0.4,1.1,0,1.5l0.4,0.4h-2l-3-3c-0.4-0.4-1.1-0.4-1.5,0c-0.4,0.4-0.4,1.1,0,1.5l1.6,1.6h-3.3c-0.6,0-1,0.5-1,1
				c0,0.6,0.5,1,1,1h3.3l-1.6,1.6c-0.4,0.4-0.4,1.1,0,1.5c0.3,0.3,0.9,0.4,1.2,0.2c0.1,0,0.1-0.1,0.2-0.2l3-3h2l-0.4,0.4
				c-0.4,0.4-0.4,1.1,0,1.5c0.3,0.3,0.9,0.4,1.2,0.2c0.1,0,0.2-0.1,0.2-0.2l1.8-1.8h2.5l-1.2,2.2l-2.5,0.7c-0.5,0.2-0.9,0.7-0.7,1.3
				c0.1,0.6,0.7,0.9,1.3,0.7l0.5-0.1l-1,1.8l-4.2,1.1c-0.5,0.2-0.9,0.7-0.7,1.3c0.1,0.6,0.7,0.9,1.3,0.7l2.2-0.6l-1.6,2.8
				c-0.3,0.5-0.1,1.1,0.4,1.4c0.3,0.2,0.7,0.2,1,0c0.2-0.1,0.3-0.2,0.4-0.4l1.6-2.8l0.6,2.2c0.1,0.6,0.7,0.9,1.3,0.7
				c0.1,0,0.2-0.1,0.3-0.1C143.2,49,143.4,48.5,143.3,48.1z"/>
			
				<linearGradient id="SVGID_4_" gradientUnits="userSpaceOnUse" x1="258.076" y1="31.238" x2="287.1743" y2="-36.8642" gradientTransform="matrix(1 0 0 -1 0 55)">
				<stop  offset="0" style="stop-color:#404B71"/>
				<stop  offset="0.6044" style="stop-color:#3C476E"/>
				<stop  offset="1" style="stop-color:#354169"/>
			</linearGradient>
			<path class="st11" d="M305.5,54.3h-6.3l3-3c0.8-0.8,0.8-2,0-2.8c-0.8-0.8-2-0.8-2.8,0l-5.9,5.9h-3.9l1.7-1.7c0.8-0.8,0.8-2,0-2.8
				c-0.8-0.8-2-0.8-2.8,0l-4.6,4.6h-3.8l0.1-0.1c0.8-0.8,0.8-2,0.1-2.7c-0.3-1-1.4-1.6-2.4-1.3h-0.2l1.9-3.3l6.2-1.7
				c0.2,0,0.3-0.1,0.5-0.2c0.8-0.4,1.2-1.4,0.9-2.2c-0.3-1.1-1.4-1.7-2.4-1.4l-2.4,0.6l2-3.4l8-2.1c0.2,0,0.3-0.1,0.5-0.2
				c0.8-0.4,1.2-1.4,0.9-2.2c-0.3-1.1-1.4-1.7-2.4-1.4l-4.2,1.1l3.2-5.5c0.6-1,0.2-2.2-0.7-2.7c-1-0.5-2.2-0.2-2.7,0.7l-3.2,5.5
				l-1.1-4.2c-0.3-1.1-1.4-1.7-2.4-1.4c-1.1,0.3-1.7,1.4-1.4,2.4l2.1,8l-2,3.4l-0.6-2.4c-0.3-1.1-1.4-1.7-2.4-1.4
				c-1.1,0.3-1.7,1.4-1.4,2.4l1.7,6.2l-1.9,3.3v-0.2c-0.3-1-1.3-1.7-2.4-1.4c-1-0.2-2.1,0.4-2.3,1.4v0.2l-1.9-3.3l1.7-6.2
				c0.3-1.1-0.3-2.2-1.4-2.4c-1.1-0.3-2.2,0.3-2.4,1.4l-0.6,2.4l-2-3.4l2.1-8c0.3-1.1-0.3-2.2-1.4-2.4c-1.1-0.3-2.2,0.3-2.4,1.4
				l-1.1,4.2l-3.2-5.5c-0.5-1-1.8-1.3-2.7-0.7c-1,0.5-1.3,1.8-0.7,2.7l3.2,5.5l-4.2-1.1c-1.1-0.3-2.2,0.3-2.4,1.4
				c-0.3,1.1,0.3,2.2,1.4,2.4l8,2.1l2,3.4l-2.4-0.6c-1.1-0.3-2.2,0.3-2.4,1.4c-0.3,1.1,0.3,2.2,1.4,2.4l6.2,1.7l1.9,3.3h-0.2
				c-1-0.3-2,0.3-2.4,1.3c-0.8,0.8-0.8,2,0,2.8l0.1,0.1h-3.8l-4.6-4.6c-0.8-0.8-2-0.8-2.8,0s-0.8,2,0,2.8l1.7,1.7h-3.9l-5.9-5.9
				c-0.8-0.8-2-0.8-2.8,0s-0.8,2,0,2.8l3,3h-6.3c-1.1,0-2,0.9-2,2s0.9,2,2,2h6.3l-3,3c-0.8,0.8-0.8,2,0,2.8c0.7,0.7,1.6,0.8,2.4,0.3
				c0.1-0.1,0.3-0.2,0.4-0.3l5.9-5.9h3.9l-1.7,1.7c-0.8,0.8-0.8,2,0,2.8c0.7,0.7,1.6,0.8,2.4,0.3c0.1-0.1,0.3-0.2,0.4-0.3l4.6-4.6
				h3.8l-0.1,0.1c-0.8,0.8-0.8,2-0.1,2.7c0.3,1,1.4,1.6,2.4,1.3h0.2l-1.9,3.3l-6.2,1.7c-1.1,0.3-1.7,1.4-1.4,2.4
				c0.3,1.1,1.4,1.7,2.4,1.4l2.4-0.6l-2,3.4l-8,2.1c-1.1,0.3-1.7,1.4-1.4,2.4c0.3,1.1,1.4,1.7,2.4,1.4l4.2-1.1l-3.2,5.5
				c-0.5,1-0.2,2.2,0.7,2.7c0.6,0.4,1.4,0.3,2,0c0.3-0.2,0.5-0.4,0.7-0.7l3.2-5.5l1.1,4.2c0.3,1.1,1.4,1.7,2.4,1.4
				c0.2,0,0.3-0.1,0.5-0.2c0.8-0.4,1.2-1.3,0.9-2.2l-2.1-8l2-3.4l0.6,2.4c0.3,1.1,1.4,1.7,2.4,1.4c0.2,0,0.3-0.1,0.5-0.2
				c0.8-0.4,1.2-1.3,0.9-2.2l-1.7-6.2l1.9-3.3v0.2c0.3,1,1.3,1.7,2.4,1.4c0.5,0.1,1,0,1.4-0.2c0.4-0.3,0.8-0.7,0.9-1.2v-0.2l1.9,3.3
				l-1.7,6.2c-0.3,1.1,0.3,2.2,1.4,2.4c0.5,0.1,1.1,0.1,1.5-0.2c0.4-0.3,0.8-0.7,0.9-1.2l0.6-2.4l2,3.4l-2.1,8
				c-0.3,1.1,0.3,2.2,1.4,2.4c0.5,0.1,1.1,0.1,1.5-0.2c0.4-0.3,0.8-0.7,0.9-1.2l1.1-4.2l3.2,5.5c0.5,1,1.8,1.3,2.7,0.7
				c1-0.6,1.3-1.8,0.7-2.7l-3.2-5.5l4.2,1.1c0.5,0.1,1.1,0.1,1.5-0.2s0.8-0.7,0.9-1.2c0.3-1.1-0.3-2.2-1.4-2.4l-8-2.1l-2-3.4
				l2.4,0.6c0.5,0.1,1.1,0.1,1.5-0.2s0.8-0.7,0.9-1.2c0.3-1.1-0.3-2.2-1.4-2.4l-6.2-1.7l-1.9-3.3h0.2c0.5,0.1,1.1,0.1,1.5-0.2
				c0.4-0.2,0.7-0.6,0.9-1.1c0.8-0.8,0.8-2,0-2.8l-0.1-0.1h3.8l4.6,4.6c0.7,0.7,1.6,0.8,2.4,0.3c0.1-0.1,0.3-0.2,0.4-0.3
				c0.8-0.8,0.8-2,0-2.8l-1.7-1.7h3.9l5.9,5.9c0.7,0.7,1.6,0.8,2.4,0.3c0.1-0.1,0.3-0.2,0.4-0.3c0.8-0.8,0.8-2,0-2.8l-3-3h6.3
				c0.4,0,0.7-0.1,1-0.3c0.6-0.3,1-1,1-1.7C307.5,55.2,306.6,54.3,305.5,54.3z M273.2,58.5c-1.2,0.7-2.8,0.3-3.5-0.9
				c-0.7-1.2-0.3-2.8,0.9-3.5c1.2-0.7,2.8-0.3,3.5,0.9C274.8,56.2,274.4,57.8,273.2,58.5z"/>
			
				<linearGradient id="SVGID_5_" gradientUnits="userSpaceOnUse" x1="217.6375" y1="115.6683" x2="229.6594" y2="87.5261" gradientTransform="matrix(1 0 0 -1 0 55)">
				<stop  offset="0" style="stop-color:#404B71"/>
				<stop  offset="0.6044" style="stop-color:#3C476E"/>
				<stop  offset="1" style="stop-color:#354169"/>
			</linearGradient>
			<path class="st12" d="M239-46.2h-1l0.4-0.5c0.2-0.3,0.1-0.8-0.2-1s-0.8-0.1-1,0.2l-0.9,1.3h-1.5l2-2.8c0.2-0.3,0.1-0.8-0.2-1
				c-0.3-0.2-0.8-0.1-1,0.2l-2.6,3.7h-1.3l1.2-1.7c0.2-0.3,0.1-0.8-0.2-1s-0.8-0.1-1,0.2l-1.7,2.5h-1l0.4-0.5c0.2-0.3,0.1-0.8-0.2-1
				c-0.3-0.2-0.8-0.1-1,0.2l-0.9,1.3H227l-0.8-1.5l0.2-0.3L228-48c0.4,0,0.7-0.4,0.7-0.8s-0.4-0.7-0.8-0.7l-0.6,0.1l0.4-0.8l3-0.3
				c0.4,0,0.7-0.4,0.7-0.8S231-52,230.6-52l-2,0.2l0.7-1.1l4.5-0.4c0.4,0,0.7-0.4,0.7-0.8c0-0.4-0.4-0.7-0.8-0.7l-3.4,0.3l0.7-1.3
				l1.6-0.1c0.4,0,0.7-0.4,0.7-0.8c0-0.4-0.4-0.7-0.8-0.7l-0.6,0.1l0.5-0.9c0.2-0.3,0.1-0.8-0.3-1c-0.3-0.2-0.8-0.1-1,0.3l-0.5,0.9
				l-0.3-0.6c-0.2-0.4-0.6-0.5-1-0.4c-0.4,0.2-0.5,0.6-0.4,1l0.7,1.5l-0.7,1.3l-1.5-3.1c-0.2-0.4-0.6-0.5-1-0.3
				c-0.4,0.2-0.5,0.6-0.4,1l1.9,4.1l-0.7,1.1l-0.9-1.8c-0.2-0.4-0.6-0.5-1-0.4c-0.4,0.2-0.5,0.6-0.4,1l1.3,2.8l-0.4,0.8l-0.3-0.6
				c-0.2-0.4-0.6-0.5-1-0.3s-0.5,0.6-0.4,1l0.7,1.5l-0.2,0.3h-1.7l-0.2-0.3l0.7-1.5c0.2-0.4,0-0.8-0.4-1s-0.8,0-1,0.3l-0.3,0.6
				l-0.4-0.8l1.3-2.8c0.2-0.4,0-0.8-0.4-1s-0.8,0-1,0.3l-0.9,1.8l-0.7-1.1l1.9-4.1c0.2-0.4,0-0.8-0.4-1c-0.4-0.2-0.8,0-1,0.4
				l-1.5,3.1l-0.7-1.3l0.7-1.5c0.2-0.4,0-0.8-0.4-1s-0.8,0-1,0.4l-0.3,0.6l-0.5-0.9c-0.2-0.3-0.6-0.5-1-0.3c-0.3,0.2-0.5,0.6-0.3,1
				l0.5,0.9l-0.6-0.1c-0.4,0-0.8,0.3-0.8,0.7s0.3,0.8,0.7,0.8l1.6,0.1l0.7,1.3l-3.4-0.3c-0.4,0-0.8,0.3-0.8,0.7s0.3,0.8,0.7,0.8
				l4.5,0.4l0.7,1.1l-2-0.2c-0.4,0-0.8,0.3-0.8,0.7s0.3,0.8,0.7,0.8l3,0.3l0.4,0.8l-0.6-0.1c-0.4,0-0.8,0.3-0.8,0.7
				c0,0.4,0.3,0.8,0.7,0.8l1.6,0.1l0.2,0.3l-0.8,1.5h-0.3l-0.9-1.3c-0.2-0.3-0.7-0.4-1-0.2c-0.3,0.2-0.4,0.7-0.2,1l0.4,0.5H218
				l-1.7-2.5c-0.2-0.3-0.7-0.4-1-0.2s-0.4,0.7-0.2,1l1.2,1.7H215l-2.6-3.7c-0.2-0.3-0.7-0.4-1-0.2c-0.3,0.2-0.4,0.7-0.2,1l2,2.8
				h-1.5l-0.9-1.3c-0.2-0.3-0.7-0.4-1-0.2c-0.3,0.2-0.4,0.7-0.2,1l0.4,0.5h-1c-0.4,0-0.7,0.3-0.7,0.7c0,0.4,0.3,0.7,0.7,0.7h1
				l-0.4,0.5c-0.2,0.3-0.1,0.8,0.2,1c0.1,0.1,0.3,0.1,0.4,0.1c0.2,0,0.5-0.1,0.6-0.3l0.9-1.3h1.5l-2,2.8c-0.2,0.3-0.1,0.8,0.2,1
				c0.1,0.1,0.3,0.1,0.4,0.1c0.2,0,0.5-0.1,0.6-0.3l2.6-3.7h1.3l-1.2,1.7c-0.2,0.3-0.1,0.8,0.2,1c0.1,0.1,0.3,0.1,0.4,0.1
				c0.2,0,0.5-0.1,0.6-0.3l1.7-2.5h0.9l-0.4,0.5c-0.2,0.3-0.1,0.8,0.2,1c0.1,0.1,0.3,0.1,0.4,0.1c0.2,0,0.5-0.1,0.6-0.3l0.9-1.3h0.3
				l0.8,1.5l-0.2,0.3l-1.6,0.1c-0.4,0-0.7,0.4-0.7,0.8s0.4,0.7,0.7,0.7c0,0,0,0,0.1,0l0.6-0.1l-0.4,0.8l-3,0.3
				c-0.4,0-0.7,0.4-0.7,0.8s0.4,0.7,0.7,0.7c0,0,0,0,0.1,0l2-0.2l-0.7,1.1l-4.5,0.4c-0.4,0-0.7,0.4-0.7,0.8s0.4,0.7,0.7,0.7
				c0,0,0,0,0.1,0l3.4-0.3l-0.7,1.3l-1.6,0.1c-0.4,0-0.7,0.4-0.7,0.8s0.4,0.7,0.7,0.7c0,0,0,0,0.1,0l0.6-0.1l-0.5,0.9
				c-0.2,0.3-0.1,0.8,0.3,1c0.1,0.1,0.2,0.1,0.4,0.1c0.3,0,0.5-0.1,0.6-0.4l0.5-0.9l0.3,0.6c0.1,0.3,0.4,0.4,0.7,0.4
				c0.1,0,0.2,0,0.3-0.1c0.4-0.2,0.5-0.6,0.4-1l-0.7-1.5l0.7-1.3l1.5,3.1c0.1,0.3,0.4,0.4,0.7,0.4c0.1,0,0.2,0,0.3-0.1
				c0.4-0.2,0.5-0.6,0.4-1l-1.9-4.1l0.7-1.1l0.9,1.8c0.1,0.3,0.4,0.4,0.7,0.4c0.1,0,0.2,0,0.3-0.1c0.4-0.2,0.5-0.6,0.4-1l-1.3-2.8
				l0.4-0.8l0.3,0.6c0.1,0.3,0.4,0.4,0.7,0.4c0.1,0,0.2,0,0.3-0.1c0.4-0.2,0.5-0.6,0.4-1l-0.7-1.5l0.2-0.3h1.7l0.2,0.3l-0.7,1.5
				c-0.2,0.4,0,0.8,0.4,1c0.1,0,0.2,0.1,0.3,0.1c0.3,0,0.5-0.2,0.7-0.4l0.3-0.6l0.4,0.8l-1.3,2.8c-0.2,0.4,0,0.8,0.4,1
				c0.1,0,0.2,0.1,0.3,0.1c0.3,0,0.5-0.2,0.7-0.4l0.9-1.8l0.7,1.1l-1.9,4.1c-0.2,0.4,0,0.8,0.4,1c0.1,0,0.2,0.1,0.3,0.1
				c0.3,0,0.5-0.2,0.7-0.4l1.5-3.1l0.7,1.3l-0.7,1.5c-0.2,0.4,0,0.8,0.4,1c0.1,0,0.2,0.1,0.3,0.1c0.3,0,0.5-0.2,0.7-0.4L231-33
				l0.5,0.9c0.1,0.2,0.4,0.4,0.6,0.4c0.1,0,0.2,0,0.4-0.1c0.3-0.2,0.5-0.6,0.3-1l-0.5-0.9l0.6,0.1c0,0,0,0,0.1,0
				c0.4,0,0.7-0.3,0.7-0.7c0-0.4-0.3-0.8-0.7-0.8l-1.6-0.1l-0.7-1.3l3.4,0.3c0,0,0,0,0.1,0c0.4,0,0.7-0.3,0.7-0.7
				c0-0.4-0.3-0.8-0.7-0.8l-4.5-0.4l-0.7-1.1l2,0.2c0,0,0,0,0.1,0c0.4,0,0.7-0.3,0.7-0.7c0-0.4-0.3-0.8-0.7-0.8l-3-0.3l-0.4-0.8
				l0.6,0.1c0,0,0,0,0.1,0c0.4,0,0.7-0.3,0.7-0.7c0-0.4-0.3-0.8-0.7-0.8l-1.6-0.1l-0.2-0.3l0.8-1.5h0.3l0.9,1.3
				c0.1,0.2,0.4,0.3,0.6,0.3c0.1,0,0.3,0,0.4-0.1c0.3-0.2,0.4-0.7,0.2-1l-0.4-0.5h0.9l1.7,2.5c0.1,0.2,0.4,0.3,0.6,0.3
				c0.1,0,0.3,0,0.4-0.1c0.3-0.2,0.4-0.7,0.2-1l-1.2-1.7h1.3l2.6,3.7c0.1,0.2,0.4,0.3,0.6,0.3c0.1,0,0.3,0,0.4-0.1
				c0.3-0.2,0.4-0.7,0.2-1l-2-2.8h1.5l0.9,1.3c0.1,0.2,0.4,0.3,0.6,0.3c0.1,0,0.3,0,0.4-0.1c0.3-0.2,0.4-0.7,0.2-1l-0.4-0.5h1
				c0.4,0,0.7-0.3,0.7-0.7C239.7-45.9,239.4-46.2,239-46.2z M223.1-44l-0.8-1.5l0.8-1.5h1.7l0.8,1.5l-0.8,1.5H223.1z"/>
			<circle class="st4" cx="251.7" cy="-64.2" r="3.4"/>
			<circle class="st4" cx="126" cy="0.1" r="3.4"/>
			<circle class="st4" cx="131" cy="13.1" r="1.5"/>
			<circle class="st4" cx="119.1" cy="21" r="1.5"/>
			<circle class="st4" cx="239.7" cy="-67.6" r="1.5"/>
			<circle class="st4" cx="267.3" cy="-31.7" r="3.8"/>
			<circle class="st4" cx="296.2" cy="92" r="3.8"/>
			<circle class="st4" cx="288.2" cy="-21.9" r="2.8"/>
			<circle class="st4" cx="282.8" cy="-13.4" r="1.5"/>
			<circle class="st4" cx="256.6" cy="-23.4" r="1.5"/>
			<circle class="st4" cx="336.1" cy="0.1" r="1.5"/>
			<circle class="st4" cx="305.2" cy="-21.9" r="1.5"/>
			<circle class="st4" cx="299.2" cy="-10.4" r="1.5"/>
			<circle class="st4" cx="297.7" cy="-22" r="1.5"/>
			<circle class="st4" cx="305.2" cy="-31.7" r="1.5"/>
			<circle class="st4" cx="345.4" cy="-20.4" r="1.5"/>
			<circle class="st4" cx="350" cy="-26.4" r="1.5"/>
			<circle class="st4" cx="302.3" cy="83.5" r="1.5"/>
			<circle class="st4" cx="313.6" cy="82" r="1.5"/>
			<circle class="st4" cx="306.8" cy="90.5" r="1.5"/>
			<circle class="st4" cx="274.8" cy="-33.2" r="1.5"/>
			<circle class="st4" cx="281.3" cy="-26.4" r="1.5"/>
		</g>
	</g>
</g>
</svg>
