<?xml version="1.0" encoding="utf-8"?>
<!-- Generator: Adobe Illustrator 19.0.0, SVG Export Plug-In . SVG Version: 6.00 Build 0)  -->
<svg version="1.1" xmlns="http://www.w3.org/2000/svg" xmlns:xlink="http://www.w3.org/1999/xlink" x="0px" y="0px"
	 viewBox="0 0 214.5 300" style="enable-background:new 0 0 214.5 300;" xml:space="preserve">
<style type="text/css">
	.st0{fill:#519E38;}
	.st1{fill:#F4F4F4;}
	.st2{fill:#D6D6D6;}
	.st3{fill:#EAEAEA;}
	.st4{fill:#FFFFFF;}
	.st5{fill:#483290;}
	.st6{fill:#62BA47;}
	.st7{fill-rule:evenodd;clip-rule:evenodd;fill:#483290;}
	.st8{fill-rule:evenodd;clip-rule:evenodd;fill:#62BA47;}
	.st9{fill:#62BA46;}
</style>
<g id="kolba_3">
</g>
<g id="kolby">
</g>
<g id="doma">
</g>
<g id="car">
</g>
<g id="butylka_3">
</g>
<g id="butylka_2">
	<g>
		<path class="st0" d="M157.1,240.7c0,0,0-64.5,0-99.6s-14.6-48.4-14.6-48.4c3.9-21.7-6.5-28.2-6.5-28.2v-7.8h2.2c0,0,0-8.4,0-11.2
			c0-2.8-3.9-2.5-3.9-2.5H120h-1.3h-14.3c0,0-3.9-0.3-3.9,2.5c0,2.8,0,11.2,0,11.2h2.3v7.8h-0.1c0,0-10.4,6.5-6.5,28.2
			c0,0-14.6,13.4-14.6,48.4s0,99.6,0,99.6s-1.5,21.4,14.3,21.4c4.3,0,7.8,0,10.8,0c8.1,0,11.8,0,11.8,0h0.7h0.8h0.1h11.7h0.1
			c3,0,6.5,0,10.8,0c0,0,0,0,0.1,0C158.5,262.1,157.1,240.7,157.1,240.7z"/>
		<path class="st1" d="M149.4,235.7c0,0,0-64.5,0-99.6c0-35.1-14.6-48.4-14.6-48.4c3.9-21.7-6.5-28.2-6.5-28.2v-8h-33v8h-0.1
			c0,0-10.4,6.5-6.5,28.2c0,0-14.6,13.4-14.6,48.4c0,35.1,0,99.6,0,99.6s-1.5,21.4,14.3,21.4c4.3,0,7.8,0,10.8,0
			c8.1,0,11.8,0,11.8,0h1.6h11.8c3,0,6.6,0,10.8,0C150.9,257.1,149.4,235.7,149.4,235.7z"/>
		<path class="st2" d="M126.7,38h-14.3h-1.3H96.8c0,0-3.9-0.3-3.9,2.5s0,11.2,0,11.2h18.1h1.3h18.1c0,0,0-8.4,0-11.2
			S126.7,38,126.7,38z"/>
		<path class="st3" d="M149.3,235.7c0,0,0-64.5,0-99.6c0-35.1-14.6-48.4-14.6-48.4c3.9-21.7-6.5-28.2-6.5-28.2v-8h-16.6v205.6h0.8
			h11.8c3,0,6.6,0,10.8,0C150.8,257.1,149.3,235.7,149.3,235.7z"/>
		<path class="st4" d="M86.4,124.6c-0.2,0-0.4,0-0.5,0c-2.3-0.3-3.9-2.4-3.6-4.7c1.9-14.4,8.8-23.1,9.1-23.5
			c1.4-1.8,4.1-2.1,5.9-0.6c1.8,1.4,2.1,4.1,0.6,5.8c-0.1,0.1-5.8,7.4-7.4,19.3C90.2,123,88.4,124.6,86.4,124.6z"/>
	</g>
	<g>
		<circle class="st5" cx="111" cy="168.1" r="20"/>
		<g>
			<circle class="st6" cx="95" cy="185.9" r="6.3"/>
			<g>
				<path class="st4" d="M92.3,184.8c0.1-0.4,0.6-0.4,0.9-0.2c0.4,0.3-0.2,0.7-0.4,0.9c-0.2,0.2-0.6,0.5-0.5,0.9
					c0.1,0.3,0.7,0.2,0.9,0.3c0.4,0.1,0.5,0.3,0.4,0.7c-0.2,0.6-1,0.3-1.2,0c-0.2-0.2-0.8,0.4-0.6,0.6c0.8,0.8,1.9,0.2,2.4-0.6
					c0.2-0.3,0.3-0.9,0-1.2c-0.2-0.3-0.8-0.2-1.1-0.3c-0.1-0.1-0.1,0-0.1,0.1c0.1-0.1,0.3-0.2,0.4-0.4c0.2-0.2,0.4-0.3,0.5-0.5
					c0.2-0.3,0.2-0.9-0.1-1.1c-0.8-0.5-1.8,0.4-2,1.1C91.5,185.4,92.2,185,92.3,184.8L92.3,184.8z"/>
				<g>
					<path class="st4" d="M97.8,184.1c-0.8,1.3-1.7,2.5-2.6,3.6c-0.4,0.5,0.2,0.5,0.5,0.1c0.9-1.2,1.9-2.5,2.7-3.8
						C98.8,183.5,98,183.8,97.8,184.1L97.8,184.1z"/>
					<path class="st4" d="M96.4,183.8c-0.5,0-0.8,0.5-0.9,0.9c-0.1,0.4,0.2,0.8,0.6,0.8C97,185.5,97.4,183.8,96.4,183.8
						c-0.2,0-0.6,0.5-0.3,0.5c0.2,0,0.3,0.2,0.4,0.4c0,0.1,0,0.2,0,0.2c0,0.1,0,0,0,0c0,0-0.1,0-0.1,0c-0.2,0-0.4-0.2-0.4-0.4
						c0-0.1,0-0.2,0-0.3c0-0.1,0,0,0,0c0,0,0.1,0,0.1,0C96.3,184.3,96.7,183.7,96.4,183.8z"/>
					<path class="st4" d="M97.7,186.5c-0.5,0-0.8,0.5-0.9,0.9c-0.1,0.4,0.2,0.8,0.6,0.8C98.3,188.2,98.7,186.5,97.7,186.5
						c-0.2,0-0.6,0.5-0.3,0.5c0.2,0,0.3,0.2,0.4,0.4c0,0.1,0,0.2,0,0.2c0,0.1,0,0,0,0c0,0-0.1,0-0.1,0c-0.2,0-0.4-0.2-0.4-0.4
						c0-0.1,0-0.2,0-0.3c0-0.1,0,0,0,0c0,0,0.1,0,0.1,0C97.6,187,98,186.5,97.7,186.5z"/>
				</g>
			</g>
		</g>
		<g>
			<path class="st4" d="M126.6,170.6c-0.2,0-0.5,0.1-0.6,0.3c-0.1,0.2-0.2,0.4-0.4,0.5c0,0,0,0,0,0c0,0-0.1,0-0.1,0
				c-0.1-0.2,0-0.6,0.1-0.7c0.1-0.6,0.4-1.2,0.7-1.7c0.1-0.1,0.2-0.2,0.3-0.4c0.1-0.1,0.1-0.3-0.2-0.3c-0.2,0-0.5,0.1-0.6,0.2
				c-0.1,0.1-0.2,0.3-0.3,0.4c-0.1,0.2-0.3,0.3-0.5,0.5c-0.2,0.1-0.3,0.1-0.5,0.2c0,0,0,0,0,0c0.2-0.6,0.3-1.2,0.5-1.8
				c0-0.1,0-0.2-0.1-0.2c-0.2-0.1-0.7,0.1-0.8,0.3c-0.3,0.9-0.8,1.7-1.5,2.3c0,0-0.1-0.1-0.1-0.1c-0.1-0.1-0.1-0.2-0.1-0.3
				c0-0.2,0-0.5,0.1-0.7c0-0.2,0.1-0.3,0.1-0.5c0.1-0.4,0.3-0.8,0.4-1.1c0-0.1,0.1-0.2,0.1-0.3c0.1-0.2-0.2-0.2-0.3-0.2
				c-0.2,0-0.4,0.2-0.5,0.3c-0.1,0.1-0.1,0.3-0.1,0.4c-0.1,0.3-0.2,0.6-0.3,0.9c0,0.1-0.1,0.3-0.1,0.4c-0.1,0.3-0.2,0.5-0.4,0.7
				c0,0,0,0,0,0c0,0-0.1-0.1-0.1-0.1c-0.3-0.3-0.1-1,0-1.4c0-0.2,0.1-0.3,0.1-0.5c0-0.1,0.1-0.1,0.1-0.2c0,0,0-0.1,0-0.1
				c0.1-0.2,0.2-0.5,0.3-0.7c0.1-0.1,0-0.3-0.2-0.3c-0.2,0-0.5,0.1-0.6,0.3c-0.2,0.4-0.4,0.7-0.5,1.1c-0.2,0.4-0.4,0.9-0.7,1.3
				c0,0,0,0,0,0c0,0,0,0,0,0c0,0-0.1-0.1-0.1-0.2c-0.1-0.2,0-0.5,0-0.7c0-0.7,0.2-1.5,0.3-2.2l0,0c0,0,0-0.1,0-0.1c0,0,0,0-0.1-0.1
				c-0.2-0.1-0.5,0-0.6,0.2c-0.5,0.4-0.6,1.1-0.8,1.6c-0.1,0.3-0.2,0.7-0.4,1c0,0,0,0.1-0.1,0.1c-0.1-0.1-0.1-0.2-0.1-0.3
				c0,0,0,0,0,0c0-0.1,0-0.2-0.2-0.2c-0.2,0-0.4,0.2-0.5,0.4c0,0,0,0,0,0c0,0,0,0,0,0c-0.1-0.1-0.2-0.2-0.2-0.3
				c-0.1-0.2,0-0.5,0-0.7c0-0.2,0-0.3,0.1-0.5c0.1-0.4,0.2-0.8,0.2-1.2c0-0.1,0.1-0.2,0.1-0.4c0-0.2-0.2-0.2-0.4-0.2
				c-0.2,0.1-0.4,0.2-0.5,0.4c0,0.2-0.1,0.4-0.1,0.6c0,0.2-0.1,0.4-0.1,0.7c0,0.2-0.1,0.4-0.1,0.5c-0.1,0.3-0.1,0.5-0.3,0.8
				c0,0,0,0,0,0c0,0-0.1,0-0.2-0.1c-0.4-0.2-0.3-1-0.3-1.3c0.1-0.5,0.2-1,0.4-1.5c0.1-0.1,0.1-0.2,0-0.2c-0.1-0.1-0.3-0.1-0.4,0
				c-0.1,0-0.2,0.1-0.2,0.1c0,0,0,0,0,0s-0.1,0.1-0.1,0.1c-0.1,0-0.1,0.1-0.2,0.1c-0.4,0.1-0.7,0-0.9-0.3c-0.1-0.1-0.2-0.2-0.3-0.3
				c-0.3-0.2-0.6-0.1-0.9,0.1c0-0.2,0-0.5-0.1-0.7c0-0.2-0.4,0-0.4,0c-0.2,0.1-0.3,0.3-0.3,0.5c-0.1,0-0.2,0-0.3,0.1
				c-0.1,0-0.3,0.1-0.3,0.2c0,0-0.1,0.1-0.1,0.1s-0.1,0.1-0.1,0.1c-0.1,0-0.1,0.1-0.2,0.1c-0.4,0.2-0.7,0-0.9-0.2c0,0,0-0.1-0.1-0.1
				c0,0,0,0,0,0c0,0,0,0,0,0c-0.1-0.1-0.3-0.2-0.4-0.2c0,0,0,0-0.1,0c0,0,0,0,0,0c0,0-0.1,0-0.1,0c-0.1,0-0.2,0-0.3,0
				c-0.2,0.1-0.3,0.3-0.4,0.5c-0.1,0.2-0.2,0.5-0.3,0.7c0,0.1-0.1,0.1-0.1,0.2c-0.1,0.3-0.3,0.6-0.4,0.8c-0.1-0.7-0.1-1.3-0.2-2
				c0-0.2-0.3-0.1-0.5,0.1c-0.1-0.1-0.3-0.1-0.4-0.1c0,0,0,0-0.1,0c0,0,0,0,0,0c-1,0.2-1.2,1.4-1.1,2.1c0,0.1,0,0.3,0,0.4l0,0
				c0,0.2,0,0.6-0.2,0.8c-0.2,0.2-0.5-0.5-0.5-0.6c-0.3-0.7-0.3-1.6-0.4-2.4c0-0.2-0.3-0.1-0.4,0c-0.2,0.1-0.4,0.3-0.3,0.5
				c0.1,0.6,0.2,1.2,0.2,1.9c0,0.3,0,0.6,0,0.8c0,0,0,0,0,0c-0.1,0-0.1,0-0.2,0c-0.4-0.1-0.6-0.9-0.6-1.2c-0.1-0.5-0.1-1.1-0.1-1.6
				c0-0.2-0.1-0.3-0.3-0.2c-0.2,0.1-0.4,0.3-0.4,0.5c-0.1,0.7,0,1.4,0.2,2c0,0.1,0.1,0.2,0.1,0.4c-0.1,0-0.1,0.1-0.2,0.1
				c-0.1,0.1-0.1,0.1-0.2,0.2c-0.3,0-0.6-0.8-0.6-1c-0.2-0.6-0.3-1.3-0.4-1.9c0-0.2-0.3-0.1-0.4,0c-0.2,0.1-0.3,0.4-0.3,0.6
				c0.1,0.6,0.3,1.2,0.3,1.8c0,0.3,0.1,0.5,0,0.8c0,0,0,0,0,0c0,0-0.1,0-0.2,0c-0.4-0.1-0.6-0.8-0.7-1.1c-0.1-0.2-0.1-0.4-0.1-0.7
				c0,0,0-0.1,0-0.1c0,0,0,0,0-0.1c0-0.2,0-0.5,0-0.8c0-0.2-0.1-0.3-0.3-0.1c-0.2,0.1-0.3,0.4-0.3,0.6c0,0.3,0,0.7,0.1,1
				c0.1,0.5,0.1,1,0,1.5c0,0.1,0,0.1,0,0.2c0,0,0,0,0,0c0,0,0,0,0,0l0,0c0,0,0,0,0,0s-0.1,0-0.1,0c-0.3-0.1-0.4-0.4-0.6-0.6
				c-0.5-0.7-0.7-1.6-1-2.4c-0.1-0.4-0.2-0.8-0.3-1.2c-0.1-0.2-0.1-0.6-0.1-0.8c0-0.4-0.5,0-0.6,0.3c-0.5,1.3,0,2.6,0.3,3.8
				c0,0.1,0,0.3,0.1,0.4c-0.3,0.1-0.6,0.1-0.9-0.1c-0.3-0.1-0.7,0.7-0.4,0.8c0.5,0.3,1,0.2,1.4-0.1l0,0c0,0.2,0,0.7-0.1,0.9
				c-0.1,0.1-0.4,0.1-0.5,0c-0.2-0.1-0.3-0.2-0.4-0.4c-0.1-0.2-0.3-0.1-0.4,0c-0.1,0.2-0.3,0.4-0.2,0.6c0.1,0.4,0.6,0.8,1.2,0.6
				c0.8-0.3,0.9-1.3,1-1.9c0-0.1,0-0.3,0-0.4c0-0.1,0.1-0.1,0.1-0.2c0.2,0.4,0.4,0.8,0.7,1.1c0.3,0.4,0.7,0.5,1.1,0.2
				c0.2-0.2,0.4-0.5,0.4-0.7c0.2,0.3,0.4,0.5,0.8,0.5c0.4-0.1,0.6-0.4,0.8-0.7c0.1,0.1,0.2,0.2,0.3,0.3c-0.2,0.5-0.3,0.9,0,1.3
				c0.2,0.3,0.7-0.5,0.5-0.7c-0.2-0.2-0.1-0.4,0-0.7c0,0,0,0,0,0c0.2-0.1,0.3-0.3,0.4-0.5c0-0.1,0.1-0.1,0.1-0.2
				c0.2,0.3,0.4,0.5,0.7,0.5c0.4,0,0.7-0.3,0.9-0.7c0,0.1,0.1,0.2,0.2,0.2c0.4,0.5,1,0,1.3-0.3c0,0,0.1-0.1,0.1-0.1
				c0.2,0.3,0.4,0.5,0.8,0.4c0.1,0,0.2,0,0.3-0.1c-0.3,0.6-0.5,1.2-0.6,1.8c-0.1,0.5,0,1.1,0.6,1.1c0.4,0,0.7-0.4,0.8-0.7
				c0.3-0.6,0.2-1.3,0.2-1.9c0-0.4-0.1-0.7-0.1-1.1c0.1-0.2,0.2-0.5,0.4-0.7c0.1,0.6,0.3,1.5,1,1.5c0.4,0,0.8-0.4,0.9-0.8
				c0.2-0.4,0.3-0.8,0.3-1.3c0-0.2,0-0.4,0-0.7c0.1,0,0.3-0.1,0.4-0.1c-0.1,0.3-0.1,0.6-0.1,0.8c0,0.6,0,1.2,0.4,1.7
				c0.2,0.2,0.4,0.3,0.6,0.2c0.1,0,0.2,0,0.3-0.1c0,0.8-0.1,1.5-0.2,2.2c0,0.2,0.2,0.2,0.3,0.1c0.2-0.1,0.3-0.3,0.4-0.5
				c0.1-0.6,0.1-1.2,0.2-1.8c0.3,0,0.5-0.1,0.8-0.3c0.5-0.4,0.7-1.2,0.7-1.9c0-0.1,0-0.2,0-0.4c0.2,0,0.5-0.1,0.7-0.2
				c-0.1,0.5-0.2,1-0.3,1.5c0,0.5,0,1.3,0.6,1.4c0.4,0.1,0.7,0,1-0.3c0.1,0.3,0.4,0.5,0.7,0.5c0.1,0,0.3-0.1,0.4-0.1
				c0.2,0.3,0.6,0.3,0.9,0.1c0.3-0.2,0.5-0.4,0.6-0.7c0,0.1,0,0.2,0,0.3c0,0.3,0,0.5,0.2,0.8c0.1,0.2,0.7,0.1,0.7,0.1s0.1,0,0.1,0
				c0.2-0.1,0.3-0.2,0.5-0.3c0,0.3,0.1,0.7,0.4,0.8c0.3,0.1,0.6,0,0.9-0.1c0,0.1,0,0.2,0.1,0.2c0.1,0.3,0.5,0.4,0.8,0.3
				c0.4-0.1,0.8-0.5,1.1-0.9c-0.1,0.4-0.2,0.8-0.4,1.1c-0.1,0.2,0.1,0.2,0.3,0.2c0.2,0,0.4-0.1,0.5-0.3c0.1-0.3,0.3-0.6,0.5-0.8
				c0.1-0.1,0.2-0.1,0.4-0.2c0,0,0,0,0,0c-0.2,0.5-0.3,0.9-0.4,1.4c0,0.4,0.2,0.6,0.7,0.6c0.7-0.1,1.3-0.5,1.6-1.1
				C127,170.6,126.8,170.6,126.6,170.6z M99.3,170.3C99.3,170.3,99.3,170.3,99.3,170.3L99.3,170.3L99.3,170.3L99.3,170.3z
				 M99.3,170.3L99.3,170.3C99.3,170.3,99.3,170.3,99.3,170.3C99.3,170.3,99.3,170.3,99.3,170.3z M100.9,169.8
				C100.9,169.8,100.9,169.8,100.9,169.8L100.9,169.8z M103.9,169.2C103.9,169.2,103.9,169.2,103.9,169.2L103.9,169.2z M106.3,167.4
				c0-0.3-0.1-0.6,0-1c0-0.1,0-0.2,0.1-0.3c0.5,0,0.7,0.9,0.7,1.2c0,0.3,0.1,0.6,0,1c0,0.1,0,0.1,0,0.2c0,0,0,0.1,0,0.1c0,0,0,0,0,0
				C106.6,168.8,106.4,167.7,106.3,167.4z M107.5,171.2c0,0.1,0,0.2-0.1,0.2c0,0,0,0-0.1,0c-0.1,0-0.1,0-0.2-0.1
				c-0.2-0.1-0.1-0.5-0.1-0.7c0.1-0.3,0.2-0.6,0.3-0.9c0,0.2,0,0.3,0,0.5C107.5,170.5,107.5,170.9,107.5,171.2z M109.8,168.2
				c0,0.1,0,0.1-0.1,0.2c0,0,0,0.1,0,0.1c0,0,0,0,0,0c-0.4,0.1-0.6-1-0.6-1.3c0-0.3,0-0.6,0-0.9c0.1-0.1,0.1-0.2,0.2-0.3
				c0.1,0,0.1,0,0.2,0.1c0,0,0,0,0,0.1c0,0,0.1,0.1,0.1,0.1c0.2,0.3,0.2,0.8,0.3,1C109.9,167.6,109.9,167.9,109.8,168.2z M112,168.5
				c-0.1-0.1-0.2-0.2-0.3-0.3c-0.2-0.4-0.2-0.8-0.2-1.2c0-0.3,0.1-0.7,0.2-1c0,0,0,0,0.1,0c0.2,0.2,0.3,0.6,0.4,0.9l0,0
				c0,0.5,0,1.1,0,1.6c0,0,0,0,0,0c0,0,0,0,0,0C112.1,168.5,112,168.5,112,168.5z M113.3,168.5C113.3,168.5,113.3,168.5,113.3,168.5
				L113.3,168.5z M113.3,168.5C113.3,168.5,113.3,168.5,113.3,168.5C113.3,168.5,113.3,168.5,113.3,168.5c-0.3,0.1-0.5-0.2-0.4-0.4
				v0c0-0.6,0.1-1.1,0.1-1.7c0-0.1,0-0.3,0.1-0.4c0,0,0,0,0,0c0,0,0,0,0,0c0.1,0,0.2,0.1,0.2,0.1c0,0,0,0,0,0c0,0,0,0,0.1,0.1
				c0.2,0.3,0.2,0.7,0.2,1.1C113.5,167.7,113.5,168.2,113.3,168.5z M115.9,168.8C115.9,168.8,115.9,168.8,115.9,168.8L115.9,168.8z
				 M121.4,170C121.4,170,121.4,170,121.4,170L121.4,170z"/>
		</g>
		<path class="st7" d="M101.5,143.6c0,1.4-1.1,2.6-2.6,2.6c-1.4,0-2.6-1.1-2.6-2.6c0-1.4,1.1-2.6,2.6-2.6
			C100.4,141,101.5,142.2,101.5,143.6L101.5,143.6z"/>
		<path class="st8" d="M101.6,152.2c0,1.8-1.5,3.3-3.3,3.3c-1.8,0-3.3-1.5-3.3-3.3c0-1.8,1.5-3.3,3.3-3.3
			C100.1,148.9,101.6,150.4,101.6,152.2L101.6,152.2z"/>
		<path class="st8" d="M92.8,147.1c0,1.1-0.9,1.9-1.9,1.9c-1.1,0-2-0.9-2-1.9c0-1.1,0.9-2,2-2C91.9,145.2,92.8,146,92.8,147.1
			L92.8,147.1z"/>
		<g>
			<circle class="st6" cx="128.1" cy="149.8" r="11"/>
			<g>
				<path class="st4" d="M125.4,148.2c-0.9,0.1-1.2,1.2-1.2,1.9l0,0l0,0c0,0.1,0,0.2,0,0.3c0,0.4,0,0.6-0.1,1c0,0.1-0.1,0.4-0.1,0.4
					c-0.3,0-0.6-0.5-0.7-0.7c-0.2-0.6-0.4-1.2-0.5-1.7c-0.1-0.6-0.2-1.3-0.2-2c0-0.3,0-0.5,0-0.8c0-0.1,0-0.2,0-0.3
					c0-0.1,0-0.2,0-0.2c0.1-0.5-0.6,0-0.7,0.2c-0.7,1.3-0.5,2.8-0.5,4.2c0,0.4,0,0.8-0.1,1.1c0,0.3-0.1,0.7-0.3,0.9
					c-0.1,0.1-0.4,0-0.5,0c-0.2-0.1-0.3-0.3-0.3-0.5c0-0.2-0.3-0.1-0.4,0c-0.2,0.2-0.3,0.4-0.3,0.6c0.1,0.5,0.5,0.9,1.1,0.8
					c0.8-0.2,1.2-1.2,1.4-2c0.1-0.4,0.1-0.7,0.2-1.1c0.1,0.5,0.3,1.1,0.5,1.6c0.2,0.4,0.5,0.7,1,0.7c0.3-0.1,0.6-0.4,0.8-0.8
					c0.2,0.4,0.4,0.6,0.8,0.6c0.5,0,0.8-0.5,1-0.9c0.2-0.4,0.3-0.9,0.3-1.4C126.5,149.5,126.3,148.1,125.4,148.2z M125.7,151.4
					c0,0.1,0,0.2-0.1,0.3c-0.2,0-0.3-0.3-0.4-0.4c-0.1-0.3-0.2-0.6-0.2-1c0-0.3,0-0.7,0-1c0-0.1,0-0.2,0.1-0.3
					c0.5,0.3,0.6,0.9,0.6,1.4C125.7,150.7,125.7,151.1,125.7,151.4z"/>
				<path class="st4" d="M136.3,149.6c-1-0.4-1.5,1-1.7,1.7c-0.2,0.7-0.4,1.9,0.5,2.3c0.4,0.2,0.9-0.1,1.2-0.4
					c0.3-0.3,0.5-0.8,0.6-1.2C137,151.2,137.2,149.9,136.3,149.6z M135.7,152.7c0,0.1-0.1,0.2-0.1,0.2c-0.2-0.1-0.2-0.4-0.2-0.5
					c-0.1-0.3,0-0.7,0-1c0.1-0.3,0.2-0.7,0.3-1c0-0.1,0.1-0.2,0.1-0.2c0.4,0.4,0.3,1.1,0.2,1.6C136,152.1,135.9,152.4,135.7,152.7z"
					/>
				<path class="st4" d="M133.7,149.7c0.2-0.2,0.4-0.5,0.5-0.8c0.4-0.6,0.7-1.2,0.7-1.9c0-0.6-0.9-0.7-1.3-0.5c-0.6,0.3-1,1-1.2,1.6
					c-0.2,0.9-0.4,1.7-0.4,2.6v0c-0.3,0.4-1,1.1-1.5,0.8c-0.1-0.1-0.2-0.2-0.2-0.4c0.4-0.4,0.8-0.9,1.1-1.4c0.3-0.4,0.5-1.2-0.1-1.5
					c-0.5-0.3-1.1,0-1.4,0.4c-0.3,0.4-0.5,0.9-0.5,1.4c0,0.3-0.1,0.7,0,1.1c-0.3,0.2-0.6,0.3-1,0.2c-0.4-0.1-0.5-0.5-0.6-0.8
					c-0.1-0.5-0.1-0.9,0-1.4c0-0.1,0.1-0.3,0.1-0.4c0,0,0-0.1,0-0.1c0.2,0.1,0.3,0.5,0.4,0.6c0.1,0.3,0.9-0.2,0.8-0.5
					c-0.1-0.3-0.2-0.7-0.6-0.8c-0.3-0.2-0.8,0.1-1,0.3c-0.6,0.6-0.7,1.5-0.6,2.3c0,0.5,0.1,1.1,0.6,1.4c0.6,0.4,1.4,0,2-0.3
					c0.2,0.4,0.4,0.6,0.9,0.6c0.6-0.1,1.1-0.4,1.6-0.8c0,0.4,0.1,0.9,0.4,1.1c0.5,0.3,1.2,0,1.5-0.5c0.5-0.6,0.7-1.4,0.4-2.1
					C134.2,149.9,133.9,149.7,133.7,149.7z M130.3,149.3c0-0.1,0.1-0.3,0.2-0.4c0,0,0,0,0,0c0.2,0.1,0.3,0.4,0.3,0.6
					c-0.1,0.4-0.3,0.7-0.6,1.1c0-0.1,0-0.1,0-0.2C130.2,150.1,130.2,149.7,130.3,149.3z M133.5,147.5c0.1-0.1,0.1-0.3,0.2-0.4
					c0,0,0,0,0,0c0.4,0.4,0,1-0.2,1.4c-0.2,0.4-0.4,0.8-0.7,1.2c0.1-0.4,0.1-0.8,0.2-1.1C133.2,148.2,133.3,147.9,133.5,147.5z
					 M133.3,152c0,0-0.1,0.1-0.1,0.2c0,0-0.1,0-0.1,0c-0.2-0.1-0.3-0.7-0.3-0.9c0-0.2,0-0.4,0-0.6c0.1-0.1,0.2-0.2,0.3-0.4
					c0.2-0.1,0.4,0.1,0.4,0.4C133.6,151.2,133.5,151.7,133.3,152z"/>
			</g>
		</g>
		<g>
			<path class="st9" d="M86.7,159.6c-0.1,0-0.2-0.2-0.3-0.2c-0.4-0.2-0.7,0.1-1.1,0.1c-1,0-1.3,0-2.4-0.3c0-1,0.6-1.6,0.8-2.4
				c0.2-0.7-0.1-1.5-0.1-2.3c0-0.5,0-0.9,0-1.4c-0.3,0.3-0.2,1.2-0.2,1.6c-0.1-0.6-0.1-1.4-0.3-1.9c-0.1,0.6,0,1.3,0,1.9
				c-0.2-0.5-0.2-1.2-0.4-1.6c-0.3,0.5,0.2,1.3,0.1,1.8c-0.2-0.5-0.3-1-0.6-1.5c-0.1,0.6,0.2,1.2,0.2,1.6c-0.2-0.4-0.3-0.8-0.6-1.1
				c0,0.4,0.3,0.9,0.4,1.3c-0.3-0.1-0.4-0.5-0.6-0.6c0,0.3,0.3,0.5,0.4,0.8c-0.2-0.1-0.3-0.3-0.5-0.4c0,0.3,0.3,0.4,0.3,0.6
				c-0.1-0.1-0.3-0.2-0.4-0.3c0,0.2,0.3,0.4,0.3,0.5c0,0-0.2-0.1-0.2,0c0,0,0.2,0.1,0.1,0.2c-0.1,0-0.1,0-0.2,0
				c0,0.2,0.2,0.1,0.1,0.3c-0.1,0-0.1-0.1-0.1,0c0,0.1,0.1,0.1,0.1,0.2c-0.8,0.8-0.4,1.8-0.5,2.8c0.1-0.1-0.7-0.3-1.2-0.5
				c-0.3-0.1-0.4-0.5-0.6-0.6c0-0.1,0.1,0,0.1-0.1c-0.1,0-0.2-0.1-0.2-0.2c0.1,0,0.3,0.1,0.3,0c-0.1-0.1-0.5-0.2-0.5-0.3
				c0.2,0,0.4,0.1,0.6,0.1c-0.2-0.1-0.6-0.3-0.6-0.5c0.2,0.1,0.5,0.3,0.7,0.2c-0.3-0.2-0.8-0.4-0.9-0.7c0.3,0.1,0.6,0.4,0.8,0.4
				c-0.4-0.1-0.7-0.6-1.1-0.6c0.2,0.4,0.8,0.6,0.9,0.8c-0.3-0.2-0.6-0.3-1-0.5c0.1,0.4,0.6,0.5,0.9,0.8c-0.3,0-0.5-0.2-0.8-0.2
				c0.1,0.3,0.6,0.2,0.7,0.5c-0.1-0.1-0.3,0-0.5,0c0,0.2,0.4,0.2,0.5,0.3c-0.2,0-0.3,0-0.4,0.1c0.1,0.1,0.3,0.1,0.4,0.2
				c-0.1,0-0.2,0-0.2,0.1c0,0.1,0.3,0,0.3,0.1c-0.1,0-0.1,0.1-0.1,0.1c0.1,0,0.2,0,0.2,0c-0.1,0-0.1,0-0.1,0.1
				c0.4,0.2,0.7,0.9,1.3,1.2c-0.3,0.2,0.3,0.4-3.5,1.8c0.1,0,1.7-0.4,2.2-0.5c0.5-0.2,0.9-0.3,1.4-0.4c0.1,0,0.2-0.1,0.3-0.1
				c0.8-0.1,1.5,0.1,2.3-0.4c-0.6,0.1-1.6,0.2-2-0.1c0.5-0.8,0.2-2.9,0.6-3.3c0.4-0.4,1.1-1.8,1.9-0.6c0.1,0.2,0.2,0.4-0.1,0.9
				c-0.4,0.6-0.6,0.9-0.5,2.1c0,0.3,0,0.5-0.4,0.5c1.7,0.4,2.2,0.2,3.1,0c0.3,0,0.8-0.3,0.8,0c0,0.1-0.3,0.1-0.6,0.1
				c-0.5,0,0.2,0.2,0.4,0.2c0.1,0,1-0.1,1.5-0.2C87.2,159.7,87,159.7,86.7,159.6z"/>
			<path class="st9" d="M81.8,151.1c-3.8,0-6.9,3.1-6.9,6.9c0,3.8,3.1,6.9,6.9,6.9c3.8,0,6.9-3.1,6.9-6.9
				C88.7,154.2,85.6,151.1,81.8,151.1 M81.8,151.3c3.7,0,6.7,3,6.7,6.7c0,3.7-3,6.7-6.7,6.7c-3.7,0-6.7-3-6.7-6.7
				C75.1,154.3,78.1,151.3,81.8,151.3"/>
		</g>
	</g>
</g>
<g id="butylka_1">
</g>
<g id="sneg">
</g>
<g id="shariki_2">
</g>
<g id="shariki_1">
</g>
<g id="voronka">
</g>
<g id="gradusnik">
</g>
<g id="kolba_2">
</g>
<g id="kolba_1">
</g>
<g id="probirki">
</g>
<g id="lupa">
</g>
<g id="bidon">
</g>
<g id="blank">
</g>
<g id="ticks">
</g>
</svg>
