<?xml version="1.0" encoding="utf-8"?>
<!-- Generator: Adobe Illustrator 19.0.0, SVG Export Plug-In . SVG Version: 6.00 Build 0)  -->
<svg version="1.1" id="Layer_1" xmlns="http://www.w3.org/2000/svg" xmlns:xlink="http://www.w3.org/1999/xlink" x="0px" y="0px"
	 viewBox="143 -117.5 343.5 290.5" style="enable-background:new 143 -117.5 343.5 290.5;" xml:space="preserve">
<style type="text/css">
	.st0{fill:#519E38;}
	.st1{fill:#FFFFFF;}
	.st2{fill:#E7DC00;}
	.st3{fill:#DBCB05;}
	.st4{fill:#F7E71E;}
	.st5{fill:#FFF35F;}
	.st6{fill:#0E3656;}
	.st7{fill:#446666;}
</style>
<g id="shariki_2">
	<g>
		<g>
			<circle class="st0" cx="296.3" cy="101.6" r="2.1"/>
			<circle class="st1" cx="295.1" cy="100.5" r="2.1"/>
		</g>
		<g>
			<circle class="st0" cx="296.3" cy="112" r="2.1"/>
			<circle class="st1" cx="295.1" cy="111" r="2.1"/>
		</g>
		<g>
			<circle class="st0" cx="296.3" cy="128.5" r="2.1"/>
			<circle class="st1" cx="295.1" cy="127.3" r="2.1"/>
		</g>
		<g>
			<circle class="st0" cx="296.3" cy="93.3" r="2.1"/>
			<circle class="st1" cx="295.1" cy="92.2" r="2.1"/>
		</g>
	</g>
</g>
<g id="shariki_3">
	<g>
		<g>
			<circle class="st0" cx="296.3" cy="101.6" r="2.1"/>
			<circle class="st1" cx="295.1" cy="100.5" r="2.1"/>
		</g>
		<g>
			<circle class="st0" cx="296.3" cy="112" r="2.1"/>
			<circle class="st1" cx="295.1" cy="111" r="2.1"/>
		</g>
		<g>
			<circle class="st0" cx="296.3" cy="128.5" r="2.1"/>
			<circle class="st1" cx="295.1" cy="127.3" r="2.1"/>
		</g>
		<g>
			<circle class="st0" cx="296.3" cy="93.3" r="2.1"/>
			<circle class="st1" cx="295.1" cy="92.2" r="2.1"/>
		</g>
	</g>
</g>
<g id="shariki_1">
	<g>
		<g id="mySharik1">
			<circle class="st0" cx="303" cy="-20.1" r="7"/>
			<circle class="st1" cx="299.1" cy="-23.4" r="7"/>
		</g>
		<g id="mySharik2">
			<circle class="st0" cx="302.3" cy="-100.4" r="7"/>
			<circle class="st1" cx="299.8" cy="-103.6" r="7"/>
		</g>
		<g id="mySharik3">
			<circle class="st0" cx="321.7" cy="-36.6" r="7"/>
			<circle class="st1" cx="319" cy="-39.8" r="7"/>
		</g>
		<g id="mySharik4">
			<circle class="st0" cx="281.7" cy="-74.6" r="7"/>
			<circle class="st1" cx="278.9" cy="-77" r="7"/>
		</g>
		<g id="mySharik5">
			<circle class="st0" cx="271.9" cy="-38.6" r="7"/>
			<circle class="st1" cx="268.8" cy="-40.9" r="7"/>
		</g>
		<g id="mySharik6">
			<circle class="st0" cx="295.7" cy="-52.4" r="7"/>
			<circle class="st1" cx="293.2" cy="-55" r="7"/>
		</g>
	</g>
</g>
<g id="voronka">
	<g>
		<g>
			<polygon class="st0" points="245.9,-17.4 245.9,-10.9 294.6,45.9 302.6,45.9 302.7,45.9 310.7,45.9 359.4,-10.9 359.4,-17.4 			
				"/>
			<rect x="294.7" y="45.9" class="st0" width="16.1" height="34.3"/>
		</g>
		<polygon class="st2" points="239.3,-14.1 287.9,42.6 296,42.6 296,-14.1 		"/>
		<polygon class="st3" points="352.7,-14.1 304,42.6 295.9,42.6 295.9,-14.1 		"/>
		<rect x="239.3" y="-20.6" class="st4" width="113.5" height="6.5"/>
		<rect x="288" y="40.3" class="st2" width="16.1" height="39.9"/>
		<rect x="296" y="40.3" class="st3" width="8" height="39.9"/>
		<path class="st5" d="M269.1,3.7C270.2,5,270,7,268.6,8l0,0c-1.3,1.1-3.3,0.9-4.3-0.5l-8.9-11.1c-1.1-1.3-0.9-3.3,0.5-4.3l0,0
			c1.3-1.1,3.3-0.9,4.3,0.5L269.1,3.7z"/>
	</g>
</g>
<g id="lupa">
	<g>
		<path class="st6" d="M283.4,72.2c-22.8,6.7-35.8,30.7-29.1,53.5c6.7,22.8,30.7,35.8,53.5,29.1s35.8-30.7,29.1-53.5
			C330.1,78.5,306.2,65.4,283.4,72.2z M326.5,104.3c2.4,8.3,1.5,17-2.6,24.6S313,142,304.7,144.4c-8.3,2.4-17,1.5-24.6-2.6
			c-7.6-4.1-13.1-10.9-15.5-19.2c-2.4-8.3-1.5-17,2.6-24.6s10.9-13.1,19.2-15.5s17-1.5,24.6,2.6C318.5,89.2,324.1,96,326.5,104.3z"
			/>
		<g>
			<g>
				<g>
					<g>
						
							<rect x="352" y="73.6" transform="matrix(0.2832 0.9591 -0.9591 0.2832 347.4124 -274.5633)" class="st7" width="10.8" height="43"/>
					</g>
				</g>
			</g>
		</g>
		<g>
			<g>
				<g>
					<g>
						
							<rect x="367.4" y="60.4" transform="matrix(0.2832 0.9591 -0.9591 0.2832 356.5067 -298.7585)" class="st6" width="21.5" height="57.4"/>
					</g>
				</g>
			</g>
		</g>
		<g>
			<g>
				<g>
					<g>
						<g>
							<path class="st1" d="M282.6,128.4c-0.4,1.4-1.9,2.2-3.3,1.9c-3-0.8-5.4-2.7-7-5.4c-1.5-2.7-1.9-5.8-1.1-8.8
								c0.4-1.4,1.9-2.2,3.3-1.9c1.4,0.4,2.2,1.9,1.9,3.3c-0.4,1.6-0.2,3.3,0.6,4.7s2.2,2.5,3.7,2.9
								C282.1,125.5,283,127,282.6,128.4z"/>
						</g>
					</g>
				</g>
			</g>
		</g>
	</g>
</g>
</svg>
