<?xml version="1.0" encoding="utf-8"?>
<!-- Generator: Adobe Illustrator 19.0.0, SVG Export Plug-In . SVG Version: 6.00 Build 0)  -->
<svg version="1.1" xmlns="http://www.w3.org/2000/svg" xmlns:xlink="http://www.w3.org/1999/xlink" x="0px" y="0px"
	 viewBox="0 0 141 173" style="enable-background:new 0 0 141 173;" xml:space="preserve">
<style type="text/css">
	.st0{fill:#519E38;}
	.st1{fill:#FFFFFF;}
	.st2{fill:#F2EBDF;}
	.st3{fill:#EDEDED;}
	.st4{fill:#CA0000;}
	.st5{fill:#B00000;}
	.st6{opacity:0.6;fill:none;stroke:#FFFFFF;stroke-width:2;stroke-linecap:round;}
	.st7{fill:#EFEFEF;}
	.st8{fill:none;}
	.pastOpasity{fill-opacity: 0%;}
</style>
<g id="test-tube">
	<g id="XMLID_1_">
		<g id="XMLID_2_">
			<polygon id="XMLID_3_" class="st0" points="38.4,107.2 49,83.9 49,26.2 49,24.5 44.9,25.1 45.3,77.5 46.4,82.9 33.8,107.2 			"/>
			<path id="XMLID_4_" class="st0" d="M102.9,147.7L102.9,147.7c-0.2-1.1-0.5-1.8-0.5-1.8L71.1,82.4l0.1-54.2l-0.1-2h-2.3l-1.6,2
				l0.3,55.4l15.4,30.2l8.8,26.5l-6.4,7.7l-23.9,2l-10-0.5c0,0-35.7,0.4-35.5,2.5c0,0.6,0.3,1.1,0.7,1.6h0c0,0-0.2,3.2,6.7,3.2
				s61.1,0,61.1,0l4.7-1.2h3.4l-3,0.8l8.3,0.8C104.8,155.4,102.9,147.7,102.9,147.7z"/>
		</g>
		<path id="XMLID_5_" class="st0" d="M101.3,153.5c0,2-1.6,3.6-3.6,3.6H20.1c-2,0-3.6-1.6-3.6-3.6l0,0c0-2,1.6-3.6,3.6-3.6h77.7
			C99.7,150,101.3,151.6,101.3,153.5L101.3,153.5z"/>
		<g id="XMLID_6_">
			<g id="XMLID_7_">
				<path id="XMLID_8_" class="st1" d="M83.4,116.4H28.3l-13.9,28.9c-2.2,4.6,0.1,8.3,5.1,8.3h72.7c5,0,7.3-3.8,5.1-8.3L83.4,116.4z
					"/>
			</g>
		</g>
		<g id="XMLID_9_">
			<g id="XMLID_10_">
				<polygon id="XMLID_11_" class="st2" points="29.9,116.6 81.7,116.6 77.3,107.2 34.1,107.2 				"/>
			</g>
		</g>
		<g id="XMLID_12_">
			<g id="XMLID_13_">
				<path id="XMLID_14_" class="st1" d="M65.2,24.9v58c0,0.5,0.1,0.9,0.4,1.3c0.3,0.4,0.6,0.9,0.8,1.3l15.8,32.1c0,0,0,0,0,0
					c0,0,0,0,0,0l14.4,29.2c0.7,1.5,0.8,2.8,0.3,3.7c-0.5,0.9-1.8,1.4-3.4,1.4H18.2c-1.6,0-2.9-0.5-3.4-1.4
					c-0.5-0.9-0.4-2.2,0.3-3.7l14.4-29.2c0,0,0,0,0,0c0,0,0,0,0,0l15.8-32.1c0.2-0.4,0.5-0.9,0.8-1.3c0.3-0.4,0.4-0.9,0.4-1.3v-58
					H65.2L65.2,24.9z M67.6,22.5H44.1v60.3c-0.4,0.5-0.7,1.1-0.9,1.6l-15.8,32.1c0,0,0,0,0,0v0l-14.4,29.2c-2.3,4.6,0.1,8.4,5.3,8.4
					h75.2c5.2,0,7.5-3.8,5.3-8.4l-14.4-29.2v0c0,0,0,0,0,0L68.5,84.5c-0.3-0.5-0.6-1.1-0.9-1.6V22.5L67.6,22.5z"/>
			</g>
		</g>
		<path id="XMLID_17_" class="st1" d="M46.1,99.7c-0.3,0-0.6-0.1-0.9-0.2c-1.1-0.5-1.6-1.8-1.1-2.9l3.8-8.7c0.5-1.1,1.8-1.6,2.9-1.1
			c1.1,0.5,1.6,1.8,1.1,2.9l-3.8,8.7C47.8,99.2,47,99.7,46.1,99.7z"/>
		<path id="XMLID_18_" class="st1" d="M52.2,80.5c-1.1,0-2-0.9-2-2V33.7c0-1.1,0.9-2,2-2c1.1,0,2,0.9,2,2v44.8
			C54.2,79.6,53.3,80.5,52.2,80.5z"/>
	</g>
</g>
<g id="thermometer">
	<g id="XMLID_19_">
		<path id="XMLID_20_" class="st0" d="M127.2,82.9c0-7,0-52.7,0-54.7c0-0.5-0.1-0.9-0.2-1.4c0,0,0,0,0,0s-0.8-5.5-6.2-6.1
			c0,0-3.8-0.1-6,1.1c-2.2,1.2,6.9,5.4,6.9,5.4s1.7,0.9,2.5,1.3c0,4.5,0,54.7,0,55.2v0.9l0.8,0.4c0.1,0,6.9,3.9,6.4,11.5
			c-0.4,5.9-3.8,10.3-8.9,12l-6.3-1.8c0,0-7.5-0.2-4.8,2.8c1.7,1.9,4.6,2.5,6.5,2.6c0.2,0.1,0.4,0.1,0.6,0.1c0,0,0,0,0,0
			c0.3,0,0.6,0,0.9-0.1c0.2,0,0.3,0,0.3,0l0,0c8.1-0.7,14.1-6.9,14.6-15.3C134.9,88.9,129.3,84.4,127.2,82.9z"/>
		<path id="XMLID_21_" class="st1" d="M124.2,83.6V28.7c0-4-3.2-7.2-7.2-7.2c-4,0-7.2,3.2-7.2,7.2v54.8c-4.4,2.5-7.3,7.2-7.3,12.6
			c0,8,6.5,14.4,14.4,14.4c8,0,14.4-6.5,14.4-14.4C131.4,90.8,128.5,86.1,124.2,83.6z"/>
		<path id="XMLID_22_" class="st3" d="M124.2,83.6V28.7c0-4-3.2-7.2-7.2-7.2c0,0,0,0-0.1,0v89c8,0,14.4-6.5,14.4-14.4
			C131.4,90.8,128.5,86.1,124.2,83.6z"/>
		<path id="XMLID_23_" class="st4" d="M121.5,85.8V41.4H112V86h0c-3.9,1.9-6.6,5.8-6.6,10.4c0,6.4,5.2,11.5,11.5,11.5
			c6.4,0,11.5-5.2,11.5-11.5C128.5,91.7,125.6,87.6,121.5,85.8z"/>
		<path id="my_XMLID_23_" class="st4 pastOpasity" d="M121.5,85.8V41.4H112V86h0c-3.9,1.9-6.6,5.8-6.6,10.4c0,6.4,5.2,11.5,11.5,11.5
			c6.4,0,11.5-5.2,11.5-11.5C128.5,91.7,125.6,87.6,121.5,85.8z"/>
		<path id="XMLID_24_" class="st5" d="M121.5,85.8V41.4H117v66.5c6.4,0,11.5-5.2,11.5-11.5C128.5,91.7,125.6,87.6,121.5,85.8z"/>
		<path id="my_XMLID_24_" class="st5 pastOpasity" d="M121.5,85.8V41.4H117v66.5c6.4,0,11.5-5.2,11.5-11.5C128.5,91.7,125.6,87.6,121.5,85.8z"/>
		<path id="XMLID_25_" class="st6" d="M110,98.8c0,0,1.2,2.8,4,4"/>
		<path id="XMLID_26_" class="st1" d="M118.4,48.6h-2.9c-0.1,0-0.2-0.1-0.2-0.2c0-0.1,0.1-0.2,0.2-0.2h2.9c0.1,0,0.2,0.1,0.2,0.2
			C118.7,48.5,118.6,48.6,118.4,48.6z"/>
		<path id="XMLID_27_" class="st1" d="M118.4,50.3h-2.9c-0.1,0-0.2-0.1-0.2-0.2s0.1-0.2,0.2-0.2h2.9c0.1,0,0.2,0.1,0.2,0.2
			S118.6,50.3,118.4,50.3z"/>
		<path id="XMLID_28_" class="st1" d="M120.2,51.9h-6.5c-0.1,0-0.2-0.1-0.2-0.2s0.1-0.2,0.2-0.2h6.5c0.1,0,0.2,0.1,0.2,0.2
			S120.3,51.9,120.2,51.9z"/>
		<path id="XMLID_29_" class="st1" d="M118.4,53.6h-2.9c-0.1,0-0.2-0.1-0.2-0.2s0.1-0.2,0.2-0.2h2.9c0.1,0,0.2,0.1,0.2,0.2
			S118.6,53.6,118.4,53.6z"/>
		<path id="XMLID_30_" class="st1" d="M118.4,55.2h-2.9c-0.1,0-0.2-0.1-0.2-0.2s0.1-0.2,0.2-0.2h2.9c0.1,0,0.2,0.1,0.2,0.2
			S118.6,55.2,118.4,55.2z"/>
		<path id="XMLID_31_" class="st1" d="M120.2,56.9h-6.5c-0.1,0-0.2-0.1-0.2-0.2s0.1-0.2,0.2-0.2h6.5c0.1,0,0.2,0.1,0.2,0.2
			S120.3,56.9,120.2,56.9z"/>
		<path id="XMLID_32_" class="st1" d="M118.4,58.5h-2.9c-0.1,0-0.2-0.1-0.2-0.2s0.1-0.2,0.2-0.2h2.9c0.1,0,0.2,0.1,0.2,0.2
			S118.6,58.5,118.4,58.5z"/>
		<path id="XMLID_33_" class="st1" d="M118.4,60.1h-2.9c-0.1,0-0.2-0.1-0.2-0.2s0.1-0.2,0.2-0.2h2.9c0.1,0,0.2,0.1,0.2,0.2
			S118.6,60.1,118.4,60.1z"/>
		<path id="XMLID_34_" class="st1" d="M120.2,61.8h-6.5c-0.1,0-0.2-0.1-0.2-0.2c0-0.1,0.1-0.2,0.2-0.2h6.5c0.1,0,0.2,0.1,0.2,0.2
			C120.4,61.7,120.3,61.8,120.2,61.8z"/>
		<path id="XMLID_35_" class="st1" d="M118.4,63.4h-2.9c-0.1,0-0.2-0.1-0.2-0.2c0-0.1,0.1-0.2,0.2-0.2h2.9c0.1,0,0.2,0.1,0.2,0.2
			C118.7,63.3,118.6,63.4,118.4,63.4z"/>
		<path id="XMLID_36_" class="st1" d="M118.4,65.1h-2.9c-0.1,0-0.2-0.1-0.2-0.2c0-0.1,0.1-0.2,0.2-0.2h2.9c0.1,0,0.2,0.1,0.2,0.2
			C118.7,65,118.6,65.1,118.4,65.1z"/>
		<path id="XMLID_37_" class="st1" d="M120.2,66.7h-6.5c-0.1,0-0.2-0.1-0.2-0.2c0-0.1,0.1-0.2,0.2-0.2h6.5c0.1,0,0.2,0.1,0.2,0.2
			C120.4,66.6,120.3,66.7,120.2,66.7z"/>
	</g>
	<path id="XMLID_38_" class="st0" d="M70.1,23.5H46.6c-1.3,0-2.4,1.1-2.4,2.4c0,1.3,1.1,2.4,2.4,2.4h23.5c1.3,0,2.3-1.1,2.3-2.4
		C72.4,24.5,71.4,23.5,70.1,23.5z"/>
	<path id="XMLID_39_" class="st7" d="M67.6,21.5H44.1c-1.3,0-2.4,1.1-2.4,2.4c0,1.3,1.1,2.4,2.4,2.4h23.5c1.3,0,2.3-1.1,2.3-2.4
		C69.9,22.6,68.9,21.5,67.6,21.5z"/>
</g>
<g id="thermometer_x5F_mask">
	<path id="XMLID_40_" class="st8" d="M121.5,85.8V41.4H112V86h0c-3.9,1.9-6.6,5.8-6.6,10.4c0,6.4,5.2,11.5,11.5,11.5
		c6.4,0,11.5-5.2,11.5-11.5C128.5,91.7,125.6,87.6,121.5,85.8z"/>
</g>
<g id="mask_x5F_test-tube">
	<path id="XMLID_41_" class="st8" d="M65.2,24.2v58c0,0.5,0.1,0.9,0.4,1.3c0.3,0.4,0.6,0.9,0.8,1.3l15.8,32.1c0,0,0,0,0,0
		c0,0,0,0,0,0l14.4,29.2c0.7,1.5,0.8,2.8,0.3,3.7c-0.5,0.9-1.8,1.4-3.4,1.4H18.2c-1.6,0-2.9-0.5-3.4-1.4c-0.5-0.9-0.4-2.2,0.3-3.7
		L29.4,117c0,0,0,0,0,0c0,0,0,0,0,0l15.8-32.1c0.2-0.4,0.5-0.9,0.8-1.3c0.3-0.4,0.4-0.9,0.4-1.3v-58H65.2L65.2,24.2z"/>
</g>
</svg>
