<?xml version="1.0" encoding="utf-8"?>
<!-- Generator: Adobe Illustrator 19.0.0, SVG Export Plug-In . SVG Version: 6.00 Build 0)  -->
<svg version="1.1" xmlns="http://www.w3.org/2000/svg" xmlns:xlink="http://www.w3.org/1999/xlink" x="0px" y="0px"
	 viewBox="0 0 315 234.5" style="enable-background:new 0 0 315 234.5;" xml:space="preserve">
<style type="text/css">
	.st0{fill:#EFEFEF;}
	.st1{fill:#DDDDDD;}
	.st2{fill:#FFFFFF;}
	.st3{fill:#FCFCFC;}
	.st4{fill:#FDED07;}
	.st5{fill:#62BA47;}
	.st6{fill-rule:evenodd;clip-rule:evenodd;fill:#FDED07;}
	.st7{fill-rule:evenodd;clip-rule:evenodd;fill:#62BA47;}
	.st8{fill:#62BA46;}
	.st9{fill:url(#SVGID_1_);}
	.st10{fill:url(#SVGID_2_);}
	.st11{fill:url(#SVGID_3_);}
	.st12{fill:url(#SVGID_4_);}
	.st13{fill:url(#SVGID_5_);}
</style>
<g id="kolba_4">
</g>
<g id="kolba_3">
</g>
<g id="kolby">
</g>
<g id="doma">
</g>
<g id="car">
</g>
<g id="butylka_3">
</g>
<g id="butylka_2">
	<g>
		<path class="st0" d="M241.3,107.6h-22.5h-9.2h-84.1h-9.1H93.7l9.7,36l0,0c0.9,3.6,6.3,6.3,12.9,6.3h102.4c7,0,12.7-3.1,13-7
			L241.3,107.6z"/>
		<path class="st1" d="M218.7,107.6h-9.2h-42v42.3h51.2c7,0,12.7-3.1,13-7l9.5-35.2H218.7z"/>
		<path class="st2" d="M113,128.8c0.6,2-0.5,4.1-2.5,4.7l0,0c-2,0.6-4.1-0.5-4.7-2.5l-3-9.6c-0.6-2,0.5-4.1,2.5-4.7l0,0
			c2-0.6,4.1,0.5,4.7,2.5L113,128.8z"/>
		<path class="st2" d="M103,82"/>
		<g>
			<polygon class="st0" points="241.2,102.4 92.7,102.4 105.6,79.2 227.4,79.2 			"/>
			<path class="st3" d="M227.4,79.2l13.8,23.2H92.7l12.9-23.2H227.4 M227.4,72.7H105.6c-2.4,0-4.6,1.3-5.7,3.4L87,99.3
				c-1.1,2-1.1,4.5,0.1,6.5c1.2,2,3.3,3.2,5.6,3.2h148.5c2.4,0,4.5-1.3,5.7-3.3c1.2-2,1.1-4.6-0.1-6.6L233,75.9
				C231.9,73.9,229.7,72.7,227.4,72.7L227.4,72.7z"/>
		</g>
	</g>
	<g>
		<ellipse class="st4" cx="169" cy="91.5" rx="13.9" ry="6.8"/>
		<ellipse class="st5" cx="157.8" cy="97.6" rx="4.4" ry="2.1"/>
		<path class="st6" d="M162.4,83.2c0,0.5-0.8,0.9-1.8,0.9s-1.8-0.4-1.8-0.9c0-0.5,0.8-0.9,1.8-0.9S162.4,82.7,162.4,83.2L162.4,83.2
			z"/>
		<path class="st7" d="M162.4,86.1c0,0.6-1,1.1-2.3,1.1c-1.3,0-2.3-0.5-2.3-1.1c0-0.6,1-1.1,2.3-1.1C161.4,85,162.4,85.5,162.4,86.1
			L162.4,86.1z"/>
		<path class="st7" d="M156.3,84.4c0,0.4-0.6,0.7-1.4,0.7c-0.8,0-1.4-0.3-1.4-0.7c0-0.4,0.6-0.7,1.4-0.7
			C155.7,83.8,156.3,84.1,156.3,84.4L156.3,84.4z"/>
		<g>
			<ellipse class="st5" cx="180.9" cy="85.3" rx="7.7" ry="3.7"/>
			<g>
				<path class="st2" d="M179,84.8c-0.6,0-0.8,0.4-0.8,0.7l0,0l0,0c0,0,0,0.1,0,0.1c0,0.1,0,0.2,0,0.3c0,0,0,0.1-0.1,0.1
					c-0.2,0-0.4-0.2-0.5-0.2c-0.2-0.2-0.3-0.4-0.3-0.6c-0.1-0.2-0.1-0.4-0.2-0.7c0-0.1,0-0.2,0-0.3c0,0,0-0.1,0-0.1c0,0,0-0.1,0-0.1
					c0.1-0.2-0.4,0-0.5,0.1c-0.5,0.4-0.4,0.9-0.3,1.4c0,0.1,0,0.3-0.1,0.4c0,0.1-0.1,0.2-0.2,0.3c-0.1,0-0.3,0-0.3,0
					c-0.1,0-0.2-0.1-0.2-0.2c0-0.1-0.2,0-0.3,0c-0.1,0.1-0.2,0.1-0.2,0.2c0.1,0.2,0.4,0.3,0.7,0.3c0.6-0.1,0.8-0.4,1-0.7
					c0.1-0.1,0.1-0.3,0.1-0.4c0.1,0.2,0.2,0.4,0.4,0.5c0.1,0.1,0.4,0.3,0.7,0.2c0.2,0,0.4-0.1,0.5-0.3c0.1,0.1,0.3,0.2,0.6,0.2
					c0.3,0,0.6-0.2,0.7-0.3c0.1-0.2,0.2-0.3,0.2-0.5C179.8,85.2,179.6,84.8,179,84.8z M179.2,85.9C179.2,85.9,179.1,85.9,179.2,85.9
					c-0.2,0.1-0.3,0-0.3,0c-0.1-0.1-0.1-0.2-0.2-0.3c0-0.1,0-0.2,0-0.4c0,0,0-0.1,0.1-0.1c0.3,0.1,0.4,0.3,0.4,0.5
					C179.2,85.6,179.2,85.8,179.2,85.9z"/>
				<path class="st2" d="M186.6,85.2c-0.7-0.1-1.1,0.3-1.2,0.6c-0.1,0.2-0.3,0.7,0.3,0.8c0.3,0.1,0.6,0,0.8-0.1
					c0.2-0.1,0.3-0.3,0.4-0.4C187.1,85.8,187.2,85.4,186.6,85.2z M186.2,86.3C186.2,86.3,186.1,86.4,186.2,86.3
					c-0.2,0-0.2-0.1-0.3-0.1c0-0.1,0-0.2,0-0.3c0-0.1,0.1-0.2,0.2-0.3c0,0,0.1-0.1,0.1-0.1c0.3,0.1,0.2,0.4,0.1,0.5
					C186.4,86.1,186.3,86.2,186.2,86.3z"/>
				<path class="st2" d="M184.7,85.3c0.1-0.1,0.2-0.2,0.4-0.3c0.3-0.2,0.5-0.4,0.5-0.6c0-0.2-0.6-0.2-0.9-0.2
					c-0.4,0.1-0.7,0.3-0.8,0.6c-0.2,0.3-0.3,0.6-0.3,0.9v0c-0.2,0.1-0.7,0.4-1,0.3c-0.1,0-0.1-0.1-0.2-0.1c0.3-0.1,0.5-0.3,0.8-0.5
					c0.2-0.2,0.3-0.4,0-0.5c-0.3-0.1-0.8,0-1,0.1c-0.2,0.1-0.3,0.3-0.4,0.5c0,0.1,0,0.2,0,0.4c-0.2,0.1-0.4,0.1-0.7,0.1
					c-0.3,0-0.4-0.2-0.4-0.3c-0.1-0.2-0.1-0.3,0-0.5c0,0,0-0.1,0.1-0.1c0,0,0,0,0,0c0.2,0,0.2,0.2,0.3,0.2c0.1,0.1,0.7-0.1,0.6-0.2
					c-0.1-0.1-0.2-0.2-0.4-0.3c-0.2-0.1-0.6,0-0.7,0.1c-0.4,0.2-0.5,0.5-0.4,0.8c0,0.2,0.1,0.4,0.4,0.5c0.4,0.1,1,0,1.4-0.1
					c0.1,0.1,0.3,0.2,0.6,0.2c0.4,0,0.8-0.1,1.1-0.3c0,0.2,0.1,0.3,0.3,0.4c0.4,0.1,0.8,0,1-0.2c0.3-0.2,0.5-0.5,0.3-0.7
					C185.1,85.3,184.9,85.3,184.7,85.3z M182.4,85.2c0,0,0.1-0.1,0.1-0.1c0,0,0,0,0,0c0.2,0,0.2,0.1,0.2,0.2c0,0.1-0.2,0.2-0.4,0.4
					c0,0,0,0,0-0.1C182.3,85.4,182.3,85.3,182.4,85.2z M184.6,84.6c0,0,0.1-0.1,0.2-0.1c0,0,0,0,0,0c0.3,0.1,0,0.3-0.1,0.5
					c-0.1,0.1-0.3,0.3-0.5,0.4c0-0.1,0.1-0.3,0.2-0.4C184.4,84.8,184.5,84.7,184.6,84.6z M184.5,86.1
					C184.5,86.1,184.4,86.1,184.5,86.1c-0.1,0.1-0.1,0.1-0.1,0c-0.2,0-0.2-0.2-0.2-0.3c0-0.1,0-0.1,0-0.2c0.1,0,0.1-0.1,0.2-0.1
					c0.2,0,0.3,0,0.3,0.1C184.7,85.8,184.6,86,184.5,86.1z"/>
			</g>
		</g>
		<path class="st2" d="M179.3,91.4c0,0-0.2,0-0.2,0c-1.3-0.1-1.9,0.6-2.2,1.1c0,0,0,0,0,0c-0.2,0.4-0.7,0.7-0.8,0.8
			c-0.1,0-0.1,0-0.2,0c0,0-0.1-0.1-0.1-0.2c-0.1-0.2-0.1-0.4-0.1-0.5c0-0.5,0.1-1,0.2-1.5c0-0.1-0.1-0.1-0.3-0.1
			c-0.3,0-0.6,0.1-0.8,0.2c-0.5,0.4-0.7,0.8-0.9,1.2c-0.1,0.2-0.2,0.4-0.3,0.6c0,0,0,0,0,0c-0.1,0-0.2-0.1-0.2-0.2c0,0,0,0-0.1-0.1
			c0,0-0.1,0-0.2,0c-0.2,0-0.4,0.1-0.5,0.1c-0.1,0-0.1,0.1-0.2,0.1c0,0-0.1,0.1-0.3,0c-0.2,0-0.4-0.1-0.5-0.2
			c-0.2-0.2-0.2-0.5-0.2-0.7c0-0.3,0.1-0.6,0.3-0.9c0,0,0,0,0.1-0.1c0,0,0,0,0.1,0c0.2,0.1,0.3,0.3,0.4,0.4c0.1,0.2,1.2-0.1,1.1-0.3
			c-0.1-0.2-0.2-0.4-0.6-0.5c-0.4-0.1-0.9,0-1.3,0.1c-0.8,0.3-1.1,0.8-1.1,1.3c0,0,0,0.1,0,0.1c-0.1,0.2-0.2,0.4-0.4,0.5
			c0,0-0.1,0.1-0.3,0.1c-0.1,0-0.1-0.1-0.2-0.2c-0.2-0.3-0.2-0.6-0.2-0.9c0-0.2,0-0.4,0.1-0.6c0-0.1,0-0.1,0-0.2c0,0,0,0,0,0
			c0-0.3-0.5-0.4-1.2-0.4c-0.7,0.1-1.1,0.3-1.4,0.6c-0.3,0.3-0.5,0.6-0.5,0.9c0,0.3,0,0.8-0.3,0.8c-0.4,0-0.7-0.3-0.8-0.5
			c-0.3-0.3-0.4-0.7-0.4-1.1c-0.1-0.6-0.2-1.2,0-1.8c0-0.1-0.2-0.1-0.4-0.1c-0.3,0.1-0.5,0.2-0.6,0.3c-0.4,0.4-0.5,0.9-0.7,1.4
			c0,0,0,0,0,0c0,0,0-0.1,0-0.1c-0.1-0.4-0.2-0.8-0.3-1.1c0-0.2-0.1-0.5,0-0.7c0.1-0.3-0.8,0-0.9,0.1c-1,0.8-0.7,1.8-0.7,2.7
			c0,0.2,0,0.5-0.1,0.7c-0.1,0.2-0.1,0.5-0.4,0.6c-0.2,0.1-0.5,0-0.6,0c-0.2-0.1-0.4-0.2-0.4-0.3c0-0.1-0.3-0.1-0.5,0
			c-0.2,0.1-0.4,0.3-0.4,0.4c0.1,0.3,0.6,0.6,1.3,0.5c1.1-0.2,1.6-0.8,1.9-1.3c0.2-0.3,0.2-0.6,0.2-0.9c0.2,0.6,0.4,1.1,0.6,1.7
			c0.1,0.3,0.9-0.2,0.9-0.3c0-0.4,0.1-0.8,0.2-1.2c0.2,0.5,0.6,1.5,1.8,1.5c0.4,0,0.7-0.2,1-0.4c0.1,0.1,0.3,0.2,0.5,0.3
			c0.5,0.1,1.1-0.1,1.4-0.3c0,0,0,0,0,0c0.1,0.1,0.2,0.2,0.3,0.2c0.7,0.2,1.4-0.1,1.8-0.3c0.1,0.1,0.2,0.2,0.3,0.3
			c0.5,0.3,1.1,0.2,1.6,0c0.5,0.4,1.6,0.2,2-0.2c0.1,0,0.1-0.1,0.1-0.1c0,0,0,0.1,0,0.1c0,0.2,0.1,0.4,0.3,0.5c0.3,0.2,0.7,0.1,1,0
			c0.3-0.1,0.5-0.2,0.8-0.4c0,0.3,0.2,0.7,0.8,0.8c0.6,0.1,1.2-0.1,1.5-0.3c0.4-0.2,0.6-0.5,0.8-0.8
			C180.1,92.4,180.3,91.7,179.3,91.4z M167.8,92.6c0,0,0,0.1-0.1,0.1c0,0-0.1,0-0.2,0c-0.2,0-0.3-0.2-0.4-0.3
			c-0.2-0.3-0.2-0.7,0-1.1c0.1-0.1,0.2-0.3,0.3-0.3c0,0,0,0,0,0c0.1,0,0.1,0,0.2,0c0.3,0,0.4,0.1,0.4,0.2
			C168,91.6,168,92.1,167.8,92.6z M178.2,93.3c0,0.1-0.1,0.1-0.2,0.1c-0.2-0.1-0.3-0.3-0.3-0.3c-0.1-0.2,0-0.5,0-0.7
			c0.1-0.2,0.2-0.4,0.4-0.6c0,0,0.1-0.1,0.2-0.1c0.5,0.2,0.3,0.8,0.3,1C178.5,92.9,178.4,93.1,178.2,93.3z"/>
		<g>
			<path class="st2" d="M155.9,97.3c0.1-0.2,0.4-0.1,0.5,0c0.1,0.1,0,0.2-0.2,0.3c-0.1,0.1-0.3,0.1-0.5,0.2c-0.1,0-0.2,0-0.2,0.1
				c0,0,0,0.1,0,0.1c0.1,0,0.4,0,0.5,0c0.3,0,0.5,0,0.8-0.1c0.1,0,0.3-0.2,0-0.1c-0.2,0-0.4,0-0.6,0c-0.1,0-0.3,0-0.4,0
				c0,0,0,0,0,0.1c-0.1,0.1,0,0,0,0c0.1,0,0.2-0.1,0.2-0.1c0.1-0.1,0.2-0.1,0.4-0.2c0.2-0.1,0.4-0.3,0.3-0.4c-0.1-0.4-1-0.1-1.1,0.1
				C155.5,97.5,155.9,97.4,155.9,97.3L155.9,97.3z"/>
			<path class="st2" d="M154.8,97.5c-0.1,0-0.5-0.2-0.2-0.3c0.1,0,0.2,0,0.3,0C155.2,97.3,155,97.4,154.8,97.5c0,0-0.4,0.1-0.2,0.2
				c0.2,0.1,0.6,0,0.6,0.2c0,0.1-0.4,0.1-0.5,0.1c-0.2-0.1-0.2-0.2,0-0.3C154.8,97.6,154.9,97.5,154.8,97.5
				c-0.4,0.1-0.6,0.2-0.6,0.4c0,0.1,0.2,0.2,0.4,0.2c0.3,0,0.6-0.1,0.8-0.2c0.2-0.1,0.1-0.3-0.2-0.3
				C155.1,97.6,154.9,97.5,154.8,97.5c0.1,0,0.3,0,0.4-0.1c0.2-0.1,0.1-0.3-0.2-0.3c-0.3,0-0.6,0.1-0.7,0.2c-0.2,0.2,0,0.3,0.3,0.4
				C154.7,97.7,155,97.5,154.8,97.5L154.8,97.5z"/>
			<path class="st2" d="M157.9,97.9c0.3,0.4,1.5,0.1,1.3-0.2c-0.1-0.2-0.5-0.2-0.8-0.2c-0.2,0-0.2-0.1-0.2-0.2c0.1-0.1,0-0.1-0.1,0
				c0,0,0.1,0,0.1,0c0.3,0,0.5,0,0.8,0c0.1,0,0.4-0.1,0.2-0.1c-0.3-0.1-0.7-0.1-1,0c-0.3,0-0.4,0.2-0.4,0.3c0,0.2,0.3,0.2,0.6,0.2
				c0.2,0,0.4,0,0.4,0.2c0,0.2-0.4,0.2-0.5,0.1c-0.1,0-0.1-0.1-0.2-0.1C158.1,97.7,157.9,97.8,157.9,97.9L157.9,97.9z"/>
			<g>
				<path class="st2" d="M160.9,97.2c-0.4,0.3-0.8,0.6-1.2,0.8c-0.2,0.1,0.1,0.1,0.2,0c0.4-0.3,0.9-0.6,1.3-0.9
					C161.3,97,161,97.1,160.9,97.2L160.9,97.2z"/>
				<path class="st2" d="M160.2,97.1c-0.2,0-0.4,0.1-0.4,0.2c0,0.1,0.1,0.2,0.3,0.2C160.5,97.5,160.7,97.1,160.2,97.1
					c-0.1,0-0.3,0.1-0.1,0.1c0.1,0,0.2,0,0.2,0.1c0,0,0,0,0,0.1c0,0,0,0,0,0c0,0,0,0-0.1,0c-0.1,0-0.2,0-0.2-0.1c0,0,0,0,0-0.1
					c0,0,0,0,0,0c0,0,0,0,0,0C160.2,97.2,160.4,97.1,160.2,97.1z"/>
				<path class="st2" d="M160.9,97.7c-0.2,0-0.4,0.1-0.4,0.2c0,0.1,0.1,0.2,0.3,0.2C161.1,98.1,161.3,97.7,160.9,97.7
					c-0.1,0-0.3,0.1-0.1,0.1c0.1,0,0.2,0,0.2,0.1c0,0,0,0,0,0.1c0,0,0,0,0,0c0,0,0,0-0.1,0c-0.1,0-0.2,0-0.2-0.1c0,0,0,0,0-0.1
					c0,0,0,0,0,0c0,0,0,0,0,0C160.8,97.8,161,97.7,160.9,97.7z"/>
			</g>
			<path class="st2" d="M157.4,98.3c0.2-0.1,0.3-0.2,0.3-0.3c0,0,0-0.1,0-0.1c-0.1,0-0.2,0-0.3,0c-0.1,0-0.2,0.1-0.2,0.1
				c0,0.1,0.1,0,0.2,0c0,0,0,0,0,0c0,0,0,0,0,0c0,0,0,0,0,0c0,0,0,0,0,0.1c0,0,0,0,0,0c0,0,0,0,0,0c0,0,0,0,0,0c0,0,0,0,0,0
				c0,0-0.1,0.1-0.1,0.1C157.2,98.3,157.3,98.3,157.4,98.3L157.4,98.3z"/>
		</g>
		<g>
			<path class="st8" d="M152.1,88.7c-0.1,0-0.1-0.1-0.2-0.1c-0.3-0.1-0.5,0-0.8,0c-0.7,0-0.9,0-1.7-0.1c0-0.3,0.4-0.5,0.6-0.8
				c0.2-0.2-0.1-0.5-0.1-0.8c0-0.2,0-0.3,0-0.5c-0.2,0.1-0.1,0.4-0.2,0.6c-0.1-0.2-0.1-0.5-0.2-0.6c-0.1,0.2,0,0.5,0,0.6
				c-0.1-0.2-0.1-0.4-0.3-0.6c-0.2,0.2,0.1,0.5,0.1,0.6c-0.1-0.2-0.2-0.4-0.4-0.5c-0.1,0.2,0.1,0.4,0.1,0.5
				c-0.1-0.1-0.2-0.3-0.4-0.4c0,0.1,0.2,0.3,0.3,0.4c-0.2,0-0.2-0.2-0.4-0.2c0,0.1,0.2,0.2,0.3,0.3c-0.1,0-0.2-0.1-0.4-0.1
				c0,0.1,0.2,0.1,0.2,0.2c-0.1,0-0.2-0.1-0.3-0.1c0,0.1,0.2,0.1,0.2,0.2c0,0-0.2,0-0.2,0c0,0,0.2,0,0.1,0.1c-0.1,0-0.1,0-0.1,0
				c0,0.1,0.1,0,0.1,0.1c0,0,0,0-0.1,0c0,0,0.1,0,0.1,0.1c-0.6,0.3-0.3,0.6-0.3,0.9c0,0-0.5-0.1-0.9-0.2c-0.2,0-0.3-0.2-0.4-0.2
				c0,0,0.1,0,0.1,0c-0.1,0-0.1,0-0.2-0.1c0.1,0,0.2,0,0.2,0c-0.1,0-0.4-0.1-0.3-0.1c0.1,0,0.3,0,0.4,0c-0.2,0-0.4-0.1-0.4-0.2
				c0.1,0,0.4,0.1,0.5,0.1c-0.2-0.1-0.6-0.2-0.6-0.2c0.2,0,0.4,0.1,0.6,0.1c-0.3,0-0.5-0.2-0.8-0.2c0.1,0.1,0.5,0.2,0.6,0.3
				c-0.2-0.1-0.4-0.1-0.7-0.2c0.1,0.1,0.4,0.2,0.6,0.3c-0.2,0-0.3-0.1-0.5-0.1c0.1,0.1,0.4,0.1,0.5,0.2c-0.1,0-0.2,0-0.4,0
				c0,0.1,0.3,0.1,0.4,0.1c-0.1,0-0.2,0-0.3,0c0.1,0,0.2,0,0.3,0.1c-0.1,0-0.2,0-0.2,0c0,0,0.2,0,0.2,0c0,0-0.1,0-0.1,0
				c0,0,0.1,0,0.1,0c0,0,0,0-0.1,0c0.3,0.1,0.5,0.3,0.9,0.4c-0.2,0.1,0.2,0.2-2.5,0.6c0.1,0,1.2-0.1,1.5-0.2c0.3-0.1,0.7-0.1,1-0.2
				c0.1,0,0.1,0,0.2,0c0.6,0,1.1,0,1.6-0.1c-0.4,0-1.1,0.1-1.4,0c0.4-0.3,0.1-1,0.4-1.1c0.3-0.1,0.7-0.6,1.3-0.2
				c0.1,0.1,0.1,0.2-0.1,0.3c-0.2,0.2-0.4,0.3-0.4,0.7c0,0.1,0,0.2-0.3,0.2c1.2,0.1,1.5,0.1,2.2,0c0.2,0,0.5-0.1,0.6,0
				c0,0-0.2,0-0.4,0c-0.3,0,0.1,0.1,0.3,0.1c0.1,0,0.7,0,1-0.1C152.4,88.7,152.3,88.7,152.1,88.7z"/>
			<path class="st8" d="M148.6,85.8c-2.7,0-4.8,1.1-4.8,2.4c0,1.3,2.2,2.4,4.8,2.4c2.7,0,4.8-1.1,4.8-2.4
				C153.5,86.8,151.3,85.8,148.6,85.8 M148.6,85.8c2.6,0,4.6,1,4.6,2.3c0,1.2-2.1,2.3-4.6,2.3s-4.6-1-4.6-2.3
				C144,86.9,146.1,85.8,148.6,85.8"/>
		</g>
	</g>
</g>
<g id="butylka_1">
</g>
<g id="vanna_2">
</g>
<g id="sneg">
</g>
<g id="vanna_1">
</g>
<g id="shariki_2">
</g>
<g id="shariki_1">
</g>
<g id="voronka">
</g>
<g id="gradusnik">
</g>
<g id="kolba_2">
</g>
<g id="probirki">
</g>
<g id="lupa">
</g>
<g id="clock">
	<g>
		
			<linearGradient id="SVGID_1_" gradientUnits="userSpaceOnUse" x1="248.5959" y1="36.231" x2="264.5833" y2="81.5289" gradientTransform="matrix(-1 0 0 1 326.1871 0)">
			<stop  offset="0" style="stop-color:#404B71"/>
			<stop  offset="0.6044" style="stop-color:#3C476E"/>
			<stop  offset="1" style="stop-color:#354169"/>
		</linearGradient>
		<path class="st9" d="M74,77.2l1.7-6.4l-1.6-2.7L74,68.9c-0.2,0.8-1.1,1.3-1.9,1.1c-0.1,0-0.3-0.1-0.4-0.2
			c-0.6-0.3-0.9-1.1-0.7-1.8l1-3.9L70,60.9l-1.9,3.3l1,3.9c0.2,0.8-0.3,1.7-1.1,1.9c-0.4,0.1-0.9,0-1.2-0.2c-0.4-0.2-0.6-0.5-0.7-1
			l-0.2-0.8l-1.6,2.7l1.7,6.4c0.2,0.8-0.3,1.7-1.1,1.9c-0.4,0.1-0.9,0-1.2-0.2c-0.4-0.2-0.6-0.5-0.7-1L62,74.7L59.5,79
			c-0.4,0.8-1.4,1-2.2,0.6c-0.8-0.4-1-1.4-0.6-2.2l2.5-4.4L56,74c-0.4,0.1-0.9,0-1.2-0.2c-0.4-0.2-0.6-0.5-0.7-1
			c-0.2-0.8,0.3-1.7,1.1-1.9l6.4-1.7l1.6-2.7l-0.8,0.2c-0.4,0.1-0.9,0-1.2-0.2c-0.4-0.2-0.6-0.5-0.7-1c-0.2-0.8,0.3-1.7,1.1-1.9
			l3.8-1l1.9-3.3h-3.8l-2.8,2.8c-0.5,0.5-1.3,0.6-1.9,0.3c-0.1-0.1-0.2-0.2-0.3-0.3c-0.6-0.6-0.6-1.6,0-2.2l0.6-0.6l-3.1,0L51.1,64
			c-0.5,0.5-1.3,0.6-1.9,0.3c-0.1-0.1-0.2-0.2-0.3-0.3c-0.6-0.6-0.6-1.6,0-2.2l2.4-2.4l-5,0c-0.3,0-0.6-0.1-0.8-0.2
			c-0.5-0.3-0.8-0.8-0.8-1.4c0-0.9,0.7-1.6,1.6-1.6h5l-2.4-2.4c-0.6-0.6-0.6-1.6,0-2.2c0.6-0.6,1.6-0.6,2.2,0l4.7,4.7H59l-0.6-0.6
			c-0.6-0.6-0.6-1.6,0-2.2c0.6-0.6,1.6-0.6,2.2,0l2.8,2.8h3.8l-1.9-3.3l-3.9-1c-0.1,0-0.3-0.1-0.4-0.2c-0.6-0.3-0.9-1.1-0.7-1.8
			c0.2-0.8,1.1-1.3,1.9-1.1l0.8,0.2l-1.6-2.7l-6.4-1.7c-0.1,0-0.3-0.1-0.4-0.2c-0.6-0.4-0.9-1.1-0.7-1.8c0.2-0.8,1.1-1.3,1.9-1.1
			l3.3,0.9L56.8,38c-0.4-0.8-0.2-1.7,0.6-2.2c0.8-0.4,1.7-0.2,2.2,0.6l2.5,4.4l0.9-3.3c0.2-0.8,1.1-1.3,1.9-1.1
			c0.8,0.2,1.4,1.1,1.1,1.9l-1.7,6.4l1.6,2.7l0.2-0.8c0.2-0.8,1.1-1.3,1.9-1.1c0.8,0.2,1.3,1.1,1.1,1.9l-1,3.9l1.9,3.3l1.9-3.3
			l-1-3.9c-0.2-0.8,0.3-1.7,1.1-1.9c0.8-0.2,1.7,0.3,1.9,1.1l0.2,0.8l1.6-2.7L74,38.2c-0.2-0.8,0.3-1.7,1.1-1.9
			c0.8-0.2,1.7,0.3,1.9,1.1l0.9,3.3l2.5-4.4c0.4-0.8,1.4-1,2.2-0.6c0.8,0.4,1,1.4,0.6,2.2l-2.5,4.4l3.3-0.9c0.8-0.2,1.7,0.3,1.9,1.1
			c0.2,0.8-0.3,1.7-1.1,1.9l-6.4,1.7l-1.6,2.7l0.8-0.2c0.8-0.2,1.7,0.3,1.9,1.1c0.2,0.8-0.3,1.7-1.1,1.9l-3.8,1l-1.9,3.3h3.8
			l2.8-2.8c0.6-0.6,1.6-0.6,2.2,0c0.6,0.6,0.6,1.6,0,2.2l-0.6,0.6h3.1l4.7-4.7c0.6-0.6,1.6-0.6,2.2,0c0.6,0.6,0.6,1.6,0,2.2
			l-2.4,2.4h5c0.9,0,1.6,0.7,1.6,1.6c0,0.9-0.7,1.6-1.6,1.6l-5,0l2.4,2.4c0.6,0.6,0.6,1.6,0,2.2c-0.5,0.5-1.3,0.6-1.9,0.3
			c-0.1-0.1-0.2-0.2-0.3-0.3l-4.7-4.7h-3.1l0.6,0.6c0.6,0.6,0.6,1.6,0,2.2c-0.5,0.5-1.3,0.6-1.9,0.3c-0.1-0.1-0.2-0.2-0.3-0.3
			l-2.8-2.8h-3.8l1.9,3.3l3.9,1c0.8,0.2,1.3,1.1,1.1,1.9c-0.2,0.8-1.1,1.3-1.9,1.1l-0.8-0.2l1.6,2.7l6.4,1.7
			c0.8,0.2,1.3,1.1,1.1,1.9c-0.2,0.8-1.1,1.3-1.9,1.1l-3.3-0.9l2.5,4.4c0.4,0.8,0.2,1.7-0.6,2.2c-0.5,0.3-1.1,0.3-1.6,0
			c-0.2-0.1-0.4-0.3-0.6-0.6L78,74.7L77.1,78c-0.2,0.8-1.1,1.3-1.9,1.1c-0.1,0-0.3-0.1-0.4-0.2C74.2,78.6,73.8,77.9,74,77.2z"/>
		
			<linearGradient id="SVGID_2_" gradientUnits="userSpaceOnUse" x1="129.9786" y1="100.0497" x2="134.8124" y2="113.7455" gradientTransform="matrix(-1 0 0 1 326.1871 0)">
			<stop  offset="0" style="stop-color:#404B71"/>
			<stop  offset="0.6044" style="stop-color:#3C476E"/>
			<stop  offset="1" style="stop-color:#354169"/>
		</linearGradient>
		<path class="st10" d="M195.1,112.4l0.5-1.9l-0.5-0.8l-0.1,0.2c-0.1,0.3-0.3,0.4-0.6,0.3c0,0-0.1,0-0.1,0c-0.2-0.1-0.3-0.3-0.2-0.5
			l0.3-1.2l-0.6-1l-0.6,1l0.3,1.2c0.1,0.3-0.1,0.5-0.3,0.6c-0.1,0-0.3,0-0.4,0c-0.1-0.1-0.2-0.2-0.2-0.3l-0.1-0.2l-0.5,0.8l0.5,1.9
			c0.1,0.3-0.1,0.5-0.3,0.6c-0.1,0-0.3,0-0.4,0c-0.1-0.1-0.2-0.2-0.2-0.3l-0.3-1l-0.8,1.3c-0.1,0.2-0.4,0.3-0.7,0.2
			c-0.2-0.1-0.3-0.4-0.2-0.7l0.8-1.3l-1,0.3c-0.1,0-0.3,0-0.4,0c-0.1-0.1-0.2-0.2-0.2-0.3c-0.1-0.3,0.1-0.5,0.3-0.6l1.9-0.5l0.5-0.8
			l-0.2,0.1c-0.1,0-0.3,0-0.4,0c-0.1-0.1-0.2-0.2-0.2-0.3c-0.1-0.3,0.1-0.5,0.3-0.6l1.2-0.3l0.6-1h-1.2l-0.9,0.9
			c-0.2,0.2-0.4,0.2-0.6,0.1c0,0-0.1,0-0.1-0.1c-0.2-0.2-0.2-0.5,0-0.7l0.2-0.2h-0.9l-1.4,1.4c-0.2,0.2-0.4,0.2-0.6,0.1
			c0,0-0.1,0-0.1-0.1c-0.2-0.2-0.2-0.5,0-0.7l0.7-0.7h-1.5c-0.1,0-0.2,0-0.2-0.1c-0.1-0.1-0.2-0.2-0.2-0.4c0-0.3,0.2-0.5,0.5-0.5
			h1.5l-0.7-0.7c-0.2-0.2-0.2-0.5,0-0.7c0.2-0.2,0.5-0.2,0.7,0l1.4,1.4h0.9l-0.2-0.2c-0.2-0.2-0.2-0.5,0-0.7c0.2-0.2,0.5-0.2,0.7,0
			l0.9,0.9h1.2l-0.6-1l-1.2-0.3c0,0-0.1,0-0.1,0c-0.2-0.1-0.3-0.3-0.2-0.5c0.1-0.3,0.3-0.4,0.6-0.3l0.2,0.1l-0.5-0.8l-1.9-0.5
			c0,0-0.1,0-0.1,0c-0.2-0.1-0.3-0.3-0.2-0.5c0.1-0.3,0.3-0.4,0.6-0.3l1,0.3l-0.8-1.3c-0.1-0.2-0.1-0.5,0.2-0.7
			c0.2-0.1,0.5-0.1,0.7,0.2l0.8,1.3l0.3-1c0.1-0.3,0.3-0.4,0.6-0.3c0.3,0.1,0.4,0.3,0.3,0.6l-0.5,1.9l0.5,0.8l0.1-0.2
			c0.1-0.3,0.3-0.4,0.6-0.3c0.3,0.1,0.4,0.3,0.3,0.6l-0.3,1.2l0.6,1l0.6-1l-0.3-1.2c-0.1-0.3,0.1-0.5,0.3-0.6
			c0.3-0.1,0.5,0.1,0.6,0.3l0.1,0.2l0.5-0.8l-0.5-1.9c-0.1-0.3,0.1-0.5,0.3-0.6c0.3-0.1,0.5,0.1,0.6,0.3l0.3,1l0.8-1.3
			c0.1-0.2,0.4-0.3,0.7-0.2c0.2,0.1,0.3,0.4,0.2,0.7l-0.8,1.3l1-0.3c0.3-0.1,0.5,0.1,0.6,0.3c0.1,0.3-0.1,0.5-0.3,0.6l-1.9,0.5
			l-0.5,0.8l0.2-0.1c0.3-0.1,0.5,0.1,0.6,0.3c0.1,0.3-0.1,0.5-0.3,0.6l-1.2,0.3l-0.6,1h1.2l0.9-0.9c0.2-0.2,0.5-0.2,0.7,0
			c0.2,0.2,0.2,0.5,0,0.7l-0.2,0.2h0.9l1.4-1.4c0.2-0.2,0.5-0.2,0.7,0c0.2,0.2,0.2,0.5,0,0.7l-0.7,0.7h1.5c0.3,0,0.5,0.2,0.5,0.5
			c0,0.3-0.2,0.5-0.5,0.5h-1.5l0.7,0.7c0.2,0.2,0.2,0.5,0,0.7c-0.2,0.2-0.4,0.2-0.6,0.1c0,0-0.1,0-0.1-0.1l-1.4-1.4h-0.9l0.2,0.2
			c0.2,0.2,0.2,0.5,0,0.7c-0.2,0.2-0.4,0.2-0.6,0.1c0,0-0.1,0-0.1-0.1l-0.9-0.9h-1.2l0.6,1l1.2,0.3c0.3,0.1,0.4,0.3,0.3,0.6
			c-0.1,0.3-0.3,0.4-0.6,0.3l-0.2-0.1l0.5,0.8l1.9,0.5c0.3,0.1,0.4,0.3,0.3,0.6c-0.1,0.3-0.3,0.4-0.6,0.3l-1-0.3l0.8,1.3
			c0.1,0.2,0.1,0.5-0.2,0.7c-0.2,0.1-0.3,0.1-0.5,0c-0.1,0-0.1-0.1-0.2-0.2l-0.8-1.3l-0.3,1c-0.1,0.3-0.3,0.4-0.6,0.3
			c0,0-0.1,0-0.1,0C195.2,112.9,195.1,112.6,195.1,112.4z"/>
		
			<linearGradient id="SVGID_3_" gradientUnits="userSpaceOnUse" x1="65.0889" y1="124.6101" x2="75.5091" y2="154.1342" gradientTransform="matrix(-1 0 0 1 326.1871 0)">
			<stop  offset="0" style="stop-color:#404B71"/>
			<stop  offset="0.6044" style="stop-color:#3C476E"/>
			<stop  offset="1" style="stop-color:#354169"/>
		</linearGradient>
		<path class="st11" d="M258.8,151.3l1.1-4.2l-1-1.8l-0.1,0.5c-0.1,0.6-0.7,0.9-1.3,0.7c-0.1,0-0.2-0.1-0.2-0.1
			c-0.4-0.2-0.6-0.7-0.5-1.2l0.7-2.5l-1.2-2.2l-1.2,2.2l0.7,2.5c0.1,0.6-0.2,1.1-0.7,1.3c-0.3,0.1-0.6,0-0.8-0.1
			c-0.2-0.1-0.4-0.4-0.5-0.6l-0.1-0.5l-1,1.8l1.1,4.2c0.1,0.6-0.2,1.1-0.7,1.3c-0.3,0.1-0.6,0-0.8-0.1c-0.2-0.1-0.4-0.4-0.5-0.6
			l-0.6-2.2l-1.6,2.8c-0.3,0.5-0.9,0.7-1.4,0.4c-0.5-0.3-0.7-0.9-0.4-1.4l1.6-2.8l-2.2,0.6c-0.3,0.1-0.6,0-0.8-0.1
			c-0.2-0.1-0.4-0.4-0.5-0.6c-0.1-0.6,0.2-1.1,0.7-1.3l4.2-1.1l1-1.8l-0.5,0.1c-0.3,0.1-0.6,0-0.8-0.1c-0.2-0.1-0.4-0.4-0.5-0.6
			c-0.1-0.6,0.2-1.1,0.7-1.3l2.5-0.7l1.2-2.2h-2.5l-1.8,1.8c-0.3,0.3-0.9,0.4-1.2,0.2c-0.1,0-0.1-0.1-0.2-0.2
			c-0.4-0.4-0.4-1.1,0-1.5l0.4-0.4l-2,0l-3,3c-0.3,0.3-0.9,0.4-1.2,0.2c-0.1,0-0.1-0.1-0.2-0.2c-0.4-0.4-0.4-1.1,0-1.5l1.6-1.6
			l-3.3,0c-0.2,0-0.4,0-0.5-0.1c-0.3-0.2-0.5-0.5-0.5-0.9c0-0.6,0.5-1,1-1h3.3l-1.6-1.6c-0.4-0.4-0.4-1.1,0-1.5
			c0.4-0.4,1.1-0.4,1.5,0l3,3h2l-0.4-0.4c-0.4-0.4-0.4-1.1,0-1.5c0.4-0.4,1.1-0.4,1.5,0l1.8,1.8h2.5l-1.2-2.2l-2.5-0.7
			c-0.1,0-0.2-0.1-0.2-0.1c-0.4-0.2-0.6-0.7-0.5-1.2c0.1-0.6,0.7-0.9,1.3-0.7l0.5,0.1l-1-1.8l-4.2-1.1c-0.1,0-0.2-0.1-0.2-0.1
			c-0.4-0.2-0.6-0.7-0.5-1.2c0.1-0.6,0.7-0.9,1.3-0.7l2.2,0.6l-1.6-2.8c-0.3-0.5-0.1-1.1,0.4-1.4c0.5-0.3,1.1-0.1,1.4,0.4l1.6,2.8
			l0.6-2.2c0.1-0.6,0.7-0.9,1.3-0.7c0.5,0.1,0.9,0.7,0.7,1.3l-1.1,4.2l1,1.8l0.1-0.5c0.1-0.6,0.7-0.9,1.3-0.7
			c0.6,0.2,0.9,0.7,0.7,1.3l-0.7,2.5l1.2,2.2l1.2-2.2l-0.7-2.5c-0.1-0.6,0.2-1.1,0.7-1.3c0.6-0.1,1.1,0.2,1.3,0.7l0.1,0.5l1-1.8
			l-1.1-4.2c-0.1-0.6,0.2-1.1,0.7-1.3c0.6-0.1,1.1,0.2,1.3,0.7l0.6,2.2l1.6-2.8c0.3-0.5,0.9-0.7,1.4-0.4c0.5,0.3,0.7,0.9,0.4,1.4
			l-1.6,2.8l2.2-0.6c0.6-0.1,1.1,0.2,1.3,0.7c0.1,0.6-0.2,1.1-0.7,1.3l-4.2,1.1l-1,1.8l0.5-0.1c0.6-0.1,1.1,0.2,1.3,0.7
			c0.1,0.6-0.2,1.1-0.7,1.3l-2.5,0.7l-1.2,2.2h2.5l1.8-1.8c0.4-0.4,1.1-0.4,1.5,0c0.4,0.4,0.4,1.1,0,1.5l-0.4,0.4h2l3-3
			c0.4-0.4,1.1-0.4,1.5,0c0.4,0.4,0.4,1.1,0,1.5l-1.6,1.6h3.3c0.6,0,1,0.5,1,1c0,0.6-0.5,1-1,1l-3.3,0l1.6,1.6
			c0.4,0.4,0.4,1.1,0,1.5c-0.3,0.3-0.9,0.4-1.2,0.2c-0.1,0-0.1-0.1-0.2-0.2l-3-3h-2l0.4,0.4c0.4,0.4,0.4,1.1,0,1.5
			c-0.3,0.3-0.9,0.4-1.2,0.2c-0.1,0-0.2-0.1-0.2-0.2l-1.8-1.8h-2.5l1.2,2.2l2.5,0.7c0.5,0.2,0.9,0.7,0.7,1.3
			c-0.1,0.6-0.7,0.9-1.3,0.7l-0.5-0.1l1,1.8l4.2,1.1c0.5,0.2,0.9,0.7,0.7,1.3c-0.1,0.6-0.7,0.9-1.3,0.7l-2.2-0.6l1.6,2.8
			c0.3,0.5,0.1,1.1-0.4,1.4c-0.3,0.2-0.7,0.2-1,0c-0.2-0.1-0.3-0.2-0.4-0.4l-1.6-2.8l-0.6,2.2c-0.1,0.6-0.7,0.9-1.3,0.7
			c-0.1,0-0.2-0.1-0.3-0.1C258.9,152.2,258.6,151.8,258.8,151.3z"/>
		
			<linearGradient id="SVGID_4_" gradientUnits="userSpaceOnUse" x1="182.1375" y1="127.0033" x2="211.2358" y2="195.1056" gradientTransform="matrix(-1 0 0 1 326.1871 0)">
			<stop  offset="0" style="stop-color:#404B71"/>
			<stop  offset="0.6044" style="stop-color:#3C476E"/>
			<stop  offset="1" style="stop-color:#354169"/>
		</linearGradient>
		<path class="st12" d="M94.6,159.5c0,0.7,0.4,1.4,1,1.7c0.3,0.2,0.6,0.3,1,0.3h6.3l-3,3c-0.8,0.8-0.8,2,0,2.8
			c0.1,0.1,0.3,0.2,0.4,0.3c0.8,0.4,1.8,0.3,2.4-0.3l5.9-5.9h3.9l-1.7,1.7c-0.8,0.8-0.8,2,0,2.8c0.1,0.1,0.3,0.2,0.4,0.3
			c0.8,0.4,1.8,0.3,2.4-0.3l4.6-4.6h3.8l-0.1,0.1c-0.8,0.8-0.8,2,0,2.8c0.2,0.5,0.5,0.8,0.9,1.1c0.4,0.3,1,0.3,1.5,0.2l0.2,0
			l-1.9,3.3l-6.2,1.7c-1.1,0.3-1.7,1.4-1.4,2.4c0.1,0.5,0.5,1,0.9,1.2c0.4,0.3,1,0.3,1.5,0.2l2.4-0.6l-2,3.4l-8,2.1
			c-1.1,0.3-1.7,1.4-1.4,2.4c0.1,0.5,0.5,1,0.9,1.2c0.4,0.3,1,0.3,1.5,0.2l4.2-1.1l-3.2,5.5c-0.5,1-0.2,2.2,0.7,2.7
			c1,0.5,2.2,0.2,2.7-0.7l3.2-5.5l1.1,4.2c0.1,0.5,0.5,1,0.9,1.2c0.4,0.3,1,0.3,1.5,0.2c1.1-0.3,1.7-1.4,1.4-2.4l-2.1-8l2-3.4
			l0.6,2.4c0.1,0.5,0.5,1,0.9,1.2c0.4,0.3,1,0.3,1.5,0.2c1.1-0.3,1.7-1.4,1.4-2.4l-1.7-6.2l1.9-3.3l0,0.2c0.1,0.5,0.5,1,0.9,1.2
			c0.4,0.2,0.9,0.3,1.4,0.2c1,0.2,2.1-0.4,2.4-1.4l0-0.2l1.9,3.3l-1.7,6.2c-0.2,0.9,0.2,1.8,0.9,2.2c0.1,0.1,0.3,0.2,0.5,0.2
			c1.1,0.3,2.2-0.3,2.4-1.4l0.6-2.4l2,3.4l-2.1,8c-0.2,0.9,0.2,1.8,0.9,2.2c0.1,0.1,0.3,0.2,0.5,0.2c1.1,0.3,2.2-0.3,2.4-1.4
			l1.1-4.2l3.2,5.5c0.2,0.3,0.4,0.6,0.7,0.7c0.6,0.3,1.4,0.4,2,0c1-0.5,1.3-1.8,0.7-2.7l-3.2-5.5l4.2,1.1c1.1,0.3,2.2-0.3,2.4-1.4
			c0.3-1.1-0.4-2.1-1.4-2.4l-8-2.1l-2-3.4l2.4,0.6c1.1,0.3,2.2-0.3,2.4-1.4c0.3-1.1-0.4-2.2-1.4-2.4l-6.2-1.7l-1.9-3.3l0.2,0
			c1,0.3,2.1-0.3,2.4-1.3c0.7-0.8,0.7-2-0.1-2.7l-0.1-0.1l3.8,0l4.6,4.6c0.1,0.1,0.3,0.2,0.4,0.3c0.8,0.4,1.8,0.3,2.4-0.3
			c0.8-0.8,0.8-2,0-2.8l-1.7-1.7l3.9,0l5.9,5.9c0.1,0.1,0.3,0.2,0.4,0.3c0.8,0.4,1.8,0.3,2.4-0.3c0.8-0.8,0.8-2,0-2.8l-3-3l6.3,0
			c1.1,0,2-0.9,2-2c0-1.1-0.9-2-2-2h-6.3l3-3c0.8-0.8,0.8-2,0-2.8c-0.8-0.8-2-0.8-2.8,0l-5.9,5.9l-3.9,0l1.7-1.7
			c0.8-0.8,0.8-2,0-2.8c-0.8-0.8-2-0.8-2.8,0l-4.6,4.6l-3.8,0l0.1-0.1c0.8-0.8,0.8-2,0-2.8c-0.3-1-1.4-1.5-2.4-1.3l-0.2,0l1.9-3.3
			l6.2-1.7c1.1-0.3,1.7-1.4,1.4-2.4c-0.3-1.1-1.4-1.7-2.4-1.4l-2.4,0.6l2-3.4l8-2.1c1.1-0.3,1.7-1.4,1.4-2.4
			c-0.3-1.1-1.4-1.7-2.4-1.4l-4.2,1.1l3.2-5.5c0.5-1,0.2-2.2-0.7-2.7c-1-0.5-2.2-0.2-2.7,0.7l-3.2,5.5l-1.1-4.2
			c-0.3-1.1-1.4-1.7-2.4-1.4c-1.1,0.3-1.7,1.4-1.4,2.4l2.1,8l-2,3.4l-0.6-2.4c-0.3-1.1-1.4-1.7-2.4-1.4c-1.1,0.3-1.7,1.4-1.4,2.4
			l1.7,6.2l-1.9,3.3l0-0.2c-0.3-1-1.3-1.6-2.3-1.4c-1-0.2-2.1,0.4-2.4,1.4l0,0.2l-1.9-3.3l1.7-6.2c0.3-1.1-0.4-2.2-1.4-2.4
			c-1.1-0.3-2.2,0.3-2.4,1.4l-0.6,2.4l-2-3.4l2.1-8c0.3-1.1-0.4-2.1-1.4-2.4c-1.1-0.3-2.2,0.3-2.4,1.4l-1.1,4.2l-3.2-5.5
			c-0.6-1-1.8-1.3-2.7-0.7c-1,0.5-1.3,1.8-0.7,2.7l3.2,5.5l-4.2-1.1c-1.1-0.3-2.2,0.3-2.4,1.4c-0.2,0.9,0.2,1.8,0.9,2.2
			c0.1,0.1,0.3,0.2,0.5,0.2l8,2.1l2,3.4l-2.4-0.6c-1.1-0.3-2.2,0.3-2.4,1.4c-0.2,0.9,0.2,1.8,0.9,2.2c0.1,0.1,0.3,0.2,0.5,0.2
			l6.2,1.7l1.9,3.3l-0.2,0c-1-0.3-2.1,0.3-2.4,1.3c-0.7,0.8-0.7,2,0.1,2.7l0.1,0.1h-3.8l-4.6-4.6c-0.8-0.8-2-0.8-2.8,0
			c-0.8,0.8-0.8,2,0,2.8l1.7,1.7l-3.9,0l-5.9-5.9c-0.8-0.8-2-0.8-2.8,0c-0.8,0.8-0.8,2,0,2.8l3,3l-6.3,0
			C95.5,157.5,94.6,158.4,94.6,159.5z M128,158.2c0.7-1.2,2.3-1.6,3.5-0.9c1.2,0.7,1.6,2.3,0.9,3.5c-0.7,1.2-2.3,1.6-3.5,0.9
			C127.7,161,127.3,159.5,128,158.2z"/>
		
			<linearGradient id="SVGID_5_" gradientUnits="userSpaceOnUse" x1="141.6031" y1="42.614" x2="153.625" y2="70.7562" gradientTransform="matrix(-1 0 0 1 326.1871 0)">
			<stop  offset="0" style="stop-color:#404B71"/>
			<stop  offset="0.6044" style="stop-color:#3C476E"/>
			<stop  offset="1" style="stop-color:#354169"/>
		</linearGradient>
		<path class="st13" d="M162.4,57.7c0,0.4,0.3,0.7,0.7,0.7h1l-0.4,0.5c-0.2,0.3-0.1,0.8,0.2,1c0.1,0.1,0.3,0.1,0.4,0.1
			c0.2,0,0.5-0.1,0.6-0.3l0.9-1.3h1.5l-2,2.8c-0.2,0.3-0.1,0.8,0.2,1c0.1,0.1,0.3,0.1,0.4,0.1c0.2,0,0.5-0.1,0.6-0.3l2.6-3.7h1.3
			l-1.2,1.7c-0.2,0.3-0.1,0.8,0.2,1c0.1,0.1,0.3,0.1,0.4,0.1c0.2,0,0.5-0.1,0.6-0.3l1.7-2.5h0.9l-0.4,0.5c-0.2,0.3-0.1,0.8,0.2,1
			c0.1,0.1,0.3,0.1,0.4,0.1c0.2,0,0.5-0.1,0.6-0.3l0.9-1.3h0.3l0.8,1.5l-0.2,0.3l-1.6,0.1c-0.4,0-0.7,0.4-0.7,0.8
			c0,0.4,0.4,0.7,0.7,0.7c0,0,0,0,0.1,0l0.6-0.1l-0.4,0.8l-3,0.3c-0.4,0-0.7,0.4-0.7,0.8c0,0.4,0.4,0.7,0.7,0.7c0,0,0,0,0.1,0l2-0.2
			l-0.7,1.1l-4.5,0.4c-0.4,0-0.7,0.4-0.7,0.8c0,0.4,0.4,0.7,0.7,0.7c0,0,0,0,0.1,0l3.4-0.3l-0.7,1.3l-1.6,0.1
			c-0.4,0-0.7,0.4-0.7,0.8c0,0.4,0.4,0.7,0.7,0.7c0,0,0,0,0.1,0l0.6-0.1l-0.5,0.9c-0.2,0.3-0.1,0.8,0.3,1c0.1,0.1,0.2,0.1,0.4,0.1
			c0.3,0,0.5-0.1,0.6-0.4l0.5-0.9l0.3,0.6c0.1,0.3,0.4,0.4,0.7,0.4c0.1,0,0.2,0,0.3-0.1c0.4-0.2,0.5-0.6,0.4-1l-0.7-1.5l0.7-1.3
			l1.5,3.1c0.1,0.3,0.4,0.4,0.7,0.4c0.1,0,0.2,0,0.3-0.1c0.4-0.2,0.5-0.6,0.4-1l-1.9-4.1l0.7-1.1l0.9,1.8c0.1,0.3,0.4,0.4,0.7,0.4
			c0.1,0,0.2,0,0.3-0.1c0.4-0.2,0.5-0.6,0.4-1l-1.3-2.8l0.4-0.8l0.3,0.6c0.1,0.3,0.4,0.4,0.7,0.4c0.1,0,0.2,0,0.3-0.1
			c0.4-0.2,0.5-0.6,0.4-1l-0.7-1.5l0.2-0.3h1.7l0.2,0.3l-0.7,1.5c-0.2,0.4,0,0.8,0.4,1c0.1,0,0.2,0.1,0.3,0.1c0.3,0,0.5-0.2,0.7-0.4
			l0.3-0.6l0.4,0.8l-1.3,2.8c-0.2,0.4,0,0.8,0.4,1c0.1,0,0.2,0.1,0.3,0.1c0.3,0,0.5-0.2,0.7-0.4l0.9-1.8l0.7,1.1l-1.9,4.1
			c-0.2,0.4,0,0.8,0.4,1c0.1,0,0.2,0.1,0.3,0.1c0.3,0,0.5-0.2,0.7-0.4l1.5-3.1l0.7,1.3l-0.7,1.5c-0.2,0.4,0,0.8,0.4,1
			c0.1,0,0.2,0.1,0.3,0.1c0.3,0,0.5-0.2,0.7-0.4l0.3-0.6l0.5,0.9c0.1,0.2,0.4,0.4,0.6,0.4c0.1,0,0.2,0,0.4-0.1
			c0.3-0.2,0.5-0.6,0.3-1l-0.5-0.9l0.6,0.1c0,0,0,0,0.1,0c0.4,0,0.7-0.3,0.7-0.7c0-0.4-0.3-0.8-0.7-0.8l-1.6-0.1l-0.7-1.3l3.4,0.3
			c0,0,0,0,0.1,0c0.4,0,0.7-0.3,0.7-0.7c0-0.4-0.3-0.8-0.7-0.8l-4.5-0.4l-0.7-1.1l2,0.2c0,0,0,0,0.1,0c0.4,0,0.7-0.3,0.7-0.7
			c0-0.4-0.3-0.8-0.7-0.8l-3-0.3l-0.4-0.8l0.6,0.1c0,0,0,0,0.1,0c0.4,0,0.7-0.3,0.7-0.7c0-0.4-0.3-0.8-0.7-0.8l-1.6-0.1l-0.2-0.3
			l0.8-1.5h0.3l0.9,1.3c0.1,0.2,0.4,0.3,0.6,0.3c0.1,0,0.3,0,0.4-0.1c0.3-0.2,0.4-0.7,0.2-1l-0.4-0.5h0.9l1.7,2.5
			c0.1,0.2,0.4,0.3,0.6,0.3c0.1,0,0.3,0,0.4-0.1c0.3-0.2,0.4-0.7,0.2-1l-1.2-1.7h1.3l2.6,3.7c0.1,0.2,0.4,0.3,0.6,0.3
			c0.1,0,0.3,0,0.4-0.1c0.3-0.2,0.4-0.7,0.2-1l-2-2.8h1.5l0.9,1.3c0.1,0.2,0.4,0.3,0.6,0.3c0.1,0,0.3,0,0.4-0.1
			c0.3-0.2,0.4-0.7,0.2-1l-0.4-0.5h1c0.4,0,0.7-0.3,0.7-0.7c0-0.4-0.3-0.7-0.7-0.7h-1l0.4-0.5c0.2-0.3,0.1-0.8-0.2-1
			c-0.3-0.2-0.8-0.1-1,0.2l-0.9,1.3h-1.5l2-2.8c0.2-0.3,0.1-0.8-0.2-1c-0.3-0.2-0.8-0.1-1,0.2l-2.6,3.7h-1.3l1.2-1.7
			c0.2-0.3,0.1-0.8-0.2-1s-0.8-0.1-1,0.2l-1.7,2.5h-0.9l0.4-0.5c0.2-0.3,0.1-0.8-0.2-1c-0.3-0.2-0.8-0.1-1,0.2l-0.9,1.3h-0.3
			l-0.8-1.5l0.2-0.3l1.6-0.1c0.4,0,0.7-0.4,0.7-0.8c0-0.4-0.4-0.7-0.8-0.7l-0.6,0.1l0.4-0.8l3-0.3c0.4,0,0.7-0.4,0.7-0.8
			c0-0.4-0.4-0.7-0.8-0.7l-2,0.2l0.7-1.1l4.5-0.4c0.4,0,0.7-0.4,0.7-0.8c0-0.4-0.4-0.7-0.8-0.7l-3.4,0.3l0.7-1.3l1.6-0.1
			c0.4,0,0.7-0.4,0.7-0.8c0-0.4-0.4-0.7-0.8-0.7l-0.6,0.1l0.5-0.9c0.2-0.3,0.1-0.8-0.3-1c-0.3-0.2-0.8-0.1-1,0.3l-0.5,0.9l-0.3-0.6
			c-0.2-0.4-0.6-0.5-1-0.4c-0.4,0.2-0.5,0.6-0.4,1l0.7,1.5l-0.7,1.3l-1.5-3.1c-0.2-0.4-0.6-0.5-1-0.4c-0.4,0.2-0.5,0.6-0.4,1
			l1.9,4.1l-0.7,1.1l-0.9-1.8c-0.2-0.4-0.6-0.5-1-0.3c-0.4,0.2-0.5,0.6-0.4,1l1.3,2.8L180,53l-0.3-0.6c-0.2-0.4-0.6-0.5-1-0.3
			c-0.4,0.2-0.5,0.6-0.4,1l0.7,1.5l-0.2,0.3h-1.7l-0.2-0.3l0.7-1.5c0.2-0.4,0-0.8-0.4-1c-0.4-0.2-0.8,0-1,0.3l-0.3,0.6l-0.4-0.8
			l1.3-2.8c0.2-0.4,0-0.8-0.4-1c-0.4-0.2-0.8,0-1,0.4l-0.9,1.8l-0.7-1.1l1.9-4.1c0.2-0.4,0-0.8-0.4-1c-0.4-0.2-0.8,0-1,0.3l-1.5,3.1
			l-0.7-1.3l0.7-1.5c0.2-0.4,0-0.8-0.4-1c-0.4-0.2-0.8,0-1,0.4l-0.3,0.6l-0.5-0.9c-0.2-0.3-0.6-0.5-1-0.3c-0.3,0.2-0.5,0.6-0.3,1
			l0.5,0.9l-0.6-0.1c-0.4,0-0.8,0.3-0.8,0.7c0,0.4,0.3,0.8,0.7,0.8l1.6,0.1l0.7,1.3l-3.4-0.3c-0.4,0-0.8,0.3-0.8,0.7
			c0,0.4,0.3,0.8,0.7,0.8l4.5,0.4l0.7,1.1l-2-0.2c-0.4,0-0.8,0.3-0.8,0.7c0,0.4,0.3,0.8,0.7,0.8l3,0.3l0.4,0.8l-0.6-0.1
			c-0.4,0-0.8,0.3-0.8,0.7c0,0.4,0.3,0.8,0.7,0.8l1.6,0.1l0.2,0.3l-0.8,1.5h-0.3l-0.9-1.3c-0.2-0.3-0.7-0.4-1-0.2
			c-0.3,0.2-0.4,0.7-0.2,1l0.4,0.5h-0.9l-1.7-2.5c-0.2-0.3-0.7-0.4-1-0.2c-0.3,0.2-0.4,0.7-0.2,1l1.2,1.7h-1.3l-2.6-3.7
			c-0.2-0.3-0.7-0.4-1-0.2c-0.3,0.2-0.4,0.7-0.2,1l2,2.8h-1.5l-0.9-1.3c-0.2-0.3-0.7-0.4-1-0.2c-0.3,0.2-0.4,0.7-0.2,1l0.4,0.5h-1
			C162.7,57,162.4,57.3,162.4,57.7z M177.3,59.2l-0.8-1.5l0.8-1.5h1.7l0.8,1.5l-0.8,1.5H177.3z"/>
		<circle class="st2" cx="150.4" cy="39" r="3.4"/>
		<circle class="st2" cx="276.1" cy="103.3" r="3.4"/>
		<circle class="st2" cx="271.1" cy="116.4" r="1.5"/>
		<circle class="st2" cx="282.9" cy="124.2" r="1.5"/>
		<circle class="st2" cx="162.4" cy="35.6" r="1.5"/>
		<circle class="st2" cx="134.8" cy="71.5" r="3.8"/>
		<circle class="st2" cx="105.8" cy="195.2" r="3.8"/>
		<circle class="st2" cx="113.9" cy="81.3" r="2.8"/>
		<circle class="st2" cx="119.3" cy="89.8" r="1.5"/>
		<circle class="st2" cx="145.4" cy="79.8" r="1.5"/>
		<circle class="st2" cx="65.9" cy="103.3" r="1.5"/>
		<circle class="st2" cx="96.8" cy="81.3" r="1.5"/>
		<circle class="st2" cx="102.8" cy="92.9" r="1.5"/>
		<circle class="st2" cx="104.3" cy="81.2" r="1.5"/>
		<circle class="st2" cx="96.8" cy="71.5" r="1.5"/>
		<circle class="st2" cx="56.6" cy="82.9" r="1.5"/>
		<circle class="st2" cx="52.1" cy="76.8" r="1.5"/>
		<circle class="st2" cx="99.8" cy="186.7" r="1.5"/>
		<circle class="st2" cx="88.5" cy="185.2" r="1.5"/>
		<circle class="st2" cx="95.3" cy="193.7" r="1.5"/>
		<circle class="st2" cx="127.3" cy="70" r="1.5"/>
		<circle class="st2" cx="120.8" cy="76.8" r="1.5"/>
	</g>
</g>
</svg>
