<?xml version="1.0" encoding="utf-8"?>
<!-- Generator: Adobe Illustrator 19.0.0, SVG Export Plug-In . SVG Version: 6.00 Build 0)  -->
<svg version="1.1" xmlns="http://www.w3.org/2000/svg" xmlns:xlink="http://www.w3.org/1999/xlink" x="0px" y="0px"
	 viewBox="0 0 259.5 184.5" style="enable-background:new 0 0 259.5 184.5;" xml:space="preserve">
<style type="text/css">
	.st0{fill:#EFEFEF;}
	.st1{fill:#DDDDDD;}
	.st2{fill:#FFFFFF;}
	.st3{fill:#FCFCFC;}
	.st4{fill:#FDED07;}
	.st5{fill:#62BA47;}
	.st6{fill-rule:evenodd;clip-rule:evenodd;fill:#FDED07;}
	.st7{fill-rule:evenodd;clip-rule:evenodd;fill:#62BA47;}
	.st8{fill:#62BA46;}
</style>
<g id="kolba_4">
</g>
<g id="kolba_3">
</g>
<g id="kolby">
</g>
<g id="doma">
</g>
<g id="car">
</g>
<g id="butylka_3">
</g>
<g id="butylka_2">
	<g>
		<path class="st0" d="M206.8,95.1h-22.5H175H91h-9.1H59.2l9.7,36l0,0c0.9,3.6,6.3,6.3,12.9,6.3h102.4c7,0,12.7-3.1,13-7L206.8,95.1
			z"/>
		<path class="st1" d="M184.2,95.1H175h-42v42.3h51.2c7,0,12.7-3.1,13-7l9.5-35.2H184.2z"/>
		<path class="st2" d="M78.5,116.3c0.6,2-0.5,4.1-2.5,4.7l0,0c-2,0.6-4.1-0.5-4.7-2.5l-3-9.6c-0.6-2,0.5-4.1,2.5-4.7l0,0
			c2-0.6,4.1,0.5,4.7,2.5L78.5,116.3z"/>
		<path class="st2" d="M68.5,69.5"/>
		<g>
			<polygon class="st0" points="206.7,89.9 58.2,89.9 71.1,66.7 192.9,66.7 			"/>
			<path class="st3" d="M192.9,66.7l13.8,23.2H58.2l12.9-23.2H192.9 M192.9,60.2H71.1c-2.4,0-4.6,1.3-5.7,3.4L52.5,86.8
				c-1.1,2-1.1,4.5,0.1,6.5c1.2,2,3.3,3.2,5.6,3.2h148.5c2.4,0,4.5-1.3,5.7-3.3c1.2-2,1.1-4.6-0.1-6.6l-13.8-23.2
				C197.4,61.4,195.2,60.2,192.9,60.2L192.9,60.2z"/>
		</g>
	</g>
	<g>
		<ellipse class="st4" cx="134.5" cy="79" rx="13.9" ry="6.8"/>
		<ellipse class="st5" cx="123.3" cy="85.1" rx="4.4" ry="2.1"/>
		<path class="st6" d="M127.9,70.7c0,0.5-0.8,0.9-1.8,0.9c-1,0-1.8-0.4-1.8-0.9c0-0.5,0.8-0.9,1.8-0.9
			C127.1,69.8,127.9,70.2,127.9,70.7L127.9,70.7z"/>
		<path class="st7" d="M127.9,73.6c0,0.6-1,1.1-2.3,1.1c-1.3,0-2.3-0.5-2.3-1.1c0-0.6,1-1.1,2.3-1.1C126.9,72.5,127.9,73,127.9,73.6
			L127.9,73.6z"/>
		<path class="st7" d="M121.8,71.9c0,0.4-0.6,0.7-1.4,0.7c-0.8,0-1.4-0.3-1.4-0.7c0-0.4,0.6-0.7,1.4-0.7
			C121.2,71.2,121.8,71.5,121.8,71.9L121.8,71.9z"/>
		<g>
			<ellipse class="st5" cx="146.4" cy="72.8" rx="7.7" ry="3.7"/>
			<g>
				<path class="st2" d="M144.5,72.3c-0.6,0-0.8,0.4-0.8,0.7l0,0l0,0c0,0,0,0.1,0,0.1c0,0.1,0,0.2,0,0.3c0,0,0,0.1-0.1,0.1
					c-0.2,0-0.4-0.2-0.5-0.2c-0.2-0.2-0.3-0.4-0.3-0.6c-0.1-0.2-0.1-0.4-0.2-0.7c0-0.1,0-0.2,0-0.3c0,0,0-0.1,0-0.1c0,0,0-0.1,0-0.1
					c0.1-0.2-0.4,0-0.5,0.1c-0.5,0.4-0.4,0.9-0.3,1.4c0,0.1,0,0.3-0.1,0.4c0,0.1-0.1,0.2-0.2,0.3c-0.1,0-0.3,0-0.3,0
					c-0.1,0-0.2-0.1-0.2-0.2c0-0.1-0.2,0-0.3,0c-0.1,0.1-0.2,0.1-0.2,0.2c0.1,0.2,0.4,0.3,0.7,0.3c0.6-0.1,0.8-0.4,1-0.7
					c0.1-0.1,0.1-0.3,0.1-0.4c0.1,0.2,0.2,0.4,0.4,0.5c0.1,0.1,0.4,0.3,0.7,0.2c0.2,0,0.4-0.1,0.5-0.3c0.1,0.1,0.3,0.2,0.6,0.2
					c0.3,0,0.6-0.2,0.7-0.3c0.1-0.2,0.2-0.3,0.2-0.5C145.3,72.7,145.1,72.3,144.5,72.3z M144.7,73.4
					C144.7,73.4,144.6,73.4,144.7,73.4c-0.2,0.1-0.3,0-0.3,0c-0.1-0.1-0.1-0.2-0.2-0.3c0-0.1,0-0.2,0-0.4c0,0,0-0.1,0.1-0.1
					c0.3,0.1,0.4,0.3,0.4,0.5C144.7,73.1,144.7,73.3,144.7,73.4z"/>
				<path class="st2" d="M152.1,72.7c-0.7-0.1-1.1,0.3-1.2,0.6c-0.1,0.2-0.3,0.7,0.3,0.8c0.3,0.1,0.6,0,0.8-0.1
					c0.2-0.1,0.3-0.3,0.4-0.4C152.6,73.3,152.7,72.8,152.1,72.7z M151.7,73.8C151.7,73.8,151.6,73.9,151.7,73.8
					c-0.2,0-0.2-0.1-0.3-0.1c0-0.1,0-0.2,0-0.3c0-0.1,0.1-0.2,0.2-0.3c0,0,0.1-0.1,0.1-0.1c0.3,0.1,0.2,0.4,0.1,0.5
					C151.9,73.6,151.8,73.7,151.7,73.8z"/>
				<path class="st2" d="M150.2,72.8c0.1-0.1,0.2-0.2,0.4-0.3c0.3-0.2,0.5-0.4,0.5-0.6c0-0.2-0.6-0.2-0.9-0.2
					c-0.4,0.1-0.7,0.3-0.8,0.6c-0.2,0.3-0.3,0.6-0.3,0.9v0c-0.2,0.1-0.7,0.4-1,0.3c-0.1,0-0.1-0.1-0.2-0.1c0.3-0.1,0.5-0.3,0.8-0.5
					c0.2-0.2,0.3-0.4,0-0.5c-0.3-0.1-0.8,0-1,0.1c-0.2,0.1-0.3,0.3-0.4,0.5c0,0.1,0,0.2,0,0.4c-0.2,0.1-0.4,0.1-0.7,0.1
					c-0.3,0-0.4-0.2-0.4-0.3c-0.1-0.2-0.1-0.3,0-0.5c0,0,0-0.1,0.1-0.1c0,0,0,0,0,0c0.2,0,0.2,0.2,0.3,0.2c0.1,0.1,0.7-0.1,0.6-0.2
					c-0.1-0.1-0.2-0.2-0.4-0.3c-0.2-0.1-0.6,0-0.7,0.1c-0.4,0.2-0.5,0.5-0.4,0.8c0,0.2,0.1,0.4,0.4,0.5c0.4,0.1,1,0,1.4-0.1
					c0.1,0.1,0.3,0.2,0.6,0.2c0.4,0,0.8-0.1,1.1-0.3c0,0.2,0.1,0.3,0.3,0.4c0.4,0.1,0.8,0,1-0.2c0.3-0.2,0.5-0.5,0.3-0.7
					C150.6,72.8,150.4,72.8,150.2,72.8z M147.9,72.7c0,0,0.1-0.1,0.1-0.1c0,0,0,0,0,0c0.2,0,0.2,0.1,0.2,0.2c0,0.1-0.2,0.2-0.4,0.4
					c0,0,0,0,0-0.1C147.8,72.9,147.8,72.8,147.9,72.7z M150.1,72c0,0,0.1-0.1,0.2-0.1c0,0,0,0,0,0c0.3,0.1,0,0.3-0.1,0.5
					c-0.1,0.1-0.3,0.3-0.5,0.4c0-0.1,0.1-0.3,0.2-0.4C149.9,72.3,150,72.2,150.1,72z M150,73.6C150,73.6,149.9,73.6,150,73.6
					c-0.1,0.1-0.1,0.1-0.1,0c-0.2,0-0.2-0.2-0.2-0.3c0-0.1,0-0.1,0-0.2c0.1,0,0.1-0.1,0.2-0.1c0.2,0,0.3,0,0.3,0.1
					C150.2,73.3,150.1,73.5,150,73.6z"/>
			</g>
		</g>
		<path class="st2" d="M144.8,78.9c0,0-0.2,0-0.2,0c-1.3-0.1-1.9,0.6-2.2,1.1c0,0,0,0,0,0c-0.2,0.4-0.7,0.7-0.8,0.8
			c-0.1,0-0.1,0-0.2,0c0,0-0.1-0.1-0.1-0.2c-0.1-0.2-0.1-0.4-0.1-0.5c0-0.5,0.1-1,0.2-1.5c0-0.1-0.1-0.1-0.3-0.1
			c-0.3,0-0.6,0.1-0.8,0.2c-0.5,0.4-0.7,0.8-0.9,1.2c-0.1,0.2-0.2,0.4-0.3,0.6c0,0,0,0,0,0c-0.1,0-0.2-0.1-0.2-0.2c0,0,0,0-0.1-0.1
			c0,0-0.1,0-0.2,0c-0.2,0-0.4,0.1-0.5,0.1c-0.1,0-0.1,0.1-0.2,0.1c0,0-0.1,0.1-0.3,0c-0.2,0-0.4-0.1-0.5-0.2
			c-0.2-0.2-0.2-0.5-0.2-0.7c0-0.3,0.1-0.6,0.3-0.9c0,0,0,0,0.1-0.1c0,0,0,0,0.1,0c0.2,0.1,0.3,0.3,0.4,0.4c0.1,0.2,1.2-0.1,1.1-0.3
			c-0.1-0.2-0.2-0.4-0.6-0.5c-0.4-0.1-0.9,0-1.3,0.1c-0.8,0.3-1.1,0.8-1.1,1.3c0,0,0,0.1,0,0.1c-0.1,0.2-0.2,0.4-0.4,0.5
			c0,0-0.1,0.1-0.3,0.1c-0.1,0-0.1-0.1-0.2-0.2c-0.2-0.3-0.2-0.6-0.2-0.9c0-0.2,0-0.4,0.1-0.6c0-0.1,0-0.1,0-0.2c0,0,0,0,0,0
			c0-0.3-0.5-0.4-1.2-0.4c-0.7,0.1-1.1,0.3-1.4,0.6c-0.3,0.3-0.5,0.6-0.5,0.9c0,0.3,0,0.8-0.3,0.8c-0.4,0-0.7-0.3-0.8-0.5
			c-0.3-0.3-0.4-0.7-0.4-1.1c-0.1-0.6-0.2-1.2,0-1.8c0-0.1-0.2-0.1-0.4-0.1c-0.3,0.1-0.5,0.2-0.6,0.3c-0.4,0.4-0.5,0.9-0.7,1.4
			c0,0,0,0,0,0c0,0,0-0.1,0-0.1c-0.1-0.4-0.2-0.8-0.3-1.1c0-0.2-0.1-0.5,0-0.7c0.1-0.3-0.8,0-0.9,0.1c-1,0.8-0.7,1.8-0.7,2.7
			c0,0.2,0,0.5-0.1,0.7c-0.1,0.2-0.1,0.5-0.4,0.6c-0.2,0.1-0.5,0-0.6,0c-0.2-0.1-0.4-0.2-0.4-0.3c0-0.1-0.3-0.1-0.5,0
			c-0.2,0.1-0.4,0.3-0.4,0.4c0.1,0.3,0.6,0.6,1.3,0.5c1.1-0.2,1.6-0.8,1.9-1.3c0.2-0.3,0.2-0.6,0.2-0.9c0.2,0.6,0.4,1.1,0.6,1.7
			c0.1,0.3,0.9-0.2,0.9-0.3c0-0.4,0.1-0.8,0.2-1.2c0.2,0.5,0.6,1.5,1.8,1.5c0.4,0,0.7-0.2,1-0.4c0.1,0.1,0.3,0.2,0.5,0.3
			c0.5,0.1,1.1-0.1,1.4-0.3c0,0,0,0,0,0c0.1,0.1,0.2,0.2,0.3,0.2c0.7,0.2,1.4-0.1,1.8-0.3c0.1,0.1,0.2,0.2,0.3,0.3
			c0.5,0.3,1.1,0.2,1.6,0c0.5,0.4,1.6,0.2,2-0.2c0.1,0,0.1-0.1,0.1-0.1c0,0,0,0.1,0,0.1c0,0.2,0.1,0.4,0.3,0.5c0.3,0.2,0.7,0.1,1,0
			c0.3-0.1,0.5-0.2,0.8-0.4c0,0.3,0.2,0.7,0.8,0.8c0.6,0.1,1.2-0.1,1.5-0.3c0.4-0.2,0.6-0.5,0.8-0.8
			C145.6,79.9,145.8,79.2,144.8,78.9z M133.3,80.1c0,0,0,0.1-0.1,0.1c0,0-0.1,0-0.2,0c-0.2,0-0.3-0.2-0.4-0.3
			c-0.2-0.3-0.2-0.7,0-1.1c0.1-0.1,0.2-0.3,0.3-0.3c0,0,0,0,0,0c0.1,0,0.1,0,0.2,0c0.3,0,0.4,0.1,0.4,0.2
			C133.5,79.1,133.5,79.6,133.3,80.1z M143.7,80.8c0,0.1-0.1,0.1-0.2,0.1c-0.2-0.1-0.3-0.3-0.3-0.3c-0.1-0.2,0-0.5,0-0.7
			c0.1-0.2,0.2-0.4,0.4-0.6c0,0,0.1-0.1,0.2-0.1c0.5,0.2,0.3,0.8,0.3,1C144,80.4,143.9,80.6,143.7,80.8z"/>
		<g>
			<path class="st2" d="M121.4,84.8c0.1-0.2,0.4-0.1,0.5,0c0.1,0.1,0,0.2-0.2,0.3c-0.1,0.1-0.3,0.1-0.5,0.2c-0.1,0-0.2,0-0.2,0.1
				c0,0,0,0.1,0,0.1c0.1,0,0.4,0,0.5,0c0.3,0,0.5,0,0.8-0.1c0.1,0,0.3-0.2,0-0.1c-0.2,0-0.4,0-0.6,0c-0.1,0-0.3,0-0.4,0
				c0,0,0,0,0,0.1c-0.1,0.1,0,0,0,0c0.1,0,0.2-0.1,0.2-0.1c0.1-0.1,0.2-0.1,0.4-0.2c0.2-0.1,0.4-0.3,0.3-0.4c-0.1-0.4-1-0.1-1.1,0.1
				C121,85,121.4,84.9,121.4,84.8L121.4,84.8z"/>
			<path class="st2" d="M120.3,85c-0.1,0-0.5-0.2-0.2-0.3c0.1,0,0.2,0,0.3,0C120.7,84.8,120.5,84.9,120.3,85c0,0-0.4,0.1-0.2,0.2
				c0.2,0.1,0.6,0,0.6,0.2c0,0.1-0.4,0.1-0.5,0.1c-0.2-0.1-0.2-0.2,0-0.3C120.3,85.1,120.4,84.9,120.3,85c-0.4,0.1-0.6,0.2-0.6,0.4
				c0,0.1,0.2,0.2,0.4,0.2c0.3,0,0.6-0.1,0.8-0.2c0.2-0.1,0.1-0.3-0.2-0.3C120.6,85.1,120.4,85,120.3,85c0.1,0,0.3,0,0.4-0.1
				c0.2-0.1,0.1-0.3-0.2-0.3c-0.3,0-0.6,0.1-0.7,0.2c-0.2,0.2,0,0.3,0.3,0.4C120.2,85.2,120.5,85,120.3,85L120.3,85z"/>
			<path class="st2" d="M123.4,85.4c0.3,0.4,1.5,0.1,1.3-0.2c-0.1-0.2-0.5-0.2-0.8-0.2c-0.2,0-0.2-0.1-0.2-0.2c0.1-0.1,0-0.1-0.1,0
				c0,0,0.1,0,0.1,0c0.3,0,0.5,0,0.8,0c0.1,0,0.4-0.1,0.2-0.1c-0.3-0.1-0.7-0.1-1,0c-0.3,0-0.4,0.2-0.4,0.3c0,0.2,0.3,0.2,0.6,0.2
				c0.2,0,0.4,0,0.4,0.2c0,0.2-0.4,0.2-0.5,0.1c-0.1,0-0.1-0.1-0.2-0.1C123.6,85.2,123.4,85.3,123.4,85.4L123.4,85.4z"/>
			<g>
				<path class="st2" d="M126.4,84.7c-0.4,0.3-0.8,0.6-1.2,0.8c-0.2,0.1,0.1,0.1,0.2,0c0.4-0.3,0.9-0.6,1.3-0.9
					C126.8,84.5,126.5,84.6,126.4,84.7L126.4,84.7z"/>
				<path class="st2" d="M125.7,84.6c-0.2,0-0.4,0.1-0.4,0.2c0,0.1,0.1,0.2,0.3,0.2C126,85,126.2,84.6,125.7,84.6
					c-0.1,0-0.3,0.1-0.1,0.1c0.1,0,0.2,0,0.2,0.1c0,0,0,0,0,0.1c0,0,0,0,0,0c0,0,0,0-0.1,0c-0.1,0-0.2,0-0.2-0.1c0,0,0,0,0-0.1
					c0,0,0,0,0,0c0,0,0,0,0,0C125.7,84.7,125.9,84.6,125.7,84.6z"/>
				<path class="st2" d="M126.4,85.2c-0.2,0-0.4,0.1-0.4,0.2c0,0.1,0.1,0.2,0.3,0.2C126.6,85.6,126.8,85.2,126.4,85.2
					c-0.1,0-0.3,0.1-0.1,0.1c0.1,0,0.2,0,0.2,0.1c0,0,0,0,0,0.1c0,0,0,0,0,0c0,0,0,0-0.1,0c-0.1,0-0.2,0-0.2-0.1c0,0,0,0,0-0.1
					c0,0,0,0,0,0c0,0,0,0,0,0C126.3,85.3,126.5,85.2,126.4,85.2z"/>
			</g>
			<path class="st2" d="M122.9,85.8c0.2-0.1,0.3-0.2,0.3-0.3c0,0,0-0.1,0-0.1c-0.1,0-0.2,0-0.3,0c-0.1,0-0.2,0.1-0.2,0.1
				c0,0.1,0.1,0,0.2,0c0,0,0,0,0,0c0,0,0,0,0,0c0,0,0,0,0,0c0,0,0,0,0,0.1c0,0,0,0,0,0c0,0,0,0,0,0c0,0,0,0,0,0c0,0,0,0,0,0
				c0,0-0.1,0.1-0.1,0.1C122.7,85.8,122.8,85.8,122.9,85.8L122.9,85.8z"/>
		</g>
		<g>
			<path class="st8" d="M117.6,76.2c-0.1,0-0.1-0.1-0.2-0.1c-0.3-0.1-0.5,0-0.8,0c-0.7,0-0.9,0-1.7-0.1c0-0.3,0.4-0.5,0.6-0.8
				c0.2-0.2-0.1-0.5-0.1-0.8c0-0.2,0-0.3,0-0.5c-0.2,0.1-0.1,0.4-0.2,0.6c-0.1-0.2-0.1-0.5-0.2-0.6c-0.1,0.2,0,0.5,0,0.6
				c-0.1-0.2-0.1-0.4-0.3-0.6c-0.2,0.2,0.1,0.5,0.1,0.6c-0.1-0.2-0.2-0.4-0.4-0.5c-0.1,0.2,0.1,0.4,0.1,0.5
				c-0.1-0.1-0.2-0.3-0.4-0.4c0,0.1,0.2,0.3,0.3,0.4c-0.2,0-0.2-0.2-0.4-0.2c0,0.1,0.2,0.2,0.3,0.3c-0.1,0-0.2-0.1-0.4-0.1
				c0,0.1,0.2,0.1,0.2,0.2c-0.1,0-0.2-0.1-0.3-0.1c0,0.1,0.2,0.1,0.2,0.2c0,0-0.2,0-0.2,0c0,0,0.2,0,0.1,0.1c-0.1,0-0.1,0-0.1,0
				c0,0.1,0.1,0,0.1,0.1c0,0,0,0-0.1,0c0,0,0.1,0,0.1,0.1c-0.6,0.3-0.3,0.6-0.3,0.9c0,0-0.5-0.1-0.9-0.2c-0.2,0-0.3-0.2-0.4-0.2
				c0,0,0.1,0,0.1,0c-0.1,0-0.1,0-0.2-0.1c0.1,0,0.2,0,0.2,0c-0.1,0-0.4-0.1-0.3-0.1c0.1,0,0.3,0,0.4,0c-0.2,0-0.4-0.1-0.4-0.2
				c0.1,0,0.4,0.1,0.5,0.1c-0.2-0.1-0.6-0.2-0.6-0.2c0.2,0,0.4,0.1,0.6,0.1c-0.3,0-0.5-0.2-0.8-0.2c0.1,0.1,0.5,0.2,0.6,0.3
				c-0.2-0.1-0.4-0.1-0.7-0.2c0.1,0.1,0.4,0.2,0.6,0.3c-0.2,0-0.3-0.1-0.5-0.1c0.1,0.1,0.4,0.1,0.5,0.2c-0.1,0-0.2,0-0.4,0
				c0,0.1,0.3,0.1,0.4,0.1c-0.1,0-0.2,0-0.3,0c0.1,0,0.2,0,0.3,0.1c-0.1,0-0.2,0-0.2,0c0,0,0.2,0,0.2,0c0,0-0.1,0-0.1,0
				c0,0,0.1,0,0.1,0c0,0,0,0-0.1,0c0.3,0.1,0.5,0.3,0.9,0.4c-0.2,0.1,0.2,0.2-2.5,0.6c0.1,0,1.2-0.1,1.5-0.2c0.3-0.1,0.7-0.1,1-0.2
				c0.1,0,0.1,0,0.2,0c0.6,0,1.1,0,1.6-0.1c-0.4,0-1.1,0.1-1.4,0c0.4-0.3,0.1-1,0.4-1.1c0.3-0.1,0.7-0.6,1.3-0.2
				c0.1,0.1,0.1,0.2-0.1,0.3c-0.2,0.2-0.4,0.3-0.4,0.7c0,0.1,0,0.2-0.3,0.2c1.2,0.1,1.5,0.1,2.2,0c0.2,0,0.5-0.1,0.6,0
				c0,0-0.2,0-0.4,0c-0.3,0,0.1,0.1,0.3,0.1c0.1,0,0.7,0,1-0.1C117.9,76.2,117.8,76.2,117.6,76.2z"/>
			<path class="st8" d="M114.1,73.2c-2.7,0-4.8,1.1-4.8,2.4c0,1.3,2.2,2.4,4.8,2.4c2.7,0,4.8-1.1,4.8-2.4
				C119,74.3,116.8,73.2,114.1,73.2 M114.1,73.3c2.6,0,4.6,1,4.6,2.3c0,1.2-2.1,2.3-4.6,2.3c-2.6,0-4.6-1-4.6-2.3
				C109.5,74.4,111.6,73.3,114.1,73.3"/>
		</g>
	</g>
</g>
<g id="butylka_1">
</g>
<g id="vanna_2">
</g>
<g id="sneg">
</g>
<g id="vanna_1">
</g>
<g id="shariki_2">
</g>
<g id="shariki_1">
</g>
<g id="voronka">
</g>
<g id="gradusnik">
</g>
<g id="kolba_2">
</g>
<g id="probirki">
</g>
<g id="lupa">
</g>
<g id="clock">
</g>
</svg>
