<?xml version="1.0" encoding="utf-8"?>
<!-- Generator: Adobe Illustrator 19.0.0, SVG Export Plug-In . SVG Version: 6.00 Build 0)  -->
<svg version="1.1" xmlns="http://www.w3.org/2000/svg" xmlns:xlink="http://www.w3.org/1999/xlink" x="0px" y="0px"
	 viewBox="0 0 219 227.7" style="enable-background:new 0 0 219 227.7;" xml:space="preserve">
<style type="text/css">
	.st0{fill:#519E38;}
	.st1{fill:#E2E2E2;}
	.st2{fill:#D3D3D3;}
	.st3{fill:#444444;}
	.st4{fill:#FFFFFF;}
	.st5{fill:#0E3656;}
	.st6{fill:#9B4B29;}
	.st7{fill:#EAEAEA;}
	.st8{fill:#231F20;}
	.st9{fill:#8C8C8C;}
	.st10{fill:#E51A4B;}
</style>
<g id="milk">
</g>
<g id="list">
	<g id="XMLID_29_">
		<path class="st0" d="M121,45.5h-1.2v-7.2h5.7c1.7,0,3-1.4,3-3c0-1.7-1.4-3-3-3h-5.7V24h0c2,0,3.7-1.6,3.7-3.7c0-2-1.6-3.7-3.7-3.7
			H41.5c-2,0-3.7,1.6-3.7,3.7c0,2,1.6,3.7,3.7,3.7h0.8v8.1h-6.7c-1.7,0-3,1.4-3,3c0,1.7,1.4,3,3,3h6.7v7.2h-2
			c-7.7,0-13.9,6.2-13.9,13.9V178c0,7.7,6.2,13.9,13.9,13.9H121c7.7,0,13.9-6.2,13.9-13.9V59.4C134.9,51.7,128.7,45.5,121,45.5z"/>
		<path class="st1" d="M128.2,171.6c0,7.7-6.2,13.9-13.9,13.9H33.5c-7.7,0-13.9-6.2-13.9-13.9V53.1c0-7.7,6.2-13.9,13.9-13.9h80.8
			c7.7,0,13.9,6.2,13.9,13.9V171.6z"/>
		<rect x="35.5" y="17.7" class="st2" width="77.5" height="21.5"/>
		<path class="st3" d="M116.7,14.1c0,2-1.6,3.7-3.7,3.7H34.7c-2,0-3.7-1.6-3.7-3.7l0,0c0-2,1.6-3.7,3.7-3.7H113
			C115,10.4,116.7,12.1,116.7,14.1L116.7,14.1z"/>
		<path class="st3" d="M43.2,28.9c0,1.7-1.4,3-3,3H28.8c-1.7,0-3-1.4-3-3l0,0c0-1.7,1.4-3,3-3h11.4C41.9,25.8,43.2,27.2,43.2,28.9
			L43.2,28.9z"/>
		<path class="st3" d="M121.8,28.9c0,1.7-1.4,3-3,3h-11.4c-1.7,0-3-1.4-3-3l0,0c0-1.7,1.4-3,3-3h11.4
			C120.4,25.8,121.8,27.2,121.8,28.9L121.8,28.9z"/>
		<path class="st4" d="M39,65.1c0,2.5-2,4.5-4.5,4.5l0,0c-2.5,0-4.5-2-4.5-4.5v-9.3c0-2.5,2-4.5,4.5-4.5l0,0c2.5,0,4.5,2,4.5,4.5
			V65.1z"/>
		<path class="st5" d="M105.9,101.6c-3.7-1.2-5.7,3.5-6.3,6.2c0,0.1,0,0.1,0,0.2l0,0c-0.6,2.8-1.6,4.1-1.8,4
			c-0.8-0.3-0.6-1.5-0.6-2.3c0-1.2,0.2-2.5-0.5-3.7c-0.5-0.9-1.5-1.1-2.5-1.1c0.1-0.2,0.1-0.3,0.2-0.5c0.1-0.2,0.2-0.4,0.3-0.5
			c0.4-0.9,0.9-1.8,1.7-2.5c0,0,0,0,0,0c0,0,0,0,0.1,0c0.4,0.1,0.8,0.6,1,0.8c1,1,4-0.6,3.1-1.6c-1.2-1.4-2.6-1.6-3.9-1.3
			c-0.9,0.2-1.8,0.6-2.5,1.2c-0.1,0.1-0.3,0.2-0.4,0.3c0.1-1.6,0.1-3.2-0.1-4.7c-0.1-0.9-2-0.4-2.9,0.4c-0.2,0.1-0.3,0.3-0.4,0.5
			c0,0,0,0,0,0v0c-0.3,1.1-2.3,1.7-4,0.2c0,0,0,0,0,0c-0.4-0.4-0.9-0.6-1.6-0.6c-3.8-0.3-5.1,4-5.5,7l0,0c-0.1,1.9-1.3,4.5-2.3,4.9
			c-0.3-0.2-0.4-0.5-0.5-0.8c-0.4-0.9-0.6-2-0.7-2.9c-0.3-2.7-0.4-5.5-0.3-8.3c0-0.5-0.5-0.7-1.1-0.6c-1,0.2-1.7,0.9-2,1.7
			c-1.1,2.5-1.7,5.2-2,7.9c-0.1,0.7-0.2,1.5-0.3,2.2c0,0.3-0.1,0.6-0.1,0.9c-0.6,0-1.1-0.6-1.1-1.1c0-1-1.2-0.5-2.1,0.2
			c0.5-1.4,0.7-2.9,0.7-4.3c0-2.5-0.7-7.4-4.1-7.2c-3.6,0.3-4.4,4.9-4.5,7.8c-0.1,2.7-0.2,5.1-0.3,5.5c-1.6,0.2-2.5-1.5-2.9-2.4
			c-0.8-1.9-1.2-3.9-1.4-5.9c-0.4-3.4-0.7-6.7-0.5-10.1c0-0.6-0.7-0.6-1.2-0.3c-0.8,0.4-1.4,1-1.7,1.7c-1.1,2.5-1.3,5.2-1.5,7.9
			c0,0,0,0.1,0,0.1c0-0.2-0.1-0.5-0.1-0.7c-0.4-2.1-0.7-4.2-1-6.3c-0.2-1.3-0.4-3-0.2-4.1c0.3-1.8-2.2,0-2.6,0.8
			c-2.4,4.8-1.6,10.2-1.3,15.6c0.1,1.4,0,2.7-0.2,4.1c-0.1,0.9-0.3,2.6-1.1,3.4c-0.5,0.5-1.4,0.1-1.8-0.1c-0.6-0.4-1.1-1.1-1.2-1.8
			c-0.1-0.8-1-0.3-1.4,0.1c-0.6,0.6-1.2,1.6-1,2.4c0.3,1.8,1.9,3.5,3.9,2.8c3.1-1,4.4-4.7,5.1-7.7c0.4-1.7,0.5-3.4,0.5-5.2
			c0.7,3.1,1.3,6.2,2,9.4c0.3,1.6,2.6-1.2,2.6-2.1c0-2.3,0.1-4.5,0.2-6.8c0.4,2.7,1.2,8.8,5.2,8.2c1.6-0.3,2.6-1.5,3.1-2.9
			c0.6,1.2,1.5,2.2,2.9,2.1c1.3-0.1,2.5-1.2,3.3-2.4c0.2,1.1,0.8,1.9,2.1,1.9c1.6,0.1,3.1-0.9,3.9-2.1c0.4-0.5,0.6-1.1,0.8-1.7
			c0.1,0.3,0.1,0.5,0.2,0.8c0.2,0.9,0.5,2,1.3,2.6c0.8,0.8,2.1,0.2,2.9-0.3c0.9-0.6,1.6-1.5,2.1-2.5c0.3,1.8,1,3.5,2.9,3.8
			c1.7,0.3,3.3-1.2,4.1-2.4c1-1.4,1.4-3.1,1.6-4.8c0.1-1,0.2-2.8-0.1-4.5c1.2,0,2.1-0.4,2.7-0.9c-0.2,4.4-0.8,8.7-1.5,13.1
			c-0.1,0.8,0.7,0.8,1.3,0.7c0.7-0.2,1.6-0.8,1.8-1.5c0.3-1.3,0.7-2.6,1.1-3.9c1.6,1.8,0.2,4.4,1.4,6.1c0.6,0.9,2.7,0.9,3.6,0.3
			c0.4-0.2,0.7-0.5,1-0.8c0.2,1.4,0.8,2.6,2.2,3.1c1.6,0.6,3.4-0.5,4.3-1.5c1.1-1.2,1.8-2.9,2.2-4.5
			C108.5,107.6,109.2,102.8,105.9,101.6z M64.4,107.9c-0.1,0.3-0.2,0.7-0.3,1c-0.6-0.1-1.1-1.1-1.3-1.5c-0.5-1.1-0.7-2.4-0.8-3.6
			c-0.1-1.3-0.1-2.6,0.2-3.8c0.1-0.3,0.2-0.6,0.3-0.9c1.6,0.4,2,4,2.1,5.1C64.7,105.4,64.7,106.7,64.4,107.9z M84.3,108.5
			c-0.1,0.3-0.2,0.6-0.4,0.9c-0.6-0.2-1-1.3-1.1-1.8c-0.4-1.2-0.4-2.5-0.4-3.7c0.1-1.3,0.3-2.5,0.7-3.7c0.1-0.3,0.2-0.6,0.4-0.9
			c1.5,1.3,1.5,3.6,1.4,5.4C84.9,106,84.7,107.3,84.3,108.5z M103.7,113.2c-0.1,0.3-0.3,0.6-0.5,0.8c-0.6-0.4-0.8-1.5-0.8-2
			c-0.2-1.3-0.1-2.6,0.2-3.7c0.2-1.2,0.6-2.5,1.2-3.6c0.1-0.3,0.3-0.6,0.5-0.8c1.2,1.7,1.1,3.8,0.7,5.7
			C104.6,110.8,104.3,112.1,103.7,113.2z"/>
	</g>
	<g id="XMLID_31_">
		<path id="XMLID_60_" class="st0" d="M185.6,210.7c-0.6,2.7-3.3,4.4-6,3.8l-78.6-17.6c-2.7-0.6-4.4-3.3-3.8-6l23.3-104.2
			c0.6-2.7,3.3-4.4,6-3.8l78.6,17.6c2.7,0.6,4.4,3.3,3.8,6L185.6,210.7z"/>
		<path id="XMLID_59_" class="st6" d="M181.8,206c-0.6,2.7-3.3,4.4-6,3.8l-78.6-17.6c-2.7-0.6-4.4-3.3-3.8-6l23.3-104.2
			c0.6-2.7,3.3-4.4,6-3.8l78.6,17.6c2.7,0.6,4.4,3.3,3.8,6L181.8,206z"/>
		
			<rect id="XMLID_58_" x="111.9" y="91.5" transform="matrix(0.9759 0.218 -0.218 0.9759 34.2738 -29.2706)" class="st4" width="75.7" height="98.3"/>
		
			<rect id="XMLID_57_" x="148.7" y="83.4" transform="matrix(0.9759 0.218 -0.218 0.9759 23.2881 -32.6816)" class="st7" width="22" height="11.5"/>
		<path id="XMLID_56_" class="st8" d="M163.2,86.1c-0.3,1.4-1.7,2.3-3.2,2l0,0c-1.4-0.3-2.3-1.7-2-3.2l1.2-5.5
			c0.3-1.4,1.7-2.3,3.2-2l0,0c1.4,0.3,2.3,1.7,2,3.2L163.2,86.1z"/>
		<path id="XMLID_53_" class="st9" d="M136.4,112.7l-10.4-2.3l2.3-10.4l10.4,2.3L136.4,112.7z M127.2,109.7l8.5,1.9l1.9-8.5
			l-8.5-1.9L127.2,109.7z"/>
		<path id="XMLID_50_" class="st9" d="M132.9,128.1l-10.4-2.3l2.3-10.4l10.4,2.3L132.9,128.1z M123.7,125l8.5,1.9l1.9-8.5l-8.5-1.9
			L123.7,125z"/>
		<path id="XMLID_47_" class="st9" d="M129.5,143.5l-10.4-2.3l2.3-10.4l10.4,2.3L129.5,143.5z M120.3,140.4l8.5,1.9l1.9-8.5
			l-8.5-1.9L120.3,140.4z"/>
		<path id="XMLID_44_" class="st9" d="M126.1,158.9l-10.4-2.3l2.3-10.4l10.4,2.3L126.1,158.9z M116.8,155.8l8.5,1.9l1.9-8.5
			l-8.5-1.9L116.8,155.8z"/>
		<path id="XMLID_41_" class="st9" d="M122.6,174.3l-10.4-2.3l2.3-10.4l10.4,2.3L122.6,174.3z M113.4,171.2l8.5,1.9l1.9-8.5
			l-8.5-1.9L113.4,171.2z"/>
		
			<rect id="XMLID_40_" x="141.9" y="108.9" transform="matrix(0.9759 0.218 -0.218 0.9759 27.9557 -32.9394)" class="st9" width="42.7" height="2.7"/>
		
			<rect id="XMLID_39_" x="141" y="111.8" transform="matrix(0.9759 0.218 -0.218 0.9759 28.3425 -30.6816)" class="st9" width="24.3" height="2.7"/>
		
			<rect id="XMLID_38_" x="138.4" y="124.7" transform="matrix(0.9759 0.218 -0.218 0.9759 31.3302 -31.7852)" class="st9" width="42.7" height="2.7"/>
		
			<rect id="XMLID_37_" x="137.6" y="126.5" transform="matrix(0.9759 0.218 -0.218 0.9759 31.3562 -28.4726)" class="st9" width="14.2" height="2.7"/>
		
			<rect id="XMLID_36_" x="134.9" y="140.1" transform="matrix(0.9759 0.218 -0.218 0.9759 34.6005 -30.6657)" class="st9" width="42.7" height="2.7"/>
		
			<rect id="XMLID_35_" x="133.9" y="144" transform="matrix(0.9759 0.218 -0.218 0.9759 35.3126 -29.359)" class="st9" width="33.5" height="2.7"/>
		
			<rect id="XMLID_34_" x="128" y="170.9" transform="matrix(0.9759 0.218 -0.218 0.9759 41.1416 -28.4277)" class="st9" width="42.7" height="2.7"/>
		
			<rect id="XMLID_33_" x="127" y="175.6" transform="matrix(0.9759 0.218 -0.218 0.9759 42.1379 -27.9513)" class="st9" width="41.5" height="2.7"/>
		
			<rect id="XMLID_32_" x="131.5" y="155.5" transform="matrix(0.9759 0.218 -0.218 0.9759 37.8707 -29.5466)" class="st9" width="42.7" height="2.7"/>
	</g>
	<g>
		<path class="st10" d="M129.7,109.5l-3-5c-0.3-0.4-0.1-1,0.3-1.2c0.4-0.3,1-0.1,1.2,0.3l2,3.3l6.8-5c0.4-0.3,1-0.2,1.2,0.2
			c0.3,0.4,0.2,1-0.2,1.2L129.7,109.5z"/>
		<path class="st10" d="M126.2,125.1l-3-5c-0.3-0.4-0.1-1,0.3-1.2c0.4-0.3,1-0.1,1.2,0.3l2,3.3l6.8-5c0.4-0.3,1-0.2,1.2,0.2
			c0.3,0.4,0.2,1-0.2,1.2L126.2,125.1z"/>
		<path class="st10" d="M122.7,140.5l-3-5c-0.3-0.4-0.1-1,0.3-1.2c0.4-0.3,1-0.1,1.2,0.3l2,3.3l6.8-5c0.4-0.3,1-0.2,1.2,0.2
			c0.3,0.4,0.2,1-0.2,1.2L122.7,140.5z"/>
		<path class="st10" d="M119.1,155.8l-3-5c-0.3-0.4-0.1-1,0.3-1.2c0.4-0.3,1-0.1,1.2,0.3l2,3.3l6.8-5c0.4-0.3,1-0.2,1.2,0.2
			c0.3,0.4,0.2,1-0.2,1.2L119.1,155.8z"/>
		<path class="st10" d="M115.6,171.2l-3-5c-0.3-0.4-0.1-1,0.3-1.2c0.4-0.3,1-0.1,1.2,0.3l2,3.3l6.8-5c0.4-0.3,1-0.2,1.2,0.2
			c0.3,0.4,0.2,1-0.2,1.2L115.6,171.2z"/>
	</g>
</g>
</svg>
