<?xml version="1.0" encoding="utf-8"?>
<!-- Generator: Adobe Illustrator 19.0.0, SVG Export Plug-In . SVG Version: 6.00 Build 0)  -->
<svg version="1.1" xmlns="http://www.w3.org/2000/svg" xmlns:xlink="http://www.w3.org/1999/xlink" x="0px" y="0px"
	 viewBox="126 -29 381 309" style="enable-background:new 126 -29 381 309;" xml:space="preserve">
<style type="text/css">
	.st0{fill:#519E38;}
	.st1{fill:#FCF3E0;}
	.st2{fill:#FFFFFF;}
	.st3{fill:url(#SVGID_1_);}
	.st4{fill:url(#SVGID_2_);}
	.st5{fill:url(#SVGID_3_);}
	.st6{fill:url(#SVGID_4_);}
	.st7{fill:url(#SVGID_5_);}
</style>
<g id="Layer_1">
	<g id="Layer_2">
	</g>
	<g id="kolba_4">
	</g>
	<g id="kolba_3">
		<path class="st0" d="M294.8,80.6h-78c-8.4,0-15.3-6.9-15.3-15.3V52.1c0-8.4,6.9-15.3,15.3-15.3h78.1c8.4,0,15.3,6.9,15.3,15.3
			v13.2C310.2,73.7,303.3,80.6,294.8,80.6z"/>
		<path class="st1" d="M290.8,75.3h-78.1c-8.4,0-15.3-6.9-15.3-15.3V46.8c0-8.4,6.9-15.3,15.3-15.3h78.1c8.4,0,15.3,6.9,15.3,15.3
			V60C306.1,68.4,299.2,75.3,290.8,75.3z"/>
		<path class="st0" d="M417.6,80.6h-78.1c-8.4,0-15.3-6.9-15.3-15.3V52.1c0-8.4,6.9-15.3,15.3-15.3h78.1c8.4,0,15.3,6.9,15.3,15.3
			v13.2C432.9,73.7,426,80.6,417.6,80.6z"/>
		<path class="st1" d="M413.5,75.3h-78.1c-8.4,0-15.3-6.9-15.3-15.3V46.8c0-8.4,6.9-15.3,15.3-15.3h78.1c8.4,0,15.3,6.9,15.3,15.3
			V60C428.8,68.4,421.9,75.3,413.5,75.3z"/>
		<path class="st0" d="M294.8,149.7h-78c-8.4,0-15.3-6.9-15.3-15.3v-13.2c0-8.4,6.9-15.3,15.3-15.3h78.1c8.4,0,15.3,6.9,15.3,15.3
			v13.2C310.2,142.8,303.3,149.7,294.8,149.7z"/>
		<path class="st1" d="M290.8,144.4h-78.1c-8.4,0-15.3-6.9-15.3-15.3v-13.2c0-8.4,6.9-15.3,15.3-15.3h78.1c8.4,0,15.3,6.9,15.3,15.3
			v13.2C306.1,137.5,299.2,144.4,290.8,144.4z"/>
		<path class="st0" d="M417.6,149.7h-78.1c-8.4,0-15.3-6.9-15.3-15.3v-13.2c0-8.4,6.9-15.3,15.3-15.3h78.1c8.4,0,15.3,6.9,15.3,15.3
			v13.2C432.9,142.8,426,149.7,417.6,149.7z"/>
		<path class="st1" d="M413.5,144.4h-78.1c-8.4,0-15.3-6.9-15.3-15.3v-13.2c0-8.4,6.9-15.3,15.3-15.3h78.1c8.4,0,15.3,6.9,15.3,15.3
			v13.2C428.8,137.5,421.9,144.4,413.5,144.4z"/>
		<path class="st0" d="M294.8,216.3h-78c-8.4,0-15.3-6.9-15.3-15.3v-13.2c0-8.4,6.9-15.3,15.3-15.3h78.1c8.4,0,15.3,6.9,15.3,15.3
			V201C310.2,209.4,303.3,216.3,294.8,216.3z"/>
		<path class="st1" d="M290.8,211h-78.1c-8.4,0-15.3-6.9-15.3-15.3v-13.2c0-8.4,6.9-15.3,15.3-15.3h78.1c8.4,0,15.3,6.9,15.3,15.3
			v13.2C306.1,204.1,299.2,211,290.8,211z"/>
		<path class="st0" d="M417.6,216.3h-78.1c-8.4,0-15.3-6.9-15.3-15.3v-13.2c0-8.4,6.9-15.3,15.3-15.3h78.1c8.4,0,15.3,6.9,15.3,15.3
			V201C432.9,209.4,426,216.3,417.6,216.3z"/>
	</g>
	<g id="doma">
	</g>
	<g id="butylka_3">
	</g>
	<g id="butylka_2">
	</g>
	<g id="butylka_1">
	</g>
	<g id="vanna_2">
	</g>
	<g id="sneg">
	</g>
	<g id="shariki_2">
	</g>
	<g id="shariki_1">
	</g>
	<g id="voronka">
	</g>
	<g id="gradusnik">
	</g>
	<g id="kolba_2">
	</g>
	<g id="kolba_1">
	</g>
	<g id="probirki">
	</g>
	<g id="lupa">
	</g>
	<g id="zavod">
	</g>
	<g id="blank">
	</g>
</g>
<g id="snow">
	<g id="kolby">
		<path class="st2" d="M216.3,46.3h-5.6c-1.5,0-2.6-1.2-2.6-2.6v-1.2c0-1.5,1.2-2.6,2.6-2.6h5.6c1.5,0,2.6,1.2,2.6,2.6v1.2
			C218.9,45.1,217.7,46.3,216.3,46.3z"/>
		<path class="st2" d="M339,46.3h-5.6c-1.5,0-2.6-1.2-2.6-2.6v-1.2c0-1.5,1.2-2.6,2.6-2.6h5.6c1.5,0,2.6,1.2,2.6,2.6v1.2
			C341.7,45.1,340.5,46.3,339,46.3z"/>
		<path class="st2" d="M216.3,115.5h-5.6c-1.5,0-2.6-1.2-2.6-2.6v-1.2c0-1.5,1.2-2.6,2.6-2.6h5.6c1.5,0,2.6,1.2,2.6,2.6v1.2
			C218.9,114.3,217.7,115.5,216.3,115.5z"/>
		<path class="st2" d="M339,115.5h-5.6c-1.5,0-2.6-1.2-2.6-2.6v-1.2c0-1.5,1.2-2.6,2.6-2.6h5.6c1.5,0,2.6,1.2,2.6,2.6v1.2
			C341.7,114.3,340.5,115.5,339,115.5z"/>
		<path class="st2" d="M216.3,182h-5.6c-1.5,0-2.6-1.2-2.6-2.6v-1.2c0-1.5,1.2-2.6,2.6-2.6h5.6c1.5,0,2.6,1.2,2.6,2.6v1.2
			C218.9,180.9,217.7,182,216.3,182z"/>
		<g>
			<path class="st1" d="M413.5,211h-78.1c-8.4,0-15.3-6.9-15.3-15.3v-13.2c0-8.4,6.9-15.3,15.3-15.3h78.1c8.4,0,15.3,6.9,15.3,15.3
				v13.2C428.8,204.1,421.9,211,413.5,211z"/>
			<path class="st2" d="M339,182h-5.6c-1.5,0-2.6-1.2-2.6-2.6v-1.2c0-1.5,1.2-2.6,2.6-2.6h5.6c1.5,0,2.6,1.2,2.6,2.6v1.2
				C341.7,180.9,340.5,182,339,182z"/>
		</g>
		<g>
			
				<linearGradient id="SVGID_1_" gradientUnits="userSpaceOnUse" x1="411.2135" y1="218.7202" x2="428.9891" y2="168.3558" gradientTransform="matrix(1 0 0 -1 0 252)">
				<stop  offset="0" style="stop-color:#404B71"/>
				<stop  offset="0.6044" style="stop-color:#3C476E"/>
				<stop  offset="1" style="stop-color:#354169"/>
			</linearGradient>
			<path class="st3" d="M415.3,78.8l-1.9-7.1l1.7-3l0.2,0.9c0.3,0.9,1.2,1.5,2.2,1.2c0.2,0,0.3-0.1,0.4-0.2c0.7-0.4,1-1.2,0.8-2
				l-1.1-4.3l2.1-3.7l2.1,3.7l-1.2,4.3c-0.3,0.9,0.3,1.9,1.2,2.2c0.5,0.1,0.9,0,1.3-0.2s0.7-0.6,0.8-1.1l0.2-0.9l1.7,3l-1.9,7.1
				c-0.3,0.9,0.3,1.9,1.2,2.2c0.5,0.1,0.9,0,1.3-0.2s0.7-0.6,0.8-1.1l1-3.7l2.8,4.8c0.5,0.8,1.6,1.1,2.4,0.6s1.1-1.6,0.6-2.4
				l-2.8-4.8l3.7,1c0.5,0.1,0.9,0,1.3-0.2s0.7-0.6,0.8-1.1c0.3-0.9-0.3-1.9-1.2-2.2l-7.1-1.9l-1.7-3l0.9,0.2
				c0.5,0.1,0.9,0.1,1.3-0.2c0.4-0.2,0.7-0.6,0.8-1.1c0.3-0.9-0.3-1.9-1.2-2.2l-4.3-1.1l-2.1-3.7h4.2l3.1,3.1
				c0.6,0.6,1.5,0.7,2.1,0.3c0.1-0.1,0.3-0.2,0.4-0.3c0.7-0.7,0.7-1.8,0-2.5l-0.6-0.6h3.5l5.2,5.2c0.6,0.6,1.5,0.7,2.1,0.3
				c0.1-0.1,0.3-0.2,0.4-0.3c0.7-0.7,0.7-1.8,0-2.5l-2.7-2.7h5.6c0.3,0,0.6-0.1,0.9-0.2c0.5-0.3,0.9-0.9,0.9-1.5
				c0-1-0.8-1.8-1.8-1.8h-5.6l2.7-2.7c0.7-0.7,0.7-1.8,0-2.5s-1.8-0.7-2.5,0l-5.2,5.2h-3.5l0.6-0.6c0.7-0.7,0.7-1.8,0-2.5
				s-1.8-0.7-2.5,0l-3.1,3.1h-4.2l2.1-3.7l4.3-1.1c0.2,0,0.3-0.1,0.4-0.2c0.7-0.4,1-1.2,0.8-2c-0.3-0.9-1.2-1.5-2.2-1.2l-0.9,0.2
				l1.7-3l7.1-1.9c0.2,0,0.3-0.1,0.4-0.2c0.7-0.4,1-1.2,0.8-2c-0.3-0.9-1.2-1.5-2.2-1.2l-3.7,1l2.8-4.8c0.5-0.8,0.2-1.9-0.6-2.4
				c-0.8-0.5-1.9-0.2-2.4,0.6L428,38l-1-3.7c-0.3-0.9-1.2-1.5-2.2-1.2c-0.9,0.3-1.5,1.2-1.2,2.2l1.9,7.1l-1.7,3l-0.2-0.9
				c-0.3-0.9-1.2-1.5-2.2-1.2c-0.9,0.3-1.5,1.2-1.2,2.2l1.1,4.3l-2.1,3.7l-2.1-3.7l1.1-4.3c0.3-0.9-0.3-1.9-1.2-2.2
				c-0.9-0.3-1.9,0.3-2.2,1.2l-0.2,0.9l-1.7-3l1.9-7.1c0.3-0.9-0.3-1.9-1.2-2.2c-0.9-0.3-1.9,0.3-2.2,1.2l-1,3.7l-2.8-4.8
				c-0.5-0.8-1.6-1.1-2.4-0.6s-1.1,1.6-0.6,2.4l2.8,4.8l-3.7-1c-0.9-0.3-1.9,0.3-2.2,1.2c-0.3,0.9,0.3,1.9,1.2,2.2l7.1,1.9l1.7,3
				l-0.9-0.2c-0.9-0.3-1.9,0.3-2.2,1.2c-0.3,0.9,0.3,1.9,1.2,2.2l4.3,1.1l2.1,3.7h-4.2l-3.1-3.1c-0.7-0.7-1.8-0.7-2.5,0
				s-0.7,1.8,0,2.5l0.6,0.6H404l-5.2-5.2c-0.7-0.7-1.8-0.7-2.5,0s-0.7,1.8,0,2.5l2.7,2.7h-5.6c-1,0-1.8,0.8-1.8,1.8s0.8,1.8,1.8,1.8
				h5.6l-2.7,2.7c-0.7,0.7-0.7,1.8,0,2.5c0.6,0.6,1.5,0.7,2.1,0.3c0.1-0.1,0.3-0.2,0.4-0.3l5.2-5.2h3.5l-0.6,0.6
				c-0.7,0.7-0.7,1.8,0,2.5c0.6,0.6,1.5,0.7,2.1,0.3c0.1-0.1,0.3-0.2,0.4-0.3l3.1-3.1h4.2l-2.1,3.7l-4.3,1.1
				c-0.9,0.3-1.5,1.2-1.2,2.2c0.3,0.9,1.2,1.5,2.2,1.2l0.9-0.2l-1.7,3l-7.1,1.9c-0.9,0.3-1.5,1.2-1.2,2.2c0.3,0.9,1.2,1.5,2.2,1.2
				l3.7-1l-2.8,4.8c-0.5,0.8-0.2,1.9,0.6,2.4c0.6,0.3,1.2,0.3,1.8,0c0.3-0.1,0.5-0.4,0.6-0.6l2.8-4.8l1,3.7c0.3,0.9,1.2,1.5,2.2,1.2
				c0.2,0,0.3-0.1,0.4-0.2C415.2,80.4,415.5,79.5,415.3,78.8z"/>
			
				<linearGradient id="SVGID_2_" gradientUnits="userSpaceOnUse" x1="279.4429" y1="147.8035" x2="284.8174" y2="132.5759" gradientTransform="matrix(1 0 0 -1 0 252)">
				<stop  offset="0" style="stop-color:#404B71"/>
				<stop  offset="0.6044" style="stop-color:#3C476E"/>
				<stop  offset="1" style="stop-color:#354169"/>
			</linearGradient>
			<path class="st4" d="M280.7,118l-0.6-2.1l0.5-0.9l0.1,0.3c0.1,0.3,0.4,0.5,0.7,0.4c0,0,0.1,0,0.1-0.1c0.2-0.1,0.3-0.4,0.2-0.6
				l-0.3-1.3l0.6-1.1l0.6,1.1l-0.3,1.3c-0.1,0.3,0.1,0.6,0.4,0.7c0.1,0,0.3,0,0.4-0.1c0.1-0.1,0.2-0.2,0.2-0.3l0.1-0.3l0.5,0.9
				l-0.6,2.1c-0.1,0.3,0.1,0.6,0.4,0.7c0.1,0,0.3,0,0.4-0.1c0.1-0.1,0.2-0.2,0.2-0.3l0.3-1.1l0.8,1.5c0.1,0.3,0.5,0.3,0.7,0.2
				c0.3-0.1,0.3-0.5,0.2-0.7l-0.8-1.5l1.1,0.3c0.1,0,0.3,0,0.4-0.1s0.2-0.2,0.2-0.3c0.1-0.3-0.1-0.6-0.4-0.7l-2.1-0.6l-0.5-0.9
				l0.3,0.1c0.1,0,0.3,0,0.4-0.1c0.1-0.1,0.2-0.2,0.2-0.3c0.1-0.3-0.1-0.6-0.4-0.7l-1.3-0.3l-0.6-1.1h1.3l0.9,0.9
				c0.2,0.2,0.4,0.2,0.6,0.1l0.1-0.1c0.2-0.2,0.2-0.5,0-0.8l-0.2-0.2h1.1l1.6,1.6c0.2,0.2,0.4,0.2,0.6,0.1c0,0,0.1,0,0.1-0.1
				c0.2-0.2,0.2-0.5,0-0.8l-0.8-0.8h1.7c0.1,0,0.2,0,0.3-0.1c0.2-0.1,0.3-0.3,0.3-0.5c0-0.3-0.2-0.5-0.5-0.5h-1.7l0.8-0.8
				c0.2-0.2,0.2-0.5,0-0.8c-0.2-0.2-0.5-0.2-0.8,0l-1.6,1.6h-1.1l0.2-0.2c0.2-0.2,0.2-0.5,0-0.8c-0.2-0.2-0.5-0.2-0.8,0l-0.9,0.9
				h-1.3l0.6-1.1l1.3-0.3c0,0,0.1,0,0.1-0.1c0.2-0.1,0.3-0.4,0.2-0.6c-0.1-0.3-0.4-0.5-0.7-0.4l-0.3,0.1l0.5-0.9l2.1-0.6
				c0,0,0.1,0,0.1-0.1c0.2-0.1,0.3-0.4,0.2-0.6c-0.1-0.3-0.4-0.5-0.7-0.4L285,106l0.8-1.5c0.1-0.3,0.1-0.6-0.2-0.7
				c-0.3-0.1-0.6-0.1-0.7,0.2l-0.8,1.5l-0.3-1.1c-0.1-0.3-0.4-0.5-0.7-0.4s-0.5,0.4-0.4,0.7l0.6,2.1l-0.5,0.9l-0.1-0.3
				c-0.1-0.3-0.4-0.5-0.7-0.4c-0.3,0.1-0.5,0.4-0.4,0.7l0.3,1.3l-0.6,1.1l-0.6-1.1l0.3-1.3c0.1-0.3-0.1-0.6-0.4-0.7
				c-0.3-0.1-0.6,0.1-0.7,0.4l-0.1,0.3l-0.5-0.9l0.6-2.1c0.1-0.3-0.1-0.6-0.4-0.7c-0.3-0.1-0.6,0.1-0.7,0.4l-0.3,1.1l-0.8-1.5
				c-0.1-0.3-0.5-0.3-0.7-0.2c-0.3,0.1-0.3,0.5-0.2,0.7l0.8,1.5l-1.1-0.3c-0.3-0.1-0.6,0.1-0.7,0.4c-0.1,0.3,0.1,0.6,0.4,0.7
				l2.1,0.6l0.5,0.9l-0.3-0.1c-0.3-0.1-0.6,0.1-0.7,0.4c-0.1,0.3,0.1,0.6,0.4,0.7l1.3,0.3l0.6,1.1h-1.3l-0.9-0.9
				c-0.2-0.2-0.5-0.2-0.8,0c-0.2,0.2-0.2,0.5,0,0.8l0.2,0.2h-1.1l-1.6-1.6c-0.2-0.2-0.5-0.2-0.8,0c-0.2,0.2-0.2,0.5,0,0.8l0.8,0.8
				H274c-0.3,0-0.5,0.2-0.5,0.5s0.2,0.5,0.5,0.5h1.7l-0.8,0.8c-0.2,0.2-0.2,0.5,0,0.8c0.2,0.2,0.4,0.2,0.6,0.1c0,0,0.1,0,0.1-0.1
				l1.6-1.6h1.1l-0.2,0.2c-0.2,0.2-0.2,0.5,0,0.8c0.2,0.2,0.4,0.2,0.6,0.1l0.1-0.1l0.9-0.9h1.3l-0.6,1.1l-1.3,0.3
				c-0.3,0.1-0.5,0.4-0.4,0.7c0.1,0.3,0.4,0.5,0.7,0.4l0.3-0.1l-0.5,0.9l-2.1,0.6c-0.3,0.1-0.5,0.4-0.4,0.7c0.1,0.3,0.4,0.5,0.7,0.4
				l1.1-0.3l-0.8,1.5c-0.1,0.3-0.1,0.6,0.2,0.7c0.2,0.1,0.4,0.1,0.5,0c0.1,0,0.1-0.1,0.2-0.2l0.8-1.5l0.3,1.1
				c0.1,0.3,0.4,0.5,0.7,0.4c0,0,0.1,0,0.1-0.1C280.6,118.4,280.7,118.2,280.7,118z"/>
			
				<linearGradient id="SVGID_3_" gradientUnits="userSpaceOnUse" x1="207.3571" y1="120.5179" x2="218.9428" y2="87.6916" gradientTransform="matrix(1 0 0 -1 0 252)">
				<stop  offset="0" style="stop-color:#404B71"/>
				<stop  offset="0.6044" style="stop-color:#3C476E"/>
				<stop  offset="1" style="stop-color:#354169"/>
			</linearGradient>
			<path class="st5" d="M209.9,161.2l-1.2-4.6l1.1-2l0.2,0.6c0.2,0.6,0.8,1,1.4,0.8c0.1,0,0.2-0.1,0.3-0.1c0.4-0.3,0.7-0.8,0.5-1.3
				l-0.7-2.8l1.4-2.4l1.4,2.4l-0.8,2.8c-0.2,0.6,0.2,1.2,0.8,1.4c0.3,0.1,0.6,0,0.9-0.1s0.5-0.4,0.5-0.7l0.2-0.6l1.1,2l-1.2,4.6
				c-0.2,0.6,0.2,1.2,0.8,1.4c0.3,0.1,0.6,0,0.9-0.1s0.5-0.4,0.5-0.7l0.6-2.4l1.8,3.2c0.3,0.5,1,0.7,1.6,0.4c0.5-0.3,0.7-1,0.4-1.6
				l-1.8-3.2l2.4,0.6c0.3,0.1,0.6,0,0.9-0.1c0.3-0.1,0.5-0.4,0.5-0.7c0.2-0.6-0.2-1.2-0.8-1.4l-4.6-1.2l-1.1-2l0.6,0.2
				c0.3,0.1,0.6,0,0.9-0.1c0.3-0.1,0.5-0.4,0.5-0.7c0.2-0.6-0.2-1.2-0.8-1.4l-2.8-0.7l-1.4-2.4h2.8l2,2c0.4,0.4,0.9,0.4,1.4,0.2
				c0.1-0.1,0.2-0.1,0.2-0.2c0.4-0.4,0.4-1.2,0-1.6l-0.4-0.4h2.3l3.4,3.4c0.4,0.4,0.9,0.4,1.4,0.2c0.1-0.1,0.2-0.1,0.2-0.2
				c0.4-0.4,0.4-1.2,0-1.6l-1.8-1.8h3.6c0.2,0,0.4-0.1,0.6-0.2c0.3-0.2,0.6-0.6,0.6-1c0-0.6-0.5-1.2-1.2-1.2h-3.6l1.8-1.8
				c0.4-0.4,0.4-1.2,0-1.6c-0.4-0.5-1.2-0.4-1.6,0l-3.4,3.4h-2.3l0.4-0.4c0.4-0.4,0.4-1.2,0-1.6c-0.5-0.4-1.2-0.4-1.6,0l-2,2h-2.8
				l1.4-2.4l2.8-0.7c0.1,0,0.2-0.1,0.3-0.1c0.4-0.3,0.7-0.8,0.5-1.3c-0.2-0.6-0.8-1-1.4-0.8l-0.6,0.2l1.1-2l4.6-1.2
				c0.1,0,0.2-0.1,0.3-0.1c0.4-0.3,0.7-0.8,0.5-1.3c-0.2-0.6-0.8-1-1.4-0.8l-2.4,0.6l1.8-3.2c0.3-0.6,0.1-1.3-0.4-1.6
				s-1.3-0.1-1.6,0.4l-1.8,3.2l-0.6-2.4c-0.2-0.6-0.8-1-1.4-0.8c-0.6,0.2-1,0.8-0.8,1.4l1.2,4.6l-1.1,2l-0.2-0.6
				c-0.2-0.6-0.8-1-1.4-0.8c-0.6,0.2-1,0.8-0.8,1.4l0.7,2.8l-1.4,2.4l-1.4-2.4l0.7-2.8c0.2-0.6-0.2-1.2-0.8-1.4
				c-0.6-0.2-1.2,0.2-1.4,0.8l-0.2,0.6l-1.1-2l1.2-4.6c0.2-0.6-0.2-1.2-0.8-1.4s-1.2,0.2-1.4,0.8l-0.6,2.4l-1.8-3.2
				c-0.3-0.5-1-0.7-1.6-0.4s-0.7,1-0.4,1.6l1.8,3.2l-2.4-0.6c-0.6-0.2-1.2,0.2-1.4,0.8c-0.2,0.6,0.2,1.2,0.8,1.4l4.6,1.2l1.1,2
				l-0.6-0.2c-0.6-0.2-1.2,0.2-1.4,0.8c-0.2,0.6,0.2,1.2,0.8,1.4l2.8,0.7l1.4,2.4h-2.8l-2-2c-0.4-0.5-1.2-0.4-1.6,0
				c-0.4,0.5-0.4,1.2,0,1.6l0.4,0.4h-2.3l-3.4-3.4c-0.4-0.4-1.2-0.4-1.6,0s-0.4,1.2,0,1.6l1.8,1.8h-3.6c-0.6,0-1.1,0.5-1.1,1.1
				s0.5,1.1,1.1,1.1h3.6l-1.8,1.8c-0.4,0.5-0.4,1.2,0,1.6c0.4,0.4,0.9,0.4,1.4,0.2c0.1,0,0.2-0.1,0.2-0.2l3.4-3.4h2.3l-0.4,0.4
				c-0.4,0.4-0.4,1.2,0,1.6c0.4,0.4,0.9,0.4,1.4,0.2c0.1,0,0.2-0.1,0.2-0.2l2-2h2.8l-1.4,2.4l-2.8,0.7c-0.6,0.2-1,0.8-0.8,1.4
				c0.2,0.6,0.8,1,1.4,0.8l0.6-0.2l-1.1,2l-4.6,1.2c-0.6,0.2-1,0.8-0.8,1.4c0.2,0.6,0.8,1,1.4,0.8l2.4-0.6l-1.8,3.2
				c-0.3,0.6-0.1,1.3,0.4,1.6c0.4,0.2,0.8,0.2,1.2,0c0.2-0.1,0.3-0.2,0.4-0.4l1.8-3.2l0.6,2.4c0.2,0.6,0.8,1,1.4,0.8
				c0.1,0,0.2-0.1,0.3-0.1C209.8,162.2,210,161.7,209.9,161.2z"/>
			
				<linearGradient id="SVGID_4_" gradientUnits="userSpaceOnUse" x1="337.5826" y1="117.8962" x2="369.9354" y2="42.1769" gradientTransform="matrix(1 0 0 -1 0 252)">
				<stop  offset="0" style="stop-color:#404B71"/>
				<stop  offset="0.6044" style="stop-color:#3C476E"/>
				<stop  offset="1" style="stop-color:#354169"/>
			</linearGradient>
			<path class="st6" d="M390.3,168.1h-7l3.4-3.4c0.9-0.9,0.9-2.3,0-3.1c-0.9-0.9-2.3-0.9-3.1,0l-6.5,6.5h-4.4l1.9-1.9
				c0.9-0.9,0.9-2.3,0-3.1c-0.9-0.9-2.3-0.9-3.1,0l-5.1,5.1h-4.3l0.1-0.1c0.8-0.8,0.9-2.2,0.1-3c-0.3-1.1-1.5-1.8-2.7-1.5l-0.2,0.1
				l2.1-3.7l6.9-1.9c0.2,0,0.4-0.1,0.5-0.2c0.8-0.5,1.3-1.5,1-2.5c-0.3-1.2-1.5-1.9-2.7-1.6l-2.6,0.7l2.2-3.8l8.9-2.4
				c0.2-0.1,0.4-0.1,0.5-0.2c0.8-0.5,1.3-1.5,1-2.5c-0.3-1.2-1.5-1.9-2.7-1.6l-4.6,1.2l3.5-6.1c0.6-1.1,0.2-2.4-0.8-3
				c-1.1-0.6-2.4-0.2-3,0.8l-3.5,6.1l-1.2-4.6c-0.3-1.2-1.5-1.9-2.7-1.6c-1.2,0.3-1.9,1.5-1.6,2.7l2.4,8.9l-2.2,3.8l-0.7-2.6
				c-0.3-1.2-1.5-1.9-2.7-1.6c-1.2,0.3-1.9,1.5-1.6,2.7l1.9,6.9l-2.1,3.7v-0.2c-0.3-1.2-1.5-1.8-2.6-1.6c-1.1-0.2-2.3,0.4-2.6,1.6
				v0.2l-2.1-3.7l1.9-6.9c0.3-1.2-0.4-2.4-1.6-2.7s-2.4,0.4-2.7,1.6l-0.7,2.6l-2.2-3.8l2.4-8.9c0.3-1.2-0.4-2.4-1.6-2.7
				s-2.4,0.4-2.7,1.6l-1.2,4.6l-3.5-6.1c-0.6-1.1-2-1.4-3-0.8c-1.1,0.6-1.4,2-0.8,3l3.5,6.1l-4.6-1.2c-1.2-0.3-2.4,0.4-2.7,1.6
				c-0.3,1.2,0.4,2.4,1.6,2.7l8.9,2.4l2.2,3.8l-2.6-0.7c-1.2-0.3-2.4,0.4-2.7,1.6c-0.3,1.2,0.4,2.4,1.6,2.7l6.9,1.9l2.1,3.7h-0.2
				c-1.1-0.3-2.3,0.3-2.6,1.4c-0.9,0.9-0.8,2.3,0,3.1l0.1,0.1h-4.3l-5.1-5.1c-0.9-0.9-2.3-0.9-3.1,0c-0.9,0.9-0.9,2.3,0,3.1l1.9,1.9
				h-4.4l-6.5-6.5c-0.9-0.9-2.3-0.9-3.1,0c-0.9,0.9-0.9,2.3,0,3.1l3.4,3.4h-7c-1.2,0-2.2,1-2.2,2.2s1,2.2,2.2,2.2h7l-3.4,3.4
				c-0.9,0.9-0.9,2.3,0,3.1c0.7,0.7,1.8,0.8,2.7,0.4c0.2-0.1,0.3-0.2,0.5-0.4l6.5-6.5h4.4l-1.9,1.9c-0.9,0.9-0.9,2.3,0,3.1
				c0.7,0.7,1.8,0.8,2.7,0.4c0.2-0.1,0.3-0.2,0.5-0.4l5.1-5.1h4.3l-0.1,0.1c-0.8,0.8-0.9,2.2-0.1,3c0.3,1.1,1.5,1.8,2.7,1.5h0.2
				l-2.1,3.7l-6.9,1.9c-1.2,0.3-1.9,1.5-1.6,2.7c0.3,1.2,1.5,1.9,2.7,1.6l2.6-0.7l-2.2,3.8l-8.9,2.4c-1.2,0.3-1.9,1.5-1.6,2.7
				s1.5,1.9,2.7,1.6l4.6-1.2l-3.5,6.1c-0.6,1.1-0.2,2.4,0.8,3c0.7,0.4,1.6,0.4,2.2,0c0.3-0.2,0.6-0.5,0.8-0.8l3.5-6.1l1.2,4.6
				c0.3,1.2,1.5,1.9,2.7,1.6c0.2-0.1,0.4-0.1,0.5-0.2c0.8-0.5,1.3-1.5,1-2.5l-2.4-8.9l2.2-3.8l0.7,2.6c0.3,1.2,1.5,1.9,2.7,1.6
				c0.2,0,0.4-0.1,0.5-0.2c0.8-0.5,1.3-1.5,1-2.5l-1.9-6.9l2.1-3.7v0.2c0.3,1.2,1.5,1.8,2.6,1.6c0.6,0.1,1.1,0,1.6-0.2
				c0.5-0.3,0.9-0.8,1-1.3v-0.2l2.1,3.7l-1.9,6.9c-0.3,1.2,0.4,2.4,1.6,2.7c0.6,0.2,1.2,0.1,1.7-0.2s0.9-0.8,1-1.3l0.7-2.6l2.2,3.8
				l-2.4,8.9c-0.3,1.2,0.4,2.4,1.6,2.7c0.6,0.2,1.2,0.1,1.7-0.2s0.9-0.8,1-1.3l1.2-4.6l3.5,6.1c0.6,1.1,2,1.4,3,0.8
				c1.1-0.6,1.4-2,0.8-3l-3.5-6.1l4.6,1.2c0.6,0.2,1.2,0.1,1.7-0.2s0.9-0.8,1-1.3c0.3-1.2-0.4-2.4-1.6-2.7l-8.9-2.4l-2.2-3.8
				l2.6,0.7c0.6,0.2,1.2,0.1,1.7-0.2s0.9-0.8,1-1.3c0.3-1.2-0.4-2.4-1.6-2.7l-6.9-1.9l-2.1-3.7h0.2c0.6,0.2,1.2,0.1,1.7-0.2
				c0.4-0.3,0.8-0.7,1-1.2c0.9-0.9,0.8-2.3,0-3.1L362,173h4.3l5.1,5.1c0.7,0.7,1.8,0.8,2.7,0.4c0.2-0.1,0.3-0.2,0.5-0.4
				c0.9-0.9,0.9-2.3,0-3.1l-1.9-1.9h4.4l6.5,6.5c0.7,0.7,1.8,0.8,2.7,0.4c0.2-0.1,0.3-0.2,0.5-0.4c0.9-0.9,0.9-2.3,0-3.1l-3.4-3.4h7
				c0.4,0,0.8-0.1,1.1-0.3c0.7-0.4,1.1-1.1,1.1-1.9C392.5,169.1,391.5,168.1,390.3,168.1z M354.3,172.8c-1.4,0.8-3.1,0.3-3.9-1
				c-0.8-1.4-0.3-3.1,1-3.9c1.4-0.8,3.1-0.3,3.9,1C356.1,170.2,355.7,172,354.3,172.8z"/>
			
				<linearGradient id="SVGID_5_" gradientUnits="userSpaceOnUse" x1="292.4072" y1="211.6786" x2="305.7738" y2="180.3888" gradientTransform="matrix(1 0 0 -1 0 252)">
				<stop  offset="0" style="stop-color:#404B71"/>
				<stop  offset="0.6044" style="stop-color:#3C476E"/>
				<stop  offset="1" style="stop-color:#354169"/>
			</linearGradient>
			<path class="st7" d="M316.3,56.3h-1.1l0.4-0.6c0.3-0.4,0.2-0.9-0.2-1.1c-0.4-0.3-0.9-0.2-1.1,0.2l-1,1.5h-1.6l2.2-3.2
				c0.3-0.4,0.2-0.9-0.2-1.1c-0.4-0.3-0.9-0.2-1.1,0.2l-2.8,4.1h-1.5l1.3-1.9c0.3-0.4,0.2-0.9-0.2-1.1c-0.4-0.3-0.9-0.2-1.1,0.2
				l-1.9,2.8h-1l0.4-0.6c0.3-0.4,0.2-0.9-0.2-1.1c-0.4-0.3-0.9-0.2-1.1,0.2l-1,1.5h-0.4l-0.9-1.6l0.2-0.3l1.8-0.2
				c0.4,0,0.8-0.4,0.7-0.9c0-0.4-0.4-0.8-0.9-0.7l-0.7,0.1l0.5-0.9l3.4-0.3c0.4,0,0.8-0.4,0.7-0.9c0-0.4-0.4-0.8-0.9-0.7l-2.3,0.2
				l0.7-1.3l5-0.4c0.4,0,0.8-0.4,0.7-0.9c0-0.4-0.4-0.8-0.9-0.7l-3.8,0.3l0.8-1.4l1.8-0.2c0.4,0,0.8-0.4,0.7-0.9
				c0-0.4-0.4-0.8-0.9-0.7l-0.7,0.1l0.6-1c0.2-0.4,0.1-0.9-0.3-1.1s-0.9-0.1-1.1,0.3l-0.6,1l-0.3-0.6c-0.2-0.4-0.7-0.6-1.1-0.4
				c-0.4,0.2-0.6,0.7-0.4,1.1l0.8,1.7l-0.8,1.4l-1.6-3.5c-0.2-0.4-0.7-0.6-1.1-0.4c-0.4,0.2-0.6,0.7-0.4,1.1l2.1,4.5l-0.7,1.3
				l-1-2.1c-0.2-0.4-0.7-0.6-1.1-0.4c-0.4,0.2-0.6,0.7-0.4,1.1l1.4,3.1l-0.5,0.9l-0.3-0.6c-0.2-0.4-0.7-0.6-1.1-0.4
				c-0.4,0.2-0.6,0.7-0.4,1.1l0.8,1.7l-0.2,0.3h-1.9l-0.2-0.3l0.8-1.7c0.2-0.4,0-0.9-0.4-1.1c-0.4-0.2-0.9,0-1.1,0.4l-0.3,0.6
				l-0.3-1l1.4-3.1c0.2-0.4,0-0.9-0.4-1.1s-0.9,0-1.1,0.4l-1,2.1l-0.7-1.3l2.1-4.5c0.2-0.4,0-0.9-0.4-1.1c-0.4-0.2-0.9,0-1.1,0.4
				l-1.6,3.5l-0.8-1.4l0.8-1.7c0.2-0.4,0-0.9-0.4-1.1c-0.4-0.2-0.9,0-1.1,0.4l-0.3,0.6l-0.6-1c-0.2-0.4-0.7-0.5-1.1-0.3
				s-0.5,0.7-0.3,1.1l0.6,1l-0.7-0.1c-0.4,0-0.8,0.3-0.9,0.7c0,0.4,0.3,0.8,0.7,0.9l1.8,0.2l0.8,1.4l-3.8-0.3
				c-0.4,0-0.8,0.3-0.9,0.7c0,0.4,0.3,0.8,0.7,0.9l5,0.4l0.7,1.3l-2.3-0.2c-0.4,0-0.8,0.3-0.9,0.7c0,0.4,0.3,0.8,0.7,0.9l3.4,0.3
				l0.5,0.9l-0.7-0.1c-0.4,0-0.8,0.3-0.9,0.7c0,0.4,0.3,0.8,0.7,0.9l1.8,0.2l0.2,0.3l-0.9,1.6h-0.4l-1-1.5c-0.3-0.4-0.8-0.5-1.1-0.2
				c-0.4,0.3-0.5,0.8-0.2,1.1l0.4,0.6h-1l-1.9-2.8c-0.3-0.4-0.8-0.5-1.1-0.2c-0.4,0.3-0.5,0.8-0.2,1.1l1.3,1.9h-1.5l-2.8-4.1
				c-0.3-0.4-0.8-0.5-1.1-0.2c-0.4,0.3-0.5,0.8-0.2,1.1l2.2,3.2h-1.6l-1-1.5c-0.3-0.4-0.8-0.5-1.1-0.2c-0.4,0.3-0.5,0.8-0.2,1.1
				l0.4,0.6h-1.1c-0.4,0-0.8,0.4-0.8,0.8s0.4,0.8,0.8,0.8h1.1l-0.4,0.6c-0.3,0.4-0.2,0.9,0.2,1.1c0.1,0.1,0.3,0.1,0.5,0.1
				c0.3,0,0.5-0.1,0.7-0.3l1-1.5h1.6l-2.2,3.2c-0.3,0.4-0.2,0.9,0.2,1.1c0.1,0.1,0.3,0.1,0.5,0.1c0.3,0,0.5-0.1,0.7-0.3l2.8-4.1h1.5
				l-1.3,1.9c-0.3,0.4-0.2,0.9,0.2,1.1c0.1,0.1,0.3,0.1,0.5,0.1c0.3,0,0.5-0.1,0.7-0.3l1.9-2.8h1l-0.4,0.6c-0.3,0.4-0.2,0.9,0.2,1.1
				c0.1,0.1,0.3,0.1,0.5,0.1c0.3,0,0.5-0.1,0.7-0.3l1-1.5h0.4l0.9,1.6l-0.2,0.3l-1.8,0.2c-0.4,0-0.8,0.4-0.7,0.9
				c0,0.4,0.4,0.7,0.8,0.7c0,0,0,0,0.1,0l0.7-0.1l-0.5,0.9l-3.4,0.3c-0.4,0-0.8,0.4-0.7,0.9c0,0.4,0.4,0.7,0.8,0.7c0,0,0,0,0.1,0
				l2.3-0.2l-0.7,1.3l-5,0.4c-0.4,0-0.8,0.4-0.7,0.9c0,0.4,0.4,0.7,0.8,0.7c0,0,0,0,0.1,0l3.8-0.3l-0.8,1.4l-1.8,0.2
				c-0.4,0-0.8,0.4-0.7,0.9c0,0.4,0.4,0.7,0.8,0.7c0,0,0,0,0.1,0l0.7-0.1l-0.6,1c-0.2,0.4-0.1,0.9,0.3,1.1c0.1,0.1,0.3,0.1,0.4,0.1
				c0.3,0,0.6-0.1,0.7-0.4l0.6-1l0.3,0.6c0.1,0.3,0.4,0.5,0.7,0.5c0.1,0,0.2,0,0.3-0.1c0.4-0.2,0.6-0.7,0.4-1.1l-0.8-1.7l0.8-1.4
				l1.6,3.5c0.1,0.3,0.4,0.5,0.7,0.5c0.1,0,0.2,0,0.3-0.1c0.4-0.2,0.6-0.7,0.4-1.1l-2.1-4.5l0.6-1l1,2.1c0.1,0.3,0.4,0.5,0.7,0.5
				c0.1,0,0.2,0,0.3-0.1c0.4-0.2,0.6-0.7,0.4-1.1l-1.4-3.1l0.5-0.9l0.3,0.6c0.1,0.3,0.4,0.5,0.7,0.5c0.1,0,0.2,0,0.3-0.1
				c0.4-0.2,0.6-0.7,0.4-1.1l-0.8-1.7l0.2-0.3h1.9l0.2,0.3l-0.8,1.7c-0.2,0.4,0,0.9,0.4,1.1c0.1,0.1,0.2,0.1,0.3,0.1
				c0.3,0,0.6-0.2,0.7-0.5l0.3-0.6l0.5,0.9l-1.4,3.1c-0.2,0.4,0,0.9,0.4,1.1c0.1,0.1,0.2,0.1,0.3,0.1c0.3,0,0.6-0.2,0.7-0.5l1-2.1
				l0.7,1.3l-2.1,4.5c-0.2,0.4,0,0.9,0.4,1.1c0.1,0.1,0.2,0.1,0.3,0.1c0.3,0,0.6-0.2,0.7-0.5l1.6-3.5l0.8,1.4l-0.8,1.7
				c-0.2,0.4,0,0.9,0.4,1.1c0.1,0.1,0.2,0.1,0.3,0.1c0.3,0,0.6-0.2,0.7-0.5l0.3-0.6l0.6,1c0.2,0.3,0.4,0.4,0.7,0.4
				c0.1,0,0.3,0,0.4-0.1c0.4-0.2,0.5-0.7,0.3-1.1l-0.6-1l0.7,0.1c0,0,0,0,0.1,0c0.4,0,0.8-0.3,0.8-0.7c0-0.4-0.3-0.8-0.7-0.9
				l-1.8-0.2l-0.8-1.4l3.8,0.3c0,0,0,0,0.1,0c0.4,0,0.8-0.3,0.8-0.7c0-0.4-0.3-0.8-0.7-0.9l-5-0.4l-0.7-1.3l2.3,0.2c0,0,0,0,0.1,0
				c0.4,0,0.8-0.3,0.8-0.7c0-0.4-0.3-0.8-0.7-0.9l-3.4-0.3l-0.5-0.9l0.7,0.1c0,0,0,0,0.1,0c0.4,0,0.8-0.3,0.8-0.7
				c0-0.4-0.3-0.8-0.7-0.9l-1.8-0.2l-0.2-0.3l0.9-1.6h0.4l1,1.5c0.2,0.2,0.4,0.3,0.7,0.3c0.2,0,0.3,0,0.5-0.1
				c0.4-0.3,0.5-0.8,0.2-1.1l-0.4-0.6h1l1.9,2.8c0.2,0.2,0.4,0.3,0.7,0.3c0.2,0,0.3,0,0.5-0.1c0.4-0.3,0.5-0.8,0.2-1.1l-1.3-1.9h1.5
				l2.8,4.1c0.2,0.2,0.4,0.3,0.7,0.3c0.2,0,0.3,0,0.5-0.1c0.4-0.3,0.5-0.8,0.2-1.1l-2.2-3.2h1.6l1,1.5c0.2,0.2,0.4,0.3,0.7,0.3
				c0.2,0,0.3,0,0.5-0.1c0.4-0.3,0.5-0.8,0.2-1.1l-0.4-0.6h1.1c0.4,0,0.8-0.4,0.8-0.8C317.1,56.7,316.7,56.3,316.3,56.3z
				 M298.6,58.7l-0.9-1.6l0.9-1.6h1.9l0.9,1.6l-0.9,1.6H298.6z"/>
			<circle class="st2" cx="330.4" cy="36.3" r="3.8"/>
			<circle class="st2" cx="190.7" cy="107.8" r="3.8"/>
			<circle class="st2" cx="196.2" cy="122.3" r="1.7"/>
			<circle class="st2" cx="183" cy="131" r="1.7"/>
			<circle class="st2" cx="317.1" cy="32.5" r="1.7"/>
			<circle class="st2" cx="347.8" cy="72.4" r="4.2"/>
			<circle class="st2" cx="379.9" cy="210" r="4.2"/>
			<circle class="st2" cx="371" cy="83.4" r="3.1"/>
			<circle class="st2" cx="365" cy="92.8" r="1.7"/>
			<circle class="st2" cx="335.9" cy="81.7" r="1.7"/>
			<circle class="st2" cx="424.3" cy="107.8" r="1.7"/>
			<circle class="st2" cx="390" cy="83.4" r="1.7"/>
			<circle class="st2" cx="383.3" cy="96.2" r="1.7"/>
			<circle class="st2" cx="381.6" cy="83.2" r="1.7"/>
			<circle class="st2" cx="390" cy="72.4" r="1.7"/>
			<circle class="st2" cx="434.7" cy="85.1" r="1.7"/>
			<circle class="st2" cx="439.7" cy="78.3" r="1.7"/>
			<circle class="st2" cx="386.7" cy="200.5" r="1.7"/>
			<circle class="st2" cx="399.3" cy="198.8" r="1.7"/>
			<circle class="st2" cx="391.7" cy="208.3" r="1.7"/>
			<circle class="st2" cx="356.1" cy="70.7" r="1.7"/>
			<circle class="st2" cx="363.3" cy="78.3" r="1.7"/>
		</g>
	</g>
</g>
</svg>
