<?xml version="1.0" encoding="utf-8"?>
<!-- Generator: Adobe Illustrator 19.0.0, SVG Export Plug-In . SVG Version: 6.00 Build 0)  -->
<svg version="1.1" xmlns="http://www.w3.org/2000/svg" xmlns:xlink="http://www.w3.org/1999/xlink" x="0px" y="0px"
	 viewBox="0 0 290 188" style="enable-background:new 0 0 290 188;" xml:space="preserve">
<style type="text/css">
	.st0{fill:#EFEFEF;}
	.st1{fill:#DDDDDD;}
	.st2{fill:#FFFFFF;}
	.st3{fill:#FCFCFC;}
	.st4{fill:#F499A8;}
	.st5{fill-rule:evenodd;clip-rule:evenodd;fill:#F499A8;}
	.st6{fill-rule:evenodd;clip-rule:evenodd;fill:#62BA47;}
	.st7{fill:#62BA47;}
	.st8{fill:#62BA46;}
</style>
<g id="Layer_2">
</g>
<g id="kolba_4">
</g>
<g id="kolby">
	<g>
		<path class="st0" d="M243.7,91.8h-29.5h-12H91.9H80H50.4L63.1,139l0,0c1.2,4.7,8.3,8.2,16.9,8.2h134.1c9.2,0,16.7-4.1,17.1-9.2
			L243.7,91.8z"/>
		<path class="st1" d="M214.1,91.8h-12H147v55.4h67.1c9.2,0,16.7-4.1,17.1-9.2l12.5-46.1H214.1z"/>
		<path class="st2" d="M75.6,119.7c0.8,2.6-0.6,5.4-3.2,6.2l0,0c-2.6,0.8-5.4-0.6-6.2-3.2L62.3,110c-0.8-2.6,0.6-5.4,3.2-6.2l0,0
			c2.6-0.8,5.4,0.6,6.2,3.2L75.6,119.7z"/>
		<path class="st2" d="M62.5,58.4"/>
		<g>
			<polygon class="st0" points="243.6,85.1 49,85.1 65.9,54.7 225.5,54.7 			"/>
			<path class="st3" d="M225.5,54.7l18,30.4H49l16.9-30.4H225.5 M225.5,46.1H65.9c-3.1,0-6,1.7-7.5,4.4L41.5,80.9
				c-1.5,2.7-1.4,5.9,0.1,8.5c1.5,2.6,4.4,4.2,7.4,4.2h194.5c3.1,0,5.9-1.7,7.5-4.3c1.5-2.7,1.5-6-0.1-8.6l-18-30.4
				C231.3,47.7,228.5,46.1,225.5,46.1L225.5,46.1z"/>
		</g>
	</g>
	<path class="st4" d="M215.3,146.9c0-5.6-4.6-10.2-10.2-10.2c-5.6,0-10.2,4.6-10.2,10.2c0,0.1,0,0.2,0,0.3h20.4
		C215.3,147.1,215.3,147,215.3,146.9z"/>
	<circle class="st4" cx="85.3" cy="106.6" r="6.5"/>
	<path class="st4" d="M201.2,104.1c4.2,0,7.6-3.4,7.6-7.6c0-1-0.2-2-0.6-2.8h-14c-0.4,0.9-0.6,1.8-0.6,2.8
		C193.6,100.7,197,104.1,201.2,104.1z"/>
	<g>
		<path class="st4" d="M151.4,116.7c0.8,3.4,0.4,7,0.2,10.5c0,1.1,1.8-0.3,1.9-1c0.2-1.6,0.4-3.2,0.7-4.8c0.2-1,0.5-3.4,1.8-2.5
			c0.6-0.6,1.1-1.1,1.7-1.7c-3.4-2.3-5.1,3.5-5.5,5.9c-0.1,0.6,0.6,0.4,0.9,0.3c2.1-0.9,1.1,3.5,2.5,4.1c1.9,0.9,3.7-1.9,4.4-3.2
			c0.8-1.4-1.2-0.6-1.6,0.1c-1.8,3.1-1.7-0.5-2.1-1.9c-0.4-1.6-1.9-1.2-3.1-0.7c0.3,0.1,0.6,0.2,0.9,0.3c0.2-1,0.4-4.1,1.9-3.1
			c0.7,0.5,2.4-1.2,1.7-1.7c-4.5-3.3-5.9,7.8-6.1,10c0.6-0.3,1.3-0.7,1.9-1c0.1-3.6,0.5-7.3-0.3-10.9
			C153.1,114.4,151.3,115.9,151.4,116.7L151.4,116.7z"/>
		<path class="st4" d="M187.2,118.1c0.2,3,0.4,6,0.2,9c-0.1,1.1,1.8-0.3,1.9-1c0.2-1.7,0.6-2.7,1.7-3.9c1.3-1.4,1.8-3.1,2.2-4.9
			c0.3-1.4-1.6-0.1-1.8,0.6c-0.8,2.6-0.9,5.8-0.3,8.4c0.6,3.1,4.3-0.6,5.1-1.9c0.8-1.3-1.2-0.6-1.6,0.1c-1.7,2.7-1.8-0.7-1.9-1.9
			c-0.1-1.8,0-3.7,0.5-5.4c-0.6,0.2-1.2,0.4-1.8,0.6c-0.4,1.9-1,3-2.2,4.4c-1.2,1.4-1.6,3.1-1.8,4.8c0.6-0.3,1.3-0.7,1.9-1
			c0.2-3-0.1-6-0.2-9C189.1,115.9,187.2,117.3,187.2,118.1L187.2,118.1z"/>
		<path class="st4" d="M103.8,115.4c-0.5-2.6-2.8-4.3-5-2.1c-2.1,2.1-2.6,5.3-2.7,8.1c-0.1,2.2,0.3,5.7,2.7,6.6
			c3,1.1,5.5-3.4,6.1-5.6c0.4-1.3-1.5-0.1-1.7,0.6c-0.6,2-2.3,4.5-4.1,2.3c-1-1.3-1.1-3.4-1.1-4.9c0-1.6,0.3-3.2,0.8-4.7
			c1-2.8,2.9-1,3.3,1.1C102.1,117.6,103.9,116.2,103.8,115.4L103.8,115.4z"/>
		<g>
			<path class="st4" d="M114,125.7c0.1,2.2,2.2,2.7,3.7,1.3c1.5-1.4,1.8-3.5,1.7-5.4c0-1.5-0.3-3.8-1.8-4.6
				c-0.7-0.4-1.7,0.2-2.2,0.6c-1.1,0.8-1.5,2.2-1.5,3.6c0,1.1,1.9-0.3,1.9-1c0-1.4,0.5-1.6,1.1-0.4c0.3,0.7,0.5,1.6,0.6,2.4
				c0.1,0.9,0.1,2-0.1,2.9c-0.1,0.3-0.2,0.7-0.4,1c0.1-0.2,0-0.2-0.2-0.1c-0.6-0.1-0.8-0.7-0.9-1.2C115.9,123.5,114,125,114,125.7
				L114,125.7z"/>
			<path class="st4" d="M113.6,117c0.7,5.5,0.6,11.3,0.1,16.9c-0.1,1.1,1.8-0.3,1.9-1c0.6-5.7,0.7-11.6-0.1-17.3
				C115.3,114.7,113.5,116.1,113.6,117L113.6,117z"/>
		</g>
		<g>
			<path class="st4" d="M166.3,125.7c0.1,2.2,2.2,2.7,3.8,1.3c1.5-1.4,1.8-3.5,1.7-5.4c0-1.5-0.3-3.8-1.8-4.6
				c-0.7-0.4-1.7,0.2-2.2,0.6c-1.1,0.8-1.5,2.2-1.5,3.6c0,1.1,1.9-0.3,1.9-1c0-1.4,0.5-1.6,1.1-0.4c0.3,0.7,0.5,1.6,0.6,2.4
				c0.1,0.9,0.1,2-0.1,2.9c-0.1,0.3-0.2,0.7-0.4,1c0.1-0.2,0-0.2-0.2-0.1c-0.6-0.1-0.8-0.7-0.9-1.2
				C168.1,123.5,166.2,125,166.3,125.7L166.3,125.7z"/>
			<path class="st4" d="M165.8,117c0.7,5.5,0.6,11.3,0.1,16.9c-0.1,1.1,1.8-0.3,1.9-1c0.6-5.7,0.7-11.6-0.1-17.3
				C167.6,114.7,165.7,116.1,165.8,117L165.8,117z"/>
		</g>
		<path class="st4" d="M110.2,118c-0.9,2.6-1,6.3-0.2,8.9c0.9,2.8,5.3-2.1,5.9-3.1c0.8-1.4-1.2-0.6-1.6,0.1
			c-0.2,0.3-1.7,2.2-2.2,1.8c-0.5-0.3-0.5-1.8-0.5-2.2c-0.2-2-0.2-4.3,0.5-6.2C112.4,116.1,110.4,117.3,110.2,118L110.2,118z"/>
		<path class="st4" d="M104,124.9c0.8-0.3,2.6-1.1,3,0.2c0.4,1.1-0.8,0.7-1.2,0.1c-1.4-1.8-0.6-5.8,0-7.9c0.4-1.4-1.7-0.1-1.9,0.6
			c-0.5,2.1-2,11.3,2.6,9.6c1.4-0.5,2.6-2.1,2.5-3.6c-0.1-2.3-3.1-1.5-4.4-1c-0.6,0.2-1.1,0.7-1.3,1.3
			C103.2,124.7,103.5,125.1,104,124.9L104,124.9z"/>
		<path class="st4" d="M196.5,124.8c1.4-1.6,4.3-5.4,2.5-7.6c-1.3-1.6-3.4,0.9-3.9,2c-0.8,2-1,4.6-0.3,6.7c0.8,2.7,3.4,1.6,5,0.2
			c0.9-0.7,0.9-2.3-0.4-1.3c-3,2.5-3.2-2.1-3-4.1c0.1-0.6,0.2-1.1,0.3-1.7c0.2-0.8,0.1-0.6,0.5-0.2c1.5,1.3-1.2,4.6-2,5.5
			C194.1,125.7,195.8,125.6,196.5,124.8L196.5,124.8z"/>
		<path class="st4" d="M125.2,125.2c0.1,3.3,3.1,2.9,4.7,0.8c3-3.9,1-9.5,3.4-13.5c-0.6,0.2-1.2,0.4-1.8,0.6
			c-0.9,4.4-0.1,9.5,0.2,14c0.1,1.2,1.8-0.4,1.9-1c0.5-3.7,0.9-8.1,2.4-11.5c-0.6,0.2-1.2,0.4-1.8,0.6c-0.5,3.4-0.7,7.5,0.3,10.8
			c1.2,4,4.2-0.4,4.9-2.2c0.5-1.2-1.5-0.1-1.8,0.6c-0.9,2.2-1.1,0.6-1.4-0.7c-0.3-1.2-0.3-2.5-0.3-3.8c0-1.9,0-3.9,0.3-5.8
			c0.2-1.1-1.6,0.2-1.8,0.6c-1.7,3.7-2.2,8.4-2.8,12.4c0.6-0.3,1.3-0.7,1.9-1c-0.2-4.5-1.1-9.6-0.2-14c0.2-1.1-1.6,0.3-1.8,0.6
			c-1.1,1.9-1.4,3.9-1.6,6c-0.1,1.3-0.3,2.7-0.5,4c-0.1,0.7-0.3,1.4-0.6,2c-0.9,2.7-2,0.1-2-0.6C127,123,125.1,124.4,125.2,125.2
			L125.2,125.2z"/>
		<path class="st4" d="M143.5,118.3c-0.2-2.9-3.4-1.3-4.4,0.2c-1.3,1.9-1.5,4.6-1.1,6.9c0.4,2.1,2.1,2.8,3.7,1.2
			C143.7,124.5,143.3,120.9,143.5,118.3c-0.6,0.3-1.3,0.7-1.9,1c-0.1,1.6-0.1,3.3,0,4.9c0.1,1,0.1,2.2,0.8,3c1.2,1.5,4-1.6,4.5-2.3
			c1-1.3-0.6-1.3-1.3-0.4c-1.2,1.6-1.7,1.1-1.9-0.4C143.3,122.2,143.4,120.2,143.5,118.3c0-1.1-1.9,0.3-1.9,1
			c-0.1,1.6-0.1,3.1-0.3,4.7c-0.1,0.5-0.2,1.6-0.5,1.6c-0.4,0-0.6-0.5-0.7-0.8c-0.4-1-0.4-2.3-0.3-3.4c0-0.6,0.2-1.3,0.4-1.9
			c0.1-0.3,0.2-0.6,0.4-0.9c0.4-0.6,1.1,0.5,1.1,0.7C141.6,120.4,143.5,119,143.5,118.3L143.5,118.3z"/>
		<path class="st4" d="M164.2,118.3c-0.2-2.9-3.4-1.3-4.4,0.2c-1.3,1.9-1.5,4.6-1.1,6.9c0.4,2.1,2.1,2.8,3.7,1.2
			C164.4,124.5,164,120.9,164.2,118.3c-0.6,0.3-1.3,0.7-1.9,1c-0.1,1.6-0.1,3.3,0,4.9c0.1,1,0.1,2.2,0.8,3c1.2,1.5,4-1.6,4.5-2.3
			c1-1.3-0.6-1.3-1.3-0.4c-1.2,1.6-1.7,1.1-1.9-0.4C164,122.2,164.1,120.2,164.2,118.3c0-1.1-1.9,0.3-1.9,1
			c-0.1,1.6-0.1,3.1-0.3,4.7c-0.1,0.5-0.2,1.6-0.5,1.6c-0.4,0-0.6-0.5-0.7-0.8c-0.4-1-0.4-2.3-0.3-3.4c0-0.6,0.2-1.3,0.4-1.9
			c0.1-0.3,0.2-0.6,0.4-0.9c0.4-0.6,1.1,0.5,1.1,0.7C162.3,120.4,164.2,119,164.2,118.3L164.2,118.3z"/>
		<path class="st4" d="M168.5,119c0.8,1,1.9,1.7,3.2,1.3c1.1-0.3,2.1-1.1,2.9-2c0.2-0.2,0.8-0.9,0.4-1.3c-0.4-0.4-1,0.2-1.3,0.4
			c-0.4,0.4-0.8,0.9-1.4,1c-0.9,0.2-1.6-0.6-2.1-1.2C169.7,116.7,167.9,118.4,168.5,119L168.5,119z"/>
		<path class="st4" d="M150.5,118.7c-0.7-2.1-2.4-2.9-3.9-0.9c-1.5,2-1.5,5.3-1,7.6c0.5,1.9,2.3,2.4,4,1.6c2-1,3.6-3,4.1-5.1
			c0.4-1.3-1.6-0.1-1.8,0.6c-0.5,1.7-2.9,4.8-4.3,1.9c-0.5-1-0.4-2.3-0.4-3.3c0-0.9,0.2-1.9,0.6-2.8c-0.2,0.4,0.6,1.4,0.8,1.9
			C148.9,121,150.7,119.5,150.5,118.7L150.5,118.7z"/>
		<path class="st4" d="M173.2,118.3c0.6,2.9,0.2,6,0.2,9c0,1.1,1.9-0.3,1.9-1c0.1-2.5,0.2-5.8,1.7-7.9c-0.4,0.5-0.1,0.3,0.2,0.8
			c0.2,0.5,0.3,1.1,0.3,1.6c0.1,1.1,0,2.1,0,3.2c0,1-0.2,3.5,1.3,3.6c1.7,0.2,3.2-1.6,3.9-3c0.8-1.4-1.2-0.6-1.6,0.1
			c-1.8,3.2-1.7-2.8-1.7-3.8c0-1.2,0.2-4-1.5-4.3c-1.4-0.3-2.5,1.5-3,2.6c-1.1,2.5-1.4,5.3-1.5,7.9c0.6-0.3,1.3-0.7,1.9-1
			c0-3.1,0.3-6.3-0.3-9.4C174.9,116,173,117.5,173.2,118.3L173.2,118.3z"/>
		<path class="st4" d="M184.2,116.5c-2.3,0.2-3.2,3.1-3.4,5c-0.2,1.6-0.2,5.7,2.2,5.9c2.5,0.2,3.5-3.1,3.7-5
			c0.2-1.6,0.1-5.7-2.2-5.9c-0.8-0.1-2.2,1.8-1.4,1.9c1.3,0.1,1.6,1.9,1.7,3c0.1,0.8,0.1,1.7,0,2.5c0,0.3-0.1,0.7-0.2,1
			c-0.1,0.3-0.5,0.8-0.1,0.7c-1.2,0.5-1.6-2.3-1.7-2.9c-0.1-0.8,0-1.7,0.1-2.5c0.1-0.4,0.2-0.9,0.3-1.3c0.1-0.4,0.3-0.4,0.1-0.4
			C184,118.3,185.3,116.4,184.2,116.5z"/>
	</g>
	<g>
		<path class="st5" d="M153.2,61.9c-0.3,0.8-1.6,1.3-3.1,1.3c-1.7,0-3.1-0.7-3.2-1.6c-8.8,0.5-15.7,4.3-15.7,8.9
			c0,0.9,0.3,1.8,0.8,2.6c0.1,0,0.1,0,0.2,0c1.7,0,3.1,0.7,3.1,1.6c0,0.4-0.3,0.8-0.7,1c2.9,2.1,7.5,3.5,12.7,3.7
			c1.3,0.1,4.2,0,5.8-0.2c4.2-0.6,7.8-1.9,10.2-3.7c-0.2-0.2-0.3-0.4-0.3-0.7c0-0.7,1-1.4,2.4-1.5c0.6-0.9,0.9-1.8,0.9-2.8
			C166.2,66.4,160.7,62.9,153.2,61.9z M134.7,68.1c-0.9,0-1.7-0.4-1.7-0.9c0-0.5,0.8-0.9,1.7-0.9c0.9,0,1.7,0.4,1.7,0.9
			C136.4,67.7,135.7,68.1,134.7,68.1z M162.4,71.1c-1.1,0-2-0.5-2-1c0-0.6,0.9-1,2-1c1.1,0,2,0.5,2,1
			C164.5,70.6,163.6,71.1,162.4,71.1z"/>
		<path class="st5" d="M140.3,59.5c0,0.6-1,1.1-2.3,1.1c-1.2,0-2.3-0.5-2.3-1.1c0-0.6,1-1.2,2.3-1.2
			C139.3,58.4,140.3,58.9,140.3,59.5L140.3,59.5z"/>
		<path class="st6" d="M140.4,63.4c0,0.8-1.3,1.5-2.9,1.5c-1.6,0-2.9-0.7-2.9-1.5c0-0.8,1.3-1.5,2.9-1.5
			C139.1,61.9,140.4,62.6,140.4,63.4L140.4,63.4z"/>
		<path class="st6" d="M132.7,61.1c0,0.5-0.8,0.9-1.7,0.9c-1,0-1.7-0.4-1.7-0.9c0-0.5,0.8-0.9,1.7-0.9
			C131.9,60.3,132.7,60.7,132.7,61.1L132.7,61.1z"/>
		<g>
			<path class="st7" d="M173.3,62.3c0,2.7-4.3,5-9.7,5c-5.4,0-9.7-2.2-9.7-5c0-2.7,4.3-5,9.7-5C169,57.4,173.3,59.6,173.3,62.3z"/>
			<g>
				<path class="st2" d="M161.2,61.6c-0.8,0-1,0.5-1,0.9l0,0v0c0,0.1,0,0.1,0,0.1c0,0.2,0,0.3-0.1,0.4c0,0.1-0.1,0.2-0.1,0.2
					c-0.3,0-0.5-0.2-0.6-0.3c-0.2-0.3-0.3-0.5-0.4-0.8c-0.1-0.3-0.2-0.6-0.2-0.9c0-0.1,0-0.2,0-0.4c0-0.1,0-0.1,0-0.1
					c0,0,0-0.1,0-0.1c0.1-0.2-0.5,0-0.6,0.1c-0.6,0.6-0.4,1.3-0.4,1.9c0,0.2,0,0.3-0.1,0.5c0,0.1-0.1,0.3-0.3,0.4
					c-0.1,0.1-0.3,0-0.4,0c-0.2,0-0.3-0.1-0.3-0.2c0-0.1-0.2,0-0.3,0c-0.1,0.1-0.3,0.2-0.3,0.3c0.1,0.2,0.5,0.4,0.9,0.4
					c0.7-0.1,1-0.5,1.2-0.9c0.1-0.2,0.1-0.3,0.1-0.5c0.1,0.2,0.2,0.5,0.5,0.7c0.2,0.2,0.4,0.3,0.9,0.3c0.3,0,0.5-0.2,0.7-0.4
					c0.1,0.2,0.4,0.3,0.7,0.3c0.4,0,0.7-0.2,0.9-0.4c0.2-0.2,0.2-0.4,0.2-0.6C162.2,62.2,162.1,61.6,161.2,61.6z M161.5,63.1
					c0,0,0,0.1-0.1,0.1c-0.2,0-0.3-0.1-0.3-0.2c-0.1-0.1-0.2-0.3-0.2-0.4c0-0.2,0-0.3,0-0.5c0,0,0-0.1,0.1-0.1
					c0.4,0.1,0.5,0.4,0.5,0.6C161.5,62.8,161.6,62.9,161.5,63.1z"/>
				<path class="st2" d="M170.9,62.2c-0.9-0.2-1.4,0.4-1.5,0.8c-0.1,0.3-0.3,0.9,0.4,1c0.4,0.1,0.8-0.1,1-0.2
					c0.3-0.1,0.4-0.3,0.5-0.6C171.5,63,171.7,62.4,170.9,62.2z M170.4,63.6c0,0-0.1,0.1-0.1,0.1c-0.1,0-0.2-0.2-0.2-0.2
					c0-0.2,0-0.3,0-0.5c0.1-0.2,0.1-0.3,0.3-0.4c0,0,0.1-0.1,0.1-0.1c0.3,0.2,0.2,0.5,0.2,0.7C170.6,63.4,170.5,63.5,170.4,63.6z"/>
				<path class="st2" d="M168.5,62.3c0.2-0.1,0.3-0.2,0.5-0.3c0.3-0.2,0.6-0.5,0.6-0.8c0-0.3-0.8-0.3-1.2-0.2
					c-0.6,0.1-0.9,0.4-1,0.7c-0.2,0.4-0.3,0.8-0.4,1.2v0c-0.3,0.2-0.8,0.5-1.3,0.4c-0.1,0-0.2-0.1-0.2-0.2c0.4-0.2,0.7-0.4,1-0.6
					c0.3-0.2,0.4-0.5-0.1-0.7c-0.4-0.1-1,0-1.2,0.2c-0.3,0.2-0.4,0.4-0.5,0.6c0,0.1,0,0.3,0,0.5c-0.3,0.1-0.6,0.1-0.9,0.1
					c-0.3,0-0.5-0.2-0.5-0.4c-0.1-0.2-0.1-0.4,0-0.6c0-0.1,0.1-0.1,0.1-0.2c0,0,0,0,0,0c0.2,0,0.3,0.2,0.3,0.3
					c0.1,0.1,0.8-0.1,0.7-0.2c-0.1-0.1-0.2-0.3-0.5-0.4c-0.3-0.1-0.7,0.1-0.9,0.2c-0.5,0.3-0.6,0.7-0.5,1c0,0.2,0.1,0.5,0.5,0.6
					c0.5,0.2,1.2,0,1.8-0.1c0.1,0.2,0.4,0.3,0.8,0.3c0.5,0,1-0.2,1.4-0.4c0,0.2,0.1,0.4,0.4,0.5c0.5,0.1,1,0,1.3-0.2
					c0.4-0.3,0.6-0.6,0.4-0.9C169,62.4,168.8,62.3,168.5,62.3z M165.6,62.1c0-0.1,0.1-0.1,0.1-0.2l0,0c0.2,0,0.2,0.2,0.2,0.2
					c0,0.2-0.3,0.3-0.5,0.5c0,0,0-0.1,0-0.1C165.5,62.5,165.5,62.3,165.6,62.1z M168.4,61.3c0.1-0.1,0.1-0.1,0.2-0.2c0,0,0,0,0,0
					c0.3,0.2,0,0.5-0.2,0.6c-0.2,0.2-0.4,0.4-0.6,0.5c0-0.2,0.1-0.3,0.2-0.5C168.1,61.6,168.2,61.5,168.4,61.3z M168.2,63.3
					C168.2,63.4,168.2,63.4,168.2,63.3c-0.1,0.1-0.1,0.1-0.2,0.1c-0.2-0.1-0.2-0.3-0.2-0.4c0-0.1,0-0.2,0-0.3
					c0.1-0.1,0.2-0.1,0.3-0.2c0.2-0.1,0.3,0.1,0.4,0.2C168.5,63,168.4,63.2,168.2,63.3z"/>
			</g>
		</g>
		<ellipse class="st7" cx="134.7" cy="78.5" rx="5.5" ry="2.8"/>
		<g>
			<g>
				<path class="st2" d="M156.6,69.3c0.3-0.4,0.4-1-0.2-1.3c-0.4-0.2-1-0.2-1.5-0.2c0.1-0.2,0.1-0.4,0.1-0.5c0-0.1-0.6-0.1-0.8-0.1
					c-0.3,0-0.6,0.1-0.7,0.3c0,0.7-0.3,1.4-0.6,2c-0.3,0.1-0.6,0.1-0.9,0.2c-0.2,0-0.3,0.1-0.6,0.1c-0.3-0.1-0.3-0.3-0.4-0.5
					c-0.1-0.6,0.1-1.3,0.7-1.8c0.2-0.1-0.1-0.2-0.4-0.2c-0.4,0-0.8,0.1-1,0.3c-0.6,0.7-0.7,1.4-0.5,2.2c0,0.3,0.2,0.4,0.8,0.5
					c0.7,0.1,1.4-0.1,2-0.3c0,0,0,0.1-0.1,0.1c-0.3,0.6-0.6,1.2-1,1.9c-0.1,0.1,0.2,0.2,0.3,0.1c0.2,0,0.4-0.1,0.5-0.3
					c0.3-0.4,0.6-0.8,0.8-1.3c0.3,0.1,0.7,0.1,1.2,0C155.6,70.3,156.3,69.8,156.6,69.3z M155,68.2C155,68.2,155,68.2,155,68.2
					L155,68.2z M154.4,70.1C154.5,70.1,154.5,70.1,154.4,70.1L154.4,70.1z M154.5,70.1C154.4,70.1,154.4,70.1,154.5,70.1
					C154.4,70.1,154.4,70.1,154.5,70.1c-0.5,0-0.5-0.3-0.5-0.4c0,0,0,0,0-0.1c0.2-0.4,0.4-0.7,0.6-1.1c0,0,0,0,0,0
					c0.1-0.1,0.1-0.2,0.3-0.3c0,0,0,0,0,0c0,0,0,0,0,0c0.1,0,0.3,0.1,0.3,0.2c0.2,0.3,0.1,0.6,0,0.9
					C155.1,69.6,154.9,69.9,154.5,70.1z"/>
				<path class="st2" d="M148.6,67.8c0,0-0.1,0-0.1,0c0,0,0,0-0.1,0c-0.3,0-0.6,0.1-0.8,0.2c0-0.2-0.1-0.5-0.2-0.7
					c0-0.1-0.5,0-0.6,0c-0.4,0.1-0.7,0.2-0.7,0.4c-0.1,0.3-0.2,0.6-0.3,0.9c-0.1,0.2-0.2,0.5-0.3,0.7c-0.1,0.1-0.1,0.2-0.2,0.3
					c0,0-0.1,0.1-0.1,0.1c-0.2,0.1-0.6,0.2-1,0.1c-0.4-0.1-0.7-0.2-1-0.3c-0.7-0.4-1.1-0.9-1.3-1.4c-0.1-0.3-0.1-0.5,0-0.8
					c0-0.1,0.1-0.2,0.1-0.3c0-0.1,0.1-0.1,0.1-0.1c0,0,0,0,0.1-0.1c0,0,0,0,0,0c0,0,0,0,0,0c0,0,0,0,0,0c0,0,0,0,0,0c0,0,0,0,0.1,0
					c0.1,0,0.3-0.1,0.5-0.1c0.9-0.1,1.3,0.3,1.5,0.6c0.2,0.2,1.4-0.3,1.3-0.5c-0.3-0.4-1.1-0.7-2-0.7c-0.8,0-1.4,0.2-1.9,0.5
					c-1,0.6-1.2,1.4-0.9,2.1c0.3,0.7,1,1.3,2.1,1.7c0.4,0.1,0.9,0.2,1.4,0.2c1-0.1,1.7-0.7,2.1-1.2c0,0,0,0,0-0.1c0,0,0,0,0,0
					c0.1,0.5,0.7,1,1.6,1c1,0,1.7-0.7,1.8-1.2C150,68.5,149.7,67.9,148.6,67.8z M148.8,69.5C148.8,69.5,148.7,69.6,148.8,69.5
					c-0.1,0.1-0.1,0.1-0.2,0.1c-0.6,0-0.9-0.4-0.9-0.6c0,0,0-0.1,0-0.1c0,0,0,0,0,0c0,0,0-0.1,0-0.1c0-0.1,0-0.2,0.1-0.3
					c0,0,0.1-0.1,0.1-0.1c0,0,0,0,0.1,0c0.7,0,0.9,0.4,1,0.6C148.9,69.2,148.9,69.3,148.8,69.5z"/>
			</g>
		</g>
		<g>
			<g>
				<path class="st2" d="M160.8,74.1c-0.1-0.1-0.3,0-0.4,0c-0.2,0-0.5,0-0.6,0c-0.1-0.1-0.1-0.1-0.1-0.2c0.5-0.1,0.9-0.3,1.3-0.5
					c0.2-0.1,0.4-0.3,0.2-0.4c-0.4-0.3-1.2-0.1-1.5,0.1c-0.2,0.1-0.4,0.3-0.5,0.5c0,0-0.1,0-0.1,0c-0.2,0.1-0.3,0.2-0.5,0.2
					c0,0,0,0,0,0c0,0,0,0,0,0c0,0,0,0,0,0c0,0,0-0.1,0-0.2c0-0.2,0.2-0.4,0.3-0.6c0.1-0.1,0.2-0.2,0.3-0.3c0.1,0,0.1-0.1,0.2-0.1
					c0.1-0.1,0-0.1-0.1-0.1c-0.2,0-0.4,0-0.5,0.1c-0.1,0.1-0.2,0.1-0.2,0.2c-0.1,0.1-0.2,0.2-0.4,0.2c-0.1,0.1-0.2,0.1-0.4,0.1
					c0,0,0,0,0,0c0.1-0.3,0.2-0.5,0.3-0.8c0,0,0,0,0-0.1c0,0,0,0-0.1,0c0,0-0.1,0-0.1,0c-0.1,0-0.2,0-0.3,0.1c-0.1,0-0.1,0-0.1,0.1
					c-0.1,0.1-0.3,0-0.5,0c-0.1,0-0.2-0.1-0.3-0.2c0,0,0,0,0,0c-0.1-0.1-0.2-0.1-0.3-0.2c0,0,0,0-0.1,0c0,0,0,0,0,0
					c-0.8,0-1.1,0.4-1.3,0.7c0,0.1-0.1,0.2-0.1,0.3c-0.1,0.1-0.2,0.1-0.3,0.1c-0.1,0-0.1,0-0.1,0c-0.2-0.1-0.1-0.3,0-0.4
					c0.1-0.3,0.3-0.6,0.1-0.9c-0.1-0.1-0.4-0.1-0.6-0.1c-0.2,0-0.4,0.1-0.6,0.2c0-0.1,0-0.2,0-0.3c0-0.1-0.6,0-0.7,0.1
					c-0.1,0.1-0.3,0.1-0.5,0c-0.1,0-0.2-0.1-0.3-0.1c-0.1-0.1-0.1-0.1-0.2-0.1c-0.2-0.1-0.5,0-0.7,0c0-0.1,0-0.2,0-0.3
					c0-0.1-0.3,0-0.4,0c-0.1,0-0.3,0.1-0.3,0.2c0.1,0.4,0.1,0.7,0.1,1.1c0,0,0,0,0,0c-0.1,0.1-0.2,0.2-0.4,0.3c0,0-0.1,0-0.1,0
					c0,0,0,0,0,0c-0.1-0.1-0.1-0.2-0.2-0.3c0-0.3,0-0.5,0-0.8c0,0,0,0,0,0c0-0.2-0.3-0.3-0.7-0.2c-0.4,0-0.6,0.2-0.8,0.3
					c-0.2,0.2-0.3,0.5-0.3,0.7c0,0.1-0.1,0.3-0.4,0.3c-0.2,0-0.3,0-0.4-0.1c-0.1-0.1-0.1-0.3-0.3-0.4c-0.2-0.1-0.4-0.1-0.6-0.1
					c0,0,0,0,0-0.1c0,0,0,0,0-0.1c0-0.1,0.1-0.2,0.1-0.3c0,0,0.1,0,0.1-0.1c0,0,0,0,0,0c0,0,0,0,0,0c0,0,0,0,0,0c0.1,0,0.2,0,0.2,0
					c0.2,0.1,0.7-0.2,0.5-0.3c-0.3-0.1-0.6-0.1-0.8,0c-0.2,0-0.3,0.1-0.4,0.2c0,0,0,0-0.1,0c-0.1-0.2-0.1-0.3-0.3-0.5
					c-0.1-0.1-0.7,0.1-0.6,0.3c0.4,0.5,0.4,1,0.5,1.6c0,0.2,0.6-0.1,0.6-0.2c0-0.1,0-0.3,0-0.4c0.2,0,0.3,0.2,0.3,0.3
					c0.1,0.1,0.1,0.3,0.4,0.3c0.3,0,0.6-0.1,0.9-0.1c0.1,0,0.2-0.1,0.2-0.1c0.1,0.1,0.2,0.2,0.3,0.2c0.3,0.1,0.6,0,0.8-0.1
					c0,0,0,0,0,0c0,0.1,0.1,0.1,0.2,0.2c0.1,0.1,0.3,0,0.5,0c0.2-0.1,0.3-0.1,0.5-0.2c0,0,0,0.1,0,0.1c0,0.4-0.1,0.8-0.2,1.2
					c0,0.1,0.1,0.1,0.2,0c0.1,0,0.3-0.1,0.3-0.2c0.1-0.3,0.1-0.6,0.2-0.9c0.2,0,0.4,0,0.6-0.1c0.4-0.2,0.6-0.5,0.6-0.8
					c0,0,0-0.1,0-0.1c0.3,0,0.5,0,0.7-0.1c0,0.1,0,0.3-0.1,0.4c-0.1,0.3-0.1,0.5-0.2,0.8c0,0.2,0.6,0,0.7-0.1
					c0.1-0.4,0.3-0.8,0.8-1.1c0,0,0.1,0.1,0.1,0.1c0.1,0.1,0,0.3,0,0.5c-0.1,0.2-0.1,0.3-0.2,0.5c0,0.1,0,0.3,0.2,0.3
					c0.2,0.1,0.4,0,0.6,0c0.1,0,0.3-0.1,0.4-0.1c0,0.1,0.2,0.2,0.4,0.3c0.3,0,0.7-0.1,0.9-0.2c0.2-0.1,0.4-0.3,0.5-0.5
					c0-0.1,0.1-0.1,0.1-0.2c0.2,0,0.5,0,0.7,0c-0.1,0.4-0.3,0.8-0.5,1.1c-0.1,0.1,0.1,0.1,0.2,0.1c0.2,0,0.3-0.1,0.4-0.1
					c0.1-0.1,0.2-0.3,0.4-0.4c0.1-0.1,0.2-0.1,0.3-0.1c0,0,0,0,0,0c0,0,0,0,0,0c-0.1,0.2-0.3,0.4-0.3,0.7c0,0.1,0.2,0.1,0.2,0.1
					s0,0,0,0c0,0,0.1,0,0.2,0c0.3,0,0.6-0.1,0.9-0.2c0,0,0,0,0,0.1c0,0.1,0,0.2,0.2,0.3c0.3,0.1,1,0.1,1.3,0
					C160.6,74.3,160.8,74.2,160.8,74.1z M148.5,73C148.4,73,148.4,73,148.5,73c-0.2,0-0.3-0.1-0.3-0.2c-0.1-0.1-0.1-0.2-0.1-0.3
					c0,0,0,0,0,0c0,0,0,0,0,0c0-0.1,0-0.2,0.1-0.3c0-0.1,0.1-0.2,0.2-0.2c0,0,0,0,0,0c0,0,0.1,0,0.1,0c0.1,0,0.2,0.1,0.2,0.1
					C148.6,72.3,148.6,72.6,148.5,73C148.5,72.9,148.5,72.9,148.5,73z M150.6,71.9C150.6,71.9,150.6,71.9,150.6,71.9L150.6,71.9z
					 M150.8,73C150.8,73,150.8,73,150.8,73L150.8,73z M150.8,73C150.8,73,150.8,73,150.8,73L150.8,73c-0.3,0-0.4-0.1-0.4-0.2
					c0,0,0,0,0,0c0-0.2,0-0.4,0.1-0.7c0,0,0,0,0,0c0-0.1,0-0.1,0.1-0.2c0,0,0,0,0,0c0,0,0,0,0,0c0.1,0,0.1,0,0.2,0.1c0,0,0,0,0,0
					c0,0,0,0,0,0c0.1,0.1,0.2,0.3,0.2,0.4C151,72.6,151,72.8,150.8,73z M155.4,73.4C155.4,73.4,155.4,73.4,155.4,73.4L155.4,73.4z
					 M155.5,73.3c0,0-0.1,0.1-0.1,0.1c-0.1,0-0.1-0.1-0.2-0.2c0-0.1,0-0.3,0-0.4c0-0.1,0.1-0.3,0.2-0.4c0,0,0.1-0.1,0.1-0.1
					c0.3,0.1,0.2,0.5,0.1,0.6C155.7,73,155.7,73.2,155.5,73.3z M158.4,73.9L158.4,73.9C158.4,73.9,158.4,73.9,158.4,73.9
					C158.4,73.9,158.4,73.9,158.4,73.9z M160,73.2c0.1,0,0.2-0.1,0.2-0.2c0,0,0.1,0,0.1,0.1c0.1,0.1-0.1,0.2-0.2,0.3
					c-0.1,0.1-0.3,0.2-0.5,0.2C159.8,73.5,159.9,73.4,160,73.2z"/>
				<path class="st2" d="M144.9,72.9c-0.2,0-0.3,0.1-0.4,0.1c-0.2,0.1-0.5,0.1-0.7,0c-0.2-0.1-0.3-0.3-0.4-0.4
					c-0.1-0.2-0.1-0.4,0-0.5c0,0,0,0,0,0c0.1,0,0.1,0,0.2,0c0.2,0,0.3,0.1,0.4,0.2c0.1,0.1,0.7-0.1,0.6-0.3
					c-0.1-0.1-0.3-0.2-0.6-0.3c-0.3,0-0.6,0-0.8,0.1c-0.5,0.2-0.5,0.6-0.3,0.9c0,0,0,0,0,0.1c0,0,0,0,0,0c0,0.1,0,0.2-0.1,0.4
					c-0.2,0-0.3-0.3-0.3-0.3c-0.2-0.3-0.2-0.5-0.3-0.8c0,0,0,0,0,0c-0.1-0.2-0.4-0.2-0.8-0.1c-0.3,0.1-0.5,0.3-0.6,0.4
					c-0.2,0.3-0.1,0.7,0.2,1v0c-0.1,0-0.2,0.1-0.4,0.1c-0.1,0-0.2-0.1-0.3-0.1c-0.3-0.2-0.4-0.4-0.5-0.6c-0.2-0.4-0.4-0.8-0.5-1.1
					c0-0.1-0.2-0.1-0.2,0c-0.1,0-0.2,0.1-0.3,0.2c-0.1,0.3-0.1,0.6,0,0.9v0c0,0,0,0-0.1-0.1c-0.2-0.2-0.3-0.4-0.4-0.7
					c-0.1-0.1-0.2-0.3-0.2-0.4c0-0.2-0.4,0-0.5,0.1c-0.4,0.6,0.1,1.1,0.3,1.7c0.1,0.1,0.1,0.3,0.1,0.4c0,0.1,0,0.3-0.1,0.4
					c-0.1,0.1-0.3,0-0.4,0c-0.2,0-0.3-0.1-0.3-0.2c-0.1-0.1-0.2,0-0.3,0c-0.1,0.1-0.2,0.2-0.2,0.3c0.1,0.2,0.5,0.4,1,0.3
					c0.6-0.1,0.8-0.5,0.8-0.8c0-0.2,0-0.4-0.1-0.6c0.2,0.3,0.5,0.7,0.7,1c0.1,0.2,0.5-0.2,0.4-0.3c-0.1-0.2-0.2-0.5-0.2-0.7
					c0.1,0.1,0.1,0.1,0.2,0.2c0.2,0.2,0.4,0.4,0.7,0.6c0.1,0.1,0.4,0,0.5,0c0.2,0,0.3-0.1,0.5-0.2c0.1,0,0.2,0.1,0.2,0.1
					c0.3,0,0.6-0.1,0.7-0.2c0,0,0,0,0,0c0,0,0.1,0.1,0.2,0.1c0.1,0,0.3,0,0.4,0c0.2,0,0.4-0.2,0.5-0.3c0.1,0,0.2,0.1,0.3,0.1
					c0.6,0.1,1.2-0.1,1.5-0.3C145,73.1,145.1,72.9,144.9,72.9z M141.8,73.4C141.8,73.4,141.8,73.4,141.8,73.4
					c-0.2,0-0.3-0.1-0.3-0.1c0,0,0,0,0,0v0c-0.2-0.2-0.3-0.4-0.3-0.7c0-0.1,0-0.2,0.1-0.2c0,0,0,0,0,0c0,0,0.1,0,0.1,0
					c0.1,0,0.2,0,0.3,0.1C141.7,72.7,141.9,73,141.8,73.4C141.8,73.3,141.8,73.4,141.8,73.4z"/>
			</g>
		</g>
		<g>
			<path class="st2" d="M132.7,78.4c-0.5,0-0.9,0-1.4,0c-0.3,0-0.5,0-0.8,0c-0.2,0,0.1,0-0.1,0.1c0.1-0.1,0.2-0.1,0.3-0.2
				c0.2-0.1,0.4-0.3,0.6-0.4c0.1,0,0.1-0.1,0.2-0.1c-0.2,0-0.3,0-0.2,0.1c0,0.1,0,0.2,0,0.2c0,0.4,0,0.8-0.1,1.3
				c0,0.2,0.6,0,0.6-0.2c0.1-0.3,0.1-0.5,0.1-0.8c0-0.2,0-0.4,0-0.6c0-0.1,0-0.2,0-0.3c-0.2-0.3-1.1,0.4-1.2,0.5
				c-0.2,0.1-1.1,0.7-0.5,0.7c0.7,0,1.4,0,2.2,0C132.6,78.7,133,78.4,132.7,78.4L132.7,78.4z"/>
			<path class="st2" d="M135.6,78.4c-0.4,0-0.9,0-1.4,0c-0.3,0-0.5,0-0.8,0c-0.2,0,0.1,0-0.1,0.1c0.1-0.1,0.2-0.1,0.3-0.2
				c0.2-0.1,0.4-0.3,0.6-0.4c0.1,0,0.1-0.1,0.2-0.1c-0.2,0-0.3,0-0.2,0.1c0,0.1,0,0.2,0,0.2c0,0.4,0,0.8-0.1,1.3
				c0,0.2,0.6,0,0.6-0.2c0.1-0.3,0.1-0.5,0.1-0.8c0-0.2,0-0.4,0-0.6c0-0.1,0-0.2,0-0.3c-0.2-0.3-1.1,0.4-1.2,0.5
				c-0.2,0.1-1.1,0.7-0.5,0.7c0.7,0,1.4,0,2.2,0C135.6,78.7,136,78.4,135.6,78.4L135.6,78.4z"/>
			<g>
				<path class="st2" d="M138.4,77.7c-0.6,0.5-1.4,1-2.2,1.5c-0.3,0.2,0.2,0.2,0.4,0.1c0.8-0.5,1.6-1.1,2.3-1.6
					C139.2,77.5,138.6,77.6,138.4,77.7L138.4,77.7z"/>
				<path class="st2" d="M137.3,77.6c-0.4,0-0.7,0.2-0.7,0.4c-0.1,0.2,0.1,0.3,0.5,0.3C137.7,78.3,138.1,77.6,137.3,77.6
					c-0.2,0-0.5,0.2-0.2,0.2c0.2,0,0.3,0.1,0.3,0.2c0,0,0,0.1,0,0.1c0,0,0,0,0,0c0,0-0.1,0-0.1,0c-0.2,0-0.3-0.1-0.3-0.2
					c0,0,0-0.1,0-0.1c0,0,0,0,0,0c0,0,0.1,0,0.1,0C137.2,77.8,137.5,77.6,137.3,77.6z"/>
				<path class="st2" d="M138.4,78.7c-0.4,0-0.7,0.2-0.7,0.4c-0.1,0.2,0.1,0.3,0.5,0.3C138.8,79.4,139.2,78.7,138.4,78.7
					c-0.2,0-0.5,0.2-0.2,0.2c0.2,0,0.3,0.1,0.3,0.2c0,0,0,0.1,0,0.1c0,0,0,0,0,0c0,0-0.1,0-0.1,0c-0.2,0-0.3-0.1-0.3-0.2
					c0,0,0-0.1,0-0.1c0,0,0,0,0,0c0,0,0.1,0,0.1,0C138.3,78.9,138.6,78.7,138.4,78.7z"/>
			</g>
		</g>
		<g>
			<path class="st8" d="M127.3,66.8c-0.1,0-0.2-0.1-0.3-0.1c-0.4-0.1-0.7,0-1,0c-0.8,0-1.1,0-2.1-0.2c0-0.4,0.5-0.7,0.7-1.1
				c0.2-0.3-0.1-0.7-0.1-1c0-0.2,0-0.4,0-0.6c-0.3,0.1-0.2,0.5-0.2,0.7c-0.1-0.3-0.1-0.6-0.3-0.8c-0.1,0.3,0,0.6,0,0.8
				c-0.1-0.2-0.2-0.5-0.4-0.7c-0.2,0.2,0.1,0.6,0.1,0.8c-0.2-0.2-0.3-0.5-0.5-0.7c-0.1,0.3,0.2,0.5,0.2,0.7
				c-0.2-0.2-0.3-0.4-0.5-0.5c0,0.2,0.2,0.4,0.4,0.6c-0.2-0.1-0.3-0.2-0.6-0.3c0,0.1,0.2,0.2,0.3,0.3c-0.2,0-0.2-0.1-0.4-0.2
				c0,0.1,0.2,0.2,0.3,0.3c-0.1,0-0.2-0.1-0.4-0.1c0,0.1,0.3,0.2,0.2,0.2c0,0-0.2,0-0.2,0c0,0,0.2,0.1,0.1,0.1c-0.1,0-0.1,0-0.2,0
				c0,0.1,0.1,0,0.1,0.1c-0.1,0-0.1,0-0.1,0c0,0.1,0.1,0,0.1,0.1c-0.7,0.4-0.3,0.8-0.4,1.2c0-0.1-0.6-0.1-1.1-0.2
				c-0.3-0.1-0.3-0.2-0.5-0.3c0,0,0.1,0,0.1,0c-0.1,0-0.2,0-0.2-0.1c0.1,0,0.3,0,0.3,0c-0.1,0-0.5-0.1-0.4-0.1c0.2,0,0.3,0.1,0.5,0
				c-0.2-0.1-0.6-0.1-0.6-0.2c0.2,0,0.4,0.1,0.6,0.1c-0.3-0.1-0.7-0.2-0.8-0.3c0.2,0.1,0.5,0.2,0.7,0.2c-0.4-0.1-0.7-0.3-1-0.3
				c0.2,0.2,0.7,0.3,0.8,0.4c-0.3-0.1-0.6-0.2-0.8-0.2c0.1,0.2,0.5,0.2,0.8,0.3c-0.3,0-0.4-0.1-0.7-0.1c0.1,0.1,0.5,0.1,0.6,0.2
				c-0.1,0-0.3,0-0.4,0c0,0.1,0.3,0.1,0.4,0.1c-0.2,0-0.3,0-0.4,0c0.1,0,0.3,0,0.4,0.1c-0.1,0-0.2,0-0.2,0c0,0,0.2,0,0.2,0
				c-0.1,0-0.1,0-0.1,0.1c0.1,0,0.1,0,0.2,0c0,0-0.1,0-0.1,0c0.4,0.1,0.6,0.4,1.1,0.5c-0.3,0.1,0.3,0.2-3.1,0.8
				c0.1,0,1.5-0.2,1.9-0.2c0.4-0.1,0.8-0.1,1.2-0.2c0.1,0,0.2,0,0.3,0c0.7,0,1.3,0,2-0.2c-0.5,0-1.4,0.1-1.8-0.1
				c0.5-0.4,0.1-1.3,0.5-1.5c0.4-0.2,0.9-0.8,1.6-0.3c0.1,0.1,0.1,0.2-0.1,0.4c-0.3,0.3-0.5,0.4-0.4,0.9c0,0.1,0,0.2-0.3,0.2
				c1.5,0.2,1.9,0.1,2.8,0c0.3,0,0.7-0.1,0.7,0c0,0.1-0.3,0.1-0.5,0.1c-0.4,0,0.2,0.1,0.4,0.1c0.1,0,0.9,0,1.3-0.1
				C127.7,66.8,127.6,66.8,127.3,66.8z"/>
			<path class="st8" d="M123,62.9c-3.4,0-6.1,1.4-6.1,3.1c0,1.7,2.7,3.1,6.1,3.1c3.4,0,6.1-1.4,6.1-3.1
				C129.1,64.3,126.4,62.9,123,62.9 M123,63c3.2,0,5.9,1.3,5.9,3c0,1.7-2.6,3-5.9,3c-3.2,0-5.9-1.3-5.9-3
				C117.1,64.4,119.8,63,123,63"/>
		</g>
	</g>
</g>
<g id="doma">
</g>
<g id="butylka_3">
</g>
<g id="butylka_2">
</g>
<g id="butylka_1">
</g>
<g id="vanna_2">
</g>
<g id="sneg">
</g>
<g id="shariki_2">
</g>
<g id="shariki_1">
</g>
<g id="voronka">
</g>
<g id="gradusnik">
</g>
<g id="kolba_2">
</g>
<g id="kolba_1">
</g>
<g id="probirki">
</g>
<g id="lupa">
</g>
<g id="zavod">
</g>
<g id="blank">
</g>
</svg>
