<?xml version="1.0" encoding="utf-8"?>
<!-- Generator: Adobe Illustrator 19.0.0, SVG Export Plug-In . SVG Version: 6.00 Build 0)  -->
<svg version="1.1" id="Layer_1" xmlns="http://www.w3.org/2000/svg" xmlns:xlink="http://www.w3.org/1999/xlink" x="0px" y="0px"
	 viewBox="42 -58 141 173" style="enable-background:new 42 -58 141 173;" xml:space="preserve">
<style type="text/css">
	.st0{fill:#519E38;}
	.st1{fill:#FFFFFF;}
	.st2{fill:#EFEFEF;}
	.st3{fill:none;}
	.st4{fill:#EDEDED;}
	.st5{fill:#CA0000;}
	.st6{fill:#B00000;}
	.st7{opacity:0.6;fill:none;stroke:#FFFFFF;stroke-width:2;stroke-linecap:round;enable-background:new    ;}
</style>
<g id="bottle">
	<path id="XMLID_38_" class="st0" d="M109.4-35H85.9c-1.3,0-2.4,1.1-2.4,2.4c0,1.3,1.1,2.4,2.4,2.4h23.5c1.3,0,2.3-1.1,2.3-2.4
		C111.7-34,110.7-35,109.4-35z"/>
	<g id="XMLID_2_">
		<polygon id="XMLID_3_" class="st0" points="77.7,48.7 88.3,25.4 88.3,-32.3 88.3,-34 84.2,-33.4 84.6,19 85.7,24.4 73.1,48.7 		
			"/>
		<path id="XMLID_4_" class="st0" d="M142.2,89.2L142.2,89.2c-0.2-1.1-0.5-1.8-0.5-1.8l-31.3-63.5l0.1-54.2l-0.1-2h-2.3l-1.6,2
			l0.3,55.4l15.4,30.2l8.8,26.5l-6.4,7.7l-23.9,2l-10-0.5c0,0-35.7,0.4-35.5,2.5c0,0.6,0.3,1.1,0.7,1.6l0,0c0,0-0.2,3.2,6.7,3.2
			s61.1,0,61.1,0l4.7-1.2h3.4l-3,0.8l8.3,0.8C144.1,96.9,142.2,89.2,142.2,89.2z"/>
	</g>
	<path id="XMLID_5_" class="st0" d="M140.6,95c0,2-1.6,3.6-3.6,3.6H59.4c-2,0-3.6-1.6-3.6-3.6l0,0c0-2,1.6-3.6,3.6-3.6h77.7
		C139,91.5,140.6,93.1,140.6,95L140.6,95z"/>
	<g id="XMLID_6_">
		<g id="XMLID_7_">
			<path id="XMLID_8_" class="st1" d="M115.8,47H74L53.7,86.8c-2.2,4.6,0.1,8.3,5.1,8.3h72.7c5,0,7.3-3.8,5.1-8.3L115.8,47z"/>
		</g>
	</g>
	<g id="XMLID_12_">
		<g id="XMLID_13_">
			<path id="XMLID_14_" class="st1" d="M104.5-33.6v58c0,0.5,0.1,0.9,0.4,1.3s0.6,0.9,0.8,1.3l15.8,32.1l0,0l0,0l14.4,29.2
				c0.7,1.5,0.8,2.8,0.3,3.7s-1.8,1.4-3.4,1.4H57.5c-1.6,0-2.9-0.5-3.4-1.4c-0.5-0.9-0.4-2.2,0.3-3.7l14.4-29.2l0,0l0,0L84.6,27
				c0.2-0.4,0.5-0.9,0.8-1.3s0.4-0.9,0.4-1.3v-58H104.5L104.5-33.6z M106.9-36H83.4v60.3c-0.4,0.5-0.7,1.1-0.9,1.6L66.7,58l0,0l0,0
				L52.3,87.2c-2.3,4.6,0.1,8.4,5.3,8.4h75.2c5.2,0,7.5-3.8,5.3-8.4L123.7,58l0,0l0,0l-15.9-32c-0.3-0.5-0.6-1.1-0.9-1.6V-36
				L106.9-36z"/>
		</g>
	</g>
	<path id="XMLID_17_" class="st1" d="M85.4,41.2c-0.3,0-0.6-0.1-0.9-0.2c-1.1-0.5-1.6-1.8-1.1-2.9l3.8-8.7c0.5-1.1,1.8-1.6,2.9-1.1
		c1.1,0.5,1.6,1.8,1.1,2.9l-3.8,8.7C87.1,40.7,86.3,41.2,85.4,41.2z"/>
	<path id="XMLID_18_" class="st1" d="M91.5,22c-1.1,0-2-0.9-2-2v-44.8c0-1.1,0.9-2,2-2c1.1,0,2,0.9,2,2V20
		C93.5,21.1,92.6,22,91.5,22z"/>
	<path id="XMLID_39_" class="st2" d="M106.9-37H83.4c-1.3,0-2.4,1.1-2.4,2.4c0,1.3,1.1,2.4,2.4,2.4h23.5c1.3,0,2.3-1.1,2.3-2.4
		S108.2-37,106.9-37z"/>
	<g id="mask_x5F_test-tube">
		<path id="XMLID_41_" class="st3" d="M104.5-34.3v58c0,0.5,0.1,0.9,0.4,1.3s0.6,0.9,0.8,1.3l15.8,32.1l0,0l0,0l14.4,29.2
			c0.7,1.5,0.8,2.8,0.3,3.7s-1.8,1.4-3.4,1.4H57.5c-1.6,0-2.9-0.5-3.4-1.4c-0.5-0.9-0.4-2.2,0.3-3.7l14.3-29.1l0,0l0,0l15.8-32.1
			c0.2-0.4,0.5-0.9,0.8-1.3s0.4-0.9,0.4-1.3v-58L104.5-34.3L104.5-34.3z"/>
	</g>
</g>
<g id="thermometr">
	<path id="XMLID_37_" class="st0" d="M166.5,24.4c0-7,0-52.7,0-54.7c0-0.5-0.1-0.9-0.2-1.4l0,0c0,0-0.8-5.5-6.2-6.1
		c0,0-3.8-0.1-6,1.1c-2.2,1.2,6.9,5.4,6.9,5.4s1.7,0.9,2.5,1.3c0,4.5,0,54.7,0,55.2v0.9l0.8,0.4c0.1,0,6.9,3.9,6.4,11.5
		c-0.4,5.9-3.8,10.3-8.9,12l-6.3-1.8c0,0-7.5-0.2-4.8,2.8c1.7,1.9,4.6,2.5,6.5,2.6c0.2,0.1,0.4,0.1,0.6,0.1l0,0c0.3,0,0.6,0,0.9-0.1
		c0.2,0,0.3,0,0.3,0l0,0c8.1-0.7,14.1-6.9,14.6-15.3C174.2,30.4,168.6,25.9,166.5,24.4z"/>
	<path id="XMLID_36_" class="st1" d="M163.5,25.1v-54.9c0-4-3.2-7.2-7.2-7.2s-7.2,3.2-7.2,7.2V25c-4.4,2.5-7.3,7.2-7.3,12.6
		c0,8,6.5,14.4,14.4,14.4c8,0,14.4-6.5,14.4-14.4C170.7,32.3,167.8,27.6,163.5,25.1z"/>
	<path id="XMLID_35_" class="st4" d="M163.5,25.1v-54.9c0-4-3.2-7.2-7.2-7.2c0,0,0,0-0.1,0v89c8,0,14.4-6.5,14.4-14.4
		C170.7,32.3,167.8,27.6,163.5,25.1z"/>
	<path id="XMLID_34_" class="st5" d="M160.8,27.3v-44.4h-9.5v44.6l0,0c-3.9,1.9-6.6,5.8-6.6,10.4c0,6.4,5.2,11.5,11.5,11.5
		c6.4,0,11.5-5.2,11.5-11.5C167.8,33.2,164.9,29.1,160.8,27.3z"/>
	<path id="XMLID_33_" class="st6" d="M160.8,27.3v-44.4h-4.5v66.5c6.4,0,11.5-5.2,11.5-11.5C167.8,33.2,164.9,29.1,160.8,27.3z"/>
	<path id="XMLID_32_" class="st7" d="M149.3,40.3c0,0,1.2,2.8,4,4"/>
	<path id="XMLID_31_" class="st1" d="M157.7-9.9h-2.9c-0.1,0-0.2-0.1-0.2-0.2c0-0.1,0.1-0.2,0.2-0.2h2.9c0.1,0,0.2,0.1,0.2,0.2
		C158-10,157.9-9.9,157.7-9.9z"/>
	<path id="XMLID_30_" class="st1" d="M157.7-8.2h-2.9c-0.1,0-0.2-0.1-0.2-0.2s0.1-0.2,0.2-0.2h2.9c0.1,0,0.2,0.1,0.2,0.2
		S157.9-8.2,157.7-8.2z"/>
	<path id="XMLID_29_" class="st1" d="M159.5-6.6H153c-0.1,0-0.2-0.1-0.2-0.2S152.9-7,153-7h6.5c0.1,0,0.2,0.1,0.2,0.2
		S159.6-6.6,159.5-6.6z"/>
	<path id="XMLID_28_" class="st1" d="M157.7-4.9h-2.9c-0.1,0-0.2-0.1-0.2-0.2s0.1-0.2,0.2-0.2h2.9c0.1,0,0.2,0.1,0.2,0.2
		S157.9-4.9,157.7-4.9z"/>
	<path id="XMLID_27_" class="st1" d="M157.7-3.3h-2.9c-0.1,0-0.2-0.1-0.2-0.2s0.1-0.2,0.2-0.2h2.9c0.1,0,0.2,0.1,0.2,0.2
		S157.9-3.3,157.7-3.3z"/>
	<path id="XMLID_26_" class="st1" d="M159.5-1.6H153c-0.1,0-0.2-0.1-0.2-0.2S152.9-2,153-2h6.5c0.1,0,0.2,0.1,0.2,0.2
		S159.6-1.6,159.5-1.6z"/>
	<path id="XMLID_25_" class="st1" d="M157.7,0h-2.9c-0.1,0-0.2-0.1-0.2-0.2s0.1-0.2,0.2-0.2h2.9c0.1,0,0.2,0.1,0.2,0.2
		S157.9,0,157.7,0z"/>
	<path id="XMLID_24_" class="st1" d="M157.7,1.6h-2.9c-0.1,0-0.2-0.1-0.2-0.2s0.1-0.2,0.2-0.2h2.9c0.1,0,0.2,0.1,0.2,0.2
		S157.9,1.6,157.7,1.6z"/>
	<path id="XMLID_23_" class="st1" d="M159.5,3.3H153c-0.1,0-0.2-0.1-0.2-0.2s0.1-0.2,0.2-0.2h6.5c0.1,0,0.2,0.1,0.2,0.2
		S159.6,3.3,159.5,3.3z"/>
	<path id="XMLID_22_" class="st1" d="M157.7,4.9h-2.9c-0.1,0-0.2-0.1-0.2-0.2c0-0.1,0.1-0.2,0.2-0.2h2.9c0.1,0,0.2,0.1,0.2,0.2
		C158,4.8,157.9,4.9,157.7,4.9z"/>
	<path id="XMLID_21_" class="st1" d="M157.7,6.6h-2.9c-0.1,0-0.2-0.1-0.2-0.2s0.1-0.2,0.2-0.2h2.9c0.1,0,0.2,0.1,0.2,0.2
		C158,6.5,157.9,6.6,157.7,6.6z"/>
	<path id="XMLID_20_" class="st1" d="M159.5,8.2H153c-0.1,0-0.2-0.1-0.2-0.2s0.1-0.2,0.2-0.2h6.5c0.1,0,0.2,0.1,0.2,0.2
		S159.6,8.2,159.5,8.2z"/>
	<g id="thermometer_x5F_mask_2_">
		<path id="XMLID_9_" class="st3" d="M160.8,27.3v-44.4h-9.5v44.6l0,0c-3.9,1.9-6.6,5.8-6.6,10.4c0,6.4,5.2,11.5,11.5,11.5
			c6.4,0,11.5-5.2,11.5-11.5C167.8,33.2,164.9,29.1,160.8,27.3z"/>
	</g>
</g>
<g id="mask">
	<path id="XMLID_15_" class="st3" d="M160.8,27.3v-44.4h-9.5v44.6l0,0c-3.9,1.9-6.6,5.8-6.6,10.4c0,6.4,5.2,11.5,11.5,11.5
		c6.4,0,11.5-5.2,11.5-11.5C167.8,33.2,164.9,29.1,160.8,27.3z"/>
</g>
</svg>
