<?xml version="1.0" encoding="utf-8"?>
<!-- Generator: Adobe Illustrator 19.0.0, SVG Export Plug-In . SVG Version: 6.00 Build 0)  -->
<svg version="1.1" id="Layer_1" xmlns="http://www.w3.org/2000/svg" xmlns:xlink="http://www.w3.org/1999/xlink" x="0px" y="0px"
	 viewBox="0 0 130 250" style="enable-background:new 0 0 130 250;" xml:space="preserve">
<style type="text/css">
	.st0{fill:#519E38;}
	.st1{fill:#F4F4F4;}
	.st2{fill:#D6D6D6;}
	.st3{fill:#EAEAEA;}
	.st4{fill:#FFFFFF;}
	.st5{fill:#0455A4;}
	.st6{fill:#62BA47;}
	.st7{fill-rule:evenodd;clip-rule:evenodd;fill:#0455A4;}
	.st8{fill-rule:evenodd;clip-rule:evenodd;fill:#62BA47;}
	.st9{fill:#62BA46;}
</style>
<path class="st0" d="M106.2,212.6c0,0,0-61.6,0-95.1c0-33.5-13.9-46.3-13.9-46.3c3.7-20.7-6.2-27-6.2-27v-7.5h2.1c0,0,0-8,0-10.7
	c0-2.6-3.7-2.4-3.7-2.4H70.9h-1.2H56c0,0-3.7-0.3-3.7,2.4c0,2.6,0,10.7,0,10.7h2.2v7.5h-0.1c0,0-9.9,6.2-6.2,27
	c0,0-13.9,12.8-13.9,46.3c0,33.5,0,95.1,0,95.1S32.9,233,47.9,233c4.1,0,7.5,0,10.3,0c7.7,0,11.2,0,11.2,0h0.7h0.8H71h11.2h0.1
	c2.8,0,6.2,0,10.3,0c0,0,0,0,0.1,0C107.6,233,106.2,212.6,106.2,212.6z"/>
<path class="st1" d="M98.3,207.7c0,0,0-61.6,0-95.1c0-33.5-13.9-46.3-13.9-46.3c3.7-20.7-6.2-27-6.2-27v-7.7H46.6v7.7h-0.1
	c0,0-9.9,6.2-6.2,27c0,0-13.9,12.8-13.9,46.3c0,33.5,0,95.1,0,95.1s-1.4,20.4,13.6,20.4c4.1,0,7.5,0,10.3,0c7.7,0,11.2,0,11.2,0h1.5
	h11.2c2.9,0,6.3,0,10.3,0C99.7,228.2,98.3,207.7,98.3,207.7z"/>
<path class="st2" d="M76.5,18.9H62.9h-1.2H48.1c0,0-3.7-0.3-3.7,2.4c0,2.6,0,10.7,0,10.7h17.3h1.2h17.3c0,0,0-8,0-10.7
	C80.2,18.6,76.5,18.9,76.5,18.9z"/>
<path class="st3" d="M98.2,207.7c0,0,0-61.6,0-95.1c0-33.5-13.9-46.3-13.9-46.3c3.7-20.7-6.2-27-6.2-27v-7.7H62.2v196.4H63h11.2
	c2.9,0,6.3,0,10.3,0C99.6,228.2,98.2,207.7,98.2,207.7z"/>
<path class="st4" d="M38.1,101.6c-0.2,0-0.3,0-0.5,0c-2.2-0.3-3.7-2.3-3.4-4.5c1.8-13.7,8.4-22.1,8.7-22.4c1.4-1.7,3.9-2,5.6-0.6
	c1.7,1.4,2,3.9,0.6,5.6c-0.1,0.1-5.5,7.1-7,18.5C41.7,100.2,40,101.6,38.1,101.6z"/>
<g>
	<circle class="st5" cx="63.8" cy="144.6" r="18.7"/>
	<g>
		<circle class="st6" cx="48.9" cy="161.2" r="5.9"/>
	</g>
	<path class="st7" d="M55,121.7c0,1.3-1.1,2.4-2.4,2.4c-1.3,0-2.4-1.1-2.4-2.4c0-1.3,1.1-2.4,2.4-2.4C53.9,119.3,55,120.4,55,121.7
		L55,121.7z"/>
	<path class="st8" d="M55.1,129.7c0,1.7-1.4,3.1-3.1,3.1s-3.1-1.4-3.1-3.1c0-1.7,1.4-3.1,3.1-3.1S55.1,128,55.1,129.7L55.1,129.7z"
		/>
	<path class="st8" d="M46.8,125c0,1-0.8,1.8-1.8,1.8c-1,0-1.8-0.8-1.8-1.8c0-1,0.8-1.8,1.8-1.8C46,123.2,46.8,124,46.8,125L46.8,125
		z"/>
	<g>
		<circle class="st6" cx="79.8" cy="127.5" r="10.3"/>
		<g>
			<path class="st4" d="M77.3,126c-0.8,0.1-1.1,1.1-1.1,1.8l0,0v0c0,0.1,0,0.2,0,0.3c0,0.3,0,0.6-0.1,0.9c0,0.1-0.1,0.4-0.1,0.4
				c-0.3,0-0.5-0.4-0.6-0.7c-0.2-0.5-0.4-1.1-0.5-1.6c-0.1-0.6-0.2-1.2-0.2-1.8c0-0.2,0-0.5,0-0.8c0-0.1,0-0.2,0-0.3
				c0-0.1,0-0.2,0-0.2c0.1-0.5-0.6,0-0.7,0.2c-0.7,1.2-0.5,2.6-0.5,3.9c0,0.4,0,0.7-0.1,1.1c0,0.2-0.1,0.7-0.3,0.9
				c-0.1,0.1-0.4,0-0.5,0c-0.2-0.1-0.3-0.3-0.3-0.5c0-0.2-0.2-0.1-0.4,0c-0.1,0.1-0.3,0.4-0.3,0.6c0.1,0.5,0.5,0.9,1,0.7
				c0.8-0.2,1.1-1.1,1.3-1.9c0.1-0.3,0.1-0.7,0.2-1c0.1,0.5,0.3,1,0.5,1.5c0.2,0.3,0.5,0.7,0.9,0.6c0.3-0.1,0.5-0.4,0.7-0.8
				c0.1,0.3,0.4,0.6,0.8,0.6c0.4,0,0.8-0.5,0.9-0.8c0.2-0.4,0.2-0.9,0.2-1.3C78.3,127.2,78.1,125.9,77.3,126z M77.5,129
				c0,0.1,0,0.2-0.1,0.3c-0.2,0-0.3-0.3-0.3-0.4c-0.1-0.3-0.2-0.6-0.2-0.9c0-0.3,0-0.7,0-1c0-0.1,0-0.2,0.1-0.2
				c0.4,0.3,0.5,0.8,0.6,1.3C77.6,128.4,77.6,128.7,77.5,129z"/>
			<path class="st4" d="M87.5,127.3c-0.9-0.3-1.4,0.9-1.6,1.6c-0.2,0.7-0.3,1.8,0.4,2.1c0.4,0.2,0.8-0.1,1.1-0.4
				c0.3-0.3,0.5-0.7,0.6-1.1C88.2,128.8,88.3,127.6,87.5,127.3z M86.9,130.2c0,0.1-0.1,0.1-0.1,0.2c-0.1-0.1-0.2-0.4-0.2-0.5
				c0-0.3,0-0.6,0-1c0.1-0.3,0.2-0.6,0.3-0.9c0-0.1,0.1-0.1,0.1-0.2c0.4,0.4,0.3,1,0.2,1.5C87.2,129.6,87.1,129.9,86.9,130.2z"/>
			<path class="st4" d="M85,127.4c0.2-0.2,0.3-0.5,0.5-0.7c0.3-0.5,0.7-1.1,0.6-1.7c0-0.6-0.8-0.6-1.2-0.4c-0.6,0.3-0.9,0.9-1.1,1.5
				c-0.2,0.8-0.4,1.6-0.4,2.4v0c-0.3,0.3-0.9,1.1-1.4,0.8c-0.1-0.1-0.2-0.2-0.2-0.4c0.4-0.4,0.7-0.8,1-1.3c0.3-0.4,0.5-1.1-0.1-1.4
				c-0.4-0.3-1,0-1.3,0.4c-0.3,0.4-0.4,0.8-0.5,1.3c0,0.2-0.1,0.7,0,1.1c-0.3,0.2-0.6,0.3-0.9,0.2c-0.4-0.1-0.5-0.4-0.5-0.7
				c-0.1-0.4-0.1-0.9,0-1.3c0-0.1,0.1-0.3,0.1-0.4c0,0,0-0.1,0-0.1c0.2,0.1,0.3,0.4,0.4,0.6c0.1,0.3,0.9-0.2,0.8-0.5
				c-0.1-0.3-0.2-0.6-0.6-0.8c-0.3-0.1-0.8,0.1-1,0.3c-0.5,0.6-0.6,1.4-0.6,2.1c0,0.5,0.1,1.1,0.5,1.3c0.6,0.3,1.3,0,1.9-0.3
				c0.1,0.3,0.4,0.6,0.8,0.5c0.6-0.1,1.1-0.4,1.5-0.8c0,0.4,0.1,0.9,0.4,1.1c0.5,0.3,1.1,0,1.4-0.4c0.4-0.5,0.7-1.3,0.4-1.9
				C85.5,127.5,85.3,127.4,85,127.4z M81.9,127.1c0-0.1,0.1-0.2,0.1-0.3c0,0,0,0,0,0c0.2,0.1,0.3,0.3,0.2,0.5c0,0.3-0.3,0.7-0.5,1
				c0-0.1,0-0.1,0-0.2C81.7,127.7,81.8,127.4,81.9,127.1z M84.9,125.4c0.1-0.1,0.1-0.2,0.2-0.3c0,0,0,0,0,0c0.4,0.4,0,1-0.2,1.3
				c-0.2,0.4-0.4,0.7-0.7,1.1c0-0.4,0.1-0.7,0.2-1.1C84.6,126,84.7,125.7,84.9,125.4z M84.7,129.6c0,0-0.1,0.1-0.1,0.2
				c0,0-0.1,0-0.1,0c-0.2-0.1-0.2-0.6-0.3-0.8c0-0.2,0-0.4,0-0.5c0.1-0.1,0.2-0.2,0.3-0.3c0.2-0.1,0.3,0.1,0.4,0.3
				C85,128.8,84.8,129.3,84.7,129.6z"/>
		</g>
	</g>
	<g>
		<g>
			<path class="st4" d="M77.5,149.9c-0.7,0.1-0.5-1.8-0.5-2.1c0.1-1.2,0.4-2.3,0.7-3.4c0.1-0.3-0.3-0.4-0.6-0.4
				c-0.3,0.1-0.7,0.3-0.8,0.6c-0.1,0.2-0.1,0.4-0.2,0.6c0,0.2-0.1,0.4-0.2,0.7c-0.1,0.6-0.3,1.2-0.5,1.8c-0.1,0.5-0.3,0.9-0.5,1.3
				c0,0,0,0,0,0.1c-0.1,0-0.2-0.1-0.2-0.2c-0.6-0.5-0.4-1.8-0.3-2.4c0.1-0.9,0.4-1.8,0.8-2.6c0.1-0.3,0-0.5-0.4-0.5
				c-0.4,0-0.8,0.2-0.9,0.5c-0.3,0.7-0.6,1.5-0.7,2.3c-0.1,0.5-0.7,2.3-1.2,2c-0.4-0.3-0.2-1.5-0.4-2.2c-0.2-0.6-0.7-0.8-1.3-0.8
				c0.3-1.1,0.6-1.4,0.8-1.6c0.2,0.1,0.4,0.3,0.5,0.3c0.4,0.4,1.7-0.4,1.3-0.8c-0.5-0.5-1.1-0.6-1.7-0.5c-0.4,0.1-0.7,0.3-1.1,0.6
				c-0.1,0.1-0.1,0.1-0.2,0.2c0-0.7-0.1-1.3-0.2-2c-0.1-0.2-0.4-0.2-0.7-0.1c-0.3,0.2-0.7,0.5-0.7,0.7c0,0.5-0.2,0.9-0.6,1.2
				c-0.2,0.1-0.6,0.3-0.9,0.2c0,0-0.4-0.2-0.6-0.1c0.3-0.6,0.5-1.2,0.8-1.8c0.3-0.8,0.8-2.1,0.3-3c-0.6-0.9-1.9-0.3-2.4,0.3
				c-0.8,0.9-1,2.2-1.1,3.3c-0.1,1.2-0.1,2.4,0.1,3.6c-0.2,0.6-0.4,1.4-0.7,1.8c-0.3-0.2-0.6-0.8-0.7-1c-0.2-0.8-0.3-1.7-0.3-2.5
				c0-0.3,0-0.6,0-1c0-0.3,0-0.6,0-0.9c0-0.3-0.4-0.3-0.6-0.1c-0.3,0.2-0.7,0.5-0.7,0.9c0,1.1,0,2.2,0,3.3c0,0.5-0.1,1.1-0.2,1.5
				c-1,0-1.1-1.6-1.2-2.2c-0.1-0.9-0.1-1.9,0.1-2.8c0.1-0.3-0.1-0.5-0.5-0.3c-0.3,0.1-0.7,0.5-0.8,0.9c-0.1,0.5-0.1,1-0.2,1.6
				c-0.1,2.1-0.2,3-0.5,3.4c-0.2-0.1-0.3-0.3-0.3-0.3c-0.2-0.3-0.4-0.8-0.5-1.2c-0.4-1.2-0.6-2.5-0.7-3.7c0,0,0,0,0,0
				c0-0.1,0-0.1-0.1-0.2c0,0-0.1,0-0.1,0c-0.3,0-0.7,0.4-0.9,0.7c-0.6,1.1-0.3,2.5-0.3,3.6c0,0.6,0,1.2-0.1,1.7
				c-0.5-0.2-0.6-0.8-0.6-1c0-0.2-0.2-0.1-0.4,0c-0.2,0.1-0.3,0.3-0.4,0.4c-0.1,0.2-0.2,0.3-0.2,0.5c0,0,0,0,0,0
				c-0.1,0.4-0.1,0.6-0.5,0.7c-0.2,0-0.4,0-0.5,0c-0.4-0.1-0.7-0.5-1-0.8c-0.7-1-1-2.2-1.1-3.4c-0.1-0.6-0.1-1.2,0-1.9
				c0-0.2,0.1-0.5,0.2-0.7c0-0.1,0.1-0.3,0.1-0.3c0,0,0-0.1,0.1-0.1c0,0,0,0,0,0c0,0,0,0,0,0c0,0,0,0,0,0c0,0,0,0,0,0
				c0,0,0,0,0.1-0.1c0.1,0,0.3-0.1,0.5-0.1c0.9-0.1,1.3,0.7,1.5,1.3c0.2,0.5,1.3-0.7,1.1-1.2c-0.3-0.8-0.8-1.7-1.9-1.5
				c-0.7,0.1-1.4,0.5-1.8,1c-1,1.3-1.2,3.2-1.1,4.8c0.2,1.5,0.6,3.1,1.6,4.2c0.3,0.4,0.9,0.6,1.4,0.5c0.7-0.1,1.1-0.6,1.5-1.1
				c0.3,0.5,0.8,0.7,1.4,0.2c0.6-0.5,0.9-1.3,1-2.1c0,0.1,0.1,0.3,0.1,0.4c0.1,0.4,0.3,0.8,0.7,1.1c0.4,0.3,1.2-0.3,1.2-0.3
				s0.1-0.1,0.2-0.2c0.3-0.3,0.5-0.6,0.6-0.9c0,0,0,0,0-0.1c0.2,0.6,0.6,1.1,1.3,1.1c0.7,0,1.2-0.5,1.6-1c0.1,0.2,0.2,0.4,0.3,0.5
				c0.6,0.7,1.7,0,2.1-0.5c0.1-0.1,0.3-0.3,0.4-0.5c0.2,0.7,0.5,1.3,1.2,1.3c1,0,1.8-1,2-1.9c0.2-0.6,0.4-1.7,0.1-2.5
				c0.1-0.1,0.2-0.1,0.3-0.2c0.2-0.1,0.5-0.3,0.7-0.5c0,1.7-0.1,3.3-0.3,4.9c-0.1,0.7,1.2-0.1,1.3-0.5c0.1-0.6,0.2-1.2,0.4-1.8
				c0.4,0.2,0.4,1.1,0.5,1.5c0,0.5,0,1.1,0.6,1.3c0.6,0.3,1.3,0,1.7-0.3c0.1-0.1,0.2-0.2,0.3-0.2c0.1,0.6,0.3,1.1,0.9,1.3
				c0.7,0.3,1.3,0,1.8-0.4c0.1,0.9,0.6,1.4,1.5,1.2c0.3-0.1,0.7-0.2,0.8-0.6C78.1,149.9,77.8,149.8,77.5,149.9z M65.1,142
				c0.1-0.9,0.2-1.8,0.6-2.6c0,0,0-0.1,0-0.1c0.2,0.1,0.3,0.4,0.3,0.6c0.2,0.8-0.3,1.8-0.5,2.6c-0.1,0.4-0.3,0.8-0.5,1.1
				C65.1,143.1,65.1,142.6,65.1,142z M66.3,147.5C66.2,147.6,66.2,147.6,66.3,147.5c-0.1,0.1-0.1,0.1-0.1,0.1
				c-0.6-0.2-0.7-1.7-0.8-2.1c0,0,0-0.1,0-0.1c0.1-0.2,0.3-0.5,0.4-0.7c0.1-0.1,0.2-0.1,0.3,0c0.1,0,0.2,0.1,0.2,0.2
				c0.3,0.4,0.3,1,0.3,1.4C66.5,146.7,66.4,147.1,66.3,147.5z"/>
		</g>
	</g>
	<g>
		<path class="st4" d="M48.9,159.5C48.9,159.5,48.9,159.5,48.9,159.5c-0.8,0.1-1.1,1-1.2,1.6c-0.1,0.5-0.1,2,0.7,2
			c0.8,0.1,1.1-1,1.2-1.6C49.7,161,49.7,159.6,48.9,159.5z M48.9,162.6c-0.4,0.2-0.6-0.8-0.6-1c0-0.2,0-1.5,0.2-1.5
			c0.4,0.1,0.5,0.7,0.6,1C49.1,161.3,49.2,162.5,48.9,162.6z"/>
		<path class="st4" d="M47.4,162.4c-0.3,0.2-0.7,0.1-1.1,0.1c-0.1,0-0.2,0-0.4,0c0,0,0.1-0.1,0.1-0.1c0.2-0.2,0.4-0.4,0.6-0.6
			c0.4-0.5,0.6-1,0.5-1.6c-0.2-1.3-1.7-0.3-1.9,0.4c-0.1,0.4,0.5,0,0.5-0.2c0.2-0.6,0.7-0.2,0.8,0.1c0.2,0.4,0,0.9-0.3,1.2
			c-0.2,0.3-0.5,0.5-0.8,0.7c-0.2,0.1-0.3,0.2-0.4,0.3c0,0.1-0.1,0.2,0,0.2c0.2,0.2,0.7,0.1,0.9,0.2c0.5,0,0.9,0,1.3-0.2
			C47.6,162.8,47.8,162.2,47.4,162.4z"/>
		<path class="st4" d="M52.3,159.9c-0.6,1-1.4,2-2.1,2.9c-0.3,0.4,0.2,0.4,0.4,0.1c0.8-1,1.6-2,2.2-3.1
			C53.1,159.4,52.5,159.7,52.3,159.9z"/>
		<path class="st4" d="M51,161c0.7,0,1.1-1.3,0.3-1.3c-0.4,0-0.7,0.4-0.7,0.7C50.4,160.7,50.6,161,51,161z M51.2,160.6
			C51.2,160.6,51.2,160.6,51.2,160.6L51.2,160.6z M50.9,160L50.9,160C50.9,160,50.9,160,50.9,160C50.9,160,50.9,160,50.9,160z
			 M50.9,160C50.9,160,51,160,50.9,160c0.2,0,0.3,0.2,0.4,0.3c0,0.1,0,0.1,0,0.2c0,0-0.1,0-0.1,0c-0.2,0-0.3-0.2-0.3-0.3
			C50.9,160.2,50.9,160.1,50.9,160z"/>
		<path class="st4" d="M52.3,161.8c-0.4,0-0.7,0.4-0.7,0.7c-0.1,0.3,0.1,0.6,0.5,0.6C52.7,163.2,53.1,161.8,52.3,161.8z M52,162.2
			L52,162.2C52,162.2,52,162.2,52,162.2C52,162.2,52,162.2,52,162.2z M52.3,162.8C52.3,162.8,52.3,162.8,52.3,162.8L52.3,162.8z
			 M52.3,162.7C52.3,162.7,52.3,162.7,52.3,162.7c-0.3,0-0.4-0.1-0.4-0.3c0-0.1,0-0.1,0-0.2c0,0,0,0,0.1,0c0.2,0,0.3,0.2,0.3,0.3
			C52.4,162.6,52.4,162.7,52.3,162.7z"/>
	</g>
	<g>
		<path class="st9" d="M41.1,136.7c-0.1,0-0.2-0.2-0.3-0.2c-0.4-0.1-0.7,0.1-1.1,0.1c-0.9,0-1.2,0-2.3-0.3c0-0.9,0.5-1.5,0.8-2.2
			c0.2-0.6-0.1-1.4-0.1-2.1c0-0.4,0-0.9,0-1.3c-0.3,0.3-0.2,1.1-0.2,1.5c-0.1-0.5-0.1-1.3-0.3-1.7c-0.1,0.5,0,1.3,0,1.7
			c-0.2-0.5-0.2-1.1-0.4-1.5c-0.2,0.5,0.2,1.2,0.1,1.7c-0.2-0.4-0.3-1-0.5-1.4c-0.1,0.6,0.2,1.1,0.2,1.5c-0.2-0.4-0.3-0.8-0.6-1
			c0,0.4,0.2,0.8,0.4,1.2c-0.3-0.1-0.3-0.4-0.6-0.5c0,0.3,0.2,0.5,0.3,0.7c-0.2-0.1-0.3-0.3-0.5-0.4c0,0.3,0.2,0.3,0.3,0.6
			c-0.1-0.1-0.2-0.2-0.4-0.3c0,0.2,0.3,0.3,0.3,0.5c0,0-0.2-0.1-0.2,0c0,0,0.2,0.1,0.1,0.2c-0.1,0-0.1,0-0.2,0
			c0,0.1,0.2,0.1,0.1,0.2c-0.1,0-0.1-0.1-0.1,0c0,0.1,0.1,0.1,0.1,0.2c-0.8,0.8-0.3,1.7-0.4,2.6c0-0.1-0.6-0.3-1.2-0.5
			c-0.3-0.1-0.3-0.4-0.6-0.6c0-0.1,0.1,0,0.1-0.1c-0.1,0-0.2-0.1-0.2-0.2c0.1,0,0.3,0.1,0.3,0c-0.1-0.1-0.5-0.2-0.4-0.3
			c0.2,0,0.4,0.1,0.5,0.1c-0.2-0.1-0.6-0.3-0.6-0.5c0.2,0.1,0.5,0.3,0.7,0.2c-0.3-0.2-0.8-0.4-0.9-0.7c0.2,0.1,0.5,0.4,0.8,0.4
			c-0.4-0.1-0.7-0.5-1.1-0.5c0.2,0.3,0.7,0.5,0.9,0.8c-0.3-0.2-0.6-0.3-0.9-0.5c0.1,0.4,0.5,0.5,0.8,0.7c-0.3,0-0.4-0.2-0.7-0.2
			c0.1,0.3,0.5,0.2,0.7,0.5c-0.1-0.1-0.3,0-0.5,0c0,0.2,0.3,0.1,0.5,0.2c-0.2,0-0.3,0-0.4,0.1c0.1,0.1,0.3,0.1,0.4,0.2
			c-0.1,0-0.2,0-0.2,0.1c0,0.1,0.2,0,0.3,0.1c-0.1,0-0.1,0.1-0.1,0.1c0.1,0,0.2,0,0.2,0c0,0-0.1,0-0.1,0.1c0.4,0.2,0.6,0.9,1.2,1.1
			c-0.3,0.2,0.3,0.4-3.3,1.7c0.1,0,1.6-0.4,2-0.5c0.4-0.2,0.9-0.3,1.3-0.4c0.1,0,0.2-0.1,0.3-0.1c0.8-0.1,1.4,0.1,2.1-0.4
			c-0.6,0.1-1.5,0.2-1.9-0.1c0.5-0.8,0.2-2.7,0.5-3.1c0.4-0.4,1-1.6,1.7-0.6c0.1,0.2,0.1,0.4-0.1,0.9c-0.3,0.5-0.5,0.8-0.5,2
			c0,0.2,0,0.5-0.4,0.5c1.6,0.3,2,0.2,2.9,0c0.3,0,0.7-0.3,0.8,0c0,0.1-0.3,0.1-0.6,0.1c-0.4,0,0.2,0.2,0.4,0.1
			c0.1,0,0.9-0.1,1.4-0.2C41.6,136.8,41.4,136.8,41.1,136.7z"/>
		<path class="st9" d="M36.6,128.7c-3.6,0-6.5,2.9-6.5,6.5c0,3.6,2.9,6.5,6.5,6.5c3.6,0,6.5-2.9,6.5-6.5
			C43,131.6,40.1,128.7,36.6,128.7 M36.6,128.9c3.4,0,6.2,2.8,6.2,6.2c0,3.4-2.8,6.2-6.2,6.2c-3.4,0-6.2-2.8-6.2-6.2
			C30.3,131.7,33.1,128.9,36.6,128.9"/>
	</g>
</g>
</svg>
