<?xml version="1.0" encoding="utf-8"?>
<!-- Generator: Adobe Illustrator 19.0.0, SVG Export Plug-In . SVG Version: 6.00 Build 0)  -->
<svg version="1.1" xmlns="http://www.w3.org/2000/svg" xmlns:xlink="http://www.w3.org/1999/xlink" x="0px" y="0px"
	 viewBox="0 0 318 213" style="enable-background:new 0 0 318 213;" xml:space="preserve">
<style type="text/css">
	.st0{fill:#519E38;}
	.st1{fill:#FEBEBD;}
	.st2{fill:#9D360A;}
	.st3{fill:#CA655F;}
	.st4{fill:#0E3656;}
	.st5{fill:#446666;}
	.st6{fill:#FFFFFF;}
	.st7{fill:#F4E6C6;}
	.st8{fill:none;stroke:#FCF1D9;stroke-width:10;stroke-linecap:round;stroke-miterlimit:10;}
</style>
<g id="Layer_2">
</g>
<g id="kolba_4">
</g>
<g id="kolba_3">
</g>
<g id="kolby">
</g>
<g id="doma">
</g>
<g id="butylka_3">
</g>
<g id="butylka_2">
</g>
<g id="butylka_1">
</g>
<g id="vanna_2">
</g>
<g id="sneg">
</g>
<g id="vanna_1">
</g>
<g id="shariki_2">
</g>
<g id="shariki_1">
</g>
<g id="voronka">
</g>
<g id="gradusnik">
</g>
<g id="kolba_2">
</g>
<g id="kolba_1">
</g>
<g id="probirki">
</g>
<g id="zavod">
</g>
<g id="blank">
</g>
<g id="ticks">
</g>
<g id="car">
</g>
<g id="lupa">
	<path class="st0" d="M222.7,77c-24.6-45.8-78-20.2-78-20.2s-16.4,8.2-49.6,2.4c-27.8-4.8-40.1,21.2-36.3,35
		c-1.5,7.3-0.2,14.2,4.1,17.3c12,8.7,28.4,13,50.6,11.6c22.2-1.4,83.8,8.7,83.8,8.7s37.3,1.4,31.7-27.7
		C230.5,97.7,229.2,89,222.7,77z"/>
	<path class="st1" d="M194,114.8c0,0,50.1,1.9,25.5-43.8s-78-20.2-78-20.2s-16.4,8.2-49.6,2.4S47.5,85.9,59.6,94.5
		s28.4,13,50.6,11.6C132.3,104.7,194,114.8,194,114.8z"/>
	<path class="st2" d="M194,114.6c0,0-61.7-10.1-83.8-8.7C88,107.3,71.6,103,59.6,94.3c-2-1.4-3.3-3.7-4-6.4
		c-1.6,7.4-0.3,14.4,4,17.5c12,8.7,28.4,13,50.6,11.6c22.2-1.4,83.8,8.7,83.8,8.7s37.5,1.4,31.7-27.9
		C221.1,115.6,194,114.6,194,114.6z"/>
	<path class="st3" d="M102.9,62.8c0,0-19.6-10.6-34.4,1.6s-9,36.6,21.5,34.7c30.5-1.9,34,1.3,35-3.2C126,91.3,102.9,62.8,102.9,62.8
		z"/>
	<path class="st3" d="M193.8,106.8c0,0,27.6,6.7,28.3-18.9s-27-15.9-27-15.9s-8,9-15.1,9.6c-7.1,0.6-19.9,1.9-14.1,11.9
		S193.8,106.8,193.8,106.8z"/>
	<path class="st3" d="M205.7,63.7c0,0-5.1-21.2-49.5-11.6s4.2,6.1,10.6,10.3S191.2,74.7,205.7,63.7z"/>
	<path class="st3" d="M128.9,94.2c0,0,6.7,6.4,16.1,6.7c9.3,0.3,17.3,2.2,19.4,0c2.1-2.2-23.8-22.1-23.8-22.1s-28.7-18-31.3-17
		C106.7,62.8,128.9,94.2,128.9,94.2z"/>
	<path class="st3" d="M174.2,72.4c0,0-9-8-20.2-8.3c-11.2-0.3-16.1-4.7-19.3-4.6s-12.5,3.1,0,9.8s15.5,11,25,12.7
		C169.3,83.6,182.2,75.3,174.2,72.4z"/>
	<g>
		<path class="st4" d="M248.6,74.6c-13.8-13.8-36.2-13.8-49.9,0c-13.8,13.8-13.8,36.2,0,49.9c13.8,13.8,36.2,13.8,49.9,0
			C262.4,110.7,262.4,88.4,248.6,74.6z M242.4,118.3c-5,5-11.7,7.8-18.7,7.8c-7.1,0-13.7-2.8-18.7-7.8c-5-5-7.8-11.7-7.8-18.7
			c0-7.1,2.8-13.7,7.8-18.7c5-5,11.7-7.8,18.7-7.8c7.1,0,13.7,2.8,18.7,7.8c5,5,7.8,11.7,7.8,18.7
			C250.2,106.6,247.4,113.3,242.4,118.3z"/>
		<g>
			<g>
				<g>
					<g>
						
							<rect x="256.7" y="119.3" transform="matrix(0.7071 -0.7071 0.7071 0.7071 -20.3935 224.7654)" class="st5" width="8.8" height="35.3"/>
					</g>
				</g>
			</g>
		</g>
		<g>
			<g>
				<g>
					<g>
						
							<rect x="264.8" y="125.9" transform="matrix(0.7071 -0.7071 0.7071 0.7071 -25.5603 237.2716)" class="st4" width="17.7" height="47.1"/>
					</g>
				</g>
			</g>
		</g>
		<g>
			<g>
				<g>
					<g>
						<g>
							<path class="st6" d="M216.4,113.1c-1.7,1.7-4.5,1.7-6.2,0c-3.6-3.6-5.6-8.4-5.6-13.5c0-5.1,2-9.9,5.6-13.5
								c1.7-1.7,4.5-1.7,6.2,0c1.7,1.7,1.7,4.5,0,6.2c-1.9,1.9-3,4.5-3,7.3c0,2.8,1.1,5.3,3,7.3
								C218.1,108.5,218.1,111.3,216.4,113.1z"/>
						</g>
					</g>
				</g>
			</g>
		</g>
	</g>
	<g>
		<path class="st0" d="M176.4,143.2c0,0-6.5-29-38.2-24s-59.7,28.2-71.1,34.7c-11.4,6.4,46.7,16.1,71.1,12.5
			C162.6,162.9,176.7,158.6,176.4,143.2z"/>
		<path class="st7" d="M172.4,137c0,0-6.5-29-38.2-24c-31.7,5-59.7,28.2-71.1,34.7c-11.4,6.4,46.7,16.1,71.1,12.5
			S172.6,152.3,172.4,137z"/>
		<path class="st8" d="M137.8,121.9c0,0-9.6,0.8-23.2,6.6"/>
	</g>
</g>
</svg>
