<?xml version="1.0" encoding="utf-8"?>
<!-- Generator: Adobe Illustrator 19.0.0, SVG Export Plug-In . SVG Version: 6.00 Build 0)  -->
<svg version="1.1" xmlns="http://www.w3.org/2000/svg" xmlns:xlink="http://www.w3.org/1999/xlink" x="0px" y="0px"
	 viewBox="0 0 321 199.5" style="enable-background:new 0 0 321 199.5;" xml:space="preserve">
<style type="text/css">
	.st0{fill:#519E38;}
	.st1{fill:#E29A9A;}
	.st2{fill:#FEBEBD;}
	.st3{fill:url(#SVGID_1_);}
	.st4{fill:url(#SVGID_2_);}
	.st5{fill:url(#SVGID_3_);}
	.st6{fill:url(#SVGID_4_);}
	.st7{fill:url(#SVGID_5_);}
	.st8{fill:#FFFFFF;}
</style>
<g id="kotlety">
	<path class="st0" d="M118.4,60c-0.3-9.2-13.5-16.7-29.7-16.7C72.4,43.3,59.2,50.8,59,60h0v10.1h0c0.6,9.1,13.7,16.3,29.7,16.3
		c16,0,29.1-7.2,29.7-16.3h0L118.4,60L118.4,60z"/>
	<path class="st0" d="M196.5,60c-0.3-9.2-13.5-16.7-29.7-16.7c-16.3,0-29.5,7.4-29.7,16.7h0v10.1h0c0.6,9.1,13.7,16.3,29.7,16.3
		c16,0,29.1-7.2,29.7-16.3h0L196.5,60L196.5,60z"/>
	<path class="st0" d="M271.8,60c-0.3-9.2-13.5-16.7-29.7-16.7c-16.3,0-29.5,7.4-29.7,16.7h0v10.1h0c0.6,9.1,13.7,16.3,29.7,16.3
		c16,0,29.1-7.2,29.7-16.3h0L271.8,60L271.8,60z"/>
	<path class="st0" d="M118.4,126.2c-0.3-9.2-13.5-16.7-29.7-16.7c-16.3,0-29.5,7.4-29.7,16.7h0v10.1h0c0.6,9.1,13.7,16.3,29.7,16.3
		c16,0,29.1-7.2,29.7-16.3h0L118.4,126.2L118.4,126.2z"/>
	<path class="st0" d="M196.5,126.2c-0.3-9.2-13.5-16.7-29.7-16.7c-16.3,0-29.5,7.4-29.7,16.7h0v10.1h0c0.6,9.1,13.7,16.3,29.7,16.3
		c16,0,29.1-7.2,29.7-16.3h0L196.5,126.2L196.5,126.2z"/>
	<path class="st0" d="M271.8,126.2c-0.3-9.2-13.5-16.7-29.7-16.7c-16.3,0-29.5,7.4-29.7,16.7h0v10.1h0c0.6,9.1,13.7,16.3,29.7,16.3
		c16,0,29.1-7.2,29.7-16.3h0L271.8,126.2L271.8,126.2z"/>
	<ellipse class="st1" cx="83.3" cy="131.1" rx="29.7" ry="17"/>
	<rect x="53.6" y="121.6" class="st1" width="59.5" height="10.1"/>
	<ellipse class="st2" cx="83.3" cy="121.9" rx="29.7" ry="17"/>
	<ellipse class="st1" cx="162.4" cy="131.1" rx="29.7" ry="17"/>
	<rect x="132.6" y="121.6" class="st1" width="59.5" height="10.1"/>
	<ellipse class="st2" cx="162.4" cy="121.9" rx="29.7" ry="17"/>
	<ellipse class="st1" cx="236.5" cy="131.1" rx="29.7" ry="17"/>
	<rect x="206.8" y="121.6" class="st1" width="59.5" height="10.1"/>
	<ellipse class="st2" cx="236.5" cy="121.9" rx="29.7" ry="17"/>
	<ellipse class="st1" cx="83.3" cy="64.8" rx="29.7" ry="17"/>
	<rect x="53.6" y="55.4" class="st1" width="59.5" height="10.1"/>
	<ellipse class="st2" cx="83.3" cy="55.7" rx="29.7" ry="17"/>
	<ellipse class="st1" cx="162.4" cy="64.8" rx="29.7" ry="17"/>
	<rect x="132.6" y="55.4" class="st1" width="59.5" height="10.1"/>
	<ellipse class="st2" cx="162.4" cy="55.7" rx="29.7" ry="17"/>
	<ellipse class="st1" cx="236.5" cy="64.8" rx="29.7" ry="17"/>
	<rect x="206.8" y="55.4" class="st1" width="59.5" height="10.1"/>
	<ellipse class="st2" cx="236.5" cy="55.7" rx="29.7" ry="17"/>
</g>
<g id="snow">
	<g>
		<linearGradient id="SVGID_1_" gradientUnits="userSpaceOnUse" x1="244.0929" y1="15.3528" x2="260.0804" y2="60.6506">
			<stop  offset="0" style="stop-color:#404B71"/>
			<stop  offset="0.6044" style="stop-color:#3C476E"/>
			<stop  offset="1" style="stop-color:#354169"/>
		</linearGradient>
		<path class="st3" d="M247.7,56.3l-1.7-6.4l1.6-2.7l0.2,0.8c0.2,0.8,1.1,1.3,1.9,1.1c0.1,0,0.3-0.1,0.4-0.2
			c0.6-0.3,0.9-1.1,0.7-1.8l-1-3.9l1.9-3.3l1.9,3.3l-1,3.9c-0.2,0.8,0.3,1.7,1.1,1.9c0.4,0.1,0.9,0,1.2-0.2c0.4-0.2,0.6-0.5,0.7-1
			l0.2-0.8l1.6,2.7l-1.7,6.4c-0.2,0.8,0.3,1.7,1.1,1.9c0.4,0.1,0.9,0,1.2-0.2c0.4-0.2,0.6-0.5,0.7-1l0.9-3.3l2.5,4.4
			c0.4,0.8,1.4,1,2.2,0.6c0.8-0.4,1-1.4,0.6-2.2l-2.5-4.4l3.3,0.9c0.4,0.1,0.9,0,1.2-0.2c0.4-0.2,0.6-0.5,0.7-1
			c0.2-0.8-0.3-1.7-1.1-1.9l-6.4-1.7l-1.6-2.7l0.8,0.2c0.4,0.1,0.9,0,1.2-0.2c0.4-0.2,0.6-0.5,0.7-1c0.2-0.8-0.3-1.7-1.1-1.9l-3.8-1
			l-1.9-3.3h3.8l2.8,2.8c0.5,0.5,1.3,0.6,1.9,0.3c0.1-0.1,0.2-0.2,0.3-0.3c0.6-0.6,0.6-1.6,0-2.2l-0.6-0.6l3.1,0l4.7,4.7
			c0.5,0.5,1.3,0.6,1.9,0.3c0.1-0.1,0.2-0.2,0.3-0.3c0.6-0.6,0.6-1.6,0-2.2l-2.4-2.4l5,0c0.3,0,0.6-0.1,0.8-0.2
			c0.5-0.3,0.8-0.8,0.8-1.4c0-0.9-0.7-1.6-1.6-1.6h-5l2.4-2.4c0.6-0.6,0.6-1.6,0-2.2c-0.6-0.6-1.6-0.6-2.2,0l-4.7,4.7h-3.1l0.6-0.6
			c0.6-0.6,0.6-1.6,0-2.2c-0.6-0.6-1.6-0.6-2.2,0l-2.8,2.8h-3.8l1.9-3.3l3.9-1c0.1,0,0.3-0.1,0.4-0.2c0.6-0.3,0.9-1.1,0.7-1.8
			c-0.2-0.8-1.1-1.3-1.9-1.1l-0.8,0.2l1.6-2.7l6.4-1.7c0.1,0,0.3-0.1,0.4-0.2c0.6-0.4,0.9-1.1,0.7-1.8c-0.2-0.8-1.1-1.3-1.9-1.1
			l-3.3,0.9l2.5-4.4c0.4-0.8,0.2-1.7-0.6-2.2c-0.8-0.4-1.7-0.2-2.2,0.6l-2.5,4.4l-0.9-3.3c-0.2-0.8-1.1-1.3-1.9-1.1
			c-0.8,0.2-1.4,1.1-1.1,1.9l1.7,6.4l-1.6,2.7l-0.2-0.8c-0.2-0.8-1.1-1.3-1.9-1.1c-0.8,0.2-1.3,1.1-1.1,1.9l1,3.9l-1.9,3.3l-1.9-3.3
			l1-3.9c0.2-0.8-0.3-1.7-1.1-1.9c-0.8-0.2-1.7,0.3-1.9,1.1l-0.2,0.8l-1.6-2.7l1.7-6.4c0.2-0.8-0.3-1.7-1.1-1.9
			c-0.8-0.2-1.7,0.3-1.9,1.1l-0.9,3.3l-2.5-4.4c-0.4-0.8-1.4-1-2.2-0.6c-0.8,0.4-1,1.4-0.6,2.2l2.5,4.4l-3.3-0.9
			c-0.8-0.2-1.7,0.3-1.9,1.1c-0.2,0.8,0.3,1.7,1.1,1.9l6.4,1.7l1.6,2.7l-0.8-0.2c-0.8-0.2-1.7,0.3-1.9,1.1c-0.2,0.8,0.3,1.7,1.1,1.9
			l3.8,1l1.9,3.3h-3.8l-2.8-2.8c-0.6-0.6-1.6-0.6-2.2,0c-0.6,0.6-0.6,1.6,0,2.2l0.6,0.6h-3.1l-4.7-4.7c-0.6-0.6-1.6-0.6-2.2,0
			c-0.6,0.6-0.6,1.6,0,2.2l2.4,2.4h-5c-0.9,0-1.6,0.7-1.6,1.6c0,0.9,0.7,1.6,1.6,1.6l5,0l-2.4,2.4c-0.6,0.6-0.6,1.6,0,2.2
			c0.5,0.5,1.3,0.6,1.9,0.3c0.1-0.1,0.2-0.2,0.3-0.3l4.7-4.7h3.1L240,39c-0.6,0.6-0.6,1.6,0,2.2c0.5,0.5,1.3,0.6,1.9,0.3
			c0.1-0.1,0.2-0.2,0.3-0.3l2.8-2.8h3.8l-1.9,3.3l-3.9,1c-0.8,0.2-1.3,1.1-1.1,1.9c0.2,0.8,1.1,1.3,1.9,1.1l0.8-0.2l-1.6,2.7
			l-6.4,1.7c-0.8,0.2-1.3,1.1-1.1,1.9c0.2,0.8,1.1,1.3,1.9,1.1l3.3-0.9l-2.5,4.4c-0.4,0.8-0.2,1.7,0.6,2.2c0.5,0.3,1.1,0.3,1.6,0
			c0.2-0.1,0.4-0.3,0.6-0.6l2.5-4.4l0.9,3.3c0.2,0.8,1.1,1.3,1.9,1.1c0.1,0,0.3-0.1,0.4-0.2C247.5,57.7,247.9,57,247.7,56.3z"/>
		<linearGradient id="SVGID_2_" gradientUnits="userSpaceOnUse" x1="125.4756" y1="79.1716" x2="130.3094" y2="92.8673">
			<stop  offset="0" style="stop-color:#404B71"/>
			<stop  offset="0.6044" style="stop-color:#3C476E"/>
			<stop  offset="1" style="stop-color:#354169"/>
		</linearGradient>
		<path class="st4" d="M126.6,91.6l-0.5-1.9l0.5-0.8l0.1,0.2c0.1,0.3,0.3,0.4,0.6,0.3c0,0,0.1,0,0.1,0c0.2-0.1,0.3-0.3,0.2-0.5
			l-0.3-1.2l0.6-1l0.6,1l-0.3,1.2c-0.1,0.3,0.1,0.5,0.3,0.6c0.1,0,0.3,0,0.4,0c0.1-0.1,0.2-0.2,0.2-0.3l0.1-0.2l0.5,0.8l-0.5,1.9
			c-0.1,0.3,0.1,0.5,0.3,0.6c0.1,0,0.3,0,0.4,0c0.1-0.1,0.2-0.2,0.2-0.3l0.3-1l0.8,1.3c0.1,0.2,0.4,0.3,0.7,0.2
			c0.2-0.1,0.3-0.4,0.2-0.7l-0.8-1.3l1,0.3c0.1,0,0.3,0,0.4,0c0.1-0.1,0.2-0.2,0.2-0.3c0.1-0.3-0.1-0.5-0.3-0.6l-1.9-0.5l-0.5-0.8
			l0.2,0.1c0.1,0,0.3,0,0.4,0c0.1-0.1,0.2-0.2,0.2-0.3c0.1-0.3-0.1-0.5-0.3-0.6l-1.2-0.3l-0.6-1h1.2l0.9,0.9
			c0.2,0.2,0.4,0.2,0.6,0.1c0,0,0.1,0,0.1-0.1c0.2-0.2,0.2-0.5,0-0.7l-0.2-0.2h0.9l1.4,1.4c0.2,0.2,0.4,0.2,0.6,0.1
			c0,0,0.1,0,0.1-0.1c0.2-0.2,0.2-0.5,0-0.7l-0.7-0.7h1.5c0.1,0,0.2,0,0.2-0.1c0.1-0.1,0.2-0.2,0.2-0.4c0-0.3-0.2-0.5-0.5-0.5h-1.5
			l0.7-0.7c0.2-0.2,0.2-0.5,0-0.7c-0.2-0.2-0.5-0.2-0.7,0l-1.4,1.4h-0.9l0.2-0.2c0.2-0.2,0.2-0.5,0-0.7c-0.2-0.2-0.5-0.2-0.7,0
			l-0.9,0.9h-1.2l0.6-1l1.2-0.3c0,0,0.1,0,0.1,0c0.2-0.1,0.3-0.3,0.2-0.5c-0.1-0.3-0.3-0.4-0.6-0.3l-0.2,0.1l0.5-0.8l1.9-0.5
			c0,0,0.1,0,0.1,0c0.2-0.1,0.3-0.3,0.2-0.5c-0.1-0.3-0.3-0.4-0.6-0.3l-1,0.3l0.8-1.3c0.1-0.2,0.1-0.5-0.2-0.7
			c-0.2-0.1-0.5-0.1-0.7,0.2l-0.8,1.3l-0.3-1c-0.1-0.3-0.3-0.4-0.6-0.3c-0.3,0.1-0.4,0.3-0.3,0.6l0.5,1.9l-0.5,0.8l-0.1-0.2
			c-0.1-0.3-0.3-0.4-0.6-0.3c-0.3,0.1-0.4,0.3-0.3,0.6l0.3,1.2l-0.6,1l-0.6-1l0.3-1.2c0.1-0.3-0.1-0.5-0.3-0.6
			c-0.3-0.1-0.5,0.1-0.6,0.3l-0.1,0.2l-0.5-0.8l0.5-1.9c0.1-0.3-0.1-0.5-0.3-0.6c-0.3-0.1-0.5,0.1-0.6,0.3l-0.3,1l-0.8-1.3
			c-0.1-0.2-0.4-0.3-0.7-0.2c-0.2,0.1-0.3,0.4-0.2,0.7l0.8,1.3l-1-0.3c-0.3-0.1-0.5,0.1-0.6,0.3c-0.1,0.3,0.1,0.5,0.3,0.6l1.9,0.5
			l0.5,0.8l-0.2-0.1c-0.3-0.1-0.5,0.1-0.6,0.3c-0.1,0.3,0.1,0.5,0.3,0.6l1.2,0.3l0.6,1h-1.2l-0.9-0.9c-0.2-0.2-0.5-0.2-0.7,0
			c-0.2,0.2-0.2,0.5,0,0.7l0.2,0.2h-0.9l-1.4-1.4c-0.2-0.2-0.5-0.2-0.7,0c-0.2,0.2-0.2,0.5,0,0.7l0.7,0.7h-1.5
			c-0.3,0-0.5,0.2-0.5,0.5c0,0.3,0.2,0.5,0.5,0.5h1.5l-0.7,0.7c-0.2,0.2-0.2,0.5,0,0.7c0.2,0.2,0.4,0.2,0.6,0.1c0,0,0.1,0,0.1-0.1
			l1.4-1.4h0.9l-0.2,0.2c-0.2,0.2-0.2,0.5,0,0.7c0.2,0.2,0.4,0.2,0.6,0.1c0,0,0.1,0,0.1-0.1l0.9-0.9h1.2l-0.6,1l-1.2,0.3
			c-0.3,0.1-0.4,0.3-0.3,0.6c0.1,0.3,0.3,0.4,0.6,0.3l0.2-0.1l-0.5,0.8l-1.9,0.5c-0.3,0.1-0.4,0.3-0.3,0.6c0.1,0.3,0.3,0.4,0.6,0.3
			l1-0.3l-0.8,1.3c-0.1,0.2-0.1,0.5,0.2,0.7c0.2,0.1,0.3,0.1,0.5,0c0.1,0,0.1-0.1,0.2-0.2l0.8-1.3l0.3,1c0.1,0.3,0.3,0.4,0.6,0.3
			c0,0,0.1,0,0.1,0C126.5,92,126.6,91.8,126.6,91.6z"/>
		<linearGradient id="SVGID_3_" gradientUnits="userSpaceOnUse" x1="60.5859" y1="103.732" x2="71.0062" y2="133.256">
			<stop  offset="0" style="stop-color:#404B71"/>
			<stop  offset="0.6044" style="stop-color:#3C476E"/>
			<stop  offset="1" style="stop-color:#354169"/>
		</linearGradient>
		<path class="st5" d="M62.9,130.4l-1.1-4.2l1-1.8L63,125c0.1,0.6,0.7,0.9,1.3,0.7c0.1,0,0.2-0.1,0.2-0.1c0.4-0.2,0.6-0.7,0.5-1.2
			l-0.7-2.5l1.2-2.2l1.2,2.2l-0.7,2.5c-0.1,0.6,0.2,1.1,0.7,1.3c0.3,0.1,0.6,0,0.8-0.1c0.2-0.1,0.4-0.4,0.5-0.6l0.1-0.5l1,1.8
			l-1.1,4.2c-0.1,0.6,0.2,1.1,0.7,1.3c0.3,0.1,0.6,0,0.8-0.1c0.2-0.1,0.4-0.4,0.5-0.6l0.6-2.2l1.6,2.8c0.3,0.5,0.9,0.7,1.4,0.4
			c0.5-0.3,0.7-0.9,0.4-1.4l-1.6-2.8l2.2,0.6c0.3,0.1,0.6,0,0.8-0.1c0.2-0.1,0.4-0.4,0.5-0.6c0.1-0.6-0.2-1.1-0.7-1.3l-4.2-1.1
			l-1-1.8l0.5,0.1c0.3,0.1,0.6,0,0.8-0.1c0.2-0.1,0.4-0.4,0.5-0.6c0.1-0.6-0.2-1.1-0.7-1.3l-2.5-0.7l-1.2-2.2h2.5l1.8,1.8
			c0.3,0.3,0.9,0.4,1.2,0.2c0.1,0,0.1-0.1,0.2-0.2c0.4-0.4,0.4-1.1,0-1.5l-0.4-0.4l2,0l3,3c0.3,0.3,0.9,0.4,1.2,0.2
			c0.1,0,0.1-0.1,0.2-0.2c0.4-0.4,0.4-1.1,0-1.5l-1.6-1.6l3.3,0c0.2,0,0.4,0,0.5-0.1c0.3-0.2,0.5-0.5,0.5-0.9c0-0.6-0.5-1-1-1h-3.3
			l1.6-1.6c0.4-0.4,0.4-1.1,0-1.5c-0.4-0.4-1.1-0.4-1.5,0l-3,3h-2l0.4-0.4c0.4-0.4,0.4-1.1,0-1.5c-0.4-0.4-1.1-0.4-1.5,0l-1.8,1.8
			h-2.5l1.2-2.2l2.5-0.7c0.1,0,0.2-0.1,0.2-0.1c0.4-0.2,0.6-0.7,0.5-1.2c-0.1-0.6-0.7-0.9-1.3-0.7L70,112l1-1.8l4.2-1.1
			c0.1,0,0.2-0.1,0.2-0.1c0.4-0.2,0.6-0.7,0.5-1.2c-0.1-0.6-0.7-0.9-1.3-0.7l-2.2,0.6l1.6-2.8c0.3-0.5,0.1-1.1-0.4-1.4
			c-0.5-0.3-1.1-0.1-1.4,0.4l-1.6,2.8l-0.6-2.2c-0.1-0.6-0.7-0.9-1.3-0.7c-0.5,0.1-0.9,0.7-0.7,1.3l1.1,4.2l-1,1.8l-0.1-0.5
			c-0.1-0.6-0.7-0.9-1.3-0.7c-0.6,0.2-0.9,0.7-0.7,1.3l0.7,2.5l-1.2,2.2l-1.2-2.2L65,111c0.1-0.6-0.2-1.1-0.7-1.3
			c-0.6-0.1-1.1,0.2-1.3,0.7l-0.1,0.5l-1-1.8l1.1-4.2c0.1-0.6-0.2-1.1-0.7-1.3c-0.6-0.1-1.1,0.2-1.3,0.7l-0.6,2.2l-1.6-2.8
			c-0.3-0.5-0.9-0.7-1.4-0.4c-0.5,0.3-0.7,0.9-0.4,1.4l1.6,2.8l-2.2-0.6c-0.6-0.1-1.1,0.2-1.3,0.7c-0.1,0.6,0.2,1.1,0.7,1.3l4.2,1.1
			l1,1.8l-0.5-0.1c-0.6-0.1-1.1,0.2-1.3,0.7c-0.1,0.6,0.2,1.1,0.7,1.3l2.5,0.7l1.2,2.2h-2.5l-1.8-1.8c-0.4-0.4-1.1-0.4-1.5,0
			c-0.4,0.4-0.4,1.1,0,1.5l0.4,0.4h-2l-3-3c-0.4-0.4-1.1-0.4-1.5,0c-0.4,0.4-0.4,1.1,0,1.5l1.6,1.6h-3.3c-0.6,0-1,0.5-1,1
			c0,0.6,0.5,1,1,1l3.3,0l-1.6,1.6c-0.4,0.4-0.4,1.1,0,1.5c0.3,0.3,0.9,0.4,1.2,0.2c0.1,0,0.1-0.1,0.2-0.2l3-3h2l-0.4,0.4
			c-0.4,0.4-0.4,1.1,0,1.5c0.3,0.3,0.9,0.4,1.2,0.2c0.1,0,0.2-0.1,0.2-0.2l1.8-1.8h2.5l-1.2,2.2l-2.5,0.7c-0.5,0.2-0.9,0.7-0.7,1.3
			c0.1,0.6,0.7,0.9,1.3,0.7l0.5-0.1l-1,1.8l-4.2,1.1c-0.5,0.2-0.9,0.7-0.7,1.3c0.1,0.6,0.7,0.9,1.3,0.7l2.2-0.6l-1.6,2.8
			c-0.3,0.5-0.1,1.1,0.4,1.4c0.3,0.2,0.7,0.2,1,0c0.2-0.1,0.3-0.2,0.4-0.4l1.6-2.8l0.6,2.2c0.1,0.6,0.7,0.9,1.3,0.7
			c0.1,0,0.2-0.1,0.3-0.1C62.8,131.4,63,130.9,62.9,130.4z"/>
		<linearGradient id="SVGID_4_" gradientUnits="userSpaceOnUse" x1="177.6346" y1="106.1252" x2="206.7328" y2="174.2274">
			<stop  offset="0" style="stop-color:#404B71"/>
			<stop  offset="0.6044" style="stop-color:#3C476E"/>
			<stop  offset="1" style="stop-color:#354169"/>
		</linearGradient>
		<path class="st6" d="M225.1,136.6l-6.3,0l3-3c0.8-0.8,0.8-2,0-2.8c-0.8-0.8-2-0.8-2.8,0l-5.9,5.9l-3.9,0l1.7-1.7
			c0.8-0.8,0.8-2,0-2.8c-0.8-0.8-2-0.8-2.8,0l-4.6,4.6h-3.8l0.1-0.1c0.8-0.8,0.8-2,0.1-2.7c-0.3-1-1.4-1.6-2.4-1.3l-0.2,0l1.9-3.3
			l6.2-1.7c0.2,0,0.3-0.1,0.5-0.2c0.8-0.4,1.2-1.4,0.9-2.2c-0.3-1.1-1.4-1.7-2.4-1.4l-2.4,0.6l2-3.4l8-2.1c0.2,0,0.3-0.1,0.5-0.2
			c0.8-0.4,1.2-1.4,0.9-2.2c-0.3-1.1-1.4-1.7-2.4-1.4l-4.2,1.1l3.2-5.5c0.6-1,0.2-2.2-0.7-2.7c-1-0.5-2.2-0.2-2.7,0.7l-3.2,5.5
			l-1.1-4.2c-0.3-1.1-1.4-1.7-2.4-1.4c-1.1,0.3-1.7,1.4-1.4,2.4l2.1,8l-2,3.4l-0.6-2.4c-0.3-1.1-1.4-1.7-2.4-1.4
			c-1.1,0.3-1.7,1.4-1.4,2.4l1.7,6.2l-1.9,3.3l0-0.2c-0.3-1-1.3-1.7-2.4-1.4c-1-0.2-2.1,0.4-2.3,1.4l0,0.2l-1.9-3.3l1.7-6.2
			c0.3-1.1-0.3-2.2-1.4-2.4c-1.1-0.3-2.2,0.3-2.4,1.4l-0.6,2.4l-2-3.4l2.1-8c0.3-1.1-0.3-2.2-1.4-2.4c-1.1-0.3-2.2,0.3-2.4,1.4
			l-1.1,4.2l-3.2-5.5c-0.5-1-1.8-1.3-2.7-0.7c-1,0.5-1.3,1.8-0.7,2.7l3.2,5.5l-4.2-1.1c-1.1-0.3-2.2,0.3-2.4,1.4
			c-0.3,1.1,0.3,2.2,1.4,2.4l8,2.1l2,3.4l-2.4-0.6c-1.1-0.3-2.2,0.3-2.4,1.4c-0.3,1.1,0.3,2.2,1.4,2.4l6.2,1.7l1.9,3.3l-0.2,0
			c-1-0.3-2,0.3-2.4,1.3c-0.8,0.8-0.8,2,0,2.8l0.1,0.1l-3.8,0l-4.6-4.6c-0.8-0.8-2-0.8-2.8,0c-0.8,0.8-0.8,2,0,2.8l1.7,1.7l-3.9,0
			l-5.9-5.9c-0.8-0.8-2-0.8-2.8,0c-0.8,0.8-0.8,2,0,2.8l3,3h-6.3c-1.1,0-2,0.9-2,2c0,1.1,0.9,2,2,2l6.3,0l-3,3c-0.8,0.8-0.8,2,0,2.8
			c0.7,0.7,1.6,0.8,2.4,0.3c0.1-0.1,0.3-0.2,0.4-0.3l5.9-5.9l3.9,0l-1.7,1.7c-0.8,0.8-0.8,2,0,2.8c0.7,0.7,1.6,0.8,2.4,0.3
			c0.1-0.1,0.3-0.2,0.4-0.3l4.6-4.6l3.8,0l-0.1,0.1c-0.8,0.8-0.8,2-0.1,2.7c0.3,1,1.4,1.6,2.4,1.3l0.2,0l-1.9,3.3l-6.2,1.7
			c-1.1,0.3-1.7,1.4-1.4,2.4c0.3,1.1,1.4,1.7,2.4,1.4l2.4-0.6l-2,3.4l-8,2.1c-1.1,0.3-1.7,1.4-1.4,2.4c0.3,1.1,1.4,1.7,2.4,1.4
			l4.2-1.1l-3.2,5.5c-0.5,1-0.2,2.2,0.7,2.7c0.6,0.4,1.4,0.3,2,0c0.3-0.2,0.5-0.4,0.7-0.7l3.2-5.5l1.1,4.2c0.3,1.1,1.4,1.7,2.4,1.4
			c0.2,0,0.3-0.1,0.5-0.2c0.8-0.4,1.2-1.3,0.9-2.2l-2.1-8l2-3.4l0.6,2.4c0.3,1.1,1.4,1.7,2.4,1.4c0.2,0,0.3-0.1,0.5-0.2
			c0.8-0.4,1.2-1.3,0.9-2.2l-1.7-6.2l1.9-3.3l0,0.2c0.3,1,1.3,1.7,2.4,1.4c0.5,0.1,1,0,1.4-0.2c0.4-0.3,0.8-0.7,0.9-1.2l0-0.2
			l1.9,3.3l-1.7,6.2c-0.3,1.1,0.3,2.2,1.4,2.4c0.5,0.1,1.1,0.1,1.5-0.2c0.4-0.3,0.8-0.7,0.9-1.2l0.6-2.4l2,3.4l-2.1,8
			c-0.3,1.1,0.3,2.2,1.4,2.4c0.5,0.1,1.1,0.1,1.5-0.2c0.4-0.3,0.8-0.7,0.9-1.2l1.1-4.2l3.2,5.5c0.5,1,1.8,1.3,2.7,0.7
			c1-0.6,1.3-1.8,0.7-2.7l-3.2-5.5l4.2,1.1c0.5,0.1,1.1,0.1,1.5-0.2c0.4-0.3,0.8-0.7,0.9-1.2c0.3-1.1-0.3-2.2-1.4-2.4l-8-2.1l-2-3.4
			l2.4,0.6c0.5,0.1,1.1,0.1,1.5-0.2c0.4-0.3,0.8-0.7,0.9-1.2c0.3-1.1-0.3-2.2-1.4-2.4l-6.2-1.7l-1.9-3.3l0.2,0
			c0.5,0.1,1.1,0.1,1.5-0.2c0.4-0.2,0.7-0.6,0.9-1.1c0.8-0.8,0.8-2,0-2.8l-0.1-0.1h3.8l4.6,4.6c0.7,0.7,1.6,0.8,2.4,0.3
			c0.1-0.1,0.3-0.2,0.4-0.3c0.8-0.8,0.8-2,0-2.8l-1.7-1.7h3.9l5.9,5.9c0.7,0.7,1.6,0.8,2.4,0.3c0.1-0.1,0.3-0.2,0.4-0.3
			c0.8-0.8,0.8-2,0-2.8l-3-3h6.3c0.4,0,0.7-0.1,1-0.3c0.6-0.3,1-1,1-1.7C227.1,137.5,226.2,136.6,225.1,136.6z M192.8,140.8
			c-1.2,0.7-2.8,0.3-3.5-0.9c-0.7-1.2-0.3-2.8,0.9-3.5c1.2-0.7,2.8-0.3,3.5,0.9C194.4,138.6,194,140.1,192.8,140.8z"/>
		<linearGradient id="SVGID_5_" gradientUnits="userSpaceOnUse" x1="137.1002" y1="21.7358" x2="149.1221" y2="49.878">
			<stop  offset="0" style="stop-color:#404B71"/>
			<stop  offset="0.6044" style="stop-color:#3C476E"/>
			<stop  offset="1" style="stop-color:#354169"/>
		</linearGradient>
		<path class="st7" d="M158.6,36.1h-1l0.4-0.5c0.2-0.3,0.1-0.8-0.2-1c-0.3-0.2-0.8-0.1-1,0.2l-0.9,1.3h-1.5l2-2.8
			c0.2-0.3,0.1-0.8-0.2-1c-0.3-0.2-0.8-0.1-1,0.2l-2.6,3.7h-1.3l1.2-1.7c0.2-0.3,0.1-0.8-0.2-1c-0.3-0.2-0.8-0.1-1,0.2l-1.7,2.5
			h-0.9l0.4-0.5c0.2-0.3,0.1-0.8-0.2-1c-0.3-0.2-0.8-0.1-1,0.2l-0.9,1.3h-0.3l-0.8-1.5l0.2-0.3l1.6-0.1c0.4,0,0.7-0.4,0.7-0.8
			c0-0.4-0.4-0.7-0.8-0.7l-0.6,0.1l0.4-0.8l3-0.3c0.4,0,0.7-0.4,0.7-0.8c0-0.4-0.4-0.7-0.8-0.7l-2,0.2l0.7-1.1l4.5-0.4
			c0.4,0,0.7-0.4,0.7-0.8c0-0.4-0.4-0.7-0.8-0.7l-3.4,0.3l0.7-1.3l1.6-0.1c0.4,0,0.7-0.4,0.7-0.8c0-0.4-0.4-0.7-0.8-0.7l-0.6,0.1
			l0.5-0.9c0.2-0.3,0.1-0.8-0.3-1c-0.3-0.2-0.8-0.1-1,0.3l-0.5,0.9l-0.3-0.6c-0.2-0.4-0.6-0.5-1-0.4c-0.4,0.2-0.5,0.6-0.4,1l0.7,1.5
			l-0.7,1.3l-1.5-3.1c-0.2-0.4-0.6-0.5-1-0.3c-0.4,0.2-0.5,0.6-0.4,1l1.9,4.1l-0.7,1.1l-0.9-1.8c-0.2-0.4-0.6-0.5-1-0.4
			c-0.4,0.2-0.5,0.6-0.4,1l1.3,2.8l-0.4,0.8l-0.3-0.6c-0.2-0.4-0.6-0.5-1-0.3c-0.4,0.2-0.5,0.6-0.4,1l0.7,1.5l-0.2,0.3h-1.7
			l-0.2-0.3l0.7-1.5c0.2-0.4,0-0.8-0.4-1c-0.4-0.2-0.8,0-1,0.3l-0.3,0.6l-0.4-0.8l1.3-2.8c0.2-0.4,0-0.8-0.4-1c-0.4-0.2-0.8,0-1,0.3
			l-0.9,1.8l-0.7-1.1l1.9-4.1c0.2-0.4,0-0.8-0.4-1c-0.4-0.2-0.8,0-1,0.4l-1.5,3.1l-0.7-1.3l0.7-1.5c0.2-0.4,0-0.8-0.4-1
			c-0.4-0.2-0.8,0-1,0.4l-0.3,0.6l-0.5-0.9c-0.2-0.3-0.6-0.5-1-0.3c-0.3,0.2-0.5,0.6-0.3,1l0.5,0.9l-0.6-0.1c-0.4,0-0.8,0.3-0.8,0.7
			c0,0.4,0.3,0.8,0.7,0.8l1.6,0.1l0.7,1.3l-3.4-0.3c-0.4,0-0.8,0.3-0.8,0.7c0,0.4,0.3,0.8,0.7,0.8l4.5,0.4l0.7,1.1l-2-0.2
			c-0.4,0-0.8,0.3-0.8,0.7c0,0.4,0.3,0.8,0.7,0.8l3,0.3l0.4,0.8l-0.6-0.1c-0.4,0-0.8,0.3-0.8,0.7c0,0.4,0.3,0.8,0.7,0.8l1.6,0.1
			l0.2,0.3l-0.8,1.5h-0.3l-0.9-1.3c-0.2-0.3-0.7-0.4-1-0.2c-0.3,0.2-0.4,0.7-0.2,1l0.4,0.5h-0.9l-1.7-2.5c-0.2-0.3-0.7-0.4-1-0.2
			c-0.3,0.2-0.4,0.7-0.2,1l1.2,1.7h-1.3l-2.6-3.7c-0.2-0.3-0.7-0.4-1-0.2c-0.3,0.2-0.4,0.7-0.2,1l2,2.8h-1.5l-0.9-1.3
			c-0.2-0.3-0.7-0.4-1-0.2c-0.3,0.2-0.4,0.7-0.2,1l0.4,0.5h-1c-0.4,0-0.7,0.3-0.7,0.7c0,0.4,0.3,0.7,0.7,0.7h1l-0.4,0.5
			c-0.2,0.3-0.1,0.8,0.2,1c0.1,0.1,0.3,0.1,0.4,0.1c0.2,0,0.5-0.1,0.6-0.3l0.9-1.3h1.5l-2,2.8c-0.2,0.3-0.1,0.8,0.2,1
			c0.1,0.1,0.3,0.1,0.4,0.1c0.2,0,0.5-0.1,0.6-0.3l2.6-3.7h1.3l-1.2,1.7c-0.2,0.3-0.1,0.8,0.2,1c0.1,0.1,0.3,0.1,0.4,0.1
			c0.2,0,0.5-0.1,0.6-0.3l1.7-2.5h0.9l-0.4,0.5c-0.2,0.3-0.1,0.8,0.2,1c0.1,0.1,0.3,0.1,0.4,0.1c0.2,0,0.5-0.1,0.6-0.3l0.9-1.3h0.3
			l0.8,1.5l-0.2,0.3l-1.6,0.1c-0.4,0-0.7,0.4-0.7,0.8c0,0.4,0.4,0.7,0.7,0.7c0,0,0,0,0.1,0l0.6-0.1l-0.4,0.8l-3,0.3
			c-0.4,0-0.7,0.4-0.7,0.8c0,0.4,0.4,0.7,0.7,0.7c0,0,0,0,0.1,0l2-0.2l-0.7,1.1l-4.5,0.4c-0.4,0-0.7,0.4-0.7,0.8
			c0,0.4,0.4,0.7,0.7,0.7c0,0,0,0,0.1,0l3.4-0.3l-0.7,1.3l-1.6,0.1c-0.4,0-0.7,0.4-0.7,0.8c0,0.4,0.4,0.7,0.7,0.7c0,0,0,0,0.1,0
			l0.6-0.1l-0.5,0.9c-0.2,0.3-0.1,0.8,0.3,1c0.1,0.1,0.2,0.1,0.4,0.1c0.3,0,0.5-0.1,0.6-0.4l0.5-0.9l0.3,0.6
			c0.1,0.3,0.4,0.4,0.7,0.4c0.1,0,0.2,0,0.3-0.1c0.4-0.2,0.5-0.6,0.4-1l-0.7-1.5l0.7-1.3l1.5,3.1c0.1,0.3,0.4,0.4,0.7,0.4
			c0.1,0,0.2,0,0.3-0.1c0.4-0.2,0.5-0.6,0.4-1l-1.9-4.1l0.7-1.1l0.9,1.8c0.1,0.3,0.4,0.4,0.7,0.4c0.1,0,0.2,0,0.3-0.1
			c0.4-0.2,0.5-0.6,0.4-1l-1.3-2.8l0.4-0.8l0.3,0.6c0.1,0.3,0.4,0.4,0.7,0.4c0.1,0,0.2,0,0.3-0.1c0.4-0.2,0.5-0.6,0.4-1l-0.7-1.5
			l0.2-0.3h1.7l0.2,0.3l-0.7,1.5c-0.2,0.4,0,0.8,0.4,1c0.1,0,0.2,0.1,0.3,0.1c0.3,0,0.5-0.2,0.7-0.4l0.3-0.6l0.4,0.8l-1.3,2.8
			c-0.2,0.4,0,0.8,0.4,1c0.1,0,0.2,0.1,0.3,0.1c0.3,0,0.5-0.2,0.7-0.4l0.9-1.8l0.7,1.1l-1.9,4.1c-0.2,0.4,0,0.8,0.4,1
			c0.1,0,0.2,0.1,0.3,0.1c0.3,0,0.5-0.2,0.7-0.4l1.5-3.1l0.7,1.3l-0.7,1.5c-0.2,0.4,0,0.8,0.4,1c0.1,0,0.2,0.1,0.3,0.1
			c0.3,0,0.5-0.2,0.7-0.4l0.3-0.6l0.5,0.9c0.1,0.2,0.4,0.4,0.6,0.4c0.1,0,0.2,0,0.4-0.1c0.3-0.2,0.5-0.6,0.3-1l-0.5-0.9l0.6,0.1
			c0,0,0,0,0.1,0c0.4,0,0.7-0.3,0.7-0.7c0-0.4-0.3-0.8-0.7-0.8l-1.6-0.1l-0.7-1.3l3.4,0.3c0,0,0,0,0.1,0c0.4,0,0.7-0.3,0.7-0.7
			c0-0.4-0.3-0.8-0.7-0.8l-4.5-0.4l-0.7-1.1l2,0.2c0,0,0,0,0.1,0c0.4,0,0.7-0.3,0.7-0.7c0-0.4-0.3-0.8-0.7-0.8l-3-0.3l-0.4-0.8
			l0.6,0.1c0,0,0,0,0.1,0c0.4,0,0.7-0.3,0.7-0.7c0-0.4-0.3-0.8-0.7-0.8l-1.6-0.1l-0.2-0.3l0.8-1.5h0.3l0.9,1.3
			c0.1,0.2,0.4,0.3,0.6,0.3c0.1,0,0.3,0,0.4-0.1c0.3-0.2,0.4-0.7,0.2-1l-0.4-0.5h0.9l1.7,2.5c0.1,0.2,0.4,0.3,0.6,0.3
			c0.1,0,0.3,0,0.4-0.1c0.3-0.2,0.4-0.7,0.2-1l-1.2-1.7h1.3l2.6,3.7c0.1,0.2,0.4,0.3,0.6,0.3c0.1,0,0.3,0,0.4-0.1
			c0.3-0.2,0.4-0.7,0.2-1l-2-2.8h1.5l0.9,1.3c0.1,0.2,0.4,0.3,0.6,0.3c0.1,0,0.3,0,0.4-0.1c0.3-0.2,0.4-0.7,0.2-1l-0.4-0.5h1
			c0.4,0,0.7-0.3,0.7-0.7C159.3,36.4,159,36.1,158.6,36.1z M142.7,38.3l-0.8-1.5l0.8-1.5h1.7l0.8,1.5l-0.8,1.5H142.7z"/>
		<circle class="st8" cx="171.3" cy="18.1" r="3.4"/>
		<circle class="st8" cx="45.6" cy="82.4" r="3.4"/>
		<circle class="st8" cx="50.6" cy="95.5" r="1.5"/>
		<circle class="st8" cx="38.7" cy="103.3" r="1.5"/>
		<circle class="st8" cx="159.3" cy="14.7" r="1.5"/>
		<circle class="st8" cx="186.9" cy="50.6" r="3.8"/>
		<circle class="st8" cx="215.8" cy="174.3" r="3.8"/>
		<circle class="st8" cx="207.8" cy="60.5" r="2.8"/>
		<circle class="st8" cx="202.4" cy="68.9" r="1.5"/>
		<circle class="st8" cx="176.3" cy="59" r="1.5"/>
		<circle class="st8" cx="255.7" cy="82.4" r="1.5"/>
		<circle class="st8" cx="224.9" cy="60.5" r="1.5"/>
		<circle class="st8" cx="218.9" cy="72" r="1.5"/>
		<circle class="st8" cx="217.4" cy="60.3" r="1.5"/>
		<circle class="st8" cx="224.9" cy="50.6" r="1.5"/>
		<circle class="st8" cx="265.1" cy="62" r="1.5"/>
		<circle class="st8" cx="269.6" cy="55.9" r="1.5"/>
		<circle class="st8" cx="221.9" cy="165.8" r="1.5"/>
		<circle class="st8" cx="233.2" cy="164.3" r="1.5"/>
		<circle class="st8" cx="226.4" cy="172.8" r="1.5"/>
		<circle class="st8" cx="194.4" cy="49.1" r="1.5"/>
		<circle class="st8" cx="200.9" cy="55.9" r="1.5"/>
	</g>
</g>
</svg>
