<?xml version="1.0" encoding="utf-8"?>
<!-- Generator: Adobe Illustrator 19.0.0, SVG Export Plug-In . SVG Version: 6.00 Build 0)  -->
<svg version="1.1" xmlns="http://www.w3.org/2000/svg" xmlns:xlink="http://www.w3.org/1999/xlink" x="0px" y="0px"
	 viewBox="0 0 260.5 186" style="enable-background:new 0 0 260.5 186;" xml:space="preserve">
<style type="text/css">
	.st0{fill:#519E38;}
	.st1{fill:#CA655F;}
	.st2{fill:#FEBEBD;}
	.st3{fill:#B75856;}
	.st4{fill:#EFA8A8;}
	.st5{fill:#EFEFEF;}
	.st6{fill:#DDDDDD;}
	.st7{fill:#FFFFFF;}
</style>
<g id="Layer_2">
</g>
<g id="kolba_4">
</g>
<g id="kolba_3">
</g>
<g id="kolby">
</g>
<g id="doma">
</g>
<g id="butylka_3">
</g>
<g id="butylka_2">
</g>
<g id="butylka_1">
</g>
<g id="vanna_2">
</g>
<g id="sneg">
</g>
<g id="vanna_1">
</g>
<g id="shariki_2">
</g>
<g id="shariki_1">
</g>
<g id="voronka">
</g>
<g id="gradusnik">
</g>
<g id="kolba_2">
</g>
<g id="kolba_1">
</g>
<g id="probirki">
</g>
<g id="zavod">
</g>
<g id="blank">
</g>
<g id="ticks">
</g>
<g id="car">
</g>
<g id="lupa">
	<path class="st0" d="M243.7,94.6h-15.8c1.4-16.3-8.6-31.5-24.1-36.7c-2-1.4-4.1-2.8-6.5-4.2c-0.3-0.2-0.5-0.3-0.8-0.3
		c-1.1-0.2-2.3,0.3-2.9,1.3c-0.3,0.4-0.4,0.9-0.3,1.4c-2.2,0-4.4,0.1-6.6,0.5c-0.7-0.5-1.5-1-2.2-1.5c-0.3-0.2-0.6-0.3-0.9-0.4
		c-1.1-0.2-2.2,0.2-2.8,1.2c-0.3,0.5-0.4,1.1-0.4,1.6c-0.3-0.5-0.8-0.9-1.4-1.2c-0.1,0-0.6-0.2-1.3-0.4c-0.4-2.3-1-4.5-1.8-6.6
		c0.6-0.3,1.2-0.8,1.4-1.4c0.6-1.4-0.1-2.9-1.4-3.5c-0.1-0.1-1.2-0.5-2.9-1c-1.4-2.3-3.1-4.5-5.1-6.5c0.2-0.2,0.3-0.4,0.5-0.6
		c0.7-1.3,0.1-2.9-1.2-3.6c-0.2-0.1-3.7-1.8-9.2-2.8c-1-0.5-2.1-1-3.2-1.4c-17-6.1-35.7,1.6-43.6,17.3c-1.7,1.7-3.4,3.7-5.1,5.8
		c-0.2,0.2-0.3,0.5-0.4,0.8c-0.4,1.1-0.1,2.3,0.9,3c0.4,0.3,0.9,0.5,1.3,0.5c0,0.3-0.1,0.5-0.1,0.8c-1.4-0.8-3-1.4-4.5-2
		c-0.2-0.8-0.2-1.2-0.2-1.2c-0.2-1.5-1.5-2.5-3-2.3c-1.2,0.1-2.1,1-2.3,2.1c-2.1-0.4-4.2-0.6-6.3-0.6c-1.1,0-2.2,0.1-3.2,0.2
		c-0.3-0.7-0.4-1-0.4-1.1c-0.5-1.4-2-2.1-3.4-1.6c-1.4,0.5-2.1,2-1.6,3.4c0,0,0,0.1,0.1,0.2c-1.2,0.3-2.4,0.7-3.6,1.1
		c-0.4-1-1.4-1.7-2.5-1.7h0c-1.5,0-2.7,1.2-2.7,2.7c0,0.1,0,0.6,0,1.4c-2,1.1-3.9,2.4-5.6,3.9c-0.5-0.5-1.1-0.8-1.8-0.9
		c-1.5-0.1-2.7,1-2.8,2.5c0,0.1-0.1,1.3,0,3.1c-1.7,2.1-3.2,4.5-4.4,7c-0.2-0.1-0.5-0.2-0.8-0.2c-1.5-0.2-2.8,0.9-3,2.4
		c0,0.2-0.4,4,0.4,9.6C56,85.8,56,86.9,56,88.1c0,2.2,0.2,4.3,0.6,6.4H42.4c-2.1,0-3.9,1.7-3.9,3.9c0,2.1,1.7,3.9,3.9,3.9h1.1
		c14.4,41,53.5,70.5,99.5,70.5s85.1-29.4,99.5-70.5h1.2c2.1,0,3.9-1.7,3.9-3.9C247.6,96.3,245.8,94.6,243.7,94.6z M128.5,94.6
		c-0.1-0.2-0.2-0.3-0.3-0.5c0.4,0.2,0.8,0.3,1.2,0.5H128.5z"/>
	<g>
		<circle class="st1" cx="80" cy="83.9" r="35.4"/>
		<path class="st2" d="M83.6,122c-0.3,0-0.6,0-0.9-0.1c-21.9-7.4-31.2-20.8-35.2-30.8c-4.3-10.8-3.4-19.9-3.4-20.3
			c0.2-1.5,1.5-2.5,3-2.4c1.5,0.2,2.5,1.5,2.4,3c-0.1,1.4-2.9,32.7,34.9,45.4c1.4,0.5,2.2,2,1.7,3.4C85.8,121.3,84.8,122,83.6,122z"
			/>
		<path class="st2" d="M96,118.2c-0.3,0-0.6-0.1-1-0.2c-23.3-8.9-33.7-24.6-38.3-36.1c-5-12.5-4.5-22.9-4.5-23.3
			c0.1-1.5,1.4-2.6,2.8-2.5c1.5,0.1,2.6,1.3,2.5,2.8l0,0c0,0.1-0.5,9.8,4.2,21.2C68,95.4,79.9,106.4,97,113c1.4,0.5,2.1,2.1,1.5,3.5
			C98.1,117.5,97.1,118.2,96,118.2z"/>
		<path class="st2" d="M103.6,113c-0.5,0-0.9-0.1-1.4-0.4C63,88.9,62.5,53.2,62.5,51.7c0-1.5,1.2-2.7,2.7-2.7h0
			c1.5,0,2.7,1.2,2.7,2.7c0,0.5,0.6,34.3,37.1,56.3c1.3,0.8,1.7,2.4,0.9,3.7C105.4,112.5,104.5,113,103.6,113z"/>
		<path class="st2" d="M110.9,103.9c-0.4,0-0.8-0.1-1.2-0.3C86.8,91.8,71.9,51.1,71.3,49.4c-0.5-1.4,0.2-2.9,1.6-3.4
			c1.4-0.5,2.9,0.2,3.4,1.6C76.5,48,91.1,88,112.1,98.8c1.3,0.7,1.8,2.3,1.2,3.6C112.8,103.4,111.9,103.9,110.9,103.9z"/>
		<path class="st2" d="M114.6,94.2c-0.6,0-1.2-0.2-1.7-0.6C89.4,73.5,86.3,50.9,86.2,49.9c-0.2-1.5,0.9-2.8,2.3-3
			c1.5-0.2,2.8,0.9,3,2.3l0,0c0,0.2,3,21.5,24.8,40.1c1.1,1,1.3,2.7,0.3,3.8C116.1,93.8,115.3,94.2,114.6,94.2z"/>
		<path class="st2" d="M114.6,79.1c-0.3,0-0.7-0.1-1-0.2c-4.2-1.7-8.1-6.1-11.6-13.1c-2.4-5-3.8-9.5-3.8-9.7
			c-0.4-1.4,0.4-2.9,1.8-3.3c1.4-0.4,2.9,0.4,3.3,1.8c1.3,4.6,6.1,17,12.2,19.4c1.4,0.5,2.1,2.1,1.5,3.5
			C116.7,78.4,115.6,79.1,114.6,79.1z"/>
	</g>
	<g>
		<circle class="st3" cx="131.4" cy="57.6" r="35.4"/>
		<path class="st4" d="M94.3,48.1c0.1-0.3,0.2-0.5,0.4-0.8c14.4-18.1,30.2-22.3,40.9-22.6c11.7-0.4,19.9,3.6,20.2,3.7
			c1.3,0.7,1.9,2.3,1.2,3.6c-0.7,1.3-2.3,1.9-3.6,1.2c-1.2-0.6-29.7-13.8-54.6,17.4c-0.9,1.2-2.6,1.4-3.8,0.4
			C94.2,50.4,93.9,49.2,94.3,48.1z"/>
		<path class="st4" d="M93.7,61.1c0.1-0.3,0.3-0.6,0.5-0.8c16.3-18.9,34.5-23.3,47-23.7c13.5-0.5,23,3.5,23.4,3.7
			c1.4,0.6,2,2.2,1.4,3.5c-0.6,1.4-2.2,2-3.5,1.4l0,0c-0.1,0-9-3.7-21.4-3.3c-16.4,0.6-30.8,8-42.8,21.9c-1,1.1-2.7,1.2-3.8,0.3
			C93.6,63.3,93.3,62.1,93.7,61.1z"/>
		<path class="st4" d="M96,70c0.2-0.4,0.4-0.9,0.8-1.2c35.6-28.9,69.3-17.2,70.8-16.6c1.4,0.5,2.1,2,1.6,3.4l0,0
			c-0.5,1.4-2,2.1-3.4,1.6c-0.4-0.2-32.5-11.1-65.6,15.8c-1.2,0.9-2.8,0.8-3.8-0.4C95.8,71.8,95.7,70.8,96,70z"/>
		<path class="st4" d="M102.1,79.9c0.1-0.4,0.4-0.8,0.7-1.1c18.8-17.5,62.2-17.7,64-17.7c1.5,0,2.7,1.2,2.7,2.7
			c0,1.5-1.2,2.7-2.7,2.7c-0.4,0-43.1,0.2-60.4,16.3c-1.1,1-2.8,0.9-3.8-0.1C101.9,81.9,101.7,80.8,102.1,79.9z"/>
		<path class="st4" d="M110,86.7c0.2-0.6,0.6-1.1,1.2-1.4C138,70,160.2,74.8,161.2,75c1.4,0.3,2.3,1.8,2,3.2c-0.3,1.4-1.8,2.3-3.2,2
			l0,0c-0.2,0-21.2-4.5-46.2,9.7c-1.3,0.7-2.9,0.3-3.7-1C109.8,88.2,109.7,87.4,110,86.7z"/>
		<path class="st4" d="M124.2,91.8c0.1-0.3,0.3-0.6,0.5-0.9c3-3.4,8.5-5.6,16.3-6.4c5.5-0.6,10.2-0.3,10.4-0.3
			c1.5,0.1,2.6,1.4,2.5,2.8c-0.1,1.5-1.4,2.6-2.8,2.5c-4.8-0.3-18,0-22.3,4.9c-1,1.1-2.7,1.2-3.8,0.2
			C124.1,94,123.8,92.8,124.2,91.8z"/>
	</g>
	<g>
		<circle class="st1" cx="181.2" cy="87.3" r="35.4"/>
		<path class="st2" d="M185.1,49.2c0.3,0.1,0.6,0.2,0.8,0.3c20,11.5,26.5,26.6,28.4,37.1c2.1,11.5-0.6,20.2-0.7,20.5
			c-0.4,1.4-2,2.2-3.4,1.7c-1.4-0.4-2.2-2-1.7-3.4c0.4-1.3,9.3-31.4-25.3-51.4c-1.3-0.7-1.7-2.4-1-3.7C182.8,49.5,184,49,185.1,49.2
			z"/>
		<path class="st2" d="M172.2,50.5c0.3,0.1,0.6,0.2,0.9,0.4c21.1,13.3,28.2,30.7,30.4,42.9c2.4,13.3-0.1,23.3-0.2,23.7
			c-0.4,1.4-1.8,2.3-3.3,1.9c-1.4-0.4-2.3-1.8-1.9-3.3l0,0c0-0.1,2.4-9.5,0.1-21.6c-3-16.2-12.4-29.3-28-39.2
			c-1.3-0.8-1.6-2.5-0.8-3.7C170,50.8,171.1,50.3,172.2,50.5z"/>
		<path class="st2" d="M163.7,54.1c0.5,0.1,0.9,0.3,1.3,0.7c33.8,30.9,27.2,66.1,26.9,67.5c-0.3,1.5-1.7,2.4-3.2,2.1l0,0
			c-1.5-0.3-2.4-1.7-2.1-3.2c0.1-0.5,6.2-33.8-25.3-62.5c-1.1-1-1.2-2.7-0.2-3.8C161.9,54.2,162.8,54,163.7,54.1z"/>
		<path class="st2" d="M154.8,61.6c0.4,0.1,0.8,0.3,1.1,0.5c20.1,16,26.7,58.9,26.9,60.7c0.2,1.5-0.8,2.8-2.3,3
			c-1.5,0.2-2.8-0.8-3-2.3c-0.1-0.4-6.5-42.6-25-57.3c-1.2-0.9-1.3-2.6-0.4-3.8C152.8,61.7,153.9,61.4,154.8,61.6z"/>
		<path class="st2" d="M149.3,70.4c0.6,0.1,1.2,0.5,1.6,1c19.1,24.3,17.6,47,17.5,47.9c-0.1,1.5-1.4,2.6-2.9,2.5
			c-1.5-0.1-2.6-1.4-2.5-2.9l0,0c0-0.2,1.3-21.7-16.4-44.2c-0.9-1.2-0.7-2.9,0.5-3.8C147.7,70.4,148.5,70.3,149.3,70.4z"/>
		<path class="st2" d="M146.3,85.2c0.3,0.1,0.6,0.2,0.9,0.4c3.8,2.5,6.8,7.6,8.7,15.2c1.4,5.4,1.8,10.1,1.8,10.3
			c0.1,1.5-1,2.8-2.4,2.9c-1.5,0.1-2.8-1-2.9-2.4c-0.4-4.7-2.7-17.8-8.1-21.4c-1.2-0.8-1.6-2.5-0.8-3.7
			C144.1,85.5,145.2,85,146.3,85.2z"/>
	</g>
	<path class="st5" d="M32.1,98.1c14.4,41,53.5,70.5,99.5,70.5s85.1-29.4,99.5-70.5H32.1z"/>
	<path class="st6" d="M232.2,98.1H31c-2.1,0-3.9-1.7-3.9-3.9v0c0-2.1,1.7-3.9,3.9-3.9h201.2c2.1,0,3.9,1.7,3.9,3.9v0
		C236.1,96.4,234.4,98.1,232.2,98.1z"/>
	<path class="st7" d="M68,132.6c-0.9,0-1.8-0.2-2.7-0.7c-12.1-7.1-17.8-20.2-18-20.7c-1.2-2.7,0.1-5.9,2.8-7c2.7-1.2,5.9,0.1,7,2.8
		c0.1,0.1,4.6,10.4,13.6,15.7c2.6,1.5,3.4,4.8,1.9,7.3C71.6,131.7,69.8,132.6,68,132.6z"/>
</g>
</svg>
