<?xml version="1.0" encoding="utf-8"?>
<!-- Generator: Adobe Illustrator 19.0.0, SVG Export Plug-In . SVG Version: 6.00 Build 0)  -->
<svg version="1.1" xmlns="http://www.w3.org/2000/svg" xmlns:xlink="http://www.w3.org/1999/xlink" x="0px" y="0px"
	 viewBox="0 0 333 309" style="enable-background:new 0 0 333 309;" xml:space="preserve">
<style type="text/css">
	.st0{fill:#519E38;}
	.st1{fill:#F4D162;}
	.st2{fill:#FFEBCF;}
	.st3{fill:#1D3805;}
	.st4{fill:#001700;}
	.st5{fill:#A11D21;}
	.st6{fill:#FFFFFF;}
	.st7{fill:#CA655F;}
	.st8{fill:#FEBEBD;}
	.st9{fill:#B75856;}
	.st10{fill:#EFA8A8;}
	.st11{fill:#EFEFEF;}
	.st12{fill:#DDDDDD;}
</style>
<g id="Layer_2">
</g>
<g id="kolba_4">
</g>
<g id="kolba_3">
</g>
<g id="kolby">
</g>
<g id="doma">
</g>
<g id="butylka_3">
</g>
<g id="butylka_2">
</g>
<g id="butylka_1">
</g>
<g id="vanna_2">
</g>
<g id="sneg">
</g>
<g id="vanna_1">
</g>
<g id="shariki_2">
</g>
<g id="shariki_1">
</g>
<g id="voronka">
</g>
<g id="gradusnik">
</g>
<g id="kolba_2">
</g>
<g id="kolba_1">
</g>
<g id="probirki">
</g>
<g id="potato">
	<circle class="st0" cx="99.6" cy="94.5" r="22.3"/>
	<circle class="st0" cx="92.7" cy="133.7" r="14.3"/>
	<circle class="st0" cx="144.1" cy="47.4" r="18.2"/>
	<circle class="st1" cx="97" cy="91" r="22.3"/>
	<circle class="st2" cx="97.8" cy="90.6" r="20.4"/>
	<circle class="st1" cx="97.9" cy="91" r="18.6"/>
	<circle class="st2" cx="98.4" cy="91.4" r="16.6"/>
	<circle class="st1" cx="98.4" cy="91" r="14.8"/>
	<circle class="st2" cx="98.4" cy="91.4" r="11.6"/>
	<circle class="st1" cx="98.4" cy="92.5" r="9.3"/>
	<circle class="st1" cx="139.8" cy="43.9" r="18.5"/>
	<circle class="st2" cx="140.1" cy="44.6" r="16.9"/>
	<circle class="st1" cx="139.7" cy="44.7" r="15.5"/>
	<circle class="st2" cx="139.4" cy="45" r="13.8"/>
	<circle class="st1" cx="139.7" cy="45" r="12.3"/>
	<circle class="st2" cx="139.4" cy="45" r="9.6"/>
	<circle class="st1" cx="138.5" cy="44.9" r="7.7"/>
	<circle class="st1" cx="89.3" cy="131.1" r="14.1"/>
	<circle class="st2" cx="89.6" cy="131.6" r="12.9"/>
	<circle class="st1" cx="89.3" cy="131.7" r="11.8"/>
	<circle class="st2" cx="89" cy="132" r="10.5"/>
	<circle class="st1" cx="89.3" cy="132" r="9.4"/>
	<circle class="st2" cx="89" cy="132" r="7.4"/>
	<circle class="st1" cx="88.3" cy="131.9" r="5.9"/>
	<circle class="st3" cx="225.9" cy="96.5" r="2.6"/>
	<circle class="st4" cx="219.5" cy="112.5" r="2.6"/>
	<circle class="st4" cx="225.9" cy="116.1" r="2.6"/>
	<circle class="st4" cx="236.9" cy="101.9" r="2.6"/>
	<circle class="st4" cx="200.9" cy="64.7" r="2.6"/>
	<circle class="st4" cx="221.5" cy="46.6" r="2.6"/>
	<circle class="st5" cx="225.9" cy="79.3" r="2.6"/>
	<circle class="st5" cx="206.7" cy="92.5" r="2.6"/>
	<circle class="st5" cx="209.3" cy="76.7" r="2.6"/>
	<circle class="st3" cx="214.4" cy="87.4" r="2.6"/>
	<circle class="st3" cx="213.3" cy="64.7" r="2.6"/>
	<circle class="st3" cx="227.5" cy="64.7" r="2.6"/>
	<circle class="st3" cx="239.5" cy="41.9" r="2.6"/>
	<circle class="st3" cx="224.1" cy="30.5" r="2.6"/>
	<circle class="st3" cx="219.5" cy="143.9" r="2.6"/>
	<circle class="st5" cx="219" cy="127.2" r="2.6"/>
	<circle class="st3" cx="239.5" cy="90" r="2.6"/>
	<circle class="st6" cx="210.3" cy="101.9" r="2.6"/>
	<circle class="st6" cx="236.9" cy="74.9" r="2.6"/>
	<circle class="st6" cx="245.2" cy="62.9" r="2.6"/>
	<circle class="st6" cx="195.6" cy="77.9" r="2.6"/>
	<circle class="st6" cx="207.7" cy="48.4" r="2.6"/>
	<circle class="st3" cx="201.4" cy="107.4" r="2.6"/>
</g>
<g id="zavod">
</g>
<g id="blank">
</g>
<g id="ticks">
</g>
<g id="car">
</g>
<g id="lupa">
	<path class="st0" d="M279.7,207.5h-15.8c1.4-16.3-8.6-31.5-24.1-36.7c-2-1.4-4.1-2.8-6.5-4.2c-0.3-0.2-0.5-0.3-0.8-0.3
		c-1.1-0.2-2.3,0.3-2.9,1.3c-0.3,0.4-0.4,0.9-0.3,1.4c-2.2,0-4.4,0.1-6.6,0.5c-0.7-0.5-1.5-1-2.2-1.5c-0.3-0.2-0.6-0.3-0.9-0.4
		c-1.1-0.2-2.2,0.2-2.8,1.2c-0.3,0.5-0.4,1.1-0.4,1.6c-0.3-0.5-0.8-0.9-1.4-1.2c-0.1,0-0.6-0.2-1.3-0.4c-0.4-2.3-1-4.5-1.8-6.6
		c0.6-0.3,1.2-0.8,1.4-1.4c0.6-1.4-0.1-2.9-1.4-3.5c-0.1-0.1-1.2-0.5-2.9-1c-1.4-2.3-3.1-4.5-5.1-6.5c0.2-0.2,0.3-0.4,0.5-0.6
		c0.7-1.3,0.1-2.9-1.2-3.6c-0.2-0.1-3.7-1.8-9.2-2.8c-1-0.5-2.1-1-3.2-1.4c-17-6.1-35.7,1.6-43.6,17.3c-1.7,1.7-3.4,3.7-5.1,5.8
		c-0.2,0.2-0.3,0.5-0.4,0.8c-0.4,1.1-0.1,2.3,0.9,3c0.4,0.3,0.9,0.5,1.3,0.5c0,0.3-0.1,0.5-0.1,0.8c-1.4-0.8-3-1.4-4.5-2
		c-0.2-0.8-0.2-1.2-0.2-1.2c-0.2-1.5-1.5-2.5-3-2.3c-1.2,0.1-2.1,1-2.3,2.1c-2.1-0.4-4.2-0.6-6.3-0.6c-1.1,0-2.2,0.1-3.2,0.2
		c-0.3-0.7-0.4-1-0.4-1.1c-0.5-1.4-2-2.1-3.4-1.6c-1.4,0.5-2.1,2-1.6,3.4c0,0,0,0.1,0.1,0.2c-1.2,0.3-2.4,0.7-3.6,1.1
		c-0.4-1-1.4-1.7-2.5-1.7h0c-1.5,0-2.7,1.2-2.7,2.7c0,0.1,0,0.6,0,1.4c-2,1.1-3.9,2.4-5.6,3.9c-0.5-0.5-1.1-0.8-1.8-0.9
		c-1.5-0.1-2.7,1-2.8,2.5c0,0.1-0.1,1.3,0,3.1c-1.7,2.1-3.2,4.5-4.4,7c-0.2-0.1-0.5-0.2-0.8-0.2c-1.5-0.2-2.8,0.9-3,2.4
		c0,0.2-0.4,4,0.4,9.6c-0.1,1.1-0.2,2.3-0.2,3.5c0,2.2,0.2,4.3,0.6,6.4H78.4c-2.1,0-3.9,1.7-3.9,3.9c0,2.1,1.7,3.9,3.9,3.9h1.1
		c14.4,41,53.5,70.5,99.5,70.5s85.1-29.4,99.5-70.5h1.2c2.1,0,3.9-1.7,3.9-3.9C283.6,209.3,281.8,207.5,279.7,207.5z M164.5,207.5
		c-0.1-0.2-0.2-0.3-0.3-0.5c0.4,0.2,0.8,0.3,1.2,0.5H164.5z"/>
	<g>
		<circle class="st7" cx="116" cy="196.9" r="35.4"/>
		<path class="st8" d="M119.6,235c-0.3,0-0.6,0-0.9-0.1c-21.9-7.4-31.2-20.8-35.2-30.8c-4.3-10.8-3.4-19.9-3.4-20.3
			c0.2-1.5,1.5-2.5,3-2.4c1.5,0.2,2.5,1.5,2.4,3c-0.1,1.4-2.9,32.7,34.9,45.4c1.4,0.5,2.2,2,1.7,3.4
			C121.8,234.3,120.8,235,119.6,235z"/>
		<path class="st8" d="M132,231.1c-0.3,0-0.6-0.1-1-0.2c-23.3-8.9-33.7-24.6-38.3-36.1c-5-12.5-4.5-22.9-4.5-23.3
			c0.1-1.5,1.4-2.6,2.8-2.5c1.5,0.1,2.6,1.3,2.5,2.8l0,0c0,0.1-0.5,9.8,4.2,21.2c6.2,15.2,18,26.3,35.1,32.9
			c1.4,0.5,2.1,2.1,1.5,3.5C134.1,230.5,133.1,231.1,132,231.1z"/>
		<path class="st8" d="M139.6,225.9c-0.5,0-0.9-0.1-1.4-0.4c-39.2-23.7-39.7-59.4-39.7-60.9c0-1.5,1.2-2.7,2.7-2.7h0
			c1.5,0,2.7,1.2,2.7,2.7c0,0.5,0.6,34.3,37.1,56.3c1.3,0.8,1.7,2.4,0.9,3.7C141.4,225.5,140.5,225.9,139.6,225.9z"/>
		<path class="st8" d="M146.9,216.9c-0.4,0-0.8-0.1-1.2-0.3c-22.9-11.8-37.8-52.5-38.4-54.2c-0.5-1.4,0.2-2.9,1.6-3.4
			c1.4-0.5,2.9,0.2,3.4,1.6c0.1,0.4,14.8,40.5,35.8,51.3c1.3,0.7,1.8,2.3,1.2,3.6C148.8,216.3,147.8,216.9,146.9,216.9z"/>
		<path class="st8" d="M150.6,207.1c-0.6,0-1.2-0.2-1.7-0.6c-23.5-20.1-26.5-42.6-26.6-43.6c-0.2-1.5,0.9-2.8,2.3-3
			c1.5-0.2,2.8,0.9,3,2.3l0,0c0,0.2,3,21.5,24.8,40.1c1.1,1,1.3,2.7,0.3,3.8C152.1,206.8,151.3,207.1,150.6,207.1z"/>
		<path class="st8" d="M150.6,192c-0.3,0-0.7-0.1-1-0.2c-4.2-1.7-8.1-6.1-11.6-13.1c-2.4-5-3.8-9.5-3.8-9.7
			c-0.4-1.4,0.4-2.9,1.8-3.3c1.4-0.4,2.9,0.4,3.3,1.8c1.3,4.6,6.1,17,12.2,19.4c1.4,0.5,2.1,2.1,1.5,3.5
			C152.7,191.4,151.6,192,150.6,192z"/>
	</g>
	<g>
		<circle class="st9" cx="167.4" cy="170.5" r="35.4"/>
		<path class="st10" d="M130.3,161.1c0.1-0.3,0.2-0.5,0.4-0.8c14.4-18.1,30.2-22.3,40.9-22.6c11.7-0.4,19.9,3.6,20.2,3.7
			c1.3,0.7,1.9,2.3,1.2,3.6c-0.7,1.3-2.3,1.9-3.6,1.2c-1.2-0.6-29.7-13.8-54.6,17.4c-0.9,1.2-2.6,1.4-3.8,0.4
			C130.2,163.3,129.9,162.1,130.3,161.1z"/>
		<path class="st10" d="M129.7,174c0.1-0.3,0.3-0.6,0.5-0.8c16.3-18.9,34.5-23.3,47-23.7c13.5-0.5,23,3.5,23.4,3.7
			c1.4,0.6,2,2.2,1.4,3.5c-0.6,1.4-2.2,2-3.5,1.4l0,0c-0.1,0-9-3.7-21.4-3.3c-16.4,0.6-30.8,8-42.8,21.9c-1,1.1-2.7,1.2-3.8,0.3
			C129.6,176.2,129.3,175,129.7,174z"/>
		<path class="st10" d="M132,182.9c0.2-0.4,0.4-0.9,0.8-1.2c35.6-28.9,69.3-17.2,70.8-16.6c1.4,0.5,2.1,2,1.6,3.4l0,0
			c-0.5,1.4-2,2.1-3.4,1.6c-0.4-0.2-32.5-11.1-65.6,15.8c-1.2,0.9-2.8,0.8-3.8-0.4C131.8,184.8,131.7,183.8,132,182.9z"/>
		<path class="st10" d="M138.1,192.8c0.1-0.4,0.4-0.8,0.7-1.1c18.8-17.5,62.2-17.7,64-17.7c1.5,0,2.7,1.2,2.7,2.7
			c0,1.5-1.2,2.7-2.7,2.7c-0.4,0-43.1,0.2-60.4,16.3c-1.1,1-2.8,0.9-3.8-0.1C137.9,194.8,137.7,193.8,138.1,192.8z"/>
		<path class="st10" d="M146,199.6c0.2-0.6,0.6-1.1,1.2-1.4c26.8-15.3,49.1-10.4,50-10.2c1.4,0.3,2.3,1.8,2,3.2
			c-0.3,1.4-1.8,2.3-3.2,2l0,0c-0.2,0-21.2-4.5-46.2,9.7c-1.3,0.7-2.9,0.3-3.7-1C145.8,201.2,145.7,200.3,146,199.6z"/>
		<path class="st10" d="M160.2,204.8c0.1-0.3,0.3-0.6,0.5-0.9c3-3.4,8.5-5.6,16.3-6.4c5.5-0.6,10.2-0.3,10.4-0.3
			c1.5,0.1,2.6,1.4,2.5,2.8c-0.1,1.5-1.4,2.6-2.8,2.5c-4.8-0.3-18,0-22.3,4.9c-1,1.1-2.7,1.2-3.8,0.2
			C160.1,206.9,159.8,205.8,160.2,204.8z"/>
	</g>
	<g>
		<circle class="st7" cx="217.2" cy="200.2" r="35.4"/>
		<path class="st8" d="M221.1,162.2c0.3,0.1,0.6,0.2,0.8,0.3c20,11.5,26.5,26.6,28.4,37.1c2.1,11.5-0.6,20.2-0.7,20.5
			c-0.4,1.4-2,2.2-3.4,1.7c-1.4-0.4-2.2-2-1.7-3.4c0.4-1.3,9.3-31.4-25.3-51.4c-1.3-0.7-1.7-2.4-1-3.7
			C218.8,162.4,220,161.9,221.1,162.2z"/>
		<path class="st8" d="M208.2,163.5c0.3,0.1,0.6,0.2,0.9,0.4c21.1,13.3,28.2,30.7,30.4,42.9c2.4,13.3-0.1,23.3-0.2,23.7
			c-0.4,1.4-1.8,2.3-3.3,1.9c-1.4-0.4-2.3-1.8-1.9-3.3l0,0c0-0.1,2.4-9.5,0.1-21.6c-3-16.2-12.4-29.3-28-39.2
			c-1.3-0.8-1.6-2.5-0.8-3.7C206,163.7,207.1,163.3,208.2,163.5z"/>
		<path class="st8" d="M199.7,167.1c0.5,0.1,0.9,0.3,1.3,0.7c33.8,30.9,27.2,66.1,26.9,67.5c-0.3,1.5-1.7,2.4-3.2,2.1l0,0
			c-1.5-0.3-2.4-1.7-2.1-3.2c0.1-0.5,6.2-33.8-25.3-62.5c-1.1-1-1.2-2.7-0.2-3.8C197.9,167.2,198.8,166.9,199.7,167.1z"/>
		<path class="st8" d="M190.8,174.6c0.4,0.1,0.8,0.3,1.1,0.5c20.1,16,26.7,58.9,26.9,60.7c0.2,1.5-0.8,2.8-2.3,3
			c-1.5,0.2-2.8-0.8-3-2.3c-0.1-0.4-6.5-42.6-25-57.3c-1.2-0.9-1.3-2.6-0.4-3.8C188.8,174.7,189.9,174.4,190.8,174.6z"/>
		<path class="st8" d="M185.3,183.4c0.6,0.1,1.2,0.5,1.6,1c19.1,24.3,17.6,47,17.5,47.9c-0.1,1.5-1.4,2.6-2.9,2.5
			c-1.5-0.1-2.6-1.4-2.5-2.9l0,0c0-0.2,1.3-21.7-16.4-44.2c-0.9-1.2-0.7-2.9,0.5-3.8C183.7,183.4,184.5,183.2,185.3,183.4z"/>
		<path class="st8" d="M182.3,198.2c0.3,0.1,0.6,0.2,0.9,0.4c3.8,2.5,6.8,7.6,8.7,15.2c1.4,5.4,1.8,10.1,1.8,10.3
			c0.1,1.5-1,2.8-2.4,2.9c-1.5,0.1-2.8-1-2.9-2.4c-0.4-4.7-2.7-17.8-8.1-21.4c-1.2-0.8-1.6-2.5-0.8-3.7
			C180.1,198.4,181.2,198,182.3,198.2z"/>
	</g>
	<path class="st11" d="M68.1,211.1c14.4,41,53.5,70.5,99.5,70.5s85.1-29.4,99.5-70.5H68.1z"/>
	<path class="st12" d="M268.2,211.1H67c-2.1,0-3.9-1.7-3.9-3.9v0c0-2.1,1.7-3.9,3.9-3.9h201.2c2.1,0,3.9,1.7,3.9,3.9v0
		C272.1,209.3,270.4,211.1,268.2,211.1z"/>
	<path class="st6" d="M104,245.6c-0.9,0-1.8-0.2-2.7-0.7c-12.1-7.1-17.8-20.2-18-20.7c-1.2-2.7,0.1-5.9,2.8-7c2.7-1.2,5.9,0.1,7,2.8
		c0.1,0.1,4.6,10.4,13.6,15.7c2.6,1.5,3.4,4.8,1.9,7.3C107.6,244.6,105.8,245.6,104,245.6z"/>
</g>
</svg>
