<?xml version="1.0" encoding="utf-8"?>
<!-- Generator: Adobe Illustrator 19.0.0, SVG Export Plug-In . SVG Version: 6.00 Build 0)  -->
<svg version="1.1" xmlns="http://www.w3.org/2000/svg" xmlns:xlink="http://www.w3.org/1999/xlink" x="0px" y="0px"
	 viewBox="0 0 298.5 171" style="enable-background:new 0 0 298.5 171;" xml:space="preserve">
<style type="text/css">
	.st0{fill:#519E38;}
	.st1{fill:#E29A9A;}
	.st2{fill:#FEBEBD;}
</style>
<g id="Layer_2">
</g>
<g id="kolba_4">
</g>
<g id="kolba_3">
</g>
<g id="kolby">
</g>
<g id="doma">
</g>
<g id="butylka_3">
</g>
<g id="butylka_2">
</g>
<g id="butylka_1">
</g>
<g id="vanna_2">
</g>
<g id="sneg">
</g>
<g id="vanna_1">
</g>
<g id="shariki_2">
</g>
<g id="shariki_1">
</g>
<g id="voronka">
</g>
<g id="gradusnik">
</g>
<g id="kolba_2">
</g>
<g id="kolba_1">
</g>
<g id="probirki">
</g>
<g id="potato">
	<path class="st0" d="M110.9,47.2c-0.3-9.2-13.5-16.7-29.7-16.7c-16.3,0-29.5,7.4-29.7,16.7h0v10.1h0c0.6,9.1,13.7,16.3,29.7,16.3
		c16,0,29.1-7.2,29.7-16.3h0L110.9,47.2L110.9,47.2z"/>
	<path class="st0" d="M189,47.2c-0.3-9.2-13.5-16.7-29.7-16.7c-16.3,0-29.5,7.4-29.7,16.7h0v10.1h0c0.6,9.1,13.7,16.3,29.7,16.3
		c16,0,29.1-7.2,29.7-16.3h0L189,47.2L189,47.2z"/>
	<path class="st0" d="M264.3,47.2c-0.3-9.2-13.5-16.7-29.7-16.7c-16.3,0-29.5,7.4-29.7,16.7h0v10.1h0c0.6,9.1,13.7,16.3,29.7,16.3
		c16,0,29.1-7.2,29.7-16.3h0L264.3,47.2L264.3,47.2z"/>
	<path class="st0" d="M110.9,113.4c-0.3-9.2-13.5-16.7-29.7-16.7c-16.3,0-29.5,7.4-29.7,16.7h0v10.1h0c0.6,9.1,13.7,16.3,29.7,16.3
		c16,0,29.1-7.2,29.7-16.3h0L110.9,113.4L110.9,113.4z"/>
	<path class="st0" d="M189,113.4c-0.3-9.2-13.5-16.7-29.7-16.7c-16.3,0-29.5,7.4-29.7,16.7h0v10.1h0c0.6,9.1,13.7,16.3,29.7,16.3
		c16,0,29.1-7.2,29.7-16.3h0L189,113.4L189,113.4z"/>
	<path class="st0" d="M264.3,113.4c-0.3-9.2-13.5-16.7-29.7-16.7c-16.3,0-29.5,7.4-29.7,16.7h0v10.1h0c0.6,9.1,13.7,16.3,29.7,16.3
		c16,0,29.1-7.2,29.7-16.3h0L264.3,113.4L264.3,113.4z"/>
	<ellipse class="st1" cx="75.8" cy="118.2" rx="29.7" ry="17"/>
	<rect x="46.1" y="108.8" class="st1" width="59.5" height="10.1"/>
	<ellipse class="st2" cx="75.8" cy="109.1" rx="29.7" ry="17"/>
	<ellipse class="st1" cx="154.9" cy="118.2" rx="29.7" ry="17"/>
	<rect x="125.1" y="108.8" class="st1" width="59.5" height="10.1"/>
	<ellipse class="st2" cx="154.9" cy="109.1" rx="29.7" ry="17"/>
	<ellipse class="st1" cx="229" cy="118.2" rx="29.7" ry="17"/>
	<rect x="199.3" y="108.8" class="st1" width="59.5" height="10.1"/>
	<ellipse class="st2" cx="229" cy="109.1" rx="29.7" ry="17"/>
	<ellipse class="st1" cx="75.8" cy="52" rx="29.7" ry="17"/>
	<rect x="46.1" y="42.6" class="st1" width="59.5" height="10.1"/>
	<ellipse class="st2" cx="75.8" cy="42.9" rx="29.7" ry="17"/>
	<ellipse class="st1" cx="154.9" cy="52" rx="29.7" ry="17"/>
	<rect x="125.1" y="42.6" class="st1" width="59.5" height="10.1"/>
	<ellipse class="st2" cx="154.9" cy="42.9" rx="29.7" ry="17"/>
	<ellipse class="st1" cx="229" cy="52" rx="29.7" ry="17"/>
	<rect x="199.3" y="42.6" class="st1" width="59.5" height="10.1"/>
	<ellipse class="st2" cx="229" cy="42.9" rx="29.7" ry="17"/>
</g>
<g id="zavod">
</g>
<g id="blank">
</g>
<g id="ticks">
</g>
<g id="car">
</g>
<g id="lupa">
</g>
</svg>
