<?xml version="1.0" encoding="utf-8"?>
<!-- Generator: Adobe Illustrator 19.0.0, SVG Export Plug-In . SVG Version: 6.00 Build 0)  -->
<svg version="1.1" xmlns="http://www.w3.org/2000/svg" xmlns:xlink="http://www.w3.org/1999/xlink" x="0px" y="0px"
	 viewBox="0 0 204.1 229.5" style="enable-background:new 0 0 204.1 229.5;" xml:space="preserve">
<style type="text/css">
	.st0{fill:#2D2D2D;}
	.st1{fill:#4D4C4B;}
	.st2{fill:#F9DDC5;}
	.st3{fill:#EC145A;}
	.st4{fill:#62BA47;}
	.st5{fill:#FFFFFF;}
	.st6{fill:#231F20;}
	.st7{fill:#E29A9A;}
	.st8{fill:#FEBEBD;}
</style>
<g id="Layer_2">
</g>
<g id="kolba_4">
</g>
<g id="kolba_3">
</g>
<g id="kolby">
</g>
<g id="doma">
</g>
<g id="butylka_3">
</g>
<g id="butylka_2">
</g>
<g id="butylka_1">
</g>
<g id="vanna_2">
</g>
<g id="sneg">
</g>
<g id="vanna_1">
</g>
<g id="shariki_2">
</g>
<g id="shariki_1">
</g>
<g id="voronka">
</g>
<g id="gradusnik">
</g>
<g id="kolba_2">
</g>
<g id="kolba_1">
</g>
<g id="probirki">
</g>
<g id="zavod">
</g>
<g id="blank">
</g>
<g id="ticks">
</g>
<g id="car">
</g>
<g id="lupa">
	<path class="st0" d="M162.6,198.1H45.2c-4.3,0-7.9-3.5-7.9-7.9V39c0-4.3,3.5-7.9,7.9-7.9h117.4c4.3,0,7.9,3.5,7.9,7.9v151.1
		C170.5,194.5,166.9,198.1,162.6,198.1z"/>
	<path class="st1" d="M159.5,31.2c6,0,11,4.9,11,11v144.9c0,6-4.9,11-11,11H48.3c-6,0-11-4.9-11-11V42.1c0-6,4.9-11,11-11H159.5
		 M159.5,24.8H48.3c-9.6,0-17.4,7.8-17.4,17.4v144.9c0,9.6,7.8,17.4,17.4,17.4h111.2c9.6,0,17.4-7.8,17.4-17.4V42.1
		C176.9,32.6,169.1,24.8,159.5,24.8L159.5,24.8z"/>
	<path class="st2" d="M30.9,134v53.1c0,9.6,7.8,17.4,17.4,17.4h111.2c9.6,0,17.4-7.8,17.4-17.4V134H30.9z"/>
	<path class="st3" d="M115.7,158.2c-0.2,0-0.4,0-0.6,0c-1.6-3.7-5.4-6.4-9.7-6.4c-4.3,0-8.1,2.6-9.7,6.4c-0.1,0-0.2,0-0.3,0
		c-5.2,0-10.2,5.2-10.2,10.4c0,4.1,3.4,9.6,7.1,10.9c1.2-0.3,2.9-0.8,5.1-1.1c-2.5-0.9-2.7-2.6-2.7-2.7c0-0.2,0.1-0.4,0.3-0.4
		c0.2,0,0.4,0.1,0.4,0.3c0,0.1,0.3,2,3.9,2.4c0,0,0.1,0,0.1,0c0.8-0.1,1.7-0.2,2.7-0.3c-0.8-1.1-1.2-2.9-1.3-3.2
		c0-0.2,0.1-0.4,0.3-0.4c0.2,0,0.4,0.1,0.4,0.3c0.1,0.7,0.7,2.6,1.5,3.2c0,0,0,0,0,0.1c2.8-0.1,5.8-0.1,9.1,0.4
		c0.2-0.1,0.3-0.1,0.4-0.1c3.2-0.7,3.4-2.3,3.4-2.4c0-0.2,0.2-0.4,0.4-0.3c0.2,0,0.4,0.2,0.3,0.4c0,0.1-0.2,1.7-2.7,2.7
		c1.6,0.3,3.2,0.6,4.9,1.1c3.5-1.4,6.7-6.7,6.7-10.7C125.8,163.5,120.9,158.2,115.7,158.2z"/>
	<g>
		<circle class="st4" cx="123.2" cy="153.4" r="11.5"/>
		<g>
			<path class="st5" d="M120.4,151.8c-0.9,0.1-1.2,1.2-1.2,2l0,0v0c0,0.1,0,0.2,0,0.3c0,0.4,0,0.7-0.1,1c0,0.1-0.1,0.4-0.1,0.4
				c-0.3,0-0.6-0.5-0.7-0.7c-0.2-0.6-0.4-1.2-0.5-1.8c-0.1-0.7-0.2-1.4-0.2-2c0-0.3,0-0.6,0-0.8c0-0.1,0-0.2,0-0.3
				c0-0.1,0-0.2,0-0.2c0.1-0.5-0.6,0-0.8,0.2c-0.8,1.3-0.5,2.9-0.5,4.4c0,0.4,0,0.8-0.1,1.2c0,0.3-0.1,0.7-0.3,1
				c-0.1,0.1-0.4,0-0.5,0c-0.2-0.1-0.3-0.3-0.3-0.5c0-0.2-0.3-0.1-0.4,0c-0.2,0.2-0.3,0.5-0.3,0.7c0.1,0.5,0.6,1,1.1,0.8
				c0.8-0.3,1.2-1.3,1.4-2.1c0.1-0.4,0.2-0.8,0.2-1.2c0.1,0.6,0.3,1.1,0.6,1.6c0.2,0.4,0.5,0.8,1,0.7c0.4-0.1,0.6-0.5,0.8-0.9
				c0.2,0.4,0.4,0.7,0.9,0.6c0.5,0,0.9-0.6,1-0.9c0.2-0.5,0.3-1,0.3-1.5C121.6,153.1,121.4,151.7,120.4,151.8z M120.7,155.1
				c0,0.1,0,0.2-0.1,0.3c-0.2,0-0.3-0.3-0.4-0.4c-0.2-0.3-0.2-0.7-0.2-1c0-0.4,0-0.7,0-1.1c0-0.1,0-0.2,0.1-0.3
				c0.5,0.3,0.6,0.9,0.6,1.4C120.7,154.3,120.8,154.7,120.7,155.1z"/>
			<path class="st5" d="M131.8,153.1c-1-0.4-1.6,1-1.8,1.8c-0.2,0.7-0.4,2,0.5,2.4c0.4,0.2,0.9-0.1,1.2-0.4c0.3-0.3,0.5-0.8,0.6-1.3
				C132.5,154.8,132.7,153.5,131.8,153.1z M131.2,156.4c0,0.1-0.1,0.2-0.1,0.2c-0.2-0.1-0.2-0.4-0.2-0.6c-0.1-0.4,0-0.7,0-1.1
				c0.1-0.3,0.2-0.7,0.3-1c0-0.1,0.1-0.2,0.1-0.2c0.4,0.5,0.3,1.1,0.2,1.6C131.4,155.7,131.3,156.1,131.2,156.4z"/>
			<path class="st5" d="M129,153.3c0.2-0.3,0.4-0.5,0.5-0.8c0.4-0.6,0.7-1.2,0.7-1.9c0-0.7-0.9-0.7-1.4-0.5c-0.6,0.3-1,1-1.2,1.7
				c-0.3,0.9-0.4,1.8-0.4,2.7c0,0,0,0,0,0c-0.3,0.4-1,1.2-1.5,0.8c-0.1-0.1-0.2-0.3-0.2-0.4c0.4-0.4,0.8-0.9,1.1-1.4
				c0.3-0.5,0.5-1.2-0.1-1.6c-0.5-0.3-1.1,0-1.5,0.4c-0.3,0.4-0.5,0.9-0.5,1.4c0,0.3-0.1,0.7,0,1.2c-0.3,0.2-0.7,0.3-1,0.2
				c-0.4-0.1-0.5-0.5-0.6-0.8c-0.1-0.5-0.1-1,0-1.5c0-0.1,0.1-0.3,0.1-0.4c0,0,0-0.1,0-0.1c0.2,0.1,0.3,0.5,0.4,0.7
				c0.1,0.3,1-0.2,0.9-0.5c-0.1-0.3-0.2-0.7-0.6-0.9c-0.4-0.2-0.9,0.1-1.1,0.3c-0.6,0.6-0.7,1.5-0.6,2.4c0,0.5,0.1,1.2,0.6,1.5
				c0.6,0.4,1.5,0,2.1-0.3c0.2,0.4,0.4,0.7,0.9,0.6c0.6-0.1,1.2-0.4,1.6-0.8c0,0.5,0.1,1,0.5,1.2c0.5,0.3,1.2,0,1.6-0.5
				c0.5-0.6,0.7-1.4,0.5-2.2C129.6,153.4,129.3,153.3,129,153.3z M125.5,152.9c0-0.1,0.1-0.3,0.2-0.4c0,0,0,0,0,0
				c0.2,0.1,0.3,0.4,0.3,0.6c-0.1,0.4-0.3,0.8-0.6,1.1c0-0.1,0-0.1,0-0.2C125.4,153.6,125.4,153.3,125.5,152.9z M128.8,151
				c0.1-0.1,0.2-0.3,0.3-0.4c0,0,0,0,0,0c0.4,0.4,0,1.1-0.2,1.5c-0.2,0.4-0.5,0.8-0.7,1.2c0.1-0.4,0.1-0.8,0.2-1.2
				C128.5,151.7,128.7,151.4,128.8,151z M128.6,155.7c0,0-0.1,0.1-0.1,0.2c0,0-0.1,0-0.1,0c-0.3-0.1-0.3-0.7-0.3-0.9
				c0-0.2,0-0.4,0-0.6c0.1-0.1,0.2-0.2,0.3-0.4c0.2-0.2,0.4,0.1,0.4,0.4C129,154.8,128.8,155.3,128.6,155.7z"/>
		</g>
	</g>
	<g>
		<path class="st4" d="M71.9,161.1c-0.1,0.1,0.3,0.2,0.4,0.3c0,0.1-0.2,0-0.3,0c0,0.1,0.1,0.1,0.2,0.2c0,0-0.1,0-0.1,0.1
			c0.2,0.1,0.3,0.4,0.6,0.6c0.5,0.2,1.2,0.4,1.2,0.5c0.1-0.9-0.3-1.8,0.4-2.6c0-0.1-0.1-0.1-0.1-0.2c0.1,0,0.1,0,0.1,0
			c0-0.1-0.2-0.1-0.1-0.2c0,0,0.1,0,0.2,0c0.1,0-0.1-0.1-0.1-0.2c0-0.1,0.2,0,0.2,0c0-0.1-0.3-0.2-0.3-0.5c0.2,0.1,0.3,0.2,0.4,0.3
			c-0.1-0.2-0.3-0.3-0.3-0.6c0.2,0.1,0.3,0.3,0.5,0.4c-0.1-0.2-0.3-0.4-0.3-0.7c0.3,0.1,0.3,0.4,0.6,0.5c-0.1-0.4-0.4-0.8-0.4-1.2
			c0.3,0.3,0.4,0.7,0.6,1c0-0.4-0.2-0.9-0.2-1.5c0.2,0.4,0.3,0.9,0.5,1.4c0.1-0.5-0.3-1.2-0.1-1.7c0.2,0.5,0.2,1,0.4,1.5
			c0-0.5-0.1-1.2,0-1.8c0.2,0.5,0.2,1.2,0.3,1.8c0.1-0.4-0.1-1.3,0.2-1.5c0,0.5,0,0.9,0,1.3c0,0.7,0.4,1.5,0.1,2.1
			c-0.2,0.7-0.8,1.3-0.8,2.2c1.1,0.3,1.4,0.3,2.3,0.3c0.4,0,0.7-0.2,1.1-0.1c0.1,0,0.2,0.2,0.3,0.2c0.3,0.1,0.5,0.1,0.8,0.1
			c-0.4,0.1-1.3,0.2-1.4,0.2c-0.2,0-0.8-0.1-0.4-0.1c0.3,0,0.6,0,0.6-0.1c0-0.3-0.5-0.1-0.8,0c-0.9,0.1-1.4,0.3-2.9,0
			c0.4,0,0.4-0.3,0.4-0.5c-0.1-1.2,0.1-1.4,0.5-2c0.6-1-0.2-1-0.4-1.4c-0.1,0.1,0,0.4,0,0.5c-0.1-0.1-0.2-0.4-0.3-0.5
			c-0.1,0.1,0.1,0.3,0.1,0.5c-0.1-0.1-0.2-0.2-0.3-0.3c-0.1,0.1,0.1,0.3,0.1,0.4c-0.1,0-0.2-0.2-0.3-0.2c-0.1,0.1,0.1,0.1,0,0.2
			c-0.1,0-0.1-0.1-0.2,0c0,0.1,0,0.2,0.1,0.2c0,0.1-0.1,0-0.1,0c-0.1,0,0,0.1,0,0.2c-0.8-0.1-0.2,2.3-0.8,3.2
			c0.4,0.3,1.3,0.2,1.9,0.1c-0.7,0.5-1.4,0.3-2.1,0.4c-0.1,0-0.2,0.1-0.3,0.1c-0.4,0.1-0.9,0.3-1.3,0.4c-0.4,0.2-1.9,0.5-2,0.5
			c3.6-1.2,3-1.4,3.3-1.7c-0.6-0.2-0.8-0.9-1.2-1.1c0,0,0-0.1,0.1-0.1c0-0.1-0.1,0-0.2,0c0-0.1,0-0.1,0.1-0.1c0-0.1-0.2,0-0.3-0.1
			c0-0.1,0.1-0.1,0.2-0.1c-0.1-0.1-0.3-0.1-0.4-0.2c0.1-0.1,0.2-0.1,0.4-0.1c-0.1-0.1-0.4-0.1-0.5-0.2c0.2,0,0.4,0,0.5,0
			c-0.2-0.2-0.6-0.2-0.7-0.5c0.3,0,0.5,0.1,0.7,0.2c-0.3-0.2-0.7-0.3-0.8-0.7c0.3,0.1,0.6,0.3,0.9,0.5c-0.1-0.2-0.7-0.4-0.9-0.8
			c0.4,0,0.7,0.4,1.1,0.5c-0.2,0-0.5-0.3-0.8-0.4c0.1,0.2,0.5,0.5,0.9,0.7c-0.2,0.1-0.5-0.1-0.7-0.2c0,0.2,0.4,0.4,0.6,0.5
			C72.2,161.2,72.1,161.1,71.9,161.1"/>
		<path class="st4" d="M75.1,154.7c-4,0-7.2,3.2-7.2,7.2c0,4,3.2,7.2,7.2,7.2c4,0,7.2-3.2,7.2-7.2C82.3,157.9,79,154.7,75.1,154.7
			 M75.1,155c3.8,0,6.9,3.1,6.9,6.9c0,3.8-3.1,6.9-6.9,6.9c-3.8,0-6.9-3.1-6.9-6.9C68.1,158.1,71.2,155,75.1,155"/>
	</g>
	<g>
		<g>
			<g>
				<path class="st5" d="M90.1,174.1c0.8,1.4,2.4,0.2,2.6-1.1c0.2-1.9-1-3.7-1.9-5.3c-0.1-0.2-0.4,0.1-0.4,0.1
					c-0.9,0.9-1.9,2.3-1.3,3.3c0.2,0.3,0.9-0.7,0.7-1c-0.3-0.5,0.4-1.2,0.8-1.6c-0.1,0-0.3,0.1-0.4,0.1c0.4,0.6,0.8,1.3,1.1,1.9
					c0.2,0.4,0.3,0.8,0.5,1.2c0.1,0.3,0.2,0.5,0.3,0.8c-0.3,1.3-0.6,1.5-1.2,0.7C90.6,172.9,90,173.8,90.1,174.1L90.1,174.1z"/>
				<path class="st5" d="M95,172.2c-0.3,0.8-0.8-0.6-0.8-0.8c-0.1-0.3-0.2-0.6-0.5-0.8c-0.5-0.4-1.1-0.2-1.6,0.2c0.1,0,0.2,0,0.3,0
					c-0.3-0.8-0.8-2.8,0.9-2.1c0.4,0.2,0.9-0.8,0.6-1c-1-0.5-1.7-0.1-2.3,0.8c-0.6,0.9-0.3,2.1,0.1,3c0.1,0.2,0.2,0.1,0.4,0
					c1.4-1.1,1.5,1.2,2.2,1.8c0.6,0.5,1.2-0.9,1.3-1.2C95.8,171.5,95.1,171.7,95,172.2L95,172.2z"/>
			</g>
			<path class="st5" d="M98.4,171.8c0.3,0.9,1.3,0.6,1.8-0.1c0.3-0.5,0.3-1,0.3-1.6c0-0.8,0-1.6,0.3-2.5c-0.3,0.2-0.6,0.3-0.9,0.5
				c0.2,1.1,0.3,3,1.2,3.8c0.7,0.6,1.7-0.8,1.9-1.2c0.3-0.6-0.6-0.2-0.7,0.1c-0.3,0.8-0.8-0.4-0.9-0.6c-0.3-0.9-0.4-1.8-0.5-2.7
				c-0.1-0.5-0.9,0.3-0.9,0.5c-0.2,0.6-0.2,1.1-0.3,1.7c0,0.3,0,0.7,0,1c0,0.2,0,0.4,0,0.5c0,0.5-0.3,0.2-0.4,0
				C99,170.7,98.3,171.5,98.4,171.8L98.4,171.8z"/>
			<path class="st5" d="M105.5,167.5c0.1,1.3,0.2,2.6,0.1,3.9c0,0.5,0.8-0.1,0.8-0.4c0.1-0.8,0.3-1.2,0.8-1.7c0.6-0.6,0.9-1.3,1.2-2
				c0.2-0.6-0.8-0.1-0.9,0.2c-0.4,1-0.4,2.2-0.3,3.2c0,0.3,0,0.7,0.3,0.9c0.4,0.3,1-0.2,1.3-0.4c0.5-0.4,0.1-0.8-0.4-0.4
				c-0.4,0.3-0.3-1.2-0.3-1.4c0-0.7,0.1-1.5,0.4-2.1c-0.3,0.1-0.6,0.1-0.9,0.2c-0.2,0.8-0.5,1.3-1.1,1.9c-0.6,0.6-0.7,1.3-0.8,2.1
				c0.3-0.2,0.5-0.3,0.8-0.4c0.1-1.3,0-2.6-0.1-3.9C106.4,166.6,105.5,167.2,105.5,167.5L105.5,167.5z"/>
			<g>
				<path class="st5" d="M111.8,171.3c-0.1,1,0.8,1.3,1.6,0.8c0.8-0.4,1.1-1.3,1.3-2.1c0.1-0.6,0.2-1.6-0.4-2.1
					c-0.3-0.2-0.9-0.1-1.2,0.1c-0.6,0.3-0.9,0.8-1,1.4c-0.1,0.5,1,0,1-0.3c0.1-0.6,0.4-0.6,0.6-0.1c0.1,0.3,0.1,0.7,0.1,1.1
					c0,0.4-0.1,0.8-0.3,1.2c-0.1,0.1-0.1,0.3-0.3,0.4c0.1-0.1,0-0.1-0.1-0.1c-0.3-0.1-0.3-0.4-0.3-0.6
					C112.9,170.5,111.9,171,111.8,171.3L111.8,171.3z"/>
				<path class="st5" d="M112.2,167.5c0,2.4-0.5,4.9-1.1,7.2c-0.1,0.4,0.8,0,0.9-0.3c0.7-2.4,1.2-4.9,1.3-7.4
					C113.3,166.7,112.2,167.2,112.2,167.5L112.2,167.5z"/>
			</g>
			<g>
				<path class="st5" d="M120.8,170.4c-0.5,0.8-0.9,1.7-1.2,2.6c-0.1,0.4-0.2,0.9,0.1,1.3c0.4,0.5,1.2,0.3,1.7,0.1
					c0.7-0.3,0-0.6-0.5-0.4c-0.3,0.1-0.3-0.7-0.3-0.8c0.1-0.4,0.2-0.8,0.4-1.2c0.2-0.6,0.5-1.1,0.9-1.6
					C122.1,170,121,170.1,120.8,170.4L120.8,170.4z"/>
				<path class="st5" d="M117.7,173c0,0.8,0.8,0.9,1.4,0.7c0.9-0.3,1.5-1.1,1.9-1.8c0.2-0.4-0.9-0.2-1,0.1c-0.1,0.2,0,0,0.1,0
					c-0.1,0-0.1-0.1-0.2-0.1c-0.2-0.1-0.2-0.3-0.2-0.5c0-0.3,0.2-0.7,0.4-0.9c0.3-0.5,0.5,0.2,0.4,0.5c-0.2,0.4,0.9,0.3,1.1,0
					c0.3-0.7-0.2-1.2-1-1.2c-0.9,0-1.6,0.9-1.8,1.6c-0.4,1.5,1.7,1.7,2.3,0.6c-0.4,0-0.7,0-1,0.1c-0.2,0.4-0.4,0.7-0.7,1
					c-0.3,0.3-0.6,0-0.5-0.3C118.7,172.3,117.7,172.7,117.7,173L117.7,173z"/>
			</g>
			<path class="st5" d="M105.4,170.8c-0.5,0.4-0.7-1.3-0.7-1.4c-0.1-0.7-0.1-1.5-0.1-2.2c0-0.5-0.9,0.2-0.9,0.5c0,0.6,0,1.3,0,1.9
				c0,0.3,0,0.7-0.1,1c-0.1,0.4,0,0.5-0.4,0.3c-0.9-0.5-0.6-2.6-0.4-3.4c0.1-0.6-0.8,0-0.9,0.3c-0.1,0.8-0.4,4.3,1.1,4
				c1.9-0.3,1.4-3.4,1.5-4.6c-0.3,0.2-0.6,0.3-0.9,0.5c0,1.1,0,2.4,0.4,3.4c0.3,0.9,1.1,0.5,1.6,0
				C106.2,170.7,105.8,170.3,105.4,170.8L105.4,170.8z"/>
			<path class="st5" d="M117.8,172.6c-0.6,0.3-0.2-1.5-0.2-1.6c0.2-0.7,0.4-1.4,0.7-2.1c0.2-0.4-0.9-0.1-1,0.2
				c-0.2,0.6-0.4,1.2-0.6,1.8c-0.1,0.3-0.3,0.6-0.4,0.9c-0.2,0.3-0.2,0.4-0.4,0.2c-0.6-0.8,0.3-2.6,0.8-3.3c0.3-0.5-0.7-0.2-0.9,0
				c-0.4,0.7-1.8,3.9-0.3,4.1c1.8,0.3,2.5-2.7,2.9-3.9c-0.3,0.1-0.7,0.1-1,0.2c-0.4,1.1-0.8,2.2-0.8,3.4c0,1,0.9,0.9,1.5,0.6
				C118.6,172.8,118.3,172.3,117.8,172.6L117.8,172.6z"/>
			<path class="st5" d="M111.5,168.1c0.1-1.3-1.7-0.8-2.3-0.2c-0.7,0.8-0.8,1.9-0.7,2.9c0.1,0.9,0.8,1.3,1.7,0.7
				C111.2,170.8,111.2,169.2,111.5,168.1c-0.4,0.1-0.7,0.2-1,0.3c-0.1,0.7-1,4.4,1.1,3.5c0.5-0.2,0.6-0.9-0.1-0.6
				c-0.2,0.1-0.2-1-0.2-1.1C111.2,169.5,111.3,168.8,111.5,168.1c0.1-0.5-1,0-1,0.3c-0.1,0.7-0.2,1.3-0.4,2c0,0.2-0.2,0.7-0.3,0.7
				c-0.2,0-0.2-0.3-0.3-0.4c-0.2-0.5-0.1-1,0-1.5c0-0.3,0.1-0.5,0.2-0.8c0.1-0.1,0.1-0.3,0.2-0.4c0.2-0.2,0.5,0.3,0.5,0.4
				C110.4,168.9,111.4,168.4,111.5,168.1L111.5,168.1z"/>
			<g>
				<path class="st5" d="M94.6,169.1c0.2,0.7,0.5,4.3,1.9,3.7c1.6-0.6,1-3.6,0.8-4.8c0-0.5-0.9,0.3-0.8,0.6c0.1,0.8,0.2,1.7,0.3,2.5
					c0,0.3,0.1,1-0.3,0.8c-0.5-0.2-0.6-1.3-0.7-1.7c-0.1-0.6-0.2-1.3-0.4-1.9C95.3,168,94.5,168.8,94.6,169.1L94.6,169.1z"/>
				<path class="st5" d="M96.5,168.6c0.4,1.6,0.8,3.2,1.2,4.9c0.1,0.4,0.5,1.9-0.1,1.9c-1-0.1,0.1-2.8,0.3-3.2
					c0.3-0.6-0.4-0.5-0.6,0c-0.6,1.1-1,2.5-0.5,3.7c0.2,0.5,0.9,0.5,1.2,0.1c0.6-0.7,0.7-1.7,0.5-2.6c-0.2-1.8-0.8-3.6-1.2-5.4
					C97.3,167.5,96.5,168.3,96.5,168.6L96.5,168.6z"/>
			</g>
			<path class="st5" d="M113.5,168.4c0.8,0.8,1.7,1,2.7,0.5c0.1-0.1,0.4-0.2,0.3-0.4c-0.1-0.2-0.4,0-0.5,0c-0.6,0.3-1.3-0.2-1.7-0.6
				C114.1,167.7,113.3,168.2,113.5,168.4L113.5,168.4z"/>
		</g>
	</g>
	<g>
		<path class="st3" d="M119,188.3v-8c-12.5-3.5-23.2-1-26.8,0v8.3C95.7,187.5,106.4,184.9,119,188.3z"/>
		<path class="st3" d="M93.5,188.9c2,0.6,6.2,1.6,11.9,1.6c5.7,0,10.2-1.1,12.3-1.8C106.8,186.1,97.6,187.8,93.5,188.9z"/>
	</g>
	<g>
		<path class="st6" d="M166.5,66c-0.2-8.4-12.3-15.3-27.2-15.3c-14.9,0-27,6.8-27.2,15.3h0v9.2h0c0.6,8.3,12.5,14.9,27.2,14.9
			c14.7,0,26.7-6.6,27.2-14.9h0L166.5,66L166.5,66z"/>
		<ellipse class="st7" cx="134.2" cy="70.4" rx="27.2" ry="15.5"/>
		<rect x="107" y="61.8" class="st7" width="54.5" height="9.2"/>
		<ellipse class="st8" cx="134.2" cy="62.1" rx="27.2" ry="15.5"/>
	</g>
	<g>
		<path class="st6" d="M105.9,66c-0.2-8.4-12.3-15.3-27.2-15.3c-14.9,0-27,6.8-27.2,15.3h0v9.2h0C52,83.5,64,90.2,78.6,90.2
			c14.7,0,26.7-6.6,27.2-14.9h0L105.9,66L105.9,66z"/>
		<ellipse class="st7" cx="73.6" cy="70.4" rx="27.2" ry="15.5"/>
		<rect x="46.4" y="61.8" class="st7" width="54.5" height="9.2"/>
		<ellipse class="st8" cx="73.6" cy="62.1" rx="27.2" ry="15.5"/>
	</g>
	<g>
		<path class="st6" d="M166.5,109.6c-0.2-8.4-12.3-15.3-27.2-15.3c-14.9,0-27,6.8-27.2,15.3h0v9.2h0c0.6,8.3,12.5,14.9,27.2,14.9
			c14.7,0,26.7-6.6,27.2-14.9h0L166.5,109.6L166.5,109.6z"/>
		<ellipse class="st7" cx="134.2" cy="114" rx="27.2" ry="15.5"/>
		<rect x="107" y="105.4" class="st7" width="54.5" height="9.2"/>
		<ellipse class="st8" cx="134.2" cy="105.7" rx="27.2" ry="15.5"/>
	</g>
	<g>
		<path class="st6" d="M105.9,109.6c-0.2-8.4-12.3-15.3-27.2-15.3c-14.9,0-27,6.8-27.2,15.3h0v9.2h0c0.6,8.3,12.5,14.9,27.2,14.9
			c14.7,0,26.7-6.6,27.2-14.9h0L105.9,109.6L105.9,109.6z"/>
		<ellipse class="st7" cx="73.6" cy="114" rx="27.2" ry="15.5"/>
		<rect x="46.4" y="105.4" class="st7" width="54.5" height="9.2"/>
		<ellipse class="st8" cx="73.6" cy="105.7" rx="27.2" ry="15.5"/>
	</g>
	<path class="st5" d="M53.4,87.3H52c-2,0-3.6-1.6-3.6-3.6V58.5c0-2,1.6-3.6,3.6-3.6h1.4c2,0,3.6,1.6,3.6,3.6v25.2
		C57,85.7,55.4,87.3,53.4,87.3z"/>
	<circle class="st5" cx="52.7" cy="45.5" r="4.6"/>
</g>
</svg>
