<?xml version="1.0" encoding="utf-8"?>
<!-- Generator: Adobe Illustrator 19.0.0, SVG Export Plug-In . SVG Version: 6.00 Build 0)  -->
<svg version="1.1" id="Layer_1" xmlns="http://www.w3.org/2000/svg" xmlns:xlink="http://www.w3.org/1999/xlink" x="0px" y="0px"
	 viewBox="-232 295.9 130 250" style="enable-background:new -232 295.9 130 250;" xml:space="preserve">
<style type="text/css">
	.st0{fill:#519E38;}
	.st1{fill:#F4F4F4;}
	.st2{fill:#D6D6D6;}
	.st3{fill:#EAEAEA;}
	.st4{fill:#FFFFFF;}
	.st5{fill:#119BD7;}
	.st6{fill:#62BA47;}
	.st7{fill:#63B746;}
</style>
<g id="Layer_2">
</g>
<g id="kolba_4">
</g>
<g id="kolba_3">
</g>
<g id="kolby">
</g>
<g id="doma">
</g>
<g id="car">
</g>
<g id="butylka_3">
</g>
<g id="butylka_1">
</g>
<g id="vanna_2">
</g>
<g id="vanna_1">
</g>
<g id="zakvaska">
</g>
<g id="shariki_2">
</g>
<g id="shariki_1">
</g>
<g id="voronka">
</g>
<g id="gradusnik">
</g>
<g id="kolba_2">
</g>
<g id="kolba_1">
</g>
<g id="probirki">
</g>
<g id="lupa">
</g>
<g id="bidon">
</g>
<g id="blank">
</g>
<g id="ticks">
</g>
<g id="_x32_">
	<g id="butylka_2">
		<g>
			<path class="st0" d="M-125.2,510.2c0,0,0-63.8,0-98.5s-14.3-47.9-14.3-47.9c3.7-21.5-6.5-27.8-6.5-27.8v-7.8h2.1
				c0,0,0-8.3,0-11.1s-3.7-2.4-3.7-2.4h-14.2h-1.3h-14.2c0,0-3.7-0.3-3.7,2.4s0,11.1,0,11.1h2.3v7.8h-0.2c0,0-10.3,6.5-6.5,27.8
				c0,0-14.3,13.2-14.3,47.9s0,98.5,0,98.5s-1.5,21.2,14.2,21.2c4.2,0,7.8,0,10.7,0c8,0,11.6,0,11.6,0h0.7h0.8l0,0h11.6l0,0
				c2.9,0,6.5,0,10.6,0l0,0C-123.7,531.3-125.2,510.2-125.2,510.2z"/>
			<path class="st1" d="M-132.9,505.3c0,0,0-63.8,0-98.5s-14.3-47.9-14.3-47.9c3.7-21.5-6.5-27.8-6.5-27.8v-8h-32.6v8h-0.2
				c0,0-10.3,6.5-6.5,27.8c0,0-14.3,13.2-14.3,47.9s0,98.5,0,98.5s-1.5,21.2,14.2,21.2c4.2,0,7.8,0,10.7,0c8,0,11.6,0,11.6,0h1.6
				h11.6c2.9,0,6.5,0,10.7,0C-131.4,526.5-132.9,505.3-132.9,505.3z"/>
			<path class="st2" d="M-155.3,309.8h-14.2h-1.3h-14.2c0,0-3.7-0.3-3.7,2.4c0,2.8,0,11.1,0,11.1h17.9h1.3h17.9c0,0,0-8.3,0-11.1
				C-151.6,309.5-155.3,309.8-155.3,309.8z"/>
			<path class="st3" d="M-132.9,505.3c0,0,0-63.8,0-98.5s-14.3-47.9-14.3-47.9c3.7-21.5-6.5-27.8-6.5-27.8v-8h-16.4v203.3h0.8h11.6
				c2.9,0,6.5,0,10.7,0C-131.4,526.5-132.9,505.3-132.9,505.3z"/>
			<path class="st4" d="M-195.2,395.4c-0.2,0-0.3,0-0.5,0c-2.3-0.3-3.9-2.4-3.6-4.6c1.8-14.2,8.8-22.8,9-23.3
				c1.5-1.8,4.1-2.1,5.9-0.7c1.8,1.5,2.1,4.1,0.7,5.7c0,0.2-5.7,7.3-7.3,19C-191.3,394-193.1,395.4-195.2,395.4z"/>
			<circle class="st5" cx="-169.8" cy="446" r="18.9"/>
			<circle class="st6" cx="-184.9" cy="463" r="6"/>
			<path class="st5" d="M-178.8,422.9c0,1.3-1.1,2.4-2.4,2.4s-2.4-1.1-2.4-2.4c0-1.3,1.1-2.4,2.4-2.4S-178.8,421.6-178.8,422.9
				L-178.8,422.9z"/>
			<path class="st6" d="M-178.8,431.1c0,1.8-1.5,3.1-3.1,3.1c-1.8,0-3.1-1.5-3.1-3.1c0-1.8,1.5-3.1,3.1-3.1
				C-180.1,428-178.8,429.4-178.8,431.1L-178.8,431.1z"/>
			<path class="st6" d="M-187.1,426.3c0,1-0.8,1.8-1.8,1.8s-1.8-0.8-1.8-1.8s0.8-1.8,1.8-1.8C-187.9,424.4-187.1,425.4-187.1,426.3
				L-187.1,426.3z"/>
			<path class="st4" d="M-156,445.9c-1.5-0.5-2.3,1.5-2.6,2.6l0,0l0,0c-0.3,1.1-0.7,1.6-0.8,1.6c-0.3-0.2-0.2-0.7-0.2-1
				c0-0.5,0-1-0.2-1.5c-0.2-0.3-0.7-0.5-1-0.5V447c0,0,0-0.2,0.2-0.2c0.2-0.3,0.3-0.8,0.7-1l0,0l0,0c0.2,0,0.3,0.3,0.5,0.3
				c0.3,0.5,1.6-0.3,1.3-0.7c-0.5-0.5-1.1-0.7-1.6-0.5c-0.3,0-0.7,0.3-1,0.5l-0.2,0.2c0-0.7,0-1.3,0-2c0-0.3-0.8-0.2-1.1,0.2
				l-0.2,0.2l0,0l0,0c-0.2,0.5-1,0.7-1.6,0.2l0,0c-0.2-0.2-0.3-0.3-0.7-0.3c-1.6-0.2-2.1,1.6-2.3,2.9l0,0c0,0.8-0.5,1.8-1,2
				c-0.2-0.2-0.2-0.2-0.2-0.3c-0.2-0.3-0.2-0.8-0.3-1.3c-0.2-1.1-0.2-2.3-0.2-3.4c0-0.2-0.2-0.3-0.5-0.2s-0.7,0.3-0.8,0.7
				c-0.5,1-0.7,2.1-0.8,3.3c0,0.3,0,0.7-0.2,1c0,0.2,0,0.3,0,0.3c-0.2,0-0.5-0.3-0.5-0.5c0-0.5-0.5-0.2-0.8,0.2
				c0.2-0.7,0.3-1.1,0.3-1.8c0-1-0.3-3.1-1.6-2.9c-1.5,0.2-1.8,2-2,3.3c0,1.1-0.2,2.1-0.2,2.3c-0.7,0.2-1-0.7-1.1-1
				c-0.3-0.8-0.5-1.6-0.7-2.4c-0.2-1.5-0.3-2.8-0.2-4.2c0-0.2-0.3-0.2-0.5-0.2c-0.3,0.2-0.7,0.5-0.7,0.7c-0.5,1-0.5,2.1-0.7,3.3l0,0
				c0-0.2,0-0.2,0-0.3c-0.2-0.8-0.3-1.8-0.3-2.6c0-0.5-0.2-1.3,0-1.6c0.2-0.8-1,0-1.1,0.3c-1,2-0.7,4.2-0.7,6.5c0,0.5,0,1.1-0.2,1.8
				c0,0.3-0.2,1.1-0.5,1.5c-0.2,0.2-0.7,0-0.8,0c-0.3-0.2-0.5-0.5-0.5-0.8s-0.3-0.2-0.7,0c-0.2,0.2-0.5,0.7-0.5,1
				c0.2,0.8,0.8,1.5,1.6,1.1c1.3-0.5,1.8-2,2.1-3.1c0.2-0.7,0.2-1.5,0.2-2.1c0.3,1.3,0.5,2.6,0.8,3.9c0.2,0.7,1.1-0.5,1.1-0.8
				c0-1,0-1.8,0.2-2.8c0.2,1.1,0.5,3.7,2.1,3.4c0.7-0.2,1.1-0.7,1.3-1.1c0.2,0.5,0.7,1,1.1,0.8c0.5,0,1-0.5,1.3-1
				c0,0.5,0.3,0.8,0.8,0.8c0.7,0,1.3-0.3,1.6-0.8c0.2-0.2,0.3-0.5,0.3-0.7c0,0.2,0,0.2,0,0.3c0,0.3,0.2,0.8,0.5,1.1s0.8,0.2,1.1-0.2
				s0.7-0.7,0.8-1c0.2,0.8,0.5,1.5,1.1,1.6s1.3-0.5,1.6-1c0.3-0.7,0.7-1.3,0.7-2c0-0.5,0.2-1.1,0-1.8c0.5,0,0.8-0.2,1.1-0.3
				c0,1.8-0.3,3.6-0.7,5.4c0,0.3,0.3,0.3,0.5,0.3c0.3-0.2,0.7-0.3,0.8-0.7c0.2-0.5,0.3-1.1,0.5-1.6c0.7,0.8,0,1.8,0.5,2.6
				c0.3,0.3,1.1,0.3,1.5,0.2c0.2-0.2,0.3-0.2,0.5-0.3c0.2,0.7,0.3,1.1,0.8,1.3c0.7,0.3,1.5-0.2,1.8-0.7c0.5-0.5,0.8-1.1,1-1.8
				C-154.8,448.5-154.5,446.4-156,445.9z M-173.1,448.5c0,0.2,0,0.3-0.2,0.3c-0.3,0-0.5-0.5-0.5-0.7c-0.2-0.5-0.3-1-0.3-1.5
				c0-0.5,0-1.1,0.2-1.6c0-0.2,0-0.3,0.2-0.3c0.7,0.2,0.8,1.6,0.8,2.1C-173.1,447.3-173.1,447.8-173.1,448.5z M-164.9,448.6
				c0,0.2-0.2,0.3-0.2,0.3c-0.3-0.2-0.3-0.5-0.5-0.8c-0.2-0.5-0.2-1-0.2-1.5s0.2-1,0.3-1.5c0-0.2,0.2-0.3,0.2-0.3
				c0.7,0.5,0.7,1.5,0.7,2.3C-164.6,447.7-164.8,448.2-164.9,448.6z M-156.8,450.8c0,0.2-0.2,0.2-0.2,0.3c-0.2-0.2-0.3-0.7-0.3-0.8
				c0-0.5,0-1.1,0-1.6c0.2-0.5,0.3-1,0.5-1.5c0-0.2,0.2-0.2,0.2-0.3c0.5,0.7,0.5,1.6,0.3,2.4C-156.5,449.8-156.6,450.3-156.8,450.8z
				"/>
			<g>
				<circle class="st6" cx="-153.7" cy="428.8" r="10.4"/>
				<g>
					<path class="st4" d="M-156.3,427.3c-0.8,0.2-1.1,1.1-1.1,1.8l0,0l0,0c0,0.2,0,0.2,0,0.3c0,0.3,0,0.7,0,1c0,0.2,0,0.3-0.2,0.5
						c-0.3,0-0.5-0.5-0.7-0.7c-0.2-0.5-0.3-1.1-0.5-1.6c-0.2-0.7-0.2-1.3-0.2-1.8c0-0.3,0-0.5,0-0.8c0-0.2,0-0.2,0-0.3v-0.2
						c0-0.5-0.5,0-0.7,0.2c-0.7,1.1-0.5,2.6-0.5,3.9c0,0.3,0,0.7,0,1.1c0,0.2-0.2,0.7-0.3,0.8c-0.2,0.2-0.3,0-0.5,0
						c-0.2-0.2-0.3-0.3-0.3-0.5c0-0.2-0.3-0.2-0.3,0c-0.2,0.2-0.3,0.5-0.3,0.7c0,0.5,0.5,0.8,1,0.8c0.8-0.2,1.1-1.1,1.3-2
						c0.2-0.3,0.2-0.7,0.2-1c0.2,0.5,0.3,1,0.5,1.5c0.2,0.3,0.5,0.7,1,0.7c0.3,0,0.5-0.5,0.7-0.8c0.2,0.3,0.3,0.7,0.8,0.5
						c0.5,0,0.8-0.5,1-0.8c0.2-0.5,0.3-0.8,0.2-1.3C-155.2,428.6-155.3,427.3-156.3,427.3z M-156,430.4c0,0.2,0,0.2,0,0.3
						c-0.2,0-0.3-0.3-0.3-0.3c-0.2-0.3-0.2-0.7-0.2-1s0-0.7,0-1c0,0,0-0.2,0-0.3c0.5,0.3,0.5,0.8,0.5,1.3
						C-156,429.8-156,430.1-156,430.4z"/>
					<path class="st4" d="M-145.9,428.6c-1-0.3-1.5,1-1.6,1.6s-0.3,1.8,0.5,2.1c0.3,0.2,0.8-0.2,1.1-0.3c0.3-0.3,0.5-0.7,0.7-1.1
						C-145.2,430.1-145.1,428.9-145.9,428.6z M-146.5,431.6L-146.5,431.6c-0.3,0-0.3-0.2-0.3-0.3c0-0.3,0-0.7,0-1s0.2-0.7,0.3-1
						l0.2-0.2c0.3,0.5,0.3,1,0.2,1.5C-146.2,430.9-146.4,431.2-146.5,431.6z"/>
					<path class="st4" d="M-148.5,428.8c0.2-0.2,0.3-0.5,0.5-0.7c0.3-0.5,0.7-1.1,0.7-1.8s-0.8-0.7-1.3-0.5c-0.7,0.3-1,1-1.1,1.5
						c-0.2,0.8-0.3,1.6-0.3,2.4l0,0c-0.3,0.3-1,1.1-1.3,0.8c-0.2,0-0.2-0.2-0.2-0.3c0.3-0.5,0.7-0.8,1-1.3c0.3-0.5,0.5-1.1,0-1.5
						c-0.5-0.3-1,0-1.3,0.3s-0.5,0.8-0.5,1.3c0,0.3,0,0.7,0,1.1c-0.3,0.2-0.7,0.3-1,0.2c-0.3,0-0.5-0.5-0.5-0.8
						c-0.2-0.5,0-0.8,0-1.3c0-0.2,0-0.3,0.2-0.3c0,0,0,0,0-0.2c0.2,0.2,0.3,0.5,0.3,0.7c0.2,0.3,0.8-0.2,0.8-0.5
						c-0.2-0.3-0.2-0.7-0.5-0.8c-0.3-0.2-0.8,0.2-1,0.3c-0.5,0.5-0.7,1.5-0.7,2.1c0,0.5,0.2,1.1,0.5,1.3c0.5,0.3,1.3,0,2-0.3
						c0.2,0.3,0.5,0.7,0.8,0.5c0.5,0,1.1-0.3,1.5-0.8c0,0.5,0.2,1,0.5,1.1c0.5,0.3,1.1,0,1.5-0.5c0.5-0.5,0.7-1.3,0.5-2
						C-148,428.9-148.2,428.8-148.5,428.8z M-151.6,428.5c0-0.2,0-0.2,0.2-0.3l0,0c0.2,0,0.3,0.3,0.2,0.5c0,0.3-0.3,0.7-0.5,1v-0.2
						C-151.7,429.1-151.7,428.8-151.6,428.5z M-148.6,426.7c0-0.2,0.2-0.2,0.2-0.3l0,0c0.3,0.3,0,1-0.2,1.3
						c-0.2,0.3-0.5,0.8-0.7,1.1c0-0.3,0.2-0.7,0.2-1.1C-149,427.3-148.8,427-148.6,426.7z M-148.8,430.9
						C-148.8,431.1-148.8,431.1-148.8,430.9c-0.2,0.2-0.2,0.2-0.2,0.2c-0.2-0.2-0.3-0.7-0.3-0.8s0-0.3,0-0.5
						c0.2-0.2,0.2-0.2,0.3-0.3c0.2-0.2,0.3,0.2,0.3,0.3C-148.5,430.1-148.6,430.6-148.8,430.9z"/>
				</g>
			</g>
			<g>
				<path class="st4" d="M-189,462c0.2-0.7,0.7-0.2,0.8,0.2c0.2,0.3,0,0.8-0.3,1.1c-0.2,0.3-0.5,0.5-0.8,0.7
					c-0.2,0.2-0.3,0.2-0.3,0.3v0.2c0.2,0.2,0.7,0.2,0.8,0.2c0.5,0,1,0,1.3-0.2c0.2-0.2,0.5-0.7,0-0.5c-0.3,0.2-0.7,0.2-1,0.2
					c-0.2,0-0.5,0-0.7-0.2v0.2c-0.2,0.3,0,0.2,0,0c0.2-0.2,0.3-0.2,0.3-0.3c0.2-0.2,0.5-0.3,0.7-0.7c0.3-0.5,0.7-1,0.5-1.6
					c-0.2-1.3-1.6-0.3-2,0.3C-189.7,462.5-189,462.2-189,462L-189,462z"/>
				<path class="st4" d="M-185.6,464.1c0.5,1.5,2.6,0.5,2.3-0.8c-0.2-0.7-1-0.5-1.5-0.7c-0.3-0.2-0.3-0.3-0.3-0.7
					c0.2-0.3,0-0.3-0.2-0.2c0,0,0.2,0,0.3,0c0.5-0.2,1,0,1.3,0.2c0.2,0.2,0.7-0.3,0.3-0.5c-0.5-0.3-1.1-0.2-1.6-0.2
					c-0.5,0.2-0.7,0.7-0.7,1.1c0,0.7,0.5,0.7,1,0.8c0.3,0,0.7,0.2,0.7,0.7c0,0.7-0.7,0.7-1,0.3c-0.2-0.2-0.2-0.3-0.3-0.5
					C-185.3,463.5-185.8,463.9-185.6,464.1L-185.6,464.1z"/>
				<g>
					<path class="st4" d="M-180.7,461.5c-0.7,1-1.3,2-2.1,2.9c-0.3,0.5,0.2,0.3,0.3,0.2c0.8-1,1.5-2,2.1-3.1
						C-179.9,461-180.5,461.3-180.7,461.5L-180.7,461.5z"/>
					<path class="st4" d="M-181.8,461.2c-0.3,0-0.7,0.3-0.7,0.7s0.2,0.7,0.5,0.7C-181.4,462.6-181,461.3-181.8,461.2
						c-0.2,0-0.5,0.3-0.2,0.3c0.2,0,0.3,0.2,0.3,0.3v0.2l0,0c0,0,0,0-0.2,0c-0.2,0-0.3-0.2-0.3-0.3v-0.2l0,0c0,0,0,0,0.2,0
						C-181.8,461.7-181.5,461.2-181.8,461.2z"/>
					<path class="st4" d="M-180.7,463.3c-0.3,0-0.7,0.3-0.7,0.7s0.2,0.7,0.5,0.7C-180.2,464.8-179.9,463.5-180.7,463.3
						c-0.2,0-0.5,0.3-0.2,0.3c0.2,0,0.3,0.2,0.3,0.3v0.2l0,0c0,0,0,0-0.2,0s-0.3-0.2-0.3-0.3v-0.2l0,0c0,0,0,0,0.2,0
						C-180.9,463.8-180.5,463.3-180.7,463.3z"/>
				</g>
				<path class="st4" d="M-186.6,465.4c0.3-0.2,0.5-0.7,0.5-1c0-0.2,0-0.3,0-0.3c-0.2-0.2-0.3,0-0.5,0c-0.2,0-0.3,0.3-0.3,0.5
					s0.2,0.2,0.3,0.2l0,0l0,0v0.2c0,0.2,0,0.2,0,0.2l0,0l0,0l0,0l0,0c0,0-0.3,0.3-0.2,0.3C-186.7,465.6-186.6,465.4-186.6,465.4
					L-186.6,465.4z"/>
			</g>
			<g>
				<path class="st7" d="M-192.9,438.1c-0.2,0-0.2-0.2-0.3-0.2c-0.3-0.2-0.7,0.2-1.1,0.2c-1,0-1.3,0-2.3-0.3c0-1,0.5-1.5,0.8-2.3
					c0.2-0.7-0.2-1.5-0.2-2.1c0-0.5,0-0.8,0-1.3c-0.3,0.3-0.2,1.1-0.2,1.6c-0.2-0.5-0.2-1.3-0.3-1.8c-0.2,0.5,0,1.3,0,1.8
					c-0.2-0.5-0.2-1.1-0.3-1.6c-0.3,0.5,0.2,1.3,0.2,1.8c-0.2-0.5-0.3-1-0.5-1.5c0,0.7,0.2,1.1,0.2,1.5c-0.2-0.3-0.3-0.8-0.5-1
					c0,0.3,0.3,0.8,0.3,1.1c-0.3-0.2-0.3-0.5-0.7-0.5c0,0.3,0.2,0.5,0.3,0.7c-0.2-0.2-0.3-0.3-0.5-0.3c0,0.3,0.3,0.3,0.3,0.7
					c-0.2-0.2-0.2-0.2-0.3-0.3c0,0.2,0.3,0.3,0.3,0.5c0,0-0.2-0.2-0.2,0l0.2,0.2h-0.2c0,0.2,0.2,0.2,0.2,0.3c0,0,0,0-0.2,0
					c0,0.2,0.2,0.2,0.2,0.2c-0.8,0.8-0.3,1.6-0.5,2.6c0-0.2-0.7-0.3-1.1-0.5c-0.3-0.2-0.3-0.5-0.7-0.5c0,0,0,0,0.2-0.2
					c-0.2,0-0.2,0-0.2-0.2c0.2,0,0.3,0,0.3,0c-0.2,0-0.5-0.2-0.5-0.3c0.2,0,0.3,0.2,0.5,0.2c-0.2-0.2-0.7-0.3-0.7-0.5
					c0.2,0,0.5,0.3,0.7,0.2c-0.3-0.2-0.8-0.5-0.8-0.7c0.2,0.2,0.5,0.3,0.8,0.3c-0.3-0.2-0.7-0.5-1.1-0.5c0.2,0.3,0.8,0.5,0.8,0.8
					c-0.3-0.2-0.7-0.3-1-0.5c0.2,0.3,0.5,0.5,0.8,0.7c-0.3,0-0.5-0.2-0.8-0.2c0.2,0.3,0.5,0.2,0.7,0.5c-0.2,0-0.3,0-0.5,0
					c0,0.2,0.3,0.2,0.5,0.3c-0.2,0-0.3,0-0.3,0.2c0.2,0.2,0.3,0,0.3,0.2c-0.2,0-0.2,0-0.2,0.2c0,0,0.2,0,0.3,0.2c0,0-0.2,0-0.2,0.2
					h0.2c0,0,0,0-0.2,0.2c0.5,0.2,0.7,1,1.1,1.1c-0.3,0.2,0.3,0.5-3.3,1.6c0.2,0,1.6-0.3,2.1-0.5c0.5-0.2,1-0.3,1.3-0.5
					c0.2,0,0.2,0,0.3-0.2c0.8,0,1.5,0,2.1-0.5c-0.5,0.2-1.5,0.2-2-0.2c0.5-0.8,0.2-2.8,0.5-3.1c0.5-0.3,1-1.6,1.8-0.7
					c0.2,0.2,0.2,0.5-0.2,0.8c-0.3,0.5-0.5,0.8-0.5,2c0,0.2,0,0.5-0.3,0.5c1.6,0.3,2.1,0.2,2.9,0c0.3,0,0.8-0.3,0.8,0
					c0,0.2-0.3,0.2-0.5,0.2c-0.5,0,0.2,0.2,0.3,0.2c0.2,0,1-0.2,1.3-0.2C-192.4,438.2-192.6,438.2-192.9,438.1z"/>
				<path class="st7" d="M-197.5,430.1c-3.6,0-6.5,2.9-6.5,6.5s2.9,6.5,6.5,6.5c3.6,0,6.5-2.9,6.5-6.5S-193.9,430.1-197.5,430.1
					 M-197.5,430.3c3.4,0,6.3,2.8,6.3,6.3c0,3.4-2.8,6.3-6.3,6.3c-3.4,0-6.3-2.8-6.3-6.3C-203.8,433.2-201.1,430.3-197.5,430.3"/>
			</g>
		</g>
	</g>
</g>
</svg>
