<?xml version="1.0" encoding="utf-8"?>
<!-- Generator: Adobe Illustrator 19.0.0, SVG Export Plug-In . SVG Version: 6.00 Build 0)  -->
<svg version="1.1" id="Layer_1" xmlns="http://www.w3.org/2000/svg" xmlns:xlink="http://www.w3.org/1999/xlink" x="0px" y="0px"
	 viewBox="-232 295.9 130 250" style="enable-background:new -232 295.9 130 250;" xml:space="preserve">
<style type="text/css">
	.st0{fill:#519E38;}
	.st1{fill:#F4F4F4;}
	.st2{fill:#D6D6D6;}
	.st3{fill:#EAEAEA;}
	.st4{fill:#86D2E0;}
	.st5{fill:#62BA47;}
	.st6{fill:#FFFFFF;}
	.st7{fill:#63B746;}
</style>
<g id="Layer_2">
</g>
<g id="kolba_4">
</g>
<g id="kolba_3">
</g>
<g id="kolby">
</g>
<g id="doma">
</g>
<g id="car">
</g>
<g id="butylka_3">
</g>
<g id="butylka_1">
</g>
<g id="vanna_2">
</g>
<g id="vanna_1">
</g>
<g id="zakvaska">
</g>
<g id="shariki_2">
</g>
<g id="shariki_1">
</g>
<g id="voronka">
</g>
<g id="gradusnik">
</g>
<g id="kolba_2">
</g>
<g id="kolba_1">
</g>
<g id="probirki">
</g>
<g id="lupa">
</g>
<g id="bidon">
</g>
<g id="blank">
</g>
<g id="ticks">
</g>
<g id="_x31_">
	<g id="Layer_2_1_">
	</g>
	<g id="car_1_">
	</g>
	<g id="butylka_1_1_">
		<g>
			<path class="st0" d="M-125.7,511c0,0,0-64.4,0-99.4s-14.5-48.3-14.5-48.3c3.8-21.7-6.6-28.1-6.6-28.1v-7.9h2.1c0,0,0-8.4,0-11.2
				s-3.8-2.5-3.8-2.5h-14.3h-1.3h-14.3c0,0-3.8-0.3-3.8,2.5s0,11.2,0,11.2h2.3v7.9h-0.2c0,0-10.3,6.6-6.6,28.1
				c0,0-14.5,13.3-14.5,48.3s0,99.4,0,99.4s-1.5,21.4,14.3,21.4c4.3,0,7.9,0,10.8,0c8,0,11.7,0,11.7,0h0.7h0.8l0,0h11.7l0,0
				c3,0,6.6,0,10.7,0l0,0C-124.2,532.3-125.7,511-125.7,511z"/>
			<path class="st1" d="M-133.1,506.1c0,0,0-64.4,0-99.4s-14.5-48.3-14.5-48.3c3.8-21.7-6.6-28.1-6.6-28.1v-8H-187v8h-0.2
				c0,0-10.3,6.6-6.6,28.1c0,0-14.5,13.3-14.5,48.3s0,99.4,0,99.4s-1.5,21.4,14.3,21.4c4.3,0,7.9,0,10.8,0c8,0,11.7,0,11.7,0h1.6
				h11.7c3,0,6.6,0,10.8,0C-131.6,527.4-133.1,506.1-133.1,506.1z"/>
			<path class="st2" d="M-155.9,308.8h-14.3h-1.3h-14.3c0,0-3.8-0.3-3.8,2.5c0,2.8,0,11.2,0,11.2h18.1h1.3h18.1c0,0,0-8.4,0-11.2
				C-152,308.5-155.9,308.8-155.9,308.8z"/>
			<path class="st3" d="M-133.2,506.1c0,0,0-64.4,0-99.4s-14.5-48.3-14.5-48.3c3.8-21.7-6.6-28.1-6.6-28.1v-8h-16.6v205.2h0.8h11.7
				c3,0,6.6,0,10.8,0C-131.8,527.4-133.2,506.1-133.2,506.1z"/>
			<g>
				<circle class="st4" cx="-170.5" cy="446.3" r="18.9"/>
				<circle class="st5" cx="-185.6" cy="463" r="5.9"/>
				<path class="st4" d="M-179.6,423.1c0,1.3-1.1,2.5-2.5,2.5c-1.3,0-2.5-1.1-2.5-2.5c0-1.3,1.1-2.5,2.5-2.5
					C-180.6,420.6-179.6,421.8-179.6,423.1L-179.6,423.1z"/>
				<path class="st5" d="M-179.4,431.2c0,1.6-1.3,3.1-3.1,3.1c-1.6,0-3.1-1.3-3.1-3.1c0-1.6,1.3-3.1,3.1-3.1
					C-180.9,428.2-179.4,429.5-179.4,431.2L-179.4,431.2z"/>
				<path class="st5" d="M-187.8,426.4c0,1-0.8,1.8-1.8,1.8s-1.8-0.8-1.8-1.8s0.8-1.8,1.8-1.8S-187.8,425.4-187.8,426.4
					L-187.8,426.4z"/>
				<path class="st6" d="M-156.7,446.1c-1.5-0.5-2.3,1.5-2.6,2.6l0,0l0,0c-0.3,1.1-0.7,1.6-0.8,1.6c-0.3-0.2-0.2-0.7-0.2-1
					c0-0.5,0-1-0.2-1.5c-0.2-0.3-0.7-0.5-1-0.5v-0.2c0,0,0-0.2,0.2-0.2c0.2-0.3,0.3-0.8,0.7-1l0,0l0,0c0.2,0,0.3,0.3,0.5,0.3
					c0.3,0.5,1.6-0.2,1.3-0.7c-0.5-0.5-1-0.7-1.6-0.5c-0.3,0-0.7,0.3-1,0.5l-0.2,0.2c0-0.7,0-1.3,0-2c0-0.3-0.8-0.2-1.1,0.2
					l-0.2,0.2l0,0l0,0c-0.2,0.5-1,0.7-1.6,0.2l0,0c-0.2-0.2-0.3-0.3-0.7-0.3c-1.6-0.2-2.1,1.6-2.3,3l0,0c0,0.8-0.5,1.8-1,2
					c-0.2-0.2-0.2-0.2-0.2-0.3c-0.2-0.3-0.2-0.8-0.3-1.1c-0.2-1.1-0.2-2.3-0.2-3.4c0-0.2-0.2-0.3-0.5-0.2c-0.3,0.2-0.7,0.3-0.8,0.7
					c-0.5,1-0.7,2.1-0.8,3.3c0,0.3,0,0.7-0.2,1c0,0.2,0,0.2,0,0.3c-0.2,0-0.5-0.3-0.5-0.5c0-0.3-0.5-0.2-0.8,0.2
					c0.2-0.5,0.3-1.1,0.3-1.8c0-1-0.3-3.1-1.6-3c-1.5,0.2-1.8,2-1.8,3.1c0,1.1-0.2,2.1-0.2,2.3c-0.7,0.2-1-0.7-1.1-1
					c-0.3-0.8-0.5-1.6-0.5-2.5c-0.2-1.5-0.3-2.8-0.2-4.1c0-0.2-0.3-0.2-0.5-0.2c-0.3,0.2-0.7,0.5-0.7,0.7c-0.5,1-0.5,2.1-0.7,3.3
					l0,0c0-0.2,0-0.2,0-0.3c-0.2-0.8-0.3-1.8-0.3-2.6c0-0.5-0.2-1.3,0-1.6c0.2-0.7-1,0-1.1,0.3c-1,2-0.7,4.3-0.7,6.4
					c0,0.5,0,1.1-0.2,1.6c0,0.3-0.2,1.1-0.5,1.5c-0.2,0.2-0.7,0-0.8,0c-0.3-0.2-0.5-0.5-0.5-0.8c0-0.3-0.3-0.2-0.7,0
					c-0.2,0.2-0.5,0.7-0.5,1c0.2,0.8,0.8,1.5,1.6,1.1c1.3-0.5,1.8-2,2.1-3.1c0.2-0.7,0.2-1.5,0.2-2.1c0.3,1.3,0.5,2.6,0.8,3.9
					c0.2,0.7,1.1-0.5,1.1-0.8c0-1,0-1.8,0.2-2.8c0.2,1.1,0.5,3.6,2.1,3.4c0.7-0.2,1-0.7,1.3-1.1c0.2,0.5,0.7,0.8,1.1,0.8
					c0.5,0,1-0.5,1.3-1c0,0.5,0.3,0.8,0.8,0.8c0.7,0,1.3-0.3,1.6-0.8c0.2-0.2,0.3-0.5,0.3-0.7c0,0.2,0,0.2,0,0.3
					c0,0.3,0.2,0.8,0.5,1.1c0.3,0.3,0.8,0.2,1.1-0.2c0.3-0.3,0.7-0.7,0.8-1c0.2,0.8,0.5,1.5,1.1,1.6s1.3-0.5,1.6-1
					c0.3-0.7,0.7-1.3,0.7-2c0-0.5,0.2-1.1,0-1.8c0.5,0,0.8-0.2,1.1-0.3c0,1.8-0.3,3.6-0.7,5.4c0,0.3,0.3,0.3,0.5,0.3
					c0.3-0.2,0.7-0.3,0.7-0.7c0.2-0.5,0.3-1.1,0.5-1.6c0.7,0.8,0,1.8,0.5,2.6c0.3,0.3,1.1,0.3,1.5,0.2c0.2-0.2,0.3-0.2,0.5-0.3
					c0.2,0.5,0.3,1,0.8,1.3c0.7,0.3,1.3-0.2,1.8-0.7c0.5-0.5,0.8-1.1,1-1.8C-155.6,448.6-155.3,446.6-156.7,446.1z M-173.8,448.6
					c0,0.2,0,0.3-0.2,0.3c-0.3,0-0.5-0.5-0.5-0.7c-0.2-0.5-0.3-1-0.3-1.5c0-0.5,0-1,0.2-1.6c0-0.2,0-0.3,0.2-0.3
					c0.7,0.2,0.8,1.6,0.8,2.1C-173.7,447.4-173.7,447.9-173.8,448.6z M-165.6,448.7c0,0.2-0.2,0.3-0.2,0.3c-0.3-0.2-0.3-0.5-0.5-0.8
					c-0.2-0.5-0.2-1-0.2-1.5c0-0.5,0.2-1,0.3-1.5c0-0.2,0.2-0.3,0.2-0.3c0.7,0.5,0.7,1.5,0.7,2.3
					C-165.4,447.7-165.4,448.2-165.6,448.7z M-157.6,450.9c0,0.2-0.2,0.2-0.2,0.3c-0.2-0.2-0.3-0.7-0.3-0.8c0-0.5,0-1,0-1.5
					c0.2-0.5,0.3-1,0.5-1.5c0-0.2,0.2-0.2,0.2-0.3c0.5,0.7,0.5,1.6,0.3,2.3C-157.2,449.9-157.4,450.4-157.6,450.9z"/>
				<g>
					<circle class="st5" cx="-154.4" cy="429" r="10.3"/>
					<g>
						<path class="st6" d="M-157.1,427.5c-0.8,0.2-1.1,1.1-1.1,1.8l0,0l0,0c0,0.2,0,0.2,0,0.3c0,0.3,0,0.7,0,1c0,0.2,0,0.3-0.2,0.3
							c-0.3,0-0.5-0.5-0.7-0.7c-0.2-0.5-0.3-1.1-0.5-1.6c-0.2-0.7-0.2-1.1-0.2-1.8c0-0.3,0-0.5,0-0.8c0-0.2,0-0.2,0-0.3v-0.2
							c0-0.5-0.5,0-0.7,0.2c-0.7,1.1-0.5,2.6-0.5,3.9c0,0.3,0,0.7,0,1.1c0,0.2-0.2,0.7-0.3,0.8c-0.2,0.2-0.3,0-0.5,0
							c-0.2-0.2-0.3-0.3-0.3-0.5s-0.3-0.2-0.3,0c-0.2,0.2-0.3,0.5-0.3,0.7c0,0.5,0.5,0.8,1,0.7c0.8-0.2,1.1-1.1,1.3-1.8
							c0.2-0.3,0.2-0.7,0.2-1c0.2,0.5,0.3,1,0.5,1.5c0.2,0.3,0.5,0.7,1,0.7c0.3,0,0.5-0.3,0.7-0.8c0.2,0.3,0.3,0.7,0.8,0.5
							c0.5,0,0.8-0.5,1-0.8c0.2-0.5,0.3-0.8,0.2-1.3C-155.9,428.7-156.1,427.4-157.1,427.5z M-156.7,430.5c0,0.2,0,0.2,0,0.3
							c-0.2,0-0.3-0.3-0.3-0.3c-0.2-0.3-0.2-0.7-0.2-1s0-0.7,0-1c0,0,0-0.2,0-0.3c0.5,0.3,0.5,0.8,0.5,1.3
							C-156.7,429.8-156.7,430.2-156.7,430.5z"/>
						<path class="st6" d="M-146.7,428.7c-1-0.3-1.5,1-1.6,1.6s-0.3,1.8,0.5,2.1c0.3,0.2,0.8-0.2,1.1-0.3c0.3-0.3,0.5-0.7,0.5-1.1
							C-146.1,430.2-145.9,429-146.7,428.7z M-147.2,431.7l-0.2,0.2c-0.2-0.2-0.2-0.3-0.2-0.5c0-0.3,0-0.7,0-1s0.2-0.7,0.3-1
							l0.2-0.2c0.3,0.3,0.3,1,0.2,1.5C-147,431.2-147,431.5-147.2,431.7z"/>
						<path class="st6" d="M-149.2,428.9c0.2-0.2,0.3-0.5,0.5-0.7c0.3-0.5,0.7-1.1,0.7-1.8s-0.8-0.7-1.3-0.5c-0.7,0.3-1,1-1.1,1.5
							c-0.2,0.8-0.3,1.6-0.3,2.5l0,0c-0.3,0.3-0.8,1.1-1.3,0.8c-0.2,0-0.2-0.2-0.2-0.3c0.3-0.3,0.7-0.8,1-1.3c0.3-0.5,0.5-1.1,0-1.5
							c-0.5-0.3-1,0-1.3,0.3c-0.3,0.3-0.5,0.8-0.5,1.3c0,0.3,0,0.7,0,1.1c-0.3,0.2-0.7,0.3-1,0.2c-0.3,0-0.5-0.5-0.5-0.7
							c-0.2-0.5,0-0.8,0-1.3c0-0.2,0-0.3,0.2-0.3c0,0,0,0,0-0.2c0.2,0.2,0.3,0.5,0.3,0.7c0.2,0.3,0.8-0.2,0.8-0.5
							c-0.2-0.3-0.2-0.7-0.5-0.8c-0.3-0.2-0.8,0.2-1,0.3c-0.5,0.5-0.7,1.5-0.7,2.1c0,0.5,0.2,1.1,0.5,1.3c0.5,0.3,1.3,0,1.8-0.3
							c0.2,0.3,0.3,0.7,0.8,0.5c0.5,0,1-0.3,1.5-0.8c0,0.5,0.2,0.8,0.5,1c0.5,0.3,1.1,0,1.5-0.5c0.5-0.5,0.7-1.3,0.5-2
							C-148.7,429-149,428.9-149.2,428.9z M-152.3,428.5c0-0.2,0.2-0.2,0.2-0.3l0,0c0.2,0,0.3,0.3,0.2,0.5c0,0.3-0.3,0.7-0.5,1v-0.2
							C-152.5,429.2-152.5,428.9-152.3,428.5z M-149.3,426.9c0-0.2,0.2-0.2,0.2-0.3l0,0c0.3,0.3,0,1-0.2,1.3s-0.5,0.8-0.7,1.1
							c0-0.3,0.2-0.7,0.2-1C-149.7,427.5-149.5,427.2-149.3,426.9z M-149.5,431C-149.5,431.2-149.7,431.2-149.5,431
							c-0.2,0.2-0.2,0.2-0.2,0.2c-0.2-0.2-0.2-0.7-0.3-0.8c0-0.2,0-0.3,0-0.5c0.2-0.2,0.2-0.2,0.3-0.3c0.2-0.2,0.3,0.2,0.3,0.3
							C-149.2,430.3-149.3,430.7-149.5,431z"/>
					</g>
				</g>
				<g>
					<path class="st6" d="M-188.4,462.7c0.2-0.2,0.3-0.5,0.5-0.8c0.2-0.2,0.2-0.2,0.3-0.3c0.2-0.2,0.2-0.2,0,0c0,0.2,0,0.3,0,0.5
						c0,1,0,2-0.2,3.1c0,0.3,0.7-0.2,0.7-0.3c0-0.7,0.2-1.3,0.2-2c0-0.3,0.2-1.8-0.2-2c-0.7-0.2-1.3,1.3-1.6,1.8
						C-189.3,463-188.8,463-188.4,462.7L-188.4,462.7z"/>
					<path class="st6" d="M-183.2,461.4c-0.7,1.1-1.6,2.3-2.5,3.4c-0.3,0.5,0.2,0.5,0.5,0.2c0.8-1.1,1.8-2.3,2.6-3.6
						C-182.4,460.7-183,461.1-183.2,461.4L-183.2,461.4z"/>
					<path class="st6" d="M-184.5,461.1c-0.5,0-0.8,0.5-0.8,0.8c0,0.3,0.2,0.7,0.5,0.7C-184,462.5-183.5,461.1-184.5,461.1
						c-0.2,0-0.5,0.5-0.3,0.5c0.2,0,0.3,0.2,0.3,0.3v0.2l0,0c0,0,0,0-0.2,0s-0.3-0.2-0.3-0.3s0-0.2,0-0.2l0,0c0,0,0,0,0.2,0
						C-184.7,461.4-184.3,460.9-184.5,461.1z"/>
					<path class="st6" d="M-183.3,463.5c-0.5,0-0.8,0.5-0.8,0.8c0,0.3,0.2,0.7,0.5,0.7C-182.7,465.2-182.4,463.5-183.3,463.5
						c-0.2,0-0.5,0.5-0.3,0.5s0.3,0.2,0.3,0.3v0.2l0,0c0,0,0,0-0.2,0s-0.3-0.2-0.3-0.3V464l0,0c0,0,0,0,0.2,0
						C-183.3,464-183,463.5-183.3,463.5z"/>
				</g>
				<g>
					<path class="st7" d="M-193.5,438.2c-0.2,0-0.2-0.2-0.3-0.2c-0.3-0.2-0.7,0.2-1.1,0.2c-0.8,0-1.1,0-2.3-0.3c0-1,0.5-1.5,0.8-2.3
						c0.2-0.7-0.2-1.3-0.2-2.1c0-0.5,0-0.8,0-1.3c-0.3,0.3-0.2,1.1-0.2,1.5c-0.2-0.5-0.2-1.3-0.3-1.8c-0.2,0.5,0,1.3,0,1.8
						c-0.2-0.5-0.2-1.1-0.3-1.5c-0.3,0.5,0.2,1.3,0.2,1.6c-0.2-0.5-0.3-1-0.5-1.3c0,0.7,0.2,1.1,0.2,1.5c-0.2-0.3-0.3-0.8-0.5-1
						c0,0.3,0.2,0.8,0.3,1.1c-0.3-0.2-0.3-0.5-0.7-0.5c0,0.3,0.2,0.5,0.3,0.7c-0.2-0.2-0.3-0.3-0.5-0.3c0,0.3,0.3,0.3,0.3,0.7
						c-0.2-0.2-0.2-0.2-0.3-0.3c0,0.2,0.3,0.3,0.3,0.5c0,0-0.2-0.2-0.2,0l0.2,0.2h-0.2c0,0.2,0.2,0.2,0.2,0.3c0,0,0,0-0.2,0
						c0,0.2,0.2,0,0.2,0.2c-0.8,0.8-0.3,1.6-0.5,2.6c0-0.2-0.7-0.3-1.1-0.5c-0.3-0.2-0.3-0.5-0.5-0.5c0,0,0,0,0.2-0.2
						c-0.2,0-0.2,0-0.2-0.2c0.2,0,0.3,0,0.3,0c-0.2,0-0.5-0.2-0.5-0.3c0.2,0,0.3,0.2,0.5,0.2c-0.2-0.2-0.7-0.3-0.7-0.5
						c0.2,0,0.5,0.3,0.7,0.2c-0.3-0.2-0.8-0.5-0.8-0.7c0.2,0.2,0.5,0.3,0.8,0.3c-0.3-0.2-0.7-0.5-1.1-0.5c0.2,0.3,0.7,0.5,0.8,0.8
						c-0.3-0.2-0.7-0.3-1-0.5c0.2,0.3,0.5,0.5,0.8,0.7c-0.3,0-0.5-0.2-0.7-0.2c0.2,0.3,0.5,0.2,0.7,0.5c-0.2,0-0.3,0-0.5,0
						c0,0.2,0.3,0.2,0.5,0.3c-0.2,0-0.3,0-0.3,0.2c0.2,0.2,0.3,0,0.3,0.2c-0.2,0-0.2,0-0.2,0.2c0,0,0.2,0,0.3,0.2c0,0-0.2,0-0.2,0.2
						h0.2c0,0,0,0-0.2,0.2c0.5,0.2,0.7,0.8,1.1,1.1c-0.3,0.2,0.3,0.5-3.3,1.6c0.2,0,1.6-0.3,2-0.5c0.5-0.2,0.8-0.3,1.3-0.5
						c0.2,0,0.2,0,0.3-0.2c0.8,0,1.5,0,2.1-0.3c-0.5,0.2-1.5,0.2-2-0.2c0.5-0.8,0.2-2.6,0.5-3.1c0.3-0.3,1-1.6,1.8-0.5
						c0.2,0.2,0.2,0.5-0.2,0.8c-0.3,0.5-0.5,0.8-0.5,2c0,0.2,0,0.5-0.3,0.5c1.6,0.3,2,0.2,3,0c0.3,0,0.7-0.3,0.8,0
						c0,0.2-0.3,0.2-0.5,0.2c-0.5,0,0.2,0.2,0.3,0.2c0.2,0,1-0.2,1.3-0.2C-193,438.4-193.2,438.4-193.5,438.2z"/>
					<path class="st7" d="M-198.1,430.2c-3.6,0-6.6,3-6.6,6.6c0,3.6,3,6.6,6.6,6.6s6.6-3,6.6-6.6
						C-191.6,433.1-194.5,430.2-198.1,430.2 M-198.1,430.3c3.4,0,6.2,2.8,6.2,6.2s-2.8,6.2-6.2,6.2s-6.2-2.8-6.2-6.2
						C-204.4,433.3-201.6,430.3-198.1,430.3"/>
				</g>
			</g>
			<path class="st6" d="M-196,395.2c-0.2,0-0.3,0-0.5,0c-2.3-0.3-3.9-2.5-3.6-4.6c1.8-14.3,8.9-23,9-23.5c1.5-1.8,4.1-2.1,5.9-0.7
				s2.1,4.1,0.7,5.7c0,0.2-5.7,7.4-7.4,19.2C-192.2,393.7-194,395.2-196,395.2z"/>
		</g>
	</g>
	<g id="blank_1_">
	</g>
</g>
</svg>
