<?xml version="1.0" encoding="utf-8"?>
<!-- Generator: Adobe Illustrator 19.0.0, SVG Export Plug-In . SVG Version: 6.00 Build 0)  -->
<svg version="1.1" id="Layer_1" xmlns="http://www.w3.org/2000/svg" xmlns:xlink="http://www.w3.org/1999/xlink" x="0px" y="0px"
	 viewBox="-232 295.9 130 250" style="enable-background:new -232 295.9 130 250;" xml:space="preserve">
<style type="text/css">
	.st0{fill:#519E38;}
	.st1{fill:#F4F4F4;}
	.st2{fill:#D6D6D6;}
	.st3{fill:#EAEAEA;}
	.st4{fill:#FFFFFF;}
	.st5{fill:#164988;}
	.st6{fill:#62BA47;}
	.st7{fill:#63B746;}
</style>
<g id="Layer_2">
</g>
<g id="kolba_4">
</g>
<g id="kolba_3">
</g>
<g id="kolby">
</g>
<g id="doma">
</g>
<g id="car">
</g>
<g id="butylka_3">
</g>
<g id="butylka_1">
</g>
<g id="vanna_2">
</g>
<g id="vanna_1">
</g>
<g id="zakvaska">
</g>
<g id="shariki_2">
</g>
<g id="shariki_1">
</g>
<g id="voronka">
</g>
<g id="gradusnik">
</g>
<g id="kolba_2">
</g>
<g id="kolba_1">
</g>
<g id="probirki">
</g>
<g id="lupa">
</g>
<g id="bidon">
</g>
<g id="blank">
</g>
<g id="ticks">
</g>
<g id="_x33_">
	<g id="butylka_3_1_">
		<g>
			<path class="st0" d="M-125.7,510.2c0,0,0-63.8,0-98.5s-14.3-47.9-14.3-47.9c3.7-21.5-6.5-27.8-6.5-27.8v-7.8h2.1
				c0,0,0-8.3,0-11.1s-3.7-2.4-3.7-2.4h-14.2h-1.3h-14.2c0,0-3.7-0.3-3.7,2.4s0,11.1,0,11.1h2.3v7.8h-0.2c0,0-10.3,6.5-6.5,27.8
				c0,0-14.3,13.2-14.3,47.9s0,98.5,0,98.5s-1.5,21.2,14.2,21.2c4.2,0,7.8,0,10.7,0c8,0,11.6,0,11.6,0h0.7h0.8l0,0h11.6l0,0
				c2.9,0,6.5,0,10.6,0l0,0C-124.2,531.3-125.7,510.2-125.7,510.2z"/>
			<path class="st1" d="M-133.8,505.3c0,0,0-63.8,0-98.5s-14.3-47.9-14.3-47.9c3.7-21.5-6.5-27.8-6.5-27.8v-8h-32.6v8h-0.2
				c0,0-10.3,6.5-6.5,27.8c0,0-14.3,13.2-14.3,47.9s0,98.5,0,98.5s-1.5,21.2,14.2,21.2c4.2,0,7.8,0,10.7,0c8,0,11.6,0,11.6,0h1.6
				h11.6c2.9,0,6.5,0,10.7,0C-132.4,526.5-133.8,505.3-133.8,505.3z"/>
			<path class="st2" d="M-156.3,309.8h-14.2h-1.3h-14.2c0,0-3.7-0.3-3.7,2.4c0,2.8,0,11.1,0,11.1h17.9h1.3h17.9c0,0,0-8.3,0-11.1
				C-152.6,309.5-156.3,309.8-156.3,309.8z"/>
			<path class="st3" d="M-134,505.3c0,0,0-63.8,0-98.5s-14.3-47.9-14.3-47.9c3.7-21.5-6.5-27.8-6.5-27.8v-8h-16.4v203.3h0.8h11.6
				c2.9,0,6.5,0,10.7,0C-132.5,526.5-134,505.3-134,505.3z"/>
			<path class="st4" d="M-196.2,395.4c-0.2,0-0.3,0-0.5,0c-2.3-0.3-3.9-2.4-3.6-4.6c1.8-14.2,8.8-22.8,9-23.3
				c1.5-1.8,4.1-2.1,5.9-0.7c1.8,1.5,2.1,4.1,0.7,5.7c0,0.2-5.7,7.3-7.3,19C-192.4,394-194.2,395.4-196.2,395.4z"/>
			<g>
				<circle class="st5" cx="-170.6" cy="444.2" r="18.1"/>
				<circle class="st6" cx="-185" cy="460.4" r="5.7"/>
				<path class="st5" d="M-179.1,422.3c0,1.3-1,2.3-2.3,2.3s-2.3-1-2.3-2.3s1-2.3,2.3-2.3C-180.2,419.8-179.1,421-179.1,422.3
					L-179.1,422.3z"/>
				<path class="st6" d="M-179.1,429.9c0,1.6-1.3,2.9-2.9,2.9s-2.9-1.3-2.9-2.9c0-1.6,1.3-2.9,2.9-2.9S-179.1,428.3-179.1,429.9
					L-179.1,429.9z"/>
				<path class="st6" d="M-186.9,425.4c0,1-0.8,1.8-1.8,1.8s-1.8-0.8-1.8-1.8s0.8-1.8,1.8-1.8S-186.9,424.4-186.9,425.4
					L-186.9,425.4z"/>
				<path class="st4" d="M-157.3,444.2c-1.5-0.5-2.3,1.3-2.4,2.4l0,0l0,0c-0.3,1.1-0.7,1.6-0.8,1.6c-0.3-0.2-0.2-0.7-0.2-0.8
					c0-0.5,0-1-0.2-1.5c-0.2-0.3-0.7-0.5-1-0.5v-0.2c0,0,0-0.2,0.2-0.2c0.2-0.3,0.3-0.7,0.7-1l0,0l0,0c0.2,0,0.3,0.3,0.3,0.3
					c0.3,0.3,1.6-0.2,1.3-0.7c-0.5-0.5-1-0.7-1.5-0.5c-0.3,0-0.7,0.2-1,0.5l-0.2,0.2c0-0.7,0-1.3,0-2c0-0.3-0.8-0.2-1.1,0.2
					l-0.2,0.2l0,0l0,0c-0.2,0.5-1,0.7-1.6,0.2l0,0c-0.2-0.2-0.3-0.2-0.7-0.3c-1.5-0.2-2.1,1.6-2.1,2.8l0,0c0,0.8-0.5,1.8-1,2
					c-0.2-0.2-0.2-0.2-0.2-0.3c-0.2-0.3-0.2-0.8-0.3-1.1c-0.2-1.1-0.2-2.3-0.2-3.3c0-0.2-0.2-0.3-0.5-0.2c-0.3,0.2-0.7,0.3-0.8,0.7
					c-0.5,1-0.7,2.1-0.8,3.1c0,0.3,0,0.7-0.2,0.8c0,0.2,0,0.2,0,0.3c-0.2,0-0.5-0.3-0.5-0.5c0-0.3-0.5-0.2-0.8,0.2
					c0.2-0.5,0.3-1.1,0.3-1.6c0-1-0.3-2.9-1.6-2.9c-1.5,0.2-1.8,2-1.8,3.1c0,1.1-0.2,2-0.2,2.1c-0.7,0.2-1-0.7-1.1-1
					c-0.3-0.8-0.5-1.5-0.5-2.3c-0.2-1.3-0.3-2.6-0.2-4.1c0-0.2-0.3-0.2-0.5-0.2c-0.3,0.2-0.7,0.5-0.7,0.7c-0.5,1-0.5,2.1-0.7,3.1
					l0,0c0-0.2,0-0.2,0-0.3c-0.2-0.8-0.3-1.6-0.3-2.4c0-0.5-0.2-1.1,0-1.6c0.2-0.7-0.8,0-1,0.3c-1,2-0.7,4.1-0.7,6.2
					c0,0.5,0,1.1-0.2,1.6c0,0.3-0.2,1-0.5,1.3c-0.2,0.2-0.5,0-0.7,0c-0.3-0.2-0.5-0.5-0.5-0.7c0-0.3-0.3-0.2-0.5,0
					c-0.2,0.2-0.5,0.7-0.5,1c0.2,0.7,0.8,1.3,1.5,1.1c1.3-0.3,1.8-1.8,2-3.1c0.2-0.7,0.2-1.3,0.2-2.1c0.3,1.3,0.5,2.4,0.8,3.7
					c0.2,0.7,1-0.5,1-0.8c0-0.8,0-1.8,0.2-2.6c0.2,1.1,0.5,3.6,2,3.3c0.7-0.2,1-0.7,1.3-1.1c0.2,0.5,0.7,0.8,1.1,0.8
					c0.5,0,1-0.5,1.3-1c0,0.5,0.3,0.8,0.8,0.8c0.7,0,1.3-0.3,1.6-0.8c0.2-0.2,0.3-0.5,0.3-0.7c0,0.2,0,0.2,0,0.3
					c0,0.3,0.2,0.8,0.5,1c0.3,0.3,0.8,0.2,1.1-0.2c0.3-0.2,0.7-0.7,0.8-1c0.2,0.7,0.3,1.3,1.1,1.5c0.7,0.2,1.3-0.5,1.6-1
					c0.3-0.5,0.5-1.3,0.7-2c0-0.3,0.2-1.1,0-1.8c0.5,0,0.8-0.2,1.1-0.3c0,1.8-0.3,3.4-0.7,5.2c0,0.3,0.3,0.3,0.5,0.3
					c0.3,0,0.7-0.3,0.7-0.7c0.2-0.5,0.3-1,0.5-1.6c0.7,0.8,0,1.8,0.5,2.4c0.3,0.3,1,0.3,1.5,0.2c0.2-0.2,0.3-0.2,0.3-0.3
					c0.2,0.5,0.3,1,0.8,1.3c0.7,0.3,1.3-0.2,1.6-0.7c0.5-0.5,0.7-1.1,0.8-1.8C-156.3,446.5-156,444.6-157.3,444.2z M-173.7,446.5
					c0,0.2,0,0.3-0.2,0.3c-0.3,0-0.5-0.5-0.5-0.7c-0.2-0.5-0.3-1-0.3-1.5c0-0.5,0-1,0.2-1.5c0-0.2,0-0.3,0.2-0.3
					c0.7,0.2,0.8,1.6,0.8,2C-173.6,445.6-173.6,446-173.7,446.5z M-165.9,446.9c0,0.2-0.2,0.3-0.2,0.3c-0.3-0.2-0.3-0.5-0.5-0.7
					c-0.2-0.5-0.2-1-0.2-1.5s0.2-1,0.3-1.5c0-0.2,0.2-0.2,0.2-0.3c0.7,0.5,0.7,1.5,0.5,2.1C-165.6,445.9-165.8,446.4-165.9,446.9z
					 M-158.1,448.8c0,0.2-0.2,0.2-0.2,0.3c-0.2-0.2-0.3-0.7-0.3-0.8c0-0.5,0-1,0-1.5c0.2-0.5,0.2-1,0.5-1.5c0-0.2,0.2-0.2,0.2-0.3
					c0.5,0.7,0.3,1.5,0.2,2.3C-157.8,447.8-157.9,448.3-158.1,448.8z"/>
				<g>
					<circle class="st6" cx="-155.2" cy="427.8" r="9.9"/>
					<g>
						<path class="st4" d="M-157.6,426.5c-0.8,0.2-1,1.1-1.1,1.8l0,0l0,0c0,0.2,0,0.2,0,0.3c0,0.3,0,0.7,0,0.8s0,0.3-0.2,0.3
							c-0.3,0-0.5-0.5-0.7-0.7c-0.2-0.5-0.3-1-0.5-1.6c-0.2-0.7-0.2-1.1-0.2-1.8c0-0.2,0-0.5,0-0.7s0-0.2,0-0.3v-0.2
							c0-0.5-0.5,0-0.7,0.2c-0.7,1.1-0.5,2.4-0.5,3.7c0,0.3,0,0.7,0,1c0,0.2,0,0.7-0.3,0.8c-0.2,0.2-0.3,0-0.5,0
							c-0.2-0.2-0.3-0.3-0.3-0.5s-0.2-0.2-0.3,0s-0.3,0.3-0.3,0.7c0,0.5,0.5,0.8,1,0.7c0.8-0.2,1.1-1.1,1.3-1.8
							c0.2-0.3,0.2-0.7,0.2-1c0.2,0.5,0.3,1,0.5,1.5c0.2,0.3,0.5,0.7,0.8,0.7c0.3,0,0.5-0.3,0.7-0.8c0.2,0.3,0.3,0.5,0.8,0.5
							s0.8-0.5,1-0.8c0.2-0.3,0.2-0.8,0.2-1.3C-156.6,427.6-156.8,426.3-157.6,426.5z M-157.4,429.3L-157.4,429.3
							c-0.2,0.2-0.3-0.2-0.3-0.2c-0.2-0.3-0.2-0.7-0.2-0.8c0-0.3,0-0.7,0-1v-0.2c0.5,0.3,0.5,0.8,0.5,1.3
							C-157.3,428.6-157.3,428.9-157.4,429.3z"/>
						<path class="st4" d="M-147.7,427.6c-0.8-0.3-1.5,0.8-1.6,1.5s-0.3,1.8,0.5,2.1c0.3,0.2,0.8-0.2,1-0.3c0.3-0.3,0.5-0.7,0.5-1.1
							C-147.2,429.1-146.9,428-147.7,427.6z M-148.3,430.4c0,0,0,0.2-0.2,0.2c-0.2-0.2-0.2-0.3-0.2-0.5c0-0.3,0-0.7,0-1
							s0.2-0.7,0.3-0.8c0,0,0-0.2,0.2-0.2c0.3,0.3,0.3,1,0.2,1.5C-148,429.9-148.2,430.3-148.3,430.4z"/>
						<path class="st4" d="M-150.1,427.8c0.2-0.2,0.3-0.5,0.5-0.7c0.3-0.5,0.7-1.1,0.7-1.6c0-0.7-0.8-0.7-1.1-0.5
							c-0.5,0.3-0.8,0.8-1.1,1.5c-0.2,0.8-0.3,1.5-0.3,2.3l0,0c-0.3,0.3-0.8,1-1.3,0.7c-0.2,0-0.2-0.2-0.2-0.3
							c0.3-0.3,0.7-0.8,1-1.3c0.3-0.3,0.5-1.1,0-1.3s-1,0-1.3,0.3c-0.3,0.3-0.5,0.8-0.5,1.3c0,0.2,0,0.7,0,1
							c-0.3,0.2-0.7,0.3-0.8,0.2c-0.3,0-0.5-0.5-0.5-0.7c-0.2-0.5,0-0.8,0-1.3c0-0.2,0-0.3,0.2-0.3c0,0,0,0,0-0.2
							c0.2,0.2,0.3,0.5,0.3,0.5c0.2,0.3,0.8-0.2,0.8-0.5c-0.2-0.3-0.2-0.7-0.5-0.8c-0.3-0.2-0.8,0.2-1,0.3c-0.5,0.5-0.7,1.3-0.5,2.1
							c0,0.5,0.2,1,0.5,1.3c0.5,0.3,1.3,0,1.8-0.3c0.2,0.3,0.3,0.7,0.8,0.5c0.5,0,1-0.3,1.5-0.8c0,0.3,0.2,0.8,0.3,1
							c0.5,0.3,1,0,1.3-0.5c0.3-0.5,0.7-1.3,0.3-1.8C-149.6,427.8-150,427.8-150.1,427.8z M-153.2,427.5c0-0.2,0-0.2,0.2-0.3l0,0
							c0.2,0,0.3,0.3,0.2,0.5c0,0.3-0.3,0.7-0.5,1v-0.2C-153.4,428.1-153.2,427.6-153.2,427.5z M-150.3,425.9c0-0.2,0.2-0.2,0.2-0.3
							l0,0c0.3,0.3,0,1-0.2,1.3s-0.3,0.7-0.7,1c0-0.3,0.2-0.7,0.2-1C-150.6,426.3-150.4,426-150.3,425.9z M-150.4,429.9
							C-150.4,429.9-150.6,429.9-150.4,429.9c-0.2,0.2-0.2,0.2-0.2,0.2c-0.2-0.2-0.2-0.7-0.3-0.8c0-0.2,0-0.3,0-0.5
							c0.2-0.2,0.2-0.2,0.3-0.3c0.2-0.2,0.3,0.2,0.3,0.3C-150.1,429.1-150.3,429.6-150.4,429.9z"/>
					</g>
				</g>
				<g>
					<path class="st4" d="M-188.9,459.4c0.2-0.3,0.5-0.3,0.7-0.2c0.3,0.2-0.2,0.7-0.3,0.7c-0.2,0.2-0.5,0.3-0.3,0.7
						c0,0.2,0.5,0.2,0.7,0.2c0.3,0,0.3,0.2,0.3,0.5c-0.2,0.5-0.8,0.2-1,0s-0.7,0.3-0.5,0.5c0.7,0.7,1.5,0.2,1.8-0.5
						c0.2-0.2,0.2-0.7,0-0.8c-0.2-0.2-0.7-0.2-0.8-0.2h-0.2c0.2-0.2,0.2-0.2,0.3-0.3s0.3-0.3,0.3-0.5c0.2-0.3,0.2-0.7-0.2-0.8
						c-0.7-0.5-1.3,0.3-1.5,0.8C-189.5,459.9-189,459.6-188.9,459.4L-188.9,459.4z"/>
					<path class="st4" d="M-185.9,461.5c0.5,1.3,2.6,0.5,2.3-0.8c-0.2-0.7-0.8-0.5-1.3-0.7c-0.3,0-0.3-0.3-0.3-0.5
						c0.2-0.3,0-0.3-0.2-0.2h0.2c0.5,0,0.8,0,1.3,0.2c0.2,0.2,0.7-0.3,0.3-0.5c-0.5-0.3-1.1-0.2-1.6,0s-0.7,0.7-0.7,1.1
						c0,0.7,0.5,0.7,1,0.8c0.3,0,0.7,0.2,0.7,0.5c0,0.7-0.7,0.5-1,0.3c-0.2-0.2-0.2-0.3-0.3-0.5
						C-185.4,460.9-185.9,461.3-185.9,461.5L-185.9,461.5z"/>
					<g>
						<path class="st4" d="M-181.1,458.9c-0.7,1-1.3,2-2,2.8c-0.3,0.3,0.2,0.3,0.3,0.2c0.7-1,1.5-2,2.1-2.9
							C-180.4,458.6-180.9,458.7-181.1,458.9L-181.1,458.9z"/>
						<path class="st4" d="M-182.2,458.7c-0.3,0-0.7,0.3-0.7,0.7c0,0.3,0.2,0.7,0.5,0.7C-181.7,460-181.4,458.7-182.2,458.7
							c-0.2,0-0.5,0.3-0.2,0.3c0.2,0,0.3,0.2,0.3,0.3v0.2l0,0c0,0,0,0-0.2,0c-0.2,0-0.3-0.2-0.3-0.3v-0.2l0,0l0,0
							C-182.2,459.1-182,458.7-182.2,458.7z"/>
						<path class="st4" d="M-181.2,460.7c-0.3,0-0.7,0.3-0.7,0.7s0.2,0.7,0.5,0.7C-180.7,462-180.4,460.9-181.2,460.7
							c-0.2,0-0.5,0.3-0.2,0.3c0.2,0,0.3,0.2,0.3,0.3v0.2l0,0c0,0,0,0-0.2,0s-0.3-0.2-0.3-0.3V461l0,0l0,0
							C-181.2,461.2-180.9,460.7-181.2,460.7z"/>
					</g>
					<path class="st4" d="M-186.9,462.6c0.3-0.2,0.5-0.7,0.5-1c0-0.2,0-0.2,0-0.3c-0.2-0.2-0.3,0-0.5,0c-0.2,0-0.3,0.2-0.3,0.3
						s0.2,0.2,0.3,0.2l0,0l0,0v0.2c0,0.2,0,0.2,0,0.2l0,0l0,0l0,0l0,0l-0.2,0.3C-187.2,463-187.1,462.8-186.9,462.6L-186.9,462.6z"
						/>
				</g>
				<g>
					<path class="st7" d="M-192.4,436.8c-0.2,0-0.2-0.2-0.3-0.2c-0.3-0.2-0.7,0.2-1,0.2c-0.8,0-1.1,0-2.1-0.3c0-1,0.5-1.5,0.8-2.1
						c0.2-0.7,0-1.3-0.2-2.1c0-0.5,0-0.8,0-1.3c-0.3,0.3-0.2,1.1-0.2,1.5c-0.2-0.5-0.2-1.3-0.3-1.6c-0.2,0.5,0,1.1,0,1.6
						c-0.2-0.5-0.2-1-0.3-1.5c-0.2,0.5,0.2,1.1,0.2,1.6c-0.2-0.5-0.3-1-0.5-1.3c0,0.7,0.2,1,0.2,1.5c-0.2-0.3-0.3-0.8-0.5-1
						c0,0.3,0.2,0.8,0.3,1.1c-0.3-0.2-0.3-0.5-0.7-0.5c0,0.3,0.2,0.5,0.3,0.7c-0.2-0.2-0.3-0.3-0.5-0.3c0,0.3,0.2,0.3,0.3,0.5
						c-0.2-0.2-0.2-0.2-0.3-0.2c0,0.2,0.3,0.3,0.3,0.5c0,0-0.2-0.2-0.2,0l0.2,0.2h-0.2c0,0.2,0.2,0.2,0.2,0.2s0,0-0.2,0
						c0,0.2,0.2,0,0,0.2c-0.8,0.8-0.3,1.6-0.5,2.4c0-0.2-0.7-0.3-1.1-0.5c-0.3-0.2-0.3-0.5-0.5-0.5c0,0,0,0,0.2,0
						c-0.2,0-0.2,0-0.2-0.2c0.2,0,0.3,0,0.3,0c-0.2,0-0.5-0.2-0.5-0.3c0.2,0,0.3,0.2,0.5,0c-0.2-0.2-0.7-0.3-0.7-0.5
						c0.2,0,0.5,0.3,0.7,0.2c-0.3-0.2-0.8-0.3-0.8-0.7c0.2,0.2,0.5,0.3,0.8,0.3c-0.3-0.2-0.7-0.5-1-0.5c0.2,0.3,0.7,0.5,0.8,0.8
						c-0.3-0.2-0.7-0.3-0.8-0.5c0.2,0.3,0.5,0.5,0.8,0.7c-0.3,0-0.5-0.2-0.7-0.2c0,0.3,0.5,0.2,0.7,0.5c-0.2,0-0.3,0-0.5,0
						c0,0.2,0.3,0.2,0.5,0.2c-0.2,0-0.3,0-0.3,0c0.2,0.2,0.3,0,0.3,0.2c-0.2,0-0.2,0-0.2,0s0.2,0,0.3,0c0,0-0.2,0,0,0.2h0.2
						c0,0,0,0-0.2,0c0.3,0.2,0.7,0.8,1.1,1c-0.3,0.2,0.3,0.3-3.3,1.6c0.2,0,1.5-0.3,2-0.5c0.5-0.2,0.8-0.3,1.3-0.3
						c0.2,0,0.2,0,0.3-0.2c0.7,0,1.3,0,2.1-0.3c-0.5,0.2-1.5,0.2-1.8-0.2c0.5-0.8,0.2-2.6,0.5-2.9c0.3-0.3,1-1.6,1.6-0.5
						c0.2,0.2,0.2,0.3-0.2,0.8c-0.3,0.5-0.5,0.8-0.5,2c0,0.2,0,0.5-0.3,0.5c1.5,0.3,2,0.2,2.8,0c0.3,0,0.7-0.3,0.8,0
						c0,0.2-0.3,0.2-0.5,0.2C-193.3,436.8-192.6,436.9-192.4,436.8c0.2,0.2,0.8,0,1.3,0C-192.1,436.8-192.3,436.8-192.4,436.8z"/>
					<path class="st7" d="M-197,428.9c-3.4,0-6.2,2.8-6.2,6.2s2.8,6.2,6.2,6.2c3.4,0,6.2-2.8,6.2-6.2
						C-190.7,431.7-193.4,428.9-197,428.9 M-197,429.3c3.3,0,6,2.8,6,6s-2.8,6-6,6s-6-2.8-6-6C-202.9,431.9-200.3,429.3-197,429.3"
						/>
				</g>
			</g>
		</g>
	</g>
</g>
</svg>
