<?xml version="1.0" encoding="utf-8"?>
<!-- Generator: Adobe Illustrator 19.0.0, SVG Export Plug-In . SVG Version: 6.00 Build 0)  -->
<svg version="1.1" xmlns="http://www.w3.org/2000/svg" xmlns:xlink="http://www.w3.org/1999/xlink" x="0px" y="0px"
	 viewBox="108 -86.5 274.5 229.5" style="enable-background:new 108 -86.5 274.5 229.5;" xml:space="preserve">
<style type="text/css">
	.st0{fill:#519E38;}
	.st1{fill:#F4F4F4;}
	.st2{fill:#D6D6D6;}
	.st3{fill:#EAEAEA;}
	.st4{fill:#86D2E0;}
	.st5{fill:#62BA47;}
	.st6{fill:#FFFFFF;}
	.st7{fill:#63B746;}
	.st8{fill:#119BD7;}
	.st9{fill:#164988;}
</style>
<g id="_x31_">
	<g id="Layer_2">
	</g>
	<g id="car">
	</g>
	<g id="butylka_1">
		<g>
			<path class="st0" d="M209.6,78.5c0,0,0-39.2,0-60.5s-8.8-29.4-8.8-29.4c2.3-13.2-4-17.1-4-17.1v-4.8h1.3c0,0,0-5.1,0-6.8
				s-2.3-1.5-2.3-1.5h-8.7h-0.8h-8.7c0,0-2.3-0.2-2.3,1.5s0,6.8,0,6.8h1.4v4.8h-0.1c0,0-6.3,4-4,17.1c0,0-8.8,8.1-8.8,29.4
				s0,60.5,0,60.5s-0.9,13,8.7,13c2.6,0,4.8,0,6.6,0c4.9,0,7.1,0,7.1,0h0.4h0.5l0,0h7.1l0,0c1.8,0,4,0,6.5,0l0,0
				C210.5,91.5,209.6,78.5,209.6,78.5z"/>
			<path class="st1" d="M205.1,75.5c0,0,0-39.2,0-60.5s-8.8-29.4-8.8-29.4c2.3-13.2-4-17.1-4-17.1v-4.9h-20v4.9h-0.1
				c0,0-6.3,4-4,17.1c0,0-8.8,8.1-8.8,29.4s0,60.5,0,60.5s-0.9,13,8.7,13c2.6,0,4.8,0,6.6,0c4.9,0,7.1,0,7.1,0h1h7.1
				c1.8,0,4,0,6.6,0C206,88.5,205.1,75.5,205.1,75.5z"/>
			<path class="st2" d="M191.2-44.6h-8.7h-0.8H173c0,0-2.3-0.2-2.3,1.5s0,6.8,0,6.8h11h0.8h11c0,0,0-5.1,0-6.8
				C193.6-44.8,191.2-44.6,191.2-44.6z"/>
			<path class="st3" d="M205,75.5c0,0,0-39.2,0-60.5s-8.8-29.4-8.8-29.4c2.3-13.2-4-17.1-4-17.1v-4.9h-10.1V88.5h0.5h7.1
				c1.8,0,4,0,6.6,0C205.9,88.5,205,75.5,205,75.5z"/>
			<g>
				<circle class="st4" cx="182.3" cy="39.1" r="11.5"/>
				<circle class="st5" cx="173.1" cy="49.3" r="3.6"/>
				<path class="st4" d="M176.8,25c0,0.8-0.7,1.5-1.5,1.5s-1.5-0.7-1.5-1.5s0.7-1.5,1.5-1.5C176.2,23.5,176.8,24.2,176.8,25
					L176.8,25z"/>
				<path class="st5" d="M176.9,29.9c0,1-0.8,1.9-1.9,1.9c-1,0-1.9-0.8-1.9-1.9c0-1,0.8-1.9,1.9-1.9C176,28.1,176.9,28.9,176.9,29.9
					L176.9,29.9z"/>
				<path class="st5" d="M171.8,27c0,0.6-0.5,1.1-1.1,1.1c-0.6,0-1.1-0.5-1.1-1.1s0.5-1.1,1.1-1.1C171.3,25.9,171.8,26.4,171.8,27
					L171.8,27z"/>
				<path class="st6" d="M190.7,39c-0.9-0.3-1.4,0.9-1.6,1.6l0,0l0,0c-0.2,0.7-0.4,1-0.5,1c-0.2-0.1-0.1-0.4-0.1-0.6
					c0-0.3,0-0.6-0.1-0.9c-0.1-0.2-0.4-0.3-0.6-0.3v-0.1c0,0,0-0.1,0.1-0.1c0.1-0.2,0.2-0.5,0.4-0.6l0,0l0,0c0.1,0,0.2,0.2,0.3,0.2
					c0.2,0.3,1-0.1,0.8-0.4c-0.3-0.3-0.6-0.4-1-0.3c-0.2,0-0.4,0.2-0.6,0.3l-0.1,0.1c0-0.4,0-0.8,0-1.2c0-0.2-0.5-0.1-0.7,0.1
					l-0.1,0.1l0,0l0,0c-0.1,0.3-0.6,0.4-1,0.1l0,0c-0.1-0.1-0.2-0.2-0.4-0.2c-1-0.1-1.3,1-1.4,1.8l0,0c0,0.5-0.3,1.1-0.6,1.2
					c-0.1-0.1-0.1-0.1-0.1-0.2c-0.1-0.2-0.1-0.5-0.2-0.7c-0.1-0.7-0.1-1.4-0.1-2.1c0-0.1-0.1-0.2-0.3-0.1c-0.2,0.1-0.4,0.2-0.5,0.4
					c-0.3,0.6-0.4,1.3-0.5,2c0,0.2,0,0.4-0.1,0.6c0,0.1,0,0.1,0,0.2c-0.1,0-0.3-0.2-0.3-0.3c0-0.2-0.3-0.1-0.5,0.1
					c0.1-0.3,0.2-0.7,0.2-1.1c0-0.6-0.2-1.9-1-1.8c-0.9,0.1-1.1,1.2-1.1,1.9c0,0.7-0.1,1.3-0.1,1.4c-0.4,0.1-0.6-0.4-0.7-0.6
					c-0.2-0.5-0.3-1-0.3-1.5c-0.1-0.9-0.2-1.7-0.1-2.5c0-0.1-0.2-0.1-0.3-0.1c-0.2,0.1-0.4,0.3-0.4,0.4c-0.3,0.6-0.3,1.3-0.4,2l0,0
					c0-0.1,0-0.1,0-0.2c-0.1-0.5-0.2-1.1-0.2-1.6c0-0.3-0.1-0.8,0-1c0.1-0.4-0.6,0-0.7,0.2c-0.6,1.2-0.4,2.6-0.4,3.9
					c0,0.3,0,0.7-0.1,1c0,0.2-0.1,0.7-0.3,0.9c-0.1,0.1-0.4,0-0.5,0c-0.2-0.1-0.3-0.3-0.3-0.5s-0.2-0.1-0.4,0
					c-0.1,0.1-0.3,0.4-0.3,0.6c0.1,0.5,0.5,0.9,1,0.7c0.8-0.3,1.1-1.2,1.3-1.9c0.1-0.4,0.1-0.9,0.1-1.3c0.2,0.8,0.3,1.6,0.5,2.4
					c0.1,0.4,0.7-0.3,0.7-0.5c0-0.6,0-1.1,0.1-1.7c0.1,0.7,0.3,2.2,1.3,2.1c0.4-0.1,0.6-0.4,0.8-0.7c0.1,0.3,0.4,0.5,0.7,0.5
					c0.3,0,0.6-0.3,0.8-0.6c0,0.3,0.2,0.5,0.5,0.5c0.4,0,0.8-0.2,1-0.5c0.1-0.1,0.2-0.3,0.2-0.4c0,0.1,0,0.1,0,0.2
					c0,0.2,0.1,0.5,0.3,0.7c0.2,0.2,0.5,0.1,0.7-0.1c0.2-0.2,0.4-0.4,0.5-0.6c0.1,0.5,0.3,0.9,0.7,1c0.4,0.1,0.8-0.3,1-0.6
					c0.2-0.4,0.4-0.8,0.4-1.2c0-0.3,0.1-0.7,0-1.1c0.3,0,0.5-0.1,0.7-0.2c0,1.1-0.2,2.2-0.4,3.3c0,0.2,0.2,0.2,0.3,0.2
					c0.2-0.1,0.4-0.2,0.4-0.4c0.1-0.3,0.2-0.7,0.3-1c0.4,0.5,0,1.1,0.3,1.6c0.2,0.2,0.7,0.2,0.9,0.1c0.1-0.1,0.2-0.1,0.3-0.2
					c0.1,0.3,0.2,0.6,0.5,0.8c0.4,0.2,0.8-0.1,1.1-0.4c0.3-0.3,0.5-0.7,0.6-1.1C191.4,40.5,191.6,39.3,190.7,39z M180.3,40.5
					c0,0.1,0,0.2-0.1,0.2c-0.2,0-0.3-0.3-0.3-0.4c-0.1-0.3-0.2-0.6-0.2-0.9s0-0.6,0.1-1c0-0.1,0-0.2,0.1-0.2c0.4,0.1,0.5,1,0.5,1.3
					S180.4,40.1,180.3,40.5z M185.3,40.6c0,0.1-0.1,0.2-0.1,0.2c-0.2-0.1-0.2-0.3-0.3-0.5c-0.1-0.3-0.1-0.6-0.1-0.9s0.1-0.6,0.2-0.9
					c0-0.1,0.1-0.2,0.1-0.2c0.4,0.3,0.4,0.9,0.4,1.4C185.4,40,185.4,40.3,185.3,40.6z M190.2,41.9c0,0.1-0.1,0.1-0.1,0.2
					c-0.1-0.1-0.2-0.4-0.2-0.5c0-0.3,0-0.6,0-0.9c0.1-0.3,0.2-0.6,0.3-0.9c0-0.1,0.1-0.1,0.1-0.2c0.3,0.4,0.3,1,0.2,1.4
					C190.4,41.3,190.3,41.6,190.2,41.9z"/>
				<g>
					<circle class="st5" cx="192.1" cy="28.6" r="6.3"/>
					<g>
						<path class="st6" d="M190.5,27.7c-0.5,0.1-0.7,0.7-0.7,1.1l0,0l0,0c0,0.1,0,0.1,0,0.2c0,0.2,0,0.4,0,0.6c0,0.1,0,0.2-0.1,0.2
							c-0.2,0-0.3-0.3-0.4-0.4c-0.1-0.3-0.2-0.7-0.3-1c-0.1-0.4-0.1-0.7-0.1-1.1c0-0.2,0-0.3,0-0.5c0-0.1,0-0.1,0-0.2v-0.1
							c0-0.3-0.3,0-0.4,0.1c-0.4,0.7-0.3,1.6-0.3,2.4c0,0.2,0,0.4,0,0.7c0,0.1-0.1,0.4-0.2,0.5s-0.2,0-0.3,0
							c-0.1-0.1-0.2-0.2-0.2-0.3c0-0.1-0.2-0.1-0.2,0c-0.1,0.1-0.2,0.3-0.2,0.4c0,0.3,0.3,0.5,0.6,0.4c0.5-0.1,0.7-0.7,0.8-1.1
							c0.1-0.2,0.1-0.4,0.1-0.6c0.1,0.3,0.2,0.6,0.3,0.9c0.1,0.2,0.3,0.4,0.6,0.4c0.2,0,0.3-0.2,0.4-0.5c0.1,0.2,0.2,0.4,0.5,0.3
							c0.3,0,0.5-0.3,0.6-0.5c0.1-0.3,0.2-0.5,0.1-0.8C191.2,28.4,191.1,27.6,190.5,27.7z M190.7,29.5c0,0.1,0,0.1,0,0.2
							c-0.1,0-0.2-0.2-0.2-0.2c-0.1-0.2-0.1-0.4-0.1-0.6s0-0.4,0-0.6c0,0,0-0.1,0-0.2c0.3,0.2,0.3,0.5,0.3,0.8
							C190.7,29.1,190.7,29.3,190.7,29.5z"/>
						<path class="st6" d="M196.8,28.4c-0.6-0.2-0.9,0.6-1,1s-0.2,1.1,0.3,1.3c0.2,0.1,0.5-0.1,0.7-0.2c0.2-0.2,0.3-0.4,0.3-0.7
							C197.2,29.3,197.3,28.6,196.8,28.4z M196.5,30.2l-0.1,0.1c-0.1-0.1-0.1-0.2-0.1-0.3c0-0.2,0-0.4,0-0.6s0.1-0.4,0.2-0.6
							l0.1-0.1c0.2,0.2,0.2,0.6,0.1,0.9S196.6,30.1,196.5,30.2z"/>
						<path class="st6" d="M195.3,28.5c0.1-0.1,0.2-0.3,0.3-0.4c0.2-0.3,0.4-0.7,0.4-1.1s-0.5-0.4-0.8-0.3c-0.4,0.2-0.6,0.6-0.7,0.9
							c-0.1,0.5-0.2,1-0.2,1.5l0,0c-0.2,0.2-0.5,0.7-0.8,0.5c-0.1,0-0.1-0.1-0.1-0.2c0.2-0.2,0.4-0.5,0.6-0.8c0.2-0.3,0.3-0.7,0-0.9
							c-0.3-0.2-0.6,0-0.8,0.2c-0.2,0.2-0.3,0.5-0.3,0.8c0,0.2,0,0.4,0,0.7c-0.2,0.1-0.4,0.2-0.6,0.1c-0.2,0-0.3-0.3-0.3-0.4
							c-0.1-0.3,0-0.5,0-0.8c0-0.1,0-0.2,0.1-0.2c0,0,0,0,0-0.1c0.1,0.1,0.2,0.3,0.2,0.4c0.1,0.2,0.5-0.1,0.5-0.3
							c-0.1-0.2-0.1-0.4-0.3-0.5c-0.2-0.1-0.5,0.1-0.6,0.2c-0.3,0.3-0.4,0.9-0.4,1.3c0,0.3,0.1,0.7,0.3,0.8c0.3,0.2,0.8,0,1.1-0.2
							c0.1,0.2,0.2,0.4,0.5,0.3c0.3,0,0.6-0.2,0.9-0.5c0,0.3,0.1,0.5,0.3,0.6c0.3,0.2,0.7,0,0.9-0.3c0.3-0.3,0.4-0.8,0.3-1.2
							C195.6,28.6,195.4,28.5,195.3,28.5z M193.4,28.3c0-0.1,0.1-0.1,0.1-0.2l0,0c0.1,0,0.2,0.2,0.1,0.3c0,0.2-0.2,0.4-0.3,0.6v-0.1
							C193.3,28.7,193.3,28.5,193.4,28.3z M195.2,27.3c0-0.1,0.1-0.1,0.1-0.2l0,0c0.2,0.2,0,0.6-0.1,0.8c-0.1,0.2-0.3,0.5-0.4,0.7
							c0-0.2,0.1-0.4,0.1-0.6C195,27.7,195.1,27.5,195.2,27.3z M195.1,29.8C195.1,29.9,195,29.9,195.1,29.8
							c-0.1,0.1-0.1,0.1-0.1,0.1c-0.1-0.1-0.1-0.4-0.2-0.5c0-0.1,0-0.2,0-0.3c0.1-0.1,0.1-0.1,0.2-0.2s0.2,0.1,0.2,0.2
							C195.3,29.4,195.2,29.6,195.1,29.8z"/>
					</g>
				</g>
				<g>
					<path class="st6" d="M171.4,49.1c0.1-0.1,0.2-0.3,0.3-0.5c0.1-0.1,0.1-0.1,0.2-0.2c0.1-0.1,0.1-0.1,0,0c0,0.1,0,0.2,0,0.3
						c0,0.6,0,1.2-0.1,1.9c0,0.2,0.4-0.1,0.4-0.2c0-0.4,0.1-0.8,0.1-1.2c0-0.2,0.1-1.1-0.1-1.2c-0.4-0.1-0.8,0.8-1,1.1
						C170.9,49.3,171.2,49.3,171.4,49.1L171.4,49.1z"/>
					<path class="st6" d="M174.6,48.3c-0.4,0.7-1,1.4-1.5,2.1c-0.2,0.3,0.1,0.3,0.3,0.1c0.5-0.7,1.1-1.4,1.6-2.2
						C175.1,47.9,174.7,48.1,174.6,48.3L174.6,48.3z"/>
					<path class="st6" d="M173.8,48.1c-0.3,0-0.5,0.3-0.5,0.5s0.1,0.4,0.3,0.4C174.1,49,174.4,48.1,173.8,48.1
						c-0.1,0-0.3,0.3-0.2,0.3s0.2,0.1,0.2,0.2v0.1l0,0c0,0,0,0-0.1,0c-0.1,0-0.2-0.1-0.2-0.2c0-0.1,0-0.1,0-0.1l0,0c0,0,0,0,0.1,0
						C173.7,48.3,173.9,48,173.8,48.1z"/>
					<path class="st6" d="M174.5,49.6c-0.3,0-0.5,0.3-0.5,0.5s0.1,0.4,0.3,0.4C174.9,50.6,175.1,49.6,174.5,49.6
						c-0.1,0-0.3,0.3-0.2,0.3c0.1,0,0.2,0.1,0.2,0.2v0.1l0,0c0,0,0,0-0.1,0c-0.1,0-0.2-0.1-0.2-0.2v-0.1l0,0c0,0,0,0,0.1,0
						C174.5,49.9,174.7,49.6,174.5,49.6z"/>
				</g>
				<g>
					<path class="st7" d="M168.3,34.2c-0.1,0-0.1-0.1-0.2-0.1c-0.2-0.1-0.4,0.1-0.7,0.1c-0.5,0-0.7,0-1.4-0.2c0-0.6,0.3-0.9,0.5-1.4
						c0.1-0.4-0.1-0.8-0.1-1.3c0-0.3,0-0.5,0-0.8c-0.2,0.2-0.1,0.7-0.1,0.9c-0.1-0.3-0.1-0.8-0.2-1.1c-0.1,0.3,0,0.8,0,1.1
						c-0.1-0.3-0.1-0.7-0.2-0.9c-0.2,0.3,0.1,0.8,0.1,1c-0.1-0.3-0.2-0.6-0.3-0.8c0,0.4,0.1,0.7,0.1,0.9c-0.1-0.2-0.2-0.5-0.3-0.6
						c0,0.2,0.1,0.5,0.2,0.7c-0.2-0.1-0.2-0.3-0.4-0.3c0,0.2,0.1,0.3,0.2,0.4c-0.1-0.1-0.2-0.2-0.3-0.2c0,0.2,0.2,0.2,0.2,0.4
						c-0.1-0.1-0.1-0.1-0.2-0.2c0,0.1,0.2,0.2,0.2,0.3c0,0-0.1-0.1-0.1,0l0.1,0.1h-0.1c0,0.1,0.1,0.1,0.1,0.2c0,0,0,0-0.1,0
						c0,0.1,0.1,0,0.1,0.1c-0.5,0.5-0.2,1-0.3,1.6c0-0.1-0.4-0.2-0.7-0.3c-0.2-0.1-0.2-0.3-0.3-0.3c0,0,0,0,0.1-0.1
						c-0.1,0-0.1,0-0.1-0.1c0.1,0,0.2,0,0.2,0c-0.1,0-0.3-0.1-0.3-0.2c0.1,0,0.2,0.1,0.3,0.1c-0.1-0.1-0.4-0.2-0.4-0.3
						c0.1,0,0.3,0.2,0.4,0.1c-0.2-0.1-0.5-0.3-0.5-0.4c0.1,0.1,0.3,0.2,0.5,0.2c-0.2-0.1-0.4-0.3-0.7-0.3c0.1,0.2,0.4,0.3,0.5,0.5
						c-0.2-0.1-0.4-0.2-0.6-0.3c0.1,0.2,0.3,0.3,0.5,0.4c-0.2,0-0.3-0.1-0.4-0.1c0.1,0.2,0.3,0.1,0.4,0.3c-0.1,0-0.2,0-0.3,0
						c0,0.1,0.2,0.1,0.3,0.2c-0.1,0-0.2,0-0.2,0.1c0.1,0.1,0.2,0,0.2,0.1c-0.1,0-0.1,0-0.1,0.1c0,0,0.1,0,0.2,0.1c0,0-0.1,0-0.1,0.1
						h0.1c0,0,0,0-0.1,0.1c0.3,0.1,0.4,0.5,0.7,0.7c-0.2,0.1,0.2,0.3-2,1c0.1,0,1-0.2,1.2-0.3c0.3-0.1,0.5-0.2,0.8-0.3
						c0.1,0,0.1,0,0.2-0.1c0.5,0,0.9,0,1.3-0.2c-0.3,0.1-0.9,0.1-1.2-0.1c0.3-0.5,0.1-1.6,0.3-1.9c0.2-0.2,0.6-1,1.1-0.3
						c0.1,0.1,0.1,0.3-0.1,0.5c-0.2,0.3-0.3,0.5-0.3,1.2c0,0.1,0,0.3-0.2,0.3c1,0.2,1.2,0.1,1.8,0c0.2,0,0.4-0.2,0.5,0
						c0,0.1-0.2,0.1-0.3,0.1c-0.3,0,0.1,0.1,0.2,0.1s0.6-0.1,0.8-0.1C168.6,34.3,168.5,34.3,168.3,34.2z"/>
					<path class="st7" d="M165.5,29.3c-2.2,0-4,1.8-4,4s1.8,4,4,4s4-1.8,4-4C169.5,31.1,167.7,29.3,165.5,29.3 M165.5,29.4
						c2.1,0,3.8,1.7,3.8,3.8c0,2.1-1.7,3.8-3.8,3.8s-3.8-1.7-3.8-3.8C161.7,31.2,163.4,29.4,165.5,29.4"/>
				</g>
			</g>
			<path class="st6" d="M166.8,8c-0.1,0-0.2,0-0.3,0c-1.4-0.2-2.4-1.5-2.2-2.8c1.1-8.7,5.4-14,5.5-14.3c0.9-1.1,2.5-1.3,3.6-0.4
				c1.1,0.9,1.3,2.5,0.4,3.5c0,0.1-3.5,4.5-4.5,11.7C169.1,7.1,168,8,166.8,8z"/>
		</g>
	</g>
	<g id="blank">
	</g>
</g>
<g id="_x32_">
	<g id="butylka_2">
		<g>
			<path class="st0" d="M277.4,78.5c0,0,0-39.2,0-60.5s-8.8-29.4-8.8-29.4c2.3-13.2-4-17.1-4-17.1v-4.8h1.3c0,0,0-5.1,0-6.8
				s-2.3-1.5-2.3-1.5h-8.7h-0.8h-8.7c0,0-2.3-0.2-2.3,1.5s0,6.8,0,6.8h1.4v4.8h-0.1c0,0-6.3,4-4,17.1c0,0-8.8,8.1-8.8,29.4
				s0,60.5,0,60.5s-0.9,13,8.7,13c2.6,0,4.8,0,6.6,0c4.9,0,7.1,0,7.1,0h0.4h0.5l0,0h7.1l0,0c1.8,0,4,0,6.5,0l0,0
				C278.3,91.5,277.4,78.5,277.4,78.5z"/>
			<path class="st1" d="M272.7,75.5c0,0,0-39.2,0-60.5s-8.8-29.4-8.8-29.4c2.3-13.2-4-17.1-4-17.1v-4.9h-20v4.9h-0.1
				c0,0-6.3,4-4,17.1c0,0-8.8,8.1-8.8,29.4s0,60.5,0,60.5s-0.9,13,8.7,13c2.6,0,4.8,0,6.6,0c4.9,0,7.1,0,7.1,0h1h7.1
				c1.8,0,4,0,6.6,0C273.6,88.5,272.7,75.5,272.7,75.5z"/>
			<path class="st2" d="M258.9-44.6h-8.7h-0.8h-8.7c0,0-2.3-0.2-2.3,1.5s0,6.8,0,6.8h11h0.8h11c0,0,0-5.1,0-6.8
				S258.9-44.6,258.9-44.6z"/>
			<path class="st3" d="M272.7,75.5c0,0,0-39.2,0-60.5s-8.8-29.4-8.8-29.4c2.3-13.2-4-17.1-4-17.1v-4.9h-10.1V88.5h0.5h7.1
				c1.8,0,4,0,6.6,0C273.6,88.5,272.7,75.5,272.7,75.5z"/>
			<path class="st6" d="M234.4,8c-0.1,0-0.2,0-0.3,0c-1.4-0.2-2.4-1.5-2.2-2.8c1.1-8.7,5.4-14,5.5-14.3c0.9-1.1,2.5-1.3,3.6-0.4
				s1.3,2.5,0.4,3.5c0,0.1-3.5,4.5-4.5,11.7C236.8,7.1,235.7,8,234.4,8z"/>
			<circle class="st8" cx="250" cy="39.1" r="11.6"/>
			<circle class="st5" cx="240.7" cy="49.5" r="3.7"/>
			<path class="st8" d="M244.5,24.9c0,0.8-0.7,1.5-1.5,1.5s-1.5-0.7-1.5-1.5s0.7-1.5,1.5-1.5S244.5,24.1,244.5,24.9L244.5,24.9z"/>
			<path class="st5" d="M244.5,29.9c0,1.1-0.9,1.9-1.9,1.9c-1.1,0-1.9-0.9-1.9-1.9c0-1.1,0.9-1.9,1.9-1.9
				C243.7,28,244.5,28.9,244.5,29.9L244.5,29.9z"/>
			<path class="st5" d="M239.4,27c0,0.6-0.5,1.1-1.1,1.1s-1.1-0.5-1.1-1.1s0.5-1.1,1.1-1.1C238.9,25.8,239.4,26.4,239.4,27L239.4,27
				z"/>
			<path class="st6" d="M258.5,39c-0.9-0.3-1.4,0.9-1.6,1.6l0,0l0,0c-0.2,0.7-0.4,1-0.5,1c-0.2-0.1-0.1-0.4-0.1-0.6
				c0-0.3,0-0.6-0.1-0.9c-0.1-0.2-0.4-0.3-0.6-0.3v-0.1c0,0,0-0.1,0.1-0.1c0.1-0.2,0.2-0.5,0.4-0.6l0,0l0,0c0.1,0,0.2,0.2,0.3,0.2
				c0.2,0.3,1-0.2,0.8-0.4c-0.3-0.3-0.7-0.4-1-0.3c-0.2,0-0.4,0.2-0.6,0.3l-0.1,0.1c0-0.4,0-0.8,0-1.2c0-0.2-0.5-0.1-0.7,0.1
				l-0.1,0.1l0,0l0,0c-0.1,0.3-0.6,0.4-1,0.1l0,0c-0.1-0.1-0.2-0.2-0.4-0.2c-1-0.1-1.3,1-1.4,1.8l0,0c0,0.5-0.3,1.1-0.6,1.2
				c-0.1-0.1-0.1-0.1-0.1-0.2c-0.1-0.2-0.1-0.5-0.2-0.8c-0.1-0.7-0.1-1.4-0.1-2.1c0-0.1-0.1-0.2-0.3-0.1s-0.4,0.2-0.5,0.4
				c-0.3,0.6-0.4,1.3-0.5,2c0,0.2,0,0.4-0.1,0.6c0,0.1,0,0.2,0,0.2c-0.1,0-0.3-0.2-0.3-0.3c0-0.3-0.3-0.1-0.5,0.1
				c0.1-0.4,0.2-0.7,0.2-1.1c0-0.6-0.2-1.9-1-1.8c-0.9,0.1-1.1,1.2-1.2,2c0,0.7-0.1,1.3-0.1,1.4c-0.4,0.1-0.6-0.4-0.7-0.6
				c-0.2-0.5-0.3-1-0.4-1.5c-0.1-0.9-0.2-1.7-0.1-2.6c0-0.1-0.2-0.1-0.3-0.1c-0.2,0.1-0.4,0.3-0.4,0.4c-0.3,0.6-0.3,1.3-0.4,2l0,0
				c0-0.1,0-0.1,0-0.2c-0.1-0.5-0.2-1.1-0.2-1.6c0-0.3-0.1-0.8,0-1c0.1-0.5-0.6,0-0.7,0.2c-0.6,1.2-0.4,2.6-0.4,4
				c0,0.3,0,0.7-0.1,1.1c0,0.2-0.1,0.7-0.3,0.9c-0.1,0.1-0.4,0-0.5,0c-0.2-0.1-0.3-0.3-0.3-0.5s-0.2-0.1-0.4,0
				c-0.1,0.1-0.3,0.4-0.3,0.6c0.1,0.5,0.5,0.9,1,0.7c0.8-0.3,1.1-1.2,1.3-1.9c0.1-0.4,0.1-0.9,0.1-1.3c0.2,0.8,0.3,1.6,0.5,2.4
				c0.1,0.4,0.7-0.3,0.7-0.5c0-0.6,0-1.1,0.1-1.7c0.1,0.7,0.3,2.3,1.3,2.1c0.4-0.1,0.7-0.4,0.8-0.7c0.1,0.3,0.4,0.6,0.7,0.5
				c0.3,0,0.6-0.3,0.8-0.6c0,0.3,0.2,0.5,0.5,0.5c0.4,0,0.8-0.2,1-0.5c0.1-0.1,0.2-0.3,0.2-0.4c0,0.1,0,0.1,0,0.2
				c0,0.2,0.1,0.5,0.3,0.7c0.2,0.2,0.5,0.1,0.7-0.1c0.2-0.2,0.4-0.4,0.5-0.6c0.1,0.5,0.3,0.9,0.7,1c0.4,0.1,0.8-0.3,1-0.6
				c0.2-0.4,0.4-0.8,0.4-1.2c0-0.3,0.1-0.7,0-1.1c0.3,0,0.5-0.1,0.7-0.2c0,1.1-0.2,2.2-0.4,3.3c0,0.2,0.2,0.2,0.3,0.2
				c0.2-0.1,0.4-0.2,0.5-0.4c0.1-0.3,0.2-0.7,0.3-1c0.4,0.5,0,1.1,0.3,1.6c0.2,0.2,0.7,0.2,0.9,0.1c0.1-0.1,0.2-0.1,0.3-0.2
				c0.1,0.4,0.2,0.7,0.5,0.8c0.4,0.2,0.9-0.1,1.1-0.4c0.3-0.3,0.5-0.7,0.6-1.1C259.2,40.6,259.4,39.3,258.5,39z M248,40.6
				c0,0.1,0,0.2-0.1,0.2c-0.2,0-0.3-0.3-0.3-0.4c-0.1-0.3-0.2-0.6-0.2-0.9s0-0.7,0.1-1c0-0.1,0-0.2,0.1-0.2c0.4,0.1,0.5,1,0.5,1.3
				C248,39.9,248,40.2,248,40.6z M253,40.7c0,0.1-0.1,0.2-0.1,0.2c-0.2-0.1-0.2-0.3-0.3-0.5c-0.1-0.3-0.1-0.6-0.1-0.9
				s0.1-0.6,0.2-0.9c0-0.1,0.1-0.2,0.1-0.2c0.4,0.3,0.4,0.9,0.4,1.4C253.2,40.1,253.1,40.4,253,40.7z M258,42c0,0.1-0.1,0.1-0.1,0.2
				c-0.1-0.1-0.2-0.4-0.2-0.5c0-0.3,0-0.7,0-1c0.1-0.3,0.2-0.6,0.3-0.9c0-0.1,0.1-0.1,0.1-0.2c0.3,0.4,0.3,1,0.2,1.5
				C258.2,41.4,258.1,41.7,258,42z"/>
			<g>
				<circle class="st5" cx="259.9" cy="28.5" r="6.4"/>
				<g>
					<path class="st6" d="M258.3,27.6c-0.5,0.1-0.7,0.7-0.7,1.1l0,0l0,0c0,0.1,0,0.1,0,0.2c0,0.2,0,0.4,0,0.6c0,0.1,0,0.2-0.1,0.3
						c-0.2,0-0.3-0.3-0.4-0.4c-0.1-0.3-0.2-0.7-0.3-1c-0.1-0.4-0.1-0.8-0.1-1.1c0-0.2,0-0.3,0-0.5c0-0.1,0-0.1,0-0.2v-0.1
						c0-0.3-0.3,0-0.4,0.1c-0.4,0.7-0.3,1.6-0.3,2.4c0,0.2,0,0.4,0,0.7c0,0.1-0.1,0.4-0.2,0.5c-0.1,0.1-0.2,0-0.3,0
						c-0.1-0.1-0.2-0.2-0.2-0.3c0-0.1-0.2-0.1-0.2,0c-0.1,0.1-0.2,0.3-0.2,0.4c0,0.3,0.3,0.5,0.6,0.5c0.5-0.1,0.7-0.7,0.8-1.2
						c0.1-0.2,0.1-0.4,0.1-0.6c0.1,0.3,0.2,0.6,0.3,0.9c0.1,0.2,0.3,0.4,0.6,0.4c0.2,0,0.3-0.3,0.4-0.5c0.1,0.2,0.2,0.4,0.5,0.3
						c0.3,0,0.5-0.3,0.6-0.5c0.1-0.3,0.2-0.5,0.1-0.8C259,28.4,258.9,27.6,258.3,27.6z M258.5,29.5c0,0.1,0,0.1,0,0.2
						c-0.1,0-0.2-0.2-0.2-0.2c-0.1-0.2-0.1-0.4-0.1-0.6s0-0.4,0-0.6c0,0,0-0.1,0-0.2c0.3,0.2,0.3,0.5,0.3,0.8
						C258.5,29.1,258.5,29.3,258.5,29.5z"/>
					<path class="st6" d="M264.7,28.4c-0.6-0.2-0.9,0.6-1,1c-0.1,0.4-0.2,1.1,0.3,1.3c0.2,0.1,0.5-0.1,0.7-0.2
						c0.2-0.2,0.3-0.4,0.4-0.7C265.1,29.3,265.2,28.6,264.7,28.4z M264.3,30.2L264.3,30.2c-0.2,0-0.2-0.1-0.2-0.2c0-0.2,0-0.4,0-0.6
						s0.1-0.4,0.2-0.6l0.1-0.1c0.2,0.3,0.2,0.6,0.1,0.9C264.5,29.8,264.4,30,264.3,30.2z"/>
					<path class="st6" d="M263.1,28.5c0.1-0.1,0.2-0.3,0.3-0.4c0.2-0.3,0.4-0.7,0.4-1.1s-0.5-0.4-0.8-0.3c-0.4,0.2-0.6,0.6-0.7,0.9
						c-0.1,0.5-0.2,1-0.2,1.5l0,0c-0.2,0.2-0.6,0.7-0.8,0.5c-0.1,0-0.1-0.1-0.1-0.2c0.2-0.3,0.4-0.5,0.6-0.8s0.3-0.7,0-0.9
						c-0.3-0.2-0.6,0-0.8,0.2s-0.3,0.5-0.3,0.8c0,0.2,0,0.4,0,0.7c-0.2,0.1-0.4,0.2-0.6,0.1c-0.2,0-0.3-0.3-0.3-0.5
						c-0.1-0.3,0-0.5,0-0.8c0-0.1,0-0.2,0.1-0.2c0,0,0,0,0-0.1c0.1,0.1,0.2,0.3,0.2,0.4c0.1,0.2,0.5-0.1,0.5-0.3
						c-0.1-0.2-0.1-0.4-0.3-0.5s-0.5,0.1-0.6,0.2c-0.3,0.3-0.4,0.9-0.4,1.3c0,0.3,0.1,0.7,0.3,0.8c0.3,0.2,0.8,0,1.2-0.2
						c0.1,0.2,0.3,0.4,0.5,0.3c0.3,0,0.7-0.2,0.9-0.5c0,0.3,0.1,0.6,0.3,0.7c0.3,0.2,0.7,0,0.9-0.3c0.3-0.3,0.4-0.8,0.3-1.2
						C263.4,28.6,263.3,28.5,263.1,28.5z M261.2,28.3c0-0.1,0-0.1,0.1-0.2l0,0c0.1,0,0.2,0.2,0.1,0.3c0,0.2-0.2,0.4-0.3,0.6v-0.1
						C261.1,28.7,261.1,28.5,261.2,28.3z M263,27.2c0-0.1,0.1-0.1,0.1-0.2l0,0c0.2,0.2,0,0.6-0.1,0.8c-0.1,0.2-0.3,0.5-0.4,0.7
						c0-0.2,0.1-0.4,0.1-0.7C262.8,27.6,262.9,27.4,263,27.2z M262.9,29.8C262.9,29.9,262.9,29.9,262.9,29.8
						c-0.1,0.1-0.1,0.1-0.1,0.1c-0.1-0.1-0.2-0.4-0.2-0.5s0-0.2,0-0.3c0.1-0.1,0.1-0.1,0.2-0.2c0.1-0.1,0.2,0.1,0.2,0.2
						C263.1,29.3,263,29.6,262.9,29.8z"/>
				</g>
			</g>
			<g>
				<path class="st6" d="M238.2,48.9c0.1-0.4,0.4-0.1,0.5,0.1c0.1,0.2,0,0.5-0.2,0.7c-0.1,0.2-0.3,0.3-0.5,0.4
					c-0.1,0.1-0.2,0.1-0.2,0.2v0.1c0.1,0.1,0.4,0.1,0.5,0.1c0.3,0,0.6,0,0.8-0.1c0.1-0.1,0.3-0.4,0-0.3c-0.2,0.1-0.4,0.1-0.6,0.1
					c-0.1,0-0.3,0-0.4-0.1v0.1c-0.1,0.2,0,0.1,0,0c0.1-0.1,0.2-0.1,0.2-0.2c0.1-0.1,0.3-0.2,0.4-0.4c0.2-0.3,0.4-0.6,0.3-1
					c-0.1-0.8-1-0.2-1.2,0.2C237.8,49.2,238.2,49,238.2,48.9L238.2,48.9z"/>
				<path class="st6" d="M240.3,50.2c0.3,0.9,1.6,0.3,1.4-0.5c-0.1-0.4-0.6-0.3-0.9-0.4c-0.2-0.1-0.2-0.2-0.2-0.4
					c0.1-0.2,0-0.2-0.1-0.1c0,0,0.1,0,0.2,0c0.3-0.1,0.6,0,0.8,0.1c0.1,0.1,0.4-0.2,0.2-0.3c-0.3-0.2-0.7-0.1-1-0.1
					c-0.3,0.1-0.4,0.4-0.4,0.7c0,0.4,0.3,0.4,0.6,0.5c0.2,0,0.4,0.1,0.4,0.4c0,0.4-0.4,0.4-0.6,0.2c-0.1-0.1-0.1-0.2-0.2-0.3
					C240.5,49.8,240.2,50.1,240.3,50.2L240.3,50.2z"/>
				<g>
					<path class="st6" d="M243.3,48.6c-0.4,0.6-0.8,1.2-1.3,1.8c-0.2,0.3,0.1,0.2,0.2,0.1c0.5-0.6,0.9-1.2,1.3-1.9
						C243.8,48.3,243.4,48.5,243.3,48.6L243.3,48.6z"/>
					<path class="st6" d="M242.6,48.4c-0.2,0-0.4,0.2-0.4,0.4s0.1,0.4,0.3,0.4C242.9,49.3,243.1,48.5,242.6,48.4
						c-0.1,0-0.3,0.2-0.1,0.2c0.1,0,0.2,0.1,0.2,0.2v0.1l0,0c0,0,0,0-0.1,0s-0.2-0.1-0.2-0.2v-0.1l0,0c0,0,0,0,0.1,0
						C242.6,48.7,242.8,48.4,242.6,48.4z"/>
					<path class="st6" d="M243.3,49.7c-0.2,0-0.4,0.2-0.4,0.4s0.1,0.4,0.3,0.4C243.6,50.6,243.8,49.8,243.3,49.7
						c-0.1,0-0.3,0.2-0.1,0.2c0.1,0,0.2,0.1,0.2,0.2v0.1l0,0c0,0,0,0-0.1,0s-0.2-0.1-0.2-0.2v-0.1l0,0c0,0,0,0,0.1,0
						C243.2,50,243.4,49.7,243.3,49.7z"/>
				</g>
				<path class="st6" d="M239.7,51c0.2-0.1,0.3-0.4,0.3-0.6c0-0.1,0-0.2,0-0.2c-0.1-0.1-0.2,0-0.3,0s-0.2,0.2-0.2,0.3
					s0.1,0.1,0.2,0.1l0,0l0,0v0.1c0,0.1,0,0.1,0,0.1l0,0l0,0l0,0l0,0c0,0-0.2,0.2-0.1,0.2C239.6,51.1,239.7,51,239.7,51L239.7,51z"
					/>
			</g>
			<g>
				<path class="st7" d="M235.8,34.2c-0.1,0-0.1-0.1-0.2-0.1c-0.2-0.1-0.4,0.1-0.7,0.1c-0.6,0-0.8,0-1.4-0.2c0-0.6,0.3-0.9,0.5-1.4
					c0.1-0.4-0.1-0.9-0.1-1.3c0-0.3,0-0.5,0-0.8c-0.2,0.2-0.1,0.7-0.1,1c-0.1-0.3-0.1-0.8-0.2-1.1c-0.1,0.3,0,0.8,0,1.1
					c-0.1-0.3-0.1-0.7-0.2-1c-0.2,0.3,0.1,0.8,0.1,1.1c-0.1-0.3-0.2-0.6-0.3-0.9c0,0.4,0.1,0.7,0.1,0.9c-0.1-0.2-0.2-0.5-0.3-0.6
					c0,0.2,0.2,0.5,0.2,0.7c-0.2-0.1-0.2-0.3-0.4-0.3c0,0.2,0.1,0.3,0.2,0.4c-0.1-0.1-0.2-0.2-0.3-0.2c0,0.2,0.2,0.2,0.2,0.4
					c-0.1-0.1-0.1-0.1-0.2-0.2c0,0.1,0.2,0.2,0.2,0.3c0,0-0.1-0.1-0.1,0l0.1,0.1h-0.1c0,0.1,0.1,0.1,0.1,0.2c0,0,0,0-0.1,0
					c0,0.1,0.1,0.1,0.1,0.1c-0.5,0.5-0.2,1-0.3,1.6c0-0.1-0.4-0.2-0.7-0.3c-0.2-0.1-0.2-0.3-0.4-0.3c0,0,0,0,0.1-0.1
					c-0.1,0-0.1,0-0.1-0.1c0.1,0,0.2,0,0.2,0c-0.1,0-0.3-0.1-0.3-0.2c0.1,0,0.2,0.1,0.3,0.1c-0.1-0.1-0.4-0.2-0.4-0.3
					c0.1,0,0.3,0.2,0.4,0.1c-0.2-0.1-0.5-0.3-0.5-0.4c0.1,0.1,0.3,0.2,0.5,0.2c-0.2-0.1-0.4-0.3-0.7-0.3c0.1,0.2,0.5,0.3,0.5,0.5
					c-0.2-0.1-0.4-0.2-0.6-0.3c0.1,0.2,0.3,0.3,0.5,0.4c-0.2,0-0.3-0.1-0.5-0.1c0.1,0.2,0.3,0.1,0.4,0.3c-0.1,0-0.2,0-0.3,0
					c0,0.1,0.2,0.1,0.3,0.2c-0.1,0-0.2,0-0.2,0.1c0.1,0.1,0.2,0,0.2,0.1c-0.1,0-0.1,0-0.1,0.1c0,0,0.1,0,0.2,0.1c0,0-0.1,0-0.1,0.1
					h0.1c0,0,0,0-0.1,0.1c0.3,0.1,0.4,0.6,0.7,0.7c-0.2,0.1,0.2,0.3-2,1c0.1,0,1-0.2,1.3-0.3c0.3-0.1,0.6-0.2,0.8-0.3
					c0.1,0,0.1,0,0.2-0.1c0.5,0,0.9,0,1.3-0.3c-0.3,0.1-0.9,0.1-1.2-0.1c0.3-0.5,0.1-1.7,0.3-1.9c0.3-0.2,0.6-1,1.1-0.4
					c0.1,0.1,0.1,0.3-0.1,0.5c-0.2,0.3-0.3,0.5-0.3,1.2c0,0.1,0,0.3-0.2,0.3c1,0.2,1.3,0.1,1.8,0c0.2,0,0.5-0.2,0.5,0
					c0,0.1-0.2,0.1-0.3,0.1c-0.3,0,0.1,0.1,0.2,0.1c0.1,0,0.6-0.1,0.8-0.1C236.1,34.3,236,34.3,235.8,34.2z"/>
				<path class="st7" d="M233,29.3c-2.2,0-4,1.8-4,4s1.8,4,4,4s4-1.8,4-4C237,31.1,235.2,29.3,233,29.3 M233,29.4
					c2.1,0,3.9,1.7,3.9,3.9c0,2.1-1.7,3.9-3.9,3.9c-2.1,0-3.9-1.7-3.9-3.9C229.1,31.2,230.8,29.4,233,29.4"/>
			</g>
		</g>
	</g>
</g>
<g id="_x33_">
	<g id="butylka_3">
		<g>
			<path class="st0" d="M343.8,78.5c0,0,0-39.2,0-60.5S335-11.4,335-11.4c2.3-13.2-4-17.1-4-17.1v-4.8h1.3c0,0,0-5.1,0-6.8
				s-2.3-1.5-2.3-1.5h-8.7h-0.8h-8.7c0,0-2.3-0.2-2.3,1.5s0,6.8,0,6.8h1.4v4.8h-0.1c0,0-6.3,4-4,17.1c0,0-8.8,8.1-8.8,29.4
				s0,60.5,0,60.5s-0.9,13,8.7,13c2.6,0,4.8,0,6.6,0c4.9,0,7.1,0,7.1,0h0.4h0.5l0,0h7.1l0,0c1.8,0,4,0,6.5,0l0,0
				C344.7,91.5,343.8,78.5,343.8,78.5z"/>
			<path class="st1" d="M338.8,75.5c0,0,0-39.2,0-60.5S330-14.4,330-14.4c2.3-13.2-4-17.1-4-17.1v-4.9h-20v4.9h-0.1
				c0,0-6.3,4-4,17.1c0,0-8.8,8.1-8.8,29.4s0,60.5,0,60.5s-0.9,13,8.7,13c2.6,0,4.8,0,6.6,0c4.9,0,7.1,0,7.1,0h1h7.1
				c1.8,0,4,0,6.6,0C339.7,88.5,338.8,75.5,338.8,75.5z"/>
			<path class="st2" d="M325-44.6h-8.7h-0.8h-8.7c0,0-2.3-0.2-2.3,1.5s0,6.8,0,6.8h11h0.8h11c0,0,0-5.1,0-6.8S325-44.6,325-44.6z"/>
			<path class="st3" d="M338.7,75.5c0,0,0-39.2,0-60.5s-8.8-29.4-8.8-29.4c2.3-13.2-4-17.1-4-17.1v-4.9h-10.1V88.5h0.5h7.1
				c1.8,0,4,0,6.6,0C339.6,88.5,338.7,75.5,338.7,75.5z"/>
			<path class="st6" d="M300.5,8c-0.1,0-0.2,0-0.3,0c-1.4-0.2-2.4-1.5-2.2-2.8c1.1-8.7,5.4-14,5.5-14.3c0.9-1.1,2.5-1.3,3.6-0.4
				s1.3,2.5,0.4,3.5c0,0.1-3.5,4.5-4.5,11.7C302.8,7.1,301.7,8,300.5,8z"/>
			<g>
				<circle class="st9" cx="316.2" cy="38" r="11.1"/>
				<circle class="st5" cx="307.4" cy="47.9" r="3.5"/>
				<path class="st9" d="M311,24.5c0,0.8-0.6,1.4-1.4,1.4c-0.8,0-1.4-0.6-1.4-1.4s0.6-1.4,1.4-1.4C310.3,23,311,23.7,311,24.5
					L311,24.5z"/>
				<path class="st5" d="M311,29.2c0,1-0.8,1.8-1.8,1.8s-1.8-0.8-1.8-1.8s0.8-1.8,1.8-1.8S311,28.2,311,29.2L311,29.2z"/>
				<path class="st5" d="M306.2,26.4c0,0.6-0.5,1.1-1.1,1.1c-0.6,0-1.1-0.5-1.1-1.1s0.5-1.1,1.1-1.1
					C305.7,25.3,306.2,25.8,306.2,26.4L306.2,26.4z"/>
				<path class="st6" d="M324.4,38c-0.9-0.3-1.4,0.8-1.5,1.5l0,0l0,0c-0.2,0.7-0.4,1-0.5,1c-0.2-0.1-0.1-0.4-0.1-0.5
					c0-0.3,0-0.6-0.1-0.9c-0.1-0.2-0.4-0.3-0.6-0.3v-0.1c0,0,0-0.1,0.1-0.1c0.1-0.2,0.2-0.4,0.4-0.6l0,0l0,0c0.1,0,0.2,0.2,0.2,0.2
					c0.2,0.2,1-0.1,0.8-0.4c-0.3-0.3-0.6-0.4-0.9-0.3c-0.2,0-0.4,0.1-0.6,0.3l-0.1,0.1c0-0.4,0-0.8,0-1.2c0-0.2-0.5-0.1-0.7,0.1
					l-0.1,0.1l0,0l0,0c-0.1,0.3-0.6,0.4-1,0.1l0,0c-0.1-0.1-0.2-0.1-0.4-0.2c-0.9-0.1-1.3,1-1.3,1.7l0,0c0,0.5-0.3,1.1-0.6,1.2
					c-0.1-0.1-0.1-0.1-0.1-0.2c-0.1-0.2-0.1-0.5-0.2-0.7c-0.1-0.7-0.1-1.4-0.1-2c0-0.1-0.1-0.2-0.3-0.1s-0.4,0.2-0.5,0.4
					c-0.3,0.6-0.4,1.3-0.5,1.9c0,0.2,0,0.4-0.1,0.5c0,0.1,0,0.1,0,0.2c-0.1,0-0.3-0.2-0.3-0.3c0-0.2-0.3-0.1-0.5,0.1
					c0.1-0.3,0.2-0.7,0.2-1c0-0.6-0.2-1.8-1-1.8c-0.9,0.1-1.1,1.2-1.1,1.9c0,0.7-0.1,1.2-0.1,1.3c-0.4,0.1-0.6-0.4-0.7-0.6
					c-0.2-0.5-0.3-0.9-0.3-1.4c-0.1-0.8-0.2-1.6-0.1-2.5c0-0.1-0.2-0.1-0.3-0.1c-0.2,0.1-0.4,0.3-0.4,0.4c-0.3,0.6-0.3,1.3-0.4,1.9
					l0,0c0-0.1,0-0.1,0-0.2c-0.1-0.5-0.2-1-0.2-1.5c0-0.3-0.1-0.7,0-1c0.1-0.4-0.5,0-0.6,0.2c-0.6,1.2-0.4,2.5-0.4,3.8
					c0,0.3,0,0.7-0.1,1c0,0.2-0.1,0.6-0.3,0.8c-0.1,0.1-0.3,0-0.4,0c-0.2-0.1-0.3-0.3-0.3-0.4c0-0.2-0.2-0.1-0.3,0
					c-0.1,0.1-0.3,0.4-0.3,0.6c0.1,0.4,0.5,0.8,0.9,0.7c0.8-0.2,1.1-1.1,1.2-1.9c0.1-0.4,0.1-0.8,0.1-1.3c0.2,0.8,0.3,1.5,0.5,2.3
					c0.1,0.4,0.6-0.3,0.6-0.5c0-0.5,0-1.1,0.1-1.6c0.1,0.7,0.3,2.2,1.2,2c0.4-0.1,0.6-0.4,0.8-0.7c0.1,0.3,0.4,0.5,0.7,0.5
					s0.6-0.3,0.8-0.6c0,0.3,0.2,0.5,0.5,0.5c0.4,0,0.8-0.2,1-0.5c0.1-0.1,0.2-0.3,0.2-0.4c0,0.1,0,0.1,0,0.2c0,0.2,0.1,0.5,0.3,0.6
					c0.2,0.2,0.5,0.1,0.7-0.1c0.2-0.1,0.4-0.4,0.5-0.6c0.1,0.4,0.2,0.8,0.7,0.9c0.4,0.1,0.8-0.3,1-0.6c0.2-0.3,0.3-0.8,0.4-1.2
					c0-0.2,0.1-0.7,0-1.1c0.3,0,0.5-0.1,0.7-0.2c0,1.1-0.2,2.1-0.4,3.2c0,0.2,0.2,0.2,0.3,0.2c0.2,0,0.4-0.2,0.4-0.4
					c0.1-0.3,0.2-0.6,0.3-1c0.4,0.5,0,1.1,0.3,1.5c0.2,0.2,0.6,0.2,0.9,0.1c0.1-0.1,0.2-0.1,0.2-0.2c0.1,0.3,0.2,0.6,0.5,0.8
					c0.4,0.2,0.8-0.1,1-0.4c0.3-0.3,0.4-0.7,0.5-1.1C325,39.4,325.2,38.2,324.4,38z M314.3,39.4c0,0.1,0,0.2-0.1,0.2
					c-0.2,0-0.3-0.3-0.3-0.4c-0.1-0.3-0.2-0.6-0.2-0.9s0-0.6,0.1-0.9c0-0.1,0-0.2,0.1-0.2c0.4,0.1,0.5,1,0.5,1.2
					C314.4,38.8,314.4,39.1,314.3,39.4z M319.1,39.6c0,0.1-0.1,0.2-0.1,0.2c-0.2-0.1-0.2-0.3-0.3-0.4c-0.1-0.3-0.1-0.6-0.1-0.9
					s0.1-0.6,0.2-0.9c0-0.1,0.1-0.1,0.1-0.2c0.4,0.3,0.4,0.9,0.3,1.3C319.3,39,319.2,39.3,319.1,39.6z M323.9,40.8
					c0,0.1-0.1,0.1-0.1,0.2c-0.1-0.1-0.2-0.4-0.2-0.5c0-0.3,0-0.6,0-0.9c0.1-0.3,0.1-0.6,0.3-0.9c0-0.1,0.1-0.1,0.1-0.2
					c0.3,0.4,0.2,0.9,0.1,1.4C324.1,40.2,324,40.5,323.9,40.8z"/>
				<g>
					<circle class="st5" cx="325.7" cy="27.9" r="6.1"/>
					<g>
						<path class="st6" d="M324.2,27.1c-0.5,0.1-0.6,0.7-0.7,1.1l0,0l0,0c0,0.1,0,0.1,0,0.2c0,0.2,0,0.4,0,0.5s0,0.2-0.1,0.2
							c-0.2,0-0.3-0.3-0.4-0.4c-0.1-0.3-0.2-0.6-0.3-1c-0.1-0.4-0.1-0.7-0.1-1.1c0-0.1,0-0.3,0-0.4s0-0.1,0-0.2v-0.1
							c0-0.3-0.3,0-0.4,0.1c-0.4,0.7-0.3,1.5-0.3,2.3c0,0.2,0,0.4,0,0.6c0,0.1,0,0.4-0.2,0.5c-0.1,0.1-0.2,0-0.3,0
							c-0.1-0.1-0.2-0.2-0.2-0.3c0-0.1-0.1-0.1-0.2,0c-0.1,0.1-0.2,0.2-0.2,0.4c0,0.3,0.3,0.5,0.6,0.4c0.5-0.1,0.7-0.7,0.8-1.1
							c0.1-0.2,0.1-0.4,0.1-0.6c0.1,0.3,0.2,0.6,0.3,0.9c0.1,0.2,0.3,0.4,0.5,0.4c0.2,0,0.3-0.2,0.4-0.5c0.1,0.2,0.2,0.3,0.5,0.3
							c0.3,0,0.5-0.3,0.6-0.5c0.1-0.2,0.1-0.5,0.1-0.8C324.8,27.8,324.7,27,324.2,27.1z M324.3,28.8L324.3,28.8
							c-0.1,0.1-0.2-0.1-0.2-0.1c-0.1-0.2-0.1-0.4-0.1-0.5c0-0.2,0-0.4,0-0.6v-0.1c0.3,0.2,0.3,0.5,0.3,0.8
							C324.4,28.4,324.4,28.6,324.3,28.8z"/>
						<path class="st6" d="M330.3,27.8c-0.5-0.2-0.9,0.5-1,0.9c-0.1,0.4-0.2,1.1,0.3,1.3c0.2,0.1,0.5-0.1,0.6-0.2
							c0.2-0.2,0.3-0.4,0.3-0.7C330.6,28.7,330.8,28,330.3,27.8z M329.9,29.5c0,0,0,0.1-0.1,0.1c-0.1-0.1-0.1-0.2-0.1-0.3
							c0-0.2,0-0.4,0-0.6s0.1-0.4,0.2-0.5c0,0,0-0.1,0.1-0.1c0.2,0.2,0.2,0.6,0.1,0.9C330.1,29.2,330,29.4,329.9,29.5z"/>
						<path class="st6" d="M328.8,27.9c0.1-0.1,0.2-0.3,0.3-0.4c0.2-0.3,0.4-0.7,0.4-1c0-0.4-0.5-0.4-0.7-0.3
							c-0.3,0.2-0.5,0.5-0.7,0.9c-0.1,0.5-0.2,0.9-0.2,1.4l0,0c-0.2,0.2-0.5,0.6-0.8,0.4c-0.1,0-0.1-0.1-0.1-0.2
							c0.2-0.2,0.4-0.5,0.6-0.8c0.2-0.2,0.3-0.7,0-0.8c-0.3-0.1-0.6,0-0.8,0.2c-0.2,0.2-0.3,0.5-0.3,0.8c0,0.1,0,0.4,0,0.6
							c-0.2,0.1-0.4,0.2-0.5,0.1c-0.2,0-0.3-0.3-0.3-0.4c-0.1-0.3,0-0.5,0-0.8c0-0.1,0-0.2,0.1-0.2c0,0,0,0,0-0.1
							c0.1,0.1,0.2,0.3,0.2,0.3c0.1,0.2,0.5-0.1,0.5-0.3c-0.1-0.2-0.1-0.4-0.3-0.5c-0.2-0.1-0.5,0.1-0.6,0.2
							c-0.3,0.3-0.4,0.8-0.3,1.3c0,0.3,0.1,0.6,0.3,0.8c0.3,0.2,0.8,0,1.1-0.2c0.1,0.2,0.2,0.4,0.5,0.3c0.3,0,0.6-0.2,0.9-0.5
							c0,0.2,0.1,0.5,0.2,0.6c0.3,0.2,0.6,0,0.8-0.3c0.2-0.3,0.4-0.8,0.2-1.1C329.1,27.9,328.9,27.9,328.8,27.9z M326.9,27.7
							c0-0.1,0-0.1,0.1-0.2l0,0c0.1,0,0.2,0.2,0.1,0.3c0,0.2-0.2,0.4-0.3,0.6v-0.1C326.8,28.1,326.9,27.8,326.9,27.7z M328.7,26.7
							c0-0.1,0.1-0.1,0.1-0.2l0,0c0.2,0.2,0,0.6-0.1,0.8c-0.1,0.2-0.2,0.4-0.4,0.6c0-0.2,0.1-0.4,0.1-0.6
							C328.5,27,328.6,26.8,328.7,26.7z M328.6,29.2C328.6,29.2,328.5,29.2,328.6,29.2c-0.1,0.1-0.1,0.1-0.1,0.1
							c-0.1-0.1-0.1-0.4-0.2-0.5c0-0.1,0-0.2,0-0.3c0.1-0.1,0.1-0.1,0.2-0.2c0.1-0.1,0.2,0.1,0.2,0.2
							C328.8,28.7,328.7,29,328.6,29.2z"/>
					</g>
				</g>
				<g>
					<path class="st6" d="M305,47.3c0.1-0.2,0.3-0.2,0.4-0.1c0.2,0.1-0.1,0.4-0.2,0.4c-0.1,0.1-0.3,0.2-0.2,0.4
						c0,0.1,0.3,0.1,0.4,0.1c0.2,0,0.2,0.1,0.2,0.3c-0.1,0.3-0.5,0.1-0.6,0c-0.1-0.1-0.4,0.2-0.3,0.3c0.4,0.4,0.9,0.1,1.1-0.3
						c0.1-0.1,0.1-0.4,0-0.5s-0.4-0.1-0.5-0.1h-0.1c0.1-0.1,0.1-0.1,0.2-0.2c0.1-0.1,0.2-0.2,0.2-0.3c0.1-0.2,0.1-0.4-0.1-0.5
						c-0.4-0.3-0.8,0.2-0.9,0.5C304.6,47.6,304.9,47.4,305,47.3L305,47.3z"/>
					<path class="st6" d="M306.8,48.6c0.3,0.8,1.6,0.3,1.4-0.5c-0.1-0.4-0.5-0.3-0.8-0.4c-0.2,0-0.2-0.2-0.2-0.3
						c0.1-0.2,0-0.2-0.1-0.1h0.1c0.3,0,0.5,0,0.8,0.1c0.1,0.1,0.4-0.2,0.2-0.3c-0.3-0.2-0.7-0.1-1,0c-0.3,0.1-0.4,0.4-0.4,0.7
						c0,0.4,0.3,0.4,0.6,0.5c0.2,0,0.4,0.1,0.4,0.3c0,0.4-0.4,0.3-0.6,0.2c-0.1-0.1-0.1-0.2-0.2-0.3
						C307.1,48.2,306.8,48.5,306.8,48.6L306.8,48.6z"/>
					<g>
						<path class="st6" d="M309.8,47c-0.4,0.6-0.8,1.2-1.2,1.7c-0.2,0.2,0.1,0.2,0.2,0.1c0.4-0.6,0.9-1.2,1.3-1.8
							C310.2,46.8,309.9,46.9,309.8,47L309.8,47z"/>
						<path class="st6" d="M309.1,46.9c-0.2,0-0.4,0.2-0.4,0.4s0.1,0.4,0.3,0.4C309.4,47.7,309.6,46.9,309.1,46.9
							c-0.1,0-0.3,0.2-0.1,0.2c0.1,0,0.2,0.1,0.2,0.2v0.1l0,0c0,0,0,0-0.1,0c-0.1,0-0.2-0.1-0.2-0.2v-0.1l0,0l0,0
							C309.1,47.1,309.2,46.9,309.1,46.9z"/>
						<path class="st6" d="M309.7,48.1c-0.2,0-0.4,0.2-0.4,0.4s0.1,0.4,0.3,0.4C310,48.9,310.2,48.2,309.7,48.1
							c-0.1,0-0.3,0.2-0.1,0.2c0.1,0,0.2,0.1,0.2,0.2v0.1l0,0c0,0,0,0-0.1,0s-0.2-0.1-0.2-0.2v-0.1l0,0l0,0
							C309.7,48.4,309.9,48.1,309.7,48.1z"/>
					</g>
					<path class="st6" d="M306.2,49.3c0.2-0.1,0.3-0.4,0.3-0.6c0-0.1,0-0.1,0-0.2c-0.1-0.1-0.2,0-0.3,0c-0.1,0-0.2,0.1-0.2,0.2
						c0,0.1,0.1,0.1,0.2,0.1l0,0l0,0v0.1c0,0.1,0,0.1,0,0.1l0,0l0,0l0,0l0,0l-0.1,0.2C306,49.5,306.1,49.4,306.2,49.3L306.2,49.3z"
						/>
				</g>
				<g>
					<path class="st7" d="M302.8,33.4c-0.1,0-0.1-0.1-0.2-0.1c-0.2-0.1-0.4,0.1-0.6,0.1c-0.5,0-0.7,0-1.3-0.2c0-0.6,0.3-0.9,0.5-1.3
						c0.1-0.4,0-0.8-0.1-1.3c0-0.3,0-0.5,0-0.8c-0.2,0.2-0.1,0.7-0.1,0.9c-0.1-0.3-0.1-0.8-0.2-1c-0.1,0.3,0,0.7,0,1
						c-0.1-0.3-0.1-0.6-0.2-0.9c-0.1,0.3,0.1,0.7,0.1,1c-0.1-0.3-0.2-0.6-0.3-0.8c0,0.4,0.1,0.6,0.1,0.9c-0.1-0.2-0.2-0.5-0.3-0.6
						c0,0.2,0.1,0.5,0.2,0.7c-0.2-0.1-0.2-0.3-0.4-0.3c0,0.2,0.1,0.3,0.2,0.4c-0.1-0.1-0.2-0.2-0.3-0.2c0,0.2,0.1,0.2,0.2,0.3
						c-0.1-0.1-0.1-0.1-0.2-0.1c0,0.1,0.2,0.2,0.2,0.3c0,0-0.1-0.1-0.1,0l0.1,0.1H300c0,0.1,0.1,0.1,0.1,0.1s0,0-0.1,0
						c0,0.1,0.1,0,0,0.1c-0.5,0.5-0.2,1-0.3,1.5c0-0.1-0.4-0.2-0.7-0.3c-0.2-0.1-0.2-0.3-0.3-0.3c0,0,0,0,0.1,0
						c-0.1,0-0.1,0-0.1-0.1c0.1,0,0.2,0,0.2,0c-0.1,0-0.3-0.1-0.3-0.2c0.1,0,0.2,0.1,0.3,0c-0.1-0.1-0.4-0.2-0.4-0.3
						c0.1,0,0.3,0.2,0.4,0.1c-0.2-0.1-0.5-0.2-0.5-0.4c0.1,0.1,0.3,0.2,0.5,0.2c-0.2-0.1-0.4-0.3-0.6-0.3c0.1,0.2,0.4,0.3,0.5,0.5
						c-0.2-0.1-0.4-0.2-0.5-0.3c0.1,0.2,0.3,0.3,0.5,0.4c-0.2,0-0.3-0.1-0.4-0.1c0,0.2,0.3,0.1,0.4,0.3c-0.1,0-0.2,0-0.3,0
						c0,0.1,0.2,0.1,0.3,0.1c-0.1,0-0.2,0-0.2,0c0.1,0.1,0.2,0,0.2,0.1c-0.1,0-0.1,0-0.1,0s0.1,0,0.2,0c0,0-0.1,0,0,0.1h0.1
						c0,0,0,0-0.1,0c0.2,0.1,0.4,0.5,0.7,0.6c-0.2,0.1,0.2,0.2-2,1c0.1,0,0.9-0.2,1.2-0.3c0.3-0.1,0.5-0.2,0.8-0.2
						c0.1,0,0.1,0,0.2-0.1c0.4,0,0.8,0,1.3-0.2c-0.3,0.1-0.9,0.1-1.1-0.1c0.3-0.5,0.1-1.6,0.3-1.8c0.2-0.2,0.6-1,1-0.3
						c0.1,0.1,0.1,0.2-0.1,0.5s-0.3,0.5-0.3,1.2c0,0.1,0,0.3-0.2,0.3c0.9,0.2,1.2,0.1,1.7,0c0.2,0,0.4-0.2,0.5,0
						c0,0.1-0.2,0.1-0.3,0.1C302.3,33.4,302.7,33.5,302.8,33.4c0.1,0.1,0.5,0,0.8,0C303,33.4,302.9,33.4,302.8,33.4z"/>
					<path class="st7" d="M300,28.6c-2.1,0-3.8,1.7-3.8,3.8c0,2.1,1.7,3.8,3.8,3.8s3.8-1.7,3.8-3.8C303.9,30.3,302.2,28.6,300,28.6
						 M300,28.8c2,0,3.7,1.7,3.7,3.7s-1.7,3.7-3.7,3.7s-3.7-1.7-3.7-3.7C296.4,30.4,298,28.8,300,28.8"/>
				</g>
			</g>
		</g>
	</g>
</g>
</svg>
