<?xml version="1.0" encoding="utf-8"?>
<!-- Generator: Adobe Illustrator 19.0.0, SVG Export Plug-In . SVG Version: 6.00 Build 0)  -->
<svg version="1.1" id="Layer_1" xmlns="http://www.w3.org/2000/svg" xmlns:xlink="http://www.w3.org/1999/xlink" x="0px" y="0px"
	 viewBox="0 0 86 86" style="enable-background:new 0 0 86 86;" xml:space="preserve">
<style type="text/css">
	.st0{fill:#483290;}
	.st1{fill:#62BA47;}
	.st2{fill:#FFFFFF;}
</style>
<circle id="XMLID_125_" class="st0" cx="44.7" cy="39.1" r="39.1"/>
<g id="XMLID_164_">
	<circle id="XMLID_124_" class="st1" cx="13.5" cy="73.7" r="12.3"/>
	<g id="XMLID_165_">
		<path id="XMLID_123_" class="st2" d="M8.2,71.6c0.3-0.8,1.1-0.9,1.7-0.5c0.8,0.6-0.3,1.5-0.7,1.8c-0.4,0.4-1.2,1-1,1.7
			c0.2,0.5,1.4,0.5,1.8,0.5c0.7,0.1,1,0.5,0.8,1.3c-0.3,1.2-1.9,0.5-2.4,0c-0.4-0.4-1.6,0.7-1.2,1.2c1.5,1.6,3.6,0.5,4.6-1.1
			c0.4-0.6,0.5-1.7,0-2.2c-0.5-0.5-1.5-0.4-2.1-0.5c-0.2-0.1-0.3,0-0.3,0.2c0.2-0.3,0.6-0.5,0.9-0.7c0.4-0.3,0.7-0.6,0.9-1
			c0.4-0.6,0.4-1.7-0.2-2.2c-1.5-1.1-3.4,0.9-3.9,2.1C6.6,72.8,8,72,8.2,71.6L8.2,71.6z"/>
		<g id="XMLID_166_">
			<path id="XMLID_122_" class="st2" d="M18.9,70.3c-1.5,2.5-3.4,4.8-5.1,7.1c-0.8,1,0.5,1,1,0.3c1.8-2.4,3.8-4.9,5.4-7.5
				C20.8,69.2,19.3,69.7,18.9,70.3L18.9,70.3z"/>
			<path id="XMLID_121_" class="st2" d="M16.2,69.6c-0.9,0-1.6,0.9-1.7,1.7c-0.2,0.8,0.3,1.5,1.1,1.5C17.3,72.9,18.2,69.7,16.2,69.6
				c-0.4,0-1.1,1-0.5,1c0.4,0,0.7,0.4,0.7,0.8c0,0.1,0,0.3-0.1,0.5c-0.1,0.1,0,0,0,0c-0.1,0-0.2,0-0.2,0c-0.4,0-0.7-0.4-0.7-0.8
				c0-0.2,0-0.4,0.1-0.5c0.1-0.1,0.1,0,0,0c0.1,0,0.1,0,0.2,0C16.1,70.6,16.8,69.6,16.2,69.6z"/>
			<path id="XMLID_120_" class="st2" d="M18.8,74.9c-0.9,0-1.6,0.9-1.7,1.7c-0.2,0.8,0.3,1.5,1.1,1.5C19.9,78.2,20.8,75,18.8,74.9
				c-0.4,0-1.1,1-0.5,1c0.4,0,0.7,0.4,0.7,0.8c0,0.1,0,0.3-0.1,0.5c-0.1,0.1,0,0,0,0c-0.1,0-0.2,0-0.2,0c-0.4,0-0.7-0.4-0.7-0.8
				c0-0.2,0-0.4,0.1-0.5c0.1-0.1,0.1,0,0,0c0.1,0,0.1,0,0.2,0C18.7,75.9,19.4,74.9,18.8,74.9z"/>
		</g>
	</g>
</g>
<g id="XMLID_149_">
	<path id="XMLID_150_" class="st2" d="M75.2,43.9c-0.4,0-0.9,0.2-1.1,0.6c-0.2,0.4-0.4,0.8-0.8,1c0,0,0,0-0.1,0
		c-0.1,0-0.2-0.1-0.2,0c-0.2-0.3,0.1-1.1,0.1-1.4c0.3-1.1,0.7-2.4,1.4-3.4c0.2-0.2,0.4-0.5,0.6-0.7c0.2-0.3,0.1-0.5-0.3-0.6
		c-0.4,0-0.9,0.1-1.2,0.4c-0.2,0.2-0.4,0.5-0.6,0.8c-0.3,0.3-0.6,0.7-0.9,0.9c-0.3,0.2-0.5,0.3-0.9,0.4c0,0-0.1,0-0.1,0
		c0.3-1.1,0.7-2.3,1-3.4c0.1-0.2-0.1-0.3-0.2-0.4c-0.4-0.2-1.4,0.2-1.5,0.5c-0.5,1.7-1.6,3.3-2.9,4.5c-0.1-0.1-0.1-0.1-0.2-0.2
		c-0.1-0.2-0.2-0.4-0.2-0.6c0-0.4,0.1-0.9,0.2-1.3c0.1-0.3,0.2-0.6,0.3-0.9c0.3-0.7,0.5-1.5,0.8-2.2c0.1-0.2,0.2-0.5,0.2-0.7
		c0.1-0.4-0.3-0.4-0.6-0.4c-0.4,0.1-0.9,0.3-1,0.7c-0.1,0.3-0.2,0.6-0.3,0.9c-0.2,0.6-0.4,1.2-0.6,1.8c-0.1,0.3-0.2,0.5-0.3,0.8
		c-0.2,0.5-0.4,1-0.7,1.4c0,0,0,0,0,0.1c-0.1,0-0.2-0.1-0.3-0.2c-0.7-0.5-0.2-2-0.1-2.7c0.1-0.3,0.2-0.6,0.3-0.9
		c0.1-0.1,0.1-0.3,0.2-0.4c0-0.1,0-0.1,0-0.1c0.2-0.5,0.4-0.9,0.7-1.4c0.2-0.3,0-0.5-0.3-0.5c-0.4,0-0.9,0.2-1.1,0.6
		c-0.4,0.7-0.7,1.4-1,2.2c-0.4,0.9-0.8,1.8-1.4,2.5c0,0,0,0.1-0.1,0.1c0,0,0,0,0,0c-0.1-0.1-0.1-0.3-0.1-0.3c-0.1-0.5-0.1-1-0.1-1.4
		c0-1.4,0.3-2.9,0.6-4.3c0,0,0,0,0,0c0-0.1,0-0.1,0-0.2c0-0.1-0.1-0.1-0.1-0.1c-0.3-0.2-0.9,0.1-1.1,0.3c-0.9,0.8-1.1,2.1-1.5,3.2
		c-0.2,0.6-0.5,1.3-0.8,1.9c0,0.1-0.1,0.1-0.1,0.2c-0.2-0.1-0.2-0.4-0.3-0.5c0,0,0-0.1,0-0.1c0.1-0.2-0.1-0.4-0.4-0.4
		c-0.4,0.1-0.9,0.4-1,0.7c0,0,0,0,0,0c0,0,0,0,0,0c-0.2-0.1-0.4-0.4-0.4-0.6c-0.1-0.5-0.1-1,0-1.4c0-0.3,0.1-0.6,0.1-1
		c0.2-0.8,0.3-1.5,0.5-2.3c0-0.2,0.1-0.5,0.1-0.7c0.1-0.4-0.4-0.4-0.7-0.3c-0.4,0.1-0.9,0.4-1,0.8c-0.1,0.4-0.2,0.8-0.2,1.2
		c-0.1,0.4-0.2,0.9-0.2,1.3c-0.1,0.4-0.1,0.7-0.2,1.1c-0.1,0.5-0.3,1-0.6,1.5c0,0,0,0,0,0.1c-0.1,0-0.2-0.1-0.3-0.1
		c-0.8-0.4-0.6-2-0.5-2.6c0.1-1,0.4-2,0.8-2.9c0.1-0.1,0.1-0.3,0-0.4c-0.2-0.2-0.5-0.1-0.8,0c-0.2,0.1-0.3,0.2-0.5,0.3
		c0,0-0.1,0-0.1,0s-0.2,0.1-0.2,0.1c-0.1,0.1-0.2,0.1-0.4,0.2c-0.7,0.3-1.3,0-1.7-0.5c-0.1-0.2-0.3-0.5-0.6-0.6
		c-0.6-0.4-1.2-0.1-1.8,0.2c0-0.5-0.1-0.9-0.1-1.4c0-0.4-0.7-0.1-0.9,0c-0.3,0.2-0.6,0.5-0.6,0.9c-0.2,0-0.4,0.1-0.5,0.2
		c-0.2,0.1-0.5,0.2-0.6,0.3c-0.1,0.1-0.2,0.2-0.2,0.2s-0.2,0.1-0.2,0.1c-0.1,0.1-0.2,0.1-0.3,0.2c-0.7,0.3-1.3,0.1-1.8-0.4
		c0-0.1-0.1-0.1-0.1-0.2c0,0,0,0,0,0c0,0,0,0-0.1-0.1c-0.2-0.2-0.5-0.3-0.8-0.3c0,0-0.1,0-0.1,0c0,0-0.1,0-0.1,0
		c-0.1,0-0.2,0-0.3,0.1c-0.2-0.1-0.4,0-0.6,0.1c-0.4,0.2-0.6,0.5-0.7,0.9c-0.3,0.4-0.4,0.9-0.6,1.4c-0.1,0.1-0.1,0.3-0.2,0.4
		c-0.3,0.5-0.6,1.1-0.8,1.6c-0.1-1.3-0.3-2.6-0.3-3.9c0-0.5-0.6-0.2-1,0.1c-0.2-0.1-0.5-0.2-0.8-0.2c0,0-0.1,0-0.1,0
		c0,0-0.1,0-0.1,0c-1.9,0.4-2.3,2.8-2.2,4.2c0,0.2,0,0.5,0.1,0.8c0,0,0,0,0,0c0.1,0.5,0.1,1.2-0.3,1.6c-0.4,0.4-1-1-1-1.2
		c-0.5-1.4-0.7-3.1-0.8-4.6c0-0.4-0.5-0.3-0.7-0.1c-0.3,0.2-0.7,0.7-0.7,1c0.1,1.2,0.3,2.4,0.4,3.6c0,0.5,0,1.1-0.1,1.6
		c0,0,0,0,0,0.1c-0.1,0-0.2,0-0.3,0c-0.9-0.2-1.1-1.7-1.2-2.3c-0.2-1-0.3-2.1-0.1-3.1c0-0.3-0.2-0.5-0.5-0.3c-0.4,0.2-0.7,0.6-0.8,1
		c-0.1,1.3,0,2.7,0.3,3.9c0.1,0.2,0.1,0.5,0.2,0.7c-0.1,0-0.3,0.1-0.4,0.3c-0.1,0.1-0.3,0.3-0.4,0.4c-0.5,0.1-1.2-1.7-1.2-1.9
		c-0.4-1.2-0.6-2.5-0.8-3.8c-0.1-0.4-0.5-0.2-0.7,0c-0.3,0.3-0.6,0.7-0.5,1.1c0.2,1.2,0.5,2.4,0.7,3.6c0.1,0.5,0.1,1.1,0.1,1.6
		c0,0,0,0,0,0.1c-0.1,0-0.2,0-0.3,0c-0.8-0.1-1.2-1.6-1.4-2.2c-0.1-0.4-0.2-0.9-0.3-1.3c0-0.1,0-0.1,0-0.2c0,0,0-0.1,0-0.1
		C23,38,23,37.5,23,37c0-0.3-0.2-0.5-0.6-0.3c-0.3,0.2-0.7,0.7-0.7,1.1c0,0.7,0.1,1.4,0.2,2c0.1,1,0.2,2,0,3c0,0.2-0.1,0.3-0.1,0.3
		c0,0,0,0,0,0.1c0,0-0.1,0,0,0l0,0c-0.1,0,0,0,0,0s-0.2,0-0.3-0.1c-0.5-0.2-0.9-0.8-1.1-1.2c-0.9-1.4-1.5-3-1.9-4.6
		c-0.2-0.8-0.4-1.6-0.6-2.4c-0.1-0.5-0.2-1.2-0.2-1.5c0-0.9-1,0.1-1.2,0.5c-0.9,2.6,0,5.1,0.5,7.5c0,0.2,0.1,0.5,0.1,0.7
		c-0.5,0.3-1.2,0.2-1.7-0.2c-0.5-0.3-1.4,1.3-0.8,1.6c1,0.5,1.9,0.3,2.6-0.2c0,0,0,0,0,0c0,0.4,0.1,1.3-0.3,1.7
		c-0.2,0.3-0.7,0.1-0.9,0c-0.4-0.2-0.6-0.5-0.7-0.8c-0.1-0.4-0.5-0.1-0.7,0.1c-0.3,0.3-0.5,0.8-0.4,1.2c0.3,0.9,1.2,1.6,2.3,1.2
		c1.5-0.5,1.8-2.5,2-3.7c0-0.3,0-0.6,0-0.9c0.1-0.1,0.2-0.2,0.2-0.4c0.4,0.8,0.8,1.5,1.3,2.1c0.6,0.8,1.4,1.1,2.2,0.3
		c0.4-0.4,0.7-0.9,0.9-1.5c0.3,0.6,0.8,1,1.5,0.9c0.8-0.1,1.3-0.7,1.5-1.4c0.2,0.3,0.4,0.5,0.7,0.6c-0.5,0.9-0.6,1.8,0,2.5
		c0.5,0.5,1.4-0.9,1-1.3c-0.4-0.4-0.3-0.8,0-1.3c0,0,0-0.1,0.1-0.1c0.3-0.3,0.6-0.6,0.8-0.9c0.1-0.1,0.1-0.2,0.2-0.3
		c0.3,0.5,0.7,0.9,1.4,0.9c0.8-0.1,1.4-0.6,1.7-1.3c0.1,0.2,0.2,0.3,0.3,0.4c0.8,0.9,1.9,0,2.5-0.7c0.1-0.1,0.1-0.2,0.2-0.2
		c0.3,0.5,0.8,0.9,1.5,0.8c0.2,0,0.4-0.1,0.6-0.2c-0.5,1.1-0.9,2.3-1.2,3.5c-0.2,1,0,2.2,1.3,2.1c0.8-0.1,1.3-0.8,1.6-1.5
		c0.6-1.1,0.4-2.6,0.3-3.7c-0.1-0.7-0.1-1.4-0.2-2.1c0.2-0.5,0.5-0.9,0.7-1.4c0.1,1.3,0.6,2.9,1.9,2.9c0.8,0,1.5-0.8,1.8-1.5
		c0.4-0.7,0.5-1.6,0.5-2.5c0-0.3,0-0.8-0.1-1.3c0.3,0,0.6-0.1,0.8-0.2c-0.2,0.5-0.2,1.1-0.3,1.6c0,1.1,0.1,2.4,0.8,3.3
		c0.3,0.4,0.8,0.5,1.2,0.4c0.2,0,0.4-0.1,0.5-0.2c-0.1,1.5-0.2,2.9-0.4,4.4c0,0.4,0.4,0.3,0.6,0.2c0.3-0.2,0.6-0.5,0.7-0.9
		c0.2-1.2,0.3-2.3,0.4-3.5c0.5,0,1.1-0.2,1.5-0.6c1-0.9,1.4-2.4,1.4-3.6c0-0.2,0-0.5,0-0.7c0.4,0,0.9-0.1,1.3-0.3
		c-0.3,0.9-0.5,1.9-0.5,2.9c0,0.9,0,2.5,1.2,2.8c0.7,0.2,1.4-0.1,1.9-0.5c0.2,0.6,0.8,1,1.5,1c0.3,0,0.5-0.1,0.7-0.2
		c0.4,0.6,1.2,0.6,1.9,0.2c0.5-0.4,0.9-0.8,1.2-1.4c0,0.2,0,0.3,0,0.5c0,0.5,0,1,0.3,1.5c0.3,0.5,1.3,0.2,1.3,0.2s0.1,0,0.2-0.1
		c0.3-0.1,0.6-0.4,0.9-0.6c0,0.7,0.2,1.3,0.9,1.5c0.6,0.3,1.2,0.1,1.8-0.3c0,0.1,0.1,0.3,0.1,0.4c0.3,0.7,1,0.8,1.6,0.6
		c0.9-0.3,1.5-1,2.1-1.7c-0.2,0.7-0.5,1.5-0.7,2.2c-0.1,0.4,0.3,0.4,0.5,0.4c0.4-0.1,0.8-0.3,1-0.6c0.3-0.6,0.6-1.2,1-1.6
		c0.3-0.2,0.4-0.2,0.8-0.4c0,0,0,0,0.1,0c-0.3,0.9-0.7,1.8-0.8,2.8c-0.1,0.9,0.4,1.2,1.3,1.1c1.4-0.1,2.4-1.1,3.1-2.2
		C76,44,75.5,43.9,75.2,43.9z M21.9,43.3C21.9,43.3,21.9,43.3,21.9,43.3L21.9,43.3L21.9,43.3L21.9,43.3z M21.8,43.3L21.8,43.3
		C21.8,43.3,21.8,43.3,21.8,43.3C21.8,43.3,21.8,43.3,21.8,43.3z M25,42.5C25,42.5,25,42.5,25,42.5L25,42.5z M30.9,41.2
		C30.9,41.2,30.9,41.2,30.9,41.2L30.9,41.2z M35.6,37.8c-0.1-0.6-0.1-1.3,0-1.9c0-0.2,0.1-0.4,0.2-0.6c1,0,1.4,1.8,1.4,2.4
		c0.1,0.6,0.1,1.3,0,1.9c0,0.1-0.1,0.3-0.1,0.4c0,0,0,0.1-0.1,0.2c0,0,0,0,0,0C36.2,40.4,35.7,38.3,35.6,37.8z M37.9,45.2
		c0,0.2-0.1,0.3-0.1,0.5c0,0-0.1,0-0.2,0c-0.2,0-0.2,0-0.3-0.1c-0.4-0.3-0.2-1-0.1-1.4c0.1-0.6,0.3-1.2,0.6-1.8
		c0,0.3,0.1,0.6,0.1,0.9C37.9,43.8,37.9,44.5,37.9,45.2z M42.4,39.3c0,0.1-0.1,0.3-0.1,0.4c0,0,0,0.1-0.1,0.2c0,0,0,0,0,0
		C41.4,40,41,37.9,41,37.3c0-0.6,0-1.2,0.1-1.8c0.1-0.2,0.2-0.4,0.3-0.7c0.1,0,0.2,0.1,0.3,0.1c0,0,0,0.1,0.1,0.1
		c0.1,0.1,0.2,0.2,0.2,0.3c0.4,0.6,0.5,1.6,0.5,2C42.6,38,42.5,38.7,42.4,39.3z M46.7,39.8c-0.2-0.2-0.4-0.4-0.5-0.7
		c-0.3-0.7-0.4-1.6-0.4-2.3c0-0.6,0.1-1.3,0.4-1.9c0,0,0.1,0.1,0.1,0.1c0.5,0.4,0.7,1.1,0.7,1.7l0,0c0,1,0,2.1,0,3.1c0,0,0,0,0,0.1
		c0,0,0,0-0.1,0C46.8,39.8,46.7,39.8,46.7,39.8z M49.2,39.9C49.3,39.9,49.3,39.9,49.2,39.9L49.2,39.9z M49.3,39.8
		C49.2,39.9,49.2,39.9,49.3,39.8C49.2,39.9,49.2,39.9,49.3,39.8c-0.6,0.1-0.9-0.3-0.9-0.8c0,0,0,0,0,0c0.1-1.1,0.1-2.2,0.1-3.3
		c0-0.3,0-0.5,0.1-0.8c0,0,0,0,0,0c0,0,0,0,0,0c0.2,0,0.3,0.1,0.4,0.3c0,0,0,0,0,0c0,0,0.1,0.1,0.1,0.1c0.4,0.6,0.4,1.4,0.4,2.1
		C49.7,38.2,49.6,39.2,49.3,39.8z M54.3,40.5C54.3,40.5,54.3,40.5,54.3,40.5L54.3,40.5z M65,42.7C65,42.7,65,42.7,65,42.7L65,42.7z"
		/>
</g>
</svg>
