<?xml version="1.0" encoding="utf-8"?>
<!-- Generator: Adobe Illustrator 19.0.0, SVG Export Plug-In . SVG Version: 6.00 Build 0)  -->
<svg version="1.1" id="Layer_1" xmlns="http://www.w3.org/2000/svg" xmlns:xlink="http://www.w3.org/1999/xlink" x="0px" y="0px"
	 viewBox="0 0 86 86" style="enable-background:new 0 0 86 86;" xml:space="preserve">
<style type="text/css">
	.st0{fill:#E90E8A;}
	.st1{fill:#FFFFFF;}
	.st2{fill:#62BA47;}
</style>
<circle id="XMLID_154_" class="st0" cx="44.5" cy="39" r="39"/>
<g id="XMLID_142_">
	<path id="XMLID_147_" class="st1" d="M75.6,38.1c-0.6-0.6-1.4-0.5-2.1-0.4c0.1-0.6,0.1-1.1,0.1-1.7c0-0.5-0.8-0.3-1-0.3
		c-0.4,0.1-0.9,0.4-0.9,0.9c-0.5-0.1-1.1,0.1-1.5,0.3c-1.3,0.7-1.9,2.1-2.2,3.4c-0.1,0.3-0.1,0.6-0.2,0.9c0,0,0,0,0,0.1
		c-0.1,0.5-0.3,1.4-0.9,1.7c-0.5,0.2-0.6-1.5-0.7-1.8c-0.1-1.9,0.4-3.8,0.7-5.6c0.1-0.5-0.4-0.5-0.8-0.4c-0.4,0.1-1,0.4-1.1,0.9
		c-0.3,1.4-0.5,2.8-0.9,4.2c-0.2,0.6-0.4,1.2-0.7,1.8c0,0,0,0.1,0,0.1c-0.1,0-0.3-0.1-0.3-0.2c-0.9-0.6-0.6-2.4-0.5-3.2
		c0.2-1.2,0.5-2.4,1-3.5c0.2-0.4,0-0.7-0.5-0.6c-0.5,0-1.1,0.4-1.2,0.8c-0.4,1-0.7,2-0.9,3c-0.2,0.9-0.7,1.9-1.3,2.6
		c-0.1,0.1-0.1,0.1-0.2,0.2c0,0,0-0.1,0-0.1c-0.2-0.8-0.1-1.7-0.1-2.4c0.1-1.2,0.2-2.3,0.4-3.5c0,0,0-0.1,0-0.1
		c0.1-1-0.7-1.6-1.9-1.5c-1.1,0.1-2,0.7-2.5,1.5c-0.7,0.9-1,2.3-1.1,2.5c-0.3,0.9-0.7,2-1.2,2.8c-0.1-0.1-0.2-0.3-0.2-0.4
		c-0.2-0.5-0.3-1.1-0.4-1.7c-0.2-1.7-0.2-3.4-0.1-5.1c0,0,0,0,0,0c0-0.1,0-0.2-0.1-0.2c0-0.1-0.1-0.1-0.2-0.1
		c-0.5-0.1-1,0.3-1.3,0.5c-0.9,1.1-1,2.7-1.3,4c-0.2,0.8-0.3,1.6-0.6,2.3c0,0.1-0.1,0.2-0.1,0.3c-0.2-0.1-0.3-0.4-0.4-0.6
		c0,0,0-0.1,0-0.1c0-0.3-0.2-0.5-0.6-0.4c-0.5,0.1-1,0.5-1.1,1c0,0,0,0,0,0c0,0,0,0,0,0c-0.3-0.1-0.5-0.4-0.6-0.6
		c-0.2-0.5-0.2-1.1-0.3-1.7c0-0.4,0-0.8,0-1.2c0.1-0.9,0.1-1.9,0.2-2.8c0-0.3,0-0.6,0.1-0.9c0-0.5-0.5-0.4-0.8-0.2
		c-0.4,0.2-0.9,0.6-1,1.1c0,0.5-0.1,1-0.1,1.5c0,0.5,0,1-0.1,1.5c0,0.4-0.1,0.9-0.1,1.3c-0.1,0.6-0.2,1.3-0.4,1.9c0,0,0,0.1,0,0.1
		c-0.1,0-0.3-0.1-0.4-0.1c-1-0.4-1-2.2-1-3c0-1.2,0-2.5,0.4-3.6c0.1-0.2,0.1-0.4,0-0.5c-0.2-0.2-0.6-0.1-0.9,0.1
		c-0.2,0.1-0.8,0.7-1.2,0.9c-0.8,0.4-1.5,0.2-2.1-0.3c-0.2-0.3-0.4-0.5-0.8-0.6c-0.7-0.3-1.5,0.1-2.1,0.5c-0.1-0.5-0.2-1.1-0.3-1.6
		c-0.1-0.4-0.9,0-1.1,0.2c-0.4,0.3-0.7,0.8-0.6,1.2c-0.5,0.1-1,0.5-1.3,0.9c-1.1,1.2-1.3,2.8-1.2,4.2c0,0.3,0,0.6,0.1,0.9
		c0,0.3,0,1.6-0.4,2c-0.5,0.5-1.1-1.2-1.2-1.4c-0.6-1.7-0.6-3.7-0.8-5.5c0-0.5-0.6-0.3-0.9-0.1c-0.4,0.3-0.8,0.8-0.8,1.3
		c0.1,1.4,0.3,2.9,0.3,4.3c0,0.6,0,1.3-0.2,1.9c0,0,0,0.1,0,0.1c-0.1,0-0.3,0-0.4,0c-1-0.2-1.2-2-1.3-2.8c-0.2-1.2-0.2-2.5,0-3.7
		c0.1-0.4-0.2-0.6-0.6-0.4c-0.4,0.2-0.9,0.8-1,1.3c-0.2,1.6-0.2,3.2,0.1,4.7c0.2,1.1,0.7,2.9,2.2,2.7c1-0.1,1.7-0.8,2.1-1.7
		c0.1,0.2,0.2,0.4,0.4,0.5c0.9,1.1,2.2-0.1,2.9-0.9c0.1-0.1,0.2-0.2,0.3-0.3c0.2,0.2,0.3,0.5,0.5,0.7c0.4,0.4,1,0.4,1.6,0.3
		c0.2-0.1,0.4-0.2,0.6-0.3c0.1,1.7,0.2,3.5,0.1,5.3c0,0.5,0.5,0.3,0.8,0.1c0.4-0.3,0.8-0.7,0.8-1.2c0.1-1.4,0-2.8,0-4.2
		c0.6-0.1,1.3-0.4,1.8-0.9c1.2-1.2,1.3-3,1.2-4.5c0-0.3-0.1-0.6-0.1-0.9c0.5-0.1,1.1-0.3,1.6-0.6c-0.2,1.1-0.3,2.3-0.2,3.5
		c0.1,1.1,0.4,3,1.9,3.1c0.9,0.1,1.6-0.3,2.1-0.9c0.3,0.7,1.1,1.1,1.9,0.9c0.3-0.1,0.6-0.2,0.8-0.4c0.6,0.6,1.5,0.6,2.3-0.1
		c0.6-0.5,0.9-1.1,1.2-1.8c0,0.2,0.1,0.4,0.1,0.6c0.1,0.6,0.3,1.2,0.7,1.7c0.4,0.5,1.2,0.3,1.7,0c0.4-0.2,0.9-0.6,1.2-0.9
		c0.1,0.5,0.3,1.1,0.8,1.4c0.8,0.5,1.8,0,2.4-0.4c0.1,0.4,0.2,0.8,0.6,1c0.9,0.3,2-0.5,2.5-1c0,0,0.1-0.1,0.1-0.1
		c0.1,0.8,0.5,1.6,1.3,1.9c1,0.3,1.8,0,2.4-0.6c0,0.2,0.1,0.4,0.2,0.6c0.5,1.4,2,0.9,2.8,0.4c0.1-0.1,0.2-0.1,0.3-0.2
		c0.1,0.3,0.2,0.6,0.3,0.9c0.3,0.6,0.8,0.9,1.4,0.9c0.2,0,0.4,0,0.7,0c-0.4,1.7-0.8,3.4-1.3,5C69,50.9,69.5,51,69.8,51
		c0.4-0.1,0.9-0.4,1-0.8c0.4-1.3,0.8-2.7,1.1-4c0.6,0.2,1.3,0.2,1.9-0.1c1.4-0.7,2-2.3,2.3-3.8C76.3,41.1,76.6,39.2,75.6,38.1z
		 M34.7,40.7c-0.1,0-0.2,0-0.3,0c-0.3-0.1-0.6-0.4-0.7-0.7c-0.5-0.8-0.7-1.8-0.7-2.7c-0.1-0.8,0-1.6,0.3-2.3c0.1,0,0.1,0.1,0.2,0.1
		c0.6,0.4,1,1.2,1.1,1.9l0,0c0.1,1.2,0.3,2.5,0.3,3.7C34.8,40.6,34.8,40.7,34.7,40.7z M37.6,40.2c0,0,0,0.1-0.1,0.1c0,0,0,0,0,0
		c-0.7,0.1-1.1-0.4-1.1-0.9c0,0,0,0,0,0c-0.1-1.3-0.2-2.6-0.3-3.9c0-0.3,0-0.6,0.1-1c0,0,0,0,0,0c0,0,0,0,0,0c0.2,0,0.4,0.1,0.6,0.2
		c0,0,0,0,0,0.1c0,0.1,0.1,0.1,0.2,0.1c0.5,0.6,0.7,1.6,0.8,2.4C38,38.3,38,39.4,37.6,40.2z M58.1,35.8c-0.3,1.6-0.3,3.2-0.9,4.7
		c0,0.1-0.1,0.2-0.2,0.4c0,0-0.2,0-0.3-0.1c-0.3-0.2-0.4-0.7-0.5-1.1c-0.3-1.2-0.1-2.5,0.3-3.6c0.1-0.3,0.4-0.9,0.6-1.1
		c0,0,0.1,0,0.1,0c0.1,0,0.2,0,0.3,0C58,35.1,58.2,35.5,58.1,35.8z M71.4,40.4L71.4,40.4c-0.2,1.2-0.4,2.4-0.7,3.6c0,0,0,0.1,0,0.1
		c0,0,0,0-0.1,0c-0.1,0-0.2-0.1-0.3-0.2c-0.3-0.3-0.4-0.6-0.5-1c-0.3-1-0.2-2,0-2.9c0.1-0.7,0.4-1.5,0.9-2.1c0,0,0.1,0.1,0.1,0.2
		C71.4,38.8,71.4,39.7,71.4,40.4z M74.3,42.3c-0.1,0.9-0.4,2-0.9,2.6c0,0-0.1,0.1-0.1,0.1c0,0,0,0,0,0c-0.6-0.2-0.9-0.8-0.8-1.3l0,0
		c0.3-1.3,0.5-2.5,0.7-3.8c0.1-0.3,0.2-0.6,0.3-0.9c0,0,0,0,0,0c0,0,0,0,0,0c0.2,0,0.4,0.3,0.5,0.6C74.5,40.3,74.4,41.5,74.3,42.3z"
		/>
	<path id="XMLID_146_" class="st1" d="M67.9,33.4c0.2-0.2,0.9-0.6,0.6-1c-0.3-0.4-1-0.1-1.2,0c-0.6,0.4-1.1,0.5-1.9,0.1
		c-0.3-0.2-0.5-0.4-0.7-0.7c-0.4-0.6-2.2,0.4-1.8,1.1C64.1,34.8,66.5,34.2,67.9,33.4z"/>
	<path id="XMLID_143_" class="st1" d="M18.3,36.4c-0.2-0.7-0.4-1.5-0.7-2.2c1.5-0.4,3-0.9,4.4-1.6c0.5-0.2,0.9-0.8,1-1.3
		c0.1-0.4-0.2-0.5-0.6-0.4c-2.6,1.1-5.5,1.7-8.1,2.7c-1,0.4-2.1,1.2-2.6,2.2c-0.7,1.3-0.4,2.3,0.2,3.3c0.4,0.6,1.7-1.2,1.4-1.8
		c-0.2-0.3-0.4-0.7-0.5-1.1c0,0,0-0.1,0-0.2c0.6-0.5,1.6-0.8,2.3-1.1c0.2-0.1,0.4-0.1,0.7-0.2c0.3,0.8,0.6,1.6,0.8,2.4
		c-0.9,0.6-1.7,1.5-2.1,2.4c-1,2-1.2,7.2,2.4,6.7c2.4-0.4,2.5-3.2,2.3-5.1c-0.1-1-0.3-2.1-0.5-3.1c0.2,0,0.4,0,0.6,0
		c1.4,0.1,2,1.4,2.2,2.5c0.1,1,0.1,2.3-0.7,3.1c-0.3,0.3-0.6,0.9-0.4,1.3c0.2,0.4,0.8-0.2,0.9-0.3c1.8-2,2.6-5.4,0.8-7.6
		C21.3,36.1,19.7,36.1,18.3,36.4z M17.5,44.4c-0.5,0-1.1-0.1-1.5-0.5c-0.9-0.9-1.2-3-0.4-4.3c0.3-0.5,0.8-0.9,1.3-1.1
		c0.3,1.3,0.5,2.5,0.7,3.8c0.1,0.6,0.1,1.2,0.2,1.8c0,0.1,0,0.2,0,0.3C17.7,44.4,17.6,44.4,17.5,44.4z"/>
</g>
<g id="XMLID_129_">
	<path id="XMLID_83_" class="st1" d="M54.1,67.1c-0.4,0.6-1.1-1-1.2-1.1c-0.1-0.2-0.2-0.4-0.2-0.6c-0.1-0.5-0.3-0.9-0.4-1.3
		c0-0.1-0.1-0.2-0.1-0.3c-0.1-0.5-0.7,0.4-0.6,0.7c0.2,0.6,0.3,1.3,0.5,1.9c0.1,0.3,0.1,0.7,0.2,1c0,0.4,0.1,0.5-0.3,0.4
		c-1-0.3-1-2.5-1.1-3.3c0-0.6-0.6,0.1-0.6,0.5c0,0.4,0,1.8,0.3,2.8c-0.2,0.4-0.6,0.8-0.8,0.5c-0.2-0.3-0.3-0.7-0.4-1.1
		c-0.2-0.6-0.7-0.6-1.2-0.4c0,0,0,0,0,0c0-0.2,0-0.6,0.1-0.9c0.1-0.3,0.3-0.5,0.6-0.3c0.4,0.2,0.9-0.7,0.6-0.9
		c-0.8-0.4-1.4,0.1-1.7,0.9c-0.1-0.5-0.2-1-0.4-1.5c-0.1-0.4-0.8,0.4-0.7,0.7c0.3,1.1,0.4,2.2,0.4,3.3c0,0,0,0,0,0
		c-0.3,0.3-1,1.1-1.3,0.4c-0.1-0.5-0.2-0.9-0.2-1.4c0-0.4,0-0.8,0-1.1c0-0.1,0-0.2,0-0.3c0,0,0-0.1,0-0.1c-0.1-1.2-1.3-0.5-1.8,0.1
		c-0.6,0.8-0.8,1.9-0.8,2.8c-0.6,0.3-0.8,0.2-0.9-0.6c-0.2-1,0-2.1,0.2-3.1c0.1-0.5-0.8,0.1-0.9,0.2c-0.3,0.5-0.5,1-0.7,1.5
		c-0.1,0.3-0.2,0.6-0.3,0.9c-0.1,0.2-0.1,0.3-0.2,0.5c-0.2,0.4-0.4,0-0.3-0.2c0-0.2-0.1-0.2-0.2-0.2c-0.1,0-0.1,0-0.2,0
		c-0.3,0-0.7,0.1-1,0.2c-0.1-0.2-0.2-0.5-0.3-0.6c0.7-0.5,1-1.5,1.1-2.3c0.1-0.5,0-1.1-0.5-1.2c-0.8-0.2-1.6,0.5-1.9,1.3
		c-0.2,0.5,0.9,0.2,1-0.1c0.1-0.2,0.2-0.8,0.4-0.3c0.1,0.3,0,0.6,0,0.9c-0.1,0.4-0.4,1.5-0.8,1.6c-0.1,0-0.2,0-0.3,0
		c-0.2,0-0.5,0.2-0.6,0.3c-0.1,0.1-0.1,0.2,0.1,0.3c0.2,0,0.4,0.1,0.5,0.1c0.2,0.1,0.3,0.3,0.4,0.5c-1.1,0.4-2.2,0.9-2.8,1.7
		c-0.7,0.9,0.3,2,1.7,1.8c1.4-0.3,2-1.6,2.2-2.7c0-0.1,0-0.3,0.1-0.4c0.1,0,0.3,0,0.4-0.1c0.1,0.7,1.1,0.8,1.7,0.4
		c0.2-0.1,0.3-0.3,0.4-0.5c0,0.3,0.1,0.6,0.2,0.9c0.4,0.7,1.4,0.3,1.9,0c0.3,0.6,1,0.7,1.7,0.2c0,0,0.1-0.1,0.1-0.1
		c0,0.2,0.1,0.3,0.2,0.4c0.4,0.5,1.4-0.3,2-0.8c0,0.2,0,0.4,0,0.6c0,0.5,0.9-0.2,0.9-0.6c0-0.4,0-0.9,0-1.3c0.6,0.1,0.5,1.5,1.1,1.7
		c0.6,0.2,1.2-0.4,1.6-0.9c0.3,0.4,0.6,0.6,1.1,0.4c0.5-0.2,0.8-0.5,0.9-0.9c0.6,0.7,1.4,0,1.8-0.7C55,66.6,54.5,66.5,54.1,67.1z
		 M37.4,69.1c-0.1,0.7-0.5,1.5-1.1,2c-0.2,0.2-0.4,0-0.6-0.2c-0.2-0.3,0-0.7,0.1-0.9c0.3-0.6,1-0.9,1.6-1.1
		C37.4,68.9,37.4,69,37.4,69.1z M44.4,69c-0.2,0-0.3-0.3-0.3-0.4c-0.2-0.5-0.1-1-0.1-1.5c0-0.3,0.1-0.5,0.2-0.8
		c0-0.1,0.1-0.3,0.2-0.4c0.2-0.3,0.4,0.2,0.4,0.3c-0.1,0.7-0.1,1.4-0.2,2.1C44.7,68.5,44.6,69,44.4,69z"/>
</g>
<circle id="XMLID_128_" class="st2" cx="13.3" cy="73.7" r="12.3"/>
<g id="XMLID_88_">
	<path id="XMLID_110_" class="st1" d="M5,71.8c0.5-1.2,1.3-0.4,1.6,0.2c0.4,0.8-0.1,1.7-0.6,2.4c-0.4,0.6-1,1.1-1.6,1.4
		C4.2,76,4,76.2,3.8,76.5c-0.1,0.1-0.2,0.4,0,0.5c0.4,0.4,1.3,0.3,1.8,0.3c0.9,0.1,1.9,0,2.7-0.4c0.5-0.2,0.9-1.4,0.1-1
		c-0.6,0.3-1.5,0.3-2.2,0.2c-0.3,0-1.2,0-1.4-0.2c0,0.2,0,0.3,0,0.5c-0.4,0.7-0.1,0.3,0.2,0.1c0.3-0.2,0.5-0.4,0.8-0.6
		c0.5-0.4,0.9-0.8,1.2-1.3c0.8-0.9,1.2-2,1-3.2c-0.5-2.7-3.4-0.7-3.9,0.8C3.7,72.9,4.9,72.2,5,71.8L5,71.8z"/>
	<path id="XMLID_94_" class="st1" d="M11.9,76.1c0.9,2.9,5.4,0.9,4.7-1.7c-0.4-1.3-1.9-1.1-2.9-1.5c-0.6-0.2-0.6-0.7-0.6-1.2
		c0.2-0.6,0.2-0.7-0.2-0.3c0.2-0.1,0.3-0.1,0.5-0.1c0.9-0.2,1.9-0.1,2.7,0.3c0.4,0.2,1.3-0.8,0.8-1.1c-1.1-0.5-2.4-0.4-3.5-0.2
		c-1.1,0.3-1.4,1.3-1.4,2.3c-0.1,1.3,1.1,1.4,2.1,1.6c0.8,0.1,1.4,0.3,1.5,1.2c0.1,1.4-1.3,1.2-2,0.8c-0.3-0.2-0.5-0.6-0.6-0.9
		C12.8,74.9,11.7,75.7,11.9,76.1L11.9,76.1z"/>
	<g id="XMLID_90_">
		<path id="XMLID_93_" class="st1" d="M22.2,70.8c-1.2,2.1-2.8,4-4.3,5.9c-0.6,0.8,0.4,0.8,0.8,0.2c1.5-2,3.2-4.1,4.5-6.3
			C23.7,69.8,22.5,70.3,22.2,70.8L22.2,70.8z"/>
		<path id="XMLID_92_" class="st1" d="M19.9,70.2c-0.8,0-1.3,0.7-1.5,1.5c-0.1,0.7,0.3,1.2,1,1.3C20.8,73,21.6,70.3,19.9,70.2
			c-0.3,0-0.9,0.8-0.4,0.8c0.4,0,0.5,0.3,0.6,0.7c0,0.1,0,0.3,0,0.4c0,0.1,0,0,0,0c-0.1,0-0.1,0-0.2,0c-0.3,0-0.6-0.3-0.6-0.6
			c0-0.1,0-0.3,0.1-0.4c0-0.1,0.1,0,0,0c0,0,0.1,0,0.2,0C19.7,71,20.3,70.2,19.9,70.2z"/>
		<path id="XMLID_91_" class="st1" d="M22,74.7c-0.8,0-1.3,0.7-1.5,1.5c-0.1,0.7,0.3,1.2,1,1.3C23,77.4,23.7,74.7,22,74.7
			c-0.3,0-0.9,0.8-0.5,0.8c0.4,0,0.6,0.3,0.6,0.6c0,0.1,0,0.3,0,0.4c0,0.1,0,0,0,0c-0.1,0-0.1,0-0.2,0c-0.3,0-0.6-0.3-0.6-0.6
			c0-0.1,0-0.3,0.1-0.4c0-0.1,0.1,0,0,0c0,0,0.1,0,0.2,0C21.9,75.5,22.5,74.6,22,74.7z"/>
	</g>
	<path id="XMLID_89_" class="st1" d="M10.1,78.8c0.5-0.5,0.9-1.2,1-1.9c0-0.2,0-0.5-0.2-0.7c-0.3-0.3-0.7,0-1,0.1
		c-0.3,0.1-0.6,0.5-0.7,0.9c0,0.4,0.4,0.3,0.6,0.2c0,0,0.1,0,0,0c0,0,0,0,0,0c0.1,0.1,0,0.2,0,0.3c0,0.2-0.1,0.3-0.2,0.4
		c0,0,0,0.1-0.1,0.1c0-0.1,0-0.1,0,0c0,0-0.1,0.1-0.1,0.1c0.1-0.2,0,0,0,0c-0.2,0.1-0.5,0.6-0.3,0.8C9.5,79.3,9.9,79,10.1,78.8
		L10.1,78.8z"/>
</g>
</svg>
