<?xml version="1.0" encoding="utf-8"?>
<!-- Generator: Adobe Illustrator 19.0.0, SVG Export Plug-In . SVG Version: 6.00 Build 0)  -->
<svg version="1.1" id="Layer_1" xmlns="http://www.w3.org/2000/svg" xmlns:xlink="http://www.w3.org/1999/xlink" x="0px" y="0px"
	 viewBox="0 0 86 86" style="enable-background:new 0 0 86 86;" xml:space="preserve">
<style type="text/css">
	.st0{fill:#F5A3BD;}
	.st1{fill:#FFFFFF;}
	.st2{fill:#62BA47;}
</style>
<path id="XMLID_144_" class="st0" d="M82.8,39c0-21.6-17.5-39-39-39c-21.6,0-39,17.5-39,39c0,21.6,17.5,39,39,39
	C65.3,78.1,82.8,60.6,82.8,39z"/>
<g id="XMLID_264_">
	<path id="XMLID_269_" class="st1" d="M74.8,38.1c-0.6-0.6-1.4-0.5-2.1-0.4c0.1-0.6,0.1-1.1,0.1-1.7c0-0.5-0.8-0.3-1-0.3
		c-0.4,0.1-0.9,0.4-0.9,0.9c-0.5-0.1-1.1,0.1-1.5,0.3c-1.3,0.7-1.9,2.1-2.2,3.4c-0.1,0.3-0.1,0.6-0.2,0.9c0,0,0,0,0,0.1
		c-0.1,0.5-0.3,1.4-0.9,1.7c-0.5,0.2-0.6-1.6-0.7-1.8c-0.1-1.9,0.4-3.8,0.7-5.6c0.1-0.4-0.4-0.5-0.8-0.4c-0.4,0.1-1,0.4-1.1,0.9
		c-0.3,1.4-0.5,2.8-0.9,4.2c-0.2,0.6-0.4,1.2-0.7,1.8c0,0,0,0.1,0,0.1c-0.1,0-0.3-0.1-0.3-0.2c-0.9-0.6-0.6-2.4-0.5-3.2
		c0.2-1.2,0.5-2.4,1-3.5c0.2-0.4,0-0.7-0.5-0.6c-0.5,0-1.1,0.4-1.2,0.8c-0.4,1-0.7,2-0.9,3c-0.2,0.9-0.7,1.9-1.3,2.6
		c-0.1,0.1-0.1,0.1-0.2,0.2c0,0,0-0.1,0-0.1c-0.2-0.8-0.1-1.7-0.1-2.4c0.1-1.2,0.2-2.3,0.4-3.5c0,0,0-0.1,0-0.1
		c0.1-1-0.7-1.6-1.9-1.5c-1.1,0.1-2,0.7-2.5,1.5c-0.7,0.9-1,2.3-1.1,2.5c-0.3,1-0.7,2-1.2,2.8c-0.1-0.1-0.2-0.3-0.2-0.4
		c-0.2-0.5-0.3-1.1-0.4-1.7c-0.2-1.7-0.2-3.4-0.1-5.1c0,0,0,0,0,0c0-0.1,0-0.2-0.1-0.2c0-0.1-0.1-0.1-0.2-0.1
		c-0.4-0.1-1,0.3-1.3,0.5c-0.9,1.1-1,2.7-1.3,4c-0.2,0.8-0.3,1.6-0.6,2.3c0,0.1-0.1,0.2-0.1,0.3c-0.2-0.1-0.3-0.4-0.4-0.6
		c0,0,0-0.1,0-0.1c0-0.3-0.2-0.5-0.6-0.4c-0.5,0.1-1,0.5-1.1,1c0,0,0,0,0,0c0,0,0,0,0,0c-0.3-0.1-0.5-0.4-0.6-0.6
		c-0.2-0.5-0.2-1.1-0.3-1.7c0-0.4,0-0.8,0-1.2c0.1-0.9,0.1-1.9,0.2-2.8c0-0.3,0-0.6,0.1-0.9c0-0.5-0.5-0.4-0.8-0.2
		c-0.4,0.2-0.9,0.6-1,1.1c0,0.5-0.1,1-0.1,1.5c0,0.5,0,1-0.1,1.5c0,0.4-0.1,0.9-0.1,1.3c-0.1,0.6-0.2,1.3-0.4,1.9c0,0,0,0.1,0,0.1
		C43,40,42.8,40,42.7,40c-1-0.4-1-2.2-1-3c0-1.2,0-2.5,0.4-3.6c0.1-0.2,0.1-0.4,0-0.5c-0.2-0.2-0.6-0.1-0.9,0.1
		c-0.2,0.1-0.8,0.7-1.2,0.9c-0.8,0.4-1.5,0.2-2.1-0.3c-0.2-0.3-0.4-0.5-0.8-0.6c-0.7-0.3-1.5,0.1-2.1,0.5c-0.1-0.5-0.2-1.1-0.3-1.6
		c-0.1-0.4-0.9,0-1.1,0.2c-0.4,0.3-0.7,0.8-0.6,1.2c-0.5,0.1-1,0.5-1.3,0.9c-1.1,1.2-1.3,2.8-1.2,4.2c0,0.3,0,0.6,0.1,0.9
		c0,0.3,0,1.6-0.4,2.1c-0.5,0.5-1.1-1.2-1.2-1.4c-0.6-1.7-0.6-3.7-0.8-5.5c0-0.5-0.6-0.3-0.9-0.1c-0.4,0.3-0.8,0.8-0.8,1.3
		c0.1,1.5,0.3,2.9,0.3,4.3c0,0.6,0,1.3-0.2,1.9c0,0,0,0.1,0,0.1c-0.1,0-0.3,0-0.4,0c-1-0.2-1.2-2-1.3-2.8c-0.2-1.2-0.2-2.5,0-3.7
		c0.1-0.4-0.2-0.6-0.6-0.4c-0.4,0.2-0.9,0.8-1,1.3c-0.2,1.6-0.2,3.2,0.1,4.7c0.2,1.1,0.7,2.9,2.2,2.7c1-0.1,1.7-0.8,2.1-1.7
		c0.1,0.2,0.2,0.4,0.4,0.5c0.9,1.1,2.2-0.1,2.9-0.9c0.1-0.1,0.2-0.2,0.3-0.3c0.2,0.2,0.3,0.5,0.5,0.7c0.4,0.4,1,0.4,1.6,0.3
		c0.2-0.1,0.4-0.2,0.6-0.3c0.1,1.7,0.2,3.5,0.1,5.3c0,0.5,0.5,0.3,0.8,0.1c0.4-0.3,0.8-0.7,0.8-1.2c0.1-1.4,0-2.8,0-4.2
		c0.6-0.1,1.3-0.4,1.8-0.9c1.2-1.2,1.3-3,1.2-4.5c0-0.3-0.1-0.6-0.1-0.9c0.5-0.1,1.1-0.3,1.6-0.6C40,36.2,40,37.4,40,38.6
		c0.1,1.1,0.4,3,1.9,3.1c0.9,0.1,1.6-0.3,2.1-0.9c0.3,0.7,1.1,1.1,1.9,0.9c0.3-0.1,0.6-0.2,0.8-0.4c0.6,0.6,1.5,0.6,2.3-0.1
		c0.6-0.5,0.9-1.1,1.2-1.8c0,0.2,0.1,0.4,0.1,0.6c0.1,0.6,0.3,1.2,0.7,1.7c0.4,0.5,1.2,0.3,1.7,0c0.4-0.2,0.9-0.6,1.2-0.9
		c0.1,0.5,0.3,1.1,0.8,1.4c0.8,0.5,1.8,0.1,2.4-0.4c0.1,0.4,0.2,0.8,0.6,1c0.9,0.3,2-0.5,2.5-1c0,0,0.1-0.1,0.1-0.1
		c0.1,0.8,0.5,1.6,1.3,1.9c1,0.3,1.8,0,2.4-0.6c0,0.2,0.1,0.4,0.2,0.6c0.5,1.4,2,0.9,2.8,0.4c0.1-0.1,0.2-0.1,0.3-0.2
		c0.1,0.3,0.2,0.6,0.3,0.9c0.3,0.6,0.8,0.9,1.4,0.9c0.2,0,0.5,0,0.7,0c-0.4,1.7-0.8,3.4-1.3,5C68.2,51,68.7,51.1,69,51
		c0.4-0.1,0.9-0.4,1-0.8c0.4-1.3,0.8-2.7,1.1-4c0.6,0.2,1.3,0.2,1.9-0.1c1.4-0.7,2-2.3,2.3-3.8C75.5,41.1,75.8,39.2,74.8,38.1z
		 M33.9,40.7c-0.1,0-0.2,0-0.3,0c-0.3-0.1-0.6-0.4-0.7-0.7c-0.5-0.8-0.7-1.8-0.7-2.7c-0.1-0.8,0-1.6,0.3-2.3c0.1,0,0.1,0.1,0.2,0.1
		c0.6,0.4,1,1.2,1.1,1.9l0,0c0.1,1.2,0.3,2.5,0.3,3.7C34,40.6,34,40.7,33.9,40.7z M36.9,40.3c0,0,0,0.1-0.1,0.1c0,0,0,0,0,0
		c-0.7,0.1-1.1-0.4-1.1-0.9c0,0,0,0,0,0c-0.1-1.3-0.2-2.6-0.3-3.9c0-0.3,0-0.6,0.1-1c0,0,0,0,0,0c0,0,0,0,0,0c0.2,0,0.4,0.1,0.6,0.2
		c0,0,0,0,0,0c0,0.1,0.1,0.1,0.2,0.2c0.5,0.6,0.7,1.6,0.8,2.4C37.2,38.3,37.2,39.4,36.9,40.3z M57.3,35.8c-0.3,1.6-0.3,3.2-0.9,4.7
		c0,0.1-0.1,0.2-0.2,0.4c-0.1,0-0.2,0-0.3-0.1c-0.3-0.2-0.4-0.7-0.5-1.1c-0.3-1.2-0.1-2.5,0.3-3.6c0.1-0.3,0.4-0.9,0.6-1.1
		c0,0,0.1,0,0.1,0c0.1,0,0.2,0,0.3,0C57.2,35.1,57.4,35.5,57.3,35.8z M70.6,40.4L70.6,40.4c-0.2,1.2-0.4,2.4-0.7,3.6
		c0,0,0,0.1,0,0.1c0,0,0,0-0.1,0c-0.1,0-0.2-0.1-0.3-0.2c-0.3-0.3-0.4-0.6-0.5-1c-0.3-1-0.2-2,0-2.9c0.1-0.7,0.4-1.5,0.9-2.1
		c0,0,0.1,0.1,0.1,0.2C70.6,38.8,70.6,39.7,70.6,40.4z M73.5,42.3c-0.1,0.9-0.4,2-0.9,2.6c0,0-0.1,0.1-0.1,0.1c0,0,0,0,0,0
		c-0.6-0.2-0.9-0.8-0.8-1.3c0,0,0,0,0,0c0.3-1.3,0.5-2.5,0.7-3.8c0.1-0.3,0.2-0.6,0.3-0.9c0,0,0,0,0,0c0,0,0,0,0,0
		c0.2,0,0.4,0.3,0.5,0.6C73.7,40.4,73.7,41.5,73.5,42.3z"/>
	<path id="XMLID_137_" class="st1" d="M67.1,33.4c0.2-0.2,0.9-0.6,0.6-1c-0.3-0.4-1-0.1-1.3,0c-0.6,0.4-1.1,0.5-1.9,0.1
		c-0.3-0.2-0.5-0.4-0.7-0.7c-0.4-0.6-2.2,0.4-1.8,1.1C63.3,34.8,65.7,34.3,67.1,33.4z"/>
	<path id="XMLID_265_" class="st1" d="M17.5,36.4c-0.2-0.7-0.4-1.5-0.7-2.2c1.5-0.4,3-0.9,4.4-1.6c0.5-0.2,0.9-0.8,1-1.3
		c0.1-0.4-0.2-0.5-0.6-0.4c-2.6,1.1-5.5,1.7-8.1,2.7c-1,0.4-2.1,1.2-2.6,2.2c-0.7,1.3-0.5,2.3,0.2,3.3c0.4,0.6,1.7-1.2,1.4-1.8
		c-0.2-0.4-0.4-0.7-0.5-1.1c0,0,0-0.1,0-0.2c0.6-0.5,1.6-0.8,2.3-1.1c0.2-0.1,0.4-0.1,0.7-0.2c0.3,0.8,0.6,1.6,0.8,2.4
		c-0.9,0.6-1.7,1.5-2.1,2.4c-1,2-1.2,7.2,2.4,6.7c2.4-0.4,2.5-3.2,2.3-5.1c-0.1-1-0.3-2.1-0.5-3.1c0.2,0,0.4,0,0.6,0
		c1.4,0.1,2,1.4,2.2,2.5c0.1,1,0.1,2.3-0.7,3.1c-0.3,0.3-0.6,0.9-0.4,1.3c0.2,0.4,0.8-0.2,0.9-0.3c1.8-2,2.6-5.4,0.8-7.6
		C20.5,36.2,18.9,36.1,17.5,36.4z M16.7,44.4c-0.5,0-1.1-0.1-1.5-0.5c-0.9-0.9-1.2-3-0.4-4.3c0.3-0.5,0.8-0.9,1.3-1.1
		c0.3,1.3,0.5,2.5,0.7,3.8c0.1,0.6,0.1,1.2,0.2,1.8c0,0.1,0,0.2,0,0.3C16.9,44.4,16.8,44.4,16.7,44.4z"/>
</g>
<g id="XMLID_251_">
	<path id="XMLID_85_" class="st1" d="M53.3,56.4c-0.4,0.6-1.1-1-1.2-1.1c-0.1-0.2-0.2-0.4-0.2-0.6c-0.1-0.5-0.3-0.9-0.4-1.3
		c0-0.1-0.1-0.2-0.1-0.3c-0.1-0.5-0.7,0.4-0.6,0.7c0.2,0.6,0.3,1.3,0.5,1.9c0.1,0.3,0.1,0.7,0.2,1c0,0.4,0.1,0.5-0.3,0.4
		c-1-0.3-1-2.5-1.1-3.3c0-0.6-0.6,0.1-0.6,0.5c0,0.5,0,1.8,0.3,2.8c-0.2,0.4-0.6,0.8-0.8,0.5c-0.2-0.3-0.3-0.7-0.4-1.1
		c-0.2-0.6-0.7-0.6-1.2-0.4c0,0,0,0,0,0c0-0.2,0-0.6,0.1-0.9c0.1-0.3,0.3-0.5,0.6-0.3c0.4,0.2,0.9-0.7,0.6-0.9
		c-0.8-0.4-1.4,0.1-1.7,0.9c-0.1-0.5-0.2-1-0.4-1.5c-0.1-0.4-0.8,0.4-0.7,0.7c0.3,1.1,0.4,2.2,0.4,3.3c0,0,0,0,0,0
		c-0.3,0.3-1,1.1-1.3,0.4c-0.2-0.5-0.2-1-0.2-1.5c0-0.4,0-0.8,0-1.1c0-0.1,0-0.2,0-0.3c0,0,0-0.1,0-0.1c-0.1-1.2-1.3-0.5-1.8,0.1
		c-0.6,0.8-0.8,1.9-0.8,2.8c-0.6,0.3-0.8,0.2-0.9-0.6c-0.2-1,0-2.1,0.2-3.1c0.1-0.5-0.8,0.1-0.9,0.2c-0.3,0.5-0.5,1-0.7,1.5
		c-0.1,0.3-0.2,0.6-0.3,0.9c-0.1,0.2-0.1,0.3-0.2,0.5c-0.2,0.5-0.4,0-0.3-0.2c0-0.2-0.1-0.2-0.2-0.2c-0.1,0-0.1,0-0.2,0
		c-0.3,0-0.7,0.1-1,0.2c-0.1-0.2-0.2-0.5-0.3-0.6c0.7-0.5,1-1.5,1.1-2.3c0.1-0.5,0-1.1-0.5-1.2c-0.8-0.2-1.6,0.5-1.9,1.3
		c-0.2,0.5,0.9,0.2,1-0.1c0.1-0.2,0.2-0.8,0.4-0.3c0.1,0.2,0.1,0.6,0,0.9c-0.1,0.4-0.4,1.5-0.8,1.6c-0.1,0-0.2,0-0.4,0
		c-0.2,0-0.5,0.2-0.6,0.3c-0.1,0.1-0.1,0.2,0.1,0.3c0.2,0,0.4,0.1,0.5,0.1c0.2,0.1,0.3,0.3,0.4,0.5c-1.1,0.3-2.2,0.9-2.8,1.7
		c-0.7,0.9,0.3,2,1.7,1.8c1.4-0.3,2-1.6,2.2-2.7c0-0.1,0-0.3,0.1-0.4c0.1,0,0.3-0.1,0.4-0.1c0.1,0.7,1.1,0.8,1.7,0.4
		c0.2-0.1,0.3-0.3,0.4-0.5c0,0.3,0.1,0.6,0.2,0.9c0.4,0.7,1.4,0.3,1.9,0c0.3,0.6,1,0.8,1.7,0.2c0,0,0.1-0.1,0.1-0.1
		c0,0.2,0.1,0.3,0.2,0.4c0.4,0.5,1.4-0.3,2-0.8c0,0.2,0,0.4,0,0.6c0,0.5,0.9-0.2,0.9-0.6c0-0.4,0-0.9,0-1.3c0.6,0.1,0.5,1.5,1.1,1.7
		c0.6,0.2,1.2-0.4,1.6-0.9c0.3,0.4,0.6,0.6,1.1,0.4c0.5-0.2,0.8-0.5,0.9-0.9c0.6,0.7,1.4,0,1.8-0.7C54.3,55.9,53.7,55.8,53.3,56.4z
		 M36.6,58.4c-0.1,0.7-0.5,1.5-1.1,2c-0.2,0.2-0.4,0-0.6-0.2c-0.2-0.3,0-0.7,0.1-0.9c0.3-0.6,1-0.9,1.6-1.1
		C36.6,58.2,36.6,58.3,36.6,58.4z M43.6,58.3c-0.2,0-0.3-0.3-0.3-0.4c-0.2-0.5-0.1-1-0.1-1.5c0-0.3,0.1-0.5,0.2-0.8
		c0-0.1,0.1-0.3,0.2-0.4c0.2-0.3,0.4,0.2,0.4,0.3c-0.1,0.7-0.1,1.4-0.2,2.1C43.9,57.8,43.8,58.3,43.6,58.3z"/>
</g>
<g id="XMLID_91_">
	<g id="XMLID_152_">
		<path id="XMLID_165_" class="st1" d="M40.9,64.9c0.2,1.5-0.1,3.1-0.3,4.7c-0.1,0.5,0.9-0.1,1-0.4c0.1-0.7,0.3-1.4,0.5-2.1
			c0.1-0.4,0.3-1.5,0.9-1.1c0.3-0.2,0.5-0.5,0.8-0.7c-1.5-1-2.4,1.5-2.7,2.5c-0.1,0.3,0.3,0.2,0.4,0.2c1-0.3,0.6,1.2,0.8,1.6
			c0.4,0.6,1.3,0.1,1.6-0.3c0.5-0.5,0.1-0.8-0.4-0.4c-0.4,0.3-0.4-0.5-0.4-0.6c0-0.3-0.1-0.6-0.2-0.8c-0.3-0.5-0.9-0.4-1.3-0.2
			c0.1,0,0.3,0.1,0.4,0.2c0.1-0.4,0.3-1.8,0.9-1.3c0.3,0.2,1.1-0.5,0.8-0.7c-2-1.5-3,3.3-3.1,4.3c0.3-0.1,0.7-0.3,1-0.4
			c0.2-1.6,0.4-3.2,0.2-4.8C41.7,64,40.9,64.6,40.9,64.9L40.9,64.9z"/>
		<path id="XMLID_164_" class="st1" d="M58.6,62.1c-0.5-1.2-1.7,0.2-1.9,1c-0.3,1.1-0.1,2.3,0.4,3.1c0.4,0.8,1.4,0.7,2-0.3
			C59.7,64.6,58.9,63.2,58.6,62.1c-0.2,0.3-0.4,0.6-0.7,0.8c0.2,0.7,1.2,4.6,2.6,2.5c0.3-0.5,0.1-1.1-0.4-0.4
			c-0.1,0.2-0.7-0.8-0.7-0.8C59.1,63.5,58.8,62.8,58.6,62.1c-0.2-0.5-0.8,0.5-0.7,0.8c0.2,0.7,0.4,1.3,0.5,2c0,0.2,0.1,0.7,0,0.8
			c-0.2,0.1-0.4-0.1-0.5-0.2c-0.4-0.3-0.5-0.9-0.6-1.4c-0.1-0.3-0.1-0.6-0.1-0.9c0-0.1,0-0.3,0.1-0.5c0.1-0.3,0.6,0,0.6,0.1
			C58.1,63.4,58.7,62.4,58.6,62.1L58.6,62.1z"/>
		<path id="XMLID_163_" class="st1" d="M33,67.2c-0.2,1,0.9,1.6,1.8,1.2c0.9-0.4,1.2-1.3,1.4-2.1c0.1-0.7,0.2-1.7-0.4-2.3
			c-0.3-0.3-0.8-0.2-1.1-0.1c-0.6,0.2-1,0.7-1.2,1.3c-0.1,0.5,1,0.2,1.1-0.1c0.2-0.6,0.4-0.6,0.6,0c0.1,0.4,0.1,0.8,0,1.1
			c0,0.4-0.2,0.9-0.4,1.2c-0.1,0.1-0.2,0.3-0.3,0.4c0.1-0.1,0-0.1-0.1-0.1c-0.3-0.1-0.4-0.4-0.3-0.7C34.2,66.6,33.1,66.9,33,67.2
			L33,67.2z"/>
		<path id="XMLID_162_" class="st1" d="M33.8,63.4c-0.3,2.5-1,5-2,7.3c-0.2,0.4,1.1,0.2,1.2-0.1c1-2.4,1.6-4.9,1.9-7.5
			C34.9,62.7,33.9,63,33.8,63.4L33.8,63.4z"/>
		<path id="XMLID_161_" class="st1" d="M44.6,65.7c0.1,1.3,0,2.7,0,4c0,0.5,0.9-0.2,0.9-0.5c0-0.9,0.1-1.9,0.3-2.8
			c0-0.1,0.1-0.3,0.1-0.4c0-0.1,0-0.1,0.1-0.2c0.1-0.2,0.1-0.2-0.2,0c0.1,0.1,0.2,0.3,0.2,0.5c0.3,1.1,0.2,2.3,0.2,3.3
			c0.3-0.2,0.6-0.3,0.9-0.5c-0.1-1,0-2,0.3-3c0-0.2,0.1-0.3,0.2-0.5c-0.2,0.4-0.2,0.2-0.1,0.5c0.2,0.5,0.2,1,0.3,1.4
			c0.1,0.6-0.1,1.5,0.4,1.9c0.4,0.4,1.1-0.3,1.4-0.6c0.5-0.5,0-0.8-0.5-0.3c-0.2,0.2-0.3-0.4-0.3-0.6c-0.1-0.5-0.1-1.1-0.2-1.7
			c-0.1-0.4-0.2-1.6-0.9-1.5c-0.6,0.1-0.9,1-1.1,1.4c-0.4,1.1-0.4,2.3-0.4,3.4c0,0.5,0.9-0.2,0.9-0.5c0-0.8,0-1.7-0.1-2.5
			c0-0.4-0.1-1.5-0.6-1.6c-0.6-0.1-1,0.6-1.2,1c-0.5,1.1-0.6,2.4-0.6,3.7c0.3-0.2,0.6-0.3,0.9-0.5c0-1.3,0-2.7-0.1-4
			C45.4,64.7,44.6,65.3,44.6,65.7L44.6,65.7z"/>
		<path id="XMLID_160_" class="st1" d="M51,64.2c-1.1,0.3-1.3,1.6-1.3,2.5c0,0.7,0.2,2.6,1.4,2.4c1.3-0.2,1.5-1.8,1.5-2.6
			C52.5,65.8,52.1,64.1,51,64.2c-0.3,0-0.8,1-0.4,1c0.6-0.1,0.9,0.7,1,1.1c0.1,0.3,0.2,0.7,0.2,1.1c0,0.1,0,0.3,0,0.5
			c0,0.1-0.2,0.4,0,0.3c-0.6,0.4-1-0.8-1-1.1c-0.1-0.3-0.1-0.7-0.1-1.1c0-0.2,0-0.4,0.1-0.6c0-0.2,0.1-0.2,0-0.2
			C51,65.1,51.5,64.1,51,64.2z"/>
		<path id="XMLID_159_" class="st1" d="M54.1,67.5c1.7-0.8,1.5-2.8,1-3.9c-0.2-0.4-0.6-0.9-1.2-0.6c-0.9,0.4-1.1,1.6-1,2.3
			c0.1,0.5,0.9-0.4,0.8-0.8c-0.1-0.3-0.2-0.8,0.2-0.6c0.2,0.1,0.4,0.4,0.5,0.7c0.2,0.4,0.5,1.7,0,1.9C54.1,66.7,53.6,67.7,54.1,67.5
			L54.1,67.5z"/>
		<path id="XMLID_158_" class="st1" d="M55.7,66.9c-1.1,1.2-2.2,3-1.7,4.4c0.5,1.2,2.1-0.3,2.5-1c0.6-1.3,0.1-5.6-2.2-3.6
			c-0.4,0.3-0.6,1.3,0.1,0.7c1.2-1,1.6,1.7,1.5,2.2c0,0.4-0.1,1.2-0.8,1c-1-0.4,0.2-2.4,0.7-3C56.1,67.2,56.3,66.2,55.7,66.9
			L55.7,66.9z"/>
		<path id="XMLID_157_" class="st1" d="M31.1,63.7c0.2-0.9-0.2-2.1-1.3-1.8c-0.8,0.2-1.3,0.9-1.6,1.6c-0.3,0.6-0.6,1.6-0.2,2.4
			c0.6,1,2,0.5,2.4-0.1c0.4-0.5-0.8-0.4-1-0.2c-0.3,0.3-0.5-0.5-0.5-0.7c0-0.5,0.1-0.9,0.2-1.3c0.1-0.4,0.3-0.7,0.6-1
			c0-0.1,0.1-0.1,0.2-0.2c0.1-0.1,0.1,0,0,0.1c0.2,0.4,0.1,0.9,0.1,1.2C30,64.2,31.1,64.1,31.1,63.7L31.1,63.7z"/>
		<path id="XMLID_156_" class="st1" d="M29.4,65.7c-0.3,1,0.7,1.6,1.7,1.4c1-0.3,1.4-1.1,1.6-2c0.2-0.7,0.3-1.7-0.2-2.3
			c-0.3-0.3-0.8-0.2-1.1-0.2c-0.6,0.1-1,0.6-1.3,1.2c-0.2,0.5,0.9,0.3,1.1,0c0.2-0.6,0.5-0.5,0.6,0.1c0.1,0.4,0,0.8-0.1,1.1
			c-0.1,0.4-0.2,0.9-0.5,1.2c-0.1,0.1-0.2,0.3-0.3,0.3c0.1,0,0-0.1-0.1-0.1c-0.3-0.2-0.3-0.5-0.3-0.7C30.6,65.2,29.5,65.4,29.4,65.7
			L29.4,65.7z"/>
		<path id="XMLID_155_" class="st1" d="M30.5,61.9c-0.5,2.5-1.5,4.9-2.6,7.1c-0.2,0.4,1,0.3,1.2,0c1.2-2.3,2-4.8,2.5-7.3
			C31.7,61.4,30.6,61.6,30.5,61.9L30.5,61.9z"/>
		<path id="XMLID_154_" class="st1" d="M37.2,65.1c-0.1,0.8-1.6,4.2,0.2,4.3c2.2,0.2,2.4-3.1,2.7-4.3c0.1-0.5-0.9,0-0.9,0.4
			c-0.2,0.8-0.4,1.7-0.7,2.5c-0.1,0.3-0.3,1-0.7,0.6c-0.4-0.4-0.1-1.4,0-1.9c0.1-0.6,0.3-1.3,0.4-1.9C38.3,64.4,37.3,64.8,37.2,65.1
			L37.2,65.1z"/>
		<path id="XMLID_153_" class="st1" d="M39.2,65.5c-0.2,1.7-0.4,3.4-0.6,5.1c0,0.4-0.2,2.1-0.9,1.7c-1.3-0.5,1.4-2.7,1.7-2.9
			c0.6-0.5-0.2-0.6-0.6-0.2c-1.1,0.8-2.5,1.8-2.4,3.2c0,0.6,0.9,0.9,1.5,0.7c1.2-0.4,1.6-1.3,1.8-2.3c0.4-1.8,0.3-3.8,0.5-5.7
			C40.2,64.6,39.2,65.2,39.2,65.5L39.2,65.5z"/>
	</g>
</g>
<circle id="XMLID_116_" class="st2" cx="12.5" cy="73.7" r="12.3"/>
<g id="XMLID_7_">
	<path id="XMLID_115_" class="st1" d="M4,71.8c0.5-1.2,1.3-0.4,1.6,0.2c0.4,0.8-0.1,1.7-0.6,2.4c-0.4,0.6-1,1.1-1.6,1.4
		c-0.3,0.2-0.6,0.3-0.8,0.7c-0.1,0.1-0.2,0.4,0,0.5c0.4,0.4,1.3,0.3,1.8,0.3c0.9,0.1,1.9,0,2.7-0.4c0.5-0.2,0.9-1.4,0.1-1
		c-0.6,0.3-1.5,0.3-2.2,0.2c-0.3,0-1.2,0-1.4-0.2c0,0.2,0,0.3,0,0.5c-0.4,0.7-0.1,0.3,0.2,0.1c0.3-0.2,0.5-0.4,0.8-0.6
		c0.5-0.4,0.9-0.8,1.2-1.3c0.8-0.9,1.2-2,1-3.2c-0.5-2.7-3.4-0.7-3.9,0.8C2.6,72.9,3.8,72.3,4,71.8L4,71.8z"/>
	<path id="XMLID_114_" class="st1" d="M10.8,76.2c0.9,2.9,5.4,0.9,4.7-1.7c-0.4-1.3-1.9-1.1-2.9-1.5c-0.6-0.2-0.6-0.7-0.6-1.2
		c0.2-0.6,0.2-0.7-0.2-0.3c0.2-0.1,0.3-0.1,0.5-0.1c0.9-0.2,1.9-0.1,2.7,0.3c0.4,0.2,1.3-0.8,0.8-1.1c-1.1-0.5-2.4-0.5-3.5-0.2
		c-1.1,0.3-1.4,1.3-1.4,2.3C10.8,74,12,74.2,13,74.3c0.8,0.1,1.4,0.3,1.5,1.2c0.1,1.4-1.3,1.2-2,0.8c-0.3-0.2-0.5-0.6-0.6-0.9
		C11.7,74.9,10.7,75.7,10.8,76.2L10.8,76.2z"/>
	<g id="XMLID_74_">
		<path id="XMLID_113_" class="st1" d="M21.1,70.8c-1.2,2.1-2.8,4-4.3,5.9c-0.6,0.8,0.4,0.8,0.8,0.2c1.5-2,3.2-4.1,4.5-6.3
			C22.7,69.9,21.4,70.3,21.1,70.8L21.1,70.8z"/>
		<path id="XMLID_112_" class="st1" d="M18.8,70.3c-0.8,0-1.3,0.7-1.5,1.5c-0.1,0.7,0.3,1.2,1,1.3C19.8,73,20.5,70.3,18.8,70.3
			c-0.3,0-0.9,0.8-0.5,0.8c0.4,0,0.6,0.3,0.6,0.7c0,0.1,0,0.3,0,0.4c-0.1,0.1,0,0,0,0c-0.1,0-0.1,0-0.2,0c-0.3,0-0.6-0.3-0.6-0.6
			c0-0.1,0-0.3,0.1-0.4c0-0.1,0.1,0,0,0c0.1,0,0.1,0,0.2,0C18.7,71.1,19.3,70.2,18.8,70.3z"/>
		<path id="XMLID_111_" class="st1" d="M21,74.7c-0.8,0-1.3,0.7-1.5,1.5c-0.1,0.7,0.3,1.2,1,1.3C21.9,77.5,22.7,74.8,21,74.7
			c-0.3,0-0.9,0.8-0.5,0.8c0.4,0,0.6,0.3,0.6,0.7c0,0.1,0,0.3,0,0.4c0,0.1,0,0,0,0c-0.1,0-0.1,0-0.2,0c-0.3,0-0.6-0.3-0.6-0.6
			c0-0.1,0-0.3,0.1-0.4c0-0.1,0.1,0,0,0c0,0,0.1,0,0.2,0C20.9,75.5,21.5,74.7,21,74.7z"/>
	</g>
	<path id="XMLID_110_" class="st1" d="M9,78.9c0.5-0.5,0.9-1.2,1-1.9c0-0.2,0-0.5-0.2-0.7c-0.3-0.3-0.7,0-1,0.1
		c-0.3,0.1-0.6,0.5-0.7,0.9c0,0.4,0.4,0.3,0.6,0.2c0,0,0.1,0,0,0c0,0,0,0,0,0c0.1,0.1,0,0.2,0,0.3c0,0.2-0.1,0.3-0.2,0.4
		c0,0,0,0.1-0.1,0.1c0-0.1,0-0.1,0,0c0,0-0.1,0.1-0.1,0.1c0.1-0.2,0,0,0,0c-0.2,0.1-0.5,0.6-0.3,0.8C8.5,79.4,8.9,79,9,78.9L9,78.9z
		"/>
</g>
</svg>
