<?xml version="1.0" encoding="utf-8"?>
<!-- Generator: Adobe Illustrator 19.0.0, SVG Export Plug-In . SVG Version: 6.00 Build 0)  -->
<svg version="1.1" id="Layer_1" xmlns="http://www.w3.org/2000/svg" xmlns:xlink="http://www.w3.org/1999/xlink" x="0px" y="0px"
	 viewBox="-580 396.7 86 86" style="enable-background:new -580 396.7 86 86;" xml:space="preserve">
<style type="text/css">
	.st0{fill:#EB008B;}
	.st1{fill:#62BA47;}
	.st2{fill:#FFFFFF;}
</style>
<circle class="st0" cx="-534.8" cy="435.7" r="39"/>
<circle class="st1" cx="-565.9" cy="470.3" r="12.3"/>
<g>
	<path class="st2" d="M-574.6,468.5c0.5-1.2,1.3-0.4,1.6,0.2c0.4,0.8-0.1,1.7-0.6,2.4c-0.4,0.6-1,1.1-1.6,1.4
		c-0.3,0.2-0.6,0.3-0.8,0.7c-0.1,0.1-0.2,0.4,0,0.5c0.4,0.4,1.3,0.3,1.8,0.3c0.9,0.1,1.9,0,2.7-0.4c0.5-0.2,0.9-1.4,0.1-1
		c-0.6,0.3-1.5,0.3-2.2,0.2c-0.3,0-1.2,0-1.4-0.2c0,0.2,0,0.3,0,0.5c-0.4,0.7-0.1,0.3,0.2,0.1c0.3-0.2,0.5-0.4,0.8-0.6
		c0.5-0.4,0.8-0.8,1.2-1.3c0.8-0.9,1.2-2,1-3.2c-0.5-2.7-3.4-0.7-3.9,0.8C-576,469.6-574.8,468.9-574.6,468.5L-574.6,468.5z"/>
	<path class="st2" d="M-567.8,472.8c0.9,2.9,5.4,0.9,4.7-1.7c-0.4-1.3-1.9-1.1-2.9-1.4c-0.6-0.2-0.6-0.7-0.6-1.2
		c0.2-0.6,0.2-0.7-0.2-0.3c0.2-0.1,0.3-0.1,0.5-0.1c0.9-0.2,1.9-0.1,2.7,0.3c0.4,0.2,1.3-0.8,0.8-1.1c-1.1-0.5-2.4-0.4-3.5-0.2
		c-1.1,0.3-1.3,1.3-1.4,2.3c-0.1,1.3,1.1,1.4,2.1,1.6c0.8,0.1,1.4,0.3,1.5,1.2c0.1,1.4-1.3,1.2-2,0.8c-0.3-0.2-0.5-0.6-0.6-0.9
		C-566.9,471.5-568,472.4-567.8,472.8L-567.8,472.8z"/>
	<g>
		<path class="st2" d="M-557.5,467.4c-1.2,2.1-2.8,4-4.3,5.9c-0.6,0.8,0.4,0.8,0.8,0.2c1.5-2,3.2-4.1,4.5-6.3
			C-556,466.5-557.3,467-557.5,467.4L-557.5,467.4z"/>
		<path class="st2" d="M-559.8,466.9c-0.8,0-1.3,0.7-1.5,1.5c-0.1,0.7,0.3,1.2,1,1.3C-558.9,469.6-558.1,466.9-559.8,466.9
			c-0.3,0-0.9,0.8-0.4,0.8c0.4,0,0.5,0.3,0.6,0.6c0,0.1,0,0.3,0,0.4c-0.1,0.1,0,0,0,0c-0.1,0-0.1,0-0.2,0c-0.3,0-0.6-0.3-0.6-0.6
			c0-0.1,0-0.3,0.1-0.4c0-0.1,0.1,0,0,0c0,0,0.1,0,0.2,0C-560,467.7-559.4,466.9-559.8,466.9z"/>
		<path class="st2" d="M-557.7,471.3c-0.8,0-1.3,0.7-1.5,1.5c-0.1,0.7,0.3,1.2,1,1.3C-556.7,474.1-556,471.4-557.7,471.3
			c-0.3,0-0.9,0.8-0.4,0.8c0.4,0,0.5,0.3,0.6,0.6c0,0.1,0,0.3,0,0.4c0,0.1,0,0,0,0c-0.1,0-0.1,0-0.2,0c-0.3,0-0.6-0.3-0.6-0.6
			c0-0.1,0-0.3,0.1-0.4c0-0.1,0.1,0,0,0c0,0,0.1,0,0.2,0C-557.8,472.1-557.2,471.3-557.7,471.3z"/>
	</g>
	<path class="st2" d="M-569.6,475.5c0.5-0.5,0.9-1.2,1-1.9c0-0.2,0-0.5-0.1-0.7c-0.3-0.3-0.7,0-1,0.1c-0.3,0.1-0.6,0.5-0.7,0.9
		c0,0.4,0.4,0.3,0.6,0.2c0,0,0.1,0,0,0c0,0,0,0,0,0c0.1,0.1,0,0.2,0,0.3c0,0.2-0.1,0.3-0.2,0.4c0,0,0,0.1-0.1,0.1c0-0.1,0-0.1,0,0
		c0,0-0.1,0.1-0.1,0.1c0.1-0.2,0,0,0,0c-0.2,0.1-0.5,0.6-0.3,0.8C-570.2,476-569.8,475.6-569.6,475.5L-569.6,475.5z"/>
</g>
<g>
	<path class="st2" d="M-503.7,434.8c-0.6-0.6-1.4-0.5-2.1-0.4c0.1-0.6,0.1-1.1,0.1-1.7c0-0.5-0.8-0.3-1-0.3
		c-0.4,0.1-0.9,0.4-0.9,0.9c-0.5-0.1-1.1,0.1-1.4,0.3c-1.3,0.6-1.9,2.1-2.2,3.4c-0.1,0.3-0.1,0.6-0.2,0.9c0,0,0,0,0,0.1
		c-0.1,0.5-0.3,1.4-0.9,1.7c-0.5,0.2-0.6-1.5-0.7-1.8c-0.1-1.9,0.4-3.8,0.7-5.5c0.1-0.4-0.4-0.5-0.8-0.4c-0.4,0.1-1,0.4-1.1,0.9
		c-0.3,1.4-0.5,2.8-0.9,4.2c-0.2,0.6-0.4,1.2-0.7,1.8c0,0,0,0.1,0,0.1c-0.1,0-0.3-0.1-0.3-0.2c-0.9-0.6-0.6-2.4-0.5-3.2
		c0.2-1.2,0.5-2.4,1-3.5c0.2-0.4,0-0.7-0.5-0.6c-0.5,0-1.1,0.4-1.2,0.8c-0.4,1-0.7,2-0.9,3c-0.2,0.9-0.7,1.9-1.3,2.6
		c-0.1,0.1-0.1,0.1-0.2,0.2c0,0,0-0.1,0-0.1c-0.2-0.8-0.1-1.7-0.1-2.4c0.1-1.2,0.2-2.3,0.4-3.5c0,0,0-0.1,0-0.1
		c0.1-1-0.7-1.6-1.9-1.5c-1.1,0.1-2,0.7-2.5,1.5c-0.7,0.9-1,2.3-1.1,2.5c-0.3,0.9-0.7,2-1.2,2.8c-0.1-0.1-0.2-0.3-0.2-0.4
		c-0.2-0.5-0.3-1.1-0.4-1.7c-0.2-1.7-0.2-3.4-0.1-5.1c0,0,0,0,0,0c0-0.1,0-0.2-0.1-0.2c0-0.1-0.1-0.1-0.2-0.1
		c-0.4-0.1-1,0.3-1.3,0.5c-0.9,1.1-1,2.7-1.3,4c-0.2,0.8-0.3,1.6-0.6,2.3c0,0.1-0.1,0.2-0.1,0.3c-0.2-0.1-0.3-0.4-0.4-0.6
		c0,0,0-0.1,0-0.1c0-0.3-0.2-0.5-0.6-0.4c-0.5,0.1-1,0.5-1.1,1c0,0,0,0,0,0c0,0,0,0,0,0c-0.3-0.1-0.5-0.4-0.6-0.6
		c-0.2-0.5-0.2-1.1-0.3-1.7c0-0.4,0-0.8,0-1.2c0.1-0.9,0.1-1.9,0.2-2.8c0-0.3,0-0.6,0.1-0.9c0-0.5-0.5-0.4-0.8-0.2
		c-0.4,0.2-0.9,0.6-1,1.1c0,0.5-0.1,1-0.1,1.5c0,0.5,0,1-0.1,1.5c0,0.4-0.1,0.9-0.1,1.3c-0.1,0.6-0.2,1.3-0.4,1.9c0,0,0,0.1,0,0.1
		c-0.1,0-0.3-0.1-0.4-0.1c-1-0.4-1-2.2-1-3c0-1.2,0-2.5,0.4-3.6c0.1-0.2,0.1-0.4,0-0.5c-0.2-0.2-0.6-0.1-0.9,0.1
		c-0.2,0.1-0.8,0.7-1.2,0.9c-0.8,0.4-1.5,0.2-2.1-0.3c-0.2-0.3-0.4-0.5-0.8-0.6c-0.7-0.3-1.5,0.1-2.1,0.5c-0.1-0.5-0.2-1.1-0.3-1.6
		c-0.1-0.4-0.9,0-1.1,0.2c-0.4,0.3-0.7,0.7-0.6,1.2c-0.5,0.1-1,0.5-1.3,0.9c-1.1,1.2-1.3,2.8-1.2,4.2c0,0.3,0,0.6,0.1,0.9
		c0,0.3,0,1.6-0.4,2c-0.5,0.5-1.1-1.2-1.2-1.3c-0.6-1.7-0.6-3.7-0.8-5.5c0-0.5-0.6-0.3-0.9-0.1c-0.4,0.3-0.8,0.8-0.8,1.3
		c0.1,1.4,0.3,2.9,0.3,4.3c0,0.6,0,1.3-0.2,1.9c0,0,0,0.1,0,0.1c-0.1,0-0.3,0-0.4,0c-1-0.2-1.2-2-1.3-2.8c-0.2-1.2-0.2-2.5,0-3.7
		c0.1-0.4-0.2-0.6-0.6-0.4c-0.4,0.2-0.9,0.8-1,1.3c-0.2,1.6-0.2,3.2,0.1,4.7c0.2,1.1,0.7,2.9,2.2,2.7c1-0.1,1.7-0.8,2.1-1.7
		c0.1,0.2,0.2,0.4,0.4,0.5c0.9,1.1,2.2-0.1,2.9-0.9c0.1-0.1,0.2-0.2,0.3-0.3c0.2,0.2,0.3,0.5,0.5,0.7c0.4,0.4,1,0.4,1.6,0.3
		c0.2-0.1,0.4-0.2,0.6-0.3c0.1,1.7,0.2,3.5,0.1,5.3c0,0.5,0.5,0.3,0.8,0.1c0.4-0.3,0.8-0.7,0.8-1.2c0.1-1.4,0-2.8,0-4.2
		c0.6-0.1,1.3-0.4,1.8-0.9c1.2-1.2,1.3-3,1.2-4.5c0-0.3-0.1-0.6-0.1-0.9c0.5-0.1,1.1-0.3,1.6-0.6c-0.2,1.1-0.3,2.3-0.2,3.5
		c0.1,1.1,0.4,3,1.9,3.1c0.9,0.1,1.6-0.3,2.1-0.9c0.3,0.7,1.1,1.1,1.9,0.9c0.3-0.1,0.6-0.2,0.8-0.4c0.6,0.6,1.5,0.6,2.3-0.1
		c0.6-0.5,0.9-1.1,1.2-1.8c0,0.2,0.1,0.4,0.1,0.6c0.1,0.6,0.3,1.2,0.7,1.7c0.4,0.5,1.2,0.3,1.7,0c0.4-0.2,0.9-0.6,1.2-0.9
		c0.1,0.5,0.3,1.1,0.8,1.4c0.8,0.5,1.8,0.1,2.4-0.4c0.1,0.4,0.2,0.8,0.6,1c0.9,0.3,2-0.5,2.5-1c0,0,0.1-0.1,0.1-0.1
		c0.1,0.8,0.5,1.6,1.3,1.9c1,0.3,1.8,0,2.4-0.6c0,0.2,0.1,0.4,0.2,0.6c0.5,1.4,2,0.9,2.8,0.4c0.1-0.1,0.2-0.1,0.3-0.2
		c0.1,0.3,0.2,0.6,0.3,0.9c0.3,0.6,0.8,0.9,1.4,0.9c0.2,0,0.4,0,0.7,0c-0.4,1.7-0.8,3.4-1.3,5c-0.1,0.4,0.4,0.5,0.7,0.5
		c0.4-0.1,0.9-0.4,1-0.8c0.4-1.3,0.8-2.7,1.1-4c0.6,0.2,1.3,0.2,1.9-0.1c1.4-0.7,2-2.3,2.3-3.8C-503,437.8-502.7,435.9-503.7,434.8z
		 M-544.5,437.4c-0.1,0-0.2,0-0.3,0c-0.3-0.1-0.6-0.4-0.7-0.7c-0.5-0.8-0.7-1.8-0.7-2.7c-0.1-0.8,0-1.6,0.3-2.3
		c0.1,0,0.1,0.1,0.2,0.1c0.6,0.4,1,1.2,1.1,1.9v0c0.1,1.2,0.3,2.4,0.3,3.7C-544.4,437.3-544.4,437.4-544.5,437.4z M-541.6,436.9
		c0,0,0,0.1-0.1,0.1c0,0,0,0,0,0c-0.7,0.1-1.1-0.4-1.1-0.9c0,0,0,0,0,0c-0.1-1.3-0.2-2.6-0.3-3.9c0-0.3,0-0.6,0.1-1c0,0,0,0,0,0
		c0,0,0,0,0,0c0.2,0,0.4,0.1,0.6,0.2c0,0,0,0,0,0.1c0,0.1,0.1,0.1,0.2,0.1c0.5,0.6,0.7,1.6,0.8,2.4
		C-541.3,435-541.2,436.1-541.6,436.9z M-521.2,432.5c-0.3,1.6-0.3,3.2-0.9,4.7c0,0.1-0.1,0.2-0.2,0.4c0,0-0.2,0-0.3-0.1
		c-0.3-0.2-0.4-0.7-0.5-1.1c-0.3-1.2-0.1-2.5,0.3-3.6c0.1-0.3,0.4-0.9,0.6-1.1c0,0,0.1,0,0.1,0c0.1,0,0.2,0,0.3,0
		C-521.3,431.8-521.1,432.2-521.2,432.5z M-507.9,437.1L-507.9,437.1c-0.2,1.2-0.4,2.4-0.7,3.6c0,0,0,0.1,0,0.1c0,0,0,0-0.1,0
		c-0.1,0-0.2-0.1-0.3-0.2c-0.3-0.3-0.4-0.6-0.5-1c-0.2-1-0.2-2,0-2.9c0.1-0.7,0.4-1.5,0.9-2.1c0,0,0.1,0.1,0.1,0.2
		C-507.9,435.5-507.9,436.4-507.9,437.1z M-505,439c-0.1,0.9-0.4,2-0.9,2.6c0,0-0.1,0.1-0.1,0.1c0,0,0,0,0,0
		c-0.6-0.2-0.9-0.8-0.8-1.3c0,0,0,0,0,0c0.3-1.3,0.5-2.5,0.7-3.8c0.1-0.3,0.2-0.6,0.3-0.9c0,0,0,0,0,0c0,0,0,0,0,0
		c0.2,0,0.4,0.3,0.5,0.6C-504.8,437-504.9,438.2-505,439z"/>
	<path class="st2" d="M-511.4,430.1c0.2-0.2,0.9-0.6,0.6-0.9c-0.3-0.4-1-0.1-1.2,0c-0.6,0.4-1.1,0.5-1.9,0.1
		c-0.3-0.2-0.5-0.4-0.7-0.7c-0.4-0.6-2.2,0.4-1.8,1.1C-515.2,431.5-512.8,430.9-511.4,430.1z"/>
	<path class="st2" d="M-560.9,433.1c-0.2-0.7-0.4-1.5-0.7-2.2c1.5-0.4,3-0.9,4.4-1.6c0.5-0.2,0.9-0.8,1-1.3c0.1-0.4-0.2-0.5-0.6-0.4
		c-2.6,1.1-5.4,1.7-8.1,2.7c-1,0.4-2.1,1.2-2.6,2.2c-0.7,1.3-0.4,2.3,0.2,3.3c0.4,0.6,1.7-1.2,1.4-1.8c-0.2-0.3-0.4-0.7-0.5-1.1
		c0,0,0-0.1,0-0.2c0.6-0.5,1.6-0.8,2.3-1.1c0.2-0.1,0.4-0.1,0.7-0.2c0.3,0.8,0.6,1.6,0.8,2.4c-0.9,0.6-1.6,1.5-2.1,2.4
		c-1,2-1.2,7.2,2.4,6.7c2.4-0.4,2.5-3.2,2.3-5.1c-0.1-1-0.3-2.1-0.5-3.1c0.2,0,0.4,0,0.6,0c1.4,0.1,2,1.4,2.2,2.5
		c0.1,1,0.1,2.3-0.7,3.1c-0.3,0.3-0.6,0.9-0.4,1.3c0.2,0.4,0.8-0.2,0.9-0.3c1.8-2,2.6-5.4,0.8-7.6
		C-557.9,432.8-559.5,432.8-560.9,433.1z M-561.7,441.1c-0.5,0-1.1-0.1-1.5-0.5c-0.9-0.9-1.2-3-0.4-4.3c0.3-0.5,0.8-0.9,1.3-1.1
		c0.3,1.3,0.5,2.5,0.7,3.8c0.1,0.6,0.1,1.2,0.2,1.8c0,0.1,0,0.2,0,0.3C-561.5,441.1-561.6,441.1-561.7,441.1z"/>
</g>
</svg>
