<?xml version="1.0" encoding="utf-8"?>
<!-- Generator: Adobe Illustrator 19.0.0, SVG Export Plug-In . SVG Version: 6.00 Build 0)  -->
<svg version="1.1" id="Layer_1" xmlns="http://www.w3.org/2000/svg" xmlns:xlink="http://www.w3.org/1999/xlink" x="0px" y="0px"
	 viewBox="-580 396.7 86 86" style="enable-background:new -580 396.7 86 86;" xml:space="preserve">
<style type="text/css">
	.st0{fill-rule:evenodd;clip-rule:evenodd;fill:#FFD600;}
	.st1{fill:#FFFFFF;}
	.st2{fill:#62BA47;}
</style>
<path class="st0" d="M-526,397.8c-0.6,3.3-3.5,5.7-6.9,5.7c-3.8,0-6.9-3-7-6.8c-19.5,2-34.6,18.5-34.8,38.6c0,3.9,0.6,7.7,1.7,11.3
	c0.1,0,0.3,0,0.4,0c3.8,0,6.9,3.1,6.9,6.9c0,1.7-0.6,3.3-1.6,4.5c6.4,8.9,16.6,14.9,28.1,15.9c2.9,0.3,9.3-0.1,12.9-1
	c9.4-2.4,17.3-8.2,22.6-16c-0.5-0.9-0.7-1.9-0.7-3c0-3.2,2.3-5.8,5.3-6.4c1.3-3.8,1.9-7.9,1.9-12.1
	C-497.2,417.3-509.4,402.2-526,397.8z M-566.8,424.7c-2,0-3.7-1.7-3.7-3.7c0-2.1,1.7-3.7,3.7-3.7c2,0,3.7,1.7,3.7,3.7
	C-563.1,423.1-564.8,424.7-566.8,424.7z M-505.6,437.8c-2.5,0-4.5-2-4.5-4.5c0-2.5,2-4.5,4.5-4.5c2.5,0,4.5,2,4.5,4.5
	C-501.1,435.8-503.1,437.8-505.6,437.8z"/>
<g>
	<path class="st1" d="M-543.1,439.7c-2.2,0.2-2.8,2.9-2.9,4.7l0,0v0c0,0.3,0,0.5,0,0.8c0,0.9,0,1.5-0.1,2.4c0,0.3-0.2,1-0.2,1
		c-0.8,0.1-1.4-1.1-1.6-1.7c-0.5-1.4-0.9-2.8-1.2-4.2c-0.3-1.5-0.4-3.2-0.5-4.7c0-0.6-0.1-1.3,0-2c0-0.3,0-0.5,0-0.8
		c0-0.2,0-0.4,0-0.4c0.2-1.2-1.5-0.1-1.8,0.5c-1.8,3.1-1.2,6.8-1.2,10.2c0,0.9,0,1.8-0.2,2.8c-0.1,0.6-0.2,1.7-0.7,2.2
		c-0.3,0.3-0.9,0.1-1.2-0.1c-0.4-0.2-0.7-0.7-0.8-1.2c-0.1-0.5-0.6-0.2-0.9,0.1c-0.4,0.4-0.8,1.1-0.7,1.6c0.2,1.2,1.3,2.3,2.5,1.9
		c2-0.6,2.8-3,3.3-4.8c0.2-0.9,0.4-1.8,0.4-2.7c0.3,1.3,0.7,2.6,1.3,3.8c0.4,0.9,1.2,1.8,2.4,1.6c0.8-0.2,1.4-1.1,1.8-2.1
		c0.4,0.9,1,1.5,2,1.4c1.1-0.1,2-1.3,2.4-2.2c0.5-1.1,0.6-2.3,0.6-3.4C-540.4,442.7-540.8,439.4-543.1,439.7z M-542.4,447.4
		c0,0.2-0.1,0.5-0.2,0.7c-0.4-0.1-0.7-0.7-0.9-1c-0.4-0.7-0.5-1.5-0.6-2.3c-0.1-0.8-0.1-1.7,0.1-2.5c0-0.2,0.1-0.4,0.2-0.6
		c1.1,0.7,1.3,2.1,1.4,3.3C-542.3,445.7-542.3,446.5-542.4,447.4z"/>
	<path class="st1" d="M-516.6,442.8c-2.4-0.9-3.7,2.4-4.2,4.1c-0.4,1.7-0.9,4.6,1.2,5.5c1,0.4,2.2-0.3,2.8-1c0.7-0.8,1.2-1.9,1.5-3
		C-514.9,446.7-514.4,443.6-516.6,442.8z M-518,450.5c-0.1,0.2-0.2,0.4-0.3,0.5c-0.4-0.2-0.5-1-0.5-1.3c-0.1-0.8,0-1.7,0.1-2.5
		c0.2-0.8,0.4-1.6,0.8-2.4c0.1-0.2,0.2-0.4,0.3-0.5c0.9,1.1,0.7,2.5,0.4,3.8C-517.4,448.9-517.6,449.7-518,450.5z"/>
	<path class="st1" d="M-523.1,443.2c0.4-0.6,0.9-1.2,1.3-1.8c0.9-1.3,1.7-2.9,1.7-4.5c-0.1-1.6-2.2-1.6-3.2-1.1
		c-1.5,0.8-2.4,2.4-2.9,4c-0.6,2.1-0.9,4.1-1,6.3c0,0,0,0,0,0c-0.7,0.9-2.3,2.8-3.5,2c-0.3-0.2-0.5-0.6-0.6-1c1-1,1.8-2.1,2.6-3.3
		c0.7-1.1,1.2-2.9-0.2-3.7c-1.1-0.7-2.6,0.1-3.4,1c-0.8,0.9-1.1,2.2-1.3,3.4c-0.1,0.6-0.1,1.7,0,2.8c-0.7,0.4-1.6,0.7-2.4,0.5
		c-0.9-0.2-1.3-1.2-1.4-1.9c-0.2-1.1-0.2-2.3,0-3.4c0.1-0.3,0.1-0.7,0.3-1c0-0.1,0.1-0.2,0.1-0.3c0.6,0.2,0.8,1.1,0.9,1.5
		c0.3,0.8,2.3-0.5,2.1-1.3c-0.2-0.8-0.6-1.6-1.5-2c-0.8-0.4-2,0.3-2.5,0.8c-1.4,1.4-1.6,3.6-1.5,5.5c0.1,1.2,0.3,2.8,1.4,3.4
		c1.4,0.9,3.4,0.1,4.8-0.8c0.4,0.9,1,1.5,2.2,1.4c1.4-0.2,2.7-1,3.8-2c0.1,1.1,0.3,2.3,1.1,2.7c1.3,0.7,2.8-0.1,3.6-1.2
		c1.1-1.4,1.7-3.3,1.1-5C-521.7,443.6-522.4,443.2-523.1,443.2z M-531.1,442.3c0.1-0.3,0.2-0.6,0.4-0.9c0,0,0,0,0,0
		c0.6,0.2,0.7,0.9,0.6,1.3c-0.1,0.9-0.7,1.8-1.4,2.6c0-0.2,0-0.3,0-0.5C-531.5,444-531.4,443.1-531.1,442.3z M-523.4,437.9
		c0.2-0.3,0.4-0.6,0.6-0.9c0,0,0,0,0,0c0.9,1,0.1,2.5-0.5,3.5c-0.5,0.9-1.1,1.9-1.7,2.8c0.1-0.9,0.3-1.8,0.6-2.7
		C-524.2,439.6-523.8,438.7-523.4,437.9z M-523.9,448.8c0,0.1-0.2,0.3-0.2,0.4c-0.1,0-0.1,0-0.2-0.1c-0.6-0.3-0.6-1.6-0.7-2.1
		c0-0.5-0.1-0.9-0.1-1.4c0.3-0.3,0.5-0.6,0.8-0.9c0.5-0.4,0.9,0.3,1,0.9C-523.1,446.7-523.5,448-523.9,448.8z"/>
</g>
<g>
	<g>
		<path class="st1" d="M-518.3,430.1c0.6-1.9,1-4.2-0.5-5.7c-0.9-1-2.3-1-3.4-0.8c0.1-0.8,0.2-1.5,0.3-2.3c0-0.6-1.3-0.5-1.7-0.4
			c-0.7,0.2-1.4,0.6-1.5,1.2c-0.1,2.9-0.6,5.8-1.2,8.7c-0.6,0.3-1.3,0.6-1.9,0.9c-0.4,0.2-0.7,0.4-1.2,0.2c-0.8-0.2-0.7-1.5-0.8-2.2
			c-0.1-2.6,0.1-5.5,1.6-7.6c0.3-0.5-0.2-0.9-1-0.8c-1,0.1-1.8,0.6-2.1,1.2c-1.4,2.9-1.5,6.1-1.1,9.4c0.1,1.1,0.4,1.8,1.7,2.1
			c1.5,0.3,3.2-0.6,4.4-1.3c0,0.2-0.1,0.4-0.1,0.6c-0.6,2.7-1.3,5.4-2.1,8.1c-0.2,0.6,0.4,0.7,0.7,0.5c0.4-0.2,1-0.6,1.2-1.2
			c0.7-1.8,1.3-3.7,1.9-5.5c0.7,0.3,1.6,0.3,2.6-0.1C-520.4,434.2-519,432.2-518.3,430.1z M-522,425.1
			C-521.9,425.1-521.9,425.1-522,425.1L-522,425.1z M-523.1,433.6C-523.1,433.6-523.1,433.6-523.1,433.6L-523.1,433.6z M-523,433.5
			c0,0-0.1,0.1-0.1,0.1c0,0,0,0,0,0c-0.9-0.3-1-1.2-0.8-1.9c0-0.1,0-0.2,0-0.2c0.5-1.6,0.9-3.2,1.3-4.8c0,0,0-0.1,0-0.1
			c0.1-0.5,0.3-1,0.6-1.4c0,0,0,0,0,0c0,0,0,0,0,0c0.3,0.1,0.6,0.5,0.7,0.8c0.6,1.2,0.3,2.8,0,3.9
			C-521.6,431.2-522.1,432.6-523,433.5z"/>
		<path class="st1" d="M-536,423.7c-0.1,0-0.1,0-0.2,0c0,0-0.1,0-0.1,0c-0.7,0.1-1.3,0.3-1.9,0.7c-0.1-1.1-0.2-2.1-0.4-3.2
			c-0.1-0.5-1.1-0.1-1.4,0c-0.8,0.4-1.5,1.1-1.6,1.7c-0.2,1.3-0.4,2.6-0.6,3.9c-0.2,1.1-0.4,2.1-0.7,3.2c-0.1,0.5-0.3,0.9-0.4,1.4
			c-0.1,0.2-0.1,0.3-0.2,0.5c-0.5,0.6-1.4,0.7-2.2,0.5c-0.8-0.2-1.5-0.8-2.1-1.4c-1.5-1.7-2.4-3.9-2.8-6.1c-0.2-1.1-0.2-2.3-0.1-3.4
			c0.1-0.5,0.2-0.9,0.3-1.4c0.1-0.3,0.1-0.4,0.2-0.5c0-0.1,0.1-0.2,0.1-0.3c0,0,0,0,0,0c0,0,0-0.1,0.1-0.1c0,0,0,0,0-0.1
			c0,0,0,0,0.1-0.1c0,0,0.1-0.1,0.2-0.1c0.1-0.1,0.8-0.3,1.1-0.3c2-0.3,2.8,1.2,3.2,2.4c0.4,0.9,3.2-1.3,2.9-2.2
			c-0.7-1.9-2.5-3.2-4.5-2.9c-1.7,0.2-3.1,1-4.1,2.2c-2.2,2.5-2.7,6-2,9.1c0.6,2.8,2.2,5.5,4.6,7.1c0.9,0.6,2.1,0.9,3,0.7
			c2.3-0.5,3.8-3.1,4.7-5.2c0-0.1,0.1-0.2,0-0.3c0,0,0-0.1,0.1-0.1c0.1,2,1.5,4.2,3.6,4.1c2.3-0.1,3.7-3,4-5
			C-532.8,426.5-533.6,424-536,423.7z M-535.6,430.8c0,0.2-0.1,0.3-0.1,0.4c0,0-0.1,0-0.2,0c-1.3,0.1-1.9-1.8-2-2.7
			c0-0.1,0-0.2,0-0.3c0,0,0,0,0,0c0-0.2,0-0.3,0-0.5c0-0.4,0.1-0.8,0.2-1.2c0-0.1,0.1-0.3,0.2-0.4c0,0,0.1,0,0.2,0
			c1.5,0,2,1.8,2.1,2.8C-535.4,429.5-535.4,430.2-535.6,430.8z"/>
	</g>
</g>
<g>
	<circle class="st2" cx="-566.9" cy="470" r="12.2"/>
	<path class="st1" d="M-575,469.2c0.4-0.5,0.8-1.1,1.2-1.6c0.2-0.3,0.4-0.5,0.5-0.7c0.3-0.3,0.2-0.3-0.1-0.1c0,0.4,0,0.8,0,1.1
		c0,2.1-0.1,4.3-0.3,6.4c-0.1,0.8,1.3-0.2,1.4-0.8c0.1-1.4,0.2-2.8,0.2-4.2c0-0.6,0.5-3.9-0.3-4.1c-1.4-0.4-2.9,2.8-3.6,3.7
		C-576.7,469.9-575.5,469.9-575,469.2L-575,469.2z"/>
	<path class="st1" d="M-568.3,469.3c-0.6-0.3-2-1.6-0.9-2.3c0.4-0.3,0.9-0.2,1.4,0c1.1,0.3,0.3,1.2-0.2,1.6
		c-0.3,0.2-2.1,1.7-1.3,2.2c0.9,0.7,2.7-0.1,2.7,1.5c0,1.1-1.7,1.1-2.3,0.7c-1-0.7-1-1.7,0.2-2.4c0.5-0.3,1-1.7,0.1-1.1
		c-1.2,0.7-2.4,1.7-2.4,3.2c0,0.9,0.9,2,1.8,2c1.4,0.1,2.8-0.8,3.5-1.9c0.7-1.1,0.6-2.5-0.7-2.8c-0.4-0.1-1.4-0.4-1.7-0.1
		c0.5-0.6,1.3-1,1.7-1.6c0.9-1.2,0.6-2.5-1-2.8c-1.3-0.2-2.5,0.8-3.1,1.8c-0.8,1.4,0.1,2.6,1.3,3.3
		C-568.9,470.9-567.7,469.7-568.3,469.3L-568.3,469.3z"/>
	<g>
		<path class="st1" d="M-559,466.3c-1.6,2.6-3.5,5-5.4,7.5c-0.8,1.1,0.5,1,1,0.3c1.9-2.6,4-5.1,5.6-7.9
			C-557,465.1-558.6,465.7-559,466.3L-559,466.3z"/>
		<path class="st1" d="M-561.9,465.6c-1,0-1.7,0.9-1.8,1.8c-0.2,0.8,0.3,1.6,1.2,1.6C-560.7,469.1-559.8,465.7-561.9,465.6
			c-0.4,0-1.2,1-0.6,1c0.5,0,0.7,0.4,0.8,0.8c0,0.2,0,0.4-0.1,0.5c-0.1,0.1-0.1,0,0,0c-0.1,0-0.2,0-0.3,0c-0.4,0-0.7-0.4-0.7-0.8
			c0-0.2,0-0.4,0.1-0.5c0.1-0.1,0.1-0.1,0,0c0.1,0,0.1,0,0.2,0C-562,466.6-561.3,465.6-561.9,465.6z"/>
		<path class="st1" d="M-559.1,471.2c-1,0-1.7,0.9-1.8,1.8c-0.2,0.8,0.3,1.6,1.2,1.6C-558,474.7-557,471.3-559.1,471.2
			c-0.4,0-1.2,1-0.6,1c0.5,0,0.7,0.4,0.8,0.8c0,0.2,0,0.4-0.1,0.5c-0.1,0.1,0,0,0,0c-0.1,0-0.2,0-0.3,0c-0.4,0-0.7-0.4-0.7-0.8
			c0-0.2,0-0.4,0.1-0.5c0.1-0.1,0.1-0.1,0,0c0.1,0,0.1,0,0.2,0C-559.3,472.2-558.6,471.2-559.1,471.2z"/>
	</g>
</g>
</svg>
