<?xml version="1.0" encoding="utf-8"?>
<!-- Generator: Adobe Illustrator 19.0.0, SVG Export Plug-In . SVG Version: 6.00 Build 0)  -->
<svg version="1.1" id="Layer_1" xmlns="http://www.w3.org/2000/svg" xmlns:xlink="http://www.w3.org/1999/xlink" x="0px" y="0px"
	 viewBox="-580 396.7 86 86" style="enable-background:new -580 396.7 86 86;" xml:space="preserve">
<style type="text/css">
	.st0{fill-rule:evenodd;clip-rule:evenodd;fill:#F499A8;}
	.st1{fill:#62BA47;}
	.st2{fill:#FFFFFF;}
</style>
<path class="st0" d="M-524.7,397.8c-0.6,3.3-3.5,5.8-7,5.8c-3.8,0-7-3.1-7.1-6.9c-19.6,2-34.9,18.6-35.1,38.9c0,4,0.6,7.8,1.7,11.4
	c0.1,0,0.3,0,0.4,0c3.8,0,6.9,3.1,6.9,7c0,1.7-0.6,3.3-1.7,4.5c6.5,9,16.7,15.1,28.4,16c3,0.4,9.4-0.1,13-1.1
	c9.4-2.4,17.5-8.2,22.8-16.1c-0.5-0.9-0.7-1.9-0.7-3c0-3.2,2.3-5.9,5.4-6.5c1.3-3.8,2-7.9,2-12.2
	C-495.6,417.5-508,402.2-524.7,397.8z M-565.9,425c-2.1,0-3.7-1.7-3.7-3.7c0-2.1,1.7-3.7,3.7-3.7c2.1,0,3.7,1.7,3.7,3.7
	C-562.1,423.3-563.8,425-565.9,425z M-504.1,438.2c-2.5,0-4.5-2-4.5-4.5c0-2.5,2-4.5,4.5-4.5c2.5,0,4.5,2,4.5,4.5
	C-499.5,436.1-501.6,438.2-504.1,438.2z"/>
<circle class="st1" cx="-566" cy="470.4" r="12.3"/>
<g>
	<g>
		<path class="st2" d="M-517.1,430.3c0.6-1.9,1-4.2-0.5-5.8c-0.9-1-2.3-1-3.4-0.8c0.1-0.8,0.2-1.5,0.3-2.3c0.1-0.6-1.4-0.5-1.7-0.4
			c-0.7,0.2-1.4,0.6-1.5,1.2c-0.1,3-0.6,5.9-1.2,8.8c-0.6,0.3-1.3,0.6-2,0.9c-0.4,0.2-0.7,0.4-1.2,0.2c-0.8-0.2-0.7-1.5-0.8-2.2
			c-0.1-2.6,0.1-5.5,1.6-7.7c0.3-0.5-0.2-0.9-1-0.8c-1,0.1-1.9,0.6-2.1,1.2c-1.4,2.9-1.5,6.1-1.2,9.5c0.1,1.1,0.4,1.8,1.7,2.1
			c1.5,0.3,3.2-0.6,4.4-1.3c0,0.2-0.1,0.4-0.1,0.6c-0.7,2.7-1.4,5.4-2.1,8.1c-0.2,0.6,0.4,0.7,0.7,0.6c0.5-0.2,1-0.6,1.2-1.2
			c0.7-1.8,1.3-3.7,1.9-5.6c0.7,0.3,1.6,0.3,2.6-0.1C-519.2,434.5-517.8,432.5-517.1,430.3z M-520.8,425.3
			C-520.7,425.3-520.7,425.3-520.8,425.3L-520.8,425.3z M-521.9,433.9C-521.9,433.9-521.9,433.9-521.9,433.9L-521.9,433.9z
			 M-521.9,433.8c0,0-0.1,0.1-0.1,0.1c0,0,0,0,0,0c-0.9-0.3-1-1.2-0.8-1.9c0-0.1,0-0.2,0-0.2c0.5-1.6,0.9-3.2,1.3-4.8
			c0,0,0-0.1,0-0.1c0.1-0.5,0.3-1,0.6-1.4c0,0,0,0,0,0c0,0,0,0,0,0c0.3,0.1,0.6,0.5,0.7,0.8c0.6,1.2,0.3,2.8,0,3.9
			C-520.4,431.4-521,432.8-521.9,433.8z"/>
		<path class="st2" d="M-535,423.9c-0.1,0-0.2,0-0.2,0c0,0-0.1,0-0.1,0c-0.7,0.1-1.3,0.3-1.9,0.7c-0.1-1.1-0.2-2.2-0.4-3.2
			c-0.1-0.5-1.1-0.1-1.4,0c-0.8,0.4-1.5,1.1-1.6,1.8c-0.2,1.3-0.4,2.6-0.7,3.9c-0.2,1.1-0.4,2.2-0.7,3.2c-0.1,0.5-0.3,0.9-0.4,1.4
			c-0.1,0.2-0.1,0.3-0.2,0.5c-0.5,0.6-1.4,0.7-2.2,0.5c-0.8-0.2-1.6-0.8-2.1-1.4c-1.5-1.7-2.4-3.9-2.8-6.1c-0.2-1.1-0.3-2.3-0.1-3.5
			c0.1-0.5,0.2-0.9,0.3-1.4c0.1-0.3,0.1-0.4,0.2-0.5c0-0.1,0.1-0.2,0.2-0.3c0,0,0,0,0,0c0,0,0-0.1,0.1-0.1c0,0,0,0,0-0.1
			c0,0,0,0,0.1-0.1c0,0,0.1-0.1,0.2-0.1c0.1-0.1,0.8-0.3,1.1-0.3c2-0.3,2.8,1.2,3.3,2.4c0.4,0.9,3.2-1.3,2.9-2.2
			c-0.7-1.9-2.5-3.2-4.6-2.9c-1.7,0.2-3.2,1.1-4.2,2.3c-2.2,2.6-2.7,6-2,9.2c0.6,2.9,2.2,5.5,4.7,7.2c0.9,0.6,2.1,0.9,3.1,0.7
			c2.3-0.5,3.9-3.1,4.7-5.2c0-0.1,0.1-0.2,0-0.3c0,0,0-0.1,0.1-0.1c0.1,2,1.5,4.2,3.7,4.1c2.3-0.1,3.7-3,4-5.1
			C-531.7,426.7-532.6,424.2-535,423.9z M-534.5,431.1c0,0.2-0.1,0.3-0.1,0.4c0,0-0.1,0-0.3,0c-1.3,0.1-1.9-1.8-2.1-2.7
			c0-0.1,0-0.2,0-0.3c0,0,0,0,0,0c0-0.2,0-0.4,0-0.5c0-0.4,0.1-0.8,0.2-1.2c0-0.1,0.1-0.3,0.2-0.4c0,0,0.1,0,0.2,0
			c1.5,0,2,1.8,2.1,2.8C-534.3,429.7-534.4,430.4-534.5,431.1z"/>
	</g>
</g>
<g>
	<g>
		<path class="st2" d="M-507.8,451.4c-0.2-0.3-0.8-0.2-1-0.1c-0.4,0.1-1.1,0.2-1.3-0.2c-0.2-0.2-0.2-0.5-0.2-0.8
			c1.1-0.5,2.1-1.2,2.9-2.1c0.4-0.5,0.9-1.3,0.5-2c-0.8-1.3-2.7-0.3-3.4,0.5c-0.5,0.6-0.9,1.4-1.2,2.3c-0.1,0.1-0.2,0.1-0.3,0.2
			c-0.4,0.3-0.7,0.7-1.1,0.9c0,0,0,0-0.1,0c0,0,0,0-0.1,0c0,0,0,0,0,0c-0.1-0.2,0-0.5,0-0.7c0.1-0.8,0.4-1.7,0.7-2.5
			c0.2-0.5,0.4-1,0.6-1.5c0.1-0.2,0.3-0.4,0.4-0.6c0.2-0.3,0.1-0.5-0.3-0.5c-0.4,0-0.8,0.2-1.1,0.5c-0.2,0.2-0.4,0.5-0.5,0.8
			c-0.2,0.3-0.5,0.7-0.8,0.9c-0.3,0.2-0.5,0.3-0.8,0.5c0,0-0.1,0-0.1,0c0.3-1.1,0.5-2.2,0.7-3.3c0-0.1,0-0.2,0-0.2
			c0-0.1-0.1-0.1-0.2-0.1c-0.1,0-0.1,0-0.2,0c-0.3,0-0.5,0.1-0.7,0.3c-0.1,0.1-0.3,0.2-0.3,0.3c-0.3,0.4-0.6,0.2-1.1-0.1
			c-0.3-0.2-0.5-0.4-0.7-0.7c0,0-0.1-0.1-0.1-0.1c-0.1-0.3-0.3-0.5-0.7-0.7c0,0-0.1,0-0.1-0.1c0,0-0.1,0-0.1,0
			c-1.7-0.2-2.6,1.9-2.9,3.2c-0.1,0.4-0.2,0.9-0.2,1.4c-0.2,0.3-0.4,0.5-0.7,0.6c-0.2,0.1-0.2,0-0.3-0.1c-0.4-0.5-0.1-1.5,0-1.9
			c0.3-1.2,0.7-2.6,0.2-3.8c-0.2-0.5-0.9-0.5-1.4-0.4c-0.5,0.1-1,0.5-1.3,0.9c0-0.4,0-0.8-0.1-1.1c-0.1-0.5-1.4,0.1-1.5,0.6
			c-0.3,0.4-0.7,0.3-1.2,0.1c-0.3-0.1-0.5-0.3-0.7-0.5c-0.1-0.2-0.3-0.4-0.5-0.6c-0.5-0.3-1.2-0.1-1.6,0.1c0-0.4-0.1-0.9-0.1-1.3
			c0-0.4-0.7-0.1-0.8,0c-0.3,0.2-0.6,0.5-0.6,0.9c0.2,1.5,0.2,3.1,0.1,4.7c0,0,0,0.1-0.1,0.1c-0.3,0.4-0.5,0.8-0.8,1.2
			c-0.1,0.1-0.1,0.1-0.2,0.2c0,0-0.1-0.1-0.1-0.1c-0.3-0.4-0.3-1-0.3-1.5c-0.1-1.1-0.1-2.3,0-3.4c0,0,0,0,0-0.1c0-0.8-0.7-1.2-1.5-1
			c-0.8,0.2-1.4,0.8-1.7,1.5c-0.5,0.9-0.7,2.1-0.6,3.2c-0.1,0.5-0.2,1.1-0.8,1.3c-0.5,0.1-0.7,0-0.8-0.4c-0.2-0.6-0.2-1.4-0.6-1.9
			c-0.3-0.4-0.8-0.4-1.3-0.2c0-0.1,0-0.2,0-0.3c0-0.1,0-0.2,0-0.3c0.1-0.4,0.2-0.8,0.3-1.1c0.1-0.1,0.1-0.2,0.1-0.2c0,0,0,0,0,0
			c0,0,0,0,0,0c0,0,0,0,0,0c0.2,0,0.4,0.2,0.5,0.2c0.5,0.3,1.6-0.9,1.1-1.2c-0.6-0.4-1.2-0.3-1.8,0c-0.4,0.2-0.7,0.5-1,0.9
			c0,0.1-0.1,0.1-0.1,0.2c-0.1-0.7-0.3-1.5-0.6-2.1c-0.2-0.5-1.5,0.6-1.3,1.1c0.8,2.2,0.9,4.6,1.1,6.9c0.1,0.7,1.3-0.4,1.3-0.8
			c0-0.6,0-1.3,0-1.9c0.4,0.1,0.6,0.7,0.7,1.2c0.1,0.6,0.2,1.3,0.8,1.5c0.7,0.2,1.4-0.2,2-0.6c0.2-0.1,0.3-0.3,0.5-0.5
			c0.1,0.4,0.3,0.8,0.7,1c0.6,0.3,1.3-0.2,1.7-0.6c0,0,0-0.1,0.1-0.1c0.1,0.3,0.2,0.5,0.4,0.8c0.3,0.3,0.7,0.1,1,0
			c0.4-0.3,0.8-0.6,1.1-1c0,0.2,0,0.3,0,0.5c-0.1,1.7-0.2,3.4-0.4,5.1c0,0.4,0.3,0.3,0.5,0.2c0.3-0.2,0.6-0.5,0.7-0.9
			c0.2-1.3,0.3-2.6,0.4-3.9c0.5,0,1-0.2,1.4-0.5c1-0.8,1.3-2.2,1.4-3.5c0-0.2,0-0.4,0-0.6c0.6,0.1,1.1-0.1,1.5-0.3
			c0,0.6-0.1,1.2-0.1,1.7c-0.1,1.1-0.3,2.2-0.4,3.3c-0.1,0.7,1.4,0,1.5-0.5c0.3-1.7,0.7-3.4,1.8-4.8c0.1,0.1,0.2,0.2,0.2,0.3
			c0.2,0.6,0.1,1.4,0,2c-0.1,0.7-0.3,1.4-0.3,2.2c0,0.4,0,1.1,0.3,1.4c0.4,0.3,1,0.2,1.4,0.1c0.3-0.1,0.6-0.3,0.9-0.4
			c0.1,0.6,0.4,1,0.9,1.2c0.7,0.2,1.5-0.4,1.9-0.9c0.5-0.6,0.8-1.4,1-2.2c0.1-0.3,0.2-0.6,0.2-1c0.5,0.2,1,0.2,1.5,0
			c-0.3,1.6-0.7,3.3-1.2,4.9c-0.1,0.4,0.3,0.4,0.5,0.3c0.3-0.1,0.7-0.3,0.9-0.7c0.2-0.6,0.5-1.2,0.9-1.6c0.2-0.3,0.3-0.3,0.7-0.5
			c0,0,0,0,0.1,0c0,0,0,0.1,0,0.1c-0.3,0.9-0.6,2-0.6,2.9c0,0.3,0.4,0.6,0.4,0.6s0.1,0.1,0.1,0.1c0.1,0,0.2,0.1,0.3,0.1
			c0.6,0.1,1.3-0.3,1.9-0.7c0,0.1,0,0.2,0,0.2c0,0.5,0.1,1.1,0.5,1.4c0.8,0.6,2.1,0.3,3,0C-508.2,452-507.7,451.7-507.8,451.4z
			 M-535.3,446.2c0,0-0.1,0-0.2,0c-0.3-0.1-0.4-0.5-0.4-0.8c-0.1-0.4-0.2-0.8-0.2-1.2c0,0,0,0,0-0.1c0-0.1,0-0.1,0-0.2
			c0-0.5,0.1-1,0.2-1.5c0.1-0.3,0.2-0.8,0.3-0.9c0,0,0,0,0.1,0c0.1,0,0.2,0,0.2,0c0.3,0,0.5,0.3,0.5,0.5c0,1.3,0,2.6-0.3,3.9
			C-535.2,446-535.2,446.1-535.3,446.2z M-530.5,441.6C-530.5,441.6-530.5,441.6-530.5,441.6L-530.5,441.6z M-530,446.4
			C-530,446.4-530,446.4-530,446.4L-530,446.4z M-530,446.3C-530,446.4-530.1,446.4-530,446.3C-530.1,446.4-530.1,446.4-530,446.3
			c-0.6,0.1-0.8-0.4-0.8-0.8c0,0,0-0.1,0-0.1c0.1-0.9,0.1-1.9,0.1-2.9c0,0,0,0,0-0.1c0-0.3,0-0.6,0.2-0.9c0,0,0,0,0,0c0,0,0,0,0,0
			c0.2,0,0.3,0.1,0.4,0.3c0,0.1,0,0.1,0.1,0.2c0,0,0,0,0,0c0.3,0.6,0.3,1.3,0.4,1.9C-529.6,444.8-529.7,445.7-530,446.3z
			 M-519.8,448.2C-519.8,448.2-519.8,448.2-519.8,448.2L-519.8,448.2z M-519.5,447.6c-0.1,0.1-0.1,0.3-0.2,0.4
			c-0.2-0.1-0.3-0.6-0.4-0.9c-0.1-0.6,0-1.2,0.1-1.8c0.1-0.6,0.3-1.2,0.5-1.7c0.1-0.1,0.1-0.3,0.2-0.4c0.6,0.4,0.3,2.1,0.3,2.6
			C-519,446.5-519.2,447.1-519.5,447.6z M-513.1,450.1C-513.1,450.1-513.1,450.1-513.1,450.1C-513.1,450.1-513.1,450.1-513.1,450.1
			C-513.1,450.1-513.1,450.1-513.1,450.1z M-509.4,447.4c0.1-0.2,0.4-0.5,0.6-0.7c0.1,0.1,0.2,0.1,0.2,0.2c0.3,0.5-0.1,1-0.4,1.3
			c-0.3,0.4-0.7,0.7-1.2,1C-510.1,448.6-509.8,447.9-509.4,447.4z"/>
		<path class="st2" d="M-543.2,446c-0.4-0.1-0.8,0.4-0.9,0.6c-0.4,0.6-1.1,0.5-1.6,0.1c-0.5-0.4-0.7-1.2-0.8-1.8
			c-0.2-0.8-0.3-1.6-0.1-2.4c0,0,0-0.1,0-0.1c0.1,0,0.3,0,0.4,0c0.5,0.1,0.8,0.6,0.9,0.9c0.3,0.5,1.6-0.6,1.3-1.1
			c-0.3-0.6-0.7-1-1.3-1.2c-0.6-0.2-1.3,0.2-1.7,0.6c-1,1.1-1,2.6-0.8,3.9c0,0.1,0,0.2,0.1,0.3c0,0,0,0.1,0,0.1
			c0,0.5,0.1,1.1-0.1,1.6c-0.4-0.1-0.6-1.1-0.7-1.3c-0.3-1.1-0.5-2.2-0.7-3.4c0,0,0,0,0-0.1c-0.2-0.8-0.9-1-1.7-0.6
			c-0.8,0.4-1.2,1.1-1.4,1.9c-0.4,1.4-0.1,3,0.5,4.4v0c-0.2,0.2-0.5,0.3-0.8,0.2c-0.3-0.1-0.5-0.4-0.6-0.6c-0.6-0.8-0.9-1.8-1.2-2.7
			c-0.5-1.6-1-3.3-1.2-5c0-0.3-0.3-0.2-0.5-0.1c-0.3,0.2-0.5,0.6-0.6,0.9c-0.3,1.2-0.1,2.5,0,3.7c0,0,0,0,0,0c0-0.1-0.1-0.2-0.1-0.3
			c-0.3-1-0.7-1.9-1-2.9c-0.2-0.6-0.4-1.4-0.4-1.9c0-0.8-1,0.1-1.1,0.5c-0.8,2.4,0.1,4.9,0.6,7.3c0.1,0.6,0.2,1.3,0.2,1.9
			c0,0.4,0.1,1.2-0.2,1.6c-0.2,0.2-0.7,0.1-0.9,0c-0.3-0.1-0.6-0.5-0.7-0.8c-0.1-0.4-0.5-0.1-0.7,0.1c-0.3,0.3-0.5,0.8-0.4,1.1
			c0.3,0.8,1.2,1.5,2.2,1.2c1.4-0.5,1.7-2.3,1.8-3.7c0-0.8-0.1-1.6-0.2-2.4c0.5,1.4,1.1,2.8,1.6,4.3c0.3,0.7,1.1-0.7,1-1.1
			c-0.2-1-0.3-2.1-0.5-3.1c0.1,0.3,0.2,0.6,0.4,1c0.4,0.9,0.8,1.9,1.6,2.4c0.3,0.2,0.8,0.1,1.2,0c0.4-0.2,0.7-0.5,1-0.9
			c0.2,0.2,0.3,0.3,0.6,0.3c0.6,0.2,1.3-0.5,1.6-1.1c0,0,0-0.1,0-0.1c0.1,0.2,0.2,0.4,0.4,0.5c0.2,0.2,0.6,0.1,0.8,0.1
			c0.5-0.2,0.8-0.7,1.1-1.2c0.2,0.2,0.4,0.4,0.6,0.5c1.3,0.6,2.6-0.5,3.3-1.5C-543.1,446.6-542.8,446.1-543.2,446z M-550.1,448.1
			c0,0-0.1,0-0.2,0c-0.2,0-0.4-0.3-0.6-0.6c0,0,0-0.1-0.1-0.1c0,0,0,0,0,0c-0.5-0.8-0.7-1.9-0.7-2.9c0-0.3,0.1-0.8,0.1-1
			c0,0,0,0,0-0.1c0.1,0,0.2-0.1,0.2-0.1c0.3-0.1,0.5,0.1,0.6,0.4c0.2,1.3,0.5,2.6,0.5,3.9C-550,447.8-550.1,448-550.1,448.1z"/>
	</g>
</g>
<g>
	<path class="st2" d="M-570.5,470.1c-1,0-2,0-3,0c-0.6,0-1.1,0-1.7-0.1c-0.5-0.1,0.2-0.1-0.2,0.5c0.2-0.3,0.4-0.6,0.6-0.9
		c0.4-0.6,0.8-1.2,1.3-1.8c0.2-0.2,0.3-0.4,0.5-0.6c-0.5-0.1-0.6,0.2-0.4,0.6c0,0.4,0,0.7,0,1.1c0,1.8-0.1,3.7-0.3,5.5
		c-0.1,0.7,1.2-0.2,1.3-0.7c0.1-1.2,0.2-2.3,0.2-3.5c0-0.8,0-1.7,0-2.5c0-0.4,0.1-1-0.1-1.4c-0.5-1.1-2.6,1.8-2.7,2.1
		c-0.4,0.5-2.5,2.9-1.1,3c1.6,0.2,3.2,0.1,4.8,0C-570.7,471.4-569.7,470.1-570.5,470.1L-570.5,470.1z"/>
	<path class="st2" d="M-563.9,470.1c-1,0-2,0-3,0c-0.6,0-1.1,0-1.7-0.1c-0.5-0.1,0.2-0.1-0.2,0.5c0.2-0.3,0.4-0.6,0.6-0.9
		c0.4-0.6,0.8-1.2,1.3-1.8c0.2-0.2,0.3-0.4,0.5-0.6c-0.5-0.1-0.6,0.2-0.4,0.6c0,0.4,0,0.7,0,1.1c0,1.8-0.1,3.7-0.3,5.5
		c-0.1,0.7,1.2-0.2,1.3-0.7c0.1-1.2,0.2-2.3,0.2-3.5c0-0.8,0-1.7,0-2.5c0-0.4,0.1-1-0.1-1.4c-0.5-1.1-2.6,1.8-2.7,2.1
		c-0.4,0.5-2.5,2.9-1.1,3c1.6,0.2,3.2,0.1,4.8,0C-564.1,471.4-563.1,470.1-563.9,470.1L-563.9,470.1z"/>
	<g>
		<path class="st2" d="M-557.7,466.9c-1.4,2.4-3.2,4.5-4.8,6.7c-0.7,1,0.4,0.9,0.9,0.3c1.7-2.3,3.6-4.6,5.1-7.1
			C-555.9,465.8-557.3,466.4-557.7,466.9L-557.7,466.9z"/>
		<path class="st2" d="M-560.3,466.3c-0.9,0-1.5,0.8-1.7,1.6c-0.1,0.8,0.3,1.4,1.1,1.4C-559.2,469.4-558.4,466.3-560.3,466.3
			c-0.4,0-1.1,0.9-0.5,0.9c0.4,0,0.6,0.4,0.7,0.7c0,0.1,0,0.3-0.1,0.5c-0.1,0.1,0,0,0,0c-0.1,0-0.2,0-0.2,0c-0.4,0-0.7-0.4-0.7-0.7
			c0-0.2,0-0.3,0.1-0.5c0.1-0.1,0.1,0,0,0c0.1,0,0.1,0,0.2,0C-560.4,467.2-559.7,466.2-560.3,466.3z"/>
		<path class="st2" d="M-557.8,471.3c-0.9,0-1.5,0.8-1.7,1.6c-0.1,0.8,0.3,1.4,1.1,1.4C-556.7,474.4-555.9,471.4-557.8,471.3
			c-0.4,0-1.1,0.9-0.5,0.9c0.4,0,0.6,0.4,0.7,0.7c0,0.1,0,0.3-0.1,0.5c-0.1,0.1,0,0,0,0c-0.1,0-0.2,0-0.2,0c-0.4,0-0.7-0.4-0.7-0.7
			c0-0.2,0-0.3,0.1-0.5c0.1-0.1,0.1,0,0,0c0.1,0,0.1,0,0.2,0C-558,472.2-557.3,471.3-557.8,471.3z"/>
	</g>
</g>
</svg>
