<?xml version="1.0" encoding="utf-8"?>
<!-- Generator: Adobe Illustrator 19.0.0, SVG Export Plug-In . SVG Version: 6.00 Build 0)  -->
<svg version="1.1" id="Layer_1" xmlns="http://www.w3.org/2000/svg" xmlns:xlink="http://www.w3.org/1999/xlink" x="0px" y="0px"
	 viewBox="-580 396.7 86 86" style="enable-background:new -580 396.7 86 86;" xml:space="preserve">
<style type="text/css">
	.st0{fill-rule:evenodd;clip-rule:evenodd;fill:#DD95C0;}
	.st1{fill:#62BA47;}
	.st2{fill:#FFFFFF;}
</style>
<path class="st0" d="M-524.8,398.1c-0.6,3.3-3.5,5.7-6.9,5.7c-3.8,0-6.9-3-7-6.8c-19.5,2-34.7,18.5-34.8,38.6
	c0,3.9,0.6,7.7,1.7,11.3c0.1,0,0.3,0,0.4,0c3.8,0,6.9,3.1,6.9,6.9c0,1.7-0.6,3.3-1.6,4.5c6.5,8.9,16.6,14.9,28.2,15.9
	c2.9,0.3,9.3-0.1,12.9-1c9.4-2.4,17.3-8.2,22.6-16c-0.5-0.9-0.7-1.9-0.7-3c0-3.2,2.3-5.8,5.3-6.4c1.3-3.8,1.9-7.9,1.9-12.1
	C-496,417.6-508.2,402.5-524.8,398.1z M-565.6,425.1c-2,0-3.7-1.7-3.7-3.7c0-2.1,1.7-3.7,3.7-3.7c2,0,3.7,1.7,3.7,3.7
	C-561.9,423.4-563.6,425.1-565.6,425.1z M-504.3,438.1c-2.5,0-4.5-2-4.5-4.5c0-2.5,2-4.5,4.5-4.5c2.5,0,4.5,2,4.5,4.5
	C-499.8,436.1-501.9,438.1-504.3,438.1z"/>
<g>
	<circle class="st1" cx="-565.8" cy="470.2" r="12.2"/>
	<path class="st2" d="M-573.9,469.4c0.4-0.5,0.8-1.1,1.2-1.6c0.2-0.3,0.4-0.5,0.5-0.7c0.3-0.3,0.2-0.3-0.1-0.1c0,0.4,0,0.8,0,1.1
		c0,2.1-0.1,4.3-0.3,6.4c-0.1,0.8,1.3-0.2,1.4-0.8c0.1-1.4,0.2-2.8,0.2-4.2c0-0.6,0.5-3.9-0.3-4.1c-1.4-0.4-2.9,2.8-3.6,3.7
		C-575.5,470.1-574.4,470.1-573.9,469.4L-573.9,469.4z"/>
	<path class="st2" d="M-567.2,469.5c-0.6-0.3-2-1.6-0.9-2.3c0.4-0.3,0.9-0.2,1.4,0c1.1,0.3,0.3,1.2-0.2,1.6
		c-0.3,0.2-2.1,1.7-1.3,2.2c0.9,0.7,2.7-0.1,2.7,1.5c0,1.1-1.7,1.1-2.3,0.7c-1-0.7-1-1.7,0.2-2.4c0.5-0.3,1-1.7,0.1-1.1
		c-1.2,0.7-2.4,1.7-2.4,3.2c0,0.9,0.9,2,1.8,2c1.4,0.1,2.8-0.8,3.5-1.9c0.7-1.1,0.6-2.5-0.7-2.8c-0.4-0.1-1.4-0.4-1.7-0.1
		c0.5-0.6,1.3-1,1.7-1.6c0.9-1.2,0.6-2.5-1-2.8c-1.3-0.2-2.5,0.8-3.2,1.8c-0.8,1.4,0.1,2.6,1.3,3.3
		C-567.7,471.1-566.6,469.8-567.2,469.5L-567.2,469.5z"/>
	<g>
		<path class="st2" d="M-557.9,466.5c-1.6,2.6-3.5,5-5.4,7.5c-0.8,1.1,0.5,1,1,0.3c1.9-2.6,4-5.1,5.6-7.9
			C-555.9,465.3-557.5,465.9-557.9,466.5L-557.9,466.5z"/>
		<path class="st2" d="M-560.7,465.8c-1,0-1.7,0.9-1.8,1.8c-0.2,0.8,0.3,1.6,1.2,1.6C-559.6,469.3-558.6,465.9-560.7,465.8
			c-0.4,0-1.2,1-0.6,1c0.5,0,0.7,0.4,0.8,0.8c0,0.2,0,0.4-0.1,0.5c-0.1,0.1-0.1,0,0,0c-0.1,0-0.2,0-0.3,0c-0.4,0-0.7-0.4-0.7-0.8
			c0-0.2,0-0.4,0.1-0.5c0.1-0.1,0.1-0.1,0,0c0.1,0,0.1,0,0.2,0C-560.9,466.8-560.2,465.8-560.7,465.8z"/>
		<path class="st2" d="M-558,471.4c-1,0-1.7,0.9-1.8,1.8c-0.2,0.8,0.3,1.6,1.2,1.6C-556.8,474.9-555.9,471.5-558,471.4
			c-0.4,0-1.2,1-0.6,1c0.5,0,0.7,0.4,0.8,0.8c0,0.2,0,0.4-0.1,0.5c-0.1,0.1,0,0,0,0c-0.1,0-0.2,0-0.3,0c-0.4,0-0.7-0.4-0.7-0.8
			c0-0.2,0-0.4,0.1-0.5c0.1-0.1,0.1-0.1,0,0c0.1,0,0.1,0,0.2,0C-558.2,472.4-557.4,471.3-558,471.4z"/>
	</g>
</g>
<g>
	<g>
		<path class="st2" d="M-517.1,430.4c0.6-1.9,1-4.2-0.5-5.8c-0.9-1-2.3-1-3.4-0.8c0.1-0.8,0.2-1.5,0.3-2.3c0-0.6-1.3-0.5-1.7-0.4
			c-0.7,0.2-1.4,0.6-1.5,1.2c-0.1,2.9-0.6,5.8-1.2,8.7c-0.6,0.3-1.3,0.6-1.9,0.9c-0.4,0.2-0.7,0.4-1.2,0.2c-0.8-0.2-0.7-1.5-0.8-2.2
			c-0.1-2.6,0.1-5.5,1.6-7.6c0.3-0.5-0.2-0.9-1-0.8c-1,0.1-1.8,0.6-2.1,1.2c-1.4,2.9-1.5,6.1-1.1,9.4c0.1,1.1,0.4,1.8,1.7,2.1
			c1.5,0.3,3.2-0.6,4.4-1.3c0,0.2-0.1,0.4-0.1,0.6c-0.6,2.7-1.3,5.4-2.1,8.1c-0.2,0.6,0.4,0.7,0.7,0.5c0.4-0.2,1-0.6,1.2-1.2
			c0.7-1.8,1.3-3.7,1.9-5.5c0.7,0.3,1.6,0.3,2.6-0.1C-519.3,434.6-517.8,432.5-517.1,430.4z M-520.8,425.4
			C-520.8,425.4-520.8,425.4-520.8,425.4L-520.8,425.4z M-521.9,433.9C-521.9,433.9-521.9,433.9-521.9,433.9L-521.9,433.9z
			 M-521.9,433.8c0,0-0.1,0.1-0.1,0.1c0,0,0,0,0,0c-0.9-0.3-1-1.2-0.8-1.9c0-0.1,0-0.2,0-0.2c0.5-1.6,0.9-3.2,1.3-4.8
			c0,0,0-0.1,0-0.1c0.1-0.5,0.3-1,0.6-1.4c0,0,0,0,0,0c0,0,0,0,0,0c0.3,0.1,0.6,0.5,0.7,0.8c0.6,1.2,0.3,2.8,0,3.9
			C-520.5,431.5-521,432.9-521.9,433.8z"/>
		<path class="st2" d="M-534.9,424c-0.1,0-0.1,0-0.2,0c0,0-0.1,0-0.1,0c-0.7,0.1-1.3,0.3-1.9,0.7c-0.1-1.1-0.2-2.1-0.4-3.2
			c-0.1-0.5-1.1-0.1-1.4,0c-0.8,0.4-1.5,1.1-1.6,1.7c-0.2,1.3-0.4,2.6-0.7,3.9c-0.2,1.1-0.4,2.1-0.7,3.2c-0.1,0.5-0.3,0.9-0.4,1.4
			c-0.1,0.2-0.1,0.3-0.2,0.5c-0.5,0.6-1.4,0.7-2.2,0.5c-0.8-0.2-1.5-0.8-2.1-1.4c-1.5-1.7-2.4-3.9-2.8-6.1c-0.2-1.1-0.2-2.3-0.1-3.4
			c0.1-0.5,0.2-0.9,0.3-1.4c0.1-0.3,0.1-0.4,0.2-0.5c0-0.1,0.1-0.2,0.1-0.3c0,0,0,0,0,0c0,0,0-0.1,0.1-0.1c0,0,0,0,0-0.1
			c0,0,0,0,0.1-0.1c0,0,0.1-0.1,0.2-0.1c0.1-0.1,0.8-0.3,1.1-0.3c2-0.3,2.8,1.2,3.3,2.4c0.4,0.9,3.2-1.3,2.9-2.2
			c-0.7-1.9-2.5-3.2-4.5-2.9c-1.7,0.2-3.1,1-4.1,2.2c-2.2,2.5-2.7,6-2,9.2c0.6,2.8,2.2,5.5,4.6,7.1c0.9,0.6,2.1,0.9,3.1,0.7
			c2.3-0.5,3.8-3.1,4.7-5.2c0-0.1,0.1-0.2,0-0.3c0,0,0-0.1,0.1-0.1c0.1,2,1.5,4.2,3.6,4.1c2.3-0.1,3.7-3,4-5
			C-531.7,426.8-532.5,424.3-534.9,424z M-534.5,431.2c0,0.2-0.1,0.3-0.1,0.4c0,0-0.1,0-0.2,0c-1.3,0.1-1.9-1.8-2-2.7
			c0-0.1,0-0.2,0-0.3c0,0,0,0,0,0c0-0.2,0-0.3,0-0.5c0-0.4,0.1-0.8,0.2-1.2c0-0.1,0.1-0.3,0.2-0.4c0,0,0.1,0,0.2,0
			c1.5,0,2,1.8,2.1,2.8C-534.2,429.8-534.3,430.5-534.5,431.2z"/>
	</g>
</g>
<g>
	<g>
		<path class="st2" d="M-534.9,445.6c-0.5,0-0.5-1.3-0.6-1.6c-0.1-1.3-0.1-2.6-0.1-3.8c0,0,0-0.1,0-0.1c0-0.9-0.8-1.3-1.7-1.1
			c-0.9,0.2-1.5,1-1.9,1.7c-0.7,1.4-0.7,3.1-0.4,4.6c-0.1,0-0.1,0.1-0.2,0.1c-0.2,0.1-0.3,0.2-0.5,0.4c-0.5,0-1-1.9-1-2.2
			c-0.2-1.3-0.3-2.7-0.4-4.1c0-0.4-0.5-0.3-0.8-0.1c-0.4,0.2-0.8,0.7-0.8,1.1c0.1,1.3,0.2,2.6,0.2,3.9c0,0.6,0,1.1-0.2,1.7
			c0,0,0,0.1,0,0.1c-0.1,0-0.3,0-0.3,0c-0.9-0.2-1.1-1.9-1.2-2.6c-0.1-1.1-0.2-2.2,0-3.3c0-0.1,0-0.2,0-0.3c0-0.3-0.3-0.4-0.6-0.3
			c-0.5,0.2-0.8,0.6-0.9,1c-0.2,0.6-0.6,0.6-1.3,0.5c-0.4-0.1-0.7-0.2-1-0.4c-0.1,0-0.2,0-0.2,0c-0.3-0.2-0.6-0.4-1-0.3
			c0,0-0.1,0-0.2,0c0,0-0.1,0-0.1,0c-1.8,0.7-1.7,3.1-1.4,4.7c0.1,0.5,0.3,1.3,0.6,2.1c-0.2,0.4-0.6,0.6-1,0.5
			c-0.3-0.1-0.5-0.4-0.7-0.7c-0.6-0.9-1-2-1.3-3c-0.6-1.8-1.1-3.7-1.2-5.6c0-0.3-0.4-0.3-0.6-0.1c-0.3,0.2-0.6,0.6-0.7,1
			c-0.3,1.3-0.2,2.8-0.1,4.2c0,0,0,0,0,0.1c0-0.1-0.1-0.2-0.1-0.4c-0.4-1.1-0.7-2.1-1-3.2c-0.2-0.6-0.5-1.5-0.5-2.1
			c0-0.9-1.1,0.1-1.2,0.5c-0.9,2.7,0.1,5.5,0.7,8.1c0.1,0.7,0.2,1.4,0.3,2.1c0,0.5,0.1,1.4-0.3,1.8c-0.2,0.3-0.7,0.1-1,0
			c-0.4-0.2-0.7-0.5-0.8-0.9c-0.1-0.4-0.6-0.1-0.8,0.1c-0.3,0.3-0.6,0.8-0.4,1.2c0.3,0.9,1.4,1.7,2.4,1.3c1.6-0.6,1.9-2.6,2-4.1
			c0-0.9-0.1-1.8-0.2-2.7c0.6,1.6,1.2,3.2,1.8,4.7c0.3,0.8,1.2-0.7,1.1-1.2c-0.2-1.2-0.4-2.3-0.5-3.5c0.1,0.4,0.3,0.7,0.4,1.1
			c0.4,1,0.9,2.1,1.7,2.7c0.3,0.3,0.9,0.2,1.3,0c0.5-0.2,0.9-0.6,1.3-1.1c0.3,0.4,0.7,0.6,1.3,0.5c0.8-0.2,1.3-1.2,1.5-1.9
			c0.2-0.9,0.2-1.8,0.1-2.7c0-0.3-0.1-0.7-0.2-1.2h0c0.5,0,1-0.2,1.4-0.5c0,0.9,0.1,1.9,0.2,2.8c0.2,1,0.6,2.6,2,2.6
			c0.9,0,1.5-0.6,1.9-1.3c0.2,0.3,0.4,0.6,0.6,0.8c-0.6,0.9-0.9,1.8-0.4,2.7c0.4,0.6,1.6-0.7,1.3-1.2c-0.4-0.5-0.2-0.9,0.2-1.4
			c0,0,0.1-0.1,0.1-0.1c0.4-0.2,0.8-0.6,1-0.8c0,0,0.1-0.1,0.1-0.1c0.2,0.4,0.4,0.7,0.7,0.8c0.7,0.3,1.5-0.3,1.9-0.8
			c0,0,0-0.1,0.1-0.1c0.1,0.3,0.2,0.6,0.4,0.8c0.6,0.4,1.2,0,1.7-0.4c0.2-0.2,0.5-0.7,0.3-1C-534.4,445.3-534.7,445.5-534.9,445.6z
			 M-548.8,447.3C-548.8,447.4-548.8,447.4-548.8,447.3L-548.8,447.3z M-548.6,446.6c0,0.2,0,0.4-0.1,0.5c-0.3,0-0.6-0.5-0.8-0.7
			c-0.3-0.5-0.5-1.2-0.7-1.8c-0.2-0.6-0.3-1.3-0.2-2c0-0.2,0-0.3,0.1-0.5c0.8,0.1,1.3,2,1.4,2.5
			C-548.7,445.2-548.6,445.9-548.6,446.6z M-543.2,446.3C-543.2,446.3-543.2,446.3-543.2,446.3L-543.2,446.3z M-537.3,445.6
			c0,0-0.1,0-0.2,0c-0.3-0.1-0.4-0.6-0.5-0.8c-0.3-1-0.4-2.2-0.1-3.2c0.1-0.3,0.2-0.9,0.4-1c0,0,0.1,0,0.1,0c0.1,0,0.2,0,0.2,0
			c0.4,0,0.6,0.3,0.6,0.6c0,1.4,0.1,2.9-0.2,4.3C-537.2,445.3-537.3,445.5-537.3,445.6z"/>
		<path class="st2" d="M-508.1,451.4c-0.1-0.3-0.5-0.2-0.8-0.2c-0.5-0.2-0.1-1.5,0-1.8c0.3-1.2,0.8-2.4,1.3-3.6c0,0,0,0,0-0.1
			c0.3-0.8-0.3-1.5-1.3-1.7c-1-0.2-1.8,0.2-2.5,0.8c-1.2,1-1.8,2.5-2.1,4c-0.4,0.1-0.8,0.2-1.2,0.1c-0.3-0.1-0.3-0.6-0.3-0.9
			c0-1.9,0.5-3.7,1.1-5.5c0.1-0.3-0.1-0.4-0.4-0.4c-0.5,0-0.9,0.3-1.1,0.6c-0.9,1.1-1.5,2.4-1.9,3.8c-0.1,0.4-0.3,0.7-0.4,1.1
			c-0.1,0.1-0.1,0.3-0.2,0.4c-0.3-0.1-0.4-0.5-0.3-0.7c0.1-0.7-0.9-0.3-1.3,0.1c-0.1,0-0.2,0-0.3,0.1c-0.1-0.1-0.1-0.3-0.2-0.5
			c-0.1-0.5-0.1-1.1,0-1.6c0.1-1.5,0.3-2.9,0.6-4.4c0.1-0.3-0.2-0.4-0.5-0.4c-0.5,0-0.9,0.3-1.1,0.7c-0.8,1.2-1.3,2.6-1.7,3.9
			c-0.1,0.4-0.2,0.7-0.3,1.1c0,0.1-0.1,0.3-0.1,0.4c-0.3-0.1-0.4-0.4-0.4-0.6c0-0.1,0-0.1,0-0.2c0-0.5-0.8-0.3-1.2,0.1
			c-0.4,0.2-1,0.4-1.4,0.1c-0.3-0.2-0.4-0.5-0.5-0.8c1-0.9,2-1.9,2.6-3c0.3-0.6,0.6-1.6,0-2.2c-0.9-0.9-2.1-0.3-2.9,0.5
			c-1.1,0.4-2.4-0.1-3.2-0.9c-0.1-0.2-0.3-0.4-0.5-0.5c-0.6-0.4-1.3-0.1-1.8,0.2c0-0.5-0.1-1-0.1-1.5c0-0.4-0.7-0.1-0.9,0
			c-0.3,0.2-0.6,0.6-0.6,1c0.3,2.4,0.3,4.8,0.2,7.2c0,1.8-0.1,3.6-0.3,5.3c0,0.4,0.4,0.3,0.6,0.2c0.3-0.2,0.6-0.6,0.7-1
			c0.2-1.2,0.3-2.5,0.3-3.7c0.5,0,1.1-0.2,1.5-0.6c1.1-1,1.4-2.5,1.4-3.9c0-0.2,0-0.4,0-0.6c0,0,0,0,0.1,0c0.6,0.2,1.1,0.1,1.7,0
			c-0.5,1.3-0.7,2.8-0.4,4.1c0.1,0.5,0.4,1.1,0.9,1.3c0.6,0.3,1.5,0.1,2.2-0.3c0.1,0.3,0.4,0.6,0.8,0.7c0.8,0.2,1.6-0.2,2.1-0.7
			c0.2-0.2,0.4-0.5,0.5-0.8c0,0.1,0,0.3,0,0.4c0,0.5,0.1,1.1,0.3,1.5c0.3,0.5,1,0.3,1.4,0.1c0.1,0,0.1-0.1,0.2-0.1
			c0.1,0.3,0.3,0.6,0.7,0.7c0.7,0.3,1.5,0,2-0.5c0.2-0.2,0.4-0.4,0.6-0.7c0,0.5,0,1,0.1,1.5c0.3,1.2,1.8,1,2.9,0.6
			c0,0.4,0.1,0.8,0.4,1c0.5,0.6,1.5,0.4,2.1,0.1c0,0,0.1,0,0.1,0c0,0.3,0,0.6,0.1,0.9c0.4,0.7,1.3,0.5,1.9,0.3
			C-508.6,452-507.9,451.7-508.1,451.4z M-532.1,440.3C-532.1,440.2-532,440.2-532.1,440.3L-532.1,440.3z M-531.5,445.6
			C-531.5,445.6-531.5,445.6-531.5,445.6L-531.5,445.6z M-531.5,445.6c0,0,0,0.1-0.1,0.1c0,0,0,0,0,0c-0.5,0-0.8-0.5-0.8-1
			c0-0.1,0-0.1,0-0.1c0-1,0.1-2.1,0.1-3.1c0,0,0,0,0-0.1c0-0.3,0-0.6,0.1-1c0,0,0,0,0,0c0,0,0,0,0,0c0.2,0,0.4,0.2,0.5,0.4
			c0.5,0.6,0.5,1.6,0.5,2.4C-531.1,443.9-531.1,444.8-531.5,445.6z M-525.7,442.6c-0.3,0.5-0.6,1-1,1.4c0-0.8,0.2-1.5,0.4-2.2
			c0.1-0.2,0.2-0.5,0.3-0.7c0.1,0,0.1-0.1,0.2-0.1c0.1,0,0.1,0.1,0.2,0.2C-525.2,441.6-525.5,442.2-525.7,442.6z M-511.4,450.1
			c0,0-0.1,0-0.2-0.1c-0.2-0.2-0.2-0.7-0.2-1c0,0,0-0.1,0-0.1c0,0,0-0.1,0-0.2c0.1-1,0.5-2,1.1-2.8c0.2-0.3,0.6-0.7,0.7-0.8
			c0,0,0.1,0,0.1,0c0.1,0,0.2,0.1,0.2,0.1c0.4,0.1,0.5,0.5,0.3,0.8c-0.5,1.3-1,2.7-1.8,3.9C-511.2,449.8-511.3,450-511.4,450.1z"/>
	</g>
</g>
</svg>
