<?xml version="1.0" encoding="utf-8"?>
<!-- Generator: Adobe Illustrator 19.0.0, SVG Export Plug-In . SVG Version: 6.00 Build 0)  -->
<svg version="1.1" id="Layer_1" xmlns="http://www.w3.org/2000/svg" xmlns:xlink="http://www.w3.org/1999/xlink" x="0px" y="0px"
	 viewBox="-580 396.7 86 86" style="enable-background:new -580 396.7 86 86;" xml:space="preserve">
<style type="text/css">
	.st0{fill-rule:evenodd;clip-rule:evenodd;fill:#F8A671;}
	.st1{fill:#FFFFFF;}
	.st2{fill:#62BA47;}
</style>
<path class="st0" d="M-525.3,398.8c-0.6,3.2-3.4,5.7-6.8,5.7c-3.8,0-6.8-3-6.9-6.7c-19.2,2-34.2,18.2-34.3,38.1
	c0,3.9,0.6,7.6,1.7,11.1c0.1,0,0.3,0,0.4,0c3.8,0,6.8,3,6.8,6.8c0,1.7-0.6,3.2-1.6,4.4c6.4,8.8,16.4,14.7,27.8,15.7
	c2.9,0.3,9.2-0.1,12.7-1c9.2-2.4,17.1-8.1,22.3-15.8c-0.5-0.9-0.7-1.9-0.7-2.9c0-3.2,2.3-5.8,5.2-6.3c1.2-3.8,1.9-7.8,1.9-12
	C-496.9,418.1-509,403.2-525.3,398.8z M-565.7,425.4c-2,0-3.7-1.6-3.7-3.7c0-2,1.6-3.7,3.7-3.7c2,0,3.7,1.6,3.7,3.7
	C-562,423.8-563.6,425.4-565.7,425.4z M-505.2,438.3c-2.5,0-4.5-2-4.5-4.4c0-2.5,2-4.5,4.5-4.5c2.5,0,4.4,2,4.4,4.5
	C-500.7,436.3-502.7,438.3-505.2,438.3z"/>
<g>
	<g>
		<g>
			<path class="st1" d="M-517.9,430.6c0.6-1.8,1-4.2-0.5-5.7c-0.9-0.9-2.3-1-3.3-0.8c0.1-0.8,0.2-1.5,0.3-2.3c0-0.6-1.3-0.5-1.6-0.4
				c-0.7,0.2-1.4,0.6-1.4,1.2c-0.1,2.9-0.6,5.8-1.2,8.6c-0.6,0.3-1.3,0.6-1.9,0.9c-0.4,0.2-0.7,0.4-1.2,0.2
				c-0.8-0.2-0.7-1.5-0.8-2.2c-0.1-2.6,0.1-5.4,1.6-7.5c0.3-0.5-0.1-0.9-1-0.8c-0.9,0.1-1.8,0.6-2.1,1.2c-1.4,2.9-1.5,6-1.1,9.3
				c0.1,1.1,0.4,1.8,1.7,2c1.5,0.3,3.1-0.6,4.3-1.3c0,0.2-0.1,0.4-0.1,0.6c-0.6,2.7-1.3,5.3-2.1,8c-0.2,0.6,0.4,0.6,0.7,0.5
				c0.4-0.2,1-0.6,1.2-1.2c0.7-1.8,1.3-3.6,1.8-5.4c0.7,0.3,1.6,0.2,2.5-0.1C-520.1,434.7-518.6,432.7-517.9,430.6z M-521.6,425.7
				C-521.5,425.7-521.5,425.7-521.6,425.7L-521.6,425.7z M-522.7,434.1C-522.7,434.1-522.7,434.1-522.7,434.1L-522.7,434.1z
				 M-522.6,434c0,0-0.1,0.1-0.1,0.1c0,0,0,0,0,0c-0.9-0.2-1-1.2-0.8-1.9c0-0.1,0-0.2,0-0.2c0.5-1.6,0.9-3.1,1.3-4.7
				c0,0,0-0.1,0-0.1c0.1-0.5,0.3-1,0.6-1.4c0,0,0,0,0,0c0,0,0,0,0,0c0.3,0.1,0.6,0.5,0.7,0.8c0.5,1.2,0.3,2.7,0,3.9
				C-521.2,431.7-521.7,433.1-522.6,434z"/>
			<path class="st1" d="M-535.4,424.3c-0.1,0-0.1,0-0.2,0c0,0-0.1,0-0.1,0c-0.7,0.1-1.3,0.3-1.8,0.7c-0.1-1.1-0.2-2.1-0.4-3.1
				c-0.1-0.5-1.1-0.1-1.4,0c-0.8,0.4-1.5,1.1-1.5,1.7c-0.2,1.3-0.4,2.6-0.6,3.8c-0.2,1.1-0.4,2.1-0.7,3.2c-0.1,0.5-0.3,0.9-0.4,1.3
				c-0.1,0.2-0.1,0.3-0.2,0.4c-0.5,0.6-1.4,0.7-2.2,0.5c-0.8-0.2-1.5-0.8-2.1-1.4c-1.5-1.6-2.4-3.8-2.8-6c-0.2-1.1-0.2-2.2-0.1-3.4
				c0.1-0.4,0.2-0.9,0.3-1.3c0.1-0.3,0.1-0.4,0.2-0.5c0-0.1,0.1-0.2,0.1-0.3c0,0,0,0,0,0c0,0,0,0,0.1-0.1c0,0,0,0,0-0.1
				c0,0,0,0,0.1-0.1c0,0,0.1-0.1,0.2-0.1c0.1-0.1,0.8-0.3,1.1-0.3c1.9-0.3,2.7,1.2,3.2,2.4c0.4,0.9,3.2-1.3,2.8-2.2
				c-0.7-1.9-2.4-3.1-4.5-2.9c-1.7,0.2-3.1,1-4.1,2.2c-2.1,2.5-2.6,5.9-2,9c0.6,2.8,2.2,5.4,4.6,7c0.9,0.6,2.1,0.9,3,0.7
				c2.3-0.5,3.8-3,4.6-5.1c0-0.1,0.1-0.2,0-0.3c0,0,0-0.1,0.1-0.1c0.1,2,1.5,4.1,3.6,4.1c2.3-0.1,3.6-2.9,3.9-5
				C-532.3,427.1-533.1,424.6-535.4,424.3z M-535,431.4c0,0.2-0.1,0.3-0.1,0.4c0,0-0.1,0-0.2,0c-1.2,0.1-1.9-1.7-2-2.7
				c0-0.1,0-0.2,0-0.3c0,0,0,0,0,0c0-0.2,0-0.3,0-0.5c0-0.4,0.1-0.8,0.2-1.2c0-0.1,0.1-0.3,0.2-0.4c0,0,0.1,0,0.2,0
				c1.5,0,1.9,1.8,2.1,2.8C-534.8,430-534.9,430.7-535,431.4z"/>
		</g>
	</g>
	<g>
		<path class="st1" d="M-509.5,452.1c-0.1-0.3-0.5-0.3-0.8-0.2c-0.5-0.2-0.1-1.7,0-2c0.4-1.4,0.9-2.7,1.5-4c0,0,0-0.1,0-0.1
			c0.3-0.9-0.3-1.7-1.4-1.9c-1-0.2-2,0.3-2.7,0.9c-1.2,1.1-1.9,2.6-2.2,4.2c-0.4,0.3-0.8,0.6-1.2,0.5c0,0,0-0.1,0-0.1
			c0-0.4,0-0.8,0.1-1.1c0.4-1.8,1.3-3.7,1.1-5.6c-0.2-1.5-1.8-0.6-2.6,0.1c0-0.5,0-1-0.3-1.4c-0.3-0.5-1-0.4-1.4-0.2
			c-0.3,0.1-0.6,0.3-0.8,0.5c0-0.2,0.1-0.5,0.1-0.7c0.1-0.9-1.8-0.1-1.8,0.5c-0.1,1.5-0.4,2.9-0.7,4.4c-0.5,0.6-1.2,1.1-1.9,1.4
			c-0.2,0.1-0.1,0-0.2,0.1c0,0,0,0,0,0c0-0.1-0.1-0.1-0.1-0.2c-0.2-1,0.1-2.1,0.3-3c0.1-1,0.2-2,0.1-3c-0.1-0.6-0.3-1.4-1.2-1.3
			c-0.8,0.1-1.3,0.6-1.8,1.1c-0.1-0.5-0.2-0.9-0.5-1.2c-0.4-0.4-1.1-0.2-1.5,0c-0.3,0.2-0.5,0.4-0.8,0.7c0-0.2,0-0.4,0-0.7
			c0-0.1,0-0.2-0.1-0.3c-0.1-0.1-0.1-0.1-0.2-0.1c-0.1,0-0.2,0-0.3,0c-0.3,0.1-0.6,0.3-0.8,0.5c-0.2,0.2-0.3,0.4-0.4,0.5
			c-0.3,0.5-0.7,0.4-1.2,0.2c-0.3-0.1-0.5-0.3-0.8-0.5c-0.2-0.4-0.6-0.7-1.1-0.8c0,0-0.1,0-0.2,0c0,0-0.1,0-0.1,0
			c-2.1,0.3-2.5,3.1-2.5,4.8c0,0.6,0,1.7,0.3,2.6c0,0.1,0,0.1,0,0.2c0,0,0,0,0,0c-0.1,0-0.2,0-0.3,0.1c-0.1,0-0.4,0-0.5,0
			c-0.5-0.3-0.5-1.5-0.6-2.1c-0.1-1.6,0-3.3,0.2-4.9c0.1-0.5-0.5-0.3-0.8-0.2c-0.4,0.3-0.8,0.7-0.8,1.2c0,0-0.1,0.3-0.1,0.5
			c-0.1,0.2-0.1,0.6-0.2,0.9c0,0-0.1,0-0.2,0c-0.3,0-0.6-0.2-0.9-0.4c-0.5-0.4-0.7-1.1-0.6-1.7c0.1-0.4-0.2-0.6-0.6-0.4
			c-0.4,0.2-0.9,0.7-1,1.1c0,0.2-0.1,0.5,0,0.7c0,0.1,0,0.2,0,0.3c-0.1,1.8-0.6,3.7-1.2,5.4c0,0.1-0.1,0.3-0.1,0.4c0,0,0,0-0.1,0
			c-0.3,0-0.5-0.8-0.6-1c-0.3-0.9-0.5-1.9-0.7-2.9c0-0.3-0.1-0.6-0.1-0.9c0-0.4-0.1-0.7-0.1-1.1c0,0,0-0.1,0-0.1
			c-0.2-1-1.1-1.3-2.1-0.9c-1,0.4-1.5,1.3-1.8,2.2c-0.4,1.2-0.3,2.6,0,3.9c-0.1,0.5-0.3,1-0.5,1.4c-0.1,0.2-0.2,0.4-0.3,0.6
			c0,0,0,0.1-0.1,0.1c0,0-0.1,0-0.1,0.1c-0.8,0.1-1.3-2.3-1.5-2.8c-0.3-0.8-0.7-1.7-1.6-2.1c-0.7-0.3-1.4,0-2.1,0.5
			c-0.4-1.2-0.6-2.5-0.3-3.8c0.3-1.4,1.8-1,2.7-0.5c0.6,0.4,1.8-1.4,1.1-1.8c-0.9-0.5-1.9-0.9-2.9-0.4c-0.8,0.5-1.5,1.3-1.9,2.2
			c-0.1,0.2-0.1,0.3-0.2,0.5c-0.4-0.9-0.9-1.8-1.3-2.7c-0.2-0.3-0.7,0.1-0.8,0.2c-1.6,1.5-4.3,4.5-2.7,6.8c0.4,0.6,1.6-1.2,1.2-1.8
			c-0.7-0.9,0.3-2.2,1.2-3.1c1.1,2.1,2,4.1,2.8,6.3c0.5,1.3,1,2.8,0.6,4.1c-0.4,1.2-2.2,0.5-2.5-0.5c-0.3-0.9-1.5,0.9-1.2,1.4
			c0.3,0.7,0.8,1.3,1.5,1.5c0.7,0.3,1.4-0.1,2-0.5c1.3-1,1.8-2.9,1.6-4.5c-0.1-0.7-0.2-1.4-0.4-2.2c0.6-0.2,1.1,0,1.5,0.6
			c0.8,1.1,0.9,2.6,1.6,3.7c0.7,1,1.7,0.4,2.3-0.4c0.3-0.5,0.6-0.9,0.8-1.4c0.2,0.6,0.6,1.2,1.2,1.4c0.8,0.2,1.6-0.6,1.9-1.2
			c0,0,0-0.1,0.1-0.1c0.7,1.5,2.2,0.6,2.8-0.6c0.7-1.2,1-2.7,1.3-4c0-0.1,0.1-0.2,0.1-0.4c0.7,0.5,1.6,0.4,2.3,0c0,0,0.1,0,0.1-0.1
			c0,1.2,0,2.5,0.3,3.6c0.2,0.9,0.6,1.3,1.4,1.3c0.7,0,1.3-0.3,1.7-0.8c0.3,0.4,0.6,0.6,1.1,0.7c0.8,0,1.6-1,1.9-1.7
			c0.4-0.9,0.6-2,0.6-3c0-0.3,0-0.8,0-1.3c0.5,0,1-0.2,1.5-0.5c-0.1,2.1-0.3,4.1-0.4,6.2c0,0.9,1.5-0.2,1.5-0.8
			c0.2-1.9,0.5-3.7,1.1-5.4c0-0.1,0.1-0.3,0.2-0.4c0,0,0,0,0,0.1c0.3,1.1,0.2,2.3,0.1,3.3c0,0.5-0.1,1-0.1,1.4
			c-0.1,0.7-0.2,1.3-0.2,2c-0.1,0.9,1.5-0.1,1.6-0.7c0.1-0.5,0.2-1,0.2-1.5c0.2-0.8,0.4-1.6,0.6-2.4c0.2-0.7,0.4-1.3,0.8-2
			c0.1,0.3,0.1,0.6,0.1,0.9c0.1,1,0,2.1-0.2,3.1c-0.1,0.8-0.7,3.4,0.9,3.2c0.9-0.1,1.8-0.6,2.6-1.2c-0.1,0.5-0.2,0.9-0.3,1.4
			c-0.2,0.9,1.5,0.1,1.6-0.5c0.4-1.8,1-3.6,1.8-5.2c0.1-0.1,0.2-0.3,0.2-0.4c0,0,0,0,0,0.1c0.1,1.1-0.2,2.3-0.4,3.3
			c-0.1,0.5-0.2,1-0.3,1.5c-0.2,0.6-0.3,1.2-0.5,1.8c-0.2,0.9,1.5,0.1,1.6-0.5c0.2-0.7,0.4-1.3,0.6-2c0.4-1.3,1-2.5,1.7-3.5
			c0,0.1,0,0.2,0,0.3c0,0.9-0.2,1.8-0.4,2.7c-0.2,0.9-0.5,1.9-0.7,2.8c-0.1,0.5-0.1,1,0.2,1.4c0.3,0.3,0.9,0.1,1.2,0.1
			c0.4-0.1,0.9-0.2,1.3-0.5c0,0.5,0.1,1,0.4,1.3c0.6,0.6,1.6,0.4,2.3,0c0,0,0.1,0,0.1-0.1c0,0.3,0,0.7,0.1,1
			c0.4,0.7,1.4,0.5,2.1,0.3C-509.9,452.8-509.3,452.4-509.5,452.1z M-547.9,447.9c0,0-0.1,0.1-0.2,0c-0.3-0.1-0.6-0.6-0.7-0.8
			c-0.2-0.4-0.4-0.9-0.5-1.4c0-0.1,0-0.1,0-0.2c-0.1-0.7-0.2-1.4-0.2-2c0-0.4,0.1-1,0.2-1.2c0,0,0.1,0,0.1-0.1
			c0.1,0,0.2-0.1,0.3-0.1c0.4-0.1,0.7,0.2,0.7,0.5c0.2,1.6,0.5,3.2,0.5,4.8C-547.9,447.5-547.9,447.7-547.9,447.9z M-535.3,446.8
			C-535.3,446.8-535.3,446.8-535.3,446.8L-535.3,446.8z M-535,446c0,0.2-0.1,0.4-0.2,0.6c-0.3-0.1-0.5-0.7-0.6-1
			c0-0.1-0.1-0.2-0.1-0.4c0-0.1,0-0.1,0-0.1c-0.1-0.5-0.2-1.1-0.2-1.6c0-0.7,0-1.5,0.2-2.2c0-0.2,0.1-0.4,0.2-0.5
			c0.1,0,0.2,0.1,0.3,0.2c0,0.1,0,0.2,0.1,0.3c0,0,0.1,0.1,0.1,0.1c0.3,0.8,0.4,2,0.4,2.5C-534.8,444.5-534.8,445.3-535,446z
			 M-512.9,450.7c0,0-0.1,0-0.2-0.1c-0.3-0.2-0.2-0.8-0.2-1.1c0.1-1.2,0.5-2.5,1.2-3.4c0.2-0.3,0.6-0.8,0.8-0.9c0,0,0.1,0,0.1,0
			c0.1,0,0.2,0.1,0.3,0.1c0.4,0.1,0.5,0.5,0.4,0.9c-0.6,1.5-1.2,3-2,4.4C-512.7,450.5-512.8,450.6-512.9,450.7z"/>
	</g>
</g>
<g>
	<g>
		<path class="st2" d="M-553.1,470.1c0-6.7-5.4-12.1-12.1-12.1c-6.7,0-12.1,5.4-12.1,12.1c0,6.7,5.4,12.1,12.1,12.1
			C-558.5,482.1-553.1,476.7-553.1,470.1z"/>
	</g>
	<g>
		<path class="st1" d="M-572.8,468.1c0.5-1.3,1.5-0.4,1.8,0.2c0.5,0.9-0.1,1.9-0.6,2.7c-0.5,0.6-1.1,1.2-1.8,1.6
			c-0.4,0.2-0.6,0.4-0.9,0.8c-0.1,0.1-0.2,0.4,0,0.5c0.5,0.4,1.5,0.3,2.1,0.4c1,0.1,2.1,0,3.1-0.5c0.5-0.3,1-1.6,0.1-1.1
			c-0.7,0.4-1.7,0.3-2.4,0.3c-0.4,0-1.3,0-1.6-0.2c0,0.2,0,0.4,0,0.5c-0.5,0.8-0.2,0.3,0.2,0.1c0.3-0.2,0.6-0.4,0.9-0.7
			c0.5-0.4,1-0.9,1.4-1.4c0.8-1,1.4-2.3,1.1-3.6c-0.5-3-3.8-0.8-4.4,0.8C-574.3,469.3-573,468.5-572.8,468.1L-572.8,468.1z"/>
		<path class="st1" d="M-566.4,468.1c0.5-1.3,1.5-0.4,1.8,0.2c0.5,0.9-0.1,1.9-0.6,2.7c-0.5,0.6-1.1,1.2-1.8,1.6
			c-0.4,0.2-0.6,0.4-0.9,0.8c-0.1,0.1-0.2,0.4,0,0.5c0.5,0.4,1.5,0.3,2.1,0.4c1,0.1,2.1,0,3.1-0.5c0.5-0.3,1-1.6,0.1-1.1
			c-0.7,0.4-1.7,0.3-2.4,0.3c-0.4,0-1.3,0-1.6-0.2c0,0.2,0,0.4,0,0.5c-0.5,0.8-0.2,0.3,0.2,0.1c0.3-0.2,0.6-0.4,0.9-0.7
			c0.5-0.4,1-0.9,1.4-1.4c0.8-1,1.4-2.3,1.1-3.6c-0.5-3-3.8-0.8-4.4,0.8C-568,469.3-566.6,468.5-566.4,468.1L-566.4,468.1z"/>
		<g>
			<path class="st1" d="M-556.8,466.9c-1.4,2.3-3.2,4.5-4.8,6.7c-0.7,0.9,0.4,0.9,0.9,0.3c1.7-2.3,3.6-4.6,5-7
				C-555,465.9-556.4,466.4-556.8,466.9L-556.8,466.9z"/>
			<path class="st1" d="M-559.3,466.3c-0.9,0-1.5,0.8-1.6,1.6c-0.1,0.7,0.3,1.4,1.1,1.4C-558.3,469.4-557.5,466.4-559.3,466.3
				c-0.4,0-1,0.9-0.5,0.9c0.4,0,0.6,0.4,0.7,0.7c0,0.1,0,0.3,0,0.5c-0.1,0.1,0,0,0,0c-0.1,0-0.2,0-0.2,0c-0.4,0-0.6-0.4-0.7-0.7
				c0-0.2,0-0.3,0.1-0.5c0.1-0.1,0.1,0,0,0c0.1,0,0.1,0,0.2,0C-559.5,467.2-558.8,466.3-559.3,466.3z"/>
			<path class="st1" d="M-556.9,471.3c-0.9,0-1.5,0.8-1.6,1.6c-0.1,0.7,0.3,1.4,1.1,1.4C-555.8,474.4-555,471.3-556.9,471.3
				c-0.4,0-1,0.9-0.5,0.9c0.4,0,0.6,0.4,0.7,0.7c0,0.1,0,0.3-0.1,0.5c-0.1,0.1,0,0,0,0c-0.1,0-0.2,0-0.2,0c-0.4,0-0.6-0.4-0.7-0.7
				c0-0.2,0-0.3,0.1-0.5c0-0.1,0.1,0,0,0c0.1,0,0.1,0,0.2,0C-557,472.2-556.4,471.2-556.9,471.3z"/>
		</g>
	</g>
</g>
</svg>
