<?xml version="1.0" encoding="utf-8"?>
<!-- Generator: Adobe Illustrator 19.0.0, SVG Export Plug-In . SVG Version: 6.00 Build 0)  -->
<svg version="1.1" id="Layer_1" xmlns="http://www.w3.org/2000/svg" xmlns:xlink="http://www.w3.org/1999/xlink" x="0px" y="0px"
	 viewBox="-580 396.7 86 86" style="enable-background:new -580 396.7 86 86;" xml:space="preserve">
<style type="text/css">
	.st0{fill-rule:evenodd;clip-rule:evenodd;fill:#80CDC7;}
	.st1{fill:#FFFFFF;}
	.st2{fill:#62BA47;}
</style>
<path class="st0" d="M-524.9,398.1c-0.6,3.3-3.5,5.8-6.9,5.8c-3.8,0-6.9-3-7-6.8c-19.5,2-34.7,18.5-34.8,38.6
	c0,3.9,0.6,7.7,1.7,11.3c0.1,0,0.3,0,0.4,0c3.8,0,6.9,3.1,6.9,6.9c0,1.7-0.6,3.3-1.6,4.5c6.5,8.9,16.6,14.9,28.2,15.9
	c2.9,0.3,9.3-0.1,12.9-1c9.4-2.4,17.4-8.2,22.6-16c-0.5-0.9-0.7-1.9-0.7-3c0-3.2,2.3-5.9,5.3-6.4c1.3-3.8,1.9-7.9,1.9-12.1
	C-496.1,417.6-508.3,402.5-524.9,398.1z M-565.8,425.1c-2,0-3.7-1.7-3.7-3.7c0-2.1,1.7-3.7,3.7-3.7s3.7,1.7,3.7,3.7
	C-562.1,423.4-563.8,425.1-565.8,425.1z M-504.4,438.2c-2.5,0-4.5-2-4.5-4.5c0-2.5,2-4.5,4.5-4.5c2.5,0,4.5,2,4.5,4.5
	C-499.9,436.2-501.9,438.2-504.4,438.2z"/>
<g>
	<g>
		<path class="st1" d="M-517.2,430.5c0.6-1.9,1-4.2-0.5-5.8c-0.9-1-2.3-1-3.4-0.8c0.1-0.8,0.2-1.5,0.3-2.3c0-0.6-1.3-0.5-1.7-0.4
			c-0.7,0.2-1.4,0.6-1.5,1.2c-0.1,2.9-0.6,5.9-1.2,8.7c-0.6,0.3-1.3,0.6-1.9,0.9c-0.4,0.2-0.7,0.4-1.2,0.2c-0.8-0.2-0.7-1.5-0.8-2.2
			c-0.1-2.6,0.1-5.5,1.6-7.7c0.3-0.5-0.2-0.9-1-0.8c-1,0.1-1.8,0.6-2.1,1.2c-1.4,2.9-1.5,6.1-1.2,9.4c0.1,1.1,0.4,1.8,1.7,2.1
			c1.5,0.3,3.2-0.6,4.4-1.3c0,0.2-0.1,0.4-0.1,0.6c-0.6,2.7-1.4,5.4-2.1,8.1c-0.2,0.6,0.4,0.7,0.7,0.5c0.4-0.2,1-0.6,1.2-1.2
			c0.7-1.8,1.3-3.7,1.9-5.5c0.7,0.3,1.6,0.3,2.6-0.1C-519.3,434.6-517.9,432.6-517.2,430.5z M-520.9,425.5
			C-520.8,425.5-520.8,425.5-520.9,425.5L-520.9,425.5z M-522,434C-522,434-522,434-522,434L-522,434z M-521.9,433.9
			c0,0-0.1,0.1-0.1,0.1c0,0,0,0,0,0c-0.9-0.3-1-1.2-0.8-1.9c0-0.1,0-0.2,0-0.2c0.5-1.6,0.9-3.2,1.3-4.8c0,0,0-0.1,0-0.1
			c0.1-0.5,0.3-1,0.6-1.4c0,0,0,0,0,0c0,0,0,0,0,0c0.3,0.1,0.6,0.5,0.7,0.8c0.6,1.2,0.3,2.8,0,3.9
			C-520.5,431.6-521.1,433-521.9,433.9z"/>
		<path class="st1" d="M-535,424.1c-0.1,0-0.1,0-0.2,0c0,0-0.1,0-0.1,0c-0.7,0.1-1.3,0.3-1.9,0.7c-0.1-1.1-0.2-2.1-0.4-3.2
			c-0.1-0.5-1.1-0.1-1.4,0c-0.8,0.4-1.5,1.1-1.6,1.7c-0.2,1.3-0.4,2.6-0.7,3.9c-0.2,1.1-0.4,2.1-0.7,3.2c-0.1,0.5-0.3,0.9-0.4,1.4
			c-0.1,0.2-0.1,0.3-0.2,0.5c-0.5,0.6-1.4,0.7-2.2,0.5c-0.8-0.2-1.5-0.8-2.1-1.4c-1.5-1.7-2.4-3.9-2.8-6.1c-0.2-1.1-0.3-2.3-0.1-3.4
			c0.1-0.5,0.2-0.9,0.3-1.4c0.1-0.3,0.1-0.4,0.2-0.5c0-0.1,0.1-0.2,0.1-0.3c0,0,0,0,0,0c0,0,0-0.1,0.1-0.1c0,0,0,0,0-0.1
			c0,0,0,0,0.1-0.1c0,0,0.1-0.1,0.2-0.1c0.1-0.1,0.8-0.3,1.1-0.3c2-0.3,2.8,1.2,3.3,2.4c0.4,0.9,3.2-1.3,2.9-2.2
			c-0.7-1.9-2.5-3.2-4.5-2.9c-1.7,0.2-3.1,1-4.1,2.2c-2.2,2.5-2.7,6-2,9.2c0.6,2.8,2.2,5.5,4.6,7.1c0.9,0.6,2.1,0.9,3.1,0.7
			c2.3-0.5,3.8-3.1,4.7-5.2c0-0.1,0.1-0.2,0-0.3c0,0,0-0.1,0.1-0.1c0.1,2,1.5,4.2,3.6,4.1c2.3-0.1,3.7-3,4-5
			C-531.8,426.9-532.6,424.4-535,424.1z M-534.5,431.2c0,0.2-0.1,0.3-0.1,0.4c0,0-0.1,0-0.3,0c-1.3,0.1-1.9-1.8-2-2.7
			c0-0.1,0-0.2,0-0.3c0,0,0,0,0,0c0-0.2,0-0.3,0-0.5c0-0.4,0.1-0.8,0.2-1.2c0-0.1,0.1-0.3,0.2-0.4c0,0,0.1,0,0.2,0
			c1.5,0,2,1.8,2.1,2.8C-534.3,429.8-534.4,430.6-534.5,431.2z"/>
	</g>
</g>
<g>
	<path class="st1" d="M-507.4,445.9c0,0-0.1-0.1-0.2-0.1c0,0-0.1,0-0.1,0c-2-0.6-3.4,1.6-4,3.1c-0.1,0.3-0.3,0.8-0.4,1.3
		c-0.4,0.3-0.7,0.7-1.2,0.9c0,0,0,0-0.1,0c0,0,0,0-0.1,0c0,0,0,0,0-0.1c-0.1-0.2,0-0.6,0-0.8c0.1-1,0.4-2,0.8-2.9
		c0.2-0.6,0.4-1.2,0.7-1.7c0.2-0.2,0.3-0.5,0.5-0.7c0.2-0.3,0.1-0.6-0.3-0.6c-0.5,0-1,0.2-1.2,0.6c-0.2,0.3-0.4,0.6-0.6,0.9
		c-0.3,0.4-0.6,0.8-0.9,1.1c-0.3,0.3-0.5,0.3-0.9,0.5c0,0-0.1,0-0.1,0.1c0.3-1.3,0.6-2.6,0.9-3.9c0.2-0.9-1.6-0.3-1.7,0.3
		c-0.3,1.4-0.5,2.8-0.9,4.3c-0.4,0.4-0.8,0.8-1.3,1.1c0,0-0.1,0.1-0.2,0.1c0,0-0.1,0-0.1,0c0,0-0.1,0-0.1,0c0,0,0,0,0-0.1
		c-0.1-0.1-0.1-0.3-0.1-0.4c-0.1-1,0.1-2.1,0.3-3.1c0.1-0.5,0.2-1,0.3-1.5c0.2-0.5,0.3-1.1,0.5-1.6c0.1-0.4-0.4-0.5-0.7-0.4
		c-0.4,0.1-0.9,0.4-1,0.8c-0.2,0.5-0.3,1-0.5,1.5c-0.4,1.1-0.8,2.3-1.4,3.3c-0.1,0.2-0.2,0.3-0.3,0.5c-0.1,0.2-0.2,0.2-0.2,0.2
		c0,0,0,0,0,0c-0.1,0-0.2,0-0.3,0c-0.3-0.1-0.2-1,0-2.2c0-0.1,0.1-0.2,0.1-0.2c0-0.1,0-0.2,0-0.2c0.3-1.3,0.7-2.7,0.9-4
		c0.1-0.8-1.7-0.1-1.8,0.5c-0.2,1.4-0.5,2.8-0.8,4.2c0,0,0,0,0,0c-0.2,0.6-0.5,1.2-1.3,1.2c-0.7,0-0.8-0.3-0.9-0.9
		c-0.1-0.7,0-1.5-0.3-2.2c-0.3-0.6-0.9-0.7-1.5-0.6c0-0.1,0.1-0.2,0.1-0.3c0-0.1,0.1-0.2,0.1-0.3c0.2-0.4,0.4-0.9,0.6-1.2
		c0.1-0.1,0.2-0.2,0.2-0.2c0,0,0,0,0,0c0,0,0,0,0,0c0,0,0,0,0,0c0.2,0.1,0.5,0.3,0.6,0.4c0.6,0.5,2.3-0.6,1.7-1.1
		c-0.7-0.6-1.5-0.7-2.2-0.5c-0.5,0.2-1,0.5-1.4,0.8c-0.1,0.1-0.1,0.1-0.2,0.2c0-0.9,0-1.7-0.2-2.6c-0.1-0.7-1.8,0.4-1.7,1
		c0.3,1.7,0.2,3.4,0.1,5.2c0,0,0,0.1,0,0.1c-0.2,0.6-0.4,1.3-1.1,1.4c-0.6,0.1-0.8-0.1-0.9-0.6c-0.1-0.7-0.1-1.6-0.5-2.2
		c-0.3-0.5-0.9-0.6-1.4-0.4c0-0.1,0-0.2,0.1-0.3c0-0.1,0-0.2,0.1-0.3c0.1-0.4,0.3-0.9,0.5-1.3c0.1-0.1,0.2-0.2,0.2-0.3c0,0,0,0,0,0
		h0c0,0,0,0,0,0c0.2,0,0.5,0.2,0.5,0.3c0.6,0.4,2-0.8,1.5-1.3c-0.7-0.6-1.4-0.6-2-0.3c-0.4,0.2-0.8,0.5-1.2,1
		c-0.1,0.1-0.1,0.1-0.2,0.2c-0.1-0.9-0.2-1.7-0.4-2.5c-0.2-0.7-1.7,0.5-1.5,1.1c0.4,1.8,0.5,3.6,0.5,5.5c-0.2,0.4-0.5,0.8-0.8,1.2
		c-0.2,0.2-0.3,0.4-0.4,0.4c0,0,0,0-0.1,0c-0.1,0,0,0-0.1-0.1c-0.4-0.3-0.4-1.2-0.5-1.7c-0.2-1.3-0.2-2.7-0.2-4c0,0,0-0.1,0-0.1
		c-0.1-0.9-0.8-1.3-1.8-1.1c-0.1-0.1-0.3-0.1-0.5,0c-0.4,0.2-0.7,0.5-0.9,0.8c-0.2,0.2-0.4,0.4-0.5,0.6c-0.7,0.3-2.1-0.1-2.8-0.4
		c0,0-0.1,0-0.1,0c-0.2-0.2-0.4-0.3-0.7-0.4c-0.7-0.2-1.5,0.2-2,0.6c-0.1-0.5-0.3-1-0.5-1.5c-0.1-0.4-0.8,0.1-1,0.2
		c-0.3,0.3-0.6,0.8-0.5,1.2c0.6,1.8,1,3.6,1.4,5.5c-0.2,0.5-0.6,1.3-0.9,1.4c-0.1,0-0.2,0.1-0.3,0.1c-0.1,0-0.1-0.1-0.2-0.2
		c-0.5-0.8-0.5-1.8-0.7-2.7c-0.2-0.9-0.5-1.8-0.9-2.7c-0.2-0.5-0.7-1.2-1.4-0.7c-0.6,0.3-0.9,1-1.1,1.6c-0.2-0.4-0.5-0.7-0.8-0.9
		c-0.4-0.2-1,0.2-1.2,0.6c-0.2,0.3-0.3,0.6-0.4,0.9c-0.1-0.2-0.1-0.4-0.2-0.6c-0.3-0.8-1.5,0.8-1.3,1.3c0.2,0.5,0.3,0.9,0.5,1.4
		c0.1,1.4-0.1,2.9-0.6,4.2c-0.3,0.7-0.4,0.9-1.2,0.9c-1.5-0.1-2.4-1.9-3-3.2c-0.7-1.6-1.1-3.5-0.7-5.2c0-0.2,0-0.1,0.1-0.3
		c0-0.1,0-0.1,0.1-0.2c0,0,0,0,0,0c0,0,0.1-0.1,0.1-0.1s0.2-0.1,0.3-0.1c1.3-0.4,2,0.5,2.5,1.4c0.3,0.6,1.5-1,1.2-1.6
		c-0.5-1-1.3-2-2.7-1.7c-1,0.2-1.7,0.9-2.2,1.7c-1.1,1.8-1,4-0.4,6c0.5,1.8,1.4,3.7,3.1,4.8c0.6,0.4,1.4,0.4,2.1,0.1
		c1-0.4,1.5-1.9,1.9-2.7c0.1-0.4,0.2-0.7,0.3-1.1c0.2,0.8,0.5,1.6,0.7,2.4c0.3,0.8,1.3-0.7,1.1-1.3c-0.4-1.7-0.7-3.4-0.8-5.1
		c0-0.1,0-0.3,0-0.4c0,0,0,0,0,0c0.6,0.8,0.9,1.9,1.1,2.9c0.1,0.4,0.2,0.9,0.3,1.3c0.1,0.6,0.3,1.2,0.4,1.8c0.2,0.8,1.3-0.6,1.1-1.2
		c-0.1-0.5-0.2-0.9-0.3-1.4c-0.1-0.7-0.2-1.5-0.3-2.3c0-0.6-0.1-1.3,0-2c0.1,0.2,0.2,0.4,0.3,0.6c0.4,0.9,0.6,1.8,0.8,2.8
		c0.2,0.8,0.4,3,1.6,2.7c0.8-0.2,1.4-0.8,1.9-1.6c0,0.2,0.1,0.3,0.1,0.5c0.3,2,0.6,4,0.8,5.9c0,0.4,0.5,0.3,0.7,0.1
		c0.3-0.3,0.6-0.7,0.6-1.2c-0.1-1.5-0.3-3-0.5-4.5c0.5-0.1,1.1-0.5,1.6-1c1-1.2,1.1-2.8,0.8-4.3c0-0.2-0.1-0.5-0.1-0.7
		c0.1,0,0.2,0,0.3,0c0.3,0,0.6-0.1,0.9-0.1c-0.3,1.3-0.2,2.7,0.2,4c0.2,0.6,0.5,1.2,1.1,1.5c0.8,0.3,1.6-0.4,2-0.9
		c0,0,0-0.1,0.1-0.1c0.1,0.3,0.3,0.7,0.5,0.8c0.5,0.3,1,0.1,1.4-0.2c0.4-0.3,0.8-0.7,1.1-1.1c0,0.3,0,0.6,0,0.9
		c0,0.9,1.3-0.3,1.4-0.8c0.1-0.7,0.1-1.5,0.2-2.2c0.4,0.2,0.5,0.9,0.6,1.4c0.1,0.7,0,1.5,0.7,1.8c0.8,0.3,1.6-0.1,2.3-0.5
		c0.1-0.1,0.2-0.1,0.4-0.2c0,0.2,0,0.5-0.1,0.7c-0.1,0.9,1.5-0.1,1.5-0.7c0.1-0.7,0.3-1.5,0.5-2.2c0.5,0.2,0.5,0.9,0.5,1.5
		c0,0.7-0.1,1.5,0.7,1.9c0.8,0.4,1.8,0.1,2.5-0.2c0.2-0.1,0.4-0.2,0.5-0.3c0,0.6,0.2,1.2,1,1.2c1,0.1,1.8-0.5,2.4-1.1
		c0,0.5,0,1.1,0.2,1.5c0,0.1,0.2,0.2,0.3,0.2c0,0,0.1,0,0.1,0c0,0,0,0,0.1,0c0.3,0.1,0.6,0.1,0.9,0c0.5-0.1,1-0.4,1.4-0.7
		c-0.1,0.3-0.2,0.6-0.3,0.9c-0.1,0.4,0.3,0.5,0.6,0.4c0.4-0.1,0.8-0.4,1-0.8c0.3-0.6,0.5-1.3,1-1.9c0.3-0.3,0.4-0.3,0.8-0.5
		c0,0,0,0,0.1,0c0,0,0,0.1,0,0.1c-0.3,1-0.7,2.3-0.7,3.4c0,0.3,0.4,0.7,0.4,0.7s0.1,0.1,0.1,0.1c0.1,0.1,0.3,0.1,0.4,0.1
		c0.6,0.1,1.3-0.2,1.8-0.6c0,0.7,0.2,1.4,0.9,1.7c0.8,0.4,1.9-0.2,2.6-0.7c0.7-0.6,1.3-1.5,1.7-2.3
		C-506.6,449.1-505.8,446.8-507.4,445.9z M-561.6,442.7C-561.5,442.7-561.5,442.7-561.6,442.7C-561.5,442.7-561.5,442.7-561.6,442.7
		C-561.5,442.7-561.5,442.7-561.6,442.7z M-546.5,442.6C-546.4,442.6-546.4,442.6-546.5,442.6L-546.5,442.6z M-544.7,448
		C-544.7,448-544.7,448-544.7,448L-544.7,448z M-544.7,447.9c0,0,0,0.1-0.1,0.1c0,0,0,0,0,0c-0.6,0.2-1-0.3-1.1-0.8c0,0,0-0.1,0-0.1
		c-0.2-1.1-0.4-2.2-0.6-3.3c0,0,0,0,0-0.1c-0.1-0.3-0.1-0.7,0-1c0,0,0,0,0,0c0,0,0,0,0,0c0.2-0.1,0.4,0.1,0.6,0.2
		c0.6,0.5,0.9,1.5,1.1,2.3C-544.6,446-544.4,447-544.7,447.9z M-539.6,447.4c0,0-0.1,0-0.2,0c-0.3-0.1-0.5-0.6-0.6-0.9
		c-0.4-1-0.5-2.3-0.3-3.4c0-0.2,0.1-0.5,0.2-0.7c0.1-0.1,0.2-0.3,0.4-0.5c0,0,0.1,0,0.1,0c0.4,0,0.6,0.2,0.6,0.6
		c0,1.5,0.2,3-0.1,4.5C-539.5,447.1-539.5,447.3-539.6,447.4z M-513.3,451.1L-513.3,451.1C-513.3,451.1-513.3,451.1-513.3,451.1
		C-513.3,451.1-513.3,451.1-513.3,451.1z M-510.3,452.4C-510.4,452.4-510.4,452.5-510.3,452.4L-510.3,452.4z M-509.8,451.9
		c-0.1,0.1-0.2,0.3-0.4,0.4c-0.3-0.2-0.3-0.8-0.3-1.1c0-0.7,0.2-1.4,0.4-2c0.2-0.7,0.5-1.3,0.9-1.9c0.1-0.1,0.2-0.3,0.3-0.4
		c0.7,0.6,0.1,2.5-0.1,3.1C-509.1,450.6-509.4,451.3-509.8,451.9z"/>
</g>
<g>
	<circle class="st2" cx="-565.9" cy="470.2" r="12.2"/>
	<path class="st1" d="M-574,469.4c0.4-0.5,0.8-1.1,1.2-1.6c0.2-0.3,0.4-0.5,0.5-0.7c0.3-0.3,0.2-0.3-0.1-0.1c0,0.4,0,0.8,0,1.1
		c0,2.1-0.1,4.3-0.3,6.4c-0.1,0.8,1.3-0.2,1.4-0.8c0.1-1.4,0.2-2.8,0.2-4.3c0-0.6,0.5-3.9-0.3-4.1c-1.4-0.4-2.9,2.8-3.6,3.7
		C-575.7,470.1-574.5,470-574,469.4L-574,469.4z"/>
	<path class="st1" d="M-567.4,469.5c-0.6-0.3-2-1.6-0.9-2.3c0.4-0.3,0.9-0.2,1.4,0c1.1,0.3,0.3,1.2-0.2,1.6
		c-0.3,0.2-2.1,1.7-1.3,2.2c0.9,0.7,2.7-0.1,2.7,1.5c0,1.1-1.7,1.1-2.3,0.7c-1-0.7-1-1.7,0.2-2.4c0.5-0.3,1.1-1.7,0.1-1.1
		c-1.2,0.7-2.4,1.7-2.4,3.2c0,0.9,0.9,2,1.9,2c1.4,0.1,2.8-0.8,3.5-1.9c0.7-1.1,0.6-2.5-0.7-2.8c-0.4-0.1-1.4-0.4-1.7-0.1
		c0.5-0.6,1.3-1,1.7-1.6c0.9-1.2,0.6-2.5-1-2.8c-1.3-0.2-2.5,0.8-3.2,1.8c-0.8,1.4,0.1,2.6,1.3,3.3
		C-567.9,471.1-566.8,469.8-567.4,469.5L-567.4,469.5z"/>
	<g>
		<path class="st1" d="M-558,466.5c-1.6,2.6-3.5,5-5.4,7.5c-0.8,1.1,0.5,1,1,0.3c1.9-2.6,4-5.1,5.6-7.9
			C-556,465.3-557.7,465.9-558,466.5L-558,466.5z"/>
		<path class="st1" d="M-560.9,465.8c-1,0-1.7,0.9-1.8,1.8c-0.2,0.8,0.3,1.6,1.2,1.6C-559.7,469.3-558.8,465.9-560.9,465.8
			c-0.4,0-1.2,1-0.6,1c0.5,0,0.7,0.4,0.8,0.8c0,0.2,0,0.4-0.1,0.5c-0.1,0.1-0.1,0,0,0c-0.1,0-0.2,0-0.3,0c-0.4,0-0.7-0.4-0.7-0.8
			c0-0.2,0-0.4,0.1-0.5c0.1-0.1,0.1-0.1,0,0c0.1,0,0.1,0,0.2,0C-561,466.8-560.3,465.8-560.9,465.8z"/>
		<path class="st1" d="M-558.2,471.4c-1,0-1.7,0.9-1.8,1.8c-0.2,0.8,0.3,1.6,1.2,1.6C-557,474.8-556.1,471.4-558.2,471.4
			c-0.4,0-1.2,1-0.6,1c0.5,0,0.7,0.4,0.8,0.8c0,0.2,0,0.4-0.1,0.5c-0.1,0.1,0,0,0,0c-0.1,0-0.2,0-0.3,0c-0.4,0-0.7-0.4-0.7-0.8
			c0-0.2,0-0.4,0.1-0.5c0.1-0.1,0.1-0.1,0,0c0.1,0,0.1,0,0.2,0C-558.3,472.4-557.6,471.3-558.2,471.4z"/>
	</g>
</g>
</svg>
