<?xml version="1.0" encoding="utf-8"?>
<!-- Generator: Adobe Illustrator 19.0.0, SVG Export Plug-In . SVG Version: 6.00 Build 0)  -->
<svg version="1.1" id="Layer_1" xmlns="http://www.w3.org/2000/svg" xmlns:xlink="http://www.w3.org/1999/xlink" x="0px" y="0px"
	 viewBox="-256 258 86 86" style="enable-background:new -256 258 86 86;" xml:space="preserve">
<style type="text/css">
	.st0{fill:#B82927;}
	.st1{fill:#FFFFFF;}
	.st2{fill:#FFFFFF;stroke:#000000;stroke-width:1.0201;stroke-miterlimit:10;}
	.st3{clip-path:url(#SVGID_2_);}
</style>
<path class="st0" d="M-189,265.5c-3.5-2.6-18-7-28.1,6c-8.3,10.7-36.9,6.5-36.9,26.7c0,22.6,18.3,41,41,41c22.6,0,41-18.3,41-41
	C-172,284.5-178.8,273.1-189,265.5z M-194,285.7c-3.8,0-7-3.1-7-7c0-3.8,3.1-7,7-7c3.8,0,7,3.1,7,7
	C-187,282.6-190.2,285.7-194,285.7z"/>
<g>
	<g>
		<path class="st1" d="M-223.3,297c-0.4-0.1-0.7-0.1-1.1,0c0.4-1.1,0.7-2.3,1-3.6c0.3-1.5,0.9-3.9,0-5.3c-1-1.6-2.8,0.1-3.5,1.2
			c-0.9,1.5-1.2,3.4-1.2,5c-0.1,0.2-0.2,0.5-0.3,0.7c-0.2,0.8-0.3,1.5-1.2,1.5c-0.4,0-0.7-0.1-1-0.3c-0.1,0-0.1-0.1-0.2-0.1
			c-0.4-0.3-0.8-0.5-1.4-0.4c-0.1,0-0.1,0-0.2,0c0,0-0.1,0-0.1,0c-2.6,0.8-2.7,4.5-2.4,6.4c0,0.2,0.1,0.4,0.1,0.7
			c-0.3,0.3-0.4,0.6-0.6,0.9c-0.6,1.4-2.3,1.7-3.5,1.1c-2-1.1-1-3.9-0.2-5.5c1.1-2.1,2.9-6,0.9-8.2c-0.8-0.8-2.1-1.1-3.2-0.8
			c-1.6,0.4-2.7,1.7-3.6,2.9c-0.5,0.7-1.2,2-0.7,2.7c0.5,0.8,1.6-0.3,2-0.7c0.3-0.4,0.5-0.7,0.7-0.8c0.4-0.3,1.1-0.3,1.6-0.1
			c0.9,0.2,1.4,1,1.3,1.9c-0.1,1.7-1.2,3.2-1.8,4.7c-0.6,1.5-0.8,3.1-0.6,4.6c0.3,1.8,1.7,3.1,3.5,3.2c2.1,0.2,4-1.6,5.2-3.4
			c0.6,1.1,1.4,1.9,2.5,1.7c1.1-0.2,1.9-1.5,2.2-2.6c0.4-1.2,0.4-2.5,0.2-3.7c-0.1-0.6-0.2-1.5-0.5-2.3c0.5-0.3,1-0.7,1.4-1.1
			c0.1,1.8,0.4,3.5,0.9,5.2c0.3,1.2,0.9,3.6,2.5,3.3c1.6-0.3,2.5-2.2,2.7-3.6C-221.8,300.9-221.5,297.7-223.3,297z M-230.7,304.2
			c0,0.2,0,0.4-0.1,0.6c0,0,0,0.2-0.1,0.3c0,0,0,0,0,0c-1.3,0.3-2-2.5-2.2-3.3c-0.2-0.9-0.3-1.8-0.2-2.8c0-0.3,0.1-0.6,0.2-0.9
			c1.3-0.1,2,2.6,2.2,3.4C-230.7,302.3-230.6,303.3-230.7,304.2z M-226.3,294.9c0-1.5,0.1-3.2,0.6-4.7c0-0.1,0.1-0.2,0.1-0.3
			c0.4,0.1,0.5,0.6,0.6,1c0.3,1.5-0.1,3.2-0.5,4.6c-0.2,0.8-0.4,1.6-0.6,2.3C-226.2,296.8-226.3,295.9-226.3,294.9z M-223.7,301.6
			c0,0.7,0,1.5-0.1,2.2c0,0.1,0,0.1,0,0.1c-0.1,0-0.1,0-0.2,0c-0.9-0.1-1.3-2.5-1.5-3.2c0,0,0-0.1,0-0.1c0,0,0,0,0-0.1
			c0.2-0.4,0.3-0.7,0.4-1.1c0.2-0.3,0.5-0.3,0.8,0C-223.8,299.9-223.8,300.9-223.7,301.6z"/>
		<path class="st1" d="M-181.2,307.5c-0.2-0.3-0.7-0.3-1.1-0.2c-0.7-0.2-0.4-1.9-0.4-2.3c0.1-1.6,0.6-3.2,1-4.9c0,0,0-0.1,0-0.1
			c0.2-1.2-0.7-2.1-2.1-2.2c-1.3-0.1-2.4,0.6-3.2,1.4c-1.5,1.4-2.1,3.7-2.1,5.7c-0.3,0-0.6,0.2-0.7,0.3c-0.6,0.4-0.6-0.2-0.6-0.7
			c-0.1-0.8,0-1.6,0.1-2.4c0.2-1.2,0.4-2.6,0.9-3.8c0.2-0.4,0.4-0.7,0.6-1.1c0.2-0.4,0-0.8-0.6-0.8c-0.6,0-1.3,0.4-1.5,0.9
			c-0.3,0.5-0.5,0.9-0.7,1.4c-0.3,0.5-0.6,1-1,1.4c-0.4,0.4-0.6,0.5-1.2,0.8c0,0-0.1,0.1-0.1,0.1c0.2-1.7,0.3-3.4,0.4-5.2
			c0.1-1.2-2.2-0.1-2.2,0.7c-0.1,2.1-0.2,4.1-0.5,6c-0.1,0.1-0.1,0.1-0.2,0.2c-0.4,0.5-1,0.9-1.6,1.1c-0.7,0.2-0.9-1.6-0.9-2
			c-0.2-2.2,0.2-4.5,0.6-6.8c0.1-0.6-0.6-0.6-0.9-0.4c-0.5,0.2-1.1,0.7-1.2,1.2c-0.3,1.8-0.5,3.5-0.8,5.2c-0.2,0.8-0.4,1.5-0.7,2.2
			c0,0,0,0.1-0.1,0.1c-0.1,0-0.3-0.1-0.4-0.2c-1.1-0.6-0.9-2.8-0.8-3.7c0-0.1,0-0.1,0-0.2c0-0.1,0.1-0.2,0-0.3
			c0.1-1.3,0.4-2.7,0.9-3.9c0.2-0.5-0.1-0.8-0.6-0.7c-0.6,0.1-1.2,0.6-1.4,1.2c-0.5,1.4-0.8,2.8-0.9,4.2c-0.6,0.6-1.3,1.3-1.9,1.9
			c0-1.1,0.1-2.2,0.1-3.3c0-1.3,0.1-2.6,0.2-4c0-0.7-0.7-0.5-1.4,0c-0.3-0.3-0.6-0.5-1.1-0.5c-0.1,0-0.1,0-0.2,0c0,0-0.1,0-0.1,0
			c-2.6,0.1-3.5,3.8-3.6,5.8c0,0.8,0,2.1,0.2,3.2c-0.2,0.2-0.4,0.4-0.6,0.6c0,0-0.1,0-0.2,0c-0.1,0-0.2-0.1-0.3-0.1
			c-0.3-0.2-0.4-0.6-0.5-0.9c-0.3-1-0.4-2.1-0.4-3.1c0-0.1,0-0.2,0-0.3c0,0,0-0.1,0-0.1c0-0.8,0-1.6,0.1-2.5c0-0.1,0-0.1,0-0.2
			c0,0,0,0,0-0.1c0-0.6,0.1-1.1,0.2-1.7c0.1-0.6-0.6-0.5-1-0.3c-0.1,0-0.1,0.1-0.2,0.1c-0.5-0.3-1.3-0.2-2,0.2
			c-1.9,1.1-2.5,3.7-2.2,5.7c0.2,1.2,1.2,2,2.3,1.8c0.2,0,0.4-0.1,0.6-0.2c-0.1,0.5-0.2,1-0.5,1.5c-0.2,0.5-1-0.2-1.2-0.6
			c-0.3-0.8-2,0.8-1.8,1.6c0.6,1.8,2.7,1.1,3.6,0c0.2-0.2,0.3-0.4,0.4-0.6c0.1,0.4,0.3,0.8,0.6,1.1c1,1,2.5,0,3.3-0.9
			c0.4,0.6,0.9,1,1.6,1.1c0.3,0,0.6-0.1,0.9-0.2c-1.1,1.3-2,2.9-2.5,4.6c-0.3,1.1-0.6,3.2,0.3,4.1c1.5,1.4,3.4-1.2,4-2.7
			c0.8-2,0.8-4.3,0.9-6.3c0-0.3,0-0.7,0-1c0.4-0.5,0.9-0.9,1.3-1.4c0.2-0.2,0.4-0.4,0.5-0.5c0,1.4,0.2,3.2,1.7,3.6
			c1.1,0.2,2-0.3,2.7-1.1c0,0.1,0.1,0.3,0.1,0.4c0.7,1.9,2.7,1.2,4.2,0.1c-0.1,0.4-0.1,0.7-0.2,1.1c-0.1,0.5,0.5,0.5,0.9,0.4
			c0.5-0.2,1.1-0.6,1.2-1.1c0.2-0.9,0.5-1.8,1-2.5c0.3-0.4,0.5-0.4,1-0.8c0,0,0,0,0,0c-0.1,0.8-0.2,1.6-0.3,2.4
			c-0.1,0.8-0.1,1.7,0.2,2.4c0.5,1.2,2.8,0.1,3.4-0.2c0,0,0,0,0.1,0c0.1,0.5,0.3,0.9,0.7,1.3c0.9,0.7,2.3,0.3,3.1-0.1
			c0,0,0.1,0,0.1-0.1c0,0.4,0.1,0.8,0.4,1.1c0.8,0.8,1.9,0.5,2.7,0.2C-181.7,308.4-180.9,307.9-181.2,307.5z M-218,298.7
			c-0.2-0.7-0.2-2.2,0.2-2.8c-0.1,0.1,0.3,0,0.5,0.1c0.4,0.2,0.5,0.6,0.5,1c-0.1,0.9-0.1,1.9-0.1,2.8
			C-217.5,299.8-217.8,299.3-218,298.7z M-213.5,303.1C-213.4,303.1-213.4,303.1-213.5,303.1L-213.5,303.1z M-211.2,299.2
			c0-0.9,0.1-1.8,0.3-2.7c0.1-0.3,0.2-0.6,0.3-0.8c1.3,0.2,1.5,3,1.5,3.8c0,0.9-0.1,1.8-0.3,2.7c-0.1,0.2-0.1,0.4-0.2,0.5
			c0,0-0.1,0.2-0.1,0.2c0,0,0,0,0,0C-211.1,302.9-211.2,300-211.2,299.2z M-209.9,311.5L-209.9,311.5
			C-209.9,311.5-209.9,311.5-209.9,311.5L-209.9,311.5z M-209.9,311.4C-209.9,311.5-210,311.5-209.9,311.4c-0.1,0.1-0.1,0.1-0.1,0.1
			s-0.1,0-0.2,0c0,0-0.2,0-0.2-0.1c0,0-0.1-0.1-0.1-0.1c-0.1-0.1-0.2-0.2-0.2-0.3c-0.3-0.5-0.2-1.4-0.1-2c0.3-1.3,0.9-2.4,1.7-3.5
			c0,0.1,0,0.3,0,0.4C-209.2,307.7-209.1,309.8-209.9,311.4z M-202.1,303.4C-202.2,303.4-202.2,303.4-202.1,303.4L-202.1,303.4z
			 M-186,306.2c-0.1,0-0.2,0-0.3-0.1c-0.4-0.3-0.5-0.9-0.5-1.3c-0.2-1.4,0.2-2.9,0.8-4.1c0.2-0.4,0.6-1,0.8-1.2c0,0,0.1,0,0.1,0
			c0.1,0,0.3,0.1,0.3,0.1c0.5,0.1,0.7,0.6,0.6,1c-0.5,1.8-0.8,3.7-1.7,5.3C-185.8,305.9-185.9,306-186,306.2z"/>
	</g>
</g>
<g>
	<path class="st2" d="M-209,324.2"/>
	<g>
		<defs>
			<path id="SVGID_1_" d="M-222.1,331.6c-0.2,0-0.4,0-0.6-0.1l-0.2,0c-0.4-0.1-0.6-0.4-0.7-0.6c0,0,0-0.1-0.1-0.1c0,0,0,0,0-0.1
				c-0.6-0.2-0.6-0.7-0.6-0.9l0-0.1c0-1-0.1-2.1-0.3-3.5c0-0.2-0.1-0.5,0-0.8l0,0c-0.2,0-0.4-0.2-0.4-0.6c0-1.7-0.1-3.3-0.3-4.9
				c0-0.5-0.1-1-0.1-1.4c-0.1-1.3,0.4-2.3,1.6-2.9l0.1,0c0.5-0.2,1.1-0.2,1.6-0.2c0.2,0,0.5,0,0.7-0.1l0.2,0c0.2,0,0.4,0,0.6,0
				c0.4,0,0.8,0,1.2,0.2c0.6,0.1,1.2,0.2,1.8,0.2l1.3,0l1.6,0c0.1,0,0.4,0,0.5,0c0.7-0.1,1.3-0.1,2-0.2l0.1,0c0.3,0,1-0.1,1.4-0.1
				c0.4-0.1,0.7-0.1,0.9-0.1c0.6,0,1.5-0.1,2.2-0.1c0.7,0,1.1,0,1.3,0.1l0.5,0c0.5,0,0.9,0,1.4,0c0.7,0,1.3,0,1.8-0.1
				c0.1,0,0.2,0,0.3,0c0.1,0,0.2,0,0.4-0.1c0.4-0.1,0.7-0.2,1.1-0.3l0.2-0.1c0.6-0.2,1.2-0.2,1.7,0.1c0.3,0.2,0.5,0.2,0.9,0
				c0.1-0.1,0.3-0.2,0.5-0.2c0.2,0,0.3,0.1,0.4,0.2c0.1,0.2,0.1,0.3,0.1,0.4c0,0.3-0.3,0.4-0.4,0.5c-0.5,0.3-0.9,0.4-1.4,0.4
				c0.3,0.5,0.5,1.1,0.7,1.7c0.1,0.5,0.4,0.9,0.6,1.4c0.1,0.1,0.2,0.3,0.2,0.4c0.3,0.5,0.2,1.1-0.2,1.6c-0.1,0.1-0.3,0.4-0.6,0.4
				l0,0c-0.1,0-0.2,0-0.3-0.1c-0.2,0.3-0.5,0.3-0.8,0.2c-0.1,0-0.2-0.1-0.3-0.2c-0.3-0.3-0.7-0.5-1.2-0.4h0c-0.2,0-0.3-0.1-0.4-0.1
				c0,0,0,0-0.1,0c-0.2-0.1-0.3-0.2-0.3-0.2c0,0,0,0,0,0c-0.1,0.1-0.3,0.2-0.4,0.3l-0.2,0.2c-0.3,0.2-0.6,0.5-0.9,0.9
				c0,0.1-0.1,0.2-0.2,0.3c-0.3,0.4-0.7,0.8-1,1.4c-0.6,1.1-1.5,1.5-2.3,1.7c-0.2,0.1-0.4,0.1-0.6,0.1l-0.3,0l0,0.1
				c0,0.2,0,0.4-0.1,0.6c-0.1,0.3-0.1,0.5-0.2,0.8c-0.1,0.3-0.1,0.6-0.2,0.9c-0.1,0.6,0.1,1.1,0.5,1.6c0.2,0.2,0.5,0.4,0.3,0.9
				c-0.1,0.2-0.4,0.4-0.6,0.4c0,0.1,0,0.1,0,0.2c0,0.2-0.2,0.5-0.6,0.5c-0.5,0.1-0.9,0-1.3-0.1c-0.3-0.1-0.5-0.3-0.6-0.5
				c0-0.1-0.1-0.2-0.2-0.2c-0.4-0.2-0.4-0.6-0.4-0.8c0-0.2,0-0.4,0-0.6c0-0.3,0.1-0.7,0-1l0-0.2c0-0.1,0-0.3,0-0.4l0-0.1l0-0.2
				c-0.1-0.4-0.1-0.8-0.1-1.3c0-0.2,0-0.5,0-0.7c0,0,0-0.1,0-0.1l-0.5,0c-1.6,0-3.2,0-4.7-0.3c-0.4-0.1-0.5-0.1-0.6-0.1l-0.1,0
				c-0.9-0.2-1.7-0.5-2.5-0.9c0,0,0,0,0,0c0,0,0,0,0,0c-0.8,1.4-0.8,2.7-0.2,3.9c0.3,0.5,0.6,1,1,1.5l0.3,0.4c0,0,0.1,0.1,0.1,0.1
				c0.1,0.2,0.4,0.5,0.2,0.9c-0.2,0.4-0.6,0.4-0.8,0.4l-0.1,0l-0.2-0.4l0,0.4c-0.1,0-0.2,0-0.2,0c-0.6,0-0.8-0.3-0.9-0.8
				c-0.1-0.2-0.1-0.2-0.1-0.2c-0.2,0-0.3-0.1-0.4-0.2c-0.1-0.1-0.2-0.2-0.1-0.4c0-0.6-0.2-1-0.6-1.6c-0.1-0.2-0.2-0.3-0.3-0.5
				c-0.1-0.1-0.1-0.2-0.3-0.3c-0.2-0.2-0.3-0.4-0.4-0.6c-0.1,0.2-0.2,0.4-0.2,0.6l0,0.1c-0.1,0.5-0.1,1-0.1,1.5
				c0,0.2,0.1,0.4,0.1,0.5c0,0,0.1,0.1,0.1,0.1l0.9,0.9c0.1,0.1,0.4,0.4,0.2,0.8c-0.2,0.4-0.5,0.4-0.6,0.4
				C-222,331.6-222,331.6-222.1,331.6z M-223.8,319.7l0.2,0.7c0.2,0.7,0.5,1.5,0.7,2.2c0.1,0.2,0.1,0.4,0.1,0.6c0,0.4-0.1,0.7-0.2,1
				l-0.1,0.3c0,0-0.1,0.1-0.1,0.2c-0.1,0.1-0.2,0.3-0.4,0.4c-0.3,0.2-0.3,0.5-0.3,1c0.2,1.4,0.3,2.6,0.3,3.6l0,0.1
				c0,0.1,0,0.2,0,0.2c0.3,0.1,0.4,0.3,0.5,0.5l0,0.1c0.1,0.1,0.1,0.2,0.2,0.2l0.2,0c0.2,0,0.3,0,0.5,0l-0.9-0.9
				c0,0-0.1-0.1-0.1-0.1c-0.1-0.2-0.2-0.5-0.3-0.9c0-0.6,0-1.1,0.1-1.7l0-0.1c0-0.4,0.5-1.3,0.6-1.4c0.1-0.2,0.2-0.3,0.5-0.4
				l0.5-0.1l-0.1,0.6c-0.1,0.4,0,0.7,0.3,0.9c0.2,0.2,0.3,0.3,0.4,0.5c0.1,0.2,0.2,0.3,0.3,0.5c0.3,0.5,0.7,1.1,0.7,1.9
				c0.4,0.1,0.6,0.5,0.6,0.6c0.1,0.2,0.1,0.3,0.1,0.3c0,0,0,0,0.1,0c0.1,0,0.1,0,0.2,0c0,0,0.1,0,0.1,0l0.1,0c0,0,0,0-0.1-0.1
				c0,0-0.1-0.1-0.1-0.1l-0.3-0.4c-0.4-0.5-0.7-1-1-1.6c-0.8-1.5-0.7-3.1,0.2-4.7c0.1-0.1,0.2-0.4,0.6-0.4c0.1,0,0.3,0,0.4,0.1
				c0.7,0.4,1.5,0.7,2.3,0.9l0.2,0.1c0.1,0,0.1,0,0.5,0.1c1.5,0.2,3.1,0.3,4.6,0.3l0.9,0l0.1,0.1c0.2,0.1,0.2,0.3,0.2,0.4l0,0l0,0.2
				c0,0.3,0,0.6,0,0.9c0,0.4,0,0.8,0.1,1.2l0,0.2c0,0.2,0.1,0.4,0.1,0.5l0,0.2c0,0.4,0,0.7,0,1.1c0,0.2,0,0.3,0,0.5
				c0,0.1,0,0.2,0,0.2c0.2,0.1,0.4,0.3,0.5,0.6c0.3,0.1,0.5,0.1,0.7,0.1c-0.1-0.1-0.3-0.2-0.4-0.4l-0.1-0.3l0.4-0.3l0.2,0l0.3,0.1
				c0.1,0,0.3,0.1,0.4,0.1c-0.6-0.7-0.8-1.4-0.6-2.2c0.1-0.3,0.1-0.6,0.2-0.9c0.1-0.3,0.1-0.5,0.2-0.8c0-0.2,0-0.4,0.1-0.5l0-0.2
				c0-0.5,0.5-0.6,0.6-0.6l0.3-0.1c0.2,0,0.4-0.1,0.5-0.1c0.9-0.3,1.5-0.7,1.8-1.3c0.4-0.7,0.8-1.2,1.2-1.6l0.1-0.1
				c0,0,0-0.1,0.1-0.1c0.3-0.4,0.7-0.7,1-1l0.2-0.1c0.2-0.2,0.4-0.4,0.8-0.5l0.1,0c0.2,0,0.4,0.1,0.5,0.2c0,0,0.1,0.1,0.1,0.1
				c0,0,0.1,0,0.1,0.1c0.1,0,0.2,0,0.3,0c0.7,0,1.2,0.2,1.6,0.7c0,0,0,0,0,0l0-0.6l0.5,0.2c0.1,0,0.2,0.1,0.3,0.2c0,0,0,0,0-0.1
				c0.2-0.3,0.3-0.5,0.1-0.8c-0.1-0.1-0.2-0.3-0.2-0.4c-0.3-0.5-0.6-1-0.7-1.5c-0.2-0.7-0.5-1.3-0.9-1.9c-0.1-0.2-0.3-0.4-0.2-0.7
				l0,0c-0.1,0-0.3,0-0.5,0.1l-0.2,0.1c-0.4,0.2-0.8,0.3-1.3,0.4l-0.3,0.1c-0.1,0-0.3,0-0.4,0.1c-0.6,0.1-1.2,0.1-1.9,0.1
				c-0.5,0-0.9,0-1.4,0l-0.8,0l-0.1-0.1c-0.1,0-0.3-0.1-0.9-0.1c-0.7,0-1.6,0-2.1,0.1l-0.1,0c0,0-0.2,0-0.7,0.1c-0.1,0-0.1,0-0.1,0
				c-0.3,0-1.1,0.1-1.4,0.1l-0.1,0c-0.7,0.1-1.4,0.1-2,0.2c-0.1,0-0.4,0-0.5,0l-1.6,0l-1.3,0c-0.6,0-1.3,0-2-0.2
				c-0.5-0.1-1-0.2-1.6-0.1l-0.2,0c-0.2,0-0.4,0-0.7,0.1c-0.5,0-0.9,0-1.4,0.2l-0.1,0c-0.9,0.4-1.2,1.1-1.2,2.1
				c0,0.4,0.1,5.5,0.1,5.9l0.3-4.2L-223.8,319.7L-223.8,319.7z M-223.8,322.3c0,0.7-0.1,1.4-0.1,2.1c0,0,0.1-0.1,0.1-0.1
				c0-0.1,0.1-0.1,0.1-0.2l0-0.1c0.1-0.2,0.2-0.5,0.1-0.7c0-0.1,0-0.2-0.1-0.4C-223.7,322.7-223.8,322.5-223.8,322.3z"/>
		</defs>
		<use xlink:href="#SVGID_1_"  style="overflow:visible;fill:#FFFFFF;"/>
		<clipPath id="SVGID_2_">
			<use xlink:href="#SVGID_1_"  style="overflow:visible;"/>
		</clipPath>
		<g class="st3">
			<path class="st2" d="M-206.6,321.7"/>
		</g>
	</g>
</g>
</svg>
