<?xml version="1.0" encoding="utf-8"?>
<!-- Generator: Adobe Illustrator 19.0.0, SVG Export Plug-In . SVG Version: 6.00 Build 0)  -->
<svg version="1.1" id="Layer_1" xmlns="http://www.w3.org/2000/svg" xmlns:xlink="http://www.w3.org/1999/xlink" x="0px" y="0px"
	 viewBox="-580 396.7 86 86" style="enable-background:new -580 396.7 86 86;" xml:space="preserve">
<style type="text/css">
	.st0{fill:#EC5439;}
	.st1{fill:#62BA47;}
	.st2{fill:#FFFFFF;}
</style>
<circle class="st0" cx="-535.2" cy="435.8" r="39"/>
<circle class="st1" cx="-566.4" cy="470.5" r="12.3"/>
<g>
	<path class="st2" d="M-574.7,468.6c0.5-1.2,1.3-0.4,1.6,0.2c0.4,0.8-0.1,1.7-0.6,2.4c-0.4,0.6-1,1.1-1.6,1.4
		c-0.3,0.2-0.6,0.3-0.8,0.7c-0.1,0.1-0.2,0.4,0,0.5c0.4,0.4,1.3,0.3,1.8,0.3c0.9,0.1,1.9,0,2.7-0.4c0.5-0.2,0.9-1.4,0.1-1
		c-0.6,0.3-1.5,0.3-2.2,0.2c-0.3,0-1.2,0-1.4-0.2c0,0.2,0,0.3,0,0.5c-0.4,0.7-0.1,0.3,0.2,0.1c0.3-0.2,0.5-0.4,0.8-0.6
		c0.5-0.4,0.9-0.8,1.2-1.3c0.8-0.9,1.2-2,1-3.2c-0.5-2.7-3.4-0.7-3.9,0.8C-576,469.7-574.8,469-574.7,468.6L-574.7,468.6z"/>
	<path class="st2" d="M-567.8,472.9c0.9,2.9,5.4,0.9,4.7-1.7c-0.4-1.3-1.9-1.1-2.9-1.5c-0.6-0.2-0.6-0.7-0.6-1.2
		c0.2-0.6,0.2-0.7-0.2-0.3c0.2-0.1,0.3-0.1,0.5-0.1c0.9-0.2,1.9-0.1,2.7,0.3c0.4,0.2,1.3-0.8,0.8-1.1c-1.1-0.5-2.4-0.4-3.5-0.2
		c-1.1,0.3-1.4,1.3-1.4,2.3c-0.1,1.3,1.1,1.4,2.1,1.6c0.8,0.1,1.4,0.3,1.5,1.2c0.1,1.4-1.3,1.2-2,0.8c-0.3-0.2-0.5-0.6-0.6-0.9
		C-566.9,471.6-568,472.5-567.8,472.9L-567.8,472.9z"/>
	<g>
		<path class="st2" d="M-557.5,467.6c-1.2,2.1-2.8,4-4.3,5.9c-0.6,0.8,0.4,0.8,0.8,0.2c1.5-2,3.2-4.1,4.5-6.3
			C-556,466.6-557.2,467.1-557.5,467.6L-557.5,467.6z"/>
		<path class="st2" d="M-559.8,467c-0.8,0-1.3,0.7-1.5,1.5c-0.1,0.7,0.3,1.2,1,1.3C-558.9,469.8-558.1,467.1-559.8,467
			c-0.3,0-0.9,0.8-0.5,0.8c0.4,0,0.5,0.3,0.6,0.7c0,0.1,0,0.3,0,0.4c-0.1,0.1,0,0,0,0c-0.1,0-0.1,0-0.2,0c-0.3,0-0.6-0.3-0.6-0.6
			c0-0.1,0-0.3,0.1-0.4c0-0.1,0.1,0,0,0c0,0,0.1,0,0.2,0C-560,467.8-559.4,467-559.8,467z"/>
		<path class="st2" d="M-557.7,471.4c-0.8,0-1.3,0.7-1.5,1.5c-0.1,0.7,0.3,1.2,1,1.3C-556.7,474.2-556,471.5-557.7,471.4
			c-0.3,0-0.9,0.8-0.5,0.8c0.4,0,0.5,0.3,0.6,0.7c0,0.1,0,0.3,0,0.4c0,0.1,0,0,0,0c-0.1,0-0.1,0-0.2,0c-0.3,0-0.6-0.3-0.6-0.6
			c0-0.1,0-0.3,0.1-0.4c0-0.1,0.1,0,0,0c0,0,0.1,0,0.2,0C-557.8,472.2-557.2,471.4-557.7,471.4z"/>
	</g>
	<path class="st2" d="M-569.6,475.6c0.5-0.5,0.9-1.2,1-1.9c0-0.2,0-0.5-0.2-0.7c-0.3-0.3-0.7,0-1,0.1c-0.3,0.1-0.6,0.5-0.7,0.9
		c0,0.4,0.4,0.3,0.6,0.2c0,0,0.1,0,0,0c0,0,0,0,0,0c0.1,0.1,0,0.2,0,0.3c0,0.2-0.1,0.3-0.2,0.4c0,0,0,0.1-0.1,0.1c0-0.1,0-0.1,0,0
		c0,0-0.1,0.1-0.1,0.1c0.1-0.2,0,0,0,0c-0.2,0.1-0.5,0.6-0.3,0.8C-570.2,476.1-569.8,475.7-569.6,475.6L-569.6,475.6z"/>
</g>
<g>
	<g>
		<g>
			<path class="st2" d="M-504.8,443.4c-0.6-0.2-1.3,0.1-1.7,0.5c-0.3-0.9,0.2-2.8,0.4-3.8c0.7-3,0.7-5.2,0.1-6
				c-0.6-0.8-1.8-0.5-2.4-0.2c-0.4,0.2-0.8,0.4-1.1,0.7c0-0.7-0.2-1.3-0.6-1.8c-0.5-0.6-1.5-0.5-2-0.3c-0.4,0.2-0.8,0.4-1.1,0.7
				c0-0.3,0.1-0.6,0.1-0.9c0-0.2,0-0.3-0.1-0.4c-0.1-0.1-0.2-0.1-0.3-0.2c-0.1,0-0.2-0.1-0.4-0.1c-0.5,0-0.9,0.2-1.2,0.4
				c-0.3,0.2-0.4,0.4-0.6,0.7c-0.5,0.6-1.1,0.4-1.9,0c-0.6-0.3-0.8-0.7-1.2-1.3c-0.2-0.3-0.4-0.6-0.7-0.8c-0.9-0.6-2-0.4-2.9,0
				c0-0.7-0.1-1.4-0.1-2.2c0-0.6-1.2-0.2-1.5-0.1c-0.4,0.2-0.9,0.6-1,1c0,0.1-1,3.5-2.9,6.2c0.1-1.9,0.2-3.8,0.3-5.8
				c0-0.3-0.1-0.5-0.4-0.5c-0.2,0-0.6,0-0.8,0.1c-0.6,0.2-1.3,0.8-1.3,1.4c-0.3,2.7-0.8,8.2-2.2,8.2c-1.7,0-0.8-6.5-0.6-9.4
				c0-0.3-0.2-0.5-0.5-0.5c-0.2,0-0.5,0.1-0.7,0.1c-0.6,0.3-1.2,0.8-1.3,1.4c-0.3,1.8-0.7,3.7-1.3,5.5c-0.3,1-1.1,2.8-2.2,2.8
				c-1.1,0-1.2-1.4-0.9-2.2c0.3-0.9,0.9-1.8,1.5-2.7c0.7-1.1,1-1.8,1.1-2.6c0.1-1.2-0.6-2.2-2-2.4c-1.4-0.1-2.6,0.7-3.5,1.5
				c-0.2,0.2-0.7,0.5-0.9,0.5c-0.9,0.2-1.7-0.6-2-0.7c-0.4-0.3-1-0.6-1.8-0.4c-2.8,0.9-3.4,4.1-3.2,6.8c0.1,1.7,0.1,3-0.2,3.5
				c-0.9,0.1-1.7-1.1-2-1.9c-0.7-1.5-1-3.2-1.2-4.9c-0.2-2.3-0.3-4.8-0.3-7.1c0-0.7-0.9-0.4-1.4,0c-0.6,0.5-1.3,1.3-1.2,2
				c0.1,2.9,0.4,5.9,0.4,8.8c0,1.4,0.1,3-0.4,4.3c-0.2,0.5-0.6,0.7-1.1,0.6c-0.9-0.3-1.3-1.4-1.6-2.2c-0.4-1.4-0.5-2.8-0.6-4.3
				c-0.1-1.4-0.1-2.9-0.2-4.3c-0.1-0.9-0.1-2-0.5-2.8c-0.9-1.4-3.3,0.9-3.9,1.8c-1.1,1.5-1.7,3.3-1.9,4.9c-0.1,0.6,0.4,0.9,1,0.4
				c0.7-0.5,1.2-1.3,1.3-2.1c0.1-0.7,0.3-2.2,1-2.5c0,0,0,0,0.1,0c0,0,0,0,0,0s0,0,0.1,0.2c0.1,0.3,0.2,0.7,0.3,1.1
				c0.3,2.8,0.4,5.7,0.8,8.5c0.3,2,1.2,4.9,4,4.1c1.5-0.4,2.5-2.1,3.1-3.4c0-0.1,0.1-0.1,0.1-0.2c0.7,1.3,1.7,2.3,3.4,1.9
				c1.2-0.3,1.6-1.4,2-2.5c0.5,0.9,1.2,1.6,2.3,1.4c1.3-0.2,2.4-1.6,2.8-2.7c0.5-1.3,0.6-2.7,0.6-4c0-0.5-0.1-1.5-0.3-2.3
				c0.3,0,0.7-0.1,1-0.3c0.6-0.4,1.2-1.2,1.9-1.5c0.2-0.1,0.7-0.1,0.9,0c1.9,0.9-0.8,3-1.8,4.8c-0.7,1.2-1.1,3.1-0.1,4.3
				c1.6,1.9,4.6,0.5,5.9-1.1c0.3-0.4,0.7-0.8,0.9-1.3c0.1,1.4,0.5,3.2,2.3,3c0.9-0.1,1.7-0.4,2.3-1c-0.9,1.4-1.7,2.8-2.4,4.2
				c-0.5,1.1-1.2,2.6-1.2,3.9c0,1.7,1.8,2.4,3.2,1.7c1.4-0.7,2.2-2.3,2.5-3.7c0.6-2.4,0.6-5,0.7-7.5c1.2-1.8,2.2-3.3,3.2-5.6
				c0,2.5-0.2,5.1-0.4,7.6c-0.2,2.8-0.5,5.6-1,8.3c-0.1,0.6,0.6,0.6,1,0.4c0.5-0.2,1.1-0.7,1.2-1.3c0.4-2.1,0.7-4.2,1-6.3
				c0.8,0.1,1.7-0.1,2.5-0.6c1.8-1.2,2.4-3.4,2.5-5.4c0-0.3,0-0.6,0-1c0.8,0.2,1.6,0.1,2.3-0.2c-0.3,2.7-0.9,5.3-1.3,8
				c-0.2,1.2,2.2,0.2,2.4-0.6c0.4-2.4,1.1-4.7,2.2-6.8c0.1-0.2,0.2-0.3,0.3-0.5c0,0,0,0.1,0,0.1c0.3,1.5,0,3-0.2,4.4
				c-0.1,0.7-0.2,1.3-0.3,2c-0.2,0.8-0.4,1.6-0.5,2.4c-0.2,1.2,2.2,0.3,2.4-0.5c0.2-0.7,0.4-1.5,0.5-2.2c0.5-1.8,1.2-3.5,2.2-5
				c0.2,0.9,0,1.8-0.1,2.7c-0.1,1.2-0.4,2.3-0.6,3.4c-0.2,0.8-0.4,1.9-0.1,2.8c0.6,2,3.5,0.4,4.2-0.2
				C-504.4,444.2-504.1,443.6-504.8,443.4z M-546.3,439.1c0,0.3-0.1,0.5-0.2,0.8c-0.5,0-0.9-0.8-1.1-1.1c-0.4-0.8-0.6-1.8-0.8-2.7
				c-0.1-1-0.1-2,0-3c0-0.2,0.1-0.5,0.2-0.7c0.2,0,0.4,0.2,0.6,0.4c0.7,0.8,1.1,2.7,1.2,3.4C-546.1,437.1-546.1,438.1-546.3,439.1z
				 M-530.5,443.9c0,1.1-0.1,2.2-0.4,3.2c-0.1,0.3-0.2,0.5-0.3,0.8c0,0-0.4-0.1-0.7-0.3c-0.6-0.5-0.2-1.5,0-2.1
				c0.4-1.1,0.9-2.1,1.4-3C-530.5,442.9-530.5,443.4-530.5,443.9z M-521.4,439.9c0,0-0.1,0.1-0.1,0.1c0,0-0.1,0-0.1,0
				c-0.7,0-1.2-1-1.1-1.8c0.1-1.6,0.3-3.1,0.3-4.7c0,0,0-0.1,0-0.1c0-0.5,0.1-0.9,0.3-1.4c0,0,0,0,0,0c0,0,0,0,0,0
				c0.3,0,0.6,0.3,0.8,0.6c0.7,1,0.7,2.5,0.7,3.6C-520.6,437.5-520.7,438.9-521.4,439.9z"/>
			<path class="st2" d="M-559,426.1c1.6-0.5,2.7-2,3.7-3.2c0.3-0.3,0.9-1.2,0.4-1.5c-0.5-0.3-1.4,0.5-1.6,0.8
				c-0.4,0.5-0.7,1.2-1.4,1.4c-0.7,0.3-1.4,0.2-1.8-0.2c-0.8-0.8-2.8,1.6-2.2,2.2C-561.2,426.4-560.2,426.5-559,426.1z"/>
		</g>
	</g>
</g>
</svg>
