<?xml version="1.0" encoding="utf-8"?>
<!-- Generator: Adobe Illustrator 19.0.0, SVG Export Plug-In . SVG Version: 6.00 Build 0)  -->
<svg version="1.1" id="Layer_1" xmlns="http://www.w3.org/2000/svg" xmlns:xlink="http://www.w3.org/1999/xlink" x="0px" y="0px"
	 viewBox="-580 396.7 86 86" style="enable-background:new -580 396.7 86 86;" xml:space="preserve">
<style type="text/css">
	.st0{fill:#DA1B51;}
	.st1{fill:#62BA47;}
	.st2{fill:#FFFFFF;}
</style>
<circle class="st0" cx="-534.8" cy="435.7" r="39"/>
<circle class="st1" cx="-566" cy="470.4" r="12.3"/>
<g>
	<path class="st2" d="M-574.2,468.5c0.5-1.2,1.3-0.4,1.6,0.2c0.4,0.8-0.1,1.7-0.6,2.4c-0.4,0.6-1,1.1-1.6,1.4
		c-0.3,0.2-0.6,0.3-0.8,0.7c-0.1,0.1-0.2,0.4,0,0.5c0.4,0.4,1.3,0.3,1.8,0.3c0.9,0.1,1.9,0,2.7-0.4c0.5-0.2,0.9-1.4,0.1-1
		c-0.6,0.3-1.5,0.3-2.2,0.2c-0.3,0-1.2,0-1.4-0.2c0,0.2,0,0.3,0,0.5c-0.4,0.7-0.1,0.3,0.2,0.1c0.3-0.2,0.5-0.4,0.8-0.6
		c0.5-0.4,0.8-0.8,1.2-1.3c0.8-0.9,1.2-2,1-3.2c-0.5-2.7-3.4-0.7-3.9,0.8C-575.6,469.6-574.4,468.9-574.2,468.5L-574.2,468.5z"/>
	<path class="st2" d="M-567.4,472.8c0.9,2.9,5.4,0.9,4.7-1.7c-0.4-1.3-1.9-1.1-2.9-1.5c-0.6-0.2-0.6-0.7-0.6-1.2
		c0.2-0.6,0.2-0.7-0.2-0.3c0.2-0.1,0.3-0.1,0.5-0.1c0.9-0.2,1.9-0.1,2.7,0.3c0.4,0.2,1.3-0.8,0.8-1.1c-1.1-0.5-2.4-0.4-3.5-0.2
		c-1.1,0.3-1.4,1.3-1.4,2.3c-0.1,1.3,1.1,1.4,2.1,1.6c0.8,0.1,1.4,0.3,1.5,1.2c0.1,1.4-1.3,1.2-2,0.8c-0.3-0.2-0.5-0.6-0.6-0.9
		C-566.5,471.5-567.5,472.4-567.4,472.8L-567.4,472.8z"/>
	<g>
		<path class="st2" d="M-557.1,467.5c-1.2,2.1-2.8,4-4.3,5.9c-0.6,0.8,0.4,0.8,0.8,0.2c1.5-2,3.2-4.1,4.5-6.3
			C-555.5,466.5-556.8,467-557.1,467.5L-557.1,467.5z"/>
		<path class="st2" d="M-559.4,466.9c-0.8,0-1.3,0.7-1.5,1.5c-0.1,0.7,0.3,1.2,1,1.3C-558.4,469.7-557.7,467-559.4,466.9
			c-0.3,0-0.9,0.8-0.5,0.8c0.4,0,0.5,0.3,0.6,0.7c0,0.1,0,0.3,0,0.4c-0.1,0.1,0,0,0,0c-0.1,0-0.1,0-0.2,0c-0.3,0-0.6-0.3-0.6-0.6
			c0-0.1,0-0.3,0.1-0.4c0-0.1,0.1,0,0,0c0,0,0.1,0,0.2,0C-559.5,467.7-558.9,466.9-559.4,466.9z"/>
		<path class="st2" d="M-557.2,471.3c-0.8,0-1.3,0.7-1.5,1.5c-0.1,0.7,0.3,1.2,1,1.3C-556.3,474.1-555.5,471.4-557.2,471.3
			c-0.3,0-0.9,0.8-0.5,0.8c0.4,0,0.5,0.3,0.6,0.6c0,0.1,0,0.3,0,0.4c0,0.1,0,0,0,0c-0.1,0-0.1,0-0.2,0c-0.3,0-0.6-0.3-0.6-0.6
			c0-0.1,0-0.3,0.1-0.4c0-0.1,0.1,0,0,0c0,0,0.1,0,0.2,0C-557.3,472.1-556.7,471.3-557.2,471.3z"/>
	</g>
	<path class="st2" d="M-569.1,475.5c0.5-0.5,0.9-1.2,1-1.9c0-0.2,0-0.5-0.2-0.7c-0.3-0.3-0.7,0-1,0.1c-0.3,0.1-0.6,0.5-0.7,0.9
		c0,0.4,0.4,0.3,0.6,0.2c0,0,0.1,0,0,0c0,0,0,0,0,0c0.1,0.1,0,0.2,0,0.3c0,0.2-0.1,0.3-0.2,0.4c0,0,0,0.1-0.1,0.1c0-0.1,0-0.1,0,0
		c0,0-0.1,0.1-0.1,0.1c0.1-0.2,0,0,0,0c-0.2,0.1-0.5,0.6-0.3,0.8C-569.7,476-569.3,475.7-569.1,475.5L-569.1,475.5z"/>
</g>
<g>
	<g>
		<g>
			<path class="st2" d="M-504.4,443.4c-0.6-0.2-1.3,0.1-1.7,0.5c-0.3-0.9,0.2-2.7,0.4-3.8c0.7-3,0.7-5.2,0.1-6
				c-0.6-0.8-1.8-0.5-2.4-0.2c-0.4,0.2-0.8,0.4-1.1,0.7c0-0.6-0.2-1.3-0.6-1.8c-0.5-0.6-1.5-0.5-2-0.3c-0.4,0.2-0.8,0.4-1.1,0.7
				c0-0.3,0.1-0.6,0.1-0.9c0-0.2,0-0.3-0.1-0.4c-0.1-0.1-0.2-0.1-0.3-0.2c-0.1,0-0.2-0.1-0.4-0.1c-0.5,0-0.9,0.2-1.2,0.4
				c-0.3,0.2-0.4,0.4-0.6,0.7c-0.5,0.6-1.1,0.4-1.9,0c-0.6-0.3-0.8-0.7-1.2-1.3c-0.2-0.3-0.4-0.6-0.7-0.8c-0.9-0.6-2-0.4-2.9,0
				c0-0.7-0.1-1.4-0.1-2.2c0-0.6-1.2-0.2-1.5-0.1c-0.4,0.2-0.9,0.6-1,1c0,0.1-1,3.5-2.9,6.2c0.1-1.9,0.2-3.8,0.3-5.8
				c0-0.3-0.1-0.5-0.4-0.5c-0.2,0-0.6,0-0.8,0.1c-0.6,0.2-1.3,0.8-1.3,1.4c-0.3,2.7-0.8,8.2-2.2,8.2c-1.6,0-0.8-6.5-0.6-9.4
				c0-0.3-0.2-0.5-0.5-0.5c-0.2,0-0.5,0.1-0.6,0.1c-0.6,0.3-1.2,0.8-1.3,1.4c-0.3,1.8-0.7,3.7-1.3,5.5c-0.3,1-1.1,2.8-2.2,2.8
				c-1.1,0-1.2-1.4-0.9-2.2c0.3-0.9,0.9-1.8,1.5-2.6c0.7-1.1,1-1.8,1.1-2.6c0.1-1.2-0.6-2.2-2-2.4c-1.4-0.1-2.6,0.7-3.5,1.5
				c-0.2,0.2-0.7,0.5-0.9,0.5c-0.9,0.2-1.7-0.6-2-0.7c-0.4-0.3-1-0.6-1.8-0.4c-2.8,0.9-3.4,4.1-3.2,6.7c0.1,1.7,0.1,3-0.2,3.5
				c-0.9,0.1-1.7-1.1-2-1.9c-0.7-1.5-1-3.2-1.2-4.9c-0.2-2.3-0.3-4.8-0.3-7.1c0-0.7-0.9-0.4-1.4,0c-0.6,0.5-1.3,1.3-1.2,2
				c0.1,2.9,0.4,5.9,0.4,8.8c0,1.4,0.1,3-0.4,4.3c-0.2,0.5-0.6,0.7-1.1,0.6c-0.9-0.3-1.3-1.4-1.6-2.2c-0.4-1.4-0.5-2.8-0.6-4.3
				c-0.1-1.4-0.1-2.9-0.2-4.3c-0.1-0.9-0.1-2-0.5-2.8c-0.9-1.4-3.3,0.9-3.9,1.8c-1.1,1.5-1.7,3.3-1.9,4.9c-0.1,0.6,0.4,0.9,1,0.4
				c0.7-0.5,1.2-1.3,1.3-2.1c0.1-0.7,0.3-2.2,1-2.5c0,0,0,0,0.1,0c0,0,0,0,0,0s0,0,0.1,0.2c0.1,0.3,0.2,0.7,0.3,1.1
				c0.3,2.8,0.4,5.7,0.8,8.5c0.3,2,1.2,4.9,4,4.1c1.5-0.4,2.5-2.1,3.1-3.4c0-0.1,0.1-0.1,0.1-0.2c0.7,1.3,1.7,2.3,3.3,1.9
				c1.2-0.3,1.6-1.4,2-2.5c0.5,0.9,1.2,1.6,2.3,1.4c1.3-0.2,2.4-1.6,2.8-2.7c0.5-1.3,0.6-2.7,0.6-4c0-0.5-0.1-1.5-0.3-2.3
				c0.3,0,0.7-0.1,1-0.3c0.6-0.4,1.2-1.2,1.9-1.5c0.2-0.1,0.7-0.1,0.9,0c1.9,0.9-0.8,3-1.8,4.8c-0.7,1.2-1.1,3.1-0.1,4.2
				c1.6,1.9,4.6,0.5,5.9-1.1c0.3-0.4,0.6-0.8,0.9-1.3c0.1,1.4,0.5,3.2,2.3,3c0.9-0.1,1.7-0.4,2.3-1c-0.9,1.4-1.7,2.8-2.4,4.2
				c-0.5,1.1-1.2,2.6-1.2,3.9c0,1.7,1.7,2.4,3.2,1.7c1.4-0.7,2.2-2.3,2.5-3.7c0.6-2.4,0.6-5,0.7-7.5c1.2-1.8,2.2-3.3,3.2-5.6
				c0,2.5-0.2,5.1-0.4,7.6c-0.2,2.8-0.5,5.6-1,8.3c-0.1,0.6,0.6,0.6,1,0.4c0.5-0.2,1.1-0.7,1.2-1.3c0.4-2.1,0.7-4.2,0.9-6.3
				c0.8,0.1,1.7-0.1,2.5-0.6c1.8-1.2,2.4-3.4,2.5-5.4c0-0.3,0-0.6,0-1c0.8,0.2,1.6,0.1,2.3-0.2c-0.3,2.7-0.9,5.3-1.3,8
				c-0.2,1.2,2.2,0.2,2.4-0.6c0.4-2.4,1.1-4.7,2.2-6.8c0.1-0.2,0.2-0.3,0.3-0.5c0,0,0,0.1,0,0.1c0.3,1.5,0,3-0.2,4.4
				c-0.1,0.7-0.2,1.3-0.3,2c-0.2,0.8-0.4,1.6-0.5,2.4c-0.2,1.2,2.2,0.3,2.4-0.5c0.2-0.7,0.4-1.5,0.5-2.2c0.5-1.8,1.2-3.5,2.2-5
				c0.2,0.9,0,1.8-0.1,2.7c-0.1,1.2-0.4,2.3-0.6,3.4c-0.2,0.8-0.4,1.9-0.1,2.8c0.6,2,3.4,0.4,4.2-0.2
				C-504,444.2-503.8,443.6-504.4,443.4z M-545.8,439c0,0.3-0.1,0.5-0.2,0.8c-0.5,0-0.9-0.8-1.1-1.1c-0.4-0.8-0.6-1.8-0.8-2.7
				c-0.1-1-0.1-2,0-3c0-0.2,0.1-0.5,0.2-0.7c0.2,0,0.4,0.2,0.6,0.4c0.7,0.8,1.1,2.7,1.2,3.4C-545.7,437-545.7,438.1-545.8,439z
				 M-530.1,443.8c0,1.1-0.1,2.2-0.4,3.2c-0.1,0.3-0.2,0.5-0.3,0.8c0,0-0.4-0.1-0.7-0.3c-0.6-0.5-0.2-1.5,0-2.1c0.4-1.1,0.9-2,1.4-3
				C-530.1,442.8-530.1,443.3-530.1,443.8z M-521,439.9c0,0-0.1,0.1-0.1,0.1c0,0-0.1,0-0.1,0c-0.7,0-1.2-1-1.1-1.8
				c0.1-1.6,0.3-3.1,0.3-4.6c0,0,0-0.1,0-0.1c0-0.5,0.1-0.9,0.3-1.4c0,0,0,0,0,0c0,0,0,0,0,0c0.3,0,0.6,0.3,0.8,0.6
				c0.7,1,0.7,2.5,0.7,3.6C-520.2,437.5-520.3,438.9-521,439.9z"/>
			<path class="st2" d="M-558.6,426.1c1.6-0.5,2.7-2,3.7-3.2c0.3-0.3,0.9-1.2,0.4-1.5c-0.5-0.3-1.4,0.5-1.6,0.8
				c-0.4,0.5-0.7,1.2-1.4,1.4c-0.7,0.3-1.4,0.2-1.8-0.2c-0.8-0.8-2.8,1.6-2.2,2.2C-560.8,426.4-559.8,426.5-558.6,426.1z"/>
		</g>
	</g>
</g>
<g>
	<g>
		<path class="st2" d="M-520.5,458.9c-0.7-1.1-1.9,0.4-2,1.2c-0.3,1.1,0.1,2.2,0.7,3c0.6,0.8,1.7,0.6,2.2-0.5
			C-518.9,461.2-520,460-520.5,458.9c-0.2,0.3-0.4,0.6-0.7,0.9c0.3,0.7,1.8,4.3,3.2,2c0.3-0.5,0-1.1-0.5-0.4c-0.1,0.2-1-0.8-1-0.8
			C-519.8,460.2-520.2,459.5-520.5,458.9c-0.2-0.4-0.8,0.6-0.7,0.9c0.3,0.6,0.6,1.2,0.8,1.9c0.1,0.2,0.2,0.7,0.1,0.8
			c-0.2,0.1-0.4-0.1-0.5-0.1c-0.4-0.3-0.7-0.8-0.8-1.2c-0.1-0.3-0.2-0.5-0.2-0.8c0-0.1,0-0.3,0-0.4c0.1-0.3,0.6-0.1,0.7,0
			C-520.9,460.3-520.3,459.2-520.5,458.9L-520.5,458.9z"/>
		<path class="st2" d="M-547.1,459.1c-1.6-0.4-2.8,0.6-3.3,1.7c-0.4,0.8-0.4,2.7,1.4,2.4c1.9-0.3,2.5-2.7,2.2-4.2
			c-0.1-0.4-0.2-0.8-0.3-1.3c-0.1-0.2-0.1-0.3,0-0.5c0-0.1,0.1-0.2,0.1-0.3c-0.5,0-0.5,0.1-0.1,0.3c0.7,0.5,1.3,1.3,2.2,1.3
			c0.4,0,1.2-0.6,0.6-0.6c-1.1,0-1.6-1.5-2.7-1.5c-0.9,0-1.3,0.8-1.1,1.6c0.2,0.8,0.4,1.5,0.3,2.3c0,0.2-0.9,2.4-1.2,2.2
			c-1.1-0.7,0.5-3.1,1.5-2.8C-547.4,459.8-546.4,459.3-547.1,459.1L-547.1,459.1z"/>
		<path class="st2" d="M-527.1,461.2c0.8,1.3,1,2.9,1.4,4.3c0.1,0.5,1-0.5,0.9-0.8c-0.1-0.7-0.2-1.4-0.3-2.1c0-0.4-0.3-1.5,0.5-1.3
			c0.2-0.3,0.4-0.7,0.6-1c-2-0.2-2,2.4-1.9,3.4c0,0.3,0.4,0.1,0.5,0c1.2-0.9,1,2,2.4,1c1-0.7,1.5-2,1.6-3c0-0.7-0.8,0-0.8,0.4
			c-0.1,0.6-0.3,1.1-0.7,1.6c-0.2,0.2-0.8-0.9-0.9-0.9c-0.5-0.6-1.2-0.3-1.8,0.2c0.2,0,0.3,0,0.5,0c-0.1-0.4-0.4-1.7,0.5-1.6
			c0.4,0.1,0.9-1,0.6-1c-2.7-0.4-1.9,4.3-1.8,5.2c0.3-0.3,0.6-0.5,0.9-0.8c-0.4-1.5-0.8-3.1-1.6-4.4
			C-526.6,460.1-527.3,460.9-527.1,461.2L-527.1,461.2z"/>
		<path class="st2" d="M-535.1,462.6c0.1,1.4,0.2,2.7,0.1,4.1c0,0.5,1.1-0.2,1.1-0.5c0.1-0.8,0.3-1.2,0.9-1.8c0.7-0.7,0.9-1.5,1-2.3
			c0.1-0.6-0.8,0-0.9,0.4c-0.4,1.2-0.3,2.6,0.1,3.8c0.4,1.3,2.4-0.4,2.8-0.9c0.5-0.6,0-0.9-0.6-0.3c-0.1,0.1-0.9,1-1.1,0.8
			c-0.3-0.3-0.3-0.8-0.4-1.1c-0.1-0.8-0.2-1.8,0-2.6c-0.3,0.1-0.6,0.2-0.9,0.4c-0.2,0.9-0.4,1.4-1.1,2.1c-0.7,0.6-0.9,1.4-1,2.2
			c0.4-0.2,0.8-0.3,1.1-0.5c0-1.4-0.1-2.7-0.3-4.1C-534.1,461.6-535.1,462.3-535.1,462.6L-535.1,462.6z"/>
		<path class="st2" d="M-526.1,464.3c-0.1,0.2-0.2,0.3-0.3,0.5c-0.2,0.4,0,0.1,0,0.1c-0.5,0.2-0.7-0.3-0.8-0.5
			c-0.5-0.9-0.6-1.9-0.8-2.9c-0.1-0.5-0.9,0.3-0.8,0.7c0.1,0.6,0.2,1.3,0.3,1.9c0,0.3,0.1,0.7,0,1c0,0.4,0,0.5-0.4,0.3
			c-1.1-0.4-0.9-2.5-0.8-3.3c0.1-0.6-0.8,0.1-0.9,0.4c-0.1,0.8-0.5,4.4,1.6,3.9c2.4-0.6,1.3-3.6,1.1-4.9c-0.3,0.2-0.6,0.4-0.8,0.7
			c0.2,1.1,0.2,3,1.4,3.7c1,0.6,1.9-1.2,2.1-1.6C-525,463.5-525.9,463.8-526.1,464.3L-526.1,464.3z"/>
		<path class="st2" d="M-542.2,461.9c-0.2,0.8-2,3.9,0,4.2c2.4,0.3,2.8-2.9,3.1-4c0.1-0.4-0.9,0-1,0.3c-0.2,0.8-0.5,1.6-0.9,2.4
			c-0.1,0.3-0.3,0.9-0.8,0.6c-0.5-0.4,0-1.4,0.1-1.8c0.2-0.6,0.4-1.2,0.5-1.8C-541.1,461.3-542.1,461.6-542.2,461.9L-542.2,461.9z"
			/>
		<path class="st2" d="M-540.1,462.4c-0.2,0.9-0.8,6.9-1.8,6.6c-2.4-0.7,3.3-3.5,3.9-3.9c0.6-0.4,0.2-0.8-0.4-0.4
			c-1.1,0.8-2.7,1.3-3.7,2.2c-0.6,0.5-2.5,2.2-0.7,2.8c1.4,0.4,2.4-0.5,2.8-1.2c1-1.8,0.7-4.3,1-6.3
			C-539,461.6-540.1,462.1-540.1,462.4L-540.1,462.4z"/>
		<path class="st2" d="M-535.6,463c-0.3-0.9-1-1.3-1.9-0.6c-0.9,0.7-1.1,2-1.1,3c0,0.8,0.7,1.6,1.9,1.4c1.2-0.2,2.1-1,2.8-1.7
			c0.6-0.6-0.3-0.5-0.7-0.1c-0.6,0.6-2,1.7-2.7,0.4c-0.2-0.5-0.1-1-0.1-1.5c0-0.4,0.2-0.8,0.4-1.2c-0.1,0.2,0.3,0.7,0.3,0.9
			C-536.5,464-535.5,463.3-535.6,463L-535.6,463z"/>
		<path class="st2" d="M-548.1,459.7c0.4,1.3,1.7,1.5,3,1.3c0.6-0.1,0.8-0.7,0-0.6c-0.9,0.1-1.6-0.1-1.9-1
			C-547.1,459.1-548.2,459.3-548.1,459.7L-548.1,459.7z"/>
		<path class="st2" d="M-546.8,463.6c-0.3,0.9,0.8,1.6,1.9,1.3c1-0.3,1.4-1.1,1.6-2c0.2-0.6,0.3-1.6-0.3-2.2
			c-0.3-0.3-0.8-0.2-1.2-0.1c-0.7,0.1-1.1,0.6-1.3,1.1c-0.2,0.4,1,0.3,1.1,0c0.2-0.6,0.5-0.5,0.6,0c0.1,0.4,0,0.7,0,1.1
			c-0.1,0.4-0.2,0.8-0.5,1.2c-0.1,0.1-0.2,0.3-0.3,0.3c0.1,0,0-0.1-0.1-0.1c-0.3-0.2-0.3-0.4-0.3-0.7
			C-545.4,463.1-546.7,463.3-546.8,463.6L-546.8,463.6z"/>
		<path class="st2" d="M-545.6,460c-0.6,2.4-1.5,4.7-2.8,6.8c-0.2,0.4,1.1,0.3,1.3,0c1.2-2.2,2.1-4.6,2.6-7
			C-544.4,459.4-545.5,459.7-545.6,460L-545.6,460z"/>
	</g>
</g>
</svg>
