<?xml version="1.0" encoding="utf-8"?>
<!-- Generator: Adobe Illustrator 19.0.0, SVG Export Plug-In . SVG Version: 6.00 Build 0)  -->
<svg version="1.1" id="Layer_1" xmlns="http://www.w3.org/2000/svg" xmlns:xlink="http://www.w3.org/1999/xlink" x="0px" y="0px"
	 viewBox="0 0 86 86" style="enable-background:new 0 0 86 86;" xml:space="preserve">
<style type="text/css">
	.st0{fill:#00AA55;}
	.st1{fill:#62BA47;}
	.st2{fill:#FFFFFF;}
</style>
<circle id="XMLID_87_" class="st0" cx="45.4" cy="39" r="39"/>
<circle id="XMLID_86_" class="st1" cx="14.3" cy="73.6" r="12.3"/>
<g id="XMLID_113_">
	<path id="XMLID_85_" class="st2" d="M8.4,73c0.4-0.5,0.8-1,1.1-1.6c0.2-0.2,0.4-0.5,0.5-0.7c0.3-0.3,0.2-0.3-0.1-0.1
		c0,0.4,0,0.7,0,1.1c0,2.1-0.1,4.2-0.3,6.3c-0.1,0.8,1.3-0.2,1.4-0.7c0.1-1.4,0.2-2.8,0.2-4.2c0-0.6,0.5-3.8-0.3-4
		c-1.4-0.4-2.9,2.8-3.6,3.6C6.7,73.7,7.9,73.6,8.4,73L8.4,73z"/>
	<path id="XMLID_84_" class="st2" d="M19.4,70.2c-1.5,2.5-3.4,4.8-5.1,7.1c-0.8,1,0.5,1,1,0.3c1.8-2.4,3.8-4.8,5.3-7.5
		C21.2,69,19.7,69.6,19.4,70.2L19.4,70.2z"/>
	<path id="XMLID_83_" class="st2" d="M16.6,69.5c-0.9,0-1.6,0.9-1.7,1.7c-0.2,0.8,0.3,1.5,1.1,1.5C17.7,72.8,18.6,69.6,16.6,69.5
		c-0.4,0-1.1,1-0.5,1c0.4,0,0.7,0.4,0.7,0.8c0,0.1,0,0.3-0.1,0.5c-0.1,0.1,0,0,0,0c-0.1,0-0.2,0-0.2,0c-0.4,0-0.7-0.4-0.7-0.8
		c0-0.2,0-0.4,0.1-0.5c0.1-0.1,0.1,0,0,0c0.1,0,0.1,0,0.2,0C16.5,70.4,17.2,69.5,16.6,69.5z"/>
	<path id="XMLID_82_" class="st2" d="M19.2,74.7c-0.9,0-1.6,0.9-1.7,1.7c-0.2,0.8,0.3,1.5,1.1,1.5C20.3,78,21.2,74.8,19.2,74.7
		c-0.4,0-1.1,1-0.5,1c0.4,0,0.7,0.4,0.7,0.8c0,0.1,0,0.3-0.1,0.5c-0.1,0.1,0,0,0,0c-0.1,0-0.2,0-0.2,0c-0.4,0-0.7-0.4-0.7-0.8
		c0-0.2,0-0.4,0.1-0.5c0.1-0.1,0.1,0,0,0c0.1,0,0.1,0,0.2,0C19.1,75.7,19.8,74.7,19.2,74.7z"/>
</g>
<g id="XMLID_89_">
	<g id="XMLID_90_">
		<g id="XMLID_91_">
			<path id="XMLID_92_" class="st2" d="M76.4,44.1c0.4-2.1,0.6-4.7-0.9-6.3c-0.8-0.9-2.3-0.9-3.4-0.6c0.1-0.9,0.1-1.7,0.1-2.6
				c0-0.7-1.4-0.5-1.7-0.4c-0.7,0.2-1.4,0.7-1.4,1.4c-0.1,2.9-0.4,5.7-0.8,8.6c0,0,0,0.1,0,0.1c-0.2,0.9-0.5,2.2-1.4,2.6
				c-0.9,0.4-1.2-2.5-1.2-2.8c0.1-2.9,0.5-5.7,1.1-8.6c0.1-0.7-0.8-0.8-1.3-0.7c-0.7,0.2-1.6,0.7-1.8,1.4c-0.4,2.2-0.8,4.4-1.3,6.6
				c-0.2,1-0.5,1.9-1,2.8c0,0,0,0.1-0.1,0.1c-0.2-0.1-0.4-0.2-0.6-0.3c-1.5-0.9-1.1-3.7-1-4.9c0.2-1.9,0.7-3.8,1.4-5.5
				c0.3-0.6-0.1-1-0.8-0.9c-0.4,0-0.8,0.2-1.2,0.4c-0.2,0.1-0.8,0.5-0.9,0.5c-0.2,0.1-0.4,0.2-0.7,0.2c-1.6,0.5-2.7-0.2-3.6-1.4
				c0,0,0,0,0,0c-0.2-0.3-0.5-0.6-0.9-0.8c-1.1-0.7-2.5-0.2-3.5,0.3c-0.1-0.8-0.2-1.7-0.3-2.5c-0.1-0.7-1.5-0.1-1.8,0
				c-0.6,0.4-1.3,1-1.2,1.7c-0.9,0.1-1.7,0.6-2.3,1.1c-1.7,1.5-2.5,3.8-2.4,6.1v0c-0.3,2-1.3,4.9-3.6,4.7c-0.5,0-0.9-0.7-1.2-1.3
				c0.8-1,1.5-2.2,2.1-3.2c1.2-1.9,2-4.6,0.5-6.4c-0.9-1.2-3.4-0.1-4.4,0.8c-1.4,1.3-1.8,3.2-1.9,4.9c-0.1,1.2,0,3.3,0.6,5
				c-0.3,0.5-0.9,1.1-1.4,0.8c-0.5-0.2-0.6-0.9-0.8-1.4c-0.5-1.6-0.5-3.3-1.2-4.8c-0.9-2.2-3.2-2.3-5.4-1.2c-0.3-1.9-0.4-4,0.5-5.9
				c1-2.1,3.4-1.3,4.8-0.4c1,0.6,3.5-1.9,2.5-2.6c-1.4-0.9-3.1-1.7-5-1c-1.6,0.6-2.9,1.9-3.8,3.1c-0.2,0.2-0.3,0.5-0.5,0.7
				c-0.5-1.4-1-2.9-1.5-4.3c-0.2-0.5-1.1,0-1.4,0.3c-3,2.1-8,6.4-6.1,10.5c0.4,0.9,2.9-1.8,2.4-2.8c-0.8-1.5,1-3.5,2.7-4.8
				c1.2,3.4,2.1,6.8,2.9,10.2c0.5,2.1,0.8,4.5-0.2,6.5c-1.1,2-3.7,0.7-4-0.9c-0.2-1.4-2.5,1.3-2.3,2.3c0.2,1.2,0.9,2.1,2,2.5
				c1.1,0.4,2.3-0.1,3.3-0.8c2.3-1.6,3.8-4.3,4-7.1c0.1-1.1,0.1-2.3,0-3.4c0.8-0.2,1.5-0.1,2.1,0.5c1.2,1.3,1.2,3.4,1.6,5
				c0.3,1.2,0.9,2.6,2.5,2.4c1.2-0.2,2.3-1.1,3.1-2.1c0.5,0.7,1.2,1.2,2.1,1.3c1.6,0.1,3.3-1.1,4.4-2.1c0.4-0.4,0.8-0.8,1.2-1.2
				c0.3,0.8,0.7,1.5,1.2,2.1c0.6,0.7,1.6,0.9,2.5,0.7c0.4-0.1,0.7-0.2,1.1-0.3c-0.1,2.7-0.3,5.4-0.6,8.1c-0.1,0.7,0.8,0.6,1.2,0.4
				c0.6-0.3,1.3-0.9,1.4-1.7c0.3-2.1,0.5-4.3,0.6-6.5c1,0,2.1-0.3,3-1c2-1.6,2.7-4.2,2.7-6.7c0-0.4,0-0.9,0-1.4
				c0.9,0,1.8-0.1,2.6-0.4c-0.5,1.7-0.8,3.5-0.9,5.3c-0.1,1.7,0,4.6,2.3,5.3c1.5,0.5,2.8-0.1,3.8-1.1c0.1,0.3,0.2,0.7,0.3,1
				c0.8,1.9,2.9,1.5,4.3,0.9c-0.6,2.9-1.3,5.8-2,8.7c-0.2,0.7,0.6,0.8,1.1,0.7c0.6-0.1,1.4-0.6,1.6-1.3c0.6-2.1,1.2-4.1,1.7-6.2
				c0.9,0.3,2.1,0.3,3-0.2C75,49,76,46.4,76.4,44.1z M35.6,38.7c0-1.1,0.1-2.1,0.4-3.2c0.2,0,0.4,0.1,0.5,0.2c1.3,0.8,0.4,3-0.1,4
				c-0.2,0.4-0.4,0.8-0.6,1.3C35.7,40.3,35.6,39.5,35.6,38.7z M46.6,44.1c-0.1,0-0.4-0.1-0.5-0.1c-0.5-0.3-0.8-0.7-1.1-1.2
				c-0.7-1.3-0.8-2.8-0.8-4.3c0-1.2,0.2-2.5,0.7-3.6c0.1,0,0.2,0.1,0.3,0.2c1,0.7,1.4,2.1,1.5,3.1l0,0c0,1.9,0.1,3.9,0,5.9
				c0,0,0,0,0,0C46.7,44.1,46.7,44.1,46.6,44.1z M51.3,44.1c0,0.1-0.1,0.1-0.1,0.2c0,0,0,0,0,0c-1.1,0-1.6-0.8-1.6-1.7c0,0,0,0,0,0
				c0.1-2,0.1-4.1,0.1-6.1c0-1.1,0.3-1.5,0.3-1.5c0.2,0.1,0.7,0.2,1,0.6c0.9,1.1,1.1,2.8,1.1,4.1C52.1,41.1,52.1,42.8,51.3,44.1z
				 M72.1,48.4c0,0-0.1,0.1-0.2,0.1c0,0,0,0,0,0c-1-0.2-1.3-1.4-1.2-2.2c0,0,0.7-3.7,1-5.6c0-0.2,0.3-1.3,0.6-1.7c0,0,0,0,0,0
				c0,0,0,0,0,0c0.4,0.1,0.6,0.5,0.8,0.9c0.7,1.3,0.6,3.1,0.4,4.4C73.3,45.7,73,47.3,72.1,48.4z"/>
		</g>
	</g>
</g>
</svg>
