<?xml version="1.0" encoding="utf-8"?>
<!-- Generator: Adobe Illustrator 19.0.0, SVG Export Plug-In . SVG Version: 6.00 Build 0)  -->
<svg version="1.1" id="Layer_1" xmlns="http://www.w3.org/2000/svg" xmlns:xlink="http://www.w3.org/1999/xlink" x="0px" y="0px"
	 viewBox="0 0 86 86" style="enable-background:new 0 0 86 86;" xml:space="preserve">
<style type="text/css">
	.st0{fill:#009373;}
	.st1{fill:#62BA47;}
	.st2{fill:#FFFFFF;}
</style>
<circle id="XMLID_111_" class="st0" cx="45.2" cy="39" r="39"/>
<circle id="XMLID_110_" class="st1" cx="14" cy="73.7" r="12.3"/>
<g id="XMLID_87_">
	<path id="XMLID_94_" class="st2" d="M5.8,71.8c0.5-1.2,1.3-0.4,1.6,0.2c0.4,0.8-0.1,1.7-0.6,2.4c-0.4,0.6-1,1.1-1.6,1.4
		c-0.3,0.2-0.6,0.3-0.8,0.7c-0.1,0.1-0.2,0.4,0,0.5c0.4,0.4,1.3,0.3,1.8,0.3c0.9,0.1,1.9,0,2.7-0.4c0.5-0.2,0.9-1.4,0.1-1
		c-0.6,0.3-1.5,0.3-2.2,0.2c-0.3,0-1.2,0-1.4-0.2c0,0.2,0,0.3,0,0.5c-0.4,0.7-0.1,0.3,0.2,0.1c0.3-0.2,0.5-0.4,0.8-0.6
		c0.5-0.4,0.8-0.8,1.2-1.3c0.8-0.9,1.2-2,1-3.2c-0.5-2.7-3.4-0.7-3.9,0.8C4.4,72.9,5.6,72.2,5.8,71.8L5.8,71.8z"/>
	<path id="XMLID_93_" class="st2" d="M12.6,76.2c0.9,2.9,5.4,0.9,4.7-1.7c-0.4-1.3-1.9-1.1-2.9-1.5c-0.6-0.2-0.6-0.7-0.6-1.2
		c0.2-0.6,0.2-0.7-0.2-0.3c0.2-0.1,0.3-0.1,0.5-0.1c0.9-0.2,1.9-0.1,2.7,0.3c0.4,0.2,1.3-0.8,0.8-1.1c-1.1-0.5-2.4-0.4-3.5-0.2
		c-1.1,0.3-1.4,1.3-1.4,2.3c-0.1,1.3,1.1,1.4,2.1,1.6c0.8,0.1,1.4,0.3,1.5,1.2c0.1,1.4-1.3,1.2-2,0.8c-0.3-0.2-0.5-0.6-0.6-0.9
		C13.5,74.9,12.5,75.7,12.6,76.2L12.6,76.2z"/>
	<g id="XMLID_89_">
		<path id="XMLID_92_" class="st2" d="M22.9,70.8c-1.2,2.1-2.8,4-4.3,5.9C18,77.6,19,77.6,19.5,77c1.5-2,3.2-4.1,4.5-6.3
			C24.5,69.9,23.2,70.3,22.9,70.8L22.9,70.8z"/>
		<path id="XMLID_91_" class="st2" d="M20.6,70.2c-0.8,0-1.3,0.7-1.5,1.5c-0.1,0.7,0.3,1.2,1,1.3C21.6,73,22.3,70.3,20.6,70.2
			c-0.3,0-0.9,0.8-0.5,0.8c0.4,0,0.5,0.3,0.6,0.7c0,0.1,0,0.3,0,0.4c-0.1,0.1,0,0,0,0c-0.1,0-0.1,0-0.2,0c-0.3,0-0.6-0.3-0.6-0.6
			c0-0.1,0-0.3,0.1-0.4c0-0.1,0.1,0,0,0c0,0,0.1,0,0.2,0C20.5,71.1,21.1,70.2,20.6,70.2z"/>
		<path id="XMLID_90_" class="st2" d="M22.8,74.7c-0.8,0-1.3,0.7-1.5,1.5c-0.1,0.7,0.3,1.2,1,1.3C23.7,77.5,24.5,74.8,22.8,74.7
			c-0.3,0-0.9,0.8-0.5,0.8c0.4,0,0.5,0.3,0.6,0.7c0,0.1,0,0.3,0,0.4c0,0.1,0,0,0,0c-0.1,0-0.1,0-0.2,0c-0.3,0-0.6-0.3-0.6-0.6
			c0-0.1,0-0.3,0.1-0.4c0-0.1,0.1,0,0,0c0,0,0.1,0,0.2,0C22.7,75.5,23.2,74.7,22.8,74.7z"/>
	</g>
	<path id="XMLID_88_" class="st2" d="M10.8,78.9c0.5-0.5,0.9-1.2,1-1.9c0-0.2,0-0.5-0.2-0.7c-0.3-0.3-0.7,0-1,0.1
		c-0.3,0.1-0.6,0.5-0.7,0.9c0,0.4,0.4,0.3,0.6,0.2c0,0,0.1,0,0,0c0,0,0,0,0,0c0.1,0.1,0,0.2,0,0.3c0,0.2-0.1,0.3-0.2,0.4
		c0,0,0,0.1-0.1,0.1c0-0.1,0-0.1,0,0c0,0-0.1,0.1-0.1,0.1c0.1-0.2,0,0,0,0c-0.2,0.1-0.5,0.6-0.3,0.8C10.2,79.4,10.7,79,10.8,78.9
		L10.8,78.9z"/>
</g>
<g id="XMLID_7_">
	<g id="XMLID_73_">
		<g id="XMLID_74_">
			<path id="XMLID_75_" class="st2" d="M76.6,44.2c0.4-2.1,0.6-4.7-0.9-6.4c-0.8-0.9-2.3-0.9-3.4-0.6c0.1-0.9,0.1-1.7,0.1-2.6
				c0-0.7-1.4-0.5-1.7-0.4c-0.7,0.2-1.4,0.7-1.4,1.4c-0.1,2.9-0.4,5.7-0.8,8.6c0,0,0,0.1,0,0.1c-0.2,0.9-0.6,2.2-1.4,2.6
				c-0.9,0.4-1.2-2.5-1.2-2.8c0.1-2.9,0.5-5.7,1.1-8.6c0.1-0.7-0.8-0.8-1.3-0.7c-0.7,0.2-1.6,0.7-1.8,1.4c-0.4,2.2-0.8,4.4-1.3,6.6
				c-0.2,1-0.5,1.9-1,2.8c0,0,0,0.1-0.1,0.1c-0.2-0.1-0.4-0.2-0.6-0.3c-1.5-0.9-1.1-3.7-1-4.9c0.2-1.9,0.7-3.8,1.4-5.5
				c0.3-0.6-0.1-1-0.8-0.9c-0.4,0-0.8,0.2-1.2,0.4c-0.2,0.1-0.8,0.5-0.9,0.5c-0.2,0.1-0.4,0.2-0.7,0.2c-1.6,0.5-2.7-0.2-3.6-1.4
				c0,0,0,0,0,0c-0.2-0.3-0.5-0.6-0.9-0.8c-1.1-0.7-2.5-0.2-3.5,0.3c-0.1-0.8-0.2-1.7-0.3-2.5c-0.1-0.7-1.5-0.1-1.8,0
				c-0.6,0.4-1.3,1-1.2,1.7c-0.9,0.1-1.8,0.6-2.3,1.1c-1.7,1.5-2.5,3.8-2.4,6.1v0c-0.3,2-1.3,5-3.6,4.8c-0.5,0-0.9-0.7-1.2-1.3
				c0.8-1,1.5-2.2,2.1-3.2c1.2-1.9,2-4.6,0.5-6.4c-0.9-1.2-3.4-0.1-4.4,0.8c-1.4,1.3-1.8,3.2-1.9,4.9c-0.1,1.2,0,3.3,0.6,5.1
				c-0.3,0.5-0.9,1.1-1.4,0.8c-0.5-0.2-0.7-0.9-0.8-1.4c-0.5-1.6-0.5-3.3-1.2-4.8c-0.9-2.2-3.2-2.3-5.4-1.2c-0.3-1.9-0.4-4,0.5-5.9
				c1-2.1,3.4-1.3,4.8-0.4c1,0.6,3.5-1.9,2.5-2.6c-1.4-0.9-3.1-1.7-5-1c-1.6,0.6-2.9,1.9-3.8,3.1c-0.2,0.2-0.3,0.5-0.5,0.7
				c-0.5-1.5-1-2.9-1.5-4.3c-0.2-0.5-1.1,0-1.4,0.3c-3,2.1-8.1,6.4-6.1,10.5c0.4,0.9,2.9-1.8,2.4-2.8c-0.8-1.5,1-3.5,2.7-4.8
				c1.2,3.4,2.1,6.8,2.9,10.2c0.5,2.1,0.8,4.6-0.2,6.5c-1.1,2-3.7,0.7-4-0.9c-0.2-1.4-2.5,1.3-2.3,2.3c0.2,1.2,0.9,2.1,2,2.5
				c1.1,0.4,2.3-0.1,3.3-0.8c2.4-1.6,3.8-4.3,4.1-7.1c0.1-1.1,0.1-2.3,0-3.5c0.8-0.2,1.5-0.1,2.1,0.5c1.2,1.3,1.2,3.4,1.6,5
				c0.3,1.2,0.9,2.6,2.5,2.4c1.2-0.2,2.3-1.1,3.1-2.1c0.5,0.7,1.2,1.2,2.1,1.3c1.6,0.1,3.4-1.1,4.5-2.1c0.4-0.4,0.8-0.8,1.2-1.2
				c0.3,0.8,0.7,1.5,1.2,2.1c0.6,0.7,1.6,0.9,2.5,0.7c0.4-0.1,0.7-0.2,1.1-0.3c-0.1,2.7-0.3,5.4-0.6,8.1c-0.1,0.7,0.8,0.6,1.2,0.4
				c0.6-0.3,1.3-0.9,1.4-1.7c0.3-2.1,0.5-4.3,0.6-6.5c1,0,2.2-0.3,3-1c2-1.6,2.7-4.2,2.7-6.7c0-0.4,0-0.9,0-1.4
				c0.9,0,1.8-0.1,2.6-0.4c-0.5,1.7-0.8,3.5-0.9,5.3c-0.1,1.7,0,4.6,2.3,5.3c1.5,0.5,2.8-0.1,3.8-1.1c0.1,0.3,0.2,0.7,0.3,1
				c0.8,1.9,2.9,1.5,4.3,0.9c-0.6,2.9-1.3,5.8-2,8.7c-0.2,0.7,0.6,0.8,1.1,0.7c0.6-0.1,1.4-0.6,1.6-1.3c0.6-2.1,1.2-4.1,1.7-6.2
				c0.9,0.3,2.1,0.3,3-0.2C75.2,49,76.2,46.5,76.6,44.2z M35.8,38.8c0-1.1,0.1-2.1,0.4-3.2c0.2,0,0.4,0.1,0.5,0.2
				c1.3,0.8,0.4,3-0.1,4c-0.2,0.4-0.4,0.8-0.6,1.3C35.9,40.4,35.8,39.6,35.8,38.8z M46.8,44.1c-0.1,0-0.4-0.1-0.5-0.1
				c-0.5-0.3-0.8-0.7-1.1-1.2c-0.7-1.3-0.8-2.9-0.8-4.3c0-1.2,0.2-2.5,0.7-3.6c0.1,0,0.2,0.1,0.3,0.2c1,0.7,1.4,2.1,1.5,3.1l0,0
				c0,1.9,0.1,3.9,0,5.9c0,0,0,0,0,0C46.9,44.1,46.8,44.1,46.8,44.1z M51.5,44.1c0,0.1-0.1,0.1-0.1,0.2c0,0,0,0,0,0
				c-1.1,0-1.6-0.8-1.6-1.7c0,0,0,0,0,0c0.1-2,0.1-4.1,0.1-6.1c0-1.1,0.3-1.5,0.3-1.5c0.2,0.1,0.7,0.2,1,0.6
				c0.9,1.1,1.1,2.8,1.1,4.1C52.3,41.2,52.2,42.9,51.5,44.1z M72.3,48.4c0,0-0.1,0.1-0.2,0.1c0,0,0,0,0,0c-1-0.2-1.3-1.4-1.2-2.2
				c0,0,0.7-3.7,1-5.6c0-0.2,0.3-1.3,0.6-1.7c0,0,0,0,0,0c0,0,0,0,0,0c0.4,0.1,0.6,0.5,0.8,0.9c0.7,1.3,0.6,3.1,0.4,4.4
				C73.5,45.7,73.2,47.4,72.3,48.4z"/>
		</g>
	</g>
</g>
</svg>
