<?xml version="1.0" encoding="utf-8"?>
<!-- Generator: Adobe Illustrator 19.0.0, SVG Export Plug-In . SVG Version: 6.00 Build 0)  -->
<svg version="1.1" id="Layer_1" xmlns="http://www.w3.org/2000/svg" xmlns:xlink="http://www.w3.org/1999/xlink" x="0px" y="0px"
	 viewBox="-580 396.7 86 86" style="enable-background:new -580 396.7 86 86;" xml:space="preserve">
<style type="text/css">
	.st0{fill:#F48020;}
	.st1{fill:#FFFFFF;}
</style>
<circle class="st0" cx="-537" cy="439.7" r="42.4"/>
<path class="st1" d="M-505.6,438.8c-0.1-0.1-0.5-0.2-0.6-0.2c-4-0.6-5.9,3.7-6.6,6.8c0,0,0,0.1,0,0.1c-0.6,2.2-2.1,4.3-2.3,4.7
	c-0.2,0.3-0.4,0.2-0.5,0.1c-0.1-0.1-0.4-0.7-0.4-1c-0.3-1.1-0.3-2.3-0.4-3.4c0-3.1,0.3-6.2,0.7-9.2c0.1-0.6-0.4-0.9-1-0.8
	c-1,0.1-1.9,0.7-2.3,1.5c-1.4,2.2-2.3,4.8-2.8,7.4c-0.3,1.3-0.5,2.8-0.9,4c0,0-0.1-0.1-0.1-0.1c-0.4-0.3-0.6-0.8-0.7-1.2
	c0-0.1-0.1-0.3-0.2-0.4c-0.1-0.1-0.3-0.2-0.6-0.2c-0.6,0-1.2,0.3-1.6,0.7c-0.2,0.1-0.4,0.3-0.5,0.5c-0.1,0.1-0.3,0.4-0.9,0.3
	c-0.7-0.1-1.1-0.7-1.5-1.3c-0.7-1.2-0.7-2.9-0.6-4.1c0-1.8,0.3-3.7,0.9-5.3c0.1-0.1,0.1-0.3,0.2-0.4c0.1,0,0.1,0.1,0.2,0.1
	c0.8,0.6,1,1.7,1.2,2.5c0.3,1.4,3.7-0.5,3.4-1.8c-0.3-1.2-0.6-2.7-1.9-3.4c-1.3-0.8-2.9-0.2-3.9,0.5c-2.5,1.9-3.3,5.2-3.4,8.3
	c0,0.2,0,0.4,0,0.5c-0.2,1.2-0.7,2.3-1.3,3.4c-0.1,0.2-0.3,0.7-0.8,0.5c-0.3-0.1-0.4-0.7-0.5-1c-0.5-1.7-0.6-3.6-0.6-5.4
	c0.1-1.3,0.1-2.5,0.2-3.7c0-0.4,0.1-0.9,0.1-1.3c0-0.1,0-0.1,0-0.2c0-1.9-1.6-2.8-3.7-2.3c-2,0.4-3.5,1.9-4.4,3.5
	c-1,1.6-1.4,3.5-1.5,5.4c-0.2,1.6,0,5.2-0.9,5.3c-1.3,0.2-2.1-1.9-2.4-2.8c-0.8-2.1-1.1-4.4-1.3-6.6c-0.3-3.8-0.5-7.5-0.1-11.2
	c0.1-0.6-0.7-0.7-1.2-0.5c-0.8,0.3-1.6,1.1-1.9,1.8c-1.2,2.7-1.6,5.7-2,8.6c0,0,0,0.1,0,0.1c0-0.3-0.1-0.5-0.1-0.8
	c-0.3-2.3-0.6-4.7-0.8-7.1c-0.1-1.4-0.3-3.3-0.1-4.5c0.4-1.9-2.3-0.2-2.8,0.7c-3,5.2-2.1,11.4-2.1,17.1c0,1.5-0.1,3-0.4,4.5
	c-0.2,1-0.4,2.9-1.3,3.6c-0.6,0.5-1.5,0-1.9-0.3c-0.7-0.4-1.1-1.3-1.2-2.1c-0.1-0.9-1-0.4-1.5,0c-0.6,0.6-1.3,1.7-1.2,2.5
	c0.3,2,2,4,4,3.4c3.4-0.9,4.9-4.9,5.7-8.1c0.5-1.8,0.7-3.8,0.7-5.6c0.6,3.5,1.1,7,1.7,10.5c0.3,1.8,2.8-1.1,2.9-2.2
	c0.1-2.5,0.3-5,0.5-7.4c0.5,3.2,1.8,9.4,5.4,9.4c1.1,0,2.3-1.3,2.9-2.5c0.3,0.8,0.8,1.5,1.6,1.9c1.5,0.7,3.4-0.5,4.3-1.6
	c0,0,0.1-0.1,0.1-0.1c0.2,0.6,0.5,1.2,0.9,1.5c2,1.4,4.3-0.5,5.4-2c0.2,0.6,0.6,1.2,1,1.7c1.5,1.7,3.4,1.2,5,0.2
	c1.5,2.2,4.9,1.1,6.2-1.2c0.2-0.3,0.3-0.6,0.4-0.9c0,0.3,0,0.6,0.1,0.9c0.1,1,0.3,2.3,1,3.2c0.8,1,2.2,0.7,3,0.2
	c0.8-0.5,1.6-1.5,2.4-2.5c0,2.1,0.6,4.1,2.5,4.8c1.7,0.6,3.6-0.7,4.5-1.9c1.2-1.4,1.8-3.3,2.3-5.1
	C-503.2,444.9-502.5,440.7-505.6,438.8z M-540.6,446.2c0,0.1-0.1,0.5-0.2,0.7c-0.1,0-0.3,0-0.5,0c-0.6-0.2-0.9-1.2-1.1-1.8
	c-0.7-2.1-0.6-4.6-0.1-6.8c0.2-0.7,0.6-1.8,0.9-2.2c0,0,0.1-0.1,0.1-0.1c0.2,0,0.4,0,0.5,0c0.8-0.1,1.2,0.6,1.2,1.2
	C-539.8,440.3-539.9,443.3-540.6,446.2z M-508.9,450.6c-0.2,0.3-0.3,0.7-0.5,0.9c-0.6-0.4-0.8-1.6-0.9-2.2c-0.2-1.4-0.1-2.8,0.1-4.1
	c0.2-1.4,0.6-2.8,1.2-4c0.1-0.3,0.3-0.6,0.5-0.9c1.5,1,1,5.1,0.8,6.3C-508,448-508.3,449.4-508.9,450.6z"/>
<g>
	<g>
		<path class="st1" d="M-541.2,472.2c0,1.2,1.8,1.2,2.6,0.5c0.6-0.5,0.6-1.2,0.7-1.9c0.2-1,0.3-2,0.8-2.9c-0.4,0.1-0.8,0.3-1.1,0.4
			c-0.1,1-0.1,2.1,0.1,3.1c0.1,0.6,0.1,1.5,0.8,1.8c1.1,0.6,2.8-1.3,3.2-1.8c0.6-0.7-0.4-0.6-0.9-0.1c-0.6,0.7-1.1,1.5-1.5,0.5
			c-0.6-1.2-0.5-2.8-0.4-4.1c0-0.6-1,0.2-1.1,0.4c-0.3,0.6-0.6,1.3-0.7,1.9c-0.1,0.4-0.2,0.8-0.3,1.2c0,0.2-0.1,0.4-0.1,0.6
			c-0.1,0.6-0.5,0.1-0.5-0.1C-539.9,471.2-541.2,471.8-541.2,472.2L-541.2,472.2z"/>
		<path class="st1" d="M-554.4,463.1c-0.8,1.4-1.8,2.7-2.6,4c-0.3,0.5,1.3,0.6,1.5,0.3c0.6-0.9,1.3-1.8,2.2-2.6
			c0.1-0.1,0.2-0.2,0.4-0.3c0.1,0,0.1-0.1,0.2-0.1c0.3-0.1,0.2-0.2-0.2-0.2c0.1,0.2,0,0.5-0.1,0.7c-0.3,1.3-1.1,2.4-1.9,3.5
			c0.5,0.1,1,0.1,1.5,0.2c0.5-1.1,1.3-2.1,2.2-2.9c0.2-0.2,0.3-0.3,0.5-0.4c-0.4,0.3-0.3,0-0.4,0.4c-0.1,0.6-0.3,1.2-0.6,1.7
			c-0.3,0.6-1.1,1.5-0.7,2.3c0.3,0.7,1.5,0.5,2,0.4c0.9-0.2,0.5-0.8-0.4-0.6c-0.4,0.1-0.1-0.7,0-0.8c0.2-0.6,0.5-1.2,0.8-1.9
			c0.2-0.5,0.7-1.7-0.1-2.1c-0.7-0.4-1.7,0.3-2.2,0.7c-1.1,0.8-2,2-2.6,3.1c-0.3,0.5,1.3,0.5,1.5,0.2c0.5-0.8,1-1.7,1.4-2.6
			c0.2-0.4,0.9-1.7,0.3-2.2c-0.6-0.5-1.6-0.1-2.1,0.2c-1.3,0.8-2.3,2-3.2,3.2c0.5,0.1,1,0.2,1.5,0.3c0.8-1.4,1.8-2.7,2.5-4.1
			C-552.8,462.7-554.2,462.7-554.4,463.1L-554.4,463.1z"/>
		<path class="st1" d="M-545,467.3c-0.1,1.6-0.7,3.1-1.1,4.6c-0.2,0.6,1.3,0.2,1.4-0.2c0.3-1.3,0.8-2.6,1.7-3.6
			c0.3-0.4,0.2-0.1,0-0.1c0.2,0.1,0.2,0.4,0.2,0.5c0.1,0.5,0,1.1-0.1,1.6c-0.1,0.7-0.6,1.8-0.1,2.5c0.5,0.6,1.4,0.3,2.1,0.1
			c0.7-0.3,0.8-1.1-0.2-0.7c-1.1,0.4-0.4-2.3-0.4-2.7c0.1-0.5,0.3-2.1-0.7-2.2c-2.3-0.2-3.5,3.5-3.9,4.9c0.5-0.1,1-0.1,1.4-0.2
			c0.4-1.6,0.9-3.2,0.9-4.9C-543.7,466.4-545,466.9-545,467.3L-545,467.3z"/>
		<path class="st1" d="M-534.3,471.8c0.7-0.7,2.8-4,0.8-4.3c-1.5-0.2-2,1.8-2.2,2.6c-0.1,0.9-0.2,3,1.3,3.2c1.9,0.3,4-1.8,4.8-2.9
			c0.5-0.7-0.1-1-0.6-0.3c-0.7,0.9-1.7,1.9-3,2.1c-0.8,0.2-1.1-0.9-1.2-1.3c-0.2-0.7-0.2-1.8,0.2-2.4c-0.1,0.2,0,0.1,0.2,0.2
			c0.2,0.1,0.2,0.5,0.2,0.7c0,0.8-0.7,1.7-1.4,2.3C-535.9,472.3-534.8,472.3-534.3,471.8L-534.3,471.8z"/>
		<path class="st1" d="M-520,467.6c0.4-1.1,1-4.2-0.7-4.3c-1.3-0.1-1.5,1.7-1.5,2.4c0.1,1.1,0.6,2.5,1.6,3.1c1.2,0.7,2.6-0.8,3-1.8
			c0.1-0.3,0.3-0.7,0.1-0.9c-0.2-0.2-0.6,0.3-0.6,0.5c-1,2.2-2.5,0.4-2.9-0.6c-0.1-0.3-0.2-0.6-0.3-0.9c0-0.1,0-0.3,0-0.5
			c0-0.2-0.1,0.1,0.1,0c1.3-0.3,0.5,2.7,0.3,3.2C-521.2,468.7-520.2,468.2-520,467.6L-520,467.6z"/>
		<path class="st1" d="M-534.2,466.5c0.2-0.3,0.3-0.7,0.3-1c0-0.3-0.3-0.2-0.5-0.1c-0.2,0.1-0.5,0.5-0.5,0.7c0,0,0,0.1,0,0.1
			c0,0-0.1,0.2,0,0.1c0,0.1-0.1,0.3,0,0c-0.1,0.1-0.3,0.5,0,0.6C-534.7,467.1-534.3,466.7-534.2,466.5L-534.2,466.5z"/>
		<path class="st1" d="M-532.7,466c0.1-0.2,0.2-0.5,0.2-0.8c0-0.3-0.4-0.2-0.5-0.1c-0.2,0.2-0.5,0.5-0.5,0.8c0,0.1,0,0.2,0,0.2
			c0-0.1,0,0,0,0.1c-0.1,0.2-0.1,0.5,0.2,0.5C-533,466.5-532.8,466.2-532.7,466L-532.7,466z"/>
		<path class="st1" d="M-531.6,467.8c0.4,1.6,0.8,3.1,1,4.7c0.1,0.6,1.2-0.4,1.2-0.8c0-0.9,0.1-1.5,0.7-2.3c0.6-0.9,0.7-1.9,0.7-2.9
			c0-0.8-0.9,0.2-1,0.6c-0.1,1,0.1,2,0.3,2.9c0.2,0.6,0.3,1.6,1,2c0.4,0.2,1.3-0.5,1.5-0.7c0.9-0.9,1.1-2.2,1.2-3.2
			c0.1-0.7-1,0.3-1,0.7c-0.1,0.5-0.1,1.6-0.7,2c-0.2,0.1-0.4-0.4-0.5-0.6c-0.5-1-0.9-2.4-0.8-3.6c-0.3,0.2-0.7,0.4-1,0.6
			c0,1-0.2,1.7-0.9,2.6c-0.6,0.9-0.7,1.8-0.7,2.7c0.4-0.3,0.8-0.5,1.2-0.8c-0.2-1.6-0.7-3.1-1.1-4.7
			C-530.7,466.5-531.7,467.4-531.6,467.8L-531.6,467.8z"/>
		<path class="st1" d="M-546.5,466c-1.4-0.3-2.4,0.9-2.9,1.7c-0.4,0.8-1.3,2.8,0.3,3.5c1.6,0.7,2.8-0.8,3.2-1.8
			c0.3-0.8,0.8-2.9-0.5-3.4c-0.5-0.2-1.6,0.5-1.1,0.7c0.7,0.3,0.6,1.3,0.5,1.8c-0.1,0.4-0.2,0.9-0.4,1.3c-0.1,0.2-0.2,0.3-0.3,0.5
			c-0.1,0.1-0.5,0.3-0.2,0.3c-0.9,0-0.6-1.5-0.6-1.8c0.1-0.4,0.3-0.8,0.5-1.2c0.1-0.2,0.3-0.4,0.4-0.6c0.2-0.2,0.3-0.1,0.1-0.2
			C-547,466.9-545.9,466.1-546.5,466z"/>
		<path class="st1" d="M-525.1,465.2c-1.3,0.6-1.3,2.2-1.1,3.2c0.2,0.9,0.8,3,2.5,2.5c1.7-0.5,1.6-2.5,1.3-3.4
			c-0.3-0.8-1.2-2.7-2.6-2.3c-0.5,0.2-0.9,1.4-0.4,1.2c0.8-0.2,1.3,0.6,1.6,1c0.2,0.4,0.4,0.8,0.5,1.2c0,0.2,0.1,0.4,0.1,0.5
			c0,0.1-0.1,0.5,0.1,0.4c-0.7,0.6-1.5-0.7-1.6-1c-0.2-0.4-0.3-0.8-0.4-1.2c-0.1-0.2-0.1-0.5-0.1-0.7c0-0.2,0.1-0.3,0-0.2
			C-524.8,466.2-524.5,464.9-525.1,465.2z"/>
	</g>
</g>
</svg>
