<?xml version="1.0" encoding="utf-8"?>
<!-- Generator: Adobe Illustrator 19.0.0, SVG Export Plug-In . SVG Version: 6.00 Build 0)  -->
<svg version="1.1" id="Layer_1" xmlns="http://www.w3.org/2000/svg" xmlns:xlink="http://www.w3.org/1999/xlink" x="0px" y="0px"
	 viewBox="-580 396.7 86 86" style="enable-background:new -580 396.7 86 86;" xml:space="preserve">
<style type="text/css">
	.st0{fill:#6B2A12;}
	.st1{fill:#FFFFFF;}
</style>
<circle class="st0" cx="-537" cy="439.7" r="42.7"/>
<path class="st1" d="M-505.3,438.7c-0.1-0.1-0.5-0.2-0.6-0.2c-4-0.6-5.9,3.7-6.6,6.9c0,0,0,0.1,0,0.1c-0.6,2.3-2.1,4.3-2.4,4.7
	c-0.2,0.3-0.4,0.2-0.5,0.1c-0.1-0.1-0.4-0.7-0.4-1c-0.3-1.1-0.4-2.3-0.4-3.4c0-3.1,0.3-6.2,0.8-9.3c0.1-0.6-0.4-0.9-1.1-0.8
	c-1,0.1-1.9,0.7-2.3,1.5c-1.4,2.2-2.3,4.9-2.9,7.5c-0.3,1.3-0.5,2.8-0.9,4.1c0,0-0.1-0.1-0.1-0.1c-0.4-0.3-0.6-0.8-0.7-1.2
	c0-0.2-0.1-0.3-0.2-0.4c-0.1-0.1-0.3-0.2-0.6-0.2c-0.6,0-1.2,0.3-1.6,0.7c-0.2,0.2-0.4,0.3-0.5,0.5c-0.1,0.1-0.4,0.4-0.9,0.3
	c-0.7-0.1-1.1-0.7-1.5-1.3c-0.7-1.2-0.7-2.9-0.6-4.1c0-1.8,0.3-3.7,0.9-5.4c0.1-0.1,0.1-0.3,0.2-0.4c0.1,0,0.1,0.1,0.2,0.1
	c0.8,0.6,1,1.7,1.2,2.5c0.3,1.4,3.7-0.5,3.4-1.8c-0.3-1.2-0.7-2.7-1.9-3.4c-1.3-0.8-2.9-0.2-3.9,0.5c-2.6,1.9-3.3,5.3-3.4,8.3
	c0,0.2,0,0.4,0,0.5c-0.2,1.2-0.7,2.3-1.3,3.4c-0.1,0.2-0.3,0.7-0.8,0.5c-0.3-0.1-0.4-0.7-0.5-1c-0.5-1.7-0.6-3.6-0.6-5.5
	c0.1-1.3,0.1-2.6,0.2-3.7c0-0.4,0.1-0.9,0.1-1.3c0-0.1,0-0.1,0-0.2c0-1.9-1.7-2.8-3.8-2.3c-2,0.4-3.5,1.9-4.4,3.5
	c-1,1.6-1.4,3.5-1.5,5.5c-0.2,1.6,0,5.2-0.9,5.3c-1.3,0.2-2.1-1.9-2.4-2.9c-0.8-2.1-1.1-4.4-1.3-6.7c-0.3-3.8-0.5-7.5-0.1-11.3
	c0.1-0.6-0.7-0.7-1.2-0.5c-0.8,0.3-1.6,1.1-1.9,1.8c-1.2,2.7-1.6,5.8-2,8.7c0,0,0,0.1,0,0.1c0-0.3-0.1-0.5-0.1-0.8
	c-0.3-2.4-0.6-4.7-0.8-7.1c-0.1-1.4-0.3-3.4-0.1-4.5c0.4-2-2.4-0.2-2.9,0.7c-3,5.2-2.2,11.5-2.1,17.3c0,1.5-0.1,3-0.4,4.6
	c-0.2,1-0.4,2.9-1.3,3.7c-0.6,0.5-1.5,0-2-0.3c-0.7-0.5-1.1-1.3-1.2-2.1c-0.1-0.9-1-0.4-1.5,0c-0.7,0.6-1.3,1.7-1.2,2.6
	c0.3,2,2,4,4.1,3.4c3.4-1,5-5,5.7-8.1c0.5-1.9,0.7-3.8,0.7-5.7c0.6,3.5,1.2,7,1.7,10.6c0.3,1.8,2.9-1.1,2.9-2.2
	c0.1-2.5,0.3-5,0.6-7.5c0.5,3.2,1.8,9.5,5.5,9.5c1.1,0,2.3-1.3,2.9-2.5c0.3,0.8,0.8,1.6,1.6,1.9c1.5,0.7,3.4-0.5,4.4-1.6
	c0,0,0.1-0.1,0.1-0.1c0.2,0.6,0.5,1.2,0.9,1.5c2.1,1.4,4.3-0.5,5.5-2c0.2,0.6,0.6,1.2,1,1.8c1.5,1.7,3.4,1.2,5,0.2
	c1.6,2.3,5,1.1,6.3-1.2c0.2-0.3,0.3-0.6,0.4-0.9c0,0.3,0,0.6,0.1,0.9c0.1,1,0.3,2.3,1,3.2c0.8,1,2.2,0.7,3,0.2
	c0.8-0.5,1.7-1.5,2.4-2.5c0,2.1,0.6,4.2,2.5,4.8c1.7,0.6,3.6-0.7,4.6-1.9c1.2-1.4,1.8-3.3,2.3-5.1C-503,445-502.2,440.7-505.3,438.7
	z M-540.7,446.3c0,0.1-0.1,0.5-0.2,0.7c-0.1,0-0.3,0-0.5,0c-0.7-0.2-1-1.3-1.1-1.8c-0.7-2.1-0.6-4.7-0.1-6.9
	c0.2-0.7,0.6-1.8,0.9-2.2c0,0,0.1-0.1,0.1-0.1c0.2,0,0.4,0,0.5,0c0.8-0.1,1.3,0.6,1.2,1.2C-539.9,440.3-539.9,443.4-540.7,446.3z
	 M-508.7,450.7c-0.2,0.3-0.3,0.7-0.5,0.9c-0.6-0.4-0.8-1.6-0.9-2.2c-0.2-1.4-0.1-2.8,0.1-4.2c0.2-1.4,0.6-2.8,1.2-4
	c0.1-0.3,0.3-0.6,0.5-0.9c1.5,1,1,5.2,0.8,6.3C-507.7,448.1-508.1,449.5-508.7,450.7z"/>
<g>
	<g>
		<path class="st1" d="M-547.1,466.1c-0.2,1.9-1,3.6-1.7,5.4c-0.2,0.6,1.2,0.2,1.4-0.1c0.3-0.8,0.7-1.6,1.2-2.3
			c0.3-0.5,0.7-1.7,1.4-1c0.4-0.2,0.8-0.4,1.2-0.7c-1.7-1.6-3.4,1-4,2.1c-0.2,0.3,0.3,0.3,0.5,0.3c1.3-0.1,0.4,1.6,0.7,2.2
			c0.3,0.9,1.7,0.5,2.2,0.2c0.8-0.4,0.3-1-0.5-0.6c-0.6,0.3-0.4-0.7-0.4-0.9c0-0.3,0.1-0.7-0.1-1.1c-0.3-0.7-1-0.7-1.7-0.6
			c0.2,0.1,0.3,0.2,0.5,0.3c0.2-0.5,0.8-2,1.5-1.3c0.4,0.4,1.5-0.3,1.2-0.7c-2.2-2.3-4.6,3-5.1,4.1c0.5,0,0.9-0.1,1.4-0.1
			c0.6-1.8,1.4-3.7,1.5-5.6C-545.8,465.2-547,465.6-547.1,466.1L-547.1,466.1z"/>
		<path class="st1" d="M-540.8,472.5c0,1.2,1.6,1.1,2.3,0.4c0.5-0.5,0.6-1.2,0.7-1.9c0.1-1,0.3-2,0.7-2.9c-0.3,0.1-0.7,0.3-1,0.4
			c-0.1,1.5-0.3,3.5,0.6,4.8c0.7,1,2.5-0.8,2.8-1.2c0.5-0.8-0.4-0.7-0.8-0.1c-0.7,0.9-1,0.5-1.2-0.3c-0.3-1.2-0.3-2.5-0.3-3.7
			c0-0.7-0.9,0.2-1,0.4c-0.3,0.6-0.5,1.3-0.6,2c-0.1,0.4-0.2,0.8-0.2,1.2c0,0.2-0.1,0.4-0.1,0.6c-0.1,0.6-0.5,0.1-0.5-0.1
			C-539.6,471.4-540.8,472.1-540.8,472.5L-540.8,472.5z"/>
		<path class="st1" d="M-532.8,468.2c-0.3-1.5-2-0.5-2.5,0.4c-0.6,1.1-0.7,2.5-0.4,3.7c0.3,1.1,1.5,1.4,2.4,0.5
			C-532.2,471.5-532.7,469.6-532.8,468.2c-0.3,0.2-0.7,0.5-1,0.7c0.1,0.9,0.1,5.7,2.4,3.8c0.6-0.5,0.4-1.3-0.4-0.6
			c-0.2,0.2-0.6-1.1-0.6-1.2C-532.7,470-532.7,469.1-532.8,468.2c-0.1-0.6-1,0.3-1,0.7c0,0.8,0.1,1.7,0.1,2.5c0,0.3-0.1,0.9-0.2,0.9
			c-0.2,0-0.4-0.3-0.5-0.4c-0.3-0.5-0.3-1.2-0.3-1.8c0-0.3,0-0.7,0.1-1c0-0.2,0.1-0.3,0.2-0.5c0.2-0.3,0.6,0.2,0.7,0.3
			C-533.7,469.5-532.8,468.6-532.8,468.2L-532.8,468.2z"/>
		<path class="st1" d="M-528.2,467.1c0.6,1.5,1.2,3,1.5,4.6c0.1,0.6,1.1-0.6,1-0.9c-0.2-0.9-0.1-1.5,0.3-2.4c0.4-1,0.4-2,0.2-2.9
			c-0.1-0.8-0.8,0.3-0.8,0.7c0.1,1.3,0.6,2.7,1.2,3.9c0.2,0.3,0.4,0.8,0.8,0.9c0.6,0.1,1.2-0.9,1.5-1.3c0.4-0.8-0.3-0.9-0.7-0.2
			c-0.3,0.6-1.1-1.1-1.2-1.3c-0.4-0.8-0.7-1.7-0.8-2.6c-0.3,0.2-0.5,0.5-0.8,0.7c0.1,1,0.1,1.7-0.4,2.7c-0.5,0.9-0.4,1.9-0.3,2.8
			c0.3-0.3,0.7-0.6,1-0.9c-0.4-1.6-1.1-3-1.7-4.5C-527.6,465.7-528.4,466.8-528.2,467.1L-528.2,467.1z"/>
		<path class="st1" d="M-523.2,464.1c-1.1,0.8-0.9,2.3-0.6,3.3c0.3,0.8,1.2,2.9,2.6,2.2c1.5-0.7,1.2-2.6,0.8-3.5
			C-520.8,465.3-522,463.5-523.2,464.1c-0.3,0.2-0.6,1.4-0.1,1.2c0.7-0.3,1.3,0.5,1.6,0.9c0.3,0.3,0.5,0.8,0.6,1.2
			c0.1,0.2,0.1,0.4,0.2,0.5c0,0.1-0.1,0.5,0.1,0.4c-0.5,0.6-1.5-0.6-1.6-0.9c-0.2-0.4-0.4-0.8-0.6-1.2c-0.1-0.2-0.1-0.5-0.2-0.7
			c0-0.2,0.1-0.3,0-0.2C-522.9,465-522.7,463.7-523.2,464.1z"/>
		<path class="st1" d="M-541.4,467.4c-1.3-0.1-2.1,1.3-2.4,2.3c-0.3,0.8-0.7,3,0.8,3.4c1.6,0.4,2.4-1.3,2.6-2.3
			c0.2-0.9,0.3-3-0.9-3.3c-0.4-0.1-1.4,0.8-0.9,0.9c0.7,0.2,0.7,1.2,0.8,1.7c0,0.4-0.1,0.9-0.2,1.3c0,0.2-0.1,0.3-0.2,0.5
			c-0.1,0.1-0.4,0.4-0.1,0.3c-0.8,0.2-0.8-1.4-0.8-1.7c0-0.4,0.1-0.9,0.3-1.3c0.1-0.2,0.2-0.4,0.3-0.6c0.1-0.2,0.2-0.2,0.1-0.2
			C-541.7,468.3-540.8,467.4-541.4,467.4z"/>
		<path class="st1" d="M-548.5,465.4c-1.2-0.4-2.3,0.7-2.8,1.6c-0.5,0.7-1.5,2.7-0.1,3.5c1.4,0.8,2.7-0.7,3.1-1.6
			C-548,468.2-547.3,466.1-548.5,465.4c-0.3-0.2-1.4,0.4-1,0.6c0.6,0.4,0.4,1.3,0.3,1.9c-0.1,0.4-0.3,0.9-0.5,1.2
			c-0.1,0.2-0.2,0.3-0.3,0.5c-0.1,0.1-0.4,0.3-0.2,0.3c-0.8,0-0.4-1.6-0.4-1.9c0.1-0.4,0.3-0.8,0.6-1.2c0.1-0.2,0.3-0.4,0.4-0.6
			c0.2-0.2,0.3-0.1,0.1-0.2C-549,466.3-548,465.6-548.5,465.4z"/>
		<path class="st1" d="M-530.4,466.9c-1.3,0.4-1.5,2-1.5,3c0,0.9,0.4,3.1,2,2.9c1.7-0.2,1.9-2.1,1.7-3.2c-0.1-0.9-0.8-2.9-2.1-2.7
			c-0.5,0.1-1.1,1.2-0.6,1.2c0.8-0.1,1.2,0.8,1.4,1.3c0.2,0.4,0.3,0.9,0.3,1.3c0,0.2,0,0.4,0,0.6c0,0.2-0.2,0.5,0,0.4
			c-0.7,0.4-1.3-1-1.4-1.3c-0.2-0.4-0.2-0.9-0.2-1.3c0-0.2,0-0.5,0-0.7c0-0.2,0.2-0.3,0-0.2C-530.3,467.9-529.8,466.7-530.4,466.9z"
			/>
		<path class="st1" d="M-529.9,467.6c0.5,2,1.1,4,1.6,6c0.1,0.4,0.7,2.4-0.4,2.4c-1.9,0,0.5-3.6,0.7-4c0.5-0.8-0.5-0.5-0.9,0
			c-0.9,1.4-2.2,3.2-1.5,4.7c0.3,0.7,1.5,0.6,2.2,0.1c1.4-1,1.3-2.2,1.1-3.5c-0.4-2.2-1.3-4.4-1.9-6.5
			C-529.1,466.2-530,467.2-529.9,467.6L-529.9,467.6z"/>
		<g>
			<path class="st1" d="M-552.3,464.2c-0.6,1-1.3,1.9-2.1,2.6c-0.1,0.1-0.2,0.2-0.4,0.3c-0.5,0.4-0.2,0-0.1,0.2
				c-0.1-0.2,0-0.5,0-0.6c0.3-1.3,1.2-2.5,2-3.5c-0.4,0-0.8-0.1-1.2-0.2c0,0,0,0,0,0c-0.3,0.5,1,0.5,1.2,0.2c0,0,0,0,0,0
				c0.3-0.5-1-0.5-1.2-0.2c-0.6,0.8-1.2,1.6-1.7,2.5c-0.2,0.4-1,1.6-0.4,2.1c0.7,0.7,1.7,0.3,2.3,0c1.3-0.8,2.1-2.1,2.8-3.4
				C-550.8,463.8-552.1,463.9-552.3,464.2L-552.3,464.2z"/>
			<path class="st1" d="M-552.4,468.7c-0.7,0.2,0-1.9,0.1-2c0.4-0.8,0.8-1.6,1.3-2.4c0.3-0.5-1-0.4-1.2-0.1
				c-0.7,1.2-1.6,2.4-1.9,3.9c-0.2,1.2,1.1,1.5,2,1.3C-551.3,469.1-551.6,468.5-552.4,468.7L-552.4,468.7z"/>
			<path class="st1" d="M-554.2,463c-0.5,0.6-0.9,1.3-1.4,1.9c-0.2,0.3-0.5,0.6-0.8,0.9c-0.2,0.2-0.3,0.3-0.6,0.4
				c0.2-0.1,0.1,0,0-0.3c-0.3-0.7,0.4-1.5,0.8-2c0.4-0.6,0.9-1.1,1.5-1.6c0.6-0.5-0.7-0.7-1.1-0.4c-0.7,0.5-4.2,3.4-2.2,4.7
				c2.5,1.5,4.1-2.2,4.9-3.4C-552.6,462.7-553.9,462.7-554.2,463L-554.2,463z"/>
		</g>
		<path class="st1" d="M-518.5,466.2c0.3-1.1,0.5-4.3-1.2-4.3c-1.2,0-1.3,1.8-1.1,2.5c0.2,1.1,0.9,2.4,1.9,3c1.2,0.7,2.3-1,2.7-2
			c0.1-0.3,0.2-0.7,0-0.9c-0.2-0.1-0.5,0.3-0.6,0.5c-0.8,2.3-2.3,0.5-2.9-0.4c-0.2-0.3-0.3-0.6-0.4-0.9c0-0.1-0.1-0.3-0.1-0.5
			c0-0.2-0.1,0.1,0.1,0c1.2-0.4,0.8,2.7,0.7,3.2C-519.5,467.4-518.6,466.8-518.5,466.2L-518.5,466.2z"/>
	</g>
</g>
</svg>
