<?xml version="1.0" encoding="utf-8"?>
<!-- Generator: Adobe Illustrator 19.0.0, SVG Export Plug-In . SVG Version: 6.00 Build 0)  -->
<svg version="1.1" id="Layer_1" xmlns="http://www.w3.org/2000/svg" xmlns:xlink="http://www.w3.org/1999/xlink" x="0px" y="0px"
	 viewBox="-580 396.7 86 86" style="enable-background:new -580 396.7 86 86;" xml:space="preserve">
<style type="text/css">
	.st0{fill:#FDED07;}
	.st1{fill:#62BA47;}
	.st2{fill:#FFFFFF;}
</style>
<circle class="st0" cx="-534.8" cy="435.7" r="38.9"/>
<circle class="st1" cx="-565.9" cy="470.3" r="12.2"/>
<path class="st2" d="M-505.9,434.8c-0.1-0.1-0.5-0.2-0.5-0.2c-3.7-0.6-5.4,3.4-6,6.3c0,0,0,0.1,0,0.1c-0.6,2.1-1.9,3.9-2.1,4.3
	c-0.2,0.2-0.4,0.2-0.5,0.1c-0.1-0.1-0.3-0.6-0.4-0.9c-0.3-1-0.3-2.1-0.3-3.1c0-2.9,0.3-5.7,0.7-8.5c0.1-0.6-0.4-0.8-1-0.8
	c-0.9,0.1-1.7,0.7-2.1,1.4c-1.3,2-2.1,4.4-2.6,6.8c-0.3,1.2-0.4,2.5-0.8,3.7c0,0-0.1-0.1-0.1-0.1c-0.4-0.3-0.6-0.7-0.7-1.1
	c0-0.1-0.1-0.3-0.2-0.4c-0.1-0.1-0.3-0.2-0.5-0.2c-0.5,0-1.1,0.3-1.5,0.6c-0.2,0.1-0.3,0.3-0.5,0.4c-0.1,0.1-0.3,0.4-0.9,0.3
	c-0.6-0.1-1-0.6-1.3-1.2c-0.7-1.1-0.6-2.6-0.6-3.8c0-1.7,0.2-3.4,0.9-4.9c0-0.1,0.1-0.2,0.2-0.4c0,0,0.1,0.1,0.2,0.1
	c0.7,0.6,0.9,1.6,1.1,2.3c0.3,1.3,3.4-0.5,3.1-1.7c-0.2-1.1-0.6-2.5-1.7-3.1c-1.2-0.7-2.6-0.2-3.6,0.5c-2.3,1.7-3,4.8-3.1,7.6
	c0,0.2,0,0.3,0,0.5c-0.2,1.1-0.7,2.1-1.2,3.1c-0.1,0.2-0.3,0.6-0.8,0.4c-0.3-0.1-0.4-0.6-0.5-0.9c-0.5-1.6-0.6-3.3-0.6-5
	c0.1-1.2,0.1-2.3,0.2-3.4c0-0.4,0.1-0.8,0.1-1.2c0-0.1,0-0.1,0-0.1c0-1.7-1.5-2.6-3.4-2.1c-1.8,0.4-3.2,1.8-4,3.2
	c-0.9,1.5-1.3,3.2-1.4,5c-0.1,1.5,0,4.8-0.8,4.9c-1.2,0.1-1.9-1.7-2.2-2.6c-0.7-1.9-1-4-1.2-6.1c-0.3-3.4-0.4-6.9-0.1-10.3
	c0.1-0.6-0.6-0.6-1.1-0.4c-0.8,0.3-1.5,1-1.7,1.6c-1.1,2.4-1.5,5.3-1.8,7.9c0,0,0,0.1,0,0.1c0-0.2-0.1-0.5-0.1-0.7
	c-0.3-2.2-0.5-4.3-0.7-6.5c-0.1-1.3-0.3-3.1-0.1-4.1c0.3-1.8-2.2-0.2-2.6,0.6c-2.8,4.8-2,10.5-1.9,15.7c0,1.4-0.1,2.8-0.3,4.2
	c-0.2,0.9-0.4,2.6-1.2,3.3c-0.5,0.5-1.4,0-1.8-0.2c-0.6-0.4-1-1.2-1.1-1.9c-0.1-0.8-0.9-0.4-1.4,0c-0.6,0.5-1.2,1.5-1.1,2.3
	c0.2,1.8,1.8,3.7,3.7,3.1c3.1-0.9,4.5-4.5,5.2-7.4c0.4-1.7,0.6-3.5,0.7-5.2c0.5,3.2,1.1,6.4,1.6,9.6c0.3,1.7,2.6-1,2.6-2
	c0.1-2.3,0.2-4.6,0.5-6.8c0.4,2.9,1.6,8.7,5,8.6c1,0,2.1-1.2,2.7-2.3c0.3,0.7,0.8,1.4,1.5,1.7c1.4,0.6,3.1-0.5,4-1.4
	c0,0,0.1-0.1,0.1-0.1c0.2,0.6,0.4,1.1,0.8,1.4c1.9,1.3,3.9-0.5,5-1.9c0.2,0.6,0.5,1.1,0.9,1.6c1.4,1.5,3.1,1.1,4.6,0.2
	c1.4,2.1,4.5,1,5.7-1.1c0.1-0.3,0.3-0.5,0.4-0.8c0,0.3,0,0.5,0.1,0.8c0.1,0.9,0.3,2.1,0.9,2.9c0.7,0.9,2,0.6,2.8,0.2
	c0.7-0.5,1.5-1.4,2.2-2.3c0,1.9,0.5,3.8,2.3,4.4c1.6,0.6,3.3-0.7,4.1-1.7c1.1-1.3,1.7-3,2.1-4.7
	C-503.7,440.5-503.1,436.7-505.9,434.8z M-538.1,441.7c0,0.1-0.1,0.4-0.2,0.7c-0.1,0-0.3,0-0.5,0c-0.6-0.2-0.9-1.1-1-1.6
	c-0.6-1.9-0.6-4.3-0.1-6.3c0.2-0.6,0.6-1.6,0.8-2c0,0,0.1-0.1,0.1-0.1c0.1,0,0.4,0,0.5,0c0.8,0,1.1,0.5,1.1,1.1
	C-537.4,436.2-537.5,439.1-538.1,441.7z M-508.9,445.8c-0.1,0.3-0.3,0.6-0.5,0.9c-0.6-0.3-0.8-1.5-0.9-2c-0.2-1.3-0.1-2.6,0.1-3.8
	c0.2-1.3,0.5-2.5,1.1-3.7c0.1-0.3,0.3-0.6,0.5-0.8c1.4,0.9,0.9,4.7,0.7,5.8C-508.1,443.3-508.4,444.6-508.9,445.8z"/>
<g>
	<path class="st2" d="M-571.3,468.9c0.4-1,1.1-0.3,1.3,0.2c0.3,0.7-0.1,1.4-0.4,1.9c-0.3,0.5-0.8,0.8-1.3,1.1
		c-0.3,0.2-0.5,0.3-0.6,0.5c-0.1,0.1-0.1,0.3,0,0.4c0.3,0.3,1.1,0.2,1.5,0.3c0.7,0.1,1.5,0,2.2-0.3c0.4-0.2,0.7-1.1,0.1-0.8
		c-0.5,0.3-1.2,0.2-1.7,0.2c-0.3,0-0.9,0-1.2-0.2c0,0.1,0,0.3,0,0.4c-0.3,0.5-0.1,0.2,0.1,0.1c0.2-0.2,0.4-0.3,0.6-0.5
		c0.4-0.3,0.7-0.7,1-1c0.6-0.7,1-1.6,0.8-2.6c-0.4-2.1-2.7-0.6-3.1,0.6C-572.4,469.8-571.5,469.2-571.3,468.9L-571.3,468.9z"/>
	<path class="st2" d="M-574.4,470c-0.4-0.2-1.3-1-0.6-1.5c0.3-0.2,0.6-0.1,0.9,0c0.7,0.2,0.2,0.8-0.1,1c-0.2,0.1-1.3,1.1-0.8,1.4
		c0.6,0.4,1.7-0.1,1.7,0.9c0,0.7-1.1,0.7-1.5,0.4c-0.7-0.5-0.6-1.1,0.1-1.5c0.3-0.2,0.7-1.1,0.1-0.7c-0.7,0.4-1.5,1.1-1.5,2
		c0,0.6,0.6,1.2,1.2,1.3c0.9,0.1,1.8-0.5,2.2-1.2c0.5-0.7,0.4-1.6-0.5-1.8c-0.3-0.1-0.9-0.2-1.1,0c0.3-0.4,0.8-0.6,1.1-1
		c0.6-0.8,0.4-1.6-0.6-1.8c-0.8-0.1-1.6,0.5-2,1.2c-0.5,0.9,0.1,1.7,0.8,2.1C-574.7,471-574,470.2-574.4,470L-574.4,470z"/>
	<path class="st2" d="M-565.7,472.2c0.7,2.3,4.2,0.7,3.6-1.3c-0.3-1-1.4-0.9-2.3-1.1c-0.4-0.1-0.5-0.5-0.5-0.9
		c0.2-0.4,0.1-0.5-0.2-0.2c0.1,0,0.3-0.1,0.4-0.1c0.7-0.1,1.5-0.1,2.1,0.2c0.3,0.2,1-0.6,0.6-0.8c-0.8-0.4-1.8-0.3-2.7-0.1
		c-0.8,0.2-1,1-1.1,1.7c-0.1,1,0.9,1.1,1.6,1.2c0.6,0.1,1.1,0.2,1.1,0.9c0.1,1.1-1,0.9-1.5,0.6c-0.2-0.2-0.4-0.4-0.5-0.7
		C-565,471.2-565.8,471.8-565.7,472.2L-565.7,472.2z"/>
	<g>
		<path class="st2" d="M-557.3,468.1c-1,1.7-2.3,3.2-3.4,4.7c-0.5,0.7,0.3,0.7,0.7,0.2c1.2-1.6,2.5-3.2,3.6-5
			C-556.1,467.3-557.1,467.7-557.3,468.1L-557.3,468.1z"/>
		<path class="st2" d="M-559.2,467.6c-0.6,0-1.1,0.6-1.2,1.2c-0.1,0.5,0.2,1,0.8,1C-558.4,469.8-557.8,467.7-559.2,467.6
			c-0.3,0-0.7,0.6-0.4,0.7c0.3,0,0.4,0.3,0.5,0.5c0,0.1,0,0.2,0,0.3c0,0.1,0,0,0,0c0,0-0.1,0-0.2,0c-0.3,0-0.5-0.3-0.5-0.5
			c0-0.1,0-0.2,0.1-0.3c0-0.1,0,0,0,0c0,0,0.1,0,0.1,0C-559.3,468.2-558.8,467.6-559.2,467.6z"/>
		<path class="st2" d="M-557.4,471.1c-0.6,0-1.1,0.6-1.2,1.2c-0.1,0.5,0.2,1,0.8,1C-556.7,473.3-556.1,471.2-557.4,471.1
			c-0.3,0-0.7,0.6-0.4,0.7c0.3,0,0.4,0.3,0.5,0.5c0,0.1,0,0.2,0,0.3c0,0.1,0,0,0,0c0,0-0.1,0-0.2,0c-0.3,0-0.5-0.3-0.5-0.5
			c0-0.1,0-0.2,0.1-0.3c0-0.1,0,0,0,0c0,0,0.1,0,0.1,0C-557.5,471.8-557.1,471.1-557.4,471.1z"/>
	</g>
	<path class="st2" d="M-567.2,474.4c0.4-0.4,0.7-1,0.8-1.5c0-0.2,0-0.4-0.1-0.5c-0.2-0.2-0.6,0-0.8,0.1c-0.2,0.1-0.5,0.4-0.5,0.7
		c0,0.3,0.3,0.2,0.5,0.1c0,0,0.1,0,0,0c0,0,0,0,0,0c0,0.1,0,0.2,0,0.2c0,0.2-0.1,0.2-0.1,0.3c0,0,0,0.1-0.1,0.1c0-0.1,0,0,0,0
		c0,0,0,0.1-0.1,0.1c0.1-0.1,0,0,0,0c-0.1,0.1-0.4,0.5-0.2,0.7C-567.6,474.8-567.3,474.5-567.2,474.4L-567.2,474.4z"/>
</g>
</svg>
