<?xml version="1.0" encoding="utf-8"?>
<!-- Generator: Adobe Illustrator 19.0.0, SVG Export Plug-In . SVG Version: 6.00 Build 0)  -->
<svg version="1.1" id="Layer_1" xmlns="http://www.w3.org/2000/svg" xmlns:xlink="http://www.w3.org/1999/xlink" x="0px" y="0px"
	 viewBox="0 0 86 86" style="enable-background:new 0 0 86 86;" xml:space="preserve">
<style type="text/css">
	.st0{fill:#86D2E0;}
	.st1{fill:#62BA47;}
	.st2{fill:#FFFFFF;}
</style>
<circle id="XMLID_86_" class="st0" cx="45.2" cy="39" r="39"/>
<circle id="XMLID_85_" class="st1" cx="14" cy="73.7" r="12.3"/>
<path id="XMLID_93_" class="st2" d="M74,38.7c-3.2-1.1-4.9,2.9-5.5,5.3c0,0.1,0,0.1,0,0.2l0,0c-0.6,2.4-1.4,3.5-1.6,3.4
	c-0.7-0.3-0.5-1.3-0.5-1.9c0-1,0.2-2.1-0.4-3.2c-0.4-0.7-1.3-1-2.1-1c0.1-0.1,0.1-0.3,0.2-0.4c0.1-0.2,0.1-0.3,0.2-0.5
	c0.4-0.7,0.8-1.6,1.5-2.1c0,0,0,0,0,0c0,0,0,0,0.1,0c0.3,0.1,0.7,0.5,0.9,0.7c0.8,0.9,3.4-0.5,2.7-1.4c-1-1.2-2.2-1.4-3.3-1.2
	c-0.8,0.1-1.5,0.5-2.1,1c-0.1,0.1-0.2,0.2-0.3,0.3c0.1-1.3,0.1-2.7,0-4.1c-0.1-0.8-1.7-0.3-2.5,0.4c-0.1,0.1-0.3,0.2-0.3,0.4
	c0,0,0,0,0,0v0c-0.3,0.9-2,1.4-3.4,0.2c0,0,0,0,0,0c-0.4-0.3-0.8-0.5-1.3-0.6c-3.2-0.3-4.4,3.4-4.7,6l0,0c-0.1,1.6-1.2,3.8-2,4.2
	c-0.2-0.2-0.3-0.5-0.4-0.7c-0.3-0.8-0.5-1.7-0.6-2.5c-0.2-2.4-0.3-4.8-0.2-7.1c0-0.5-0.4-0.6-0.9-0.5c-0.8,0.2-1.5,0.8-1.8,1.4
	c-1,2.1-1.5,4.4-1.8,6.7c-0.1,0.6-0.2,1.3-0.2,1.9c0,0.2,0,0.5-0.1,0.8c-0.5,0-0.9-0.5-0.9-1c0-0.8-1.1-0.5-1.8,0.2
	c0.4-1.2,0.6-2.5,0.6-3.7c0-2.1-0.6-6.4-3.5-6.2c-3.1,0.2-3.8,4.2-3.9,6.6c-0.1,2.3-0.2,4.3-0.3,4.8c-1.3,0.2-2.1-1.3-2.4-2
	c-0.7-1.6-1-3.3-1.2-5.1c-0.3-2.9-0.5-5.8-0.4-8.7c0-0.5-0.6-0.5-1-0.3c-0.7,0.3-1.2,0.9-1.5,1.4c-0.9,2.1-1.1,4.5-1.4,6.7
	c0,0,0,0.1,0,0.1c0-0.2-0.1-0.4-0.1-0.6c-0.3-1.8-0.6-3.6-0.8-5.4c-0.1-1.1-0.3-2.6-0.2-3.5c0.2-1.5-1.9,0-2.3,0.6
	c-2.1,4.1-1.4,8.7-1.3,13.4c0,1.2,0,2.4-0.2,3.5c-0.1,0.8-0.3,2.2-0.9,2.9c-0.4,0.4-1.2,0.1-1.6-0.1c-0.6-0.3-0.9-0.9-1-1.6
	c-0.1-0.7-0.8-0.3-1.2,0.1c-0.5,0.5-1,1.4-0.9,2c0.3,1.5,1.6,3,3.3,2.5c2.7-0.9,3.8-4,4.4-6.5c0.3-1.5,0.5-2.9,0.5-4.4
	c0.5,2.7,1.1,5.4,1.6,8c0.3,1.4,2.3-1,2.3-1.8c0-1.9,0.1-3.9,0.3-5.8c0.3,2.3,0.9,7.6,4.4,7c1.4-0.2,2.2-1.3,2.7-2.5
	c0.5,1.1,1.2,1.9,2.5,1.8c1.1-0.1,2.2-1,2.8-2c0.1,0.9,0.7,1.6,1.8,1.7c1.4,0.1,2.6-0.8,3.4-1.8c0.3-0.4,0.6-0.9,0.7-1.4
	c0,0.2,0.1,0.5,0.1,0.7c0.2,0.8,0.4,1.7,1.1,2.3c0.7,0.7,1.8,0.2,2.5-0.3c0.8-0.5,1.3-1.3,1.8-2.1c0.2,1.6,0.9,3,2.4,3.3
	c1.4,0.2,2.9-1,3.5-2c0.8-1.2,1.2-2.7,1.4-4.1c0.1-0.9,0.2-2.4-0.1-3.9c1,0,1.8-0.3,2.3-0.8c-0.2,3.8-0.8,7.5-1.4,11.2
	c-0.1,0.6,0.6,0.7,1.1,0.6c0.6-0.2,1.4-0.6,1.5-1.3c0.3-1.1,0.6-2.3,1-3.4c1.4,1.6,0.1,3.8,1.1,5.3c0.5,0.8,2.3,0.8,3.1,0.3
	c0.3-0.2,0.6-0.4,0.9-0.7c0.2,1.2,0.7,2.2,1.8,2.7c1.3,0.5,2.9-0.4,3.7-1.3c1-1,1.5-2.4,1.9-3.8C76.2,43.8,76.9,39.7,74,38.7z
	 M38.5,43.8c-0.1,0.3-0.1,0.6-0.2,0.8c-0.5-0.1-1-0.9-1.1-1.3c-0.4-1-0.6-2-0.7-3.1c-0.1-1.1-0.1-2.2,0.2-3.3
	c0.1-0.3,0.1-0.6,0.2-0.8c1.4,0.3,1.7,3.5,1.8,4.3C38.7,41.6,38.7,42.7,38.5,43.8z M55.5,44.4c-0.1,0.3-0.2,0.5-0.4,0.8
	c-0.5-0.2-0.8-1.1-1-1.5c-0.3-1-0.3-2.1-0.3-3.2c0.1-1.1,0.2-2.2,0.6-3.2c0.1-0.3,0.2-0.5,0.3-0.7c1.3,1.1,1.3,3.1,1.2,4.7
	C56,42.3,55.9,43.4,55.5,44.4z M72.1,48.6c-0.1,0.2-0.3,0.5-0.4,0.7C71.2,49,71,48,71,47.6c-0.2-1.1,0-2.2,0.2-3.2
	c0.2-1.1,0.5-2.1,1-3c0.1-0.2,0.3-0.5,0.4-0.7c1,1.5,0.9,3.3,0.5,4.9C72.9,46.6,72.6,47.7,72.1,48.6z"/>
<g id="XMLID_88_">
	<path id="XMLID_74_" class="st2" d="M8.1,73.1c0.4-0.5,0.8-1,1.1-1.6c0.2-0.2,0.4-0.5,0.5-0.7c0.3-0.3,0.2-0.3-0.1-0.1
		c0,0.4,0,0.7,0,1.1c0,2.1-0.1,4.2-0.3,6.4c-0.1,0.8,1.3-0.2,1.4-0.7c0.1-1.4,0.2-2.8,0.2-4.2c0-0.6,0.5-3.8-0.3-4
		c-1.4-0.4-2.9,2.8-3.6,3.6C6.5,73.8,7.6,73.8,8.1,73.1L8.1,73.1z"/>
	<path id="XMLID_73_" class="st2" d="M19.1,70.3c-1.5,2.5-3.4,4.8-5.1,7.1c-0.8,1,0.5,1,1,0.3c1.8-2.4,3.8-4.9,5.3-7.5
		C21,69.1,19.4,69.7,19.1,70.3L19.1,70.3z"/>
	<path id="XMLID_7_" class="st2" d="M16.4,69.6c-0.9,0-1.6,0.9-1.7,1.7c-0.2,0.8,0.3,1.5,1.1,1.5C17.5,72.9,18.4,69.7,16.4,69.6
		c-0.4,0-1.1,1-0.5,1c0.4,0,0.7,0.4,0.7,0.8c0,0.1,0,0.3-0.1,0.5c-0.1,0.1,0,0,0,0c-0.1,0-0.2,0-0.2,0c-0.4,0-0.7-0.4-0.7-0.8
		c0-0.2,0-0.4,0.1-0.5c0.1-0.1,0.1,0,0,0c0.1,0,0.1,0,0.2,0C16.2,70.6,16.9,69.6,16.4,69.6z"/>
	<path id="XMLID_1_" class="st2" d="M19,74.9c-0.9,0-1.6,0.9-1.7,1.7c-0.2,0.8,0.3,1.5,1.1,1.5C20.1,78.2,21,75,19,74.9
		c-0.4,0-1.1,1-0.5,1c0.4,0,0.7,0.4,0.7,0.8c0,0.1,0,0.3-0.1,0.5c-0.1,0.1,0,0,0,0c-0.1,0-0.2,0-0.2,0c-0.4,0-0.7-0.4-0.7-0.8
		c0-0.2,0-0.4,0.1-0.5c0.1-0.1,0.1,0,0,0c0.1,0,0.1,0,0.2,0C18.8,75.8,19.5,74.9,19,74.9z"/>
</g>
</svg>
