<?xml version="1.0" encoding="utf-8"?>
<!-- Generator: Adobe Illustrator 19.0.0, SVG Export Plug-In . SVG Version: 6.00 Build 0)  -->
<svg version="1.1" id="Layer_1" xmlns="http://www.w3.org/2000/svg" xmlns:xlink="http://www.w3.org/1999/xlink" x="0px" y="0px"
	 viewBox="0 0 86 86" style="enable-background:new 0 0 86 86;" xml:space="preserve">
<style type="text/css">
	.st0{fill:#119BD7;}
	.st1{fill:#62BA47;}
	.st2{fill:#FFFFFF;}
</style>
<circle id="XMLID_88_" class="st0" cx="45.2" cy="38.9" r="38.9"/>
<circle id="XMLID_87_" class="st1" cx="14.1" cy="73.5" r="12.2"/>
<path id="XMLID_113_" class="st2" d="M73.9,38.6c-3.1-1.1-4.9,2.9-5.4,5.3c0,0.1,0,0.1,0,0.2l0,0c-0.6,2.4-1.4,3.5-1.6,3.4
	c-0.7-0.3-0.5-1.3-0.5-1.9c0-1,0.2-2.1-0.4-3.1c-0.4-0.7-1.3-1-2.1-1c0.1-0.1,0.1-0.3,0.2-0.4c0.1-0.2,0.1-0.3,0.2-0.5
	c0.4-0.7,0.8-1.6,1.5-2.1c0,0,0,0,0,0c0,0,0,0,0.1,0c0.3,0.1,0.7,0.5,0.9,0.7c0.8,0.9,3.4-0.5,2.7-1.4c-1-1.2-2.2-1.4-3.3-1.2
	c-0.8,0.1-1.5,0.5-2.1,1c-0.1,0.1-0.2,0.2-0.3,0.3c0.1-1.3,0.1-2.7,0-4.1c-0.1-0.8-1.7-0.3-2.5,0.4c-0.1,0.1-0.3,0.2-0.3,0.4
	c0,0,0,0,0,0v0c-0.3,0.9-2,1.4-3.4,0.2c0,0,0,0,0,0c-0.4-0.3-0.8-0.5-1.3-0.6c-3.2-0.3-4.4,3.4-4.7,6l0,0c-0.1,1.6-1.1,3.8-2,4.2
	c-0.2-0.2-0.3-0.5-0.4-0.7c-0.3-0.8-0.5-1.7-0.6-2.5c-0.2-2.3-0.3-4.7-0.2-7.1c0-0.5-0.4-0.6-0.9-0.5c-0.8,0.2-1.5,0.8-1.7,1.4
	c-1,2.1-1.5,4.4-1.8,6.7c-0.1,0.6-0.2,1.3-0.2,1.9c0,0.2,0,0.5-0.1,0.7c-0.5,0-0.9-0.5-0.9-1c0-0.8-1-0.5-1.8,0.2
	c0.4-1.2,0.6-2.5,0.6-3.7c0-2.1-0.6-6.3-3.5-6.2c-3,0.2-3.8,4.2-3.9,6.6c-0.1,2.3-0.2,4.3-0.3,4.7c-1.3,0.2-2.1-1.3-2.4-2
	c-0.6-1.6-1-3.3-1.2-5c-0.3-2.9-0.5-5.8-0.4-8.6c0-0.5-0.6-0.5-1-0.3c-0.6,0.3-1.2,0.9-1.5,1.4c-0.9,2.1-1.1,4.5-1.4,6.7
	c0,0,0,0.1,0,0.1c0-0.2-0.1-0.4-0.1-0.6c-0.3-1.8-0.6-3.6-0.8-5.4c-0.1-1.1-0.3-2.6-0.2-3.5c0.2-1.5-1.9,0-2.3,0.6
	c-2.1,4.1-1.4,8.7-1.3,13.3c0,1.2,0,2.3-0.2,3.5c-0.1,0.8-0.3,2.2-0.9,2.9c-0.4,0.4-1.2,0.1-1.6-0.1c-0.6-0.3-0.9-0.9-1-1.6
	c-0.1-0.7-0.8-0.3-1.2,0.1c-0.5,0.5-1,1.4-0.9,2c0.3,1.5,1.6,3,3.3,2.4c2.7-0.9,3.8-4,4.4-6.5c0.3-1.5,0.4-2.9,0.5-4.4
	c0.5,2.7,1.1,5.3,1.6,8c0.3,1.4,2.3-1,2.3-1.8c0-1.9,0.1-3.9,0.3-5.8c0.3,2.3,0.9,7.6,4.4,7c1.4-0.2,2.2-1.3,2.7-2.5
	c0.5,1.1,1.2,1.9,2.5,1.8c1.1-0.1,2.2-1,2.8-2c0.1,0.9,0.7,1.6,1.8,1.7c1.4,0.1,2.6-0.8,3.4-1.8c0.3-0.4,0.6-0.9,0.7-1.4
	c0,0.2,0.1,0.5,0.1,0.7c0.2,0.8,0.4,1.7,1.1,2.3c0.7,0.6,1.8,0.2,2.5-0.3c0.8-0.5,1.3-1.3,1.8-2.1c0.2,1.6,0.9,3,2.4,3.3
	c1.4,0.2,2.8-1,3.5-2c0.8-1.2,1.2-2.7,1.4-4.1c0.1-0.9,0.2-2.4-0.1-3.9c1,0,1.8-0.3,2.3-0.8c-0.2,3.8-0.8,7.4-1.4,11.1
	c-0.1,0.6,0.6,0.7,1.1,0.6c0.6-0.2,1.4-0.6,1.5-1.3c0.3-1.1,0.6-2.3,1-3.4c1.4,1.6,0.1,3.8,1.1,5.3c0.5,0.8,2.3,0.8,3.1,0.3
	c0.3-0.2,0.6-0.4,0.9-0.7c0.2,1.2,0.7,2.2,1.8,2.7c1.3,0.5,2.9-0.4,3.6-1.3c1-1,1.5-2.4,1.9-3.8C76.1,43.7,76.8,39.6,73.9,38.6z
	 M38.5,43.6c-0.1,0.3-0.1,0.6-0.2,0.8c-0.5-0.1-1-0.9-1.1-1.3c-0.4-1-0.6-2-0.7-3c-0.1-1.1-0.1-2.2,0.2-3.3c0.1-0.3,0.1-0.6,0.2-0.8
	c1.4,0.3,1.7,3.5,1.8,4.3C38.7,41.5,38.7,42.6,38.5,43.6z M55.5,44.3c-0.1,0.3-0.2,0.5-0.3,0.8c-0.5-0.2-0.8-1.1-0.9-1.5
	c-0.3-1-0.3-2.1-0.3-3.2c0.1-1.1,0.2-2.2,0.6-3.2c0.1-0.3,0.2-0.5,0.3-0.7c1.3,1.1,1.3,3.1,1.2,4.7C56,42.1,55.8,43.3,55.5,44.3z
	 M72,48.5c-0.1,0.2-0.3,0.5-0.4,0.7c-0.5-0.3-0.6-1.3-0.7-1.7c-0.2-1.1,0-2.2,0.2-3.2c0.2-1.1,0.5-2.1,1-3c0.1-0.2,0.3-0.5,0.4-0.7
	c1,1.5,0.9,3.3,0.5,4.9C72.8,46.4,72.5,47.5,72,48.5z"/>
<g id="XMLID_90_">
	<path id="XMLID_82_" class="st2" d="M5.9,71.6c0.5-1.2,1.3-0.4,1.6,0.2c0.4,0.8-0.1,1.7-0.6,2.4c-0.4,0.6-1,1.1-1.6,1.4
		c-0.3,0.2-0.6,0.3-0.8,0.7c-0.1,0.1-0.2,0.4,0,0.5c0.4,0.4,1.3,0.3,1.8,0.3c0.9,0.1,1.9,0,2.7-0.4c0.5-0.2,0.9-1.4,0.1-1
		C8.6,76.1,7.7,76,7,76c-0.3,0-1.2,0-1.4-0.2c0,0.2,0,0.3,0,0.5c-0.4,0.7-0.1,0.3,0.2,0.1c0.3-0.2,0.5-0.4,0.8-0.6
		c0.5-0.4,0.8-0.8,1.2-1.3c0.8-0.9,1.2-2,1-3.2c-0.5-2.7-3.4-0.7-3.9,0.8C4.5,72.7,5.7,72,5.9,71.6L5.9,71.6z"/>
	<path id="XMLID_75_" class="st2" d="M12.7,76c0.9,2.9,5.4,0.9,4.7-1.7c-0.4-1.3-1.9-1.1-2.9-1.4c-0.6-0.2-0.6-0.7-0.6-1.2
		c0.2-0.6,0.2-0.7-0.2-0.3c0.2-0.1,0.3-0.1,0.5-0.1C15,71,16,71,16.9,71.5c0.4,0.2,1.3-0.8,0.8-1.1c-1.1-0.5-2.4-0.4-3.5-0.2
		c-1.1,0.3-1.3,1.3-1.4,2.3c-0.1,1.3,1.1,1.4,2.1,1.6c0.8,0.1,1.4,0.3,1.5,1.2c0.1,1.4-1.3,1.2-2,0.8c-0.3-0.2-0.5-0.6-0.6-0.9
		C13.6,74.7,12.6,75.5,12.7,76L12.7,76z"/>
	<g id="XMLID_92_">
		<path id="XMLID_74_" class="st2" d="M23,70.6c-1.2,2.1-2.8,4-4.3,5.9c-0.6,0.8,0.4,0.8,0.8,0.2c1.5-2,3.2-4.1,4.5-6.3
			C24.5,69.7,23.2,70.1,23,70.6L23,70.6z"/>
		<path id="XMLID_73_" class="st2" d="M20.7,70.1c-0.8,0-1.3,0.7-1.5,1.4c-0.1,0.7,0.3,1.2,0.9,1.3C21.6,72.8,22.4,70.1,20.7,70.1
			c-0.3,0-0.9,0.8-0.4,0.8c0.4,0,0.5,0.3,0.6,0.6c0,0.1,0,0.3,0,0.4c-0.1,0.1,0,0,0,0c-0.1,0-0.1,0-0.2,0c-0.3,0-0.6-0.3-0.6-0.6
			c0-0.1,0-0.3,0.1-0.4c0-0.1,0.1,0,0,0c0,0,0.1,0,0.2,0C20.5,70.9,21.1,70,20.7,70.1z"/>
		<path id="XMLID_7_" class="st2" d="M22.8,74.5c-0.8,0-1.3,0.7-1.5,1.4c-0.1,0.7,0.3,1.2,0.9,1.3C23.8,77.2,24.5,74.5,22.8,74.5
			c-0.3,0-0.9,0.8-0.4,0.8c0.4,0,0.5,0.3,0.6,0.6c0,0.1,0,0.3,0,0.4c0,0.1,0,0,0,0c-0.1,0-0.1,0-0.2,0c-0.3,0-0.6-0.3-0.6-0.6
			c0-0.1,0-0.3,0.1-0.4c0-0.1,0.1,0,0,0c0,0,0.1,0,0.2,0C22.7,75.3,23.3,74.5,22.8,74.5z"/>
	</g>
	<path id="XMLID_1_" class="st2" d="M10.9,78.6c0.5-0.5,0.9-1.2,1-1.9c0-0.2,0-0.5-0.1-0.7c-0.3-0.3-0.7,0-1,0.1
		c-0.3,0.1-0.6,0.5-0.7,0.9c0,0.4,0.4,0.3,0.6,0.2c0,0,0.1,0,0,0c0,0,0,0,0,0c0.1,0.1,0,0.2,0,0.3c0,0.2-0.1,0.3-0.2,0.4
		c0,0,0,0.1-0.1,0.1c0-0.1,0-0.1,0,0c0,0-0.1,0.1-0.1,0.1c0.1-0.2,0,0,0,0c-0.2,0.1-0.5,0.6-0.3,0.8C10.3,79.1,10.8,78.8,10.9,78.6
		L10.9,78.6z"/>
</g>
</svg>
