<?xml version="1.0" encoding="utf-8"?>
<!-- Generator: Adobe Illustrator 19.0.0, SVG Export Plug-In . SVG Version: 6.00 Build 0)  -->
<svg version="1.1" id="Layer_1" xmlns="http://www.w3.org/2000/svg" xmlns:xlink="http://www.w3.org/1999/xlink" x="0px" y="0px"
	 viewBox="0 0 86 86" style="enable-background:new 0 0 86 86;" xml:space="preserve">
<style type="text/css">
	.st0{fill:#F37A20;}
	.st1{fill:#62BA47;}
	.st2{fill:#FFFFFF;}
</style>
<circle id="XMLID_112_" class="st0" cx="44.4" cy="39" r="39"/>
<circle id="XMLID_111_" class="st1" cx="13.2" cy="73.7" r="12.3"/>
<g id="XMLID_88_">
	<path id="XMLID_110_" class="st2" d="M4.7,71.8c0.2-0.6,1-0.7,1.4-0.4c0.7,0.5-0.3,1.2-0.6,1.5c-0.4,0.3-1,0.9-0.8,1.4
		c0.1,0.4,1.2,0.4,1.5,0.5c0.6,0.1,0.8,0.4,0.7,1.1c-0.3,1.1-1.6,0.4-2,0c-0.3-0.3-1.3,0.6-1,1c1.3,1.3,3.1,0.4,3.9-1
		c0.3-0.5,0.4-1.4,0-1.9c-0.4-0.4-1.3-0.3-1.8-0.4c-0.1-0.1-0.2,0-0.2,0.2c0.2-0.2,0.5-0.4,0.7-0.6c0.3-0.3,0.6-0.5,0.8-0.9
		c0.3-0.6,0.4-1.5-0.2-1.9c-1.3-0.9-2.9,0.7-3.3,1.8C3.4,72.8,4.5,72.2,4.7,71.8L4.7,71.8z"/>
	<path id="XMLID_94_" class="st2" d="M11.2,76.1c1,3,5.5,0.9,4.8-1.8c-0.4-1.3-1.9-1.2-3-1.5c-0.6-0.2-0.6-0.7-0.6-1.2
		c0.2-0.6,0.2-0.7-0.2-0.3c0.2-0.1,0.3-0.1,0.5-0.1c0.9-0.2,1.9-0.1,2.8,0.3c0.4,0.2,1.3-0.8,0.8-1.1c-1.1-0.5-2.4-0.5-3.6-0.2
		c-1.1,0.3-1.4,1.3-1.4,2.3c-0.1,1.3,1.2,1.5,2.2,1.6c0.8,0.1,1.4,0.3,1.5,1.2c0.1,1.4-1.3,1.2-2,0.8c-0.3-0.2-0.5-0.6-0.6-0.9
		C12.1,74.8,11.1,75.7,11.2,76.1L11.2,76.1z"/>
	<g id="XMLID_90_">
		<path id="XMLID_93_" class="st2" d="M21.7,70.7c-1.3,2.1-2.9,4.1-4.3,6c-0.6,0.9,0.4,0.8,0.8,0.2c1.6-2.1,3.2-4.1,4.6-6.4
			C23.3,69.7,22,70.2,21.7,70.7L21.7,70.7z"/>
		<path id="XMLID_92_" class="st2" d="M19.3,70.1c-0.8,0-1.3,0.8-1.5,1.5c-0.1,0.7,0.3,1.3,1,1.3C20.3,72.9,21.1,70.2,19.3,70.1
			c-0.3,0-0.9,0.8-0.5,0.8c0.4,0,0.6,0.3,0.6,0.7c0,0.1,0,0.3,0,0.4c0,0.1,0,0,0,0c-0.1,0-0.1,0-0.2,0c-0.4,0-0.6-0.3-0.6-0.6
			c0-0.1,0-0.3,0.1-0.4c0-0.1,0.1,0,0,0c0.1,0,0.1,0,0.2,0C19.2,70.9,19.8,70.1,19.3,70.1z"/>
		<path id="XMLID_91_" class="st2" d="M21.5,74.6c-0.8,0-1.3,0.8-1.5,1.5c-0.1,0.7,0.3,1.3,1,1.3C22.5,77.4,23.3,74.7,21.5,74.6
			c-0.3,0-0.9,0.8-0.5,0.8c0.4,0,0.6,0.3,0.6,0.7c0,0.1,0,0.3,0,0.4c0,0.1,0,0,0,0c-0.1,0-0.1,0-0.2,0c-0.4,0-0.6-0.3-0.6-0.6
			c0-0.1,0-0.3,0.1-0.4c0-0.1,0.1,0,0,0c0.1,0,0.1,0,0.2,0C21.4,75.5,22,74.6,21.5,74.6z"/>
	</g>
	<path id="XMLID_89_" class="st2" d="M9,78.9c0.6-0.5,0.9-1.2,1.1-2c0-0.2,0-0.5-0.2-0.7c-0.3-0.3-0.7,0-1,0.1
		c-0.3,0.1-0.6,0.5-0.7,0.9c0,0.4,0.4,0.3,0.6,0.2c0,0,0.1,0,0,0c0,0,0,0,0,0c0.1,0.1,0,0.2,0,0.3c0,0.2-0.1,0.3-0.2,0.4
		c0,0,0,0.1-0.1,0.1c0-0.1,0-0.1,0,0c0,0-0.1,0.1-0.1,0.1c0.1-0.2,0,0,0,0c-0.2,0.2-0.5,0.6-0.3,0.8C8.4,79.4,8.9,79,9,78.9L9,78.9z
		"/>
</g>
<g id="XMLID_7_">
	<g id="XMLID_73_">
		<g id="XMLID_74_">
			<path id="XMLID_82_" class="st2" d="M74.5,47c-0.5,0-0.9,0.2-1.3,0.5c0,0-0.1-0.1-0.1-0.2c-0.2-0.5-0.2-1.3-0.2-1.8
				c0.1-2,0.5-3.9,1.1-5.8c0,0,0-0.1,0-0.1c0.2-1.3-0.7-2.2-2-2.3c-1.3-0.1-2.4,0.5-3.3,1.4c-1,1.1-1.6,2.6-1.9,4.2
				c-0.1,0.5-0.6,2.2-1.2,2.2c0,0-0.1,0-0.1,0c-0.5-0.1-0.4-1-0.4-1.5c0-0.9,0.1-1.9-0.3-2.8c-0.3-0.7-1.1-0.9-1.8-0.9
				c0-0.1,0.1-0.2,0.1-0.3c0.1-0.1,0.1-0.3,0.2-0.4c0.3-0.7,0.7-1.4,1.2-1.9c0.3,0.1,0.7,0.5,0.8,0.6c0.7,0.7,2.8-0.6,2.2-1.3
				c-0.9-1-1.8-1.2-2.8-0.9c-0.6,0.1-1.2,0.5-1.8,1c-0.1,0.1-0.2,0.2-0.3,0.3c0.1-1.2,0.1-2.4-0.1-3.6c0-0.1-0.1-0.2-0.2-0.3
				c-0.6-0.3-2.2,0.7-2.2,1.4c0.1,2.6-0.1,4.8-1,7.2c-0.2,0.7-1.3,1.9-1.3,1.9s0,0-0.1,0.1c-0.2-0.3-0.1-0.9-0.2-1.2
				c-0.1-0.9,0-1.7,0.1-2.6c0.1-1.2,0.2-2.6,0.6-3.7c0.2-0.4,0.3-0.8,0.5-1.2c0.2-0.5,0-0.8-0.6-0.8c-0.6,0.1-1.3,0.5-1.5,1.1
				c-0.2,0.5-0.4,1-0.6,1.5c-0.3,0.6-0.5,1.1-0.9,1.6c-0.3,0.4-0.6,0.6-1.1,1c0,0-0.1,0.1-0.1,0.1c0.1-1.8,0.1-3.6,0.1-5.4
				c0.1-0.3-0.1-0.4-0.3-0.5c-0.1,0-0.1,0-0.2,0c-0.2,0-0.4,0-0.5,0.1c-0.4,0.1-0.8,0.4-1,0.8c-0.1,0.2-0.2,0.4-0.2,0.5
				c-0.6,2.2-1.4,4.2-2.4,6.2c-0.4,0.8-1.1,2.2-2,1.1c-0.2-0.3-0.4-0.6-0.6-1c1.5-1.4,2.7-3.2,3.1-5.2c0.3-1.3-0.2-2.7-1.8-2.9
				c-1.5-0.2-2.7,1.4-3.2,2.5c-0.8,1.6-0.7,3.5-0.6,5.2c0,0.2,0.1,0.5,0.1,0.8c-0.2,0.2-0.5,0.4-0.7,0.5c-1.1,0.8-1.6,0.3-2.1-0.7
				c-0.5-1.3-0.6-2.8-0.5-4.2c0-0.5,0.1-0.9,0.2-1.4c0.1-0.2,0.1-0.3,0.2-0.5c0-0.1,0-0.1,0.1-0.2c0.3,0.1,0.5,0.5,0.7,0.7
				c0.5,0.7,2.5-1,2-1.8c-1.1-1.7-3-0.8-4,0.5c-0.5,0.7-0.8,1.5-1,2.3c-0.1,0.4-0.3,0.8-0.4,1.2c0-1.5,0-3,0-4.5
				c0-1.2-2,0.5-2.1,1.1c-0.1,0.7-0.3,1.4-0.6,2.1c-0.2-0.7-0.4-1.3-0.8-1.9c-0.9-1.5-2.6-1.2-3.8,0.2c-0.3,0.3-0.8,1.1-0.4,1.4
				c0.4,0.3,1-0.2,1.3-0.5c0,0,0.1,0,0.1,0c0.1,0,0.3,0.1,0.4,0.2c0.3,0.2,0.5,0.5,0.6,0.9c0.4,0.9,0.6,1.9,0.7,2.8
				c0.1,1,0.1,2-0.1,2.9c0,0.1,0,0.1,0,0.2c0,0.1-0.1,0.2-0.1,0.3c-0.2,0-0.5-0.3-0.6-0.5c0-0.1-0.1-0.1-0.1-0.2
				c-0.3-0.3-1,0.2-1.4,0.8c0,0.1-0.1,0.1-0.1,0.2c0,0-0.1,0-0.2,0c-0.1,0-0.3,0-0.4-0.1c-0.3-0.2-0.5-0.5-0.7-0.8
				c-0.5-1-0.6-2.1-0.7-3.1c-0.2-1.6-0.2-3.2-0.2-4.8c0-0.6-0.7-0.3-1.1-0.1c-0.1,0-0.1,0.1-0.2,0.2c-0.6-0.2-1.4,0-2.2,0.5
				c-1.9,1.4-2.4,4-1.8,6.2c0.3,1.2,1.5,1.9,2.7,1.5c0.2-0.1,0.4-0.2,0.6-0.3c-0.1,0.6-0.2,1.1-0.4,1.7c-0.2,0.6-1.2-0.1-1.3-0.4
				c-0.4-0.8-2.2,1.2-1.8,2c0.9,1.8,3,0.6,4-0.7c0.2-0.2,0.3-0.4,0.4-0.7c0.2,0.4,0.4,0.7,0.8,1c0.8,0.6,1.8,0.2,2.6-0.5
				c1.3,0.9,2.9-0.4,3.6-1.8c0.3-0.6,0.5-1.3,0.6-1.9c0.1-0.5,0.3-1.1,0.5-1.6c0,1.6,0.1,3.1,0,4.7c0,0.6,0.6,0.4,1,0.2
				c0.5-0.3,1-0.9,1-1.5c0.1-0.6,0.2-1.2,0.4-1.7c0.3,1.6,0.9,3.2,2.5,3.2c0.8,0,1.6-0.5,2.2-0.9c0.4-0.2,0.7-0.5,1-0.7
				c0.3,0.7,0.8,1.4,1.5,1.6c2,0.4,3.6-1.6,4.6-3.1c0.3-0.5,0.6-0.9,0.9-1.4c0,1.5-0.1,3-0.3,4.4c-0.1,0.6,0.6,0.5,1,0.4
				c0.5-0.2,1.1-0.7,1.2-1.3c0.2-0.9,0.4-1.9,0.9-2.8c0.3-0.5,0.5-0.5,1-0.9c0,0,0,0,0.1-0.1c0,0.5-0.1,1.1-0.1,1.6
				c0,0.8-0.4,4.1,1.2,4.1c1.1,0,2.1-0.7,2.8-1.6c-0.1,0.5-0.2,1-0.3,1.6c-0.1,0.6,0.5,0.6,0.9,0.5c0.5-0.2,1.1-0.6,1.3-1.2
				c0.2-1,0.5-2,0.8-3c1.2,0.6,0.2,3.7,1,4.6c0.7,0.7,1.8,0.5,2.6,0.2c0.3-0.1,0.6-0.3,0.8-0.5c0.1,0.6,0.3,1.2,0.8,1.6
				c0.9,0.8,2.2,0.4,3-0.1c0.1-0.1,0.2-0.1,0.3-0.2c0,0.2,0.1,0.4,0.1,0.6c0.6,2.2,3.3,1.2,4.2,0C75.3,47.5,75,47,74.5,47z
				 M26.4,39.5c-0.3-0.7-0.4-2.2,0-2.9c-0.1,0.1,0.3-0.1,0.5,0c0.4,0.1,0.6,0.5,0.7,0.9c0,1,0.1,1.9,0.2,2.9
				C27.1,40.5,26.7,40,26.4,39.5z M46.6,36c0.1-0.3,0.2-0.8,0.4-1.1c0.1,0,0.2,0.1,0.3,0.1c0.6,0.4,0.5,1.4,0.4,2
				c-0.2,0.8-0.6,1.6-1.2,2.3c0-0.4,0-0.8,0-1.2C46.4,37.4,46.5,36.7,46.6,36z M69.7,46.2c-0.1,0-0.2,0-0.3-0.1
				c-0.4-0.3-0.4-1-0.5-1.4c-0.2-1.6,0.2-3.2,0.9-4.6c0.2-0.4,0.6-1.1,0.9-1.3c0,0,0.1,0,0.1,0c0.1,0,0.3,0.1,0.3,0.1
				c0.5,0.1,0.7,0.7,0.6,1.1c-0.4,2-0.9,4-1.7,5.8C69.9,45.9,69.8,46.1,69.7,46.2z M73,47.7C73,47.7,73,47.7,73,47.7
				C73,47.7,73,47.7,73,47.7C73,47.7,73,47.7,73,47.7z"/>
			<path id="XMLID_75_" class="st2" d="M23.8,36.5c0.7-2.3,0.4-4.2-0.8-5.9c-1.2-1.7-4.3-1.6-6.2-0.6c-2.7,1.3-4.7,4-5,7
				c0,0.5,0.3,0.7,0.8,0.4c0.5-0.4,1-1.1,1.1-1.8c0.2-1.7,1.3-2.9,3.1-3.6c1.5-0.6,3.3-0.4,4.1,0.5c1.3,1.4,2.4,5.6-0.7,5.8
				c0,0,0,0,0,0c-0.9-1.6-1.9-3.3-2.2-5.1c-0.2-1.1-2.1,1-2,1.8c0.7,3.1,3.1,5.7,3.5,8.8c0.1,1.1,0.1,2.7-1.3,2.9
				c-0.9,0.2-2.1-0.3-2.2-1.3c-0.2-1.1-1.9,1.1-1.7,1.9c0.3,1.4,1.6,2.1,2.7,1.9c1.9-0.3,3.3-1.9,3.9-3.7c0.6-1.7,0.7-3.6,0.1-5.4
				C22.3,39.4,23.4,37.8,23.8,36.5z"/>
		</g>
	</g>
</g>
</svg>
