<?xml version="1.0" encoding="utf-8"?>
<!-- Generator: Adobe Illustrator 19.0.0, SVG Export Plug-In . SVG Version: 6.00 Build 0)  -->
<svg version="1.1" id="Layer_1" xmlns="http://www.w3.org/2000/svg" xmlns:xlink="http://www.w3.org/1999/xlink" x="0px" y="0px"
	 viewBox="-580 396.7 86 86" style="enable-background:new -580 396.7 86 86;" xml:space="preserve">
<style type="text/css">
	.st0{fill:#99C5E9;}
	.st1{fill:#62BA47;}
	.st2{fill:#FFFFFF;}
</style>
<circle class="st0" cx="-534.8" cy="435.8" r="39"/>
<circle class="st1" cx="-566" cy="470.5" r="12.3"/>
<g>
	<path class="st2" d="M-556.4,467.9c-1.1,1.9-2.5,3.6-3.8,5.3c-0.6,0.8,0.3,0.7,0.7,0.2c1.4-1.8,2.8-3.6,4-5.6
		C-555,467-556.1,467.5-556.4,467.9L-556.4,467.9z"/>
	<path class="st2" d="M-558.4,467.4c-0.7,0-1.2,0.7-1.3,1.3c-0.1,0.6,0.2,1.1,0.9,1.1C-557.6,469.9-556.9,467.4-558.4,467.4
		c-0.3,0-0.8,0.7-0.4,0.7c0.3,0,0.5,0.3,0.5,0.6c0,0.1,0,0.3,0,0.4c0,0.1,0,0,0,0c-0.1,0-0.1,0-0.2,0c-0.3,0-0.5-0.3-0.5-0.6
		c0-0.1,0-0.3,0.1-0.4c0-0.1,0,0,0,0c0,0,0.1,0,0.2,0C-558.5,468.1-558,467.4-558.4,467.4z"/>
	<path class="st2" d="M-556.5,471.4c-0.7,0-1.2,0.7-1.3,1.3c-0.1,0.6,0.2,1.1,0.9,1.1C-555.6,473.8-555,471.4-556.5,471.4
		c-0.3,0-0.8,0.7-0.4,0.7c0.3,0,0.5,0.3,0.5,0.6c0,0.1,0,0.3,0,0.4c0,0.1,0,0,0,0c-0.1,0-0.1,0-0.2,0c-0.3,0-0.5-0.3-0.5-0.6
		c0-0.1,0-0.3,0.1-0.4c0-0.1,0,0,0,0c0,0,0.1,0,0.2,0C-556.6,472.1-556.1,471.3-556.5,471.4z"/>
</g>
<g>
	<g>
		<g>
			<path class="st2" d="M-504.8,442.6c-0.4,0-0.8,0.1-1,0.4c-0.5-2.1,0-4.2,0.6-6.2c0,0,0-0.1,0-0.1c0.2-1-0.5-1.7-1.6-1.9
				c-1-0.1-1.9,0.4-2.6,1c-0.8,0.8-1.3,2.1-1.6,3.3c-0.2,1-0.8,1.6-1,1.6c-0.5-0.2-0.3-0.9-0.3-1.3c0-0.7,0.1-1.5-0.3-2.2
				c-0.3-0.5-0.9-0.7-1.4-0.7c0.5-1.7,1-1.9,1.2-2.1c0.3,0.1,0.5,0.4,0.6,0.5c0.6,0.6,2.3-0.4,1.8-1c-0.7-0.8-1.4-0.9-2.1-0.8
				c-0.5,0.1-1,0.4-1.4,0.7c-0.1,0.1-0.1,0.1-0.2,0.2c0.1-0.9,0.1-1.9-0.1-2.8c-0.1-0.7-2,0.1-1.9,0.8c0.1,0.4,0.1,0.9,0.1,1.3
				c-0.1,2-0.6,4.2-2.2,5.6c0-0.2-0.1-0.3-0.1-0.5c-0.1-1.3,0.3-2.6,0.3-3.9c0-0.9,0.1-2-0.4-2.8c-0.6-0.8-1.9,0.1-2.3,0.5
				c-0.1,0.1-0.2,0.2-0.2,0.3c-0.1-0.5-0.2-0.9-0.5-1.3c-0.4-0.4-1.1-0.3-1.5,0c-0.3,0.2-0.6,0.4-0.8,0.6c0-0.2,0-0.3,0-0.5
				c0-0.3,0-0.7-0.3-0.7c-0.3,0-0.6,0.1-0.9,0.2c-0.3,0.2-0.5,0.4-0.6,0.7c-0.2,0.3-0.4,0.3-0.8,0.2c-1.4-0.3-1.3-1.4-2.5-1.5
				c-1.9-0.1-2.7,2.2-2.9,3.8c0,0,0,0,0,0c-0.2,0.8-0.6,1.9-1.3,2.6c0.3-0.9,0.4-2,0.4-2.9c-0.1-1.1-0.2-3.1-1.5-3.6
				c-0.7-0.3-1.5,0.1-2.1,0.5c-0.1-0.5-0.2-1.5-0.3-1.7c-0.1-0.2-0.3-0.2-0.6-0.1c-0.5,0.2-0.9,0.6-1.1,1.1c-0.1,0.3-0.2,1.1-1.1,1
				c-0.6-0.1-0.9-0.7-1.9-0.5c-2.1,0.7-2.6,3-2.5,5c0.1,1.3,0.3,4.3,2.2,4.2c1,0,1.8-1.1,2.2-1.9c0.4-1,0.5-2,0.5-3
				c0-0.6,0-1.5-0.3-2.3c0.4-0.2,0.8-0.4,1.1-0.8c0.1,0.7,0.2,1.4,0.3,2.1c0,0,0,0.1,0,0.1c0,0,0,0.1,0,0.1c0.1,1.5,0.2,3,0.2,4.4
				c0.1,2,0.1,4-0.1,6c0,0.5,0.5,0.4,0.8,0.2c0.4-0.2,0.8-0.7,0.8-1.1c0.1-1.4,0.2-2.9,0.2-4.3c1.8,0,3.3-1.2,4.1-2.2
				c0.2,1.2,0.6,2.3,1.8,2.5c1,0.1,1.9-0.8,2.3-1.6c0.5-0.9,0.7-1.9,0.8-2.9c0-0.4,0.1-1,0-1.6c0.4,0,0.8-0.2,1.2-0.4
				c-0.1,2.1-0.3,4.3-0.5,6.4c-0.1,0.9,1.7-0.1,1.7-0.7c0.2-1.9,0.3-4,1.4-5.8c0.3,0.3,0.2,2.3,0.1,3.4c0,0.6-0.1,1.2-0.2,1.8
				c-0.1,0.5-0.2,1-0.2,1.6c-0.1,0.9,1.6,0,1.7-0.6c0.1-0.5,0.2-1,0.2-1.6c0.2-1,0.6-3.9,1.3-4.2c0.3,0.2,0.1,2,0.1,2.6
				c-0.1,1.2-0.4,2.4-0.2,3.7c0.2,1.9,2.2,0.6,2.9-0.1c0.2-0.2,0.4-0.4,0.5-0.6c-0.1,0.6-0.2,1.2-0.3,1.9c-0.1,0.9,1.6,0.1,1.8-0.5
				c0.2-0.8,0.4-1.6,0.6-2.3c0.9,0.5,0.1,3,0.8,3.7c0.6,0.6,1.5,0.4,2.1,0.2c0.2-0.1,0.4-0.2,0.6-0.3c0.1,0.5,0.2,1,0.6,1.3
				c0.7,0.6,1.8,0.4,2.4,0c0.1,0,0.1-0.1,0.2-0.1c0,0.2,0,0.3,0.1,0.5c0.4,1.9,2.7,0.9,3.4,0C-504.2,443-504.4,442.7-504.8,442.6z
				 M-540.6,437.4c0,0.2-0.1,0.4-0.2,0.6c-0.4-0.1-0.7-0.6-0.8-0.9c-0.3-0.7-0.4-1.4-0.5-2.1c-0.1-0.7,0-1.5,0.1-2.3
				c0-0.2,0.1-0.4,0.2-0.6c0,0,0.1,0,0.1,0c0,0,0,0,0,0c0.1,0.1,0.1,0.1,0.2,0.1c0.6,0.6,0.8,2.3,0.9,2.8
				C-540.5,435.9-540.5,436.7-540.6,437.4z M-535.9,436.6c0-1.3-0.1-2.5-0.2-3.8c0-0.7,0.1-0.9,0.1-1c0.3-0.1,0.5,0.1,0.7,0.4
				c0.6,0.7,0.7,1.8,0.8,2.6c0.1,0.9-0.1,2.6-0.4,3C-535.4,437.9-535.8,437.3-535.9,436.6z M-528.8,437.4c-0.1,0.2-0.1,0.4-0.2,0.6
				c-0.4-0.1-0.6-0.7-0.7-1c-0.2-0.7-0.3-1.4-0.3-2.2c0-0.7,0.1-1.5,0.3-2.2c0.1-0.2,0.1-0.4,0.2-0.5c0.9,0.3,0.9,2.5,0.9,3.2
				C-528.5,435.9-528.6,436.7-528.8,437.4z M-508.7,442c0,0-0.2,0-0.3-0.1c-0.3-0.2-0.3-0.8-0.4-1.1c-0.1-1.2,0.2-2.5,0.7-3.6
				c0.2-0.3,0.5-0.8,0.7-1c0.1,0,0.3,0,0.3,0c0.4,0.1,0.6,0.5,0.5,0.9c-0.4,1.5-0.7,3.2-1.4,4.6C-508.5,441.7-508.6,441.9-508.7,442
				z"/>
			<path class="st2" d="M-545.5,433.1c-0.4-0.2-0.7-0.1-1.1,0c0.3-0.8,0.5-1.6,0.7-2.5c0.3-1.2,0.7-3,0-4.1c-0.8-1.2-2.4-0.1-3,0.8
				c-0.9,1.3-1,3-1.1,4.5c0,1.7,0.2,3.4,0.6,5c-0.1,0.7-0.4,1.9-1,2.6c-0.4,0-0.6-0.9-0.7-1.2c-0.6-1.8-0.8-3.9-0.4-5.7
				c0.1-0.4-0.2-0.6-0.6-0.4c-0.5,0.2-0.9,0.8-1,1.2c-0.1,0.4-0.2,1.5-0.7,1.8c-0.4,0.2-0.9,0.1-1.4,0c-0.6-0.1-1.6,0.2-2.1,0.8
				c-0.1-0.8-0.3-1.5-0.5-2.2c-0.1-0.4-0.9,0.2-1,0.3c-0.3,0.3-0.5,0.7-0.5,1c0,1,0.3,3.1-0.5,5.6c-0.1,0.5-0.5,1.4-1.2,1.5
				c-0.8,0.2-1.4-0.4-1.8-1c-1.2-1.8-1.7-4-1.6-6.1c0-0.9,0.2-1.9,0.5-2.6c0,0,0-0.1,0.1-0.1c0,0,0,0,0.1-0.1c0,0,0.1-0.1,0.1-0.1
				s0.8-0.2,1.2-0.2c0.8,0.1,1,1,1.1,1.5c0.2,0.9,1.7-0.8,1.6-1.4c-0.2-1.2-0.8-2.3-2.3-2.1c-1.1,0.2-1.9,0.9-2.5,1.7
				c-1.2,1.9-1.4,4.3-1.1,6.5c0.2,2,0.9,4.3,2.4,5.4c1.7,1.3,3.8-0.9,4.5-2.5c0.2-0.4,0.3-0.8,0.4-1.2c0.2,1.3,1,2.7,2.6,2.3
				c1.8-0.4,2.5-2.8,2.4-4.3c0-0.5-0.2-1-0.4-1.5c0.2-0.2,0.4-0.3,0.6-0.5c0,0.4,0.1,0.7,0.1,1c0.1,1.2,0.3,2.5,0.9,3.6
				c0.4,0.8,1.3,0.8,2,0.2c0.6-0.5,1.1-1.3,1.4-2c0.4,0.9,0.9,1.8,1.9,1.7c1.4-0.3,2.3-1.6,2.5-2.9
				C-544.2,436.2-544,433.8-545.5,433.1z M-554.8,440.1c0,0.1,0,0.2-0.1,0.3c0,0-0.1,0-0.2,0.1c-1,0.3-1.5-1-1.7-1.6
				c0-0.1,0-0.2-0.1-0.2c0,0,0,0,0,0c0-0.1,0-0.2-0.1-0.4c0-0.3,0-0.6,0-0.9c0-0.1,0.1-0.2,0.1-0.3c0,0,0.1,0,0.1,0
				c1-0.2,1.5,1,1.7,1.7C-554.8,439.1-554.8,439.6-554.8,440.1z M-548.3,431.3c0-1.1,0.4-3.5,0.4-3.5s0,0,0,0c0,0,0,0,0,0
				c0.3,0.1,0.5,0.6,0.5,0.8c0.2,1.2-0.1,2.5-0.4,3.7c-0.1,0.5-0.3,0.9-0.4,1.4C-548.2,432.9-548.3,432.1-548.3,431.3z M-546,438.5
				c0,0,0,0.1,0,0.1c0,0-0.1,0-0.1,0c-0.4,0-0.6-0.6-0.8-0.8c-0.3-0.6-0.5-1.3-0.7-1.9c0.1-0.3,0.3-0.6,0.4-1c0,0,0-0.1,0.1-0.1
				c0,0,0,0,0,0c0.2-0.1,0.4,0.1,0.6,0.2c0.5,0.4,0.6,1.2,0.6,1.8C-545.9,437.3-545.9,437.9-546,438.5z"/>
		</g>
	</g>
</g>
<g>
	<path class="st2" d="M-574.3,467.2c-1.4,0.1-1.9,1.8-2,3c-0.1,1-0.1,3.4,1.3,3.5c1.5,0.1,2.1-1.8,2.2-2.9c0.1-1,0-3.4-1.3-3.5
		c-0.5,0-1.3,1.1-0.8,1.1c0.8,0.1,0.9,1.2,1,1.8c0.1,0.5,0.1,1,0,1.5c0,0.2-0.1,0.4-0.1,0.6c0,0.2-0.3,0.5-0.1,0.4
		c-0.7,0.3-1-1.4-1-1.7c-0.1-0.5,0-1,0-1.5c0-0.3,0.1-0.5,0.2-0.8c0.1-0.3,0.2-0.3,0.1-0.2C-574.5,468.3-573.7,467.2-574.3,467.2z"
		/>
	<path class="st2" d="M-567.8,467.2c-1.4,0.1-1.9,1.8-2,3c-0.1,1-0.1,3.4,1.3,3.5c1.5,0.1,2.1-1.8,2.2-2.9c0.1-1,0-3.4-1.3-3.5
		c-0.5,0-1.3,1.1-0.8,1.1c0.8,0.1,0.9,1.2,1,1.8c0.1,0.5,0.1,1,0,1.5c0,0.2-0.1,0.4-0.1,0.6c0,0.2-0.3,0.5-0.1,0.4
		c-0.7,0.3-1-1.4-1-1.7c-0.1-0.5,0-1,0-1.5c0-0.3,0.1-0.5,0.2-0.8c0.1-0.3,0.2-0.3,0.1-0.2C-567.9,468.3-567.1,467.2-567.8,467.2z"
		/>
	<path class="st2" d="M-565.7,472.5c0.8,2.6,4.8,0.8,4.1-1.5c-0.3-1.2-1.6-1-2.6-1.3c-0.5-0.2-0.6-0.6-0.5-1
		c0.2-0.5,0.1-0.6-0.2-0.3c0.1,0,0.3-0.1,0.4-0.1c0.8-0.2,1.7-0.1,2.4,0.2c0.3,0.2,1.1-0.7,0.7-0.9c-1-0.5-2.1-0.4-3.1-0.2
		c-1,0.2-1.2,1.1-1.2,2c-0.1,1.1,1,1.3,1.9,1.4c0.7,0.1,1.2,0.3,1.3,1.1c0.1,1.2-1.2,1.1-1.8,0.7c-0.3-0.2-0.4-0.5-0.5-0.8
		C-564.9,471.4-565.8,472.1-565.7,472.5L-565.7,472.5z"/>
	<path class="st2" d="M-571.8,474.9c0.5-0.4,0.8-1.1,0.9-1.8c0-0.2,0-0.5-0.1-0.6c-0.2-0.2-0.7,0-0.9,0.1c-0.3,0.1-0.6,0.5-0.6,0.8
		c0,0.3,0.3,0.3,0.5,0.2c0,0,0.1,0,0,0c0,0,0,0,0,0c0.1,0.1,0,0.2,0,0.3c0,0.2-0.1,0.3-0.1,0.4c0,0,0,0.1-0.1,0.1c0-0.1,0-0.1,0,0
		c0,0,0,0.1-0.1,0.1c0.1-0.1,0,0,0,0c-0.2,0.1-0.5,0.6-0.3,0.8C-572.4,475.4-572,475.1-571.8,474.9L-571.8,474.9z"/>
</g>
</svg>
