<?xml version="1.0" encoding="utf-8"?>
<!-- Generator: Adobe Illustrator 19.0.0, SVG Export Plug-In . SVG Version: 6.00 Build 0)  -->
<svg version="1.1" id="Layer_1" xmlns="http://www.w3.org/2000/svg" xmlns:xlink="http://www.w3.org/1999/xlink" x="0px" y="0px"
	 viewBox="-580 396.7 86 86" style="enable-background:new -580 396.7 86 86;" xml:space="preserve">
<style type="text/css">
	.st0{fill:#0455A4;}
	.st1{fill:#62BA47;}
	.st2{fill:#FFFFFF;}
</style>
<circle class="st0" cx="-534.8" cy="435.8" r="39.1"/>
<g>
	<circle class="st1" cx="-566" cy="470.5" r="12.3"/>
</g>
<g>
	<g>
		<path class="st2" d="M-506.1,446.8c-1.6,0.3-1.1-3.8-1.1-4.5c0.3-2.4,0.8-4.7,1.4-7c0.2-0.7-0.7-0.8-1.2-0.8
			c-0.7,0.1-1.6,0.6-1.7,1.3c-0.1,0.4-0.2,0.9-0.3,1.3c-0.1,0.4-0.2,0.9-0.3,1.4c-0.3,1.3-0.6,2.6-1,3.8c-0.3,1-0.6,1.9-1.1,2.7
			c0,0-0.1,0.1-0.1,0.1c-0.2-0.1-0.4-0.2-0.5-0.3c-1.3-1-0.8-3.9-0.6-5.1c0.3-1.9,0.8-3.8,1.7-5.4c0.3-0.5,0-1-0.7-1
			c-0.8,0-1.7,0.5-2,1.1c-0.7,1.5-1.2,3.1-1.5,4.7c-0.2,1-1.4,4.9-2.4,4.3c-0.9-0.5-0.4-3.2-0.9-4.6c-0.4-1.4-1.5-1.7-2.7-1.6
			c0.6-2.3,1.2-3,1.7-3.4c0.4,0.2,0.9,0.5,1,0.7c0.9,0.8,3.5-0.9,2.7-1.7c-1.1-1.1-2.4-1.3-3.5-0.9c-0.8,0.2-1.6,0.7-2.2,1.3
			c-0.1,0.1-0.2,0.2-0.3,0.3c0-1.4-0.1-2.8-0.4-4.1c-0.1-0.5-0.8-0.5-1.4-0.2c-0.7,0.3-1.5,1-1.5,1.5c0,1-0.3,1.9-1.3,2.5
			c-0.5,0.3-1.3,0.6-1.9,0.5c-0.1,0-0.8-0.4-1.4-0.3c0.6-1.2,1.1-2.5,1.6-3.8c0.6-1.7,1.7-4.4,0.5-6.2c-1.2-2-3.9-0.5-5,0.6
			c-1.7,1.8-2.1,4.6-2.3,6.8c-0.3,2.5-0.1,5.1,0.2,7.6c-0.3,1.2-0.8,2.8-1.5,3.9c-0.6-0.4-1.4-1.7-1.5-2.1c-0.5-1.7-0.7-3.5-0.7-5.3
			c0-0.7,0-1.3,0-2c0-0.6,0-1.3,0-1.9c0-0.7-0.8-0.6-1.3-0.3c-0.7,0.4-1.4,1.1-1.4,1.8c0,2.3,0.1,4.5,0,6.8c-0.1,1-0.2,2.4-0.5,3.1
			c-2.1-0.1-2.4-3.4-2.5-4.6c-0.2-1.9-0.2-3.9,0.3-5.8c0.1-0.6-0.2-1-1-0.7c-0.7,0.3-1.5,1.1-1.6,1.8c-0.2,1.1-0.3,2.2-0.3,3.3
			c-0.1,4.5-0.4,6.3-1,7c-0.3-0.2-0.6-0.6-0.7-0.7c-0.5-0.7-0.8-1.6-1-2.4c-0.8-2.5-1.2-5.2-1.5-7.8c0,0,0,0,0,0
			c0-0.1,0-0.3-0.1-0.3c-0.1-0.1-0.2-0.1-0.3-0.1c-0.7,0-1.5,0.9-1.8,1.4c-1.2,2.3-0.7,5.1-0.7,7.5c0,1.2,0,2.4-0.2,3.6
			c-1.1-0.3-1.2-1.8-1.3-2.1c-0.1-0.3-0.5-0.2-0.9,0c-0.4,0.2-0.6,0.6-0.9,0.9c-0.2,0.3-0.4,0.7-0.4,1c0,0,0,0.1,0,0.1
			c-0.1,0.7-0.2,1.3-1,1.5c-0.4,0.1-0.8,0.1-1.1,0c-0.9-0.3-1.5-1-2-1.7c-1.4-2-2-4.6-2.2-7.2c-0.1-1.3-0.1-2.6,0.1-3.9
			c0.1-0.5,0.2-1,0.3-1.5c0-0.1,0.2-0.6,0.2-0.6c0-0.1,0.1-0.2,0.1-0.3c0,0,0-0.1,0-0.1c0,0,0,0,0-0.1c0,0,0-0.1,0-0.1
			c0,0,0,0,0.1-0.1c0,0,0.1-0.1,0.2-0.1c0.1-0.1,0.7-0.2,1.1-0.3c1.9-0.3,2.6,1.5,3.1,2.8c0.4,1,2.7-1.6,2.4-2.6
			c-0.6-1.7-1.7-3.5-4-3.2c-1.5,0.2-2.8,1-3.7,2.2c-2.2,2.8-2.6,6.6-2.2,10c0.3,3.1,1.2,6.4,3.4,8.7c0.7,0.8,1.8,1.3,3,1.1
			c1.4-0.2,2.4-1.2,3.1-2.4c0.7,0.9,1.6,1.4,3,0.4c1.3-1,1.8-2.8,2.1-4.3c0.1,0.3,0.2,0.6,0.3,0.9c0.3,0.8,0.7,1.8,1.4,2.3
			c0.8,0.6,2.4-0.7,2.4-0.7s0.2-0.2,0.4-0.3c0.6-0.5,1-1.2,1.3-1.9c0,0,0-0.1,0.1-0.1c0.5,1.2,1.3,2.3,2.6,2.3c1.5,0,2.6-1,3.3-2.2
			c0.2,0.4,0.4,0.8,0.7,1.1c1.3,1.5,3.5-0.1,4.5-1.1c0.3-0.3,0.5-0.6,0.8-1c0.4,1.4,1.1,2.7,2.6,2.7c2.2,0,3.7-2.2,4.3-3.9
			c0.4-1.3,0.8-3.6,0.3-5.3c0.2-0.1,0.5-0.2,0.7-0.3c0.5-0.3,1-0.6,1.4-0.9c0.1,3.5-0.3,6.9-0.6,10.3c-0.1,1.4,2.5-0.1,2.6-1
			c0.2-1.2,0.4-2.5,0.7-3.7c0.9,0.4,0.9,2.2,0.9,3.2c0.1,1.1,0.1,2.2,1.2,2.8c1.2,0.6,2.7,0,3.6-0.7c0.2-0.2,0.4-0.3,0.6-0.5
			c0.2,1.2,0.7,2.2,1.9,2.7c1.4,0.6,2.7,0.1,3.7-0.9c0.3,1.8,1.2,2.9,3.2,2.6c0.6-0.1,1.4-0.5,1.6-1.2
			C-504.9,446.9-505.7,446.7-506.1,446.8z M-532,430.4c0.1-1.9,0.5-3.8,1.3-5.5c0-0.1,0.1-0.1,0.1-0.2c0.5,0.2,0.6,0.8,0.7,1.2
			c0.3,1.8-0.5,3.8-1.1,5.4c-0.3,0.8-0.6,1.6-1,2.4C-532.2,432.7-532.1,431.6-532,430.4z M-529.7,441.9c0,0.1,0,0.1-0.1,0.2
			c-0.1,0-0.2,0-0.2,0c-1.3-0.4-1.6-3.5-1.7-4.4c0-0.1,0-0.1,0-0.2c0.3-0.5,0.6-0.9,0.8-1.4c0.2-0.2,0.3-0.2,0.6-0.1
			c0.2,0.1,0.3,0.3,0.5,0.4c0.7,0.7,0.6,2,0.6,2.9C-529.3,440.1-529.4,441.1-529.7,441.9z"/>
	</g>
</g>
<g>
	<path class="st2" d="M-566,466.9c0,0-0.1,0-0.1,0c-1.6,0.1-2.1,2.1-2.3,3.5c-0.1,1.1-0.1,4.1,1.5,4.3c1.7,0.1,2.4-2.1,2.5-3.4
		C-564.3,470-564.4,467.1-566,466.9z M-566,473.5c-0.9,0.4-1.2-1.7-1.3-2.1c-0.1-0.5-0.1-3.1,0.5-3.2c0.9,0.2,1.1,1.4,1.2,2.2
		C-565.6,470.7-565.4,473.2-566,473.5z"/>
	<path class="st2" d="M-569.2,473.1c-0.7,0.3-1.5,0.3-2.2,0.3c-0.2,0-0.5,0-0.8,0c0.1-0.1,0.2-0.1,0.3-0.2c0.5-0.4,0.9-0.9,1.3-1.3
		c0.8-0.9,1.3-2.1,1-3.3c-0.5-2.8-3.5-0.7-4.1,0.8c-0.3,0.8,1,0.1,1.1-0.4c0.5-1.2,1.4-0.4,1.7,0.2c0.4,0.9-0.1,1.8-0.6,2.5
		c-0.4,0.6-1,1.1-1.6,1.5c-0.3,0.2-0.6,0.3-0.8,0.7c-0.1,0.1-0.2,0.4,0,0.5c0.5,0.4,1.4,0.3,1.9,0.3c1,0.1,1.9,0,2.8-0.4
		C-568.8,473.8-568.3,472.7-569.2,473.1z"/>
	<path class="st2" d="M-558.8,467.8c-1.3,2.1-2.9,4.1-4.4,6.1c-0.7,0.9,0.4,0.9,0.9,0.2c1.6-2.1,3.3-4.2,4.6-6.5
		C-557.2,466.8-558.5,467.3-558.8,467.8z"/>
	<path class="st2" d="M-561.7,470c1.5,0.1,2.3-2.7,0.5-2.8c-0.8,0-1.4,0.8-1.5,1.5C-562.8,469.4-562.4,470-561.7,470z M-561.1,469.2
		C-561.1,469.2-561.1,469.2-561.1,469.2L-561.1,469.2z M-561.8,468L-561.8,468C-561.8,468-561.8,468-561.8,468
		C-561.8,468-561.8,468-561.8,468z M-561.8,468.1c0,0,0.1,0,0.1,0c0.4,0,0.6,0.3,0.6,0.7c0,0.1,0,0.3,0,0.4c-0.1,0-0.1,0-0.2,0
		c-0.4,0-0.6-0.3-0.6-0.7C-561.9,468.4-561.9,468.2-561.8,468.1z"/>
	<path class="st2" d="M-559,471.8c-0.8,0-1.4,0.8-1.5,1.5c-0.1,0.7,0.3,1.3,1,1.3C-558,474.6-557.2,471.9-559,471.8z M-559.5,472.6
		L-559.5,472.6C-559.5,472.6-559.5,472.6-559.5,472.6C-559.5,472.6-559.5,472.6-559.5,472.6z M-558.9,473.8
		C-558.9,473.8-558.9,473.8-558.9,473.8L-558.9,473.8z M-558.8,473.7c-0.1,0-0.1,0-0.2,0c-0.4,0-0.6-0.3-0.6-0.7
		c0-0.1,0-0.3,0.1-0.4c0,0,0.1,0,0.1,0c0.4,0,0.6,0.3,0.6,0.7C-558.8,473.4-558.8,473.6-558.8,473.7z"/>
</g>
</svg>
