<?xml version="1.0" encoding="utf-8"?>
<!-- Generator: Adobe Illustrator 19.0.0, SVG Export Plug-In . SVG Version: 6.00 Build 0)  -->
<svg version="1.1" id="Layer_1" xmlns="http://www.w3.org/2000/svg" xmlns:xlink="http://www.w3.org/1999/xlink" x="0px" y="0px"
	 viewBox="-580 396.7 86 86" style="enable-background:new -580 396.7 86 86;" xml:space="preserve">
<style type="text/css">
	.st0{fill:#ED3F8A;}
	.st1{fill:#62BA47;}
	.st2{fill:#FFFFFF;}
</style>
<circle class="st0" cx="-534.8" cy="435.7" r="38.8"/>
<circle class="st1" cx="-565.8" cy="470.2" r="12.2"/>
<path class="st2" d="M-503.1,445.3c0-0.6-1-0.5-1.3-0.4c0,0-0.2-0.2-0.3-0.8c-0.1-0.7,0-1.3,0.1-1.9c0.2-1.9,0.6-3.7,1.1-5.5
	c0,0,0-0.1,0-0.1c0.2-1.3-0.7-2.3-2.2-2.5c-1.4-0.2-2.7,0.5-3.5,1.4c-1.2,1.2-1.9,2.9-2.1,4.6c0,0,0,0,0,0.1c-0.4,2.3-1.1,2.1-1.2,2
	c-0.4-0.2-0.3-1.7-0.2-2.2c0.1-1.9,0.3-3.8,1-5.6c0.2-0.4,0.4-0.8,0.6-1.3c0.2-0.5,0-0.9-0.6-0.8c-0.7,0-1.4,0.4-1.7,0.9
	c-0.3,0.4-0.5,0.9-0.6,1.4c-0.3,0.6-0.7,1.2-1.2,1.7c-0.4,0.4-0.7,0.5-1.3,0.9c0,0-0.1,0.1-0.1,0.1c0.2-1.8,0.3-3.7,0.4-5.6
	c0.1-1.2-2.5-0.1-2.5,0.7c0,1.1-0.1,2.2-0.1,3.3c-0.2,0.7-0.4,1.4-0.6,2c-0.3,0.8-0.9,2-1.5,2.6c0,0,0,0,0,0
	c-0.2-0.6-0.2-1.2-0.2-1.8c0-1.1,0-2.2,0.1-3.2c0.1-0.6,0.1-1.1,0.2-1.6c0.1-0.4,0.1-0.9,0.2-1.3c0,0,0-0.1,0-0.1
	c0.1-1.3-1-2.1-2.6-2c-1.5,0.1-2.6,1-3.4,2c-1,1.4-1.5,3.2-1.5,4.9c-0.1,0.5-0.3,2-0.9,2.2c0,0-0.1-0.1-0.2-0.3
	c-0.2-0.5-0.2-1.1-0.2-1.7c0.1-2.3,0.4-4.9-0.5-7.1c-0.8-1.8-2.8-0.2-3.8,1c-0.2-0.6-0.4-1.2-0.9-1.6c-0.6-0.5-1.6-0.1-2.1,0.3
	c-0.4,0.3-0.7,0.6-1,1c0-0.3-0.1-0.6-0.1-0.9c-0.1-1.2-2.5,0.5-2.4,1.3c0.2,1.2,0.3,2.4,0.3,3.7c0.1,2-0.8,4.9-3.2,4.8
	c-0.5,0-0.9-0.6-1.2-1.1c0.7-0.9,1.3-1.9,1.8-2.8c1-1.6,1.8-3.9,0.6-5.4c-0.8-1-2.9,0-3.7,0.8c-1.1,1.2-1.5,2.8-1.6,4.2
	c-0.1,0.9-0.1,2.7,0.4,4.1c-0.2,0.2-0.4,0.3-0.5,0.5c0,0-0.1,0.1-0.1,0.1c0,0-0.1,0-0.2,0c-0.3-0.1-0.5-0.3-0.6-0.6
	c-0.5-0.7-0.7-1.7-0.9-2.5c-0.4-1.7-0.7-3.5-0.3-5.2c0.1-0.4-0.1-0.7-0.6-0.6c-0.7,0.2-1.3,0.9-1.5,1.4c0,0.1-0.1,0.2-0.1,0.3h0l0,0
	c-0.4,1-0.6,2.1-0.8,3.2c-0.4-1.2-0.9-2.7-0.5-4c0.1-0.4-0.1-0.7-0.6-0.6c-0.6,0.2-1.2,0.7-1.3,1.2c-0.8,2-0.7,4-0.6,6.3
	c0,0.9,0,2-0.2,3c-0.1,0-0.1,0-0.2,0c-0.5-0.2-0.7-1-0.9-1.5c0-0.1,0-0.1-0.1-0.2c0,0,0,0,0,0c-0.1-0.3-0.3-0.2-0.6-0.1
	c-0.1,0-0.1,0.1-0.2,0.1c-0.3,0.2-0.6,0.5-0.8,0.8c-0.2,0.3-0.3,0.6-0.4,0.9c0,0,0,0.1,0,0.1c-0.1,0.6-0.2,1.1-0.9,1.3
	c-0.3,0.1-0.7,0-1,0c-0.8-0.2-1.4-0.8-1.8-1.4c-1.1-1.9-1.6-3.7-1.8-6c-0.1-1-0.1-2.2,0.1-3.3c0.1-0.4,0.2-0.8,0.3-1.3
	c0-0.1,0.2-0.5,0.2-0.5c0-0.1,0.1-0.2,0.1-0.2c0,0,0,0,0-0.1c0,0,0,0,0-0.1c0,0,0-0.1,0-0.1c0,0,0,0,0.1-0.1c0,0,0.1-0.1,0.2-0.1
	c0.1-0.1,0.6-0.2,0.9-0.2c1.6-0.2,2.2,1.2,2.6,2.3c0.3,0.8,2.4-1.3,2.1-2.2c-0.5-1.4-1.4-2.9-3.4-2.7c-1.3,0.2-2.4,0.8-3.2,1.8
	c-1.9,2.3-2.3,5.5-2.1,8.4c0.2,2.6,0.9,5.4,2.8,7.3c0.6,0.6,1.6,1.1,2.6,0.9c1.2-0.2,2.1-1,2.8-2c0.6,0.8,1.4,1.2,2.6,0.3
	c1.1-0.8,1.6-2.2,1.8-3.4c0.3,0.8,0.5,1.7,0.7,2.5c0.3,1.2,2.1-0.8,2.1-1.6c-0.1-0.5-0.1-1,0-1.5c0.7,2.1,1.8,3.4,3.6,1.9
	c0.1,0,0.1-0.1,0.2-0.1c0.3-0.3,0.6-0.5,0.9-0.8c0.4,0.6,1,1.1,1.8,1.1c1.4,0,2.8-1,3.8-1.9c0.3-0.3,0.6-0.5,0.8-0.8
	c0,0.6,0,1.2,0.1,1.8c0.1,1.2,2.2-0.5,2.2-1.3c0.1-2.5,0.3-4.9,0.9-7.2c0-0.2,0.1-0.4,0.2-0.6c0,0,0,0.1,0,0.1
	c0.6,1.3,0.5,2.9,0.6,4.3c0,0.7,0,1.3,0,2c-0.1,0.8-0.1,1.7-0.1,2.5c0,1.2,2.2-0.4,2.3-1.2c0.1-0.9,0.1-1.9,0.1-2.8
	c0.2-1.7,0.5-3.5,1.2-5c0.1,0.2,0.1,0.4,0.1,0.5c0.3,1.2,0.4,2.6,0.4,3.8c-0.1,1.7-0.4,4.4,1.2,5c0.7,0.2,2-0.6,2.7-1.3
	c0.2,0.6,0.5,1.1,1.1,1.4c1,0.6,2.5,0,3.3-0.7c0.1,0.5,0.2,1,0.6,1.2c0.5,0.3,1.2,0.1,1.6-0.1c0.8-0.3,1.4-0.8,1.9-1.3
	c-0.1,0.5-0.1,1-0.2,1.5c-0.1,0.6,0.6,0.6,1,0.5c0.6-0.2,1.2-0.6,1.4-1.2c0.2-0.9,0.5-2,1.1-2.7c0.3-0.4,0.5-0.5,1.1-0.9
	c0,0,0.1,0,0.1-0.1c-0.2,1.5-0.4,3-0.3,4.5c0.1,1.4,1.1,1.8,2.4,1.5c0.6-0.1,1-0.3,1.5-0.6c0.1,0.6,0.4,1.1,0.8,1.5
	c0.9,0.8,2.4,0.5,3.2,0c0,0,0.1-0.1,0.1-0.1c0,0.4,0.1,0.8,0.3,1.2c0.5,1,1.8,0.9,2.6,0.6C-503.8,446.2-503,445.9-503.1,445.3z
	 M-544.9,432.3C-544.9,432.4-544.9,432.4-544.9,432.3L-544.9,432.3z M-545.1,435.2c0-1,0.1-1.9,0.4-2.9c0,0,0,0,0,0
	c0.1,0,0.3,0.1,0.4,0.1c1.1,0.6,0.4,2.3,0.1,3.2c-0.2,0.5-0.5,1-0.7,1.5C-545.1,436.4-545.1,435.8-545.1,435.2z M-524.4,439.3
	c0,0.1-0.1,0.3-0.2,0.5c-0.1,0-0.2,0-0.4-0.1c-0.5-0.2-0.6-1-0.7-1.3c-0.4-1.5-0.2-3.3,0.3-4.7c0.2-0.4,0.5-1.2,0.8-1.4
	c0,0,0.2-0.1,0.5,0c0.6,0.1,0.9,0.5,0.8,1C-523.5,435.2-523.7,437.3-524.4,439.3z M-507.8,442.9c0,0.1-0.2,0.3-0.3,0.4
	c-0.1,0-0.2,0-0.3-0.1c-0.4-0.3-0.5-1.1-0.5-1.5c-0.2-1.6,0.2-3.3,0.9-4.7c0.2-0.4,0.7-1.1,0.9-1.3c0,0,0.1-0.1,0.5,0.1
	c0.6,0.2,0.8,0.7,0.7,1.1C-506.4,439-506.9,441-507.8,442.9z"/>
<g>
	<path class="st2" d="M-574.9,469.7c0.4-0.5,0.7-1,1.1-1.5c0.2-0.2,0.3-0.5,0.5-0.7c0.2-0.3,0.2-0.3-0.1-0.1c0,0.4,0,0.7,0,1.1
		c0,2-0.1,4.1-0.3,6.1c-0.1,0.7,1.3-0.2,1.3-0.7c0.1-1.3,0.2-2.7,0.2-4c0-0.6,0.5-3.7-0.3-3.9c-1.4-0.4-2.8,2.7-3.4,3.5
		C-576.4,470.3-575.3,470.3-574.9,469.7L-574.9,469.7z"/>
	<path class="st2" d="M-570.8,473c1.1,3.5,6.3,1.1,5.5-2c-0.4-1.5-2.2-1.3-3.4-1.7c-0.7-0.2-0.7-0.8-0.7-1.4
		c0.3-0.7,0.2-0.8-0.2-0.3c0.2-0.1,0.4-0.1,0.6-0.1c1.1-0.2,2.2-0.2,3.2,0.3c0.5,0.2,1.5-1,0.9-1.2c-1.3-0.6-2.8-0.5-4.1-0.2
		c-1.3,0.3-1.6,1.5-1.6,2.7c-0.1,1.5,1.3,1.7,2.5,1.9c0.9,0.1,1.7,0.4,1.7,1.4c0.1,1.6-1.5,1.4-2.3,0.9c-0.4-0.2-0.6-0.7-0.7-1.1
		C-569.8,471.5-571,472.5-570.8,473L-570.8,473z"/>
	<g>
		<path class="st2" d="M-558.1,466.7c-1.5,2.5-3.4,4.8-5.1,7.1c-0.8,1,0.5,1,1,0.3c1.8-2.4,3.8-4.8,5.3-7.5
			C-556.2,465.6-557.7,466.1-558.1,466.7L-558.1,466.7z"/>
		<path class="st2" d="M-560.8,466c-0.9,0-1.6,0.9-1.7,1.7c-0.2,0.8,0.3,1.5,1.1,1.5C-559.7,469.3-558.8,466.1-560.8,466
			c-0.4,0-1.1,1-0.5,1c0.4,0,0.7,0.4,0.7,0.8c0,0.1,0,0.3-0.1,0.5c-0.1,0.1,0,0,0,0c-0.1,0-0.2,0-0.2,0c-0.4,0-0.7-0.4-0.7-0.8
			c0-0.2,0-0.4,0.1-0.5c0.1-0.1,0.1,0,0,0c0.1,0,0.1,0,0.2,0C-560.9,467-560.2,466-560.8,466z"/>
		<path class="st2" d="M-558.2,471.3c-0.9,0-1.6,0.9-1.7,1.7c-0.2,0.8,0.3,1.5,1.1,1.5C-557.1,474.6-556.2,471.4-558.2,471.3
			c-0.4,0-1.1,1-0.5,1c0.4,0,0.7,0.4,0.7,0.8c0,0.1,0,0.3-0.1,0.5c-0.1,0.1,0,0,0,0c-0.1,0-0.2,0-0.2,0c-0.4,0-0.7-0.4-0.7-0.8
			c0-0.2,0-0.4,0.1-0.5c0.1-0.1,0.1,0,0,0c0.1,0,0.1,0,0.2,0C-558.4,472.3-557.7,471.3-558.2,471.3z"/>
	</g>
</g>
</svg>
