<?xml version="1.0" encoding="utf-8"?>
<!-- Generator: Adobe Illustrator 19.0.0, SVG Export Plug-In . SVG Version: 6.00 Build 0)  -->
<svg version="1.1" id="Layer_1" xmlns="http://www.w3.org/2000/svg" xmlns:xlink="http://www.w3.org/1999/xlink" x="0px" y="0px"
	 viewBox="-580 396.7 86 86" style="enable-background:new -580 396.7 86 86;" xml:space="preserve">
<style type="text/css">
	.st0{fill:#C62263;}
	.st1{fill:#62BA47;}
	.st2{fill:#FFFFFF;}
</style>
<circle class="st0" cx="-534.8" cy="435.6" r="38.9"/>
<circle class="st1" cx="-565.9" cy="470.2" r="12.2"/>
<path class="st2" d="M-503,445.2c0-0.6-1-0.5-1.3-0.4c0,0-0.2-0.2-0.3-0.8c-0.1-0.7,0-1.3,0.1-1.9c0.2-1.9,0.6-3.7,1.1-5.5
	c0,0,0-0.1,0-0.1c0.2-1.3-0.7-2.3-2.2-2.5c-1.4-0.2-2.7,0.5-3.5,1.4c-1.2,1.2-1.9,2.9-2.1,4.6c0,0,0,0,0,0.1c-0.4,2.3-1.1,2.1-1.2,2
	c-0.4-0.2-0.3-1.7-0.2-2.2c0.1-1.9,0.3-3.8,1-5.6c0.2-0.4,0.4-0.8,0.6-1.3c0.2-0.5,0-0.9-0.7-0.8c-0.7,0-1.4,0.4-1.7,0.9
	c-0.3,0.4-0.5,0.9-0.6,1.4c-0.3,0.6-0.7,1.2-1.2,1.7c-0.4,0.4-0.7,0.5-1.3,0.9c0,0-0.1,0.1-0.1,0.1c0.2-1.9,0.3-3.7,0.4-5.6
	c0.1-1.2-2.5-0.1-2.5,0.7c0,1.1-0.1,2.2-0.1,3.3c-0.2,0.7-0.4,1.4-0.6,2.1c-0.3,0.8-0.9,2-1.5,2.6l0,0c-0.2-0.6-0.2-1.2-0.2-1.8
	c0-1.1,0-2.2,0.1-3.2c0.1-0.6,0.1-1.1,0.2-1.6c0.1-0.4,0.1-0.9,0.2-1.3c0,0,0-0.1,0-0.1c0.1-1.3-1-2.1-2.6-2c-1.5,0.1-2.6,1-3.4,2
	c-1,1.4-1.5,3.2-1.5,4.9c-0.1,0.5-0.3,2-0.9,2.2c0,0-0.1-0.1-0.2-0.3c-0.2-0.5-0.2-1.1-0.2-1.7c0.1-2.3,0.4-4.9-0.5-7.1
	c-0.8-1.8-2.8-0.2-3.8,1c-0.2-0.6-0.4-1.2-0.9-1.6c-0.6-0.5-1.6-0.1-2.1,0.3c-0.4,0.3-0.7,0.6-1,1c0-0.3-0.1-0.6-0.1-0.9
	c-0.1-1.2-2.5,0.5-2.4,1.3c0.2,1.2,0.3,2.4,0.3,3.7c0.1,2-0.8,4.9-3.3,4.9c-0.5,0-0.9-0.6-1.2-1.1c0.7-0.9,1.3-1.9,1.8-2.8
	c1-1.6,1.8-3.9,0.6-5.4c-0.8-1-2.9,0-3.7,0.8c-1.1,1.2-1.5,2.8-1.6,4.2c-0.1,0.9-0.1,2.7,0.4,4.1c-0.2,0.2-0.4,0.3-0.5,0.5
	c0,0-0.1,0.1-0.1,0.1c0,0-0.1,0-0.2,0c-0.3-0.1-0.5-0.3-0.6-0.6c-0.5-0.7-0.7-1.7-0.9-2.5c-0.4-1.7-0.7-3.5-0.3-5.3
	c0.1-0.4-0.1-0.7-0.6-0.6c-0.7,0.2-1.3,0.9-1.5,1.4c0,0.1-0.1,0.2-0.1,0.3h0l0,0c-0.4,1-0.6,2.1-0.8,3.2c-0.4-1.2-0.9-2.7-0.5-4
	c0.1-0.4-0.1-0.7-0.6-0.6c-0.6,0.2-1.2,0.7-1.3,1.2c-0.8,2-0.7,4-0.6,6.3c0,0.9,0,2-0.2,3c-0.1,0-0.1,0-0.2,0
	c-0.5-0.2-0.7-1-0.9-1.5c0-0.1,0-0.1-0.1-0.2c0,0,0,0,0,0c-0.1-0.3-0.3-0.2-0.6-0.1c-0.1,0-0.1,0.1-0.2,0.1
	c-0.3,0.2-0.6,0.5-0.8,0.8c-0.2,0.3-0.3,0.6-0.4,0.9c0,0,0,0.1,0,0.1c-0.1,0.6-0.2,1.1-0.9,1.3c-0.3,0.1-0.7,0-1,0
	c-0.8-0.2-1.4-0.8-1.8-1.4c-1.1-1.9-1.6-3.8-1.8-6c-0.1-1-0.1-2.2,0.1-3.3c0.1-0.4,0.2-0.9,0.3-1.3c0-0.1,0.2-0.5,0.2-0.5
	c0-0.1,0.1-0.2,0.1-0.2c0,0,0,0,0-0.1c0,0,0,0,0-0.1c0,0,0-0.1,0-0.1c0,0,0,0,0.1-0.1c0,0,0.1-0.1,0.2-0.1c0.1-0.1,0.6-0.2,0.9-0.2
	c1.6-0.2,2.3,1.2,2.6,2.3c0.3,0.8,2.4-1.3,2.1-2.2c-0.5-1.4-1.4-2.9-3.5-2.7c-1.3,0.2-2.4,0.8-3.2,1.8c-1.9,2.3-2.3,5.5-2.1,8.4
	c0.2,2.6,0.9,5.4,2.8,7.3c0.6,0.7,1.6,1.1,2.6,0.9c1.2-0.2,2.1-1,2.8-2c0.6,0.8,1.4,1.2,2.6,0.3c1.1-0.8,1.6-2.2,1.8-3.4
	c0.3,0.8,0.5,1.7,0.7,2.5c0.3,1.2,2.2-0.8,2.1-1.6c-0.1-0.5-0.1-1,0-1.5c0.7,2.1,1.8,3.4,3.6,1.9c0.1,0,0.1-0.1,0.2-0.1
	c0.3-0.3,0.6-0.5,0.9-0.8c0.4,0.6,1,1.1,1.8,1.1c1.4,0,2.8-1,3.8-1.9c0.3-0.3,0.6-0.5,0.8-0.8c0,0.6,0,1.2,0.1,1.8
	c0.1,1.2,2.2-0.5,2.2-1.3c0.1-2.5,0.3-4.9,0.9-7.2c0-0.2,0.1-0.4,0.2-0.6c0,0,0,0.1,0,0.1c0.6,1.3,0.5,2.9,0.6,4.3c0,0.7,0,1.3,0,2
	c-0.1,0.9-0.1,1.7-0.1,2.5c0,1.2,2.2-0.4,2.3-1.2c0.1-0.9,0.1-1.9,0.1-2.8c0.2-1.7,0.5-3.5,1.2-5c0.1,0.2,0.1,0.4,0.1,0.5
	c0.3,1.2,0.4,2.6,0.4,3.8c-0.1,1.7-0.4,4.4,1.2,5c0.7,0.2,2-0.6,2.7-1.3c0.2,0.6,0.5,1.1,1.1,1.4c1.1,0.6,2.5,0,3.3-0.7
	c0.1,0.5,0.2,1,0.6,1.2c0.5,0.3,1.2,0.1,1.6-0.1c0.8-0.3,1.4-0.8,1.9-1.3c-0.1,0.5-0.1,1-0.2,1.5c-0.1,0.6,0.6,0.6,1,0.5
	c0.6-0.2,1.2-0.6,1.4-1.2c0.2-0.9,0.5-2,1.1-2.8c0.3-0.4,0.5-0.5,1.1-0.9c0,0,0.1,0,0.1-0.1c-0.2,1.5-0.4,3-0.3,4.5
	c0.1,1.4,1.1,1.8,2.4,1.5c0.6-0.1,1.1-0.3,1.5-0.6c0.1,0.6,0.4,1.1,0.8,1.5c0.9,0.8,2.4,0.5,3.2,0c0,0,0.1-0.1,0.1-0.1
	c0,0.4,0.1,0.8,0.3,1.2c0.5,1,1.8,0.9,2.6,0.6C-503.7,446.1-503,445.8-503,445.2z M-544.9,432.2
	C-544.9,432.3-544.9,432.3-544.9,432.2L-544.9,432.2z M-545.1,435.1c0-1,0.1-1.9,0.4-2.9c0,0,0,0,0,0c0.1,0,0.3,0.1,0.4,0.1
	c1.1,0.6,0.4,2.3,0.1,3.2c-0.2,0.5-0.5,1-0.7,1.5C-545.1,436.4-545.1,435.7-545.1,435.1z M-524.3,439.2c0,0.1-0.1,0.3-0.2,0.5
	c-0.1,0-0.2,0-0.4-0.1c-0.5-0.2-0.6-1-0.7-1.4c-0.4-1.5-0.2-3.3,0.3-4.8c0.2-0.4,0.5-1.2,0.8-1.4c0,0,0.2-0.1,0.5,0
	c0.6,0.1,0.9,0.5,0.8,1C-523.5,435.1-523.7,437.2-524.3,439.2z M-507.7,442.8c0,0.1-0.2,0.3-0.3,0.4c-0.1,0-0.2,0-0.3-0.1
	c-0.4-0.3-0.5-1.1-0.5-1.5c-0.2-1.6,0.2-3.3,0.9-4.7c0.2-0.4,0.7-1.1,0.9-1.3c0,0,0.1-0.1,0.5,0.1c0.6,0.2,0.8,0.7,0.7,1.1
	C-506.4,438.9-506.8,441-507.7,442.8z"/>
<g>
	<path class="st2" d="M-566,465.7c-1.9,0.2-2.5,2.5-2.7,4c-0.2,1.3-0.2,4.8,1.8,5c2,0.2,2.8-2.5,2.9-4c0.1-1.4,0.1-4.8-1.9-5
		c-0.6-0.1-1.6,1.3-1,1.4c1.1,0.1,1.4,1.7,1.5,2.5c0.1,0.6,0.3,3.4-0.4,3.7c-1.1,0.5-1.5-2-1.5-2.5c-0.1-0.6-0.1-3.7,0.6-3.8
		C-566.2,467-565.2,465.6-566,465.7z"/>
	<path class="st2" d="M-573.6,467.9c0.6-1.4,1.6-0.5,2,0.2c0.5,1-0.1,2.1-0.7,2.9c-0.5,0.7-1.2,1.3-1.9,1.7
		c-0.4,0.2-0.7,0.4-0.9,0.8c-0.1,0.1-0.2,0.4,0,0.6c0.5,0.4,1.6,0.4,2.2,0.4c1.1,0.1,2.3,0,3.3-0.5c0.6-0.3,1.1-1.7,0.1-1.2
		c-0.8,0.4-1.8,0.3-2.6,0.3c-0.4,0-1.4,0-1.7-0.3c0,0.2,0,0.4,0,0.6c-0.5,0.8-0.2,0.4,0.2,0.1c0.3-0.2,0.6-0.5,0.9-0.7
		c0.5-0.5,1-1,1.5-1.6c0.9-1.1,1.5-2.4,1.2-3.9c-0.6-3.2-4.1-0.9-4.8,0.9C-575.3,469.3-573.8,468.4-573.6,467.9L-573.6,467.9z"/>
	<g>
		<path class="st2" d="M-557.2,466.7c-1.5,2.5-3.4,4.8-5.2,7.2c-0.8,1,0.5,1,1,0.3c1.8-2.5,3.8-4.9,5.4-7.6
			C-555.3,465.6-556.9,466.1-557.2,466.7L-557.2,466.7z"/>
		<path class="st2" d="M-560,466c-0.9,0-1.6,0.9-1.8,1.8c-0.2,0.8,0.3,1.5,1.1,1.5C-558.9,469.4-558,466.1-560,466
			c-0.4,0-1.1,1-0.5,1c0.4,0,0.7,0.4,0.7,0.8c0,0.2,0,0.4-0.1,0.5c-0.1,0.1,0,0,0,0c-0.1,0-0.2,0-0.2,0c-0.4,0-0.7-0.4-0.7-0.8
			c0-0.2,0-0.4,0.1-0.5c0.1-0.1,0.1,0,0,0c0.1,0,0.1,0,0.2,0C-560.1,467-559.4,466-560,466z"/>
		<path class="st2" d="M-557.4,471.4c-0.9,0-1.6,0.9-1.8,1.8c-0.2,0.8,0.3,1.5,1.1,1.5C-556.2,474.7-555.4,471.5-557.4,471.4
			c-0.4,0-1.1,1-0.5,1c0.4,0,0.7,0.4,0.7,0.8c0,0.2,0,0.4-0.1,0.5c-0.1,0.1,0,0,0,0c-0.1,0-0.2,0-0.2,0c-0.4,0-0.7-0.4-0.7-0.8
			c0-0.2,0-0.4,0.1-0.5c0.1-0.1,0.1,0,0,0c0.1,0,0.1,0,0.2,0C-557.5,472.3-556.8,471.3-557.4,471.4z"/>
	</g>
</g>
</svg>
