<?xml version="1.0" encoding="utf-8"?>
<!-- Generator: Adobe Illustrator 19.0.0, SVG Export Plug-In . SVG Version: 6.00 Build 0)  -->
<svg version="1.1" id="Layer_1" xmlns="http://www.w3.org/2000/svg" xmlns:xlink="http://www.w3.org/1999/xlink" x="0px" y="0px"
	 viewBox="0 0 86 86" style="enable-background:new 0 0 86 86;" xml:space="preserve">
<style type="text/css">
	.st0{fill:#AA4A47;}
	.st1{fill:#62BA47;}
	.st2{fill:#FFFFFF;}
</style>
<circle id="XMLID_117_" class="st0" cx="45.2" cy="39" r="39"/>
<circle id="XMLID_116_" class="st1" cx="14" cy="73.7" r="12.3"/>
<g id="XMLID_145_">
	<path id="XMLID_115_" class="st2" d="M5.5,71.7c0.2-0.6,1-0.7,1.4-0.4c0.7,0.5-0.3,1.2-0.6,1.5c-0.4,0.3-1,0.9-0.8,1.4
		c0.1,0.4,1.2,0.4,1.5,0.5c0.6,0.1,0.8,0.4,0.7,1.1c-0.3,1.1-1.6,0.4-2,0c-0.3-0.3-1.3,0.6-1,1c1.3,1.3,3.1,0.4,3.9-1
		c0.3-0.5,0.4-1.4,0-1.9c-0.4-0.4-1.3-0.3-1.8-0.4c-0.1-0.1-0.2,0-0.2,0.2C6.7,73.4,7,73.2,7.3,73c0.3-0.3,0.6-0.5,0.8-0.9
		c0.3-0.6,0.4-1.5-0.2-1.9c-1.3-0.9-2.9,0.7-3.3,1.8C4.2,72.8,5.4,72.1,5.5,71.7L5.5,71.7z"/>
	<path id="XMLID_114_" class="st2" d="M12.1,76.1c1,3,5.5,0.9,4.8-1.8c-0.4-1.3-1.9-1.2-3-1.5c-0.6-0.2-0.6-0.7-0.6-1.2
		c0.2-0.6,0.2-0.7-0.2-0.3c0.2-0.1,0.3-0.1,0.5-0.1c0.9-0.2,1.9-0.1,2.8,0.3c0.4,0.2,1.3-0.8,0.8-1.1c-1.1-0.5-2.4-0.5-3.6-0.2
		c-1.1,0.3-1.4,1.3-1.4,2.3c-0.1,1.3,1.2,1.5,2.2,1.6c0.8,0.1,1.4,0.3,1.5,1.2c0.1,1.4-1.3,1.2-2,0.8c-0.3-0.2-0.5-0.6-0.6-0.9
		C13,74.8,11.9,75.6,12.1,76.1L12.1,76.1z"/>
	<g id="XMLID_147_">
		<path id="XMLID_113_" class="st2" d="M22.5,70.6c-1.3,2.1-2.9,4.1-4.3,6c-0.6,0.9,0.4,0.8,0.8,0.2c1.6-2.1,3.2-4.1,4.6-6.4
			C24.1,69.7,22.8,70.2,22.5,70.6L22.5,70.6z"/>
		<path id="XMLID_112_" class="st2" d="M20.2,70.1c-0.8,0-1.3,0.8-1.5,1.5c-0.1,0.7,0.3,1.3,1,1.3C21.2,72.9,21.9,70.1,20.2,70.1
			c-0.3,0-0.9,0.8-0.5,0.8c0.4,0,0.6,0.3,0.6,0.7c0,0.1,0,0.3,0,0.4c0,0.1,0,0,0,0c-0.1,0-0.1,0-0.2,0c-0.4,0-0.6-0.3-0.6-0.6
			c0-0.1,0-0.3,0.1-0.4c0-0.1,0.1,0,0,0c0.1,0,0.1,0,0.2,0C20.1,70.9,20.7,70.1,20.2,70.1z"/>
		<path id="XMLID_111_" class="st2" d="M22.4,74.6c-0.8,0-1.3,0.8-1.5,1.5c-0.1,0.7,0.3,1.3,1,1.3C23.4,77.4,24.1,74.6,22.4,74.6
			c-0.3,0-0.9,0.8-0.5,0.8c0.4,0,0.6,0.3,0.6,0.7c0,0.1,0,0.3,0,0.4c0,0.1,0,0,0,0c-0.1,0-0.1,0-0.2,0c-0.4,0-0.6-0.3-0.6-0.6
			c0-0.1,0-0.3,0.1-0.4c0-0.1,0.1,0,0,0c0.1,0,0.1,0,0.2,0C22.3,75.4,22.9,74.6,22.4,74.6z"/>
	</g>
	<path id="XMLID_110_" class="st2" d="M9.9,78.8c0.6-0.5,0.9-1.2,1-2c0-0.2,0-0.5-0.2-0.7c-0.3-0.3-0.7,0-1,0.1
		c-0.3,0.1-0.6,0.5-0.7,0.9c0,0.4,0.4,0.3,0.6,0.2c0,0,0.1,0,0,0c0,0,0,0,0,0c0.1,0.1,0,0.2,0,0.3c0,0.2-0.1,0.3-0.2,0.4
		c0,0,0,0.1-0.1,0.1c0-0.1,0-0.1,0,0c0,0-0.1,0.1-0.1,0.1c0.1-0.2,0,0,0,0c-0.2,0.2-0.5,0.6-0.3,0.8C9.3,79.3,9.7,79,9.9,78.8
		L9.9,78.8z"/>
</g>
<g id="XMLID_119_">
	<g id="XMLID_136_">
		<path id="XMLID_137_" class="st2" d="M67.7,47.8c-0.1,0-0.1-0.1-0.2-0.1c-0.1,0-0.1,0-0.2,0c-2.9-0.8-4.5,2.4-5.2,4.2
			c-0.1,0.3-0.3,0.8-0.4,1.3c0,0,0,0,0,0c-0.3,0.5-0.6,1.1-1.1,1.5c-0.1,0.1,0,0.1-0.1,0.1c-0.6-0.2-0.3-1-0.2-1.5
			c0.1-0.8,0.3-1.7-0.2-2.5c-0.3-0.6-1-0.8-1.7-0.7c0-0.1,0.1-0.2,0.2-0.3c0.1-0.1,0.1-0.3,0.2-0.4c0.4-0.6,0.8-1.3,1.4-1.7
			c0,0,0,0,0,0c0,0,0,0,0,0c0.3,0.1,0.6,0.4,0.7,0.5c0.7,0.7,3-0.4,2.4-1.1c-0.8-1-1.8-1.2-2.8-1c-0.7,0.1-1.3,0.4-1.9,0.8
			c-0.1,0.1-0.2,0.1-0.3,0.2c0.2-1.1,0.2-2.2,0.1-3.3c0-0.2-0.2-0.3-0.5-0.3c-0.1,0-0.1,0-0.2,0c-0.7,0-1.3,0.4-1.7,0.9
			c-0.5,0.6-0.8,1.2-1.7,0.9c-0.4-0.1-0.7-0.3-1-0.6c-0.1-0.1-0.2-0.1-0.3-0.1c-0.2-0.1-0.4-0.2-0.7-0.3c-0.1,0-0.1,0-0.3-0.1
			c-0.1,0-0.1,0-0.2,0c-2.9,0-3.8,3.5-3.9,5.3c0,0,0,0.1,0,0.1c-0.3,0.7-0.5,1.4-0.8,2.1c-0.1,0.3-0.2,0.6-0.4,0.8
			c-0.1,0-0.2,0.1-0.3,0.1c-0.2-0.1-0.3-0.4-0.4-0.6c-0.3-0.6-0.4-1.4-0.5-2c-0.3-1.9-0.4-3.9-0.4-5.8c0-0.4-0.4-0.5-0.8-0.4
			c-0.7,0.2-1.2,0.7-1.4,1.2c-0.8,1.8-1,3.7-1.1,5.6c0,0.5-0.1,1-0.1,1.6c0,0.2,0,0.4,0,0.6c-0.4,0-0.7-0.4-0.8-0.7
			c-0.1-0.7-0.9-0.3-1.4,0.2c0.3-1,0.3-2,0.2-3c-0.1-1.5-0.5-4.9-2.9-4.9c-0.1,0-0.2,0-0.3,0c-0.1,0-0.1,0-0.2,0
			c-2.8,0.7-2.8,4.3-2.6,6.1c0,0.2,0.1,0.4,0.1,0.6c0,0.4,0,0.7,0,1.1c0,0.5,0,0.9-0.1,1.4c0,0.1,0,0.1,0,0.2c0,0-0.1,0-0.1,0
			c-0.3-0.1-0.4-0.3-0.6-0.5c-0.5-0.6-0.8-1.4-1.1-2.2c-0.5-1.4-1-3.2-0.8-4.7c0-0.3-0.1-0.7-0.6-0.5c-0.6,0.2-1.2,0.8-1.3,1.4
			c0,0.1,0,0.2-0.1,0.3l0,0c0,0,0,0,0,0c-0.2,1-0.3,1.9-0.3,2.9c-0.5-1.1-1.2-2.3-1-3.5c0.1-0.3-0.2-0.7-0.6-0.5
			c-0.5,0.2-1,0.7-1.1,1.1c-0.7,1.8,0,3.9,0.3,5.6c0.1,0.9,0.3,1.8,0.3,2.7c-0.1,0-0.1,0-0.2,0c-0.6-0.2-0.9-1-1.2-1.5
			c-0.2-0.5-1,0.3-1.1,0.5c-0.3,0.5-0.5,1.1-0.3,1.5c0.6,1.2,1.9,2.5,3.2,1.2c0.8-0.8,1-2,1.1-3.1c0.4,0.7,0.7,1.4,1,2.2
			c0.4,1.1,1.8-0.9,1.6-1.5c-0.1-0.4-0.2-0.9-0.2-1.4c0.9,1.8,2,2.9,3.4,1.6c0.4-0.3,0.7-0.8,0.8-1.3c0.5,0.8,1.2,1.4,2.1,1.3
			c0.9-0.1,1.6-0.9,2-1.8c0.2,0.7,0.7,1.3,1.5,1.3c1.1,0,2-0.8,2.6-1.6c0.2-0.4,0.4-0.8,0.5-1.2c0,0.2,0.1,0.4,0.1,0.6
			c0.2,0.6,0.4,1.4,0.9,1.8c0.6,0.5,1.4,0.1,1.9-0.3c0.1-0.1,0.3-0.2,0.5-0.4c0.4-0.3,0.7-0.8,1-1.3c0.2,1.2,0.7,2.3,1.9,2.5
			c1.1,0.1,2.3-0.9,2.8-1.7c0.7-1,1.1-2.2,1.3-3.4c0.1-0.6,0.3-1.7,0.2-2.7c0.7-0.1,1.3-0.4,1.8-0.7c0,2.9-1,5.8-1.5,8.7
			c-0.1,0.5,0.5,0.5,0.8,0.4c0.5-0.2,1.1-0.6,1.3-1.1c0.3-0.9,0.6-1.8,1-2.7c1.1,0.5-0.1,3.4,0.6,4.2c0.7,0.7,1.7,0.5,2.5,0.2
			c0.3-0.1,0.5-0.2,0.8-0.4c0.1,0.9,0.4,1.6,1.3,1.9c1.1,0.4,2.4-0.3,3.2-1c0.9-0.8,1.6-1.9,2.1-3C68.6,52.1,69.9,48.9,67.7,47.8z
			 M37.7,53.5C37.7,53.5,37.7,53.5,37.7,53.5L37.7,53.5z M37.9,52.5c0,0.2-0.1,0.5-0.1,0.7c-0.4,0-0.8-0.7-1-1
			c-0.4-0.7-0.7-1.6-0.8-2.4c-0.2-0.9-0.2-1.8-0.1-2.7c0-0.2,0.1-0.5,0.1-0.7c1.2,0.2,1.7,2.7,1.8,3.4C37.9,50.7,38,51.6,37.9,52.5z
			 M51,53.2C50.9,53.2,50.9,53.2,51,53.2L51,53.2z M51.4,52.3c-0.1,0.2-0.2,0.5-0.3,0.6c-0.4-0.1-0.6-0.9-0.7-1.2
			c-0.2-0.8-0.3-1.7-0.2-2.6c0-0.9,0.2-1.8,0.5-2.6c0.1-0.2,0.2-0.4,0.3-0.6c0,0,0.1,0,0.1,0.1c0,0,0,0,0.1,0.1
			c0.1,0.1,0.1,0.1,0.2,0.2c0.7,0.8,0.6,2.9,0.6,3.5C51.9,50.6,51.7,51.5,51.4,52.3z M64.1,56.2C64.1,56.2,64.1,56.2,64.1,56.2
			L64.1,56.2z M64.8,55.4c-0.1,0.2-0.3,0.4-0.4,0.6c-0.4-0.2-0.4-1-0.4-1.4c0-0.9,0.2-1.7,0.4-2.5c0.3-0.8,0.6-1.7,1.1-2.4
			c0.1-0.2,0.3-0.4,0.4-0.5c1,0.7,0.3,3.2,0,3.9C65.6,53.8,65.3,54.7,64.8,55.4z"/>
	</g>
	<g id="XMLID_120_">
		<g id="XMLID_121_">
			<path id="XMLID_132_" class="st2" d="M30.5,29c-0.1,0-0.1,0-0.2,0c0,0-0.1,0-0.2,0c-2.6,0.8-2.4,4.3-2,6.2c0,0,0,0,0,0
				c0,1,0,2-0.1,3c0,0.2-0.1,0.3-0.1,0.5c-0.9,0.2-1.3-2.4-1.4-2.9c-0.4-1.8-0.8-3.6-1.4-5.4c-0.4-1.3-0.9-2.9-2-3.8
				c-0.9-0.7-2-0.2-2.8,0.6c-0.4,0.5-0.7,1-0.8,1.5c-0.7-0.9-1.6-1.5-2.9-0.6c-0.5,0.4-0.9,0.8-1.2,1.3c-0.2-0.4-0.4-0.9-0.7-1.2
				c-0.8-0.6-2.3,1.7-1.6,2.2c0.5,0.3,0.7,1,0.9,1.4c0.5,1,0.9,2.1,1.3,3.2c0.2,0.6,0.4,1.1,0.6,1.7c0.7,2.3,1.7,4.6,2.5,6.8
				c0.1,0.2,0.2,0.3,0.4,0.3c0.5-0.1,1.3-1.4,1.1-2c-0.7-2-1.4-4-2-5.9c-0.3-0.8-0.5-1.7-0.7-2.6c-0.2-0.9-0.4-1.9-0.4-2.9
				c0-0.1,0-0.3,0-0.4c1.4-0.5,2.4,2.6,2.6,3.3c0.5,1.2,0.9,2.4,1.2,3.6c0.5,1.7,1.1,3.5,1.6,5.2c0.1,0.2,0.2,0.3,0.3,0.3
				c0.5-0.1,1.3-1.3,1.1-1.9c-0.5-1.8-1.1-3.7-1.6-5.5c-0.1-0.3-0.2-0.6-0.2-0.9c-0.4-1.5-0.7-3.1-0.7-4.7c0-0.2,0-0.5,0.1-0.8
				c0.1,0,0.2,0.1,0.3,0.1c0.5,0.2,0.8,0.9,1.1,1.3c0.4,0.7,0.7,1.5,1,2.3c0.6,1.7,1.1,3.5,1.5,5.2c0.3,1.1,0.5,2.6,1.5,3.3
				c1.1,0.7,2.2-0.8,2.6-1.7c0.1-0.1,0.1-0.3,0.2-0.5c0.5,0.8,1.2,1.4,2.1,1.2c1.1-0.2,1.8-1.5,2.1-2.5c0.3-1.2,0.3-2.4,0.2-3.6
				C33.4,32.3,32.7,28.9,30.5,29z M31.8,38C31.7,38.1,31.7,38.1,31.8,38L31.8,38z M31.9,37.1c0,0.2,0,0.5-0.1,0.7
				c-0.4,0-0.8-0.7-1-1c-0.4-0.7-0.7-1.6-0.9-2.4c0-0.2-0.1-0.4-0.1-0.6c0,0,0,0,0,0c0-0.1,0-0.1,0-0.2c-0.1-0.6-0.2-1.2-0.1-1.9
				c0-0.2,0-0.5,0.1-0.7c1.1,0.1,1.7,2.6,1.9,3.4C31.9,35.3,32,36.2,31.9,37.1z"/>
			<path id="XMLID_127_" class="st2" d="M67.1,30.6c-0.1,0-0.1-0.1-0.2-0.1c0,0-0.1,0-0.2,0c-2.6-0.5-4,2.8-4.5,4.6
				c-0.1,0.4-0.2,0.8-0.3,1.3c0,0,0,0,0,0C61.7,37,61.5,37.6,61,38c-0.1,0.1-0.4,0.1-0.4,0.1s-0.1-1.5-0.1-2c0.1-1.6,0.5-3.5,1.1-5
				c0.2-0.4,0.4-0.8,0.6-1.2c0.2-0.4,0.1-0.8-0.5-0.7c-0.6,0-1.2,0.4-1.5,0.9c-0.2,0.4-0.4,0.8-0.6,1.3C59.3,32,59,32.5,58.5,33
				c-0.4,0.4-0.6,0.5-1.1,0.9c0,0,0,0,0,0c0.2-1.6,0.4-3.3,0.6-4.9c0.1-1.1-2.2,0-2.3,0.7c-0.1,1-0.2,2.1-0.3,3.1c0,0,0,0,0,0.1
				c-0.2,1.2-0.7,2.4-1.7,3.2c-0.5,0.4-1.4,0.9-2,0.7c-0.5-0.1-0.8-0.6-1-1.2c0.6-0.5,1.1-1.1,1.6-1.7c1-1.2,2.6-3.3,1.7-5
				c-0.6-1.1-2.1-1-3-0.4c-1.2,0.8-1.8,2.1-2.1,3.4c-0.3,1.2-0.4,2.6-0.2,3.9c-0.3,0.2-0.8,0.7-1,0.7l0,0c0,0-0.1,0-0.1,0.1
				c-0.2-0.1-0.2-0.3-0.3-0.5c-0.3-0.6-0.4-1.3-0.5-2c-0.3-2-0.3-4-0.2-6c0-0.4-0.3-0.5-0.7-0.4c-0.6,0.2-1.1,0.7-1.3,1.2
				c-0.6,1.4-0.9,2.9-1.1,4.4c-0.1,0.8-0.1,1.6-0.2,2.4c-0.3-0.4-1.1,0.2-1.5,0.8c-0.1-0.1-0.2-0.3-0.3-0.5c-0.4-1-0.3-2.1-0.3-3.2
				c0-1-0.1-2-0.3-3c-0.1-0.7-0.4-1.6-1.1-1.9c-1.4-0.6-2.6,0.8-3.2,2c-0.1-0.6-0.3-1.1-0.5-1.6c-0.3-0.8-2.2,0.9-1.9,1.7
				c0.5,1.2,0.6,2.6,0.8,3.9c0.2,1.6,0.4,3.2,0.6,4.9c0.2,1.1,1.9-0.5,1.8-1.3c-0.2-2.4-0.3-5.2,0.7-7.5c0,0,0,0,0,0
				c0.1,0.1,0.3,0.2,0.3,0.3c0.5,0.7,0.6,1.8,0.7,2.6c0.2,1.7-0.2,4,1,5.4c0.5,0.7,1.3,0.4,1.9-0.1c0.3,0.4,0.8,0.5,1.4,0.2
				c0.9-0.5,1.3-1.4,1.5-2.4c0,0.1,0.1,0.3,0.1,0.4c0.1,0.7,0.3,1.5,0.9,2c0.5,0.5,1.3,0.1,1.8-0.3c0.4-0.3,0.8-0.5,1.2-0.8
				c0.2,0.7,0.6,1.2,1.2,1.4c1.2,0.4,2.8-0.4,3.8-1.1c0.4-0.3,0.7-0.5,1.1-0.8c-0.1,0.7-0.2,1.3-0.3,2c-0.1,0.5,0.5,0.5,0.8,0.4
				c0.5-0.2,1.1-0.6,1.2-1.1c0.2-0.9,0.5-1.8,1-2.5c0.3-0.4,0.5-0.5,1-0.8c0,0,0.1,0,0.1-0.1c-0.3,1.3-0.5,2.7-0.4,4
				c0.1,1.3,0.9,1.5,2,1.2c0.5-0.1,1-0.4,1.5-0.7c0.1,0.8,0.5,1.5,1.3,1.7c1,0.3,2.2-0.5,2.9-1.3c0.8-0.9,1.3-2,1.7-3.2
				C68.2,34.8,69.1,31.5,67.1,30.6z M50.6,32.3c0.1-0.8,0.3-1.8,0.7-2.5c0,0,0,0,0,0c0.2,0.1,0.3,0.2,0.5,0.3c0.8,1-0.5,2.7-1,3.4
				c-0.1,0.1-0.2,0.3-0.3,0.4C50.5,33.2,50.5,32.6,50.6,32.3z M64.2,39.3C64.2,39.3,64.2,39.3,64.2,39.3L64.2,39.3z M64.8,38.5
				c-0.1,0.2-0.2,0.4-0.4,0.6c-0.4-0.2-0.4-1-0.5-1.3c-0.1-0.9,0.1-1.7,0.3-2.6c0.2-0.9,0.5-1.7,0.9-2.5c0.1-0.2,0.2-0.4,0.4-0.6
				c0.9,0.6,0.4,3.2,0.2,3.9C65.5,36.8,65.2,37.7,64.8,38.5z"/>
			<path id="XMLID_124_" class="st2" d="M73.5,41.2c-0.2-0.5-1.1-0.2-1.4-0.1c-0.5,0.2-1.5,0.3-1.9-0.2c-0.3-0.3-0.3-0.8-0.3-1.2
				c1.5-0.8,3-1.9,4.1-3.2c0.6-0.7,1.2-1.9,0.7-2.9c-1.2-2.1-4.2-0.2-5,0.9c-1.2,1.5-2,3.8-2,5.8c0,0.7,0.2,1.5,0.8,2
				c1.1,0.8,3,0.3,4.2-0.1C72.9,42.1,73.7,41.6,73.5,41.2z M71.2,35.3c0.2-0.3,0.6-0.8,0.8-1c0.1,0.1,0.2,0.2,0.3,0.3
				c0.4,0.7-0.2,1.4-0.5,1.9c-0.5,0.6-1.1,1.1-1.7,1.6C70.3,37.1,70.7,36.2,71.2,35.3z"/>
			<path id="XMLID_7_" class="st2" d="M50,26.8c0.5,0.2,1.2-0.3,1.6-0.6c0.5-0.5,0.9-1.1,1-1.8c0.1-0.5-0.6-0.5-1-0.4
				c-0.5,0.2-1.2,0.7-1.2,1.2c0,0,0,0.1,0,0.1c0,0,0,0,0,0c0,0,0,0,0,0c0,0-0.1,0.2-0.1,0.2c0,0-0.1,0.1-0.1,0.1c0,0,0,0.1-0.1,0.1
				C49.8,26.1,49.5,26.6,50,26.8z"/>
			<path id="XMLID_1_" class="st2" d="M53.1,26.5c0.7,0,1.2-0.4,1.6-0.8c0.4-0.4,0.6-0.9,0.7-1.4c0.1-0.5-0.6-0.5-1-0.4
				c-0.6,0.2-1.2,0.6-1.3,1.2c0,0,0,0.1,0,0.1c0,0,0,0,0,0c0,0,0,0,0,0c0,0.1-0.1,0.1-0.1,0.2c0,0-0.1,0.1-0.1,0.2
				C52.6,25.9,52.5,26.5,53.1,26.5z"/>
		</g>
	</g>
</g>
</svg>
