<?xml version="1.0" encoding="utf-8"?>
<!-- Generator: Adobe Illustrator 19.0.0, SVG Export Plug-In . SVG Version: 6.00 Build 0)  -->
<svg version="1.1" id="Layer_1" xmlns="http://www.w3.org/2000/svg" xmlns:xlink="http://www.w3.org/1999/xlink" x="0px" y="0px"
	 viewBox="-580 396.7 86 86" style="enable-background:new -580 396.7 86 86;" xml:space="preserve">
<style type="text/css">
	.st0{fill:#5C308F;}
	.st1{fill:#62BA47;}
	.st2{fill:#FFFFFF;}
</style>
<circle class="st0" cx="-534.8" cy="435.8" r="39"/>
<g>
	<circle class="st1" cx="-566" cy="470.5" r="12.3"/>
	<g>
		<path class="st2" d="M-560.5,467c-1.5,2.5-3.4,4.8-5.1,7.1c-0.8,1,0.5,1,1,0.3c1.8-2.4,3.8-4.9,5.3-7.5
			C-558.6,465.9-560.1,466.4-560.5,467L-560.5,467z"/>
		<path class="st2" d="M-563.2,466.3c-0.9,0-1.6,0.9-1.7,1.7c-0.2,0.8,0.3,1.5,1.1,1.5C-562.1,469.6-561.2,466.4-563.2,466.3
			c-0.4,0-1.1,1-0.5,1c0.4,0,0.7,0.4,0.7,0.8c0,0.1,0,0.3-0.1,0.5c-0.1,0.1,0,0,0,0c-0.1,0-0.2,0-0.2,0c-0.4,0-0.7-0.4-0.7-0.8
			c0-0.2,0-0.4,0.1-0.5c0.1-0.1,0.1,0,0,0c0.1,0,0.1,0,0.2,0C-563.3,467.3-562.6,466.3-563.2,466.3z"/>
		<path class="st2" d="M-560.6,471.6c-0.9,0-1.6,0.9-1.7,1.7c-0.2,0.8,0.3,1.5,1.1,1.5C-559.5,474.9-558.6,471.7-560.6,471.6
			c-0.4,0-1.1,1-0.5,1c0.4,0,0.7,0.4,0.7,0.8c0,0.1,0,0.3-0.1,0.5c-0.1,0.1,0,0,0,0c-0.1,0-0.2,0-0.2,0c-0.4,0-0.7-0.4-0.7-0.8
			c0-0.2,0-0.4,0.1-0.5c0.1-0.1,0.1,0,0,0c0.1,0,0.1,0,0.2,0C-560.7,472.6-560,471.6-560.6,471.6z"/>
	</g>
	<path class="st2" d="M-570.1,469.8c-0.6-0.3-2-1.6-1-2.3c0.4-0.3,1-0.2,1.4,0c1.1,0.3,0.3,1.3-0.2,1.7c-0.3,0.2-2.1,1.7-1.3,2.3
		c0.9,0.7,2.7-0.1,2.7,1.5c0,1.1-1.7,1.1-2.3,0.7c-1.1-0.7-1-1.7,0.2-2.5c0.5-0.3,1.1-1.8,0.1-1.2c-1.2,0.7-2.5,1.7-2.5,3.2
		c0,0.9,0.9,2,1.9,2.1c1.4,0.1,2.8-0.8,3.6-1.9c0.7-1.1,0.6-2.5-0.7-2.8c-0.4-0.1-1.5-0.4-1.8-0.1c0.5-0.6,1.3-1,1.8-1.7
		c1-1.3,0.6-2.6-1-2.8c-1.3-0.2-2.6,0.8-3.2,1.9c-0.8,1.4,0.1,2.7,1.3,3.4C-570.7,471.4-569.5,470.1-570.1,469.8L-570.1,469.8z"/>
</g>
<g>
	<g>
		<g>
			<path class="st2" d="M-535.3,424.5c0,0-0.1,0-0.2,0c0,0-0.1,0-0.1,0c-2.2,0.2-2.8,3.2-2.8,4.8c0,1.4,0.3,4.4,2.2,4.4
				c1,0,1.8-1,2.2-1.8c0.5-0.9,0.6-2,0.7-3C-533.2,427.6-533.4,424.7-535.3,424.5z M-535,431.4c0,0.2-0.1,0.3-0.1,0.5
				c0,0-0.1,0.1-0.1,0.2c0,0,0,0,0,0c-1.1,0.1-1.4-2.3-1.4-3c-0.1-0.7,0-1.5,0.1-2.2c0.1-0.2,0.1-0.5,0.2-0.7c1.1,0.1,1.4,2.3,1.4,3
				C-534.8,429.9-534.9,430.7-535,431.4z"/>
			<path class="st2" d="M-540.7,425c-0.7-0.3-1.5,0.1-2.1,0.5c-0.1-0.5-0.3-1.1-0.4-1.6c-0.1-0.4-0.9,0-1.1,0.2
				c-0.2,0.2-0.5,0.5-0.6,0.7c0,0.1,0,0.1,0,0.2c-0.1,0.4-0.1,0.7-0.3,1c-0.1,0.1,0,0.1-0.1,0.1c-0.4,0.2-1.1-0.1-1.5-0.2
				c0,0,0,0,0,0c-0.3-0.1-0.6-0.2-0.9-0.2c-0.1,0-0.1,0-0.2,0c0,0-0.1,0-0.1,0c-2.4,0.6-2.4,3.6-2.2,5.2c0.2,1.4,0.9,4.3,3,4
				c1-0.2,1.8-1.3,2.1-2.1c0.4-1,0.4-2,0.3-3c-0.1-0.6-0.2-1.5-0.5-2.3c0.3-0.2,0.7-0.4,1-0.7c0.5,2.1,0.8,4.3,1.1,6.5
				c0.2,2,0.4,4,0.5,6c0,0.5,0.5,0.3,0.8,0.1c0.4-0.3,0.7-0.7,0.7-1.2c0-1.4-0.1-2.8-0.2-4.2c0.6-0.1,1.2-0.4,1.7-1
				c1.1-1.2,1.2-3.1,1-4.6C-539.2,427.4-539.5,425.5-540.7,425z M-546.5,432.5c0,0.2,0,0.3-0.1,0.5c0,0,0,0.1-0.1,0.2c0,0,0,0,0,0
				c-1.2,0.3-1.8-2.1-1.9-2.8c-0.2-0.7-0.2-1.5-0.2-2.2c0-0.2,0.1-0.5,0.1-0.7c0.1,0,0.2,0,0.3,0c0,0,0.1,0.1,0.1,0.1
				c0.1,0,0.2,0.1,0.3,0.1c0.8,0.5,1.2,2,1.3,2.6C-546.5,431-546.5,431.8-546.5,432.5z M-542.3,426.5
				C-542.3,426.5-542.3,426.5-542.3,426.5L-542.3,426.5z M-540.7,432.4C-540.7,432.4-540.7,432.4-540.7,432.4L-540.7,432.4z
				 M-540.7,432.3c0,0,0,0.1-0.1,0.1c0,0,0,0,0,0c-0.6,0.1-1-0.4-1.1-1c0-0.1,0-0.1,0-0.2c-0.1-1.2-0.3-2.4-0.4-3.5c0,0,0,0,0-0.1
				c0-0.4-0.1-0.7,0-1.1c0,0,0,0,0,0c0,0,0,0,0,0c0.2-0.1,0.5,0.1,0.7,0.3c0.6,0.6,0.9,1.7,1,2.5
				C-540.5,430.3-540.4,431.4-540.7,432.3z"/>
			<path class="st2" d="M-553.4,429c0.2-0.8,0.3-1.6,0.4-2.4c0.2-1.3,0.4-3-0.4-4.2c-0.8-1.1-2.3-0.1-2.9,0.8
				c-0.9,1.4-0.8,3.1-0.7,4.6c0.2,1.8,0.6,3.4,1.3,5.1c-0.2,0.8-0.3,1.7-0.6,2.5c0,0.1-0.1,0.1-0.1,0.2c-0.1-0.1-0.2-0.2-0.2-0.3
				c-0.2-0.3-0.3-0.6-0.4-0.9c-0.9-2.5-1.3-5.2-2.6-7.6c-0.4-0.8-1.2-1.9-2.4-1.3c-0.9,0.4-1.3,1.2-1.6,2.1
				c-0.6-0.7-1.4-1.2-2.5-0.4c-0.5,0.3-0.8,0.7-1,1.1c-0.2-0.4-0.3-0.8-0.7-1c-0.7-0.5-2,1.5-1.4,1.9c0.4,0.2,0.6,0.8,0.8,1.2
				c0.4,0.9,0.8,1.8,1.1,2.7c0.2,0.5,0.4,0.9,0.6,1.4c0.6,2,1.5,3.9,2.3,5.7c0.1,0.2,0.2,0.2,0.3,0.2c0.5-0.1,1.1-1.3,1-1.7
				c-0.6-1.7-1.3-3.3-1.9-5c-0.2-0.7-0.5-1.5-0.7-2.2c-0.2-0.8-0.4-1.6-0.4-2.4c0-0.1,0-0.3,0-0.3c1.2-0.4,2.1,2.2,2.3,2.7
				c0.4,1,0.8,1.9,1.1,2.9c0.5,1.5,1,3,1.5,4.4c0.1,0.2,0.2,0.3,0.3,0.2c0.4-0.1,1.1-1.2,0.9-1.7c-0.5-1.6-1-3.1-1.5-4.7
				c-0.1-0.4-0.2-0.8-0.3-1.1c-0.4-1.3-0.7-2.7-0.6-4.1c0,0,0-0.1,0-0.1c0.3,0,0.6,0.3,0.8,0.5c1.1,1.2,1.6,3,2.1,4.5
				c0.3,1,0.6,2.1,1,3.1c0.2,0.6,0.5,1.4,0.9,1.9c0.6,0.6,1.2,0.1,1.7-0.5c0.4-0.6,0.7-1.3,1-2c0.4,0.9,1.1,1.8,1.9,1.6
				c1.3-0.3,2-1.8,2.2-3c0.2-1.3,0-3.7-1.4-4.4C-552.7,428.7-553.1,428.8-553.4,429z M-555.4,427.3c-0.2-1.1-0.3-2.4,0.1-3.6
				c0,0,0.1,0,0.1,0c0.4,0.1,0.5,0.5,0.6,0.9c0.3,1.2,0.1,2.5,0,3.7c-0.1,0.5-0.1,1-0.2,1.4C-555.1,429-555.3,428.2-555.4,427.3z
				 M-552.4,432.5c0.1,0.6,0.2,1.2,0.1,1.8c0,0,0,0.1,0,0.1c-0.1,0-0.1,0-0.2,0c-0.4,0-0.7-0.5-0.8-0.8c-0.4-0.6-0.6-1.2-0.9-1.8
				c0.1-0.3,0.2-0.7,0.3-1c0.2-0.3,0.4-0.3,0.7-0.1C-552.6,431.2-552.5,432-552.4,432.5z"/>
			<path class="st2" d="M-504.7,437.7c-0.2-0.3-0.7-0.3-1-0.2c0,0-0.1,0-0.1-0.1c-0.1-0.1-0.1-0.2-0.2-0.3c-0.1-0.3-0.1-0.7-0.1-1
				c0.1-0.8,0.3-1.6,0.6-2.4c0,0,0,0,0,0c0.2-0.6,0.5-1.3,0.8-1.9c0,0,0,0,0-0.1c0,0,0,0,0,0c0.2-0.4,0.4-0.8,0.6-1.2
				c0.2-0.4-0.4-0.6-0.8-0.5c-0.1,0-0.1,0-0.2,0c-0.4-0.4-1-0.6-1.8-0.5c-1.9,0.1-3.1,1.9-3.4,3.5c-0.2,1,0.4,1.9,1.4,2.2
				c0.2,0,0.3,0.1,0.5,0.1c-0.2,0.4-0.5,0.7-0.8,1c-0.4,0.3-0.8-0.5-0.8-0.9c0-0.2-0.2-0.3-0.4-0.3c0,0,0,0-0.1,0
				c-0.4,0-0.8,0.2-1.1,0.4c0,0-0.1-0.1-0.1-0.2c-0.2-0.4-0.1-1,0-1.4c0.1-1.5,0.6-3.1,1.1-4.5c0,0,0-0.1,0-0.1
				c0.2-1-0.5-1.7-1.6-1.8c-1.1-0.1-2,0.5-2.7,1.1c-1,0.9-1.5,2.3-1.8,3.7l0,0c-0.2,0.3-0.3,1-0.7,1.4c0,0,0,0,0,0.1
				c-0.1,0-0.3,0-0.2,0c-0.3-0.3-0.1-1.3-0.1-1.7c0.1-1.4,0.4-2.9,1-4.3c0.2-0.3,0.4-0.7,0.5-1c0.2-0.4,0-0.7-0.4-0.6
				c-0.5,0-1.1,0.4-1.3,0.8c-0.2,0.3-0.4,0.7-0.5,1.1c-0.3,0.5-0.5,0.9-0.9,1.3c-0.3,0.3-0.5,0.4-1,0.7c0,0-0.1,0-0.1,0.1
				c0.2-1.4,0.3-2.8,0.4-4.2c0.1-0.2,0-0.3-0.2-0.4c0,0,0,0,0,0l0,0c0,0,0,0,0,0c0,0,0,0,0,0h0c-0.2,0-0.3,0-0.5,0
				c-0.4,0.1-0.8,0.3-1,0.6c-0.1,0.1-0.1,0.2-0.1,0.3c-0.5,2-1.1,4.1-2.5,5.7c-0.1,0.1-0.1,0.2-0.2,0.2c0,0-0.1,0-0.1,0.1
				c0,0,0,0,0,0c0,0-0.1,0-0.1,0c-0.4-0.1-0.6-0.6-0.7-0.9c-0.4-1.2-0.2-2.5,0-3.7c0.1-0.2,0.1-0.5,0.2-0.7c0.1-0.2,0.2-0.3,0.2-0.5
				c0,0,0,0,0,0c0,0,0,0,0,0c0.2,0.1,0.4,0.4,0.5,0.6c0.3,0.6,2.2-0.5,1.9-1.2c-0.5-1-1.7-1.2-2.7-0.6c-0.7,0.4-1.1,0.9-1.5,1.5
				c0,0-0.1,0.1-0.1,0.1c0,0,0,0.1,0,0.1c-0.1,0.1-0.1,0.2-0.2,0.3c0,0,0,0.1,0,0.1c-0.2,0.3-0.3,0.7-0.5,1c0.1-1.2,0.2-2.4,0.4-3.5
				c0.1-0.9-1.7,0.1-1.8,0.6c-0.2,0.5-0.4,1-0.6,1.6c-0.1-0.5-0.2-1.1-0.4-1.6c-0.6-1.3-1.9-1.3-3-0.3c-0.2,0.2-0.7,0.8-0.4,1.1
				c0.3,0.2,0.7,0,1-0.2c0,0,0,0,0.1,0c0.1,0,0.2,0.1,0.3,0.2c0.2,0.2,0.3,0.5,0.4,0.8c0.3,0.7,0.3,1.5,0.3,2.3
				c0,0.8-0.1,1.6-0.3,2.3c0,0,0,0.1,0,0.1c0,0.1-0.1,0.2-0.1,0.2c-0.2-0.1-0.4-0.4-0.5-0.6c-0.3-0.5-1.8,0.8-1.4,1.4
				c0.9,1.4,2.4,0.5,3.1-0.6c0.3-0.4,0.5-0.9,0.7-1.4c0.2-0.4,0.3-0.8,0.5-1.2c-0.1,1.2-0.2,2.4-0.4,3.7c-0.1,0.5,0.5,0.4,0.7,0.3
				c0.4-0.2,0.8-0.6,1-1c0.1-0.5,0.3-0.9,0.5-1.4c0,0.5,0.1,1,0.2,1.4c0.2,0.6,0.5,1.2,1.1,1.4c0.9,0.3,1.9-0.4,2.5-0.9
				c0.5-0.4,0.9-0.9,1.3-1.5c-0.1,0.8-0.2,1.6-0.4,2.4c-0.1,0.5,0.4,0.5,0.7,0.4c0.4-0.1,0.9-0.5,1-0.9c0.2-0.7,0.4-1.5,0.9-2.1
				c0.3-0.3,0.4-0.4,0.9-0.7c0,0,0,0,0.1,0c-0.2,1.1-0.4,2.3-0.3,3.4c0.1,1,0.7,1.3,1.7,1.1c0.4-0.1,0.8-0.3,1.1-0.5
				c0.1,0.4,0.2,0.8,0.5,1.1c0.6,0.6,1.7,0.2,2.4-0.1c0.1,0,0.1-0.1,0.2-0.1c0,0.2,0,0.3,0.1,0.5c0.2,1,1,1.1,1.8,0.9
				c0.5,0.9,1.9,0.9,2.8,0.5c0.2-0.1,0.4-0.2,0.5-0.3c0,0.2,0,0.4,0.1,0.6c0.3,1.2,1.4,1.4,2.5,0.9
				C-505.2,438.4-504.5,438.1-504.7,437.7z M-514.1,434.6c0,0-0.2,0-0.2-0.1c-0.3-0.2-0.3-0.8-0.3-1.1c0-0.5,0-1,0.1-1.4
				c0,0,0,0,0,0c0-0.1,0-0.1,0-0.2c0.2-0.7,0.4-1.3,0.7-1.9c0.2-0.3,0.5-0.8,0.7-1c0,0,0.1,0,0.1,0c0.1,0,0.2,0,0.3,0.1
				c0.4,0.1,0.5,0.5,0.5,0.8c-0.5,1.5-0.9,3.2-1.6,4.5C-513.9,434.4-514,434.5-514.1,434.6z M-511.5,435.7L-511.5,435.7
				C-511.5,435.7-511.5,435.7-511.5,435.7C-511.5,435.7-511.5,435.7-511.5,435.7z M-508,432.7c0-0.6,0.5-1.7,1-2
				c-0.1,0.1,0.2,0.1,0.4,0.2c0.3,0.3,0.2,0.7,0.1,1c-0.3,0.7-0.6,1.4-0.8,2.1C-507.9,433.7-508.1,433.1-508,432.7z M-505.7,437.5
				C-505.6,437.5-505.6,437.5-505.7,437.5L-505.7,437.5z"/>
		</g>
	</g>
	<path class="st2" d="M-521.8,448.4c0,0-0.1-0.1-0.2-0.2c-0.1-0.1-0.1-0.2-0.1-0.3c-0.1-0.5-0.1-1-0.1-1.4c0-1.4,0.2-2.8,0.4-4.2
		c0,0,0-0.1,0-0.1c0.1-1-0.7-1.6-1.7-1.5c-1,0.1-1.8,0.7-2.4,1.5c-0.7,0.9-1,2-1.1,3.1c-0.1,0.5-0.3,1-0.5,1.5
		c-0.1,0.2-0.2,0.3-0.3,0.4c-0.1,0.1-0.2,0.1-0.2,0.1c0,0-0.1,0-0.1,0c-0.2,0,0,0-0.2,0c-0.5,0-0.9-0.3-1.2-0.6
		c-0.7-0.9-0.5-2.4-0.4-3.4c0.1-0.6,0.2-1.2,0.5-1.8c0.1,0.1,0.1,0.1,0.2,0.2c0.3,0.3,0.4,0.8,0.5,1.2c0.2,0.7,1.9-0.3,1.7-1
		c-0.2-0.7-0.5-1.9-1.6-1.9c-1,0-1.9,0.8-2.3,1.6c-0.5,1-0.7,2-0.7,3.1c-0.1,0.6-0.3,1.2-0.5,1.7c-0.1,0.2-0.2,0.3-0.3,0.5
		c-0.1,0.1-0.2,0.2-0.2,0.2l-0.1,0c-0.2,0.1,0,0-0.2,0c-0.5,0-0.9-0.2-1.3-0.6c-0.8-0.8-0.6-2.4-0.6-3.4c0-0.6,0.1-1.3,0.4-1.8
		c0.1,0,0.1,0.1,0.2,0.2c0.3,0.3,0.4,0.8,0.5,1.2c0.2,0.7,1.8-0.4,1.7-1.1c-0.2-0.7-0.6-1.9-1.6-1.8c-1,0.1-1.8,0.9-2.2,1.7
		c-0.5,1.1-0.6,2.3-0.6,3.4c0,0.1,0,0.2,0,0.4c-0.1,0.6-0.2,1.3-0.5,1.9c-0.5-0.2-0.5-1.5-0.6-1.8c-0.2-1.4-0.2-2.8-0.1-4.2
		c0,0,0-0.1,0-0.1c0-1-0.9-1.4-1.9-1.1c-1,0.3-1.7,1.1-2.2,1.9c-0.5,1-0.8,2.2-0.7,3.3c-0.1,0.6-0.1,1.3-0.3,1.9
		c0,0.1-0.1,0.2-0.1,0.3c-0.2-0.1-0.3-0.3-0.4-0.4c-0.3-0.6-0.5-1.3-0.6-2c-0.2-1.2-0.4-2.8-0.1-4c0.1-0.3,0-0.6-0.4-0.5
		c-0.5,0.1-0.9,0.6-1.1,1c0,0.1-0.1,0.1-0.1,0.2h0l0,0c-0.3,0.8-0.5,1.5-0.6,2.3c-0.2-0.9-0.5-2.1-0.2-3c0.1-0.3,0-0.6-0.4-0.5
		c-0.4,0.1-0.8,0.5-1,0.8c-0.7,1.4-0.7,3.1-0.7,4.7c0,0.7-0.1,1.5-0.3,2.2c0,0-0.1,0-0.1,0c-0.4-0.2-0.5-0.9-0.6-1.4
		c-0.1-0.4-0.8,0.1-0.9,0.2c-0.3,0.3-0.6,0.8-0.5,1.2c0.2,1.1,0.9,2.3,2.2,1.5c0.8-0.5,1.2-1.5,1.4-2.4c0.2,0.6,0.3,1.3,0.4,1.9
		c0.1,0.9,1.5-0.5,1.5-1.1c0-0.4,0-0.7,0-1.1c0.4,1.6,1.1,2.7,2.5,1.8c0.3-0.2,0.6-0.5,0.7-0.8c0.2,0.4,0.4,0.7,0.8,0.9
		c0.8,0.3,1.7-0.3,2.2-0.9c0,0,0-0.1,0.1-0.1c0.1,0.3,0.2,0.5,0.4,0.7c0.2,0.3,0.7,0.3,1,0.3c0.7-0.1,1.2-0.7,1.5-1.2
		c0.7,1.2,2.2,1.4,3.3,0.8c0.5-0.3,0.9-0.6,1.2-1c0,0.1,0.1,0.2,0.1,0.3c0.6,1.3,2.1,1.6,3.3,1c0.4-0.2,0.8-0.5,1.1-0.8
		c0.1,0.5,0.3,1,0.8,1.3c0.7,0.5,1.7,0,2.3-0.4c0,0,0.1-0.1,0.1-0.1c0,0.3,0.1,0.6,0.3,0.8c0.5,0.6,1.4,0.4,1.9,0.1
		c0.3-0.2,0.8-0.5,0.7-1C-520.9,448.1-521.8,448.4-521.8,448.4z M-539.6,446.7c0,0.1-0.1,0.3-0.1,0.4c0,0-0.2,0-0.3,0
		c-0.3-0.1-0.5-0.6-0.6-0.9c-0.4-1.1-0.4-2.4-0.1-3.6c0.1-0.3,0.3-0.9,0.4-1.1c0,0,0.1,0,0.1-0.1c0.1,0,0.2,0,0.3,0
		c0.4,0,0.6,0.3,0.6,0.6C-539.3,443.6-539.3,445.2-539.6,446.7z M-524.4,447.5c0,0.1-0.1,0.2-0.2,0.4c0,0-0.2,0-0.3-0.1
		c-0.3-0.2-0.4-0.7-0.5-1c-0.2-1.2-0.1-2.5,0.3-3.6c0.1-0.3,0.4-0.9,0.6-1.1c0,0,0.1,0,0.1,0c0.1,0,0.2,0,0.3,0
		c0.4,0,0.6,0.4,0.6,0.7C-523.7,444.4-523.8,446-524.4,447.5z"/>
</g>
<g>
	<g>
		<path class="st2" d="M-533.9,461.9c-1.1,0.2-1.5,1.6-1.6,2.6c-0.1,0.8-0.2,2.9,1.1,2.9c1.4,0.1,1.8-1.6,1.8-2.5
			C-532.6,464.2-532.7,462-533.9,461.9c-0.3,0-1,0.9-0.6,1c1.1,0.1,1,3,0.6,3.7c0.1-0.2,0.2-0.1-0.1-0.2c-0.2-0.1-0.2-0.3-0.3-0.4
			c-0.2-0.3-0.2-0.8-0.3-1.1c0-0.4,0-0.8,0-1.2c0-0.2,0.1-0.3,0.1-0.5c0-0.1,0.1-0.2,0.1-0.3c0.1-0.2,0.1-0.2-0.1,0
			C-534,462.9-533.4,461.8-533.9,461.9z"/>
		<path class="st2" d="M-537.1,462.7c0.2,1.5-0.1,3-0.3,4.5c-0.1,0.6,1.1-0.1,1.2-0.4c0.2-1.2,1.3-2,1.8-3.2c0.2-0.6-0.8,0-0.9,0.3
			c-0.3,0.7-0.8,1.1-1.2,1.6c-0.4,0.5-0.6,1.1-0.8,1.7c0.4-0.1,0.8-0.3,1.2-0.4c0.1-1.6,0.4-3.1,0.1-4.7
			C-536.2,461.6-537.1,462.2-537.1,462.7L-537.1,462.7z"/>
		<path class="st2" d="M-532.7,466c0.1,0.5,0.5,1.5,1.4,1.1c0.6-0.2,0.9-0.8,1.1-1.3c0.2-0.7,0.2-1.4,0.2-2.1c0-0.6-0.2-1.3,0-1.9
			c-0.3,0.1-0.6,0.2-0.9,0.3c-0.3,1.5,0.7,3.2,1.1,4.6c0.1,0.6,1.1-0.4,1.1-0.7c-0.2-1.3-0.1-3,0.2-4.3c-0.3,0.1-0.5,0.3-0.8,0.4
			c-0.1,0.9,0.6,5.7,2.6,4c0.4-0.3,0.5-1.4-0.1-0.8c-0.4,0.4-1.1-1.3-1.1-1.4c-0.2-0.7-0.5-1.5-0.5-2.3c0-0.7-0.8,0.1-0.8,0.4
			c-0.3,1.5-0.6,3.3-0.4,4.8c0.4-0.2,0.7-0.5,1.1-0.7c-0.2-0.7-0.5-1.4-0.8-2.1c-0.2-0.7-0.6-1.4-0.5-2.1c0.1-0.7-0.8,0.1-0.9,0.3
			c-0.3,0.7-0.2,1.6-0.2,2.4c0,0.5,0,1.1-0.1,1.6c0,0.1-0.1,0.2-0.1,0.3c0.3-0.1,0.3-0.2-0.1-0.2c-0.3-0.1-0.3-0.6-0.4-0.8
			C-531.8,464.8-532.8,465.6-532.7,466L-532.7,466z"/>
		<path class="st2" d="M-524.1,463.9c0.3,0.5,0.9,1.2,1.6,0.6c0.5-0.4,0.6-1.1,0.6-1.6c0-0.7-0.3-1.4-0.5-2.1
			c-0.2-0.5-0.6-1.2-0.5-1.8c-0.2,0.2-0.5,0.4-0.7,0.6c0.2,1.5,1.6,2.8,2.4,4c0.3,0.5,0.9-0.7,0.8-1.1c-0.6-1.2-1-2.8-1.1-4.2
			c-0.2,0.2-0.5,0.4-0.7,0.7c0.2,0.9,2.2,5.3,3.7,3c0.3-0.5,0.1-1.5-0.4-0.7c-0.3,0.5-1.4-0.9-1.5-1c-0.5-0.6-0.9-1.3-1.1-2.1
			c-0.2-0.7-0.7,0.3-0.7,0.7c0.1,1.5,0.4,3.4,1.1,4.7c0.3-0.3,0.5-0.7,0.8-1.1c-0.4-0.6-0.9-1.2-1.4-1.8c-0.4-0.5-1-1.2-1.1-1.9
			c-0.1-0.7-0.7,0.3-0.7,0.6c-0.1,0.8,0.3,1.6,0.5,2.3c0.2,0.5,0.3,1,0.3,1.6c0,0.1,0,0.2,0,0.3c0.2-0.2,0.2-0.3-0.1-0.2
			c-0.3,0-0.5-0.5-0.6-0.7C-523.6,462.4-524.3,463.5-524.1,463.9L-524.1,463.9z"/>
		<path class="st2" d="M-526.4,460.2c-1,0.5-1,2-0.9,3c0.1,0.8,0.7,2.9,2.1,2.5c1.5-0.4,1.4-2.2,1.1-3.2
			C-524.4,461.8-525.2,459.9-526.4,460.2c-0.3,0.1-0.6,1.2-0.3,1.1c0.6-0.2,1.1,0.6,1.3,1.1c0.2,0.4,0.3,0.8,0.4,1.2
			c0,0.2,0.1,0.3,0.1,0.5c0,0.1-0.1,0.5,0.1,0.3c-0.5,0.5-1.3-0.8-1.4-1.1c-0.2-0.4-0.3-0.8-0.4-1.2c0-0.2-0.1-0.4-0.1-0.7
			c0-0.2,0.1-0.3,0-0.2C-526.2,461.2-525.9,460-526.4,460.2z"/>
		<g>
			<path class="st2" d="M-540.8,466.3c2.1,0.2,2.8-2,2.7-3.5c0-0.6-0.2-1.2-0.9-1.3c-1-0.1-1.8,0.9-2,1.8c-0.1,0.5,1.1,0.1,1.2-0.3
				c0.1-0.3,0.1-0.9,0.5-0.5c0.2,0.3,0.2,0.7,0.2,1c0,0.5-0.3,2-0.8,1.9C-540.4,465.4-541.4,466.2-540.8,466.3L-540.8,466.3z"/>
			<path class="st2" d="M-536.6,465.2c-1.5,0.8-3.4,1.7-4.9,2.8c-0.7,0.5-1.7,1.6-1.2,2.4c0.4,0.6,1.3,0.8,2,0.6
				c2.5-0.6,3.9-6.2,0.4-5.5c-0.5,0.1-1.2,0.9-0.2,0.8c1.7-0.3,1.3,3.8,0,4c-1.2,0.1-0.6-1.2-0.4-1.5c0.4-0.6,1-1,1.7-1.3
				c1-0.5,1.9-1.1,2.9-1.6C-535.8,465.6-535.8,464.8-536.6,465.2L-536.6,465.2z"/>
		</g>
		<path class="st2" d="M-542,465.5c-0.8,0.3-0.4-1.7-0.4-1.8c0.2-0.8,0.5-1.7,0.7-2.5c0.2-0.5-1-0.1-1.1,0.2
			c-0.3,0.7-0.5,1.4-0.8,2.1c-0.2,0.4-0.3,0.7-0.5,1.1c-0.2,0.4-0.3,0.5-0.6,0.1c-0.8-1,0.7-3,1.2-3.8c0.4-0.6-0.7-0.4-1-0.1
			c-0.5,0.7-3,4.2-0.9,4.8c2.5,0.8,3.1-3,3.6-4.4c-0.4,0.1-0.7,0.1-1.1,0.2c-0.5,1.2-1.1,2.6-1,3.9c0,1.2,1.3,1.1,2.2,0.7
			C-540.8,465.7-541.2,465.1-542,465.5L-542,465.5z"/>
		<path class="st2" d="M-547.6,459.3c0.2-0.8,0.1-1.7-1-1.6c-1.2,0-2.1,1-2.7,1.8c-0.5,0.7-0.9,1.5-0.2,2.5c0.7,1,2.4,0.9,3.2,0.8
			c0.8-0.1,0.5-0.8-0.2-0.6c-0.6,0.1-1.2,0.1-1.7-0.4c-0.4-0.4-0.2-1-0.1-1.4c0.2-0.5,0.6-1,1-1.4c0.1-0.1,0.2-0.2,0.3-0.3
			c0.3-0.3,0.4-0.3,0.2-0.1c0.1,0.3,0,0.6-0.1,0.9C-548.9,459.8-547.7,459.7-547.6,459.3L-547.6,459.3z"/>
	</g>
</g>
</svg>
