<?xml version="1.0" encoding="utf-8"?>
<!-- Generator: Adobe Illustrator 19.0.0, SVG Export Plug-In . SVG Version: 6.00 Build 0)  -->
<svg version="1.1" id="Layer_1" xmlns="http://www.w3.org/2000/svg" xmlns:xlink="http://www.w3.org/1999/xlink" x="0px" y="0px"
	 viewBox="-580 396.7 86 86" style="enable-background:new -580 396.7 86 86;" xml:space="preserve">
<style type="text/css">
	.st0{fill:#DD9827;}
	.st1{fill:#FFFFFF;}
</style>
<circle class="st0" cx="-537.1" cy="439.6" r="42.4"/>
<g>
	<g>
		<g>
			<path class="st1" d="M-536.3,426.8c0,0-0.1,0-0.2,0c0,0-0.1,0-0.1,0c-2.3,0.2-2.9,3.2-3,4.9c0,1.5,0.2,4.5,2.2,4.6
				c1,0,1.8-1,2.3-1.7c0.5-0.9,0.7-2,0.8-3C-534.2,430.1-534.3,427.1-536.3,426.8z M-536.2,433.9c0,0.2-0.1,0.3-0.1,0.5
				c0,0-0.1,0.1-0.1,0.2c0,0,0,0,0,0c-1.1,0-1.3-2.5-1.4-3.2c0-0.8,0-1.6,0.2-2.3c0.1-0.2,0.1-0.5,0.3-0.7c1.2,0.1,1.3,2.4,1.4,3.2
				C-536,432.4-536,433.2-536.2,433.9z"/>
			<path class="st1" d="M-541.9,427.1c-0.7-0.3-1.6,0.1-2.2,0.5c-0.1-0.6-0.2-1.1-0.4-1.7c-0.1-0.5-1,0-1.1,0.2
				c-0.2,0.2-0.5,0.4-0.6,0.7c0,0.1,0,0.1-0.1,0.2c-0.1,0.4-0.2,0.7-0.4,1c-0.1,0.1,0,0.1-0.1,0.1c-0.5,0.2-1.1-0.1-1.5-0.3
				c0,0,0,0,0,0c-0.3-0.1-0.6-0.2-1-0.2c-0.1,0-0.1,0-0.2,0c0,0-0.1,0-0.1,0c-2.4,0.5-2.6,3.6-2.4,5.3c0.2,1.5,0.8,4.4,2.9,4.2
				c1-0.1,1.9-1.2,2.2-2.1c0.4-1,0.5-2.1,0.4-3.1c0-0.6-0.2-1.5-0.5-2.4c0.4-0.2,0.7-0.4,1-0.7c0.5,2.2,0.7,4.5,0.9,6.7
				c0.2,2.1,0.3,4.1,0.3,6.2c0,0.5,0.5,0.3,0.8,0.2c0.4-0.3,0.7-0.7,0.8-1.2c0-1.4,0-2.9-0.1-4.4c0.6-0.1,1.3-0.4,1.8-0.9
				c1.1-1.2,1.3-3.1,1.1-4.7C-540.3,429.7-540.6,427.7-541.9,427.1z M-548.1,434.7c0,0.2-0.1,0.3-0.1,0.5c0,0,0,0.1-0.1,0.2
				c0,0,0,0,0,0c-1.2,0.2-1.8-2.2-1.9-2.9c-0.1-0.8-0.2-1.5-0.1-2.3c0-0.2,0.1-0.5,0.2-0.7c0.1,0,0.2,0,0.3,0c0,0,0.1,0.1,0.1,0.1
				c0.1,0,0.2,0.1,0.3,0.1c0.8,0.6,1.1,2.1,1.2,2.7C-548,433.2-548,434-548.1,434.7z M-543.5,428.7
				C-543.5,428.6-543.5,428.6-543.5,428.7L-543.5,428.7z M-542.1,434.8C-542.1,434.8-542.1,434.8-542.1,434.8L-542.1,434.8z
				 M-542.1,434.7c0,0,0,0.1-0.1,0.1c0,0,0,0,0,0c-0.6,0.1-1-0.5-1.1-1c0-0.1,0-0.1,0-0.2c-0.1-1.2-0.2-2.4-0.4-3.6c0,0,0-0.1,0-0.1
				c0-0.4-0.1-0.8,0.1-1.1c0,0,0,0,0,0c0,0,0,0,0,0c0.2,0,0.5,0.1,0.7,0.3c0.6,0.7,0.9,1.8,1,2.6
				C-541.8,432.6-541.7,433.8-542.1,434.7z"/>
			<path class="st1" d="M-555.1,430.9c0.2-0.8,0.4-1.7,0.5-2.5c0.2-1.3,0.5-3.1-0.3-4.3c-0.8-1.2-2.4-0.1-3,0.8
				c-1,1.4-0.9,3.2-0.8,4.8c0.1,1.8,0.6,3.6,1.2,5.3c-0.2,0.8-0.4,1.7-0.7,2.5c0,0.1-0.1,0.1-0.1,0.2c-0.1-0.1-0.2-0.2-0.2-0.3
				c-0.2-0.3-0.3-0.6-0.4-1c-0.9-2.6-1.2-5.4-2.5-7.9c-0.4-0.8-1.2-2-2.4-1.5c-0.9,0.4-1.4,1.2-1.7,2.1c-0.6-0.8-1.4-1.3-2.6-0.5
				c-0.5,0.3-0.8,0.7-1.1,1.1c-0.1-0.4-0.3-0.8-0.7-1c-0.7-0.5-2.1,1.5-1.5,1.9c0.4,0.3,0.6,0.9,0.8,1.3c0.4,0.9,0.7,1.9,1.1,2.8
				c0.2,0.5,0.3,1,0.5,1.5c0.6,2,1.4,4,2.2,6c0.1,0.2,0.2,0.3,0.3,0.2c0.5-0.1,1.2-1.3,1-1.8c-0.6-1.7-1.2-3.5-1.8-5.2
				c-0.2-0.7-0.4-1.5-0.6-2.3c-0.2-0.8-0.3-1.6-0.3-2.5c0-0.1,0-0.3,0-0.4c1.2-0.4,2.1,2.3,2.3,2.8c0.4,1,0.8,2,1.1,3
				c0.5,1.5,1,3.1,1.5,4.6c0.1,0.2,0.2,0.3,0.3,0.3c0.5-0.1,1.2-1.2,1-1.7c-0.5-1.6-0.9-3.3-1.4-4.9c-0.1-0.4-0.2-0.8-0.3-1.2
				c-0.3-1.4-0.7-2.8-0.5-4.2c0,0,0-0.1,0-0.1c0.3,0,0.6,0.4,0.8,0.5c1.1,1.3,1.5,3.1,2,4.7c0.3,1.1,0.6,2.2,0.9,3.2
				c0.2,0.7,0.4,1.4,0.9,2c0.6,0.7,1.3,0.1,1.7-0.4c0.5-0.6,0.8-1.3,1-2.1c0.4,0.9,1,1.8,1.9,1.7c1.4-0.2,2.1-1.8,2.4-3
				c0.2-1.4,0.1-3.8-1.3-4.5C-554.3,430.7-554.7,430.7-555.1,430.9z M-557,429.2c-0.1-1.2-0.2-2.5,0.2-3.7c0,0,0,0,0.1,0
				c0.4,0.1,0.5,0.6,0.6,0.9c0.3,1.2,0.1,2.6-0.1,3.8c-0.1,0.5-0.2,1-0.3,1.5C-556.8,430.8-556.9,430-557,429.2z M-554.1,434.6
				c0.1,0.6,0.1,1.2,0.1,1.8c0,0,0,0.1,0,0.1c-0.1,0-0.1,0-0.2,0c-0.4,0-0.7-0.6-0.8-0.8c-0.4-0.6-0.6-1.2-0.9-1.9
				c0.1-0.3,0.2-0.7,0.3-1c0.2-0.3,0.4-0.3,0.7-0.1C-554.3,433.2-554.2,434-554.1,434.6z"/>
			<path class="st1" d="M-505.2,441.3c-0.2-0.3-0.7-0.3-1-0.2c0,0-0.1,0-0.1-0.1c-0.1-0.1-0.1-0.2-0.2-0.3c-0.1-0.3-0.1-0.7,0-1
				c0.1-0.9,0.4-1.7,0.7-2.5c0,0,0,0,0,0c0.3-0.6,0.6-1.3,0.9-1.9c0,0,0-0.1,0-0.1c0,0,0,0,0,0c0.2-0.4,0.4-0.8,0.7-1.2
				c0.3-0.4-0.4-0.6-0.8-0.6c-0.1,0-0.1,0-0.2,0c-0.4-0.4-1-0.7-1.8-0.6c-2,0.1-3.3,1.9-3.6,3.5c-0.2,1,0.3,2,1.4,2.3
				c0.2,0,0.3,0.1,0.5,0.1c-0.3,0.4-0.5,0.7-0.9,1c-0.4,0.3-0.8-0.6-0.8-0.9c0-0.2-0.2-0.3-0.4-0.4c0,0,0,0-0.1,0
				c-0.4,0-0.8,0.1-1.1,0.4c0,0-0.1-0.1-0.1-0.2c-0.2-0.4-0.1-1,0-1.4c0.2-1.6,0.7-3.1,1.3-4.6c0,0,0-0.1,0-0.1
				c0.3-1-0.4-1.8-1.6-1.9c-1.1-0.1-2.1,0.4-2.8,1.1c-1,0.9-1.6,2.3-1.9,3.8l0,0c-0.2,0.4-0.4,1.1-0.8,1.4c0,0,0,0-0.1,0
				c-0.1,0-0.3,0-0.2,0c-0.3-0.3-0.1-1.3,0-1.7c0.2-1.4,0.5-3,1.1-4.4c0.2-0.3,0.4-0.7,0.6-1c0.2-0.4,0.1-0.7-0.4-0.7
				c-0.5,0-1.1,0.3-1.4,0.7c-0.2,0.3-0.4,0.7-0.6,1.1c-0.3,0.5-0.6,0.9-1,1.3c-0.3,0.3-0.6,0.4-1,0.7c0,0-0.1,0-0.1,0.1
				c0.2-1.4,0.4-2.9,0.6-4.4c0.1-0.2,0-0.3-0.2-0.4c0,0,0,0,0,0c0,0,0,0,0,0c0,0,0,0,0,0c0,0,0,0,0,0l0,0c-0.2,0-0.4,0-0.5,0
				c-0.4,0.1-0.8,0.3-1,0.6c-0.1,0.1-0.1,0.2-0.2,0.3c-0.5,2-1.3,4.1-2.7,5.8c-0.1,0.1-0.2,0.2-0.2,0.2c0,0-0.1,0-0.1,0.1l0,0
				c0,0-0.1,0-0.1,0c-0.4-0.1-0.6-0.6-0.7-1c-0.3-1.2-0.2-2.6,0.2-3.8c0.1-0.2,0.1-0.5,0.2-0.7c0.1-0.2,0.2-0.3,0.3-0.5c0,0,0,0,0,0
				c0,0,0,0,0,0c0.2,0.1,0.4,0.5,0.5,0.7c0.3,0.6,2.3-0.5,1.9-1.2c-0.5-1.1-1.7-1.3-2.7-0.7c-0.7,0.4-1.2,0.9-1.5,1.5
				c0,0-0.1,0.1-0.1,0.1c0,0,0,0.1,0,0.1c-0.1,0.1-0.1,0.2-0.2,0.4c0,0,0,0.1,0,0.1c-0.2,0.3-0.3,0.7-0.5,1c0.2-1.2,0.3-2.4,0.5-3.6
				c0.1-1-1.7,0.1-1.9,0.5c-0.2,0.5-0.4,1.1-0.7,1.6c-0.1-0.6-0.2-1.1-0.4-1.6c-0.6-1.4-2-1.3-3-0.4c-0.2,0.2-0.8,0.8-0.4,1.1
				c0.3,0.3,0.8,0,1.1-0.2c0,0,0,0,0.1,0c0.1,0,0.2,0.1,0.3,0.2c0.2,0.2,0.3,0.5,0.4,0.8c0.3,0.8,0.3,1.6,0.3,2.4
				c0,0.8-0.1,1.6-0.4,2.3c0,0,0,0.1-0.1,0.1c0,0.1-0.1,0.2-0.1,0.2c-0.2-0.1-0.4-0.4-0.5-0.6c-0.3-0.6-1.9,0.7-1.5,1.4
				c0.9,1.5,2.4,0.6,3.2-0.5c0.3-0.4,0.6-0.9,0.7-1.4c0.2-0.4,0.4-0.8,0.6-1.2c-0.2,1.3-0.3,2.5-0.5,3.8c-0.1,0.5,0.5,0.4,0.8,0.3
				c0.5-0.2,0.9-0.6,1-1c0.1-0.5,0.3-0.9,0.5-1.4c0,0.5,0.1,1,0.2,1.5c0.1,0.6,0.5,1.2,1.1,1.4c0.9,0.3,2-0.3,2.6-0.8
				c0.5-0.4,1-0.9,1.4-1.5c-0.1,0.8-0.3,1.7-0.5,2.5c-0.1,0.5,0.4,0.5,0.8,0.4c0.5-0.1,1-0.5,1.1-0.9c0.2-0.7,0.5-1.5,1-2.2
				c0.3-0.4,0.4-0.4,0.9-0.7c0,0,0,0,0.1,0c-0.3,1.1-0.5,2.3-0.5,3.5c0,1.1,0.7,1.4,1.7,1.1c0.4-0.1,0.8-0.3,1.2-0.5
				c0.1,0.4,0.2,0.8,0.5,1.1c0.6,0.6,1.8,0.3,2.4-0.1c0.1,0,0.1-0.1,0.2-0.1c0,0.2,0,0.3,0,0.5c0.2,1.1,1,1.2,1.8,0.9
				c0.5,1,1.9,1,2.9,0.6c0.2-0.1,0.4-0.2,0.6-0.3c0,0.2,0,0.4,0,0.6c0.2,1.3,1.4,1.5,2.6,1C-505.7,442-505,441.7-505.2,441.3z
				 M-514.7,437.9c0,0-0.2,0-0.3-0.1c-0.3-0.2-0.3-0.8-0.3-1.1c0-0.5,0-1,0.2-1.5c0,0,0,0,0,0c0-0.1,0-0.1,0-0.2
				c0.2-0.7,0.5-1.4,0.8-1.9c0.2-0.3,0.6-0.8,0.8-1c0,0,0.1,0,0.1,0c0.1,0,0.2,0,0.3,0.1c0.4,0.1,0.5,0.5,0.4,0.9
				c-0.6,1.5-1,3.2-1.8,4.6C-514.5,437.6-514.6,437.8-514.7,437.9z M-512.1,439L-512.1,439L-512.1,439L-512.1,439z M-508.4,436
				c0-0.6,0.5-1.8,1.1-2c-0.1,0.1,0.2,0.1,0.4,0.2c0.3,0.3,0.2,0.7,0.1,1c-0.3,0.7-0.6,1.4-0.9,2.1
				C-508.3,437.1-508.5,436.5-508.4,436z M-506.1,441.1C-506.1,441.1-506.1,441.1-506.1,441.1L-506.1,441.1z"/>
		</g>
	</g>
	<g>
		<path class="st1" d="M-506.9,453.9c-0.4,0.6-0.8,1.1-1.3,1.5c-0.1,0-0.1,0.1-0.3,0c-0.3-0.2-0.2-1-0.1-1.3c0.1-1,0.4-2,0.8-3
			c0.1-0.2,0.2-0.4,0.3-0.6c0.1-0.3,0.3-0.7,0.4-1c0,0,0-0.1,0-0.1c0.3-0.9-0.4-1.7-1.5-1.9c-1.1-0.2-2.1,0.3-2.8,0.9
			c-1,0.8-1.6,2-2,3.3c0,0.1-0.1,0.1-0.1,0.2c-0.2,0.4-0.5,0.9-0.9,1.2c-0.1,0.1,0,0.1-0.1,0.1c-0.5-0.2-0.2-0.9-0.2-1.3
			c0.1-0.7,0.2-1.4-0.1-2.1c-0.2-0.5-0.8-0.7-1.3-0.7c0-0.1,0.1-0.2,0.1-0.3c0.1-0.1,0.1-0.2,0.2-0.3c0.3-0.5,0.6-1.1,1.1-1.4
			c0,0,0,0,0,0c0,0,0,0,0,0c0.2,0.1,0.4,0.4,0.5,0.5c0.5,0.6,2.3-0.3,1.9-0.9c-0.6-0.8-1.4-1-2.1-0.8c-0.5,0.1-1,0.3-1.5,0.7
			c-0.1,0.1-0.2,0.1-0.2,0.2c0.2-0.9,0.3-1.8,0.2-2.8c0-0.7-2,0-2,0.7c0.1,1.3-0.1,2.6-0.4,3.9c0,0.1-0.1,0.1-0.1,0.2
			c-0.4,1.1-1.2,2.1-2.3,2.7c-0.2,0.1-0.3,0.1-0.5,0.2c0,0-0.1,0-0.1,0c0,0,0,0-0.1-0.1c-0.1-0.2-0.1-0.4-0.1-0.6
			c-0.1-1.1,0.1-2.2,0.4-3.2c0.1-0.7,0.3-1.4,0.6-2.1c0.2-0.3,0.3-0.6,0.4-0.9c0.2-0.4,0-0.6-0.5-0.6c-0.5,0-1.1,0.4-1.3,0.8
			c-0.2,0.4-0.4,0.7-0.5,1.1c-0.2,0.5-0.5,0.9-0.9,1.3c-0.3,0.3-0.6,0.4-1,0.7c0,0-0.1,0-0.1,0.1c0.1-1.4,0.2-2.8,0.3-4.2
			c0.1-0.9-2,0-2,0.6c0,0.6-0.1,1.2-0.1,1.8c-0.1,0.1-0.1,0.2-0.2,0.3c-0.2,1.3-0.5,2.8-1.4,3.9c-0.1,0.1-0.1,0.2-0.3,0.1
			c-0.4-0.1-0.4-0.9-0.5-1.2c-0.1-1-0.1-2.1,0-3.1c0-0.2,0.1-0.5,0.1-0.7c0-0.4,0.1-0.7,0.2-1.1c0,0,0-0.1,0-0.1
			c0.1-1-0.8-1.5-1.9-1.4c-1.1,0.1-1.9,0.9-2.5,1.6c-0.7,1-1,2.4-1.1,3.7c0,0.1-0.1,0.1-0.1,0.2c-0.1,0.5-0.3,1-0.5,1.4
			c-0.1,0.1,0,0.1-0.1,0.1c-0.5-0.1-0.4-0.8-0.5-1.2c-0.1-0.7-0.1-1.4-0.6-2c-0.3-0.4-0.9-0.4-1.4-0.3c0-0.1,0-0.2,0.1-0.3
			c0-0.1,0.1-0.2,0.1-0.4c0.2-0.6,0.4-1.2,0.7-1.7c0,0,0,0,0,0c0,0,0,0,0,0c0.2,0,0.5,0.2,0.6,0.3c0.6,0.4,2.2-0.9,1.6-1.4
			c-0.8-0.6-1.6-0.6-2.3-0.2c-0.5,0.2-0.9,0.6-1.3,1c-0.1,0.1-0.1,0.2-0.2,0.2c-0.1-0.9-0.2-1.8-0.5-2.7c-0.2-0.7-1.9,0.6-1.7,1.2
			c0.2,0.8,0.4,1.6,0.5,2.5c-0.3,1.2-0.8,2.3-1.5,3.4c-0.4,0.6-0.9,1.1-1.2,1.4c-1,0.8-1.6,0.4-2-0.4c0-0.1,0.1-0.1,0.1-0.2
			c1-1.4,2-3,2-4.7c0-1-0.6-1.9-1.9-1.7c-1.2,0.2-2,1.4-2.3,2.4c-0.4,1.1-0.4,2.3-0.2,3.4c0.1,0.4,0.1,0.8,0.2,1.1
			c-0.2,0.1-0.3,0.2-0.5,0.4c-0.3,0.2-0.6,0.5-0.9,0.6c-0.1,0-0.2,0-0.4-0.2c-0.7-0.6-0.6-2-0.7-2.8c-0.1-1-0.2-2-0.6-2.9
			c-0.2-0.6-0.8-1.3-1.6-1.1c-1,0.2-1.6,1.1-1.9,1.8c0,0,0,0.1,0,0.1c-0.1-0.5-0.3-0.9-0.5-1.3c-0.3-0.6-1.8,0.9-1.5,1.5
			c0.4,0.9,0.7,1.9,0.9,2.9v0c0,0,0,0,0,0s0,0.2,0,0.2c0,0.4-0.1,0.7-0.1,1.1c-0.1,0.7-0.3,1.5-0.8,2.1c0,0,0,0,0,0
			c-0.1-0.1-0.2-0.2-0.2-0.3c-0.3-0.4-0.5-0.9-0.6-1.4c-0.5-1.3-0.8-2.6-1.1-4c0,0,0-0.1,0-0.1c-0.3-1-1.2-1.2-2.2-0.6
			c-1,0.5-1.5,1.5-1.8,2.4c-0.4,1.4-0.1,3.1,0.4,4.4c-0.4,0.5-0.8,1.1-1.2,1.6c-0.3-0.3-0.7-0.5-1.2-0.5c0.3-1.5-0.1-3.3-0.7-4.5
			c-0.4-0.8-1.2-1.7-2.3-1.3c-0.8,0.3-1.4,1.1-1.7,1.8c-0.4,0.9-0.3,1.9,0,2.7c0.4,0.8,1.7-0.9,1.4-1.5c-0.1-0.3-0.2-0.6-0.2-0.9
			c0-0.1,0-0.1,0-0.2c0,0,0.1-0.1,0.1-0.1c0,0,0.2,0,0.2,0c0.6,0.1,1,0.8,1.3,1.3c0.4,0.7,0.6,1.5,0.7,2.3c0,0.3,0,0.6,0,0.9
			c-0.2,0.1-0.3,0.3-0.5,0.4c-0.1,0.1-0.2,0.2-0.3,0.4c-0.2,0.3-0.4,0.8-0.3,1.1c0,0.1,0.1,0.2,0.2,0.2c0.1,0,0.2,0,0.3,0
			c0.3-0.2,0.6-0.4,0.8-0.6c0.4-0.1,0.8,0.1,1.1,0.4c-0.7,1.2-1.2,2.4-1.3,3.7c-0.2,1.2-0.1,2.8,0.8,3.7c0.7,0.6,1.8,0.3,2.4-0.4
			c1.4-1.5,1.2-3.9,0.8-5.7c-0.1-0.6-0.4-1.4-0.8-2.1c0.3-0.5,0.7-1,1-1.4c0.3,0.5,0.7,1.1,1.4,1.1c0.9,0.1,1.6-0.8,2-1.4
			c0-0.1,0.1-0.1,0.1-0.2c0.4,0.6,0.9,1.2,1.6,0.5c0.7-0.6,1.2-1.3,1.6-2.2c0.1,0.5,0.2,0.9,0.3,1.4c0.2,0.9,1.5-0.6,1.4-1.2
			c-0.2-1.4-0.4-2.8-0.3-4.3c0-0.5,0.1-1,0.2-1.5c0-0.2,0.1-0.4,0.2-0.5c0,0,0,0,0,0c0.1,0,0.1,0.1,0.2,0.1c0.3,0.2,0.5,0.7,0.6,1
			c0.3,0.9,0.4,1.8,0.5,2.8c0.1,1,0.4,3.8,2.2,3c0.8-0.4,1.6-1,2.3-1.5c0.1,0.2,0.3,0.4,0.4,0.6c0.9,1.1,2.5,0.2,3.4-0.5
			c1-0.8,1.9-1.8,2.6-3c0,1.1,0,2.2,0,3.2c0,0.5,0.5,0.4,0.8,0.2c0.4-0.2,0.8-0.7,0.8-1.1c0.1-0.8,0.1-1.6,0.3-2.4
			c1,0.2,0.5,2.8,1.3,3.3c0.6,0.4,1.5,0,2-0.4c0.2-0.1,0.4-0.3,0.5-0.5c0.1,0.5,0.4,0.9,0.8,1.1c0.8,0.4,1.8-0.1,2.3-0.6
			c0.1-0.1,0.1-0.1,0.2-0.2c0.1,0.4,0.3,1,0.8,1.1c0.6,0.2,1.4-0.2,1.9-0.5c0.3-0.2,0.6-0.4,0.8-0.6c0,0.4-0.1,0.7-0.2,1
			c-0.1,0.4,0.5,0.4,0.8,0.3c0.5-0.2,1-0.5,1.1-1c0.2-0.7,0.4-1.5,0.9-2.1c0.3-0.3,0.4-0.4,0.9-0.7c0,0,0,0,0.1,0
			c0,0.1-0.1,0.3-0.1,0.4c-0.2,1.1-0.5,2.5,0,3.6c0.4,1,2.3,0.1,2.8-0.2c0.4-0.2,0.8-0.5,1.2-0.8c-0.2,0.5-0.3,1.1-0.4,1.6
			c-0.1,0.4,0.4,0.5,0.7,0.4c0.4-0.1,0.9-0.4,1.1-0.9c0.3-0.8,0.5-1.5,0.9-2.3c0.9,0.5-0.2,2.9,0.4,3.6c0.5,0.6,1.4,0.4,2.1,0.2
			c0.2-0.1,0.4-0.2,0.6-0.3c0,0.5,0.1,1,0.5,1.3c0.6,0.6,1.8,0.4,2.4,0c0.1,0,0.1-0.1,0.2-0.1c0,0.5,0,1,0.5,1.3
			c0.6,0.3,1.4,0.2,2,0.1c0.8-0.2,1.4-0.6,1.9-1.3C-505.9,454.2-506.3,453.4-506.9,453.9z M-561.1,461.9
			C-561.1,461.9-561.1,461.9-561.1,461.9C-561.1,461.9-561.1,461.9-561.1,461.9c-0.2,0.2-0.6,0.2-0.8,0.1c-1-0.3-0.9-2.1-0.8-2.9
			c0.1-0.7,0.4-1.4,0.7-2c0.1,0.1,0.1,0.3,0.2,0.4c0.4,0.7,0.6,1.5,0.7,2.3C-560.9,460.5-560.9,461.4-561.1,461.9z M-557.4,453.2
			c0,0-0.1,0.1-0.3,0.1c-0.4,0-0.7-0.5-0.8-0.7c-0.7-1-1-2.3-1-3.5c0-0.4,0.1-1,0.1-1.2c0,0,0.1-0.1,0.1-0.1c0.1,0,0.2-0.1,0.3-0.1
			c0.4-0.1,0.7,0.1,0.8,0.4c0.3,1.5,0.8,3.1,0.8,4.7C-557.4,452.9-557.4,453.1-557.4,453.2z M-544.4,448.3c-0.2-0.8-0.2-1.6-0.1-2.4
			c0-0.4,0.1-0.7,0.2-1.1c0-0.1,0-0.1,0.1-0.1c0.1,0,0.2,0.1,0.3,0.1c0.3,0.2,0.4,0.5,0.5,0.8C-543.4,446.5-543.9,447.4-544.4,448.3
			z M-530.9,449.8c0,0.1-0.1,0.2-0.1,0.4c-0.1,0-0.2,0-0.3,0c-0.3-0.2-0.5-0.7-0.5-1c-0.3-1.2-0.2-2.5,0.2-3.6
			c0.1-0.3,0.4-0.9,0.5-1.1c0,0,0.1,0,0.1,0c0.1,0,0.2,0,0.3,0c0.4,0,0.6,0.4,0.6,0.7C-530.4,446.6-530.4,448.3-530.9,449.8z
			 M-509.2,449.6c-0.6,1.4-1.1,3.1-1.9,4.4c0,0.1-0.2,0.2-0.2,0.3c0,0-0.2,0-0.2-0.1c-0.3-0.2-0.3-0.8-0.3-1.1
			c0-1.2,0.5-2.5,1.1-3.4c0.2-0.3,0.6-0.8,0.8-0.9c0,0,0.1,0,0.1,0c0.1,0,0.2,0.1,0.3,0.1C-509.2,448.8-509.1,449.2-509.2,449.6z"/>
		<path class="st1" d="M-561.1,461.9C-561.1,461.9-561.1,461.9-561.1,461.9L-561.1,461.9C-561.1,461.9-561.1,461.9-561.1,461.9z"/>
		<path class="st1" d="M-561.1,461.9C-561,461.9-561,461.9-561.1,461.9L-561.1,461.9z"/>
		<path class="st1" d="M-544.5,444.7C-544.5,444.7-544.5,444.7-544.5,444.7L-544.5,444.7z"/>
	</g>
</g>
</svg>
