<?xml version="1.0" encoding="utf-8"?>
<!-- Generator: Adobe Illustrator 19.0.0, SVG Export Plug-In . SVG Version: 6.00 Build 0)  -->
<svg version="1.1" id="Layer_1" xmlns="http://www.w3.org/2000/svg" xmlns:xlink="http://www.w3.org/1999/xlink" x="0px" y="0px"
	 viewBox="-580 396.7 86 86" style="enable-background:new -580 396.7 86 86;" xml:space="preserve">
<style type="text/css">
	.st0{fill:#B66FAD;}
	.st1{fill:#62BA47;}
	.st2{fill:#FFFFFF;}
</style>
<circle class="st0" cx="-534.8" cy="435.8" r="39"/>
<circle class="st1" cx="-566" cy="470.5" r="12.3"/>
<g>
	<path class="st2" d="M-560.9,467c-1.5,2.5-3.4,4.8-5.1,7.1c-0.8,1,0.5,1,1,0.3c1.8-2.4,3.8-4.9,5.3-7.5
		C-559,465.9-560.6,466.4-560.9,467L-560.9,467z"/>
	<path class="st2" d="M-563.6,466.3c-0.9,0-1.6,0.9-1.7,1.7c-0.2,0.8,0.3,1.5,1.1,1.5C-562.5,469.6-561.6,466.4-563.6,466.3
		c-0.4,0-1.1,1-0.5,1c0.4,0,0.7,0.4,0.7,0.8c0,0.1,0,0.3-0.1,0.5c-0.1,0.1,0,0,0,0c-0.1,0-0.2,0-0.2,0c-0.4,0-0.7-0.4-0.7-0.8
		c0-0.2,0-0.4,0.1-0.5c0.1-0.1,0.1,0,0,0c0.1,0,0.1,0,0.2,0C-563.8,467.3-563.1,466.3-563.6,466.3z"/>
	<path class="st2" d="M-561,471.6c-0.9,0-1.6,0.9-1.7,1.7c-0.2,0.8,0.3,1.5,1.1,1.5C-559.9,474.9-559,471.7-561,471.6
		c-0.4,0-1.1,1-0.5,1c0.4,0,0.7,0.4,0.7,0.8c0,0.1,0,0.3-0.1,0.5c-0.1,0.1,0,0,0,0c-0.1,0-0.2,0-0.2,0c-0.4,0-0.7-0.4-0.7-0.8
		c0-0.2,0-0.4,0.1-0.5c0.1-0.1,0.1,0,0,0c0.1,0,0.1,0,0.2,0C-561.2,472.6-560.5,471.6-561,471.6z"/>
</g>
<g>
	<path class="st2" d="M-522.6,431.4c-1-0.7-2.4-0.4-3.5,0c0-0.8-0.1-1.7-0.2-2.5c-0.1-0.7-1.4-0.2-1.7-0.1c-0.2,0.1-0.4,0.2-0.5,0.3
		c-0.3,0.2-0.5,0.5-0.6,0.8c-1.1,2.4-2.8,1-3.3,0.7l0,0c-0.4-0.3-0.9-0.5-1.5-0.5c-3.6,0.1-4.5,4.4-4.6,7.2c-0.1,2.2,0,6.5,3.1,6.7
		c1.5,0.1,3-1.4,3.6-2.5c0.8-1.4,1.1-3,1.2-4.5c0.1-0.9,0-2.5-0.4-4c0.7-0.2,1.4-0.5,2-0.9c0.1,3.6,0,7.2-0.2,10.8
		c-0.2,3-0.6,6.1-1,9.1c-0.1,0.7,0.7,0.6,1.1,0.5c0.6-0.3,1.3-0.9,1.4-1.5c0.4-2.1,0.7-4.2,0.9-6.4c1,0.1,2.1-0.2,3-0.8
		c2-1.4,2.7-4.1,2.9-6.4C-520.8,435.3-520.8,432.8-522.6,431.4z M-533.9,440.8c-0.1,0.3-0.2,0.6-0.3,0.9c-0.6-0.1-1-1.1-1.1-1.5
		c-0.4-1-0.5-2.2-0.5-3.3c0-1.1,0.1-2.3,0.4-3.4c0.1-0.3,0.2-0.6,0.3-0.8c1.4,1.2,1.6,3.1,1.6,4.8
		C-533.5,438.5-533.5,439.8-533.9,440.8z M-524.8,442.3c0,0.1-0.1,0.1-0.1,0.2c0,0,0,0,0,0c-1,0-1.6-1-1.5-2.1
		c0.2-1.8,0.3-3.6,0.3-5.4c0,0,0-0.1,0-0.1c0-0.6,0.1-1.1,0.4-1.6c0,0,0,0,0,0c0,0,0,0,0,0c0.4,0,0.7,0.3,0.9,0.7
		c0.8,1.2,0.9,2.9,0.9,4.1C-523.9,439.4-524,441.1-524.8,442.3z"/>
	<path class="st2" d="M-514.5,432.8c-3.5-0.8-5,3.5-5.5,6.1c-0.4,2.3-0.9,6.4,2.1,7.3c1.5,0.4,3.1-0.7,3.8-1.7
		c1-1.2,1.5-2.7,1.8-4.2C-511.8,438-511.3,433.5-514.5,432.8z M-515.9,443.3c-0.1,0.3-0.3,0.5-0.4,0.8c-0.5-0.3-0.8-1.3-0.9-1.7
		c-0.2-1.1-0.2-2.3-0.1-3.4c0.1-1.1,0.4-2.3,0.9-3.3c0.1-0.3,0.3-0.5,0.4-0.8c1.4,1.3,1.2,3.4,0.9,5.1
		C-515.2,441.1-515.4,442.3-515.9,443.3z"/>
	<path class="st2" d="M-543.3,433.5c0.5-1.2,1-2.4,1.4-3.6c0.8-2.3,1.3-4.3,0.7-6.3c-0.6-1.8-3.7-0.6-4.8,0.5
		c-1.7,1.8-2.3,4.4-2.6,6.8c-0.2,2.6-0.1,5.3,0.4,8c-0.5,1.2-1.1,2.4-1.8,3.6c-0.1,0.1-0.1,0.2-0.2,0.3c-0.1-0.1-0.2-0.3-0.3-0.5
		c-0.2-0.5-0.3-1-0.4-1.5c-0.5-4-0.6-8.2-1.7-12.1c-0.3-1.2-1.3-3.2-3.3-2.5c-1.5,0.5-2.4,1.6-3,2.9c-0.7-1.2-1.8-2.1-3.7-1.1
		c-0.8,0.4-1.4,1-1.8,1.6c-0.1-0.6-0.3-1.2-0.7-1.6c-0.9-0.8-3.2,2.1-2.4,2.7c0.5,0.4,0.6,1.4,0.8,2c0.4,1.4,0.6,2.9,0.9,4.3
		c0.1,0.8,0.3,1.5,0.4,2.3c0.5,3.1,1.1,6.2,1.7,9.3c0.1,0.3,0.2,0.4,0.4,0.4c0.7,0,2-1.8,1.8-2.6c-0.5-2.7-0.9-5.4-1.3-8
		c-0.2-1.1-0.3-2.3-0.3-3.5c-0.1-1.2-0.1-2.5,0.1-3.8c0-0.2,0.1-0.4,0.1-0.5c2.1,0.3,2.4,2.9,2.6,4.5c0.3,1.5,0.6,3.1,0.8,4.7
		c0.3,2.4,0.6,4.7,1,7.1c0,0.3,0.2,0.4,0.4,0.4c0.7,0,2-1.7,1.9-2.4c-0.3-2.5-0.6-5-0.9-7.5c-0.1-0.6-0.1-1.2-0.1-1.8
		c-0.1-2.2-0.1-4.3,0.3-6.4c0-0.1,0-0.1,0.1-0.2c0.5,0,0.9,0.7,1,0.9c1.3,2.2,1.5,4.8,1.8,7.2c0.2,1.6,0.3,3.3,0.5,5
		c0.1,1,0.3,2.2,0.8,3.1c0.7,1.1,1.9,0.4,2.8-0.4c0.9-0.8,1.6-1.8,2.2-2.9c0.4,1.4,1.2,2.9,2.5,2.9c2.2-0.2,3.8-2,4.5-4
		c0.8-2.2,1.2-5.3-0.9-6.9C-541.9,433.3-542.7,433.3-543.3,433.5z M-545.9,430.6c0.1-1.8,0.4-3.7,1.3-5.4c0,0,0.1,0,0.1,0
		c0.6,0.3,0.7,1,0.7,1.4c0.1,1.9-0.5,3.8-1.2,5.6c-0.3,0.7-0.5,1.4-0.8,2.1C-546,433.1-546,431.8-545.9,430.6z M-542.8,439.1
		c0,0.9-0.1,1.8-0.4,2.7c0,0.1,0,0.1-0.1,0.2c-0.1,0-0.2,0-0.3,0c-0.6-0.1-0.9-1-1.1-1.4c-0.4-0.9-0.6-1.9-0.8-2.9
		c0.3-0.5,0.5-1,0.8-1.4c0.4-0.4,0.7-0.3,1.2,0.1C-542.7,437-542.8,438.3-542.8,439.1z"/>
	<path class="st2" d="M-504.5,446.8c-0.4-0.6-1.4-0.3-1.8-0.2c-0.7,0.3-1.2,0.4-1.9-0.1c-0.5-0.3-0.9-0.9-0.9-1.4
		c-0.3-2.1,2.3-3.2,3.7-4.2c1.1-0.8,2.5-2.6,1.5-4.2c-1.1-1.7-3.4-1.9-5.2-1.3c-0.6,0.2-1.5,0.6-1.4,1.4c0.1,0.7,1.2,0.5,1.6,0.4
		c0.8-0.3,1.5-0.1,2.1,0.7c0.5,0.7,0.1,1.4-0.3,1.9c-0.9,0.9-2.2,1.4-3.1,2.2c-0.7,0.7-1.3,1.4-1.6,2.3c-0.5,1.2,0,2.7,1,3.6
		c1.5,1.2,3.6,0.9,5.3,0.2C-505.1,448-504.2,447.5-504.5,446.8z"/>
</g>
<path class="st2" d="M-569.6,465.9c-2,0.2-2.8,2.7-3,4.3c-0.2,1.4-0.2,5,1.9,5.2c2.2,0.2,3-2.7,3.2-4.3c0.1-1.4,0.1-5-1.9-5.2
	c-0.7-0.1-1.9,1.6-1.2,1.6c1.1,0.1,1.4,1.7,1.5,2.6c0.1,0.7,0.1,1.4,0,2.2c0,0.3-0.1,0.6-0.2,0.9c-0.1,0.2-0.4,0.7-0.1,0.6
	c-1,0.4-1.4-2-1.5-2.5c-0.1-0.7,0-1.5,0-2.2c0-0.4,0.1-0.8,0.3-1.1c0.1-0.4,0.3-0.4,0.1-0.4C-569.9,467.5-568.7,465.8-569.6,465.9z"
	/>
</svg>
