<?xml version="1.0" encoding="utf-8"?>
<!-- Generator: Adobe Illustrator 19.0.0, SVG Export Plug-In . SVG Version: 6.00 Build 0)  -->
<svg version="1.1" id="Layer_1" xmlns="http://www.w3.org/2000/svg" xmlns:xlink="http://www.w3.org/1999/xlink" x="0px" y="0px"
	 viewBox="-21 83 86 86" style="enable-background:new -21 83 86 86;" xml:space="preserve">
<style type="text/css">
	.st0{fill:#F37521;}
	.st1{fill:#A16125;}
	.st2{fill:#FFFFFF;}
</style>
<circle class="st0" cx="24" cy="120.1" r="36.3"/>
<path class="st1" d="M24,83.8v72.6c20.1,0,36.3-16.3,36.3-36.3C60.3,100,44,83.8,24,83.8z"/>
<g>
	<g>
		<path class="st2" d="M25.4,144.8c-0.3-0.1-0.7,0.1-0.9,0.2c0-0.3-0.1-0.6-0.1-0.9c0-0.3-0.9,0.2-0.8,0.6c0.1,0.6,0.1,1.2,0.1,1.8
			c0,0,0,0,0,0c0,0,0,0,0,0c0,0.3,0,0.5,0,0.8c-0.2,0.2-0.4,0.4-0.7,0.5c0-1.1-0.1-2.2,0-3.1c0,0,0-0.1,0-0.1c0,0,0,0,0,0
			c0,0,0,0,0,0c0,0,0,0,0,0c-0.2-0.1-0.7,0.2-0.8,0.4c0,0,0,0.1-0.1,0.1c-0.2,0.8-0.3,1.7-0.6,2.5c-0.1,0.3-0.2,1-0.7,0.6
			c-0.5-0.4-0.1-1.4,0-1.8c0.1-0.6,0.3-1.2,0.4-1.9c0-0.5-1,0-1,0.3c-0.1,0.4-0.5,1.7-0.6,2.7c-0.5,0.2-1.2,0.6-1.3,0.3
			c-0.1-0.3,0-0.8,0-1.1c0-0.6-0.4-0.8-1-0.9c0,0,0,0,0,0c0.1-0.2,0.3-0.5,0.4-0.7c0.2-0.2,0.4-0.3,0.7-0.1c0.3,0.3,1.3-0.3,1-0.5
			c-0.8-0.8-1.4-0.5-2.1,0.1c0.1-0.5,0.2-1,0.2-1.5c0-0.4-1,0-1,0.3c-0.1,1.5-0.8,3-1.3,4.4c-0.2,0.5,1,0.2,1.1-0.1
			c0.2-0.4,0.3-0.8,0.5-1.2c0.6,0.3-0.2,1.5,0.3,1.9c0.7,0.4,1.6,0.1,2.3-0.3c0.1,0.5,0.4,0.8,0.9,0.8c0.6,0,1.1-0.2,1.4-0.6
			c0,0.1,0,0.1,0,0.2c-0.5,0.3-1,0.7-1.4,1.1c-0.5,0.5-2.2,2.4-0.4,2.8c1.3,0.3,2.2-0.8,2.5-1.5c0.3-0.8,0.4-1.6,0.4-2.5
			c0.3-0.2,0.5-0.4,0.7-0.6c0,0.1,0,0.2,0,0.2c0,0,0,0.1,0,0.1c0,0,0,0.1,0,0.1c0,1.1-0.2,2.3-0.4,3.4c-0.1,0.5,1.1-0.1,1.1-0.4
			c0.1-0.7,0.2-1.5,0.2-2.2c0.3,0,0.7-0.1,1-0.4c0.8-0.6,0.8-1.6,0.7-2.4C26.2,146.1,26.1,145.1,25.4,144.8z M20.9,152.1
			c-1.2-0.3-0.3-1.2,0.8-2.1C21.5,151.2,21.3,152.2,20.9,152.1z M25.4,148.3c0,0.1-0.1,0.3-0.2,0.4c0-0.1,0-0.1-0.1-0.1
			c-0.3,0-0.4-0.2-0.4-0.4c0-0.7,0-1.4-0.1-2.1c0-0.6,0.2-0.7,0.5-0.2c0.2,0.3,0.3,0.7,0.3,1C25.5,147.4,25.5,147.9,25.4,148.3z"/>
		<path class="st2" d="M34.1,142.4C34.1,142.4,34.1,142.4,34.1,142.4c-0.9,0.6-0.8,1.9-0.6,2.7c0.1,0.3,0.2,0.7,0.4,1
			c-0.3,0.5-0.8,1.2-1.4,1.1c-1.1-0.2,0-1.8,0.1-2.4c0.3-1.5-1.1-1.6-1.9-0.6c-0.3,0.4-0.2,1.1,0.3,0.5c0.4-0.5,0.9-0.2,0.9,0.3
			c0,0.5-0.5,1.1-0.7,1.6c-0.1,0.3-0.1,0.5-0.1,0.8c-0.4,0.5-0.8,0.6-1.1,0c-0.2-0.4-0.4-0.9-0.5-1.4c0-0.3-0.1-0.6-0.1-0.8
			c0-0.1,0-0.3-0.1-0.4c0,0,0-0.1,0-0.1c-0.4-1.1-1.7-0.2-2.1,0.5c-0.5,0.9-0.5,2.1-0.2,3c0.3,0.9,1.3,1.1,2.1,0.2
			c0,0,0.1-0.1,0.1-0.1c0.1,0.1,0.2,0.3,0.3,0.4c0.5,0.4,1.4-0.3,1.9-0.8c0,0,0.1,0.1,0.1,0.1c0.9,0.7,2.1-0.5,2.6-1.5
			c0.3,0.4,0.7,0.6,1.2,0.4c1.2-0.5,1-2,0.7-2.8C35.8,143.6,35,142,34.1,142.4z M28.6,148.2c-0.2,0-0.3-0.2-0.4-0.3
			c-0.3-0.4-0.3-1-0.4-1.4c0-0.3,0-0.6,0.1-0.8c0-0.1,0.1-0.3,0.1-0.4c0.1-0.3,0.6,0.1,0.6,0.2c0.1,0.7,0.2,1.4,0.2,2
			C28.7,147.7,28.7,148.2,28.6,148.2z M35.5,145.2c0,0.1,0.1,0.3,0.1,0.4c0,0.1,0.1,0.3,0.1,0.3s-1.1-0.6-1.2-0.8
			c-0.2-0.3-0.3-0.7-0.4-1c-0.1-0.2-0.1-0.4-0.1-0.6c0-0.1,0-0.2,0-0.2c0.5-0.1,0.9,0.5,1.1,0.8C35.3,144.5,35.4,144.9,35.5,145.2z"
			/>
		<path class="st2" d="M36.3,140.7c0.6-0.3,0.6-1.2,0.5-1.7c0-0.2-0.1-0.4-0.3-0.2c-0.2,0.2-0.2,0.5-0.2,0.7c0,0.1,0,0.1,0,0.2
			c0,0,0,0,0,0c0,0,0,0,0,0c0,0,0,0,0,0c0,0-0.1,0-0.1,0c0,0,0,0,0,0s-0.3,0.1-0.4,0.3c-0.1,0.1-0.1,0.6,0,0.7
			C35.9,140.7,36.1,140.7,36.3,140.7z"/>
		<path class="st2" d="M40.2,142.8c-0.2,0.7-1.4-0.6-1.5-0.7c-0.1-0.2-0.2-0.3-0.4-0.5c-0.3-0.4-0.5-0.8-0.7-1.1
			c0-0.1-0.1-0.2-0.1-0.2c-0.3-0.4-0.6,0.6-0.5,0.9c0.3,0.6,0.6,1.1,0.9,1.7c0.2,0.3,0.3,0.6,0.4,1c0.1,0.4,0.2,0.5-0.2,0.5
			c-1.1,0-1.6-2.1-1.9-2.9c-0.2-0.6-0.6,0.3-0.5,0.7c0.2,0.8,1.1,4.4,2.7,3.1c0.4-0.3,0.6-0.8,0.7-1.2c0.8,0.5,1.5-0.4,1.7-1.2
			C41.1,142.1,40.5,142.1,40.2,142.8z"/>
		<path class="st2" d="M11.2,144.5c-0.5,0.1-1.1,0.1-1.6-0.4c-0.4-0.4-0.2-0.9-0.1-1.3c0.2-0.5,0.5-0.9,0.8-1.2
			c0.1-0.1,0.2-0.2,0.3-0.3c0.3-0.2,0.3-0.2,0.2,0c0.1,0.2,0,0.6,0,0.8c-0.1,0.4,1.1,0.3,1.1,0c0.1-0.7,0-1.5-1-1.5
			c-1.1,0-1.8,0.9-2.3,1.6c-0.4,0.6-0.7,1.3-0.1,2.1c0.7,0.9,2.2,0.8,2.9,0.7C12.2,145,11.9,144.4,11.2,144.5z"/>
	</g>
</g>
<g>
	<g>
		<g>
			<path class="st2" d="M24.6,109.1c0,0-0.1,0-0.2,0c0,0-0.1,0-0.1,0c-2,0.2-2.5,2.7-2.5,4.2c0,1.3,0.2,3.9,1.9,3.9
				c0.8,0,1.6-0.8,2-1.5c0.4-0.8,0.6-1.7,0.7-2.6C26.4,111.9,26.3,109.3,24.6,109.1z M24.6,115.2c0,0.1-0.1,0.3-0.1,0.4
				c0,0-0.1,0.1-0.1,0.2c0,0,0,0,0,0c-1,0-1.2-2.1-1.2-2.7c0-0.7,0-1.3,0.2-2c0.1-0.2,0.1-0.4,0.2-0.6c1,0.1,1.2,2.1,1.2,2.7
				C24.9,113.9,24.8,114.5,24.6,115.2z"/>
			<path class="st2" d="M19.8,109.4c-0.6-0.3-1.3,0.1-1.9,0.4c-0.1-0.5-0.2-1-0.3-1.4c-0.1-0.4-0.8,0-1,0.1
				c-0.2,0.2-0.4,0.4-0.5,0.6c0,0,0,0.1,0,0.1c-0.1,0.4-0.1,0.6-0.3,0.9c-0.1,0.1,0,0.1-0.1,0.1c-0.4,0.2-1-0.1-1.3-0.2c0,0,0,0,0,0
				c-0.2-0.1-0.5-0.2-0.8-0.2c0,0-0.1,0-0.2,0c0,0-0.1,0-0.1,0c-2.1,0.5-2.3,3.1-2.1,4.5c0.1,1.3,0.7,3.8,2.5,3.6
				c0.9-0.1,1.6-1.1,1.9-1.8c0.4-0.8,0.4-1.8,0.4-2.7c0-0.5-0.1-1.3-0.4-2c0.3-0.1,0.6-0.4,0.9-0.6c0.4,1.9,0.6,3.8,0.8,5.8
				c0.1,1.8,0.3,3.5,0.3,5.3c0,0.4,0.5,0.3,0.7,0.1c0.3-0.2,0.6-0.6,0.6-1c0-1.2,0-2.5-0.1-3.7c0.5-0.1,1.1-0.3,1.5-0.8
				c1-1.1,1.1-2.7,1-4C21.1,111.6,20.9,109.9,19.8,109.4z M14.5,115.9c0,0.1,0,0.3-0.1,0.4c0,0,0,0.1-0.1,0.2c0,0,0,0,0,0
				c-1,0.2-1.5-1.9-1.6-2.5c-0.1-0.6-0.2-1.3-0.1-2c0-0.2,0.1-0.4,0.1-0.6c0.1,0,0.2,0,0.2,0c0,0,0.1,0.1,0.1,0.1
				c0.1,0,0.2,0.1,0.3,0.1c0.7,0.5,1,1.8,1.1,2.3C14.5,114.5,14.6,115.2,14.5,115.9z M18.3,110.7C18.4,110.6,18.4,110.6,18.3,110.7
				L18.3,110.7z M19.6,115.9C19.6,115.9,19.6,115.9,19.6,115.9L19.6,115.9z M19.6,115.8c0,0,0,0.1-0.1,0.1c0,0,0,0,0,0
				c-0.6,0.1-0.9-0.4-0.9-0.9c0-0.1,0-0.1,0-0.1c-0.1-1-0.2-2.1-0.3-3.1c0,0,0,0,0-0.1c0-0.3,0-0.6,0-1c0,0,0,0,0,0c0,0,0,0,0,0
				c0.2,0,0.4,0.1,0.6,0.3c0.6,0.6,0.7,1.5,0.8,2.3C19.8,114.1,19.9,115,19.6,115.8z"/>
			<path class="st2" d="M8.5,112.6c0.2-0.7,0.3-1.4,0.4-2.1c0.2-1.1,0.4-2.7-0.2-3.7c-0.7-1-2-0.1-2.5,0.6c-0.8,1.2-0.8,2.8-0.7,4.1
				c0.1,1.6,0.5,3.1,1,4.5c-0.2,0.7-0.3,1.5-0.6,2.2c0,0.1-0.1,0.1-0.1,0.2c-0.1-0.1-0.1-0.2-0.2-0.3c-0.2-0.3-0.3-0.5-0.4-0.8
				c-0.7-2.2-1-4.6-2.1-6.8c-0.3-0.7-1-1.7-2.1-1.2c-0.8,0.3-1.2,1.1-1.4,1.8c-0.5-0.7-1.2-1.1-2.2-0.4c-0.4,0.3-0.7,0.6-0.9,1
				c-0.1-0.3-0.3-0.7-0.6-0.9c-0.6-0.4-1.8,1.3-1.3,1.6c0.4,0.2,0.5,0.7,0.7,1.1c0.3,0.8,0.6,1.6,0.9,2.4c0.2,0.4,0.3,0.8,0.4,1.3
				c0.5,1.7,1.2,3.4,1.9,5.1c0.1,0.2,0.2,0.2,0.3,0.2c0.4-0.1,1-1.1,0.9-1.5c-0.5-1.5-1-3-1.5-4.5c-0.2-0.6-0.4-1.3-0.5-2
				c-0.2-0.7-0.3-1.4-0.3-2.1c0-0.1,0-0.2,0-0.3c1-0.4,1.8,2,2,2.4c0.3,0.9,0.7,1.7,0.9,2.6c0.4,1.3,0.8,2.6,1.3,4
				c0.1,0.2,0.1,0.2,0.3,0.2c0.4,0,1-1,0.9-1.5c-0.4-1.4-0.8-2.8-1.2-4.2c-0.1-0.3-0.2-0.7-0.3-1c-0.3-1.2-0.6-2.4-0.4-3.6
				c0,0,0-0.1,0-0.1c0.3,0,0.5,0.3,0.7,0.5c0.9,1.1,1.3,2.7,1.7,4c0.3,0.9,0.5,1.9,0.8,2.8c0.2,0.6,0.4,1.2,0.8,1.7
				c0.5,0.6,1.1,0.1,1.5-0.4c0.4-0.5,0.7-1.1,0.9-1.8c0.4,0.8,0.9,1.6,1.6,1.5c1.2-0.2,1.8-1.5,2-2.6c0.2-1.2,0.1-3.3-1.1-3.9
				C9.2,112.4,8.8,112.4,8.5,112.6z M6.8,111.1c-0.1-1-0.2-2.1,0.2-3.2c0,0,0,0,0.1,0c0.3,0.1,0.4,0.5,0.5,0.8
				c0.2,1,0.1,2.2-0.1,3.3c-0.1,0.4-0.1,0.8-0.2,1.3C7,112.5,6.9,111.8,6.8,111.1z M9.3,115.8c0.1,0.5,0.1,1.1,0.1,1.6
				c0,0,0,0.1,0,0.1c-0.1,0-0.1,0-0.2,0c-0.3,0-0.6-0.5-0.7-0.7c-0.3-0.5-0.5-1.1-0.7-1.6c0.1-0.3,0.2-0.6,0.3-0.9
				c0.2-0.3,0.3-0.3,0.6-0.1C9.1,114.5,9.2,115.3,9.3,115.8z"/>
			<path class="st2" d="M51.2,121.5c-0.1-0.3-0.6-0.3-0.9-0.2c0,0,0,0-0.1-0.1c-0.1-0.1-0.1-0.2-0.1-0.3c-0.1-0.3-0.1-0.6,0-0.9
				c0.1-0.7,0.3-1.4,0.6-2.1c0,0,0,0,0,0c0.2-0.5,0.5-1.1,0.8-1.6c0,0,0,0,0-0.1c0,0,0,0,0,0c0.2-0.4,0.4-0.7,0.6-1
				c0.2-0.4-0.4-0.5-0.7-0.5c-0.1,0-0.1,0-0.2,0c-0.3-0.4-0.9-0.6-1.6-0.5c-1.7,0.1-2.8,1.6-3.1,3c-0.2,0.8,0.3,1.7,1.2,2
				c0.1,0,0.3,0.1,0.4,0.1c-0.2,0.3-0.5,0.6-0.8,0.9c-0.3,0.3-0.7-0.5-0.7-0.8c0-0.2-0.1-0.3-0.4-0.3c0,0,0,0-0.1,0
				c-0.3,0-0.7,0.1-1,0.3c0,0-0.1-0.1-0.1-0.2c-0.1-0.4,0-0.9,0-1.2c0.2-1.4,0.6-2.7,1.1-4c0,0,0,0,0-0.1c0.2-0.9-0.4-1.5-1.3-1.6
				c-0.9-0.1-1.8,0.4-2.4,0.9c-0.9,0.8-1.4,2-1.7,3.2l0,0c-0.2,0.3-0.3,0.9-0.7,1.2c0,0,0,0,0,0c-0.1,0-0.2,0-0.2,0
				c-0.3-0.3-0.1-1.1,0-1.5c0.1-1.2,0.4-2.6,1-3.7c0.2-0.3,0.3-0.6,0.5-0.9c0.2-0.3,0.1-0.6-0.4-0.6c-0.5,0-0.9,0.3-1.2,0.6
				c-0.2,0.3-0.3,0.6-0.5,0.9c-0.2,0.4-0.5,0.8-0.8,1.1c-0.3,0.3-0.5,0.4-0.9,0.6c0,0-0.1,0-0.1,0.1c0.2-1.2,0.3-2.5,0.5-3.7
				c0-0.2,0-0.3-0.2-0.3c0,0,0,0,0,0c0,0,0,0,0,0c0,0,0,0,0,0c0,0,0,0,0,0l0,0c-0.1,0-0.3,0-0.4,0c-0.3,0.1-0.7,0.3-0.9,0.5
				c-0.1,0.1-0.1,0.2-0.1,0.3c-0.5,1.7-1.1,3.5-2.3,5c-0.1,0.1-0.1,0.1-0.2,0.2c0,0,0,0-0.1,0.1l0,0c0,0-0.1,0-0.1,0
				c-0.3-0.1-0.5-0.6-0.6-0.8c-0.3-1.1-0.1-2.2,0.1-3.3c0.1-0.2,0.1-0.4,0.2-0.6c0.1-0.1,0.2-0.3,0.2-0.5c0,0,0,0,0,0c0,0,0,0,0,0
				c0.2,0.1,0.3,0.4,0.4,0.6c0.3,0.5,2-0.4,1.7-1c-0.4-0.9-1.4-1.1-2.3-0.6c-0.6,0.3-1,0.8-1.3,1.3c0,0-0.1,0.1-0.1,0.1
				c0,0,0,0,0,0.1c-0.1,0.1-0.1,0.2-0.1,0.3c0,0,0,0.1,0,0.1c-0.1,0.3-0.3,0.6-0.5,0.9c0.1-1,0.3-2.1,0.4-3.1
				c0.1-0.8-1.5,0.1-1.6,0.4c-0.2,0.5-0.4,0.9-0.6,1.4c0-0.5-0.2-1-0.3-1.4c-0.5-1.2-1.7-1.2-2.6-0.3c-0.2,0.2-0.6,0.7-0.4,0.9
				c0.2,0.2,0.7,0,0.9-0.2c0,0,0,0,0.1,0c0.1,0,0.2,0.1,0.2,0.2c0.2,0.2,0.3,0.4,0.3,0.7c0.2,0.7,0.3,1.4,0.2,2.1
				c0,0.7-0.1,1.4-0.3,2c0,0,0,0.1,0,0.1c0,0.1-0.1,0.1-0.1,0.2c-0.2-0.1-0.3-0.3-0.4-0.5c-0.3-0.5-1.6,0.6-1.3,1.2
				c0.7,1.3,2.1,0.5,2.8-0.4c0.3-0.4,0.5-0.8,0.6-1.2c0.1-0.4,0.3-0.7,0.5-1.1c-0.1,1.1-0.3,2.2-0.5,3.2c-0.1,0.4,0.4,0.4,0.6,0.3
				c0.4-0.2,0.8-0.5,0.9-0.9c0.1-0.4,0.3-0.8,0.5-1.2c0,0.4,0.1,0.9,0.2,1.3c0.1,0.5,0.4,1,0.9,1.2c0.8,0.3,1.7-0.3,2.3-0.7
				c0.5-0.4,0.9-0.8,1.2-1.3c-0.1,0.7-0.2,1.4-0.4,2.1c-0.1,0.4,0.4,0.4,0.6,0.3c0.4-0.1,0.8-0.4,0.9-0.8c0.2-0.6,0.4-1.3,0.9-1.9
				c0.2-0.3,0.4-0.3,0.8-0.6c0,0,0,0,0.1,0c-0.2,1-0.4,2-0.4,3c0,0.9,0.6,1.2,1.5,1c0.4-0.1,0.7-0.2,1-0.4c0,0.4,0.2,0.7,0.4,1
				c0.6,0.5,1.5,0.3,2.1-0.1c0.1,0,0.1-0.1,0.2-0.1c0,0.1,0,0.3,0,0.4c0.1,0.9,0.9,1,1.6,0.8c0.4,0.8,1.6,0.9,2.5,0.6
				c0.2-0.1,0.3-0.1,0.5-0.2c0,0.2,0,0.3,0,0.5c0.2,1.1,1.2,1.3,2.2,0.9C50.8,122.1,51.4,121.8,51.2,121.5z M43.1,118.6
				c0,0-0.1,0-0.2-0.1c-0.3-0.2-0.2-0.7-0.3-1c0-0.4,0-0.9,0.1-1.3c0,0,0,0,0,0c0-0.1,0-0.1,0-0.1c0.2-0.6,0.4-1.2,0.7-1.7
				c0.2-0.3,0.5-0.7,0.7-0.9c0,0,0.1,0,0.1,0c0.1,0,0.2,0,0.2,0.1c0.4,0.1,0.5,0.4,0.4,0.7c-0.5,1.3-0.8,2.8-1.6,4
				C43.2,118.3,43.1,118.5,43.1,118.6z M45.3,119.6L45.3,119.6L45.3,119.6L45.3,119.6z M48.4,117c0-0.5,0.5-1.5,0.9-1.7
				c-0.1,0,0.2,0.1,0.3,0.2c0.2,0.3,0.2,0.6,0.1,0.9c-0.3,0.6-0.6,1.2-0.8,1.8C48.5,117.9,48.4,117.4,48.4,117z M50.4,121.3
				C50.4,121.3,50.4,121.3,50.4,121.3L50.4,121.3z"/>
		</g>
	</g>
	<g>
		<path class="st2" d="M49.8,132.3c-0.3,0.5-0.7,0.9-1.1,1.3c-0.1,0-0.1,0.1-0.3,0c-0.3-0.2-0.1-0.9-0.1-1.1
			c0.1-0.9,0.4-1.8,0.7-2.6c0.1-0.2,0.1-0.4,0.2-0.5c0.1-0.3,0.2-0.6,0.4-0.9c0,0,0,0,0-0.1c0.3-0.8-0.3-1.5-1.3-1.6
			c-0.9-0.1-1.8,0.3-2.4,0.8c-0.8,0.7-1.4,1.7-1.7,2.8c0,0-0.1,0.1-0.1,0.2c-0.2,0.4-0.4,0.8-0.8,1.1c-0.1,0.1,0,0.1-0.1,0.1
			c-0.4-0.2-0.2-0.7-0.2-1.1c0.1-0.6,0.2-1.2-0.1-1.8c-0.2-0.4-0.7-0.6-1.1-0.6c0-0.1,0.1-0.2,0.1-0.2c0-0.1,0.1-0.2,0.2-0.3
			c0.3-0.4,0.6-0.9,1-1.2c0,0,0,0,0,0c0,0,0,0,0,0c0.2,0.1,0.4,0.3,0.5,0.4c0.4,0.5,2-0.3,1.6-0.8c-0.5-0.7-1.2-0.8-1.8-0.7
			c-0.4,0.1-0.9,0.3-1.3,0.6c-0.1,0.1-0.1,0.1-0.2,0.2c0.1-0.8,0.2-1.6,0.2-2.4c0-0.6-1.7,0-1.7,0.6c0.1,1.1-0.1,2.2-0.3,3.3
			c0,0,0,0.1-0.1,0.1c-0.4,0.9-1,1.8-2,2.3c-0.1,0.1-0.3,0.1-0.4,0.2c0,0-0.1,0-0.1,0c0,0,0,0,0-0.1c-0.1-0.2-0.1-0.3-0.1-0.5
			c-0.1-0.9,0.1-1.9,0.3-2.8c0.1-0.6,0.3-1.2,0.5-1.8c0.1-0.2,0.3-0.5,0.4-0.7c0.1-0.3,0-0.6-0.4-0.5c-0.5,0-0.9,0.3-1.1,0.7
			c-0.2,0.3-0.3,0.6-0.5,0.9c-0.2,0.4-0.5,0.8-0.8,1.1c-0.3,0.3-0.5,0.4-0.9,0.6c0,0-0.1,0-0.1,0.1c0.1-1.2,0.2-2.4,0.3-3.6
			c0.1-0.8-1.7,0-1.7,0.5c0,0.5-0.1,1-0.1,1.5c-0.1,0.1-0.1,0.2-0.1,0.3c-0.1,1.1-0.4,2.4-1.2,3.3c0,0.1-0.1,0.1-0.3,0.1
			c-0.3-0.1-0.4-0.8-0.4-1c-0.1-0.9-0.1-1.8,0-2.7c0-0.2,0-0.4,0.1-0.6c0-0.3,0.1-0.6,0.1-0.9c0,0,0,0,0-0.1
			c0.1-0.9-0.7-1.3-1.7-1.2c-0.9,0.1-1.6,0.7-2.1,1.4c-0.6,0.9-0.9,2-0.9,3.2c0,0.1,0,0.1-0.1,0.2c-0.1,0.4-0.2,0.9-0.5,1.2
			c-0.1,0.1,0,0.1-0.1,0.1c-0.4-0.1-0.4-0.7-0.4-1c-0.1-0.6-0.1-1.2-0.5-1.7c-0.3-0.4-0.8-0.4-1.2-0.2c0-0.1,0-0.2,0.1-0.2
			c0-0.1,0.1-0.2,0.1-0.3c0.1-0.5,0.3-1,0.6-1.4c0,0,0,0,0,0c0,0,0,0,0,0c0.2,0,0.4,0.2,0.5,0.3c0.5,0.4,1.9-0.8,1.4-1.2
			c-0.7-0.5-1.4-0.5-1.9-0.2c-0.4,0.2-0.8,0.5-1.1,0.9c-0.1,0.1-0.1,0.1-0.2,0.2c-0.1-0.8-0.2-1.6-0.4-2.3c-0.2-0.6-1.7,0.5-1.5,1.1
			c0.2,0.7,0.3,1.4,0.4,2.1c-0.3,1-0.7,2-1.3,2.9c-0.3,0.5-0.8,1-1.1,1.2c-0.8,0.7-1.4,0.3-1.7-0.3c0,0,0.1-0.1,0.1-0.1
			c0.9-1.2,1.7-2.6,1.7-4c0-0.8-0.5-1.7-1.6-1.4c-1.1,0.2-1.7,1.2-2,2c-0.3,0.9-0.3,2-0.2,2.9c0,0.3,0.1,0.6,0.2,1
			c-0.1,0.1-0.3,0.2-0.4,0.3c-0.2,0.2-0.5,0.4-0.8,0.5c-0.1,0-0.2,0-0.3-0.2c-0.6-0.6-0.5-1.7-0.6-2.4c-0.1-0.8-0.2-1.7-0.5-2.5
			c-0.2-0.5-0.7-1.1-1.4-0.9c-0.8,0.2-1.4,0.9-1.6,1.6c0,0,0,0.1,0,0.1c-0.1-0.4-0.3-0.8-0.4-1.1c-0.3-0.6-1.5,0.8-1.3,1.3
			c0.4,0.8,0.6,1.7,0.8,2.5v0c0,0,0,0,0,0s0,0.2,0,0.2c0,0.3-0.1,0.6-0.1,0.9c-0.1,0.6-0.3,1.3-0.7,1.8c0,0,0,0,0,0
			c-0.1-0.1-0.1-0.2-0.2-0.3c-0.2-0.4-0.4-0.8-0.6-1.2c-0.4-1.1-0.7-2.2-0.9-3.4c0,0,0,0,0-0.1c-0.2-0.8-1-1-1.9-0.5
			c-0.8,0.5-1.3,1.3-1.5,2.1c-0.3,1.2-0.1,2.6,0.4,3.8c-0.3,0.5-0.7,0.9-1,1.4c-0.3-0.3-0.6-0.4-1-0.5c0.3-1.3-0.1-2.9-0.6-3.9
			c-0.4-0.7-1-1.4-2-1.1c-0.7,0.2-1.2,1-1.5,1.6c-0.4,0.8-0.3,1.6,0,2.3c0.3,0.7,1.4-0.8,1.2-1.3c-0.1-0.2-0.2-0.5-0.2-0.8
			c0-0.1,0-0.1,0-0.2c0,0,0.1,0,0.1-0.1c0,0,0.1,0,0.2,0c0.6,0.1,0.9,0.7,1.1,1.1c0.3,0.6,0.5,1.3,0.6,1.9c0,0.2,0,0.5,0,0.7
			c-0.1,0.1-0.3,0.2-0.4,0.4c-0.1,0.1-0.2,0.2-0.3,0.3c-0.2,0.3-0.3,0.7-0.2,0.9c0,0.1,0.1,0.2,0.1,0.2c0.1,0,0.2,0,0.3,0
			c0.3-0.1,0.5-0.3,0.7-0.5c0.3-0.1,0.7,0.1,0.9,0.3c-0.6,1-1,2-1.1,3.2c-0.1,1-0.1,2.4,0.7,3.1c0.6,0.5,1.5,0.2,2-0.3
			c1.2-1.3,1-3.4,0.6-4.9c-0.1-0.5-0.3-1.2-0.7-1.8c0.3-0.4,0.6-0.8,0.9-1.2c0.3,0.4,0.6,0.9,1.2,1c0.7,0.1,1.4-0.7,1.7-1.2
			c0-0.1,0.1-0.1,0.1-0.2c0.3,0.5,0.8,1,1.4,0.5c0.6-0.5,1-1.1,1.4-1.9c0.1,0.4,0.2,0.8,0.2,1.2c0.2,0.8,1.3-0.5,1.2-1
			c-0.2-1.2-0.3-2.4-0.2-3.7c0-0.4,0.1-0.9,0.2-1.3c0-0.2,0.1-0.3,0.1-0.5c0,0,0,0,0,0c0,0,0.1,0,0.1,0.1c0.3,0.2,0.4,0.6,0.5,0.8
			c0.3,0.7,0.4,1.6,0.5,2.4c0.1,0.8,0.3,3.3,1.9,2.6c0.7-0.3,1.3-0.8,2-1.3c0.1,0.2,0.2,0.4,0.4,0.5c0.8,0.9,2.2,0.1,2.9-0.4
			c0.9-0.7,1.6-1.6,2.2-2.5c0,0.9,0,1.9,0,2.8c0,0.4,0.4,0.3,0.6,0.2c0.3-0.2,0.7-0.6,0.7-1c0.1-0.7,0.1-1.4,0.2-2.1
			c0.8,0.2,0.5,2.4,1.1,2.8c0.6,0.4,1.3,0,1.7-0.3c0.2-0.1,0.3-0.3,0.4-0.4c0.1,0.4,0.3,0.8,0.7,1c0.6,0.4,1.5-0.1,2-0.5
			c0.1,0,0.1-0.1,0.1-0.1c0.1,0.4,0.3,0.8,0.7,1c0.5,0.1,1.2-0.1,1.6-0.4c0.3-0.2,0.5-0.3,0.7-0.6c0,0.3-0.1,0.6-0.1,0.9
			c-0.1,0.4,0.4,0.4,0.7,0.3c0.4-0.1,0.8-0.4,0.9-0.8c0.2-0.6,0.4-1.3,0.8-1.8c0.2-0.3,0.4-0.3,0.8-0.6c0,0,0,0,0.1,0
			c0,0.1,0,0.2-0.1,0.4c-0.1,0.9-0.4,2.2,0,3.1c0.4,0.9,1.9,0.1,2.4-0.2c0.4-0.2,0.7-0.4,1-0.6c-0.1,0.5-0.3,0.9-0.4,1.4
			c-0.1,0.4,0.3,0.4,0.6,0.3c0.4-0.1,0.8-0.4,0.9-0.7c0.2-0.7,0.5-1.3,0.7-1.9c0.8,0.4-0.2,2.5,0.4,3.1c0.5,0.5,1.2,0.4,1.8,0.2
			c0.2-0.1,0.4-0.2,0.5-0.3c0,0.4,0.1,0.8,0.4,1.1c0.5,0.5,1.5,0.3,2.1,0c0.1,0,0.1-0.1,0.2-0.1c0,0.4,0,0.9,0.4,1.1
			c0.5,0.3,1.2,0.2,1.7,0c0.7-0.2,1.2-0.5,1.6-1.1C50.6,132.6,50.3,131.9,49.8,132.3z M3.3,139.2C3.3,139.2,3.3,139.2,3.3,139.2
			C3.3,139.2,3.3,139.2,3.3,139.2c-0.2,0.2-0.5,0.2-0.7,0.1c-0.8-0.3-0.7-1.8-0.7-2.5c0.1-0.6,0.3-1.2,0.6-1.7
			c0.1,0.1,0.1,0.2,0.2,0.3c0.3,0.6,0.5,1.3,0.6,2C3.4,138,3.5,138.7,3.3,139.2z M6.5,131.7c0,0-0.1,0.1-0.2,0.1
			c-0.3,0-0.6-0.4-0.7-0.6c-0.6-0.8-0.8-2-0.9-3c0-0.3,0.1-0.9,0.1-1.1c0,0,0,0,0.1-0.1c0.1,0,0.2-0.1,0.2-0.1
			c0.4-0.1,0.6,0.1,0.7,0.4c0.3,1.3,0.7,2.7,0.7,4.1C6.5,131.4,6.5,131.6,6.5,131.7z M17.6,127.5c-0.2-0.7-0.2-1.4-0.1-2
			c0-0.3,0.1-0.6,0.2-0.9c0,0,0-0.1,0-0.1c0.1,0,0.2,0,0.2,0.1c0.3,0.1,0.4,0.4,0.4,0.7C18.4,125.9,18.1,126.8,17.6,127.5z
			 M29.2,128.8c0,0.1-0.1,0.2-0.1,0.3c0,0-0.1,0-0.2,0c-0.3-0.1-0.4-0.6-0.5-0.9c-0.2-1-0.1-2.1,0.2-3.1c0.1-0.3,0.3-0.8,0.5-0.9
			c0,0,0.1,0,0.1,0c0.1,0,0.2,0,0.2,0c0.4,0,0.6,0.3,0.5,0.6C29.7,126.1,29.6,127.5,29.2,128.8z M47.8,128.6
			c-0.5,1.2-0.9,2.6-1.7,3.7c0,0.1-0.1,0.2-0.2,0.3c0,0-0.1,0-0.2-0.1c-0.2-0.2-0.2-0.7-0.2-1c0-1,0.4-2.1,0.9-2.9
			c0.2-0.3,0.5-0.7,0.7-0.8c0,0,0.1,0,0.1,0c0.1,0,0.2,0.1,0.2,0.1C47.8,128,47.9,128.3,47.8,128.6z"/>
		<path class="st2" d="M3.3,139.2C3.3,139.2,3.3,139.2,3.3,139.2L3.3,139.2C3.3,139.2,3.3,139.2,3.3,139.2z"/>
		<path class="st2" d="M3.3,139.2C3.3,139.1,3.3,139.2,3.3,139.2L3.3,139.2z"/>
		<path class="st2" d="M17.5,124.4C17.5,124.4,17.5,124.4,17.5,124.4L17.5,124.4z"/>
	</g>
</g>
<g>
	<g>
		<g>
			<path class="st0" d="M-0.4,154.4c1.3-0.2-1.6,3.6-0.8,1c0.3-1.2,1.2-2.2,2-3.1c0.3-0.3,0.7-0.6,1.1-0.9c0.4,0.1,0.4,0.3,0.1,0.5
				c-0.2,0.2-0.4,0.4-0.6,0.6c-0.8,0.7-1.9,1.2-3,1.6c-0.7,0.3,0.4,0.6,0.8,0.5c0.7-0.2,5.5-2.7,4-3.8c-1.8-1.3-4.2,2-4.8,2.9
				c-0.3,0.5-1.6,2.1-0.8,2.9c0.6,0.7,1.5,0.6,2.2,0.4c0.9-0.3,1.6-1.4,1.6-2.4c0-0.9-1.7-0.8-2.2-0.7C-1.8,154-1,154.5-0.4,154.4
				L-0.4,154.4z"/>
		</g>
		<g>
			<path class="st0" d="M27.5,163.9c0.6-0.6,2.4-3.2,1-3.8c-1-0.4-1.7,0.9-2,1.6c-0.3,0.9-0.5,2.3,0.2,3.2c0.8,0.9,2.7-0.3,3.3-0.9
				c0.4-0.4,0.4-1.2-0.3-0.6c-0.4,0.4-1.5,1.2-2.1,0.7c-0.4-0.4-0.4-1.2-0.4-1.7c0-0.3,0-0.7,0.1-1c0-0.1,0.1-0.3,0.1-0.4
				c0.1-0.2-0.1,0,0.1,0.1c1.1,0.2-0.6,2.4-0.9,2.7C26.1,164.4,27.1,164.4,27.5,163.9L27.5,163.9z"/>
		</g>
		<g>
			<path class="st0" d="M-11.5,145.7c1,0.2,3.2,0.2,3.5-1.2c0.2-1-1.3-1.1-1.8-1c-1,0.2-2,0.8-2.6,1.7c-0.8,1.1,0.4,2,1.4,2.3
				c0.5,0.2,1.1-0.3,0.3-0.5c-1.9-0.6-0.2-2,0.6-2.5c0.2-0.1,0.5-0.2,0.7-0.3c0.4-0.1,0.2-0.1,0.2,0.2c-0.1,1-2.1,0.8-2.7,0.7
				C-12.5,144.9-12.1,145.6-11.5,145.7L-11.5,145.7z"/>
		</g>
		<g>
			<path class="st0" d="M5.5,160.1c-0.4,1.4,0.9,1.9,2,1.1c0.5-0.4,0.9-1,1.2-1.6c0.3-0.5,0.6-1.3,1.1-1.6c-0.3,0-0.6-0.1-0.9-0.1
				c-1,1.1-1,2.8-1.4,4.1c-0.2,0.5,1.1,0.2,1.2-0.1c0.5-1.1,1.4-2.4,2.4-3.3c-0.3,0-0.6-0.1-0.9-0.1c-0.7,1-1.3,2.5-1.2,3.7
				c0.1,1.4,2.2,0.5,2.8,0.1c0.7-0.4-0.1-0.7-0.6-0.4c-1.2,0.7-1-0.4-0.9-1.1c0.1-0.8,0.4-1.7,0.9-2.3c0.4-0.5-0.7-0.3-0.9-0.1
				c-1,1-2.2,2.3-2.7,3.6c0.4,0,0.8-0.1,1.2-0.1c0.3-1.2,0.3-3,1.2-4c0.4-0.5-0.7-0.3-0.9-0.1c-0.6,0.4-0.9,1.2-1.3,1.8
				c-0.3,0.4-0.6,0.9-0.9,1.2c-0.3,0.4-0.3,0,0,0.2c-0.4-0.2-0.1-0.8-0.1-1C6.8,159.5,5.6,159.7,5.5,160.1L5.5,160.1z"/>
		</g>
		<g>
			<path class="st0" d="M36.7,158.7c-0.4-1.3-1.8,0-2.1,0.8c-0.4,1.1-0.3,2.4,0.1,3.3c0.4,0.9,1.4,1,2.1-0.1
				C37.6,161.5,36.9,159.9,36.7,158.7c-0.3,0.3-0.5,0.5-0.8,0.8c0.2,0.8,0.3,1.6,0.6,2.4c0.1,0.3,0.3,0.9,0.6,1.1
				c0.8,0.5,1.7-1.1,1.9-1.6c0.3-0.8-0.5-0.5-0.7,0.1c-0.3,0.8-0.5,0.4-0.8-0.1C37.1,160.6,36.9,159.6,36.7,158.7
				c-0.1-0.5-0.9,0.5-0.8,0.8c0.1,0.7,0.3,1.4,0.4,2.2c0,0.2,0.1,0.8-0.1,0.8c-0.2,0-0.4-0.1-0.5-0.3c-0.3-0.4-0.4-1-0.5-1.5
				c0-0.3,0-0.6,0-0.9c0-0.2,0-0.3,0.1-0.5c0.1-0.3,0.6,0.1,0.6,0.1C36.1,160,36.8,159.1,36.7,158.7L36.7,158.7z"/>
		</g>
		<g>
			<g>
				<path class="st0" d="M22.9,164.2c0,1.1,1.3,1.3,2.2,0.7c0.9-0.6,1-1.6,1-2.5c0-0.7-0.2-1.8-0.9-2.2c-0.4-0.2-0.9,0.1-1.2,0.3
					c-0.7,0.4-0.9,1-1,1.6c0,0.5,1.1-0.1,1.1-0.4c0-0.7,0.3-0.7,0.6-0.2c0.2,0.3,0.2,0.7,0.3,1.1c0.1,0.4,0,0.9-0.1,1.4
					c0,0.2-0.1,0.3-0.2,0.5c0.1-0.1,0-0.1-0.1-0.1c-0.4-0.1-0.5-0.3-0.5-0.6C24.1,163.3,22.9,163.9,22.9,164.2L22.9,164.2z"/>
			</g>
			<g>
				<path class="st0" d="M22.9,160.1c0.2,2.6,0,5.3-0.5,7.9c-0.1,0.5,1.2-0.1,1.3-0.4c0.5-2.7,0.6-5.4,0.3-8.1
					C23.9,159.1,22.9,159.7,22.9,160.1L22.9,160.1z"/>
			</g>
		</g>
		<g>
			<g>
				<path class="st0" d="M-8.2,150.6c-0.7,0.8,0,1.8,1,1.9c1,0.1,1.8-0.5,2.4-1.2c0.4-0.5,1.1-1.4,0.8-2.2c-0.1-0.4-0.7-0.5-1-0.6
					c-0.7-0.1-1.3,0.2-1.7,0.6c-0.4,0.4,0.8,0.6,1,0.4c0.5-0.5,0.7-0.3,0.5,0.3c-0.1,0.4-0.3,0.7-0.6,1c-0.3,0.4-0.6,0.7-1,1
					c-0.1,0.1-0.3,0.2-0.5,0.2c0.1,0,0.1-0.1-0.1-0.1c-0.2-0.3-0.1-0.5,0.1-0.8C-6.8,150.6-8,150.3-8.2,150.6L-8.2,150.6z"/>
			</g>
			<g>
				<path class="st0" d="M-5.5,147.5c-1.6,2.1-3.6,4-5.6,5.6c-0.4,0.3,0.8,0.7,1.1,0.5c2.1-1.7,4-3.7,5.6-5.8
					C-4.1,147.4-5.2,147.2-5.5,147.5L-5.5,147.5z"/>
			</g>
		</g>
		<g>
			<path class="st0" d="M21.6,159.9c-1.3,0-1.9,1.3-2.2,2.1c-0.2,0.7-0.5,2.7,0.9,2.9c1.5,0.2,2.2-1.3,2.4-2.1
				c0.1-0.8,0.2-2.7-1-2.9c-0.5-0.1-1.3,0.7-0.9,0.8c0.7,0.1,0.8,1,0.8,1.5c0,0.4,0,0.8-0.1,1.2c0,0.2-0.1,0.3-0.2,0.5
				c-0.1,0.1-0.3,0.4-0.1,0.3c-0.7,0.2-0.8-1.2-0.8-1.5c0-0.4,0.1-0.8,0.2-1.2c0.1-0.2,0.1-0.4,0.2-0.6c0.1-0.2,0.2-0.2,0.1-0.2
				C21.3,160.8,22.2,159.9,21.6,159.9z"/>
		</g>
		<g>
			<path class="st0" d="M-1.9,150.9c-1-0.7-2.2,0-2.9,0.6c-0.6,0.5-1.9,2-0.9,2.9c1,1,2.5,0.2,3.1-0.5C-2,153.4-0.9,151.8-1.9,150.9
				c-0.2-0.2-1.4,0-1.1,0.3c0.5,0.5,0.1,1.2-0.2,1.7c-0.2,0.3-0.4,0.6-0.7,0.9c-0.1,0.1-0.2,0.2-0.4,0.3c-0.1,0.1-0.5,0.1-0.2,0.2
				c-0.7-0.2,0-1.4,0.1-1.7c0.2-0.3,0.5-0.6,0.8-0.9c0.2-0.1,0.3-0.3,0.5-0.4c0.2-0.1,0.3,0,0.2-0.1C-2.6,151.5-1.4,151.2-1.9,150.9
				z"/>
		</g>
		<g>
			<g>
				<path class="st0" d="M-6.7,146.1c-0.8-0.8-2-0.3-2.8,0.2c-0.7,0.4-2.2,1.6-1.4,2.7c0.8,1.1,2.3,0.5,3,0
					C-7.4,148.4-6,147.1-6.7,146.1c-0.2-0.3-1.3-0.2-1,0.1c0.3,0.5-0.2,1.2-0.5,1.6c-0.2,0.3-0.5,0.6-0.9,0.8
					c-0.1,0.1-0.3,0.2-0.4,0.2c-0.1,0.1-0.5,0.1-0.3,0.2c-0.6-0.3,0.3-1.4,0.5-1.6c0.3-0.3,0.6-0.5,0.9-0.7c0.2-0.1,0.4-0.2,0.5-0.3
					c0.2-0.1,0.3,0,0.2-0.1C-7.4,146.5-6.3,146.4-6.7,146.1z"/>
			</g>
			<g>
				<path class="st0" d="M-7,146.7c-1.3,1.2-2.7,2.5-4,3.7c-0.3,0.3-1.5,1.5-1.9,0.8c-0.7-1.4,2.9-1.2,3.3-1.2
					c0.8,0,0.2-0.6-0.3-0.7c-1.4-0.1-3.1-0.2-4.1,0.9c-0.4,0.5,0.1,1.4,0.7,1.6c1.2,0.5,2.1,0,3-0.6c1.5-1.2,2.9-2.8,4.3-4.2
					C-5.7,146.8-6.8,146.5-7,146.7L-7,146.7z"/>
			</g>
		</g>
		<g>
			<path class="st0" d="M15.2,163.2c-0.7,0.4-0.5-1.6-0.5-1.7c0.1-0.8,0.4-1.6,0.6-2.3c0.1-0.5-1-0.1-1.1,0.3
				c-0.2,0.7-0.4,1.3-0.7,2c-0.1,0.3-0.3,0.7-0.5,1c-0.2,0.4-0.2,0.5-0.5,0.2c-0.8-0.9,0.4-2.8,0.9-3.6c0.3-0.6-0.8-0.3-1,0
				c-0.5,0.7-2.5,4.1-0.4,4.5c2.4,0.4,2.9-3,3.3-4.3c-0.4,0.1-0.7,0.2-1.1,0.3c-0.4,1.2-0.9,2.4-0.8,3.7c0.1,1.1,1.3,0.9,2.1,0.5
				C16.2,163.3,15.8,162.9,15.2,163.2L15.2,163.2z"/>
		</g>
		<g>
			<path class="st0" d="M38.1,161.6c0.6,1.3,1.9,0.7,2.2-0.7c0.1-0.7,0-1.4-0.1-2c-0.1-0.6-0.4-1.3-0.3-2c-0.3,0.2-0.5,0.4-0.8,0.5
				c0,1.5,1.1,2.8,1.7,4c0.2,0.5,1-0.6,0.9-0.9c-0.4-1.2-0.5-2.8-0.4-4.1c-0.3,0.2-0.5,0.4-0.8,0.6c0.1,1.2,0.6,2.7,1.5,3.6
				c1,0.9,2.1-1.2,2.4-2c0.3-0.8-0.6-0.4-0.8,0.2c-0.5,1.4-1.1,0.5-1.5-0.2c-0.4-0.7-0.8-1.5-0.8-2.3c0-0.7-0.7,0.3-0.8,0.6
				c-0.1,1.5-0.1,3.2,0.3,4.6c0.3-0.3,0.6-0.6,0.9-0.9c-0.5-1.1-1.8-2.4-1.7-3.7c0-0.7-0.7,0.3-0.8,0.5c-0.2,0.7,0.1,1.5,0.2,2.2
				c0.1,0.5,0.1,1,0.1,1.5c0,0.5-0.2,0.2,0.1,0.1c-0.4,0.1-0.6-0.5-0.7-0.7C38.8,160.2,38,161.2,38.1,161.6L38.1,161.6z"/>
		</g>
		<g>
			<path class="st0" d="M48,156.9c-0.4,0.8-1.5-0.8-1.6-0.9c-0.4-0.7-0.8-1.4-1.1-2.1c-0.2-0.5-0.9,0.7-0.8,1
				c0.3,0.6,0.5,1.3,0.8,1.9c0.1,0.3,0.2,0.7,0.3,1.1c0.1,0.4,0.1,0.5-0.3,0.5c-1.3,0-1.6-2.4-1.7-3.3c-0.1-0.7-0.8,0.4-0.8,0.7
				c0.1,0.9,0.7,4.8,2.7,3.6c2.3-1.5,0.4-4.3-0.2-5.5c-0.3,0.3-0.5,0.7-0.8,1c0.5,1.1,0.9,2.4,1.9,3.2c0.8,0.7,1.8-0.2,2.2-1.1
				C49.1,156.2,48.4,156.2,48,156.9L48,156.9z"/>
		</g>
		<g>
			<g>
				<path class="st0" d="M5.9,156.5c-0.9,0.9-1.5,2.1-1.9,3.3c-0.5,1.6,1.4,1.1,2.3,0.5c0.7-0.4-0.5-0.5-0.8-0.3
					c-0.5,0.3-0.4,0.4-0.3-0.1c0.1-0.4,0.3-0.8,0.4-1.2c0.3-0.7,0.7-1.5,1.3-2C7.4,156.2,6.2,156.2,5.9,156.5L5.9,156.5z"/>
			</g>
			<g>
				<path class="st0" d="M1.1,157.6c0.5,0.1,1.6,0.3,1.5,0.9c-0.1,0.6-0.6,0.1-0.7-0.3c-0.3-1.1,1.1-2.5,1.8-3.2
					c0.5-0.5-0.7-0.5-1-0.3c-0.8,0.7-3.8,4-1,4.6c0.8,0.2,1.8-0.2,2.1-0.8c0.4-1-1.2-1.4-2-1.6c-0.3-0.1-0.7,0-0.9,0.1
					C0.8,157.3,0.8,157.5,1.1,157.6L1.1,157.6z"/>
			</g>
		</g>
		<g>
			<path class="st0" d="M-11,139.4c-1.2,1.2-2.8,1.8-4.2,2.6c-0.5,0.2,0.6,0.9,0.9,0.7c0.7-0.3,1.4-0.6,2.1-0.8
				c0.4-0.1,1.5-0.6,1.4,0.2c0.4,0.1,0.7,0.2,1.1,0.3c0-2.1-2.7-1.4-3.7-1.1c-0.3,0.1,0,0.4,0.1,0.5c0.6,0.5,0,1-0.4,1.3
				c-0.4,0.3-0.7,0.6-0.4,1.2c0.3,0.8,1.7,1.1,2.3,1c0.7,0-0.1-0.7-0.5-0.7c-0.7,0-0.9-0.5-0.4-0.9c0.3-0.2,0.5-0.5,0.7-0.8
				c0.4-0.6-0.2-1.1-0.6-1.5c0,0.2,0.1,0.3,0.1,0.5c0.4-0.2,1.7-0.8,1.7,0.1c0,0.5,1.1,0.7,1.1,0.3c0.1-2.8-4.6-0.8-5.5-0.4
				c0.3,0.2,0.6,0.5,0.9,0.7c1.5-0.8,3-1.6,4.3-2.8C-9.7,139.6-10.7,139.1-11,139.4L-11,139.4z"/>
		</g>
		<g>
			<path class="st0" d="M-15.5,139c-0.9-0.5-0.3-1.3,0.1-1.6c0.8-0.6,1.8-1,2.7-1.3c0.5-0.2-0.5-0.9-0.9-0.8
				c-0.6,0.2-1.3,0.5-1.9,0.7c-0.3,0.1-0.7,0.2-1.1,0.3c-0.4,0.1-0.5,0.1-0.5-0.4c0.1-1.3,2.5-1.6,3.3-1.6c0.7-0.1-0.3-0.9-0.7-0.9
				c-0.9,0-4.8,0.5-3.7,2.6c1.2,2.5,4.1,0.6,5.4,0.1c-0.3-0.3-0.6-0.5-0.9-0.8c-1.1,0.4-2.8,0.8-3.5,2c-0.6,1,0.7,2.1,1.4,2.4
				C-15,140-14.8,139.3-15.5,139L-15.5,139z"/>
		</g>
		<g>
			<g>
				<path class="st0" d="M33.9,160.3c-0.4-1-1.2-1.6-2.1-0.5c-0.6,0.8-0.6,2-0.5,2.8c0.1,0.7,0.5,1.9,1.5,1.7
					c1.1-0.2,2.3-1.8,2.4-2.7c0.1-0.7-0.8,0.2-0.9,0.6c-0.1,0.4-0.8,1.2-1.3,1c-0.4-0.2-0.6-0.7-0.7-1.1c-0.2-0.5-0.2-1.1-0.1-1.6
					c0-0.1,0-0.2,0.1-0.3c0.1-0.3,0,0,0.1,0c0.4,0.1,0.6,0.6,0.7,1C33.2,161.6,34,160.7,33.9,160.3L33.9,160.3z"/>
			</g>
			<g>
				<path class="st0" d="M29.5,164c0.2,1,1.4,1.1,2.1,0.2c0.7-0.8,0.7-1.8,0.6-2.7c-0.1-0.7-0.4-1.7-1.2-2c-0.4-0.1-0.8,0.3-1.1,0.5
					c-0.5,0.5-0.7,1.2-0.7,1.8c0,0.5,1-0.3,0.9-0.6c-0.1-0.7,0.2-0.8,0.6-0.3c0.2,0.3,0.3,0.7,0.4,1.1c0.1,0.4,0.2,0.9,0.1,1.4
					c0,0.2-0.1,0.4-0.2,0.5c0-0.1,0-0.1-0.1,0c-0.3,0-0.5-0.2-0.5-0.5C30.5,162.8,29.5,163.6,29.5,164L29.5,164z"/>
			</g>
		</g>
	</g>
</g>
</svg>
