<?xml version="1.0" encoding="utf-8"?>
<!-- Generator: Adobe Illustrator 19.0.0, SVG Export Plug-In . SVG Version: 6.00 Build 0)  -->
<svg version="1.1" id="Layer_1" xmlns="http://www.w3.org/2000/svg" xmlns:xlink="http://www.w3.org/1999/xlink" x="0px" y="0px"
	 viewBox="-21 83 86 86" style="enable-background:new -21 83 86 86;" xml:space="preserve">
<style type="text/css">
	.st0{fill:#FCB61A;}
	.st1{fill:#DA811F;}
	.st2{fill:#FFFFFF;}
</style>
<circle class="st0" cx="24" cy="120.2" r="36.7"/>
<path class="st1" d="M24.4,83.5v73.4c20.3,0,36.7-16.4,36.7-36.7C61.1,99.9,44.7,83.5,24.4,83.5z"/>
<g>
	<g>
		<g>
			<path class="st2" d="M24.6,109c0,0-0.1,0-0.2,0c0,0-0.1,0-0.1,0c-2,0.2-2.5,2.7-2.6,4.2c0,1.3,0.2,3.9,1.9,4c0.8,0,1.6-0.8,2-1.5
				c0.4-0.8,0.6-1.7,0.7-2.6C26.4,111.9,26.4,109.3,24.6,109z M24.7,115.2c0,0.1-0.1,0.3-0.1,0.4c0,0-0.1,0.1-0.1,0.2c0,0,0,0,0,0
				c-1,0-1.2-2.1-1.2-2.7c0-0.7,0-1.4,0.2-2c0.1-0.2,0.1-0.4,0.2-0.6c1,0.1,1.2,2.1,1.2,2.7C24.9,113.9,24.9,114.6,24.7,115.2z"/>
			<path class="st2" d="M19.8,109.3c-0.6-0.3-1.4,0.1-1.9,0.4c-0.1-0.5-0.2-1-0.3-1.4c-0.1-0.4-0.8,0-1,0.1
				c-0.2,0.2-0.4,0.4-0.5,0.6c0,0,0,0.1,0,0.1c-0.1,0.4-0.2,0.6-0.3,0.9c-0.1,0.1,0,0.1-0.1,0.1c-0.4,0.2-1-0.1-1.3-0.2c0,0,0,0,0,0
				c-0.2-0.1-0.5-0.2-0.8-0.2c0,0-0.1,0-0.2,0c0,0-0.1,0-0.1,0c-2.1,0.5-2.3,3.1-2.1,4.6c0.1,1.3,0.7,3.8,2.5,3.6
				c0.9-0.1,1.6-1.1,1.9-1.8c0.4-0.8,0.4-1.8,0.4-2.7c0-0.5-0.1-1.3-0.4-2c0.3-0.1,0.6-0.4,0.9-0.6c0.4,1.9,0.6,3.9,0.8,5.8
				c0.2,1.8,0.3,3.6,0.3,5.4c0,0.4,0.5,0.3,0.7,0.1c0.3-0.2,0.6-0.6,0.7-1.1c0-1.3,0-2.5-0.1-3.8c0.5-0.1,1.1-0.3,1.5-0.8
				c1-1.1,1.1-2.7,1-4.1C21.1,111.6,20.9,109.8,19.8,109.3z M14.4,115.9c0,0.1,0,0.3-0.1,0.4c0,0,0,0.1-0.1,0.2c0,0,0,0,0,0
				c-1.1,0.2-1.5-1.9-1.7-2.5c-0.1-0.7-0.2-1.3-0.1-2c0-0.2,0.1-0.4,0.1-0.6c0.1,0,0.2,0,0.2,0c0,0,0.1,0.1,0.1,0.1
				c0.1,0,0.2,0.1,0.3,0.1c0.7,0.5,1,1.8,1.1,2.3C14.4,114.6,14.5,115.2,14.4,115.9z M18.3,110.6C18.3,110.6,18.4,110.6,18.3,110.6
				L18.3,110.6z M19.6,115.9C19.6,115.9,19.6,115.9,19.6,115.9L19.6,115.9z M19.6,115.8c0,0,0,0.1-0.1,0.1c0,0,0,0,0,0
				c-0.6,0.1-0.9-0.4-1-0.9c0-0.1,0-0.1,0-0.1c-0.1-1.1-0.2-2.1-0.3-3.2c0,0,0,0,0-0.1c0-0.3,0-0.7,0-1c0,0,0,0,0,0c0,0,0,0,0,0
				c0.2,0,0.4,0.1,0.6,0.3c0.6,0.6,0.7,1.5,0.9,2.3C19.8,114.1,19.9,115.1,19.6,115.8z"/>
			<path class="st2" d="M8.3,112.6c0.2-0.7,0.3-1.4,0.4-2.2c0.2-1.2,0.4-2.7-0.2-3.7c-0.7-1-2-0.1-2.6,0.7c-0.8,1.2-0.8,2.8-0.7,4.1
				c0.1,1.6,0.5,3.1,1,4.6c-0.2,0.7-0.4,1.5-0.6,2.2c0,0.1-0.1,0.1-0.1,0.2c-0.1-0.1-0.1-0.2-0.2-0.3c-0.2-0.3-0.3-0.6-0.4-0.8
				c-0.7-2.3-1.1-4.7-2.2-6.8c-0.3-0.7-1-1.8-2.1-1.3c-0.8,0.4-1.2,1.1-1.4,1.8c-0.5-0.7-1.2-1.1-2.2-0.4c-0.4,0.3-0.7,0.6-0.9,1
				c-0.1-0.3-0.3-0.7-0.6-0.9c-0.6-0.4-1.8,1.3-1.3,1.6c0.4,0.2,0.5,0.7,0.7,1.1c0.3,0.8,0.6,1.6,0.9,2.4c0.2,0.4,0.3,0.8,0.5,1.3
				c0.5,1.8,1.2,3.5,1.9,5.2c0.1,0.2,0.2,0.2,0.3,0.2c0.4-0.1,1-1.1,0.9-1.5c-0.5-1.5-1.1-3-1.5-4.5c-0.2-0.6-0.4-1.3-0.5-2
				c-0.2-0.7-0.3-1.4-0.3-2.2c0-0.1,0-0.2,0-0.3c1-0.4,1.8,2,2,2.5c0.3,0.9,0.7,1.7,0.9,2.6c0.4,1.3,0.8,2.7,1.3,4
				c0.1,0.2,0.1,0.2,0.3,0.2c0.4,0,1-1,0.9-1.5c-0.4-1.4-0.8-2.8-1.2-4.2c-0.1-0.3-0.2-0.7-0.3-1c-0.3-1.2-0.6-2.4-0.4-3.7
				c0,0,0-0.1,0-0.1c0.3,0,0.6,0.3,0.7,0.5c0.9,1.1,1.3,2.7,1.7,4c0.3,0.9,0.5,1.9,0.8,2.8c0.2,0.6,0.4,1.2,0.8,1.7
				c0.5,0.6,1.1,0.1,1.5-0.4c0.4-0.5,0.7-1.1,0.9-1.8c0.4,0.8,0.9,1.6,1.6,1.5c1.2-0.2,1.9-1.5,2-2.6c0.2-1.2,0.1-3.3-1.1-3.9
				C9,112.4,8.7,112.4,8.3,112.6z M6.6,111.1c-0.1-1-0.2-2.2,0.2-3.2c0,0,0,0,0.1,0c0.3,0.1,0.4,0.5,0.5,0.8
				c0.2,1.1,0.1,2.2-0.1,3.3c-0.1,0.4-0.1,0.9-0.2,1.3C6.9,112.5,6.7,111.8,6.6,111.1z M9.2,115.8c0.1,0.5,0.1,1.1,0.1,1.6
				c0,0,0,0.1,0,0.1c-0.1,0-0.1,0-0.2,0c-0.3,0-0.6-0.5-0.7-0.7c-0.3-0.5-0.5-1.1-0.7-1.6c0.1-0.3,0.2-0.6,0.3-0.9
				c0.2-0.3,0.3-0.3,0.6-0.1C9,114.6,9.1,115.3,9.2,115.8z"/>
			<path class="st2" d="M51.6,121.6c-0.1-0.3-0.6-0.3-0.9-0.2c0,0,0,0-0.1-0.1c-0.1-0.1-0.1-0.2-0.1-0.3c-0.1-0.3-0.1-0.6,0-0.9
				c0.1-0.7,0.3-1.5,0.6-2.1c0,0,0,0,0,0c0.2-0.6,0.5-1.1,0.8-1.6c0,0,0,0,0-0.1c0,0,0,0,0,0c0.2-0.4,0.4-0.7,0.6-1
				c0.2-0.4-0.4-0.5-0.7-0.5c-0.1,0-0.1,0-0.2,0c-0.3-0.4-0.9-0.6-1.6-0.5c-1.7,0.1-2.8,1.6-3.1,3.1c-0.2,0.8,0.3,1.7,1.2,2
				c0.1,0,0.3,0.1,0.5,0.1c-0.2,0.3-0.5,0.6-0.8,0.9c-0.3,0.3-0.7-0.5-0.7-0.8c0-0.2-0.1-0.3-0.4-0.3c0,0,0,0-0.1,0
				c-0.3,0-0.7,0.1-1,0.3c0,0-0.1-0.1-0.1-0.2c-0.1-0.4,0-0.9,0-1.2c0.2-1.4,0.6-2.7,1.1-4c0,0,0,0,0-0.1c0.2-0.9-0.4-1.5-1.3-1.6
				c-1-0.1-1.8,0.4-2.4,0.9c-0.9,0.8-1.4,2-1.7,3.2l0,0c-0.2,0.3-0.3,0.9-0.7,1.2c0,0,0,0,0,0c-0.1,0-0.2,0-0.2,0
				c-0.3-0.3-0.1-1.2,0-1.5c0.1-1.2,0.4-2.6,1-3.8c0.2-0.3,0.3-0.6,0.5-0.9c0.2-0.3,0.1-0.6-0.4-0.6c-0.5,0-0.9,0.3-1.2,0.6
				c-0.2,0.3-0.4,0.6-0.5,0.9c-0.2,0.4-0.5,0.8-0.8,1.1c-0.3,0.3-0.5,0.4-0.9,0.6c0,0-0.1,0-0.1,0.1c0.2-1.3,0.3-2.5,0.5-3.8
				c0.1-0.2,0-0.3-0.2-0.3c0,0,0,0,0,0c0,0,0,0,0,0c0,0,0,0,0,0c0,0,0,0,0,0l0,0c-0.1,0-0.3,0-0.4,0c-0.3,0.1-0.7,0.3-0.9,0.5
				c-0.1,0.1-0.1,0.2-0.1,0.3c-0.5,1.8-1.1,3.6-2.4,5c-0.1,0.1-0.1,0.1-0.2,0.2c0,0,0,0-0.1,0.1l0,0c0,0-0.1,0-0.1,0
				c-0.3-0.1-0.5-0.6-0.6-0.8c-0.3-1.1-0.1-2.2,0.1-3.3c0.1-0.2,0.1-0.4,0.2-0.6c0.1-0.1,0.2-0.3,0.2-0.5c0,0,0,0,0,0c0,0,0,0,0,0
				c0.2,0.1,0.3,0.4,0.4,0.6c0.3,0.5,2-0.4,1.7-1c-0.4-0.9-1.4-1.1-2.4-0.6c-0.6,0.3-1,0.8-1.3,1.3c0,0,0,0.1-0.1,0.1c0,0,0,0,0,0.1
				c-0.1,0.1-0.1,0.2-0.1,0.3c0,0,0,0.1,0,0.1c-0.1,0.3-0.3,0.6-0.5,0.9c0.1-1,0.3-2.1,0.4-3.1c0.1-0.8-1.5,0.1-1.6,0.5
				c-0.2,0.5-0.4,0.9-0.6,1.4c0-0.5-0.2-1-0.3-1.4c-0.5-1.2-1.7-1.2-2.6-0.3c-0.2,0.2-0.7,0.7-0.4,0.9c0.2,0.2,0.7,0,0.9-0.2
				c0,0,0,0,0.1,0c0.1,0,0.2,0.1,0.2,0.2c0.2,0.2,0.3,0.4,0.3,0.7c0.2,0.7,0.3,1.4,0.2,2.1c0,0.7-0.1,1.4-0.3,2c0,0,0,0.1,0,0.1
				c0,0.1-0.1,0.1-0.1,0.2c-0.2-0.1-0.3-0.3-0.4-0.5c-0.3-0.5-1.7,0.6-1.3,1.2c0.8,1.3,2.1,0.5,2.8-0.4c0.3-0.4,0.5-0.8,0.6-1.3
				c0.1-0.4,0.3-0.7,0.5-1.1c-0.1,1.1-0.3,2.2-0.5,3.3c-0.1,0.4,0.4,0.4,0.7,0.3c0.4-0.2,0.8-0.5,0.9-0.9c0.1-0.4,0.3-0.8,0.5-1.2
				c0,0.4,0.1,0.9,0.2,1.3c0.1,0.5,0.4,1,0.9,1.2c0.8,0.3,1.7-0.3,2.3-0.7c0.5-0.4,0.9-0.8,1.2-1.3c-0.1,0.7-0.2,1.4-0.4,2.2
				c-0.1,0.4,0.4,0.4,0.6,0.3c0.4-0.1,0.8-0.4,1-0.8c0.2-0.6,0.4-1.3,0.9-1.9c0.2-0.3,0.4-0.3,0.8-0.6c0,0,0,0,0.1,0
				c-0.2,1-0.4,2-0.4,3.1c0,0.9,0.6,1.2,1.5,1c0.4-0.1,0.7-0.2,1-0.4c0,0.4,0.2,0.7,0.4,1c0.6,0.5,1.5,0.3,2.1-0.1
				c0.1,0,0.1-0.1,0.2-0.1c0,0.1,0,0.3,0,0.4c0.1,0.9,0.9,1,1.6,0.8c0.4,0.8,1.7,0.9,2.5,0.6c0.2-0.1,0.3-0.1,0.5-0.2
				c0,0.2,0,0.3,0,0.5c0.2,1.1,1.2,1.3,2.2,0.9C51.1,122.2,51.7,121.9,51.6,121.6z M43.3,118.6c0,0-0.1,0-0.2-0.1
				c-0.3-0.2-0.2-0.7-0.3-1c0-0.4,0-0.9,0.1-1.3c0,0,0,0,0,0c0-0.1,0-0.1,0-0.1c0.2-0.6,0.4-1.2,0.7-1.7c0.2-0.3,0.5-0.7,0.7-0.9
				c0,0,0.1,0,0.1,0c0.1,0,0.2,0,0.2,0.1c0.4,0.1,0.5,0.5,0.4,0.8c-0.5,1.3-0.8,2.8-1.6,4C43.5,118.4,43.4,118.5,43.3,118.6z
				 M45.6,119.6L45.6,119.6L45.6,119.6L45.6,119.6z M48.7,117c0-0.6,0.5-1.5,0.9-1.8c-0.1,0,0.2,0.1,0.3,0.2
				c0.2,0.3,0.2,0.6,0.1,0.9c-0.3,0.6-0.6,1.2-0.8,1.8C48.8,117.9,48.7,117.5,48.7,117z M50.7,121.4
				C50.8,121.4,50.8,121.4,50.7,121.4L50.7,121.4z"/>
		</g>
	</g>
	<g>
		<path class="st2" d="M50.1,132.5c-0.3,0.5-0.7,0.9-1.2,1.3c-0.1,0-0.1,0.1-0.3,0c-0.3-0.2-0.1-0.9-0.1-1.1
			c0.1-0.9,0.4-1.8,0.7-2.6c0.1-0.2,0.1-0.4,0.2-0.6c0.1-0.3,0.2-0.6,0.4-0.9c0,0,0,0,0-0.1c0.3-0.8-0.3-1.5-1.3-1.6
			c-1-0.1-1.8,0.3-2.4,0.8c-0.8,0.7-1.4,1.8-1.7,2.8c0,0-0.1,0.1-0.1,0.2c-0.2,0.4-0.4,0.8-0.8,1.1c-0.1,0.1,0,0.1-0.1,0
			c-0.4-0.2-0.2-0.8-0.2-1.1c0.1-0.6,0.2-1.2-0.1-1.8c-0.2-0.4-0.7-0.6-1.2-0.6c0-0.1,0.1-0.2,0.1-0.2c0.1-0.1,0.1-0.2,0.2-0.3
			c0.3-0.4,0.6-0.9,1-1.2c0,0,0,0,0,0c0,0,0,0,0,0c0.2,0.1,0.4,0.3,0.5,0.4c0.4,0.5,2-0.3,1.6-0.8c-0.5-0.7-1.2-0.8-1.9-0.7
			c-0.5,0.1-0.9,0.3-1.3,0.6c-0.1,0.1-0.1,0.1-0.2,0.2c0.1-0.8,0.2-1.6,0.2-2.4c0-0.6-1.8,0-1.7,0.6c0.1,1.1-0.1,2.3-0.3,3.4
			c0,0-0.1,0.1-0.1,0.1c-0.4,0.9-1,1.8-2,2.3c-0.1,0.1-0.3,0.1-0.4,0.2c0,0-0.1,0-0.1,0c0,0,0,0,0-0.1c0-0.2-0.1-0.3-0.1-0.5
			c-0.1-0.9,0.1-1.9,0.3-2.8c0.1-0.6,0.3-1.2,0.5-1.8c0.1-0.2,0.3-0.5,0.4-0.7c0.1-0.3,0-0.6-0.4-0.5c-0.5,0-0.9,0.3-1.1,0.7
			c-0.2,0.3-0.3,0.6-0.5,1c-0.2,0.4-0.5,0.8-0.8,1.1c-0.3,0.3-0.5,0.4-0.9,0.6c0,0-0.1,0-0.1,0.1c0.1-1.2,0.2-2.4,0.3-3.6
			c0.1-0.8-1.7,0-1.7,0.5c0,0.5,0,1-0.1,1.6c-0.1,0.1-0.1,0.2-0.1,0.3c-0.1,1.1-0.4,2.4-1.2,3.3c0,0.1-0.1,0.1-0.3,0.1
			c-0.3-0.1-0.4-0.8-0.4-1c-0.1-0.9-0.1-1.8,0-2.7c0-0.2,0-0.4,0.1-0.6c0-0.3,0.1-0.6,0.1-1c0,0,0-0.1,0-0.1
			c0.1-0.9-0.7-1.3-1.7-1.2c-0.9,0.1-1.7,0.7-2.1,1.4c-0.6,0.9-0.9,2.1-0.9,3.2c0,0.1,0,0.1-0.1,0.2c-0.1,0.4-0.2,0.9-0.5,1.2
			c-0.1,0.1,0,0.1-0.1,0.1c-0.4-0.1-0.4-0.7-0.4-1c-0.1-0.6-0.1-1.3-0.5-1.7c-0.3-0.4-0.8-0.4-1.2-0.2c0-0.1,0-0.2,0.1-0.2
			c0-0.1,0.1-0.2,0.1-0.3c0.1-0.5,0.3-1,0.6-1.5c0,0,0,0,0,0c0,0,0,0,0,0c0.2,0,0.4,0.2,0.5,0.3c0.5,0.4,1.9-0.8,1.4-1.2
			c-0.7-0.5-1.4-0.5-2-0.2c-0.4,0.2-0.8,0.5-1.1,0.9c-0.1,0.1-0.1,0.1-0.2,0.2c-0.1-0.8-0.2-1.6-0.4-2.4c-0.2-0.6-1.7,0.5-1.5,1.1
			c0.2,0.7,0.3,1.4,0.4,2.1c-0.3,1-0.7,2-1.3,2.9c-0.3,0.5-0.8,1-1.1,1.2c-0.8,0.7-1.4,0.3-1.8-0.3c0,0,0.1-0.1,0.1-0.1
			c0.9-1.2,1.7-2.6,1.8-4c0-0.8-0.5-1.7-1.6-1.5c-1.1,0.2-1.7,1.2-2,2c-0.3,0.9-0.3,2-0.2,2.9c0,0.3,0.1,0.7,0.2,1
			c-0.1,0.1-0.3,0.2-0.4,0.3c-0.2,0.2-0.5,0.4-0.8,0.5c-0.1,0-0.2,0-0.3-0.2c-0.6-0.6-0.5-1.7-0.6-2.5c-0.1-0.8-0.2-1.7-0.5-2.5
			c-0.2-0.5-0.7-1.1-1.4-0.9c-0.9,0.2-1.4,0.9-1.7,1.6c0,0,0,0.1,0,0.1c-0.1-0.4-0.3-0.8-0.4-1.1c-0.3-0.6-1.5,0.8-1.3,1.3
			c0.4,0.8,0.6,1.7,0.8,2.5v0c0,0,0,0,0,0s0,0.2,0,0.2c0,0.3-0.1,0.6-0.1,1c-0.1,0.6-0.3,1.3-0.7,1.8c0,0,0,0,0,0
			c-0.1-0.1-0.2-0.2-0.2-0.3c-0.2-0.4-0.4-0.8-0.6-1.2c-0.4-1.1-0.7-2.3-1-3.4c0,0,0,0,0-0.1c-0.2-0.8-1.1-1-1.9-0.5
			c-0.8,0.5-1.3,1.3-1.5,2.1c-0.4,1.2-0.1,2.7,0.4,3.8c-0.3,0.5-0.7,0.9-1,1.4c-0.3-0.3-0.6-0.4-1.1-0.5c0.3-1.3-0.1-2.9-0.6-3.9
			c-0.4-0.7-1-1.5-2-1.1c-0.7,0.2-1.2,1-1.5,1.6c-0.4,0.8-0.3,1.6,0,2.3c0.3,0.7,1.4-0.8,1.2-1.3c-0.1-0.2-0.2-0.5-0.2-0.8
			c0-0.1,0-0.1,0-0.2c0,0,0.1,0,0.1-0.1c0,0,0.2,0,0.2,0c0.6,0.1,0.9,0.7,1.1,1.1c0.3,0.6,0.5,1.3,0.6,2c0,0.2,0,0.6,0,0.8
			c-0.1,0.1-0.3,0.2-0.4,0.4c-0.1,0.1-0.2,0.2-0.3,0.3c-0.2,0.3-0.3,0.7-0.2,0.9c0,0.1,0.1,0.2,0.1,0.2c0.1,0,0.2,0,0.3,0
			c0.3-0.1,0.5-0.3,0.7-0.5c0.3-0.1,0.7,0.1,1,0.3c-0.6,1-1,2.1-1.1,3.2c-0.1,1-0.1,2.5,0.7,3.2c0.6,0.6,1.5,0.2,2-0.3
			c1.2-1.3,1-3.4,0.7-5c-0.1-0.5-0.3-1.2-0.7-1.8c0.3-0.4,0.6-0.8,0.9-1.3c0.3,0.4,0.6,0.9,1.2,1c0.7,0.1,1.4-0.7,1.7-1.2
			c0-0.1,0.1-0.1,0.1-0.2c0.3,0.5,0.8,1,1.4,0.5c0.6-0.5,1-1.1,1.4-1.9c0.1,0.4,0.2,0.8,0.3,1.2c0.2,0.8,1.3-0.5,1.2-1.1
			c-0.2-1.2-0.3-2.5-0.2-3.7c0-0.4,0.1-0.9,0.2-1.3c0-0.2,0.1-0.3,0.1-0.5c0,0,0,0,0,0c0,0,0.1,0,0.1,0.1c0.3,0.2,0.4,0.6,0.5,0.8
			c0.3,0.8,0.4,1.6,0.5,2.4c0.1,0.8,0.3,3.3,1.9,2.6c0.7-0.3,1.4-0.8,2-1.3c0.1,0.2,0.2,0.4,0.4,0.5c0.8,0.9,2.2,0.2,2.9-0.4
			c0.9-0.7,1.7-1.6,2.3-2.6c0,0.9,0,1.9,0,2.8c0,0.4,0.4,0.3,0.7,0.2c0.3-0.2,0.7-0.6,0.7-1c0.1-0.7,0.1-1.4,0.2-2.1
			c0.8,0.2,0.5,2.5,1.1,2.9c0.6,0.4,1.3,0,1.7-0.3c0.2-0.1,0.3-0.3,0.4-0.4c0.1,0.4,0.3,0.8,0.7,1c0.7,0.4,1.5-0.1,2-0.5
			c0,0,0.1-0.1,0.1-0.1c0.1,0.4,0.3,0.9,0.7,1c0.5,0.1,1.2-0.1,1.7-0.4c0.3-0.2,0.5-0.3,0.7-0.6c0,0.3-0.1,0.6-0.1,0.9
			c-0.1,0.4,0.4,0.4,0.7,0.3c0.4-0.1,0.8-0.4,0.9-0.8c0.2-0.6,0.4-1.3,0.8-1.8c0.2-0.3,0.4-0.3,0.8-0.6c0,0,0,0,0.1,0
			c0,0.1,0,0.3-0.1,0.4c-0.2,0.9-0.4,2.2,0,3.1c0.4,0.9,2,0.1,2.5-0.2c0.4-0.2,0.7-0.4,1-0.7c-0.1,0.5-0.3,0.9-0.4,1.4
			c-0.1,0.4,0.3,0.4,0.6,0.3c0.4-0.1,0.8-0.4,0.9-0.7c0.2-0.7,0.5-1.3,0.8-2c0.8,0.4-0.2,2.5,0.4,3.1c0.5,0.5,1.2,0.4,1.8,0.2
			c0.2-0.1,0.4-0.2,0.5-0.3c0,0.4,0.1,0.8,0.4,1.1c0.5,0.5,1.5,0.3,2.1,0c0.1,0,0.1-0.1,0.2-0.1c0,0.4,0,0.9,0.4,1.1
			c0.5,0.3,1.2,0.2,1.7,0.1c0.7-0.2,1.2-0.6,1.6-1.2C51,132.8,50.6,132.1,50.1,132.5z M3.2,139.4C3.2,139.4,3.2,139.4,3.2,139.4
			C3.1,139.5,3.1,139.5,3.2,139.4c-0.2,0.2-0.5,0.2-0.7,0.1c-0.8-0.3-0.8-1.8-0.7-2.5c0.1-0.6,0.3-1.2,0.6-1.7
			c0.1,0.1,0.1,0.2,0.2,0.3c0.3,0.6,0.5,1.3,0.6,2C3.3,138.3,3.3,139,3.2,139.4z M6.3,131.9c0,0-0.1,0.1-0.2,0.1
			c-0.3,0-0.6-0.4-0.7-0.7c-0.6-0.8-0.8-2-0.9-3c0-0.3,0.1-0.9,0.1-1.1c0,0,0,0,0.1-0.1c0.1,0,0.2-0.1,0.2-0.1
			c0.4-0.1,0.6,0.1,0.7,0.4c0.3,1.3,0.7,2.7,0.7,4.1C6.4,131.6,6.4,131.8,6.3,131.9z M17.6,127.6c-0.2-0.7-0.2-1.4-0.1-2.1
			c0-0.3,0.1-0.6,0.2-0.9c0,0,0-0.1,0-0.1c0.1,0,0.2,0,0.2,0.1c0.3,0.1,0.4,0.4,0.4,0.7C18.4,126.1,18,126.9,17.6,127.6z M29.3,129
			c0,0.1-0.1,0.2-0.1,0.3c0,0-0.1,0-0.2,0c-0.3-0.1-0.4-0.6-0.5-0.9c-0.3-1-0.1-2.2,0.2-3.1c0.1-0.3,0.3-0.8,0.5-1c0,0,0.1,0,0.1,0
			c0.1,0,0.2,0,0.2,0c0.4,0,0.6,0.3,0.5,0.6C29.8,126.2,29.7,127.7,29.3,129z M48,128.8c-0.5,1.3-0.9,2.6-1.7,3.8
			c0,0.1-0.1,0.2-0.2,0.3c0,0-0.1,0-0.2-0.1c-0.2-0.2-0.2-0.7-0.2-1c0-1,0.4-2.1,1-3c0.2-0.3,0.5-0.7,0.7-0.8c0,0,0.1,0,0.1,0
			c0.1,0,0.2,0.1,0.2,0.1C48.1,128.1,48.1,128.5,48,128.8z"/>
		<path class="st2" d="M3.1,139.5C3.1,139.5,3.1,139.5,3.1,139.5L3.1,139.5C3.1,139.5,3.1,139.5,3.1,139.5z"/>
		<path class="st2" d="M3.2,139.4C3.2,139.4,3.2,139.4,3.2,139.4L3.2,139.4z"/>
		<path class="st2" d="M17.5,124.6C17.5,124.6,17.5,124.6,17.5,124.6L17.5,124.6z"/>
	</g>
</g>
<g>
	<g>
		<g>
			<path class="st2" d="M14.5,147.2c-0.4,1.4,1.2,1.9,2.3,1c0.6-0.4,0.8-1.1,1.1-1.7c0.3-0.5,0.4-1.3,0.9-1.7c-0.3,0-0.6,0-1-0.1
				c-0.9,1.1-0.7,2.9-0.9,4.3c-0.1,0.5,1.3,0.2,1.4-0.2c0.3-1.2,1.2-2.5,2-3.5c-0.3,0-0.7,0-1,0c-0.6,1-1,2.5-0.7,3.7
				c0.4,1.6,3,0.2,3.5-0.4c0.6-0.6-0.7-0.4-1.1,0c-1.2,1.1-1.3-0.4-1.2-1.1c0-0.7,0.2-1.6,0.5-2.3c0.3-0.6-0.8-0.3-1,0
				c-1,1.1-2,2.5-2.5,3.8c0.5,0,0.9-0.1,1.4-0.2c0.2-1.3-0.2-3,0.6-4.1c0.4-0.5-0.7-0.2-1-0.1c-0.6,0.5-0.9,1.3-1.2,1.9
				c-0.2,0.4-0.5,0.9-0.8,1.3c-0.3,0.4-0.3,0.1,0,0.2c-0.4-0.2-0.2-0.8-0.2-1C15.9,146.6,14.6,146.9,14.5,147.2L14.5,147.2z"/>
		</g>
		<g>
			<path class="st2" d="M32.3,147.7c0.7,1.3,2.2,0.7,2.4-0.7c0.1-0.7-0.2-1.3-0.4-1.9c-0.2-0.5-0.6-1.2-0.6-1.8
				c-0.2,0.2-0.5,0.4-0.7,0.5c0.2,1.4,1.5,2.6,2.3,3.7c0.3,0.5,1-0.7,0.8-1c-0.6-1.1-0.9-2.6-1.1-3.9c-0.2,0.2-0.4,0.4-0.7,0.6
				c0.3,1.2,1,2.5,2.1,3.2c1.4,0.9,2.2-1.8,2.2-2.7c0-0.8-0.8,0.3-0.8,0.7c-0.1,1.6-1.2,0.5-1.6,0.1c-0.5-0.6-1-1.3-1.2-2
				c-0.2-0.6-0.7,0.3-0.7,0.6c0.1,1.4,0.4,3.1,1,4.4c0.3-0.3,0.6-0.6,0.8-1c-0.8-1-2.2-2.1-2.4-3.4c-0.1-0.6-0.7,0.3-0.7,0.5
				c-0.1,0.7,0.3,1.4,0.4,2.1c0.1,0.5,0.3,1,0.3,1.5c0,0.5-0.2,0.2,0.1,0.1c-0.4,0.1-0.7-0.4-0.8-0.7
				C32.9,146.3,32.1,147.3,32.3,147.7L32.3,147.7z"/>
		</g>
		<g>
			<path class="st2" d="M30,144.2c-1.1,0.4-1.4,1.8-1.3,2.7c0,0.8,0.5,2.7,2,2.4c1.7-0.3,1.7-2,1.5-2.9
				C32,145.7,31.3,143.9,30,144.2c-0.3,0.1-0.8,1.1-0.4,1c0.7-0.1,1.1,0.7,1.3,1.1c0.2,0.3,0.3,0.7,0.4,1.1c0,0.2,0,0.3,0,0.5
				c0,0.1-0.2,0.5,0,0.3c-0.6,0.4-1.3-0.8-1.4-1c-0.2-0.4-0.2-0.7-0.3-1.1c0-0.2,0-0.4,0-0.6c0-0.2,0.1-0.2,0-0.2
				C30.1,145,30.6,144,30,144.2z"/>
		</g>
		<g>
			<g>
				<path class="st2" d="M26.4,144.9c-1.3,0.3-1.7,1.6-1.8,2.5c-0.1,0.8-0.1,2.8,1.6,2.7c1.7-0.1,2.1-1.7,2.1-2.6
					c0-0.8-0.5-2.6-1.8-2.6c-0.5,0-1.2,1-0.7,1c0.8,0,1,0.8,1.2,1.3c0.1,0.4,0.2,0.8,0.2,1.2c0,0.2,0,0.3-0.1,0.5
					c0,0.1-0.3,0.4,0,0.3c-0.7,0.3-1.2-1-1.2-1.3c-0.1-0.4-0.1-0.8-0.1-1.2c0-0.2,0.1-0.4,0.1-0.6c0.1-0.2,0.2-0.2,0-0.2
					C26.3,145.8,27,144.8,26.4,144.9z"/>
			</g>
			<g>
				<path class="st2" d="M26.8,145.6c0.2,1.8,0.6,3.6,0.9,5.4c0.1,0.4,0.4,2.1-0.7,2.1c-1.9-0.1,1-3.1,1.3-3.5
					c0.6-0.7-0.5-0.5-0.9,0c-1.1,1.2-2.7,2.6-2.2,4c0.2,0.6,1.5,0.6,2.3,0.3c1.5-0.8,1.7-1.9,1.6-3c-0.1-2-0.9-3.9-1.2-5.9
					C27.7,144.4,26.8,145.2,26.8,145.6L26.8,145.6z"/>
			</g>
		</g>
		<g>
			<path class="st2" d="M22.2,148.9c1-0.7,2.7-2.5,1.7-3.5c-0.7-0.8-2,0.3-2.3,0.8c-0.6,0.9-0.9,2.1-0.6,3.1
				c0.4,1.3,2.3,0.9,3.4,0.3c0.6-0.3,0.6-1.1-0.3-0.6c-2,1.2-2-1.1-1.9-2c0.1-0.3,0.1-0.5,0.3-0.8c0.2-0.4,0.1-0.3,0.3-0.1
				c0.8,0.6-0.9,2.1-1.5,2.5C20.6,149.2,21.7,149.3,22.2,148.9L22.2,148.9z"/>
		</g>
		<g>
			<path class="st2" d="M23,144.3c0.2-0.3,0.4-0.5,0.4-0.9c0-0.3-0.3-0.2-0.4-0.1c-0.2,0.1-0.5,0.3-0.6,0.6c0,0.1,0,0.1-0.1,0.2
				c0,0-0.1,0.2,0,0c-0.1,0.1-0.4,0.4-0.1,0.5C22.5,144.7,22.9,144.5,23,144.3L23,144.3z"/>
		</g>
		<g>
			<path class="st2" d="M24.5,144c0.1-0.2,0.2-0.5,0.2-0.7c0-0.3-0.3-0.2-0.5-0.1c-0.2,0.1-0.5,0.4-0.5,0.6c0,0.1,0,0.2-0.1,0.3
				c-0.1,0.1-0.2,0.4,0.1,0.4C24.1,144.5,24.3,144.2,24.5,144L24.5,144z"/>
		</g>
		<g>
			<path class="st2" d="M13.2,143.4c0.2-0.8,0.1-1.5-1-1.6c-1.2-0.1-2.1,0.7-2.7,1.5c-0.5,0.6-0.9,1.4-0.2,2.4c0.7,1,2.5,1,3.3,0.9
				c0.8-0.1,0.5-0.7-0.3-0.6c-0.6,0.1-1.2,0.1-1.8-0.5c-0.4-0.4-0.2-1-0.1-1.4c0.2-0.5,0.6-0.9,1-1.2c0.1-0.1,0.2-0.2,0.3-0.3
				c0.3-0.2,0.4-0.2,0.2,0c0.1,0.3,0,0.6-0.1,0.8C11.8,143.8,13.1,143.8,13.2,143.4L13.2,143.4z"/>
		</g>
	</g>
</g>
<g>
	<g>
		<g>
			<path class="st0" d="M-11,140.7c0.3,0.1,0.4,0.3,0.4,0.6c0,0.5-0.7,0.5-1,0.5c-0.6,0-1.2-0.3-1.8-0.1c-0.6,0.1-1.3,0.5-1.1,1.3
				c0.3,1.8,2.8,2.2,3.9,2c0.2-0.1,0.2-0.3,0-0.5c-0.2-0.2-0.6-0.2-0.9-0.2c-0.6,0.1-1.7-0.2-1.9-1c-0.4-1.4,1.8-0.8,2.3-0.8
				c0.6,0,1.4-0.2,1.5-0.9c0.1-0.7-0.6-1.2-1.2-1.4C-11.1,140-11.8,140.4-11,140.7L-11,140.7z"/>
		</g>
		<g>
			<path class="st0" d="M-9.1,148.5c1,0,3.9-0.3,3.5-1.9c-0.3-1.1-2-0.5-2.6-0.2c-0.9,0.5-2.2,1.4-2.1,2.6c0,0.5,0.5,0.8,0.8,1.1
				c0.8,0.6,1.9,0.6,2.8,0.5c0.8-0.1,0.2-0.7-0.4-0.6c-0.5,0.1-2,0-2-0.9c0-0.6,0.6-1.2,1-1.6c0.3-0.2,0.5-0.4,0.8-0.6
				c0.1-0.1,0.3-0.1,0.4-0.2c0.3-0.1,0.1,0,0.1,0c0.7,1-2.2,1.3-2.7,1.2C-10.3,147.8-9.7,148.4-9.1,148.5L-9.1,148.5z"/>
		</g>
		<g>
			<g>
				<path class="st0" d="M-12.1,145c-0.8,0.7-0.3,1.9,0.7,2.1c1,0.2,1.9-0.3,2.6-1c0.5-0.5,1.3-1.3,1.2-2.2
					c-0.1-0.4-0.6-0.6-0.9-0.7c-0.7-0.2-1.3,0-1.9,0.4c-0.4,0.3,0.7,0.7,1,0.5c0.6-0.4,0.8-0.3,0.5,0.4c-0.2,0.4-0.5,0.7-0.7,1
					c-0.3,0.3-0.7,0.6-1.2,0.8c-0.2,0.1-0.3,0.1-0.5,0.1c0.1,0,0.1-0.1,0-0.2c-0.2-0.3,0-0.6,0.2-0.8
					C-10.7,145.2-11.8,144.8-12.1,145L-12.1,145z"/>
			</g>
			<g>
				<path class="st0" d="M-8.8,142.3c-2,1.9-4.3,3.6-6.7,5c-0.5,0.3,0.8,0.8,1.1,0.7c2.4-1.4,4.7-3.2,6.7-5.3
					C-7.4,142.3-8.5,142-8.8,142.3L-8.8,142.3z"/>
			</g>
		</g>
		<g>
			<g>
				<path class="st0" d="M-4.6,153.4c-0.8,0,0.3-1.7,0.4-1.8c0.5-0.7,1.1-1.3,1.6-1.9c0.4-0.4-0.8-0.5-1.1-0.3
					c-0.5,0.5-1,1.1-1.5,1.6c-0.3,0.3-0.6,0.5-0.9,0.7c-0.4,0.2-0.4,0.3-0.5-0.1c-0.3-1.2,1.7-2.5,2.5-3c0.6-0.4-0.5-0.6-0.9-0.4
					c-0.7,0.5-4.2,2.7-2.5,4.1c1.9,1.6,4-1.5,4.9-2.5c-0.4-0.1-0.7-0.2-1.1-0.3c-0.9,0.9-1.9,1.9-2.4,3.1c-0.4,1.1,0.7,1.5,1.6,1.5
					C-3.6,154-3.8,153.4-4.6,153.4L-4.6,153.4z"/>
			</g>
			<g>
				<path class="st0" d="M-4.2,153.4c-1.1-0.2-3.2-0.5-3.4,0.8c-0.1,0.5,1.3,0.6,1.3,0.2c0-0.4,0.3-0.5,0.8-0.5c0.2,0,0.4,0,0.6,0.1
					c0,0,0.1,0,0.1,0c-0.1,0-0.1,0,0,0c0,0,0.1,0,0.1,0c0.3,0.1,0.7,0.1,0.9-0.1C-3.7,153.6-4,153.4-4.2,153.4L-4.2,153.4z"/>
			</g>
		</g>
		<g>
			<path class="st0" d="M26,163.9c0.6-0.7,2.5-3.3,1-3.9c-1-0.4-1.8,0.9-2.1,1.6c-0.3,1-0.4,2.5,0.3,3.3c0.9,1,2.9-0.3,3.5-0.9
				c0.4-0.4,0.4-1.2-0.3-0.6c-0.4,0.4-1.5,1.2-2.1,0.7c-0.5-0.4-0.5-1.3-0.5-1.8c0-0.3,0-0.7,0.1-1c0-0.1,0.1-0.3,0.1-0.4
				c0.1-0.2-0.1,0,0.1,0.1c1.2,0.3-0.6,2.5-0.9,2.8C24.5,164.4,25.5,164.4,26,163.9L26,163.9z"/>
		</g>
		<g>
			<path class="st0" d="M4,158.8c-0.5,1.5,0.9,2.1,2,1.3c0.6-0.4,0.9-1,1.3-1.6c0.3-0.5,0.6-1.3,1.1-1.7c-0.3-0.1-0.6-0.1-0.9-0.2
				c-1,1.1-1.1,3-1.5,4.4c-0.2,0.6,1,0.3,1.2,0c0.5-1.2,1.5-2.5,2.4-3.4c-0.3-0.1-0.6-0.1-0.9-0.2c-0.8,1-1.4,2.6-1.3,3.9
				c0.1,1.5,2.1,0.7,2.8,0.3c0.7-0.4-0.1-0.7-0.6-0.4c-1.2,0.7-1-0.5-0.8-1.3c0.2-0.8,0.5-1.8,1-2.4c0.4-0.5-0.6-0.4-0.9-0.2
				c-1.1,1-2.2,2.3-2.8,3.7c0.4,0,0.8,0,1.2,0c0.4-1.3,0.4-3.2,1.3-4.2c0.4-0.5-0.6-0.4-0.9-0.2c-0.6,0.4-1,1.2-1.4,1.8
				c-0.3,0.4-0.6,0.9-0.9,1.3c-0.3,0.4-0.3,0,0,0.2c-0.4-0.2-0.1-0.9,0-1.1C5.4,158.3,4.2,158.4,4,158.8L4,158.8z"/>
		</g>
		<g>
			<path class="st0" d="M35.3,159.1c-0.4-1.4-1.8-0.2-2.1,0.7c-0.4,1.1-0.3,2.4,0.1,3.5c0.4,1,1.4,1.1,2,0.1
				C36.2,162.1,35.5,160.4,35.3,159.1c-0.3,0.3-0.5,0.5-0.8,0.8c0.2,0.8,0.3,1.6,0.6,2.4c0.1,0.4,0.3,1,0.7,1.3
				c0.8,0.6,1.6-1,1.8-1.6c0.3-0.8-0.5-0.5-0.7,0c-0.3,0.8-0.5,0.3-0.7-0.1C35.7,161,35.5,160,35.3,159.1c-0.1-0.5-0.8,0.4-0.8,0.8
				c0.1,0.8,0.3,1.5,0.4,2.3c0,0.2,0.1,0.8-0.1,0.9c-0.2,0-0.4-0.2-0.4-0.3c-0.3-0.5-0.4-1.1-0.5-1.6c0-0.3,0-0.6,0-1
				c0-0.2,0-0.3,0.1-0.5c0.1-0.3,0.6,0.1,0.6,0.2C34.6,160.4,35.4,159.4,35.3,159.1L35.3,159.1z"/>
		</g>
		<g>
			<g>
				<path class="st0" d="M21,164.2c0,1.1,1.4,1.4,2.4,0.7c1-0.7,1.1-1.7,1.1-2.7c0-0.7-0.2-1.9-1.1-2.3c-0.4-0.2-1,0.1-1.3,0.3
					c-0.7,0.4-0.9,1.1-1,1.7c0,0.5,1.1-0.1,1.1-0.5c0-0.7,0.4-0.8,0.7-0.2c0.2,0.4,0.3,0.8,0.3,1.2c0.1,0.5,0,1-0.1,1.4
					c-0.1,0.2-0.1,0.4-0.3,0.5c0.1-0.1,0-0.1-0.2-0.1c-0.4-0.1-0.5-0.3-0.5-0.6C22.2,163.2,21,163.9,21,164.2L21,164.2z"/>
			</g>
			<g>
				<path class="st0" d="M21.1,159.9c0.2,2.8,0,5.6-0.6,8.4c-0.1,0.5,1.2-0.1,1.3-0.5c0.5-2.8,0.6-5.7,0.4-8.5
					C22.1,158.9,21,159.5,21.1,159.9L21.1,159.9z"/>
			</g>
		</g>
		<g>
			<path class="st0" d="M19.8,159.7c-1.3,0-1.9,1.3-2.1,2.2c-0.2,0.8-0.5,2.8,0.9,3.1c1.5,0.3,2.2-1.3,2.4-2.2c0.2-0.8,0.2-2.8-1-3
				c-0.4-0.1-1.3,0.7-0.9,0.8c0.7,0.1,0.8,1.1,0.8,1.6c0,0.4,0,0.8-0.1,1.2c0,0.2-0.1,0.3-0.2,0.5c-0.1,0.1-0.3,0.4-0.1,0.3
				c-0.7,0.2-0.8-1.3-0.8-1.6c0-0.4,0.1-0.8,0.2-1.2c0.1-0.2,0.1-0.4,0.2-0.6c0.1-0.2,0.2-0.2,0.1-0.2
				C19.5,160.6,20.4,159.7,19.8,159.7z"/>
		</g>
		<g>
			<path class="st0" d="M13.4,162.9c-0.7,0.3-0.4-1.7-0.4-1.8c0.1-0.8,0.4-1.7,0.6-2.5c0.2-0.5-0.9-0.1-1.1,0.2
				c-0.2,0.7-0.5,1.4-0.7,2.1c-0.1,0.4-0.3,0.7-0.5,1.1c-0.2,0.4-0.2,0.5-0.5,0.1c-0.8-1,0.5-3,1-3.8c0.4-0.6-0.8-0.4-1,0
				c-0.5,0.7-2.6,4.3-0.5,4.8c2.4,0.6,2.9-3,3.3-4.4c-0.4,0.1-0.7,0.1-1.1,0.2c-0.4,1.2-0.9,2.6-0.8,3.9c0.1,1.2,1.3,1.1,2.1,0.7
				C14.5,163.1,14.1,162.6,13.4,162.9L13.4,162.9z"/>
		</g>
		<g>
			<path class="st0" d="M4.1,158.7c-1.2,0.6-0.4-1.4-0.3-1.7c0.3-0.8,0.8-1.5,1.2-2.2c0.3-0.5-0.9-0.4-1.1-0.1
				c-0.4,0.6-0.8,1.2-1.2,1.8c-0.2,0.3-0.4,0.6-0.7,0.9c-0.3,0.3-0.3,0.4-0.6,0c-0.6-1.1,1.1-2.8,1.8-3.5c0.5-0.5-0.7-0.5-1-0.3
				c-0.7,0.6-3.5,3.5-1.6,4.5c2.3,1.2,3.6-2.2,4.3-3.5c-0.4,0-0.7,0-1.1-0.1c-0.7,1.1-1.8,2.5-1.7,3.9c0.1,1.5,2.1,0.8,2.8,0.4
				C5.6,158.7,4.5,158.5,4.1,158.7L4.1,158.7z"/>
		</g>
		<g>
			<path class="st0" d="M36.7,162.2c0.6,1.4,1.8,0.9,2.1-0.5c0.1-0.7,0-1.4-0.1-2.1c-0.1-0.6-0.4-1.4-0.3-2.1
				c-0.2,0.2-0.5,0.3-0.7,0.5c0,1.5,1.1,3,1.6,4.3c0.2,0.5,0.9-0.6,0.8-0.9c-0.4-1.3-0.5-2.9-0.4-4.3c-0.2,0.2-0.5,0.4-0.7,0.5
				c0.1,1.3,0.6,2.9,1.5,3.8c1,1,2-1.1,2.2-1.9c0.3-0.9-0.5-0.4-0.7,0.2c-0.4,1.4-1,0.4-1.4-0.3c-0.4-0.7-0.7-1.7-0.8-2.5
				c-0.1-0.7-0.7,0.2-0.7,0.5c-0.1,1.5-0.1,3.4,0.3,4.8c0.3-0.3,0.5-0.6,0.8-0.9c-0.5-1.2-1.7-2.7-1.7-4.1c0-0.7-0.7,0.2-0.7,0.5
				c-0.2,0.8,0.1,1.6,0.2,2.3c0.1,0.5,0.1,1.1,0.1,1.6c0,0.5-0.2,0.2,0.1,0.1c-0.4,0.1-0.6-0.6-0.7-0.8
				C37.3,160.8,36.5,161.8,36.7,162.2L36.7,162.2z"/>
		</g>
		<g>
			<path class="st0" d="M46.1,158.1c-0.3,0.8-1.5-0.9-1.6-1c-0.4-0.7-0.8-1.5-1.1-2.3c-0.2-0.5-0.8,0.6-0.7,1c0.3,0.7,0.6,1.3,0.8,2
				c0.1,0.4,0.3,0.7,0.3,1.1c0.1,0.4,0.1,0.5-0.3,0.5c-1.2-0.1-1.6-2.6-1.7-3.5c-0.1-0.7-0.8,0.3-0.7,0.7c0.1,0.9,0.7,5.1,2.7,3.9
				c2.2-1.4,0.3-4.4-0.3-5.7c-0.2,0.3-0.4,0.6-0.7,1c0.5,1.2,1,2.6,1.9,3.5c0.8,0.8,1.8-0.2,2.2-1.1
				C47.2,157.4,46.5,157.3,46.1,158.1L46.1,158.1z"/>
		</g>
		<g>
			<path class="st0" d="M-15.4,139c-1-0.4-0.4-1.2,0.1-1.6c0.8-0.7,1.9-1,2.8-1.5c0.5-0.2-0.6-0.9-1-0.8c-0.7,0.3-1.4,0.5-2,0.8
				c-0.4,0.1-0.7,0.2-1.1,0.3c-0.4,0.1-0.5,0.1-0.5-0.4c0.1-1.3,2.6-1.7,3.5-1.8c0.7-0.1-0.4-0.9-0.7-0.9c-0.9,0.1-5,0.7-3.8,2.8
				c1.4,2.5,4.4,0.5,5.7-0.1c-0.3-0.3-0.6-0.5-1-0.8c-1.2,0.5-3,0.9-3.7,2.2c-0.6,1,0.8,2,1.6,2.4C-14.8,140-14.7,139.4-15.4,139
				L-15.4,139z"/>
		</g>
		<g>
			<g>
				<path class="st0" d="M32.5,160.5c-0.4-1.1-1.2-1.8-2.1-0.7c-0.6,0.8-0.6,2-0.4,3c0.1,0.7,0.5,2,1.5,1.9c1.1-0.1,2.2-1.7,2.3-2.6
					c0.1-0.7-0.8,0.1-0.9,0.5c-0.1,0.4-0.8,1.2-1.3,1c-0.4-0.2-0.6-0.8-0.7-1.2c-0.2-0.5-0.2-1.2-0.2-1.7c0-0.1,0-0.2,0-0.3
					c0.1-0.4,0,0,0.1,0c0.4,0.2,0.6,0.7,0.7,1.1C31.8,161.8,32.7,160.9,32.5,160.5L32.5,160.5z"/>
			</g>
			<g>
				<path class="st0" d="M28.2,164c0.2,1.1,1.5,1.2,2.2,0.4c0.7-0.8,0.7-1.9,0.5-2.8c-0.1-0.7-0.4-1.8-1.2-2.1
					c-0.4-0.1-0.8,0.2-1.1,0.4c-0.5,0.5-0.7,1.2-0.6,1.8c0,0.5,1-0.2,1-0.6c-0.1-0.7,0.2-0.8,0.6-0.3c0.2,0.3,0.4,0.7,0.5,1.1
					c0.1,0.5,0.2,0.9,0.1,1.4c0,0.2,0,0.4-0.1,0.6c0-0.1,0-0.1-0.1,0c-0.3,0-0.5-0.3-0.6-0.5C29.1,162.9,28.1,163.7,28.2,164
					L28.2,164z"/>
			</g>
		</g>
		<g>
			<path class="st0" d="M-1.2,150.5c-0.7,1.6-1.9,2.9-3,4.2c-0.4,0.4,1,0.5,1.2,0.3c0.5-0.6,1.1-1.1,1.7-1.7
				c0.4-0.3,1.2-1.2,1.5-0.4c0.4,0,0.8-0.1,1.3-0.2c-1-2-3.4-0.2-4.2,0.6c-0.2,0.2,0.2,0.4,0.3,0.4c1.3,0.4-0.3,1.6,0,2.3
				c0.4,0.8,2.1,0.7,2.7,0.7c0.8-0.1,0.6-0.7-0.2-0.6c-0.8,0.1-1.3,0-1-0.7c0.1-0.3,0.3-0.6,0.4-1c0.1-0.7-0.7-1-1.3-1.2
				c0.1,0.1,0.2,0.3,0.3,0.4c0.4-0.3,1.3-1.5,1.8-0.6c0.2,0.4,1.4,0.2,1.3-0.2c-1.2-2.8-5,1.2-5.8,2c0.4,0.1,0.8,0.2,1.2,0.3
				c1.1-1.4,2.3-2.8,3-4.4C0.2,150.2-1.1,150.1-1.2,150.5L-1.2,150.5z"/>
		</g>
	</g>
</g>
</svg>
