<?xml version="1.0" encoding="utf-8"?>
<!-- Generator: Adobe Illustrator 19.0.0, SVG Export Plug-In . SVG Version: 6.00 Build 0)  -->
<svg version="1.1" id="Layer_1" xmlns="http://www.w3.org/2000/svg" xmlns:xlink="http://www.w3.org/1999/xlink" x="0px" y="0px"
	 viewBox="-580 396.7 86 86" style="enable-background:new -580 396.7 86 86;" xml:space="preserve">
<style type="text/css">
	.st0{fill:#F05E24;}
	.st1{fill:#FFFFFF;}
	.st2{fill:#62BA47;}
</style>
<circle class="st0" cx="-534.8" cy="435.8" r="39"/>
<g>
	<g>
		<g>
			<path class="st1" d="M-535.1,424.5c0,0-0.1,0-0.2,0c0,0-0.1,0-0.1,0c-2.2,0.2-2.8,3.2-2.8,4.8c0,1.4,0.3,4.4,2.2,4.4
				c1,0,1.8-1,2.2-1.8c0.5-0.9,0.6-2,0.7-3C-533,427.6-533.1,424.7-535.1,424.5z M-534.8,431.4c0,0.2-0.1,0.3-0.1,0.5
				c0,0-0.1,0.1-0.1,0.2c0,0,0,0,0,0c-1.1,0.1-1.4-2.3-1.4-3c-0.1-0.7,0-1.5,0.1-2.2c0.1-0.2,0.1-0.5,0.2-0.7c1.1,0.1,1.4,2.3,1.4,3
				C-534.6,429.9-534.6,430.7-534.8,431.4z"/>
			<path class="st1" d="M-540.5,425c-0.7-0.3-1.5,0.1-2.1,0.5c-0.1-0.5-0.3-1.1-0.4-1.6c-0.1-0.4-0.9,0-1.1,0.2
				c-0.2,0.2-0.5,0.5-0.6,0.7c0,0.1,0,0.1,0,0.2c-0.1,0.4-0.1,0.7-0.3,1c-0.1,0.1,0,0.1-0.1,0.1c-0.4,0.2-1.1-0.1-1.5-0.2
				c0,0,0,0,0,0c-0.3-0.1-0.6-0.2-0.9-0.2c-0.1,0-0.1,0-0.2,0c0,0-0.1,0-0.1,0c-2.4,0.6-2.4,3.6-2.2,5.2c0.2,1.4,0.9,4.3,3,4
				c1-0.2,1.8-1.3,2.1-2.1c0.4-1,0.4-2,0.3-3c-0.1-0.6-0.2-1.5-0.5-2.3c0.3-0.2,0.7-0.4,1-0.7c0.5,2.1,0.8,4.3,1.1,6.5
				c0.2,2,0.4,4,0.5,6c0,0.5,0.5,0.3,0.8,0.1c0.4-0.3,0.7-0.7,0.7-1.2c0-1.4-0.1-2.8-0.2-4.2c0.6-0.1,1.2-0.4,1.7-1
				c1.1-1.2,1.2-3.1,1-4.6C-538.9,427.4-539.2,425.5-540.5,425z M-546.3,432.5c0,0.2,0,0.3-0.1,0.5c0,0,0,0.1-0.1,0.2c0,0,0,0,0,0
				c-1.2,0.3-1.8-2.1-1.9-2.8c-0.2-0.7-0.2-1.5-0.2-2.2c0-0.2,0.1-0.5,0.1-0.7c0.1,0,0.2,0,0.3,0c0,0,0.1,0.1,0.1,0.1
				c0.1,0,0.2,0.1,0.3,0.1c0.8,0.5,1.2,2,1.3,2.6C-546.3,431-546.2,431.8-546.3,432.5z M-542.1,426.5
				C-542.1,426.5-542.1,426.5-542.1,426.5L-542.1,426.5z M-540.5,432.4C-540.5,432.4-540.5,432.4-540.5,432.4L-540.5,432.4z
				 M-540.5,432.3c0,0,0,0.1-0.1,0.1c0,0,0,0,0,0c-0.6,0.1-1-0.4-1.1-1c0-0.1,0-0.1,0-0.2c-0.1-1.2-0.3-2.4-0.4-3.5c0,0,0,0,0-0.1
				c0-0.4-0.1-0.7,0-1.1c0,0,0,0,0,0c0,0,0,0,0,0c0.2-0.1,0.5,0.1,0.7,0.3c0.6,0.6,0.9,1.7,1,2.5
				C-540.3,430.3-540.2,431.4-540.5,432.3z"/>
			<path class="st1" d="M-553.2,429c0.2-0.8,0.3-1.6,0.4-2.4c0.2-1.3,0.4-3-0.4-4.2c-0.8-1.1-2.3-0.1-2.9,0.8
				c-0.9,1.4-0.8,3.1-0.7,4.6c0.2,1.8,0.6,3.4,1.3,5.1c-0.2,0.8-0.3,1.7-0.6,2.5c0,0.1-0.1,0.1-0.1,0.2c-0.1-0.1-0.2-0.2-0.2-0.3
				c-0.2-0.3-0.3-0.6-0.4-0.9c-0.9-2.5-1.3-5.2-2.6-7.6c-0.4-0.8-1.2-1.9-2.4-1.3c-0.9,0.4-1.3,1.2-1.6,2.1
				c-0.6-0.7-1.4-1.2-2.5-0.4c-0.5,0.3-0.8,0.7-1,1.1c-0.2-0.4-0.3-0.8-0.7-1c-0.7-0.5-2,1.5-1.4,1.9c0.4,0.2,0.6,0.8,0.8,1.2
				c0.4,0.9,0.8,1.8,1.1,2.7c0.2,0.5,0.4,0.9,0.6,1.4c0.6,2,1.5,3.9,2.3,5.7c0.1,0.2,0.2,0.2,0.3,0.2c0.5-0.1,1.1-1.3,1-1.7
				c-0.6-1.7-1.3-3.3-1.9-5c-0.2-0.7-0.5-1.5-0.7-2.2c-0.2-0.8-0.4-1.6-0.4-2.4c0-0.1,0-0.3,0-0.3c1.2-0.4,2.1,2.2,2.3,2.7
				c0.4,1,0.8,1.9,1.1,2.9c0.5,1.5,1,3,1.5,4.4c0.1,0.2,0.2,0.3,0.3,0.2c0.4-0.1,1.1-1.2,0.9-1.7c-0.5-1.6-1-3.1-1.5-4.7
				c-0.1-0.4-0.2-0.8-0.3-1.1c-0.4-1.3-0.7-2.7-0.6-4.1c0,0,0-0.1,0-0.1c0.3,0,0.6,0.3,0.8,0.5c1.1,1.2,1.6,3,2.1,4.5
				c0.3,1,0.6,2.1,1,3.1c0.2,0.6,0.5,1.4,0.9,1.9c0.6,0.6,1.2,0.1,1.7-0.5c0.4-0.6,0.7-1.3,1-2c0.4,0.9,1.1,1.8,1.9,1.6
				c1.3-0.3,2-1.8,2.2-3c0.2-1.3,0-3.7-1.4-4.4C-552.4,428.7-552.8,428.8-553.2,429z M-555.2,427.3c-0.2-1.1-0.3-2.4,0.1-3.6
				c0,0,0.1,0,0.1,0c0.4,0.1,0.5,0.5,0.6,0.9c0.3,1.2,0.1,2.5,0,3.7c-0.1,0.5-0.1,1-0.2,1.4C-554.9,429-555,428.2-555.2,427.3z
				 M-552.2,432.5c0.1,0.6,0.2,1.2,0.1,1.8c0,0,0,0.1,0,0.1c-0.1,0-0.1,0-0.2,0c-0.4,0-0.7-0.5-0.8-0.8c-0.4-0.6-0.6-1.2-0.9-1.8
				c0.1-0.3,0.2-0.7,0.3-1c0.2-0.3,0.4-0.3,0.7-0.1C-552.4,431.2-552.3,432-552.2,432.5z"/>
			<path class="st1" d="M-504.5,437.7c-0.2-0.3-0.7-0.3-1-0.2c0,0-0.1,0-0.1-0.1c-0.1-0.1-0.1-0.2-0.2-0.3c-0.1-0.3-0.1-0.7-0.1-1
				c0.1-0.8,0.3-1.6,0.6-2.4c0,0,0,0,0,0c0.2-0.6,0.5-1.3,0.8-1.9c0,0,0,0,0-0.1c0,0,0,0,0,0c0.2-0.4,0.4-0.8,0.6-1.2
				c0.2-0.4-0.4-0.6-0.8-0.5c-0.1,0-0.1,0-0.2,0c-0.4-0.4-1-0.6-1.8-0.5c-1.9,0.1-3.1,1.9-3.4,3.5c-0.2,1,0.4,1.9,1.4,2.2
				c0.2,0,0.3,0.1,0.5,0.1c-0.2,0.4-0.5,0.7-0.8,1c-0.4,0.3-0.8-0.5-0.8-0.9c0-0.2-0.2-0.3-0.4-0.3c0,0,0,0-0.1,0
				c-0.4,0-0.8,0.2-1.1,0.4c0,0-0.1-0.1-0.1-0.2c-0.2-0.4-0.1-1,0-1.4c0.1-1.5,0.6-3.1,1.1-4.5c0,0,0-0.1,0-0.1
				c0.2-1-0.5-1.7-1.6-1.8c-1.1-0.1-2,0.5-2.7,1.1c-1,0.9-1.5,2.3-1.8,3.7l0,0c-0.2,0.3-0.3,1-0.7,1.4c0,0,0,0,0,0.1
				c-0.1,0-0.3,0-0.2,0c-0.3-0.3-0.1-1.3-0.1-1.7c0.1-1.4,0.4-2.9,1-4.3c0.2-0.3,0.4-0.7,0.5-1c0.2-0.4,0-0.7-0.4-0.6
				c-0.5,0-1.1,0.4-1.3,0.8c-0.2,0.3-0.4,0.7-0.5,1.1c-0.3,0.5-0.5,0.9-0.9,1.3c-0.3,0.3-0.5,0.4-1,0.7c0,0-0.1,0-0.1,0.1
				c0.2-1.4,0.3-2.8,0.4-4.2c0.1-0.2,0-0.3-0.2-0.4c0,0,0,0,0,0l0,0c0,0,0,0,0,0c0,0,0,0,0,0h0c-0.2,0-0.3,0-0.5,0
				c-0.4,0.1-0.8,0.3-1,0.6c-0.1,0.1-0.1,0.2-0.1,0.3c-0.5,2-1.1,4.1-2.5,5.7c-0.1,0.1-0.1,0.2-0.2,0.2c0,0-0.1,0-0.1,0.1
				c0,0,0,0,0,0c0,0-0.1,0-0.1,0c-0.4-0.1-0.6-0.6-0.7-0.9c-0.4-1.2-0.2-2.5,0-3.7c0.1-0.2,0.1-0.5,0.2-0.7c0.1-0.2,0.2-0.3,0.2-0.5
				c0,0,0,0,0,0c0,0,0,0,0,0c0.2,0.1,0.4,0.4,0.5,0.6c0.3,0.6,2.2-0.5,1.9-1.2c-0.5-1-1.7-1.2-2.7-0.6c-0.7,0.4-1.1,0.9-1.5,1.5
				c0,0-0.1,0.1-0.1,0.1c0,0,0,0.1,0,0.1c-0.1,0.1-0.1,0.2-0.2,0.3c0,0,0,0.1,0,0.1c-0.2,0.3-0.3,0.7-0.5,1c0.1-1.2,0.2-2.4,0.4-3.5
				c0.1-0.9-1.7,0.1-1.8,0.6c-0.2,0.5-0.4,1-0.6,1.6c-0.1-0.5-0.2-1.1-0.4-1.6c-0.6-1.3-1.9-1.3-3-0.3c-0.2,0.2-0.7,0.8-0.4,1.1
				c0.3,0.2,0.7,0,1-0.2c0,0,0,0,0.1,0c0.1,0,0.2,0.1,0.3,0.2c0.2,0.2,0.3,0.5,0.4,0.8c0.3,0.7,0.3,1.5,0.3,2.3
				c0,0.8-0.1,1.6-0.3,2.3c0,0,0,0.1,0,0.1c0,0.1-0.1,0.2-0.1,0.2c-0.2-0.1-0.4-0.4-0.5-0.6c-0.3-0.5-1.8,0.8-1.4,1.4
				c0.9,1.4,2.4,0.5,3.1-0.6c0.3-0.4,0.5-0.9,0.7-1.4c0.2-0.4,0.3-0.8,0.5-1.2c-0.1,1.2-0.2,2.4-0.4,3.7c-0.1,0.5,0.5,0.4,0.7,0.3
				c0.4-0.2,0.8-0.6,1-1c0.1-0.5,0.3-0.9,0.5-1.4c0,0.5,0.1,1,0.2,1.4c0.2,0.6,0.5,1.2,1.1,1.4c0.9,0.3,1.9-0.4,2.5-0.9
				c0.5-0.4,0.9-0.9,1.3-1.5c-0.1,0.8-0.2,1.6-0.4,2.4c-0.1,0.5,0.4,0.5,0.7,0.4c0.4-0.1,0.9-0.5,1-0.9c0.2-0.7,0.4-1.5,0.9-2.1
				c0.3-0.3,0.4-0.4,0.9-0.7c0,0,0,0,0.1,0c-0.2,1.1-0.4,2.3-0.3,3.4c0.1,1,0.7,1.3,1.7,1.1c0.4-0.1,0.8-0.3,1.1-0.5
				c0.1,0.4,0.2,0.8,0.5,1.1c0.6,0.6,1.7,0.2,2.4-0.1c0.1,0,0.1-0.1,0.2-0.1c0,0.2,0,0.3,0.1,0.5c0.2,1,1,1.1,1.8,0.9
				c0.5,0.9,1.9,0.9,2.8,0.5c0.2-0.1,0.4-0.2,0.5-0.3c0,0.2,0,0.4,0.1,0.6c0.3,1.2,1.4,1.4,2.5,0.9
				C-505,438.4-504.3,438.1-504.5,437.7z M-513.8,434.6c0,0-0.2,0-0.2-0.1c-0.3-0.2-0.3-0.8-0.3-1.1c0-0.5,0-1,0.1-1.4c0,0,0,0,0,0
				c0-0.1,0-0.1,0-0.2c0.2-0.7,0.4-1.3,0.7-1.9c0.2-0.3,0.5-0.8,0.7-1c0,0,0.1,0,0.1,0c0.1,0,0.2,0,0.3,0.1c0.4,0.1,0.5,0.5,0.5,0.8
				c-0.5,1.5-0.9,3.2-1.6,4.5C-513.7,434.4-513.8,434.5-513.8,434.6z M-511.2,435.7L-511.2,435.7
				C-511.2,435.7-511.3,435.7-511.2,435.7C-511.3,435.7-511.2,435.7-511.2,435.7z M-507.8,432.7c0-0.6,0.5-1.7,1-2
				c-0.1,0.1,0.2,0.1,0.4,0.2c0.3,0.3,0.2,0.7,0.1,1c-0.3,0.7-0.6,1.4-0.8,2.1C-507.7,433.7-507.8,433.1-507.8,432.7z M-505.4,437.5
				C-505.4,437.5-505.4,437.5-505.4,437.5L-505.4,437.5z"/>
		</g>
	</g>
	<path class="st1" d="M-521.5,448.4c0,0-0.1-0.1-0.2-0.2c-0.1-0.1-0.1-0.2-0.1-0.3c-0.1-0.5-0.1-1-0.1-1.4c0-1.4,0.2-2.8,0.4-4.2
		c0,0,0-0.1,0-0.1c0.1-1-0.7-1.6-1.7-1.5c-1,0.1-1.8,0.7-2.4,1.5c-0.7,0.9-1,2-1.1,3.1c-0.1,0.5-0.3,1-0.5,1.5
		c-0.1,0.2-0.2,0.3-0.3,0.4c-0.1,0.1-0.2,0.1-0.2,0.1c0,0-0.1,0-0.1,0c-0.2,0,0,0-0.2,0c-0.5,0-0.9-0.3-1.2-0.6
		c-0.7-0.9-0.5-2.4-0.4-3.4c0.1-0.6,0.2-1.2,0.5-1.8c0.1,0.1,0.1,0.1,0.2,0.2c0.3,0.3,0.4,0.8,0.5,1.2c0.2,0.7,1.9-0.3,1.7-1
		c-0.2-0.7-0.5-1.9-1.6-1.9c-1,0-1.9,0.8-2.3,1.6c-0.5,1-0.7,2-0.7,3.1c-0.1,0.6-0.3,1.2-0.5,1.7c-0.1,0.2-0.2,0.3-0.3,0.5
		c-0.1,0.1-0.2,0.2-0.2,0.2l-0.1,0c-0.2,0.1,0,0-0.2,0c-0.5,0-0.9-0.2-1.3-0.6c-0.8-0.8-0.6-2.4-0.6-3.4c0-0.6,0.1-1.3,0.4-1.8
		c0.1,0,0.1,0.1,0.2,0.2c0.3,0.3,0.4,0.8,0.5,1.2c0.2,0.7,1.8-0.4,1.7-1.1c-0.2-0.7-0.6-1.9-1.6-1.8c-1,0.1-1.8,0.9-2.2,1.7
		c-0.5,1.1-0.6,2.3-0.6,3.4c0,0.1,0,0.2,0,0.4c-0.1,0.6-0.2,1.3-0.5,1.9c-0.5-0.2-0.5-1.5-0.6-1.8c-0.2-1.4-0.2-2.8-0.1-4.2
		c0,0,0-0.1,0-0.1c0-1-0.9-1.4-1.9-1.1c-1,0.3-1.7,1.1-2.2,1.9c-0.5,1-0.8,2.2-0.7,3.3c-0.1,0.6-0.1,1.3-0.3,1.9
		c0,0.1-0.1,0.2-0.1,0.3c-0.2-0.1-0.3-0.3-0.4-0.4c-0.3-0.6-0.5-1.3-0.6-2c-0.2-1.2-0.4-2.8-0.1-4c0.1-0.3,0-0.6-0.4-0.5
		c-0.5,0.1-0.9,0.6-1.1,1c0,0.1-0.1,0.1-0.1,0.2h0l0,0c-0.3,0.8-0.5,1.5-0.6,2.3c-0.2-0.9-0.5-2.1-0.2-3c0.1-0.3,0-0.6-0.4-0.5
		c-0.4,0.1-0.8,0.5-1,0.8c-0.7,1.4-0.7,3.1-0.7,4.7c0,0.7-0.1,1.5-0.3,2.2c0,0-0.1,0-0.1,0c-0.4-0.2-0.5-0.9-0.6-1.4
		c-0.1-0.4-0.8,0.1-0.9,0.2c-0.3,0.3-0.6,0.8-0.5,1.2c0.2,1.1,0.9,2.3,2.2,1.5c0.8-0.5,1.2-1.5,1.4-2.4c0.2,0.6,0.3,1.3,0.4,1.9
		c0.1,0.9,1.5-0.5,1.5-1.1c0-0.4,0-0.7,0-1.1c0.4,1.6,1.1,2.7,2.5,1.8c0.3-0.2,0.6-0.5,0.7-0.8c0.2,0.4,0.4,0.7,0.8,0.9
		c0.8,0.3,1.7-0.3,2.2-0.9c0,0,0-0.1,0.1-0.1c0.1,0.3,0.2,0.5,0.4,0.7c0.2,0.3,0.7,0.3,1,0.3c0.7-0.1,1.2-0.7,1.5-1.2
		c0.7,1.2,2.2,1.4,3.3,0.8c0.5-0.3,0.9-0.6,1.2-1c0,0.1,0.1,0.2,0.1,0.3c0.6,1.3,2.1,1.6,3.3,1c0.4-0.2,0.8-0.5,1.1-0.8
		c0.1,0.5,0.3,1,0.8,1.3c0.7,0.5,1.7,0,2.3-0.4c0,0,0.1-0.1,0.1-0.1c0,0.3,0.1,0.6,0.3,0.8c0.5,0.6,1.4,0.4,1.9,0.1
		c0.3-0.2,0.8-0.5,0.7-1C-520.7,448.1-521.5,448.4-521.5,448.4z M-539.4,446.7c0,0.1-0.1,0.3-0.1,0.4c0,0-0.2,0-0.3,0
		c-0.3-0.1-0.5-0.6-0.6-0.9c-0.4-1.1-0.4-2.4-0.1-3.6c0.1-0.3,0.3-0.9,0.4-1.1c0,0,0.1,0,0.1-0.1c0.1,0,0.2,0,0.3,0
		c0.4,0,0.6,0.3,0.6,0.6C-539.1,443.6-539.1,445.2-539.4,446.7z M-524.1,447.5c0,0.1-0.1,0.2-0.2,0.4c0,0-0.2,0-0.3-0.1
		c-0.3-0.2-0.4-0.7-0.5-1c-0.2-1.2-0.1-2.5,0.3-3.6c0.1-0.3,0.4-0.9,0.6-1.1c0,0,0.1,0,0.1,0c0.1,0,0.2,0,0.3,0
		c0.4,0,0.6,0.4,0.6,0.7C-523.4,444.4-523.6,446-524.1,447.5z"/>
</g>
<g>
	<circle class="st2" cx="-566" cy="470.5" r="12.3"/>
	<g>
		<path class="st1" d="M-560.5,467c-1.5,2.5-3.4,4.8-5.1,7.1c-0.8,1,0.5,1,1,0.3c1.8-2.4,3.8-4.9,5.3-7.5
			C-558.6,465.9-560.1,466.4-560.5,467L-560.5,467z"/>
		<path class="st1" d="M-563.2,466.3c-0.9,0-1.6,0.9-1.7,1.7c-0.2,0.8,0.3,1.5,1.1,1.5C-562.1,469.6-561.2,466.4-563.2,466.3
			c-0.4,0-1.1,1-0.5,1c0.4,0,0.7,0.4,0.7,0.8c0,0.1,0,0.3-0.1,0.5c-0.1,0.1,0,0,0,0c-0.1,0-0.2,0-0.2,0c-0.4,0-0.7-0.4-0.7-0.8
			c0-0.2,0-0.4,0.1-0.5c0.1-0.1,0.1,0,0,0c0.1,0,0.1,0,0.2,0C-563.3,467.3-562.6,466.3-563.2,466.3z"/>
		<path class="st1" d="M-560.6,471.6c-0.9,0-1.6,0.9-1.7,1.7c-0.2,0.8,0.3,1.5,1.1,1.5C-559.5,474.9-558.6,471.7-560.6,471.6
			c-0.4,0-1.1,1-0.5,1c0.4,0,0.7,0.4,0.7,0.8c0,0.1,0,0.3-0.1,0.5c-0.1,0.1,0,0,0,0c-0.1,0-0.2,0-0.2,0c-0.4,0-0.7-0.4-0.7-0.8
			c0-0.2,0-0.4,0.1-0.5c0.1-0.1,0.1,0,0,0c0.1,0,0.1,0,0.2,0C-560.7,472.6-560,471.6-560.6,471.6z"/>
	</g>
	<path class="st1" d="M-570.1,469.8c-0.6-0.3-2-1.6-1-2.3c0.4-0.3,1-0.2,1.4,0c1.1,0.3,0.3,1.3-0.2,1.7c-0.3,0.2-2.1,1.7-1.3,2.3
		c0.9,0.7,2.7-0.1,2.7,1.5c0,1.1-1.7,1.1-2.3,0.7c-1.1-0.7-1-1.7,0.2-2.5c0.5-0.3,1.1-1.8,0.1-1.2c-1.2,0.7-2.5,1.7-2.5,3.2
		c0,0.9,0.9,2,1.9,2.1c1.4,0.1,2.8-0.8,3.6-1.9c0.7-1.1,0.6-2.5-0.7-2.8c-0.4-0.1-1.5-0.4-1.8-0.1c0.5-0.6,1.3-1,1.8-1.7
		c1-1.3,0.6-2.6-1-2.8c-1.3-0.2-2.6,0.8-3.2,1.9c-0.8,1.4,0.1,2.7,1.3,3.4C-570.7,471.4-569.5,470.1-570.1,469.8L-570.1,469.8z"/>
</g>
<g>
	<g>
		<path class="st1" d="M-533.3,462.3c-0.3-0.1-0.7,0.1-1,0.3c0-0.3-0.1-0.6-0.1-0.9c-0.1-0.4-0.9,0.3-0.9,0.6c0.1,0.6,0.1,1.3,0.1,2
			c0,0,0,0,0,0c0,0,0,0,0,0c0,0.3,0,0.6,0,0.9c-0.2,0.2-0.5,0.4-0.7,0.6c0-1.2-0.1-2.3,0-3.4c0-0.1,0-0.1,0-0.1c0,0,0,0,0,0
			c0,0,0,0,0,0c0,0,0,0,0,0c-0.2-0.1-0.7,0.2-0.9,0.5c0,0,0,0.1-0.1,0.1c-0.2,0.9-0.4,1.8-0.7,2.7c-0.1,0.3-0.3,1-0.7,0.7
			c-0.5-0.4-0.1-1.5-0.1-1.9c0.1-0.7,0.3-1.3,0.4-2c0-0.5-1,0-1.1,0.3c-0.1,0.5-0.6,1.8-0.7,2.9c-0.5,0.3-1.3,0.6-1.4,0.4
			c-0.1-0.4,0-0.8,0-1.2c0-0.7-0.5-0.9-1-0.9c0,0,0,0,0,0c0.1-0.2,0.3-0.6,0.5-0.8c0.2-0.2,0.5-0.3,0.7-0.1c0.3,0.3,1.4-0.3,1.1-0.6
			c-0.8-0.8-1.5-0.5-2.2,0.1c0.1-0.5,0.2-1.1,0.2-1.6c0-0.4-1-0.1-1.1,0.3c-0.1,1.6-0.8,3.2-1.4,4.7c-0.2,0.5,1.1,0.2,1.2-0.1
			c0.2-0.4,0.4-0.8,0.6-1.2c0.6,0.3-0.2,1.7,0.4,2c0.7,0.4,1.7,0.1,2.5-0.3c0.1,0.5,0.4,0.9,1,0.9c0.7,0,1.2-0.2,1.5-0.6
			c0,0.1,0,0.2,0,0.2c-0.5,0.4-1,0.8-1.5,1.2c-0.5,0.6-2.4,2.6-0.4,3c1.4,0.3,2.4-0.8,2.7-1.6c0.3-0.8,0.4-1.7,0.5-2.7
			c0.3-0.2,0.5-0.4,0.7-0.6c0,0.1,0,0.2,0,0.3c0,0,0,0.1,0,0.1c0,0,0,0.1,0,0.1c0,1.2-0.2,2.5-0.4,3.7c-0.1,0.5,1.2-0.1,1.2-0.5
			c0.1-0.8,0.2-1.6,0.2-2.3c0.4,0,0.7-0.1,1.1-0.4c0.8-0.7,0.9-1.7,0.8-2.6C-532.3,463.7-532.5,462.7-533.3,462.3z M-538.1,470.2
			c-1.3-0.3-0.3-1.3,0.9-2.3C-537.4,469.2-537.7,470.3-538.1,470.2z M-533.3,466.1c0,0.2-0.1,0.3-0.2,0.5c0.1-0.1,0-0.1-0.1-0.1
			c-0.3,0-0.4-0.2-0.5-0.5c0-0.7,0-1.5-0.1-2.2c0-0.7,0.3-0.7,0.6-0.2c0.2,0.3,0.3,0.7,0.3,1.1
			C-533.2,465.2-533.2,465.7-533.3,466.1z"/>
		<path class="st1" d="M-523.9,459.8C-523.9,459.8-523.9,459.8-523.9,459.8c-1,0.6-0.9,2-0.7,2.9c0.1,0.3,0.2,0.7,0.4,1.1
			c-0.3,0.6-0.8,1.3-1.5,1.2c-1.2-0.2,0-2,0.1-2.6c0.3-1.6-1.2-1.8-2.1-0.6c-0.3,0.4-0.2,1.2,0.3,0.5c0.4-0.5,1-0.2,1,0.3
			c0,0.6-0.5,1.2-0.7,1.8c-0.1,0.3-0.2,0.6-0.1,0.8c-0.5,0.5-0.9,0.7-1.2,0c-0.2-0.5-0.4-1-0.5-1.5c0-0.3-0.1-0.6-0.2-0.9
			c0-0.1,0-0.3-0.1-0.4c0,0,0-0.1,0-0.1c-0.4-1.2-1.8-0.2-2.2,0.6c-0.5,1-0.6,2.2-0.2,3.3c0.3,1,1.4,1.2,2.2,0.3
			c0,0,0.1-0.1,0.1-0.1c0.1,0.1,0.2,0.3,0.4,0.4c0.6,0.4,1.5-0.3,2-0.9c0,0,0.1,0.1,0.1,0.1c0.9,0.7,2.2-0.6,2.8-1.6
			c0.3,0.4,0.8,0.7,1.3,0.4c1.3-0.5,1-2.2,0.7-3C-522,461-522.9,459.4-523.9,459.8z M-529.8,466c-0.2,0-0.4-0.2-0.5-0.3
			c-0.3-0.4-0.4-1-0.4-1.6c0-0.3,0-0.6,0.1-0.9c0-0.1,0.1-0.3,0.1-0.4c0.2-0.3,0.6,0.1,0.6,0.2c0.1,0.7,0.2,1.5,0.2,2.2
			C-529.7,465.5-529.7,466-529.8,466z M-522.3,462.8c0.1,0.2,0.1,0.3,0.1,0.5c0,0.1,0.1,0.3,0.1,0.3s-1.2-0.6-1.3-0.9
			c-0.2-0.3-0.3-0.7-0.4-1.1c-0.1-0.2-0.1-0.4-0.1-0.6c0-0.1,0-0.2,0-0.2c0.5-0.1,0.9,0.5,1.2,0.9
			C-522.6,462.1-522.5,462.4-522.3,462.8z"/>
		<path class="st1" d="M-521.6,457.9c0.6-0.3,0.6-1.3,0.6-1.8c0-0.2-0.1-0.4-0.3-0.3c-0.2,0.2-0.3,0.5-0.2,0.8c0,0.1,0,0.1,0,0.2
			c0,0,0,0,0,0c0,0,0,0,0,0c0,0,0,0-0.1,0c0,0-0.1,0-0.1,0c0,0,0,0,0,0s-0.3,0.2-0.4,0.3c-0.1,0.2-0.2,0.6,0,0.7
			C-522,457.9-521.7,458-521.6,457.9z"/>
		<path class="st1" d="M-517.3,460.2c-0.2,0.8-1.5-0.7-1.6-0.7c-0.1-0.2-0.3-0.4-0.4-0.5c-0.3-0.5-0.6-0.9-0.8-1.2
			c-0.1-0.1-0.1-0.2-0.2-0.3c-0.3-0.4-0.7,0.7-0.5,1c0.3,0.6,0.7,1.2,1,1.8c0.2,0.3,0.3,0.7,0.4,1c0.1,0.4,0.2,0.5-0.2,0.5
			c-1.2,0-1.8-2.2-2-3.1c-0.2-0.6-0.7,0.4-0.6,0.7c0.2,0.8,1.2,4.7,2.9,3.4c0.5-0.4,0.7-0.8,0.8-1.3c0.8,0.6,1.6-0.4,1.9-1.3
			C-516.4,459.4-517.1,459.4-517.3,460.2z"/>
		<path class="st1" d="M-548.5,462c-0.6,0.1-1.2,0.1-1.7-0.4c-0.4-0.4-0.2-1-0.1-1.4c0.2-0.5,0.5-0.9,0.9-1.3
			c0.1-0.1,0.2-0.2,0.3-0.3c0.3-0.2,0.4-0.3,0.2-0.1c0.1,0.3,0,0.6,0,0.8c-0.1,0.4,1.1,0.4,1.2,0c0.1-0.8,0-1.6-1-1.6
			c-1.1,0-2,0.9-2.5,1.7c-0.4,0.6-0.8,1.4-0.1,2.3c0.7,0.9,2.3,0.9,3.1,0.7C-547.5,462.5-547.7,461.9-548.5,462z"/>
	</g>
</g>
</svg>
