<?xml version="1.0" encoding="utf-8"?>
<!-- Generator: Adobe Illustrator 19.0.0, SVG Export Plug-In . SVG Version: 6.00 Build 0)  -->
<svg version="1.1" id="Layer_1" xmlns="http://www.w3.org/2000/svg" xmlns:xlink="http://www.w3.org/1999/xlink" x="0px" y="0px"
	 viewBox="-580 396.7 86 86" style="enable-background:new -580 396.7 86 86;" xml:space="preserve">
<style type="text/css">
	.st0{fill:#512D80;}
	.st1{fill:#62BA47;}
	.st2{fill:#FFFFFF;}
</style>
<circle class="st0" cx="-534.8" cy="435.7" r="39"/>
<circle class="st1" cx="-566" cy="470.4" r="12.3"/>
<g>
	<path class="st2" d="M-522.6,431.4c-1-0.7-2.4-0.4-3.5,0c0-0.8-0.1-1.7-0.2-2.5c-0.1-0.7-1.4-0.2-1.7-0.1c-0.2,0.1-0.4,0.2-0.5,0.3
		c-0.3,0.2-0.5,0.5-0.6,0.8c-1.1,2.4-2.8,1-3.3,0.7l0,0c-0.4-0.3-0.9-0.5-1.5-0.5c-3.6,0.1-4.5,4.4-4.6,7.2c-0.1,2.2,0,6.5,3.1,6.7
		c1.5,0.1,3-1.4,3.6-2.5c0.8-1.4,1.1-3,1.2-4.5c0.1-0.9,0-2.5-0.4-4c0.7-0.2,1.4-0.5,2-0.9c0.1,3.6,0,7.2-0.2,10.7
		c-0.2,3-0.6,6.1-1,9.1c-0.1,0.7,0.7,0.6,1.1,0.5c0.6-0.3,1.3-0.9,1.4-1.5c0.4-2.1,0.7-4.2,0.9-6.3c1,0.1,2.1-0.2,3-0.8
		c2-1.4,2.7-4.1,2.9-6.4C-520.8,435.3-520.9,432.8-522.6,431.4z M-533.9,440.8c-0.1,0.3-0.2,0.6-0.3,0.9c-0.6-0.1-1-1.1-1.1-1.5
		c-0.4-1-0.5-2.2-0.5-3.3c0-1.1,0.1-2.3,0.4-3.4c0.1-0.3,0.2-0.6,0.3-0.8c1.4,1.2,1.6,3.1,1.6,4.8
		C-533.5,438.5-533.5,439.7-533.9,440.8z M-524.8,442.2c0,0.1-0.1,0.1-0.1,0.2c0,0,0,0,0,0c-1,0-1.6-1-1.5-2.1
		c0.2-1.8,0.3-3.6,0.3-5.4c0,0,0-0.1,0-0.1c0-0.6,0.1-1.1,0.4-1.6c0,0,0,0,0,0c0,0,0,0,0,0c0.4,0,0.7,0.3,0.9,0.7
		c0.8,1.2,0.9,2.9,0.9,4.1C-523.9,439.4-524,441-524.8,442.2z"/>
	<path class="st2" d="M-514.5,432.7c-3.5-0.8-5,3.5-5.5,6.1c-0.4,2.3-0.9,6.4,2.1,7.3c1.5,0.4,3.1-0.7,3.8-1.7
		c1-1.2,1.5-2.7,1.8-4.2C-511.8,437.9-511.3,433.5-514.5,432.7z M-515.9,443.3c-0.1,0.3-0.3,0.5-0.4,0.8c-0.5-0.3-0.8-1.3-0.9-1.7
		c-0.2-1.1-0.2-2.3-0.1-3.4c0.1-1.1,0.4-2.3,0.9-3.3c0.1-0.3,0.3-0.5,0.4-0.8c1.4,1.3,1.2,3.4,0.9,5.1
		C-515.2,441.1-515.4,442.3-515.9,443.3z"/>
	<path class="st2" d="M-543.3,433.4c0.5-1.2,1-2.4,1.4-3.6c0.8-2.3,1.3-4.3,0.7-6.3c-0.6-1.8-3.7-0.6-4.8,0.5
		c-1.7,1.8-2.3,4.4-2.6,6.8c-0.2,2.6-0.1,5.3,0.4,8c-0.5,1.2-1.1,2.4-1.8,3.6c-0.1,0.1-0.1,0.2-0.2,0.3c-0.1-0.1-0.2-0.3-0.3-0.5
		c-0.2-0.5-0.3-1-0.4-1.5c-0.5-4-0.6-8.2-1.7-12.1c-0.3-1.2-1.3-3.2-3.3-2.5c-1.5,0.5-2.4,1.6-3,2.9c-0.7-1.2-1.8-2.1-3.7-1.1
		c-0.8,0.4-1.4,1-1.8,1.6c-0.1-0.6-0.3-1.2-0.7-1.6c-0.9-0.8-3.2,2.1-2.4,2.7c0.5,0.4,0.6,1.4,0.8,2c0.4,1.4,0.6,2.9,0.9,4.3
		c0.1,0.8,0.3,1.5,0.4,2.3c0.5,3.1,1.1,6.2,1.7,9.3c0.1,0.3,0.2,0.4,0.4,0.4c0.7,0,2-1.8,1.8-2.6c-0.5-2.7-0.9-5.4-1.3-8
		c-0.2-1.1-0.3-2.3-0.3-3.5c-0.1-1.2-0.1-2.5,0.1-3.8c0-0.2,0.1-0.4,0.1-0.5c2.1,0.3,2.4,2.9,2.6,4.5c0.3,1.5,0.6,3.1,0.8,4.7
		c0.3,2.4,0.6,4.7,1,7.1c0,0.3,0.2,0.4,0.4,0.4c0.7,0,2-1.7,1.9-2.4c-0.3-2.5-0.6-5-0.9-7.5c-0.1-0.6-0.1-1.2-0.1-1.8
		c-0.1-2.2-0.1-4.3,0.3-6.4c0-0.1,0-0.1,0.1-0.2c0.5,0,0.9,0.7,1,0.9c1.3,2.2,1.5,4.8,1.8,7.2c0.2,1.6,0.3,3.3,0.5,4.9
		c0.1,1,0.3,2.2,0.8,3.1c0.7,1.1,1.9,0.4,2.8-0.4c0.9-0.8,1.6-1.8,2.2-2.9c0.4,1.4,1.2,2.9,2.5,2.8c2.2-0.2,3.8-2,4.5-4
		c0.8-2.2,1.2-5.3-0.9-6.9C-541.9,433.3-542.7,433.3-543.3,433.4z M-545.9,430.5c0.1-1.8,0.4-3.7,1.3-5.4c0,0,0.1,0,0.1,0
		c0.6,0.3,0.7,1,0.7,1.4c0.1,1.9-0.5,3.8-1.2,5.6c-0.3,0.7-0.5,1.4-0.8,2.1C-546,433.1-546,431.8-545.9,430.5z M-542.8,439.1
		c0,0.9-0.1,1.8-0.4,2.7c0,0.1,0,0.1-0.1,0.2c-0.1,0-0.2,0-0.3,0c-0.6-0.1-0.9-0.9-1.1-1.4c-0.4-0.9-0.6-1.9-0.8-2.9
		c0.3-0.5,0.5-1,0.8-1.4c0.4-0.4,0.7-0.3,1.2,0.1C-542.7,437-542.8,438.2-542.8,439.1z"/>
	<path class="st2" d="M-504.5,446.8c-0.4-0.6-1.4-0.3-1.8-0.2c-0.7,0.3-1.2,0.4-1.9-0.1c-0.5-0.3-0.9-0.9-0.9-1.4
		c-0.3-2.1,2.3-3.2,3.7-4.2c1.1-0.8,2.5-2.6,1.5-4.2c-1.1-1.7-3.4-1.9-5.2-1.3c-0.6,0.2-1.5,0.6-1.4,1.4c0.1,0.7,1.2,0.5,1.6,0.4
		c0.8-0.3,1.5-0.1,2.1,0.7c0.5,0.7,0.1,1.4-0.3,1.9c-0.9,0.9-2.2,1.4-3.1,2.2c-0.7,0.7-1.3,1.4-1.6,2.3c-0.5,1.2,0,2.7,1,3.6
		c1.5,1.2,3.6,0.9,5.3,0.2C-505.1,448-504.2,447.4-504.5,446.8z"/>
</g>
<g>
	<path class="st2" d="M-559.5,467.2c-1.4,2.3-3.1,4.4-4.7,6.5c-0.7,0.9,0.4,0.9,0.9,0.3c1.7-2.2,3.5-4.5,4.9-6.9
		C-557.8,466.1-559.2,466.6-559.5,467.2L-559.5,467.2z"/>
	<path class="st2" d="M-562,466.5c-0.8,0-1.5,0.8-1.6,1.6c-0.1,0.7,0.3,1.4,1,1.4C-561,469.6-560.2,466.6-562,466.5
		c-0.4,0-1,0.9-0.5,0.9c0.4,0,0.6,0.4,0.7,0.7c0,0.1,0,0.3,0,0.4c-0.1,0.1,0,0,0,0c-0.1,0-0.2,0-0.2,0c-0.4,0-0.6-0.4-0.7-0.7
		c0-0.2,0-0.3,0.1-0.5c0-0.1,0.1,0,0,0c0.1,0,0.1,0,0.2,0C-562.2,467.4-561.5,466.5-562,466.5z"/>
	<path class="st2" d="M-559.6,471.4c-0.8,0-1.5,0.8-1.6,1.6c-0.1,0.7,0.3,1.4,1,1.4C-558.6,474.4-557.8,471.5-559.6,471.4
		c-0.4,0-1,0.9-0.5,0.9c0.4,0,0.6,0.4,0.7,0.7c0,0.1,0,0.3,0,0.4c-0.1,0.1,0,0,0,0c-0.1,0-0.2,0-0.2,0c-0.4,0-0.6-0.3-0.7-0.7
		c0-0.2,0-0.3,0.1-0.5c0-0.1,0.1,0,0,0c0.1,0,0.1,0,0.2,0C-559.8,472.3-559.1,471.4-559.6,471.4z"/>
</g>
<path class="st2" d="M-574,470c0.4-0.4,0.7-0.9,1-1.4c0.2-0.2,0.3-0.4,0.5-0.6c0.2-0.2,0.2-0.2-0.1-0.1c0,0.3,0,0.6,0,1
	c0,1.8-0.1,3.7-0.2,5.5c-0.1,0.7,1.1-0.2,1.2-0.7c0.1-1.2,0.2-2.4,0.2-3.6c0-0.5,0.4-3.3-0.2-3.5c-1.2-0.3-2.5,2.4-3.1,3.1
	C-575.4,470.5-574.4,470.5-574,470L-574,470z"/>
<path class="st2" d="M-568.1,469.8c-0.5-0.3-1.7-1.4-0.8-2c0.4-0.2,0.8-0.1,1.2,0c1,0.3,0.3,1.1-0.2,1.4c-0.2,0.2-1.8,1.5-1.1,1.9
	c0.8,0.6,2.4-0.1,2.4,1.3c0,0.9-1.5,0.9-2,0.6c-0.9-0.6-0.9-1.5,0.2-2.1c0.5-0.3,0.9-1.5,0.1-1c-1,0.6-2.1,1.5-2.1,2.7
	c0,0.8,0.8,1.7,1.6,1.8c1.2,0.1,2.4-0.7,3.1-1.6c0.6-0.9,0.6-2.1-0.6-2.4c-0.4-0.1-1.3-0.3-1.5,0c0.5-0.5,1.1-0.9,1.5-1.4
	c0.8-1.1,0.5-2.2-0.9-2.4c-1.2-0.2-2.2,0.7-2.7,1.6c-0.7,1.2,0.1,2.3,1.1,2.9C-568.6,471.2-567.6,470-568.1,469.8L-568.1,469.8z"/>
</svg>
