<?xml version="1.0" encoding="utf-8"?>
<!-- Generator: Adobe Illustrator 19.0.0, SVG Export Plug-In . SVG Version: 6.00 Build 0)  -->
<svg version="1.1" id="Layer_1" xmlns="http://www.w3.org/2000/svg" xmlns:xlink="http://www.w3.org/1999/xlink" x="0px" y="0px"
	 viewBox="-580 396.7 86 86" style="enable-background:new -580 396.7 86 86;" xml:space="preserve">
<style type="text/css">
	.st0{fill:#AB1D43;}
	.st1{fill:#62BA47;}
	.st2{fill:#FFFFFF;}
</style>
<circle class="st0" cx="-535.9" cy="435.9" r="38.9"/>
<g>
	<circle class="st1" cx="-566.9" cy="470.4" r="12.2"/>
	<g>
		<path class="st2" d="M-561.4,467c-1.5,2.5-3.3,4.8-5.1,7.1c-0.8,1,0.5,1,1,0.3c1.8-2.4,3.8-4.8,5.3-7.4
			C-559.6,465.8-561.1,466.4-561.4,467L-561.4,467z"/>
		<path class="st2" d="M-564.2,466.3c-0.9,0-1.6,0.9-1.7,1.7c-0.2,0.8,0.3,1.5,1.1,1.5C-563,469.6-562.2,466.4-564.2,466.3
			c-0.4,0-1.1,1-0.5,1c0.4,0,0.7,0.4,0.7,0.8c0,0.1,0,0.3-0.1,0.5c-0.1,0.1,0,0,0,0c-0.1,0-0.2,0-0.2,0c-0.4,0-0.7-0.4-0.7-0.8
			c0-0.2,0-0.4,0.1-0.5c0.1-0.1,0.1,0,0,0c0.1,0,0.1,0,0.2,0C-564.3,467.2-563.6,466.3-564.2,466.3z"/>
		<path class="st2" d="M-561.6,471.5c-0.9,0-1.6,0.9-1.7,1.7c-0.2,0.8,0.3,1.5,1.1,1.5C-560.5,474.8-559.6,471.6-561.6,471.5
			c-0.4,0-1.1,1-0.5,1c0.4,0,0.7,0.4,0.7,0.8c0,0.1,0,0.3-0.1,0.5c-0.1,0.1,0,0,0,0c-0.1,0-0.2,0-0.2,0c-0.4,0-0.7-0.4-0.7-0.8
			c0-0.2,0-0.4,0.1-0.5c0.1-0.1,0.1,0,0,0c0.1,0,0.1,0,0.2,0C-561.7,472.5-561,471.5-561.6,471.5z"/>
	</g>
	<path class="st2" d="M-571.1,469.7c-0.6-0.3-2-1.6-0.9-2.3c0.4-0.3,0.9-0.2,1.4,0c1.1,0.3,0.3,1.3-0.2,1.7
		c-0.3,0.2-2.1,1.7-1.3,2.3c0.9,0.7,2.7-0.1,2.7,1.5c0,1.1-1.7,1.1-2.3,0.7c-1.1-0.7-1-1.7,0.2-2.5c0.5-0.3,1.1-1.7,0.1-1.2
		c-1.2,0.7-2.4,1.7-2.5,3.2c0,0.9,0.9,2,1.9,2.1c1.4,0.1,2.8-0.8,3.6-1.9c0.7-1.1,0.6-2.5-0.7-2.8c-0.4-0.1-1.5-0.4-1.8-0.1
		c0.5-0.6,1.3-1,1.8-1.7c1-1.3,0.6-2.5-1-2.8c-1.3-0.2-2.5,0.8-3.2,1.8c-0.8,1.4,0.1,2.7,1.3,3.3
		C-571.6,471.4-570.5,470.1-571.1,469.7L-571.1,469.7z"/>
</g>
<g>
	<g>
		<g>
			<path class="st2" d="M-536.4,424.6c0,0-0.1,0-0.2,0c0,0-0.1,0-0.1,0c-2.2,0.2-2.7,3.1-2.7,4.8c0,1.4,0.3,4.4,2.2,4.4
				c0.9,0,1.7-1,2.2-1.7c0.5-0.9,0.6-1.9,0.7-2.9C-534.3,427.7-534.5,424.8-536.4,424.6z M-536.1,431.5c0,0.2-0.1,0.3-0.1,0.5
				c0,0-0.1,0.1-0.1,0.2c0,0,0,0,0,0c-1.1,0.1-1.4-2.3-1.4-3c-0.1-0.7,0-1.5,0.1-2.2c0.1-0.2,0.1-0.4,0.2-0.7c1.1,0.1,1.4,2.3,1.4,3
				C-535.9,430-536,430.8-536.1,431.5z"/>
			<path class="st2" d="M-541.8,425.1c-0.7-0.3-1.5,0.1-2.1,0.5c-0.1-0.5-0.2-1.1-0.4-1.6c-0.1-0.4-0.9,0-1.1,0.2
				c-0.2,0.2-0.5,0.4-0.6,0.7c0,0.1,0,0.1,0,0.2c-0.1,0.4-0.1,0.7-0.3,1c-0.1,0.1,0,0.1-0.1,0.1c-0.4,0.2-1.1-0.1-1.5-0.2
				c0,0,0,0,0,0c-0.3-0.1-0.6-0.2-0.9-0.2c-0.1,0-0.1,0-0.2,0c0,0-0.1,0-0.1,0c-2.3,0.6-2.4,3.6-2.2,5.2c0.2,1.4,0.9,4.3,3,4
				c1-0.2,1.8-1.3,2.1-2.1c0.4-1,0.4-2,0.3-3c-0.1-0.6-0.2-1.5-0.5-2.3c0.3-0.2,0.7-0.4,1-0.7c0.5,2.1,0.8,4.3,1.1,6.5
				c0.2,2,0.4,4,0.5,6c0,0.5,0.5,0.3,0.8,0.1c0.4-0.3,0.7-0.7,0.7-1.2c0-1.4-0.1-2.8-0.2-4.2c0.6-0.1,1.2-0.4,1.7-0.9
				c1.1-1.2,1.2-3,1-4.6C-540.2,427.6-540.5,425.6-541.8,425.1z M-547.6,432.6c0,0.2,0,0.3-0.1,0.5c0,0,0,0.1-0.1,0.2c0,0,0,0,0,0
				c-1.2,0.3-1.8-2.1-1.9-2.8c-0.2-0.7-0.2-1.5-0.2-2.2c0-0.2,0.1-0.5,0.1-0.7c0.1,0,0.2,0,0.3,0c0,0,0.1,0.1,0.1,0.1
				c0.1,0,0.2,0.1,0.3,0.1c0.8,0.5,1.1,2,1.3,2.6C-547.6,431.1-547.5,431.9-547.6,432.6z M-543.4,426.6
				C-543.4,426.6-543.4,426.6-543.4,426.6L-543.4,426.6z M-541.8,432.5C-541.8,432.5-541.8,432.5-541.8,432.5L-541.8,432.5z
				 M-541.8,432.4c0,0,0,0.1-0.1,0.1c0,0,0,0,0,0c-0.6,0.1-1-0.4-1.1-0.9c0-0.1,0-0.1,0-0.2c-0.1-1.2-0.3-2.3-0.4-3.5c0,0,0,0,0-0.1
				c0-0.4-0.1-0.7,0-1.1c0,0,0,0,0,0c0,0,0,0,0,0c0.2-0.1,0.5,0.1,0.7,0.3c0.6,0.6,0.9,1.7,1,2.5
				C-541.6,430.4-541.5,431.5-541.8,432.4z"/>
			<path class="st2" d="M-554.5,429.1c0.2-0.8,0.3-1.6,0.4-2.4c0.2-1.3,0.4-3-0.4-4.1c-0.8-1.1-2.3-0.1-2.8,0.8
				c-0.9,1.4-0.8,3.1-0.7,4.6c0.2,1.7,0.6,3.4,1.3,5.1c-0.2,0.8-0.3,1.7-0.6,2.5c0,0.1-0.1,0.1-0.1,0.2c-0.1-0.1-0.2-0.2-0.2-0.3
				c-0.2-0.3-0.3-0.6-0.4-0.9c-0.9-2.5-1.3-5.2-2.6-7.6c-0.4-0.8-1.2-1.9-2.4-1.3c-0.9,0.4-1.3,1.2-1.6,2.1
				c-0.6-0.7-1.4-1.2-2.5-0.4c-0.5,0.3-0.8,0.7-1,1.1c-0.2-0.4-0.3-0.8-0.7-1c-0.7-0.5-2,1.5-1.4,1.9c0.4,0.2,0.6,0.8,0.8,1.2
				c0.4,0.9,0.8,1.8,1.1,2.7c0.2,0.5,0.4,0.9,0.5,1.4c0.6,2,1.5,3.8,2.2,5.7c0.1,0.2,0.2,0.2,0.3,0.2c0.5-0.1,1.1-1.3,1-1.7
				c-0.6-1.6-1.3-3.3-1.8-5c-0.2-0.7-0.5-1.4-0.7-2.2c-0.2-0.8-0.4-1.6-0.4-2.4c0-0.1,0-0.3,0-0.3c1.2-0.4,2.1,2.2,2.3,2.7
				c0.4,0.9,0.8,1.9,1.1,2.9c0.5,1.5,1,3,1.5,4.4c0.1,0.2,0.2,0.3,0.3,0.2c0.4-0.1,1.1-1.2,0.9-1.7c-0.5-1.5-1-3.1-1.5-4.7
				c-0.1-0.4-0.2-0.8-0.3-1.1c-0.4-1.3-0.7-2.7-0.6-4.1c0,0,0-0.1,0-0.1c0.3,0,0.6,0.3,0.8,0.5c1.1,1.2,1.5,3,2.1,4.5
				c0.3,1,0.6,2.1,1,3.1c0.2,0.6,0.5,1.4,0.9,1.9c0.6,0.6,1.2,0.1,1.7-0.5c0.4-0.6,0.7-1.3,1-2c0.4,0.9,1.1,1.7,1.9,1.6
				c1.3-0.3,2-1.8,2.2-3c0.2-1.3,0-3.7-1.4-4.4C-553.7,428.9-554.1,428.9-554.5,429.1z M-556.4,427.5c-0.2-1.1-0.3-2.4,0.1-3.6
				c0,0,0.1,0,0.1,0c0.4,0.1,0.5,0.5,0.6,0.8c0.3,1.2,0.1,2.5,0,3.7c-0.1,0.5-0.1,1-0.2,1.4C-556.1,429.1-556.3,428.3-556.4,427.5z
				 M-553.4,432.7c0.1,0.6,0.2,1.2,0.1,1.8c0,0,0,0.1,0,0.1c-0.1,0-0.1,0-0.2,0c-0.4,0-0.7-0.5-0.8-0.8c-0.4-0.5-0.6-1.2-0.9-1.8
				c0.1-0.3,0.2-0.7,0.3-1c0.2-0.3,0.4-0.3,0.7-0.1C-553.7,431.3-553.5,432.1-553.4,432.7z"/>
			<path class="st2" d="M-506,437.7c-0.2-0.3-0.7-0.3-1-0.2c0,0-0.1,0-0.1-0.1c-0.1-0.1-0.1-0.2-0.2-0.3c-0.1-0.3-0.1-0.7-0.1-1
				c0.1-0.8,0.3-1.6,0.6-2.4c0,0,0,0,0,0c0.2-0.6,0.5-1.2,0.8-1.9c0,0,0,0,0-0.1c0,0,0,0,0,0c0.2-0.4,0.4-0.8,0.6-1.2
				c0.2-0.4-0.4-0.6-0.7-0.5c-0.1,0-0.1,0-0.2,0c-0.4-0.4-1-0.6-1.8-0.5c-1.9,0.1-3.1,1.9-3.4,3.5c-0.2,1,0.4,1.9,1.4,2.2
				c0.2,0,0.3,0.1,0.5,0.1c-0.2,0.4-0.5,0.7-0.8,1c-0.4,0.3-0.8-0.5-0.8-0.8c0-0.2-0.2-0.3-0.4-0.3c0,0,0,0-0.1,0
				c-0.4,0-0.8,0.2-1.1,0.4c0,0-0.1-0.1-0.1-0.2c-0.2-0.4-0.1-1,0-1.4c0.1-1.5,0.6-3.1,1.1-4.5c0,0,0-0.1,0-0.1
				c0.2-1-0.5-1.7-1.6-1.8c-1.1-0.1-2,0.5-2.7,1.1c-1,0.9-1.5,2.3-1.8,3.7l0,0c-0.2,0.3-0.3,1-0.7,1.4c0,0,0,0,0,0.1
				c-0.1,0-0.3,0-0.2,0c-0.3-0.3-0.1-1.3-0.1-1.6c0.1-1.4,0.4-2.9,1-4.2c0.2-0.3,0.4-0.7,0.5-1c0.2-0.4,0-0.7-0.4-0.6
				c-0.5,0-1,0.4-1.3,0.8c-0.2,0.3-0.4,0.7-0.5,1.1c-0.3,0.5-0.5,0.9-0.9,1.3c-0.3,0.3-0.5,0.4-1,0.7c0,0-0.1,0-0.1,0.1
				c0.2-1.4,0.3-2.8,0.4-4.2c0.1-0.2,0-0.3-0.2-0.4c0,0,0,0,0,0l0,0c0,0,0,0,0,0c0,0,0,0,0,0h0c-0.2,0-0.3,0-0.5,0
				c-0.4,0.1-0.8,0.3-1,0.6c-0.1,0.1-0.1,0.2-0.1,0.3c-0.5,2-1.1,4-2.5,5.7c-0.1,0.1-0.1,0.2-0.2,0.2c0,0-0.1,0-0.1,0.1c0,0,0,0,0,0
				c0,0-0.1,0-0.1,0c-0.4-0.1-0.6-0.6-0.7-0.9c-0.4-1.2-0.2-2.5,0-3.7c0.1-0.2,0.1-0.5,0.2-0.7c0.1-0.2,0.2-0.3,0.2-0.5c0,0,0,0,0,0
				c0,0,0,0,0,0c0.2,0.1,0.4,0.4,0.5,0.6c0.3,0.6,2.2-0.5,1.8-1.2c-0.5-1-1.7-1.2-2.7-0.6c-0.7,0.4-1.1,0.9-1.4,1.5
				c0,0-0.1,0.1-0.1,0.1c0,0,0,0.1,0,0.1c-0.1,0.1-0.1,0.2-0.2,0.3c0,0,0,0.1,0,0.1c-0.1,0.3-0.3,0.7-0.5,1c0.1-1.2,0.2-2.3,0.4-3.5
				c0.1-0.9-1.7,0.1-1.8,0.6c-0.2,0.5-0.4,1-0.6,1.5c-0.1-0.5-0.2-1.1-0.4-1.6c-0.6-1.3-1.9-1.2-3-0.3c-0.2,0.2-0.7,0.8-0.4,1.1
				c0.3,0.2,0.7,0,1-0.2c0,0,0,0,0.1,0c0.1,0,0.2,0.1,0.3,0.2c0.2,0.2,0.3,0.5,0.4,0.7c0.3,0.7,0.3,1.5,0.3,2.3
				c0,0.8-0.1,1.5-0.3,2.3c0,0,0,0.1,0,0.1c0,0.1-0.1,0.2-0.1,0.2c-0.2-0.1-0.4-0.4-0.5-0.6c-0.3-0.5-1.8,0.8-1.4,1.4
				c0.9,1.4,2.4,0.5,3.1-0.6c0.3-0.4,0.5-0.9,0.7-1.4c0.2-0.4,0.3-0.8,0.5-1.2c-0.1,1.2-0.2,2.4-0.4,3.7c-0.1,0.5,0.5,0.4,0.7,0.3
				c0.4-0.2,0.8-0.6,0.9-1c0.1-0.5,0.3-0.9,0.5-1.4c0,0.5,0.1,1,0.2,1.4c0.2,0.6,0.5,1.2,1.1,1.4c0.9,0.3,1.9-0.4,2.5-0.9
				c0.5-0.4,0.9-0.9,1.3-1.4c-0.1,0.8-0.2,1.6-0.4,2.4c-0.1,0.5,0.4,0.5,0.7,0.4c0.4-0.1,0.9-0.5,1-0.9c0.2-0.7,0.4-1.5,0.9-2.1
				c0.3-0.3,0.4-0.4,0.9-0.7c0,0,0,0,0.1,0c-0.2,1.1-0.4,2.3-0.3,3.4c0.1,1,0.7,1.3,1.7,1c0.4-0.1,0.8-0.3,1.1-0.5
				c0.1,0.4,0.2,0.8,0.5,1.1c0.6,0.6,1.7,0.2,2.4-0.1c0.1,0,0.1-0.1,0.2-0.1c0,0.2,0,0.3,0.1,0.5c0.2,1,1,1.1,1.8,0.9
				c0.5,0.9,1.9,0.9,2.8,0.5c0.2-0.1,0.4-0.2,0.5-0.3c0,0.2,0,0.4,0.1,0.6c0.3,1.2,1.4,1.4,2.5,0.9
				C-506.4,438.5-505.8,438.2-506,437.7z M-515.3,434.7c0,0-0.2,0-0.2-0.1c-0.3-0.2-0.3-0.8-0.3-1.1c0-0.5,0-1,0.1-1.4c0,0,0,0,0,0
				c0-0.1,0-0.1,0-0.2c0.2-0.7,0.4-1.3,0.7-1.9c0.2-0.3,0.5-0.8,0.7-1c0,0,0.1,0,0.1,0c0.1,0,0.2,0,0.3,0.1c0.4,0.1,0.5,0.5,0.4,0.8
				c-0.5,1.5-0.8,3.1-1.6,4.5C-515.1,434.5-515.2,434.6-515.3,434.7z M-512.7,435.8L-512.7,435.8
				C-512.7,435.8-512.7,435.8-512.7,435.8C-512.7,435.8-512.7,435.8-512.7,435.8z M-509.3,432.8c0-0.6,0.5-1.7,1-2
				c-0.1,0.1,0.2,0.1,0.4,0.2c0.3,0.3,0.2,0.6,0.1,1c-0.3,0.7-0.6,1.4-0.8,2.1C-509.1,433.8-509.3,433.2-509.3,432.8z M-506.9,437.6
				C-506.9,437.6-506.9,437.6-506.9,437.6L-506.9,437.6z"/>
		</g>
	</g>
	<path class="st2" d="M-522.9,448.5c0,0-0.1-0.1-0.2-0.2c-0.1-0.1-0.1-0.2-0.1-0.3c-0.1-0.5-0.1-1-0.1-1.4c0-1.4,0.2-2.8,0.4-4.2
		c0,0,0-0.1,0-0.1c0.1-1-0.7-1.6-1.7-1.5c-1,0.1-1.8,0.7-2.4,1.4c-0.7,0.9-1,2-1.1,3.1c-0.1,0.5-0.3,1-0.5,1.5
		c-0.1,0.2-0.2,0.3-0.3,0.4c-0.1,0.1-0.2,0.1-0.2,0.1c0,0-0.1,0-0.1,0c-0.2,0,0,0-0.2,0c-0.5,0-0.9-0.3-1.2-0.6
		c-0.7-0.9-0.5-2.4-0.4-3.4c0.1-0.6,0.2-1.2,0.4-1.8c0.1,0.1,0.1,0.1,0.2,0.2c0.3,0.3,0.4,0.8,0.5,1.2c0.2,0.7,1.8-0.3,1.7-1
		c-0.2-0.7-0.5-1.9-1.6-1.9c-1,0-1.9,0.8-2.3,1.6c-0.5,0.9-0.7,2-0.7,3.1c-0.1,0.6-0.3,1.2-0.5,1.7c-0.1,0.2-0.2,0.3-0.3,0.5
		c-0.1,0.1-0.2,0.2-0.2,0.2l-0.1,0c-0.2,0.1,0,0-0.2,0c-0.5,0-0.9-0.2-1.3-0.6c-0.7-0.8-0.6-2.4-0.6-3.4c0-0.6,0.1-1.2,0.4-1.8
		c0.1,0,0.1,0.1,0.2,0.2c0.3,0.3,0.4,0.8,0.5,1.2c0.2,0.7,1.8-0.4,1.7-1.1c-0.2-0.7-0.6-1.9-1.6-1.8c-1,0.1-1.8,0.9-2.2,1.7
		c-0.5,1.1-0.6,2.3-0.6,3.4c0,0.1,0,0.2,0,0.4c-0.1,0.6-0.2,1.3-0.5,1.8c-0.5-0.2-0.5-1.5-0.6-1.8c-0.2-1.4-0.2-2.8-0.1-4.2
		c0,0,0-0.1,0-0.1c0-1-0.9-1.4-1.9-1.1c-1,0.3-1.7,1.1-2.2,1.9c-0.5,1-0.8,2.1-0.7,3.3c-0.1,0.6-0.1,1.3-0.3,1.9
		c0,0.1-0.1,0.2-0.1,0.3c-0.2-0.1-0.3-0.3-0.4-0.4c-0.3-0.6-0.5-1.3-0.6-2c-0.2-1.2-0.4-2.8-0.1-4c0.1-0.3,0-0.6-0.4-0.5
		c-0.5,0.1-0.9,0.6-1.1,1c0,0.1-0.1,0.1-0.1,0.2h0l0,0c-0.3,0.8-0.5,1.5-0.6,2.3c-0.2-0.9-0.5-2-0.2-3c0.1-0.3,0-0.6-0.4-0.5
		c-0.4,0.1-0.8,0.5-1,0.8c-0.7,1.4-0.7,3.1-0.7,4.6c0,0.7-0.1,1.5-0.3,2.2c0,0-0.1,0-0.1,0c-0.4-0.2-0.5-0.9-0.6-1.4
		c-0.1-0.4-0.8,0.1-0.9,0.2c-0.3,0.3-0.6,0.8-0.5,1.2c0.2,1.1,0.9,2.3,2.2,1.5c0.8-0.5,1.2-1.5,1.4-2.4c0.2,0.6,0.3,1.3,0.4,1.9
		c0.1,0.9,1.5-0.5,1.5-1.1c0-0.4,0-0.7,0-1.1c0.4,1.6,1.1,2.7,2.5,1.7c0.3-0.2,0.6-0.5,0.7-0.8c0.2,0.4,0.4,0.7,0.8,0.9
		c0.8,0.3,1.7-0.3,2.2-0.9c0,0,0-0.1,0.1-0.1c0.1,0.3,0.2,0.5,0.4,0.7c0.2,0.3,0.7,0.3,1,0.3c0.7-0.1,1.2-0.7,1.5-1.2
		c0.6,1.2,2.2,1.4,3.3,0.8c0.5-0.3,0.9-0.6,1.2-1c0,0.1,0.1,0.2,0.1,0.3c0.6,1.3,2.1,1.6,3.3,1c0.4-0.2,0.8-0.5,1.1-0.8
		c0.1,0.5,0.3,1,0.8,1.3c0.7,0.5,1.7,0,2.3-0.4c0,0,0.1-0.1,0.1-0.1c0,0.3,0.1,0.6,0.3,0.8c0.5,0.6,1.4,0.4,1.9,0.1
		c0.3-0.2,0.8-0.5,0.7-1C-522.1,448.1-522.9,448.5-522.9,448.5z M-540.7,446.8c0,0.1-0.1,0.3-0.1,0.4c0,0-0.1,0-0.3,0
		c-0.3-0.1-0.5-0.6-0.6-0.9c-0.4-1.1-0.4-2.4-0.1-3.6c0.1-0.3,0.3-0.9,0.4-1.1c0,0,0.1,0,0.1-0.1c0.1,0,0.2,0,0.3,0
		c0.4,0,0.6,0.3,0.6,0.6C-540.4,443.6-540.4,445.2-540.7,446.8z M-525.5,447.5c0,0.1-0.1,0.2-0.2,0.3c0,0-0.2,0-0.3-0.1
		c-0.3-0.2-0.4-0.7-0.5-1c-0.2-1.2-0.1-2.5,0.3-3.5c0.1-0.3,0.4-0.9,0.5-1.1c0,0,0.1,0,0.1,0c0.1,0,0.2,0,0.3,0
		c0.4,0,0.6,0.4,0.5,0.7C-524.8,444.5-525,446-525.5,447.5z"/>
</g>
<g>
	<g>
		<path class="st2" d="M-544.2,465.2c-0.1,1.1,1.6,1.3,2.4,0.7c0.6-0.4,0.7-1.1,0.9-1.7c0.3-1,0.5-1.9,1.1-2.7
			c-0.4,0.1-0.7,0.2-1.1,0.3c-0.2,1-0.3,2-0.3,3c0,0.6,0,1.4,0.5,1.9c0.3,0.3,1,0.1,1.3,0c0.8-0.3,1.4-0.8,1.6-1.5
			c0.3-0.7-0.9-0.1-1.1,0.2c-0.5,1.1-1,0.1-1.1-0.5c-0.2-1.2,0-2.4,0.1-3.5c0.1-0.6-1,0.1-1.1,0.3c-0.4,0.6-0.7,1.2-0.9,1.8
			c-0.1,0.4-0.3,0.7-0.4,1.1c-0.1,0.2-0.1,0.4-0.2,0.6c-0.2,0.5-0.5,0-0.5-0.2C-542.8,464.4-544.1,464.8-544.2,465.2L-544.2,465.2z"
			/>
		<g>
			<path class="st2" d="M-535.4,461.4c-1.2,0.2-1.6,1.7-1.7,2.6c-0.1,0.8-0.2,2.9,1.1,3c1.4,0.1,1.9-1.6,1.9-2.5
				C-534.1,463.7-534.2,461.5-535.4,461.4c-0.3,0-1,0.9-0.6,1c1.2,0.1,1,3.1,0.6,3.8c0.1-0.2,0.2-0.1-0.1-0.2
				c-0.2-0.1-0.2-0.3-0.3-0.4c-0.2-0.4-0.2-0.8-0.3-1.2c0-0.4,0-0.8,0-1.2c0-0.2,0.1-0.4,0.1-0.5c0-0.1,0.1-0.2,0.1-0.3
				c0.1-0.2,0.1-0.2-0.1,0C-535.6,462.3-534.9,461.3-535.4,461.4z"/>
			<path class="st2" d="M-538.8,462.1c0.2,1.5-0.1,3.1-0.3,4.6c-0.1,0.6,1.1-0.1,1.2-0.4c0.2-1.3,1.4-2,1.8-3.2
				c0.3-0.7-0.8-0.1-1,0.3c-0.3,0.7-0.8,1.1-1.3,1.7c-0.4,0.5-0.6,1.1-0.8,1.7c0.4-0.1,0.8-0.3,1.2-0.4c0.1-1.6,0.4-3.2,0.1-4.8
				C-537.8,461-538.9,461.7-538.8,462.1L-538.8,462.1z"/>
		</g>
		<path class="st2" d="M-527.6,462.6c0.7-1.2,1.8,3.9,0.2,1.4c-0.7-1.1-1-2.6-1.1-3.9c-0.1-0.5-0.1-1,0-1.5c0.3-0.2,0.5-0.1,0.5,0.3
			c0.1,0.3,0.1,0.6,0.1,1c0,1.2-0.3,2.5-0.8,3.7c-0.3,0.8,0.8,0.2,1-0.3c0.3-0.8,1.3-6.6-0.4-6.1c-2.1,0.5-1.2,4.9-0.9,6.1
			c0.2,0.7,0.6,2.8,1.7,2.8c1,0,1.6-0.9,1.8-1.6c0.4-1-0.1-2.4-0.9-3c-0.8-0.6-1.7,0.8-2,1.3C-528.9,463.4-527.9,463.2-527.6,462.6
			L-527.6,462.6z"/>
		<path class="st2" d="M-524.5,458.9c-1.1,0.6-1,2.2-0.8,3.2c0.2,0.8,0.8,2.9,2.2,2.4c1.5-0.5,1.3-2.4,1-3.3
			C-522.4,460.3-523.3,458.4-524.5,458.9c-0.3,0.1-0.6,1.3-0.2,1.2c0.7-0.2,1.1,0.6,1.4,1c0.2,0.4,0.4,0.8,0.5,1.2
			c0,0.2,0.1,0.3,0.1,0.5c0,0.1-0.1,0.5,0.1,0.4c-0.5,0.5-1.3-0.7-1.5-1c-0.2-0.4-0.3-0.8-0.4-1.2c-0.1-0.2-0.1-0.5-0.1-0.7
			c0-0.2,0.1-0.3,0-0.2C-524.3,459.8-524,458.6-524.5,458.9z"/>
		<path class="st2" d="M-521.7,456.6c0.2,0.1,0.4,0.2,0.7,0.1c0.7-0.3,0.8-1.4,0.8-2c0-0.2-0.1-0.5-0.4-0.3
			c-0.2,0.2-0.3,0.6-0.3,0.9c0,0.1,0,0.2,0,0.3c0,0.1,0,0.1,0,0c0,0.2,0.1-0.1,0,0c0,0,0-0.1,0.1-0.1c-0.1,0.1,0.1-0.1,0,0
			c0,0,0,0,0,0c0,0-0.1,0-0.1,0c0,0,0,0,0,0c0,0-0.1,0-0.1,0c0,0-0.1,0-0.1,0c0,0-0.2-0.1,0,0c-0.2-0.1-0.4,0.2-0.5,0.4
			C-521.8,455.9-521.9,456.4-521.7,456.6L-521.7,456.6z"/>
		<path class="st2" d="M-516.4,459.3c-0.3,0.9-1.7-0.8-1.7-0.9c-0.5-0.7-1-1.5-1.4-2.3c-0.3-0.5-0.8,0.7-0.7,1.1
			c0.3,0.7,0.7,1.4,1,2c0.2,0.4,0.3,0.7,0.4,1.1c0.1,0.5,0.2,0.6-0.3,0.6c-1.3,0-1.9-2.5-2.1-3.5c-0.2-0.7-0.8,0.4-0.7,0.8
			c0.2,0.9,1.2,5.2,3.1,3.8c2.3-1.7-0.1-4.6-0.8-6c-0.2,0.4-0.4,0.7-0.7,1.1c0.6,1.2,1.2,2.6,2.3,3.4c0.9,0.7,1.8-0.4,2.2-1.4
			C-515.3,458.5-516,458.5-516.4,459.3L-516.4,459.3z"/>
		<path class="st2" d="M-524.2,460c1.4,0.6,2.3-0.4,3-1.6c0.3-0.6-0.1-1.3-0.5-0.5c-0.5,0.9-1.1,1.3-2,0.9
			C-524.1,458.6-524.6,459.8-524.2,460L-524.2,460z"/>
		<path class="st2" d="M-551.9,457.6c0.2-0.9,0-1.7-1.1-1.8c-1.3,0-2.2,1-2.8,1.9c-0.5,0.7-0.8,1.6-0.1,2.6c0.8,1,2.5,1,3.4,0.9
			c0.8-0.1,0.6-0.8-0.2-0.7c-0.6,0.1-1.2,0.1-1.8-0.5c-0.5-0.5-0.3-1.1-0.1-1.5c0.2-0.5,0.6-1,1-1.4c0.1-0.1,0.2-0.2,0.3-0.3
			c0.3-0.3,0.4-0.3,0.2-0.1c0.2,0.3,0,0.7,0,0.9C-553.4,458.1-552,458-551.9,457.6L-551.9,457.6z"/>
		<path class="st2" d="M-546.9,459.6c-0.2,1.8-1,3.5-1.7,5.2c-0.2,0.5,1.1,0.3,1.3-0.1c0.3-0.8,0.7-1.5,1.2-2.2
			c0.3-0.4,0.7-1.6,1.3-0.9c0.4-0.2,0.8-0.4,1.2-0.6c-1.7-1.6-3.3,0.9-3.9,1.9c-0.2,0.3,0.3,0.3,0.5,0.3c1.3,0,0.2,1.7,0.7,2.3
			c0.7,0.7,2.3,0,3-0.2c0.8-0.3,0.3-0.9-0.5-0.6c-0.9,0.4-1.3,0.4-1.3-0.4c0-0.4,0.1-0.7,0-1.1c-0.1-0.8-1-0.8-1.6-0.8
			c0.1,0.1,0.3,0.2,0.5,0.3c0.2-0.4,0.8-1.9,1.5-1.2c0.3,0.4,1.5-0.3,1.2-0.6c-2.1-2.3-4.5,2.8-5,3.8c0.4,0,0.9,0,1.3-0.1
			c0.6-1.7,1.4-3.5,1.6-5.4C-545.7,458.8-546.8,459.2-546.9,459.6L-546.9,459.6z"/>
		<path class="st2" d="M-533.9,461.6c0.5,1.7,0.5,3.6,0.5,5.4c0,0.6,1.1-0.3,1.1-0.7c0-0.8,0-1.7,0.2-2.5c0.1-0.5,0-1.8,0.9-1.4
			c0.3-0.3,0.6-0.7,0.8-1c-2.2-0.8-2.7,2.2-2.8,3.5c0,0.3,0.4,0.2,0.5,0.1c1.2-0.6,0.9,1.5,1.5,1.8c0.9,0.4,2.2-1,2.6-1.5
			c0.6-0.6-0.1-0.9-0.7-0.3c-0.7,0.7-1,1-1.3,0.2c-0.1-0.4-0.2-0.7-0.4-1c-0.4-0.6-1.2-0.3-1.8,0c0.2,0,0.4,0.1,0.5,0.1
			c0-0.5,0-2.1,0.9-1.7c0.5,0.2,1.3-0.9,0.8-1c-2.9-1.2-2.9,4.5-3,5.6c0.4-0.2,0.8-0.4,1.1-0.7c-0.1-1.9-0.1-3.8-0.7-5.6
			C-533.2,460.3-534.1,461.2-533.9,461.6L-533.9,461.6z"/>
	</g>
</g>
</svg>
