<?xml version="1.0" encoding="utf-8"?>
<!-- Generator: Adobe Illustrator 19.0.0, SVG Export Plug-In . SVG Version: 6.00 Build 0)  -->
<svg version="1.1" id="Layer_1" xmlns="http://www.w3.org/2000/svg" xmlns:xlink="http://www.w3.org/1999/xlink" x="0px" y="0px"
	 viewBox="-580 396.7 86 86" style="enable-background:new -580 396.7 86 86;" xml:space="preserve">
<style type="text/css">
	.st0{fill:#712F8F;}
	.st1{fill:#62BA47;}
	.st2{fill:#FFFFFF;}
</style>
<circle class="st0" cx="-535" cy="435.7" r="38.9"/>
<circle class="st1" cx="-566.2" cy="470.3" r="12.2"/>
<g>
	<path class="st2" d="M-560.7,466.8c-1.5,2.5-3.4,4.8-5.1,7.1c-0.8,1,0.5,1,1,0.3c1.8-2.4,3.8-4.8,5.3-7.5
		C-558.9,465.7-560.4,466.3-560.7,466.8L-560.7,466.8z"/>
	<path class="st2" d="M-563.5,466.2c-0.9,0-1.6,0.9-1.7,1.7c-0.2,0.8,0.3,1.5,1.1,1.5C-562.3,469.5-561.5,466.2-563.5,466.2
		c-0.4,0-1.1,1-0.5,1c0.4,0,0.7,0.4,0.7,0.8c0,0.1,0,0.3-0.1,0.5c-0.1,0.1,0,0,0,0c-0.1,0-0.2,0-0.2,0c-0.4,0-0.7-0.4-0.7-0.8
		c0-0.2,0-0.4,0.1-0.5c0.1-0.1,0.1,0,0,0c0.1,0,0.1,0,0.2,0C-563.6,467.1-562.9,466.1-563.5,466.2z"/>
	<path class="st2" d="M-560.9,471.4c-0.9,0-1.6,0.9-1.7,1.7c-0.2,0.8,0.3,1.5,1.1,1.5C-559.8,474.7-558.9,471.5-560.9,471.4
		c-0.4,0-1.1,1-0.5,1c0.4,0,0.7,0.4,0.7,0.8c0,0.1,0,0.3-0.1,0.5c-0.1,0.1,0,0,0,0c-0.1,0-0.2,0-0.2,0c-0.4,0-0.7-0.4-0.7-0.8
		c0-0.2,0-0.4,0.1-0.5c0.1-0.1,0.1,0,0,0c0.1,0,0.1,0,0.2,0C-561,472.4-560.3,471.4-560.9,471.4z"/>
</g>
<g>
	<path class="st2" d="M-522.9,431.3c-1-0.7-2.4-0.4-3.5,0c0-0.8-0.1-1.7-0.2-2.5c-0.1-0.7-1.4-0.2-1.7-0.1c-0.2,0.1-0.4,0.2-0.5,0.3
		c-0.3,0.2-0.5,0.5-0.6,0.8c-1.1,2.4-2.8,1-3.3,0.7l0,0c-0.4-0.3-0.9-0.5-1.5-0.5c-3.6,0.1-4.5,4.4-4.6,7.2c-0.1,2.2,0,6.5,3.1,6.7
		c1.5,0.1,3-1.4,3.6-2.5c0.8-1.4,1.1-3,1.2-4.5c0.1-0.9,0-2.5-0.4-4c0.7-0.2,1.4-0.5,2-0.9c0.1,3.6,0,7.2-0.2,10.7
		c-0.2,3-0.6,6.1-1,9.1c-0.1,0.7,0.7,0.6,1.1,0.5c0.6-0.3,1.3-0.9,1.4-1.5c0.4-2.1,0.7-4.2,0.9-6.3c1,0.1,2.1-0.2,3-0.8
		c2-1.4,2.7-4.1,2.9-6.4C-521.1,435.2-521.1,432.7-522.9,431.3z M-534.1,440.7c-0.1,0.3-0.2,0.6-0.3,0.9c-0.6-0.1-1-1.1-1.1-1.5
		c-0.4-1-0.5-2.2-0.5-3.3c0-1.1,0.1-2.3,0.4-3.4c0.1-0.3,0.2-0.6,0.3-0.8c1.4,1.2,1.6,3.1,1.6,4.8
		C-533.7,438.4-533.8,439.6-534.1,440.7z M-525.1,442.2c0,0.1-0.1,0.1-0.1,0.2c0,0,0,0,0,0c-1,0-1.6-1-1.5-2.1
		c0.2-1.8,0.3-3.6,0.3-5.4c0,0,0-0.1,0-0.1c0-0.6,0.1-1.1,0.4-1.6c0,0,0,0,0,0c0,0,0,0,0,0c0.4,0,0.7,0.3,0.9,0.7
		c0.8,1.2,0.9,2.9,0.9,4.1C-524.1,439.3-524.3,441-525.1,442.2z"/>
	<path class="st2" d="M-514.8,432.7c-3.5-0.8-5,3.5-5.5,6.1c-0.4,2.3-0.9,6.4,2.1,7.3c1.5,0.4,3.1-0.7,3.8-1.7
		c1-1.2,1.5-2.7,1.8-4.2C-512.1,437.9-511.6,433.4-514.8,432.7z M-516.2,443.2c-0.1,0.3-0.3,0.5-0.4,0.8c-0.5-0.3-0.8-1.3-0.9-1.7
		c-0.2-1.1-0.2-2.3-0.1-3.4c0.1-1.1,0.4-2.3,0.9-3.3c0.1-0.3,0.3-0.5,0.4-0.8c1.4,1.3,1.1,3.4,0.9,5.1
		C-515.5,441-515.7,442.2-516.2,443.2z"/>
	<path class="st2" d="M-543.6,433.4c0.5-1.2,1-2.4,1.4-3.6c0.8-2.3,1.3-4.3,0.7-6.3c-0.6-1.8-3.7-0.6-4.8,0.5
		c-1.7,1.8-2.3,4.4-2.6,6.8c-0.2,2.6-0.1,5.3,0.4,8c-0.5,1.2-1.1,2.4-1.8,3.6c-0.1,0.1-0.1,0.2-0.2,0.3c-0.1-0.1-0.2-0.3-0.3-0.5
		c-0.2-0.5-0.3-1-0.4-1.5c-0.5-4-0.6-8.2-1.7-12.1c-0.3-1.2-1.3-3.2-3.3-2.5c-1.5,0.5-2.4,1.6-3,2.8c-0.7-1.2-1.8-2.1-3.7-1.1
		c-0.8,0.4-1.4,1-1.8,1.6c-0.1-0.6-0.3-1.2-0.7-1.6c-0.9-0.8-3.2,2.1-2.4,2.7c0.5,0.4,0.6,1.4,0.8,2c0.4,1.4,0.6,2.9,0.9,4.3
		c0.1,0.8,0.3,1.5,0.4,2.3c0.5,3.1,1.1,6.2,1.7,9.3c0.1,0.3,0.2,0.4,0.4,0.4c0.7,0,2-1.8,1.8-2.6c-0.5-2.7-0.9-5.4-1.3-8
		c-0.2-1.1-0.3-2.3-0.3-3.5c-0.1-1.2-0.1-2.5,0.1-3.8c0-0.2,0.1-0.4,0.1-0.5c2.1,0.3,2.3,2.9,2.6,4.5c0.3,1.5,0.6,3.1,0.8,4.7
		c0.3,2.4,0.6,4.7,1,7.1c0,0.3,0.2,0.4,0.4,0.4c0.7,0,2-1.7,1.9-2.4c-0.3-2.5-0.6-5-0.9-7.5c-0.1-0.6-0.1-1.2-0.1-1.8
		c-0.1-2.2-0.1-4.3,0.3-6.4c0-0.1,0-0.1,0.1-0.2c0.5,0,0.9,0.7,1,0.9c1.3,2.2,1.5,4.8,1.8,7.2c0.2,1.6,0.3,3.3,0.5,4.9
		c0.1,1,0.3,2.2,0.8,3.1c0.7,1.1,1.9,0.4,2.8-0.4c0.9-0.8,1.6-1.8,2.2-2.9c0.4,1.4,1.2,2.9,2.5,2.8c2.2-0.2,3.8-2,4.5-4
		c0.8-2.2,1.2-5.3-0.9-6.9C-542.2,433.2-542.9,433.2-543.6,433.4z M-546.1,430.5c0.1-1.8,0.4-3.7,1.3-5.4c0,0,0.1,0,0.1,0
		c0.6,0.3,0.7,1,0.7,1.4c0.1,1.9-0.5,3.8-1.2,5.6c-0.3,0.7-0.5,1.4-0.8,2.1C-546.2,433-546.2,431.7-546.1,430.5z M-543,439
		c0,0.9-0.1,1.8-0.4,2.7c0,0.1,0,0.1-0.1,0.2c-0.1,0-0.2,0-0.3,0c-0.6-0.1-0.9-0.9-1.1-1.4c-0.4-0.9-0.6-1.9-0.8-2.9
		c0.3-0.5,0.5-1,0.8-1.4c0.4-0.4,0.7-0.3,1.2,0.1C-543,436.9-543,438.2-543,439z"/>
	<path class="st2" d="M-504.8,446.7c-0.4-0.6-1.4-0.3-1.8-0.2c-0.7,0.3-1.2,0.4-1.9-0.1c-0.5-0.3-0.9-0.9-0.9-1.4
		c-0.3-2.1,2.3-3.2,3.7-4.2c1.1-0.8,2.5-2.6,1.5-4.2c-1.1-1.7-3.4-1.9-5.2-1.3c-0.6,0.2-1.5,0.6-1.4,1.3c0.1,0.7,1.2,0.5,1.6,0.4
		c0.8-0.3,1.5-0.1,2.1,0.7c0.5,0.7,0.1,1.4-0.3,1.9c-0.9,0.9-2.1,1.4-3.1,2.2c-0.7,0.7-1.3,1.4-1.6,2.3c-0.5,1.2,0,2.7,1,3.6
		c1.5,1.2,3.6,0.9,5.3,0.2C-505.4,447.9-504.5,447.3-504.8,446.7z"/>
</g>
<path class="st2" d="M-567.8,469.9c-0.7,0.4-1.6,0.6-2.5,0.3c-1.3-0.4-0.6-2.6,0.5-2.8c1.4-0.2,1.5,2.5,1.4,3.2
	c-0.1,1-0.6,2-1.3,2.7c-0.7,0.7-1.5-0.5-1.8-0.9c-0.3-0.6-1.5,0.5-1.3,0.9c0.5,0.8,1.2,1.7,2.3,1.4c1-0.3,1.8-1.2,2.3-2.1
	c0.7-1.2,1.1-2.5,1-4c-0.1-1-0.5-2.3-1.6-2.5c-2.1-0.4-3.9,2.6-3.4,4.4c0.4,1.8,3.2,1,4.3,0.4C-567.3,470.7-566.8,469.4-567.8,469.9
	L-567.8,469.9z"/>
</svg>
