<?xml version="1.0" encoding="utf-8"?>
<!-- Generator: Adobe Illustrator 19.0.0, SVG Export Plug-In . SVG Version: 6.00 Build 0)  -->
<svg version="1.1" id="Layer_1" xmlns="http://www.w3.org/2000/svg" xmlns:xlink="http://www.w3.org/1999/xlink" x="0px" y="0px"
	 viewBox="-580 396.7 86 86" style="enable-background:new -580 396.7 86 86;" xml:space="preserve">
<style type="text/css">
	.st0{fill:#F05E24;}
	.st1{fill:#FFFFFF;}
</style>
<circle class="st0" cx="-537.2" cy="439.7" r="42.2"/>
<g>
	<g>
		<path class="st1" d="M-535.6,468.4c-0.3-0.2-0.8,0.1-1.1,0.3c0-0.3-0.1-0.7-0.1-1c-0.1-0.4-1,0.3-1,0.7c0.1,0.7,0.1,1.4,0.2,2.1
			c0,0,0,0,0,0c0,0,0,0,0,0c0,0.3,0,0.6,0,0.9c-0.2,0.2-0.5,0.4-0.8,0.6c0-1.2-0.1-2.5,0-3.6c0-0.1,0-0.1,0-0.1c0,0,0,0,0,0
			c0,0,0,0,0,0c0,0,0,0,0,0c-0.2-0.1-0.8,0.2-1,0.5c0,0-0.1,0.1-0.1,0.1c-0.2,1-0.4,1.9-0.7,2.9c-0.1,0.3-0.3,1.1-0.8,0.7
			c-0.6-0.4-0.1-1.6-0.1-2.1c0.1-0.7,0.3-1.4,0.4-2.2c0.1-0.6-1.1,0-1.2,0.4c-0.1,0.5-0.6,2-0.7,3.1c-0.5,0.3-1.4,0.7-1.5,0.4
			c-0.2-0.4,0-0.9,0-1.3c0-0.7-0.5-1-1.1-1c0,0,0,0,0,0c0.1-0.2,0.3-0.6,0.5-0.9c0.2-0.2,0.5-0.4,0.8-0.1c0.4,0.3,1.5-0.3,1.2-0.6
			c-0.9-0.9-1.7-0.6-2.4,0.2c0.1-0.6,0.2-1.2,0.3-1.7c0-0.4-1.1-0.1-1.2,0.4c-0.2,1.8-0.9,3.5-1.5,5.1c-0.2,0.5,1.2,0.2,1.3-0.1
			c0.2-0.5,0.4-0.9,0.6-1.4c0.7,0.3-0.3,1.8,0.4,2.2c0.8,0.5,1.9,0.1,2.7-0.3c0.1,0.5,0.4,0.9,1.1,1c0.7,0,1.3-0.2,1.7-0.6
			c0,0.1,0,0.2,0,0.3c-0.6,0.4-1.1,0.8-1.6,1.3c-0.6,0.6-2.6,2.8-0.5,3.3c1.6,0.4,2.6-0.9,2.9-1.7c0.4-0.9,0.5-1.9,0.5-2.9
			c0.3-0.3,0.6-0.5,0.8-0.7c0,0.1,0,0.2,0,0.3c0,0,0,0.1,0,0.1c0,0.1,0,0.1,0,0.1c-0.1,1.3-0.2,2.7-0.4,4c-0.1,0.5,1.3-0.1,1.3-0.5
			c0.1-0.8,0.2-1.7,0.2-2.5c0.4,0,0.8-0.1,1.2-0.4c0.9-0.7,0.9-1.8,0.8-2.8C-534.6,469.9-534.8,468.8-535.6,468.4z M-540.8,476.9
			c-1.4-0.3-0.3-1.4,0.9-2.5C-540.1,475.9-540.3,477-540.8,476.9z M-535.6,472.5c0,0.2-0.1,0.4-0.2,0.5c0.1-0.1,0-0.1-0.1-0.1
			c-0.3,0-0.5-0.3-0.5-0.5c0-0.8,0-1.6-0.1-2.4c0-0.7,0.3-0.8,0.6-0.2c0.2,0.4,0.3,0.8,0.4,1.2C-535.5,471.5-535.5,472-535.6,472.5z
			"/>
		<path class="st1" d="M-525.4,465.6C-525.5,465.6-525.5,465.7-525.4,465.6c-1,0.7-0.9,2.2-0.7,3.1c0.1,0.3,0.2,0.8,0.4,1.2
			c-0.3,0.6-0.9,1.4-1.6,1.3c-1.3-0.3,0-2.1,0.1-2.8c0.4-1.7-1.3-1.9-2.3-0.7c-0.4,0.5-0.2,1.3,0.4,0.6c0.4-0.6,1.1-0.3,1.1,0.3
			c0,0.6-0.5,1.3-0.8,1.9c-0.1,0.3-0.2,0.6-0.1,0.9c-0.5,0.6-0.9,0.7-1.3,0c-0.3-0.5-0.4-1.1-0.5-1.6c-0.1-0.3-0.1-0.7-0.2-1
			c0-0.2,0-0.3-0.1-0.5c0,0,0-0.1,0-0.1c-0.4-1.3-2-0.2-2.4,0.6c-0.6,1.1-0.6,2.4-0.2,3.5c0.3,1,1.5,1.3,2.4,0.3
			c0,0,0.1-0.1,0.1-0.1c0.1,0.2,0.2,0.3,0.4,0.4c0.6,0.4,1.6-0.3,2.2-0.9c0,0.1,0.1,0.1,0.2,0.1c1,0.8,2.4-0.6,3.1-1.7
			c0.4,0.4,0.8,0.7,1.4,0.5c1.4-0.6,1.1-2.4,0.8-3.3C-523.4,467-524.4,465.2-525.4,465.6z M-531.9,472.4c-0.2,0-0.4-0.2-0.5-0.3
			c-0.3-0.5-0.4-1.1-0.4-1.7c0-0.3,0-0.6,0.1-1c0-0.2,0.1-0.3,0.2-0.5c0.2-0.3,0.6,0.2,0.7,0.3c0.1,0.8,0.2,1.6,0.2,2.4
			C-531.7,471.8-531.7,472.4-531.9,472.4z M-523.8,468.9c0.1,0.2,0.1,0.3,0.1,0.5c0,0.1,0.1,0.3,0.1,0.3s-1.3-0.7-1.4-0.9
			c-0.2-0.4-0.3-0.8-0.5-1.2c-0.1-0.2-0.1-0.4-0.1-0.7c0-0.1,0-0.2,0-0.2c0.5-0.1,1,0.6,1.3,1C-524.1,468.2-523.9,468.5-523.8,468.9
			z"/>
		<path class="st1" d="M-522.9,463.6c0.6-0.3,0.7-1.4,0.6-2c0-0.2-0.2-0.5-0.4-0.3c-0.2,0.2-0.3,0.6-0.3,0.8c0,0.1,0,0.2,0,0.2
			c0,0,0,0,0,0c0,0,0,0,0,0c0,0,0,0-0.1,0c0,0-0.1,0-0.1,0c0,0,0,0,0,0s-0.4,0.2-0.4,0.4c-0.1,0.2-0.2,0.7,0,0.8
			C-523.4,463.7-523.1,463.7-522.9,463.6z"/>
		<path class="st1" d="M-518.3,466.1c-0.3,0.8-1.6-0.7-1.7-0.8c-0.2-0.2-0.3-0.4-0.4-0.6c-0.3-0.5-0.6-0.9-0.8-1.3
			c-0.1-0.1-0.1-0.2-0.2-0.3c-0.3-0.5-0.7,0.7-0.6,1.1c0.4,0.7,0.7,1.3,1.1,2c0.2,0.4,0.3,0.7,0.5,1.1c0.1,0.4,0.2,0.5-0.3,0.5
			c-1.2,0-1.9-2.4-2.2-3.3c-0.2-0.7-0.7,0.4-0.6,0.8c0.2,0.9,1.3,5.1,3.1,3.6c0.5-0.4,0.8-0.9,0.8-1.4c0.9,0.6,1.7-0.5,2-1.4
			C-517.3,465.3-518.1,465.3-518.3,466.1z"/>
		<path class="st1" d="M-552,468.1c-0.6,0.1-1.3,0.1-1.8-0.4c-0.5-0.4-0.3-1.1-0.1-1.5c0.2-0.5,0.6-1,0.9-1.4
			c0.1-0.1,0.2-0.2,0.3-0.3c0.3-0.3,0.4-0.3,0.2-0.1c0.2,0.3,0,0.7,0,0.9c-0.1,0.5,1.2,0.4,1.3,0c0.1-0.8,0-1.7-1.1-1.7
			c-1.2,0-2.1,1-2.7,1.9c-0.5,0.7-0.8,1.5-0.1,2.5c0.8,1,2.5,0.9,3.4,0.8C-550.9,468.6-551.2,468-552,468.1z"/>
	</g>
</g>
<g>
	<g>
		<g>
			<path class="st1" d="M-536.5,427c0,0-0.1,0-0.2,0c0,0-0.1,0-0.1,0c-2.3,0.2-2.9,3.2-3,4.8c0,1.5,0.2,4.5,2.2,4.6
				c1,0,1.8-1,2.3-1.7c0.5-0.9,0.7-2,0.8-3C-534.4,430.2-534.5,427.2-536.5,427z M-536.4,434c0,0.2-0.1,0.3-0.1,0.5
				c0,0-0.1,0.1-0.1,0.2c0,0,0,0,0,0c-1.1,0-1.3-2.4-1.4-3.1c0-0.8,0-1.5,0.2-2.3c0.1-0.2,0.1-0.5,0.3-0.7c1.2,0.1,1.3,2.4,1.4,3.2
				C-536.2,432.5-536.2,433.3-536.4,434z"/>
			<path class="st1" d="M-542.1,427.3c-0.7-0.3-1.6,0.1-2.2,0.5c-0.1-0.6-0.2-1.1-0.4-1.6c-0.1-0.5-0.9,0-1.1,0.2
				c-0.2,0.2-0.5,0.4-0.6,0.7c0,0.1,0,0.1-0.1,0.2c-0.1,0.4-0.2,0.7-0.3,1c-0.1,0.1,0,0.1-0.1,0.1c-0.5,0.2-1.1-0.1-1.5-0.3
				c0,0,0,0,0,0c-0.3-0.1-0.6-0.2-1-0.2c-0.1,0-0.1,0-0.2,0c0,0-0.1,0-0.1,0c-2.4,0.5-2.6,3.6-2.4,5.3c0.2,1.5,0.8,4.4,2.9,4.2
				c1-0.1,1.8-1.2,2.2-2.1c0.4-1,0.5-2.1,0.4-3.1c0-0.6-0.2-1.5-0.5-2.3c0.4-0.2,0.7-0.4,1-0.7c0.5,2.2,0.7,4.5,0.9,6.7
				c0.2,2.1,0.3,4.1,0.3,6.2c0,0.5,0.5,0.3,0.8,0.2c0.4-0.3,0.7-0.7,0.7-1.2c0-1.4,0-2.9-0.1-4.3c0.6-0.1,1.3-0.4,1.8-0.9
				c1.1-1.2,1.3-3.1,1.1-4.7C-540.5,429.9-540.8,427.9-542.1,427.3z M-548.3,434.9c0,0.2-0.1,0.3-0.1,0.5c0,0,0,0.1-0.1,0.2
				c0,0,0,0,0,0c-1.2,0.2-1.8-2.2-1.9-2.9c-0.1-0.7-0.2-1.5-0.1-2.3c0-0.2,0.1-0.5,0.2-0.7c0.1,0,0.2,0,0.3,0c0,0,0.1,0.1,0.1,0.1
				c0.1,0,0.2,0.1,0.3,0.1c0.8,0.6,1.1,2.1,1.2,2.7C-548.2,433.3-548.2,434.1-548.3,434.9z M-543.8,428.8
				C-543.7,428.8-543.7,428.8-543.8,428.8L-543.8,428.8z M-542.3,434.9C-542.3,434.9-542.3,434.9-542.3,434.9L-542.3,434.9z
				 M-542.3,434.8c0,0,0,0.1-0.1,0.1c0,0,0,0,0,0c-0.6,0.1-1-0.5-1.1-1c0-0.1,0-0.1,0-0.2c-0.1-1.2-0.2-2.4-0.3-3.6c0,0,0-0.1,0-0.1
				c0-0.4-0.1-0.7,0.1-1.1c0,0,0,0,0,0c0,0,0,0,0,0c0.2,0,0.5,0.1,0.7,0.3c0.6,0.7,0.9,1.8,1,2.6
				C-542,432.8-541.9,433.9-542.3,434.8z"/>
			<path class="st1" d="M-555.2,431c0.2-0.8,0.4-1.7,0.5-2.5c0.2-1.3,0.5-3.1-0.3-4.3c-0.8-1.2-2.4-0.1-2.9,0.7
				c-1,1.4-0.9,3.2-0.8,4.7c0.1,1.8,0.6,3.6,1.2,5.2c-0.2,0.8-0.4,1.7-0.7,2.5c0,0.1-0.1,0.1-0.1,0.2c-0.1-0.1-0.2-0.2-0.2-0.3
				c-0.2-0.3-0.3-0.6-0.4-1c-0.8-2.6-1.2-5.4-2.5-7.9c-0.4-0.8-1.2-2-2.4-1.4c-0.9,0.4-1.4,1.2-1.7,2.1c-0.6-0.8-1.4-1.3-2.6-0.5
				c-0.5,0.3-0.8,0.7-1.1,1.1c-0.1-0.4-0.3-0.8-0.6-1c-0.7-0.5-2.1,1.5-1.5,1.9c0.4,0.3,0.6,0.9,0.8,1.3c0.4,0.9,0.7,1.9,1.1,2.8
				c0.2,0.5,0.3,1,0.5,1.5c0.6,2,1.4,4,2.1,6c0.1,0.2,0.2,0.3,0.3,0.2c0.5-0.1,1.2-1.3,1-1.7c-0.6-1.7-1.2-3.5-1.8-5.2
				c-0.2-0.7-0.4-1.5-0.6-2.3c-0.2-0.8-0.3-1.6-0.3-2.5c0-0.1,0-0.3,0-0.4c1.2-0.4,2.1,2.3,2.3,2.8c0.4,1,0.8,2,1.1,3
				c0.5,1.5,0.9,3.1,1.5,4.6c0.1,0.2,0.2,0.3,0.3,0.3c0.5-0.1,1.2-1.2,1-1.7c-0.5-1.6-0.9-3.3-1.4-4.9c-0.1-0.4-0.2-0.8-0.3-1.2
				c-0.3-1.4-0.7-2.8-0.5-4.2c0,0,0-0.1,0-0.1c0.3,0,0.6,0.4,0.8,0.5c1.1,1.3,1.5,3.1,2,4.7c0.3,1.1,0.6,2.2,0.9,3.2
				c0.2,0.7,0.4,1.4,0.9,2c0.6,0.7,1.3,0.1,1.7-0.4c0.5-0.6,0.8-1.3,1-2.1c0.4,0.9,1,1.8,1.9,1.7c1.4-0.2,2.1-1.8,2.3-3
				c0.2-1.4,0.1-3.8-1.3-4.5C-554.4,430.8-554.8,430.8-555.2,431z M-557.2,429.3c-0.1-1.2-0.2-2.5,0.2-3.7c0,0,0,0,0.1,0
				c0.4,0.1,0.5,0.6,0.6,0.9c0.3,1.2,0.1,2.6-0.1,3.8c-0.1,0.5-0.2,1-0.3,1.5C-556.9,431-557.1,430.1-557.2,429.3z M-554.3,434.7
				c0.1,0.6,0.1,1.2,0.1,1.8c0,0,0,0.1,0,0.1c-0.1,0-0.1,0-0.2,0c-0.4,0-0.7-0.6-0.8-0.8c-0.4-0.6-0.6-1.2-0.9-1.9
				c0.1-0.3,0.2-0.7,0.3-1c0.2-0.3,0.4-0.3,0.7-0.1C-554.5,433.3-554.4,434.1-554.3,434.7z"/>
			<path class="st1" d="M-505.5,441.4c-0.2-0.3-0.7-0.3-1-0.2c0,0-0.1,0-0.1-0.1c-0.1-0.1-0.1-0.2-0.2-0.3c-0.1-0.3-0.1-0.7,0-1
				c0.1-0.9,0.4-1.7,0.7-2.5c0,0,0,0,0,0c0.3-0.6,0.6-1.3,0.9-1.9c0,0,0-0.1,0-0.1c0,0,0,0,0,0c0.2-0.4,0.4-0.8,0.7-1.2
				c0.3-0.4-0.4-0.6-0.8-0.6c-0.1,0-0.1,0-0.2,0c-0.4-0.4-1-0.7-1.8-0.6c-2,0.1-3.2,1.9-3.6,3.5c-0.2,1,0.3,2,1.4,2.3
				c0.2,0,0.3,0.1,0.5,0.1c-0.3,0.4-0.5,0.7-0.9,1c-0.4,0.3-0.8-0.6-0.8-0.9c0-0.2-0.2-0.3-0.4-0.4c0,0,0,0-0.1,0
				c-0.4,0-0.8,0.1-1.1,0.4c0,0-0.1-0.1-0.1-0.2c-0.2-0.4-0.1-1,0-1.4c0.2-1.6,0.7-3.1,1.3-4.6c0,0,0-0.1,0-0.1
				c0.3-1-0.4-1.7-1.6-1.9c-1.1-0.1-2.1,0.4-2.8,1.1c-1,0.9-1.6,2.3-1.9,3.7l0,0c-0.2,0.4-0.4,1.1-0.8,1.4c0,0,0,0-0.1,0
				c-0.1,0-0.3,0-0.2,0c-0.3-0.3-0.1-1.3,0-1.7c0.2-1.4,0.5-3,1.1-4.3c0.2-0.3,0.4-0.7,0.6-1c0.2-0.4,0.1-0.7-0.4-0.7
				c-0.5,0-1.1,0.3-1.4,0.7c-0.2,0.3-0.4,0.7-0.6,1.1c-0.3,0.5-0.6,0.9-1,1.3c-0.3,0.3-0.6,0.4-1,0.7c0,0-0.1,0-0.1,0.1
				c0.2-1.4,0.4-2.9,0.6-4.3c0.1-0.2,0-0.3-0.2-0.4c0,0,0,0,0,0c0,0,0,0,0,0c0,0,0,0,0,0c0,0,0,0,0,0l0,0c-0.2,0-0.4,0-0.5,0
				c-0.4,0.1-0.8,0.3-1,0.6c-0.1,0.1-0.1,0.2-0.2,0.3c-0.5,2-1.3,4.1-2.7,5.8c-0.1,0.1-0.2,0.2-0.2,0.2c0,0-0.1,0-0.1,0.1l0,0
				c0,0-0.1,0-0.1,0c-0.4-0.1-0.6-0.6-0.7-1c-0.3-1.2-0.2-2.6,0.2-3.8c0.1-0.2,0.1-0.5,0.2-0.7c0.1-0.2,0.2-0.3,0.3-0.5c0,0,0,0,0,0
				c0,0,0,0,0,0c0.2,0.1,0.4,0.5,0.5,0.7c0.3,0.6,2.3-0.5,1.9-1.2c-0.5-1-1.7-1.3-2.7-0.7c-0.7,0.4-1.2,0.9-1.5,1.5
				c0,0-0.1,0.1-0.1,0.1c0,0,0,0.1,0,0.1c-0.1,0.1-0.1,0.2-0.2,0.4c0,0,0,0.1,0,0.1c-0.2,0.3-0.3,0.7-0.5,1c0.2-1.2,0.3-2.4,0.5-3.6
				c0.1-1-1.7,0.1-1.9,0.5c-0.2,0.5-0.4,1.1-0.7,1.6c-0.1-0.6-0.2-1.1-0.4-1.6c-0.6-1.4-2-1.3-3-0.4c-0.2,0.2-0.8,0.8-0.4,1.1
				c0.3,0.3,0.8,0,1.1-0.2c0,0,0,0,0.1,0c0.1,0,0.2,0.1,0.3,0.2c0.2,0.2,0.3,0.5,0.4,0.8c0.3,0.8,0.3,1.6,0.3,2.4
				c0,0.8-0.1,1.6-0.4,2.3c0,0,0,0.1-0.1,0.1c0,0.1-0.1,0.2-0.1,0.2c-0.2-0.1-0.4-0.4-0.5-0.6c-0.3-0.6-1.9,0.7-1.5,1.4
				c0.9,1.5,2.4,0.6,3.2-0.5c0.3-0.4,0.5-0.9,0.7-1.4c0.2-0.4,0.4-0.8,0.6-1.2c-0.2,1.3-0.3,2.5-0.5,3.8c-0.1,0.5,0.5,0.4,0.8,0.3
				c0.5-0.2,0.9-0.6,1-1c0.1-0.5,0.3-0.9,0.5-1.4c0,0.5,0.1,1,0.2,1.5c0.1,0.6,0.5,1.2,1.1,1.4c0.9,0.3,2-0.3,2.6-0.8
				c0.5-0.4,1-0.9,1.4-1.5c-0.1,0.8-0.3,1.7-0.5,2.5c-0.1,0.5,0.4,0.5,0.7,0.4c0.5-0.1,1-0.5,1.1-0.9c0.2-0.7,0.5-1.5,1-2.2
				c0.3-0.3,0.4-0.4,0.9-0.7c0,0,0,0,0.1,0c-0.3,1.1-0.5,2.3-0.5,3.5c0,1.1,0.7,1.4,1.7,1.1c0.4-0.1,0.8-0.3,1.2-0.5
				c0.1,0.4,0.2,0.8,0.5,1.1c0.6,0.6,1.8,0.3,2.4-0.1c0.1,0,0.1-0.1,0.2-0.1c0,0.2,0,0.3,0,0.5c0.2,1,1,1.2,1.8,0.9
				c0.5,0.9,1.9,1,2.9,0.6c0.2-0.1,0.4-0.2,0.6-0.3c0,0.2,0,0.4,0,0.6c0.2,1.3,1.4,1.5,2.6,1C-506.1,442.1-505.3,441.8-505.5,441.4z
				 M-515,438c0,0-0.2,0-0.3-0.1c-0.3-0.2-0.3-0.8-0.3-1.1c0-0.5,0-1,0.2-1.5c0,0,0,0,0,0c0-0.1,0-0.1,0-0.2
				c0.2-0.7,0.5-1.3,0.8-1.9c0.2-0.3,0.6-0.8,0.8-1c0,0,0.1,0,0.1,0c0.1,0,0.2,0,0.3,0.1c0.4,0.1,0.5,0.5,0.4,0.9
				c-0.6,1.5-1,3.2-1.8,4.6C-514.8,437.7-514.9,437.9-515,438z M-512.4,439.1L-512.4,439.1L-512.4,439.1L-512.4,439.1z
				 M-508.8,436.1c0-0.6,0.5-1.8,1.1-2c-0.1,0.1,0.2,0.1,0.4,0.2c0.3,0.3,0.2,0.7,0.1,1c-0.3,0.7-0.6,1.4-0.9,2.1
				C-508.7,437.2-508.8,436.6-508.8,436.1z M-506.5,441.2C-506.5,441.2-506.5,441.2-506.5,441.2L-506.5,441.2z"/>
		</g>
	</g>
	<g>
		<path class="st1" d="M-507.3,453.9c-0.4,0.6-0.8,1.1-1.3,1.5c-0.1,0-0.1,0.1-0.3,0c-0.3-0.2-0.2-1-0.1-1.3c0.1-1,0.4-2,0.8-3
			c0.1-0.2,0.2-0.4,0.2-0.6c0.1-0.3,0.3-0.7,0.4-1c0,0,0-0.1,0-0.1c0.3-0.9-0.4-1.7-1.5-1.9c-1.1-0.2-2.1,0.3-2.8,0.9
			c-1,0.8-1.6,2-1.9,3.3c0,0.1-0.1,0.1-0.1,0.2c-0.2,0.4-0.5,0.9-0.9,1.2c-0.1,0.1,0,0.1-0.1,0.1c-0.5-0.2-0.2-0.9-0.2-1.3
			c0.1-0.7,0.2-1.4-0.1-2.1c-0.2-0.5-0.8-0.7-1.3-0.7c0-0.1,0.1-0.2,0.1-0.3c0.1-0.1,0.1-0.2,0.2-0.3c0.3-0.5,0.6-1,1.1-1.4
			c0,0,0,0,0,0c0,0,0,0,0,0c0.2,0.1,0.4,0.4,0.5,0.5c0.5,0.6,2.3-0.3,1.9-0.9c-0.6-0.8-1.4-1-2.1-0.8c-0.5,0.1-1,0.3-1.5,0.7
			c-0.1,0.1-0.2,0.1-0.2,0.2c0.2-0.9,0.3-1.8,0.2-2.7c0-0.7-2,0-2,0.7c0.1,1.3-0.1,2.6-0.4,3.9c0,0.1-0.1,0.1-0.1,0.2
			c-0.4,1.1-1.2,2.1-2.3,2.7c-0.2,0.1-0.3,0.1-0.5,0.2c0,0-0.1,0-0.1,0c0,0,0,0-0.1-0.1c-0.1-0.2-0.1-0.4-0.1-0.6
			c-0.1-1.1,0.1-2.2,0.4-3.2c0.1-0.7,0.3-1.4,0.6-2.1c0.2-0.3,0.3-0.6,0.4-0.8c0.2-0.4,0-0.6-0.5-0.6c-0.5,0-1.1,0.4-1.3,0.8
			c-0.2,0.4-0.4,0.7-0.5,1.1c-0.2,0.4-0.5,0.9-0.9,1.3c-0.3,0.3-0.6,0.4-1,0.7c0,0-0.1,0-0.1,0.1c0.1-1.4,0.2-2.8,0.3-4.2
			c0.1-0.9-2,0-2,0.6c0,0.6-0.1,1.2-0.1,1.8c-0.1,0.1-0.1,0.2-0.2,0.3c-0.2,1.3-0.5,2.8-1.4,3.8c-0.1,0.1-0.1,0.2-0.3,0.1
			c-0.4-0.1-0.4-0.9-0.5-1.2c-0.1-1-0.1-2.1,0-3.1c0-0.2,0.1-0.5,0.1-0.7c0-0.4,0.1-0.7,0.2-1.1c0,0,0-0.1,0-0.1
			c0.1-1-0.8-1.5-1.9-1.4c-1.1,0.1-1.9,0.9-2.5,1.6c-0.7,1-1,2.4-1.1,3.7c0,0.1-0.1,0.1-0.1,0.2c-0.1,0.5-0.2,1-0.5,1.4
			c-0.1,0.1,0,0.1-0.1,0.1c-0.5-0.1-0.4-0.8-0.5-1.2c-0.1-0.7-0.1-1.4-0.6-2c-0.3-0.4-0.9-0.4-1.4-0.3c0-0.1,0-0.2,0.1-0.3
			c0-0.1,0.1-0.2,0.1-0.4c0.2-0.6,0.4-1.2,0.7-1.7c0,0,0,0,0,0c0,0,0,0,0,0c0.2,0,0.5,0.2,0.6,0.3c0.6,0.4,2.2-0.9,1.6-1.4
			c-0.8-0.6-1.6-0.6-2.2-0.2c-0.5,0.2-0.9,0.6-1.3,1c-0.1,0.1-0.1,0.2-0.2,0.2c-0.1-0.9-0.2-1.8-0.5-2.7c-0.2-0.7-1.9,0.6-1.7,1.2
			c0.2,0.8,0.4,1.6,0.5,2.4c-0.3,1.2-0.8,2.3-1.5,3.4c-0.4,0.6-0.9,1.1-1.2,1.4c-1,0.8-1.6,0.4-2-0.4c0-0.1,0.1-0.1,0.1-0.2
			c1-1.4,1.9-3,2-4.6c0-1-0.6-1.9-1.8-1.7c-1.2,0.2-2,1.4-2.3,2.4c-0.4,1.1-0.4,2.3-0.2,3.4c0.1,0.4,0.1,0.7,0.2,1.1
			c-0.2,0.1-0.3,0.2-0.5,0.4c-0.3,0.2-0.6,0.5-0.9,0.6c-0.1,0-0.2,0-0.4-0.2c-0.7-0.6-0.6-2-0.7-2.8c-0.1-1-0.2-2-0.6-2.9
			c-0.2-0.6-0.8-1.3-1.6-1.1c-1,0.2-1.6,1.1-1.9,1.8c0,0,0,0.1,0,0.1c-0.1-0.4-0.3-0.9-0.5-1.3c-0.3-0.6-1.8,0.9-1.5,1.5
			c0.4,0.9,0.7,1.9,0.9,2.9v0c0,0,0,0,0,0s0,0.2,0,0.2c0,0.4-0.1,0.7-0.1,1.1c-0.1,0.7-0.3,1.5-0.8,2.1c0,0,0,0,0,0
			c-0.1-0.1-0.2-0.2-0.2-0.3c-0.3-0.4-0.5-0.9-0.6-1.4c-0.5-1.3-0.8-2.6-1.1-3.9c0,0,0-0.1,0-0.1c-0.3-1-1.2-1.2-2.2-0.6
			c-1,0.5-1.5,1.5-1.8,2.4c-0.4,1.4-0.1,3,0.4,4.4c-0.4,0.5-0.8,1.1-1.2,1.6c-0.3-0.3-0.7-0.5-1.2-0.5c0.3-1.5-0.1-3.3-0.7-4.5
			c-0.4-0.8-1.2-1.7-2.3-1.3c-0.8,0.3-1.4,1.1-1.7,1.8c-0.4,0.9-0.3,1.8,0,2.7c0.4,0.8,1.7-0.9,1.4-1.5c-0.1-0.3-0.2-0.6-0.2-0.9
			c0-0.1,0-0.1,0-0.2c0,0,0.1-0.1,0.1-0.1c0,0,0.2,0,0.2,0c0.6,0.1,1,0.8,1.3,1.3c0.4,0.7,0.6,1.5,0.7,2.3c0,0.3,0,0.6,0,0.9
			c-0.2,0.1-0.3,0.3-0.5,0.4c-0.1,0.1-0.2,0.2-0.3,0.4c-0.2,0.3-0.4,0.8-0.3,1.1c0,0.1,0.1,0.2,0.2,0.2c0.1,0,0.2,0,0.3,0
			c0.3-0.2,0.6-0.4,0.8-0.6c0.4-0.1,0.8,0.1,1.1,0.4c-0.7,1.2-1.2,2.4-1.3,3.7c-0.2,1.2-0.1,2.8,0.8,3.7c0.7,0.6,1.8,0.3,2.3-0.4
			c1.3-1.5,1.2-3.9,0.8-5.7c-0.1-0.6-0.4-1.4-0.8-2.1c0.3-0.5,0.7-1,1-1.4c0.3,0.5,0.7,1,1.4,1.1c0.8,0.1,1.6-0.8,2-1.4
			c0-0.1,0.1-0.1,0.1-0.2c0.4,0.6,0.9,1.2,1.6,0.5c0.7-0.6,1.2-1.3,1.6-2.2c0.1,0.5,0.2,0.9,0.3,1.4c0.2,0.9,1.5-0.6,1.4-1.2
			c-0.2-1.4-0.4-2.8-0.3-4.3c0-0.5,0.1-1,0.2-1.5c0-0.2,0.1-0.4,0.2-0.5c0,0,0,0,0,0c0.1,0,0.1,0.1,0.2,0.1c0.3,0.2,0.5,0.6,0.6,1
			c0.3,0.9,0.4,1.8,0.5,2.7c0.1,1,0.4,3.8,2.2,3c0.8-0.4,1.6-1,2.3-1.5c0.1,0.2,0.3,0.4,0.4,0.6c0.9,1.1,2.5,0.2,3.4-0.5
			c1-0.8,1.9-1.8,2.6-3c0,1.1,0,2.2,0,3.2c0,0.5,0.5,0.4,0.8,0.2c0.4-0.2,0.8-0.7,0.8-1.1c0.1-0.8,0.1-1.6,0.3-2.4
			c1,0.2,0.5,2.8,1.3,3.3c0.6,0.4,1.5,0,2-0.4c0.2-0.1,0.4-0.3,0.5-0.5c0.1,0.5,0.4,0.9,0.8,1.1c0.7,0.4,1.8-0.1,2.3-0.6
			c0.1-0.1,0.1-0.1,0.2-0.2c0.1,0.4,0.3,1,0.8,1.1c0.6,0.2,1.4-0.2,1.9-0.5c0.3-0.2,0.6-0.4,0.8-0.6c0,0.3-0.1,0.7-0.2,1
			c-0.1,0.4,0.5,0.4,0.8,0.3c0.5-0.2,0.9-0.5,1.1-1c0.2-0.7,0.4-1.5,0.9-2.1c0.3-0.3,0.4-0.4,0.9-0.7c0,0,0,0,0.1,0
			c0,0.1-0.1,0.3-0.1,0.4c-0.2,1.1-0.5,2.5,0,3.6c0.4,1,2.3,0.1,2.8-0.2c0.4-0.2,0.8-0.5,1.2-0.8c-0.2,0.5-0.3,1.1-0.4,1.6
			c-0.1,0.4,0.4,0.5,0.7,0.4c0.4-0.1,0.9-0.4,1.1-0.9c0.3-0.8,0.5-1.5,0.9-2.3c0.9,0.5-0.2,2.9,0.4,3.6c0.5,0.6,1.4,0.4,2,0.2
			c0.2-0.1,0.4-0.2,0.6-0.3c0,0.5,0.1,1,0.5,1.3c0.6,0.6,1.8,0.4,2.4,0c0.1,0,0.1-0.1,0.2-0.1c0,0.4,0,1,0.5,1.3
			c0.6,0.3,1.4,0.2,2,0.1c0.8-0.2,1.4-0.6,1.9-1.3C-506.2,454.2-506.7,453.5-507.3,453.9z M-561.2,461.9
			C-561.2,461.9-561.2,461.9-561.2,461.9C-561.2,461.9-561.2,462-561.2,461.9c-0.2,0.2-0.6,0.2-0.8,0.1c-1-0.3-0.9-2.1-0.8-2.9
			c0.1-0.7,0.4-1.4,0.7-2c0.1,0.1,0.1,0.3,0.2,0.4c0.4,0.7,0.6,1.5,0.7,2.3C-561.1,460.6-561.1,461.4-561.2,461.9z M-557.5,453.2
			c0,0-0.1,0.1-0.3,0.1c-0.4,0-0.7-0.5-0.8-0.7c-0.7-1-1-2.3-1-3.5c0-0.4,0.1-1,0.1-1.2c0,0,0.1-0.1,0.1-0.1c0.1,0,0.2-0.1,0.3-0.1
			c0.4-0.1,0.7,0.1,0.8,0.4c0.3,1.5,0.8,3.1,0.8,4.7C-557.5,452.9-557.5,453.1-557.5,453.2z M-544.6,448.3c-0.2-0.8-0.2-1.6-0.1-2.4
			c0-0.4,0.1-0.7,0.2-1.1c0-0.1,0-0.1,0.1-0.1c0.1,0,0.2,0.1,0.3,0.1c0.3,0.2,0.4,0.5,0.5,0.8C-543.7,446.5-544.1,447.5-544.6,448.3
			z M-531.2,449.9c0,0.1-0.1,0.2-0.1,0.4c-0.1,0-0.2,0-0.3,0c-0.3-0.2-0.5-0.7-0.5-1c-0.3-1.1-0.2-2.5,0.2-3.6
			c0.1-0.3,0.4-0.9,0.5-1.1c0,0,0.1,0,0.1,0c0.1,0,0.2,0,0.3,0c0.4,0,0.6,0.4,0.6,0.7C-530.6,446.7-530.6,448.4-531.2,449.9z
			 M-509.6,449.6c-0.6,1.4-1,3-1.9,4.3c0,0.1-0.2,0.2-0.2,0.3c0,0-0.2,0-0.2-0.1c-0.3-0.2-0.3-0.8-0.3-1.1c0-1.2,0.5-2.4,1.1-3.4
			c0.2-0.3,0.6-0.8,0.8-0.9c0,0,0.1,0,0.1,0c0.1,0,0.2,0.1,0.3,0.1C-509.6,448.9-509.5,449.3-509.6,449.6z"/>
		<path class="st1" d="M-561.2,461.9C-561.2,461.9-561.2,461.9-561.2,461.9L-561.2,461.9C-561.2,461.9-561.2,461.9-561.2,461.9z"/>
		<path class="st1" d="M-561.2,461.9C-561.2,461.9-561.2,461.9-561.2,461.9L-561.2,461.9z"/>
		<path class="st1" d="M-544.7,444.8C-544.7,444.8-544.7,444.8-544.7,444.8L-544.7,444.8z"/>
	</g>
</g>
</svg>
