<?xml version="1.0" encoding="utf-8"?>
<!-- Generator: Adobe Illustrator 19.0.0, SVG Export Plug-In . SVG Version: 6.00 Build 0)  -->
<svg version="1.1" xmlns="http://www.w3.org/2000/svg" xmlns:xlink="http://www.w3.org/1999/xlink" x="0px" y="0px"
	 viewBox="0 0 331.2 255" style="enable-background:new 0 0 331.2 255;" xml:space="preserve">
<style type="text/css">
	.st0{fill:#519E38;}
	.st1{fill:#FEBEBD;}
	.st2{fill:#9D360A;}
	.st3{fill:#CA655F;}
	.st4{fill:#0E3656;}
	.st5{fill:#446666;}
	.st6{fill:#FFFFFF;}
</style>
<g id="Layer_2">
</g>
<g id="kolba_4">
</g>
<g id="kolba_3">
</g>
<g id="kolby">
</g>
<g id="doma">
</g>
<g id="butylka_3">
</g>
<g id="butylka_2">
</g>
<g id="butylka_1">
</g>
<g id="vanna_2">
</g>
<g id="sneg">
</g>
<g id="vanna_1">
</g>
<g id="shariki_2">
</g>
<g id="shariki_1">
</g>
<g id="voronka">
</g>
<g id="gradusnik">
</g>
<g id="kolba_2">
</g>
<g id="kolba_1">
</g>
<g id="probirki">
</g>
<g id="potato">
</g>
<g id="zavod">
</g>
<g id="blank">
</g>
<g id="ticks">
</g>
<g id="car">
</g>
<g id="lupa">
	<path class="st0" d="M262.5,106.7c-30.3-56.5-96.3-25-96.3-25s-20.2,10.1-61.2,3c-34.2-6-49.4,26.2-44.8,43.2
		c-1.9,9-0.3,17.5,5,21.4c14.9,10.7,35.1,16,62.4,14.3C155,161.8,231,174.3,231,174.3s46.1,1.7,39.1-34.2
		C272.1,132.3,270.5,121.5,262.5,106.7z"/>
	<path class="st1" d="M227,153.3c0,0,61.8,2.4,31.5-54.1c-30.3-56.5-96.3-25-96.3-25s-20.2,10.1-61.2,3c-41-7.1-54.7,40.4-39.8,51.1
		s35.1,16,62.4,14.3C151,140.8,227,153.3,227,153.3z"/>
	<path class="st2" d="M227,153.1c0,0-76.1-12.5-103.4-10.7c-27.3,1.8-47.5-3.6-62.4-14.3c-2.4-1.8-4.1-4.5-5-7.8
		c-2,9.1-0.3,17.7,5,21.6c14.9,10.7,35.1,16,62.4,14.3C151,154.3,227,166.8,227,166.8s46.3,1.8,39.1-34.4
		C260.6,154.3,227,153.1,227,153.1z"/>
	<path class="st3" d="M114.7,89.2c0,0-24.2-13.1-42.4,2s-11.1,45.2,26.5,42.8s42,1.6,43.2-4C143.2,124.4,114.7,89.2,114.7,89.2z"/>
	<path class="st3" d="M226.8,143.5c0,0,34.1,8.2,34.9-23.3s-33.3-19.6-33.3-19.6s-9.9,11.1-18.6,11.9c-8.7,0.8-24.6,2.4-17.4,14.7
		S226.8,143.5,226.8,143.5z"/>
	<path class="st3" d="M241.4,90.4c0,0-6.3-26.1-61-14.3s5.2,7.5,13.1,12.7S223.6,103.8,241.4,90.4z"/>
	<path class="st3" d="M146.8,128c0,0,8.3,7.9,19.8,8.3s21.4,2.8,24,0c2.6-2.8-29.4-27.3-29.4-27.3s-35.4-22.2-38.6-21
		S146.8,128,146.8,128z"/>
	<path class="st3" d="M202.6,101.1c0,0-11.1-9.9-25-10.3c-13.9-0.4-19.8-5.8-23.8-5.7c-4,0.1-15.5,3.8,0,12.1s19.1,13.5,30.9,15.7
		C196.6,114.9,212.5,104.6,202.6,101.1z"/>
	<g>
		<path class="st4" d="M259.8,130.5c-13.8-13.8-36.2-13.8-49.9,0c-13.8,13.8-13.8,36.2,0,49.9c13.8,13.8,36.2,13.8,49.9,0
			C273.6,166.7,273.6,144.3,259.8,130.5z M253.6,174.2c-5,5-11.7,7.8-18.7,7.8c-7.1,0-13.7-2.8-18.7-7.8c-5-5-7.8-11.7-7.8-18.7
			c0-7.1,2.8-13.7,7.8-18.7c5-5,11.7-7.8,18.7-7.8c7.1,0,13.7,2.8,18.7,7.8c5,5,7.8,11.7,7.8,18.7
			C261.3,162.6,258.6,169.2,253.6,174.2z"/>
		<g>
			<g>
				<g>
					<g>
						
							<rect x="267.9" y="175.3" transform="matrix(0.7071 -0.7071 0.7071 0.7071 -56.6931 249.072)" class="st5" width="8.8" height="35.3"/>
					</g>
				</g>
			</g>
		</g>
		<g>
			<g>
				<g>
					<g>
						
							<rect x="276" y="181.9" transform="matrix(0.7071 -0.7071 0.7071 0.7071 -61.8621 261.5816)" class="st4" width="17.7" height="47.1"/>
					</g>
				</g>
			</g>
		</g>
		<g>
			<g>
				<g>
					<g>
						<g>
							<path class="st6" d="M227.6,169c-1.7,1.7-4.5,1.7-6.2,0c-3.6-3.6-5.6-8.4-5.6-13.5c0-5.1,2-9.9,5.6-13.5
								c1.7-1.7,4.5-1.7,6.2,0c1.7,1.7,1.7,4.5,0,6.2c-1.9,1.9-3,4.5-3,7.3c0,2.8,1.1,5.3,3,7.3C229.3,164.5,229.3,167.3,227.6,169z
								"/>
						</g>
					</g>
				</g>
			</g>
		</g>
	</g>
</g>
</svg>
