<?xml version="1.0" encoding="utf-8"?>
<!-- Generator: Adobe Illustrator 19.0.0, SVG Export Plug-In . SVG Version: 6.00 Build 0)  -->
<svg version="1.1" xmlns="http://www.w3.org/2000/svg" xmlns:xlink="http://www.w3.org/1999/xlink" x="0px" y="0px"
	 viewBox="0 0 222.1 234" style="enable-background:new 0 0 222.1 234;" xml:space="preserve">
<style type="text/css">
	.st0{fill:#4E9B35;}
	.st1{fill:none;stroke:#FFFFFF;stroke-width:3;stroke-miterlimit:10;}
	.st2{fill:#FFFFFF;}
	.st3{fill:#9D360A;}
	.st4{fill:#FEBEBD;}
</style>
<g id="Layer_2">
</g>
<g id="kolba_4">
</g>
<g id="kolba_3">
</g>
<g id="kolby">
</g>
<g id="doma">
</g>
<g id="butylka_3">
</g>
<g id="butylka_2">
</g>
<g id="butylka_1">
</g>
<g id="vanna_2">
</g>
<g id="sneg">
</g>
<g id="vanna_1">
</g>
<g id="shariki_2">
</g>
<g id="shariki_1">
</g>
<g id="voronka">
</g>
<g id="gradusnik">
</g>
<g id="kolba_2">
</g>
<g id="kolba_1">
</g>
<g id="probirki">
</g>
<g id="potato">
</g>
<g id="zavod">
</g>
<g id="blank">
</g>
<g id="ticks">
</g>
<g id="car">
</g>
<g id="lupa">
	<path class="st0" d="M48.6,69.3v121.9c0,6.6,5.4,12,12,12h112.3c6.6,0,12-5.4,12-12V69.3H48.6z"/>
	<path class="st1" d="M182,213.3H51.7c-6.6,0-12-5.4-12-12v-148c0-6.6,5.4-12,12-12H182c6.6,0,12,5.4,12,12v148
		C194,207.9,188.6,213.3,182,213.3z"/>
	<path class="st2" d="M196.5,52.3H37c-3.6,0-6.5-2.9-6.5-6.5v0c0-3.6,2.9-6.5,6.5-6.5h159.5c3.6,0,6.5,2.9,6.5,6.5v0
		C203,49.3,200.1,52.3,196.5,52.3z"/>
	<path class="st3" d="M59.5,89.4c0,0,14.5-18.7,24.5-2.2s11,41.5,4.5,41.5S49,116.1,59.5,89.4z"/>
	<path class="st3" d="M145.2,99.6c18.7-5.5,44,6.5,36,14.5s-19,31-38,30s-36.5-6.5-24.5-18.5S131.7,103.6,145.2,99.6z"/>
	<path class="st3" d="M78.1,155.6c-5.7,7.7-13.5,24,2.5,31.5s43,17,49.5,9c6.5-8,5.5-7-2.5-21s-17-21-25-25S81.5,151,78.1,155.6z"/>
	<path class="st4" d="M141.5,91.8c18.7-5.5,44,6.5,36,14.5s-19,31-38,30s-36.5-6.5-24.5-18.5S128,95.8,141.5,91.8z"/>
	<path class="st4" d="M78.1,147.3c-5.7,7.7-13.5,24,2.5,31.5s43,17,49.5,9c6.5-8,5.5-7-2.5-21s-17-21-25-25S81.5,142.6,78.1,147.3z"
		/>
	<path class="st4" d="M62.5,83c0,0,14.5-18.7,24.5-2.2s11,41.5,4.5,41.5S52,109.8,62.5,83z"/>
	<path class="st2" d="M60.5,98.2L60.5,98.2c-3.3,0-6-2.7-6-6V66.3c0-3.3,2.7-6,6-6h0c3.3,0,6,2.7,6,6v25.9
		C66.5,95.5,63.8,98.2,60.5,98.2z"/>
</g>
</svg>
