<?xml version="1.0" encoding="utf-8"?>
<!-- Generator: Adobe Illustrator 19.0.0, SVG Export Plug-In . SVG Version: 6.00 Build 0)  -->
<svg version="1.1" xmlns="http://www.w3.org/2000/svg" xmlns:xlink="http://www.w3.org/1999/xlink" x="0px" y="0px"
	 viewBox="0 0 214.5 279" style="enable-background:new 0 0 214.5 279;" xml:space="preserve">
<style type="text/css">
	.st0{fill:#2D2D2D;}
	.st1{fill:#4D4C4B;}
	.st2{fill:#F9DDC5;}
	.st3{fill:#EC145A;}
	.st4{fill:#62BA47;}
	.st5{fill:#FFFFFF;}
	.st6{fill:#231F20;}
	.st7{fill:#FEBEBD;}
</style>
<g id="Layer_2">
</g>
<g id="kolba_4">
</g>
<g id="kolba_3">
</g>
<g id="kolby">
</g>
<g id="doma">
</g>
<g id="butylka_3">
</g>
<g id="butylka_2">
</g>
<g id="butylka_1">
</g>
<g id="vanna_2">
</g>
<g id="sneg">
</g>
<g id="vanna_1">
</g>
<g id="shariki_2">
</g>
<g id="shariki_1">
</g>
<g id="voronka">
</g>
<g id="gradusnik">
</g>
<g id="kolba_2">
</g>
<g id="kolba_1">
</g>
<g id="probirki">
</g>
<g id="potato">
</g>
<g id="zavod">
</g>
<g id="blank">
</g>
<g id="ticks">
</g>
<g id="car">
</g>
<g id="lupa">
	<path class="st0" d="M176.7,223.6H47.4c-4.3,0-7.9-3.5-7.9-7.9V49.6c0-4.3,3.5-7.9,7.9-7.9h129.3c4.3,0,7.9,3.5,7.9,7.9v166.1
		C184.6,220.1,181.1,223.6,176.7,223.6z"/>
	<path class="st1" d="M172.6,41.7c6.6,0,12,5.4,12,12v157.9c0,6.6-5.4,12-12,12H51.5c-6.6,0-12-5.4-12-12V53.7c0-6.6,5.4-12,12-12
		H172.6 M172.6,34.8H51.5c-10.4,0-18.9,8.5-18.9,18.9v157.9c0,10.4,8.5,18.9,18.9,18.9h121.1c10.4,0,18.9-8.5,18.9-18.9V53.7
		C191.6,43.3,183.1,34.8,172.6,34.8L172.6,34.8z"/>
	<path class="st2" d="M32.6,153.8v57.8c0,10.4,8.5,18.9,18.9,18.9h121.1c10.4,0,18.9-8.5,18.9-18.9v-57.8H32.6z"/>
	<path class="st3" d="M124.9,180.1c-0.2,0-0.4,0-0.6,0c-1.8-4.1-5.8-6.9-10.6-6.9c-4.7,0-8.8,2.9-10.6,6.9c-0.1,0-0.2,0-0.3,0
		c-5.7,0-11.1,5.6-11.1,11.3c0,4.5,3.7,10.5,7.7,11.9c1.3-0.4,3.2-0.8,5.6-1.2c-2.7-1-2.9-2.8-3-2.9c0-0.2,0.1-0.4,0.4-0.4
		c0.2,0,0.4,0.1,0.4,0.4c0,0.1,0.3,2.1,4.3,2.6c0,0,0.1,0,0.1,0c0.9-0.1,1.9-0.2,2.9-0.3c-0.9-1.2-1.3-3.2-1.4-3.4
		c0-0.2,0.1-0.4,0.3-0.5c0.2,0,0.4,0.1,0.5,0.3c0.2,0.8,0.8,2.9,1.6,3.5c0,0,0,0,0.1,0.1c3-0.1,6.3-0.1,10,0.4
		c0.2-0.1,0.3-0.1,0.4-0.1c3.5-0.8,3.7-2.5,3.8-2.6c0-0.2,0.2-0.4,0.4-0.4c0.2,0,0.4,0.2,0.4,0.4c0,0.1-0.2,1.9-3,2.9
		c1.7,0.3,3.5,0.7,5.4,1.2c3.9-1.5,7.3-7.3,7.3-11.7C135.9,186,130.5,180.1,124.9,180.1z"/>
	<g>
		<circle class="st4" cx="133.1" cy="174.9" r="12.5"/>
		<g>
			<path class="st5" d="M130,173.2c-1,0.1-1.3,1.3-1.3,2.2l0,0v0c0,0.1,0,0.3,0,0.4c0,0.4,0,0.7-0.1,1.1c0,0.2-0.1,0.5-0.1,0.5
				c-0.4,0-0.7-0.5-0.8-0.8c-0.2-0.6-0.4-1.3-0.6-2c-0.1-0.7-0.2-1.5-0.2-2.2c0-0.3,0-0.6,0-0.9c0-0.1,0-0.2,0-0.4
				c0-0.1,0-0.2,0-0.2c0.1-0.5-0.7,0-0.8,0.2c-0.8,1.4-0.6,3.2-0.6,4.7c0,0.4,0,0.9-0.1,1.3c0,0.3-0.1,0.8-0.3,1
				c-0.2,0.2-0.4,0-0.6,0c-0.2-0.1-0.3-0.3-0.4-0.6c0-0.2-0.3-0.1-0.4,0c-0.2,0.2-0.4,0.5-0.3,0.7c0.1,0.6,0.6,1.1,1.2,0.9
				c0.9-0.3,1.3-1.4,1.6-2.2c0.1-0.4,0.2-0.8,0.2-1.3c0.1,0.6,0.3,1.2,0.6,1.8c0.2,0.4,0.6,0.8,1.1,0.7c0.4-0.1,0.7-0.5,0.9-1
				c0.2,0.4,0.5,0.7,0.9,0.7c0.5,0,1-0.6,1.1-1c0.2-0.5,0.3-1.1,0.3-1.6C131.3,174.6,131.1,173,130,173.2z M130.3,176.8
				c0,0.1,0,0.2-0.1,0.3c-0.2,0-0.3-0.3-0.4-0.5c-0.2-0.3-0.2-0.7-0.3-1.1c0-0.4,0-0.8,0-1.2c0-0.1,0-0.2,0.1-0.3
				c0.5,0.3,0.6,1,0.7,1.5C130.4,176,130.4,176.4,130.3,176.8z"/>
			<path class="st5" d="M142.4,174.6c-1.1-0.4-1.7,1.1-1.9,1.9c-0.2,0.8-0.4,2.2,0.5,2.6c0.5,0.2,1-0.2,1.3-0.5
				c0.3-0.4,0.6-0.9,0.7-1.4C143.2,176.5,143.4,175,142.4,174.6z M141.8,178.2c0,0.1-0.1,0.2-0.2,0.3c-0.2-0.1-0.2-0.5-0.3-0.6
				c-0.1-0.4,0-0.8,0-1.2c0.1-0.4,0.2-0.8,0.4-1.1c0-0.1,0.1-0.2,0.2-0.2c0.4,0.5,0.3,1.2,0.2,1.8
				C142,177.5,141.9,177.9,141.8,178.2z"/>
			<path class="st5" d="M139.4,174.8c0.2-0.3,0.4-0.6,0.6-0.9c0.4-0.6,0.8-1.4,0.8-2.1c0-0.7-1-0.8-1.5-0.5
				c-0.7,0.4-1.1,1.1-1.3,1.8c-0.3,1-0.4,1.9-0.5,2.9c0,0,0,0,0,0c-0.3,0.4-1.1,1.3-1.6,0.9c-0.1-0.1-0.2-0.3-0.3-0.5
				c0.5-0.5,0.9-1,1.2-1.5c0.3-0.5,0.6-1.4-0.1-1.7c-0.5-0.3-1.2,0-1.6,0.5c-0.4,0.4-0.5,1-0.6,1.6c0,0.3-0.1,0.8,0,1.3
				c-0.3,0.2-0.7,0.3-1.1,0.3c-0.4-0.1-0.6-0.5-0.7-0.9c-0.1-0.5-0.1-1.1,0-1.6c0-0.2,0.1-0.3,0.1-0.5c0,0,0-0.1,0-0.1
				c0.3,0.1,0.4,0.5,0.4,0.7c0.1,0.4,1.1-0.2,1-0.6c-0.1-0.4-0.3-0.7-0.7-0.9c-0.4-0.2-0.9,0.1-1.2,0.4c-0.7,0.7-0.7,1.7-0.7,2.6
				c0,0.6,0.2,1.3,0.7,1.6c0.7,0.4,1.6,0,2.3-0.4c0.2,0.4,0.5,0.7,1,0.6c0.7-0.1,1.3-0.5,1.8-0.9c0,0.5,0.1,1.1,0.5,1.3
				c0.6,0.3,1.3-0.1,1.7-0.5c0.5-0.6,0.8-1.6,0.5-2.3C140,175,139.7,174.8,139.4,174.8z M135.6,174.4c0-0.1,0.1-0.3,0.2-0.4
				c0,0,0,0,0,0c0.3,0.1,0.3,0.4,0.3,0.6c-0.1,0.4-0.3,0.8-0.6,1.2c0-0.1,0-0.1,0-0.2C135.4,175.2,135.5,174.8,135.6,174.4z
				 M139.2,172.3c0.1-0.1,0.2-0.3,0.3-0.4c0,0,0,0,0,0c0.4,0.5,0,1.2-0.2,1.6c-0.2,0.4-0.5,0.9-0.8,1.3c0.1-0.4,0.1-0.9,0.3-1.3
				C138.9,173.1,139,172.7,139.2,172.3z M139,177.4c0,0-0.1,0.1-0.1,0.2c0,0-0.1,0-0.1,0c-0.3-0.1-0.3-0.7-0.3-1c0-0.2,0-0.4,0-0.6
				c0.1-0.1,0.2-0.3,0.4-0.4c0.2-0.2,0.4,0.2,0.5,0.4C139.4,176.5,139.2,177,139,177.4z"/>
		</g>
	</g>
	<g>
		<path class="st4" d="M77.2,183.3c-0.1,0.1,0.3,0.2,0.5,0.3c0,0.1-0.2,0-0.3,0c0,0.1,0.1,0.1,0.2,0.2c0,0-0.1,0-0.1,0.1
			c0.2,0.1,0.3,0.5,0.6,0.6c0.6,0.2,1.3,0.4,1.3,0.5c0.1-1-0.4-1.9,0.5-2.8c0-0.1-0.1-0.1-0.1-0.2c0.1,0,0.1,0,0.1,0
			c0-0.2-0.2-0.1-0.1-0.3c0,0,0.1,0,0.2,0c0.1,0-0.1-0.2-0.1-0.2c0-0.1,0.2,0,0.2,0c0-0.1-0.3-0.3-0.3-0.5c0.2,0.1,0.3,0.2,0.4,0.3
			c-0.1-0.3-0.3-0.3-0.3-0.6c0.2,0.1,0.3,0.3,0.5,0.4c-0.1-0.3-0.3-0.4-0.4-0.8c0.3,0.1,0.4,0.4,0.7,0.6c-0.2-0.4-0.4-0.9-0.4-1.3
			c0.3,0.3,0.4,0.7,0.6,1.1c0-0.4-0.3-1-0.2-1.6c0.3,0.4,0.4,1,0.6,1.5c0.1-0.5-0.4-1.3-0.1-1.9c0.2,0.5,0.3,1.1,0.4,1.7
			c0-0.5-0.1-1.3,0-1.9c0.2,0.5,0.2,1.3,0.3,1.9c0.1-0.4-0.1-1.4,0.2-1.7c0,0.5,0,1,0,1.5c0,0.8,0.4,1.6,0.1,2.3
			c-0.3,0.8-0.9,1.4-0.8,2.4c1.2,0.4,1.5,0.4,2.5,0.4c0.4,0,0.7-0.3,1.2-0.1c0.1,0,0.2,0.2,0.3,0.2c0.3,0.1,0.5,0.1,0.9,0.1
			c-0.5,0.1-1.4,0.2-1.5,0.2c-0.2,0-0.9-0.2-0.4-0.2c0.3,0,0.6,0,0.6-0.1c0-0.3-0.5-0.1-0.8,0c-1,0.1-1.5,0.3-3.2,0
			c0.4,0,0.4-0.3,0.4-0.5c-0.1-1.3,0.2-1.5,0.5-2.1c0.6-1.1-0.2-1.1-0.5-1.5c-0.1,0.2,0,0.4,0,0.5c-0.2-0.1-0.2-0.4-0.4-0.5
			c-0.1,0.1,0.1,0.3,0.1,0.5c-0.1-0.1-0.2-0.2-0.3-0.3c-0.1,0.1,0.1,0.3,0.1,0.4c-0.1,0-0.2-0.2-0.3-0.2c-0.1,0.1,0.1,0.1,0,0.3
			c-0.1,0-0.1-0.1-0.2,0c0,0.1,0,0.2,0.1,0.2c0,0.1-0.1,0-0.1,0c-0.1,0,0,0.1,0,0.2c-0.8-0.1-0.2,2.5-0.8,3.5
			c0.4,0.4,1.4,0.2,2.1,0.1c-0.8,0.5-1.5,0.4-2.3,0.4c-0.1,0-0.2,0.1-0.3,0.1c-0.5,0.1-1,0.3-1.4,0.5c-0.5,0.2-2.1,0.6-2.2,0.6
			c3.9-1.4,3.3-1.6,3.6-1.8c-0.6-0.2-0.9-0.9-1.3-1.2c0,0,0-0.1,0.1-0.1c0-0.1-0.1,0-0.2,0c0-0.1,0-0.1,0.1-0.1c0-0.1-0.2,0-0.3-0.1
			c0-0.1,0.1-0.1,0.2-0.1c-0.1-0.1-0.3-0.1-0.4-0.2c0.1-0.1,0.2-0.1,0.4-0.1c-0.1-0.1-0.5-0.1-0.5-0.3c0.2,0,0.4,0,0.5,0
			c-0.2-0.2-0.7-0.2-0.7-0.5c0.3,0,0.5,0.2,0.8,0.2c-0.3-0.2-0.7-0.4-0.9-0.8c0.3,0.2,0.7,0.3,1,0.5c-0.1-0.3-0.8-0.5-0.9-0.9
			c0.4,0,0.7,0.5,1.2,0.6c-0.3,0-0.6-0.3-0.8-0.4c0.1,0.3,0.6,0.5,0.9,0.7c-0.2,0.1-0.6-0.1-0.7-0.2c0,0.2,0.4,0.4,0.7,0.5
			C77.6,183.5,77.4,183.4,77.2,183.3"/>
		<path class="st4" d="M80.6,176.4c-4.3,0-7.9,3.5-7.9,7.9c0,4.3,3.5,7.9,7.9,7.9c4.3,0,7.9-3.5,7.9-7.9
			C88.5,179.9,85,176.4,80.6,176.4 M80.6,176.6c4.2,0,7.6,3.4,7.6,7.6c0,4.2-3.4,7.6-7.6,7.6c-4.2,0-7.6-3.4-7.6-7.6
			C73.1,180,76.5,176.6,80.6,176.6"/>
	</g>
	<g>
		<g>
			<g>
				<path class="st5" d="M97,197.5c0.9,1.6,2.6,0.3,2.8-1.1c0.2-2-1.1-4.1-2.1-5.8c-0.1-0.2-0.4,0.1-0.5,0.1c-1,0.9-2.1,2.5-1.4,3.6
					c0.2,0.3,0.9-0.7,0.7-1.1c-0.4-0.6,0.4-1.4,0.9-1.8c-0.2,0-0.3,0.1-0.5,0.1c0.4,0.7,0.9,1.4,1.2,2.1c0.2,0.4,0.4,0.8,0.5,1.3
					c0.1,0.3,0.2,0.6,0.3,0.8c-0.3,1.4-0.7,1.6-1.3,0.8C97.5,196.1,96.9,197.2,97,197.5L97,197.5z"/>
				<path class="st5" d="M102.3,195.4c-0.3,0.9-0.8-0.7-0.9-0.9c-0.1-0.3-0.3-0.6-0.5-0.9c-0.6-0.5-1.2-0.2-1.8,0.2
					c0.1,0,0.3,0,0.4,0c-0.3-0.9-0.9-3.1,1-2.3c0.4,0.2,1-0.9,0.6-1c-1.1-0.5-1.8-0.1-2.5,0.9c-0.7,1-0.3,2.3,0.1,3.3
					c0.1,0.2,0.2,0.2,0.4,0c1.5-1.2,1.6,1.3,2.4,1.9c0.7,0.5,1.3-1,1.4-1.3C103.2,194.7,102.5,194.9,102.3,195.4L102.3,195.4z"/>
			</g>
			<path class="st5" d="M106.1,195c0.3,1,1.4,0.6,1.9-0.1c0.4-0.6,0.3-1.1,0.3-1.7c0-0.9,0-1.8,0.3-2.7c-0.3,0.2-0.7,0.4-1,0.5
				c0.2,1.2,0.3,3.3,1.3,4.2c0.8,0.7,1.8-0.9,2-1.3c0.3-0.7-0.6-0.3-0.8,0.1c-0.3,0.9-0.8-0.4-0.9-0.7c-0.3-0.9-0.5-2-0.6-3
				c-0.1-0.6-0.9,0.3-1,0.5c-0.2,0.6-0.3,1.2-0.3,1.8c0,0.4,0,0.7,0,1.1c0,0.2,0,0.4,0,0.6c0,0.5-0.4,0.2-0.4,0
				C106.8,193.8,106,194.6,106.1,195L106.1,195z"/>
			<path class="st5" d="M113.8,190.3c0.1,1.4,0.2,2.8,0.2,4.3c0,0.5,0.8-0.2,0.9-0.5c0.1-0.8,0.3-1.3,0.9-1.8c0.6-0.6,1-1.4,1.3-2.2
				c0.2-0.6-0.8-0.1-1,0.2c-0.4,1.1-0.5,2.4-0.4,3.5c0,0.3,0,0.8,0.3,1c0.4,0.3,1.1-0.2,1.4-0.4c0.6-0.4,0.2-0.9-0.4-0.4
				c-0.4,0.3-0.4-1.4-0.4-1.5c0-0.8,0.1-1.6,0.4-2.3c-0.3,0.1-0.6,0.1-1,0.2c-0.3,0.9-0.6,1.4-1.2,2c-0.6,0.6-0.8,1.4-0.9,2.3
				c0.3-0.2,0.6-0.3,0.9-0.5c0.1-1.4,0-2.8-0.1-4.3C114.7,189.3,113.8,189.9,113.8,190.3L113.8,190.3z"/>
			<g>
				<path class="st5" d="M120.7,194.4c-0.1,1,0.9,1.4,1.8,0.9c0.8-0.5,1.2-1.4,1.4-2.3c0.1-0.7,0.3-1.8-0.4-2.3
					c-0.3-0.2-0.9-0.1-1.3,0.1c-0.7,0.3-1,0.9-1.1,1.5c-0.1,0.5,1,0,1.1-0.3c0.1-0.7,0.4-0.7,0.6-0.1c0.1,0.4,0.1,0.8,0.1,1.2
					c0,0.4-0.2,0.9-0.3,1.3c-0.1,0.1-0.2,0.3-0.3,0.4c0.1-0.1,0-0.1-0.1-0.1c-0.3-0.1-0.3-0.4-0.3-0.7
					C121.8,193.6,120.7,194.1,120.7,194.4L120.7,194.4z"/>
				<path class="st5" d="M121.1,190.3c0,2.6-0.5,5.3-1.2,7.9c-0.1,0.5,0.9,0,1-0.3c0.7-2.6,1.3-5.3,1.4-8
					C122.3,189.4,121.1,189.9,121.1,190.3L121.1,190.3z"/>
			</g>
			<g>
				<path class="st5" d="M130.5,193.4c-0.5,0.9-1,1.9-1.3,2.9c-0.1,0.4-0.2,1,0.1,1.4c0.4,0.5,1.3,0.3,1.8,0.1
					c0.8-0.3,0-0.7-0.6-0.4c-0.3,0.1-0.3-0.8-0.3-0.9c0.1-0.5,0.2-0.9,0.4-1.4c0.3-0.6,0.6-1.2,0.9-1.7
					C131.9,193,130.6,193.1,130.5,193.4L130.5,193.4z"/>
				<path class="st5" d="M127.1,196.3c0,0.8,0.9,1,1.5,0.8c1-0.3,1.6-1.1,2-2c0.2-0.4-1-0.2-1.1,0.1c-0.1,0.2,0,0,0.1,0
					c-0.1,0-0.1-0.1-0.2-0.1c-0.2-0.1-0.2-0.4-0.3-0.6c0-0.4,0.2-0.7,0.4-1c0.4-0.5,0.6,0.2,0.5,0.5c-0.2,0.5,1,0.3,1.2-0.1
					c0.3-0.8-0.2-1.3-1.1-1.3c-1,0-1.8,1-2,1.8c-0.4,1.7,1.8,1.8,2.5,0.7c-0.4,0-0.8,0-1.1,0.1c-0.2,0.4-0.4,0.8-0.8,1.1
					c-0.3,0.3-0.6,0-0.6-0.3C128.2,195.6,127.1,195.9,127.1,196.3L127.1,196.3z"/>
			</g>
			<path class="st5" d="M113.7,193.9c-0.5,0.5-0.7-1.4-0.8-1.5c-0.1-0.8-0.1-1.6-0.1-2.4c0-0.5-1,0.2-1,0.5c0,0.7,0,1.4,0,2.1
				c0,0.4,0,0.7-0.1,1.1c-0.1,0.4,0,0.5-0.4,0.3c-0.9-0.6-0.6-2.8-0.4-3.7c0.1-0.6-0.9,0-1,0.4c-0.2,0.8-0.5,4.7,1.2,4.3
				c2-0.4,1.5-3.7,1.6-5.1c-0.3,0.2-0.7,0.4-1,0.5c0,1.2,0,2.6,0.4,3.8c0.4,1,1.2,0.6,1.8,0C114.6,193.8,114.2,193.4,113.7,193.9
				L113.7,193.9z"/>
			<path class="st5" d="M127.2,195.9c-0.6,0.3-0.2-1.6-0.2-1.7c0.2-0.8,0.5-1.5,0.8-2.3c0.2-0.5-1-0.1-1.1,0.2
				c-0.2,0.6-0.4,1.3-0.7,2c-0.1,0.3-0.3,0.7-0.5,1c-0.2,0.4-0.2,0.5-0.5,0.2c-0.7-0.8,0.4-2.9,0.8-3.6c0.3-0.6-0.8-0.3-1,0
				c-0.4,0.7-2,4.2-0.3,4.5c2,0.3,2.7-3,3.2-4.2c-0.4,0.1-0.7,0.1-1.1,0.2c-0.4,1.2-0.9,2.4-0.9,3.7c0,1.1,0.9,1,1.7,0.6
				C128.1,196.1,127.8,195.6,127.2,195.9L127.2,195.9z"/>
			<path class="st5" d="M120.3,191c0.1-1.4-1.9-0.9-2.5-0.2c-0.8,0.8-0.9,2.1-0.8,3.2c0.1,1,0.9,1.4,1.8,0.8
				C120,193.9,120,192.2,120.3,191c-0.4,0.1-0.8,0.2-1.1,0.3c-0.1,0.8-1.1,4.8,1.2,3.8c0.5-0.2,0.7-1-0.1-0.6
				c-0.2,0.1-0.2-1.1-0.2-1.2C120,192.5,120.2,191.7,120.3,191c0.1-0.5-1.1,0-1.1,0.3c-0.1,0.7-0.2,1.4-0.4,2.2
				c-0.1,0.2-0.2,0.7-0.3,0.7c-0.2,0-0.3-0.3-0.3-0.4c-0.2-0.5-0.1-1.1,0-1.6c0.1-0.3,0.1-0.6,0.3-0.9c0.1-0.1,0.1-0.3,0.3-0.4
				c0.2-0.3,0.6,0.3,0.6,0.4C119.1,191.8,120.3,191.3,120.3,191L120.3,191z"/>
			<g>
				<path class="st5" d="M102,192c0.3,0.8,0.6,4.6,2,4.1c1.8-0.7,1-4,0.9-5.3c-0.1-0.5-0.9,0.3-0.9,0.7c0.1,0.9,0.2,1.8,0.3,2.7
					c0,0.3,0.1,1-0.3,0.9c-0.5-0.2-0.7-1.4-0.8-1.8c-0.2-0.7-0.2-1.4-0.4-2C102.7,190.8,101.9,191.7,102,192L102,192z"/>
				<path class="st5" d="M104,191.5c0.4,1.8,0.9,3.5,1.3,5.3c0.1,0.4,0.6,2.1-0.1,2c-1.1-0.1,0.1-3.1,0.3-3.4c0.4-0.7-0.4-0.5-0.6,0
					c-0.6,1.2-1.1,2.7-0.5,4.1c0.3,0.6,0.9,0.5,1.3,0.1c0.7-0.8,0.7-1.8,0.6-2.9c-0.3-2-0.9-3.9-1.3-5.9
					C104.8,190.3,104,191.2,104,191.5L104,191.5z"/>
			</g>
			<path class="st5" d="M122.5,191.3c0.8,0.8,1.9,1.1,2.9,0.6c0.1-0.1,0.4-0.3,0.3-0.4c-0.1-0.2-0.4,0-0.6,0
				c-0.6,0.3-1.4-0.3-1.8-0.7C123.2,190.6,122.3,191.1,122.5,191.3L122.5,191.3z"/>
		</g>
	</g>
	<g>
		<path class="st3" d="M128.5,212.9v-8.7c-13.6-3.8-25.2-1.1-29.2,0v9C103.2,212,114.8,209.3,128.5,212.9z"/>
		<path class="st3" d="M100.7,213.6c2.2,0.6,6.8,1.7,12.9,1.7c6.2,0,11.1-1.2,13.4-2C115.2,210.6,105.2,212.5,100.7,213.6z"/>
	</g>
	<path class="st5" d="M57.4,102.9h-2.2c-2,0-3.6-1.6-3.6-3.6V71.3c0-2,1.6-3.6,3.6-3.6h2.2c2,0,3.6,1.6,3.6,3.6v28.1
		C60.9,101.3,59.3,102.9,57.4,102.9z"/>
	<circle class="st5" cx="56.3" cy="57.4" r="5"/>
	<path class="st6" d="M73.5,68.6c0,0,10.6-13.6,17.8-1.6s8,30.2,3.3,30.2S65.8,88,73.5,68.6z"/>
	<path class="st6" d="M135.8,76c13.6-4,32,4.7,26.2,10.6c-5.8,5.8-13.8,22.6-27.7,21.8s-26.6-4.7-17.8-13.5S126,78.9,135.8,76z"/>
	<path class="st6" d="M87,116.8c-4.1,5.6-9.8,17.5,1.8,22.9c11.6,5.5,31.3,12.4,36,6.5c4.7-5.8,4-5.1-1.8-15.3
		c-5.8-10.2-12.4-15.3-18.2-18.2S89.5,113.4,87,116.8z"/>
	<path class="st7" d="M133.2,70.3c13.6-4,32,4.7,26.2,10.6c-5.8,5.8-13.8,22.6-27.7,21.8c-13.8-0.7-26.6-4.7-17.8-13.5
		S123.3,73.2,133.2,70.3z"/>
	<path class="st7" d="M87,110.7c-4.1,5.6-9.8,17.5,1.8,22.9c11.6,5.5,31.3,12.4,36,6.5c4.7-5.8,4-5.1-1.8-15.3
		c-5.8-10.2-12.4-15.3-18.2-18.2C99,103.8,89.5,107.3,87,110.7z"/>
	<path class="st7" d="M75.7,64c0,0,10.6-13.6,17.8-1.6s8,30.2,3.3,30.2S68,83.4,75.7,64z"/>
</g>
</svg>
