<?xml version="1.0" encoding="utf-8"?>
<!-- Generator: Adobe Illustrator 19.0.0, SVG Export Plug-In . SVG Version: 6.00 Build 0)  -->
<svg version="1.1" xmlns="http://www.w3.org/2000/svg" xmlns:xlink="http://www.w3.org/1999/xlink" x="0px" y="0px"
	 viewBox="0 0 280.2 237" style="enable-background:new 0 0 280.2 237;" xml:space="preserve">
<style type="text/css">
	.st0{fill:#519E38;}
	.st1{fill:#E2E2E2;}
	.st2{fill:#FFFFFF;}
	.st3{fill:#F4F4F4;}
</style>
<g id="Layer_2">
</g>
<g id="kolba_4">
</g>
<g id="kolba_3">
</g>
<g id="kolby">
	<path class="st0" d="M135.5,54c0-9.7-22.1-15.5-43.5-15.5S48.6,44.3,48.6,54c0,2,1,3.9,2.8,5.6l13.2,49.6h0.2
		c1.6,4.6,13.2,8.2,27.3,8.2c14.1,0,25.7-3.6,27.3-8.2h0.2l13.2-49.6C134.5,57.9,135.5,56.1,135.5,54z"/>
	<path class="st1" d="M130.5,51.3H46.1l14.7,55.2H61c1.6,4.6,13.2,8.2,27.3,8.2s25.7-3.6,27.3-8.2h0.2L130.5,51.3z"/>
	<ellipse class="st2" cx="88.3" cy="51.3" rx="42.2" ry="14.2"/>
	<path class="st2" d="M88.3,66.7c-21.4,0-43.5-5.8-43.5-15.5s22.1-15.5,43.5-15.5s43.5,5.8,43.5,15.5S109.6,66.7,88.3,66.7z
		 M88.3,38.4c-24.5,0-40.9,6.7-40.9,12.9s16.4,12.9,40.9,12.9c24.5,0,40.9-6.7,40.9-12.9S112.8,38.4,88.3,38.4z"/>
	<path class="st1" d="M88.3,43.4c18.3,0,33.5,4.3,37.2,10.1c0.6-0.9,0.9-1.8,0.9-2.7c0-7.1-17.1-12.8-38.1-12.8
		c-21.1,0-38.1,5.7-38.1,12.8c0,0.9,0.3,1.8,0.9,2.7C54.8,47.7,70,43.4,88.3,43.4z"/>
	<path class="st3" d="M63.7,87.5L63.7,87.5c-1.6,0.3-3.1-0.8-3.4-2.4l-2.4-13.2c-0.3-1.6,0.8-3.1,2.4-3.4l0,0
		c1.6-0.3,3.1,0.8,3.4,2.4l2.4,13.2C66.4,85.7,65.3,87.2,63.7,87.5z"/>
	<path class="st0" d="M242.5,54c0-9.7-22.1-15.5-43.5-15.5s-43.5,5.8-43.5,15.5c0,2,1,3.9,2.8,5.6l13.2,49.6h0.2
		c1.6,4.6,13.2,8.2,27.3,8.2c14.1,0,25.7-3.6,27.3-8.2h0.2l13.2-49.6C241.5,57.9,242.5,56.1,242.5,54z"/>
	<path class="st1" d="M237.4,51.3H153l14.7,55.2h0.2c1.6,4.6,13.2,8.2,27.3,8.2s25.7-3.6,27.3-8.2h0.2L237.4,51.3z"/>
	<ellipse class="st2" cx="195.2" cy="51.3" rx="42.2" ry="14.2"/>
	<path class="st2" d="M195.2,66.7c-21.4,0-43.5-5.8-43.5-15.5s22.1-15.5,43.5-15.5s43.5,5.8,43.5,15.5S216.6,66.7,195.2,66.7z
		 M195.2,38.4c-24.5,0-40.9,6.7-40.9,12.9s16.4,12.9,40.9,12.9c24.5,0,40.9-6.7,40.9-12.9S219.7,38.4,195.2,38.4z"/>
	<path class="st1" d="M195.2,43.4c18.3,0,33.5,4.3,37.2,10.1c0.6-0.9,0.9-1.8,0.9-2.7c0-7.1-17.1-12.8-38.1-12.8
		c-21.1,0-38.1,5.7-38.1,12.8c0,0.9,0.3,1.8,0.9,2.7C161.7,47.7,177,43.4,195.2,43.4z"/>
	<path class="st3" d="M170.7,87.5L170.7,87.5c-1.6,0.3-3.1-0.8-3.4-2.4l-2.4-13.2c-0.3-1.6,0.8-3.1,2.4-3.4v0
		c1.6-0.3,3.1,0.8,3.4,2.4l2.4,13.2C173.3,85.7,172.3,87.2,170.7,87.5z"/>
	<path class="st0" d="M135.5,147.3c0-9.7-22.1-15.5-43.5-15.5s-43.5,5.8-43.5,15.5c0,2,1,3.9,2.8,5.6l13.2,49.6h0.2
		c1.6,4.6,13.2,8.2,27.3,8.2c14.1,0,25.7-3.6,27.3-8.2h0.2l13.2-49.6C134.5,151.2,135.5,149.4,135.5,147.3z"/>
	<path class="st1" d="M130.5,144.6H46.1l14.7,55.2H61c1.6,4.6,13.2,8.2,27.3,8.2s25.7-3.6,27.3-8.2h0.2L130.5,144.6z"/>
	<ellipse class="st2" cx="88.3" cy="144.6" rx="42.2" ry="14.2"/>
	<path class="st2" d="M88.3,160c-21.4,0-43.5-5.8-43.5-15.5c0-9.7,22.1-15.5,43.5-15.5s43.5,5.8,43.5,15.5
		C131.7,154.2,109.6,160,88.3,160z M88.3,131.7c-24.5,0-40.9,6.7-40.9,12.9s16.4,12.9,40.9,12.9c24.5,0,40.9-6.7,40.9-12.9
		S112.8,131.7,88.3,131.7z"/>
	<path class="st1" d="M88.3,136.7c18.3,0,33.5,4.3,37.2,10.1c0.6-0.9,0.9-1.8,0.9-2.7c0-7.1-17.1-12.8-38.1-12.8
		c-21.1,0-38.1,5.7-38.1,12.8c0,0.9,0.3,1.8,0.9,2.7C54.8,141,70,136.7,88.3,136.7z"/>
	<path class="st3" d="M63.7,180.8L63.7,180.8c-1.6,0.3-3.1-0.8-3.4-2.4l-2.4-13.2c-0.3-1.6,0.8-3.1,2.4-3.4l0,0
		c1.6-0.3,3.1,0.8,3.4,2.4l2.4,13.2C66.4,179,65.3,180.5,63.7,180.8z"/>
	<path class="st0" d="M242.5,147.3c0-9.7-22.1-15.5-43.5-15.5s-43.5,5.8-43.5,15.5c0,2,1,3.9,2.8,5.6l13.2,49.6h0.2
		c1.6,4.6,13.2,8.2,27.3,8.2c14.1,0,25.7-3.6,27.3-8.2h0.2l13.2-49.6C241.5,151.2,242.5,149.4,242.5,147.3z"/>
	<path class="st1" d="M237.4,144.6H153l14.7,55.2h0.2c1.6,4.6,13.2,8.2,27.3,8.2s25.7-3.6,27.3-8.2h0.2L237.4,144.6z"/>
	<ellipse class="st2" cx="195.2" cy="144.6" rx="42.2" ry="14.2"/>
	<path class="st2" d="M195.2,160c-21.4,0-43.5-5.8-43.5-15.5c0-9.7,22.1-15.5,43.5-15.5s43.5,5.8,43.5,15.5
		C238.7,154.2,216.6,160,195.2,160z M195.2,131.7c-24.5,0-40.9,6.7-40.9,12.9s16.4,12.9,40.9,12.9c24.5,0,40.9-6.7,40.9-12.9
		S219.7,131.7,195.2,131.7z"/>
	<path class="st1" d="M195.2,136.7c18.3,0,33.5,4.3,37.2,10.1c0.6-0.9,0.9-1.8,0.9-2.7c0-7.1-17.1-12.8-38.1-12.8
		c-21.1,0-38.1,5.7-38.1,12.8c0,0.9,0.3,1.8,0.9,2.7C161.7,141,177,136.7,195.2,136.7z"/>
	<path class="st3" d="M170.7,180.8L170.7,180.8c-1.6,0.3-3.1-0.8-3.4-2.4l-2.4-13.2c-0.3-1.6,0.8-3.1,2.4-3.4l0,0
		c1.6-0.3,3.1,0.8,3.4,2.4l2.4,13.2C173.3,179,172.3,180.5,170.7,180.8z"/>
</g>
<g id="doma">
</g>
<g id="butylka_3">
</g>
<g id="butylka_2">
</g>
<g id="butylka_1">
</g>
<g id="vanna_2">
</g>
<g id="shariki_2">
</g>
<g id="shariki_1">
</g>
<g id="voronka">
</g>
<g id="gradusnik">
</g>
<g id="kolba_2">
</g>
<g id="kolba_1">
</g>
<g id="probirki">
</g>
<g id="lupa">
</g>
<g id="zavod">
</g>
<g id="blank">
</g>
<g id="ticks">
</g>
<g id="car">
</g>
<g id="sneg">
</g>
</svg>
