<?xml version="1.0" encoding="utf-8"?>
<!-- Generator: Adobe Illustrator 19.0.0, SVG Export Plug-In . SVG Version: 6.00 Build 0)  -->
<svg version="1.1" xmlns="http://www.w3.org/2000/svg" xmlns:xlink="http://www.w3.org/1999/xlink" x="0px" y="0px"
	 viewBox="0 0 285 213" style="enable-background:new 0 0 285 213;" xml:space="preserve">
<style type="text/css">
	.st0{fill:#519E38;}
	.st1{fill:none;stroke:#FFFFFF;stroke-width:4;stroke-miterlimit:10;}
	.st2{fill:#FFFFFF;}
	.st3{fill:#EFEFEF;}
	.st4{fill:#EDEDED;}
	.st5{fill:#CA0000;}
	.st6{fill:#B00000;}
	.st7{opacity:0.6;fill:none;stroke:#FFFFFF;stroke-width:2;stroke-linecap:round;}
</style>
<g id="Layer_2">
</g>
<g id="kolba_4">
</g>
<g id="kolba_3">
</g>
<g id="doma">
</g>
<g id="butylka_3">
</g>
<g id="butylka_2">
</g>
<g id="butylka_1">
</g>
<g id="vanna_2">
</g>
<g id="vanna_1">
	<rect x="50.3" y="60.7" class="st0" width="5.3" height="105.1"/>
	<path class="st0" d="M233.4,60.7l-0.1,104.8c0,0,1.3,11.2-7.7,11.2H58.3c0,0-5-0.3-5-5.8c0-5.5,166.2-2.7,166.2-2.7l7-18.8
		l1.4-70.8l0.3-18.1H233.4z"/>
	<path class="st0" d="M237.3,58c0,2.2-1.8,4-4,4h-183c-2.2,0-4-1.8-4-4l0,0c0-2.2,1.8-4,4-4h183C235.5,54,237.3,55.8,237.3,58
		L237.3,58z"/>
	<path class="st1" d="M228.3,167.3c0,2-1.6,3.7-3.7,3.7H54c-2,0-3.7-1.6-3.7-3.7V60.7c0-2,1.6-3.7,3.7-3.7h170.6
		c2,0,3.7,1.6,3.7,3.7V167.3z"/>
	<rect x="50.3" y="106.8" class="st2" width="177.7" height="64.1"/>
	<path class="st3" d="M234.3,55c0,2.2-1.8,4-4,4h-183c-2.2,0-4-1.8-4-4l0,0c0-2.2,1.8-4,4-4h183C232.5,51,234.3,52.8,234.3,55
		L234.3,55z"/>
	<path class="st2" d="M67.1,92.9c0,1.7-1.4,3.1-3.1,3.1l0,0c-1.7,0-3.1-1.4-3.1-3.1V70.1c0-1.7,1.4-3.1,3.1-3.1l0,0
		c1.7,0,3.1,1.4,3.1,3.1V92.9z"/>
</g>
<g id="shariki_2">
</g>
<g id="shariki_1">
</g>
<g id="voronka">
</g>
<g id="gradusnik">
</g>
<g id="kolba_2">
</g>
<g id="kolba_1">
</g>
<g id="probirki">
</g>
<g id="lupa">
</g>
<g id="zavod">
</g>
<g id="blank">
</g>
<g id="ticks">
</g>
<g id="car">
</g>
<g id="sneg">
	<g>
		<path class="st0" d="M256.8,83.5c0-7,0-52.7,0-54.7c0-0.5-0.1-0.9-0.2-1.4c0,0,0,0,0,0s-0.8-5.5-6.2-6.1c0,0-3.8-0.1-6,1.1
			c-2.2,1.2,6.9,5.4,6.9,5.4s1.7,0.9,2.5,1.3c0,4.5,0,54.7,0,55.2v0.9l0.8,0.4c0.1,0,6.9,3.9,6.4,11.5c-0.4,5.9-3.8,10.3-8.9,12
			l-6.3-1.8c0,0-7.5-0.2-4.8,2.8c1.7,1.9,4.6,2.5,6.5,2.6c0.2,0.1,0.4,0.1,0.6,0.1c0,0,0,0,0,0c0.3,0,0.6,0,0.9-0.1
			c0.2,0,0.3,0,0.3,0l0,0c8.1-0.7,14.1-6.9,14.6-15.3C264.5,89.4,258.9,84.9,256.8,83.5z"/>
		<path class="st2" d="M253.8,84.2V29.2c0-4-3.2-7.2-7.2-7.2c-4,0-7.2,3.2-7.2,7.2v54.8c-4.4,2.5-7.3,7.2-7.3,12.6
			c0,8,6.5,14.4,14.4,14.4c8,0,14.4-6.5,14.4-14.4C260.9,91.3,258.1,86.7,253.8,84.2z"/>
		<path class="st4" d="M253.8,84.2V29.2c0-4-3.2-7.2-7.2-7.2c0,0,0,0-0.1,0v89c8,0,14.4-6.5,14.4-14.4
			C260.9,91.3,258.1,86.7,253.8,84.2z"/>
		<path class="st5" d="M251.1,86.4V42h-9.5v44.6h0c-3.9,1.9-6.6,5.8-6.6,10.4c0,6.4,5.2,11.5,11.5,11.5c6.4,0,11.5-5.2,11.5-11.5
			C258,92.2,255.2,88.1,251.1,86.4z"/>
		<path class="st6" d="M251.1,86.4V42h-4.6v66.5c6.4,0,11.5-5.2,11.5-11.5C258,92.2,255.2,88.1,251.1,86.4z"/>
		<path class="st7" d="M239.6,99.3c0,0,1.2,2.8,4,4"/>
		<path class="st2" d="M248,49.1h-2.9c-0.1,0-0.2-0.1-0.2-0.2s0.1-0.2,0.2-0.2h2.9c0.1,0,0.2,0.1,0.2,0.2S248.1,49.1,248,49.1z"/>
		<path class="st2" d="M248,50.8h-2.9c-0.1,0-0.2-0.1-0.2-0.2s0.1-0.2,0.2-0.2h2.9c0.1,0,0.2,0.1,0.2,0.2S248.1,50.8,248,50.8z"/>
		<path class="st2" d="M249.8,52.4h-6.5c-0.1,0-0.2-0.1-0.2-0.2s0.1-0.2,0.2-0.2h6.5c0.1,0,0.2,0.1,0.2,0.2S249.9,52.4,249.8,52.4z"
			/>
		<path class="st2" d="M248,54.1h-2.9c-0.1,0-0.2-0.1-0.2-0.2c0-0.1,0.1-0.2,0.2-0.2h2.9c0.1,0,0.2,0.1,0.2,0.2
			C248.2,54,248.1,54.1,248,54.1z"/>
		<path class="st2" d="M248,55.7h-2.9c-0.1,0-0.2-0.1-0.2-0.2c0-0.1,0.1-0.2,0.2-0.2h2.9c0.1,0,0.2,0.1,0.2,0.2
			C248.2,55.6,248.1,55.7,248,55.7z"/>
		<path class="st2" d="M249.8,57.4h-6.5c-0.1,0-0.2-0.1-0.2-0.2c0-0.1,0.1-0.2,0.2-0.2h6.5c0.1,0,0.2,0.1,0.2,0.2
			C250,57.3,249.9,57.4,249.8,57.4z"/>
		<path class="st2" d="M248,59h-2.9c-0.1,0-0.2-0.1-0.2-0.2c0-0.1,0.1-0.2,0.2-0.2h2.9c0.1,0,0.2,0.1,0.2,0.2
			C248.2,58.9,248.1,59,248,59z"/>
		<path class="st2" d="M248,60.7h-2.9c-0.1,0-0.2-0.1-0.2-0.2c0-0.1,0.1-0.2,0.2-0.2h2.9c0.1,0,0.2,0.1,0.2,0.2
			C248.2,60.6,248.1,60.7,248,60.7z"/>
		<path class="st2" d="M249.8,62.3h-6.5c-0.1,0-0.2-0.1-0.2-0.2s0.1-0.2,0.2-0.2h6.5c0.1,0,0.2,0.1,0.2,0.2S249.9,62.3,249.8,62.3z"
			/>
		<path class="st2" d="M248,64h-2.9c-0.1,0-0.2-0.1-0.2-0.2s0.1-0.2,0.2-0.2h2.9c0.1,0,0.2,0.1,0.2,0.2S248.1,64,248,64z"/>
		<path class="st2" d="M248,65.6h-2.9c-0.1,0-0.2-0.1-0.2-0.2s0.1-0.2,0.2-0.2h2.9c0.1,0,0.2,0.1,0.2,0.2S248.1,65.6,248,65.6z"/>
		<path class="st2" d="M249.8,67.3h-6.5c-0.1,0-0.2-0.1-0.2-0.2s0.1-0.2,0.2-0.2h6.5c0.1,0,0.2,0.1,0.2,0.2S249.9,67.3,249.8,67.3z"
			/>
	</g>
</g>
</svg>
