<?xml version="1.0" encoding="utf-8"?>
<!-- Generator: Adobe Illustrator 19.0.0, SVG Export Plug-In . SVG Version: 6.00 Build 0)  -->
<svg version="1.1" xmlns="http://www.w3.org/2000/svg" xmlns:xlink="http://www.w3.org/1999/xlink" x="0px" y="0px"
	 viewBox="77 -1 283 252" style="enable-background:new 77 -1 283 252;" xml:space="preserve">
<style type="text/css">
	.st0{fill:#FFFFFF;}
	.st1{fill:#519E38;}
	.st2{fill:none;stroke:#FFFFFF;stroke-width:4;stroke-miterlimit:10;}
	.st3{fill:#EFEFEF;}
</style>
<g id="Layer_1">
	<g id="Layer_2">
	</g>
	<g id="kolba_4">
	</g>
	<g id="doma">
	</g>
	<g id="butylka_3">
	</g>
	<g id="butylka_2">
	</g>
	<g id="butylka_1">
	</g>
	<g id="vanna_2">
	</g>
	<g id="sneg">
	</g>
	<circle class="st0" cx="228.2" cy="48.4" r="1.7"/>
	<circle class="st0" cx="233.3" cy="41.9" r="1.7"/>
	<circle class="st0" cx="216" cy="32.2" r="1.7"/>
	<circle class="st0" cx="210.7" cy="40.2" r="1.7"/>
	<circle class="st0" cx="217" cy="45.1" r="1.7"/>
	<circle class="st0" cx="218.8" cy="60.7" r="1.7"/>
	<circle class="st0" cx="228.2" cy="64.1" r="1.7"/>
	<circle class="st0" cx="224.9" cy="36.9" r="1.7"/>
	<circle class="st0" cx="220" cy="38.6" r="1.7"/>
	<circle class="st0" cx="228.2" cy="30.5" r="1.7"/>
	<circle class="st0" cx="222.1" cy="46.7" r="1.7"/>
	<circle class="st0" cx="222.1" cy="53.4" r="1.7"/>
	<circle class="st0" cx="215.4" cy="53.4" r="1.7"/>
	<circle class="st0" cx="224.9" cy="74.4" r="1.7"/>
	<rect x="131.1" y="96.9" class="st1" width="5.3" height="105.1"/>
	<path class="st1" d="M314.2,96.9l-0.1,104.8c0,0,1.3,11.2-7.7,11.2H139.1c0,0-5-0.3-5-5.8s166.2-2.7,166.2-2.7l7-18.8l1.4-70.8
		l0.3-18.1h5.2V96.9z"/>
	<path class="st1" d="M318.1,94.3c0,2.2-1.8,4-4,4h-183c-2.2,0-4-1.8-4-4l0,0c0-2.2,1.8-4,4-4h183C316.3,90.3,318.1,92.1,318.1,94.3
		L318.1,94.3z"/>
	<path class="st2" d="M309.1,203.6c0,2-1.6,3.7-3.7,3.7H134.8c-2,0-3.7-1.6-3.7-3.7V96.9c0-2,1.6-3.7,3.7-3.7h170.6
		c2,0,3.7,1.6,3.7,3.7V203.6z"/>
	<rect x="131.1" y="143.1" class="st0" width="177.7" height="64.1"/>
	<path class="st3" d="M315.1,91.3c0,2.2-1.8,4-4,4h-183c-2.2,0-4-1.8-4-4l0,0c0-2.2,1.8-4,4-4h183C313.3,87.3,315.1,89.1,315.1,91.3
		L315.1,91.3z"/>
	<path class="st0" d="M147.9,129.2c0,1.7-1.4,3.1-3.1,3.1l0,0c-1.7,0-3.1-1.4-3.1-3.1v-22.8c0-1.7,1.4-3.1,3.1-3.1l0,0
		c1.7,0,3.1,1.4,3.1,3.1V129.2z"/>
	<g id="shariki_2">
	</g>
	<g id="shariki_1">
	</g>
	<g id="voronka">
	</g>
	<g id="gradusnik">
	</g>
	<g id="kolba_2">
	</g>
	<g id="kolba_1">
	</g>
	<g id="probirki">
	</g>
	<g id="lupa">
	</g>
	<g id="zavod">
	</g>
</g>
<g id="lemon_acid">
</g>
</svg>
