<?xml version="1.0" encoding="utf-8"?>
<!-- Generator: Adobe Illustrator 19.0.0, SVG Export Plug-In . SVG Version: 6.00 Build 0)  -->
<svg version="1.1" xmlns="http://www.w3.org/2000/svg" xmlns:xlink="http://www.w3.org/1999/xlink" x="0px" y="0px"
	 viewBox="96 12 322.5 228" style="enable-background:new 96 12 322.5 228;" xml:space="preserve">
<style type="text/css">
	.st0{fill:#519E38;}
	.st1{fill:#E2E2E2;}
	.st2{fill:#FFFFFF;}
	.st3{fill:#F4F4F4;}
	.st4{fill:url(#SVGID_1_);}
	.st5{fill:url(#SVGID_2_);}
	.st6{fill:url(#SVGID_3_);}
	.st7{fill:url(#SVGID_4_);}
	.st8{fill:url(#SVGID_5_);}
</style>
<g id="Layer_1">
	<g id="Layer_2">
	</g>
	<g id="kolba_4">
	</g>
	<g id="kolba_3">
	</g>
	<g id="kolby">
		<path class="st0" d="M243.5,55.5c0-9.7-22.1-15.5-43.5-15.5s-43.5,5.8-43.5,15.5c0,2,1,3.9,2.8,5.6l13.2,49.6h0.2
			c1.6,4.6,13.2,8.2,27.3,8.2s25.7-3.6,27.3-8.2h0.2l13.2-49.6C242.5,59.4,243.5,57.6,243.5,55.5z"/>
		<path class="st1" d="M238.5,52.8h-84.4l14.7,55.2h0.2c1.6,4.6,13.2,8.2,27.3,8.2s25.7-3.6,27.3-8.2h0.2L238.5,52.8z"/>
		<ellipse class="st2" cx="196.3" cy="52.8" rx="42.2" ry="14.2"/>
		<path class="st2" d="M196.3,68.2c-21.4,0-43.5-5.8-43.5-15.5s22.1-15.5,43.5-15.5s43.5,5.8,43.5,15.5S217.6,68.2,196.3,68.2z
			 M196.3,39.9c-24.5,0-40.9,6.7-40.9,12.9s16.4,12.9,40.9,12.9s40.9-6.7,40.9-12.9S220.8,39.9,196.3,39.9z"/>
		<path class="st1" d="M196.3,44.9c18.3,0,33.5,4.3,37.2,10.1c0.6-0.9,0.9-1.8,0.9-2.7c0-7.1-17.1-12.8-38.1-12.8
			c-21.1,0-38.1,5.7-38.1,12.8c0,0.9,0.3,1.8,0.9,2.7C162.8,49.2,178,44.9,196.3,44.9z"/>
		<path class="st3" d="M171.7,89L171.7,89c-1.6,0.3-3.1-0.8-3.4-2.4l-2.4-13.2c-0.3-1.6,0.8-3.1,2.4-3.4l0,0
			c1.6-0.3,3.1,0.8,3.4,2.4l2.4,13.2C174.4,87.2,173.3,88.7,171.7,89z"/>
		<path class="st0" d="M350.5,55.5c0-9.7-22.1-15.5-43.5-15.5s-43.5,5.8-43.5,15.5c0,2,1,3.9,2.8,5.6l13.2,49.6h0.2
			c1.6,4.6,13.2,8.2,27.3,8.2s25.7-3.6,27.3-8.2h0.2l13.2-49.6C349.5,59.4,350.5,57.6,350.5,55.5z"/>
		<path class="st1" d="M345.4,52.8H261l14.7,55.2h0.2c1.6,4.6,13.2,8.2,27.3,8.2c14.1,0,25.7-3.6,27.3-8.2h0.2L345.4,52.8z"/>
		<ellipse class="st2" cx="303.2" cy="52.8" rx="42.2" ry="14.2"/>
		<path class="st2" d="M303.2,68.2c-21.4,0-43.5-5.8-43.5-15.5s22.1-15.5,43.5-15.5c21.4,0,43.5,5.8,43.5,15.5
			S324.6,68.2,303.2,68.2z M303.2,39.9c-24.5,0-40.9,6.7-40.9,12.9s16.4,12.9,40.9,12.9s40.9-6.7,40.9-12.9S327.7,39.9,303.2,39.9z"
			/>
		<path class="st1" d="M303.2,44.9c18.3,0,33.5,4.3,37.2,10.1c0.6-0.9,0.9-1.8,0.9-2.7c0-7.1-17.1-12.8-38.1-12.8
			c-21.1,0-38.1,5.7-38.1,12.8c0,0.9,0.3,1.8,0.9,2.7C269.7,49.2,285,44.9,303.2,44.9z"/>
		<path class="st3" d="M278.7,89L278.7,89c-1.6,0.3-3.1-0.8-3.4-2.4l-2.4-13.2c-0.3-1.6,0.8-3.1,2.4-3.4l0,0
			c1.6-0.3,3.1,0.8,3.4,2.4l2.4,13.2C281.3,87.2,280.3,88.7,278.7,89z"/>
		<path class="st0" d="M243.5,148.8c0-9.7-22.1-15.5-43.5-15.5s-43.5,5.8-43.5,15.5c0,2,1,3.9,2.8,5.6l13.2,49.6h0.2
			c1.6,4.6,13.2,8.2,27.3,8.2s25.7-3.6,27.3-8.2h0.2l13.2-49.6C242.5,152.7,243.5,150.9,243.5,148.8z"/>
		<path class="st1" d="M238.5,146.1h-84.4l14.7,55.2h0.2c1.6,4.6,13.2,8.2,27.3,8.2s25.7-3.6,27.3-8.2h0.2L238.5,146.1z"/>
		<ellipse class="st2" cx="196.3" cy="146.1" rx="42.2" ry="14.2"/>
		<path class="st2" d="M196.3,161.5c-21.4,0-43.5-5.8-43.5-15.5s22.1-15.5,43.5-15.5s43.5,5.8,43.5,15.5
			C239.7,155.7,217.6,161.5,196.3,161.5z M196.3,133.2c-24.5,0-40.9,6.7-40.9,12.9s16.4,12.9,40.9,12.9s40.9-6.7,40.9-12.9
			C237.2,139.8,220.8,133.2,196.3,133.2z"/>
		<path class="st1" d="M196.3,138.2c18.3,0,33.5,4.3,37.2,10.1c0.6-0.9,0.9-1.8,0.9-2.7c0-7.1-17.1-12.8-38.1-12.8
			c-21.1,0-38.1,5.7-38.1,12.8c0,0.9,0.3,1.8,0.9,2.7C162.8,142.5,178,138.2,196.3,138.2z"/>
		<path class="st3" d="M171.7,182.3L171.7,182.3c-1.6,0.3-3.1-0.8-3.4-2.4l-2.4-13.2c-0.3-1.6,0.8-3.1,2.4-3.4l0,0
			c1.6-0.3,3.1,0.8,3.4,2.4l2.4,13.2C174.4,180.5,173.3,182,171.7,182.3z"/>
		<path class="st0" d="M350.5,148.8c0-9.7-22.1-15.5-43.5-15.5s-43.5,5.8-43.5,15.5c0,2,1,3.9,2.8,5.6l13.2,49.6h0.2
			c1.6,4.6,13.2,8.2,27.3,8.2s25.7-3.6,27.3-8.2h0.2l13.2-49.6C349.5,152.7,350.5,150.9,350.5,148.8z"/>
		<path class="st1" d="M345.4,146.1H261l14.7,55.2h0.2c1.6,4.6,13.2,8.2,27.3,8.2c14.1,0,25.7-3.6,27.3-8.2h0.2L345.4,146.1z"/>
		<ellipse class="st2" cx="303.2" cy="146.1" rx="42.2" ry="14.2"/>
		<path class="st2" d="M303.2,161.5c-21.4,0-43.5-5.8-43.5-15.5s22.1-15.5,43.5-15.5c21.4,0,43.5,5.8,43.5,15.5
			S324.6,161.5,303.2,161.5z M303.2,133.2c-24.5,0-40.9,6.7-40.9,12.9s16.4,12.9,40.9,12.9s40.9-6.7,40.9-12.9
			C344.2,139.8,327.7,133.2,303.2,133.2z"/>
		<path class="st1" d="M303.2,138.2c18.3,0,33.5,4.3,37.2,10.1c0.6-0.9,0.9-1.8,0.9-2.7c0-7.1-17.1-12.8-38.1-12.8
			c-21.1,0-38.1,5.7-38.1,12.8c0,0.9,0.3,1.8,0.9,2.7C269.7,142.5,285,138.2,303.2,138.2z"/>
		<path class="st3" d="M278.7,182.3L278.7,182.3c-1.6,0.3-3.1-0.8-3.4-2.4l-2.4-13.2c-0.3-1.6,0.8-3.1,2.4-3.4l0,0
			c1.6-0.3,3.1,0.8,3.4,2.4l2.4,13.2C281.3,180.5,280.3,182,278.7,182.3z"/>
	</g>
	<g id="doma">
	</g>
	<g id="butylka_3">
	</g>
	<g id="butylka_2">
	</g>
	<g id="butylka_1">
	</g>
	<g id="vanna_2">
	</g>
	<g id="shariki_2">
	</g>
	<g id="shariki_1">
	</g>
	<g id="voronka">
	</g>
	<g id="gradusnik">
	</g>
	<g id="kolba_2">
	</g>
	<g id="kolba_1">
	</g>
	<g id="probirki">
	</g>
	<g id="lupa">
	</g>
	<g id="zavod">
	</g>
	<g id="blank">
	</g>
	<g id="ticks">
	</g>
	<g id="car">
	</g>
</g>
<g id="snow">
	<g id="sneg">
		<g>
			
				<linearGradient id="SVGID_1_" gradientUnits="userSpaceOnUse" x1="570.2509" y1="215.4327" x2="586.2383" y2="170.1348" gradientTransform="matrix(-1 0 0 -1 751.4653 254)">
				<stop  offset="0" style="stop-color:#404B71"/>
				<stop  offset="0.6044" style="stop-color:#3C476E"/>
				<stop  offset="1" style="stop-color:#354169"/>
			</linearGradient>
			<path class="st4" d="M177.7,79.5l1.7-6.4l-1.6-2.7l-0.2,0.8c-0.2,0.8-1.1,1.3-1.9,1.1c-0.1,0-0.3-0.1-0.4-0.2
				c-0.6-0.3-0.9-1.1-0.7-1.8l1-3.9l-1.9-3.3l-1.9,3.3l1,3.9c0.2,0.8-0.3,1.7-1.1,1.9c-0.4,0.1-0.9,0-1.2-0.2
				c-0.4-0.2-0.6-0.5-0.7-1l-0.2-0.8l-1.6,3l1.7,6.4c0.2,0.8-0.3,1.7-1.1,1.9c-0.4,0.1-0.9,0-1.2-0.2c-0.4-0.2-0.6-0.5-0.7-1l-1-3.3
				l-2.5,4.4c-0.4,0.8-1.4,1-2.2,0.6c-0.8-0.4-1-1.4-0.6-2.2l2.5-4.4l-3.3,0.9c-0.4,0.1-0.9,0-1.2-0.2c-0.4-0.2-0.6-0.5-0.7-1
				c-0.2-0.8,0.3-1.7,1.1-1.9l6.4-1.7l1.6-2.7l-0.8,0.3c-0.4,0.1-0.9,0-1.2-0.2c-0.4-0.2-0.6-0.5-0.7-1c-0.2-0.8,0.3-1.7,1.1-1.9
				l3.8-1l1.9-3.3h-3.8l-2.8,2.8c-0.5,0.5-1.3,0.6-1.9,0.3c-0.1-0.1-0.2-0.2-0.3-0.3c-0.6-0.6-0.6-1.6,0-2.2l0.6-0.6h-3.1l-4.7,4.7
				c-0.5,0.5-1.3,0.6-1.9,0.3c-0.1-0.1-0.2-0.2-0.3-0.3c-0.6-0.6-0.6-1.6,0-2.2l2.4-2.4h-5c-0.3,0-0.6-0.1-0.8-0.2
				c-0.5-0.3-0.8-0.8-0.8-1.4c0-0.9,0.7-1.6,1.6-1.6h5l-2.4-2.4c-0.6-0.6-0.6-1.6,0-2.2c0.6-0.6,1.6-0.6,2.2,0l4.7,4.7h3.1l-0.6-0.6
				c-0.6-0.6-0.6-1.6,0-2.2c0.6-0.6,1.6-0.6,2.2,0l2.8,2.8h3.9l-1.9-3.3l-3.9-1c-0.1,0-0.3-0.1-0.4-0.2c-0.6-0.3-0.9-1.1-0.7-1.8
				c0.2-0.8,1.1-1.3,1.9-1.1l0.8,0.2l-1.6-2.7l-6.4-1.7c-0.1,0-0.3-0.1-0.4-0.2c-0.6-0.4-0.9-1.1-0.7-1.8c0.2-0.8,1.1-1.3,1.9-1.1
				l3.3,0.9l-2.5-4.4c-0.4-0.8-0.2-1.7,0.6-2.2c0.8-0.4,1.7-0.2,2.2,0.6l2.5,4.4l0.9-3.3c0.2-0.8,1.1-1.3,1.9-1.1
				c0.8,0.2,1.4,1.1,1.1,1.9L168,47l1.6,2.7l0.2-0.8c0.2-0.8,1.1-1.3,1.9-1.1s1.3,1.1,1.1,1.9l-1,3.9l1.9,3.3l1.9-3.3l-1-3.9
				c-0.2-0.8,0.3-1.7,1.1-1.9s1.7,0.3,1.9,1.1l0.2,0.8l1.6-2.7l-1.7-6.4c-0.2-0.8,0.3-1.7,1.1-1.9c0.8-0.2,1.7,0.3,1.9,1.1l0.9,3.3
				l2.5-4.4c0.4-0.8,1.4-1,2.2-0.6c0.8,0.4,1,1.4,0.6,2.2l-2.5,4.4l3.3-0.9c0.8-0.2,1.7,0.3,1.9,1.1c0.2,0.8-0.3,1.7-1.1,1.9
				l-6.4,1.7l-1.6,2.7l0.8-0.2c0.8-0.2,1.7,0.3,1.9,1.1c0.2,0.8-0.3,1.7-1.1,1.9l-3.8,1l-1.9,3.3h3.8l2.8-2.8c0.6-0.6,1.6-0.6,2.2,0
				c0.6,0.6,0.6,1.6,0,2.2l-0.6,0.6h3.1l4.7-4.7c0.6-0.6,1.6-0.6,2.2,0c0.6,0.6,0.6,1.6,0,2.2l-2.4,2.4h5c0.9,0,1.6,0.7,1.6,1.6
				c0,0.9-0.7,1.6-1.6,1.6h-5l2.4,2.4c0.6,0.6,0.6,1.6,0,2.2c-0.5,0.5-1.3,0.6-1.9,0.3c-0.1-0.1-0.2-0.2-0.3-0.3l-4.7-4.7h-3.1
				l0.6,0.6c0.6,0.6,0.6,1.6,0,2.2c-0.5,0.5-1.3,0.6-1.9,0.3c-0.1-0.1-0.2-0.2-0.3-0.3l-2.8-2.8h-3.8l1.9,3.3l3.9,1
				c0.8,0.2,1.3,1.1,1.1,1.9c-0.2,0.8-1.1,1.3-1.9,1.1l-0.8-0.2l1.6,2.7l6.4,1.7c0.8,0.2,1.3,1.1,1.1,1.9c-0.2,0.8-1.1,1.3-1.9,1.1
				l-3.3-0.9l2.5,4.4c0.4,0.8,0.2,1.7-0.6,2.2c-0.5,0.3-1.1,0.3-1.6,0c-0.2-0.1-0.4-0.3-0.6-0.6l-2.5-3.9l-0.9,3.3
				c-0.2,0.8-1.1,1.3-1.9,1.1c-0.1,0-0.3-0.1-0.4-0.2C177.9,81,177.5,80.3,177.7,79.5z"/>
			
				<linearGradient id="SVGID_2_" gradientUnits="userSpaceOnUse" x1="451.4482" y1="151.5485" x2="456.282" y2="137.8527" gradientTransform="matrix(-1 0 0 -1 751.4653 254)">
				<stop  offset="0" style="stop-color:#404B71"/>
				<stop  offset="0.6044" style="stop-color:#3C476E"/>
				<stop  offset="1" style="stop-color:#354169"/>
			</linearGradient>
			<path class="st5" d="M298.8,114.8l0.5-1.9l-0.5-0.8l-0.1,0.2c-0.1,0.3-0.3,0.4-0.6,0.3H298c-0.2-0.1-0.3-0.3-0.2-0.5l0.3-1.2
				l-0.6-1l-0.6,1l0.3,1.2c0.1,0.3-0.1,0.5-0.3,0.6c-0.1,0-0.3,0-0.4,0c-0.1-0.1-0.2-0.2-0.2-0.3l-0.1-0.2l-0.5,0.8l0.5,1.9
				c0.1,0.3-0.1,0.5-0.3,0.6c-0.1,0-0.3,0-0.4,0c-0.1-0.1-0.2-0.2-0.2-0.3l-0.3-1l-0.8,1.3c-0.1,0.2-0.4,0.3-0.7,0.2
				c-0.2-0.1-0.3-0.4-0.2-0.7l0.8-1.3l-1,0.3c-0.1,0-0.3,0-0.4,0c-0.1-0.1-0.2-0.2-0.2-0.3c-0.1-0.3,0.1-0.5,0.3-0.6l1.9-0.5
				l0.5-0.8l-0.2,0.1c-0.1,0-0.3,0-0.4,0c-0.1-0.1-0.2-0.2-0.2-0.3c-0.1-0.3,0.1-0.5,0.3-0.6l1.2-0.3l0.6-1h-1.2l-0.9,0.9
				c-0.2,0.2-0.4,0.2-0.6,0.1c0,0-0.1,0-0.1-0.1c-0.2-0.2-0.2-0.5,0-0.7l0.2-0.2H293l-1.4,1.4c-0.2,0.2-0.4,0.2-0.6,0.1
				c0,0-0.1,0-0.1-0.1c-0.2-0.2-0.2-0.5,0-0.7l0.7-0.7h-1.5c-0.1,0-0.2,0-0.2-0.1c-0.1-0.1-0.2-0.2-0.2-0.4c0-0.3,0.2-0.5,0.5-0.5
				h1.5L291,108c-0.2-0.2-0.2-0.5,0-0.7c0.2-0.2,0.5-0.2,0.7,0l1.4,1.4h0.9l-0.2-0.2c-0.2-0.2-0.2-0.5,0-0.7c0.2-0.2,0.5-0.2,0.7,0
				l0.9,0.9h1.2l-0.6-1l-1.2-0.3h-0.1c-0.2-0.1-0.3-0.3-0.2-0.5c0.1-0.3,0.3-0.4,0.6-0.3l0.2,0.1l-0.5-0.8l-1.9-0.5h-0.1
				c-0.2-0.1-0.3-0.3-0.2-0.5c0.1-0.3,0.3-0.4,0.6-0.3l1,0.3l-0.8-1.3c-0.1-0.2-0.1-0.5,0.2-0.7c0.2-0.1,0.5-0.1,0.7,0.2l0.8,1.3
				l0.3-1c0.1-0.3,0.3-0.4,0.6-0.3s0.4,0.3,0.3,0.6l-0.5,1.9l0.5,0.8l0.1-0.2c0.1-0.3,0.3-0.4,0.6-0.3c0.3,0.1,0.4,0.3,0.3,0.6
				l-0.3,1.2l0.6,1l0.6-1l-0.3-1.2c-0.1-0.3,0.1-0.5,0.3-0.6c0.3-0.1,0.5,0.1,0.6,0.3l0.1,0.2l0.5-0.8l-0.5-1.9
				c-0.1-0.3,0.1-0.5,0.3-0.6c0.3-0.1,0.5,0.1,0.6,0.3l0.3,1l0.8-1.3c0.1-0.2,0.4-0.3,0.7-0.2c0.2,0.1,0.3,0.4,0.2,0.7l-0.8,1.3
				l1-0.3c0.3-0.1,0.5,0.1,0.6,0.3c0.1,0.3-0.1,0.5-0.3,0.6l-1.9,0.5l-0.5,0.8l0.2-0.1c0.3-0.1,0.5,0.1,0.6,0.3
				c0.1,0.3-0.1,0.5-0.3,0.6l-1.2,0.3l-0.6,1h1.2l0.9-0.9c0.2-0.2,0.5-0.2,0.7,0c0.2,0.2,0.2,0.5,0,0.7l-0.2,0.2h0.9l1.4-1.4
				c0.2-0.2,0.5-0.2,0.7,0c0.2,0.2,0.2,0.5,0,0.7l-0.7,0.7h1.5c0.3,0,0.5,0.2,0.5,0.5s-0.2,0.5-0.5,0.5h-1.5l0.7,0.7
				c0.2,0.2,0.2,0.5,0,0.7c-0.2,0.2-0.4,0.2-0.6,0.1c0,0-0.1,0-0.1-0.1l-1.4-1.4H301l0.2,0.2c0.2,0.2,0.2,0.5,0,0.7
				c-0.2,0.2-0.4,0.2-0.6,0.1c0,0-0.1,0-0.1-0.1l-0.9-0.9h-1.2l0.6,1l1.2,0.3c0.3,0.1,0.4,0.3,0.3,0.6c-0.1,0.3-0.3,0.4-0.6,0.3
				l-0.2-0.1l0.5,0.8l1.9,0.5c0.3,0.1,0.4,0.3,0.3,0.6c-0.1,0.3-0.3,0.4-0.6,0.3l-1-0.3l0.8,1.3c0.1,0.2,0.1,0.5-0.2,0.7
				c-0.2,0.1-0.3,0.1-0.5,0c-0.1,0-0.1-0.1-0.2-0.2L300,114l-0.3,1c-0.1,0.3-0.3,0.4-0.6,0.3H299C298.9,115.2,298.8,115,298.8,114.8
				z"/>
			
				<linearGradient id="SVGID_3_" gradientUnits="userSpaceOnUse" x1="386.4166" y1="126.9381" x2="396.8369" y2="97.414" gradientTransform="matrix(-1 0 0 -1 751.4653 254)">
				<stop  offset="0" style="stop-color:#404B71"/>
				<stop  offset="0.6044" style="stop-color:#3C476E"/>
				<stop  offset="1" style="stop-color:#354169"/>
			</linearGradient>
			<path class="st6" d="M362.5,153.7l1.1-4.2l-1-1.8l-0.1,0.5c-0.1,0.6-0.7,0.9-1.3,0.7c-0.1,0-0.2-0.1-0.2-0.1
				c-0.4-0.2-0.6-0.7-0.5-1.2l0.7-2.5l-1.2-2.2l-1.2,2.2l0.7,2.5c0.1,0.6-0.2,1.1-0.7,1.3c-0.3,0.1-0.6,0-0.8-0.1
				c-0.2-0.1-0.4-0.4-0.5-0.6l-0.1-0.5l-1,1.8l1.1,4.2c0.1,0.6-0.2,1.1-0.7,1.3c-0.3,0.1-0.6,0-0.8-0.1c-0.2-0.1-0.4-0.4-0.5-0.6
				l-0.6-2.2l-1.6,2.8c-0.3,0.5-0.9,0.7-1.4,0.4s-0.7-0.9-0.4-1.4l1.6-2.8l-2.2,0.6c-0.3,0.1-0.6,0-0.8-0.1s-0.4-0.4-0.5-0.6
				c-0.1-0.6,0.2-1.1,0.7-1.3l4.2-1.1l1-1.8l-0.5,0.1c-0.3,0.1-0.6,0-0.8-0.1c-0.2-0.1-0.4-0.4-0.5-0.6c-0.1-0.6,0.2-1.1,0.7-1.3
				l2.5-0.7l1.2-2.2h-2.5l-1.8,1.8c-0.3,0.3-0.9,0.4-1.2,0.2c-0.1,0-0.1-0.1-0.2-0.2c-0.4-0.4-0.4-1.1,0-1.5l0.4-0.4h-2l-3,3
				c-0.3,0.3-0.9,0.4-1.2,0.2c-0.1,0-0.1-0.1-0.2-0.2c-0.4-0.4-0.4-1.1,0-1.5l1.6-1.6h-3.3c-0.2,0-0.4,0-0.5-0.1
				c-0.3-0.2-0.5-0.5-0.5-0.9c0-0.6,0.5-1,1-1h3.3l-1.6-1.6c-0.4-0.4-0.4-1.1,0-1.5c0.4-0.4,1.1-0.4,1.5,0l3,3h2l-0.4-0.4
				c-0.4-0.4-0.4-1.1,0-1.5s1.1-0.4,1.5,0l1.8,1.8h2.5l-1.2-2.2l-2.5-0.7c-0.1,0-0.2-0.1-0.2-0.1c-0.4-0.2-0.6-0.7-0.5-1.2
				c0.1-0.6,0.7-0.9,1.3-0.7l0.5,0.1l-1-1.8l-4.2-1.1c-0.1,0-0.2-0.1-0.2-0.1c-0.4-0.2-0.6-0.7-0.5-1.2c0.1-0.6,0.7-0.9,1.3-0.7
				l2.2,0.6l-1.6-2.8c-0.3-0.5-0.1-1.1,0.4-1.4s1.1-0.1,1.4,0.4l1.6,2.8l0.6-2.2c0.1-0.6,0.7-0.9,1.3-0.7c0.5,0.1,0.9,0.7,0.7,1.3
				l-1.1,4.2l1,1.8l0.1-0.5c0.1-0.6,0.7-0.9,1.3-0.7c0.6,0.2,0.9,0.7,0.7,1.3l-0.7,2.5l1.2,2.2l1.2-2.2l-0.7-2.5
				c-0.1-0.6,0.2-1.1,0.7-1.3c0.6-0.1,1.1,0.2,1.3,0.7l0.1,0.5l1-1.8l-1.1-4.2c-0.1-0.6,0.2-1.1,0.7-1.3c0.6-0.1,1.1,0.2,1.3,0.7
				l0.6,2.2l1.6-2.8c0.3-0.5,0.9-0.7,1.4-0.4c0.5,0.3,0.7,0.9,0.4,1.4l-1.6,2.8l2.2-0.6c0.6-0.1,1.1,0.2,1.3,0.7
				c0.1,0.6-0.2,1.1-0.7,1.3l-4.2,1.1l-1,1.8l0.5-0.1c0.6-0.1,1.1,0.2,1.3,0.7c0.1,0.6-0.2,1.1-0.7,1.3l-2.5,0.7l-1.2,2.2h2.5
				l1.8-1.8c0.4-0.4,1.1-0.4,1.5,0s0.4,1.1,0,1.5l-0.4,0.4h2l3-3c0.4-0.4,1.1-0.4,1.5,0c0.4,0.4,0.4,1.1,0,1.5l-1.6,1.6h3.3
				c0.6,0,1,0.5,1,1c0,0.6-0.5,1-1,1h-3.3l1.6,1.6c0.4,0.4,0.4,1.1,0,1.5c-0.3,0.3-0.9,0.4-1.2,0.2c-0.1,0-0.1-0.1-0.2-0.2l-3-3h-2
				l0.4,0.4c0.4,0.4,0.4,1.1,0,1.5c-0.3,0.3-0.9,0.4-1.2,0.2c-0.1,0-0.2-0.1-0.2-0.2l-1.8-1.8h-2.5l1.2,2.2l2.5,0.7
				c0.5,0.2,0.9,0.7,0.7,1.3c-0.1,0.6-0.7,0.9-1.3,0.7l-0.5-0.1l1,1.8l4.2,1.1c0.5,0.2,0.9,0.7,0.7,1.3c-0.1,0.6-0.7,0.9-1.3,0.7
				l-2.2-0.6l1.6,2.8c0.3,0.5,0.1,1.1-0.4,1.4c-0.3,0.2-0.7,0.2-1,0c-0.2-0.1-0.3-0.2-0.4-0.4l-1.6-2.8l-0.6,2.2
				c-0.1,0.6-0.7,0.9-1.3,0.7c-0.1,0-0.2-0.1-0.3-0.1C362.6,154.6,362.4,154.1,362.5,153.7z"/>
			
				<linearGradient id="SVGID_4_" gradientUnits="userSpaceOnUse" x1="503.7391" y1="124.6434" x2="532.8373" y2="56.5411" gradientTransform="matrix(-1 0 0 -1 751.4653 254)">
				<stop  offset="0" style="stop-color:#404B71"/>
				<stop  offset="0.6044" style="stop-color:#3C476E"/>
				<stop  offset="1" style="stop-color:#354169"/>
			</linearGradient>
			<path class="st7" d="M198.3,161.9c0,0.7,0.4,1.4,1,1.7c0.3,0.2,0.6,0.3,1,0.3h6.3l-3,3c-0.8,0.8-0.8,2,0,2.8
				c0.1,0.1,0.3,0.2,0.4,0.3c0.8,0.4,1.8,0.3,2.4-0.3l5.9-5.9h3.9l-1.7,1.7c-0.8,0.8-0.8,2,0,2.8c0.1,0.1,0.3,0.2,0.4,0.3
				c0.8,0.4,1.8,0.3,2.4-0.3l4.6-4.6h3.8l-0.1,0.1c-0.8,0.8-0.8,2,0,2.8c0.2,0.5,0.5,0.8,0.9,1.1s1,0.3,1.5,0.2h0.2l-1.9,3.3
				l-6.2,1.7c-1.1,0.3-1.7,1.4-1.4,2.4c0.1,0.5,0.5,1,0.9,1.2c0.4,0.3,1,0.3,1.5,0.2l2.4-0.6l-2,3.4l-8,2.1
				c-1.1,0.3-1.7,1.4-1.4,2.4c0.1,0.5,0.5,1,0.9,1.2c0.4,0.3,1,0.3,1.5,0.2l4.2-1.1l-3.2,5.5c-0.5,1-0.2,2.2,0.7,2.7
				c1,0.5,2.2,0.2,2.7-0.7l3.2-5.5l1.1,4.2c0.1,0.5,0.5,1,0.9,1.2c0.4,0.3,1,0.3,1.5,0.2c1.1-0.3,1.7-1.4,1.4-2.4l-2.1-8l2-3.4
				l0.6,2.4c0.1,0.5,0.5,1,0.9,1.2c0.4,0.3,1,0.3,1.5,0.2c1.1-0.3,1.7-1.4,1.4-2.4l-1.7-6.2l1.9-3.3v0.2c0.1,0.5,0.5,1,0.9,1.2
				s0.9,0.3,1.4,0.2c1,0.2,2.1-0.4,2.4-1.4V170l1.9,3.3l-1.7,6.2c-0.2,0.9,0.2,1.8,0.9,2.2c0.1,0.1,0.3,0.2,0.5,0.2
				c1.1,0.3,2.2-0.3,2.4-1.4l0.6-2.4l2,3.4l-2.1,8c-0.2,0.9,0.2,1.8,0.9,2.2c0.1,0.1,0.3,0.2,0.5,0.2c1.1,0.3,2.2-0.3,2.4-1.4
				l1.1-4.2l3.2,5.5c0.2,0.3,0.4,0.6,0.7,0.7c0.6,0.3,1.4,0.4,2,0c1-0.5,1.3-1.8,0.7-2.7l-3.2-5.5l4.2,1.1c1.1,0.3,2.2-0.3,2.4-1.4
				c0.3-1.1-0.4-2.1-1.4-2.4l-8-2.1l-2-3.4l2.4,0.6c1.1,0.3,2.2-0.3,2.4-1.4c0.3-1.1-0.4-2.2-1.4-2.4l-6.2-1.7l-1.9-3.3h0.2
				c1,0.3,2.1-0.3,2.4-1.3c0.7-0.8,0.7-2-0.1-2.7l-0.1-0.1h3.8l4.6,4.6c0.1,0.1,0.3,0.2,0.4,0.3c0.8,0.4,1.8,0.3,2.4-0.3
				c0.8-0.8,0.8-2,0-2.8l-1.7-1.7h3.9l5.9,5.9c0.1,0.1,0.3,0.2,0.4,0.3c0.8,0.4,1.8,0.3,2.4-0.3c0.8-0.8,0.8-2,0-2.8l-3-3h6.3
				c1.1,0,2-0.9,2-2s-0.9-2-2-2H261l3-3c0.8-0.8,0.8-2,0-2.8s-2-0.8-2.8,0l-5.9,5.9h-3.9l1.7-1.7c0.8-0.8,0.8-2,0-2.8s-2-0.8-2.8,0
				l-4.6,4.6h-3.8l0.1-0.1c0.8-0.8,0.8-2,0-2.8c-0.3-1-1.4-1.5-2.4-1.3h-0.2l1.9-3.3l6.2-1.7c1.1-0.3,1.7-1.4,1.4-2.4
				c-0.3-1.1-1.4-1.7-2.4-1.4l-2.4,0.6l2-3.4l8-2.1c1.1-0.3,1.7-1.4,1.4-2.4c-0.3-1.1-1.4-1.7-2.4-1.4l-4.2,1.1l3.2-5.5
				c0.5-1,0.2-2.2-0.7-2.7c-1-0.5-2.2-0.2-2.7,0.7l-3.2,5.5l-1.1-4.2c-0.3-1.1-1.4-1.7-2.4-1.4c-1.1,0.3-1.7,1.4-1.4,2.4l2.1,8
				l-2,3.4l-0.6-2.4c-0.3-1.1-1.4-1.7-2.4-1.4c-1.1,0.3-1.7,1.4-1.4,2.4l1.7,6.2l-1.9,3.3v-0.2c-0.3-1-1.3-1.6-2.3-1.4
				c-1-0.2-2.1,0.4-2.4,1.4v0.2l-1.9-3.3l1.7-6.2c0.3-1.1-0.4-2.2-1.4-2.4c-1.1-0.3-2.2,0.3-2.4,1.4l-0.6,2.4l-2-3.4l2.1-8
				c0.3-1.1-0.4-2.1-1.4-2.4c-1.1-0.3-2.2,0.3-2.4,1.4l-1.1,4.2l-3.2-5.5c-0.6-1-1.8-1.3-2.7-0.7c-1,0.5-1.3,1.8-0.7,2.7l3.2,5.5
				l-4.2-1.1c-1.1-0.3-2.2,0.3-2.4,1.4c-0.2,0.9,0.2,1.8,0.9,2.2c0.1,0.1,0.3,0.2,0.5,0.2l8,2.1l2,3.4l-2.4-0.6
				c-1.1-0.3-2.2,0.3-2.4,1.4c-0.2,0.9,0.2,1.8,0.9,2.2c0.1,0.1,0.3,0.2,0.5,0.2l6.2,1.7l1.9,3.3h-0.2c-1-0.3-2.1,0.3-2.4,1.3
				c-0.7,0.8-0.7,2,0.1,2.7l0.1,0.1h-3.8l-4.6-4.6c-0.8-0.8-2-0.8-2.8,0c-0.8,0.8-0.8,2,0,2.8l1.7,1.7h-3.9l-5.9-5.9
				c-0.8-0.8-2-0.8-2.8,0c-0.8,0.8-0.8,2,0,2.8l3,3h-6.3C199.2,159.9,198.3,160.8,198.3,161.9z M231.7,160.6
				c0.7-1.2,2.3-1.6,3.5-0.9c1.2,0.7,1.6,2.3,0.9,3.5c-0.7,1.2-2.3,1.6-3.5,0.9S231,161.8,231.7,160.6z"/>
			
				<linearGradient id="SVGID_5_" gradientUnits="userSpaceOnUse" x1="463.0305" y1="208.9583" x2="475.0524" y2="180.8161" gradientTransform="matrix(-1 0 0 -1 751.4653 254)">
				<stop  offset="0" style="stop-color:#404B71"/>
				<stop  offset="0.6044" style="stop-color:#3C476E"/>
				<stop  offset="1" style="stop-color:#354169"/>
			</linearGradient>
			<path class="st8" d="M266.1,60.1c0,0.4,0.3,0.7,0.7,0.7h1l-0.4,0.5c-0.2,0.3-0.1,0.8,0.2,1c0.1,0.1,0.3,0.1,0.4,0.1
				c0.2,0,0.5-0.1,0.6-0.3l0.9-1.3h1.5l-2,2.8c-0.2,0.3-0.1,0.8,0.2,1c0.1,0.1,0.3,0.1,0.4,0.1c0.2,0,0.5-0.1,0.6-0.3l2.6-3.7h1.3
				l-1.2,1.7c-0.2,0.3-0.1,0.8,0.2,1c0.1,0.1,0.3,0.1,0.4,0.1c0.2,0,0.5-0.1,0.6-0.3l1.7-2.5h0.9l-0.4,0.5c-0.2,0.3-0.1,0.8,0.2,1
				c0.1,0.1,0.3,0.1,0.4,0.1c0.2,0,0.5-0.1,0.6-0.3l0.9-1.3h0.3l0.8,1.5l-0.2,0.3l-1.6,0.1c-0.4,0-0.7,0.4-0.7,0.8
				c0,0.4,0.4,0.7,0.7,0.7c0,0,0,0,0.1,0l0.6-0.1l-0.4,0.8l-3,0.3c-0.4,0-0.7,0.4-0.7,0.8c0,0.4,0.4,0.7,0.7,0.7c0,0,0,0,0.1,0
				l2-0.2l-0.7,1.1l-4.5,0.4c-0.4,0-0.7,0.4-0.7,0.8c0,0.4,0.4,0.7,0.7,0.7c0,0,0,0,0.1,0l3.4-0.3l-0.7,1.3l-1.6,0.1
				c-0.4,0-0.7,0.4-0.7,0.8c0,0.4,0.4,0.7,0.7,0.7c0,0,0,0,0.1,0l0.6-0.1l-0.5,0.9c-0.2,0.3-0.1,0.8,0.3,1c0.1,0.1,0.2,0.1,0.4,0.1
				c0.3,0,0.5-0.1,0.6-0.4l0.5-0.9l0.3,0.6c0.1,0.3,0.4,0.4,0.7,0.4c0.1,0,0.2,0,0.3-0.1c0.4-0.2,0.5-0.6,0.4-1l-0.7-1.5l0.7-1.3
				l1.5,3.1c0.1,0.3,0.4,0.4,0.7,0.4c0.1,0,0.2,0,0.3-0.1c0.4-0.2,0.5-0.6,0.4-1l-1.9-4.1l0.7-1.1l0.9,1.8c0.1,0.3,0.4,0.4,0.7,0.4
				c0.1,0,0.2,0,0.3-0.1c0.4-0.2,0.5-0.6,0.4-1l-1.3-2.8l0.4-0.8l0.3,0.6c0.1,0.3,0.4,0.4,0.7,0.4c0.1,0,0.2,0,0.3-0.1
				c0.4-0.2,0.5-0.6,0.4-1l-0.7-1.5L281,63h1.7l0.2,0.3l-0.7,1.5c-0.2,0.4,0,0.8,0.4,1c0.1,0,0.2,0.1,0.3,0.1c0.3,0,0.5-0.2,0.7-0.4
				l0.3-0.6l0.4,0.8l-1.3,2.8c-0.2,0.4,0,0.8,0.4,1c0.1,0,0.2,0.1,0.3,0.1c0.3,0,0.5-0.2,0.7-0.4l0.9-1.8l0.7,1.1l-1.9,4.1
				c-0.2,0.4,0,0.8,0.4,1c0.1,0,0.2,0.1,0.3,0.1c0.3,0,0.5-0.2,0.7-0.4l1.5-3.1l0.7,1.3L287,73c-0.2,0.4,0,0.8,0.4,1
				c0.1,0,0.2,0.1,0.3,0.1c0.3,0,0.5-0.2,0.7-0.4l0.3-0.6l0.5,0.9c0.1,0.2,0.4,0.4,0.6,0.4c0.1,0,0.2,0,0.4-0.1
				c0.3-0.2,0.5-0.6,0.3-1l-0.5-0.9l0.6,0.1c0,0,0,0,0.1,0c0.4,0,0.7-0.3,0.7-0.7s-0.3-0.8-0.7-0.8l-1.6-0.1l-0.7-1.3l3.4,0.3
				c0,0,0,0,0.1,0c0.4,0,0.7-0.3,0.7-0.7s-0.3-0.8-0.7-0.8l-4.5-0.4l-0.7-1.1l2,0.2c0,0,0,0,0.1,0c0.4,0,0.7-0.3,0.7-0.7
				c0-0.4-0.3-0.8-0.7-0.8l-3-0.3l-0.4-0.8l0.6,0.1c0,0,0,0,0.1,0c0.4,0,0.7-0.3,0.7-0.7c0-0.4-0.3-0.8-0.7-0.8l-1.6-0.1l-0.2-0.3
				l0.8-1.5h0.3l0.9,1.3c0.1,0.2,0.4,0.3,0.6,0.3c0.1,0,0.3,0,0.4-0.1c0.3-0.2,0.4-0.7,0.2-1l-0.4-0.5h0.9l1.7,2.5
				c0.1,0.2,0.4,0.3,0.6,0.3c0.1,0,0.3,0,0.4-0.1c0.3-0.2,0.4-0.7,0.2-1l-1.2-1.7h1.3l2.6,3.7c0.1,0.2,0.4,0.3,0.6,0.3
				c0.1,0,0.3,0,0.4-0.1c0.3-0.2,0.4-0.7,0.2-1l-2-2.8h1.5l0.9,1.3c0.1,0.2,0.4,0.3,0.6,0.3c0.1,0,0.3,0,0.4-0.1
				c0.3-0.2,0.4-0.7,0.2-1l-0.4-0.5h1c0.4,0,0.7-0.3,0.7-0.7s-0.3-0.7-0.7-0.7h-1l0.4-0.5c0.2-0.3,0.1-0.8-0.2-1
				c-0.3-0.2-0.8-0.1-1,0.2l-0.9,1.3h-1.5l2-2.8c0.2-0.3,0.1-0.8-0.2-1s-0.8-0.1-1,0.2L291,60h-1.3l1.2-1.7c0.2-0.3,0.1-0.8-0.2-1
				c-0.3-0.2-0.8-0.1-1,0.2L288,60h-0.9l0.4-0.5c0.2-0.3,0.1-0.8-0.2-1c-0.3-0.2-0.8-0.1-1,0.2l-0.9,1.3h-0.3l-0.8-1.5l0.2-0.3
				l1.6-0.1c0.4,0,0.7-0.4,0.7-0.8c0-0.4-0.4-0.7-0.8-0.7l-0.6,0.1l0.4-0.8l3-0.3c0.4,0,0.7-0.4,0.7-0.8c0-0.4-0.4-0.7-0.8-0.7
				l-2,0.2l0.7-1.1l4.5-0.4c0.4,0,0.7-0.4,0.7-0.8c0-0.4-0.4-0.7-0.8-0.7l-3.4,0.3l0.7-1.3l1.6-0.1c0.4,0,0.7-0.4,0.7-0.8
				c0-0.4-0.4-0.7-0.8-0.7l-0.6,0.1l0.5-0.9c0.2-0.3,0.1-0.8-0.3-1c-0.3-0.2-0.8-0.1-1,0.3l-0.5,0.9L288,47c-0.2-0.4-0.6-0.5-1-0.4
				c-0.4,0.2-0.5,0.6-0.4,1l0.7,1.5l-0.7,1.3l-1.5-3.1c-0.2-0.4-0.6-0.5-1-0.4c-0.4,0.2-0.5,0.6-0.4,1l1.9,4.1l-0.7,1.1l-0.9-1.8
				c-0.2-0.4-0.6-0.5-1-0.3c-0.4,0.2-0.5,0.6-0.4,1l1.3,2.8l-0.4,0.8l-0.3-0.6c-0.2-0.4-0.6-0.5-1-0.3c-0.4,0.2-0.5,0.6-0.4,1
				l0.7,1.5l-0.2,0.3H281l-0.2-0.3l0.7-1.5c0.2-0.4,0-0.8-0.4-1s-0.8,0-1,0.3l-0.3,0.6l-0.4-0.8l1.3-2.8c0.2-0.4,0-0.8-0.4-1
				s-0.8,0-1,0.4l-0.9,1.8l-0.7-1.1l1.9-4.1c0.2-0.4,0-0.8-0.4-1c-0.4-0.2-0.8,0-1,0.3l-1.5,3.1l-0.7-1.3l0.7-1.5
				c0.2-0.4,0-0.8-0.4-1c-0.4-0.2-0.8,0-1,0.4l-0.3,0.6l-0.5-0.9c-0.2-0.3-0.6-0.5-1-0.3c-0.3,0.2-0.5,0.6-0.3,1l0.5,0.9l-0.6-0.1
				c-0.4,0-0.8,0.3-0.8,0.7s0.3,0.8,0.7,0.8l1.6,0.1l0.7,1.3l-3.4-0.3c-0.4,0-0.8,0.3-0.8,0.7s0.3,0.8,0.7,0.8l4.5,0.4l0.7,1.1
				l-2-0.2c-0.4,0-0.8,0.3-0.8,0.7s0.3,0.8,0.7,0.8l3,0.3l0.4,0.8l-0.6-0.1c-0.4,0-0.8,0.3-0.8,0.7s0.3,0.8,0.7,0.8l1.6,0.1l0.2,0.3
				l-0.8,1.5h-0.3l-0.9-1.3c-0.2-0.3-0.7-0.4-1-0.2s-0.4,0.7-0.2,1l0.4,0.5h-0.9L274,57c-0.2-0.3-0.7-0.4-1-0.2s-0.4,0.7-0.2,1
				l1.2,1.7h-1.3l-2.6-3.7c-0.2-0.3-0.7-0.4-1-0.2c-0.3,0.2-0.4,0.7-0.2,1l2,2.8h-1.5l-0.9-1.3c-0.2-0.3-0.7-0.4-1-0.2
				s-0.4,0.7-0.2,1l0.4,0.5h-1C266.4,59.3,266.1,59.7,266.1,60.1z M281,61.5l-0.8-1.5l0.8-1.5h1.7l0.8,1.5l-0.8,1.5H281z"/>
			<circle class="st2" cx="254.1" cy="41.4" r="3.4"/>
			<circle class="st2" cx="379.8" cy="105.7" r="3.4"/>
			<circle class="st2" cx="374.8" cy="118.7" r="1.5"/>
			<circle class="st2" cx="386.6" cy="126.6" r="1.5"/>
			<circle class="st2" cx="266.1" cy="38" r="1.5"/>
			<circle class="st2" cx="238.5" cy="73.8" r="3.8"/>
			<circle class="st2" cx="209.5" cy="197.6" r="3.8"/>
			<circle class="st2" cx="217.6" cy="83.7" r="2.8"/>
			<circle class="st2" cx="223" cy="92.2" r="1.5"/>
			<circle class="st2" cx="249.1" cy="82.2" r="1.5"/>
			<circle class="st2" cx="169.6" cy="105.7" r="1.5"/>
			<circle class="st2" cx="200.5" cy="83.7" r="1.5"/>
			<circle class="st2" cx="206.5" cy="95.2" r="1.5"/>
			<circle class="st2" cx="208" cy="83.6" r="1.5"/>
			<circle class="st2" cx="200.5" cy="73.8" r="1.5"/>
			<circle class="st2" cx="160.3" cy="85.2" r="1.5"/>
			<circle class="st2" cx="155.8" cy="79.2" r="1.5"/>
			<circle class="st2" cx="203.5" cy="189.1" r="1.5"/>
			<circle class="st2" cx="192.2" cy="187.6" r="1.5"/>
			<circle class="st2" cx="199" cy="196.1" r="1.5"/>
			<circle class="st2" cx="231" cy="72.3" r="1.5"/>
			<circle class="st2" cx="224.5" cy="79.2" r="1.5"/>
		</g>
	</g>
</g>
</svg>
