<?xml version="1.0" encoding="utf-8"?>
<!-- Generator: Adobe Illustrator 19.0.0, SVG Export Plug-In . SVG Version: 6.00 Build 0)  -->
<svg version="1.1" xmlns="http://www.w3.org/2000/svg" xmlns:xlink="http://www.w3.org/1999/xlink" x="0px" y="0px"
	 viewBox="0 0 190.1 172.5" style="enable-background:new 0 0 190.1 172.5;" xml:space="preserve">
<style type="text/css">
	.st0{fill:#519E38;}
	.st1{fill:#E2E2E2;}
	.st2{fill:#FFFFFF;}
	.st3{fill:#F4F4F4;}
	.st4{fill-rule:evenodd;clip-rule:evenodd;fill:#74B7DB;}
	.st5{fill-rule:evenodd;clip-rule:evenodd;fill:#62BA47;}
	.st6{fill:#62BA47;}
	.st7{fill:#62BA46;}
</style>
<g id="Layer_2">
</g>
<g id="kolba_4">
</g>
<g id="kolba_3">
</g>
<g id="kolby">
	<path class="st0" d="M159.4,51.8c0-13.3-30.4-21.3-59.8-21.3s-59.8,8-59.8,21.3c0,2.8,1.4,5.4,3.8,7.7l18.2,68.3H62
		c2.2,6.3,18.2,11.2,37.6,11.2c19.4,0,35.4-4.9,37.6-11.2h0.3l18.2-68.3C158,57.2,159.4,54.6,159.4,51.8z"/>
	<path class="st1" d="M152.5,48H36.3l20.2,76h0.3c2.2,6.3,18.2,11.2,37.6,11.2s35.4-4.9,37.6-11.2h0.3L152.5,48z"/>
	<ellipse class="st2" cx="94.4" cy="44.1" rx="58.1" ry="15.2"/>
	<g>
		<path class="st3" d="M94.4,29.1c31.4,0,56.9,6.7,56.9,14.9c0,8.2-25.5,14.9-56.9,14.9s-56.9-6.7-56.9-14.9
			C37.5,35.8,63,29.1,94.4,29.1 M94.4,24.1c-23,0-61.9,4.2-61.9,19.9S71.4,64,94.4,64s61.9-4.2,61.9-19.9S117.4,24.1,94.4,24.1
			L94.4,24.1z"/>
	</g>
	<path class="st3" d="M58,90.3l-2.2,0.4c-1.6,0.3-3.1-0.8-3.4-2.4l-3.6-20.4c-0.3-1.6,0.8-3.1,2.4-3.4l2.2-0.4
		c1.6-0.3,3.1,0.8,3.4,2.4l3.6,20.4C60.7,88.4,59.6,90,58,90.3z"/>
	<g>
		<path class="st4" d="M100,84.3c-0.3,1.5-1.6,2.7-3.2,2.7c-1.8,0-3.2-1.4-3.2-3.1c-9,0.9-16,8.5-16.1,17.8c0,1.8,0.3,3.6,0.8,5.2
			c0.1,0,0.1,0,0.2,0c1.8,0,3.2,1.4,3.2,3.2c0,0.8-0.3,1.5-0.8,2.1c3,4.1,7.7,6.9,13,7.3c1.4,0.2,4.3,0,5.9-0.5
			c4.3-1.1,8-3.8,10.4-7.4c-0.2-0.4-0.3-0.9-0.3-1.4c0-1.5,1.1-2.7,2.5-3c0.6-1.8,0.9-3.6,0.9-5.6C113.3,93.3,107.6,86.3,100,84.3z
			 M81.1,96.7c-0.9,0-1.7-0.8-1.7-1.7c0-1,0.8-1.7,1.7-1.7c0.9,0,1.7,0.8,1.7,1.7C82.8,96,82,96.7,81.1,96.7z M109.4,102.8
			c-1.1,0-2.1-0.9-2.1-2.1c0-1.2,0.9-2.1,2.1-2.1c1.1,0,2.1,0.9,2.1,2.1C111.5,101.8,110.6,102.8,109.4,102.8z"/>
		<path class="st4" d="M86.8,79.7c0,1.3-1,2.3-2.3,2.3c-1.3,0-2.3-1-2.3-2.3c0-1.3,1-2.3,2.3-2.3C85.7,77.4,86.8,78.4,86.8,79.7
			L86.8,79.7z"/>
		<path class="st5" d="M86.9,87.4c0,1.6-1.3,2.9-2.9,2.9c-1.6,0-3-1.3-3-2.9c0-1.6,1.3-3,3-3C85.6,84.5,86.9,85.8,86.9,87.4
			L86.9,87.4z"/>
		<path class="st5" d="M79,82.9c0,1-0.8,1.7-1.7,1.7c-1,0-1.8-0.8-1.8-1.7c0-1,0.8-1.8,1.8-1.8C78.2,81.1,79,81.9,79,82.9L79,82.9z"
			/>
		<g>
			<circle class="st6" cx="110.6" cy="85.3" r="9.9"/>
			<g>
				<path class="st2" d="M108.2,83.9c-0.8,0.1-1,1.1-1.1,1.7l0,0v0c0,0.1,0,0.2,0,0.3c0,0.3,0,0.6-0.1,0.9c0,0.1-0.1,0.4-0.1,0.4
					c-0.3,0-0.5-0.4-0.6-0.6c-0.2-0.5-0.3-1-0.4-1.6c-0.1-0.6-0.2-1.2-0.2-1.8c0-0.2,0-0.5,0-0.7c0-0.1,0-0.2,0-0.3
					c0-0.1,0-0.2,0-0.2c0.1-0.4-0.5,0-0.7,0.2c-0.7,1.1-0.5,2.5-0.4,3.8c0,0.3,0,0.7-0.1,1c0,0.2-0.1,0.6-0.3,0.8
					c-0.1,0.1-0.3,0-0.4,0c-0.2-0.1-0.3-0.3-0.3-0.4c0-0.2-0.2-0.1-0.3,0c-0.1,0.1-0.3,0.4-0.3,0.6c0.1,0.4,0.5,0.8,0.9,0.7
					c0.7-0.2,1.1-1.1,1.2-1.8c0.1-0.3,0.1-0.7,0.2-1c0.1,0.5,0.3,1,0.5,1.4c0.2,0.3,0.5,0.7,0.9,0.6c0.3-0.1,0.5-0.4,0.7-0.8
					c0.1,0.3,0.4,0.6,0.7,0.5c0.4,0,0.8-0.5,0.9-0.8c0.2-0.4,0.2-0.8,0.2-1.3C109.2,85,109,83.8,108.2,83.9z M108.4,86.7
					c0,0.1,0,0.2-0.1,0.2c-0.2,0-0.3-0.3-0.3-0.4c-0.1-0.3-0.2-0.6-0.2-0.9c0-0.3,0-0.6,0-0.9c0-0.1,0-0.2,0.1-0.2
					c0.4,0.3,0.5,0.8,0.5,1.2C108.5,86.1,108.5,86.4,108.4,86.7z"/>
				<path class="st2" d="M118,85c-0.9-0.3-1.4,0.9-1.5,1.5c-0.2,0.6-0.3,1.7,0.4,2c0.4,0.2,0.8-0.1,1-0.4c0.3-0.3,0.4-0.7,0.5-1.1
					C118.7,86.5,118.8,85.3,118,85z M117.5,87.9c0,0.1-0.1,0.1-0.1,0.2c-0.1-0.1-0.2-0.4-0.2-0.5c0-0.3,0-0.6,0-0.9
					c0.1-0.3,0.1-0.6,0.3-0.9c0-0.1,0.1-0.1,0.1-0.2c0.3,0.4,0.2,0.9,0.2,1.4C117.7,87.3,117.6,87.6,117.5,87.9z"/>
				<path class="st2" d="M115.6,85.2c0.2-0.2,0.3-0.5,0.5-0.7c0.3-0.5,0.6-1.1,0.6-1.7c0-0.6-0.8-0.6-1.2-0.4
					c-0.6,0.3-0.9,0.9-1.1,1.5c-0.2,0.8-0.3,1.5-0.4,2.3v0c-0.3,0.3-0.9,1-1.3,0.7c-0.1-0.1-0.2-0.2-0.2-0.4c0.4-0.4,0.7-0.8,1-1.2
					c0.3-0.4,0.4-1.1-0.1-1.4c-0.4-0.2-1,0-1.3,0.4c-0.3,0.3-0.4,0.8-0.5,1.3c0,0.2-0.1,0.6,0,1c-0.3,0.2-0.6,0.3-0.9,0.2
					c-0.3-0.1-0.5-0.4-0.5-0.7c-0.1-0.4-0.1-0.8,0-1.3c0-0.1,0.1-0.3,0.1-0.4c0,0,0-0.1,0-0.1c0.2,0.1,0.3,0.4,0.3,0.6
					c0.1,0.3,0.8-0.2,0.8-0.5c-0.1-0.3-0.2-0.6-0.5-0.7c-0.3-0.1-0.7,0.1-0.9,0.3c-0.5,0.5-0.6,1.3-0.6,2c0,0.5,0.1,1,0.5,1.3
					c0.5,0.3,1.3,0,1.8-0.3c0.1,0.3,0.4,0.6,0.8,0.5c0.5-0.1,1-0.4,1.4-0.7c0,0.4,0.1,0.9,0.4,1c0.5,0.3,1,0,1.3-0.4
					c0.4-0.5,0.6-1.2,0.4-1.9C116.1,85.3,115.9,85.2,115.6,85.2z M112.6,84.8c0-0.1,0.1-0.2,0.1-0.3c0,0,0,0,0,0
					c0.2,0.1,0.2,0.3,0.2,0.5c0,0.3-0.3,0.7-0.5,0.9c0-0.1,0-0.1,0-0.2C112.5,85.5,112.5,85.2,112.6,84.8z M115.5,83.2
					c0.1-0.1,0.1-0.2,0.2-0.3c0,0,0,0,0,0c0.3,0.4,0,0.9-0.2,1.3c-0.2,0.3-0.4,0.7-0.6,1c0-0.3,0.1-0.7,0.2-1
					C115.2,83.8,115.3,83.5,115.5,83.2z M115.3,87.3c0,0-0.1,0.1-0.1,0.1c0,0,0,0-0.1,0c-0.2-0.1-0.2-0.6-0.3-0.8c0-0.2,0-0.3,0-0.5
					c0.1-0.1,0.2-0.2,0.3-0.3c0.2-0.1,0.3,0.1,0.4,0.3C115.6,86.5,115.5,86.9,115.3,87.3z"/>
			</g>
		</g>
		<g>
			<g>
				<path class="st2" d="M103.5,99.2c0.3-0.9,0.4-1.9-0.2-2.7c-0.4-0.4-1.1-0.5-1.5-0.4c0.1-0.4,0.1-0.7,0.1-1.1
					c0-0.3-0.6-0.2-0.8-0.2c-0.3,0.1-0.7,0.3-0.7,0.6c0,1.4-0.3,2.7-0.6,4c-0.3,0.1-0.6,0.3-0.9,0.4c-0.2,0.1-0.3,0.2-0.6,0.1
					c-0.4-0.1-0.3-0.7-0.4-1c-0.1-1.2,0.7-4,0.3-3.9c-0.4,0-0.8,0.3-1,0.5c-0.6,1.3-0.7,2.8-0.5,4.4c0.1,0.5,0.2,0.8,0.8,1
					c0.7,0.1,1.5-0.3,2-0.6c0,0.1,0,0.2-0.1,0.3c-0.3,1.2-0.6,2.5-1,3.7c-0.1,0.3,0.2,0.3,0.3,0.3c0.2-0.1,0.5-0.3,0.6-0.5
					c0.3-0.8,0.6-1.7,0.9-2.5c0.3,0.1,0.8,0.1,1.2,0C102.5,101.1,103.2,100.2,103.5,99.2z M101.8,96.9
					C101.8,96.9,101.9,96.9,101.8,96.9L101.8,96.9z M101.3,100.8C101.3,100.8,101.3,100.8,101.3,100.8L101.3,100.8z M101.3,100.8
					C101.3,100.8,101.3,100.8,101.3,100.8C101.3,100.8,101.3,100.8,101.3,100.8c-0.5-0.1-0.6-0.5-0.5-0.8c0,0,0-0.1,0-0.1
					c0.2-0.7,0.4-1.5,0.6-2.2c0,0,0,0,0,0c0.1-0.2,0.1-0.4,0.3-0.6c0,0,0,0,0,0c0,0,0,0,0,0c0.2,0,0.3,0.2,0.3,0.4
					c0.3,0.6,0.1,1.3,0,1.8C102,99.7,101.7,100.4,101.3,100.8z"/>
				<path class="st2" d="M95.3,96.3c0,0-0.1,0-0.1,0c0,0,0,0-0.1,0c-0.3,0-0.6,0.1-0.9,0.3c0-0.5-0.1-1-0.2-1.5c0-0.2-0.5-0.1-0.7,0
					c-0.4,0.2-0.7,0.5-0.7,0.8c-0.1,0.6-0.2,1.2-0.3,1.8c-0.1,0.5-0.2,1-0.3,1.5c-0.1,0.2-0.1,0.4-0.2,0.6c0,0.1-0.1,0.2-0.1,0.2
					c-0.2,0.3-0.6,0.3-1,0.2c-0.4-0.1-0.7-0.4-1-0.7c-0.7-0.8-1.1-1.8-1.3-2.8c-0.1-0.5-0.1-1,0-1.6c0-0.2,0.1-0.4,0.1-0.6
					c0-0.1,0.1-0.2,0.1-0.2c0,0,0-0.1,0.1-0.1c0,0,0,0,0,0c0,0,0,0,0,0c0,0,0,0,0,0c0,0,0,0,0,0c0,0,0,0,0.1-0.1
					c0.1,0,0.4-0.1,0.5-0.1c0.9-0.1,1.3,0.6,1.5,1.1c0.2,0.4,1.5-0.6,1.3-1c-0.3-0.9-1.1-1.5-2.1-1.3c-0.8,0.1-1.4,0.5-1.9,1
					c-1,1.2-1.2,2.8-0.9,4.2c0.3,1.3,1,2.5,2.1,3.3c0.4,0.3,1,0.4,1.4,0.3c1.1-0.2,1.8-1.4,2.2-2.4c0-0.1,0-0.1,0-0.1c0,0,0,0,0-0.1
					c0.1,0.9,0.7,1.9,1.7,1.9c1.1,0,1.7-1.4,1.8-2.3C96.8,97.6,96.4,96.4,95.3,96.3z M95.5,99.6c0,0.1,0,0.1-0.1,0.2
					c0,0-0.1,0-0.1,0c-0.6,0-0.9-0.8-0.9-1.3c0-0.1,0-0.1,0-0.2c0,0,0,0,0,0c0-0.1,0-0.2,0-0.2c0-0.2,0-0.4,0.1-0.6
					c0-0.1,0.1-0.1,0.1-0.2c0,0,0,0,0.1,0c0.7,0,0.9,0.8,1,1.3C95.6,98.9,95.6,99.3,95.5,99.6z"/>
			</g>
		</g>
		<g>
			<g>
				<path class="st2" d="M107.3,109.6c-0.1-0.1-0.3-0.1-0.4-0.1c-0.3-0.1,0-0.8,0-1c0.2-0.7,0.4-1.3,0.7-2c0,0,0,0,0,0
					c0.2-0.5-0.2-0.8-0.7-0.9c-0.5-0.1-1,0.2-1.3,0.5c-0.6,0.5-0.9,1.3-1.1,2.1c-0.2,0.1-0.4,0.3-0.6,0.3c0,0,0,0,0-0.1
					c0-0.2,0-0.4,0.1-0.6c0.2-0.9,0.6-1.8,0.5-2.7c-0.1-0.7-0.9-0.3-1.3,0.1c0-0.2,0-0.5-0.1-0.7c-0.2-0.2-0.5-0.2-0.7-0.1
					c-0.2,0.1-0.3,0.2-0.4,0.3c0-0.1,0-0.2,0-0.3c0.1-0.5-0.9,0-0.9,0.3c-0.1,0.7-0.2,1.4-0.3,2.1c-0.3,0.3-0.6,0.5-0.9,0.7
					c-0.1,0-0.1,0-0.1,0c0,0,0,0,0,0c0,0,0-0.1,0-0.1c-0.1-0.5,0.1-1,0.1-1.5c0.1-0.5,0.1-1,0-1.5c0-0.3-0.2-0.7-0.6-0.6
					c-0.4,0.1-0.6,0.3-0.8,0.6c0-0.2-0.1-0.5-0.2-0.6c-0.2-0.2-0.5-0.1-0.7,0c-0.1,0.1-0.3,0.2-0.4,0.3c0-0.1,0-0.2,0-0.3
					c0-0.1,0-0.1,0-0.2c0,0-0.1,0-0.1,0c0,0-0.1,0-0.1,0c-0.2,0-0.3,0.1-0.4,0.2c-0.1,0.1-0.1,0.2-0.2,0.3c-0.1,0.3-0.3,0.2-0.6,0.1
					c-0.1-0.1-0.3-0.1-0.4-0.2c-0.1-0.2-0.3-0.4-0.5-0.4c0,0-0.1,0-0.1,0c0,0,0,0-0.1,0c-1,0.2-1.2,1.5-1.2,2.4c0,0,0,0,0,0.1
					c-0.2,0.1-0.3,0.3-0.3,0.5c0,0.3-0.2,0.8-0.2,0.8s0.1,0,0,0c-0.2,0-0.3-0.4-0.3-0.6c-0.1-0.3-0.1-0.7-0.4-1
					c-0.2-0.2-0.5-0.2-0.7-0.1c0-0.1,0-0.1,0-0.2c0-0.1,0-0.1,0-0.2c0-0.2,0.1-0.5,0.2-0.7c0-0.1,0.1-0.1,0.1-0.2c0,0,0,0,0,0
					c0,0,0,0,0,0c0,0,0,0,0,0c0.1,0,0.3,0.1,0.3,0.1c0.3,0.2,1-0.6,0.7-0.8c-0.4-0.2-0.8-0.2-1.1,0c-0.2,0.1-0.4,0.3-0.6,0.6
					c0,0,0,0.1-0.1,0.1c-0.1-0.4-0.2-0.9-0.4-1.3c-0.1-0.3-0.9,0.4-0.8,0.7c0.4,1.1,0.6,2.2,0.7,3.4c-0.1,0-0.3,0.1-0.4,0.2
					c-0.2,0.2-0.3,0.1-0.4-0.1c-0.1-0.3-0.2-0.6-0.3-1c-0.1-0.4-0.2-0.8-0.3-1.3c0-0.3-0.1-0.6-0.1-0.9c0-0.2-0.3-0.1-0.4,0
					c-0.2,0.2-0.3,0.4-0.3,0.6c0,0.3,0,0.6,0.1,0.8c0.1,0.6,0.1,1.2,0,1.8c0,0.1,0,0.2,0,0.3c0,0.1,0,0.1,0,0.2c0,0,0,0,0,0
					c0,0-0.1,0.1-0.1,0.1c-0.5-0.2-0.7-2.4-0.9-3.4c-0.1-0.4-0.8,0.3-0.7,0.6c0.2,0.8,0.4,1.7,0.6,2.5c0.1,0.4,0.3,1.4,0.9,1.1
					c0.4-0.2,0.7-0.6,0.8-1.1c0.1,0.2,0.2,0.5,0.4,0.7c0.3,0.3,0.8-0.2,1-0.4c0.1-0.1,0.1-0.2,0.2-0.3c0,0.1,0,0.3,0.1,0.4
					c0.1,0.5,0.7-0.2,0.7-0.5c0-0.4,0-0.8,0-1.2c0.5,0.1,0.4,1.4,0.8,1.6c0.3,0.2,0.7-0.1,0.9-0.3c0.2-0.2,0.3-0.4,0.4-0.6
					c0.1,0.5,0.4,0.9,0.8,0.9c0.4,0,0.8-0.5,0.9-0.9c0.2-0.5,0.3-1,0.3-1.5c0-0.2,0-0.4,0-0.6c0.3,0,0.5-0.1,0.7-0.2
					c0,1-0.1,2-0.1,3c0,0.5,0.7-0.1,0.7-0.4c0.1-0.9,0.2-1.8,0.5-2.7c0-0.1,0.1-0.1,0.1-0.2c0,0,0,0,0,0c0.1,0.5,0.1,1.1,0.1,1.6
					c0,0.2,0,0.5-0.1,0.7c0,0.3-0.1,0.7-0.1,1c0,0.5,0.7-0.1,0.8-0.4c0-0.2,0.1-0.5,0.1-0.7c0.1-0.4,0.2-0.8,0.3-1.2
					c0.1-0.3,0.2-0.7,0.4-1c0,0.1,0,0.3,0.1,0.4c0,0.5,0,1-0.1,1.5c-0.1,0.4-0.3,1.7,0.5,1.6c0.5-0.1,0.9-0.3,1.3-0.6
					c0,0.2-0.1,0.4-0.1,0.7c-0.1,0.4,0.7,0,0.8-0.3c0.2-0.9,0.5-1.8,0.9-2.6c0-0.1,0.1-0.1,0.1-0.2c0,0,0,0,0,0
					c0.1,0.5-0.1,1.1-0.2,1.6c0,0.2-0.1,0.5-0.2,0.7c-0.1,0.3-0.2,0.6-0.2,0.9c-0.1,0.5,0.7,0,0.8-0.2c0.1-0.3,0.2-0.7,0.3-1
					c0.2-0.6,0.5-1.2,0.8-1.7c0,0.1,0,0.1,0,0.1c0,0.4-0.1,0.9-0.2,1.3c-0.1,0.5-0.3,0.9-0.3,1.4c0,0.2,0,0.5,0.1,0.7
					c0.1,0.1,0.4,0.1,0.6,0c0.2,0,0.4-0.1,0.6-0.2c0,0.2,0,0.5,0.2,0.7c0.3,0.3,0.8,0.2,1.1,0c0,0,0,0,0.1,0c0,0.2,0,0.3,0.1,0.5
					c0.2,0.4,0.7,0.3,1,0.2C107.1,110,107.4,109.8,107.3,109.6z M94.7,107.2C94.7,107.3,94.7,107.3,94.7,107.2L94.7,107.2z
					 M94.8,106.8c0,0.1,0,0.2-0.1,0.3c-0.2,0-0.3-0.3-0.3-0.5c-0.1-0.3-0.2-0.7-0.2-1c0-0.4,0-0.7,0.1-1.1c0-0.1,0-0.2,0.1-0.3
					c0.1,0,0.1,0.1,0.2,0.1c0,0.1,0,0.1,0.1,0.1c0,0,0,0,0.1,0.1c0.2,0.4,0.2,1,0.2,1.2C94.9,106.1,94.9,106.5,94.8,106.8z
					 M105.6,109c0,0-0.1,0-0.1-0.1c-0.1-0.1-0.1-0.4-0.1-0.5c0-0.6,0.3-1.2,0.6-1.7c0.1-0.1,0.3-0.4,0.4-0.5c0,0,0,0,0,0
					c0,0,0.1,0,0.1,0c0.2,0.1,0.2,0.3,0.2,0.4c-0.3,0.7-0.6,1.5-1,2.1C105.7,108.9,105.7,108.9,105.6,109z"/>
				<path class="st2" d="M86.1,103c-0.6-0.6-1.7-0.5-2.4-0.1c-1,0.5-1.7,1.6-1.7,2.7c0,0.2,0.2,0.3,0.4,0.1c0.2-0.2,0.4-0.4,0.4-0.7
					c0-0.7,0.4-1.1,1.1-1.4c0.6-0.2,1.2-0.2,1.6,0.1c0.5,0.4,1.2,2.1,0,2.2c0,0,0,0,0,0c-0.4-0.6-0.9-1.2-1.1-1.9
					c-0.1-0.4-0.8,0.4-0.7,0.7c0.4,1.2,1.5,2,1.8,3.3c0.1,0.4,0.2,1-0.4,1.1c-0.3,0.1-0.8-0.1-0.9-0.4c-0.1-0.4-0.7,0.4-0.6,0.7
					c0.2,0.5,0.7,0.7,1.2,0.7c0.7-0.1,1.1-0.7,1.3-1.4c0.1-0.7,0.1-1.4-0.2-2c0.5-0.3,0.7-0.9,0.9-1.4
					C86.8,104.4,86.6,103.5,86.1,103z"/>
			</g>
		</g>
		<g>
			<path class="st7" d="M73.5,94.1c-0.1,0-0.2-0.2-0.3-0.2c-0.4-0.1-0.7,0.1-1,0.1c-0.9,0-1.2,0-2.2-0.3c0-0.9,0.5-1.4,0.7-2.1
				c0.2-0.6-0.1-1.3-0.1-2c0-0.4,0-0.8,0-1.3c-0.3,0.3-0.2,1.1-0.2,1.5c-0.1-0.5-0.1-1.2-0.3-1.7c-0.1,0.5,0,1.2,0,1.7
				c-0.1-0.5-0.2-1-0.4-1.5c-0.2,0.5,0.1,1.2,0.1,1.6c-0.2-0.4-0.3-0.9-0.5-1.3c-0.1,0.6,0.2,1,0.2,1.4c-0.2-0.3-0.3-0.8-0.5-1
				c0,0.4,0.2,0.8,0.4,1.2c-0.2-0.1-0.3-0.4-0.6-0.5c0,0.3,0.2,0.4,0.3,0.7c-0.2-0.1-0.3-0.3-0.5-0.4c0,0.3,0.2,0.3,0.3,0.6
				c-0.1-0.1-0.2-0.2-0.4-0.2c0,0.2,0.3,0.3,0.2,0.4c0,0-0.2-0.1-0.2,0c0,0,0.2,0.1,0.1,0.2c-0.1,0-0.1,0-0.2,0
				c0,0.1,0.1,0.1,0.1,0.2c-0.1,0-0.1-0.1-0.1,0c0,0.1,0.1,0.1,0.1,0.2c-0.7,0.8-0.3,1.6-0.4,2.5c0-0.1-0.6-0.3-1.1-0.5
				c-0.3-0.1-0.3-0.4-0.5-0.5c0-0.1,0.1,0,0.1-0.1c-0.1,0-0.2-0.1-0.2-0.2c0.1,0,0.3,0,0.3,0c-0.1-0.1-0.5-0.1-0.4-0.3
				c0.2,0,0.4,0.1,0.5,0.1c-0.2-0.1-0.6-0.3-0.6-0.4c0.2,0.1,0.5,0.3,0.7,0.2c-0.3-0.2-0.7-0.4-0.8-0.6c0.2,0.1,0.5,0.4,0.7,0.4
				c-0.4-0.1-0.7-0.5-1-0.5c0.2,0.3,0.7,0.5,0.8,0.8c-0.3-0.2-0.6-0.3-0.9-0.4c0.1,0.4,0.5,0.5,0.8,0.7c-0.3,0-0.4-0.1-0.7-0.2
				c0.1,0.3,0.5,0.2,0.7,0.4c-0.1-0.1-0.3,0-0.5,0c0,0.2,0.3,0.1,0.5,0.2c-0.2,0-0.3,0-0.4,0.1c0.1,0.1,0.3,0.1,0.4,0.2
				c-0.1,0-0.2,0-0.2,0.1c0,0.1,0.2,0,0.2,0.1c-0.1,0-0.1,0.1-0.1,0.1c0.1,0,0.2,0,0.2,0c0,0-0.1,0-0.1,0.1c0.4,0.2,0.6,0.9,1.2,1
				c-0.3,0.2,0.3,0.4-3.2,1.6c0.1,0,1.5-0.3,1.9-0.5c0.4-0.1,0.9-0.3,1.3-0.4c0.1,0,0.2-0.1,0.3-0.1c0.7-0.1,1.4,0.1,2.1-0.4
				c-0.5,0.1-1.4,0.2-1.8-0.1c0.5-0.7,0.1-2.6,0.5-3c0.4-0.4,1-1.6,1.7-0.5c0.1,0.2,0.1,0.4-0.1,0.8c-0.3,0.5-0.5,0.8-0.5,1.9
				c0,0.2,0,0.5-0.4,0.5c1.5,0.3,1.9,0.2,2.8,0c0.3,0,0.7-0.3,0.7,0c0,0.1-0.3,0.1-0.5,0.1c-0.4,0,0.2,0.1,0.4,0.1
				c0.1,0,0.9-0.1,1.3-0.2C73.9,94.1,73.7,94.1,73.5,94.1z"/>
			<path class="st7" d="M69.1,86.4c-3.4,0-6.2,2.8-6.2,6.2c0,3.4,2.8,6.2,6.2,6.2c3.4,0,6.2-2.8,6.2-6.2
				C75.3,89.2,72.5,86.4,69.1,86.4 M69.1,86.6c3.3,0,6,2.7,6,6c0,3.3-2.7,6-6,6c-3.3,0-6-2.7-6-6C63.1,89.3,65.8,86.6,69.1,86.6"/>
		</g>
	</g>
</g>
<g id="doma">
</g>
<g id="butylka_3">
</g>
<g id="butylka_2">
</g>
<g id="butylka_1">
</g>
<g id="vanna_2">
</g>
<g id="shariki_2">
</g>
<g id="shariki_1">
</g>
<g id="voronka">
</g>
<g id="gradusnik">
</g>
<g id="kolba_2">
</g>
<g id="kolba_1">
</g>
<g id="probirki">
</g>
<g id="lupa">
</g>
<g id="zavod">
</g>
<g id="blank">
</g>
<g id="ticks">
</g>
<g id="car">
</g>
</svg>
