<?xml version="1.0" encoding="utf-8"?>
<!-- Generator: Adobe Illustrator 19.0.0, SVG Export Plug-In . SVG Version: 6.00 Build 0)  -->
<svg version="1.1" xmlns="http://www.w3.org/2000/svg" xmlns:xlink="http://www.w3.org/1999/xlink" x="0px" y="0px"
	 viewBox="0 0 274.5 202.5" style="enable-background:new 0 0 274.5 202.5;" xml:space="preserve">
<style type="text/css">
	.st0{fill:#519E38;}
	.st1{fill:none;stroke:#FFFFFF;stroke-width:4;stroke-miterlimit:10;}
	.st2{fill:#FFFFFF;}
	.st3{fill:#EFEFEF;}
</style>
<g id="Layer_2">
</g>
<g id="kolba_4">
</g>
<g id="kolba_3">
</g>
<g id="doma">
</g>
<g id="butylka_3">
</g>
<g id="butylka_2">
</g>
<g id="butylka_1">
</g>
<g id="vanna_2">
</g>
<g id="vanna_1">
	<rect x="50.3" y="49.2" class="st0" width="5.3" height="105.1"/>
	<path class="st0" d="M233.4,49.2L233.3,154c0,0,1.3,11.2-7.7,11.2H58.3c0,0-5-0.3-5-5.8c0-5.5,166.2-2.7,166.2-2.7l7-18.8l1.4-70.8
		l0.3-18.1H233.4z"/>
	<path class="st0" d="M237.3,46.5c0,2.2-1.8,4-4,4h-183c-2.2,0-4-1.8-4-4l0,0c0-2.2,1.8-4,4-4h183C235.5,42.5,237.3,44.3,237.3,46.5
		L237.3,46.5z"/>
	<path class="st1" d="M228.3,155.8c0,2-1.6,3.7-3.7,3.7H54c-2,0-3.7-1.6-3.7-3.7V49.2c0-2,1.6-3.7,3.7-3.7h170.6
		c2,0,3.7,1.6,3.7,3.7V155.8z"/>
	<rect x="50.3" y="95.3" class="st2" width="177.7" height="64.1"/>
	<path class="st3" d="M234.3,43.5c0,2.2-1.8,4-4,4h-183c-2.2,0-4-1.8-4-4l0,0c0-2.2,1.8-4,4-4h183C232.5,39.5,234.3,41.3,234.3,43.5
		L234.3,43.5z"/>
	<path class="st2" d="M67.1,81.4c0,1.7-1.4,3.1-3.1,3.1l0,0c-1.7,0-3.1-1.4-3.1-3.1V58.6c0-1.7,1.4-3.1,3.1-3.1l0,0
		c1.7,0,3.1,1.4,3.1,3.1V81.4z"/>
</g>
<g id="shariki_2">
</g>
<g id="shariki_1">
</g>
<g id="voronka">
</g>
<g id="gradusnik">
</g>
<g id="kolba_2">
</g>
<g id="kolba_1">
</g>
<g id="probirki">
</g>
<g id="lupa">
</g>
<g id="zavod">
</g>
<g id="blank">
</g>
<g id="ticks">
</g>
<g id="car">
</g>
</svg>
