<?xml version="1.0" encoding="utf-8"?>
<!-- Generator: Adobe Illustrator 19.0.0, SVG Export Plug-In . SVG Version: 6.00 Build 0)  -->
<svg version="1.1" xmlns="http://www.w3.org/2000/svg" xmlns:xlink="http://www.w3.org/1999/xlink" x="0px" y="0px"
	 viewBox="0 0 307.5 255" style="enable-background:new 0 0 307.5 255;" xml:space="preserve">
<style type="text/css">
	.st0{fill:#519E38;}
	.st1{fill:#F9E0B2;}
	.st2{fill:none;stroke:#FFFFFF;stroke-width:4;stroke-miterlimit:10;}
	.st3{fill:#EFEFEF;}
	.st4{fill:#FFFFFF;}
	.st5{fill:#431C51;}
	.st6{fill:#EDEDED;}
	.st7{fill:none;stroke:#636363;stroke-width:0.75;}
	.st8{fill:#636363;}
	.st9{fill:#1E1E1E;}
</style>
<g id="Layer_2">
</g>
<g id="kolba_4">
</g>
<g id="kolba_3">
</g>
<g id="kolby">
</g>
<g id="doma">
</g>
<g id="car">
</g>
<g id="butylka_3">
</g>
<g id="butylka_2">
</g>
<g id="tvorog">
</g>
<g id="butylka_1">
</g>
<g id="vanna_2">
</g>
<g id="sneg">
</g>
<g id="vigimka">
</g>
<g id="vanna_1">
	<rect x="60" y="79.1" class="st0" width="5.3" height="105.1"/>
	<path class="st0" d="M243.1,79.1L243,183.9c0,0,1.3,11.2-7.7,11.2H68c0,0-5-0.3-5-5.8c0-5.5,166.2-2.7,166.2-2.7l7-18.8l1.4-70.8
		l0.3-18.1H243.1z"/>
	<rect x="60" y="125.3" class="st1" width="177.7" height="64.1"/>
	<path class="st0" d="M247,76.4c0,2.2-1.8,4-4,4H60c-2.2,0-4-1.8-4-4l0,0c0-2.2,1.8-4,4-4h183C245.2,72.4,247,74.2,247,76.4
		L247,76.4z"/>
	<path class="st2" d="M238,185.7c0,2-1.6,3.7-3.7,3.7H63.7c-2,0-3.7-1.6-3.7-3.7V79.1c0-2,1.6-3.7,3.7-3.7h170.6
		c2,0,3.7,1.6,3.7,3.7V185.7z"/>
	<path class="st3" d="M244,73.4c0,2.2-1.8,4-4,4H57c-2.2,0-4-1.8-4-4l0,0c0-2.2,1.8-4,4-4h183C242.2,69.4,244,71.2,244,73.4
		L244,73.4z"/>
	<path class="st4" d="M76.8,111.3c0,1.7-1.4,3.1-3.1,3.1l0,0c-1.7,0-3.1-1.4-3.1-3.1V88.5c0-1.7,1.4-3.1,3.1-3.1l0,0
		c1.7,0,3.1,1.4,3.1,3.1V111.3z"/>
</g>
<g id="zakvaska">
</g>
<g id="shariki_2">
</g>
<g id="shariki_1">
</g>
<g id="voronka">
</g>
<g id="gradusnik">
</g>
<g id="kolba_2">
</g>
<g id="kolba_1">
</g>
<g id="probirki">
</g>
<g id="lupa">
</g>
<g id="bidon">
</g>
<g id="blank">
</g>
<g id="clock">
	<g>
		<circle class="st0" cx="237" cy="190.8" r="36.2"/>
		<g>
			<circle class="st5" cx="233" cy="188" r="36.2"/>
			<circle class="st6" cx="233" cy="188" r="29.9"/>
			<ellipse class="st7" cx="233" cy="188" rx="27.4" ry="27.7"/>
			<rect x="231.9" y="160.6" class="st8" width="2.3" height="6.1"/>
			
				<rect x="218.9" y="164.5" transform="matrix(0.8118 -0.584 0.584 0.8118 -56.4343 160.0502)" class="st8" width="2.3" height="6.1"/>
			
				<rect x="211.1" y="172.9" transform="matrix(0.4662 -0.8847 0.8847 0.4662 -42.378 281.6415)" class="st8" width="2.3" height="6.1"/>
			
				<rect x="245.2" y="164.1" transform="matrix(-0.812 -0.5837 0.5837 -0.812 348.8023 446.7006)" class="st8" width="2.3" height="6.1"/>
			
				<rect x="253.3" y="172.9" transform="matrix(-0.4662 -0.8847 0.8847 -0.4662 217.4981 483.1076)" class="st8" width="2.3" height="6.1"/>
			
				<rect x="218.9" y="205.8" transform="matrix(0.812 0.5837 -0.5837 0.812 163.2935 -89.1762)" class="st8" width="2.3" height="6.1"/>
			
				<rect x="210.2" y="196.1" transform="matrix(0.4666 0.8845 -0.8845 0.4666 288.8891 -80.7097)" class="st8" width="2.3" height="6.1"/>
			
				<rect x="245.8" y="205.4" transform="matrix(-0.8119 0.5838 -0.5838 -0.8119 569.0556 233.4789)" class="st8" width="2.3" height="6.1"/>
			
				<rect x="253.5" y="196.5" transform="matrix(-0.4667 0.8844 -0.8844 -0.4667 550.0481 67.4928)" class="st8" width="2.3" height="6.1"/>
			<rect x="231.9" y="210" class="st8" width="2.3" height="6.1"/>
			<rect x="254.7" y="186.9" class="st8" width="6.1" height="2.3"/>
			<rect x="205.3" y="186.9" class="st8" width="6.1" height="2.3"/>
			<circle class="st9" cx="233.4" cy="187.2" r="2.1"/>
			
				<rect x="236.2" y="166.2" transform="matrix(0.9387 0.3448 -0.3448 0.9387 75.6302 -70.8505)" class="st9" width="1.6" height="21.9"/>
			
				<rect x="239.6" y="181" transform="matrix(-0.1081 0.9941 -0.9941 -0.1081 453.4133 -30.6803)" class="st9" width="1.6" height="14"/>
		</g>
	</g>
</g>
</svg>
