<?xml version="1.0" encoding="utf-8"?>
<!-- Generator: Adobe Illustrator 19.0.0, SVG Export Plug-In . SVG Version: 6.00 Build 0)  -->
<svg version="1.1" xmlns="http://www.w3.org/2000/svg" xmlns:xlink="http://www.w3.org/1999/xlink" x="0px" y="0px"
	 viewBox="164 -164 385.5 384" style="enable-background:new 164 -164 385.5 384;" xml:space="preserve">
<style type="text/css">
	.st0{fill:#519E38;}
	.st1{fill:none;stroke:#FFFFFF;stroke-width:4;stroke-miterlimit:10;}
	.st2{fill:#FFFFFF;}
	.st3{fill:#EFEFEF;}
	.st4{fill:#54A4AF;}
</style>
<g id="bath">
	<g id="vanna_1">
		<rect x="268.2" y="40.9" class="st0" width="5.3" height="105.1"/>
		<path class="st0" d="M451.2,40.9l-0.1,104.8c0,0,1.3,11.2-7.7,11.2H276.2c0,0-5-0.3-5-5.8s166.2-2.7,166.2-2.7l7-18.8l1.4-70.8
			l0.3-18.1h5.1V40.9z"/>
		<path class="st0" d="M455.2,38.3c0,2.2-1.8,4-4,4h-183c-2.2,0-4-1.8-4-4l0,0c0-2.2,1.8-4,4-4h183
			C453.4,34.3,455.2,36.1,455.2,38.3L455.2,38.3z"/>
		<path class="st1" d="M446.2,147.6c0,2-1.6,3.7-3.7,3.7H271.8c-2,0-3.7-1.6-3.7-3.7V40.9c0-2,1.6-3.7,3.7-3.7h170.6
			c2,0,3.7,1.6,3.7,3.7L446.2,147.6L446.2,147.6z"/>
		<rect x="268.2" y="87.1" class="st2" width="177.7" height="64.1"/>
		<path class="st3" d="M452.2,35.3c0,2.2-1.8,4-4,4h-183c-2.2,0-4-1.8-4-4l0,0c0-2.2,1.8-4,4-4h183
			C450.4,31.3,452.2,33.1,452.2,35.3L452.2,35.3z"/>
		<path class="st2" d="M285,73.2c0,1.7-1.4,3.1-3.1,3.1l0,0c-1.7,0-3.1-1.4-3.1-3.1V50.4c0-1.7,1.4-3.1,3.1-3.1l0,0
			c1.7,0,3.1,1.4,3.1,3.1V73.2z"/>
	</g>
</g>
<g id="_x31_">
	<g id="Layer_2">
	</g>
	<g id="kolba_4">
		<g>
			<polygon class="st0" points="442.5,-56.9 435.5,-75.6 403.8,-107.4 402.8,-108.3 400.9,-105.7 430,-77.1 433.5,-74.7 440,-54.4 
							"/>
			<path class="st0" d="M500.4-70.1L500.4-70.1c-0.7-0.5-1.3-0.8-1.3-0.8l-52.3-17.7L417-118.5l-1.2-1l-1.3,1.3l0.2,1.9L445.4-86
				l25.1,8.2L490-68l0.7,7.7l-12,14.3l-5.8,5.3c0,0-19.4,19.8-18.2,20.9c0.4,0.3,0.8,0.5,1.3,0.5l0,0c0,0,1.7,1.9,5.4-1.9
				c3.8-3.8,33.7-33.7,33.7-33.7l2-3.3l1.9-1.9l-1.3,2.1l5-4.1C505.6-66.9,500.4-70.1,500.4-70.1z"/>
		</g>
		<path class="st0" d="M502.7-66c1.1,1.1,1.1,2.9,0,3.9l-42.8,42.8c-1.1,1.1-2.9,1.1-3.9,0l0,0c-1.1-1.1-1.1-2.9,0-3.9L498.8-66
			C499.9-67.1,501.6-67.1,502.7-66L502.7-66z"/>
		<path class="st0" d="M413.9-120.4L401-107.5c-0.7,0.7-0.7,1.9,0,2.6c0.7,0.7,1.9,0.7,2.6,0l12.9-12.9c0.7-0.7,0.7-1.9,0-2.6
			C415.7-121.2,414.6-121.2,413.9-120.4z"/>
		<g>
			<g>
				<path class="st2" d="M472.3-76.6L442-46.3l8.2,23.5c1.3,3.7,4.6,4.6,7.4,1.8l40-40c2.8-2.8,1.9-6.1-1.8-7.4L472.3-76.6z"/>
			</g>
		</g>
		<g>
			<g>
				<polygon class="st3" points="443,-47.1 471.5,-75.6 463.9,-78.3 440.2,-54.6 				"/>
			</g>
		</g>
		<g>
			<g>
				<path class="st2" d="M412-117l31.9,31.9c0.3,0.3,0.6,0.4,1,0.5s0.8,0.2,1.1,0.3l26.3,9l0,0l0,0l24,8.2c1.2,0.4,2,1.1,2.2,1.9
					s-0.2,1.7-1.1,2.6L456-21.2c-0.9,0.9-1.9,1.3-2.6,1.1c-0.8-0.2-1.5-1-1.9-2.2l-8.2-24l0,0l0,0l-9-26.3c-0.1-0.4-0.2-0.7-0.3-1.1
					c-0.1-0.4-0.2-0.7-0.5-1l-31.9-31.9L412-117L412-117z M412-119.6l-13,12.9l33.2,33.2c0.1,0.5,0.2,1,0.4,1.4l9,26.3l0,0l0,0
					l8.2,24c1.3,3.8,4.7,4.6,7.5,1.8l41.4-41.4c2.8-2.8,2.1-6.2-1.8-7.5L473-77l0,0l0,0l-26.3-9c-0.4-0.2-0.9-0.3-1.4-0.4L412-119.6
					L412-119.6z"/>
			</g>
		</g>
		<path class="st3" d="M411.4-120.2l-12.9,12.9c-0.7,0.7-0.7,1.9,0,2.6c0.7,0.7,1.9,0.7,2.6,0l12.9-13c0.7-0.7,0.7-1.9,0-2.6
			C413.3-120.9,412.1-120.9,411.4-120.2z"/>
		<path class="st2" d="M442.6-65.3c-0.2,0.2-0.4,0.3-0.6,0.4c-0.9,0.3-1.9-0.1-2.2-1l-2.7-6.9c-0.3-0.9,0.1-1.9,1-2.2
			c0.9-0.3,1.9,0.1,2.2,1l2.7,6.9C443.3-66.5,443.1-65.8,442.6-65.3z"/>
		<path class="st2" d="M435.4-79.2c-0.6,0.6-1.6,0.6-2.2,0l-24.6-24.6c-0.6-0.6-0.6-1.6,0-2.2c0.6-0.6,1.6-0.6,2.2,0l24.6,24.6
			C436-80.8,436-79.8,435.4-79.2z"/>
		<path class="st4" d="M458.5-120.5"/>
	</g>
	<g id="car">
	</g>
	<g id="lupa">
	</g>
	<g id="blank">
	</g>
</g>
<g id="_x32_">
	<g id="kolba_3">
		<g>
			<polygon class="st0" points="248.5,-78.1 267.2,-85 298.9,-116.8 299.9,-117.8 297.2,-119.7 268.6,-90.6 266.3,-87.1 
				245.9,-80.6 			"/>
			<path class="st0" d="M261.6-20.2L261.6-20.2c0.5-0.7,0.8-1.3,0.8-1.3l17.7-52.3l29.9-29.7l1-1.2l-1.3-1.3l-1.9,0.2l-30.3,30.7
				L269.3-50l-9.7,19.4l-7.7,0.7L237.6-42l-5.3-5.8c0,0-19.8-19.4-20.9-18.2c-0.3,0.4-0.5,0.8-0.5,1.3l0,0c0,0-1.9,1.7,1.9,5.4
				c3.8,3.8,33.7,33.7,33.7,33.7l3.3,2l1.9,1.9l-2.1-1.3l4.1,5C258.4-14.9,261.6-20.2,261.6-20.2z"/>
		</g>
		<path class="st0" d="M257.6-17.9c-1.1,1.1-2.9,1.1-3.9,0l-42.8-42.8c-1.1-1.1-1.1-2.9,0-3.9l0,0c1.1-1.1,2.9-1.1,3.9,0l42.8,42.8
			C258.7-20.7,258.7-19,257.6-17.9L257.6-17.9z"/>
		<path class="st0" d="M312-106.7l-13-13c-0.7-0.7-1.9-0.7-2.6,0c-0.7,0.7-0.7,1.9,0,2.6l12.9,12.9c0.7,0.7,1.9,0.7,2.6,0
			C312.7-104.8,312.7-106,312-106.7z"/>
		<g>
			<g>
				<path class="st2" d="M268.2-48.3l-30.4-30.3l-23.5,8.2c-3.7,1.3-4.6,4.6-1.8,7.4l40,40c2.8,2.8,6.1,1.9,7.4-1.8L268.2-48.3z"/>
			</g>
		</g>
		<g>
			<g>
				<polygon class="st3" points="238.6,-77.6 267.1,-49.1 269.9,-56.7 246.1,-80.4 				"/>
			</g>
		</g>
		<g>
			<g>
				<path class="st2" d="M308.6-108.6l-31.9,31.9c-0.3,0.3-0.4,0.6-0.5,1c-0.1,0.4-0.2,0.8-0.3,1.1l-9,26.3l0,0l0,0l-8.2,24
					c-0.4,1.2-1.1,2-1.9,2.2c-0.8,0.2-1.7-0.2-2.6-1.1l-41.5-41.4c-0.9-0.9-1.3-1.9-1.1-2.6c0.2-0.8,1-1.5,2.2-1.9l24-8.2l0,0l0,0
					l26.3-9c0.4-0.1,0.7-0.2,1.1-0.3c0.4-0.1,0.7-0.2,1-0.5l32-31.9L308.6-108.6L308.6-108.6z M311.1-108.6l-12.9-12.9L265-88.3
					c-0.5,0.1-1,0.2-1.4,0.4l-26.3,9l0,0l0,0l-24,8.2c-3.8,1.3-4.6,4.7-1.8,7.5l41.4,41.4c2.8,2.8,6.2,2.1,7.5-1.8l8.2-24l0,0l0,0
					l9-26.3c0.2-0.4,0.3-0.9,0.4-1.4L311.1-108.6L311.1-108.6z"/>
			</g>
		</g>
		<path class="st3" d="M311.7-109.2l-12.9-12.9c-0.7-0.7-1.9-0.7-2.6,0s-0.7,1.9,0,2.6l12.9,12.9c0.7,0.7,1.9,0.7,2.6,0
			C312.4-107.3,312.4-108.5,311.7-109.2z"/>
		<path class="st2" d="M256.8-77.9c-0.2-0.2-0.3-0.4-0.4-0.6c-0.3-0.9,0.1-1.9,1-2.2l6.9-2.7c0.9-0.3,1.9,0.1,2.2,1s-0.1,1.9-1,2.2
			l-6.9,2.7C258-77.3,257.3-77.5,256.8-77.9z"/>
		<path class="st2" d="M270.7-85.2c-0.6-0.6-0.6-1.6,0-2.2l24.7-24.6c0.6-0.6,1.6-0.6,2.2,0c0.6,0.6,0.6,1.6,0,2.2L273-85.2
			C272.3-84.6,271.3-84.6,270.7-85.2z"/>
		<path class="st4" d="M312.4-107.3"/>
	</g>
</g>
</svg>
