<?xml version="1.0" encoding="utf-8"?>
<!-- Generator: Adobe Illustrator 19.0.0, SVG Export Plug-In . SVG Version: 6.00 Build 0)  -->
<svg version="1.1" xmlns="http://www.w3.org/2000/svg" xmlns:xlink="http://www.w3.org/1999/xlink" x="0px" y="0px"
	 viewBox="0 0 289.5 244.5" style="enable-background:new 0 0 289.5 244.5;" xml:space="preserve">
<style type="text/css">
	.st0{fill:#519E38;}
	.st1{fill:#F9E0B2;}
	.st2{fill:none;stroke:#FFFFFF;stroke-width:4;stroke-miterlimit:10;}
	.st3{fill:#EFEFEF;}
	.st4{fill:#FFFFFF;}
	.st5{fill:#431C51;}
	.st6{fill:#EDEDED;}
	.st7{fill:none;stroke:#636363;stroke-width:0.75;}
	.st8{fill:#636363;}
	.st9{fill:#1E1E1E;}
</style>
<g id="Layer_2">
</g>
<g id="kolba_4">
</g>
<g id="kolba_3">
</g>
<g id="kolby">
</g>
<g id="doma">
</g>
<g id="car">
</g>
<g id="butylka_3">
</g>
<g id="tvorog">
</g>
<g id="butylka_1">
</g>
<g id="vanna_2">
</g>
<g id="sneg">
</g>
<g id="vigimka">
</g>
<g id="vanna_1">
	<rect x="51" y="62.1" class="st0" width="5.3" height="105.1"/>
	<path class="st0" d="M234.1,62.1L234,167c0,0,1.3,11.2-7.7,11.2H59c0,0-5-0.3-5-5.8c0-5.5,166.2-2.7,166.2-2.7l7-18.8l1.4-70.8
		l0.3-18.1H234.1z"/>
	<rect x="51" y="108.3" class="st1" width="177.7" height="64.1"/>
	<path class="st0" d="M238,59.5c0,2.2-1.8,4-4,4H51c-2.2,0-4-1.8-4-4l0,0c0-2.2,1.8-4,4-4h183C236.2,55.5,238,57.2,238,59.5
		L238,59.5z"/>
	<path class="st2" d="M229,168.7c0,2-1.6,3.7-3.7,3.7H54.7c-2,0-3.7-1.6-3.7-3.7V62.1c0-2,1.6-3.7,3.7-3.7h170.6
		c2,0,3.7,1.6,3.7,3.7V168.7z"/>
	<path class="st3" d="M235,56.5c0,2.2-1.8,4-4,4H48c-2.2,0-4-1.8-4-4l0,0c0-2.2,1.8-4,4-4h183C233.2,52.5,235,54.2,235,56.5
		L235,56.5z"/>
	<path class="st4" d="M67.8,94.4c0,1.7-1.4,3.1-3.1,3.1l0,0c-1.7,0-3.1-1.4-3.1-3.1V71.6c0-1.7,1.4-3.1,3.1-3.1l0,0
		c1.7,0,3.1,1.4,3.1,3.1V94.4z"/>
</g>
<g id="zakvaska">
</g>
<g id="shariki_2">
</g>
<g id="shariki_1">
</g>
<g id="voronka">
</g>
<g id="gradusnik">
</g>
<g id="kolba_2">
</g>
<g id="kolba_1">
</g>
<g id="probirki">
</g>
<g id="lupa">
</g>
<g id="bidon">
</g>
<g id="blank">
</g>
<g id="clock">
	<g>
		<circle class="st0" cx="228" cy="168.6" r="36.2"/>
		<g>
			<circle class="st5" cx="224" cy="165.8" r="36.2"/>
			<circle class="st6" cx="224" cy="165.8" r="29.9"/>
			<ellipse class="st7" cx="224" cy="165.8" rx="27.4" ry="27.7"/>
			<rect x="222.9" y="138.4" class="st8" width="2.3" height="6.1"/>
			
				<rect x="209.9" y="142.3" transform="matrix(0.8118 -0.584 0.584 0.8118 -45.1646 150.6166)" class="st8" width="2.3" height="6.1"/>
			
				<rect x="202.1" y="150.7" transform="matrix(0.4662 -0.8847 0.8847 0.4662 -27.5425 261.8303)" class="st8" width="2.3" height="6.1"/>
			
				<rect x="236.2" y="141.9" transform="matrix(-0.812 -0.5837 0.5837 -0.812 345.4523 401.2222)" class="st8" width="2.3" height="6.1"/>
			
				<rect x="244.3" y="150.7" transform="matrix(-0.4662 -0.8847 0.8847 -0.4662 223.942 442.5963)" class="st8" width="2.3" height="6.1"/>
			
				<rect x="209.9" y="183.6" transform="matrix(0.812 0.5837 -0.5837 0.812 148.6444 -88.0972)" class="st8" width="2.3" height="6.1"/>
			
				<rect x="201.2" y="173.9" transform="matrix(0.4666 0.8845 -0.8845 0.4666 264.4532 -84.5918)" class="st8" width="2.3" height="6.1"/>
			
				<rect x="236.8" y="183.2" transform="matrix(-0.8119 0.5838 -0.5838 -0.8119 539.7894 198.509)" class="st8" width="2.3" height="6.1"/>
			
				<rect x="244.5" y="174.3" transform="matrix(-0.4667 0.8844 -0.8844 -0.4667 517.2148 42.8909)" class="st8" width="2.3" height="6.1"/>
			<rect x="222.9" y="187.8" class="st8" width="2.3" height="6.1"/>
			<rect x="245.7" y="164.7" class="st8" width="6.1" height="2.3"/>
			<rect x="196.3" y="164.7" class="st8" width="6.1" height="2.3"/>
			<circle class="st9" cx="224.4" cy="165" r="2.1"/>
			
				<rect x="227.2" y="144" transform="matrix(0.9387 0.3448 -0.3448 0.9387 67.4241 -69.1089)" class="st9" width="1.6" height="21.9"/>
			
				<rect x="230.6" y="158.8" transform="matrix(-0.1081 0.9941 -0.9941 -0.1081 421.3712 -46.3336)" class="st9" width="1.6" height="14"/>
		</g>
	</g>
</g>
</svg>
