<?xml version="1.0" encoding="utf-8"?>
<!-- Generator: Adobe Illustrator 19.0.0, SVG Export Plug-In . SVG Version: 6.00 Build 0)  -->
<svg version="1.1" id="butylka_2" xmlns="http://www.w3.org/2000/svg" xmlns:xlink="http://www.w3.org/1999/xlink" x="0px" y="0px"
	 viewBox="0 0 130 250" style="enable-background:new 0 0 130 250;" xml:space="preserve">
<style type="text/css">
	.st0{fill:#519E38;}
	.st1{fill:#EDD096;}
	.st2{fill:#D6B780;}
	.st3{fill:#F4E3C3;}
	.st4{fill:#AA4A47;}
	.st5{fill:#62BA47;}
	.st6{fill-rule:evenodd;clip-rule:evenodd;fill:#AA4A47;}
	.st7{fill-rule:evenodd;clip-rule:evenodd;fill:#62BA47;}
	.st8{fill:#FFFFFF;}
	.st9{fill:#63B746;}
</style>
<path class="st0" d="M106.1,207.5c0,0,0-61,0-94.2c0-33.2-13.8-45.8-13.8-45.8c3.7-20.5-6.2-26.7-6.2-26.7v-7.4h2.1c0,0,0-8,0-10.6
	s-3.7-2.3-3.7-2.3H71.1h-1.2H56.3c0,0-3.7-0.3-3.7,2.3s0,10.6,0,10.6h2.2v7.4h-0.1c0,0-9.8,6.2-6.2,26.7c0,0-13.8,12.7-13.8,45.8
	c0,33.2,0,94.2,0,94.2s-1.4,20.3,13.5,20.3c4,0,7.4,0,10.2,0c7.7,0,11.1,0,11.1,0h0.7h0.8h0.1h11.1h0.1c2.8,0,6.2,0,10.2,0
	c0,0,0,0,0.1,0C107.5,227.8,106.1,207.5,106.1,207.5z"/>
<path class="st1" d="M98.2,202.7c0,0,0-61,0-94.2c0-33.2-13.8-45.8-13.8-45.8c3.7-20.5-6.2-26.7-6.2-26.7v-7.6H47v7.6h-0.1
	c0,0-9.8,6.2-6.2,26.7c0,0-13.8,12.7-13.8,45.8c0,33.2,0,94.2,0,94.2S25.5,223,40.4,223c4,0,7.4,0,10.2,0c7.7,0,11.1,0,11.1,0h1.5
	h11.1c2.8,0,6.2,0,10.2,0C99.6,223,98.2,202.7,98.2,202.7z"/>
<path class="st2" d="M98.1,202.7c0,0,0-61,0-94.2c0-33.2-13.8-45.8-13.8-45.8c3.7-20.5-6.2-26.7-6.2-26.7v-7.6H62.5V223h0.8h11.1
	c2.8,0,6.2,0,10.2,0C99.6,223,98.1,202.7,98.1,202.7z"/>
<path class="st3" d="M38.5,97.6c-0.2,0-0.3,0-0.5,0c-2.2-0.3-3.7-2.3-3.4-4.4c1.8-13.6,8.4-21.9,8.6-22.2c1.4-1.7,3.8-2,5.5-0.6
	c1.7,1.4,2,3.8,0.6,5.5c-0.1,0.1-5.5,7-7,18.3C42.2,96.1,40.5,97.6,38.5,97.6z"/>
<g>
	<circle class="st4" cx="64.6" cy="132.3" r="18.9"/>
	<path class="st5" d="M55.4,149.1c0-3.3-2.7-5.9-5.9-5.9c-3.3,0-5.9,2.7-5.9,5.9c0,3.3,2.7,5.9,5.9,5.9
		C52.8,155,55.4,152.3,55.4,149.1z"/>
	<path class="st6" d="M55.6,109.2c0,1.3-1.1,2.4-2.4,2.4c-1.3,0-2.4-1.1-2.4-2.4c0-1.3,1.1-2.4,2.4-2.4
		C54.6,106.7,55.6,107.8,55.6,109.2L55.6,109.2z"/>
	<path class="st7" d="M55.7,117.3c0,1.7-1.4,3.1-3.1,3.1c-1.7,0-3.1-1.4-3.1-3.1c0-1.7,1.4-3.1,3.1-3.1
		C54.4,114.2,55.7,115.6,55.7,117.3L55.7,117.3z"/>
	<path class="st7" d="M47.4,112.5c0,1-0.8,1.8-1.8,1.8c-1,0-1.9-0.8-1.9-1.8c0-1,0.8-1.9,1.9-1.9C46.6,110.7,47.4,111.5,47.4,112.5
		L47.4,112.5z"/>
	<g>
		<path class="st5" d="M91.2,115c0,5.8-4.7,10.4-10.4,10.4c-5.8,0-10.4-4.7-10.4-10.4c0-5.8,4.7-10.4,10.4-10.4
			C86.5,104.6,91.2,109.3,91.2,115z"/>
		<g>
			<path class="st8" d="M78.1,113.6c-0.9,0.1-1.1,1.1-1.1,1.8l0,0l0,0c0,0.1,0,0.2,0,0.3c0,0.3,0,0.6-0.1,0.9c0,0.1-0.1,0.4-0.1,0.4
				c-0.3,0-0.6-0.4-0.6-0.7c-0.2-0.5-0.4-1.1-0.5-1.6c-0.1-0.6-0.2-1.2-0.2-1.8c0-0.2,0-0.5,0-0.8c0-0.1,0-0.2,0-0.3
				c0-0.1,0-0.2,0-0.2c0.1-0.5-0.6,0-0.7,0.2c-0.7,1.2-0.5,2.6-0.5,4c0,0.4,0,0.7-0.1,1.1c0,0.2-0.1,0.7-0.3,0.9
				c-0.1,0.1-0.4,0-0.5,0c-0.2-0.1-0.3-0.3-0.3-0.5c0-0.2-0.2-0.1-0.4,0c-0.1,0.2-0.3,0.4-0.3,0.6c0.1,0.5,0.5,0.9,1,0.7
				c0.8-0.2,1.1-1.2,1.3-1.9c0.1-0.4,0.1-0.7,0.2-1.1c0.1,0.5,0.3,1,0.5,1.5c0.2,0.3,0.5,0.7,0.9,0.6c0.3-0.1,0.6-0.4,0.7-0.8
				c0.1,0.3,0.4,0.6,0.8,0.6c0.4,0,0.8-0.5,0.9-0.8c0.2-0.4,0.2-0.9,0.2-1.3C79.2,114.8,79,113.5,78.1,113.6z M78.4,116.6
				c0,0.1,0,0.2-0.1,0.3c-0.2,0-0.3-0.3-0.3-0.4c-0.1-0.3-0.2-0.6-0.2-0.9c0-0.3,0-0.7,0-1c0-0.1,0-0.2,0.1-0.2
				c0.4,0.3,0.5,0.8,0.6,1.3C78.5,115.9,78.5,116.2,78.4,116.6z"/>
			<path class="st8" d="M88.5,114.8c-0.9-0.3-1.5,0.9-1.6,1.6c-0.2,0.7-0.4,1.8,0.5,2.1c0.4,0.2,0.9-0.1,1.1-0.4
				c0.3-0.3,0.5-0.7,0.6-1.2C89.2,116.3,89.3,115.1,88.5,114.8z M87.9,117.8c0,0.1-0.1,0.1-0.1,0.2c-0.1-0.1-0.2-0.4-0.2-0.5
				c0-0.3,0-0.7,0-1c0.1-0.3,0.2-0.6,0.3-0.9c0-0.1,0.1-0.1,0.1-0.2c0.4,0.4,0.3,1,0.2,1.5C88.2,117.2,88.1,117.5,87.9,117.8z"/>
			<path class="st8" d="M86,114.9c0.2-0.2,0.3-0.5,0.5-0.7c0.3-0.5,0.7-1.1,0.6-1.8c0-0.6-0.8-0.6-1.3-0.4c-0.6,0.3-0.9,0.9-1.1,1.5
				c-0.2,0.8-0.4,1.6-0.4,2.4c0,0,0,0,0,0c-0.3,0.4-0.9,1.1-1.4,0.8c-0.1-0.1-0.2-0.2-0.2-0.4c0.4-0.4,0.7-0.8,1-1.3
				c0.3-0.4,0.5-1.1-0.1-1.4c-0.4-0.3-1,0-1.3,0.4c-0.3,0.4-0.4,0.8-0.5,1.3c0,0.3-0.1,0.7,0,1.1c-0.3,0.2-0.6,0.3-0.9,0.2
				c-0.4-0.1-0.5-0.4-0.6-0.7c-0.1-0.4-0.1-0.9,0-1.3c0-0.1,0.1-0.3,0.1-0.4c0,0,0-0.1,0-0.1c0.2,0.1,0.3,0.4,0.4,0.6
				c0.1,0.3,0.9-0.2,0.8-0.5c-0.1-0.3-0.2-0.6-0.6-0.8c-0.3-0.2-0.8,0.1-1,0.3c-0.6,0.6-0.6,1.4-0.6,2.1c0,0.5,0.1,1.1,0.5,1.3
				c0.6,0.3,1.3,0,1.9-0.3c0.1,0.4,0.4,0.6,0.9,0.5c0.6-0.1,1.1-0.4,1.5-0.8c0,0.4,0.1,0.9,0.4,1.1c0.5,0.3,1.1,0,1.4-0.5
				c0.4-0.5,0.7-1.3,0.4-2C86.5,115.1,86.2,115,86,114.9z M82.8,114.6c0-0.1,0.1-0.2,0.1-0.3c0,0,0,0,0,0c0.2,0.1,0.3,0.4,0.2,0.5
				c0,0.4-0.3,0.7-0.5,1c0-0.1,0-0.1,0-0.2C82.7,115.3,82.7,114.9,82.8,114.6z M85.8,112.9c0.1-0.1,0.1-0.2,0.2-0.3c0,0,0,0,0,0
				c0.4,0.4,0,1-0.2,1.3c-0.2,0.4-0.4,0.7-0.7,1.1c0-0.4,0.1-0.7,0.2-1.1C85.5,113.5,85.7,113.2,85.8,112.9z M85.6,117.1
				c0,0-0.1,0.1-0.1,0.2c0,0-0.1,0-0.1,0c-0.2-0.1-0.2-0.6-0.3-0.8c0-0.2,0-0.4,0-0.5c0.1-0.1,0.2-0.2,0.3-0.3
				c0.2-0.1,0.3,0.1,0.4,0.3C85.9,116.3,85.8,116.8,85.6,117.1z"/>
		</g>
	</g>
	<g>
		<path class="st8" d="M45.4,148.1c0.1-0.3,0.5-0.4,0.7-0.2c0.3,0.2-0.1,0.6-0.3,0.7c-0.2,0.2-0.5,0.4-0.4,0.7
			c0.1,0.2,0.6,0.2,0.7,0.2c0.3,0,0.4,0.2,0.3,0.5c-0.1,0.5-0.8,0.2-1,0c-0.2-0.2-0.6,0.3-0.5,0.5c0.6,0.6,1.5,0.2,1.9-0.5
			c0.2-0.3,0.2-0.7,0-0.9c-0.2-0.2-0.6-0.2-0.9-0.2c-0.1,0-0.1,0-0.1,0.1c0.1-0.1,0.2-0.2,0.4-0.3c0.2-0.1,0.3-0.3,0.4-0.4
			c0.2-0.3,0.2-0.7-0.1-0.9c-0.6-0.4-1.4,0.4-1.6,0.9C44.8,148.6,45.3,148.3,45.4,148.1L45.4,148.1z"/>
		<path class="st8" d="M48.6,150.2c0.5,1.5,2.7,0.4,2.3-0.9c-0.2-0.6-0.9-0.6-1.4-0.7c-0.3-0.1-0.3-0.3-0.3-0.6
			c0.1-0.3,0.1-0.3-0.1-0.1c0.1,0,0.2-0.1,0.2-0.1c0.4-0.1,0.9-0.1,1.3,0.1c0.2,0.1,0.6-0.4,0.4-0.5c-0.5-0.3-1.2-0.2-1.7-0.1
			c-0.5,0.1-0.7,0.6-0.7,1.1c0,0.6,0.6,0.7,1,0.8c0.4,0.1,0.7,0.2,0.7,0.6c0.1,0.7-0.6,0.6-1,0.4c-0.2-0.1-0.2-0.3-0.3-0.5
			C49,149.6,48.5,150,48.6,150.2L48.6,150.2z"/>
		<g>
			<path class="st8" d="M53.6,147.6c-0.6,1-1.4,2-2.1,2.9c-0.3,0.4,0.2,0.4,0.4,0.1c0.8-1,1.6-2,2.2-3.1
				C54.4,147.1,53.7,147.4,53.6,147.6L53.6,147.6z"/>
			<path class="st8" d="M52.5,147.3c-0.4,0-0.7,0.4-0.7,0.7c-0.1,0.3,0.1,0.6,0.5,0.6C52.9,148.7,53.3,147.4,52.5,147.3
				c-0.2,0-0.5,0.4-0.2,0.4c0.2,0,0.3,0.2,0.3,0.3c0,0.1,0,0.1,0,0.2c0,0.1,0,0,0,0c0,0-0.1,0-0.1,0c-0.2,0-0.3-0.2-0.3-0.3
				c0-0.1,0-0.1,0-0.2c0,0,0,0,0,0c0,0,0.1,0,0.1,0C52.4,147.7,52.7,147.3,52.5,147.3z"/>
			<path class="st8" d="M53.5,149.5c-0.4,0-0.7,0.4-0.7,0.7c-0.1,0.3,0.1,0.6,0.5,0.6C54,150.9,54.4,149.5,53.5,149.5
				c-0.2,0-0.5,0.4-0.2,0.4c0.2,0,0.3,0.2,0.3,0.3c0,0.1,0,0.1,0,0.2c0,0.1,0,0,0,0c0,0-0.1,0-0.1,0c-0.2,0-0.3-0.2-0.3-0.3
				c0-0.1,0-0.1,0-0.2c0,0,0,0,0,0c0,0,0.1,0,0.1,0C53.5,149.9,53.8,149.5,53.5,149.5z"/>
		</g>
		<path class="st8" d="M47.5,151.5c0.3-0.2,0.4-0.6,0.5-0.9c0-0.1,0-0.2-0.1-0.3c-0.1-0.1-0.4,0-0.5,0c-0.1,0.1-0.3,0.3-0.3,0.4
			c0,0.2,0.2,0.1,0.3,0.1c0,0,0,0,0,0c0,0,0,0,0,0c0,0.1,0,0.1,0,0.1c0,0.1,0,0.1-0.1,0.2c0,0,0,0,0,0.1c0,0,0,0,0,0c0,0,0,0,0,0
			c0.1-0.1,0,0,0,0c-0.1,0.1-0.2,0.3-0.1,0.4C47.2,151.8,47.4,151.6,47.5,151.5L47.5,151.5z"/>
	</g>
	<g>
		<g>
			<path class="st8" d="M75.5,136.5c0,0-0.1,0-0.1-0.1c0,0-0.1,0-0.1,0c-1.4-0.4-2.2,1.2-2.5,2c-0.1,0.2-0.1,0.4-0.2,0.6
				c0,0,0,0,0,0c-0.1,0.2-0.3,0.5-0.5,0.7c-0.1,0.1,0,0.1-0.1,0c-0.3-0.1-0.1-0.5-0.1-0.7c0-0.4,0.1-0.8-0.1-1.2
				c-0.2-0.3-0.5-0.4-0.8-0.4c0-0.1,0-0.1,0.1-0.2c0-0.1,0.1-0.1,0.1-0.2c0.2-0.3,0.4-0.6,0.7-0.8c0,0,0,0,0,0c0,0,0,0,0,0
				c0.1,0,0.3,0.2,0.3,0.3c0.3,0.3,1.5-0.2,1.2-0.5c-0.4-0.5-0.9-0.6-1.4-0.5c-0.3,0.1-0.6,0.2-0.9,0.4c0,0-0.1,0.1-0.1,0.1
				c0.1-0.5,0.1-1.1,0.1-1.6c0-0.1-0.1-0.2-0.3-0.2c0,0-0.1,0-0.1,0c-0.3,0-0.6,0.2-0.8,0.4c-0.2,0.3-0.4,0.6-0.8,0.4
				c-0.2-0.1-0.3-0.1-0.5-0.3c0,0-0.1-0.1-0.1-0.1c-0.1-0.1-0.2-0.1-0.3-0.1c0,0-0.1,0-0.1,0c0,0-0.1,0-0.1,0
				c-1.4,0-1.8,1.7-1.9,2.6c0,0,0,0,0,0.1c-0.1,0.3-0.2,0.7-0.4,1c-0.1,0.1-0.1,0.3-0.2,0.4c-0.1,0-0.1,0-0.2,0.1
				c-0.1-0.1-0.1-0.2-0.2-0.3c-0.1-0.3-0.2-0.7-0.3-1c-0.2-0.9-0.2-1.9-0.2-2.8c0-0.2-0.2-0.2-0.4-0.2c-0.3,0.1-0.6,0.3-0.7,0.6
				c-0.4,0.9-0.5,1.8-0.5,2.7c0,0.3,0,0.5,0,0.8c0,0.1,0,0.2,0,0.3c-0.2,0-0.4-0.2-0.4-0.4c0-0.3-0.4-0.2-0.7,0.1
				c0.1-0.5,0.1-1,0.1-1.5c0-0.7-0.3-2.4-1.4-2.4c0,0-0.1,0-0.1,0c0,0-0.1,0-0.1,0c-1.4,0.3-1.4,2.1-1.2,2.9c0,0.1,0,0.2,0.1,0.3
				c0,0.2,0,0.3,0,0.5c0,0.2,0,0.4,0,0.7c0,0,0,0.1,0,0.1c0,0,0,0-0.1,0c-0.1,0-0.2-0.1-0.3-0.2c-0.2-0.3-0.4-0.7-0.5-1.1
				c-0.2-0.7-0.5-1.5-0.4-2.3c0-0.2-0.1-0.3-0.3-0.2c-0.3,0.1-0.6,0.4-0.6,0.7c0,0,0,0.1,0,0.1h0l0,0c-0.1,0.5-0.1,0.9-0.2,1.4
				c-0.3-0.5-0.6-1.1-0.5-1.7c0-0.2-0.1-0.3-0.3-0.2c-0.2,0.1-0.5,0.3-0.5,0.5c-0.3,0.9,0,1.9,0.1,2.7c0.1,0.4,0.2,0.9,0.1,1.3
				c0,0-0.1,0-0.1,0c-0.3-0.1-0.4-0.5-0.6-0.7c-0.1-0.2-0.5,0.2-0.5,0.2c-0.1,0.2-0.2,0.5-0.1,0.7c0.3,0.6,0.9,1.2,1.6,0.6
				c0.4-0.4,0.5-1,0.5-1.5c0.2,0.3,0.3,0.7,0.5,1.1c0.2,0.5,0.9-0.4,0.8-0.8c-0.1-0.2-0.1-0.4-0.1-0.7c0.4,0.9,0.9,1.4,1.7,0.8
				c0.2-0.2,0.4-0.4,0.4-0.6c0.2,0.4,0.6,0.7,1,0.6c0.4,0,0.8-0.5,1-0.9c0.1,0.4,0.3,0.6,0.7,0.6c0.5,0,1-0.4,1.2-0.8
				c0.1-0.2,0.2-0.4,0.2-0.6c0,0.1,0,0.2,0.1,0.3c0.1,0.3,0.2,0.7,0.4,0.9c0.3,0.2,0.7,0,0.9-0.2c0.1-0.1,0.1-0.1,0.2-0.2
				c0.2-0.2,0.3-0.4,0.5-0.6c0.1,0.6,0.3,1.1,0.9,1.2c0.5,0.1,1.1-0.4,1.4-0.8c0.3-0.5,0.5-1.1,0.6-1.6c0.1-0.3,0.1-0.8,0.1-1.3
				c0.3-0.1,0.6-0.2,0.9-0.3c0,1.4-0.5,2.8-0.7,4.2c-0.1,0.3,0.2,0.3,0.4,0.2c0.2-0.1,0.5-0.3,0.6-0.5c0.1-0.4,0.3-0.9,0.5-1.3
				c0.5,0.3-0.1,1.7,0.3,2c0.3,0.3,0.8,0.2,1.2,0.1c0.1-0.1,0.3-0.1,0.4-0.2c0,0.4,0.2,0.8,0.6,0.9c0.5,0.2,1.2-0.2,1.5-0.5
				c0.4-0.4,0.8-0.9,1-1.4C75.9,138.6,76.5,137.1,75.5,136.5z M60.9,139.3C60.9,139.3,60.9,139.3,60.9,139.3L60.9,139.3z
				 M61.1,138.8c0,0.1,0,0.2-0.1,0.3c-0.2,0-0.4-0.3-0.5-0.5c-0.2-0.4-0.3-0.8-0.4-1.2c-0.1-0.4-0.1-0.9-0.1-1.3
				c0-0.1,0-0.2,0.1-0.3c0.6,0.1,0.8,1.3,0.9,1.7C61.1,137.9,61.1,138.4,61.1,138.8z M67.4,139.1C67.4,139.2,67.3,139.2,67.4,139.1
				L67.4,139.1z M67.6,138.7c0,0.1-0.1,0.2-0.1,0.3c-0.2-0.1-0.3-0.4-0.4-0.6c-0.1-0.4-0.1-0.8-0.1-1.2c0-0.4,0.1-0.9,0.2-1.3
				c0-0.1,0.1-0.2,0.1-0.3c0,0,0,0,0.1,0c0,0,0,0,0,0c0,0,0.1,0.1,0.1,0.1c0.3,0.4,0.3,1.4,0.3,1.7
				C67.8,137.9,67.7,138.3,67.6,138.7z M73.7,140.6C73.7,140.6,73.7,140.6,73.7,140.6L73.7,140.6z M74.1,140.2
				c-0.1,0.1-0.1,0.2-0.2,0.3c-0.2-0.1-0.2-0.5-0.2-0.7c0-0.4,0.1-0.8,0.2-1.2c0.1-0.4,0.3-0.8,0.5-1.2c0.1-0.1,0.1-0.2,0.2-0.3
				c0.5,0.3,0.1,1.5,0,1.9C74.5,139.5,74.3,139.9,74.1,140.2z"/>
		</g>
		<g>
			<g>
				<path class="st8" d="M57.5,127.4c0,0-0.1,0-0.1,0c0,0-0.1,0-0.1,0c-1.2,0.4-1.1,2.1-1,3c0,0,0,0,0,0c0,0.5,0,1,0,1.5
					c0,0.1,0,0.1-0.1,0.2c-0.4,0.1-0.6-1.2-0.7-1.4c-0.2-0.9-0.4-1.7-0.7-2.6c-0.2-0.6-0.4-1.4-1-1.8c-0.4-0.4-1-0.1-1.3,0.3
					c-0.2,0.2-0.3,0.5-0.4,0.7c-0.3-0.4-0.8-0.7-1.4-0.3c-0.3,0.2-0.4,0.4-0.6,0.6c-0.1-0.2-0.2-0.4-0.4-0.6c-0.4-0.3-1.1,0.8-0.8,1
					c0.2,0.1,0.3,0.5,0.4,0.7c0.2,0.5,0.4,1,0.6,1.5c0.1,0.3,0.2,0.5,0.3,0.8c0.3,1.1,0.8,2.2,1.2,3.3c0,0.1,0.1,0.1,0.2,0.1
					c0.3,0,0.6-0.7,0.5-1c-0.3-1-0.7-1.9-1-2.9c-0.1-0.4-0.2-0.8-0.3-1.3c-0.1-0.4-0.2-0.9-0.2-1.4c0-0.1,0-0.1,0-0.2
					c0.7-0.2,1.1,1.3,1.3,1.6c0.2,0.6,0.4,1.1,0.6,1.7c0.3,0.8,0.5,1.7,0.8,2.5c0,0.1,0.1,0.1,0.2,0.1c0.2,0,0.6-0.6,0.5-0.9
					c-0.3-0.9-0.5-1.8-0.8-2.7c0-0.1-0.1-0.3-0.1-0.4c-0.2-0.7-0.4-1.5-0.3-2.3c0-0.1,0-0.2,0-0.4c0.1,0,0.1,0,0.1,0
					c0.3,0.1,0.4,0.4,0.5,0.6c0.2,0.4,0.3,0.7,0.5,1.1c0.3,0.8,0.5,1.7,0.7,2.5c0.1,0.5,0.3,1.2,0.7,1.6c0.5,0.4,1.1-0.4,1.2-0.8
					c0-0.1,0.1-0.1,0.1-0.2c0.2,0.4,0.6,0.7,1,0.6c0.5-0.1,0.9-0.7,1-1.2c0.2-0.6,0.2-1.2,0.1-1.8C58.9,129,58.5,127.4,57.5,127.4z
					 M58.1,131.8C58.1,131.8,58.1,131.8,58.1,131.8L58.1,131.8z M58.2,131.3c0,0.1,0,0.2,0,0.3c-0.2,0-0.4-0.3-0.5-0.5
					c-0.2-0.4-0.3-0.8-0.4-1.2c0-0.1,0-0.2-0.1-0.3v0c0,0,0-0.1,0-0.1c0-0.3-0.1-0.6-0.1-0.9c0-0.1,0-0.2,0-0.3
					c0.5,0.1,0.8,1.3,0.9,1.6C58.1,130.5,58.2,130.9,58.2,131.3z"/>
				<path class="st8" d="M75.2,128.2c0,0-0.1,0-0.1,0c0,0,0,0-0.1,0c-1.3-0.2-1.9,1.4-2.2,2.2c0,0.2-0.1,0.4-0.1,0.6c0,0,0,0,0,0
					c-0.1,0.3-0.2,0.6-0.4,0.8c0,0-0.2,0-0.2,0s-0.1-0.7-0.1-0.9c0.1-0.8,0.2-1.7,0.5-2.4c0.1-0.2,0.2-0.4,0.3-0.6
					c0.1-0.2,0-0.4-0.3-0.4c-0.3,0-0.6,0.2-0.7,0.4c-0.1,0.2-0.2,0.4-0.3,0.6c-0.1,0.3-0.3,0.5-0.5,0.8c-0.2,0.2-0.3,0.2-0.6,0.4
					c0,0,0,0,0,0c0.1-0.8,0.2-1.6,0.3-2.4c0.1-0.5-1.1,0-1.1,0.3c0,0.5-0.1,1-0.1,1.5c0,0,0,0,0,0c-0.1,0.6-0.4,1.2-0.8,1.5
					c-0.2,0.2-0.7,0.4-1,0.3c-0.3-0.1-0.4-0.3-0.5-0.6c0.3-0.3,0.5-0.5,0.8-0.8c0.5-0.6,1.3-1.6,0.8-2.4c-0.3-0.5-1-0.5-1.5-0.2
					c-0.6,0.4-0.9,1-1,1.7c-0.1,0.6-0.2,1.2-0.1,1.9c-0.2,0.1-0.4,0.3-0.5,0.3h0c0,0,0,0-0.1,0c-0.1-0.1-0.1-0.2-0.2-0.2
					c-0.1-0.3-0.2-0.6-0.2-1c-0.1-1-0.1-1.9-0.1-2.9c0-0.2-0.2-0.2-0.3-0.2c-0.3,0.1-0.5,0.3-0.6,0.6c-0.3,0.7-0.4,1.4-0.5,2.1
					c0,0.4-0.1,0.8-0.1,1.2c-0.1-0.2-0.5,0.1-0.7,0.4c-0.1-0.1-0.1-0.1-0.1-0.2c-0.2-0.5-0.2-1-0.2-1.5c0-0.5,0-1-0.1-1.4
					c-0.1-0.3-0.2-0.8-0.5-0.9c-0.7-0.3-1.3,0.4-1.5,1c-0.1-0.3-0.1-0.5-0.2-0.8c-0.1-0.4-1.1,0.4-0.9,0.8c0.2,0.6,0.3,1.2,0.4,1.9
					c0.1,0.8,0.2,1.6,0.3,2.4c0.1,0.5,0.9-0.3,0.9-0.6c-0.1-1.2-0.1-2.5,0.4-3.6c0,0,0,0,0,0c0.1,0,0.1,0.1,0.2,0.1
					c0.3,0.4,0.3,0.9,0.3,1.3c0.1,0.8-0.1,1.9,0.5,2.6c0.3,0.3,0.6,0.2,0.9,0c0.2,0.2,0.4,0.2,0.7,0.1c0.4-0.2,0.6-0.7,0.7-1.2
					c0,0.1,0,0.1,0,0.2c0.1,0.3,0.2,0.7,0.4,0.9c0.3,0.2,0.6,0,0.9-0.2c0.2-0.1,0.4-0.3,0.6-0.4c0.1,0.3,0.3,0.6,0.6,0.7
					c0.6,0.2,1.3-0.2,1.8-0.5c0.2-0.1,0.4-0.3,0.5-0.4c0,0.3-0.1,0.6-0.2,1c-0.1,0.3,0.2,0.3,0.4,0.2c0.2-0.1,0.5-0.3,0.6-0.6
					c0.1-0.4,0.2-0.9,0.5-1.2c0.1-0.2,0.2-0.2,0.5-0.4c0,0,0,0,0,0c-0.1,0.6-0.2,1.3-0.2,2c0,0.6,0.4,0.7,1,0.6
					c0.3-0.1,0.5-0.2,0.7-0.3c0.1,0.4,0.2,0.7,0.6,0.8c0.5,0.2,1.1-0.3,1.4-0.6c0.4-0.4,0.6-1,0.8-1.5
					C75.7,130.3,76.1,128.7,75.2,128.2z M67.2,129c0.1-0.4,0.1-0.8,0.4-1.2c0,0,0,0,0,0c0.1,0,0.2,0.1,0.2,0.2
					c0.4,0.5-0.2,1.3-0.5,1.7c0,0.1-0.1,0.1-0.1,0.2C67.1,129.5,67.2,129.2,67.2,129z M73.8,132.4C73.8,132.4,73.8,132.4,73.8,132.4
					L73.8,132.4z M74.1,132c-0.1,0.1-0.1,0.2-0.2,0.3c-0.2-0.1-0.2-0.5-0.2-0.6c0-0.4,0-0.8,0.1-1.2c0.1-0.4,0.2-0.8,0.4-1.2
					c0.1-0.1,0.1-0.2,0.2-0.3c0.4,0.3,0.2,1.5,0.1,1.9C74.4,131.2,74.3,131.7,74.1,132z"/>
				<path class="st8" d="M78.3,133.3c-0.1-0.2-0.5-0.1-0.7-0.1c-0.2,0.1-0.7,0.2-0.9-0.1c-0.1-0.2-0.1-0.4-0.2-0.6
					c0.7-0.4,1.4-0.9,2-1.5c0.3-0.4,0.6-0.9,0.3-1.4c-0.6-1-2-0.1-2.4,0.4c-0.6,0.7-1,1.8-1,2.8c0,0.4,0.1,0.7,0.4,1
					c0.5,0.4,1.5,0.1,2-0.1C78,133.8,78.4,133.6,78.3,133.3z M77.1,130.5c0.1-0.2,0.3-0.4,0.4-0.5c0.1,0,0.1,0.1,0.2,0.2
					c0.2,0.3-0.1,0.7-0.3,0.9c-0.2,0.3-0.5,0.5-0.8,0.7C76.7,131.4,76.9,130.9,77.1,130.5z"/>
				<path class="st8" d="M66.9,126.4c0.3,0.1,0.6-0.1,0.8-0.3c0.2-0.2,0.4-0.5,0.5-0.9c0-0.3-0.3-0.2-0.5-0.2
					c-0.2,0.1-0.6,0.3-0.6,0.6c0,0,0,0,0,0.1c0,0,0,0,0,0c0,0,0,0,0,0c0,0,0,0.1,0,0.1c0,0,0,0,0,0.1c0,0,0,0,0,0
					C66.8,126.1,66.7,126.3,66.9,126.4z"/>
				<path class="st8" d="M68.4,126.3c0.3,0,0.6-0.2,0.8-0.4c0.2-0.2,0.3-0.4,0.4-0.7c0.1-0.3-0.3-0.3-0.5-0.2
					c-0.3,0.1-0.6,0.3-0.6,0.6c0,0,0,0,0,0.1c0,0,0,0,0,0h0c0,0,0,0.1,0,0.1c0,0,0,0.1-0.1,0.1C68.2,126,68.1,126.2,68.4,126.3z"/>
			</g>
		</g>
	</g>
	<g>
		<path class="st9" d="M41.7,124.3c-0.1,0-0.2-0.2-0.3-0.2c-0.4-0.1-0.7,0.1-1.1,0.1c-0.9,0-1.2,0-2.3-0.3c0-0.9,0.5-1.5,0.8-2.2
			c0.2-0.6-0.1-1.4-0.1-2.1c0-0.4,0-0.9,0-1.3c-0.3,0.3-0.2,1.1-0.2,1.6c-0.1-0.6-0.1-1.3-0.3-1.8c-0.1,0.5,0,1.3,0,1.8
			c-0.2-0.5-0.2-1.1-0.4-1.6c-0.2,0.5,0.2,1.3,0.1,1.7c-0.2-0.4-0.3-1-0.5-1.4c-0.1,0.6,0.2,1.1,0.2,1.5c-0.2-0.4-0.3-0.8-0.6-1.1
			c0,0.4,0.2,0.9,0.4,1.2c-0.3-0.1-0.3-0.4-0.6-0.5c0,0.3,0.2,0.5,0.3,0.7c-0.2-0.1-0.3-0.3-0.5-0.4c0,0.3,0.2,0.3,0.3,0.6
			c-0.1-0.1-0.2-0.2-0.4-0.3c0,0.2,0.3,0.4,0.3,0.5c0,0-0.2-0.1-0.2,0c0,0,0.2,0.1,0.1,0.2c-0.1,0-0.1,0-0.2,0
			c0,0.1,0.2,0.1,0.1,0.3c-0.1,0-0.1-0.1-0.1,0c0,0.1,0.1,0.1,0.1,0.2c-0.8,0.8-0.4,1.7-0.4,2.6c0-0.1-0.6-0.3-1.2-0.5
			c-0.3-0.1-0.3-0.5-0.6-0.6c0-0.1,0.1,0,0.1-0.1c-0.1,0-0.2-0.1-0.2-0.2c0.1,0,0.3,0,0.3,0c-0.1-0.1-0.5-0.2-0.4-0.3
			c0.2,0,0.4,0.1,0.5,0.1c-0.2-0.1-0.6-0.3-0.6-0.5c0.2,0.1,0.5,0.3,0.7,0.2c-0.3-0.2-0.8-0.4-0.9-0.7c0.2,0.1,0.5,0.4,0.8,0.4
			c-0.4-0.1-0.7-0.6-1.1-0.5c0.2,0.4,0.7,0.5,0.9,0.8c-0.3-0.2-0.6-0.3-0.9-0.5c0.1,0.4,0.5,0.5,0.8,0.7c-0.3,0-0.4-0.2-0.7-0.2
			c0.1,0.3,0.5,0.2,0.7,0.5c-0.1-0.1-0.3,0-0.5,0c0,0.2,0.3,0.1,0.5,0.3c-0.2,0-0.3,0-0.4,0.1c0.1,0.1,0.3,0.1,0.4,0.2
			c-0.1,0-0.2,0-0.2,0.1c0,0.1,0.2,0,0.3,0.1c-0.1,0-0.1,0.1-0.1,0.1c0.1,0,0.2,0,0.2,0c0,0-0.1,0-0.1,0.1c0.4,0.2,0.6,0.9,1.2,1.1
			c-0.3,0.2,0.3,0.4-3.3,1.7c0.1,0,1.6-0.4,2-0.5c0.4-0.2,0.9-0.3,1.3-0.4c0.1,0,0.2-0.1,0.3-0.1c0.8-0.1,1.4,0.1,2.2-0.4
			c-0.6,0.1-1.5,0.2-1.9-0.1c0.5-0.8,0.2-2.7,0.5-3.1c0.4-0.4,1-1.7,1.8-0.6c0.1,0.2,0.1,0.4-0.1,0.9c-0.3,0.6-0.5,0.8-0.5,2
			c0,0.2,0,0.5-0.4,0.5c1.6,0.3,2,0.2,3,0c0.3,0,0.7-0.3,0.8,0c0,0.1-0.3,0.1-0.6,0.1c-0.4,0,0.2,0.2,0.4,0.1c0.1,0,0.9-0.1,1.4-0.2
			C42.1,124.4,41.9,124.4,41.7,124.3z"/>
		<path class="st9" d="M37,116.2c-3.6,0-6.5,2.9-6.5,6.5c0,3.6,2.9,6.5,6.5,6.5c3.6,0,6.5-2.9,6.5-6.5
			C43.6,119.2,40.7,116.2,37,116.2 M37,116.5c3.5,0,6.3,2.8,6.3,6.3c0,3.5-2.8,6.3-6.3,6.3c-3.5,0-6.3-2.8-6.3-6.3
			C30.7,119.3,33.6,116.5,37,116.5"/>
	</g>
</g>
<path class="st8" d="M76.7,15.6H63.2H62H48.5c0,0-3.7-0.3-3.7,2.3c0,2.6,0,10.6,0,10.6H62h1.2h17.2c0,0,0-8,0-10.6
	C80.3,15.3,76.7,15.6,76.7,15.6z"/>
</svg>
