<?xml version="1.0" encoding="utf-8"?>
<!-- Generator: Adobe Illustrator 19.0.0, SVG Export Plug-In . SVG Version: 6.00 Build 0)  -->
<svg version="1.1" xmlns="http://www.w3.org/2000/svg" xmlns:xlink="http://www.w3.org/1999/xlink" x="0px" y="0px"
	 viewBox="50 13 230.5 225" style="enable-background:new 50 13 230.5 225;" xml:space="preserve">
<style type="text/css">
	.st0{fill:#FFB63E;}
	.st1{fill:#FCDAAE;}
	.st2{fill:#1669B3;}
	.st3{fill:#EDEDED;}
	.st4{fill:none;stroke:#636363;stroke-width:0.75;}
	.st5{fill:#636363;}
	.st6{fill:#1E1E1E;}
</style>
<g id="Layer_1">
	<g id="Layer_2">
	</g>
	<g id="kolba_4">
	</g>
	<g id="kolba_3">
	</g>
	<g id="kolby">
	</g>
	<g id="car">
	</g>
	<g id="butylka_3">
	</g>
	<g id="butylka_1">
	</g>
	<g id="vanna_2">
	</g>
	<g id="sneg">
	</g>
	<g id="vanna_1">
	</g>
	<g id="shariki_2">
	</g>
	<g id="shariki_1">
	</g>
	<g id="voronka">
	</g>
	<g id="gradusnik">
	</g>
	<g id="kolba_2">
	</g>
	<g id="kolba_1">
	</g>
	<g id="probirki">
	</g>
	<g id="lupa">
	</g>
	<g id="bidon">
	</g>
	<path class="st0" d="M183,169.4l-69.7-21.2c-6.3-1.9-9.9-8.7-8-15l21.2-69.7c1.9-6.3,8.7-9.9,15-8l69.7,21.2c6.3,1.9,9.9,8.7,8,15
		L198,161.4C196.1,167.7,189.3,171.3,183,169.4z"/>
	<path class="st1" d="M137.1,106.8L137.1,106.8c-4.2-1.3-6.6-5.8-5.3-10l6.4-20.8c1.3-4.2,5.8-6.6,10-5.3l0,0
		c4.2,1.3,6.6,5.8,5.3,10l-6.4,20.8C145.8,105.7,141.3,108,137.1,106.8z"/>
</g>
<g id="clock">
	<circle class="st2" cx="207.9" cy="169.9" r="30.3"/>
	<circle class="st3" cx="207.9" cy="169.9" r="25"/>
	<ellipse class="st4" cx="207.9" cy="169.9" rx="23" ry="23.1"/>
	<rect x="207" y="146.9" class="st5" width="1.9" height="5.1"/>
	
		<rect x="196.1" y="150.2" transform="matrix(-0.8118 0.5839 -0.5839 -0.8118 446.2127 161.7329)" class="st5" width="1.9" height="5.1"/>
	
		<rect x="189.6" y="157.2" transform="matrix(-0.4665 0.8845 -0.8845 -0.4665 420.6786 65.7492)" class="st5" width="1.9" height="5.1"/>
	
		<rect x="218.2" y="149.9" transform="matrix(0.8118 0.5839 -0.5839 0.8118 130.2487 -99.2599)" class="st5" width="1.9" height="5.1"/>
	
		<rect x="225" y="157.3" transform="matrix(0.4665 0.8845 -0.8845 0.4665 261.8863 -114.5467)" class="st5" width="1.9" height="5.1"/>
	
		<rect x="196.1" y="184.8" transform="matrix(-0.8119 -0.5838 0.5838 -0.8119 247.7006 454.4526)" class="st5" width="1.9" height="5.1"/>
	
		<rect x="188.8" y="176.6" transform="matrix(-0.4665 -0.8845 0.8845 -0.4665 119.7748 430.5881)" class="st5" width="1.9" height="5.1"/>
	
		<rect x="218.6" y="184.4" transform="matrix(0.8119 -0.5838 0.5838 0.8119 -67.8261 163.3416)" class="st5" width="1.9" height="5.1"/>
	
		<rect x="225.1" y="177" transform="matrix(0.4665 -0.8845 0.8845 0.4665 -38.2016 295.7285)" class="st5" width="1.9" height="5.1"/>
	<rect x="207" y="188.2" class="st5" width="1.9" height="5.1"/>
	<rect x="226.1" y="168.9" class="st5" width="5.1" height="1.9"/>
	<rect x="184.7" y="168.9" class="st5" width="5.1" height="1.9"/>
	<circle class="st6" cx="208.3" cy="169.2" r="1.8"/>
</g>
<g id="hour">
	
		<rect x="213.5" y="164.1" transform="matrix(0.1079 -0.9942 0.9942 0.1079 22.1367 364.5684)" class="st6" width="1.4" height="11.7"/>
</g>
<g id="minute">
	
		<rect x="210.6" y="151.7" transform="matrix(-0.9386 -0.3451 0.3451 -0.9386 354.1148 384.7598)" class="st6" width="1.4" height="18.3"/>
</g>
</svg>
