<?xml version="1.0" encoding="utf-8"?>
<!-- Generator: Adobe Illustrator 19.0.0, SVG Export Plug-In . SVG Version: 6.00 Build 0)  -->
<svg version="1.1" xmlns="http://www.w3.org/2000/svg" xmlns:xlink="http://www.w3.org/1999/xlink" x="0px" y="0px"
	 viewBox="0 0 333 273" style="enable-background:new 0 0 333 273;" xml:space="preserve">
<style type="text/css">
	.st0{fill:#FFF33B;}
	.st1{fill:#FFFCDC;}
	.st2{fill:#FFFFFF;}
</style>
<g id="kolba_4">
</g>
<g id="kolba_3">
</g>
<g id="kolby">
</g>
<g id="doma">
</g>
<g id="car">
</g>
<g id="butylka_3">
</g>
<g id="butylka_1">
</g>
<g id="vanna_2">
</g>
<g id="sneg">
</g>
<g id="vanna_1">
</g>
<g id="shariki_2">
</g>
<g id="shariki_1">
</g>
<g id="voronka">
</g>
<g id="gradusnik">
</g>
<g id="kolba_2">
</g>
<g id="probirki">
</g>
<g id="lupa">
</g>
<g id="masloboika">
	<path class="st0" d="M198.2,217.8l-69.7-21.2c-6.3-1.9-9.9-8.7-8-15l21.2-69.7c1.9-6.3,8.7-9.9,15-8l69.7,21.2
		c6.3,1.9,9.9,8.7,8,15l-21.2,69.7C211.3,216.2,204.5,219.8,198.2,217.8z"/>
	<path class="st1" d="M152.3,155.2L152.3,155.2c-4.2-1.3-6.6-5.8-5.3-10l6.4-20.8c1.3-4.2,5.8-6.6,10-5.3l0,0
		c4.2,1.3,6.6,5.8,5.3,10l-6.4,20.8C161,154.1,156.5,156.5,152.3,155.2z"/>
	<g>
		<path class="st2" d="M188,24.1l17.1,34.7c0.4,0.6,0.7,1.3,1,2v0c1,2.3,1.5,4.9,1.5,7.6c0,10.8-8.8,19.6-19.6,19.6
			c-10.8,0-19.6-8.8-19.6-19.6c0-2.7,0.6-5.3,1.6-7.7h0l0,0c0.3-0.6,0.6-1.2,0.9-1.8L188,24.1 M188,22.1c-0.8,0-1.5,0.4-1.8,1.1
			L169.1,58c-0.4,0.6-0.7,1.3-1,2c0,0,0,0,0,0.1c-1.1,2.7-1.7,5.5-1.7,8.5c0,11.9,9.7,21.6,21.6,21.6c11.9,0,21.6-9.7,21.6-21.6
			c0-2.9-0.6-5.7-1.7-8.3c0,0,0-0.1,0-0.1c-0.3-0.7-0.6-1.4-1-2.1l-17.1-34.6C189.5,22.6,188.8,22.1,188,22.1L188,22.1z"/>
	</g>
	<ellipse class="st2" cx="178.6" cy="71.5" rx="3.5" ry="3.6"/>
	<path class="st2" d="M179.4,61.3L179.4,61.3c-1.6-0.7-2.3-2.4-1.7-4l5.3-12.9c0.6-1.6,2.4-2.3,4-1.7l0,0c1.6,0.6,2.3,2.4,1.7,4
		l-5.3,12.9C182.8,61.2,181,61.9,179.4,61.3z"/>
</g>
<g id="clock">
</g>
</svg>
