<?xml version="1.0" encoding="utf-8"?>
<!-- Generator: Adobe Illustrator 19.0.0, SVG Export Plug-In . SVG Version: 6.00 Build 0)  -->
<svg version="1.1" xmlns="http://www.w3.org/2000/svg" xmlns:xlink="http://www.w3.org/1999/xlink" x="0px" y="0px"
	 viewBox="0 0 254.1 313.5" style="enable-background:new 0 0 254.1 313.5;" xml:space="preserve">
<style type="text/css">
	.st0{fill:#519E38;}
	.st1{fill:#E2E2E2;}
	.st2{fill:#D3D3D3;}
	.st3{fill:#444444;}
	.st4{fill:#FFFFFF;}
	.st5{fill:#0455A4;}
	.st6{fill-rule:evenodd;clip-rule:evenodd;fill:#0455A4;}
	.st7{fill-rule:evenodd;clip-rule:evenodd;fill:#62BA47;}
	.st8{fill:#62BA47;}
	.st9{fill:#EDEDED;}
	.st10{fill:none;stroke:#636363;stroke-width:0.75;}
	.st11{fill:#636363;}
	.st12{fill:#1E1E1E;}
</style>
<g id="kolba_4">
</g>
<g id="kolba_3">
</g>
<g id="kolby">
</g>
<g id="doma">
</g>
<g id="car">
</g>
<g id="butylka_3">
</g>
<g id="butylka_1">
</g>
<g id="vanna_2">
</g>
<g id="sneg">
</g>
<g id="vanna_1">
</g>
<g id="shariki_2">
</g>
<g id="shariki_1">
</g>
<g id="voronka">
</g>
<g id="gradusnik">
</g>
<g id="kolba_2">
</g>
<g id="probirki">
</g>
<g id="lupa">
</g>
<g id="bidon">
	<path class="st0" d="M165.4,81h-1.2v-7.2h5.7c1.7,0,3-1.4,3-3c0-1.7-1.4-3-3-3h-5.7v-8.1h0c2,0,3.7-1.6,3.7-3.7
		c0-2-1.6-3.7-3.7-3.7H85.9c-2,0-3.7,1.6-3.7,3.7c0,2,1.6,3.7,3.7,3.7h0.8v8.1H80c-1.7,0-3,1.4-3,3c0,1.7,1.4,3,3,3h6.7V81h-2
		c-7.7,0-13.9,6.2-13.9,13.9v118.6c0,7.7,6.2,13.9,13.9,13.9h80.8c7.7,0,13.9-6.2,13.9-13.9V94.9C179.3,87.2,173.1,81,165.4,81z"/>
	<path class="st1" d="M172.6,207.1c0,7.7-6.2,13.9-13.9,13.9H77.9c-7.7,0-13.9-6.2-13.9-13.9V88.6c0-7.7,6.2-13.9,13.9-13.9h80.8
		c7.7,0,13.9,6.2,13.9,13.9V207.1z"/>
	<rect x="79.9" y="53.2" class="st2" width="77.5" height="21.5"/>
	<path class="st3" d="M161.1,49.6c0,2-1.6,3.7-3.7,3.7H79.1c-2,0-3.7-1.6-3.7-3.7l0,0c0-2,1.6-3.7,3.7-3.7h78.3
		C159.4,45.9,161.1,47.6,161.1,49.6L161.1,49.6z"/>
	<path class="st3" d="M87.6,64.4c0,1.7-1.4,3-3,3H73.2c-1.7,0-3-1.4-3-3l0,0c0-1.7,1.4-3,3-3h11.4C86.3,61.3,87.6,62.7,87.6,64.4
		L87.6,64.4z"/>
	<path class="st3" d="M166.2,64.4c0,1.7-1.4,3-3,3h-11.4c-1.7,0-3-1.4-3-3l0,0c0-1.7,1.4-3,3-3h11.4
		C164.8,61.3,166.2,62.7,166.2,64.4L166.2,64.4z"/>
	<path class="st4" d="M83.4,100.6c0,2.5-2,4.5-4.5,4.5l0,0c-2.5,0-4.5-2-4.5-4.5v-9.3c0-2.5,2-4.5,4.5-4.5l0,0c2.5,0,4.5,2,4.5,4.5
		V100.6z"/>
	<g>
		<path class="st5" d="M143.3,148.9c0-14.5-11.8-26.3-26.3-26.3c-14.5,0-26.3,11.8-26.3,26.3c0,14.5,11.8,26.3,26.3,26.3
			C131.6,175.2,143.3,163.4,143.3,148.9z"/>
		<path class="st6" d="M104.6,116.7c0,1.9-1.5,3.4-3.4,3.4c-1.9,0-3.4-1.5-3.4-3.4c0-1.9,1.5-3.4,3.4-3.4
			C103.1,113.3,104.6,114.8,104.6,116.7L104.6,116.7z"/>
		<path class="st7" d="M104.7,128c0,2.4-1.9,4.3-4.3,4.3c-2.4,0-4.3-1.9-4.3-4.3c0-2.4,1.9-4.3,4.3-4.3
			C102.8,123.7,104.7,125.6,104.7,128L104.7,128z"/>
		<path class="st7" d="M93.1,121.3c0,1.4-1.2,2.6-2.6,2.6c-1.4,0-2.6-1.2-2.6-2.6c0-1.4,1.2-2.6,2.6-2.6
			C92,118.7,93.1,119.9,93.1,121.3L93.1,121.3z"/>
		<g>
			<circle class="st8" cx="139.5" cy="124.8" r="14.5"/>
			<g>
				<path class="st4" d="M135.9,122.8c-1.2,0.1-1.5,1.6-1.6,2.5l0,0v0c0,0.1,0,0.3,0,0.4c0,0.5,0,0.8-0.1,1.3c0,0.2-0.1,0.6-0.1,0.6
					c-0.4,0-0.8-0.6-0.9-0.9c-0.3-0.7-0.5-1.5-0.6-2.3c-0.1-0.8-0.2-1.7-0.3-2.6c0-0.3,0-0.7,0-1.1c0-0.1,0-0.3,0-0.4
					c0-0.1,0-0.2,0-0.2c0.1-0.6-0.8,0-1,0.3c-1,1.7-0.7,3.7-0.6,5.5c0,0.5,0,1-0.1,1.5c0,0.3-0.1,0.9-0.4,1.2c-0.2,0.2-0.5,0-0.6,0
					c-0.2-0.1-0.4-0.4-0.4-0.7c0-0.3-0.3-0.1-0.5,0c-0.2,0.2-0.4,0.6-0.4,0.9c0.1,0.6,0.7,1.2,1.4,1c1.1-0.3,1.5-1.6,1.8-2.6
					c0.1-0.5,0.2-1,0.2-1.5c0.1,0.7,0.4,1.4,0.7,2.1c0.2,0.5,0.7,1,1.3,0.9c0.5-0.1,0.8-0.6,1-1.1c0.2,0.5,0.5,0.8,1.1,0.8
					c0.6,0,1.1-0.7,1.3-1.2c0.3-0.6,0.3-1.2,0.3-1.8C137.4,124.5,137.2,122.7,135.9,122.8z M136.3,127c0,0.1-0.1,0.2-0.1,0.4
					c-0.2,0-0.4-0.4-0.5-0.5c-0.2-0.4-0.3-0.8-0.3-1.3c0-0.4,0-0.9,0.1-1.4c0-0.1,0.1-0.2,0.1-0.3c0.6,0.4,0.7,1.1,0.8,1.8
					C136.4,126,136.4,126.5,136.3,127z"/>
				<path class="st4" d="M150.4,124.5c-1.3-0.5-2,1.3-2.3,2.2c-0.2,0.9-0.5,2.5,0.6,3c0.5,0.2,1.2-0.2,1.5-0.5
					c0.4-0.4,0.6-1,0.8-1.6C151.3,126.6,151.5,124.9,150.4,124.5z M149.6,128.7c-0.1,0.1-0.1,0.2-0.2,0.3c-0.2-0.1-0.3-0.5-0.3-0.7
					c-0.1-0.5,0-0.9,0.1-1.3c0.1-0.4,0.2-0.9,0.4-1.3c0.1-0.1,0.1-0.2,0.2-0.3c0.5,0.6,0.4,1.4,0.2,2
					C149.9,127.8,149.8,128.3,149.6,128.7z"/>
				<path class="st4" d="M146.8,124.7c0.2-0.3,0.5-0.7,0.7-1c0.5-0.7,0.9-1.6,0.9-2.5c0-0.8-1.2-0.9-1.7-0.6
					c-0.8,0.4-1.3,1.3-1.5,2.1c-0.3,1.1-0.5,2.2-0.5,3.4v0c-0.4,0.5-1.3,1.5-1.9,1.1c-0.1-0.1-0.3-0.3-0.3-0.5
					c0.5-0.6,1-1.1,1.4-1.8c0.4-0.6,0.6-1.6-0.1-2c-0.6-0.4-1.4,0-1.8,0.6c-0.4,0.5-0.6,1.2-0.7,1.8c0,0.4-0.1,0.9,0,1.5
					c-0.4,0.2-0.8,0.4-1.3,0.3c-0.5-0.1-0.7-0.6-0.8-1c-0.1-0.6-0.1-1.2,0-1.8c0-0.2,0.1-0.4,0.1-0.6c0,0,0-0.1,0.1-0.1
					c0.3,0.1,0.4,0.6,0.5,0.8c0.1,0.4,1.2-0.3,1.1-0.7c-0.1-0.4-0.3-0.9-0.8-1.1c-0.5-0.2-1.1,0.2-1.3,0.4c-0.8,0.8-0.9,2-0.8,3
					c0,0.7,0.2,1.5,0.8,1.9c0.8,0.5,1.9,0.1,2.6-0.4c0.2,0.5,0.6,0.8,1.2,0.8c0.8-0.1,1.5-0.5,2-1.1c0,0.6,0.2,1.2,0.6,1.5
					c0.7,0.4,1.5-0.1,2-0.6c0.6-0.7,0.9-1.8,0.6-2.7C147.6,124.9,147.2,124.7,146.8,124.7z M142.4,124.2c0-0.2,0.1-0.3,0.2-0.5
					c0,0,0,0,0,0c0.3,0.1,0.4,0.5,0.3,0.7c-0.1,0.5-0.4,1-0.7,1.4c0-0.1,0-0.2,0-0.2C142.2,125.2,142.3,124.7,142.4,124.2z
					 M146.6,121.8c0.1-0.2,0.2-0.3,0.3-0.5c0,0,0,0,0,0c0.5,0.6,0,1.3-0.3,1.9c-0.3,0.5-0.6,1-0.9,1.5c0.1-0.5,0.2-1,0.3-1.5
					C146.2,122.8,146.4,122.3,146.6,121.8z M146.4,127.8c0,0.1-0.1,0.2-0.1,0.2c0,0-0.1,0-0.1,0c-0.3-0.2-0.3-0.9-0.4-1.1
					c0-0.2,0-0.5,0-0.7c0.1-0.2,0.3-0.3,0.4-0.5c0.3-0.2,0.5,0.2,0.6,0.5C146.8,126.6,146.6,127.3,146.4,127.8z"/>
			</g>
		</g>
		<g>
			<g>
				<path class="st4" d="M136.3,156.3c-1.1,0.2-0.8-2.5-0.7-3c0.2-1.6,0.6-3.2,1-4.7c0.1-0.5-0.4-0.6-0.8-0.5
					c-0.5,0.1-1,0.4-1.2,0.8c-0.1,0.3-0.1,0.6-0.2,0.9c-0.1,0.3-0.1,0.6-0.2,0.9c-0.2,0.9-0.4,1.7-0.6,2.6c-0.2,0.6-0.4,1.3-0.8,1.8
					c0,0,0,0.1,0,0.1c-0.1-0.1-0.3-0.2-0.3-0.2c-0.9-0.7-0.6-2.6-0.4-3.4c0.2-1.3,0.6-2.5,1.1-3.7c0.2-0.4,0-0.7-0.5-0.7
					c-0.5,0-1.1,0.3-1.3,0.8c-0.5,1-0.8,2.1-1,3.2c-0.1,0.7-0.9,3.3-1.6,2.9c-0.6-0.4-0.3-2.2-0.6-3.1c-0.3-0.9-1-1.2-1.8-1.1
					c0.4-1.5,0.8-2,1.1-2.3c0.3,0.1,0.6,0.4,0.7,0.4c0.6,0.6,2.4-0.6,1.8-1.2c-0.8-0.8-1.6-0.9-2.3-0.6c-0.5,0.1-1.1,0.5-1.5,0.9
					c-0.1,0.1-0.1,0.2-0.2,0.2c0-0.9-0.1-1.9-0.3-2.8c-0.1-0.3-0.5-0.3-1-0.1c-0.5,0.2-1,0.6-1,1c0,0.7-0.2,1.3-0.8,1.7
					c-0.3,0.2-0.9,0.4-1.3,0.3c0,0-0.5-0.3-0.9-0.2c0.4-0.8,0.8-1.7,1.1-2.6c0.4-1.2,1.1-3,0.4-4.2c-0.8-1.3-2.6-0.4-3.4,0.4
					c-1.2,1.2-1.4,3.1-1.6,4.6c-0.2,1.7-0.1,3.4,0.2,5.1c-0.2,0.8-0.6,1.9-1,2.6c-0.4-0.3-0.9-1.1-1-1.4c-0.3-1.1-0.5-2.4-0.5-3.6
					c0-0.4,0-0.9,0-1.4c0-0.4,0-0.9,0-1.3c0-0.5-0.6-0.4-0.9-0.2c-0.4,0.2-0.9,0.7-0.9,1.2c0,1.5,0.1,3,0,4.6c0,0.7-0.1,1.6-0.3,2.1
					c-1.4-0.1-1.6-2.3-1.7-3.1c-0.1-1.3-0.1-2.6,0.2-3.9c0.1-0.4-0.2-0.7-0.6-0.5c-0.5,0.2-1,0.7-1.1,1.2c-0.1,0.7-0.2,1.5-0.2,2.2
					c-0.1,3-0.3,4.2-0.7,4.7c-0.2-0.1-0.4-0.4-0.5-0.5c-0.3-0.5-0.5-1.1-0.7-1.6c-0.5-1.7-0.8-3.5-1-5.3c0,0,0,0,0,0
					c0-0.1,0-0.2-0.1-0.2c-0.1,0-0.1-0.1-0.2-0.1c-0.5,0-1,0.6-1.2,0.9c-0.8,1.6-0.5,3.5-0.5,5.1c0,0.8,0,1.6-0.2,2.4
					c-0.7-0.2-0.8-1.2-0.9-1.4c-0.1-0.2-0.3-0.2-0.6,0c-0.2,0.2-0.4,0.4-0.6,0.6c-0.1,0.2-0.2,0.4-0.3,0.7c0,0,0,0,0,0.1
					c-0.1,0.5-0.2,0.9-0.7,1c-0.3,0-0.5,0-0.7,0c-0.6-0.2-1-0.6-1.4-1.1c-0.9-1.3-1.3-3.1-1.5-4.8c-0.1-0.9-0.1-1.7,0-2.6
					c0-0.3,0.1-0.7,0.2-1c0-0.1,0.2-0.4,0.1-0.4c0-0.1,0.1-0.1,0.1-0.2c0,0,0,0,0,0c0,0,0,0,0-0.1c0,0,0,0,0,0c0,0,0,0,0,0
					c0,0,0.1,0,0.1-0.1c0.1-0.1,0.5-0.2,0.7-0.2c1.2-0.2,1.8,1,2.1,1.9c0.2,0.7,1.8-1,1.6-1.7c-0.4-1.1-1.1-2.3-2.7-2.2
					c-1,0.1-1.9,0.7-2.5,1.5c-1.5,1.9-1.7,4.5-1.5,6.8c0.2,2.1,0.8,4.3,2.3,5.9c0.5,0.5,1.2,0.9,2,0.7c0.9-0.2,1.6-0.8,2.1-1.6
					c0.4,0.6,1.1,1,2,0.3c0.9-0.7,1.2-1.9,1.4-2.9c0.1,0.2,0.1,0.4,0.2,0.6c0.2,0.6,0.5,1.2,1,1.6c0.5,0.4,1.6-0.5,1.6-0.5
					s0.2-0.1,0.3-0.2c0.4-0.4,0.6-0.8,0.9-1.3c0,0,0-0.1,0-0.1c0.3,0.8,0.8,1.5,1.8,1.5c1,0,1.7-0.6,2.3-1.5
					c0.1,0.3,0.3,0.5,0.5,0.8c0.9,1,2.4-0.1,3-0.8c0.2-0.2,0.4-0.4,0.5-0.7c0.3,0.9,0.8,1.8,1.7,1.8c1.5,0,2.5-1.4,2.9-2.7
					c0.3-0.9,0.6-2.4,0.2-3.5c0.2-0.1,0.3-0.2,0.5-0.2c0.3-0.2,0.7-0.4,1-0.6c0,2.3-0.2,4.7-0.4,7c-0.1,1,1.7-0.1,1.8-0.7
					c0.1-0.8,0.3-1.7,0.5-2.5c0.6,0.3,0.6,1.5,0.6,2.1c0,0.7,0,1.5,0.8,1.9c0.8,0.4,1.8,0,2.4-0.5c0.1-0.1,0.3-0.2,0.4-0.3
					c0.1,0.8,0.5,1.5,1.2,1.8c1,0.4,1.8,0,2.5-0.6c0.2,1.2,0.8,2,2.2,1.7c0.4-0.1,1-0.3,1.1-0.8
					C137.2,156.4,136.6,156.2,136.3,156.3z M118.9,145.3c0.1-1.2,0.3-2.5,0.9-3.7c0,0,0-0.1,0.1-0.1c0.3,0.1,0.4,0.6,0.5,0.8
					c0.2,1.2-0.4,2.6-0.8,3.7c-0.2,0.5-0.4,1.1-0.7,1.6C118.8,146.8,118.8,146,118.9,145.3z M120.5,153c0,0,0,0.1,0,0.1
					c-0.1,0-0.1,0-0.2,0c-0.9-0.3-1-2.3-1.2-3c0,0,0-0.1,0-0.1c0.2-0.3,0.4-0.6,0.6-1c0.1-0.1,0.2-0.1,0.4,0
					c0.1,0.1,0.2,0.2,0.3,0.3c0.5,0.5,0.4,1.4,0.4,2C120.7,151.8,120.7,152.4,120.5,153z"/>
			</g>
		</g>
	</g>
	<g>
		<path class="st5" d="M107.7,199.9v-1.4h0.3c0.8,0,1.4-0.2,1.8-0.5c0.4-0.3,0.6-0.8,0.6-1.5c0-0.6-0.2-1-0.5-1.3
			c-0.3-0.3-0.7-0.5-1.3-0.5c-1.2,0-1.8,0.8-1.8,2.4v0.1h-1.5v-0.3c0-1.1,0.3-1.9,0.9-2.6c0.6-0.6,1.4-0.9,2.4-0.9
			c1,0,1.9,0.3,2.5,0.8c0.6,0.6,0.9,1.3,0.9,2.2c0,1.3-0.6,2.1-1.8,2.6c0.7,0.3,1.3,0.6,1.6,1.1c0.3,0.5,0.5,1.1,0.5,1.9
			c0,1.1-0.3,1.9-1,2.6c-0.7,0.7-1.6,1-2.7,1c-1.1,0-2-0.4-2.6-1.1c-0.6-0.7-1-1.7-1-3v-0.1h1.5v0.1c0,0.9,0.2,1.6,0.6,2.1
			c0.4,0.5,0.9,0.7,1.5,0.7c0.6,0,1.1-0.2,1.5-0.6c0.4-0.4,0.6-0.9,0.6-1.6c0-1.5-0.9-2.3-2.7-2.3H107.7z"/>
		<path class="st5" d="M120.9,199.7c0,1.9-0.3,3.4-1,4.4c-0.7,1-1.5,1.6-2.7,1.6c-1.1,0-2-0.5-2.7-1.6c-0.6-1.1-1-2.6-1-4.5
			c0-2,0.3-3.5,1-4.5c0.6-1.1,1.5-1.6,2.7-1.6c1.2,0,2.1,0.5,2.7,1.6C120.6,196.1,120.9,197.7,120.9,199.7z M117.2,204.3
			c0.6,0,1.1-0.4,1.5-1.2c0.4-0.8,0.6-1.9,0.6-3.4c0-1.6-0.2-2.8-0.5-3.7c-0.4-0.9-0.9-1.3-1.5-1.3c-0.6,0-1.1,0.4-1.5,1.2
			c-0.4,0.8-0.6,2-0.6,3.6s0.2,2.7,0.6,3.6C116.1,203.9,116.6,204.3,117.2,204.3z"/>
		<path class="st5" d="M132.3,198.5h-2.9v2.9c0,2.8-0.8,4.2-2.4,4.2c-0.4,0-0.7,0-1-0.1v-1.4c0.1,0,0.2,0,0.4,0.1s0.3,0,0.4,0
			c0.4,0,0.7-0.2,0.9-0.5c0.2-0.4,0.3-1.2,0.3-2.4v-2.8h-1.2v-1.4h8.1v1.4h-1.2v5.5h1.2v1.5h-3.9V204h1.2V198.5z"/>
	</g>
</g>
<g id="clock">
	<g>
		<circle class="st0" cx="177.3" cy="209.9" r="48.5"/>
		<circle class="st5" cx="172.4" cy="205.7" r="48.5"/>
		<circle class="st9" cx="172.4" cy="205.7" r="40"/>
		<ellipse class="st10" cx="172.4" cy="205.7" rx="36.7" ry="37"/>
		<rect x="170.8" y="168.9" class="st11" width="3.1" height="8.1"/>
		
			<rect x="153.5" y="174.3" transform="matrix(0.812 -0.5837 0.5837 0.812 -74.9307 124.0385)" class="st11" width="3.1" height="8.1"/>
		
			<rect x="143" y="185.4" transform="matrix(0.4664 -0.8846 0.8846 0.4664 -90.511 228.9795)" class="st11" width="3.1" height="8.1"/>
		
			<rect x="188.7" y="173.7" transform="matrix(-0.8118 -0.5839 0.5839 -0.8118 240.7877 433.1687)" class="st11" width="3.1" height="8.1"/>
		
			<rect x="199.6" y="185.4" transform="matrix(-0.4664 -0.8846 0.8846 -0.4664 127.2372 455.774)" class="st11" width="3.1" height="8.1"/>
		
			<rect x="153.5" y="229.5" transform="matrix(0.812 0.5837 -0.5837 0.812 165.4883 -46.5867)" class="st11" width="3.1" height="8.1"/>
		
			<rect x="141.9" y="216.5" transform="matrix(0.4664 0.8846 -0.8846 0.4664 271.6228 -9.1555)" class="st11" width="3.1" height="8.1"/>
		
			<rect x="189.4" y="228.9" transform="matrix(-0.8118 0.5839 -0.5839 -0.8118 481.9963 310.5385)" class="st11" width="3.1" height="8.1"/>
		
			<rect x="199.8" y="217.1" transform="matrix(-0.4665 0.8845 -0.8845 -0.4665 490.8473 146.1866)" class="st11" width="3.1" height="8.1"/>
		<rect x="170.8" y="235" class="st11" width="3.1" height="8.1"/>
		<rect x="201.3" y="204.2" class="st11" width="8.1" height="3.1"/>
		<rect x="135.3" y="204.2" class="st11" width="8.1" height="3.1"/>
		<circle class="st12" cx="172.9" cy="204.6" r="2.9"/>
		
			<rect x="176.6" y="176.5" transform="matrix(0.9386 0.3449 -0.3449 0.9386 76.841 -49.5543)" class="st12" width="2.2" height="29.3"/>
		
			<rect x="181.2" y="196.3" transform="matrix(-0.108 0.9942 -0.9942 -0.108 406.5224 46.6441)" class="st12" width="2.2" height="18.7"/>
	</g>
</g>
</svg>
