<?xml version="1.0" encoding="utf-8"?>
<!-- Generator: Adobe Illustrator 19.0.0, SVG Export Plug-In . SVG Version: 6.00 Build 0)  -->
<svg version="1.1" xmlns="http://www.w3.org/2000/svg" xmlns:xlink="http://www.w3.org/1999/xlink" x="0px" y="0px"
	 viewBox="0 0 236.4 172" style="enable-background:new 0 0 236.4 172;" xml:space="preserve">
<style type="text/css">
	.st0{fill:#EFEFEF;}
	.st1{fill:#DDDDDD;}
	.st2{fill:#FFFFFF;}
	.st3{fill:#FCFCFC;}
	.st4{fill:#F48020;}
	.st5{fill-rule:evenodd;clip-rule:evenodd;fill:#F48020;}
	.st6{fill-rule:evenodd;clip-rule:evenodd;fill:#62BA47;}
	.st7{fill:#62BA47;}
	.st8{fill:#62BA46;}
</style>
<g id="Layer_2">
</g>
<g id="kolba_4">
</g>
<g id="kolba_3">
</g>
<g id="kolby">
</g>
<g id="car">
</g>
<g id="butylka_3">
</g>
<g id="butylka_2">
	<g>
		<g>
			<path class="st0" d="M192.4,88.2h-22.5h-9.2H76.6h-9.1H44.9l9.7,36l0,0c0.9,3.6,6.3,6.3,12.9,6.3h102.4c7,0,12.7-3.1,13-7
				L192.4,88.2z"/>
			<path class="st1" d="M169.9,88.2h-9.2h-42v42.3h51.2c7,0,12.7-3.1,13-7l9.5-35.2H169.9z"/>
			<path class="st2" d="M64.2,109.5c0.6,2-0.5,4.1-2.5,4.7l0,0c-2,0.6-4.1-0.5-4.7-2.5l-3-9.6c-0.6-2,0.5-4.1,2.5-4.7l0,0
				c2-0.6,4.1,0.5,4.7,2.5L64.2,109.5z"/>
			<path class="st2" d="M54.2,62.7"/>
			<g>
				<polygon class="st0" points="192.3,83.1 43.8,83.1 56.8,59.8 178.6,59.8 				"/>
				<path class="st3" d="M178.6,59.8l13.8,23.2H43.8l12.9-23.2H178.6 M178.6,53.3H56.8c-2.4,0-4.6,1.3-5.7,3.4L38.1,79.9
					c-1.1,2-1.1,4.5,0.1,6.5c1.2,2,3.3,3.2,5.6,3.2h148.5c2.4,0,4.5-1.3,5.7-3.3c1.2-2,1.1-4.6-0.1-6.6l-13.8-23.2
					C183,54.5,180.9,53.3,178.6,53.3L178.6,53.3z"/>
			</g>
		</g>
		<g>
			<ellipse class="st4" cx="119.1" cy="73" rx="17.5" ry="8.4"/>
			<path class="st5" d="M110.8,62.7c0,0.6-1,1.1-2.2,1.1c-1.2,0-2.2-0.5-2.2-1.1c0-0.6,1-1.1,2.2-1.1
				C109.8,61.6,110.8,62.1,110.8,62.7L110.8,62.7z"/>
			<path class="st6" d="M110.9,66.3c0,0.8-1.3,1.4-2.9,1.4c-1.6,0-2.9-0.6-2.9-1.4c0-0.8,1.3-1.4,2.9-1.4
				C109.6,64.9,110.9,65.6,110.9,66.3L110.9,66.3z"/>
			<path class="st6" d="M103.1,64.2c0,0.5-0.8,0.8-1.7,0.8c-1,0-1.7-0.4-1.7-0.8c0-0.5,0.8-0.8,1.7-0.8
				C102.4,63.4,103.1,63.7,103.1,64.2L103.1,64.2z"/>
			<g>
				<ellipse class="st7" cx="134.1" cy="65.3" rx="9.7" ry="4.6"/>
				<g>
					<path class="st2" d="M131.7,64.7c-0.8,0-1,0.5-1,0.8l0,0v0c0,0,0,0.1,0,0.1c0,0.1,0,0.3-0.1,0.4c0,0.1-0.1,0.2-0.1,0.2
						c-0.3,0-0.5-0.2-0.6-0.3c-0.2-0.2-0.3-0.5-0.4-0.7c-0.1-0.3-0.2-0.5-0.2-0.8c0-0.1,0-0.2,0-0.3c0,0,0-0.1,0-0.1
						c0,0,0-0.1,0-0.1c0.1-0.2-0.5,0-0.6,0.1c-0.6,0.5-0.4,1.2-0.4,1.8c0,0.2,0,0.3-0.1,0.5c0,0.1-0.1,0.3-0.3,0.4
						c-0.1,0.1-0.3,0-0.4,0c-0.2,0-0.3-0.1-0.3-0.2c0-0.1-0.2,0-0.3,0c-0.1,0.1-0.3,0.2-0.3,0.3c0.1,0.2,0.5,0.4,0.9,0.3
						c0.7-0.1,1-0.5,1.2-0.8c0.1-0.2,0.1-0.3,0.1-0.5c0.1,0.2,0.2,0.5,0.5,0.7c0.2,0.2,0.4,0.3,0.9,0.3c0.3,0,0.5-0.2,0.7-0.4
						c0.1,0.2,0.4,0.3,0.7,0.3c0.4,0,0.7-0.2,0.9-0.4c0.2-0.2,0.2-0.4,0.2-0.6C132.6,65.2,132.5,64.6,131.7,64.7z M131.9,66
						c0,0,0,0.1-0.1,0.1c-0.2,0-0.3-0.1-0.3-0.2c-0.1-0.1-0.2-0.3-0.2-0.4c0-0.1,0-0.3,0-0.4c0,0,0-0.1,0.1-0.1
						c0.4,0.1,0.5,0.4,0.5,0.6C132,65.7,132,65.8,131.9,66z"/>
					<path class="st2" d="M141.3,65.2c-0.9-0.2-1.4,0.4-1.5,0.7c-0.1,0.3-0.3,0.8,0.4,1c0.4,0.1,0.8-0.1,1-0.2
						c0.3-0.1,0.4-0.3,0.5-0.5C141.9,65.9,142.1,65.3,141.3,65.2z M140.7,66.5c0,0-0.1,0.1-0.1,0.1c-0.1,0-0.2-0.2-0.2-0.2
						c0-0.1,0-0.3,0-0.4c0.1-0.1,0.1-0.3,0.3-0.4c0,0,0.1-0.1,0.1-0.1c0.3,0.2,0.2,0.4,0.2,0.7C141,66.3,140.9,66.4,140.7,66.5z"/>
					<path class="st2" d="M138.9,65.3c0.2-0.1,0.3-0.2,0.5-0.3c0.3-0.2,0.6-0.5,0.6-0.8c0-0.3-0.8-0.3-1.2-0.2
						c-0.5,0.1-0.9,0.4-1,0.7c-0.2,0.4-0.3,0.7-0.4,1.1v0c-0.3,0.2-0.8,0.5-1.3,0.3c-0.1,0-0.2-0.1-0.2-0.2c0.4-0.2,0.7-0.4,1-0.6
						c0.3-0.2,0.4-0.5-0.1-0.6c-0.4-0.1-1,0-1.2,0.2c-0.3,0.2-0.4,0.4-0.5,0.6c0,0.1-0.1,0.3,0,0.5c-0.3,0.1-0.6,0.1-0.9,0.1
						c-0.3,0-0.5-0.2-0.5-0.3c-0.1-0.2-0.1-0.4,0-0.6c0-0.1,0.1-0.1,0.1-0.2c0,0,0,0,0,0c0.2,0,0.3,0.2,0.3,0.3
						c0.1,0.1,0.8-0.1,0.7-0.2c-0.1-0.1-0.2-0.3-0.5-0.3c-0.3-0.1-0.7,0.1-0.9,0.1c-0.5,0.2-0.6,0.6-0.5,1c0,0.2,0.1,0.5,0.5,0.6
						c0.5,0.2,1.2,0,1.7-0.1c0.1,0.2,0.4,0.3,0.8,0.2c0.5,0,1-0.2,1.4-0.3c0,0.2,0.1,0.4,0.4,0.5c0.5,0.1,1,0,1.3-0.2
						c0.4-0.2,0.6-0.6,0.4-0.9C139.4,65.3,139.2,65.3,138.9,65.3z M136,65.1c0-0.1,0.1-0.1,0.1-0.2c0,0,0,0,0,0
						c0.2,0,0.2,0.2,0.2,0.2c0,0.2-0.3,0.3-0.5,0.4c0,0,0-0.1,0-0.1C135.9,65.4,135.9,65.3,136,65.1z M138.8,64.4
						c0.1-0.1,0.1-0.1,0.2-0.2c0,0,0,0,0,0c0.3,0.2,0,0.4-0.2,0.6c-0.2,0.2-0.4,0.3-0.6,0.5c0-0.2,0.1-0.3,0.2-0.5
						C138.5,64.6,138.6,64.5,138.8,64.4z M138.6,66.2C138.6,66.3,138.5,66.3,138.6,66.2c-0.1,0.1-0.1,0.1-0.2,0.1
						c-0.2-0.1-0.2-0.3-0.2-0.4c0-0.1,0-0.2,0-0.2c0.1,0,0.2-0.1,0.3-0.1c0.2-0.1,0.3,0.1,0.4,0.2C138.9,65.9,138.8,66.1,138.6,66.2
						z"/>
				</g>
			</g>
			<path class="st2" d="M132.1,72.8c0,0-0.2,0-0.2,0c-1.7-0.1-2.4,0.7-2.7,1.4c0,0,0,0,0,0c-0.3,0.4-0.9,0.8-1,0.9
				c-0.1,0.1-0.2,0-0.2,0c-0.1,0-0.1-0.1-0.2-0.2c-0.1-0.2-0.1-0.5-0.1-0.7c0-0.6,0.1-1.2,0.3-1.8c0-0.1-0.2-0.2-0.4-0.2
				c-0.4,0-0.8,0.1-1,0.3c-0.6,0.4-0.9,1-1.2,1.5c-0.1,0.3-0.2,0.5-0.4,0.8c0,0,0,0-0.1,0c-0.2-0.1-0.2-0.2-0.3-0.2
				c0,0,0-0.1-0.1-0.1c-0.1,0-0.1,0-0.2,0c-0.2,0-0.5,0.1-0.7,0.1c-0.1,0-0.2,0.1-0.2,0.1c-0.1,0-0.1,0.1-0.4,0.1
				c-0.3,0-0.5-0.1-0.6-0.2c-0.3-0.2-0.3-0.6-0.3-0.8c0-0.4,0.1-0.7,0.4-1.1c0,0,0-0.1,0.1-0.1c0,0,0,0,0.1,0
				c0.3,0.1,0.4,0.3,0.5,0.5c0.1,0.3,1.5-0.1,1.4-0.4c-0.1-0.2-0.3-0.5-0.8-0.7c-0.5-0.2-1.2,0-1.6,0.1c-1.1,0.4-1.4,1-1.4,1.6
				c0,0,0,0.1,0,0.1c-0.1,0.2-0.3,0.5-0.5,0.7c0,0-0.1,0.1-0.3,0.1c-0.1,0-0.2-0.1-0.2-0.2c-0.2-0.3-0.3-0.7-0.3-1.1
				c0-0.3,0-0.5,0.1-0.7c0-0.1,0-0.2,0-0.3c0,0,0,0,0,0c0-0.4-0.7-0.6-1.5-0.5c-0.8,0.1-1.4,0.4-1.8,0.7c-0.4,0.3-0.6,0.7-0.6,1.1
				c-0.1,0.3,0,1-0.4,1c-0.5,0-0.9-0.4-1-0.6c-0.3-0.4-0.4-0.9-0.5-1.3c-0.1-0.7-0.2-1.5,0-2.2c0-0.1-0.3-0.1-0.5-0.1
				c-0.3,0.1-0.7,0.2-0.8,0.3c-0.5,0.5-0.7,1.1-0.8,1.7c0,0,0,0,0,0c0-0.1,0-0.1,0-0.2c-0.1-0.5-0.2-0.9-0.3-1.4
				c0-0.3-0.1-0.7,0-0.9c0.2-0.4-1,0-1.2,0.1c-1.2,1-0.9,2.3-0.9,3.4c0,0.3,0,0.6-0.2,0.9c-0.1,0.2-0.2,0.6-0.5,0.7
				c-0.2,0.1-0.6,0-0.8,0c-0.3-0.1-0.4-0.2-0.5-0.4c0-0.2-0.4-0.1-0.6,0c-0.3,0.1-0.5,0.3-0.5,0.5c0.1,0.4,0.8,0.8,1.7,0.7
				c1.4-0.2,2-1,2.4-1.6c0.2-0.4,0.3-0.7,0.3-1.1c0.2,0.7,0.5,1.4,0.7,2.1c0.1,0.4,1.2-0.2,1.2-0.4c0-0.5,0.1-1,0.2-1.5
				c0.2,0.6,0.7,1.9,2.3,1.9c0.5,0,0.9-0.2,1.2-0.5c0.1,0.2,0.3,0.3,0.7,0.4c0.6,0.1,1.4-0.1,1.8-0.3c0,0,0,0,0,0
				c0.1,0.1,0.2,0.2,0.4,0.3c0.8,0.3,1.8-0.1,2.2-0.4c0.1,0.1,0.2,0.2,0.4,0.3c0.6,0.3,1.4,0.2,2.1,0c0.6,0.4,2,0.2,2.6-0.2
				c0.1-0.1,0.1-0.1,0.2-0.2c0,0.1,0,0.1,0,0.2c0,0.2,0.1,0.5,0.4,0.6c0.3,0.2,0.9,0.1,1.2,0c0.3-0.1,0.7-0.3,1-0.5
				c0,0.4,0.2,0.8,1,1c0.7,0.1,1.5-0.1,1.9-0.4c0.5-0.3,0.8-0.6,1-1C133,74,133.3,73.2,132.1,72.8z M117.6,74.3c0,0-0.1,0.1-0.1,0.1
				c0,0-0.1,0-0.2,0c-0.3,0-0.4-0.2-0.5-0.4c-0.3-0.4-0.3-0.9,0-1.3c0.1-0.1,0.3-0.4,0.4-0.4c0,0,0.1,0,0.1,0c0.1,0,0.2,0,0.2,0
				c0.3,0,0.5,0.1,0.5,0.2C117.9,73.1,117.9,73.7,117.6,74.3z M130.7,75.1c-0.1,0.1-0.1,0.1-0.2,0.2c-0.3-0.1-0.3-0.3-0.4-0.4
				c-0.1-0.3,0-0.6,0-0.8c0.1-0.3,0.2-0.5,0.5-0.8c0.1-0.1,0.1-0.1,0.2-0.2c0.6,0.2,0.4,1,0.3,1.2C131.1,74.6,130.9,74.9,130.7,75.1
				z"/>
			<g>
				<g>
					<path class="st2" d="M117.3,79.4c0,0.2,0.7,0.2,1.1,0.1c0.2-0.1,0.3-0.2,0.3-0.4c0.1-0.2,0.1-0.4,0.3-0.6
						c-0.2,0-0.3,0.1-0.5,0.1c0,0.2,0,0.4,0,0.6c0,0.1,0.1,0.3,0.3,0.4c0.4,0.1,1.2-0.3,1.3-0.4c0.3-0.1-0.2-0.1-0.4,0
						c-0.2,0.1-0.4,0.3-0.6,0.1c-0.2-0.2-0.2-0.5-0.2-0.8c0-0.1-0.4,0-0.5,0.1c-0.1,0.1-0.2,0.2-0.3,0.4c0,0.1-0.1,0.2-0.1,0.2
						c0,0,0,0.1-0.1,0.1c-0.1,0.1-0.2,0-0.2,0C117.9,79.2,117.3,79.3,117.3,79.4L117.3,79.4z"/>
					<path class="st2" d="M111.9,77.6c-0.3,0.3-0.7,0.5-1.1,0.8c-0.1,0.1,0.5,0.1,0.6,0.1c0.3-0.2,0.5-0.4,0.9-0.5
						c0,0,0.1,0,0.1-0.1c0,0,0,0,0.1,0c0.1,0,0.1,0-0.1,0c0,0,0,0.1,0,0.1c-0.1,0.3-0.5,0.5-0.8,0.7c0.2,0,0.4,0,0.6,0
						c0.2-0.2,0.5-0.4,0.9-0.6c0.1,0,0.1-0.1,0.2-0.1c-0.2,0.1-0.1,0-0.2,0.1c0,0.1-0.1,0.2-0.2,0.3c-0.1,0.1-0.4,0.3-0.3,0.5
						c0.1,0.1,0.6,0.1,0.8,0.1c0.4,0,0.2-0.2-0.2-0.1c-0.1,0,0-0.1,0-0.2c0.1-0.1,0.2-0.2,0.3-0.4c0.1-0.1,0.3-0.3,0-0.4
						c-0.3-0.1-0.7,0.1-0.9,0.1c-0.5,0.2-0.8,0.4-1.1,0.6c-0.1,0.1,0.5,0.1,0.6,0c0.2-0.2,0.4-0.3,0.6-0.5c0.1-0.1,0.4-0.3,0.1-0.4
						c-0.2-0.1-0.7,0-0.9,0c-0.5,0.2-1,0.4-1.3,0.6c0.2,0,0.4,0,0.6,0.1c0.3-0.3,0.7-0.5,1-0.8C112.5,77.5,112,77.5,111.9,77.6
						L111.9,77.6z"/>
					<path class="st2" d="M115.8,78.4c0,0.3-0.3,0.6-0.4,0.9c-0.1,0.1,0.6,0,0.6,0c0.1-0.2,0.3-0.5,0.7-0.7c0.1-0.1,0.1,0,0,0
						c0.1,0,0.1,0.1,0.1,0.1c0,0.1,0,0.2-0.1,0.3c-0.1,0.1-0.3,0.3,0,0.5c0.2,0.1,0.6,0.1,0.8,0c0.3-0.1,0.3-0.2-0.1-0.1
						c-0.5,0.1-0.2-0.4-0.2-0.5c0-0.1,0.1-0.4-0.3-0.4c-1,0-1.5,0.7-1.6,1c0.2,0,0.4,0,0.6,0c0.1-0.3,0.4-0.6,0.4-1
						C116.3,78.3,115.8,78.4,115.8,78.4L115.8,78.4z"/>
					<path class="st2" d="M120.2,79.3c0.3-0.1,1.2-0.8,0.3-0.9c-0.6,0-0.8,0.4-0.9,0.5c-0.1,0.2-0.1,0.6,0.6,0.6
						c0.8,0.1,1.6-0.4,2-0.6c0.2-0.1,0-0.2-0.3-0.1c-0.3,0.2-0.7,0.4-1.3,0.4c-0.3,0-0.4-0.2-0.5-0.3c-0.1-0.1-0.1-0.4,0.1-0.5
						c-0.1,0,0,0,0.1,0c0.1,0,0.1,0.1,0.1,0.1c0,0.2-0.3,0.3-0.6,0.5C119.5,79.4,120,79.4,120.2,79.3L120.2,79.3z"/>
					<path class="st2" d="M126.1,78.5c0.2-0.2,0.4-0.8-0.3-0.9c-0.5,0-0.6,0.3-0.6,0.5c0,0.2,0.3,0.5,0.7,0.6
						c0.5,0.1,1.1-0.2,1.3-0.4c0.1-0.1,0.1-0.1,0-0.2c-0.1,0-0.2,0.1-0.3,0.1c-0.4,0.4-1,0.1-1.2-0.1c-0.1-0.1-0.1-0.1-0.1-0.2
						c0,0,0-0.1,0-0.1c0,0-0.1,0,0,0c0.5-0.1,0.2,0.5,0.1,0.6C125.6,78.7,126,78.6,126.1,78.5L126.1,78.5z"/>
					<path class="st2" d="M120.2,78.3c0.1-0.1,0.1-0.1,0.1-0.2c0-0.1-0.1,0-0.2,0c-0.1,0-0.2,0.1-0.2,0.1c0,0,0,0,0,0c0,0,0,0,0,0
						c0,0-0.1,0.1,0,0c0,0-0.1,0.1,0,0.1C120,78.4,120.2,78.3,120.2,78.3L120.2,78.3z"/>
					<path class="st2" d="M120.9,78.2c0.1,0,0.1-0.1,0.1-0.2c0-0.1-0.1,0-0.2,0c-0.1,0-0.2,0.1-0.2,0.2c0,0,0,0,0,0c0,0,0,0,0,0
						c0,0,0,0.1,0.1,0.1C120.7,78.3,120.8,78.2,120.9,78.2L120.9,78.2z"/>
					<path class="st2" d="M121.3,78.5c0.2,0.3,0.3,0.6,0.4,0.9c0,0.1,0.5-0.1,0.5-0.2c0-0.2,0-0.3,0.3-0.5c0.3-0.2,0.3-0.4,0.3-0.6
						c0-0.1-0.4,0-0.4,0.1c0,0.2,0,0.4,0.1,0.6c0.1,0.1,0.1,0.3,0.4,0.4c0.2,0,0.5-0.1,0.6-0.1c0.4-0.2,0.5-0.4,0.5-0.6
						c0-0.1-0.4,0.1-0.4,0.1c0,0.1,0,0.3-0.3,0.4c-0.1,0-0.2-0.1-0.2-0.1c-0.2-0.2-0.4-0.5-0.3-0.7c-0.1,0-0.3,0.1-0.4,0.1
						c0,0.2-0.1,0.3-0.4,0.5c-0.3,0.2-0.3,0.4-0.3,0.5c0.2-0.1,0.3-0.1,0.5-0.2c-0.1-0.3-0.3-0.6-0.5-0.9
						C121.7,78.3,121.3,78.5,121.3,78.5L121.3,78.5z"/>
					<path class="st2" d="M115.1,78.2c-0.6-0.1-1,0.2-1.2,0.3c-0.2,0.1-0.5,0.6,0.1,0.7c0.7,0.1,1.2-0.2,1.3-0.3
						C115.5,78.7,115.7,78.3,115.1,78.2c-0.1,0-0.6,0.1-0.4,0.1c0.3,0.1,0.2,0.3,0.2,0.4c0,0.1-0.1,0.2-0.2,0.2c0,0-0.1,0.1-0.1,0.1
						c0,0-0.2,0.1-0.1,0.1c-0.4,0-0.3-0.3-0.2-0.4c0-0.1,0.1-0.2,0.2-0.2c0,0,0.1-0.1,0.2-0.1c0.1,0,0.1,0,0.1,0
						C114.9,78.3,115.4,78.2,115.1,78.2z"/>
					<path class="st2" d="M124,78c-0.5,0.1-0.5,0.4-0.4,0.6c0.1,0.2,0.3,0.6,1,0.5c0.7-0.1,0.7-0.5,0.5-0.7
						C125,78.3,124.6,77.9,124,78c-0.2,0-0.3,0.3-0.1,0.2c0.3,0,0.5,0.1,0.7,0.2c0.1,0.1,0.2,0.2,0.2,0.2c0,0,0,0.1,0,0.1
						c0,0-0.1,0.1,0,0.1c-0.3,0.1-0.6-0.1-0.7-0.2c-0.1-0.1-0.1-0.2-0.2-0.2c0,0,0-0.1,0-0.1c0,0,0-0.1,0,0
						C124.1,78.2,124.3,78,124,78z"/>
				</g>
			</g>
			<g>
				<path class="st8" d="M97.8,69.4c-0.1,0-0.2-0.1-0.3-0.1c-0.4-0.1-0.6,0-1,0c-0.8,0-1.1,0-2.1-0.1c0-0.4,0.5-0.7,0.7-1
					c0.2-0.3-0.1-0.6-0.1-1c0-0.2,0-0.4,0-0.6c-0.3,0.1-0.1,0.5-0.2,0.7c-0.1-0.2-0.1-0.6-0.3-0.8c-0.1,0.2,0,0.6,0,0.8
					c-0.1-0.2-0.2-0.5-0.4-0.7c-0.2,0.2,0.1,0.6,0.1,0.8c-0.2-0.2-0.3-0.4-0.5-0.6c-0.1,0.3,0.2,0.5,0.2,0.7
					c-0.2-0.2-0.3-0.4-0.5-0.5c0,0.2,0.2,0.4,0.4,0.5c-0.2-0.1-0.3-0.2-0.6-0.2c0,0.1,0.2,0.2,0.3,0.3c-0.2,0-0.2-0.1-0.4-0.2
					c0,0.1,0.2,0.2,0.3,0.3c-0.1,0-0.2-0.1-0.4-0.1c0,0.1,0.3,0.2,0.2,0.2c0,0-0.2,0-0.2,0c0,0,0.2,0.1,0.1,0.1c-0.1,0-0.1,0-0.2,0
					c0,0.1,0.1,0,0.1,0.1c-0.1,0-0.1,0-0.1,0c0,0.1,0.1,0,0.1,0.1c-0.7,0.4-0.3,0.7-0.4,1.2c0-0.1-0.6-0.1-1.1-0.2
					c-0.3-0.1-0.3-0.2-0.5-0.3c0,0,0.1,0,0.1,0c-0.1,0-0.2,0-0.2-0.1c0.1,0,0.3,0,0.3,0c-0.1,0-0.5-0.1-0.4-0.1c0.2,0,0.3,0.1,0.5,0
					c-0.2,0-0.6-0.1-0.6-0.2c0.2,0,0.4,0.1,0.6,0.1c-0.3-0.1-0.7-0.2-0.8-0.3c0.2,0.1,0.5,0.2,0.7,0.2c-0.4-0.1-0.7-0.2-1-0.2
					c0.2,0.2,0.7,0.2,0.8,0.4c-0.3-0.1-0.6-0.1-0.8-0.2c0.1,0.2,0.5,0.2,0.8,0.3c-0.3,0-0.4-0.1-0.7-0.1c0.1,0.1,0.5,0.1,0.6,0.2
					c-0.1,0-0.3,0-0.4,0c0,0.1,0.3,0.1,0.4,0.1c-0.2,0-0.3,0-0.4,0c0.1,0,0.3,0,0.4,0.1c-0.1,0-0.2,0-0.2,0c0,0,0.2,0,0.2,0
					C91,68.9,91,69,91,69c0.1,0,0.1,0,0.2,0c0,0-0.1,0-0.1,0c0.4,0.1,0.6,0.4,1.1,0.5c-0.3,0.1,0.3,0.2-3.1,0.7
					c0.1,0,1.5-0.2,1.9-0.2c0.4-0.1,0.8-0.1,1.2-0.2c0.1,0,0.2,0,0.3,0c0.7,0,1.3,0,2-0.2c-0.5,0-1.4,0.1-1.8-0.1
					c0.5-0.3,0.1-1.2,0.5-1.4c0.4-0.2,0.9-0.7,1.6-0.3c0.1,0.1,0.1,0.2-0.1,0.4c-0.3,0.2-0.5,0.4-0.4,0.9c0,0.1,0,0.2-0.3,0.2
					c1.5,0.1,1.9,0.1,2.8,0c0.3,0,0.7-0.1,0.7,0c0,0.1-0.3,0-0.5,0c-0.4,0,0.2,0.1,0.4,0.1c0.1,0,0.9,0,1.3-0.1
					C98.2,69.5,98,69.5,97.8,69.4z"/>
				<path class="st8" d="M93.5,65.8c-3.4,0-6.1,1.3-6.1,2.9c0,1.6,2.7,2.9,6.1,2.9c3.4,0,6.1-1.3,6.1-2.9
					C99.6,67.1,96.8,65.8,93.5,65.8 M93.5,65.9c3.2,0,5.8,1.3,5.8,2.8c0,1.5-2.6,2.8-5.8,2.8c-3.2,0-5.8-1.3-5.8-2.8
					C87.6,67.2,90.3,65.9,93.5,65.9"/>
			</g>
		</g>
	</g>
</g>
<g id="butylka_1">
</g>
<g id="vanna_2">
</g>
<g id="sneg">
</g>
<g id="vanna_1">
</g>
<g id="shariki_2">
</g>
<g id="shariki_1">
</g>
<g id="voronka">
</g>
<g id="gradusnik">
</g>
<g id="kolba_2">
</g>
<g id="kolba_1">
</g>
<g id="probirki">
</g>
<g id="lupa">
</g>
<g id="bidon">
</g>
</svg>
