<?xml version="1.0" encoding="utf-8"?>
<!-- Generator: Adobe Illustrator 19.0.0, SVG Export Plug-In . SVG Version: 6.00 Build 0)  -->
<svg version="1.1" xmlns="http://www.w3.org/2000/svg" xmlns:xlink="http://www.w3.org/1999/xlink" x="0px" y="0px"
	 viewBox="87 14 304 224" style="enable-background:new 87 14 304 224;" xml:space="preserve">
<style type="text/css">
	.st0{fill:#EFEFEF;}
	.st1{fill:#DDDDDD;}
	.st2{fill:#FFFFFF;}
	.st3{fill:#FCFCFC;}
	.st4{fill:#F48020;}
	.st5{fill:#62BA47;}
	.st6{fill:#62BA46;}
	.st7{fill:url(#SVGID_1_);}
	.st8{fill:url(#SVGID_2_);}
	.st9{fill:url(#SVGID_3_);}
	.st10{fill:url(#SVGID_4_);}
	.st11{fill:url(#SVGID_5_);}
</style>
<g id="Layer_1">
	<g id="Layer_2">
	</g>
	<g id="kolba_4">
	</g>
	<g id="kolba_3">
	</g>
	<g id="kolby">
	</g>
	<g id="car">
	</g>
	<g id="butylka_3">
	</g>
	<g id="butylka_2">
		<g>
			<g>
				<path class="st0" d="M315,124.5h-22.5h-9.2h-84.1h-9.1h-22.6l9.7,36l0,0c0.9,3.6,6.3,6.3,12.9,6.3h102.4c7,0,12.7-3.1,13-7
					L315,124.5z"/>
				<path class="st1" d="M292.5,124.5h-9.2h-42v42.3h51.2c7,0,12.7-3.1,13-7l9.5-35.2h-22.5V124.5z"/>
				<path class="st2" d="M186.7,145.7c0.6,2-0.5,4.1-2.5,4.7l0,0c-2,0.6-4.1-0.5-4.7-2.5l-3-9.6c-0.6-2,0.5-4.1,2.5-4.7l0,0
					c2-0.6,4.1,0.5,4.7,2.5L186.7,145.7z"/>
				<path class="st2" d="M176.8,99"/>
				<g>
					<polygon class="st0" points="314.9,119.4 166.4,119.4 179.3,96.1 301.2,96.1 					"/>
					<path class="st3" d="M301.2,96.1l13.8,23.2H166.4l12.9-23.2L301.2,96.1 M301.2,89.6H179.3c-2.4,0-4.6,1.3-5.7,3.4l-12.9,23.2
						c-1.1,2-1.1,4.5,0.1,6.5s3.3,3.2,5.6,3.2h148.5c2.4,0,4.5-1.3,5.7-3.3c1.2-2,1.1-4.6-0.1-6.6l-13.8-23.2
						C305.6,90.8,303.5,89.6,301.2,89.6L301.2,89.6z"/>
				</g>
			</g>
			<g>
				<ellipse class="st4" cx="241.7" cy="109.3" rx="17.5" ry="8.4"/>
				<path class="st4" d="M233.3,99c0,0.6-1,1.1-2.2,1.1s-2.2-0.5-2.2-1.1s1-1.1,2.2-1.1S233.3,98.4,233.3,99L233.3,99z"/>
				<path class="st5" d="M233.4,102.6c0,0.8-1.3,1.4-2.9,1.4s-2.9-0.6-2.9-1.4s1.3-1.4,2.9-1.4S233.4,101.8,233.4,102.6L233.4,102.6
					z"/>
				<path class="st5" d="M225.7,100.5c0,0.5-0.8,0.8-1.7,0.8c-1,0-1.7-0.4-1.7-0.8c0-0.5,0.8-0.8,1.7-0.8
					C225,99.6,225.7,100,225.7,100.5L225.7,100.5z"/>
				<g>
					<ellipse class="st5" cx="256.6" cy="101.6" rx="9.7" ry="4.6"/>
					<g>
						<path class="st2" d="M254.2,100.9c-0.8,0-1,0.5-1,0.8l0,0l0,0v0.1c0,0.1,0,0.3-0.1,0.4c0,0.1-0.1,0.2-0.1,0.2
							c-0.3,0-0.5-0.2-0.6-0.3c-0.2-0.2-0.3-0.5-0.4-0.7c-0.1-0.3-0.2-0.5-0.2-0.8c0-0.1,0-0.2,0-0.3v-0.1v-0.1
							c0.1-0.2-0.5,0-0.6,0.1c-0.6,0.5-0.4,1.2-0.4,1.8c0,0.2,0,0.3-0.1,0.5c0,0.1-0.1,0.3-0.3,0.4c-0.1,0.1-0.3,0-0.4,0
							c-0.2,0-0.3-0.1-0.3-0.2s-0.2,0-0.3,0c-0.1,0.1-0.3,0.2-0.3,0.3c0.1,0.2,0.5,0.4,0.9,0.3c0.7-0.1,1-0.5,1.2-0.8
							c0.1-0.2,0.1-0.3,0.1-0.5c0.1,0.2,0.2,0.5,0.5,0.7c0.2,0.2,0.4,0.3,0.9,0.3c0.3,0,0.5-0.2,0.7-0.4c0.1,0.2,0.4,0.3,0.7,0.3
							c0.4,0,0.7-0.2,0.9-0.4c0.2-0.2,0.2-0.4,0.2-0.6C255.2,101.5,255.1,100.9,254.2,100.9z M254.5,102.3c0,0,0,0.1-0.1,0.1
							c-0.2,0-0.3-0.1-0.3-0.2c-0.1-0.1-0.2-0.3-0.2-0.4s0-0.3,0-0.4c0,0,0-0.1,0.1-0.1c0.4,0.1,0.5,0.4,0.5,0.6
							C254.5,102,254.6,102.1,254.5,102.3z"/>
						<path class="st2" d="M263.9,101.5c-0.9-0.2-1.4,0.4-1.5,0.7c-0.1,0.3-0.3,0.8,0.4,1c0.4,0.1,0.8-0.1,1-0.2
							c0.3-0.1,0.4-0.3,0.5-0.5C264.5,102.2,264.6,101.6,263.9,101.5z M263.3,102.8L263.3,102.8c-0.2,0.1-0.3-0.1-0.3-0.1
							c0-0.1,0-0.3,0-0.4c0.1-0.1,0.1-0.3,0.3-0.4l0.1-0.1c0.3,0.2,0.2,0.4,0.2,0.7C263.5,102.5,263.5,102.7,263.3,102.8z"/>
						<path class="st2" d="M261.5,101.5c0.2-0.1,0.3-0.2,0.5-0.3c0.3-0.2,0.6-0.5,0.6-0.8s-0.8-0.3-1.2-0.2c-0.5,0.1-0.9,0.4-1,0.7
							c-0.2,0.4-0.3,0.7-0.4,1.1l0,0c-0.3,0.2-0.8,0.5-1.3,0.3c-0.1,0-0.2-0.1-0.2-0.2c0.4-0.2,0.7-0.4,1-0.6
							c0.3-0.2,0.4-0.5-0.1-0.6c-0.4-0.1-1,0-1.2,0.2c-0.3,0.2-0.4,0.4-0.5,0.6c0,0.1-0.1,0.3,0,0.5c-0.3,0.1-0.6,0.1-0.9,0.1
							c-0.3,0-0.5-0.2-0.5-0.3c-0.1-0.2-0.1-0.4,0-0.6c0-0.1,0.1-0.1,0.1-0.2l0,0c0.2,0,0.3,0.2,0.3,0.3c0.1,0.1,0.8-0.1,0.7-0.2
							s-0.2-0.3-0.5-0.3c-0.3-0.1-0.7,0.1-0.9,0.1c-0.5,0.2-0.6,0.6-0.5,1c0,0.2,0.1,0.5,0.5,0.6c0.5,0.2,1.2,0,1.7-0.1
							c0.1,0.2,0.4,0.3,0.8,0.2c0.5,0,1-0.2,1.4-0.3c0,0.2,0.1,0.4,0.4,0.5c0.5,0.1,1,0,1.3-0.2c0.4-0.2,0.6-0.6,0.4-0.9
							C262,101.6,261.8,101.5,261.5,101.5z M258.6,101.4c0-0.1,0.1-0.1,0.1-0.2l0,0c0.2,0,0.2,0.2,0.2,0.2c0,0.2-0.3,0.3-0.5,0.4
							v-0.1C258.4,101.7,258.5,101.5,258.6,101.4z M261.4,100.6c0.1-0.1,0.1-0.1,0.2-0.2l0,0c0.3,0.2,0,0.4-0.2,0.6
							s-0.4,0.3-0.6,0.5c0-0.2,0.1-0.3,0.2-0.5C261.1,100.9,261.2,100.8,261.4,100.6z M261.2,102.5
							C261.2,102.5,261.1,102.6,261.2,102.5c-0.1,0.1-0.1,0.1-0.2,0.1c-0.2-0.1-0.2-0.3-0.2-0.4s0-0.2,0-0.2c0.1,0,0.2-0.1,0.3-0.1
							c0.2-0.1,0.3,0.1,0.4,0.2C261.5,102.2,261.3,102.4,261.2,102.5z"/>
					</g>
				</g>
				<path class="st2" d="M254.6,109.1h-0.2c-1.7-0.1-2.4,0.7-2.7,1.4l0,0c-0.3,0.4-0.9,0.8-1,0.9s-0.2,0-0.2,0
					c-0.1,0-0.1-0.1-0.2-0.2c-0.1-0.2-0.1-0.5-0.1-0.7c0-0.6,0.1-1.2,0.3-1.8c0-0.1-0.2-0.2-0.4-0.2c-0.4,0-0.8,0.1-1,0.3
					c-0.6,0.4-0.9,1-1.2,1.5c-0.1,0.3-0.2,0.5-0.4,0.8c0,0,0,0-0.1,0c-0.2-0.1-0.2-0.2-0.3-0.2c0,0,0-0.1-0.1-0.1s-0.1,0-0.2,0
					c-0.2,0-0.5,0.1-0.7,0.1c-0.1,0-0.2,0.1-0.2,0.1c-0.1,0-0.1,0.1-0.4,0.1c-0.3,0-0.5-0.1-0.6-0.2c-0.3-0.2-0.3-0.6-0.3-0.8
					c0-0.4,0.1-0.7,0.4-1.1c0,0,0-0.1,0.1-0.1c0,0,0,0,0.1,0c0.3,0.1,0.4,0.3,0.5,0.5c0.1,0.3,1.5-0.1,1.4-0.4
					c-0.1-0.2-0.3-0.5-0.8-0.7s-1.2,0-1.6,0.1c-1.1,0.4-1.4,1-1.4,1.6v0.1c-0.1,0.2-0.3,0.5-0.5,0.7c0,0-0.1,0.1-0.3,0.1
					c-0.1,0-0.2-0.1-0.2-0.2c-0.2-0.3-0.3-0.7-0.3-1.1c0-0.3,0-0.5,0.1-0.7c0-0.1,0-0.2,0-0.3l0,0c0-0.4-0.7-0.6-1.5-0.5
					s-1.4,0.4-1.8,0.7c-0.4,0.3-0.6,0.7-0.6,1.1c-0.1,0.3,0,1-0.4,1c-0.5,0-0.9-0.4-1-0.6c-0.3-0.4-0.4-0.9-0.5-1.3
					c-0.1-0.7-0.2-1.5,0-2.2c0-0.1-0.3-0.1-0.5-0.1c-0.3,0.1-0.7,0.2-0.8,0.3c-0.5,0.5-0.7,1.1-0.8,1.7l0,0c0-0.1,0-0.1,0-0.2
					c-0.1-0.5-0.2-0.9-0.3-1.4c0-0.3-0.1-0.7,0-0.9c0.2-0.4-1,0-1.2,0.1c-1.2,1-0.9,2.3-0.9,3.4c0,0.3,0,0.6-0.2,0.9
					c-0.1,0.2-0.2,0.6-0.5,0.7c-0.2,0.1-0.6,0-0.8,0c-0.3-0.1-0.4-0.2-0.5-0.4c0-0.2-0.4-0.1-0.6,0c-0.3,0.1-0.5,0.3-0.5,0.5
					c0.1,0.4,0.8,0.8,1.7,0.7c1.4-0.2,2-1,2.4-1.6c0.2-0.4,0.3-0.7,0.3-1.1c0.2,0.7,0.5,1.4,0.7,2.1c0.1,0.4,1.2-0.2,1.2-0.4
					c0-0.5,0.1-1,0.2-1.5c0.2,0.6,0.7,1.9,2.3,1.9c0.5,0,0.9-0.2,1.2-0.5c0.1,0.2,0.3,0.3,0.7,0.4c0.6,0.1,1.4-0.1,1.8-0.3l0,0
					c0.1,0.1,0.2,0.2,0.4,0.3c0.8,0.3,1.8-0.1,2.2-0.4c0.1,0.1,0.2,0.2,0.4,0.3c0.6,0.3,1.4,0.2,2.1,0c0.6,0.4,2,0.2,2.6-0.2
					c0.1-0.1,0.1-0.1,0.2-0.2c0,0.1,0,0.1,0,0.2c0,0.2,0.1,0.5,0.4,0.6c0.3,0.2,0.9,0.1,1.2,0s0.7-0.3,1-0.5c0,0.4,0.2,0.8,1,1
					c0.7,0.1,1.5-0.1,1.9-0.4c0.5-0.3,0.8-0.6,1-1C255.6,110.3,255.9,109.5,254.6,109.1z M240.2,110.5l-0.1,0.1c0,0-0.1,0-0.2,0
					c-0.3,0-0.4-0.2-0.5-0.4c-0.3-0.4-0.3-0.9,0-1.3c0.1-0.1,0.3-0.4,0.4-0.4h0.1c0.1,0,0.2,0,0.2,0c0.3,0,0.5,0.1,0.5,0.2
					C240.5,109.4,240.5,110,240.2,110.5z M253.3,111.4c-0.1,0.1-0.1,0.1-0.2,0.2c-0.3-0.1-0.3-0.3-0.4-0.4c-0.1-0.3,0-0.6,0-0.8
					c0.1-0.3,0.2-0.5,0.5-0.8c0.1-0.1,0.1-0.1,0.2-0.2c0.6,0.2,0.4,1,0.3,1.2C253.7,110.9,253.5,111.2,253.3,111.4z"/>
				<g>
					<g>
						<path class="st2" d="M239.9,115.7c0,0.2,0.7,0.2,1.1,0.1c0.2-0.1,0.3-0.2,0.3-0.4c0.1-0.2,0.1-0.4,0.3-0.6
							c-0.2,0-0.3,0.1-0.5,0.1c0,0.2,0,0.4,0,0.6c0,0.1,0.1,0.3,0.3,0.4c0.4,0.1,1.2-0.3,1.3-0.4c0.3-0.1-0.2-0.1-0.4,0
							s-0.4,0.3-0.6,0.1c-0.2-0.2-0.2-0.5-0.2-0.8c0-0.1-0.4,0-0.5,0.1s-0.2,0.2-0.3,0.4c0,0.1-0.1,0.2-0.1,0.2s0,0.1-0.1,0.1
							c-0.1,0.1-0.2,0-0.2,0C240.5,115.5,239.9,115.6,239.9,115.7L239.9,115.7z"/>
						<path class="st2" d="M234.5,113.9c-0.3,0.3-0.7,0.5-1.1,0.8c-0.1,0.1,0.5,0.1,0.6,0.1c0.3-0.2,0.5-0.4,0.9-0.5
							c0,0,0.1,0,0.1-0.1c0,0,0,0,0.1,0s0.1,0-0.1,0v0.1c-0.1,0.3-0.5,0.5-0.8,0.7c0.2,0,0.4,0,0.6,0c0.2-0.2,0.5-0.4,0.9-0.6
							c0.1,0,0.1-0.1,0.2-0.1c-0.2,0.1-0.1,0-0.2,0.1c0,0.1-0.1,0.2-0.2,0.3c-0.1,0.1-0.4,0.3-0.3,0.5c0.1,0.1,0.6,0.1,0.8,0.1
							c0.4,0,0.2-0.2-0.2-0.1c-0.1,0,0-0.1,0-0.2c0.1-0.1,0.2-0.2,0.3-0.4c0.1-0.1,0.3-0.3,0-0.4s-0.7,0.1-0.9,0.1
							c-0.5,0.2-0.8,0.4-1.1,0.6c-0.1,0.1,0.5,0.1,0.6,0c0.2-0.2,0.4-0.3,0.6-0.5c0.1-0.1,0.4-0.3,0.1-0.4
							C235.2,113.9,234.7,114,234.5,113.9c-0.5,0.3-1,0.5-1.3,0.7c0.2,0,0.4,0,0.6,0.1c0.3-0.3,0.7-0.5,1-0.8
							C235.1,113.8,234.6,113.8,234.5,113.9L234.5,113.9z"/>
						<path class="st2" d="M238.3,114.7c0,0.3-0.3,0.6-0.4,0.9c-0.1,0.1,0.6,0,0.6,0c0.1-0.2,0.3-0.5,0.7-0.7c0.1-0.1,0.1,0,0,0
							c0.1,0,0.1,0.1,0.1,0.1c0,0.1,0,0.2-0.1,0.3c-0.1,0.1-0.3,0.3,0,0.5c0.2,0.1,0.6,0.1,0.8,0c0.3-0.1,0.3-0.2-0.1-0.1
							c-0.5,0.1-0.2-0.4-0.2-0.5s0.1-0.4-0.3-0.4c-1,0-1.5,0.7-1.6,1c0.2,0,0.4,0,0.6,0c0.1-0.3,0.4-0.6,0.4-1
							C238.9,114.5,238.4,114.6,238.3,114.7L238.3,114.7z"/>
						<path class="st2" d="M242.8,115.6c0.3-0.1,1.2-0.8,0.3-0.9c-0.6,0-0.8,0.4-0.9,0.5c-0.1,0.2-0.1,0.6,0.6,0.6
							c0.8,0.1,1.6-0.4,2-0.6c0.2-0.1,0-0.2-0.3-0.1c-0.3,0.2-0.7,0.4-1.3,0.4c-0.3,0-0.4-0.2-0.5-0.3c-0.1-0.1-0.1-0.4,0.1-0.5
							c-0.1,0,0,0,0.1,0s0.1,0.1,0.1,0.1c0,0.2-0.3,0.3-0.6,0.5C242.1,115.7,242.6,115.7,242.8,115.6L242.8,115.6z"/>
						<path class="st2" d="M248.7,114.8c0.2-0.2,0.4-0.8-0.3-0.9c-0.5,0-0.6,0.3-0.6,0.5s0.3,0.5,0.7,0.6c0.5,0.1,1.1-0.2,1.3-0.4
							c0.1-0.1,0.1-0.1,0-0.2c-0.1,0-0.2,0.1-0.3,0.1c-0.4,0.4-1,0.1-1.2-0.1c-0.1-0.1-0.1-0.1-0.1-0.2v-0.1c0,0-0.1,0,0,0
							c0.5-0.1,0.2,0.5,0.1,0.6C248.2,115,248.6,114.9,248.7,114.8L248.7,114.8z"/>
						<path class="st2" d="M242.8,114.6c0.1-0.1,0.1-0.1,0.1-0.2s-0.1,0-0.2,0c-0.1,0-0.2,0.1-0.2,0.1l0,0l0,0c0,0-0.1,0.1,0,0
							c0,0-0.1,0.1,0,0.1C242.6,114.7,242.8,114.6,242.8,114.6L242.8,114.6z"/>
						<path class="st2" d="M243.5,114.4c0.1,0,0.1-0.1,0.1-0.2s-0.1,0-0.2,0c-0.1,0-0.2,0.1-0.2,0.2l0,0l0,0c0,0,0,0.1,0.1,0.1
							C243.3,114.6,243.4,114.5,243.5,114.4L243.5,114.4z"/>
						<path class="st2" d="M243.9,114.8c0.2,0.3,0.3,0.6,0.4,0.9c0,0.1,0.5-0.1,0.5-0.2c0-0.2,0-0.3,0.3-0.5s0.3-0.4,0.3-0.6
							c0-0.1-0.4,0-0.4,0.1c0,0.2,0,0.4,0.1,0.6c0.1,0.1,0.1,0.3,0.4,0.4c0.2,0,0.5-0.1,0.6-0.1c0.4-0.2,0.5-0.4,0.5-0.6
							c0-0.1-0.4,0.1-0.4,0.1c0,0.1,0,0.3-0.3,0.4c-0.1,0-0.2-0.1-0.2-0.1c-0.2-0.2-0.4-0.5-0.3-0.7c-0.1,0-0.3,0.1-0.4,0.1
							c0,0.2-0.1,0.3-0.4,0.5c-0.3,0.2-0.3,0.4-0.3,0.5c0.2-0.1,0.3-0.1,0.5-0.2c-0.1-0.3-0.3-0.6-0.5-0.9
							C244.3,114.6,243.9,114.7,243.9,114.8L243.9,114.8z"/>
						<path class="st2" d="M237.7,114.4c-0.6-0.1-1,0.2-1.2,0.3c-0.2,0.1-0.5,0.6,0.1,0.7c0.7,0.1,1.2-0.2,1.3-0.3
							C238.1,115,238.3,114.6,237.7,114.4c-0.1,0-0.6,0.1-0.4,0.1c0.3,0.1,0.2,0.3,0.2,0.4s-0.1,0.2-0.2,0.2l-0.1,0.1
							c0,0-0.2,0.1-0.1,0.1c-0.4,0-0.3-0.3-0.2-0.4c0-0.1,0.1-0.2,0.2-0.2c0,0,0.1-0.1,0.2-0.1c0.1,0,0.1,0,0.1,0
							C237.5,114.6,238,114.5,237.7,114.4z"/>
						<path class="st2" d="M246.6,114.3c-0.5,0.1-0.5,0.4-0.4,0.6s0.3,0.6,1,0.5s0.7-0.5,0.5-0.7
							C247.6,114.6,247.2,114.2,246.6,114.3c-0.2,0-0.3,0.3-0.1,0.2c0.3,0,0.5,0.1,0.7,0.2c0.1,0.1,0.2,0.2,0.2,0.2v0.1
							c0,0-0.1,0.1,0,0.1c-0.3,0.1-0.6-0.1-0.7-0.2c-0.1-0.1-0.1-0.2-0.2-0.2v-0.1c0,0,0-0.1,0,0
							C246.7,114.5,246.8,114.2,246.6,114.3z"/>
					</g>
				</g>
				<g>
					<path class="st6" d="M220.4,105.7c-0.1,0-0.2-0.1-0.3-0.1c-0.4-0.1-0.6,0-1,0c-0.8,0-1.1,0-2.1-0.1c0-0.4,0.5-0.7,0.7-1
						s-0.1-0.6-0.1-1c0-0.2,0-0.4,0-0.6c-0.3,0.1-0.1,0.5-0.2,0.7c-0.1-0.2-0.1-0.6-0.3-0.8c-0.1,0.2,0,0.6,0,0.8
						c-0.1-0.2-0.2-0.5-0.4-0.7c-0.2,0.2,0.1,0.6,0.1,0.8c-0.2-0.2-0.3-0.4-0.5-0.6c-0.1,0.3,0.2,0.5,0.2,0.7
						c-0.2-0.2-0.3-0.4-0.5-0.5c0,0.2,0.2,0.4,0.4,0.5c-0.2-0.1-0.3-0.2-0.6-0.2c0,0.1,0.2,0.2,0.3,0.3c-0.2,0-0.2-0.1-0.4-0.2
						c0,0.1,0.2,0.2,0.3,0.3c-0.1,0-0.2-0.1-0.4-0.1c0,0.1,0.3,0.2,0.2,0.2h-0.2c0,0,0.2,0.1,0.1,0.1c-0.1,0-0.1,0-0.2,0
						c0,0.1,0.1,0,0.1,0.1c-0.1,0-0.1,0-0.1,0c0,0.1,0.1,0,0.1,0.1c-0.7,0.4-0.3,0.7-0.4,1.2c0-0.1-0.6-0.1-1.1-0.2
						c-0.3-0.1-0.3-0.2-0.5-0.3h0.1c-0.1,0-0.2,0-0.2-0.1c0.1,0,0.3,0,0.3,0c-0.1,0-0.5-0.1-0.4-0.1c0.2,0,0.3,0.1,0.5,0
						c-0.2,0-0.6-0.1-0.6-0.2c0.2,0,0.4,0.1,0.6,0.1c-0.3-0.1-0.7-0.2-0.8-0.3c0.2,0.1,0.5,0.2,0.7,0.2c-0.4-0.1-0.7-0.2-1-0.2
						c0.2,0.2,0.7,0.2,0.8,0.4c-0.3-0.1-0.6-0.1-0.8-0.2c0.1,0.2,0.5,0.2,0.8,0.3c-0.3,0-0.4-0.1-0.7-0.1c0.1,0.1,0.5,0.1,0.6,0.2
						c-0.1,0-0.3,0-0.4,0c0,0.1,0.3,0.1,0.4,0.1c-0.2,0-0.3,0-0.4,0c0.1,0,0.3,0,0.4,0.1c-0.1,0-0.2,0-0.2,0h0.2
						c-0.1,0-0.1,0-0.1,0.1c0.1,0,0.1,0,0.2,0h-0.1c0.4,0.1,0.6,0.4,1.1,0.5c-0.3,0.1,0.3,0.2-3.1,0.7c0.1,0,1.5-0.2,1.9-0.2
						c0.4-0.1,0.8-0.1,1.2-0.2c0.1,0,0.2,0,0.3,0c0.7,0,1.3,0,2-0.2c-0.5,0-1.4,0.1-1.8-0.1c0.5-0.3,0.1-1.2,0.5-1.4
						c0.4-0.2,0.9-0.7,1.6-0.3c0.1,0.1,0.1,0.2-0.1,0.4c-0.3,0.2-0.5,0.4-0.4,0.9c0,0.1,0,0.2-0.3,0.2c1.5,0.1,1.9,0.1,2.8,0
						c0.3,0,0.7-0.1,0.7,0s-0.3,0-0.5,0c-0.4,0,0.2,0.1,0.4,0.1c0.1,0,0.9,0,1.3-0.1C220.8,105.7,220.6,105.7,220.4,105.7z"/>
					<path class="st6" d="M216.1,102.1c-3.4,0-6.1,1.3-6.1,2.9s2.7,2.9,6.1,2.9s6.1-1.3,6.1-2.9
						C222.2,103.4,219.4,102.1,216.1,102.1 M216.1,102.2c3.2,0,5.8,1.3,5.8,2.8s-2.6,2.8-5.8,2.8s-5.8-1.3-5.8-2.8
						C210.2,103.5,212.9,102.2,216.1,102.2"/>
				</g>
			</g>
		</g>
	</g>
	<g id="butylka_1">
	</g>
	<g id="vanna_2">
	</g>
	<g id="sneg">
	</g>
	<g id="vanna_1">
	</g>
	<g id="shariki_2">
	</g>
	<g id="shariki_1">
	</g>
	<g id="voronka">
	</g>
	<g id="gradusnik">
	</g>
	<g id="kolba_2">
	</g>
	<g id="kolba_1">
	</g>
	<g id="probirki">
	</g>
	<g id="lupa">
	</g>
	<g id="bidon">
	</g>
</g>
<g id="snow">
	<g id="clock">
		<g>
			
				<linearGradient id="SVGID_1_" gradientUnits="userSpaceOnUse" x1="620.9105" y1="200.8513" x2="636.8979" y2="155.5535" gradientTransform="matrix(-1 0 0 -1 776.3992 254)">
				<stop  offset="0" style="stop-color:#404B71"/>
				<stop  offset="0.6044" style="stop-color:#3C476E"/>
				<stop  offset="1" style="stop-color:#354169"/>
			</linearGradient>
			<path class="st7" d="M151.9,94.1l1.7-6.4L152,85l-0.2,0.8c-0.2,0.8-1.1,1.3-1.9,1.1c-0.1,0-0.3-0.1-0.4-0.2
				c-0.6-0.3-0.9-1.1-0.7-1.8l1-3.9l-1.9-3.3l-1.9,3.4l1,3.9c0.2,0.8-0.3,1.7-1.1,1.9c-0.4,0.1-0.9,0-1.2-0.2
				c-0.4-0.2-0.6-0.5-0.7-1l-0.3-0.7l-1.6,2.7l1.7,6.4c0.2,0.8-0.3,1.7-1.1,1.9c-0.4,0.1-0.9,0-1.2-0.2c-0.4-0.2-0.6-0.5-0.7-1
				l-0.9-3.3l-2.5,4.4c-0.4,0.8-1.4,1-2.2,0.6s-1-1.4-0.6-2.2l2.5-4.4l-3.3,0.9c-0.4,0.1-0.9,0-1.2-0.2c-0.4-0.2-0.6-0.5-0.7-1
				c-0.2-0.8,0.3-1.7,1.1-1.9l6.4-1.7l1.6-2.7l-0.8,0.2c-0.4,0.1-0.9,0-1.2-0.2c-0.4-0.2-0.6-0.5-0.7-1c-0.2-0.8,0.3-1.7,1.1-1.9
				l3.8-1l1.9-3.3h-3.8l-2.8,2.9c-0.5,0.5-1.3,0.6-1.9,0.3c-0.1-0.1-0.2-0.2-0.3-0.3c-0.6-0.6-0.6-1.6,0-2.2l0.6-0.6h-3.1l-4.8,4.7
				c-0.5,0.5-1.3,0.6-1.9,0.3c-0.1-0.1-0.2-0.2-0.3-0.3c-0.6-0.6-0.6-1.6,0-2.2l2.4-2.4h-5c-0.3,0-0.6-0.1-0.8-0.2
				c-0.5-0.3-0.8-0.8-0.8-1.4c0-0.9,0.7-1.6,1.6-1.6h5l-2.4-2.4c-0.6-0.6-0.6-1.6,0-2.2c0.6-0.6,1.6-0.6,2.2,0l4.7,4.7h3.1l-0.6-0.6
				c-0.6-0.6-0.6-1.6,0-2.2c0.6-0.6,1.6-0.6,2.2,0l2.8,2.8h3.8l-1.9-3.3l-3.9-1c-0.1,0-0.3-0.1-0.4-0.2c-0.6-0.3-0.9-1.1-0.7-1.8
				c0.2-0.8,1.1-1.3,1.9-1.1l0.8,0.2l-1.6-2.7l-6.2-1.9c-0.1,0-0.3-0.1-0.4-0.2c-0.6-0.4-0.9-1.1-0.7-1.8c0.2-0.8,1.1-1.3,1.9-1.1
				l3.3,0.9l-2.5-4.4c-0.4-0.8-0.2-1.7,0.6-2.2c0.8-0.4,1.7-0.2,2.2,0.6l2.5,4.4l0.9-3.3c0.2-0.8,1.1-1.3,1.9-1.1s1.4,1.1,1.1,1.9
				l-1.7,6.4l1.6,2.7l0.2-0.8c0.2-0.8,1.1-1.3,1.9-1.1s1.3,1.1,1.1,1.9l-1,3.9l1.9,3.3l1.9-3.3l-1-3.9c-0.2-0.8,0.3-1.7,1.1-1.9
				s1.7,0.3,1.9,1.1l0.2,0.8l1.6-2.7l-1.7-6.4c-0.2-0.8,0.3-1.7,1.1-1.9c0.8-0.2,1.7,0.3,1.9,1.1l0.9,3.3l2.5-4.4
				c0.4-0.8,1.4-1,2.2-0.6c0.8,0.4,1,1.4,0.6,2.2l-2.5,4.4l3.3-0.9c0.8-0.2,1.7,0.3,1.9,1.1s-0.3,1.7-1.1,1.9l-6.4,1.7l-1.6,2.7
				l0.8-0.2c0.8-0.2,1.7,0.3,1.9,1.1c0.2,0.8-0.3,1.7-1.1,1.9l-3.8,1l-1.8,3.5h3.8l2.8-2.8c0.6-0.6,1.6-0.6,2.2,0
				c0.6,0.6,0.6,1.6,0,2.2l-0.5,0.6h3.1l4.7-4.7c0.6-0.6,1.6-0.6,2.2,0c0.6,0.6,0.6,1.6,0,2.2l-2.3,2.5h5c0.9,0,1.6,0.7,1.6,1.6
				s-0.7,1.6-1.6,1.6h-5l2.4,2.4c0.6,0.6,0.6,1.6,0,2.2c-0.5,0.5-1.3,0.6-1.9,0.3c-0.1-0.1-0.2-0.2-0.3-0.3l-4.7-4.7H159l0.6,0.6
				c0.6,0.6,0.6,1.6,0,2.2c-0.5,0.5-1.3,0.6-1.9,0.3c-0.1-0.1-0.2-0.2-0.3-0.3l-2.8-2.8h-3.8l1.9,3.3l3.9,1c0.8,0.2,1.3,1.1,1.1,1.9
				c-0.2,0.8-1.1,1.3-1.9,1.1l-0.8-0.2l1.6,2.7l6.4,1.7c0.8,0.2,1.3,1.1,1.1,1.9c-0.2,0.8-1.1,1.3-1.9,1.1l-3.6-0.6l2.5,4.4
				c0.4,0.8,0.2,1.7-0.6,2.2c-0.5,0.3-1.1,0.3-1.6,0c-0.2-0.1-0.4-0.3-0.6-0.6l-2.5-4.4l-0.8,3.3c-0.2,0.8-1.1,1.3-1.9,1.1
				c-0.1,0-0.3-0.1-0.4-0.2C152,95.5,151.7,94.8,151.9,94.1z"/>
			
				<linearGradient id="SVGID_2_" gradientUnits="userSpaceOnUse" x1="502.1994" y1="136.9995" x2="507.0332" y2="123.3037" gradientTransform="matrix(-1 0 0 -1 776.3992 254)">
				<stop  offset="0" style="stop-color:#404B71"/>
				<stop  offset="0.6044" style="stop-color:#3C476E"/>
				<stop  offset="1" style="stop-color:#354169"/>
			</linearGradient>
			<path class="st8" d="M273,129.3l0.5-1.9l-0.5-0.8l-0.1,0.2c-0.1,0.3-0.3,0.4-0.6,0.3h-0.1c-0.2-0.1-0.3-0.3-0.2-0.5l0.3-1.2
				l-0.6-1l-0.6,1l0.3,1.2c0.1,0.3-0.1,0.5-0.3,0.6c-0.1,0-0.3,0-0.4,0c-0.1-0.1-0.2-0.2-0.2-0.3l-0.1-0.2l-0.5,0.8l0.5,1.9
				c0.1,0.3-0.1,0.5-0.3,0.6c-0.1,0-0.3,0-0.4,0c-0.1-0.1-0.2-0.2-0.2-0.3l-0.3-1l-0.8,1.3c-0.1,0.2-0.4,0.3-0.7,0.2
				c-0.2-0.1-0.3-0.4-0.2-0.7l0.8-1.3l-1,0.3c-0.1,0-0.3,0-0.4,0c-0.1-0.1-0.2-0.2-0.2-0.3c-0.1-0.3,0.1-0.5,0.3-0.6l1.9-0.5
				l0.5-0.8l-0.2,0.1c-0.1,0-0.3,0-0.4,0c-0.1-0.1-0.2-0.2-0.2-0.3c-0.1-0.3,0.1-0.5,0.3-0.6l1.2-0.3l0.6-1h-1.2l-0.9,0.9
				c-0.2,0.2-0.4,0.2-0.6,0.1c0,0-0.1,0-0.1-0.1c-0.2-0.2-0.2-0.5,0-0.7l0.2-0.2h-0.9l-1.4,1.4c-0.2,0.2-0.4,0.2-0.6,0.1
				c0,0-0.1,0-0.1-0.1c-0.2-0.2-0.2-0.5,0-0.7l0.7-0.7h-1.5c-0.1,0-0.2,0-0.2-0.1c-0.1-0.1-0.2-0.2-0.2-0.4c0-0.3,0.2-0.5,0.5-0.5
				h1.5l-0.7-0.7c-0.2-0.2-0.2-0.5,0-0.7s0.5-0.2,0.7,0l1.4,1.4h0.9L268,123c-0.2-0.2-0.2-0.5,0-0.7s0.5-0.2,0.7,0l0.9,0.9h1.2
				l-0.6-1l-1.2-0.3h-0.1c-0.2-0.1-0.3-0.3-0.2-0.5c0.1-0.3,0.3-0.4,0.6-0.3l0.2,0.1l-0.5-0.8l-1.9-0.5H267
				c-0.2-0.1-0.3-0.3-0.2-0.5c0.1-0.3,0.3-0.4,0.6-0.3l1,0.3l-0.8-1.3c-0.1-0.2-0.1-0.5,0.2-0.7c0.2-0.1,0.5-0.1,0.7,0.2l0.8,1.3
				l0.3-1c0.1-0.3,0.3-0.4,0.6-0.3c0.3,0.1,0.4,0.3,0.3,0.6l-0.5,1.9l0.5,0.8l0.1-0.2c0.1-0.3,0.3-0.4,0.6-0.3s0.4,0.3,0.3,0.6
				l-0.3,1.2l0.6,1l0.6-1l-0.3-1.2c-0.1-0.3,0.1-0.5,0.3-0.6c0.3-0.1,0.5,0.1,0.6,0.3l0.1,0.2l0.5-0.8l-0.5-1.9
				c-0.1-0.3,0.1-0.5,0.3-0.6c0.3-0.1,0.5,0.1,0.6,0.3l0.3,1l0.8-1.3c0.1-0.2,0.4-0.3,0.7-0.2c0.2,0.1,0.3,0.4,0.2,0.7l-0.8,1.3
				l1-0.3c0.3-0.1,0.5,0.1,0.6,0.3c0.1,0.3-0.1,0.5-0.3,0.6l-1.9,0.5l-0.5,0.8l0.2-0.1c0.3-0.1,0.5,0.1,0.6,0.3
				c0.1,0.3-0.1,0.5-0.3,0.6l-1.2,0.3l-0.6,1h1.2l0.9-0.9c0.2-0.2,0.5-0.2,0.7,0s0.2,0.5,0,0.7l-0.2,0.2h0.9l1.4-1.4
				c0.2-0.2,0.5-0.2,0.7,0s0.2,0.5,0,0.7l-0.7,0.7h1.5c0.3,0,0.5,0.2,0.5,0.5s-0.2,0.5-0.5,0.5h-1.5l0.7,0.7c0.2,0.2,0.2,0.5,0,0.7
				s-0.4,0.2-0.6,0.1c0,0-0.1,0-0.1-0.1l-1.4-1.4h-0.9l0.2,0.2c0.2,0.2,0.2,0.5,0,0.7c-0.2,0.2-0.4,0.2-0.6,0.1c0,0-0.1,0-0.1-0.1
				l-0.9-0.9h-1.2l0.6,1l1.2,0.3c0.3,0.1,0.4,0.3,0.3,0.6c-0.1,0.3-0.3,0.4-0.6,0.3l-0.2-0.1l0.5,0.8l1.9,0.5
				c0.3,0.1,0.4,0.3,0.3,0.6c-0.1,0.3-0.3,0.4-0.6,0.3l-1-0.3l0.8,1.3c0.1,0.2,0.1,0.5-0.2,0.7c-0.2,0.1-0.3,0.1-0.5,0
				c-0.1,0-0.1-0.1-0.2-0.2l-0.8-1.3l-0.3,1c-0.1,0.3-0.3,0.4-0.6,0.3h-0.1C273,129.8,272.9,129.6,273,129.3z"/>
			
				<linearGradient id="SVGID_3_" gradientUnits="userSpaceOnUse" x1="437.2567" y1="112.4204" x2="447.677" y2="82.8963" gradientTransform="matrix(-1 0 0 -1 776.3992 254)">
				<stop  offset="0" style="stop-color:#404B71"/>
				<stop  offset="0.6044" style="stop-color:#3C476E"/>
				<stop  offset="1" style="stop-color:#354169"/>
			</linearGradient>
			<path class="st9" d="M336.6,168.2l1.1-4.2l-1-1.8l-0.1,0.5c-0.1,0.6-0.7,0.9-1.3,0.7c-0.1,0-0.2-0.1-0.2-0.1
				c-0.4-0.2-0.6-0.7-0.5-1.2l0.7-2.5l-1.2-2.2l-1.2,2.2l0.7,2.5c0.1,0.6-0.2,1.1-0.7,1.3c-0.3,0.1-0.6,0-0.8-0.1s-0.4-0.4-0.5-0.6
				l-0.1-0.5l-1,1.8l1.1,4.2c0.1,0.6-0.2,1.1-0.7,1.3c-0.3,0.1-0.6,0-0.8-0.1s-0.4-0.4-0.5-0.6l-0.6-2.2l-1.6,2.8
				c-0.3,0.5-0.9,0.7-1.4,0.4s-0.7-0.9-0.4-1.4l1.6-2.8l-2.2,0.6c-0.3,0.1-0.6,0-0.8-0.1s-0.4-0.4-0.5-0.6c-0.1-0.6,0.2-1.1,0.7-1.3
				l4.2-1.1l1-1.8l-0.5,0.1c-0.3,0.1-0.6,0-0.8-0.1c-0.2-0.1-0.4-0.4-0.5-0.6c-0.1-0.6,0.2-1.1,0.7-1.3l2.5-0.7l1.2-2.2h-2.5
				l-1.8,1.8c-0.3,0.3-0.9,0.4-1.2,0.2c-0.1,0-0.1-0.1-0.2-0.2c-0.4-0.4-0.4-1.1,0-1.5l0.4-0.4h-2l-3,3c-0.3,0.3-0.9,0.4-1.2,0.2
				c-0.1,0-0.1-0.1-0.2-0.2c-0.4-0.4-0.4-1.1,0-1.5l1.6-1.6h-3.3c-0.2,0-0.4,0-0.5-0.1c-0.3-0.2-0.5-0.5-0.5-0.9c0-0.6,0.5-1,1-1
				h3.3l-1.6-1.6c-0.4-0.4-0.4-1.1,0-1.5s1.1-0.4,1.5,0l3,3h2l-0.4-0.4c-0.4-0.4-0.4-1.1,0-1.5s1.1-0.4,1.5,0l1.8,1.8h2.5l-1.2-2.2
				l-2.5-0.7c-0.1,0-0.2-0.1-0.2-0.1c-0.4-0.2-0.6-0.7-0.5-1.2c0.1-0.6,0.7-0.9,1.3-0.7l0.5,0.1l-1-1.8l-4.2-1.1
				c-0.1,0-0.2-0.1-0.2-0.1c-0.4-0.2-0.6-0.7-0.5-1.2c0.1-0.6,0.7-0.9,1.3-0.7l2.2,0.6l-1.6-2.8c-0.3-0.5-0.1-1.1,0.4-1.4
				c0.5-0.3,1.1-0.1,1.4,0.4l1.6,2.8l0.6-2.2c0.1-0.6,0.7-0.9,1.3-0.7c0.5,0.1,0.9,0.7,0.7,1.3l-1.1,4.2l1,1.8l0.1-0.5
				c0.1-0.6,0.7-0.9,1.3-0.7c0.6,0.2,0.9,0.7,0.7,1.3l-0.7,2.5l1.2,2.2l1.2-2.2l-0.7-2.5c-0.1-0.6,0.2-1.1,0.7-1.3
				c0.6-0.1,1.1,0.2,1.3,0.7l0.1,0.5l1-1.8l-1.1-4.2c-0.1-0.6,0.2-1.1,0.7-1.3c0.6-0.1,1.1,0.2,1.3,0.7l0.6,2.2l1.6-2.8
				c0.3-0.5,0.9-0.7,1.4-0.4c0.5,0.3,0.7,0.9,0.4,1.4l-1.6,2.8l2.2-0.6c0.6-0.1,1.1,0.2,1.3,0.7c0.1,0.6-0.2,1.1-0.7,1.3l-4.2,1.1
				l-1,1.8l0.5-0.1c0.6-0.1,1.1,0.2,1.3,0.7c0.1,0.6-0.2,1.1-0.7,1.3l-2.5,0.7l-1.2,2.2h2.5l1.8-1.8c0.4-0.4,1.1-0.4,1.5,0
				c0.4,0.4,0.4,1.1,0,1.5l-0.4,0.4h2l3-3c0.4-0.4,1.1-0.4,1.5,0s0.4,1.1,0,1.5l-1.6,1.6h3.3c0.6,0,1,0.5,1,1c0,0.6-0.5,1-1,1h-3.3
				l1.6,1.6c0.4,0.4,0.4,1.1,0,1.5c-0.3,0.3-0.9,0.4-1.2,0.2c-0.1,0-0.1-0.1-0.2-0.2l-3-3h-2l0.4,0.4c0.4,0.4,0.4,1.1,0,1.5
				c-0.3,0.3-0.9,0.4-1.2,0.2c-0.1,0-0.2-0.1-0.2-0.2l-1.8-1.8h-2.5l1.2,2.2l2.5,0.7c0.5,0.2,0.9,0.7,0.7,1.3
				c-0.1,0.6-0.7,0.9-1.3,0.7l-0.5-0.1l1,1.8l4.2,1.1c0.5,0.2,0.9,0.7,0.7,1.3c-0.1,0.6-0.7,0.9-1.3,0.7l-2.2-0.6l1.6,2.8
				c0.3,0.5,0.1,1.1-0.4,1.4c-0.3,0.2-0.7,0.2-1,0c-0.2-0.1-0.3-0.2-0.4-0.4l-1.6-2.8l-0.6,2.2c-0.1,0.6-0.7,0.9-1.3,0.7
				c-0.1,0-0.2-0.1-0.3-0.1C336.7,169.1,336.5,168.7,336.6,168.2z"/>
			
				<linearGradient id="SVGID_4_" gradientUnits="userSpaceOnUse" x1="554.5782" y1="110.1311" x2="583.6765" y2="42.0288" gradientTransform="matrix(-1 0 0 -1 776.3992 254)">
				<stop  offset="0" style="stop-color:#404B71"/>
				<stop  offset="0.6044" style="stop-color:#3C476E"/>
				<stop  offset="1" style="stop-color:#354169"/>
			</linearGradient>
			<path class="st10" d="M172.4,176.4c0,0.7,0.4,1.4,1,1.7c0.3,0.2,0.6,0.3,1,0.3h6.3l-3,3c-0.8,0.8-0.8,2,0,2.8
				c0.1,0.1,0.3,0.2,0.4,0.3c0.8,0.4,1.8,0.3,2.4-0.3l5.9-5.9h3.9l-1.7,1.7c-0.8,0.8-0.8,2,0,2.8c0.1,0.1,0.3,0.2,0.4,0.3
				c0.8,0.4,1.8,0.3,2.4-0.3l4.6-4.6h3.8l-0.1,0.1c-0.8,0.8-0.8,2,0,2.8c0.2,0.5,0.5,0.8,0.9,1.1s1,0.3,1.5,0.2h0.2l-1.9,3.3
				l-6.2,1.7c-1.1,0.3-1.7,1.4-1.4,2.4c0.1,0.5,0.5,1,0.9,1.2c0.4,0.3,1,0.3,1.5,0.2l2.4-0.6l-2,3.4l-8,2.1
				c-1.1,0.3-1.7,1.4-1.4,2.4c0.1,0.5,0.5,1,0.9,1.2c0.4,0.3,1,0.3,1.5,0.2l4.2-1.1l-3.2,5.5c-0.5,1-0.2,2.2,0.7,2.7
				c1,0.5,2.2,0.2,2.7-0.7l3.2-5.5l1.1,4.2c0.1,0.5,0.5,1,0.9,1.2c0.4,0.3,1,0.3,1.5,0.2c1.1-0.3,1.7-1.4,1.4-2.4l-2.1-8l2-3.4
				l0.6,2.4c0.1,0.5,0.5,1,0.9,1.2c0.4,0.3,1,0.3,1.5,0.2c1.1-0.3,1.7-1.4,1.4-2.4l-1.7-6.2l1.9-3.3v0.2c0.1,0.5,0.5,1,0.9,1.2
				c0.4,0.2,0.9,0.3,1.4,0.2c1,0.2,2.1-0.4,2.4-1.4v-0.2l1.9,3.3l-1.7,6.2c-0.2,0.9,0.2,1.8,0.9,2.2c0.1,0.1,0.3,0.2,0.5,0.2
				c1.1,0.3,2.2-0.3,2.4-1.4l0.6-2.4l2,3.4l-2.1,8c-0.2,0.9,0.2,1.8,0.9,2.2c0.1,0.1,0.3,0.2,0.5,0.2c1.1,0.3,2.2-0.3,2.4-1.4
				l1.1-4.2l3.2,5.5c0.2,0.3,0.4,0.6,0.7,0.7c0.6,0.3,1.4,0.4,2,0c1-0.5,1.3-1.8,0.7-2.7l-3.2-5.5l4.2,1.1c1.1,0.3,2.2-0.3,2.4-1.4
				c0.3-1.1-0.4-2.1-1.4-2.4l-8-2.1l-2-3.4l2.4,0.6c1.1,0.3,2.2-0.3,2.4-1.4c0.3-1.1-0.4-2.2-1.4-2.4l-6.2-1.7l-1.9-3.3h0.2
				c1,0.3,2.1-0.3,2.4-1.3c0.7-0.8,0.7-2-0.1-2.7l-0.1-0.1h3.8l4.6,4.6c0.1,0.1,0.3,0.2,0.4,0.3c0.8,0.4,1.8,0.3,2.4-0.3
				c0.8-0.8,0.8-2,0-2.8l-1.7-1.7h3.9l5.9,5.9c0.1,0.1,0.3,0.2,0.4,0.3c0.8,0.4,1.8,0.3,2.4-0.3c0.8-0.8,0.8-2,0-2.8l-3-3h6.3
				c1.1,0,2-0.9,2-2s-0.9-2-2-2h-6.3l3-3c0.8-0.8,0.8-2,0-2.8s-2-0.8-2.8,0l-5.9,5.9h-3.9l1.7-1.7c0.8-0.8,0.8-2,0-2.8s-2-0.8-2.8,0
				l-4.6,4.6H216l0.1-0.1c0.8-0.8,0.8-2,0-2.8c-0.3-1-1.4-1.5-2.4-1.3h-0.2l1.9-3.3l6.2-1.7c1.1-0.3,1.7-1.4,1.4-2.4
				c-0.3-1.1-1.4-1.7-2.4-1.4l-2.4,0.6l2-3.4l8-2.1c1.1-0.3,1.7-1.4,1.4-2.4c-0.3-1.1-1.4-1.7-2.4-1.4l-4.2,1.1l3.2-5.5
				c0.5-1,0.2-2.2-0.7-2.7c-1-0.5-2.2-0.2-2.7,0.7l-3.2,5.5l-1.1-4.2c-0.3-1.1-1.4-1.7-2.4-1.4c-1.1,0.3-1.7,1.4-1.4,2.4l2.1,8
				l-2,3.4l-0.6-2.4c-0.3-1.1-1.4-1.7-2.4-1.4c-1.1,0.3-1.7,1.4-1.4,2.4l1.7,6.2l-1.9,3.3v-0.2c-0.3-1-1.3-1.6-2.3-1.4
				c-1-0.2-2.1,0.4-2.4,1.4v0.2l-1.9-3.3l1.7-6.2c0.3-1.1-0.4-2.2-1.4-2.4c-1.1-0.3-2.2,0.3-2.4,1.4l-0.6,2.4l-2-3.4l2.1-8
				c0.3-1.1-0.4-2.1-1.4-2.4c-1.1-0.3-2.2,0.3-2.4,1.4l-1.1,4.2l-3.2-5.5c-0.6-1-1.8-1.3-2.7-0.7c-1,0.5-1.3,1.8-0.7,2.7l3.2,5.5
				l-4.2-1.1c-1.1-0.3-2.2,0.3-2.4,1.4c-0.2,0.9,0.2,1.8,0.9,2.2c0.1,0.1,0.3,0.2,0.5,0.2l8,2.1l2,3.4l-2.4-0.6
				c-1.1-0.3-2.2,0.3-2.4,1.4c-0.2,0.9,0.2,1.8,0.9,2.2c0.1,0.1,0.3,0.2,0.5,0.2l6.2,1.7l1.9,3.3H202c-1-0.3-2.1,0.3-2.4,1.3
				c-0.7,0.8-0.7,2,0.1,2.7l0.1,0.1H196l-4.6-4.6c-0.8-0.8-2-0.8-2.8,0c-0.8,0.8-0.8,2,0,2.8l1.7,1.7h-3.9l-5.9-5.9
				c-0.8-0.8-2-0.8-2.8,0c-0.8,0.8-0.8,2,0,2.8l3,3h-6.3C173.3,174.4,172.4,175.3,172.4,176.4z M205.8,175.1
				c0.7-1.2,2.3-1.6,3.5-0.9c1.2,0.7,1.6,2.3,0.9,3.5c-0.7,1.2-2.3,1.6-3.5,0.9C205.5,177.9,205.1,176.4,205.8,175.1z"/>
			
				<linearGradient id="SVGID_5_" gradientUnits="userSpaceOnUse" x1="513.9079" y1="194.4623" x2="525.9298" y2="166.3201" gradientTransform="matrix(-1 0 0 -1 776.3992 254)">
				<stop  offset="0" style="stop-color:#404B71"/>
				<stop  offset="0.6044" style="stop-color:#3C476E"/>
				<stop  offset="1" style="stop-color:#354169"/>
			</linearGradient>
			<path class="st11" d="M240.2,74.6c0,0.4,0.3,0.7,0.7,0.7h1l-0.4,0.5c-0.2,0.3-0.1,0.8,0.2,1c0.1,0.1,0.3,0.1,0.4,0.1
				c0.2,0,0.5-0.1,0.6-0.3l0.9-1.3h1.5l-2,2.8c-0.2,0.3-0.1,0.8,0.2,1c0.1,0.1,0.3,0.1,0.4,0.1c0.2,0,0.5-0.1,0.6-0.3l2.6-3.7h1.3
				l-1.2,1.7c-0.2,0.3-0.1,0.8,0.2,1c0.1,0.1,0.3,0.1,0.4,0.1c0.2,0,0.5-0.1,0.6-0.3l1.7-2.5h0.9l-0.4,0.5c-0.2,0.3-0.1,0.8,0.2,1
				c0.1,0.1,0.3,0.1,0.4,0.1c0.2,0,0.5-0.1,0.6-0.3l0.9-1.3h0.3l0.8,1.5l-0.2,0.3l-1.6,0.1c-0.4,0-0.7,0.4-0.7,0.8
				c0,0.4,0.4,0.7,0.7,0.7c0,0,0,0,0.1,0l0.6-0.1l-0.4,0.8l-3,0.3c-0.4,0-0.7,0.4-0.7,0.8s0.4,0.7,0.7,0.7c0,0,0,0,0.1,0l2-0.2
				l-0.7,1.1l-4.5,0.4c-0.4,0-0.7,0.4-0.7,0.8s0.4,0.7,0.7,0.7c0,0,0,0,0.1,0l3.4-0.3l-0.7,1.3l-1.6,0.1c-0.4,0-0.7,0.4-0.7,0.8
				s0.4,0.7,0.7,0.7c0,0,0,0,0.1,0l0.6-0.1l-0.5,0.9c-0.2,0.3-0.1,0.8,0.3,1c0.1,0.1,0.2,0.1,0.4,0.1c0.3,0,0.5-0.1,0.6-0.4l0.5-0.9
				l0.3,0.6c0.1,0.3,0.4,0.4,0.7,0.4c0.1,0,0.2,0,0.3-0.1c0.4-0.2,0.5-0.6,0.4-1l-0.7-1.5l0.7-1.3l1.5,3.1c0.1,0.3,0.4,0.4,0.7,0.4
				c0.1,0,0.2,0,0.3-0.1c0.4-0.2,0.5-0.6,0.4-1l-1.9-4.1l0.7-1.1l0.9,1.8c0.1,0.3,0.4,0.4,0.7,0.4c0.1,0,0.2,0,0.3-0.1
				c0.4-0.2,0.5-0.6,0.4-1l-1.3-2.8l0.4-0.8l0.3,0.6c0.1,0.3,0.4,0.4,0.7,0.4c0.1,0,0.2,0,0.3-0.1c0.4-0.2,0.5-0.6,0.4-1l-0.7-1.5
				l0.2-0.3h1.7l0.2,0.3l-0.7,1.5c-0.2,0.4,0,0.8,0.4,1c0.1,0,0.2,0.1,0.3,0.1c0.3,0,0.5-0.2,0.7-0.4l0.3-0.6l0.4,0.8l-1.3,2.8
				c-0.2,0.4,0,0.8,0.4,1c0.1,0,0.2,0.1,0.3,0.1c0.3,0,0.5-0.2,0.7-0.4l0.9-1.8l0.7,1.1l-1.9,4.1c-0.2,0.4,0,0.8,0.4,1
				c0.1,0,0.2,0.1,0.3,0.1c0.3,0,0.5-0.2,0.7-0.4l1.5-3.1l0.7,1.3l-0.7,1.5c-0.2,0.4,0,0.8,0.4,1c0.1,0,0.2,0.1,0.3,0.1
				c0.3,0,0.5-0.2,0.7-0.4l0.3-0.6l0.5,0.9c0.1,0.2,0.4,0.4,0.6,0.4c0.1,0,0.2,0,0.4-0.1c0.3-0.2,0.5-0.6,0.3-1l-0.5-0.9l0.6,0.1
				c0,0,0,0,0.1,0c0.4,0,0.7-0.3,0.7-0.7c0-0.4-0.3-0.8-0.7-0.8l-1.6-0.1l-0.7-1.3l3.4,0.3c0,0,0,0,0.1,0c0.4,0,0.7-0.3,0.7-0.7
				c0-0.4-0.3-0.8-0.7-0.8l-4.5-0.4l-0.7-1.1l2,0.2c0,0,0,0,0.1,0c0.4,0,0.7-0.3,0.7-0.7c0-0.4-0.3-0.8-0.7-0.8l-3-0.3l-0.4-0.8
				l0.6,0.1c0,0,0,0,0.1,0c0.4,0,0.7-0.3,0.7-0.7c0-0.4-0.3-0.8-0.7-0.8l-1.6-0.1l-0.2-0.3l0.8-1.5h0.3l0.9,1.3
				c0.1,0.2,0.4,0.3,0.6,0.3c0.1,0,0.3,0,0.4-0.1c0.3-0.2,0.4-0.7,0.2-1l-0.4-0.5h0.9l1.7,2.5c0.1,0.2,0.4,0.3,0.6,0.3
				c0.1,0,0.3,0,0.4-0.1c0.3-0.2,0.4-0.7,0.2-1l-1.2-1.7h1.3l2.6,3.7c0.1,0.2,0.4,0.3,0.6,0.3c0.1,0,0.3,0,0.4-0.1
				c0.3-0.2,0.4-0.7,0.2-1l-2-2.8h1.5l0.9,1.3c0.1,0.2,0.4,0.3,0.6,0.3c0.1,0,0.3,0,0.4-0.1c0.3-0.2,0.4-0.7,0.2-1l-0.4-0.5h1
				c0.4,0,0.7-0.3,0.7-0.7s-0.3-0.7-0.7-0.7h-1l0.4-0.5c0.2-0.3,0.1-0.8-0.2-1c-0.3-0.2-0.8-0.1-1,0.2l-0.9,1.3H267l2-2.8
				c0.2-0.3,0.1-0.8-0.2-1c-0.3-0.2-0.8-0.1-1,0.2l-2.6,3.7h-1.3l1.2-1.7c0.2-0.3,0.1-0.8-0.2-1c-0.3-0.2-0.8-0.1-1,0.2l-1.7,2.5
				h-0.9l0.4-0.5c0.2-0.3,0.1-0.8-0.2-1s-0.8-0.1-1,0.2l-0.9,1.3h-0.3l-0.8-1.5l0.2-0.3l1.6-0.1c0.4,0,0.7-0.4,0.7-0.8
				c0-0.4-0.4-0.7-0.8-0.7l-0.6,0.1l0.4-0.8l3-0.3c0.4,0,0.7-0.4,0.7-0.8c0-0.4-0.4-0.7-0.8-0.7l-2,0.2l0.7-1.1l4.5-0.4
				c0.4,0,0.7-0.4,0.7-0.8c0-0.4-0.4-0.7-0.8-0.7l-3.4,0.3l0.7-1.3l1.6-0.1c0.4,0,0.7-0.4,0.7-0.8c0-0.4-0.4-0.7-0.8-0.7l-0.6,0.1
				l0.5-0.9c0.2-0.3,0.1-0.8-0.3-1c-0.3-0.2-0.8-0.1-1,0.3l-0.5,0.9l-0.3-0.6c-0.2-0.4-0.6-0.5-1-0.4c-0.4,0.2-0.5,0.6-0.4,1
				l0.7,1.5l-0.7,1.3l-1.5-3.1c-0.2-0.4-0.6-0.5-1-0.4c-0.4,0.2-0.5,0.6-0.4,1l1.9,4.1l-0.7,1.1l-0.9-1.8c-0.2-0.4-0.6-0.5-1-0.3
				s-0.5,0.6-0.4,1l1.3,2.8l-0.4,0.8l-0.3-0.6c-0.2-0.4-0.6-0.5-1-0.3c-0.4,0.2-0.5,0.6-0.4,1l0.7,1.5l-0.2,0.3h-1.7l-0.2-0.3
				l0.7-1.5c0.2-0.4,0-0.8-0.4-1c-0.4-0.2-0.8,0-1,0.3l-0.3,0.6l-0.4-0.8l1.3-2.8c0.2-0.4,0-0.8-0.4-1s-0.8,0-1,0.4l-0.9,1.8
				l-0.7-1.1l1.9-4.1c0.2-0.4,0-0.8-0.4-1s-0.8,0-1,0.3l-1.5,3.1l-0.7-1.3l0.7-1.5c0.2-0.4,0-0.8-0.4-1s-0.8,0-1,0.4l-0.3,0.6
				l-0.5-0.9c-0.2-0.3-0.6-0.5-1-0.3c-0.3,0.2-0.5,0.6-0.3,1l0.5,0.9l-0.6-0.1c-0.4,0-0.8,0.3-0.8,0.7s0.3,0.8,0.7,0.8l1.6,0.1
				l0.7,1.3l-3.4-0.3c-0.4,0-0.8,0.3-0.8,0.7c0,0.4,0.3,0.8,0.7,0.8l4.5,0.4l0.7,1.1l-2-0.2c-0.4,0-0.8,0.3-0.8,0.7s0.3,0.8,0.7,0.8
				l3,0.3l0.4,0.8l-0.6-0.1c-0.4,0-0.8,0.3-0.8,0.7s0.3,0.8,0.7,0.8l1.6,0.1l0.2,0.3l-0.8,1.5h-0.3l-0.9-1.3c-0.2-0.3-0.7-0.4-1-0.2
				s-0.4,0.7-0.2,1l0.4,0.5h-0.9l-1.7-2.5c-0.2-0.3-0.7-0.4-1-0.2c-0.3,0.2-0.4,0.7-0.2,1l1.2,1.7H247l-2.6-3.7
				c-0.2-0.3-0.7-0.4-1-0.2s-0.4,0.7-0.2,1l2,2.8h-1.5l-0.9-1.3c-0.2-0.3-0.7-0.4-1-0.2c-0.3,0.2-0.4,0.7-0.2,1l0.4,0.5h-1
				C240.6,73.9,240.2,74.2,240.2,74.6z M255.2,76.1l-0.8-1.5l0.8-1.5h1.7l0.8,1.5l-0.8,1.5H255.2z"/>
			<circle class="st2" cx="228.3" cy="55.9" r="3.4"/>
			<circle class="st2" cx="353.9" cy="120.2" r="3.4"/>
			<circle class="st2" cx="349" cy="133.3" r="1.5"/>
			<circle class="st2" cx="360.8" cy="141.1" r="1.5"/>
			<circle class="st2" cx="240.2" cy="52.5" r="1.5"/>
			<circle class="st2" cx="212.6" cy="88.4" r="3.8"/>
			<circle class="st2" cx="183.7" cy="212.1" r="3.8"/>
			<circle class="st2" cx="191.8" cy="98.3" r="2.8"/>
			<circle class="st2" cx="197.2" cy="106.7" r="1.5"/>
			<circle class="st2" cx="223.3" cy="96.7" r="1.5"/>
			<circle class="st2" cx="143.8" cy="120.2" r="1.5"/>
			<circle class="st2" cx="174.7" cy="98.3" r="1.5"/>
			<circle class="st2" cx="180.7" cy="109.8" r="1.5"/>
			<circle class="st2" cx="182.2" cy="98.1" r="1.5"/>
			<circle class="st2" cx="174.7" cy="88.4" r="1.5"/>
			<circle class="st2" cx="134.5" cy="99.8" r="1.5"/>
			<circle class="st2" cx="130" cy="93.7" r="1.5"/>
			<circle class="st2" cx="177.7" cy="203.6" r="1.5"/>
			<circle class="st2" cx="166.3" cy="202.1" r="1.5"/>
			<circle class="st2" cx="173.2" cy="210.6" r="1.5"/>
			<circle class="st2" cx="205.2" cy="86.9" r="1.5"/>
			<circle class="st2" cx="198.7" cy="93.7" r="1.5"/>
		</g>
	</g>
</g>
</svg>
