<?xml version="1.0" encoding="utf-8"?>
<!-- Generator: Adobe Illustrator 19.0.0, SVG Export Plug-In . SVG Version: 6.00 Build 0)  -->
<svg version="1.1" xmlns="http://www.w3.org/2000/svg" xmlns:xlink="http://www.w3.org/1999/xlink" x="0px" y="0px"
	 viewBox="0 0 130 250" style="enable-background:new 0 0 130 250;" xml:space="preserve">
<style type="text/css">
	.st0{fill:#519E38;}
	.st1{fill:#F4F4F4;}
	.st2{fill:#D6D6D6;}
	.st3{fill:#EAEAEA;}
	.st4{fill:#FFFFFF;}
	.st5{fill:#99C5E9;}
	.st6{fill:#62BA47;}
	.st7{fill-rule:evenodd;clip-rule:evenodd;fill:#99C5E9;}
	.st8{fill-rule:evenodd;clip-rule:evenodd;fill:#62BA47;}
	.st9{fill:#62BA46;}
</style>
<g id="Layer_2">
</g>
<g id="kolba_4">
</g>
<g id="kolba_3">
</g>
<g id="doma">
</g>
<g id="car">
</g>
<g id="butylka_3">
</g>
<g id="butylka_2">
	<g>
		<path class="st0" d="M110.1,218.5c0,0,0-64.5,0-99.6c0-35.1-14.6-48.4-14.6-48.4C99.4,48.8,89,42.3,89,42.3v-7.8h2.2
			c0,0,0-8.4,0-11.2s-3.9-2.5-3.9-2.5H73.1h-1.3H57.6c0,0-3.9-0.3-3.9,2.5s0,11.2,0,11.2H56v7.8h-0.1c0,0-10.4,6.5-6.5,28.2
			c0,0-14.6,13.4-14.6,48.4c0,35.1,0,99.6,0,99.6s-1.5,21.4,14.3,21.4c4.3,0,7.8,0,10.8,0c8.1,0,11.8,0,11.8,0h0.7h0.8h0.1H85h0.1
			c3,0,6.5,0,10.8,0c0,0,0,0,0.1,0C111.6,239.9,110.1,218.5,110.1,218.5z"/>
		<path class="st1" d="M102.5,213.5c0,0,0-64.5,0-99.6c0-35.1-14.6-48.4-14.6-48.4c3.9-21.7-6.5-28.2-6.5-28.2v-8h-33v8h-0.1
			c0,0-10.4,6.5-6.5,28.2c0,0-14.6,13.4-14.6,48.4c0,35.1,0,99.6,0,99.6s-1.5,21.4,14.3,21.4c4.3,0,7.8,0,10.8,0
			c8.1,0,11.8,0,11.8,0h1.6h11.8c3,0,6.6,0,10.8,0C104,234.9,102.5,213.5,102.5,213.5z"/>
		<path class="st2" d="M79.8,15.8H65.5h-1.3H49.9c0,0-3.9-0.3-3.9,2.5s0,11.2,0,11.2h18.1h1.3h18.1c0,0,0-8.4,0-11.2
			S79.8,15.8,79.8,15.8z"/>
		<path class="st3" d="M102.4,213.5c0,0,0-64.5,0-99.6c0-35.1-14.6-48.4-14.6-48.4c3.9-21.7-6.5-28.2-6.5-28.2v-8H64.8v205.6h0.8
			h11.8c3,0,6.6,0,10.8,0C103.9,234.9,102.4,213.5,102.4,213.5z"/>
		<path class="st4" d="M39.5,102.4c-0.2,0-0.4,0-0.5,0c-2.3-0.3-3.9-2.4-3.6-4.7c1.9-14.4,8.8-23.1,9.1-23.5
			c1.4-1.8,4.1-2.1,5.9-0.6c1.8,1.4,2.1,4.1,0.6,5.8c-0.1,0.1-5.8,7.4-7.4,19.3C43.3,100.8,41.5,102.4,39.5,102.4z"/>
	</g>
	<g>
		<circle class="st5" cx="64.3" cy="142.5" r="20.2"/>
		<circle class="st6" cx="48.2" cy="160.4" r="6.4"/>
		<path class="st7" d="M54.7,117.7c0,1.4-1.2,2.6-2.6,2.6c-1.4,0-2.6-1.2-2.6-2.6c0-1.4,1.2-2.6,2.6-2.6
			C53.6,115.1,54.7,116.3,54.7,117.7L54.7,117.7z"/>
		<path class="st8" d="M54.8,126.4c0,1.8-1.5,3.3-3.3,3.3c-1.8,0-3.3-1.5-3.3-3.3c0-1.8,1.5-3.3,3.3-3.3
			C53.4,123.1,54.8,124.6,54.8,126.4L54.8,126.4z"/>
		<path class="st8" d="M46,121.3c0,1.1-0.9,2-2,2c-1.1,0-2-0.9-2-2c0-1.1,0.9-2,2-2C45.1,119.3,46,120.2,46,121.3L46,121.3z"/>
		<g>
			<circle class="st6" cx="81.6" cy="124" r="11.1"/>
			<g>
				<path class="st4" d="M78.8,122.4c-0.9,0.1-1.2,1.2-1.2,2l0,0l0,0c0,0.1,0,0.2,0,0.3c0,0.4,0,0.6-0.1,1c0,0.1-0.1,0.4-0.1,0.4
					c-0.3,0-0.6-0.5-0.7-0.7c-0.2-0.6-0.4-1.2-0.5-1.8c-0.1-0.6-0.2-1.3-0.2-2c0-0.3,0-0.5,0-0.8c0-0.1,0-0.2,0-0.3
					c0-0.1,0-0.2,0-0.2c0.1-0.5-0.6,0-0.7,0.2c-0.7,1.3-0.5,2.8-0.5,4.2c0,0.4,0,0.8-0.1,1.2c0,0.3-0.1,0.7-0.3,0.9
					c-0.1,0.1-0.4,0-0.5,0c-0.2-0.1-0.3-0.3-0.3-0.5c0-0.2-0.3-0.1-0.4,0c-0.2,0.2-0.3,0.4-0.3,0.7c0.1,0.5,0.5,0.9,1.1,0.8
					c0.8-0.2,1.2-1.2,1.4-2c0.1-0.4,0.1-0.8,0.2-1.1c0.1,0.6,0.3,1.1,0.5,1.6c0.2,0.4,0.5,0.8,1,0.7c0.3-0.1,0.6-0.4,0.8-0.9
					c0.2,0.4,0.4,0.6,0.8,0.6c0.5,0,0.9-0.5,1-0.9c0.2-0.4,0.3-0.9,0.3-1.4C80,123.7,79.8,122.3,78.8,122.4z M79.1,125.6
					c0,0.1,0,0.2-0.1,0.3c-0.2,0-0.3-0.3-0.4-0.4c-0.1-0.3-0.2-0.6-0.2-1c0-0.3,0-0.7,0-1.1c0-0.1,0-0.2,0.1-0.3
					c0.5,0.3,0.6,0.9,0.6,1.4C79.2,124.9,79.2,125.3,79.1,125.6z"/>
				<path class="st4" d="M89.9,123.8c-1-0.4-1.6,1-1.7,1.7c-0.2,0.7-0.4,1.9,0.5,2.3c0.4,0.2,0.9-0.1,1.2-0.4
					c0.3-0.3,0.5-0.8,0.6-1.2C90.6,125.4,90.8,124.1,89.9,123.8z M89.3,126.9c0,0.1-0.1,0.2-0.1,0.2c-0.2-0.1-0.2-0.4-0.2-0.6
					c-0.1-0.4,0-0.7,0-1c0.1-0.3,0.2-0.7,0.3-1c0-0.1,0.1-0.2,0.1-0.2c0.4,0.4,0.3,1.1,0.2,1.6C89.5,126.3,89.5,126.6,89.3,126.9z"
					/>
				<path class="st4" d="M87.2,123.9c0.2-0.2,0.4-0.5,0.5-0.8c0.4-0.6,0.7-1.2,0.7-1.9c0-0.6-0.9-0.7-1.3-0.5c-0.6,0.3-1,1-1.2,1.6
					c-0.2,0.9-0.4,1.7-0.4,2.6v0c-0.3,0.4-1,1.2-1.5,0.8c-0.1-0.1-0.2-0.2-0.2-0.4c0.4-0.4,0.8-0.9,1.1-1.4c0.3-0.5,0.5-1.2-0.1-1.5
					c-0.5-0.3-1.1,0-1.4,0.4c-0.3,0.4-0.5,0.9-0.5,1.4c0,0.3-0.1,0.7,0,1.1c-0.3,0.2-0.7,0.3-1,0.2c-0.4-0.1-0.5-0.5-0.6-0.8
					c-0.1-0.5-0.1-1,0-1.4c0-0.1,0.1-0.3,0.1-0.4c0,0,0-0.1,0-0.1c0.2,0.1,0.3,0.5,0.4,0.6c0.1,0.3,0.9-0.2,0.9-0.5
					c-0.1-0.3-0.2-0.7-0.6-0.8c-0.4-0.2-0.8,0.1-1,0.3c-0.6,0.6-0.7,1.5-0.6,2.3c0,0.5,0.1,1.2,0.6,1.4c0.6,0.4,1.4,0,2-0.3
					c0.2,0.4,0.4,0.6,0.9,0.6c0.6-0.1,1.1-0.4,1.6-0.8c0,0.5,0.1,1,0.4,1.1c0.5,0.3,1.2,0,1.5-0.5c0.5-0.6,0.7-1.4,0.4-2.1
					C87.8,124.1,87.5,123.9,87.2,123.9z M83.8,123.5c0-0.1,0.1-0.3,0.2-0.4c0,0,0,0,0,0c0.2,0.1,0.3,0.4,0.3,0.6
					c-0.1,0.4-0.3,0.7-0.6,1.1c0-0.1,0-0.1,0-0.2C83.7,124.3,83.7,123.9,83.8,123.5z M87,121.7c0.1-0.1,0.1-0.3,0.2-0.4c0,0,0,0,0,0
					c0.4,0.4,0,1-0.2,1.4c-0.2,0.4-0.4,0.8-0.7,1.2c0.1-0.4,0.1-0.8,0.2-1.1C86.7,122.4,86.9,122.1,87,121.7z M86.8,126.3
					c0,0-0.1,0.1-0.1,0.2c0,0-0.1,0-0.1,0c-0.2-0.1-0.3-0.7-0.3-0.9c0-0.2,0-0.4,0-0.6c0.1-0.1,0.2-0.2,0.3-0.4
					c0.2-0.1,0.4,0.1,0.4,0.4C87.2,125.4,87,125.9,86.8,126.3z"/>
			</g>
		</g>
		<g>
			<path class="st4" d="M53.1,159.1c-0.6,1-1.3,1.9-2,2.8c-0.3,0.4,0.2,0.4,0.4,0.1c0.7-0.9,1.5-1.9,2.1-2.9
				C53.9,158.6,53.3,158.9,53.1,159.1L53.1,159.1z"/>
			<path class="st4" d="M52.1,158.8c-0.4,0-0.6,0.3-0.7,0.7c-0.1,0.3,0.1,0.6,0.4,0.6C52.5,160.1,52.9,158.9,52.1,158.8
				c-0.2,0-0.4,0.4-0.2,0.4c0.2,0,0.3,0.2,0.3,0.3c0,0.1,0,0.1,0,0.2c0,0,0,0,0,0c0,0-0.1,0-0.1,0c-0.2,0-0.3-0.1-0.3-0.3
				c0-0.1,0-0.1,0-0.2c0,0,0,0,0,0c0,0,0.1,0,0.1,0C52,159.2,52.3,158.8,52.1,158.8z"/>
			<path class="st4" d="M53.1,160.9c-0.4,0-0.6,0.3-0.7,0.7c-0.1,0.3,0.1,0.6,0.4,0.6C53.5,162.2,53.9,160.9,53.1,160.9
				c-0.2,0-0.4,0.4-0.2,0.4c0.2,0,0.3,0.2,0.3,0.3c0,0.1,0,0.1,0,0.2c0,0,0,0,0,0c0,0-0.1,0-0.1,0c-0.2,0-0.3-0.1-0.3-0.3
				c0-0.1,0-0.1,0-0.2c0,0,0,0,0,0c0,0,0.1,0,0.1,0C53,161.2,53.3,160.9,53.1,160.9z"/>
		</g>
		<g>
			<g>
				<g>
					<path class="st4" d="M79.8,146c-0.2,0-0.4,0.1-0.5,0.2c-0.3-1.1,0-2.2,0.3-3.2c0,0,0,0,0,0c0.1-0.5-0.3-0.9-0.8-1
						c-0.5-0.1-1,0.2-1.3,0.5c-0.4,0.4-0.7,1.1-0.8,1.7c-0.1,0.5-0.4,0.8-0.5,0.8c-0.3-0.1-0.2-0.5-0.2-0.7c0-0.4,0-0.8-0.2-1.1
						c-0.1-0.3-0.4-0.3-0.7-0.3c0.3-0.9,0.5-1,0.6-1.1c0.2,0.1,0.3,0.2,0.3,0.2c0.3,0.3,1.2-0.2,0.9-0.5c-0.3-0.4-0.7-0.5-1.1-0.4
						c-0.3,0-0.5,0.2-0.7,0.4c0,0-0.1,0.1-0.1,0.1c0-0.5,0-1,0-1.5c0-0.4-1,0-1,0.4c0,0.2,0.1,0.5,0.1,0.7c0,1.1-0.3,2.1-1.1,2.9
						c0-0.1,0-0.2,0-0.3c0-0.7,0.2-1.3,0.2-2c0-0.4,0.1-1-0.2-1.5c-0.3-0.4-1,0-1.2,0.2c0,0-0.1,0.1-0.1,0.1c0-0.3-0.1-0.5-0.3-0.7
						c-0.2-0.2-0.6-0.1-0.8,0c-0.2,0.1-0.3,0.2-0.4,0.3c0-0.1,0-0.2,0-0.3c0-0.2,0-0.3-0.1-0.3c-0.2,0-0.3,0-0.4,0.1
						c-0.2,0.1-0.2,0.2-0.3,0.3c-0.1,0.1-0.2,0.1-0.4,0.1c-0.7-0.1-0.7-0.7-1.3-0.8c-1-0.1-1.4,1.2-1.5,2c0,0,0,0,0,0
						c-0.1,0.4-0.3,1-0.7,1.3c0.2-0.5,0.2-1,0.2-1.5c0-0.6-0.1-1.6-0.8-1.9c-0.4-0.2-0.8,0-1.1,0.2c0-0.3-0.1-0.8-0.1-0.9
						c0-0.1-0.2-0.1-0.3-0.1c-0.3,0.1-0.5,0.3-0.6,0.5c-0.1,0.2-0.1,0.6-0.6,0.5c-0.3,0-0.5-0.3-1-0.3c-1.1,0.3-1.4,1.6-1.3,2.6
						c0,0.7,0.1,2.2,1.1,2.2c0.5,0,0.9-0.6,1.1-1c0.2-0.5,0.3-1,0.3-1.6c0-0.3,0-0.8-0.1-1.2c0.2-0.1,0.4-0.2,0.6-0.4
						c0.1,0.4,0.1,0.7,0.1,1.1c0,0,0,0,0,0c0,0,0,0,0,0.1c0.1,0.8,0.1,1.5,0.1,2.3c0,1,0,2.1,0,3.1c0,0.2,0.3,0.2,0.4,0.1
						c0.2-0.1,0.4-0.3,0.4-0.6c0.1-0.7,0.1-1.5,0.1-2.2c0.9,0,1.7-0.6,2.1-1.1c0.1,0.6,0.3,1.2,0.9,1.3c0.5,0.1,1-0.4,1.2-0.8
						c0.3-0.5,0.4-1,0.4-1.5c0-0.2,0-0.5,0-0.8c0.2,0,0.4-0.1,0.6-0.2c-0.1,1.1-0.2,2.2-0.2,3.3c0,0.5,0.9,0,0.9-0.3
						c0.1-1,0.2-2.1,0.7-3c0.2,0.2,0.1,1.2,0.1,1.8c0,0.3-0.1,0.6-0.1,1c0,0.3-0.1,0.5-0.1,0.8c0,0.5,0.9,0,0.9-0.3
						c0-0.3,0.1-0.5,0.1-0.8c0.1-0.5,0.3-2,0.7-2.2c0.2,0.1,0.1,1,0,1.3c0,0.6-0.2,1.3-0.1,1.9c0.1,1,1.2,0.3,1.5-0.1
						c0.1-0.1,0.2-0.2,0.3-0.3c-0.1,0.3-0.1,0.6-0.2,1c-0.1,0.5,0.8,0.1,0.9-0.2c0.1-0.4,0.2-0.8,0.3-1.2c0.5,0.3,0,1.5,0.4,1.9
						c0.3,0.3,0.8,0.2,1.1,0.1c0.1,0,0.2-0.1,0.3-0.2c0,0.3,0.1,0.5,0.3,0.7c0.4,0.3,0.9,0.2,1.2,0c0,0,0.1,0,0.1-0.1
						c0,0.1,0,0.2,0,0.2c0.2,1,1.4,0.5,1.7,0C80.1,146.2,80,146,79.8,146z M61.3,143.3c0,0.1,0,0.2-0.1,0.3c-0.2,0-0.3-0.3-0.4-0.5
						c-0.2-0.3-0.2-0.7-0.2-1.1c0-0.4,0-0.8,0.1-1.2c0-0.1,0-0.2,0.1-0.3c0,0,0,0,0.1,0c0,0,0,0,0,0c0,0,0.1,0.1,0.1,0.1
						c0.3,0.3,0.4,1.2,0.4,1.4C61.4,142.6,61.4,143,61.3,143.3z M63.8,142.9c0-0.6,0-1.3-0.1-1.9c0-0.4,0.1-0.5,0.1-0.5
						c0.2,0,0.3,0.1,0.4,0.2c0.3,0.4,0.4,0.9,0.4,1.3c0,0.5-0.1,1.4-0.2,1.5C64,143.5,63.8,143.3,63.8,142.9z M67.4,143.3
						c0,0.1-0.1,0.2-0.1,0.3c-0.2-0.1-0.3-0.4-0.4-0.5c-0.1-0.4-0.1-0.7-0.1-1.1c0-0.4,0-0.8,0.2-1.1c0-0.1,0.1-0.2,0.1-0.3
						c0.5,0.2,0.5,1.3,0.5,1.6C67.5,142.5,67.5,142.9,67.4,143.3z M77.8,145.7c0,0-0.1,0-0.1-0.1c-0.2-0.1-0.2-0.4-0.2-0.6
						c-0.1-0.6,0.1-1.3,0.4-1.8c0.1-0.2,0.3-0.4,0.4-0.5c0,0,0.1,0,0.2,0c0.2,0.1,0.3,0.3,0.2,0.5c-0.2,0.8-0.4,1.6-0.7,2.4
						C77.9,145.6,77.9,145.6,77.8,145.7z"/>
					<path class="st4" d="M58.8,141.1c-0.2-0.1-0.4-0.1-0.6,0c0.1-0.4,0.3-0.8,0.4-1.3c0.1-0.6,0.4-1.6,0-2.1
						c-0.4-0.6-1.2,0-1.6,0.4c-0.5,0.7-0.5,1.6-0.6,2.3c0,0.9,0.1,1.7,0.3,2.6c-0.1,0.3-0.2,1-0.5,1.4c-0.2,0-0.3-0.4-0.3-0.6
						c-0.3-1-0.4-2-0.2-3c0-0.2-0.1-0.3-0.3-0.2c-0.2,0.1-0.5,0.4-0.5,0.6c0,0.2-0.1,0.8-0.4,0.9c-0.2,0.1-0.5,0.1-0.7,0
						c-0.3-0.1-0.8,0.1-1.1,0.4c-0.1-0.4-0.1-0.8-0.3-1.2c-0.1-0.2-0.4,0.1-0.5,0.2c-0.1,0.1-0.2,0.3-0.3,0.5c0,0.5,0.1,1.6-0.2,2.9
						c-0.1,0.2-0.3,0.7-0.6,0.8c-0.4,0.1-0.7-0.2-0.9-0.5c-0.6-0.9-0.9-2.1-0.8-3.2c0-0.4,0.1-1,0.3-1.4c0,0,0,0,0-0.1c0,0,0,0,0,0
						c0,0,0,0,0,0s0.4-0.1,0.6-0.1c0.4,0,0.5,0.5,0.6,0.8c0.1,0.5,0.9-0.4,0.8-0.7c-0.1-0.6-0.4-1.2-1.2-1.1c-0.5,0.1-1,0.4-1.3,0.9
						c-0.6,1-0.7,2.2-0.6,3.4c0.1,1,0.5,2.2,1.2,2.8c0.9,0.7,2-0.5,2.3-1.3c0.1-0.2,0.1-0.4,0.2-0.6c0.1,0.7,0.5,1.4,1.3,1.2
						c0.9-0.2,1.3-1.5,1.3-2.2c0-0.2-0.1-0.5-0.2-0.8c0.1-0.1,0.2-0.2,0.3-0.3c0,0.2,0,0.4,0.1,0.5c0.1,0.6,0.2,1.3,0.4,1.8
						c0.2,0.4,0.6,0.4,1,0.1c0.3-0.3,0.5-0.7,0.7-1c0.2,0.5,0.5,0.9,1,0.9c0.7-0.1,1.2-0.9,1.3-1.5
						C59.5,142.7,59.5,141.4,58.8,141.1z M53.9,144.7c0,0.1,0,0.1,0,0.2c0,0,0,0-0.1,0c-0.5,0.1-0.8-0.5-0.9-0.8c0,0,0-0.1,0-0.1
						c0,0,0,0,0,0c0-0.1,0-0.1,0-0.2c0-0.2,0-0.3,0-0.5c0,0,0-0.1,0-0.2c0,0,0,0,0.1,0c0.5-0.1,0.8,0.5,0.9,0.9
						C54,144.2,54,144.4,53.9,144.7z M57.3,140.1c0-0.6,0.2-1.8,0.2-1.8s0,0,0,0h0c0.2,0,0.2,0.3,0.3,0.4c0.1,0.6-0.1,1.3-0.2,1.9
						c-0.1,0.2-0.1,0.5-0.2,0.7C57.4,141,57.3,140.6,57.3,140.1z M58.5,143.9C58.5,143.9,58.5,143.9,58.5,143.9
						C58.5,143.9,58.5,143.9,58.5,143.9c-0.3,0-0.4-0.2-0.5-0.4c-0.2-0.3-0.3-0.7-0.4-1c0.1-0.2,0.1-0.3,0.2-0.5c0,0,0,0,0-0.1
						c0,0,0,0,0,0c0.1,0,0.2,0,0.3,0.1c0.3,0.2,0.3,0.6,0.3,0.9C58.6,143.3,58.6,143.6,58.5,143.9z"/>
				</g>
			</g>
		</g>
		<g>
			<path class="st4" d="M43.9,158.7c-0.7,0.1-1,0.9-1,1.5c-0.1,0.5-0.1,1.8,0.7,1.8c0.8,0.1,1.1-0.9,1.1-1.5
				C44.7,160.1,44.6,158.8,43.9,158.7c-0.2,0-0.6,0.6-0.4,0.6c0.4,0,0.5,0.6,0.5,0.9c0,0.3,0,0.5,0,0.8c0,0.1,0,0.2-0.1,0.3
				c0,0.1-0.1,0.3,0,0.2c-0.4,0.2-0.5-0.7-0.5-0.9c0-0.3,0-0.5,0-0.8c0-0.1,0-0.3,0.1-0.4c0-0.1,0.1-0.1,0-0.1
				C43.8,159.3,44.2,158.7,43.9,158.7z"/>
			<path class="st4" d="M47.3,158.7c-0.7,0.1-1,0.9-1,1.5c-0.1,0.5-0.1,1.8,0.7,1.8c0.8,0.1,1.1-0.9,1.1-1.5
				C48.1,160.1,48,158.8,47.3,158.7c-0.2,0-0.6,0.6-0.4,0.6c0.4,0,0.5,0.6,0.5,0.9c0,0.3,0,0.5,0,0.8c0,0.1,0,0.2-0.1,0.3
				c0,0.1-0.1,0.3,0,0.2c-0.4,0.2-0.5-0.7-0.5-0.9c0-0.3,0-0.5,0-0.8c0-0.1,0-0.3,0.1-0.4c0-0.1,0.1-0.1,0-0.1
				C47.2,159.3,47.6,158.7,47.3,158.7z"/>
			<path class="st4" d="M48.3,161.5c0.4,1.3,2.5,0.4,2.1-0.8c-0.2-0.6-0.9-0.5-1.3-0.7c-0.3-0.1-0.3-0.3-0.3-0.5
				c0.1-0.3,0.1-0.3-0.1-0.1c0.1,0,0.2,0,0.2-0.1c0.4-0.1,0.9-0.1,1.2,0.1c0.2,0.1,0.6-0.4,0.4-0.5c-0.5-0.2-1.1-0.2-1.6-0.1
				c-0.5,0.1-0.6,0.6-0.6,1c0,0.6,0.5,0.7,1,0.7c0.3,0.1,0.6,0.1,0.7,0.5c0.1,0.6-0.6,0.6-0.9,0.4c-0.1-0.1-0.2-0.3-0.3-0.4
				C48.7,160.9,48.3,161.3,48.3,161.5L48.3,161.5z"/>
			<path class="st4" d="M45.2,162.7c0.3-0.2,0.4-0.6,0.5-0.9c0-0.1,0-0.2-0.1-0.3c-0.1-0.1-0.3,0-0.5,0c-0.1,0.1-0.3,0.2-0.3,0.4
				c0,0.2,0.2,0.1,0.3,0.1c0,0,0,0,0,0c0,0,0,0,0,0c0,0.1,0,0.1,0,0.1c0,0.1,0,0.1-0.1,0.2c0,0,0,0,0,0.1c0,0,0,0,0,0c0,0,0,0,0,0
				c0.1-0.1,0,0,0,0c-0.1,0.1-0.2,0.3-0.1,0.4C44.9,163,45.1,162.8,45.2,162.7L45.2,162.7z"/>
		</g>
		<g>
			<path class="st9" d="M39.8,133.9c-0.1,0-0.2-0.2-0.3-0.2c-0.4-0.2-0.7,0.1-1.2,0.1c-1,0-1.3,0-2.5-0.3c0-1,0.6-1.6,0.8-2.4
				c0.2-0.7-0.1-1.5-0.1-2.3c0-0.5,0-0.9,0-1.4c-0.3,0.3-0.2,1.2-0.2,1.7c-0.1-0.6-0.1-1.4-0.3-1.9c-0.1,0.6,0,1.4,0,1.9
				c-0.2-0.5-0.2-1.2-0.4-1.7c-0.3,0.5,0.2,1.3,0.1,1.8c-0.2-0.5-0.3-1.1-0.6-1.5c-0.1,0.6,0.2,1.2,0.2,1.6
				c-0.2-0.4-0.3-0.8-0.6-1.1c0,0.4,0.3,0.9,0.4,1.3c-0.3-0.1-0.4-0.5-0.6-0.6c0,0.3,0.3,0.5,0.4,0.8c-0.2-0.1-0.3-0.3-0.5-0.4
				c0,0.3,0.3,0.4,0.3,0.6c-0.1-0.1-0.3-0.2-0.4-0.3c0,0.2,0.3,0.4,0.3,0.5c0,0-0.2-0.1-0.2,0c0,0,0.2,0.1,0.1,0.2
				c-0.1,0-0.1,0-0.2,0c0,0.2,0.2,0.1,0.1,0.3c-0.1,0-0.1-0.1-0.1,0c0,0.1,0.1,0.1,0.1,0.2c-0.8,0.9-0.4,1.8-0.5,2.8
				c0.1-0.1-0.7-0.3-1.2-0.5c-0.3-0.1-0.4-0.5-0.6-0.6c0-0.1,0.1,0,0.1-0.1c-0.1,0-0.2-0.1-0.2-0.2c0.1,0,0.3,0.1,0.3,0
				c-0.1-0.1-0.5-0.2-0.5-0.3c0.2,0,0.4,0.1,0.6,0.1c-0.2-0.1-0.6-0.3-0.6-0.5c0.2,0.1,0.5,0.3,0.7,0.2c-0.3-0.2-0.8-0.5-0.9-0.7
				c0.3,0.1,0.6,0.4,0.8,0.4c-0.4-0.1-0.7-0.6-1.2-0.6c0.2,0.4,0.8,0.6,0.9,0.9c-0.3-0.2-0.6-0.3-1-0.5c0.1,0.4,0.6,0.5,0.9,0.8
				c-0.3,0-0.5-0.2-0.8-0.2c0.1,0.3,0.6,0.2,0.7,0.5c-0.1-0.1-0.3,0-0.5,0c0,0.2,0.4,0.2,0.5,0.3c-0.2,0-0.3,0-0.4,0.1
				c0.1,0.1,0.3,0.1,0.4,0.2c-0.1,0-0.2,0-0.2,0.1c0,0.1,0.3,0,0.3,0.1c-0.1,0-0.1,0.1-0.1,0.1c0.1,0,0.2,0,0.2,0
				c-0.1,0-0.1,0.1-0.1,0.1c0.4,0.2,0.7,1,1.3,1.2c-0.3,0.2,0.3,0.5-3.6,1.8c0.1,0,1.7-0.4,2.2-0.6c0.5-0.2,1-0.3,1.4-0.4
				c0.1,0,0.2-0.1,0.3-0.1c0.8-0.1,1.5,0.1,2.3-0.4c-0.6,0.1-1.6,0.2-2-0.1c0.5-0.8,0.2-2.9,0.6-3.4c0.4-0.4,1.1-1.8,1.9-0.6
				c0.1,0.2,0.2,0.4-0.1,0.9c-0.4,0.6-0.6,0.9-0.5,2.1c0,0.3,0,0.5-0.4,0.5c1.7,0.4,2.2,0.2,3.2,0c0.3,0,0.8-0.3,0.8,0
				c0,0.1-0.3,0.1-0.6,0.1c-0.5,0,0.2,0.2,0.4,0.2c0.1,0,1-0.1,1.5-0.2C40.3,134,40.1,134,39.8,133.9z"/>
			<path class="st9" d="M34.8,125.3c-3.9,0-7,3.1-7,7c0,3.9,3.1,7,7,7c3.9,0,7-3.1,7-7C41.8,128.4,38.7,125.3,34.8,125.3
				 M34.8,125.5c3.7,0,6.7,3,6.7,6.7s-3,6.7-6.7,6.7c-3.7,0-6.7-3-6.7-6.7S31.1,125.5,34.8,125.5"/>
		</g>
	</g>
</g>
<g id="butylka_1">
</g>
<g id="vanna_2">
</g>
<g id="sneg">
</g>
<g id="chernichny_sok">
</g>
<g id="brusnichny_sok">
</g>
<g id="vanna_1">
</g>
<g id="zakvaska">
</g>
<g id="shariki_2">
</g>
<g id="shariki_1">
</g>
<g id="voronka">
</g>
<g id="gradusnik">
</g>
<g id="kolba_2">
</g>
<g id="kolba_1">
</g>
<g id="probirki">
</g>
<g id="lupa">
</g>
<g id="bidon">
</g>
<g id="blank">
</g>
</svg>
