<?xml version="1.0" encoding="utf-8"?>
<!-- Generator: Adobe Illustrator 19.0.0, SVG Export Plug-In . SVG Version: 6.00 Build 0)  -->
<svg version="1.1" xmlns="http://www.w3.org/2000/svg" xmlns:xlink="http://www.w3.org/1999/xlink" x="0px" y="0px"
	 viewBox="0 0 214.8 252" style="enable-background:new 0 0 214.8 252;" xml:space="preserve">
<style type="text/css">
	.st0{fill:#519E38;}
	.st1{fill:#F2F2F2;}
	.st2{fill:#FFFFFF;}
</style>
<g id="Layer_2">
</g>
<g id="kolba_4">
</g>
<g id="kolba_3">
</g>
<g id="doma">
</g>
<g id="car">
</g>
<g id="butylka_3">
</g>
<g id="butylka_1">
</g>
<g id="vanna_2">
</g>
<g id="sneg">
</g>
<g id="vigimka">
	<path class="st0" d="M151.9,141.9L151.9,141.9L151.9,141.9c-0.4-1-0.9-2-1.5-3l-25.6-51.9L99.1,139c-0.5,0.9-1,1.8-1.4,2.7l0,0h0
		c-1.5,3.5-2.4,7.4-2.4,11.5c0,16.2,13.1,29.4,29.4,29.4s29.4-13.1,29.4-29.4C154.2,149.3,153.3,145.4,151.9,141.9z"/>
	<path class="st1" d="M138.1,135L138.1,135L138.1,135c-0.4-1-0.9-2-1.5-3l-25.6-51.9l-25.6,51.9c-0.5,0.9-1,1.8-1.4,2.7l0,0h0
		c-1.5,3.5-2.4,7.4-2.4,11.5c0,16.2,13.1,29.4,29.4,29.4s29.4-13.1,29.4-29.4C140.4,142.3,139.6,138.5,138.1,135z"/>
	<ellipse class="st2" cx="98.4" cy="139.4" rx="8" ry="8.2"/>
</g>
<g id="chernichny_sok">
</g>
<g id="brusnichny_sok">
</g>
<g id="vanna_1">
</g>
<g id="zakvaska">
</g>
<g id="shariki_2">
</g>
<g id="shariki_1">
</g>
<g id="voronka">
</g>
<g id="gradusnik">
</g>
<g id="kolba_2">
</g>
<g id="kolba_1">
</g>
<g id="probirki">
</g>
<g id="lupa">
</g>
<g id="bidon">
</g>
<g id="blank">
</g>
</svg>
