<?xml version="1.0" encoding="utf-8"?>
<!-- Generator: Adobe Illustrator 19.0.0, SVG Export Plug-In . SVG Version: 6.00 Build 0)  -->
<svg version="1.1" xmlns="http://www.w3.org/2000/svg" xmlns:xlink="http://www.w3.org/1999/xlink" x="0px" y="0px"
	 viewBox="115 -1 360.9 252" style="enable-background:new 115 -1 360.9 252;" xml:space="preserve">
<style type="text/css">
	.st0{fill:#519E38;}
	.st1{fill:#FFFFFF;}
	.st2{fill:#EFEFEF;}
	.st3{fill:url(#SVGID_1_);}
	.st4{fill:url(#SVGID_2_);}
	.st5{fill:url(#SVGID_3_);}
	.st6{fill:url(#SVGID_4_);}
	.st7{fill:url(#SVGID_5_);}
</style>
<g id="Layer_1">
	<g id="Layer_2">
	</g>
	<g id="kolba_4">
	</g>
	<g id="kolba_3">
	</g>
	<g>
		<path class="st0" d="M228.6,118.4h-53.9c-6.6,0-12-5.4-12-12V80.8c0-6.6,5.4-12,12-12h53.9c6.6,0,12,5.4,12,12v25.6
			C240.6,113,235.2,118.4,228.6,118.4z"/>
		<path class="st1" d="M223.6,113.8h-53.9c-6.6,0-12-5.4-12-12V76.2c0-6.6,5.4-12,12-12h53.9c6.6,0,12,5.4,12,12v25.6
			C235.6,108.4,230.2,113.8,223.6,113.8z"/>
		<circle class="st1" cx="178.6" cy="64.2" r="5.2"/>
		<circle class="st2" cx="171.2" cy="78.4" r="3.3"/>
		<circle class="st2" cx="198.9" cy="80.1" r="3.3"/>
		<circle class="st2" cx="192.4" cy="81.6" r="1.6"/>
		<circle class="st2" cx="204.4" cy="91.6" r="5.8"/>
		<circle class="st1" cx="196.2" cy="112.6" r="3.8"/>
		<circle class="st1" cx="218.6" cy="64.2" r="3.8"/>
		<circle class="st1" cx="235.6" cy="89" r="3.8"/>
		<circle class="st1" cx="205.5" cy="64.2" r="2.3"/>
		<circle class="st1" cx="235.6" cy="83.9" r="2.3"/>
		<circle class="st1" cx="211.3" cy="113.8" r="2.3"/>
		<circle class="st1" cx="157.7" cy="83.9" r="3.8"/>
		<circle class="st1" cx="157.7" cy="91.8" r="5.6"/>
		<circle class="st1" cx="205.5" cy="110.6" r="5.6"/>
	</g>
	<g>
		<path class="st0" d="M329.3,118.4h-53.9c-6.6,0-12-5.4-12-12V80.8c0-6.6,5.4-12,12-12h53.9c6.6,0,12,5.4,12,12v25.6
			C341.3,113,335.9,118.4,329.3,118.4z"/>
		<path class="st1" d="M324.3,113.8h-53.9c-6.6,0-12-5.4-12-12V76.2c0-6.6,5.4-12,12-12h53.9c6.6,0,12,5.4,12,12v25.6
			C336.3,108.4,330.9,113.8,324.3,113.8z"/>
		<circle class="st1" cx="279.3" cy="64.2" r="5.2"/>
		<circle class="st2" cx="272" cy="78.4" r="3.3"/>
		<circle class="st2" cx="299.7" cy="80.1" r="3.3"/>
		<circle class="st2" cx="293.1" cy="81.6" r="1.6"/>
		<circle class="st2" cx="305.1" cy="91.6" r="5.8"/>
		<circle class="st1" cx="296.9" cy="112.6" r="3.8"/>
		<circle class="st1" cx="319.3" cy="64.2" r="3.8"/>
		<circle class="st1" cx="336.3" cy="89" r="3.8"/>
		<circle class="st1" cx="306.2" cy="64.2" r="2.3"/>
		<circle class="st1" cx="336.3" cy="83.9" r="2.3"/>
		<circle class="st1" cx="312" cy="113.8" r="2.3"/>
		<circle class="st1" cx="258.4" cy="83.9" r="3.8"/>
		<circle class="st1" cx="258.4" cy="91.8" r="5.6"/>
		<circle class="st1" cx="306.2" cy="110.6" r="5.6"/>
	</g>
	<g>
		<path class="st0" d="M226.2,195.5h-53.9c-6.6,0-12-5.4-12-12v-25.6c0-6.6,5.4-12,12-12h53.9c6.6,0,12,5.4,12,12v25.6
			C238.2,190.1,232.8,195.5,226.2,195.5z"/>
		<path class="st1" d="M221.2,191h-53.9c-6.6,0-12-5.4-12-12v-25.6c0-6.6,5.4-12,12-12h53.9c6.6,0,12,5.4,12,12V179
			C233.2,185.6,227.8,191,221.2,191z"/>
		<circle class="st1" cx="176.2" cy="141.4" r="5.2"/>
		<circle class="st2" cx="168.8" cy="155.5" r="3.3"/>
		<circle class="st2" cx="196.6" cy="157.2" r="3.3"/>
		<circle class="st2" cx="190" cy="158.8" r="1.6"/>
		<circle class="st2" cx="202" cy="168.7" r="5.8"/>
		<circle class="st1" cx="193.8" cy="189.8" r="3.8"/>
		<circle class="st1" cx="216.2" cy="141.4" r="3.8"/>
		<circle class="st1" cx="233.2" cy="166.2" r="3.8"/>
		<circle class="st1" cx="203.1" cy="141.4" r="2.3"/>
		<circle class="st1" cx="233.2" cy="161" r="2.3"/>
		<circle class="st1" cx="208.9" cy="191" r="2.3"/>
		<circle class="st1" cx="155.3" cy="161" r="3.8"/>
		<circle class="st1" cx="155.3" cy="168.9" r="5.6"/>
		<circle class="st1" cx="203.1" cy="187.8" r="5.6"/>
	</g>
	<g>
		<path class="st0" d="M329.7,195.5h-53.9c-6.6,0-12-5.4-12-12v-25.6c0-6.6,5.4-12,12-12h53.9c6.6,0,12,5.4,12,12v25.6
			C341.7,190.1,336.3,195.5,329.7,195.5z"/>
		<path class="st1" d="M324.7,191h-53.9c-6.6,0-12-5.4-12-12v-25.6c0-6.6,5.4-12,12-12h53.9c6.6,0,12,5.4,12,12V179
			C336.7,185.6,331.3,191,324.7,191z"/>
		<circle class="st1" cx="279.7" cy="141.4" r="5.2"/>
		<circle class="st2" cx="272.3" cy="155.5" r="3.3"/>
		<circle class="st2" cx="300" cy="157.2" r="3.3"/>
		<circle class="st2" cx="293.4" cy="158.8" r="1.6"/>
		<circle class="st2" cx="305.4" cy="168.7" r="5.8"/>
		<circle class="st1" cx="297.2" cy="189.8" r="3.8"/>
		<circle class="st1" cx="319.6" cy="141.4" r="3.8"/>
		<circle class="st1" cx="336.7" cy="166.2" r="3.8"/>
		<circle class="st1" cx="306.5" cy="141.4" r="2.3"/>
		<circle class="st1" cx="336.7" cy="161" r="2.3"/>
		<circle class="st1" cx="312.3" cy="191" r="2.3"/>
		<circle class="st1" cx="258.7" cy="161" r="3.8"/>
		<circle class="st1" cx="258.7" cy="168.9" r="5.6"/>
		<circle class="st1" cx="306.5" cy="187.8" r="5.6"/>
	</g>
	<g>
		<path class="st0" d="M426.3,194.3h-53.9c-6.6,0-12-5.4-12-12v-25.6c0-6.6,5.4-12,12-12h53.9c6.6,0,12,5.4,12,12v25.6
			C438.3,188.9,432.9,194.3,426.3,194.3z"/>
		<path class="st1" d="M421.3,189.7h-53.9c-6.6,0-12-5.4-12-12v-25.6c0-6.6,5.4-12,12-12h53.9c6.6,0,12,5.4,12,12v25.6
			C433.3,184.3,427.9,189.7,421.3,189.7z"/>
		<circle class="st1" cx="376.3" cy="140.1" r="5.2"/>
		<circle class="st2" cx="368.9" cy="154.3" r="3.3"/>
		<circle class="st2" cx="396.6" cy="156" r="3.3"/>
		<circle class="st2" cx="390" cy="157.6" r="1.6"/>
		<circle class="st2" cx="402.1" cy="167.5" r="5.8"/>
		<circle class="st1" cx="393.8" cy="188.5" r="3.8"/>
		<circle class="st1" cx="416.2" cy="140.1" r="3.8"/>
		<circle class="st1" cx="433.3" cy="164.9" r="3.8"/>
		<circle class="st1" cx="403.1" cy="140.1" r="2.3"/>
		<circle class="st1" cx="433.3" cy="159.8" r="2.3"/>
		<circle class="st1" cx="408.9" cy="189.7" r="2.3"/>
		<circle class="st1" cx="355.4" cy="159.8" r="3.8"/>
		<circle class="st1" cx="355.4" cy="167.7" r="5.6"/>
		<circle class="st1" cx="403.1" cy="186.5" r="5.6"/>
	</g>
	<g>
		<path class="st0" d="M428.7,118.7h-53.9c-6.6,0-12-5.4-12-12V81.1c0-6.6,5.4-12,12-12h53.9c6.6,0,12,5.4,12,12v25.6
			C440.7,113.3,435.3,118.7,428.7,118.7z"/>
		<path class="st1" d="M423.7,114.1h-53.9c-6.6,0-12-5.4-12-12V76.5c0-6.6,5.4-12,12-12h53.9c6.6,0,12,5.4,12,12v25.6
			C435.7,108.7,430.3,114.1,423.7,114.1z"/>
		<circle class="st1" cx="378.7" cy="64.5" r="5.2"/>
		<circle class="st2" cx="371.3" cy="78.7" r="3.3"/>
		<circle class="st2" cx="399" cy="80.4" r="3.3"/>
		<circle class="st2" cx="392.4" cy="82" r="1.6"/>
		<circle class="st2" cx="404.5" cy="91.9" r="5.8"/>
		<circle class="st1" cx="396.2" cy="112.9" r="3.8"/>
		<circle class="st1" cx="418.6" cy="64.5" r="3.8"/>
		<circle class="st1" cx="435.7" cy="89.3" r="3.8"/>
		<circle class="st1" cx="405.5" cy="64.5" r="2.3"/>
		<circle class="st1" cx="435.7" cy="84.2" r="2.3"/>
		<circle class="st1" cx="411.3" cy="114.1" r="2.3"/>
		<circle class="st1" cx="357.8" cy="84.2" r="3.8"/>
		<circle class="st1" cx="357.8" cy="92.1" r="5.6"/>
		<circle class="st1" cx="405.5" cy="110.9" r="5.6"/>
	</g>
	<g id="doma">
	</g>
	<g id="car">
	</g>
	<g id="butylka_3">
	</g>
	<g id="butylka_1">
	</g>
	<g id="vanna_2">
	</g>
	<g id="sneg">
	</g>
	<g id="chernichny_sok">
	</g>
	<g id="brusnichny_sok">
	</g>
	<g id="vanna_1">
	</g>
	<g id="zakvaska">
	</g>
	<g id="shariki_2">
	</g>
	<g id="shariki_1">
	</g>
	<g id="voronka">
	</g>
	<g id="gradusnik">
	</g>
	<g id="kolba_2">
	</g>
	<g id="kolba_1">
	</g>
	<g id="probirki">
	</g>
	<g id="lupa">
	</g>
	<g id="bidon">
	</g>
	<g id="blank">
	</g>
</g>
<g id="snow">
	<g>
		
			<linearGradient id="SVGID_1_" gradientUnits="userSpaceOnUse" x1="386.2257" y1="211.4434" x2="404.0013" y2="161.079" gradientTransform="matrix(1 0 0 -1 0 250)">
			<stop  offset="0" style="stop-color:#404B71"/>
			<stop  offset="0.6044" style="stop-color:#3C476E"/>
			<stop  offset="1" style="stop-color:#354169"/>
		</linearGradient>
		<path class="st3" d="M390.6,83.9l-1.9-7.1l1.7-3l0.2,0.9c0.3,0.9,1.2,1.5,2.2,1.2c0.2,0,0.3-0.1,0.4-0.2c0.7-0.4,1-1.2,0.8-2
			l-1.1-4.3l2.1-3.7l2.1,3.7l-1.2,4.3c-0.3,0.9,0.3,1.9,1.2,2.2c0.5,0.1,0.9,0,1.3-0.2s0.7-0.6,0.8-1.1l0.2-0.9l1.7,3l-1.9,7.1
			c-0.3,0.9,0.3,1.9,1.2,2.2c0.5,0.1,0.9,0,1.3-0.2s0.7-0.6,0.8-1.1l1-3.7l2.8,4.8c0.5,0.8,1.6,1.1,2.4,0.6s1.1-1.6,0.6-2.4
			l-2.8-4.8l3.7,1c0.5,0.1,0.9,0,1.3-0.2s0.7-0.6,0.8-1.1c0.3-0.9-0.3-1.9-1.2-2.2l-7.1-1.9l-1.7-3l0.9,0.2c0.5,0.1,0.9,0.1,1.3-0.2
			c0.4-0.2,0.7-0.6,0.8-1.1c0.3-0.9-0.3-1.9-1.2-2.2l-4.3-1.1l-2.1-3.7h4.2l3.1,3.1c0.6,0.6,1.5,0.7,2.1,0.3
			c0.1-0.1,0.3-0.2,0.4-0.3c0.7-0.7,0.7-1.8,0-2.5l-0.6-0.6h3.5l5.2,5.2c0.6,0.6,1.5,0.7,2.1,0.3c0.1-0.1,0.3-0.2,0.4-0.3
			c0.7-0.7,0.7-1.8,0-2.5l-2.7-2.7h5.6c0.3,0,0.6-0.1,0.9-0.2c0.5-0.3,0.9-0.9,0.9-1.5c0-1-0.8-1.8-1.8-1.8h-5.6l2.7-2.7
			c0.7-0.7,0.7-1.8,0-2.5s-1.8-0.7-2.5,0l-5.2,5.2h-3.5l0.6-0.6c0.7-0.7,0.7-1.8,0-2.5s-1.8-0.7-2.5,0l-3.1,3.1h-4.2l2.1-3.7
			l4.3-1.1c0.2,0,0.3-0.1,0.4-0.2c0.7-0.4,1-1.2,0.8-2c-0.3-0.9-1.2-1.5-2.2-1.2l-0.9,0.2l1.7-3l7.1-1.9c0.2,0,0.3-0.1,0.4-0.2
			c0.7-0.4,1-1.2,0.8-2c-0.3-0.9-1.2-1.5-2.2-1.2l-3.7,1l2.8-4.8c0.5-0.8,0.2-1.9-0.6-2.4c-0.8-0.5-1.9-0.2-2.4,0.6l-2.8,4.8l-1-3.7
			c-0.3-0.9-1.2-1.5-2.2-1.2c-0.9,0.3-1.5,1.2-1.2,2.2l1.9,7.1l-1.7,3l-0.2-0.9c-0.3-0.9-1.2-1.5-2.2-1.2c-0.9,0.3-1.5,1.2-1.2,2.2
			l1.1,4.3l-2.1,3.7l-2.1-3.7l1.1-4.3c0.3-0.9-0.3-1.9-1.2-2.2c-0.9-0.3-1.9,0.3-2.2,1.2l-0.2,0.9l-1.7-3l1.9-7.1
			c0.3-0.9-0.3-1.9-1.2-2.2c-0.9-0.3-1.9,0.3-2.2,1.2l-1,3.7l-2.8-4.8c-0.5-0.8-1.6-1.1-2.4-0.6s-1.1,1.6-0.6,2.4l2.8,4.8l-3.7-1
			c-0.9-0.3-1.9,0.3-2.2,1.2c-0.3,0.9,0.3,1.9,1.2,2.2l7.1,1.9l1.7,3l-0.9-0.2c-0.9-0.3-1.9,0.3-2.2,1.2c-0.3,0.9,0.3,1.9,1.2,2.2
			l4.3,1.1l2.1,3.7h-4.2l-3.1-3.1c-0.7-0.7-1.8-0.7-2.5,0s-0.7,1.8,0,2.5l0.6,0.6h-3.5l-5.2-5.2c-0.7-0.7-1.8-0.7-2.5,0
			s-0.7,1.8,0,2.5l2.7,2.7H368c-1,0-1.8,0.8-1.8,1.8s0.8,1.8,1.8,1.8h5.6l-2.7,2.7c-0.7,0.7-0.7,1.8,0,2.5c0.6,0.6,1.5,0.7,2.1,0.3
			c0.1-0.1,0.3-0.2,0.4-0.3l5.2-5.2h3.5l-0.6,0.6c-0.7,0.7-0.7,1.8,0,2.5c0.6,0.6,1.5,0.7,2.1,0.3c0.1-0.1,0.3-0.2,0.4-0.3l3.1-3.1
			h4.2l-2.1,3.7l-4.3,1.1c-0.9,0.3-1.5,1.2-1.2,2.2c0.3,0.9,1.2,1.5,2.2,1.2l0.9-0.2l-1.7,3l-7.1,1.9c-0.9,0.3-1.5,1.2-1.2,2.2
			c0.3,0.9,1.2,1.5,2.2,1.2l3.7-1l-2.8,4.8c-0.5,0.8-0.2,1.9,0.6,2.4c0.6,0.3,1.2,0.3,1.8,0c0.3-0.1,0.5-0.4,0.6-0.6l2.8-4.8l1,3.7
			c0.3,0.9,1.2,1.5,2.2,1.2c0.2,0,0.3-0.1,0.4-0.2C390.5,85.5,390.8,84.7,390.6,83.9z"/>
		
			<linearGradient id="SVGID_2_" gradientUnits="userSpaceOnUse" x1="254.3664" y1="140.4953" x2="259.7408" y2="125.2678" gradientTransform="matrix(1 0 0 -1 0 250)">
			<stop  offset="0" style="stop-color:#404B71"/>
			<stop  offset="0.6044" style="stop-color:#3C476E"/>
			<stop  offset="1" style="stop-color:#354169"/>
		</linearGradient>
		<path class="st4" d="M256,123.1l-0.6-2.1l0.5-0.9l0.1,0.3c0.1,0.3,0.4,0.5,0.7,0.4c0,0,0.1,0,0.1-0.1c0.2-0.1,0.3-0.4,0.2-0.6
			l-0.3-1.3l0.6-1.1l0.6,1.1l-0.3,1.3c-0.1,0.3,0.1,0.6,0.4,0.7c0.1,0,0.3,0,0.4-0.1s0.2-0.2,0.2-0.3l0.1-0.3l0.5,0.9l-0.6,2.1
			c-0.1,0.3,0.1,0.6,0.4,0.7c0.1,0,0.3,0,0.4-0.1c0.1-0.1,0.2-0.2,0.2-0.3l0.3-1.1l0.8,1.5c0.1,0.3,0.5,0.3,0.7,0.2
			c0.3-0.1,0.3-0.5,0.2-0.7l-0.8-1.5l1.1,0.3c0.1,0,0.3,0,0.4-0.1c0.1-0.1,0.2-0.2,0.2-0.3c0.1-0.3-0.1-0.6-0.4-0.7l-2.1-0.6
			l-0.5-0.9l0.3,0.1c0.1,0,0.3,0,0.4-0.1c0.1-0.1,0.2-0.2,0.2-0.3c0.1-0.3-0.1-0.6-0.4-0.7l-1.3-0.3l-0.6-1.1h1.3l0.9,0.9
			c0.2,0.2,0.4,0.2,0.6,0.1l0.1-0.1c0.2-0.2,0.2-0.5,0-0.8l-0.2-0.2h1.1l1.6,1.6c0.2,0.2,0.4,0.2,0.6,0.1c0,0,0.1,0,0.1-0.1
			c0.2-0.2,0.2-0.5,0-0.8l-0.8-0.8h1.7c0.1,0,0.2,0,0.3-0.1c0.2-0.1,0.3-0.3,0.3-0.5c0-0.3-0.2-0.5-0.5-0.5h-1.7l0.8-0.8
			c0.2-0.2,0.2-0.5,0-0.8c-0.2-0.2-0.5-0.2-0.8,0l-1.6,1.6H261l0.2-0.2c0.2-0.2,0.2-0.5,0-0.8c-0.2-0.2-0.5-0.2-0.8,0l-0.9,0.9h-1.3
			l0.6-1.1l1.3-0.3c0,0,0.1,0,0.1-0.1c0.2-0.1,0.3-0.4,0.2-0.6c-0.1-0.3-0.4-0.5-0.7-0.4l-0.3,0.1l0.5-0.9l2.1-0.6
			c0,0,0.1,0,0.1-0.1c0.2-0.1,0.3-0.4,0.2-0.6c-0.1-0.3-0.4-0.5-0.7-0.4l-1.1,0.3l0.8-1.5c0.1-0.3,0.1-0.6-0.2-0.7
			c-0.3-0.1-0.6-0.1-0.7,0.2l-0.8,1.5l-0.3-1.1c-0.1-0.3-0.4-0.5-0.7-0.4c-0.3,0.1-0.5,0.4-0.4,0.7l0.6,2.1l-0.5,0.9l-0.1-0.3
			c-0.1-0.3-0.4-0.5-0.7-0.4s-0.5,0.4-0.4,0.7l0.3,1.3l-0.6,1.1l-0.6-1.1l0.3-1.3c0.1-0.3-0.1-0.6-0.4-0.7c-0.3-0.1-0.6,0.1-0.7,0.4
			l-0.1,0.3l-0.5-0.9l0.6-2.1c0.1-0.3-0.1-0.6-0.4-0.7c-0.3-0.1-0.6,0.1-0.7,0.4l-0.3,1.1l-0.8-1.5c-0.1-0.3-0.5-0.3-0.7-0.2
			c-0.3,0.1-0.3,0.5-0.2,0.7l0.8,1.5l-1.1-0.3c-0.3-0.1-0.6,0.1-0.7,0.4c-0.1,0.3,0.1,0.6,0.4,0.7l2.1,0.6l0.5,0.9l-0.3-0.1
			c-0.3-0.1-0.6,0.1-0.7,0.4c-0.1,0.3,0.1,0.6,0.4,0.7l1.3,0.3l0.6,1.1h-1.3l-0.9-0.9c-0.2-0.2-0.5-0.2-0.8,0
			c-0.2,0.2-0.2,0.5,0,0.8l0.2,0.2h-1.1l-1.6-1.6c-0.2-0.2-0.5-0.2-0.8,0c-0.2,0.2-0.2,0.5,0,0.8l0.8,0.8h-1.7
			c-0.3,0-0.5,0.2-0.5,0.5s0.2,0.5,0.5,0.5h1.7l-0.8,0.8c-0.2,0.2-0.2,0.5,0,0.8c0.2,0.2,0.4,0.2,0.6,0.1c0,0,0.1,0,0.1-0.1l1.6-1.6
			h1.1l-0.2,0.2c-0.2,0.2-0.2,0.5,0,0.8c0.2,0.2,0.4,0.2,0.6,0.1l0.1-0.1l0.9-0.9h1.3l-0.6,1.1l-1.3,0.3c-0.3,0.1-0.5,0.4-0.4,0.7
			c0.1,0.3,0.4,0.5,0.7,0.4l0.3-0.1l-0.5,0.9l-2.1,0.6c-0.3,0.1-0.5,0.4-0.4,0.7c0.1,0.3,0.4,0.5,0.7,0.4l1.1-0.3l-0.8,1.5
			c-0.1,0.3-0.1,0.6,0.2,0.7c0.2,0.1,0.4,0.1,0.5,0c0.1,0,0.1-0.1,0.2-0.2l0.8-1.5l0.3,1.1c0.1,0.3,0.4,0.5,0.7,0.4
			c0,0,0.1,0,0.1-0.1C255.9,123.6,256,123.4,256,123.1z"/>
		
			<linearGradient id="SVGID_3_" gradientUnits="userSpaceOnUse" x1="182.6806" y1="113.351" x2="194.2664" y2="80.5247" gradientTransform="matrix(1 0 0 -1 0 250)">
			<stop  offset="0" style="stop-color:#404B71"/>
			<stop  offset="0.6044" style="stop-color:#3C476E"/>
			<stop  offset="1" style="stop-color:#354169"/>
		</linearGradient>
		<path class="st5" d="M185.2,166.3l-1.2-4.6l1.1-2l0.2,0.6c0.2,0.6,0.8,1,1.4,0.8c0.1,0,0.2-0.1,0.3-0.1c0.4-0.3,0.7-0.8,0.5-1.3
			l-0.7-2.8l1.4-2.4l1.4,2.4l-0.8,2.8c-0.2,0.6,0.2,1.2,0.8,1.4c0.3,0.1,0.6,0,0.9-0.1c0.3-0.1,0.5-0.4,0.5-0.7l0.2-0.6l1.1,2
			l-1.2,4.6c-0.2,0.6,0.2,1.2,0.8,1.4c0.3,0.1,0.6,0,0.9-0.1c0.3-0.1,0.5-0.4,0.5-0.7l0.6-2.4l1.8,3.2c0.3,0.5,1,0.7,1.6,0.4
			c0.5-0.3,0.7-1,0.4-1.6l-1.8-3.2l2.4,0.6c0.3,0.1,0.6,0,0.9-0.1s0.5-0.4,0.5-0.7c0.2-0.6-0.2-1.2-0.8-1.4l-4.6-1.2l-1.1-2l0.6,0.2
			c0.3,0.1,0.6,0,0.9-0.1s0.5-0.4,0.5-0.7c0.2-0.6-0.2-1.2-0.8-1.4l-2.8-0.7l-1.4-2.4h2.8l2,2c0.4,0.4,0.9,0.4,1.4,0.2
			c0.1-0.1,0.2-0.1,0.2-0.2c0.4-0.4,0.4-1.2,0-1.6l-0.4-0.4h2.3l3.4,3.4c0.4,0.4,0.9,0.4,1.4,0.2c0.1-0.1,0.2-0.1,0.2-0.2
			c0.4-0.4,0.4-1.2,0-1.6l-1.8-1.8h3.6c0.2,0,0.4-0.1,0.6-0.2c0.3-0.2,0.6-0.6,0.6-1c0-0.6-0.5-1.2-1.2-1.2h-3.6l1.8-1.8
			c0.4-0.4,0.4-1.2,0-1.6c-0.5-0.5-1.2-0.4-1.6,0l-3.4,3.4h-2.3l0.4-0.4c0.4-0.4,0.4-1.2,0-1.6c-0.5-0.4-1.2-0.4-1.6,0l-2,2h-2.8
			l1.4-2.4l2.8-0.7c0.1,0,0.2-0.1,0.3-0.1c0.4-0.3,0.7-0.8,0.5-1.3c-0.2-0.6-0.8-1-1.4-0.8l-0.6,0.2l1.1-2l4.6-1.2
			c0.1,0,0.2-0.1,0.3-0.1c0.4-0.3,0.7-0.8,0.5-1.3c-0.2-0.6-0.8-1-1.4-0.8l-2.4,0.6l1.8-3.2c0.3-0.6,0.1-1.3-0.4-1.6
			s-1.3-0.1-1.6,0.4l-1.8,3.2l-0.6-2.4c-0.2-0.6-0.8-1-1.4-0.8s-1,0.8-0.8,1.4l1.2,4.6l-1.1,2l-0.2-0.6c-0.2-0.6-0.8-1-1.4-0.8
			s-1,0.8-0.8,1.4l0.7,2.8l-1.4,2.4l-1.4-2.4l0.7-2.8c0.2-0.6-0.2-1.2-0.8-1.4c-0.6-0.2-1.2,0.2-1.4,0.8l-0.2,0.6l-1.1-2l1.2-4.6
			c0.2-0.6-0.2-1.2-0.8-1.4s-1.2,0.2-1.4,0.8l-0.6,2.4l-1.8-3.2c-0.3-0.5-1-0.7-1.6-0.4c-0.6,0.3-0.7,1-0.4,1.6l1.8,3.2l-2.4-0.6
			c-0.6-0.2-1.2,0.2-1.4,0.8s0.2,1.2,0.8,1.4l4.6,1.2l1.1,2l-0.6-0.2c-0.6-0.2-1.2,0.2-1.4,0.8s0.2,1.2,0.8,1.4l2.8,0.7l1.4,2.4
			h-2.8l-2-2c-0.4-0.5-1.2-0.4-1.6,0c-0.4,0.5-0.4,1.2,0,1.6l0.4,0.4h-2.3l-3.4-3.4c-0.4-0.4-1.2-0.4-1.6,0c-0.4,0.4-0.4,1.2,0,1.6
			l1.8,1.8h-3.6c-0.6,0-1.1,0.5-1.1,1.1s0.5,1.1,1.1,1.1h3.6l-1.8,1.8c-0.4,0.5-0.4,1.2,0,1.6c0.4,0.4,0.9,0.4,1.4,0.2
			c0.1,0,0.2-0.1,0.2-0.2l3.4-3.4h2.3l-0.4,0.4c-0.4,0.4-0.4,1.2,0,1.6c0.4,0.4,0.9,0.4,1.4,0.2c0.1,0,0.2-0.1,0.2-0.2l2-2h2.8
			l-1.4,2.4l-2.8,0.7c-0.6,0.2-1,0.8-0.8,1.4c0.2,0.6,0.8,1,1.4,0.8l0.6-0.2l-1.1,2l-4.6,1.2c-0.6,0.2-1,0.8-0.8,1.4
			c0.2,0.6,0.8,1,1.4,0.8l2.4-0.6l-1.8,3.2c-0.3,0.6-0.1,1.3,0.4,1.6c0.4,0.2,0.8,0.2,1.2,0c0.2-0.1,0.3-0.2,0.4-0.4l1.8-3.2
			l0.6,2.4c0.2,0.6,0.8,1,1.4,0.8c0.1,0,0.2-0.1,0.3-0.1C185.1,167.4,185.3,166.9,185.2,166.3z"/>
		
			<linearGradient id="SVGID_4_" gradientUnits="userSpaceOnUse" x1="312.8736" y1="110.7171" x2="345.2264" y2="34.9978" gradientTransform="matrix(1 0 0 -1 0 250)">
			<stop  offset="0" style="stop-color:#404B71"/>
			<stop  offset="0.6044" style="stop-color:#3C476E"/>
			<stop  offset="1" style="stop-color:#354169"/>
		</linearGradient>
		<path class="st6" d="M365.6,173.3h-7l3.4-3.4c0.9-0.9,0.9-2.3,0-3.1c-0.9-0.9-2.3-0.9-3.1,0l-6.5,6.5H348l1.9-1.9
			c0.9-0.9,0.9-2.3,0-3.1c-0.9-0.9-2.3-0.9-3.1,0l-5.1,5.1h-4.3l0.1-0.1c0.8-0.8,0.9-2.2,0.1-3c-0.3-1.1-1.5-1.8-2.7-1.5l-0.2,0.1
			l2.1-3.7l6.9-1.9c0.2,0,0.4-0.1,0.5-0.2c0.8-0.5,1.3-1.5,1-2.5c-0.3-1.2-1.5-1.9-2.7-1.6l-2.6,0.7l2.2-3.8l8.9-2.4
			c0.2-0.1,0.4-0.1,0.5-0.2c0.8-0.5,1.3-1.5,1-2.5c-0.3-1.2-1.5-1.9-2.7-1.6l-4.6,1.2l3.5-6.1c0.6-1.1,0.2-2.4-0.8-3
			c-1.1-0.6-2.4-0.2-3,0.8l-3.5,6.1l-1.2-4.6c-0.3-1.2-1.5-1.9-2.7-1.6c-1.2,0.3-1.9,1.5-1.6,2.7l2.4,8.9l-2.2,3.8l-0.7-2.6
			c-0.3-1.2-1.5-1.9-2.7-1.6c-1.2,0.3-1.9,1.5-1.6,2.7l1.9,6.9l-2.1,3.7v-0.2c-0.3-1.2-1.5-1.8-2.6-1.6c-1.1-0.2-2.3,0.4-2.6,1.6
			v0.2l-2.1-3.7l1.9-6.9c0.3-1.2-0.4-2.4-1.6-2.7c-1.2-0.3-2.4,0.4-2.7,1.6l-0.7,2.6l-2.2-3.8l2.4-8.9c0.3-1.2-0.4-2.4-1.6-2.7
			c-1.2-0.3-2.4,0.4-2.7,1.6l-1.2,4.6l-3.5-6.1c-0.6-1.1-2-1.4-3-0.8c-1.1,0.6-1.4,2-0.8,3l3.5,6.1l-4.6-1.2
			c-1.2-0.3-2.4,0.4-2.7,1.6c-0.3,1.2,0.4,2.4,1.6,2.7l8.9,2.4l2.2,3.8l-2.6-0.7c-1.2-0.3-2.4,0.4-2.7,1.6c-0.3,1.2,0.4,2.4,1.6,2.7
			l6.9,1.9l2.1,3.7h-0.2c-1.1-0.3-2.3,0.3-2.6,1.4c-0.9,0.9-0.8,2.3,0,3.1l0.1,0.1h-4.3l-5.1-5.1c-0.9-0.9-2.3-0.9-3.1,0
			c-0.9,0.9-0.9,2.3,0,3.1l1.9,1.9h-4.4l-6.5-6.5c-0.9-0.9-2.3-0.9-3.1,0c-0.9,0.9-0.9,2.3,0,3.1l3.4,3.4h-7c-1.2,0-2.2,1-2.2,2.2
			s1,2.2,2.2,2.2h7l-3.4,3.4c-0.9,0.9-0.9,2.3,0,3.1c0.7,0.7,1.8,0.8,2.7,0.4c0.2-0.1,0.3-0.2,0.5-0.4l6.5-6.5h4.4l-1.9,1.9
			c-0.9,0.9-0.9,2.3,0,3.1c0.7,0.7,1.8,0.8,2.7,0.4c0.2-0.1,0.3-0.2,0.5-0.4l5.1-5.1h4.3l-0.1,0.1c-0.8,0.8-0.9,2.2-0.1,3
			c0.3,1.1,1.5,1.8,2.7,1.5h0.2l-2.1,3.7l-6.9,1.9c-1.2,0.3-1.9,1.5-1.6,2.7s1.5,1.9,2.7,1.6l2.6-0.7l-2.2,3.8l-8.9,2.4
			c-1.2,0.3-1.9,1.5-1.6,2.7c0.3,1.2,1.5,1.9,2.7,1.6l4.6-1.2l-3.5,6.1c-0.6,1.1-0.2,2.4,0.8,3c0.7,0.4,1.6,0.4,2.2,0
			c0.3-0.2,0.6-0.5,0.8-0.8l3.5-6.1l1.2,4.6c0.3,1.2,1.5,1.9,2.7,1.6c0.2-0.1,0.4-0.1,0.5-0.2c0.8-0.5,1.3-1.5,1-2.5l-2.4-8.9
			l2.2-3.8l0.7,2.6c0.3,1.2,1.5,1.9,2.7,1.6c0.2,0,0.4-0.1,0.5-0.2c0.8-0.5,1.3-1.5,1-2.5l-1.9-6.9l2.1-3.7v0.2
			c0.3,1.2,1.5,1.8,2.6,1.6c0.6,0.1,1.1,0,1.6-0.2c0.5-0.3,0.9-0.8,1-1.3v-0.2l2.1,3.7l-1.9,6.9c-0.3,1.2,0.4,2.4,1.6,2.7
			c0.6,0.2,1.2,0.1,1.7-0.2s0.9-0.8,1-1.3l0.7-2.6l2.2,3.8l-2.4,8.9c-0.3,1.2,0.4,2.4,1.6,2.7c0.6,0.2,1.2,0.1,1.7-0.2
			s0.9-0.8,1-1.3l1.2-4.6l3.5,6.1c0.6,1.1,2,1.4,3,0.8c1.1-0.6,1.4-2,0.8-3l-3.5-6.1l4.6,1.2c0.6,0.2,1.2,0.1,1.7-0.2s0.9-0.8,1-1.3
			c0.3-1.2-0.4-2.4-1.6-2.7l-8.9-2.4l-2.2-3.8l2.6,0.7c0.6,0.2,1.2,0.1,1.7-0.2s0.9-0.8,1-1.3c0.3-1.2-0.4-2.4-1.6-2.7l-6.9-1.9
			l-2.1-3.7h0.2c0.6,0.2,1.2,0.1,1.7-0.2c0.4-0.3,0.8-0.7,1-1.2c0.9-0.9,0.8-2.3,0-3.1l-0.1-0.1h4.3l5.1,5.1
			c0.7,0.7,1.8,0.8,2.7,0.4c0.2-0.1,0.3-0.2,0.5-0.4c0.9-0.9,0.9-2.3,0-3.1l-1.9-1.9h4.4l6.5,6.5c0.7,0.7,1.8,0.8,2.7,0.4
			c0.2-0.1,0.3-0.2,0.5-0.4c0.9-0.9,0.9-2.3,0-3.1l-3.4-3.4h7c0.4,0,0.8-0.1,1.1-0.3c0.7-0.4,1.1-1.1,1.1-1.9
			C367.8,174.3,366.8,173.3,365.6,173.3z M329.6,177.9c-1.4,0.8-3.1,0.3-3.9-1c-0.8-1.4-0.3-3.1,1-3.9c1.4-0.8,3.1-0.3,3.9,1
			C331.4,175.4,331,177.1,329.6,177.9z"/>
		
			<linearGradient id="SVGID_5_" gradientUnits="userSpaceOnUse" x1="267.7318" y1="204.5138" x2="281.0983" y2="173.224" gradientTransform="matrix(1 0 0 -1 0 250)">
			<stop  offset="0" style="stop-color:#404B71"/>
			<stop  offset="0.6044" style="stop-color:#3C476E"/>
			<stop  offset="1" style="stop-color:#354169"/>
		</linearGradient>
		<path class="st7" d="M291.6,61.5h-1.1l0.4-0.6c0.3-0.4,0.2-0.9-0.2-1.1c-0.4-0.3-0.9-0.2-1.1,0.2l-1,1.5H287l2.2-3.2
			c0.3-0.4,0.2-0.9-0.2-1.1c-0.4-0.3-0.9-0.2-1.1,0.2l-2.8,4.1h-1.5l1.3-1.9c0.3-0.4,0.2-0.9-0.2-1.1c-0.4-0.3-0.9-0.2-1.1,0.2
			l-1.9,2.8h-1l0.4-0.6c0.3-0.4,0.2-0.9-0.2-1.1c-0.4-0.3-0.9-0.2-1.1,0.2l-1,1.5h-0.4l-0.9-1.6l0.2-0.3l1.8-0.2
			c0.4,0,0.8-0.4,0.7-0.9c0-0.4-0.4-0.8-0.9-0.7l-0.7,0.1l0.5-0.9l3.4-0.3c0.4,0,0.8-0.4,0.7-0.9c0-0.4-0.4-0.8-0.9-0.7l-2.3,0.2
			l0.7-1.3l5-0.4c0.4,0,0.8-0.4,0.7-0.9c0-0.4-0.4-0.8-0.9-0.7l-3.8,0.3l0.8-1.4l1.8-0.2c0.4,0,0.8-0.4,0.7-0.9
			c0-0.4-0.4-0.8-0.9-0.7l-0.7,0.1l0.6-1c0.2-0.4,0.1-0.9-0.3-1.1c-0.4-0.2-0.9-0.1-1.1,0.3l-0.6,1l-0.3-0.6
			c-0.2-0.4-0.7-0.6-1.1-0.4c-0.4,0.2-0.6,0.7-0.4,1.1l0.8,1.7l-0.8,1.4l-1.6-3.5c-0.2-0.4-0.7-0.6-1.1-0.4
			c-0.4,0.2-0.6,0.7-0.4,1.1l2.1,4.5l-0.7,1.3l-1-2.1c-0.2-0.4-0.7-0.6-1.1-0.4c-0.4,0.2-0.6,0.7-0.4,1.1l1.4,3.1L277,57l-0.3-0.6
			c-0.2-0.4-0.7-0.6-1.1-0.4c-0.4,0.2-0.6,0.7-0.4,1.1l0.8,1.7l-0.2,0.3h-1.9l-0.2-0.3l0.8-1.7c0.2-0.4,0-0.9-0.4-1.1
			c-0.4-0.2-0.9,0-1.1,0.4l-0.3,0.6l-0.5-0.9l1.4-3.1c0.2-0.4,0-0.9-0.4-1.1c-0.4-0.2-0.9,0-1.1,0.4l-1,2.1l-0.7-1.3l2.1-4.5
			c0.2-0.4,0-0.9-0.4-1.1c-0.4-0.2-0.9,0-1.1,0.4l-1.6,3.5l-0.8-1.4l0.8-1.7c0.2-0.4,0-0.9-0.4-1.1c-0.4-0.2-0.9,0-1.1,0.4l-0.3,0.6
			l-0.6-1c-0.2-0.4-0.7-0.5-1.1-0.3s-0.5,0.7-0.3,1.1l0.6,1l-0.7-0.1c-0.4,0-0.8,0.3-0.9,0.7c0,0.4,0.3,0.8,0.7,0.9l1.8,0.2l0.8,1.4
			l-3.8-0.3c-0.4,0-0.8,0.3-0.9,0.7c0,0.4,0.3,0.8,0.7,0.9l5,0.4l0.7,1.3l-2.3-0.2c-0.4,0-0.8,0.3-0.9,0.7c0,0.4,0.3,0.8,0.7,0.9
			l3.4,0.3l0.5,0.9l-0.7-0.1c-0.4,0-0.8,0.3-0.9,0.7c0,0.4,0.3,0.8,0.7,0.9l1.8,0.2l0.2,0.3l-0.9,1.6h-0.4l-1-1.5
			c-0.3-0.4-0.8-0.5-1.1-0.2c-0.4,0.3-0.5,0.8-0.2,1.1l0.4,0.6h-1l-1.9-2.8c-0.3-0.4-0.8-0.5-1.1-0.2c-0.4,0.3-0.5,0.8-0.2,1.1
			l1.3,1.9h-1.5l-2.8-4.1c-0.3-0.4-0.8-0.5-1.1-0.2c-0.4,0.3-0.5,0.8-0.2,1.1l2.2,3.2H261l-1-1.5c-0.3-0.4-0.8-0.5-1.1-0.2
			c-0.4,0.3-0.5,0.8-0.2,1.1l0.4,0.6H258c-0.4,0-0.8,0.4-0.8,0.8c0,0.4,0.4,0.8,0.8,0.8h1.1l-0.4,0.6c-0.3,0.4-0.2,0.9,0.2,1.1
			c0.1,0.1,0.3,0.1,0.5,0.1c0.3,0,0.5-0.1,0.7-0.3l1-1.5h1.6l-2.2,3.2c-0.3,0.4-0.2,0.9,0.2,1.1c0.1,0.1,0.3,0.1,0.5,0.1
			c0.3,0,0.5-0.1,0.7-0.3l2.8-4.1h1.5L265,65c-0.3,0.4-0.2,0.9,0.2,1.1c0.1,0.1,0.3,0.1,0.5,0.1c0.3,0,0.5-0.1,0.7-0.3l1.9-2.8h1
			l-0.4,0.6c-0.3,0.4-0.2,0.9,0.2,1.1c0.1,0.1,0.3,0.1,0.5,0.1c0.3,0,0.5-0.1,0.7-0.3l1-1.5h0.4l0.9,1.6l-0.2,0.3l-1.8,0.2
			c-0.4,0-0.8,0.4-0.7,0.9c0,0.4,0.4,0.7,0.8,0.7c0,0,0,0,0.1,0l0.7-0.1l-0.5,0.9l-3.4,0.3c-0.4,0-0.8,0.4-0.7,0.9
			c0,0.4,0.4,0.7,0.8,0.7c0,0,0,0,0.1,0l2.3-0.2l-0.7,1.3l-5,0.4c-0.4,0-0.8,0.4-0.7,0.9c0,0.4,0.4,0.7,0.8,0.7c0,0,0,0,0.1,0
			l3.8-0.3l-0.8,1.4l-1.8,0.2c-0.4,0-0.8,0.4-0.7,0.9c0,0.4,0.4,0.7,0.8,0.7c0,0,0,0,0.1,0l0.7-0.1l-0.6,1c-0.2,0.4-0.1,0.9,0.3,1.1
			c0.1,0.1,0.3,0.1,0.4,0.1c0.3,0,0.6-0.1,0.7-0.4l0.6-1l0.3,0.6c0.1,0.3,0.4,0.5,0.7,0.5c0.1,0,0.2,0,0.3-0.1
			c0.4-0.2,0.6-0.7,0.4-1.1l-0.8-1.7l0.8-1.4l1.6,3.5c0.1,0.3,0.4,0.5,0.7,0.5c0.1,0,0.2,0,0.3-0.1c0.4-0.2,0.6-0.7,0.4-1.1
			l-2.1-4.5l0.7-1.3l1,2.1c0.1,0.3,0.4,0.5,0.7,0.5c0.1,0,0.2,0,0.3-0.1c0.4-0.2,0.6-0.7,0.4-1.1l-1.4-3.1l0.5-0.9l0.3,0.6
			c0.1,0.3,0.4,0.5,0.7,0.5c0.1,0,0.2,0,0.3-0.1c0.4-0.2,0.6-0.7,0.4-1.1l-0.8-1.7l0.2-0.3h1.9l0.2,0.3l-0.8,1.7
			c-0.2,0.4,0,0.9,0.4,1.1c0.1,0.1,0.2,0.1,0.3,0.1c0.3,0,0.6-0.2,0.7-0.5l0.3-0.6l0.5,0.9l-1.4,3.1c-0.2,0.4,0,0.9,0.4,1.1
			c0.1,0.1,0.2,0.1,0.3,0.1c0.3,0,0.6-0.2,0.7-0.5l1-2.1l0.7,1.3l-2.1,4.5c-0.2,0.4,0,0.9,0.4,1.1c0.1,0.1,0.2,0.1,0.3,0.1
			c0.3,0,0.6-0.2,0.7-0.5l1.6-3.5l0.8,1.4l-0.8,1.7c-0.2,0.4,0,0.9,0.4,1.1c0.1,0.1,0.2,0.1,0.3,0.1c0.3,0,0.6-0.2,0.7-0.5l0.3-0.6
			l0.6,1c0.2,0.3,0.4,0.4,0.7,0.4c0.1,0,0.3,0,0.4-0.1c0.4-0.2,0.5-0.7,0.3-1.1l-0.6-1l0.7,0.1c0,0,0,0,0.1,0c0.4,0,0.8-0.3,0.8-0.7
			c0-0.4-0.3-0.8-0.7-0.9l-1.8-0.2l-0.8-1.4l3.8,0.3c0,0,0,0,0.1,0c0.4,0,0.8-0.3,0.8-0.7c0-0.4-0.3-0.8-0.7-0.9l-5-0.4l-0.7-1.3
			l2.3,0.2c0,0,0,0,0.1,0c0.4,0,0.8-0.3,0.8-0.7c0-0.4-0.3-0.8-0.7-0.9l-3.4-0.3l-0.5-0.9l0.7,0.1c0,0,0,0,0.1,0
			c0.4,0,0.8-0.3,0.8-0.7c0-0.4-0.3-0.8-0.7-0.9l-1.8-0.2l-0.2-0.3l0.9-1.6h0.4l1,1.5c0.2,0.2,0.4,0.3,0.7,0.3c0.2,0,0.3,0,0.5-0.1
			c0.4-0.3,0.5-0.8,0.2-1.1l-0.4-0.6h1l1.9,2.8c0.2,0.2,0.4,0.3,0.7,0.3c0.2,0,0.3,0,0.5-0.1c0.4-0.3,0.5-0.8,0.2-1.1l-1.3-1.9h1.5
			l2.8,4.1c0.2,0.2,0.4,0.3,0.7,0.3c0.2,0,0.3,0,0.5-0.1c0.4-0.3,0.5-0.8,0.2-1.1l-2.2-3.2h1.6l1,1.5c0.2,0.2,0.4,0.3,0.7,0.3
			c0.2,0,0.3,0,0.5-0.1c0.4-0.3,0.5-0.8,0.2-1.1l-0.4-0.6h1.1c0.4,0,0.8-0.4,0.8-0.8C292.4,61.8,292,61.5,291.6,61.5z M273.9,63.9
			l-0.9-1.6l0.9-1.6h1.9l0.9,1.6l-0.9,1.6H273.9z"/>
		<circle class="st1" cx="305.7" cy="41.5" r="3.8"/>
		<circle class="st1" cx="166" cy="113" r="3.8"/>
		<circle class="st1" cx="171.5" cy="127.5" r="1.7"/>
		<circle class="st1" cx="158.3" cy="136.2" r="1.7"/>
		<circle class="st1" cx="292.4" cy="37.7" r="1.7"/>
		<circle class="st1" cx="323.1" cy="77.6" r="4.2"/>
		<circle class="st1" cx="355.2" cy="215.2" r="4.2"/>
		<circle class="st1" cx="346.3" cy="88.6" r="3.1"/>
		<circle class="st1" cx="340.3" cy="98" r="1.7"/>
		<circle class="st1" cx="311.2" cy="86.9" r="1.7"/>
		<circle class="st1" cx="399.6" cy="113" r="1.7"/>
		<circle class="st1" cx="365.3" cy="88.6" r="1.7"/>
		<circle class="st1" cx="358.6" cy="101.4" r="1.7"/>
		<circle class="st1" cx="356.9" cy="88.4" r="1.7"/>
		<circle class="st1" cx="365.3" cy="77.6" r="1.7"/>
		<circle class="st1" cx="410" cy="90.2" r="1.7"/>
		<circle class="st1" cx="415" cy="83.5" r="1.7"/>
		<circle class="st1" cx="362" cy="205.7" r="1.7"/>
		<circle class="st1" cx="374.6" cy="204" r="1.7"/>
		<circle class="st1" cx="367" cy="213.5" r="1.7"/>
		<circle class="st1" cx="331.4" cy="75.9" r="1.7"/>
		<circle class="st1" cx="338.6" cy="83.5" r="1.7"/>
	</g>
</g>
</svg>
