<?xml version="1.0" encoding="utf-8"?>
<!-- Generator: Adobe Illustrator 19.0.0, SVG Export Plug-In . SVG Version: 6.00 Build 0)  -->
<svg version="1.1" id="Layer_1" xmlns="http://www.w3.org/2000/svg" xmlns:xlink="http://www.w3.org/1999/xlink" x="0px" y="0px"
	 viewBox="6 10 182 202" style="enable-background:new 6 10 182 202;" xml:space="preserve">
<style type="text/css">
	.st0{fill:#519E38;}
	.st1{fill:#FFFFFF;}
	.st2{fill:#EDEDED;}
	.st3{fill:#CA0000;}
	.st4{fill:#B00000;}
	.st5{opacity:0.6;fill:none;stroke:#FFFFFF;stroke-width:2;stroke-linecap:round;enable-background:new    ;}
	.st6{fill:none;}
	.st7{fill:#F2F2F2;}
</style>
<g id="thermometr">
	<path id="XMLID_37_" class="st0" d="M141.5,96.8c0-7,0-52.7,0-54.7c0-0.5-0.1-0.9-0.2-1.4l0,0c0,0-0.8-5.5-6.2-6.1
		c0,0-3.8-0.1-6,1.1c-2.2,1.2,6.9,5.4,6.9,5.4s1.7,0.9,2.5,1.3c0,4.5,0,54.7,0,55.2v0.9l0.8,0.4c0.1,0,6.9,3.9,6.4,11.5
		c-0.4,5.9-3.8,10.3-8.9,12l-6.3-1.8c0,0-7.5-0.2-4.8,2.8c1.7,1.9,4.6,2.5,6.5,2.6c0.2,0.1,0.4,0.1,0.6,0.1l0,0c0.3,0,0.6,0,0.9-0.1
		c0.2,0,0.3,0,0.3,0l0,0c8.1-0.7,14.1-6.9,14.6-15.3C149.2,102.8,143.6,98.3,141.5,96.8z"/>
	<path id="XMLID_36_" class="st1" d="M138.5,97.5V42.6c0-4-3.2-7.2-7.2-7.2s-7.2,3.2-7.2,7.2v54.8c-4.4,2.5-7.3,7.2-7.3,12.6
		c0,8,6.5,14.4,14.4,14.4c8,0,14.4-6.5,14.4-14.4C145.7,104.7,142.8,100,138.5,97.5z"/>
	<path id="XMLID_35_" class="st2" d="M138.5,97.5V42.6c0-4-3.2-7.2-7.2-7.2c0,0,0,0-0.1,0v89c8,0,14.4-6.5,14.4-14.4
		C145.7,104.7,142.8,100,138.5,97.5z"/>
	<path id="XMLID_34_" class="st3" d="M135.8,99.7V55.3h-9.5v44.6l0,0c-3.9,1.9-6.6,5.8-6.6,10.4c0,6.4,5.2,11.5,11.5,11.5
		c6.4,0,11.5-5.2,11.5-11.5C142.8,105.6,139.9,101.5,135.8,99.7z"/>
	<path id="XMLID_33_" class="st4" d="M135.8,99.7V55.3h-4.5v66.5c6.4,0,11.5-5.2,11.5-11.5C142.8,105.6,139.9,101.5,135.8,99.7z"/>
	<path id="XMLID_32_" class="st5" d="M124.3,112.7c0,0,1.2,2.8,4,4"/>
	<path id="XMLID_31_" class="st1" d="M132.7,62.5h-2.9c-0.1,0-0.2-0.1-0.2-0.2c0-0.1,0.1-0.2,0.2-0.2h2.9c0.1,0,0.2,0.1,0.2,0.2
		C133,62.4,132.9,62.5,132.7,62.5z"/>
	<path id="XMLID_30_" class="st1" d="M132.7,64.2h-2.9c-0.1,0-0.2-0.1-0.2-0.2c0-0.1,0.1-0.2,0.2-0.2h2.9c0.1,0,0.2,0.1,0.2,0.2
		C132.9,64.1,132.9,64.2,132.7,64.2z"/>
	<path id="XMLID_29_" class="st1" d="M134.5,65.8H128c-0.1,0-0.2-0.1-0.2-0.2s0.1-0.2,0.2-0.2h6.5c0.1,0,0.2,0.1,0.2,0.2
		S134.6,65.8,134.5,65.8z"/>
	<path id="XMLID_28_" class="st1" d="M132.7,67.5h-2.9c-0.1,0-0.2-0.1-0.2-0.2s0.1-0.2,0.2-0.2h2.9c0.1,0,0.2,0.1,0.2,0.2
		S132.9,67.5,132.7,67.5z"/>
	<path id="XMLID_27_" class="st1" d="M132.7,69.1h-2.9c-0.1,0-0.2-0.1-0.2-0.2c0-0.1,0.1-0.2,0.2-0.2h2.9c0.1,0,0.2,0.1,0.2,0.2
		C132.9,69,132.9,69.1,132.7,69.1z"/>
	<path id="XMLID_26_" class="st1" d="M134.5,70.8H128c-0.1,0-0.2-0.1-0.2-0.2s0.1-0.2,0.2-0.2h6.5c0.1,0,0.2,0.1,0.2,0.2
		S134.6,70.8,134.5,70.8z"/>
	<path id="XMLID_25_" class="st1" d="M132.7,72.4h-2.9c-0.1,0-0.2-0.1-0.2-0.2s0.1-0.2,0.2-0.2h2.9c0.1,0,0.2,0.1,0.2,0.2
		S132.9,72.4,132.7,72.4z"/>
	<path id="XMLID_24_" class="st1" d="M132.7,74h-2.9c-0.1,0-0.2-0.1-0.2-0.2s0.1-0.2,0.2-0.2h2.9c0.1,0,0.2,0.1,0.2,0.2
		S132.9,74,132.7,74z"/>
	<path id="XMLID_23_" class="st1" d="M134.5,75.7H128c-0.1,0-0.2-0.1-0.2-0.2c0-0.1,0.1-0.2,0.2-0.2h6.5c0.1,0,0.2,0.1,0.2,0.2
		C134.7,75.6,134.6,75.7,134.5,75.7z"/>
	<path id="XMLID_22_" class="st1" d="M132.7,77.3h-2.9c-0.1,0-0.2-0.1-0.2-0.2s0.1-0.2,0.2-0.2h2.9c0.1,0,0.2,0.1,0.2,0.2
		C133,77.2,132.9,77.3,132.7,77.3z"/>
	<path id="XMLID_21_" class="st1" d="M132.7,79h-2.9c-0.1,0-0.2-0.1-0.2-0.2s0.1-0.2,0.2-0.2h2.9c0.1,0,0.2,0.1,0.2,0.2
		C133,78.9,132.9,79,132.7,79z"/>
	<path id="XMLID_20_" class="st1" d="M134.5,80.6H128c-0.1,0-0.2-0.1-0.2-0.2c0-0.1,0.1-0.2,0.2-0.2h6.5c0.1,0,0.2,0.1,0.2,0.2
		C134.7,80.5,134.6,80.6,134.5,80.6z"/>
	<g id="thermometer_x5F_mask_2_">
		<path id="XMLID_9_" class="st6" d="M135.8,99.7V55.3h-9.5v44.6l0,0c-3.9,1.9-6.6,5.8-6.6,10.4c0,6.4,5.2,11.5,11.5,11.5
			c6.4,0,11.5-5.2,11.5-11.5C142.8,105.6,139.9,101.5,135.8,99.7z"/>
	</g>
</g>
<g id="mask">
	<path id="XMLID_15_" class="st6" d="M135.8,99.7V55.3h-9.5v44.6l0,0c-3.9,1.9-6.6,5.8-6.6,10.4c0,6.4,5.2,11.5,11.5,11.5
		c6.4,0,11.5-5.2,11.5-11.5C142.8,105.6,139.9,101.5,135.8,99.7z"/>
</g>
<g id="vigimka">
	<g>
		<path class="st0" d="M114.5,135.2L114.5,135.2L114.5,135.2c-0.4-1-0.9-2-1.5-3L87.4,80.3l-25.6,51.9c-0.5,0.9-1,1.8-1.4,2.7l0,0
			l0,0c-1.5,3.5-2.4,7.4-2.4,11.5c0,16.2,13.1,29.4,29.4,29.4s29.4-13.1,29.4-29.4C116.8,142.6,115.9,138.7,114.5,135.2z"/>
		<path class="st7" d="M100.7,128.3L100.7,128.3L100.7,128.3c-0.4-1-0.9-2-1.5-3L73.6,73.4l-25.6,52c-0.5,0.9-1,1.8-1.4,2.7l0,0l0,0
			c-1.5,3.5-2.4,7.4-2.4,11.5c0,16.2,13.1,29.4,29.4,29.4s29.4-13.1,29.4-29.4C103,135.7,102.2,131.8,100.7,128.3z"/>
		<ellipse class="st1" cx="61" cy="132.8" rx="8" ry="8.2"/>
	</g>
</g>
<g id="blank">
</g>
</svg>
