<?xml version="1.0" encoding="utf-8"?>
<!-- Generator: Adobe Illustrator 19.0.0, SVG Export Plug-In . SVG Version: 6.00 Build 0)  -->
<svg version="1.1" id="Layer_1" xmlns="http://www.w3.org/2000/svg" xmlns:xlink="http://www.w3.org/1999/xlink" x="0px" y="0px"
	 viewBox="0 0 130 250" style="enable-background:new 0 0 130 250;" xml:space="preserve">
<style type="text/css">
	.st0{fill:#519E38;}
	.st1{fill:#F4F4F4;}
	.st2{fill:#D6D6D6;}
	.st3{fill:#EAEAEA;}
	.st4{fill:#FFFFFF;}
	.st5{fill:#009373;}
	.st6{fill:#62BA47;}
	.st7{fill:#63B746;}
</style>
<g id="Layer_2">
</g>
<g id="kolba_4">
</g>
<g id="kolba_3">
</g>
<g id="kolby">
</g>
<g id="doma">
</g>
<g id="car">
</g>
<g id="butylka_3">
</g>
<g id="butylka_1">
</g>
<g id="vanna_2">
</g>
<g id="vanna_1">
</g>
<g id="zakvaska">
</g>
<g id="shariki_2">
</g>
<g id="shariki_1">
</g>
<g id="voronka">
</g>
<g id="gradusnik">
</g>
<g id="kolba_2">
</g>
<g id="kolba_1">
</g>
<g id="probirki">
</g>
<g id="lupa">
</g>
<g id="bidon">
</g>
<g id="blank">
</g>
<g id="ticks">
</g>
<g id="clock">
</g>
<g>
	<path class="st0" d="M106.5,215c0,0,0-64.5,0-99.6S91.9,67,91.9,67c3.9-21.7-6.5-28.2-6.5-28.2V31h2.2c0,0,0-8.4,0-11.2
		s-3.9-2.5-3.9-2.5H69.4h-1.3H53.8c0,0-3.9-0.3-3.9,2.5s0,11.2,0,11.2h2.3v7.8h-0.1c0,0-10.4,6.5-6.5,28.2c0,0-14.6,13.4-14.6,48.4
		s0,99.6,0,99.6s-1.5,21.4,14.3,21.4c4.3,0,7.8,0,10.8,0c8.1,0,11.8,0,11.8,0h0.7h0.8h0.1h11.7h0.1c3,0,6.5,0,10.8,0c0,0,0,0,0.1,0
		C107.9,236.4,106.5,215,106.5,215z"/>
	<path class="st1" d="M98.8,210c0,0,0-64.5,0-99.6S84.2,62,84.2,62c3.9-21.7-6.5-28.2-6.5-28.2v-8h-33v8h-0.1c0,0-10.4,6.5-6.5,28.2
		c0,0-14.6,13.4-14.6,48.4c0,35.1,0,99.6,0,99.6s-1.5,21.4,14.3,21.4c4.3,0,7.8,0,10.8,0c8.1,0,11.8,0,11.8,0H62h11.8
		c3,0,6.6,0,10.8,0C100.3,231.4,98.8,210,98.8,210z"/>
	<path class="st2" d="M76.1,12.2H61.8h-1.3H46.2c0,0-3.9-0.3-3.9,2.5s0,11.2,0,11.2h18.1h1.3h18.1c0,0,0-8.4,0-11.2
		S76.1,12.2,76.1,12.2z"/>
	<path class="st3" d="M98.7,210c0,0,0-64.5,0-99.6S84.1,62,84.1,62c3.9-21.7-6.5-28.2-6.5-28.2v-8H61v205.6h0.8h11.8
		c3,0,6.6,0,10.8,0C100.2,231.4,98.7,210,98.7,210z"/>
	<path class="st4" d="M35.8,98.9c-0.2,0-0.4,0-0.5,0c-2.3-0.3-3.9-2.4-3.6-4.7c1.9-14.4,8.8-23.1,9.1-23.5c1.4-1.8,4.1-2.1,5.9-0.6
		c1.8,1.4,2.1,4.1,0.6,5.8c-0.1,0.1-5.8,7.4-7.4,19.3C39.6,97.3,37.8,98.9,35.8,98.9z"/>
</g>
<g>
	<circle class="st5" cx="63.4" cy="145.4" r="21.1"/>
	<circle class="st6" cx="46.6" cy="164.1" r="6.6"/>
	<path class="st5" d="M53.4,119.6c0,1.5-1.2,2.7-2.7,2.7s-2.7-1.2-2.7-2.7s1.2-2.7,2.7-2.7C52.2,116.9,53.4,118.1,53.4,119.6
		L53.4,119.6z"/>
	<path class="st6" d="M53.5,128.6c0,1.9-1.5,3.5-3.5,3.5c-1.9,0-3.5-1.5-3.5-3.5c0-1.9,1.6-3.5,3.5-3.5
		C52,125.2,53.5,126.7,53.5,128.6L53.5,128.6z"/>
	<path class="st6" d="M44.3,123.3c0,1.1-0.9,2.1-2.1,2.1c-1.1,0-2.1-0.9-2.1-2.1c0-1.1,0.9-2.1,2.1-2.1
		C43.3,121.2,44.3,122.2,44.3,123.3L44.3,123.3z"/>
	<g>
		<circle class="st6" cx="81.4" cy="126.1" r="11.6"/>
		<g>
			<path class="st4" d="M78.5,124.5c-1,0.1-1.2,1.3-1.3,2l0,0l0,0c0,0.1,0,0.2,0,0.3c0,0.4,0,0.7-0.1,1c0,0.2-0.1,0.5-0.1,0.5
				c-0.3,0-0.6-0.5-0.7-0.7c-0.2-0.6-0.4-1.2-0.5-1.8c-0.1-0.7-0.2-1.4-0.2-2.1c0-0.3,0-0.6,0-0.8c0-0.1,0-0.2,0-0.3s0-0.2,0-0.2
				c0.1-0.5-0.6,0-0.8,0.2c-0.8,1.3-0.5,2.9-0.5,4.4c0,0.4,0,0.8-0.1,1.2c0,0.3-0.1,0.8-0.3,1c-0.1,0.1-0.4,0-0.5,0
				c-0.2-0.1-0.3-0.3-0.3-0.5s-0.3-0.1-0.4,0c-0.2,0.2-0.3,0.5-0.3,0.7c0.1,0.5,0.6,1,1.1,0.8c0.9-0.3,1.2-1.3,1.4-2.1
				c0.1-0.4,0.2-0.8,0.2-1.2c0.1,0.6,0.3,1.1,0.6,1.7c0.2,0.4,0.5,0.8,1,0.7c0.4-0.1,0.6-0.5,0.8-0.9c0.2,0.4,0.4,0.7,0.9,0.6
				c0.5,0,0.9-0.6,1.1-0.9c0.2-0.5,0.3-1,0.3-1.5C79.7,125.8,79.5,124.4,78.5,124.5z M78.8,127.8c0,0.1,0,0.2-0.1,0.3
				c-0.2,0-0.3-0.3-0.4-0.4c-0.2-0.3-0.2-0.7-0.3-1c0-0.4,0-0.7,0-1.1c0-0.1,0-0.2,0.1-0.3c0.5,0.3,0.6,0.9,0.6,1.4
				C78.9,127.1,78.9,127.5,78.8,127.8z"/>
			<path class="st4" d="M90.1,125.8c-1-0.4-1.6,1-1.8,1.8c-0.2,0.7-0.4,2,0.5,2.4c0.4,0.2,1-0.1,1.2-0.4c0.3-0.4,0.5-0.8,0.6-1.3
				C90.8,127.6,91,126.2,90.1,125.8z M89.5,129.2c0,0.1-0.1,0.2-0.1,0.2c-0.2-0.1-0.2-0.4-0.2-0.6c-0.1-0.4,0-0.7,0-1.1
				c0.1-0.4,0.2-0.7,0.3-1c0-0.1,0.1-0.2,0.1-0.2c0.4,0.5,0.3,1.1,0.2,1.6C89.7,128.5,89.6,128.9,89.5,129.2z"/>
			<path class="st4" d="M87.3,126c0.2-0.3,0.4-0.5,0.6-0.8c0.4-0.6,0.8-1.3,0.7-2c0-0.7-0.9-0.7-1.4-0.5c-0.7,0.3-1,1-1.2,1.7
				c-0.3,0.9-0.4,1.8-0.4,2.7l0,0c-0.3,0.4-1,1.2-1.5,0.9c-0.1-0.1-0.2-0.3-0.3-0.4c0.4-0.5,0.8-0.9,1.1-1.4s0.5-1.3-0.1-1.6
				c-0.5-0.3-1.1,0-1.5,0.5c-0.3,0.4-0.5,0.9-0.5,1.5c0,0.3-0.1,0.8,0,1.2c-0.3,0.2-0.7,0.3-1,0.2c-0.4-0.1-0.5-0.5-0.6-0.8
				c-0.1-0.5-0.1-1,0-1.5c0-0.1,0.1-0.3,0.1-0.4v-0.1c0.2,0.1,0.4,0.5,0.4,0.7c0.1,0.3,1-0.2,0.9-0.5s-0.2-0.7-0.6-0.9
				c-0.4-0.2-0.9,0.1-1.1,0.4c-0.6,0.6-0.7,1.6-0.7,2.4c0,0.5,0.1,1.2,0.6,1.5c0.6,0.4,1.5,0,2.1-0.3c0.2,0.4,0.5,0.7,1,0.6
				c0.6-0.1,1.2-0.4,1.6-0.9c0,0.5,0.1,1,0.5,1.2c0.5,0.3,1.2,0,1.6-0.5c0.5-0.6,0.7-1.4,0.5-2.2C87.9,126.2,87.6,126,87.3,126z
				 M83.8,125.6c0-0.1,0.1-0.3,0.2-0.4l0,0c0.2,0.1,0.3,0.4,0.3,0.6c-0.1,0.4-0.3,0.8-0.6,1.1c0-0.1,0-0.1,0-0.2
				C83.6,126.4,83.6,126,83.8,125.6z M87.1,123.7c0.1-0.1,0.2-0.3,0.3-0.4l0,0c0.4,0.5,0,1.1-0.2,1.5s-0.5,0.8-0.8,1.2
				c0.1-0.4,0.1-0.8,0.2-1.2C86.8,124.5,86.9,124.1,87.1,123.7z M86.9,128.5c0,0-0.1,0.1-0.1,0.2h-0.1c-0.3-0.1-0.3-0.7-0.3-0.9
				s0-0.4,0-0.6c0.1-0.1,0.2-0.2,0.3-0.4c0.2-0.2,0.4,0.1,0.4,0.4C87.2,127.6,87.1,128.1,86.9,128.5z"/>
		</g>
	</g>
	<g>
		<path class="st4" d="M42.1,163.1c0.2-0.6,0.7-0.2,0.9,0.1c0.2,0.5,0,0.9-0.3,1.3c-0.2,0.3-0.5,0.6-0.9,0.8
			c-0.2,0.1-0.3,0.2-0.4,0.4c0,0.1-0.1,0.2,0,0.3c0.2,0.2,0.7,0.2,1,0.2c0.5,0,1,0,1.5-0.2c0.3-0.1,0.5-0.7,0-0.5
			c-0.4,0.2-0.8,0.1-1.2,0.1c-0.2,0-0.6,0-0.8-0.1c0,0.1,0,0.2,0,0.3c-0.2,0.4-0.1,0.2,0.1,0.1c0.1-0.1,0.3-0.2,0.4-0.3
			c0.2-0.2,0.5-0.4,0.7-0.7c0.4-0.5,0.7-1.1,0.5-1.7c-0.3-1.4-1.8-0.4-2.1,0.4C41.4,163.7,42,163.3,42.1,163.1L42.1,163.1z"/>
		<path class="st4" d="M45.8,165.4c0.5,1.6,2.9,0.5,2.5-0.9c-0.2-0.7-1-0.6-1.6-0.8c-0.3-0.1-0.3-0.4-0.3-0.6
			c0.1-0.3,0.1-0.4-0.1-0.2c0.1,0,0.2-0.1,0.3-0.1c0.5-0.1,1-0.1,1.5,0.2c0.2,0.1,0.7-0.4,0.4-0.6c-0.6-0.3-1.3-0.2-1.9-0.1
			c-0.6,0.1-0.7,0.7-0.8,1.2c0,0.7,0.6,0.8,1.1,0.9c0.4,0.1,0.8,0.2,0.8,0.6c0.1,0.7-0.7,0.7-1.1,0.4c-0.2-0.1-0.3-0.3-0.3-0.5
			C46.3,164.7,45.7,165.2,45.8,165.4L45.8,165.4z"/>
		<g>
			<path class="st4" d="M51.4,162.5c-0.7,1.1-1.5,2.2-2.3,3.2c-0.3,0.5,0.2,0.4,0.4,0.1c0.8-1.1,1.7-2.2,2.4-3.4
				C52.2,162,51.5,162.3,51.4,162.5L51.4,162.5z"/>
			<path class="st4" d="M50.1,162.2c-0.4,0-0.7,0.4-0.8,0.8c-0.1,0.4,0.1,0.7,0.5,0.7C50.6,163.7,51,162.3,50.1,162.2
				c-0.2,0-0.5,0.4-0.2,0.4c0.2,0,0.3,0.2,0.3,0.4c0,0.1,0,0.2,0,0.2c0,0.1,0,0,0,0h-0.1c-0.2,0-0.3-0.2-0.3-0.3s0-0.2,0-0.2l0,0
				h0.1C50.1,162.7,50.4,162.2,50.1,162.2z"/>
			<path class="st4" d="M51.3,164.6c-0.4,0-0.7,0.4-0.8,0.8c-0.1,0.4,0.1,0.7,0.5,0.7C51.8,166.1,52.2,164.7,51.3,164.6
				c-0.2,0-0.5,0.4-0.2,0.4c0.2,0,0.3,0.2,0.3,0.4c0,0.1,0,0.2,0,0.2c0,0.1,0,0,0,0h-0.1c-0.2,0-0.3-0.2-0.3-0.3s0-0.2,0-0.2l0,0
				h0.1C51.2,165.1,51.5,164.6,51.3,164.6z"/>
		</g>
		<path class="st4" d="M44.8,166.9c0.3-0.3,0.5-0.7,0.6-1c0-0.1,0-0.3-0.1-0.4c-0.1-0.1-0.4,0-0.5,0c-0.2,0.1-0.3,0.3-0.4,0.5
			c0,0.2,0.2,0.2,0.3,0.1l0,0l0,0c0,0.1,0,0.1,0,0.2c0,0.1-0.1,0.2-0.1,0.2s0,0,0,0.1l0,0c0,0,0,0,0,0.1c0.1-0.1,0,0,0,0
			c-0.1,0.1-0.3,0.3-0.2,0.4C44.5,167.1,44.8,167,44.8,166.9L44.8,166.9z"/>
	</g>
	<g>
		<g>
			<g>
				<path class="st4" d="M80.4,148.2c0.2-1.1,0.3-2.5-0.5-3.4c-0.4-0.5-1.3-0.5-1.9-0.3c0-0.5,0.1-0.9,0.1-1.4
					c0-0.4-0.8-0.3-0.9-0.2c-0.4,0.1-0.8,0.4-0.8,0.8c-0.1,1.5-0.2,3.1-0.4,4.7l0,0c-0.1,0.5-0.3,1.2-0.8,1.4s-0.7-1.3-0.7-1.5
					c0-1.6,0.3-3.1,0.6-4.7c0.1-0.4-0.4-0.4-0.7-0.4c-0.4,0.1-0.9,0.4-1,0.7c-0.2,1.2-0.4,2.4-0.7,3.5c-0.1,0.5-0.3,1-0.6,1.5
					c0,0,0,0,0,0.1c-0.1,0-0.2-0.1-0.3-0.1c-0.8-0.5-0.6-2-0.5-2.7c0.1-1,0.4-2,0.8-3c0.1-0.3,0-0.5-0.5-0.5c-0.2,0-0.5,0.1-0.7,0.2
					c-0.1,0.1-0.4,0.3-0.5,0.3c-0.1,0.1-0.2,0.1-0.4,0.1c-0.9,0.3-1.5-0.1-2-0.7l0,0c-0.1-0.2-0.3-0.3-0.5-0.4
					c-0.6-0.4-1.3-0.1-1.9,0.1c0-0.5-0.1-0.9-0.2-1.4c-0.1-0.4-0.8-0.1-1,0c-0.3,0.2-0.7,0.5-0.7,0.9c-0.5,0.1-0.9,0.3-1.2,0.6
					c-0.9,0.8-1.3,2-1.3,3.3l0,0c-0.1,1.1-0.7,2.7-2,2.6c-0.3,0-0.5-0.4-0.7-0.7c0.4-0.6,0.8-1.2,1.1-1.7c0.6-1,1.1-2.5,0.3-3.5
					c-0.5-0.6-1.8-0.1-2.4,0.5c-0.8,0.7-1,1.7-1,2.6c0,0.6,0,1.8,0.3,2.7c-0.2,0.3-0.5,0.6-0.8,0.4c-0.3-0.1-0.4-0.5-0.4-0.7
					c-0.3-0.8-0.3-1.8-0.6-2.6c-0.5-1.2-1.7-1.2-2.9-0.7c-0.2-1-0.2-2.2,0.3-3.2c0.5-1.2,1.8-0.7,2.6-0.2c0.5,0.3,1.9-1,1.3-1.4
					c-0.7-0.5-1.7-0.9-2.7-0.5c-0.9,0.3-1.6,1-2.1,1.7c-0.1,0.1-0.2,0.3-0.3,0.4c-0.3-0.8-0.5-1.6-0.8-2.3c-0.1-0.3-0.6,0-0.8,0.1
					c-1.6,1.1-4.3,3.5-3.3,5.7c0.2,0.5,1.5-1,1.3-1.5c-0.4-0.8,0.5-1.9,1.5-2.6c0.6,1.8,1.2,3.7,1.6,5.5c0.3,1.1,0.5,2.5-0.1,3.5
					c-0.6,1.1-2,0.4-2.2-0.5c-0.1-0.8-1.3,0.7-1.2,1.2c0.1,0.6,0.5,1.1,1.1,1.4c0.6,0.2,1.2-0.1,1.8-0.4c1.3-0.8,2-2.3,2.2-3.8
					c0.1-0.6,0-1.2,0-1.9c0.4-0.1,0.8-0.1,1.1,0.3c0.6,0.7,0.6,1.8,0.9,2.7c0.2,0.6,0.5,1.4,1.3,1.3c0.7-0.1,1.2-0.6,1.7-1.1
					c0.3,0.4,0.6,0.6,1.1,0.7c0.9,0.1,1.8-0.6,2.4-1.1c0.2-0.2,0.4-0.4,0.6-0.7c0.1,0.4,0.4,0.8,0.6,1.1c0.3,0.4,0.8,0.5,1.4,0.4
					c0.2,0,0.4-0.1,0.6-0.2c-0.1,1.5-0.2,2.9-0.3,4.4c0,0.4,0.4,0.3,0.6,0.2c0.3-0.2,0.7-0.5,0.7-0.9c0.2-1.2,0.3-2.3,0.3-3.5
					c0.5,0,1.2-0.2,1.6-0.5c1.1-0.9,1.4-2.3,1.4-3.6c0-0.2,0-0.5,0-0.8c0.5,0,1-0.1,1.4-0.2c-0.3,0.9-0.5,1.9-0.5,2.8
					c0,0.9,0,2.5,1.3,2.9c0.8,0.2,1.5-0.1,2.1-0.6c0,0.2,0.1,0.4,0.2,0.5c0.4,1,1.6,0.8,2.3,0.5c-0.3,1.6-0.7,3.1-1.1,4.7
					c-0.1,0.4,0.3,0.4,0.6,0.4c0.4-0.1,0.7-0.3,0.9-0.7c0.3-1.1,0.6-2.2,0.9-3.4c0.5,0.2,1.1,0.1,1.6-0.1
					C79.6,150.8,80.1,149.4,80.4,148.2z M58.3,145.2c0-0.6,0-1.1,0.2-1.7c0.1,0,0.2,0,0.3,0.1c0.7,0.4,0.2,1.6,0,2.2
					c-0.1,0.2-0.2,0.5-0.3,0.7C58.4,146.1,58.3,145.7,58.3,145.2z M64.2,148.1c-0.1,0-0.2,0-0.3-0.1c-0.3-0.1-0.4-0.4-0.6-0.6
					c-0.4-0.7-0.5-1.5-0.4-2.3c0-0.6,0.1-1.3,0.4-1.9c0.1,0,0.1,0.1,0.1,0.1c0.5,0.4,0.8,1.1,0.8,1.7l0,0
					C64.3,146,64.4,147.1,64.2,148.1C64.3,148.1,64.3,148.1,64.2,148.1C64.3,148.1,64.3,148.1,64.2,148.1z M66.8,148.1
					C66.8,148.2,66.8,148.2,66.8,148.1c-0.1,0.1-0.1,0.1-0.1,0.1c-0.6,0-0.9-0.4-0.9-0.9l0,0c0-1.1,0.1-2.2,0-3.3
					c0-0.6,0.2-0.8,0.2-0.8c0.1,0,0.4,0.1,0.6,0.3c0.5,0.6,0.6,1.5,0.6,2.2C67.2,146.5,67.2,147.5,66.8,148.1z M78,150.5L78,150.5
					c-0.1,0.1-0.1,0.1-0.1,0.1c-0.6-0.1-0.7-0.7-0.7-1.2c0,0,0.4-2,0.5-3c0-0.1,0.2-0.7,0.3-0.9l0,0l0,0c0.2,0,0.3,0.3,0.5,0.5
					c0.4,0.7,0.3,1.7,0.2,2.4C78.7,149,78.5,149.9,78,150.5z"/>
			</g>
		</g>
	</g>
	<g>
		<path class="st7" d="M37.8,136.5c-0.1,0-0.2-0.2-0.3-0.2c-0.4-0.2-0.8,0.1-1.2,0.1c-1,0-1.4,0-2.6-0.4c0-1.1,0.6-1.7,0.9-2.5
			c0.2-0.7-0.1-1.5-0.1-2.4c0-0.5,0-1,0-1.5c-0.3,0.3-0.2,1.3-0.2,1.7c-0.2-0.6-0.1-1.4-0.3-2c-0.2,0.6,0,1.4,0,2
			c-0.2-0.6-0.2-1.2-0.4-1.7c-0.3,0.6,0.2,1.4,0.1,1.9c-0.2-0.5-0.3-1.1-0.6-1.5c-0.1,0.7,0.2,1.2,0.2,1.7c-0.2-0.4-0.3-0.9-0.6-1.2
			c0,0.4,0.3,1,0.4,1.4c-0.3-0.1-0.4-0.5-0.7-0.6c0.1,0.3,0.3,0.5,0.4,0.8c-0.2-0.1-0.3-0.3-0.5-0.4c0,0.3,0.3,0.4,0.3,0.7
			c-0.1-0.1-0.3-0.2-0.4-0.3c0,0.2,0.3,0.4,0.3,0.5c0,0-0.2-0.1-0.2,0c0.1,0,0.2,0.2,0.1,0.2c-0.1,0-0.2,0-0.2,0
			c0,0.2,0.2,0.1,0.1,0.3c-0.1,0-0.1-0.1-0.1,0s0.1,0.1,0.1,0.2c-0.9,0.9-0.4,1.9-0.5,2.9c0.1-0.1-0.7-0.3-1.3-0.5
			c-0.3-0.1-0.4-0.5-0.6-0.6c0-0.1,0.1,0,0.1-0.1c-0.1,0-0.2-0.1-0.2-0.2c0.1,0,0.3,0.1,0.3,0c-0.2-0.1-0.6-0.2-0.5-0.3
			c0.2,0,0.4,0.1,0.6,0.1c-0.2-0.1-0.7-0.3-0.7-0.5c0.2,0.1,0.5,0.3,0.8,0.2c-0.4-0.2-0.9-0.5-1-0.7c0.3,0.1,0.6,0.5,0.9,0.4
			c-0.4-0.1-0.8-0.6-1.2-0.6c0.2,0.4,0.8,0.6,1,0.9c-0.3-0.2-0.7-0.3-1-0.5c0.1,0.4,0.6,0.5,0.9,0.8c-0.3,0-0.5-0.2-0.8-0.2
			c0.1,0.3,0.6,0.3,0.8,0.5c-0.1-0.1-0.4,0-0.5,0c0,0.2,0.4,0.2,0.5,0.3c-0.2,0-0.3,0-0.4,0.1c0.1,0.1,0.4,0.1,0.4,0.2
			c-0.1,0-0.2,0-0.2,0.1s0.3,0,0.3,0.1c-0.1,0-0.1,0.1-0.1,0.1c0.1,0,0.2,0,0.2,0c-0.1,0-0.1,0.1-0.1,0.1c0.5,0.2,0.7,1,1.4,1.2
			c-0.4,0.3,0.3,0.5-3.7,1.9c0.1,0,1.8-0.4,2.3-0.6c0.5-0.2,1-0.3,1.5-0.5c0.1,0,0.2-0.1,0.4-0.1c0.8-0.1,1.6,0.1,2.4-0.5
			c-0.6,0.1-1.7,0.2-2.1-0.1c0.6-0.9,0.2-3,0.6-3.5c0.5-0.4,1.1-1.8,2-0.6c0.1,0.2,0.2,0.5-0.1,1c-0.4,0.6-0.6,0.9-0.5,2.2
			c0,0.3,0,0.6-0.4,0.5c1.8,0.4,2.3,0.2,3.3,0c0.3,0,0.8-0.3,0.9,0c0,0.1-0.3,0.1-0.6,0.1c-0.5,0,0.2,0.2,0.4,0.2
			c0.1,0,1-0.1,1.5-0.2C38.4,136.6,38.1,136.6,37.8,136.5z"/>
		<path class="st7" d="M32.7,127.4c-4,0-7.3,3.3-7.3,7.3s3.3,7.3,7.3,7.3s7.3-3.3,7.3-7.3S36.7,127.4,32.7,127.4 M32.7,127.7
			c3.9,0,7,3.2,7,7c0,3.9-3.2,7-7,7c-3.9,0-7-3.2-7-7C25.6,130.9,28.8,127.7,32.7,127.7"/>
	</g>
</g>
</svg>
