<?xml version="1.0" encoding="utf-8"?>
<!-- Generator: Adobe Illustrator 19.0.0, SVG Export Plug-In . SVG Version: 6.00 Build 0)  -->
<svg version="1.1" xmlns="http://www.w3.org/2000/svg" xmlns:xlink="http://www.w3.org/1999/xlink" x="0px" y="0px"
	 viewBox="0 0 340.5 301.5" style="enable-background:new 0 0 340.5 301.5;" xml:space="preserve">
<style type="text/css">
	.st0{fill:#519E38;}
	.st1{fill:#F4F4F4;}
	.st2{fill:#D6D6D6;}
	.st3{fill:#EAEAEA;}
	.st4{fill:#FFFFFF;}
	.st5{fill:#00AA55;}
	.st6{fill:#62BA47;}
	.st7{fill-rule:evenodd;clip-rule:evenodd;fill:#00AA55;}
	.st8{fill-rule:evenodd;clip-rule:evenodd;fill:#62BA47;}
	.st9{fill:#63B746;}
	.st10{fill:#009373;}
	.st11{fill-rule:evenodd;clip-rule:evenodd;fill:#009373;}
</style>
<g id="kolba_4">
</g>
<g id="kolba_3">
</g>
<g id="kolby">
</g>
<g id="doma">
</g>
<g id="car">
</g>
<g id="butylka_3">
</g>
<g id="butylka_2">
</g>
<g id="butylka_1">
</g>
<g id="vanna_2">
</g>
<g id="sneg">
</g>
<g id="vanna_1">
</g>
<g id="zakvaska">
</g>
<g id="shariki_2">
</g>
<g id="shariki_1">
</g>
<g id="voronka">
</g>
<g id="gradusnik">
</g>
<g id="kolba_2">
</g>
<g id="kolba_1">
</g>
<g id="probirki">
</g>
<g id="lupa">
</g>
<g id="bidon">
</g>
<g id="blank">
</g>
<g id="ticks">
</g>
<g id="clock">
	<g>
		<path class="st0" d="M267.5,237c0,0,0-64.5,0-99.6S252.9,89,252.9,89c3.9-21.7-6.5-28.2-6.5-28.2V53h2.2c0,0,0-8.4,0-11.2
			c0-2.8-3.9-2.5-3.9-2.5h-14.3h-1.3h-14.3c0,0-3.9-0.3-3.9,2.5c0,2.8,0,11.2,0,11.2h2.3v7.8h-0.1c0,0-10.4,6.5-6.5,28.2
			c0,0-14.6,13.4-14.6,48.4s0,99.6,0,99.6s-1.5,21.4,14.3,21.4c4.3,0,7.8,0,10.8,0c8.1,0,11.8,0,11.8,0h0.7h0.8h0.1h11.7h0.1
			c3,0,6.5,0,10.8,0c0,0,0,0,0.1,0C268.9,258.4,267.5,237,267.5,237z"/>
		<path class="st1" d="M259.8,232c0,0,0-64.5,0-99.6c0-35.1-14.6-48.4-14.6-48.4c3.9-21.7-6.5-28.2-6.5-28.2v-8h-33v8h-0.1
			c0,0-10.4,6.5-6.5,28.2c0,0-14.6,13.4-14.6,48.4c0,35.1,0,99.6,0,99.6s-1.5,21.4,14.3,21.4c4.3,0,7.8,0,10.8,0
			c8.1,0,11.8,0,11.8,0h1.6h11.8c3,0,6.6,0,10.8,0C261.3,253.4,259.8,232,259.8,232z"/>
		<path class="st2" d="M237.1,34.2h-14.3h-1.3h-14.3c0,0-3.9-0.3-3.9,2.5s0,11.2,0,11.2h18.1h1.3h18.1c0,0,0-8.4,0-11.2
			S237.1,34.2,237.1,34.2z"/>
		<path class="st3" d="M259.7,232c0,0,0-64.5,0-99.6c0-35.1-14.6-48.4-14.6-48.4c3.9-21.7-6.5-28.2-6.5-28.2v-8h-16.6v205.6h0.8
			h11.8c3,0,6.6,0,10.8,0C261.2,253.4,259.7,232,259.7,232z"/>
		<path class="st4" d="M196.8,120.9c-0.2,0-0.4,0-0.5,0c-2.3-0.3-3.9-2.4-3.6-4.7c1.9-14.4,8.8-23.1,9.1-23.5
			c1.4-1.8,4.1-2.1,5.9-0.6c1.8,1.4,2.1,4.1,0.6,5.8c-0.1,0.1-5.8,7.4-7.4,19.3C200.6,119.3,198.8,120.9,196.8,120.9z"/>
	</g>
	<g>
		<path class="st0" d="M154.7,237c0,0,0-64.5,0-99.6S140.1,89,140.1,89c3.9-21.7-6.5-28.2-6.5-28.2V53h2.2c0,0,0-8.4,0-11.2
			c0-2.8-3.9-2.5-3.9-2.5h-14.3h-1.3h-14.3c0,0-3.9-0.3-3.9,2.5c0,2.8,0,11.2,0,11.2h2.3v7.8h-0.1c0,0-10.4,6.5-6.5,28.2
			c0,0-14.6,13.4-14.6,48.4s0,99.6,0,99.6s-1.5,21.4,14.3,21.4c4.3,0,7.8,0,10.8,0c8.1,0,11.8,0,11.8,0h0.7h0.8h0.1h11.7h0.1
			c3,0,6.5,0,10.8,0c0,0,0,0,0.1,0C156.2,258.4,154.7,237,154.7,237z"/>
		<path class="st1" d="M147.1,232c0,0,0-64.5,0-99.6c0-35.1-14.6-48.4-14.6-48.4c3.9-21.7-6.5-28.2-6.5-28.2v-8H93v8h-0.1
			c0,0-10.4,6.5-6.5,28.2c0,0-14.6,13.4-14.6,48.4c0,35.1,0,99.6,0,99.6s-1.5,21.4,14.3,21.4c4.3,0,7.8,0,10.8,0
			c8.1,0,11.8,0,11.8,0h1.6H122c3,0,6.6,0,10.8,0C148.6,253.4,147.1,232,147.1,232z"/>
		<path class="st2" d="M124.3,34.2h-14.3h-1.3H94.5c0,0-3.9-0.3-3.9,2.5s0,11.2,0,11.2h18.1h1.3h18.1c0,0,0-8.4,0-11.2
			S124.3,34.2,124.3,34.2z"/>
		<path class="st3" d="M147,232c0,0,0-64.5,0-99.6c0-35.1-14.6-48.4-14.6-48.4c3.9-21.7-6.5-28.2-6.5-28.2v-8h-16.6v205.6h0.8h11.8
			c3,0,6.6,0,10.8,0C148.5,253.4,147,232,147,232z"/>
		<path class="st4" d="M84,120.9c-0.2,0-0.4,0-0.5,0c-2.3-0.3-3.9-2.4-3.6-4.7c1.9-14.4,8.8-23.1,9.1-23.5c1.4-1.8,4.1-2.1,5.9-0.6
			c1.8,1.4,2.1,4.1,0.6,5.8c-0.1,0.1-5.8,7.4-7.4,19.3C87.9,119.3,86.1,120.9,84,120.9z"/>
	</g>
	<g>
		<circle class="st5" cx="109.4" cy="167.6" r="19.4"/>
		<circle class="st6" cx="93.9" cy="184.8" r="6.1"/>
		<path class="st7" d="M100.2,143.8c0,1.4-1.1,2.5-2.5,2.5c-1.4,0-2.5-1.1-2.5-2.5c0-1.4,1.1-2.5,2.5-2.5
			C99.1,141.3,100.2,142.4,100.2,143.8L100.2,143.8z"/>
		<path class="st8" d="M100.3,152.2c0,1.8-1.4,3.2-3.2,3.2c-1.8,0-3.2-1.4-3.2-3.2c0-1.8,1.4-3.2,3.2-3.2
			C98.9,149,100.3,150.4,100.3,152.2L100.3,152.2z"/>
		<path class="st8" d="M91.8,147.3c0,1-0.8,1.9-1.9,1.9c-1.1,0-1.9-0.8-1.9-1.9c0-1.1,0.8-1.9,1.9-1.9
			C90.9,145.4,91.8,146.2,91.8,147.3L91.8,147.3z"/>
		<g>
			<circle class="st6" cx="126" cy="149.9" r="10.7"/>
			<g>
				<path class="st4" d="M123.3,148.3c-0.9,0.1-1.1,1.2-1.2,1.9l0,0v0c0,0.1,0,0.2,0,0.3c0,0.3,0,0.6-0.1,0.9c0,0.1-0.1,0.4-0.1,0.4
					c-0.3,0-0.6-0.4-0.7-0.7c-0.2-0.5-0.4-1.1-0.5-1.7c-0.1-0.6-0.2-1.3-0.2-1.9c0-0.3,0-0.5,0-0.8c0-0.1,0-0.2,0-0.3
					c0-0.1,0-0.2,0-0.2c0.1-0.5-0.6,0-0.7,0.2c-0.7,1.2-0.5,2.7-0.5,4.1c0,0.4,0,0.7-0.1,1.1c0,0.2-0.1,0.7-0.3,0.9
					c-0.1,0.1-0.4,0-0.5,0c-0.2-0.1-0.3-0.3-0.3-0.5c0-0.2-0.3-0.1-0.4,0c-0.2,0.2-0.3,0.4-0.3,0.6c0.1,0.5,0.5,0.9,1,0.8
					c0.8-0.2,1.1-1.2,1.3-1.9c0.1-0.4,0.1-0.7,0.2-1.1c0.1,0.5,0.3,1.1,0.5,1.5c0.2,0.4,0.5,0.7,0.9,0.6c0.3-0.1,0.6-0.4,0.7-0.8
					c0.2,0.4,0.4,0.6,0.8,0.6c0.4,0,0.8-0.5,1-0.9c0.2-0.4,0.3-0.9,0.2-1.4C124.4,149.6,124.2,148.2,123.3,148.3z M123.6,151.4
					c0,0.1,0,0.2-0.1,0.3c-0.2,0-0.3-0.3-0.4-0.4c-0.1-0.3-0.2-0.6-0.2-0.9c0-0.3,0-0.7,0-1c0-0.1,0-0.2,0.1-0.3
					c0.4,0.3,0.5,0.8,0.6,1.3C123.7,150.7,123.7,151.1,123.6,151.4z"/>
				<path class="st4" d="M133.9,149.6c-1-0.4-1.5,0.9-1.7,1.7c-0.2,0.7-0.4,1.9,0.5,2.2c0.4,0.2,0.9-0.1,1.1-0.4
					c0.3-0.3,0.5-0.8,0.6-1.2C134.6,151.2,134.8,149.9,133.9,149.6z M133.4,152.7c0,0.1-0.1,0.2-0.1,0.2c-0.1-0.1-0.2-0.4-0.2-0.5
					c-0.1-0.3,0-0.7,0-1c0.1-0.3,0.2-0.7,0.3-0.9c0-0.1,0.1-0.1,0.1-0.2c0.4,0.4,0.3,1,0.2,1.5C133.6,152,133.5,152.4,133.4,152.7z"
					/>
				<path class="st4" d="M131.4,149.8c0.2-0.2,0.3-0.5,0.5-0.7c0.4-0.5,0.7-1.2,0.7-1.8c0-0.6-0.9-0.7-1.3-0.4
					c-0.6,0.3-1,0.9-1.1,1.6c-0.2,0.8-0.4,1.7-0.4,2.5c0,0,0,0,0,0c-0.3,0.4-0.9,1.1-1.4,0.8c-0.1-0.1-0.2-0.2-0.2-0.4
					c0.4-0.4,0.7-0.8,1.1-1.3c0.3-0.4,0.5-1.2-0.1-1.5c-0.5-0.3-1.1,0-1.4,0.4c-0.3,0.4-0.5,0.9-0.5,1.4c0,0.3-0.1,0.7,0,1.1
					c-0.3,0.2-0.6,0.3-1,0.2c-0.4-0.1-0.5-0.5-0.6-0.8c-0.1-0.4-0.1-0.9,0-1.4c0-0.1,0.1-0.3,0.1-0.4c0,0,0-0.1,0-0.1
					c0.2,0.1,0.3,0.4,0.4,0.6c0.1,0.3,0.9-0.2,0.8-0.5c-0.1-0.3-0.2-0.6-0.6-0.8c-0.3-0.2-0.8,0.1-1,0.3c-0.6,0.6-0.6,1.4-0.6,2.2
					c0,0.5,0.1,1.1,0.6,1.4c0.6,0.4,1.4,0,1.9-0.3c0.1,0.4,0.4,0.6,0.9,0.6c0.6-0.1,1.1-0.4,1.5-0.8c0,0.4,0.1,0.9,0.4,1.1
					c0.5,0.3,1.1,0,1.5-0.5c0.4-0.6,0.7-1.3,0.4-2C131.9,149.9,131.6,149.8,131.4,149.8z M128.1,149.4c0-0.1,0.1-0.2,0.1-0.3
					c0,0,0,0,0,0c0.2,0.1,0.3,0.4,0.2,0.5c0,0.4-0.3,0.7-0.6,1c0-0.1,0-0.1,0-0.2C128,150.1,128,149.7,128.1,149.4z M131.2,147.6
					c0.1-0.1,0.1-0.2,0.2-0.4c0,0,0,0,0,0c0.4,0.4,0,1-0.2,1.4c-0.2,0.4-0.4,0.8-0.7,1.1c0.1-0.4,0.1-0.7,0.2-1.1
					C130.9,148.3,131,148,131.2,147.6z M131,152c0,0-0.1,0.1-0.1,0.2c0,0-0.1,0-0.1,0c-0.2-0.1-0.3-0.6-0.3-0.8c0-0.2,0-0.4,0-0.5
					c0.1-0.1,0.2-0.2,0.3-0.3c0.2-0.1,0.4,0.1,0.4,0.3C131.3,151.2,131.2,151.7,131,152z"/>
			</g>
		</g>
		<g>
			<path class="st4" d="M91,184.5c0.2-0.2,0.4-0.5,0.6-0.8c0.1-0.1,0.2-0.2,0.3-0.4c0.1-0.1,0.1-0.1,0,0c0,0.2,0,0.4,0,0.6
				c0,1.1,0,2.1-0.1,3.2c0,0.4,0.7-0.1,0.7-0.4c0.1-0.7,0.1-1.4,0.1-2.1c0-0.3,0.2-1.9-0.1-2c-0.7-0.2-1.4,1.4-1.8,1.8
				C90.1,184.8,90.7,184.8,91,184.5L91,184.5z"/>
			<path class="st4" d="M96.4,183.1c-0.7,1.2-1.7,2.4-2.5,3.5c-0.4,0.5,0.2,0.5,0.5,0.1c0.9-1.2,1.9-2.4,2.7-3.7
				C97.3,182.5,96.6,182.8,96.4,183.1L96.4,183.1z"/>
			<path class="st4" d="M95.1,182.8c-0.5,0-0.8,0.4-0.9,0.9c-0.1,0.4,0.2,0.7,0.6,0.7C95.6,184.4,96.1,182.8,95.1,182.8
				c-0.2,0-0.6,0.5-0.3,0.5c0.2,0,0.3,0.2,0.4,0.4c0,0.1,0,0.2,0,0.2c0,0.1,0,0,0,0c0,0-0.1,0-0.1,0c-0.2,0-0.3-0.2-0.4-0.4
				c0-0.1,0-0.2,0-0.3c0-0.1,0,0,0,0c0,0,0.1,0,0.1,0C95,183.2,95.3,182.7,95.1,182.8z"/>
			<path class="st4" d="M96.3,185.4c-0.5,0-0.8,0.4-0.9,0.9c-0.1,0.4,0.2,0.7,0.6,0.7C96.9,187,97.3,185.4,96.3,185.4
				c-0.2,0-0.6,0.5-0.3,0.5c0.2,0,0.3,0.2,0.4,0.4c0,0.1,0,0.2,0,0.2c0,0.1,0,0,0,0c0,0-0.1,0-0.1,0c-0.2,0-0.3-0.2-0.4-0.4
				c0-0.1,0-0.2,0-0.3c0-0.1,0,0,0,0c0,0,0.1,0,0.1,0C96.3,185.9,96.6,185.4,96.3,185.4z"/>
		</g>
		<g>
			<g>
				<g>
					<path class="st4" d="M124.8,170.2c0.2-1,0.3-2.3-0.5-3.2c-0.4-0.5-1.2-0.4-1.7-0.3c0-0.4,0.1-0.8,0.1-1.3
						c0-0.4-0.7-0.3-0.9-0.2c-0.3,0.1-0.7,0.4-0.7,0.7c0,1.4-0.2,2.9-0.4,4.3c0,0,0,0,0,0c-0.1,0.4-0.3,1.1-0.7,1.3
						c-0.4,0.2-0.6-1.2-0.6-1.4c0-1.4,0.3-2.9,0.6-4.3c0.1-0.3-0.4-0.4-0.6-0.3c-0.4,0.1-0.8,0.3-0.9,0.7c-0.2,1.1-0.4,2.2-0.7,3.3
						c-0.1,0.5-0.3,0.9-0.5,1.4c0,0,0,0,0,0.1c-0.1,0-0.2-0.1-0.3-0.1c-0.7-0.4-0.6-1.9-0.5-2.4c0.1-0.9,0.3-1.9,0.7-2.7
						c0.1-0.3,0-0.5-0.4-0.5c-0.2,0-0.4,0.1-0.6,0.2c-0.1,0.1-0.4,0.2-0.4,0.2c-0.1,0-0.2,0.1-0.3,0.1c-0.8,0.3-1.4-0.1-1.8-0.7
						c0,0,0,0,0,0c-0.1-0.2-0.3-0.3-0.4-0.4c-0.6-0.3-1.2-0.1-1.8,0.1c0-0.4-0.1-0.8-0.1-1.3c-0.1-0.3-0.7-0.1-0.9,0
						c-0.3,0.2-0.6,0.5-0.6,0.8c-0.4,0-0.9,0.3-1.1,0.5c-0.9,0.7-1.2,1.9-1.2,3v0c-0.1,1-0.7,2.5-1.8,2.4c-0.2,0-0.5-0.4-0.6-0.6
						c0.4-0.5,0.7-1.1,1-1.6c0.6-0.9,1-2.3,0.3-3.2c-0.5-0.6-1.7-0.1-2.2,0.4c-0.7,0.7-0.9,1.6-0.9,2.4c0,0.6,0,1.6,0.3,2.5
						c-0.2,0.2-0.4,0.6-0.7,0.4c-0.2-0.1-0.3-0.4-0.4-0.7c-0.3-0.8-0.3-1.6-0.6-2.4c-0.5-1.1-1.6-1.1-2.7-0.6c-0.1-1-0.2-2,0.3-2.9
						c0.5-1.1,1.7-0.7,2.4-0.2c0.5,0.3,1.7-1,1.2-1.3c-0.7-0.5-1.5-0.9-2.5-0.5c-0.8,0.3-1.5,0.9-1.9,1.6c-0.1,0.1-0.2,0.2-0.2,0.4
						c-0.2-0.7-0.5-1.4-0.8-2.1c-0.1-0.3-0.6,0-0.7,0.1c-1.5,1-4,3.2-3,5.2c0.2,0.5,1.4-0.9,1.2-1.4c-0.4-0.8,0.5-1.7,1.3-2.4
						c0.6,1.7,1.1,3.4,1.5,5.1c0.2,1.1,0.4,2.3-0.1,3.2c-0.5,1-1.8,0.4-2-0.4c-0.1-0.7-1.2,0.7-1.1,1.1c0.1,0.6,0.4,1,1,1.3
						c0.5,0.2,1.1-0.1,1.6-0.4c1.2-0.8,1.9-2.1,2-3.5c0.1-0.6,0-1.1,0-1.7c0.4-0.1,0.8-0.1,1,0.3c0.6,0.6,0.6,1.7,0.8,2.5
						c0.2,0.6,0.4,1.3,1.2,1.2c0.6-0.1,1.1-0.5,1.5-1c0.3,0.3,0.6,0.6,1,0.6c0.8,0.1,1.7-0.6,2.2-1c0.2-0.2,0.4-0.4,0.6-0.6
						c0.1,0.4,0.3,0.7,0.6,1c0.3,0.3,0.8,0.4,1.2,0.4c0.2,0,0.4-0.1,0.5-0.1c-0.1,1.3-0.1,2.7-0.3,4c0,0.4,0.4,0.3,0.6,0.2
						c0.3-0.2,0.6-0.5,0.7-0.8c0.1-1.1,0.2-2.1,0.3-3.2c0.5,0,1.1-0.2,1.5-0.5c1-0.8,1.3-2.1,1.3-3.3c0-0.2,0-0.4,0-0.7
						c0.4,0,0.9-0.1,1.3-0.2c-0.3,0.8-0.4,1.7-0.5,2.6c0,0.9,0,2.3,1.2,2.6c0.8,0.2,1.4-0.1,1.9-0.5c0,0.2,0.1,0.3,0.2,0.5
						c0.4,1,1.4,0.7,2.1,0.4c-0.3,1.4-0.6,2.9-1,4.3c-0.1,0.3,0.3,0.4,0.5,0.3c0.3-0.1,0.7-0.3,0.8-0.6c0.3-1,0.6-2.1,0.8-3.1
						c0.5,0.1,1,0.1,1.5-0.1C124.1,172.5,124.6,171.3,124.8,170.2z M104.5,167.5c0-0.5,0-1.1,0.2-1.6c0.1,0,0.2,0,0.3,0.1
						c0.7,0.4,0.2,1.5,0,2c-0.1,0.2-0.2,0.4-0.3,0.6C104.6,168.2,104.5,167.8,104.5,167.5z M110,170.1c-0.1,0-0.2,0-0.2-0.1
						c-0.2-0.1-0.4-0.4-0.5-0.6c-0.3-0.7-0.4-1.4-0.4-2.1c0-0.6,0.1-1.2,0.4-1.8c0,0,0.1,0.1,0.1,0.1c0.5,0.3,0.7,1,0.8,1.5l0,0
						C110.1,168.1,110.1,169.1,110,170.1C110.1,170.1,110,170.1,110,170.1C110,170.1,110,170.1,110,170.1z M112.3,170.1
						C112.3,170.1,112.3,170.2,112.3,170.1C112.3,170.2,112.3,170.2,112.3,170.1c-0.6,0.1-0.9-0.3-0.9-0.7c0,0,0,0,0,0
						c0-1,0.1-2,0-3c0-0.5,0.1-0.7,0.1-0.7c0.1,0,0.4,0.1,0.5,0.3c0.5,0.6,0.5,1.4,0.6,2C112.7,168.7,112.7,169.5,112.3,170.1z
						 M122.6,172.2C122.6,172.3,122.6,172.3,122.6,172.2C122.6,172.3,122.6,172.3,122.6,172.2c-0.6,0-0.8-0.6-0.7-1
						c0,0,0.4-1.8,0.5-2.8c0-0.1,0.2-0.6,0.3-0.8c0,0,0,0,0,0c0,0,0,0,0,0c0.2,0,0.3,0.2,0.4,0.4c0.3,0.7,0.3,1.5,0.2,2.2
						C123.3,170.9,123.1,171.7,122.6,172.2z"/>
				</g>
			</g>
		</g>
		<g>
			<path class="st9" d="M85.9,159.4c-0.1,0-0.2-0.2-0.3-0.2c-0.4-0.1-0.7,0.1-1.1,0.1c-0.9,0-1.3,0-2.4-0.3c0-1,0.5-1.5,0.8-2.3
				c0.2-0.7-0.1-1.4-0.1-2.2c0-0.5,0-0.9,0-1.4c-0.3,0.3-0.2,1.2-0.2,1.6c-0.1-0.6-0.1-1.3-0.3-1.8c-0.1,0.5,0,1.3,0,1.8
				c-0.2-0.5-0.2-1.1-0.4-1.6c-0.3,0.5,0.2,1.3,0.1,1.8c-0.2-0.5-0.3-1-0.5-1.4c-0.1,0.6,0.2,1.1,0.2,1.6c-0.2-0.4-0.3-0.8-0.6-1.1
				c0,0.4,0.3,0.9,0.4,1.3c-0.3-0.1-0.3-0.4-0.6-0.6c0,0.3,0.3,0.5,0.4,0.7c-0.2-0.1-0.3-0.3-0.5-0.4c0,0.3,0.3,0.4,0.3,0.6
				c-0.1-0.1-0.2-0.2-0.4-0.3c0,0.2,0.3,0.4,0.3,0.5c0,0-0.2-0.1-0.2,0c0,0,0.2,0.1,0.1,0.2c-0.1,0-0.1,0-0.2,0
				c0,0.2,0.2,0.1,0.1,0.3c-0.1,0-0.1-0.1-0.1,0c0,0.1,0.1,0.1,0.1,0.2c-0.8,0.8-0.4,1.7-0.4,2.7c0.1-0.1-0.7-0.3-1.2-0.5
				c-0.3-0.1-0.4-0.5-0.6-0.6c0-0.1,0.1,0,0.1-0.1c-0.1,0-0.2-0.1-0.2-0.2c0.1,0,0.3,0.1,0.3,0c-0.1-0.1-0.5-0.2-0.4-0.3
				c0.2,0,0.4,0.1,0.5,0.1c-0.2-0.1-0.6-0.3-0.6-0.5c0.2,0.1,0.5,0.3,0.7,0.2c-0.3-0.2-0.8-0.4-0.9-0.7c0.2,0.1,0.6,0.4,0.8,0.4
				c-0.4-0.1-0.7-0.6-1.1-0.6c0.2,0.4,0.8,0.6,0.9,0.8c-0.3-0.2-0.6-0.3-0.9-0.5c0.1,0.4,0.6,0.5,0.8,0.7c-0.3,0-0.5-0.2-0.8-0.2
				c0.1,0.3,0.6,0.2,0.7,0.5c-0.1-0.1-0.3,0-0.5,0c0,0.2,0.3,0.2,0.5,0.3c-0.2,0-0.3,0-0.4,0.1c0.1,0.1,0.3,0.1,0.4,0.2
				c-0.1,0-0.2,0-0.2,0.1c0,0.1,0.2,0,0.3,0.1c-0.1,0-0.1,0.1-0.1,0.1c0.1,0,0.2,0,0.2,0c-0.1,0-0.1,0-0.1,0.1
				c0.4,0.2,0.7,0.9,1.2,1.1c-0.3,0.2,0.3,0.4-3.4,1.7c0.1,0,1.6-0.4,2.1-0.5c0.5-0.2,0.9-0.3,1.4-0.4c0.1,0,0.2-0.1,0.3-0.1
				c0.8-0.1,1.5,0.1,2.2-0.4c-0.6,0.1-1.6,0.2-2-0.1c0.5-0.8,0.2-2.8,0.5-3.2c0.4-0.4,1-1.7,1.8-0.6c0.1,0.2,0.1,0.4-0.1,0.9
				c-0.3,0.6-0.6,0.8-0.5,2c0,0.2,0,0.5-0.4,0.5c1.6,0.3,2.1,0.2,3,0c0.3,0,0.8-0.3,0.8,0c0,0.1-0.3,0.1-0.6,0.1
				c-0.4,0,0.2,0.2,0.4,0.1c0.1,0,1-0.1,1.4-0.2C86.3,159.5,86.1,159.5,85.9,159.4z"/>
			<path class="st9" d="M81.1,151.1c-3.7,0-6.7,3-6.7,6.7c0,3.7,3,6.7,6.7,6.7c3.7,0,6.7-3,6.7-6.7
				C87.8,154.1,84.8,151.1,81.1,151.1 M81.1,151.3c3.6,0,6.5,2.9,6.5,6.5c0,3.6-2.9,6.5-6.5,6.5c-3.6,0-6.5-2.9-6.5-6.5
				C74.6,154.2,77.5,151.3,81.1,151.3"/>
		</g>
	</g>
	<g>
		<circle class="st10" cx="224.4" cy="167.4" r="21.1"/>
		<circle class="st6" cx="207.6" cy="186.1" r="6.6"/>
		<path class="st11" d="M214.4,141.6c0,1.5-1.2,2.7-2.7,2.7c-1.5,0-2.7-1.2-2.7-2.7c0-1.5,1.2-2.7,2.7-2.7
			C213.2,138.9,214.4,140.1,214.4,141.6L214.4,141.6z"/>
		<path class="st8" d="M214.5,150.6c0,1.9-1.5,3.5-3.5,3.5c-1.9,0-3.5-1.5-3.5-3.5c0-1.9,1.6-3.5,3.5-3.5
			C213,147.2,214.5,148.7,214.5,150.6L214.5,150.6z"/>
		<path class="st8" d="M205.3,145.3c0,1.1-0.9,2.1-2.1,2.1c-1.1,0-2.1-0.9-2.1-2.1c0-1.1,0.9-2.1,2.1-2.1
			C204.3,143.2,205.3,144.2,205.3,145.3L205.3,145.3z"/>
		<g>
			<circle class="st6" cx="242.4" cy="148.1" r="11.6"/>
			<g>
				<path class="st4" d="M239.5,146.5c-1,0.1-1.2,1.3-1.3,2l0,0v0c0,0.1,0,0.2,0,0.3c0,0.4,0,0.7-0.1,1c0,0.2-0.1,0.5-0.1,0.5
					c-0.3,0-0.6-0.5-0.7-0.7c-0.2-0.6-0.4-1.2-0.5-1.8c-0.1-0.7-0.2-1.4-0.2-2.1c0-0.3,0-0.6,0-0.8c0-0.1,0-0.2,0-0.3
					c0-0.1,0-0.2,0-0.2c0.1-0.5-0.6,0-0.8,0.2c-0.8,1.3-0.5,2.9-0.5,4.4c0,0.4,0,0.8-0.1,1.2c0,0.3-0.1,0.8-0.3,1
					c-0.1,0.1-0.4,0-0.5,0c-0.2-0.1-0.3-0.3-0.3-0.5c0-0.2-0.3-0.1-0.4,0c-0.2,0.2-0.3,0.5-0.3,0.7c0.1,0.5,0.6,1,1.1,0.8
					c0.9-0.3,1.2-1.3,1.4-2.1c0.1-0.4,0.2-0.8,0.2-1.2c0.1,0.6,0.3,1.1,0.6,1.7c0.2,0.4,0.5,0.8,1,0.7c0.4-0.1,0.6-0.5,0.8-0.9
					c0.2,0.4,0.4,0.7,0.9,0.6c0.5,0,0.9-0.6,1.1-0.9c0.2-0.5,0.3-1,0.3-1.5C240.7,147.8,240.5,146.4,239.5,146.5z M239.8,149.8
					c0,0.1,0,0.2-0.1,0.3c-0.2,0-0.3-0.3-0.4-0.4c-0.2-0.3-0.2-0.7-0.3-1c0-0.4,0-0.7,0-1.1c0-0.1,0-0.2,0.1-0.3
					c0.5,0.3,0.6,0.9,0.6,1.4C239.9,149.1,239.9,149.5,239.8,149.8z"/>
				<path class="st4" d="M251.1,147.8c-1-0.4-1.6,1-1.8,1.8c-0.2,0.7-0.4,2,0.5,2.4c0.4,0.2,1-0.1,1.2-0.4c0.3-0.4,0.5-0.8,0.6-1.3
					C251.8,149.6,252,148.2,251.1,147.8z M250.5,151.2c0,0.1-0.1,0.2-0.1,0.2c-0.2-0.1-0.2-0.4-0.2-0.6c-0.1-0.4,0-0.7,0-1.1
					c0.1-0.4,0.2-0.7,0.3-1c0-0.1,0.1-0.2,0.1-0.2c0.4,0.5,0.3,1.1,0.2,1.6C250.7,150.5,250.6,150.9,250.5,151.2z"/>
				<path class="st4" d="M248.3,148c0.2-0.3,0.4-0.5,0.6-0.8c0.4-0.6,0.8-1.3,0.7-2c0-0.7-0.9-0.7-1.4-0.5c-0.7,0.3-1,1-1.2,1.7
					c-0.3,0.9-0.4,1.8-0.4,2.7c0,0,0,0,0,0c-0.3,0.4-1,1.2-1.5,0.9c-0.1-0.1-0.2-0.3-0.3-0.4c0.4-0.5,0.8-0.9,1.1-1.4
					c0.3-0.5,0.5-1.3-0.1-1.6c-0.5-0.3-1.1,0-1.5,0.5c-0.3,0.4-0.5,0.9-0.5,1.5c0,0.3-0.1,0.8,0,1.2c-0.3,0.2-0.7,0.3-1,0.2
					c-0.4-0.1-0.5-0.5-0.6-0.8c-0.1-0.5-0.1-1,0-1.5c0-0.1,0.1-0.3,0.1-0.4c0,0,0-0.1,0-0.1c0.2,0.1,0.4,0.5,0.4,0.7
					c0.1,0.3,1-0.2,0.9-0.5c-0.1-0.3-0.2-0.7-0.6-0.9c-0.4-0.2-0.9,0.1-1.1,0.4c-0.6,0.6-0.7,1.6-0.7,2.4c0,0.5,0.1,1.2,0.6,1.5
					c0.6,0.4,1.5,0,2.1-0.3c0.2,0.4,0.5,0.7,1,0.6c0.6-0.1,1.2-0.4,1.6-0.9c0,0.5,0.1,1,0.5,1.2c0.5,0.3,1.2,0,1.6-0.5
					c0.5-0.6,0.7-1.4,0.5-2.2C248.9,148.2,248.6,148,248.3,148z M244.8,147.6c0-0.1,0.1-0.3,0.2-0.4c0,0,0,0,0,0
					c0.2,0.1,0.3,0.4,0.3,0.6c-0.1,0.4-0.3,0.8-0.6,1.1c0-0.1,0-0.1,0-0.2C244.6,148.4,244.6,148,244.8,147.6z M248.1,145.7
					c0.1-0.1,0.2-0.3,0.3-0.4c0,0,0,0,0,0c0.4,0.5,0,1.1-0.2,1.5c-0.2,0.4-0.5,0.8-0.8,1.2c0.1-0.4,0.1-0.8,0.2-1.2
					C247.8,146.5,247.9,146.1,248.1,145.7z M247.9,150.5c0,0-0.1,0.1-0.1,0.2c0,0-0.1,0-0.1,0c-0.3-0.1-0.3-0.7-0.3-0.9
					c0-0.2,0-0.4,0-0.6c0.1-0.1,0.2-0.2,0.3-0.4c0.2-0.2,0.4,0.1,0.4,0.4C248.2,149.6,248.1,150.1,247.9,150.5z"/>
			</g>
		</g>
		<g>
			<path class="st4" d="M203.1,185.1c0.2-0.6,0.7-0.2,0.9,0.1c0.2,0.5,0,0.9-0.3,1.3c-0.2,0.3-0.5,0.6-0.9,0.8
				c-0.2,0.1-0.3,0.2-0.4,0.4c0,0.1-0.1,0.2,0,0.3c0.2,0.2,0.7,0.2,1,0.2c0.5,0,1,0,1.5-0.2c0.3-0.1,0.5-0.7,0-0.5
				c-0.4,0.2-0.8,0.1-1.2,0.1c-0.2,0-0.6,0-0.8-0.1c0,0.1,0,0.2,0,0.3c-0.2,0.4-0.1,0.2,0.1,0.1c0.1-0.1,0.3-0.2,0.4-0.3
				c0.2-0.2,0.5-0.4,0.7-0.7c0.4-0.5,0.7-1.1,0.5-1.7c-0.3-1.4-1.8-0.4-2.1,0.4C202.4,185.7,203,185.3,203.1,185.1L203.1,185.1z"/>
			<path class="st4" d="M206.8,187.4c0.5,1.6,2.9,0.5,2.5-0.9c-0.2-0.7-1-0.6-1.6-0.8c-0.3-0.1-0.3-0.4-0.3-0.6
				c0.1-0.3,0.1-0.4-0.1-0.2c0.1,0,0.2-0.1,0.3-0.1c0.5-0.1,1-0.1,1.5,0.2c0.2,0.1,0.7-0.4,0.4-0.6c-0.6-0.3-1.3-0.2-1.9-0.1
				c-0.6,0.1-0.7,0.7-0.8,1.2c0,0.7,0.6,0.8,1.1,0.9c0.4,0.1,0.8,0.2,0.8,0.6c0.1,0.7-0.7,0.7-1.1,0.4c-0.2-0.1-0.3-0.3-0.3-0.5
				C207.3,186.7,206.7,187.2,206.8,187.4L206.8,187.4z"/>
			<g>
				<path class="st4" d="M212.4,184.5c-0.7,1.1-1.5,2.2-2.3,3.2c-0.3,0.5,0.2,0.4,0.4,0.1c0.8-1.1,1.7-2.2,2.4-3.4
					C213.2,184,212.5,184.3,212.4,184.5L212.4,184.5z"/>
				<path class="st4" d="M211.1,184.2c-0.4,0-0.7,0.4-0.8,0.8c-0.1,0.4,0.1,0.7,0.5,0.7C211.6,185.7,212,184.3,211.1,184.2
					c-0.2,0-0.5,0.4-0.2,0.4c0.2,0,0.3,0.2,0.3,0.4c0,0.1,0,0.2,0,0.2c0,0.1,0,0,0,0c0,0-0.1,0-0.1,0c-0.2,0-0.3-0.2-0.3-0.3
					c0-0.1,0-0.2,0-0.2c0,0,0,0,0,0c0,0,0.1,0,0.1,0C211.1,184.7,211.4,184.2,211.1,184.2z"/>
				<path class="st4" d="M212.3,186.6c-0.4,0-0.7,0.4-0.8,0.8c-0.1,0.4,0.1,0.7,0.5,0.7C212.8,188.1,213.2,186.7,212.3,186.6
					c-0.2,0-0.5,0.4-0.2,0.4c0.2,0,0.3,0.2,0.3,0.4c0,0.1,0,0.2,0,0.2c0,0.1,0,0,0,0c0,0-0.1,0-0.1,0c-0.2,0-0.3-0.2-0.3-0.3
					c0-0.1,0-0.2,0-0.2c0,0,0,0,0,0c0,0,0.1,0,0.1,0C212.2,187.1,212.5,186.6,212.3,186.6z"/>
			</g>
			<path class="st4" d="M205.8,188.9c0.3-0.3,0.5-0.7,0.6-1c0-0.1,0-0.3-0.1-0.4c-0.1-0.1-0.4,0-0.5,0c-0.2,0.1-0.3,0.3-0.4,0.5
				c0,0.2,0.2,0.2,0.3,0.1c0,0,0,0,0,0c0,0,0,0,0,0c0,0.1,0,0.1,0,0.2c0,0.1-0.1,0.2-0.1,0.2c0,0,0,0,0,0.1c0,0,0,0,0,0
				c0,0,0,0,0,0.1c0.1-0.1,0,0,0,0c-0.1,0.1-0.3,0.3-0.2,0.4C205.5,189.1,205.8,189,205.8,188.9L205.8,188.9z"/>
		</g>
		<g>
			<g>
				<g>
					<path class="st4" d="M241.4,170.2c0.2-1.1,0.3-2.5-0.5-3.4c-0.4-0.5-1.3-0.5-1.9-0.3c0-0.5,0.1-0.9,0.1-1.4
						c0-0.4-0.8-0.3-0.9-0.2c-0.4,0.1-0.8,0.4-0.8,0.8c-0.1,1.5-0.2,3.1-0.4,4.7c0,0,0,0,0,0c-0.1,0.5-0.3,1.2-0.8,1.4
						c-0.5,0.2-0.7-1.3-0.7-1.5c0-1.6,0.3-3.1,0.6-4.7c0.1-0.4-0.4-0.4-0.7-0.4c-0.4,0.1-0.9,0.4-1,0.7c-0.2,1.2-0.4,2.4-0.7,3.5
						c-0.1,0.5-0.3,1-0.6,1.5c0,0,0,0,0,0.1c-0.1,0-0.2-0.1-0.3-0.1c-0.8-0.5-0.6-2-0.5-2.7c0.1-1,0.4-2,0.8-3
						c0.1-0.3,0-0.5-0.5-0.5c-0.2,0-0.5,0.1-0.7,0.2c-0.1,0.1-0.4,0.3-0.5,0.3c-0.1,0.1-0.2,0.1-0.4,0.1c-0.9,0.3-1.5-0.1-2-0.7
						c0,0,0,0,0,0c-0.1-0.2-0.3-0.3-0.5-0.4c-0.6-0.4-1.3-0.1-1.9,0.1c0-0.5-0.1-0.9-0.2-1.4c-0.1-0.4-0.8-0.1-1,0
						c-0.3,0.2-0.7,0.5-0.7,0.9c-0.5,0.1-0.9,0.3-1.2,0.6c-0.9,0.8-1.3,2-1.3,3.3v0c-0.1,1.1-0.7,2.7-2,2.6c-0.3,0-0.5-0.4-0.7-0.7
						c0.4-0.6,0.8-1.2,1.1-1.7c0.6-1,1.1-2.5,0.3-3.5c-0.5-0.6-1.8-0.1-2.4,0.5c-0.8,0.7-1,1.7-1,2.6c0,0.6,0,1.8,0.3,2.7
						c-0.2,0.3-0.5,0.6-0.8,0.4c-0.3-0.1-0.4-0.5-0.4-0.7c-0.3-0.8-0.3-1.8-0.6-2.6c-0.5-1.2-1.7-1.2-2.9-0.7
						c-0.2-1-0.2-2.2,0.3-3.2c0.5-1.2,1.8-0.7,2.6-0.2c0.5,0.3,1.9-1,1.3-1.4c-0.7-0.5-1.7-0.9-2.7-0.5c-0.9,0.3-1.6,1-2.1,1.7
						c-0.1,0.1-0.2,0.3-0.3,0.4c-0.3-0.8-0.5-1.6-0.8-2.3c-0.1-0.3-0.6,0-0.8,0.1c-1.6,1.1-4.3,3.5-3.3,5.7c0.2,0.5,1.5-1,1.3-1.5
						c-0.4-0.8,0.5-1.9,1.5-2.6c0.6,1.8,1.2,3.7,1.6,5.5c0.3,1.1,0.5,2.5-0.1,3.5c-0.6,1.1-2,0.4-2.2-0.5c-0.1-0.8-1.3,0.7-1.2,1.2
						c0.1,0.6,0.5,1.1,1.1,1.4c0.6,0.2,1.2-0.1,1.8-0.4c1.3-0.8,2-2.3,2.2-3.8c0.1-0.6,0-1.2,0-1.9c0.4-0.1,0.8-0.1,1.1,0.3
						c0.6,0.7,0.6,1.8,0.9,2.7c0.2,0.6,0.5,1.4,1.3,1.3c0.7-0.1,1.2-0.6,1.7-1.1c0.3,0.4,0.6,0.6,1.1,0.7c0.9,0.1,1.8-0.6,2.4-1.1
						c0.2-0.2,0.4-0.4,0.6-0.7c0.1,0.4,0.4,0.8,0.6,1.1c0.3,0.4,0.8,0.5,1.4,0.4c0.2,0,0.4-0.1,0.6-0.2c-0.1,1.5-0.2,2.9-0.3,4.4
						c0,0.4,0.4,0.3,0.6,0.2c0.3-0.2,0.7-0.5,0.7-0.9c0.2-1.2,0.3-2.3,0.3-3.5c0.5,0,1.2-0.2,1.6-0.5c1.1-0.9,1.4-2.3,1.4-3.6
						c0-0.2,0-0.5,0-0.8c0.5,0,1-0.1,1.4-0.2c-0.3,0.9-0.5,1.9-0.5,2.8c0,0.9,0,2.5,1.3,2.9c0.8,0.2,1.5-0.1,2.1-0.6
						c0,0.2,0.1,0.4,0.2,0.5c0.4,1,1.6,0.8,2.3,0.5c-0.3,1.6-0.7,3.1-1.1,4.7c-0.1,0.4,0.3,0.4,0.6,0.4c0.4-0.1,0.7-0.3,0.9-0.7
						c0.3-1.1,0.6-2.2,0.9-3.4c0.5,0.2,1.1,0.1,1.6-0.1C240.6,172.8,241.1,171.4,241.4,170.2z M219.3,167.2c0-0.6,0-1.1,0.2-1.7
						c0.1,0,0.2,0,0.3,0.1c0.7,0.4,0.2,1.6,0,2.2c-0.1,0.2-0.2,0.5-0.3,0.7C219.4,168.1,219.3,167.7,219.3,167.2z M225.2,170.1
						c-0.1,0-0.2,0-0.3-0.1c-0.3-0.1-0.4-0.4-0.6-0.6c-0.4-0.7-0.5-1.5-0.4-2.3c0-0.6,0.1-1.3,0.4-1.9c0.1,0,0.1,0.1,0.1,0.1
						c0.5,0.4,0.8,1.1,0.8,1.7l0,0C225.3,168,225.4,169.1,225.2,170.1C225.3,170.1,225.3,170.1,225.2,170.1
						C225.3,170.1,225.3,170.1,225.2,170.1z M227.8,170.1C227.8,170.2,227.8,170.2,227.8,170.1c-0.1,0.1-0.1,0.1-0.1,0.1
						c-0.6,0-0.9-0.4-0.9-0.9c0,0,0,0,0,0c0-1.1,0.1-2.2,0-3.3c0-0.6,0.2-0.8,0.2-0.8c0.1,0,0.4,0.1,0.6,0.3
						c0.5,0.6,0.6,1.5,0.6,2.2C228.2,168.5,228.2,169.5,227.8,170.1z M239,172.5C239,172.5,239,172.5,239,172.5
						c-0.1,0.1-0.1,0.1-0.1,0.1c-0.6-0.1-0.7-0.7-0.7-1.2c0,0,0.4-2,0.5-3c0-0.1,0.2-0.7,0.3-0.9c0,0,0,0,0,0c0,0,0,0,0,0
						c0.2,0,0.3,0.3,0.5,0.5c0.4,0.7,0.3,1.7,0.2,2.4C239.7,171,239.5,171.9,239,172.5z"/>
				</g>
			</g>
		</g>
		<g>
			<path class="st9" d="M198.8,158.5c-0.1,0-0.2-0.2-0.3-0.2c-0.4-0.2-0.8,0.1-1.2,0.1c-1,0-1.4,0-2.6-0.4c0-1.1,0.6-1.7,0.9-2.5
				c0.2-0.7-0.1-1.5-0.1-2.4c0-0.5,0-1,0-1.5c-0.3,0.3-0.2,1.3-0.2,1.7c-0.2-0.6-0.1-1.4-0.3-2c-0.2,0.6,0,1.4,0,2
				c-0.2-0.6-0.2-1.2-0.4-1.7c-0.3,0.6,0.2,1.4,0.1,1.9c-0.2-0.5-0.3-1.1-0.6-1.5c-0.1,0.7,0.2,1.2,0.2,1.7
				c-0.2-0.4-0.3-0.9-0.6-1.2c0,0.4,0.3,1,0.4,1.4c-0.3-0.1-0.4-0.5-0.7-0.6c0.1,0.3,0.3,0.5,0.4,0.8c-0.2-0.1-0.3-0.3-0.5-0.4
				c0,0.3,0.3,0.4,0.3,0.7c-0.1-0.1-0.3-0.2-0.4-0.3c0,0.2,0.3,0.4,0.3,0.5c0,0-0.2-0.1-0.2,0c0.1,0,0.2,0.2,0.1,0.2
				c-0.1,0-0.2,0-0.2,0c0,0.2,0.2,0.1,0.1,0.3c-0.1,0-0.1-0.1-0.1,0c0,0.1,0.1,0.1,0.1,0.2c-0.9,0.9-0.4,1.9-0.5,2.9
				c0.1-0.1-0.7-0.3-1.3-0.5c-0.3-0.1-0.4-0.5-0.6-0.6c0-0.1,0.1,0,0.1-0.1c-0.1,0-0.2-0.1-0.2-0.2c0.1,0,0.3,0.1,0.3,0
				c-0.2-0.1-0.6-0.2-0.5-0.3c0.2,0,0.4,0.1,0.6,0.1c-0.2-0.1-0.7-0.3-0.7-0.5c0.2,0.1,0.5,0.3,0.8,0.2c-0.4-0.2-0.9-0.5-1-0.7
				c0.3,0.1,0.6,0.5,0.9,0.4c-0.4-0.1-0.8-0.6-1.2-0.6c0.2,0.4,0.8,0.6,1,0.9c-0.3-0.2-0.7-0.3-1-0.5c0.1,0.4,0.6,0.5,0.9,0.8
				c-0.3,0-0.5-0.2-0.8-0.2c0.1,0.3,0.6,0.3,0.8,0.5c-0.1-0.1-0.4,0-0.5,0c0,0.2,0.4,0.2,0.5,0.3c-0.2,0-0.3,0-0.4,0.1
				c0.1,0.1,0.4,0.1,0.4,0.2c-0.1,0-0.2,0-0.2,0.1c0,0.1,0.3,0,0.3,0.1c-0.1,0-0.1,0.1-0.1,0.1c0.1,0,0.2,0,0.2,0
				c-0.1,0-0.1,0.1-0.1,0.1c0.5,0.2,0.7,1,1.4,1.2c-0.4,0.3,0.3,0.5-3.7,1.9c0.1,0,1.8-0.4,2.3-0.6c0.5-0.2,1-0.3,1.5-0.5
				c0.1,0,0.2-0.1,0.4-0.1c0.8-0.1,1.6,0.1,2.4-0.5c-0.6,0.1-1.7,0.2-2.1-0.1c0.6-0.9,0.2-3,0.6-3.5c0.5-0.4,1.1-1.8,2-0.6
				c0.1,0.2,0.2,0.5-0.1,1c-0.4,0.6-0.6,0.9-0.5,2.2c0,0.3,0,0.6-0.4,0.5c1.8,0.4,2.3,0.2,3.3,0c0.3,0,0.8-0.3,0.9,0
				c0,0.1-0.3,0.1-0.6,0.1c-0.5,0,0.2,0.2,0.4,0.2c0.1,0,1-0.1,1.5-0.2C199.4,158.6,199.1,158.6,198.8,158.5z"/>
			<path class="st9" d="M193.7,149.4c-4,0-7.3,3.3-7.3,7.3c0,4,3.3,7.3,7.3,7.3c4,0,7.3-3.3,7.3-7.3
				C201,152.7,197.7,149.4,193.7,149.4 M193.7,149.7c3.9,0,7,3.2,7,7c0,3.9-3.2,7-7,7c-3.9,0-7-3.2-7-7
				C186.6,152.9,189.8,149.7,193.7,149.7"/>
		</g>
	</g>
</g>
</svg>
