<?xml version="1.0" encoding="utf-8"?>
<!-- Generator: Adobe Illustrator 19.0.0, SVG Export Plug-In . SVG Version: 6.00 Build 0)  -->
<svg version="1.1" id="Layer_1" xmlns="http://www.w3.org/2000/svg" xmlns:xlink="http://www.w3.org/1999/xlink" x="0px" y="0px"
	 viewBox="0 0 130 250" style="enable-background:new 0 0 130 250;" xml:space="preserve">
<style type="text/css">
	.st0{fill:#519E38;}
	.st1{fill:#F4F4F4;}
	.st2{fill:#D6D6D6;}
	.st3{fill:#EAEAEA;}
	.st4{fill:#FFFFFF;}
	.st5{fill:#00AA55;}
	.st6{fill:#62BA47;}
	.st7{fill:#63B746;}
</style>
<g id="Layer_2">
</g>
<g id="kolba_4">
</g>
<g id="kolba_3">
</g>
<g id="kolby">
</g>
<g id="doma">
</g>
<g id="car">
</g>
<g id="butylka_3">
</g>
<g id="butylka_1">
</g>
<g id="vanna_2">
</g>
<g id="vanna_1">
</g>
<g id="zakvaska">
</g>
<g id="shariki_2">
</g>
<g id="shariki_1">
</g>
<g id="voronka">
</g>
<g id="gradusnik">
</g>
<g id="kolba_2">
</g>
<g id="kolba_1">
</g>
<g id="probirki">
</g>
<g id="lupa">
</g>
<g id="bidon">
</g>
<g id="blank">
</g>
<g id="ticks">
</g>
<g id="clock">
</g>
<g>
	<path class="st0" d="M105.7,215c0,0,0-64.5,0-99.6S91.1,67,91.1,67c3.9-21.7-6.5-28.2-6.5-28.2V31h2.2c0,0,0-8.4,0-11.2
		s-3.9-2.5-3.9-2.5H68.6h-1.3H53c0,0-3.9-0.3-3.9,2.5s0,11.2,0,11.2h2.3v7.8h-0.1c0,0-10.4,6.5-6.5,28.2c0,0-14.6,13.4-14.6,48.4
		s0,99.6,0,99.6s-1.5,21.4,14.3,21.4c4.3,0,7.8,0,10.8,0c8.1,0,11.8,0,11.8,0h0.7h0.8h0.1h11.7h0.1c3,0,6.5,0,10.8,0c0,0,0,0,0.1,0
		C107.2,236.4,105.7,215,105.7,215z"/>
	<path class="st1" d="M98.1,210c0,0,0-64.5,0-99.6S83.5,62,83.5,62C87.4,40.3,77,33.8,77,33.8v-8H44v8h-0.1c0,0-10.4,6.5-6.5,28.2
		c0,0-14.6,13.4-14.6,48.4c0,35.1,0,99.6,0,99.6s-1.5,21.4,14.3,21.4c4.3,0,7.8,0,10.8,0c8.1,0,11.8,0,11.8,0h1.6H73
		c3,0,6.6,0,10.8,0C99.6,231.4,98.1,210,98.1,210z"/>
	<path class="st2" d="M75.3,12.2H61h-1.3H45.5c0,0-3.9-0.3-3.9,2.5s0,11.2,0,11.2h18.1H61h18.1c0,0,0-8.4,0-11.2
		S75.3,12.2,75.3,12.2z"/>
	<path class="st3" d="M98,210c0,0,0-64.5,0-99.6S83.4,62,83.4,62c3.9-21.7-6.5-28.2-6.5-28.2v-8H60.3v205.6h0.8h11.8
		c3,0,6.6,0,10.8,0C99.5,231.4,98,210,98,210z"/>
	<path class="st4" d="M35,98.9c-0.2,0-0.4,0-0.5,0c-2.3-0.3-3.9-2.4-3.6-4.7c1.9-14.4,8.8-23.1,9.1-23.5c1.4-1.8,4.1-2.1,5.9-0.6
		c1.8,1.4,2.1,4.1,0.6,5.8c-0.1,0.1-5.8,7.4-7.4,19.3C38.9,97.3,37.1,98.9,35,98.9z"/>
</g>
<g>
	<circle class="st5" cx="60.4" cy="145.6" r="19.4"/>
	<circle class="st6" cx="44.9" cy="162.8" r="6.1"/>
	<path class="st5" d="M51.2,121.8c0,1.4-1.1,2.5-2.5,2.5s-2.5-1.1-2.5-2.5s1.1-2.5,2.5-2.5S51.2,120.4,51.2,121.8L51.2,121.8z"/>
	<path class="st6" d="M51.3,130.2c0,1.8-1.4,3.2-3.2,3.2c-1.8,0-3.2-1.4-3.2-3.2s1.4-3.2,3.2-3.2S51.3,128.4,51.3,130.2L51.3,130.2z
		"/>
	<path class="st6" d="M42.8,125.3c0,1-0.8,1.9-1.9,1.9s-1.9-0.8-1.9-1.9c0-1.1,0.8-1.9,1.9-1.9C41.9,123.4,42.8,124.2,42.8,125.3
		L42.8,125.3z"/>
	<g>
		<circle class="st6" cx="77" cy="127.9" r="10.7"/>
		<g>
			<path class="st4" d="M74.3,126.3c-0.9,0.1-1.1,1.2-1.2,1.9l0,0l0,0c0,0.1,0,0.2,0,0.3c0,0.3,0,0.6-0.1,0.9c0,0.1-0.1,0.4-0.1,0.4
				c-0.3,0-0.6-0.4-0.7-0.7c-0.2-0.5-0.4-1.1-0.5-1.7c-0.1-0.6-0.2-1.3-0.2-1.9c0-0.3,0-0.5,0-0.8c0-0.1,0-0.2,0-0.3s0-0.2,0-0.2
				c0.1-0.5-0.6,0-0.7,0.2c-0.7,1.2-0.5,2.7-0.5,4.1c0,0.4,0,0.7-0.1,1.1c0,0.2-0.1,0.7-0.3,0.9c-0.1,0.1-0.4,0-0.5,0
				c-0.2-0.1-0.3-0.3-0.3-0.5s-0.3-0.1-0.4,0c-0.2,0.2-0.3,0.4-0.3,0.6c0.1,0.5,0.5,0.9,1,0.8c0.8-0.2,1.1-1.2,1.3-1.9
				c0.1-0.4,0.1-0.7,0.2-1.1c0.1,0.5,0.3,1.1,0.5,1.5s0.5,0.7,0.9,0.6c0.3-0.1,0.6-0.4,0.7-0.8c0.2,0.4,0.4,0.6,0.8,0.6
				s0.8-0.5,1-0.9s0.3-0.9,0.2-1.4C75.4,127.6,75.2,126.2,74.3,126.3z M74.6,129.4c0,0.1,0,0.2-0.1,0.3c-0.2,0-0.3-0.3-0.4-0.4
				c-0.1-0.3-0.2-0.6-0.2-0.9c0-0.3,0-0.7,0-1c0-0.1,0-0.2,0.1-0.3c0.4,0.3,0.5,0.8,0.6,1.3C74.7,128.7,74.7,129.1,74.6,129.4z"/>
			<path class="st4" d="M84.9,127.6c-1-0.4-1.5,0.9-1.7,1.7c-0.2,0.7-0.4,1.9,0.5,2.2c0.4,0.2,0.9-0.1,1.1-0.4
				c0.3-0.3,0.5-0.8,0.6-1.2C85.6,129.2,85.8,127.9,84.9,127.6z M84.4,130.7c0,0.1-0.1,0.2-0.1,0.2c-0.1-0.1-0.2-0.4-0.2-0.5
				c-0.1-0.3,0-0.7,0-1c0.1-0.3,0.2-0.7,0.3-0.9c0-0.1,0.1-0.1,0.1-0.2c0.4,0.4,0.3,1,0.2,1.5C84.6,130,84.5,130.4,84.4,130.7z"/>
			<path class="st4" d="M82.4,127.8c0.2-0.2,0.3-0.5,0.5-0.7c0.4-0.5,0.7-1.2,0.7-1.8s-0.9-0.7-1.3-0.4c-0.6,0.3-1,0.9-1.1,1.6
				c-0.2,0.8-0.4,1.7-0.4,2.5l0,0c-0.3,0.4-0.9,1.1-1.4,0.8c-0.1-0.1-0.2-0.2-0.2-0.4c0.4-0.4,0.7-0.8,1.1-1.3
				c0.3-0.4,0.5-1.2-0.1-1.5c-0.5-0.3-1.1,0-1.4,0.4c-0.3,0.4-0.5,0.9-0.5,1.4c0,0.3-0.1,0.7,0,1.1c-0.3,0.2-0.6,0.3-1,0.2
				s-0.5-0.5-0.6-0.8c-0.1-0.4-0.1-0.9,0-1.4c0-0.1,0.1-0.3,0.1-0.4V127c0.2,0.1,0.3,0.4,0.4,0.6c0.1,0.3,0.9-0.2,0.8-0.5
				s-0.2-0.6-0.6-0.8c-0.3-0.2-0.8,0.1-1,0.3c-0.6,0.6-0.6,1.4-0.6,2.2c0,0.5,0.1,1.1,0.6,1.4c0.6,0.4,1.4,0,1.9-0.3
				c0.1,0.4,0.4,0.6,0.9,0.6c0.6-0.1,1.1-0.4,1.5-0.8c0,0.4,0.1,0.9,0.4,1.1c0.5,0.3,1.1,0,1.5-0.5c0.4-0.6,0.7-1.3,0.4-2
				C82.9,127.9,82.6,127.8,82.4,127.8z M79.1,127.4c0-0.1,0.1-0.2,0.1-0.3l0,0c0.2,0.1,0.3,0.4,0.2,0.5c0,0.4-0.3,0.7-0.6,1
				c0-0.1,0-0.1,0-0.2C79,128.1,79,127.7,79.1,127.4z M82.2,125.6c0.1-0.1,0.1-0.2,0.2-0.4l0,0c0.4,0.4,0,1-0.2,1.4
				s-0.4,0.8-0.7,1.1c0.1-0.4,0.1-0.7,0.2-1.1C81.9,126.3,82,126,82.2,125.6z M82,130c0,0-0.1,0.1-0.1,0.2h-0.1
				c-0.2-0.1-0.3-0.6-0.3-0.8s0-0.4,0-0.5c0.1-0.1,0.2-0.2,0.3-0.3c0.2-0.1,0.4,0.1,0.4,0.3C82.3,129.2,82.2,129.7,82,130z"/>
		</g>
	</g>
	<g>
		<path class="st4" d="M42,162.5c0.2-0.2,0.4-0.5,0.6-0.8c0.1-0.1,0.2-0.2,0.3-0.4c0.1-0.1,0.1-0.1,0,0c0,0.2,0,0.4,0,0.6
			c0,1.1,0,2.1-0.1,3.2c0,0.4,0.7-0.1,0.7-0.4c0.1-0.7,0.1-1.4,0.1-2.1c0-0.3,0.2-1.9-0.1-2c-0.7-0.2-1.4,1.4-1.8,1.8
			C41.1,162.8,41.7,162.8,42,162.5L42,162.5z"/>
		<path class="st4" d="M47.4,161.1c-0.7,1.2-1.7,2.4-2.5,3.5c-0.4,0.5,0.2,0.5,0.5,0.1c0.9-1.2,1.9-2.4,2.7-3.7
			C48.3,160.5,47.6,160.8,47.4,161.1L47.4,161.1z"/>
		<path class="st4" d="M46.1,160.8c-0.5,0-0.8,0.4-0.9,0.9c-0.1,0.4,0.2,0.7,0.6,0.7C46.6,162.4,47.1,160.8,46.1,160.8
			c-0.2,0-0.6,0.5-0.3,0.5c0.2,0,0.3,0.2,0.4,0.4c0,0.1,0,0.2,0,0.2c0,0.1,0,0,0,0h-0.1c-0.2,0-0.3-0.2-0.4-0.4c0-0.1,0-0.2,0-0.3
			s0,0,0,0h0.1C46,161.2,46.3,160.7,46.1,160.8z"/>
		<path class="st4" d="M47.3,163.4c-0.5,0-0.8,0.4-0.9,0.9c-0.1,0.4,0.2,0.7,0.6,0.7C47.9,165,48.3,163.4,47.3,163.4
			c-0.2,0-0.6,0.5-0.3,0.5c0.2,0,0.3,0.2,0.4,0.4c0,0.1,0,0.2,0,0.2c0,0.1,0,0,0,0h-0.1c-0.2,0-0.3-0.2-0.4-0.4c0-0.1,0-0.2,0-0.3
			s0,0,0,0H47C47.3,163.9,47.6,163.4,47.3,163.4z"/>
	</g>
	<g>
		<g>
			<g>
				<path class="st4" d="M75.8,148.2c0.2-1,0.3-2.3-0.5-3.2c-0.4-0.5-1.2-0.4-1.7-0.3c0-0.4,0.1-0.8,0.1-1.3c0-0.4-0.7-0.3-0.9-0.2
					c-0.3,0.1-0.7,0.4-0.7,0.7c0,1.4-0.2,2.9-0.4,4.3l0,0c-0.1,0.4-0.3,1.1-0.7,1.3c-0.4,0.2-0.6-1.2-0.6-1.4c0-1.4,0.3-2.9,0.6-4.3
					c0.1-0.3-0.4-0.4-0.6-0.3c-0.4,0.1-0.8,0.3-0.9,0.7c-0.2,1.1-0.4,2.2-0.7,3.3c-0.1,0.5-0.3,0.9-0.5,1.4c0,0,0,0,0,0.1
					c-0.1,0-0.2-0.1-0.3-0.1c-0.7-0.4-0.6-1.9-0.5-2.4c0.1-0.9,0.3-1.9,0.7-2.7c0.1-0.3,0-0.5-0.4-0.5c-0.2,0-0.4,0.1-0.6,0.2
					c-0.1,0.1-0.4,0.2-0.4,0.2c-0.1,0-0.2,0.1-0.3,0.1c-0.8,0.3-1.4-0.1-1.8-0.7l0,0c-0.1-0.2-0.3-0.3-0.4-0.4
					c-0.6-0.3-1.2-0.1-1.8,0.1c0-0.4-0.1-0.8-0.1-1.3c-0.1-0.3-0.7-0.1-0.9,0c-0.3,0.2-0.6,0.5-0.6,0.8c-0.4,0-0.9,0.3-1.1,0.5
					c-0.9,0.7-1.2,1.9-1.2,3l0,0c-0.1,1-0.7,2.5-1.8,2.4c-0.2,0-0.5-0.4-0.6-0.6c0.4-0.5,0.7-1.1,1-1.6c0.6-0.9,1-2.3,0.3-3.2
					c-0.5-0.6-1.7-0.1-2.2,0.4c-0.7,0.7-0.9,1.6-0.9,2.4c0,0.6,0,1.6,0.3,2.5c-0.2,0.2-0.4,0.6-0.7,0.4c-0.2-0.1-0.3-0.4-0.4-0.7
					c-0.3-0.8-0.3-1.6-0.6-2.4c-0.5-1.1-1.6-1.1-2.7-0.6c-0.1-1-0.2-2,0.3-2.9c0.5-1.1,1.7-0.7,2.4-0.2c0.5,0.3,1.7-1,1.2-1.3
					c-0.7-0.5-1.5-0.9-2.5-0.5c-0.8,0.3-1.5,0.9-1.9,1.6c-0.1,0.1-0.2,0.2-0.2,0.4c-0.2-0.7-0.5-1.4-0.8-2.1c-0.1-0.3-0.6,0-0.7,0.1
					c-1.5,1-4,3.2-3,5.2c0.2,0.5,1.4-0.9,1.2-1.4c-0.4-0.8,0.5-1.7,1.3-2.4c0.6,1.7,1.1,3.4,1.5,5.1c0.2,1.1,0.4,2.3-0.1,3.2
					c-0.5,1-1.8,0.4-2-0.4c-0.1-0.7-1.2,0.7-1.1,1.1c0.1,0.6,0.4,1,1,1.3c0.5,0.2,1.1-0.1,1.6-0.4c1.2-0.8,1.9-2.1,2-3.5
					c0.1-0.6,0-1.1,0-1.7c0.4-0.1,0.8-0.1,1,0.3c0.6,0.6,0.6,1.7,0.8,2.5c0.2,0.6,0.4,1.3,1.2,1.2c0.6-0.1,1.1-0.5,1.5-1
					c0.3,0.3,0.6,0.6,1,0.6c0.8,0.1,1.7-0.6,2.2-1c0.2-0.2,0.4-0.4,0.6-0.6c0.1,0.4,0.3,0.7,0.6,1c0.3,0.3,0.8,0.4,1.2,0.4
					c0.2,0,0.4-0.1,0.5-0.1c-0.1,1.3-0.1,2.7-0.3,4c0,0.4,0.4,0.3,0.6,0.2c0.3-0.2,0.6-0.5,0.7-0.8c0.1-1.1,0.2-2.1,0.3-3.2
					c0.5,0,1.1-0.2,1.5-0.5c1-0.8,1.3-2.1,1.3-3.3c0-0.2,0-0.4,0-0.7c0.4,0,0.9-0.1,1.3-0.2c-0.3,0.8-0.4,1.7-0.5,2.6
					c0,0.9,0,2.3,1.2,2.6c0.8,0.2,1.4-0.1,1.9-0.5c0,0.2,0.1,0.3,0.2,0.5c0.4,1,1.4,0.7,2.1,0.4c-0.3,1.4-0.6,2.9-1,4.3
					c-0.1,0.3,0.3,0.4,0.5,0.3c0.3-0.1,0.7-0.3,0.8-0.6c0.3-1,0.6-2.1,0.8-3.1c0.5,0.1,1,0.1,1.5-0.1
					C75.1,150.5,75.6,149.3,75.8,148.2z M55.5,145.5c0-0.5,0-1.1,0.2-1.6c0.1,0,0.2,0,0.3,0.1c0.7,0.4,0.2,1.5,0,2
					c-0.1,0.2-0.2,0.4-0.3,0.6C55.6,146.2,55.5,145.8,55.5,145.5z M61,148.1c-0.1,0-0.2,0-0.2-0.1c-0.2-0.1-0.4-0.4-0.5-0.6
					c-0.3-0.7-0.4-1.4-0.4-2.1c0-0.6,0.1-1.2,0.4-1.8l0.1,0.1c0.5,0.3,0.7,1,0.8,1.5l0,0C61.1,146.1,61.1,147.1,61,148.1
					C61.1,148.1,61,148.1,61,148.1L61,148.1z M63.3,148.1C63.3,148.1,63.3,148.2,63.3,148.1C63.3,148.2,63.3,148.2,63.3,148.1
					c-0.6,0.1-0.9-0.3-0.9-0.7l0,0c0-1,0.1-2,0-3c0-0.5,0.1-0.7,0.1-0.7c0.1,0,0.4,0.1,0.5,0.3c0.5,0.6,0.5,1.4,0.6,2
					C63.7,146.7,63.7,147.5,63.3,148.1z M73.6,150.2C73.6,150.3,73.6,150.3,73.6,150.2C73.6,150.3,73.6,150.3,73.6,150.2
					c-0.6,0-0.8-0.6-0.7-1c0,0,0.4-1.8,0.5-2.8c0-0.1,0.2-0.6,0.3-0.8l0,0l0,0c0.2,0,0.3,0.2,0.4,0.4c0.3,0.7,0.3,1.5,0.2,2.2
					C74.3,148.9,74.1,149.7,73.6,150.2z"/>
			</g>
		</g>
	</g>
	<g>
		<path class="st7" d="M36.9,137.4c-0.1,0-0.2-0.2-0.3-0.2c-0.4-0.1-0.7,0.1-1.1,0.1c-0.9,0-1.3,0-2.4-0.3c0-1,0.5-1.5,0.8-2.3
			c0.2-0.7-0.1-1.4-0.1-2.2c0-0.5,0-0.9,0-1.4c-0.3,0.3-0.2,1.2-0.2,1.6c-0.1-0.6-0.1-1.3-0.3-1.8c-0.1,0.5,0,1.3,0,1.8
			c-0.2-0.5-0.2-1.1-0.4-1.6c-0.3,0.5,0.2,1.3,0.1,1.8c-0.2-0.5-0.3-1-0.5-1.4c-0.1,0.6,0.2,1.1,0.2,1.6c-0.2-0.4-0.3-0.8-0.6-1.1
			c0,0.4,0.3,0.9,0.4,1.3c-0.3-0.1-0.3-0.4-0.6-0.6c0,0.3,0.3,0.5,0.4,0.7c-0.2-0.1-0.3-0.3-0.5-0.4c0,0.3,0.3,0.4,0.3,0.6
			c-0.1-0.1-0.2-0.2-0.4-0.3c0,0.2,0.3,0.4,0.3,0.5c0,0-0.2-0.1-0.2,0c0,0,0.2,0.1,0.1,0.2c-0.1,0-0.1,0-0.2,0
			c0,0.2,0.2,0.1,0.1,0.3c-0.1,0-0.1-0.1-0.1,0s0.1,0.1,0.1,0.2c-0.8,0.8-0.4,1.7-0.4,2.7c0.1-0.1-0.7-0.3-1.2-0.5
			c-0.3-0.1-0.4-0.5-0.6-0.6c0-0.1,0.1,0,0.1-0.1c-0.1,0-0.2-0.1-0.2-0.2c0.1,0,0.3,0.1,0.3,0c-0.1-0.1-0.5-0.2-0.4-0.3
			c0.2,0,0.4,0.1,0.5,0.1c-0.2-0.1-0.6-0.3-0.6-0.5c0.2,0.1,0.5,0.3,0.7,0.2c-0.3-0.2-0.8-0.4-0.9-0.7c0.2,0.1,0.6,0.4,0.8,0.4
			c-0.4-0.1-0.7-0.6-1.1-0.6c0.2,0.4,0.8,0.6,0.9,0.8c-0.3-0.2-0.6-0.3-0.9-0.5c0.1,0.4,0.6,0.5,0.8,0.7c-0.3,0-0.5-0.2-0.8-0.2
			c0.1,0.3,0.6,0.2,0.7,0.5c-0.1-0.1-0.3,0-0.5,0c0,0.2,0.3,0.2,0.5,0.3c-0.2,0-0.3,0-0.4,0.1c0.1,0.1,0.3,0.1,0.4,0.2
			c-0.1,0-0.2,0-0.2,0.1s0.2,0,0.3,0.1c-0.1,0-0.1,0.1-0.1,0.1c0.1,0,0.2,0,0.2,0c-0.1,0-0.1,0-0.1,0.1c0.4,0.2,0.7,0.9,1.2,1.1
			c-0.3,0.2,0.3,0.4-3.4,1.7c0.1,0,1.6-0.4,2.1-0.5c0.5-0.2,0.9-0.3,1.4-0.4c0.1,0,0.2-0.1,0.3-0.1c0.8-0.1,1.5,0.1,2.2-0.4
			c-0.6,0.1-1.6,0.2-2-0.1c0.5-0.8,0.2-2.8,0.5-3.2c0.4-0.4,1-1.7,1.8-0.6c0.1,0.2,0.1,0.4-0.1,0.9c-0.3,0.6-0.6,0.8-0.5,2
			c0,0.2,0,0.5-0.4,0.5c1.6,0.3,2.1,0.2,3,0c0.3,0,0.8-0.3,0.8,0c0,0.1-0.3,0.1-0.6,0.1c-0.4,0,0.2,0.2,0.4,0.1c0.1,0,1-0.1,1.4-0.2
			C37.3,137.5,37.1,137.5,36.9,137.4z"/>
		<path class="st7" d="M32.1,129.1c-3.7,0-6.7,3-6.7,6.7s3,6.7,6.7,6.7s6.7-3,6.7-6.7C38.8,132.1,35.8,129.1,32.1,129.1 M32.1,129.3
			c3.6,0,6.5,2.9,6.5,6.5s-2.9,6.5-6.5,6.5s-6.5-2.9-6.5-6.5S28.5,129.3,32.1,129.3"/>
	</g>
</g>
</svg>
