<?xml version="1.0" encoding="utf-8"?>
<!-- Generator: Adobe Illustrator 19.0.0, SVG Export Plug-In . SVG Version: 6.00 Build 0)  -->
<svg version="1.1" xmlns="http://www.w3.org/2000/svg" xmlns:xlink="http://www.w3.org/1999/xlink" x="0px" y="0px"
	 viewBox="0 0 306.3 256" style="enable-background:new 0 0 306.3 256;" xml:space="preserve">
<style type="text/css">
	.st0{fill:#519E38;}
	.st1{fill:#F4B19A;}
	.st2{fill:#C3ABCE;}
	.st3{fill:#F4E9CE;}
	.st4{fill:#EFA49A;}
	.st5{fill:none;stroke:#FFFFFF;stroke-width:4;stroke-miterlimit:10;}
	.st6{fill:#EFEFEF;}
	.st7{fill:#FFFFFF;}
	.st8{fill:#E1D0EA;}
	.st9{fill:#F4CCC1;}
	.st10{fill:#F9C7C2;}
	.st11{fill:#FFF8E9;}
	.st12{fill-rule:evenodd;clip-rule:evenodd;fill:#267918;}
	.st13{fill:#267918;}
	.st14{fill:#483290;}
	.st15{fill:#712F8F;}
	.st16{fill-rule:evenodd;clip-rule:evenodd;fill:#F1788A;}
	.st17{fill-rule:evenodd;clip-rule:evenodd;fill:#DA1B51;}
	.st18{fill:#3A1305;}
	.st19{fill:#EACC96;}
	.st20{fill:#D1AF79;}
	.st21{fill:#E2231A;}
</style>
<g id="kolba_3">
</g>
<g id="kolby">
</g>
<g id="doma">
</g>
<g id="car">
</g>
<g id="butylka_3">
</g>
<g id="butylka_1">
</g>
<g id="vanna_2">
</g>
<g id="vanna_1">
	<g>
		<path class="st0" d="M250.4,95.5c0-2.2-1.8-4-4-4h-183c-2.2,0-4,1.8-4,4c0,2.2,1.8,4,4,4v103.8h5.3V99.5h172.7l-0.3,16.7
			l-1.4,70.8l-7,18.8c0,0-166.2-2.8-166.2,2.7s5,5.8,5,5.8h167.2c9,0,7.7-11.2,7.7-11.2l0.1-103.5C248.7,99.5,250.4,97.7,250.4,95.5
			z"/>
		<rect x="108.6" y="146.4" class="st1" width="43.8" height="60.1"/>
		<rect x="64.7" y="146.4" class="st2" width="43.8" height="60.1"/>
		<rect x="195.8" y="146.4" class="st3" width="43.8" height="60.1"/>
		<rect x="151.9" y="146.4" class="st4" width="43.8" height="60.1"/>
		<path class="st5" d="M241.4,204.8c0,2-1.6,3.7-3.7,3.7H67.1c-2,0-3.7-1.6-3.7-3.7V98.2c0-2,1.6-3.7,3.7-3.7h170.6
			c2,0,3.7,1.6,3.7,3.7V204.8z"/>
		<path class="st6" d="M247.4,92.5c0,2.2-1.8,4-4,4h-183c-2.2,0-4-1.8-4-4l0,0c0-2.2,1.8-4,4-4h183
			C245.6,88.5,247.4,90.3,247.4,92.5L247.4,92.5z"/>
		<path class="st7" d="M80.2,133.1c0,1.7-1.4,3.1-3.1,3.1l0,0c-1.7,0-3.1-1.4-3.1-3.1v-22.8c0-1.7,1.4-3.1,3.1-3.1l0,0
			c1.7,0,3.1,1.4,3.1,3.1V133.1z"/>
		<rect x="108.3" y="96.5" class="st7" width="1" height="112"/>
		<rect x="150.4" y="96.5" class="st7" width="1" height="112"/>
		<rect x="196.3" y="96.9" class="st7" width="1" height="112"/>
		<circle class="st8" cx="79.4" cy="168" r="3.5"/>
		<circle class="st8" cx="79.5" cy="176.4" r="2"/>
		<circle class="st8" cx="98.7" cy="190.5" r="2"/>
		<circle class="st8" cx="90.3" cy="198.5" r="2"/>
		<circle class="st8" cx="90.3" cy="181.8" r="2"/>
		<circle class="st8" cx="96.7" cy="160.9" r="2"/>
		<circle class="st9" cx="136" cy="166.4" r="3.5"/>
		<circle class="st9" cx="121.7" cy="176.4" r="2"/>
		<circle class="st9" cx="132.1" cy="181.8" r="2"/>
		<circle class="st9" cx="142.4" cy="196.5" r="2"/>
		<circle class="st9" cx="123.7" cy="194.5" r="2"/>
		<circle class="st9" cx="123.8" cy="156.9" r="2"/>
		<circle class="st10" cx="159.7" cy="186" r="3.5"/>
		<circle class="st10" cx="165.2" cy="163.7" r="2"/>
		<circle class="st10" cx="188.7" cy="158.9" r="2"/>
		<circle class="st10" cx="184.7" cy="196.5" r="2"/>
		<circle class="st10" cx="186.7" cy="183.8" r="2"/>
		<circle class="st10" cx="173" cy="173.5" r="2"/>
		<circle class="st11" cx="222" cy="152.9" r="3.5"/>
		<circle class="st11" cx="209" cy="163.7" r="2"/>
		<circle class="st11" cx="216.5" cy="198.5" r="2"/>
		<circle class="st11" cx="230.5" cy="174.4" r="2"/>
		<circle class="st11" cx="221.3" cy="173.5" r="2"/>
		<circle class="st11" cx="227.5" cy="194.5" r="2"/>
	</g>
</g>
<g id="zakvaska">
</g>
<g id="shariki_2">
</g>
<g id="shariki_1">
</g>
<g id="voronka">
</g>
<g id="gradusnik">
</g>
<g id="kolba_2">
</g>
<g id="kolba_1">
</g>
<g id="probirki">
</g>
<g id="lupa">
</g>
<g id="bidon">
</g>
<g id="blank">
</g>
<g id="ticks">
</g>
<g id="clock">
</g>
<g id="chernika">
	<g>
		<g>
			<path class="st12" d="M86.7,45.3c-2.8-2.6-4.6-0.9-4.7,2c-0.2,7.8,4.5,7.1,4.9,7c-0.1-0.1-1.1-0.6-1.4-1.9
				c-0.2-0.1-1.6-0.8-2.2-1.6l-0.2-0.5l0.4,0.4c0.3,0.4,0.9,1,2,1.3c-0.1-0.3-0.1-0.6-0.1-0.8c-0.3-0.1-1.6-0.6-2.2-1.6
				c0,0-0.1-0.2-0.1-0.2c0-0.1-0.3-0.6-0.3-0.6l0.5,0.8c0.3,0.5,0.9,1.1,2.1,1.3l0,0c0-0.3,0-0.7,0-1.1c-0.3,0-1.6-0.3-2.3-1.6
				l-0.1-0.2l-0.1-0.3l0.4,0.5c0.3,0.4,1,1.4,2.2,1.3c0-0.4-0.1-0.7-0.2-1.1l0,0c-0.1,0-1.2-0.1-2-1.5c0,0-0.1-0.1-0.1-0.3
				c0-0.1-0.1-0.3-0.1-0.3l0.3,0.6c0.3,0.4,1.1,1.4,1.8,1.3c-0.6-1.8-1.6-2.9-1.6-2.9l-0.3-0.3c0,0,0.3,0.1,0.4,0.2
				c0,0,0.5,0.5,1.1,1.4c0.2-0.7-0.1-1.4-0.1-1.4l-0.2-0.2l0.3,0.2c0.4,0.6,0.2,1.7,0.2,1.9c0.4,0.7,0.6,1.4,0.8,2.1
				c1.5-1.4,1-2.7,1-2.7l-0.1-0.3l0.3,0.3c0.6,1.4-0.9,2.9-1.1,3.1c0,0.1,0,0.1,0,0.2l0,0.1c0,0.2,0,0.4,0,0.6c1.5-0.7,2-2.8,2-2.8
				l0-0.3c0,0,0.1,0.4,0,0.8c-0.5,1.8-2,2.7-2.1,2.8c0,0.4,0,0.8,0.1,1.2c0.4-0.2,1.8-1.2,2.4-2.4L88,49l0.1,0L88,49l0.1-0.4
				l-0.1,0.6c-0.2,0.5-1.1,2-2.4,2.7c0.1,0.4,0.2,0.8,0.4,1.1c0.1,0,0.3-0.1,0.4-0.1c1.2-0.5,1.7-1.7,1.9-2.5l0.2-0.6l0,0.6
				c-0.5,2-1.6,2.7-2,2.9c0,0-0.1,0-0.1,0c0.3,0.4,0.8,0.7,0.9,0.8l0.3-0.1C89.9,49.8,88.8,47.2,86.7,45.3z"/>
			<path class="st12" d="M97.4,47.5c1.3-2.8-0.5-3.8-2.8-3.1c-6.1,1.9-4.3,5.3-4.1,5.6c0-0.1,0.2-1,1.1-1.6c0-0.2,0.2-1.5,0.7-2.1
				l0.3-0.3l-0.2,0.4c-0.2,0.3-0.5,0.9-0.5,1.9c0.2-0.1,0.4-0.2,0.6-0.3c0-0.3,0-1.4,0.7-2.1c0,0,0.1-0.1,0.1-0.2
				c0,0,0.4-0.4,0.4-0.4l-0.5,0.6c-0.3,0.4-0.6,1-0.4,1.9l0,0c0.3-0.1,0.5-0.2,0.8-0.3c0-0.2-0.2-1.3,0.6-2.2l0.2-0.2l0.2-0.2
				l-0.2,0.4c-0.3,0.3-0.8,1.2-0.5,2c0.3-0.1,0.5-0.3,0.8-0.4l0,0c0,0-0.3-0.9,0.7-1.9c0,0,0.1-0.1,0.2-0.2c0.1,0,0.2-0.1,0.2-0.1
				l-0.4,0.4c-0.2,0.4-0.8,1.2-0.6,1.8c1.2-0.9,1.8-2,1.8-2l0.1-0.3c0,0,0,0.3,0,0.3c0,0-0.3,0.6-0.8,1.2c0.6,0,1.1-0.4,1.1-0.4
				l0.1-0.2l-0.1,0.3c-0.3,0.4-1.2,0.6-1.4,0.6c-0.4,0.5-0.9,0.9-1.4,1.1c1.4,0.8,2.3,0.1,2.3,0.1l0.2-0.2l-0.2,0.3
				c-0.9,0.8-2.4,0.1-2.7-0.1c0,0-0.1,0-0.1,0l-0.1,0c-0.1,0.1-0.3,0.1-0.4,0.1c0.9,1,2.7,0.8,2.7,0.8l0.3-0.1c0,0-0.2,0.2-0.6,0.2
				c-1.5,0.1-2.6-0.8-2.7-0.9c-0.3,0.1-0.6,0.2-0.9,0.4c0.3,0.2,1.4,1.1,2.5,1.2l0.1,0l0,0.1l0-0.1l0.3,0l-0.4,0.1
				c-0.4-0.1-1.8-0.3-2.7-1.2c-0.3,0.2-0.5,0.4-0.7,0.6c0.1,0.1,0.1,0.2,0.2,0.3c0.7,0.8,1.8,0.8,2.4,0.8l0.5,0l-0.5,0.1
				c-1.7,0.2-2.5-0.5-2.7-0.8c0,0-0.1-0.1-0.1-0.1c-0.2,0.3-0.4,0.8-0.4,0.9l0.1,0.2C94.8,51.1,96.4,49.6,97.4,47.5z"/>
			<path class="st12" d="M92.3,53.2c1.2-1.2,0.4-2-0.8-2.1c-3.4-0.2-3.1,1.9-3.1,2.1c0-0.1,0.3-0.5,0.8-0.6c0-0.1,0.4-0.7,0.7-1
				l0.2-0.1L90,51.7c-0.2,0.1-0.4,0.4-0.6,0.9c0.1,0,0.2,0,0.4,0c0-0.1,0.3-0.7,0.7-0.9c0,0,0.1-0.1,0.1-0.1c0,0,0.3-0.1,0.3-0.1
				l-0.4,0.2c-0.2,0.1-0.5,0.4-0.6,0.9l0,0c0.1,0,0.3,0,0.5,0c0-0.1,0.1-0.7,0.7-1l0.1-0.1l0.1-0.1l-0.2,0.2
				c-0.2,0.1-0.6,0.4-0.6,0.9c0.2,0,0.3,0,0.5-0.1l0,0c0,0,0-0.5,0.7-0.9c0,0,0.1,0,0.1,0c0,0,0.1,0,0.1,0l-0.2,0.1
				c-0.2,0.1-0.6,0.5-0.6,0.8c0.8-0.2,1.3-0.7,1.3-0.7l0.1-0.1c0,0-0.1,0.1-0.1,0.2c0,0-0.2,0.2-0.6,0.5c0.3,0.1,0.6,0,0.6,0
				l0.1-0.1l-0.1,0.1c-0.3,0.2-0.7,0.1-0.8,0.1c-0.3,0.2-0.6,0.3-0.9,0.3c0.6,0.7,1.2,0.5,1.2,0.5l0.2-0.1L92,53.2
				c-0.6,0.2-1.2-0.4-1.3-0.5c0,0,0,0-0.1,0h0c-0.1,0-0.2,0-0.3,0c0.3,0.7,1.2,0.9,1.2,0.9l0.1,0c0,0-0.2,0.1-0.4,0
				c-0.8-0.2-1.2-0.9-1.2-0.9c-0.2,0-0.4,0-0.5,0c0.1,0.2,0.5,0.8,1,1.1l0,0l0,0l0,0l0.2,0.1l-0.2,0c-0.2-0.1-0.9-0.5-1.2-1.1
				c-0.2,0-0.3,0.1-0.5,0.2c0,0.1,0,0.1,0,0.2c0.2,0.5,0.7,0.8,1.1,0.9l0.3,0.1l-0.3,0c-0.9-0.2-1.2-0.7-1.2-0.9c0,0,0,0,0-0.1
				c-0.2,0.1-0.3,0.3-0.3,0.4l0,0.1C90.3,54.6,91.4,54.1,92.3,53.2z"/>
			<path class="st12" d="M91.9,58.7c2.2-2.3,0.8-3.9-1.6-4c-6.6-0.3-6,3.6-6,4c0.1-0.1,0.5-0.9,1.6-1.1c0.1-0.2,0.7-1.4,1.4-1.8
				l0.4-0.2l-0.4,0.3c-0.3,0.2-0.8,0.7-1.1,1.6c0.2,0,0.5-0.1,0.7-0.1c0.1-0.2,0.5-1.3,1.4-1.8c0,0,0.1-0.1,0.2-0.1
				c0.1,0,0.5-0.2,0.5-0.2l-0.7,0.4c-0.4,0.2-0.9,0.7-1.1,1.7l0,0c0.3,0,0.6,0,0.9,0c0-0.2,0.3-1.3,1.4-1.9l0.2-0.1l0.2-0.1
				l-0.4,0.3c-0.4,0.2-1.2,0.8-1.2,1.8c0.3,0,0.6-0.1,0.9-0.2l0,0c0-0.1,0.1-1,1.3-1.7c0,0,0.1-0.1,0.3-0.1c0.1,0,0.3,0,0.3,0
				l-0.5,0.2c-0.4,0.3-1.2,0.9-1.2,1.5c1.5-0.4,2.5-1.3,2.5-1.3l0.2-0.2c0,0-0.1,0.3-0.2,0.3c0,0-0.5,0.5-1.2,0.9
				c0.6,0.2,1.2,0,1.2,0l0.2-0.2L92.3,57c-0.5,0.3-1.4,0.1-1.6,0.1c-0.6,0.3-1.2,0.5-1.8,0.6c1.1,1.3,2.2,0.9,2.2,0.9l0.3-0.1
				l-0.3,0.2c-1.2,0.4-2.4-0.8-2.6-1c0,0-0.1,0-0.1,0h-0.1c-0.1,0-0.3,0-0.5,0c0.5,1.3,2.3,1.8,2.3,1.8l0.3,0c0,0-0.3,0.1-0.7,0
				c-1.5-0.4-2.2-1.7-2.3-1.8c-0.3,0-0.7,0-1,0c0.2,0.3,1,1.5,2,2l0.1,0l0,0.1l0,0l0.3,0.1l-0.5-0.1c-0.4-0.2-1.7-0.9-2.2-2.1
				c-0.3,0.1-0.6,0.2-0.9,0.3c0,0.1,0.1,0.2,0.1,0.3c0.4,1,1.4,1.5,2,1.6l0.5,0.1l-0.5,0c-1.7-0.5-2.2-1.4-2.3-1.8c0,0,0-0.1,0-0.1
				c-0.3,0.2-0.6,0.7-0.7,0.7l0.1,0.2C88,61.3,90.1,60.4,91.9,58.7z"/>
			<path class="st12" d="M80.7,55c-2.6-2.4-4.3-0.8-4.3,1.9c-0.1,7.2,4.2,6.5,4.6,6.4c-0.1-0.1-1-0.6-1.3-1.7
				c-0.2-0.1-1.5-0.7-2.1-1.5l-0.2-0.5l0.3,0.4c0.3,0.3,0.8,0.9,1.9,1.2c-0.1-0.3-0.1-0.5-0.1-0.8c-0.3-0.1-1.5-0.5-2-1.4
				c0,0-0.1-0.2-0.1-0.2c0-0.1-0.3-0.6-0.3-0.6l0.5,0.7c0.3,0.4,0.9,1,1.9,1.2l0,0c0-0.3,0-0.6,0-1c-0.3,0-1.5-0.2-2.1-1.5l-0.1-0.2
				L77.1,57l0.4,0.4c0.3,0.4,1,1.3,2,1.2c0-0.3-0.1-0.7-0.2-1c0,0,0,0,0,0c-0.1,0-1.1-0.1-1.9-1.4c0,0-0.1-0.1-0.1-0.3
				c0-0.1-0.1-0.3-0.1-0.3l0.3,0.5c0.3,0.4,1,1.3,1.7,1.2c-0.5-1.6-1.5-2.6-1.5-2.7l-0.3-0.3c0,0,0.3,0.1,0.4,0.2c0,0,0.5,0.5,1,1.3
				c0.2-0.6-0.1-1.3-0.1-1.3l-0.2-0.2l0.3,0.2c0.4,0.5,0.2,1.6,0.2,1.7c0.4,0.6,0.6,1.3,0.7,1.9c1.3-1.3,0.9-2.5,0.9-2.5l-0.1-0.3
				l0.3,0.3c0.5,1.3-0.8,2.7-1,2.9c0,0,0,0.1,0,0.1l0,0.1c0,0.2,0,0.3,0,0.5c1.4-0.7,1.8-2.6,1.8-2.7l0-0.3c0,0,0.1,0.3,0,0.8
				c-0.4,1.7-1.8,2.5-1.9,2.6c0,0.4,0,0.7,0.1,1.1c0.3-0.2,1.6-1.1,2.2-2.3l0-0.1l0.1,0l-0.1,0l0.1-0.3l-0.1,0.5
				c-0.2,0.4-1,1.9-2.2,2.5c0.1,0.4,0.2,0.7,0.4,1c0.1,0,0.2-0.1,0.3-0.1c1.1-0.5,1.5-1.6,1.7-2.3l0.1-0.6l0,0.6
				c-0.4,1.9-1.4,2.5-1.8,2.7c0,0-0.1,0-0.1,0c0.3,0.3,0.7,0.7,0.8,0.7l0.2-0.1C83.7,59.1,82.7,56.8,80.7,55z"/>
			<path class="st12" d="M83.3,62.7c-1.6-1.5-2.7-0.5-2.7,1.2c0,4.6,2.7,4.1,2.9,4c-0.1,0-0.6-0.3-0.8-1.1c-0.1-0.1-1-0.4-1.3-0.9
				l-0.1-0.3l0.2,0.2c0.2,0.2,0.5,0.6,1.2,0.8c0-0.2-0.1-0.3-0.1-0.5c-0.2-0.1-0.9-0.3-1.3-0.9c0,0-0.1-0.1-0.1-0.1
				c0,0-0.2-0.4-0.2-0.4l0.3,0.5c0.2,0.3,0.5,0.6,1.2,0.7l0,0c0-0.2,0-0.4,0-0.6c-0.2,0-0.9-0.2-1.4-0.9l-0.1-0.1L81,64l0.2,0.3
				c0.2,0.2,0.6,0.8,1.3,0.8c0-0.2-0.1-0.4-0.1-0.6c0,0,0,0,0,0c0,0-0.7,0-1.2-0.9c0,0,0-0.1-0.1-0.2c0-0.1,0-0.2,0-0.2l0.2,0.3
				c0.2,0.2,0.6,0.8,1.1,0.8c-0.3-1-0.9-1.7-1-1.7l-0.2-0.2c0,0,0.2,0.1,0.2,0.1c0,0,0.3,0.3,0.6,0.8c0.1-0.4-0.1-0.8-0.1-0.8
				l-0.1-0.1l0.2,0.1c0.2,0.3,0.1,1,0.1,1.1c0.2,0.4,0.4,0.8,0.5,1.2c0.8-0.8,0.6-1.6,0.6-1.6L83.1,63l0.2,0.2
				c0.3,0.8-0.5,1.7-0.6,1.8c0,0,0,0.1,0,0.1l0,0.1c0,0.1,0,0.2,0,0.3c0.9-0.4,1.2-1.7,1.2-1.7l0-0.2c0,0,0.1,0.2,0,0.5
				c-0.3,1.1-1.1,1.6-1.2,1.6c0,0.2,0,0.5,0,0.7c0.2-0.1,1-0.7,1.4-1.4l0-0.1l0,0l0,0l0.1-0.2l0,0.3c-0.1,0.3-0.6,1.2-1.4,1.6
				c0.1,0.2,0.1,0.4,0.3,0.6c0.1,0,0.1,0,0.2-0.1c0.7-0.3,1-1,1.1-1.4l0.1-0.3l0,0.4c-0.3,1.2-0.9,1.6-1.2,1.7c0,0-0.1,0-0.1,0
				c0.2,0.2,0.5,0.4,0.5,0.4l0.1-0.1C85.2,65.3,84.5,63.9,83.3,62.7z"/>
			<path class="st12" d="M91,68.9c2.3-2.3,0.8-4-1.6-4.1c-6.7-0.3-6.2,3.7-6.1,4.1c0.1-0.1,0.5-0.9,1.6-1.2c0.1-0.2,0.7-1.4,1.5-1.9
				l0.4-0.2L86.4,66c-0.3,0.2-0.9,0.7-1.2,1.7c0.2,0,0.5-0.1,0.7-0.1c0.1-0.3,0.5-1.3,1.4-1.8c0,0,0.2-0.1,0.2-0.1
				c0.1,0,0.5-0.2,0.5-0.2l-0.7,0.4c-0.4,0.3-0.9,0.8-1.1,1.7l0,0c0.3,0,0.6,0,0.9,0c0-0.3,0.3-1.3,1.4-2l0.2-0.1l0.2-0.1l-0.4,0.3
				c-0.4,0.2-1.2,0.9-1.2,1.8c0.3,0,0.6-0.1,0.9-0.2l0,0c0-0.1,0.1-1,1.4-1.7c0,0,0.1-0.1,0.3-0.1c0.1,0,0.3,0,0.3,0L90,65.9
				c-0.4,0.3-1.2,0.9-1.2,1.5c1.5-0.4,2.5-1.3,2.5-1.3l0.2-0.2c0,0-0.1,0.3-0.2,0.3c0,0-0.5,0.5-1.2,0.9c0.6,0.2,1.2,0,1.2,0
				l0.2-0.2l-0.2,0.3c-0.5,0.3-1.4,0.1-1.6,0.1c-0.6,0.3-1.2,0.5-1.8,0.6c1.1,1.3,2.3,0.9,2.3,0.9l0.3-0.1l-0.3,0.2
				c-1.2,0.5-2.4-0.8-2.6-1c0,0-0.1,0-0.1,0l-0.1,0c-0.2,0-0.3,0-0.5,0c0.6,1.3,2.4,1.8,2.4,1.8l0.3,0c0,0-0.3,0.1-0.7,0
				c-1.6-0.4-2.3-1.8-2.3-1.8c-0.3,0-0.7,0-1,0c0.2,0.3,1,1.5,2,2.1l0.1,0l0,0.1l0-0.1l0.3,0.1l-0.5-0.1c-0.4-0.2-1.7-1-2.3-2.1
				c-0.3,0.1-0.7,0.2-0.9,0.4c0,0.1,0.1,0.2,0.1,0.3c0.4,1,1.5,1.5,2.1,1.7l0.5,0.1l-0.5,0c-1.7-0.5-2.3-1.4-2.4-1.8
				c0,0,0-0.1,0-0.1c-0.3,0.2-0.6,0.7-0.7,0.7l0.1,0.2C87,71.6,89.3,70.7,91,68.9z"/>
			<path class="st12" d="M91.1,74.3c2.8-1.5,1.8-3.1-0.5-3.7c-6.4-1.6-6.9,1.9-6.9,2.2c0.1-0.1,0.8-0.6,1.9-0.7c0.1-0.1,1-1,1.9-1.3
				l0.5-0.1L87.5,71c-0.4,0.1-1,0.4-1.6,1.2c0.2,0,0.5,0,0.7,0.1c0.2-0.2,0.9-1,1.8-1.2c0,0,0.2-0.1,0.2-0.1c0.1,0,0.6-0.1,0.6-0.1
				l-0.8,0.2c-0.5,0.1-1.1,0.5-1.5,1.2l0,0c0.3,0.1,0.6,0.1,0.9,0.2c0.1-0.2,0.6-1.1,1.9-1.3l0.2,0l0.3-0.1l-0.5,0.2
				c-0.4,0.1-1.4,0.5-1.6,1.3c0.3,0,0.6,0.1,0.9,0l0,0c0-0.1,0.4-0.8,1.8-1.2c0,0,0.1,0,0.3,0c0.1,0,0.3,0,0.3,0l-0.5,0.1
				c-0.4,0.1-1.4,0.5-1.6,1.1c1.6-0.1,2.8-0.6,2.8-0.6l0.3-0.2c0,0-0.2,0.2-0.3,0.2c0,0-0.6,0.3-1.4,0.5c0.5,0.3,1.2,0.2,1.2,0.2
				l0.2-0.1L92,72.9c-0.6,0.2-1.4-0.2-1.6-0.2c-0.7,0.2-1.3,0.2-1.9,0.2c0.8,1.3,1.9,1.2,2,1.2l0.3,0l-0.3,0.1
				c-1.3,0.1-2.1-1.2-2.3-1.4c0,0-0.1,0-0.1,0l-0.1,0c-0.1,0-0.3-0.1-0.5-0.1c0.2,1.2,1.8,2,1.9,2l0.3,0.1c0,0-0.3,0-0.7-0.1
				c-1.4-0.7-1.8-1.9-1.8-2c-0.3-0.1-0.7-0.2-1-0.2c0.1,0.3,0.6,1.5,1.4,2.1l0.1,0.1l0,0l0,0l0.3,0.2l-0.4-0.2
				c-0.3-0.2-1.4-1.1-1.6-2.2c-0.3,0-0.7,0-1,0.1c0,0.1,0,0.2,0,0.3c0.1,0.9,1,1.5,1.6,1.8l0.5,0.2l-0.5-0.1c-1.6-0.7-1.8-1.6-1.9-2
				c0,0,0-0.1,0-0.1c-0.4,0.1-0.8,0.4-0.8,0.5l0,0.2C86.6,75.8,89,75.4,91.1,74.3z"/>
			<path class="st12" d="M71.4,62c-4.2-0.1-4.2,2.5-1.8,4.7c6.5,5.9,9.3,2.2,9.6,1.8c-0.2,0-1.3,0.3-2.6-0.4c-0.2,0.1-1.9,0.5-3,0.3
				l-0.6-0.2l0.6,0.1c0.5,0.1,1.5,0.1,2.6-0.4c-0.3-0.2-0.5-0.3-0.8-0.6c-0.3,0.1-1.6,0.6-2.9,0.3c0,0-0.2,0-0.3-0.1
				c-0.1,0-0.7-0.3-0.7-0.3l1.1,0.2c0.6,0.1,1.6,0.2,2.6-0.5l0,0c-0.3-0.3-0.6-0.5-0.9-0.8c-0.3,0.2-1.4,0.9-3.1,0.4l-0.3-0.1
				l-0.3-0.1l0.7,0.1c0.6,0.1,2,0.4,2.7-0.5c-0.3-0.2-0.7-0.5-1.1-0.7c0,0,0,0,0,0c0,0.1-0.9,0.8-2.8,0.2c0,0-0.2,0-0.4-0.2
				c-0.1-0.1-0.3-0.2-0.3-0.2l0.7,0.2c0.6,0.1,2,0.3,2.5-0.2c-1.9-0.9-3.6-1.1-3.6-1.1l-0.5,0c0,0,0.3-0.1,0.5-0.1c0,0,0.9,0,2,0.3
				c-0.4-0.7-1.3-1-1.3-1L69,63.2l0.4-0.1c0.8,0.2,1.6,1.1,1.7,1.3c0.9,0.3,1.7,0.6,2.3,1c-0.1-2-1.5-2.7-1.5-2.7l-0.4-0.2l0.5,0
				c1.6,0.6,1.8,2.7,1.8,3c0,0,0.1,0.1,0.1,0.1l0.1,0.1c0.2,0.1,0.3,0.3,0.5,0.4c0.5-1.5-0.9-3.5-0.9-3.5l-0.3-0.2
				c0,0,0.4,0.2,0.7,0.6c1.2,1.7,0.8,3.4,0.8,3.5c0.3,0.3,0.7,0.6,1.1,0.8c0.1-0.4,0.3-2.1-0.3-3.4l-0.1-0.1l0.1,0l-0.1,0l-0.2-0.4
				l0.4,0.5c0.2,0.5,0.9,2.2,0.5,3.6c0.4,0.2,0.8,0.4,1.3,0.5c0.1-0.1,0.1-0.2,0.2-0.3c0.5-1.2-0.2-2.4-0.7-3.1l-0.4-0.5l0.5,0.5
				c1.4,1.8,1.1,3,0.9,3.5c0,0.1,0,0.1-0.1,0.1c0.5,0.1,1.2,0,1.3,0l0.1-0.2C77.6,63.2,74.6,62.1,71.4,62z"/>
			<path class="st12" d="M84.2,77.4c2.1,0.2,2.2-1,1.1-2.2c-2.9-3.2-4.5-1.5-4.6-1.4c0.1,0,0.7-0.1,1.3,0.3c0.1,0,0.9-0.2,1.5,0
				l0.3,0.1l-0.3-0.1c-0.2-0.1-0.7-0.1-1.3,0.1c0.1,0.1,0.2,0.2,0.4,0.3c0.2,0,0.8-0.2,1.5,0c0,0,0.1,0,0.2,0.1c0,0,0.3,0.2,0.3,0.2
				l-0.5-0.2c-0.3-0.1-0.8-0.2-1.3,0.1l0,0c0.1,0.1,0.3,0.3,0.4,0.4c0.1-0.1,0.7-0.4,1.5,0l0.1,0.1l0.2,0.1l-0.3-0.1
				c-0.3-0.1-0.9-0.3-1.4,0.1c0.2,0.1,0.3,0.3,0.5,0.4c0,0,0,0,0,0c0,0,0.5-0.3,1.4,0c0,0,0.1,0,0.2,0.1c0,0,0.1,0.1,0.1,0.1
				l-0.3-0.1c-0.3-0.1-1-0.2-1.2,0c0.9,0.5,1.7,0.7,1.7,0.7l0.2,0c0,0-0.2,0-0.2,0c0,0-0.4-0.1-1-0.2c0.2,0.4,0.6,0.6,0.6,0.6l0.2,0
				l-0.2,0c-0.4-0.1-0.7-0.6-0.8-0.7c-0.4-0.2-0.8-0.4-1.1-0.6c-0.1,1,0.6,1.4,0.6,1.4l0.2,0.1l-0.2,0c-0.7-0.4-0.7-1.4-0.7-1.6
				c0,0,0,0-0.1-0.1l0,0c-0.1-0.1-0.1-0.1-0.2-0.2c-0.3,0.7,0.3,1.8,0.3,1.8l0.1,0.1c0,0-0.2-0.1-0.3-0.3c-0.5-0.9-0.2-1.7-0.2-1.7
				c-0.1-0.2-0.3-0.3-0.5-0.5c-0.1,0.2-0.2,1,0,1.7l0,0.1l0,0l0,0l0.1,0.2l-0.2-0.2C82,76,81.8,75.1,82,74.4
				c-0.2-0.1-0.4-0.2-0.6-0.3c0,0.1-0.1,0.1-0.1,0.2c-0.3,0.6,0,1.2,0.2,1.6l0.2,0.3l-0.2-0.3c-0.6-1-0.4-1.6-0.3-1.8c0,0,0,0,0-0.1
				c-0.2-0.1-0.6-0.1-0.6-0.1l-0.1,0.1C81.2,76.5,82.6,77.2,84.2,77.4z"/>
		</g>
		<path class="st13" d="M80.8,65.7c0-0.3,0-0.5,0-0.8c-3,7.5-3.5,13.7-3.6,13.9l0.6,0c0-0.1,0.5-5.7,3.1-12.7
			C80.9,65.9,80.8,65.8,80.8,65.7z"/>
		<path class="st13" d="M90.7,50.2c-0.1,0,0.1-0.9,0.1-0.9s-0.1,0.3-0.2,0.3C86.7,53.5,84,58,82,62.2c0.2,0,0.4,0.1,0.5,0.3
			c1.9-4.1,4.7-8.5,8.5-12.3C91.9,49.2,90.9,50.2,90.7,50.2z"/>
		<g>
			<path class="st14" d="M85.9,70.7c-0.1,2-1.8,3.5-3.8,3.4c-2-0.1-3.5-1.8-3.4-3.8c0.1-2,1.8-3.5,3.8-3.4
				C84.5,66.9,86,68.6,85.9,70.7z"/>
			<ellipse transform="matrix(0.935 0.3547 -0.3547 0.935 29.7733 -25.0234)" class="st15" cx="83.1" cy="68.7" rx="2.3" ry="1.5"/>
			<path class="st14" d="M84.5,68.8c-0.2,0.4-0.8,0.6-1.5,0.4c-0.6-0.2-1-0.8-0.8-1.3c0.2-0.5,0.8-0.6,1.5-0.4
				C84.3,67.8,84.7,68.3,84.5,68.8z"/>
		</g>
		<g>
			<path class="st15" d="M80.4,72.3c1.5,1,2,3,1,4.5c-1,1.5-3,2-4.5,1c-1.5-1-2-3-1-4.5C76.9,71.8,78.9,71.3,80.4,72.3z"/>
			<path class="st14" d="M79.3,72.3c0.5,0.6,0.2,1.6-0.6,2.4c-0.9,0.7-1.9,0.8-2.4,0.3c-0.5-0.6-0.2-1.6,0.6-2.4
				C77.7,71.9,78.8,71.7,79.3,72.3z"/>
			<path class="st15" d="M78.4,72.6c0.3,0.3,0.1,0.9-0.3,1.3c-0.5,0.4-1.1,0.5-1.3,0.1c-0.3-0.3-0.1-0.9,0.3-1.3
				C77.5,72.3,78.1,72.3,78.4,72.6z"/>
		</g>
		<g>
			<path class="st14" d="M76.2,68.2c1.1,0.7,1.5,2.2,0.8,3.3c-0.7,1.1-2.2,1.5-3.3,0.8c-1.1-0.7-1.4-2.2-0.8-3.3
				C73.6,67.8,75.1,67.5,76.2,68.2z"/>
			<path class="st15" d="M75.3,68.2c0.4,0.4,0.2,1.2-0.5,1.7c-0.6,0.5-1.4,0.6-1.8,0.2c-0.4-0.4-0.2-1.2,0.5-1.7
				C74.2,67.8,74.9,67.7,75.3,68.2z"/>
			
				<ellipse transform="matrix(0.7588 -0.6514 0.6514 0.7588 -27.0093 64.8547)" class="st14" cx="74.1" cy="68.9" rx="0.8" ry="0.6"/>
		</g>
		<g>
			<path class="st15" d="M78.9,61.9c1.1,0.7,1.5,2.2,0.8,3.3c-0.7,1.1-2.2,1.5-3.3,0.8c-1.1-0.7-1.5-2.2-0.8-3.3
				C76.3,61.6,77.8,61.2,78.9,61.9z"/>
			<path class="st14" d="M78,61.9c0.4,0.4,0.2,1.2-0.5,1.7c-0.6,0.5-1.4,0.6-1.8,0.2c-0.4-0.4-0.2-1.2,0.5-1.7
				C76.9,61.6,77.7,61.5,78,61.9z"/>
			<path class="st15" d="M77.4,62.1c0.2,0.2,0.1,0.7-0.2,1c-0.3,0.3-0.8,0.3-1,0.1c-0.2-0.2-0.1-0.7,0.2-1
				C76.8,61.9,77.2,61.9,77.4,62.1z"/>
		</g>
		<g>
			<path class="st14" d="M81.1,52.6c1.3-0.3,2.5,0.5,2.8,1.8c0.3,1.3-0.5,2.5-1.8,2.8c-1.3,0.3-2.6-0.5-2.8-1.8
				C79,54.2,79.8,52.9,81.1,52.6z"/>
			<path class="st15" d="M80.4,53.2c0.5,0,0.9,0.7,0.9,1.5c-0.1,0.8-0.6,1.4-1.1,1.4c-0.5,0-0.9-0.7-0.9-1.5
				C79.4,53.8,79.9,53.2,80.4,53.2z"/>
			<path class="st14" d="M80.1,53.8c0.3,0,0.5,0.4,0.5,0.8c0,0.4-0.3,0.8-0.6,0.8c-0.3,0-0.5-0.4-0.5-0.9
				C79.5,54.1,79.8,53.8,80.1,53.8z"/>
		</g>
		<g>
			<path class="st15" d="M88,65.4c-0.9,1.4-2.7,1.8-4.1,0.9c-1.4-0.9-1.8-2.7-0.9-4.1c0.9-1.4,2.7-1.8,4.1-0.9
				C88.5,62.1,88.9,64,88,65.4z"/>
			
				<ellipse transform="matrix(0.6455 0.7637 -0.7637 0.6455 78.809 -44.0334)" class="st14" cx="86.8" cy="62.9" rx="1.8" ry="1.2"/>
			<path class="st15" d="M87.8,63.5c-0.3,0.3-0.8,0.1-1.2-0.3c-0.4-0.4-0.4-1-0.1-1.2c0.3-0.3,0.8-0.1,1.2,0.3
				C88,62.7,88.1,63.2,87.8,63.5z"/>
		</g>
	</g>
</g>
<g id="brusnika">
	<path class="st16" d="M118.4,67.2c0.1,0.4-0.2,0.8-0.7,1c-0.5,0.2-1,0-1.2-0.3c-0.1-0.4,0.2-0.8,0.7-1
		C117.8,66.6,118.3,66.8,118.4,67.2"/>
	<g>
		<g>
			<path class="st12" d="M143.9,49.6c-0.4-3.6-2.8-3.5-4.6-1.5c-5,5.5-1.1,7.9-0.8,8.1c0-0.1-0.4-1.1,0.1-2.2
				c-0.1-0.2-0.7-1.6-0.6-2.6l0.1-0.5l0,0.5c0,0.4,0,1.3,0.6,2.2c0.1-0.2,0.3-0.5,0.5-0.7c-0.2-0.3-0.8-1.4-0.6-2.5c0,0,0-0.2,0-0.3
				c0-0.1,0.2-0.6,0.2-0.6l-0.1,0.9c-0.1,0.5,0,1.3,0.7,2.2l0,0c0.2-0.2,0.5-0.5,0.7-0.8c-0.2-0.2-1-1.2-0.7-2.6l0.1-0.3l0.1-0.3
				l0,0.6c-0.1,0.5-0.1,1.6,0.7,2.3c0.2-0.3,0.4-0.6,0.5-0.9c0,0,0,0,0,0c-0.1,0-0.8-0.8-0.5-2.3c0,0,0-0.1,0.1-0.3
				c0-0.1,0.2-0.3,0.2-0.3l-0.1,0.6c0,0.5-0.1,1.7,0.5,2.1c0.7-1.6,0.6-3.1,0.6-3.1l0-0.4c0,0,0.1,0.3,0.2,0.4c0,0,0.1,0.7-0.1,1.7
				c0.6-0.4,0.8-1.1,0.8-1.1l0-0.3l0.1,0.3c-0.1,0.6-0.9,1.3-1,1.4c-0.2,0.7-0.4,1.4-0.8,2c1.9-0.1,2.4-1.3,2.4-1.3l0.1-0.3l0,0.4
				c-0.5,1.3-2.4,1.5-2.7,1.5c0,0-0.1,0.1-0.1,0.1l-0.1,0.1c-0.1,0.1-0.2,0.3-0.4,0.4c1.5,0.4,3.2-0.8,3.2-0.8l0.2-0.2
				c0,0-0.1,0.3-0.5,0.6c-1.5,1-3.1,0.7-3.2,0.7c-0.2,0.3-0.5,0.6-0.7,0.9c0.4,0.1,2,0.2,3.2-0.3l0.1,0l0,0.1l0-0.1l0.3-0.2
				l-0.4,0.4c-0.5,0.2-2,0.8-3.4,0.4c-0.2,0.3-0.3,0.7-0.4,1.1c0.1,0.1,0.2,0.1,0.3,0.1c1.2,0.4,2.3-0.2,2.9-0.6l0.5-0.3l-0.4,0.4
				c-1.6,1.2-2.8,0.9-3.2,0.8c0,0-0.1,0-0.1,0c0,0.4,0.1,1,0.1,1.1l0.2,0.1C143.4,54.9,144.2,52.3,143.9,49.6z"/>
			<path class="st12" d="M150.2,57.9c2.7-1.2,2-3.1-0.1-3.9c-5.5-2.4-6.3,1.2-6.4,1.5c0.1-0.1,0.7-0.6,1.7-0.5c0.1-0.1,1-1,1.8-1.1
				l0.4,0l-0.4,0.1c-0.3,0.1-1,0.3-1.5,1c0.2,0,0.4,0.1,0.6,0.2c0.2-0.2,0.9-1,1.8-1.1c0,0,0.2,0,0.2,0c0.1,0,0.5,0,0.5,0l-0.7,0.2
				c-0.4,0.1-1,0.3-1.5,1.1l0,0c0.2,0.1,0.5,0.2,0.8,0.3c0.1-0.2,0.7-1,1.8-1.2l0.2,0l0.2,0l-0.4,0.1c-0.4,0.1-1.3,0.3-1.6,1.2
				c0.3,0.1,0.6,0.1,0.8,0.2c0,0,0,0,0,0c0-0.1,0.4-0.8,1.7-1c0,0,0.1,0,0.3,0c0.1,0,0.2,0.1,0.2,0.1l-0.5,0
				c-0.4,0.1-1.3,0.4-1.5,0.9c1.4,0.1,2.5-0.3,2.5-0.3l0.3-0.1c0,0-0.2,0.2-0.2,0.2c0,0-0.5,0.2-1.3,0.4c0.4,0.4,1,0.4,1,0.4
				l0.2-0.1l-0.2,0.2c-0.5,0.1-1.3-0.3-1.4-0.4c-0.6,0.1-1.2,0.1-1.7-0.1c0.6,1.4,1.6,1.5,1.6,1.5l0.3,0l-0.3,0.1
				c-1.1,0-1.8-1.5-1.9-1.7c0,0-0.1,0-0.1,0l-0.1,0c-0.1,0-0.3-0.1-0.4-0.2c0.1,1.3,1.4,2.3,1.4,2.3l0.2,0.1c0,0-0.3,0-0.6-0.2
				c-1.2-0.9-1.4-2.2-1.4-2.3c-0.3-0.1-0.6-0.2-0.9-0.3c0.1,0.3,0.4,1.6,1,2.4l0.1,0.1l0,0l0,0l0.2,0.2l-0.4-0.2
				c-0.3-0.3-1.1-1.3-1.2-2.5c-0.3,0-0.6,0-0.9,0c0,0.1,0,0.2,0,0.3c0,1,0.8,1.7,1.2,2l0.4,0.3l-0.4-0.2c-1.3-0.9-1.5-1.9-1.5-2.3
				c0,0,0-0.1,0-0.1c-0.3,0.1-0.8,0.4-0.8,0.4l0,0.2C146,58.8,148.2,58.8,150.2,57.9z"/>
			<path class="st12" d="M143,58.8c1.6-0.1,1.6-1.2,0.7-2c-2.4-2.2-3.4-0.6-3.5-0.4c0.1,0,0.5-0.2,1,0.1c0.1,0,0.7-0.3,1.1-0.2
				l0.2,0.1l-0.2,0c-0.2,0-0.5,0-1,0.2c0.1,0.1,0.2,0.1,0.3,0.2c0.1-0.1,0.6-0.3,1.1-0.2c0,0,0.1,0,0.1,0c0,0,0.3,0.1,0.3,0.1
				l-0.4-0.1c-0.2,0-0.6,0-1,0.3l0,0c0.1,0.1,0.2,0.2,0.3,0.3c0.1-0.1,0.5-0.4,1.1-0.3l0.1,0l0.1,0l-0.2,0c-0.2,0-0.7-0.1-1,0.3
				c0.1,0.1,0.3,0.2,0.4,0.2l0,0c0,0,0.4-0.3,1-0.2c0,0,0.1,0,0.1,0.1c0,0,0.1,0.1,0.1,0.1l-0.3-0.1c-0.2,0-0.7,0-0.9,0.2
				c0.7,0.3,1.3,0.3,1.3,0.3l0.2,0c0,0-0.1,0.1-0.2,0.1c0,0-0.3,0-0.7-0.1c0.2,0.3,0.5,0.4,0.5,0.4l0.1,0l-0.1,0
				c-0.3,0-0.6-0.4-0.6-0.5c-0.3-0.1-0.6-0.2-0.9-0.4c0,0.8,0.5,1.1,0.5,1.1l0.1,0.1h-0.2c-0.6-0.2-0.6-1.1-0.6-1.2c0,0,0,0-0.1,0
				l0,0c-0.1,0-0.1-0.1-0.2-0.2c-0.2,0.7,0.3,1.4,0.3,1.4l0.1,0.1c0,0-0.1-0.1-0.3-0.2c-0.4-0.7-0.3-1.4-0.3-1.4
				c-0.1-0.1-0.2-0.2-0.4-0.3c0,0.2-0.1,0.9,0.1,1.4l0,0l0,0l0,0l0.1,0.1l-0.2-0.2c-0.1-0.2-0.3-0.9-0.1-1.5
				c-0.1-0.1-0.3-0.1-0.5-0.2c0,0.1,0,0.1-0.1,0.1c-0.2,0.5,0.1,1,0.2,1.3l0.1,0.2l-0.2-0.2c-0.5-0.7-0.4-1.2-0.3-1.4c0,0,0,0,0-0.1
				c-0.2,0-0.4,0-0.5,0.1l0,0.1C140.7,58.5,141.8,58.9,143,58.8z"/>
			<path class="st12" d="M139.3,62.5c3-0.2,3-2.3,1.4-3.8c-4.5-4.3-6.6-1.1-6.7-0.8c0.1,0,0.9-0.3,1.9,0.2c0.2-0.1,1.3-0.6,2.2-0.4
				l0.4,0.1l-0.4,0c-0.4,0-1.1,0-1.8,0.5c0.2,0.1,0.4,0.2,0.5,0.4c0.2-0.1,1.2-0.6,2.1-0.4c0,0,0.2,0,0.2,0c0.1,0,0.5,0.2,0.5,0.2
				l-0.8-0.1c-0.4-0.1-1.1,0-1.8,0.5l0,0c0.2,0.2,0.4,0.4,0.6,0.6c0.2-0.2,1-0.8,2.2-0.5l0.2,0.1l0.2,0.1l-0.5,0
				c-0.4-0.1-1.4-0.2-1.9,0.6c0.2,0.2,0.5,0.3,0.8,0.5l0,0c0-0.1,0.7-0.7,2-0.4c0,0,0.1,0,0.3,0.1c0.1,0,0.2,0.1,0.2,0.1l-0.5-0.1
				c-0.4,0-1.4-0.1-1.8,0.4c1.3,0.6,2.6,0.6,2.6,0.6l0.3,0c0,0-0.2,0.1-0.3,0.1c0,0-0.6,0-1.4-0.1c0.3,0.5,0.9,0.7,0.9,0.7l0.2,0
				l-0.3,0.1c-0.5-0.1-1.1-0.8-1.2-0.9c-0.6-0.1-1.2-0.4-1.6-0.7c0,1.6,1,2,1,2l0.3,0.1l-0.3,0c-1.1-0.4-1.2-2.1-1.2-2.3
				c0,0-0.1-0.1-0.1-0.1l-0.1-0.1c-0.1-0.1-0.2-0.2-0.3-0.3c-0.4,1.3,0.6,2.7,0.6,2.7l0.2,0.2c0,0-0.3-0.1-0.5-0.4
				c-0.8-1.2-0.5-2.6-0.5-2.7c-0.2-0.2-0.5-0.4-0.7-0.6c-0.1,0.3-0.2,1.7,0.2,2.7l0,0.1l-0.1,0l0.1,0l0.1,0.3l-0.3-0.3
				c-0.2-0.4-0.6-1.7-0.3-2.9c-0.3-0.2-0.6-0.3-0.9-0.3c0,0.1-0.1,0.2-0.1,0.3c-0.4,1,0.1,1.9,0.4,2.4l0.3,0.4l-0.4-0.4
				c-0.9-1.4-0.7-2.4-0.6-2.7c0,0,0-0.1,0-0.1c-0.4,0-0.9,0.1-0.9,0.1l-0.1,0.2C134.9,61.9,137,62.6,139.3,62.5z"/>
			<path class="st12" d="M133.6,52.9c-0.4-3.3-2.6-3.2-4.3-1.3c-4.5,5.1-1,7.3-0.6,7.5c-0.1-0.1-0.4-1,0.1-2.1
				c-0.1-0.2-0.7-1.4-0.6-2.4l0.1-0.5l0,0.5c0,0.4,0,1.2,0.6,2c0.1-0.2,0.3-0.4,0.4-0.6c-0.1-0.2-0.7-1.3-0.5-2.3c0,0,0-0.2,0-0.2
				c0-0.1,0.2-0.6,0.2-0.6l-0.1,0.8c-0.1,0.5,0,1.2,0.7,2l0,0c0.2-0.2,0.4-0.4,0.6-0.7c-0.2-0.2-0.9-1.1-0.6-2.4l0.1-0.2l0.1-0.3
				l0,0.5c-0.1,0.4-0.1,1.5,0.7,2.1c0.2-0.3,0.3-0.6,0.5-0.8c0,0,0,0,0,0c-0.1,0-0.8-0.7-0.5-2.2c0,0,0-0.1,0.1-0.3
				c0-0.1,0.1-0.2,0.1-0.2l-0.1,0.5c0,0.5,0,1.5,0.5,1.9c0.6-1.5,0.6-2.8,0.6-2.8l0-0.4c0,0,0.1,0.3,0.2,0.3c0,0,0.1,0.7-0.1,1.5
				c0.6-0.3,0.8-1,0.8-1l0-0.3l0.1,0.3c-0.1,0.6-0.8,1.2-0.9,1.3c-0.1,0.7-0.4,1.3-0.7,1.8c1.7-0.1,2.2-1.2,2.2-1.2l0.1-0.3l0,0.4
				c-0.4,1.2-2.2,1.4-2.5,1.4c0,0-0.1,0.1-0.1,0.1l-0.1,0.1c-0.1,0.1-0.2,0.3-0.3,0.4c1.4,0.4,3-0.7,3-0.8l0.2-0.2
				c0,0-0.1,0.3-0.5,0.6c-1.3,1-2.9,0.7-3,0.7c-0.2,0.3-0.5,0.5-0.6,0.8c0.4,0,1.9,0.2,2.9-0.3l0.1,0l0,0.1l0-0.1l0.3-0.2l-0.4,0.3
				c-0.4,0.2-1.9,0.8-3.1,0.4c-0.2,0.3-0.3,0.6-0.3,1c0.1,0,0.2,0.1,0.3,0.1c1.1,0.4,2.1-0.2,2.6-0.6l0.4-0.3l-0.4,0.4
				c-1.5,1.1-2.6,0.9-3,0.8c0,0-0.1,0-0.1,0c0,0.4,0.1,0.9,0.1,1l0.2,0.1C133.2,57.7,133.9,55.4,133.6,52.9z"/>
			<path class="st12" d="M130.6,60c-0.2-2.1-1.7-2-2.7-0.8c-2.9,3.2-0.6,4.6-0.4,4.7c0-0.1-0.2-0.6,0.1-1.3
				c-0.1-0.1-0.4-0.9-0.4-1.5l0.1-0.3l0,0.3c0,0.2,0,0.7,0.4,1.3c0.1-0.1,0.2-0.3,0.3-0.4c-0.1-0.2-0.5-0.8-0.3-1.4c0,0,0-0.1,0-0.2
				c0,0,0.1-0.4,0.1-0.4l-0.1,0.5c0,0.3,0,0.8,0.4,1.3l0,0c0.1-0.1,0.3-0.3,0.4-0.4c-0.1-0.1-0.6-0.7-0.4-1.5l0-0.1l0-0.2l0,0.3
				c0,0.3-0.1,1,0.4,1.3c0.1-0.2,0.2-0.3,0.3-0.5c0,0,0,0,0,0c0,0-0.5-0.5-0.3-1.4c0,0,0-0.1,0.1-0.2c0,0,0.1-0.2,0.1-0.2l-0.1,0.3
				c0,0.3,0,1,0.3,1.2c0.4-0.9,0.4-1.8,0.4-1.8l0-0.2c0,0,0.1,0.2,0.1,0.2c0,0,0,0.4,0,1c0.3-0.2,0.5-0.6,0.5-0.6l0-0.2l0.1,0.2
				c0,0.4-0.5,0.8-0.6,0.8c-0.1,0.4-0.2,0.8-0.4,1.1c1.1-0.1,1.4-0.8,1.4-0.8l0.1-0.2l0,0.2c-0.3,0.8-1.4,0.9-1.6,0.9
				c0,0,0,0-0.1,0.1l0,0c-0.1,0.1-0.1,0.2-0.2,0.2c0.9,0.2,1.9-0.5,1.9-0.5l0.1-0.1c0,0-0.1,0.2-0.3,0.4c-0.8,0.6-1.8,0.4-1.9,0.4
				c-0.1,0.2-0.3,0.3-0.4,0.5c0.2,0,1.2,0.1,1.9-0.2l0.1,0l0,0l0,0L130,62l-0.2,0.2c-0.3,0.1-1.2,0.5-2,0.3
				c-0.1,0.2-0.2,0.4-0.2,0.6c0.1,0,0.1,0.1,0.2,0.1c0.7,0.2,1.3-0.1,1.7-0.4l0.3-0.2l-0.2,0.3c-0.9,0.7-1.6,0.6-1.9,0.5
				c0,0-0.1,0-0.1,0c0,0.3,0.1,0.6,0.1,0.6l0.1,0C130.4,63.1,130.8,61.6,130.6,60z"/>
			<path class="st12" d="M132.3,69.3c3.1-0.2,3.1-2.3,1.4-3.9c-4.6-4.4-6.7-1.1-6.9-0.8c0.1,0,1-0.3,1.9,0.2
				c0.2-0.1,1.4-0.6,2.2-0.5l0.4,0.1l-0.4,0c-0.4,0-1.1,0-1.9,0.5c0.2,0.1,0.4,0.2,0.6,0.4c0.2-0.1,1.2-0.6,2.1-0.4c0,0,0.2,0,0.2,0
				c0.1,0,0.5,0.2,0.5,0.2l-0.8-0.1c-0.5-0.1-1.1,0-1.9,0.6l0,0c0.2,0.2,0.4,0.4,0.6,0.6c0.2-0.2,1-0.8,2.2-0.5l0.2,0.1l0.2,0.1
				l-0.5,0c-0.4-0.1-1.4-0.2-2,0.6c0.2,0.2,0.5,0.3,0.8,0.5c0,0,0,0,0,0c0-0.1,0.7-0.7,2-0.4c0,0,0.1,0,0.3,0.1
				c0.1,0,0.2,0.1,0.2,0.1l-0.5-0.1c-0.4,0-1.4-0.1-1.8,0.4c1.4,0.6,2.6,0.6,2.6,0.6l0.3,0c0,0-0.2,0.1-0.3,0.1c0,0-0.6,0-1.4-0.1
				c0.3,0.5,0.9,0.7,0.9,0.7l0.2,0l-0.3,0.1c-0.6-0.1-1.1-0.8-1.2-0.9c-0.6-0.1-1.2-0.4-1.7-0.7c0,1.6,1.1,2.1,1.1,2.1l0.3,0.1
				l-0.3,0c-1.1-0.4-1.2-2.1-1.3-2.4c0,0-0.1-0.1-0.1-0.1l-0.1-0.1c-0.1-0.1-0.2-0.2-0.3-0.3c-0.4,1.3,0.6,2.8,0.6,2.8l0.2,0.2
				c0,0-0.3-0.1-0.5-0.4c-0.8-1.3-0.6-2.7-0.5-2.8c-0.2-0.2-0.5-0.5-0.8-0.6c-0.1,0.3-0.2,1.7,0.2,2.7l0,0.1l-0.1,0l0.1,0l0.2,0.3
				l-0.3-0.3c-0.2-0.4-0.6-1.8-0.3-2.9c-0.3-0.2-0.6-0.3-0.9-0.3c0,0.1-0.1,0.2-0.1,0.3c-0.4,1,0.1,2,0.5,2.5l0.3,0.4l-0.4-0.4
				c-1-1.4-0.8-2.4-0.6-2.8c0,0,0-0.1,0-0.1c-0.4,0-0.9,0.1-0.9,0.1l-0.1,0.2C127.8,68.7,130,69.4,132.3,69.3z"/>
			<path class="st12" d="M129.1,73.2c2.9,0.7,3.3-1.1,2-3c-3.6-5.1-6.1-2.9-6.4-2.7c0.1,0,0.9,0,1.8,0.7c0.2,0,1.4-0.1,2.2,0.3
				l0.4,0.2l-0.4-0.1c-0.3-0.1-1-0.3-1.9-0.1c0.2,0.2,0.3,0.3,0.5,0.5c0.2,0,1.2-0.2,2.1,0.2c0,0,0.2,0.1,0.2,0.1
				c0,0,0.5,0.3,0.5,0.3l-0.7-0.3c-0.4-0.2-1.1-0.4-1.9-0.1l0,0c0.1,0.2,0.3,0.5,0.5,0.7c0.2-0.1,1.1-0.4,2.2,0.2l0.2,0.1l0.2,0.1
				l-0.5-0.1c-0.4-0.2-1.3-0.5-2-0.1c0.2,0.2,0.4,0.4,0.6,0.6c0,0,0,0,0,0c0,0,0.8-0.4,2,0.3c0,0,0.1,0.1,0.2,0.2
				c0.1,0.1,0.2,0.2,0.2,0.2l-0.4-0.3c-0.4-0.2-1.3-0.5-1.8-0.2c1.2,0.9,2.4,1.3,2.4,1.3l0.3,0.1c0,0-0.2,0-0.3,0
				c0,0-0.6-0.1-1.3-0.5c0.2,0.5,0.7,0.9,0.7,0.9l0.2,0.1l-0.3,0c-0.5-0.2-0.9-1-1-1.1c-0.6-0.3-1.1-0.7-1.5-1.1
				c-0.2,1.4,0.6,2.1,0.6,2.1l0.3,0.2l-0.3-0.1c-1-0.7-0.8-2.2-0.8-2.4c0,0-0.1-0.1-0.1-0.1l-0.1-0.1c-0.1-0.1-0.2-0.2-0.3-0.4
				c-0.6,1,0.1,2.5,0.1,2.6l0.1,0.2c0,0-0.3-0.2-0.4-0.5c-0.6-1.3-0.1-2.5,0-2.5c-0.2-0.2-0.4-0.5-0.6-0.8c-0.1,0.3-0.5,1.4-0.3,2.4
				l0,0.1l-0.1,0l0.1,0l0.1,0.3l-0.2-0.4c-0.1-0.4-0.3-1.7,0.2-2.6c-0.2-0.2-0.5-0.4-0.8-0.5c-0.1,0.1-0.1,0.1-0.2,0.2
				c-0.5,0.7-0.2,1.7,0,2.2l0.2,0.4l-0.3-0.4c-0.7-1.5-0.3-2.3-0.1-2.6c0,0,0-0.1,0.1-0.1c-0.3-0.1-0.8-0.2-0.9-0.2l-0.1,0.2
				C124.9,71.4,126.8,72.7,129.1,73.2z"/>
			<path class="st12" d="M122.5,52.2c-3-2.7-4.5-0.8-4.2,2.2c1,8.3,5.3,7.3,5.7,7.2c-0.1-0.1-1.1-0.6-1.6-1.9
				c-0.2-0.1-1.7-0.8-2.4-1.7l-0.3-0.5l0.4,0.4c0.3,0.4,1,1,2.1,1.3c-0.1-0.3-0.2-0.6-0.2-0.9c-0.3-0.1-1.6-0.6-2.3-1.6
				c0,0-0.1-0.2-0.2-0.2c0-0.1-0.3-0.7-0.3-0.7l0.6,0.8c0.4,0.5,1,1.1,2.1,1.3l0,0c0-0.4-0.1-0.7-0.1-1.1c-0.3,0-1.5-0.2-2.4-1.6
				l-0.2-0.3l-0.2-0.3l0.4,0.5c0.3,0.4,1.2,1.5,2.2,1.3c-0.1-0.4-0.2-0.8-0.4-1.1c0,0,0,0,0,0c-0.1,0-1.2,0-2.1-1.6
				c0,0-0.1-0.1-0.2-0.3c0-0.1-0.1-0.3-0.1-0.3l0.4,0.6c0.4,0.4,1.2,1.4,1.9,1.4c-0.8-1.8-1.9-3-2-3l-0.3-0.3c0,0,0.3,0.1,0.4,0.2
				c0,0,0.6,0.5,1.2,1.4c0.1-0.7-0.3-1.5-0.3-1.5l-0.2-0.3l0.3,0.2c0.4,0.6,0.4,1.8,0.4,2c0.5,0.7,0.8,1.5,1,2.2
				c1.2-1.5,0.6-2.8,0.6-2.9l-0.2-0.4l0.3,0.3c0.7,1.4-0.4,3-0.6,3.3c0,0.1,0,0.1,0,0.2l0,0.1c0,0.2,0.1,0.4,0.1,0.6
				c1.3-0.8,1.5-3,1.5-3.1l0-0.3c0,0,0.2,0.4,0.1,0.9c-0.2,1.9-1.5,2.9-1.6,3c0.1,0.4,0.1,0.9,0.2,1.3c0.3-0.3,1.5-1.3,1.9-2.6
				l0-0.1l0.1,0l-0.1,0l0.1-0.4l0,0.6c-0.1,0.5-0.7,2.2-1.9,2.9c0.2,0.4,0.3,0.8,0.6,1.1c0.1,0,0.2-0.1,0.3-0.1
				c1.1-0.5,1.3-1.9,1.4-2.6l0.1-0.6l0.1,0.7c-0.2,2.2-1.1,2.9-1.5,3.1c0,0-0.1,0-0.1,0.1c0.3,0.4,0.9,0.8,0.9,0.8l0.2-0.1
				C126.2,56.9,124.8,54.2,122.5,52.2z"/>
			<path class="st12" d="M122.2,71.1c1.4,1.5,2.2,0.6,2.2-0.9c-0.1-4.1-2.3-3.9-2.5-3.8c0.1,0,0.5,0.4,0.7,1
				c0.1,0.1,0.8,0.5,1.1,0.9l0.1,0.3l-0.2-0.2c-0.1-0.2-0.4-0.6-1-0.8c0,0.1,0.1,0.3,0.1,0.4c0.1,0.1,0.7,0.4,1,0.9
				c0,0,0.1,0.1,0.1,0.1c0,0,0.1,0.3,0.1,0.3l-0.3-0.4c-0.2-0.3-0.5-0.6-1-0.7l0,0c0,0.2,0,0.4,0,0.6c0.1,0,0.7,0.2,1.1,0.9l0.1,0.1
				l0.1,0.2l-0.2-0.2c-0.1-0.2-0.5-0.8-1-0.8c0,0.2,0.1,0.4,0.1,0.6l0,0c0,0,0.6,0.1,1,0.9c0,0,0,0.1,0.1,0.2c0,0.1,0,0.2,0,0.2
				l-0.1-0.3c-0.2-0.2-0.5-0.8-0.9-0.8c0.3,0.9,0.8,1.6,0.8,1.6l0.1,0.2c0,0-0.1-0.1-0.2-0.1c0,0-0.3-0.3-0.5-0.8
				c-0.1,0.4,0.1,0.8,0.1,0.8l0.1,0.1l-0.1-0.1c-0.2-0.3-0.1-0.9-0.1-1c-0.2-0.4-0.3-0.8-0.4-1.1c-0.7,0.7-0.4,1.4-0.4,1.4l0.1,0.2
				l-0.1-0.2c-0.3-0.7,0.4-1.5,0.5-1.6c0,0,0-0.1,0-0.1l0-0.1c0-0.1,0-0.2,0-0.3c-0.7,0.3-0.9,1.4-0.9,1.4v0.2c0,0-0.1-0.2,0-0.4
				c0.2-0.9,0.9-1.4,0.9-1.4c0-0.2,0-0.4-0.1-0.6c-0.2,0.1-0.8,0.6-1.1,1.2l0,0.1l0,0l0,0l-0.1,0.2l0-0.3c0.1-0.2,0.5-1,1.1-1.3
				c-0.1-0.2-0.1-0.4-0.2-0.6c-0.1,0-0.1,0-0.2,0.1c-0.5,0.2-0.8,0.9-0.8,1.2l-0.1,0.3l0-0.3c0.2-1.1,0.7-1.4,0.9-1.4c0,0,0,0,0.1,0
				c-0.1-0.2-0.4-0.4-0.4-0.4l-0.1,0C120.6,68.6,121.1,70,122.2,71.1z"/>
		</g>
		<path class="st13" d="M127,60.6c0.2-0.2,0.3-0.4,0.5-0.6c-6.8,3.5-11.1,7.7-11.1,7.7l0.4,0.4c0.1-0.1,3.9-3.8,10.1-7.2
			C126.9,60.8,126.9,60.7,127,60.6z"/>
		<path class="st13" d="M143.8,55.6c-0.1-0.1,0.6-0.6,0.6-0.6s-0.3,0.1-0.3,0.1c-5.2,0.4-10,1.8-14,3.6c0.1,0.1,0.2,0.3,0.2,0.5
			c4-1.8,8.6-3.2,13.8-3.6C145.2,55.7,143.9,55.8,143.8,55.6z"/>
		<path class="st17" d="M130.7,67c-1.4,1.4-3.7,1.5-5.1,0.1c-1.4-1.4-1.5-3.7-0.1-5.1c1.4-1.4,3.7-1.5,5.1-0.1
			C132.1,63.3,132.1,65.5,130.7,67"/>
		<path class="st16" d="M130.9,64.7c-0.4,0.2-1-0.1-1.3-0.7c-0.3-0.6-0.3-1.3,0.2-1.5c0.4-0.2,1,0.1,1.3,0.7
			C131.4,63.8,131.3,64.5,130.9,64.7"/>
		<path class="st17" d="M125.6,64.7c0.5,1.7-0.4,3.5-2.1,4.1c-1.7,0.5-3.5-0.4-4.1-2.1c-0.5-1.7,0.4-3.5,2.1-4.1
			C123.3,62,125.1,63,125.6,64.7"/>
		<path class="st16" d="M123.9,63.6c0,0.4-0.5,0.8-1.1,0.8c-0.6,0-1.1-0.3-1.1-0.8c0-0.4,0.5-0.8,1.1-0.8
			C123.4,62.8,123.9,63.1,123.9,63.6"/>
		<path class="st17" d="M125.1,58.7c0.4,1.2-0.3,2.6-1.5,3c-1.2,0.4-2.6-0.3-3-1.5c-0.4-1.2,0.3-2.6,1.5-3
			C123.4,56.8,124.7,57.5,125.1,58.7"/>
		<path class="st17" d="M131.2,55.8c0.4,1.2-0.3,2.6-1.5,3c-1.2,0.4-2.6-0.3-3-1.5c-0.4-1.2,0.3-2.6,1.5-3
			C129.5,53.9,130.8,54.5,131.2,55.8"/>
		<path class="st16" d="M129.9,55c0,0.3-0.4,0.6-0.8,0.6c-0.4,0-0.8-0.2-0.8-0.6c0-0.3,0.4-0.6,0.8-0.6
			C129.6,54.4,129.9,54.7,129.9,55"/>
		<path class="st17" d="M138.9,50.2c1.2,0.6,1.6,2,1,3.2c-0.6,1.2-2,1.6-3.2,1c-1.2-0.6-1.6-2-1-3.2C136.4,50,137.8,49.6,138.9,50.2
			"/>
		<path class="st16" d="M137.5,50.5c0.2,0.2,0.1,0.7-0.2,1c-0.3,0.3-0.7,0.4-1,0.2c-0.2-0.2-0.1-0.7,0.2-1
			C136.8,50.4,137.3,50.3,137.5,50.5"/>
		<path class="st17" d="M135.9,64.3c-1.6,0.5-3.2-0.4-3.7-1.9c-0.5-1.6,0.4-3.2,1.9-3.7c1.6-0.5,3.2,0.4,3.7,1.9
			C138.3,62.2,137.5,63.9,135.9,64.3"/>
		<path class="st16" d="M136.9,62.8c-0.4,0-0.7-0.5-0.7-1c0-0.6,0.3-1,0.7-1c0.4,0,0.7,0.5,0.7,1C137.6,62.3,137.3,62.8,136.9,62.8"
			/>
	</g>
</g>
<g id="vanil">
	<g>
		<path class="st18" d="M208.4,69.4c0,0-1.3,0.9-1.1,1.6c0.3,0.8,1.4,0.1,1.7-0.7c0.3-0.8,3.3-3.3,3.8-3.7c0.5-0.3,7.5-8.9,7.5-8.9
			s12.6-16.1,13.1-18.7c0.5-2.6,2.4-5.4,2.4-5.4l-0.7-0.1c0,0-2.9,5.3-5.9,9.4c-3.1,4.2-16.5,21.4-18.9,23.8
			C208,69.1,208.4,69.4,208.4,69.4z"/>
		<path class="st18" d="M214,70.1c0,0,1,1-0.6,1.4c-1.6,0.5-2.5-1.6-1.6-3.4c0.9-1.8,3.2-3.8,4-5.1c0.8-1.2,1-1.8,2.1-3.7
			c1.1-2,4.5-7,4.5-7l9.5-12.4c0,0,3-1.3,3.8-2.7c0.9-1.4,1.9-3.3-0.4-2.6c-2.2,0.7,1.7-2.3,2.3-0.1c0.6,2.2-3.1,5-5.2,6.7
			c-2.1,1.7-6.9,9.5-6.9,9.5l-1.3,2.5c0,0-5,6.1-5.4,7.2c-0.4,1.2-4.1,6.8-6.1,8.3C211,70.2,213.5,70.5,214,70.1z"/>
		<path class="st19" d="M221,50.9c-0.4-0.4-3.4-3-3.4-3s-1.6-6.5,0.2-7.8c0,0,3.1-0.5,5.7,4.5l-0.1,6.7l-0.6-0.3c0,0-1.3-7-3.9-9.3
			c0,0,4.5,8,3.4,9.6L221,50.9z"/>
		<path class="st19" d="M227.6,54.1c0,0,6.9-0.7,9.3-3.6c0,0-4.7-4.8-10.3-2.6l-2,3.2c0,0,4.6-2,10.5-0.8c0,0-7.4-1.1-10.8,2
			L227.6,54.1z"/>
		<path class="st19" d="M211.9,60.6c0,0,0.1-5.6,4.1-7.9l5,0.1l0.8,0.1c0,0-4.6,1-7.9,5.1c0,0,4.9-4,8.1-4.9l0.6,1.9
			C222.6,55,222,58.4,211.9,60.6z"/>
		<path class="st19" d="M221,53.1c0,0-8.8,0-11-2.8c0,0,4.7-6.6,12.5,0.5l-1,0.7c0,0-5.3-2-8.4-1.6c0,0,6.6,0.5,8.1,2.1L221,53.1z"
			/>
		<path class="st19" d="M222.3,49.4c0,0-2.3-5.6,6.9-8.9c0,0,0.2,0-0.5,3.8c-0.7,3.8-4.4,8.6-4.4,8.6l-0.8-1.2l-0.1-1
			c0,0-0.3-5,4.3-8c0,0-3.9,1.6-4.6,7.7L222.3,49.4z"/>
		<path class="st19" d="M221.2,54.1c0,0-2.8,0.7,1.5,5.2c4.3,4.6,3.8,4,3.8,4s0.6,2.8,1.4-1.1c0.7-3.9,1-8.9-2.7-10.1l-1.7,1.2
			c0,0,3.9,3.2,3.4,8.5c0,0-0.5-6.7-3.7-7.8L221.2,54.1z"/>
		<path d="M221.6,50.4c0,0,0,0.8-0.1,1.1c-0.1,0.2-1.1,1-1.1,1s1.7,0.6,1.4,2c0,0,1-0.9,2-0.1c0,0-0.5-1.3,1.3-2.1
			c0,0-2-1.7-1.4-2.2C223.7,50,222.6,50.9,221.6,50.4z"/>
		<circle cx="223" cy="55.6" r="0.2"/>
		<circle cx="223.7" cy="55.5" r="0.2"/>
		<circle cx="224.9" cy="53.7" r="0.2"/>
		<path class="st20" d="M213.1,49.9c0,0,4.5-3.1,8.5,0.5l-0.1,1.1C221.5,51.5,216,49.7,213.1,49.9z"/>
		<path class="st20" d="M223.7,49.6c0,0,0.3-4.8,4.1-6.7c0,0,0.6,5.3-3.1,8.6C224.7,51.5,223.7,51.2,223.7,49.6z"/>
		<path class="st20" d="M225.5,51.9c0,0,4.2-2.8,11-1.1c0,0-6.7,3.4-9.2,2.8C227.3,53.6,227,52.6,225.5,51.9z"/>
		<path class="st7" d="M222.8,53.1c0,0,0.6,1.1,0.2,2.5c0,0,0.2-1.6-0.4-2.3C222.1,52.6,222.8,53.1,222.8,53.1z"/>
		<path class="st7" d="M223,53c0,0,0.8,0.9,0.7,2.4c0,0-0.1-1.6-0.8-2.2C222.2,52.5,223,53,223,53z"/>
		<path class="st7" d="M223.1,52.5c0,0,1,0.1,1.9,1.2c0,0-1-1.1-1.8-1C222.4,52.8,223.1,52.5,223.1,52.5z"/>
	</g>
</g>
<g id="shipovnik">
	<g>
		<polyline points="181.6,56.4 179.1,61.7 177.8,62.5 174.8,61.7 174,61.2 174.4,62.6 177.8,63.4 178.3,64.2 179.1,63.8 179.2,62.8 
			179.7,62.6 182.2,56.7 		"/>
		<polygon points="181.7,56.9 179.3,62.1 178.7,62.5 179.6,62.3 		"/>
		<path d="M180,61.4l0.7,0.4l1.7,0l-1.6,0.4l0.2,2.3l2.9,3.2c0,0,0.2,0.6-0.3,0.3l-2.5-3.1l-0.7,0l-0.1-0.4l0.3-0.4l-0.2-1.6
			l-0.7-0.4L180,61.4z"/>
		<path class="st21" d="M181.1,56.9c-1.9-2.2-1.9-5.3,0.1-6.9c2-1.6,5.2-1.1,7.1,1.1c1.9,2.2,1.9,5.3-0.1,6.9
			C186.2,59.6,183,59.1,181.1,56.9z"/>
		
			<ellipse transform="matrix(0.3737 0.9276 -0.9276 0.3737 160.9827 -123.1095)" class="st21" cx="171.6" cy="57.6" rx="5.8" ry="5.3"/>
		
			<ellipse transform="matrix(-0.2882 0.9576 -0.9576 -0.2882 293.7624 -79.4883)" class="st21" cx="176.4" cy="69.4" rx="5.5" ry="5.3"/>
		<ellipse transform="matrix(-0.5651 0.825 -0.825 -0.5651 334.8383 -74.6531)" cx="187.1" cy="50.9" rx="1.3" ry="1.7"/>
		
			<ellipse transform="matrix(3.245186e-02 0.9995 -0.9995 3.245186e-02 242.5244 -105.7633)" cx="175.9" cy="72.4" rx="1.8" ry="1.9"/>
		
			<ellipse transform="matrix(3.256150e-02 0.9995 -0.9995 3.256150e-02 220.1939 -120.0706)" cx="172.1" cy="53.7" rx="1.5" ry="1.7"/>
		<path d="M187.6,52c0,0,2.7,0.3,4.5-2.5c0,0-2.1,3.2-5.8,1.5c0,0,0.4-1.9,2.8-3c2.4-1.1,3.2-3.4,3.2-3.4s-1.8,2.8-3.2,3.1
			c0,0-3.1,0.1-2.7,3.1"/>
		<path d="M186.2,51c0,0,0.7-4.3,4.4-5.8c0,0-3.1,1.9-3.4,5c0,0,1.5,0.5,2.6-1.3c1.1-1.7,3-2.1,3-2.1s-1.7,1.1-2,2.2
			c0,0-1.4,3.1-3.7,2.5"/>
		<g>
			<path d="M176.6,70.8c2.2,1.5,1.3,2.6,1.3,2.6c-0.7,0.7-0.2,2.1-0.2,2.1s-1.3-1.1-0.7-2.6c0.6-1.5-1.1-2-1.1-2
				c-2.5,1.8-1.5,4.3-1.5,4.3c-1.1-1.8,0-4,0-4S175.5,70.1,176.6,70.8z"/>
			<path d="M177.2,72.4c0,0,0,2-1,2.8c0,0,1.1-1.4,0.2-3.7c0,0-1-0.4-1.1,0.9c0,1.3-1,1.6-1,1.6s0.6-0.8,0.4-1.6
				c0,0-0.3-1.8,1.3-1.3C176.1,71.1,177,70.8,177.2,72.4z"/>
		</g>
		<g>
			<path d="M171.4,54.7c0,0,1.7-2.1-0.2-4.8c0,0,1.5,2.3-0.5,4.6c0,0-1.8-0.1-1.5-1.7c0.3-1.6-1.2-2.4-1.2-2.4s0.8,1.3,0.3,2.1
				c0,0-0.8,2.1,1.9,2.3"/>
			<path d="M170.5,54.6c0,0-2.4,0.5-3.3-3.3c0,0,0,2.1,2.4,2.8c0,0,1.1-0.8,0.2-1.7c-0.9-0.9-0.3-2.1-0.3-2.1s0.1,1.2,0.8,1.5
				c0,0,2,1.4,0.3,2.7"/>
		</g>
		<polyline points="181.9,65.7 182.6,65.3 182.1,65.9 		"/>
		<polyline points="180.1,59.4 179.3,58.9 180,59.7 		"/>
		<polyline points="181.2,58.9 182.1,58.7 181.1,58.6 		"/>
	</g>
</g>
</svg>
