<?xml version="1.0" encoding="utf-8"?>
<!-- Generator: Adobe Illustrator 19.0.0, SVG Export Plug-In . SVG Version: 6.00 Build 0)  -->
<svg version="1.1" xmlns="http://www.w3.org/2000/svg" xmlns:xlink="http://www.w3.org/1999/xlink" x="0px" y="0px"
	 viewBox="-416 316.7 414 247" style="enable-background:new -416 316.7 414 247;" xml:space="preserve">
<style type="text/css">
	.st0{fill:#519E38;}
	.st1{fill:#F4F4F4;}
	.st2{fill:#D6D6D6;}
	.st3{fill:#EAEAEA;}
	.st4{fill:#FFFFFF;}
	.st5{fill:#62BA47;}
	.st6{fill:#483290;}
	.st7{fill:#712F8F;}
	.st8{fill:#62BA46;}
	.st9{fill:#DA1B51;}
	.st10{fill:#F1788A;}
	.st11{fill:#ED3425;}
	.st12{fill:#3DAF49;}
	.st13{fill:#E2231A;}
	.st14{fill:#F58C38;}
	.st15{fill:#FDDC55;}
</style>
<g id="_x31_">
	<g id="kolba_3">
	</g>
	<g id="kolby">
	</g>
	<g id="doma">
	</g>
	<g id="car">
	</g>
	<g id="butylka_3">
	</g>
	<g>
		<path class="st0" d="M-301.6,499.5c0,0,0-40.9,0-63.2s-9.2-30.7-9.2-30.7c2.5-13.8-4.1-17.9-4.1-17.9v-5h1.4c0,0,0-5.3,0-7.1
			c0-1.8-2.5-1.6-2.5-1.6h-9.1h-0.9h-9c0,0-2.5-0.2-2.5,1.6c0,1.8,0,7.1,0,7.1h1.5v5h-0.1c0,0-6.6,4.2-4.1,17.9
			c0,0-9.2,8.5-9.2,30.7c0,22.2,0,63.2,0,63.2s-0.9,13.6,9.1,13.6c2.7,0,5,0,6.9,0c5.1,0,7.5,0,7.5,0h0.5h0.5l0,0h7.4l0,0
			c1.9,0,4.1,0,6.8,0l0,0C-300.7,513.1-301.6,499.5-301.6,499.5z"/>
		<path class="st1" d="M-306.5,496.3c0,0,0-40.9,0-63.2c0-22.3-9.2-30.7-9.2-30.7c2.5-13.8-4.1-17.9-4.1-17.9v-5.1h-21v5.1h-0.1
			c0,0-6.6,4.2-4.2,17.9c0,0-9.2,8.5-9.2,30.7c0,22.3,0,63.2,0,63.2s-0.9,13.6,9.1,13.6c2.7,0,5,0,6.9,0c5.1,0,7.5,0,7.5,0h1h7.5
			c1.9,0,4.2,0,6.9,0C-305.5,509.9-306.5,496.3-306.5,496.3z"/>
		<path class="st2" d="M-320.9,370.8h-9.1h-0.8h-9.1c0,0-2.5-0.2-2.5,1.6c0,1.8,0,7.1,0,7.1h11.5h0.9h11.5c0,0,0-5.3,0-7.1
			S-320.9,370.8-320.9,370.8z"/>
		<path class="st3" d="M-306.5,496.3c0,0,0-40.9,0-63.2c0-22.3-9.2-30.7-9.2-30.7c2.5-13.8-4.2-17.9-4.2-17.9v-5.1h-10.5v130.5h0.5
			h7.5c1.9,0,4.2,0,6.9,0C-305.6,509.9-306.5,496.3-306.5,496.3z"/>
		<path class="st4" d="M-346.5,425.7c-0.1,0-0.2,0-0.3,0c-1.4-0.2-2.5-1.5-2.3-3c1.2-9.1,5.6-14.7,5.8-14.9c0.9-1.1,2.6-1.3,3.7-0.4
			s1.3,2.6,0.4,3.7c-0.1,0.1-3.7,4.7-4.7,12.3C-344.1,424.8-345.2,425.7-346.5,425.7z"/>
	</g>
	<g>
		<g>
			<g>
				<path class="st5" d="M-313,457.4c-0.4-0.9-1.1-0.7-1.4,0c-0.8,2,0.4,2.3,0.5,2.3c0,0-0.2-0.3-0.2-0.6c0,0-0.3-0.4-0.4-0.6v-0.2
					v0.1c0,0.1,0.1,0.3,0.4,0.5c0-0.1,0-0.2,0.1-0.2c-0.1-0.1-0.3-0.3-0.4-0.6V458v-0.2l0.1,0.3c0,0.2,0.1,0.4,0.4,0.5l0,0
					c0-0.1,0.1-0.2,0.1-0.3c-0.1,0-0.4-0.2-0.4-0.7v-0.1v-0.1l0.1,0.2c0,0.1,0.1,0.5,0.4,0.6c0-0.1,0-0.2,0.1-0.3l0,0
					c0,0-0.3-0.1-0.4-0.6c0,0,0,0,0-0.1v-0.1v0.2c0,0.1,0.1,0.5,0.3,0.5c0-0.5-0.1-0.9-0.1-0.9v-0.1l0.1,0.1c0,0,0.1,0.2,0.1,0.5
					c0.1-0.2,0.1-0.4,0.1-0.4v-0.1l0.1,0.1c0,0.2-0.1,0.5-0.1,0.5c0,0.2,0,0.4,0,0.6C-313,457.9-313,457.5-313,457.4L-313,457.4
					L-313,457.4c0,0.5-0.5,0.7-0.6,0.8l0,0l0,0c0,0,0,0.1-0.1,0.1c0.5,0,0.8-0.5,0.8-0.5v-0.1c0,0,0,0.1-0.1,0.2
					c-0.3,0.4-0.8,0.5-0.8,0.5c0,0.1-0.1,0.2-0.1,0.3c0.1,0,0.6-0.1,0.9-0.4l0,0l0,0l0,0l0.1-0.1l-0.1,0.1c-0.1,0.1-0.5,0.4-0.9,0.4
					c0,0.1,0,0.2,0,0.3h0.1c0.4,0,0.6-0.3,0.7-0.4l0.1-0.1l-0.1,0.2c-0.3,0.5-0.7,0.5-0.8,0.5l0,0c0,0.1,0.1,0.3,0.1,0.3h0.1
					C-312.7,458.9-312.7,458.1-313,457.4z"/>
				<path class="st5" d="M-310.5,459c0.6-0.6,0.3-1-0.4-1.1c-1.7-0.1-1.6,0.9-1.6,1c0,0,0.2-0.2,0.4-0.3c0,0,0.2-0.4,0.4-0.5h0.1
					l-0.1,0.1c-0.1,0.1-0.2,0.2-0.3,0.4c0.1,0,0.1,0,0.2,0c0-0.1,0.1-0.3,0.4-0.5c0,0,0,0,0.1,0l0.1-0.1l-0.2,0.1
					c-0.1,0.1-0.2,0.2-0.3,0.4l0,0c0.1,0,0.2,0,0.2,0c0-0.1,0.1-0.3,0.4-0.5h0.1h0.1l-0.1,0.1c-0.1,0.1-0.3,0.2-0.3,0.5
					c0.1,0,0.2,0,0.2,0l0,0c0,0,0-0.3,0.4-0.4c0,0,0,0,0.1,0h0.1l-0.1,0.1c-0.1,0.1-0.3,0.2-0.3,0.4c0.4-0.1,0.7-0.3,0.7-0.3
					l0.1-0.1v0.1c0,0-0.1,0.1-0.3,0.2c0.2,0.1,0.3,0,0.3,0h0.1v0.1c-0.1,0.1-0.4,0-0.4,0c-0.2,0.1-0.3,0.1-0.5,0.1
					c0.3,0.3,0.6,0.3,0.6,0.3L-310.5,459h-0.2c-0.3,0.1-0.6-0.2-0.7-0.3l0,0l0,0h-0.1c0.1,0.3,0.6,0.5,0.6,0.5h0.1c0,0-0.1,0-0.2,0
					c-0.4-0.1-0.6-0.5-0.6-0.5c-0.1,0-0.2,0-0.3,0c0,0.1,0.2,0.4,0.5,0.6l0,0l0,0l0,0h0.1h-0.1c-0.1-0.1-0.4-0.3-0.6-0.6
					c-0.1,0-0.2,0-0.2,0.1v0.1c0.1,0.3,0.4,0.4,0.5,0.4h0.1h-0.1c-0.4-0.1-0.6-0.4-0.6-0.5l0,0c-0.1,0.1-0.2,0.2-0.2,0.2v0.1
					C-311.6,459.7-311,459.5-310.5,459z"/>
				<path class="st5" d="M-312.4,460c0.4-0.2,0.3-0.5,0-0.6c-0.9-0.4-1,0.2-1,0.2s0.1-0.1,0.3-0.1c0,0,0.2-0.1,0.3-0.2h0.1h-0.1
					c-0.1,0-0.2,0-0.2,0.2h0.1c0,0,0.1-0.1,0.3-0.2l0,0h0.1h-0.1c-0.1,0-0.2,0-0.2,0.2l0,0c0,0,0.1,0,0.1,0.1c0,0,0.1-0.2,0.3-0.2
					l0,0l0,0h-0.1c-0.1,0-0.2,0-0.2,0.2h0.1l0,0c0,0,0.1-0.1,0.3-0.1l0,0l0,0h-0.1c-0.1,0-0.2,0.1-0.2,0.1c0.2,0,0.4,0,0.4,0l0,0
					l0,0c0,0-0.1,0-0.2,0.1c0.1,0.1,0.2,0.1,0.2,0.1l0,0l0,0c-0.1,0-0.2-0.1-0.2-0.1c-0.1,0-0.2,0-0.3,0
					C-312.7,459.9-312.5,459.9-312.4,460L-312.4,460L-312.4,460c-0.3,0-0.4-0.3-0.4-0.3l0,0l0,0c0,0,0,0-0.1,0
					c0,0.2,0.2,0.4,0.2,0.4l0,0c0,0,0,0-0.1,0c-0.2-0.1-0.2-0.4-0.2-0.4s-0.1,0-0.1-0.1c0,0.1,0,0.3,0.2,0.4l0,0l0,0l0,0l0,0h-0.1
					c0,0-0.2-0.2-0.2-0.4h-0.1l0,0c0,0.2,0.1,0.3,0.2,0.3h0.1h-0.1c-0.2-0.2-0.2-0.3-0.2-0.4l0,0c-0.1,0-0.1,0-0.1,0.1l0,0
					C-313.1,460.1-312.7,460.1-312.4,460z"/>
				<path class="st5" d="M-313.1,461.3c0.8-0.3,0.6-0.9,0-1.2c-1.6-0.8-1.9,0.3-1.9,0.4c0,0,0.2-0.2,0.5-0.1c0,0,0.3-0.3,0.6-0.3
					h0.1h-0.1c-0.1,0-0.3,0.1-0.5,0.3c0.1,0,0.1,0,0.2,0.1c0-0.1,0.3-0.3,0.5-0.3c0,0,0,0,0.1,0h0.2h-0.2c-0.1,0-0.3,0.1-0.5,0.3
					l0,0c0.1,0,0.1,0.1,0.2,0.1c0-0.1,0.2-0.3,0.6-0.3h0.1h0.1h-0.1c-0.1,0-0.4,0.1-0.5,0.3c0.1,0,0.2,0,0.2,0.1l0,0
					c0,0,0.1-0.2,0.5-0.3c0,0,0,0,0.1,0h0.1h-0.1c-0.1,0-0.4,0.1-0.5,0.3c0.4,0,0.8-0.1,0.8-0.1h0.1l-0.1,0.1c0,0-0.2,0.1-0.4,0.1
					c0.1,0.1,0.3,0.1,0.3,0.1h0.1h-0.1c-0.2,0-0.4-0.1-0.4-0.1c-0.2,0-0.4,0-0.5,0C-313.4,461.2-313.1,461.3-313.1,461.3
					L-313.1,461.3l-0.2-0.1c-0.3,0-0.5-0.5-0.5-0.5l0,0l0,0c0,0-0.1,0-0.1-0.1c0,0.4,0.4,0.7,0.4,0.7h0.1c0,0-0.1,0-0.2-0.1
					c-0.3-0.3-0.4-0.7-0.4-0.7c-0.1,0-0.2-0.1-0.3-0.1c0,0.1,0.1,0.5,0.3,0.7l0,0l0,0l0,0l0.1,0.1l-0.1-0.1
					c-0.1-0.1-0.3-0.4-0.3-0.8c-0.1,0-0.2,0-0.3,0v0.1c0,0.3,0.2,0.5,0.3,0.6l0.1,0.1l-0.1-0.1c-0.4-0.3-0.4-0.6-0.4-0.7l0,0
					c-0.1,0-0.2,0.1-0.2,0.1v0.1C-314.4,461.6-313.7,461.6-313.1,461.3z"/>
				<path class="st5" d="M-315.6,459.2c-0.4-0.9-1-0.6-1.3,0c-0.8,1.8,0.4,2.1,0.5,2.1c0,0-0.2-0.2-0.2-0.6c0,0-0.3-0.3-0.4-0.6V460
					v0.1c0,0.1,0.1,0.3,0.4,0.5c0-0.1,0-0.1,0.1-0.2c-0.1-0.1-0.3-0.3-0.4-0.6v-0.1v-0.2l0.1,0.2c0,0.1,0.1,0.3,0.4,0.5l0,0
					c0-0.1,0.1-0.2,0.1-0.2c-0.1,0-0.3-0.2-0.4-0.6v-0.1v-0.1v0.1c0,0.1,0.1,0.4,0.4,0.5c0-0.1,0-0.2,0.1-0.3l0,0
					c0,0-0.3-0.1-0.3-0.5c0,0,0,0,0-0.1v-0.1v0.2c0,0.1,0.1,0.4,0.3,0.5c0-0.5-0.1-0.8-0.1-0.8v-0.1l0.1,0.1c0,0,0.1,0.2,0.1,0.4
					c0.1-0.1,0.1-0.3,0.1-0.3v-0.1l0.1,0.1c0,0.2-0.1,0.4-0.1,0.5c0,0.2,0,0.4,0,0.6c0.5-0.2,0.5-0.5,0.5-0.5v-0.1v0.1
					c0,0.4-0.5,0.6-0.5,0.6l0,0l0,0c0,0,0,0.1-0.1,0.1c0.4,0,0.7-0.5,0.7-0.5v-0.1c0,0,0,0.1-0.1,0.2c-0.3,0.4-0.7,0.5-0.7,0.5
					c0,0.1-0.1,0.2-0.1,0.3c0.1,0,0.5-0.1,0.8-0.4l0,0l0,0l0,0l0.1-0.1l-0.1,0.1c-0.1,0.1-0.4,0.4-0.8,0.4c0,0.1,0,0.2,0,0.3h0.1
					c0.3,0,0.6-0.3,0.7-0.4l0.1-0.1l-0.1,0.1c-0.3,0.4-0.6,0.5-0.7,0.5l0,0c0,0.1,0.1,0.2,0.1,0.3h0.1
					C-315.2,460.6-315.3,459.9-315.6,459.2z"/>
				<path class="st5" d="M-315.7,461.5c-0.3-0.5-0.6-0.4-0.8,0c-0.5,1.2,0.3,1.3,0.3,1.3s-0.1-0.2-0.1-0.4c0,0-0.2-0.2-0.2-0.4v-0.1
					v0.1c0,0.1,0.1,0.2,0.2,0.3v-0.1c0,0-0.2-0.2-0.2-0.4l0,0v-0.1v0.2c0,0.1,0.1,0.2,0.2,0.3l0,0c0,0,0-0.1,0.1-0.2
					c0,0-0.2-0.1-0.3-0.4l0,0l0,0v0.1c0,0.1,0.1,0.3,0.2,0.3c0-0.1,0-0.1,0-0.2l0,0c0,0-0.2-0.1-0.2-0.3c0,0,0,0,0-0.1v-0.1v0.1
					c0,0.1,0.1,0.3,0.2,0.3c0-0.3-0.1-0.5-0.1-0.5v-0.1c0,0,0,0,0,0.1c0,0,0.1,0.1,0.1,0.3c0.1-0.1,0.1-0.2,0.1-0.2l0,0l0,0
					c0,0.1-0.1,0.3-0.1,0.3c0,0.1,0,0.2,0,0.4c0.3-0.1,0.3-0.3,0.3-0.3L-315.7,461.5v0.1c0,0.2-0.3,0.4-0.3,0.4l0,0l0,0v0.1
					c0.3,0,0.5-0.3,0.5-0.3l0,0v0.1c-0.2,0.2-0.5,0.3-0.5,0.3c0,0.1,0,0.1-0.1,0.2c0.1,0,0.3-0.1,0.5-0.2l0,0l0,0l0,0l0,0v0.1
					c-0.1,0.1-0.3,0.2-0.5,0.3c0,0.1,0,0.1,0,0.2c0,0,0,0,0.1,0c0.2,0,0.4-0.2,0.4-0.3l0.1-0.1v0.1c-0.2,0.3-0.4,0.3-0.5,0.3l0,0
					c0,0.1,0.1,0.2,0.1,0.2l0,0C-315.5,462.3-315.5,461.9-315.7,461.5z"/>
				<path class="st5" d="M-314.4,463.9c0.8-0.4,0.6-0.9,0-1.2c-1.7-0.8-2,0.3-2,0.4c0,0,0.2-0.2,0.5-0.1c0,0,0.3-0.3,0.6-0.3h0.1
					h-0.1c-0.1,0-0.3,0.1-0.5,0.3c0.1,0,0.1,0,0.2,0.1c0.1-0.1,0.3-0.3,0.5-0.3c0,0,0,0,0.1,0h0.2h-0.2c-0.1,0-0.3,0.1-0.5,0.3l0,0
					c0.1,0,0.1,0.1,0.2,0.1c0-0.1,0.2-0.3,0.6-0.4h0.1h0.1h-0.1c-0.1,0-0.4,0.1-0.5,0.3c0.1,0,0.2,0,0.3,0.1l0,0
					c0,0,0.1-0.3,0.5-0.3c0,0,0,0,0.1,0h0.1h-0.1c-0.1,0-0.4,0.1-0.5,0.3c0.4,0,0.8-0.1,0.8-0.1h0.1l-0.1,0.1c0,0-0.2,0.1-0.4,0.1
					c0.1,0.1,0.3,0.1,0.3,0.1h0.1h-0.1c-0.2,0-0.4-0.1-0.4-0.1c-0.2,0-0.4,0-0.5,0C-314.7,463.7-314.4,463.8-314.4,463.9
					L-314.4,463.9L-314.4,463.9c-0.4-0.1-0.5-0.6-0.6-0.6l0,0l0,0c0,0-0.1,0-0.1-0.1c0,0.4,0.4,0.7,0.4,0.7h0.1c0,0-0.1,0-0.2-0.1
					c-0.4-0.3-0.4-0.7-0.4-0.7c-0.1,0-0.2-0.1-0.3-0.1c0,0.1,0.1,0.5,0.3,0.7l0,0l0,0l0,0l0.1,0.1l-0.1-0.1
					c-0.1-0.1-0.3-0.4-0.4-0.8c-0.1,0-0.2,0-0.3,0v0.1c0,0.3,0.2,0.5,0.4,0.6l0.1,0.1l-0.1-0.1c-0.4-0.3-0.4-0.6-0.4-0.7l0,0
					c-0.1,0-0.2,0.1-0.2,0.1v0.1C-315.7,464.1-315,464.1-314.4,463.9z"/>
				<path class="st5" d="M-314.9,465.2c0.9-0.1,0.8-0.6,0.3-1c-1.5-1.1-2-0.2-2-0.1c0,0,0.3-0.1,0.6,0c0,0,0.4-0.2,0.6-0.1h0.1h-0.1
					c-0.1,0-0.3,0-0.5,0.1c0.1,0,0.1,0.1,0.2,0.1c0.1,0,0.3-0.2,0.6-0.1h0.1h0.2h-0.2c-0.1,0-0.3,0-0.5,0.2l0,0
					c0.1,0,0.1,0.1,0.2,0.1c0,0,0.3-0.2,0.6-0.1h0.1h0.1h-0.1c-0.1,0-0.4,0-0.5,0.2c0.1,0,0.2,0.1,0.2,0.1l0,0c0,0,0.2-0.2,0.6-0.1
					c0,0,0,0,0.1,0h0.1h-0.1c-0.1,0-0.4,0-0.5,0.1c0.4,0.1,0.8,0.1,0.8,0.1h0.1h-0.1c0,0-0.2,0-0.4,0c0.1,0.1,0.3,0.2,0.3,0.2h0.1
					h-0.1c-0.2,0-0.3-0.2-0.4-0.2c-0.2,0-0.4-0.1-0.5-0.2c0.1,0.4,0.4,0.5,0.4,0.5h0.1h-0.1c-0.3-0.1-0.4-0.5-0.4-0.6l0,0l0,0
					c0,0-0.1,0-0.1-0.1c-0.1,0.3,0.3,0.7,0.3,0.7h0.1c0,0-0.1,0-0.2-0.1c-0.3-0.3-0.3-0.7-0.2-0.7c-0.1,0-0.2-0.1-0.2-0.2
					c0,0.1,0,0.4,0.1,0.7l0,0l0,0l0,0l0.1,0.1l-0.1-0.1c-0.1-0.1-0.2-0.4-0.2-0.7c-0.1,0-0.2-0.1-0.3-0.1c0,0,0,0,0,0.1
					c-0.1,0.3,0.1,0.5,0.2,0.6l0.1,0.1l-0.1-0.1c-0.3-0.3-0.3-0.6-0.3-0.7l0,0c-0.1,0-0.2,0-0.3,0v0.1
					C-316.2,465.2-315.6,465.3-314.9,465.2z"/>
				<path class="st5" d="M-318.7,460.1c-1.1-0.5-1.3,0.2-0.9,1c1,2.2,2.2,1.5,2.3,1.5c0,0-0.4-0.1-0.6-0.4c-0.1,0-0.5-0.1-0.8-0.2
					l-0.1-0.1l0.1,0.1c0.1,0.1,0.4,0.2,0.7,0.2c-0.1-0.1-0.1-0.1-0.1-0.2c-0.1,0-0.5,0-0.8-0.2c0,0-0.1,0-0.1-0.1l-0.2-0.1l0.3,0.2
					c0.1,0.1,0.4,0.2,0.7,0.2l0,0c0-0.1-0.1-0.2-0.1-0.3c-0.1,0-0.4,0.1-0.8-0.2l-0.1-0.1l-0.1-0.1l0.2,0.1c0.1,0.1,0.5,0.3,0.7,0.2
					c-0.1-0.1-0.1-0.2-0.2-0.3l0,0c0,0-0.3,0.1-0.7-0.2c0,0,0,0-0.1-0.1l-0.1-0.1l0.2,0.1c0.1,0.1,0.5,0.3,0.7,0.2
					c-0.4-0.4-0.8-0.6-0.8-0.6h-0.1h0.1c0,0,0.2,0.1,0.5,0.3c0-0.2-0.2-0.4-0.2-0.4l-0.1-0.1h0.1c0.2,0.1,0.3,0.4,0.3,0.5
					c0.2,0.2,0.4,0.3,0.5,0.5c0.2-0.5-0.1-0.8-0.1-0.8l-0.1-0.1l0.1,0.1c0.3,0.3,0.2,0.9,0.1,1l0,0l0,0c0,0,0.1,0.1,0.1,0.2
					c0.3-0.3,0.1-1,0.1-1v-0.1c0,0,0.1,0.1,0.1,0.2c0.1,0.5-0.1,1-0.2,1c0.1,0.1,0.1,0.2,0.2,0.3c0.1-0.1,0.3-0.5,0.3-0.9l0,0l0,0
					l0,0v-0.1l0.1,0.2c0,0.2,0,0.7-0.3,1c0.1,0.1,0.2,0.2,0.3,0.3c0,0,0.1,0,0.1-0.1c0.2-0.2,0.2-0.6,0.1-0.9v-0.2l0.1,0.2
					c0.2,0.6,0,0.9-0.1,1l0,0c0.1,0.1,0.3,0.1,0.3,0.1l0.1-0.1C-317.2,461-317.9,460.4-318.7,460.1z"/>
				<path class="st5" d="M-317,465.3c0.5,0.3,0.7,0,0.5-0.4c-0.4-1.1-1-0.8-1-0.8s0.2,0.1,0.3,0.2c0,0,0.3,0.1,0.4,0.2l0.1,0.1h-0.1
					c-0.1,0-0.2-0.1-0.3-0.1c0,0,0,0.1,0.1,0.1c0,0,0.2,0,0.4,0.2l0,0l0.1,0.1l-0.1-0.1c-0.1-0.1-0.2-0.1-0.3-0.1l0,0
					c0,0,0,0.1,0.1,0.2c0,0,0.2,0,0.4,0.1l0,0l0,0h-0.1c-0.1-0.1-0.2-0.2-0.4-0.1l0.1,0.1l0,0c0,0,0.2,0,0.4,0.1l0,0l0,0l-0.1-0.1
					c-0.1,0-0.2-0.2-0.3-0.1c0.2,0.2,0.4,0.4,0.4,0.4h0.1c0,0,0,0-0.1,0c0,0-0.1-0.1-0.2-0.2c0,0.1,0.1,0.2,0.1,0.2l0,0l0,0
					c-0.1-0.1-0.1-0.2-0.1-0.3c-0.1-0.1-0.2-0.2-0.2-0.3c-0.1,0.2,0,0.4,0,0.4L-317,465.3v-0.1c-0.2-0.2,0-0.4,0-0.5l0,0l0,0v-0.1
					c-0.2,0.2-0.1,0.5-0.1,0.5l0,0c0,0,0,0,0-0.1c0-0.3,0.1-0.5,0.1-0.5c0-0.1,0-0.1-0.1-0.2c0,0-0.2,0.2-0.2,0.4l0,0l0,0l0,0v0.1
					v-0.1c0-0.1,0-0.3,0.2-0.5c0-0.1-0.1-0.1-0.1-0.1l0,0c-0.1,0.1-0.1,0.3-0.1,0.4v0.1v-0.1c0-0.3,0.1-0.4,0.1-0.5l0,0
					c-0.1,0-0.1-0.1-0.2-0.1l0,0C-317.7,464.8-317.4,465.1-317,465.3z"/>
			</g>
			<path class="st5" d="M-316.6,462c0-0.1,0-0.1,0.1-0.2c-1.6,1.6-2.3,3.1-2.3,3.2l0.1,0.1c0,0,0.7-1.4,2.1-2.9
				C-316.7,462.1-316.7,462-316.6,462z"/>
			<path class="st5" d="M-312.5,459l0.1-0.2l-0.1,0.1c-1.4,0.6-2.6,1.4-3.5,2.3l0.1,0.1C-315,460.5-313.8,459.6-312.5,459
				C-312.1,458.9-312.5,459.1-312.5,459z"/>
			<g>
				<circle class="st6" cx="-316.8" cy="463.3" r="1"/>
				
					<ellipse transform="matrix(0.6787 -0.7345 0.7345 0.6787 -441.743 -83.5922)" class="st7" cx="-316.4" cy="463" rx="0.4" ry="0.6"/>
				
					<ellipse transform="matrix(0.6782 -0.7349 0.7349 0.6782 -441.9865 -83.4513)" class="st6" cx="-316.3" cy="462.9" rx="0.2" ry="0.3"/>
			</g>
			<g>
				<circle class="st7" cx="-318.2" cy="464.2" r="0.9"/>
				
					<ellipse transform="matrix(-0.3193 -0.9476 0.9476 -0.3193 -859.4192 310.1948)" class="st6" cx="-318.3" cy="463.8" rx="0.4" ry="0.6"/>
				
					<ellipse transform="matrix(-0.3193 -0.9476 0.9476 -0.3193 -859.3135 310.0518)" class="st7" cx="-318.3" cy="463.6" rx="0.2" ry="0.3"/>
			</g>
			<g>
				<circle class="st6" cx="-318.6" cy="462.5" r="0.7"/>
				
					<ellipse transform="matrix(-0.3191 -0.9477 0.9477 -0.3191 -858.4581 307.7075)" class="st7" cx="-318.7" cy="462.2" rx="0.3" ry="0.4"/>
				<ellipse class="st6" cx="-318.7" cy="462.1" rx="0.2" ry="0.2"/>
			</g>
			<g>
				<circle class="st7" cx="-317.3" cy="461.2" r="0.7"/>
				
					<ellipse transform="matrix(-0.3198 -0.9475 0.9475 -0.3198 -855.639 307.651)" class="st6" cx="-317.4" cy="461" rx="0.3" ry="0.4"/>
				<ellipse class="st7" cx="-317.4" cy="460.9" rx="0.2" ry="0.2"/>
			</g>
			<g>
				<circle class="st6" cx="-315.3" cy="459.3" r="0.7"/>
				
					<ellipse transform="matrix(-0.893 -0.4501 0.4501 -0.893 -804.1409 727.0195)" class="st7" cx="-315.6" cy="459.1" rx="0.3" ry="0.4"/>
				<ellipse class="st6" cx="-315.7" cy="459.1" rx="0.2" ry="0.2"/>
			</g>
			<g>
				<circle class="st7" cx="-315.2" cy="462" r="0.8"/>
				
					<ellipse transform="matrix(0.9496 -0.3133 0.3133 0.9496 -160.586 -75.3787)" class="st6" cx="-314.8" cy="461.9" rx="0.3" ry="0.5"/>
				
					<ellipse transform="matrix(0.9498 -0.3129 0.3129 0.9498 -160.3465 -75.2895)" class="st7" cx="-314.8" cy="461.9" rx="0.2" ry="0.3"/>
			</g>
		</g>
		<circle class="st6" cx="-330.4" cy="453" r="12.3"/>
		<circle class="st5" cx="-340.3" cy="463.9" r="3.9"/>
		<g>
			<path class="st4" d="M-342.9,463.3c0.1-0.4,0.4-0.1,0.5,0.1c0.1,0.3,0,0.6-0.2,0.8c-0.1,0.2-0.3,0.3-0.5,0.5
				c-0.1,0.1-0.2,0.1-0.2,0.2c0,0-0.1,0.1,0,0.2c0.1,0.1,0.4,0.1,0.6,0.1c0.3,0,0.6,0,0.9-0.1c0.2-0.1,0.3-0.4,0-0.3
				c-0.2,0.1-0.5,0.1-0.7,0.1c-0.1,0-0.4,0-0.5-0.1c0,0,0,0.1,0,0.2c-0.1,0.2,0,0.1,0,0c0.1-0.1,0.2-0.1,0.2-0.2
				c0.1-0.1,0.3-0.3,0.4-0.4c0.2-0.3,0.4-0.6,0.3-1c-0.2-0.8-1.1-0.2-1.2,0.2C-343.3,463.7-343,463.5-342.9,463.3L-342.9,463.3z"/>
			<path class="st4" d="M-340.7,464.7c0.3,0.9,1.7,0.3,1.5-0.5c-0.1-0.4-0.6-0.4-0.9-0.5c-0.2-0.1-0.2-0.2-0.2-0.4
				c0.1-0.2,0.1-0.2-0.1-0.1c0.1,0,0.1,0,0.2,0c0.3-0.1,0.6,0,0.9,0.1c0.1,0.1,0.4-0.3,0.3-0.3c-0.3-0.2-0.8-0.1-1.1-0.1
				c-0.3,0.1-0.4,0.4-0.4,0.7c0,0.4,0.4,0.5,0.7,0.5c0.2,0,0.4,0.1,0.5,0.4c0,0.4-0.4,0.4-0.6,0.2c-0.1-0.1-0.2-0.2-0.2-0.3
				C-340.5,464.3-340.8,464.6-340.7,464.7L-340.7,464.7z"/>
			<g>
				<path class="st4" d="M-337.5,463c-0.4,0.7-0.9,1.3-1.4,1.9c-0.2,0.3,0.1,0.3,0.3,0.1c0.5-0.6,1-1.3,1.4-2
					C-337,462.7-337.4,462.9-337.5,463L-337.5,463z"/>
				<path class="st4" d="M-338.2,462.8c-0.2,0-0.4,0.2-0.5,0.5c0,0.2,0.1,0.4,0.3,0.4C-337.9,463.7-337.7,462.9-338.2,462.8
					c-0.1,0-0.3,0.3-0.1,0.3c0.1,0,0.2,0.1,0.2,0.2v0.1l0,0c0,0,0,0-0.1,0c-0.1,0-0.2-0.1-0.2-0.2v-0.1l0,0c0,0,0,0,0.1,0
					C-338.3,463.1-338.1,462.8-338.2,462.8z"/>
				<path class="st4" d="M-337.5,464.2c-0.2,0-0.4,0.2-0.5,0.5c0,0.2,0.1,0.4,0.3,0.4C-337.2,465.1-337,464.3-337.5,464.2
					c-0.1,0-0.3,0.3-0.1,0.3c0.1,0,0.2,0.1,0.2,0.2v0.1l0,0c0,0,0,0-0.1,0s-0.2-0.1-0.2-0.2v-0.1l0,0c0,0,0,0,0.1,0
					C-337.6,464.5-337.4,464.2-337.5,464.2z"/>
			</g>
			<path class="st4" d="M-341.3,465.6c0.2-0.2,0.3-0.4,0.3-0.6c0-0.1,0-0.2,0-0.2c-0.1-0.1-0.2,0-0.3,0c-0.1,0-0.2,0.2-0.2,0.3
				s0.1,0.1,0.2,0.1l0,0l0,0v0.1c0,0.1,0,0.1-0.1,0.1l0,0l0,0l0,0l0,0c-0.1,0-0.2,0.2-0.1,0.3C-341.5,465.7-341.4,465.6-341.3,465.6
				L-341.3,465.6z"/>
		</g>
		<g>
			<g>
				<g>
					<path class="st4" d="M-320.8,455.4c-0.2-0.1-0.4,0-0.5,0.2c-0.1-0.3,0.1-0.9,0.1-1.2c0.2-0.9,0.2-1.7,0-1.9
						c-0.2-0.2-0.6-0.1-0.8-0.1c-0.1,0.1-0.2,0.1-0.3,0.2c0-0.2-0.1-0.4-0.2-0.6c-0.2-0.2-0.5-0.2-0.6-0.1c-0.1,0.1-0.3,0.1-0.4,0.2
						c0-0.1,0-0.2,0-0.3s0-0.1,0-0.1s-0.1,0-0.1-0.1h-0.1c-0.1,0-0.3,0.1-0.4,0.1c-0.1,0.1-0.1,0.1-0.2,0.2c-0.2,0.2-0.4,0.1-0.6,0
						c-0.2-0.1-0.3-0.2-0.4-0.4c-0.1-0.1-0.1-0.2-0.2-0.2c-0.3-0.2-0.6-0.1-0.9,0c0-0.2,0-0.5,0-0.7c0-0.2-0.4-0.1-0.5,0
						s-0.3,0.2-0.3,0.3c0,0-0.3,1.1-0.9,2c0-0.6,0.1-1.2,0.1-1.8c0-0.1,0-0.1-0.1-0.2c-0.1,0-0.2,0-0.2,0c-0.2,0.1-0.4,0.2-0.4,0.4
						c-0.1,0.8-0.2,2.6-0.7,2.6s-0.3-2.1-0.2-3c0-0.1-0.1-0.2-0.2-0.1c-0.1,0-0.2,0-0.2,0c-0.2,0.1-0.4,0.3-0.4,0.5
						c-0.1,0.6-0.2,1.2-0.4,1.7c-0.1,0.3-0.3,0.9-0.7,0.9s-0.4-0.4-0.3-0.7c0.1-0.3,0.3-0.6,0.5-0.8c0.2-0.3,0.3-0.6,0.3-0.8
						c0-0.4-0.2-0.7-0.6-0.8c-0.4,0-0.8,0.2-1.1,0.5c-0.1,0.1-0.2,0.2-0.3,0.2c-0.3,0-0.5-0.2-0.6-0.2c-0.1-0.1-0.3-0.2-0.6-0.1
						c-0.9,0.3-1.1,1.3-1,2.1c0,0.5,0,0.9-0.1,1.1c-0.3,0-0.5-0.3-0.6-0.6c-0.2-0.5-0.3-1-0.4-1.6c-0.1-0.7-0.1-1.5-0.1-2.3
						c0-0.2-0.3-0.1-0.4,0c-0.2,0.2-0.4,0.4-0.4,0.6c0,0.9,0.1,1.9,0.1,2.8c0,0.5,0,1-0.1,1.4c-0.1,0.2-0.2,0.2-0.3,0.2
						c-0.3-0.1-0.4-0.4-0.5-0.7c-0.1-0.4-0.2-0.9-0.2-1.4s0-0.9-0.1-1.4c0-0.3,0-0.6-0.2-0.9c-0.3-0.4-1,0.3-1.2,0.6
						c-0.4,0.5-0.5,1-0.6,1.6c0,0.2,0.1,0.3,0.3,0.1c0.2-0.2,0.4-0.4,0.4-0.7c0-0.2,0.1-0.7,0.3-0.8l0,0l0,0c0,0,0,0,0,0.1
						s0.1,0.2,0.1,0.4c0.1,0.9,0.1,1.8,0.3,2.7c0.1,0.6,0.4,1.5,1.3,1.3c0.5-0.1,0.8-0.7,1-1.1c0,0,0,0,0-0.1
						c0.2,0.4,0.5,0.7,1.1,0.6c0.4-0.1,0.5-0.4,0.6-0.8c0.2,0.3,0.4,0.5,0.7,0.5c0.4,0,0.7-0.5,0.9-0.8c0.2-0.4,0.2-0.8,0.2-1.3
						c0-0.2,0-0.5-0.1-0.7c0.1,0,0.2,0,0.3-0.1c0.2-0.1,0.4-0.4,0.6-0.5c0.1,0,0.2,0,0.3,0c0.6,0.3-0.3,1-0.6,1.5
						c-0.2,0.4-0.4,1,0,1.3c0.5,0.6,1.5,0.1,1.9-0.4c0.1-0.1,0.2-0.3,0.3-0.4c0,0.4,0.1,1,0.7,1c0.3,0,0.5-0.1,0.7-0.3
						c-0.3,0.4-0.5,0.9-0.8,1.3c-0.2,0.4-0.4,0.8-0.4,1.2c0,0.5,0.6,0.8,1,0.5c0.4-0.2,0.7-0.7,0.8-1.2c0.2-0.8,0.2-1.6,0.2-2.4
						c0.4-0.6,0.7-1,1-1.8c0,0.8-0.1,1.6-0.1,2.4c-0.1,0.9-0.2,1.8-0.3,2.6c0,0.2,0.2,0.2,0.3,0.1c0.2-0.1,0.4-0.2,0.4-0.4
						c0.1-0.7,0.2-1.3,0.3-2c0.3,0,0.5,0,0.8-0.2c0.6-0.4,0.7-1.1,0.8-1.7c0-0.1,0-0.2,0-0.3c0.3,0.1,0.5,0,0.7-0.1
						c-0.1,0.8-0.3,1.7-0.4,2.5c-0.1,0.4,0.7,0.1,0.7-0.2c0.1-0.7,0.3-1.5,0.7-2.2c0-0.1,0.1-0.1,0.1-0.2l0,0c0.1,0.5,0,1-0.1,1.4
						c0,0.2-0.1,0.4-0.1,0.6c-0.1,0.3-0.1,0.5-0.2,0.8c-0.1,0.4,0.7,0.1,0.7-0.2c0.1-0.2,0.1-0.5,0.2-0.7c0.2-0.6,0.4-1.1,0.7-1.6
						c0.1,0.3,0,0.6,0,0.8c0,0.4-0.1,0.7-0.2,1.1c-0.1,0.3-0.1,0.6,0,0.9c0.2,0.6,1.1,0.1,1.3-0.1
						C-320.7,455.6-320.6,455.5-320.8,455.4z M-333.9,454c0,0.1,0,0.2-0.1,0.2c-0.2,0-0.3-0.2-0.3-0.3c-0.1-0.3-0.2-0.6-0.2-0.9
						c0-0.3,0-0.6,0-0.9c0-0.1,0-0.2,0.1-0.2s0.1,0.1,0.2,0.1c0.2,0.2,0.3,0.9,0.4,1.1C-333.9,453.4-333.9,453.7-333.9,454z
						 M-329,455.5c0,0.3,0,0.7-0.1,1c0,0.1,0,0.2-0.1,0.2c0,0-0.1,0-0.2-0.1c-0.2-0.2-0.1-0.5,0-0.7c0.1-0.3,0.3-0.6,0.5-1
						C-328.9,455.2-329,455.4-329,455.5z M-326.1,454.3L-326.1,454.3L-326.1,454.3c-0.3,0-0.4-0.3-0.4-0.5c0-0.5,0.1-1,0.1-1.5l0,0
						c0-0.2,0-0.3,0.1-0.4l0,0l0,0c0.1,0,0.2,0.1,0.2,0.2c0.2,0.3,0.2,0.8,0.2,1.1C-325.8,453.5-325.9,454-326.1,454.3z"/>
					<path class="st4" d="M-338,449.9c0.5-0.2,0.9-0.6,1.2-1c0.1-0.1,0.3-0.4,0.1-0.5c-0.2-0.1-0.4,0.2-0.5,0.3
						c-0.1,0.2-0.2,0.4-0.4,0.5c-0.2,0.1-0.5,0-0.6-0.1c-0.2-0.2-0.9,0.5-0.7,0.7C-338.7,450-338.3,450.1-338,449.9z"/>
				</g>
			</g>
		</g>
		<path class="st6" d="M-336.2,437.9c0,0.9-0.7,1.6-1.6,1.6c-0.9,0-1.6-0.7-1.6-1.6s0.7-1.6,1.6-1.6
			C-337,436.3-336.2,437-336.2,437.9L-336.2,437.9z"/>
		<path class="st5" d="M-336.2,443.2c0,1.1-0.9,2-2,2c-1.1,0-2-0.9-2-2c0-1.1,0.9-2,2-2C-337.1,441.2-336.2,442.1-336.2,443.2
			L-336.2,443.2z"/>
		<path class="st5" d="M-341.6,440.1c0,0.7-0.5,1.2-1.2,1.2c-0.7,0-1.2-0.5-1.2-1.2c0-0.7,0.5-1.2,1.2-1.2
			C-342.1,438.8-341.6,439.4-341.6,440.1L-341.6,440.1z"/>
		<g>
			<circle class="st5" cx="-319.8" cy="441.7" r="6.8"/>
			<g>
				<path class="st4" d="M-321.5,440.7c-0.6,0.1-0.7,0.7-0.7,1.2l0,0l0,0c0,0.1,0,0.1,0,0.2c0,0.2,0,0.4,0,0.6c0,0.1,0,0.3-0.1,0.3
					c-0.2,0-0.4-0.3-0.4-0.4c-0.1-0.3-0.2-0.7-0.3-1.1c-0.1-0.4-0.1-0.8-0.1-1.2c0-0.2,0-0.3,0-0.5c0-0.1,0-0.1,0-0.2v-0.1
					c0.1-0.3-0.4,0-0.4,0.1c-0.5,0.8-0.3,1.7-0.3,2.6c0,0.2,0,0.5,0,0.7c0,0.2-0.1,0.4-0.2,0.6c-0.1,0.1-0.2,0-0.3,0
					c-0.1-0.1-0.2-0.2-0.2-0.3s-0.2-0.1-0.2,0c-0.1,0.1-0.2,0.3-0.2,0.4c0.1,0.3,0.3,0.6,0.6,0.5c0.5-0.1,0.7-0.8,0.8-1.2
					c0.1-0.2,0.1-0.5,0.1-0.7c0.1,0.3,0.2,0.7,0.3,1c0.1,0.2,0.3,0.5,0.6,0.4c0.2,0,0.4-0.3,0.5-0.5c0.1,0.2,0.3,0.4,0.5,0.4
					c0.3,0,0.5-0.3,0.6-0.5c0.1-0.3,0.2-0.6,0.2-0.9C-320.8,441.5-320.9,440.7-321.5,440.7z M-321.4,442.7c0,0.1,0,0.1,0,0.2
					c-0.1,0-0.2-0.2-0.2-0.2c-0.1-0.2-0.1-0.4-0.1-0.6c0-0.2,0-0.4,0-0.6c0-0.1,0-0.1,0-0.2c0.3,0.2,0.3,0.5,0.4,0.8
					C-321.3,442.3-321.3,442.5-321.4,442.7z"/>
				<path class="st4" d="M-314.8,441.5c-0.6-0.2-1,0.6-1.1,1.1c-0.1,0.4-0.2,1.2,0.3,1.4c0.3,0.1,0.6-0.1,0.7-0.3
					c0.2-0.2,0.3-0.5,0.4-0.8C-314.3,442.5-314.2,441.7-314.8,441.5z M-315.1,443.5l-0.1,0.1c-0.1-0.1-0.1-0.2-0.1-0.3
					c0-0.2,0-0.4,0-0.6c0-0.2,0.1-0.4,0.2-0.6l0.1-0.1c0.2,0.3,0.2,0.6,0.1,1C-315,443.1-315,443.3-315.1,443.5z"/>
				<path class="st4" d="M-316.4,441.6c0.1-0.2,0.2-0.3,0.3-0.5c0.2-0.3,0.4-0.7,0.4-1.2c0-0.4-0.6-0.4-0.8-0.3
					c-0.4,0.2-0.6,0.6-0.7,1c-0.1,0.5-0.2,1.1-0.3,1.6l0,0c-0.2,0.2-0.6,0.7-0.9,0.5c-0.1,0-0.1-0.2-0.1-0.2
					c0.3-0.3,0.5-0.5,0.7-0.8c0.2-0.3,0.3-0.7,0-0.9c-0.3-0.2-0.7,0-0.9,0.3c-0.2,0.2-0.3,0.6-0.3,0.9c0,0.2,0,0.4,0,0.7
					c-0.2,0.1-0.4,0.2-0.6,0.1c-0.2,0-0.3-0.3-0.4-0.5c-0.1-0.3,0-0.6,0-0.9c0-0.1,0-0.2,0.1-0.3c0,0,0,0,0-0.1
					c0.1,0.1,0.2,0.3,0.2,0.4c0.1,0.2,0.6-0.1,0.5-0.3c-0.1-0.2-0.1-0.4-0.4-0.5c-0.2-0.1-0.5,0.1-0.6,0.2c-0.4,0.4-0.4,0.9-0.4,1.4
					c0,0.3,0.1,0.7,0.4,0.9c0.4,0.2,0.9,0,1.2-0.2c0.1,0.2,0.3,0.4,0.6,0.4c0.4-0.1,0.7-0.2,1-0.5c0,0.3,0.1,0.6,0.3,0.7
					c0.3,0.2,0.7,0,0.9-0.3c0.3-0.4,0.4-0.8,0.3-1.3C-316.1,441.7-316.2,441.6-316.4,441.6z M-318.5,441.4c0-0.1,0.1-0.2,0.1-0.2
					l0,0c0.1,0,0.2,0.2,0.2,0.3c0,0.2-0.2,0.5-0.4,0.7v-0.1C-318.6,441.9-318.5,441.6-318.5,441.4z M-316.5,440.3
					c0-0.1,0.1-0.2,0.2-0.2l0,0c0.2,0.3,0,0.6-0.1,0.9c-0.1,0.2-0.3,0.5-0.4,0.7c0-0.2,0.1-0.5,0.1-0.7
					C-316.7,440.7-316.6,440.5-316.5,440.3z M-316.6,443.1c0,0,0,0.1-0.1,0.1c0,0,0,0-0.1,0c-0.2-0.1-0.2-0.4-0.2-0.5
					c0-0.1,0-0.2,0-0.3c0.1-0.1,0.1-0.1,0.2-0.2c0.1-0.1,0.2,0.1,0.3,0.2S-316.5,442.9-316.6,443.1z"/>
			</g>
		</g>
		<g>
			<g>
				<path class="st4" d="M-333.4,462.1c0.2-0.1,1.1-0.9,0.5-1.1c-0.4-0.1-0.6,0.3-0.7,0.6c-0.1,0.2-0.3,0.8,0.1,0.9
					c0.5,0.1,0.9-0.3,1.2-0.5c0.2-0.2-0.2-0.1-0.3,0s-0.4,0.4-0.6,0.3c-0.2,0-0.2-0.3-0.2-0.4c0-0.2,0.1-0.5,0.3-0.6
					c-0.1,0,0,0,0,0.1s0,0.1,0,0.2c-0.1,0.2-0.3,0.4-0.5,0.5C-333.8,462.1-333.5,462.2-333.4,462.1L-333.4,462.1z"/>
				<g>
					<path class="st4" d="M-332.6,462.3c0,0.3,0.3,0.4,0.6,0.3c0.3-0.2,0.3-0.5,0.4-0.7c0-0.2,0-0.5-0.2-0.7c-0.1-0.1-0.3,0-0.3,0
						c-0.2,0.1-0.3,0.3-0.3,0.5c0,0.2,0.3,0,0.3-0.1c0-0.2,0.1-0.2,0.2,0c0,0.1,0,0.2,0,0.3s0,0.3-0.1,0.4c0,0,0,0.1-0.1,0.1l0,0
						c-0.1,0-0.1-0.1-0.1-0.2C-332.3,462.1-332.6,462.2-332.6,462.3L-332.6,462.3z"/>
					<path class="st4" d="M-332.5,461.1c0,0.8-0.2,1.6-0.4,2.4c0,0.1,0.3,0,0.4-0.1c0.2-0.8,0.3-1.6,0.4-2.4
						C-332.2,460.8-332.5,461-332.5,461.1L-332.5,461.1z"/>
				</g>
				<path class="st4" d="M-333.4,461.9c-0.1,0-0.3,0.1-0.4,0.2c-0.2,0.1-0.1-0.3-0.1-0.4c0.1-0.3,0.2-0.5,0.3-0.8
					c0.1-0.1-0.3,0-0.3,0c0,0.1-0.1,0.1-0.1,0.2c-0.1,0.1-0.2,0-0.2-0.1s0-0.2,0.1-0.3s-0.2-0.1-0.2-0.1c-0.1,0-0.2,0.1-0.3,0.1
					c-0.2,0.1,0,0.2,0.2,0.1c0.1,0,0.2-0.1,0.3-0.2c-0.1,0-0.2,0-0.2-0.1c-0.2,0.2-0.3,0.6,0.2,0.6c0.3,0,0.5-0.2,0.6-0.4
					c-0.1,0-0.2,0-0.3,0c-0.2,0.3-0.4,0.7-0.4,1.1c0,0.2,0.1,0.3,0.3,0.3c0.2,0,0.5-0.2,0.6-0.2C-333.3,462-333.2,461.8-333.4,461.9
					L-333.4,461.9z"/>
				<path class="st4" d="M-327,460.8c-0.2-0.4-0.6,0-0.6,0.3c-0.1,0.3,0,0.7,0.1,1c0.1,0.3,0.5,0.3,0.7,0
					C-326.6,461.6-326.8,461.1-327,460.8c-0.1,0.1-0.2,0.2-0.2,0.2c0.1,0.2,0.4,1.5,0.9,0.8c0.1-0.2,0-0.4-0.1-0.1
					c0,0.1-0.2-0.3-0.2-0.3C-326.8,461.2-326.9,461-327,460.8c-0.1-0.2-0.3,0.1-0.2,0.2c0.1,0.2,0.1,0.4,0.2,0.6c0,0.1,0,0.2,0,0.2
					c-0.1,0-0.1,0-0.2-0.1c-0.1-0.1-0.2-0.3-0.2-0.4s0-0.2,0-0.3v-0.1c0-0.1,0.2,0,0.2,0C-327.1,461.2-326.9,460.9-327,460.8
					L-327,460.8z"/>
				<path class="st4" d="M-329,461.2c0.2,0.5,0.2,1,0.3,1.5c0,0.2,0.3-0.1,0.3-0.2c0-0.2,0-0.5,0-0.7c0-0.1,0-0.5,0.2-0.4
					c0.1-0.1,0.1-0.2,0.2-0.3c-0.6-0.2-0.7,0.7-0.7,1c0,0.1,0.1,0,0.2,0c0.4-0.2,0.2,0.7,0.7,0.4c0.3-0.2,0.5-0.6,0.6-0.9
					c0-0.2-0.2,0-0.2,0.1c0,0.2-0.1,0.4-0.3,0.5c-0.1,0-0.2-0.3-0.2-0.3c-0.1-0.2-0.3-0.2-0.5,0c0.1,0,0.1,0,0.2,0
					c0-0.1-0.1-0.6,0.2-0.5c0.1,0,0.3-0.3,0.2-0.3c-0.8-0.3-0.7,1.3-0.7,1.6c0.1-0.1,0.2-0.1,0.3-0.2c-0.1-0.5-0.1-1-0.4-1.5
					C-328.8,460.8-329.1,461.1-329,461.2L-329,461.2z"/>
				<path class="st4" d="M-331.4,461.4c0,0.4,0,0.9-0.1,1.3c0,0.2,0.3,0,0.4-0.1c0-0.3,0.1-0.4,0.3-0.6c0.2-0.2,0.3-0.5,0.4-0.7
					c0-0.2-0.2,0-0.3,0.1c-0.1,0.4-0.2,0.9-0.1,1.3c0.1,0.4,0.7-0.1,0.9-0.2c0.2-0.2,0-0.3-0.2-0.1c0,0-0.3,0.3-0.3,0.2
					c-0.1-0.1-0.1-0.3-0.1-0.4c0-0.3,0-0.6,0.1-0.9c-0.1,0-0.2,0.1-0.3,0.1c-0.1,0.3-0.2,0.5-0.4,0.6c-0.2,0.2-0.3,0.4-0.4,0.7
					c0.1,0,0.2-0.1,0.4-0.1c0-0.4,0-0.9,0-1.3C-331.1,461.1-331.4,461.3-331.4,461.4L-331.4,461.4z"/>
				<path class="st4" d="M-328.8,462.2c0,0.1-0.1,0.1-0.1,0.2c-0.1,0.1,0,0,0,0c-0.1,0-0.2-0.1-0.2-0.2c-0.1-0.3-0.1-0.7-0.2-1
					c0-0.2-0.3,0.1-0.3,0.2c0,0.2,0,0.4,0,0.6c0,0.1,0,0.2,0,0.3s0,0.2-0.1,0.1c-0.3-0.2-0.2-0.9-0.2-1.1c0-0.2-0.2,0-0.3,0.1
					c-0.1,0.2-0.3,1.4,0.4,1.3c0.7-0.1,0.5-1.1,0.4-1.6c-0.1,0.1-0.2,0.1-0.3,0.2c0,0.4,0,1,0.3,1.3
					C-329.1,462.8-328.8,462.3-328.8,462.2C-328.5,462-328.7,462.1-328.8,462.2L-328.8,462.2z"/>
			</g>
		</g>
		<g>
			<path class="st8" d="M-345.4,447.8c-0.1,0-0.1-0.1-0.2-0.1c-0.3-0.1-0.5,0.1-0.7,0.1c-0.6,0-0.8,0-1.5-0.2c0-0.6,0.3-1,0.5-1.5
				c0.1-0.4-0.1-0.9-0.1-1.4c0-0.3,0-0.6,0-0.9c-0.2,0.2-0.1,0.7-0.1,1c-0.1-0.4-0.1-0.8-0.2-1.2c-0.1,0.3,0,0.8,0,1.2
				c-0.1-0.3-0.1-0.7-0.3-1c-0.2,0.3,0.1,0.8,0.1,1.1c-0.1-0.3-0.2-0.6-0.3-0.9c-0.1,0.4,0.1,0.7,0.1,1c-0.1-0.2-0.2-0.5-0.4-0.7
				c0,0.3,0.2,0.6,0.3,0.8c-0.2-0.1-0.2-0.3-0.4-0.4c0,0.2,0.2,0.3,0.2,0.5c-0.1-0.1-0.2-0.2-0.3-0.2c0,0.2,0.2,0.2,0.2,0.4
				c-0.1-0.1-0.2-0.1-0.3-0.2c0,0.1,0.2,0.2,0.2,0.3c0,0-0.1-0.1-0.1,0l0.1,0.1h-0.1c0,0.1,0.1,0.1,0.1,0.2c0,0,0,0-0.1,0
				c0,0.1,0.1,0.1,0.1,0.1c-0.5,0.5-0.2,1.1-0.3,1.7c0-0.1-0.4-0.2-0.8-0.3c-0.2-0.1-0.2-0.3-0.4-0.4c0,0,0,0,0.1-0.1
				c-0.1,0-0.1,0-0.1-0.1c0.1,0,0.2,0,0.2,0c-0.1-0.1-0.3-0.1-0.3-0.2c0.1,0,0.2,0.1,0.3,0.1c-0.1-0.1-0.4-0.2-0.4-0.3
				c0.1,0,0.3,0.2,0.5,0.1c-0.2-0.1-0.5-0.3-0.6-0.4c0.2,0.1,0.4,0.3,0.5,0.2c-0.3-0.1-0.5-0.4-0.7-0.4c0.1,0.2,0.5,0.4,0.6,0.5
				c-0.2-0.1-0.4-0.2-0.6-0.3c0.1,0.2,0.4,0.3,0.5,0.5c-0.2,0-0.3-0.1-0.5-0.1c0.1,0.2,0.4,0.2,0.5,0.3c-0.1,0-0.2,0-0.3,0
				c0,0.1,0.2,0.1,0.3,0.2c-0.1,0-0.2,0-0.3,0.1c0.1,0.1,0.2,0,0.3,0.1c-0.1,0-0.1,0-0.1,0.1s0.2,0,0.2,0.1c0,0-0.1,0-0.1,0.1h0.1
				c0,0,0,0-0.1,0.1c0.3,0.1,0.4,0.6,0.8,0.7c-0.2,0.1,0.2,0.3-2.2,1.1c0.1,0,1-0.2,1.3-0.3s0.6-0.2,0.9-0.3c0.1,0,0.1,0,0.2-0.1
				c0.5,0,0.9,0,1.4-0.3c-0.4,0.1-1,0.1-1.2-0.1c0.3-0.5,0.1-1.8,0.3-2.1c0.3-0.3,0.7-1.1,1.2-0.4c0.1,0.1,0.1,0.3-0.1,0.6
				c-0.2,0.4-0.4,0.5-0.3,1.3c0,0.2,0,0.3-0.2,0.3c1,0.2,1.3,0.1,1.9,0c0.2,0,0.5-0.2,0.5,0c0,0.1-0.2,0.1-0.4,0.1
				c-0.3,0,0.1,0.1,0.3,0.1c0.1,0,0.6-0.1,0.9-0.1C-345.1,447.8-345.2,447.8-345.4,447.8z"/>
			<path class="st8" d="M-348.4,442.5c-2.4,0-4.3,1.9-4.3,4.3s1.9,4.3,4.3,4.3s4.3-1.9,4.3-4.3C-344.1,444.4-346,442.5-348.4,442.5
				 M-348.4,442.6c2.3,0,4.1,1.8,4.1,4.1c0,2.3-1.8,4.1-4.1,4.1c-2.3,0-4.1-1.8-4.1-4.1C-352.5,444.5-350.7,442.6-348.4,442.6"/>
		</g>
	</g>
	<g id="butylka_1">
	</g>
	<g id="vanna_2">
	</g>
	<g id="sneg">
	</g>
	<g id="zakvaska">
	</g>
	<g id="shariki_2">
	</g>
	<g id="shariki_1">
	</g>
	<g id="voronka">
	</g>
	<g id="gradusnik">
	</g>
	<g id="kolba_2">
	</g>
	<g id="kolba_1">
	</g>
	<g id="probirki">
	</g>
	<g id="lupa">
	</g>
	<g id="bidon">
	</g>
	<g id="blank">
	</g>
	<g id="ticks">
	</g>
</g>
<g id="_x32_">
	<g>
		<path class="st0" d="M-218.8,501.1c0,0,0-40.9,0-63.2c0-22.3-9.2-30.7-9.2-30.7c2.5-13.8-4.1-17.9-4.1-17.9v-5h1.4
			c0,0,0-5.3,0-7.1c0-1.8-2.5-1.6-2.5-1.6h-9.1h-0.8h-9.1c0,0-2.5-0.2-2.5,1.6c0,1.8,0,7.1,0,7.1h1.5v5h-0.1c0,0-6.6,4.2-4.1,17.9
			c0,0-9.2,8.5-9.2,30.7c0,22.2,0,63.2,0,63.2s-0.9,13.6,9.1,13.6c2.7,0,5,0,6.9,0c5.1,0,7.5,0,7.5,0h0.5h0.5l0,0h7.4l0,0
			c1.9,0,4.1,0,6.8,0l0,0C-217.9,514.7-218.8,501.1-218.8,501.1z"/>
		<path class="st1" d="M-223.7,497.9c0,0,0-40.9,0-63.2s-9.2-30.7-9.2-30.7c2.5-13.8-4.2-17.9-4.2-17.9V381H-258v5.1h-0.1
			c0,0-6.6,4.2-4.1,17.9c0,0-9.2,8.5-9.2,30.7c0,22.3,0,63.2,0,63.2s-0.9,13.6,9.1,13.6c2.7,0,5,0,6.9,0c5.1,0,7.5,0,7.5,0h1h7.5
			c1.9,0,4.2,0,6.9,0C-222.8,511.5-223.7,497.9-223.7,497.9z"/>
		<path class="st2" d="M-238.1,372.4h-9.1h-0.8h-9.1c0,0-2.5-0.2-2.5,1.6c0,1.8,0,7.1,0,7.1h11.6h0.8h11.5c0,0,0-5.3,0-7.1
			C-235.7,372.2-238.1,372.4-238.1,372.4z"/>
		<path class="st3" d="M-223.7,497.9c0,0,0-40.9,0-63.2s-9.2-30.7-9.2-30.7c2.5-13.8-4.2-17.9-4.2-17.9V381h-10.5v130.5h0.5h7.5
			c1.9,0,4.2,0,6.9,0C-222.8,511.5-223.7,497.9-223.7,497.9z"/>
		<path class="st4" d="M-263.7,427.3c-0.1,0-0.2,0-0.3,0c-1.4-0.2-2.5-1.5-2.3-3c1.2-9.1,5.6-14.7,5.8-14.9c0.9-1.1,2.6-1.3,3.7-0.4
			c1.1,0.9,1.3,2.6,0.4,3.7c-0.1,0.1-3.7,4.7-4.7,12.3C-261.3,426.4-262.4,427.3-263.7,427.3z"/>
	</g>
	<g>
		<g>
			<path class="st5" d="M-228.7,458.9c-0.4-1-1.1-0.7-1.4,0c-0.9,2,0.4,2.3,0.6,2.4c0,0-0.2-0.3-0.2-0.6c0,0-0.4-0.4-0.4-0.7v-0.2
				l0.1,0.1c0,0.1,0.1,0.4,0.4,0.6c0-0.1,0-0.2,0.1-0.2c-0.1-0.1-0.4-0.3-0.4-0.6v-0.1v-0.2l0.1,0.3c0,0.2,0.1,0.4,0.4,0.6l0,0
				c0-0.1,0.1-0.2,0.1-0.3c-0.1,0-0.4-0.2-0.4-0.7v-0.1v-0.1l0.1,0.2c0,0.1,0.1,0.5,0.4,0.6c0-0.1,0-0.2,0.1-0.3l0,0
				c0,0-0.3-0.1-0.4-0.6c0,0,0,0,0-0.1v-0.1v0.2c0,0.1,0.1,0.5,0.3,0.5c0-0.5-0.1-0.9-0.1-0.9v-0.1l0.1,0.1c0,0,0.1,0.2,0.1,0.5
				c0.1-0.2,0.1-0.4,0.1-0.4v-0.1l0.1,0.1c0,0.2-0.1,0.5-0.2,0.5c0,0.2,0,0.4,0,0.6c0.5-0.2,0.6-0.6,0.6-0.6v-0.1v0.1
				c0,0.4-0.5,0.7-0.6,0.7l0,0l0,0c0,0,0,0.1-0.1,0.2c0.5,0,0.8-0.5,0.8-0.5v-0.1c0,0,0,0.1-0.1,0.2c-0.3,0.4-0.8,0.5-0.8,0.5
				c0,0.1-0.1,0.2-0.1,0.3c0.1,0,0.6-0.1,0.9-0.4l0,0l0,0l0,0l0.1-0.1l-0.1,0.1c-0.1,0.1-0.5,0.4-0.9,0.5c0,0.1,0,0.2,0,0.3h0.1
				c0.4,0,0.6-0.3,0.7-0.4l0.1-0.1l-0.1,0.2c-0.3,0.5-0.7,0.5-0.8,0.5l0,0c0,0.1,0.1,0.3,0.1,0.3h0.1
				C-228.4,460.4-228.4,459.6-228.7,458.9z"/>
			<path class="st5" d="M-226.2,460.6c0.6-0.6,0.3-1.1-0.4-1.1c-1.8-0.1-1.7,0.9-1.7,1c0,0,0.2-0.2,0.4-0.3c0,0,0.2-0.4,0.4-0.5h0.1
				l-0.1,0.1c-0.1,0.1-0.2,0.2-0.3,0.4c0.1,0,0.1,0,0.2,0c0-0.1,0.2-0.4,0.4-0.5c0,0,0,0,0.1,0l0.1-0.1l-0.2,0.1
				c-0.1,0.1-0.3,0.2-0.3,0.5l0,0c0.1,0,0.2,0,0.2,0c0-0.1,0.1-0.4,0.4-0.5h0.1h0.1l-0.1,0.1c-0.1,0.1-0.3,0.2-0.3,0.5
				c0.1,0,0.2,0,0.3,0l0,0c0,0,0-0.3,0.4-0.4c0,0,0,0,0.1,0h0.1l-0.1,0.1c-0.1,0.1-0.3,0.2-0.3,0.4c0.4-0.1,0.7-0.3,0.7-0.3l0.1-0.1
				v0.1c0,0-0.1,0.1-0.3,0.2c0.2,0.1,0.3,0,0.3,0h0.1v0.1c-0.1,0.1-0.4,0-0.4,0c-0.2,0.1-0.3,0.1-0.5,0.1c0.3,0.4,0.6,0.3,0.6,0.3
				L-226.2,460.6h-0.2c-0.3,0.1-0.6-0.2-0.7-0.3l0,0l0,0h-0.1c0.1,0.4,0.6,0.5,0.6,0.5h0.1c0,0-0.1,0-0.2,0
				c-0.4-0.1-0.6-0.5-0.6-0.5c-0.1,0-0.2,0-0.3,0c0,0.1,0.3,0.4,0.5,0.6l0,0l0,0l0,0h0.1h-0.1c-0.1-0.1-0.5-0.3-0.6-0.6
				c-0.1,0-0.2,0-0.3,0.1v0.1c0.1,0.3,0.4,0.4,0.5,0.5h0.1h-0.1c-0.5-0.1-0.6-0.4-0.6-0.5l0,0c-0.1,0.1-0.2,0.2-0.2,0.2v0.1
				C-227.3,461.3-226.7,461.1-226.2,460.6z"/>
			<path class="st5" d="M-228.1,461.6c0.4-0.2,0.3-0.5,0-0.6c-0.9-0.4-1,0.2-1,0.2s0.1-0.1,0.3-0.1c0,0,0.2-0.1,0.3-0.2h0.1h-0.1
				c-0.1,0-0.2,0.1-0.2,0.2h0.1c0,0,0.1-0.1,0.3-0.2l0,0h0.1h-0.1c-0.1,0-0.2,0.1-0.2,0.2l0,0c0,0,0.1,0,0.1,0.1
				c0,0,0.1-0.2,0.3-0.2l0,0l0,0h-0.1c-0.1,0-0.2,0-0.3,0.2h0.1l0,0c0,0,0.1-0.1,0.3-0.2l0,0l0,0h-0.1c-0.1,0-0.2,0.1-0.2,0.1
				c0.2,0,0.4,0,0.4,0l0,0l0,0c0,0-0.1,0-0.2,0.1c0.1,0.1,0.2,0.1,0.2,0.1l0,0l0,0c-0.1,0-0.2-0.1-0.2-0.1c-0.1,0-0.2,0-0.3,0
				C-228.4,461.5-228.2,461.5-228.1,461.6L-228.1,461.6L-228.1,461.6c-0.3,0-0.4-0.3-0.4-0.3l0,0l0,0c0,0,0,0-0.1,0
				c0,0.2,0.2,0.4,0.2,0.4l0,0c0,0,0,0-0.1,0c-0.2-0.1-0.2-0.4-0.2-0.4s-0.1,0-0.1-0.1c0,0.1,0.1,0.3,0.2,0.4l0,0l0,0l0,0l0,0h-0.1
				c0,0-0.2-0.2-0.2-0.4h-0.1l0,0c0,0.2,0.1,0.3,0.2,0.3h0.1h-0.1c-0.2-0.2-0.2-0.3-0.2-0.4l0,0c-0.1,0-0.1,0.1-0.1,0.1l0,0
				C-228.8,461.7-228.4,461.7-228.1,461.6z"/>
			<path class="st5" d="M-228.8,463c0.8-0.4,0.6-0.9,0-1.2c-1.7-0.8-2,0.3-2,0.4c0,0,0.2-0.2,0.5-0.1c0,0,0.3-0.3,0.6-0.3h0.1h-0.1
				c-0.1,0-0.3,0.1-0.5,0.3c0.1,0,0.1,0,0.2,0.1c0.1-0.1,0.3-0.3,0.5-0.3c0,0,0,0,0.1,0h0.2h-0.2c-0.1,0-0.3,0.1-0.5,0.3l0,0
				c0.1,0,0.1,0.1,0.2,0.1c0-0.1,0.2-0.3,0.6-0.3h0.1h0.1h-0.1c-0.1,0-0.4,0.1-0.5,0.3c0.1,0,0.2,0,0.3,0.1l0,0c0,0,0.1-0.3,0.5-0.3
				c0,0,0,0,0.1,0h0.1h-0.1c-0.1,0-0.4,0.1-0.5,0.3c0.4,0,0.8-0.1,0.8-0.1h0.1l-0.1,0.1c0,0-0.2,0.1-0.4,0.1
				c0.1,0.1,0.3,0.1,0.3,0.1h0.1h-0.1c-0.2,0-0.4-0.1-0.4-0.1c-0.2,0-0.4,0-0.5,0C-229.1,462.9-228.8,463-228.8,463h0.1H-228.8
				c-0.4,0-0.5-0.5-0.6-0.5l0,0l0,0c0,0-0.1,0-0.1-0.1c0,0.4,0.4,0.7,0.4,0.7h0.1c0,0-0.1,0-0.2-0.1c-0.4-0.3-0.4-0.7-0.4-0.7
				c-0.1,0-0.2-0.1-0.3-0.1c0,0.1,0.1,0.5,0.3,0.7l0,0l0,0l0,0l0.1,0.1l-0.1-0.1c-0.1-0.1-0.3-0.4-0.4-0.8c-0.1,0-0.2,0-0.3,0v0.1
				c0,0.3,0.2,0.5,0.4,0.6l0.1,0.1l-0.1-0.1c-0.4-0.3-0.4-0.6-0.4-0.7l0,0c-0.1,0-0.2,0.1-0.3,0.1v0.1
				C-230.1,463.2-229.4,463.2-228.8,463z"/>
			<path class="st5" d="M-231.3,460.8c-0.4-0.9-1-0.7-1.3,0c-0.8,1.9,0.4,2.1,0.5,2.2c0,0-0.2-0.2-0.2-0.6c0,0-0.3-0.3-0.4-0.6v-0.1
				v0.1c0,0.1,0.1,0.3,0.4,0.5c0-0.1,0-0.1,0.1-0.2c-0.1-0.1-0.3-0.3-0.4-0.6v-0.1v-0.2l0.1,0.2c0,0.1,0.1,0.3,0.4,0.5l0,0
				c0-0.1,0.1-0.2,0.1-0.3c-0.1,0-0.4-0.2-0.4-0.6v-0.1v-0.1l0.1,0.1c0,0.1,0.1,0.4,0.4,0.5c0-0.1,0-0.2,0.1-0.3l0,0
				c0,0-0.3-0.1-0.3-0.6c0,0,0,0,0-0.1v-0.1v0.2c0,0.1,0.1,0.4,0.3,0.5c0-0.5-0.1-0.9-0.1-0.9V460l0.1,0.1c0,0,0.1,0.2,0.1,0.4
				c0.1-0.1,0.1-0.4,0.1-0.4V460l0.1,0.1c0,0.2-0.1,0.4-0.1,0.5c0,0.2,0,0.4,0,0.6c0.5-0.2,0.5-0.6,0.5-0.6v-0.1v0.1
				c0,0.4-0.5,0.6-0.6,0.6l0,0l0,0c0,0,0,0.1-0.1,0.1c0.4,0,0.8-0.5,0.8-0.5v-0.1c0,0,0,0.1-0.1,0.2c-0.3,0.4-0.7,0.5-0.8,0.5
				c0,0.1-0.1,0.2-0.1,0.3c0.1,0,0.5-0.1,0.8-0.4l0,0l0,0l0,0l0.1-0.1l-0.1,0.1c-0.1,0.1-0.5,0.4-0.8,0.4c0,0.1,0,0.2,0,0.3h0.1
				c0.3,0,0.6-0.3,0.7-0.4l0.1-0.1l-0.1,0.2c-0.3,0.5-0.6,0.5-0.8,0.5l0,0c0,0.1,0.1,0.3,0.1,0.3h0.1
				C-231,462.2-231,461.5-231.3,460.8z"/>
			<path class="st5" d="M-231.5,463.1c-0.3-0.6-0.7-0.4-0.8,0c-0.5,1.2,0.3,1.4,0.3,1.4s-0.1-0.2-0.1-0.4c0,0-0.2-0.2-0.2-0.4v-0.1
				v0.1c0,0.1,0.1,0.2,0.2,0.3v-0.1c0,0-0.2-0.2-0.2-0.4l0,0v-0.1v0.2c0,0.1,0.1,0.2,0.2,0.3l0,0c0-0.1,0-0.1,0.1-0.2
				c0,0-0.2-0.1-0.3-0.4l0,0v-0.1v0.1c0,0.1,0.1,0.3,0.2,0.3c0-0.1,0-0.1,0-0.2l0,0c0,0-0.2-0.1-0.2-0.4c0,0,0,0,0-0.1v-0.1v0.1
				c0,0.1,0.1,0.3,0.2,0.3c0-0.3-0.1-0.5-0.1-0.5v-0.1c0,0,0,0,0,0.1c0,0,0.1,0.1,0.1,0.3c0.1-0.1,0.1-0.2,0.1-0.2l0,0l0,0
				c0,0.1-0.1,0.3-0.1,0.3c0,0.1,0,0.3,0,0.4c0.3-0.1,0.3-0.3,0.3-0.3L-231.5,463.1v0.1c0,0.2-0.3,0.4-0.4,0.4l0,0l0,0v0.1
				c0.3,0,0.5-0.3,0.5-0.3l0,0v0.1c-0.2,0.3-0.5,0.3-0.5,0.3c0,0.1-0.1,0.1-0.1,0.2c0.1,0,0.3-0.1,0.5-0.2l0,0l0,0l0,0l0,0v0.1
				c-0.1,0.1-0.3,0.2-0.5,0.3c0,0.1,0,0.1,0,0.2c0,0,0,0,0.1,0c0.2,0,0.4-0.2,0.4-0.3l0.1-0.1v0.1c-0.2,0.3-0.4,0.3-0.5,0.3l0,0
				c0,0.1,0.1,0.2,0.1,0.2l0,0C-231.3,464-231.3,463.5-231.5,463.1z"/>
			<path class="st5" d="M-230.1,465.5c0.8-0.4,0.6-1,0-1.2c-1.7-0.8-2,0.3-2,0.4c0,0,0.2-0.2,0.6-0.1c0,0,0.3-0.3,0.6-0.3h0.1h-0.1
				c-0.1,0-0.3,0.1-0.5,0.3c0.1,0,0.1,0,0.2,0.1c0.1-0.1,0.3-0.3,0.6-0.3h0.1h0.2h-0.2c-0.1,0-0.3,0.1-0.5,0.3l0,0
				c0.1,0,0.2,0.1,0.2,0.1c0-0.1,0.2-0.3,0.6-0.4h0.1h0.1h-0.1c-0.1,0-0.4,0.1-0.5,0.4c0.1,0,0.2,0,0.3,0.1l0,0c0,0,0.1-0.3,0.5-0.3
				c0,0,0,0,0.1,0h0.1h-0.2c-0.1,0-0.4,0.1-0.5,0.3c0.4,0,0.8-0.1,0.8-0.1h0.1l-0.1,0.1c0,0-0.2,0.1-0.4,0.1
				c0.1,0.1,0.3,0.1,0.3,0.1h0.1h-0.1c-0.2,0-0.4-0.1-0.4-0.1c-0.2,0-0.4,0-0.5,0c0.2,0.5,0.5,0.5,0.5,0.5h0.1h-0.1
				c-0.4,0-0.6-0.5-0.6-0.5l0,0l0,0c0,0-0.1,0-0.1-0.1c0,0.4,0.4,0.7,0.4,0.7h0.1c0,0-0.1,0-0.2-0.1c-0.4-0.3-0.4-0.7-0.4-0.7
				c-0.1,0-0.2-0.1-0.3-0.1c0,0.1,0.1,0.5,0.3,0.8l0,0l0,0l0,0l0.1,0.1l-0.1-0.1c-0.1-0.1-0.4-0.4-0.4-0.8c-0.1,0-0.2,0-0.3,0v0.1
				c0,0.3,0.2,0.5,0.4,0.7l0.1,0.1l-0.1-0.1c-0.4-0.3-0.4-0.6-0.4-0.7l0,0c-0.1,0-0.2,0.1-0.3,0.1v0.1
				C-231.4,465.8-230.8,465.8-230.1,465.5z"/>
			<path class="st5" d="M-230.7,467c0.9-0.1,0.8-0.6,0.3-1c-1.5-1.1-2-0.2-2.1-0.2c0,0,0.3-0.1,0.6,0c0,0,0.4-0.2,0.6-0.1h0.1h-0.1
				c-0.1,0-0.3,0-0.5,0.1c0.1,0,0.1,0.1,0.2,0.1c0.1,0,0.3-0.2,0.6-0.1h0.1h0.2h-0.2c-0.1,0-0.3,0-0.5,0.2l0,0
				c0.1,0,0.1,0.1,0.2,0.1c0,0,0.3-0.2,0.6-0.2h0.1h0.1h-0.1c-0.1,0-0.4,0-0.6,0.2c0.1,0,0.2,0.1,0.2,0.1l0,0c0,0,0.2-0.2,0.6-0.1
				c0,0,0,0,0.1,0h0.1h-0.1c-0.1,0-0.4,0-0.5,0.1c0.4,0.1,0.8,0.1,0.8,0.1h0.1h-0.1c0,0-0.2,0-0.4,0c0.1,0.1,0.3,0.2,0.3,0.2h0.1
				h-0.1c-0.2,0-0.4-0.2-0.4-0.2c-0.2,0-0.4-0.1-0.5-0.2c0.1,0.4,0.4,0.5,0.4,0.5h0.1h-0.1c-0.3-0.1-0.4-0.5-0.4-0.6l0,0l0,0
				c0,0-0.1,0-0.1-0.1c-0.1,0.3,0.3,0.7,0.3,0.7h0.1c0,0-0.1,0-0.2-0.1c-0.3-0.3-0.3-0.7-0.3-0.7c-0.1-0.1-0.2-0.1-0.2-0.2
				c0,0.1,0,0.5,0.1,0.7l0,0l0,0l0,0l0.1,0.1l-0.1-0.1c-0.1-0.1-0.2-0.4-0.2-0.8c-0.1,0-0.2-0.1-0.3-0.1c0,0,0,0,0,0.1
				c-0.1,0.3,0.1,0.5,0.2,0.6l0.1,0.1l-0.1-0.1c-0.3-0.4-0.3-0.6-0.3-0.7l0,0c-0.1,0-0.3,0-0.3,0v0.1
				C-232,466.9-231.3,467-230.7,467z"/>
			<path class="st5" d="M-234.5,461.7c-1.1-0.5-1.4,0.2-1,1c1.1,2.2,2.2,1.6,2.3,1.5c0,0-0.4-0.1-0.6-0.4c-0.1,0-0.5-0.1-0.8-0.2
				l-0.1-0.1l0.2,0.1c0.1,0.1,0.4,0.2,0.7,0.2c-0.1-0.1-0.1-0.1-0.1-0.2c-0.1,0-0.5,0-0.8-0.2c0,0-0.1,0-0.1-0.1l-0.2-0.2l0.3,0.2
				c0.1,0.1,0.4,0.2,0.7,0.2l0,0c0-0.1-0.1-0.2-0.1-0.3c-0.1,0-0.5,0.1-0.8-0.2l-0.1-0.1l-0.1-0.1l0.2,0.1c0.1,0.1,0.5,0.3,0.8,0.2
				c-0.1-0.1-0.1-0.2-0.2-0.3l0,0c0,0-0.3,0.1-0.8-0.2c0,0,0,0-0.1-0.1l-0.1-0.1l0.2,0.1c0.1,0.1,0.5,0.3,0.7,0.2
				c-0.4-0.4-0.8-0.7-0.8-0.7l-0.1-0.1h0.1c0,0,0.2,0.1,0.5,0.3c0-0.2-0.2-0.4-0.2-0.4l-0.1-0.1h0.1c0.2,0.1,0.3,0.5,0.3,0.5
				c0.2,0.2,0.4,0.3,0.5,0.5c0.2-0.5-0.1-0.9-0.1-0.9l-0.1-0.1l0.1,0.1c0.3,0.3,0.2,0.9,0.1,1l0,0l0,0c0,0,0.1,0.1,0.1,0.2
				c0.3-0.3,0.1-1,0.1-1v-0.1c0,0,0.1,0.1,0.1,0.2c0.1,0.6-0.1,1-0.2,1c0.1,0.1,0.1,0.2,0.2,0.3c0.1-0.1,0.3-0.5,0.3-0.9l0,0l0,0
				l0,0v-0.1l0.1,0.2c0,0.2,0,0.7-0.3,1c0.1,0.1,0.2,0.2,0.3,0.3c0,0,0.1,0,0.1-0.1c0.2-0.3,0.2-0.7,0.1-0.9v-0.2l0.1,0.2
				c0.2,0.6,0,0.9-0.1,1l0,0c0.1,0.1,0.3,0.1,0.3,0.1l0.1-0.1C-233,462.6-233.7,462-234.5,461.7z"/>
			<path class="st5" d="M-232.8,467c0.5,0.3,0.7,0,0.5-0.5c-0.4-1.2-1-0.9-1.1-0.8c0,0,0.2,0.1,0.3,0.2c0,0,0.3,0.1,0.4,0.2l0.1,0.1
				h-0.1c-0.1,0-0.2-0.1-0.3-0.1c0,0,0,0.1,0.1,0.1c0,0,0.2,0,0.4,0.2l0,0l0.1,0.1l-0.1-0.1c-0.1-0.1-0.2-0.1-0.4-0.1l0,0
				c0,0.1,0,0.1,0.1,0.2c0,0,0.2,0,0.4,0.2l0,0l0,0l-0.1-0.1c-0.1-0.1-0.2-0.2-0.4-0.1c0,0.1,0.1,0.1,0.1,0.2l0,0c0,0,0.2,0,0.4,0.2
				l0,0l0,0l-0.1-0.1c-0.1,0-0.2-0.2-0.3-0.1c0.2,0.2,0.4,0.4,0.4,0.4h0.1c0,0,0,0-0.1,0c0,0-0.1-0.1-0.2-0.2c0,0.1,0.1,0.2,0.1,0.2
				l0,0h-0.1c-0.1-0.1-0.1-0.2-0.1-0.3c-0.1-0.1-0.2-0.2-0.2-0.3c-0.1,0.3,0,0.4,0,0.4L-232.8,467v-0.1c-0.2-0.2,0-0.5,0-0.5l0,0
				l0,0v-0.1c-0.2,0.2-0.1,0.5-0.1,0.5l0,0c0,0,0,0,0-0.1c0-0.3,0.1-0.5,0.1-0.5c0-0.1,0-0.1-0.1-0.2c0,0-0.2,0.2-0.2,0.4l0,0l0,0
				l0,0v0.1v-0.1c0-0.1,0-0.3,0.2-0.5c0-0.1-0.1-0.1-0.1-0.1l0,0c-0.1,0.1-0.1,0.3-0.1,0.4v0.1v-0.1c0-0.3,0.1-0.4,0.1-0.5l0,0
				c-0.1,0-0.1-0.1-0.2-0.1l0,0C-233.5,466.5-233.2,466.8-232.8,467z"/>
		</g>
		<g>
			<path class="st5" d="M-232.4,463.6c0-0.1,0-0.1,0.1-0.2c-1.6,1.7-2.4,3.2-2.4,3.3l0.1,0.1c0,0,0.7-1.5,2.2-3
				C-232.5,463.7-232.5,463.6-232.4,463.6z"/>
			<path class="st5" d="M-228.2,460.6l0.1-0.2L-228.2,460.6c-1.4,0.5-2.6,1.4-3.6,2.3l0.1,0.1C-230.7,462.1-229.5,461.2-228.2,460.6
				C-227.8,460.5-228.2,460.6-228.2,460.6z"/>
			<path class="st9" d="M-231.7,465.5c-0.2,0.5-0.8,0.7-1.4,0.5c-0.5-0.2-0.7-0.8-0.5-1.4c0.2-0.5,0.8-0.7,1.4-0.5
				C-231.6,464.3-231.4,464.9-231.7,465.5"/>
			<path class="st10" d="M-231.8,464.8c-0.1,0.1-0.3,0.1-0.4-0.1c-0.1-0.1-0.2-0.3-0.1-0.4c0.1-0.1,0.3-0.1,0.4,0.1
				C-231.8,464.5-231.7,464.7-231.8,464.8"/>
			<path class="st9" d="M-233.2,465.3c0.3,0.4,0.2,1-0.2,1.3c-0.4,0.3-1,0.2-1.3-0.2s-0.2-1,0.2-1.3
				C-234.1,464.8-233.5,464.9-233.2,465.3"/>
			<path class="st10" d="M-233.8,465.2c0,0.1-0.1,0.3-0.2,0.3c-0.2,0.1-0.3,0-0.4-0.1c0-0.1,0.1-0.3,0.2-0.3
				C-234,465-233.8,465.1-233.8,465.2"/>
			<path class="st9" d="M-233.9,463.8c0.2,0.3,0.2,0.7-0.1,0.9c-0.3,0.2-0.7,0.2-0.9-0.1c-0.2-0.3-0.2-0.7,0.1-0.9
				C-234.6,463.4-234.1,463.5-233.9,463.8"/>
			<path class="st10" d="M-234.3,463.7c0,0.1,0,0.2-0.2,0.2c-0.1,0-0.2,0-0.3-0.1c0-0.1,0-0.2,0.2-0.2
				C-234.5,463.5-234.4,463.6-234.3,463.7"/>
			<path class="st9" d="M-232.6,462.4c0.2,0.3,0.2,0.7-0.1,0.9c-0.3,0.2-0.7,0.2-0.9-0.1c-0.2-0.3-0.2-0.7,0.1-0.9
				C-233.2,462.1-232.8,462.1-232.6,462.4"/>
			<path class="st10" d="M-233,462.3c0,0.1,0,0.2-0.2,0.2c-0.1,0-0.2,0-0.3-0.1c0-0.1,0-0.2,0.2-0.2S-233,462.2-233,462.3"/>
			<path class="st9" d="M-231,460.2c0.4,0.1,0.6,0.4,0.6,0.8c-0.1,0.4-0.4,0.6-0.8,0.6c-0.4-0.1-0.6-0.4-0.6-0.8
				C-231.7,460.4-231.4,460.2-231,460.2"/>
			<path class="st10" d="M-231.4,460.4c0.1,0,0.1,0.2,0,0.3s-0.2,0.2-0.2,0.1c-0.1,0-0.1-0.2,0-0.3
				C-231.5,460.4-231.4,460.4-231.4,460.4"/>
			<path class="st9" d="M-230.5,464.3c-0.4,0.3-0.9,0.2-1.2-0.2s-0.2-0.9,0.2-1.2c0.4-0.3,0.9-0.2,1.2,0.2
				C-230.1,463.5-230.1,464-230.5,464.3"/>
			<path class="st10" d="M-230.4,463.8c-0.1,0-0.2-0.1-0.3-0.2c0-0.1,0-0.3,0.1-0.3s0.2,0.1,0.3,0.2
				C-230.2,463.6-230.3,463.7-230.4,463.8"/>
		</g>
		<circle class="st9" cx="-246.6" cy="454.4" r="12.7"/>
		<circle class="st5" cx="-256.7" cy="465.6" r="4"/>
		<g>
			<path class="st4" d="M-259.4,465c0.1-0.4,0.4-0.1,0.5,0.1c0.1,0.3,0,0.6-0.2,0.8c-0.1,0.2-0.3,0.3-0.5,0.5
				c-0.1,0.1-0.2,0.1-0.3,0.2c0,0-0.1,0.1,0,0.2c0.1,0.1,0.4,0.1,0.6,0.1c0.3,0,0.6,0,0.9-0.1c0.2-0.1,0.3-0.5,0-0.3
				c-0.2,0.1-0.5,0.1-0.7,0.1c-0.1,0-0.4,0-0.5-0.1c0,0.1,0,0.1,0,0.2c-0.1,0.2,0,0.1,0.1,0c0.1-0.1,0.2-0.1,0.3-0.2
				c0.1-0.1,0.3-0.3,0.4-0.4c0.2-0.3,0.4-0.7,0.3-1c-0.2-0.9-1.1-0.2-1.3,0.2C-259.8,465.4-259.4,465.1-259.4,465L-259.4,465z"/>
			<path class="st4" d="M-257.2,466.4c0.3,1,1.8,0.3,1.5-0.6c-0.1-0.4-0.6-0.4-1-0.5c-0.2-0.1-0.2-0.2-0.2-0.4
				c0.1-0.2,0.1-0.2-0.1-0.1c0.1,0,0.1,0,0.2,0c0.3-0.1,0.6,0,0.9,0.1c0.1,0.1,0.4-0.3,0.3-0.3c-0.4-0.2-0.8-0.1-1.1-0.1
				c-0.4,0.1-0.4,0.4-0.5,0.7c0,0.4,0.4,0.5,0.7,0.5c0.2,0,0.5,0.1,0.5,0.4c0,0.5-0.4,0.4-0.6,0.3c-0.1-0.1-0.2-0.2-0.2-0.3
				C-256.9,466-257.2,466.3-257.2,466.4L-257.2,466.4z"/>
			<g>
				<path class="st4" d="M-253.8,464.7c-0.4,0.7-0.9,1.3-1.4,1.9c-0.2,0.3,0.1,0.3,0.3,0.1c0.5-0.7,1-1.3,1.5-2
					C-253.3,464.3-253.7,464.5-253.8,464.7L-253.8,464.7z"/>
				<path class="st4" d="M-254.6,464.5c-0.3,0-0.4,0.2-0.5,0.5c0,0.2,0.1,0.4,0.3,0.4C-254.3,465.4-254,464.5-254.6,464.5
					c-0.1,0-0.3,0.3-0.1,0.3c0.1,0,0.2,0.1,0.2,0.2v0.1l0,0c0,0,0,0-0.1,0s-0.2-0.1-0.2-0.2v-0.1l0,0c0,0,0,0,0.1,0
					C-254.6,464.7-254.4,464.5-254.6,464.5z"/>
				<path class="st4" d="M-253.9,465.9c-0.3,0-0.4,0.2-0.5,0.5c0,0.2,0.1,0.4,0.3,0.4C-253.6,466.8-253.3,465.9-253.9,465.9
					c-0.1,0-0.3,0.3-0.1,0.3c0.1,0,0.2,0.1,0.2,0.2v0.1l0,0c0,0,0,0-0.1,0s-0.2-0.1-0.2-0.2v-0.1l0,0c0,0,0,0,0.1,0
					S-253.7,465.9-253.9,465.9z"/>
			</g>
			<path class="st4" d="M-257.7,467.3c0.2-0.2,0.3-0.4,0.3-0.6c0-0.1,0-0.2,0-0.2c-0.1-0.1-0.2,0-0.3,0c-0.1,0-0.2,0.2-0.2,0.3
				s0.1,0.1,0.2,0.1l0,0l0,0v0.1c0,0.1,0,0.1-0.1,0.1l0,0l0,0l0,0c0-0.1,0,0,0,0c-0.1,0-0.2,0.2-0.1,0.3
				C-257.9,467.4-257.8,467.3-257.7,467.3L-257.7,467.3z"/>
		</g>
		<g>
			<g>
				<g>
					<path class="st4" d="M-236.7,456.8c-0.2-0.1-0.4,0-0.6,0.2c-0.1-0.3,0.1-0.9,0.1-1.2c0.2-1,0.2-1.7,0-2
						c-0.2-0.3-0.6-0.1-0.8-0.1c-0.1,0.1-0.2,0.1-0.3,0.2c0-0.2-0.1-0.4-0.2-0.6c-0.2-0.2-0.5-0.2-0.7-0.1c-0.1,0.1-0.3,0.1-0.4,0.2
						c0-0.1,0-0.2,0-0.3s0-0.1,0-0.1s-0.1,0-0.1-0.1h-0.1c-0.1,0-0.3,0.1-0.4,0.1c-0.1,0.1-0.1,0.1-0.2,0.2c-0.2,0.2-0.4,0.1-0.6,0
						c-0.2-0.1-0.3-0.2-0.4-0.4c-0.1-0.1-0.1-0.2-0.2-0.3c-0.3-0.2-0.7-0.1-0.9,0c0-0.2,0-0.5,0-0.7c0-0.2-0.4-0.1-0.5,0
						s-0.3,0.2-0.3,0.3c0,0-0.3,1.1-0.9,2c0-0.6,0.1-1.2,0.1-1.9c0-0.1,0-0.1-0.1-0.2c-0.1,0-0.2,0-0.3,0c-0.2,0.1-0.4,0.3-0.4,0.4
						c-0.1,0.9-0.2,2.7-0.7,2.7s-0.3-2.1-0.2-3.1c0-0.1-0.1-0.2-0.2-0.1c-0.1,0-0.2,0-0.2,0c-0.2,0.1-0.4,0.3-0.4,0.5
						c-0.1,0.6-0.2,1.2-0.4,1.8c-0.1,0.3-0.3,0.9-0.7,0.9s-0.4-0.4-0.3-0.7c0.1-0.3,0.3-0.6,0.5-0.9c0.2-0.4,0.3-0.6,0.4-0.8
						c0-0.4-0.2-0.7-0.7-0.8c-0.5,0-0.8,0.2-1.1,0.5c-0.1,0.1-0.2,0.2-0.3,0.2c-0.3,0-0.6-0.2-0.6-0.2c-0.1-0.1-0.3-0.2-0.6-0.1
						c-0.9,0.3-1.1,1.3-1,2.2c0,0.5,0,1-0.1,1.1c-0.3,0-0.5-0.4-0.7-0.6c-0.2-0.5-0.3-1-0.4-1.6c-0.1-0.8-0.1-1.6-0.1-2.3
						c0-0.2-0.3-0.1-0.4,0c-0.2,0.2-0.4,0.4-0.4,0.6c0,0.9,0.1,1.9,0.1,2.9c0,0.5,0,1-0.1,1.4c-0.1,0.2-0.2,0.2-0.3,0.2
						c-0.3-0.1-0.4-0.4-0.5-0.7c-0.1-0.4-0.2-0.9-0.2-1.4s0-0.9-0.1-1.4c0-0.3,0-0.7-0.2-0.9c-0.3-0.5-1.1,0.3-1.3,0.6
						c-0.4,0.5-0.6,1.1-0.6,1.6c0,0.2,0.1,0.3,0.3,0.1c0.2-0.2,0.4-0.4,0.4-0.7c0-0.2,0.1-0.7,0.3-0.8l0,0l0,0c0,0,0,0,0,0.1
						s0.1,0.2,0.1,0.4c0.1,0.9,0.1,1.9,0.3,2.8c0.1,0.7,0.4,1.6,1.3,1.3c0.5-0.1,0.8-0.7,1-1.1c0,0,0,0,0-0.1
						c0.2,0.4,0.6,0.7,1.1,0.6c0.4-0.1,0.5-0.5,0.6-0.8c0.2,0.3,0.4,0.5,0.8,0.5c0.4-0.1,0.8-0.5,0.9-0.9c0.2-0.4,0.2-0.9,0.2-1.3
						c0-0.2,0-0.5-0.1-0.7c0.1,0,0.2,0,0.3-0.1c0.2-0.1,0.4-0.4,0.6-0.5c0.1,0,0.2,0,0.3,0c0.6,0.3-0.3,1-0.6,1.6
						c-0.2,0.4-0.4,1,0,1.4c0.5,0.6,1.5,0.2,1.9-0.4c0.1-0.1,0.2-0.3,0.3-0.4c0,0.5,0.2,1,0.8,1c0.3,0,0.5-0.1,0.7-0.3
						c-0.3,0.4-0.5,0.9-0.8,1.4c-0.2,0.4-0.4,0.8-0.4,1.3s0.6,0.8,1,0.5c0.4-0.2,0.7-0.7,0.8-1.2c0.2-0.8,0.2-1.6,0.2-2.4
						c0.4-0.6,0.7-1.1,1-1.8c0,0.8-0.1,1.7-0.1,2.5c-0.1,0.9-0.2,1.8-0.3,2.7c0,0.2,0.2,0.2,0.3,0.1c0.2-0.1,0.4-0.2,0.4-0.4
						c0.1-0.7,0.2-1.4,0.3-2c0.3,0,0.6,0,0.8-0.2c0.6-0.4,0.8-1.1,0.8-1.8c0-0.1,0-0.2,0-0.3c0.3,0.1,0.5,0,0.8-0.1
						c-0.1,0.9-0.3,1.7-0.4,2.6c-0.1,0.4,0.7,0.1,0.8-0.2c0.1-0.8,0.4-1.5,0.7-2.2c0-0.1,0.1-0.1,0.1-0.2l0,0c0.1,0.5,0,1-0.1,1.4
						c0,0.2-0.1,0.4-0.1,0.6c-0.1,0.3-0.1,0.5-0.2,0.8c-0.1,0.4,0.7,0.1,0.8-0.2c0.1-0.2,0.1-0.5,0.2-0.7c0.2-0.6,0.4-1.1,0.7-1.6
						c0.1,0.3,0,0.6,0,0.9c0,0.4-0.1,0.7-0.2,1.1c-0.1,0.3-0.1,0.6,0,0.9c0.2,0.7,1.1,0.1,1.4-0.1
						C-236.6,457.1-236.5,456.9-236.7,456.8z M-250.2,455.4c0,0.1,0,0.2-0.1,0.2c-0.2,0-0.3-0.2-0.4-0.4c-0.1-0.3-0.2-0.6-0.2-0.9
						s0-0.6,0-1c0-0.1,0-0.2,0.1-0.2s0.1,0.1,0.2,0.1c0.2,0.2,0.4,0.9,0.4,1.1C-250.1,454.8-250.1,455.1-250.2,455.4z M-245.1,457
						c0,0.3,0,0.7-0.1,1c0,0.1,0,0.2-0.1,0.3c0,0-0.1,0-0.2-0.1c-0.2-0.2-0.1-0.5,0-0.7c0.1-0.3,0.3-0.7,0.5-1
						C-245.1,456.7-245.1,456.8-245.1,457z M-242.1,455.7L-242.1,455.7C-242.1,455.7-242.2,455.7-242.1,455.7
						c-0.3,0-0.5-0.3-0.4-0.5c0-0.5,0.1-1,0.1-1.5l0,0c0-0.2,0-0.3,0.1-0.5l0,0l0,0c0.1,0,0.2,0.1,0.3,0.2c0.2,0.3,0.2,0.8,0.2,1.2
						C-241.8,454.9-241.9,455.4-242.1,455.7z"/>
					<path class="st4" d="M-254.3,451.2c0.5-0.2,0.9-0.6,1.2-1c0.1-0.1,0.3-0.4,0.1-0.5s-0.5,0.2-0.5,0.3c-0.1,0.2-0.2,0.4-0.4,0.5
						s-0.5,0-0.6-0.1c-0.2-0.2-0.9,0.5-0.7,0.7C-255,451.3-254.7,451.4-254.3,451.2z"/>
				</g>
			</g>
		</g>
		<path class="st9" d="M-252.5,438.8c0,0.9-0.7,1.6-1.6,1.6c-0.9,0-1.6-0.7-1.6-1.6s0.7-1.6,1.6-1.6
			C-253.3,437.2-252.5,437.9-252.5,438.8L-252.5,438.8z"/>
		<path class="st5" d="M-252.5,444.3c0,1.1-0.9,2.1-2.1,2.1c-1.1,0-2.1-0.9-2.1-2.1c0-1.2,0.9-2.1,2.1-2.1S-252.5,443.1-252.5,444.3
			L-252.5,444.3z"/>
		<path class="st5" d="M-258,441.1c0,0.7-0.6,1.2-1.2,1.2c-0.7,0-1.2-0.6-1.2-1.2c0-0.7,0.6-1.2,1.2-1.2
			C-258.6,439.8-258,440.4-258,441.1L-258,441.1z"/>
		<g>
			<circle class="st5" cx="-235.7" cy="442.8" r="7"/>
			<g>
				<path class="st4" d="M-237.4,441.8c-0.6,0.1-0.7,0.8-0.8,1.2l0,0l0,0c0,0.1,0,0.1,0,0.2c0,0.2,0,0.4,0,0.6c0,0.1,0,0.3-0.1,0.3
					c-0.2,0-0.4-0.3-0.4-0.4c-0.1-0.4-0.2-0.7-0.3-1.1c-0.1-0.4-0.1-0.8-0.1-1.2c0-0.2,0-0.3,0-0.5c0-0.1,0-0.1,0-0.2v-0.1
					c0.1-0.3-0.4,0-0.5,0.1c-0.5,0.8-0.3,1.8-0.3,2.7c0,0.2,0,0.5,0,0.7c0,0.2-0.1,0.5-0.2,0.6c-0.1,0.1-0.2,0-0.3,0
					c-0.1-0.1-0.2-0.2-0.2-0.3s-0.2-0.1-0.2,0c-0.1,0.1-0.2,0.3-0.2,0.4c0.1,0.3,0.3,0.6,0.7,0.5c0.5-0.2,0.7-0.8,0.9-1.3
					c0.1-0.2,0.1-0.5,0.1-0.7c0.1,0.3,0.2,0.7,0.3,1c0.1,0.2,0.3,0.5,0.6,0.4c0.2,0,0.4-0.3,0.5-0.5c0.1,0.2,0.3,0.4,0.5,0.4
					c0.3,0,0.5-0.3,0.6-0.6c0.1-0.3,0.2-0.6,0.2-0.9C-236.7,442.6-236.8,441.7-237.4,441.8z M-237.3,443.8c0,0.1,0,0.1,0,0.2
					c-0.1,0-0.2-0.2-0.2-0.3c-0.1-0.2-0.1-0.4-0.2-0.6c0-0.2,0-0.4,0-0.7c0-0.1,0-0.1,0-0.2c0.3,0.2,0.4,0.6,0.4,0.9
					C-237.2,443.4-237.2,443.6-237.3,443.8z"/>
				<path class="st4" d="M-230.5,442.6c-0.6-0.2-1,0.6-1.1,1.1c-0.1,0.4-0.2,1.2,0.3,1.4c0.3,0.1,0.6-0.1,0.7-0.3
					c0.2-0.2,0.3-0.5,0.4-0.8C-230,443.6-229.9,442.8-230.5,442.6z M-230.9,444.6l-0.1,0.1c-0.1-0.1-0.1-0.3-0.1-0.3
					c0-0.2,0-0.4,0-0.6c0-0.2,0.1-0.4,0.2-0.6l0.1-0.1c0.2,0.3,0.2,0.7,0.1,1C-230.7,444.2-230.8,444.4-230.9,444.6z"/>
				<path class="st4" d="M-232.2,442.7c0.1-0.2,0.2-0.3,0.3-0.5c0.2-0.3,0.5-0.8,0.4-1.2c0-0.4-0.6-0.4-0.8-0.3
					c-0.4,0.2-0.6,0.6-0.7,1c-0.2,0.5-0.2,1.1-0.3,1.6l0,0c-0.2,0.2-0.6,0.7-0.9,0.5c-0.1,0-0.1-0.2-0.2-0.3
					c0.3-0.3,0.5-0.5,0.7-0.9c0.2-0.3,0.3-0.8,0-1c-0.3-0.2-0.7,0-0.9,0.3c-0.2,0.2-0.3,0.6-0.3,0.9c0,0.2,0,0.5,0,0.7
					c-0.2,0.1-0.4,0.2-0.6,0.1c-0.2,0-0.3-0.3-0.4-0.5c-0.1-0.3,0-0.6,0-0.9c0-0.1,0-0.2,0.1-0.3c0,0,0,0,0-0.1
					c0.1,0.1,0.2,0.3,0.2,0.4c0.1,0.2,0.6-0.1,0.5-0.3c-0.1-0.2-0.1-0.4-0.4-0.5c-0.2-0.1-0.5,0.1-0.6,0.2c-0.4,0.4-0.4,0.9-0.4,1.4
					c0,0.3,0.1,0.7,0.4,0.9c0.4,0.2,0.9,0,1.3-0.2c0.1,0.2,0.3,0.4,0.6,0.4c0.4-0.1,0.7-0.3,1-0.5c0,0.3,0.1,0.6,0.3,0.7
					c0.3,0.2,0.7,0,1-0.3c0.3-0.4,0.4-0.9,0.3-1.3C-231.8,442.8-232,442.7-232.2,442.7z M-234.3,442.5c0-0.1,0.1-0.2,0.1-0.2l0,0
					c0.1,0,0.2,0.2,0.2,0.4c0,0.2-0.2,0.5-0.4,0.7v-0.1C-234.4,442.9-234.4,442.7-234.3,442.5z M-232.3,441.3c0-0.1,0.1-0.2,0.2-0.2
					l0,0c0.2,0.3,0,0.6-0.1,0.9c-0.1,0.2-0.3,0.5-0.5,0.7c0-0.2,0.1-0.5,0.1-0.7C-232.5,441.8-232.4,441.5-232.3,441.3z
					 M-232.4,444.2c0,0,0,0.1-0.1,0.1c0,0,0,0-0.1,0c-0.2-0.1-0.2-0.4-0.2-0.5s0-0.2,0-0.4c0.1-0.1,0.1-0.1,0.2-0.2
					c0.1-0.1,0.2,0.1,0.3,0.2C-232.2,443.6-232.3,444-232.4,444.2z"/>
			</g>
		</g>
		<g>
			<g>
				<path class="st4" d="M-241.9,461.9c-0.2-0.3-0.6,0.1-0.7,0.4c-0.1,0.3,0,0.7,0.2,1c0.2,0.2,0.6,0.2,0.7-0.2
					C-241.4,462.6-241.8,462.2-241.9,461.9c-0.1,0.1-0.1,0.2-0.2,0.3c0.1,0.2,0.6,1.4,1,0.7c0.1-0.2,0-0.4-0.2-0.1
					c0,0.1-0.3-0.3-0.3-0.3C-241.7,462.3-241.8,462.1-241.9,461.9c-0.1-0.1-0.3,0.2-0.2,0.3c0.1,0.2,0.2,0.4,0.3,0.6
					c0,0.1,0.1,0.2,0,0.2s-0.1,0-0.2,0c-0.1-0.1-0.2-0.3-0.3-0.4c0-0.1,0-0.2-0.1-0.3v-0.1c0-0.1,0.2,0,0.2,0
					C-242.1,462.3-241.9,462-241.9,461.9L-241.9,461.9z"/>
				<path class="st4" d="M-250.6,461.9c-0.5-0.1-0.9,0.2-1.1,0.5c-0.1,0.3-0.1,0.9,0.4,0.8C-250.6,463.1-250.4,462.4-250.6,461.9
					c0-0.2,0-0.3,0-0.5c0-0.1,0-0.1,0-0.2v-0.1c-0.2,0-0.2,0,0,0.1c0.2,0.2,0.4,0.4,0.7,0.4c0.1,0,0.4-0.2,0.2-0.2
					c-0.4,0-0.5-0.5-0.9-0.5c-0.3,0-0.4,0.3-0.4,0.5c0.1,0.3,0.1,0.5,0.1,0.8c0,0.1-0.3,0.8-0.4,0.7c-0.3-0.2,0.2-1,0.5-0.9
					C-250.7,462.2-250.4,462-250.6,461.9L-250.6,461.9z"/>
				<path class="st4" d="M-244.1,462.6c0.3,0.4,0.3,0.9,0.4,1.4c0,0.2,0.3-0.1,0.3-0.2c0-0.2-0.1-0.4-0.1-0.7c0-0.1-0.1-0.5,0.2-0.4
					c0.1-0.1,0.1-0.2,0.2-0.3c-0.7-0.1-0.7,0.8-0.6,1.1c0,0.1,0.1,0,0.2,0c0.4-0.3,0.3,0.7,0.8,0.3c0.3-0.2,0.5-0.7,0.5-1
					c0-0.2-0.2,0-0.3,0.1c0,0.2-0.1,0.4-0.2,0.5c-0.1,0.1-0.3-0.3-0.3-0.3c-0.2-0.2-0.4-0.1-0.6,0.1c0.1,0,0.1,0,0.2,0
					c0-0.1-0.1-0.6,0.2-0.5c0.1,0,0.3-0.3,0.2-0.3c-0.9-0.1-0.6,1.4-0.6,1.7c0.1-0.1,0.2-0.2,0.3-0.2c-0.1-0.5-0.2-1-0.5-1.4
					C-243.9,462.3-244.2,462.5-244.1,462.6L-244.1,462.6z"/>
				<path class="st4" d="M-246.7,463.1c0,0.4,0.1,0.9,0,1.3c0,0.2,0.4-0.1,0.4-0.2c0-0.3,0.1-0.4,0.3-0.6c0.2-0.2,0.3-0.5,0.3-0.7
					c0-0.2-0.3,0-0.3,0.1c-0.1,0.4-0.1,0.9,0,1.2c0.1,0.4,0.8-0.1,0.9-0.3c0.2-0.2,0-0.3-0.2-0.1c0,0-0.3,0.3-0.3,0.2
					c-0.1-0.1-0.1-0.2-0.1-0.4c0-0.3-0.1-0.6,0-0.9c-0.1,0-0.2,0.1-0.3,0.1c-0.1,0.3-0.1,0.5-0.4,0.7c-0.2,0.2-0.3,0.5-0.3,0.7
					c0.1-0.1,0.2-0.1,0.4-0.2c0-0.4,0-0.9-0.1-1.3C-246.4,462.8-246.7,463-246.7,463.1L-246.7,463.1z"/>
				<path class="st4" d="M-243.8,463.6c0,0.1-0.1,0.1-0.1,0.2c-0.1,0.1,0,0,0,0c-0.1,0-0.2-0.1-0.3-0.2c-0.2-0.3-0.2-0.6-0.3-0.9
					c0-0.2-0.3,0.1-0.3,0.2c0,0.2,0.1,0.4,0.1,0.6c0,0.1,0,0.2,0,0.3s0,0.2-0.1,0.1c-0.4-0.1-0.3-0.8-0.3-1.1c0-0.2-0.3,0-0.3,0.1
					c0,0.3-0.2,1.4,0.5,1.3c0.8-0.2,0.4-1.2,0.3-1.6c-0.1,0.1-0.2,0.1-0.3,0.2c0.1,0.4,0.1,1,0.5,1.2
					C-244.1,464.2-243.8,463.6-243.8,463.6C-243.4,463.4-243.7,463.5-243.8,463.6L-243.8,463.6z"/>
				<path class="st4" d="M-249,462.9c-0.1,0.3-0.7,1.3,0,1.4c0.8,0.1,0.9-0.9,1-1.3c0-0.1-0.3,0-0.3,0.1c-0.1,0.3-0.2,0.5-0.3,0.8
					c0,0.1-0.1,0.3-0.2,0.2c-0.2-0.1,0-0.5,0-0.6c0.1-0.2,0.1-0.4,0.2-0.6C-248.6,462.6-249,462.8-249,462.9L-249,462.9z"/>
				<path class="st4" d="M-248.3,463c-0.1,0.3-0.3,2.2-0.6,2.2c-0.8-0.2,1.1-1.1,1.3-1.3c0.2-0.1,0.1-0.3-0.1-0.1
					c-0.4,0.2-0.9,0.4-1.2,0.7c-0.2,0.2-0.8,0.7-0.2,0.9c0.4,0.1,0.8-0.2,0.9-0.4c0.3-0.6,0.2-1.4,0.3-2.1
					C-248,462.8-248.3,462.9-248.3,463L-248.3,463z"/>
				<path class="st4" d="M-246.8,463.2c-0.1-0.3-0.3-0.4-0.6-0.2c-0.3,0.2-0.4,0.7-0.3,1c0,0.3,0.2,0.5,0.6,0.5
					c0.4-0.1,0.7-0.3,0.9-0.5c0.2-0.2-0.1-0.2-0.2,0c-0.2,0.2-0.7,0.6-0.9,0.1c-0.1-0.1,0-0.3,0-0.5c0-0.1,0.1-0.3,0.1-0.4
					c0,0.1,0.1,0.2,0.1,0.3C-247.1,463.5-246.8,463.3-246.8,463.2L-246.8,463.2z"/>
				<path class="st4" d="M-250.9,462.1c0.1,0.4,0.6,0.5,1,0.4c0.2,0,0.3-0.2,0-0.2s-0.5,0-0.6-0.3
					C-250.6,461.9-250.9,462-250.9,462.1L-250.9,462.1z"/>
				<path class="st4" d="M-250.5,463.4c-0.1,0.3,0.3,0.5,0.6,0.4s0.5-0.4,0.5-0.6c0.1-0.2,0.1-0.5-0.1-0.7c-0.1-0.1-0.3-0.1-0.4,0
					c-0.2,0-0.4,0.2-0.4,0.4c-0.1,0.1,0.3,0.1,0.4,0c0.1-0.2,0.2-0.2,0.2,0c0,0.1,0,0.2,0,0.4c0,0.1-0.1,0.3-0.2,0.4l-0.1,0.1l0,0
					c-0.1-0.1-0.1-0.1-0.1-0.2C-250,463.2-250.4,463.3-250.5,463.4L-250.5,463.4z"/>
				<path class="st4" d="M-250.1,462.2c-0.2,0.8-0.5,1.5-0.9,2.2c-0.1,0.1,0.4,0.1,0.4,0c0.4-0.7,0.7-1.5,0.8-2.3
					C-249.7,462.1-250.1,462.1-250.1,462.2L-250.1,462.2z"/>
			</g>
		</g>
		<g>
			<path class="st8" d="M-261.9,449c-0.1,0-0.1-0.1-0.2-0.1c-0.3-0.1-0.5,0.1-0.7,0.1c-0.6,0-0.8,0-1.5-0.2c0-0.6,0.4-1,0.5-1.5
				c0.1-0.4-0.1-0.9-0.1-1.4c0-0.3,0-0.6,0-0.9c-0.2,0.2-0.1,0.8-0.1,1c-0.1-0.4-0.1-0.9-0.2-1.2c-0.1,0.4,0,0.9,0,1.2
				c-0.1-0.3-0.1-0.7-0.3-1c-0.2,0.3,0.1,0.8,0.1,1.2c-0.1-0.3-0.2-0.7-0.3-0.9c-0.1,0.4,0.1,0.7,0.1,1c-0.1-0.2-0.2-0.5-0.4-0.7
				c0,0.3,0.2,0.6,0.3,0.8c-0.2-0.1-0.2-0.3-0.4-0.4c0,0.2,0.2,0.3,0.2,0.5c-0.1-0.1-0.2-0.2-0.3-0.3c0,0.2,0.2,0.2,0.2,0.4
				c-0.1-0.1-0.2-0.1-0.3-0.2c0,0.1,0.2,0.2,0.2,0.3c0,0-0.1-0.1-0.1,0l0.1,0.1c-0.1,0-0.1,0-0.1,0c0,0.1,0.1,0.1,0.1,0.2
				c0,0,0,0-0.1,0c0,0.1,0.1,0.1,0.1,0.1c-0.5,0.5-0.2,1.1-0.3,1.7c0-0.1-0.4-0.2-0.8-0.3c-0.2-0.1-0.2-0.3-0.4-0.4
				c0,0,0.1,0,0.1-0.1c-0.1,0-0.1,0-0.1-0.1c0.1,0,0.2,0,0.2,0c-0.1-0.1-0.3-0.1-0.3-0.2c0.1,0,0.2,0.1,0.3,0.1
				c-0.1-0.1-0.4-0.2-0.4-0.3c0.1,0.1,0.3,0.2,0.5,0.1c-0.2-0.1-0.5-0.3-0.6-0.5c0.2,0.1,0.4,0.3,0.5,0.3c-0.3-0.1-0.5-0.4-0.7-0.4
				c0.1,0.2,0.5,0.4,0.6,0.5c-0.2-0.1-0.4-0.2-0.6-0.3c0.1,0.3,0.4,0.3,0.6,0.5c-0.2,0-0.3-0.1-0.5-0.1c0.1,0.2,0.4,0.2,0.5,0.3
				c-0.1-0.1-0.2,0-0.3,0c0,0.1,0.2,0.1,0.3,0.2c-0.1,0-0.2,0-0.3,0.1c0.1,0.1,0.2,0,0.3,0.1c-0.1,0-0.1,0-0.1,0.1s0.2,0,0.2,0.1
				c0,0-0.1,0-0.1,0.1h0.1c0,0,0,0-0.1,0.1c0.3,0.1,0.4,0.6,0.8,0.7c-0.2,0.2,0.2,0.3-2.2,1.1c0.1,0,1.1-0.2,1.4-0.3
				s0.6-0.2,0.9-0.3c0.1,0,0.1-0.1,0.2-0.1c0.5,0,1,0,1.5-0.3c-0.4,0.1-1,0.1-1.3-0.1c0.3-0.5,0.1-1.8,0.4-2.1
				c0.3-0.3,0.7-1.1,1.2-0.4c0.1,0.1,0.1,0.3-0.1,0.6c-0.2,0.4-0.4,0.5-0.3,1.3c0,0.2,0,0.3-0.2,0.3c1.1,0.2,1.4,0.1,2,0
				c0.2,0,0.5-0.2,0.5,0c0,0.1-0.2,0.1-0.4,0.1c-0.3,0,0.1,0.1,0.3,0.1c0.1,0,0.6-0.1,0.9-0.1C-261.6,449.1-261.7,449.1-261.9,449z"
				/>
			<path class="st8" d="M-265,443.6c-2.4,0-4.4,2-4.4,4.4c0,2.4,2,4.4,4.4,4.4s4.4-2,4.4-4.4C-260.6,445.5-262.6,443.6-265,443.6
				 M-265,443.7c2.3,0,4.2,1.9,4.2,4.2c0,2.3-1.9,4.2-4.2,4.2s-4.2-1.9-4.2-4.2C-269.3,445.6-267.4,443.7-265,443.7"/>
		</g>
	</g>
</g>
<g id="_x33_">
	<g>
		<path class="st0" d="M-136.8,501.1c0,0,0-40.9,0-63.2c0-22.3-9.2-30.8-9.2-30.8c2.5-13.8-4.1-17.9-4.1-17.9v-5h1.4
			c0,0,0-5.3,0-7.1c0-1.8-2.5-1.6-2.5-1.6h-9.1h-0.8h-9.1c0,0-2.5-0.2-2.5,1.6c0,1.8,0,7.1,0,7.1h1.5v5h-0.1c0,0-6.6,4.2-4.1,17.9
			c0,0-9.2,8.5-9.2,30.7c0,22.2,0,63.2,0,63.2s-0.9,13.6,9.1,13.6c2.7,0,5,0,6.9,0c5.1,0,7.5,0,7.5,0h0.5h0.5l0,0h7.4l0,0
			c1.9,0,4.1,0,6.8,0l0,0C-135.8,514.7-136.8,501.1-136.8,501.1z"/>
		<path class="st1" d="M-141.6,497.9c0,0,0-40.9,0-63.2s-9.2-30.7-9.2-30.7c2.5-13.8-4.1-17.9-4.1-17.9V381H-176v5.1l0,0
			c0,0-6.6,4.2-4.2,17.9c0,0-9.2,8.5-9.2,30.7c0,22.3,0,63.2,0,63.2s-0.9,13.6,9.1,13.6c2.7,0,5,0,6.9,0c5.1,0,7.5,0,7.5,0h1h7.5
			c1.9,0,4.2,0,6.9,0C-140.7,511.5-141.6,497.9-141.6,497.9z"/>
		<path class="st2" d="M-156.1,372.4h-9.1h-0.8h-9c0,0-2.5-0.2-2.5,1.6c0,1.8,0,7.1,0,7.1h11.5h0.8h11.5c0,0,0-5.3,0-7.1
			C-153.6,372.2-156.1,372.4-156.1,372.4z"/>
		<path class="st3" d="M-141.7,497.9c0,0,0-40.9,0-63.2s-9.2-30.7-9.2-30.7c2.5-13.8-4.1-17.9-4.1-17.9V381h-10.5v130.5h0.5h7.5
			c1.9,0,4.2,0,6.9,0C-140.7,511.5-141.7,497.9-141.7,497.9z"/>
		<path class="st4" d="M-181.6,427.3c-0.1,0-0.2,0-0.3,0c-1.4-0.2-2.5-1.5-2.3-3c1.2-9.1,5.6-14.7,5.8-14.9c0.9-1.1,2.6-1.3,3.7-0.4
			c1.1,0.9,1.3,2.6,0.4,3.7c-0.1,0.1-3.7,4.7-4.7,12.3C-179.2,426.4-180.3,427.3-181.6,427.3z"/>
	</g>
	<g>
		<circle class="st11" cx="-165.1" cy="454.2" r="12.4"/>
		<circle class="st5" cx="-175" cy="465.1" r="3.9"/>
		<g>
			<path class="st4" d="M-177.6,464.5c0.1-0.4,0.4-0.1,0.5,0.1c0.1,0.3,0,0.6-0.2,0.8c-0.1,0.2-0.3,0.3-0.5,0.5
				c-0.1,0.1-0.2,0.1-0.2,0.2c0,0-0.1,0.1,0,0.1c0.1,0.1,0.4,0.1,0.6,0.1c0.3,0,0.6,0,0.9-0.1c0.2-0.1,0.3-0.4,0-0.3
				c-0.2,0.1-0.5,0.1-0.7,0.1c-0.1,0-0.4,0-0.5-0.1c0,0.1,0,0.1,0,0.2c-0.1,0.2,0,0.1,0,0c0.1-0.1,0.2-0.1,0.2-0.2
				c0.1-0.1,0.3-0.3,0.4-0.4c0.2-0.3,0.4-0.6,0.3-1c-0.2-0.8-1.1-0.2-1.2,0.2C-178,464.9-177.6,464.7-177.6,464.5L-177.6,464.5z"/>
			<path class="st4" d="M-175.4,465.9c0.3,0.9,1.7,0.3,1.5-0.5c-0.1-0.4-0.6-0.4-0.9-0.5c-0.2-0.1-0.2-0.2-0.2-0.4
				c0.1-0.2,0.1-0.2-0.1-0.1c0.1,0,0.1,0,0.2,0c0.3-0.1,0.6,0,0.9,0.1c0.1,0.1,0.4-0.3,0.3-0.3c-0.3-0.2-0.8-0.1-1.1-0.1
				c-0.3,0.1-0.4,0.4-0.4,0.7c0,0.4,0.4,0.5,0.7,0.5c0.2,0,0.4,0.1,0.5,0.4c0,0.4-0.4,0.4-0.6,0.2c-0.1-0.1-0.2-0.2-0.2-0.3
				C-175.1,465.5-175.5,465.8-175.4,465.9L-175.4,465.9z"/>
			<g>
				<path class="st4" d="M-172.1,464.2c-0.4,0.7-0.9,1.3-1.4,1.9c-0.2,0.3,0.1,0.3,0.3,0.1c0.5-0.6,1-1.3,1.4-2
					C-171.7,463.9-172.1,464.1-172.1,464.2L-172.1,464.2z"/>
				<path class="st4" d="M-172.9,464c-0.2,0-0.4,0.2-0.5,0.5c0,0.2,0.1,0.4,0.3,0.4C-172.6,464.9-172.3,464.1-172.9,464
					c-0.1,0-0.3,0.3-0.1,0.3c0.1,0,0.2,0.1,0.2,0.2v0.1l0,0c0,0,0,0-0.1,0s-0.2-0.1-0.2-0.2v-0.1l0,0c0,0,0,0,0.1,0
					S-172.7,464-172.9,464z"/>
				<path class="st4" d="M-172.2,465.4c-0.2,0-0.4,0.2-0.5,0.5c0,0.2,0.1,0.4,0.3,0.4C-171.9,466.3-171.7,465.5-172.2,465.4
					c-0.1,0-0.3,0.3-0.1,0.3c0.1,0,0.2,0.1,0.2,0.2v0.1l0,0c0,0,0,0-0.1,0s-0.2-0.1-0.2-0.2v-0.1l0,0c0,0,0,0,0.1,0
					S-172,465.4-172.2,465.4z"/>
			</g>
			<path class="st4" d="M-176,466.8c0.2-0.2,0.3-0.4,0.3-0.6c0-0.1,0-0.2,0-0.2c-0.1-0.1-0.2,0-0.3,0s-0.2,0.2-0.2,0.3
				s0.1,0.1,0.2,0.1l0,0l0,0v0.1c0,0.1,0,0.1-0.1,0.1l0,0l0,0l0,0l0,0c-0.1,0-0.2,0.2-0.1,0.3C-176.2,466.9-176,466.8-176,466.8
				L-176,466.8z"/>
		</g>
		<g>
			<g>
				<g>
					<path class="st4" d="M-155.5,456.6c-0.2-0.1-0.4,0-0.5,0.2c-0.1-0.3,0.1-0.9,0.1-1.2c0.2-0.9,0.2-1.7,0-1.9
						c-0.2-0.2-0.6-0.1-0.8-0.1c-0.1,0.1-0.2,0.1-0.3,0.2c0-0.2-0.1-0.4-0.2-0.6c-0.2-0.2-0.5-0.2-0.6-0.1s-0.3,0.1-0.4,0.2
						c0-0.1,0-0.2,0-0.3s0-0.1,0-0.1s-0.1,0-0.1-0.1h-0.1c-0.1,0-0.3,0.1-0.4,0.1c-0.1,0.1-0.1,0.1-0.2,0.2c-0.2,0.2-0.4,0.1-0.6,0
						s-0.3-0.2-0.4-0.4c-0.1-0.1-0.1-0.2-0.2-0.2c-0.3-0.2-0.6-0.1-0.9,0c0-0.2,0-0.5,0-0.7c0-0.2-0.4-0.1-0.5,0s-0.3,0.2-0.3,0.3
						c0,0-0.3,1.1-0.9,2c0-0.6,0.1-1.2,0.1-1.8c0-0.1,0-0.1-0.1-0.2c-0.1,0-0.2,0-0.2,0c-0.2,0.1-0.4,0.2-0.4,0.4
						c-0.1,0.8-0.2,2.6-0.7,2.6s-0.3-2.1-0.2-3c0-0.1-0.1-0.2-0.2-0.1c-0.1,0-0.2,0-0.2,0c-0.2,0.1-0.4,0.3-0.4,0.5
						c-0.1,0.6-0.2,1.2-0.4,1.7c-0.1,0.3-0.3,0.9-0.7,0.9s-0.4-0.4-0.3-0.7c0.1-0.3,0.3-0.6,0.5-0.8c0.2-0.3,0.3-0.6,0.3-0.8
						c0-0.4-0.2-0.7-0.6-0.8c-0.4,0-0.8,0.2-1.1,0.5c-0.1,0.1-0.2,0.2-0.3,0.2c-0.3,0-0.5-0.2-0.6-0.2c-0.1-0.1-0.3-0.2-0.6-0.1
						c-0.9,0.3-1.1,1.3-1,2.1c0,0.5,0,0.9-0.1,1.1c-0.3,0-0.5-0.3-0.6-0.6c-0.2-0.5-0.3-1-0.4-1.6c-0.1-0.7-0.1-1.5-0.1-2.3
						c0-0.2-0.3-0.1-0.4,0c-0.2,0.2-0.4,0.4-0.4,0.6c0,0.9,0.1,1.9,0.1,2.8c0,0.5,0,1-0.1,1.4c-0.1,0.2-0.2,0.2-0.3,0.2
						c-0.3-0.1-0.4-0.4-0.5-0.7c-0.1-0.4-0.2-0.9-0.2-1.4s0-0.9-0.1-1.4c0-0.3,0-0.6-0.2-0.9c-0.3-0.4-1,0.3-1.2,0.6
						c-0.4,0.5-0.5,1-0.6,1.6c0,0.2,0.1,0.3,0.3,0.1c0.2-0.2,0.4-0.4,0.4-0.7c0-0.2,0.1-0.7,0.3-0.8l0,0l0,0c0,0,0,0,0,0.1
						s0.1,0.2,0.1,0.4c0.1,0.9,0.1,1.8,0.3,2.7c0.1,0.6,0.4,1.5,1.3,1.3c0.5-0.1,0.8-0.7,1-1.1c0,0,0,0,0-0.1
						c0.2,0.4,0.5,0.7,1.1,0.6c0.4-0.1,0.5-0.4,0.6-0.8c0.2,0.3,0.4,0.5,0.7,0.5c0.4,0,0.7-0.5,0.9-0.8c0.2-0.4,0.2-0.8,0.2-1.3
						c0-0.2,0-0.5-0.1-0.7c0.1,0,0.2,0,0.3-0.1c0.2-0.1,0.4-0.4,0.6-0.5c0.1,0,0.2,0,0.3,0c0.6,0.3-0.3,1-0.6,1.5
						c-0.2,0.4-0.4,1,0,1.3c0.5,0.6,1.5,0.1,1.9-0.4c0.1-0.1,0.2-0.3,0.3-0.4c0,0.4,0.1,1,0.7,1c0.3,0,0.5-0.1,0.7-0.3
						c-0.3,0.4-0.5,0.9-0.8,1.3c-0.2,0.4-0.4,0.8-0.4,1.2c0,0.5,0.6,0.8,1,0.5c0.4-0.2,0.7-0.7,0.8-1.2c0.2-0.8,0.2-1.6,0.2-2.4
						c0.4-0.6,0.7-1,1-1.8c0,0.8-0.1,1.6-0.1,2.4c-0.1,0.9-0.2,1.8-0.3,2.6c0,0.2,0.2,0.2,0.3,0.1c0.2-0.1,0.4-0.2,0.4-0.4
						c0.1-0.7,0.2-1.3,0.3-2c0.3,0,0.5,0,0.8-0.2c0.6-0.4,0.8-1.1,0.8-1.7c0-0.1,0-0.2,0-0.3c0.3,0.1,0.5,0,0.7-0.1
						c-0.1,0.8-0.3,1.7-0.4,2.5c-0.1,0.4,0.7,0.1,0.7-0.2c0.1-0.7,0.3-1.5,0.7-2.2c0-0.1,0.1-0.1,0.1-0.2l0,0c0.1,0.5,0,1-0.1,1.4
						c0,0.2-0.1,0.4-0.1,0.6c-0.1,0.3-0.1,0.5-0.2,0.8c-0.1,0.4,0.7,0.1,0.7-0.2c0.1-0.2,0.1-0.5,0.2-0.7c0.2-0.6,0.4-1.1,0.7-1.6
						c0.1,0.3,0,0.6,0,0.8c0,0.4-0.1,0.7-0.2,1.1c-0.1,0.3-0.1,0.6,0,0.9c0.2,0.6,1.1,0.1,1.3-0.1
						C-155.3,456.8-155.3,456.6-155.5,456.6z M-168.6,455.2c0,0.1,0,0.2-0.1,0.2c-0.2,0-0.3-0.2-0.3-0.3c-0.1-0.3-0.2-0.6-0.2-0.9
						s0-0.6,0-0.9c0-0.1,0-0.2,0.1-0.2s0.1,0.1,0.2,0.1c0.2,0.2,0.3,0.9,0.4,1.1C-168.5,454.6-168.5,454.9-168.6,455.2z
						 M-163.6,456.7c0,0.3,0,0.7-0.1,1c0,0.1,0,0.2-0.1,0.2c0,0-0.1,0-0.2-0.1c-0.2-0.2-0.1-0.5,0-0.7c0.1-0.3,0.3-0.6,0.5-1
						C-163.6,456.4-163.6,456.6-163.6,456.7z M-160.7,455.5L-160.7,455.5C-160.8,455.5-160.8,455.5-160.7,455.5
						c-0.3,0-0.4-0.3-0.4-0.5c0-0.5,0.1-1,0.1-1.5l0,0c0-0.2,0-0.3,0.1-0.4l0,0l0,0c0.1,0,0.2,0.1,0.2,0.2c0.2,0.3,0.2,0.8,0.2,1.1
						C-160.5,454.7-160.5,455.1-160.7,455.5z"/>
					<path class="st4" d="M-172.6,451.1c0.5-0.2,0.9-0.6,1.2-1c0.1-0.1,0.3-0.4,0.1-0.5s-0.4,0.2-0.5,0.3c-0.1,0.2-0.2,0.4-0.4,0.5
						s-0.5,0-0.6-0.1c-0.2-0.2-0.9,0.5-0.7,0.7C-173.3,451.2-173,451.2-172.6,451.1z"/>
				</g>
			</g>
		</g>
		<path class="st11" d="M-170.9,439c0,0.9-0.7,1.6-1.6,1.6c-0.9,0-1.6-0.7-1.6-1.6s0.7-1.6,1.6-1.6
			C-171.6,437.4-170.9,438.1-170.9,439L-170.9,439z"/>
		<path class="st5" d="M-170.8,444.3c0,1.1-0.9,2-2,2s-2-0.9-2-2c0-1.1,0.9-2,2-2S-170.8,443.2-170.8,444.3L-170.8,444.3z"/>
		<path class="st5" d="M-176.3,441.2c0,0.7-0.5,1.2-1.2,1.2s-1.2-0.5-1.2-1.2c0-0.7,0.5-1.2,1.2-1.2S-176.3,440.5-176.3,441.2
			L-176.3,441.2z"/>
		<g>
			<circle class="st5" cx="-154.5" cy="442.9" r="6.8"/>
			<g>
				<path class="st4" d="M-156.2,441.9c-0.6,0.1-0.7,0.7-0.7,1.2l0,0l0,0c0,0.1,0,0.1,0,0.2c0,0.2,0,0.4,0,0.6c0,0.1,0,0.3-0.1,0.3
					c-0.2,0-0.4-0.3-0.4-0.4c-0.1-0.3-0.2-0.7-0.3-1.1c-0.1-0.4-0.1-0.8-0.1-1.2c0-0.2,0-0.3,0-0.5c0-0.1,0-0.1,0-0.2v-0.1
					c0.1-0.3-0.4,0-0.4,0.1c-0.5,0.8-0.3,1.7-0.3,2.6c0,0.2,0,0.5,0,0.7c0,0.2-0.1,0.4-0.2,0.6c-0.1,0.1-0.2,0-0.3,0
					c-0.1-0.1-0.2-0.2-0.2-0.3s-0.2-0.1-0.2,0c-0.1,0.1-0.2,0.3-0.2,0.4c0.1,0.3,0.3,0.6,0.6,0.5c0.5-0.1,0.7-0.8,0.8-1.2
					c0.1-0.2,0.1-0.5,0.1-0.7c0.1,0.3,0.2,0.7,0.3,1c0.1,0.2,0.3,0.5,0.6,0.4c0.2,0,0.4-0.3,0.5-0.5c0.1,0.2,0.3,0.4,0.5,0.4
					c0.3,0,0.5-0.3,0.6-0.5c0.1-0.3,0.2-0.6,0.2-0.9C-155.5,442.7-155.6,441.8-156.2,441.9z M-156,443.9c0,0.1,0,0.1,0,0.2
					c-0.1,0-0.2-0.2-0.2-0.2c-0.1-0.2-0.1-0.4-0.1-0.6c0-0.2,0-0.4,0-0.6c0-0.1,0-0.1,0-0.2c0.3,0.2,0.3,0.5,0.4,0.8
					C-156,443.4-156,443.7-156,443.9z"/>
				<path class="st4" d="M-149.4,442.7c-0.6-0.2-1,0.6-1.1,1.1c-0.1,0.4-0.2,1.2,0.3,1.4c0.3,0.1,0.6-0.1,0.7-0.3
					c0.2-0.2,0.3-0.5,0.4-0.8C-149,443.7-148.8,442.9-149.4,442.7z M-149.8,444.7l-0.1,0.1c-0.1-0.1-0.1-0.2-0.1-0.3
					c0-0.2,0-0.4,0-0.6c0-0.2,0.1-0.4,0.2-0.6l0.1-0.1c0.2,0.3,0.2,0.6,0.1,1C-149.6,444.3-149.7,444.5-149.8,444.7z"/>
				<path class="st4" d="M-151.1,442.8c0.1-0.2,0.2-0.3,0.3-0.5c0.2-0.3,0.4-0.7,0.4-1.2c0-0.4-0.6-0.4-0.8-0.3
					c-0.4,0.2-0.6,0.6-0.7,1c-0.1,0.5-0.2,1.1-0.3,1.6l0,0c-0.2,0.2-0.6,0.7-0.9,0.5c-0.1,0-0.1-0.2-0.1-0.2
					c0.3-0.3,0.5-0.5,0.7-0.8c0.2-0.3,0.3-0.7,0-0.9c-0.3-0.2-0.7,0-0.9,0.3c-0.2,0.2-0.3,0.6-0.3,0.9c0,0.2,0,0.4,0,0.7
					c-0.2,0.1-0.4,0.2-0.6,0.1c-0.2,0-0.3-0.3-0.4-0.5c-0.1-0.3,0-0.6,0-0.9c0-0.1,0-0.2,0.1-0.3c0,0,0,0,0-0.1
					c0.1,0.1,0.2,0.3,0.2,0.4c0.1,0.2,0.6-0.1,0.5-0.3s-0.1-0.4-0.4-0.5c-0.2-0.1-0.5,0.1-0.6,0.2c-0.4,0.4-0.4,0.9-0.4,1.4
					c0,0.3,0.1,0.7,0.4,0.9c0.4,0.2,0.9,0,1.2-0.2c0.1,0.2,0.3,0.4,0.6,0.4c0.4-0.1,0.7-0.2,1-0.5c0,0.3,0.1,0.6,0.3,0.7
					c0.3,0.2,0.7,0,0.9-0.3c0.3-0.4,0.4-0.8,0.3-1.3C-150.7,442.9-150.9,442.8-151.1,442.8z M-153.1,442.6c0-0.1,0.1-0.2,0.1-0.2
					l0,0c0.1,0,0.2,0.2,0.2,0.3c0,0.2-0.2,0.5-0.4,0.7v-0.1C-153.2,443-153.2,442.8-153.1,442.6z M-151.1,441.5
					c0-0.1,0.1-0.2,0.2-0.2l0,0c0.2,0.3,0,0.6-0.1,0.9c-0.1,0.2-0.3,0.5-0.4,0.7c0-0.2,0.1-0.5,0.1-0.7
					C-151.3,441.9-151.3,441.7-151.1,441.5z M-151.3,444.2c0,0,0,0.1-0.1,0.1c0,0,0,0-0.1,0c-0.2-0.1-0.2-0.4-0.2-0.5s0-0.2,0-0.4
					c0.1-0.1,0.1-0.1,0.2-0.2c0.1-0.1,0.2,0.1,0.3,0.2C-151.1,443.7-151.2,444-151.3,444.2z"/>
			</g>
		</g>
		<g>
			<g>
				<path class="st4" d="M-167.5,462.4c0,0.4-0.1,0.9-0.2,1.3c0,0.2,0.4,0,0.4-0.1c0.1-0.4,0.2-0.7,0.4-1c0.1-0.1,0.1,0,0,0
					c0.1,0,0.1,0.1,0.1,0.1c0,0.1,0,0.3,0,0.5c0,0.2-0.2,0.5,0,0.7c0.1,0.2,0.4,0.1,0.5,0c0.2-0.1,0.2-0.3,0-0.2
					c-0.3,0.1-0.1-0.6-0.1-0.8c0-0.2,0.1-0.6-0.2-0.6c-0.6,0-0.9,1-1,1.4c0.1,0,0.3-0.1,0.4-0.1c0.1-0.5,0.2-0.9,0.2-1.4
					C-167.2,462.2-167.5,462.3-167.5,462.4L-167.5,462.4z"/>
				<path class="st4" d="M-167.6,463.3c-0.2,0.3-0.4,0-0.4-0.2c0-0.3,0.1-0.6,0.2-0.9c0-0.2-0.3,0-0.3,0.1c-0.1,0.2-0.1,0.4-0.2,0.6
					c0,0.1-0.1,0.2-0.1,0.3c-0.1,0.1-0.1,0.2-0.2,0c-0.3-0.3,0.1-0.9,0.3-1.2c0.1-0.2-0.2-0.1-0.3,0c-0.1,0.2-0.8,1.3-0.2,1.4
					c0.8,0.2,0.9-0.9,1-1.3c-0.1,0-0.2,0-0.3,0.1c-0.1,0.3-0.2,0.6-0.2,0.8c0,0.2-0.1,0.4,0.1,0.6c0.1,0.1,0.3,0.1,0.4,0
					c0.3-0.1,0.4-0.2,0.6-0.4C-167.2,463.1-167.6,463.3-167.6,463.3L-167.6,463.3z"/>
				<g>
					<path class="st4" d="M-169.4,461.8c-0.1,0.3-0.3,0.6-0.5,0.8l-0.1,0.1c-0.1,0.1-0.1,0,0,0.1c0-0.1,0-0.1,0-0.2
						c0-0.4,0.3-0.7,0.4-1.1c-0.1,0-0.2,0-0.4,0l0,0c-0.1,0.1,0.3,0.1,0.4,0l0,0c0.1-0.2-0.3-0.1-0.4,0c-0.1,0.2-0.3,0.5-0.4,0.8
						c0,0.1-0.2,0.5,0,0.6c0.2,0.2,0.5,0,0.6-0.1c0.3-0.3,0.5-0.7,0.7-1C-169,461.6-169.3,461.7-169.4,461.8L-169.4,461.8z"/>
					<path class="st4" d="M-169.3,463c-0.2,0.1-0.1-0.5,0-0.5c0.1-0.2,0.2-0.5,0.3-0.7c0.1-0.2-0.3-0.1-0.3,0
						c-0.2,0.4-0.4,0.7-0.4,1.1c0,0.3,0.3,0.4,0.6,0.3C-169,463.1-169.1,462.9-169.3,463L-169.3,463z"/>
					<path class="st4" d="M-170,461.5c-0.1,0.2-0.2,0.4-0.3,0.6c-0.1,0.1-0.1,0.2-0.2,0.3l-0.1,0.1c0.1,0,0,0,0-0.1
						c-0.1-0.2,0.1-0.4,0.1-0.6c0.1-0.2,0.2-0.3,0.4-0.5c0.1-0.2-0.2-0.2-0.3-0.1c-0.2,0.2-1,1.1-0.4,1.4c0.7,0.3,1.1-0.8,1.3-1.1
						C-169.5,461.4-169.9,461.4-170,461.5L-170,461.5z"/>
				</g>
				<path class="st4" d="M-164.7,463.1c0.3-0.3,0.3,1.2,0,0.4c-0.1-0.4-0.1-0.8-0.1-1.2c0-0.1,0-0.3,0.1-0.4c0.1,0,0.1,0,0.1,0.1
					s0,0.2,0,0.3c-0.1,0.3-0.2,0.7-0.4,1c-0.1,0.2,0.2,0.1,0.3,0c0.1-0.2,0.7-1.8,0.2-1.8c-0.6,0-0.6,1.3-0.6,1.7
					c0,0.2,0,0.8,0.3,0.9c0.3,0,0.5-0.2,0.6-0.3c0.2-0.3,0.1-0.7-0.1-0.9c-0.2-0.2-0.5,0.1-0.6,0.3
					C-165.1,463.2-164.8,463.2-164.7,463.1L-164.7,463.1z"/>
				<path class="st4" d="M-165.7,462.4c-0.4,0-0.5,0.4-0.6,0.7c-0.1,0.2-0.1,0.9,0.3,0.9c0.4,0.1,0.6-0.4,0.7-0.7
					C-165.3,463.1-165.3,462.4-165.7,462.4c-0.1,0-0.3,0.3-0.2,0.3c0.2,0,0.2,0.3,0.3,0.5c0,0.1,0,0.2,0,0.4c0,0.1,0,0.1,0,0.2
					c0,0-0.1,0.1,0,0.1c-0.2,0.1-0.3-0.4-0.3-0.5s0-0.2,0-0.4c0-0.1,0-0.1,0.1-0.2c0-0.1,0.1-0.1,0-0.1
					C-165.7,462.7-165.5,462.4-165.7,462.4z"/>
				<path class="st4" d="M-164.1,462.5c0.1,0.5,0.2,0.9,0.2,1.4c0,0.2,0.3-0.1,0.3-0.2c0-0.3,0-0.4,0.2-0.7c0.2-0.3,0.2-0.5,0.2-0.8
					c0-0.2-0.3,0-0.3,0.2c-0.1,0.4,0,0.9,0.2,1.3s0.7-0.2,0.9-0.4c0.1-0.2-0.1-0.3-0.2-0.1c0,0-0.2,0.4-0.3,0.3
					c-0.1-0.1-0.1-0.2-0.2-0.4c-0.1-0.3-0.1-0.6-0.1-0.9c-0.1,0.1-0.2,0.1-0.3,0.2c0,0.3-0.1,0.5-0.3,0.8c-0.2,0.2-0.2,0.5-0.2,0.8
					c0.1-0.1,0.2-0.1,0.3-0.2C-163.7,463.3-163.9,462.9-164.1,462.5C-163.8,462.2-164.1,462.4-164.1,462.5L-164.1,462.5z"/>
				<path class="st4" d="M-161.2,462.8c0,0.1,0,0.1-0.1,0.2s0,0,0,0c-0.1,0.1-0.2-0.1-0.3-0.2c-0.2-0.3-0.3-0.6-0.4-1
					c0-0.2-0.3,0.1-0.2,0.3c0.1,0.2,0.1,0.4,0.2,0.6c0,0.1,0,0.2,0.1,0.3c0,0.1,0,0.2-0.1,0.1c-0.4-0.1-0.4-0.8-0.4-1.1
					c0-0.2-0.3,0.1-0.3,0.2c0,0.3,0,1.5,0.7,1.3c0.7-0.3,0.2-1.3,0.1-1.7c-0.1,0.1-0.2,0.2-0.2,0.3c0.1,0.4,0.2,1,0.6,1.2
					c0.3,0.2,0.6-0.5,0.6-0.6C-160.9,462.5-161.1,462.6-161.2,462.8L-161.2,462.8z"/>
				<path class="st4" d="M-161.5,461.8c0.3,0.4,0.4,0.8,0.5,1.3c0,0.1,0.3-0.2,0.2-0.3c-0.1-0.2-0.1-0.4-0.1-0.6
					c0-0.1-0.1-0.4,0.1-0.4c0-0.1,0.1-0.2,0.1-0.3c-0.6,0-0.5,0.8-0.4,1.1c0,0.1,0.1,0,0.1,0c0.3-0.3,0.3,0.6,0.7,0.2
					c0.3-0.2,0.4-0.6,0.4-0.9c0-0.2-0.2,0-0.2,0.1c0,0.2,0,0.4-0.2,0.5c0,0.1-0.3-0.2-0.3-0.3c-0.2-0.2-0.3-0.1-0.5,0.1h0.1
					c0-0.1-0.2-0.5,0.1-0.5c0.1,0,0.2-0.3,0.1-0.3c-0.8-0.1-0.4,1.3-0.3,1.6c0.1-0.1,0.2-0.2,0.2-0.3c-0.2-0.4-0.3-0.9-0.6-1.3
					C-161.4,461.5-161.6,461.8-161.5,461.8L-161.5,461.8z"/>
			</g>
		</g>
		<g>
			<path class="st12" d="M-153.9,466.6c0,0,0.1-0.3,0.8-0.1c0.7,0.2,2.2-0.3,2.5-0.5c0.3-0.2,0,0,0,0l-0.8-1.5l-0.4,0.3h-0.1v0.1
				h-0.3l0.1,0.1l-0.4,0.1l0.2,0.1l-0.3,0.1l0.1,0.1l-0.3,0.1l0.1,0.1l-0.2,0.1v0.1h-0.2v0.1h-0.1v0.1h-0.2v0.1l-0.2,0.1h0.1
				l-0.3,0.1l0.1,0.1L-153.9,466.6l0.1,0C-153.6,466.3-153.9,466.4-153.9,466.6z"/>
			<path class="st12" d="M-148.3,463.8v-0.1l0.1,0.1v-0.1h0.2l0.1-0.1h0.1l0.2-0.1l0.1,0.1l0.1-0.1l0.1,0.2l0.3-0.2l0.1,0.1h0.1v0.1
				c0,0,0.1,0,0.3-0.1v0.1h0.2v0.1h0.1l0,0l0.2-0.1v0.1l0.2-0.1v0.1h0.1l0.1,0.1h0.1l0.1,0.1l0.1-0.1l0.1,0.1l0.2-0.1v0.1l0.2-0.1
				v0.1c0,0,0.1-0.1,0.3-0.1c0,0-0.4,0.3-0.4,0.4v0.1h-0.2l0,0l-0.1,0.1v0.1l-0.2,0.1v0.1l-0.2,0.1v0.1l-0.1,0.1l-0.1,0.1h-0.2
				l-0.1,0.1l-0.3,0.1C-146.5,465.2-148.5,464.4-148.3,463.8z"/>
			<polyline points="-150,462.7 -148.6,463 -148.3,463.2 -148.3,464 -148.3,464.2 -148,464 -148.1,463.2 -147.9,463 -148.1,462.8 
				-148.3,462.9 -148.4,462.8 -150,462.5 			"/>
			<polygon points="-149.9,462.7 -148.5,462.9 -148.3,463 -148.4,462.8 			"/>
			<path class="st12" d="M-145.3,463.5c0,0,0.8-0.7,1.6-0.4c0,0-0.2-0.3-0.5-0.2l0.1-0.2l-0.4,0.2v-0.1l-0.2,0.1v-0.2l-0.3,0
				l-0.1-0.1l-0.2,0.1l-0.1-0.1C-145.3,462.6-145.1,463.2-145.3,463.5z"/>
			<path d="M-148.7,462.8l0.1-0.2l-0.1-0.4l0.2,0.4l0.5-0.2l0.6-0.9c0,0,0.1-0.1,0.1,0.1l-0.6,0.8l0.1,0.2l-0.1,0.1h-0.1l-0.4,0.2
				v0.2L-148.7,462.8z"/>
			<path class="st12" d="M-149.5,465.7L-149.5,465.7l-0.2,0.1v0.1h-0.1l0.1,0.1v0.1h0.1v0.1h0.1v0.1h0.1l0.1,0.1l0.1-0.1l0.1,0.2
				l0.1-0.1l0.1,0.1l0.1-0.1l0.1,0.1v-0.1l0.1,0.1l0.1-0.1l0.2,0.1l0.1-0.1l0.1,0.1v-0.1l0.2,0.1l0.1-0.1l0.2,0.1v-0.1l0.2,0.1
				l0.1-0.1l0.3,0.1l0.1-0.1c0,0,0.2,0.1,0.3,0.1c0.1,0,0-0.1,0-0.1s0.3,0.1,0.4,0v-0.1c0,0,0.1,0,0.2,0v-0.1c0,0,0.4,0.1,0.8-0.2
				l-0.3,0.1l0.1-0.2l-0.2,0.1c0,0-0.1-0.1,0-0.1l-0.1-0.1l0.1-0.1l-0.2-0.1v-0.1h-0.2l0.1-0.1h-0.2v-0.1h-0.1l0.1-0.1h-0.2
				l-0.1-0.2h-0.1l0.1-0.1l-0.3-0.1l0.1-0.1l-0.3-0.1l0.1-0.1h-0.2v-0.1h-0.2l0.1-0.1h-0.3c0,0,0-0.1,0.1-0.1s-0.1-0.1-0.2,0
				s-0.1-0.1,0.1-0.1c0.1,0-0.3,0-0.3,0l0.1-0.1h-0.2v-0.1l-0.1,0.1v-0.1h-0.1l-0.2-0.1c0,0-0.2,0.2-0.2,0c0-0.2-0.6,0.4,0,1.3
				C-148.7,465.3-149.4,465.5-149.5,465.7z"/>
			<path class="st13" d="M-149.8,462.8c-0.4,0.6-1.1,0.8-1.7,0.5c-0.5-0.4-0.6-1.2-0.2-1.8s1.1-0.8,1.7-0.5
				C-149.6,461.4-149.5,462.2-149.8,462.8z"/>
			
				<ellipse transform="matrix(1.680482e-02 -0.9999 0.9999 1.680482e-02 -612.4448 306.6691)" class="st13" cx="-150.3" cy="464.7" rx="1.3" ry="1.5"/>
			
				<ellipse transform="matrix(1.622819e-02 -0.9999 0.9999 1.622819e-02 -607.1985 309.1562)" class="st13" cx="-146.5" cy="463.1" rx="1.3" ry="1.4"/>
			<ellipse transform="matrix(0.3185 -0.9479 0.9479 0.3185 -541.181 170.9187)" cx="-151.7" cy="461.8" rx="0.4" ry="0.3"/>
			<ellipse cx="-145.8" cy="463" rx="0.5" ry="0.5"/>
			<ellipse cx="-151.4" cy="464.7" rx="0.4" ry="0.4"/>
			<path d="M-151.5,461.6c0,0-0.1-0.7-0.9-0.9c0,0,0.9,0.3,0.7,1.3c0,0-0.5,0-0.9-0.5s-1-0.5-1-0.5s0.8,0.2,1,0.6
				c0,0,0.2,0.7,0.9,0.4"/>
			<path d="M-151.6,462c0,0-1.1,0.1-1.7-0.7c0,0,0.7,0.6,1.4,0.5c0,0,0-0.4-0.5-0.5s-0.7-0.6-0.7-0.6s0.4,0.3,0.7,0.3
				c0,0,0.8,0.1,0.9,0.7"/>
			<g>
				<path d="M-146.2,462.9c0.2-0.6,0.5-0.5,0.5-0.5c0.2,0.1,0.5-0.1,0.5-0.1s-0.2,0.4-0.6,0.3C-146.2,462.6-146.2,463-146.2,462.9
					c0.6,0.6,1.1,0.2,1.1,0.2c-0.4,0.4-1,0.3-1,0.3S-146.3,463.2-146.2,462.9z"/>
				<path d="M-145.9,462.7c0,0,0.5-0.1,0.7,0c0,0-0.4-0.2-0.9,0.2c0,0,0,0.3,0.3,0.2s0.4,0.1,0.4,0.1s-0.2-0.1-0.4,0
					c0,0-0.4,0.2-0.4-0.2C-146.1,463-146.2,462.8-145.9,462.7z"/>
			</g>
			<g>
				<path d="M-151.1,464.5c0,0-0.3-0.6-1.1-0.4c0,0,0.7-0.1,1,0.6c0,0-0.2,0.4-0.5,0.2c-0.3-0.2-0.7,0.1-0.7,0.1s0.4-0.1,0.5,0.1
					c0,0,0.4,0.4,0.7-0.2"/>
				<path d="M-151.2,464.7c0,0-0.1,0.6-1.1,0.4c0,0,0.5,0.2,0.9-0.3c0,0-0.1-0.3-0.4-0.2s-0.5-0.1-0.5-0.1s0.3,0.1,0.4,0
					C-151.8,464.4-151.3,464.1-151.2,464.7"/>
			</g>
			<polyline points="-147.8,462 -147.9,461.9 -147.8,461.9 			"/>
			<polyline points="-149.2,462.9 -149.2,463.1 -149.1,462.9 			"/>
			<polyline points="-149.4,462.6 -149.5,462.4 -149.4,462.7 			"/>
		</g>
		<g>
			<path class="st8" d="M-180.1,448.9c-0.1,0-0.1-0.1-0.2-0.1c-0.3-0.1-0.5,0.1-0.7,0.1c-0.6,0-0.8,0-1.5-0.2c0-0.6,0.3-1,0.5-1.5
				c0.1-0.4-0.1-0.9-0.1-1.4c0-0.3,0-0.6,0-0.9c-0.2,0.2-0.1,0.8-0.1,1c-0.1-0.4-0.1-0.8-0.2-1.2c-0.1,0.3,0,0.8,0,1.2
				c-0.1-0.3-0.1-0.7-0.3-1c-0.2,0.3,0.1,0.8,0.1,1.1c-0.1-0.3-0.2-0.6-0.3-0.9c-0.1,0.4,0.1,0.7,0.1,1c-0.1-0.2-0.2-0.5-0.4-0.7
				c0,0.3,0.2,0.6,0.3,0.8c-0.2-0.1-0.2-0.3-0.4-0.4c0,0.2,0.2,0.3,0.2,0.5c-0.1-0.1-0.2-0.2-0.3-0.2c0,0.2,0.2,0.2,0.2,0.4
				c-0.1-0.1-0.2-0.1-0.3-0.2c0,0.1,0.2,0.2,0.2,0.3c0,0-0.1-0.1-0.1,0l0.1,0.1h-0.1c0,0.1,0.1,0.1,0.1,0.2c0,0,0,0-0.1,0
				c0,0.1,0.1,0.1,0.1,0.1c-0.5,0.5-0.2,1.1-0.3,1.7c0-0.1-0.4-0.2-0.8-0.3c-0.2-0.1-0.2-0.3-0.4-0.4c0,0,0,0,0.1-0.1
				c-0.1,0-0.1,0-0.1-0.1c0.1,0,0.2,0,0.2,0c-0.1-0.1-0.3-0.1-0.3-0.2c0.1,0,0.2,0.1,0.3,0.1c-0.1-0.1-0.4-0.2-0.4-0.3
				c0.1,0.1,0.3,0.2,0.5,0.1c-0.2-0.1-0.5-0.3-0.6-0.4c0.2,0.1,0.4,0.3,0.5,0.2c-0.3-0.1-0.5-0.4-0.7-0.4c0.1,0.2,0.5,0.4,0.6,0.5
				c-0.2-0.1-0.4-0.2-0.6-0.3c0.1,0.2,0.4,0.3,0.5,0.5c-0.2,0-0.3-0.1-0.5-0.1c0.1,0.2,0.4,0.2,0.5,0.3c-0.1-0.1-0.2,0-0.3,0
				c0,0.1,0.2,0.1,0.3,0.2c-0.1,0-0.2,0-0.3,0.1c0.1,0.1,0.2,0,0.3,0.1c-0.1,0-0.1,0-0.1,0.1s0.2,0,0.2,0.1c0,0-0.1,0-0.1,0.1h0.1
				c0,0,0,0-0.1,0.1c0.3,0.1,0.4,0.6,0.8,0.7c-0.2,0.1,0.2,0.3-2.2,1.1c0.1,0,1-0.2,1.3-0.3s0.6-0.2,0.9-0.3c0.1,0,0.1,0,0.2-0.1
				c0.5,0,0.9,0,1.4-0.3c-0.4,0.1-1,0.1-1.2-0.1c0.3-0.5,0.1-1.8,0.3-2.1c0.3-0.3,0.7-1.1,1.2-0.4c0.1,0.1,0.1,0.3-0.1,0.6
				c-0.2,0.4-0.4,0.5-0.3,1.3c0,0.2,0,0.3-0.2,0.3c1,0.2,1.3,0.1,1.9,0c0.2,0,0.5-0.2,0.5,0c0,0.1-0.2,0.1-0.4,0.1
				c-0.3,0,0.1,0.1,0.3,0.1c0.1,0,0.6-0.1,0.9-0.1C-179.7,449-179.9,449-180.1,448.9z"/>
			<path class="st8" d="M-183.1,443.7c-2.4,0-4.3,1.9-4.3,4.3c0,2.4,1.9,4.3,4.3,4.3c2.4,0,4.3-1.9,4.3-4.3
				C-178.8,445.6-180.7,443.7-183.1,443.7 M-183.1,443.8c2.3,0,4.1,1.8,4.1,4.1c0,2.3-1.8,4.1-4.1,4.1s-4.1-1.8-4.1-4.1
				C-187.2,445.6-185.4,443.8-183.1,443.8"/>
		</g>
	</g>
</g>
<g id="_x34_">
	<g>
		<path class="st0" d="M-55.9,502.5c0,0,0-40.9,0-63.2s-9.2-30.7-9.2-30.7c2.5-13.8-4.1-17.9-4.1-17.9v-5h1.4c0,0,0-5.3,0-7.1
			c0-1.8-2.5-1.6-2.5-1.6h-9.1h-0.8h-9.1c0,0-2.5-0.2-2.5,1.6c0,1.8,0,7.1,0,7.1h1.5v5h-0.1c0,0-6.6,4.2-4.1,17.9
			c0,0-9.2,8.5-9.2,30.7c0,22.2,0,63.2,0,63.2s-0.9,13.6,9.1,13.6c2.7,0,5,0,6.9,0c5.1,0,7.5,0,7.5,0h0.5h0.5l0,0h7.4l0,0
			c1.9,0,4.1,0,6.8,0l0,0C-54.9,516.1-55.9,502.5-55.9,502.5z"/>
		<path class="st1" d="M-60.7,499.3c0,0,0-40.9,0-63.2c0-22.3-9.2-30.7-9.2-30.7c2.5-13.8-4.2-17.9-4.2-17.9v-5.1H-95v5.1h-0.1
			c0,0-6.6,4.2-4.2,17.9c0,0-9.2,8.5-9.2,30.7c0,22.3,0,63.2,0,63.2s-0.9,13.6,9.1,13.6c2.7,0,5,0,6.9,0c5.1,0,7.5,0,7.5,0h1h7.5
			c1.9,0,4.2,0,6.9,0C-59.8,512.9-60.7,499.3-60.7,499.3z"/>
		<path class="st2" d="M-75.2,373.8h-9.1H-85h-9.1c0,0-2.5-0.2-2.5,1.6c0,1.8,0,7.1,0,7.1H-85h0.8h11.5c0,0,0-5.3,0-7.1
			S-75.2,373.8-75.2,373.8z"/>
		<path class="st3" d="M-60.8,499.3c0,0,0-40.9,0-63.2c0-22.3-9.2-30.7-9.2-30.7c2.5-13.8-4.1-17.9-4.1-17.9v-5.1h-10.5v130.5h0.5
			h7.5c1.9,0,4.2,0,6.9,0C-59.8,512.9-60.8,499.3-60.8,499.3z"/>
		<path class="st4" d="M-100.7,428.8c-0.1,0-0.2,0-0.3,0c-1.4-0.2-2.5-1.5-2.3-3c1.2-9.1,5.6-14.7,5.8-14.9c0.9-1.1,2.6-1.3,3.7-0.4
			c1.1,0.9,1.3,2.6,0.4,3.7c-0.1,0.1-3.7,4.7-4.7,12.3C-98.3,427.8-99.4,428.8-100.7,428.8z"/>
	</g>
	<g>
		<circle class="st14" cx="-83.3" cy="455.3" r="12"/>
		<circle class="st5" cx="-93" cy="466" r="3.8"/>
		<g>
			<path class="st4" d="M-95.5,465.4c0.1-0.4,0.4-0.1,0.5,0.1c0.1,0.3,0,0.5-0.2,0.7c-0.1,0.2-0.3,0.3-0.5,0.4
				c-0.1,0.1-0.2,0.1-0.2,0.2c0,0-0.1,0.1,0,0.1c0.1,0.1,0.4,0.1,0.6,0.1c0.3,0,0.6,0,0.8-0.1c0.1-0.1,0.3-0.4,0-0.3
				c-0.2,0.1-0.5,0.1-0.7,0.1c-0.1,0-0.4,0-0.4-0.1v0.1c-0.1,0.2,0,0.1,0,0c0.1-0.1,0.2-0.1,0.2-0.2c0.1-0.1,0.3-0.3,0.4-0.4
				c0.2-0.3,0.4-0.6,0.3-1c-0.1-0.8-1-0.2-1.2,0.2C-95.9,465.7-95.5,465.5-95.5,465.4L-95.5,465.4z"/>
			<path class="st4" d="M-93.4,466.7c0.3,0.9,1.7,0.3,1.4-0.5c-0.1-0.4-0.6-0.3-0.9-0.4c-0.2-0.1-0.2-0.2-0.2-0.4
				c0.1-0.2,0-0.2-0.1-0.1c0.1,0,0.1,0,0.2,0c0.3-0.1,0.6,0,0.8,0.1c0.1,0.1,0.4-0.3,0.2-0.3c-0.3-0.2-0.7-0.1-1.1-0.1
				c-0.3,0.1-0.4,0.4-0.4,0.7c0,0.4,0.3,0.4,0.7,0.5c0.2,0,0.4,0.1,0.5,0.4c0,0.4-0.4,0.4-0.6,0.2c-0.1-0.1-0.1-0.2-0.2-0.3
				C-93.1,466.3-93.4,466.6-93.4,466.7L-93.4,466.7z"/>
			<g>
				<path class="st4" d="M-90.2,465.1c-0.4,0.6-0.9,1.2-1.3,1.8c-0.2,0.3,0.1,0.3,0.3,0.1c0.5-0.6,1-1.3,1.4-1.9
					C-89.7,464.8-90.1,464.9-90.2,465.1L-90.2,465.1z"/>
				<path class="st4" d="M-90.9,464.9c-0.2,0-0.4,0.2-0.5,0.4c0,0.2,0.1,0.4,0.3,0.4C-90.6,465.7-90.4,464.9-90.9,464.9
					c-0.1,0-0.3,0.2-0.1,0.3c0.1,0,0.2,0.1,0.2,0.2v0.1l0,0c0,0,0,0-0.1,0s-0.2-0.1-0.2-0.2v-0.1l0,0c0,0,0,0,0.1,0
					C-91,465.1-90.8,464.9-90.9,464.9z"/>
				<path class="st4" d="M-90.3,466.3c-0.2,0-0.4,0.2-0.5,0.4c0,0.2,0.1,0.4,0.3,0.4C-90,467.1-89.7,466.3-90.3,466.3
					c-0.1,0-0.3,0.2-0.1,0.3c0.1,0,0.2,0.1,0.2,0.2v0.1l0,0c0,0,0,0-0.1,0s-0.2-0.1-0.2-0.2v-0.1l0,0c0,0,0,0,0.1,0
					C-90.3,466.5-90.1,466.3-90.3,466.3z"/>
			</g>
			<path class="st4" d="M-93.9,467.5c0.2-0.1,0.3-0.4,0.3-0.6c0-0.1,0-0.2,0-0.2c-0.1-0.1-0.2,0-0.3,0c-0.1,0-0.2,0.2-0.2,0.3
				s0.1,0.1,0.2,0.1l0,0l0,0v0.1c0,0.1,0,0.1,0,0.1l0,0l0,0l0,0l0,0c-0.1,0-0.2,0.2-0.1,0.3C-94.1,467.7-94,467.6-93.9,467.5
				L-93.9,467.5z"/>
		</g>
		<path class="st14" d="M-89,440.5c0,0.8-0.7,1.5-1.5,1.5c-0.9,0-1.5-0.7-1.5-1.5c0-0.9,0.7-1.5,1.5-1.5S-89,439.7-89,440.5
			L-89,440.5z"/>
		<path class="st5" d="M-89,445.7c0,1.1-0.9,2-2,2s-2-0.9-2-2c0-1.1,0.9-2,2-2S-89,444.6-89,445.7L-89,445.7z"/>
		<path class="st5" d="M-94.3,442.7c0,0.6-0.5,1.2-1.2,1.2s-1.2-0.5-1.2-1.2c0-0.7,0.5-1.2,1.2-1.2S-94.3,442-94.3,442.7
			L-94.3,442.7z"/>
		<g>
			<path class="st5" d="M-66.4,444.3c0,3.7-3,6.6-6.6,6.6c-3.7,0-6.6-3-6.6-6.6c0-3.7,3-6.6,6.6-6.6
				C-69.4,437.6-66.4,440.6-66.4,444.3z"/>
			<g>
				<path class="st4" d="M-74.7,443.3c-0.5,0.1-0.7,0.7-0.7,1.2l0,0l0,0c0,0.1,0,0.1,0,0.2c0,0.2,0,0.4,0,0.6c0,0.1,0,0.3-0.1,0.3
					c-0.2,0-0.4-0.3-0.4-0.4c-0.1-0.3-0.2-0.7-0.3-1.1c-0.1-0.4-0.1-0.8-0.1-1.2c0-0.2,0-0.3,0-0.5c0-0.1,0-0.1,0-0.2v-0.1
					c0.1-0.3-0.4,0-0.4,0.1c-0.4,0.8-0.3,1.7-0.3,2.5c0,0.2,0,0.5,0,0.7c0,0.2-0.1,0.4-0.2,0.6c-0.1,0.1-0.2,0-0.3,0
					c-0.1-0.1-0.2-0.2-0.2-0.3s-0.2-0.1-0.2,0c-0.1,0.1-0.2,0.3-0.2,0.4c0,0.3,0.3,0.6,0.6,0.5c0.5-0.1,0.7-0.7,0.8-1.2
					c0.1-0.2,0.1-0.4,0.1-0.7c0.1,0.3,0.2,0.7,0.3,1c0.1,0.2,0.3,0.4,0.6,0.4c0.2,0,0.4-0.3,0.5-0.5c0.1,0.2,0.2,0.4,0.5,0.4
					s0.5-0.3,0.6-0.5c0.1-0.3,0.2-0.6,0.2-0.8C-74,444.1-74.1,443.3-74.7,443.3z M-74.5,445.2c0,0.1,0,0.1,0,0.2
					c-0.1,0-0.2-0.2-0.2-0.2c-0.1-0.2-0.1-0.4-0.1-0.6c0-0.2,0-0.4,0-0.6c0-0.1,0-0.1,0-0.2c0.3,0.2,0.3,0.5,0.4,0.8
					C-74.5,444.8-74.5,445-74.5,445.2z"/>
				<path class="st4" d="M-68.1,444.1c-0.6-0.2-0.9,0.6-1,1s-0.2,1.2,0.3,1.4c0.2,0.1,0.5-0.1,0.7-0.2c0.2-0.2,0.3-0.5,0.4-0.7
					C-67.7,445.1-67.5,444.3-68.1,444.1z M-68.4,446l-0.1,0.1c-0.1-0.1-0.1-0.2-0.1-0.3c0-0.2,0-0.4,0-0.6c0-0.2,0.1-0.4,0.2-0.6
					l0.1-0.1c0.2,0.3,0.2,0.6,0.1,0.9C-68.3,445.6-68.4,445.8-68.4,446z"/>
				<path class="st4" d="M-69.7,444.2c0.1-0.2,0.2-0.3,0.3-0.5c0.2-0.3,0.4-0.7,0.4-1.1c0-0.4-0.5-0.4-0.8-0.3
					c-0.4,0.2-0.6,0.6-0.7,1c-0.1,0.5-0.2,1-0.2,1.6l0,0c-0.2,0.2-0.6,0.7-0.9,0.5c-0.1,0-0.1-0.1-0.1-0.2c0.2-0.3,0.5-0.5,0.7-0.8
					c0.2-0.3,0.3-0.7,0-0.9c-0.3-0.2-0.7,0-0.8,0.3c-0.2,0.2-0.3,0.5-0.3,0.8c0,0.2,0,0.4,0,0.7c-0.2,0.1-0.4,0.2-0.6,0.1
					c-0.2,0-0.3-0.3-0.4-0.5c-0.1-0.3,0-0.6,0-0.8c0-0.1,0-0.2,0.1-0.3c0,0,0,0,0-0.1c0.1,0.1,0.2,0.3,0.2,0.4
					c0.1,0.2,0.6-0.1,0.5-0.3c-0.1-0.2-0.1-0.4-0.4-0.5c-0.2-0.1-0.5,0.1-0.6,0.2c-0.4,0.4-0.4,0.9-0.4,1.4c0,0.3,0.1,0.7,0.3,0.8
					c0.4,0.2,0.9,0,1.2-0.2c0.1,0.2,0.3,0.4,0.5,0.3c0.4,0,0.7-0.2,0.9-0.5c0,0.3,0.1,0.6,0.3,0.7c0.3,0.2,0.7,0,0.9-0.3
					c0.3-0.3,0.4-0.8,0.3-1.2C-69.4,444.3-69.5,444.2-69.7,444.2z M-71.7,444c0-0.1,0.1-0.2,0.1-0.2l0,0c0.1,0,0.2,0.2,0.2,0.3
					c0,0.2-0.2,0.4-0.3,0.6v-0.1C-71.8,444.4-71.8,444.2-71.7,444z M-69.8,442.9c0-0.1,0.1-0.2,0.1-0.2l0,0c0.2,0.3,0,0.6-0.1,0.9
					c-0.1,0.2-0.3,0.5-0.4,0.7c0-0.2,0.1-0.5,0.1-0.7C-70,443.3-69.9,443.1-69.8,442.9z M-69.9,445.6
					C-69.9,445.6-70,445.7-69.9,445.6c-0.1,0.1-0.1,0.1-0.1,0.1c-0.1-0.1-0.2-0.4-0.2-0.5s0-0.2,0-0.3c0.1-0.1,0.1-0.1,0.2-0.2
					c0.1-0.1,0.2,0.1,0.3,0.2C-69.7,445.1-69.8,445.4-69.9,445.6z"/>
			</g>
		</g>
		<g>
			<g>
				<g>
					<path class="st4" d="M-74,457.6c-0.2-0.1-0.4,0-0.5,0.2c-0.1-0.3,0.1-0.8,0.1-1.2c0.2-0.9,0.2-1.6,0-1.9
						c-0.2-0.2-0.6-0.1-0.7-0.1c-0.1,0.1-0.2,0.1-0.3,0.2c0-0.2-0.1-0.4-0.2-0.5c-0.1-0.2-0.5-0.2-0.6-0.1s-0.2,0.1-0.4,0.2
						c0-0.1,0-0.2,0-0.3s0-0.1,0-0.1s-0.1,0-0.1-0.1h-0.1c-0.1,0-0.3,0.1-0.4,0.1c-0.1,0.1-0.1,0.1-0.2,0.2c-0.1,0.2-0.3,0.1-0.6,0
						c-0.2-0.1-0.2-0.2-0.4-0.4c-0.1-0.1-0.1-0.2-0.2-0.2c-0.3-0.2-0.6-0.1-0.9,0c0-0.2,0-0.4,0-0.7c0-0.2-0.4-0.1-0.4,0
						c-0.1,0.1-0.3,0.2-0.3,0.3c0,0-0.3,1.1-0.9,1.9c0-0.6,0.1-1.2,0.1-1.8c0-0.1,0-0.1-0.1-0.1s-0.2,0-0.2,0
						c-0.2,0.1-0.4,0.2-0.4,0.4c-0.1,0.8-0.2,2.5-0.7,2.5s-0.2-2-0.2-2.9c0-0.1-0.1-0.1-0.2-0.1s-0.2,0-0.2,0
						c-0.2,0.1-0.4,0.3-0.4,0.4c-0.1,0.6-0.2,1.1-0.4,1.7c-0.1,0.3-0.3,0.9-0.7,0.9c-0.3,0-0.4-0.4-0.3-0.7c0.1-0.3,0.3-0.5,0.5-0.8
						c0.2-0.3,0.3-0.6,0.3-0.8c0-0.4-0.2-0.7-0.6-0.7s-0.8,0.2-1.1,0.5c-0.1,0.1-0.2,0.2-0.3,0.2c-0.3,0-0.5-0.2-0.6-0.2
						c-0.1-0.1-0.3-0.2-0.5-0.1c-0.9,0.3-1,1.3-1,2.1c0,0.5,0,0.9-0.1,1.1c-0.3,0-0.5-0.3-0.6-0.6c-0.2-0.5-0.3-1-0.4-1.5
						c-0.1-0.7-0.1-1.5-0.1-2.2c0-0.2-0.3-0.1-0.4,0c-0.2,0.1-0.4,0.4-0.4,0.6c0,0.9,0.1,1.8,0.1,2.7c0,0.4,0,0.9-0.1,1.3
						c-0.1,0.2-0.2,0.2-0.3,0.2c-0.3-0.1-0.4-0.4-0.5-0.7c-0.1-0.4-0.2-0.9-0.2-1.3s0-0.9-0.1-1.3c0-0.3,0-0.6-0.2-0.9
						c-0.3-0.4-1,0.3-1.2,0.6c-0.3,0.5-0.5,1-0.6,1.5c0,0.2,0.1,0.3,0.3,0.1c0.2-0.1,0.4-0.4,0.4-0.6c0-0.2,0.1-0.7,0.3-0.8l0,0l0,0
						c0,0,0,0,0,0.1s0.1,0.2,0.1,0.4c0.1,0.9,0.1,1.8,0.2,2.6c0.1,0.6,0.4,1.5,1.2,1.3c0.5-0.1,0.8-0.7,0.9-1.1c0,0,0,0,0-0.1
						c0.2,0.4,0.5,0.7,1,0.6c0.4-0.1,0.5-0.4,0.6-0.8c0.1,0.3,0.4,0.5,0.7,0.4c0.4,0,0.7-0.5,0.9-0.8c0.2-0.4,0.2-0.8,0.2-1.2
						c0-0.2,0-0.5-0.1-0.7c0.1,0,0.2,0,0.3-0.1c0.2-0.1,0.4-0.4,0.6-0.5c0.1,0,0.2,0,0.3,0c0.6,0.3-0.3,0.9-0.5,1.5
						c-0.2,0.4-0.3,1,0,1.3c0.5,0.6,1.4,0.1,1.8-0.4c0.1-0.1,0.2-0.3,0.3-0.4c0,0.4,0.1,1,0.7,0.9c0.3,0,0.5-0.1,0.7-0.3
						c-0.3,0.4-0.5,0.9-0.7,1.3c-0.2,0.4-0.4,0.8-0.4,1.2c0,0.5,0.5,0.7,1,0.5c0.4-0.2,0.7-0.7,0.8-1.1c0.2-0.7,0.2-1.5,0.2-2.3
						c0.4-0.6,0.7-1,1-1.7c0,0.8-0.1,1.6-0.1,2.3c-0.1,0.9-0.2,1.7-0.3,2.6c0,0.2,0.2,0.2,0.3,0.1c0.2-0.1,0.3-0.2,0.4-0.4
						c0.1-0.6,0.2-1.3,0.3-1.9c0.2,0,0.5,0,0.8-0.2c0.5-0.4,0.7-1.1,0.8-1.7c0-0.1,0-0.2,0-0.3c0.3,0.1,0.5,0,0.7-0.1
						c-0.1,0.8-0.3,1.6-0.4,2.5c-0.1,0.4,0.7,0.1,0.7-0.2c0.1-0.7,0.3-1.5,0.7-2.1c0-0.1,0.1-0.1,0.1-0.2l0,0c0.1,0.5,0,0.9-0.1,1.4
						c0,0.2-0.1,0.4-0.1,0.6c-0.1,0.2-0.1,0.5-0.2,0.7c-0.1,0.4,0.7,0.1,0.7-0.1c0.1-0.2,0.1-0.5,0.2-0.7c0.2-0.5,0.4-1.1,0.7-1.5
						c0.1,0.3,0,0.6,0,0.8c0,0.4-0.1,0.7-0.2,1.1c-0.1,0.3-0.1,0.6,0,0.9c0.2,0.6,1.1,0.1,1.3-0.1C-73.8,457.9-73.8,457.7-74,457.6z
						 M-86.7,456.3c0,0.1,0,0.2-0.1,0.2c-0.2,0-0.3-0.2-0.3-0.3c-0.1-0.3-0.2-0.5-0.2-0.8c0-0.3,0-0.6,0-0.9c0-0.1,0-0.2,0.1-0.2
						s0.1,0.1,0.2,0.1c0.2,0.2,0.3,0.8,0.4,1C-86.7,455.7-86.7,456-86.7,456.3z M-81.9,457.8c0,0.3,0,0.7-0.1,1c0,0.1,0,0.2-0.1,0.2
						c0,0-0.1,0-0.2-0.1c-0.2-0.2-0.1-0.5,0-0.7c0.1-0.3,0.3-0.6,0.4-0.9C-81.9,457.5-81.9,457.6-81.9,457.8z M-79.1,456.5
						C-79.1,456.6-79.1,456.6-79.1,456.5C-79.1,456.6-79.1,456.6-79.1,456.5c-0.3,0-0.4-0.3-0.4-0.5c0-0.5,0.1-1,0.1-1.4l0,0
						c0-0.2,0-0.3,0.1-0.4l0,0l0,0c0.1,0,0.2,0.1,0.2,0.2c0.2,0.3,0.2,0.8,0.2,1.1C-78.8,455.8-78.9,456.2-79.1,456.5z"/>
					<path class="st4" d="M-90.7,452.3c0.5-0.2,0.8-0.6,1.1-1c0.1-0.1,0.3-0.4,0.1-0.5c-0.2-0.1-0.4,0.2-0.5,0.3s-0.2,0.4-0.4,0.4
						c-0.2,0.1-0.4,0-0.6-0.1c-0.2-0.2-0.9,0.5-0.7,0.7C-91.4,452.4-91.1,452.4-90.7,452.3z"/>
				</g>
			</g>
		</g>
		<g>
			<g>
				<path class="st4" d="M-81.9,464.5c0.1,0.3,0.6,0.2,0.7-0.1c0.1-0.2,0.1-0.4,0-0.6c0-0.3-0.1-0.6,0-0.9c-0.1,0.1-0.2,0.1-0.3,0.2
					c0.1,0.3,0.1,0.6,0.3,0.9c0.1,0.2,0.1,0.4,0.4,0.5c0.4,0.1,0.7-0.6,0.7-0.8c0-0.3-0.2,0-0.3,0.1c0,0.1-0.1,0.3-0.2,0.3
					s-0.2-0.2-0.2-0.2c-0.2-0.3-0.3-0.7-0.4-1c0-0.2-0.2,0.1-0.3,0.2c0,0.2,0,0.4,0,0.6c0,0.1,0,0.2,0,0.4c0,0.1,0,0.1,0,0.2
					c0,0.2-0.1,0.1-0.2,0C-81.6,464.1-81.9,464.4-81.9,464.5L-81.9,464.5z"/>
				<path class="st4" d="M-80.3,463.9c0.1-0.1,0.4-0.4,0.6-0.2c0.1,0.1-0.1,0.2-0.2,0.1c-0.4-0.2-0.4-0.8-0.4-1.2
					c0-0.2-0.3,0.1-0.3,0.2c0,0.3,0.2,1.9,1,1.3c0.2-0.2,0.4-0.5,0.3-0.7c-0.2-0.3-0.7,0-0.9,0.2c-0.1,0.1-0.1,0.2-0.2,0.3
					C-80.4,463.9-80.4,464-80.3,463.9L-80.3,463.9z"/>
				<path class="st4" d="M-86.8,463.2c0.4-0.2-0.2,1.3-0.2,0.4c0-0.4,0.2-0.8,0.4-1.2c0.1-0.1,0.2-0.3,0.3-0.4
					c0.1,0,0.1,0.1,0.1,0.2c0,0.1-0.1,0.2-0.1,0.3c-0.2,0.3-0.5,0.6-0.8,0.8c-0.2,0.1,0.2,0.2,0.3,0.1c0.2-0.1,1.5-1.3,1-1.6
					c-0.6-0.3-1.2,1-1.3,1.3c-0.1,0.2-0.4,0.8-0.1,1c0.3,0.2,0.5,0.1,0.7,0c0.3-0.2,0.4-0.6,0.3-0.9c-0.1-0.3-0.6-0.1-0.7-0.1
					C-87.3,463.1-87,463.2-86.8,463.2L-86.8,463.2z"/>
				<path class="st4" d="M-85.1,463.3c0.1-0.5-0.5-0.3-0.7-0.2c-0.3,0.2-0.5,0.6-0.5,1c0,0.3,0.3,0.6,0.6,0.4
					C-85.3,464.3-85.3,463.7-85.1,463.3c-0.1,0-0.2,0.1-0.4,0.1c-0.1,0.3-0.5,1.6,0.3,1.3c0.2-0.1,0.2-0.3,0-0.2
					c-0.1,0-0.1-0.4-0.1-0.5C-85.3,463.8-85.2,463.5-85.1,463.3c0-0.2-0.3,0-0.4,0.1c-0.1,0.2-0.1,0.5-0.2,0.7
					c0,0.1-0.1,0.2-0.1,0.2c-0.1,0-0.1-0.1-0.1-0.2c0-0.2,0-0.4,0.1-0.5c0-0.1,0.1-0.2,0.1-0.3l0.1-0.1c0.1-0.1,0.2,0.1,0.2,0.2
					C-85.5,463.5-85.2,463.4-85.1,463.3L-85.1,463.3z"/>
				<path class="st4" d="M-84.8,463.3c0,0.5-0.1,1-0.2,1.5c0,0.2,0.4,0,0.4-0.1c0.1-0.3,0.2-0.4,0.4-0.6c0.3-0.2,0.4-0.5,0.4-0.8
					c0.1-0.2-0.3,0-0.3,0.1c-0.2,0.4-0.2,0.9-0.2,1.4c0.1,0.5,0.8,0,1-0.2c0.2-0.2,0-0.3-0.2-0.1c0,0-0.3,0.3-0.4,0.2
					s-0.1-0.3-0.1-0.4c0-0.3,0-0.7,0.1-1c-0.1,0-0.2,0.1-0.3,0.1c-0.1,0.3-0.2,0.5-0.5,0.7c-0.3,0.2-0.4,0.5-0.5,0.7
					c0.1,0,0.3-0.1,0.4-0.1c0.1-0.5,0.1-1,0.1-1.5C-84.4,463-84.8,463.2-84.8,463.3L-84.8,463.3z"/>
				<path class="st4" d="M-81.9,464.4c-0.2,0.3-0.4,0-0.5-0.2c-0.1-0.3-0.1-0.7-0.1-1c0-0.2-0.3,0.1-0.3,0.2c0,0.2,0,0.5,0,0.7
					c0,0.1,0,0.2,0,0.4c0,0.1,0,0.2-0.2,0.1c-0.4-0.2-0.2-1-0.1-1.2c0-0.2-0.3,0-0.3,0.1c-0.1,0.3-0.4,1.6,0.3,1.5
					c0.8-0.1,0.6-1.3,0.6-1.7c-0.1,0.1-0.2,0.1-0.3,0.2c0,0.4-0.1,1,0.2,1.3c0.2,0.3,0.7,0,0.9-0.2
					C-81.5,464.3-81.7,464.2-81.9,464.4L-81.9,464.4z"/>
			</g>
		</g>
		<g>
			<path d="M-75.1,465.7c0,0-0.4,0-0.5,0.2c-0.1,0.2,0.3,0.2,0.5,0.1c0.2-0.1,1.2-0.2,1.4-0.2c0.1,0,2.9-0.8,2.9-0.8s5.1-1.5,5.6-2
				s1.3-0.8,1.3-0.8l-0.1-0.1c0,0-1.4,0.7-2.7,1.1c-1.3,0.4-6.7,2.1-7.5,2.2C-75.1,465.6-75.1,465.7-75.1,465.7z"/>
			<path d="M-74,466.7c0,0,0.1,0.4-0.3,0.2c-0.4-0.1-0.3-0.7,0.2-1c0.5-0.2,1.2-0.3,1.6-0.5c0.4-0.1,0.5-0.2,1-0.5
				c0.5-0.2,2-0.8,2-0.8l3.9-1.2c0,0,0.8,0.2,1.2,0c0.4-0.2,0.9-0.4,0.3-0.6s0.7-0.2,0.5,0.3c-0.2,0.6-1.4,0.6-2.1,0.6s-2.9,1-2.9,1
				l-0.6,0.3c0,0-2,0.5-2.2,0.7c-0.3,0.2-1.9,0.8-2.5,0.8C-74.7,466.3-74.2,466.7-74,466.7z"/>
			<path class="st14" d="M-69.7,463.7c0-0.1-0.3-1.2-0.3-1.2s0.6-1.6,1.2-1.6c0,0,0.7,0.4,0.5,1.8l-1,1.4l-0.1-0.1
				c0,0,0.8-1.7,0.6-2.5c0,0-0.3,2.4-0.7,2.5L-69.7,463.7z"/>
			<path class="st14" d="M-68.7,465.4c0,0,1.6,0.9,2.5,0.6c0,0-0.3-1.7-1.8-2.1l-0.9,0.4c0,0,1.3,0.3,2.3,1.4c0,0-1.4-1.4-2.6-1.2
				L-68.7,465.4z"/>
			<path class="st14" d="M-73,464.4c0,0,0.9-1.2,2-1l1,0.8l0.2,0.1c0,0-1.1-0.5-2.4-0.1c0,0,1.6-0.1,2.4,0.2l-0.2,0.5
				C-69.9,464.8-70.6,465.5-73,464.4z"/>
			<path class="st14" d="M-70,464.2c0,0-1.9-1.3-1.9-2.2c0,0,2-0.7,2.6,2h-0.3c0,0-0.8-1.2-1.5-1.6c0,0,1.3,1.1,1.4,1.7L-70,464.2z"
				/>
			<path class="st14" d="M-69.2,463.6c0,0,0.3-1.5,2.8-0.8c0,0,0,0-0.7,0.7c-0.7,0.7-2.2,1.2-2.2,1.2v-0.4l0.1-0.2
				c0,0,0.7-1.1,2.1-1c0,0-1.1-0.2-2.1,0.9L-69.2,463.6L-69.2,463.6z"/>
			<path class="st14" d="M-70.1,464.4c0,0-0.7-0.3-0.5,1.3s0.2,1.4,0.2,1.4s-0.3,0.7,0.4,0c0.7-0.7,1.5-1.7,0.9-2.6h-0.5
				c0,0,0.4,1.2-0.6,2.3c0,0,0.9-1.5,0.4-2.2L-70.1,464.4z"/>
			<path d="M-69.5,463.7c0,0-0.1,0.2-0.2,0.2s-0.4,0-0.4,0s0.3,0.4,0,0.6c0,0,0.3,0,0.4,0.3c0,0,0.1-0.4,0.6-0.3c0,0-0.2-0.7,0-0.7
				C-69,463.9-69.3,464-69.5,463.7z"/>
			<circle cx="-69.9" cy="465" r="0.1"/>
			<circle cx="-69.8" cy="465.1" r="0.1"/>
			<circle cx="-69.3" cy="464.9" r="0.1"/>
			<path class="st15" d="M-71.2,462.3c0,0,1.4,0,1.7,1.4l-0.2,0.2C-69.6,463.9-70.5,462.7-71.2,462.3z"/>
			<path class="st15" d="M-68.9,463.9c0,0,0.8-1,1.9-0.8c0,0-0.7,1.2-1.9,1.4C-69,464.4-69.2,464.2-68.9,463.9z"/>
			<path class="st15" d="M-68.9,464.6c0,0,1.3,0,2.5,1.4c0,0-1.9-0.3-2.4-0.8C-68.7,465.2-68.6,465-68.9,464.6z"/>
			<path class="st4" d="M-69.6,464.5c0,0,0,0.3-0.3,0.6C-69.9,465-69.7,464.7-69.6,464.5C-69.7,464.2-69.6,464.5-69.6,464.5z"/>
			<path class="st4" d="M-69.6,464.5c0,0,0,0.3-0.2,0.6C-69.8,465.1-69.6,464.7-69.6,464.5C-69.7,464.2-69.6,464.5-69.6,464.5z"/>
			<path class="st4" d="M-69.5,464.4c0,0,0.2,0.2,0.2,0.5C-69.3,464.9-69.3,464.5-69.5,464.4S-69.5,464.4-69.5,464.4z"/>
		</g>
		<g>
			<path class="st8" d="M-98,450.2c-0.1,0-0.1-0.1-0.2-0.1c-0.3-0.1-0.4,0.1-0.7,0.1c-0.6,0-0.8,0-1.5-0.2c0-0.6,0.3-1,0.5-1.4
				c0.1-0.4-0.1-0.9-0.1-1.4c0-0.3,0-0.6,0-0.9c-0.2,0.2-0.1,0.7-0.1,1c-0.1-0.4-0.1-0.8-0.2-1.1c-0.1,0.3,0,0.8,0,1.1
				c-0.1-0.3-0.1-0.7-0.2-1c-0.2,0.3,0.1,0.8,0.1,1.1c-0.1-0.3-0.2-0.6-0.3-0.9c0,0.4,0.1,0.7,0.1,1c-0.1-0.2-0.2-0.5-0.4-0.7
				c0,0.2,0.2,0.5,0.2,0.8c-0.2-0.1-0.2-0.3-0.4-0.4c0,0.2,0.2,0.3,0.2,0.5c-0.1-0.1-0.2-0.2-0.3-0.2c0,0.2,0.2,0.2,0.2,0.4
				c-0.1-0.1-0.2-0.1-0.2-0.2c0,0.1,0.2,0.2,0.2,0.3c0,0-0.1-0.1-0.1,0l0.1,0.1h-0.1c0,0.1,0.1,0.1,0.1,0.2c0,0,0,0-0.1,0
				c0,0.1,0.1,0.1,0.1,0.1c-0.5,0.5-0.2,1.1-0.3,1.7c0-0.1-0.4-0.2-0.7-0.3c-0.2-0.1-0.2-0.3-0.4-0.4c0,0,0,0,0.1-0.1
				c-0.1,0-0.1,0-0.1-0.1c0.1,0,0.2,0,0.2,0c-0.1,0-0.3-0.1-0.3-0.2c0.1,0,0.2,0.1,0.3,0.1c-0.1-0.1-0.4-0.2-0.4-0.3
				c0.1,0,0.3,0.2,0.4,0.1c-0.2-0.1-0.5-0.3-0.6-0.4c0.2,0.1,0.3,0.3,0.5,0.2c-0.3-0.1-0.4-0.4-0.7-0.3c0.1,0.2,0.5,0.3,0.6,0.5
				c-0.2-0.1-0.4-0.2-0.6-0.3c0.1,0.2,0.3,0.3,0.5,0.5c-0.2,0-0.3-0.1-0.5-0.1c0.1,0.2,0.3,0.1,0.4,0.3c-0.1,0-0.2,0-0.3,0
				c0,0.1,0.2,0.1,0.3,0.2c-0.1,0-0.2,0-0.2,0.1c0.1,0.1,0.2,0,0.2,0.1c-0.1,0-0.1,0-0.1,0.1s0.2,0,0.2,0.1c0,0-0.1,0-0.1,0.1h0.1
				c0,0,0,0-0.1,0.1c0.3,0.1,0.4,0.6,0.8,0.7c-0.2,0.1,0.2,0.3-2.1,1.1c0.1,0,1-0.2,1.3-0.3s0.6-0.2,0.8-0.3c0.1,0,0.1,0,0.2-0.1
				c0.5,0,0.9,0,1.4-0.3c-0.4,0.1-1,0.1-1.2-0.1c0.3-0.5,0.1-1.7,0.3-2c0.3-0.2,0.6-1.1,1.1-0.4c0.1,0.1,0.1,0.3-0.1,0.6
				c-0.2,0.4-0.3,0.5-0.3,1.3c0,0.2,0,0.3-0.2,0.3c1,0.2,1.3,0.1,1.9,0c0.2,0,0.5-0.2,0.5,0c0,0.1-0.2,0.1-0.4,0.1
				c-0.3,0,0.1,0.1,0.3,0.1c0.1,0,0.6-0.1,0.9-0.1C-97.7,450.2-97.8,450.2-98,450.2z"/>
			<path class="st8" d="M-100.9,445c-2.3,0-4.2,1.9-4.2,4.2c0,2.3,1.9,4.2,4.2,4.2s4.2-1.9,4.2-4.2C-96.7,446.9-98.6,445-100.9,445
				 M-100.9,445.2c2.2,0,4,1.8,4,4c0,2.2-1.8,4-4,4s-4-1.8-4-4C-104.9,447-103.1,445.2-100.9,445.2"/>
		</g>
	</g>
</g>
</svg>
