<?xml version="1.0" encoding="utf-8"?>
<!-- Generator: Adobe Illustrator 19.0.0, SVG Export Plug-In . SVG Version: 6.00 Build 0)  -->
<svg version="1.1" xmlns="http://www.w3.org/2000/svg" xmlns:xlink="http://www.w3.org/1999/xlink" x="0px" y="0px"
	 viewBox="168 -173 394.5 402" style="enable-background:new 168 -173 394.5 402;" xml:space="preserve">
<style type="text/css">
	.st0{fill:#54A4AF;}
	.st1{fill:#519E38;}
	.st2{fill:#FFFFFF;}
	.st3{fill:#EFEFEF;}
	.st4{clip-path:url(#SVGID_2_);fill:#FFFFFF;}
	.st5{clip-path:url(#SVGID_4_);fill:#F2EDCD;}
	.st6{clip-path:url(#SVGID_6_);fill:#FFFFFF;}
	.st7{clip-path:url(#SVGID_8_);fill:#F2EDCD;}
	.st8{fill:none;}
</style>
<g id="Layer_1">
	<g id="Layer_1_2_">
		<g id="Layer_1_1_">
			<g id="milkk_bottle">
				<g id="Layer_2">
				</g>
				<path class="st0" d="M410.1,40.9l2.6,5.3C412,44.3,411.1,42.6,410.1,40.9z"/>
				<path class="st1" d="M419,51.2L419,51.2L419,51.2c-0.1-1.2-0.4-2.3-1-3.4l-14.3-29.1c0-0.1-0.1-0.1-0.1-0.2l-15.7-32
					c-0.2-0.5-0.5-1-0.8-1.5v-53.5c1.1-0.2,2-1.1,2-2.3c0-1.3-1.1-2.4-2.3-2.4h-22c-0.9-0.2-1.7-0.4-2.6-0.6v0.9
					c-0.7,0.4-1.2,1.2-1.2,2.1s0.5,1.7,1.2,2.1v54.2c-0.3,0.5-0.6,1-0.8,1.5l-15.7,32c0,0.1-0.1,0.1-0.1,0.2l-14.3,28.6H331
					l-0.7,2.2c0,0.1,0,0.1,0,0.2l-0.8,2.7l0.7,0.8c0.1,0.5,0.4,1,0.6,1.5c0.1,0.1,0.1,0.2,0.2,0.3c0.1-0.1,0.3-0.3,0.4-0.4l0.6,0.7
					c0,0,3.8,1,2.4-1c-0.8-1-0.2-3.1,0.5-4.9l1.4-2.9l0,0l12.8-26l0,0l0,0c0,0,0,0,0-0.1l15.8-32c0.2-0.4,0.4-0.8,0.7-1.2
					c0.4-0.6,0.6-1.2,0.6-1.9v-54.3h16.3v53.8c0,0.7,0.2,1.3,0.6,1.9c0.3,0.4,0.5,0.8,0.7,1.2l15.8,32l0,0l0,0L414,49.6
					c0.2,0.4,0.4,0.9,0.4,1.3l-0.4,0.4l-0.4,2.3l-1.1,1.6L397.3,56h-63.5l-1.8,0.8c0,0,0,4,2.9,4s59.1,0,59.1,0h17.8
					c0,0,6.4,0.1,7.1-8.3C419,52.1,419,51.7,419,51.2z"/>
				<g>
					<g>
						<path class="st2" d="M381.6-72.1v58c0,0.5,0.1,0.9,0.4,1.3s0.6,0.9,0.8,1.3l15.8,32.1l0,0l0,0L413,49.8
							c0.7,1.5,0.8,2.8,0.3,3.7s-1.8,1.4-3.4,1.4h-75.2c-1.6,0-2.9-0.5-3.4-1.4s-0.4-2.2,0.3-3.7L346,20.6l0,0l0,0l15.8-32.1
							c0.2-0.4,0.5-0.9,0.8-1.3s0.4-0.9,0.4-1.3v-58H381.6L381.6-72.1z M383.9-74.5h-23.5v60.3c-0.4,0.5-0.7,1.1-0.9,1.6l-15.8,32.1
							l0,0l0,0l-14.4,29.2c-2.3,4.6,0.1,8.4,5.3,8.4h75.2c5.2,0,7.5-3.8,5.3-8.4l-14.4-29.2l0,0l0,0l-15.9-32
							c-0.3-0.5-0.6-1.1-0.9-1.6V-74.5L383.9-74.5z"/>
					</g>
				</g>
				<path class="st3" d="M383.9-75.5h-23.5c-1.3,0-2.4,1.1-2.4,2.4s1.1,2.4,2.4,2.4h23.5c1.3,0,2.3-1.1,2.3-2.4
					C386.3-74.4,385.2-75.5,383.9-75.5z"/>
				<path class="st2" d="M368.5-16.9c-1.1,0-2-0.9-2-2v-44.8c0-1.1,0.9-2,2-2s2,0.9,2,2v44.8C370.5-17.8,369.6-16.9,368.5-16.9z"/>
				<g id="car">
				</g>
				<g id="lupa">
				</g>
				<g id="blank">
				</g>
				<path class="st2" d="M362.4,2.2c-0.3,0-0.6-0.1-0.9-0.2c-1.1-0.5-1.6-1.8-1.1-2.9l3.8-8.7c0.5-1.1,1.8-1.6,2.9-1.1
					s1.6,1.8,1.1,2.9l-3.8,8.7C364.1,1.8,363.3,2.2,362.4,2.2z"/>
				<path class="st1" d="M311.7,54.1L311.7,54.1L311.7,54.1c-0.1-0.8-0.3-1.6-0.7-2.4l-9.9-20.1c0-0.1-0.1-0.1-0.1-0.1L290.1,9.4
					c-0.1-0.3-0.3-0.7-0.6-1v-37c0.8-0.1,1.4-0.8,1.4-1.6c0-0.9-0.8-1.7-1.6-1.7h-15.2c-0.6-0.1-1.2-0.3-1.8-0.4v0.6
					c-0.5,0.3-0.8,0.8-0.8,1.5c0,0.6,0.3,1.2,0.8,1.5V8.8c-0.2,0.3-0.4,0.7-0.6,1l-10.9,22.1c0,0.1-0.1,0.1-0.1,0.1l-9.9,19.8h-0.2
					l-0.5,1.5c0,0.1,0,0.1,0,0.1l-0.6,1.9l0.5,0.6c0.1,0.3,0.3,0.7,0.4,1c0.1,0.1,0.1,0.1,0.1,0.2c0.1-0.1,0.2-0.2,0.3-0.3l0.4,0.5
					c0,0,2.6,0.7,1.7-0.7c-0.6-0.7-0.1-2.1,0.3-3.4l1-2l0,0l8.9-18l0,0l0,0c0,0,0,0,0-0.1L274.3,11c0.1-0.3,0.3-0.6,0.5-0.8
					c0.3-0.4,0.4-0.8,0.4-1.3v-37.6h11.3V8.5c0,0.5,0.1,0.9,0.4,1.3c0.2,0.3,0.3,0.6,0.5,0.8l10.9,22.2l0,0l0,0l10,20.2
					c0.1,0.3,0.3,0.6,0.3,0.9l-0.3,0.3l-0.3,1.6l-0.8,1.1l-10.5,0.6h-43.9l-1.2,0.6c0,0,0,2.8,2,2.8s40.9,0,40.9,0h12.3
					c0,0,4.4,0.1,4.9-5.7C311.7,54.8,311.7,54.5,311.7,54.1z"/>
				<g>
					<g>
						<path class="st2" d="M285.8-31.2V9c0,0.3,0.1,0.6,0.3,0.9c0.2,0.3,0.4,0.6,0.6,0.9L297.6,33l0,0l0,0l10,20.2
							c0.5,1,0.6,1.9,0.2,2.6c-0.3,0.6-1.2,1-2.4,1h-52c-1.1,0-2-0.3-2.4-1s-0.3-1.5,0.2-2.6l10-20.2l0,0l0,0l10.9-22.2
							c0.1-0.3,0.3-0.6,0.6-0.9c0.2-0.3,0.3-0.6,0.3-0.9v-40.2H285.8L285.8-31.2z M287.4-32.8h-16.3V8.9c-0.3,0.3-0.5,0.8-0.6,1.1
							l-10.9,22.2l0,0l0,0l-10,20.2c-1.6,3.2,0.1,5.8,3.7,5.8h52c3.6,0,5.2-2.6,3.7-5.8l-10-20.2l0,0l0,0l-11-22.1
							c-0.2-0.3-0.4-0.8-0.6-1.1L287.4-32.8L287.4-32.8z"/>
					</g>
				</g>
				<path class="st3" d="M287.4-33.5h-16.3c-0.9,0-1.7,0.8-1.7,1.7c0,0.9,0.8,1.7,1.7,1.7h16.3c0.9,0,1.6-0.8,1.6-1.7
					C289.1-32.8,288.3-33.5,287.4-33.5z"/>
				<path class="st2" d="M276.8,7c-0.8,0-1.4-0.6-1.4-1.4v-31c0-0.8,0.6-1.4,1.4-1.4s1.4,0.6,1.4,1.4v31C278.2,6.4,277.5,7,276.8,7z
					"/>
				<path class="st2" d="M272.6,20.2c-0.2,0-0.4-0.1-0.6-0.1c-0.8-0.3-1.1-1.2-0.8-2l2.6-6c0.3-0.8,1.2-1.1,2-0.8s1.1,1.2,0.8,2
					l-2.6,6C273.7,20,273.2,20.2,272.6,20.2z"/>
			</g>
			<g id="milk">
				<g>
					<g>
						<g>
							<g>
								<defs>
									<path id="SVGID_1_" d="M381.6-72.1v58c0,0.5,0.1,0.9,0.4,1.3s0.6,0.9,0.8,1.3l15.8,32.1l0,0l0,0L413,49.8
										c0.7,1.5,0.8,2.8,0.3,3.7s-1.8,1.4-3.4,1.4h-75.2c-1.6,0-2.9-0.5-3.4-1.4s-0.4-2.2,0.3-3.7L346,20.6l0,0l0,0l15.8-32.1
										c0.2-0.4,0.5-0.9,0.8-1.3s0.4-0.9,0.4-1.3v-58H381.6L381.6-72.1z"/>
								</defs>
								<clipPath id="SVGID_2_">
									<use xlink:href="#SVGID_1_"  style="overflow:visible;"/>
								</clipPath>
								<rect x="321.1" y="20.4" class="st4" width="102.3" height="38.6"/>
							</g>
						</g>
					</g>
					<g>
						<g>
							<g>
								<defs>
									<path id="SVGID_3_" d="M381.6-72.1v58c0,0.5,0.1,0.9,0.4,1.3s0.6,0.9,0.8,1.3l15.8,32.1l0,0l0,0L413,49.8
										c0.7,1.5,0.8,2.8,0.3,3.7s-1.8,1.4-3.4,1.4h-75.2c-1.6,0-2.9-0.5-3.4-1.4s-0.4-2.2,0.3-3.7L346,20.6l0,0l0,0l15.8-32.1
										c0.2-0.4,0.5-0.9,0.8-1.3s0.4-0.9,0.4-1.3v-58H381.6L381.6-72.1z"/>
								</defs>
								<clipPath id="SVGID_4_">
									<use xlink:href="#SVGID_3_"  style="overflow:visible;"/>
								</clipPath>
								<rect x="321.1" y="11.2" class="st5" width="102.3" height="9.2"/>
							</g>
						</g>
					</g>
				</g>
			</g>
			<g id="milk_2_bottle">
				<path class="st1" d="M502.1,54.1L502.1,54.1L502.1,54.1c-0.1-0.8-0.3-1.6-0.7-2.4l-9.9-20.1c0-0.1-0.1-0.1-0.1-0.1L480.5,9.4
					c-0.1-0.3-0.3-0.7-0.6-1v-37c0.8-0.1,1.4-0.8,1.4-1.6c0-0.9-0.8-1.7-1.6-1.7h-15.2c-0.6-0.1-1.2-0.3-1.8-0.4v0.6
					c-0.5,0.3-0.8,0.8-0.8,1.5c0,0.6,0.3,1.2,0.8,1.5V8.8c-0.2,0.3-0.4,0.7-0.6,1l-10.8,22.1c0,0.1-0.1,0.1-0.1,0.1l-9.9,19.8h-0.2
					l-0.5,1.5c0,0.1,0,0.1,0,0.1l-0.6,1.9l0.5,0.6c0.1,0.3,0.3,0.7,0.4,1C441,57,441,57,441,57.1c0.1-0.1,0.2-0.2,0.3-0.3l0.4,0.5
					c0,0,2.6,0.7,1.7-0.7c-0.6-0.7-0.1-2.1,0.3-3.4l1-2l0,0l8.9-18l0,0l0,0c0,0,0,0,0-0.1l11-22.1c0.1-0.3,0.3-0.6,0.5-0.8
					c0.3-0.4,0.4-0.8,0.4-1.3v-37.6h11.3V8.5c0,0.5,0.1,0.9,0.4,1.3c0.2,0.3,0.3,0.6,0.5,0.8l10.9,22.1l0,0l0,0l10,20.2
					c0.1,0.3,0.3,0.6,0.3,0.9l-0.3,0.3l-0.3,1.6l-0.8,1.1L487,57.4h-43.9l-1.2,0.6c0,0,0,2.8,2,2.8s40.9,0,40.9,0h12.3
					c0,0,4.4,0.1,4.9-5.7C502.1,54.8,502.1,54.5,502.1,54.1z"/>
				<g>
					<g>
						<path class="st2" d="M476.2-31.2V9c0,0.3,0.1,0.6,0.3,0.9c0.2,0.3,0.4,0.6,0.6,0.9L487.9,33l0,0l0,0l10,20.2
							c0.5,1,0.6,1.9,0.2,2.6c-0.3,0.6-1.2,1-2.4,1h-52c-1.1,0-2-0.3-2.4-1s-0.3-1.5,0.2-2.6l10-20.2l0,0l0,0l10.9-22.2
							c0.1-0.3,0.3-0.6,0.6-0.9c0.2-0.3,0.3-0.6,0.3-0.9v-40.2H476.2L476.2-31.2z M477.8-32.8h-16.3V8.9c-0.3,0.3-0.5,0.8-0.6,1.1
							L450,32.2l0,0l0,0l-10,20.2c-1.6,3.2,0.1,5.8,3.7,5.8h52c3.6,0,5.2-2.6,3.7-5.8l-10-20.2l0,0l0,0l-11-22.1
							c-0.2-0.3-0.4-0.8-0.6-1.1L477.8-32.8L477.8-32.8z"/>
					</g>
				</g>
				<path class="st3" d="M477.8-33.5h-16.3c-0.9,0-1.7,0.8-1.7,1.7c0,0.9,0.8,1.7,1.7,1.7h16.3c0.9,0,1.6-0.8,1.6-1.7
					C479.4-32.8,478.7-33.5,477.8-33.5z"/>
				<path class="st2" d="M467.1,7c-0.8,0-1.4-0.6-1.4-1.4v-31c0-0.8,0.6-1.4,1.4-1.4s1.4,0.6,1.4,1.4v31C468.5,6.4,467.9,7,467.1,7z
					"/>
				<path class="st2" d="M462.9,20.2c-0.2,0-0.4-0.1-0.6-0.1c-0.8-0.3-1.1-1.2-0.8-2l2.6-6c0.3-0.8,1.2-1.1,2-0.8s1.1,1.2,0.8,2
					l-2.6,6C464.1,20,463.5,20.2,462.9,20.2z"/>
			</g>
			<g id="milk_2">
				<g>
					<g>
						<g>
							<g>
								<defs>
									<path id="SVGID_5_" d="M476.2-31.2V9c0,0.3,0.1,0.6,0.3,0.9c0.2,0.3,0.4,0.6,0.6,0.9L487.9,33l0,0l0,0l10,20.2
										c0.5,1,0.6,1.9,0.2,2.6c-0.3,0.6-1.2,1-2.4,1h-52c-1.1,0-2-0.3-2.4-1s-0.3-1.5,0.2-2.6l10-20.2l0,0l0,0l10.9-22.2
										c0.1-0.3,0.3-0.6,0.6-0.9c0.2-0.3,0.3-0.6,0.3-0.9v-40.2H476.2L476.2-31.2z"/>
								</defs>
								<clipPath id="SVGID_6_">
									<use xlink:href="#SVGID_5_"  style="overflow:visible;"/>
								</clipPath>
								<rect x="434.4" y="26.6" class="st6" width="70.7" height="33"/>
							</g>
						</g>
					</g>
				</g>
			</g>
			<g id="slivki_bottle">
			</g>
			<g id="slivki">
				<g>
					<g>
						<g>
							<g>
								<defs>
									<path id="SVGID_7_" d="M285.8-31.2V9c0,0.3,0.1,0.6,0.3,0.9c0.2,0.3,0.4,0.6,0.6,0.9L297.6,33l0,0l0,0l10,20.2
										c0.5,1,0.6,1.9,0.2,2.6c-0.3,0.6-1.2,1-2.4,1h-52c-1.1,0-2-0.3-2.4-1s-0.3-1.5,0.2-2.6l10-20.2l0,0l0,0l10.9-22.2
										c0.1-0.3,0.3-0.6,0.6-0.9c0.2-0.3,0.3-0.6,0.3-0.9v-40.2H285.8L285.8-31.2z"/>
								</defs>
								<clipPath id="SVGID_8_">
									<use xlink:href="#SVGID_7_"  style="overflow:visible;"/>
								</clipPath>
								<rect x="243.9" y="48.9" class="st7" width="70.7" height="7.8"/>
							</g>
						</g>
					</g>
				</g>
			</g>
			<g id="milk_2_mask">
				<path class="st8" d="M476.2-31.2V9c0,0.3,0.1,0.6,0.3,0.9c0.2,0.3,0.4,0.6,0.6,0.9L487.9,33l0,0l0,0l10,20.2
					c0.5,1,0.6,1.9,0.2,2.6c-0.3,0.6-1.2,1-2.4,1h-52c-1.1,0-2-0.3-2.4-1s-0.3-1.5,0.2-2.6l10-20.2l0,0l0,0l10.9-22.2
					c0.1-0.3,0.3-0.6,0.6-0.9c0.2-0.3,0.3-0.6,0.3-0.9v-40.2H476.2L476.2-31.2z"/>
			</g>
			<g id="milk_mask">
				<path class="st8" d="M381.6-72.2v58c0,0.5,0.1,0.9,0.4,1.3s0.6,0.9,0.8,1.3l15.8,32.1l0,0l0,0L413,49.7c0.7,1.5,0.8,2.8,0.3,3.7
					s-1.8,1.4-3.4,1.4h-75.2c-1.6,0-2.9-0.5-3.4-1.4s-0.4-2.2,0.3-3.7L346,20.5l0,0l0,0l15.8-32.1c0.2-0.4,0.5-0.9,0.8-1.3
					s0.4-0.9,0.4-1.3v-58H381.6L381.6-72.2z"/>
			</g>
			<g id="slivki_mask">
				<path class="st8" d="M285.7-31.2V9c0,0.3,0.1,0.6,0.3,0.9c0.2,0.3,0.4,0.6,0.6,0.9L297.5,33l0,0l0,0l10,20.2
					c0.5,1,0.6,1.9,0.2,2.6c-0.3,0.6-1.2,1-2.4,1h-52c-1.1,0-2-0.3-2.4-1c-0.3-0.6-0.3-1.5,0.2-2.6l10-20.2l0,0l0,0L272,10.8
					c0.1-0.3,0.3-0.6,0.6-0.9c0.2-0.3,0.3-0.6,0.3-0.9v-40.2H285.7L285.7-31.2z"/>
			</g>
		</g>
		<g id="Layer_2_1_">
		</g>
		<g id="Layer_3">
		</g>
	</g>
	<g id="Layer_2_2_">
	</g>
	<g id="Layer_3_1_">
	</g>
</g>
<g id="Layer_2_3_">
</g>
<g id="Layer_3_2_">
</g>
</svg>
