<?xml version="1.0" encoding="utf-8"?>
<!-- Generator: Adobe Illustrator 19.0.0, SVG Export Plug-In . SVG Version: 6.00 Build 0)  -->
<svg version="1.1" xmlns="http://www.w3.org/2000/svg" xmlns:xlink="http://www.w3.org/1999/xlink" x="0px" y="0px"
	 viewBox="0 0 372 303.7" style="enable-background:new 0 0 372 303.7;" xml:space="preserve">
<style type="text/css">
	.st0{fill:#519E38;}
	.st1{fill:#FFF33B;}
	.st2{fill:#FFFCDC;}
	.st3{fill:#FCE5B4;}
	.st4{fill:#723322;}
	.st5{fill:#3A1305;}
	.st6{fill:#EACC96;}
	.st7{fill:#D1AF79;}
	.st8{fill:#FFFFFF;}
	.st9{fill:#B93C00;}
	.st10{fill:#896242;}
	.st11{fill:#492A0E;}
	.st12{fill:#724C2F;}
	.st13{fill:#FFDA9F;}
	.st14{fill:none;stroke:#FFDA9F;stroke-miterlimit:10;}
</style>
<g id="Layer_2">
</g>
<g id="kolba_4">
</g>
<g id="kolba_3">
</g>
<g id="kolby">
</g>
<g id="doma">
</g>
<g id="car">
</g>
<g id="butylka_3">
</g>
<g id="butylka_1">
</g>
<g id="vanna_2">
</g>
<g id="sneg">
</g>
<g id="vanna_1">
</g>
<g id="shariki_2">
</g>
<g id="shariki_1">
</g>
<g id="voronka">
</g>
<g id="gradusnik">
</g>
<g id="kolba_2">
</g>
<g id="kolba_1">
</g>
<g id="probirki">
</g>
<g id="lupa">
</g>
<g id="bidon">
</g>
<g id="masloboika">
	<path class="st0" d="M217.5,129.5h-44.7c-5,0-9.1-4.1-9.1-9.1V64.2c0-5,4.1-9.1,9.1-9.1h44.7c5,0,9.1,4.1,9.1,9.1v56.2
		C226.6,125.4,222.5,129.5,217.5,129.5z"/>
	<path class="st1" d="M219.2,260.8l-69.7-21.2c-6.3-1.9-9.9-8.7-8-15l21.2-69.7c1.9-6.3,8.7-9.9,15-8l69.7,21.2
		c6.3,1.9,9.9,8.7,8,15l-21.2,69.7C232.3,259.1,225.5,262.7,219.2,260.8z"/>
	<path class="st2" d="M173.3,198.1L173.3,198.1c-4.2-1.3-6.6-5.8-5.3-10l6.4-20.8c1.3-4.2,5.8-6.6,10-5.3l0,0
		c4.2,1.3,6.6,5.8,5.3,10l-6.4,20.8C182,197,177.5,199.4,173.3,198.1z"/>
	
		<rect x="255.6" y="86.6" transform="matrix(0.9994 3.564792e-02 -3.564792e-02 0.9994 4.6223 -10.0771)" class="st0" width="58.6" height="75.9"/>
	
		<rect x="250.8" y="81.4" transform="matrix(0.9994 3.564742e-02 -3.564742e-02 0.9994 4.4352 -9.9088)" class="st3" width="58.6" height="76"/>
	<g>
		<path class="st4" d="M259.5,145.2c0.9,0.3,1.3,0.9,1.3,1.7c0,0.6-0.2,1.1-0.6,1.4c-0.4,0.3-1,0.4-1.7,0.4l-2.8-0.1l0-0.8l0.8,0
			l0.2-5l-0.8,0l0-0.8l2.6,0.1c1.4,0,2,0.6,2,1.8C260.5,144.4,260.2,144.9,259.5,145.2z M257.6,142.8l-0.1,2l0.7,0
			c0.9,0,1.3-0.3,1.4-0.9c0-0.3-0.1-0.6-0.3-0.8c-0.2-0.2-0.5-0.3-0.9-0.3L257.6,142.8z M257.5,145.5l-0.1,2.3l0.9,0
			c0.5,0,0.8-0.1,1.1-0.3c0.3-0.2,0.4-0.5,0.4-0.8c0-0.4-0.1-0.6-0.4-0.8c-0.3-0.2-0.6-0.3-1.2-0.3L257.5,145.5z"/>
		<path class="st4" d="M261.2,148.7l0-0.8l0.7,0l1.9-4.9l-0.9,0l0-0.8l3.3,0.1l0,0.8l-0.8,0l1.5,5l0.7,0l0,0.8l-2.5-0.1l0-0.8l0.8,0
			l-0.5-1.5l-2.2-0.1l-0.6,1.5l0.7,0l0,0.8L261.2,148.7z M263.8,145.7l1.7,0.1l-0.7-2.5L263.8,145.7z"/>
		<path class="st4" d="M270.1,143.3l-0.1,1.9l2.9,0.1l0.1-1.9l-0.8,0l0-0.8l2.5,0.1l0,0.8l-0.8,0l-0.2,5l0.8,0l0,0.8l-2.5-0.1l0-0.8
			l0.8,0l0.1-2.3l-2.9-0.1l-0.1,2.3l0.8,0l0,0.8l-2.5-0.1l0-0.8l0.8,0l0.2-5l-0.8,0l0-0.8l2.5,0.1l0,0.8L270.1,143.3z"/>
		<path class="st4" d="M276.9,143.5l-0.2,4.4l3-5.1l1.8,0.1l0,0.8l-0.8,0l-0.2,5l0.8,0l0,0.8l-2.5-0.1l0-0.8l0.8,0l0.2-4.3l-3,5
			l-1.8-0.1l0-0.8l0.8,0l0.2-5l-0.8,0l0-0.8l2.5,0.1l0,0.8L276.9,143.5z"/>
		<path class="st4" d="M286.5,143.8l-2.4-0.1l-0.1,2.4c0,1.3-0.2,2.2-0.5,2.7c-0.3,0.6-0.8,0.8-1.4,0.8c-0.2,0-0.4,0-0.6-0.1l0-0.9
			c0.1,0,0.1,0,0.2,0.1c0.1,0,0.2,0,0.3,0c0.3,0,0.5-0.2,0.7-0.5c0.2-0.5,0.3-1.2,0.4-2.3l0.1-2.2l-0.8,0l0-0.8l5.7,0.2l0,0.8
			l-0.8,0l-0.2,5l0.8,0l0,0.8l-2.5-0.1l0-0.8l0.8,0L286.5,143.8z"/>
		<path class="st4" d="M290.5,144l-0.2,4.4l3-5.1l1.8,0.1l0,0.8l-0.8,0l-0.2,5l0.8,0l0,0.8l-2.5-0.1l0-0.8l0.8,0l0.2-4.3l-3,5
			l-1.8-0.1l0-0.8l0.8,0l0.2-5l-0.8,0l0-0.8l2.5,0.1l0,0.8L290.5,144z"/>
		<path class="st4" d="M297.3,144.2l-0.1,1.9l2.9,0.1l0.1-1.9l-0.8,0l0-0.8l2.5,0.1l0,0.8l-0.8,0l-0.2,5l0.8,0l0,0.8l-2.5-0.1l0-0.8
			l0.8,0l0.1-2.3l-2.9-0.1l-0.1,2.3l0.8,0l0,0.8l-2.5-0.1l0-0.8l0.8,0l0.2-5l-0.8,0l0-0.8l2.5,0.1l0,0.8L297.3,144.2z"/>
	</g>
	<g>
		<path class="st5" d="M261,134c0,0-1.7,1-1.4,2c0.3,1,1.7,0.1,2.2-0.8c0.4-0.9,4.3-4,4.9-4.4c0.6-0.4,9.7-10.8,9.7-10.8
			s16.4-19.6,17.2-22.8c0.8-3.2,3.3-6.6,3.3-6.6l-0.9-0.2c0,0-3.8,6.5-7.9,11.5c-4,5.1-21.6,26-24.6,28.9
			C260.4,133.7,261,134,261,134z"/>
		<path class="st5" d="M267.9,135.2c0,0,1.2,1.2-0.8,1.7c-2,0.5-3.1-2.1-1.8-4.3c1.2-2.2,4.1-4.6,5.2-6.2c1.1-1.5,1.3-2.2,2.8-4.6
			c1.5-2.4,6-8.6,6-8.6l12.5-15.1c0,0,3.8-1.5,4.9-3.2c1.1-1.7,2.5-4-0.4-3.2c-2.8,0.8,2.3-2.8,2.9,0c0.6,2.8-4.1,6.1-6.8,8.1
			c-2.7,2-9,11.6-9,11.6l-1.7,3c0,0-6.6,7.3-7.1,8.8c-0.5,1.5-5.5,8.3-8,10.1C264.1,135.2,267.3,135.6,267.9,135.2z"/>
		<path class="st6" d="M277.5,111.5c-0.5-0.5-4.2-3.9-4.2-3.9s-1.7-8.2,0.6-9.7c0,0,3.8-0.5,6.9,5.9l-0.5,8.3l-0.7-0.4
			c0,0-1.3-8.8-4.4-11.8c0,0,5.3,10.3,3.8,12.2L277.5,111.5z"/>
		<path class="st6" d="M285.7,115.8c0,0,8.7-0.6,11.8-4.1c0,0-5.7-6.2-12.8-3.7l-2.6,3.9c0,0,5.9-2.3,13.1-0.6c0,0-9.3-1.7-13.6,2
			L285.7,115.8z"/>
		<path class="st6" d="M265.8,123.2c0,0,0.3-7,5.5-9.7l6.3,0.4l1,0.2c0,0-5.7,1-10.1,6c0,0,6.3-4.8,10.3-5.8l0.6,2.4
			C279.4,116.8,278.4,121,265.8,123.2z"/>
		<path class="st6" d="M277.5,114.2c0,0-11-0.3-13.6-4c0,0,6.2-8,15.7,1.2l-1.3,0.9c0,0-6.6-2.7-10.5-2.4c0,0,8.2,0.9,10.1,3
			L277.5,114.2z"/>
		<path class="st6" d="M279.2,109.6c0,0-2.7-7.1,9.1-10.8c0,0,0.3,0-0.8,4.7c-1.1,4.7-5.9,10.5-5.9,10.5l-0.9-1.5l-0.1-1.3
			c0,0-0.2-6.3,5.7-9.8c0,0-4.9,1.8-6.1,9.5L279.2,109.6z"/>
		<path class="st6" d="M277.7,115.5c0,0-3.5,0.7,1.7,6.6c5.2,5.9,4.6,5.1,4.6,5.1s0.7,3.6,1.7-1.3c1.1-4.8,1.7-11.1-2.9-12.8
			l-2.2,1.5c0,0,4.7,4.1,3.9,10.8c0,0-0.4-8.5-4.3-9.9L277.7,115.5z"/>
		<path d="M278.4,110.9c0,0,0,1.1-0.2,1.4c-0.2,0.3-1.4,1.2-1.4,1.2s2.1,0.9,1.7,2.6c0,0,1.3-1,2.4-0.1c0,0-0.6-1.7,1.7-2.5
			c0,0-2.4-2.2-1.7-2.9C280.9,110.5,279.6,111.6,278.4,110.9z"/>
		<path d="M280.1,117.4c0.1,0.1,0,0.3-0.1,0.4c-0.1,0.1-0.3,0.1-0.4-0.1c-0.1-0.1,0-0.3,0.1-0.4C279.9,117.2,280,117.2,280.1,117.4z
			"/>
		<circle cx="280.7" cy="117.3" r="0.3"/>
		<circle cx="282.3" cy="115.2" r="0.3"/>
		<path class="st7" d="M267.7,109.9c0,0,5.8-3.7,10.6,1l-0.2,1.4C278.2,112.3,271.3,109.8,267.7,109.9z"/>
		<path class="st7" d="M281,110c0,0,0.6-5.9,5.4-8.2c0,0,0.6,6.6-4.3,10.6C282.2,112.4,280.9,112,281,110z"/>
		<path class="st7" d="M283.2,113c0,0,5.4-3.3,13.8-0.9c0,0-8.5,3.9-11.7,3.1C285.3,115.2,285,113.9,283.2,113z"/>
		<path class="st8" d="M279.7,114.4c0,0,0.7,1.3,0.2,3.1c0,0,0.4-2-0.3-2.9C278.9,113.6,279.7,114.4,279.7,114.4z"/>
		<path class="st8" d="M279.9,114.2c0,0,0.9,1.2,0.7,3.1c0,0,0-2-0.9-2.8C278.9,113.6,279.9,114.2,279.9,114.2z"/>
		<path class="st8" d="M280.1,113.6c0,0,1.2,0.1,2.3,1.6c0,0-1.2-1.5-2.2-1.4C279.2,114,280.1,113.6,280.1,113.6z"/>
	</g>
	<path class="st9" d="M213.2,125.7h-44.7c-5,0-9.1-4.1-9.1-9.1V60.4c0-5,4.1-9.1,9.1-9.1h44.7c5,0,9.1,4.1,9.1,9.1v56.2
		C222.2,121.6,218.2,125.7,213.2,125.7z"/>
</g>
<g id="clock">
	<g>
		<path class="st8" d="M178.4,78c-0.3,0.2-1.1,0.4-2.1,0.4c-2.9,0-4.4-1.8-4.4-4.2c0-2.9,2-4.4,4.6-4.4c1,0,1.7,0.2,2.1,0.4
			l-0.4,1.5c-0.4-0.2-0.9-0.3-1.6-0.3c-1.5,0-2.7,0.9-2.7,2.8c0,1.7,1,2.7,2.7,2.7c0.6,0,1.2-0.1,1.6-0.3L178.4,78z"/>
		<path class="st8" d="M181.8,76.1l-0.6,2.1h-2l2.6-8.4h2.5l2.6,8.4h-2l-0.6-2.1H181.8z M183.9,74.7l-0.5-1.8
			c-0.1-0.5-0.3-1.1-0.4-1.6h0c-0.1,0.5-0.2,1.1-0.4,1.6l-0.5,1.8H183.9z"/>
		<path class="st8" d="M192.4,78.3l-0.8-1.5c-0.3-0.6-0.5-1-0.7-1.5h0c-0.2,0.5-0.4,0.9-0.6,1.5l-0.7,1.5h-2.2l2.4-4.2l-2.3-4.1h2.2
			l0.7,1.5c0.2,0.5,0.4,0.9,0.6,1.4h0c0.2-0.5,0.4-0.9,0.6-1.4l0.7-1.5h2.2l-2.4,4.1l2.5,4.3H192.4z"/>
		<path class="st8" d="M197.5,76.1l-0.6,2.1h-2l2.6-8.4h2.5l2.6,8.4h-2l-0.6-2.1H197.5z M199.6,74.7l-0.5-1.8
			c-0.1-0.5-0.3-1.1-0.4-1.6h0c-0.1,0.5-0.2,1.1-0.4,1.6l-0.5,1.8H199.6z"/>
		<path class="st8" d="M203.7,70c0.6-0.1,1.4-0.2,2.6-0.2c1.2,0,2,0.2,2.6,0.7c0.5,0.4,0.9,1.1,0.9,1.9c0,0.8-0.3,1.5-0.8,2
			c-0.6,0.6-1.6,0.9-2.7,0.9c-0.2,0-0.5,0-0.6,0v3h-1.9V70z M205.6,73.8c0.2,0,0.4,0,0.6,0c1,0,1.6-0.5,1.6-1.4
			c0-0.8-0.5-1.2-1.5-1.2c-0.4,0-0.6,0-0.8,0.1V73.8z"/>
	</g>
	
		<rect x="182.6" y="94.8" transform="matrix(0.9579 -0.2871 0.2871 0.9579 -20.5304 57.7675)" class="st8" width="8.1" height="8.1"/>
	<rect x="192.2" y="87" transform="matrix(0.847 0.5317 -0.5317 0.847 78.4024 -90.3819)" class="st8" width="8.1" height="8.1"/>
	
		<rect x="186.9" y="106.2" transform="matrix(0.9983 5.799954e-02 -5.799954e-02 0.9983 6.714 -10.8884)" class="st8" width="8.1" height="8.1"/>
	
		<rect x="72.9" y="126.6" transform="matrix(0.9302 -0.3671 0.3671 0.9302 -49.9631 45.8153)" class="st10" width="45.2" height="55.4"/>
	<polygon class="st11" points="131.2,161.4 126.7,171.8 106.3,120.3 111,110.1 	"/>
	<polygon class="st12" points="106.3,120.2 64.3,136.8 68.9,126.7 111,110.1 	"/>
	<g>
		<path class="st13" d="M80,148.4l0.4-0.2l0.8-2.9l1.2-0.5l-0.9,3.4l3.2,2l-1.2,0.5l-2.6-1.6l-0.5,0.2l0.9,2.2l-1,0.4l-2.1-5.4
			l1-0.4L80,148.4z"/>
		<path class="st13" d="M84.5,144.1l0.9-0.4l4.2,4.6l-1.1,0.4l-1-1.2l-1.9,0.7l0,1.5l-1.1,0.4L84.5,144.1z M87.1,146.9l-1.6-1.8
			l0.1,2.4L87.1,146.9z"/>
		<path class="st13" d="M90.1,144.5l0.4-0.2l0.8-2.9l1.2-0.5l-0.9,3.4l3.2,2l-1.2,0.5l-2.6-1.6l-0.5,0.2l0.9,2.2l-1,0.4l-2.1-5.4
			l1-0.4L90.1,144.5z"/>
		<path class="st13" d="M94.6,140.1l0.9-0.4l4.2,4.6l-1.1,0.4l-1-1.2l-1.9,0.7l0,1.5l-1.1,0.4L94.6,140.1z M97.2,142.9l-1.6-1.8
			l0.1,2.4L97.2,142.9z"/>
		<path class="st13" d="M102.5,143.3c-0.4,0.2-0.8,0.2-1.2,0.2c-0.4,0-0.7-0.1-1.1-0.3c-0.3-0.2-0.6-0.4-0.9-0.7
			c-0.3-0.3-0.5-0.6-0.6-0.9c-0.1-0.4-0.2-0.7-0.2-1.1c0-0.4,0.1-0.7,0.2-1.1c0.1-0.3,0.3-0.7,0.6-0.9c0.3-0.3,0.6-0.5,1-0.6
			c0.4-0.2,0.8-0.2,1.2-0.2c0.4,0,0.7,0.1,1.1,0.3s0.6,0.4,0.9,0.7c0.3,0.3,0.5,0.6,0.6,0.9c0.1,0.4,0.2,0.7,0.2,1.1
			c0,0.4-0.1,0.7-0.2,1.1c-0.1,0.3-0.3,0.7-0.6,0.9C103.2,142.9,102.9,143.1,102.5,143.3z M99.8,141.2c0.1,0.2,0.2,0.4,0.4,0.6
			c0.2,0.2,0.3,0.3,0.5,0.5c0.2,0.1,0.4,0.2,0.7,0.2c0.2,0,0.5,0,0.7-0.1c0.3-0.1,0.5-0.2,0.6-0.4c0.2-0.2,0.3-0.4,0.3-0.6
			c0.1-0.2,0.1-0.5,0.1-0.7c0-0.2-0.1-0.5-0.2-0.7c-0.1-0.2-0.2-0.4-0.4-0.6c-0.2-0.2-0.3-0.3-0.5-0.5c-0.2-0.1-0.4-0.2-0.7-0.2
			c-0.2,0-0.5,0-0.7,0.1c-0.3,0.1-0.5,0.2-0.6,0.4c-0.2,0.2-0.3,0.4-0.3,0.6c-0.1,0.2-0.1,0.5-0.1,0.7
			C99.7,140.7,99.8,140.9,99.8,141.2z"/>
	</g>
	
		<rect x="73.9" y="138.2" transform="matrix(0.9302 -0.3671 0.3671 0.9302 -46.7509 43.644)" class="st14" width="35" height="13.1"/>
</g>
</svg>
