<?xml version="1.0" encoding="utf-8"?>
<!-- Generator: Adobe Illustrator 19.0.0, SVG Export Plug-In . SVG Version: 6.00 Build 0)  -->
<svg version="1.1" xmlns="http://www.w3.org/2000/svg" xmlns:xlink="http://www.w3.org/1999/xlink" x="0px" y="0px"
	 viewBox="0 0 316.5 235.5" style="enable-background:new 0 0 316.5 235.5;" xml:space="preserve">
<style type="text/css">
	.st0{fill:#519E38;}
	.st1{fill:#663D2F;}
	.st2{fill:#EFEFEF;}
	.st3{fill:#DDDDDD;}
	.st4{fill:#FFFFFF;}
	.st5{fill:#B5978F;}
</style>
<g id="Layer_2">
</g>
<g id="kolba_4">
</g>
<g id="kolba_3">
</g>
<g id="kolby">
</g>
<g id="doma">
</g>
<g id="car">
</g>
<g id="butylka_3">
</g>
<g id="butylka_1">
</g>
<g id="vanna_2">
</g>
<g id="sneg">
</g>
<g id="vanna_1">
</g>
<g id="shariki_2">
</g>
<g id="shariki_1">
</g>
<g id="voronka">
</g>
<g id="gradusnik">
</g>
<g id="kolba_2">
</g>
<g id="kolba_1">
</g>
<g id="probirki">
</g>
<g id="lupa">
</g>
<g id="bidon">
</g>
<g id="masloboika">
	<path class="st0" d="M266.7,115.5h-22.2C239,88.8,206,68.3,166.1,68.3c-39.9,0-72.9,20.5-78.4,47.2H65.5c-2.1,0-3.9,1.7-3.9,3.9
		c0,2.1,1.7,3.9,3.9,3.9h1.1c14.4,41,53.5,70.5,99.5,70.5s85.1-29.4,99.5-70.5h1.2c2.1,0,3.9-1.7,3.9-3.9
		C270.6,117.2,268.8,115.5,266.7,115.5z"/>
	<ellipse class="st1" cx="156.9" cy="117.4" rx="79.2" ry="55"/>
	<path class="st2" d="M57.3,117.4c14.4,41,53.5,70.5,99.5,70.5s85.1-29.4,99.5-70.5H57.3z"/>
	<path class="st3" d="M257.5,117.4H56.3c-2.1,0-3.9-1.7-3.9-3.9v0c0-2.1,1.7-3.9,3.9-3.9h201.2c2.1,0,3.9,1.7,3.9,3.9v0
		C261.4,115.6,259.6,117.4,257.5,117.4z"/>
	<path class="st4" d="M93.2,151.9c-0.9,0-1.8-0.2-2.7-0.7c-12.1-7.1-17.8-20.2-18-20.7c-1.2-2.7,0.1-5.9,2.8-7
		c2.7-1.2,5.9,0.1,7,2.8c0.1,0.1,4.6,10.4,13.6,15.7c2.6,1.5,3.4,4.8,1.9,7.3C96.9,150.9,95.1,151.9,93.2,151.9z"/>
	<path class="st1" d="M130.4,65.2c0,0,33.3-6.7,30.3-26c0,0,9.7,5,12.3,14.3s21.7,16,21.7,16s13,21,10,22.3
		c-3,1.3-79.7,10.3-79.7,10.3s-7.3-7.3-5.7-9.3C121.1,90.8,130.4,65.2,130.4,65.2z"/>
	<path class="st5" d="M105,100.3c-1,0-2-0.3-2.8-0.9c-2.3-1.6-2.8-4.7-1.3-7c7-10.2,19.8-16.3,20.4-16.6c2.5-1.2,5.5-0.1,6.7,2.4
		c1.2,2.5,0.1,5.5-2.4,6.7l0,0c-0.1,0.1-11,5.3-16.5,13.2C108.1,99.6,106.6,100.3,105,100.3z"/>
</g>
</svg>
