<?xml version="1.0" encoding="utf-8"?>
<!-- Generator: Adobe Illustrator 19.0.0, SVG Export Plug-In . SVG Version: 6.00 Build 0)  -->
<svg version="1.1" xmlns="http://www.w3.org/2000/svg" xmlns:xlink="http://www.w3.org/1999/xlink" x="0px" y="0px"
	 viewBox="0 0 331.5 231" style="enable-background:new 0 0 331.5 231;" xml:space="preserve">
<style type="text/css">
	.st0{fill:#D6D6D6;}
	.st1{fill:#E2E2E2;}
	.st2{fill:#303030;}
	.st3{fill:#969696;}
	.st4{fill:#62BA47;}
	.st5{fill:#FFFFFF;}
</style>
<g id="kolba_4">
</g>
<g id="kolba_3">
</g>
<g id="kolby">
</g>
<g id="doma">
</g>
<g id="car">
</g>
<g id="butylka_3">
</g>
<g id="butylka_1">
</g>
<g id="vanna_2">
</g>
<g id="sneg">
</g>
<g id="vanna_1">
</g>
<g id="shariki_2">
</g>
<g id="shariki_1">
</g>
<g id="voronka">
</g>
<g id="gradusnik">
</g>
<g id="kolba_2">
</g>
<g id="probirki">
</g>
<g id="lupa">
</g>
<g id="masloboika">
	<path class="st0" d="M250.7,108.6c0,14.3-11.6,26-26,26H109.2c-14.4,0-26-11.6-26-26V55.4c0-14.3,11.6-26,26-26h115.5
		c14.4,0,26,11.6,26,26V108.6z"/>
	<rect x="66.6" y="32.9" class="st1" width="8.1" height="163.2"/>
	<rect x="258.7" y="32.9" class="st1" width="10.4" height="163.2"/>
	<rect x="74.7" y="79.8" class="st2" width="8.6" height="6.4"/>
	<rect x="250.2" y="79.8" class="st2" width="8.6" height="6.4"/>
	<rect x="136.2" y="21.5" class="st3" width="59.9" height="7.9"/>
	<path class="st1" d="M115.9,47.6c0,2.8-2.3,5.1-5.1,5.1H103c-2.8,0-5.1-2.3-5.1-5.1l0,0c0-2.8,2.3-5.1,5.1-5.1h7.8
		C113.7,42.5,115.9,44.7,115.9,47.6L115.9,47.6z"/>
	<g>
		<path class="st4" d="M192.4,82c0,14.3-11.6,25.9-25.9,25.9c-14.3,0-25.9-11.6-25.9-25.9c0-14.3,11.6-25.9,25.9-25.9
			C180.8,56.1,192.4,67.7,192.4,82z"/>
		<g>
			<path class="st5" d="M160.1,78.4c-2.1,0.2-2.7,2.8-2.8,4.6l0,0v0c0,0.3,0,0.5,0,0.8c0,0.8,0,1.5-0.1,2.3c0,0.3-0.1,1-0.2,1
				c-0.8,0.1-1.4-1.1-1.6-1.6c-0.5-1.3-0.9-2.7-1.1-4.1c-0.3-1.5-0.4-3.1-0.5-4.6c0-0.6-0.1-1.3,0-1.9c0-0.3,0-0.5,0-0.8
				c0-0.2,0-0.4,0-0.4c0.2-1.1-1.4-0.1-1.7,0.5c-1.7,3-1.2,6.6-1.1,9.9c0,0.9,0,1.8-0.2,2.7c-0.1,0.6-0.2,1.7-0.7,2.2
				c-0.3,0.3-0.9,0.1-1.2-0.1c-0.4-0.2-0.7-0.7-0.7-1.2c-0.1-0.5-0.6-0.2-0.9,0.1c-0.4,0.4-0.8,1-0.7,1.5c0.2,1.2,1.3,2.2,2.5,1.8
				c1.9-0.6,2.8-2.9,3.2-4.7c0.2-0.9,0.3-1.8,0.4-2.6c0.3,1.3,0.7,2.5,1.2,3.7c0.4,0.9,1.2,1.8,2.3,1.5c0.8-0.2,1.4-1,1.8-2
				c0.4,0.9,1,1.5,1.9,1.4c1.1-0.1,2-1.3,2.4-2.1c0.5-1,0.6-2.2,0.6-3.3C162.7,81.3,162.3,78.1,160.1,78.4z M160.7,85.8
				c0,0.2-0.1,0.4-0.2,0.6c-0.4-0.1-0.7-0.7-0.9-1c-0.3-0.7-0.5-1.5-0.6-2.3c-0.1-0.8-0.1-1.6,0.1-2.4c0-0.2,0.1-0.4,0.2-0.6
				c1.1,0.7,1.3,2,1.4,3.2C160.9,84.2,160.9,85,160.7,85.8z"/>
			<path class="st5" d="M185.8,81.4c-2.3-0.9-3.6,2.3-4.1,4c-0.4,1.6-0.9,4.5,1.1,5.3c1,0.4,2.1-0.3,2.7-1c0.7-0.8,1.1-1.8,1.4-2.9
				C187.5,85.2,187.9,82.2,185.8,81.4z M184.4,88.8c-0.1,0.2-0.2,0.4-0.3,0.5c-0.4-0.2-0.5-1-0.5-1.3c-0.1-0.8,0-1.6,0.1-2.4
				c0.2-0.8,0.4-1.6,0.7-2.3c0.1-0.2,0.2-0.4,0.3-0.5c0.9,1,0.6,2.5,0.4,3.7C185,87.3,184.8,88.1,184.4,88.8z"/>
			<path class="st5" d="M179.5,81.8c0.4-0.6,0.8-1.2,1.2-1.8c0.9-1.3,1.7-2.8,1.6-4.4c-0.1-1.5-2.1-1.6-3.1-1.1
				c-1.5,0.7-2.3,2.3-2.8,3.8c-0.6,2-0.9,4-1,6.1v0c-0.7,0.9-2.2,2.7-3.4,1.9c-0.3-0.2-0.4-0.6-0.6-0.9c1-1,1.8-2,2.6-3.2
				c0.7-1,1.1-2.8-0.1-3.6c-1.1-0.6-2.6,0.1-3.3,1c-0.7,0.9-1.1,2.1-1.2,3.3c-0.1,0.6-0.1,1.7,0,2.7c-0.7,0.4-1.5,0.7-2.3,0.5
				c-0.9-0.2-1.2-1.1-1.4-1.8c-0.2-1.1-0.2-2.2,0-3.3c0.1-0.3,0.1-0.7,0.3-1c0-0.1,0.1-0.2,0.1-0.2c0.6,0.2,0.8,1.1,0.9,1.5
				c0.2,0.8,2.2-0.5,2-1.2c-0.2-0.8-0.5-1.5-1.4-1.9c-0.8-0.4-1.9,0.3-2.4,0.8c-1.4,1.4-1.6,3.5-1.5,5.3c0.1,1.2,0.3,2.7,1.4,3.3
				c1.4,0.9,3.3,0.1,4.7-0.7c0.4,0.9,1,1.5,2.1,1.3c1.4-0.2,2.6-1,3.7-1.9c0.1,1,0.3,2.2,1,2.7c1.2,0.7,2.7-0.1,3.5-1.1
				c1.1-1.3,1.6-3.2,1-4.9C180.9,82.1,180.2,81.8,179.5,81.8z M171.7,80.9c0.1-0.3,0.2-0.6,0.4-0.8c0,0,0,0,0,0
				c0.6,0.1,0.6,0.9,0.6,1.3c-0.1,0.9-0.7,1.7-1.3,2.5c0-0.2,0-0.3,0-0.4C171.3,82.6,171.4,81.7,171.7,80.9z M179.2,76.6
				c0.2-0.3,0.3-0.6,0.6-0.9c0,0,0,0,0,0c0.9,1,0.1,2.4-0.4,3.3c-0.5,0.9-1,1.8-1.7,2.7c0.1-0.9,0.3-1.8,0.5-2.6
				C178.5,78.3,178.8,77.5,179.2,76.6z M178.7,87.3c0,0.1-0.2,0.3-0.2,0.4c-0.1,0-0.1,0-0.2,0c-0.6-0.3-0.6-1.5-0.7-2
				c0-0.4-0.1-0.9-0.1-1.3c0.2-0.3,0.5-0.6,0.7-0.8c0.5-0.3,0.9,0.3,1,0.8C179.5,85.2,179.1,86.4,178.7,87.3z"/>
		</g>
	</g>
</g>
<g id="clock">
</g>
</svg>
