<?xml version="1.0" encoding="utf-8"?>
<!-- Generator: Adobe Illustrator 19.0.0, SVG Export Plug-In . SVG Version: 6.00 Build 0)  -->
<svg version="1.1" xmlns="http://www.w3.org/2000/svg" xmlns:xlink="http://www.w3.org/1999/xlink" x="0px" y="0px"
	 viewBox="0 0 259.7 166.5" style="enable-background:new 0 0 259.7 166.5;" xml:space="preserve">
<style type="text/css">
	.st0{fill:#EFEFEF;}
	.st1{fill:#DDDDDD;}
	.st2{fill:#FFFFFF;}
	.st3{fill:#FCFCFC;}
	.st4{fill:#6B2A12;}
	.st5{fill-rule:evenodd;clip-rule:evenodd;fill:#6B2A12;}
	.st6{fill-rule:evenodd;clip-rule:evenodd;fill:#62BA47;}
	.st7{fill:#62BA47;}
	.st8{fill:#62BA46;}
</style>
<g id="Layer_2">
</g>
<g id="kolba_4">
</g>
<g id="kolba_3">
</g>
<g id="kolby">
</g>
<g id="doma">
</g>
<g id="car">
</g>
<g id="butylka_3">
</g>
<g id="butylka_2">
	<g>
		<path class="st0" d="M208.5,81.8h-22.5h-9.2H92.7h-9.1H60.9l9.7,36l0,0c0.9,3.6,6.3,6.3,12.9,6.3h102.4c7,0,12.7-3.1,13-7
			L208.5,81.8z"/>
		<path class="st1" d="M185.9,81.8h-9.2h-42v42.3h51.2c7,0,12.7-3.1,13-7l9.5-35.2H185.9z"/>
		<path class="st2" d="M80.2,103.1c0.6,2-0.5,4.1-2.5,4.7l0,0c-2,0.6-4.1-0.5-4.7-2.5l-3-9.6c-0.6-2,0.5-4.1,2.5-4.7l0,0
			c2-0.6,4.1,0.5,4.7,2.5L80.2,103.1z"/>
		<path class="st2" d="M70.2,56.3"/>
		<g>
			<polygon class="st0" points="208.4,76.7 59.9,76.7 72.8,53.5 194.6,53.5 			"/>
			<path class="st3" d="M194.6,53.5l13.8,23.2H59.9l12.9-23.2H194.6 M194.6,46.9H72.8c-2.4,0-4.6,1.3-5.7,3.4L54.2,73.5
				c-1.1,2-1.1,4.5,0.1,6.5c1.2,2,3.3,3.2,5.6,3.2h148.5c2.4,0,4.5-1.3,5.7-3.3c1.2-2,1.1-4.6-0.1-6.6l-13.8-23.2
				C199.1,48.1,196.9,46.9,194.6,46.9L194.6,46.9z"/>
		</g>
	</g>
	<g>
		<ellipse class="st4" cx="135.3" cy="66.4" rx="18.2" ry="8.7"/>
		<path class="st5" d="M126.7,55.8c0,0.6-1,1.1-2.3,1.1c-1.3,0-2.3-0.5-2.3-1.1c0-0.6,1-1.1,2.3-1.1
			C125.6,54.7,126.7,55.2,126.7,55.8L126.7,55.8z"/>
		<path class="st6" d="M126.7,59.5c0,0.8-1.3,1.4-3,1.4c-1.6,0-3-0.6-3-1.4c0-0.8,1.3-1.4,3-1.4C125.4,58.1,126.7,58.8,126.7,59.5
			L126.7,59.5z"/>
		<path class="st6" d="M118.8,57.3c0,0.5-0.8,0.8-1.8,0.8c-1,0-1.8-0.4-1.8-0.8c0-0.5,0.8-0.8,1.8-0.8
			C118,56.5,118.8,56.9,118.8,57.3L118.8,57.3z"/>
		<g>
			<ellipse class="st7" cx="150.8" cy="58.5" rx="10" ry="4.8"/>
			<g>
				<path class="st2" d="M148.3,57.8c-0.8,0-1.1,0.5-1.1,0.8l0,0v0c0,0,0,0.1,0,0.1c0,0.2,0,0.3-0.1,0.4c0,0.1-0.1,0.2-0.1,0.2
					c-0.3,0-0.5-0.2-0.6-0.3c-0.2-0.2-0.3-0.5-0.4-0.8c-0.1-0.3-0.2-0.6-0.2-0.8c0-0.1,0-0.2,0-0.3c0,0,0-0.1,0-0.1c0,0,0-0.1,0-0.1
					c0.1-0.2-0.5,0-0.7,0.1c-0.7,0.6-0.5,1.2-0.4,1.8c0,0.2,0,0.3-0.1,0.5c0,0.1-0.1,0.3-0.3,0.4c-0.1,0.1-0.3,0-0.4,0
					c-0.2,0-0.3-0.1-0.3-0.2c0-0.1-0.2,0-0.3,0c-0.1,0.1-0.3,0.2-0.3,0.3c0.1,0.2,0.5,0.4,1,0.3c0.7-0.1,1.1-0.5,1.2-0.9
					c0.1-0.2,0.1-0.3,0.2-0.5c0.1,0.2,0.3,0.5,0.5,0.7c0.2,0.2,0.5,0.3,0.9,0.3c0.3,0,0.5-0.2,0.7-0.4c0.1,0.2,0.4,0.3,0.7,0.3
					c0.4,0,0.8-0.2,0.9-0.4c0.2-0.2,0.2-0.4,0.2-0.6C149.3,58.4,149.2,57.8,148.3,57.8z M148.6,59.2c0,0,0,0.1-0.1,0.1
					c-0.2,0-0.3-0.1-0.3-0.2c-0.1-0.1-0.2-0.3-0.2-0.4c0-0.1,0-0.3,0-0.5c0,0,0-0.1,0.1-0.1c0.4,0.1,0.5,0.4,0.5,0.6
					C148.6,58.9,148.6,59.1,148.6,59.2z"/>
				<path class="st2" d="M158.3,58.4c-0.9-0.2-1.4,0.4-1.6,0.7c-0.2,0.3-0.3,0.8,0.4,1c0.4,0.1,0.8-0.1,1-0.2
					c0.3-0.1,0.4-0.3,0.6-0.5C158.9,59.1,159.1,58.5,158.3,58.4z M157.7,59.8c0,0-0.1,0.1-0.1,0.1c-0.1,0-0.2-0.2-0.2-0.2
					c0-0.2,0-0.3,0-0.4c0.1-0.1,0.1-0.3,0.3-0.4c0,0,0.1-0.1,0.1-0.1c0.3,0.2,0.3,0.5,0.2,0.7C157.9,59.5,157.9,59.6,157.7,59.8z"/>
				<path class="st2" d="M155.8,58.5c0.2-0.1,0.3-0.2,0.5-0.3c0.3-0.2,0.7-0.5,0.6-0.8c0-0.3-0.8-0.3-1.2-0.2
					c-0.6,0.1-0.9,0.4-1.1,0.7c-0.2,0.4-0.3,0.7-0.4,1.1c0,0,0,0,0,0c-0.3,0.2-0.9,0.5-1.3,0.3c-0.1,0-0.2-0.1-0.2-0.2
					c0.4-0.2,0.7-0.4,1-0.6c0.3-0.2,0.4-0.5-0.1-0.7c-0.4-0.1-1,0-1.3,0.2c-0.3,0.2-0.4,0.4-0.5,0.6c0,0.1-0.1,0.3,0,0.5
					c-0.3,0.1-0.6,0.1-0.9,0.1c-0.3,0-0.5-0.2-0.5-0.3c-0.1-0.2-0.1-0.4,0-0.6c0-0.1,0.1-0.1,0.1-0.2c0,0,0,0,0,0
					c0.2,0,0.3,0.2,0.3,0.3c0.1,0.1,0.9-0.1,0.8-0.2c-0.1-0.1-0.2-0.3-0.5-0.4c-0.3-0.1-0.7,0.1-0.9,0.1c-0.5,0.3-0.6,0.6-0.6,1
					c0,0.2,0.1,0.5,0.5,0.6c0.5,0.2,1.3,0,1.8-0.1c0.1,0.2,0.4,0.3,0.8,0.2c0.5,0,1-0.2,1.4-0.4c0,0.2,0.1,0.4,0.4,0.5
					c0.5,0.1,1.1,0,1.4-0.2c0.4-0.2,0.6-0.6,0.4-0.9C156.3,58.5,156.1,58.5,155.8,58.5z M152.8,58.3c0-0.1,0.1-0.1,0.1-0.2
					c0,0,0,0,0,0c0.2,0,0.3,0.2,0.2,0.2c0,0.2-0.3,0.3-0.5,0.5c0,0,0-0.1,0-0.1C152.7,58.6,152.7,58.4,152.8,58.3z M155.7,57.5
					c0.1-0.1,0.1-0.1,0.2-0.2c0,0,0,0,0,0c0.3,0.2,0,0.4-0.2,0.6c-0.2,0.2-0.4,0.3-0.6,0.5c0-0.2,0.1-0.3,0.2-0.5
					C155.4,57.8,155.5,57.7,155.7,57.5z M155.5,59.5C155.5,59.5,155.4,59.5,155.5,59.5c-0.1,0.1-0.1,0.1-0.2,0.1
					c-0.2-0.1-0.2-0.3-0.3-0.4c0-0.1,0-0.2,0-0.2c0.1,0,0.2-0.1,0.3-0.2c0.2-0.1,0.3,0.1,0.4,0.2C155.8,59.1,155.7,59.3,155.5,59.5z
					"/>
			</g>
		</g>
		<path class="st2" d="M148.7,66.2c0,0-0.2,0-0.3,0c-1.7-0.1-2.5,0.7-2.8,1.4c0,0,0,0,0,0c-0.3,0.5-0.9,0.9-1,1
			c-0.1,0.1-0.2,0-0.2,0c-0.1,0-0.2-0.1-0.2-0.2c-0.1-0.2-0.1-0.5-0.2-0.7c0-0.6,0.1-1.3,0.3-1.9c0-0.1-0.2-0.2-0.4-0.2
			c-0.4,0-0.8,0.1-1,0.3c-0.6,0.5-1,1-1.2,1.5c-0.1,0.3-0.2,0.6-0.4,0.8c0,0,0,0-0.1,0c-0.2-0.1-0.3-0.2-0.3-0.2c0,0,0-0.1-0.1-0.1
			c-0.1,0-0.1,0-0.2,0c-0.2,0-0.5,0.1-0.7,0.1c-0.1,0-0.2,0.1-0.2,0.1c-0.1,0-0.1,0.1-0.4,0.1c-0.3,0-0.5-0.1-0.6-0.3
			c-0.3-0.2-0.3-0.6-0.3-0.8c0-0.4,0.1-0.7,0.4-1.1c0,0,0-0.1,0.1-0.1c0,0,0,0,0.1,0c0.3,0.1,0.4,0.3,0.5,0.5
			c0.1,0.3,1.6-0.1,1.5-0.4c-0.1-0.2-0.3-0.5-0.8-0.7c-0.6-0.2-1.2,0-1.7,0.1c-1.1,0.4-1.4,1.1-1.4,1.7c0,0,0,0.1,0,0.1
			c-0.1,0.2-0.3,0.5-0.6,0.7c-0.1,0-0.1,0.1-0.4,0.1c-0.1,0-0.2-0.1-0.2-0.2c-0.2-0.3-0.3-0.7-0.3-1.1c0-0.3,0-0.5,0.1-0.8
			c0-0.1,0-0.2,0-0.3c0,0,0,0,0,0c0-0.4-0.7-0.6-1.6-0.5c-0.9,0.1-1.5,0.4-1.9,0.7c-0.4,0.3-0.6,0.7-0.7,1.1c-0.1,0.3,0,1.1-0.4,1.1
			c-0.6,0-0.9-0.4-1-0.6c-0.3-0.4-0.5-0.9-0.5-1.3c-0.1-0.8-0.2-1.5,0-2.3c0-0.1-0.3-0.1-0.5-0.1c-0.4,0.1-0.7,0.2-0.8,0.4
			c-0.5,0.5-0.7,1.2-0.8,1.8c0,0,0,0,0,0c0-0.1,0-0.1,0-0.2c-0.1-0.5-0.3-1-0.3-1.4c0-0.3-0.1-0.7,0-0.9c0.2-0.4-1,0-1.2,0.1
			c-1.3,1.1-0.9,2.3-0.9,3.5c0,0.3,0,0.6-0.2,0.9c-0.1,0.2-0.2,0.6-0.5,0.7c-0.2,0.1-0.6,0-0.8-0.1c-0.3-0.1-0.5-0.3-0.5-0.4
			c0-0.2-0.4-0.1-0.6,0c-0.3,0.1-0.6,0.3-0.5,0.5c0.1,0.4,0.8,0.8,1.7,0.7c1.5-0.2,2.1-1,2.4-1.6c0.2-0.4,0.3-0.8,0.3-1.2
			c0.2,0.7,0.5,1.4,0.7,2.1c0.1,0.4,1.2-0.2,1.2-0.4c0-0.5,0.1-1,0.2-1.5c0.2,0.6,0.8,1.9,2.3,1.9c0.5,0,1-0.3,1.3-0.5
			c0.1,0.2,0.4,0.3,0.7,0.4c0.6,0.1,1.4-0.1,1.9-0.3c0,0,0,0,0,0c0.1,0.1,0.2,0.2,0.4,0.3c0.9,0.3,1.8-0.1,2.3-0.4
			c0.1,0.1,0.2,0.3,0.4,0.4c0.6,0.3,1.4,0.2,2.1,0c0.7,0.5,2.1,0.2,2.7-0.2c0.1-0.1,0.1-0.1,0.2-0.2c0,0.1,0,0.1,0,0.2
			c0,0.2,0.1,0.5,0.4,0.6c0.3,0.2,1,0.1,1.3,0c0.3-0.1,0.7-0.3,1-0.5c0,0.4,0.3,0.8,1.1,1c0.7,0.1,1.5-0.2,1.9-0.4
			c0.5-0.3,0.8-0.7,1-1C149.7,67.5,150,66.6,148.7,66.2z M133.7,67.7c0,0-0.1,0.1-0.1,0.1c0,0-0.1,0-0.2,0c-0.3,0-0.4-0.3-0.5-0.4
			c-0.3-0.4-0.3-0.9,0-1.4c0.1-0.1,0.3-0.4,0.4-0.4c0,0,0.1,0,0.1,0c0.1,0,0.2,0,0.2,0c0.4,0,0.5,0.1,0.5,0.3
			C134.1,66.5,134,67.1,133.7,67.7z M147.3,68.6c-0.1,0.1-0.1,0.1-0.2,0.2c-0.3-0.1-0.4-0.3-0.4-0.4c-0.1-0.3,0-0.6,0-0.8
			c0.1-0.3,0.3-0.6,0.5-0.8c0.1-0.1,0.1-0.1,0.2-0.2c0.6,0.2,0.4,1,0.3,1.3C147.7,68.1,147.6,68.4,147.3,68.6z"/>
		<g>
			<g>
				<path class="st2" d="M131,71.7c-0.1,0.4-0.4,0.7-0.7,1.1c-0.1,0.1,0.5,0,0.6,0c0.1-0.2,0.3-0.3,0.5-0.5c0.1-0.1,0.3-0.3,0.6-0.2
					c0.2,0,0.3-0.1,0.5-0.1c-0.7-0.3-1.4,0.2-1.7,0.4c-0.1,0.1,0.1,0.1,0.2,0.1c0.5,0,0.2,0.3,0.3,0.4c0.1,0.2,0.7,0.1,0.9,0
					c0.3-0.1,0.1-0.2-0.2-0.1c-0.2,0.1-0.2-0.1-0.2-0.2c0-0.1,0-0.1,0-0.2c-0.1-0.1-0.4-0.1-0.7-0.1c0.1,0,0.1,0,0.2,0.1
					c0.1-0.1,0.3-0.4,0.6-0.3c0.2,0.1,0.6-0.1,0.5-0.1c-0.9-0.5-1.9,0.6-2.2,0.8c0.2,0,0.4,0,0.6,0c0.3-0.4,0.6-0.7,0.6-1.1
					C131.5,71.6,131,71.7,131,71.7L131,71.7z"/>
				<path class="st2" d="M133.6,73c0,0.2,0.7,0.2,1,0.1c0.2-0.1,0.2-0.2,0.3-0.4c0.1-0.2,0.1-0.4,0.3-0.6c-0.1,0-0.3,0.1-0.4,0.1
					c0,0.3-0.1,0.7,0.3,1c0.3,0.2,1-0.2,1.2-0.2c0.2-0.2-0.2-0.1-0.3,0c-0.3,0.2-0.4,0.1-0.5-0.1c-0.1-0.2-0.1-0.5-0.1-0.7
					c0-0.1-0.4,0-0.4,0.1c-0.1,0.1-0.2,0.3-0.3,0.4c0,0.1-0.1,0.2-0.1,0.2c0,0,0,0.1-0.1,0.1c0,0.1-0.2,0-0.2,0
					C134.2,72.8,133.6,73,133.6,73L133.6,73z"/>
				<path class="st2" d="M137,72.2c-0.1-0.3-0.8-0.1-1,0.1c-0.3,0.2-0.3,0.5-0.2,0.7c0.1,0.2,0.6,0.3,1,0.1
					C137.3,72.8,137.1,72.5,137,72.2c-0.1,0-0.3,0.1-0.4,0.1c0,0.2,0,1.2,1,0.8c0.2-0.1,0.2-0.3-0.1-0.1c-0.1,0-0.3-0.2-0.3-0.2
					C137.1,72.5,137.1,72.4,137,72.2c0-0.1-0.4,0.1-0.4,0.1c0,0.2,0,0.3,0,0.5c0,0.1,0,0.2-0.1,0.2c-0.1,0-0.2-0.1-0.2-0.1
					c-0.1-0.1-0.1-0.2-0.1-0.4c0-0.1,0-0.1,0.1-0.2c0,0,0-0.1,0.1-0.1c0.1-0.1,0.3,0,0.3,0.1C136.7,72.4,137.1,72.3,137,72.2
					L137,72.2z"/>
				<path class="st2" d="M139,72c0.2,0.3,0.5,0.6,0.7,0.9c0.1,0.1,0.5-0.1,0.4-0.2c-0.1-0.2-0.1-0.3,0.1-0.5
					c0.2-0.2,0.2-0.4,0.1-0.6c-0.1-0.2-0.3,0.1-0.3,0.1c0,0.3,0.2,0.5,0.5,0.8c0.1,0.1,0.2,0.2,0.3,0.2c0.3,0,0.5-0.2,0.6-0.3
					c0.2-0.2-0.1-0.2-0.3,0c-0.1,0.1-0.5-0.2-0.5-0.3c-0.2-0.2-0.3-0.3-0.3-0.5c-0.1,0-0.2,0.1-0.3,0.1c0.1,0.2,0,0.4-0.2,0.5
					c-0.2,0.2-0.2,0.4-0.1,0.6c0.1-0.1,0.3-0.1,0.4-0.2c-0.2-0.3-0.5-0.6-0.7-0.9C139.3,71.7,138.9,71.9,139,72L139,72z"/>
				<path class="st2" d="M141.1,71.3c-0.5,0.2-0.4,0.5-0.2,0.7c0.1,0.2,0.5,0.6,1.1,0.5c0.6-0.1,0.5-0.5,0.3-0.7
					C142.1,71.6,141.6,71.2,141.1,71.3c-0.1,0-0.2,0.3-0.1,0.3c0.3-0.1,0.5,0.1,0.7,0.2c0.1,0.1,0.2,0.2,0.3,0.2c0,0,0,0.1,0.1,0.1
					c0,0,0,0.1,0,0.1c-0.2,0.1-0.6-0.1-0.7-0.2c-0.1-0.1-0.2-0.2-0.2-0.2c0,0-0.1-0.1-0.1-0.1c0,0,0-0.1,0,0
					C141.3,71.5,141.3,71.3,141.1,71.3z"/>
				<path class="st2" d="M133.4,72c-0.6,0-0.9,0.3-1,0.5c-0.1,0.2-0.3,0.6,0.3,0.7c0.7,0.1,1-0.3,1.1-0.5
					C133.9,72.5,134,72.1,133.4,72c-0.1,0-0.5,0.2-0.4,0.2c0.3,0,0.3,0.2,0.3,0.3c0,0.1,0,0.2-0.1,0.3c0,0,0,0.1-0.1,0.1
					c0,0-0.2,0.1-0.1,0.1c-0.3,0-0.4-0.3-0.3-0.3c0-0.1,0.1-0.2,0.1-0.3c0,0,0.1-0.1,0.1-0.1c0,0,0.1,0,0,0
					C133.3,72.2,133.7,72,133.4,72z"/>
				<path class="st2" d="M130.4,71.6c-0.5-0.1-1,0.1-1.2,0.3c-0.2,0.1-0.6,0.6,0,0.7c0.6,0.2,1.1-0.1,1.3-0.3
					C130.6,72.2,130.9,71.7,130.4,71.6c-0.1,0-0.6,0.1-0.4,0.1c0.3,0.1,0.2,0.3,0.1,0.4c0,0.1-0.1,0.2-0.2,0.3c0,0-0.1,0.1-0.1,0.1
					c0,0-0.2,0.1-0.1,0.1c-0.3,0-0.2-0.3-0.2-0.4c0.1-0.1,0.1-0.2,0.2-0.2c0.1,0,0.1-0.1,0.2-0.1c0.1,0,0.1,0,0.1,0
					C130.2,71.8,130.6,71.7,130.4,71.6z"/>
				<path class="st2" d="M138.1,71.9c-0.6,0.1-0.6,0.4-0.6,0.6c0,0.2,0.2,0.6,0.8,0.6c0.7,0,0.8-0.4,0.7-0.6
					C139,72.3,138.7,71.9,138.1,71.9c-0.2,0-0.4,0.2-0.2,0.2c0.3,0,0.5,0.2,0.6,0.3c0.1,0.1,0.1,0.2,0.1,0.3c0,0,0,0.1,0,0.1
					c0,0-0.1,0.1,0,0.1c-0.3,0.1-0.6-0.2-0.6-0.3c-0.1-0.1-0.1-0.2-0.1-0.3c0,0,0-0.1,0-0.1c0,0,0.1-0.1,0,0
					C138.1,72.1,138.3,71.9,138.1,71.9z"/>
				<path class="st2" d="M138.3,72.1c0.2,0.4,0.4,0.8,0.7,1.2c0,0.1,0.3,0.5-0.2,0.5c-0.8,0,0.2-0.7,0.3-0.8c0.2-0.2-0.2-0.1-0.4,0
					c-0.4,0.3-0.9,0.6-0.6,1c0.1,0.1,0.7,0.1,0.9,0c0.6-0.2,0.6-0.5,0.5-0.7c-0.2-0.4-0.6-0.9-0.8-1.3
					C138.6,71.8,138.3,72,138.3,72.1L138.3,72.1z"/>
				<g>
					<path class="st2" d="M128.8,71.4c-0.3,0.2-0.5,0.4-0.9,0.5c-0.1,0-0.1,0-0.2,0.1c-0.2,0.1-0.1,0,0,0c-0.1,0,0-0.1,0-0.1
						c0.1-0.3,0.5-0.5,0.8-0.7c-0.2,0-0.3,0-0.5,0c0,0,0,0,0,0c-0.1,0.1,0.4,0.1,0.5,0c0,0,0,0,0,0c0.1-0.1-0.4-0.1-0.5,0
						c-0.3,0.2-0.5,0.3-0.7,0.5c-0.1,0.1-0.4,0.3-0.2,0.4c0.3,0.1,0.7,0.1,1,0c0.5-0.2,0.9-0.4,1.2-0.7
						C129.4,71.3,128.8,71.3,128.8,71.4L128.8,71.4z"/>
					<path class="st2" d="M128.7,72.3c-0.3,0,0-0.4,0-0.4c0.2-0.2,0.4-0.3,0.5-0.5c0.1-0.1-0.4-0.1-0.5,0c-0.3,0.2-0.7,0.5-0.8,0.8
						c-0.1,0.2,0.5,0.3,0.9,0.3C129.2,72.4,129.1,72.2,128.7,72.3L128.7,72.3z"/>
					<path class="st2" d="M128,71.1c-0.2,0.1-0.4,0.3-0.6,0.4c-0.1,0.1-0.2,0.1-0.3,0.2c-0.1,0-0.1,0.1-0.2,0.1c0.1,0,0,0,0-0.1
						c-0.1-0.1,0.2-0.3,0.3-0.4c0.2-0.1,0.4-0.2,0.6-0.3c0.2-0.1-0.3-0.1-0.5-0.1c-0.3,0.1-1.8,0.7-0.9,0.9c1.1,0.3,1.7-0.4,2.1-0.7
						C128.6,71.1,128.1,71.1,128,71.1L128,71.1z"/>
				</g>
				<path class="st2" d="M143.1,71.8c0.1-0.2,0.2-0.9-0.5-0.9c-0.5,0-0.5,0.4-0.5,0.5c0.1,0.2,0.4,0.5,0.8,0.6
					c0.5,0.1,1-0.2,1.2-0.4c0-0.1,0.1-0.1,0-0.2c-0.1,0-0.2,0.1-0.3,0.1c-0.3,0.5-1,0.1-1.2-0.1c-0.1-0.1-0.1-0.1-0.2-0.2
					c0,0,0-0.1,0-0.1c0,0,0,0,0,0c0.5-0.1,0.3,0.5,0.3,0.7C142.7,72,143.1,71.9,143.1,71.8L143.1,71.8z"/>
			</g>
		</g>
		<g>
			<path class="st8" d="M113.2,62.8c-0.1,0-0.2-0.1-0.3-0.1c-0.4-0.1-0.7,0-1,0c-0.9,0-1.2,0-2.2-0.1c0-0.4,0.5-0.7,0.7-1
				c0.2-0.3-0.1-0.6-0.1-1c0-0.2,0-0.4,0-0.6c-0.3,0.1-0.2,0.5-0.2,0.7c-0.1-0.3-0.1-0.6-0.3-0.8c-0.1,0.2,0,0.6,0,0.8
				c-0.1-0.2-0.2-0.5-0.4-0.7c-0.2,0.2,0.1,0.6,0.1,0.8c-0.2-0.2-0.3-0.5-0.5-0.6c-0.1,0.3,0.2,0.5,0.2,0.7
				c-0.2-0.2-0.3-0.4-0.5-0.5c0,0.2,0.2,0.4,0.4,0.6c-0.2-0.1-0.3-0.2-0.6-0.3c0,0.1,0.2,0.2,0.3,0.3c-0.2,0-0.3-0.1-0.5-0.2
				c0,0.1,0.2,0.2,0.3,0.3c-0.1,0-0.2-0.1-0.4-0.1c0,0.1,0.3,0.2,0.2,0.2c0,0-0.2,0-0.2,0c0,0,0.2,0.1,0.1,0.1c-0.1,0-0.1,0-0.2,0
				c0,0.1,0.1,0,0.1,0.1c-0.1,0-0.1,0-0.1,0c0,0.1,0.1,0,0.1,0.1c-0.7,0.4-0.3,0.8-0.4,1.2c0-0.1-0.6-0.1-1.1-0.2
				c-0.3-0.1-0.3-0.2-0.5-0.3c0,0,0.1,0,0.1,0c-0.1,0-0.2,0-0.2-0.1c0.1,0,0.3,0,0.3,0c-0.1,0-0.5-0.1-0.4-0.1c0.2,0,0.4,0.1,0.5,0
				c-0.2,0-0.6-0.1-0.6-0.2c0.2,0,0.5,0.1,0.7,0.1c-0.3-0.1-0.7-0.2-0.8-0.3c0.2,0.1,0.5,0.2,0.7,0.2c-0.4-0.1-0.7-0.3-1-0.3
				c0.2,0.2,0.7,0.3,0.8,0.4c-0.3-0.1-0.6-0.1-0.9-0.2c0.1,0.2,0.5,0.2,0.8,0.3c-0.3,0-0.4-0.1-0.7-0.1c0.1,0.1,0.5,0.1,0.7,0.2
				c-0.1,0-0.3,0-0.5,0c0,0.1,0.3,0.1,0.5,0.1c-0.2,0-0.3,0-0.4,0c0.1,0,0.3,0,0.4,0.1c-0.1,0-0.2,0-0.2,0c0,0,0.2,0,0.3,0
				c-0.1,0-0.1,0-0.1,0.1c0.1,0,0.2,0,0.2,0c0,0-0.1,0-0.1,0c0.4,0.1,0.6,0.4,1.2,0.5c-0.3,0.1,0.3,0.2-3.2,0.8c0.1,0,1.5-0.2,2-0.2
				c0.4-0.1,0.9-0.1,1.3-0.2c0.1,0,0.2,0,0.3,0c0.7,0,1.4,0,2.1-0.2c-0.5,0-1.5,0.1-1.8-0.1c0.5-0.4,0.1-1.2,0.5-1.4
				c0.4-0.2,1-0.8,1.7-0.3c0.1,0.1,0.1,0.2-0.1,0.4c-0.3,0.3-0.5,0.4-0.5,0.9c0,0.1,0,0.2-0.4,0.2c1.5,0.2,2,0.1,2.9,0
				c0.3,0,0.7-0.1,0.8,0c0,0.1-0.3,0.1-0.5,0.1c-0.4,0,0.2,0.1,0.4,0.1c0.1,0,0.9,0,1.3-0.1C113.7,62.8,113.5,62.8,113.2,62.8z"/>
			<path class="st8" d="M108.8,59c-3.5,0-6.3,1.3-6.3,3c0,1.7,2.8,3,6.3,3c3.5,0,6.3-1.3,6.3-3C115.1,60.4,112.2,59,108.8,59
				 M108.8,59.2c3.3,0,6.1,1.3,6.1,2.9c0,1.6-2.7,2.9-6.1,2.9c-3.3,0-6.1-1.3-6.1-2.9C102.7,60.5,105.4,59.2,108.8,59.2"/>
		</g>
	</g>
</g>
<g id="butylka_1">
</g>
<g id="vanna_2">
</g>
<g id="sneg">
</g>
<g id="vanna_1">
</g>
<g id="shariki_2">
</g>
<g id="shariki_1">
</g>
<g id="voronka">
</g>
<g id="gradusnik">
</g>
<g id="kolba_2">
</g>
<g id="kolba_1">
</g>
<g id="probirki">
</g>
<g id="lupa">
</g>
<g id="bidon">
</g>
</svg>
