<?xml version="1.0" encoding="utf-8"?>
<!-- Generator: Adobe Illustrator 19.0.0, SVG Export Plug-In . SVG Version: 6.00 Build 0)  -->
<svg version="1.1" xmlns="http://www.w3.org/2000/svg" xmlns:xlink="http://www.w3.org/1999/xlink" x="0px" y="0px"
	 viewBox="101 7 331.5 237" style="enable-background:new 101 7 331.5 237;" xml:space="preserve">
<style type="text/css">
	.st0{fill:#EFEFEF;}
	.st1{fill:#DDDDDD;}
	.st2{fill:#FFFFFF;}
	.st3{fill:#FCFCFC;}
	.st4{fill:#6B2A12;}
	.st5{fill:#62BA47;}
	.st6{fill:#62BA46;}
	.st7{fill:url(#SVGID_1_);}
	.st8{fill:url(#SVGID_2_);}
	.st9{fill:url(#SVGID_3_);}
	.st10{fill:url(#SVGID_4_);}
	.st11{fill:url(#SVGID_5_);}
</style>
<g id="Layer_1">
	<g id="Layer_2_1_">
	</g>
</g>
<g id="snow">
	<g id="Layer_2">
	</g>
	<g id="kolba_4">
	</g>
	<g id="kolba_3">
	</g>
	<g id="kolby">
	</g>
	<g id="doma">
	</g>
	<g id="car">
	</g>
	<g id="butylka_3">
	</g>
	<g id="butylka_2">
		<g>
			<path class="st0" d="M343.8,135.3h-22.5H312h-84h-9.1h-22.7l9.7,36l0,0c0.9,3.6,6.3,6.3,12.9,6.3h102.4c7,0,12.7-3.1,13-7
				L343.8,135.3z"/>
			<path class="st1" d="M321.2,135.3H312h-42v42.3h51.2c7,0,12.7-3.1,13-7l9.5-35.2h-22.5V135.3z"/>
			<path class="st2" d="M215.5,156.6c0.6,2-0.5,4.1-2.5,4.7l0,0c-2,0.6-4.1-0.5-4.7-2.5l-3-9.6c-0.6-2,0.5-4.1,2.5-4.7l0,0
				c2-0.6,4.1,0.5,4.7,2.5L215.5,156.6z"/>
			<path class="st2" d="M205.5,109.8"/>
			<g>
				<polygon class="st0" points="343.7,130.2 195.2,130.2 208.1,107 329.9,107 				"/>
				<path class="st3" d="M329.9,107l13.8,23.2H195.2l12.9-23.2H329.9 M329.9,100.4H208.1c-2.4,0-4.6,1.3-5.7,3.4L189.5,127
					c-1.1,2-1.1,4.5,0.1,6.5c1.2,2,3.3,3.2,5.6,3.2h148.5c2.4,0,4.5-1.3,5.7-3.3s1.1-4.6-0.1-6.6l-13.8-23.2
					C334.4,101.6,332.2,100.4,329.9,100.4L329.9,100.4z"/>
			</g>
		</g>
		<g>
			<ellipse class="st4" cx="270.6" cy="119.9" rx="18.2" ry="8.7"/>
			<path class="st4" d="M261.9,109.3c0,0.6-1,1.1-2.3,1.1c-1.3,0-2.3-0.5-2.3-1.1s1-1.1,2.3-1.1
				C260.9,108.2,261.9,108.7,261.9,109.3L261.9,109.3z"/>
			<path class="st5" d="M262,113c0,0.8-1.3,1.4-3,1.4c-1.6,0-3-0.6-3-1.4s1.3-1.4,3-1.4S262,112.2,262,113L262,113z"/>
			<path class="st5" d="M254,110.8c0,0.5-0.8,0.8-1.8,0.8s-1.8-0.4-1.8-0.8c0-0.5,0.8-0.8,1.8-0.8C253.3,110,254,110.4,254,110.8
				L254,110.8z"/>
			<g>
				<ellipse class="st5" cx="286.1" cy="112" rx="10" ry="4.8"/>
				<g>
					<path class="st2" d="M283.6,111.3c-0.8,0-1.1,0.5-1.1,0.8l0,0l0,0v0.1c0,0.2,0,0.3-0.1,0.4c0,0.1-0.1,0.2-0.1,0.2
						c-0.3,0-0.5-0.2-0.6-0.3c-0.2-0.2-0.3-0.5-0.4-0.8c-0.1-0.3-0.2-0.6-0.2-0.8c0-0.1,0-0.2,0-0.3v-0.1v-0.1
						c0.1-0.2-0.5,0-0.7,0.1c-0.7,0.6-0.5,1.2-0.4,1.8c0,0.2,0,0.3-0.1,0.5c0,0.1-0.1,0.3-0.3,0.4c-0.1,0.1-0.3,0-0.4,0
						c-0.2,0-0.3-0.1-0.3-0.2s-0.2,0-0.3,0c-0.1,0.1-0.3,0.2-0.3,0.3c0.1,0.2,0.5,0.4,1,0.3c0.7-0.1,1.1-0.5,1.2-0.9
						c0.1-0.2,0.1-0.3,0.2-0.5c0.1,0.2,0.3,0.5,0.5,0.7s0.5,0.3,0.9,0.3c0.3,0,0.5-0.2,0.7-0.4c0.1,0.2,0.4,0.3,0.7,0.3
						c0.4,0,0.8-0.2,0.9-0.4c0.2-0.2,0.2-0.4,0.2-0.6C284.6,111.9,284.5,111.3,283.6,111.3z M283.9,112.7c0,0,0,0.1-0.1,0.1
						c-0.2,0-0.3-0.1-0.3-0.2c-0.1-0.1-0.2-0.3-0.2-0.4s0-0.3,0-0.5c0,0,0-0.1,0.1-0.1c0.4,0.1,0.5,0.4,0.5,0.6
						C283.9,112.4,283.9,112.6,283.9,112.7z"/>
					<path class="st2" d="M293.6,111.9c-0.9-0.2-1.4,0.4-1.6,0.7c-0.2,0.3-0.3,0.8,0.4,1c0.4,0.1,0.8-0.1,1-0.2
						c0.3-0.1,0.4-0.3,0.6-0.5C294.2,112.6,294.4,112,293.6,111.9z M293,113.3l-0.1,0.1c-0.1,0-0.2-0.2-0.2-0.2c0-0.2,0-0.3,0-0.4
						c0.1-0.1,0.1-0.3,0.3-0.4l0.1-0.1c0.3,0.2,0.3,0.5,0.2,0.7C293.2,113,293.2,113.1,293,113.3z"/>
					<path class="st2" d="M291.1,112c0.2-0.1,0.3-0.2,0.5-0.3c0.3-0.2,0.7-0.5,0.6-0.8c0-0.3-0.8-0.3-1.2-0.2
						c-0.6,0.1-0.9,0.4-1.1,0.7c-0.2,0.4-0.3,0.7-0.4,1.1l0,0c-0.3,0.2-0.9,0.5-1.3,0.3c-0.1,0-0.2-0.1-0.2-0.2
						c0.4-0.2,0.7-0.4,1-0.6c0.3-0.2,0.4-0.5-0.1-0.7c-0.4-0.1-1,0-1.3,0.2s-0.4,0.4-0.5,0.6c0,0.1-0.1,0.3,0,0.5
						c-0.3,0.1-0.6,0.1-0.9,0.1s-0.5-0.2-0.5-0.3c-0.1-0.2-0.1-0.4,0-0.6c0-0.1,0.1-0.1,0.1-0.2l0,0c0.2,0,0.3,0.2,0.3,0.3
						c0.1,0.1,0.9-0.1,0.8-0.2c-0.1-0.1-0.2-0.3-0.5-0.4s-0.7,0.1-0.9,0.1c-0.5,0.3-0.6,0.6-0.6,1c0,0.2,0.1,0.5,0.5,0.6
						c0.5,0.2,1.3,0,1.8-0.1c0.1,0.2,0.4,0.3,0.8,0.2c0.5,0,1-0.2,1.4-0.4c0,0.2,0.1,0.4,0.4,0.5c0.5,0.1,1.1,0,1.4-0.2
						c0.4-0.2,0.6-0.6,0.4-0.9C291.6,112,291.4,112,291.1,112z M288.1,111.8c0-0.1,0.1-0.1,0.1-0.2l0,0c0.2,0,0.3,0.2,0.2,0.2
						c0,0.2-0.3,0.3-0.5,0.5v-0.1C288,112.1,288,111.9,288.1,111.8z M291,111c0.1-0.1,0.1-0.1,0.2-0.2l0,0c0.3,0.2,0,0.4-0.2,0.6
						s-0.4,0.3-0.6,0.5c0-0.2,0.1-0.3,0.2-0.5C290.7,111.3,290.8,111.2,291,111z M290.8,113C290.8,113,290.7,113,290.8,113
						c-0.1,0.1-0.1,0.1-0.2,0.1c-0.2-0.1-0.2-0.3-0.3-0.4c0-0.1,0-0.2,0-0.2c0.1,0,0.2-0.1,0.3-0.2c0.2-0.1,0.3,0.1,0.4,0.2
						C291.1,112.6,290.9,112.8,290.8,113z"/>
				</g>
			</g>
			<path class="st2" d="M284,119.7c0,0-0.2,0-0.3,0c-1.7-0.1-2.5,0.7-2.8,1.4l0,0c-0.3,0.5-0.9,0.9-1,1s-0.2,0-0.2,0
				c-0.1,0-0.2-0.1-0.2-0.2c-0.1-0.2-0.1-0.5-0.2-0.7c0-0.6,0.1-1.3,0.3-1.9c0-0.1-0.2-0.2-0.4-0.2c-0.4,0-0.8,0.1-1,0.3
				c-0.6,0.5-1,1-1.2,1.5c-0.1,0.3-0.2,0.6-0.4,0.8c0,0,0,0-0.1,0c-0.2-0.1-0.3-0.2-0.3-0.2s0-0.1-0.1-0.1s-0.1,0-0.2,0
				c-0.2,0-0.5,0.1-0.7,0.1c-0.1,0-0.2,0.1-0.2,0.1c-0.1,0-0.1,0.1-0.4,0.1c-0.3,0-0.5-0.1-0.6-0.3c-0.3-0.2-0.3-0.6-0.3-0.8
				c0-0.4,0.1-0.7,0.4-1.1c0,0,0-0.1,0.1-0.1c0,0,0,0,0.1,0c0.3,0.1,0.4,0.3,0.5,0.5c0.1,0.3,1.6-0.1,1.5-0.4
				c-0.1-0.2-0.3-0.5-0.8-0.7c-0.6-0.2-1.2,0-1.7,0.1c-1.1,0.4-1.4,1.1-1.4,1.7v0.1c-0.1,0.2-0.3,0.5-0.6,0.7
				c-0.1,0-0.1,0.1-0.4,0.1c-0.1,0-0.2-0.1-0.2-0.2c-0.2-0.3-0.3-0.7-0.3-1.1c0-0.3,0-0.5,0.1-0.8c0-0.1,0-0.2,0-0.3l0,0
				c0-0.4-0.7-0.6-1.6-0.5c-0.9,0.1-1.5,0.4-1.9,0.7c-0.4,0.3-0.6,0.7-0.7,1.1c-0.1,0.3,0,1.1-0.4,1.1c-0.6,0-0.9-0.4-1-0.6
				c-0.3-0.4-0.5-0.9-0.5-1.3c-0.1-0.8-0.2-1.5,0-2.3c0-0.1-0.3-0.1-0.5-0.1c-0.4,0.1-0.7,0.2-0.8,0.4c-0.5,0.5-0.7,1.2-0.8,1.8l0,0
				c0-0.1,0-0.1,0-0.2c-0.1-0.5-0.3-1-0.3-1.4c0-0.3-0.1-0.7,0-0.9c0.2-0.4-1,0-1.2,0.1c-1.3,1.1-0.9,2.3-0.9,3.5
				c0,0.3,0,0.6-0.2,0.9c-0.1,0.2-0.2,0.6-0.5,0.7c-0.2,0.1-0.6,0-0.8-0.1c-0.3-0.1-0.5-0.3-0.5-0.4c0-0.2-0.4-0.1-0.6,0
				c-0.3,0.1-0.6,0.3-0.5,0.5c0.1,0.4,0.8,0.8,1.7,0.7c1.5-0.2,2.1-1,2.4-1.6c0.2-0.4,0.3-0.8,0.3-1.2c0.2,0.7,0.5,1.4,0.7,2.1
				c0.1,0.4,1.2-0.2,1.2-0.4c0-0.5,0.1-1,0.2-1.5c0.2,0.6,0.8,1.9,2.3,1.9c0.5,0,1-0.3,1.3-0.5c0.1,0.2,0.4,0.3,0.7,0.4
				c0.6,0.1,1.4-0.1,1.9-0.3l0,0c0.1,0.1,0.2,0.2,0.4,0.3c0.9,0.3,1.8-0.1,2.3-0.4c0.1,0.1,0.2,0.3,0.4,0.4c0.6,0.3,1.4,0.2,2.1,0
				c0.7,0.5,2.1,0.2,2.7-0.2c0.1-0.1,0.1-0.1,0.2-0.2c0,0.1,0,0.1,0,0.2c0,0.2,0.1,0.5,0.4,0.6c0.3,0.2,1,0.1,1.3,0
				c0.3-0.1,0.7-0.3,1-0.5c0,0.4,0.3,0.8,1.1,1c0.7,0.1,1.5-0.2,1.9-0.4c0.5-0.3,0.8-0.7,1-1C285,121,285.3,120.1,284,119.7z
				 M269,121.2l-0.1,0.1c0,0-0.1,0-0.2,0c-0.3,0-0.4-0.3-0.5-0.4c-0.3-0.4-0.3-0.9,0-1.4c0.1-0.1,0.3-0.4,0.4-0.4h0.1
				c0.1,0,0.2,0,0.2,0c0.4,0,0.5,0.1,0.5,0.3C269.3,120,269.3,120.6,269,121.2z M282.6,122.1c-0.1,0.1-0.1,0.1-0.2,0.2
				c-0.3-0.1-0.4-0.3-0.4-0.4c-0.1-0.3,0-0.6,0-0.8c0.1-0.3,0.3-0.6,0.5-0.8c0.1-0.1,0.1-0.1,0.2-0.2c0.6,0.2,0.4,1,0.3,1.3
				C283,121.6,282.8,121.9,282.6,122.1z"/>
			<g>
				<g>
					<path class="st2" d="M266.3,125.2c-0.1,0.4-0.4,0.7-0.7,1.1c-0.1,0.1,0.5,0,0.6,0c0.1-0.2,0.3-0.3,0.5-0.5
						c0.1-0.1,0.3-0.3,0.6-0.2c0.2,0,0.3-0.1,0.5-0.1c-0.7-0.3-1.4,0.2-1.7,0.4c-0.1,0.1,0.1,0.1,0.2,0.1c0.5,0,0.2,0.3,0.3,0.4
						c0.1,0.2,0.7,0.1,0.9,0c0.3-0.1,0.1-0.2-0.2-0.1c-0.2,0.1-0.2-0.1-0.2-0.2s0-0.1,0-0.2c-0.1-0.1-0.4-0.1-0.7-0.1
						c0.1,0,0.1,0,0.2,0.1c0.1-0.1,0.3-0.4,0.6-0.3c0.2,0.1,0.6-0.1,0.5-0.1c-0.9-0.5-1.9,0.6-2.2,0.8c0.2,0,0.4,0,0.6,0
						c0.3-0.4,0.6-0.7,0.6-1.1C266.8,125.1,266.3,125.2,266.3,125.2L266.3,125.2z"/>
					<path class="st2" d="M268.9,126.5c0,0.2,0.7,0.2,1,0.1c0.2-0.1,0.2-0.2,0.3-0.4c0.1-0.2,0.1-0.4,0.3-0.6
						c-0.1,0-0.3,0.1-0.4,0.1c0,0.3-0.1,0.7,0.3,1c0.3,0.2,1-0.2,1.2-0.2c0.2-0.2-0.2-0.1-0.3,0c-0.3,0.2-0.4,0.1-0.5-0.1
						c-0.1-0.2-0.1-0.5-0.1-0.7c0-0.1-0.4,0-0.4,0.1c-0.1,0.1-0.2,0.3-0.3,0.4c0,0.1-0.1,0.2-0.1,0.2s0,0.1-0.1,0.1
						c0,0.1-0.2,0-0.2,0C269.4,126.3,268.9,126.5,268.9,126.5L268.9,126.5z"/>
					<path class="st2" d="M272.3,125.7c-0.1-0.3-0.8-0.1-1,0.1c-0.3,0.2-0.3,0.5-0.2,0.7s0.6,0.3,1,0.1
						C272.6,126.3,272.4,126,272.3,125.7c-0.1,0-0.3,0.1-0.4,0.1c0,0.2,0,1.2,1,0.8c0.2-0.1,0.2-0.3-0.1-0.1c-0.1,0-0.3-0.2-0.3-0.2
						C272.4,126,272.4,125.9,272.3,125.7c0-0.1-0.4,0.1-0.4,0.1c0,0.2,0,0.3,0,0.5c0,0.1,0,0.2-0.1,0.2c-0.1,0-0.2-0.1-0.2-0.1
						c-0.1-0.1-0.1-0.2-0.1-0.4c0-0.1,0-0.1,0.1-0.2c0,0,0-0.1,0.1-0.1c0.1-0.1,0.3,0,0.3,0.1C271.9,125.9,272.4,125.8,272.3,125.7
						L272.3,125.7z"/>
					<path class="st2" d="M274.3,125.5c0.2,0.3,0.5,0.6,0.7,0.9c0.1,0.1,0.5-0.1,0.4-0.2c-0.1-0.2-0.1-0.3,0.1-0.5s0.2-0.4,0.1-0.6
						s-0.3,0.1-0.3,0.1c0,0.3,0.2,0.5,0.5,0.8c0.1,0.1,0.2,0.2,0.3,0.2c0.3,0,0.5-0.2,0.6-0.3c0.2-0.2-0.1-0.2-0.3,0
						c-0.1,0.1-0.5-0.2-0.5-0.3c-0.2-0.2-0.3-0.3-0.3-0.5c-0.1,0-0.2,0.1-0.3,0.1c0.1,0.2,0,0.4-0.2,0.5c-0.2,0.2-0.2,0.4-0.1,0.6
						c0.1-0.1,0.3-0.1,0.4-0.2c-0.2-0.3-0.5-0.6-0.7-0.9C274.5,125.2,274.2,125.4,274.3,125.5L274.3,125.5z"/>
					<path class="st2" d="M276.4,124.8c-0.5,0.2-0.4,0.5-0.2,0.7c0.1,0.2,0.5,0.6,1.1,0.5c0.6-0.1,0.5-0.5,0.3-0.7
						C277.4,125.1,276.9,124.7,276.4,124.8c-0.1,0-0.2,0.3-0.1,0.3c0.3-0.1,0.5,0.1,0.7,0.2c0.1,0.1,0.2,0.2,0.3,0.2
						c0,0,0,0.1,0.1,0.1v0.1c-0.2,0.1-0.6-0.1-0.7-0.2c-0.1-0.1-0.2-0.2-0.2-0.2l-0.1-0.1c0,0,0-0.1,0,0
						C276.5,125,276.6,124.8,276.4,124.8z"/>
					<path class="st2" d="M268.7,125.5c-0.6,0-0.9,0.3-1,0.5c-0.1,0.2-0.3,0.6,0.3,0.7c0.7,0.1,1-0.3,1.1-0.5
						S269.3,125.6,268.7,125.5c-0.1,0-0.5,0.2-0.4,0.2c0.3,0,0.3,0.2,0.3,0.3c0,0.1,0,0.2-0.1,0.3c0,0,0,0.1-0.1,0.1
						c0,0-0.2,0.1-0.1,0.1c-0.3,0-0.4-0.3-0.3-0.3c0-0.1,0.1-0.2,0.1-0.3l0.1-0.1c0,0,0.1,0,0,0C268.6,125.7,269,125.5,268.7,125.5z
						"/>
					<path class="st2" d="M265.7,125.1c-0.5-0.1-1,0.1-1.2,0.3c-0.2,0.1-0.6,0.6,0,0.7c0.6,0.2,1.1-0.1,1.3-0.3
						C265.9,125.7,266.2,125.2,265.7,125.1c-0.1,0-0.6,0.1-0.4,0.1c0.3,0.1,0.2,0.3,0.1,0.4c0,0.1-0.1,0.2-0.2,0.3l-0.1,0.1
						c0,0-0.2,0.1-0.1,0.1c-0.3,0-0.2-0.3-0.2-0.4c0.1-0.1,0.1-0.2,0.2-0.2c0.1,0,0.1-0.1,0.2-0.1c0.1,0,0.1,0,0.1,0
						C265.4,125.3,265.9,125.2,265.7,125.1z"/>
					<path class="st2" d="M273.4,125.4c-0.6,0.1-0.6,0.4-0.6,0.6s0.2,0.6,0.8,0.6c0.7,0,0.8-0.4,0.7-0.6
						C274.2,125.8,274,125.4,273.4,125.4c-0.2,0-0.4,0.2-0.2,0.2c0.3,0,0.5,0.2,0.6,0.3c0.1,0.1,0.1,0.2,0.1,0.3v0.1
						c0,0-0.1,0.1,0,0.1c-0.3,0.1-0.6-0.2-0.6-0.3c-0.1-0.1-0.1-0.2-0.1-0.3v-0.1c0,0,0.1-0.1,0,0
						C273.4,125.6,273.6,125.4,273.4,125.4z"/>
					<path class="st2" d="M273.6,125.6c0.2,0.4,0.4,0.8,0.7,1.2c0,0.1,0.3,0.5-0.2,0.5c-0.8,0,0.2-0.7,0.3-0.8
						c0.2-0.2-0.2-0.1-0.4,0c-0.4,0.3-0.9,0.6-0.6,1c0.1,0.1,0.7,0.1,0.9,0c0.6-0.2,0.6-0.5,0.5-0.7c-0.2-0.4-0.6-0.9-0.8-1.3
						C273.9,125.3,273.5,125.5,273.6,125.6L273.6,125.6z"/>
					<g>
						<path class="st2" d="M264,124.9c-0.3,0.2-0.5,0.4-0.9,0.5c-0.1,0-0.1,0-0.2,0.1c-0.2,0.1-0.1,0,0,0c-0.1,0,0-0.1,0-0.1
							c0.1-0.3,0.5-0.5,0.8-0.7c-0.2,0-0.3,0-0.5,0l0,0c-0.1,0.1,0.4,0.1,0.5,0l0,0c0.1-0.1-0.4-0.1-0.5,0c-0.3,0.2-0.5,0.3-0.7,0.5
							c-0.1,0.1-0.4,0.3-0.2,0.4c0.3,0.1,0.7,0.1,1,0c0.5-0.2,0.9-0.4,1.2-0.7C264.7,124.8,264.1,124.8,264,124.9L264,124.9z"/>
						<path class="st2" d="M264,125.8c-0.3,0,0-0.4,0-0.4c0.2-0.2,0.4-0.3,0.5-0.5c0.1-0.1-0.4-0.1-0.5,0c-0.3,0.2-0.7,0.5-0.8,0.8
							c-0.1,0.2,0.5,0.3,0.9,0.3C264.5,125.9,264.4,125.7,264,125.8L264,125.8z"/>
						<path class="st2" d="M263.3,124.6c-0.2,0.1-0.4,0.3-0.6,0.4c-0.1,0.1-0.2,0.1-0.3,0.2c-0.1,0-0.1,0.1-0.2,0.1c0.1,0,0,0,0-0.1
							c-0.1-0.1,0.2-0.3,0.3-0.4c0.2-0.1,0.4-0.2,0.6-0.3c0.2-0.1-0.3-0.1-0.5-0.1c-0.3,0.1-1.8,0.7-0.9,0.9
							c1.1,0.3,1.7-0.4,2.1-0.7C263.9,124.6,263.4,124.6,263.3,124.6L263.3,124.6z"/>
					</g>
					<path class="st2" d="M278.4,125.3c0.1-0.2,0.2-0.9-0.5-0.9c-0.5,0-0.5,0.4-0.5,0.5c0.1,0.2,0.4,0.5,0.8,0.6
						c0.5,0.1,1-0.2,1.2-0.4c0-0.1,0.1-0.1,0-0.2c-0.1,0-0.2,0.1-0.3,0.1c-0.3,0.5-1,0.1-1.2-0.1c-0.1-0.1-0.1-0.1-0.2-0.2v-0.1l0,0
						c0.5-0.1,0.3,0.5,0.3,0.7S278.4,125.4,278.4,125.3L278.4,125.3z"/>
				</g>
			</g>
			<g>
				<path class="st6" d="M248.5,116.2c-0.1,0-0.2-0.1-0.3-0.1c-0.4-0.1-0.7,0-1,0c-0.9,0-1.2,0-2.2-0.1c0-0.4,0.5-0.7,0.7-1
					s-0.1-0.6-0.1-1c0-0.2,0-0.4,0-0.6c-0.3,0.1-0.2,0.5-0.2,0.7c-0.1-0.3-0.1-0.6-0.3-0.8c-0.1,0.2,0,0.6,0,0.8
					c-0.1-0.2-0.2-0.5-0.4-0.7c-0.2,0.2,0.1,0.6,0.1,0.8c-0.2-0.2-0.3-0.5-0.5-0.6c-0.1,0.3,0.2,0.5,0.2,0.7
					c-0.2-0.2-0.3-0.4-0.5-0.5c0,0.2,0.2,0.4,0.4,0.6c-0.2-0.1-0.3-0.2-0.6-0.3c0,0.1,0.2,0.2,0.3,0.3c-0.2,0-0.3-0.1-0.5-0.2
					c0,0.1,0.2,0.2,0.3,0.3c-0.1,0-0.2-0.1-0.4-0.1c0,0.1,0.3,0.2,0.2,0.2h-0.2c0,0,0.2,0.1,0.1,0.1c-0.1,0-0.1,0-0.2,0
					c0,0.1,0.1,0,0.1,0.1c-0.1,0-0.1,0-0.1,0c0,0.1,0.1,0,0.1,0.1c-0.7,0.4-0.3,0.8-0.4,1.2c0-0.1-0.6-0.1-1.1-0.2
					c-0.3-0.1-0.3-0.2-0.5-0.3h0.1c-0.1,0-0.2,0-0.2-0.1c0.1,0,0.3,0,0.3,0c-0.1,0-0.5-0.1-0.4-0.1c0.2,0,0.4,0.1,0.5,0
					c-0.2,0-0.6-0.1-0.6-0.2c0.2,0,0.5,0.1,0.7,0.1c-0.3-0.1-0.7-0.2-0.8-0.3c0.2,0.1,0.5,0.2,0.7,0.2c-0.4-0.1-0.7-0.3-1-0.3
					c0.2,0.2,0.7,0.3,0.8,0.4c-0.3-0.1-0.6-0.1-0.9-0.2c0.1,0.2,0.5,0.2,0.8,0.3c-0.3,0-0.4-0.1-0.7-0.1c0.1,0.1,0.5,0.1,0.7,0.2
					c-0.1,0-0.3,0-0.5,0c0,0.1,0.3,0.1,0.5,0.1c-0.2,0-0.3,0-0.4,0c0.1,0,0.3,0,0.4,0.1c-0.1,0-0.2,0-0.2,0s0.2,0,0.3,0
					c-0.1,0-0.1,0-0.1,0.1c0.1,0,0.2,0,0.2,0h-0.1c0.4,0.1,0.6,0.4,1.2,0.5c-0.3,0.1,0.3,0.2-3.2,0.8c0.1,0,1.5-0.2,2-0.2
					c0.4-0.1,0.9-0.1,1.3-0.2c0.1,0,0.2,0,0.3,0c0.7,0,1.4,0,2.1-0.2c-0.5,0-1.5,0.1-1.8-0.1c0.5-0.4,0.1-1.2,0.5-1.4
					c0.4-0.2,1-0.8,1.7-0.3c0.1,0.1,0.1,0.2-0.1,0.4c-0.3,0.3-0.5,0.4-0.5,0.9c0,0.1,0,0.2-0.4,0.2c1.5,0.2,2,0.1,2.9,0
					C247.9,116.2,248.3,116.1,248.5,116.2c-0.1,0.1-0.4,0.1-0.6,0.1c-0.4,0,0.2,0.1,0.4,0.1c0.1,0,0.9,0,1.3-0.1
					C249,116.3,248.8,116.3,248.5,116.2z"/>
				<path class="st6" d="M244,112.5c-3.5,0-6.3,1.3-6.3,3s2.8,3,6.3,3s6.3-1.3,6.3-3C250.3,113.9,247.5,112.5,244,112.5 M244,112.7
					c3.3,0,6.1,1.3,6.1,2.9s-2.7,2.9-6.1,2.9c-3.3,0-6.1-1.3-6.1-2.9C238,114,240.7,112.7,244,112.7"/>
			</g>
		</g>
		<g>
			
				<linearGradient id="SVGID_1_" gradientUnits="userSpaceOnUse" x1="351.1445" y1="215.3236" x2="368.9201" y2="164.9592" gradientTransform="matrix(1 0 0 -1 0 252)">
				<stop  offset="0" style="stop-color:#404B71"/>
				<stop  offset="0.6044" style="stop-color:#3C476E"/>
				<stop  offset="1" style="stop-color:#354169"/>
			</linearGradient>
			<path class="st7" d="M355.4,82.1l-1.9-7.1l1.7-3l0.2,0.9c0.3,0.9,1.2,1.5,2.2,1.2c0.2,0,0.3-0.1,0.4-0.2c0.7-0.4,1-1.2,0.8-2
				l-1.1-4.3l2.1-3.7l2.1,3.7l-1.2,4.3c-0.3,0.9,0.3,1.9,1.2,2.2c0.5,0.1,0.9,0,1.3-0.2s0.7-0.6,0.8-1.1l0.2-0.9l1.7,3L364,82
				c-0.3,0.9,0.3,1.9,1.2,2.2c0.5,0.1,0.9,0,1.3-0.2s0.7-0.6,0.8-1.1l1-3.7l2.8,4.8c0.5,0.8,1.6,1.1,2.4,0.6s1.1-1.6,0.6-2.4
				l-2.8-4.8l3.7,1c0.5,0.1,0.9,0,1.3-0.2s0.7-0.6,0.8-1.1c0.3-0.9-0.3-1.9-1.2-2.2l-7.1-1.9l-1.7-3l0.9,0.2
				c0.5,0.1,0.9,0.1,1.3-0.2c0.4-0.2,0.7-0.6,0.8-1.1c0.3-0.9-0.3-1.9-1.2-2.2l-4.3-1.1l-2.1-3.7h4.2l3.1,3.1
				c0.6,0.6,1.5,0.7,2.1,0.3c0.1-0.1,0.3-0.2,0.4-0.3c0.7-0.7,0.7-1.8,0-2.5l-0.6-0.6h3.5l5.2,5.2c0.6,0.6,1.5,0.7,2.1,0.3
				c0.1-0.1,0.3-0.2,0.4-0.3c0.7-0.7,0.7-1.8,0-2.5l-2.7-2.7h5.6c0.3,0,0.6-0.1,0.9-0.2c0.5-0.3,0.9-0.9,0.9-1.5
				c0-1-0.8-1.8-1.8-1.8h-5.6l2.7-2.7c0.7-0.7,0.7-1.8,0-2.5s-1.8-0.7-2.5,0l-5.2,5.2h-3.5l0.6-0.6c0.7-0.7,0.7-1.8,0-2.5
				s-1.8-0.7-2.5,0l-3.1,3.1h-4.2L365,55l4.3-1.1c0.2,0,0.3-0.1,0.4-0.2c0.7-0.4,1-1.2,0.8-2c-0.3-0.9-1.2-1.5-2.2-1.2l-0.9,0.2
				l1.7-3l7.1-1.9c0.2,0,0.3-0.1,0.4-0.2c0.7-0.4,1-1.2,0.8-2c-0.3-0.9-1.2-1.5-2.2-1.2l-3.7,1l2.8-4.8c0.5-0.8,0.2-1.9-0.6-2.4
				c-0.8-0.5-1.9-0.2-2.4,0.6l-2.8,4.8l-1-3.7c-0.3-0.9-1.2-1.5-2.2-1.2c-0.9,0.3-1.5,1.2-1.2,2.2L366,46l-1.7,3l-0.2-0.9
				c-0.3-0.9-1.2-1.5-2.2-1.2c-0.9,0.3-1.5,1.2-1.2,2.2l1.1,4.3l-2.1,3.7l-2.1-3.7l1.1-4.3c0.3-0.9-0.3-1.9-1.2-2.2
				c-0.9-0.3-1.9,0.3-2.2,1.2l-0.2,0.9l-1.7-3l1.9-7.1c0.3-0.9-0.3-1.9-1.2-2.2c-0.9-0.3-1.9,0.3-2.2,1.2l-1,3.7l-2.8-4.8
				c-0.5-0.8-1.6-1.1-2.4-0.6c-0.8,0.5-1.1,1.6-0.6,2.4l2.8,4.8l-3.7-1c-0.9-0.3-1.9,0.3-2.2,1.2c-0.3,0.9,0.3,1.9,1.2,2.2l7.1,1.9
				l1.7,3l-0.9-0.2c-0.9-0.3-1.9,0.3-2.2,1.2s0.3,1.9,1.2,2.2l4.3,1.1l2.1,3.7h-4.2l-3.1-3.1c-0.7-0.7-1.8-0.7-2.5,0
				c-0.7,0.7-0.7,1.8,0,2.5l0.6,0.6h-3.5l-5.2-5.2c-0.7-0.7-1.8-0.7-2.5,0s-0.7,1.8,0,2.5l2.7,2.7h-5.6c-1,0-1.8,0.8-1.8,1.8
				s0.8,1.8,1.8,1.8h5.6l-2.7,2.7c-0.7,0.7-0.7,1.8,0,2.5c0.6,0.6,1.5,0.7,2.1,0.3c0.1-0.1,0.3-0.2,0.4-0.3l5.2-5.2h3.5l-0.6,0.6
				c-0.7,0.7-0.7,1.8,0,2.5c0.6,0.6,1.5,0.7,2.1,0.3c0.1-0.1,0.3-0.2,0.4-0.3l3.1-3.1h4.2l-2.1,3.7l-4.3,1.1
				c-0.9,0.3-1.5,1.2-1.2,2.2c0.3,0.9,1.2,1.5,2.2,1.2l0.9-0.2l-1.7,3l-7.1,1.9c-0.9,0.3-1.5,1.2-1.2,2.2c0.3,0.9,1.2,1.5,2.2,1.2
				l3.7-1l-2.8,4.8c-0.5,0.8-0.2,1.9,0.6,2.4c0.6,0.3,1.2,0.3,1.8,0c0.3-0.1,0.5-0.4,0.6-0.6l2.8-4.8l1,3.7c0.3,0.9,1.2,1.5,2.2,1.2
				c0.2,0,0.3-0.1,0.4-0.2C355.2,83.7,355.6,82.9,355.4,82.1z"/>
			
				<linearGradient id="SVGID_2_" gradientUnits="userSpaceOnUse" x1="219.1098" y1="144.3137" x2="224.4843" y2="129.0861" gradientTransform="matrix(1 0 0 -1 0 252)">
				<stop  offset="0" style="stop-color:#404B71"/>
				<stop  offset="0.6044" style="stop-color:#3C476E"/>
				<stop  offset="1" style="stop-color:#354169"/>
			</linearGradient>
			<path class="st8" d="M220.7,121.3l-0.6-2.1l0.5-0.9l0.1,0.3c0.1,0.3,0.4,0.5,0.7,0.4c0,0,0.1,0,0.1-0.1c0.2-0.1,0.3-0.4,0.2-0.6
				l-0.3-1.3l0.6-1.1l0.6,1.1l-0.3,1.3c-0.1,0.3,0.1,0.6,0.4,0.7c0.1,0,0.3,0,0.4-0.1c0.1-0.1,0.2-0.2,0.2-0.3l0.1-0.3l0.5,0.9
				l-0.6,2.1c-0.1,0.3,0.1,0.6,0.4,0.7c0.1,0,0.3,0,0.4-0.1c0.1-0.1,0.2-0.2,0.2-0.3l0.3-1.1l0.8,1.5c0.1,0.3,0.5,0.3,0.7,0.2
				c0.3-0.1,0.3-0.5,0.2-0.7l-0.8-1.5l1.1,0.3c0.1,0,0.3,0,0.4-0.1c0.1-0.1,0.2-0.2,0.2-0.3c0.1-0.3-0.1-0.6-0.4-0.7l-2.1-0.6
				l-0.5-0.9l0.3,0.1c0.1,0,0.3,0,0.4-0.1s0.2-0.2,0.2-0.3c0.1-0.3-0.1-0.6-0.4-0.7l-1.3-0.3l-0.6-1.1h1.3l0.9,0.9
				c0.2,0.2,0.4,0.2,0.6,0.1l0.1-0.1c0.2-0.2,0.2-0.5,0-0.8l-0.2-0.2h1.1l1.6,1.6c0.2,0.2,0.4,0.2,0.6,0.1c0,0,0.1,0,0.1-0.1
				c0.2-0.2,0.2-0.5,0-0.8l-0.8-0.8h1.7c0.1,0,0.2,0,0.3-0.1c0.2-0.1,0.3-0.3,0.3-0.5c0-0.3-0.2-0.5-0.5-0.5h-1.7l0.8-0.8
				c0.2-0.2,0.2-0.5,0-0.8c-0.2-0.2-0.5-0.2-0.8,0l-1.6,1.6h-1.1l0.2-0.2c0.2-0.2,0.2-0.5,0-0.8c-0.2-0.2-0.5-0.2-0.8,0L224,114h-1
				l0.6-1.1l1.3-0.3c0,0,0.1,0,0.1-0.1c0.2-0.1,0.3-0.4,0.2-0.6c-0.1-0.3-0.4-0.5-0.7-0.4l-0.3,0.1l0.5-0.9l2.1-0.6
				c0,0,0.1,0,0.1-0.1c0.2-0.1,0.3-0.4,0.2-0.6c-0.1-0.3-0.4-0.5-0.7-0.4l-1.1,0.3l0.8-1.5c0.1-0.3,0.1-0.6-0.2-0.7
				c-0.3-0.1-0.6-0.1-0.7,0.2l-0.8,1.5l-0.3-1.1c-0.1-0.3-0.4-0.5-0.7-0.4c-0.3,0.1-0.5,0.4-0.4,0.7l0.6,2.1l-0.5,0.9l-0.1-0.3
				c-0.1-0.3-0.4-0.5-0.7-0.4s-0.5,0.4-0.4,0.7l0.3,1.3l-0.6,1.1l-0.6-1.1l0.3-1.3c0.1-0.3-0.1-0.6-0.4-0.7s-0.6,0.1-0.7,0.4
				l-0.1,0.3l-0.5-0.9l0.6-2.1c0.1-0.3-0.1-0.6-0.4-0.7c-0.3-0.1-0.6,0.1-0.7,0.4l-0.3,1.1l-0.8-1.5c-0.1-0.3-0.5-0.3-0.7-0.2
				c-0.3,0.1-0.3,0.5-0.2,0.7l0.8,1.5l-1.1-0.3c-0.3-0.1-0.6,0.1-0.7,0.4s0.1,0.6,0.4,0.7l2.1,0.6l0.5,0.9l-0.3-0.1
				c-0.3-0.1-0.6,0.1-0.7,0.4s0.1,0.6,0.4,0.7l1.3,0.3l0.6,1.1h-1.3l-0.9-0.9c-0.2-0.2-0.5-0.2-0.8,0c-0.2,0.2-0.2,0.5,0,0.8
				l0.2,0.2h-1.1l-1.6-1.6c-0.2-0.2-0.5-0.2-0.8,0c-0.2,0.2-0.2,0.5,0,0.8l0.8,0.8h-1.7c-0.3,0-0.5,0.2-0.5,0.5s0.2,0.5,0.5,0.5h1.7
				l-0.8,0.8c-0.2,0.2-0.2,0.5,0,0.8c0.2,0.2,0.4,0.2,0.6,0.1c0,0,0.1,0,0.1-0.1l1.6-1.6h1.1l-0.2,0.2c-0.2,0.2-0.2,0.5,0,0.8
				c0.2,0.2,0.4,0.2,0.6,0.1l0.1-0.1l0.9-0.9h1.3l-0.6,1.1l-1.3,0.3c-0.3,0.1-0.5,0.4-0.4,0.7c0.1,0.3,0.4,0.5,0.7,0.4l0.3-0.1
				l-0.5,0.9l-2.1,0.6c-0.3,0.1-0.5,0.4-0.4,0.7c0.1,0.3,0.4,0.5,0.7,0.4l1.1-0.3l-0.8,1.5c-0.1,0.3-0.1,0.6,0.2,0.7
				c0.2,0.1,0.4,0.1,0.5,0c0.1,0,0.1-0.1,0.2-0.2l0.8-1.5l0.3,1.1c0.1,0.3,0.4,0.5,0.7,0.4c0,0,0.1,0,0.1-0.1
				C220.7,121.8,220.8,121.5,220.7,121.3z"/>
			
				<linearGradient id="SVGID_3_" gradientUnits="userSpaceOnUse" x1="147.4687" y1="117.185" x2="159.0544" y2="84.3586" gradientTransform="matrix(1 0 0 -1 0 252)">
				<stop  offset="0" style="stop-color:#404B71"/>
				<stop  offset="0.6044" style="stop-color:#3C476E"/>
				<stop  offset="1" style="stop-color:#354169"/>
			</linearGradient>
			<path class="st9" d="M150,164.5l-1.2-4.6l1.1-2l0.2,0.6c0.2,0.6,0.8,1,1.4,0.8c0.1,0,0.2-0.1,0.3-0.1c0.4-0.3,0.7-0.8,0.5-1.3
				l-0.7-2.8l1.4-2.4l1.4,2.4l-0.8,2.8c-0.2,0.6,0.2,1.2,0.8,1.4c0.3,0.1,0.6,0,0.9-0.1s0.5-0.4,0.5-0.7l0.2-0.6l1.1,2l-1.2,4.6
				c-0.2,0.6,0.2,1.2,0.8,1.4c0.3,0.1,0.6,0,0.9-0.1c0.3-0.1,0.5-0.4,0.5-0.7l0.6-2.4l1.8,3.2c0.3,0.5,1,0.7,1.6,0.4
				c0.5-0.3,0.7-1,0.4-1.6l-1.8-3.2l2.4,0.6c0.3,0.1,0.6,0,0.9-0.1s0.5-0.4,0.5-0.7c0.2-0.6-0.2-1.2-0.8-1.4l-4.6-1.2l-1.1-2
				l0.6,0.2c0.3,0.1,0.6,0,0.9-0.1c0.3-0.1,0.5-0.4,0.5-0.7c0.2-0.6-0.2-1.2-0.8-1.4l-2.8-0.7l-1.4-2.4h2.8l2,2
				c0.4,0.4,0.9,0.4,1.4,0.2c0.1-0.1,0.2-0.1,0.2-0.2c0.4-0.4,0.4-1.2,0-1.6l-0.4-0.4h2.3l3.4,3.4c0.4,0.4,0.9,0.4,1.4,0.2
				c0.1-0.1,0.2-0.1,0.2-0.2c0.4-0.4,0.4-1.2,0-1.6l-1.8-1.8h3.6c0.2,0,0.4-0.1,0.6-0.2c0.3-0.2,0.6-0.6,0.6-1
				c0-0.6-0.5-1.2-1.2-1.2h-3.6l1.8-1.8c0.4-0.4,0.4-1.2,0-1.6c-0.5-0.5-1.2-0.4-1.6,0l-3.4,3.4H161l0.4-0.4c0.4-0.4,0.4-1.2,0-1.6
				c-0.5-0.4-1.2-0.4-1.6,0l-2,2H155l1.4-2.4l2.8-0.7c0.1,0,0.2-0.1,0.3-0.1c0.4-0.3,0.7-0.8,0.5-1.3c-0.2-0.6-0.8-1-1.4-0.8
				l-0.6,0.2l1.1-2l4.6-1.2c0.1,0,0.2-0.1,0.3-0.1c0.4-0.3,0.7-0.8,0.5-1.3c-0.2-0.6-0.8-1-1.4-0.8l-2.4,0.6l1.8-3.2
				c0.3-0.6,0.1-1.3-0.4-1.6c-0.5-0.3-1.3-0.1-1.6,0.4l-1.8,3.2l-0.6-2.4c-0.2-0.6-0.8-1-1.4-0.8c-0.6,0.2-1,0.8-0.8,1.4l1.2,4.6
				l-1.1,2l-0.2-0.6c-0.2-0.6-0.8-1-1.4-0.8c-0.6,0.2-1,0.8-0.8,1.4l0.7,2.8l-1.4,2.4l-1.4-2.4l0.7-2.8c0.2-0.6-0.2-1.2-0.8-1.4
				c-0.6-0.2-1.2,0.2-1.4,0.8l-0.2,0.6l-1.1-2l1.2-4.6c0.2-0.6-0.2-1.2-0.8-1.4c-0.6-0.2-1.2,0.2-1.4,0.8l-0.6,2.4l-1.8-3.2
				c-0.3-0.5-1-0.7-1.6-0.4c-0.6,0.3-0.7,1-0.4,1.6l1.8,3.2l-2.4-0.6c-0.6-0.2-1.2,0.2-1.4,0.8s0.2,1.2,0.8,1.4l4.6,1.2l1.1,2
				l-0.6-0.2c-0.6-0.2-1.2,0.2-1.4,0.8c-0.2,0.6,0.2,1.2,0.8,1.4l2.8,0.7l1.4,2.4H148l-2-2c-0.4-0.5-1.2-0.4-1.6,0
				c-0.4,0.5-0.4,1.2,0,1.6l0.4,0.4h-2.3l-3.4-3.4c-0.4-0.4-1.2-0.4-1.6,0s-0.4,1.2,0,1.6l1.8,1.8h-3.6c-0.6,0-1.1,0.5-1.1,1.1
				s0.5,1.1,1.1,1.1h3.6l-1.8,1.8c-0.4,0.5-0.4,1.2,0,1.6c0.4,0.4,0.9,0.4,1.4,0.2c0.1,0,0.2-0.1,0.2-0.2l3.4-3.4h2.3l-0.4,0.4
				c-0.4,0.4-0.4,1.2,0,1.6c0.4,0.4,0.9,0.4,1.4,0.2c0.1,0,0.2-0.1,0.2-0.2l2-2h2.8l-1.4,2.4l-2.8,0.7c-0.6,0.2-1,0.8-0.8,1.4
				c0.2,0.6,0.8,1,1.4,0.8l0.6-0.2l-1.1,2l-4.6,1.2c-0.6,0.2-1,0.8-0.8,1.4c0.2,0.6,0.8,1,1.4,0.8l2.4-0.6l-1.8,3.2
				c-0.3,0.6-0.1,1.3,0.4,1.6c0.4,0.2,0.8,0.2,1.2,0c0.2-0.1,0.3-0.2,0.4-0.4l1.8-3.2l0.6,2.4c0.2,0.6,0.8,1,1.4,0.8
				c0.1,0,0.2-0.1,0.3-0.1C149.9,165.6,150.1,165,150,164.5z"/>
			
				<linearGradient id="SVGID_4_" gradientUnits="userSpaceOnUse" x1="277.6101" y1="114.5316" x2="309.9629" y2="38.8123" gradientTransform="matrix(1 0 0 -1 0 252)">
				<stop  offset="0" style="stop-color:#404B71"/>
				<stop  offset="0.6044" style="stop-color:#3C476E"/>
				<stop  offset="1" style="stop-color:#354169"/>
			</linearGradient>
			<path class="st10" d="M330.3,171.4h-7l3.4-3.4c0.9-0.9,0.9-2.3,0-3.1c-0.9-0.9-2.3-0.9-3.1,0l-6.5,6.5h-4.4l1.9-1.9
				c0.9-0.9,0.9-2.3,0-3.1c-0.9-0.9-2.3-0.9-3.1,0l-5.1,5.1h-4.3l0.1-0.1c0.8-0.8,0.9-2.2,0.1-3c-0.3-1.1-1.5-1.8-2.7-1.5l-0.2,0.1
				l2.1-3.7l6.9-1.9c0.2,0,0.4-0.1,0.5-0.2c0.8-0.5,1.3-1.5,1-2.5c-0.3-1.2-1.5-1.9-2.7-1.6l-2.6,0.7l2.2-3.8l8.9-2.4
				c0.2-0.1,0.4-0.1,0.5-0.2c0.8-0.5,1.3-1.5,1-2.5c-0.3-1.2-1.5-1.9-2.7-1.6l-4.6,1.2l3.5-6.1c0.6-1.1,0.2-2.4-0.8-3
				c-1.1-0.6-2.4-0.2-3,0.8l-3.5,6.1l-1.2-4.6c-0.3-1.2-1.5-1.9-2.7-1.6c-1.2,0.3-1.9,1.5-1.6,2.7l2.4,8.9l-2.2,3.8l-0.7-2.6
				c-0.3-1.2-1.5-1.9-2.7-1.6c-1.2,0.3-1.9,1.5-1.6,2.7l1.9,6.9l-2.1,3.7v-0.2c-0.3-1.2-1.5-1.8-2.6-1.6c-1.1-0.2-2.3,0.4-2.6,1.6
				v0.2l-2.1-3.7l1.9-6.9c0.3-1.2-0.4-2.4-1.6-2.7c-1.2-0.3-2.4,0.4-2.7,1.6l-0.7,2.6l-2.2-3.8l2.4-8.9c0.3-1.2-0.4-2.4-1.6-2.7
				s-2.4,0.4-2.7,1.6l-1.2,4.6l-3.5-6.1c-0.6-1.1-2-1.4-3-0.8c-1.1,0.6-1.4,2-0.8,3l3.5,6.1l-4.6-1.2c-1.2-0.3-2.4,0.4-2.7,1.6
				c-0.3,1.2,0.4,2.4,1.6,2.7l8.9,2.4l2.2,3.8l-2.6-0.7c-1.2-0.3-2.4,0.4-2.7,1.6c-0.3,1.2,0.4,2.4,1.6,2.7l6.9,1.9l2.1,3.7h-0.2
				c-1.1-0.3-2.3,0.3-2.6,1.4c-0.9,0.9-0.8,2.3,0,3.1l0.1,0.1h-4.3l-5.1-5.1c-0.9-0.9-2.3-0.9-3.1,0c-0.9,0.9-0.9,2.3,0,3.1l1.9,1.9
				h-4.4l-6.5-6.5c-0.9-0.9-2.3-0.9-3.1,0c-0.9,0.9-0.9,2.3,0,3.1l3.4,3.4h-7c-1.2,0-2.2,1-2.2,2.2s1,2.2,2.2,2.2h7l-3.4,3.4
				c-0.9,0.9-0.9,2.3,0,3.1c0.7,0.7,1.8,0.8,2.7,0.4c0.2-0.1,0.3-0.2,0.5-0.4l6.5-6.5h4.4l-1.9,1.9c-0.9,0.9-0.9,2.3,0,3.1
				c0.7,0.7,1.8,0.8,2.7,0.4c0.2-0.1,0.3-0.2,0.5-0.4l5.1-5.1h4.3l-0.1,0.1c-0.8,0.8-0.9,2.2-0.1,3c0.3,1.1,1.5,1.8,2.7,1.5h0.2
				l-2.1,3.7L278,186c-1.2,0.3-1.9,1.5-1.6,2.7s1.5,1.9,2.7,1.6l2.6-0.7l-2.2,3.8l-8.9,2.4c-1.2,0.3-1.9,1.5-1.6,2.7
				c0.3,1.2,1.5,1.9,2.7,1.6l4.6-1.2l-3.5,6.1c-0.6,1.1-0.2,2.4,0.8,3c0.7,0.4,1.6,0.4,2.2,0c0.3-0.2,0.6-0.5,0.8-0.8l3.5-6.1
				l1.2,4.6c0.3,1.2,1.5,1.9,2.7,1.6c0.2-0.1,0.4-0.1,0.5-0.2c0.8-0.5,1.3-1.5,1-2.5l-2.4-8.9l2.2-3.8l0.7,2.6
				c0.3,1.2,1.5,1.9,2.7,1.6c0.2,0,0.4-0.1,0.5-0.2c0.8-0.5,1.3-1.5,1-2.5l-1.9-6.9l2.1-3.7v0.2c0.3,1.2,1.5,1.8,2.6,1.6
				c0.6,0.1,1.1,0,1.6-0.2c0.5-0.3,0.9-0.8,1-1.3v-0.2l2.1,3.7l-1.9,6.9c-0.3,1.2,0.4,2.4,1.6,2.7c0.6,0.2,1.2,0.1,1.7-0.2
				s0.9-0.8,1-1.3l0.7-2.6l2.2,3.8l-2.4,8.9c-0.3,1.2,0.4,2.4,1.6,2.7c0.6,0.2,1.2,0.1,1.7-0.2s0.9-0.8,1-1.3l1.2-4.6l3.5,6.1
				c0.6,1.1,2,1.4,3,0.8c1.1-0.6,1.4-2,0.8-3l-3.5-6.1l4.6,1.2c0.6,0.2,1.2,0.1,1.7-0.2s0.9-0.8,1-1.3c0.3-1.2-0.4-2.4-1.6-2.7
				l-8.9-2.4l-2.2-3.8l2.6,0.7c0.6,0.2,1.2,0.1,1.7-0.2s0.9-0.8,1-1.3c0.3-1.2-0.4-2.4-1.6-2.7l-6.9-1.9l-2.1-3.7h0.2
				c0.6,0.2,1.2,0.1,1.7-0.2c0.4-0.3,0.8-0.7,1-1.2c0.9-0.9,0.8-2.3,0-3.1l-0.1-0.1h4.3l5.1,5.1c0.7,0.7,1.8,0.8,2.7,0.4
				c0.2-0.1,0.3-0.2,0.5-0.4c0.9-0.9,0.9-2.3,0-3.1l-1.9-1.9h4.4l6.5,6.5c0.7,0.7,1.8,0.8,2.7,0.4c0.2-0.1,0.3-0.2,0.5-0.4
				c0.9-0.9,0.9-2.3,0-3.1l-3.4-3.4h7c0.4,0,0.8-0.1,1.1-0.3c0.7-0.4,1.1-1.1,1.1-1.9C332.5,172.4,331.5,171.4,330.3,171.4z
				 M294.4,176.1c-1.4,0.8-3.1,0.3-3.9-1c-0.8-1.4-0.3-3.1,1-3.9c1.4-0.8,3.1-0.3,3.9,1C296.2,173.6,295.7,175.3,294.4,176.1z"/>
			
				<linearGradient id="SVGID_5_" gradientUnits="userSpaceOnUse" x1="232.6434" y1="208.4031" x2="246.0099" y2="177.1133" gradientTransform="matrix(1 0 0 -1 0 252)">
				<stop  offset="0" style="stop-color:#404B71"/>
				<stop  offset="0.6044" style="stop-color:#3C476E"/>
				<stop  offset="1" style="stop-color:#354169"/>
			</linearGradient>
			<path class="st11" d="M256.4,59.7h-1.1l0.4-0.6c0.3-0.4,0.2-0.9-0.2-1.1c-0.4-0.3-0.9-0.2-1.1,0.2l-1,1.5h-1.6l2.2-3.2
				c0.3-0.4,0.2-0.9-0.2-1.1c-0.4-0.3-0.9-0.2-1.1,0.2l-2.8,4.1h-1.5l1.3-1.9c0.3-0.4,0.2-0.9-0.2-1.1c-0.4-0.3-0.9-0.2-1.1,0.2
				l-1.9,2.8h-1l0.4-0.6c0.3-0.4,0.2-0.9-0.2-1.1c-0.4-0.3-0.9-0.2-1.1,0.2l-1,1.5h-0.4L242,58l0.2-0.3l1.8-0.2
				c0.4,0,0.8-0.4,0.7-0.9c0-0.4-0.4-0.8-0.9-0.7l-0.7,0.1l0.5-0.9l3.4-0.3c0.4,0,0.8-0.4,0.7-0.9c0-0.4-0.4-0.8-0.9-0.7l-2.3,0.2
				l0.7-1.3l5-0.4c0.4,0,0.8-0.4,0.7-0.9c0-0.4-0.4-0.8-0.9-0.7l-3.8,0.3L247,49l1.8-0.2c0.4,0,0.8-0.4,0.7-0.9
				c0-0.4-0.4-0.8-0.9-0.7l-0.7,0.1l0.6-1c0.2-0.4,0.1-0.9-0.3-1.1c-0.4-0.2-0.9-0.1-1.1,0.3l-0.6,1l-0.3-0.6
				c-0.2-0.4-0.7-0.6-1.1-0.4c-0.4,0.2-0.6,0.7-0.4,1.1l0.8,1.7l-0.8,1.4l-1.6-3.5c-0.2-0.4-0.7-0.6-1.1-0.4
				c-0.4,0.2-0.6,0.7-0.4,1.1l2.1,4.5l-0.7,1.3l-1-2.1c-0.2-0.4-0.7-0.6-1.1-0.4c-0.4,0.2-0.6,0.7-0.4,1.1l1.4,3.1l-0.5,0.9
				l-0.3-0.6c-0.2-0.4-0.7-0.6-1.1-0.4c-0.4,0.2-0.6,0.7-0.4,1.1l0.8,1.7l-0.2,0.3h-1.9l-0.2-0.3l0.8-1.7c0.2-0.4,0-0.9-0.4-1.1
				c-0.4-0.2-0.9,0-1.1,0.4l-0.3,0.6l-0.5-0.9l1.4-3.1c0.2-0.4,0-0.9-0.4-1.1c-0.4-0.2-0.9,0-1.1,0.4l-1,2.1l-0.7-1.3l2.1-4.5
				c0.2-0.4,0-0.9-0.4-1.1c-0.4-0.2-0.9,0-1.1,0.4l-1.6,3.5l-0.8-1.4l0.8-1.7c0.2-0.4,0-0.9-0.4-1.1c-0.4-0.2-0.9,0-1.1,0.4
				l-0.3,0.6l-0.6-1c-0.2-0.4-0.7-0.5-1.1-0.3c-0.4,0.2-0.5,0.7-0.3,1.1l0.6,1l-0.7-0.1c-0.4,0-0.8,0.3-0.9,0.7
				c0,0.4,0.3,0.8,0.7,0.9l1.8,0.2l0.8,1.4l-3.8-0.3c-0.4,0-0.8,0.3-0.9,0.7c0,0.4,0.3,0.8,0.7,0.9l5,0.4l0.7,1.3l-2.3-0.2
				c-0.4,0-0.8,0.3-0.9,0.7c0,0.4,0.3,0.8,0.7,0.9l3.4,0.3l0.5,0.9l-0.7-0.1c-0.4,0-0.8,0.3-0.9,0.7c0,0.4,0.3,0.8,0.7,0.9l1.8,0.2
				l0.2,0.3l-0.9,1.6h0.4l-1-1.5c-0.3-0.4-0.8-0.5-1.1-0.2c-0.4,0.3-0.5,0.8-0.2,1.1l0.4,0.6h-1l-1.9-2.8c-0.3-0.4-0.8-0.5-1.1-0.2
				c-0.4,0.3-0.5,0.8-0.2,1.1l1.3,1.9h-1.5l-2.8-4.1c-0.3-0.4-0.8-0.5-1.1-0.2c-0.4,0.3-0.5,0.8-0.2,1.1l2.2,3.2H226l-1-1.5
				c-0.3-0.4-0.8-0.5-1.1-0.2c-0.4,0.3-0.5,0.8-0.2,1.1l0.4,0.6H223c-0.4,0-0.8,0.4-0.8,0.8c0,0.4,0.4,0.8,0.8,0.8h1.1l-0.4,0.6
				c-0.3,0.4-0.2,0.9,0.2,1.1c0.1,0.1,0.3,0.1,0.5,0.1c0.3,0,0.5-0.1,0.7-0.3l1-1.5h1.6l-2.2,3.2c-0.3,0.4-0.2,0.9,0.2,1.1
				c0.1,0.1,0.3,0.1,0.5,0.1c0.3,0,0.5-0.1,0.7-0.3l2.8-4.1h1.5l-1.3,1.9c-0.3,0.4-0.2,0.9,0.2,1.1c0.1,0.1,0.3,0.1,0.5,0.1
				c0.3,0,0.5-0.1,0.7-0.3l1.9-2.8h1l-0.4,0.6c-0.3,0.4-0.2,0.9,0.2,1.1c0.1,0.1,0.3,0.1,0.5,0.1c0.3,0,0.5-0.1,0.7-0.3l1-1.5h0.4
				l0.9,1.6l-0.2,0.3l-1.8,0.2c-0.4,0-0.8,0.4-0.7,0.9c0,0.4,0.4,0.7,0.8,0.7c0,0,0,0,0.1,0l0.7-0.1l-0.5,0.9l-3.4,0.3
				c-0.4,0-0.8,0.4-0.7,0.9c0,0.4,0.4,0.7,0.8,0.7c0,0,0,0,0.1,0l2.3-0.2l-0.7,1.3l-5,0.4c-0.4,0-0.8,0.4-0.7,0.9
				c0,0.4,0.4,0.7,0.8,0.7c0,0,0,0,0.1,0l3.8-0.3l-0.8,1.4l-1.8,0.2c-0.4,0-0.8,0.4-0.7,0.9c0,0.4,0.4,0.7,0.8,0.7c0,0,0,0,0.1,0
				l0.7-0.1l-0.6,1c-0.2,0.4-0.1,0.9,0.3,1.1c0.1,0.1,0.3,0.1,0.4,0.1c0.3,0,0.6-0.1,0.7-0.4l0.6-1l0.3,0.6c0.1,0.3,0.4,0.5,0.7,0.5
				c0.1,0,0.2,0,0.3-0.1c0.4-0.2,0.6-0.7,0.4-1.1l-0.8-1.7l0.8-1.4l1.6,3.5c0.1,0.3,0.4,0.5,0.7,0.5c0.1,0,0.2,0,0.3-0.1
				c0.4-0.2,0.6-0.7,0.4-1.1l-2.1-4.5l0.7-1.3l1,2.1c0.1,0.3,0.4,0.5,0.7,0.5c0.1,0,0.2,0,0.3-0.1c0.4-0.2,0.6-0.7,0.4-1.1l-1.4-3.1
				l0.5-0.9l0.3,0.6c0.1,0.3,0.4,0.5,0.7,0.5c0.1,0,0.2,0,0.3-0.1c0.4-0.2,0.6-0.7,0.4-1.1l-0.8-1.7l0.2-0.3h1.9l0.2,0.3l-0.8,1.7
				c-0.2,0.4,0,0.9,0.4,1.1c0.1,0.1,0.2,0.1,0.3,0.1c0.3,0,0.6-0.2,0.7-0.5l0.3-0.6l0.5,0.9l-1.4,3.1c-0.2,0.4,0,0.9,0.4,1.1
				c0.1,0.1,0.2,0.1,0.3,0.1c0.3,0,0.6-0.2,0.7-0.5l1-2.1l0.7,1.3l-2.1,4.5c-0.2,0.4,0,0.9,0.4,1.1c0.1,0.1,0.2,0.1,0.3,0.1
				c0.3,0,0.6-0.2,0.7-0.5l1.6-3.5l0.8,1.4l-0.8,1.7c-0.2,0.4,0,0.9,0.4,1.1c0.1,0.1,0.2,0.1,0.3,0.1c0.3,0,0.6-0.2,0.7-0.5l0.3-0.6
				l0.6,1c0.2,0.3,0.4,0.4,0.7,0.4c0.1,0,0.3,0,0.4-0.1c0.4-0.2,0.5-0.7,0.3-1.1l-0.6-1l0.7,0.1c0,0,0,0,0.1,0
				c0.4,0,0.8-0.3,0.8-0.7c0-0.4-0.3-0.8-0.7-0.9l-1.8-0.2l-0.8-1.4l3.8,0.3c0,0,0,0,0.1,0c0.4,0,0.8-0.3,0.8-0.7s-0.3-0.8-0.7-0.9
				l-5-0.4l-0.7-1.3l2.3,0.2c0,0,0,0,0.1,0c0.4,0,0.8-0.3,0.8-0.7c0-0.4-0.3-0.8-0.7-0.9l-3.4-0.3l-0.5-0.9l0.7,0.1c0,0,0,0,0.1,0
				c0.4,0,0.8-0.3,0.8-0.7c0-0.4-0.3-0.8-0.7-0.9l-1.8-0.2l-0.2-0.3l0.9-1.6h0.4l1,1.5c0.2,0.2,0.4,0.3,0.7,0.3c0.2,0,0.3,0,0.5-0.1
				c0.4-0.3,0.5-0.8,0.2-1.1l-0.4-0.6h1l1.9,2.8c0.2,0.2,0.4,0.3,0.7,0.3c0.2,0,0.3,0,0.5-0.1c0.4-0.3,0.5-0.8,0.2-1.1l-1.3-1.9h1.5
				l2.8,4.1c0.2,0.2,0.4,0.3,0.7,0.3c0.2,0,0.3,0,0.5-0.1c0.4-0.3,0.5-0.8,0.2-1.1l-2.2-3.2h1.6l1,1.5c0.2,0.2,0.4,0.3,0.7,0.3
				c0.2,0,0.3,0,0.5-0.1c0.4-0.3,0.5-0.8,0.2-1.1l-0.4-0.6h1.1c0.4,0,0.8-0.4,0.8-0.8C257.2,60,256.8,59.7,256.4,59.7z M238.7,62.1
				l-0.9-1.6l0.9-1.6h1.9l0.9,1.6l-0.9,1.6H238.7z"/>
			<circle class="st2" cx="270.5" cy="39.7" r="3.8"/>
			<circle class="st2" cx="130.7" cy="111.1" r="3.8"/>
			<circle class="st2" cx="136.2" cy="125.7" r="1.7"/>
			<circle class="st2" cx="123.1" cy="134.4" r="1.7"/>
			<circle class="st2" cx="257.2" cy="35.9" r="1.7"/>
			<circle class="st2" cx="287.8" cy="75.8" r="4.2"/>
			<circle class="st2" cx="320" cy="213.3" r="4.2"/>
			<circle class="st2" cx="311.1" cy="86.7" r="3.1"/>
			<circle class="st2" cx="305.1" cy="96.2" r="1.7"/>
			<circle class="st2" cx="276" cy="85.1" r="1.7"/>
			<circle class="st2" cx="364.4" cy="111.1" r="1.7"/>
			<circle class="st2" cx="330" cy="86.7" r="1.7"/>
			<circle class="st2" cx="323.4" cy="99.5" r="1.7"/>
			<circle class="st2" cx="321.7" cy="86.6" r="1.7"/>
			<circle class="st2" cx="330" cy="75.8" r="1.7"/>
			<circle class="st2" cx="374.7" cy="88.4" r="1.7"/>
			<circle class="st2" cx="379.7" cy="81.7" r="1.7"/>
			<circle class="st2" cx="326.7" cy="203.9" r="1.7"/>
			<circle class="st2" cx="339.3" cy="202.2" r="1.7"/>
			<circle class="st2" cx="331.7" cy="211.7" r="1.7"/>
			<circle class="st2" cx="296.2" cy="74.1" r="1.7"/>
			<circle class="st2" cx="303.4" cy="81.7" r="1.7"/>
		</g>
	</g>
</g>
</svg>
