<?xml version="1.0" encoding="utf-8"?>
<!-- Generator: Adobe Illustrator 19.0.0, SVG Export Plug-In . SVG Version: 6.00 Build 0)  -->
<svg version="1.1" xmlns="http://www.w3.org/2000/svg" xmlns:xlink="http://www.w3.org/1999/xlink" x="0px" y="0px"
	 viewBox="0 0 298.5 283.5" style="enable-background:new 0 0 298.5 283.5;" xml:space="preserve">
<style type="text/css">
	.st0{fill:#54A4AF;}
	.st1{fill:#F2F2F2;}
	.st2{fill:#FF1786;}
	.st3{fill:#D5D6D7;}
	.st4{fill:#FFFFFF;}
	.st5{fill:#519E38;}
	.st6{fill:#F9E0B2;}
	.st7{fill:none;stroke:#FFFFFF;stroke-width:4;stroke-miterlimit:10;}
	.st8{fill:#EFEFEF;}
</style>
<g id="Layer_2">
</g>
<g id="kolba_4">
</g>
<g id="kolba_3">
</g>
<g id="kolby">
</g>
<g id="doma">
</g>
<g id="car">
</g>
<g id="butylka_3">
</g>
<g id="butylka_2">
	<path class="st0" d="M249.4,67.4"/>
	<path class="st1" d="M189.5,62.6c1.1,1.5,0.9,3.6-0.6,4.7l-21.3,16.8c-1.5,1.1-3.6,0.9-4.7-0.6l-24.2-30.7
		c-1.1-1.5-0.9-3.6,0.6-4.7l21.3-16.8c1.5-1.1,3.6-0.9,4.7,0.6L189.5,62.6z"/>
	
		<rect x="136.5" y="32.1" transform="matrix(0.7853 -0.6191 0.6191 0.7853 8.9092 99.1566)" class="st1" width="21.9" height="9.2"/>
	<circle class="st2" cx="178.9" cy="64.4" r="2.8"/>
	<circle class="st2" cx="174.6" cy="56.3" r="1.7"/>
	<circle class="st2" cx="166" cy="52" r="2.4"/>
	<circle class="st2" cx="170.2" cy="71.7" r="2.5"/>
	<circle class="st2" cx="166.8" cy="62.5" r="5.5"/>
	<path class="st3" d="M153.6,24.5c0.4,0.5,0.3,1.2-0.2,1.6l-18,14.2c-0.5,0.4-1.2,0.3-1.6-0.2l0,0c-0.4-0.5-0.3-1.2,0.2-1.6l18-14.2
		C152.5,23.9,153.2,24,153.6,24.5L153.6,24.5z"/>
	<path class="st4" d="M149.4,56.1c0.6,0.8,0.5,2-0.3,2.6l0,0c-0.8,0.6-2,0.5-2.6-0.3l-3.8-4.8c-0.6-0.8-0.5-2,0.3-2.6l0,0
		c0.8-0.6,2-0.5,2.6,0.3L149.4,56.1z"/>
	<path class="st1" d="M133.9,79.2L133.9,79.2L133.9,79.2c-0.1-0.2-0.2-0.4-0.3-0.6L128,67.4l-5.5,11.2c-0.1,0.2-0.2,0.4-0.3,0.6l0,0
		h0c-0.3,0.8-0.5,1.6-0.5,2.5c0,3.5,2.8,6.3,6.3,6.3s6.3-2.8,6.3-6.3C134.4,80.8,134.2,80,133.9,79.2z"/>
	<ellipse class="st4" cx="125.3" cy="80.2" rx="1.7" ry="1.8"/>
</g>
<g id="tvorog">
</g>
<g id="butylka_1">
</g>
<g id="vanna_2">
</g>
<g id="sneg">
</g>
<g id="vigimka">
</g>
<g id="vanna_1">
	<rect x="60" y="128.6" class="st5" width="5.3" height="105.1"/>
	<path class="st5" d="M243.1,128.6L243,233.5c0,0,1.3,11.2-7.7,11.2H68c0,0-5-0.3-5-5.8c0-5.5,166.2-2.7,166.2-2.7l7-18.8l1.4-70.8
		l0.3-18.1H243.1z"/>
	<rect x="60" y="174.8" class="st6" width="177.7" height="64.1"/>
	<path class="st5" d="M247,126c0,2.2-1.8,4-4,4H60c-2.2,0-4-1.8-4-4l0,0c0-2.2,1.8-4,4-4h183C245.2,122,247,123.7,247,126L247,126z"
		/>
	<path class="st7" d="M238,235.2c0,2-1.6,3.7-3.7,3.7H63.7c-2,0-3.7-1.6-3.7-3.7V128.6c0-2,1.6-3.7,3.7-3.7h170.6
		c2,0,3.7,1.6,3.7,3.7V235.2z"/>
	<path class="st8" d="M244,123c0,2.2-1.8,4-4,4H57c-2.2,0-4-1.8-4-4l0,0c0-2.2,1.8-4,4-4h183C242.2,119,244,120.7,244,123L244,123z"
		/>
	<path class="st4" d="M76.8,160.8c0,1.7-1.4,3.1-3.1,3.1l0,0c-1.7,0-3.1-1.4-3.1-3.1v-22.8c0-1.7,1.4-3.1,3.1-3.1l0,0
		c1.7,0,3.1,1.4,3.1,3.1V160.8z"/>
</g>
<g id="zakvaska">
</g>
<g id="shariki_2">
</g>
<g id="shariki_1">
</g>
<g id="voronka">
</g>
<g id="gradusnik">
</g>
<g id="kolba_2">
</g>
<g id="kolba_1">
</g>
<g id="probirki">
</g>
<g id="lupa">
</g>
<g id="bidon">
</g>
<g id="blank">
</g>
<g id="clock">
</g>
</svg>
