<?xml version="1.0" encoding="utf-8"?>
<!-- Generator: Adobe Illustrator 19.0.0, SVG Export Plug-In . SVG Version: 6.00 Build 0)  -->
<svg version="1.1" xmlns="http://www.w3.org/2000/svg" xmlns:xlink="http://www.w3.org/1999/xlink" x="0px" y="0px"
	 viewBox="0 0 130 250" style="enable-background:new 0 0 130 250;" xml:space="preserve">
<style type="text/css">
	.st0{fill:#519E38;}
	.st1{fill:#F9E0B2;}
	.st2{fill:#EACD9D;}
	.st3{fill:#FFEED4;}
	.st4{fill:#FFFFFF;}
	.st5{fill:#F37A20;}
	.st6{fill:#62BA47;}
	.st7{fill-rule:evenodd;clip-rule:evenodd;fill:#F37A20;}
	.st8{fill-rule:evenodd;clip-rule:evenodd;fill:#62BA47;}
	.st9{fill:#63B746;}
</style>
<g id="Layer_2">
</g>
<g id="kolba_4">
</g>
<g id="kolba_3">
</g>
<g id="kolby">
</g>
<g id="doma">
</g>
<g id="car">
</g>
<g id="butylka_3">
</g>
<g id="butylka_2">
	<path class="st0" d="M107.8,209.4c0,0,0-61,0-94.2C107.8,82,94,69.3,94,69.3c3.7-20.5-6.2-26.7-6.2-26.7v-7.4h2.1c0,0,0-8,0-10.6
		s-3.7-2.3-3.7-2.3H72.7h-1.2H58c0,0-3.7-0.3-3.7,2.3s0,10.6,0,10.6h2.2v7.4h-0.1c0,0-9.8,6.2-6.2,26.7c0,0-13.8,12.7-13.8,45.8
		c0,33.2,0,94.2,0,94.2s-1.4,20.3,13.5,20.3c4,0,7.4,0,10.2,0c7.7,0,11.1,0,11.1,0h0.7h0.8h0.1H84H84c2.8,0,6.2,0,10.2,0
		c0,0,0,0,0.1,0C109.2,229.7,107.8,209.4,107.8,209.4z"/>
	<path class="st1" d="M99.9,204.6c0,0,0-61,0-94.2c0-33.2-13.8-45.8-13.8-45.8c3.7-20.5-6.2-26.7-6.2-26.7v-7.6H48.7v7.6h-0.1
		c0,0-9.8,6.2-6.2,26.7c0,0-13.8,12.7-13.8,45.8c0,33.2,0,94.2,0,94.2s-1.4,20.3,13.5,20.3c4,0,7.4,0,10.2,0c7.7,0,11.1,0,11.1,0H65
		h11.1c2.8,0,6.2,0,10.2,0C101.3,224.9,99.9,204.6,99.9,204.6z"/>
	<path class="st2" d="M99.8,204.6c0,0,0-61,0-94.2c0-33.2-13.8-45.8-13.8-45.8c3.7-20.5-6.2-26.7-6.2-26.7v-7.6H64.2v194.6H65h11.1
		c2.8,0,6.2,0,10.2,0C101.2,224.9,99.8,204.6,99.8,204.6z"/>
	<path class="st3" d="M40.2,99.5c-0.2,0-0.3,0-0.5,0c-2.2-0.3-3.7-2.3-3.4-4.4c1.8-13.6,8.4-21.9,8.6-22.2c1.4-1.7,3.8-2,5.5-0.6
		c1.7,1.4,2,3.8,0.6,5.5c-0.1,0.1-5.5,7-7,18.3C43.9,98,42.2,99.5,40.2,99.5z"/>
	<path class="st4" d="M78.4,17.5H64.9h-1.2H50.2c0,0-3.7-0.3-3.7,2.3c0,2.6,0,10.6,0,10.6h17.2h1.2H82c0,0,0-8,0-10.6
		C82,17.2,78.4,17.5,78.4,17.5z"/>
	<g>
		<circle class="st5" cx="66.4" cy="141.7" r="19"/>
		<circle class="st6" cx="51.2" cy="158.5" r="6"/>
		<path class="st7" d="M57.4,118.4c0,1.3-1.1,2.4-2.4,2.4c-1.3,0-2.4-1.1-2.4-2.4c0-1.3,1.1-2.4,2.4-2.4
			C56.3,116,57.4,117.1,57.4,118.4L57.4,118.4z"/>
		<path class="st8" d="M57.5,126.6c0,1.7-1.4,3.1-3.1,3.1c-1.7,0-3.1-1.4-3.1-3.1c0-1.7,1.4-3.1,3.1-3.1
			C56.1,123.5,57.5,124.9,57.5,126.6L57.5,126.6z"/>
		<path class="st8" d="M49.2,121.8c0,1-0.8,1.8-1.8,1.8c-1,0-1.9-0.8-1.9-1.8c0-1,0.8-1.9,1.9-1.9C48.3,119.9,49.2,120.8,49.2,121.8
			L49.2,121.8z"/>
		<g>
			<circle class="st6" cx="82.6" cy="124.3" r="10.5"/>
			<g>
				<path class="st4" d="M80,122.8c-0.9,0.1-1.1,1.1-1.1,1.8l0,0l0,0c0,0.1,0,0.2,0,0.3c0,0.3,0,0.6-0.1,0.9c0,0.1-0.1,0.4-0.1,0.4
					c-0.3,0-0.6-0.4-0.6-0.7c-0.2-0.5-0.4-1.1-0.5-1.7c-0.1-0.6-0.2-1.2-0.2-1.9c0-0.3,0-0.5,0-0.8c0-0.1,0-0.2,0-0.3
					c0-0.1,0-0.2,0-0.2c0.1-0.5-0.6,0-0.7,0.2c-0.7,1.2-0.5,2.7-0.5,4c0,0.4,0,0.7-0.1,1.1c0,0.2-0.1,0.7-0.3,0.9
					c-0.1,0.1-0.4,0-0.5,0c-0.2-0.1-0.3-0.3-0.3-0.5c0-0.2-0.3-0.1-0.4,0c-0.1,0.2-0.3,0.4-0.3,0.6c0.1,0.5,0.5,0.9,1,0.7
					c0.8-0.2,1.1-1.2,1.3-1.9c0.1-0.4,0.1-0.7,0.2-1.1c0.1,0.5,0.3,1,0.5,1.5c0.2,0.3,0.5,0.7,0.9,0.6c0.3-0.1,0.6-0.4,0.7-0.8
					c0.2,0.3,0.4,0.6,0.8,0.6c0.4,0,0.8-0.5,1-0.8c0.2-0.4,0.2-0.9,0.2-1.3C81.1,124.1,80.9,122.8,80,122.8z M80.3,125.9
					c0,0.1,0,0.2-0.1,0.3c-0.2,0-0.3-0.3-0.3-0.4c-0.1-0.3-0.2-0.6-0.2-0.9c0-0.3,0-0.7,0-1c0-0.1,0-0.2,0.1-0.2
					c0.4,0.3,0.5,0.8,0.6,1.3C80.4,125.2,80.4,125.5,80.3,125.9z"/>
				<path class="st4" d="M90.4,124.1c-0.9-0.3-1.5,0.9-1.6,1.6c-0.2,0.7-0.4,1.8,0.5,2.2c0.4,0.2,0.9-0.1,1.1-0.4
					c0.3-0.3,0.5-0.7,0.6-1.2C91.1,125.6,91.3,124.4,90.4,124.1z M89.9,127.1c0,0.1-0.1,0.1-0.1,0.2c-0.1-0.1-0.2-0.4-0.2-0.5
					c0-0.3,0-0.7,0-1c0.1-0.3,0.2-0.6,0.3-0.9c0-0.1,0.1-0.1,0.1-0.2c0.4,0.4,0.3,1,0.2,1.5C90.1,126.5,90,126.8,89.9,127.1z"/>
				<path class="st4" d="M87.9,124.2c0.2-0.2,0.3-0.5,0.5-0.7c0.3-0.5,0.7-1.1,0.7-1.8c0-0.6-0.8-0.6-1.3-0.4
					c-0.6,0.3-0.9,0.9-1.1,1.5c-0.2,0.8-0.4,1.6-0.4,2.5v0c-0.3,0.4-0.9,1.1-1.4,0.8c-0.1-0.1-0.2-0.2-0.2-0.4
					c0.4-0.4,0.7-0.8,1-1.3c0.3-0.4,0.5-1.1-0.1-1.4c-0.5-0.3-1,0-1.3,0.4c-0.3,0.4-0.4,0.9-0.5,1.3c0,0.3-0.1,0.7,0,1.1
					c-0.3,0.2-0.6,0.3-0.9,0.2c-0.4-0.1-0.5-0.5-0.6-0.7c-0.1-0.4-0.1-0.9,0-1.3c0-0.1,0.1-0.3,0.1-0.4c0,0,0-0.1,0-0.1
					c0.2,0.1,0.3,0.4,0.4,0.6c0.1,0.3,0.9-0.2,0.8-0.5c-0.1-0.3-0.2-0.6-0.6-0.8c-0.3-0.2-0.8,0.1-1,0.3c-0.6,0.6-0.6,1.4-0.6,2.2
					c0,0.5,0.1,1.1,0.5,1.3c0.6,0.3,1.3,0,1.9-0.3c0.1,0.4,0.4,0.6,0.9,0.5c0.6-0.1,1.1-0.4,1.5-0.8c0,0.4,0.1,0.9,0.4,1.1
					c0.5,0.3,1.1,0,1.4-0.5c0.4-0.5,0.7-1.3,0.4-2C88.4,124.4,88.2,124.2,87.9,124.2z M84.7,123.9c0-0.1,0.1-0.2,0.1-0.3
					c0,0,0,0,0,0c0.2,0.1,0.3,0.4,0.2,0.5c0,0.4-0.3,0.7-0.5,1c0-0.1,0-0.1,0-0.2C84.6,124.6,84.6,124.2,84.7,123.9z M87.8,122.2
					c0.1-0.1,0.1-0.2,0.2-0.4c0,0,0,0,0,0c0.4,0.4,0,1-0.2,1.4c-0.2,0.4-0.4,0.7-0.7,1.1c0.1-0.4,0.1-0.7,0.2-1.1
					C87.5,122.8,87.6,122.5,87.8,122.2z M87.6,126.4c0,0-0.1,0.1-0.1,0.2c0,0-0.1,0-0.1,0c-0.2-0.1-0.2-0.6-0.3-0.8
					c0-0.2,0-0.4,0-0.5c0.1-0.1,0.2-0.2,0.3-0.3c0.2-0.1,0.4,0.1,0.4,0.3C87.9,125.6,87.7,126.1,87.6,126.4z"/>
			</g>
		</g>
		<g>
			<path class="st4" d="M47.1,157.6c0.1-0.3,0.5-0.4,0.7-0.2c0.3,0.2-0.1,0.6-0.3,0.7c-0.2,0.1-0.5,0.4-0.4,0.7
				c0.1,0.2,0.6,0.2,0.7,0.2c0.3,0,0.4,0.2,0.3,0.5c-0.1,0.5-0.8,0.2-1,0c-0.2-0.2-0.6,0.3-0.5,0.5c0.6,0.7,1.5,0.2,1.9-0.5
				c0.2-0.3,0.2-0.7,0-0.9c-0.2-0.2-0.6-0.2-0.9-0.2c-0.1,0-0.1,0-0.1,0.1c0.1-0.1,0.2-0.2,0.4-0.3c0.2-0.1,0.3-0.3,0.4-0.4
				c0.2-0.3,0.2-0.7-0.1-0.9c-0.6-0.4-1.4,0.4-1.6,0.9C46.5,158.1,47,157.8,47.1,157.6L47.1,157.6z"/>
			<path class="st4" d="M50.3,159.7c0.5,1.5,2.7,0.4,2.3-0.9c-0.2-0.6-0.9-0.6-1.5-0.7c-0.3-0.1-0.3-0.3-0.3-0.6
				c0.1-0.3,0.1-0.3-0.1-0.1c0.1,0,0.2,0,0.2-0.1c0.5-0.1,0.9-0.1,1.4,0.1c0.2,0.1,0.6-0.4,0.4-0.5c-0.5-0.3-1.2-0.2-1.7-0.1
				c-0.5,0.1-0.7,0.6-0.7,1.1c0,0.6,0.6,0.7,1,0.8c0.4,0.1,0.7,0.2,0.7,0.6c0.1,0.7-0.7,0.6-1,0.4c-0.2-0.1-0.2-0.3-0.3-0.5
				C50.7,159.1,50.2,159.5,50.3,159.7L50.3,159.7z"/>
			<g>
				<path class="st4" d="M55.4,157.1c-0.6,1-1.4,2-2.1,2.9c-0.3,0.4,0.2,0.4,0.4,0.1c0.8-1,1.6-2,2.2-3.1
					C56.1,156.6,55.5,156.8,55.4,157.1L55.4,157.1z"/>
				<path class="st4" d="M54.2,156.8c-0.4,0-0.7,0.4-0.7,0.7c-0.1,0.3,0.1,0.6,0.5,0.6C54.7,158.2,55.1,156.8,54.2,156.8
					c-0.2,0-0.5,0.4-0.2,0.4c0.2,0,0.3,0.2,0.3,0.3c0,0.1,0,0.1,0,0.2c0,0.1,0,0,0,0c0,0-0.1,0-0.1,0c-0.2,0-0.3-0.2-0.3-0.3
					c0-0.1,0-0.1,0-0.2c0,0,0,0,0,0c0,0,0.1,0,0.1,0C54.2,157.2,54.5,156.8,54.2,156.8z"/>
				<path class="st4" d="M55.3,159c-0.4,0-0.7,0.4-0.7,0.7c-0.1,0.3,0.1,0.6,0.5,0.6C55.8,160.4,56.1,159,55.3,159
					c-0.2,0-0.5,0.4-0.2,0.4c0.2,0,0.3,0.2,0.3,0.3c0,0.1,0,0.1,0,0.2c0,0.1,0,0,0,0c0,0-0.1,0-0.1,0c-0.2,0-0.3-0.2-0.3-0.3
					c0-0.1,0-0.1,0-0.2c0,0,0,0,0,0c0,0,0.1,0,0.1,0C55.2,159.4,55.5,159,55.3,159z"/>
			</g>
			<path class="st4" d="M49.2,161c0.3-0.2,0.4-0.6,0.5-1c0-0.1,0-0.3-0.1-0.3c-0.1-0.1-0.4,0-0.5,0c-0.1,0.1-0.3,0.3-0.3,0.4
				c0,0.2,0.2,0.1,0.3,0.1c0,0,0,0,0,0c0,0,0,0,0,0c0,0.1,0,0.1,0,0.1c0,0.1,0,0.1-0.1,0.2c0,0,0,0,0,0.1c0,0,0,0,0,0c0,0,0,0,0,0.1
				c0.1-0.1,0,0,0,0c-0.1,0.1-0.2,0.3-0.1,0.4C48.9,161.3,49.1,161.1,49.2,161L49.2,161z"/>
		</g>
		<g>
			<g>
				<g>
					<path class="st4" d="M81.1,145.5c-0.2,0-0.5,0.1-0.6,0.2c0,0,0-0.1-0.1-0.1c-0.1-0.3-0.1-0.6-0.1-0.9c0-1,0.3-1.9,0.5-2.8
						c0,0,0,0,0-0.1c0.1-0.6-0.3-1.1-1-1.1c-0.6-0.1-1.2,0.3-1.6,0.7c-0.5,0.5-0.8,1.3-0.9,2c0,0.2-0.3,1.1-0.6,1.1c0,0,0,0-0.1,0
						c-0.2-0.1-0.2-0.5-0.2-0.7c0-0.5,0-0.9-0.2-1.4c-0.2-0.4-0.5-0.4-0.9-0.4c0-0.1,0-0.1,0.1-0.2c0-0.1,0.1-0.1,0.1-0.2
						c0.2-0.3,0.3-0.7,0.6-0.9c0.1,0.1,0.3,0.2,0.4,0.3c0.3,0.4,1.4-0.3,1.1-0.6c-0.4-0.5-0.9-0.6-1.3-0.4c-0.3,0.1-0.6,0.2-0.9,0.5
						c0,0-0.1,0.1-0.1,0.1c0-0.6,0-1.2,0-1.7c0-0.1,0-0.1-0.1-0.1c-0.3-0.1-1.1,0.3-1.1,0.7c0.1,1.2-0.1,2.3-0.5,3.5
						c-0.1,0.3-0.6,0.9-0.6,0.9s0,0,0,0c-0.1-0.2-0.1-0.4-0.1-0.6c0-0.4,0-0.8,0-1.3c0.1-0.6,0.1-1.2,0.3-1.8
						c0.1-0.2,0.2-0.4,0.2-0.6c0.1-0.2,0-0.4-0.3-0.4c-0.3,0-0.6,0.3-0.7,0.5c-0.1,0.2-0.2,0.5-0.3,0.7c-0.1,0.3-0.3,0.5-0.5,0.8
						c-0.2,0.2-0.3,0.3-0.6,0.5c0,0,0,0-0.1,0c0-0.9,0-1.8,0-2.6c0-0.1,0-0.2-0.1-0.2c0,0-0.1,0-0.1,0c-0.1,0-0.2,0-0.3,0
						c-0.2,0.1-0.4,0.2-0.5,0.4c-0.1,0.1-0.1,0.2-0.1,0.3c-0.3,1.1-0.7,2.1-1.2,3c-0.2,0.4-0.5,1.1-1,0.6c-0.1-0.1-0.2-0.3-0.3-0.5
						c0.7-0.7,1.3-1.6,1.5-2.5c0.2-0.6-0.1-1.3-0.9-1.4c-0.8-0.1-1.3,0.7-1.6,1.2c-0.4,0.8-0.4,1.7-0.3,2.5c0,0.1,0,0.2,0.1,0.4
						c-0.1,0.1-0.2,0.2-0.3,0.2c-0.5,0.4-0.8,0.2-1-0.4c-0.3-0.6-0.3-1.4-0.2-2c0-0.2,0-0.5,0.1-0.7c0-0.1,0.1-0.2,0.1-0.3
						c0,0,0-0.1,0-0.1c0.1,0.1,0.3,0.2,0.3,0.3c0.2,0.3,1.2-0.5,1-0.9c-0.5-0.8-1.5-0.4-2,0.2c-0.2,0.3-0.4,0.7-0.5,1.1
						c-0.1,0.2-0.1,0.4-0.2,0.6c0-0.7,0-1.5,0-2.2c0-0.6-1,0.2-1,0.5c-0.1,0.3-0.2,0.7-0.3,1c-0.1-0.3-0.2-0.6-0.4-0.9
						c-0.5-0.7-1.3-0.6-1.8,0.1c-0.1,0.1-0.4,0.5-0.2,0.7c0.2,0.1,0.5-0.1,0.6-0.2c0,0,0,0,0.1,0c0.1,0,0.1,0.1,0.2,0.1
						c0.1,0.1,0.2,0.3,0.3,0.4c0.2,0.4,0.3,0.9,0.4,1.4c0.1,0.5,0.1,1,0,1.4c0,0,0,0.1,0,0.1c0,0.1,0,0.1,0,0.2
						c-0.1,0-0.2-0.1-0.3-0.2c0,0,0-0.1-0.1-0.1c-0.1-0.2-0.5,0.1-0.7,0.4c0,0,0,0.1-0.1,0.1c0,0-0.1,0-0.1,0c-0.1,0-0.1,0-0.2,0
						c-0.2-0.1-0.2-0.3-0.3-0.4c-0.2-0.5-0.3-1-0.4-1.5c-0.1-0.8-0.1-1.6-0.1-2.3c0-0.3-0.4-0.2-0.5-0.1c0,0-0.1,0-0.1,0.1
						c-0.3-0.1-0.7,0-1.1,0.3c-0.9,0.7-1.2,1.9-0.9,3c0.2,0.6,0.7,0.9,1.3,0.7c0.1,0,0.2-0.1,0.3-0.1c0,0.3-0.1,0.6-0.2,0.8
						c-0.1,0.3-0.6,0-0.7-0.2c-0.2-0.4-1,0.6-0.9,1c0.4,0.9,1.5,0.3,1.9-0.3c0.1-0.1,0.2-0.2,0.2-0.3c0.1,0.2,0.2,0.4,0.4,0.5
						c0.4,0.3,0.9,0.1,1.3-0.2c0.6,0.5,1.4-0.2,1.7-0.9c0.2-0.3,0.3-0.6,0.3-0.9c0.1-0.3,0.1-0.5,0.2-0.8c0,0.8,0,1.5,0,2.3
						c0,0.3,0.3,0.2,0.5,0.1c0.3-0.2,0.5-0.4,0.5-0.7c0-0.3,0.1-0.6,0.2-0.8c0.1,0.8,0.4,1.5,1.2,1.5c0.4,0,0.8-0.3,1-0.5
						c0.2-0.1,0.3-0.2,0.5-0.4c0.1,0.3,0.4,0.7,0.7,0.8c1,0.2,1.7-0.8,2.2-1.5c0.1-0.2,0.3-0.5,0.4-0.7c0,0.7,0,1.4-0.1,2.2
						c0,0.3,0.3,0.3,0.5,0.2c0.3-0.1,0.5-0.3,0.6-0.6c0.1-0.5,0.2-0.9,0.4-1.3c0.1-0.2,0.2-0.2,0.5-0.5c0,0,0,0,0,0
						c0,0.3,0,0.5,0,0.8c0,0.4-0.2,2,0.6,2c0.5,0,1-0.3,1.4-0.8c0,0.3-0.1,0.5-0.1,0.8c0,0.3,0.3,0.3,0.4,0.2
						c0.3-0.1,0.6-0.3,0.6-0.6c0.1-0.5,0.2-1,0.4-1.4c0.6,0.3,0.1,1.8,0.5,2.2c0.3,0.4,0.9,0.3,1.2,0.1c0.1-0.1,0.3-0.1,0.4-0.2
						c0,0.3,0.2,0.6,0.4,0.8c0.4,0.4,1.1,0.2,1.5,0c0,0,0.1-0.1,0.1-0.1c0,0.1,0,0.2,0,0.3c0.3,1.1,1.6,0.6,2,0
						C81.4,145.8,81.3,145.6,81.1,145.5z M57.7,141.9c-0.2-0.3-0.2-1.1,0-1.4c0,0.1,0.1,0,0.3,0c0.2,0.1,0.3,0.3,0.3,0.5
						c0,0.5,0,0.9,0.1,1.4C58,142.4,57.8,142.2,57.7,141.9z M67.5,140.2c0-0.2,0.1-0.4,0.2-0.6c0.1,0,0.1,0,0.1,0.1
						c0.3,0.2,0.3,0.7,0.2,1c-0.1,0.4-0.3,0.8-0.6,1.1c0-0.2,0-0.4,0-0.6C67.4,140.9,67.4,140.6,67.5,140.2z M78.7,145.2
						c0,0-0.1,0-0.2-0.1c-0.2-0.1-0.2-0.5-0.2-0.7c-0.1-0.8,0.1-1.6,0.4-2.2c0.1-0.2,0.3-0.5,0.4-0.6c0,0,0,0,0.1,0
						c0.1,0,0.1,0,0.2,0c0.3,0.1,0.3,0.3,0.3,0.5c-0.2,1-0.4,1.9-0.8,2.8C78.8,145,78.8,145.1,78.7,145.2z M80.3,145.9
						C80.3,145.9,80.3,145.9,80.3,145.9C80.3,145.9,80.3,145.9,80.3,145.9C80.3,145.9,80.3,145.9,80.3,145.9z"/>
					<path class="st4" d="M56.4,140.4c0.4-1.1,0.2-2-0.4-2.9c-0.6-0.8-2.1-0.8-3-0.3c-1.3,0.6-2.3,1.9-2.4,3.4
						c0,0.3,0.2,0.4,0.4,0.2c0.3-0.2,0.5-0.6,0.5-0.9c0.1-0.9,0.6-1.4,1.5-1.7c0.7-0.3,1.6-0.2,2,0.2c0.6,0.7,1.1,2.7-0.3,2.8
						c0,0,0,0,0,0c-0.5-0.8-0.9-1.6-1.1-2.5c-0.1-0.5-1,0.5-1,0.9c0.3,1.5,1.5,2.8,1.7,4.3c0.1,0.5,0,1.3-0.7,1.4
						c-0.4,0.1-1-0.1-1.1-0.6c-0.1-0.6-0.9,0.5-0.8,0.9c0.1,0.7,0.8,1,1.3,0.9c0.9-0.1,1.6-0.9,1.9-1.8c0.3-0.8,0.3-1.8,0.1-2.6
						C55.7,141.8,56.2,141.1,56.4,140.4z"/>
				</g>
			</g>
		</g>
		<g>
			<path class="st9" d="M43.4,133.6c-0.1,0-0.2-0.2-0.3-0.2c-0.4-0.1-0.7,0.1-1.1,0.1c-0.9,0-1.2,0-2.3-0.3c0-0.9,0.5-1.5,0.8-2.2
				c0.2-0.6-0.1-1.4-0.1-2.2c0-0.4,0-0.9,0-1.3c-0.3,0.3-0.2,1.2-0.2,1.6c-0.1-0.6-0.1-1.3-0.3-1.8c-0.1,0.5,0,1.3,0,1.8
				c-0.2-0.5-0.2-1.1-0.4-1.6c-0.2,0.5,0.2,1.3,0.1,1.7c-0.2-0.4-0.3-1-0.5-1.4c-0.1,0.6,0.2,1.1,0.2,1.5c-0.2-0.4-0.3-0.8-0.6-1.1
				c0,0.4,0.2,0.9,0.4,1.2c-0.3-0.1-0.3-0.4-0.6-0.6c0,0.3,0.2,0.5,0.3,0.7c-0.2-0.1-0.3-0.3-0.5-0.4c0,0.3,0.2,0.3,0.3,0.6
				c-0.1-0.1-0.2-0.2-0.4-0.3c0,0.2,0.3,0.4,0.3,0.5c0,0-0.2-0.1-0.2,0c0,0,0.2,0.1,0.1,0.2c-0.1,0-0.1,0-0.2,0
				c0,0.1,0.2,0.1,0.1,0.3c-0.1,0-0.1-0.1-0.1,0c0,0.1,0.1,0.1,0.1,0.2c-0.8,0.8-0.4,1.7-0.4,2.6c0-0.1-0.6-0.3-1.2-0.5
				c-0.3-0.1-0.3-0.5-0.6-0.6c0-0.1,0.1,0,0.1-0.1c-0.1,0-0.2-0.1-0.2-0.2c0.1,0,0.3,0.1,0.3,0c-0.1-0.1-0.5-0.2-0.4-0.3
				c0.2,0,0.4,0.1,0.5,0.1c-0.2-0.1-0.6-0.3-0.6-0.5c0.2,0.1,0.5,0.3,0.7,0.2c-0.3-0.2-0.8-0.4-0.9-0.7c0.2,0.1,0.5,0.4,0.8,0.4
				c-0.4-0.1-0.7-0.6-1.1-0.5c0.2,0.4,0.7,0.5,0.9,0.8c-0.3-0.2-0.6-0.3-0.9-0.5c0.1,0.4,0.5,0.5,0.8,0.7c-0.3,0-0.4-0.2-0.7-0.2
				c0.1,0.3,0.5,0.2,0.7,0.5c-0.1-0.1-0.3,0-0.5,0c0,0.2,0.3,0.1,0.5,0.3c-0.2,0-0.3,0-0.4,0.1c0.1,0.1,0.3,0.1,0.4,0.2
				c-0.1,0-0.2,0-0.2,0.1c0,0.1,0.2,0,0.3,0.1c-0.1,0-0.1,0.1-0.1,0.1c0.1,0,0.2,0,0.2,0c0,0-0.1,0-0.1,0.1c0.4,0.2,0.6,0.9,1.2,1.1
				c-0.3,0.2,0.3,0.4-3.4,1.7c0.1,0,1.6-0.4,2-0.5c0.4-0.2,0.9-0.3,1.3-0.4c0.1,0,0.2-0.1,0.3-0.1c0.8-0.1,1.4,0.1,2.2-0.4
				c-0.6,0.1-1.5,0.2-1.9-0.1c0.5-0.8,0.2-2.7,0.5-3.2c0.4-0.4,1-1.7,1.8-0.6c0.1,0.2,0.1,0.4-0.1,0.9c-0.3,0.6-0.5,0.8-0.5,2
				c0,0.2,0,0.5-0.4,0.5c1.6,0.3,2,0.2,3,0c0.3,0,0.7-0.3,0.8,0c0,0.1-0.3,0.1-0.6,0.1c-0.4,0,0.2,0.2,0.4,0.1
				c0.1,0,0.9-0.1,1.4-0.2C43.8,133.7,43.6,133.7,43.4,133.6z"/>
			<path class="st9" d="M38.7,125.5c-3.6,0-6.6,2.9-6.6,6.6c0,3.6,2.9,6.6,6.6,6.6c3.6,0,6.6-2.9,6.6-6.6
				C45.3,128.5,42.3,125.5,38.7,125.5 M38.7,125.8c3.5,0,6.3,2.8,6.3,6.3c0,3.5-2.8,6.3-6.3,6.3c-3.5,0-6.3-2.8-6.3-6.3
				C32.4,128.6,35.2,125.8,38.7,125.8"/>
		</g>
	</g>
</g>
<g id="tvorog">
</g>
<g id="butylka_1">
</g>
<g id="vanna_2">
</g>
<g id="sneg">
</g>
<g id="vigimka">
</g>
<g id="sneg_1_">
</g>
<g id="zakvaska">
</g>
<g id="shariki_2">
</g>
<g id="shariki_1">
</g>
<g id="voronka">
</g>
<g id="gradusnik">
</g>
<g id="kolba_2">
</g>
<g id="kolba_1">
</g>
<g id="probirki">
</g>
<g id="lupa">
</g>
<g id="bidon">
</g>
<g id="blank">
</g>
</svg>
