<?xml version="1.0" encoding="utf-8"?>
<!-- Generator: Adobe Illustrator 19.0.0, SVG Export Plug-In . SVG Version: 6.00 Build 0)  -->
<svg version="1.1" xmlns="http://www.w3.org/2000/svg" xmlns:xlink="http://www.w3.org/1999/xlink" x="0px" y="0px"
	 viewBox="0 0 370.5 300.9" style="enable-background:new 0 0 370.5 300.9;" xml:space="preserve">
<style type="text/css">
	.st0{fill:#519E38;}
	.st1{fill:#F9E0B2;}
	.st2{fill:#EACD9D;}
	.st3{fill:#FFEED4;}
	.st4{fill:#FFFFFF;}
	.st5{fill:#F37A20;}
	.st6{fill:#62BA47;}
	.st7{fill-rule:evenodd;clip-rule:evenodd;fill:#F37A20;}
	.st8{fill-rule:evenodd;clip-rule:evenodd;fill:#62BA47;}
	.st9{fill:#63B746;}
	.st10{fill:url(#SVGID_1_);}
	.st11{fill:url(#SVGID_2_);}
	.st12{fill:url(#SVGID_3_);}
	.st13{fill:url(#SVGID_4_);}
	.st14{fill:url(#SVGID_5_);}
</style>
<g id="Layer_2">
</g>
<g id="kolba_4">
</g>
<g id="kolba_3">
</g>
<g id="kolby">
</g>
<g id="doma">
</g>
<g id="car">
</g>
<g id="butylka_3">
</g>
<g id="butylka_2">
	<path class="st0" d="M224.3,228.7c0,0,0-61,0-94.2c0-33.2-13.8-45.8-13.8-45.8c3.7-20.5-6.2-26.7-6.2-26.7v-7.4h2.1c0,0,0-8,0-10.6
		s-3.7-2.3-3.7-2.3h-13.5h-1.2h-13.5c0,0-3.7-0.3-3.7,2.3s0,10.6,0,10.6h2.2v7.4H173c0,0-9.8,6.2-6.2,26.7c0,0-13.8,12.7-13.8,45.8
		c0,33.2,0,94.2,0,94.2s-1.4,20.3,13.5,20.3c4,0,7.4,0,10.2,0c7.7,0,11.1,0,11.1,0h0.7h0.8h0.1h11.1h0.1c2.8,0,6.2,0,10.2,0
		c0,0,0,0,0.1,0C225.7,249,224.3,228.7,224.3,228.7z"/>
	<path class="st1" d="M216.5,223.9c0,0,0-61,0-94.2c0-33.2-13.8-45.8-13.8-45.8c3.7-20.5-6.2-26.7-6.2-26.7v-7.6h-31.2v7.6h-0.1
		c0,0-9.8,6.2-6.2,26.7c0,0-13.8,12.7-13.8,45.8c0,33.2,0,94.2,0,94.2s-1.4,20.3,13.5,20.3c4,0,7.4,0,10.2,0c7.7,0,11.1,0,11.1,0
		h1.5h11.1c2.8,0,6.2,0,10.2,0C217.9,244.2,216.5,223.9,216.5,223.9z"/>
	<path class="st2" d="M216.4,223.9c0,0,0-61,0-94.2c0-33.2-13.8-45.8-13.8-45.8c3.7-20.5-6.2-26.7-6.2-26.7v-7.6h-15.7v194.6h0.8
		h11.1c2.8,0,6.2,0,10.2,0C217.8,244.2,216.4,223.9,216.4,223.9z"/>
	<path class="st3" d="M156.8,118.8c-0.2,0-0.3,0-0.5,0c-2.2-0.3-3.7-2.3-3.4-4.4c1.8-13.6,8.4-21.9,8.6-22.2c1.4-1.7,3.8-2,5.5-0.6
		c1.7,1.4,2,3.8,0.6,5.5c-0.1,0.1-5.5,7-7,18.3C160.4,117.3,158.7,118.8,156.8,118.8z"/>
	<path class="st4" d="M194.9,36.8h-13.5h-1.2h-13.5c0,0-3.7-0.3-3.7,2.3c0,2.6,0,10.6,0,10.6h17.2h1.2h17.2c0,0,0-8,0-10.6
		C198.6,36.5,194.9,36.8,194.9,36.8z"/>
	<g>
		<circle class="st5" cx="183" cy="161" r="19"/>
		<circle class="st6" cx="167.8" cy="177.8" r="6"/>
		<path class="st7" d="M174,137.7c0,1.3-1.1,2.4-2.4,2.4c-1.3,0-2.4-1.1-2.4-2.4c0-1.3,1.1-2.4,2.4-2.4
			C172.9,135.3,174,136.4,174,137.7L174,137.7z"/>
		<path class="st8" d="M174.1,145.9c0,1.7-1.4,3.1-3.1,3.1c-1.7,0-3.1-1.4-3.1-3.1c0-1.7,1.4-3.1,3.1-3.1
			C172.7,142.8,174.1,144.2,174.1,145.9L174.1,145.9z"/>
		<path class="st8" d="M165.7,141.1c0,1-0.8,1.8-1.8,1.8c-1,0-1.9-0.8-1.9-1.8c0-1,0.8-1.9,1.9-1.9
			C164.9,139.2,165.7,140.1,165.7,141.1L165.7,141.1z"/>
		<g>
			<circle class="st6" cx="199.2" cy="143.6" r="10.5"/>
			<g>
				<path class="st4" d="M196.6,142.2c-0.9,0.1-1.1,1.1-1.1,1.8l0,0l0,0c0,0.1,0,0.2,0,0.3c0,0.3,0,0.6-0.1,0.9
					c0,0.1-0.1,0.4-0.1,0.4c-0.3,0-0.6-0.4-0.6-0.7c-0.2-0.5-0.4-1.1-0.5-1.7c-0.1-0.6-0.2-1.2-0.2-1.9c0-0.3,0-0.5,0-0.8
					c0-0.1,0-0.2,0-0.3c0-0.1,0-0.2,0-0.2c0.1-0.5-0.6,0-0.7,0.2c-0.7,1.2-0.5,2.7-0.5,4c0,0.4,0,0.7-0.1,1.1c0,0.2-0.1,0.7-0.3,0.9
					c-0.1,0.1-0.4,0-0.5,0c-0.2-0.1-0.3-0.3-0.3-0.5c0-0.2-0.3-0.1-0.4,0c-0.1,0.2-0.3,0.4-0.3,0.6c0.1,0.5,0.5,0.9,1,0.7
					c0.8-0.2,1.1-1.2,1.3-1.9c0.1-0.4,0.1-0.7,0.2-1.1c0.1,0.5,0.3,1,0.5,1.5c0.2,0.3,0.5,0.7,0.9,0.6c0.3-0.1,0.6-0.4,0.7-0.8
					c0.2,0.3,0.4,0.6,0.8,0.6c0.4,0,0.8-0.5,1-0.8c0.2-0.4,0.2-0.9,0.2-1.3C197.7,143.4,197.5,142.1,196.6,142.2z M196.9,145.2
					c0,0.1,0,0.2-0.1,0.3c-0.2,0-0.3-0.3-0.3-0.4c-0.1-0.3-0.2-0.6-0.2-0.9c0-0.3,0-0.7,0-1c0-0.1,0-0.2,0.1-0.2
					c0.4,0.3,0.5,0.8,0.6,1.3C196.9,144.5,196.9,144.8,196.9,145.2z"/>
				<path class="st4" d="M207,143.4c-0.9-0.3-1.5,0.9-1.6,1.6c-0.2,0.7-0.4,1.8,0.5,2.2c0.4,0.2,0.9-0.1,1.1-0.4
					c0.3-0.3,0.5-0.7,0.6-1.2C207.7,144.9,207.9,143.7,207,143.4z M206.4,146.4c0,0.1-0.1,0.1-0.1,0.2c-0.1-0.1-0.2-0.4-0.2-0.5
					c0-0.3,0-0.7,0-1c0.1-0.3,0.2-0.6,0.3-0.9c0-0.1,0.1-0.1,0.1-0.2c0.4,0.4,0.3,1,0.2,1.5C206.7,145.8,206.6,146.1,206.4,146.4z"
					/>
				<path class="st4" d="M204.5,143.6c0.2-0.2,0.3-0.5,0.5-0.7c0.3-0.5,0.7-1.1,0.7-1.8c0-0.6-0.8-0.6-1.3-0.4
					c-0.6,0.3-0.9,0.9-1.1,1.5c-0.2,0.8-0.4,1.6-0.4,2.5v0c-0.3,0.4-0.9,1.1-1.4,0.8c-0.1-0.1-0.2-0.2-0.2-0.4
					c0.4-0.4,0.7-0.8,1-1.3c0.3-0.4,0.5-1.1-0.1-1.4c-0.5-0.3-1,0-1.3,0.4c-0.3,0.4-0.4,0.9-0.5,1.3c0,0.3-0.1,0.7,0,1.1
					c-0.3,0.2-0.6,0.3-0.9,0.2c-0.4-0.1-0.5-0.5-0.6-0.7c-0.1-0.4-0.1-0.9,0-1.3c0-0.1,0.1-0.3,0.1-0.4c0,0,0-0.1,0-0.1
					c0.2,0.1,0.3,0.4,0.4,0.6c0.1,0.3,0.9-0.2,0.8-0.5c-0.1-0.3-0.2-0.6-0.6-0.8c-0.3-0.2-0.8,0.1-1,0.3c-0.6,0.6-0.6,1.4-0.6,2.2
					c0,0.5,0.1,1.1,0.5,1.3c0.6,0.3,1.3,0,1.9-0.3c0.1,0.4,0.4,0.6,0.9,0.5c0.6-0.1,1.1-0.4,1.5-0.8c0,0.4,0.1,0.9,0.4,1.1
					c0.5,0.3,1.1,0,1.4-0.5c0.4-0.5,0.7-1.3,0.4-2C205,143.7,204.7,143.6,204.5,143.6z M201.3,143.2c0-0.1,0.1-0.2,0.1-0.3
					c0,0,0,0,0,0c0.2,0.1,0.3,0.4,0.2,0.5c0,0.4-0.3,0.7-0.5,1c0-0.1,0-0.1,0-0.2C201.2,143.9,201.2,143.5,201.3,143.2z
					 M204.3,141.5c0.1-0.1,0.1-0.2,0.2-0.4c0,0,0,0,0,0c0.4,0.4,0,1-0.2,1.4c-0.2,0.4-0.4,0.7-0.7,1.1c0.1-0.4,0.1-0.7,0.2-1.1
					C204,142.1,204.2,141.8,204.3,141.5z M204.1,145.8c0,0-0.1,0.1-0.1,0.2c0,0-0.1,0-0.1,0c-0.2-0.1-0.2-0.6-0.3-0.8
					c0-0.2,0-0.4,0-0.5c0.1-0.1,0.2-0.2,0.3-0.3c0.2-0.1,0.4,0.1,0.4,0.3C204.4,144.9,204.3,145.4,204.1,145.8z"/>
			</g>
		</g>
		<g>
			<path class="st4" d="M163.7,176.9c0.1-0.3,0.5-0.4,0.7-0.2c0.3,0.2-0.1,0.6-0.3,0.7c-0.2,0.1-0.5,0.4-0.4,0.7
				c0.1,0.2,0.6,0.2,0.7,0.2c0.3,0,0.4,0.2,0.3,0.5c-0.1,0.5-0.8,0.2-1,0c-0.2-0.2-0.6,0.3-0.5,0.5c0.6,0.7,1.5,0.2,1.9-0.5
				c0.2-0.3,0.2-0.7,0-0.9c-0.2-0.2-0.6-0.2-0.9-0.2c-0.1,0-0.1,0-0.1,0.1c0.1-0.1,0.2-0.2,0.4-0.3c0.2-0.1,0.3-0.3,0.4-0.4
				c0.2-0.3,0.2-0.7-0.1-0.9c-0.6-0.4-1.4,0.4-1.6,0.9C163,177.4,163.6,177.1,163.7,176.9L163.7,176.9z"/>
			<path class="st4" d="M166.8,179c0.5,1.5,2.7,0.4,2.3-0.9c-0.2-0.6-0.9-0.6-1.5-0.7c-0.3-0.1-0.3-0.3-0.3-0.6
				c0.1-0.3,0.1-0.3-0.1-0.1c0.1,0,0.2,0,0.2-0.1c0.5-0.1,0.9-0.1,1.4,0.1c0.2,0.1,0.6-0.4,0.4-0.5c-0.5-0.3-1.2-0.2-1.7-0.1
				c-0.5,0.1-0.7,0.6-0.7,1.1c0,0.6,0.6,0.7,1,0.8c0.4,0.1,0.7,0.2,0.7,0.6c0.1,0.7-0.7,0.6-1,0.4c-0.2-0.1-0.2-0.3-0.3-0.5
				C167.3,178.4,166.8,178.8,166.8,179L166.8,179z"/>
			<g>
				<path class="st4" d="M171.9,176.4c-0.6,1-1.4,2-2.1,2.9c-0.3,0.4,0.2,0.4,0.4,0.1c0.8-1,1.6-2,2.2-3.1
					C172.7,175.9,172.1,176.1,171.9,176.4L171.9,176.4z"/>
				<path class="st4" d="M170.8,176.1c-0.4,0-0.7,0.4-0.7,0.7c-0.1,0.3,0.1,0.6,0.5,0.6C171.3,177.5,171.6,176.1,170.8,176.1
					c-0.2,0-0.5,0.4-0.2,0.4c0.2,0,0.3,0.2,0.3,0.3c0,0.1,0,0.1,0,0.2c0,0.1,0,0,0,0c0,0-0.1,0-0.1,0c-0.2,0-0.3-0.2-0.3-0.3
					c0-0.1,0-0.1,0-0.2c0,0,0,0,0,0c0,0,0.1,0,0.1,0C170.7,176.5,171,176.1,170.8,176.1z"/>
				<path class="st4" d="M171.9,178.3c-0.4,0-0.7,0.4-0.7,0.7c-0.1,0.3,0.1,0.6,0.5,0.6C172.3,179.7,172.7,178.3,171.9,178.3
					c-0.2,0-0.5,0.4-0.2,0.4c0.2,0,0.3,0.2,0.3,0.3c0,0.1,0,0.1,0,0.2c0,0.1,0,0,0,0c0,0-0.1,0-0.1,0c-0.2,0-0.3-0.2-0.3-0.3
					c0-0.1,0-0.1,0-0.2c0,0,0,0,0,0c0,0,0.1,0,0.1,0C171.8,178.7,172.1,178.3,171.9,178.3z"/>
			</g>
			<path class="st4" d="M165.8,180.3c0.3-0.2,0.4-0.6,0.5-1c0-0.1,0-0.3-0.1-0.3c-0.1-0.1-0.4,0-0.5,0c-0.1,0.1-0.3,0.3-0.3,0.4
				c0,0.2,0.2,0.1,0.3,0.1c0,0,0,0,0,0c0,0,0,0,0,0c0,0.1,0,0.1,0,0.1c0,0.1,0,0.1-0.1,0.2c0,0,0,0,0,0.1c0,0,0,0,0,0c0,0,0,0,0,0.1
				c0.1-0.1,0,0,0,0c-0.1,0.1-0.2,0.3-0.1,0.4C165.5,180.6,165.7,180.4,165.8,180.3L165.8,180.3z"/>
		</g>
		<g>
			<g>
				<g>
					<path class="st4" d="M197.6,164.8c-0.2,0-0.5,0.1-0.6,0.2c0,0,0-0.1-0.1-0.1c-0.1-0.3-0.1-0.6-0.1-0.9c0-1,0.3-1.9,0.5-2.8
						c0,0,0,0,0-0.1c0.1-0.6-0.3-1.1-1-1.1c-0.6-0.1-1.2,0.3-1.6,0.7c-0.5,0.5-0.8,1.3-0.9,2c0,0.2-0.3,1.1-0.6,1.1c0,0,0,0-0.1,0
						c-0.2-0.1-0.2-0.5-0.2-0.7c0-0.5,0-0.9-0.2-1.4c-0.2-0.4-0.5-0.4-0.9-0.4c0-0.1,0-0.1,0.1-0.2c0-0.1,0.1-0.1,0.1-0.2
						c0.2-0.3,0.3-0.7,0.6-0.9c0.1,0.1,0.3,0.2,0.4,0.3c0.3,0.4,1.4-0.3,1.1-0.6c-0.4-0.5-0.9-0.6-1.3-0.4c-0.3,0.1-0.6,0.2-0.9,0.5
						c0,0-0.1,0.1-0.1,0.1c0-0.6,0-1.2,0-1.7c0-0.1,0-0.1-0.1-0.1c-0.3-0.1-1.1,0.3-1.1,0.7c0.1,1.2-0.1,2.3-0.5,3.5
						c-0.1,0.3-0.6,0.9-0.6,0.9s0,0,0,0c-0.1-0.2-0.1-0.4-0.1-0.6c0-0.4,0-0.8,0-1.3c0.1-0.6,0.1-1.2,0.3-1.8
						c0.1-0.2,0.2-0.4,0.2-0.6c0.1-0.2,0-0.4-0.3-0.4c-0.3,0-0.6,0.3-0.7,0.5c-0.1,0.2-0.2,0.5-0.3,0.7c-0.1,0.3-0.3,0.5-0.5,0.8
						c-0.2,0.2-0.3,0.3-0.6,0.5c0,0,0,0-0.1,0c0-0.9,0-1.8,0-2.6c0-0.1,0-0.2-0.1-0.2c0,0-0.1,0-0.1,0c-0.1,0-0.2,0-0.3,0
						c-0.2,0.1-0.4,0.2-0.5,0.4c-0.1,0.1-0.1,0.2-0.1,0.3c-0.3,1.1-0.7,2.1-1.2,3c-0.2,0.4-0.5,1.1-1,0.6c-0.1-0.1-0.2-0.3-0.3-0.5
						c0.7-0.7,1.3-1.6,1.5-2.5c0.2-0.6-0.1-1.3-0.9-1.4c-0.8-0.1-1.3,0.7-1.6,1.2c-0.4,0.8-0.4,1.7-0.3,2.5c0,0.1,0,0.2,0.1,0.4
						c-0.1,0.1-0.2,0.2-0.3,0.2c-0.5,0.4-0.8,0.2-1-0.4c-0.3-0.6-0.3-1.4-0.2-2c0-0.2,0-0.5,0.1-0.7c0-0.1,0.1-0.2,0.1-0.3
						c0,0,0-0.1,0-0.1c0.1,0.1,0.3,0.2,0.3,0.3c0.2,0.3,1.2-0.5,1-0.9c-0.5-0.8-1.5-0.4-2,0.2c-0.2,0.3-0.4,0.7-0.5,1.1
						c-0.1,0.2-0.1,0.4-0.2,0.6c0-0.7,0-1.5,0-2.2c0-0.6-1,0.2-1,0.5c-0.1,0.3-0.2,0.7-0.3,1c-0.1-0.3-0.2-0.6-0.4-0.9
						c-0.5-0.7-1.3-0.6-1.8,0.1c-0.1,0.1-0.4,0.5-0.2,0.7c0.2,0.1,0.5-0.1,0.6-0.2c0,0,0,0,0.1,0c0.1,0,0.1,0.1,0.2,0.1
						c0.1,0.1,0.2,0.3,0.3,0.4c0.2,0.4,0.3,0.9,0.4,1.4c0.1,0.5,0.1,1,0,1.4c0,0,0,0.1,0,0.1c0,0.1,0,0.1,0,0.2
						c-0.1,0-0.2-0.1-0.3-0.2c0,0,0-0.1-0.1-0.1c-0.1-0.2-0.5,0.1-0.7,0.4c0,0,0,0.1-0.1,0.1c0,0-0.1,0-0.1,0c-0.1,0-0.1,0-0.2,0
						c-0.2-0.1-0.2-0.3-0.3-0.4c-0.2-0.5-0.3-1-0.4-1.5c-0.1-0.8-0.1-1.6-0.1-2.3c0-0.3-0.4-0.2-0.5-0.1c0,0-0.1,0-0.1,0.1
						c-0.3-0.1-0.7,0-1.1,0.3c-0.9,0.7-1.2,1.9-0.9,3c0.2,0.6,0.7,0.9,1.3,0.7c0.1,0,0.2-0.1,0.3-0.1c0,0.3-0.1,0.6-0.2,0.8
						c-0.1,0.3-0.6,0-0.7-0.2c-0.2-0.4-1,0.6-0.9,1c0.4,0.9,1.5,0.3,1.9-0.3c0.1-0.1,0.2-0.2,0.2-0.3c0.1,0.2,0.2,0.4,0.4,0.5
						c0.4,0.3,0.9,0.1,1.3-0.2c0.6,0.5,1.4-0.2,1.7-0.9c0.2-0.3,0.3-0.6,0.3-0.9c0.1-0.3,0.1-0.5,0.2-0.8c0,0.8,0,1.5,0,2.3
						c0,0.3,0.3,0.2,0.5,0.1c0.3-0.2,0.5-0.4,0.5-0.7c0-0.3,0.1-0.6,0.2-0.8c0.1,0.8,0.4,1.5,1.2,1.5c0.4,0,0.8-0.3,1-0.5
						c0.2-0.1,0.3-0.2,0.5-0.4c0.1,0.3,0.4,0.7,0.7,0.8c1,0.2,1.7-0.8,2.2-1.5c0.1-0.2,0.3-0.5,0.4-0.7c0,0.7,0,1.4-0.1,2.2
						c0,0.3,0.3,0.3,0.5,0.2c0.3-0.1,0.5-0.3,0.6-0.6c0.1-0.5,0.2-0.9,0.4-1.3c0.1-0.2,0.2-0.2,0.5-0.5c0,0,0,0,0,0
						c0,0.3,0,0.5,0,0.8c0,0.4-0.2,2,0.6,2c0.5,0,1-0.3,1.4-0.8c0,0.3-0.1,0.5-0.1,0.8c0,0.3,0.3,0.3,0.4,0.2
						c0.3-0.1,0.6-0.3,0.6-0.6c0.1-0.5,0.2-1,0.4-1.4c0.6,0.3,0.1,1.8,0.5,2.2c0.3,0.4,0.9,0.3,1.2,0.1c0.1-0.1,0.3-0.1,0.4-0.2
						c0,0.3,0.2,0.6,0.4,0.8c0.4,0.4,1.1,0.2,1.5,0c0,0,0.1-0.1,0.1-0.1c0,0.1,0,0.2,0,0.3c0.3,1.1,1.6,0.6,2,0
						C198,165.1,197.9,164.9,197.6,164.8z M174.2,161.2c-0.2-0.3-0.2-1.1,0-1.4c0,0.1,0.1,0,0.3,0c0.2,0.1,0.3,0.3,0.3,0.5
						c0,0.5,0,0.9,0.1,1.4C174.6,161.7,174.3,161.5,174.2,161.2z M184.1,159.5c0-0.2,0.1-0.4,0.2-0.6c0.1,0,0.1,0,0.1,0.1
						c0.3,0.2,0.3,0.7,0.2,1c-0.1,0.4-0.3,0.8-0.6,1.1c0-0.2,0-0.4,0-0.6C184,160.2,184,159.9,184.1,159.5z M195.3,164.5
						c0,0-0.1,0-0.2-0.1c-0.2-0.1-0.2-0.5-0.2-0.7c-0.1-0.8,0.1-1.6,0.4-2.2c0.1-0.2,0.3-0.5,0.4-0.6c0,0,0,0,0.1,0
						c0.1,0,0.1,0,0.2,0c0.3,0.1,0.3,0.3,0.3,0.5c-0.2,1-0.4,1.9-0.8,2.8C195.4,164.3,195.3,164.4,195.3,164.5z M196.9,165.2
						C196.9,165.2,196.9,165.2,196.9,165.2C196.9,165.2,196.9,165.2,196.9,165.2C196.9,165.2,196.9,165.2,196.9,165.2z"/>
					<path class="st4" d="M173,159.7c0.4-1.1,0.2-2-0.4-2.9c-0.6-0.8-2.1-0.8-3-0.3c-1.3,0.6-2.3,1.9-2.4,3.4c0,0.3,0.2,0.4,0.4,0.2
						c0.3-0.2,0.5-0.6,0.5-0.9c0.1-0.9,0.6-1.4,1.5-1.7c0.7-0.3,1.6-0.2,2,0.2c0.6,0.7,1.1,2.7-0.3,2.8c0,0,0,0,0,0
						c-0.5-0.8-0.9-1.6-1.1-2.5c-0.1-0.5-1,0.5-1,0.9c0.3,1.5,1.5,2.8,1.7,4.3c0.1,0.5,0,1.3-0.7,1.4c-0.4,0.1-1-0.1-1.1-0.6
						c-0.1-0.6-0.9,0.5-0.8,0.9c0.1,0.7,0.8,1,1.3,0.9c0.9-0.1,1.6-0.9,1.9-1.8c0.3-0.8,0.3-1.8,0.1-2.6
						C172.2,161.2,172.8,160.4,173,159.7z"/>
				</g>
			</g>
		</g>
		<g>
			<path class="st9" d="M159.9,153c-0.1,0-0.2-0.2-0.3-0.2c-0.4-0.1-0.7,0.1-1.1,0.1c-0.9,0-1.2,0-2.3-0.3c0-0.9,0.5-1.5,0.8-2.2
				c0.2-0.6-0.1-1.4-0.1-2.2c0-0.4,0-0.9,0-1.3c-0.3,0.3-0.2,1.2-0.2,1.6c-0.1-0.6-0.1-1.3-0.3-1.8c-0.1,0.5,0,1.3,0,1.8
				c-0.2-0.5-0.2-1.1-0.4-1.6c-0.2,0.5,0.2,1.3,0.1,1.7c-0.2-0.4-0.3-1-0.5-1.4c-0.1,0.6,0.2,1.1,0.2,1.5c-0.2-0.4-0.3-0.8-0.6-1.1
				c0,0.4,0.2,0.9,0.4,1.2c-0.3-0.1-0.3-0.4-0.6-0.6c0,0.3,0.2,0.5,0.3,0.7c-0.2-0.1-0.3-0.3-0.5-0.4c0,0.3,0.2,0.3,0.3,0.6
				c-0.1-0.1-0.2-0.2-0.4-0.3c0,0.2,0.3,0.4,0.3,0.5c0,0-0.2-0.1-0.2,0c0,0,0.2,0.1,0.1,0.2c-0.1,0-0.1,0-0.2,0
				c0,0.1,0.2,0.1,0.1,0.3c-0.1,0-0.1-0.1-0.1,0c0,0.1,0.1,0.1,0.1,0.2c-0.8,0.8-0.4,1.7-0.4,2.6c0-0.1-0.6-0.3-1.2-0.5
				c-0.3-0.1-0.3-0.5-0.6-0.6c0-0.1,0.1,0,0.1-0.1c-0.1,0-0.2-0.1-0.2-0.2c0.1,0,0.3,0.1,0.3,0c-0.1-0.1-0.5-0.2-0.4-0.3
				c0.2,0,0.4,0.1,0.5,0.1c-0.2-0.1-0.6-0.3-0.6-0.5c0.2,0.1,0.5,0.3,0.7,0.2c-0.3-0.2-0.8-0.4-0.9-0.7c0.2,0.1,0.5,0.4,0.8,0.4
				c-0.4-0.1-0.7-0.6-1.1-0.5c0.2,0.4,0.7,0.5,0.9,0.8c-0.3-0.2-0.6-0.3-0.9-0.5c0.1,0.4,0.5,0.5,0.8,0.7c-0.3,0-0.4-0.2-0.7-0.2
				c0.1,0.3,0.5,0.2,0.7,0.5c-0.1-0.1-0.3,0-0.5,0c0,0.2,0.3,0.1,0.5,0.3c-0.2,0-0.3,0-0.4,0.1c0.1,0.1,0.3,0.1,0.4,0.2
				c-0.1,0-0.2,0-0.2,0.1c0,0.1,0.2,0,0.3,0.1c-0.1,0-0.1,0.1-0.1,0.1c0.1,0,0.2,0,0.2,0c0,0-0.1,0-0.1,0.1c0.4,0.2,0.6,0.9,1.2,1.1
				c-0.3,0.2,0.3,0.4-3.4,1.7c0.1,0,1.6-0.4,2-0.5c0.4-0.2,0.9-0.3,1.3-0.4c0.1,0,0.2-0.1,0.3-0.1c0.8-0.1,1.4,0.1,2.2-0.4
				c-0.6,0.1-1.5,0.2-1.9-0.1c0.5-0.8,0.2-2.7,0.5-3.2c0.4-0.4,1-1.7,1.8-0.6c0.1,0.2,0.1,0.4-0.1,0.9c-0.3,0.6-0.5,0.8-0.5,2
				c0,0.2,0,0.5-0.4,0.5c1.6,0.3,2,0.2,3,0c0.3,0,0.7-0.3,0.8,0c0,0.1-0.3,0.1-0.6,0.1c-0.4,0,0.2,0.2,0.4,0.1
				c0.1,0,0.9-0.1,1.4-0.2C160.4,153,160.2,153,159.9,153z"/>
			<path class="st9" d="M155.3,144.8c-3.6,0-6.6,2.9-6.6,6.6c0,3.6,2.9,6.6,6.6,6.6c3.6,0,6.6-2.9,6.6-6.6
				C161.8,147.8,158.9,144.8,155.3,144.8 M155.3,145.1c3.5,0,6.3,2.8,6.3,6.3c0,3.5-2.8,6.3-6.3,6.3c-3.5,0-6.3-2.8-6.3-6.3
				C148.9,147.9,151.8,145.1,155.3,145.1"/>
		</g>
	</g>
</g>
<g id="tvorog">
</g>
<g id="butylka_1">
</g>
<g id="vanna_2">
</g>
<g id="sneg">
</g>
<g id="vigimka">
</g>
<g id="sneg_1_">
	<g>
		<linearGradient id="SVGID_1_" gradientUnits="userSpaceOnUse" x1="255.6214" y1="82.3662" x2="271.6088" y2="127.664">
			<stop  offset="0" style="stop-color:#404B71"/>
			<stop  offset="0.6044" style="stop-color:#3C476E"/>
			<stop  offset="1" style="stop-color:#354169"/>
		</linearGradient>
		<path class="st10" d="M259.2,123.3l-1.7-6.4l1.6-2.7l0.2,0.8c0.2,0.8,1.1,1.3,1.9,1.1c0.1,0,0.3-0.1,0.4-0.2
			c0.6-0.3,0.9-1.1,0.7-1.8l-1-3.9l1.9-3.3l1.9,3.3l-1,3.9c-0.2,0.8,0.3,1.7,1.1,1.9c0.4,0.1,0.9,0,1.2-0.2c0.4-0.2,0.6-0.5,0.7-1
			l0.2-0.8l1.6,2.7l-1.7,6.4c-0.2,0.8,0.3,1.7,1.1,1.9c0.4,0.1,0.9,0,1.2-0.2c0.4-0.2,0.6-0.5,0.7-1l0.9-3.3l2.5,4.4
			c0.4,0.8,1.4,1,2.2,0.6c0.8-0.4,1-1.4,0.6-2.2l-2.5-4.4l3.3,0.9c0.4,0.1,0.9,0,1.2-0.2c0.4-0.2,0.6-0.5,0.7-1
			c0.2-0.8-0.3-1.7-1.1-1.9l-6.4-1.7l-1.6-2.7l0.8,0.2c0.4,0.1,0.9,0,1.2-0.2c0.4-0.2,0.6-0.5,0.7-1c0.2-0.8-0.3-1.7-1.1-1.9l-3.8-1
			l-1.9-3.3h3.8l2.8,2.8c0.5,0.5,1.3,0.6,1.9,0.3c0.1-0.1,0.2-0.2,0.3-0.3c0.6-0.6,0.6-1.6,0-2.2l-0.6-0.6l3.1,0l4.7,4.7
			c0.5,0.5,1.3,0.6,1.9,0.3c0.1-0.1,0.2-0.2,0.3-0.3c0.6-0.6,0.6-1.6,0-2.2l-2.4-2.4l5,0c0.3,0,0.6-0.1,0.8-0.2
			c0.5-0.3,0.8-0.8,0.8-1.4c0-0.9-0.7-1.6-1.6-1.6h-5l2.4-2.4c0.6-0.6,0.6-1.6,0-2.2c-0.6-0.6-1.6-0.6-2.2,0l-4.7,4.7h-3.1l0.6-0.6
			c0.6-0.6,0.6-1.6,0-2.2c-0.6-0.6-1.6-0.6-2.2,0l-2.8,2.8H266l1.9-3.3l3.9-1c0.1,0,0.3-0.1,0.4-0.2c0.6-0.3,0.9-1.1,0.7-1.8
			c-0.2-0.8-1.1-1.3-1.9-1.1l-0.8,0.2l1.6-2.7l6.4-1.7c0.1,0,0.3-0.1,0.4-0.2c0.6-0.4,0.9-1.1,0.7-1.8c-0.2-0.8-1.1-1.3-1.9-1.1
			l-3.3,0.9l2.5-4.4c0.4-0.8,0.2-1.7-0.6-2.2c-0.8-0.4-1.7-0.2-2.2,0.6l-2.5,4.4l-0.9-3.3c-0.2-0.8-1.1-1.3-1.9-1.1
			c-0.8,0.2-1.4,1.1-1.1,1.9l1.7,6.4l-1.6,2.7l-0.2-0.8c-0.2-0.8-1.1-1.3-1.9-1.1c-0.8,0.2-1.3,1.1-1.1,1.9l1,3.9l-1.9,3.3l-1.9-3.3
			l1-3.9c0.2-0.8-0.3-1.7-1.1-1.9c-0.8-0.2-1.7,0.3-1.9,1.1l-0.2,0.8l-1.6-2.7l1.7-6.4c0.2-0.8-0.3-1.7-1.1-1.9
			c-0.8-0.2-1.7,0.3-1.9,1.1l-0.9,3.3l-2.5-4.4c-0.4-0.8-1.4-1-2.2-0.6c-0.8,0.4-1,1.4-0.6,2.2l2.5,4.4l-3.3-0.9
			c-0.8-0.2-1.7,0.3-1.9,1.1c-0.2,0.8,0.3,1.7,1.1,1.9l6.4,1.7l1.6,2.7l-0.8-0.2c-0.8-0.2-1.7,0.3-1.9,1.1c-0.2,0.8,0.3,1.7,1.1,1.9
			l3.8,1l1.9,3.3h-3.8l-2.8-2.8c-0.6-0.6-1.6-0.6-2.2,0c-0.6,0.6-0.6,1.6,0,2.2l0.6,0.6H249l-4.7-4.7c-0.6-0.6-1.6-0.6-2.2,0
			c-0.6,0.6-0.6,1.6,0,2.2l2.4,2.4h-5c-0.9,0-1.6,0.7-1.6,1.6c0,0.9,0.7,1.6,1.6,1.6l5,0l-2.4,2.4c-0.6,0.6-0.6,1.6,0,2.2
			c0.5,0.5,1.3,0.6,1.9,0.3c0.1-0.1,0.2-0.2,0.3-0.3l4.7-4.7h3.1l-0.6,0.6c-0.6,0.6-0.6,1.6,0,2.2c0.5,0.5,1.3,0.6,1.9,0.3
			c0.1-0.1,0.2-0.2,0.3-0.3l2.8-2.8h3.8l-1.9,3.3l-3.9,1c-0.8,0.2-1.3,1.1-1.1,1.9c0.2,0.8,1.1,1.3,1.9,1.1l0.8-0.2l-1.6,2.7
			l-6.4,1.7c-0.8,0.2-1.3,1.1-1.1,1.9c0.2,0.8,1.1,1.3,1.9,1.1l3.3-0.9l-2.5,4.4c-0.4,0.8-0.2,1.7,0.6,2.2c0.5,0.3,1.1,0.3,1.6,0
			c0.2-0.1,0.4-0.3,0.6-0.6l2.5-4.4l0.9,3.3c0.2,0.8,1.1,1.3,1.9,1.1c0.1,0,0.3-0.1,0.4-0.2C259.1,124.7,259.4,124,259.2,123.3z"/>
		<linearGradient id="SVGID_2_" gradientUnits="userSpaceOnUse" x1="137.0041" y1="146.1849" x2="141.8379" y2="159.8807">
			<stop  offset="0" style="stop-color:#404B71"/>
			<stop  offset="0.6044" style="stop-color:#3C476E"/>
			<stop  offset="1" style="stop-color:#354169"/>
		</linearGradient>
		<path class="st11" d="M138.1,158.6l-0.5-1.9l0.5-0.8l0.1,0.2c0.1,0.3,0.3,0.4,0.6,0.3c0,0,0.1,0,0.1,0c0.2-0.1,0.3-0.3,0.2-0.5
			l-0.3-1.2l0.6-1l0.6,1l-0.3,1.2c-0.1,0.3,0.1,0.5,0.3,0.6c0.1,0,0.3,0,0.4,0c0.1-0.1,0.2-0.2,0.2-0.3l0.1-0.2l0.5,0.8l-0.5,1.9
			c-0.1,0.3,0.1,0.5,0.3,0.6c0.1,0,0.3,0,0.4,0c0.1-0.1,0.2-0.2,0.2-0.3l0.3-1l0.8,1.3c0.1,0.2,0.4,0.3,0.7,0.2
			c0.2-0.1,0.3-0.4,0.2-0.7l-0.8-1.3l1,0.3c0.1,0,0.3,0,0.4,0c0.1-0.1,0.2-0.2,0.2-0.3c0.1-0.3-0.1-0.5-0.3-0.6l-1.9-0.5l-0.5-0.8
			l0.2,0.1c0.1,0,0.3,0,0.4,0c0.1-0.1,0.2-0.2,0.2-0.3c0.1-0.3-0.1-0.5-0.3-0.6l-1.2-0.3l-0.6-1h1.2l0.9,0.9
			c0.2,0.2,0.4,0.2,0.6,0.1c0,0,0.1,0,0.1-0.1c0.2-0.2,0.2-0.5,0-0.7l-0.2-0.2h0.9l1.4,1.4c0.2,0.2,0.4,0.2,0.6,0.1
			c0,0,0.1,0,0.1-0.1c0.2-0.2,0.2-0.5,0-0.7l-0.7-0.7h1.5c0.1,0,0.2,0,0.2-0.1c0.1-0.1,0.2-0.2,0.2-0.4c0-0.3-0.2-0.5-0.5-0.5h-1.5
			l0.7-0.7c0.2-0.2,0.2-0.5,0-0.7c-0.2-0.2-0.5-0.2-0.7,0l-1.4,1.4h-0.9l0.2-0.2c0.2-0.2,0.2-0.5,0-0.7c-0.2-0.2-0.5-0.2-0.7,0
			l-0.9,0.9h-1.2l0.6-1l1.2-0.3c0,0,0.1,0,0.1,0c0.2-0.1,0.3-0.3,0.2-0.5c-0.1-0.3-0.3-0.4-0.6-0.3l-0.2,0.1l0.5-0.8l1.9-0.5
			c0,0,0.1,0,0.1,0c0.2-0.1,0.3-0.3,0.2-0.5c-0.1-0.3-0.3-0.4-0.6-0.3l-1,0.3l0.8-1.3c0.1-0.2,0.1-0.5-0.2-0.7
			c-0.2-0.1-0.5-0.1-0.7,0.2l-0.8,1.3l-0.3-1c-0.1-0.3-0.3-0.4-0.6-0.3c-0.3,0.1-0.4,0.3-0.3,0.6l0.5,1.9l-0.5,0.8l-0.1-0.2
			c-0.1-0.3-0.3-0.4-0.6-0.3c-0.3,0.1-0.4,0.3-0.3,0.6l0.3,1.2l-0.6,1l-0.6-1l0.3-1.2c0.1-0.3-0.1-0.5-0.3-0.6
			c-0.3-0.1-0.5,0.1-0.6,0.3l-0.1,0.2l-0.5-0.8l0.5-1.9c0.1-0.3-0.1-0.5-0.3-0.6c-0.3-0.1-0.5,0.1-0.6,0.3l-0.3,1l-0.8-1.3
			c-0.1-0.2-0.4-0.3-0.7-0.2c-0.2,0.1-0.3,0.4-0.2,0.7l0.8,1.3l-1-0.3c-0.3-0.1-0.5,0.1-0.6,0.3c-0.1,0.3,0.1,0.5,0.3,0.6l1.9,0.5
			l0.5,0.8L137,150c-0.3-0.1-0.5,0.1-0.6,0.3c-0.1,0.3,0.1,0.5,0.3,0.6l1.2,0.3l0.6,1h-1.2l-0.9-0.9c-0.2-0.2-0.5-0.2-0.7,0
			c-0.2,0.2-0.2,0.5,0,0.7l0.2,0.2H135l-1.4-1.4c-0.2-0.2-0.5-0.2-0.7,0c-0.2,0.2-0.2,0.5,0,0.7l0.7,0.7h-1.5
			c-0.3,0-0.5,0.2-0.5,0.5c0,0.3,0.2,0.5,0.5,0.5h1.5l-0.7,0.7c-0.2,0.2-0.2,0.5,0,0.7c0.2,0.2,0.4,0.2,0.6,0.1c0,0,0.1,0,0.1-0.1
			l1.4-1.4h0.9l-0.2,0.2c-0.2,0.2-0.2,0.5,0,0.7c0.2,0.2,0.4,0.2,0.6,0.1c0,0,0.1,0,0.1-0.1l0.9-0.9h1.2l-0.6,1l-1.2,0.3
			c-0.3,0.1-0.4,0.3-0.3,0.6c0.1,0.3,0.3,0.4,0.6,0.3l0.2-0.1l-0.5,0.8l-1.9,0.5c-0.3,0.1-0.4,0.3-0.3,0.6c0.1,0.3,0.3,0.4,0.6,0.3
			l1-0.3l-0.8,1.3c-0.1,0.2-0.1,0.5,0.2,0.7c0.2,0.1,0.3,0.1,0.5,0c0.1,0,0.1-0.1,0.2-0.2l0.8-1.3l0.3,1c0.1,0.3,0.3,0.4,0.6,0.3
			c0,0,0.1,0,0.1,0C138,159,138.1,158.8,138.1,158.6z"/>
		<linearGradient id="SVGID_3_" gradientUnits="userSpaceOnUse" x1="72.1143" y1="170.7453" x2="82.5346" y2="200.2694">
			<stop  offset="0" style="stop-color:#404B71"/>
			<stop  offset="0.6044" style="stop-color:#3C476E"/>
			<stop  offset="1" style="stop-color:#354169"/>
		</linearGradient>
		<path class="st12" d="M74.4,197.4l-1.1-4.2l1-1.8l0.1,0.5c0.1,0.6,0.7,0.9,1.3,0.7c0.1,0,0.2-0.1,0.2-0.1c0.4-0.2,0.6-0.7,0.5-1.2
			l-0.7-2.5l1.2-2.2l1.2,2.2l-0.7,2.5c-0.1,0.6,0.2,1.1,0.7,1.3c0.3,0.1,0.6,0,0.8-0.1c0.2-0.1,0.4-0.4,0.5-0.6l0.1-0.5l1,1.8
			l-1.1,4.2c-0.1,0.6,0.2,1.1,0.7,1.3c0.3,0.1,0.6,0,0.8-0.1c0.2-0.1,0.4-0.4,0.5-0.6l0.6-2.2l1.6,2.8c0.3,0.5,0.9,0.7,1.4,0.4
			c0.5-0.3,0.7-0.9,0.4-1.4l-1.6-2.8l2.2,0.6c0.3,0.1,0.6,0,0.8-0.1c0.2-0.1,0.4-0.4,0.5-0.6c0.1-0.6-0.2-1.1-0.7-1.3l-4.2-1.1
			l-1-1.8l0.5,0.1c0.3,0.1,0.6,0,0.8-0.1c0.2-0.1,0.4-0.4,0.5-0.6c0.1-0.6-0.2-1.1-0.7-1.3l-2.5-0.7l-1.2-2.2h2.5l1.8,1.8
			c0.3,0.3,0.9,0.4,1.2,0.2c0.1,0,0.1-0.1,0.2-0.2c0.4-0.4,0.4-1.1,0-1.5l-0.4-0.4l2,0l3,3c0.3,0.3,0.9,0.4,1.2,0.2
			c0.1,0,0.1-0.1,0.2-0.2c0.4-0.4,0.4-1.1,0-1.5l-1.6-1.6l3.3,0c0.2,0,0.4,0,0.5-0.1c0.3-0.2,0.5-0.5,0.5-0.9c0-0.6-0.5-1-1-1h-3.3
			l1.6-1.6c0.4-0.4,0.4-1.1,0-1.5c-0.4-0.4-1.1-0.4-1.5,0l-3,3h-2l0.4-0.4c0.4-0.4,0.4-1.1,0-1.5c-0.4-0.4-1.1-0.4-1.5,0l-1.8,1.8
			h-2.5l1.2-2.2l2.5-0.7c0.1,0,0.2-0.1,0.2-0.1c0.4-0.2,0.6-0.7,0.5-1.2c-0.1-0.6-0.7-0.9-1.3-0.7l-0.5,0.1l1-1.8l4.2-1.1
			c0.1,0,0.2-0.1,0.2-0.1c0.4-0.2,0.6-0.7,0.5-1.2c-0.1-0.6-0.7-0.9-1.3-0.7l-2.2,0.6l1.6-2.8c0.3-0.5,0.1-1.1-0.4-1.4
			c-0.5-0.3-1.1-0.1-1.4,0.4l-1.6,2.8l-0.6-2.2c-0.1-0.6-0.7-0.9-1.3-0.7c-0.5,0.1-0.9,0.7-0.7,1.3l1.1,4.2l-1,1.8l-0.1-0.5
			c-0.1-0.6-0.7-0.9-1.3-0.7c-0.6,0.2-0.9,0.7-0.7,1.3l0.7,2.5l-1.2,2.2l-1.2-2.2l0.7-2.5c0.1-0.6-0.2-1.1-0.7-1.3
			c-0.6-0.1-1.1,0.2-1.3,0.7l-0.1,0.5l-1-1.8l1.1-4.2c0.1-0.6-0.2-1.1-0.7-1.3c-0.6-0.1-1.1,0.2-1.3,0.7l-0.6,2.2l-1.6-2.8
			c-0.3-0.5-0.9-0.7-1.4-0.4c-0.5,0.3-0.7,0.9-0.4,1.4l1.6,2.8l-2.2-0.6c-0.6-0.1-1.1,0.2-1.3,0.7c-0.1,0.6,0.2,1.1,0.7,1.3l4.2,1.1
			l1,1.8l-0.5-0.1c-0.6-0.1-1.1,0.2-1.3,0.7c-0.1,0.6,0.2,1.1,0.7,1.3l2.5,0.7l1.2,2.2h-2.5l-1.8-1.8c-0.4-0.4-1.1-0.4-1.5,0
			c-0.4,0.4-0.4,1.1,0,1.5l0.4,0.4h-2l-3-3c-0.4-0.4-1.1-0.4-1.5,0c-0.4,0.4-0.4,1.1,0,1.5l1.6,1.6h-3.3c-0.6,0-1,0.5-1,1
			c0,0.6,0.5,1,1,1l3.3,0l-1.6,1.6c-0.4,0.4-0.4,1.1,0,1.5c0.3,0.3,0.9,0.4,1.2,0.2c0.1,0,0.1-0.1,0.2-0.2l3-3h2l-0.4,0.4
			c-0.4,0.4-0.4,1.1,0,1.5c0.3,0.3,0.9,0.4,1.2,0.2c0.1,0,0.2-0.1,0.2-0.2l1.8-1.8h2.5l-1.2,2.2l-2.5,0.7c-0.5,0.2-0.9,0.7-0.7,1.3
			c0.1,0.6,0.7,0.9,1.3,0.7l0.5-0.1l-1,1.8l-4.2,1.1c-0.5,0.2-0.9,0.7-0.7,1.3c0.1,0.6,0.7,0.9,1.3,0.7l2.2-0.6l-1.6,2.8
			c-0.3,0.5-0.1,1.1,0.4,1.4c0.3,0.2,0.7,0.2,1,0c0.2-0.1,0.3-0.2,0.4-0.4l1.6-2.8l0.6,2.2c0.1,0.6,0.7,0.9,1.3,0.7
			c0.1,0,0.2-0.1,0.3-0.1C74.4,198.4,74.6,197.9,74.4,197.4z"/>
		<linearGradient id="SVGID_4_" gradientUnits="userSpaceOnUse" x1="189.163" y1="173.1385" x2="218.2612" y2="241.2407">
			<stop  offset="0" style="stop-color:#404B71"/>
			<stop  offset="0.6044" style="stop-color:#3C476E"/>
			<stop  offset="1" style="stop-color:#354169"/>
		</linearGradient>
		<path class="st13" d="M236.7,203.7l-6.3,0l3-3c0.8-0.8,0.8-2,0-2.8c-0.8-0.8-2-0.8-2.8,0l-5.9,5.9l-3.9,0l1.7-1.7
			c0.8-0.8,0.8-2,0-2.8c-0.8-0.8-2-0.8-2.8,0l-4.6,4.6h-3.8l0.1-0.1c0.8-0.8,0.8-2,0.1-2.7c-0.3-1-1.4-1.6-2.4-1.3l-0.2,0l1.9-3.3
			l6.2-1.7c0.2,0,0.3-0.1,0.5-0.2c0.8-0.4,1.2-1.4,0.9-2.2c-0.3-1.1-1.4-1.7-2.4-1.4l-2.4,0.6l2-3.4l8-2.1c0.2,0,0.3-0.1,0.5-0.2
			c0.8-0.4,1.2-1.4,0.9-2.2c-0.3-1.1-1.4-1.7-2.4-1.4l-4.2,1.1l3.2-5.5c0.6-1,0.2-2.2-0.7-2.7c-1-0.5-2.2-0.2-2.7,0.7L215,181
			l-1.1-4.2c-0.3-1.1-1.4-1.7-2.4-1.4c-1.1,0.3-1.7,1.4-1.4,2.4l2.1,8l-2,3.4l-0.6-2.4c-0.3-1.1-1.4-1.7-2.4-1.4
			c-1.1,0.3-1.7,1.4-1.4,2.4l1.7,6.2l-1.9,3.3l0-0.2c-0.3-1-1.3-1.7-2.4-1.4c-1-0.2-2.1,0.4-2.3,1.4l0,0.2l-1.9-3.3l1.7-6.2
			c0.3-1.1-0.3-2.2-1.4-2.4c-1.1-0.3-2.2,0.3-2.4,1.4l-0.6,2.4l-2-3.4l2.1-8c0.3-1.1-0.3-2.2-1.4-2.4c-1.1-0.3-2.2,0.3-2.4,1.4
			l-1.1,4.2l-3.2-5.5c-0.5-1-1.8-1.3-2.7-0.7c-1,0.5-1.3,1.8-0.7,2.7l3.2,5.5l-4.2-1.1c-1.1-0.3-2.2,0.3-2.4,1.4
			c-0.3,1.1,0.3,2.2,1.4,2.4l8,2.1l2,3.4l-2.4-0.6c-1.1-0.3-2.2,0.3-2.4,1.4c-0.3,1.1,0.3,2.2,1.4,2.4l6.2,1.7l1.9,3.3l-0.2,0
			c-1-0.3-2,0.3-2.4,1.3c-0.8,0.8-0.8,2,0,2.8l0.1,0.1l-3.8,0l-4.6-4.6c-0.8-0.8-2-0.8-2.8,0c-0.8,0.8-0.8,2,0,2.8l1.7,1.7l-3.9,0
			l-5.9-5.9c-0.8-0.8-2-0.8-2.8,0c-0.8,0.8-0.8,2,0,2.8l3,3h-6.3c-1.1,0-2,0.9-2,2c0,1.1,0.9,2,2,2l6.3,0l-3,3c-0.8,0.8-0.8,2,0,2.8
			c0.7,0.7,1.6,0.8,2.4,0.3c0.1-0.1,0.3-0.2,0.4-0.3l5.9-5.9l3.9,0l-1.7,1.7c-0.8,0.8-0.8,2,0,2.8c0.7,0.7,1.6,0.8,2.4,0.3
			c0.1-0.1,0.3-0.2,0.4-0.3l4.6-4.6l3.8,0l-0.1,0.1c-0.8,0.8-0.8,2-0.1,2.7c0.3,1,1.4,1.6,2.4,1.3l0.2,0l-1.9,3.3l-6.2,1.7
			c-1.1,0.3-1.7,1.4-1.4,2.4c0.3,1.1,1.4,1.7,2.4,1.4l2.4-0.6l-2,3.4l-8,2.1c-1.1,0.3-1.7,1.4-1.4,2.4c0.3,1.1,1.4,1.7,2.4,1.4
			l4.2-1.1l-3.2,5.5c-0.5,1-0.2,2.2,0.7,2.7c0.6,0.4,1.4,0.3,2,0c0.3-0.2,0.5-0.4,0.7-0.7l3.2-5.5l1.1,4.2c0.3,1.1,1.4,1.7,2.4,1.4
			c0.2,0,0.3-0.1,0.5-0.2c0.8-0.4,1.2-1.3,0.9-2.2l-2.1-8l2-3.4l0.6,2.4c0.3,1.1,1.4,1.7,2.4,1.4c0.2,0,0.3-0.1,0.5-0.2
			c0.8-0.4,1.2-1.3,0.9-2.2l-1.7-6.2l1.9-3.3l0,0.2c0.3,1,1.3,1.7,2.4,1.4c0.5,0.1,1,0,1.4-0.2c0.4-0.3,0.8-0.7,0.9-1.2l0-0.2
			l1.9,3.3l-1.7,6.2c-0.3,1.1,0.3,2.2,1.4,2.4c0.5,0.1,1.1,0.1,1.5-0.2c0.4-0.3,0.8-0.7,0.9-1.2l0.6-2.4l2,3.4l-2.1,8
			c-0.3,1.1,0.3,2.2,1.4,2.4c0.5,0.1,1.1,0.1,1.5-0.2c0.4-0.3,0.8-0.7,0.9-1.2l1.1-4.2l3.2,5.5c0.5,1,1.8,1.3,2.7,0.7
			c1-0.6,1.3-1.8,0.7-2.7l-3.2-5.5l4.2,1.1c0.5,0.1,1.1,0.1,1.5-0.2c0.4-0.3,0.8-0.7,0.9-1.2c0.3-1.1-0.3-2.2-1.4-2.4l-8-2.1l-2-3.4
			l2.4,0.6c0.5,0.1,1.1,0.1,1.5-0.2c0.4-0.3,0.8-0.7,0.9-1.2c0.3-1.1-0.3-2.2-1.4-2.4l-6.2-1.7l-1.9-3.3l0.2,0
			c0.5,0.1,1.1,0.1,1.5-0.2c0.4-0.2,0.7-0.6,0.9-1.1c0.8-0.8,0.8-2,0-2.8l-0.1-0.1h3.8l4.6,4.6c0.7,0.7,1.6,0.8,2.4,0.3
			c0.1-0.1,0.3-0.2,0.4-0.3c0.8-0.8,0.8-2,0-2.8l-1.7-1.7h3.9l5.9,5.9c0.7,0.7,1.6,0.8,2.4,0.3c0.1-0.1,0.3-0.2,0.4-0.3
			c0.8-0.8,0.8-2,0-2.8l-3-3h6.3c0.4,0,0.7-0.1,1-0.3c0.6-0.3,1-1,1-1.7C238.6,204.5,237.8,203.7,236.7,203.7z M204.3,207.9
			c-1.2,0.7-2.8,0.3-3.5-0.9c-0.7-1.2-0.3-2.8,0.9-3.5c1.2-0.7,2.8-0.3,3.5,0.9C206,205.6,205.5,207.1,204.3,207.9z"/>
		<linearGradient id="SVGID_5_" gradientUnits="userSpaceOnUse" x1="148.6286" y1="88.7492" x2="160.6505" y2="116.8914">
			<stop  offset="0" style="stop-color:#404B71"/>
			<stop  offset="0.6044" style="stop-color:#3C476E"/>
			<stop  offset="1" style="stop-color:#354169"/>
		</linearGradient>
		<path class="st14" d="M170.1,103.1h-1l0.4-0.5c0.2-0.3,0.1-0.8-0.2-1c-0.3-0.2-0.8-0.1-1,0.2l-0.9,1.3h-1.5l2-2.8
			c0.2-0.3,0.1-0.8-0.2-1c-0.3-0.2-0.8-0.1-1,0.2l-2.6,3.7h-1.3l1.2-1.7c0.2-0.3,0.1-0.8-0.2-1c-0.3-0.2-0.8-0.1-1,0.2l-1.7,2.5
			h-0.9l0.4-0.5c0.2-0.3,0.1-0.8-0.2-1c-0.3-0.2-0.8-0.1-1,0.2l-0.9,1.3H158l-0.8-1.5l0.2-0.3l1.6-0.1c0.4,0,0.7-0.4,0.7-0.8
			c0-0.4-0.4-0.7-0.8-0.7l-0.6,0.1l0.4-0.8l3-0.3c0.4,0,0.7-0.4,0.7-0.8c0-0.4-0.4-0.7-0.8-0.7l-2,0.2l0.7-1.1l4.5-0.4
			c0.4,0,0.7-0.4,0.7-0.8c0-0.4-0.4-0.7-0.8-0.7l-3.4,0.3l0.7-1.3l1.6-0.1c0.4,0,0.7-0.4,0.7-0.8c0-0.4-0.4-0.7-0.8-0.7l-0.6,0.1
			l0.5-0.9c0.2-0.3,0.1-0.8-0.3-1c-0.3-0.2-0.8-0.1-1,0.3l-0.5,0.9l-0.3-0.6c-0.2-0.4-0.6-0.5-1-0.4c-0.4,0.2-0.5,0.6-0.4,1l0.7,1.5
			l-0.7,1.3l-1.5-3.1c-0.2-0.4-0.6-0.5-1-0.3c-0.4,0.2-0.5,0.6-0.4,1l1.9,4.1l-0.7,1.1l-0.9-1.8c-0.2-0.4-0.6-0.5-1-0.4
			c-0.4,0.2-0.5,0.6-0.4,1l1.3,2.8l-0.4,0.8l-0.3-0.6c-0.2-0.4-0.6-0.5-1-0.3c-0.4,0.2-0.5,0.6-0.4,1l0.7,1.5l-0.2,0.3h-1.7
			l-0.2-0.3l0.7-1.5c0.2-0.4,0-0.8-0.4-1c-0.4-0.2-0.8,0-1,0.3l-0.3,0.6l-0.4-0.8l1.3-2.8c0.2-0.4,0-0.8-0.4-1c-0.4-0.2-0.8,0-1,0.3
			l-0.9,1.8l-0.7-1.1l1.9-4.1c0.2-0.4,0-0.8-0.4-1c-0.4-0.2-0.8,0-1,0.4l-1.5,3.1l-0.7-1.3l0.7-1.5c0.2-0.4,0-0.8-0.4-1
			c-0.4-0.2-0.8,0-1,0.4l-0.3,0.6l-0.5-0.9c-0.2-0.3-0.6-0.5-1-0.3c-0.3,0.2-0.5,0.6-0.3,1l0.5,0.9l-0.6-0.1c-0.4,0-0.8,0.3-0.8,0.7
			c0,0.4,0.3,0.8,0.7,0.8l1.6,0.1l0.7,1.3l-3.4-0.3c-0.4,0-0.8,0.3-0.8,0.7c0,0.4,0.3,0.8,0.7,0.8l4.5,0.4l0.7,1.1l-2-0.2
			c-0.4,0-0.8,0.3-0.8,0.7c0,0.4,0.3,0.8,0.7,0.8l3,0.3l0.4,0.8l-0.6-0.1c-0.4,0-0.8,0.3-0.8,0.7c0,0.4,0.3,0.8,0.7,0.8l1.6,0.1
			l0.2,0.3l-0.8,1.5h-0.3l-0.9-1.3c-0.2-0.3-0.7-0.4-1-0.2c-0.3,0.2-0.4,0.7-0.2,1l0.4,0.5h-0.9l-1.7-2.5c-0.2-0.3-0.7-0.4-1-0.2
			c-0.3,0.2-0.4,0.7-0.2,1l1.2,1.7h-1.3l-2.6-3.7c-0.2-0.3-0.7-0.4-1-0.2c-0.3,0.2-0.4,0.7-0.2,1l2,2.8h-1.5l-0.9-1.3
			c-0.2-0.3-0.7-0.4-1-0.2c-0.3,0.2-0.4,0.7-0.2,1l0.4,0.5h-1c-0.4,0-0.7,0.3-0.7,0.7c0,0.4,0.3,0.7,0.7,0.7h1l-0.4,0.5
			c-0.2,0.3-0.1,0.8,0.2,1c0.1,0.1,0.3,0.1,0.4,0.1c0.2,0,0.5-0.1,0.6-0.3l0.9-1.3h1.5l-2,2.8c-0.2,0.3-0.1,0.8,0.2,1
			c0.1,0.1,0.3,0.1,0.4,0.1c0.2,0,0.5-0.1,0.6-0.3l2.6-3.7h1.3l-1.2,1.7c-0.2,0.3-0.1,0.8,0.2,1c0.1,0.1,0.3,0.1,0.4,0.1
			c0.2,0,0.5-0.1,0.6-0.3l1.7-2.5h0.9l-0.4,0.5c-0.2,0.3-0.1,0.8,0.2,1c0.1,0.1,0.3,0.1,0.4,0.1c0.2,0,0.5-0.1,0.6-0.3l0.9-1.3h0.3
			l0.8,1.5l-0.2,0.3l-1.6,0.1c-0.4,0-0.7,0.4-0.7,0.8c0,0.4,0.4,0.7,0.7,0.7c0,0,0,0,0.1,0l0.6-0.1l-0.4,0.8l-3,0.3
			c-0.4,0-0.7,0.4-0.7,0.8c0,0.4,0.4,0.7,0.7,0.7c0,0,0,0,0.1,0l2-0.2l-0.7,1.1l-4.5,0.4c-0.4,0-0.7,0.4-0.7,0.8
			c0,0.4,0.4,0.7,0.7,0.7c0,0,0,0,0.1,0l3.4-0.3l-0.7,1.3l-1.6,0.1c-0.4,0-0.7,0.4-0.7,0.8c0,0.4,0.4,0.7,0.7,0.7c0,0,0,0,0.1,0
			l0.6-0.1l-0.5,0.9c-0.2,0.3-0.1,0.8,0.3,1c0.1,0.1,0.2,0.1,0.4,0.1c0.3,0,0.5-0.1,0.6-0.4l0.5-0.9l0.3,0.6
			c0.1,0.3,0.4,0.4,0.7,0.4c0.1,0,0.2,0,0.3-0.1c0.4-0.2,0.5-0.6,0.4-1l-0.7-1.5l0.7-1.3l1.5,3.1c0.1,0.3,0.4,0.4,0.7,0.4
			c0.1,0,0.2,0,0.3-0.1c0.4-0.2,0.5-0.6,0.4-1l-1.9-4.1l0.7-1.1l0.9,1.8c0.1,0.3,0.4,0.4,0.7,0.4c0.1,0,0.2,0,0.3-0.1
			c0.4-0.2,0.5-0.6,0.4-1l-1.3-2.8l0.4-0.8l0.3,0.6c0.1,0.3,0.4,0.4,0.7,0.4c0.1,0,0.2,0,0.3-0.1c0.4-0.2,0.5-0.6,0.4-1l-0.7-1.5
			l0.2-0.3h1.7l0.2,0.3l-0.7,1.5c-0.2,0.4,0,0.8,0.4,1c0.1,0,0.2,0.1,0.3,0.1c0.3,0,0.5-0.2,0.7-0.4l0.3-0.6l0.4,0.8l-1.3,2.8
			c-0.2,0.4,0,0.8,0.4,1c0.1,0,0.2,0.1,0.3,0.1c0.3,0,0.5-0.2,0.7-0.4l0.9-1.8l0.7,1.1l-1.9,4.1c-0.2,0.4,0,0.8,0.4,1
			c0.1,0,0.2,0.1,0.3,0.1c0.3,0,0.5-0.2,0.7-0.4l1.5-3.1l0.7,1.3l-0.7,1.5c-0.2,0.4,0,0.8,0.4,1c0.1,0,0.2,0.1,0.3,0.1
			c0.3,0,0.5-0.2,0.7-0.4l0.3-0.6l0.5,0.9c0.1,0.2,0.4,0.4,0.6,0.4c0.1,0,0.2,0,0.4-0.1c0.3-0.2,0.5-0.6,0.3-1l-0.5-0.9l0.6,0.1
			c0,0,0,0,0.1,0c0.4,0,0.7-0.3,0.7-0.7c0-0.4-0.3-0.8-0.7-0.8l-1.6-0.1l-0.7-1.3l3.4,0.3c0,0,0,0,0.1,0c0.4,0,0.7-0.3,0.7-0.7
			c0-0.4-0.3-0.8-0.7-0.8l-4.5-0.4l-0.7-1.1l2,0.2c0,0,0,0,0.1,0c0.4,0,0.7-0.3,0.7-0.7c0-0.4-0.3-0.8-0.7-0.8l-3-0.3l-0.4-0.8
			l0.6,0.1c0,0,0,0,0.1,0c0.4,0,0.7-0.3,0.7-0.7c0-0.4-0.3-0.8-0.7-0.8l-1.6-0.1l-0.2-0.3l0.8-1.5h0.3l0.9,1.3
			c0.1,0.2,0.4,0.3,0.6,0.3c0.1,0,0.3,0,0.4-0.1c0.3-0.2,0.4-0.7,0.2-1l-0.4-0.5h0.9l1.7,2.5c0.1,0.2,0.4,0.3,0.6,0.3
			c0.1,0,0.3,0,0.4-0.1c0.3-0.2,0.4-0.7,0.2-1l-1.2-1.7h1.3l2.6,3.7c0.1,0.2,0.4,0.3,0.6,0.3c0.1,0,0.3,0,0.4-0.1
			c0.3-0.2,0.4-0.7,0.2-1l-2-2.8h1.5l0.9,1.3c0.1,0.2,0.4,0.3,0.6,0.3c0.1,0,0.3,0,0.4-0.1c0.3-0.2,0.4-0.7,0.2-1l-0.4-0.5h1
			c0.4,0,0.7-0.3,0.7-0.7C170.9,103.4,170.5,103.1,170.1,103.1z M154.2,105.3l-0.8-1.5l0.8-1.5h1.7l0.8,1.5l-0.8,1.5H154.2z"/>
		<circle class="st4" cx="182.8" cy="85.2" r="3.4"/>
		<circle class="st4" cx="57.1" cy="149.4" r="3.4"/>
		<circle class="st4" cx="62.1" cy="162.5" r="1.5"/>
		<circle class="st4" cx="50.3" cy="170.3" r="1.5"/>
		<circle class="st4" cx="170.9" cy="81.7" r="1.5"/>
		<circle class="st4" cx="198.4" cy="117.6" r="3.8"/>
		<circle class="st4" cx="227.4" cy="241.3" r="3.8"/>
		<circle class="st4" cx="219.3" cy="127.5" r="2.8"/>
		<circle class="st4" cx="213.9" cy="136" r="1.5"/>
		<circle class="st4" cx="187.8" cy="126" r="1.5"/>
		<circle class="st4" cx="267.3" cy="149.4" r="1.5"/>
		<circle class="st4" cx="236.4" cy="127.5" r="1.5"/>
		<circle class="st4" cx="230.4" cy="139" r="1.5"/>
		<circle class="st4" cx="228.9" cy="127.3" r="1.5"/>
		<circle class="st4" cx="236.4" cy="117.6" r="1.5"/>
		<circle class="st4" cx="276.6" cy="129" r="1.5"/>
		<circle class="st4" cx="281.1" cy="122.9" r="1.5"/>
		<circle class="st4" cx="233.4" cy="232.8" r="1.5"/>
		<circle class="st4" cx="244.8" cy="231.3" r="1.5"/>
		<circle class="st4" cx="237.9" cy="239.8" r="1.5"/>
		<circle class="st4" cx="205.9" cy="116.1" r="1.5"/>
		<circle class="st4" cx="212.4" cy="122.9" r="1.5"/>
	</g>
</g>
<g id="zakvaska">
</g>
<g id="shariki_2">
</g>
<g id="shariki_1">
</g>
<g id="voronka">
</g>
<g id="gradusnik">
</g>
<g id="kolba_2">
</g>
<g id="kolba_1">
</g>
<g id="probirki">
</g>
<g id="lupa">
</g>
<g id="bidon">
</g>
<g id="blank">
</g>
</svg>
