<?xml version="1.0" encoding="utf-8"?>
<!-- Generator: Adobe Illustrator 19.0.0, SVG Export Plug-In . SVG Version: 6.00 Build 0)  -->
<svg version="1.1" xmlns="http://www.w3.org/2000/svg" xmlns:xlink="http://www.w3.org/1999/xlink" x="0px" y="0px"
	 viewBox="71 -4.6 272.1 258.6" style="enable-background:new 71 -4.6 272.1 258.6;" xml:space="preserve">
<style type="text/css">
	.st0{fill:#EAEAEA;}
	.st1{fill:#D8D8D8;}
	.st2{fill:#353535;}
	.st3{fill:#CECECE;}
	.st4{fill:#A0A0A0;}
	.st5{fill:#FFFFFF;}
	.st6{fill:#F70004;}
	.st7{fill:#F98F94;}
	.st8{fill:#777676;}
	.st9{fill:#1E1E1E;}
	.st10{fill:#F9F9F9;}
	.st11{fill:#1669B3;}
	.st12{fill:#EDEDED;}
	.st13{fill:none;stroke:#636363;stroke-width:0.75;}
	.st14{fill:#636363;}
	.st15{fill:#FCF7F0;}
	.st16{fill:#EDDDC8;}
</style>
<g id="owen">
	<path class="st0" d="M290.4,201.7c0,8.3-6.7,15-15,15H135.1c-8.3,0-15-6.7-15-15V61.5c0-8.3,6.7-15,15-15h140.4c8.3,0,15,6.7,15,15
		v140.2H290.4z"/>
	<path class="st1" d="M280.8,195c0,8.7-6.7,15.7-14.9,15.7h-122c-8.3,0-14.9-7-14.9-15.7v-85c0-8.7,6.7-15.7,14.9-15.7h121.9
		c8.3,0,14.9,7,14.9,15.7L280.8,195L280.8,195z"/>
	<path class="st2" d="M271.6,187.6c0,7.2-5.9,13.1-13.1,13.1H151.6c-7.2,0-13.1-5.9-13.1-13.1v-70.9c0-7.2,5.9-13.1,13.1-13.1h106.8
		c7.2,0,13.1,5.9,13.1,13.1v70.9H271.6z"/>
	<g>
		<circle class="st3" cx="237.9" cy="72.5" r="5.1"/>
		<rect x="237.6" y="62.4" class="st4" width="0.5" height="2.9"/>
		<rect x="237.6" y="79.7" class="st4" width="0.5" height="2.9"/>
		<rect x="245" y="72.3" class="st4" width="2.9" height="0.5"/>
		<rect x="227.8" y="72.3" class="st4" width="2.9" height="0.5"/>
		
			<rect x="243.5" y="64.7" transform="matrix(-0.7075 -0.7067 0.7067 -0.7075 369.5037 285.2625)" class="st4" width="0.5" height="2.9"/>
		
			<rect x="231.3" y="76.9" transform="matrix(-0.7075 -0.7067 0.7067 -0.7075 340.0479 297.4804)" class="st4" width="0.5" height="2.9"/>
		<rect x="244" y="77" transform="matrix(0.7063 -0.7079 0.7079 0.7063 16.1923 195.9442)" class="st4" width="0.5" height="2.9"/>
		
			<rect x="231.8" y="64.8" transform="matrix(0.7063 -0.7079 0.7079 0.7063 21.2442 183.7174)" class="st4" width="0.5" height="2.9"/>
		<circle class="st3" cx="208.8" cy="72.5" r="5.1"/>
		<rect x="208.6" y="62.4" class="st4" width="0.5" height="2.9"/>
		<rect x="208.6" y="79.7" class="st4" width="0.5" height="2.9"/>
		<rect x="216" y="72.3" class="st4" width="2.9" height="0.5"/>
		<rect x="198.7" y="72.3" class="st4" width="2.9" height="0.5"/>
		
			<rect x="214.4" y="64.7" transform="matrix(-0.7079 -0.7063 0.7063 -0.7079 319.9673 264.5954)" class="st4" width="0.5" height="2.9"/>
		
			<rect x="202.2" y="76.9" transform="matrix(-0.7079 -0.7063 0.7063 -0.7079 290.5144 276.8232)" class="st4" width="0.5" height="2.9"/>
		<rect x="215" y="77" transform="matrix(0.706 -0.7082 0.7082 0.706 7.7316 175.4734)" class="st4" width="0.5" height="2.9"/>
		
			<rect x="202.8" y="64.8" transform="matrix(0.7059 -0.7083 0.7083 0.7059 12.7957 163.2678)" class="st4" width="0.5" height="2.9"/>
		<circle class="st3" cx="179.6" cy="72.5" r="5.1"/>
		<rect x="179.4" y="62.4" class="st4" width="0.5" height="2.9"/>
		<rect x="179.4" y="79.7" class="st4" width="0.5" height="2.9"/>
		<rect x="186.8" y="72.3" class="st4" width="2.9" height="0.5"/>
		<rect x="169.5" y="72.3" class="st4" width="2.9" height="0.5"/>
		
			<rect x="185.3" y="64.7" transform="matrix(-0.7075 -0.7067 0.7067 -0.7075 270.0778 244.1796)" class="st4" width="0.5" height="2.9"/>
		
			<rect x="173.1" y="77" transform="matrix(-0.7075 -0.7067 0.7067 -0.7075 240.6251 256.3976)" class="st4" width="0.5" height="2.9"/>
		
			<rect x="185.8" y="77" transform="matrix(0.7064 -0.7078 0.7078 0.7064 -0.8863 154.6994)" class="st4" width="0.5" height="2.9"/>
		<rect x="173.6" y="64.8" transform="matrix(0.7063 -0.7079 0.7079 0.7063 4.1752 142.5)" class="st4" width="0.5" height="2.9"/>
	</g>
	<g>
		<circle class="st5" cx="149.6" cy="72.8" r="5.4"/>
		<circle class="st6" cx="149.6" cy="72.8" r="4.1"/>
		<circle class="st7" cx="148.2" cy="71.4" r="1.1"/>
	</g>
	<rect x="138.5" y="150.4" class="st8" width="132.7" height="3.2"/>
	<rect x="134.8" y="114.5" class="st1" width="139.5" height="6.5"/>
	<rect x="140.3" y="145.9" class="st9" width="130.9" height="4.6"/>
	<rect x="138.5" y="183.2" class="st8" width="133" height="3.2"/>
	<rect x="140.3" y="178.6" class="st9" width="130.9" height="4.6"/>
	<path class="st10" d="M134.8,75.5c0,1.6-1.3,2.9-2.9,2.9l0,0c-1.6,0-2.9-1.3-2.9-2.9V63.9c0-1.6,1.3-2.9,2.9-2.9l0,0
		c1.6,0,2.9,1.3,2.9,2.9V75.5z"/>
	<g id="clock">
	</g>
</g>
<g id="clock_1_">
	<circle class="st11" cx="283" cy="51.4" r="29.8"/>
	<circle class="st12" cx="283" cy="51.4" r="24.5"/>
	<ellipse class="st13" cx="283" cy="51.4" rx="22.5" ry="22.7"/>
	<rect x="282.1" y="28.8" class="st14" width="1.9" height="5"/>
	
		<rect x="271.4" y="32.1" transform="matrix(-0.8119 0.5838 -0.5838 -0.8119 513.6964 -96.2619)" class="st14" width="1.9" height="5"/>
	
		<rect x="265" y="39" transform="matrix(-0.4664 0.8846 -0.8846 -0.4664 426.6776 -174.4688)" class="st14" width="1.9" height="5"/>
	<rect x="293" y="31.8" transform="matrix(0.8119 0.5838 -0.5838 0.8119 75.2988 -165.1681)" class="st14" width="1.9" height="5"/>
	
		<rect x="299.7" y="38.9" transform="matrix(0.4664 0.8846 -0.8846 0.4664 197.0988 -243.8387)" class="st14" width="1.9" height="5"/>
	
		<rect x="271.4" y="66" transform="matrix(-0.8117 -0.5841 0.5841 -0.8117 453.4485 283.1666)" class="st14" width="1.9" height="5"/>
	
		<rect x="264.3" y="58" transform="matrix(-0.4665 -0.8845 0.8845 -0.4665 335.4638 323.3931)" class="st14" width="1.9" height="5"/>
	
		<rect x="293.5" y="65.7" transform="matrix(0.8119 -0.5837 0.5837 0.8119 15.5726 184.6869)" class="st14" width="1.9" height="5"/>
	
		<rect x="299.8" y="58.4" transform="matrix(0.4664 -0.8846 0.8846 0.4664 106.5849 298.5416)" class="st14" width="1.9" height="5"/>
	<rect x="282.1" y="69.4" class="st14" width="1.9" height="5"/>
	<rect x="300.8" y="50.5" class="st14" width="5" height="1.9"/>
	<rect x="260.2" y="50.5" class="st14" width="5" height="1.9"/>
	<circle class="st9" cx="283.3" cy="50.7" r="1.8"/>
</g>
<g id="hour">
	
		<rect x="288.4" y="45.7" transform="matrix(0.1082 -0.9941 0.9941 0.1082 206.6828 333.2414)" class="st9" width="1.3" height="11.5"/>
</g>
<g id="minute">
	
		<rect x="285.6" y="33.5" transform="matrix(-0.9386 -0.3451 0.3451 -0.9386 540.2793 181.1549)" class="st9" width="1.3" height="18"/>
</g>
<g id="zapekankas">
	<path class="st15" d="M175.6,142.8c0,1.7-1.4,3.1-3.1,3.1h-24.7c-1.7,0-3.1-1.4-3.1-3.1v-8.6c0-1.7,1.4-3.1,3.1-3.1h24.7
		c1.7,0,3.1,1.4,3.1,3.1V142.8z"/>
	<path class="st15" d="M221.2,142.8c0,1.7-1.4,3.1-3.1,3.1h-24.7c-1.7,0-3.1-1.4-3.1-3.1v-8.6c0-1.7,1.4-3.1,3.1-3.1h24.7
		c1.7,0,3.1,1.4,3.1,3.1V142.8z"/>
	<path class="st15" d="M263.8,142.8c0,1.7-1.4,3.1-3.1,3.1H236c-1.7,0-3.1-1.4-3.1-3.1v-8.6c0-1.7,1.4-3.1,3.1-3.1h24.7
		c1.7,0,3.1,1.4,3.1,3.1V142.8z"/>
	<path class="st15" d="M175.6,175.6c0,1.7-1.4,3.1-3.1,3.1h-24.7c-1.7,0-3.1-1.4-3.1-3.1V167c0-1.7,1.4-3.1,3.1-3.1h24.7
		c1.7,0,3.1,1.4,3.1,3.1V175.6z"/>
	<path class="st15" d="M221.2,175.6c0,1.7-1.4,3.1-3.1,3.1h-24.7c-1.7,0-3.1-1.4-3.1-3.1V167c0-1.7,1.4-3.1,3.1-3.1h24.7
		c1.7,0,3.1,1.4,3.1,3.1V175.6z"/>
	<path class="st15" d="M263.8,175.6c0,1.7-1.4,3.1-3.1,3.1H236c-1.7,0-3.1-1.4-3.1-3.1V167c0-1.7,1.4-3.1,3.1-3.1h24.7
		c1.7,0,3.1,1.4,3.1,3.1V175.6z"/>
</g>
<g id="drops">
	<g>
		<circle class="st16" cx="153.4" cy="135" r="1.3"/>
		<circle class="st16" cx="167.3" cy="141.5" r="1.3"/>
		<circle class="st16" cx="154" cy="138.5" r="2"/>
		<circle class="st16" cx="147.7" cy="141.2" r="0.9"/>
		<circle class="st16" cx="147.7" cy="133.6" r="0.9"/>
		<circle class="st16" cx="159.2" cy="141.2" r="0.9"/>
		<circle class="st16" cx="173.1" cy="134" r="0.6"/>
		<circle class="st16" cx="167" cy="174" r="1.3"/>
		<circle class="st16" cx="153.1" cy="167.5" r="1.3"/>
		<circle class="st16" cx="158.3" cy="171.2" r="2"/>
		<circle class="st16" cx="172.7" cy="167.8" r="0.9"/>
		<circle class="st16" cx="172.7" cy="175.4" r="0.9"/>
		<circle class="st16" cx="161.2" cy="167.8" r="0.9"/>
		<circle class="st16" cx="147.3" cy="175" r="0.6"/>
		<circle class="st16" cx="211.4" cy="137.1" r="1.3"/>
		<circle class="st16" cx="214.1" cy="141.5" r="1.3"/>
		<circle class="st16" cx="201.5" cy="141.2" r="2"/>
		<circle class="st16" cx="194.5" cy="141.2" r="0.9"/>
		<circle class="st16" cx="209.7" cy="143.2" r="0.9"/>
		<circle class="st16" cx="205.3" cy="136.3" r="0.9"/>
		<circle class="st16" cx="196" cy="135.4" r="0.6"/>
		<circle class="st16" cx="197.6" cy="173.9" r="1.3"/>
		<circle class="st16" cx="200.8" cy="171.8" r="1.3"/>
		<circle class="st16" cx="207.5" cy="169.8" r="2"/>
		<circle class="st16" cx="195.4" cy="167.5" r="0.9"/>
		<circle class="st16" cx="199.3" cy="167.8" r="0.9"/>
		<circle class="st16" cx="203.7" cy="174.7" r="0.9"/>
		<circle class="st16" cx="213" cy="175.6" r="0.6"/>
		<circle class="st16" cx="253.2" cy="137.1" r="1.3"/>
		<circle class="st16" cx="242.8" cy="135.4" r="1.3"/>
		<circle class="st16" cx="259.2" cy="135.4" r="2"/>
		<circle class="st16" cx="236.3" cy="141.2" r="0.9"/>
		<circle class="st16" cx="237.2" cy="137.6" r="0.9"/>
		<circle class="st16" cx="245.2" cy="140.5" r="0.9"/>
		<circle class="st16" cx="237.8" cy="135.4" r="0.6"/>
		<circle class="st16" cx="248.3" cy="136.5" r="0.6"/>
		<circle class="st16" cx="240.3" cy="140.1" r="0.6"/>
		<circle class="st16" cx="240.8" cy="142.3" r="0.6"/>
		<circle class="st16" cx="243.4" cy="172.8" r="1.3"/>
		<circle class="st16" cx="239.7" cy="175.6" r="1.3"/>
		<circle class="st16" cx="238.4" cy="168.2" r="2"/>
		<circle class="st16" cx="260.3" cy="168.7" r="0.9"/>
		<circle class="st16" cx="259.4" cy="172.3" r="0.9"/>
		<circle class="st16" cx="251.3" cy="169.4" r="0.9"/>
		<circle class="st16" cx="258.8" cy="174.5" r="0.6"/>
		<circle class="st16" cx="248.3" cy="173.5" r="0.6"/>
		<circle class="st16" cx="256.3" cy="169.8" r="0.6"/>
		<circle class="st16" cx="255.7" cy="167.6" r="0.6"/>
	</g>
</g>
</svg>
