<?xml version="1.0" encoding="utf-8"?>
<!-- Generator: Adobe Illustrator 19.0.0, SVG Export Plug-In . SVG Version: 6.00 Build 0)  -->
<svg version="1.1" xmlns="http://www.w3.org/2000/svg" xmlns:xlink="http://www.w3.org/1999/xlink" x="0px" y="0px"
	 viewBox="0 0 246.3 184.2" style="enable-background:new 0 0 246.3 184.2;" xml:space="preserve">
<style type="text/css">
	.st0{fill:#FFCC66;}
	.st1{fill:#EAB353;}
	.st2{fill:#FCD597;}
	.st3{fill:#F7F2EB;}
	.st4{fill:#DD9827;}
	.st5{fill-rule:evenodd;clip-rule:evenodd;fill:#DD9827;}
	.st6{fill-rule:evenodd;clip-rule:evenodd;fill:#62BA47;}
	.st7{fill:#62BA47;}
	.st8{fill:#FFFFFF;}
	.st9{fill:#62BA46;}
</style>
<g id="Layer_2">
</g>
<g id="kolba_4">
</g>
<g id="kolba_3">
</g>
<g id="kolby">
	<polygon class="st0" points="125.4,130.1 52.5,105.5 52.5,74.6 125.4,99.2 	"/>
	<polygon class="st1" points="125.3,130.1 198.2,105.5 198.2,74.6 125.3,99.2 	"/>
	<polygon class="st2" points="125.1,50 52.2,74.6 125.3,99.2 198.2,74.6 	"/>
	<polygon class="st3" points="127.4,61.5 88.7,74.6 127.5,87.7 166.3,74.6 	"/>
	<path class="st4" d="M127.5,88.6L86,74.6l41.4-14l41.5,14L127.5,88.6z M91.3,74.6l36.2,12.2l36.1-12.2l-36.2-12.2L91.3,74.6z"/>
	<g>
		
			<ellipse transform="matrix(0.9971 -7.611595e-02 7.611595e-02 0.9971 -7.4601 12.6669)" class="st4" cx="162.4" cy="104.2" rx="7.4" ry="8.2"/>
		<path class="st5" d="M158.2,94.4c0,0.6-0.3,1.1-0.9,1.1c-0.5,0-1-0.4-1-1c0-0.6,0.3-1.1,0.9-1.1C157.7,93.4,158.1,93.8,158.2,94.4
			L158.2,94.4z"/>
		<path class="st6" d="M158.5,97.9c0.1,0.7-0.4,1.4-1.1,1.4c-0.7,0.1-1.3-0.5-1.3-1.3c-0.1-0.7,0.4-1.4,1.1-1.4
			C157.8,96.6,158.4,97.2,158.5,97.9L158.5,97.9z"/>
		<path class="st6" d="M155.1,96.1c0,0.4-0.3,0.8-0.7,0.9c-0.4,0-0.8-0.3-0.8-0.7c0-0.4,0.3-0.8,0.7-0.9
			C154.7,95.3,155,95.7,155.1,96.1L155.1,96.1z"/>
		<g>
			
				<ellipse transform="matrix(0.9971 -7.611595e-02 7.611595e-02 0.9971 -6.8352 13.0818)" class="st7" cx="168.2" cy="96.2" rx="4.1" ry="4.5"/>
			<g>
				<path class="st8" d="M167.1,95.6c-0.3,0.1-0.4,0.5-0.4,0.8l0,0l0,0c0,0,0,0.1,0,0.1c0,0.1,0,0.3,0,0.4c0,0.1,0,0.2,0,0.2
					c-0.1,0-0.2-0.2-0.3-0.3c-0.1-0.2-0.2-0.5-0.2-0.7c-0.1-0.3-0.1-0.5-0.1-0.8c0-0.1,0-0.2,0-0.3c0,0,0-0.1,0-0.1c0,0,0-0.1,0-0.1
					c0-0.2-0.2,0-0.3,0.1c-0.2,0.5-0.1,1.2,0,1.7c0,0.2,0,0.3,0,0.5c0,0.1,0,0.3-0.1,0.4c0,0.1-0.1,0-0.2,0c-0.1,0-0.1-0.1-0.1-0.2
					c0-0.1-0.1,0-0.1,0c-0.1,0.1-0.1,0.2-0.1,0.3c0,0.2,0.2,0.4,0.4,0.3c0.3-0.1,0.4-0.5,0.4-0.9c0-0.2,0-0.3,0-0.5
					c0.1,0.2,0.1,0.4,0.2,0.6c0.1,0.1,0.2,0.3,0.4,0.2c0.1,0,0.2-0.2,0.3-0.4c0.1,0.1,0.2,0.2,0.3,0.2c0.2,0,0.3-0.2,0.3-0.4
					c0.1-0.2,0.1-0.4,0-0.6C167.6,96.1,167.5,95.6,167.1,95.6z M167.3,96.9c0,0,0,0.1,0,0.1c-0.1,0-0.1-0.1-0.1-0.2
					c-0.1-0.1-0.1-0.3-0.1-0.4c0-0.1,0-0.3,0-0.4c0,0,0-0.1,0-0.1c0.2,0.1,0.2,0.3,0.3,0.5C167.3,96.7,167.4,96.8,167.3,96.9z"/>
				<path class="st8" d="M171.2,95.9c-0.4-0.1-0.5,0.4-0.6,0.7c0,0.3-0.1,0.8,0.2,0.9c0.2,0.1,0.3-0.1,0.4-0.2
					c0.1-0.1,0.2-0.3,0.2-0.5C171.6,96.5,171.6,96,171.2,95.9z M171.1,97.2C171.1,97.2,171.1,97.3,171.1,97.2
					c-0.1,0.1-0.1-0.1-0.1-0.1c0-0.1,0-0.3,0-0.4c0-0.1,0-0.3,0.1-0.4c0,0,0-0.1,0-0.1c0.2,0.2,0.1,0.4,0.1,0.6
					C171.2,96.9,171.2,97.1,171.1,97.2z"/>
				<path class="st8" d="M170.3,96c0.1-0.1,0.1-0.2,0.2-0.3c0.1-0.2,0.2-0.5,0.2-0.8c0-0.3-0.4-0.3-0.5-0.2
					c-0.2,0.1-0.3,0.4-0.4,0.7c-0.1,0.4-0.1,0.7-0.1,1.1c0,0,0,0,0,0c-0.1,0.2-0.3,0.5-0.5,0.4c0,0-0.1-0.1-0.1-0.2
					c0.1-0.2,0.3-0.4,0.4-0.6c0.1-0.2,0.1-0.5-0.1-0.6c-0.2-0.1-0.4,0-0.5,0.2c-0.1,0.2-0.1,0.4-0.1,0.6c0,0.1,0,0.3,0,0.5
					c-0.1,0.1-0.2,0.1-0.4,0.1c-0.1,0-0.2-0.2-0.2-0.3c-0.1-0.2-0.1-0.4,0-0.6c0-0.1,0-0.1,0-0.2c0,0,0,0,0,0c0.1,0,0.1,0.2,0.2,0.2
					c0,0.1,0.3-0.1,0.3-0.2c0-0.1-0.1-0.3-0.2-0.3c-0.1-0.1-0.3,0.1-0.4,0.2c-0.2,0.3-0.2,0.6-0.2,0.9c0,0.2,0.1,0.5,0.3,0.6
					c0.2,0.1,0.5,0,0.7-0.2c0.1,0.1,0.2,0.2,0.4,0.2c0.2-0.1,0.4-0.2,0.6-0.4c0,0.2,0.1,0.4,0.2,0.5c0.2,0.1,0.4-0.1,0.5-0.2
					c0.1-0.2,0.2-0.6,0.1-0.9C170.5,96.1,170.4,96,170.3,96z M169,96c0-0.1,0-0.1,0-0.2l0,0c0.1,0,0.1,0.1,0.1,0.2
					c0,0.2-0.1,0.3-0.2,0.5c0,0,0-0.1,0-0.1C169,96.3,169,96.1,169,96z M170.1,95.1c0-0.1,0-0.1,0.1-0.2c0,0,0,0,0,0
					c0.2,0.2,0,0.4,0,0.6c-0.1,0.2-0.1,0.3-0.2,0.5c0-0.2,0-0.3,0-0.5C170,95.4,170.1,95.3,170.1,95.1z M170.2,97
					C170.2,97,170.2,97,170.2,97C170.2,97,170.1,97,170.2,97c-0.2,0-0.2-0.2-0.2-0.3c0-0.1,0-0.2,0-0.2c0-0.1,0.1-0.1,0.1-0.2
					c0.1-0.1,0.1,0,0.2,0.1C170.3,96.6,170.2,96.8,170.2,97z"/>
			</g>
		</g>
		<g>
			<g>
				<g>
					<path class="st8" d="M162.4,101.7C162.4,101.7,162.4,101.7,162.4,101.7C162.4,101.7,162.4,101.7,162.4,101.7
						c-0.5,0.1-0.5,0.7-0.5,1c0,0.3,0.1,0.9,0.4,0.9c0.2,0,0.3-0.2,0.4-0.4c0.1-0.2,0.1-0.4,0.1-0.6
						C162.8,102.3,162.8,101.7,162.4,101.7z M162.5,103.1C162.5,103.1,162.5,103.1,162.5,103.1c0,0.1,0,0.1,0,0.1c0,0,0,0,0,0
						c-0.2,0-0.3-0.5-0.3-0.6c0-0.1,0-0.3,0-0.4c0,0,0-0.1,0-0.1c0.2,0,0.3,0.5,0.3,0.6C162.5,102.8,162.5,102.9,162.5,103.1z"/>
					<path class="st8" d="M161.4,101.8c-0.1-0.1-0.3,0-0.4,0.1c0-0.1-0.1-0.2-0.1-0.3c0-0.1-0.2,0-0.2,0c0,0-0.1,0.1-0.1,0.1
						c0,0,0,0,0,0c0,0.1,0,0.1,0,0.2c0,0,0,0,0,0c-0.1,0-0.2,0-0.3,0c0,0,0,0,0,0c-0.1,0-0.1,0-0.2,0c0,0,0,0,0,0c0,0,0,0,0,0
						c-0.4,0.1-0.4,0.7-0.3,1.1c0.1,0.3,0.2,0.8,0.6,0.8c0.2,0,0.3-0.3,0.4-0.4c0.1-0.2,0.1-0.4,0-0.6c0-0.1-0.1-0.3-0.1-0.5
						c0.1,0,0.1-0.1,0.2-0.2c0.1,0.4,0.2,0.9,0.3,1.3c0.1,0.4,0.1,0.8,0.1,1.2c0,0.1,0.1,0.1,0.1,0c0.1-0.1,0.1-0.2,0.1-0.2
						c0-0.3,0-0.6-0.1-0.8c0.1,0,0.2-0.1,0.3-0.2c0.2-0.3,0.2-0.6,0.1-0.9C161.7,102.3,161.7,101.9,161.4,101.8z M160.5,103.4
						C160.5,103.4,160.5,103.5,160.5,103.4c0,0.1,0,0.1,0,0.1c0,0,0,0,0,0c-0.2,0.1-0.3-0.4-0.4-0.5c0-0.1-0.1-0.3-0.1-0.4
						c0,0,0-0.1,0-0.1c0,0,0,0,0,0c0,0,0,0,0,0c0,0,0,0,0.1,0c0.1,0.1,0.2,0.4,0.3,0.5C160.4,103.1,160.5,103.2,160.5,103.4z
						 M161.2,102.2C161.2,102.2,161.2,102.2,161.2,102.2L161.2,102.2z M161.5,103.3C161.5,103.3,161.5,103.3,161.5,103.3
						L161.5,103.3z M161.5,103.3C161.5,103.3,161.5,103.3,161.5,103.3C161.5,103.3,161.5,103.3,161.5,103.3c-0.1,0.1-0.2,0-0.2-0.2
						c0,0,0,0,0,0c0-0.2-0.1-0.5-0.1-0.7c0,0,0,0,0,0c0-0.1,0-0.1,0-0.2l0,0c0,0,0,0,0,0c0,0,0.1,0,0.1,0.1c0.1,0.1,0.2,0.3,0.2,0.5
						C161.5,102.9,161.5,103.1,161.5,103.3z"/>
					<path class="st8" d="M159.2,102.7c0-0.2,0-0.3,0-0.5c0-0.3,0-0.6-0.1-0.8c-0.2-0.2-0.4,0-0.5,0.2c-0.1,0.3-0.1,0.6-0.1,0.9
						c0,0.3,0.2,0.7,0.3,1c0,0.2,0,0.3-0.1,0.5c0,0,0,0,0,0c0,0,0,0,0-0.1c0-0.1-0.1-0.1-0.1-0.2c-0.2-0.5-0.3-1-0.6-1.5
						c-0.1-0.1-0.2-0.4-0.4-0.2c-0.2,0.1-0.2,0.3-0.3,0.4c-0.1-0.1-0.3-0.2-0.5-0.1c-0.1,0.1-0.1,0.1-0.2,0.2c0-0.1-0.1-0.1-0.1-0.2
						c-0.1-0.1-0.3,0.3-0.2,0.4c0.1,0,0.1,0.2,0.2,0.2c0.1,0.2,0.2,0.4,0.2,0.5c0,0.1,0.1,0.2,0.1,0.3c0.1,0.4,0.3,0.8,0.5,1.1
						c0,0,0,0,0.1,0c0.1,0,0.2-0.3,0.2-0.4c-0.1-0.3-0.3-0.7-0.4-1c-0.1-0.1-0.1-0.3-0.1-0.4c0-0.2-0.1-0.3-0.1-0.5c0,0,0-0.1,0-0.1
						c0.2-0.1,0.4,0.4,0.4,0.5c0.1,0.2,0.2,0.4,0.2,0.6c0.1,0.3,0.2,0.6,0.3,0.9c0,0,0,0,0.1,0c0.1,0,0.2-0.3,0.2-0.3
						c-0.1-0.3-0.2-0.6-0.3-0.9c0-0.1,0-0.1-0.1-0.2c-0.1-0.3-0.2-0.5-0.2-0.8c0,0,0,0,0,0c0.1,0,0.1,0.1,0.1,0.1
						c0.2,0.2,0.3,0.6,0.4,0.9c0.1,0.2,0.1,0.4,0.2,0.6c0,0.1,0.1,0.3,0.2,0.4c0.1,0.1,0.2,0,0.3-0.1c0.1-0.1,0.1-0.3,0.2-0.4
						c0.1,0.2,0.2,0.3,0.4,0.3c0.2-0.1,0.3-0.4,0.4-0.6c0-0.3,0-0.7-0.3-0.9C159.3,102.7,159.2,102.7,159.2,102.7z M158.8,102.4
						c0-0.2-0.1-0.5,0-0.7c0,0,0,0,0,0c0.1,0,0.1,0.1,0.1,0.2c0.1,0.2,0,0.5,0,0.7c0,0.1,0,0.2,0,0.3
						C158.9,102.8,158.8,102.6,158.8,102.4z M159.4,103.4c0,0.1,0,0.2,0,0.4c0,0,0,0,0,0c0,0,0,0,0,0c-0.1,0-0.1-0.1-0.2-0.1
						c-0.1-0.1-0.1-0.2-0.2-0.4c0-0.1,0-0.1,0-0.2c0-0.1,0.1-0.1,0.1,0C159.3,103.2,159.4,103.3,159.4,103.4z"/>
					<path class="st8" d="M168,104.1c0-0.1-0.1,0-0.2,0c0,0,0,0,0,0c0,0,0,0,0-0.1c0-0.1,0-0.1,0-0.2c0-0.2,0-0.3,0.1-0.5
						c0,0,0,0,0,0c0-0.1,0.1-0.3,0.1-0.4c0,0,0,0,0,0c0,0,0,0,0,0c0-0.1,0.1-0.2,0.1-0.2c0-0.1-0.1-0.1-0.1-0.1c0,0,0,0,0,0
						c-0.1-0.1-0.2-0.1-0.3-0.1c-0.3,0-0.5,0.4-0.6,0.7c0,0.2,0.1,0.4,0.3,0.4c0,0,0.1,0,0.1,0c0,0.1-0.1,0.1-0.1,0.2
						c-0.1,0.1-0.2-0.1-0.2-0.2c0,0,0-0.1-0.1-0.1c0,0,0,0,0,0c-0.1,0-0.1,0-0.2,0.1c0,0,0,0,0,0c0-0.1,0-0.2,0-0.3
						c0-0.3,0.1-0.6,0.2-0.9c0,0,0,0,0,0c0-0.2-0.1-0.3-0.3-0.3c-0.2,0-0.4,0.1-0.5,0.2c-0.2,0.2-0.3,0.5-0.3,0.8l0,0
						c0,0.1-0.1,0.2-0.1,0.3c0,0,0,0,0,0c0,0,0,0,0,0c-0.1-0.1,0-0.3,0-0.3c0-0.3,0-0.6,0.1-0.9c0-0.1,0.1-0.1,0.1-0.2
						c0-0.1,0-0.1-0.1-0.1c-0.1,0-0.2,0.1-0.2,0.2c0,0.1-0.1,0.1-0.1,0.2c0,0.1-0.1,0.2-0.2,0.3c-0.1,0.1-0.1,0.1-0.2,0.1
						c0,0,0,0,0,0c0-0.3,0-0.6,0-0.9c0,0,0-0.1,0-0.1c0,0,0,0,0,0c0,0,0,0,0,0c0,0,0,0,0,0c0,0,0,0,0,0l0,0c0,0-0.1,0-0.1,0
						c-0.1,0-0.1,0.1-0.2,0.1c0,0,0,0,0,0.1c-0.1,0.4-0.2,0.8-0.4,1.2c0,0,0,0,0,0c0,0,0,0,0,0l0,0c0,0,0,0,0,0
						c-0.1,0-0.1-0.1-0.1-0.2c-0.1-0.2-0.1-0.5,0-0.7c0,0,0-0.1,0-0.1c0,0,0-0.1,0-0.1c0,0,0,0,0,0c0,0,0,0,0,0c0,0,0.1,0.1,0.1,0.1
						c0.1,0.1,0.4-0.1,0.3-0.3c-0.1-0.2-0.3-0.2-0.5-0.1c-0.1,0.1-0.2,0.2-0.2,0.3c0,0,0,0,0,0c0,0,0,0,0,0c0,0,0,0,0,0.1
						c0,0,0,0,0,0c0,0.1,0,0.1-0.1,0.2c0-0.2,0-0.5,0-0.7c0-0.2-0.3,0-0.3,0.1c0,0.1-0.1,0.2-0.1,0.3c0-0.1,0-0.2-0.1-0.3
						c-0.1-0.3-0.4-0.2-0.5,0c0,0-0.1,0.2-0.1,0.2c0.1,0,0.1,0,0.2-0.1c0,0,0,0,0,0c0,0,0,0,0,0c0,0,0.1,0.1,0.1,0.1
						c0.1,0.1,0.1,0.3,0.1,0.5c0,0.2,0,0.3,0,0.5c0,0,0,0,0,0c0,0,0,0,0,0c0,0-0.1-0.1-0.1-0.1c-0.1-0.1-0.3,0.2-0.2,0.3
						c0.2,0.3,0.4,0.1,0.6-0.1c0-0.1,0.1-0.2,0.1-0.3c0-0.1,0.1-0.2,0.1-0.2c0,0.2,0,0.5,0,0.7c0,0.1,0.1,0.1,0.1,0.1
						c0.1,0,0.1-0.1,0.2-0.2c0-0.1,0-0.2,0.1-0.3c0,0.1,0,0.2,0.1,0.3c0,0.1,0.1,0.2,0.2,0.3c0.2,0.1,0.3-0.1,0.4-0.2
						c0.1-0.1,0.2-0.2,0.2-0.3c0,0.2,0,0.3,0,0.5c0,0.1,0.1,0.1,0.1,0.1c0.1,0,0.2-0.1,0.2-0.2c0-0.1,0.1-0.3,0.1-0.4
						c0-0.1,0.1-0.1,0.2-0.1c0,0,0,0,0,0c0,0.2-0.1,0.5,0,0.7c0,0.2,0.1,0.3,0.3,0.2c0.1,0,0.1-0.1,0.2-0.1c0,0.1,0,0.2,0.1,0.2
						c0.1,0.1,0.3,0,0.4,0c0,0,0,0,0,0c0,0,0,0.1,0,0.1c0,0.2,0.2,0.2,0.3,0.2c0.1,0.2,0.4,0.2,0.5,0.1c0,0,0.1,0,0.1-0.1
						c0,0,0,0.1,0,0.1c0.1,0.2,0.3,0.3,0.5,0.2C168,104.2,168.1,104.2,168,104.1z M166.3,103.6C166.3,103.6,166.3,103.6,166.3,103.6
						c-0.1-0.1-0.1-0.2-0.1-0.2c0-0.1,0-0.2,0-0.3c0,0,0,0,0,0c0,0,0,0,0,0c0-0.1,0.1-0.3,0.1-0.4c0-0.1,0.1-0.2,0.1-0.2
						c0,0,0,0,0,0c0,0,0,0,0,0c0.1,0,0.1,0.1,0.1,0.2C166.5,102.9,166.5,103.2,166.3,103.6C166.4,103.5,166.3,103.5,166.3,103.6z
						 M166.8,103.8L166.8,103.8L166.8,103.8L166.8,103.8z M167.4,103.1c0-0.1,0.1-0.4,0.2-0.4c0,0,0,0,0.1,0c0.1,0.1,0.1,0.1,0,0.2
						c0,0.1-0.1,0.3-0.1,0.4C167.4,103.3,167.4,103.2,167.4,103.1z M167.9,104.1C167.9,104.1,167.9,104.1,167.9,104.1L167.9,104.1z"
						/>
				</g>
			</g>
			<g>
				<path class="st8" d="M167.9,106.6c-0.1,0.1-0.1,0.2-0.2,0.3c0,0,0,0-0.1,0c-0.1,0,0-0.2,0-0.2c0-0.2,0-0.4,0.1-0.6
					c0,0,0-0.1,0-0.1c0-0.1,0-0.1,0.1-0.2c0,0,0,0,0,0c0-0.2-0.1-0.3-0.3-0.3c-0.2,0-0.4,0.1-0.5,0.2c-0.2,0.2-0.3,0.4-0.3,0.7
					c0,0,0,0,0,0c0,0.1-0.1,0.2-0.1,0.3c0,0,0,0,0,0c-0.1,0-0.1-0.2-0.1-0.3c0-0.1,0-0.3,0-0.4c0-0.1-0.1-0.1-0.2-0.1c0,0,0,0,0-0.1
					c0,0,0,0,0-0.1c0-0.1,0.1-0.2,0.2-0.3c0,0,0,0,0,0c0,0,0,0,0,0c0,0,0.1,0.1,0.1,0.1c0.1,0.1,0.4-0.1,0.3-0.2
					c-0.1-0.1-0.3-0.2-0.4-0.1c-0.1,0-0.2,0.1-0.3,0.1c0,0,0,0,0,0c0-0.2,0-0.4,0-0.5c0-0.1-0.4,0-0.3,0.2c0,0.3,0,0.5,0,0.8
					c0,0,0,0,0,0c-0.1,0.2-0.2,0.4-0.4,0.5c0,0-0.1,0-0.1,0c0,0,0,0,0,0c0,0,0,0,0,0c0,0,0-0.1,0-0.1c0-0.2,0-0.4,0-0.6
					c0-0.1,0-0.3,0.1-0.4c0-0.1,0-0.1,0.1-0.2c0-0.1,0-0.1-0.1-0.1c-0.1,0-0.2,0.1-0.2,0.2c0,0.1-0.1,0.1-0.1,0.2
					c0,0.1-0.1,0.2-0.1,0.3c0,0.1-0.1,0.1-0.2,0.2c0,0,0,0,0,0c0-0.3,0-0.5,0-0.8c0-0.2-0.3,0-0.3,0.1c0,0.1,0,0.2,0,0.4
					c0,0,0,0,0,0.1c0,0.3,0,0.5-0.2,0.8c0,0,0,0-0.1,0c-0.1,0-0.1-0.2-0.1-0.2c0-0.2,0-0.4,0-0.6c0,0,0-0.1,0-0.1c0-0.1,0-0.1,0-0.2
					c0,0,0,0,0,0c0-0.2-0.2-0.3-0.4-0.2c-0.2,0-0.3,0.2-0.4,0.3c-0.1,0.2-0.1,0.5-0.1,0.7c0,0,0,0,0,0c0,0.1,0,0.2-0.1,0.3
					c0,0,0,0,0,0c-0.1,0-0.1-0.1-0.1-0.2c0-0.1,0-0.3-0.1-0.4c-0.1-0.1-0.2-0.1-0.3,0c0,0,0,0,0-0.1c0,0,0,0,0-0.1
					c0-0.1,0-0.2,0.1-0.3c0,0,0,0,0,0c0,0,0,0,0,0c0,0,0.1,0,0.1,0.1c0.1,0.1,0.4-0.2,0.3-0.3c-0.1-0.1-0.3-0.1-0.4,0
					c-0.1,0.1-0.2,0.1-0.2,0.2c0,0,0,0,0,0c0-0.2-0.1-0.4-0.1-0.5c0-0.1-0.3,0.1-0.3,0.3c0.1,0.2,0.1,0.3,0.1,0.5
					c0,0.2-0.1,0.5-0.2,0.7c-0.1,0.1-0.1,0.2-0.2,0.3c-0.2,0.2-0.3,0.1-0.4,0c0,0,0,0,0,0c0.2-0.3,0.3-0.6,0.3-0.9
					c0-0.2-0.1-0.4-0.3-0.3c-0.2,0.1-0.3,0.3-0.4,0.5c-0.1,0.2,0,0.5,0,0.7c0,0.1,0,0.1,0.1,0.2c0,0-0.1,0.1-0.1,0.1
					c0,0-0.1,0.1-0.1,0.1c0,0,0,0-0.1,0c-0.1-0.1-0.1-0.4-0.2-0.5c0-0.2-0.1-0.4-0.2-0.6c-0.1-0.1-0.2-0.2-0.3-0.2
					c-0.2,0.1-0.3,0.2-0.3,0.4c0,0,0,0,0,0c0-0.1-0.1-0.2-0.1-0.2c-0.1-0.1-0.3,0.2-0.2,0.3c0.1,0.2,0.1,0.4,0.2,0.6l0,0l0,0
					c0,0,0,0,0,0c0,0.1,0,0.1,0,0.2c0,0.1,0,0.3-0.1,0.4c0,0,0,0,0,0c0,0,0,0,0-0.1c-0.1-0.1-0.1-0.2-0.1-0.3
					c-0.1-0.2-0.2-0.5-0.3-0.8c0,0,0,0,0,0c-0.1-0.2-0.2-0.2-0.4-0.1c-0.2,0.1-0.2,0.3-0.3,0.5c0,0.3,0,0.6,0.1,0.9
					c-0.1,0.1-0.1,0.2-0.2,0.3c-0.1-0.1-0.1-0.1-0.2-0.1c0-0.3-0.1-0.6-0.2-0.9c-0.1-0.1-0.2-0.3-0.4-0.2c-0.1,0.1-0.2,0.2-0.3,0.4
					c-0.1,0.2,0,0.4,0,0.5c0.1,0.2,0.3-0.2,0.2-0.3c0-0.1,0-0.1-0.1-0.2c0,0,0,0,0,0c0,0,0,0,0,0c0,0,0,0,0,0c0.1,0,0.2,0.1,0.2,0.2
					c0.1,0.1,0.1,0.3,0.1,0.4c0,0.1,0,0.1,0,0.2c0,0-0.1,0.1-0.1,0.1c0,0,0,0,0,0.1c0,0.1-0.1,0.2,0,0.2c0,0,0,0,0,0c0,0,0,0,0.1,0
					c0.1,0,0.1-0.1,0.1-0.1c0.1,0,0.1,0,0.2,0.1c-0.1,0.2-0.2,0.5-0.2,0.7c0,0.2,0,0.6,0.2,0.7c0.1,0.1,0.3,0,0.4-0.1
					c0.2-0.3,0.2-0.8,0-1.1c0-0.1-0.1-0.3-0.2-0.4c0.1-0.1,0.1-0.2,0.2-0.3c0.1,0.1,0.1,0.2,0.3,0.2c0.2,0,0.3-0.2,0.3-0.3
					c0,0,0,0,0,0c0.1,0.1,0.2,0.2,0.3,0.1c0.1-0.1,0.2-0.3,0.2-0.4c0,0.1,0,0.2,0.1,0.3c0,0.2,0.3-0.1,0.2-0.3
					c-0.1-0.3-0.1-0.5-0.1-0.8c0-0.1,0-0.2,0-0.3c0,0,0-0.1,0-0.1c0,0,0,0,0,0c0,0,0,0,0,0c0.1,0,0.1,0.1,0.1,0.2
					c0.1,0.2,0.1,0.4,0.1,0.5c0,0.2,0.1,0.7,0.4,0.6c0.1-0.1,0.3-0.2,0.4-0.3c0,0,0.1,0.1,0.1,0.1c0.2,0.2,0.4,0,0.6-0.1
					c0.2-0.2,0.3-0.4,0.4-0.6c0,0.2,0,0.4,0,0.6c0,0.1,0.1,0.1,0.1,0c0.1,0,0.1-0.1,0.1-0.2c0-0.2,0-0.3,0-0.5
					c0.2,0,0.1,0.5,0.3,0.6c0.1,0.1,0.3,0,0.3-0.1c0,0,0.1-0.1,0.1-0.1c0,0.1,0.1,0.2,0.2,0.2c0.1,0.1,0.3,0,0.4-0.2c0,0,0,0,0,0
					c0,0.1,0.1,0.2,0.2,0.2c0.1,0,0.2,0,0.3-0.1c0,0,0.1-0.1,0.1-0.1c0,0.1,0,0.1,0,0.2c0,0.1,0.1,0.1,0.1,0.1
					c0.1,0,0.2-0.1,0.2-0.2c0-0.1,0-0.3,0.1-0.4c0-0.1,0.1-0.1,0.1-0.1c0,0,0,0,0,0c0,0,0,0.1,0,0.1c0,0.2,0,0.5,0.1,0.7
					c0.1,0.2,0.4,0,0.5-0.1c0.1,0,0.1-0.1,0.2-0.2c0,0.1,0,0.2-0.1,0.3c0,0.1,0.1,0.1,0.1,0.1c0.1,0,0.2-0.1,0.2-0.2
					c0-0.2,0.1-0.3,0.1-0.4c0.2,0.1,0,0.6,0.1,0.7c0.1,0.1,0.3,0.1,0.4,0c0,0,0.1,0,0.1-0.1c0,0.1,0,0.2,0.1,0.2
					c0.1,0.1,0.3,0.1,0.4,0c0,0,0,0,0,0c0,0.1,0,0.2,0.1,0.2c0.1,0.1,0.2,0,0.3,0c0.1-0.1,0.2-0.1,0.3-0.3
					C168.1,106.6,168,106.5,167.9,106.6z M158.6,108.8L158.6,108.8C158.6,108.8,158.6,108.8,158.6,108.8c0,0-0.1,0.1-0.1,0
					c-0.2-0.1-0.2-0.4-0.2-0.5c0-0.1,0-0.3,0.1-0.4c0,0,0,0,0,0.1c0.1,0.1,0.1,0.3,0.2,0.4C158.6,108.6,158.6,108.7,158.6,108.8z
					 M159.1,107.1C159.1,107.1,159.1,107.1,159.1,107.1c-0.1,0-0.2-0.1-0.2-0.1c-0.1-0.2-0.2-0.4-0.2-0.7c0-0.1,0-0.2,0-0.2
					c0,0,0,0,0,0c0,0,0,0,0,0c0.1,0,0.1,0,0.1,0.1C159,106.4,159.1,106.7,159.1,107.1C159.1,107,159.1,107.1,159.1,107.1z
					 M161.3,106c0-0.1-0.1-0.3-0.1-0.5c0-0.1,0-0.1,0-0.2c0,0,0,0,0,0c0,0,0,0,0.1,0c0.1,0,0.1,0.1,0.1,0.2
					C161.4,105.6,161.4,105.8,161.3,106z M163.7,106.1C163.7,106.1,163.7,106.1,163.7,106.1C163.6,106.2,163.6,106.2,163.7,106.1
					c-0.1,0-0.2-0.1-0.2-0.1c-0.1-0.2-0.1-0.5,0-0.7c0-0.1,0.1-0.2,0.1-0.2c0,0,0,0,0,0c0,0,0,0,0,0c0.1,0,0.1,0.1,0.1,0.1
					C163.7,105.5,163.7,105.8,163.7,106.1z M167.5,105.8c-0.1,0.3-0.1,0.6-0.3,0.9c0,0,0,0,0,0.1c0,0,0,0,0,0
					c-0.1,0-0.1-0.2-0.1-0.2c0-0.2,0-0.5,0.1-0.7c0-0.1,0.1-0.2,0.1-0.2c0,0,0,0,0,0c0,0,0,0,0,0
					C167.5,105.6,167.5,105.7,167.5,105.8z"/>
				<polygon class="st8" points="158.6,108.8 158.6,108.8 158.6,108.8 				"/>
				<path class="st8" d="M158.6,108.8C158.6,108.8,158.6,108.8,158.6,108.8L158.6,108.8z"/>
				<path class="st8" d="M161.2,105.3C161.2,105.3,161.2,105.3,161.2,105.3L161.2,105.3z"/>
			</g>
		</g>
		<g>
			<path class="st9" d="M153.2,101.4c0,0-0.1-0.1-0.1-0.1c-0.2-0.1-0.3,0.1-0.4,0.1c-0.4,0-0.5,0-0.9-0.1c0-0.4,0.2-0.7,0.2-1
				c0.1-0.3-0.1-0.6-0.1-0.9c0-0.2,0-0.4,0-0.6c-0.1,0.1,0,0.5,0,0.7c-0.1-0.2-0.1-0.6-0.2-0.8c0,0.2,0,0.6,0.1,0.8
				c-0.1-0.2-0.1-0.5-0.2-0.7c-0.1,0.2,0.1,0.5,0.1,0.7c-0.1-0.2-0.1-0.4-0.3-0.6c0,0.3,0.1,0.5,0.1,0.7c-0.1-0.1-0.1-0.3-0.3-0.4
				c0,0.2,0.1,0.4,0.2,0.5c-0.1,0-0.1-0.2-0.3-0.2c0,0.1,0.1,0.2,0.2,0.3c-0.1,0-0.1-0.1-0.2-0.2c0,0.1,0.1,0.1,0.1,0.2
				c-0.1,0-0.1-0.1-0.2-0.1c0,0.1,0.1,0.1,0.1,0.2c0,0-0.1,0-0.1,0c0,0,0.1,0.1,0.1,0.1c0,0-0.1,0-0.1,0c0,0.1,0.1,0,0.1,0.1
				c0,0,0,0-0.1,0c0,0.1,0,0,0,0.1c-0.3,0.4-0.1,0.7-0.1,1.1c0-0.1-0.3-0.1-0.5-0.2c-0.1,0-0.1-0.2-0.2-0.2c0,0,0,0,0,0
				c0,0-0.1,0-0.1-0.1c0,0,0.1,0,0.1,0c-0.1,0-0.2-0.1-0.2-0.1c0.1,0,0.1,0,0.2,0c-0.1,0-0.2-0.1-0.3-0.2c0.1,0,0.2,0.1,0.3,0.1
				c-0.1-0.1-0.3-0.2-0.4-0.3c0.1,0,0.2,0.2,0.3,0.1c-0.2,0-0.3-0.2-0.4-0.2c0.1,0.1,0.3,0.2,0.4,0.3c-0.1-0.1-0.2-0.1-0.4-0.2
				c0.1,0.2,0.2,0.2,0.3,0.3c-0.1,0-0.2-0.1-0.3-0.1c0,0.1,0.2,0.1,0.3,0.2c0,0-0.1,0-0.2,0c0,0.1,0.1,0.1,0.2,0.1
				c-0.1,0-0.1,0-0.1,0c0,0,0.1,0,0.2,0.1c0,0-0.1,0-0.1,0c0,0,0.1,0,0.1,0c0,0,0,0,0,0.1c0,0,0.1,0,0.1,0c0,0,0,0,0,0
				c0.2,0.1,0.3,0.4,0.5,0.4c-0.1,0.1,0.1,0.2-1.3,0.8c0.1,0,0.6-0.2,0.8-0.3c0.2-0.1,0.3-0.2,0.5-0.2c0,0,0.1,0,0.1,0
				c0.3-0.1,0.6,0,0.8-0.2c-0.2,0.1-0.6,0.1-0.8,0c0.2-0.3,0-1.2,0.1-1.4c0.1-0.2,0.3-0.7,0.7-0.3c0.1,0.1,0.1,0.2,0,0.4
				c-0.1,0.2-0.2,0.4-0.1,0.9c0,0.1,0,0.2-0.1,0.2c0.6,0.1,0.8,0,1.2-0.1c0.1,0,0.3-0.1,0.3,0c0,0-0.1,0.1-0.2,0.1
				c-0.2,0,0.1,0.1,0.2,0.1c0,0,0.4-0.1,0.5-0.1C153.4,101.4,153.3,101.4,153.2,101.4z"/>
			<path class="st9" d="M151.1,98c-1.4,0.1-2.5,1.5-2.3,3c0.1,1.6,1.4,2.8,2.8,2.7c1.4-0.1,2.5-1.5,2.3-3
				C153.8,99.1,152.5,97.9,151.1,98 M151.1,98.1c1.4-0.1,2.6,1,2.7,2.6c0.1,1.5-0.9,2.8-2.3,2.9c-1.4,0.1-2.6-1-2.7-2.6
				C148.7,99.6,149.7,98.2,151.1,98.1"/>
		</g>
	</g>
	<g>
		
			<ellipse transform="matrix(0.9984 5.584027e-02 -5.584027e-02 0.9984 6.0089 -4.7367)" class="st4" cx="87.8" cy="105.2" rx="7.4" ry="8.2"/>
		<path class="st5" d="M84.8,94.9c0,0.6-0.5,1-1,1c-0.5,0-0.9-0.5-0.9-1.1c0-0.6,0.5-1,1-1C84.4,93.8,84.8,94.3,84.8,94.9L84.8,94.9
			z"/>
		<path class="st6" d="M84.7,98.4c0,0.7-0.6,1.3-1.3,1.3s-1.2-0.7-1.1-1.4c0-0.7,0.6-1.3,1.3-1.3S84.7,97.7,84.7,98.4L84.7,98.4z"/>
		<path class="st6" d="M81.5,96.2c0,0.4-0.4,0.8-0.8,0.8c-0.4,0-0.7-0.4-0.7-0.8c0-0.4,0.4-0.8,0.8-0.8
			C81.2,95.3,81.5,95.7,81.5,96.2L81.5,96.2z"/>
		<g>
			
				<ellipse transform="matrix(0.9984 5.584027e-02 -5.584027e-02 0.9984 5.6195 -5.1252)" class="st7" cx="94.5" cy="98" rx="4.1" ry="4.5"/>
			<g>
				<path class="st8" d="M93.5,97.3c-0.3,0-0.5,0.5-0.5,0.8l0,0l0,0c0,0,0,0.1,0,0.1c0,0.1,0,0.3,0,0.4c0,0.1,0,0.2,0,0.2
					c-0.1,0-0.2-0.2-0.2-0.3c-0.1-0.2-0.1-0.5-0.1-0.7c0-0.3,0-0.5,0-0.8c0-0.1,0-0.2,0-0.3c0,0,0-0.1,0-0.1c0,0,0-0.1,0-0.1
					c0-0.2-0.2,0-0.3,0.1C92,97,92.1,97.6,92,98.2c0,0.2,0,0.3-0.1,0.5c0,0.1,0,0.3-0.1,0.4c-0.1,0.1-0.1,0-0.2,0
					c-0.1,0-0.1-0.1-0.1-0.2c0-0.1-0.1,0-0.1,0c-0.1,0.1-0.1,0.2-0.1,0.3c0,0.2,0.2,0.4,0.4,0.3c0.3-0.1,0.5-0.5,0.6-0.8
					c0-0.1,0.1-0.3,0.1-0.5c0,0.2,0.1,0.5,0.2,0.7c0.1,0.2,0.2,0.3,0.3,0.3c0.1,0,0.2-0.2,0.3-0.3c0.1,0.2,0.1,0.3,0.3,0.3
					c0.2,0,0.3-0.2,0.4-0.3c0.1-0.2,0.1-0.4,0.1-0.6C93.9,97.8,93.9,97.3,93.5,97.3z M93.6,98.6c0,0,0,0.1,0,0.1
					c-0.1,0-0.1-0.1-0.1-0.2c0-0.1-0.1-0.3-0.1-0.4c0-0.1,0-0.3,0-0.4c0,0,0-0.1,0-0.1c0.2,0.1,0.2,0.4,0.2,0.6
					C93.6,98.3,93.6,98.5,93.6,98.6z"/>
				<path class="st8" d="M97.6,98.1c-0.4-0.2-0.6,0.4-0.7,0.7c-0.1,0.3-0.2,0.8,0.1,0.9c0.2,0.1,0.3,0,0.4-0.1
					c0.1-0.1,0.2-0.3,0.3-0.5C97.8,98.7,97.9,98.2,97.6,98.1z M97.3,99.3C97.3,99.4,97.2,99.4,97.3,99.3c-0.1,0-0.1-0.1-0.1-0.1
					c0-0.1,0-0.3,0-0.4c0-0.1,0.1-0.3,0.1-0.4c0,0,0-0.1,0.1-0.1c0.1,0.2,0.1,0.4,0,0.6C97.4,99.1,97.3,99.2,97.3,99.3z"/>
				<path class="st8" d="M96.6,98.1c0.1-0.1,0.1-0.2,0.2-0.3c0.1-0.2,0.3-0.5,0.3-0.8c0-0.3-0.3-0.3-0.5-0.2
					c-0.2,0.1-0.4,0.4-0.5,0.6c-0.1,0.3-0.2,0.7-0.2,1.1c0,0,0,0,0,0c-0.1,0.1-0.4,0.5-0.6,0.3c0,0-0.1-0.1-0.1-0.2
					c0.2-0.2,0.3-0.3,0.4-0.5c0.1-0.2,0.2-0.5,0-0.6c-0.2-0.1-0.4,0-0.5,0.1C95.1,97.8,95,98,95,98.2c0,0.1,0,0.3,0,0.5
					c-0.1,0.1-0.2,0.1-0.4,0.1c-0.1,0-0.2-0.2-0.2-0.3c0-0.2,0-0.4,0-0.6c0-0.1,0-0.1,0-0.2c0,0,0,0,0,0c0.1,0,0.1,0.2,0.1,0.3
					c0,0.1,0.4-0.1,0.3-0.2c0-0.1-0.1-0.3-0.2-0.4c-0.1-0.1-0.3,0-0.4,0.1c-0.2,0.2-0.3,0.6-0.3,0.9c0,0.2,0,0.5,0.2,0.6
					c0.2,0.2,0.5,0,0.7-0.1c0,0.2,0.1,0.3,0.3,0.3c0.2,0,0.4-0.1,0.6-0.3c0,0.2,0,0.4,0.1,0.5c0.2,0.1,0.4,0,0.6-0.2
					c0.2-0.2,0.3-0.5,0.2-0.8C96.8,98.1,96.7,98.1,96.6,98.1z M95.4,97.8c0,0,0-0.1,0.1-0.1l0,0c0.1,0,0.1,0.2,0.1,0.2
					c0,0.2-0.1,0.3-0.2,0.4c0,0,0-0.1,0-0.1C95.3,98.1,95.3,98,95.4,97.8z M96.6,97.2c0-0.1,0.1-0.1,0.1-0.1c0,0,0,0,0,0
					c0.1,0.2,0,0.4-0.1,0.6c-0.1,0.2-0.2,0.3-0.3,0.5c0-0.2,0.1-0.3,0.1-0.5C96.4,97.4,96.5,97.3,96.6,97.2z M96.4,99
					C96.4,99,96.4,99.1,96.4,99C96.3,99.1,96.3,99.1,96.4,99c-0.2,0-0.2-0.2-0.2-0.3c0-0.1,0-0.2,0-0.2c0,0,0.1-0.1,0.1-0.1
					c0.1-0.1,0.1,0.1,0.1,0.2C96.5,98.7,96.5,98.9,96.4,99z"/>
			</g>
		</g>
		<g>
			<g>
				<g>
					<path class="st8" d="M88.1,102.7C88,102.7,88,102.7,88.1,102.7C88,102.7,88,102.7,88.1,102.7c-0.5,0-0.6,0.6-0.6,0.9
						c0,0.3,0,0.9,0.3,0.9c0.2,0,0.3-0.2,0.4-0.3c0.1-0.2,0.1-0.4,0.2-0.6C88.4,103.3,88.4,102.7,88.1,102.7z M88,104.1
						C88,104.1,88,104.1,88,104.1c0,0.1,0,0.1-0.1,0.1c0,0,0,0,0,0c-0.2,0-0.2-0.5-0.2-0.6c0-0.1,0-0.3,0.1-0.4c0,0,0-0.1,0.1-0.1
						c0.2,0,0.2,0.5,0.2,0.6C88,103.8,88,103.9,88,104.1z"/>
					<path class="st8" d="M87.1,102.7c-0.1-0.1-0.3,0-0.4,0.1c0-0.1,0-0.2,0-0.3c0-0.1-0.2,0-0.2,0c0,0-0.1,0.1-0.1,0.1c0,0,0,0,0,0
						c0,0.1,0,0.1-0.1,0.2c0,0,0,0,0,0c-0.1,0-0.2,0-0.3-0.1c0,0,0,0,0,0c0,0-0.1,0-0.2,0c0,0,0,0,0,0c0,0,0,0,0,0
						c-0.4,0.1-0.5,0.7-0.5,1c0,0.3,0.1,0.9,0.5,0.8c0.2,0,0.3-0.2,0.4-0.4c0.1-0.2,0.1-0.4,0.1-0.6c0-0.1,0-0.3-0.1-0.5
						c0.1,0,0.1-0.1,0.2-0.1c0.1,0.4,0.1,0.9,0.1,1.3c0,0.4,0,0.8,0,1.2c0,0.1,0.1,0.1,0.1,0c0.1,0,0.1-0.1,0.1-0.2
						c0-0.3,0-0.6,0-0.8c0.1,0,0.2-0.1,0.3-0.2c0.2-0.2,0.3-0.6,0.3-0.9C87.3,103.2,87.3,102.8,87.1,102.7z M85.9,104.1
						C85.9,104.1,85.9,104.2,85.9,104.1c0,0.1,0,0.1,0,0.1c0,0,0,0,0,0c-0.2,0-0.3-0.4-0.3-0.6c0-0.1,0-0.3,0-0.5c0,0,0-0.1,0-0.1
						c0,0,0,0,0,0c0,0,0,0,0,0c0,0,0,0,0.1,0c0.1,0.1,0.2,0.4,0.2,0.5C85.9,103.8,85.9,104,85.9,104.1z M86.8,103
						C86.8,103,86.8,103,86.8,103L86.8,103z M86.9,104.2C86.9,104.2,86.9,104.2,86.9,104.2L86.9,104.2z M86.9,104.1
						C86.9,104.1,86.9,104.2,86.9,104.1C86.9,104.2,86.9,104.2,86.9,104.1c-0.1,0-0.2-0.1-0.2-0.2c0,0,0,0,0,0c0-0.2,0-0.5,0-0.7
						c0,0,0,0,0,0c0-0.1,0-0.1,0-0.2l0,0c0,0,0,0,0,0c0,0,0.1,0,0.1,0.1c0.1,0.1,0.1,0.4,0.1,0.5C87,103.8,87,104,86.9,104.1z"/>
					<path class="st8" d="M84.7,103.3c0-0.2,0.1-0.3,0.1-0.5c0-0.3,0.1-0.6,0-0.8c-0.1-0.2-0.4,0-0.5,0.1c-0.2,0.3-0.2,0.6-0.2,0.9
						c0,0.4,0.1,0.7,0.1,1c0,0.2-0.1,0.3-0.2,0.5c0,0,0,0,0,0c0,0,0,0,0-0.1c0-0.1,0-0.1-0.1-0.2c-0.1-0.5-0.2-1.1-0.3-1.6
						c-0.1-0.2-0.2-0.4-0.4-0.3c-0.2,0.1-0.3,0.2-0.3,0.4c-0.1-0.2-0.2-0.3-0.4-0.1c-0.1,0.1-0.2,0.1-0.2,0.2c0-0.1,0-0.2-0.1-0.2
						c-0.1-0.1-0.4,0.3-0.3,0.4c0.1,0.1,0.1,0.2,0.1,0.3c0.1,0.2,0.1,0.4,0.2,0.6c0,0.1,0.1,0.2,0.1,0.3c0.1,0.4,0.2,0.8,0.3,1.2
						c0,0,0,0.1,0.1,0c0.1,0,0.2-0.2,0.2-0.3c-0.1-0.3-0.2-0.7-0.3-1c0-0.1-0.1-0.3-0.1-0.4c0-0.2,0-0.3,0-0.5c0,0,0-0.1,0-0.1
						c0.2-0.1,0.3,0.5,0.4,0.6c0.1,0.2,0.1,0.4,0.2,0.6c0.1,0.3,0.1,0.6,0.2,0.9c0,0,0,0.1,0.1,0.1c0.1,0,0.2-0.2,0.2-0.3
						c-0.1-0.3-0.1-0.6-0.2-1c0-0.1,0-0.2,0-0.2c0-0.3-0.1-0.5,0-0.8c0,0,0,0,0,0c0.1,0,0.1,0.1,0.1,0.1c0.2,0.3,0.2,0.6,0.3,0.9
						c0,0.2,0.1,0.4,0.1,0.6c0,0.1,0.1,0.3,0.1,0.4c0.1,0.1,0.2,0,0.3-0.1c0.1-0.1,0.2-0.2,0.2-0.4c0.1,0.2,0.2,0.4,0.3,0.3
						c0.2,0,0.4-0.3,0.4-0.6c0.1-0.3,0.1-0.7-0.2-0.9C84.9,103.2,84.8,103.2,84.7,103.3z M84.4,102.9c0-0.2,0-0.5,0.1-0.7
						c0,0,0,0,0,0c0.1,0,0.1,0.1,0.1,0.2c0,0.2,0,0.5-0.1,0.7c0,0.1,0,0.2-0.1,0.3C84.4,103.3,84.4,103.1,84.4,102.9z M84.8,104
						c0,0.1,0,0.2,0,0.4c0,0,0,0,0,0c0,0,0,0,0,0c-0.1,0-0.1-0.1-0.1-0.2c-0.1-0.1-0.1-0.2-0.1-0.4c0-0.1,0-0.1,0.1-0.2
						c0-0.1,0.1-0.1,0.1,0C84.8,103.7,84.8,103.9,84.8,104z"/>
					<path class="st8" d="M93.3,105.8c0-0.1-0.1-0.1-0.2-0.1c0,0,0,0,0,0c0,0,0,0,0-0.1c0-0.1,0-0.1,0-0.2c0-0.2,0.1-0.3,0.2-0.5
						c0,0,0,0,0,0c0.1-0.1,0.1-0.2,0.2-0.4c0,0,0,0,0,0c0,0,0,0,0,0c0-0.1,0.1-0.2,0.1-0.2c0-0.1-0.1-0.1-0.1-0.1c0,0,0,0,0,0
						c-0.1-0.1-0.2-0.1-0.3-0.1c-0.3,0-0.6,0.3-0.7,0.7c0,0.2,0,0.4,0.2,0.5c0,0,0.1,0,0.1,0c0,0.1-0.1,0.1-0.2,0.2
						c-0.1,0.1-0.1-0.1-0.1-0.2c0,0,0-0.1-0.1-0.1c0,0,0,0,0,0c-0.1,0-0.1,0-0.2,0.1c0,0,0,0,0,0c0-0.1,0-0.2,0-0.3
						c0.1-0.3,0.2-0.6,0.3-0.9c0,0,0,0,0,0c0.1-0.2-0.1-0.3-0.3-0.4c-0.2,0-0.4,0.1-0.5,0.2c-0.2,0.2-0.3,0.4-0.4,0.7l0,0
						c0,0.1-0.1,0.2-0.2,0.3c0,0,0,0,0,0c0,0,0,0,0,0c-0.1-0.1,0-0.3,0-0.3c0-0.3,0.1-0.6,0.2-0.8c0-0.1,0.1-0.1,0.1-0.2
						c0-0.1,0-0.1-0.1-0.1c-0.1,0-0.2,0.1-0.2,0.1c0,0.1-0.1,0.1-0.1,0.2c-0.1,0.1-0.1,0.2-0.2,0.2c-0.1,0.1-0.1,0.1-0.2,0.1
						c0,0,0,0,0,0c0.1-0.3,0.1-0.6,0.1-0.8c0,0,0-0.1,0-0.1c0,0,0,0,0,0c0,0,0,0,0,0c0,0,0,0,0,0c0,0,0,0,0,0l0,0c0,0-0.1,0-0.1,0
						c-0.1,0-0.1,0.1-0.2,0.1c0,0,0,0,0,0.1c-0.1,0.4-0.3,0.8-0.5,1.1c0,0,0,0,0,0c0,0,0,0,0,0l0,0c0,0,0,0,0,0
						c-0.1,0-0.1-0.1-0.1-0.2c0-0.2,0-0.5,0.1-0.7c0,0,0-0.1,0-0.1c0,0,0-0.1,0.1-0.1c0,0,0,0,0,0c0,0,0,0,0,0c0,0,0.1,0.1,0.1,0.1
						c0,0.1,0.4-0.1,0.4-0.2c-0.1-0.2-0.3-0.3-0.5-0.2c-0.1,0.1-0.2,0.2-0.3,0.3c0,0,0,0,0,0c0,0,0,0,0,0c0,0,0,0,0,0.1c0,0,0,0,0,0
						c0,0.1-0.1,0.1-0.1,0.2c0-0.2,0.1-0.5,0.1-0.7c0-0.2-0.3,0-0.3,0.1c0,0.1-0.1,0.2-0.1,0.3c0-0.1,0-0.2-0.1-0.3
						c-0.1-0.3-0.3-0.3-0.5-0.1c0,0-0.1,0.1-0.1,0.2c0,0.1,0.1,0,0.2,0c0,0,0,0,0,0c0,0,0,0,0,0c0,0,0,0.1,0.1,0.2
						c0,0.2,0,0.3,0,0.5c0,0.2,0,0.3-0.1,0.5c0,0,0,0,0,0c0,0,0,0,0,0c0,0-0.1-0.1-0.1-0.1c-0.1-0.1-0.3,0.1-0.3,0.3
						c0.1,0.3,0.4,0.1,0.6-0.1c0.1-0.1,0.1-0.2,0.1-0.3c0-0.1,0.1-0.2,0.1-0.2c0,0.2-0.1,0.5-0.1,0.7c0,0.1,0.1,0.1,0.1,0.1
						c0.1,0,0.2-0.1,0.2-0.2c0-0.1,0.1-0.2,0.1-0.3c0,0.1,0,0.2,0,0.3c0,0.1,0.1,0.2,0.2,0.3c0.2,0.1,0.3,0,0.5-0.1
						c0.1-0.1,0.2-0.2,0.3-0.3c0,0.2-0.1,0.3-0.1,0.5c0,0.1,0.1,0.1,0.1,0.1c0.1,0,0.2-0.1,0.2-0.2c0-0.1,0.1-0.3,0.2-0.4
						c0.1-0.1,0.1-0.1,0.2-0.1c0,0,0,0,0,0c-0.1,0.2-0.1,0.5-0.1,0.7c0,0.2,0.1,0.3,0.3,0.2c0.1,0,0.1,0,0.2-0.1
						c0,0.1,0,0.2,0.1,0.2c0.1,0.1,0.3,0.1,0.4,0c0,0,0,0,0,0c0,0,0,0.1,0,0.1c0,0.2,0.2,0.2,0.3,0.2c0.1,0.2,0.3,0.2,0.5,0.2
						c0,0,0.1,0,0.1,0c0,0,0,0.1,0,0.1c0,0.2,0.2,0.3,0.4,0.2C93.2,105.9,93.4,105.9,93.3,105.8z M91.7,105
						C91.7,105,91.7,105,91.7,105c-0.1-0.1-0.1-0.2-0.1-0.2c0-0.1,0-0.2,0-0.3c0,0,0,0,0,0c0,0,0,0,0,0c0-0.1,0.1-0.3,0.2-0.4
						c0-0.1,0.1-0.2,0.1-0.2c0,0,0,0,0,0c0,0,0,0,0,0c0.1,0,0.1,0.1,0.1,0.2C92,104.4,91.9,104.7,91.7,105
						C91.7,105,91.7,105,91.7,105z M92.2,105.3L92.2,105.3L92.2,105.3L92.2,105.3z M92.8,104.7c0-0.1,0.1-0.3,0.2-0.4c0,0,0,0,0.1,0
						c0,0.1,0,0.1,0,0.2c-0.1,0.1-0.1,0.3-0.2,0.4C92.8,104.9,92.8,104.8,92.8,104.7z M93.2,105.7C93.2,105.7,93.2,105.7,93.2,105.7
						L93.2,105.7z"/>
				</g>
			</g>
			<g>
				<path class="st8" d="M92.9,108.2c-0.1,0.1-0.2,0.2-0.2,0.3c0,0,0,0-0.1,0c-0.1,0,0-0.2,0-0.3c0-0.2,0.1-0.4,0.2-0.6
					c0,0,0-0.1,0.1-0.1c0-0.1,0.1-0.1,0.1-0.2c0,0,0,0,0,0c0.1-0.2,0-0.3-0.2-0.4c-0.2,0-0.4,0-0.5,0.1c-0.2,0.1-0.3,0.4-0.4,0.6
					c0,0,0,0,0,0c0,0.1-0.1,0.2-0.2,0.2c0,0,0,0,0,0c-0.1,0,0-0.2,0-0.3c0-0.1,0.1-0.3,0-0.4c0-0.1-0.1-0.1-0.2-0.1c0,0,0,0,0,0
					c0,0,0,0,0-0.1c0.1-0.1,0.1-0.2,0.2-0.3c0,0,0,0,0,0c0,0,0,0,0,0c0,0,0.1,0.1,0.1,0.1c0.1,0.1,0.4,0,0.3-0.2
					c-0.1-0.2-0.2-0.2-0.4-0.2c-0.1,0-0.2,0.1-0.3,0.1c0,0,0,0,0,0c0-0.2,0.1-0.4,0.1-0.5c0-0.1-0.4,0-0.4,0.1c0,0.3,0,0.5-0.1,0.7
					c0,0,0,0,0,0c-0.1,0.2-0.2,0.4-0.4,0.5c0,0-0.1,0-0.1,0c0,0,0,0,0,0c0,0,0,0,0,0c0,0,0-0.1,0-0.1c0-0.2,0-0.4,0.1-0.6
					c0-0.1,0.1-0.3,0.1-0.4c0-0.1,0.1-0.1,0.1-0.2c0-0.1,0-0.1-0.1-0.1c-0.1,0-0.2,0.1-0.2,0.1c0,0.1-0.1,0.1-0.1,0.2
					c0,0.1-0.1,0.2-0.2,0.2c-0.1,0.1-0.1,0.1-0.2,0.1c0,0,0,0,0,0c0-0.3,0.1-0.5,0.1-0.8c0-0.2-0.3,0-0.4,0.1c0,0.1,0,0.2,0,0.4
					c0,0,0,0,0,0.1c0,0.3-0.1,0.5-0.3,0.7c0,0,0,0-0.1,0c-0.1,0-0.1-0.2-0.1-0.2c0-0.2,0-0.4,0-0.6c0,0,0-0.1,0-0.1
					c0-0.1,0-0.1,0-0.2c0,0,0,0,0,0c0-0.2-0.1-0.3-0.3-0.3c-0.2,0-0.3,0.1-0.4,0.3c-0.1,0.2-0.2,0.5-0.2,0.7c0,0,0,0,0,0
					c0,0.1-0.1,0.2-0.1,0.3c0,0,0,0,0,0c-0.1,0-0.1-0.2-0.1-0.2c0-0.1,0-0.3-0.1-0.4c-0.1-0.1-0.2-0.1-0.2-0.1c0,0,0,0,0-0.1
					c0,0,0,0,0-0.1c0-0.1,0.1-0.2,0.1-0.3c0,0,0,0,0,0c0,0,0,0,0,0c0,0,0.1,0,0.1,0.1c0.1,0.1,0.4-0.2,0.3-0.3
					c-0.1-0.1-0.3-0.1-0.4-0.1c-0.1,0-0.2,0.1-0.2,0.2c0,0,0,0,0,0c0-0.2,0-0.4-0.1-0.5c0-0.1-0.3,0.1-0.3,0.2
					c0,0.2,0.1,0.3,0.1,0.5c-0.1,0.2-0.2,0.4-0.3,0.6c-0.1,0.1-0.2,0.2-0.2,0.3c-0.2,0.2-0.3,0.1-0.4-0.1c0,0,0,0,0,0
					c0.2-0.3,0.4-0.6,0.4-0.9c0-0.2-0.1-0.4-0.3-0.3c-0.2,0-0.4,0.3-0.4,0.4c-0.1,0.2-0.1,0.4-0.1,0.7c0,0.1,0,0.1,0,0.2
					c0,0-0.1,0-0.1,0.1c0,0-0.1,0.1-0.2,0.1c0,0,0,0-0.1,0c-0.1-0.1-0.1-0.4-0.1-0.6c0-0.2,0-0.4-0.1-0.6c0-0.1-0.1-0.3-0.3-0.2
					c-0.2,0-0.3,0.2-0.4,0.3c0,0,0,0,0,0c0-0.1,0-0.2-0.1-0.3c0-0.1-0.3,0.2-0.3,0.3c0.1,0.2,0.1,0.4,0.1,0.6l0,0c0,0,0,0,0,0
					s0,0,0,0c0,0.1,0,0.1,0,0.2c0,0.1-0.1,0.3-0.2,0.4c0,0,0,0,0,0c0,0,0,0,0-0.1c0-0.1-0.1-0.2-0.1-0.3c-0.1-0.3-0.1-0.5-0.2-0.8
					c0,0,0,0,0,0c0-0.2-0.2-0.2-0.4-0.1c-0.2,0.1-0.3,0.3-0.3,0.5c-0.1,0.3-0.1,0.6,0,0.9c-0.1,0.1-0.2,0.2-0.2,0.3
					c-0.1-0.1-0.1-0.1-0.2-0.1c0.1-0.3,0-0.6-0.1-0.9c-0.1-0.2-0.2-0.3-0.4-0.3c-0.1,0-0.3,0.2-0.3,0.3c-0.1,0.2-0.1,0.4,0,0.5
					c0.1,0.2,0.3-0.2,0.3-0.3c0-0.1,0-0.1,0-0.2c0,0,0,0,0,0c0,0,0,0,0,0c0,0,0,0,0,0c0.1,0,0.2,0.2,0.2,0.3
					c0.1,0.1,0.1,0.3,0.1,0.4c0,0.1,0,0.1,0,0.2c0,0-0.1,0.1-0.1,0.1c0,0,0,0-0.1,0.1c0,0.1-0.1,0.1-0.1,0.2c0,0,0,0,0,0
					c0,0,0,0,0.1,0c0.1,0,0.1-0.1,0.1-0.1c0.1,0,0.1,0,0.2,0.1c-0.1,0.2-0.2,0.5-0.3,0.7c0,0.2-0.1,0.5,0.1,0.7
					c0.1,0.1,0.3,0.1,0.4-0.1c0.3-0.3,0.3-0.7,0.2-1.1c0-0.1-0.1-0.3-0.1-0.4c0.1-0.1,0.1-0.2,0.2-0.3c0,0.1,0.1,0.2,0.2,0.2
					c0.1,0,0.3-0.1,0.4-0.3c0,0,0,0,0,0c0.1,0.1,0.1,0.2,0.3,0.1c0.1-0.1,0.2-0.2,0.3-0.4c0,0.1,0,0.2,0,0.3c0,0.2,0.3-0.1,0.3-0.2
					c0-0.3,0-0.6,0-0.8c0-0.1,0-0.2,0.1-0.3c0,0,0-0.1,0-0.1c0,0,0,0,0,0c0,0,0,0,0,0c0.1,0,0.1,0.1,0.1,0.2c0,0.2,0.1,0.4,0.1,0.5
					c0,0.2,0,0.7,0.4,0.6c0.1-0.1,0.3-0.2,0.4-0.3c0,0,0,0.1,0.1,0.1c0.2,0.2,0.4,0.1,0.6-0.1c0.2-0.1,0.4-0.3,0.5-0.6
					c0,0.2,0,0.4,0,0.6c0,0.1,0.1,0.1,0.1,0c0.1,0,0.1-0.1,0.2-0.2c0-0.2,0-0.3,0.1-0.5c0.2,0.1,0.1,0.6,0.2,0.7
					c0.1,0.1,0.3,0,0.4-0.1c0,0,0.1-0.1,0.1-0.1c0,0.1,0.1,0.2,0.1,0.2c0.1,0.1,0.3,0,0.4-0.1c0,0,0,0,0,0c0,0.1,0,0.2,0.1,0.2
					c0.1,0,0.2,0,0.3-0.1c0.1,0,0.1-0.1,0.2-0.1c0,0.1,0,0.1,0,0.2c0,0.1,0.1,0.1,0.1,0.1c0.1,0,0.2-0.1,0.2-0.2
					c0-0.1,0.1-0.3,0.2-0.4c0.1-0.1,0.1-0.1,0.2-0.1c0,0,0,0,0,0c0,0,0,0.1,0,0.1c0,0.2-0.1,0.5,0,0.7c0.1,0.2,0.4,0,0.5,0
					c0.1,0,0.1-0.1,0.2-0.1c0,0.1-0.1,0.2-0.1,0.3c0,0.1,0.1,0.1,0.1,0.1c0.1,0,0.2-0.1,0.2-0.2c0.1-0.1,0.1-0.3,0.2-0.4
					c0.1,0.1-0.1,0.6,0,0.7c0.1,0.1,0.2,0.1,0.4,0.1c0,0,0.1,0,0.1-0.1c0,0.1,0,0.2,0.1,0.3c0.1,0.1,0.3,0.1,0.4,0c0,0,0,0,0,0
					c0,0.1,0,0.2,0.1,0.3c0.1,0.1,0.2,0.1,0.3,0c0.1,0,0.3-0.1,0.3-0.2C93.1,108.3,93,108.1,92.9,108.2z M83.3,109.2L83.3,109.2
					C83.3,109.2,83.3,109.3,83.3,109.2c0,0-0.1,0-0.1,0c-0.2-0.1-0.1-0.4-0.1-0.6c0-0.1,0.1-0.3,0.1-0.4c0,0,0,0.1,0,0.1
					c0.1,0.1,0.1,0.3,0.1,0.5C83.4,109,83.4,109.1,83.3,109.2z M84.1,107.6C84.1,107.6,84,107.6,84.1,107.6c-0.1,0-0.2-0.1-0.2-0.1
					c-0.1-0.2-0.1-0.5-0.1-0.7c0-0.1,0-0.2,0-0.2c0,0,0,0,0,0c0,0,0,0,0,0c0.1,0,0.1,0,0.1,0.1C84,106.9,84.1,107.2,84.1,107.6
					C84.1,107.5,84.1,107.6,84.1,107.6z M86.4,106.8c0-0.2,0-0.3,0-0.5c0-0.1,0-0.1,0.1-0.2c0,0,0,0,0,0c0,0,0,0,0,0
					c0.1,0,0.1,0.1,0.1,0.2C86.6,106.4,86.5,106.6,86.4,106.8z M88.7,107.2C88.7,107.2,88.7,107.2,88.7,107.2
					C88.7,107.3,88.7,107.3,88.7,107.2c-0.1,0-0.1-0.1-0.2-0.1c0-0.2,0-0.5,0.1-0.7c0-0.1,0.1-0.2,0.1-0.2c0,0,0,0,0,0c0,0,0,0,0,0
					c0.1,0,0.1,0.1,0.1,0.1C88.9,106.6,88.8,106.9,88.7,107.2z M92.5,107.4c-0.1,0.3-0.2,0.6-0.4,0.8c0,0,0,0,0,0.1c0,0,0,0,0,0
					c0,0,0-0.2,0-0.2c0-0.2,0.1-0.5,0.2-0.7c0-0.1,0.1-0.1,0.2-0.2c0,0,0,0,0,0c0,0,0,0,0,0C92.5,107.2,92.6,107.3,92.5,107.4z"/>
				<polygon class="st8" points="83.3,109.3 83.3,109.2 83.3,109.2 				"/>
				<path class="st8" d="M83.3,109.2C83.3,109.2,83.3,109.2,83.3,109.2L83.3,109.2z"/>
				<path class="st8" d="M86.4,106.1C86.4,106.1,86.4,106.1,86.4,106.1L86.4,106.1z"/>
			</g>
		</g>
		<g>
			<path class="st9" d="M78.9,101.2c0,0-0.1-0.1-0.1-0.1c-0.2-0.1-0.3,0-0.4,0c-0.4,0-0.5,0-0.9-0.2c0-0.4,0.2-0.6,0.4-1
				c0.1-0.3,0-0.6,0-0.9c0-0.2,0-0.4,0-0.6c-0.1,0.1-0.1,0.5-0.1,0.7c0-0.2,0-0.6-0.1-0.8c-0.1,0.2,0,0.6,0,0.8
				c0-0.2-0.1-0.5-0.1-0.7c-0.1,0.2,0,0.6,0,0.8c-0.1-0.2-0.1-0.4-0.2-0.6c0,0.3,0,0.5,0,0.7c-0.1-0.2-0.1-0.4-0.2-0.5
				c0,0.2,0.1,0.4,0.1,0.5c-0.1-0.1-0.1-0.2-0.2-0.3c0,0.1,0.1,0.2,0.1,0.3c-0.1,0-0.1-0.1-0.2-0.2c0,0.1,0.1,0.2,0.1,0.3
				c0,0-0.1-0.1-0.1-0.1c0,0.1,0.1,0.2,0.1,0.2c0,0-0.1,0-0.1,0c0,0,0.1,0.1,0,0.1c0,0-0.1,0-0.1,0c0,0.1,0.1,0,0,0.1c0,0,0,0-0.1,0
				c0,0.1,0,0,0,0.1c-0.3,0.3-0.2,0.7-0.2,1.1c0-0.1-0.2-0.1-0.4-0.2c-0.1-0.1-0.1-0.2-0.2-0.3c0,0,0,0,0,0c0,0-0.1,0-0.1-0.1
				c0,0,0.1,0,0.1,0c-0.1,0-0.2-0.1-0.2-0.1c0.1,0,0.1,0.1,0.2,0c-0.1-0.1-0.2-0.1-0.2-0.2c0.1,0,0.2,0.1,0.3,0.1
				c-0.1-0.1-0.3-0.2-0.3-0.3c0.1,0.1,0.2,0.2,0.3,0.2c-0.2-0.1-0.3-0.3-0.4-0.3c0.1,0.2,0.3,0.3,0.3,0.4c-0.1-0.1-0.2-0.1-0.3-0.2
				c0,0.2,0.2,0.2,0.3,0.3c-0.1,0-0.2-0.1-0.3-0.1c0,0.1,0.2,0.1,0.3,0.2c0,0-0.1,0-0.2,0c0,0.1,0.1,0.1,0.2,0.1c-0.1,0-0.1,0-0.2,0
				c0,0,0.1,0,0.1,0.1c0,0-0.1,0-0.1,0c0,0,0.1,0,0.1,0c0,0,0,0,0,0.1c0,0,0.1,0,0.1,0c0,0,0,0,0,0c0.2,0.1,0.2,0.4,0.4,0.5
				c-0.1,0.1,0.1,0.2-1.3,0.7c0.1,0,0.6-0.1,0.8-0.2c0.2-0.1,0.4-0.1,0.5-0.2c0,0,0.1,0,0.1,0c0.3,0,0.6,0.1,0.9-0.1
				c-0.2,0-0.6,0.1-0.7-0.1c0.2-0.3,0.1-1.2,0.3-1.4c0.2-0.2,0.4-0.7,0.7-0.2c0,0.1,0,0.2-0.1,0.4c-0.1,0.2-0.2,0.3-0.2,0.9
				c0,0.1,0,0.2-0.2,0.2c0.6,0.2,0.8,0.1,1.2,0.1c0.1,0,0.3-0.1,0.3,0c0,0.1-0.1,0-0.2,0c-0.2,0,0.1,0.1,0.2,0.1c0,0,0.4,0,0.5-0.1
				C79.1,101.2,79.1,101.2,78.9,101.2z"/>
			<path class="st9" d="M77.3,97.5c-1.4-0.1-2.6,1.1-2.7,2.7c-0.1,1.6,1,2.9,2.4,3c1.4,0.1,2.6-1.1,2.7-2.7
				C79.8,99,78.7,97.6,77.3,97.5 M77.3,97.7c1.4,0.1,2.4,1.4,2.3,2.9c-0.1,1.5-1.3,2.7-2.6,2.6c-1.4-0.1-2.4-1.4-2.3-2.9
				C74.8,98.7,76,97.6,77.3,97.7"/>
		</g>
	</g>
</g>
<g id="nut_2">
</g>
<g id="nut">
</g>
<g id="honey">
</g>
<g id="doma">
</g>
<g id="car">
</g>
<g id="butylka_3">
</g>
<g id="butylka_2">
</g>
<g id="tvorog">
</g>
<g id="butylka_1">
</g>
<g id="vanna_2">
</g>
<g id="sneg">
</g>
<g id="vigimka">
</g>
<g id="vanna_1">
</g>
<g id="zakvaska">
</g>
<g id="shariki_2">
</g>
<g id="shariki_1">
</g>
<g id="voronka">
</g>
<g id="gradusnik">
</g>
<g id="kolba_2">
</g>
<g id="kolba_1">
</g>
<g id="probirki">
</g>
<g id="lupa">
</g>
<g id="kuraga">
</g>
<g id="blank">
</g>
<g id="ticks">
</g>
<g id="clock">
</g>
</svg>
