<?xml version="1.0" encoding="utf-8"?>
<!-- Generator: Adobe Illustrator 19.0.0, SVG Export Plug-In . SVG Version: 6.00 Build 0)  -->
<svg version="1.1" xmlns="http://www.w3.org/2000/svg" xmlns:xlink="http://www.w3.org/1999/xlink" x="0px" y="0px"
	 viewBox="121 -129 300 315" style="enable-background:new 121 -129 300 315;" xml:space="preserve">
<style type="text/css">
	.st0{fill:#519E38;}
	.st1{fill:#F4F4F4;}
	.st2{fill:#D6D6D6;}
	.st3{fill:#EAEAEA;}
	.st4{fill:#FFFFFF;}
	.st5{fill:#EB008B;}
	.st6{fill:#62BA47;}
	.st7{fill:#E90E8A;}
	.st8{fill:#62BA46;}
	.st9{fill:url(#SVGID_1_);}
	.st10{fill:url(#SVGID_2_);}
	.st11{fill:url(#SVGID_3_);}
	.st12{fill:url(#SVGID_4_);}
	.st13{fill:url(#SVGID_5_);}
</style>
<g id="bottle">
	<g id="kolba_4">
	</g>
	<g id="kolba_3">
	</g>
	<g id="kolby">
	</g>
	<g id="doma">
	</g>
	<g id="car">
	</g>
	<g id="butylka_3">
	</g>
	<g id="butylka_2">
		<g>
			<path class="st0" d="M322,126.7c0,0,0-72.5,0-112c0-39.4-16.4-54.5-16.4-54.5c4.3-24.4-7.4-31.8-7.4-31.8v-8.8h2.5
				c0,0,0-9.5,0-12.6s-4.3-2.8-4.3-2.8h-16H279h-16c0,0-4.3-0.3-4.3,2.8s0,12.6,0,12.6h2.6v8.8H261c0,0-11.7,7.4-7.4,31.8
				c0,0-16.4,15-16.4,54.5c0,39.4,0,112,0,112s-1.7,24.1,16,24.1c4.8,0,8.8,0,12.2,0c9.1,0,13.2,0,13.2,0h0.8h0.9h0.1h13.1h0.1
				c3.3,0,7.3,0,12.1,0h0.1C323.7,150.8,322,126.7,322,126.7z"/>
			<path class="st1" d="M313.4,121.1c0,0,0-72.5,0-112c0-39.4-16.4-54.5-16.4-54.5c4.3-24.4-7.4-31.8-7.4-31.8v-9h-37.1v9h-0.1
				c0,0-11.7,7.4-7.4,31.8c0,0-16.4,15-16.4,54.5c0,39.4,0,112,0,112s-1.7,24.1,16,24.1c4.8,0,8.8,0,12.2,0c9.1,0,13.2,0,13.2,0h1.8
				H285c3.4,0,7.4,0,12.2,0C315.1,145.1,313.4,121.1,313.4,121.1z"/>
			<path class="st2" d="M287.8-101.3h-16h-1.4h-16c0,0-4.3-0.3-4.3,2.8s0,12.6,0,12.6h20.4h1.4h20.4c0,0,0-9.5,0-12.6
				C292.2-101.6,287.8-101.3,287.8-101.3z"/>
			<path class="st3" d="M313.3,121.1c0,0,0-72.5,0-112c0-39.4-16.4-54.5-16.4-54.5c4.3-24.4-7.4-31.8-7.4-31.8v-9H271v231.3h0.9
				h13.2c3.4,0,7.4,0,12.2,0C315,145.1,313.3,121.1,313.3,121.1z"/>
			<path class="st4" d="M242.5-3.9c-0.2,0-0.4,0-0.6,0c-2.6-0.3-4.4-2.7-4-5.2c2.1-16.2,9.9-26,10.3-26.4c1.6-2,4.6-2.3,6.6-0.7
				c2,1.6,2.3,4.6,0.7,6.6c-0.1,0.1-6.5,8.4-8.3,21.7C246.8-5.6,244.8-3.9,242.5-3.9z"/>
		</g>
		<g>
			<circle class="st5" cx="271.6" cy="51.1" r="23.3"/>
			<circle class="st6" cx="253" cy="71.8" r="7.3"/>
			<path class="st7" d="M260.6,22.5c0,1.6-1.3,3-3,3c-1.7,0-3-1.3-3-3s1.3-3,3-3C259.2,19.5,260.6,20.9,260.6,22.5L260.6,22.5z"/>
			<path class="st6" d="M260.7,32.6c0,2.1-1.7,3.8-3.8,3.8s-3.8-1.7-3.8-3.8s1.7-3.8,3.8-3.8C259,28.7,260.7,30.5,260.7,32.6
				L260.7,32.6z"/>
			<path class="st6" d="M250.4,26.7c0,1.3-1,2.3-2.3,2.3s-2.3-1-2.3-2.3s1-2.3,2.3-2.3S250.4,25.4,250.4,26.7L250.4,26.7z"/>
			<g>
				<path class="st6" d="M304.5,29.8c0,7.1-5.8,12.9-12.9,12.9s-12.9-5.8-12.9-12.9c0-7.1,5.8-12.9,12.9-12.9
					C298.7,16.9,304.5,22.7,304.5,29.8z"/>
				<g>
					<path class="st4" d="M288.4,28c-1.1,0.1-1.4,1.4-1.4,2.3l0,0l0,0c0,0.1,0,0.3,0,0.4c0,0.4,0,0.7-0.1,1.1c0,0.2-0.1,0.5-0.1,0.5
						c-0.4,0-0.7-0.5-0.8-0.8c-0.3-0.7-0.4-1.3-0.6-2c-0.1-0.7-0.2-1.5-0.3-2.3c0-0.3,0-0.6,0-0.9c0-0.1,0-0.3,0-0.4
						c0-0.1,0-0.2,0-0.2c0.1-0.6-0.7,0-0.8,0.2c-0.9,1.5-0.6,3.3-0.6,4.9c0,0.4,0,0.9-0.1,1.3c0,0.3-0.1,0.8-0.4,1.1
						c-0.2,0.2-0.4,0-0.6,0c-0.2-0.1-0.3-0.3-0.4-0.6c0-0.2-0.3-0.1-0.4,0c-0.2,0.2-0.4,0.5-0.3,0.8c0.1,0.6,0.6,1.1,1.2,0.9
						c1-0.3,1.4-1.4,1.6-2.3c0.1-0.4,0.2-0.9,0.2-1.3c0.1,0.6,0.3,1.3,0.6,1.8c0.2,0.4,0.6,0.9,1.1,0.8c0.4-0.1,0.7-0.5,0.9-1
						c0.2,0.4,0.5,0.7,1,0.7s1-0.6,1.2-1c0.2-0.5,0.3-1.1,0.3-1.6C289.7,29.4,289.5,27.8,288.4,28z M288.7,31.7c0,0.1,0,0.2-0.1,0.3
						c-0.2,0-0.4-0.3-0.4-0.5c-0.2-0.3-0.2-0.7-0.3-1.1c0-0.4,0-0.8,0-1.2c0-0.1,0-0.2,0.1-0.3c0.5,0.3,0.6,1,0.7,1.6
						C288.8,30.8,288.8,31.3,288.7,31.7z"/>
					<path class="st4" d="M301.2,29.5c-1.2-0.4-1.8,1.1-2,2c-0.2,0.8-0.4,2.2,0.6,2.6c0.5,0.2,1.1-0.2,1.3-0.5
						c0.4-0.4,0.6-0.9,0.7-1.4C302,31.4,302.2,29.9,301.2,29.5z M300.5,33.2c0,0.1-0.1,0.2-0.2,0.3c-0.2-0.1-0.2-0.5-0.3-0.6
						c-0.1-0.4,0-0.8,0-1.2c0.1-0.4,0.2-0.8,0.4-1.1c0-0.1,0.1-0.2,0.2-0.3c0.4,0.5,0.3,1.2,0.2,1.8
						C300.8,32.4,300.7,32.8,300.5,33.2z"/>
					<path class="st4" d="M298.1,29.7c0.2-0.3,0.4-0.6,0.6-0.9c0.4-0.6,0.8-1.4,0.8-2.2c0-0.7-1-0.8-1.5-0.5
						c-0.7,0.4-1.2,1.1-1.4,1.9c-0.3,1-0.4,2-0.5,3l0,0c-0.4,0.4-1.1,1.3-1.7,0.9c-0.1-0.1-0.2-0.3-0.3-0.5c0.5-0.5,0.9-1,1.3-1.6
						c0.3-0.5,0.6-1.4-0.1-1.8c-0.6-0.3-1.3,0-1.6,0.5c-0.4,0.5-0.5,1-0.6,1.6c0,0.3-0.1,0.8,0,1.3c-0.3,0.2-0.8,0.3-1.1,0.3
						c-0.4-0.1-0.6-0.6-0.7-0.9c-0.1-0.5-0.1-1.1,0-1.6c0-0.2,0.1-0.3,0.1-0.5c0,0,0-0.1,0.1-0.1c0.3,0.1,0.4,0.5,0.4,0.7
						c0.1,0.4,1.1-0.2,1-0.6c-0.1-0.4-0.3-0.8-0.7-1s-1,0.2-1.2,0.4c-0.7,0.7-0.8,1.7-0.7,2.6c0,0.6,0.2,1.3,0.7,1.6
						c0.7,0.4,1.7,0,2.3-0.4c0.2,0.4,0.5,0.7,1.1,0.7c0.7-0.1,1.3-0.5,1.8-0.9c0,0.5,0.1,1.1,0.5,1.3c0.6,0.3,1.4-0.1,1.8-0.6
						c0.5-0.7,0.8-1.6,0.5-2.4C298.7,29.8,298.4,29.7,298.1,29.7z M294.2,29.2c0-0.1,0.1-0.3,0.2-0.4l0,0c0.3,0.1,0.3,0.4,0.3,0.6
						c-0.1,0.4-0.3,0.9-0.7,1.2c0-0.1,0-0.2,0-0.2C294,30.1,294,29.6,294.2,29.2z M297.9,27.1c0.1-0.2,0.2-0.3,0.3-0.4l0,0
						c0.4,0.5,0,1.2-0.2,1.7c-0.2,0.4-0.5,0.9-0.8,1.4c0.1-0.4,0.2-0.9,0.3-1.3C297.5,27.9,297.7,27.5,297.9,27.1z M297.6,32.4
						c0,0-0.1,0.1-0.1,0.2h-0.1c-0.3-0.1-0.3-0.8-0.3-1s0-0.4,0-0.7c0.1-0.1,0.2-0.3,0.4-0.4c0.3-0.2,0.4,0.2,0.5,0.4
						C298,31.4,297.8,32,297.6,32.4z"/>
				</g>
			</g>
			<g>
				<path class="st4" d="M247.8,70.7c0.3-0.7,0.8-0.2,1,0.1c0.3,0.5,0,1-0.3,1.4c-0.3,0.3-0.6,0.6-0.9,0.9c-0.2,0.1-0.3,0.2-0.5,0.4
					c0,0.1-0.1,0.2,0,0.3c0.3,0.2,0.8,0.2,1.1,0.2c0.6,0,1.1,0,1.6-0.3c0.3-0.1,0.6-0.8,0-0.6c-0.4,0.2-0.9,0.2-1.3,0.1
					c-0.2,0-0.7,0-0.9-0.1c0,0.1,0,0.2,0,0.3c-0.2,0.4-0.1,0.2,0.1,0.1c0.2-0.1,0.3-0.2,0.5-0.4c0.3-0.2,0.5-0.5,0.7-0.8
					c0.5-0.5,0.7-1.2,0.6-1.9c-0.3-1.6-2-0.4-2.4,0.5C246.9,71.4,247.7,71,247.8,70.7L247.8,70.7z"/>
				<path class="st4" d="M251.9,73.3c0.6,1.8,3.2,0.5,2.8-1c-0.2-0.8-1.1-0.7-1.8-0.9c-0.3-0.1-0.4-0.4-0.4-0.7
					c0.1-0.3,0.1-0.4-0.1-0.2c0.1,0,0.2-0.1,0.3-0.1c0.5-0.1,1.1-0.1,1.6,0.2c0.2,0.1,0.8-0.5,0.5-0.6c-0.6-0.3-1.4-0.3-2.1-0.1
					c-0.7,0.2-0.8,0.8-0.8,1.4c0,0.8,0.7,0.9,1.3,1c0.5,0.1,0.8,0.2,0.9,0.7c0.1,0.8-0.8,0.7-1.2,0.5c-0.2-0.1-0.3-0.3-0.4-0.5
					C252.4,72.5,251.8,73,251.9,73.3L251.9,73.3z"/>
				<g>
					<path class="st4" d="M258,70.1c-0.7,1.2-1.7,2.4-2.6,3.6c-0.4,0.5,0.2,0.5,0.5,0.1c0.9-1.2,1.9-2.4,2.7-3.7
						C258.9,69.5,258.2,69.8,258,70.1L258,70.1z"/>
					<path class="st4" d="M256.6,69.8c-0.5,0-0.8,0.4-0.9,0.9c-0.1,0.4,0.2,0.7,0.6,0.8C257.2,71.4,257.6,69.8,256.6,69.8
						c-0.2,0-0.6,0.5-0.3,0.5c0.2,0,0.3,0.2,0.4,0.4c0,0.1,0,0.2,0,0.2c0,0.1,0,0,0,0h-0.1c-0.2,0-0.3-0.2-0.4-0.4
						c0-0.1,0-0.2,0-0.3s0,0,0,0h0.1C256.6,70.2,256.9,69.8,256.6,69.8z"/>
					<path class="st4" d="M257.9,72.4c-0.5,0-0.8,0.4-0.9,0.9c-0.1,0.4,0.2,0.7,0.6,0.8C258.5,74.1,258.9,72.5,257.9,72.4
						c-0.2,0-0.6,0.5-0.3,0.5c0.2,0,0.3,0.2,0.4,0.4c0,0.1,0,0.2,0,0.2c0,0.1,0,0,0,0h-0.1c-0.2,0-0.3-0.2-0.4-0.4
						c0-0.1,0-0.2,0-0.3s0,0,0,0h0.1C257.9,72.9,258.2,72.4,257.9,72.4z"/>
				</g>
				<path class="st4" d="M250.8,74.9c0.3-0.3,0.5-0.7,0.6-1.2c0-0.1,0-0.3-0.1-0.4c-0.2-0.2-0.4,0-0.6,0c-0.2,0.1-0.4,0.3-0.4,0.5
					s0.2,0.2,0.3,0.1l0,0l0,0c0,0.1,0,0.1,0,0.2c0,0.1-0.1,0.2-0.1,0.2s0,0,0,0.1l0,0c0,0,0,0,0,0.1c0.1-0.1,0,0,0,0
					c-0.1,0.1-0.3,0.4-0.2,0.5C250.4,75.2,250.7,75,250.8,74.9L250.8,74.9z"/>
			</g>
			<g>
				<path class="st4" d="M290.2,50.6c-0.3-0.4-0.8-0.3-1.2-0.2c0-0.3,0.1-0.7,0.1-1s-0.5-0.2-0.6-0.2c-0.2,0.1-0.5,0.2-0.5,0.5
					c-0.3-0.1-0.6,0-0.9,0.2c-0.8,0.4-1.1,1.3-1.3,2.1c0,0.2-0.1,0.4-0.1,0.5l0,0c-0.1,0.3-0.2,0.8-0.5,1c-0.3,0.1-0.4-0.9-0.4-1.1
					c-0.1-1.1,0.2-2.3,0.4-3.3c0.1-0.3-0.3-0.3-0.5-0.3c-0.3,0.1-0.6,0.3-0.7,0.5c-0.2,0.8-0.3,1.7-0.5,2.5
					c-0.1,0.4-0.2,0.7-0.4,1.1l0,0c-0.1,0-0.2-0.1-0.2-0.1c-0.5-0.4-0.4-1.5-0.3-1.9c0.1-0.7,0.3-1.4,0.6-2.1c0.1-0.2,0-0.4-0.3-0.4
					c-0.3,0-0.6,0.2-0.7,0.5c-0.3,0.6-0.4,1.2-0.6,1.8c-0.1,0.6-0.4,1.1-0.8,1.6l-0.1,0.1c0,0,0,0,0-0.1c-0.1-0.5-0.1-1,0-1.5
					c0-0.7,0.1-1.4,0.2-2.1c0,0,0,0,0-0.1c0-0.6-0.4-1-1.1-0.9c-0.6,0-1.2,0.4-1.5,0.9c-0.4,0.6-0.6,1.4-0.6,1.5
					c-0.1,0.6-0.4,1.2-0.7,1.7c-0.1,0-0.1-0.2-0.1-0.2c-0.1-0.3-0.2-0.7-0.2-1c-0.1-1-0.1-2.1,0-3.1l0,0c0-0.1,0-0.1,0-0.1l-0.1-0.1
					c-0.3-0.1-0.6,0.2-0.8,0.3c-0.6,0.7-0.6,1.6-0.8,2.4c-0.1,0.5-0.2,0.9-0.3,1.4c0,0,0,0.1-0.1,0.2c-0.1-0.1-0.2-0.2-0.2-0.4l0,0
					c0-0.2-0.1-0.3-0.3-0.2c-0.3,0.1-0.6,0.3-0.7,0.6l0,0l0,0c-0.2-0.1-0.3-0.2-0.4-0.4c-0.1-0.3-0.1-0.7-0.2-1c0-0.2,0-0.5,0-0.7
					c0.1-0.6,0.1-1.1,0.1-1.7c0-0.2,0-0.3,0-0.5c0-0.3-0.3-0.2-0.5-0.1c-0.3,0.1-0.6,0.4-0.6,0.7s0,0.6,0,0.9c0,0.3,0,0.6,0,0.9
					c0,0.3,0,0.5-0.1,0.8c0,0.4-0.1,0.8-0.2,1.1l0,0c-0.1,0-0.2,0-0.2-0.1c-0.6-0.2-0.6-1.3-0.6-1.8c0-0.7,0-1.5,0.3-2.1
					c0-0.1,0.1-0.2,0-0.3s-0.4,0-0.5,0.1s-0.5,0.4-0.7,0.5c-0.5,0.2-0.9,0.1-1.3-0.2c-0.1-0.2-0.3-0.3-0.4-0.4
					c-0.4-0.2-0.9,0.1-1.3,0.3c-0.1-0.3-0.1-0.6-0.2-1c-0.1-0.3-0.5,0-0.6,0.1c-0.2,0.2-0.4,0.4-0.4,0.7c-0.3,0.1-0.6,0.3-0.8,0.5
					c-0.6,0.7-0.7,1.7-0.7,2.5c0,0.2,0,0.3,0.1,0.5c0,0.2,0,0.9-0.3,1.2c-0.3,0.3-0.7-0.7-0.7-0.8c-0.3-1-0.4-2.2-0.5-3.3
					c0-0.3-0.3-0.2-0.5,0s-0.5,0.5-0.5,0.8c0,0.9,0.2,1.7,0.2,2.6c0,0.4,0,0.8-0.1,1.2c0,0,0,0,0,0.1c-0.1,0-0.2,0-0.2,0
					c-0.6-0.1-0.7-1.2-0.8-1.7c-0.1-0.7-0.1-1.5,0-2.2c0-0.2-0.1-0.4-0.4-0.2c-0.3,0.1-0.5,0.5-0.6,0.8c-0.1,1-0.1,1.9,0.1,2.8
					c0.1,0.6,0.4,1.7,1.3,1.6c0.6-0.1,1-0.5,1.3-1c0.1,0.1,0.1,0.2,0.2,0.3c0.5,0.6,1.3,0,1.7-0.5c0.1-0.1,0.1-0.1,0.2-0.2
					c0.1,0.1,0.2,0.3,0.3,0.4c0.3,0.2,0.6,0.3,1,0.2c0.1,0,0.3-0.1,0.4-0.2c0.1,1,0.1,2.1,0.1,3.1c0,0.3,0.3,0.2,0.5,0.1
					c0.2-0.2,0.5-0.4,0.5-0.7c0-0.8,0-1.7,0-2.5c0.4,0,0.8-0.2,1.1-0.6c0.7-0.7,0.8-1.8,0.7-2.7c0-0.2,0-0.3-0.1-0.5
					c0.3-0.1,0.6-0.2,0.9-0.3c-0.1,0.7-0.2,1.4-0.1,2.1c0.1,0.7,0.2,1.8,1.1,1.9c0.5,0,0.9-0.2,1.2-0.6c0.2,0.4,0.6,0.6,1.1,0.5
					c0.2,0,0.3-0.1,0.5-0.2c0.4,0.4,0.9,0.3,1.4,0c0.3-0.3,0.6-0.7,0.7-1.1c0,0.1,0,0.2,0.1,0.4c0.1,0.3,0.1,0.7,0.4,1s0.7,0.2,1,0
					c0.3-0.1,0.5-0.4,0.7-0.5c0.1,0.3,0.2,0.7,0.5,0.8c0.5,0.3,1.1,0,1.4-0.2c0,0.3,0.1,0.5,0.4,0.6c0.6,0.2,1.2-0.3,1.5-0.6
					c0,0,0,0,0-0.1c0.1,0.5,0.3,0.9,0.8,1.1c0.6,0.2,1.1,0,1.4-0.4c0,0.1,0.1,0.3,0.1,0.4c0.3,0.8,1.2,0.5,1.7,0.2
					c0.1,0,0.1-0.1,0.2-0.1c0,0.2,0.1,0.3,0.2,0.5c0.2,0.3,0.5,0.5,0.8,0.6c0.1,0,0.3,0,0.4,0c-0.2,1-0.5,2-0.8,3
					c-0.1,0.3,0.2,0.3,0.4,0.3c0.3,0,0.5-0.2,0.6-0.5c0.3-0.8,0.5-1.6,0.7-2.4c0.4,0.1,0.8,0.1,1.1-0.1c0.8-0.4,1.2-1.4,1.4-2.3
					C290.7,52.4,290.8,51.2,290.2,50.6z M265.8,52.1c0,0-0.1,0-0.2,0c-0.2-0.1-0.3-0.2-0.4-0.4c-0.3-0.5-0.4-1.1-0.4-1.6
					s0-1,0.2-1.4c0,0,0.1,0,0.1,0.1c0.4,0.2,0.6,0.7,0.6,1.1l0,0C265.7,50.5,265.8,51.3,265.8,52.1L265.8,52.1z M267.5,51.8
					C267.5,51.9,267.5,51.9,267.5,51.8C267.5,51.9,267.5,51.9,267.5,51.8c-0.4,0.2-0.7-0.1-0.7-0.5l0,0c0-0.8-0.1-1.6-0.2-2.3
					c0-0.2,0-0.4,0-0.6l0,0l0,0c0.1,0,0.2,0,0.3,0.1l0,0l0.1,0.1c0.3,0.4,0.4,1,0.5,1.4C267.7,50.7,267.8,51.3,267.5,51.8z
					 M279.8,49.2c-0.2,0.9-0.2,1.9-0.5,2.8c0,0-0.1,0.1-0.1,0.2c0,0-0.1,0-0.2,0c-0.2-0.1-0.3-0.4-0.3-0.6c-0.2-0.7-0.1-1.5,0.2-2.2
					c0.1-0.2,0.2-0.5,0.3-0.6l0,0c0.1,0,0.1,0,0.2,0C279.7,48.8,279.8,49,279.8,49.2z M287.7,51.9L287.7,51.9
					c-0.1,0.7-0.2,1.5-0.4,2.2l0,0l0,0c0,0-0.1-0.1-0.2-0.1c-0.2-0.2-0.2-0.4-0.3-0.6c-0.1-0.6-0.1-1.2,0-1.7
					c0.1-0.4,0.2-0.9,0.5-1.3l0.1,0.1C287.7,51,287.7,51.5,287.7,51.9z M289.5,53.1c-0.1,0.5-0.2,1.2-0.6,1.6c0,0,0,0-0.1,0.1l0,0
					c-0.4-0.1-0.5-0.5-0.5-0.8l0,0c0.2-0.8,0.3-1.5,0.4-2.3c0-0.2,0.1-0.4,0.2-0.5l0,0l0,0c0.1,0,0.2,0.2,0.3,0.3
					C289.6,51.9,289.5,52.6,289.5,53.1z"/>
				<path class="st4" d="M285.6,47.7c0.1-0.1,0.5-0.3,0.3-0.6c-0.2-0.2-0.6-0.1-0.7,0c-0.4,0.2-0.7,0.3-1.1,0.1
					c-0.2-0.1-0.3-0.2-0.4-0.4c-0.2-0.4-1.3,0.2-1.1,0.6C283.3,48.6,284.8,48.2,285.6,47.7z"/>
				<path class="st4" d="M256,49.5c-0.1-0.4-0.2-0.9-0.4-1.3c0.9-0.3,1.8-0.5,2.6-1c0.3-0.1,0.5-0.5,0.6-0.8s-0.1-0.3-0.4-0.2
					c-1.6,0.7-3.3,1-4.8,1.6c-0.6,0.2-1.2,0.7-1.6,1.3c-0.4,0.8-0.3,1.4,0.1,2c0.2,0.4,1-0.7,0.8-1.1c-0.1-0.2-0.3-0.4-0.3-0.7v-0.1
					c0.3-0.3,1-0.5,1.4-0.6c0.1,0,0.3-0.1,0.4-0.1c0.2,0.5,0.4,0.9,0.5,1.4c-0.5,0.4-1,0.9-1.2,1.5c-0.6,1.2-0.7,4.3,1.4,4
					c1.4-0.2,1.5-1.9,1.4-3c-0.1-0.6-0.2-1.2-0.3-1.9c0.1,0,0.3,0,0.4,0c0.8,0.1,1.2,0.8,1.3,1.5c0.1,0.6,0,1.4-0.4,1.9
					c-0.2,0.2-0.4,0.6-0.3,0.8c0.1,0.2,0.5-0.1,0.6-0.2c1.1-1.2,1.6-3.2,0.5-4.5C257.8,49.4,256.8,49.3,256,49.5z M255.5,54.3
					c-0.3,0-0.6-0.1-0.9-0.3c-0.5-0.5-0.7-1.8-0.2-2.6c0.2-0.3,0.5-0.5,0.8-0.7c0.2,0.8,0.3,1.5,0.4,2.3c0.1,0.3,0.1,0.7,0.1,1
					c0,0.1,0,0.1,0,0.2C255.6,54.3,255.6,54.3,255.5,54.3z"/>
			</g>
			<g>
				<path class="st8" d="M243.3,41.2c-0.1,0-0.2-0.2-0.3-0.3c-0.5-0.2-0.9,0.1-1.3,0.1c-1.1,0-1.5,0-2.8-0.4c0-1.2,0.7-1.9,1-2.8
					c0.3-0.8-0.1-1.7-0.2-2.6c0-0.5,0-1.1,0-1.7c-0.4,0.4-0.2,1.4-0.3,1.9c-0.2-0.7-0.1-1.6-0.4-2.2c-0.2,0.7,0,1.6,0,2.2
					c-0.2-0.6-0.2-1.4-0.5-1.9c-0.3,0.6,0.2,1.6,0.1,2.1c-0.2-0.5-0.4-1.2-0.6-1.7c-0.1,0.8,0.2,1.4,0.2,1.9c-0.2-0.4-0.3-1-0.7-1.3
					c0,0.5,0.3,1.1,0.5,1.5c-0.3-0.2-0.4-0.5-0.7-0.7c0.1,0.4,0.3,0.6,0.4,0.9c-0.2-0.1-0.3-0.4-0.6-0.5c0,0.4,0.3,0.4,0.4,0.7
					c-0.2-0.1-0.3-0.2-0.5-0.3c0,0.3,0.4,0.4,0.3,0.6c0,0-0.3-0.1-0.3,0c0.1,0,0.3,0.2,0.2,0.2c-0.1,0-0.2,0-0.2,0
					c0,0.2,0.2,0.1,0.2,0.3c-0.1,0-0.1-0.1-0.2-0.1c0,0.2,0.1,0.1,0.1,0.3c-1,1-0.4,2.1-0.5,3.2c0.1-0.2-0.8-0.3-1.4-0.6
					c-0.4-0.1-0.4-0.6-0.7-0.7c0-0.1,0.1,0,0.1-0.1c-0.1-0.1-0.2-0.1-0.3-0.2c0.1,0,0.4,0.1,0.4-0.1c-0.2-0.1-0.6-0.2-0.5-0.4
					c0.2,0,0.5,0.1,0.6,0.1c-0.3-0.1-0.7-0.3-0.7-0.6c0.2,0.1,0.6,0.3,0.9,0.2c-0.4-0.2-1-0.5-1.1-0.8c0.3,0.1,0.7,0.5,1,0.5
					c-0.5-0.1-0.9-0.7-1.3-0.7c0.2,0.4,0.9,0.7,1.1,1c-0.3-0.2-0.7-0.4-1.1-0.6c0.2,0.5,0.7,0.6,1,0.9c-0.3,0-0.5-0.2-0.9-0.2
					c0.1,0.4,0.7,0.3,0.9,0.6c-0.1-0.1-0.4,0-0.6,0c0.1,0.2,0.4,0.2,0.6,0.3c-0.2,0-0.4,0-0.5,0.1c0.1,0.1,0.4,0.1,0.5,0.2
					c-0.1,0-0.3,0-0.3,0.1s0.3,0,0.3,0.1c-0.1,0-0.1,0.1-0.1,0.2c0.1,0,0.2,0,0.2,0.1c-0.1,0-0.1,0.1-0.1,0.1
					c0.5,0.3,0.8,1.1,1.5,1.3c-0.4,0.3,0.4,0.5-4.1,2.1c0.2,0,2-0.4,2.5-0.6c0.5-0.2,1.1-0.4,1.6-0.5c0.1,0,0.2-0.1,0.4-0.1
					c0.9-0.1,1.8,0.1,2.7-0.5c-0.7,0.1-1.9,0.2-2.4-0.2c0.6-0.9,0.2-3.3,0.7-3.9c0.5-0.5,1.2-2,2.2-0.7c0.2,0.2,0.2,0.5-0.2,1.1
					c-0.4,0.7-0.7,1-0.6,2.5c0,0.3,0.1,0.6-0.5,0.6c1.9,0.4,2.5,0.2,3.7,0c0.4-0.1,0.9-0.3,1,0c0,0.1-0.4,0.1-0.7,0.1
					c-0.5,0,0.2,0.2,0.5,0.2c0.1,0,1.1-0.1,1.7-0.2C243.9,41.3,243.6,41.3,243.3,41.2z"/>
				<path class="st8" d="M237.6,31.2c-4.5,0-8.1,3.6-8.1,8.1s3.6,8.1,8.1,8.1s8.1-3.6,8.1-8.1C245.7,34.9,242,31.2,237.6,31.2
					 M237.6,31.5c4.3,0,7.8,3.5,7.8,7.8s-3.5,7.8-7.8,7.8c-4.3,0-7.8-3.5-7.8-7.8C229.8,35,233.3,31.5,237.6,31.5"/>
			</g>
		</g>
	</g>
	<g id="butylka_1">
	</g>
	<g id="vanna_2">
	</g>
	<g id="sneg">
	</g>
	<g id="vanna_1">
	</g>
	<g id="zakvaska">
	</g>
	<g id="shariki_2">
	</g>
	<g id="shariki_1">
	</g>
	<g id="voronka">
	</g>
	<g id="gradusnik">
	</g>
	<g id="kolba_2">
	</g>
	<g id="kolba_1">
	</g>
	<g id="probirki">
	</g>
	<g id="lupa">
	</g>
	<g id="bidon">
	</g>
	<g id="blank">
	</g>
	<g id="ticks">
	</g>
</g>
<g id="snow">
	<g id="clock">
		<g>
			
				<linearGradient id="SVGID_1_" gradientUnits="userSpaceOnUse" x1="348.3496" y1="104.0013" x2="364.337" y2="58.7034" gradientTransform="matrix(1 0 0 -1 0 57)">
				<stop  offset="0" style="stop-color:#404B71"/>
				<stop  offset="0.6044" style="stop-color:#3C476E"/>
				<stop  offset="1" style="stop-color:#354169"/>
			</linearGradient>
			<path class="st9" d="M351.8-6l-1.7-6.4l1.6-2.7l0.2,0.8c0.2,0.8,1.1,1.3,1.9,1.1c0.1,0,0.3-0.1,0.4-0.2c0.6-0.3,0.9-1.1,0.7-1.8
				l-1-3.9l1.9-3.3l1.9,3.3l-1,3.9c-0.2,0.8,0.3,1.7,1.1,1.9c0.4,0.1,0.9,0,1.2-0.2c0.4-0.2,0.6-0.5,0.7-1l0.2-0.8l1.6,2.7l-1.7,6.4
				c-0.2,0.8,0.3,1.7,1.1,1.9c0.4,0.1,0.9,0,1.2-0.2c0.4-0.2,0.6-0.5,0.7-1l0.9-3.3l2.5,4.4c0.4,0.8,1.4,1,2.2,0.6
				c0.8-0.4,1-1.4,0.6-2.2l-2.5-4.4l3.3,0.9c0.4,0.1,0.9,0,1.2-0.2c0.4-0.2,0.6-0.5,0.7-1c0.2-0.8-0.3-1.7-1.1-1.9l-6.4-1.7
				l-1.6-2.7l0.8,0.2c0.4,0.1,0.9,0,1.2-0.2c0.4-0.2,0.6-0.5,0.7-1c0.2-0.8-0.3-1.7-1.1-1.9l-3.8-1l-1.9-3.3h3.8l2.8,2.8
				c0.5,0.5,1.3,0.6,1.9,0.3c0.1-0.1,0.2-0.2,0.3-0.3c0.6-0.6,0.6-1.6,0-2.2l-0.6-0.6h3.1l4.7,4.7c0.5,0.5,1.3,0.6,1.9,0.3
				c0.1-0.1,0.2-0.2,0.3-0.3c0.6-0.6,0.6-1.6,0-2.2l-2.4-2.4h5c0.3,0,0.6-0.1,0.8-0.2c0.5-0.3,0.8-0.8,0.8-1.4
				c0-0.9-0.7-1.6-1.6-1.6h-5l2.4-2.4c0.6-0.6,0.6-1.6,0-2.2s-1.6-0.6-2.2,0l-4.7,4.7h-3.1l0.6-0.6c0.6-0.6,0.6-1.6,0-2.2
				s-1.6-0.6-2.2,0l-2.8,2.8h-3.8l1.9-3.3l3.9-1c0.1,0,0.3-0.1,0.4-0.2c0.6-0.3,0.9-1.1,0.7-1.8c-0.2-0.8-1.1-1.3-1.9-1.1l-0.8,0.2
				l1.6-2.7l6.4-1.7c0.1,0,0.3-0.1,0.4-0.2c0.6-0.4,0.9-1.1,0.7-1.8c-0.2-0.8-1.1-1.3-1.9-1.1l-3.3,0.9l2.5-4.4
				c0.4-0.8,0.2-1.7-0.6-2.2c-0.8-0.4-1.7-0.2-2.2,0.6l-2.5,4.4l-0.9-3.3c-0.2-0.8-1.1-1.3-1.9-1.1c-0.8,0.2-1.4,1.1-1.1,1.9
				l1.7,6.4L360-36l-0.2-0.8c-0.2-0.8-1.1-1.3-1.9-1.1c-0.8,0.2-1.3,1.1-1.1,1.9l1,3.9l-1.9,3.3L354-32l1-3.9
				c0.2-0.8-0.3-1.7-1.1-1.9c-0.8-0.2-1.7,0.3-1.9,1.1l-0.2,0.8l-1.6-2.7l1.7-6.4c0.2-0.8-0.3-1.7-1.1-1.9c-0.8-0.2-1.7,0.3-1.9,1.1
				l-0.9,3.3l-2.5-4.4c-0.4-0.8-1.4-1-2.2-0.6c-0.8,0.4-1,1.4-0.6,2.2l2.5,4.4l-3.3-0.9c-0.8-0.2-1.7,0.3-1.9,1.1
				c-0.2,0.8,0.3,1.7,1.1,1.9l6.4,1.7l1.6,2.7l-0.8-0.2c-0.8-0.2-1.7,0.3-1.9,1.1c-0.2,0.8,0.3,1.7,1.1,1.9l3.8,1l1.9,3.3h-3.8
				l-2.8-2.8c-0.6-0.6-1.6-0.6-2.2,0c-0.6,0.6-0.6,1.6,0,2.2l0.6,0.6h-3.1l-4.7-4.7c-0.6-0.6-1.6-0.6-2.2,0c-0.6,0.6-0.6,1.6,0,2.2
				l2.4,2.4h-5c-0.9,0-1.6,0.7-1.6,1.6s0.7,1.6,1.6,1.6h5l-2.4,2.4c-0.6,0.6-0.6,1.6,0,2.2c0.5,0.5,1.3,0.6,1.9,0.3
				c0.1-0.1,0.2-0.2,0.3-0.3l4.7-4.7h3.1l-0.6,0.6c-0.6,0.6-0.6,1.6,0,2.2c0.5,0.5,1.3,0.6,1.9,0.3c0.1-0.1,0.2-0.2,0.3-0.3l2.8-2.8
				h3.8l-1.9,3.3l-3.9,1c-0.8,0.2-1.3,1.1-1.1,1.9s1.1,1.3,1.9,1.1l0.8-0.2l-1.6,2.7l-6.4,1.7c-0.8,0.2-1.3,1.1-1.1,1.9
				c0.2,0.8,1.1,1.3,1.9,1.1l3.3-0.9l-2.5,4.4c-0.4,0.8-0.2,1.7,0.6,2.2c0.5,0.3,1.1,0.3,1.6,0c0.2-0.1,0.4-0.3,0.6-0.6l2.5-4.4
				l0.9,3.3c0.2,0.8,1.1,1.3,1.9,1.1c0.1,0,0.3-0.1,0.4-0.2C351.7-4.6,352-5.3,351.8-6z"/>
			
				<linearGradient id="SVGID_2_" gradientUnits="userSpaceOnUse" x1="229.5626" y1="40.1226" x2="234.3964" y2="26.4268" gradientTransform="matrix(1 0 0 -1 0 57)">
				<stop  offset="0" style="stop-color:#404B71"/>
				<stop  offset="0.6044" style="stop-color:#3C476E"/>
				<stop  offset="1" style="stop-color:#354169"/>
			</linearGradient>
			<path class="st10" d="M230.7,29.2l-0.5-1.9l0.5-0.8l0.1,0.2c0.1,0.3,0.3,0.4,0.6,0.3h0.1c0.2-0.1,0.3-0.3,0.2-0.5l-0.3-1.2l0.6-1
				l0.6,1l-0.3,1.2c-0.1,0.3,0.1,0.5,0.3,0.6c0.1,0,0.3,0,0.4,0c0.1-0.1,0.2-0.2,0.2-0.3l0.1-0.2l0.5,0.8l-0.5,1.9
				c-0.1,0.3,0.1,0.5,0.3,0.6c0.1,0,0.3,0,0.4,0c0.1-0.1,0.2-0.2,0.2-0.3l0.3-1l0.8,1.3c0.1,0.2,0.4,0.3,0.7,0.2
				c0.2-0.1,0.3-0.4,0.2-0.7l-0.8-1.3l1,0.3c0.1,0,0.3,0,0.4,0c0.1-0.1,0.2-0.2,0.2-0.3c0.1-0.3-0.1-0.5-0.3-0.6l-1.9-0.5l-0.8-1
				l0.2,0.1c0.1,0,0.3,0,0.4,0c0.1-0.1,0.2-0.2,0.2-0.3c0.1-0.3-0.1-0.5-0.3-0.6l-1.2-0.3l-0.6-1h1.2l0.9,0.9
				c0.2,0.2,0.4,0.2,0.6,0.1c0,0,0.1,0,0.1-0.1c0.2-0.2,0.2-0.5,0-0.7l-0.2-0.2h0.9l1.4,1.4c0.2,0.2,0.4,0.2,0.6,0.1
				c0,0,0.1,0,0.1-0.1c0.2-0.2,0.2-0.5,0-0.7l-0.7-0.7h1.5c0.1,0,0.2,0,0.2-0.1c0.1-0.1,0.2-0.2,0.2-0.4c0-0.3-0.2-0.5-0.5-0.5h-1.5
				l0.7-0.7c0.2-0.2,0.2-0.5,0-0.7c-0.2-0.2-0.5-0.2-0.7,0l-1.4,1.4h-0.9l0.2-0.2c0.2-0.2,0.2-0.5,0-0.7c-0.2-0.2-0.5-0.2-0.7,0
				l-0.9,0.9h-1.2l0.6-1l1.2-0.3h0.1c0.2-0.1,0.3-0.3,0.2-0.5c-0.1-0.3-0.3-0.4-0.6-0.3l-0.2,0.1l0.5-0.8l1.9-0.5h0.1
				c0.2-0.1,0.3-0.3,0.2-0.5c-0.1-0.3-0.3-0.4-0.6-0.3l-1,0.3l0.8-1.3c0.1-0.2,0.1-0.5-0.2-0.7c-0.2-0.1-0.5-0.1-0.7,0.2l-0.8,1.3
				l-0.3-1c-0.1-0.3-0.3-0.4-0.6-0.3c-0.3,0.1-0.4,0.3-0.3,0.6l0.5,1.9l-0.5,0.8l-0.1-0.2c-0.1-0.3-0.3-0.4-0.6-0.3
				c-0.3,0.1-0.4,0.3-0.3,0.6l0.3,1.2l-0.6,1l-0.6-1l0.3-1.2c0.1-0.3-0.1-0.5-0.3-0.6c-0.3-0.1-0.5,0.1-0.6,0.3l-0.1,0.2l-0.5-0.8
				l0.5-1.9c0.1-0.3-0.1-0.5-0.3-0.6c-0.3-0.1-0.5,0.1-0.6,0.3l-0.3,1l-0.8-1.3c-0.1-0.2-0.4-0.3-0.7-0.2c-0.2,0.1-0.3,0.4-0.2,0.7
				l0.8,1.3l-1-0.3c-0.3-0.1-0.5,0.1-0.6,0.3c-0.1,0.3,0.1,0.5,0.3,0.6l1.9,0.5l0.5,0.8l-0.2-0.1c-0.3-0.1-0.5,0.1-0.6,0.3
				c-0.1,0.3,0.1,0.5,0.3,0.6l1.2,0.3l0.6,1H230l-0.9-0.9c-0.2-0.2-0.5-0.2-0.7,0c-0.2,0.2-0.2,0.5,0,0.7l0.2,0.2h-0.9l-1.4-1.4
				c-0.2-0.2-0.5-0.2-0.7,0c-0.2,0.2-0.2,0.5,0,0.7l0.7,0.7h-1.5c-0.3,0-0.5,0.2-0.5,0.5s0.2,0.5,0.5,0.5h1.5l-0.7,0.7
				c-0.2,0.2-0.2,0.5,0,0.7c0.2,0.2,0.4,0.2,0.6,0.1c0,0,0.1,0,0.1-0.1l1.4-1.4h0.9l-0.2,0.2c-0.2,0.2-0.2,0.5,0,0.7
				c0.2,0.2,0.4,0.2,0.6,0.1c0,0,0.1,0,0.1-0.1l0.9-0.9h1.2l-0.6,1l-1.2,0.3c-0.3,0.1-0.4,0.3-0.3,0.6c0.1,0.3,0.3,0.4,0.6,0.3
				l0.2-0.1l-0.5,0.8l-1.9,0.5c-0.3,0.1-0.4,0.3-0.3,0.6c0.1,0.3,0.3,0.4,0.6,0.3l1-0.3l-0.8,1.3c-0.1,0.2-0.1,0.5,0.2,0.7
				c0.2,0.1,0.3,0.1,0.5,0c0.1,0,0.1-0.1,0.2-0.2l0.8-1.3l0.3,1c0.1,0.3,0.3,0.4,0.6,0.3h0.1C230.7,29.7,230.8,29.4,230.7,29.2z"/>
			
				<linearGradient id="SVGID_3_" gradientUnits="userSpaceOnUse" x1="164.5572" y1="15.5214" x2="174.9774" y2="-14.0027" gradientTransform="matrix(1 0 0 -1 0 57)">
				<stop  offset="0" style="stop-color:#404B71"/>
				<stop  offset="0.6044" style="stop-color:#3C476E"/>
				<stop  offset="1" style="stop-color:#354169"/>
			</linearGradient>
			<path class="st11" d="M167.1,68.1l-1.1-4.2l1-1.8l0.1,0.5c0.1,0.6,0.7,0.9,1.3,0.7c0.1,0,0.2-0.1,0.2-0.1
				c0.4-0.2,0.6-0.7,0.5-1.2l-0.7-2.5l1.2-2.2l1.2,2.2l-0.7,2.5c-0.1,0.6,0.2,1.1,0.7,1.3c0.3,0.1,0.6,0,0.8-0.1
				c0.2-0.1,0.4-0.4,0.5-0.6l0.1-0.5l1,1.8l-1.1,4.2c-0.1,0.6,0.2,1.1,0.7,1.3c0.3,0.1,0.6,0,0.8-0.1c0.2-0.1,0.4-0.4,0.5-0.6
				l0.6-2.2l1.6,2.8c0.3,0.5,0.9,0.7,1.4,0.4s0.7-0.9,0.4-1.4l-1.6-2.8l2.2,0.6c0.3,0.1,0.6,0,0.8-0.1s0.4-0.4,0.5-0.6
				c0.1-0.6-0.2-1.1-0.7-1.3l-4.2-1.1l-1-1.8l0.5,0.1c0.3,0.1,0.6,0,0.8-0.1c0.2-0.1,0.4-0.4,0.5-0.6c0.1-0.6-0.2-1.1-0.7-1.3
				l-2.5-0.7l-1.2-2.2h2.5l1.8,1.8c0.3,0.3,0.9,0.4,1.2,0.2c0.1,0,0.1-0.1,0.2-0.2c0.4-0.4,0.4-1.1,0-1.5l-0.4-0.4h2l3,3
				c0.3,0.3,0.9,0.4,1.2,0.2c0.1,0,0.1-0.1,0.2-0.2c0.4-0.4,0.4-1.1,0-1.5l-1.6-1.6h3.3c0.2,0,0.4,0,0.5-0.1
				c0.3-0.2,0.5-0.5,0.5-0.9c0-0.6-0.5-1-1-1h-3.3l1.6-1.6c0.4-0.4,0.4-1.1,0-1.5c-0.4-0.4-1.1-0.4-1.5,0l-3,3h-2l0.4-0.4
				c0.4-0.4,0.4-1.1,0-1.5c-0.4-0.4-1.1-0.4-1.5,0l-1.8,1.8h-2.5l1.2-2.2l2.5-0.7c0.1,0,0.2-0.1,0.2-0.1c0.4-0.2,0.6-0.7,0.5-1.2
				c-0.1-0.6-0.7-0.9-1.3-0.7l-0.5,0.1l1-1.8l4.2-1.1c0.1,0,0.2-0.1,0.2-0.1c0.4-0.2,0.6-0.7,0.5-1.2c-0.1-0.6-0.7-0.9-1.3-0.7
				l-2.2,0.6l1.6-2.8c0.3-0.5,0.1-1.1-0.4-1.4c-0.5-0.3-1.1-0.1-1.4,0.4l-1.6,2.8l-0.6-2.2c-0.1-0.6-0.7-0.9-1.3-0.7
				c-0.5,0.1-0.9,0.7-0.7,1.3l1.1,4.2l-1,1.8l-0.1-0.5c-0.1-0.6-0.7-0.9-1.3-0.7s-0.9,0.7-0.7,1.3l0.7,2.5l-1.2,2.2l-1.2-2.2
				l0.7-2.5c0.1-0.6-0.2-1.1-0.7-1.3c-0.6-0.1-1.1,0.2-1.3,0.7l-0.1,0.5l-1-1.8l1.1-4.2c0.1-0.6-0.2-1.1-0.7-1.3
				c-0.6-0.1-1.1,0.2-1.3,0.7l-0.6,2.2l-1.6-2.8c-0.3-0.5-0.9-0.7-1.4-0.4s-0.7,0.9-0.4,1.4l1.6,2.8l-2.2-0.6
				c-0.6-0.1-1.1,0.2-1.3,0.7c-0.1,0.6,0.2,1.1,0.7,1.3l4.2,1.1l1,1.8l-0.5-0.1c-0.6-0.1-1.1,0.2-1.3,0.7c-0.1,0.6,0.2,1.1,0.7,1.3
				l2.5,0.7l1.2,2.2H165l-1.8-1.8c-0.4-0.4-1.1-0.4-1.5,0c-0.4,0.4-0.4,1.1,0,1.5l0.4,0.4h-2l-3-3c-0.4-0.4-1.1-0.4-1.5,0
				c-0.4,0.4-0.4,1.1,0,1.5l1.6,1.6h-3.3c-0.6,0-1,0.5-1,1c0,0.6,0.5,1,1,1h3.3L156,58c-0.4,0.4-0.4,1.1,0,1.5
				c0.3,0.3,0.9,0.4,1.2,0.2c0.1,0,0.1-0.1,0.2-0.2l3-3h2l-0.4,0.4c-0.4,0.4-0.4,1.1,0,1.5c0.3,0.3,0.9,0.4,1.2,0.2
				c0.1,0,0.2-0.1,0.2-0.2l1.8-1.8h2.5l-1.2,2.2l-2.5,0.7c-0.5,0.2-0.9,0.7-0.7,1.3c0.1,0.6,0.7,0.9,1.3,0.7l0.5-0.1l-1,1.8L160,64
				c-0.5,0.2-0.9,0.7-0.7,1.3c0.1,0.6,0.7,0.9,1.3,0.7l2.2-0.6l-1.6,2.8c-0.3,0.5-0.1,1.1,0.4,1.4c0.3,0.2,0.7,0.2,1,0
				c0.2-0.1,0.3-0.2,0.4-0.4l1.6-2.8l0.6,2.2c0.1,0.6,0.7,0.9,1.3,0.7c0.1,0,0.2-0.1,0.3-0.1C167,69,167.2,68.6,167.1,68.1z"/>
			
				<linearGradient id="SVGID_4_" gradientUnits="userSpaceOnUse" x1="281.941" y1="13.2553" x2="311.0393" y2="-54.8469" gradientTransform="matrix(1 0 0 -1 0 57)">
				<stop  offset="0" style="stop-color:#404B71"/>
				<stop  offset="0.6044" style="stop-color:#3C476E"/>
				<stop  offset="1" style="stop-color:#354169"/>
			</linearGradient>
			<path class="st12" d="M329.3,74.3H323l3-3c0.8-0.8,0.8-2,0-2.8s-2-0.8-2.8,0l-5.9,5.9h-3.9l1.7-1.7c0.8-0.8,0.8-2,0-2.8
				s-2-0.8-2.8,0l-4.6,4.6H304l0.1-0.1c0.8-0.8,0.8-2,0.1-2.7c-0.3-1-1.4-1.6-2.4-1.3h-0.2l1.9-3.3l6.2-1.7c0.2,0,0.3-0.1,0.5-0.2
				c0.8-0.4,1.2-1.4,0.9-2.2c-0.3-1.1-1.4-1.7-2.4-1.4l-2.4,0.6l2-3.4l8-2.1c0.2,0,0.3-0.1,0.5-0.2c0.8-0.4,1.2-1.4,0.9-2.2
				c-0.3-1.1-1.4-1.7-2.4-1.4l-4.2,1.1l3.2-5.5c0.6-1,0.2-2.2-0.7-2.7c-1-0.5-2.2-0.2-2.7,0.7l-3.2,5.5l-1.1-4.2
				c-0.3-1.1-1.4-1.7-2.4-1.4c-1.1,0.3-1.7,1.4-1.4,2.4l2.1,8l-2,3.4l-0.6-2.4c-0.3-1.1-1.4-1.7-2.4-1.4c-1.1,0.3-1.7,1.4-1.4,2.4
				l1.7,6.2l-1.9,3.3v-0.2c-0.3-1-1.3-1.7-2.4-1.4c-1-0.2-2.1,0.4-2.3,1.4v0.2l-1.9-3.3l1.7-6.2c0.3-1.1-0.3-2.2-1.4-2.4
				c-1.1-0.3-2.2,0.3-2.4,1.4l-0.6,2.4l-2-3.4l2.1-8c0.3-1.1-0.3-2.2-1.4-2.4c-1.1-0.3-2.2,0.3-2.4,1.4l-1.1,4.2l-3.2-5.5
				c-0.5-1-1.8-1.3-2.7-0.7c-1,0.5-1.3,1.8-0.7,2.7l3.2,5.5l-4.2-1.1c-1.1-0.3-2.2,0.3-2.4,1.4c-0.3,1.1,0.3,2.2,1.4,2.4l8,2.1
				l2,3.4l-2.4-0.6c-1.1-0.3-2.2,0.3-2.4,1.4c-0.3,1.1,0.3,2.2,1.4,2.4l6.2,1.7l1.9,3.3h-0.2c-1-0.3-2,0.3-2.4,1.3
				c-0.8,0.8-0.8,2,0,2.8l0.1,0.1H284l-4.6-4.6c-0.8-0.8-2-0.8-2.8,0c-0.8,0.8-0.8,2,0,2.8l1.7,1.7h-3.9l-5.9-5.9
				c-0.8-0.8-2-0.8-2.8,0c-0.8,0.8-0.8,2,0,2.8l3,3h-6.3c-1.1,0-2,0.9-2,2s0.9,2,2,2h6.3l-3,3c-0.8,0.8-0.8,2,0,2.8
				c0.7,0.7,1.6,0.8,2.4,0.3c0.1-0.1,0.3-0.2,0.4-0.3l5.9-5.9h3.9l-1.7,1.7c-0.8,0.8-0.8,2,0,2.8c0.7,0.7,1.6,0.8,2.4,0.3
				c0.1-0.1,0.3-0.2,0.4-0.3l4.6-4.6h3.8l-0.1,0.1c-0.8,0.8-0.8,2-0.1,2.7c0.3,1,1.4,1.6,2.4,1.3h0.2l-1.9,3.3l-6.2,1.7
				c-1.1,0.3-1.7,1.4-1.4,2.4c0.3,1.1,1.4,1.7,2.4,1.4l2.4-0.6l-2,3.4l-8,2.1c-1.1,0.3-1.7,1.4-1.4,2.4c0.3,1.1,1.4,1.7,2.4,1.4
				l4.2-1.1l-3.2,5.5c-0.5,1-0.2,2.2,0.7,2.7c0.6,0.4,1.4,0.3,2,0c0.3-0.2,0.5-0.4,0.7-0.7l3.2-5.5l1.1,4.2c0.3,1.1,1.4,1.7,2.4,1.4
				c0.2,0,0.3-0.1,0.5-0.2c0.8-0.4,1.2-1.3,0.9-2.2l-2.1-8l2-3.4l0.6,2.4c0.3,1.1,1.4,1.7,2.4,1.4c0.2,0,0.3-0.1,0.5-0.2
				c0.8-0.4,1.2-1.3,0.9-2.2l-1.7-6.2l1.9-3.3v0.2c0.3,1,1.3,1.7,2.4,1.4c0.5,0.1,1,0,1.4-0.2c0.4-0.3,0.8-0.7,0.9-1.2v-0.2l1.9,3.3
				l-1.7,6.2c-0.3,1.1,0.3,2.2,1.4,2.4c0.5,0.1,1.1,0.1,1.5-0.2s0.8-0.7,0.9-1.2l0.6-2.4l2,3.4l-2.1,8c-0.3,1.1,0.3,2.2,1.4,2.4
				c0.5,0.1,1.1,0.1,1.5-0.2s0.8-0.7,0.9-1.2l1.1-4.2l3.2,5.5c0.5,1,1.8,1.3,2.7,0.7c1-0.6,1.3-1.8,0.7-2.7l-3.2-5.5l4.2,1.1
				c0.5,0.1,1.1,0.1,1.5-0.2c0.4-0.3,0.8-0.7,0.9-1.2c0.3-1.1-0.3-2.2-1.4-2.4l-8-2.1l-2-3.4l2.4,0.6c0.5,0.1,1.1,0.1,1.5-0.2
				c0.4-0.3,0.8-0.7,0.9-1.2c0.3-1.1-0.3-2.2-1.4-2.4l-6.2-1.7l-1.9-3.3h0.2c0.5,0.1,1.1,0.1,1.5-0.2c0.4-0.2,0.7-0.6,0.9-1.1
				c0.8-0.8,0.8-2,0-2.8l-0.1-0.1h3.8l4.6,4.6c0.7,0.7,1.6,0.8,2.4,0.3c0.1-0.1,0.3-0.2,0.4-0.3c0.8-0.8,0.8-2,0-2.8l-1.7-1.7h3.9
				l5.9,5.9c0.7,0.7,1.6,0.8,2.4,0.3c0.1-0.1,0.3-0.2,0.4-0.3c0.8-0.8,0.8-2,0-2.8l-3-3h6.3c0.4,0,0.7-0.1,1-0.3c0.6-0.3,1-1,1-1.7
				C331.3,75.2,330.4,74.3,329.3,74.3z M297,78.5c-1.2,0.7-2.8,0.3-3.5-0.9s-0.3-2.8,0.9-3.5s2.8-0.3,3.5,0.9
				C298.6,76.2,298.2,77.8,297,78.5z"/>
			
				<linearGradient id="SVGID_5_" gradientUnits="userSpaceOnUse" x1="241.1774" y1="97.5467" x2="253.1993" y2="69.4045" gradientTransform="matrix(1 0 0 -1 0 57)">
				<stop  offset="0" style="stop-color:#404B71"/>
				<stop  offset="0.6044" style="stop-color:#3C476E"/>
				<stop  offset="1" style="stop-color:#354169"/>
			</linearGradient>
			<path class="st13" d="M262.8-26.2h-1l0.4-0.5c0.2-0.3,0.1-0.8-0.2-1s-0.8-0.1-1,0.2l-0.9,1.3h-1.5l2-2.8c0.2-0.3,0.1-0.8-0.2-1
				c-0.3-0.2-0.8-0.1-1,0.2l-2.6,3.7h-1.3l1.2-1.7c0.2-0.3,0.1-0.8-0.2-1s-0.8-0.1-1,0.2l-1.7,2.5h-0.9l0.4-0.5
				c0.2-0.3,0.1-0.8-0.2-1s-0.8-0.1-1,0.2l-0.9,1.3h-0.3l-0.8-1.5l0.2-0.3l1.6-0.1c0.4,0,0.7-0.4,0.7-0.8s-0.4-0.7-0.8-0.7l-0.6,0.1
				l0.4-0.8l3-0.3c0.4,0,0.7-0.4,0.7-0.8s-0.4-0.7-0.8-0.7l-2,0.2l0.7-1.1l4.5-0.4c0.4,0,0.7-0.4,0.7-0.8s-0.4-0.7-0.8-0.7l-3.4,0.3
				l0.7-1.3l1.6-0.1c0.4,0,0.7-0.4,0.7-0.8s-0.4-0.7-0.8-0.7l-0.6,0.1l0.5-0.9c0.2-0.3,0.1-0.8-0.3-1c-0.3-0.2-0.8-0.1-1,0.3
				l-0.5,0.9l-0.3-0.6c-0.2-0.4-0.6-0.5-1-0.4c-0.4,0.2-0.5,0.6-0.4,1l0.7,1.5l-0.7,1.3l-1.5-3.1c-0.2-0.4-0.6-0.5-1-0.3
				s-0.5,0.6-0.4,1l1.9,4.1l-0.7,1.1l-0.9-1.8c-0.2-0.4-0.6-0.5-1-0.4c-0.4,0.2-0.5,0.6-0.4,1l1.3,2.8l-0.4,0.8l-0.3-0.6
				c-0.2-0.4-0.6-0.5-1-0.3s-0.5,0.6-0.4,1l0.7,1.5l-0.2,0.3h-1.7l-0.2-0.3l0.7-1.5c0.2-0.4,0-0.8-0.4-1s-0.8,0-1,0.3l-0.3,0.6
				l-0.4-0.8l1.3-2.8c0.2-0.4,0-0.8-0.4-1s-0.8,0-1,0.3l-0.9,1.8l-0.7-1.1l1.9-4.1c0.2-0.4,0-0.8-0.4-1c-0.4-0.2-0.8,0-1,0.4
				l-1.5,3.1l-0.7-1.3l0.7-1.5c0.2-0.4,0-0.8-0.4-1s-0.8,0-1,0.4l-0.3,0.6l-0.5-0.9c-0.2-0.3-0.6-0.5-1-0.3c-0.3,0.2-0.5,0.6-0.3,1
				l0.5,0.9l-0.6-0.1c-0.4,0-0.8,0.3-0.8,0.7c0,0.4,0.3,0.8,0.7,0.8l1.6,0.1l0.7,1.3l-3.4-0.3c-0.4,0-0.8,0.3-0.8,0.7
				c0,0.4,0.3,0.8,0.7,0.8l4.5,0.4l0.7,1.1l-2-0.2c-0.4,0-0.8,0.3-0.8,0.7c0,0.4,0.3,0.8,0.7,0.8l3,0.3l0.4,0.8l-0.6-0.1
				c-0.4,0-0.8,0.3-0.8,0.7c0,0.4,0.3,0.8,0.7,0.8l1.6,0.1l0.2,0.3l-0.8,1.5h-0.3l-0.9-1.3c-0.2-0.3-0.7-0.4-1-0.2
				c-0.3,0.2-0.4,0.7-0.2,1l0.4,0.5h-0.9l-1.7-2.5c-0.2-0.3-0.7-0.4-1-0.2c-0.3,0.2-0.4,0.7-0.2,1l1.2,1.7h-1.3l-2.6-3.7
				c-0.2-0.3-0.7-0.4-1-0.2c-0.3,0.2-0.4,0.7-0.2,1l2,2.8h-1.5l-0.9-1.3c-0.2-0.3-0.7-0.4-1-0.2c-0.3,0.2-0.4,0.7-0.2,1l0.4,0.5h-1
				c-0.4,0-0.7,0.3-0.7,0.7c0,0.4,0.3,0.7,0.7,0.7h1l-0.4,0.5c-0.2,0.3-0.1,0.8,0.2,1c0.1,0.1,0.3,0.1,0.4,0.1
				c0.2,0,0.5-0.1,0.6-0.3l0.9-1.3h1.5l-2,2.8c-0.2,0.3-0.1,0.8,0.2,1c0.1,0.1,0.3,0.1,0.4,0.1c0.2,0,0.5-0.1,0.6-0.3l2.6-3.7h1.3
				l-1.2,1.7c-0.2,0.3-0.1,0.8,0.2,1c0.1,0.1,0.3,0.1,0.4,0.1c0.2,0,0.5-0.1,0.6-0.3l1.7-2.5h0.9l-0.4,0.5c-0.2,0.3-0.1,0.8,0.2,1
				c0.1,0.1,0.3,0.1,0.4,0.1c0.2,0,0.5-0.1,0.6-0.3l0.9-1.3h0.3l0.8,1.5l-0.2,0.3l-1.6,0.1c-0.4,0-0.7,0.4-0.7,0.8s0.4,0.7,0.7,0.7
				c0,0,0,0,0.1,0l0.6-0.1l-0.4,0.8l-3,0.3c-0.4,0-0.7,0.4-0.7,0.8s0.4,0.7,0.7,0.7c0,0,0,0,0.1,0l2-0.2l-0.7,1.1l-4.5,0.4
				c-0.4,0-0.7,0.4-0.7,0.8s0.4,0.7,0.7,0.7c0,0,0,0,0.1,0l3.4-0.3l-0.7,1.3l-1.6,0.1c-0.4,0-0.7,0.4-0.7,0.8s0.4,0.7,0.7,0.7
				c0,0,0,0,0.1,0l0.6-0.1l-0.5,0.9c-0.2,0.3-0.1,0.8,0.3,1c0.1,0.1,0.2,0.1,0.4,0.1c0.3,0,0.5-0.1,0.6-0.4l0.5-0.9l0.3,0.6
				c0.1,0.3,0.4,0.4,0.7,0.4c0.1,0,0.2,0,0.3-0.1c0.4-0.2,0.5-0.6,0.4-1l-0.7-1.5l0.7-1.3l1.5,3.1c0.1,0.3,0.4,0.4,0.7,0.4
				c0.1,0,0.2,0,0.3-0.1c0.4-0.2,0.5-0.6,0.4-1l-1.9-4.1l0.7-1.1l0.9,1.8c0.1,0.3,0.4,0.4,0.7,0.4c0.1,0,0.2,0,0.3-0.1
				c0.4-0.2,0.5-0.6,0.4-1l-1.3-2.8l0.4-0.8l0.3,0.6c0.1,0.3,0.4,0.4,0.7,0.4c0.1,0,0.2,0,0.3-0.1c0.4-0.2,0.5-0.6,0.4-1l-0.7-1.5
				l0.2-0.3h1.7l0.2,0.3l-0.7,1.5c-0.2,0.4,0,0.8,0.4,1c0.1,0,0.2,0.1,0.3,0.1c0.3,0,0.5-0.2,0.7-0.4l0.3-0.6l0.4,0.8l-1.3,2.8
				c-0.2,0.4,0,0.8,0.4,1c0.1,0,0.2,0.1,0.3,0.1c0.3,0,0.5-0.2,0.7-0.4l0.9-1.8l0.7,1.1l-1.9,4.1c-0.2,0.4,0,0.8,0.4,1
				c0.1,0,0.2,0.1,0.3,0.1c0.3,0,0.5-0.2,0.7-0.4l1.5-3.1l0.7,1.3l-0.7,1.5c-0.2,0.4,0,0.8,0.4,1c0.1,0,0.2,0.1,0.3,0.1
				c0.3,0,0.5-0.2,0.7-0.4l0.3-0.6l0.5,0.9c0.1,0.2,0.4,0.4,0.6,0.4c0.1,0,0.2,0,0.4-0.1c0.3-0.2,0.5-0.6,0.3-1l-0.5-0.9l0.6,0.1
				c0,0,0,0,0.1,0c0.4,0,0.7-0.3,0.7-0.7c0-0.4-0.3-0.8-0.7-0.8l-1.6-0.1l-0.7-1.3l3.4,0.3c0,0,0,0,0.1,0c0.4,0,0.7-0.3,0.7-0.7
				c0-0.4-0.3-0.8-0.7-0.8l-4.5-0.4l-0.7-1.1l2,0.2c0,0,0,0,0.1,0c0.4,0,0.7-0.3,0.7-0.7c0-0.4-0.3-0.8-0.7-0.8l-3-0.3l-0.4-0.8
				l0.6,0.1c0,0,0,0,0.1,0c0.4,0,0.7-0.3,0.7-0.7c0-0.4-0.3-0.8-0.7-0.8l-1.9,0l-0.2-0.3l0.8-1.5h0.3l0.9,1.3
				c0.1,0.2,0.4,0.3,0.6,0.3c0.1,0,0.3,0,0.4-0.1c0.3-0.2,0.4-0.7,0.2-1l-0.4-0.5h0.9l1.7,2.5c0.1,0.2,0.4,0.3,0.6,0.3
				c0.1,0,0.3,0,0.4-0.1c0.3-0.2,0.4-0.7,0.2-1l-1.2-1.7h1.3l2.6,3.7c0.1,0.2,0.4,0.3,0.6,0.3c0.1,0,0.3,0,0.4-0.1
				c0.3-0.2,0.4-0.7,0.2-1l-2-2.8h1.5l0.9,1.3c0.1,0.2,0.4,0.3,0.6,0.3c0.1,0,0.3,0,0.4-0.1c0.3-0.2,0.4-0.7,0.2-1l-0.4-0.5h1
				c0.4,0,0.7-0.3,0.7-0.7C263.5-25.9,263.2-26.2,262.8-26.2z M246.9-24l-0.8-1.5l0.8-1.5h1.7l0.8,1.5l-0.8,1.5H246.9z"/>
			<circle class="st4" cx="275.5" cy="-44.2" r="3.4"/>
			<circle class="st4" cx="149.8" cy="20.1" r="3.4"/>
			<circle class="st4" cx="154.8" cy="33.1" r="1.5"/>
			<circle class="st4" cx="142.9" cy="41" r="1.5"/>
			<circle class="st4" cx="263.5" cy="-47.6" r="1.5"/>
			<circle class="st4" cx="291.1" cy="-11.7" r="3.8"/>
			<circle class="st4" cx="320" cy="112" r="3.8"/>
			<circle class="st4" cx="312" cy="-1.9" r="2.8"/>
			<circle class="st4" cx="306.6" cy="6.6" r="1.5"/>
			<circle class="st4" cx="280.4" cy="-3.4" r="1.5"/>
			<circle class="st4" cx="359.9" cy="20.1" r="1.5"/>
			<circle class="st4" cx="329.1" cy="-1.9" r="1.5"/>
			<circle class="st4" cx="323.1" cy="9.6" r="1.5"/>
			<circle class="st4" cx="321.5" cy="-2" r="1.5"/>
			<circle class="st4" cx="329.1" cy="-11.7" r="1.5"/>
			<circle class="st4" cx="369.3" cy="-0.4" r="1.5"/>
			<circle class="st4" cx="373.8" cy="-6.4" r="1.5"/>
			<circle class="st4" cx="326.1" cy="103.5" r="1.5"/>
			<circle class="st4" cx="337.4" cy="102" r="1.5"/>
			<circle class="st4" cx="330.6" cy="110.5" r="1.5"/>
			<circle class="st4" cx="298.6" cy="-13.2" r="1.5"/>
			<circle class="st4" cx="305.1" cy="-6.4" r="1.5"/>
		</g>
	</g>
</g>
</svg>
