<?xml version="1.0" encoding="utf-8"?>
<!-- Generator: Adobe Illustrator 19.0.0, SVG Export Plug-In . SVG Version: 6.00 Build 0)  -->
<svg version="1.1" xmlns="http://www.w3.org/2000/svg" xmlns:xlink="http://www.w3.org/1999/xlink" x="0px" y="0px"
	 viewBox="0 0 231 337.7" style="enable-background:new 0 0 231 337.7;" xml:space="preserve">
<style type="text/css">
	.st0{fill:#519E38;}
	.st1{fill:#F4F4F4;}
	.st2{fill:#D6D6D6;}
	.st3{fill:#EAEAEA;}
	.st4{fill:#FFFFFF;}
	.st5{fill:#EB008B;}
	.st6{fill:#62BA47;}
	.st7{fill-rule:evenodd;clip-rule:evenodd;fill:#E90E8A;}
	.st8{fill-rule:evenodd;clip-rule:evenodd;fill:#62BA47;}
	.st9{fill:#62BA46;}
</style>
<g id="kolba_4">
</g>
<g id="kolba_3">
</g>
<g id="kolby">
</g>
<g id="doma">
</g>
<g id="car">
</g>
<g id="butylka_3">
</g>
<g id="butylka_2">
	<g>
		<path class="st0" d="M157.2,273.7c0,0,0-72.5,0-112c0-39.4-16.4-54.5-16.4-54.5c4.3-24.4-7.4-31.8-7.4-31.8v-8.8h2.5
			c0,0,0-9.5,0-12.6c0-3.1-4.3-2.8-4.3-2.8h-16h-1.4h-16c0,0-4.3-0.3-4.3,2.8c0,3.1,0,12.6,0,12.6h2.6v8.8h-0.1
			c0,0-11.7,7.4-7.4,31.8c0,0-16.4,15-16.4,54.5c0,39.4,0,112,0,112s-1.7,24.1,16,24.1c4.8,0,8.8,0,12.2,0c9.1,0,13.2,0,13.2,0h0.8
			h0.9h0.1h13.1h0.1c3.3,0,7.3,0,12.1,0c0,0,0.1,0,0.1,0C158.9,297.8,157.2,273.7,157.2,273.7z"/>
		<path class="st1" d="M148.6,268c0,0,0-72.5,0-112c0-39.4-16.4-54.5-16.4-54.5c4.3-24.4-7.4-31.8-7.4-31.8v-9H87.8v9h-0.1
			c0,0-11.7,7.4-7.4,31.8c0,0-16.4,15-16.4,54.5c0,39.4,0,112,0,112s-1.7,24.1,16,24.1c4.8,0,8.8,0,12.2,0c9.1,0,13.2,0,13.2,0h1.8
			h13.2c3.4,0,7.4,0,12.2,0C150.3,292.1,148.6,268,148.6,268z"/>
		<path class="st2" d="M123,45.7h-16h-1.4h-16c0,0-4.3-0.3-4.3,2.8c0,3.1,0,12.6,0,12.6h20.4h1.4h20.4c0,0,0-9.5,0-12.6
			C127.4,45.3,123,45.7,123,45.7z"/>
		<path class="st3" d="M148.5,268c0,0,0-72.5,0-112c0-39.4-16.4-54.5-16.4-54.5c4.3-24.4-7.4-31.8-7.4-31.8v-9h-18.6v231.3h0.9h13.2
			c3.4,0,7.4,0,12.2,0C150.2,292.1,148.5,268,148.5,268z"/>
		<path class="st4" d="M77.7,143.1c-0.2,0-0.4,0-0.6,0c-2.6-0.3-4.4-2.7-4-5.2c2.1-16.2,9.9-26,10.3-26.4c1.6-2,4.6-2.3,6.6-0.7
			c2,1.6,2.3,4.6,0.7,6.6c-0.1,0.1-6.5,8.4-8.3,21.7C82,141.4,80,143.1,77.7,143.1z"/>
	</g>
	<g>
		<circle class="st5" cx="106.8" cy="198.1" r="23.3"/>
		<circle class="st6" cx="88.2" cy="218.8" r="7.3"/>
		<path class="st7" d="M95.8,169.5c0,1.6-1.3,3-3,3c-1.7,0-3-1.3-3-3c0-1.7,1.3-3,3-3C94.4,166.5,95.8,167.8,95.8,169.5L95.8,169.5z
			"/>
		<path class="st8" d="M95.9,179.6c0,2.1-1.7,3.8-3.8,3.8c-2.1,0-3.8-1.7-3.8-3.8c0-2.1,1.7-3.8,3.8-3.8
			C94.2,175.7,95.9,177.4,95.9,179.6L95.9,179.6z"/>
		<path class="st8" d="M85.6,173.6c0,1.3-1,2.3-2.3,2.3c-1.3,0-2.3-1-2.3-2.3c0-1.3,1-2.3,2.3-2.3C84.6,171.3,85.6,172.4,85.6,173.6
			L85.6,173.6z"/>
		<g>
			<path class="st6" d="M139.7,176.8c0,7.1-5.8,12.9-12.9,12.9c-7.1,0-12.9-5.8-12.9-12.9c0-7.1,5.8-12.9,12.9-12.9
				C133.9,163.9,139.7,169.6,139.7,176.8z"/>
			<g>
				<path class="st4" d="M123.6,174.9c-1.1,0.1-1.4,1.4-1.4,2.3l0,0l0,0c0,0.1,0,0.3,0,0.4c0,0.4,0,0.7-0.1,1.1
					c0,0.2-0.1,0.5-0.1,0.5c-0.4,0-0.7-0.5-0.8-0.8c-0.3-0.7-0.4-1.3-0.6-2c-0.1-0.7-0.2-1.5-0.3-2.3c0-0.3,0-0.6,0-0.9
					c0-0.1,0-0.3,0-0.4c0-0.1,0-0.2,0-0.2c0.1-0.6-0.7,0-0.8,0.2c-0.9,1.5-0.6,3.3-0.6,4.9c0,0.4,0,0.9-0.1,1.3
					c0,0.3-0.1,0.8-0.4,1.1c-0.2,0.2-0.4,0-0.6,0c-0.2-0.1-0.3-0.3-0.4-0.6c0-0.2-0.3-0.1-0.4,0c-0.2,0.2-0.4,0.5-0.3,0.8
					c0.1,0.6,0.6,1.1,1.2,0.9c1-0.3,1.4-1.4,1.6-2.3c0.1-0.4,0.2-0.9,0.2-1.3c0.1,0.6,0.3,1.3,0.6,1.8c0.2,0.4,0.6,0.9,1.1,0.8
					c0.4-0.1,0.7-0.5,0.9-1c0.2,0.4,0.5,0.7,1,0.7c0.5,0,1-0.6,1.2-1c0.2-0.5,0.3-1.1,0.3-1.6C124.9,176.4,124.7,174.8,123.6,174.9z
					 M123.9,178.6c0,0.1,0,0.2-0.1,0.3c-0.2,0-0.4-0.3-0.4-0.5c-0.2-0.3-0.2-0.7-0.3-1.1c0-0.4,0-0.8,0-1.2c0-0.1,0-0.2,0.1-0.3
					c0.5,0.3,0.6,1,0.7,1.6C124,177.8,124,178.2,123.9,178.6z"/>
				<path class="st4" d="M136.4,176.4c-1.2-0.4-1.8,1.1-2,2c-0.2,0.8-0.4,2.2,0.6,2.6c0.5,0.2,1.1-0.2,1.3-0.5
					c0.4-0.4,0.6-0.9,0.7-1.4C137.2,178.3,137.4,176.8,136.4,176.4z M135.7,180.1c0,0.1-0.1,0.2-0.2,0.3c-0.2-0.1-0.2-0.5-0.3-0.6
					c-0.1-0.4,0-0.8,0-1.2c0.1-0.4,0.2-0.8,0.4-1.1c0-0.1,0.1-0.2,0.2-0.3c0.4,0.5,0.3,1.2,0.2,1.8
					C136,179.4,135.9,179.8,135.7,180.1z"/>
				<path class="st4" d="M133.3,176.6c0.2-0.3,0.4-0.6,0.6-0.9c0.4-0.6,0.8-1.4,0.8-2.2c0-0.7-1-0.8-1.5-0.5
					c-0.7,0.4-1.2,1.1-1.4,1.9c-0.3,1-0.4,2-0.5,3c0,0,0,0,0,0c-0.4,0.4-1.1,1.3-1.7,0.9c-0.1-0.1-0.2-0.3-0.3-0.5
					c0.5-0.5,0.9-1,1.3-1.6c0.3-0.5,0.6-1.4-0.1-1.8c-0.6-0.3-1.3,0-1.6,0.5c-0.4,0.5-0.5,1-0.6,1.6c0,0.3-0.1,0.8,0,1.3
					c-0.3,0.2-0.8,0.3-1.1,0.3c-0.4-0.1-0.6-0.6-0.7-0.9c-0.1-0.5-0.1-1.1,0-1.6c0-0.2,0.1-0.3,0.1-0.5c0,0,0-0.1,0.1-0.1
					c0.3,0.1,0.4,0.5,0.4,0.7c0.1,0.4,1.1-0.2,1-0.6c-0.1-0.4-0.3-0.8-0.7-1c-0.4-0.2-1,0.2-1.2,0.4c-0.7,0.7-0.8,1.7-0.7,2.6
					c0,0.6,0.2,1.3,0.7,1.6c0.7,0.4,1.7,0,2.3-0.4c0.2,0.4,0.5,0.7,1.1,0.7c0.7-0.1,1.3-0.5,1.8-0.9c0,0.5,0.1,1.1,0.5,1.3
					c0.6,0.3,1.4-0.1,1.8-0.6c0.5-0.7,0.8-1.6,0.5-2.4C133.9,176.8,133.6,176.6,133.3,176.6z M129.4,176.2c0-0.1,0.1-0.3,0.2-0.4
					c0,0,0,0,0,0c0.3,0.1,0.3,0.4,0.3,0.6c-0.1,0.4-0.3,0.9-0.7,1.2c0-0.1,0-0.2,0-0.2C129.2,177,129.2,176.6,129.4,176.2z
					 M133.1,174.1c0.1-0.2,0.2-0.3,0.3-0.4c0,0,0,0,0,0c0.4,0.5,0,1.2-0.2,1.7c-0.2,0.4-0.5,0.9-0.8,1.4c0.1-0.4,0.2-0.9,0.3-1.3
					C132.7,174.9,132.9,174.5,133.1,174.1z M132.8,179.4c0,0-0.1,0.1-0.1,0.2c0,0-0.1,0-0.1,0c-0.3-0.1-0.3-0.8-0.3-1
					c0-0.2,0-0.4,0-0.7c0.1-0.1,0.2-0.3,0.4-0.4c0.3-0.2,0.4,0.2,0.5,0.4C133.2,178.3,133,178.9,132.8,179.4z"/>
			</g>
		</g>
		<g>
			<path class="st4" d="M83,217.7c0.3-0.7,0.8-0.2,1,0.1c0.3,0.5,0,1-0.3,1.4c-0.3,0.3-0.6,0.6-0.9,0.9c-0.2,0.1-0.3,0.2-0.5,0.4
				c0,0.1-0.1,0.2,0,0.3c0.3,0.2,0.8,0.2,1.1,0.2c0.6,0,1.1,0,1.6-0.3c0.3-0.1,0.6-0.8,0-0.6c-0.4,0.2-0.9,0.2-1.3,0.1
				c-0.2,0-0.7,0-0.9-0.1c0,0.1,0,0.2,0,0.3c-0.2,0.4-0.1,0.2,0.1,0.1c0.2-0.1,0.3-0.2,0.5-0.4c0.3-0.2,0.5-0.5,0.7-0.8
				c0.5-0.5,0.7-1.2,0.6-1.9c-0.3-1.6-2-0.4-2.4,0.5C82.1,218.3,82.9,217.9,83,217.7L83,217.7z"/>
			<path class="st4" d="M87.1,220.3c0.6,1.8,3.2,0.5,2.8-1c-0.2-0.8-1.1-0.7-1.8-0.9c-0.3-0.1-0.4-0.4-0.4-0.7
				c0.1-0.3,0.1-0.4-0.1-0.2c0.1,0,0.2-0.1,0.3-0.1c0.5-0.1,1.1-0.1,1.6,0.2c0.2,0.1,0.8-0.5,0.5-0.6c-0.6-0.3-1.4-0.3-2.1-0.1
				c-0.7,0.2-0.8,0.8-0.8,1.4c0,0.8,0.7,0.9,1.3,1c0.5,0.1,0.8,0.2,0.9,0.7c0.1,0.8-0.8,0.7-1.2,0.5c-0.2-0.1-0.3-0.3-0.4-0.5
				C87.6,219.5,87,220,87.1,220.3L87.1,220.3z"/>
			<g>
				<path class="st4" d="M93.2,217.1c-0.7,1.2-1.7,2.4-2.6,3.6c-0.4,0.5,0.2,0.5,0.5,0.1c0.9-1.2,1.9-2.4,2.7-3.7
					C94.1,216.5,93.4,216.8,93.2,217.1L93.2,217.1z"/>
				<path class="st4" d="M91.8,216.7c-0.5,0-0.8,0.4-0.9,0.9c-0.1,0.4,0.2,0.7,0.6,0.8C92.4,218.4,92.8,216.8,91.8,216.7
					c-0.2,0-0.6,0.5-0.3,0.5c0.2,0,0.3,0.2,0.4,0.4c0,0.1,0,0.2,0,0.2c0,0.1,0,0,0,0c0,0-0.1,0-0.1,0c-0.2,0-0.3-0.2-0.4-0.4
					c0-0.1,0-0.2,0-0.3c0-0.1,0,0,0,0c0,0,0.1,0,0.1,0C91.8,217.2,92.1,216.7,91.8,216.7z"/>
				<path class="st4" d="M93.1,219.4c-0.5,0-0.8,0.4-0.9,0.9c-0.1,0.4,0.2,0.7,0.6,0.8C93.7,221,94.1,219.4,93.1,219.4
					c-0.2,0-0.6,0.5-0.3,0.5c0.2,0,0.3,0.2,0.4,0.4c0,0.1,0,0.2,0,0.2c0,0.1,0,0,0,0c0,0-0.1,0-0.1,0c-0.2,0-0.3-0.2-0.4-0.4
					c0-0.1,0-0.2,0-0.3c0-0.1,0,0,0,0c0,0,0.1,0,0.1,0C93.1,219.9,93.4,219.4,93.1,219.4z"/>
			</g>
			<path class="st4" d="M86,221.9c0.3-0.3,0.5-0.7,0.6-1.2c0-0.1,0-0.3-0.1-0.4c-0.2-0.2-0.4,0-0.6,0c-0.2,0.1-0.4,0.3-0.4,0.5
				c0,0.2,0.2,0.2,0.3,0.1c0,0,0,0,0,0c0,0,0,0,0,0c0,0.1,0,0.1,0,0.2c0,0.1-0.1,0.2-0.1,0.2c0,0,0,0,0,0.1c0,0,0,0,0,0
				c0,0,0,0,0,0.1c0.1-0.1,0,0,0,0c-0.1,0.1-0.3,0.4-0.2,0.5C85.6,222.2,85.9,222,86,221.9L86,221.9z"/>
		</g>
		<g>
			<path class="st4" d="M125.4,197.5c-0.3-0.4-0.8-0.3-1.2-0.2c0-0.3,0.1-0.7,0.1-1c0-0.3-0.5-0.2-0.6-0.2c-0.2,0.1-0.5,0.2-0.5,0.5
				c-0.3-0.1-0.6,0-0.9,0.2c-0.8,0.4-1.1,1.3-1.3,2.1c0,0.2-0.1,0.4-0.1,0.5c0,0,0,0,0,0c-0.1,0.3-0.2,0.8-0.5,1
				c-0.3,0.1-0.4-0.9-0.4-1.1c-0.1-1.1,0.2-2.3,0.4-3.3c0.1-0.3-0.3-0.3-0.5-0.3c-0.3,0.1-0.6,0.3-0.7,0.5c-0.2,0.8-0.3,1.7-0.5,2.5
				c-0.1,0.4-0.2,0.7-0.4,1.1c0,0,0,0,0,0c-0.1,0-0.2-0.1-0.2-0.1c-0.5-0.4-0.4-1.5-0.3-1.9c0.1-0.7,0.3-1.4,0.6-2.1
				c0.1-0.2,0-0.4-0.3-0.4c-0.3,0-0.6,0.2-0.7,0.5c-0.3,0.6-0.4,1.2-0.6,1.8c-0.1,0.6-0.4,1.1-0.8,1.6c0,0-0.1,0.1-0.1,0.1
				c0,0,0,0,0-0.1c-0.1-0.5-0.1-1,0-1.5c0-0.7,0.1-1.4,0.2-2.1c0,0,0,0,0-0.1c0-0.6-0.4-1-1.1-0.9c-0.6,0-1.2,0.4-1.5,0.9
				c-0.4,0.6-0.6,1.4-0.6,1.5c-0.1,0.6-0.4,1.2-0.7,1.7c-0.1,0-0.1-0.2-0.1-0.2c-0.1-0.3-0.2-0.7-0.2-1c-0.1-1-0.1-2.1,0-3.1
				c0,0,0,0,0,0c0-0.1,0-0.1,0-0.1c0,0-0.1-0.1-0.1-0.1c-0.3-0.1-0.6,0.2-0.8,0.3c-0.6,0.7-0.6,1.6-0.8,2.4
				c-0.1,0.5-0.2,0.9-0.3,1.4c0,0,0,0.1-0.1,0.2c-0.1-0.1-0.2-0.2-0.2-0.4c0,0,0,0,0,0c0-0.2-0.1-0.3-0.3-0.2
				c-0.3,0.1-0.6,0.3-0.7,0.6c0,0,0,0,0,0c0,0,0,0,0,0c-0.2-0.1-0.3-0.2-0.4-0.4c-0.1-0.3-0.1-0.7-0.2-1c0-0.2,0-0.5,0-0.7
				c0.1-0.6,0.1-1.1,0.1-1.7c0-0.2,0-0.3,0-0.5c0-0.3-0.3-0.2-0.5-0.1c-0.3,0.1-0.6,0.4-0.6,0.7c0,0.3,0,0.6,0,0.9
				c0,0.3,0,0.6,0,0.9c0,0.3,0,0.5-0.1,0.8c0,0.4-0.1,0.8-0.2,1.1c0,0,0,0,0,0c-0.1,0-0.2,0-0.2-0.1c-0.6-0.2-0.6-1.3-0.6-1.8
				c0-0.7,0-1.5,0.3-2.1c0-0.1,0.1-0.2,0-0.3c-0.1-0.1-0.4,0-0.5,0.1c-0.1,0.1-0.5,0.4-0.7,0.5c-0.5,0.2-0.9,0.1-1.3-0.2
				c-0.1-0.2-0.3-0.3-0.4-0.4c-0.4-0.2-0.9,0.1-1.3,0.3c-0.1-0.3-0.1-0.6-0.2-1c-0.1-0.3-0.5,0-0.6,0.1c-0.2,0.2-0.4,0.4-0.4,0.7
				c-0.3,0.1-0.6,0.3-0.8,0.5c-0.6,0.7-0.7,1.7-0.7,2.5c0,0.2,0,0.3,0.1,0.5c0,0.2,0,0.9-0.3,1.2c-0.3,0.3-0.7-0.7-0.7-0.8
				c-0.3-1-0.4-2.2-0.5-3.3c0-0.3-0.3-0.2-0.5,0c-0.2,0.2-0.5,0.5-0.5,0.8c0,0.9,0.2,1.7,0.2,2.6c0,0.4,0,0.8-0.1,1.2c0,0,0,0,0,0.1
				c-0.1,0-0.2,0-0.2,0c-0.6-0.1-0.7-1.2-0.8-1.7c-0.1-0.7-0.1-1.5,0-2.2c0-0.2-0.1-0.4-0.4-0.2c-0.3,0.1-0.5,0.5-0.6,0.8
				c-0.1,1-0.1,1.9,0.1,2.8c0.1,0.6,0.4,1.7,1.3,1.6c0.6-0.1,1-0.5,1.3-1c0.1,0.1,0.1,0.2,0.2,0.3c0.5,0.6,1.3,0,1.7-0.5
				c0.1-0.1,0.1-0.1,0.2-0.2c0.1,0.1,0.2,0.3,0.3,0.4c0.3,0.2,0.6,0.3,1,0.2c0.1,0,0.3-0.1,0.4-0.2c0.1,1,0.1,2.1,0.1,3.1
				c0,0.3,0.3,0.2,0.5,0.1c0.2-0.2,0.5-0.4,0.5-0.7c0-0.8,0-1.7,0-2.5c0.4,0,0.8-0.2,1.1-0.6c0.7-0.7,0.8-1.8,0.7-2.7
				c0-0.2,0-0.3-0.1-0.5c0.3-0.1,0.6-0.2,0.9-0.3c-0.1,0.7-0.2,1.4-0.1,2.1c0.1,0.7,0.2,1.8,1.1,1.9c0.5,0,0.9-0.2,1.2-0.6
				c0.2,0.4,0.6,0.6,1.1,0.5c0.2,0,0.3-0.1,0.5-0.2c0.4,0.4,0.9,0.3,1.4,0c0.3-0.3,0.6-0.7,0.7-1.1c0,0.1,0,0.2,0.1,0.4
				c0.1,0.3,0.1,0.7,0.4,1c0.3,0.3,0.7,0.2,1,0c0.3-0.1,0.5-0.4,0.7-0.5c0.1,0.3,0.2,0.7,0.5,0.8c0.5,0.3,1.1,0,1.4-0.2
				c0,0.3,0.1,0.5,0.4,0.6c0.6,0.2,1.2-0.3,1.5-0.6c0,0,0,0,0-0.1c0.1,0.5,0.3,0.9,0.8,1.1c0.6,0.2,1.1,0,1.4-0.4
				c0,0.1,0.1,0.3,0.1,0.4c0.3,0.8,1.2,0.5,1.7,0.2c0.1,0,0.1-0.1,0.2-0.1c0,0.2,0.1,0.3,0.2,0.5c0.2,0.3,0.5,0.5,0.8,0.6
				c0.1,0,0.3,0,0.4,0c-0.2,1-0.5,2-0.8,3c-0.1,0.3,0.2,0.3,0.4,0.3c0.3,0,0.5-0.2,0.6-0.5c0.3-0.8,0.5-1.6,0.7-2.4
				c0.4,0.1,0.8,0.1,1.1-0.1c0.8-0.4,1.2-1.4,1.4-2.3C125.9,199.3,126,198.2,125.4,197.5z M101,199.1c0,0-0.1,0-0.2,0
				c-0.2-0.1-0.3-0.2-0.4-0.4c-0.3-0.5-0.4-1.1-0.4-1.6c0-0.5,0-1,0.2-1.4c0,0,0.1,0,0.1,0.1c0.4,0.2,0.6,0.7,0.6,1.1v0
				C100.9,197.5,101,198.3,101,199.1C101,199,101,199.1,101,199.1z M102.7,198.8C102.7,198.8,102.7,198.9,102.7,198.8
				C102.7,198.9,102.7,198.9,102.7,198.8c-0.4,0.2-0.7-0.1-0.7-0.5l0,0c0-0.8-0.1-1.6-0.2-2.3c0-0.2,0-0.4,0-0.6c0,0,0,0,0,0
				c0,0,0,0,0,0c0.1,0,0.2,0,0.3,0.1c0,0,0,0,0,0c0,0,0.1,0.1,0.1,0.1c0.3,0.4,0.4,1,0.5,1.4C102.9,197.6,103,198.3,102.7,198.8z
				 M115,196.2c-0.2,0.9-0.2,1.9-0.5,2.8c0,0-0.1,0.1-0.1,0.2c0,0-0.1,0-0.2,0c-0.2-0.1-0.3-0.4-0.3-0.6c-0.2-0.7-0.1-1.5,0.2-2.2
				c0.1-0.2,0.2-0.5,0.3-0.6c0,0,0,0,0,0c0.1,0,0.1,0,0.2,0C114.9,195.7,115,196,115,196.2z M122.9,198.9L122.9,198.9
				c-0.1,0.7-0.2,1.5-0.4,2.2c0,0,0,0,0,0c0,0,0,0,0,0c0,0-0.1-0.1-0.2-0.1c-0.2-0.2-0.2-0.4-0.3-0.6c-0.1-0.6-0.1-1.2,0-1.7
				c0.1-0.4,0.2-0.9,0.5-1.3c0,0,0.1,0.1,0.1,0.1C122.9,197.9,122.9,198.5,122.9,198.9z M124.7,200c-0.1,0.5-0.2,1.2-0.6,1.6
				c0,0,0,0-0.1,0.1c0,0,0,0,0,0c-0.4-0.1-0.5-0.5-0.5-0.8c0,0,0,0,0,0c0.2-0.8,0.3-1.5,0.4-2.3c0-0.2,0.1-0.4,0.2-0.5c0,0,0,0,0,0
				c0,0,0,0,0,0c0.1,0,0.2,0.2,0.3,0.3C124.8,198.9,124.7,199.5,124.7,200z"/>
			<path class="st4" d="M120.8,194.7c0.1-0.1,0.5-0.3,0.3-0.6c-0.2-0.2-0.6-0.1-0.7,0c-0.4,0.2-0.7,0.3-1.1,0.1
				c-0.2-0.1-0.3-0.2-0.4-0.4c-0.2-0.4-1.3,0.2-1.1,0.6C118.5,195.6,120,195.2,120.8,194.7z"/>
			<path class="st4" d="M91.2,196.5c-0.1-0.4-0.2-0.9-0.4-1.3c0.9-0.3,1.8-0.5,2.6-1c0.3-0.1,0.5-0.5,0.6-0.8
				c0.1-0.3-0.1-0.3-0.4-0.2c-1.6,0.7-3.3,1-4.8,1.6c-0.6,0.2-1.2,0.7-1.6,1.3c-0.4,0.8-0.3,1.4,0.1,2c0.2,0.4,1-0.7,0.8-1.1
				c-0.1-0.2-0.3-0.4-0.3-0.7c0,0,0-0.1,0-0.1c0.3-0.3,1-0.5,1.4-0.6c0.1,0,0.3-0.1,0.4-0.1c0.2,0.5,0.4,0.9,0.5,1.4
				c-0.5,0.4-1,0.9-1.2,1.5c-0.6,1.2-0.7,4.3,1.4,4c1.4-0.2,1.5-1.9,1.4-3c-0.1-0.6-0.2-1.2-0.3-1.9c0.1,0,0.3,0,0.4,0
				c0.8,0.1,1.2,0.8,1.3,1.5c0.1,0.6,0,1.4-0.4,1.9c-0.2,0.2-0.4,0.6-0.3,0.8c0.1,0.2,0.5-0.1,0.6-0.2c1.1-1.2,1.6-3.2,0.5-4.5
				C93,196.4,92,196.3,91.2,196.5z M90.7,201.3c-0.3,0-0.6-0.1-0.9-0.3c-0.5-0.5-0.7-1.8-0.2-2.6c0.2-0.3,0.5-0.5,0.8-0.7
				c0.2,0.8,0.3,1.5,0.4,2.3c0.1,0.3,0.1,0.7,0.1,1c0,0.1,0,0.1,0,0.2C90.8,201.3,90.8,201.3,90.7,201.3z"/>
		</g>
		<g>
			<path class="st9" d="M78.5,188.2c-0.1,0-0.2-0.2-0.3-0.3c-0.5-0.2-0.9,0.1-1.3,0.1c-1.1,0-1.5,0-2.8-0.4c0-1.2,0.7-1.9,1-2.8
				c0.3-0.8-0.1-1.7-0.2-2.6c0-0.5,0-1.1,0-1.7c-0.4,0.4-0.2,1.4-0.3,1.9c-0.2-0.7-0.1-1.6-0.4-2.2c-0.2,0.7,0,1.6,0,2.2
				c-0.2-0.6-0.2-1.4-0.5-1.9c-0.3,0.6,0.2,1.6,0.1,2.1c-0.2-0.5-0.4-1.2-0.6-1.7c-0.1,0.8,0.2,1.4,0.2,1.9c-0.2-0.4-0.3-1-0.7-1.3
				c0,0.5,0.3,1.1,0.5,1.5c-0.3-0.2-0.4-0.5-0.7-0.7c0.1,0.4,0.3,0.6,0.4,0.9c-0.2-0.1-0.3-0.4-0.6-0.5c0,0.4,0.3,0.4,0.4,0.7
				c-0.2-0.1-0.3-0.2-0.5-0.3c0,0.3,0.4,0.4,0.3,0.6c0,0-0.3-0.1-0.3,0c0.1,0,0.3,0.2,0.2,0.2c-0.1,0-0.2,0-0.2,0
				c0,0.2,0.2,0.1,0.2,0.3c-0.1,0-0.1-0.1-0.2-0.1c0,0.2,0.1,0.1,0.1,0.3c-1,1-0.4,2.1-0.5,3.2c0.1-0.2-0.8-0.3-1.4-0.6
				c-0.4-0.1-0.4-0.6-0.7-0.7c0-0.1,0.1,0,0.1-0.1c-0.1-0.1-0.2-0.1-0.3-0.2c0.1,0,0.4,0.1,0.4-0.1c-0.2-0.1-0.6-0.2-0.5-0.4
				c0.2,0,0.5,0.1,0.6,0.1c-0.3-0.1-0.7-0.3-0.7-0.6c0.2,0.1,0.6,0.3,0.9,0.2c-0.4-0.2-1-0.5-1.1-0.8c0.3,0.1,0.7,0.5,1,0.5
				c-0.5-0.1-0.9-0.7-1.3-0.7c0.2,0.4,0.9,0.7,1.1,1c-0.3-0.2-0.7-0.4-1.1-0.6c0.2,0.5,0.7,0.6,1,0.9c-0.3,0-0.5-0.2-0.9-0.2
				c0.1,0.4,0.7,0.3,0.9,0.6c-0.1-0.1-0.4,0-0.6,0c0.1,0.2,0.4,0.2,0.6,0.3c-0.2,0-0.4,0-0.5,0.1c0.1,0.1,0.4,0.1,0.5,0.2
				c-0.1,0-0.3,0-0.3,0.1c0,0.1,0.3,0,0.3,0.1c-0.1,0-0.1,0.1-0.1,0.2c0.1,0,0.2,0,0.2,0.1c-0.1,0-0.1,0.1-0.1,0.1
				c0.5,0.3,0.8,1.1,1.5,1.3c-0.4,0.3,0.4,0.5-4.1,2.1c0.2,0,2-0.4,2.5-0.6c0.5-0.2,1.1-0.4,1.6-0.5c0.1,0,0.2-0.1,0.4-0.1
				c0.9-0.1,1.8,0.1,2.7-0.5c-0.7,0.1-1.9,0.2-2.4-0.2c0.6-0.9,0.2-3.3,0.7-3.9c0.5-0.5,1.2-2,2.2-0.7c0.2,0.2,0.2,0.5-0.2,1.1
				c-0.4,0.7-0.7,1-0.6,2.5c0,0.3,0.1,0.6-0.5,0.6c1.9,0.4,2.5,0.2,3.7,0c0.4-0.1,0.9-0.3,1,0c0,0.1-0.4,0.1-0.7,0.1
				c-0.5,0,0.2,0.2,0.5,0.2c0.1,0,1.1-0.1,1.7-0.2C79.1,188.3,78.8,188.3,78.5,188.2z"/>
			<path class="st9" d="M72.8,178.2c-4.5,0-8.1,3.6-8.1,8.1c0,4.5,3.6,8.1,8.1,8.1c4.5,0,8.1-3.6,8.1-8.1
				C80.9,181.8,77.2,178.2,72.8,178.2 M72.8,178.5c4.3,0,7.8,3.5,7.8,7.8s-3.5,7.8-7.8,7.8c-4.3,0-7.8-3.5-7.8-7.8
				S68.5,178.5,72.8,178.5"/>
		</g>
	</g>
</g>
<g id="butylka_1">
</g>
<g id="vanna_2">
</g>
<g id="sneg">
</g>
<g id="vanna_1">
</g>
<g id="zakvaska">
</g>
<g id="shariki_2">
</g>
<g id="shariki_1">
</g>
<g id="voronka">
</g>
<g id="gradusnik">
</g>
<g id="kolba_2">
</g>
<g id="kolba_1">
</g>
<g id="probirki">
</g>
<g id="lupa">
</g>
<g id="bidon">
</g>
<g id="blank">
</g>
<g id="ticks">
</g>
</svg>
