<?xml version="1.0" encoding="utf-8"?>
<!-- Generator: Adobe Illustrator 19.0.0, SVG Export Plug-In . SVG Version: 6.00 Build 0)  -->
<svg version="1.1" xmlns="http://www.w3.org/2000/svg" xmlns:xlink="http://www.w3.org/1999/xlink" x="0px" y="0px"
	 viewBox="0 0 241.3 173" style="enable-background:new 0 0 241.3 173;" xml:space="preserve">
<style type="text/css">
	.st0{fill:#519E38;}
	.st1{fill:none;stroke:#FFFFFF;stroke-width:4;stroke-miterlimit:10;}
	.st2{fill:#FFFFFF;}
	.st3{fill:#EFEFEF;}
	.st4{fill:#1669B3;}
	.st5{fill:#EDEDED;}
	.st6{fill:none;stroke:#636363;stroke-width:0.75;}
	.st7{fill:#636363;}
	.st8{fill:#1E1E1E;}
</style>
<g id="bath">
	<g id="XMLID_1_">
		<rect id="XMLID_27_" x="26.5" y="43.6" class="st0" width="5.3" height="105.1"/>
		<path id="XMLID_26_" class="st0" d="M209.5,43.6l-0.1,104.8c0,0,1.3,11.2-7.7,11.2H34.5c0,0-5-0.3-5-5.8
			c0-5.5,166.2-2.7,166.2-2.7l7-18.8l1.4-70.8l0.3-18.1H209.5z"/>
		<path id="XMLID_25_" class="st0" d="M213.5,41c0,2.2-1.8,4-4,4h-183c-2.2,0-4-1.8-4-4l0,0c0-2.2,1.8-4,4-4h183
			C211.7,37,213.5,38.7,213.5,41L213.5,41z"/>
		<path id="XMLID_24_" class="st1" d="M204.5,150.2c0,2-1.6,3.7-3.7,3.7H30.2c-2,0-3.7-1.6-3.7-3.7V43.6c0-2,1.6-3.7,3.7-3.7h170.6
			c2,0,3.7,1.6,3.7,3.7V150.2z"/>
		<rect id="XMLID_23_" x="26.5" y="89.8" class="st2" width="177.7" height="64.1"/>
		<path id="XMLID_22_" class="st3" d="M210.5,38c0,2.2-1.8,4-4,4h-183c-2.2,0-4-1.8-4-4l0,0c0-2.2,1.8-4,4-4h183
			C208.7,34,210.5,35.7,210.5,38L210.5,38z"/>
		<path id="XMLID_21_" class="st2" d="M43.3,75.8c0,1.7-1.4,3.1-3.1,3.1l0,0c-1.7,0-3.1-1.4-3.1-3.1V53.1c0-1.7,1.4-3.1,3.1-3.1l0,0
			c1.7,0,3.1,1.4,3.1,3.1V75.8z"/>
	</g>
</g>
<g id="clock">
	<circle id="XMLID_20_" class="st4" cx="200.8" cy="43.6" r="30.3"/>
	<circle id="XMLID_19_" class="st5" cx="200.8" cy="43.6" r="25"/>
	<ellipse id="XMLID_18_" class="st6" cx="200.8" cy="43.6" rx="23" ry="23.1"/>
	<rect id="XMLID_17_" x="199.9" y="20.6" class="st7" width="1.9" height="5.1"/>
	
		<rect id="XMLID_16_" x="189" y="24" transform="matrix(0.8118 -0.5839 0.5839 0.8118 20.276 115.9152)" class="st7" width="1.9" height="5.1"/>
	
		<rect id="XMLID_15_" x="182.4" y="31" transform="matrix(0.4665 -0.8845 0.8845 0.4665 68.2238 180.1045)" class="st7" width="1.9" height="5.1"/>
	
		<rect id="XMLID_14_" x="211" y="23.6" transform="matrix(-0.8118 -0.5839 0.5839 -0.8118 368.7874 171.176)" class="st7" width="1.9" height="5.1"/>
	
		<rect id="XMLID_13_" x="217.8" y="31" transform="matrix(-0.4665 -0.8845 0.8845 -0.4665 291.2307 242.6554)" class="st7" width="1.9" height="5.1"/>
	
		<rect id="XMLID_12_" x="189" y="58.5" transform="matrix(0.8119 0.5838 -0.5838 0.8119 71.3968 -99.4342)" class="st7" width="1.9" height="5.1"/>
	
		<rect id="XMLID_11_" x="181.7" y="50.4" transform="matrix(0.4665 0.8845 -0.8845 0.4665 144.2885 -133.3687)" class="st7" width="1.9" height="5.1"/>
	
		<rect id="XMLID_10_" x="211.5" y="58.1" transform="matrix(-0.8119 0.5838 -0.5838 -0.8119 420.361 -14.105)" class="st7" width="1.9" height="5.1"/>
	
		<rect id="XMLID_9_" x="218" y="50.7" transform="matrix(-0.4665 0.8845 -0.8845 -0.4665 368.2056 -115.5371)" class="st7" width="1.9" height="5.1"/>
	<rect id="XMLID_8_" x="199.9" y="62" class="st7" width="1.9" height="5.1"/>
	<rect id="XMLID_7_" x="218.9" y="42.7" class="st7" width="5.1" height="1.9"/>
	<rect id="XMLID_6_" x="177.6" y="42.7" class="st7" width="5.1" height="1.9"/>
	<circle id="XMLID_5_" class="st8" cx="201.2" cy="42.9" r="1.8"/>
</g>
<g id="hour_x5F_arrow">
	
		<rect id="XMLID_4_" x="203.5" y="25.4" transform="matrix(0.9386 0.3451 -0.3451 0.9386 24.4715 -68.3403)" class="st8" width="1.4" height="18.3"/>
	
		<rect id="XMLID_3_" x="206.4" y="37.8" transform="matrix(-0.1079 0.9942 -0.9942 -0.1079 272.7774 -157.5123)" class="st8" width="1.4" height="11.7"/>
</g>
<g id="minute_x5F_arrow">
</g>
</svg>
