<?xml version="1.0" encoding="utf-8"?>
<svg xmlns="http://www.w3.org/2000/svg"
	xmlns:xlink="http://www.w3.org/1999/xlink"
	width="144px" height="23px" viewBox="0 0 144 23">
<path fillRule="evenodd" d="M-0.01 23.01C-0.01 23.01-0.01-0.01-0.01-0.01-0.01-0.01 144-0.01 144-0.01 144-0.01 144 23.01 144 23.01 144 23.01-0.01 23.01-0.01 23.01ZM 142.32 1.65C 142.32 1.65 1.67 1.65 1.67 1.65 1.67 1.65 1.67 21.35 1.67 21.35 1.67 21.35 142.32 21.35 142.32 21.35 142.32 21.35 142.32 1.65 142.32 1.65ZM 19.9 5.43C 19.9 5.43 19.9 17.57 19.9 17.57 19.9 17.57 17.97 17.57 17.97 17.57 17.97 17.57 17.97 10.57 17.97 10.57 17.97 10.57 14.16 15.02 14.16 15.02 14.16 15.02 10.33 10.57 10.33 10.57 10.33 10.57 10.33 17.57 10.33 17.57 10.33 17.57 8.43 17.57 8.43 17.57 8.43 17.57 8.43 5.43 8.43 5.43 8.43 5.43 14.16 12.09 14.16 12.09 14.16 12.09 19.9 5.43 19.9 5.43ZM 30.25 5.43C 31.86 5.43 32.8 6.08 33.29 6.64 33.93 7.34 34.27 8.33 34.27 9.45 34.27 10.57 33.93 11.55 33.29 12.25 32.99 12.58 32.53 12.96 31.88 13.19 31.88 13.19 35.16 17.57 35.16 17.57 35.16 17.57 33.01 17.57 33.01 17.57 33.01 17.57 29.94 13.46 29.94 13.46 29.94 13.46 28.54 13.46 28.54 13.46 28.54 13.46 28.54 17.57 28.54 17.57 28.54 17.57 26.63 17.57 26.63 17.57 26.63 17.57 26.63 5.43 26.63 5.43 26.63 5.43 28.24 5.43 28.24 5.43 28.24 5.43 30.25 5.43 30.25 5.43ZM 28.54 11.76C 28.54 11.76 30.25 11.76 30.25 11.76 31.04 11.76 31.63 11.54 32.01 11.11 32.47 10.62 32.55 9.93 32.55 9.45 32.55 8.97 32.47 8.28 32.01 7.78 31.63 7.36 31.04 7.15 30.25 7.15 30.25 7.15 28.54 7.15 28.54 7.15 28.54 7.15 28.54 11.76 28.54 11.76ZM 41.62 15.28C 42.24 15.28 42.77 15.81 42.77 16.43 42.77 17.07 42.24 17.57 41.62 17.57 40.98 17.57 40.47 17.07 40.47 16.43 40.47 15.81 40.98 15.28 41.62 15.28ZM 52.51 5.43C 53.85 5.43 54.63 5.97 55.06 6.44 55.59 7.04 55.88 7.84 55.88 8.77 55.88 9.62 55.65 10.36 55.21 10.93 55.5 11.11 55.73 11.31 55.9 11.5 56.47 12.14 56.78 12.99 56.78 13.99 56.78 15 56.47 15.85 55.9 16.49 55.46 16.98 54.62 17.57 53.19 17.57 53.19 17.57 50.74 17.57 50.74 17.57 50.74 17.57 49.03 17.57 49.03 17.57 49.03 17.57 49.03 5.43 49.03 5.43 49.03 5.43 50.94 5.43 50.94 5.43 50.94 5.43 52.51 5.43 52.51 5.43ZM 50.94 15.85C 50.94 15.85 53.19 15.85 53.19 15.85 53.83 15.85 54.32 15.69 54.63 15.35 55 14.95 55.06 14.4 55.06 13.99 55.06 13.59 55 13.04 54.63 12.64 54.32 12.3 53.83 12.14 53.19 12.14 53.19 12.14 50.94 12.14 50.94 12.14 50.94 12.14 50.94 15.85 50.94 15.85ZM 50.94 10.42C 50.94 10.42 52.51 10.42 52.51 10.42 53.09 10.42 53.5 10.26 53.78 9.96 54.09 9.62 54.16 9.13 54.16 8.77 54.16 8.42 54.09 7.93 53.78 7.59 53.5 7.29 53.09 7.13 52.51 7.13 52.51 7.13 50.94 7.13 50.94 7.13 50.94 7.13 50.94 10.42 50.94 10.42ZM 66.37 5.43C 67.98 5.43 68.91 6.08 69.41 6.64 70.05 7.34 70.39 8.33 70.39 9.45 70.39 10.57 70.05 11.55 69.41 12.25 69.11 12.58 68.65 12.96 67.99 13.19 67.99 13.19 71.28 17.57 71.28 17.57 71.28 17.57 69.13 17.57 69.13 17.57 69.13 17.57 66.06 13.46 66.06 13.46 66.06 13.46 64.66 13.46 64.66 13.46 64.66 13.46 64.66 17.57 64.66 17.57 64.66 17.57 62.75 17.57 62.75 17.57 62.75 17.57 62.75 5.43 62.75 5.43 62.75 5.43 64.36 5.43 64.36 5.43 64.36 5.43 66.37 5.43 66.37 5.43ZM 64.66 11.76C 64.66 11.76 66.37 11.76 66.37 11.76 67.16 11.76 67.75 11.54 68.12 11.11 68.58 10.62 68.67 9.93 68.67 9.45 68.67 8.97 68.58 8.28 68.12 7.78 67.75 7.36 67.16 7.15 66.37 7.15 66.37 7.15 64.66 7.15 64.66 7.15 64.66 7.15 64.66 11.76 64.66 11.76ZM 78.36 7.2C 78.92 6.64 79.56 6.21 80.3 5.91 81.04 5.59 81.85 5.43 82.67 5.43 83.49 5.43 84.29 5.59 85.05 5.91 85.77 6.21 86.41 6.64 86.99 7.2 87.54 7.77 87.97 8.41 88.28 9.13 88.6 9.88 88.76 10.68 88.76 11.5 88.76 12.32 88.6 13.12 88.28 13.86 87.97 14.59 87.54 15.23 86.99 15.79 86.41 16.34 85.77 16.79 85.05 17.1 84.29 17.41 83.49 17.57 82.67 17.57 81.85 17.57 81.04 17.41 80.3 17.1 79.56 16.79 78.92 16.34 78.36 15.79 77.8 15.23 77.36 14.59 77.05 13.86 76.73 13.12 76.57 12.32 76.57 11.5 76.57 10.68 76.73 9.88 77.05 9.13 77.36 8.41 77.8 7.77 78.36 7.2ZM 79.71 14.45C 80.5 15.23 81.55 15.67 82.67 15.67 83.78 15.67 84.83 15.23 85.62 14.45 86.41 13.66 86.86 12.61 86.86 11.5 86.86 10.39 86.41 9.34 85.62 8.56 84.83 7.77 83.78 7.33 82.67 7.33 81.55 7.33 80.5 7.77 79.71 8.56 78.92 9.34 78.47 10.39 78.47 11.5 78.47 12.61 78.92 13.66 79.71 14.45ZM 96.24 7.2C 96.8 6.64 97.44 6.21 98.18 5.91 98.92 5.59 99.72 5.43 100.54 5.43 101.37 5.43 102.17 5.59 102.93 5.91 103.65 6.21 104.29 6.64 104.87 7.2 105.42 7.77 105.85 8.41 106.16 9.13 106.47 9.88 106.64 10.68 106.64 11.5 106.64 12.32 106.47 13.12 106.16 13.86 105.85 14.59 105.42 15.23 104.87 15.79 104.29 16.34 103.65 16.79 102.93 17.1 102.17 17.41 101.37 17.57 100.54 17.57 99.72 17.57 98.92 17.41 98.18 17.1 97.44 16.79 96.8 16.34 96.24 15.79 95.68 15.23 95.24 14.59 94.93 13.86 94.61 13.12 94.45 12.32 94.45 11.5 94.45 10.68 94.61 9.88 94.93 9.13 95.24 8.41 95.68 7.77 96.24 7.2ZM 97.58 14.45C 98.38 15.23 99.43 15.67 100.54 15.67 101.66 15.67 102.71 15.23 103.5 14.45 104.29 13.66 104.73 12.61 104.73 11.5 104.73 10.39 104.29 9.34 103.5 8.56 102.71 7.77 101.66 7.33 100.54 7.33 99.43 7.33 98.38 7.77 97.58 8.56 96.8 9.34 96.36 10.39 96.36 11.5 96.36 12.61 96.8 13.66 97.58 14.45ZM 114.79 10.44C 114.79 10.44 118.7 5.43 118.7 5.43 118.7 5.43 121.1 5.43 121.1 5.43 121.1 5.43 116.63 11.27 116.63 11.27 116.63 11.27 122.01 17.57 122.01 17.57 122.01 17.57 119.62 17.57 119.62 17.57 119.62 17.57 114.79 12.07 114.79 12.07 114.79 12.07 114.79 17.57 114.79 17.57 114.79 17.57 112.89 17.57 112.89 17.57 112.89 17.57 112.89 5.43 112.89 5.43 112.89 5.43 114.79 5.43 114.79 5.43 114.79 5.43 114.79 10.44 114.79 10.44ZM 130.9 15.75C 131.62 15.82 132.28 15.66 132.8 15.31 133.51 14.86 133.87 14.1 133.72 13.45 133.54 12.68 132.67 12.16 131.35 11.99 130.4 11.88 129.6 11.58 128.97 11.13 128.38 10.66 127.95 10.08 127.77 9.41 127.61 8.82 127.64 8.19 127.85 7.61 128.05 7.02 128.43 6.51 128.92 6.13 129.53 5.68 130.27 5.43 131.09 5.43 131.97 5.43 132.87 5.71 133.79 6.25 133.79 6.25 132.88 7.78 132.88 7.78 132.24 7.43 131.64 7.23 131.09 7.23 130.68 7.23 130.31 7.34 130.03 7.56 129.81 7.72 129.65 7.95 129.55 8.19 129.46 8.44 129.45 8.7 129.51 8.93 129.71 9.6 130.45 10.08 131.57 10.21 132.64 10.34 133.52 10.65 134.2 11.16 134.85 11.65 135.3 12.29 135.48 13.02 135.64 13.73 135.56 14.46 135.25 15.15 134.94 15.82 134.45 16.39 133.8 16.82 133.05 17.31 132.16 17.57 131.21 17.57 131.06 17.57 130.9 17.56 130.75 17.56 129.5 17.44 128.22 16.93 126.95 16 126.95 16 128.02 14.56 128.02 14.56 129.02 15.28 129.98 15.67 130.9 15.75Z" fill="rgb(237,197,153)"/></svg>