<?xml version="1.0" encoding="utf-8"?>
<!-- Generator: Adobe Illustrator 19.0.0, SVG Export Plug-In . SVG Version: 6.00 Build 0)  -->
<svg version="1.1" xmlns="http://www.w3.org/2000/svg" xmlns:xlink="http://www.w3.org/1999/xlink" x="0px" y="0px"
	 viewBox="-469 280.7 308.2 318" style="enable-background:new -469 280.7 308.2 318;" xml:space="preserve">
<style type="text/css">
	.st0{fill:#519E38;}
	.st1{fill:#F4F4F4;}
	.st2{fill:#D6D6D6;}
	.st3{fill:#EAEAEA;}
	.st4{fill:#FFFFFF;}
	.st5{fill:#EC5439;}
	.st6{fill:#62BA47;}
	.st7{fill:#62BA46;}
	.st8{fill:url(#SVGID_1_);}
	.st9{fill:url(#SVGID_2_);}
	.st10{fill:url(#SVGID_3_);}
	.st11{fill:url(#SVGID_4_);}
	.st12{fill:url(#SVGID_5_);}
</style>
<g id="bottle">
	<g id="Layer_2">
	</g>
	<g id="kolba_4">
	</g>
	<g id="kolba_3">
	</g>
	<g id="kolby">
	</g>
	<g id="doma">
	</g>
	<g id="car">
	</g>
	<g id="butylka_3">
	</g>
	<g id="butylka_2">
		<g>
			<path class="st0" d="M-275.1,526.3c0,0,0-64.5,0-99.6s-14.6-48.4-14.6-48.4c3.9-21.7-6.5-28.2-6.5-28.2v-7.8h2.2
				c0,0,0-8.4,0-11.2c0-2.8-3.9-2.5-3.9-2.5h-14.3h-1.3h-14.3c0,0-3.9-0.3-3.9,2.5c0,2.8,0,11.2,0,11.2h2.3v7.8h-0.1
				c0,0-10.4,6.5-6.5,28.2c0,0-14.6,13.4-14.6,48.4s0,99.6,0,99.6s-1.5,21.4,14.3,21.4c4.3,0,7.8,0,10.8,0c8.1,0,11.8,0,11.8,0h0.7
				h0.8h0.1h11.7h0.1c3,0,6.5,0,10.8,0c0,0,0,0,0.1,0C-273.6,547.7-275.1,526.3-275.1,526.3z"/>
			<path class="st1" d="M-282.8,521.3c0,0,0-64.5,0-99.6s-14.6-48.4-14.6-48.4c3.9-21.7-6.5-28.2-6.5-28.2v-8h-33v8h-0.1
				c0,0-10.4,6.5-6.5,28.2c0,0-14.6,13.4-14.6,48.4c0,35.1,0,99.6,0,99.6s-1.5,21.4,14.3,21.4c4.3,0,7.8,0,10.8,0
				c8.1,0,11.8,0,11.8,0h1.6h11.8c3,0,6.6,0,10.8,0C-281.3,542.7-282.8,521.3-282.8,521.3z"/>
			<path class="st2" d="M-305.5,323.6h-14.3h-1.3h-14.3c0,0-3.9-0.3-3.9,2.5c0,2.8,0,11.2,0,11.2h18.1h1.3h18.1c0,0,0-8.4,0-11.2
				C-301.6,323.3-305.5,323.6-305.5,323.6z"/>
			<path class="st3" d="M-282.8,521.3c0,0,0-64.5,0-99.6s-14.6-48.4-14.6-48.4c3.9-21.7-6.5-28.2-6.5-28.2v-8h-16.6v205.6h0.8h11.8
				c3,0,6.6,0,10.8,0C-281.3,542.7-282.8,521.3-282.8,521.3z"/>
			<path class="st4" d="M-345.8,410.2c-0.2,0-0.4,0-0.5,0c-2.3-0.3-3.9-2.4-3.6-4.7c1.9-14.4,8.8-23.1,9.1-23.5
				c1.4-1.8,4.1-2.1,5.9-0.6c1.8,1.4,2.1,4.1,0.6,5.8c-0.1,0.1-5.8,7.4-7.4,19.3C-342,408.7-343.7,410.2-345.8,410.2z"/>
		</g>
		<g>
			<circle class="st5" cx="-320.8" cy="461" r="19.7"/>
			<circle class="st6" cx="-336.5" cy="478.5" r="6.2"/>
			<g>
				<path class="st4" d="M-340.7,477.5c0.2-0.6,0.7-0.2,0.8,0.1c0.2,0.4,0,0.9-0.3,1.2c-0.2,0.3-0.5,0.5-0.8,0.7
					c-0.2,0.1-0.3,0.2-0.4,0.3c0,0.1-0.1,0.2,0,0.2c0.2,0.2,0.7,0.2,0.9,0.2c0.5,0,1,0,1.4-0.2c0.2-0.1,0.5-0.7,0-0.5
					c-0.3,0.2-0.7,0.1-1.1,0.1c-0.2,0-0.6,0-0.7-0.1c0,0.1,0,0.2,0,0.2c-0.2,0.3-0.1,0.2,0.1,0.1c0.1-0.1,0.3-0.2,0.4-0.3
					c0.2-0.2,0.4-0.4,0.6-0.7c0.4-0.5,0.6-1,0.5-1.6c-0.2-1.3-1.7-0.4-2,0.4C-341.4,478.1-340.8,477.7-340.7,477.5L-340.7,477.5z"/>
				<path class="st4" d="M-337.2,479.7c0.5,1.5,2.7,0.5,2.4-0.9c-0.2-0.7-0.9-0.6-1.5-0.7c-0.3-0.1-0.3-0.3-0.3-0.6
					c0.1-0.3,0.1-0.3-0.1-0.1c0.1,0,0.2,0,0.3-0.1c0.5-0.1,1-0.1,1.4,0.1c0.2,0.1,0.7-0.4,0.4-0.5c-0.5-0.3-1.2-0.2-1.8-0.1
					s-0.7,0.6-0.7,1.1c0,0.6,0.6,0.7,1.1,0.8c0.4,0.1,0.7,0.2,0.7,0.6c0.1,0.7-0.7,0.6-1,0.4c-0.2-0.1-0.2-0.3-0.3-0.5
					C-336.8,479.1-337.3,479.5-337.2,479.7L-337.2,479.7z"/>
				<g>
					<path class="st4" d="M-332,477c-0.6,1.1-1.4,2-2.2,3c-0.3,0.4,0.2,0.4,0.4,0.1c0.8-1,1.6-2.1,2.3-3.2
						C-331.2,476.5-331.9,476.8-332,477L-332,477z"/>
					<path class="st4" d="M-333.2,476.7c-0.4,0-0.7,0.4-0.7,0.7c-0.1,0.3,0.1,0.6,0.5,0.6C-332.7,478.1-332.3,476.8-333.2,476.7
						c-0.2,0-0.5,0.4-0.2,0.4c0.2,0,0.3,0.2,0.3,0.3s0,0.1,0,0.2c0,0.1,0,0,0,0h-0.1c-0.2,0-0.3-0.2-0.3-0.3s0-0.1,0-0.2l0,0h0.1
						C-333.3,477.1-333,476.7-333.2,476.7z"/>
					<path class="st4" d="M-332.1,479c-0.4,0-0.7,0.4-0.7,0.7c-0.1,0.3,0.1,0.6,0.5,0.6C-331.6,480.4-331.2,479-332.1,479
						c-0.2,0-0.5,0.4-0.2,0.4c0.2,0,0.3,0.2,0.3,0.3s0,0.1,0,0.2s0,0,0,0h-0.1c-0.2,0-0.3-0.2-0.3-0.3s0-0.1,0-0.2l0,0h0.1
						C-332.2,479.4-331.9,478.9-332.1,479z"/>
				</g>
				<path class="st4" d="M-338.1,481.1c0.3-0.2,0.5-0.6,0.5-1c0-0.1,0-0.3-0.1-0.3c-0.1-0.1-0.4,0-0.5,0c-0.2,0.1-0.3,0.3-0.3,0.4
					c0,0.2,0.2,0.1,0.3,0.1l0,0l0,0c0,0.1,0,0.1,0,0.1c0,0.1,0,0.1-0.1,0.2c0,0,0,0,0,0.1l0,0c0,0,0,0,0,0.1c0.1-0.1,0,0,0,0
					c-0.1,0.1-0.3,0.3-0.1,0.4C-338.4,481.3-338.2,481.1-338.1,481.1L-338.1,481.1z"/>
			</g>
			<path class="st5" d="M-330.1,436.8c0,1.4-1.1,2.5-2.5,2.5s-2.5-1.1-2.5-2.5s1.1-2.5,2.5-2.5S-330.1,435.4-330.1,436.8
				L-330.1,436.8z"/>
			<path class="st6" d="M-330,445.3c0,1.8-1.4,3.2-3.2,3.2c-1.8,0-3.2-1.4-3.2-3.2c0-1.8,1.5-3.2,3.2-3.2
				C-331.4,442.1-330,443.5-330,445.3L-330,445.3z"/>
			<path class="st6" d="M-338.7,440.3c0,1.1-0.9,1.9-1.9,1.9c-1.1,0-1.9-0.9-1.9-1.9c0-1.1,0.9-1.9,1.9-1.9
				C-339.5,438.4-338.7,439.3-338.7,440.3L-338.7,440.3z"/>
			<g>
				<circle class="st6" cx="-303.9" cy="443" r="10.9"/>
				<g>
					<path class="st4" d="M-306.6,441.4c-0.9,0.1-1.1,1.2-1.2,1.9l0,0l0,0c0,0.1,0,0.2,0,0.3c0,0.4,0,0.6-0.1,1
						c0,0.1-0.1,0.4-0.1,0.4c-0.3,0-0.6-0.5-0.7-0.7c-0.2-0.6-0.4-1.1-0.5-1.7s-0.2-1.3-0.2-1.9c0-0.3,0-0.5,0-0.8
						c0-0.1,0-0.2,0-0.3s0-0.2,0-0.2c0.1-0.5-0.6,0-0.7,0.2c-0.7,1.3-0.5,2.8-0.5,4.1c0,0.4,0,0.7-0.1,1.1c0,0.3-0.1,0.7-0.3,0.9
						c-0.1,0.1-0.4,0-0.5,0c-0.2-0.1-0.3-0.3-0.3-0.5c0-0.2-0.3-0.1-0.4,0c-0.2,0.2-0.3,0.4-0.3,0.6c0.1,0.5,0.5,0.9,1,0.8
						c0.8-0.2,1.2-1.2,1.4-2c0.1-0.4,0.1-0.7,0.2-1.1c0.1,0.5,0.3,1.1,0.5,1.6c0.2,0.4,0.5,0.7,1,0.6c0.3-0.1,0.6-0.4,0.7-0.8
						c0.2,0.4,0.4,0.6,0.8,0.6c0.5,0,0.8-0.5,1-0.9s0.3-0.9,0.2-1.4C-305.5,442.7-305.7,441.3-306.6,441.4z M-306.3,444.6
						c0,0.1,0,0.2-0.1,0.3c-0.2,0-0.3-0.3-0.4-0.4c-0.1-0.3-0.2-0.6-0.2-1c0-0.3,0-0.7,0-1c0-0.1,0-0.2,0.1-0.3
						c0.5,0.3,0.5,0.9,0.6,1.3C-306.3,443.9-306.3,444.2-306.3,444.6z"/>
					<path class="st4" d="M-295.8,442.7c-1-0.4-1.5,1-1.7,1.7c-0.2,0.7-0.4,1.9,0.5,2.2c0.4,0.2,0.9-0.1,1.1-0.4
						c0.3-0.3,0.5-0.8,0.6-1.2C-295.1,444.3-294.9,443.1-295.8,442.7z M-296.4,445.8c0,0.1-0.1,0.2-0.1,0.2
						c-0.1-0.1-0.2-0.4-0.2-0.5c-0.1-0.3,0-0.7,0-1c0.1-0.3,0.2-0.7,0.3-1c0-0.1,0.1-0.1,0.1-0.2c0.4,0.4,0.3,1,0.2,1.5
						C-296.2,445.2-296.2,445.5-296.4,445.8z"/>
					<path class="st4" d="M-298.4,442.9c0.2-0.2,0.4-0.5,0.5-0.8c0.4-0.5,0.7-1.2,0.7-1.8s-0.9-0.7-1.3-0.5c-0.6,0.3-1,1-1.2,1.6
						c-0.2,0.8-0.4,1.7-0.4,2.5l0,0c-0.3,0.4-0.9,1.1-1.4,0.8c-0.1-0.1-0.2-0.2-0.2-0.4c0.4-0.4,0.8-0.9,1.1-1.3s0.5-1.2-0.1-1.5
						c-0.5-0.3-1.1,0-1.4,0.4s-0.5,0.9-0.5,1.4c0,0.3-0.1,0.7,0,1.1c-0.3,0.2-0.6,0.3-1,0.2s-0.5-0.5-0.6-0.8
						c-0.1-0.4-0.1-0.9,0-1.4c0-0.1,0.1-0.3,0.1-0.4v-0.1c0.2,0.1,0.3,0.4,0.4,0.6c0.1,0.3,0.9-0.2,0.8-0.5
						c-0.1-0.3-0.2-0.6-0.6-0.8c-0.3-0.2-0.8,0.1-1,0.3c-0.6,0.6-0.7,1.5-0.6,2.2c0,0.5,0.1,1.1,0.6,1.4c0.6,0.4,1.4,0,2-0.3
						c0.1,0.4,0.4,0.6,0.9,0.6c0.6-0.1,1.1-0.4,1.5-0.8c0,0.4,0.1,0.9,0.4,1.1c0.5,0.3,1.1,0,1.5-0.5c0.4-0.6,0.7-1.4,0.4-2
						C-297.9,443-298.2,442.9-298.4,442.9z M-301.7,442.5c0-0.1,0.1-0.2,0.2-0.4l0,0c0.2,0.1,0.3,0.4,0.2,0.5c0,0.4-0.3,0.7-0.6,1
						c0-0.1,0-0.1,0-0.2C-301.9,443.2-301.8,442.9-301.7,442.5z M-298.6,440.7c0.1-0.1,0.1-0.3,0.2-0.4l0,0c0.4,0.4,0,1-0.2,1.4
						s-0.4,0.8-0.7,1.1c0.1-0.4,0.1-0.7,0.2-1.1C-298.9,441.4-298.8,441.1-298.6,440.7z M-298.8,445.2c0,0-0.1,0.1-0.1,0.2h-0.1
						c-0.2-0.1-0.3-0.7-0.3-0.8c0-0.2,0-0.4,0-0.6c0.1-0.1,0.2-0.2,0.3-0.3c0.2-0.1,0.4,0.1,0.4,0.4
						C-298.5,444.3-298.6,444.8-298.8,445.2z"/>
				</g>
			</g>
			<g>
				<g>
					<g>
						<path class="st4" d="M-305.4,464.8c-0.3-0.1-0.7,0.1-0.9,0.3c-0.2-0.4,0.1-1.4,0.2-1.9c0.3-1.5,0.3-2.6,0.1-3
							c-0.3-0.4-0.9-0.2-1.2-0.1c-0.2,0.1-0.4,0.2-0.5,0.4c0-0.3-0.1-0.6-0.3-0.9c-0.2-0.3-0.7-0.3-1-0.2c-0.2,0.1-0.4,0.2-0.6,0.3
							c0-0.1,0-0.3,0-0.4c0-0.1,0-0.2,0-0.2l-0.1-0.1c-0.1,0-0.1,0-0.2,0c-0.2,0-0.4,0.1-0.6,0.2c-0.1,0.1-0.2,0.2-0.3,0.3
							c-0.2,0.3-0.6,0.2-1,0c-0.3-0.2-0.4-0.4-0.6-0.7c-0.1-0.1-0.2-0.3-0.4-0.4c-0.5-0.3-1-0.2-1.5,0c0-0.4,0-0.7-0.1-1.1
							c0-0.3-0.6-0.1-0.7-0.1c-0.2,0.1-0.5,0.3-0.5,0.5c0,0-0.5,1.8-1.5,3.1c0.1-1,0.1-1.9,0.2-2.9c0-0.2-0.1-0.2-0.2-0.2
							s-0.3,0-0.4,0c-0.3,0.1-0.6,0.4-0.7,0.7c-0.2,1.3-0.4,4.1-1.1,4.1c-0.8,0-0.4-3.3-0.3-4.8c0-0.2-0.1-0.2-0.3-0.2
							c-0.1,0-0.2,0-0.3,0.1c-0.3,0.1-0.6,0.4-0.7,0.7c-0.2,0.9-0.4,1.9-0.7,2.8c-0.2,0.5-0.5,1.4-1.1,1.4s-0.6-0.7-0.5-1.1
							c0.1-0.5,0.5-0.9,0.8-1.3c0.4-0.5,0.5-0.9,0.6-1.3c0.1-0.6-0.3-1.1-1-1.2c-0.7-0.1-1.3,0.4-1.7,0.8c-0.1,0.1-0.3,0.2-0.5,0.3
							c-0.5,0.1-0.9-0.3-1-0.4c-0.2-0.1-0.5-0.3-0.9-0.2c-1.4,0.5-1.7,2.1-1.6,3.4c0.1,0.9,0,1.5-0.1,1.8c-0.4,0.1-0.8-0.6-1-0.9
							c-0.4-0.8-0.5-1.6-0.6-2.5c-0.1-1.2-0.1-2.4-0.2-3.6c0-0.4-0.5-0.2-0.7,0c-0.3,0.2-0.6,0.7-0.6,1c0.1,1.5,0.2,3,0.2,4.4
							c0,0.7,0,1.5-0.2,2.2c-0.1,0.3-0.3,0.4-0.5,0.3c-0.5-0.1-0.7-0.7-0.8-1.1c-0.2-0.7-0.3-1.4-0.3-2.2c0-0.7-0.1-1.5-0.1-2.2
							c0-0.5,0-1-0.3-1.4c-0.4-0.7-1.6,0.5-2,0.9c-0.6,0.7-0.9,1.7-0.9,2.5c0,0.3,0.2,0.4,0.5,0.2c0.3-0.2,0.6-0.7,0.7-1
							c0-0.3,0.1-1.1,0.5-1.3l0,0l0,0c0,0,0,0,0.1,0.1s0.1,0.4,0.1,0.6c0.2,1.4,0.2,2.9,0.4,4.3c0.2,1,0.6,2.5,2,2.1
							c0.8-0.2,1.3-1.1,1.5-1.7v-0.1c0.4,0.7,0.9,1.2,1.7,1c0.6-0.1,0.8-0.7,1-1.2c0.2,0.5,0.6,0.8,1.2,0.7c0.7-0.1,1.2-0.8,1.4-1.3
							c0.3-0.6,0.3-1.3,0.3-2c0-0.3-0.1-0.7-0.2-1.2c0.2,0,0.3-0.1,0.5-0.2c0.3-0.2,0.6-0.6,1-0.7c0.1,0,0.3-0.1,0.5,0
							c1,0.5-0.4,1.5-0.9,2.4c-0.3,0.6-0.6,1.6-0.1,2.1c0.8,0.9,2.3,0.2,3-0.6c0.2-0.2,0.3-0.4,0.5-0.7c0,0.7,0.2,1.6,1.2,1.5
							c0.5,0,0.8-0.2,1.2-0.5c-0.4,0.7-0.9,1.4-1.2,2.1c-0.3,0.6-0.6,1.3-0.6,2c0,0.8,0.9,1.2,1.6,0.8c0.7-0.3,1.1-1.1,1.3-1.8
							c0.3-1.2,0.3-2.5,0.3-3.8c0.6-0.9,1.1-1.7,1.6-2.8c0,1.3-0.1,2.6-0.2,3.8c-0.1,1.4-0.3,2.8-0.5,4.2c-0.1,0.3,0.3,0.3,0.5,0.2
							c0.3-0.1,0.6-0.3,0.6-0.6c0.2-1,0.4-2.1,0.5-3.2c0.4,0.1,0.9-0.1,1.3-0.3c0.9-0.6,1.2-1.7,1.3-2.7c0-0.1,0-0.3,0-0.5
							c0.4,0.1,0.8,0,1.2-0.1c-0.2,1.3-0.4,2.7-0.6,4c-0.1,0.6,1.1,0.1,1.2-0.3c0.2-1.2,0.6-2.4,1.1-3.4c0-0.1,0.1-0.2,0.1-0.3l0,0
							c0.2,0.7,0,1.5-0.1,2.2c-0.1,0.3-0.1,0.7-0.2,1c-0.1,0.4-0.2,0.8-0.3,1.2c-0.1,0.6,1.1,0.1,1.2-0.2c0.1-0.4,0.2-0.7,0.3-1.1
							c0.2-0.9,0.6-1.8,1.1-2.5c0.1,0.4,0,0.9,0,1.3c-0.1,0.6-0.2,1.2-0.3,1.7c-0.1,0.4-0.2,0.9-0.1,1.4c0.3,1,1.7,0.2,2.1-0.1
							C-305.2,465.2-305.1,464.9-305.4,464.8z M-326.3,462.6c0,0.1-0.1,0.3-0.1,0.4c-0.3,0-0.5-0.4-0.5-0.6
							c-0.2-0.4-0.3-0.9-0.4-1.4c-0.1-0.5-0.1-1,0-1.5c0-0.1,0.1-0.3,0.1-0.4c0.1,0,0.2,0.1,0.3,0.2c0.3,0.4,0.6,1.4,0.6,1.7
							C-326.3,461.6-326.3,462.2-326.3,462.6z M-318.4,465.1c0,0.5-0.1,1.1-0.2,1.6c0,0.1-0.1,0.3-0.1,0.4c0,0-0.2,0-0.4-0.2
							c-0.3-0.3-0.1-0.8,0-1.1c0.2-0.5,0.4-1,0.7-1.5C-318.4,464.6-318.4,464.8-318.4,465.1z M-313.8,463.1L-313.8,463.1
							c-0.1,0.1-0.1,0.1-0.1,0.1c-0.4,0-0.6-0.5-0.6-0.9c0.1-0.8,0.1-1.6,0.2-2.3l0,0c0-0.2,0.1-0.5,0.2-0.7l0,0l0,0
							c0.2,0,0.3,0.2,0.4,0.3c0.3,0.5,0.4,1.2,0.4,1.8C-313.4,461.8-313.5,462.6-313.8,463.1z"/>
						<path class="st4" d="M-332.8,456.1c0.8-0.3,1.4-1,1.8-1.6c0.1-0.2,0.5-0.6,0.2-0.8c-0.3-0.1-0.7,0.3-0.8,0.4
							c-0.2,0.2-0.4,0.6-0.7,0.7c-0.4,0.1-0.7,0.1-0.9-0.1c-0.4-0.4-1.4,0.8-1.1,1.1C-333.9,456.3-333.4,456.3-332.8,456.1z"/>
					</g>
				</g>
			</g>
			<g>
				<path class="st7" d="M-344.7,452.6c-0.1,0-0.2-0.2-0.3-0.2c-0.4-0.1-0.7,0.1-1.1,0.1c-0.9,0-1.3,0-2.4-0.3c0-1,0.6-1.6,0.8-2.3
					c0.2-0.7-0.1-1.4-0.1-2.2c0-0.5,0-0.9,0-1.4c-0.3,0.3-0.2,1.2-0.2,1.6c-0.1-0.6-0.1-1.3-0.3-1.8c-0.1,0.6,0,1.3,0,1.8
					c-0.2-0.5-0.2-1.1-0.4-1.6c-0.3,0.5,0.2,1.3,0.1,1.8c-0.2-0.5-0.3-1-0.5-1.4c-0.1,0.6,0.2,1.1,0.2,1.6c-0.2-0.4-0.3-0.8-0.6-1.1
					c0,0.4,0.3,0.9,0.4,1.3c-0.3-0.1-0.3-0.5-0.6-0.6c0,0.3,0.3,0.5,0.4,0.7c-0.2-0.1-0.3-0.3-0.5-0.4c0,0.3,0.3,0.4,0.3,0.6
					c-0.1-0.1-0.2-0.2-0.4-0.3c0,0.2,0.3,0.4,0.3,0.5c0,0-0.2-0.1-0.2,0c0,0,0.2,0.1,0.1,0.2c-0.1,0-0.1,0-0.2,0
					c0,0.2,0.2,0.1,0.1,0.3c-0.1,0-0.1-0.1-0.1,0s0.1,0.1,0.1,0.2c-0.8,0.8-0.4,1.7-0.5,2.7c0.1-0.1-0.7-0.3-1.2-0.5
					c-0.3-0.1-0.4-0.5-0.6-0.6c0-0.1,0.1,0,0.1-0.1c-0.1,0-0.2-0.1-0.2-0.2c0.1,0,0.3,0.1,0.3,0c-0.1-0.1-0.5-0.2-0.5-0.3
					c0.2,0,0.4,0.1,0.5,0.1c-0.2-0.1-0.6-0.3-0.6-0.5c0.2,0.1,0.5,0.3,0.7,0.2c-0.3-0.2-0.8-0.4-0.9-0.7c0.2,0.1,0.6,0.4,0.8,0.4
					c-0.4-0.1-0.7-0.6-1.1-0.6c0.2,0.4,0.8,0.6,0.9,0.8c-0.3-0.2-0.6-0.3-0.9-0.5c0.1,0.4,0.6,0.5,0.9,0.7c-0.3,0-0.5-0.2-0.8-0.2
					c0.1,0.3,0.6,0.2,0.7,0.5c-0.1-0.1-0.3,0-0.5,0c0,0.2,0.4,0.2,0.5,0.3c-0.2,0-0.3,0-0.4,0.1c0.1,0.1,0.3,0.1,0.4,0.2
					c-0.1,0-0.2,0-0.2,0.1s0.3,0,0.3,0.1c-0.1,0-0.1,0.1-0.1,0.1c0.1,0,0.2,0,0.2,0c-0.1,0-0.1,0-0.1,0.1c0.4,0.2,0.7,0.9,1.3,1.1
					c-0.3,0.2,0.3,0.4-3.5,1.8c0.1,0,1.7-0.4,2.1-0.5c0.5-0.2,0.9-0.3,1.4-0.4c0.1,0,0.2-0.1,0.3-0.1c0.8-0.1,1.5,0.1,2.3-0.4
					c-0.6,0.1-1.6,0.2-2-0.1c0.5-0.8,0.2-2.8,0.6-3.3c0.4-0.4,1-1.7,1.8-0.6c0.1,0.2,0.1,0.4-0.1,0.9c-0.3,0.6-0.6,0.8-0.5,2.1
					c0,0.2,0,0.5-0.4,0.5c1.6,0.3,2.1,0.2,3.1,0c0.3,0,0.8-0.3,0.8,0c0,0.1-0.3,0.1-0.6,0.1c-0.5,0,0.2,0.2,0.4,0.2
					c0.1,0,1-0.1,1.4-0.2C-344.2,452.7-344.4,452.7-344.7,452.6z"/>
				<path class="st7" d="M-349.5,444.2c-3.8,0-6.8,3.1-6.8,6.8c0,3.7,3.1,6.8,6.8,6.8s6.8-3.1,6.8-6.8
					C-342.7,447.3-345.7,444.2-349.5,444.2 M-349.5,444.5c3.6,0,6.6,2.9,6.6,6.6c0,3.6-2.9,6.6-6.6,6.6c-3.6,0-6.6-2.9-6.6-6.6
					S-353.1,444.5-349.5,444.5"/>
			</g>
		</g>
	</g>
	<g id="butylka_1">
	</g>
	<g id="vanna_2">
	</g>
	<g id="sneg">
		<g>
			
				<linearGradient id="SVGID_1_" gradientUnits="userSpaceOnUse" x1="-236.0029" y1="524.5466" x2="-218.2272" y2="474.1822" gradientTransform="matrix(1 0 0 -1 0 880.22)">
				<stop  offset="0" style="stop-color:#404B71"/>
				<stop  offset="0.6044" style="stop-color:#3C476E"/>
				<stop  offset="1" style="stop-color:#354169"/>
			</linearGradient>
			<path class="st8" d="M-231.8,401.1l-1.9-7.1l1.7-3l0.2,0.9c0.3,0.9,1.2,1.5,2.2,1.2c0.2,0,0.3-0.1,0.4-0.2c0.7-0.4,1-1.2,0.8-2
				l-1.1-4.3l2.1-3.7l2.1,3.7l-1.2,4.3c-0.3,0.9,0.3,1.9,1.2,2.2c0.5,0.1,0.9,0,1.3-0.2c0.4-0.2,0.7-0.6,0.8-1.1l0.2-0.9l1.7,3
				l-1.9,7.1c-0.3,0.9,0.3,1.9,1.2,2.2c0.5,0.1,0.9,0,1.3-0.2c0.4-0.2,0.7-0.6,0.8-1.1l1-3.7l2.8,4.8c0.5,0.8,1.6,1.1,2.4,0.6
				c0.8-0.5,1.1-1.6,0.6-2.4l-2.8-4.8l3.7,1c0.5,0.1,0.9,0,1.3-0.2c0.4-0.2,0.7-0.6,0.8-1.1c0.3-0.9-0.3-1.9-1.2-2.2l-7.1-1.9
				l-1.7-3l0.9,0.2c0.5,0.1,0.9,0.1,1.3-0.2c0.4-0.2,0.7-0.6,0.8-1.1c0.3-0.9-0.3-1.9-1.2-2.2l-4.3-1.1l-2.1-3.7h4.2l3.1,3.1
				c0.6,0.6,1.5,0.7,2.1,0.3c0.1-0.1,0.3-0.2,0.4-0.3c0.7-0.7,0.7-1.8,0-2.5l-0.6-0.6h3.5l5.2,5.2c0.6,0.6,1.5,0.7,2.1,0.3
				c0.1-0.1,0.3-0.2,0.4-0.3c0.7-0.7,0.7-1.8,0-2.5l-2.7-2.7h5.6c0.3,0,0.6-0.1,0.9-0.2c0.5-0.3,0.9-0.9,0.9-1.5
				c0-1-0.8-1.8-1.8-1.8h-5.6l2.7-2.7c0.7-0.7,0.7-1.8,0-2.5c-0.7-0.7-1.8-0.7-2.5,0l-5.2,5.2h-3l0.6-0.6c0.7-0.7,0.7-1.8,0-2.5
				c-0.7-0.7-1.8-0.7-2.5,0l-3.1,3.4h-4.2l2.1-3.7l4.3-1.1c0.2,0,0.3-0.1,0.4-0.2c0.7-0.4,1-1.2,0.8-2c-0.3-0.9-1.2-1.5-2.2-1.2
				l-0.9,0.2l1.7-3l7.1-1.9c0.2,0,0.3-0.1,0.4-0.2c0.7-0.4,1-1.2,0.8-2c-0.3-0.9-1.2-1.5-2.2-1.2l-3.7,1l2.8-4.8
				c0.5-0.8,0.2-1.9-0.6-2.4c-0.8-0.5-1.9-0.2-2.4,0.6l-2.8,4.8l-1-3.7c-0.3-0.9-1.2-1.5-2.2-1.2c-0.9,0.3-1.5,1.2-1.2,2.2l1.9,7.1
				l-1.7,3l-0.2-0.9c-0.3-0.9-1.2-1.5-2.2-1.2c-0.9,0.3-1.5,1.2-1.2,2.2l1.1,4.3l-2.1,3.7l-2.1-3.7l1.1-4.3c0.3-0.9-0.3-1.9-1.2-2.2
				c-0.9-0.3-1.9,0.3-2.2,1.2l-0.2,0.9l-1.7-3l1.9-7.1c0.3-0.9-0.3-1.9-1.2-2.2c-0.9-0.3-1.9,0.3-2.2,1.2l-1,3.7l-2.8-4.9
				c-0.5-0.8-1.6-1.1-2.4-0.6c-0.8,0.5-1.1,1.6-0.6,2.4l2.8,4.8l-3.7-1c-0.9-0.3-1.9,0.3-2.2,1.2s0.3,1.9,1.2,2.2l7.1,1.9l1.7,3
				l-0.9-0.2c-0.9-0.3-1.9,0.3-2.2,1.2s0.3,1.9,1.2,2.2l4.3,1.1l2.1,3.7h-4.2l-3.1-3.1c-0.7-0.7-1.8-0.7-2.5,0
				c-0.7,0.7-0.7,1.8,0,2.5l0.6,0.6h-3.5l-5.2-5.2c-0.7-0.7-1.8-0.7-2.5,0c-0.7,0.7-0.7,1.8,0,2.5l2.7,2.7h-5.6
				c-1,0-1.8,0.8-1.8,1.8s0.8,1.8,1.8,1.8h5.6l-2.7,2.7c-0.7,0.7-0.7,1.8,0,2.5c0.6,0.6,1.5,0.7,2.1,0.3c0.1-0.1,0.3-0.2,0.4-0.3
				l5.2-5.2h3.5l-0.6,0.6c-0.7,0.7-0.7,1.8,0,2.5c0.6,0.6,1.5,0.7,2.1,0.3c0.1-0.1,0.3-0.2,0.4-0.3l3.1-3.1h4.2l-2.1,3.7l-4.3,1.1
				c-0.9,0.3-1.5,1.2-1.2,2.2c0.3,0.9,1.2,1.5,2.2,1.2l0.9-0.2l-1.7,3l-7.1,1.9c-0.9,0.3-1.5,1.2-1.2,2.2c0.3,0.9,1.2,1.5,2.2,1.2
				l3.7-1l-2.8,4.8c-0.5,0.8-0.2,1.9,0.6,2.4c0.6,0.3,1.2,0.3,1.8,0c0.3-0.1,0.5-0.4,0.6-0.6l2.8-4.8l1,3.7c0.3,0.9,1.2,1.5,2.2,1.2
				c0.2,0,0.3-0.1,0.4-0.2C-231.9,402.7-231.6,401.9-231.8,401.1z"/>
			
				<linearGradient id="SVGID_2_" gradientUnits="userSpaceOnUse" x1="-368.1422" y1="453.4998" x2="-362.7679" y2="438.2722" gradientTransform="matrix(1 0 0 -1 0 880.22)">
				<stop  offset="0" style="stop-color:#404B71"/>
				<stop  offset="0.6044" style="stop-color:#3C476E"/>
				<stop  offset="1" style="stop-color:#354169"/>
			</linearGradient>
			<path class="st9" d="M-366.4,440.3l-0.6-2.1l0.5-0.9l0.1,0.3c0.1,0.3,0.4,0.5,0.7,0.4c0,0,0.1,0,0.1-0.1c0.2-0.1,0.3-0.4,0.2-0.6
				l-0.3-1.3l0.6-1.1l0.6,1.1l-0.3,1.3c-0.1,0.3,0.1,0.6,0.4,0.7c0.1,0,0.3,0,0.4-0.1c0.1-0.1,0.2-0.2,0.2-0.3l0.1-0.3l0.5,0.9
				l-0.6,2.1c-0.1,0.3,0.1,0.6,0.4,0.7c0.1,0,0.3,0,0.4-0.1c0.1-0.1,0.2-0.2,0.2-0.3l0.3-1.1l0.8,1.5c0.1,0.3,0.5,0.3,0.7,0.2
				c0.3-0.1,0.3-0.5,0.2-0.7l-0.8-1.5l1.1,0.3c0.1,0,0.3,0,0.4-0.1c0.1-0.1,0.2-0.2,0.2-0.3c0.1-0.3-0.1-0.6-0.4-0.7l-2.1-0.6
				l-0.5-0.9l0.3,0.1c0.1,0,0.3,0,0.4-0.1c0.1-0.1,0.2-0.2,0.2-0.3c0.1-0.3-0.1-0.6-0.4-0.7l-1.3-0.3l-0.6-1.1h1.3l0.9,0.9
				c0.2,0.2,0.4,0.2,0.6,0.1l0.1-0.1c0.2-0.2,0.2-0.5,0-0.8l-0.2-0.2h1.1l1.6,1.6c0.2,0.2,0.4,0.2,0.6,0.1c0,0,0.1,0,0.1-0.1
				c0.2-0.2,0.2-0.5,0-0.8l-0.8-0.8h1.7c0.1,0,0.2,0,0.3-0.1c0.2-0.1,0.3-0.3,0.3-0.5c0-0.3-0.2-0.5-0.5-0.5h-1.7l0.8-0.8
				c0.2-0.2,0.2-0.5,0-0.8c-0.2-0.2-0.5-0.2-0.8,0l-1.6,1.6h-1.1l0.2-0.2c0.2-0.2,0.2-0.5,0-0.8c-0.2-0.2-0.5-0.2-0.8,0l-0.9,0.9
				h-1.3l0.6-1.1l1.3-0.3c0,0,0.1,0,0.1-0.1c0.2-0.1,0.3-0.4,0.2-0.6c-0.1-0.3-0.4-0.5-0.7-0.4l-0.3,0.1l0.5-0.9l2.1-0.6
				c0,0,0.1,0,0.1-0.1c0.2-0.1,0.3-0.4,0.2-0.6c-0.1-0.3-0.4-0.5-0.7-0.4l-1.1,0.3l0.8-1.5c0.1-0.3,0.1-0.6-0.2-0.7
				c-0.3-0.1-0.6-0.1-0.7,0.2l-0.8,1.5l-0.3-1.1c-0.1-0.3-0.4-0.5-0.7-0.4c-0.3,0.1-0.5,0.4-0.4,0.7l0.6,2.1l-0.5,0.9l-0.1-0.3
				c-0.1-0.3-0.4-0.5-0.7-0.4s-0.5,0.4-0.4,0.7l0.3,1.3l-0.6,1.1l-0.6-1.1l0.3-1.3c0.1-0.3-0.1-0.6-0.4-0.7
				c-0.3-0.1-0.6,0.1-0.7,0.4l-0.1,0.3l-0.5-0.9l0.6-2.1c0.1-0.3-0.1-0.6-0.4-0.7c-0.3-0.1-0.6,0.1-0.7,0.4l-0.3,1.1l-0.8-1.5
				c-0.1-0.3-0.5-0.3-0.7-0.2c-0.3,0.1-0.3,0.5-0.2,0.7l0.8,1.5l-1.1-0.3c-0.3-0.1-0.6,0.1-0.7,0.4s0.1,0.6,0.4,0.7l2.1,0.6l0.5,0.9
				l-0.3-0.1c-0.3-0.1-0.6,0.1-0.7,0.4c-0.1,0.3,0.1,0.6,0.4,0.7l1.3,0.3l0.6,1.1h-1.3l-0.9-0.9c-0.2-0.2-0.5-0.2-0.8,0
				c-0.2,0.2-0.2,0.5,0,0.8l0.2,0.2h-1.1l-1.6-1.6c-0.2-0.2-0.5-0.2-0.8,0c-0.2,0.2-0.2,0.5,0,0.8l0.8,0.8h-1.7
				c-0.3,0-0.5,0.2-0.5,0.5c0,0.3,0.2,0.5,0.5,0.5h1.7l-0.8,0.8c-0.2,0.2-0.2,0.5,0,0.8c0.2,0.2,0.4,0.2,0.6,0.1c0,0,0.1,0,0.1-0.1
				l1.6-1.6h1.1l-0.2,0.2c-0.2,0.2-0.2,0.5,0,0.8c0.2,0.2,0.4,0.2,0.6,0.1l0.1-0.1l0.9-0.9h1.3l-0.6,1.1l-0.2,0.4
				c-0.3,0.1-0.5,0.4-0.4,0.7c0.1,0.3,0.4,0.5,0.7,0.4l0.3-0.1l-0.5,0.9l-2.1,0.6c-0.3,0.1-0.5,0.4-0.4,0.7c0.1,0.3,0.4,0.5,0.7,0.4
				l1.1-0.3l-0.8,1.5c-0.1,0.3-0.1,0.6,0.2,0.7c0.2,0.1,0.4,0.1,0.5,0c0.1,0,0.1-0.1,0.2-0.2l0.8-1.5l0.3,1.1
				c0.1,0.3,0.4,0.5,0.7,0.4c0,0,0.1,0,0.1-0.1C-366.5,440.8-366.4,440.5-366.4,440.3z"/>
			
				<linearGradient id="SVGID_3_" gradientUnits="userSpaceOnUse" x1="-439.739" y1="426.3867" x2="-428.1532" y2="393.5603" gradientTransform="matrix(1 0 0 -1 0 880.22)">
				<stop  offset="0" style="stop-color:#404B71"/>
				<stop  offset="0.6044" style="stop-color:#3C476E"/>
				<stop  offset="1" style="stop-color:#354169"/>
			</linearGradient>
			<path class="st10" d="M-437.2,483.5l-1.2-4.6l1.1-2l0.2,0.6c0.2,0.6,0.8,1,1.4,0.8c0.1,0,0.2-0.1,0.3-0.1
				c0.4-0.3,0.7-0.8,0.5-1.3l-0.7-2.8l1.4-2.4l1.4,2.4l-0.8,2.8c-0.2,0.6,0.2,1.2,0.8,1.4c0.3,0.1,0.6,0,0.9-0.1
				c0.3-0.1,0.5-0.4,0.5-0.7l0.2-0.6l1.1,2l-1.2,4.6c-0.2,0.6,0.2,1.2,0.8,1.4c0.3,0.1,0.6,0,0.9-0.1c0.3-0.1,0.5-0.4,0.5-0.7
				l0.6-2.4l1.8,3.2c0.3,0.5,1,0.7,1.6,0.4c0.5-0.3,0.7-1,0.4-1.6l-1.8-3.2l2.4,0.6c0.3,0.1,0.6,0,0.9-0.1c0.3-0.1,0.5-0.4,0.5-0.7
				c0.2-0.6-0.2-1.2-0.8-1.4l-4.6-1.2l-1.1-2l0.6,0.2c0.3,0.1,0.6,0,0.9-0.1c0.3-0.1,0.5-0.4,0.5-0.7c0.2-0.6-0.2-1.2-0.8-1.4
				l-2.8-0.7l-1.4-2.4h2.8l2,2c0.4,0.4,0.9,0.4,1.4,0.2c0.1-0.1,0.2-0.1,0.2-0.2c0.4-0.4,0.4-1.2,0-1.6l-0.4-0.4h2.3l3.4,3.4
				c0.4,0.4,0.9,0.4,1.4,0.2c0.1-0.1,0.2-0.1,0.2-0.2c0.4-0.4,0.4-1.2,0-1.6l-1.8-1.8h3.6c0.2,0,0.4-0.1,0.6-0.2
				c0.3-0.2,0.6-0.6,0.6-1c0-0.6-0.5-1.2-1.2-1.2h-3.6l1.8-1.8c0.4-0.4,0.4-1.2,0-1.6c-0.5-0.5-1.2-0.4-1.6,0l-3.4,3.4h-2.3l0.4-0.4
				c0.4-0.4,0.4-1.2,0-1.6c-0.5-0.4-1.2-0.4-1.6,0l-2,2h-2.8l1.4-2.4l2.8-0.7c0.1,0,0.2-0.1,0.3-0.1c0.4-0.3,0.7-0.8,0.5-1.3
				c-0.2-0.6-0.8-1-1.4-0.8l-0.6,0.2l1.1-2l4.6-1.2c0.1,0,0.2-0.1,0.3-0.1c0.4-0.3,0.7-0.8,0.5-1.3c-0.2-0.6-0.8-1-1.4-0.8l-2.4,0.6
				l1.8-3.2c0.3-0.6,0.1-1.3-0.4-1.6c-0.5-0.3-1.3-0.1-1.6,0.4l-1.8,3.2l-0.6-2.4c-0.2-0.6-0.8-1-1.4-0.8c-0.6,0.2-1,0.8-0.8,1.4
				l1.2,4.6l-1.1,2l-0.2-0.6c-0.2-0.6-0.8-1-1.4-0.8c-0.6,0.2-1,0.8-0.8,1.4l0.7,2.8l-1.4,2.4l-1.4-2.4l0.7-2.8
				c0.2-0.6-0.2-1.2-0.8-1.4c-0.6-0.2-1.2,0.2-1.4,0.8l-0.2,0.6l-1.1-2l1.2-4.6c0.2-0.6-0.2-1.2-0.8-1.4c-0.6-0.2-1.2,0.2-1.4,0.8
				l-0.6,2.4l-1.8-3.2c-0.3-0.5-1-0.7-1.6-0.4c-0.6,0.3-0.7,1-0.4,1.6l1.8,3.2l-2.4-0.6c-0.6-0.2-1.2,0.2-1.4,0.8s0.2,1.2,0.8,1.4
				l4.6,1.2l1.1,2l-0.6-0.2c-0.6-0.2-1.2,0.2-1.4,0.8s0.2,1.2,0.8,1.4l2.8,0.7l1.4,2.4h-2.8l-2-2c-0.4-0.5-1.2-0.4-1.6,0
				c-0.4,0.5-0.4,1.2,0,1.6l0.4,0.4h-2.3l-3.4-3.4c-0.4-0.4-1.2-0.4-1.6,0c-0.4,0.4-0.4,1.2,0,1.6l1.8,1.8h-3.6
				c-0.6,0-1.1,0.5-1.1,1.1s0.5,1.1,1.1,1.1h3.6l-1.8,1.8c-0.4,0.5-0.4,1.2,0,1.6c0.4,0.4,0.9,0.4,1.4,0.2c0.1,0,0.2-0.1,0.2-0.2
				l3.4-3.4h2.3l-0.4,0.4c-0.4,0.4-0.4,1.2,0,1.6s0.9,0.4,1.4,0.2c0.1,0,0.2-0.1,0.2-0.2l2-2h2.8l-1.4,2.4l-2.8,0.7
				c-0.6,0.2-1,0.8-0.8,1.4s0.8,1,1.4,0.8l0.6-0.2l-1.1,2l-4.6,1.2c-0.6,0.2-1,0.8-0.8,1.4c0.2,0.6,0.8,1,1.4,0.8l2.4-0.6l-1.8,3.2
				c-0.3,0.6-0.1,1.3,0.4,1.6c0.4,0.2,0.8,0.2,1.2,0c0.2-0.1,0.3-0.2,0.4-0.4l1.8-3.2l0.6,2.4c0.2,0.6,0.8,1,1.4,0.8
				c0.1,0,0.2-0.1,0.3-0.1C-437.3,484.5-437.1,484-437.2,483.5z"/>
			
				<linearGradient id="SVGID_4_" gradientUnits="userSpaceOnUse" x1="-309.5131" y1="423.766" x2="-277.1603" y2="348.0466" gradientTransform="matrix(1 0 0 -1 0 880.22)">
				<stop  offset="0" style="stop-color:#404B71"/>
				<stop  offset="0.6044" style="stop-color:#3C476E"/>
				<stop  offset="1" style="stop-color:#354169"/>
			</linearGradient>
			<path class="st11" d="M-256.8,490.4h-7l3.4-3.4c0.9-0.9,0.9-2.3,0-3.1c-0.9-0.9-2.3-0.9-3.1,0l-6.5,6.5h-4.4l1.9-1.9
				c0.9-0.9,0.9-2.3,0-3.1c-0.9-0.9-2.3-0.9-3.1,0l-5.1,5.1h-4.3l0.1-0.1c0.8-0.8,0.9-2.2,0.1-3c-0.3-1.1-1.5-1.8-2.7-1.5l-0.2,0.1
				l2.1-3.7l6.9-1.9c0.2,0,0.4-0.1,0.5-0.2c0.8-0.5,1.3-1.5,1-2.5c-0.3-1.2-1.5-1.9-2.7-1.6l-2.6,0.7l2.2-3.8l8.9-2.4
				c0.2-0.1,0.4-0.1,0.5-0.2c0.8-0.5,1.3-1.5,1-2.5c-0.3-1.2-1.5-1.9-2.7-1.6l-4.6,1.2l3.5-6.1c0.6-1.1,0.2-2.4-0.8-3
				c-1.1-0.6-2.4-0.2-3,0.8l-3.5,6.1l-1.2-4.6c-0.3-1.2-1.5-1.9-2.7-1.6c-1.2,0.3-1.9,1.5-1.6,2.7l2.4,8.9l-2.2,3.8l-0.7-2.6
				c-0.3-1.2-1.5-1.9-2.7-1.6c-1.2,0.3-1.9,1.5-1.6,2.7l1.9,6.9l-2.1,3.7v-0.2c-0.3-1.2-1.5-1.8-2.6-1.6c-1.1-0.2-2.3,0.4-2.6,1.6
				v0.2l-2.1-3.7l1.9-6.9c0.3-1.2-0.4-2.4-1.6-2.7c-1.2-0.3-2.4,0.4-2.7,1.6l-0.7,2.6l-2.2-3.8l2.4-8.9c0.3-1.2-0.4-2.4-1.6-2.7
				c-1.2-0.3-2.4,0.4-2.7,1.6l-1.2,4.6l-3.5-6.1c-0.6-1.1-2-1.4-3-0.8c-1.1,0.6-1.4,2-0.8,3l3.5,6.1l-4.6-1.2
				c-1.2-0.3-2.4,0.4-2.7,1.6s0.4,2.4,1.6,2.7l8.9,2.4l2.2,3.8l-2.6-0.7c-1.2-0.3-2.4,0.4-2.7,1.6c-0.3,1.2,0.4,2.4,1.6,2.7l6.9,1.9
				l2.1,3.7h-0.2c-1.1-0.3-2.3,0.3-2.6,1.4c-0.9,0.9-0.8,2.3,0,3.1l0.1,0.1h-4.3l-5.1-5.1c-0.9-0.9-2.3-0.9-3.1,0
				c-0.9,0.9-0.9,2.3,0,3.1l1.9,1.9h-4.4l-6.5-6.5c-0.9-0.9-2.3-0.9-3.1,0c-0.9,0.9-0.9,2.3,0,3.1l3.4,3.4h-7c-1.2,0-2.2,1-2.2,2.2
				c0,1.2,1,2.2,2.2,2.2h7l-3.4,3.4c-0.9,0.9-0.9,2.3,0,3.1c0.7,0.7,1.8,0.8,2.7,0.4c0.2-0.1,0.3-0.2,0.5-0.4l6.5-6.5h4.4l-1.9,1.9
				c-0.9,0.9-0.9,2.3,0,3.1c0.7,0.7,1.8,0.8,2.7,0.4c0.2-0.1,0.3-0.2,0.5-0.4l5.1-5.1h4.3l-0.1,0.1c-0.8,0.8-0.9,2.2-0.1,3
				c0.3,1.1,1.5,1.8,2.7,1.5h0.2l-2.1,3.7l-6.9,1.9c-1.2,0.3-1.9,1.5-1.6,2.7c0.3,1.2,1.5,1.9,2.7,1.6l2.6-0.7l-2.2,3.8l-8.9,2.4
				c-1.2,0.3-1.9,1.5-1.6,2.7c0.3,1.2,1.5,1.9,2.7,1.6l4.6-1.2l-3.5,6.1c-0.6,1.1-0.2,2.4,0.8,3c0.7,0.4,1.6,0.4,2.2,0
				c0.3-0.2,0.6-0.5,0.8-0.8l3.5-6.1l1.2,4.6c0.3,1.2,1.5,1.9,2.7,1.6c0.2-0.1,0.4-0.1,0.5-0.2c0.8-0.5,1.3-1.5,1-2.5l-2.4-8.9
				l2.2-3.8l0.7,2.6c0.3,1.2,1.5,1.9,2.7,1.6c0.2,0,0.4-0.1,0.5-0.2c0.8-0.5,1.3-1.5,1-2.5l-1.9-6.9l2.1-3.7v0.2
				c0.3,1.2,1.5,1.8,2.6,1.6c0.6,0.1,1.1,0,1.6-0.2c0.5-0.3,0.9-0.8,1-1.3v-0.2l2.1,3.7l-1.9,6.9c-0.3,1.2,0.4,2.4,1.6,2.7
				c0.6,0.2,1.2,0.1,1.7-0.2s0.9-0.8,1-1.3l0.7-2.6l2.2,3.8l-2.4,8.9c-0.3,1.2,0.4,2.4,1.6,2.7c0.6,0.2,1.2,0.1,1.7-0.2
				s0.9-0.8,1-1.3l1.2-4.6l3.5,6.1c0.6,1.1,2,1.4,3,0.8c1.1-0.6,1.4-2,0.8-3l-3.5-6.1l4.6,1.2c0.6,0.2,1.2,0.1,1.7-0.2
				c0.5-0.3,0.9-0.8,1-1.3c0.3-1.2-0.4-2.4-1.6-2.7l-8.9-2.4l-2.2-3.8l2.6,0.7c0.6,0.2,1.2,0.1,1.7-0.2c0.5-0.3,0.9-0.8,1-1.3
				c0.3-1.2-0.4-2.4-1.6-2.7l-6.9-1.9l-2.1-3.7h0.2c0.6,0.2,1.2,0.1,1.7-0.2c0.4-0.3,0.8-0.7,1-1.2c0.9-0.9,0.8-2.3,0-3.1l-0.1-0.1
				h4.3l5.1,5.1c0.7,0.7,1.8,0.8,2.7,0.4c0.2-0.1,0.3-0.2,0.5-0.4c0.9-0.9,0.9-2.3,0-3.1l-1.9-1.9h4.4l6.5,6.5
				c0.7,0.7,1.8,0.8,2.7,0.4c0.2-0.1,0.3-0.2,0.5-0.4c0.9-0.9,0.9-2.3,0-3.1l-3.4-3.4h7c0.4,0,0.8-0.1,1.1-0.3
				c0.7-0.4,1.1-1.1,1.1-1.9C-254.6,491.4-255.6,490.4-256.8,490.4z M-292.8,495.1c-1.4,0.8-3.1,0.3-3.9-1c-0.8-1.4-0.3-3.1,1-3.9
				c1.4-0.8,3.1-0.3,3.9,1C-291,492.6-291.4,494.3-292.8,495.1z"/>
			
				<linearGradient id="SVGID_5_" gradientUnits="userSpaceOnUse" x1="-354.9607" y1="517.4322" x2="-341.5941" y2="486.1423" gradientTransform="matrix(1 0 0 -1 0 880.22)">
				<stop  offset="0" style="stop-color:#404B71"/>
				<stop  offset="0.6044" style="stop-color:#3C476E"/>
				<stop  offset="1" style="stop-color:#354169"/>
			</linearGradient>
			<path class="st12" d="M-330.8,378.6h-1.1l0.4-0.6c0.3-0.4,0.2-0.9-0.2-1.1c-0.4-0.3-0.9-0.2-1.1,0.2l-1,1.5h-1.6l2.2-3.2
				c0.3-0.4,0.2-0.9-0.2-1.1c-0.4-0.3-0.9-0.2-1.1,0.2l-2.8,4.1h-1.7l1.3-1.9c0.3-0.4,0.2-0.9-0.2-1.1c-0.4-0.3-0.9-0.2-1.1,0.2
				l-1.9,2.8h-1l0.4-0.6c0.3-0.4,0.2-0.9-0.2-1.1c-0.4-0.3-0.9-0.2-1.1,0.2l-1,1.5h-0.4l-0.9-1.6l0.1-0.3l1.8-0.2
				c0.4,0,0.8-0.4,0.7-0.9c0-0.4-0.4-0.8-0.9-0.7l-0.7,0.1l0.5-0.9l3.4-0.3c0.4,0,0.8-0.4,0.7-0.9c0-0.4-0.4-0.8-0.9-0.7l-2.3,0.2
				l0.7-1.3l5-0.4c0.4,0,0.8-0.4,0.7-0.9c0-0.4-0.4-0.8-0.9-0.7l-3.8,0.3l0.8-1.4l1.8-0.2c0.4,0,0.8-0.4,0.7-0.9
				c0-0.4-0.4-0.8-0.9-0.7l-0.7,0.1l0.6-1c0.2-0.4,0.1-0.9-0.3-1.1c-0.4-0.2-0.9-0.1-1.1,0.3l-0.6,1l-0.3-0.6
				c-0.2-0.4-0.7-0.6-1.1-0.4c-0.4,0.2-0.6,0.7-0.4,1.1l0.8,1.7l-0.8,1.4l-1.6-3.5c-0.2-0.4-0.7-0.6-1.1-0.4
				c-0.4,0.2-0.6,0.7-0.4,1.1l2.1,4.5l-0.7,1.3l-1-2.1c-0.2-0.4-0.7-0.6-1.1-0.4c-0.4,0.2-0.6,0.7-0.4,1.1l1.4,3.1l-0.5,0.9
				l-0.3-0.6c-0.2-0.4-0.7-0.6-1.1-0.4c-0.4,0.2-0.6,0.7-0.4,1.1l0.8,1.7l-0.2,0.3h-1.9l-0.2-0.3l0.8-1.7c0.2-0.4,0-0.9-0.4-1.1
				c-0.4-0.2-0.9,0-1.1,0.4l-0.3,0.6l-0.5-0.9l1.4-3.1c0.2-0.4,0-0.9-0.4-1.1c-0.4-0.2-0.9,0-1.1,0.4l-1,2.1l-0.7-1.3l2.1-4.5
				c0.2-0.4,0-0.9-0.4-1.1c-0.4-0.2-0.9,0-1.1,0.4l-1.6,3.5l-0.8-1.4l0.8-1.7c0.2-0.4,0-0.9-0.4-1.1c-0.4-0.2-0.9,0-1.1,0.4
				l-0.3,0.6l-0.6-1c-0.2-0.4-0.7-0.5-1.1-0.3c-0.4,0.2-0.5,0.7-0.3,1.1l0.6,1l-0.7-0.1c-0.4,0-0.8,0.3-0.9,0.7
				c0,0.4,0.3,0.8,0.7,0.9l1.8,0.2l0.8,1.4l-3.8-0.3c-0.4,0-0.8,0.3-0.9,0.7c0,0.4,0.3,0.8,0.7,0.9l5,0.4l0.7,1.3l-2.3-0.2
				c-0.4,0-0.8,0.3-0.9,0.7c0,0.4,0.3,0.8,0.7,0.9l3.4,0.3l0.5,0.9l-0.7-0.1c-0.4,0-0.8,0.3-0.9,0.7c0,0.4,0.3,0.8,0.7,0.9l1.8,0.2
				l0.2,0.3l-0.9,1.6h-0.4l-1-1.5c-0.3-0.4-0.8-0.5-1.1-0.2c-0.4,0.3-0.5,0.8-0.2,1.1l0.4,0.6h-1l-1.9-2.8c-0.3-0.4-0.8-0.5-1.1-0.2
				c-0.4,0.3-0.5,0.8-0.2,1.1l1.3,1.9h-1.5l-2.8-4.1c-0.3-0.4-0.8-0.5-1.1-0.2c-0.4,0.3-0.5,0.8-0.2,1.1l2.2,3.2h-1.6l-1-1.5
				c-0.3-0.4-0.8-0.5-1.1-0.2c-0.4,0.3-0.5,0.8-0.2,1.1l0.4,0.6h-1.1c-0.4,0-0.8,0.4-0.8,0.8s0.4,0.8,0.8,0.8h1.1l-0.4,0.6
				c-0.3,0.4-0.2,0.9,0.2,1.1c0.1,0.1,0.3,0.1,0.5,0.1c0.3,0,0.5-0.1,0.7-0.3l1-1.5h1.6l-2.2,3.2c-0.3,0.4-0.2,0.9,0.2,1.1
				c0.1,0.1,0.3,0.1,0.5,0.1c0.3,0,0.5-0.1,0.7-0.3l2.8-4.1h1.5l-1.3,1.9c-0.3,0.4-0.2,0.9,0.2,1.1c0.1,0.1,0.3,0.1,0.5,0.1
				c0.3,0,0.5-0.1,0.7-0.3l1.9-2.8h1l-0.4,0.6c-0.3,0.4-0.2,0.9,0.2,1.1c0.1,0.1,0.3,0.1,0.5,0.1c0.3,0,0.5-0.1,0.7-0.3l1-1.5h0.4
				l0.9,1.6l-0.2,0.3l-1.8,0.2c-0.4,0-0.8,0.4-0.7,0.9c0,0.4,0.4,0.7,0.8,0.7c0,0,0,0,0.1,0l0.7-0.1l-0.5,0.9l-3.4,0.3
				c-0.4,0-0.8,0.4-0.7,0.9c0,0.4,0.4,0.7,0.8,0.7c0,0,0,0,0.1,0l2.3-0.2l-0.7,1.3l-5,0.4c-0.4,0-0.8,0.4-0.7,0.9
				c0,0.4,0.4,0.7,0.8,0.7c0,0,0,0,0.1,0l3.8-0.3l-0.8,1.4l-1.8,0.2c-0.4,0-0.8,0.4-0.7,0.9c0,0.4,0.4,0.7,0.8,0.7c0,0,0,0,0.1,0
				l0.7-0.1l-0.6,1c-0.2,0.4-0.1,0.9,0.3,1.1c0.1,0.1,0.3,0.1,0.4,0.1c0.3,0,0.6-0.1,0.7-0.4l0.6-1l0.3,0.6c0.1,0.3,0.4,0.5,0.7,0.5
				c0.1,0,0.2,0,0.3-0.1c0.4-0.2,0.6-0.7,0.4-1.1l-0.8-1.7l0.8-1.4l1.6,3.5c0.1,0.3,0.4,0.5,0.7,0.5c0.1,0,0.2,0,0.3-0.1
				c0.4-0.2,0.6-0.7,0.4-1.1l-2.1-4.5l0.7-1.3l1,2.1c0.1,0.3,0.4,0.5,0.7,0.5c0.1,0,0.2,0,0.3-0.1c0.4-0.2,0.6-0.7,0.4-1.1l-1.4-3.1
				l0.5-0.9l0.3,0.6c0.1,0.3,0.4,0.5,0.7,0.5c0.1,0,0.2,0,0.3-0.1c0.4-0.2,0.6-0.7,0.4-1.1l-0.8-1.7l0.2-0.3h1.9l0.2,0.3l-0.8,1.7
				c-0.2,0.4,0,0.9,0.4,1.1c0.1,0.1,0.2,0.1,0.3,0.1c0.3,0,0.6-0.2,0.7-0.5l0.3-0.6l0.5,0.9l-1.4,3.1c-0.2,0.4,0,0.9,0.4,1.1
				c0.1,0.1,0.2,0.1,0.3,0.1c0.3,0,0.6-0.2,0.7-0.5l1-2.1l0.7,1.3l-2.1,4.5c-0.2,0.4,0,0.9,0.4,1.1c0.1,0.1,0.2,0.1,0.3,0.1
				c0.3,0,0.6-0.2,0.7-0.5l1.6-3.5l0.8,1.4l-0.8,1.7c-0.2,0.4,0,0.9,0.4,1.1c0.1,0.1,0.2,0.1,0.3,0.1c0.3,0,0.6-0.2,0.7-0.5l0.3-0.6
				l0.6,1c0.2,0.3,0.4,0.4,0.7,0.4c0.1,0,0.3,0,0.4-0.1c0.4-0.2,0.5-0.7,0.3-1.1l-0.6-1l0.7,0.1c0,0,0,0,0.1,0
				c0.4,0,0.8-0.3,0.8-0.7s-0.3-0.8-0.7-0.9l-1.8-0.2l-0.8-1.4l3.8,0.3c0,0,0,0,0.1,0c0.4,0,0.8-0.3,0.8-0.7s-0.3-0.8-0.7-0.9
				l-5-0.4l-0.7-1.3l2.3,0.2c0,0,0,0,0.1,0c0.4,0,0.8-0.3,0.8-0.7s-0.3-0.8-0.7-0.9l-3.4-0.3l-0.5-0.9l0.7,0.1c0,0,0,0,0.1,0
				c0.4,0,0.8-0.3,0.8-0.7c0-0.4-0.3-0.8-0.7-0.9l-1.8-0.2l-0.2-0.3l0.9-1.6h0.4l1,1.5c0.2,0.2,0.4,0.3,0.7,0.3c0.2,0,0.3,0,0.5-0.1
				c0.4-0.3,0.5-0.8,0.2-1.1l-0.4-0.6h1l1.9,2.8c0.2,0.2,0.4,0.3,0.7,0.3c0.2,0,0.3,0,0.5-0.1c0.4-0.3,0.5-0.8,0.2-1.1l-1.3-1.9h1.5
				l2.8,4.1c0.2,0.2,0.4,0.3,0.7,0.3c0.2,0,0.3,0,0.5-0.1c0.4-0.3,0.5-0.8,0.2-1.1l-2.2-3.2h1.6l1,1.5c0.2,0.2,0.4,0.3,0.7,0.3
				c0.2,0,0.3,0,0.5-0.1c0.4-0.3,0.5-0.8,0.2-1.1l-0.4-0.6h1.1c0.4,0,0.8-0.4,0.8-0.8C-330,379-330.4,378.6-330.8,378.6z
				 M-348.5,381l-0.9-1.6l0.9-1.6h1.9l0.9,1.6l-0.9,1.6H-348.5z"/>
			<circle class="st4" cx="-316.7" cy="358.7" r="3.8"/>
			<circle class="st4" cx="-456.4" cy="430.1" r="3.8"/>
			<circle class="st4" cx="-450.9" cy="444.6" r="1.7"/>
			<circle class="st4" cx="-464.1" cy="453.3" r="1.7"/>
			<circle class="st4" cx="-330" cy="354.8" r="1.7"/>
			<circle class="st4" cx="-299.3" cy="394.7" r="4.2"/>
			<circle class="st4" cx="-267.2" cy="532.3" r="4.2"/>
			<circle class="st4" cx="-276.1" cy="405.7" r="3.1"/>
			<circle class="st4" cx="-282.1" cy="415.1" r="1.7"/>
			<circle class="st4" cx="-311.2" cy="404" r="1.7"/>
			<circle class="st4" cx="-222.8" cy="430.1" r="1.7"/>
			<circle class="st4" cx="-257.1" cy="405.7" r="1.7"/>
			<circle class="st4" cx="-263.8" cy="418.5" r="1.7"/>
			<circle class="st4" cx="-265.5" cy="405.6" r="1.7"/>
			<circle class="st4" cx="-257.1" cy="394.7" r="1.7"/>
			<circle class="st4" cx="-212.4" cy="407.4" r="1.7"/>
			<circle class="st4" cx="-207.4" cy="400.7" r="1.7"/>
			<circle class="st4" cx="-260.4" cy="522.8" r="1.7"/>
			<circle class="st4" cx="-247.8" cy="521.2" r="1.7"/>
			<circle class="st4" cx="-255.5" cy="530.6" r="1.7"/>
			<circle class="st4" cx="-291" cy="393.1" r="1.7"/>
			<circle class="st4" cx="-283.8" cy="400.7" r="1.7"/>
		</g>
	</g>
	<g id="vanna_1">
	</g>
	<g id="zakvaska">
	</g>
	<g id="shariki_2">
	</g>
	<g id="shariki_1">
	</g>
	<g id="voronka">
	</g>
	<g id="gradusnik">
	</g>
	<g id="kolba_2">
	</g>
	<g id="kolba_1">
	</g>
	<g id="probirki">
	</g>
	<g id="lupa">
	</g>
	<g id="bidon">
	</g>
	<g id="blank">
	</g>
	<g id="ticks">
	</g>
	<g id="clock">
	</g>
</g>
<g id="snow">
</g>
</svg>
