<?xml version="1.0" encoding="utf-8"?>
<!-- Generator: Adobe Illustrator 19.0.0, SVG Export Plug-In . SVG Version: 6.00 Build 0)  -->
<svg version="1.1" xmlns="http://www.w3.org/2000/svg" xmlns:xlink="http://www.w3.org/1999/xlink" x="0px" y="0px"
	 viewBox="0 0 130 250" style="enable-background:new 0 0 130 250;" xml:space="preserve">
<style type="text/css">
	.st0{fill:#519E38;}
	.st1{fill:#F4F4F4;}
	.st2{fill:#D6D6D6;}
	.st3{fill:#EAEAEA;}
	.st4{fill:#FFFFFF;}
	.st5{fill:#EC5439;}
	.st6{fill:#62BA47;}
	.st7{fill-rule:evenodd;clip-rule:evenodd;fill:#EC5439;}
	.st8{fill-rule:evenodd;clip-rule:evenodd;fill:#62BA47;}
	.st9{fill:#62BA46;}
</style>
<g id="Layer_2">
</g>
<g id="kolba_4">
</g>
<g id="kolba_3">
</g>
<g id="kolby">
</g>
<g id="doma">
</g>
<g id="car">
</g>
<g id="butylka_3">
</g>
<g id="butylka_2">
	<g>
		<path class="st0" d="M108.2,215.2c0,0,0-64.5,0-99.6S93.6,67.2,93.6,67.2c3.9-21.7-6.5-28.2-6.5-28.2v-7.8h2.2c0,0,0-8.4,0-11.2
			c0-2.8-3.9-2.5-3.9-2.5H71.1h-1.3H55.6c0,0-3.9-0.3-3.9,2.5c0,2.8,0,11.2,0,11.2h2.3v7.8h-0.1c0,0-10.4,6.5-6.5,28.2
			c0,0-14.6,13.4-14.6,48.4s0,99.6,0,99.6s-1.5,21.4,14.3,21.4c4.3,0,7.8,0,10.8,0c8.1,0,11.8,0,11.8,0h0.7h0.8h0.1H83h0.1
			c3,0,6.5,0,10.8,0c0,0,0,0,0.1,0C109.6,236.6,108.2,215.2,108.2,215.2z"/>
		<path class="st1" d="M100.5,210.1c0,0,0-64.5,0-99.6c0-35.1-14.6-48.4-14.6-48.4c3.9-21.7-6.5-28.2-6.5-28.2v-8h-33v8h-0.1
			c0,0-10.4,6.5-6.5,28.2c0,0-14.6,13.4-14.6,48.4c0,35.1,0,99.6,0,99.6s-1.5,21.4,14.3,21.4c4.3,0,7.8,0,10.8,0
			c8.1,0,11.8,0,11.8,0h1.6h11.8c3,0,6.6,0,10.8,0C102,231.5,100.5,210.1,100.5,210.1z"/>
		<path class="st2" d="M77.8,12.4H63.5h-1.3H47.9c0,0-3.9-0.3-3.9,2.5s0,11.2,0,11.2h18.1h1.3h18.1c0,0,0-8.4,0-11.2
			S77.8,12.4,77.8,12.4z"/>
		<path class="st3" d="M100.4,210.1c0,0,0-64.5,0-99.6c0-35.1-14.6-48.4-14.6-48.4c3.9-21.7-6.5-28.2-6.5-28.2v-8H62.8v205.6h0.8
			h11.8c3,0,6.6,0,10.8,0C101.9,231.5,100.4,210.1,100.4,210.1z"/>
		<path class="st4" d="M37.5,99c-0.2,0-0.4,0-0.5,0c-2.3-0.3-3.9-2.4-3.6-4.7c1.9-14.4,8.8-23.1,9.1-23.5c1.4-1.8,4.1-2.1,5.9-0.6
			c1.8,1.4,2.1,4.1,0.6,5.8c-0.1,0.1-5.8,7.4-7.4,19.3C41.3,97.5,39.5,99,37.5,99z"/>
	</g>
	<g>
		<circle class="st5" cx="62.5" cy="149.8" r="19.7"/>
		<circle class="st6" cx="46.7" cy="167.3" r="6.2"/>
		<g>
			<path class="st4" d="M42.6,166.3c0.2-0.6,0.7-0.2,0.8,0.1c0.2,0.4,0,0.9-0.3,1.2c-0.2,0.3-0.5,0.5-0.8,0.7
				c-0.2,0.1-0.3,0.2-0.4,0.3c0,0.1-0.1,0.2,0,0.2c0.2,0.2,0.7,0.2,0.9,0.2c0.5,0,1,0,1.4-0.2c0.2-0.1,0.5-0.7,0-0.5
				c-0.3,0.2-0.7,0.1-1.1,0.1c-0.2,0-0.6,0-0.7-0.1c0,0.1,0,0.2,0,0.2c-0.2,0.3-0.1,0.2,0.1,0.1c0.1-0.1,0.3-0.2,0.4-0.3
				c0.2-0.2,0.4-0.4,0.6-0.7c0.4-0.5,0.6-1,0.5-1.6c-0.2-1.3-1.7-0.4-2,0.4C41.9,166.9,42.5,166.5,42.6,166.3L42.6,166.3z"/>
			<path class="st4" d="M46,168.5c0.5,1.5,2.7,0.5,2.4-0.9c-0.2-0.7-0.9-0.6-1.5-0.7c-0.3-0.1-0.3-0.3-0.3-0.6
				c0.1-0.3,0.1-0.3-0.1-0.1c0.1,0,0.2,0,0.3-0.1c0.5-0.1,1-0.1,1.4,0.1c0.2,0.1,0.7-0.4,0.4-0.5c-0.5-0.3-1.2-0.2-1.8-0.1
				c-0.6,0.1-0.7,0.6-0.7,1.1c0,0.6,0.6,0.7,1.1,0.8c0.4,0.1,0.7,0.2,0.7,0.6c0.1,0.7-0.7,0.6-1,0.4c-0.2-0.1-0.2-0.3-0.3-0.5
				C46.5,167.9,46,168.3,46,168.5L46,168.5z"/>
			<g>
				<path class="st4" d="M51.2,165.8c-0.6,1.1-1.4,2-2.2,3c-0.3,0.4,0.2,0.4,0.4,0.1c0.8-1,1.6-2.1,2.3-3.2
					C52,165.3,51.4,165.6,51.2,165.8L51.2,165.8z"/>
				<path class="st4" d="M50.1,165.5c-0.4,0-0.7,0.4-0.7,0.7c-0.1,0.3,0.1,0.6,0.5,0.6C50.6,166.9,50.9,165.6,50.1,165.5
					c-0.2,0-0.5,0.4-0.2,0.4c0.2,0,0.3,0.2,0.3,0.3c0,0.1,0,0.1,0,0.2c0,0.1,0,0,0,0c0,0-0.1,0-0.1,0c-0.2,0-0.3-0.2-0.3-0.3
					c0-0.1,0-0.1,0-0.2c0,0,0,0,0,0c0,0,0.1,0,0.1,0C50,165.9,50.3,165.5,50.1,165.5z"/>
				<path class="st4" d="M51.2,167.8c-0.4,0-0.7,0.4-0.7,0.7c-0.1,0.3,0.1,0.6,0.5,0.6C51.7,169.2,52,167.8,51.2,167.8
					c-0.2,0-0.5,0.4-0.2,0.4c0.2,0,0.3,0.2,0.3,0.3c0,0.1,0,0.1,0,0.2c0,0.1,0,0,0,0c0,0-0.1,0-0.1,0c-0.2,0-0.3-0.2-0.3-0.3
					c0-0.1,0-0.1,0-0.2c0,0,0,0,0,0c0,0,0.1,0,0.1,0C51.1,168.2,51.4,167.8,51.2,167.8z"/>
			</g>
			<path class="st4" d="M45.2,169.9c0.3-0.2,0.5-0.6,0.5-1c0-0.1,0-0.3-0.1-0.3c-0.1-0.1-0.4,0-0.5,0c-0.2,0.1-0.3,0.3-0.3,0.4
				c0,0.2,0.2,0.1,0.3,0.1c0,0,0,0,0,0c0,0,0,0,0,0c0,0.1,0,0.1,0,0.1c0,0.1,0,0.1-0.1,0.2c0,0,0,0,0,0.1c0,0,0,0,0,0c0,0,0,0,0,0.1
				c0.1-0.1,0,0,0,0c-0.1,0.1-0.3,0.3-0.1,0.4C44.8,170.1,45.1,170,45.2,169.9L45.2,169.9z"/>
		</g>
		<path class="st7" d="M53.2,125.7c0,1.4-1.1,2.5-2.5,2.5c-1.4,0-2.5-1.1-2.5-2.5c0-1.4,1.1-2.5,2.5-2.5
			C52,123.1,53.2,124.3,53.2,125.7L53.2,125.7z"/>
		<path class="st8" d="M53.3,134.2c0,1.8-1.4,3.2-3.2,3.2c-1.8,0-3.2-1.4-3.2-3.2c0-1.8,1.5-3.2,3.2-3.2
			C51.8,130.9,53.3,132.4,53.3,134.2L53.3,134.2z"/>
		<path class="st8" d="M44.6,129.2c0,1.1-0.9,1.9-1.9,1.9c-1.1,0-1.9-0.9-1.9-1.9c0-1.1,0.9-1.9,1.9-1.9
			C43.7,127.2,44.6,128.1,44.6,129.2L44.6,129.2z"/>
		<g>
			<circle class="st6" cx="79.3" cy="131.8" r="10.9"/>
			<g>
				<path class="st4" d="M76.7,130.3c-0.9,0.1-1.1,1.2-1.2,1.9l0,0v0c0,0.1,0,0.2,0,0.3c0,0.4,0,0.6-0.1,1c0,0.1-0.1,0.4-0.1,0.4
					c-0.3,0-0.6-0.5-0.7-0.7c-0.2-0.6-0.4-1.1-0.5-1.7c-0.1-0.6-0.2-1.3-0.2-1.9c0-0.3,0-0.5,0-0.8c0-0.1,0-0.2,0-0.3
					c0-0.1,0-0.2,0-0.2c0.1-0.5-0.6,0-0.7,0.2c-0.7,1.3-0.5,2.8-0.5,4.1c0,0.4,0,0.7-0.1,1.1c0,0.3-0.1,0.7-0.3,0.9
					c-0.1,0.1-0.4,0-0.5,0c-0.2-0.1-0.3-0.3-0.3-0.5c0-0.2-0.3-0.1-0.4,0c-0.2,0.2-0.3,0.4-0.3,0.6c0.1,0.5,0.5,0.9,1,0.8
					c0.8-0.2,1.2-1.2,1.4-2c0.1-0.4,0.1-0.7,0.2-1.1c0.1,0.5,0.3,1.1,0.5,1.6c0.2,0.4,0.5,0.7,1,0.6c0.3-0.1,0.6-0.4,0.7-0.8
					c0.2,0.4,0.4,0.6,0.8,0.6c0.5,0,0.8-0.5,1-0.9c0.2-0.4,0.3-0.9,0.2-1.4C77.8,131.5,77.6,130.2,76.7,130.3z M76.9,133.4
					c0,0.1,0,0.2-0.1,0.3c-0.2,0-0.3-0.3-0.4-0.4c-0.1-0.3-0.2-0.6-0.2-1c0-0.3,0-0.7,0-1c0-0.1,0-0.2,0.1-0.3
					c0.5,0.3,0.5,0.9,0.6,1.3C77,132.7,77,133.1,76.9,133.4z"/>
				<path class="st4" d="M87.5,131.5c-1-0.4-1.5,1-1.7,1.7c-0.2,0.7-0.4,1.9,0.5,2.2c0.4,0.2,0.9-0.1,1.1-0.4
					c0.3-0.3,0.5-0.8,0.6-1.2C88.2,133.1,88.3,131.9,87.5,131.5z M86.9,134.7c0,0.1-0.1,0.2-0.1,0.2c-0.1-0.1-0.2-0.4-0.2-0.5
					c-0.1-0.3,0-0.7,0-1c0.1-0.3,0.2-0.7,0.3-1c0-0.1,0.1-0.1,0.1-0.2c0.4,0.4,0.3,1,0.2,1.5C87.1,134,87,134.4,86.9,134.7z"/>
				<path class="st4" d="M84.8,131.7c0.2-0.2,0.4-0.5,0.5-0.8c0.4-0.5,0.7-1.2,0.7-1.8c0-0.6-0.9-0.7-1.3-0.5c-0.6,0.3-1,1-1.2,1.6
					c-0.2,0.8-0.4,1.7-0.4,2.5v0c-0.3,0.4-0.9,1.1-1.4,0.8c-0.1-0.1-0.2-0.2-0.2-0.4c0.4-0.4,0.8-0.9,1.1-1.3
					c0.3-0.4,0.5-1.2-0.1-1.5c-0.5-0.3-1.1,0-1.4,0.4c-0.3,0.4-0.5,0.9-0.5,1.4c0,0.3-0.1,0.7,0,1.1c-0.3,0.2-0.6,0.3-1,0.2
					c-0.4-0.1-0.5-0.5-0.6-0.8c-0.1-0.4-0.1-0.9,0-1.4c0-0.1,0.1-0.3,0.1-0.4c0,0,0-0.1,0-0.1c0.2,0.1,0.3,0.4,0.4,0.6
					c0.1,0.3,0.9-0.2,0.8-0.5c-0.1-0.3-0.2-0.6-0.6-0.8c-0.3-0.2-0.8,0.1-1,0.3c-0.6,0.6-0.7,1.5-0.6,2.2c0,0.5,0.1,1.1,0.6,1.4
					c0.6,0.4,1.4,0,2-0.3c0.1,0.4,0.4,0.6,0.9,0.6c0.6-0.1,1.1-0.4,1.5-0.8c0,0.4,0.1,0.9,0.4,1.1c0.5,0.3,1.1,0,1.5-0.5
					c0.4-0.6,0.7-1.4,0.4-2C85.4,131.8,85.1,131.7,84.8,131.7z M81.5,131.3c0-0.1,0.1-0.2,0.2-0.4c0,0,0,0,0,0
					c0.2,0.1,0.3,0.4,0.2,0.5c0,0.4-0.3,0.7-0.6,1c0-0.1,0-0.1,0-0.2C81.4,132,81.4,131.7,81.5,131.3z M84.7,129.5
					c0.1-0.1,0.1-0.3,0.2-0.4c0,0,0,0,0,0c0.4,0.4,0,1-0.2,1.4c-0.2,0.4-0.4,0.8-0.7,1.1c0.1-0.4,0.1-0.7,0.2-1.1
					C84.4,130.2,84.5,129.9,84.7,129.5z M84.5,134c0,0-0.1,0.1-0.1,0.2c0,0-0.1,0-0.1,0c-0.2-0.1-0.3-0.7-0.3-0.8c0-0.2,0-0.4,0-0.6
					c0.1-0.1,0.2-0.2,0.3-0.3c0.2-0.1,0.4,0.1,0.4,0.4C84.8,133.1,84.6,133.6,84.5,134z"/>
			</g>
		</g>
		<g>
			<g>
				<g>
					<path class="st4" d="M77.9,153.7c-0.3-0.1-0.7,0.1-0.9,0.3c-0.2-0.4,0.1-1.4,0.2-1.9c0.3-1.5,0.3-2.6,0.1-3
						c-0.3-0.4-0.9-0.2-1.2-0.1c-0.2,0.1-0.4,0.2-0.5,0.4c0-0.3-0.1-0.6-0.3-0.9c-0.2-0.3-0.7-0.3-1-0.2c-0.2,0.1-0.4,0.2-0.6,0.3
						c0-0.1,0-0.3,0-0.4c0-0.1,0-0.2,0-0.2c0,0-0.1-0.1-0.1-0.1c-0.1,0-0.1,0-0.2,0c-0.2,0-0.4,0.1-0.6,0.2
						c-0.1,0.1-0.2,0.2-0.3,0.3c-0.2,0.3-0.6,0.2-1,0c-0.3-0.2-0.4-0.4-0.6-0.7c-0.1-0.1-0.2-0.3-0.4-0.4c-0.5-0.3-1-0.2-1.5,0
						c0-0.4,0-0.7-0.1-1.1c0-0.3-0.6-0.1-0.7-0.1c-0.2,0.1-0.5,0.3-0.5,0.5c0,0-0.5,1.8-1.5,3.1c0.1-1,0.1-1.9,0.2-2.9
						c0-0.2-0.1-0.2-0.2-0.2c-0.1,0-0.3,0-0.4,0c-0.3,0.1-0.6,0.4-0.7,0.7c-0.2,1.3-0.4,4.1-1.1,4.1c-0.8,0-0.4-3.3-0.3-4.8
						c0-0.2-0.1-0.2-0.3-0.2c-0.1,0-0.2,0-0.3,0.1c-0.3,0.1-0.6,0.4-0.7,0.7c-0.2,0.9-0.4,1.9-0.7,2.8c-0.2,0.5-0.5,1.4-1.1,1.4
						c-0.6,0-0.6-0.7-0.5-1.1c0.1-0.5,0.5-0.9,0.8-1.3c0.4-0.5,0.5-0.9,0.6-1.3c0.1-0.6-0.3-1.1-1-1.2c-0.7-0.1-1.3,0.4-1.7,0.8
						c-0.1,0.1-0.3,0.2-0.5,0.3c-0.5,0.1-0.9-0.3-1-0.4c-0.2-0.1-0.5-0.3-0.9-0.2c-1.4,0.5-1.7,2.1-1.6,3.4c0.1,0.9,0,1.5-0.1,1.8
						c-0.4,0.1-0.8-0.6-1-0.9c-0.4-0.8-0.5-1.6-0.6-2.5c-0.1-1.2-0.1-2.4-0.2-3.6c0-0.4-0.5-0.2-0.7,0c-0.3,0.2-0.6,0.7-0.6,1
						c0.1,1.5,0.2,3,0.2,4.4c0,0.7,0,1.5-0.2,2.2c-0.1,0.3-0.3,0.4-0.5,0.3c-0.5-0.1-0.7-0.7-0.8-1.1c-0.2-0.7-0.3-1.4-0.3-2.2
						c0-0.7-0.1-1.5-0.1-2.2c0-0.5,0-1-0.3-1.4c-0.4-0.7-1.6,0.5-2,0.9c-0.6,0.7-0.9,1.7-0.9,2.5c0,0.3,0.2,0.4,0.5,0.2
						c0.3-0.2,0.6-0.7,0.7-1c0-0.3,0.1-1.1,0.5-1.3c0,0,0,0,0,0c0,0,0,0,0,0s0,0,0.1,0.1c0.1,0.1,0.1,0.4,0.1,0.6
						c0.2,1.4,0.2,2.9,0.4,4.3c0.2,1,0.6,2.5,2,2.1c0.8-0.2,1.3-1.1,1.5-1.7c0,0,0-0.1,0-0.1c0.4,0.7,0.9,1.2,1.7,1
						c0.6-0.1,0.8-0.7,1-1.2c0.2,0.5,0.6,0.8,1.2,0.7c0.7-0.1,1.2-0.8,1.4-1.3c0.3-0.6,0.3-1.3,0.3-2c0-0.3-0.1-0.7-0.2-1.2
						c0.2,0,0.3-0.1,0.5-0.2c0.3-0.2,0.6-0.6,1-0.7c0.1,0,0.3-0.1,0.5,0c1,0.5-0.4,1.5-0.9,2.4c-0.3,0.6-0.6,1.6-0.1,2.1
						c0.8,0.9,2.3,0.2,3-0.6c0.2-0.2,0.3-0.4,0.5-0.7c0,0.7,0.2,1.6,1.2,1.5c0.5,0,0.8-0.2,1.2-0.5c-0.4,0.7-0.9,1.4-1.2,2.1
						c-0.3,0.6-0.6,1.3-0.6,2c0,0.8,0.9,1.2,1.6,0.8c0.7-0.3,1.1-1.1,1.3-1.8c0.3-1.2,0.3-2.5,0.3-3.8c0.6-0.9,1.1-1.7,1.6-2.8
						c0,1.3-0.1,2.6-0.2,3.8c-0.1,1.4-0.3,2.8-0.5,4.2c-0.1,0.3,0.3,0.3,0.5,0.2c0.3-0.1,0.6-0.3,0.6-0.6c0.2-1,0.4-2.1,0.5-3.2
						c0.4,0.1,0.9-0.1,1.3-0.3c0.9-0.6,1.2-1.7,1.3-2.7c0-0.1,0-0.3,0-0.5c0.4,0.1,0.8,0,1.2-0.1c-0.2,1.3-0.4,2.7-0.6,4
						c-0.1,0.6,1.1,0.1,1.2-0.3c0.2-1.2,0.6-2.4,1.1-3.4c0-0.1,0.1-0.2,0.1-0.3c0,0,0,0,0,0c0.2,0.7,0,1.5-0.1,2.2
						c-0.1,0.3-0.1,0.7-0.2,1c-0.1,0.4-0.2,0.8-0.3,1.2c-0.1,0.6,1.1,0.1,1.2-0.2c0.1-0.4,0.2-0.7,0.3-1.1c0.2-0.9,0.6-1.8,1.1-2.5
						c0.1,0.4,0,0.9,0,1.3c-0.1,0.6-0.2,1.2-0.3,1.7c-0.1,0.4-0.2,0.9-0.1,1.4c0.3,1,1.7,0.2,2.1-0.1
						C78,154.1,78.2,153.8,77.9,153.7z M56.9,151.5c0,0.1-0.1,0.3-0.1,0.4c-0.3,0-0.5-0.4-0.5-0.6c-0.2-0.4-0.3-0.9-0.4-1.4
						c-0.1-0.5-0.1-1,0-1.5c0-0.1,0.1-0.3,0.1-0.4c0.1,0,0.2,0.1,0.3,0.2c0.3,0.4,0.6,1.4,0.6,1.7C57,150.5,57,151,56.9,151.5z
						 M64.9,153.9c0,0.5-0.1,1.1-0.2,1.6c0,0.1-0.1,0.3-0.1,0.4c0,0-0.2,0-0.4-0.2c-0.3-0.3-0.1-0.8,0-1.1c0.2-0.5,0.4-1,0.7-1.5
						C64.9,153.4,64.9,153.6,64.9,153.9z M69.5,151.9C69.5,151.9,69.4,151.9,69.5,151.9c-0.1,0.1-0.1,0.1-0.1,0.1
						c-0.4,0-0.6-0.5-0.6-0.9c0.1-0.8,0.1-1.6,0.2-2.3c0,0,0,0,0,0c0-0.2,0.1-0.5,0.2-0.7c0,0,0,0,0,0c0,0,0,0,0,0
						c0.2,0,0.3,0.2,0.4,0.3c0.3,0.5,0.4,1.2,0.4,1.8C69.9,150.7,69.8,151.4,69.5,151.9z"/>
					<path class="st4" d="M50.5,144.9c0.8-0.3,1.4-1,1.8-1.6c0.1-0.2,0.5-0.6,0.2-0.8c-0.3-0.1-0.7,0.3-0.8,0.4
						c-0.2,0.2-0.4,0.6-0.7,0.7c-0.4,0.1-0.7,0.1-0.9-0.1c-0.4-0.4-1.4,0.8-1.1,1.1C49.4,145.1,49.9,145.1,50.5,144.9z"/>
				</g>
			</g>
		</g>
		<g>
			<path class="st9" d="M38.6,141.5c-0.1,0-0.2-0.2-0.3-0.2c-0.4-0.1-0.7,0.1-1.1,0.1c-0.9,0-1.3,0-2.4-0.3c0-1,0.6-1.6,0.8-2.3
				c0.2-0.7-0.1-1.4-0.1-2.2c0-0.5,0-0.9,0-1.4c-0.3,0.3-0.2,1.2-0.2,1.6c-0.1-0.6-0.1-1.3-0.3-1.8c-0.1,0.6,0,1.3,0,1.8
				c-0.2-0.5-0.2-1.1-0.4-1.6c-0.3,0.5,0.2,1.3,0.1,1.8c-0.2-0.5-0.3-1-0.5-1.4c-0.1,0.6,0.2,1.1,0.2,1.6c-0.2-0.4-0.3-0.8-0.6-1.1
				c0,0.4,0.3,0.9,0.4,1.3c-0.3-0.1-0.3-0.5-0.6-0.6c0,0.3,0.3,0.5,0.4,0.7c-0.2-0.1-0.3-0.3-0.5-0.4c0,0.3,0.3,0.4,0.3,0.6
				c-0.1-0.1-0.2-0.2-0.4-0.3c0,0.2,0.3,0.4,0.3,0.5c0,0-0.2-0.1-0.2,0c0,0,0.2,0.1,0.1,0.2c-0.1,0-0.1,0-0.2,0
				c0,0.2,0.2,0.1,0.1,0.3c-0.1,0-0.1-0.1-0.1,0c0,0.1,0.1,0.1,0.1,0.2c-0.8,0.8-0.4,1.7-0.5,2.7c0.1-0.1-0.7-0.3-1.2-0.5
				c-0.3-0.1-0.4-0.5-0.6-0.6c0-0.1,0.1,0,0.1-0.1c-0.1,0-0.2-0.1-0.2-0.2c0.1,0,0.3,0.1,0.3,0c-0.1-0.1-0.5-0.2-0.5-0.3
				c0.2,0,0.4,0.1,0.5,0.1c-0.2-0.1-0.6-0.3-0.6-0.5c0.2,0.1,0.5,0.3,0.7,0.2c-0.3-0.2-0.8-0.4-0.9-0.7c0.2,0.1,0.6,0.4,0.8,0.4
				c-0.4-0.1-0.7-0.6-1.1-0.6c0.2,0.4,0.8,0.6,0.9,0.8c-0.3-0.2-0.6-0.3-0.9-0.5c0.1,0.4,0.6,0.5,0.9,0.7c-0.3,0-0.5-0.2-0.8-0.2
				c0.1,0.3,0.6,0.2,0.7,0.5c-0.1-0.1-0.3,0-0.5,0c0,0.2,0.4,0.2,0.5,0.3c-0.2,0-0.3,0-0.4,0.1c0.1,0.1,0.3,0.1,0.4,0.2
				c-0.1,0-0.2,0-0.2,0.1c0,0.1,0.3,0,0.3,0.1c-0.1,0-0.1,0.1-0.1,0.1c0.1,0,0.2,0,0.2,0c-0.1,0-0.1,0-0.1,0.1
				c0.4,0.2,0.7,0.9,1.3,1.1c-0.3,0.2,0.3,0.4-3.5,1.8c0.1,0,1.7-0.4,2.1-0.5c0.5-0.2,0.9-0.3,1.4-0.4c0.1,0,0.2-0.1,0.3-0.1
				c0.8-0.1,1.5,0.1,2.3-0.4c-0.6,0.1-1.6,0.2-2-0.1c0.5-0.8,0.2-2.8,0.6-3.3c0.4-0.4,1-1.7,1.8-0.6c0.1,0.2,0.1,0.4-0.1,0.9
				c-0.3,0.6-0.6,0.8-0.5,2.1c0,0.2,0,0.5-0.4,0.5c1.6,0.3,2.1,0.2,3.1,0c0.3,0,0.8-0.3,0.8,0c0,0.1-0.3,0.1-0.6,0.1
				c-0.5,0,0.2,0.2,0.4,0.2c0.1,0,1-0.1,1.4-0.2C39.1,141.5,38.9,141.5,38.6,141.5z"/>
			<path class="st9" d="M33.8,133c-3.8,0-6.8,3.1-6.8,6.8s3.1,6.8,6.8,6.8s6.8-3.1,6.8-6.8S37.5,133,33.8,133 M33.8,133.3
				c3.6,0,6.6,2.9,6.6,6.6c0,3.6-2.9,6.6-6.6,6.6c-3.6,0-6.6-2.9-6.6-6.6C27.2,136.2,30.1,133.3,33.8,133.3"/>
		</g>
	</g>
</g>
<g id="butylka_1">
</g>
<g id="vanna_2">
</g>
<g id="vanna_1">
</g>
<g id="zakvaska">
</g>
<g id="shariki_2">
</g>
<g id="shariki_1">
</g>
<g id="voronka">
</g>
<g id="gradusnik">
</g>
<g id="kolba_2">
</g>
<g id="kolba_1">
</g>
<g id="probirki">
</g>
<g id="lupa">
</g>
<g id="bidon">
</g>
<g id="blank">
</g>
<g id="ticks">
</g>
<g id="clock">
</g>
</svg>
