<?xml version="1.0" encoding="utf-8"?>
<!-- Generator: Adobe Illustrator 19.0.0, SVG Export Plug-In . SVG Version: 6.00 Build 0)  -->
<svg version="1.1" id="Layer_1" xmlns="http://www.w3.org/2000/svg" xmlns:xlink="http://www.w3.org/1999/xlink" x="0px" y="0px"
	 viewBox="0 0 282 211.5" style="enable-background:new 0 0 282 211.5;" xml:space="preserve">
<style type="text/css">
	.st0{fill:#9DD887;}
	.st1{fill:#F9E7B7;}
	.st2{fill:#FCF3E0;}
	.st3{fill:#FFFFFF;}
	.st4{fill:#EFEFEF;}
</style>
<path id="XMLID_14_" class="st0" d="M232,171.3H50.7c-3.4,0-6.2-2.8-6.2-6.2V71.4c0-3.4,2.8-6.2,6.2-6.2H232c3.4,0,6.2,2.8,6.2,6.2
	v93.8C238.1,168.6,235.4,171.3,232,171.3z"/>
<path class="st1" d="M141,115.6l-29.7-5.1c-9.8-1.7-16.4-11.1-14.7-20.9l0,0c1.7-9.8,11.1-16.4,20.9-14.7l29.7,5.1
	c9.8,1.7,16.4,11.1,14.7,20.9l0,0C160.3,110.6,150.8,117.3,141,115.6z"/>
<path class="st1" d="M109.5,156.1l-30.2,0.1c-10,0-18.1-8.1-18.1-18.1v0c0-10,8.1-18.1,18.1-18.1l30.2-0.1c10,0,18.1,8.1,18.1,18.1
	v0C127.6,148,119.5,156.1,109.5,156.1z"/>
<path class="st1" d="M207.6,140.2l-28.1,11.1c-9.3,3.7-19.8-0.9-23.5-10.2l0,0c-3.7-9.3,0.9-19.8,10.2-23.5l28.1-11.1
	c9.3-3.7,19.8,0.9,23.5,10.2v0C221.4,126,216.8,136.6,207.6,140.2z"/>
<path class="st2" d="M116.1,85l-6.3-1.1c-1.4-0.2-2.4-1.6-2.2-3.1l0,0c0.2-1.4,1.6-2.4,3.1-2.2l6.3,1.1c1.4,0.2,2.4,1.6,2.2,3.1v0
	C119,84.3,117.6,85.3,116.1,85z"/>
<path class="st2" d="M79.7,130.4l-6.4,0c-1.5,0-2.7-1.2-2.7-2.7l0,0c0-1.5,1.2-2.7,2.7-2.7l6.4,0c1.5,0,2.7,1.2,2.7,2.7v0
	C82.4,129.1,81.2,130.3,79.7,130.4z"/>
<path class="st2" d="M170.4,127.2l-5.9,2.4c-1.4,0.5-2.9-0.1-3.5-1.5l0,0c-0.5-1.4,0.1-2.9,1.5-3.5l5.9-2.4c1.4-0.5,2.9,0.1,3.5,1.5
	l0,0C172.4,125.1,171.7,126.6,170.4,127.2z"/>
<path class="st3" d="M232.7,171.3H50.2c-3.3,0-5.9-2.7-5.9-5.9v-114c0-3.3,2.7-5.9,5.9-5.9h182.5c3.3,0,5.9,2.7,5.9,5.9v114
	C238.7,168.7,236,171.3,232.7,171.3z M50.2,49.5c-1.1,0-1.9,0.9-1.9,1.9v114c0,1.1,0.9,1.9,1.9,1.9h182.5c1.1,0,1.9-0.9,1.9-1.9
	v-114c0-1.1-0.9-1.9-1.9-1.9H50.2z"/>
<path class="st4" d="M243.1,45.3c0,2.4-1.9,4.3-4.3,4.3H43.1c-2.4,0-4.3-1.9-4.3-4.3l0,0c0-2.4,1.9-4.3,4.3-4.3h195.7
	C241.2,41,243.1,43,243.1,45.3L243.1,45.3z"/>
<path class="st3" d="M66.7,98.2c-1.6,0-2.9-1.3-2.9-2.9s1.3-2.9,2.9-2.9s2.9,1.3,2.9,2.9S68.3,98.2,66.7,98.2z M66.7,93.3
	c-1,0-1.9,0.9-1.9,1.9s0.9,1.9,1.9,1.9s1.9-0.9,1.9-1.9S67.7,93.3,66.7,93.3z"/>
<path class="st3" d="M140.9,128.8c-1.6,0-2.9-1.3-2.9-2.9s1.3-2.9,2.9-2.9s2.9,1.3,2.9,2.9S142.5,128.8,140.9,128.8z M140.9,124
	c-1,0-1.9,0.9-1.9,1.9s0.9,1.9,1.9,1.9s1.9-0.9,1.9-1.9S142,124,140.9,124z"/>
<path class="st3" d="M222.8,103.8c-1.3,0-2.4-1.1-2.4-2.4s1.1-2.4,2.4-2.4c1.3,0,2.4,1.1,2.4,2.4S224.2,103.8,222.8,103.8z
	 M222.8,100c-0.8,0-1.4,0.6-1.4,1.4c0,0.8,0.6,1.4,1.4,1.4c0.8,0,1.4-0.6,1.4-1.4C224.2,100.6,223.6,100,222.8,100z"/>
<path class="st3" d="M220.9,76.9c-1.3,0-2.4-1.1-2.4-2.4s1.1-2.4,2.4-2.4c1.3,0,2.4,1.1,2.4,2.4S222.2,76.9,220.9,76.9z M220.9,73.1
	c-0.8,0-1.4,0.6-1.4,1.4c0,0.8,0.6,1.4,1.4,1.4c0.8,0,1.4-0.6,1.4-1.4C222.3,73.7,221.7,73.1,220.9,73.1z"/>
<path class="st3" d="M222.7,84.3c-1.3,0-2.4-1.1-2.4-2.4s1.1-2.4,2.4-2.4s2.4,1.1,2.4,2.4S224.1,84.3,222.7,84.3z M222.7,80.4
	c-0.8,0-1.4,0.6-1.4,1.4s0.6,1.4,1.4,1.4s1.4-0.6,1.4-1.4S223.5,80.4,222.7,80.4z"/>
<path class="st3" d="M150.2,145c-1.3,0-2.4-1.1-2.4-2.4s1.1-2.4,2.4-2.4c1.3,0,2.4,1.1,2.4,2.4S151.5,145,150.2,145z M150.2,141.1
	c-0.8,0-1.4,0.6-1.4,1.4c0,0.8,0.6,1.4,1.4,1.4c0.8,0,1.4-0.6,1.4-1.4C151.6,141.7,150.9,141.1,150.2,141.1z"/>
<path class="st3" d="M72.6,110.8c-1.3,0-2.4-1.1-2.4-2.4s1.1-2.4,2.4-2.4c1.3,0,2.4,1.1,2.4,2.4S73.9,110.8,72.6,110.8z M72.6,107
	c-0.8,0-1.4,0.6-1.4,1.4c0,0.8,0.6,1.4,1.4,1.4c0.8,0,1.4-0.6,1.4-1.4C74,107.6,73.4,107,72.6,107z"/>
<path class="st3" d="M63.3,160.5c-1.3,0-2.4-1.1-2.4-2.4s1.1-2.4,2.4-2.4c1.3,0,2.4,1.1,2.4,2.4S64.6,160.5,63.3,160.5z M63.3,156.7
	c-0.8,0-1.4,0.6-1.4,1.4s0.6,1.4,1.4,1.4c0.8,0,1.4-0.6,1.4-1.4S64,156.7,63.3,156.7z"/>
<path class="st3" d="M97.1,74c-1.3,0-2.4-1.1-2.4-2.4s1.1-2.4,2.4-2.4c1.3,0,2.4,1.1,2.4,2.4S98.5,74,97.1,74z M97.1,70.1
	c-0.8,0-1.4,0.6-1.4,1.4c0,0.8,0.6,1.4,1.4,1.4c0.8,0,1.4-0.6,1.4-1.4C98.5,70.8,97.9,70.1,97.1,70.1z"/>
<path class="st3" d="M208.8,158.6c-1.3,0-2.4-1.1-2.4-2.4s1.1-2.4,2.4-2.4c1.3,0,2.4,1.1,2.4,2.4S210.1,158.6,208.8,158.6z
	 M208.8,154.8c-0.8,0-1.4,0.6-1.4,1.4s0.6,1.4,1.4,1.4c0.8,0,1.4-0.6,1.4-1.4S209.6,154.8,208.8,154.8z"/>
<path class="st3" d="M64.3,109.8c-2.5,0-4.4-2-4.4-4.4s2-4.4,4.4-4.4c2.5,0,4.4,2,4.4,4.4S66.7,109.8,64.3,109.8z M64.3,101.9
	c-1.9,0-3.4,1.5-3.4,3.4s1.5,3.4,3.4,3.4s3.4-1.5,3.4-3.4S66.2,101.9,64.3,101.9z"/>
<path class="st3" d="M216.6,93.5c-2.5,0-4.4-2-4.4-4.4s2-4.4,4.4-4.4c2.5,0,4.4,2,4.4,4.4S219.1,93.5,216.6,93.5z M216.6,85.6
	c-1.9,0-3.4,1.5-3.4,3.4s1.5,3.4,3.4,3.4s3.4-1.5,3.4-3.4S218.5,85.6,216.6,85.6z"/>
<path class="st3" d="M58.7,77.1L58.7,77.1c-1.4,0-2.6-1.2-2.6-2.6V59.6c0-1.4,1.2-2.6,2.6-2.6h0c1.4,0,2.6,1.2,2.6,2.6v14.9
	C61.3,75.9,60.2,77.1,58.7,77.1z"/>
</svg>
