<?xml version="1.0" encoding="utf-8"?>
<!-- Generator: Adobe Illustrator 19.0.0, SVG Export Plug-In . SVG Version: 6.00 Build 0)  -->
<svg version="1.1" id="Layer_1" xmlns="http://www.w3.org/2000/svg" xmlns:xlink="http://www.w3.org/1999/xlink" x="0px" y="0px"
	 viewBox="0 0 282 211.5" style="enable-background:new 0 0 282 211.5;" xml:space="preserve">
<style type="text/css">
	.st0{fill:#519E38;}
	.st1{fill:#F9E7B7;}
	.st2{fill:#FCF3E0;}
</style>
<g>
	<circle class="st0" cx="256.7" cy="84.1" r="6.1"/>
	<path class="st0" d="M250.6,112.4c0-6.1-3.7-11.3-9-13.5c0.3-0.7,0.5-1.5,0.5-2.4c0-3.4-2.7-6.1-6.1-6.1c-3.4,0-6.1,2.7-6.1,6.1
		c0,0.9,0.2,1.7,0.5,2.4c-1.3,0.6-2.6,1.3-3.7,2.2c-5.3-5.8-13-9.5-21.5-9.5c0,0-0.1,0-0.1,0c-0.2-2.9-0.9-5.6-2-8.1
		c5.1-0.6,9.1-4.9,9.1-10.2c0-5.7-4.6-10.3-10.3-10.3c-5,0-9.2,3.6-10.1,8.4c-2.7-1.4-5.7-2.3-8.8-2.7c2-1.9,3.3-4.6,3.3-7.6
		c0-5.7-4.6-10.3-10.3-10.3c-4.3,0-8,2.7-9.6,6.5c-5.2-4.7-12.1-7.7-19.7-7.7c-11.1,0-20.8,6.2-25.7,15.4c-0.9-2.3-3.1-4-5.7-4
		c-3.4,0-6.1,2.7-6.1,6.1c0,1.5,0.6,2.9,1.5,3.9c-4.2,2.1-7.8,5.3-10.3,9.3c-1-6.7-6.8-11.9-13.8-11.9c-7.7,0-14,6.3-14,14
		c0,2.7,0.8,5.2,2.1,7.3c-0.9-0.1-1.8-0.2-2.7-0.2c-9.8,0-18,6.8-20.2,16c-2-1.1-4.4-1.7-6.8-1.7c-8.1,0-14.6,6.5-14.6,14.6
		c0,8.1,6.5,14.6,14.6,14.6c2.3,0,4.4-0.5,6.3-1.5c0,0.5-0.1,1-0.1,1.5c0,16.1,13.1,29.2,29.2,29.2c5.1,0,9.9-1.3,14.1-3.6
		c0.6,2.8,3,4.8,5.9,4.8c3.4,0,6.1-2.7,6.1-6.1c0-0.4,0-0.7-0.1-1.1c2.8,0.7,5.7,1.1,8.7,1.1c3.2,0,6.2-0.4,9.1-1.2
		c4.6,10,14.7,16.9,26.5,16.9c16.1,0,29.2-13.1,29.2-29.2c0-0.8-0.1-1.5-0.1-2.3c0.9-0.7,1.8-1.4,2.6-2.3
		c5.4,6.5,13.4,10.6,22.5,10.6c8.9,0,16.8-4,22.2-10.2c2,2.6,5.1,4.2,8.6,4.2c6,0,10.9-4.9,10.9-10.9c0-3.2-1.4-6.1-3.6-8.1
		C247.7,122.5,250.6,117.8,250.6,112.4z M87.8,96.7c-0.1-0.1-0.2-0.2-0.3-0.3c0.2,0,0.4,0,0.5,0C88,96.5,87.9,96.6,87.8,96.7z"/>
</g>
<circle class="st1" cx="60.9" cy="98.8" r="20.8"/>
<circle class="st1" cx="75.5" cy="70.9" r="14"/>
<circle class="st1" cx="164.8" cy="49.5" r="10.3"/>
<circle class="st1" cx="190.6" cy="61.7" r="10.3"/>
<circle class="st1" cx="224.8" cy="84.9" r="6.1"/>
<circle class="st1" cx="245.4" cy="72.5" r="6.1"/>
<circle class="st1" cx="89.4" cy="145.9" r="6.1"/>
<circle class="st1" cx="224.8" cy="121.6" r="10.9"/>
<circle class="st1" cx="104.1" cy="55.6" r="6.1"/>
<circle class="st1" cx="33.9" cy="106.9" r="14.6"/>
<circle class="st1" cx="224.8" cy="100.8" r="14.6"/>
<circle class="st1" cx="110.5" cy="81.9" r="25"/>
<circle class="st1" cx="169" cy="81.9" r="25"/>
<circle class="st1" cx="135.5" cy="67.3" r="29.2"/>
<circle class="st1" cx="151.1" cy="106.9" r="29.2"/>
<circle class="st1" cx="139.8" cy="132.4" r="29.2"/>
<path class="st1" d="M140.8,109.2c0,20.3-16.4,36.7-36.7,36.7c-20.3,0-36.7-16.4-36.7-36.7c0-20.3,16.4-36.7,36.7-36.7
	C124.4,72.5,140.8,88.9,140.8,109.2z"/>
<circle class="st1" cx="69.4" cy="121.6" r="29.2"/>
<circle class="st1" cx="194" cy="109.2" r="29.2"/>
<circle class="st2" cx="63.4" cy="100.8" r="8.4"/>
</svg>
