<?xml version="1.0" encoding="utf-8"?>
<!-- Generator: Adobe Illustrator 19.0.0, SVG Export Plug-In . SVG Version: 6.00 Build 0)  -->
<svg version="1.1" id="Layer_1" xmlns="http://www.w3.org/2000/svg" xmlns:xlink="http://www.w3.org/1999/xlink" x="0px" y="0px"
	 viewBox="0 0 282 240" style="enable-background:new 0 0 282 240;" xml:space="preserve">
<style type="text/css">
	.st0{fill:#543222;}
	.st1{fill:#F9DB6C;}
	.st2{fill:#FCE9AC;}
	.st3{fill:#895837;}
	.st4{fill:#B27D59;}
</style>
<rect x="35.3" y="12.4" class="st0" width="213.4" height="196.8"/>
<path class="st1" d="M90.5,62.1l-24.4,0.1c-8.1,0-14.7-6.6-14.7-14.6v0c0-8.1,6.6-14.7,14.6-14.7l24.4-0.1c8.1,0,14.7,6.6,14.7,14.6
	v0C105.1,55.5,98.6,62.1,90.5,62.1z"/>
<path class="st2" d="M67.3,44.6l-4.7,0c-1.2,0-2.2-1-2.2-2.2v0c0-1.2,1-2.2,2.2-2.2l4.7,0c1.2,0,2.2,1,2.2,2.2v0
	C69.4,43.6,68.4,44.6,67.3,44.6z"/>
<path class="st1" d="M151.6,62.1l-24.4,0.1c-8.1,0-14.7-6.6-14.7-14.6v0c0-8.1,6.6-14.7,14.6-14.7l24.4-0.1
	c8.1,0,14.7,6.6,14.7,14.6v0C166.2,55.5,159.6,62.1,151.6,62.1z"/>
<path class="st2" d="M128.1,44.6l-4.7,0c-1.2,0-2.2-1-2.2-2.2v0c0-1.2,1-2.2,2.2-2.2l4.7,0c1.2,0,2.2,1,2.2,2.2v0
	C130.3,43.6,129.3,44.6,128.1,44.6z"/>
<path class="st1" d="M214.1,62.1l-24.4,0.1c-8.1,0-14.7-6.6-14.7-14.6v0c0-8.1,6.6-14.7,14.6-14.7l24.4-0.1
	c8.1,0,14.7,6.6,14.7,14.6v0C228.8,55.5,222.2,62.1,214.1,62.1z"/>
<path class="st2" d="M191.4,44.6l-4.7,0c-1.2,0-2.2-1-2.2-2.2v0c0-1.2,1-2.2,2.2-2.2l4.7,0c1.2,0,2.2,1,2.2,2.2v0
	C193.5,43.6,192.5,44.6,191.4,44.6z"/>
<rect x="31.2" y="12.4" class="st3" width="217.4" height="4.9"/>
<rect x="31.2" y="62.4" class="st3" width="217.4" height="4.9"/>
<rect x="30.4" y="12.4" class="st3" width="4.9" height="201.6"/>
<rect x="246.2" y="12.4" class="st3" width="4.9" height="201.6"/>
<path class="st1" d="M90.5,108L66.1,108c-8.1,0-14.7-6.6-14.7-14.6v0c0-8.1,6.6-14.7,14.6-14.7l24.4-0.1c8.1,0,14.7,6.6,14.7,14.6v0
	C105.1,101.4,98.6,108,90.5,108z"/>
<path class="st2" d="M67.3,90.4l-4.7,0c-1.2,0-2.2-1-2.2-2.2v0c0-1.2,1-2.2,2.2-2.2l4.7,0c1.2,0,2.2,1,2.2,2.2l0,0
	C69.4,89.5,68.5,90.4,67.3,90.4z"/>
<path class="st1" d="M151.6,108l-24.4,0.1c-8.1,0-14.7-6.6-14.7-14.6v0c0-8.1,6.6-14.7,14.6-14.7l24.4-0.1c8.1,0,14.7,6.6,14.7,14.6
	v0C166.2,101.4,159.6,108,151.6,108z"/>
<path class="st2" d="M128.1,90.4l-4.7,0c-1.2,0-2.2-1-2.2-2.2v0c0-1.2,1-2.2,2.2-2.2l4.7,0c1.2,0,2.2,1,2.2,2.2l0,0
	C130.3,89.5,129.3,90.4,128.1,90.4z"/>
<path class="st1" d="M214.1,108l-24.4,0.1c-8.1,0-14.7-6.6-14.7-14.6v0c0-8.1,6.6-14.7,14.6-14.7l24.4-0.1c8.1,0,14.7,6.6,14.7,14.6
	v0C228.8,101.4,222.2,108,214.1,108z"/>
<path class="st2" d="M191.4,90.5l-4.7,0c-1.2,0-2.2-1-2.2-2.2l0,0c0-1.2,1-2.2,2.2-2.2l4.7,0c1.2,0,2.2,1,2.2,2.2v0
	C193.5,89.5,192.6,90.4,191.4,90.5z"/>
<rect x="31.2" y="108.3" class="st3" width="217.4" height="4.9"/>
<path class="st1" d="M90.5,159.2l-24.4,0.1c-8.1,0-14.7-6.6-14.7-14.6v0c0-8.1,6.6-14.7,14.6-14.7l24.4-0.1
	c8.1,0,14.7,6.6,14.7,14.6v0C105.1,152.6,98.6,159.2,90.5,159.2z"/>
<path class="st2" d="M67.3,141.7l-4.7,0c-1.2,0-2.2-1-2.2-2.2l0,0c0-1.2,1-2.2,2.2-2.2l4.7,0c1.2,0,2.2,1,2.2,2.2v0
	C69.4,140.7,68.5,141.7,67.3,141.7z"/>
<path class="st1" d="M151.6,159.2l-24.4,0.1c-8.1,0-14.7-6.6-14.7-14.6v0c0-8.1,6.6-14.7,14.6-14.7l24.4-0.1
	c8.1,0,14.7,6.6,14.7,14.6v0C166.2,152.6,159.6,159.2,151.6,159.2z"/>
<path class="st2" d="M128.1,141.7l-4.7,0c-1.2,0-2.2-1-2.2-2.2l0,0c0-1.2,1-2.2,2.2-2.2l4.7,0c1.2,0,2.2,1,2.2,2.2l0,0
	C130.3,140.7,129.3,141.7,128.1,141.7z"/>
<path class="st1" d="M214.1,159.2l-24.4,0.1c-8.1,0-14.7-6.6-14.7-14.6v0c0-8.1,6.6-14.7,14.6-14.7l24.4-0.1
	c8.1,0,14.7,6.6,14.7,14.6v0C228.8,152.6,222.2,159.2,214.1,159.2z"/>
<path class="st2" d="M191.4,141.7l-4.7,0c-1.2,0-2.2-1-2.2-2.2l0,0c0-1.2,1-2.2,2.2-2.2l4.7,0c1.2,0,2.2,1,2.2,2.2v0
	C193.5,140.7,192.6,141.7,191.4,141.7z"/>
<rect x="31.2" y="159.5" class="st3" width="217.4" height="4.9"/>
<path class="st1" d="M90.5,208.8l-24.4,0.1c-8.1,0-14.7-6.6-14.7-14.6v0c0-8.1,6.6-14.7,14.6-14.7l24.4-0.1
	c8.1,0,14.7,6.6,14.7,14.6v0C105.1,202.2,98.6,208.8,90.5,208.8z"/>
<path class="st2" d="M67.3,191.3l-4.7,0c-1.2,0-2.2-1-2.2-2.2v0c0-1.2,1-2.2,2.2-2.2l4.7,0c1.2,0,2.2,1,2.2,2.2l0,0
	C69.4,190.3,68.5,191.3,67.3,191.3z"/>
<path class="st1" d="M151.6,208.8l-24.4,0.1c-8.1,0-14.7-6.6-14.7-14.6v0c0-8.1,6.6-14.7,14.6-14.7l24.4-0.1
	c8.1,0,14.7,6.6,14.7,14.6v0C166.2,202.2,159.6,208.8,151.6,208.8z"/>
<path class="st2" d="M128.1,191.3l-4.7,0c-1.2,0-2.2-1-2.2-2.2l0,0c0-1.2,1-2.2,2.2-2.2l4.7,0c1.2,0,2.2,1,2.2,2.2v0
	C130.3,190.3,129.3,191.3,128.1,191.3z"/>
<path class="st1" d="M214.1,208.8l-24.4,0.1c-8.1,0-14.7-6.6-14.7-14.6v0c0-8.1,6.6-14.7,14.6-14.7l24.4-0.1
	c8.1,0,14.7,6.6,14.7,14.6v0C228.8,202.2,222.2,208.8,214.1,208.8z"/>
<path class="st2" d="M191.4,191.3l-4.7,0c-1.2,0-2.2-1-2.2-2.2v0c0-1.2,1-2.2,2.2-2.2l4.7,0c1.2,0,2.2,1,2.2,2.2l0,0
	C193.5,190.3,192.6,191.3,191.4,191.3z"/>
<rect x="35.3" y="208.9" class="st3" width="210.9" height="17.7"/>
<rect x="40" y="216.9" class="st4" width="35" height="1.6"/>
<rect x="51" y="220.9" class="st4" width="35" height="1.6"/>
<rect x="73.7" y="213.2" class="st4" width="35" height="1.6"/>
<rect x="207.2" y="213.2" class="st4" width="35" height="1.6"/>
<rect x="96.1" y="216.9" class="st4" width="13.9" height="1.6"/>
<rect x="204.2" y="216.9" class="st4" width="13.9" height="1.6"/>
<rect x="228.7" y="220.1" class="st4" width="13.9" height="1.6"/>
<rect x="114" y="220.9" class="st4" width="35" height="1.6"/>
<rect x="126" y="217.7" class="st4" width="69.1" height="1.6"/>
</svg>
