<?xml version="1.0" encoding="utf-8"?>
<!-- Generator: Adobe Illustrator 19.0.0, SVG Export Plug-In . SVG Version: 6.00 Build 0)  -->
<svg version="1.1" id="Layer_1" xmlns="http://www.w3.org/2000/svg" xmlns:xlink="http://www.w3.org/1999/xlink" x="0px" y="0px"
	 viewBox="0 0 282 211.5" style="enable-background:new 0 0 282 211.5;" xml:space="preserve">
<style type="text/css">
	.st0{fill:#519E38;}
	.st1{fill:#F9E7B7;}
	.st2{fill:#FCF3E0;}
</style>
<path class="st0" d="M191.2,158.3H98.3c-22.8,0-41.5-18.7-41.5-41.5v-12.9c0-22.8,18.7-41.5,41.5-41.5h92.9
	c22.8,0,41.5,18.7,41.5,41.5v12.9C232.8,139.6,214.1,158.3,191.2,158.3z"/>
<path class="st1" d="M184,149.3H91.1c-22.8,0-41.5-18.7-41.5-41.5V94.9c0-22.8,18.7-41.5,41.5-41.5H184c22.8,0,41.5,18.7,41.5,41.5
	v12.9C225.6,130.7,206.9,149.3,184,149.3z"/>
<path class="st2" d="M98.7,80.8H81.8c-3.9,0-7.1-3.2-7.1-7.1v0c0-3.9,3.2-7.1,7.1-7.1h16.9c3.9,0,7.1,3.2,7.1,7.1v0
	C105.8,77.6,102.6,80.8,98.7,80.8z"/>
</svg>
