<?xml version="1.0" encoding="utf-8"?>
<!-- Generator: Adobe Illustrator 19.0.0, SVG Export Plug-In . SVG Version: 6.00 Build 0)  -->
<svg version="1.1" xmlns="http://www.w3.org/2000/svg" xmlns:xlink="http://www.w3.org/1999/xlink" x="0px" y="0px"
	 viewBox="99 -61 328.2 372" style="enable-background:new 99 -61 328.2 372;" xml:space="preserve">
<style type="text/css">
	.st0{fill:#519E38;}
	.st1{fill:#FFFFFF;}
	.st2{fill:#EFEFEF;}
	.st3{fill:#54A4AF;}
	.st4{fill:none;stroke:#FFFFFF;stroke-width:4;stroke-miterlimit:10;}
	.st5{fill:#F2F2F2;}
</style>
<g id="bath">
	<g id="Layer_2">
	</g>
	<g id="kolba_4">
	</g>
	<g id="doma">
	</g>
	<g id="butylka_3">
	</g>
	<g id="butylka_2">
	</g>
	<g id="butylka_1">
	</g>
	<g id="vanna_2">
	</g>
	<g id="sneg">
	</g>
	<g id="vanna_1">
	</g>
	<g id="shariki_2">
	</g>
	<g id="shariki_1">
	</g>
	<g id="voronka">
	</g>
	<g id="gradusnik">
	</g>
	<g id="kolba_2">
	</g>
	<g id="kolba_1">
	</g>
	<g id="probirki">
	</g>
	<g id="lupa">
	</g>
	<g id="zavod">
	</g>
	<g id="blank">
	</g>
	<g>
		<polygon class="st0" points="289.1,56 282.1,37.3 250.4,5.5 249.4,4.6 247.5,7.2 276.6,35.8 280.1,38.2 286.6,58.5 		"/>
		<path class="st0" d="M347,42.8L347,42.8c-0.7-0.5-1.3-0.8-1.3-0.8l-52.3-17.7L263.6-5.6l-1.2-1l-1.3,1.3l0.2,1.9L292.1,27
			l25.1,8.2l19.4,9.7l0.7,7.7l-12.1,14.3l-5.8,5.3c0,0-19.4,19.8-18.2,20.9c0.4,0.3,0.8,0.5,1.3,0.5l0,0c0,0,1.7,1.9,5.4-1.9
			c3.8-3.8,33.7-33.7,33.7-33.7l2-3.3l1.9-1.9l-1.3,2.1l5-4.1C352.2,46,347,42.8,347,42.8z"/>
	</g>
	<path class="st0" d="M349.3,46.9c1.1,1.1,1.1,2.9,0,3.9l-42.8,42.8c-1.1,1.1-2.9,1.1-3.9,0l0,0c-1.1-1.1-1.1-2.9,0-3.9l42.8-42.8
		C346.5,45.8,348.2,45.8,349.3,46.9L349.3,46.9z"/>
	<path class="st0" d="M260.5-7.6L247.6,5.3c-0.7,0.7-0.7,1.9,0,2.6s1.9,0.7,2.6,0L263.1-5c0.7-0.7,0.7-1.9,0-2.6
		C262.3-8.3,261.2-8.3,260.5-7.6z"/>
	<g>
		<g>
			<path class="st1" d="M318.9,36.3l-30.3,30.3l8.2,23.5c1.3,3.7,4.6,4.6,7.4,1.8l40-40c2.8-2.8,1.9-6.1-1.8-7.4L318.9,36.3z"/>
		</g>
	</g>
	<g>
		<g>
			<polygon class="st2" points="289.6,65.8 318.1,37.3 310.5,34.6 286.8,58.3 			"/>
		</g>
	</g>
	<g>
		<g>
			<path class="st1" d="M258.6-4.1l31.9,31.9c0.3,0.3,0.6,0.4,1,0.5s0.8,0.2,1.1,0.3l26.3,9l0,0l0,0l24,8.2c1.2,0.4,2,1.1,2.2,1.9
				s-0.2,1.7-1.1,2.6l-41.4,41.4c-0.9,0.9-1.9,1.3-2.6,1.1c-0.8-0.2-1.5-1-1.9-2.2l-8.2-24l0,0l0,0l-9-26.3
				c-0.1-0.4-0.2-0.7-0.3-1.1s-0.2-0.7-0.5-1L248.2,6.3L258.6-4.1L258.6-4.1z M258.6-6.7L245.7,6.2l33.2,33.2c0.1,0.5,0.2,1,0.4,1.4
				l9,26.3l0,0l0,0l8.2,24c1.3,3.8,4.7,4.6,7.5,1.8l41.4-41.4c2.8-2.8,2.1-6.2-1.8-7.5l-24-8.2l0,0l0,0l-26.3-9
				c-0.4-0.2-0.9-0.3-1.4-0.4L258.6-6.7L258.6-6.7z"/>
		</g>
	</g>
	<path class="st2" d="M258-7.3L245.1,5.6c-0.7,0.7-0.7,1.9,0,2.6s1.9,0.7,2.6,0l12.9-13c0.7-0.7,0.7-1.9,0-2.6
		C259.9-8,258.7-8,258-7.3z"/>
	<path class="st1" d="M289.2,47.6c-0.2,0.2-0.4,0.3-0.6,0.4c-0.9,0.3-1.9-0.1-2.2-1l-2.7-6.9c-0.3-0.9,0.1-1.9,1-2.2
		c0.9-0.3,1.9,0.1,2.2,1l2.7,6.9C289.9,46.4,289.7,47.1,289.2,47.6z"/>
	<path class="st1" d="M282,33.7c-0.6,0.6-1.6,0.6-2.2,0L255.2,9.1c-0.6-0.6-0.6-1.6,0-2.2s1.6-0.6,2.2,0L282,31.5
		C282.6,32.1,282.6,33.1,282,33.7z"/>
	<path class="st3" d="M305.1-7.6"/>
	<g>
		<rect x="177.7" y="131.3" class="st0" width="5.3" height="105.1"/>
		<path class="st0" d="M360.8,131.3l-0.1,104.8c0,0,1.3,11.2-7.7,11.2H185.7c0,0-5-0.3-5-5.8s166.2-2.7,166.2-2.7l7-18.8l1.4-70.7
			l0.3-18.1L360.8,131.3L360.8,131.3z"/>
		<path class="st0" d="M364.7,128.7c0,2.2-1.8,4-4,4h-183c-2.2,0-4-1.8-4-4l0,0c0-2.2,1.8-4,4-4h183
			C362.9,124.7,364.7,126.5,364.7,128.7L364.7,128.7z"/>
		<path class="st4" d="M355.7,237.9c0,2-1.6,3.7-3.7,3.7H181.4c-2,0-3.7-1.6-3.7-3.7V131.3c0-2,1.6-3.7,3.7-3.7H352
			c2,0,3.7,1.6,3.7,3.7V237.9z"/>
		<rect x="177.7" y="177.5" class="st1" width="177.7" height="64.1"/>
		<path class="st2" d="M361.7,125.7c0,2.2-1.8,4-4,4h-183c-2.2,0-4-1.8-4-4l0,0c0-2.2,1.8-4,4-4h183
			C359.9,121.7,361.7,123.5,361.7,125.7L361.7,125.7z"/>
		<path class="st1" d="M194.5,163.6c0,1.7-1.4,3.1-3.1,3.1l0,0c-1.7,0-3.1-1.4-3.1-3.1v-22.8c0-1.7,1.4-3.1,3.1-3.1l0,0
			c1.7,0,3.1,1.4,3.1,3.1V163.6z"/>
	</g>
</g>
<g id="bottle">
</g>
<g id="drop">
	<g>
		<path class="st5" d="M261.1,68.4L261.1,68.4L261.1,68.4c-0.2-0.4-0.3-0.7-0.5-1.1l-9.4-19.1l-9.5,19.2c-0.2,0.3-0.4,0.7-0.5,1l0,0
			l0,0c-0.6,1.3-0.9,2.7-0.9,4.3c0,6,4.9,10.8,10.8,10.8c6,0,10.8-4.9,10.8-10.8C262,71.1,261.7,69.7,261.1,68.4z"/>
		<ellipse class="st1" cx="246.5" cy="70.1" rx="2.9" ry="3"/>
	</g>
</g>
</svg>
