<?xml version="1.0" encoding="utf-8"?>
<!-- Generator: Adobe Illustrator 19.0.0, SVG Export Plug-In . SVG Version: 6.00 Build 0)  -->
<svg version="1.1" id="cheese_losevo" xmlns="http://www.w3.org/2000/svg" xmlns:xlink="http://www.w3.org/1999/xlink" x="0px"
	 y="0px" viewBox="0 0 222.4 209" style="enable-background:new 0 0 222.4 209;" xml:space="preserve">
<style type="text/css">
	.st0{fill:#99D384;}
	.st1{fill:#FFFFFF;}
	.st2{fill:#C6B360;}
	.st3{fill:#F9DB6C;}
	.st4{fill-rule:evenodd;clip-rule:evenodd;fill:#FFD600;}
	.st5{fill-rule:evenodd;clip-rule:evenodd;fill:#62BA47;}
	.st6{fill:#62BA47;}
	.st7{fill:#62BA46;}
	.st8{fill:#FFD600;}
</style>
<g>
	<path class="st0" d="M156.3,175.2c-0.2,0-0.5-0.1-0.7-0.2L46.7,120.7c-0.3-0.2-0.6-0.4-0.7-0.8l-9.8-24c0-0.1-0.1-0.2-0.1-0.4
		c-0.1-1.1,7.2-15.8,21.8-31.1C71.9,49.6,97,29.6,135.9,19.2c0.1,0,0.3-0.1,0.4-0.1c0.7,0,1.3,0.4,1.4,1.1l23.8,82.8l16.5,62.8
		c0.2,0.7-0.2,1.5-0.9,1.8l-20.3,7.5C156.6,175.2,156.5,175.2,156.3,175.2z"/>
	<g>
		<path class="st1" d="M136.3,20.6L153.1,79l0.1,0.3l3.2,11.1l0,0l3.8,13.1l16.5,62.8l-20.3,7.5L47.3,119.4l-9.8-24h0
			C37.5,95.3,61.5,40.7,136.3,20.6 M136.3,17.6c-0.3,0-0.5,0-0.8,0.1C96.2,28.3,71,48.4,56.7,63.4C41.1,79.8,35,93.6,34.7,94.1
			c-0.3,0.7-0.3,1.6,0,2.3l9.8,24c0.3,0.7,0.8,1.2,1.4,1.5l108.9,54.3c0.4,0.2,0.9,0.3,1.3,0.3c0.3,0,0.7-0.1,1-0.2l20.3-7.5
			c1.5-0.5,2.3-2.1,1.9-3.6L163,102.7c0,0,0,0,0-0.1l-3.8-13.1L156,78.4l-0.1-0.3l-16.7-58.3C138.8,18.5,137.6,17.6,136.3,17.6
			L136.3,17.6z"/>
	</g>
</g>
<polygon class="st2" points="47.6,95.7 55.9,115.9 154.5,166.2 167.9,161.3 "/>
<path class="st3" d="M151,102.5L151,102.5l-3.2-11.1c0,0,0,0,0,0l-2.7-9.3l-0.1-0.3l0,0L131,32.6c-63.1,16.9-83.4,63-83.4,63
	l120.3,65.6L151,102.5z"/>
<g>
	<circle class="st1" cx="114.4" cy="91.5" r="25.4"/>
	<g>
		<path class="st4" d="M117.7,80c-0.2,1-1.1,1.8-2.2,1.8c-1.2,0-2.2-1-2.2-2.1c-6.1,0.6-10.8,5.8-10.9,12.1c0,1.2,0.2,2.4,0.5,3.5
			c0,0,0.1,0,0.1,0c1.2,0,2.2,1,2.2,2.2c0,0.5-0.2,1-0.5,1.4c2,2.8,5.2,4.7,8.8,5c0.9,0.1,2.9,0,4-0.3c2.9-0.7,5.4-2.6,7.1-5
			c-0.1-0.3-0.2-0.6-0.2-0.9c0-1,0.7-1.8,1.7-2c0.4-1.2,0.6-2.5,0.6-3.8C126.7,86.1,122.8,81.4,117.7,80z M104.9,88.4
			c-0.6,0-1.2-0.5-1.2-1.2c0-0.6,0.5-1.2,1.2-1.2c0.6,0,1.2,0.5,1.2,1.2C106,87.9,105.5,88.4,104.9,88.4z M124,92.5
			c-0.8,0-1.4-0.6-1.4-1.4c0-0.8,0.6-1.4,1.4-1.4c0.8,0,1.4,0.6,1.4,1.4C125.5,91.9,124.8,92.5,124,92.5z"/>
		<path class="st4" d="M108.7,76.9c0,0.9-0.7,1.6-1.6,1.6c-0.9,0-1.6-0.7-1.6-1.6c0-0.9,0.7-1.6,1.6-1.6
			C108,75.3,108.7,76,108.7,76.9L108.7,76.9z"/>
		<path class="st5" d="M108.8,82.1c0,1.1-0.9,2-2,2c-1.1,0-2-0.9-2-2c0-1.1,0.9-2,2-2C107.9,80.1,108.8,81,108.8,82.1L108.8,82.1z"
			/>
		<path class="st5" d="M103.4,79c0,0.7-0.5,1.2-1.2,1.2c-0.7,0-1.2-0.5-1.2-1.2c0-0.7,0.5-1.2,1.2-1.2
			C102.9,77.9,103.4,78.4,103.4,79L103.4,79z"/>
		<g>
			<circle class="st6" cx="124.9" cy="80.7" r="6.7"/>
			<g>
				<path class="st1" d="M123.2,79.7c-0.6,0.1-0.7,0.7-0.7,1.2l0,0v0c0,0.1,0,0.1,0,0.2c0,0.2,0,0.4,0,0.6c0,0.1,0,0.3-0.1,0.3
					c-0.2,0-0.4-0.3-0.4-0.4c-0.1-0.3-0.2-0.7-0.3-1.1c-0.1-0.4-0.1-0.8-0.1-1.2c0-0.2,0-0.3,0-0.5c0-0.1,0-0.1,0-0.2
					c0,0,0-0.1,0-0.1c0.1-0.3-0.4,0-0.4,0.1c-0.4,0.8-0.3,1.7-0.3,2.6c0,0.2,0,0.5,0,0.7c0,0.2-0.1,0.4-0.2,0.6
					c-0.1,0.1-0.2,0-0.3,0c-0.1-0.1-0.2-0.2-0.2-0.3c0-0.1-0.2-0.1-0.2,0c-0.1,0.1-0.2,0.3-0.2,0.4c0.1,0.3,0.3,0.6,0.6,0.5
					c0.5-0.1,0.7-0.7,0.8-1.2c0.1-0.2,0.1-0.5,0.1-0.7c0.1,0.3,0.2,0.7,0.3,1c0.1,0.2,0.3,0.5,0.6,0.4c0.2,0,0.4-0.3,0.5-0.5
					c0.1,0.2,0.2,0.4,0.5,0.4c0.3,0,0.5-0.3,0.6-0.5c0.1-0.3,0.2-0.6,0.2-0.9C123.9,80.5,123.8,79.7,123.2,79.7z M123.4,81.7
					c0,0.1,0,0.1,0,0.2c-0.1,0-0.2-0.2-0.2-0.2c-0.1-0.2-0.1-0.4-0.1-0.6c0-0.2,0-0.4,0-0.6c0-0.1,0-0.1,0-0.2
					c0.3,0.2,0.3,0.5,0.4,0.8C123.4,81.2,123.4,81.4,123.4,81.7z"/>
				<path class="st1" d="M129.9,80.5c-0.6-0.2-0.9,0.6-1,1c-0.1,0.4-0.2,1.2,0.3,1.4c0.3,0.1,0.6-0.1,0.7-0.2
					c0.2-0.2,0.3-0.5,0.4-0.7C130.3,81.5,130.4,80.7,129.9,80.5z M129.5,82.4c0,0-0.1,0.1-0.1,0.1c-0.1-0.1-0.1-0.2-0.1-0.3
					c0-0.2,0-0.4,0-0.6c0-0.2,0.1-0.4,0.2-0.6c0,0,0.1-0.1,0.1-0.1c0.2,0.3,0.2,0.6,0.1,0.9C129.7,82,129.6,82.3,129.5,82.4z"/>
				<path class="st1" d="M128.3,80.6c0.1-0.2,0.2-0.3,0.3-0.5c0.2-0.3,0.4-0.7,0.4-1.1c0-0.4-0.5-0.4-0.8-0.3
					c-0.4,0.2-0.6,0.6-0.7,1c-0.1,0.5-0.2,1-0.3,1.6v0c-0.2,0.2-0.6,0.7-0.9,0.5c-0.1,0-0.1-0.1-0.1-0.2c0.2-0.3,0.5-0.5,0.7-0.8
					c0.2-0.3,0.3-0.7,0-0.9c-0.3-0.2-0.7,0-0.9,0.3c-0.2,0.2-0.3,0.5-0.3,0.8c0,0.2,0,0.4,0,0.7c-0.2,0.1-0.4,0.2-0.6,0.1
					c-0.2,0-0.3-0.3-0.4-0.5c-0.1-0.3,0-0.6,0-0.9c0-0.1,0-0.2,0.1-0.3c0,0,0,0,0-0.1c0.1,0.1,0.2,0.3,0.2,0.4
					c0.1,0.2,0.6-0.1,0.5-0.3c-0.1-0.2-0.1-0.4-0.4-0.5c-0.2-0.1-0.5,0.1-0.6,0.2c-0.4,0.4-0.4,0.9-0.4,1.4c0,0.3,0.1,0.7,0.4,0.9
					c0.4,0.2,0.9,0,1.2-0.2c0.1,0.2,0.3,0.4,0.6,0.3c0.4,0,0.7-0.2,0.9-0.5c0,0.3,0.1,0.6,0.3,0.7c0.3,0.2,0.7,0,0.9-0.3
					c0.3-0.3,0.4-0.8,0.3-1.3C128.6,80.7,128.4,80.6,128.3,80.6z M126.2,80.4c0-0.1,0.1-0.2,0.1-0.2l0,0c0.1,0,0.2,0.2,0.2,0.3
					c0,0.2-0.2,0.4-0.3,0.6c0,0,0-0.1,0-0.1C126.1,80.8,126.2,80.6,126.2,80.4z M128.2,79.3c0-0.1,0.1-0.2,0.1-0.2c0,0,0,0,0,0
					c0.2,0.3,0,0.6-0.1,0.9c-0.1,0.2-0.3,0.5-0.4,0.7c0-0.2,0.1-0.5,0.1-0.7C128,79.7,128.1,79.5,128.2,79.3z M128,82
					C128,82.1,128,82.1,128,82c-0.1,0.1-0.1,0.1-0.1,0.1c-0.2-0.1-0.2-0.4-0.2-0.5c0-0.1,0-0.2,0-0.3c0.1-0.1,0.1-0.1,0.2-0.2
					c0.1-0.1,0.2,0.1,0.3,0.2C128.2,81.5,128.1,81.8,128,82z"/>
			</g>
		</g>
		<g>
			<path class="st1" d="M112.3,93.7c-0.7,0.1-0.9,0.9-0.9,1.5l0,0v0c0,0.1,0,0.2,0,0.2c0,0.3,0,0.5,0,0.7c0,0.1,0,0.3-0.1,0.3
				c-0.3,0-0.4-0.4-0.5-0.5c-0.2-0.4-0.3-0.9-0.4-1.3c-0.1-0.5-0.1-1-0.2-1.5c0-0.2,0-0.4,0-0.6c0-0.1,0-0.2,0-0.2
				c0-0.1,0-0.1,0-0.1c0.1-0.4-0.5,0-0.6,0.1c-0.6,1-0.4,2.1-0.4,3.2c0,0.3,0,0.6-0.1,0.9c0,0.2-0.1,0.5-0.2,0.7
				c-0.1,0.1-0.3,0-0.4,0c-0.1-0.1-0.2-0.2-0.2-0.4c0-0.2-0.2-0.1-0.3,0c-0.1,0.1-0.2,0.3-0.2,0.5c0.1,0.4,0.4,0.7,0.8,0.6
				c0.6-0.2,0.9-0.9,1-1.5c0.1-0.3,0.1-0.6,0.1-0.8c0.1,0.4,0.2,0.8,0.4,1.2c0.1,0.3,0.4,0.6,0.7,0.5c0.3-0.1,0.4-0.3,0.6-0.6
				c0.1,0.3,0.3,0.5,0.6,0.5c0.3,0,0.6-0.4,0.8-0.7c0.2-0.3,0.2-0.7,0.2-1.1C113.1,94.7,113,93.6,112.3,93.7z M112.5,96.1
				c0,0.1,0,0.1-0.1,0.2c-0.1,0-0.2-0.2-0.3-0.3c-0.1-0.2-0.2-0.5-0.2-0.7c0-0.3,0-0.5,0-0.8c0-0.1,0-0.1,0.1-0.2
				c0.4,0.2,0.4,0.7,0.5,1C112.5,95.6,112.6,95.9,112.5,96.1z"/>
			<path class="st1" d="M120.6,94.7c-0.7-0.3-1.2,0.7-1.3,1.3c-0.1,0.5-0.3,1.5,0.4,1.7c0.3,0.1,0.7-0.1,0.9-0.3
				c0.2-0.3,0.4-0.6,0.5-0.9C121.1,95.9,121.3,94.9,120.6,94.7z M120.2,97.1c0,0.1-0.1,0.1-0.1,0.2c-0.1-0.1-0.2-0.3-0.2-0.4
				c0-0.3,0-0.5,0-0.8c0-0.3,0.1-0.5,0.2-0.7c0-0.1,0.1-0.1,0.1-0.2c0.3,0.3,0.2,0.8,0.1,1.2C120.3,96.6,120.3,96.9,120.2,97.1z"/>
			<path class="st1" d="M118.6,94.8c0.1-0.2,0.3-0.4,0.4-0.6c0.3-0.4,0.5-0.9,0.5-1.4c0-0.5-0.7-0.5-1-0.3c-0.5,0.2-0.8,0.7-0.9,1.2
				c-0.2,0.6-0.3,1.3-0.3,2v0c-0.2,0.3-0.7,0.9-1.1,0.6c-0.1-0.1-0.1-0.2-0.2-0.3c0.3-0.3,0.6-0.7,0.8-1c0.2-0.3,0.4-0.9,0-1.2
				c-0.4-0.2-0.8,0-1.1,0.3c-0.2,0.3-0.4,0.7-0.4,1.1c0,0.2,0,0.5,0,0.9c-0.2,0.1-0.5,0.2-0.7,0.2c-0.3-0.1-0.4-0.4-0.4-0.6
				c-0.1-0.3-0.1-0.7,0-1.1c0-0.1,0-0.2,0.1-0.3c0,0,0-0.1,0-0.1c0.2,0.1,0.3,0.3,0.3,0.5c0.1,0.3,0.7-0.2,0.6-0.4
				c-0.1-0.3-0.2-0.5-0.5-0.6c-0.3-0.1-0.6,0.1-0.8,0.3c-0.4,0.4-0.5,1.1-0.5,1.7c0,0.4,0.1,0.9,0.4,1.1c0.4,0.3,1.1,0,1.5-0.2
				c0.1,0.3,0.3,0.5,0.7,0.4c0.4-0.1,0.9-0.3,1.2-0.6c0,0.3,0.1,0.7,0.3,0.9c0.4,0.2,0.9,0,1.1-0.4c0.3-0.4,0.5-1,0.3-1.6
				C119,94.9,118.8,94.8,118.6,94.8z M116,94.5c0-0.1,0.1-0.2,0.1-0.3l0,0c0.2,0,0.2,0.3,0.2,0.4c0,0.3-0.2,0.6-0.4,0.8
				c0-0.1,0-0.1,0-0.1C115.9,95.1,116,94.8,116,94.5z M118.5,93.2c0.1-0.1,0.1-0.2,0.2-0.3c0,0,0,0,0,0c0.3,0.3,0,0.8-0.1,1.1
				c-0.2,0.3-0.3,0.6-0.5,0.9c0-0.3,0.1-0.6,0.2-0.9C118.2,93.7,118.3,93.4,118.5,93.2z M118.3,96.6c0,0,0,0.1-0.1,0.1
				c0,0,0,0-0.1,0c-0.2-0.1-0.2-0.5-0.2-0.7c0-0.1,0-0.3,0-0.4c0.1-0.1,0.2-0.2,0.2-0.3c0.2-0.1,0.3,0.1,0.3,0.3
				C118.5,95.9,118.4,96.3,118.3,96.6z"/>
		</g>
		<g>
			<g>
				<path class="st1" d="M120.1,90.1c0.2-0.6,0.3-1.3-0.2-1.8c-0.3-0.3-0.7-0.3-1-0.3c0-0.2,0.1-0.5,0.1-0.7c0-0.2-0.4-0.2-0.5-0.1
					c-0.2,0.1-0.4,0.2-0.5,0.4c0,0.9-0.2,1.8-0.4,2.7c-0.2,0.1-0.4,0.2-0.6,0.3c-0.1,0.1-0.2,0.1-0.4,0.1c-0.2-0.1-0.2-0.5-0.2-0.7
					c0-0.8,0-1.7,0.5-2.4c0.1-0.2,0-0.3-0.3-0.3c-0.3,0-0.6,0.2-0.7,0.4c-0.4,0.9-0.5,1.9-0.4,3c0,0.3,0.1,0.6,0.5,0.6
					c0.5,0.1,1-0.2,1.4-0.4c0,0.1,0,0.1,0,0.2c-0.2,0.8-0.4,1.7-0.7,2.5c-0.1,0.2,0.1,0.2,0.2,0.2c0.1,0,0.3-0.2,0.4-0.4
					c0.2-0.6,0.4-1.1,0.6-1.7c0.2,0.1,0.5,0.1,0.8,0C119.4,91.4,119.8,90.8,120.1,90.1z M118.9,88.6
					C118.9,88.6,118.9,88.6,118.9,88.6L118.9,88.6z M118.6,91.2C118.6,91.2,118.6,91.2,118.6,91.2L118.6,91.2z M118.6,91.2
					C118.6,91.2,118.5,91.2,118.6,91.2C118.5,91.2,118.5,91.2,118.6,91.2c-0.3,0-0.4-0.3-0.3-0.6c0,0,0,0,0-0.1
					c0.1-0.5,0.3-1,0.4-1.5c0,0,0,0,0,0c0-0.2,0.1-0.3,0.2-0.4c0,0,0,0,0,0c0,0,0,0,0,0c0.1,0,0.2,0.1,0.2,0.3
					c0.2,0.4,0.1,0.9,0,1.2C119,90.5,118.9,90.9,118.6,91.2z"/>
				<path class="st1" d="M114.5,88.1C114.5,88.1,114.5,88.1,114.5,88.1c-0.1,0-0.1,0-0.1,0c-0.2,0-0.4,0.1-0.6,0.2
					c0-0.3-0.1-0.7-0.1-1c0-0.1-0.3,0-0.4,0c-0.2,0.1-0.5,0.3-0.5,0.5c0,0.4-0.1,0.8-0.2,1.2c-0.1,0.3-0.1,0.7-0.2,1
					c0,0.1-0.1,0.3-0.1,0.4c0,0.1,0,0.1-0.1,0.1c-0.2,0.2-0.4,0.2-0.7,0.2c-0.3-0.1-0.5-0.2-0.7-0.4c-0.5-0.5-0.8-1.2-0.9-1.9
					c-0.1-0.3-0.1-0.7,0-1.1c0-0.1,0-0.3,0.1-0.4c0-0.1,0-0.1,0.1-0.2c0,0,0-0.1,0-0.1c0,0,0,0,0,0c0,0,0,0,0,0c0,0,0,0,0,0
					c0,0,0,0,0,0c0,0,0,0,0.1,0c0,0,0.2-0.1,0.4-0.1c0.6-0.1,0.9,0.4,1,0.7c0.1,0.3,1-0.4,0.9-0.7c-0.2-0.6-0.8-1-1.4-0.9
					c-0.5,0.1-1,0.3-1.3,0.7c-0.7,0.8-0.8,1.9-0.6,2.9c0.2,0.9,0.7,1.7,1.5,2.2c0.3,0.2,0.7,0.3,1,0.2c0.7-0.2,1.2-1,1.5-1.6
					c0,0,0-0.1,0-0.1c0,0,0,0,0,0c0,0.6,0.5,1.3,1.1,1.3c0.7,0,1.2-0.9,1.2-1.6C115.5,89,115.3,88.2,114.5,88.1z M114.6,90.3
					c0,0.1,0,0.1,0,0.1c0,0,0,0-0.1,0c-0.4,0-0.6-0.6-0.6-0.9c0,0,0-0.1,0-0.1l0,0c0-0.1,0-0.1,0-0.2c0-0.1,0-0.3,0.1-0.4
					c0,0,0-0.1,0.1-0.1c0,0,0,0,0,0c0.5,0,0.6,0.6,0.7,0.9C114.7,89.9,114.7,90.1,114.6,90.3z"/>
			</g>
		</g>
		<g>
			<circle class="st6" cx="104.8" cy="102.6" r="3.8"/>
			<path class="st1" d="M102.3,102.4c0.1-0.2,0.2-0.3,0.4-0.5c0.1-0.1,0.1-0.2,0.2-0.2c0.1-0.1,0.1-0.1,0,0c0,0.1,0,0.2,0,0.4
				c0,0.7,0,1.3-0.1,2c0,0.2,0.4-0.1,0.4-0.2c0-0.4,0.1-0.9,0.1-1.3c0-0.2,0.2-1.2-0.1-1.3c-0.4-0.1-0.9,0.9-1.1,1.1
				C101.8,102.6,102.2,102.6,102.3,102.4L102.3,102.4z"/>
			<path class="st1" d="M104.4,102.4c-0.2-0.1-0.6-0.5-0.3-0.7c0.1-0.1,0.3,0,0.4,0c0.3,0.1,0.1,0.4-0.1,0.5
				c-0.1,0.1-0.6,0.5-0.4,0.7c0.3,0.2,0.8,0,0.8,0.5c0,0.3-0.5,0.3-0.7,0.2c-0.3-0.2-0.3-0.5,0.1-0.8c0.2-0.1,0.3-0.5,0-0.4
				c-0.4,0.2-0.8,0.5-0.8,1c0,0.3,0.3,0.6,0.6,0.6c0.4,0,0.9-0.2,1.1-0.6c0.2-0.3,0.2-0.8-0.2-0.9c-0.1,0-0.5-0.1-0.5,0
				c0.2-0.2,0.4-0.3,0.5-0.5c0.3-0.4,0.2-0.8-0.3-0.9c-0.4-0.1-0.8,0.2-1,0.6c-0.3,0.4,0,0.8,0.4,1
				C104.2,102.9,104.6,102.5,104.4,102.4L104.4,102.4z"/>
			<g>
				<path class="st1" d="M107.3,101.5c-0.5,0.8-1.1,1.6-1.7,2.3c-0.2,0.3,0.2,0.3,0.3,0.1c0.6-0.8,1.2-1.6,1.8-2.5
					C107.9,101.1,107.4,101.3,107.3,101.5L107.3,101.5z"/>
				<path class="st1" d="M106.4,101.2c-0.3,0-0.5,0.3-0.6,0.6c0,0.3,0.1,0.5,0.4,0.5C106.8,102.3,107.1,101.3,106.4,101.2
					c-0.1,0-0.4,0.3-0.2,0.3c0.1,0,0.2,0.1,0.2,0.3c0,0,0,0.1,0,0.2c0,0,0,0,0,0c0,0-0.1,0-0.1,0c-0.1,0-0.2-0.1-0.2-0.2
					c0-0.1,0-0.1,0-0.2c0,0,0,0,0,0c0,0,0,0,0.1,0C106.4,101.6,106.6,101.2,106.4,101.2z"/>
				<path class="st1" d="M107.3,103c-0.3,0-0.5,0.3-0.6,0.6c0,0.3,0.1,0.5,0.4,0.5C107.6,104.1,107.9,103,107.3,103
					c-0.1,0-0.4,0.3-0.2,0.3c0.1,0,0.2,0.1,0.2,0.3c0,0,0,0.1,0,0.2c0,0,0,0,0,0c0,0-0.1,0-0.1,0c-0.1,0-0.2-0.1-0.2-0.2
					c0-0.1,0-0.1,0-0.2c0,0,0,0,0,0c0,0,0,0,0.1,0C107.2,103.3,107.5,103,107.3,103z"/>
			</g>
		</g>
		<g>
			<path class="st7" d="M99.7,86.6c-0.1,0-0.1-0.1-0.2-0.1c-0.3-0.1-0.5,0.1-0.7,0.1c-0.6,0-0.8,0-1.5-0.2c0-0.6,0.3-1,0.5-1.4
				c0.1-0.4-0.1-0.9-0.1-1.4c0-0.3,0-0.6,0-0.9c-0.2,0.2-0.1,0.7-0.1,1c-0.1-0.4-0.1-0.8-0.2-1.1c-0.1,0.3,0,0.8,0,1.1
				c-0.1-0.3-0.1-0.7-0.3-1c-0.2,0.3,0.1,0.8,0.1,1.1c-0.1-0.3-0.2-0.6-0.3-0.9c-0.1,0.4,0.1,0.7,0.1,1c-0.1-0.2-0.2-0.5-0.4-0.7
				c0,0.2,0.2,0.5,0.3,0.8c-0.2-0.1-0.2-0.3-0.4-0.4c0,0.2,0.2,0.3,0.2,0.5c-0.1-0.1-0.2-0.2-0.3-0.2c0,0.2,0.2,0.2,0.2,0.4
				c-0.1-0.1-0.2-0.1-0.3-0.2c0,0.1,0.2,0.2,0.2,0.3c0,0-0.1-0.1-0.1,0c0,0,0.1,0.1,0.1,0.1c0,0-0.1,0-0.1,0c0,0.1,0.1,0.1,0.1,0.2
				c0,0,0,0-0.1,0c0,0.1,0.1,0.1,0.1,0.1c-0.5,0.5-0.2,1.1-0.3,1.7c0-0.1-0.4-0.2-0.7-0.3c-0.2-0.1-0.2-0.3-0.4-0.4c0,0,0,0,0.1-0.1
				c-0.1,0-0.1,0-0.1-0.1c0.1,0,0.2,0,0.2,0c-0.1-0.1-0.3-0.1-0.3-0.2c0.1,0,0.2,0.1,0.3,0.1c-0.1-0.1-0.4-0.2-0.4-0.3
				c0.1,0,0.3,0.2,0.4,0.1c-0.2-0.1-0.5-0.3-0.6-0.4c0.2,0.1,0.3,0.3,0.5,0.2c-0.3-0.1-0.5-0.4-0.7-0.4c0.1,0.2,0.5,0.4,0.6,0.5
				c-0.2-0.1-0.4-0.2-0.6-0.3c0.1,0.2,0.3,0.3,0.5,0.5c-0.2,0-0.3-0.1-0.5-0.1c0.1,0.2,0.3,0.1,0.4,0.3c-0.1,0-0.2,0-0.3,0
				c0,0.1,0.2,0.1,0.3,0.2c-0.1,0-0.2,0-0.3,0.1c0.1,0.1,0.2,0,0.3,0.1c-0.1,0-0.1,0-0.1,0.1c0,0.1,0.2,0,0.2,0.1c0,0-0.1,0-0.1,0.1
				c0,0,0.1,0,0.1,0c0,0,0,0-0.1,0.1c0.3,0.1,0.4,0.6,0.8,0.7c-0.2,0.1,0.2,0.3-2.1,1.1c0.1,0,1-0.2,1.3-0.3
				c0.3-0.1,0.6-0.2,0.9-0.3c0.1,0,0.1,0,0.2-0.1c0.5,0,0.9,0,1.4-0.3c-0.4,0.1-1,0.1-1.2-0.1c0.3-0.5,0.1-1.7,0.3-2
				c0.3-0.2,0.6-1.1,1.1-0.4c0.1,0.1,0.1,0.3-0.1,0.6c-0.2,0.4-0.3,0.5-0.3,1.3c0,0.2,0,0.3-0.2,0.3c1,0.2,1.3,0.1,1.9,0
				c0.2,0,0.5-0.2,0.5,0c0,0.1-0.2,0.1-0.4,0.1c-0.3,0,0.1,0.1,0.3,0.1c0.1,0,0.6-0.1,0.9-0.1C100,86.7,99.9,86.7,99.7,86.6z"/>
			<path class="st7" d="M96.7,81.4c-2.3,0-4.2,1.9-4.2,4.2c0,2.3,1.9,4.2,4.2,4.2c2.3,0,4.2-1.9,4.2-4.2
				C100.9,83.3,99.1,81.4,96.7,81.4 M96.7,81.6c2.2,0,4.1,1.8,4.1,4.1c0,2.2-1.8,4.1-4.1,4.1c-2.2,0-4.1-1.8-4.1-4.1
				C92.7,83.4,94.5,81.6,96.7,81.6"/>
		</g>
	</g>
	<g>
		<circle class="st8" cx="120.8" cy="108.1" r="4.1"/>
	</g>
	<path class="st8" d="M93.2,98.2c-0.2,0-0.4,0-0.6,0c0.9,2.8,2.2,5.4,3.9,7.7c0.8-0.8,1.3-1.9,1.3-3.2
		C97.8,100.3,95.7,98.2,93.2,98.2z"/>
	<circle class="st8" cx="134.4" cy="90.3" r="3.1"/>
	<path class="st8" d="M133.2,102.7c0,0.8,0.2,1.5,0.6,2.1c1.3-1.9,2.4-4.1,3.2-6.4C134.8,98.8,133.2,100.6,133.2,102.7z"/>
	<path class="st8" d="M114.6,68.2c-0.9,0-1.8,0-2.7,0.1c0,0,0,0.1,0,0.1c0,2.6,2.1,4.7,4.7,4.7c2.4,0,4.3-1.8,4.6-4.1
		C119.1,68.5,116.8,68.2,114.6,68.2z"/>
</g>
<circle class="st1" cx="70.3" cy="76.9" r="3.8"/>
<path class="st1" d="M62.1,120.6c-1.4,0-2.7-0.8-3.3-2.2l-8.2-19.1l0.7-1.4c2.5-5.4,8.7-14.2,9-14.6c1.1-1.6,3.4-2,5-0.8
	c1.6,1.1,2,3.4,0.8,5c-0.1,0.1-5.1,7.1-7.6,12l6.9,16.2c0.8,1.8-0.1,3.9-1.9,4.7C63.1,120.5,62.6,120.6,62.1,120.6z"/>
</svg>
