<?xml version="1.0" encoding="utf-8"?>
<!-- Generator: Adobe Illustrator 19.0.0, SVG Export Plug-In . SVG Version: 6.00 Build 0)  -->
<svg version="1.1" xmlns="http://www.w3.org/2000/svg" xmlns:xlink="http://www.w3.org/1999/xlink" x="0px" y="0px"
	 viewBox="0 0 219 227.7" style="enable-background:new 0 0 219 227.7;" xml:space="preserve">
<style type="text/css">
	.st0{fill:#519E38;}
	.st1{fill:#E2E2E2;}
	.st2{fill:#D3D3D3;}
	.st3{fill:#444444;}
	.st4{fill:#FFFFFF;}
	.st5{fill:#0E3656;}
	.st6{fill:#1669B3;}
	.st7{fill:#EDEDED;}
	.st8{fill:none;stroke:#636363;stroke-width:0.75;}
	.st9{fill:#636363;}
	.st10{fill:#1E1E1E;}
</style>
<g id="milk">
	<path id="XMLID_60_" class="st0" d="M146.2,54.8H145v-7.2h5.7c1.7,0,3-1.4,3-3c0-1.7-1.4-3-3-3H145v-8.1h0c2,0,3.7-1.6,3.7-3.7
		c0-2-1.6-3.7-3.7-3.7H66.6c-2,0-3.7,1.6-3.7,3.7c0,2,1.6,3.7,3.7,3.7h0.8v8.1h-6.7c-1.7,0-3,1.4-3,3c0,1.7,1.4,3,3,3h6.7v7.2h-2
		c-7.7,0-13.9,6.2-13.9,13.9v118.6c0,7.7,6.2,13.9,13.9,13.9h80.8c7.7,0,13.9-6.2,13.9-13.9V68.7C160.1,61,153.9,54.8,146.2,54.8z"
		/>
	<path id="XMLID_59_" class="st1" d="M153.3,180.9c0,7.7-6.2,13.9-13.9,13.9H58.7c-7.7,0-13.9-6.2-13.9-13.9V62.4
		c0-7.7,6.2-13.9,13.9-13.9h80.8c7.7,0,13.9,6.2,13.9,13.9V180.9z"/>
	<rect id="XMLID_58_" x="60.7" y="27" class="st2" width="77.5" height="21.5"/>
	<path id="XMLID_57_" class="st3" d="M141.9,23.4c0,2-1.6,3.7-3.7,3.7H59.9c-2,0-3.7-1.6-3.7-3.7l0,0c0-2,1.6-3.7,3.7-3.7h78.3
		C140.2,19.7,141.9,21.3,141.9,23.4L141.9,23.4z"/>
	<path id="XMLID_56_" class="st3" d="M68.4,38.2c0,1.7-1.4,3-3,3H54c-1.7,0-3-1.4-3-3l0,0c0-1.7,1.4-3,3-3h11.4
		C67.1,35.1,68.4,36.5,68.4,38.2L68.4,38.2z"/>
	<path id="XMLID_31_" class="st3" d="M148.4,38.2c0,1.7-1.4,3-3,3H134c-1.7,0-3-1.4-3-3l0,0c0-1.7,1.4-3,3-3h11.4
		C147,35.1,148.4,36.5,148.4,38.2L148.4,38.2z"/>
	<path id="XMLID_55_" class="st4" d="M64.2,74.4c0,2.5-2,4.5-4.5,4.5l0,0c-2.5,0-4.5-2-4.5-4.5v-9.3c0-2.5,2-4.5,4.5-4.5l0,0
		c2.5,0,4.5,2,4.5,4.5V74.4z"/>
	<path id="XMLID_50_" class="st5" d="M131.1,110.9c-3.7-1.2-5.7,3.5-6.3,6.2c0,0.1,0,0.1,0,0.2l0,0c-0.6,2.8-1.6,4.1-1.8,4
		c-0.8-0.3-0.6-1.5-0.6-2.3c0-1.2,0.2-2.5-0.5-3.7c-0.5-0.9-1.5-1.1-2.5-1.1c0.1-0.2,0.1-0.3,0.2-0.5c0.1-0.2,0.2-0.4,0.3-0.5
		c0.4-0.9,0.9-1.8,1.7-2.5c0,0,0,0,0,0c0,0,0,0,0.1,0c0.4,0.1,0.8,0.6,1,0.8c1,1,4-0.6,3.1-1.6c-1.2-1.4-2.6-1.6-3.9-1.3
		c-0.9,0.2-1.8,0.6-2.5,1.2c-0.1,0.1-0.3,0.2-0.4,0.3c0.1-1.6,0.1-3.2-0.1-4.7c-0.1-0.9-2-0.4-2.9,0.4c-0.2,0.1-0.3,0.3-0.4,0.5
		c0,0,0,0,0,0v0c-0.3,1.1-2.3,1.7-4,0.2c0,0,0,0,0,0c-0.4-0.4-0.9-0.6-1.6-0.6c-3.8-0.3-5.1,4-5.5,7l0,0c-0.1,1.9-1.3,4.5-2.3,4.9
		c-0.3-0.2-0.4-0.5-0.5-0.8c-0.4-0.9-0.6-2-0.7-2.9c-0.3-2.7-0.4-5.5-0.3-8.3c0-0.5-0.5-0.7-1.1-0.6c-1,0.2-1.7,0.9-2,1.7
		c-1.1,2.5-1.7,5.2-2,7.9c-0.1,0.7-0.2,1.5-0.3,2.2c0,0.3-0.1,0.6-0.1,0.9c-0.6,0-1.1-0.6-1.1-1.1c0-1-1.2-0.5-2.1,0.2
		c0.5-1.4,0.7-2.9,0.7-4.3c0-2.5-0.7-7.4-4.1-7.2c-3.6,0.3-4.4,4.9-4.5,7.8c-0.1,2.7-0.2,5.1-0.3,5.5c-1.6,0.2-2.5-1.5-2.9-2.4
		c-0.8-1.9-1.2-3.9-1.4-5.9c-0.4-3.4-0.7-6.7-0.5-10.1c0-0.6-0.7-0.6-1.2-0.3c-0.8,0.4-1.4,1-1.7,1.7c-1.1,2.5-1.3,5.2-1.5,7.9
		c0,0,0,0.1,0,0.1c0-0.2-0.1-0.5-0.1-0.7c-0.4-2.1-0.7-4.2-1-6.3c-0.2-1.3-0.4-3-0.2-4.1c0.3-1.8-2.2,0-2.6,0.8
		c-2.4,4.8-1.6,10.2-1.3,15.6c0.1,1.4,0,2.7-0.2,4.1c-0.1,0.9-0.3,2.6-1.1,3.4c-0.5,0.5-1.4,0.1-1.8-0.1c-0.6-0.4-1.1-1.1-1.2-1.8
		c-0.1-0.8-1-0.3-1.4,0.1c-0.6,0.6-1.2,1.6-1,2.4c0.3,1.8,1.9,3.5,3.9,2.8c3.1-1,4.4-4.7,5.1-7.7c0.4-1.7,0.5-3.4,0.5-5.2
		c0.7,3.1,1.3,6.2,2,9.4c0.3,1.6,2.6-1.2,2.6-2.1c0-2.3,0.1-4.5,0.2-6.8c0.4,2.7,1.2,8.8,5.2,8.2c1.6-0.3,2.6-1.5,3.1-2.9
		c0.6,1.2,1.5,2.2,2.9,2.1c1.3-0.1,2.5-1.2,3.3-2.4c0.2,1.1,0.8,1.9,2.1,1.9c1.6,0.1,3.1-0.9,3.9-2.1c0.4-0.5,0.6-1.1,0.8-1.7
		c0.1,0.3,0.1,0.5,0.2,0.8c0.2,0.9,0.5,2,1.3,2.6c0.8,0.8,2.1,0.2,2.9-0.3c0.9-0.6,1.6-1.5,2.1-2.5c0.3,1.8,1,3.5,2.9,3.8
		c1.7,0.3,3.3-1.2,4.1-2.4c1-1.4,1.4-3.1,1.6-4.8c0.1-1,0.2-2.8-0.1-4.5c1.2,0,2.1-0.4,2.7-0.9c-0.2,4.4-0.8,8.7-1.5,13.1
		c-0.1,0.8,0.7,0.8,1.3,0.7c0.7-0.2,1.6-0.8,1.8-1.5c0.3-1.3,0.7-2.6,1.1-3.9c1.6,1.8,0.2,4.4,1.4,6.1c0.6,0.9,2.7,0.9,3.6,0.3
		c0.4-0.2,0.7-0.5,1-0.8c0.2,1.4,0.8,2.6,2.2,3.1c1.6,0.6,3.4-0.5,4.3-1.5c1.1-1.2,1.8-2.9,2.2-4.5
		C133.7,116.9,134.4,112.1,131.1,110.9z M89.6,117.2c-0.1,0.3-0.2,0.7-0.3,1c-0.6-0.1-1.1-1.1-1.3-1.5c-0.5-1.1-0.7-2.4-0.8-3.6
		c-0.1-1.3-0.1-2.6,0.2-3.8c0.1-0.3,0.2-0.6,0.3-0.9c1.6,0.4,2,4,2.1,5.1C89.9,114.6,89.9,116,89.6,117.2z M109.5,117.7
		c-0.1,0.3-0.2,0.6-0.4,0.9c-0.6-0.2-1-1.3-1.1-1.8c-0.4-1.2-0.4-2.5-0.4-3.7c0.1-1.3,0.3-2.5,0.7-3.7c0.1-0.3,0.2-0.6,0.4-0.9
		c1.5,1.3,1.5,3.6,1.4,5.4C110.1,115.3,109.9,116.6,109.5,117.7z M128.9,122.5c-0.1,0.3-0.3,0.6-0.5,0.8c-0.6-0.4-0.8-1.5-0.8-2
		c-0.2-1.3-0.1-2.6,0.2-3.7c0.2-1.2,0.6-2.5,1.2-3.6c0.1-0.3,0.3-0.6,0.5-0.8c1.2,1.7,1.1,3.8,0.7,5.7
		C129.8,120.1,129.5,121.4,128.9,122.5z"/>
</g>
<g id="clock">
	<g id="XMLID_29_">
		<circle id="XMLID_49_" class="st6" cx="154.4" cy="187.1" r="30.3"/>
		<circle id="XMLID_48_" class="st7" cx="154.4" cy="187.1" r="25"/>
		<ellipse id="XMLID_47_" class="st8" cx="154.4" cy="187.1" rx="23" ry="23.1"/>
		<rect id="XMLID_46_" x="153.4" y="164.1" class="st9" width="1.9" height="5.1"/>
		
			<rect id="XMLID_45_" x="142.6" y="167.5" transform="matrix(0.8118 -0.5839 0.5839 0.8118 -72.2558 115.7896)" class="st9" width="1.9" height="5.1"/>
		
			<rect id="XMLID_44_" x="136" y="174.5" transform="matrix(0.4665 -0.8845 0.8845 0.4665 -83.5041 215.5756)" class="st9" width="1.9" height="5.1"/>
		
			<rect id="XMLID_43_" x="164.6" y="167.1" transform="matrix(-0.8118 -0.5839 0.5839 -0.8118 200.8148 404.0595)" class="st9" width="1.9" height="5.1"/>
		
			<rect id="XMLID_42_" x="171.4" y="174.5" transform="matrix(-0.4665 -0.8845 0.8845 -0.4665 96.1601 412.0136)" class="st9" width="1.9" height="5.1"/>
		
			<rect id="XMLID_41_" x="142.6" y="202" transform="matrix(0.8119 0.5838 -0.5838 0.8119 146.4413 -45.3109)" class="st9" width="1.9" height="5.1"/>
		
			<rect id="XMLID_40_" x="135.3" y="193.9" transform="matrix(0.4665 0.8845 -0.8845 0.4665 246.4387 -15.7043)" class="st9" width="1.9" height="5.1"/>
		
			<rect id="XMLID_39_" x="165" y="201.6" transform="matrix(-0.8119 0.5838 -0.5838 -0.8119 419.9651 273.0383)" class="st9" width="1.9" height="5.1"/>
		
			<rect id="XMLID_38_" x="171.5" y="194.2" transform="matrix(-0.4665 0.8845 -0.8845 -0.4665 427.012 136.0075)" class="st9" width="1.9" height="5.1"/>
		<rect id="XMLID_37_" x="153.4" y="205.5" class="st9" width="1.9" height="5.1"/>
		<rect id="XMLID_36_" x="172.5" y="186.2" class="st9" width="5.1" height="1.9"/>
		<rect id="XMLID_35_" x="131.2" y="186.2" class="st9" width="5.1" height="1.9"/>
		<circle id="XMLID_34_" class="st10" cx="154.7" cy="186.4" r="1.8"/>
	</g>
</g>
<g id="minute_x5F_arrow">
	
		<rect id="XMLID_33_" x="157" y="168.9" transform="matrix(0.9386 0.3451 -0.3451 0.9386 71.147 -43.4863)" class="st10" width="1.4" height="18.3"/>
</g>
<g id="hour_x5F_arrow">
	
		<rect id="XMLID_32_" x="159.9" y="181.3" transform="matrix(-0.1079 0.9942 -0.9942 -0.1079 363.973 47.6709)" class="st10" width="1.4" height="11.7"/>
</g>
</svg>
