<?xml version="1.0" encoding="utf-8"?>
<!-- Generator: Adobe Illustrator 19.0.0, SVG Export Plug-In . SVG Version: 6.00 Build 0)  -->
<svg version="1.1" id="Layer_1" xmlns="http://www.w3.org/2000/svg" xmlns:xlink="http://www.w3.org/1999/xlink" x="0px" y="0px"
	 viewBox="0 0 45.1 49" style="enable-background:new 0 0 45.1 49;" xml:space="preserve">
<style type="text/css">
	.st0{fill:#62BB46;}
	.st1{fill:#FFFFFF;}
</style>
<circle class="st0" cx="22.6" cy="24.9" r="18.7"/>
<path class="st1" d="M36,29.8c-0.3-0.1-0.5-0.5-0.8-0.6c-1.2-0.4-2,0.3-3.1,0.3c-2.6,0.1-3.6,0-6.7-0.9c-0.1-2.7,1.5-4.4,2.3-6.5
	c0.7-1.9-0.2-4-0.4-6.2c-0.1-1.3,0.1-2.6,0-3.9c-0.9,0.8-0.5,3.3-0.6,4.5c-0.4-1.6-0.3-3.8-0.9-5.1c-0.4,1.6,0.1,3.7,0,5.1
	c-0.4-1.5-0.6-3.2-1.1-4.5c-0.7,1.5,0.4,3.7,0.3,5c-0.6-1.3-0.8-2.9-1.5-4c-0.2,1.8,0.6,3.2,0.5,4.4c-0.5-1-0.8-2.3-1.6-3.1
	c0,1.1,0.7,2.5,1.1,3.5c-0.7-0.4-1-1.3-1.8-1.6c0.1,0.9,0.7,1.4,1,2.1c-0.5-0.3-0.8-0.9-1.4-1.1c0,0.8,0.7,1,0.9,1.7
	c-0.4-0.3-0.7-0.6-1.1-0.7c0,0.6,0.9,1,0.8,1.3c-0.1-0.1-0.6-0.3-0.6,0c0.1,0.1,0.7,0.4,0.4,0.5c-0.2,0-0.4,0-0.5-0.1
	c-0.1,0.4,0.4,0.3,0.4,0.7c-0.2,0-0.2-0.2-0.4-0.1c-0.1,0.4,0.3,0.2,0.3,0.6c-2.3,2.3-1,4.9-1.3,7.6c0.1-0.4-1.8-0.8-3.4-1.4
	c-0.8-0.3-1-1.3-1.7-1.6c0-0.2,0.2-0.1,0.2-0.2c-0.2-0.1-0.5-0.2-0.6-0.5c0.3-0.1,0.8,0.1,0.9-0.1c-0.4-0.2-1.5-0.5-1.3-0.9
	c0.6,0,1.1,0.3,1.5,0.2c-0.7-0.3-1.8-0.8-1.8-1.3c0.5,0.2,1.4,0.8,2,0.5c-0.9-0.5-2.3-1.2-2.5-2c0.7,0.3,1.6,1.2,2.3,1.1
	c-1.2-0.3-2-1.6-3.2-1.6c0.5,1,2.1,1.6,2.5,2.3c-0.8-0.5-1.8-0.9-2.7-1.3c0.4,1.1,1.6,1.4,2.4,2.1c-0.8-0.1-1.3-0.5-2.1-0.5
	c0.2,0.9,1.6,0.7,2,1.3c-0.3-0.2-0.9-0.1-1.4-0.1c0.1,0.6,1,0.4,1.4,0.7c-0.5,0-0.9,0-1.1,0.2c0.3,0.3,0.9,0.2,1.1,0.5
	c-0.3,0-0.6,0-0.6,0.2c0.1,0.2,0.7,0,0.8,0.2c-0.2,0.1-0.3,0.2-0.3,0.4c0.2,0,0.5,0,0.5,0.1c-0.1,0-0.2,0.1-0.3,0.2
	c1.2,0.6,1.9,2.6,3.5,3.2c-0.9,0.7,0.9,1.2-9.7,4.9c0.4,0,4.6-1.1,5.9-1.5c1.3-0.4,2.6-0.8,3.9-1.2c0.3-0.1,0.6-0.2,0.9-0.2
	c2.2-0.2,4.2,0.2,6.3-1.2c-1.7,0.3-4.4,0.6-5.5-0.4c1.5-2.2,0.4-7.9,1.6-9.2c1.2-1.1,2.9-4.8,5.1-1.7c0.4,0.5,0.4,1.2-0.4,2.5
	c-1,1.6-1.6,2.3-1.4,5.8c0,0.7,0.1,1.5-1.1,1.4c4.6,1,5.9,0.5,8.6,0.1c0.9-0.1,2.2-0.8,2.3,0c0,0.3-0.9,0.3-1.6,0.3
	c-1.3,0,0.5,0.5,1.2,0.4c0.3,0,2.7-0.3,4-0.5C37.4,30,36.8,30,36,29.8z"/>
<path class="st0" d="M22.5,6.2C12,6.2,3.5,14.8,3.5,25.3c0,10.5,8.5,19.1,19.1,19.1c10.5,0,19.1-8.5,19.1-19.1
	C41.6,14.8,33.1,6.2,22.5,6.2 M22.5,6.9c10.1,0,18.4,8.2,18.4,18.4c0,10.1-8.2,18.4-18.4,18.4c-10.1,0-18.4-8.2-18.4-18.4
	C4.2,15.2,12.4,6.9,22.5,6.9"/>
</svg>
