<?xml version="1.0" encoding="utf-8"?>
<!-- Generator: Adobe Illustrator 19.0.0, SVG Export Plug-In . SVG Version: 6.00 Build 0)  -->
<svg version="1.1" id="Layer_1" xmlns="http://www.w3.org/2000/svg" xmlns:xlink="http://www.w3.org/1999/xlink" x="0px" y="0px"
	 viewBox="0 0 204.7 159.1" style="enable-background:new 0 0 204.7 159.1;" xml:space="preserve">
<style type="text/css">
	.st0{fill:#D3D3D3;}
	.st1{fill:#969696;}
	.st2{fill:#D6D6D6;}
	.st3{fill:#FFFFFF;}
	.st4{fill:#FC315B;}
	.st5{fill:#62BA47;}
</style>
<path class="st0" d="M186.9,25.5c-40,15.2-43.2,54.6-43.4,63.2c-3.3-3.3-10.8-4.8-17.2-5.5c0-6.8-1-13.5-3.2-20
	c-0.9-2.6-1.8-5-2.9-7.2c2.3-2.8,3.6-5.9,3.6-9.3c0-1.5-0.2-2.9-0.7-4.3c0.5-1.4,0.7-2.8,0.7-4.3c0-12-16.5-21.5-37.6-21.5
	c-21.1,0-37.6,9.4-37.6,21.5c0,1.5,0.2,2.9,0.7,4.3c-0.5,1.4-0.7,2.8-0.7,4.3c0,3.3,1.3,6.5,3.6,9.3c-1,2.2-2,4.5-2.9,7
	c-3.1,9.3-4,19.1-2.6,29c1.7,12.3,6.9,24.9,15.5,37.5c3.4,7,13,11.7,24,11.7c0.1,0,0.3,0,0.4,0c0.1,0,0.2,0,0.3,0
	c6.6,0,12.8-1.7,17.5-4.7c3.9-2.5,6.5-5.8,7.4-9.4c2.5-3.8,4.6-7.6,6.5-11.4c3.6-0.2,12.2-1.5,19.4-10.4c0.5,0,1,0,1.7-0.1
	c9.4-1,8-12.2,8-12.2c-0.3-45.9,47.7-59.4,47.7-65.2S186.9,25.5,186.9,25.5z M65.4,23.6c1.3-0.5,2.7-1,4.2-1.4
	c1.5-0.4,3-0.8,4.6-1.1c3.7-0.7,7.7-1.1,11.9-1.1h0c-4.2,0-8.2,0.4-11.9,1.1c-1.6,0.3-3.1,0.7-4.6,1.1
	C68.1,22.6,66.7,23.1,65.4,23.6c-2.7,1.1-5,2.3-7,3.7C60.4,25.9,62.7,24.7,65.4,23.6z"/>
<path class="st1" d="M135.4,88.4c0,0-1.6-47.8,43.4-64.9c0,0,8-3.3,8,2.5s-48,19.3-47.7,65.2c0,0,1.4,11.2-8,12.2
	c-9.4,1,1.6-6.1,1.6-6.1l0.6-0.2L135.4,88.4z"/>
<path class="st2" d="M97.6,38H78.1H58.5c0,0-39,34.5-2.3,88.3c2.8,6,11.5,10.4,21.8,10.4c10,0,18.5-4.2,21.6-10
	C136.9,72.7,97.6,38,97.6,38z"/>
<path class="st3" d="M97.6,38c0,0,39.2,34.7,2,88.8c-3,5.8-11.5,10-21.6,10c-10.3,0-19-4.4-21.8-10.4C19.5,72.5,58.5,38,58.5,38
	h19.6H97.6 M98.6,35.4h-1H78.1H58.5h-1l-0.7,0.7c-0.4,0.4-10.3,9.3-15.7,25.1c-3.1,9.3-4,19.1-2.6,29c1.7,12.3,6.9,24.9,15.5,37.5
	c3.4,7,13,11.7,24,11.7c10.7,0,20.2-4.5,23.8-11.3c8.7-12.6,14-25.3,15.8-37.7c1.4-10,0.6-19.8-2.5-29.2
	c-5.3-15.9-15.3-24.8-15.7-25.2L98.6,35.4L98.6,35.4z"/>
<ellipse class="st2" cx="78.8" cy="122.2" rx="22.7" ry="14.6"/>
<path class="st3" d="M78.8,107.5c12.5,0,22.7,6.6,22.7,14.6s-10.2,14.6-22.7,14.6s-22.7-6.6-22.7-14.6S66.3,107.5,78.8,107.5
	 M78.8,104.9c-6.6,0-12.8,1.7-17.5,4.7c-5.1,3.3-7.8,7.7-7.8,12.5s2.8,9.3,7.8,12.5c4.7,3,10.9,4.7,17.5,4.7s12.8-1.7,17.5-4.7
	c5.1-3.3,7.8-7.7,7.8-12.5s-2.8-9.3-7.8-12.5C91.6,106.6,85.4,104.9,78.8,104.9L78.8,104.9z"/>
<g>
	<path id="XMLID_19_" class="st4" d="M95.8,45.4H78.1H60.4c0,0-35.3,29.8-2,76.4c2.5,5.2,10.4,9,19.7,9c0.1,0,0.2,0,0.3,0
		c0.1,0,0.3,0,0.4,0c10.3,0,18.9-4.7,20.3-10.8C130.2,74.4,95.8,45.4,95.8,45.4z"/>
</g>
<ellipse class="st2" cx="78.1" cy="44.9" rx="34.6" ry="18.4"/>
<path class="st3" d="M78.1,26.5c19.1,0,34.6,8.2,34.6,18.4c0,10.2-15.5,18.4-34.6,18.4S43.5,55,43.5,44.9
	C43.5,34.7,59,26.5,78.1,26.5 M78.1,23.4c-21.1,0-37.6,9.4-37.6,21.5c0,12,16.5,21.5,37.6,21.5s37.6-9.4,37.6-21.5
	C115.7,32.8,99.2,23.4,78.1,23.4L78.1,23.4z"/>
<ellipse class="st2" cx="78.1" cy="36.4" rx="34.6" ry="18.4"/>
<path class="st3" d="M78.1,18c19.1,0,34.6,8.2,34.6,18.4S97.2,54.8,78.1,54.8s-34.6-8.2-34.6-18.4S59,18,78.1,18 M78.1,14.9
	c-21.1,0-37.6,9.4-37.6,21.5S57,57.8,78.1,57.8s37.6-9.4,37.6-21.5S99.2,14.9,78.1,14.9L78.1,14.9z"/>
<g>
	<path class="st5" d="M53.9,71.4c0,0-3.9,9.5,0.7,22.1"/>
	<path class="st3" d="M55.2,96.5c-1.5,0.3-3-0.5-3.6-2c-5-13.5-0.8-23.9-0.7-24.3c0.7-1.6,2.5-2.3,4.1-1.7c1.6,0.7,2.3,2.5,1.7,4
		c-0.1,0.2-3.4,8.7,0.7,19.8c0.6,1.6-0.2,3.4-1.8,4C55.5,96.4,55.3,96.5,55.2,96.5z"/>
</g>
<path class="st1" d="M80.3,90.6c0,0-0.5,23.3,28.1,23.3c0,0,19.3,2,28.1-23.3H80.3z"/>
<ellipse class="st2" cx="107" cy="90.6" rx="28.1" ry="7.3"/>
<path class="st4" d="M135.2,92.8c-3.6-2.9-14.2-5.1-26.8-5.1c-12.6,0-23.2,2.1-26.8,5.1c3.6,2.9,14.2,5.1,26.8,5.1
	C120.9,97.8,131.6,95.7,135.2,92.8z"/>
<path class="st3" d="M107.6,83.7c14.7,0,26.5,3.1,26.5,6.9c0,3.8-11.9,6.9-26.5,6.9c-14.7,0-26.5-3.1-26.5-6.9
	C81.1,86.8,93,83.7,107.6,83.7 M107.6,80.7c-3,0-29.5,0.3-29.5,9.9s26.5,9.9,29.5,9.9s29.5-0.3,29.5-9.9S110.7,80.7,107.6,80.7
	L107.6,80.7z"/>
<path class="st3" d="M96.6,108.9c-0.2,0-0.4,0-0.7-0.1c-6-1.4-8.6-5.6-8.9-6.1c-0.8-1.4-0.3-3.3,1.1-4.1c1.4-0.8,3.2-0.3,4.1,1.1
	c0.1,0.2,1.6,2.5,5.1,3.3c1.6,0.4,2.6,2,2.3,3.6C99.2,107.9,98,108.9,96.6,108.9z"/>
</svg>
