<?xml version="1.0" encoding="utf-8"?>
<!-- Generator: Adobe Illustrator 19.0.0, SVG Export Plug-In . SVG Version: 6.00 Build 0)  -->
<svg version="1.1" id="Layer_1" xmlns="http://www.w3.org/2000/svg" xmlns:xlink="http://www.w3.org/1999/xlink" x="0px" y="0px"
	 viewBox="0 0 272.5 194.6" style="enable-background:new 0 0 272.5 194.6;" xml:space="preserve">
<style type="text/css">
	.st0{fill:#D6D6D6;}
	.st1{fill:#FFFFFF;}
	.st2{fill:#FC315B;}
	.st3{fill:#62BA47;}
	.st4{fill:#0E3656;}
	.st5{fill:#446666;}
	.st6{fill:#D3D3D3;}
	.st7{fill:#9B4B29;}
	.st8{fill:#EAEAEA;}
	.st9{fill:#231F20;}
	.st10{fill:#8C8C8C;}
	.st11{fill:#E51A4B;}
</style>
<path id="XMLID_108_" class="st0" d="M144.1,43.2h-19.6H105c0,0-39,34.5-2.3,88.3c2.8,6,11.5,10.4,21.8,10.4c10,0,18.5-4.2,21.6-10
	C183.3,77.9,144.1,43.2,144.1,43.2z"/>
<path id="XMLID_105_" class="st1" d="M144.1,43.2c0,0,39.2,34.7,2,88.8c-3,5.8-11.5,10-21.6,10c-10.3,0-19-4.4-21.8-10.4
	C66,77.7,105,43.2,105,43.2h19.6H144.1 M145.1,40.6h-1h-19.6H105h-1l-0.7,0.7c-0.4,0.4-10.3,9.3-15.7,25.1c-3.1,9.3-4,19.1-2.6,29
	c1.7,12.3,6.9,24.9,15.5,37.5c3.4,7,13,11.7,24,11.7c10.7,0,20.2-4.5,23.8-11.3c8.7-12.6,14-25.3,15.8-37.7
	c1.4-10,0.6-19.8-2.5-29.2c-5.3-15.9-15.3-24.8-15.7-25.2L145.1,40.6L145.1,40.6z"/>
<ellipse id="XMLID_104_" class="st0" cx="125.3" cy="127.3" rx="22.7" ry="14.6"/>
<path id="XMLID_101_" class="st1" d="M125.3,112.7c12.5,0,22.7,6.6,22.7,14.6S137.8,142,125.3,142s-22.7-6.6-22.7-14.6
	S112.7,112.7,125.3,112.7 M125.3,110.1c-6.6,0-12.8,1.7-17.5,4.7c-5.1,3.3-7.8,7.7-7.8,12.5c0,4.8,2.8,9.3,7.8,12.5
	c4.7,3,10.9,4.7,17.5,4.7c6.6,0,12.8-1.7,17.5-4.7c5.1-3.3,7.8-7.7,7.8-12.5c0-4.8-2.8-9.3-7.8-12.5
	C138,111.8,131.8,110.1,125.3,110.1L125.3,110.1z"/>
<g id="XMLID_98_">
	<path id="XMLID_46_" class="st2" d="M142.2,50.5h-17.7h-17.7c0,0-35.3,29.8-2,76.4c2.5,5.2,10.4,9,19.7,9c0.1,0,0.2,0,0.3,0
		c0.1,0,0.3,0,0.4,0c10.3,0,18.9-4.7,20.3-10.8C176.6,79.6,142.2,50.5,142.2,50.5z"/>
</g>
<ellipse id="XMLID_97_" class="st0" cx="124.5" cy="50.1" rx="34.6" ry="18.4"/>
<path id="XMLID_94_" class="st1" d="M124.5,31.7c19.1,0,34.6,8.2,34.6,18.4c0,10.2-15.5,18.4-34.6,18.4S90,60.2,90,50.1
	C90,39.9,105.5,31.7,124.5,31.7 M124.5,28.6c-21.1,0-37.6,9.4-37.6,21.5c0,12,16.5,21.5,37.6,21.5s37.6-9.4,37.6-21.5
	C162.2,38,145.7,28.6,124.5,28.6L124.5,28.6z"/>
<ellipse id="XMLID_93_" class="st0" cx="124.5" cy="41.5" rx="34.6" ry="18.4"/>
<path id="XMLID_90_" class="st1" d="M124.5,23.2c19.1,0,34.6,8.2,34.6,18.4s-15.5,18.4-34.6,18.4S90,51.7,90,41.5
	S105.5,23.2,124.5,23.2 M124.5,20.1c-21.1,0-37.6,9.4-37.6,21.5S103.4,63,124.5,63s37.6-9.4,37.6-21.5S145.7,20.1,124.5,20.1
	L124.5,20.1z"/>
<g id="XMLID_87_">
	<path id="XMLID_89_" class="st3" d="M100.3,76.5c0,0-3.9,9.5,0.7,22.1"/>
	<path id="XMLID_88_" class="st1" d="M101.7,101.7c-1.5,0.3-3-0.5-3.6-2c-5-13.5-0.8-23.9-0.7-24.3c0.7-1.6,2.5-2.3,4.1-1.7
		c1.6,0.7,2.3,2.5,1.7,4c-0.1,0.2-3.4,8.7,0.7,19.8c0.6,1.6-0.2,3.4-1.8,4C101.9,101.6,101.8,101.6,101.7,101.7z"/>
</g>
<g id="XMLID_67_">
	<path id="XMLID_84_" class="st4" d="M111.1,56.3c9.7-7.4,11.6-21.3,4.2-31c-7.4-9.7-21.3-11.6-31-4.2c-9.7,7.4-11.6,21.3-4.2,31
		C87.5,61.8,101.3,63.7,111.1,56.3z M84.5,48.7c-2.7-3.5-3.8-7.9-3.2-12.3c0.6-4.4,2.9-8.3,6.4-11c3.5-2.7,7.9-3.8,12.3-3.2
		c4.4,0.6,8.3,2.9,11,6.4c2.7,3.5,3.8,7.9,3.2,12.3s-2.9,8.3-6.4,11c-3.5,2.7-7.9,3.8-12.3,3.2C91,54.5,87.1,52.2,84.5,48.7z"/>
	<g id="XMLID_79_">
		<g id="XMLID_80_">
			<g id="XMLID_81_">
				<g id="XMLID_82_">
					
						<rect id="XMLID_83_" x="68.5" y="47.7" transform="matrix(0.6055 0.7959 -0.7959 0.6055 74.8688 -33.5419)" class="st5" width="5.5" height="22.1"/>
				</g>
			</g>
		</g>
	</g>
	<g id="XMLID_74_">
		<g id="XMLID_75_">
			<g id="XMLID_76_">
				<g id="XMLID_77_">
					
						<rect id="XMLID_78_" x="56.9" y="50.7" transform="matrix(0.6055 0.7958 -0.7958 0.6055 76.7177 -23.8989)" class="st4" width="11.1" height="29.5"/>
				</g>
			</g>
		</g>
	</g>
	<g id="XMLID_68_">
		<g id="XMLID_69_">
			<g id="XMLID_70_">
				<g id="XMLID_71_">
					<g id="XMLID_72_">
						<path id="XMLID_73_" class="st1" d="M89.9,33c-0.9-1.2-0.7-2.9,0.5-3.9c2.5-1.9,5.7-2.8,8.9-2.3c3.2,0.4,6,2.1,7.9,4.6
							c0.9,1.2,0.7,2.9-0.5,3.9c-1.2,0.9-2.9,0.7-3.9-0.5c-1-1.4-2.6-2.3-4.3-2.5c-1.7-0.2-3.4,0.2-4.8,1.3
							C92.5,34.5,90.8,34.2,89.9,33z"/>
					</g>
				</g>
			</g>
		</g>
	</g>
</g>
<g id="XMLID_29_">
	<path id="XMLID_66_" class="st6" d="M211,170c-0.5,2.2-2.7,3.6-4.9,3.1l-64.8-14.5c-2.2-0.5-3.6-2.7-3.1-4.9l19.2-86
		c0.5-2.2,2.7-3.6,4.9-3.1l64.8,14.5c2.2,0.5,3.6,2.7,3.1,4.9L211,170z"/>
	<path id="XMLID_65_" class="st7" d="M207.8,166.2c-0.5,2.2-2.7,3.6-4.9,3.1l-64.8-14.5c-2.2-0.5-3.6-2.7-3.1-4.9l19.2-86
		c0.5-2.2,2.7-3.6,4.9-3.1l64.8,14.5c2.2,0.5,3.6,2.7,3.1,4.9L207.8,166.2z"/>
	
		<rect id="XMLID_64_" x="150.2" y="71.7" transform="matrix(0.9759 0.218 -0.218 0.9759 28.8393 -36.8556)" class="st1" width="62.4" height="81.1"/>
	
		<rect id="XMLID_63_" x="180.6" y="65" transform="matrix(0.9759 0.218 -0.218 0.9759 19.7743 -39.6706)" class="st8" width="18.2" height="9.5"/>
	<path id="XMLID_62_" class="st9" d="M192.5,67.2c-0.3,1.2-1.4,1.9-2.6,1.7l0,0c-1.2-0.3-1.9-1.4-1.7-2.6l1-4.6
		c0.3-1.2,1.4-1.9,2.6-1.7l0,0c1.2,0.3,1.9,1.4,1.7,2.6L192.5,67.2z"/>
	<path id="XMLID_59_" class="st10" d="M170.4,89.2l-8.6-1.9l1.9-8.6l8.6,1.9L170.4,89.2z M162.8,86.7l7,1.6l1.6-7l-7-1.6L162.8,86.7
		z"/>
	<path id="XMLID_56_" class="st10" d="M167.5,101.9l-8.6-1.9l1.9-8.6l8.6,1.9L167.5,101.9z M159.9,99.3l7,1.6l1.6-7l-7-1.6
		L159.9,99.3z"/>
	<path id="XMLID_53_" class="st10" d="M164.7,114.6l-8.6-1.9l1.9-8.6l8.6,1.9L164.7,114.6z M157.1,112l7,1.6l1.6-7l-7-1.6L157.1,112
		z"/>
	<path id="XMLID_50_" class="st10" d="M161.9,127.3l-8.6-1.9l1.9-8.6l8.6,1.9L161.9,127.3z M154.3,124.7l7,1.6l1.6-7l-7-1.6
		L154.3,124.7z"/>
	<path id="XMLID_47_" class="st10" d="M159,140l-8.6-1.9l1.9-8.6l8.6,1.9L159,140z M151.4,137.4l7,1.6l1.6-7l-7-1.6L151.4,137.4z"/>
	
		<rect id="XMLID_45_" x="174.9" y="86" transform="matrix(0.9759 0.218 -0.218 0.9759 23.6258 -39.8832)" class="st10" width="35.2" height="2.2"/>
	
		<rect id="XMLID_44_" x="174.2" y="88.4" transform="matrix(0.9759 0.218 -0.218 0.9759 23.945 -38.0202)" class="st10" width="20.1" height="2.2"/>
	
		<rect id="XMLID_43_" x="172" y="99.1" transform="matrix(0.9759 0.218 -0.218 0.9759 26.41 -38.9305)" class="st10" width="35.2" height="2.2"/>
	
		<rect id="XMLID_42_" x="171.4" y="100.6" transform="matrix(0.9759 0.218 -0.218 0.9759 26.4313 -36.1969)" class="st10" width="11.7" height="2.2"/>
	
		<rect id="XMLID_40_" x="169.2" y="111.8" transform="matrix(0.9759 0.218 -0.218 0.9759 29.1089 -38.0069)" class="st10" width="35.2" height="2.2"/>
	
		<rect id="XMLID_39_" x="168.4" y="115" transform="matrix(0.9759 0.218 -0.218 0.9759 29.6968 -36.9289)" class="st10" width="27.6" height="2.2"/>
	
		<rect id="XMLID_38_" x="163.5" y="137.2" transform="matrix(0.9759 0.218 -0.218 0.9759 34.5062 -36.16)" class="st10" width="35.2" height="2.2"/>
	
		<rect id="XMLID_37_" x="162.6" y="141.1" transform="matrix(0.9759 0.218 -0.218 0.9759 35.3285 -35.767)" class="st10" width="34.2" height="2.2"/>
	
		<rect id="XMLID_36_" x="166.3" y="124.5" transform="matrix(0.9759 0.218 -0.218 0.9759 31.8075 -37.0835)" class="st10" width="35.2" height="2.2"/>
	<g id="XMLID_30_">
		<path id="XMLID_35_" class="st11" d="M165.3,86.2l-2.5-4.1c-0.2-0.3-0.1-0.8,0.2-1c0.3-0.2,0.8-0.1,1,0.2l1.7,2.7l5.6-4.1
			c0.3-0.2,0.8-0.2,1,0.2c0.2,0.3,0.2,0.8-0.2,1L165.3,86.2z"/>
		<path id="XMLID_34_" class="st11" d="M162.4,99.1l-2.5-4.1c-0.2-0.3-0.1-0.8,0.2-1c0.3-0.2,0.8-0.1,1,0.2l1.7,2.7l5.6-4.1
			c0.3-0.2,0.8-0.2,1,0.2c0.2,0.3,0.2,0.8-0.2,1L162.4,99.1z"/>
		<path id="XMLID_33_" class="st11" d="M159.5,111.7l-2.5-4.1c-0.2-0.3-0.1-0.8,0.2-1c0.3-0.2,0.8-0.1,1,0.2l1.7,2.7l5.6-4.1
			c0.3-0.2,0.8-0.2,1,0.2c0.2,0.3,0.2,0.8-0.2,1L159.5,111.7z"/>
		<path id="XMLID_32_" class="st11" d="M156.6,124.4l-2.5-4.1c-0.2-0.3-0.1-0.8,0.2-1c0.3-0.2,0.8-0.1,1,0.2l1.7,2.7l5.6-4.1
			c0.3-0.2,0.8-0.2,1,0.2c0.2,0.3,0.2,0.8-0.2,1L156.6,124.4z"/>
		<path id="XMLID_31_" class="st11" d="M153.7,137.1l-2.5-4.1c-0.2-0.3-0.1-0.8,0.2-1c0.3-0.2,0.8-0.1,1,0.2l1.7,2.7l5.6-4.1
			c0.3-0.2,0.8-0.2,1,0.2c0.2,0.3,0.2,0.8-0.2,1L153.7,137.1z"/>
	</g>
</g>
</svg>
