<?xml version="1.0" encoding="utf-8"?>
<!-- Generator: Adobe Illustrator 19.0.0, SVG Export Plug-In . SVG Version: 6.00 Build 0)  -->
<svg version="1.1" id="Layer_1" xmlns="http://www.w3.org/2000/svg" xmlns:xlink="http://www.w3.org/1999/xlink" x="0px" y="0px"
	 viewBox="0 0 272.5 194.6" style="enable-background:new 0 0 272.5 194.6;" xml:space="preserve">
<style type="text/css">
	.st0{fill:#D3D3D3;}
	.st1{fill:#FFFFFF;}
	.st2{fill:#FC315B;}
	.st3{fill:#D6D6D6;}
	.st4{fill:#C17F3E;}
</style>
<g id="XMLID_63_">
	<path id="XMLID_70_" class="st0" d="M64.2,131.7h13.1h1.6h13.1c23.7-30.3,11.8-54.9,4.2-65.5h2.1c1,0,1.7-0.8,1.7-1.7v-2.9
		c0-1-0.8-1.7-1.7-1.7H57c-1,0-1.7,0.8-1.7,1.7v2.9c0,1,0.8,1.7,1.7,1.7h3C52.4,76.7,40.5,101.4,64.2,131.7z"/>
	<path id="XMLID_69_" class="st0" d="M57,59.6h41.4c1,0,1.7-0.8,1.7-1.7v-2.9c0-1-0.8-1.7-1.7-1.7H57c-1,0-1.7,0.8-1.7,1.7v2.9
		C55.2,58.8,56,59.6,57,59.6z"/>
	<path id="XMLID_68_" class="st0" d="M136.2,131.7h13.1h1.6h13.1c23.7-30.3,11.8-54.9,4.2-65.5h2.1c1,0,1.7-0.8,1.7-1.7v-2.9
		c0-1-0.8-1.7-1.7-1.7H129c-1,0-1.7,0.8-1.7,1.7v2.9c0,1,0.8,1.7,1.7,1.7h3C124.4,76.7,112.5,101.4,136.2,131.7z"/>
	<path id="XMLID_67_" class="st0" d="M129,59.6h41.4c1,0,1.7-0.8,1.7-1.7v-2.9c0-1-0.8-1.7-1.7-1.7H129c-1,0-1.7,0.8-1.7,1.7v2.9
		C127.2,58.8,128,59.6,129,59.6z"/>
	<path id="XMLID_66_" class="st0" d="M205.5,131.7h13.1h1.6h13.1c23.7-30.3,11.8-54.9,4.2-65.5h2.1c1,0,1.7-0.8,1.7-1.7v-2.9
		c0-1-0.8-1.7-1.7-1.7h-41.4c-1,0-1.7,0.8-1.7,1.7v2.9c0,1,0.8,1.7,1.7,1.7h3C193.7,76.7,181.8,101.4,205.5,131.7z"/>
	<path id="XMLID_65_" class="st0" d="M198.3,59.6h41.4c1,0,1.7-0.8,1.7-1.7v-2.9c0-1-0.8-1.7-1.7-1.7h-41.4c-1,0-1.7,0.8-1.7,1.7
		v2.9C196.5,58.8,197.3,59.6,198.3,59.6z"/>
	<path id="XMLID_64_" class="st0" d="M259,132.5H41.7c-3.3,0-6,2.7-6,6c0,3.3,2.7,6,6,6H259c3.3,0,6-2.7,6-6
		C265,135.2,262.3,132.5,259,132.5z"/>
</g>
<g id="XMLID_57_">
	<path id="XMLID_62_" class="st1" d="M81.6,55.2H68.9h-1.6H54.7c0,0-32.3,30.5-0.5,71.1h13.1h1.6h13.1
		C113.9,85.7,81.6,55.2,81.6,55.2z"/>
	<path id="XMLID_61_" class="st2" d="M79.5,59.9h-11H67H56c0,0-28.3,26.6-0.4,62.1H67h1.4h11.5C107.7,86.5,79.5,59.9,79.5,59.9z"/>
	<path id="XMLID_60_" class="st3" d="M88.4,60.8H47c-1,0-1.7-0.8-1.7-1.7v-2.9c0-1,0.8-1.7,1.7-1.7h41.4c1,0,1.7,0.8,1.7,1.7v2.9
		C90.1,60,89.3,60.8,88.4,60.8z"/>
	<path id="XMLID_59_" class="st1" d="M88.4,54.3H47c-1,0-1.7-0.8-1.7-1.7v-2.9c0-1,0.8-1.7,1.7-1.7h41.4c1,0,1.7,0.8,1.7,1.7v2.9
		C90.1,53.5,89.3,54.3,88.4,54.3z"/>
	<path id="XMLID_58_" class="st1" d="M53.6,91.1c-1.3,0-2.5-0.9-2.7-2.3c-1.8-10.6,2.7-15.4,3.2-15.9c1.1-1.1,2.8-1.1,3.9,0
		c1.1,1.1,1.1,2.8,0,3.9c-0.2,0.2-3,3.4-1.7,11.1c0.3,1.5-0.7,2.9-2.3,3.2C53.9,91,53.8,91.1,53.6,91.1z"/>
</g>
<g id="XMLID_51_">
	<path id="XMLID_56_" class="st1" d="M153.6,55.2h-12.6h-1.6h-12.6c0,0-32.3,30.5-0.5,71.1h13.1h1.6h13.1
		C185.9,85.7,153.6,55.2,153.6,55.2z"/>
	<path id="XMLID_55_" class="st2" d="M151.5,59.9h-11H139h-11c0,0-28.3,26.6-0.4,62.1H139h1.4h11.5
		C179.7,86.5,151.5,59.9,151.5,59.9z"/>
	<path id="XMLID_54_" class="st3" d="M160.4,60.8H119c-1,0-1.7-0.8-1.7-1.7v-2.9c0-1,0.8-1.7,1.7-1.7h41.4c1,0,1.7,0.8,1.7,1.7v2.9
		C162.1,60,161.3,60.8,160.4,60.8z"/>
	<path id="XMLID_53_" class="st1" d="M160.4,54.3H119c-1,0-1.7-0.8-1.7-1.7v-2.9c0-1,0.8-1.7,1.7-1.7h41.4c1,0,1.7,0.8,1.7,1.7v2.9
		C162.1,53.5,161.3,54.3,160.4,54.3z"/>
	<path id="XMLID_52_" class="st1" d="M125.6,91.1c-1.3,0-2.5-0.9-2.7-2.3c-1.8-10.6,2.7-15.4,3.2-15.9c1.1-1.1,2.8-1.1,3.9,0
		c1.1,1.1,1.1,2.8,0,3.9c-0.2,0.2-3,3.4-1.7,11.1c0.3,1.5-0.7,2.9-2.3,3.2C125.9,91,125.8,91.1,125.6,91.1z"/>
</g>
<g id="XMLID_45_">
	<path id="XMLID_50_" class="st1" d="M222.9,55.2h-12.6h-1.6H196c0,0-32.3,30.5-0.5,71.1h13.1h1.6h13.1
		C255.2,85.7,222.9,55.2,222.9,55.2z"/>
	<path id="XMLID_49_" class="st2" d="M220.8,59.9h-11h-1.4h-11c0,0-28.3,26.6-0.4,62.1h11.5h1.4h11.5
		C249.1,86.5,220.8,59.9,220.8,59.9z"/>
	<path id="XMLID_48_" class="st3" d="M229.7,60.8h-41.4c-1,0-1.7-0.8-1.7-1.7v-2.9c0-1,0.8-1.7,1.7-1.7h41.4c1,0,1.7,0.8,1.7,1.7
		v2.9C231.5,60,230.7,60.8,229.7,60.8z"/>
	<path id="XMLID_47_" class="st1" d="M229.7,54.3h-41.4c-1,0-1.7-0.8-1.7-1.7v-2.9c0-1,0.8-1.7,1.7-1.7h41.4c1,0,1.7,0.8,1.7,1.7
		v2.9C231.5,53.5,230.7,54.3,229.7,54.3z"/>
	<path id="XMLID_46_" class="st1" d="M194.9,91.1c-1.3,0-2.5-0.9-2.7-2.3c-1.8-10.6,2.7-15.4,3.2-15.9c1.1-1.1,2.8-1.1,3.9,0
		c1.1,1.1,1.1,2.8,0,3.9c-0.2,0.2-3,3.4-1.7,11.1c0.3,1.5-0.7,2.9-2.3,3.2C195.3,91,195.1,91.1,194.9,91.1z"/>
</g>
<g id="XMLID_40_">
	<path id="XMLID_44_" class="st1" d="M76.9,94.6c-0.2-0.1-0.3-0.3-0.5-0.4c-0.7-0.3-1.3,0.2-2,0.2c-1.7,0-2.3,0-4.2-0.6
		c-0.1-1.7,1-2.8,1.4-4.1c0.4-1.2-0.2-2.6-0.2-3.9c0-0.8,0.1-1.6,0-2.5c-0.6,0.5-0.3,2.1-0.4,2.9c-0.3-1-0.2-2.4-0.6-3.3
		c-0.2,1,0,2.3,0,3.3c-0.3-0.9-0.4-2-0.7-2.9c-0.5,0.9,0.3,2.3,0.2,3.2c-0.4-0.8-0.5-1.8-1-2.6c-0.1,1.1,0.4,2,0.3,2.8
		c-0.3-0.7-0.5-1.5-1-1.9c0,0.7,0.5,1.6,0.7,2.2c-0.5-0.2-0.6-0.8-1.1-1c0.1,0.6,0.4,0.9,0.6,1.3c-0.3-0.2-0.5-0.6-0.9-0.7
		c0,0.5,0.5,0.6,0.6,1.1c-0.2-0.2-0.4-0.3-0.7-0.5c0,0.4,0.6,0.6,0.5,0.9c0,0-0.4-0.2-0.4,0c0.1,0,0.4,0.3,0.2,0.3
		c-0.1,0-0.3,0-0.3-0.1c0,0.3,0.3,0.2,0.2,0.5c-0.1,0-0.1-0.1-0.2-0.1c-0.1,0.2,0.2,0.2,0.2,0.4c-1.4,1.5-0.6,3.1-0.8,4.8
		c0.1-0.2-1.2-0.5-2.1-0.9c-0.5-0.2-0.6-0.8-1.1-1c0-0.1,0.1-0.1,0.2-0.2c-0.2-0.1-0.3-0.1-0.4-0.3c0.2,0,0.5,0.1,0.6-0.1
		c-0.2-0.1-0.9-0.3-0.8-0.5c0.4,0,0.7,0.2,1,0.2c-0.4-0.2-1.1-0.5-1.1-0.8c0.3,0.1,0.9,0.5,1.3,0.3c-0.6-0.3-1.4-0.8-1.6-1.2
		c0.4,0.2,1,0.7,1.4,0.7c-0.7-0.2-1.3-1-2-1c0.3,0.6,1.4,1,1.6,1.5c-0.5-0.3-1.1-0.6-1.7-0.9c0.2,0.7,1,0.9,1.5,1.3
		c-0.5,0-0.8-0.3-1.4-0.3c0.2,0.5,1,0.4,1.3,0.8c-0.2-0.1-0.6,0-0.9-0.1c0.1,0.4,0.6,0.3,0.9,0.5c-0.3,0-0.6,0-0.7,0.2
		c0.2,0.2,0.6,0.1,0.7,0.3c-0.2,0-0.4,0-0.4,0.2c0.1,0.1,0.4,0,0.5,0.2c-0.1,0-0.2,0.1-0.2,0.2c0.1,0,0.3,0,0.3,0.1
		c-0.1,0-0.1,0.1-0.2,0.2c0.8,0.4,1.2,1.7,2.2,2c-0.6,0.4,0.6,0.8-6.1,3.1c0.2,0,2.9-0.7,3.8-0.9c0.8-0.3,1.7-0.5,2.4-0.8
		c0.2-0.1,0.4-0.1,0.6-0.2c1.4-0.1,2.6,0.1,4-0.8c-1,0.2-2.8,0.4-3.5-0.2c0.9-1.4,0.3-5,1-5.8c0.8-0.7,1.9-3,3.3-1.1
		c0.2,0.3,0.3,0.8-0.2,1.6c-0.6,1-1,1.5-0.9,3.7c0,0.4,0.1,0.9-0.7,0.9c2.9,0.6,3.8,0.3,5.5,0.1c0.6-0.1,1.4-0.5,1.4,0
		c0,0.2-0.6,0.2-1,0.2c-0.8,0,0.3,0.3,0.7,0.3c0.2,0,1.7-0.2,2.5-0.3C77.8,94.7,77.4,94.8,76.9,94.6z"/>
	<path id="XMLID_41_" class="st1" d="M68.4,79.7c-6.7,0-12.1,5.4-12.1,12.1c0,6.7,5.4,12.1,12.1,12.1c6.7,0,12.1-5.4,12.1-12.1
		C80.4,85.1,75,79.7,68.4,79.7 M68.4,80.1c6.4,0,11.6,5.2,11.6,11.6s-5.2,11.6-11.6,11.6c-6.4,0-11.6-5.2-11.6-11.6
		S61.9,80.1,68.4,80.1"/>
</g>
<g id="XMLID_35_">
	<path id="XMLID_39_" class="st1" d="M147.7,94.6c-0.2-0.1-0.3-0.3-0.5-0.4c-0.7-0.3-1.3,0.2-2,0.2c-1.7,0-2.3,0-4.2-0.6
		c-0.1-1.7,1-2.8,1.4-4.1c0.4-1.2-0.2-2.6-0.2-3.9c0-0.8,0.1-1.6,0-2.5c-0.6,0.5-0.3,2.1-0.4,2.9c-0.3-1-0.2-2.4-0.6-3.3
		c-0.2,1,0,2.3,0,3.3c-0.3-0.9-0.4-2-0.7-2.9c-0.5,0.9,0.3,2.3,0.2,3.2c-0.4-0.8-0.5-1.8-1-2.6c-0.1,1.1,0.4,2,0.3,2.8
		c-0.3-0.7-0.5-1.5-1-1.9c0,0.7,0.5,1.6,0.7,2.2c-0.5-0.2-0.6-0.8-1.1-1c0.1,0.6,0.4,0.9,0.6,1.3c-0.3-0.2-0.5-0.6-0.9-0.7
		c0,0.5,0.5,0.6,0.6,1.1c-0.2-0.2-0.4-0.3-0.7-0.5c0,0.4,0.6,0.6,0.5,0.9c0,0-0.4-0.2-0.4,0c0.1,0,0.4,0.3,0.2,0.3
		c-0.1,0-0.3,0-0.3-0.1c0,0.3,0.3,0.2,0.2,0.5c-0.1,0-0.1-0.1-0.2-0.1c-0.1,0.2,0.2,0.2,0.2,0.4c-1.4,1.5-0.6,3.1-0.8,4.8
		c0.1-0.2-1.2-0.5-2.1-0.9c-0.5-0.2-0.6-0.8-1.1-1c0-0.1,0.1-0.1,0.2-0.2c-0.2-0.1-0.3-0.1-0.4-0.3c0.2,0,0.5,0.1,0.6-0.1
		c-0.2-0.1-0.9-0.3-0.8-0.5c0.4,0,0.7,0.2,1,0.2c-0.4-0.2-1.1-0.5-1.1-0.8c0.3,0.1,0.9,0.5,1.3,0.3c-0.6-0.3-1.4-0.8-1.6-1.2
		c0.4,0.2,1,0.7,1.4,0.7c-0.7-0.2-1.3-1-2-1c0.3,0.6,1.4,1,1.6,1.5c-0.5-0.3-1.1-0.6-1.7-0.9c0.2,0.7,1,0.9,1.5,1.3
		c-0.5,0-0.8-0.3-1.4-0.3c0.2,0.5,1,0.4,1.3,0.8c-0.2-0.1-0.6,0-0.9-0.1c0.1,0.4,0.6,0.3,0.9,0.5c-0.3,0-0.6,0-0.7,0.2
		c0.2,0.2,0.6,0.1,0.7,0.3c-0.2,0-0.4,0-0.4,0.2c0.1,0.1,0.4,0,0.5,0.2c-0.1,0-0.2,0.1-0.2,0.2c0.1,0,0.3,0,0.3,0.1
		c-0.1,0-0.1,0.1-0.2,0.2c0.8,0.4,1.2,1.7,2.2,2c-0.6,0.4,0.6,0.8-6.1,3.1c0.2,0,2.9-0.7,3.8-0.9c0.8-0.3,1.7-0.5,2.4-0.8
		c0.2-0.1,0.4-0.1,0.6-0.2c1.4-0.1,2.6,0.1,4-0.8c-1,0.2-2.8,0.4-3.5-0.2c0.9-1.4,0.3-5,1-5.8c0.8-0.7,1.9-3,3.3-1.1
		c0.2,0.3,0.3,0.8-0.2,1.6c-0.6,1-1,1.5-0.9,3.7c0,0.4,0.1,0.9-0.7,0.9c2.9,0.6,3.8,0.3,5.5,0.1c0.6-0.1,1.4-0.5,1.4,0
		c0,0.2-0.6,0.2-1,0.2c-0.8,0,0.3,0.3,0.7,0.3c0.2,0,1.7-0.2,2.5-0.3C148.5,94.7,148.2,94.8,147.7,94.6z"/>
	<path id="XMLID_36_" class="st1" d="M139.1,79.7c-6.7,0-12.1,5.4-12.1,12.1c0,6.7,5.4,12.1,12.1,12.1c6.7,0,12.1-5.4,12.1-12.1
		C151.2,85.1,145.8,79.7,139.1,79.7 M139.1,80.1c6.4,0,11.6,5.2,11.6,11.6s-5.2,11.6-11.6,11.6c-6.4,0-11.6-5.2-11.6-11.6
		S132.7,80.1,139.1,80.1"/>
</g>
<g id="XMLID_30_">
	<path id="XMLID_34_" class="st1" d="M217.3,94.6c-0.2-0.1-0.3-0.3-0.5-0.4c-0.7-0.3-1.3,0.2-2,0.2c-1.7,0-2.3,0-4.2-0.6
		c-0.1-1.7,1-2.8,1.4-4.1c0.4-1.2-0.2-2.6-0.2-3.9c0-0.8,0.1-1.6,0-2.5c-0.6,0.5-0.3,2.1-0.4,2.9c-0.3-1-0.2-2.4-0.6-3.3
		c-0.2,1,0,2.3,0,3.3c-0.3-0.9-0.4-2-0.7-2.9c-0.5,0.9,0.3,2.3,0.2,3.2c-0.4-0.8-0.5-1.8-1-2.6c-0.1,1.1,0.4,2,0.3,2.8
		c-0.3-0.7-0.5-1.5-1-1.9c0,0.7,0.5,1.6,0.7,2.2c-0.5-0.2-0.6-0.8-1.1-1c0.1,0.6,0.4,0.9,0.6,1.3c-0.3-0.2-0.5-0.6-0.9-0.7
		c0,0.5,0.5,0.6,0.6,1.1c-0.2-0.2-0.4-0.3-0.7-0.5c0,0.4,0.6,0.6,0.5,0.9c0,0-0.4-0.2-0.4,0c0.1,0,0.4,0.3,0.2,0.3
		c-0.1,0-0.3,0-0.3-0.1c0,0.3,0.3,0.2,0.2,0.5c-0.1,0-0.1-0.1-0.2-0.1c-0.1,0.2,0.2,0.2,0.2,0.4c-1.4,1.5-0.6,3.1-0.8,4.8
		c0.1-0.2-1.2-0.5-2.1-0.9c-0.5-0.2-0.6-0.8-1.1-1c0-0.1,0.1-0.1,0.2-0.2c-0.2-0.1-0.3-0.1-0.4-0.3c0.2,0,0.5,0.1,0.6-0.1
		c-0.2-0.1-0.9-0.3-0.8-0.5c0.4,0,0.7,0.2,1,0.2c-0.4-0.2-1.1-0.5-1.1-0.8c0.3,0.1,0.9,0.5,1.3,0.3c-0.6-0.3-1.4-0.8-1.6-1.2
		c0.4,0.2,1,0.7,1.4,0.7c-0.7-0.2-1.3-1-2-1c0.3,0.6,1.4,1,1.6,1.5c-0.5-0.3-1.1-0.6-1.7-0.9c0.2,0.7,1,0.9,1.5,1.3
		c-0.5,0-0.8-0.3-1.4-0.3c0.2,0.5,1,0.4,1.3,0.8c-0.2-0.1-0.6,0-0.9-0.1c0.1,0.4,0.6,0.3,0.9,0.5c-0.3,0-0.6,0-0.7,0.2
		c0.2,0.2,0.6,0.1,0.7,0.3c-0.2,0-0.4,0-0.4,0.2c0.1,0.1,0.4,0,0.5,0.2c-0.1,0-0.2,0.1-0.2,0.2c0.1,0,0.3,0,0.3,0.1
		c-0.1,0-0.1,0.1-0.2,0.2c0.8,0.4,1.2,1.7,2.2,2c-0.6,0.4,0.6,0.8-6.1,3.1c0.2,0,2.9-0.7,3.8-0.9c0.8-0.3,1.7-0.5,2.4-0.8
		c0.2-0.1,0.4-0.1,0.6-0.2c1.4-0.1,2.6,0.1,4-0.8c-1,0.2-2.8,0.4-3.5-0.2c0.9-1.4,0.3-5,1-5.8c0.8-0.7,1.9-3,3.3-1.1
		c0.2,0.3,0.3,0.8-0.2,1.6c-0.6,1-1,1.5-0.9,3.7c0,0.4,0.1,0.9-0.7,0.9c2.9,0.6,3.8,0.3,5.5,0.1c0.6-0.1,1.4-0.5,1.4,0
		c0,0.2-0.6,0.2-1,0.2c-0.8,0,0.3,0.3,0.7,0.3c0.2,0,1.7-0.2,2.5-0.3C218.1,94.7,217.8,94.8,217.3,94.6z"/>
	<path id="XMLID_31_" class="st1" d="M208.7,79.7c-6.7,0-12.1,5.4-12.1,12.1c0,6.7,5.4,12.1,12.1,12.1c6.7,0,12.1-5.4,12.1-12.1
		C220.8,85.1,215.4,79.7,208.7,79.7 M208.7,80.1c6.4,0,11.6,5.2,11.6,11.6s-5.2,11.6-11.6,11.6c-6.4,0-11.6-5.2-11.6-11.6
		S202.3,80.1,208.7,80.1"/>
</g>
<path id="XMLID_29_" class="st4" d="M249,139.2H31.7c-3.3,0-6-2.7-6-6v0c0-3.3,2.7-6,6-6H249c3.3,0,6,2.7,6,6v0
	C255,136.5,252.3,139.2,249,139.2z"/>
</svg>
