<?xml version="1.0" encoding="utf-8"?>
<!-- Generator: Adobe Illustrator 19.0.0, SVG Export Plug-In . SVG Version: 6.00 Build 0)  -->
<svg version="1.1" id="Layer_1" xmlns="http://www.w3.org/2000/svg" xmlns:xlink="http://www.w3.org/1999/xlink" x="0px" y="0px"
	 viewBox="0 0 272.5 194.6" style="enable-background:new 0 0 272.5 194.6;" xml:space="preserve">
<style type="text/css">
	.st0{fill:#62BA47;}
	.st1{fill:#FFFFFF;}
	.st2{fill:#D3D3D3;}
	.st3{fill:#4C6887;}
	.st4{fill:#04BCE6;}
	.st5{fill:#FC315B;}
	.st6{fill:#D6D6D6;}
</style>
<g>
	<path class="st0" d="M99.5,93.5c0,0-3.9,9.5,0.7,22.1"/>
	<path class="st1" d="M100.8,118.6c-1.5,0.3-3-0.5-3.6-2c-5-13.5-0.8-23.9-0.7-24.3c0.7-1.6,2.5-2.3,4.1-1.7c1.6,0.7,2.3,2.5,1.7,4
		c-0.1,0.2-3.4,8.7,0.7,19.8c0.6,1.6-0.2,3.4-1.8,4C101.1,118.6,101,118.6,100.8,118.6z"/>
</g>
<g id="XMLID_137_">
	<circle id="XMLID_165_" class="st2" cx="80.2" cy="51.4" r="2.6"/>
	<path id="XMLID_141_" class="st2" d="M246.2,89.5h-51.3c0,0,0,0-0.1,0c-0.1,0-0.1,0-0.2-0.1c-0.1,0-0.1,0-0.2-0.1
		c-0.1,0-0.1,0-0.2,0c-0.1,0-0.1,0-0.2,0c-0.1,0-0.1,0-0.2,0c-0.1,0-0.1,0-0.2,0c-0.1,0-0.1,0-0.2,0c-0.1,0-0.1,0-0.2,0.1
		c0,0,0,0-0.1,0c0,0-0.1,0-0.1,0.1h-11.4c0.3-0.4,0.7-0.7,1.3-0.7c-0.1-1.5-0.4-3-0.8-4.5c-0.8,0.3-1.7-0.1-2.1-0.9
		c-0.3-0.8,0.1-1.7,0.8-2.1c-0.6-1.3-1.4-2.5-2.3-3.5c-0.6,0.6-1.6,0.5-2.3-0.1c-0.6-0.6-0.6-1.6,0-2.3c-1.2-1-2.4-1.9-3.8-2.6
		c-0.4,0.8-1.3,1.1-2.1,0.8c-0.8-0.3-1.2-1.3-0.9-2.1c-1.3-0.4-2.7-0.7-4.1-0.9c0,0.9-0.8,1.5-1.7,1.5c-0.9,0-1.6-0.7-1.6-1.6
		c-1.5,0.1-3,0.4-4.5,0.8c0.3,0.8-0.1,1.7-0.9,2.1c-0.8,0.3-1.7,0-2.1-0.8c-1.3,0.6-2.5,1.4-3.5,2.3c0.6,0.7,0.5,1.7-0.1,2.3
		c-0.6,0.6-1.6,0.6-2.2,0c-1,1.2-1.9,2.4-2.6,3.8c0.8,0.4,1.1,1.3,0.8,2.1c-0.3,0.8-1.3,1.2-2.1,0.9c0,0.1-0.1,0.2-0.1,0.4l-4.3-3.3
		c0.4-0.4,0.7-0.8,1-1.3l-1.6-1.5c0.3-0.4,0.6-0.8,0.8-1.2l2,0.8c0.6-1.1,1.1-2.3,1.4-3.6l-2-0.8c0.1-0.6,0.2-1.1,0.3-1.7l2.2-0.1
		c0.1-1.3,0.1-2.6-0.1-3.8l-2.2,0.1c-0.1-0.5-0.2-1-0.3-1.4l2-0.9c-0.4-1.2-0.9-2.4-1.5-3.5l-2,0.9c-0.3-0.5-0.6-1-1-1.4l1.5-1.6
		c-0.4-0.5-0.8-1-1.3-1.4c-0.5-0.4-1-0.9-1.5-1.2l-1.5,1.6c-0.4-0.3-0.8-0.6-1.2-0.8l0.8-2c-1.1-0.6-2.3-1.1-3.6-1.4l-0.8,2
		c-0.6-0.1-1.1-0.2-1.7-0.3l-0.1-2.2c-1.3-0.1-2.6-0.1-3.8,0.1l0.1,2.2c-0.5,0.1-1,0.2-1.4,0.3l-0.9-2c-1.2,0.4-2.4,0.9-3.5,1.5
		l0.9,2c-0.5,0.3-1,0.6-1.4,1l-1.6-1.5c-0.5,0.4-1,0.8-1.4,1.3c-0.4,0.5-0.9,1-1.2,1.5l1.6,1.5c-0.1,0.2-0.3,0.4-0.4,0.6l-6.1-4.7
		c0.5-0.3,0.7-0.9,0.6-1.5c0-0.2-0.1-0.5-0.2-0.8c0.5-0.2,1.1-0.4,1.6-0.7c0.2,0.3,0.4,0.5,0.5,0.7c0.4,0.6,1.3,0.8,1.9,0.4
		c0.6-0.4,0.8-1.3,0.4-1.9c-0.1-0.1-0.3-0.4-0.5-0.7c0.4-0.4,0.8-0.8,1.2-1.2l0.7,0.4c0.6,0.4,1.5,0.2,1.9-0.4
		c0.4-0.6,0.2-1.5-0.4-1.9l-0.7-0.4c0.3-0.5,0.5-1.1,0.6-1.6c0.3,0.1,0.6,0.1,0.8,0.2c0.8,0.1,1.5-0.4,1.6-1.1
		c0.1-0.8-0.4-1.5-1.1-1.6c-0.2,0-0.5-0.1-0.8-0.2c0-0.6,0-1.1,0-1.7c0.3-0.1,0.6-0.1,0.8-0.2c0.8-0.2,1.2-0.9,1.1-1.7
		c-0.2-0.8-0.9-1.2-1.7-1.1c-0.2,0-0.5,0.1-0.8,0.2c-0.2-0.5-0.4-1.1-0.7-1.6c0.3-0.2,0.5-0.4,0.7-0.5c0.6-0.4,0.8-1.3,0.4-1.9
		c-0.4-0.6-1.3-0.8-2-0.4c-0.1,0.1-0.4,0.3-0.7,0.5c-0.4-0.4-0.8-0.8-1.2-1.2l0.4-0.7c0.4-0.6,0.2-1.5-0.4-1.9
		c-0.6-0.4-1.5-0.2-1.9,0.4l-0.4,0.7c-0.5-0.3-1.1-0.5-1.6-0.7c0.1-0.3,0.1-0.6,0.1-0.8c0.1-0.8-0.4-1.5-1.1-1.6
		c-0.8-0.1-1.5,0.4-1.6,1.1c0,0.2-0.1,0.5-0.2,0.8c-0.6,0-1.1,0-1.7,0c-0.1-0.3-0.1-0.6-0.2-0.8c-0.2-0.8-0.9-1.2-1.7-1.1
		c-0.8,0.2-1.2,0.9-1.1,1.7c0,0.2,0.1,0.5,0.2,0.8c-0.5,0.2-1.1,0.4-1.6,0.7c-0.2-0.3-0.4-0.5-0.4-0.7c-0.4-0.6-1.3-0.8-2-0.4
		c-0.6,0.4-0.8,1.3-0.4,2c0.1,0.1,0.3,0.4,0.4,0.7c-0.4,0.4-0.8,0.8-1.2,1.2l-0.7-0.4c-0.6-0.4-1.5-0.2-1.9,0.4
		c-0.4,0.6-0.2,1.5,0.4,1.9l0.7,0.4c-0.3,0.5-0.5,1.1-0.6,1.6c-0.3-0.1-0.6-0.1-0.8-0.2c-0.8-0.1-1.5,0.4-1.6,1.1
		c-0.1,0.8,0.4,1.5,1.1,1.6c0.2,0,0.5,0.1,0.8,0.2c0,0.6,0,1.1,0,1.7c-0.3,0.1-0.6,0.1-0.8,0.2c-0.8,0.2-1.3,0.9-1.1,1.7
		c0.2,0.8,0.9,1.2,1.7,1.1c0.2,0,0.5-0.1,0.8-0.2c0.2,0.5,0.4,1.1,0.7,1.6c-0.3,0.2-0.5,0.4-0.7,0.5c-0.6,0.4-0.8,1.3-0.4,1.9
		c0.4,0.6,1.3,0.8,1.9,0.4c0.1-0.1,0.4-0.3,0.7-0.5c0.4,0.4,0.8,0.8,1.2,1.2l-0.4,0.7c-0.3,0.4-0.3,1-0.1,1.4h-7.5
		c0.3-0.3,0.8-0.4,1.2-0.3c0.3-1,0.5-2.1,0.5-3.2c-0.6,0-1.1-0.5-1.1-1.1c0-0.6,0.5-1.1,1.1-1.2c-0.1-1-0.3-2-0.6-2.9
		c-0.6,0.2-1.2,0-1.5-0.6c-0.2-0.6,0-1.2,0.5-1.5c-0.5-0.9-1.1-1.8-1.9-2.6c-0.4,0.4-1.1,0.4-1.6,0c-0.4-0.4-0.5-1.1-0.1-1.6
		c-0.8-0.6-1.6-1.2-2.5-1.6c-0.2,0.6-0.9,0.8-1.5,0.6c-0.6-0.2-0.9-0.9-0.7-1.4c-1-0.3-2.1-0.5-3.2-0.6c0,0.6-0.5,1.1-1.1,1.1
		c-0.6,0-1.1-0.5-1.2-1.1c-1,0.1-1.9,0.3-2.9,0.6c0.2,0.6,0,1.2-0.6,1.5c-0.6,0.2-1.2,0-1.5-0.6c-0.9,0.5-1.8,1.1-2.6,1.9
		c0.4,0.4,0.4,1.1,0,1.6c-0.4,0.4-1.1,0.5-1.6,0.1c-0.6,0.8-1.2,1.6-1.6,2.5c0.6,0.2,0.8,0.9,0.6,1.5c-0.2,0.6-0.9,0.9-1.4,0.7
		c-0.3,1-0.5,2.1-0.6,3.2c0.6,0,1.1,0.5,1.1,1.1c0,0.6-0.5,1.1-1.1,1.2c0.1,0.9,0.3,1.8,0.6,2.7h-5.5l-3.7,3.7v26.2l3.7,3.7h13.7
		v6.1h3.7v32.4h-6.2v7.9h7.6c3.6,0,6.5-2.9,6.5-6.5V95.3h3.7v-6.1h4.2l6.5,4.9v3.3l7.8,5.9v46.5c0,12,9.5,21.7,21.2,21.7
		c7.2,0,13.5-3.9,17-9.8c7.3-2.1,12.7-8.6,12.7-16.2V123h19.8l0.3,0.2c-0.3,0.5-0.5,1.1-0.6,1.6c-0.3-0.1-0.6-0.1-0.8-0.2
		c-0.8-0.1-1.5,0.4-1.6,1.1c-0.1,0.8,0.4,1.5,1.1,1.6c0.2,0,0.5,0.1,0.8,0.2c0,0.6,0,1.1,0,1.7c-0.3,0.1-0.6,0.1-0.8,0.2
		c-0.8,0.2-1.3,0.9-1.1,1.7c0.2,0.8,0.9,1.2,1.7,1.1c0.2,0,0.5-0.1,0.8-0.2c0.2,0.5,0.4,1.1,0.7,1.6c-0.3,0.2-0.5,0.4-0.7,0.5
		c-0.6,0.4-0.8,1.3-0.4,1.9c0.4,0.6,1.3,0.8,1.9,0.4c0.1-0.1,0.4-0.3,0.7-0.5c0.4,0.4,0.8,0.8,1.2,1.2l-0.4,0.7
		c-0.4,0.6-0.2,1.5,0.4,1.9c0.6,0.4,1.5,0.2,1.9-0.4l0.4-0.7c0.5,0.3,1.1,0.5,1.6,0.6c-0.1,0.3-0.1,0.6-0.2,0.8
		c-0.1,0.8,0.4,1.5,1.1,1.6c0.8,0.1,1.5-0.4,1.6-1.1c0-0.2,0.1-0.5,0.1-0.8c0.6,0,1.1,0,1.7,0c0.1,0.3,0.1,0.6,0.2,0.8
		c0.2,0.8,0.9,1.2,1.7,1.1c0.8-0.2,1.3-0.9,1.1-1.7c0-0.2-0.1-0.5-0.2-0.8c0.5-0.2,1.1-0.4,1.6-0.7c0.2,0.3,0.4,0.5,0.5,0.7
		c0.4,0.6,1.3,0.8,1.9,0.4c0.6-0.4,0.8-1.3,0.4-1.9c-0.1-0.1-0.3-0.4-0.5-0.7c0.4-0.4,0.8-0.8,1.2-1.2l0.7,0.4
		c0.6,0.4,1.5,0.2,1.9-0.4c0.4-0.6,0.2-1.5-0.4-1.9l-0.7-0.4c0.3-0.5,0.5-1.1,0.6-1.6c0.3,0.1,0.6,0.1,0.8,0.2
		c0.8,0.1,1.5-0.4,1.6-1.1c0.1-0.8-0.4-1.5-1.1-1.6c-0.2,0-0.5-0.1-0.8-0.2c0-0.6,0-1.1,0-1.7c0.3-0.1,0.6-0.1,0.8-0.2
		c0.8-0.2,1.2-0.9,1.1-1.7c-0.2-0.8-0.9-1.2-1.7-1.1c-0.2,0-0.5,0.1-0.8,0.2c-0.2-0.5-0.4-1.1-0.7-1.6c0,0,0.1,0,0.1-0.1h4
		c0.1,0.4,0.2,0.8,0.3,1.2c0.8-0.3,1.7,0.1,2.1,0.9c0.3,0.8-0.1,1.7-0.8,2.1c0.6,1.3,1.4,2.5,2.3,3.5c0.6-0.6,1.6-0.5,2.3,0.1
		c0.6,0.6,0.6,1.6,0,2.3c1.2,1,2.4,1.9,3.8,2.6c0.4-0.8,1.3-1.1,2.1-0.8c0.8,0.3,1.2,1.3,0.9,2.1c1.3,0.4,2.7,0.7,4.1,0.9
		c0-0.9,0.8-1.5,1.7-1.5c0.9,0,1.6,0.7,1.6,1.6c1.5-0.1,3-0.4,4.5-0.8c-0.3-0.8,0.1-1.7,0.9-2.1c0.8-0.3,1.7,0,2.1,0.8
		c1.3-0.6,2.5-1.4,3.5-2.3c-0.6-0.7-0.5-1.7,0.1-2.3c0.6-0.6,1.6-0.6,2.2,0c1-1.2,1.9-2.4,2.6-3.8c-0.8-0.4-1.1-1.3-0.8-2.1
		c0.3-0.8,1.3-1.2,2.1-0.9c0.2-0.5,0.3-1.1,0.5-1.7h3.3l3.7-3.7V93.2L246.2,89.5z M77.2,54.6c-1.8-1.7-1.8-4.4-0.2-6.2
		c1.7-1.8,4.4-1.8,6.2-0.2c1.8,1.7,1.8,4.4,0.2,6.2c-0.6,0.6-1.3,1-2.1,1.2h-2.1C78.4,55.5,77.7,55.1,77.2,54.6z M73,44.7
		c3.7-4,10-4.1,13.9-0.4c3.2,3,3.9,7.6,2.1,11.4h-4.5c0,0,0,0,0,0c2.3-2.4,2.2-6.3-0.3-8.6c-2.4-2.3-6.3-2.2-8.6,0.3
		c-2.2,2.4-2.2,6.1,0.1,8.4h-4.5C69.6,52.1,70.1,47.7,73,44.7z M185.4,124.4l-2-1.3h3.4C186.2,123.4,185.8,123.9,185.4,124.4z
		 M124.6,114.9l4,3l2.7-1.3l8.7,6.5h9v28.1c0,3.4-0.9,6.6-2.4,9.4c-1.4,0.3-2.8,0.5-4.3,0.5c-9.7,0-17.6-7.5-17.6-16.7V114.9z
		 M176.4,87.2c0.1,0.3,0.1,0.6,0.2,0.9c0,0.1,0,0.3,0,0.4c0,0.3,0.1,0.6,0.1,0.9c0,0,0,0.1,0,0.1h-7.8c0-0.1,0-0.2,0-0.3
		c0-0.2-0.1-0.4-0.1-0.5c0-0.2-0.1-0.3-0.1-0.5c0-0.1,0-0.1,0-0.2c0-0.1-0.1-0.2-0.2-0.3c-0.1-0.2-0.2-0.3-0.3-0.5
		c-0.1-0.2-0.2-0.3-0.3-0.4c-0.1-0.1-0.2-0.3-0.3-0.4c0,0,0,0,0-0.1l4.9-6.2c0.2,0.2,0.3,0.3,0.5,0.5c0.1,0.1,0.3,0.3,0.4,0.4
		c0.2,0.2,0.3,0.3,0.5,0.5c0.1,0.2,0.2,0.3,0.4,0.5c0.1,0.2,0.3,0.4,0.4,0.6c0.1,0.2,0.2,0.3,0.3,0.5c0.1,0.2,0.2,0.4,0.4,0.6
		c0.1,0.2,0.2,0.4,0.3,0.6c0.1,0.2,0.2,0.4,0.3,0.6c0.1,0.2,0.2,0.4,0.3,0.7c0.1,0.2,0.1,0.4,0.2,0.5c0.1,0.3,0.2,0.5,0.2,0.8
		C176.4,86.9,176.4,87.1,176.4,87.2z M150.4,87.5c0-0.2,0.1-0.3,0.1-0.5c0.1-0.3,0.1-0.5,0.2-0.8c0-0.1,0.1-0.3,0.1-0.4
		c0.1-0.3,0.2-0.6,0.3-0.9c0-0.1,0.1-0.2,0.1-0.3c0.1-0.3,0.3-0.6,0.4-0.8c0.1-0.1,0.1-0.2,0.2-0.4c0.1-0.2,0.3-0.5,0.4-0.7
		c0.1-0.1,0.2-0.3,0.3-0.4c0.1-0.2,0.3-0.4,0.4-0.6c0.1-0.2,0.3-0.3,0.4-0.5c0.1-0.2,0.3-0.3,0.5-0.5c0.2-0.2,0.3-0.3,0.5-0.4
		c0.2-0.2,0.3-0.3,0.5-0.4c0.2-0.1,0.3-0.3,0.5-0.4c0.2-0.1,0.4-0.3,0.5-0.4c0.2-0.1,0.4-0.2,0.6-0.3c0.2-0.1,0.4-0.2,0.6-0.3
		c0.2-0.1,0.4-0.2,0.6-0.3l3,7.3c0,0,0,0-0.1,0c-0.2,0.1-0.3,0.2-0.4,0.3c-0.1,0.1-0.3,0.2-0.4,0.3c-0.1,0.1-0.3,0.3-0.4,0.4
		c-0.1,0.1-0.2,0.2-0.2,0.3c0,0-0.1,0.1-0.1,0.1c-0.1,0.1-0.2,0.3-0.3,0.5c-0.1,0.2-0.2,0.3-0.3,0.5c-0.1,0.1-0.1,0.3-0.2,0.5
		c-0.1,0.2-0.1,0.4-0.2,0.5c0,0.2-0.1,0.4-0.1,0.5c0,0.1,0,0.2,0,0.2h-6.3l-1.5-1.1c0-0.1,0-0.1,0-0.2
		C150.3,87.9,150.3,87.7,150.4,87.5z M160.2,77.1c0.1,0,0.3-0.1,0.4-0.1c0.3-0.1,0.6-0.1,0.9-0.2c0.1,0,0.3,0,0.4-0.1
		c0.3,0,0.6-0.1,0.9-0.1c0.1,0,0.3,0,0.4,0c0.3,0,0.5,0,0.8,0c0.2,0,0.4,0,0.6,0c0.2,0,0.4,0,0.6,0.1c0.2,0,0.5,0.1,0.7,0.1
		c0.2,0,0.3,0.1,0.5,0.1c0.3,0.1,0.6,0.1,0.8,0.2c0.1,0,0.2,0.1,0.3,0.1c0.3,0.1,0.6,0.2,0.9,0.3c0.1,0,0.2,0.1,0.3,0.1
		c0.3,0.1,0.6,0.3,0.9,0.4c0.1,0.1,0.2,0.1,0.3,0.2c0.3,0.1,0.5,0.3,0.8,0.5c0,0,0,0,0,0l-4.9,6.2c-0.1,0-0.1-0.1-0.2-0.1
		c-0.1-0.1-0.3-0.1-0.4-0.2c-0.2-0.1-0.4-0.1-0.6-0.2c-0.2,0-0.3-0.1-0.5-0.1c-0.2,0-0.4-0.1-0.5-0.1c-0.2,0-0.4,0-0.6,0
		c-0.2,0-0.3,0-0.5,0c-0.1,0-0.1,0-0.2,0l-3-7.3c0,0,0,0,0.1,0C159.7,77.2,160,77.1,160.2,77.1z M166.9,89.1c0,0.1,0.1,0.2,0.1,0.3
		c0,0,0,0,0,0h-7.1c0-0.1,0-0.2,0.1-0.3c0-0.1,0.1-0.2,0.1-0.3c0-0.1,0.1-0.2,0.1-0.3c0-0.1,0.1-0.2,0.2-0.3
		c0.1-0.1,0.1-0.2,0.2-0.3c0.1-0.1,0.1-0.2,0.2-0.3c0.1-0.1,0.2-0.2,0.3-0.3c0.1-0.1,0.2-0.1,0.3-0.2c0.1-0.1,0.2-0.1,0.3-0.2
		c0.1-0.1,0.2-0.1,0.3-0.2c0.1,0,0.2-0.1,0.3-0.1c0.1,0,0.2-0.1,0.3-0.1c0.1,0,0.2-0.1,0.4-0.1c0.1,0,0.2,0,0.3,0c0.1,0,0.3,0,0.4,0
		c0.1,0,0.2,0,0.3,0c0.1,0,0.2,0,0.3,0.1c0.1,0,0.2,0.1,0.4,0.1c0.1,0,0.2,0.1,0.3,0.1c0.1,0.1,0.2,0.1,0.3,0.2
		c0.1,0.1,0.2,0.1,0.3,0.2c0.1,0.1,0.2,0.1,0.3,0.2c0.1,0.1,0.2,0.2,0.3,0.3c0.1,0.1,0.2,0.2,0.2,0.3c0.1,0.1,0.1,0.2,0.2,0.3
		c0.1,0.1,0.1,0.2,0.2,0.4c0,0.1,0.1,0.2,0.1,0.3C166.9,88.9,166.9,89,166.9,89.1z M236,124c-0.1,0.3-0.3,0.6-0.4,0.8
		c-0.1,0.1-0.1,0.2-0.2,0.4c-0.1,0.2-0.3,0.5-0.4,0.7c-0.1,0.1-0.2,0.3-0.3,0.4c-0.1,0.2-0.3,0.4-0.4,0.6c-0.1,0.2-0.3,0.3-0.4,0.5
		c-0.1,0.2-0.3,0.3-0.5,0.5c-0.2,0.2-0.3,0.3-0.5,0.4c-0.2,0.2-0.3,0.3-0.5,0.4c-0.2,0.1-0.3,0.3-0.5,0.4c-0.2,0.1-0.3,0.3-0.5,0.4
		c-0.2,0.1-0.4,0.2-0.6,0.3c-0.2,0.1-0.4,0.2-0.6,0.3c-0.2,0.1-0.4,0.2-0.6,0.3l-3.1-7.5h9.8c-0.1,0.2-0.1,0.4-0.2,0.6
		C236.1,123.7,236.1,123.9,236,124z M227.1,131.5c-0.1,0-0.3,0.1-0.4,0.1c-0.3,0.1-0.6,0.1-0.9,0.2c-0.1,0-0.3,0-0.4,0.1
		c-0.3,0-0.6,0.1-0.9,0.1c-0.1,0-0.3,0-0.4,0c-0.3,0-0.5,0-0.8,0c-0.2,0-0.4,0-0.6,0c-0.2,0-0.4,0-0.6-0.1c-0.2,0-0.5-0.1-0.7-0.1
		c-0.2,0-0.3-0.1-0.5-0.1c-0.3-0.1-0.6-0.1-0.8-0.2c-0.1,0-0.2-0.1-0.3-0.1c-0.3-0.1-0.6-0.2-0.9-0.3c-0.1,0-0.2-0.1-0.3-0.1
		c-0.3-0.1-0.6-0.3-0.9-0.4c-0.1-0.1-0.2-0.1-0.3-0.2c-0.3-0.1-0.5-0.3-0.8-0.5c0,0,0,0,0,0l5.2-6.6h2.8c0,0,0,0.1,0,0.1l3.3,8
		c0,0,0,0-0.1,0C227.6,131.3,227.4,131.4,227.1,131.5z M214.2,127.6c-0.2-0.2-0.3-0.3-0.5-0.5c-0.1-0.2-0.2-0.3-0.4-0.5
		c-0.1-0.2-0.3-0.4-0.4-0.6c-0.1-0.2-0.2-0.3-0.3-0.5c-0.1-0.2-0.2-0.4-0.4-0.6c-0.1-0.2-0.2-0.4-0.3-0.6c-0.1-0.2-0.2-0.4-0.3-0.6
		c-0.1-0.2-0.2-0.4-0.3-0.7c0,0,0,0,0,0h8l-4.3,5.5c-0.2-0.2-0.3-0.3-0.5-0.5C214.4,127.9,214.3,127.8,214.2,127.6z M121.5,63.3
		c3.7-4,9.9-4.1,13.9-0.4c4,3.7,4.1,9.9,0.4,13.9c-0.1,0.1-0.2,0.2-0.2,0.2l-2-1.5c0.1-0.1,0.3-0.3,0.4-0.4c2.8-3,2.6-7.6-0.3-10.4
		c-2.9-2.8-7.6-2.6-10.4,0.3c-0.5,0.5-0.9,1.1-1.2,1.7l-2-1.5C120.5,64.5,121,63.9,121.5,63.3z M102.9,52.8l1.5-2.3
		c2.8,1.5,6.3,0.8,8.3-1.7l2.3,1.5C112.2,54.1,107,55.1,102.9,52.8z M115.5,49.4l-2.3-1.5c1.5-2.8,0.8-6.3-1.7-8.3l1.5-2.3
		C116.8,40.2,117.9,45.4,115.5,49.4z M112.2,36.8l-1.5,2.3c-2.8-1.5-6.3-0.8-8.3,1.7l-2.3-1.5C102.9,35.5,108.1,34.4,112.2,36.8z
		 M99.6,40.1l2.3,1.5c-1.5,2.8-0.8,6.3,1.7,8.3l-1.5,2.3C98.3,49.4,97.2,44.2,99.6,40.1z M102.4,55.1c0.4,0.2,0.9,0.4,1.3,0.5h-1.7
		L102.4,55.1z M130.4,170.1c-10.9,0-19.8-9.1-19.8-20.3v-45.5l12.6,9.5v30.6c0,10,8.5,18.1,19,18.1c1.1,0,2.2-0.1,3.2-0.3
		C142.1,167,136.6,170.1,130.4,170.1z M158.7,145.5c0,6.5-4.3,12.1-10.3,14.4c1.3-2.7,2-5.6,2-8.8V123h8.4V145.5z M182.5,123.7
		l2.3,1.5c-1.5,2.8-0.8,6.3,1.7,8.3l-1.5,2.3C181.2,133,180.2,127.8,182.5,123.7z M185.9,136.4l1.5-2.3c2.8,1.5,6.3,0.8,8.3-1.7
		l2.3,1.5C195.1,137.7,189.9,138.7,185.9,136.4z M198.5,133l-2.3-1.5c1.5-2.8,0.8-6.3-1.7-8.3l0.1-0.2h3.4
		C200.1,125.9,200.4,129.8,198.5,133z"/>
	<polygon id="XMLID_140_" class="st2" points="66.4,110.2 61.9,105.7 39.3,105.7 34.5,110.5 34.5,146.7 39.3,151.5 61.6,151.5 
		66.4,146.7 66.4,139.3 72.9,139.3 72.9,123.9 66.4,123.9 	"/>
	<path id="XMLID_139_" class="st2" d="M208.4,89.3h8.4h1h8.4c15.3-19.5,7.6-35.3,2.7-42.1h0.4c1.1,0,2.1-0.9,2.1-2.1v0
		c0-1.1-0.9-2.1-2.1-2.1h-24.8c-1.1,0-2.1,0.9-2.1,2.1v0c0,1.1,0.9,2.1,2.1,2.1h1C200.8,54,193.2,69.8,208.4,89.3z"/>
	<path id="XMLID_138_" class="st2" d="M204.7,42.9h24.8c1.1,0,2.1-0.9,2.1-2.1c0-1.1-0.9-2.1-2.1-2.1h-24.8c-1.1,0-2.1,0.9-2.1,2.1
		C202.6,42,203.6,42.9,204.7,42.9z"/>
</g>
<path id="XMLID_136_" class="st3" d="M133.5,155.8c-10.5,0-19-8.1-19-18.1V71.2c0-0.4,0.3-0.7,0.7-0.7c0.4,0,0.7,0.3,0.7,0.7v66.5
	c0,9.2,7.9,16.7,17.6,16.7c9.1,0,16.5-7,16.5-15.6v-30.6c0-0.4,0.3-0.7,0.7-0.7c0.4,0,0.7,0.3,0.7,0.7v30.6
	C151.4,148.2,143.4,155.8,133.5,155.8z"/>
<path id="XMLID_135_" class="st3" d="M121.7,164.8c-11.7,0-21.2-9.7-21.2-21.7V71.8c0-0.4,0.3-0.7,0.7-0.7s0.7,0.3,0.7,0.7v71.3
	c0,11.2,8.9,20.3,19.8,20.3c10.2,0,18.5-8.5,18.5-19v-39.8c0-0.4,0.3-0.7,0.7-0.7s0.7,0.3,0.7,0.7v39.8
	C141.6,155.7,132.7,164.8,121.7,164.8z"/>
<path id="XMLID_132_" class="st3" d="M113.8,90.7c0.8,0.7,0.8,1.9,0.2,2.7c0.8,0.5,1.6,0.8,2.5,0.9c0.1-1,0.9-1.8,2-1.8
	c1,0,1.9,0.7,2.1,1.7c0.9-0.2,1.7-0.6,2.4-1.1c-0.7-0.8-0.6-1.9,0.1-2.7c0.7-0.8,1.9-0.8,2.7-0.2c0.5-0.8,0.8-1.6,1-2.5
	c-1-0.1-1.8-0.9-1.8-2c0-1,0.7-1.9,1.7-2.1c-0.2-0.9-0.6-1.7-1.1-2.4c-0.8,0.7-1.9,0.6-2.7-0.1c-0.8-0.7-0.8-1.9-0.2-2.7
	c-0.8-0.5-1.6-0.8-2.5-0.9c-0.1,1-0.9,1.8-2,1.8c-1,0-1.9-0.7-2.1-1.7c-0.9,0.2-1.7,0.6-2.4,1.1c0.7,0.8,0.6,1.9-0.1,2.7
	c-0.7,0.8-1.9,0.8-2.7,0.2c-0.5,0.8-0.8,1.6-0.9,2.5c1,0.1,1.8,0.9,1.8,2c0,1-0.7,1.9-1.7,2.1c0.2,0.9,0.6,1.7,1.1,2.4
	C111.8,89.9,113,89.9,113.8,90.7z M116.8,84.5c0.7-0.8,2-0.8,2.8-0.1c0.8,0.8,0.8,2,0.1,2.8c-0.8,0.8-2,0.8-2.8,0.1
	C116.1,86.6,116.1,85.3,116.8,84.5z"/>
<path id="XMLID_129_" class="st3" d="M89.4,30.2c-0.6-0.4-1.5-0.2-1.9,0.4c-0.4,0.6-0.2,1.5,0.4,1.9l0.7,0.4
	c-0.3,0.5-0.5,1.1-0.6,1.6c-0.3-0.1-0.6-0.1-0.8-0.2c-0.8-0.1-1.5,0.4-1.6,1.1c-0.1,0.8,0.4,1.5,1.1,1.6c0.2,0,0.5,0.1,0.8,0.2
	c0,0.6,0,1.1,0,1.7c-0.3,0.1-0.6,0.1-0.8,0.2c-0.8,0.2-1.3,0.9-1.1,1.7c0.2,0.8,0.9,1.2,1.7,1.1c0.2,0,0.5-0.1,0.8-0.2
	c0.2,0.5,0.4,1.1,0.7,1.6c-0.3,0.2-0.5,0.4-0.7,0.5c-0.6,0.4-0.8,1.3-0.4,1.9c0.4,0.6,1.3,0.8,1.9,0.4c0.1-0.1,0.4-0.3,0.7-0.5
	c0.4,0.4,0.8,0.8,1.2,1.2L91,47.5c-0.4,0.6-0.2,1.5,0.4,1.9c0.6,0.4,1.5,0.2,1.9-0.4l0.4-0.7c0.5,0.3,1.1,0.5,1.6,0.6
	c-0.1,0.3-0.1,0.6-0.2,0.8c-0.1,0.8,0.4,1.5,1.1,1.6c0.8,0.1,1.5-0.4,1.6-1.1c0-0.2,0.1-0.5,0.1-0.8c0.6,0,1.1,0,1.7,0
	c0.1,0.3,0.1,0.6,0.2,0.8c0.2,0.8,0.9,1.2,1.7,1.1c0.8-0.2,1.3-0.9,1.1-1.7c0-0.2-0.1-0.5-0.2-0.8c0.5-0.2,1.1-0.4,1.6-0.7
	c0.2,0.3,0.4,0.5,0.5,0.7c0.4,0.6,1.3,0.8,1.9,0.4c0.6-0.4,0.8-1.3,0.4-1.9c-0.1-0.1-0.3-0.4-0.5-0.7c0.4-0.4,0.8-0.8,1.2-1.2
	l0.7,0.4c0.6,0.4,1.5,0.2,1.9-0.4c0.4-0.6,0.2-1.5-0.4-1.9l-0.7-0.4c0.3-0.5,0.5-1.1,0.6-1.6c0.3,0.1,0.6,0.1,0.8,0.2
	c0.8,0.1,1.5-0.4,1.6-1.1c0.1-0.8-0.4-1.5-1.1-1.6c-0.2,0-0.5-0.1-0.8-0.2c0-0.6,0-1.1,0-1.7c0.3-0.1,0.6-0.1,0.8-0.2
	c0.8-0.2,1.2-0.9,1.1-1.7c-0.2-0.8-0.9-1.2-1.7-1.1c-0.2,0-0.5,0.1-0.8,0.2c-0.2-0.5-0.4-1.1-0.7-1.6c0.3-0.2,0.5-0.4,0.7-0.5
	c0.6-0.4,0.8-1.3,0.4-1.9c-0.4-0.6-1.3-0.8-2-0.4c-0.1,0.1-0.4,0.3-0.7,0.5c-0.4-0.4-0.8-0.8-1.2-1.2l0.4-0.7
	c0.4-0.6,0.2-1.5-0.4-1.9c-0.6-0.4-1.5-0.2-1.9,0.4l-0.4,0.7c-0.5-0.3-1.1-0.5-1.6-0.7c0.1-0.3,0.1-0.6,0.1-0.8
	c0.1-0.8-0.4-1.5-1.1-1.6c-0.8-0.1-1.5,0.4-1.6,1.1c0,0.2-0.1,0.5-0.2,0.8c-0.6,0-1.1,0-1.7,0c-0.1-0.3-0.1-0.6-0.2-0.8
	c-0.2-0.8-0.9-1.2-1.7-1.1c-0.8,0.2-1.2,0.9-1.1,1.7c0,0.2,0.1,0.5,0.2,0.8c-0.5,0.2-1.1,0.4-1.6,0.7c-0.2-0.3-0.4-0.5-0.4-0.7
	c-0.4-0.6-1.3-0.8-2-0.4c-0.6,0.4-0.8,1.3-0.4,2c0.1,0.1,0.3,0.4,0.4,0.7c-0.4,0.4-0.8,0.8-1.2,1.2L89.4,30.2z M104,30.3
	c4.3,2.8,5.4,8.6,2.6,12.8c-2.8,4.3-8.6,5.5-12.8,2.6c-4.3-2.8-5.5-8.6-2.6-12.8C93.9,28.7,99.7,27.5,104,30.3z"/>
<circle id="XMLID_128_" class="st3" cx="98.9" cy="38.1" r="6.5"/>
<rect id="XMLID_127_" x="94.1" y="42.4" transform="matrix(-0.8347 -0.5507 0.5507 -0.8347 149.003 133.8446)" class="st3" width="1" height="4.2"/>
<rect id="XMLID_126_" x="102.6" y="29.5" transform="matrix(-0.8349 -0.5504 0.5504 -0.8349 171.8498 114.7321)" class="st3" width="1" height="4.2"/>
<rect id="XMLID_125_" x="91.9" y="31.7" transform="matrix(0.5508 -0.8347 0.8347 0.5508 13.2831 92.2902)" class="st3" width="1" height="4.2"/>
<rect id="XMLID_124_" x="104.8" y="40.2" transform="matrix(0.5503 -0.835 0.835 0.5503 12.0156 107.0068)" class="st3" width="1" height="4.2"/>
<path id="XMLID_121_" class="st3" d="M172.4,113.8c-0.6-0.4-1.5-0.2-1.9,0.4c-0.4,0.6-0.2,1.5,0.4,1.9l0.7,0.4
	c-0.3,0.5-0.5,1.1-0.6,1.6c-0.3-0.1-0.6-0.1-0.8-0.2c-0.8-0.1-1.5,0.4-1.6,1.1c-0.1,0.8,0.4,1.5,1.1,1.6c0.2,0,0.5,0.1,0.8,0.2
	c0,0.6,0,1.1,0,1.7c-0.3,0.1-0.6,0.1-0.8,0.2c-0.8,0.2-1.3,0.9-1.1,1.7c0.2,0.8,0.9,1.2,1.7,1.1c0.2,0,0.5-0.1,0.8-0.2
	c0.2,0.5,0.4,1.1,0.7,1.6c-0.3,0.2-0.5,0.4-0.7,0.5c-0.6,0.4-0.8,1.3-0.4,1.9c0.4,0.6,1.3,0.8,1.9,0.4c0.1-0.1,0.4-0.3,0.7-0.5
	c0.4,0.4,0.8,0.8,1.2,1.2l-0.4,0.7c-0.4,0.6-0.2,1.5,0.4,1.9c0.6,0.4,1.5,0.2,1.9-0.4l0.4-0.7c0.5,0.3,1.1,0.5,1.6,0.6
	c-0.1,0.3-0.1,0.6-0.2,0.8c-0.1,0.8,0.4,1.5,1.1,1.6c0.8,0.1,1.5-0.4,1.6-1.1c0-0.2,0.1-0.5,0.1-0.8c0.6,0,1.1,0,1.7,0
	c0.1,0.3,0.1,0.6,0.2,0.8c0.2,0.8,0.9,1.2,1.7,1.1c0.8-0.2,1.3-0.9,1.1-1.7c0-0.2-0.1-0.5-0.2-0.8c0.5-0.2,1.1-0.4,1.6-0.7
	c0.2,0.3,0.4,0.5,0.5,0.7c0.4,0.6,1.3,0.8,1.9,0.4c0.6-0.4,0.8-1.3,0.4-1.9c-0.1-0.1-0.3-0.4-0.5-0.7c0.4-0.4,0.8-0.8,1.2-1.2
	l0.7,0.4c0.6,0.4,1.5,0.2,1.9-0.4c0.4-0.6,0.2-1.5-0.4-1.9l-0.7-0.4c0.3-0.5,0.5-1.1,0.6-1.6c0.3,0.1,0.6,0.1,0.8,0.2
	c0.8,0.1,1.5-0.4,1.6-1.1c0.1-0.8-0.4-1.5-1.1-1.6c-0.2,0-0.5-0.1-0.8-0.2c0-0.6,0-1.1,0-1.7c0.3-0.1,0.6-0.1,0.8-0.2
	c0.8-0.2,1.2-0.9,1.1-1.7c-0.2-0.8-0.9-1.2-1.7-1.1c-0.2,0-0.5,0.1-0.8,0.2c-0.2-0.5-0.4-1.1-0.7-1.6c0.3-0.2,0.5-0.4,0.7-0.5
	c0.6-0.4,0.8-1.3,0.4-1.9c-0.4-0.6-1.3-0.8-2-0.4c-0.1,0.1-0.4,0.3-0.7,0.5c-0.4-0.4-0.8-0.8-1.2-1.2l0.4-0.7
	c0.4-0.6,0.2-1.5-0.4-1.9c-0.6-0.4-1.5-0.2-1.9,0.4l-0.4,0.7c-0.5-0.3-1.1-0.5-1.6-0.7c0.1-0.3,0.1-0.6,0.1-0.8
	c0.1-0.8-0.4-1.5-1.1-1.6c-0.8-0.1-1.5,0.4-1.6,1.1c0,0.2-0.1,0.5-0.2,0.8c-0.6,0-1.1,0-1.7,0c-0.1-0.3-0.1-0.6-0.2-0.8
	c-0.2-0.8-0.9-1.2-1.7-1.1c-0.8,0.2-1.2,0.9-1.1,1.7c0,0.2,0.1,0.5,0.2,0.8c-0.5,0.2-1.1,0.4-1.6,0.7c-0.2-0.3-0.4-0.5-0.4-0.7
	c-0.4-0.6-1.3-0.8-2-0.4c-0.6,0.4-0.8,1.3-0.4,2c0.1,0.1,0.3,0.4,0.4,0.7c-0.4,0.4-0.8,0.8-1.2,1.2L172.4,113.8z M186.9,113.9
	c4.3,2.8,5.4,8.6,2.6,12.8c-2.8,4.3-8.6,5.5-12.8,2.6c-4.3-2.8-5.5-8.6-2.6-12.8C176.9,112.3,182.7,111.1,186.9,113.9z"/>
<circle id="XMLID_120_" class="st3" cx="181.8" cy="121.7" r="6.5"/>
<rect id="XMLID_119_" x="177" y="126" transform="matrix(-0.8347 -0.5507 0.5507 -0.8347 255.2038 332.9109)" class="st3" width="1" height="4.2"/>
<rect id="XMLID_118_" x="185.6" y="113.1" transform="matrix(-0.8349 -0.5504 0.5504 -0.8349 278.0932 313.7898)" class="st3" width="1" height="4.2"/>
<rect id="XMLID_117_" x="174.8" y="115.3" transform="matrix(0.5508 -0.8347 0.8347 0.5508 -19.2152 199.1017)" class="st3" width="1" height="4.2"/>
<rect id="XMLID_116_" x="187.8" y="123.8" transform="matrix(0.5503 -0.835 0.835 0.5503 -20.4691 213.8856)" class="st3" width="1" height="4.2"/>
<path id="XMLID_113_" class="st3" d="M75.9,48.9c2.3-2.4,2.2-6.3-0.3-8.6c-2.4-2.3-6.3-2.2-8.6,0.3c-2.3,2.4-2.2,6.3,0.3,8.6
	C69.7,51.4,73.6,51.3,75.9,48.9z M68.3,41.7c1.7-1.8,4.4-1.8,6.2-0.2c1.8,1.7,1.8,4.4,0.2,6.2c-1.7,1.8-4.4,1.8-6.2,0.2
	C66.7,46.2,66.6,43.5,68.3,41.7z"/>
<circle id="XMLID_112_" class="st3" cx="71.5" cy="44.7" r="2.6"/>
<path id="XMLID_109_" class="st3" d="M62.8,53.9c0.5,0.4,0.5,1.1,0.1,1.6c0.8,0.6,1.6,1.2,2.5,1.6c0.2-0.6,0.9-0.8,1.5-0.6
	c0.6,0.2,0.9,0.9,0.7,1.4c1,0.3,2.1,0.5,3.2,0.6c0-0.6,0.5-1.1,1.1-1.1c0.6,0,1.1,0.5,1.2,1.1c1-0.1,1.9-0.3,2.9-0.6
	c-0.2-0.6,0-1.2,0.6-1.5c0.6-0.2,1.2,0,1.5,0.5c0.9-0.5,1.8-1.1,2.6-1.9c-0.4-0.4-0.4-1.1,0-1.6c0.4-0.4,1.1-0.5,1.6-0.1
	c0.6-0.8,1.2-1.6,1.6-2.5c-0.6-0.2-0.8-0.9-0.6-1.5c0.2-0.6,0.9-0.9,1.4-0.7c0.3-1,0.5-2.1,0.5-3.2c-0.6,0-1.1-0.5-1.1-1.1
	c0-0.6,0.5-1.1,1.1-1.2c-0.1-1-0.3-2-0.6-2.9c-0.6,0.2-1.2,0-1.5-0.6c-0.2-0.6,0-1.2,0.5-1.5c-0.5-0.9-1.1-1.8-1.9-2.6
	c-0.4,0.4-1.1,0.4-1.6,0c-0.4-0.4-0.5-1.1-0.1-1.6c-0.8-0.6-1.6-1.2-2.5-1.6c-0.2,0.6-0.9,0.8-1.5,0.6c-0.6-0.2-0.9-0.9-0.7-1.4
	c-1-0.3-2.1-0.5-3.2-0.6c0,0.6-0.5,1.1-1.1,1.1c-0.6,0-1.1-0.5-1.2-1.1c-1,0.1-1.9,0.3-2.9,0.6c0.2,0.6,0,1.2-0.6,1.5
	c-0.6,0.2-1.2,0-1.5-0.6c-0.9,0.5-1.8,1.1-2.6,1.9c0.4,0.4,0.4,1.1,0,1.6c-0.4,0.4-1.1,0.5-1.6,0.1c-0.6,0.8-1.2,1.6-1.6,2.5
	c0.6,0.2,0.8,0.9,0.6,1.5c-0.2,0.6-0.9,0.9-1.4,0.7c-0.3,1-0.5,2.1-0.6,3.2c0.6,0,1.1,0.5,1.1,1.1c0,0.6-0.5,1.1-1.1,1.2
	c0.1,1,0.3,2,0.6,2.9c0.6-0.2,1.2,0,1.5,0.6c0.2,0.6,0,1.2-0.6,1.5c0.5,0.9,1.1,1.8,1.9,2.6C61.7,53.5,62.4,53.5,62.8,53.9z
	 M64.3,38c3.7-4,10-4.1,13.9-0.4c4,3.7,4.1,10,0.4,13.9c-3.7,4-10,4.1-13.9,0.4C60.8,48.2,60.6,41.9,64.3,38z"/>
<path id="XMLID_106_" class="st3" d="M107.6,73.6c0.4,0.5,0.8,1,1.3,1.4c0.5,0.4,1,0.9,1.5,1.2l1.5-1.6c0.4,0.3,0.8,0.6,1.3,0.8
	l-0.8,2c1.1,0.6,2.3,1.1,3.6,1.4l0.8-2c0.6,0.1,1.1,0.2,1.7,0.3l0.1,2.2c1.3,0.1,2.6,0.1,3.8-0.1l-0.1-2.2c0.5-0.1,1-0.2,1.4-0.3
	l0.9,2c1.2-0.4,2.4-0.9,3.5-1.5l-0.9-2c0.5-0.3,1-0.6,1.4-1l1.6,1.5c0.5-0.4,0.9-0.8,1.4-1.3c0.4-0.5,0.9-1,1.2-1.5l-1.6-1.5
	c0.3-0.4,0.6-0.8,0.8-1.2l2,0.8c0.6-1.1,1.1-2.3,1.4-3.6l-2-0.8c0.1-0.6,0.2-1.1,0.3-1.7l2.2-0.1c0.1-1.3,0.1-2.6-0.1-3.8l-2.2,0.1
	c-0.1-0.5-0.2-1-0.3-1.4l2-0.9c-0.4-1.2-0.9-2.4-1.5-3.5l-2,0.9c-0.3-0.5-0.6-1-1-1.4l1.5-1.6c-0.4-0.5-0.8-1-1.3-1.4
	c-0.5-0.4-1-0.9-1.5-1.2L128,52c-0.4-0.3-0.8-0.6-1.2-0.8l0.8-2c-1.1-0.6-2.3-1.1-3.6-1.4l-0.8,2c-0.6-0.1-1.1-0.2-1.7-0.3l-0.1-2.2
	c-1.3-0.1-2.6-0.1-3.8,0.1l0.1,2.2c-0.5,0.1-1,0.2-1.4,0.3l-0.9-2c-1.2,0.4-2.4,0.9-3.5,1.5l0.9,2c-0.5,0.3-1,0.6-1.4,1l-1.6-1.5
	c-0.5,0.4-1,0.8-1.4,1.3c-0.4,0.5-0.9,1-1.2,1.5l1.6,1.5c-0.3,0.4-0.6,0.8-0.8,1.3l-2-0.8c-0.6,1.1-1.1,2.3-1.4,3.6l2,0.8
	c-0.1,0.6-0.2,1.1-0.3,1.7l-2.2,0.1c-0.1,1.3-0.1,2.6,0.1,3.8l2.2-0.1c0.1,0.5,0.2,1,0.3,1.4l-2,0.9c0.4,1.2,0.9,2.4,1.5,3.5l2-0.9
	c0.3,0.5,0.6,1,1,1.4L107.6,73.6z M112.8,56.6c3.7-4,9.9-4.1,13.9-0.4c4,3.7,4.1,9.9,0.4,13.9c-3.7,4-9.9,4.1-13.9,0.4
	C109.3,66.8,109.1,60.6,112.8,56.6z"/>
<path id="XMLID_105_" class="st3" d="M114.9,68.7c-2.9-2.8-3.1-7.4-0.3-10.4c2.8-3,7.4-3.1,10.4-0.3c3,2.8,3.1,7.4,0.3,10.4
	C122.5,71.3,117.9,71.5,114.9,68.7z"/>
<path id="XMLID_102_" class="st3" d="M138.1,89.9c0.3,0.8-0.1,1.7-0.8,2.1c0.6,1.3,1.4,2.5,2.3,3.5c0.6-0.6,1.6-0.5,2.3,0.1
	c0.6,0.6,0.6,1.6,0,2.3c1.2,1,2.4,1.9,3.8,2.6c0.4-0.8,1.3-1.1,2.1-0.8c0.8,0.3,1.2,1.3,0.9,2.1c1.3,0.4,2.7,0.7,4.1,0.9
	c0-0.9,0.8-1.5,1.7-1.5c0.9,0,1.6,0.7,1.6,1.6c1.5-0.1,3-0.4,4.5-0.8c-0.3-0.8,0.1-1.7,0.9-2.1c0.8-0.3,1.7,0.1,2.1,0.8
	c1.3-0.6,2.5-1.4,3.5-2.3c-0.6-0.7-0.5-1.6,0.1-2.3c0.6-0.6,1.6-0.6,2.2,0c1-1.2,1.9-2.4,2.6-3.8c-0.8-0.4-1.1-1.3-0.8-2.1
	c0.3-0.8,1.3-1.2,2.1-0.9c0.4-1.3,0.7-2.7,0.9-4.1c-0.9,0-1.5-0.8-1.5-1.6c0-0.9,0.7-1.6,1.6-1.6c-0.1-1.5-0.4-3-0.8-4.5
	c-0.8,0.3-1.7-0.1-2.1-0.9c-0.3-0.8,0.1-1.7,0.8-2.1c-0.6-1.3-1.4-2.5-2.3-3.5c-0.6,0.6-1.6,0.5-2.3-0.1c-0.6-0.6-0.6-1.6,0-2.3
	c-1.2-1-2.4-1.9-3.8-2.6c-0.4,0.8-1.3,1.1-2.1,0.8c-0.8-0.3-1.2-1.3-0.9-2.1c-1.3-0.4-2.7-0.7-4.1-0.9c0,0.9-0.8,1.5-1.7,1.5
	c-0.9,0-1.6-0.7-1.6-1.6c-1.5,0.1-3,0.4-4.5,0.8c0.3,0.8-0.1,1.7-0.9,2.1c-0.8,0.3-1.7,0-2.1-0.8c-1.3,0.6-2.5,1.4-3.5,2.3
	c0.6,0.7,0.5,1.7-0.1,2.3c-0.6,0.6-1.6,0.6-2.2,0c-1,1.2-1.9,2.4-2.6,3.8c0.8,0.4,1.1,1.3,0.8,2.1c-0.3,0.8-1.3,1.2-2.1,0.9
	c-0.4,1.3-0.7,2.7-0.9,4.1c0.9,0,1.5,0.8,1.5,1.6c0,0.9-0.7,1.6-1.6,1.6c0.1,1.5,0.4,3,0.8,4.5C136.9,88.7,137.8,89.1,138.1,89.9z
	 M149.5,70.3c7.2-2.9,15.3,0.6,18.2,7.8c2.9,7.2-0.6,15.3-7.8,18.2c-7.2,2.9-15.3-0.6-18.2-7.8C138.9,81.3,142.4,73.2,149.5,70.3z"
	/>
<path id="XMLID_99_" class="st3" d="M149.1,69.2c7.8-3.1,16.6,0.7,19.7,8.5c3.1,7.8-0.7,16.6-8.5,19.7c-7.8,3.1-16.6-0.7-19.7-8.5
	C137.5,81.1,141.3,72.3,149.1,69.2z M159.7,95.6c6.8-2.7,10.1-10.5,7.4-17.3c-2.7-6.8-10.5-10.1-17.3-7.4
	c-6.8,2.7-10.1,10.5-7.4,17.3C145.1,95,152.9,98.4,159.7,95.6z"/>
<path id="XMLID_98_" class="st3" d="M186.6,88c0.5-0.2,1,0,1.2,0.5l3.6,9c0.2,0.5,0,1-0.5,1.2c-0.5,0.2-1,0-1.2-0.5l-3.6-9
	C185.9,88.8,186.1,88.2,186.6,88z"/>
<path id="XMLID_97_" class="st3" d="M163.1,71.1c0.3-0.1,0.7-0.1,0.9,0.1c0.4,0.3,0.5,0.9,0.2,1.3l-6,7.6c-0.3,0.4-0.9,0.5-1.3,0.2
	c-0.4-0.3-0.5-0.9-0.2-1.3l6-7.6C162.8,71.3,162.9,71.2,163.1,71.1z"/>
<path id="XMLID_96_" class="st3" d="M163.1,71.1c0.3-0.1,0.7-0.1,0.9,0.1c0.4,0.3,0.5,0.9,0.2,1.3l-6,7.6c-0.3,0.4-0.9,0.5-1.3,0.2
	c-0.4-0.3-0.5-0.9-0.2-1.3l6-7.6C162.8,71.3,162.9,71.2,163.1,71.1z"/>
<path id="XMLID_93_" class="st3" d="M152.7,78.2c2.8-1.1,6,0.2,7.1,3.1c1.1,2.8-0.2,6-3.1,7.1c-2.8,1.1-6-0.2-7.1-3.1
	C148.5,82.5,149.9,79.3,152.7,78.2z M156.1,86.6c1.9-0.7,2.8-2.9,2-4.7c-0.7-1.9-2.9-2.8-4.7-2c-1.9,0.7-2.8,2.9-2,4.7
	C152.1,86.5,154.2,87.4,156.1,86.6z"/>
<circle id="XMLID_92_" class="st3" cx="185.3" cy="84.7" r="2.1"/>
<path id="XMLID_89_" class="st3" d="M164,71.3c6.6,5.1,7.9,14.7,2.7,21.3c-5.1,6.6-14.7,7.9-21.3,2.7c-6.6-5.1-7.9-14.7-2.7-21.3
	C147.8,67.4,157.4,66.1,164,71.3z M146.6,93.8c5.8,4.5,14.2,3.4,18.7-2.4c4.5-5.8,3.4-14.2-2.4-18.7c-5.8-4.5-14.2-3.4-18.7,2.4
	C139.7,80.9,140.8,89.3,146.6,93.8z"/>
<path id="XMLID_88_" class="st3" d="M183.1,87.5c0.4,0.3,0.5,0.9,0.2,1.3l-5.9,7.7c-0.3,0.4-0.9,0.5-1.3,0.2
	c-0.4-0.3-0.5-0.9-0.2-1.3l5.9-7.7C182.1,87.3,182.6,87.2,183.1,87.5z"/>
<path id="XMLID_87_" class="st3" d="M150,69.3c0.1,0.1,0.2,0.2,0.3,0.4l3.7,9c0.1,0.3,0.1,0.7-0.1,0.9c-0.1,0.1-0.2,0.2-0.4,0.3
	c-0.5,0.2-1,0-1.2-0.5l-3.7-9c-0.1-0.3-0.1-0.7,0.1-0.9c0.1-0.1,0.2-0.2,0.4-0.3C149.4,69,149.8,69.1,150,69.3z"/>
<path id="XMLID_84_" class="st3" d="M231.8,105.2c-0.3-0.8,0.1-1.7,0.8-2.1c-0.6-1.3-1.4-2.5-2.3-3.5c-0.6,0.6-1.6,0.5-2.3-0.1
	c-0.6-0.6-0.6-1.6,0-2.3c-1.2-1-2.4-1.9-3.8-2.6c-0.4,0.8-1.3,1.1-2.1,0.8c-0.8-0.3-1.2-1.3-0.9-2.1c-1.3-0.4-2.7-0.7-4.1-0.9
	c0,0.9-0.8,1.5-1.7,1.5c-0.9,0-1.6-0.7-1.6-1.6c-1.5,0.1-3,0.4-4.5,0.8c0.3,0.8-0.1,1.7-0.9,2.1c-0.8,0.3-1.7-0.1-2.1-0.8
	c-1.3,0.6-2.5,1.4-3.5,2.3c0.6,0.7,0.5,1.6-0.1,2.3c-0.6,0.6-1.6,0.6-2.2,0c-1,1.2-1.9,2.4-2.6,3.8c0.8,0.4,1.1,1.3,0.8,2.1
	c-0.3,0.8-1.3,1.2-2.1,0.9c-0.4,1.3-0.7,2.7-0.9,4.1c0.9,0,1.5,0.8,1.5,1.6c0,0.9-0.7,1.6-1.6,1.6c0.1,1.5,0.4,3,0.8,4.5
	c0.8-0.3,1.7,0.1,2.1,0.9c0.3,0.8-0.1,1.7-0.8,2.1c0.6,1.3,1.4,2.5,2.3,3.5c0.6-0.6,1.6-0.5,2.3,0.1c0.6,0.6,0.6,1.6,0,2.3
	c1.2,1,2.4,1.9,3.8,2.6c0.4-0.8,1.3-1.1,2.1-0.8c0.8,0.3,1.2,1.3,0.9,2.1c1.3,0.4,2.7,0.7,4.1,0.9c0-0.9,0.8-1.5,1.7-1.5
	c0.9,0,1.6,0.7,1.6,1.6c1.5-0.1,3-0.4,4.5-0.8c-0.3-0.8,0.1-1.7,0.9-2.1c0.8-0.3,1.7,0,2.1,0.8c1.3-0.6,2.5-1.4,3.5-2.3
	c-0.6-0.7-0.5-1.7,0.1-2.3c0.6-0.6,1.6-0.6,2.2,0c1-1.2,1.9-2.4,2.6-3.8c-0.8-0.4-1.1-1.3-0.8-2.1c0.3-0.8,1.3-1.2,2.1-0.9
	c0.4-1.3,0.7-2.7,0.9-4.1c-0.9,0-1.5-0.8-1.5-1.6c0-0.9,0.7-1.6,1.6-1.6c-0.1-1.5-0.4-3-0.8-4.5C233,106.4,232.1,106,231.8,105.2z
	 M220.4,124.8c-7.2,2.9-15.3-0.6-18.2-7.8c-2.9-7.2,0.6-15.3,7.8-18.2c7.2-2.9,15.3,0.6,18.2,7.8C231.1,113.8,227.6,122,220.4,124.8
	z"/>
<path id="XMLID_81_" class="st3" d="M220.8,125.9c-7.8,3.1-16.6-0.7-19.7-8.5c-3.1-7.8,0.7-16.6,8.5-19.7c7.8-3.1,16.6,0.7,19.7,8.5
	C232.4,114,228.6,122.8,220.8,125.9z M210.3,99.5c-6.8,2.7-10.1,10.5-7.4,17.3c2.7,6.8,10.5,10.1,17.3,7.4
	c6.8-2.7,10.1-10.5,7.4-17.3C224.8,100.1,217.1,96.8,210.3,99.5z"/>
<path id="XMLID_80_" class="st3" d="M206.9,124c-0.3,0.1-0.7,0.1-0.9-0.1c-0.4-0.3-0.5-0.9-0.2-1.3l6-7.6c0.3-0.4,0.9-0.5,1.3-0.2
	c0.4,0.3,0.5,0.9,0.2,1.3l-6,7.6C207.1,123.9,207,123.9,206.9,124z"/>
<path id="XMLID_79_" class="st3" d="M206.9,124c-0.3,0.1-0.7,0.1-0.9-0.1c-0.4-0.3-0.5-0.9-0.2-1.3l6-7.6c0.3-0.4,0.9-0.5,1.3-0.2
	c0.4,0.3,0.5,0.9,0.2,1.3l-6,7.6C207.1,123.9,207,123.9,206.9,124z"/>
<path id="XMLID_76_" class="st3" d="M205.9,123.9c-6.6-5.1-7.9-14.7-2.7-21.3c5.1-6.6,14.7-7.9,21.3-2.7c6.6,5.1,7.9,14.7,2.7,21.3
	C222.1,127.8,212.6,129,205.9,123.9z M223.3,101.3c-5.8-4.5-14.2-3.4-18.7,2.4c-4.5,5.8-3.4,14.2,2.4,18.7
	c5.8,4.5,14.2,3.4,18.7-2.4C230.2,114.2,229.1,105.8,223.3,101.3z"/>
<path id="XMLID_75_" class="st3" d="M219.9,125.8c-0.1-0.1-0.2-0.2-0.3-0.4l-3.7-9c-0.1-0.3-0.1-0.7,0.1-0.9
	c0.1-0.1,0.2-0.2,0.4-0.3c0.5-0.2,1,0,1.2,0.5l3.7,9c0.1,0.3,0.1,0.7-0.1,0.9c-0.1,0.1-0.2,0.2-0.4,0.3
	C220.5,126.1,220.2,126,219.9,125.8z"/>
<path id="XMLID_74_" class="st3" d="M200,85.7c0.3,0.2,0.4,0.5,0.4,0.9c-0.1,0.5-0.5,0.9-1.1,0.8l-9.6-1.3c-0.5-0.1-0.9-0.5-0.8-1.1
	c0.1-0.5,0.5-0.9,1.1-0.8l9.6,1.3C199.7,85.5,199.9,85.6,200,85.7z"/>
<path id="XMLID_73_" class="st3" d="M200,85.7c0.3,0.2,0.4,0.5,0.4,0.9c-0.1,0.5-0.5,0.9-1.1,0.8l-9.6-1.3c-0.5-0.1-0.9-0.5-0.8-1.1
	c0.1-0.5,0.5-0.9,1.1-0.8l9.6,1.3C199.7,85.5,199.9,85.6,200,85.7z"/>
<path id="XMLID_70_" class="st3" d="M158.1,78.9c2.4,1.9,2.8,5.3,1,7.7c-1.8,2.4-5.3,2.8-7.7,1c-2.4-1.8-2.8-5.3-1-7.7
	C152.2,77.5,155.7,77.1,158.1,78.9z M152.5,86.1c1.6,1.2,3.9,0.9,5.1-0.7c1.2-1.6,0.9-3.9-0.7-5.1c-1.6-1.2-3.9-0.9-5.1,0.7
	C150.7,82.6,151,84.9,152.5,86.1z"/>
<circle id="XMLID_69_" class="st3" cx="185.3" cy="84.7" r="2.1"/>
<polygon id="XMLID_68_" class="st1" points="237.5,82.8 241.2,86.5 241.2,112.7 237.5,116.3 131.2,116.3 122.1,109.4 99.8,92.7 
	86.2,82.5 52.9,82.5 49.2,78.8 49.2,52.6 52.9,48.9 99.1,48.9 143,82.8 "/>
<circle id="XMLID_67_" class="st3" cx="232.2" cy="91.1" r="2.8"/>
<circle id="XMLID_66_" class="st3" cx="232.2" cy="108" r="2.8"/>
<circle id="XMLID_65_" class="st3" cx="57.7" cy="57.4" r="2.8"/>
<circle id="XMLID_64_" class="st3" cx="57.7" cy="74.2" r="2.8"/>
<polygon id="XMLID_63_" class="st4" points="125.8,104.4 125.8,108.2 119.9,111.2 92.8,90.7 92.8,86.9 98.6,84 "/>
<circle id="XMLID_62_" class="st3" cx="97.5" cy="88.6" r="1.7"/>
<circle id="XMLID_61_" class="st3" cx="120" cy="105.8" r="1.7"/>
<circle id="XMLID_60_" class="st3" cx="210.5" cy="99.3" r="7.2"/>
<path id="XMLID_59_" class="st1" d="M216.1,99.4c0,1.1-0.3,2.1-0.9,3c-1.2-1.3-2.9-2.1-4.7-2.1c-1.9,0-3.5,0.8-4.7,2.1
	c-0.6-0.9-0.9-1.9-0.9-3c0-3.1,2.5-5.6,5.6-5.6C213.6,93.8,216.1,96.3,216.1,99.4z"/>
<path id="XMLID_58_" class="st4" d="M215.2,102.5c-0.1,0.2-0.2,0.3-0.4,0.5c-1,1.3-2.6,2.1-4.4,2.1c-1.8,0-3.3-0.8-4.4-2.1
	c-0.1-0.2-0.2-0.3-0.4-0.5c1.2-1.3,2.8-2.1,4.7-2.1C212.4,100.4,214,101.2,215.2,102.5z"/>
<path id="XMLID_57_" class="st4" d="M210.5,97.2v3.3V97.2z"/>
<path id="XMLID_56_" class="st4" d="M211,97.2v3.3c0,0.3-0.2,0.5-0.5,0.5c-0.3,0-0.5-0.2-0.5-0.5v-3.3c0-0.3,0.2-0.5,0.5-0.5
	C210.8,96.7,211,96.9,211,97.2z"/>
<circle id="XMLID_55_" class="st3" cx="192.5" cy="99.3" r="7.2"/>
<path id="XMLID_54_" class="st1" d="M198.1,99.4c0,1.1-0.3,2.1-0.9,3c-1.2-1.3-2.9-2.1-4.7-2.1c-1.9,0-3.5,0.8-4.7,2.1
	c-0.6-0.9-0.9-1.9-0.9-3c0-3.1,2.5-5.6,5.6-5.6C195.6,93.8,198.1,96.3,198.1,99.4z"/>
<path id="XMLID_53_" class="st4" d="M197.2,102.5c-0.1,0.2-0.2,0.3-0.4,0.5c-1,1.3-2.6,2.1-4.4,2.1c-1.8,0-3.3-0.8-4.4-2.1
	c-0.1-0.2-0.2-0.3-0.4-0.5c1.2-1.3,2.8-2.1,4.7-2.1C194.3,100.4,196,101.2,197.2,102.5z"/>
<path id="XMLID_52_" class="st4" d="M192.5,97.2v3.3V97.2z"/>
<path id="XMLID_51_" class="st4" d="M193,97.2v3.3c0,0.3-0.2,0.5-0.5,0.5c-0.3,0-0.5-0.2-0.5-0.5v-3.3c0-0.3,0.2-0.5,0.5-0.5
	C192.8,96.7,193,96.9,193,97.2z"/>
<path id="XMLID_50_" class="st4" d="M78.3,84.4v38.1c0,3.6-2.9,6.5-6.5,6.5h-7.6V121h6.2V84.4H78.3z"/>
<polygon id="XMLID_49_" class="st1" points="57.8,140 52.9,144.8 30.7,144.8 25.8,140 25.8,103.8 30.7,99 53.2,99 57.8,103.5 "/>
<path id="XMLID_48_" class="st3" d="M53,118.6c-1.6,0.7-20.5,0.7-22,0c-1.6-0.7-1.6-14.4,0-15.1c1.6-0.7,20.5-0.7,22,0
	C54.5,104.2,54.5,117.9,53,118.6z"/>
<rect id="XMLID_47_" x="30.7" y="121.7" class="st3" width="22.5" height="1.5"/>
<rect id="XMLID_46_" x="30.7" y="124.9" class="st3" width="22.5" height="1.5"/>
<rect id="XMLID_45_" x="30.7" y="128.1" class="st3" width="22.5" height="1.5"/>
<circle id="XMLID_44_" class="st4" cx="50.1" cy="135.8" r="4"/>
<circle id="XMLID_43_" class="st3" cx="36" cy="136.1" r="1.6"/>
<circle id="XMLID_42_" class="st3" cx="40.5" cy="136.1" r="1.6"/>
<circle id="XMLID_41_" class="st3" cx="31.5" cy="136.1" r="1.6"/>
<rect id="XMLID_40_" x="57.8" y="117.2" class="st3" width="6.4" height="15.4"/>
<rect id="XMLID_39_" x="66.6" y="82.2" class="st3" width="15.4" height="6.4"/>
<circle id="XMLID_38_" class="st1" cx="50.1" cy="135.8" r="2.1"/>
<rect id="XMLID_37_" x="34.1" y="110.8" class="st4" width="2.6" height="6.5"/>
<rect id="XMLID_36_" x="38.4" y="106.5" class="st4" width="2.5" height="10.7"/>
<rect id="XMLID_35_" x="42.6" y="114.1" class="st4" width="2.6" height="3.1"/>
<rect id="XMLID_34_" x="46.9" y="109.9" class="st4" width="2.6" height="7.3"/>
<g id="XMLID_19_">
	<path id="XMLID_33_" class="st1" d="M217.3,36.8h-8.1h-1H200c0,0-20.8,19.6-0.3,45.7h8.4h1h8.4C238.1,56.4,217.3,36.8,217.3,36.8z"
		/>
	<path id="XMLID_32_" class="st5" d="M216,39.9h-7.1H208h-7.1c0,0-18.2,17.1-0.3,40h7.4h0.9h7.4C234.2,57,216,39.9,216,39.9z"/>
	<path id="XMLID_31_" class="st6" d="M221.1,40.4h-25.4c-1,0-1.7-0.8-1.7-1.7v-0.6c0-1,0.8-1.7,1.7-1.7h25.4c1,0,1.7,0.8,1.7,1.7
		v0.6C222.8,39.7,222,40.4,221.1,40.4z"/>
	<path id="XMLID_30_" class="st1" d="M221.1,36.2h-25.4c-1,0-1.7-0.8-1.7-1.7v-0.6c0-1,0.8-1.7,1.7-1.7h25.4c1,0,1.7,0.8,1.7,1.7
		v0.6C222.8,35.5,222,36.2,221.1,36.2z"/>
	<path id="XMLID_29_" class="st1" d="M199.4,59.9c-0.8,0-1.6-0.6-1.7-1.5c-1.2-6.8,1.7-9.9,2-10.2c0.7-0.7,1.8-0.7,2.5,0
		c0.7,0.7,0.7,1.8,0,2.5c-0.1,0.1-1.9,2.2-1.1,7.1c0.2,1-0.5,1.9-1.4,2.1C199.6,59.9,199.5,59.9,199.4,59.9z"/>
</g>
</svg>
