<?xml version="1.0" encoding="utf-8"?>
<!-- Generator: Adobe Illustrator 19.0.0, SVG Export Plug-In . SVG Version: 6.00 Build 0)  -->
<svg version="1.1" xmlns="http://www.w3.org/2000/svg" xmlns:xlink="http://www.w3.org/1999/xlink" x="0px" y="0px"
	 viewBox="0 0 345 191" style="enable-background:new 0 0 345 191;" xml:space="preserve">
<style type="text/css">
	.st0{fill:#519E38;}
	.st1{fill:#FCF3E0;}
</style>
<g id="Layer_2">
</g>
<g id="kolba_4">
</g>
<g id="doma">
</g>
<g id="butylka_3">
</g>
<g id="butylka_2">
</g>
<g id="butylka_1">
</g>
<g id="vanna_2">
</g>
<g id="sneg">
</g>
<g id="vanna_1">
</g>
<g id="shariki_2">
</g>
<g id="shariki_1">
</g>
<g id="voronka">
</g>
<g id="gradusnik">
</g>
<g id="kolba_2">
</g>
<g id="kolba_1">
</g>
<g id="probirki">
</g>
<g id="lupa">
</g>
<g id="zavod">
</g>
<g id="blank">
</g>
<g id="ticks">
	<g>
		<circle class="st0" cx="291.3" cy="74.9" r="6.1"/>
		<path class="st0" d="M285.2,103.1c0-6.1-3.7-11.3-9-13.5c0.3-0.7,0.5-1.5,0.5-2.4c0-3.4-2.7-6.1-6.1-6.1c-3.4,0-6.1,2.7-6.1,6.1
			c0,0.9,0.2,1.7,0.5,2.4c-1.3,0.6-2.6,1.3-3.7,2.2c-5.3-5.8-13-9.5-21.5-9.5c0,0-0.1,0-0.1,0c-0.2-2.9-0.9-5.6-2-8.1
			c5.1-0.6,9.1-4.9,9.1-10.2c0-5.7-4.6-10.3-10.3-10.3c-5,0-9.2,3.6-10.1,8.4c-2.7-1.4-5.7-2.3-8.8-2.7c2-1.9,3.3-4.6,3.3-7.6
			c0-5.7-4.6-10.3-10.3-10.3c-4.3,0-8,2.7-9.6,6.5c-5.2-4.7-12.1-7.7-19.7-7.7c-11.1,0-20.8,6.2-25.7,15.4c-0.9-2.3-3.1-4-5.7-4
			c-3.4,0-6.1,2.7-6.1,6.1c0,1.5,0.6,2.9,1.5,3.9c-4.2,2.1-7.8,5.3-10.3,9.3c-1-6.7-6.8-11.9-13.8-11.9c-7.7,0-14,6.3-14,14
			c0,2.7,0.8,5.2,2.1,7.3c-0.9-0.1-1.8-0.2-2.7-0.2c-9.8,0-18,6.8-20.2,16c-2-1.1-4.4-1.7-6.8-1.7c-8.1,0-14.6,6.5-14.6,14.6
			c0,8.1,6.5,14.6,14.6,14.6c2.3,0,4.4-0.5,6.3-1.5c0,0.5-0.1,1-0.1,1.5c0,16.1,13.1,29.2,29.2,29.2c5.1,0,9.9-1.3,14.1-3.6
			c0.6,2.8,3,4.8,5.9,4.8c3.4,0,6.1-2.7,6.1-6.1c0-0.4,0-0.7-0.1-1.1c2.8,0.7,5.7,1.1,8.7,1.1c3.2,0,6.2-0.4,9.1-1.2
			c4.6,10,14.7,16.9,26.5,16.9c16.1,0,29.2-13.1,29.2-29.2c0-0.8-0.1-1.5-0.1-2.3c0.9-0.7,1.8-1.4,2.6-2.3
			c5.4,6.5,13.4,10.6,22.5,10.6c8.9,0,16.8-4,22.2-10.2c2,2.6,5.1,4.2,8.6,4.2c6,0,10.9-4.9,10.9-10.9c0-3.2-1.4-6.1-3.6-8.1
			C282.2,113.3,285.2,108.5,285.2,103.1z M122.3,87.4c-0.1-0.1-0.2-0.2-0.3-0.3c0.2,0,0.4,0,0.5,0C122.5,87.2,122.4,87.3,122.3,87.4
			z"/>
	</g>
	<circle class="st1" cx="95.5" cy="89.5" r="20.8"/>
	<circle class="st1" cx="110" cy="61.6" r="14"/>
	<circle class="st1" cx="199.3" cy="40.3" r="10.3"/>
	<circle class="st1" cx="225.2" cy="52.4" r="10.3"/>
	<circle class="st1" cx="259.3" cy="75.6" r="6.1"/>
	<circle class="st1" cx="280" cy="63.2" r="6.1"/>
	<circle class="st1" cx="259.3" cy="112.3" r="10.9"/>
	<circle class="st1" cx="138.6" cy="46.3" r="6.1"/>
	<circle class="st1" cx="68.4" cy="97.7" r="14.6"/>
	<circle class="st1" cx="259.3" cy="91.5" r="14.6"/>
	<circle class="st1" cx="145.1" cy="72.7" r="25"/>
	<circle class="st1" cx="203.5" cy="72.7" r="25"/>
	<circle class="st1" cx="170.1" cy="58" r="29.2"/>
	<circle class="st1" cx="185.7" cy="97.7" r="29.2"/>
	<circle class="st1" cx="174.3" cy="123.2" r="29.2"/>
	<path class="st1" d="M175.3,99.9c0,20.3-16.4,36.7-36.7,36.7c-20.3,0-36.7-16.4-36.7-36.7c0-20.3,16.4-36.7,36.7-36.7
		C158.9,63.2,175.3,79.7,175.3,99.9z"/>
	<circle class="st1" cx="103.9" cy="112.3" r="29.2"/>
	<circle class="st1" cx="228.5" cy="99.9" r="29.2"/>
	<circle class="st1" cx="97.9" cy="91.5" r="8.4"/>
</g>
<g id="car">
</g>
</svg>
