<?xml version="1.0" encoding="utf-8"?>
<!-- Generator: Adobe Illustrator 19.0.0, SVG Export Plug-In . SVG Version: 6.00 Build 0)  -->
<svg version="1.1" id="Layer_1" xmlns="http://www.w3.org/2000/svg" xmlns:xlink="http://www.w3.org/1999/xlink" x="0px" y="0px"
	 viewBox="-63 21 285 236" style="enable-background:new -63 21 285 236;" xml:space="preserve">
<style type="text/css">
	.st0{fill:#519E38;}
	.st1{fill:#FFFFFF;}
	.st2{fill:#EDEDED;}
	.st3{fill:#CA0000;}
	.st4{fill:#B00000;}
	.st5{opacity:0.6;fill:none;stroke:#FFFFFF;stroke-width:2;stroke-linecap:round;enable-background:new    ;}
	.st6{fill:none;}
	.st7{fill:#FCF3E0;}
</style>
<g id="thermometr">
	<path id="XMLID_37_" class="st0" d="M178.5,102.4c0-7,0-52.7,0-54.7c0-0.5-0.1-0.9-0.2-1.4l0,0c0,0-0.8-5.5-6.2-6.1
		c0,0-3.8-0.1-6,1.1c-2.2,1.2,6.9,5.4,6.9,5.4s1.7,0.9,2.5,1.3c0,4.5,0,54.7,0,55.2v0.9l0.8,0.4c0.1,0,6.9,3.9,6.4,11.5
		c-0.4,5.9-3.8,10.3-8.9,12l-6.3-1.8c0,0-7.5-0.2-4.8,2.8c1.7,1.9,4.6,2.5,6.5,2.6c0.2,0.1,0.4,0.1,0.6,0.1l0,0c0.3,0,0.6,0,0.9-0.1
		c0.2,0,0.3,0,0.3,0l0,0c8.1-0.7,14.1-6.9,14.6-15.3C186.2,108.4,180.6,103.9,178.5,102.4z"/>
	<path id="XMLID_36_" class="st1" d="M175.5,103.1V48.2c0-4-3.2-7.2-7.2-7.2s-7.2,3.2-7.2,7.2V103c-4.4,2.5-7.3,7.2-7.3,12.6
		c0,8,6.5,14.4,14.4,14.4c8,0,14.4-6.5,14.4-14.4C182.7,110.3,179.8,105.6,175.5,103.1z"/>
	<path id="XMLID_35_" class="st2" d="M175.5,103.1V48.2c0-4-3.2-7.2-7.2-7.2c0,0,0,0-0.1,0v89c8,0,14.4-6.5,14.4-14.4
		C182.7,110.3,179.8,105.6,175.5,103.1z"/>
	<path id="XMLID_34_" class="st3" d="M172.8,105.3V60.9h-9.5v44.6l0,0c-3.9,1.9-6.6,5.8-6.6,10.4c0,6.4,5.2,11.5,11.5,11.5
		c6.4,0,11.5-5.2,11.5-11.5C179.8,111.2,176.9,107.1,172.8,105.3z"/>
	<path id="XMLID_33_" class="st4" d="M172.8,105.3V60.9h-4.5v66.5c6.4,0,11.5-5.2,11.5-11.5C179.8,111.2,176.9,107.1,172.8,105.3z"
		/>
	<path id="XMLID_32_" class="st5" d="M161.3,118.3c0,0,1.2,2.8,4,4"/>
	<path id="XMLID_31_" class="st1" d="M169.7,68.1h-2.9c-0.1,0-0.2-0.1-0.2-0.2s0.1-0.2,0.2-0.2h2.9c0.1,0,0.2,0.1,0.2,0.2
		C170,68,169.9,68.1,169.7,68.1z"/>
	<path id="XMLID_30_" class="st1" d="M169.7,69.8h-2.9c-0.1,0-0.2-0.1-0.2-0.2s0.1-0.2,0.2-0.2h2.9c0.1,0,0.2,0.1,0.2,0.2
		S169.9,69.8,169.7,69.8z"/>
	<path id="XMLID_29_" class="st1" d="M171.5,71.4H165c-0.1,0-0.2-0.1-0.2-0.2c0-0.1,0.1-0.2,0.2-0.2h6.5c0.1,0,0.2,0.1,0.2,0.2
		C171.7,71.3,171.6,71.4,171.5,71.4z"/>
	<path id="XMLID_28_" class="st1" d="M169.7,73.1h-2.9c-0.1,0-0.2-0.1-0.2-0.2c0-0.1,0.1-0.2,0.2-0.2h2.9c0.1,0,0.2,0.1,0.2,0.2
		C169.9,73,169.9,73.1,169.7,73.1z"/>
	<path id="XMLID_27_" class="st1" d="M169.7,74.7h-2.9c-0.1,0-0.2-0.1-0.2-0.2s0.1-0.2,0.2-0.2h2.9c0.1,0,0.2,0.1,0.2,0.2
		S169.9,74.7,169.7,74.7z"/>
	<path id="XMLID_26_" class="st1" d="M171.5,76.4H165c-0.1,0-0.2-0.1-0.2-0.2c0-0.1,0.1-0.2,0.2-0.2h6.5c0.1,0,0.2,0.1,0.2,0.2
		C171.7,76.3,171.6,76.4,171.5,76.4z"/>
	<path id="XMLID_25_" class="st1" d="M169.7,78h-2.9c-0.1,0-0.2-0.1-0.2-0.2c0-0.1,0.1-0.2,0.2-0.2h2.9c0.1,0,0.2,0.1,0.2,0.2
		C169.9,77.9,169.9,78,169.7,78z"/>
	<path id="XMLID_24_" class="st1" d="M169.7,79.6h-2.9c-0.1,0-0.2-0.1-0.2-0.2c0-0.1,0.1-0.2,0.2-0.2h2.9c0.1,0,0.2,0.1,0.2,0.2
		C169.9,79.5,169.9,79.6,169.7,79.6z"/>
	<path id="XMLID_23_" class="st1" d="M171.5,81.3H165c-0.1,0-0.2-0.1-0.2-0.2s0.1-0.2,0.2-0.2h6.5c0.1,0,0.2,0.1,0.2,0.2
		S171.6,81.3,171.5,81.3z"/>
	<path id="XMLID_22_" class="st1" d="M169.7,82.9h-2.9c-0.1,0-0.2-0.1-0.2-0.2c0-0.1,0.1-0.2,0.2-0.2h2.9c0.1,0,0.2,0.1,0.2,0.2
		C170,82.8,169.9,82.9,169.7,82.9z"/>
	<path id="XMLID_21_" class="st1" d="M169.7,84.6h-2.9c-0.1,0-0.2-0.1-0.2-0.2c0-0.1,0.1-0.2,0.2-0.2h2.9c0.1,0,0.2,0.1,0.2,0.2
		C170,84.5,169.9,84.6,169.7,84.6z"/>
	<path id="XMLID_20_" class="st1" d="M171.5,86.2H165c-0.1,0-0.2-0.1-0.2-0.2s0.1-0.2,0.2-0.2h6.5c0.1,0,0.2,0.1,0.2,0.2
		S171.6,86.2,171.5,86.2z"/>
	<g id="thermometer_x5F_mask_2_">
		<path id="XMLID_9_" class="st6" d="M172.8,105.3V60.9h-9.5v44.6l0,0c-3.9,1.9-6.6,5.8-6.6,10.4c0,6.4,5.2,11.5,11.5,11.5
			c6.4,0,11.5-5.2,11.5-11.5C179.8,111.2,176.9,107.1,172.8,105.3z"/>
	</g>
</g>
<g id="mask">
	<path id="XMLID_15_" class="st6" d="M172.8,105.3V60.9h-9.5v44.6l0,0c-3.9,1.9-6.6,5.8-6.6,10.4c0,6.4,5.2,11.5,11.5,11.5
		c6.4,0,11.5-5.2,11.5-11.5C179.8,111.2,176.9,107.1,172.8,105.3z"/>
</g>
<g>
	<circle class="st0" cx="198.3" cy="141.6" r="6.1"/>
	<path class="st0" d="M192.2,169.9c0-6.1-3.7-11.3-9-13.5c0.3-0.7,0.5-1.5,0.5-2.4c0-3.4-2.7-6.1-6.1-6.1c-3.4,0-6.1,2.7-6.1,6.1
		c0,0.9,0.2,1.7,0.5,2.4c-1.3,0.6-2.6,1.3-3.7,2.2c-5.3-5.8-13-9.5-21.5-9.5h-0.1c-0.2-2.9-0.9-5.6-2-8.1c5.1-0.6,9.1-4.9,9.1-10.2
		c0-5.7-4.6-10.3-10.3-10.3c-5,0-9.2,3.6-10.1,8.4c-2.7-1.4-5.7-2.3-8.8-2.7c2-1.9,3.3-4.6,3.3-7.6c0-5.7-4.6-10.3-10.3-10.3
		c-4.3,0-8,2.7-9.6,6.5c-5.2-4.7-12.1-7.7-19.7-7.7c-11.1,0-20.8,6.2-25.7,15.4c-0.9-2.3-3.1-4-5.7-4c-3.4,0-6.1,2.7-6.1,6.1
		c0,1.5,0.6,2.9,1.5,3.9c-4.2,2.1-7.8,5.3-10.3,9.3c-1-6.7-6.8-11.9-13.8-11.9c-7.7,0-14,6.3-14,14c0,2.7,0.8,5.2,2.1,7.3
		c-0.9-0.1-1.8-0.2-2.7-0.2c-9.8,0-18,6.8-20.2,16c-2-1.1-4.4-1.7-6.8-1.7c-8.1,0-14.6,6.5-14.6,14.6c0,8.1,6.5,14.6,14.6,14.6
		c2.3,0,4.4-0.5,6.3-1.5c0,0.5-0.1,1-0.1,1.5c0,16.1,13.1,29.2,29.2,29.2c5.1,0,9.9-1.3,14.1-3.6c0.6,2.8,3,4.8,5.9,4.8
		c3.4,0,6.1-2.7,6.1-6.1c0-0.4,0-0.7-0.1-1.1c2.8,0.7,5.7,1.1,8.7,1.1c3.2,0,6.2-0.4,9.1-1.2c4.6,10,14.7,16.9,26.5,16.9
		c16.1,0,29.2-13.1,29.2-29.2c0-0.8-0.1-1.5-0.1-2.3c0.9-0.7,1.8-1.4,2.6-2.3c5.4,6.5,13.4,10.6,22.5,10.6c8.9,0,16.8-4,22.2-10.2
		c2,2.6,5.1,4.2,8.6,4.2c6,0,10.9-4.9,10.9-10.9c0-3.2-1.4-6.1-3.6-8.1C189.2,180,192.2,175.3,192.2,169.9z M29.3,154.2
		c-0.1-0.1-0.2-0.2-0.3-0.3c0.2,0,0.4,0,0.5,0C29.5,154,29.4,154.1,29.3,154.2z"/>
</g>
<circle class="st7" cx="187" cy="130" r="6.1"/>
<path class="st7" d="M173.5,170.9c4.4-2.5,7.4-7.3,7.4-12.7c0-6.1-3.7-11.3-9-13.5c0.3-0.7,0.5-1.6,0.5-2.4c0-3.4-2.7-6.1-6.1-6.1
	c-3.4,0-6.1,2.7-6.1,6.1c0,0.9,0.2,1.7,0.5,2.4c-1.3,0.5-2.6,1.3-3.7,2.2c-5.3-5.8-13-9.5-21.5-9.5h-0.1c-0.2-2.9-0.9-5.6-2-8.1
	c5.1-0.6,9.1-4.9,9.1-10.2c0-5.7-4.6-10.3-10.3-10.3c-5,0-9.2,3.6-10.1,8.4c-2.7-1.4-5.7-2.3-8.8-2.7c2-1.9,3.3-4.6,3.3-7.6
	c0-5.7-4.6-10.3-10.3-10.3c-4.3,0-8,2.7-9.6,6.5c-5.2-4.7-12.1-7.6-19.7-7.6c-11.1,0-20.8,6.2-25.7,15.4c-0.9-2.3-3.1-3.9-5.7-3.9
	c-3.4,0-6.1,2.7-6.1,6.1c0,1.5,0.5,2.8,1.4,3.9c-4.2,2.1-7.8,5.3-10.2,9.3c-1-6.7-6.8-11.9-13.8-11.9c-7.7,0-14,6.3-14,14
	c0,2.7,0.8,5.2,2.1,7.3c-0.9-0.1-1.8-0.2-2.7-0.2c-9.8,0-18,6.8-20.2,16c-2-1.1-4.4-1.7-6.8-1.7c-8.1,0-14.6,6.5-14.6,14.6
	c0,8.1,6.5,14.6,14.6,14.6c2.3,0,4.4-0.5,6.3-1.4c0,0.5,0,1,0,1.4c0,16.1,13.1,29.2,29.2,29.2c7.8,0,14.8-3,20-8
	c4.5,2,9.5,3.1,14.7,3.1c3.2,0,6.2-0.4,9.1-1.1c4.7,10,14.8,16.9,26.5,16.9c16.1,0,29.2-13.1,29.2-29.2c0-0.8,0-1.5-0.1-2.3
	c0.9-0.7,1.8-1.5,2.6-2.3c5.4,6.5,13.4,10.6,22.5,10.6c8.9,0,16.8-4,22.2-10.2c2,2.6,5.1,4.2,8.6,4.2c6,0,10.9-4.9,10.9-10.9
	C177.2,175.8,175.8,172.9,173.5,170.9z M17.8,142.3c0.2,0,0.3,0,0.5,0c-0.1,0.1-0.2,0.2-0.2,0.3C17.9,142.5,17.9,142.4,17.8,142.3z"
	/>
</svg>
