<?xml version="1.0" encoding="utf-8"?>
<!-- Generator: Adobe Illustrator 19.0.0, SVG Export Plug-In . SVG Version: 6.00 Build 0)  -->
<svg version="1.1" xmlns="http://www.w3.org/2000/svg" xmlns:xlink="http://www.w3.org/1999/xlink" x="0px" y="0px"
	 viewBox="0 0 331 225" style="enable-background:new 0 0 331 225;" xml:space="preserve">
<style type="text/css">
	.st0{fill:#519E38;}
	.st1{fill:#FCF3E0;}
	.st2{fill:#FFFFFF;}
</style>
<g id="Layer_2">
</g>
<g id="kolba_4">
</g>
<g id="kolba_3">
	<path class="st0" d="M147.6,81.1H62.4c-8.4,0-15.3-6.9-15.3-15.3v-5.3c0-8.4,6.9-15.3,15.3-15.3h85.2c8.4,0,15.3,6.9,15.3,15.3v5.3
		C162.9,74.2,156,81.1,147.6,81.1z"/>
	<path class="st1" d="M143.2,76.7H58.1c-8.4,0-15.3-6.9-15.3-15.3v-5.3c0-8.4,6.9-15.3,15.3-15.3h85.2c8.4,0,15.3,6.9,15.3,15.3v5.3
		C158.6,69.8,151.7,76.7,143.2,76.7z"/>
	<path class="st0" d="M147.6,137.7H62.4c-8.4,0-15.3-6.9-15.3-15.3v-5.3c0-8.4,6.9-15.3,15.3-15.3h85.2c8.4,0,15.3,6.9,15.3,15.3
		v5.3C162.9,130.8,156,137.7,147.6,137.7z"/>
	<path class="st1" d="M143.2,133.4H58.1c-8.4,0-15.3-6.9-15.3-15.3v-5.3c0-8.4,6.9-15.3,15.3-15.3h85.2c8.4,0,15.3,6.9,15.3,15.3
		v5.3C158.6,126.5,151.7,133.4,143.2,133.4z"/>
	<path class="st0" d="M147.6,192.3H62.4c-8.4,0-15.3-6.9-15.3-15.3v-5.3c0-8.4,6.9-15.3,15.3-15.3h85.2c8.4,0,15.3,6.9,15.3,15.3
		v5.3C162.9,185.4,156,192.3,147.6,192.3z"/>
	<path class="st1" d="M143.2,188H58.1c-8.4,0-15.3-6.9-15.3-15.3v-5.3c0-8.4,6.9-15.3,15.3-15.3h85.2c8.4,0,15.3,6.9,15.3,15.3v5.3
		C158.6,181.1,151.7,188,143.2,188z"/>
</g>
<g id="kolby">
	<circle class="st0" cx="222.2" cy="133.5" r="11.1"/>
	<circle class="st0" cx="209.3" cy="72.3" r="11.1"/>
	<circle class="st0" cx="256.3" cy="50" r="11.1"/>
	<circle class="st0" cx="240.2" cy="93.5" r="11.1"/>
	<circle class="st0" cx="268.7" cy="93.5" r="11.1"/>
	<circle class="st0" cx="256.5" cy="122.2" r="11.1"/>
	<circle class="st0" cx="271.8" cy="161.5" r="11.1"/>
	<path class="st2" d="M63,53h-6.3c-1.5,0-2.6-1.2-2.6-2.6v0c0-1.5,1.2-2.6,2.6-2.6H63c1.5,0,2.6,1.2,2.6,2.6v0
		C65.7,51.8,64.5,53,63,53z"/>
	<path class="st2" d="M63,109.6h-6.3c-1.5,0-2.6-1.2-2.6-2.6l0,0c0-1.5,1.2-2.6,2.6-2.6H63c1.5,0,2.6,1.2,2.6,2.6l0,0
		C65.7,108.4,64.5,109.6,63,109.6z"/>
	<path class="st2" d="M63,164.2h-6.3c-1.5,0-2.6-1.2-2.6-2.6l0,0c0-1.5,1.2-2.6,2.6-2.6H63c1.5,0,2.6,1.2,2.6,2.6l0,0
		C65.7,163,64.5,164.2,63,164.2z"/>
	<circle class="st1" cx="206.1" cy="69.9" r="11.1"/>
	<circle class="st2" cx="201.4" cy="66.4" r="3.2"/>
	<circle class="st1" cx="253.1" cy="48" r="11.1"/>
	<circle class="st1" cx="237.6" cy="90.7" r="11.1"/>
	<circle class="st1" cx="219.6" cy="130.9" r="11.1"/>
	<circle class="st1" cx="254" cy="119.2" r="11.1"/>
	<circle class="st1" cx="266.2" cy="90.7" r="11.1"/>
	<circle class="st2" cx="232.3" cy="87.4" r="3.2"/>
	<circle class="st2" cx="248.8" cy="44.3" r="3.2"/>
	<circle class="st2" cx="215.2" cy="128.4" r="3.2"/>
	<circle class="st2" cx="261.5" cy="87.4" r="3.2"/>
	<circle class="st2" cx="250.1" cy="116.8" r="3.2"/>
	<g>
		<circle class="st1" cx="268.3" cy="158.9" r="11.1"/>
		<circle class="st2" cx="262.9" cy="156.4" r="3.2"/>
	</g>
</g>
<g id="doma">
</g>
<g id="butylka_3">
</g>
<g id="butylka_2">
</g>
<g id="butylka_1">
</g>
<g id="vanna_2">
</g>
<g id="sneg">
</g>
<g id="vanna_1">
</g>
<g id="shariki_2">
</g>
<g id="shariki_1">
</g>
<g id="voronka">
</g>
<g id="gradusnik">
</g>
<g id="kolba_2">
</g>
<g id="kolba_1">
</g>
<g id="probirki">
</g>
<g id="lupa">
</g>
<g id="zavod">
</g>
<g id="blank">
</g>
<g id="car">
</g>
</svg>
