<?xml version="1.0" encoding="utf-8"?>
<!-- Generator: Adobe Illustrator 19.0.0, SVG Export Plug-In . SVG Version: 6.00 Build 0)  -->
<svg version="1.1" xmlns="http://www.w3.org/2000/svg" xmlns:xlink="http://www.w3.org/1999/xlink" x="0px" y="0px"
	 viewBox="0 0 323 245" style="enable-background:new 0 0 323 245;" xml:space="preserve">
<style type="text/css">
	.st0{fill:#99D384;}
	.st1{fill:#FFFFFF;}
	.st2{fill:#FCF3E0;}
	.st3{fill-rule:evenodd;clip-rule:evenodd;fill:#DD95C0;}
	.st4{fill:#62BA47;}
	.st5{fill-rule:evenodd;clip-rule:evenodd;fill:#62BA47;}
	.st6{fill:#62BA46;}
	.st7{fill:#DD95C0;}
	.st8{fill:#EFEFEF;}
	.st9{fill:#DDDDDD;}
	.st10{fill:#FCFCFC;}
</style>
<g id="Layer_2">
</g>
<g id="kolba_4">
</g>
<g id="kolby">
	<g>
		<g>
			<path class="st0" d="M30.4,91.2c0,0,91.5-16.4,155-62c0,0-2.9,35.7,30.7,76.9c0,0-87.9,11.4-155.8,59.9
				C60.3,166,54.1,114.7,30.4,91.2z"/>
			<path class="st1" d="M216.6,107.3c-0.1,0-0.2,0.1-0.3,0.1c-0.9,0.1-88.4,11.9-155.2,59.6c-0.4,0.3-0.8,0.3-1.2,0.1
				c-0.4-0.2-0.7-0.6-0.7-1c-0.1-0.5-6.4-51.1-29.5-74.1c-0.3-0.3-0.5-0.8-0.3-1.3c0.1-0.4,0.5-0.8,1-0.9
				c0.9-0.2,91.9-16.9,154.5-61.7c0.4-0.3,0.9-0.3,1.3-0.1c0.4,0.2,0.7,0.7,0.6,1.2c0,0.4-2.4,35.7,30.5,76c0.3,0.4,0.4,0.8,0.2,1.3
				C217.2,106.9,216.9,107.2,216.6,107.3z M125.3,129.8c41.9-16.8,79.2-23.2,88.5-24.6c-27.1-34.2-29.6-64.7-29.7-73.5
				C126.8,71.8,47.3,89.1,32.9,92c6.7,7.3,15.6,20.8,22.5,45.1c3.4,12,5.2,22.4,5.8,26.7C81.8,149.4,104.1,138.3,125.3,129.8z"/>
		</g>
		<g>
			<path class="st2" d="M177.6,97.5l-90.8,36.3c-7.8,3.1-16.8-0.7-19.9-8.5l-3.4-8.5c-3.1-7.8,0.7-16.8,8.5-19.9l90.8-36.3
				c7.8-3.1,16.8,0.7,19.9,8.5l3.4,8.5C189.3,85.4,185.4,94.3,177.6,97.5z"/>
			<path class="st1" d="M84,106.5l-7.1,2.8c-1.4,0.5-2.9-0.1-3.4-1.5l-0.2-0.5c-0.5-1.4,0.1-2.9,1.5-3.4l7.1-2.8
				c1.4-0.5,2.9,0.1,3.4,1.5l0.2,0.5C86,104.4,85.3,106,84,106.5z"/>
		</g>
		<g>
			<g>
				<ellipse transform="matrix(0.9285 -0.3712 0.3712 0.9285 -27.0974 52.551)" class="st1" cx="123" cy="96.7" rx="26" ry="25.8"/>
			</g>
			<g>
				<path class="st3" d="M121.6,84.5c0.2,1-0.3,2.1-1.4,2.5c-1.1,0.5-2.4-0.1-2.9-1.2c-5.5,2.9-8.1,9.5-5.7,15.5
					c0.5,1.2,1.1,2.2,1.8,3.1c0,0,0.1,0,0.1-0.1c1.1-0.5,2.4,0.1,2.9,1.2c0.2,0.5,0.2,1,0,1.5c3,1.9,6.7,2.4,10.2,1.3
					c0.9-0.2,2.8-1.1,3.7-1.8c2.5-1.8,4.2-4.5,4.8-7.4c-0.2-0.2-0.4-0.5-0.6-0.8c-0.4-0.9,0-2,0.8-2.5c-0.1-1.3-0.4-2.5-0.8-3.8
					C132.4,86.9,127,83.9,121.6,84.5z M112.7,97.3c-0.6,0.2-1.3,0-1.5-0.6c-0.2-0.6,0.1-1.3,0.7-1.5c0.6-0.2,1.3,0,1.5,0.7
					C113.6,96.4,113.3,97,112.7,97.3z M132.3,93.9c-0.7,0.3-1.6-0.1-1.9-0.8c-0.3-0.7,0.1-1.6,0.8-1.9s1.6,0.1,1.9,0.8
					C133.4,92.8,133.1,93.6,132.3,93.9z"/>
				<g>
					
						<ellipse transform="matrix(0.9285 -0.3712 0.3712 0.9285 -32.6236 51.6752)" class="st4" cx="117.9" cy="110.6" rx="3.9" ry="3.9"/>
					<path class="st1" d="M115.4,111.3c0.1-0.2,0.1-0.4,0.2-0.6c0-0.1,0-0.2,0.1-0.3c0-0.1,0-0.1,0,0c0,0.1,0.1,0.2,0.1,0.3
						c0.3,0.6,0.5,1.3,0.7,1.9c0.1,0.2,0.4-0.2,0.3-0.4c-0.1-0.4-0.3-0.9-0.4-1.3c-0.1-0.2-0.3-1.2-0.6-1.2
						c-0.5,0.1-0.5,1.2-0.6,1.5C115,111.7,115.4,111.6,115.4,111.3L115.4,111.3z"/>
					<path class="st1" d="M117.4,110.5c-0.2,0-0.8-0.2-0.5-0.6c0.1-0.1,0.3-0.2,0.4-0.2c0.4,0,0.2,0.3,0.1,0.5
						c-0.1,0.1-0.4,0.7-0.1,0.8c0.3,0.1,0.8-0.3,1,0.1c0.1,0.3-0.4,0.5-0.6,0.5c-0.4-0.1-0.5-0.4-0.2-0.7
						C117.5,110.8,117.5,110.3,117.4,110.5c-0.4,0.4-0.6,0.9-0.4,1.3c0.1,0.3,0.5,0.5,0.8,0.4c0.4-0.1,0.7-0.6,0.8-1
						c0.1-0.4-0.1-0.8-0.5-0.7c-0.1,0-0.5,0.1-0.5,0.2c0.1-0.2,0.3-0.4,0.3-0.7c0.1-0.5-0.1-0.8-0.6-0.7c-0.4,0.1-0.7,0.5-0.7,0.9
						c-0.1,0.5,0.3,0.8,0.8,0.8C117.4,111.1,117.6,110.6,117.4,110.5L117.4,110.5z"/>
					<g>
						<path class="st1" d="M119.8,108.6c-0.2,1-0.5,1.9-0.7,2.8c-0.1,0.4,0.3,0.2,0.3,0c0.3-1,0.6-2,0.7-3
							C120.3,108,119.9,108.3,119.8,108.6L119.8,108.6z"/>
						<path class="st1" d="M118.9,108.7c-0.3,0.1-0.4,0.5-0.3,0.8c0.1,0.3,0.3,0.4,0.5,0.3C119.7,109.6,119.5,108.5,118.9,108.7
							c-0.1,0-0.2,0.4,0,0.4c0.1,0,0.3,0,0.3,0.2c0,0,0,0.1,0,0.2c0,0,0,0,0,0c0,0,0,0-0.1,0c-0.1,0.1-0.3,0-0.3-0.1
							c0-0.1,0-0.1,0-0.2c0,0,0,0,0,0c0,0,0,0,0.1,0C119,109,119.1,108.6,118.9,108.7z"/>
						<path class="st1" d="M120.4,110c-0.3,0.1-0.4,0.5-0.3,0.8c0.1,0.3,0.3,0.4,0.5,0.3C121.1,110.9,121,109.8,120.4,110
							c-0.1,0-0.2,0.4,0,0.4c0.1,0,0.3,0,0.3,0.2c0,0,0,0.1,0,0.2c0,0,0,0,0,0c0,0,0,0-0.1,0c-0.1,0.1-0.3,0-0.3-0.1
							c0-0.1,0-0.1,0-0.2c0,0,0,0,0,0c0,0,0,0,0.1,0C120.4,110.3,120.5,109.9,120.4,110z"/>
					</g>
				</g>
				<path class="st3" d="M111.8,85c0.3,0.8-0.1,1.7-0.9,2c-0.8,0.3-1.7-0.1-2.1-0.9c-0.3-0.8,0.1-1.7,0.9-2.1
					C110.6,83.8,111.5,84.2,111.8,85L111.8,85z"/>
				<path class="st5" d="M113.9,89.9c0.4,1-0.1,2.2-1.1,2.6c-1,0.4-2.2-0.1-2.6-1.1c-0.4-1,0.1-2.2,1.1-2.6
					C112.3,88.4,113.5,88.9,113.9,89.9L113.9,89.9z"/>
				<path class="st5" d="M107.7,89c0.2,0.6-0.1,1.3-0.7,1.6c-0.6,0.2-1.3-0.1-1.6-0.7c-0.2-0.6,0.1-1.3,0.7-1.6
					C106.7,88.1,107.4,88.4,107.7,89L107.7,89z"/>
				<g>
					
						<ellipse transform="matrix(0.9285 -0.3712 0.3712 0.9285 -21.4266 53.6142)" class="st4" cx="128.6" cy="82.5" rx="6.8" ry="6.8"/>
					<g>
						<path class="st1" d="M126.6,82.2c-0.5,0.3-0.4,0.9-0.2,1.4l0,0l0,0c0,0.1,0,0.1,0.1,0.2c0.1,0.2,0.1,0.4,0.2,0.6
							c0,0.1,0.1,0.3,0,0.3c-0.2,0.1-0.4-0.1-0.6-0.2c-0.3-0.3-0.5-0.6-0.7-0.9c-0.2-0.3-0.4-0.7-0.6-1.1c-0.1-0.1-0.1-0.3-0.2-0.5
							c0-0.1,0-0.1-0.1-0.2c0,0,0-0.1,0-0.1c-0.1-0.3-0.4,0.1-0.4,0.3c-0.1,0.9,0.3,1.7,0.7,2.5c0.1,0.2,0.2,0.4,0.2,0.7
							c0,0.2,0.1,0.4,0,0.6c0,0.1-0.2,0.1-0.3,0.1c-0.1,0-0.2-0.1-0.3-0.2c-0.1-0.1-0.2,0-0.2,0.1c-0.1,0.1-0.1,0.3,0,0.4
							c0.2,0.3,0.5,0.4,0.8,0.2c0.4-0.3,0.4-1,0.3-1.4c0-0.2-0.1-0.5-0.2-0.7c0.2,0.3,0.4,0.6,0.7,0.8c0.2,0.2,0.5,0.3,0.7,0.2
							c0.2-0.1,0.2-0.4,0.2-0.7c0.2,0.2,0.4,0.3,0.6,0.2c0.3-0.1,0.4-0.5,0.4-0.7c0-0.3-0.1-0.6-0.2-0.9
							C127.6,82.7,127.1,81.9,126.6,82.2z M127.5,84c0,0.1,0,0.1,0,0.2c-0.1,0-0.2-0.1-0.3-0.1c-0.2-0.1-0.3-0.3-0.4-0.5
							c-0.1-0.2-0.2-0.4-0.2-0.6c0-0.1,0-0.1,0-0.2c0.3,0.1,0.5,0.4,0.7,0.6C127.4,83.5,127.5,83.7,127.5,84z"/>
						<path class="st1" d="M133.2,80.4c-0.7,0-0.7,0.9-0.6,1.4c0.1,0.4,0.2,1.2,0.8,1.2c0.3,0,0.5-0.3,0.6-0.5
							c0.1-0.3,0.1-0.6,0.1-0.8C134,81.2,133.8,80.4,133.2,80.4z M133.6,82.4c0,0.1,0,0.1,0,0.2c-0.1,0-0.2-0.2-0.3-0.3
							c-0.1-0.2-0.2-0.4-0.2-0.6c0-0.2-0.1-0.4,0-0.6c0-0.1,0-0.1,0-0.2c0.3,0.2,0.4,0.5,0.5,0.9C133.6,81.9,133.6,82.2,133.6,82.4z
							"/>
						<path class="st1" d="M131.7,81.1c0-0.2,0.1-0.4,0.1-0.6c0.1-0.4,0.1-0.9,0-1.2c-0.2-0.4-0.7-0.2-0.9,0
							c-0.3,0.3-0.3,0.8-0.3,1.2c0.1,0.5,0.2,1.1,0.4,1.6l0,0c-0.1,0.3-0.3,0.9-0.7,0.8c-0.1,0-0.2-0.1-0.2-0.2
							c0.1-0.3,0.2-0.7,0.3-1c0.1-0.3,0-0.8-0.4-0.9c-0.3,0-0.6,0.3-0.7,0.6c-0.1,0.3-0.1,0.6,0,0.9c0,0.2,0.1,0.4,0.3,0.7
							c-0.1,0.2-0.3,0.3-0.5,0.4c-0.2,0-0.4-0.2-0.5-0.3c-0.2-0.2-0.3-0.5-0.3-0.8c0-0.1,0-0.2,0-0.3c0,0,0,0,0-0.1
							c0.2,0,0.3,0.2,0.4,0.3c0.1,0.2,0.5-0.3,0.4-0.5c-0.1-0.2-0.3-0.3-0.5-0.3c-0.2,0-0.4,0.3-0.5,0.4c-0.2,0.5,0,1,0.2,1.4
							c0.1,0.3,0.3,0.6,0.7,0.7c0.4,0.1,0.8-0.3,1.1-0.6c0.2,0.2,0.4,0.3,0.7,0.1c0.3-0.2,0.6-0.5,0.7-0.8c0.1,0.3,0.3,0.5,0.5,0.5
							c0.4,0.1,0.7-0.3,0.8-0.6c0.1-0.4,0.1-0.9-0.2-1.3C132.1,81.1,131.9,81.1,131.7,81.1z M129.7,81.7c0-0.1,0-0.2,0-0.2l0,0
							c0.1,0,0.2,0.1,0.3,0.3c0.1,0.2,0,0.5-0.1,0.7c0,0,0-0.1,0-0.1C129.8,82.1,129.7,81.9,129.7,81.7z M131.1,79.9
							c0-0.1,0-0.2,0.1-0.3c0,0,0,0,0,0c0.3,0.2,0.3,0.6,0.2,0.9c0,0.3-0.1,0.6-0.1,0.8c-0.1-0.2-0.1-0.5-0.1-0.7
							C131.1,80.4,131.1,80.1,131.1,79.9z M132.1,82.5c0,0,0,0.1,0,0.1c0,0,0,0-0.1,0c-0.2,0-0.3-0.3-0.4-0.4
							c-0.1-0.1-0.1-0.2-0.1-0.3c0-0.1,0.1-0.2,0.1-0.3c0.1-0.1,0.2,0,0.3,0.1C132,82,132.1,82.3,132.1,82.5z"/>
					</g>
				</g>
				<g>
					<g>
						<path class="st1" d="M127.5,93.2c0-0.6-0.2-1.4-0.8-1.6c-0.4-0.2-0.8,0-1.1,0.2c-0.1-0.2-0.1-0.5-0.2-0.7
							c-0.1-0.2-0.5,0-0.5,0.1c-0.2,0.1-0.4,0.3-0.3,0.5c0.3,0.9,0.5,1.8,0.7,2.7c-0.2,0.2-0.3,0.3-0.5,0.5
							c-0.1,0.1-0.2,0.2-0.3,0.2c-0.3,0-0.4-0.3-0.5-0.5c-0.3-0.7-0.6-1.6-0.4-2.4c0-0.2-0.2-0.3-0.4-0.1c-0.3,0.1-0.5,0.4-0.5,0.6
							c-0.1,1,0.3,2,0.8,2.9c0.2,0.3,0.3,0.5,0.8,0.4c0.5-0.1,0.9-0.6,1.1-0.9c0,0.1,0,0.1,0,0.2c0.1,0.9,0.2,1.7,0.3,2.6
							c0,0.2,0.2,0.1,0.3,0.1c0.1-0.1,0.2-0.3,0.2-0.5c0-0.6-0.1-1.2-0.1-1.8c0.2,0,0.5-0.1,0.7-0.3
							C127.4,94.6,127.6,93.9,127.5,93.2z M125.8,92.1C125.9,92.1,125.9,92.1,125.8,92.1L125.8,92.1z M126.5,94.8
							C126.5,94.8,126.5,94.8,126.5,94.8L126.5,94.8z M126.5,94.7C126.5,94.7,126.5,94.8,126.5,94.7
							C126.5,94.8,126.5,94.8,126.5,94.7c-0.3,0.1-0.5-0.2-0.5-0.4c0,0,0,0,0-0.1c0-0.5-0.1-1-0.2-1.6c0,0,0,0,0,0
							c0-0.2,0-0.3,0-0.5c0,0,0,0,0,0c0,0,0,0,0,0c0.1,0,0.2,0.1,0.3,0.2c0.3,0.3,0.4,0.8,0.5,1.1C126.7,93.9,126.7,94.4,126.5,94.7
							z"/>
						<path class="st1" d="M121.5,93.4C121.5,93.4,121.5,93.4,121.5,93.4c-0.1,0-0.1,0-0.1,0c-0.2,0.1-0.4,0.2-0.5,0.4
							c-0.1-0.3-0.3-0.6-0.5-0.9c-0.1-0.1-0.3,0.1-0.4,0.2c-0.2,0.2-0.3,0.5-0.3,0.7c0.1,0.4,0.2,0.8,0.3,1.2c0.1,0.3,0.1,0.7,0.2,1
							c0,0.1,0,0.3,0,0.4c0,0.1,0,0.1,0,0.2c-0.1,0.2-0.3,0.4-0.6,0.4c-0.3,0-0.5-0.1-0.8-0.2c-0.6-0.3-1.2-0.8-1.5-1.5
							c-0.2-0.3-0.3-0.6-0.4-1c0-0.1-0.1-0.3-0.1-0.4c0-0.1,0-0.1,0-0.2c0,0,0-0.1,0-0.1l0,0c0,0,0,0,0,0c0,0,0,0,0,0c0,0,0,0,0,0
							c0,0,0,0,0-0.1c0,0,0.2-0.2,0.3-0.2c0.5-0.3,1,0,1.2,0.3c0.2,0.2,0.8-0.8,0.6-1c-0.4-0.5-1.1-0.6-1.7-0.3
							c-0.5,0.3-0.8,0.7-1,1.1c-0.3,1-0.1,2.1,0.5,2.9c0.5,0.8,1.3,1.4,2.2,1.6c0.3,0.1,0.7,0,1-0.1c0.6-0.4,0.8-1.4,0.8-2.1
							c0,0,0-0.1,0-0.1c0,0,0,0,0,0c0.3,0.6,0.9,1,1.6,0.8c0.7-0.3,0.7-1.3,0.6-1.9C122.8,93.8,122.3,93.2,121.5,93.4z M122.5,95.4
							c0,0.1,0,0.1,0,0.1c0,0,0,0-0.1,0c-0.4,0.2-0.8-0.3-0.9-0.6c0,0,0-0.1-0.1-0.1c0,0,0,0,0,0c0-0.1,0-0.1-0.1-0.2
							c0-0.1-0.1-0.2-0.1-0.4c0,0,0-0.1,0-0.2c0,0,0,0,0,0c0.4-0.2,0.8,0.3,1,0.6C122.4,95,122.5,95.2,122.5,95.4z"/>
					</g>
				</g>
				<g>
					<g>
						<path class="st1" d="M124.4,100.6c-0.1,0.1-0.3-0.3-0.4-0.4c-0.2-0.4-0.3-0.7-0.5-1.1c0,0,0,0,0,0c-0.1-0.3-0.4-0.3-0.6-0.1
							c-0.2,0.2-0.3,0.5-0.4,0.7c0,0.5,0.1,1,0.4,1.4c0,0,0,0,0,0.1c0,0.1-0.1,0.1-0.1,0.2c-0.2,0.1-0.5-0.4-0.6-0.5
							c-0.2-0.4-0.4-0.8-0.6-1.2c-0.1-0.1-0.2,0-0.2,0.1c-0.1,0.1-0.2,0.3-0.1,0.4c0.2,0.4,0.4,0.7,0.5,1.1c0.1,0.2,0.1,0.3,0.1,0.5
							c0,0,0,0,0,0c0,0-0.1,0-0.1,0c-0.3,0-0.6-0.4-0.7-0.6c-0.2-0.3-0.3-0.6-0.4-1c0,0,0-0.1,0-0.1c0-0.1-0.1-0.1-0.2,0
							c-0.1,0.1-0.2,0.3-0.1,0.4c0,0.2-0.1,0.2-0.3,0.3c-0.1,0-0.2,0-0.3,0c0,0-0.1,0-0.1,0c-0.1,0-0.2,0-0.3,0c0,0,0,0,0,0
							c0,0,0,0,0,0c-0.5,0.4-0.1,1.1,0.1,1.5c0.1,0.1,0.2,0.4,0.4,0.5c0,0.1-0.1,0.2-0.3,0.3c-0.1,0-0.2-0.1-0.3-0.1
							c-0.3-0.2-0.5-0.5-0.7-0.7c-0.4-0.5-0.7-1-1-1.5c0-0.1-0.1,0-0.2,0c-0.1,0.1-0.1,0.3-0.1,0.4c0.1,0.4,0.3,0.8,0.5,1.2
							c0,0,0,0,0,0c0,0-0.1-0.1-0.1-0.1c-0.2-0.3-0.5-0.5-0.7-0.8c-0.1-0.2-0.3-0.4-0.4-0.6c-0.1-0.3-0.3,0.2-0.3,0.3
							c0,0.9,0.7,1.6,1.2,2.3c0.1,0.2,0.2,0.4,0.3,0.6c0.1,0.1,0.2,0.4,0.1,0.6c0,0.1-0.2,0.1-0.3,0.1c-0.1,0-0.3-0.1-0.3-0.2
							c-0.1-0.1-0.2,0-0.2,0.1c0,0.1-0.1,0.3,0,0.4c0.2,0.2,0.6,0.3,0.9,0.1c0.4-0.4,0.3-1,0.1-1.4c-0.1-0.3-0.2-0.5-0.4-0.8
							c0.4,0.4,0.7,0.8,1.1,1.2c0.2,0.2,0.3-0.3,0.2-0.5c-0.2-0.3-0.4-0.6-0.6-1c0.1,0.1,0.2,0.2,0.2,0.3c0.2,0.2,0.5,0.5,0.8,0.6
							c0.1,0,0.3-0.1,0.4-0.1c0.1-0.1,0.2-0.3,0.2-0.5c0.1,0.1,0.3,0.1,0.4,0c0.2-0.1,0.3-0.5,0.2-0.7c0-0.3-0.2-0.6-0.3-0.8
							c0-0.1-0.1-0.2-0.2-0.3l0,0c0.2-0.1,0.3-0.2,0.4-0.3c0.1,0.3,0.2,0.6,0.4,0.8c0.2,0.3,0.5,0.7,0.9,0.5
							c0.3-0.1,0.4-0.4,0.4-0.6c0.1,0.1,0.2,0.1,0.3,0.1c-0.1,0.3-0.1,0.7,0.2,0.8c0.2,0.1,0.4-0.4,0.2-0.5
							c-0.2-0.1-0.2-0.2-0.1-0.4c0,0,0,0,0,0c0.1-0.1,0.2-0.3,0.2-0.4c0,0,0,0,0,0c0.1,0.1,0.2,0.2,0.3,0.2c0.2,0,0.4-0.3,0.5-0.5
							c0,0,0,0,0,0c0.1,0.1,0.1,0.1,0.2,0.2c0.2,0.1,0.4-0.2,0.4-0.3c0-0.1,0.1-0.3,0-0.3C124.5,100.4,124.4,100.5,124.4,100.6z
							 M120.5,102.7C120.5,102.7,120.5,102.7,120.5,102.7L120.5,102.7z M120.4,102.5c0,0.1,0,0.1,0,0.2c-0.1,0-0.2-0.1-0.3-0.1
							c-0.2-0.1-0.3-0.3-0.4-0.4c-0.1-0.2-0.2-0.4-0.3-0.6c0,0,0-0.1,0-0.2c0.2-0.1,0.6,0.4,0.7,0.6
							C120.3,102.1,120.4,102.3,120.4,102.5z M122,101.8C122,101.8,122,101.8,122,101.8L122,101.8z M123.7,100.9
							C123.7,100.9,123.6,100.9,123.7,100.9c-0.2,0-0.3-0.1-0.3-0.2c-0.2-0.3-0.4-0.6-0.4-0.9c0-0.1,0-0.3,0-0.3c0,0,0,0,0,0
							c0,0,0,0,0.1,0c0.1-0.1,0.2,0,0.2,0.1c0.2,0.4,0.4,0.8,0.4,1.3C123.7,100.8,123.7,100.8,123.7,100.9z"/>
						<path class="st1" d="M133,99.1c-0.1-0.1-0.2,0-0.3,0c-0.2,0-0.2-0.4-0.2-0.5c0-0.4,0-0.8,0-1.2c0,0,0,0,0,0
							c0-0.3-0.3-0.4-0.6-0.3c-0.3,0.1-0.5,0.3-0.6,0.5c-0.2,0.4-0.2,1-0.1,1.4c-0.1,0.1-0.2,0.1-0.4,0.2c-0.1,0-0.2-0.1-0.2-0.2
							c-0.2-0.6-0.3-1.2-0.3-1.8c0-0.1-0.1-0.1-0.2-0.1c-0.1,0.1-0.2,0.2-0.3,0.3c-0.1,0.4-0.1,0.9-0.1,1.3c0,0.1,0,0.2,0,0.4
							c0,0,0,0.1,0,0.1c-0.1,0-0.2-0.1-0.2-0.2c0-0.2-0.3,0-0.4,0.2c0,0,0,0-0.1,0c0,0-0.1-0.1-0.1-0.1c-0.1-0.1-0.1-0.3-0.2-0.5
							c-0.2-0.4-0.2-0.9-0.3-1.4c0-0.1-0.1-0.1-0.2-0.1c-0.1,0.1-0.2,0.2-0.3,0.3c-0.1,0.4-0.1,0.9,0,1.3c0,0.1,0,0.2,0,0.4
							c0,0,0,0.1,0,0.1c-0.1,0-0.2-0.1-0.2-0.1c0,0,0,0,0,0c-0.1-0.1-0.3,0-0.4,0.2c-0.1,0.1-0.3,0.2-0.4,0.2
							c-0.1,0-0.2-0.1-0.2-0.2c0.2-0.4,0.4-0.8,0.4-1.2c0-0.2,0-0.5-0.3-0.7c-0.4-0.2-0.7,0.2-0.8,0.5c-0.3,0.3-0.7,0.2-1,0.1
							c-0.1,0-0.1-0.1-0.2-0.1c-0.2,0-0.4,0.1-0.5,0.3c-0.1-0.1-0.1-0.3-0.2-0.4c-0.1-0.1-0.2,0.1-0.3,0.1c-0.1,0.1-0.1,0.3-0.1,0.4
							c0.4,0.7,0.7,1.4,0.9,2.1c0.2,0.5,0.4,1.1,0.5,1.6c0,0.1,0.1,0.1,0.2,0c0.1-0.1,0.1-0.2,0.1-0.4c-0.1-0.4-0.2-0.8-0.3-1.1
							c0.1-0.1,0.3-0.2,0.4-0.4c0.2-0.4,0.1-0.9,0-1.3c0-0.1,0-0.1-0.1-0.2c0,0,0,0,0,0c0.2,0,0.4-0.1,0.5-0.2
							c0,0.4,0.1,0.9,0.4,1.3c0.1,0.1,0.2,0.3,0.4,0.3c0.2,0,0.4-0.2,0.6-0.3c0.1,0.1,0.2,0.1,0.3,0.1c0.3,0,0.5-0.2,0.5-0.5
							c0-0.1,0.1-0.2,0.1-0.3c0,0,0,0.1,0.1,0.1c0.1,0.1,0.1,0.3,0.3,0.4c0.2,0.1,0.3,0,0.4-0.1c0,0,0,0,0,0
							c0.1,0.1,0.2,0.1,0.3,0.1c0.2,0,0.4-0.2,0.5-0.4c0-0.1,0.1-0.2,0.1-0.3c0,0.2,0.1,0.3,0.2,0.4c0.2,0.3,0.6,0.1,0.9-0.2
							c0,0.1,0.1,0.2,0.2,0.3c0.2,0.1,0.5-0.1,0.6-0.2c0,0,0,0,0,0c0,0.1,0.1,0.2,0.1,0.2c0.2,0.1,0.4,0,0.6-0.1
							C132.9,99.4,133.1,99.2,133,99.1z M124.6,98.7C124.6,98.7,124.6,98.7,124.6,98.7L124.6,98.7z M125.4,100.2
							C125.4,100.2,125.4,100.2,125.4,100.2L125.4,100.2z M125.4,100.2C125.4,100.2,125.4,100.2,125.4,100.2L125.4,100.2
							c-0.2,0.1-0.3,0-0.4-0.2c0,0,0,0,0,0c-0.1-0.3-0.2-0.6-0.4-0.9c0,0,0,0,0,0c0-0.1-0.1-0.2-0.1-0.3l0,0c0,0,0,0,0,0
							c0.1,0,0.1,0,0.2,0c0.2,0.1,0.3,0.4,0.4,0.6C125.3,99.6,125.4,99.9,125.4,100.2z M126.8,98.6c0,0.2-0.1,0.4-0.1,0.5
							c-0.1-0.2-0.1-0.5-0.1-0.7c0-0.1,0-0.2,0-0.2c0,0,0,0,0-0.1c0,0,0.1,0,0.1,0C126.8,98.2,126.8,98.5,126.8,98.6z M131.9,99.1
							C131.9,99.1,131.8,99.1,131.9,99.1c-0.2,0-0.2-0.2-0.2-0.3c0,0,0,0,0,0c0,0,0,0,0,0c-0.1-0.3-0.1-0.7,0-1
							c0-0.1,0.1-0.3,0.1-0.3c0,0,0,0,0,0c0,0,0.1,0,0.1,0c0.1,0,0.2,0.1,0.2,0.2c0,0.5,0,0.9-0.1,1.4
							C131.9,99,131.9,99.1,131.9,99.1z"/>
					</g>
				</g>
				<g>
					<path class="st6" d="M107,97.6c-0.1,0-0.2-0.1-0.2-0.1c-0.3,0-0.4,0.2-0.6,0.3c-0.5,0.2-0.7,0.3-1.5,0.4c-0.2-0.6,0-1-0.1-1.5
						c0-0.4-0.4-0.8-0.6-1.3c-0.1-0.3-0.2-0.5-0.3-0.8c-0.1,0.2,0.2,0.7,0.2,1c-0.2-0.3-0.4-0.8-0.6-1c0,0.4,0.3,0.8,0.4,1.1
						c-0.2-0.3-0.4-0.6-0.6-0.8c0,0.4,0.4,0.7,0.5,1c-0.2-0.2-0.4-0.5-0.7-0.7c0.1,0.4,0.4,0.6,0.5,0.9c-0.2-0.2-0.4-0.4-0.6-0.5
						c0.1,0.2,0.4,0.5,0.5,0.6c-0.2,0-0.3-0.2-0.5-0.2c0.1,0.2,0.3,0.2,0.4,0.3c-0.1,0-0.2-0.1-0.4-0.1c0.1,0.2,0.2,0.1,0.3,0.3
						c-0.1,0-0.2-0.1-0.3-0.1c0.1,0.1,0.3,0.1,0.3,0.2c0,0-0.1,0-0.1,0.1c0,0,0.2,0,0.1,0.1c0,0-0.1,0-0.1,0c0,0.1,0.1,0,0.1,0.1
						c0,0,0,0-0.1,0c0,0.1,0.1,0,0.1,0.1c-0.3,0.7,0.2,1.1,0.4,1.7c0-0.1-0.5,0-0.8,0c-0.2,0-0.3-0.2-0.5-0.2c0,0,0,0,0-0.1
						c-0.1,0-0.1,0-0.2,0c0,0,0.2,0,0.2-0.1c-0.1,0-0.3,0-0.3-0.1c0.1,0,0.3,0,0.3-0.1c-0.2,0-0.4,0-0.5-0.1c0.1,0,0.4,0,0.5-0.1
						c-0.2,0-0.6-0.1-0.7-0.2c0.2,0,0.4,0.1,0.6,0c-0.3,0-0.6-0.2-0.8-0.1c0.2,0.2,0.6,0.2,0.7,0.3c-0.2,0-0.4,0-0.7-0.1
						c0.2,0.2,0.4,0.2,0.7,0.2c-0.2,0.1-0.3,0-0.5,0.1c0.1,0.2,0.4,0,0.5,0.1c-0.1,0-0.2,0.1-0.3,0.1c0.1,0.1,0.2,0,0.4,0
						c-0.1,0-0.2,0.1-0.2,0.1c0.1,0,0.2,0,0.3,0c-0.1,0-0.1,0-0.1,0.1c0,0,0.1-0.1,0.2,0c0,0,0,0.1,0,0.1c0,0,0.1,0,0.1,0
						c0,0,0,0,0,0.1c0.3,0,0.6,0.4,1,0.4c-0.1,0.2,0.3,0.2-1.6,1.8c0.1,0,0.9-0.6,1.1-0.8c0.2-0.2,0.5-0.4,0.7-0.6
						c0.1,0,0.1-0.1,0.2-0.1c0.4-0.2,0.9-0.3,1.2-0.8c-0.3,0.2-0.9,0.5-1.2,0.4c0.1-0.6-0.6-1.7-0.4-2c0.2-0.3,0.2-1.2,0.9-0.8
						c0.1,0.1,0.2,0.2,0.1,0.6c-0.1,0.4-0.1,0.6,0.2,1.3c0.1,0.1,0.1,0.3-0.1,0.4c1-0.2,1.3-0.4,1.8-0.7c0.2-0.1,0.4-0.3,0.5-0.2
						c0,0.1-0.2,0.1-0.3,0.2c-0.3,0.1,0.2,0,0.3,0c0.1,0,0.5-0.3,0.8-0.4C107.3,97.5,107.2,97.6,107,97.6z"/>
					<path class="st6" d="M102.2,93.8c-2.2,0.9-3.3,3.4-2.4,5.6c0.9,2.2,3.4,3.3,5.6,2.4c2.2-0.9,3.3-3.4,2.4-5.6
						C106.9,94,104.4,93,102.2,93.8 M102.3,94c2.1-0.8,4.5,0.2,5.4,2.3c0.8,2.1-0.2,4.5-2.3,5.4c-2.1,0.8-4.5-0.2-5.4-2.3
						C99.1,97.2,100.2,94.8,102.3,94"/>
				</g>
			</g>
			<path class="st7" d="M103.2,112.6c-0.2,0.1-0.4,0.2-0.6,0.3c1.9,2.3,4.1,4.3,6.6,5.8c0.4-1.1,0.5-2.3,0-3.5
				C108.4,112.8,105.6,111.7,103.2,112.6z"/>
			<ellipse transform="matrix(0.9285 -0.3712 0.3712 0.9285 -22.5612 58.7369)" class="st7" cx="141.3" cy="88" rx="3.1" ry="3.1"/>
			<path class="st7" d="M146.8,100.4c0.3,0.7,0.8,1.3,1.4,1.8c0.5-2.3,0.7-4.8,0.6-7.2C146.9,96,146,98.3,146.8,100.4z"/>
			<path class="st7" d="M113.3,72.6c-0.9,0.3-1.7,0.7-2.5,1.2c0,0,0,0.1,0,0.1c1,2.4,3.8,3.6,6.2,2.6c2.3-0.9,3.4-3.3,2.9-5.6
				C117.7,71.2,115.5,71.7,113.3,72.6z"/>
			
				<ellipse transform="matrix(0.9285 -0.3712 0.3712 0.9285 -31.1725 58.0141)" class="st7" cx="135.1" cy="110" rx="4.2" ry="4.2"/>
		</g>
		<path class="st1" d="M64.4,139.7c-0.1,0-0.2,0-0.2,0.1c-1.6,0.3-3.1-0.8-3.4-2.4c-2.6-14.8-6.9-19.9-6.9-20c-1.1-1.2-1-3,0.2-4.1
			c1.2-1.1,3-1,4.1,0.2c0.6,0.6,5.5,6.4,8.4,22.9C66.8,137.9,65.9,139.4,64.4,139.7z"/>
		<circle class="st1" cx="65.9" cy="145.5" r="3.1"/>
	</g>
	<g>
		<g>
			<path class="st8" d="M282.4,162.5h-19.2h-7.8h-71.6h-7.8h-19.3l8.3,30.6l0,0c0.8,3,5.4,5.3,11,5.3h87.2c6,0,10.8-2.7,11.1-6
				L282.4,162.5z"/>
			<path class="st9" d="M263.3,162.5h-7.8h-35.8v36h43.6c6,0,10.8-2.7,11.1-6l8.1-30H263.3z"/>
			<path class="st1" d="M173.3,180.6c0.5,1.7-0.4,3.5-2.1,4l0,0c-1.7,0.5-3.5-0.4-4-2.1l-2.5-8.2c-0.5-1.7,0.4-3.5,2.1-4l0,0
				c1.7-0.5,3.5,0.4,4,2.1L173.3,180.6z"/>
			<path class="st1" d="M164.8,140.8"/>
			<g>
				<polygon class="st8" points="282.4,158.1 156,158.1 167,138.3 270.7,138.3 				"/>
				<path class="st10" d="M270.7,138.3l11.7,19.8H156l11-19.8H270.7 M270.7,132.8H167c-2,0-3.9,1.1-4.9,2.9l-11,19.8
					c-1,1.7-0.9,3.8,0.1,5.5c1,1.7,2.8,2.7,4.8,2.7h126.4c2,0,3.9-1.1,4.8-2.8c1-1.7,1-3.9,0-5.6l-11.7-19.8
					C274.4,133.8,272.6,132.8,270.7,132.8L270.7,132.8z"/>
			</g>
		</g>
		<path class="st7" d="M264,198.3c0-3.7-3-6.6-6.6-6.6c-3.7,0-6.6,3-6.6,6.6c0,0.1,0,0.1,0,0.2H264C264,198.4,264,198.3,264,198.3z"
			/>
		<circle class="st7" cx="179.6" cy="172.1" r="4.2"/>
		<path class="st7" d="M254.8,170.4c2.7,0,4.9-2.2,4.9-4.9c0-0.7-0.1-1.3-0.4-1.8h-9.1c-0.2,0.6-0.4,1.2-0.4,1.8
			C249.9,168.2,252.1,170.4,254.8,170.4z"/>
		<g>
			<path class="st3" d="M222.2,142c-0.2,0.6-1,1-2,1c-1.1,0-2-0.5-2-1.2c-5.5,0.4-9.8,3.2-9.9,6.7c0,0.7,0.2,1.3,0.5,2
				c0,0,0.1,0,0.1,0c1.1,0,2,0.5,2,1.2c0,0.3-0.2,0.6-0.5,0.8c1.8,1.6,4.7,2.6,8,2.8c0.8,0.1,2.6,0,3.7-0.2c2.7-0.4,4.9-1.4,6.4-2.8
				c-0.1-0.2-0.2-0.3-0.2-0.5c0-0.6,0.7-1,1.5-1.1c0.4-0.7,0.6-1.4,0.6-2.1C230.4,145.4,226.9,142.7,222.2,142z M210.6,146.7
				c-0.6,0-1.1-0.3-1.1-0.6c0-0.4,0.5-0.6,1.1-0.6s1.1,0.3,1.1,0.6C211.7,146.4,211.2,146.7,210.6,146.7z M228,149
				c-0.7,0-1.3-0.4-1.3-0.8c0-0.4,0.6-0.8,1.3-0.8c0.7,0,1.3,0.4,1.3,0.8C229.3,148.6,228.7,149,228,149z"/>
			<g>
				<ellipse class="st4" cx="210.6" cy="154.6" rx="3.5" ry="2.1"/>
				<path class="st1" d="M208.3,154.4c0.1-0.1,0.2-0.2,0.3-0.3c0,0,0.1-0.1,0.2-0.1c0.1,0,0.1-0.1,0,0c0,0.1,0,0.1,0,0.2
					c0,0.4,0,0.8-0.1,1.1c0,0.1,0.4,0,0.4-0.1c0-0.2,0.1-0.5,0.1-0.7c0-0.1,0.1-0.7-0.1-0.7c-0.4-0.1-0.8,0.5-1,0.6
					C207.8,154.5,208.2,154.5,208.3,154.4L208.3,154.4z"/>
				<path class="st1" d="M210.2,154.4c-0.2-0.1-0.6-0.3-0.3-0.4c0.1,0,0.3,0,0.4,0c0.3,0.1,0.1,0.2-0.1,0.3c-0.1,0-0.6,0.3-0.4,0.4
					c0.3,0.1,0.8,0,0.8,0.3c0,0.2-0.5,0.2-0.7,0.1c-0.3-0.1-0.3-0.3,0.1-0.4c0.1-0.1,0.3-0.3,0-0.2c-0.3,0.1-0.7,0.3-0.7,0.6
					c0,0.2,0.3,0.3,0.5,0.4c0.4,0,0.8-0.1,1-0.3c0.2-0.2,0.2-0.4-0.2-0.5c-0.1,0-0.4-0.1-0.5,0c0.2-0.1,0.4-0.2,0.5-0.3
					c0.3-0.2,0.2-0.4-0.3-0.5c-0.4,0-0.7,0.1-0.9,0.3c-0.2,0.2,0,0.5,0.4,0.6C210,154.7,210.4,154.5,210.2,154.4L210.2,154.4z"/>
				<g>
					<path class="st1" d="M212.8,153.9c-0.4,0.5-1,0.9-1.5,1.3c-0.2,0.2,0.1,0.2,0.3,0.1c0.5-0.4,1.1-0.9,1.6-1.4
						C213.4,153.7,212.9,153.8,212.8,153.9L212.8,153.9z"/>
					<path class="st1" d="M212,153.8c-0.3,0-0.5,0.2-0.5,0.3c0,0.1,0.1,0.3,0.3,0.3C212.4,154.4,212.6,153.8,212,153.8
						c-0.1,0-0.3,0.2-0.2,0.2c0.1,0,0.2,0.1,0.2,0.1c0,0,0,0.1,0,0.1c0,0,0,0,0,0c0,0-0.1,0-0.1,0c-0.1,0-0.2-0.1-0.2-0.1
						c0,0,0-0.1,0-0.1c0,0,0,0,0,0c0,0,0,0,0.1,0C212,154,212.2,153.8,212,153.8z"/>
					<path class="st1" d="M212.8,154.8c-0.3,0-0.5,0.2-0.5,0.3c0,0.1,0.1,0.3,0.3,0.3C213.1,155.4,213.4,154.8,212.8,154.8
						c-0.1,0-0.3,0.2-0.2,0.2c0.1,0,0.2,0.1,0.2,0.1c0,0,0,0.1,0,0.1c0,0,0,0,0,0c0,0-0.1,0-0.1,0c-0.1,0-0.2-0.1-0.2-0.1
						c0,0,0-0.1,0-0.1c0,0,0,0,0,0c0,0,0,0,0.1,0C212.8,154.9,213,154.8,212.8,154.8z"/>
				</g>
			</g>
			<path class="st3" d="M214.1,140.2c0,0.5-0.6,0.9-1.4,0.9c-0.8,0-1.4-0.4-1.4-0.9c0-0.5,0.6-0.9,1.4-0.9
				C213.5,139.4,214.1,139.7,214.1,140.2L214.1,140.2z"/>
			<path class="st5" d="M214.2,143.2c0,0.6-0.8,1.1-1.8,1.1c-1,0-1.8-0.5-1.8-1.1c0-0.6,0.8-1.1,1.8-1.1
				C213.4,142,214.2,142.5,214.2,143.2L214.2,143.2z"/>
			<path class="st5" d="M209.3,141.4c0,0.4-0.5,0.7-1.1,0.7c-0.6,0-1.1-0.3-1.1-0.7c0-0.4,0.5-0.7,1.1-0.7
				C208.8,140.8,209.3,141.1,209.3,141.4L209.3,141.4z"/>
			<g>
				<ellipse class="st4" cx="228.8" cy="142.3" rx="6.1" ry="3.7"/>
				<g>
					<path class="st1" d="M227.3,141.8c-0.5,0-0.6,0.4-0.7,0.7l0,0v0c0,0,0,0.1,0,0.1c0,0.1,0,0.2,0,0.3c0,0,0,0.1-0.1,0.1
						c-0.2,0-0.3-0.2-0.4-0.2c-0.1-0.2-0.2-0.4-0.3-0.6c-0.1-0.2-0.1-0.4-0.1-0.7c0-0.1,0-0.2,0-0.3c0,0,0-0.1,0-0.1
						c0,0,0-0.1,0-0.1c0-0.2-0.3,0-0.4,0.1c-0.4,0.4-0.3,0.9-0.3,1.4c0,0.1,0,0.3,0,0.4c0,0.1,0,0.2-0.2,0.3c-0.1,0-0.2,0-0.3,0
						c-0.1,0-0.2-0.1-0.2-0.2c0-0.1-0.1,0-0.2,0c-0.1,0.1-0.2,0.1-0.2,0.2c0,0.2,0.3,0.3,0.6,0.3c0.5-0.1,0.6-0.4,0.8-0.7
						c0.1-0.1,0.1-0.3,0.1-0.4c0.1,0.2,0.2,0.4,0.3,0.5c0.1,0.1,0.3,0.3,0.5,0.2c0.2,0,0.3-0.1,0.4-0.3c0.1,0.1,0.2,0.2,0.5,0.2
						c0.3,0,0.5-0.2,0.6-0.3c0.1-0.2,0.1-0.3,0.1-0.5C227.9,142.2,227.8,141.8,227.3,141.8z M227.4,142.9
						C227.4,142.9,227.4,143,227.4,142.9c-0.1,0.1-0.2,0-0.2,0c-0.1-0.1-0.1-0.2-0.1-0.3c0-0.1,0-0.2,0-0.4c0,0,0-0.1,0-0.1
						c0.3,0.1,0.3,0.3,0.3,0.5C227.5,142.7,227.5,142.8,227.4,142.9z"/>
					<path class="st1" d="M233.3,142.3c-0.5-0.1-0.9,0.3-1,0.6c-0.1,0.2-0.2,0.6,0.3,0.8c0.2,0.1,0.5,0,0.6-0.1
						c0.2-0.1,0.3-0.3,0.3-0.4C233.7,142.8,233.8,142.4,233.3,142.3z M233,143.3C233,143.4,232.9,143.4,233,143.3
						c-0.2,0-0.2-0.1-0.2-0.1c0-0.1,0-0.2,0-0.3c0-0.1,0.1-0.2,0.2-0.3c0,0,0-0.1,0.1-0.1c0.2,0.1,0.2,0.4,0.1,0.5
						C233.1,143.1,233.1,143.2,233,143.3z"/>
					<path class="st1" d="M231.8,142.3c0.1-0.1,0.2-0.2,0.3-0.3c0.2-0.2,0.4-0.4,0.4-0.6c0-0.2-0.5-0.2-0.7-0.2
						c-0.3,0.1-0.5,0.3-0.6,0.6c-0.1,0.3-0.2,0.6-0.2,0.9v0c-0.2,0.1-0.5,0.4-0.8,0.3c-0.1,0-0.1-0.1-0.1-0.1
						c0.2-0.1,0.4-0.3,0.6-0.5c0.2-0.2,0.3-0.4,0-0.5c-0.3-0.1-0.6,0-0.8,0.1c-0.2,0.1-0.3,0.3-0.3,0.5c0,0.1,0,0.2,0,0.4
						c-0.2,0.1-0.4,0.1-0.5,0.1c-0.2,0-0.3-0.2-0.3-0.3c-0.1-0.2,0-0.3,0-0.5c0,0,0-0.1,0.1-0.1c0,0,0,0,0,0c0.1,0,0.2,0.2,0.2,0.2
						c0.1,0.1,0.5-0.1,0.5-0.2c-0.1-0.1-0.1-0.2-0.3-0.3c-0.2-0.1-0.5,0-0.6,0.1c-0.3,0.2-0.4,0.5-0.3,0.8c0,0.2,0.1,0.4,0.3,0.5
						c0.3,0.1,0.8,0,1.1-0.1c0.1,0.1,0.2,0.2,0.5,0.2c0.3,0,0.6-0.1,0.9-0.3c0,0.2,0.1,0.3,0.2,0.4c0.3,0.1,0.6,0,0.8-0.2
						c0.2-0.2,0.4-0.5,0.2-0.7C232.2,142.4,232,142.3,231.8,142.3z M230,142.2c0,0,0-0.1,0.1-0.1l0,0c0.1,0,0.2,0.1,0.1,0.2
						c0,0.1-0.2,0.2-0.3,0.4c0,0,0,0,0-0.1C229.9,142.4,229.9,142.3,230,142.2z M231.8,141.6c0,0,0.1-0.1,0.1-0.1c0,0,0,0,0,0
						c0.2,0.1,0,0.3-0.1,0.5c-0.1,0.1-0.2,0.3-0.4,0.4c0-0.1,0.1-0.3,0.1-0.4C231.6,141.8,231.7,141.7,231.8,141.6z M231.7,143.1
						C231.6,143.1,231.6,143.1,231.7,143.1c-0.1,0.1-0.1,0.1-0.1,0c-0.1,0-0.1-0.2-0.2-0.3c0-0.1,0-0.1,0-0.2c0.1,0,0.1-0.1,0.2-0.1
						c0.1,0,0.2,0,0.2,0.1C231.8,142.8,231.7,143,231.7,143.1z"/>
				</g>
			</g>
			<g>
				<g>
					<path class="st1" d="M224.5,147.6c0.2-0.3,0.3-0.7-0.1-1c-0.3-0.2-0.7-0.2-1-0.1c0-0.1,0.1-0.3,0.1-0.4c0-0.1-0.4-0.1-0.5-0.1
						c-0.2,0-0.4,0.1-0.4,0.2c0,0.5-0.2,1-0.3,1.5c-0.2,0.1-0.4,0.1-0.6,0.2c-0.1,0-0.2,0.1-0.3,0c-0.2,0-0.2-0.3-0.2-0.4
						c0-0.5,0-1,0.5-1.3c0.1-0.1,0-0.2-0.3-0.1c-0.3,0-0.5,0.1-0.6,0.2c-0.4,0.5-0.4,1.1-0.3,1.6c0,0.2,0.1,0.3,0.5,0.4
						c0.4,0,0.9-0.1,1.2-0.2c0,0,0,0.1,0,0.1c-0.2,0.5-0.4,0.9-0.6,1.4c-0.1,0.1,0.1,0.1,0.2,0.1c0.1,0,0.3-0.1,0.3-0.2
						c0.2-0.3,0.4-0.6,0.5-1c0.2,0,0.5,0,0.7,0C223.9,148.3,224.3,148,224.5,147.6z M223.4,146.7
						C223.4,146.7,223.4,146.7,223.4,146.7L223.4,146.7z M223.1,148.2C223.1,148.2,223.1,148.2,223.1,148.2L223.1,148.2z
						 M223.1,148.2C223.1,148.2,223.1,148.2,223.1,148.2C223.1,148.2,223.1,148.2,223.1,148.2c-0.3,0-0.3-0.2-0.3-0.3c0,0,0,0,0,0
						c0.1-0.3,0.3-0.6,0.4-0.8c0,0,0,0,0,0c0-0.1,0.1-0.2,0.2-0.2c0,0,0,0,0,0c0,0,0,0,0,0c0.1,0,0.2,0.1,0.2,0.1
						c0.2,0.2,0.1,0.5,0,0.7C223.5,147.8,223.4,148,223.1,148.2z"/>
					<path class="st1" d="M219.4,146.5C219.4,146.5,219.4,146.5,219.4,146.5c-0.1,0-0.1,0-0.1,0c-0.2,0-0.4,0.1-0.5,0.1
						c0-0.2-0.1-0.4-0.1-0.6c0-0.1-0.3,0-0.4,0c-0.2,0.1-0.4,0.2-0.4,0.3c0,0.2-0.1,0.5-0.2,0.7c-0.1,0.2-0.1,0.4-0.2,0.6
						c0,0.1-0.1,0.2-0.1,0.2c0,0,0,0.1-0.1,0.1c-0.2,0.1-0.4,0.1-0.6,0.1c-0.2,0-0.4-0.1-0.6-0.2c-0.4-0.3-0.7-0.7-0.8-1.1
						c-0.1-0.2-0.1-0.4,0-0.6c0-0.1,0-0.2,0.1-0.2c0-0.1,0-0.1,0.1-0.1c0,0,0,0,0,0c0,0,0,0,0,0c0,0,0,0,0,0c0,0,0,0,0,0
						c0,0,0,0,0,0c0,0,0,0,0.1,0c0,0,0.2,0,0.3-0.1c0.6-0.1,0.8,0.2,0.9,0.4c0.1,0.2,0.9-0.2,0.8-0.4c-0.2-0.3-0.7-0.6-1.3-0.5
						c-0.5,0-0.9,0.2-1.2,0.4c-0.6,0.4-0.8,1-0.6,1.6c0.2,0.5,0.6,1,1.3,1.2c0.3,0.1,0.6,0.2,0.9,0.1c0.7-0.1,1.1-0.5,1.3-0.9
						c0,0,0,0,0-0.1c0,0,0,0,0,0c0,0.3,0.4,0.7,1,0.7c0.7,0,1-0.5,1.1-0.9C220.3,147,220.1,146.5,219.4,146.5z M219.5,147.7
						C219.5,147.8,219.5,147.8,219.5,147.7c-0.1,0.1-0.1,0.1-0.1,0.1c-0.4,0-0.5-0.3-0.6-0.5c0,0,0,0,0-0.1l0,0c0,0,0-0.1,0-0.1
						c0-0.1,0-0.1,0-0.2c0,0,0-0.1,0.1-0.1c0,0,0,0,0,0c0.4,0,0.6,0.3,0.6,0.5C219.6,147.5,219.6,147.6,219.5,147.7z"/>
				</g>
			</g>
			<g>
				<g>
					<path class="st1" d="M219.4,150.6c-0.1,0-0.2-0.2-0.2-0.3c0-0.2,0-0.4,0-0.7c0,0,0,0,0,0c0-0.2-0.2-0.2-0.5-0.2
						c-0.2,0-0.4,0.2-0.5,0.3c-0.2,0.2-0.2,0.5-0.1,0.8c0,0,0,0-0.1,0c0,0-0.1,0-0.1,0.1c-0.2,0-0.3-0.3-0.3-0.4
						c-0.1-0.2-0.1-0.5-0.1-0.7c0-0.1-0.1-0.1-0.2,0c-0.1,0-0.2,0.1-0.2,0.2c0,0.2,0.1,0.5,0.1,0.7c0,0.1,0,0.2-0.1,0.3c0,0,0,0,0,0
						c0,0-0.1,0-0.1,0c-0.3,0-0.3-0.3-0.3-0.4c0-0.2,0-0.4,0-0.6c0,0,0,0,0-0.1c0,0-0.1-0.1-0.2,0c-0.1,0-0.2,0.1-0.3,0.2
						c-0.1,0.1-0.2,0.1-0.4,0.1c-0.1,0-0.2,0-0.3-0.1c0,0,0,0-0.1,0c-0.1,0-0.2-0.1-0.3-0.1c0,0,0,0,0,0c0,0,0,0,0,0
						c-0.5,0.1-0.5,0.5-0.4,0.8c0,0.1,0.1,0.2,0.2,0.4c-0.1,0.1-0.2,0.1-0.3,0.1c-0.1,0-0.1-0.1-0.2-0.1c-0.2-0.2-0.3-0.3-0.4-0.5
						c-0.2-0.3-0.3-0.6-0.3-1c0-0.1-0.1,0-0.2,0c-0.1,0-0.2,0.1-0.2,0.2c-0.1,0.2,0,0.5,0,0.7c0,0,0,0,0,0c0,0,0,0,0-0.1
						c-0.1-0.2-0.2-0.4-0.3-0.6c-0.1-0.1-0.1-0.3-0.1-0.4c0-0.2-0.3,0-0.3,0.1c-0.3,0.5,0,1,0.2,1.4c0,0.1,0.1,0.2,0.1,0.4
						c0,0.1,0,0.2-0.1,0.3c-0.1,0-0.2,0-0.3,0c-0.1,0-0.2-0.1-0.2-0.2c0-0.1-0.2,0-0.2,0c-0.1,0.1-0.2,0.1-0.1,0.2
						c0.1,0.2,0.4,0.3,0.7,0.2c0.4-0.1,0.5-0.5,0.6-0.7c0-0.2,0-0.3-0.1-0.5c0.2,0.3,0.3,0.6,0.5,0.8c0.1,0.1,0.3-0.1,0.3-0.2
						c-0.1-0.2-0.1-0.4-0.1-0.6c0,0.1,0.1,0.1,0.1,0.2c0.1,0.2,0.2,0.4,0.5,0.5c0.1,0,0.3,0,0.4,0c0.2,0,0.3-0.1,0.4-0.2
						c0.1,0.1,0.2,0.1,0.4,0.1c0.2,0,0.4-0.2,0.4-0.3c0.1-0.2,0.1-0.3,0-0.5c0-0.1,0-0.1-0.1-0.2h0c0.2,0,0.3,0,0.4-0.1
						c0,0.2,0,0.3,0.1,0.5c0.1,0.2,0.2,0.5,0.6,0.4c0.3,0,0.4-0.1,0.5-0.2c0,0.1,0.1,0.1,0.2,0.1c-0.2,0.1-0.3,0.3-0.1,0.5
						c0.1,0.1,0.5-0.1,0.4-0.2c-0.1-0.1-0.1-0.2,0.1-0.2c0,0,0,0,0,0c0.1,0,0.2-0.1,0.3-0.1c0,0,0,0,0,0c0,0.1,0.1,0.1,0.2,0.1
						c0.2,0.1,0.4,0,0.5-0.1c0,0,0,0,0,0c0,0.1,0.1,0.1,0.1,0.1c0.2,0.1,0.3,0,0.5-0.1c0,0,0.2-0.1,0.1-0.2
						C219.6,150.6,219.5,150.6,219.4,150.6z M215.5,150.9C215.5,150.9,215.5,150.9,215.5,150.9L215.5,150.9z M215.5,150.8
						C215.5,150.8,215.5,150.9,215.5,150.8c-0.1,0.1-0.2,0-0.2,0c-0.1-0.1-0.2-0.2-0.2-0.3c0-0.1-0.1-0.2-0.1-0.3c0,0,0-0.1,0-0.1
						c0.2,0,0.4,0.3,0.4,0.4C215.5,150.6,215.5,150.7,215.5,150.8z M217.1,150.7C217.1,150.8,217.1,150.8,217.1,150.7L217.1,150.7z
						 M218.7,150.6C218.7,150.6,218.7,150.6,218.7,150.6c-0.1,0-0.2-0.1-0.2-0.1c-0.1-0.2-0.1-0.4,0-0.6c0-0.1,0.1-0.1,0.1-0.2
						c0,0,0,0,0,0c0,0,0.1,0,0.1,0c0.1,0,0.2,0,0.2,0.1C218.8,150.1,218.8,150.3,218.7,150.6C218.8,150.6,218.8,150.6,218.7,150.6z"
						/>
					<path class="st1" d="M227,151.6c0,0-0.1,0-0.2,0c-0.1,0,0-0.3,0-0.3c0.1-0.2,0.2-0.4,0.4-0.6c0,0,0,0,0,0
						c0.1-0.1-0.1-0.3-0.4-0.3c-0.3,0-0.5,0-0.7,0.1c-0.3,0.2-0.5,0.4-0.6,0.7c-0.1,0-0.2,0-0.3,0c-0.1,0-0.1-0.1-0.1-0.2
						c0-0.3,0.2-0.7,0.3-1c0,0,0-0.1-0.1-0.1c-0.1,0-0.2,0-0.3,0.1c-0.3,0.2-0.4,0.4-0.5,0.7c0,0.1-0.1,0.1-0.1,0.2c0,0,0,0.1,0,0.1
						c-0.1,0-0.1-0.1-0.1-0.1c0-0.1-0.2-0.1-0.4,0c0,0-0.1,0-0.1,0c0,0,0-0.1,0-0.1c0-0.1,0-0.2,0-0.3c0-0.3,0.1-0.5,0.2-0.8
						c0-0.1,0-0.1-0.1-0.1c-0.1,0-0.2,0.1-0.3,0.1c-0.2,0.2-0.4,0.4-0.5,0.7c0,0.1-0.1,0.1-0.1,0.2c0,0,0,0.1,0,0.1
						c-0.1,0-0.1-0.1-0.1-0.1c0,0,0,0,0,0c0-0.1-0.2,0-0.4,0c-0.1,0-0.3,0.1-0.4,0c-0.1,0-0.1-0.1-0.1-0.1c0.3-0.2,0.6-0.3,0.7-0.5
						c0.1-0.1,0.2-0.3,0-0.4c-0.2-0.2-0.6,0-0.8,0.1c-0.3,0.1-0.7,0-0.9-0.1c0,0-0.1-0.1-0.1-0.1c-0.2-0.1-0.4,0-0.5,0
						c0-0.1,0-0.2,0-0.3c0-0.1-0.2,0-0.3,0c-0.1,0-0.2,0.1-0.2,0.2c0.1,0.4,0.1,0.8,0.1,1.3c0,0.3,0,0.6-0.1,0.9
						c0,0.1,0.1,0.1,0.2,0c0.1,0,0.2-0.1,0.2-0.2c0-0.2,0.1-0.4,0.1-0.7c0.1,0,0.3,0,0.4-0.1c0.3-0.2,0.4-0.4,0.4-0.7
						c0,0,0-0.1,0-0.1c0,0,0,0,0,0c0.2,0,0.3,0,0.5,0c-0.1,0.2-0.2,0.5-0.1,0.7c0,0.1,0.1,0.2,0.3,0.2c0.2,0,0.4,0,0.6,0
						c0,0.1,0.1,0.1,0.2,0.1c0.2,0,0.5,0,0.6-0.1c0.1,0,0.1-0.1,0.2-0.1c0,0,0,0.1,0,0.1c0,0.1,0,0.2,0.1,0.3c0.1,0.1,0.3,0,0.4,0
						c0,0,0,0,0,0c0,0.1,0.1,0.1,0.2,0.1c0.2,0,0.4,0,0.6-0.1c0.1,0,0.1-0.1,0.2-0.1c0,0.1,0,0.2,0,0.3c0.1,0.2,0.5,0.2,0.8,0.1
						c0,0.1,0,0.1,0.1,0.2c0.1,0.1,0.4,0.1,0.6,0c0,0,0,0,0,0c0,0.1,0,0.1,0,0.2c0.1,0.1,0.4,0.1,0.5,0.1
						C226.9,151.8,227.1,151.7,227,151.6z M220.2,149.7C220.2,149.7,220.2,149.7,220.2,149.7L220.2,149.7z M220.4,150.6
						C220.4,150.6,220.4,150.6,220.4,150.6L220.4,150.6z M220.4,150.6C220.4,150.6,220.4,150.6,220.4,150.6
						C220.4,150.6,220.4,150.6,220.4,150.6c-0.2,0-0.2-0.1-0.2-0.2c0,0,0,0,0,0c0-0.2,0-0.4,0-0.5c0,0,0,0,0,0c0-0.1,0-0.1,0-0.2
						l0,0c0,0,0,0,0,0c0.1,0,0.1,0,0.1,0.1c0.1,0.1,0.1,0.3,0.2,0.4C220.5,150.3,220.5,150.5,220.4,150.6z M222,150.1
						c-0.1,0.1-0.2,0.2-0.3,0.2c0-0.1,0-0.3,0.1-0.4c0,0,0.1-0.1,0.1-0.1c0,0,0,0,0.1,0c0,0,0,0,0.1,0
						C222.2,149.9,222.1,150,222,150.1z M226.1,151.4C226.1,151.4,226.1,151.4,226.1,151.4c-0.1-0.1-0.1-0.1-0.1-0.2c0,0,0,0,0,0
						c0,0,0,0,0,0c0-0.2,0.1-0.4,0.3-0.5c0,0,0.2-0.1,0.2-0.1c0,0,0,0,0,0c0,0,0.1,0,0.1,0c0.1,0,0.1,0.1,0.1,0.1
						C226.5,150.9,226.4,151.2,226.1,151.4C226.1,151.4,226.1,151.4,226.1,151.4z"/>
				</g>
			</g>
			<g>
				<path class="st6" d="M205.9,145.7c-0.1,0-0.1-0.1-0.2-0.1c-0.2-0.1-0.4,0-0.6,0c-0.5,0-0.7,0-1.3-0.1c0-0.3,0.3-0.5,0.5-0.8
					c0.1-0.2-0.1-0.5-0.1-0.8c0-0.2,0-0.3,0-0.5c-0.2,0.1-0.1,0.4-0.1,0.6c-0.1-0.2-0.1-0.5-0.2-0.6c-0.1,0.2,0,0.5,0,0.6
					c-0.1-0.2-0.1-0.4-0.2-0.6c-0.1,0.2,0.1,0.5,0.1,0.6c-0.1-0.2-0.2-0.4-0.3-0.5c0,0.2,0.1,0.4,0.1,0.5c-0.1-0.1-0.2-0.3-0.3-0.4
					c0,0.1,0.1,0.3,0.2,0.4c-0.1,0-0.2-0.2-0.4-0.2c0,0.1,0.1,0.2,0.2,0.3c-0.1,0-0.2-0.1-0.3-0.1c0,0.1,0.1,0.1,0.2,0.2
					c-0.1,0-0.1-0.1-0.2-0.1c0,0.1,0.2,0.1,0.2,0.2c0,0-0.1,0-0.1,0c0,0,0.1,0,0.1,0.1c0,0-0.1,0-0.1,0c0,0.1,0.1,0,0.1,0.1
					c0,0,0,0-0.1,0c0,0,0.1,0,0.1,0.1c-0.5,0.3-0.2,0.6-0.3,0.9c0,0-0.4-0.1-0.7-0.2c-0.2,0-0.2-0.2-0.3-0.2c0,0,0,0,0,0
					c0,0-0.1,0-0.1-0.1c0.1,0,0.2,0,0.2,0c-0.1,0-0.3-0.1-0.3-0.1c0.1,0,0.2,0,0.3,0c-0.1,0-0.4-0.1-0.4-0.2c0.1,0,0.3,0.1,0.4,0.1
					c-0.2-0.1-0.5-0.2-0.5-0.2c0.1,0,0.3,0.1,0.5,0.1c-0.2,0-0.4-0.2-0.6-0.2c0.1,0.1,0.4,0.2,0.5,0.3c-0.2-0.1-0.4-0.1-0.5-0.2
					c0.1,0.1,0.3,0.2,0.5,0.3c-0.2,0-0.3-0.1-0.4-0.1c0,0.1,0.3,0.1,0.4,0.2c-0.1,0-0.2,0-0.3,0c0,0.1,0.2,0.1,0.3,0.1
					c-0.1,0-0.2,0-0.2,0c0.1,0,0.2,0,0.2,0.1c-0.1,0-0.1,0-0.1,0c0,0,0.1,0,0.2,0c0,0-0.1,0,0,0c0,0,0.1,0,0.1,0c0,0,0,0-0.1,0
					c0.2,0.1,0.4,0.3,0.7,0.4c-0.2,0.1,0.2,0.2-1.9,0.6c0.1,0,0.9-0.1,1.2-0.2c0.3-0.1,0.5-0.1,0.8-0.2c0.1,0,0.1,0,0.2,0
					c0.4,0,0.8,0,1.3-0.1c-0.3,0-0.9,0.1-1.1,0c0.3-0.3,0.1-1,0.3-1.1c0.2-0.1,0.6-0.6,1-0.2c0.1,0.1,0.1,0.2-0.1,0.3
					c-0.2,0.2-0.3,0.3-0.3,0.7c0,0.1,0,0.2-0.2,0.2c0.9,0.1,1.2,0.1,1.7,0c0.2,0,0.4-0.1,0.5,0c0,0-0.2,0-0.3,0
					c-0.3,0,0.1,0.1,0.2,0.1c0.1,0,0.5,0,0.8-0.1C206.2,145.7,206.1,145.7,205.9,145.7z"/>
				<path class="st6" d="M203.2,142.8c-2.1,0-3.8,1.1-3.8,2.4c0,1.3,1.7,2.4,3.8,2.4c2.1,0,3.8-1.1,3.8-2.4
					C207.1,143.8,205.3,142.8,203.2,142.8 M203.2,142.9c2,0,3.7,1,3.7,2.3c0,1.2-1.7,2.3-3.7,2.3c-2,0-3.7-1-3.7-2.3
					C199.5,143.9,201.2,142.9,203.2,142.9"/>
			</g>
		</g>
		<g>
			<path class="st7" d="M207.1,183.7c0.1,2.3,2.2,2.1,3.3,0.6c2.1-2.8,0.7-6.6,2.4-9.5c-0.4,0.1-0.8,0.3-1.2,0.4
				c-0.6,3.1,0,6.7,0.1,9.8c0,0.8,1.3-0.3,1.3-0.7c0.3-2.6,0.6-5.7,1.7-8.1c-0.4,0.1-0.8,0.3-1.2,0.4c-0.4,2.4-0.5,5.2,0.2,7.6
				c0.8,2.8,3-0.5,3.6-1.7c0.4-0.9-1.1-0.1-1.3,0.4c-0.7,1.7-0.9,0.6-1.1-0.4c-0.2-0.9-0.2-1.8-0.2-2.7c0-1.3,0-2.7,0.2-4
				c0.1-0.8-1.1,0.1-1.2,0.4c-1.2,2.6-1.6,5.9-1.9,8.7c0.4-0.2,0.9-0.5,1.3-0.7c-0.2-3.1-0.8-6.7-0.1-9.8c0.2-0.8-1.1,0.2-1.2,0.4
				c-0.8,1.3-1,2.7-1.1,4.2c-0.1,0.9-0.2,1.9-0.3,2.8c-0.1,0.5-0.2,1-0.4,1.4c-0.6,1.9-1.4,0.1-1.4-0.4
				C208.5,182.1,207.1,183.1,207.1,183.7L207.1,183.7z"/>
			<path class="st7" d="M191.3,176.4c-0.4-1.8-1.9-3-3.5-1.5c-1.5,1.4-1.8,3.7-1.9,5.7c0,1.6,0.2,4,1.9,4.6c2.1,0.8,3.8-2.4,4.3-3.9
				c0.3-0.9-1.1-0.1-1.2,0.4c-0.4,1.4-1.6,3.2-2.9,1.6c-0.7-0.9-0.8-2.4-0.8-3.4c0-1.1,0.2-2.2,0.5-3.3c0.7-2,2-0.7,2.3,0.8
				C190.2,178,191.4,177,191.3,176.4L191.3,176.4z"/>
			<path class="st7" d="M239,183.8c0.1,1.5,1.6,1.2,2.5,0.5c0.7-0.7,0.7-1.8,0.8-2.6c0.1-1.3,0.3-2.6,0.8-3.9
				c-0.4,0.2-0.9,0.4-1.3,0.6c0,1.1-0.3,8.2,2.3,6.2c0.6-0.5,0.7-1.6-0.3-0.9c0.2-0.1-0.1-0.5-0.2-0.8c-0.2-0.4-0.2-0.9-0.3-1.4
				c-0.2-1.3-0.2-2.6-0.2-3.9c0-0.9-1.2,0.3-1.3,0.6c-0.4,1-0.6,2-0.8,3c-0.1,0.7-0.2,1.4-0.2,2.1c-0.1,0.6-0.1,0.7,0,0.4
				c-0.3,0-0.5-0.3-0.5-0.5C240.3,182.3,239,183.3,239,183.8L239,183.8z"/>
			<path class="st7" d="M244.1,183.8c0.1,1.6,1.8,1.3,2.6,0.3c0.6-0.7,0.6-1.6,0.7-2.5c0.1-1.3,0.3-2.6,0.8-3.9
				c-0.4,0.2-0.9,0.4-1.3,0.6c0,1.5,0,3,0.3,4.5c0.1,0.7,0.2,1.9,1,2.2c1.6,0.6,2.6-2.2,2.8-3.2c0.1-0.7-1.2,0.2-1.3,0.7
				c-0.2,1.2-0.5,1.6-0.9,0.3c-0.5-1.6-0.4-3.4-0.4-5.1c0-0.9-1.2,0.3-1.3,0.6c-0.4,0.8-0.6,1.7-0.7,2.6c-0.1,0.5-0.1,1.1-0.2,1.6
				c0,0.3-0.1,0.6-0.1,0.9c-0.1,0.8-0.5,0.2-0.5-0.1C245.3,182.3,244,183.3,244.1,183.8L244.1,183.8z"/>
			<path class="st7" d="M237.3,183c1-1.2,3-3.8,1.7-5.3c-0.9-1.1-2.4,0.6-2.7,1.4c-0.6,1.4-0.7,3.2-0.2,4.7c0.6,1.9,2.4,1.1,3.5,0.2
				c0.6-0.5,0.6-1.6-0.3-0.9c-2.1,1.8-2.3-1.5-2.1-2.9c0-0.4,0.1-0.8,0.2-1.2c0.2-0.6,0-0.4,0.4-0.1c1.1,0.9-0.9,3.2-1.4,3.9
				C235.6,183.7,236.8,183.6,237.3,183L237.3,183z"/>
			<path class="st7" d="M230.3,178.3c-0.1-2-2.4-0.9-3.1,0.1c-0.9,1.4-1,3.2-0.8,4.8c0.3,1.5,1.5,2,2.6,0.9
				C230.5,182.7,230.2,180.2,230.3,178.3c-0.4,0.2-0.9,0.5-1.3,0.7c0,1.1-0.1,2.3,0,3.5c0.1,0.7,0.1,1.5,0.5,2.1
				c0.8,1.1,2.8-1.1,3.1-1.6c0.7-0.9-0.4-0.9-0.9-0.3c-0.8,1.1-1.2,0.8-1.4-0.3C230.2,181.1,230.3,179.7,230.3,178.3
				c0-0.8-1.3,0.2-1.3,0.7c-0.1,1.1-0.1,2.2-0.2,3.3c0,0.3-0.2,1.1-0.3,1.1c-0.3,0-0.4-0.4-0.5-0.6c-0.3-0.7-0.3-1.6-0.2-2.4
				c0-0.4,0.1-0.9,0.2-1.3c0.1-0.2,0.1-0.4,0.3-0.6c0.3-0.4,0.8,0.4,0.8,0.5C229,179.8,230.3,178.8,230.3,178.3L230.3,178.3z"/>
			<path class="st7" d="M253.6,178.3c-0.1-2-2.4-0.9-3.1,0.1c-0.9,1.4-1,3.2-0.8,4.8c0.3,1.5,1.5,2,2.6,0.9
				C253.8,182.7,253.5,180.2,253.6,178.3c-0.4,0.2-0.9,0.5-1.3,0.7c0,1.2-0.6,7.3,2.1,5.4c0.7-0.5,0.7-1.6-0.3-0.9
				c-0.3,0.2-0.5-1.9-0.5-1.9C253.5,180.5,253.6,179.4,253.6,178.3c0-0.8-1.3,0.2-1.3,0.7c-0.1,1.1-0.1,2.2-0.2,3.3
				c0,0.3-0.2,1.1-0.3,1.1c-0.3,0-0.4-0.4-0.5-0.6c-0.3-0.7-0.3-1.6-0.2-2.4c0-0.4,0.1-0.9,0.3-1.3c0.1-0.2,0.1-0.4,0.3-0.6
				c0.3-0.4,0.8,0.4,0.8,0.5C252.3,179.8,253.6,178.8,253.6,178.3L253.6,178.3z"/>
			<g>
				<path class="st7" d="M198.5,183.6c0.1,1.6,1.5,1.9,2.6,0.9c1-1,1.2-2.4,1.2-3.8c0-1.1-0.2-2.7-1.2-3.2c-0.5-0.3-1.2,0.2-1.6,0.4
					c-0.8,0.6-1.1,1.6-1.1,2.5c0,0.8,1.3-0.2,1.3-0.7c0-1,0.4-1.1,0.8-0.3c0.2,0.5,0.3,1.1,0.4,1.7c0.1,0.7,0.1,1.4-0.1,2
					c-0.1,0.2-0.1,0.5-0.3,0.7c0.1-0.1,0-0.1-0.2-0.1c-0.4-0.1-0.6-0.5-0.6-0.9C199.8,182.1,198.5,183.1,198.5,183.6L198.5,183.6z"
					/>
				<path class="st7" d="M198.2,177.5c0.5,3.9,0.4,8,0,11.8c-0.1,0.7,1.3-0.2,1.3-0.7c0.4-4,0.5-8.1-0.1-12.1
					C199.4,175.9,198.1,176.9,198.2,177.5L198.2,177.5z"/>
			</g>
			<g>
				<path class="st7" d="M231.6,183.6c0.1,1.6,1.5,1.9,2.6,0.9c1-1,1.2-2.4,1.2-3.8c0-1.1-0.2-2.7-1.2-3.2c-0.5-0.3-1.2,0.2-1.6,0.4
					c-0.8,0.6-1.1,1.6-1.1,2.5c0,0.8,1.3-0.2,1.3-0.7c0-1,0.4-1.1,0.8-0.3c0.2,0.5,0.3,1.1,0.4,1.7c0.1,0.7,0.1,1.4-0.1,2
					c0,0.2-0.1,0.5-0.3,0.7c0.1-0.1,0-0.1-0.2-0.1c-0.4-0.1-0.6-0.5-0.6-0.9C232.8,182.1,231.5,183.1,231.6,183.6L231.6,183.6z"/>
				<path class="st7" d="M231.2,177.5c0.5,3.9,0.4,8,0,11.8c-0.1,0.7,1.3-0.2,1.3-0.7c0.4-4,0.5-8.1-0.1-12.1
					C232.5,175.9,231.1,176.9,231.2,177.5L231.2,177.5z"/>
			</g>
			<path class="st7" d="M218.3,177.4c-1.6,0.1-2.2,2.1-2.4,3.5c-0.1,1.1-0.1,4,1.5,4.2c1.7,0.1,2.4-2.2,2.6-3.5c0.1-1.1,0-4-1.6-4.2
				c-0.6-0.1-1.5,1.3-1,1.3c0.9,0.1,1.1,1.4,1.2,2.1c0.1,0.6,0.1,1.2,0,1.7c0,0.2-0.1,0.5-0.1,0.7c0,0.2-0.3,0.6-0.1,0.5
				c-0.8,0.4-1.1-1.6-1.2-2c-0.1-0.6,0-1.2,0-1.7c0-0.3,0.1-0.6,0.2-0.9c0.1-0.3,0.2-0.3,0.1-0.3
				C218.1,178.7,219.1,177.3,218.3,177.4z"/>
			<path class="st7" d="M195.8,178.3c-0.6,1.8-0.7,4.4-0.1,6.2c0.6,2,3.7-1.5,4.1-2.2c0.5-1-0.8-0.4-1.1,0.1
				c-0.1,0.2-1.2,1.6-1.6,1.3c-0.3-0.2-0.3-1.2-0.3-1.6c-0.1-1.4-0.1-3,0.3-4.3C197.4,176.9,196,177.8,195.8,178.3L195.8,178.3z"/>
			<path class="st7" d="M191.5,183.1c0.6-0.2,1.8-0.8,2.1,0.1c0.3,0.8-0.5,0.5-0.9,0.1c-1-1.3-0.4-4.1,0-5.5c0.3-1-1.2-0.1-1.3,0.4
				c-0.4,1.5-1.4,7.9,1.9,6.8c1-0.4,1.8-1.5,1.8-2.5c-0.1-1.6-2.2-1.1-3.1-0.7c-0.4,0.2-0.7,0.5-0.9,0.9
				C190.9,182.9,191.1,183.2,191.5,183.1L191.5,183.1z"/>
			<g>
				<path class="st7" d="M225.9,183.5c-0.7,0.7-1-2.1-1-2.3c-0.1-1.2,0-2.4,0-3.6c0-0.8-1.3,0.2-1.3,0.7c-0.1,1-0.1,2.1-0.2,3.1
					c0,0.5-0.1,1.1-0.2,1.6c-0.1,0.6-0.1,0.8-0.6,0.4c-1.3-0.9-0.6-4.3-0.2-5.5c0.2-0.9-1.1-0.1-1.3,0.4c-0.3,1.2-1.4,6.9,1.2,6.6
					c3-0.3,2.5-5.4,2.6-7.4c-0.4,0.2-0.9,0.5-1.3,0.7c-0.1,1.8-0.3,3.8,0.3,5.6c0.5,1.5,1.8,1,2.7,0.1
					C227.2,183.4,226.6,182.8,225.9,183.5L225.9,183.5z"/>
				<path class="st7" d="M226.2,183.3c-1.2,0.7-3.4,2.4-2.5,4c0.3,0.6,1.6-0.5,1.3-1c-0.3-0.5-0.1-0.9,0.3-1.3
					c0.2-0.2,0.4-0.3,0.6-0.4c0,0,0.1-0.1,0.1-0.1c-0.1,0.1-0.1,0.1,0,0c0,0,0.1,0,0.1-0.1c0.3-0.2,0.7-0.5,0.7-0.9
					C226.9,183.1,226.4,183.1,226.2,183.3L226.2,183.3z"/>
			</g>
			<path class="st7" d="M217.5,178.6c1.3,1.5,2.9,0.9,4.3,0c0.7-0.4,0.7-1.5-0.3-0.9c-1.1,0.7-2,0.8-2.9-0.3
				C218.3,177,217.1,178.2,217.5,178.6L217.5,178.6z"/>
		</g>
	</g>
</g>
<g id="doma">
</g>
<g id="butylka_3">
</g>
<g id="butylka_2">
</g>
<g id="butylka_1">
</g>
<g id="vanna_2">
</g>
<g id="sneg">
</g>
<g id="vanna_1">
</g>
<g id="shariki_2">
</g>
<g id="shariki_1">
</g>
<g id="voronka">
</g>
<g id="gradusnik">
</g>
<g id="kolba_2">
</g>
<g id="kolba_1">
</g>
<g id="probirki">
</g>
<g id="lupa">
</g>
<g id="zavod">
</g>
<g id="blank">
</g>
<g id="car">
</g>
</svg>
