<?xml version="1.0" encoding="utf-8"?>
<!-- Generator: Adobe Illustrator 19.0.0, SVG Export Plug-In . SVG Version: 6.00 Build 0)  -->
<svg version="1.1" xmlns="http://www.w3.org/2000/svg" xmlns:xlink="http://www.w3.org/1999/xlink" x="0px" y="0px"
	 viewBox="100 10 330 232" style="enable-background:new 100 10 330 232;" xml:space="preserve">
<style type="text/css">
	.st0{fill:#9DD887;}
	.st1{fill:#FCF3E0;}
	.st2{fill:#FFFFFF;}
	.st3{fill:#EFEFEF;}
</style>
<g id="Layer_1">
	<g id="Layer_2">
	</g>
	<g id="kolba_4">
	</g>
	<rect x="139.1" y="65.1" class="st0" width="255.1" height="145.7"/>
	<g>
		<path class="st1" d="M265.2,191L181,178.7c-8.3-1.2-14.2-9-12.9-17.4l0.8-5.2c1.2-8.3,9-14.2,17.4-12.9l84.3,12.3
			c8.3,1.2,14.2,9,12.9,17.4l-0.8,5.2C281.4,186.4,273.6,192.2,265.2,191z"/>
		<path class="st2" d="M189.3,155.9L183,155c-1.4-0.2-2.4-1.6-2.2-3l0,0c0.2-1.4,1.6-2.4,3-2.2l6.3,0.9c1.4,0.2,2.4,1.6,2.2,3l0,0
			C192.1,155.1,190.7,156.1,189.3,155.9z"/>
	</g>
	<g>
		<path class="st1" d="M274.5,108.2l-83.6,16.1c-8.3,1.6-16.3-3.9-17.9-12.1l-1-5.2c-1.6-8.3,3.9-16.3,12.1-17.9L267.7,73
			c8.3-1.6,16.3,3.9,17.9,12.1l1,5.2C288.3,98.6,282.8,106.7,274.5,108.2z"/>
		<path class="st2" d="M191.3,100.1l-6.3,1.2c-1.4,0.3-2.8-0.7-3.1-2.1l0,0c-0.3-1.4,0.7-2.8,2.1-3.1l6.2-1.2
			c1.4-0.3,2.8,0.7,3.1,2.1l0,0C193.6,98.4,192.7,99.8,191.3,100.1z"/>
	</g>
	<g>
		<path class="st1" d="M354.8,176.9l-80-29.3c-7.9-2.9-12-11.7-9.1-19.6l1.8-5c2.9-7.9,11.7-12,19.6-9.1l80,29.3
			c7.9,2.9,12,11.7,9.1,19.6l-1.8,5C371.6,175.7,362.7,179.8,354.8,176.9z"/>
		<path class="st2" d="M287.7,127l-6-2.2c-1.4-0.5-2.1-2-1.6-3.4l0,0c0.5-1.4,2-2.1,3.4-1.6l6,2.2c1.4,0.5,2.1,2,1.6,3.4l0,0
			C290.6,126.8,289.1,127.5,287.7,127z"/>
	</g>
	<path class="st2" d="M388,213.7H144.5c-4.4,0-7.9-3.6-7.9-7.9V53.6c0-4.4,3.6-7.9,7.9-7.9H388c4.4,0,7.9,3.6,7.9,7.9v152.2
		C395.9,210.1,392.4,213.7,388,213.7z M144.5,51c-1.4,0-2.6,1.2-2.6,2.6v152.2c0,1.4,1.2,2.6,2.6,2.6H388c1.4,0,2.6-1.2,2.6-2.6
		V53.6c0-1.4-1.2-2.6-2.6-2.6H144.5z"/>
	<path class="st3" d="M401.8,46.5c0,3.2-2.6,5.7-5.7,5.7H134.9c-3.2,0-5.7-2.6-5.7-5.7l0,0c0-3.2,2.6-5.7,5.7-5.7h261.2
		C399.2,40.8,401.8,43.4,401.8,46.5L401.8,46.5z"/>
	<path class="st2" d="M166.4,116c-2.1,0-3.9-1.7-3.9-3.9c0-2.1,1.7-3.9,3.9-3.9c2.2,0,3.9,1.7,3.9,3.9S168.5,116,166.4,116z
		 M166.4,109.6c-1.4,0-2.5,1.1-2.5,2.5s1.1,2.5,2.5,2.5c1.4,0,2.5-1.1,2.5-2.5C168.9,110.8,167.8,109.6,166.4,109.6z"/>
	<path class="st2" d="M250.6,146.9c-2.1,0-3.9-1.7-3.9-3.9c0-2.1,1.7-3.9,3.9-3.9s3.9,1.7,3.9,3.9
		C254.4,145.1,252.7,146.9,250.6,146.9z M250.6,140.5c-1.4,0-2.5,1.1-2.5,2.5s1.1,2.5,2.5,2.5s2.5-1.1,2.5-2.5
		S252,140.5,250.6,140.5z"/>
	<path class="st2" d="M374.8,123.6c-1.8,0-3.2-1.4-3.2-3.2s1.4-3.2,3.2-3.2c1.8,0,3.2,1.5,3.2,3.2S376.6,123.6,374.8,123.6z
		 M374.8,118.4c-1,0-1.9,0.9-1.9,1.9s0.9,1.9,1.9,1.9s1.9-0.9,1.9-1.9C376.7,119.3,375.8,118.4,374.8,118.4z"/>
	<path class="st2" d="M372.2,87.7c-1.8,0-3.2-1.4-3.2-3.2s1.4-3.2,3.2-3.2c1.8,0,3.2,1.5,3.2,3.2S374,87.7,372.2,87.7z M372.2,82.6
		c-1,0-1.9,0.9-1.9,1.9s0.9,1.9,1.9,1.9s1.9-0.9,1.9-1.9C374.1,83.4,373.3,82.6,372.2,82.6z"/>
	<path class="st2" d="M374.7,97.5c-1.8,0-3.2-1.5-3.2-3.2s1.4-3.2,3.2-3.2c1.8,0,3.2,1.5,3.2,3.2S376.5,97.5,374.7,97.5z
		 M374.7,92.4c-1,0-1.9,0.9-1.9,1.9s0.9,1.9,1.9,1.9s1.9-0.9,1.9-1.9C376.6,93.2,375.7,92.4,374.7,92.4z"/>
	<path class="st2" d="M296.6,188.2c-1.8,0-3.2-1.5-3.2-3.2c0-1.8,1.4-3.2,3.2-3.2s3.2,1.4,3.2,3.2
		C299.9,186.8,298.4,188.2,296.6,188.2z M296.6,183.1c-1,0-1.9,0.9-1.9,1.9s0.9,1.9,1.9,1.9s1.9-0.9,1.9-1.9
		C298.5,183.9,297.7,183.1,296.6,183.1z"/>
	<path class="st2" d="M174.3,132.9c-1.8,0-3.2-1.4-3.2-3.2c0-1.8,1.4-3.2,3.2-3.2s3.2,1.5,3.2,3.2
		C177.5,131.4,176.1,132.9,174.3,132.9z M174.3,127.8c-1,0-1.9,0.9-1.9,1.9s0.9,1.9,1.9,1.9s1.9-0.9,1.9-1.9
		C176.2,128.6,175.3,127.8,174.3,127.8z"/>
	<path class="st2" d="M161.8,199.3c-1.8,0-3.2-1.5-3.2-3.2c0-1.8,1.4-3.2,3.2-3.2s3.2,1.5,3.2,3.2
		C165.1,197.8,163.6,199.3,161.8,199.3z M161.8,194.2c-1,0-1.9,0.9-1.9,1.9s0.9,1.9,1.9,1.9s1.9-0.9,1.9-1.9
		S162.9,194.2,161.8,194.2z"/>
	<path class="st2" d="M207,83.8c-1.8,0-3.2-1.4-3.2-3.2s1.4-3.2,3.2-3.2c1.8,0,3.2,1.5,3.2,3.2S208.8,83.8,207,83.8z M207,78.6
		c-1,0-1.9,0.9-1.9,1.9s0.9,1.9,1.9,1.9s1.9-0.9,1.9-1.9S208.1,78.6,207,78.6z"/>
	<path class="st2" d="M356.1,196.7c-1.8,0-3.2-1.5-3.2-3.2c0-1.8,1.4-3.2,3.2-3.2c1.8,0,3.2,1.5,3.2,3.2
		C359.3,195.3,357.8,196.7,356.1,196.7z M356.1,191.6c-1,0-1.9,0.9-1.9,1.9s0.9,1.9,1.9,1.9s1.9-0.9,1.9-1.9
		S357.1,191.6,356.1,191.6z"/>
	<path class="st2" d="M163.2,131.5c-3.3,0-5.9-2.7-5.9-5.9c0-3.3,2.7-5.9,5.9-5.9c3.3,0,5.9,2.7,5.9,5.9
		C169.1,128.9,166.5,131.5,163.2,131.5z M163.2,121c-2.5,0-4.6,2.1-4.6,4.6c0,2.5,2.1,4.6,4.6,4.6s4.6-2.1,4.6-4.6
		C167.8,123.1,165.7,121,163.2,121z"/>
	<path class="st2" d="M366.5,109.8c-3.3,0-5.9-2.7-5.9-5.9c0-3.3,2.7-5.9,5.9-5.9c3.3,0,5.9,2.7,5.9,5.9
		C372.4,107.1,369.8,109.8,366.5,109.8z M366.5,99.2c-2.5,0-4.6,2.1-4.6,4.6s2.1,4.6,4.6,4.6s4.6-2.1,4.6-4.6
		C371.1,101.3,369,99.2,366.5,99.2z"/>
	<path class="st2" d="M156.7,87.9H155c-1.4,0-2.6-1.2-2.6-2.6V63.6c0-1.4,1.2-2.6,2.6-2.6h1.7c1.4,0,2.6,1.2,2.6,2.6v21.6
		C159.3,86.7,158.1,87.9,156.7,87.9z"/>
	<g id="doma">
	</g>
	<g id="butylka_3">
	</g>
	<g id="butylka_2">
	</g>
	<g id="butylka_1">
	</g>
	<g id="vanna_2">
	</g>
	<g id="sneg">
	</g>
	<g id="vanna_1">
	</g>
	<g id="shariki_2">
	</g>
	<g id="shariki_1">
	</g>
	<g id="voronka">
	</g>
	<g id="gradusnik">
	</g>
	<g id="kolba_2">
	</g>
	<g id="kolba_1">
	</g>
	<g id="probirki">
	</g>
	<g id="lupa">
	</g>
	<g id="zavod">
	</g>
	<g id="blank">
	</g>
	<g id="car">
	</g>
	<g id="Layer_2_1_">
	</g>
	<g id="Layer_3">
	</g>
</g>
<g id="cheese">
</g>
</svg>
