<?xml version="1.0" encoding="utf-8"?>
<!-- Generator: Adobe Illustrator 19.0.0, SVG Export Plug-In . SVG Version: 6.00 Build 0)  -->
<svg version="1.1" xmlns="http://www.w3.org/2000/svg" xmlns:xlink="http://www.w3.org/1999/xlink" x="0px" y="0px"
	 viewBox="0 0 152 172.4" style="enable-background:new 0 0 152 172.4;" xml:space="preserve">
<style type="text/css">
	.st0{fill:#519E38;}
	.st1{fill:#BAE4E8;}
	.st2{fill:#A1D1D3;}
	.st3{fill:#7DB5B5;}
	.st4{fill:#FFFFFF;}
	.st5{fill:#EAEAEA;}
	.st6{fill:#0E3656;}
	.st7{fill:#62BA47;}
	.st8{fill:#446666;}
</style>
<g id="test-tubes">
	<g id="XMLID_101_">
		<g id="XMLID_29_">
			<path id="XMLID_74_" class="st0" d="M40.6,10.3H8.8c-0.8,0-1.5,0.7-1.5,1.5c0,0.8,0.7,1.5,1.5,1.5h5.6V144
				c0,5.8,4.7,10.5,10.5,10.5c5.8,0,10.5-4.7,10.5-10.5V13.4h5.2c0.8,0,1.5-0.7,1.5-1.5C42.1,11,41.4,10.3,40.6,10.3z"/>
			<path id="XMLID_73_" class="st0" d="M74.2,37H48.5c-0.7,0-1.2,0.6-1.2,1.2s0.6,1.2,1.2,1.2H53v105.6c0,4.7,3.8,8.5,8.5,8.5
				c4.7,0,8.5-3.8,8.5-8.5V39.5h4.2c0.7,0,1.2-0.5,1.2-1.2S74.8,37,74.2,37z"/>
			<path id="XMLID_72_" class="st0" d="M108.2,45.4H84.3c-0.6,0-1.1,0.5-1.1,1.1c0,0.6,0.5,1.1,1.1,1.1h4.2v98.1
				c0,4.4,3.5,7.9,7.9,7.9c4.3,0,7.9-3.5,7.9-7.9V47.7h3.9c0.6,0,1.1-0.5,1.1-1.1C109.3,45.9,108.8,45.4,108.2,45.4z"/>
			<path id="XMLID_71_" class="st1" d="M50.3,38v105.4c0,4.7,3.8,8.5,8.5,8.5c4.7,0,8.5-3.8,8.5-8.5V38H50.3z"/>
			<path id="XMLID_70_" class="st2" d="M58.8,38v113.9c4.7,0,8.5-3.8,8.5-8.5V38H58.8z"/>
			<path id="XMLID_69_" class="st3" d="M72.7,36.7c0,0.7-0.5,1.2-1.2,1.2H45.8c-0.7,0-1.2-0.5-1.2-1.2l0,0c0-0.7,0.5-1.2,1.2-1.2
				h25.7C72.2,35.5,72.7,36.1,72.7,36.7L72.7,36.7z"/>
			<path id="XMLID_68_" class="st4" d="M53,69.9v72.6c0,3.2,2.6,5.8,5.8,5.8c3.2,0,5.8-2.6,5.8-5.8V69.9H53z"/>
			<path id="XMLID_67_" class="st5" d="M58.8,69.9v78.4c3.2,0,5.8-2.6,5.8-5.8V69.9H58.8z"/>
			<path id="XMLID_66_" class="st1" d="M85.5,45.7V144c0,4.4,3.5,7.9,7.9,7.9c4.4,0,7.9-3.5,7.9-7.9V45.7H85.5z"/>
			<path id="XMLID_65_" class="st2" d="M93.4,45.7v106.2c4.4,0,7.9-3.5,7.9-7.9V45.7H93.4z"/>
			<path id="XMLID_64_" class="st3" d="M106.3,44.5c0,0.6-0.5,1.1-1.1,1.1H81.3c-0.6,0-1.1-0.5-1.1-1.1l0,0c0-0.6,0.5-1.1,1.1-1.1
				h23.9C105.8,43.4,106.3,43.9,106.3,44.5L106.3,44.5z"/>
			<path id="XMLID_63_" class="st4" d="M87.7,73.4v70.2c0,3.1,2.5,5.6,5.6,5.6c3.1,0,5.6-2.5,5.6-5.6V73.4H87.7z"/>
			<path id="XMLID_62_" class="st5" d="M93.4,73.4v75.9c3.1,0,5.6-2.5,5.6-5.6V73.4H93.4z"/>
			<path id="XMLID_61_" class="st1" d="M10.8,10.8v130.6c0,5.8,4.7,10.5,10.5,10.5c5.8,0,10.5-4.7,10.5-10.5V10.8H10.8z"/>
			<path id="XMLID_60_" class="st2" d="M21.3,10.8v141.1c5.8,0,10.5-4.7,10.5-10.5V10.8H21.3z"/>
			<path id="XMLID_58_" class="st4" d="M13.5,44v97.2c0,4.3,3.5,7.8,7.8,7.8c4.3,0,7.8-3.5,7.8-7.8V44H13.5z"/>
			<path id="XMLID_57_" class="st5" d="M21.3,44v105.3c4.3,0,7.8-3.5,7.8-7.8V44H21.3z"/>
		</g>
		<path id="XMLID_59_" class="st3" d="M38.5,9.2c0,0.8-0.7,1.5-1.5,1.5H5.2c-0.8,0-1.5-0.7-1.5-1.5l0,0c0-0.8,0.7-1.5,1.5-1.5H37
			C37.8,7.7,38.5,8.4,38.5,9.2L38.5,9.2z"/>
	</g>
</g>
<g id="glass">
	<g id="XMLID_30_">
		<g id="XMLID_52_">
			<g id="XMLID_53_">
				<g id="XMLID_54_">
					<g id="XMLID_55_">
						<circle id="XMLID_56_" class="st6" cx="97.6" cy="99.6" r="22.1"/>
					</g>
				</g>
			</g>
		</g>
		<g id="XMLID_47_">
			<g id="XMLID_48_">
				<g id="XMLID_49_">
					<g id="XMLID_50_">
						<path id="XMLID_51_" class="st7" d="M85.9,87.8C89,84.7,93.2,83,97.6,83c4.4,0,8.6,1.7,11.7,4.9c3.1,3.1,4.9,7.3,4.9,11.7
							c0,4.4-1.7,8.6-4.9,11.7c-3.1,3.1-7.3,4.9-11.7,4.9c-4.4,0-8.6-1.7-11.7-4.9c-3.1-3.1-4.9-7.3-4.9-11.7
							C81,95.1,82.7,91,85.9,87.8L85.9,87.8z"/>
					</g>
				</g>
			</g>
		</g>
		<g id="XMLID_42_">
			<g id="XMLID_43_">
				<g id="XMLID_44_">
					<g id="XMLID_45_">
						
							<rect id="XMLID_46_" x="118.3" y="112" transform="matrix(0.7071 -0.7071 0.7071 0.7071 -51.5317 121.6166)" class="st8" width="5.5" height="22.1"/>
					</g>
				</g>
			</g>
		</g>
		<g id="XMLID_37_">
			<g id="XMLID_38_">
				<g id="XMLID_39_">
					<g id="XMLID_40_">
						
							<rect id="XMLID_41_" x="123.3" y="116.1" transform="matrix(0.7071 -0.7071 0.7071 0.7071 -54.7707 129.4467)" class="st6" width="11.1" height="29.5"/>
					</g>
				</g>
			</g>
		</g>
		<g id="XMLID_31_">
			<g id="XMLID_32_">
				<g id="XMLID_33_">
					<g id="XMLID_34_">
						<g id="XMLID_35_">
							<path id="XMLID_36_" class="st4" d="M93,108c-1.1,1.1-2.8,1.1-3.9,0c-2.3-2.3-3.5-5.3-3.5-8.5c0-3.2,1.2-6.2,3.5-8.5
								c1.1-1.1,2.8-1.1,3.9,0c1.1,1.1,1.1,2.8,0,3.9c-1.2,1.2-1.9,2.8-1.9,4.6c0,1.7,0.7,3.3,1.9,4.6C94.1,105.2,94.1,106.9,93,108
								z"/>
						</g>
					</g>
				</g>
			</g>
		</g>
	</g>
</g>
</svg>
