<?xml version="1.0" encoding="utf-8"?>
<!-- Generator: Adobe Illustrator 19.0.0, SVG Export Plug-In . SVG Version: 6.00 Build 0)  -->
<svg version="1.1" xmlns="http://www.w3.org/2000/svg" xmlns:xlink="http://www.w3.org/1999/xlink" x="0px" y="0px"
	 viewBox="0 0 266 243" style="enable-background:new 0 0 266 243;" xml:space="preserve">
<style type="text/css">
	.st0{fill:#519E38;}
	.st1{fill:#F9F5DC;}
	.st2{fill:#FFFFFF;}
	.st3{fill:url(#SVGID_1_);}
	.st4{fill:url(#SVGID_2_);}
	.st5{fill:url(#SVGID_3_);}
	.st6{fill:url(#SVGID_4_);}
	.st7{fill:url(#SVGID_5_);}
</style>
<g id="lupa">
	<g>
		<path class="st0" d="M215,117.4c7.7-21.6-3.1-45.5-24.5-54.1s-45.7,1.6-54.9,22.5l0,0l-1.3,3.3l0,0c-0.7,1.8,0.2,3.9,2,4.6
			l73,28.9c1.8,0.7,3.9-0.2,4.6-2l0,0L215,117.4L215,117.4z"/>
		<circle class="st0" cx="138.3" cy="78.9" r="5.7"/>
		<circle class="st0" cx="144.9" cy="70.6" r="5.7"/>
		<circle class="st0" cx="154.1" cy="64.8" r="5.7"/>
		<circle class="st0" cx="164.4" cy="61" r="5.7"/>
		<circle class="st0" cx="175" cy="59.9" r="5.7"/>
		<circle class="st0" cx="185.9" cy="61.5" r="5.7"/>
		<circle class="st0" cx="196.2" cy="66.3" r="5.7"/>
		<circle class="st0" cx="205.3" cy="72.9" r="5.7"/>
		<circle class="st0" cx="211.6" cy="81.5" r="5.7"/>
		<circle class="st0" cx="216.3" cy="90.9" r="5.7"/>
		<circle class="st0" cx="217.3" cy="101.4" r="5.7"/>
		<circle class="st0" cx="217.1" cy="112.3" r="5.7"/>
	</g>
	<g>
		<path class="st0" d="M215.3,193.7c0.6-22.9-17-42.4-40-43.8s-43,15.6-45.3,38.4l0,0l-0.2,3.5l0,0c-0.1,1.9,1.4,3.6,3.3,3.7l78.3,5
			c1.9,0.1,3.6-1.4,3.7-3.3v0L215.3,193.7L215.3,193.7z"/>
		<circle class="st0" cx="130.4" cy="180.8" r="5.7"/>
		<circle class="st0" cx="134.2" cy="170.8" r="5.7"/>
		<circle class="st0" cx="141.1" cy="162.4" r="5.7"/>
		<circle class="st0" cx="149.7" cy="155.7" r="5.7"/>
		<circle class="st0" cx="159.5" cy="151.4" r="5.7"/>
		<circle class="st0" cx="170.4" cy="149.5" r="5.7"/>
		<circle class="st0" cx="181.6" cy="150.9" r="5.7"/>
		<circle class="st0" cx="192.3" cy="154.4" r="5.7"/>
		<circle class="st0" cx="200.9" cy="160.6" r="5.7"/>
		<circle class="st0" cx="208.3" cy="168.1" r="5.7"/>
		<circle class="st0" cx="212.5" cy="177.8" r="5.7"/>
		<circle class="st0" cx="215.7" cy="188.2" r="5.7"/>
	</g>
	<g>
		<path class="st0" d="M120.9,121.1c-15.8-16.5-42.1-17.7-59.3-2.4s-19.1,41.5-4.5,59.2l0,0l2.3,2.6l0,0c1.3,1.4,3.5,1.6,5,0.3
			l58.7-52.2c1.4-1.3,1.6-3.5,0.3-5l0,0L120.9,121.1L120.9,121.1z"/>
		<circle class="st0" cx="52" cy="172.4" r="5.7"/>
		<circle class="st0" cx="47.6" cy="162.7" r="5.7"/>
		<circle class="st0" cx="46.5" cy="151.9" r="5.7"/>
		<circle class="st0" cx="47.7" cy="141" r="5.7"/>
		<circle class="st0" cx="51.6" cy="131.1" r="5.7"/>
		<circle class="st0" cx="57.9" cy="122" r="5.7"/>
		<circle class="st0" cx="66.8" cy="115" r="5.7"/>
		<circle class="st0" cx="76.8" cy="109.8" r="5.7"/>
		<circle class="st0" cx="87.3" cy="108.1" r="5.7"/>
		<circle class="st0" cx="97.8" cy="108.1" r="5.7"/>
		<circle class="st0" cx="107.6" cy="111.9" r="5.7"/>
		<circle class="st0" cx="117.3" cy="117" r="5.7"/>
	</g>
	<g>
		<path class="st1" d="M113.7,117.6c-15.8-16.5-42.1-17.7-59.3-2.3s-19.1,41.5-4.5,59.2l0,0l2.3,2.6l0,0c1.3,1.4,3.5,1.6,5,0.3
			l58.6-52.2c1.4-1.3,1.6-3.5,0.3-5l0,0L113.7,117.6L113.7,117.6z"/>
		<circle class="st1" cx="44.9" cy="168.9" r="5.7"/>
		<circle class="st1" cx="40.4" cy="159.2" r="5.7"/>
		<circle class="st1" cx="39.3" cy="148.4" r="5.7"/>
		<circle class="st1" cx="40.5" cy="137.5" r="5.7"/>
		<circle class="st1" cx="44.4" cy="127.6" r="5.7"/>
		<circle class="st1" cx="50.7" cy="118.5" r="5.7"/>
		<circle class="st1" cx="59.6" cy="111.5" r="5.7"/>
		<circle class="st1" cx="69.6" cy="106.3" r="5.7"/>
		<circle class="st1" cx="80.1" cy="104.6" r="5.7"/>
		<circle class="st1" cx="90.6" cy="104.6" r="5.7"/>
		<circle class="st1" cx="100.4" cy="108.4" r="5.7"/>
		<circle class="st1" cx="110.1" cy="113.5" r="5.7"/>
	</g>
	<g>
		<path class="st1" d="M204.1,185.6c0.6-22.9-17-42.4-40-43.8c-23-1.5-43,15.6-45.3,38.4l0,0l-0.2,3.5l0,0c-0.1,1.9,1.4,3.6,3.3,3.7
			l78.3,5c1.9,0.1,3.6-1.4,3.7-3.3l0,0L204.1,185.6L204.1,185.6z"/>
		<circle class="st1" cx="119.2" cy="172.7" r="5.7"/>
		<circle class="st1" cx="123" cy="162.7" r="5.7"/>
		<circle class="st1" cx="129.9" cy="154.4" r="5.7"/>
		<circle class="st1" cx="138.5" cy="147.6" r="5.7"/>
		<circle class="st1" cx="148.3" cy="143.3" r="5.7"/>
		<circle class="st1" cx="159.2" cy="141.5" r="5.7"/>
		<circle class="st1" cx="170.4" cy="142.9" r="5.7"/>
		<circle class="st1" cx="181.1" cy="146.3" r="5.7"/>
		<circle class="st1" cx="189.7" cy="152.6" r="5.7"/>
		<circle class="st1" cx="197.1" cy="160.1" r="5.7"/>
		<circle class="st1" cx="201.3" cy="169.7" r="5.7"/>
		<circle class="st1" cx="204.5" cy="180.2" r="5.7"/>
	</g>
	<g>
		<path class="st1" d="M208.3,110.2c7.7-21.6-3.1-45.5-24.5-54.1s-45.7,1.6-54.9,22.5l0,0l-1.3,3.3l0,0c-0.7,1.8,0.2,3.9,2,4.6
			l73,28.9c1.8,0.7,3.9-0.2,4.6-2l0,0L208.3,110.2L208.3,110.2z"/>
		<circle class="st1" cx="131.5" cy="71.8" r="5.7"/>
		<circle class="st1" cx="138.2" cy="63.4" r="5.7"/>
		<circle class="st1" cx="147.4" cy="57.6" r="5.7"/>
		<circle class="st1" cx="157.6" cy="53.8" r="5.7"/>
		<circle class="st1" cx="168.2" cy="52.8" r="5.7"/>
		<circle class="st1" cx="179.2" cy="54.4" r="5.7"/>
		<circle class="st1" cx="189.4" cy="59.1" r="5.7"/>
		<circle class="st1" cx="198.5" cy="65.7" r="5.7"/>
		<circle class="st1" cx="204.8" cy="74.3" r="5.7"/>
		<circle class="st1" cx="209.5" cy="83.8" r="5.7"/>
		<circle class="st1" cx="210.5" cy="94.2" r="5.7"/>
		<circle class="st1" cx="210.3" cy="105.1" r="5.7"/>
	</g>
</g>
<g id="snow">
	<g>
		<circle class="st2" cx="248" cy="93.5" r="1.5"/>
		<g>
			<linearGradient id="SVGID_1_" gradientUnits="userSpaceOnUse" x1="222.4681" y1="52.9157" x2="238.4555" y2="98.2135">
				<stop  offset="0" style="stop-color:#404B71"/>
				<stop  offset="0.6044" style="stop-color:#3C476E"/>
				<stop  offset="1" style="stop-color:#354169"/>
			</linearGradient>
			<path class="st3" d="M226,93.9l-1.7-6.4l1.6-2.7l0.2,0.8c0.2,0.8,1.1,1.3,1.9,1.1c0.1,0,0.3-0.1,0.4-0.2c0.6-0.3,0.9-1.1,0.7-1.8
				l-1-3.9l1.9-3.3l1.9,3.3l-1,3.9c-0.2,0.8,0.3,1.7,1.1,1.9c0.4,0.1,0.9,0,1.2-0.2c0.4-0.2,0.6-0.5,0.7-1l0.2-0.8l1.6,2.7l-1.7,6.4
				c-0.2,0.8,0.3,1.7,1.1,1.9c0.4,0.1,0.9,0,1.2-0.2c0.4-0.2,0.6-0.5,0.7-1l0.9-3.3l2.5,4.4c0.4,0.8,1.4,1,2.2,0.6
				c0.8-0.4,1-1.4,0.6-2.2l-2.5-4.4l3.3,0.9c0.4,0.1,0.9,0,1.2-0.2c0.4-0.2,0.6-0.5,0.7-1c0.2-0.8-0.3-1.7-1.1-1.9l-6.4-1.7
				l-1.6-2.7l0.8,0.2c0.4,0.1,0.9,0,1.2-0.2c0.4-0.2,0.6-0.5,0.7-1c0.2-0.8-0.3-1.7-1.1-1.9l-3.8-1l-1.9-3.3h3.8l2.8,2.8
				c0.5,0.5,1.3,0.6,1.9,0.3c0.1-0.1,0.2-0.2,0.3-0.3c0.6-0.6,0.6-1.6,0-2.2l-0.6-0.6l3.1,0l4.7,4.7c0.5,0.5,1.3,0.6,1.9,0.3
				c0.1-0.1,0.2-0.2,0.3-0.3c0.6-0.6,0.6-1.6,0-2.2l-2.4-2.4l5,0c0.3,0,0.6-0.1,0.8-0.2c0.5-0.3,0.8-0.8,0.8-1.4
				c0-0.9-0.7-1.6-1.6-1.6h-5l2.4-2.4c0.6-0.6,0.6-1.6,0-2.2c-0.6-0.6-1.6-0.6-2.2,0l-4.7,4.7h-3.1l0.6-0.6c0.6-0.6,0.6-1.6,0-2.2
				c-0.6-0.6-1.6-0.6-2.2,0l-2.8,2.8h-3.8l1.9-3.3l3.9-1c0.1,0,0.3-0.1,0.4-0.2c0.6-0.3,0.9-1.1,0.7-1.8c-0.2-0.8-1.1-1.3-1.9-1.1
				l-0.8,0.2l1.6-2.7l6.4-1.7c0.1,0,0.3-0.1,0.4-0.2c0.6-0.4,0.9-1.1,0.7-1.8c-0.2-0.8-1.1-1.3-1.9-1.1l-3.3,0.9l2.5-4.4
				c0.4-0.8,0.2-1.7-0.6-2.2c-0.8-0.4-1.7-0.2-2.2,0.6l-2.5,4.4l-0.9-3.3c-0.2-0.8-1.1-1.3-1.9-1.1c-0.8,0.2-1.4,1.1-1.1,1.9
				l1.7,6.4l-1.6,2.7l-0.2-0.8c-0.2-0.8-1.1-1.3-1.9-1.1c-0.8,0.2-1.3,1.1-1.1,1.9l1,3.9l-1.9,3.3l-1.9-3.3l1-3.9
				c0.2-0.8-0.3-1.7-1.1-1.9c-0.8-0.2-1.7,0.3-1.9,1.1l-0.2,0.8l-1.6-2.7l1.7-6.4c0.2-0.8-0.3-1.7-1.1-1.9c-0.8-0.2-1.7,0.3-1.9,1.1
				l-0.9,3.3l-2.5-4.4c-0.4-0.8-1.4-1-2.2-0.6c-0.8,0.4-1,1.4-0.6,2.2l2.5,4.4l-3.3-0.9c-0.8-0.2-1.7,0.3-1.9,1.1
				c-0.2,0.8,0.3,1.7,1.1,1.9l6.4,1.7l1.6,2.7l-0.8-0.2c-0.8-0.2-1.7,0.3-1.9,1.1c-0.2,0.8,0.3,1.7,1.1,1.9l3.8,1l1.9,3.3h-3.8
				l-2.8-2.8c-0.6-0.6-1.6-0.6-2.2,0c-0.6,0.6-0.6,1.6,0,2.2l0.6,0.6h-3.1l-4.7-4.7c-0.6-0.6-1.6-0.6-2.2,0c-0.6,0.6-0.6,1.6,0,2.2
				l2.4,2.4h-5c-0.9,0-1.6,0.7-1.6,1.6c0,0.9,0.7,1.6,1.6,1.6l5,0l-2.4,2.4c-0.6,0.6-0.6,1.6,0,2.2c0.5,0.5,1.3,0.6,1.9,0.3
				c0.1-0.1,0.2-0.2,0.3-0.3l4.7-4.7h3.1l-0.6,0.6c-0.6,0.6-0.6,1.6,0,2.2c0.5,0.5,1.3,0.6,1.9,0.3c0.1-0.1,0.2-0.2,0.3-0.3l2.8-2.8
				h3.8l-1.9,3.3l-3.9,1c-0.8,0.2-1.3,1.1-1.1,1.9c0.2,0.8,1.1,1.3,1.9,1.1l0.8-0.2l-1.6,2.7l-6.4,1.7c-0.8,0.2-1.3,1.1-1.1,1.9
				c0.2,0.8,1.1,1.3,1.9,1.1l3.3-0.9l-2.5,4.4c-0.4,0.8-0.2,1.7,0.6,2.2c0.5,0.3,1.1,0.3,1.6,0c0.2-0.1,0.4-0.3,0.6-0.6l2.5-4.4
				l0.9,3.3c0.2,0.8,1.1,1.3,1.9,1.1c0.1,0,0.3-0.1,0.4-0.2C225.9,95.3,226.2,94.6,226,93.9z"/>
			<linearGradient id="SVGID_2_" gradientUnits="userSpaceOnUse" x1="103.8508" y1="116.7345" x2="108.6846" y2="130.4302">
				<stop  offset="0" style="stop-color:#404B71"/>
				<stop  offset="0.6044" style="stop-color:#3C476E"/>
				<stop  offset="1" style="stop-color:#354169"/>
			</linearGradient>
			<path class="st4" d="M104.9,129.1l-0.5-1.9l0.5-0.8l0.1,0.2c0.1,0.3,0.3,0.4,0.6,0.3c0,0,0.1,0,0.1,0c0.2-0.1,0.3-0.3,0.2-0.5
				l-0.3-1.2l0.6-1l0.6,1l-0.3,1.2c-0.1,0.3,0.1,0.5,0.3,0.6c0.1,0,0.3,0,0.4,0c0.1-0.1,0.2-0.2,0.2-0.3l0.1-0.2l0.5,0.8l-0.5,1.9
				c-0.1,0.3,0.1,0.5,0.3,0.6c0.1,0,0.3,0,0.4,0c0.1-0.1,0.2-0.2,0.2-0.3l0.3-1l0.8,1.3c0.1,0.2,0.4,0.3,0.7,0.2
				c0.2-0.1,0.3-0.4,0.2-0.7l-0.8-1.3l1,0.3c0.1,0,0.3,0,0.4,0c0.1-0.1,0.2-0.2,0.2-0.3c0.1-0.3-0.1-0.5-0.3-0.6l-1.9-0.5l-0.5-0.8
				l0.2,0.1c0.1,0,0.3,0,0.4,0c0.1-0.1,0.2-0.2,0.2-0.3c0.1-0.3-0.1-0.5-0.3-0.6l-1.2-0.3l-0.6-1h1.2l0.9,0.9
				c0.2,0.2,0.4,0.2,0.6,0.1c0,0,0.1,0,0.1-0.1c0.2-0.2,0.2-0.5,0-0.7l-0.2-0.2h0.9l1.4,1.4c0.2,0.2,0.4,0.2,0.6,0.1
				c0,0,0.1,0,0.1-0.1c0.2-0.2,0.2-0.5,0-0.7l-0.7-0.7h1.5c0.1,0,0.2,0,0.2-0.1c0.1-0.1,0.2-0.2,0.2-0.4c0-0.3-0.2-0.5-0.5-0.5h-1.5
				l0.7-0.7c0.2-0.2,0.2-0.5,0-0.7c-0.2-0.2-0.5-0.2-0.7,0l-1.4,1.4h-0.9l0.2-0.2c0.2-0.2,0.2-0.5,0-0.7c-0.2-0.2-0.5-0.2-0.7,0
				l-0.9,0.9H107l0.6-1l1.2-0.3c0,0,0.1,0,0.1,0c0.2-0.1,0.3-0.3,0.2-0.5c-0.1-0.3-0.3-0.4-0.6-0.3l-0.2,0.1l0.5-0.8l1.9-0.5
				c0,0,0.1,0,0.1,0c0.2-0.1,0.3-0.3,0.2-0.5c-0.1-0.3-0.3-0.4-0.6-0.3l-1,0.3l0.8-1.3c0.1-0.2,0.1-0.5-0.2-0.7
				c-0.2-0.1-0.5-0.1-0.7,0.2l-0.8,1.3l-0.3-1c-0.1-0.3-0.3-0.4-0.6-0.3c-0.3,0.1-0.4,0.3-0.3,0.6l0.5,1.9l-0.5,0.8l-0.1-0.2
				c-0.1-0.3-0.3-0.4-0.6-0.3c-0.3,0.1-0.4,0.3-0.3,0.6l0.3,1.2l-0.6,1l-0.6-1l0.3-1.2c0.1-0.3-0.1-0.5-0.3-0.6
				c-0.3-0.1-0.5,0.1-0.6,0.3l-0.1,0.2l-0.5-0.8l0.5-1.9c0.1-0.3-0.1-0.5-0.3-0.6c-0.3-0.1-0.5,0.1-0.6,0.3l-0.3,1l-0.8-1.3
				c-0.1-0.2-0.4-0.3-0.7-0.2c-0.2,0.1-0.3,0.4-0.2,0.7l0.8,1.3l-1-0.3c-0.3-0.1-0.5,0.1-0.6,0.3c-0.1,0.3,0.1,0.5,0.3,0.6l1.9,0.5
				l0.5,0.8l-0.2-0.1c-0.3-0.1-0.5,0.1-0.6,0.3c-0.1,0.3,0.1,0.5,0.3,0.6l1.2,0.3l0.6,1h-1.2l-0.9-0.9c-0.2-0.2-0.5-0.2-0.7,0
				c-0.2,0.2-0.2,0.5,0,0.7l0.2,0.2h-0.9l-1.4-1.4c-0.2-0.2-0.5-0.2-0.7,0c-0.2,0.2-0.2,0.5,0,0.7l0.7,0.7H99
				c-0.3,0-0.5,0.2-0.5,0.5c0,0.3,0.2,0.5,0.5,0.5h1.5l-0.7,0.7c-0.2,0.2-0.2,0.5,0,0.7c0.2,0.2,0.4,0.2,0.6,0.1c0,0,0.1,0,0.1-0.1
				l1.4-1.4h0.9l-0.2,0.2c-0.2,0.2-0.2,0.5,0,0.7c0.2,0.2,0.4,0.2,0.6,0.1c0,0,0.1,0,0.1-0.1l0.9-0.9h1.2l-0.6,1l-1.2,0.3
				c-0.3,0.1-0.4,0.3-0.3,0.6c0.1,0.3,0.3,0.4,0.6,0.3l0.2-0.1l-0.5,0.8l-1.9,0.5c-0.3,0.1-0.4,0.3-0.3,0.6c0.1,0.3,0.3,0.4,0.6,0.3
				l1-0.3l-0.8,1.3c-0.1,0.2-0.1,0.5,0.2,0.7c0.2,0.1,0.3,0.1,0.5,0c0.1,0,0.1-0.1,0.2-0.2l0.8-1.3l0.3,1c0.1,0.3,0.3,0.4,0.6,0.3
				c0,0,0.1,0,0.1,0C104.9,129.5,105,129.3,104.9,129.1z"/>
			<linearGradient id="SVGID_3_" gradientUnits="userSpaceOnUse" x1="38.9611" y1="141.2949" x2="49.3813" y2="170.8189">
				<stop  offset="0" style="stop-color:#404B71"/>
				<stop  offset="0.6044" style="stop-color:#3C476E"/>
				<stop  offset="1" style="stop-color:#354169"/>
			</linearGradient>
			<path class="st5" d="M41.3,168l-1.1-4.2l1-1.8l0.1,0.5c0.1,0.6,0.7,0.9,1.3,0.7c0.1,0,0.2-0.1,0.2-0.1c0.4-0.2,0.6-0.7,0.5-1.2
				l-0.7-2.5l1.2-2.2l1.2,2.2l-0.7,2.5c-0.1,0.6,0.2,1.1,0.7,1.3c0.3,0.1,0.6,0,0.8-0.1c0.2-0.1,0.4-0.4,0.5-0.6l0.1-0.5l1,1.8
				l-1.1,4.2c-0.1,0.6,0.2,1.1,0.7,1.3c0.3,0.1,0.6,0,0.8-0.1c0.2-0.1,0.4-0.4,0.5-0.6l0.6-2.2l1.6,2.8c0.3,0.5,0.9,0.7,1.4,0.4
				c0.5-0.3,0.7-0.9,0.4-1.4l-1.6-2.8l2.2,0.6c0.3,0.1,0.6,0,0.8-0.1c0.2-0.1,0.4-0.4,0.5-0.6c0.1-0.6-0.2-1.1-0.7-1.3l-4.2-1.1
				l-1-1.8l0.5,0.1c0.3,0.1,0.6,0,0.8-0.1c0.2-0.1,0.4-0.4,0.5-0.6c0.1-0.6-0.2-1.1-0.7-1.3l-2.5-0.7l-1.2-2.2h2.5l1.8,1.8
				c0.3,0.3,0.9,0.4,1.2,0.2c0.1,0,0.1-0.1,0.2-0.2c0.4-0.4,0.4-1.1,0-1.5l-0.4-0.4l2,0l3,3c0.3,0.3,0.9,0.4,1.2,0.2
				c0.1,0,0.1-0.1,0.2-0.2c0.4-0.4,0.4-1.1,0-1.5l-1.6-1.6l3.3,0c0.2,0,0.4,0,0.5-0.1c0.3-0.2,0.5-0.5,0.5-0.9c0-0.6-0.5-1-1-1h-3.3
				l1.6-1.6c0.4-0.4,0.4-1.1,0-1.5c-0.4-0.4-1.1-0.4-1.5,0l-3,3h-2l0.4-0.4c0.4-0.4,0.4-1.1,0-1.5c-0.4-0.4-1.1-0.4-1.5,0l-1.8,1.8
				h-2.5l1.2-2.2l2.5-0.7c0.1,0,0.2-0.1,0.2-0.1c0.4-0.2,0.6-0.7,0.5-1.2c-0.1-0.6-0.7-0.9-1.3-0.7l-0.5,0.1l1-1.8l4.2-1.1
				c0.1,0,0.2-0.1,0.2-0.1c0.4-0.2,0.6-0.7,0.5-1.2c-0.1-0.6-0.7-0.9-1.3-0.7l-2.2,0.6l1.6-2.8c0.3-0.5,0.1-1.1-0.4-1.4
				c-0.5-0.3-1.1-0.1-1.4,0.4l-1.6,2.8l-0.6-2.2c-0.1-0.6-0.7-0.9-1.3-0.7c-0.5,0.1-0.9,0.7-0.7,1.3l1.1,4.2l-1,1.8l-0.1-0.5
				c-0.1-0.6-0.7-0.9-1.3-0.7c-0.6,0.2-0.9,0.7-0.7,1.3l0.7,2.5l-1.2,2.2l-1.2-2.2l0.7-2.5c0.1-0.6-0.2-1.1-0.7-1.3
				c-0.6-0.1-1.1,0.2-1.3,0.7l-0.1,0.5l-1-1.8l1.1-4.2c0.1-0.6-0.2-1.1-0.7-1.3c-0.6-0.1-1.1,0.2-1.3,0.7l-0.6,2.2l-1.6-2.8
				c-0.3-0.5-0.9-0.7-1.4-0.4c-0.5,0.3-0.7,0.9-0.4,1.4l1.6,2.8l-2.2-0.6c-0.6-0.1-1.1,0.2-1.3,0.7c-0.1,0.6,0.2,1.1,0.7,1.3
				l4.2,1.1l1,1.8l-0.5-0.1c-0.6-0.1-1.1,0.2-1.3,0.7c-0.1,0.6,0.2,1.1,0.7,1.3l2.5,0.7l1.2,2.2h-2.5l-1.8-1.8
				c-0.4-0.4-1.1-0.4-1.5,0c-0.4,0.4-0.4,1.1,0,1.5l0.4,0.4h-2l-3-3c-0.4-0.4-1.1-0.4-1.5,0c-0.4,0.4-0.4,1.1,0,1.5l1.6,1.6h-3.3
				c-0.6,0-1,0.5-1,1c0,0.6,0.5,1,1,1l3.3,0l-1.6,1.6c-0.4,0.4-0.4,1.1,0,1.5c0.3,0.3,0.9,0.4,1.2,0.2c0.1,0,0.1-0.1,0.2-0.2l3-3h2
				l-0.4,0.4c-0.4,0.4-0.4,1.1,0,1.5c0.3,0.3,0.9,0.4,1.2,0.2c0.1,0,0.2-0.1,0.2-0.2l1.8-1.8h2.5l-1.2,2.2l-2.5,0.7
				c-0.5,0.2-0.9,0.7-0.7,1.3c0.1,0.6,0.7,0.9,1.3,0.7l0.5-0.1l-1,1.8l-4.2,1.1c-0.5,0.2-0.9,0.7-0.7,1.3c0.1,0.6,0.7,0.9,1.3,0.7
				l2.2-0.6l-1.6,2.8c-0.3,0.5-0.1,1.1,0.4,1.4c0.3,0.2,0.7,0.2,1,0c0.2-0.1,0.3-0.2,0.4-0.4l1.6-2.8l0.6,2.2
				c0.1,0.6,0.7,0.9,1.3,0.7c0.1,0,0.2-0.1,0.3-0.1C41.2,168.9,41.4,168.4,41.3,168z"/>
			<linearGradient id="SVGID_4_" gradientUnits="userSpaceOnUse" x1="156.0098" y1="143.6881" x2="185.108" y2="211.7903">
				<stop  offset="0" style="stop-color:#404B71"/>
				<stop  offset="0.6044" style="stop-color:#3C476E"/>
				<stop  offset="1" style="stop-color:#354169"/>
			</linearGradient>
			<path class="st6" d="M203.5,174.2l-6.3,0l3-3c0.8-0.8,0.8-2,0-2.8c-0.8-0.8-2-0.8-2.8,0l-5.9,5.9l-3.9,0l1.7-1.7
				c0.8-0.8,0.8-2,0-2.8c-0.8-0.8-2-0.8-2.8,0l-4.6,4.6h-3.8l0.1-0.1c0.8-0.8,0.8-2,0.1-2.7c-0.3-1-1.4-1.6-2.4-1.3l-0.2,0l1.9-3.3
				l6.2-1.7c0.2,0,0.3-0.1,0.5-0.2c0.8-0.4,1.2-1.4,0.9-2.2c-0.3-1.1-1.4-1.7-2.4-1.4l-2.4,0.6l2-3.4l8-2.1c0.2,0,0.3-0.1,0.5-0.2
				c0.8-0.4,1.2-1.4,0.9-2.2c-0.3-1.1-1.4-1.7-2.4-1.4l-4.2,1.1l3.2-5.5c0.6-1,0.2-2.2-0.7-2.7c-1-0.5-2.2-0.2-2.7,0.7l-3.2,5.5
				l-1.1-4.2c-0.3-1.1-1.4-1.7-2.4-1.4c-1.1,0.3-1.7,1.4-1.4,2.4l2.1,8l-2,3.4l-0.6-2.4c-0.3-1.1-1.4-1.7-2.4-1.4
				c-1.1,0.3-1.7,1.4-1.4,2.4l1.7,6.2l-1.9,3.3l0-0.2c-0.3-1-1.3-1.7-2.4-1.4c-1-0.2-2.1,0.4-2.3,1.4l0,0.2l-1.9-3.3l1.7-6.2
				c0.3-1.1-0.3-2.2-1.4-2.4c-1.1-0.3-2.2,0.3-2.4,1.4l-0.6,2.4l-2-3.4l2.1-8c0.3-1.1-0.3-2.2-1.4-2.4c-1.1-0.3-2.2,0.3-2.4,1.4
				l-1.1,4.2l-3.2-5.5c-0.5-1-1.8-1.3-2.7-0.7c-1,0.5-1.3,1.8-0.7,2.7l3.2,5.5l-4.2-1.1c-1.1-0.3-2.2,0.3-2.4,1.4
				c-0.3,1.1,0.3,2.2,1.4,2.4l8,2.1l2,3.4l-2.4-0.6c-1.1-0.3-2.2,0.3-2.4,1.4c-0.3,1.1,0.3,2.2,1.4,2.4l6.2,1.7l1.9,3.3l-0.2,0
				c-1-0.3-2,0.3-2.4,1.3c-0.8,0.8-0.8,2,0,2.8l0.1,0.1l-3.8,0l-4.6-4.6c-0.8-0.8-2-0.8-2.8,0c-0.8,0.8-0.8,2,0,2.8l1.7,1.7l-3.9,0
				l-5.9-5.9c-0.8-0.8-2-0.8-2.8,0c-0.8,0.8-0.8,2,0,2.8l3,3h-6.3c-1.1,0-2,0.9-2,2c0,1.1,0.9,2,2,2l6.3,0l-3,3
				c-0.8,0.8-0.8,2,0,2.8c0.7,0.7,1.6,0.8,2.4,0.3c0.1-0.1,0.3-0.2,0.4-0.3l5.9-5.9l3.9,0l-1.7,1.7c-0.8,0.8-0.8,2,0,2.8
				c0.7,0.7,1.6,0.8,2.4,0.3c0.1-0.1,0.3-0.2,0.4-0.3l4.6-4.6l3.8,0l-0.1,0.1c-0.8,0.8-0.8,2-0.1,2.7c0.3,1,1.4,1.6,2.4,1.3l0.2,0
				l-1.9,3.3l-6.2,1.7c-1.1,0.3-1.7,1.4-1.4,2.4c0.3,1.1,1.4,1.7,2.4,1.4l2.4-0.6l-2,3.4l-8,2.1c-1.1,0.3-1.7,1.4-1.4,2.4
				c0.3,1.1,1.4,1.7,2.4,1.4l4.2-1.1l-3.2,5.5c-0.5,1-0.2,2.2,0.7,2.7c0.6,0.4,1.4,0.3,2,0c0.3-0.2,0.5-0.4,0.7-0.7l3.2-5.5l1.1,4.2
				c0.3,1.1,1.4,1.7,2.4,1.4c0.2,0,0.3-0.1,0.5-0.2c0.8-0.4,1.2-1.3,0.9-2.2l-2.1-8l2-3.4l0.6,2.4c0.3,1.1,1.4,1.7,2.4,1.4
				c0.2,0,0.3-0.1,0.5-0.2c0.8-0.4,1.2-1.3,0.9-2.2l-1.7-6.2l1.9-3.3l0,0.2c0.3,1,1.3,1.7,2.4,1.4c0.5,0.1,1,0,1.4-0.2
				c0.4-0.3,0.8-0.7,0.9-1.2l0-0.2l1.9,3.3l-1.7,6.2c-0.3,1.1,0.3,2.2,1.4,2.4c0.5,0.1,1.1,0.1,1.5-0.2c0.4-0.3,0.8-0.7,0.9-1.2
				l0.6-2.4l2,3.4l-2.1,8c-0.3,1.1,0.3,2.2,1.4,2.4c0.5,0.1,1.1,0.1,1.5-0.2c0.4-0.3,0.8-0.7,0.9-1.2l1.1-4.2l3.2,5.5
				c0.5,1,1.8,1.3,2.7,0.7c1-0.6,1.3-1.8,0.7-2.7l-3.2-5.5l4.2,1.1c0.5,0.1,1.1,0.1,1.5-0.2c0.4-0.3,0.8-0.7,0.9-1.2
				c0.3-1.1-0.3-2.2-1.4-2.4l-8-2.1l-2-3.4l2.4,0.6c0.5,0.1,1.1,0.1,1.5-0.2c0.4-0.3,0.8-0.7,0.9-1.2c0.3-1.1-0.3-2.2-1.4-2.4
				l-6.2-1.7l-1.9-3.3l0.2,0c0.5,0.1,1.1,0.1,1.5-0.2c0.4-0.2,0.7-0.6,0.9-1.1c0.8-0.8,0.8-2,0-2.8l-0.1-0.1h3.8l4.6,4.6
				c0.7,0.7,1.6,0.8,2.4,0.3c0.1-0.1,0.3-0.2,0.4-0.3c0.8-0.8,0.8-2,0-2.8l-1.7-1.7h3.9l5.9,5.9c0.7,0.7,1.6,0.8,2.4,0.3
				c0.1-0.1,0.3-0.2,0.4-0.3c0.8-0.8,0.8-2,0-2.8l-3-3h6.3c0.4,0,0.7-0.1,1-0.3c0.6-0.3,1-1,1-1.7
				C205.5,175.1,204.6,174.2,203.5,174.2z M171.2,178.4c-1.2,0.7-2.8,0.3-3.5-0.9c-0.7-1.2-0.3-2.8,0.9-3.5c1.2-0.7,2.8-0.3,3.5,0.9
				C172.8,176.1,172.4,177.7,171.2,178.4z"/>
			<linearGradient id="SVGID_5_" gradientUnits="userSpaceOnUse" x1="115.4753" y1="59.2987" x2="127.4972" y2="87.4409">
				<stop  offset="0" style="stop-color:#404B71"/>
				<stop  offset="0.6044" style="stop-color:#3C476E"/>
				<stop  offset="1" style="stop-color:#354169"/>
			</linearGradient>
			<path class="st7" d="M137,73.7h-1l0.4-0.5c0.2-0.3,0.1-0.8-0.2-1c-0.3-0.2-0.8-0.1-1,0.2l-0.9,1.3h-1.5l2-2.8
				c0.2-0.3,0.1-0.8-0.2-1c-0.3-0.2-0.8-0.1-1,0.2l-2.6,3.7h-1.3l1.2-1.7c0.2-0.3,0.1-0.8-0.2-1c-0.3-0.2-0.8-0.1-1,0.2l-1.7,2.5
				H127l0.4-0.5c0.2-0.3,0.1-0.8-0.2-1c-0.3-0.2-0.8-0.1-1,0.2l-0.9,1.3h-0.3l-0.8-1.5l0.2-0.3l1.6-0.1c0.4,0,0.7-0.4,0.7-0.8
				c0-0.4-0.4-0.7-0.8-0.7l-0.6,0.1l0.4-0.8l3-0.3c0.4,0,0.7-0.4,0.7-0.8c0-0.4-0.4-0.7-0.8-0.7l-2,0.2l0.7-1.1l4.5-0.4
				c0.4,0,0.7-0.4,0.7-0.8c0-0.4-0.4-0.7-0.8-0.7l-3.4,0.3l0.7-1.3l1.6-0.1c0.4,0,0.7-0.4,0.7-0.8c0-0.4-0.4-0.7-0.8-0.7l-0.6,0.1
				l0.5-0.9c0.2-0.3,0.1-0.8-0.3-1c-0.3-0.2-0.8-0.1-1,0.3l-0.5,0.9l-0.3-0.6c-0.2-0.4-0.6-0.5-1-0.4c-0.4,0.2-0.5,0.6-0.4,1
				l0.7,1.5l-0.7,1.3l-1.5-3.1c-0.2-0.4-0.6-0.5-1-0.3c-0.4,0.2-0.5,0.6-0.4,1l1.9,4.1l-0.7,1.1l-0.9-1.8c-0.2-0.4-0.6-0.5-1-0.4
				c-0.4,0.2-0.5,0.6-0.4,1l1.3,2.8l-0.4,0.8l-0.3-0.6c-0.2-0.4-0.6-0.5-1-0.3c-0.4,0.2-0.5,0.6-0.4,1l0.7,1.5l-0.2,0.3h-1.7
				l-0.2-0.3l0.7-1.5c0.2-0.4,0-0.8-0.4-1c-0.4-0.2-0.8,0-1,0.3l-0.3,0.6l-0.4-0.8l1.3-2.8c0.2-0.4,0-0.8-0.4-1
				c-0.4-0.2-0.8,0-1,0.3l-0.9,1.8l-0.7-1.1l1.9-4.1c0.2-0.4,0-0.8-0.4-1c-0.4-0.2-0.8,0-1,0.4l-1.5,3.1l-0.7-1.3l0.7-1.5
				c0.2-0.4,0-0.8-0.4-1c-0.4-0.2-0.8,0-1,0.4l-0.3,0.6L115,61c-0.2-0.3-0.6-0.5-1-0.3c-0.3,0.2-0.5,0.6-0.3,1l0.5,0.9l-0.6-0.1
				c-0.4,0-0.8,0.3-0.8,0.7c0,0.4,0.3,0.8,0.7,0.8l1.6,0.1l0.7,1.3l-3.4-0.3c-0.4,0-0.8,0.3-0.8,0.7c0,0.4,0.3,0.8,0.7,0.8l4.5,0.4
				l0.7,1.1l-2-0.2c-0.4,0-0.8,0.3-0.8,0.7c0,0.4,0.3,0.8,0.7,0.8l3,0.3l0.4,0.8l-0.6-0.1c-0.4,0-0.8,0.3-0.8,0.7
				c0,0.4,0.3,0.8,0.7,0.8l1.6,0.1l0.2,0.3l-0.8,1.5h-0.3l-0.9-1.3c-0.2-0.3-0.7-0.4-1-0.2c-0.3,0.2-0.4,0.7-0.2,1l0.4,0.5H116
				l-1.7-2.5c-0.2-0.3-0.7-0.4-1-0.2c-0.3,0.2-0.4,0.7-0.2,1l1.2,1.7h-1.3l-2.6-3.7c-0.2-0.3-0.7-0.4-1-0.2c-0.3,0.2-0.4,0.7-0.2,1
				l2,2.8h-1.5l-0.9-1.3c-0.2-0.3-0.7-0.4-1-0.2c-0.3,0.2-0.4,0.7-0.2,1l0.4,0.5h-1c-0.4,0-0.7,0.3-0.7,0.7c0,0.4,0.3,0.7,0.7,0.7h1
				l-0.4,0.5c-0.2,0.3-0.1,0.8,0.2,1c0.1,0.1,0.3,0.1,0.4,0.1c0.2,0,0.5-0.1,0.6-0.3l0.9-1.3h1.5l-2,2.8c-0.2,0.3-0.1,0.8,0.2,1
				c0.1,0.1,0.3,0.1,0.4,0.1c0.2,0,0.5-0.1,0.6-0.3l2.6-3.7h1.3l-1.2,1.7c-0.2,0.3-0.1,0.8,0.2,1c0.1,0.1,0.3,0.1,0.4,0.1
				c0.2,0,0.5-0.1,0.6-0.3l1.7-2.5h0.9l-0.4,0.5c-0.2,0.3-0.1,0.8,0.2,1c0.1,0.1,0.3,0.1,0.4,0.1c0.2,0,0.5-0.1,0.6-0.3l0.9-1.3h0.3
				l0.8,1.5l-0.2,0.3L118,77c-0.4,0-0.7,0.4-0.7,0.8c0,0.4,0.4,0.7,0.7,0.7c0,0,0,0,0.1,0l0.6-0.1l-0.4,0.8l-3,0.3
				c-0.4,0-0.7,0.4-0.7,0.8c0,0.4,0.4,0.7,0.7,0.7c0,0,0,0,0.1,0l2-0.2l-0.7,1.1l-4.5,0.4c-0.4,0-0.7,0.4-0.7,0.8
				c0,0.4,0.4,0.7,0.7,0.7c0,0,0,0,0.1,0l3.4-0.3l-0.7,1.3l-1.6,0.1c-0.4,0-0.7,0.4-0.7,0.8c0,0.4,0.4,0.7,0.7,0.7c0,0,0,0,0.1,0
				l0.6-0.1l-0.5,0.9c-0.2,0.3-0.1,0.8,0.3,1c0.1,0.1,0.2,0.1,0.4,0.1c0.3,0,0.5-0.1,0.6-0.4l0.5-0.9l0.3,0.6
				c0.1,0.3,0.4,0.4,0.7,0.4c0.1,0,0.2,0,0.3-0.1c0.4-0.2,0.5-0.6,0.4-1l-0.7-1.5l0.7-1.3l1.5,3.1c0.1,0.3,0.4,0.4,0.7,0.4
				c0.1,0,0.2,0,0.3-0.1c0.4-0.2,0.5-0.6,0.4-1l-1.9-4.1l0.7-1.1l0.9,1.8c0.1,0.3,0.4,0.4,0.7,0.4c0.1,0,0.2,0,0.3-0.1
				c0.4-0.2,0.5-0.6,0.4-1l-1.3-2.8l0.4-0.8l0.3,0.6c0.1,0.3,0.4,0.4,0.7,0.4c0.1,0,0.2,0,0.3-0.1c0.4-0.2,0.5-0.6,0.4-1l-0.7-1.5
				l0.2-0.3h1.7l0.2,0.3l-0.7,1.5c-0.2,0.4,0,0.8,0.4,1c0.1,0,0.2,0.1,0.3,0.1c0.3,0,0.5-0.2,0.7-0.4l0.3-0.6l0.4,0.8l-1.3,2.8
				c-0.2,0.4,0,0.8,0.4,1c0.1,0,0.2,0.1,0.3,0.1c0.3,0,0.5-0.2,0.7-0.4l0.9-1.8l0.7,1.1l-1.9,4.1c-0.2,0.4,0,0.8,0.4,1
				c0.1,0,0.2,0.1,0.3,0.1c0.3,0,0.5-0.2,0.7-0.4l1.5-3.1l0.7,1.3l-0.7,1.5c-0.2,0.4,0,0.8,0.4,1c0.1,0,0.2,0.1,0.3,0.1
				c0.3,0,0.5-0.2,0.7-0.4l0.3-0.6l0.5,0.9c0.1,0.2,0.4,0.4,0.6,0.4c0.1,0,0.2,0,0.4-0.1c0.3-0.2,0.5-0.6,0.3-1l-0.5-0.9l0.6,0.1
				c0,0,0,0,0.1,0c0.4,0,0.7-0.3,0.7-0.7c0-0.4-0.3-0.8-0.7-0.8l-1.6-0.1l-0.7-1.3l3.4,0.3c0,0,0,0,0.1,0c0.4,0,0.7-0.3,0.7-0.7
				c0-0.4-0.3-0.8-0.7-0.8l-4.5-0.4l-0.7-1.1l2,0.2c0,0,0,0,0.1,0c0.4,0,0.7-0.3,0.7-0.7c0-0.4-0.3-0.8-0.7-0.8l-3-0.3l-0.4-0.8
				l0.6,0.1c0,0,0,0,0.1,0c0.4,0,0.7-0.3,0.7-0.7c0-0.4-0.3-0.8-0.7-0.8l-1.6-0.1l-0.2-0.3l0.8-1.5h0.3l0.9,1.3
				c0.1,0.2,0.4,0.3,0.6,0.3c0.1,0,0.3,0,0.4-0.1c0.3-0.2,0.4-0.7,0.2-1l-0.4-0.5h0.9l1.7,2.5c0.1,0.2,0.4,0.3,0.6,0.3
				c0.1,0,0.3,0,0.4-0.1c0.3-0.2,0.4-0.7,0.2-1l-1.2-1.7h1.3l2.6,3.7c0.1,0.2,0.4,0.3,0.6,0.3c0.1,0,0.3,0,0.4-0.1
				c0.3-0.2,0.4-0.7,0.2-1l-2-2.8h1.5l0.9,1.3c0.1,0.2,0.4,0.3,0.6,0.3c0.1,0,0.3,0,0.4-0.1c0.3-0.2,0.4-0.7,0.2-1l-0.4-0.5h1
				c0.4,0,0.7-0.3,0.7-0.7C137.7,74,137.4,73.7,137,73.7z M121.1,75.8l-0.8-1.5l0.8-1.5h1.7l0.8,1.5l-0.8,1.5H121.1z"/>
			<circle class="st2" cx="149.7" cy="55.7" r="3.4"/>
			<circle class="st2" cx="24" cy="120" r="3.4"/>
			<circle class="st2" cx="28.9" cy="133" r="1.5"/>
			<circle class="st2" cx="17.1" cy="140.9" r="1.5"/>
			<circle class="st2" cx="137.7" cy="52.3" r="1.5"/>
			<circle class="st2" cx="165.3" cy="88.2" r="3.8"/>
			<circle class="st2" cx="194.2" cy="211.9" r="3.8"/>
			<circle class="st2" cx="186.2" cy="98" r="2.8"/>
			<circle class="st2" cx="180.8" cy="106.5" r="1.5"/>
			<circle class="st2" cx="154.6" cy="96.5" r="1.5"/>
			<circle class="st2" cx="234.1" cy="120" r="1.5"/>
			<circle class="st2" cx="203.2" cy="98" r="1.5"/>
			<circle class="st2" cx="197.2" cy="109.5" r="1.5"/>
			<circle class="st2" cx="195.7" cy="97.9" r="1.5"/>
			<circle class="st2" cx="203.2" cy="88.2" r="1.5"/>
			<circle class="st2" cx="243.4" cy="99.5" r="1.5"/>
			<circle class="st2" cx="200.3" cy="203.4" r="1.5"/>
			<circle class="st2" cx="211.6" cy="201.9" r="1.5"/>
			<circle class="st2" cx="204.8" cy="210.4" r="1.5"/>
			<circle class="st2" cx="172.8" cy="86.7" r="1.5"/>
			<circle class="st2" cx="179.3" cy="93.5" r="1.5"/>
		</g>
	</g>
</g>
</svg>
