<?xml version="1.0" encoding="utf-8"?>
<!-- Generator: Adobe Illustrator 19.0.0, SVG Export Plug-In . SVG Version: 6.00 Build 0)  -->
<svg version="1.1" id="lupa" xmlns="http://www.w3.org/2000/svg" xmlns:xlink="http://www.w3.org/1999/xlink" x="0px" y="0px"
	 viewBox="0 0 354 223.5" style="enable-background:new 0 0 354 223.5;" xml:space="preserve">
<style type="text/css">
	.st0{fill:#519E38;}
	.st1{fill:#F4F4F4;}
	.st2{fill:#D6D6D6;}
	.st3{fill:#EAEAEA;}
	.st4{fill:#FFFFFF;}
	.st5{fill:#009373;}
	.st6{fill:#58A840;}
	.st7{fill:#DDD9A8;}
	.st8{fill:#EFEFEF;}
	.st9{fill:#DDDDDD;}
	.st10{fill:#E0E0E0;}
	.st11{fill:#342F90;}
	.st12{fill:#282271;}
	.st13{fill:#1D3805;}
	.st14{fill:#001700;}
	.st15{fill:#A11D21;}
</style>
<g>
	<path class="st0" d="M164.3,52c0.1,0,2.1,1.1,4.2,0.6c1.1-0.2,2.3-0.9,3.2-2.2c0.8-1.2,1.6-2.6,2.3-4.1c3.6-7.3,4-13.9,1.2-19.8
		c-1.5-3.2-3.6-5.1-6.4-5.8c-2-0.5-4.2-0.4-6.3,0.1c-0.7,0.2-1.5,0.4-2.2,0.6c-0.5,0.3-9.8,5.4-5.5,16.6
		C157.3,43.7,161.1,48.5,164.3,52z M157,26.3c1.5-2.2,3.5-3.4,4-3.7c0.7-0.2,1.3-0.4,2-0.5c2.2-0.5,4.1-0.5,5.7-0.1
		c2.4,0.6,4.2,2.3,5.6,5.1c2.6,5.5,2.2,11.7-1.2,18.6c-0.6,1.3-1.4,2.6-2.2,3.9c-0.7,0.9-1.5,1.5-2.4,1.7c-1.4,0.3-2.7-0.2-3.1-0.4
		c-4-4.4-7.1-8.9-9-13.4C154.5,33.2,154.8,29.5,157,26.3z"/>
	<path class="st0" d="M181.5,72.6c-0.9-4.3-2.9-8.2-5.8-11.7c-1.9-2.7,0.3-6.1,0.4-6.2l0.3-0.4l0,0c1.1-1.7,2.2-3.4,3-5.2
		c4.5-8.9,4.9-17.6,1.3-25.2c-2.3-4.8-5.8-7.9-10.4-9.1c-2.7-0.7-5.8-0.7-9.1,0c-1.5,0.3-3.1,0.8-4.6,1.4c-0.2,0.1-0.5,0.1-0.7,0.3
		c-0.8,0.3-1.6,0.7-2.4,1.1c-0.9,0.3-1.6,0.5-1.8,0.6l-15.1,3.3l-15.9,3.4l-0.8,0.2l-5.9,1.3l-1.5,0.3l0.5,1.4
		c0.4,1.1,2,3.1,5.3,2.8c0.9-0.1,3.5-0.4,6,6.2c3.9,14.3-4.8,30.6-4.9,30.7l-0.2,0.4l0,0c-3,5.8-3.9,12.2-2.5,18.3
		c1.4,6.6,5.3,12.5,11.1,16.6l0,0l1,0.7c0.2,0.2,0.5,0.3,0.7,0.4l0.2,0.2l12.5,8l0.5,0.3l0.5-0.1l12.4-2.7l12.4-2.7l0.5-0.1l0.3-0.5
		l8.1-12.4l0.2-0.3c0.1-0.2,0.2-0.3,0.3-0.5l0.8-1.2l-0.1,0C181.8,86.1,183,79.2,181.5,72.6z M120.7,68.4L120.7,68.4
		c0,0,9.1-16.7,5-31.8c-1.9-5-4.4-7.4-7.5-7.1c-3.1,0.3-3.9-1.9-3.9-1.9l5.9-1.3l0.8-0.2l15.9-3.4l15.2-3.3c0,0,0.9-0.3,2-0.6
		c0.8-0.4,1.6-0.7,2.5-1.1c0,0,0,0,0,0c0.2-0.1,0.3-0.2,0.4-0.2c0,0,0.1,0,0.1,0c1.4-0.6,3-1,4.6-1.4c2.8-0.6,5.7-0.8,8.5,0
		c4.2,1.1,7.4,3.9,9.5,8.4c3.4,7.2,2.9,15.5-1.3,24c-1,2.1-2.2,3.9-3.2,5.4l0,0c0,0-2.3,3.3-1,6.5l-49.3,10.6
		c-0.4,0-0.8,0.1-1.2,0.3l-4.6,1C119.4,71,120,69.7,120.7,68.4z M174.7,61.7c-0.1-0.2-0.3-0.4-0.4-0.6
		C174.4,61.3,174.5,61.5,174.7,61.7z M118.9,72.4c-0.1,0.3-0.2,0.5-0.2,0.8C118.8,72.9,118.8,72.7,118.9,72.4z M118.3,74.4
		c-0.1,0.3-0.1,0.6-0.2,0.9C118.2,75,118.3,74.7,118.3,74.4z M117.9,76.5c0,0.3-0.1,0.5-0.1,0.8C117.8,77,117.8,76.8,117.9,76.5z
		 M117.5,79.2c0,0.2,0,0.4,0,0.5C117.5,79.6,117.5,79.4,117.5,79.2z M117.5,81.3c0,0.2,0,0.5,0,0.7
		C117.5,81.8,117.5,81.6,117.5,81.3z M117.6,83.5c0,0.2,0,0.4,0.1,0.7C117.7,83.9,117.6,83.7,117.6,83.5z"/>
	<path class="st0" d="M128.6,50.2c-0.5,1,0,2.2,1,2.7c0.4,0.2,0.8,0.2,1.3,0.1c0.6-0.1,1.1-0.5,1.4-1.1c2.8-6.2-0.6-14.7-0.7-15.1
		c-0.4-1-1.6-1.5-2.6-1.1c-1,0.4-1.5,1.6-1.1,2.6C127.8,38.3,130.7,45.6,128.6,50.2z"/>
	<circle class="st0" cx="126" cy="67.8" r="2"/>
</g>
<path class="st0" d="M314.8,60.7l-3.8-0.9l-42.5-10.4c-6.2-1.5-12.5,2.3-14,8.5l-9.1,37.3l-0.2,0l-6.5,26.5
	c-1.5,6.2,2.3,12.5,8.5,14l0.2,0l0,0l35.1,8.6l0,0l10.1,2.5l1,0.3c0,0,0,0,0,0l0.2,0h0l0,0c6.2,1.5,12.5-2.3,14-8.5l15.7-63.8
	C324.8,68.5,321,62.3,314.8,60.7z"/>
<path class="st0" d="M264.1,152.8h-16c-3.9-19.2-27.7-34-56.5-34s-52.6,14.8-56.5,34h-16c-1.5,0-2.8,1.3-2.8,2.8s1.3,2.8,2.8,2.8
	h0.8c10.4,29.6,38.6,50.8,71.8,50.8c33.2,0,61.4-21.2,71.8-50.8h0.8c1.5,0,2.8-1.3,2.8-2.8S265.7,152.8,264.1,152.8z"/>
<path class="st0" d="M115.2,180.5c0,0-7.6-37.2-11.8-57.4c-4.2-20.2-14.1-26.2-14.1-26.2c-0.3-13-7.1-15.5-7.1-15.5l-0.9-4.5
	l1.3-0.3c0,0-1-4.9-1.3-6.5c-0.3-1.6-2.5-1-2.5-1l-8.2,1.7l-0.7,0.2l-8.2,1.7c0,0-2.3,0.3-1.9,1.9c0.3,1.6,1.3,6.5,1.3,6.5l1.3-0.3
	l0.9,4.5l-0.1,0c0,0-5.2,5-0.4,17.1c0,0-6.8,9.4-2.7,29.7c4.2,20.2,11.8,57.4,11.8,57.4s1.7,12.5,10.8,10.7c2.5-0.5,4.5-0.9,6.2-1.3
	c4.7-1,6.8-1.4,6.8-1.4l0.4-0.1l0,0l0.5-0.1l2.8-0.6l4-0.8c1.7-0.3,3.7-0.8,6-1.2c0.1,0,0.1,0,0.2,0h0c0,0,0,0,0,0
	C118.6,192.7,115.2,180.5,115.2,180.5z"/>
<g>
	<path class="st1" d="M108.8,176.7c0,0-7.6-37.2-11.8-57.4c-4.2-20.2-14.1-26.2-14.1-26.2c-0.3-13-7.1-15.5-7.1-15.5l-1-4.6l-19,3.9
		l1,4.6l-0.1,0c0,0-5.2,5-0.4,17.1c0,0-6.8,9.4-2.7,29.7c4.2,20.2,11.8,57.4,11.8,57.4s1.7,12.5,10.8,10.7c2.5-0.5,4.5-0.9,6.2-1.3
		c4.7-1,6.8-1.4,6.8-1.4l0.9-0.2l6.8-1.4c1.7-0.4,3.8-0.8,6.2-1.3C112.2,188.9,108.8,176.7,108.8,176.7z"/>
	<path class="st2" d="M72.2,65.4L64,67.1l-0.7,0.2L55,68.9c0,0-2.3,0.3-1.9,1.9c0.3,1.6,1.3,6.5,1.3,6.5l10.5-2.1l0.7-0.2l10.5-2.1
		c0,0-1-4.9-1.3-6.5C74.4,64.7,72.2,65.4,72.2,65.4z"/>
	<path class="st3" d="M108.7,176.7c0,0-7.6-37.2-11.8-57.4c-4.2-20.2-14.1-26.2-14.1-26.2c-0.3-13-7.1-15.5-7.1-15.5l-1-4.6l-9.5,2
		l24.4,118.6l0.5-0.1l6.8-1.4c1.7-0.4,3.8-0.8,6.2-1.3C112.1,188.9,108.7,176.7,108.7,176.7z"/>
	<path class="st4" d="M59.2,120.1c-0.1,0-0.2,0-0.3,0c-1.3,0.1-2.5-0.9-2.6-2.3c-0.6-8.5,2.4-14.4,2.5-14.6c0.6-1.2,2.1-1.7,3.3-1.1
		c1.2,0.6,1.7,2.1,1.1,3.3c0,0.1-2.5,5-2,12C61.3,118.8,60.4,119.8,59.2,120.1z"/>
	<g>
		<circle class="st5" cx="79.4" cy="142.5" r="16.3"/>
		<g>
			<g>
				<g>
					<path class="st4" d="M92.7,142c0-0.9-0.2-2-0.9-2.5c-0.4-0.3-1-0.2-1.5,0c0-0.4-0.1-0.7-0.2-1.1c-0.1-0.3-0.6-0.1-0.7,0
						c-0.3,0.1-0.5,0.4-0.5,0.7c0.2,1.2,0.3,2.4,0.4,3.6c0,0,0,0,0,0c0,0.4,0,0.9-0.4,1.2c-0.3,0.2-0.7-0.9-0.7-1
						c-0.2-1.2-0.3-2.4-0.3-3.6c0-0.3-0.4-0.3-0.6-0.2c-0.3,0.1-0.6,0.4-0.6,0.7c0,0.9,0,1.9,0,2.8c0,0.4-0.1,0.8-0.2,1.2
						c0,0,0,0,0,0.1c-0.1,0-0.2,0-0.3-0.1c-0.7-0.2-0.8-1.4-0.8-1.9c-0.1-0.8,0-1.6,0.1-2.4c0.1-0.3-0.1-0.4-0.4-0.3
						c-0.2,0.1-0.3,0.2-0.5,0.3c-0.1,0.1-0.3,0.3-0.3,0.3c-0.1,0.1-0.2,0.1-0.3,0.2c-0.6,0.3-1.1,0.2-1.6-0.3c0,0,0,0,0,0
						c-0.1-0.1-0.3-0.2-0.4-0.2c-0.5-0.2-1,0.1-1.4,0.4c-0.1-0.3-0.2-0.7-0.3-1c-0.1-0.3-0.6,0.1-0.7,0.2c-0.2,0.2-0.4,0.5-0.4,0.8
						c-0.3,0.1-0.7,0.4-0.8,0.6c-0.6,0.8-0.7,1.8-0.5,2.7l0,0c0.1,0.8-0.1,2.1-1.1,2.2c-0.2,0-0.4-0.2-0.6-0.4
						c0.2-0.5,0.4-1,0.6-1.5c0.3-0.9,0.4-2-0.3-2.7c-0.5-0.4-1.4,0.2-1.7,0.7c-0.5,0.7-0.5,1.5-0.4,2.2c0.1,0.5,0.3,1.4,0.7,2
						c-0.1,0.2-0.3,0.5-0.5,0.5c-0.2-0.1-0.3-0.3-0.4-0.5c-0.3-0.6-0.5-1.3-0.9-1.9c-0.6-0.8-1.5-0.7-2.3-0.1
						c-0.3-0.8-0.5-1.6-0.3-2.5c0.2-1,1.3-0.8,1.9-0.5c0.4,0.2,1.3-1.1,0.8-1.3c-0.6-0.3-1.4-0.4-2.1,0c-0.6,0.4-1,1-1.3,1.6
						c-0.1,0.1-0.1,0.2-0.1,0.3c-0.3-0.6-0.7-1.1-1-1.6c-0.1-0.2-0.5,0.1-0.6,0.2c-1.1,1.1-2.8,3.3-1.6,4.8c0.3,0.3,1-1,0.7-1.3
						c-0.5-0.6,0.1-1.5,0.7-2.2c0.8,1.3,1.4,2.6,2.1,3.9c0.4,0.8,0.7,1.8,0.5,2.7c-0.3,0.9-1.5,0.6-1.7,0c-0.2-0.6-0.9,0.7-0.7,1.1
						c0.2,0.5,0.5,0.8,1,0.9c0.5,0.1,0.9-0.2,1.3-0.6c0.8-0.8,1.2-2.1,1.1-3.2c-0.1-0.5-0.2-0.9-0.3-1.4c0.3-0.1,0.6-0.2,0.9,0
						c0.6,0.4,0.8,1.3,1.1,1.9c0.2,0.5,0.6,1,1.2,0.8c0.5-0.2,0.8-0.6,1.1-1.1c0.3,0.2,0.6,0.4,1,0.3c0.7-0.1,1.3-0.7,1.6-1.2
						c0.1-0.2,0.3-0.4,0.4-0.6c0.2,0.3,0.4,0.5,0.7,0.7c0.3,0.2,0.7,0.2,1.1,0.1c0.1-0.1,0.3-0.1,0.4-0.2c0.2,1.1,0.3,2.2,0.5,3.4
						c0,0.3,0.4,0.2,0.5,0.1c0.2-0.2,0.4-0.5,0.4-0.8c-0.1-0.9-0.2-1.8-0.3-2.7c0.4-0.1,0.9-0.3,1.1-0.7c0.7-0.8,0.7-1.9,0.5-2.9
						c0-0.2-0.1-0.4-0.1-0.6c0.4-0.1,0.7-0.2,1-0.4c-0.1,0.7-0.1,1.5,0.1,2.2c0.1,0.7,0.4,1.9,1.4,2c0.7,0.1,1.1-0.3,1.5-0.8
						c0.1,0.1,0.1,0.3,0.2,0.4c0.5,0.7,1.3,0.4,1.8,0c0,1.2,0,2.5-0.1,3.7c0,0.3,0.3,0.3,0.5,0.2c0.3-0.1,0.5-0.4,0.5-0.7
						c0.1-0.9,0.1-1.8,0.2-2.7c0.4,0,0.9-0.1,1.2-0.3C92.5,144.1,92.7,142.9,92.7,142z M75.5,143.2c-0.1-0.4-0.2-0.9-0.1-1.3
						c0.1,0,0.2,0,0.2,0c0.6,0.2,0.4,1.2,0.3,1.7c0,0.2-0.1,0.4-0.2,0.6C75.7,143.8,75.6,143.5,75.5,143.2z M80.5,144.5
						c-0.1,0-0.2,0-0.2,0c-0.2-0.1-0.4-0.2-0.5-0.4c-0.4-0.5-0.6-1.1-0.7-1.7c-0.1-0.5-0.1-1,0-1.5c0,0,0.1,0,0.1,0
						c0.5,0.2,0.7,0.7,0.9,1.1l0,0C80.2,142.8,80.4,143.6,80.5,144.5C80.5,144.4,80.5,144.4,80.5,144.5
						C80.5,144.4,80.5,144.5,80.5,144.5z M82.4,144.1C82.4,144.1,82.4,144.1,82.4,144.1C82.4,144.1,82.4,144.1,82.4,144.1
						c-0.5,0.2-0.8-0.1-0.9-0.5c0,0,0,0,0,0c-0.1-0.8-0.3-1.7-0.5-2.5c-0.1-0.4,0-0.6,0-0.6c0.1,0,0.3,0,0.5,0.2
						c0.5,0.4,0.7,1.1,0.8,1.6C82.5,142.8,82.6,143.5,82.4,144.1z M91.2,144.1C91.2,144.1,91.2,144.1,91.2,144.1
						C91.2,144.1,91.2,144.1,91.2,144.1c-0.5,0.1-0.7-0.4-0.8-0.7c0,0,0-1.6-0.1-2.4c0-0.1,0-0.5,0.1-0.7c0,0,0,0,0,0c0,0,0,0,0,0
						c0.2,0,0.3,0.1,0.4,0.3c0.4,0.5,0.5,1.2,0.5,1.8C91.5,142.9,91.5,143.6,91.2,144.1z"/>
				</g>
			</g>
		</g>
	</g>
</g>
<g>
	<g>
		<path class="st6" d="M166.1,57.1c-0.3-0.4-0.5-0.8-0.7-1.3l-55,11.9c-1.6,4.4-2,9.2-0.9,14c1.6,7.3,6.2,13.2,12.4,17l0,0l12.5,8
			l12.4-2.7l12.4-2.7l8.1-12.4l0,0c4.1-6,5.9-13.3,4.3-20.6C170.7,64,168.8,60.2,166.1,57.1C166.1,57.1,166.1,57.1,166.1,57.1z"/>
	</g>
	<path class="st4" d="M153,11.6c2.8-0.6,5.7-0.8,8.5,0c4.2,1.1,7.4,3.9,9.5,8.4c3.4,7.2,2.9,15.5-1.3,24c-1,2.1-2.2,3.9-3.2,5.4l0,0
		c0,0-2.9,4.2-0.4,7.7c0,0,0,0,0,0c2.7,3.2,4.6,6.9,5.5,11.1c1.6,7.3-0.2,14.6-4.3,20.6l0,0l-8.1,12.4l-12.4,2.7l-12.4,2.7l-12.5-8
		l0,0c-6.3-3.8-10.9-9.7-12.4-17c-1.3-6.2-0.3-12.4,2.6-17.9l0,0c0,0,9.1-16.7,5-31.8c-1.9-5-4.4-7.4-7.5-7.1
		c-3.1,0.3-3.9-1.9-3.9-1.9l5.9-1.3l0.8-0.2l15.9-3.4l15.2-3.3c0,0,0.9-0.3,2-0.6c0.8-0.4,1.6-0.7,2.5-1.1c0,0,0,0,0,0
		c0.2-0.1,0.3-0.2,0.4-0.2c0,0,0.1,0,0.1,0C149.8,12.4,151.4,11.9,153,11.6 M159.9,48c1.1-0.2,2.3-0.9,3.2-2.2
		c0.8-1.2,1.6-2.6,2.3-4.1c3.6-7.3,4-13.9,1.2-19.8c-1.5-3.2-3.6-5.1-6.4-5.8c-2-0.5-4.2-0.4-6.3,0.1c-0.7,0.2-1.5,0.4-2.2,0.6
		c-0.5,0.3-9.8,5.4-5.5,16.6c2.4,5.7,6.2,10.6,9.4,14C155.8,47.4,157.8,48.4,159.9,48 M152.7,10.3c-1.5,0.3-3.1,0.8-4.6,1.4
		c-0.2,0.1-0.5,0.1-0.7,0.3c-0.8,0.3-1.6,0.7-2.4,1.1c-0.9,0.3-1.6,0.5-1.8,0.6L128,16.9L112,20.3l-0.8,0.2l-5.9,1.3l-1.5,0.3
		l0.5,1.4c0.4,1.1,2,3.1,5.3,2.8c0.9-0.1,3.5-0.4,6,6.2c3.9,14.3-4.8,30.6-4.9,30.7l-0.2,0.4l0,0c-3,5.8-3.9,12.2-2.5,18.3
		c1.4,6.6,5.3,12.5,11.1,16.6l0,0l1,0.7c0.2,0.2,0.5,0.3,0.7,0.4l0.2,0.2l12.5,8l0.5,0.3l0.5-0.1l12.4-2.7l12.4-2.7l0.5-0.1l0.3-0.5
		l8.1-12.4l0.2-0.3c0.1-0.2,0.2-0.3,0.3-0.5l0.8-1.2l-0.1,0c3.5-6.1,4.7-13,3.3-19.7c-0.9-4.3-2.9-8.2-5.8-11.7
		c-1.9-2.7,0.3-6.1,0.4-6.2l0.3-0.4l0,0c1.1-1.7,2.2-3.4,3-5.2c4.5-8.9,4.9-17.6,1.3-25.2c-2.3-4.8-5.8-7.9-10.4-9.1
		C159.1,9.5,156,9.5,152.7,10.3L152.7,10.3z M152.3,18c0.7-0.2,1.3-0.4,2-0.5c2.2-0.5,4.1-0.5,5.7-0.1c2.4,0.6,4.2,2.3,5.6,5.1
		c2.6,5.5,2.2,11.7-1.2,18.6c-0.6,1.3-1.4,2.6-2.2,3.9c-0.7,0.9-1.5,1.5-2.4,1.7c-1.4,0.3-2.7-0.2-3.1-0.4c-4-4.4-7.1-8.9-9-13.4
		c-1.6-4.2-1.3-8,0.8-11.1C149.9,19.5,151.8,18.2,152.3,18L152.3,18z"/>
	<path class="st4" d="M122.2,48.4c-0.4,0.1-0.8,0.1-1.3-0.1c-1-0.5-1.5-1.7-1-2.7c2.1-4.6-0.8-11.9-0.8-11.9c-0.4-1,0.1-2.2,1.1-2.6
		c1-0.4,2.2,0.1,2.6,1.1c0.1,0.4,3.5,8.9,0.7,15.1C123.3,47.8,122.8,48.2,122.2,48.4z"/>
	<path class="st4" d="M116.7,84c-0.9,0.2-1.9-0.3-2.3-1.2c-3.8-9.1-0.3-15.2-0.2-15.4c0.6-1,1.8-1.3,2.8-0.7c1,0.6,1.3,1.8,0.7,2.7
		c-0.1,0.2-2.6,4.7,0.4,11.8c0.4,1,0,2.2-1.1,2.6C116.9,84,116.8,84,116.7,84z"/>
	<circle class="st4" cx="117.4" cy="63.2" r="2"/>
	<path class="st4" d="M150.3,75.1c-2,0.4-3.9-0.8-4.4-2.8c-0.4-2,0.8-3.9,2.8-4.4c2-0.4,3.9,0.8,4.4,2.8
		C153.6,72.7,152.3,74.6,150.3,75.1z M148.9,68.5c-1.6,0.4-2.7,2-2.3,3.6c0.4,1.6,2,2.7,3.6,2.3c1.6-0.4,2.7-2,2.3-3.6
		C152.1,69.2,150.5,68.2,148.9,68.5z"/>
	<path class="st4" d="M141,83.1c-1.3,0.3-2.6-0.6-2.9-1.9c-0.3-1.3,0.6-2.6,1.9-2.9c1.3-0.3,2.6,0.6,2.9,1.9
		C143.2,81.5,142.3,82.8,141,83.1z M140.2,79c-0.9,0.2-1.6,1.1-1.3,2.1c0.2,0.9,1.1,1.6,2.1,1.3c0.9-0.2,1.6-1.1,1.3-2.1
		C142,79.4,141.1,78.8,140.2,79z"/>
	<path class="st4" d="M138.2,69.8c-1.3,0.3-2.6-0.6-2.9-1.9c-0.3-1.3,0.6-2.6,1.9-2.9c1.3-0.3,2.6,0.6,2.9,1.9
		C140.3,68.2,139.5,69.5,138.2,69.8z M137.3,65.7c-0.9,0.2-1.6,1.1-1.3,2.1c0.2,0.9,1.1,1.6,2.1,1.3s1.6-1.1,1.3-2.1
		C139.2,66.1,138.2,65.5,137.3,65.7z"/>
</g>
<g>
	<ellipse class="st7" cx="186.4" cy="152.2" rx="57.1" ry="39.6"/>
	<path class="st8" d="M114.6,152.2c10.4,29.6,38.6,50.8,71.8,50.8s61.4-21.2,71.8-50.8H114.6z"/>
	<path class="st9" d="M259,152.2H113.8c-1.5,0-2.8-1.3-2.8-2.8l0,0c0-1.5,1.3-2.8,2.8-2.8H259c1.5,0,2.8,1.3,2.8,2.8l0,0
		C261.8,151,260.5,152.2,259,152.2z"/>
	<path class="st4" d="M140.5,177.1c-0.7,0-1.3-0.2-1.9-0.5c-8.7-5.1-12.8-14.5-13-14.9c-0.8-2,0.1-4.2,2-5.1c2-0.8,4.2,0.1,5.1,2
		c0,0.1,3.3,7.5,9.8,11.3c1.8,1.1,2.5,3.4,1.4,5.3C143.1,176.4,141.8,177.1,140.5,177.1z"/>
</g>
<g>
	<path class="st4" d="M302.9,132.1c-1.5,6.2-7.8,10-14,8.5l-46.2-11.3c-6.2-1.5-10-7.8-8.5-14l15.7-63.8c1.5-6.2,7.8-10,14-8.5
		l46.2,11.3c6.2,1.5,10,7.8,8.5,14L302.9,132.1z"/>
	<path class="st10" d="M310.2,54.3l-22.4-5.5l-21.2,86.3l22.4,5.5c6.2,1.5,12.5-2.3,14-8.5l15.7-63.8
		C320.2,62.1,316.4,55.8,310.2,54.3z"/>
	<g>
		<path class="st11" d="M259.3,79.6c0,0,0.5-5.1-4.4-6.3C254.9,73.3,252.9,78,259.3,79.6z"/>
		<path class="st11" d="M259.8,77.1c0,0,4.4-2.6,2.4-7.3C262.2,69.8,257.3,71.1,259.8,77.1z"/>
		<path class="st11" d="M258.2,84.1c0,0,0.5-5.1-4.4-6.3C253.8,77.8,251.8,82.5,258.2,84.1z"/>
		<path class="st11" d="M257.1,88.8c0,0,0.5-5.1-4.4-6.3C252.6,82.5,250.7,87.2,257.1,88.8z"/>
		<path class="st11" d="M259.3,79.6c0,0,1.9-4.8,6.9-3.5C266.2,76.1,265.7,81.2,259.3,79.6z"/>
		<path class="st11" d="M258.2,84.1c0,0,1.9-4.8,6.9-3.5C265.1,80.6,264.6,85.7,258.2,84.1z"/>
		<path class="st11" d="M257.1,88.8c0,0,1.9-4.8,6.9-3.5C263.9,85.2,263.5,90.3,257.1,88.8z"/>
		
			<rect x="257.9" y="76.4" transform="matrix(0.9714 0.2376 -0.2376 0.9714 27.4633 -58.9199)" class="st11" width="0.5" height="16.1"/>
	</g>
	<g>
		<path class="st11" d="M279.1,84.5c0,0,0.5-5.1-4.4-6.3C274.6,78.1,272.7,82.9,279.1,84.5z"/>
		<path class="st11" d="M279.6,82c0,0,4.4-2.6,2.4-7.3C282,74.7,277,75.9,279.6,82z"/>
		<path class="st11" d="M278,89c0,0,0.5-5.1-4.4-6.3C273.5,82.7,271.6,87.4,278,89z"/>
		<path class="st11" d="M276.8,93.6c0,0,0.5-5.1-4.4-6.3C272.4,87.3,270.4,92,276.8,93.6z"/>
		<path class="st11" d="M279.1,84.5c0,0,1.9-4.8,6.9-3.5C285.9,80.9,285.5,86,279.1,84.5z"/>
		<path class="st11" d="M278,89c0,0,1.9-4.8,6.9-3.5C284.8,85.4,284.4,90.5,278,89z"/>
		<path class="st11" d="M276.8,93.6c0,0,1.9-4.8,6.9-3.5C283.7,90.1,283.2,95.2,276.8,93.6z"/>
		
			<rect x="277.6" y="81.2" transform="matrix(0.9714 0.2376 -0.2376 0.9714 29.1828 -63.4763)" class="st11" width="0.5" height="16.1"/>
	</g>
	<g>
		<path class="st11" d="M298.8,89.3c0,0,0.5-5.1-4.4-6.3C294.4,83,292.4,87.7,298.8,89.3z"/>
		<path class="st11" d="M299.3,86.8c0,0,4.4-2.6,2.4-7.3C301.7,79.5,296.8,80.8,299.3,86.8z"/>
		<path class="st11" d="M297.7,93.8c0,0,0.5-5.1-4.4-6.3C293.3,87.5,291.3,92.2,297.7,93.8z"/>
		<path class="st11" d="M296.6,98.5c0,0,0.5-5.1-4.4-6.3C292.1,92.2,290.2,96.9,296.6,98.5z"/>
		<path class="st11" d="M298.8,89.3c0,0,1.9-4.8,6.9-3.5C305.7,85.8,305.2,90.9,298.8,89.3z"/>
		<path class="st11" d="M297.7,93.8c0,0,1.9-4.8,6.9-3.5C304.6,90.3,304.1,95.4,297.7,93.8z"/>
		<path class="st11" d="M296.6,98.5c0,0,1.9-4.8,6.9-3.5C303.4,94.9,302.9,100,296.6,98.5z"/>
		
			<rect x="297.4" y="86.1" transform="matrix(0.9714 0.2376 -0.2376 0.9714 30.9005 -68.0278)" class="st11" width="0.5" height="16.1"/>
	</g>
	<path class="st11" d="M277.7,137.8l9.3-37.8l-46.5-11.4l-6.5,26.5c-1.5,6.2,2.3,12.5,8.5,14l46.2,11.3c0,0,0,0,0,0L277.7,137.8z"/>
	<path class="st12" d="M275.9,97.3l-9.3,37.8l22.4,5.5c6.2,1.5,12.5-2.3,14-8.5l6.5-26.5L275.9,97.3z"/>
	<g>
		<path class="st4" d="M263.1,110.2c0.2-1,0.4-2.1,0.7-3.2l0,0c-0.5,0.9-1.1,2-1.6,2.8l-1.7,2.8l-1.4-0.3L259,109c0-1,0-2.2,0-3.2
			l0,0c-0.3,1-0.6,2.3-0.9,3.2l-0.9,2.9l-1.6-0.4l2.4-7.7l2.4,0.6l0.1,2.8c0,1,0,2,0,3l0,0c0.4-0.9,1-1.8,1.4-2.6l1.5-2.4l2.3,0.6
			l-1.5,8l-1.7-0.4L263.1,110.2z"/>
		<path class="st4" d="M268.7,106.5l0.5,3c0.1,0.6,0.1,1.1,0.2,1.6l0,0c0.2-0.3,0.4-0.8,0.8-1.4l1.5-2.5l1.9,0.5l-2.4,3.4
			c-0.8,1.1-1.6,2.2-2.3,2.8c-0.7,0.5-1.4,0.8-2.3,0.5c-0.4-0.1-0.6-0.2-0.8-0.3l0.5-1.4c0.1,0.1,0.3,0.1,0.6,0.2
			c0.5,0.1,1-0.1,1.2-0.5c0.1-0.1,0.1-0.2,0.1-0.4l-1.3-6L268.7,106.5z"/>
		<path class="st4" d="M276,108.3l-0.8,3.3l0.2,0l3-2.7l2.2,0.5l-3.6,2.8c1,0.5,1.2,1.3,1.3,2.3c0.1,0.9,0.1,1.8,0.3,2.7l-1.9-0.5
			c-0.1-0.6-0.1-1.2-0.2-1.9c-0.1-1-0.2-1.7-1.2-1.9l-0.3-0.1l-0.8,3.3l-1.8-0.4l1.9-7.9L276,108.3z"/>
		<path class="st4" d="M281.9,115.9l-1.1,1.9l-1.8-0.5l4.3-7.3l2.3,0.6l0.5,8.4l-1.9-0.5l-0.1-2.2L281.9,115.9z M284.2,115.1
			l-0.1-1.8c0-0.5,0-1.1,0-1.6l0,0c-0.2,0.4-0.5,1-0.7,1.4l-0.9,1.6L284.2,115.1z"/>
	</g>
</g>
<g>
	<circle class="st13" cx="215.2" cy="70.1" r="1.6"/>
	<circle class="st14" cx="211.2" cy="80.1" r="1.6"/>
	<circle class="st14" cx="215.2" cy="82.4" r="1.6"/>
	<circle class="st14" cx="222.1" cy="73.5" r="1.6"/>
	<circle class="st14" cx="199.6" cy="50.2" r="1.6"/>
	<circle class="st14" cx="212.5" cy="38.9" r="1.6"/>
	<circle class="st15" cx="215.2" cy="59.3" r="1.6"/>
	<circle class="st15" cx="203.2" cy="67.6" r="1.6"/>
	<circle class="st15" cx="204.8" cy="57.7" r="1.6"/>
	<circle class="st13" cx="208.1" cy="64.4" r="1.6"/>
	<circle class="st13" cx="207.4" cy="50.2" r="1.6"/>
	<circle class="st13" cx="216.2" cy="50.2" r="1.6"/>
	<circle class="st13" cx="223.7" cy="35.9" r="1.6"/>
	<circle class="st13" cx="214.1" cy="28.8" r="1.6"/>
	<circle class="st13" cx="211.2" cy="99.7" r="1.6"/>
	<circle class="st15" cx="210.9" cy="89.3" r="1.6"/>
	<circle class="st13" cx="223.7" cy="66" r="1.6"/>
	<circle class="st4" cx="205.5" cy="73.5" r="1.6"/>
	<circle class="st4" cx="222.1" cy="56.6" r="1.6"/>
	<circle class="st4" cx="227.3" cy="49.1" r="1.6"/>
	<circle class="st4" cx="203.9" cy="40" r="1.6"/>
	<circle class="st13" cx="199.9" cy="76.9" r="1.6"/>
</g>
</svg>
