<?xml version="1.0" encoding="utf-8"?>
<!-- Generator: Adobe Illustrator 19.0.0, SVG Export Plug-In . SVG Version: 6.00 Build 0)  -->
<svg version="1.1" id="lupa" xmlns="http://www.w3.org/2000/svg" xmlns:xlink="http://www.w3.org/1999/xlink" x="0px" y="0px"
	 viewBox="0 0 292 228" style="enable-background:new 0 0 292 228;" xml:space="preserve">
<style type="text/css">
	.st0{fill:#519E38;}
	.st1{fill:#DDD9A8;}
	.st2{fill:#EFEFEF;}
	.st3{fill:#DDDDDD;}
	.st4{fill:#FFFFFF;}
	.st5{fill:#D98A5A;}
	.st6{fill:#F7F3A4;}
	.st7{fill:#40AE77;}
	.st8{fill:#1D3805;}
	.st9{fill:#001700;}
	.st10{fill:#A11D21;}
</style>
<path class="st0" d="M260,124.9h-22.2c-5.4-26.7-38.4-47.2-78.4-47.2c-39.9,0-72.9,20.5-78.4,47.2H58.8c-2.1,0-3.9,1.7-3.9,3.9
	c0,2.1,1.7,3.9,3.9,3.9h1.1c14.4,41,53.5,70.5,99.5,70.5s85.1-29.4,99.5-70.5h1.2c2.1,0,3.9-1.7,3.9-3.9
	C263.9,126.6,262.2,124.9,260,124.9z"/>
<ellipse class="st1" cx="150.2" cy="126.8" rx="79.2" ry="55"/>
<path class="st2" d="M50.7,126.8c14.4,41,53.5,70.5,99.5,70.5s85.1-29.4,99.5-70.5H50.7z"/>
<path class="st3" d="M250.8,126.8H49.6c-2.1,0-3.9-1.7-3.9-3.9v0c0-2.1,1.7-3.9,3.9-3.9h201.2c2.1,0,3.9,1.7,3.9,3.9v0
	C254.7,125,253,126.8,250.8,126.8z"/>
<path class="st4" d="M86.6,161.3c-0.9,0-1.8-0.2-2.7-0.7c-12.1-7.1-17.8-20.2-18-20.7c-1.2-2.7,0.1-5.9,2.8-7c2.7-1.2,5.9,0.1,7,2.8
	c0.1,0.1,4.6,10.4,13.6,15.7c2.6,1.5,3.4,4.8,1.9,7.3C90.2,160.4,88.4,161.3,86.6,161.3z"/>
<polygon class="st5" points="114.6,88.3 123.3,85.7 121.8,97.3 "/>
<polygon class="st6" points="120.8,105.3 129.4,102.6 127.9,114.3 "/>
<polygon class="st6" points="190.5,95.8 197.3,101.8 186.5,106.6 "/>
<polygon class="st6" points="172.2,77.6 178.2,84.4 166.9,87.8 "/>
<polygon class="st6" points="83.9,108.5 89.9,115.3 78.7,118.7 "/>
<polygon class="st5" points="166.7,104.3 167.8,95.3 177.8,101.3 "/>
<polygon class="st5" points="147.8,106.5 153.1,113.8 141.6,116.2 "/>
<polygon class="st5" points="143.9,85.7 144.9,76.6 155,82.7 "/>
<polygon class="st5" points="103.5,115.9 104.5,106.9 114.6,113 "/>
<polygon class="st7" points="149.3,88.7 157.3,92.9 148,100.1 "/>
<polygon class="st7" points="205.7,101.2 213.7,105.5 204.4,112.6 "/>
<polygon class="st7" points="85.7,103.6 89.7,95.5 97.1,104.6 "/>
<polygon class="st7" points="168.9,115 172.9,106.9 180.3,116 "/>
<g>
	<circle class="st8" cx="145.4" cy="46" r="2.1"/>
	<circle class="st9" cx="132.1" cy="40.8" r="2.1"/>
	<circle class="st9" cx="129.1" cy="46" r="2.1"/>
	<circle class="st9" cx="140.9" cy="55.2" r="2.1"/>
	<circle class="st9" cx="171.9" cy="25.3" r="2.1"/>
	<circle class="st9" cx="186.8" cy="42.4" r="2.1"/>
	<circle class="st10" cx="159.7" cy="46" r="2.1"/>
	<circle class="st10" cx="148.7" cy="30.1" r="2.1"/>
	<circle class="st10" cx="161.8" cy="32.2" r="2.1"/>
	<circle class="st8" cx="152.9" cy="36.5" r="2.1"/>
	<circle class="st8" cx="171.9" cy="35.6" r="2.1"/>
	<circle class="st8" cx="171.9" cy="47.4" r="2.1"/>
	<circle class="st8" cx="190.8" cy="57.4" r="2.1"/>
	<circle class="st8" cx="200.3" cy="44.6" r="2.1"/>
	<circle class="st8" cx="106" cy="40.8" r="2.1"/>
	<circle class="st10" cx="119.9" cy="40.3" r="2.1"/>
	<circle class="st8" cx="150.8" cy="57.4" r="2.1"/>
	<circle class="st4" cx="140.9" cy="33.1" r="2.1"/>
	<circle class="st4" cx="163.3" cy="55.2" r="2.1"/>
	<circle class="st4" cx="173.4" cy="62.1" r="2.1"/>
	<circle class="st4" cx="185.4" cy="31" r="2.1"/>
	<circle class="st8" cx="136.4" cy="25.7" r="2.1"/>
</g>
</svg>
