<?xml version="1.0" encoding="utf-8"?>
<!-- Generator: Adobe Illustrator 19.0.0, SVG Export Plug-In . SVG Version: 6.00 Build 0)  -->
<svg version="1.1" id="lupa" xmlns="http://www.w3.org/2000/svg" xmlns:xlink="http://www.w3.org/1999/xlink" x="0px" y="0px"
	 viewBox="0 0 173.9 214.5" style="enable-background:new 0 0 173.9 214.5;" xml:space="preserve">
<style type="text/css">
	.st0{fill:#2D2D2D;}
	.st1{fill:#4D4C4B;}
	.st2{fill:#231F20;}
	.st3{fill:#F9F5DC;}
	.st4{fill:#FFFFFF;}
	.st5{fill:#F9DDC5;}
	.st6{fill:#EC145A;}
	.st7{fill:#62BA47;}
</style>
<path class="st0" d="M148.1,194.7H28c-4.3,0-7.9-3.5-7.9-7.9V32.3c0-4.3,3.5-7.9,7.9-7.9h120.1c4.3,0,7.9,3.5,7.9,7.9v154.6
	C156,191.2,152.4,194.7,148.1,194.7z"/>
<path class="st1" d="M144.8,24.4c6.2,0,11.2,5,11.2,11.2v147.9c0,6.2-5,11.2-11.2,11.2H31.3c-6.2,0-11.2-5-11.2-11.2V35.6
	c0-6.2,5-11.2,11.2-11.2H144.8 M144.8,17.9H31.3c-9.8,0-17.7,8-17.7,17.7v147.9c0,9.8,8,17.7,17.7,17.7h113.4
	c9.8,0,17.7-8,17.7-17.7V35.6C162.5,25.8,154.6,17.9,144.8,17.9L144.8,17.9z"/>
<g>
	<g>
		<path class="st2" d="M86,58.9c-4-11-16.1-16.9-27.3-13.2c-11.2,3.7-17.4,15.5-14.2,26.8l0,0l0.6,1.7l0,0c0.3,0.9,1.3,1.5,2.3,1.1
			l38.1-12.4c0.9-0.3,1.5-1.3,1.1-2.3l0,0L86,58.9L86,58.9z"/>
		<circle class="st2" cx="43.3" cy="68.9" r="2.9"/>
		<circle class="st2" cx="43.2" cy="63.4" r="2.9"/>
		<circle class="st2" cx="44.9" cy="58.1" r="2.9"/>
		<circle class="st2" cx="47.7" cy="53.3" r="2.9"/>
		<circle class="st2" cx="51.5" cy="49.4" r="2.9"/>
		<circle class="st2" cx="56.4" cy="46.5" r="2.9"/>
		<circle class="st2" cx="61.9" cy="45" r="2.9"/>
		<circle class="st2" cx="67.7" cy="44.6" r="2.9"/>
		<circle class="st2" cx="72.9" cy="46" r="2.9"/>
		<circle class="st2" cx="77.9" cy="48.1" r="2.9"/>
		<circle class="st2" cx="81.7" cy="51.9" r="2.9"/>
		<circle class="st2" cx="85.1" cy="56.2" r="2.9"/>
	</g>
	<g>
		<path class="st3" d="M81.1,54.5c-4-11-16.1-16.9-27.3-13.2C42.6,45,36.4,56.8,39.6,68.1l0,0l0.6,1.7l0,0c0.3,0.9,1.3,1.5,2.3,1.1
			l38.1-12.4c0.9-0.3,1.5-1.3,1.1-2.3l0,0L81.1,54.5L81.1,54.5z"/>
		<circle class="st3" cx="38.4" cy="64.5" r="2.9"/>
		<circle class="st3" cx="38.3" cy="59" r="2.9"/>
		<circle class="st3" cx="40" cy="53.7" r="2.9"/>
		<circle class="st3" cx="42.8" cy="48.9" r="2.9"/>
		<circle class="st3" cx="46.6" cy="45" r="2.9"/>
		<circle class="st3" cx="51.4" cy="42.1" r="2.9"/>
		<circle class="st3" cx="57" cy="40.6" r="2.9"/>
		<circle class="st3" cx="62.7" cy="40.2" r="2.9"/>
		<circle class="st3" cx="68" cy="41.6" r="2.9"/>
		<circle class="st3" cx="72.9" cy="43.7" r="2.9"/>
		<circle class="st3" cx="76.7" cy="47.5" r="2.9"/>
		<circle class="st3" cx="80.2" cy="51.9" r="2.9"/>
	</g>
</g>
<g>
	<g>
		<path class="st2" d="M139.9,78.7c6.7-9.6,4.7-22.8-4.7-29.9s-22.7-5.5-30.1,3.6l0,0l-1.1,1.4l0,0c-0.6,0.8-0.4,1.9,0.3,2.5
			l31.9,24.2c0.8,0.6,1.9,0.4,2.5-0.3l0,0L139.9,78.7L139.9,78.7z"/>
		<circle class="st2" cx="107.4" cy="49.3" r="2.9"/>
		<circle class="st2" cx="111.8" cy="46.1" r="2.9"/>
		<circle class="st2" cx="117.1" cy="44.5" r="2.9"/>
		<circle class="st2" cx="122.7" cy="44" r="2.9"/>
		<circle class="st2" cx="128" cy="45" r="2.9"/>
		<circle class="st2" cx="133.2" cy="47.2" r="2.9"/>
		<circle class="st2" cx="137.6" cy="51" r="2.9"/>
		<circle class="st2" cx="141.1" cy="55.5" r="2.9"/>
		<circle class="st2" cx="143.1" cy="60.6" r="2.9"/>
		<circle class="st2" cx="144.1" cy="65.9" r="2.9"/>
		<circle class="st2" cx="143.1" cy="71.1" r="2.9"/>
		<circle class="st2" cx="141.6" cy="76.5" r="2.9"/>
	</g>
	<g>
		<path class="st3" d="M140.7,72.1c6.7-9.6,4.7-22.8-4.7-29.9s-22.7-5.5-30.1,3.6l0,0l-1.1,1.4l0,0c-0.6,0.8-0.4,1.9,0.3,2.5
			l31.9,24.2c0.8,0.6,1.9,0.4,2.5-0.3l0,0L140.7,72.1L140.7,72.1z"/>
		<circle class="st3" cx="108.2" cy="42.7" r="2.9"/>
		<circle class="st3" cx="112.6" cy="39.5" r="2.9"/>
		<circle class="st3" cx="117.9" cy="37.9" r="2.9"/>
		<circle class="st3" cx="123.5" cy="37.5" r="2.9"/>
		<circle class="st3" cx="128.8" cy="38.4" r="2.9"/>
		<circle class="st3" cx="134" cy="40.7" r="2.9"/>
		<circle class="st3" cx="138.4" cy="44.4" r="2.9"/>
		<circle class="st3" cx="142" cy="48.9" r="2.9"/>
		<circle class="st3" cx="143.9" cy="54" r="2.9"/>
		<circle class="st3" cx="144.9" cy="59.3" r="2.9"/>
		<circle class="st3" cx="144" cy="64.6" r="2.9"/>
		<circle class="st3" cx="142.4" cy="69.9" r="2.9"/>
	</g>
</g>
<g>
	<g>
		<path class="st2" d="M151,162c6.7-9.6,4.7-22.8-4.7-29.9c-9.4-7.1-22.7-5.5-30.1,3.6l0,0l-1.1,1.4l0,0c-0.6,0.8-0.4,1.9,0.3,2.5
			l31.9,24.2c0.8,0.6,1.9,0.4,2.5-0.3l0,0L151,162L151,162z"/>
		<circle class="st2" cx="118.5" cy="132.6" r="2.9"/>
		<circle class="st2" cx="122.9" cy="129.4" r="2.9"/>
		<circle class="st2" cx="128.2" cy="127.8" r="2.9"/>
		<circle class="st2" cx="133.8" cy="127.3" r="2.9"/>
		<circle class="st2" cx="139.1" cy="128.3" r="2.9"/>
		<circle class="st2" cx="144.3" cy="130.5" r="2.9"/>
		<circle class="st2" cx="148.7" cy="134.3" r="2.9"/>
		<circle class="st2" cx="152.3" cy="138.8" r="2.9"/>
		<circle class="st2" cx="154.2" cy="143.9" r="2.9"/>
		<circle class="st2" cx="155.2" cy="149.1" r="2.9"/>
		<circle class="st2" cx="154.2" cy="154.4" r="2.9"/>
		<circle class="st2" cx="152.7" cy="159.8" r="2.9"/>
	</g>
	<g>
		<path class="st3" d="M151.8,155.4c6.7-9.6,4.7-22.8-4.7-29.9c-9.4-7.1-22.7-5.5-30.1,3.6l0,0l-1.1,1.4l0,0
			c-0.6,0.8-0.4,1.9,0.3,2.5l31.9,24.2c0.8,0.6,1.9,0.4,2.5-0.3l0,0L151.8,155.4L151.8,155.4z"/>
		<circle class="st3" cx="119.3" cy="126" r="2.9"/>
		<circle class="st3" cx="123.7" cy="122.8" r="2.9"/>
		<circle class="st3" cx="129" cy="121.2" r="2.9"/>
		<circle class="st3" cx="134.6" cy="120.8" r="2.9"/>
		<circle class="st3" cx="139.9" cy="121.7" r="2.9"/>
		<circle class="st3" cx="145.1" cy="124" r="2.9"/>
		<circle class="st3" cx="149.5" cy="127.7" r="2.9"/>
		<circle class="st3" cx="153.1" cy="132.2" r="2.9"/>
		<circle class="st3" cx="155" cy="137.3" r="2.9"/>
		<circle class="st3" cx="156" cy="142.6" r="2.9"/>
		<circle class="st3" cx="155.1" cy="147.9" r="2.9"/>
		<circle class="st3" cx="153.5" cy="153.2" r="2.9"/>
	</g>
</g>
<g>
	<g>
		<path class="st2" d="M139.6,107c-5.7-10.2-18.5-14.1-29-8.8s-14.8,18.1-9.8,28.7l0,0l0.8,1.6l0,0c0.5,0.9,1.5,1.2,2.4,0.8
			l35.6-18.3c0.9-0.5,1.2-1.5,0.8-2.4l0,0L139.6,107L139.6,107z"/>
		<circle class="st2" cx="99.1" cy="123.6" r="2.9"/>
		<circle class="st2" cx="98.1" cy="118.2" r="2.9"/>
		<circle class="st2" cx="99" cy="112.7" r="2.9"/>
		<circle class="st2" cx="100.9" cy="107.5" r="2.9"/>
		<circle class="st2" cx="104.1" cy="103.1" r="2.9"/>
		<circle class="st2" cx="108.4" cy="99.4" r="2.9"/>
		<circle class="st2" cx="113.7" cy="97.1" r="2.9"/>
		<circle class="st2" cx="119.3" cy="95.8" r="2.9"/>
		<circle class="st2" cx="124.7" cy="96.3" r="2.9"/>
		<circle class="st2" cx="129.9" cy="97.6" r="2.9"/>
		<circle class="st2" cx="134.2" cy="100.8" r="2.9"/>
		<circle class="st2" cx="138.4" cy="104.5" r="2.9"/>
	</g>
	<g>
		<path class="st3" d="M134.1,103.4c-5.7-10.2-18.5-14.1-29-8.8c-10.5,5.4-14.8,18.1-9.8,28.7l0,0L96,125l0,0
			c0.5,0.9,1.5,1.2,2.4,0.8l35.6-18.3c0.9-0.5,1.2-1.5,0.8-2.4l0,0L134.1,103.4L134.1,103.4z"/>
		<circle class="st3" cx="93.5" cy="120" r="2.9"/>
		<circle class="st3" cx="92.5" cy="114.6" r="2.9"/>
		<circle class="st3" cx="93.4" cy="109.1" r="2.9"/>
		<circle class="st3" cx="95.4" cy="103.9" r="2.9"/>
		<circle class="st3" cx="98.6" cy="99.5" r="2.9"/>
		<circle class="st3" cx="102.8" cy="95.8" r="2.9"/>
		<circle class="st3" cx="108.1" cy="93.5" r="2.9"/>
		<circle class="st3" cx="113.7" cy="92.2" r="2.9"/>
		<circle class="st3" cx="119.1" cy="92.7" r="2.9"/>
		<circle class="st3" cx="124.3" cy="94.1" r="2.9"/>
		<circle class="st3" cx="128.7" cy="97.2" r="2.9"/>
		<circle class="st3" cx="132.8" cy="101" r="2.9"/>
	</g>
</g>
<g>
	<g>
		<path class="st2" d="M117.4,84.3c-2.5-11.4-13.6-18.9-25.2-16.8c-11.6,2.1-19.4,13-17.8,24.5l0,0l0.3,1.8l0,0
			c0.2,1,1.1,1.6,2.1,1.4l39.4-7.1c1-0.2,1.6-1.1,1.4-2.1l0,0L117.4,84.3L117.4,84.3z"/>
		<circle class="st2" cx="73.8" cy="88.3" r="2.9"/>
		<circle class="st2" cx="74.4" cy="82.9" r="2.9"/>
		<circle class="st2" cx="76.8" cy="77.9" r="2.9"/>
		<circle class="st2" cx="80.2" cy="73.5" r="2.9"/>
		<circle class="st2" cx="84.6" cy="70.2" r="2.9"/>
		<circle class="st2" cx="89.8" cy="67.9" r="2.9"/>
		<circle class="st2" cx="95.5" cy="67.2" r="2.9"/>
		<circle class="st2" cx="101.2" cy="67.6" r="2.9"/>
		<circle class="st2" cx="106.2" cy="69.7" r="2.9"/>
		<circle class="st2" cx="110.8" cy="72.5" r="2.9"/>
		<circle class="st2" cx="114.1" cy="76.8" r="2.9"/>
		<circle class="st2" cx="116.9" cy="81.5" r="2.9"/>
	</g>
	<g>
		<path class="st3" d="M113.1,79.3c-2.5-11.4-13.6-18.9-25.2-16.8c-11.6,2.1-19.4,13-17.8,24.5l0,0l0.3,1.8l0,0
			c0.2,1,1.1,1.6,2.1,1.4l39.4-7.1c1-0.2,1.6-1.1,1.4-2.1l0,0L113.1,79.3L113.1,79.3z"/>
		<circle class="st3" cx="69.5" cy="83.2" r="2.9"/>
		<circle class="st3" cx="70.1" cy="77.8" r="2.9"/>
		<circle class="st3" cx="72.6" cy="72.8" r="2.9"/>
		<circle class="st3" cx="76" cy="68.4" r="2.9"/>
		<circle class="st3" cx="80.3" cy="65.1" r="2.9"/>
		<circle class="st3" cx="85.5" cy="62.9" r="2.9"/>
		<circle class="st3" cx="91.2" cy="62.2" r="2.9"/>
		<circle class="st3" cx="96.9" cy="62.6" r="2.9"/>
		<circle class="st3" cx="102" cy="64.6" r="2.9"/>
		<circle class="st3" cx="106.6" cy="67.5" r="2.9"/>
		<circle class="st3" cx="109.8" cy="71.7" r="2.9"/>
		<circle class="st3" cx="112.6" cy="76.5" r="2.9"/>
	</g>
</g>
<g>
	<g>
		<path class="st2" d="M73.7,124.6c3-11.3-3.4-23-14.7-26.5c-11.3-3.5-23.2,2.7-27,13.7l0,0l-0.5,1.7l0,0c-0.3,0.9,0.2,2,1.2,2.2
			L71,127.6c0.9,0.3,2-0.2,2.2-1.2l0,0L73.7,124.6L73.7,124.6z"/>
		<circle class="st2" cx="33.1" cy="108.2" r="2.9"/>
		<circle class="st2" cx="36.1" cy="103.7" r="2.9"/>
		<circle class="st2" cx="40.6" cy="100.4" r="2.9"/>
		<circle class="st2" cx="45.6" cy="98" r="2.9"/>
		<circle class="st2" cx="51" cy="97.1" r="2.9"/>
		<circle class="st2" cx="56.6" cy="97.4" r="2.9"/>
		<circle class="st2" cx="62" cy="99.4" r="2.9"/>
		<circle class="st2" cx="66.9" cy="102.4" r="2.9"/>
		<circle class="st2" cx="70.5" cy="106.5" r="2.9"/>
		<circle class="st2" cx="73.3" cy="111.2" r="2.9"/>
		<circle class="st2" cx="74.2" cy="116.4" r="2.9"/>
		<circle class="st2" cx="74.5" cy="122" r="2.9"/>
	</g>
	<g>
		<path class="st3" d="M72.2,118.2c3-11.3-3.4-23-14.7-26.5c-11.3-3.5-23.2,2.7-27,13.7l0,0l-0.5,1.7l0,0c-0.3,0.9,0.2,2,1.2,2.2
			l38.3,11.7c0.9,0.3,2-0.2,2.2-1.2l0,0L72.2,118.2L72.2,118.2z"/>
		<circle class="st3" cx="31.6" cy="101.8" r="2.9"/>
		<circle class="st3" cx="34.6" cy="97.3" r="2.9"/>
		<circle class="st3" cx="39.1" cy="94" r="2.9"/>
		<circle class="st3" cx="44.1" cy="91.6" r="2.9"/>
		<circle class="st3" cx="49.5" cy="90.6" r="2.9"/>
		<circle class="st3" cx="55.1" cy="91" r="2.9"/>
		<circle class="st3" cx="60.6" cy="93" r="2.9"/>
		<circle class="st3" cx="65.4" cy="96" r="2.9"/>
		<circle class="st3" cx="69" cy="100.1" r="2.9"/>
		<circle class="st3" cx="71.8" cy="104.7" r="2.9"/>
		<circle class="st3" cx="72.7" cy="110" r="2.9"/>
		<circle class="st3" cx="73" cy="115.6" r="2.9"/>
	</g>
</g>
<g>
	<g>
		<path class="st2" d="M68.5,158.6c3-11.3-3.4-23-14.7-26.5c-11.3-3.5-23.2,2.7-27,13.7l0,0l-0.5,1.7l0,0c-0.3,0.9,0.2,2,1.2,2.2
			l38.3,11.7c0.9,0.3,2-0.2,2.2-1.2l0,0L68.5,158.6L68.5,158.6z"/>
		<circle class="st2" cx="27.9" cy="142.2" r="2.9"/>
		<circle class="st2" cx="30.9" cy="137.7" r="2.9"/>
		<circle class="st2" cx="35.3" cy="134.3" r="2.9"/>
		<circle class="st2" cx="40.4" cy="132" r="2.9"/>
		<circle class="st2" cx="45.8" cy="131" r="2.9"/>
		<circle class="st2" cx="51.4" cy="131.4" r="2.9"/>
		<circle class="st2" cx="56.8" cy="133.4" r="2.9"/>
		<circle class="st2" cx="61.7" cy="136.4" r="2.9"/>
		<circle class="st2" cx="65.2" cy="140.5" r="2.9"/>
		<circle class="st2" cx="68" cy="145.1" r="2.9"/>
		<circle class="st2" cx="68.9" cy="150.4" r="2.9"/>
		<circle class="st2" cx="69.3" cy="155.9" r="2.9"/>
	</g>
	<g>
		<path class="st3" d="M67,152.2c3-11.3-3.4-23-14.7-26.5c-11.3-3.5-23.2,2.7-27,13.7l0,0l-0.5,1.7l0,0c-0.3,0.9,0.2,2,1.2,2.2
			l38.3,11.7c0.9,0.3,2-0.2,2.2-1.2l0,0L67,152.2L67,152.2z"/>
		<circle class="st3" cx="26.4" cy="135.7" r="2.9"/>
		<circle class="st3" cx="29.4" cy="131.2" r="2.9"/>
		<circle class="st3" cx="33.9" cy="127.9" r="2.9"/>
		<circle class="st3" cx="38.9" cy="125.5" r="2.9"/>
		<circle class="st3" cx="44.3" cy="124.6" r="2.9"/>
		<circle class="st3" cx="49.9" cy="124.9" r="2.9"/>
		<circle class="st3" cx="55.3" cy="127" r="2.9"/>
		<circle class="st3" cx="60.2" cy="130" r="2.9"/>
		<circle class="st3" cx="63.8" cy="134.1" r="2.9"/>
		<circle class="st3" cx="66.5" cy="138.7" r="2.9"/>
		<circle class="st3" cx="67.5" cy="143.9" r="2.9"/>
		<circle class="st3" cx="67.8" cy="149.5" r="2.9"/>
	</g>
</g>
<path class="st4" d="M36.6,81.7H35c-2,0-3.6-1.6-3.6-3.6V52.3c0-2,1.6-3.6,3.6-3.6h1.6c2,0,3.6,1.6,3.6,3.6v25.9
	C40.2,80.1,38.6,81.7,36.6,81.7z"/>
<circle class="st4" cx="35.8" cy="39" r="4.7"/>
<path class="st5" d="M13.6,129.3v54.2c0,9.8,8,17.7,17.7,17.7h113.4c9.8,0,17.7-8,17.7-17.7v-54.2H13.6z"/>
<g>
	<path class="st6" d="M100.1,154c-0.2,0-0.4,0-0.6,0c-1.7-3.8-5.5-6.5-9.9-6.5c-4.4,0-8.2,2.7-9.9,6.5c-0.1,0-0.2,0-0.3,0
		c-5.3,0-10.4,5.3-10.4,10.6c0,4.2,3.5,9.8,7.2,11.1c1.2-0.3,3-0.8,5.3-1.2c-2.6-0.9-2.8-2.6-2.8-2.7c0-0.2,0.1-0.4,0.3-0.4
		c0.2,0,0.4,0.1,0.4,0.3c0,0.1,0.3,2,4,2.4c0,0,0.1,0,0.1,0c0.9-0.1,1.8-0.2,2.7-0.3c-0.8-1.1-1.3-3-1.3-3.2c0-0.2,0.1-0.4,0.3-0.5
		c0.2,0,0.4,0.1,0.5,0.3c0.2,0.7,0.7,2.7,1.5,3.3c0,0,0,0,0,0.1c2.9-0.1,5.9-0.1,9.3,0.4c0.2-0.1,0.3-0.1,0.4-0.1
		c3.3-0.7,3.5-2.4,3.5-2.4c0-0.2,0.2-0.4,0.4-0.3c0.2,0,0.4,0.2,0.3,0.4c0,0.1-0.2,1.8-2.8,2.8c1.6,0.3,3.3,0.6,5,1.1
		c3.6-1.4,6.9-6.8,6.9-10.9C110.4,159.5,105.4,154,100.1,154z"/>
	<g>
		<circle class="st7" cx="107.8" cy="149.1" r="11.7"/>
		<g>
			<path class="st4" d="M104.9,147.5c-1,0.1-1.2,1.3-1.3,2.1l0,0v0c0,0.1,0,0.2,0,0.3c0,0.4,0,0.7-0.1,1c0,0.2-0.1,0.5-0.1,0.5
				c-0.4,0-0.6-0.5-0.7-0.7c-0.2-0.6-0.4-1.2-0.5-1.8c-0.1-0.7-0.2-1.4-0.2-2.1c0-0.3,0-0.6,0-0.9c0-0.1,0-0.2,0-0.3
				c0-0.1,0-0.2,0-0.2c0.1-0.5-0.6,0-0.8,0.2c-0.8,1.4-0.5,3-0.5,4.4c0,0.4,0,0.8-0.1,1.2c0,0.3-0.1,0.8-0.3,1c-0.1,0.1-0.4,0-0.5,0
				c-0.2-0.1-0.3-0.3-0.3-0.5c0-0.2-0.3-0.1-0.4,0c-0.2,0.2-0.3,0.5-0.3,0.7c0.1,0.5,0.6,1,1.1,0.8c0.9-0.3,1.2-1.3,1.5-2.1
				c0.1-0.4,0.2-0.8,0.2-1.2c0.1,0.6,0.3,1.1,0.6,1.7c0.2,0.4,0.5,0.8,1,0.7c0.4-0.1,0.6-0.5,0.8-0.9c0.2,0.4,0.4,0.7,0.9,0.6
				c0.5,0,0.9-0.6,1.1-0.9c0.2-0.5,0.3-1,0.3-1.5C106.1,148.8,105.9,147.4,104.9,147.5z M105.2,150.8c0,0.1,0,0.2-0.1,0.3
				c-0.2,0-0.3-0.3-0.4-0.4c-0.2-0.3-0.2-0.7-0.3-1c0-0.4,0-0.7,0-1.1c0-0.1,0-0.2,0.1-0.3c0.5,0.3,0.6,0.9,0.6,1.4
				C105.2,150.1,105.3,150.5,105.2,150.8z"/>
			<path class="st4" d="M116.5,148.9c-1-0.4-1.6,1-1.8,1.8c-0.2,0.7-0.4,2,0.5,2.4c0.4,0.2,1-0.1,1.2-0.4c0.3-0.4,0.5-0.8,0.6-1.3
				C117.2,150.6,117.4,149.2,116.5,148.9z M115.9,152.2c0,0.1-0.1,0.2-0.1,0.2c-0.2-0.1-0.2-0.4-0.2-0.6c-0.1-0.4,0-0.7,0-1.1
				c0.1-0.4,0.2-0.7,0.3-1c0-0.1,0.1-0.2,0.1-0.2c0.4,0.5,0.3,1.1,0.2,1.7C116.1,151.5,116,151.9,115.9,152.2z"/>
			<path class="st4" d="M113.7,149c0.2-0.3,0.4-0.5,0.6-0.8c0.4-0.6,0.8-1.3,0.7-2c0-0.7-0.9-0.7-1.4-0.5c-0.7,0.3-1.1,1-1.2,1.7
				c-0.3,0.9-0.4,1.8-0.4,2.7c0,0,0,0,0,0c-0.3,0.4-1,1.2-1.5,0.9c-0.1-0.1-0.2-0.3-0.3-0.4c0.4-0.5,0.8-0.9,1.2-1.4
				c0.3-0.5,0.5-1.3-0.1-1.6c-0.5-0.3-1.1,0-1.5,0.5c-0.3,0.4-0.5,1-0.5,1.5c0,0.3-0.1,0.8,0,1.2c-0.3,0.2-0.7,0.3-1,0.2
				c-0.4-0.1-0.5-0.5-0.6-0.8c-0.1-0.5-0.1-1,0-1.5c0-0.2,0.1-0.3,0.1-0.4c0,0,0-0.1,0-0.1c0.2,0.1,0.4,0.5,0.4,0.7
				c0.1,0.3,1-0.2,0.9-0.5c-0.1-0.3-0.2-0.7-0.6-0.9c-0.4-0.2-0.9,0.1-1.1,0.4c-0.6,0.6-0.7,1.6-0.7,2.4c0,0.5,0.1,1.2,0.6,1.5
				c0.6,0.4,1.5,0,2.1-0.3c0.2,0.4,0.5,0.7,1,0.6c0.6-0.1,1.2-0.4,1.7-0.9c0,0.5,0.1,1,0.5,1.2c0.6,0.3,1.2,0,1.6-0.5
				c0.5-0.6,0.7-1.5,0.5-2.2C114.3,149.2,114,149,113.7,149z M110.1,148.6c0-0.1,0.1-0.3,0.2-0.4c0,0,0,0,0,0
				c0.3,0.1,0.3,0.4,0.3,0.6c-0.1,0.4-0.3,0.8-0.6,1.1c0-0.1,0-0.1,0-0.2C110,149.4,110,149,110.1,148.6z M113.5,146.7
				c0.1-0.1,0.2-0.3,0.3-0.4c0,0,0,0,0,0c0.4,0.5,0,1.1-0.2,1.5c-0.2,0.4-0.5,0.8-0.8,1.2c0.1-0.4,0.1-0.8,0.2-1.2
				C113.2,147.5,113.3,147.1,113.5,146.7z M113.3,151.5c0,0-0.1,0.1-0.1,0.2c0,0-0.1,0-0.1,0c-0.3-0.1-0.3-0.7-0.3-0.9
				c0-0.2,0-0.4,0-0.6c0.1-0.1,0.2-0.2,0.3-0.4c0.2-0.2,0.4,0.1,0.4,0.4C113.6,150.6,113.5,151.1,113.3,151.5z"/>
		</g>
	</g>
	<g>
		<path class="st7" d="M55.4,157c-0.1,0.1,0.3,0.2,0.4,0.3c0,0.1-0.2,0-0.3,0c0,0.1,0.1,0.1,0.2,0.2c0,0-0.1,0-0.1,0.1
			c0.2,0.1,0.3,0.5,0.6,0.6c0.5,0.2,1.2,0.4,1.2,0.5c0.1-0.9-0.3-1.8,0.4-2.6c0-0.1-0.1-0.1-0.1-0.2c0.1,0,0.1,0,0.1,0
			c0-0.2-0.2-0.1-0.1-0.3c0,0,0.1,0,0.2,0c0.1,0-0.1-0.1-0.1-0.2c0-0.1,0.2,0,0.2,0c0-0.1-0.3-0.3-0.3-0.5c0.2,0.1,0.3,0.2,0.4,0.3
			c-0.1-0.2-0.3-0.3-0.3-0.6c0.2,0.1,0.3,0.3,0.5,0.4c-0.1-0.3-0.3-0.4-0.4-0.7c0.3,0.1,0.4,0.4,0.6,0.6c-0.1-0.4-0.4-0.8-0.4-1.2
			c0.3,0.3,0.4,0.7,0.6,1.1c0-0.4-0.3-0.9-0.2-1.5c0.2,0.4,0.3,1,0.5,1.4c0.1-0.5-0.3-1.2-0.1-1.7c0.2,0.5,0.2,1.1,0.4,1.6
			c0-0.5-0.1-1.2,0-1.8c0.2,0.5,0.2,1.2,0.3,1.8c0.1-0.4-0.1-1.3,0.2-1.6c0,0.5,0,0.9,0,1.4c0,0.8,0.4,1.5,0.1,2.2
			c-0.3,0.7-0.8,1.3-0.8,2.3c1.1,0.3,1.4,0.3,2.3,0.3c0.4,0,0.7-0.2,1.1-0.1c0.1,0,0.2,0.2,0.3,0.2c0.3,0.1,0.5,0.1,0.8,0.1
			c-0.4,0.1-1.3,0.2-1.4,0.2c-0.2,0-0.8-0.1-0.4-0.1c0.3,0,0.6,0,0.6-0.1c0-0.3-0.5-0.1-0.8,0c-0.9,0.1-1.4,0.3-3,0
			c0.4,0,0.4-0.3,0.4-0.5c-0.1-1.2,0.1-1.5,0.5-2c0.6-1-0.2-1-0.4-1.4c-0.1,0.1,0,0.4,0,0.5c-0.1-0.1-0.2-0.4-0.4-0.5
			c-0.1,0.1,0.1,0.3,0.1,0.5c-0.1-0.1-0.2-0.2-0.3-0.3c-0.1,0.1,0.1,0.3,0.1,0.4c-0.1,0-0.2-0.2-0.3-0.2c-0.1,0.1,0.1,0.1,0,0.3
			c-0.1,0-0.1-0.1-0.2,0c0,0.1,0,0.2,0.1,0.2c0,0.1-0.1,0-0.1,0c-0.1,0,0,0.1,0,0.2c-0.8-0.1-0.2,2.4-0.8,3.3
			c0.4,0.3,1.4,0.2,1.9,0.1c-0.7,0.5-1.4,0.3-2.2,0.4c-0.1,0-0.2,0.1-0.3,0.1c-0.4,0.1-0.9,0.3-1.3,0.4c-0.5,0.2-1.9,0.5-2.1,0.5
			c3.7-1.3,3-1.5,3.4-1.7c-0.6-0.2-0.8-0.9-1.2-1.1c0,0,0-0.1,0.1-0.1c0-0.1-0.1,0-0.2,0c0-0.1,0-0.1,0.1-0.1c0-0.1-0.2,0-0.3-0.1
			c0-0.1,0.1-0.1,0.2-0.1c-0.1-0.1-0.3-0.1-0.4-0.2c0.1-0.1,0.2-0.1,0.4-0.1c-0.1-0.1-0.4-0.1-0.5-0.3c0.2,0,0.4,0,0.5,0
			c-0.2-0.2-0.6-0.2-0.7-0.5c0.3,0,0.5,0.1,0.7,0.2c-0.3-0.2-0.7-0.3-0.8-0.7c0.3,0.2,0.6,0.3,0.9,0.5c-0.1-0.3-0.7-0.5-0.9-0.8
			c0.4,0,0.7,0.4,1.1,0.6c-0.2,0-0.5-0.3-0.8-0.4c0.1,0.3,0.6,0.5,0.9,0.7c-0.2,0.1-0.5-0.1-0.7-0.2c0,0.2,0.4,0.4,0.6,0.5
			C55.7,157.1,55.6,157,55.4,157"/>
		<path class="st7" d="M58.6,150.5c-4.1,0-7.4,3.3-7.4,7.4c0,4.1,3.3,7.4,7.4,7.4c4.1,0,7.4-3.3,7.4-7.4
			C66,153.8,62.7,150.5,58.6,150.5 M58.6,150.7c3.9,0,7.1,3.2,7.1,7.1c0,3.9-3.2,7.1-7.1,7.1c-3.9,0-7.1-3.2-7.1-7.1
			C51.5,153.9,54.7,150.7,58.6,150.7"/>
	</g>
	<g>
		<g>
			<g>
				<path class="st4" d="M74,170.3c0.8,1.5,2.5,0.2,2.6-1.1c0.2-1.9-1-3.8-1.9-5.4c-0.1-0.2-0.4,0.1-0.5,0.1c-0.9,0.9-2,2.3-1.3,3.4
					c0.2,0.3,0.9-0.7,0.7-1c-0.3-0.5,0.4-1.3,0.8-1.7c-0.1,0-0.3,0.1-0.4,0.1c0.4,0.6,0.8,1.3,1.2,2c0.2,0.4,0.3,0.8,0.5,1.2
					c0.1,0.3,0.2,0.5,0.3,0.8c-0.3,1.3-0.7,1.5-1.2,0.7C74.5,169,73.8,170,74,170.3L74,170.3z"/>
				<path class="st4" d="M78.9,168.3c-0.3,0.8-0.8-0.7-0.9-0.9c-0.1-0.3-0.3-0.6-0.5-0.8c-0.5-0.4-1.1-0.2-1.6,0.2
					c0.1,0,0.2,0,0.4,0c-0.3-0.8-0.8-2.9,0.9-2.1c0.4,0.2,1-0.8,0.6-1c-1-0.5-1.7-0.1-2.3,0.8c-0.6,1-0.3,2.2,0.1,3.1
					c0.1,0.2,0.2,0.1,0.4,0c1.4-1.1,1.5,1.2,2.3,1.8c0.6,0.5,1.2-0.9,1.3-1.2C79.8,167.6,79.1,167.8,78.9,168.3L78.9,168.3z"/>
			</g>
			<path class="st4" d="M82.4,167.9c0.3,0.9,1.3,0.6,1.8-0.1c0.3-0.5,0.3-1.1,0.3-1.6c0-0.8,0-1.7,0.3-2.5c-0.3,0.2-0.6,0.3-1,0.5
				c0.2,1.1,0.3,3,1.3,3.9c0.7,0.6,1.7-0.8,1.9-1.2c0.3-0.7-0.6-0.2-0.7,0.1c-0.3,0.8-0.8-0.4-0.9-0.6c-0.3-0.9-0.5-1.8-0.6-2.8
				c-0.1-0.5-0.9,0.3-1,0.5c-0.2,0.6-0.3,1.1-0.3,1.7c0,0.3,0,0.7,0,1c0,0.2,0,0.4,0,0.5c0,0.5-0.3,0.2-0.4,0
				C83.1,166.8,82.3,167.6,82.4,167.9L82.4,167.9z"/>
			<path class="st4" d="M89.7,163.5c0.1,1.3,0.2,2.7,0.1,4c0,0.5,0.8-0.2,0.8-0.5c0.1-0.8,0.3-1.2,0.8-1.7c0.6-0.6,0.9-1.3,1.2-2.1
				c0.2-0.6-0.8-0.1-0.9,0.2c-0.4,1-0.4,2.2-0.3,3.3c0,0.3,0,0.7,0.3,0.9c0.4,0.3,1-0.2,1.3-0.4c0.5-0.4,0.1-0.8-0.4-0.4
				c-0.4,0.3-0.3-1.3-0.3-1.5c0-0.7,0.1-1.5,0.4-2.2c-0.3,0.1-0.6,0.1-0.9,0.2c-0.2,0.8-0.5,1.3-1.1,1.9c-0.6,0.6-0.7,1.3-0.8,2.1
				c0.3-0.2,0.6-0.3,0.8-0.5c0.1-1.3,0-2.7-0.1-4C90.6,162.6,89.6,163.2,89.7,163.5L89.7,163.5z"/>
			<g>
				<path class="st4" d="M96.2,167.4c-0.1,1,0.8,1.3,1.7,0.9c0.8-0.5,1.1-1.3,1.3-2.2c0.1-0.7,0.3-1.7-0.4-2.2
					c-0.3-0.2-0.9-0.1-1.2,0.1c-0.7,0.3-1,0.8-1.1,1.4c-0.1,0.5,1,0,1-0.3c0.1-0.6,0.4-0.6,0.6-0.1c0.1,0.4,0.1,0.7,0.1,1.1
					c0,0.4-0.1,0.9-0.3,1.2c-0.1,0.1-0.1,0.3-0.3,0.4c0.1-0.1,0-0.1-0.1-0.1c-0.3-0.1-0.3-0.4-0.3-0.6
					C97.2,166.6,96.2,167.1,96.2,167.4L96.2,167.4z"/>
				<path class="st4" d="M96.5,163.5c0,2.5-0.5,5-1.1,7.4c-0.1,0.5,0.8,0,0.9-0.3c0.7-2.4,1.3-5,1.3-7.5
					C97.6,162.7,96.5,163.2,96.5,163.5L96.5,163.5z"/>
			</g>
			<g>
				<path class="st4" d="M105.3,166.5c-0.5,0.8-0.9,1.8-1.2,2.7c-0.1,0.4-0.2,1,0.1,1.3c0.4,0.5,1.2,0.3,1.7,0.1
					c0.7-0.3,0-0.6-0.5-0.4c-0.3,0.1-0.3-0.7-0.3-0.8c0.1-0.4,0.2-0.9,0.4-1.3c0.2-0.6,0.5-1.1,0.9-1.6
					C106.6,166,105.5,166.2,105.3,166.5L105.3,166.5z"/>
				<path class="st4" d="M102.2,169.2c0,0.8,0.8,0.9,1.4,0.7c0.9-0.3,1.5-1.1,1.9-1.8c0.2-0.4-0.9-0.2-1.1,0.1c-0.1,0.2,0,0,0.1,0
					c-0.1,0-0.1-0.1-0.2-0.1c-0.2-0.1-0.2-0.3-0.2-0.5c0-0.3,0.2-0.7,0.4-0.9c0.3-0.5,0.5,0.2,0.4,0.5c-0.2,0.5,1,0.3,1.1,0
					c0.3-0.7-0.2-1.3-1-1.2c-0.9,0-1.7,0.9-1.8,1.7c-0.4,1.5,1.7,1.7,2.4,0.6c-0.4,0-0.7,0-1.1,0.1c-0.2,0.4-0.4,0.7-0.7,1.1
					c-0.3,0.3-0.6,0-0.6-0.3C103.2,168.5,102.2,168.8,102.2,169.2L102.2,169.2z"/>
			</g>
			<path class="st4" d="M89.6,166.9c-0.5,0.5-0.7-1.3-0.7-1.4c-0.1-0.7-0.1-1.5-0.1-2.3c0-0.5-0.9,0.2-0.9,0.5c0,0.6,0,1.3,0,1.9
				c0,0.3,0,0.7-0.1,1c-0.1,0.4,0,0.5-0.4,0.3c-0.9-0.5-0.6-2.6-0.4-3.5c0.1-0.6-0.8,0-0.9,0.4c-0.2,0.8-0.4,4.4,1.2,4.1
				c1.9-0.4,1.5-3.5,1.5-4.7c-0.3,0.2-0.6,0.3-0.9,0.5c0,1.1,0,2.4,0.4,3.5c0.3,0.9,1.1,0.6,1.7,0C90.4,166.8,90,166.4,89.6,166.9
				L89.6,166.9z"/>
			<path class="st4" d="M102.2,168.7c-0.6,0.3-0.2-1.5-0.2-1.6c0.2-0.7,0.4-1.4,0.7-2.1c0.2-0.5-0.9-0.1-1,0.2
				c-0.2,0.6-0.4,1.2-0.6,1.8c-0.1,0.3-0.3,0.6-0.4,0.9c-0.2,0.3-0.2,0.4-0.4,0.2c-0.6-0.8,0.3-2.7,0.8-3.4c0.3-0.5-0.8-0.3-0.9,0
				c-0.4,0.7-1.9,4-0.3,4.2c1.8,0.3,2.5-2.8,3-4c-0.3,0.1-0.7,0.1-1,0.2c-0.4,1.1-0.8,2.3-0.8,3.4c0,1,0.9,0.9,1.6,0.6
				C103,169,102.8,168.5,102.2,168.7L102.2,168.7z"/>
			<path class="st4" d="M95.8,164.2c0.1-1.3-1.7-0.8-2.3-0.2c-0.7,0.8-0.9,2-0.8,3c0.1,0.9,0.8,1.3,1.7,0.7
				C95.5,166.9,95.5,165.3,95.8,164.2c-0.4,0.1-0.7,0.2-1.1,0.3c-0.1,0.7-1,4.5,1.1,3.6c0.5-0.2,0.6-0.9-0.1-0.6
				c-0.2,0.1-0.2-1.1-0.2-1.1C95.5,165.6,95.6,164.9,95.8,164.2c0.1-0.5-1,0-1.1,0.3c-0.1,0.7-0.2,1.4-0.4,2c0,0.2-0.2,0.7-0.3,0.7
				c-0.2,0-0.3-0.3-0.3-0.4c-0.2-0.5-0.1-1,0-1.5c0-0.3,0.1-0.5,0.3-0.8c0.1-0.1,0.1-0.3,0.2-0.4c0.2-0.2,0.5,0.3,0.5,0.4
				C94.7,165,95.7,164.5,95.8,164.2L95.8,164.2z"/>
			<g>
				<path class="st4" d="M78.6,165.2c0.3,0.8,0.5,4.3,1.9,3.8c1.7-0.7,1-3.7,0.8-4.9c0-0.5-0.9,0.3-0.8,0.6c0.1,0.9,0.2,1.7,0.3,2.6
					c0,0.3,0.1,1-0.3,0.8c-0.5-0.2-0.6-1.3-0.7-1.7c-0.1-0.6-0.2-1.3-0.4-1.9C79.2,164,78.5,164.8,78.6,165.2L78.6,165.2z"/>
				<path class="st4" d="M80.5,164.7c0.4,1.7,0.8,3.3,1.3,5c0.1,0.4,0.5,2-0.1,1.9c-1-0.1,0.1-2.9,0.3-3.2c0.3-0.6-0.4-0.5-0.6,0
					c-0.6,1.1-1.1,2.6-0.5,3.8c0.2,0.5,0.9,0.5,1.2,0.1c0.6-0.7,0.7-1.7,0.5-2.7c-0.2-1.8-0.8-3.7-1.2-5.5
					C81.3,163.5,80.5,164.3,80.5,164.7L80.5,164.7z"/>
			</g>
			<path class="st4" d="M97.9,164.5c0.8,0.8,1.8,1,2.7,0.5c0.1-0.1,0.4-0.2,0.3-0.4c-0.1-0.2-0.4,0-0.5,0c-0.6,0.3-1.3-0.2-1.7-0.6
				C98.4,163.8,97.7,164.3,97.9,164.5L97.9,164.5z"/>
		</g>
	</g>
	<g>
		<path class="st6" d="M103.5,184.7v-8.2c-12.8-3.6-23.6-1.1-27.3,0v8.4C79.7,183.9,90.6,181.3,103.5,184.7z"/>
		<path class="st6" d="M77.4,185.4c2,0.6,6.4,1.6,12.1,1.6c5.8,0,10.4-1.2,12.6-1.8C91,182.5,81.6,184.3,77.4,185.4z"/>
	</g>
</g>
</svg>
