<?xml version="1.0" encoding="utf-8"?>
<!-- Generator: Adobe Illustrator 19.0.0, SVG Export Plug-In . SVG Version: 6.00 Build 0)  -->
<svg version="1.1" id="lupa" xmlns="http://www.w3.org/2000/svg" xmlns:xlink="http://www.w3.org/1999/xlink" x="0px" y="0px"
	 viewBox="0 0 266 207" style="enable-background:new 0 0 266 207;" xml:space="preserve">
<style type="text/css">
	.st0{fill:#519E38;}
	.st1{fill:#F9F5DC;}
</style>
<g>
	<path class="st0" d="M215,92.6c7.7-21.6-3.1-45.5-24.5-54.1s-45.7,1.6-54.9,22.5l0,0l-1.3,3.3l0,0c-0.7,1.8,0.2,3.9,2,4.6l73,28.9
		c1.8,0.7,3.9-0.2,4.6-2l0,0L215,92.6L215,92.6z"/>
	<circle class="st0" cx="138.3" cy="54.2" r="5.7"/>
	<circle class="st0" cx="144.9" cy="45.8" r="5.7"/>
	<circle class="st0" cx="154.1" cy="40" r="5.7"/>
	<circle class="st0" cx="164.4" cy="36.2" r="5.7"/>
	<circle class="st0" cx="175" cy="35.2" r="5.7"/>
	<circle class="st0" cx="185.9" cy="36.8" r="5.7"/>
	<circle class="st0" cx="196.2" cy="41.6" r="5.7"/>
	<circle class="st0" cx="205.3" cy="48.2" r="5.7"/>
	<circle class="st0" cx="211.6" cy="56.7" r="5.7"/>
	<circle class="st0" cx="216.3" cy="66.2" r="5.7"/>
	<circle class="st0" cx="217.3" cy="76.6" r="5.7"/>
	<circle class="st0" cx="217.1" cy="87.6" r="5.7"/>
</g>
<g>
	<path class="st0" d="M215.3,168.9c0.6-22.9-17-42.4-40-43.8c-23-1.5-43,15.6-45.3,38.4l0,0l-0.2,3.5l0,0c-0.1,1.9,1.4,3.6,3.3,3.7
		l78.3,5c1.9,0.1,3.6-1.4,3.7-3.3v0L215.3,168.9L215.3,168.9z"/>
	<circle class="st0" cx="130.4" cy="156" r="5.7"/>
	<circle class="st0" cx="134.2" cy="146" r="5.7"/>
	<circle class="st0" cx="141.1" cy="137.7" r="5.7"/>
	<circle class="st0" cx="149.7" cy="130.9" r="5.7"/>
	<circle class="st0" cx="159.5" cy="126.6" r="5.7"/>
	<circle class="st0" cx="170.4" cy="124.8" r="5.7"/>
	<circle class="st0" cx="181.6" cy="126.2" r="5.7"/>
	<circle class="st0" cx="192.3" cy="129.6" r="5.7"/>
	<circle class="st0" cx="200.9" cy="135.9" r="5.7"/>
	<circle class="st0" cx="208.3" cy="143.4" r="5.7"/>
	<circle class="st0" cx="212.5" cy="153" r="5.7"/>
	<circle class="st0" cx="215.7" cy="163.5" r="5.7"/>
</g>
<g>
	<path class="st0" d="M120.9,96.4C105,79.8,78.8,78.6,61.6,94s-19.1,41.5-4.5,59.2l0,0l2.3,2.6l0,0c1.3,1.4,3.5,1.6,5,0.3l58.7-52.2
		c1.4-1.3,1.6-3.5,0.3-5l0,0L120.9,96.4L120.9,96.4z"/>
	<circle class="st0" cx="52" cy="147.7" r="5.7"/>
	<circle class="st0" cx="47.6" cy="138" r="5.7"/>
	<circle class="st0" cx="46.5" cy="127.1" r="5.7"/>
	<circle class="st0" cx="47.7" cy="116.3" r="5.7"/>
	<circle class="st0" cx="51.6" cy="106.3" r="5.7"/>
	<circle class="st0" cx="57.9" cy="97.3" r="5.7"/>
	<circle class="st0" cx="66.8" cy="90.2" r="5.7"/>
	<circle class="st0" cx="76.8" cy="85.1" r="5.7"/>
	<circle class="st0" cx="87.3" cy="83.3" r="5.7"/>
	<circle class="st0" cx="97.8" cy="83.4" r="5.7"/>
	<circle class="st0" cx="107.6" cy="87.2" r="5.7"/>
	<circle class="st0" cx="117.3" cy="92.3" r="5.7"/>
</g>
<g>
	<path class="st1" d="M113.7,92.8c-15.8-16.5-42.1-17.7-59.3-2.3s-19.1,41.5-4.5,59.2l0,0l2.3,2.6l0,0c1.3,1.4,3.5,1.6,5,0.3
		l58.6-52.2c1.4-1.3,1.6-3.5,0.3-5l0,0L113.7,92.8L113.7,92.8z"/>
	<circle class="st1" cx="44.9" cy="144.2" r="5.7"/>
	<circle class="st1" cx="40.4" cy="134.5" r="5.7"/>
	<circle class="st1" cx="39.3" cy="123.6" r="5.7"/>
	<circle class="st1" cx="40.5" cy="112.8" r="5.7"/>
	<circle class="st1" cx="44.4" cy="102.8" r="5.7"/>
	<circle class="st1" cx="50.7" cy="93.8" r="5.7"/>
	<circle class="st1" cx="59.6" cy="86.7" r="5.7"/>
	<circle class="st1" cx="69.6" cy="81.6" r="5.7"/>
	<circle class="st1" cx="80.1" cy="79.8" r="5.7"/>
	<circle class="st1" cx="90.6" cy="79.8" r="5.7"/>
	<circle class="st1" cx="100.4" cy="83.7" r="5.7"/>
	<circle class="st1" cx="110.1" cy="88.7" r="5.7"/>
</g>
<g>
	<path class="st1" d="M204.1,160.9c0.6-22.9-17-42.4-40-43.8c-23-1.5-43,15.6-45.3,38.4l0,0l-0.2,3.5l0,0c-0.1,1.9,1.4,3.6,3.3,3.7
		l78.3,5c1.9,0.1,3.6-1.4,3.7-3.3l0,0L204.1,160.9L204.1,160.9z"/>
	<circle class="st1" cx="119.2" cy="148" r="5.7"/>
	<circle class="st1" cx="123" cy="138" r="5.7"/>
	<circle class="st1" cx="129.9" cy="129.6" r="5.7"/>
	<circle class="st1" cx="138.5" cy="122.9" r="5.7"/>
	<circle class="st1" cx="148.3" cy="118.6" r="5.7"/>
	<circle class="st1" cx="159.2" cy="116.7" r="5.7"/>
	<circle class="st1" cx="170.4" cy="118.1" r="5.7"/>
	<circle class="st1" cx="181.1" cy="121.6" r="5.7"/>
	<circle class="st1" cx="189.7" cy="127.8" r="5.7"/>
	<circle class="st1" cx="197.1" cy="135.3" r="5.7"/>
	<circle class="st1" cx="201.3" cy="145" r="5.7"/>
	<circle class="st1" cx="204.5" cy="155.4" r="5.7"/>
</g>
<g>
	<path class="st1" d="M208.3,85.5c7.7-21.6-3.1-45.5-24.5-54.1S138,33,128.8,53.9l0,0l-1.3,3.3l0,0c-0.7,1.8,0.2,3.9,2,4.6l73,28.9
		c1.8,0.7,3.9-0.2,4.6-2l0,0L208.3,85.5L208.3,85.5z"/>
	<circle class="st1" cx="131.5" cy="47" r="5.7"/>
	<circle class="st1" cx="138.2" cy="38.7" r="5.7"/>
	<circle class="st1" cx="147.4" cy="32.9" r="5.7"/>
	<circle class="st1" cx="157.6" cy="29.1" r="5.7"/>
	<circle class="st1" cx="168.2" cy="28" r="5.7"/>
	<circle class="st1" cx="179.2" cy="29.6" r="5.7"/>
	<circle class="st1" cx="189.4" cy="34.4" r="5.7"/>
	<circle class="st1" cx="198.5" cy="41" r="5.7"/>
	<circle class="st1" cx="204.8" cy="49.6" r="5.7"/>
	<circle class="st1" cx="209.5" cy="59" r="5.7"/>
	<circle class="st1" cx="210.5" cy="69.5" r="5.7"/>
	<circle class="st1" cx="210.3" cy="80.4" r="5.7"/>
</g>
</svg>
