<?xml version="1.0" encoding="utf-8"?>
<!-- Generator: Adobe Illustrator 19.0.0, SVG Export Plug-In . SVG Version: 6.00 Build 0)  -->
<svg version="1.1" xmlns="http://www.w3.org/2000/svg" xmlns:xlink="http://www.w3.org/1999/xlink" x="0px" y="0px"
	 viewBox="0 0 303.8 216" style="enable-background:new 0 0 303.8 216;" xml:space="preserve">
<style type="text/css">
	.st0{fill:#519E38;}
	.st1{fill:#FEBEBD;}
	.st2{fill:#9D360A;}
	.st3{fill:#CA655F;}
	.st4{fill:#0E3656;}
	.st5{fill:#446666;}
	.st6{fill:#FFFFFF;}
	.st7{fill:#F4E6C6;}
	.st8{fill:none;stroke:#FCF1D9;stroke-width:10;stroke-linecap:round;stroke-miterlimit:10;}
</style>
<g id="Layer_2">
</g>
<g id="kolba_4">
</g>
<g id="kolba_3">
</g>
<g id="kolby">
</g>
<g id="doma">
</g>
<g id="butylka_3">
</g>
<g id="butylka_2">
</g>
<g id="butylka_1">
</g>
<g id="vanna_2">
</g>
<g id="sneg">
</g>
<g id="vanna_1">
</g>
<g id="shariki_2">
</g>
<g id="shariki_1">
</g>
<g id="voronka">
</g>
<g id="gradusnik">
</g>
<g id="kolba_2">
</g>
<g id="kolba_1">
</g>
<g id="probirki">
</g>
<g id="potato">
</g>
<g id="zavod">
</g>
<g id="blank">
</g>
<g id="ticks">
</g>
<g id="car">
</g>
<g id="lupa">
	<path class="st0" d="M205.4,81.2c-24.6-45.8-78-20.2-78-20.2s-16.4,8.2-49.6,2.4c-27.8-4.8-40.1,21.2-36.3,35
		c-1.5,7.3-0.2,14.2,4.1,17.3c12,8.7,28.4,13,50.6,11.6c22.2-1.4,83.8,8.7,83.8,8.7s37.3,1.4,31.7-27.7
		C213.2,101.9,211.9,93.2,205.4,81.2z"/>
	<path class="st1" d="M176.6,119c0,0,50.1,1.9,25.5-43.8s-78-20.2-78-20.2s-16.4,8.2-49.6,2.4S30.2,90.1,42.3,98.7
		s28.4,13,50.6,11.6C115,108.9,176.6,119,176.6,119z"/>
	<path class="st2" d="M176.6,118.7c0,0-61.7-10.1-83.8-8.7c-22.2,1.4-38.5-2.9-50.6-11.6c-2-1.4-3.3-3.7-4-6.4
		c-1.6,7.4-0.3,14.4,4,17.5c12,8.7,28.4,13,50.6,11.6c22.2-1.4,83.8,8.7,83.8,8.7s37.5,1.4,31.7-27.9
		C203.8,119.8,176.6,118.7,176.6,118.7z"/>
	<path class="st3" d="M85.6,67c0,0-19.6-10.6-34.4,1.6s-9,36.6,21.5,34.7c30.5-1.9,34,1.3,35-3.2C108.7,95.5,85.6,67,85.6,67z"/>
	<path class="st3" d="M176.4,111c0,0,27.6,6.7,28.3-18.9c0.6-25.5-27-15.9-27-15.9s-8,9-15.1,9.6s-19.9,1.9-14.1,11.9
		C154.3,107.7,176.4,111,176.4,111z"/>
	<path class="st3" d="M188.3,67.9c0,0-5.1-21.2-49.5-11.6s4.2,6.1,10.6,10.3C155.9,70.8,173.9,78.8,188.3,67.9z"/>
	<path class="st3" d="M111.6,98.4c0,0,6.7,6.4,16.1,6.7c9.3,0.3,17.3,2.2,19.4,0S123.2,83,123.2,83S94.6,65,92,66
		C89.4,67,111.6,98.4,111.6,98.4z"/>
	<path class="st3" d="M156.9,76.6c0,0-9-8-20.2-8.3c-11.2-0.3-16.1-4.7-19.3-4.6c-3.2,0.1-12.5,3.1,0,9.8s15.5,11,25,12.7
		C152,87.8,164.9,79.5,156.9,76.6z"/>
	<g>
		<path class="st4" d="M231.3,78.8c-13.8-13.8-36.2-13.8-49.9,0c-13.8,13.8-13.8,36.2,0,49.9c13.8,13.8,36.2,13.8,49.9,0
			C245.1,114.9,245.1,92.6,231.3,78.8z M225.1,122.5c-5,5-11.7,7.8-18.7,7.8s-13.7-2.8-18.7-7.8c-5-5-7.8-11.7-7.8-18.7
			c0-7.1,2.8-13.7,7.8-18.7c5-5,11.7-7.8,18.7-7.8s13.7,2.8,18.7,7.8c5,5,7.8,11.7,7.8,18.7C232.8,110.8,230.1,117.5,225.1,122.5z"
			/>
		<g>
			<g>
				<g>
					<g>
						
							<rect x="239.4" y="123.5" transform="matrix(0.7071 -0.7071 0.7071 0.7071 -28.4362 213.7389)" class="st5" width="8.8" height="35.3"/>
					</g>
				</g>
			</g>
		</g>
		<g>
			<g>
				<g>
					<g>
						
							<rect x="247.4" y="130.1" transform="matrix(0.7071 -0.7071 0.7071 0.7071 -33.604 226.2444)" class="st4" width="17.7" height="47.1"/>
					</g>
				</g>
			</g>
		</g>
		<g>
			<g>
				<g>
					<g>
						<g>
							<path class="st6" d="M199,117.3c-1.7,1.7-4.5,1.7-6.2,0c-3.6-3.6-5.6-8.4-5.6-13.5c0-5.1,2-9.9,5.6-13.5
								c1.7-1.7,4.5-1.7,6.2,0c1.7,1.7,1.7,4.5,0,6.2c-1.9,1.9-3,4.5-3,7.3c0,2.8,1.1,5.3,3,7.3C200.8,112.7,200.8,115.5,199,117.3z
								"/>
						</g>
					</g>
				</g>
			</g>
		</g>
	</g>
	<g>
		<path class="st0" d="M159.1,147.4c0,0-6.5-29-38.2-24s-59.7,28.2-71.1,34.7c-11.4,6.4,46.7,16.1,71.1,12.5
			C145.2,167,159.3,162.8,159.1,147.4z"/>
		<path class="st7" d="M155,141.2c0,0-6.5-29-38.2-24c-31.7,5-59.7,28.2-71.1,34.7c-11.4,6.4,46.7,16.1,71.1,12.5
			S155.3,156.5,155,141.2z"/>
		<path class="st8" d="M120.5,126.1c0,0-9.6,0.8-23.2,6.6"/>
	</g>
</g>
</svg>
