<?xml version="1.0" encoding="utf-8"?>
<!-- Generator: Adobe Illustrator 19.0.0, SVG Export Plug-In . SVG Version: 6.00 Build 0)  -->
<svg version="1.1" xmlns="http://www.w3.org/2000/svg" xmlns:xlink="http://www.w3.org/1999/xlink" x="0px" y="0px"
	 viewBox="0 0 336.2 242" style="enable-background:new 0 0 336.2 242;" xml:space="preserve">
<style type="text/css">
	.st0{fill:#519E38;}
	.st1{fill:#F4F4F4;}
	.st2{fill:#D6D6D6;}
	.st3{fill:#EAEAEA;}
	.st4{fill:#FFFFFF;}
	.st5{fill:#009373;}
	.st6{fill:#58A840;}
	.st7{fill:#DDD9A8;}
	.st8{fill:#EFEFEF;}
	.st9{fill:#DDDDDD;}
	.st10{fill:#E0E0E0;}
	.st11{fill:#342F90;}
	.st12{fill:#282271;}
	.st13{fill:#1D3805;}
	.st14{fill:#001700;}
	.st15{fill:#A11D21;}
</style>
<g id="Layer_2">
</g>
<g id="kolba_4">
</g>
<g id="kolba_3">
</g>
<g id="kolby">
</g>
<g id="doma">
</g>
<g id="butylka_3">
</g>
<g id="butylka_2">
</g>
<g id="butylka_1">
</g>
<g id="vanna_2">
</g>
<g id="sneg">
</g>
<g id="vanna_1">
</g>
<g id="shariki_2">
</g>
<g id="shariki_1">
</g>
<g id="voronka">
</g>
<g id="gradusnik">
</g>
<g id="kolba_2">
</g>
<g id="kolba_1">
</g>
<g id="probirki">
</g>
<g id="potato">
</g>
<g id="zavod">
</g>
<g id="blank">
</g>
<g id="ticks">
</g>
<g id="car">
</g>
<g id="lupa">
	<g>
		<path class="st0" d="M156.1,59.1c0.1,0,2.1,1.1,4.2,0.6c1.1-0.2,2.3-0.9,3.2-2.2c0.8-1.2,1.6-2.6,2.3-4.1c3.6-7.3,4-13.9,1.2-19.8
			c-1.5-3.2-3.6-5.1-6.4-5.8c-2-0.5-4.2-0.4-6.3,0.1c-0.7,0.2-1.5,0.4-2.2,0.6c-0.5,0.3-9.8,5.4-5.5,16.6
			C149.1,50.7,152.9,55.6,156.1,59.1z M148.7,33.4c1.5-2.2,3.5-3.4,4-3.7c0.7-0.2,1.3-0.4,2-0.5c2.2-0.5,4.1-0.5,5.7-0.1
			c2.4,0.6,4.2,2.3,5.6,5.1c2.6,5.5,2.2,11.7-1.2,18.6c-0.6,1.3-1.4,2.6-2.2,3.9c-0.7,0.9-1.5,1.5-2.4,1.7c-1.4,0.3-2.7-0.2-3.1-0.4
			c-4-4.4-7.1-8.9-9-13.4C146.3,40.3,146.6,36.6,148.7,33.4z"/>
		<path class="st0" d="M173.3,79.7c-0.9-4.3-2.9-8.2-5.8-11.7c-1.9-2.7,0.3-6.1,0.4-6.2l0.3-0.4l0,0c1.1-1.7,2.2-3.4,3-5.2
			c4.5-8.9,4.9-17.6,1.3-25.2c-2.3-4.8-5.8-7.9-10.4-9.1c-2.7-0.7-5.8-0.7-9.1,0c-1.5,0.3-3.1,0.8-4.6,1.4c-0.2,0.1-0.5,0.1-0.7,0.3
			c-0.8,0.3-1.6,0.7-2.4,1.1c-0.9,0.3-1.6,0.5-1.8,0.6l-15.1,3.3L112.4,32l-0.8,0.2l-5.9,1.3l-1.5,0.3l0.5,1.4
			c0.4,1.1,2,3.1,5.3,2.8c0.9-0.1,3.5-0.4,6,6.2c3.9,14.3-4.8,30.6-4.9,30.7l-0.2,0.4l0,0c-3,5.8-3.9,12.2-2.5,18.3
			c1.4,6.6,5.3,12.5,11.1,16.6l0,0l1,0.7c0.2,0.2,0.5,0.3,0.7,0.4l0.2,0.2l12.5,8l0.5,0.3l0.5-0.1l12.4-2.7l12.4-2.7l0.5-0.1
			l0.3-0.5l8.1-12.4l0.2-0.3c0.1-0.2,0.2-0.3,0.3-0.5l0.8-1.2l-0.1,0C173.6,93.2,174.7,86.3,173.3,79.7z M112.4,75.5L112.4,75.5
			c0,0,9.1-16.7,5-31.8c-1.9-5-4.4-7.4-7.5-7.1c-3.1,0.3-3.9-1.9-3.9-1.9l5.9-1.3l0.8-0.2l15.9-3.4l15.2-3.3c0,0,0.9-0.3,2-0.6
			c0.8-0.4,1.6-0.7,2.5-1.1c0,0,0,0,0,0c0.2-0.1,0.3-0.2,0.4-0.2c0,0,0.1,0,0.1,0c1.4-0.6,3-1,4.6-1.4c2.8-0.6,5.7-0.8,8.5,0
			c4.2,1.1,7.4,3.9,9.5,8.4c3.4,7.2,2.9,15.5-1.3,24c-1,2.1-2.2,3.9-3.2,5.4l0,0c0,0-2.3,3.3-1,6.5l-49.3,10.6
			c-0.4,0-0.8,0.1-1.2,0.3l-4.6,1C111.2,78.1,111.8,76.8,112.4,75.5z M166.4,68.8c-0.1-0.2-0.3-0.4-0.4-0.6
			C166.2,68.4,166.3,68.6,166.4,68.8z M110.7,79.5c-0.1,0.3-0.2,0.5-0.2,0.8C110.5,80,110.6,79.8,110.7,79.5z M110.1,81.5
			c-0.1,0.3-0.1,0.6-0.2,0.9C110,82.1,110,81.8,110.1,81.5z M109.6,83.6c0,0.3-0.1,0.5-0.1,0.8C109.5,84.1,109.6,83.8,109.6,83.6z
			 M109.3,86.3c0,0.2,0,0.4,0,0.5C109.3,86.7,109.3,86.5,109.3,86.3z M109.2,88.4c0,0.2,0,0.5,0,0.7
			C109.3,88.9,109.2,88.6,109.2,88.4z M109.4,90.6c0,0.2,0,0.4,0.1,0.7C109.4,91,109.4,90.8,109.4,90.6z"/>
		<path class="st0" d="M120.3,57.3c-0.5,1,0,2.2,1,2.7c0.4,0.2,0.8,0.2,1.3,0.1c0.6-0.1,1.1-0.5,1.4-1.1c2.8-6.2-0.6-14.7-0.7-15.1
			c-0.4-1-1.6-1.5-2.6-1.1c-1,0.4-1.5,1.6-1.1,2.6C119.6,45.4,122.4,52.7,120.3,57.3z"/>
		<circle class="st0" cx="117.8" cy="74.9" r="2"/>
	</g>
	<path class="st0" d="M306.6,67.8l-3.8-0.9l-42.5-10.4c-6.2-1.5-12.5,2.3-14,8.5l-9.1,37.3l-0.2,0l-6.5,26.5
		c-1.5,6.2,2.3,12.5,8.5,14l0.2,0l0,0l35.1,8.6l0,0l10.1,2.5l1,0.3c0,0,0,0,0,0l0.2,0h0l0,0c6.2,1.5,12.5-2.3,14-8.5L315,81.8
		C316.6,75.6,312.8,69.4,306.6,67.8z"/>
	<path class="st0" d="M255.9,159.9h-16c-3.9-19.2-27.7-34-56.5-34s-52.6,14.8-56.5,34h-16c-1.5,0-2.8,1.3-2.8,2.8s1.3,2.8,2.8,2.8
		h0.8c10.4,29.6,38.6,50.8,71.8,50.8c33.2,0,61.4-21.2,71.8-50.8h0.8c1.5,0,2.8-1.3,2.8-2.8S257.5,159.9,255.9,159.9z"/>
	<path class="st0" d="M107,187.6c0,0-7.6-37.2-11.8-57.4C91,110,81,104,81,104c-0.3-13-7.1-15.5-7.1-15.5L73,84l1.3-0.3
		c0,0-1-4.9-1.3-6.5c-0.3-1.6-2.5-1-2.5-1L62.2,78l-0.7,0.2l-8.2,1.7c0,0-2.3,0.3-1.9,1.9c0.3,1.6,1.3,6.5,1.3,6.5l1.3-0.3l0.9,4.5
		l-0.1,0c0,0-5.2,5-0.4,17.1c0,0-6.8,9.4-2.7,29.7c4.2,20.2,11.8,57.4,11.8,57.4s1.7,12.5,10.8,10.7c2.5-0.5,4.5-0.9,6.2-1.3
		c4.7-1,6.8-1.4,6.8-1.4l0.4-0.1l0,0l0.5-0.1l2.8-0.6l4-0.8c1.7-0.3,3.7-0.8,6-1.2c0.1,0,0.1,0,0.2,0h0c0,0,0,0,0,0
		C110.3,199.8,107,187.6,107,187.6z"/>
	<g>
		<path class="st1" d="M100.5,183.8c0,0-7.6-37.2-11.8-57.4c-4.2-20.2-14.1-26.2-14.1-26.2c-0.3-13-7.1-15.5-7.1-15.5l-1-4.6
			l-19,3.9l1,4.6l-0.1,0c0,0-5.2,5-0.4,17.1c0,0-6.8,9.4-2.7,29.7c4.2,20.2,11.8,57.4,11.8,57.4s1.7,12.5,10.8,10.7
			c2.5-0.5,4.5-0.9,6.2-1.3c4.7-1,6.8-1.4,6.8-1.4l0.9-0.2l6.8-1.4c1.7-0.4,3.8-0.8,6.2-1.3C103.9,196,100.5,183.8,100.5,183.8z"/>
		<path class="st2" d="M64,72.5l-8.2,1.7L55,74.3L46.8,76c0,0-2.3,0.3-1.9,1.9c0.3,1.6,1.3,6.5,1.3,6.5l10.5-2.1l0.7-0.2l10.5-2.1
			c0,0-1-4.9-1.3-6.5C66.2,71.8,64,72.5,64,72.5z"/>
		<path class="st3" d="M100.5,183.8c0,0-7.6-37.2-11.8-57.4c-4.2-20.2-14.1-26.2-14.1-26.2c-0.3-13-7.1-15.5-7.1-15.5l-1-4.6l-9.5,2
			l24.4,118.6l0.5-0.1l6.8-1.4c1.7-0.4,3.8-0.8,6.2-1.3C103.9,196,100.5,183.8,100.5,183.8z"/>
		<path class="st4" d="M51,127.2c-0.1,0-0.2,0-0.3,0c-1.3,0.1-2.5-0.9-2.6-2.3c-0.6-8.5,2.4-14.4,2.5-14.6c0.6-1.2,2.1-1.7,3.3-1.1
			c1.2,0.6,1.7,2.1,1.1,3.3c0,0.1-2.5,5-2,12C53,125.8,52.2,126.9,51,127.2z"/>
		<g>
			<circle class="st5" cx="71.2" cy="149.6" r="16.3"/>
			<g>
				<g>
					<g>
						<path class="st4" d="M84.4,149.1c0-0.9-0.2-2-0.9-2.5c-0.4-0.3-1-0.2-1.5,0c0-0.4-0.1-0.7-0.2-1.1c-0.1-0.3-0.6-0.1-0.7,0
							c-0.3,0.1-0.5,0.4-0.5,0.7c0.2,1.2,0.3,2.4,0.4,3.6c0,0,0,0,0,0c0,0.4,0,0.9-0.4,1.2c-0.3,0.2-0.7-0.9-0.7-1
							c-0.2-1.2-0.3-2.4-0.3-3.6c0-0.3-0.4-0.3-0.6-0.2c-0.3,0.1-0.6,0.4-0.6,0.7c0,0.9,0,1.9,0,2.8c0,0.4-0.1,0.8-0.2,1.2
							c0,0,0,0,0,0.1c-0.1,0-0.2,0-0.3-0.1c-0.7-0.2-0.8-1.4-0.8-1.9c-0.1-0.8,0-1.6,0.1-2.4c0.1-0.3-0.1-0.4-0.4-0.3
							c-0.2,0.1-0.3,0.2-0.5,0.3c-0.1,0.1-0.3,0.3-0.3,0.3c-0.1,0.1-0.2,0.1-0.3,0.2c-0.6,0.3-1.1,0.2-1.6-0.3c0,0,0,0,0,0
							c-0.1-0.1-0.3-0.2-0.4-0.2c-0.5-0.2-1,0.1-1.4,0.4c-0.1-0.3-0.2-0.7-0.3-1c-0.1-0.3-0.6,0.1-0.7,0.2c-0.2,0.2-0.4,0.5-0.4,0.8
							c-0.3,0.1-0.7,0.4-0.8,0.6c-0.6,0.8-0.7,1.8-0.5,2.7l0,0c0.1,0.8-0.1,2.1-1.1,2.2c-0.2,0-0.4-0.2-0.6-0.4
							c0.2-0.5,0.4-1,0.6-1.5c0.3-0.9,0.4-2-0.3-2.7c-0.5-0.4-1.4,0.2-1.7,0.7c-0.5,0.7-0.5,1.5-0.4,2.2c0.1,0.5,0.3,1.4,0.7,2
							c-0.1,0.2-0.3,0.5-0.5,0.5c-0.2-0.1-0.3-0.3-0.4-0.5c-0.3-0.6-0.5-1.3-0.9-1.9c-0.6-0.8-1.5-0.7-2.3-0.1
							c-0.3-0.8-0.5-1.6-0.3-2.5c0.2-1,1.3-0.8,1.9-0.5c0.4,0.2,1.3-1.1,0.8-1.3c-0.6-0.3-1.4-0.4-2.1,0c-0.6,0.4-1,1-1.3,1.6
							c-0.1,0.1-0.1,0.2-0.1,0.3c-0.3-0.6-0.7-1.1-1-1.6c-0.1-0.2-0.5,0.1-0.6,0.2c-1.1,1.1-2.8,3.3-1.6,4.8c0.3,0.3,1-1,0.7-1.3
							c-0.5-0.6,0.1-1.5,0.7-2.2c0.8,1.3,1.4,2.6,2.1,3.9c0.4,0.8,0.7,1.8,0.5,2.7c-0.3,0.9-1.5,0.6-1.7,0c-0.2-0.6-0.9,0.7-0.7,1.1
							c0.2,0.5,0.5,0.8,1,0.9c0.5,0.1,0.9-0.2,1.3-0.6c0.8-0.8,1.2-2.1,1.1-3.2c-0.1-0.5-0.2-0.9-0.3-1.4c0.3-0.1,0.6-0.2,0.9,0
							c0.6,0.4,0.8,1.3,1.1,1.9c0.2,0.5,0.6,1,1.2,0.8c0.5-0.2,0.8-0.6,1.1-1.1c0.3,0.2,0.6,0.4,1,0.3c0.7-0.1,1.3-0.7,1.6-1.2
							c0.1-0.2,0.3-0.4,0.4-0.6c0.2,0.3,0.4,0.5,0.7,0.7c0.3,0.2,0.7,0.2,1.1,0.1c0.1-0.1,0.3-0.1,0.4-0.2c0.2,1.1,0.3,2.2,0.5,3.4
							c0,0.3,0.4,0.2,0.5,0.1c0.2-0.2,0.4-0.5,0.4-0.8c-0.1-0.9-0.2-1.8-0.3-2.7c0.4-0.1,0.9-0.3,1.1-0.7c0.7-0.8,0.7-1.9,0.5-2.9
							c0-0.2-0.1-0.4-0.1-0.6c0.4-0.1,0.7-0.2,1-0.4c-0.1,0.7-0.1,1.5,0.1,2.2c0.1,0.7,0.4,1.9,1.4,2c0.7,0.1,1.1-0.3,1.5-0.8
							c0.1,0.1,0.1,0.3,0.2,0.4c0.5,0.7,1.3,0.4,1.8,0c0,1.2,0,2.5-0.1,3.7c0,0.3,0.3,0.3,0.5,0.2c0.3-0.1,0.5-0.4,0.5-0.7
							c0.1-0.9,0.1-1.8,0.2-2.7c0.4,0,0.9-0.1,1.2-0.3C84.3,151.2,84.4,150,84.4,149.1z M67.3,150.3c-0.1-0.4-0.2-0.9-0.1-1.3
							c0.1,0,0.2,0,0.2,0c0.6,0.2,0.4,1.2,0.3,1.7c0,0.2-0.1,0.4-0.2,0.6C67.5,150.9,67.4,150.6,67.3,150.3z M72.2,151.5
							c-0.1,0-0.2,0-0.2,0c-0.2-0.1-0.4-0.2-0.5-0.4c-0.4-0.5-0.6-1.1-0.7-1.7c-0.1-0.5-0.1-1,0-1.5c0,0,0.1,0,0.1,0
							c0.5,0.2,0.7,0.7,0.9,1.1l0,0C72,149.9,72.2,150.7,72.2,151.5C72.3,151.5,72.3,151.5,72.2,151.5
							C72.3,151.5,72.3,151.5,72.2,151.5z M74.2,151.2C74.2,151.2,74.1,151.2,74.2,151.2C74.1,151.2,74.1,151.2,74.2,151.2
							c-0.5,0.2-0.8-0.1-0.9-0.5c0,0,0,0,0,0c-0.1-0.8-0.3-1.7-0.5-2.5c-0.1-0.4,0-0.6,0-0.6c0.1,0,0.3,0,0.5,0.2
							c0.5,0.4,0.7,1.1,0.8,1.6C74.2,149.9,74.4,150.6,74.2,151.2z M83,151.2C83,151.2,83,151.2,83,151.2
							C83,151.2,83,151.2,83,151.2c-0.5,0.1-0.7-0.4-0.8-0.7c0,0,0-1.6-0.1-2.4c0-0.1,0-0.5,0.1-0.7c0,0,0,0,0,0c0,0,0,0,0,0
							c0.2,0,0.3,0.1,0.4,0.3c0.4,0.5,0.5,1.2,0.5,1.8C83.3,150,83.3,150.7,83,151.2z"/>
					</g>
				</g>
			</g>
		</g>
	</g>
	<g>
		<g>
			<path class="st6" d="M157.8,64.2c-0.3-0.4-0.5-0.8-0.7-1.3l-55,11.9c-1.6,4.4-2,9.2-0.9,14c1.6,7.3,6.2,13.2,12.4,17l0,0l12.5,8
				l12.4-2.7l12.4-2.7l8.1-12.4l0,0c4.1-6,5.9-13.3,4.3-20.6C162.5,71.1,160.5,67.3,157.8,64.2C157.8,64.2,157.8,64.2,157.8,64.2z"
				/>
		</g>
		<path class="st4" d="M144.7,18.7c2.8-0.6,5.7-0.8,8.5,0c4.2,1.1,7.4,3.9,9.5,8.4c3.4,7.2,2.9,15.5-1.3,24c-1,2.1-2.2,3.9-3.2,5.4
			l0,0c0,0-2.9,4.2-0.4,7.7c0,0,0,0,0,0c2.7,3.2,4.6,6.9,5.5,11.1c1.6,7.3-0.2,14.6-4.3,20.6l0,0l-8.1,12.4l-12.4,2.7l-12.4,2.7
			l-12.5-8l0,0c-6.3-3.8-10.9-9.7-12.4-17c-1.3-6.2-0.3-12.4,2.6-17.9l0,0c0,0,9.1-16.7,5-31.8c-1.9-5-4.4-7.4-7.5-7.1
			c-3.1,0.3-3.9-1.9-3.9-1.9l5.9-1.3l0.8-0.2l15.9-3.4l15.2-3.3c0,0,0.9-0.3,2-0.6c0.8-0.4,1.6-0.7,2.5-1.1c0,0,0,0,0,0
			c0.2-0.1,0.3-0.2,0.4-0.2c0,0,0.1,0,0.1,0C141.6,19.5,143.1,19,144.7,18.7 M151.7,55.1c1.1-0.2,2.3-0.9,3.2-2.2
			c0.8-1.2,1.6-2.6,2.3-4.1c3.6-7.3,4-13.9,1.2-19.8c-1.5-3.2-3.6-5.1-6.4-5.8c-2-0.5-4.2-0.4-6.3,0.1c-0.7,0.2-1.5,0.4-2.2,0.6
			c-0.5,0.3-9.8,5.4-5.5,16.6c2.4,5.7,6.2,10.6,9.4,14C147.6,54.5,149.5,55.5,151.7,55.1 M144.4,17.3c-1.5,0.3-3.1,0.8-4.6,1.4
			c-0.2,0.1-0.5,0.1-0.7,0.3c-0.8,0.3-1.6,0.7-2.4,1.1c-0.9,0.3-1.6,0.5-1.8,0.6l-15.1,3.3l-15.9,3.4l-0.8,0.2l-5.9,1.3l-1.5,0.3
			l0.5,1.4c0.4,1.1,2,3.1,5.3,2.8c0.9-0.1,3.5-0.4,6,6.2c3.9,14.3-4.8,30.6-4.9,30.7l-0.2,0.4l0,0c-3,5.8-3.9,12.2-2.5,18.3
			c1.4,6.6,5.3,12.5,11.1,16.6l0,0l1,0.7c0.2,0.2,0.5,0.3,0.7,0.4l0.2,0.2l12.5,8l0.5,0.3l0.5-0.1l12.4-2.7l12.4-2.7l0.5-0.1
			l0.3-0.5l8.1-12.4l0.2-0.3c0.1-0.2,0.2-0.3,0.3-0.5l0.8-1.2l-0.1,0c3.5-6.1,4.7-13,3.3-19.7c-0.9-4.3-2.9-8.2-5.8-11.7
			c-1.9-2.7,0.3-6.1,0.4-6.2l0.3-0.4l0,0c1.1-1.7,2.2-3.4,3-5.2c4.5-8.9,4.9-17.6,1.3-25.2c-2.3-4.8-5.8-7.9-10.4-9.1
			C150.9,16.6,147.8,16.6,144.4,17.3L144.4,17.3z M144.1,25.1c0.7-0.2,1.3-0.4,2-0.5c2.2-0.5,4.1-0.5,5.7-0.1
			c2.4,0.6,4.2,2.3,5.6,5.1c2.6,5.5,2.2,11.7-1.2,18.6c-0.6,1.3-1.4,2.6-2.2,3.9c-0.7,0.9-1.5,1.5-2.4,1.7c-1.4,0.3-2.7-0.2-3.1-0.4
			c-4-4.4-7.1-8.9-9-13.4c-1.6-4.2-1.3-8,0.8-11.1C141.6,26.6,143.6,25.3,144.1,25.1L144.1,25.1z"/>
		<path class="st4" d="M114,55.4c-0.4,0.1-0.8,0.1-1.3-0.1c-1-0.5-1.5-1.7-1-2.7c2.1-4.6-0.8-11.9-0.8-11.9c-0.4-1,0.1-2.2,1.1-2.6
			c1-0.4,2.2,0.1,2.6,1.1c0.1,0.4,3.5,8.9,0.7,15.1C115.1,54.9,114.6,55.3,114,55.4z"/>
		<path class="st4" d="M108.4,91.1c-0.9,0.2-1.9-0.3-2.3-1.2c-3.8-9.1-0.3-15.2-0.2-15.4c0.6-1,1.8-1.3,2.8-0.7
			c1,0.6,1.3,1.8,0.7,2.7c-0.1,0.2-2.6,4.7,0.4,11.8c0.4,1,0,2.2-1.1,2.6C108.7,91.1,108.6,91.1,108.4,91.1z"/>
		<circle class="st4" cx="109.2" cy="70.3" r="2"/>
		<path class="st4" d="M142.1,82.2c-2,0.4-3.9-0.8-4.4-2.8c-0.4-2,0.8-3.9,2.8-4.4s3.9,0.8,4.4,2.8
			C145.3,79.8,144.1,81.7,142.1,82.2z M140.7,75.6c-1.6,0.4-2.7,2-2.3,3.6c0.4,1.6,2,2.7,3.6,2.3c1.6-0.4,2.7-2,2.3-3.6
			C143.9,76.3,142.3,75.3,140.7,75.6z"/>
		<path class="st4" d="M132.8,90.2c-1.3,0.3-2.6-0.6-2.9-1.9c-0.3-1.3,0.6-2.6,1.9-2.9c1.3-0.3,2.6,0.6,2.9,1.9
			C134.9,88.6,134.1,89.9,132.8,90.2z M131.9,86.1c-0.9,0.2-1.6,1.1-1.3,2.1c0.2,0.9,1.1,1.6,2.1,1.3s1.6-1.1,1.3-2.1
			C133.8,86.5,132.9,85.9,131.9,86.1z"/>
		<path class="st4" d="M129.9,76.9c-1.3,0.3-2.6-0.6-2.9-1.9c-0.3-1.3,0.6-2.6,1.9-2.9c1.3-0.3,2.6,0.6,2.9,1.9
			S131.2,76.6,129.9,76.9z M129.1,72.8c-0.9,0.2-1.6,1.1-1.3,2.1c0.2,0.9,1.1,1.6,2.1,1.3s1.6-1.1,1.3-2.1
			C130.9,73.2,130,72.6,129.1,72.8z"/>
	</g>
	<g>
		<ellipse class="st7" cx="178.2" cy="159.3" rx="57.1" ry="39.6"/>
		<path class="st8" d="M106.4,159.3c10.4,29.6,38.6,50.8,71.8,50.8s61.4-21.2,71.8-50.8H106.4z"/>
		<path class="st9" d="M250.7,159.3H105.6c-1.5,0-2.8-1.3-2.8-2.8v0c0-1.5,1.3-2.8,2.8-2.8h145.1c1.5,0,2.8,1.3,2.8,2.8v0
			C253.5,158.1,252.3,159.3,250.7,159.3z"/>
		<path class="st4" d="M132.3,184.2c-0.7,0-1.3-0.2-1.9-0.5c-8.7-5.1-12.8-14.5-13-14.9c-0.8-2,0.1-4.2,2-5.1c2-0.8,4.2,0.1,5.1,2
			c0,0.1,3.3,7.5,9.8,11.3c1.8,1.1,2.5,3.4,1.4,5.3C134.9,183.5,133.6,184.2,132.3,184.2z"/>
	</g>
	<g>
		<path class="st4" d="M294.6,139.2c-1.5,6.2-7.8,10-14,8.5l-46.2-11.3c-6.2-1.5-10-7.8-8.5-14l15.7-63.8c1.5-6.2,7.8-10,14-8.5
			l46.2,11.3c6.2,1.5,10,7.8,8.5,14L294.6,139.2z"/>
		<path class="st10" d="M302,61.4l-22.4-5.5l-21.2,86.3l22.4,5.5c6.2,1.5,12.5-2.3,14-8.5l15.7-63.8C312,69.2,308.2,62.9,302,61.4z"
			/>
		<g>
			<path class="st11" d="M251.1,86.7c0,0,0.5-5.1-4.4-6.3C246.6,80.4,244.7,85.1,251.1,86.7z"/>
			<path class="st11" d="M251.6,84.2c0,0,4.4-2.6,2.4-7.3C254,76.9,249,78.2,251.6,84.2z"/>
			<path class="st11" d="M250,91.2c0,0,0.5-5.1-4.4-6.3C245.5,84.9,243.6,89.6,250,91.2z"/>
			<path class="st11" d="M248.8,95.8c0,0,0.5-5.1-4.4-6.3C244.4,89.5,242.4,94.3,248.8,95.8z"/>
			<path class="st11" d="M251.1,86.7c0,0,1.9-4.8,6.9-3.5C257.9,83.2,257.5,88.3,251.1,86.7z"/>
			<path class="st11" d="M250,91.2c0,0,1.9-4.8,6.9-3.5C256.8,87.7,256.4,92.8,250,91.2z"/>
			<path class="st11" d="M248.8,95.9c0,0,1.9-4.8,6.8-3.5C255.7,92.3,255.2,97.4,248.8,95.9z"/>
			
				<rect x="249.7" y="83.5" transform="matrix(0.9714 0.2376 -0.2376 0.9714 28.9127 -56.7605)" class="st11" width="0.5" height="16.1"/>
		</g>
		<g>
			<path class="st11" d="M270.8,91.5c0,0,0.5-5.1-4.4-6.3C266.4,85.2,264.5,90,270.8,91.5z"/>
			<path class="st11" d="M271.3,89.1c0,0,4.4-2.6,2.4-7.3C273.8,81.8,268.8,83,271.3,89.1z"/>
			<path class="st11" d="M269.7,96.1c0,0,0.5-5.1-4.4-6.3C265.3,89.7,263.3,94.5,269.7,96.1z"/>
			<path class="st11" d="M268.6,100.7c0,0,0.5-5.1-4.4-6.3C264.1,94.4,262.2,99.1,268.6,100.7z"/>
			<path class="st11" d="M270.9,91.5c0,0,1.9-4.8,6.9-3.5C277.7,88,277.2,93.1,270.9,91.5z"/>
			<path class="st11" d="M269.7,96.1c0,0,1.9-4.8,6.9-3.5C276.6,92.5,276.1,97.6,269.7,96.1z"/>
			<path class="st11" d="M268.6,100.7c0,0,1.9-4.8,6.9-3.5C275.5,97.2,275,102.3,268.6,100.7z"/>
			
				<rect x="269.4" y="88.3" transform="matrix(0.9714 0.2376 -0.2376 0.9714 30.6322 -61.3169)" class="st11" width="0.5" height="16.1"/>
		</g>
		<g>
			<path class="st11" d="M290.6,96.4c0,0,0.5-5.1-4.4-6.3C286.1,90.1,284.2,94.8,290.6,96.4z"/>
			<path class="st11" d="M291.1,93.9c0,0,4.4-2.6,2.4-7.3C293.5,86.6,288.5,87.9,291.1,93.9z"/>
			<path class="st11" d="M289.5,100.9c0,0,0.5-5.1-4.4-6.3C285,94.6,283.1,99.3,289.5,100.9z"/>
			<path class="st11" d="M288.3,105.6c0,0,0.5-5.1-4.4-6.3C283.9,99.2,281.9,104,288.3,105.6z"/>
			<path class="st11" d="M290.6,96.4c0,0,1.9-4.8,6.9-3.5C297.4,92.9,297,98,290.6,96.4z"/>
			<path class="st11" d="M289.5,100.9c0,0,1.9-4.8,6.9-3.5C296.3,97.4,295.9,102.5,289.5,100.9z"/>
			<path class="st11" d="M288.3,105.6c0,0,1.9-4.8,6.9-3.5C295.2,102,294.7,107.1,288.3,105.6z"/>
			
				<rect x="289.2" y="93.2" transform="matrix(0.9714 0.2376 -0.2376 0.9714 32.3499 -65.8684)" class="st11" width="0.5" height="16.1"/>
		</g>
		<path class="st11" d="M269.5,144.9l9.3-37.8l-46.5-11.4l-6.5,26.5c-1.5,6.2,2.3,12.5,8.5,14l46.2,11.3c0,0,0,0,0,0L269.5,144.9z"
			/>
		<path class="st12" d="M267.7,104.4l-9.3,37.8l22.4,5.5c6.2,1.5,12.5-2.3,14-8.5l6.5-26.5L267.7,104.4z"/>
		<g>
			<path class="st4" d="M254.9,117.3c0.2-1,0.4-2.1,0.7-3.2l0,0c-0.5,0.9-1.1,2-1.6,2.8l-1.7,2.8l-1.4-0.3l-0.1-3.2c0-1,0-2.2,0-3.2
				l0,0c-0.3,1-0.6,2.3-0.9,3.2l-0.9,2.9l-1.6-0.4l2.4-7.7l2.4,0.6l0.1,2.8c0,1,0,2,0,3l0,0c0.4-0.9,1-1.8,1.4-2.6l1.5-2.4l2.3,0.6
				l-1.5,8l-1.7-0.4L254.9,117.3z"/>
			<path class="st4" d="M260.5,113.6l0.5,3c0.1,0.6,0.1,1.1,0.2,1.6l0,0c0.2-0.3,0.4-0.8,0.8-1.4l1.5-2.5l1.9,0.5l-2.4,3.4
				c-0.8,1.1-1.6,2.2-2.3,2.8c-0.7,0.5-1.4,0.8-2.3,0.5c-0.4-0.1-0.6-0.2-0.8-0.3l0.5-1.4c0.1,0.1,0.3,0.1,0.6,0.2
				c0.5,0.1,1-0.1,1.2-0.5c0.1-0.1,0.1-0.2,0.1-0.4l-1.3-6L260.5,113.6z"/>
			<path class="st4" d="M267.8,115.4l-0.8,3.3l0.2,0l3-2.7l2.2,0.5l-3.6,2.8c1,0.5,1.2,1.3,1.3,2.3c0.1,0.9,0.1,1.8,0.3,2.7
				l-1.9-0.5c-0.1-0.6-0.1-1.2-0.2-1.9c-0.1-1-0.2-1.7-1.2-1.9l-0.3-0.1l-0.8,3.3l-1.8-0.4l1.9-7.9L267.8,115.4z"/>
			<path class="st4" d="M273.6,123l-1.1,1.9l-1.8-0.5l4.3-7.3l2.3,0.6l0.5,8.4l-1.9-0.5l-0.1-2.2L273.6,123z M275.9,122.1l-0.1-1.8
				c0-0.5,0-1.1,0-1.6l0,0c-0.2,0.4-0.5,1-0.7,1.4l-0.9,1.6L275.9,122.1z"/>
		</g>
	</g>
	<g>
		<circle class="st13" cx="207" cy="77.2" r="1.6"/>
		<circle class="st14" cx="203" cy="87.2" r="1.6"/>
		<circle class="st14" cx="207" cy="89.5" r="1.6"/>
		<circle class="st14" cx="213.9" cy="80.6" r="1.6"/>
		<circle class="st14" cx="191.3" cy="57.3" r="1.6"/>
		<circle class="st14" cx="204.3" cy="46" r="1.6"/>
		<circle class="st15" cx="207" cy="66.4" r="1.6"/>
		<circle class="st15" cx="195" cy="74.7" r="1.6"/>
		<circle class="st15" cx="196.6" cy="64.8" r="1.6"/>
		<circle class="st13" cx="199.8" cy="71.5" r="1.6"/>
		<circle class="st13" cx="199.1" cy="57.3" r="1.6"/>
		<circle class="st13" cx="208" cy="57.3" r="1.6"/>
		<circle class="st13" cx="215.5" cy="43" r="1.6"/>
		<circle class="st13" cx="205.9" cy="35.9" r="1.6"/>
		<circle class="st13" cx="203" cy="106.8" r="1.6"/>
		<circle class="st15" cx="202.7" cy="96.4" r="1.6"/>
		<circle class="st13" cx="215.5" cy="73.1" r="1.6"/>
		<circle class="st4" cx="197.2" cy="80.6" r="1.6"/>
		<circle class="st4" cx="213.9" cy="63.7" r="1.6"/>
		<circle class="st4" cx="219" cy="56.2" r="1.6"/>
		<circle class="st4" cx="195.6" cy="47.1" r="1.6"/>
		<circle class="st13" cx="191.7" cy="84" r="1.6"/>
	</g>
</g>
</svg>
