<?xml version="1.0" encoding="utf-8"?>
<!-- Generator: Adobe Illustrator 19.0.0, SVG Export Plug-In . SVG Version: 6.00 Build 0)  -->
<svg version="1.1" xmlns="http://www.w3.org/2000/svg" xmlns:xlink="http://www.w3.org/1999/xlink" x="0px" y="0px"
	 viewBox="0 0 275.1 230" style="enable-background:new 0 0 275.1 230;" xml:space="preserve">
<style type="text/css">
	.st0{fill:#519E38;}
	.st1{fill:#EAAEA4;}
	.st2{fill:#1D3805;}
	.st3{fill:#001700;}
	.st4{fill:#A11D21;}
	.st5{fill:#FFFFFF;}
	.st6{fill:#D77B80;}
	.st7{fill:#EFEFEF;}
	.st8{fill:#DDDDDD;}
</style>
<g id="Layer_2">
</g>
<g id="kolba_4">
</g>
<g id="kolba_3">
</g>
<g id="kolby">
</g>
<g id="doma">
</g>
<g id="butylka_3">
</g>
<g id="butylka_2">
</g>
<g id="butylka_1">
</g>
<g id="vanna_2">
</g>
<g id="sneg">
</g>
<g id="vanna_1">
</g>
<g id="shariki_2">
</g>
<g id="shariki_1">
</g>
<g id="voronka">
</g>
<g id="gradusnik">
</g>
<g id="kolba_2">
</g>
<g id="kolba_1">
</g>
<g id="probirki">
</g>
<g id="potato">
</g>
<g id="zavod">
</g>
<g id="blank">
</g>
<g id="ticks">
</g>
<g id="car">
</g>
<g id="lupa">
	<path class="st0" d="M252.6,129h-22.2c-5.4-26.7-38.4-47.2-78.4-47.2C112,81.8,79,102.3,73.6,129H51.4c-2.1,0-3.9,1.7-3.9,3.9
		c0,2.1,1.7,3.9,3.9,3.9h1.1c14.4,41,53.5,70.5,99.5,70.5s85.1-29.4,99.5-70.5h1.2c2.1,0,3.9-1.7,3.9-3.9
		C256.5,130.7,254.7,129,252.6,129z"/>
	<ellipse class="st1" cx="142.8" cy="130.9" rx="79.2" ry="55"/>
	<g>
		<circle class="st2" cx="137.9" cy="50.1" r="2.1"/>
		<circle class="st3" cx="124.6" cy="44.9" r="2.1"/>
		<circle class="st3" cx="121.6" cy="50.1" r="2.1"/>
		<circle class="st3" cx="133.4" cy="59.3" r="2.1"/>
		<circle class="st3" cx="164.4" cy="29.4" r="2.1"/>
		<circle class="st3" cx="179.4" cy="46.5" r="2.1"/>
		<circle class="st4" cx="152.3" cy="50.1" r="2.1"/>
		<circle class="st4" cx="141.2" cy="34.2" r="2.1"/>
		<circle class="st4" cx="154.4" cy="36.3" r="2.1"/>
		<circle class="st2" cx="145.5" cy="40.6" r="2.1"/>
		<circle class="st2" cx="164.4" cy="39.7" r="2.1"/>
		<circle class="st2" cx="164.4" cy="51.5" r="2.1"/>
		<circle class="st2" cx="183.4" cy="61.4" r="2.1"/>
		<circle class="st2" cx="192.8" cy="48.6" r="2.1"/>
		<circle class="st2" cx="98.6" cy="44.9" r="2.1"/>
		<circle class="st4" cx="112.5" cy="44.4" r="2.1"/>
		<circle class="st2" cx="143.4" cy="61.4" r="2.1"/>
		<circle class="st5" cx="133.4" cy="37.2" r="2.1"/>
		<circle class="st5" cx="155.9" cy="59.3" r="2.1"/>
		<circle class="st5" cx="165.9" cy="66.1" r="2.1"/>
		<circle class="st5" cx="177.9" cy="35" r="2.1"/>
		<circle class="st2" cx="128.9" cy="29.8" r="2.1"/>
	</g>
	<path class="st6" d="M72.8,132.5h6c0-21,18.1-41.8,25.5-49.4c-5,1.9-9.6,4.2-13.9,6.9c-0.7,1-1.5,1.9-2.2,3
		C78,107,72.8,120.3,72.8,132.5z"/>
	<path class="st6" d="M149.7,91.7c-11.7,14.5-17.6,28.2-17.6,40.9h6c0-24.2,26-48.2,31.7-53.2c-2.4-0.6-4.8-1.1-7.2-1.6
		C159.3,81,154.5,85.7,149.7,91.7z"/>
	<path class="st6" d="M150.9,132.5h6c0-19.7,17.3-39.3,26.7-48.6c-2-0.8-4.1-1.6-6.2-2.3c-2.7,2.8-5.8,6.1-9,10
		C156.8,106.1,150.9,119.9,150.9,132.5z"/>
	<path class="st6" d="M170.9,132.5h6c0-15.6,10.9-31.2,20.1-41.6c-1.7-1.1-3.4-2.1-5.3-3.1c-1.1,1.2-2.1,2.5-3.2,3.8
		C176.8,106.1,170.9,119.9,170.9,132.5z"/>
	<path class="st6" d="M205.4,97.3c-8.8,12.4-13.3,24.2-13.3,35.2h6c0-10.9,5.3-21.8,11.6-30.9C208.3,100.1,206.9,98.7,205.4,97.3z"
		/>
	<path class="st6" d="M148.2,76.3c-1.6-0.1-3.1-0.1-4.7-0.1c-3.2,2.9-8.9,8.4-14.7,15.5c-11.7,14.5-17.6,28.2-17.6,40.9h6
		c0-27,32.4-53.8,32.8-54.1l2.6-1.7L148.2,76.3z"/>
	<path class="st6" d="M127.7,77.2c-2.7,0.4-5.4,0.8-8,1.4c-3.3,3.1-7.7,7.6-12.1,13.1C95.9,106.1,90,119.9,90,132.5h6
		c0-27,32.4-53.8,32.8-54.1l1.8-1.6L127.7,77.2z"/>
	<path class="st7" d="M43.2,130.9c14.4,41,53.5,70.5,99.5,70.5s85.1-29.4,99.5-70.5H43.2z"/>
	<path class="st8" d="M243.4,130.9H42.2c-2.1,0-3.9-1.7-3.9-3.9v0c0-2.1,1.7-3.9,3.9-3.9h201.2c2.1,0,3.9,1.7,3.9,3.9v0
		C247.3,129.1,245.5,130.9,243.4,130.9z"/>
	<path class="st5" d="M79.1,165.4c-0.9,0-1.8-0.2-2.7-0.7c-12.1-7.1-17.8-20.2-18-20.7c-1.2-2.7,0.1-5.9,2.8-7
		c2.7-1.2,5.9,0.1,7,2.8c0.1,0.1,4.6,10.4,13.6,15.7c2.6,1.5,3.4,4.8,1.9,7.3C82.8,164.4,81,165.4,79.1,165.4z"/>
</g>
</svg>
