<?xml version="1.0" encoding="utf-8"?>
<!-- Generator: Adobe Illustrator 19.0.0, SVG Export Plug-In . SVG Version: 6.00 Build 0)  -->
<svg version="1.1" xmlns="http://www.w3.org/2000/svg" xmlns:xlink="http://www.w3.org/1999/xlink" x="0px" y="0px"
	 viewBox="0 0 320.5 236" style="enable-background:new 0 0 320.5 236;" xml:space="preserve">
<style type="text/css">
	.st0{fill:#519E38;}
	.st1{fill:#F9F5DC;}
</style>
<g id="Layer_2">
</g>
<g id="kolba_4">
</g>
<g id="kolba_3">
</g>
<g id="kolby">
</g>
<g id="doma">
</g>
<g id="butylka_3">
</g>
<g id="butylka_2">
</g>
<g id="butylka_1">
</g>
<g id="vanna_2">
</g>
<g id="sneg">
</g>
<g id="vanna_1">
</g>
<g id="shariki_2">
</g>
<g id="shariki_1">
</g>
<g id="voronka">
</g>
<g id="gradusnik">
</g>
<g id="kolba_2">
</g>
<g id="kolba_1">
</g>
<g id="probirki">
</g>
<g id="potato">
</g>
<g id="zavod">
</g>
<g id="blank">
</g>
<g id="ticks">
</g>
<g id="car">
</g>
<g id="lupa">
	<g>
		<path class="st0" d="M227.6,84.7c0,0-35.3,20.6-9.7,48.4s68,10.5,72.3-4.2c4.3-14.7,4-28.5-15-44.3S227.6,84.7,227.6,84.7z"/>
		<path class="st0" d="M192.4,137.6c0,0-29.8-7.8-41.3,18.2c-11.4,26,16.7,35.8,18.3,39.5c1.6,3.8,6.7,6.9,9.5,1.9
			c2.8-5,3-12.5,9.9-7.7s2.7,9.2-0.1,11s2.8,9.8,11,4.2c8.2-5.6,22.1-9.4,25.1-22.9C227.9,168.4,225.3,142.6,192.4,137.6z"/>
		<g>
			<path class="st0" d="M192.3,76.8c-27.2-28.4-72.2-30.4-101.8-4.1S57.7,144,82.7,174.3l-0.1,0l4,4.5l0,0c2.2,2.5,6,2.7,8.5,0.5
				l100.6-89.5c2.5-2.2,2.7-6,0.5-8.5l0,0L192.3,76.8L192.3,76.8z"/>
			<circle class="st0" cx="74.2" cy="164.8" r="9.7"/>
			<circle class="st0" cx="66.5" cy="148.2" r="9.7"/>
			<circle class="st0" cx="64.8" cy="129.6" r="9.7"/>
			<circle class="st0" cx="66.8" cy="111" r="9.7"/>
			<circle class="st0" cx="73.4" cy="93.9" r="9.7"/>
			<circle class="st0" cx="84.3" cy="78.4" r="9.7"/>
			<circle class="st0" cx="99.5" cy="66.3" r="9.7"/>
			<circle class="st0" cx="116.6" cy="57.5" r="9.7"/>
			<circle class="st0" cx="134.6" cy="54.5" r="9.7"/>
			<circle class="st0" cx="152.8" cy="54.5" r="9.7"/>
			<circle class="st0" cx="169.5" cy="61.1" r="9.7"/>
			<circle class="st0" cx="186.1" cy="69.8" r="9.7"/>
		</g>
		<g>
			<path class="st1" d="M179.4,73.9c-27.2-28.4-72.2-30.4-101.8-4s-32.8,71.3-7.8,101.5l-0.1,0l4,4.5l0,0c2.2,2.5,6,2.7,8.5,0.5
				L183,86.8c2.5-2.2,2.7-6,0.5-8.5l0,0L179.4,73.9L179.4,73.9z"/>
			<circle class="st1" cx="61.4" cy="161.9" r="9.7"/>
			<circle class="st1" cx="53.7" cy="145.3" r="9.7"/>
			<circle class="st1" cx="51.9" cy="126.7" r="9.7"/>
			<circle class="st1" cx="53.9" cy="108.1" r="9.7"/>
			<circle class="st1" cx="60.5" cy="91" r="9.7"/>
			<circle class="st1" cx="71.4" cy="75.4" r="9.7"/>
			<circle class="st1" cx="86.7" cy="63.4" r="9.7"/>
			<circle class="st1" cx="103.8" cy="54.6" r="9.7"/>
			<circle class="st1" cx="121.8" cy="51.5" r="9.7"/>
			<circle class="st1" cx="139.9" cy="51.6" r="9.7"/>
			<circle class="st1" cx="156.6" cy="58.1" r="9.7"/>
			<circle class="st1" cx="173.2" cy="66.8" r="9.7"/>
		</g>
		<path class="st1" d="M189.4,130.2c0,0-29.8-7.8-41.3,18.2c-11.4,26,16.7,35.8,18.3,39.5c1.6,3.8,6.7,6.9,9.5,1.9
			c2.8-5,3-12.5,9.9-7.7s2.7,9.2-0.1,11s2.8,9.8,11,4.2c8.2-5.6,22.1-9.4,25.1-22.9S222.3,135.1,189.4,130.2z"/>
		<path class="st0" d="M77,161"/>
		<path class="st1" d="M221.9,78.7c0,0-35.3,20.6-9.7,48.4s68,10.5,72.3-4.2s4-28.5-15-44.3S221.9,78.7,221.9,78.7z"/>
		<path class="st1" d="M236.7,73.3c0,0,8.9-1.7,3.5-11.8c-5.3-10.1,6.3-8.4,8.7-6.6c2.3,1.8,3,9.4,5,5.6c2-3.8,6-9.1,13.3-3.5
			c7.3,5.7-7,6.5-4.3,9.1c2.7,2.6,8-1,8.3-2.7c0.3-1.7,11.7-0.4,6.3,6.8c-5.3,7.2-6.1,0.3-9,3.1s-3.3,5.7-0.7,7.5
			c2.7,1.9-11.3,0.9-11.3,0.9L236.7,73.3z"/>
	</g>
</g>
</svg>
