<?xml version="1.0" encoding="utf-8"?>
<!-- Generator: Adobe Illustrator 19.0.0, SVG Export Plug-In . SVG Version: 6.00 Build 0)  -->
<svg version="1.1" xmlns="http://www.w3.org/2000/svg" xmlns:xlink="http://www.w3.org/1999/xlink" x="0px" y="0px"
	 viewBox="0 0 436 240" style="enable-background:new 0 0 436 240;" xml:space="preserve">
<style type="text/css">
	.st0{fill:#00A296;}
	.st1{fill:#3C505E;}
	.st2{fill:#DEDDDB;}
	.st3{fill:#EAC558;}
	.st4{fill:#FFFFFF;}
	.st5{fill:#62BA47;}
	.st6{fill:#F4E1AB;}
	.st7{fill:#DE504D;}
	.st8{fill:#686868;}
	.st9{fill:#FFC000;}
	.st10{fill:#98505E;}
	.st11{fill:#DC5E68;}
	.st12{fill:#AFAFAF;}
	.st13{fill:#333333;}
	.st14{fill:#B5B5B5;}
	.st15{fill:#D86C23;}
	.st16{fill:#EDA370;}
	.st17{fill:#E5DFD1;}
</style>
<g id="houses">
	<g>
		<rect x="262" y="82" class="st0" width="108.2" height="67.2"/>
		<rect x="305.4" y="107.6" class="st1" width="22.7" height="41.7"/>
		<path class="st2" d="M312.1,131.9c0,1-0.8,1.9-1.8,1.9c-1,0-1.8-0.8-1.8-1.9c0-1,0.8-1.9,1.8-1.9
			C311.3,130.1,312.1,130.9,312.1,131.9z"/>
		<path class="st3" d="M307.3,149.9c0,1.5-1.2,2.7-2.7,2.7l0,0c-1.5,0-2.7-1.2-2.7-2.7V109c0-1.5,1.2-2.7,2.7-2.7l0,0
			c1.5,0,2.7,1.2,2.7,2.7V149.9z"/>
		<path class="st3" d="M332.1,149.9c0,1.5-1.2,2.7-2.7,2.7l0,0c-1.5,0-2.7-1.2-2.7-2.7V109c0-1.5,1.2-2.7,2.7-2.7l0,0
			c1.5,0,2.7,1.2,2.7,2.7V149.9z"/>
		<path class="st3" d="M332.1,107.4c0,1.7-1.4,3.1-3.1,3.1h-24c-1.7,0-3.1-1.4-3.1-3.1l0,0c0-1.7,1.4-3.1,3.1-3.1h24
			C330.7,104.3,332.1,105.6,332.1,107.4L332.1,107.4z"/>
		<path class="st1" d="M271.8,111.8v4.8h10v-6.1h-8.7C272.4,110.5,271.8,111.1,271.8,111.8z M291.5,110.5h-8.7v6.1h10v-4.8
			C292.7,111.1,292.2,110.5,291.5,110.5z M282.7,123.7h8.7c0.7,0,1.3-0.6,1.3-1.4v-4.8h-10V123.7z M271.8,122.3
			c0,0.8,0.6,1.4,1.3,1.4h8.7v-6.1h-10V122.3z"/>
		<path class="st1" d="M340.2,111.8v4.8h10v-6.1h-8.7C340.8,110.5,340.2,111.1,340.2,111.8z M359.9,110.5h-8.7v6.1h10v-4.8
			C361.1,111.1,360.6,110.5,359.9,110.5z M351.1,123.7h8.7c0.7,0,1.3-0.6,1.3-1.4v-4.8h-10V123.7z M340.2,122.3
			c0,0.8,0.6,1.4,1.3,1.4h8.7v-6.1h-10V122.3z"/>
		<g>
			<polygon class="st4" points="269.5,82.4 252.5,82.4 264.5,56.8 314.6,56.8 			"/>
			<rect x="267" y="56.8" class="st4" width="56.2" height="25.6"/>
			<polygon class="st4" points="361.8,82.4 378.8,82.4 366.8,56.8 316.7,56.8 			"/>
			<rect x="308.1" y="56.8" class="st4" width="56.2" height="25.6"/>
		</g>
		<g>
			<path class="st5" d="M332.5,79.9c0,9-7.3,16.4-16.4,16.4c-9.1,0-16.4-7.3-16.4-16.4c0-9.1,7.3-16.4,16.4-16.4
				C325.1,63.5,332.5,70.8,332.5,79.9z"/>
			<g>
				<path class="st4" d="M312,77.5c-1.3,0.1-1.7,1.8-1.8,2.9l0,0v0c0,0.2,0,0.3,0,0.5c0,0.5,0,0.9-0.1,1.5c0,0.2-0.1,0.6-0.1,0.6
					c-0.5,0-0.9-0.7-1-1c-0.3-0.8-0.6-1.7-0.7-2.6c-0.2-0.9-0.3-1.9-0.3-2.9c0-0.4,0-0.8,0-1.2c0-0.2,0-0.3,0-0.5c0-0.1,0-0.3,0-0.3
					c0.1-0.7-0.9,0-1.1,0.3c-1.1,1.9-0.8,4.1-0.7,6.2c0,0.6,0,1.1-0.1,1.7c-0.1,0.4-0.1,1.1-0.5,1.4c-0.2,0.2-0.6,0-0.7,0
					c-0.3-0.1-0.4-0.4-0.5-0.7c-0.1-0.3-0.4-0.1-0.6,0c-0.2,0.2-0.5,0.6-0.4,1c0.1,0.7,0.8,1.4,1.6,1.2c1.2-0.4,1.7-1.8,2-2.9
					c0.1-0.5,0.2-1.1,0.3-1.7c0.2,0.8,0.4,1.6,0.8,2.3c0.3,0.5,0.7,1.1,1.4,1c0.5-0.1,0.9-0.6,1.1-1.3c0.2,0.5,0.6,0.9,1.2,0.9
					c0.7-0.1,1.2-0.8,1.5-1.3c0.3-0.7,0.4-1.4,0.4-2.1C313.7,79.4,313.4,77.4,312,77.5z M312.4,82.3c0,0.1-0.1,0.3-0.1,0.4
					c-0.3,0-0.5-0.4-0.5-0.6c-0.2-0.4-0.3-0.9-0.4-1.4c0-0.5,0-1,0.1-1.5c0-0.1,0.1-0.3,0.1-0.4c0.7,0.4,0.8,1.3,0.9,2
					C312.5,81.2,312.5,81.8,312.4,82.3z"/>
				<path class="st4" d="M328.3,79.5c-1.5-0.5-2.3,1.4-2.6,2.5c-0.3,1-0.6,2.8,0.7,3.4c0.6,0.3,1.3-0.2,1.7-0.6
					c0.4-0.5,0.7-1.1,0.9-1.8C329.4,81.9,329.6,80,328.3,79.5z M327.4,84.2c-0.1,0.1-0.1,0.2-0.2,0.3c-0.2-0.1-0.3-0.6-0.3-0.8
					c-0.1-0.5,0-1,0.1-1.5c0.1-0.5,0.2-1,0.5-1.4c0.1-0.1,0.1-0.2,0.2-0.3c0.6,0.6,0.4,1.6,0.3,2.3
					C327.8,83.2,327.6,83.7,327.4,84.2z"/>
				<path class="st4" d="M324.3,79.7c0.3-0.4,0.5-0.8,0.8-1.1c0.5-0.8,1.1-1.8,1-2.8c-0.1-0.9-1.3-1-2-0.7c-0.9,0.5-1.5,1.4-1.7,2.4
					c-0.4,1.3-0.6,2.5-0.6,3.8v0c-0.5,0.5-1.4,1.7-2.2,1.2c-0.2-0.1-0.3-0.4-0.4-0.6c0.6-0.6,1.1-1.3,1.6-2c0.4-0.7,0.7-1.8-0.1-2.2
					c-0.7-0.4-1.6,0-2.1,0.6c-0.5,0.6-0.7,1.3-0.8,2.1c0,0.4-0.1,1.1,0,1.7c-0.4,0.3-1,0.4-1.5,0.3c-0.6-0.1-0.8-0.7-0.9-1.2
					c-0.2-0.7-0.1-1.4,0-2.1c0-0.2,0.1-0.4,0.2-0.6c0-0.1,0-0.1,0.1-0.2c0.4,0.1,0.5,0.7,0.6,0.9c0.2,0.5,1.4-0.3,1.3-0.8
					c-0.1-0.5-0.3-1-0.9-1.2c-0.5-0.2-1.2,0.2-1.5,0.5c-0.9,0.9-1,2.2-0.9,3.4c0,0.7,0.2,1.7,0.9,2.1c0.9,0.5,2.1,0.1,3-0.5
					c0.2,0.6,0.6,0.9,1.3,0.8c0.9-0.1,1.7-0.6,2.3-1.2c0,0.7,0.2,1.4,0.7,1.7c0.8,0.4,1.7-0.1,2.2-0.7c0.7-0.8,1-2,0.7-3.1
					C325.2,79.9,324.7,79.7,324.3,79.7z M319.4,79.2c0.1-0.2,0.1-0.4,0.2-0.5c0,0,0,0,0,0c0.3,0.1,0.4,0.6,0.4,0.8
					c-0.1,0.6-0.4,1.1-0.8,1.6c0-0.1,0-0.2,0-0.3C319.1,80.2,319.2,79.7,319.4,79.2z M324.1,76.5c0.1-0.2,0.2-0.4,0.4-0.5
					c0,0,0,0,0,0c0.6,0.6,0,1.5-0.3,2.1c-0.3,0.6-0.7,1.2-1.1,1.7c0.1-0.6,0.2-1.1,0.3-1.7C323.6,77.5,323.8,77,324.1,76.5z
					 M323.8,83.2c0,0.1-0.1,0.2-0.1,0.2c0,0-0.1,0-0.1,0c-0.4-0.2-0.4-1-0.4-1.3c0-0.3,0-0.6,0-0.8c0.2-0.2,0.3-0.3,0.5-0.5
					c0.3-0.2,0.6,0.2,0.6,0.5C324.3,81.9,324,82.6,323.8,83.2z"/>
			</g>
		</g>
		<path class="st4" d="M378.8,142.9c-0.1,0-0.2,0-0.3,0c0.7-1.2,1.2-2.5,1.2-4c0-4-3.2-7.2-7.1-7.2c-3,0-5.5,1.9-6.5,4.6
			c-1.2-3.9-5-6.8-9.5-6.8c-5.5,0-9.9,4.2-9.9,9.5c0,0.1,0,0.3,0,0.4c-0.4-0.1-0.9-0.1-1.4-0.1c-3.9,0-7.1,3.2-7.1,7.2
			c0,1.9,0.7,3.7,1.9,5h15.9c-0.9-2.1-2.9-5.4-5.8-5.4c0,0,9.4-3.4,11.2,4.1c0,0,1.5-6.1,8.4-6.2c0,0-3,2.7-3.2,7.5H383
			c0.6-0.9,1-1.9,1-3.1C384,145.4,381.7,142.9,378.8,142.9z"/>
		<path class="st4" d="M397,147.6c0,0-0.1,0-0.1,0c0.3-0.5,0.5-1.2,0.5-1.8c0-1.8-1.4-3.3-3.2-3.3c-1.3,0-2.5,0.9-3,2.1
			c-0.6-1.8-2.3-3.1-4.3-3.1c-2.5,0-4.5,1.9-4.5,4.3c0,0.1,0,0.1,0,0.2c-0.2,0-0.4-0.1-0.6-0.1c-1.8,0-3.2,1.5-3.2,3.3
			c0,0.9,0.3,1.7,0.9,2.2h7.2c-0.4-1-1.3-2.5-2.6-2.4c0,0,4.3-1.5,5.1,1.9c0,0,0.7-2.8,3.8-2.8c0,0-1.4,1.2-1.4,3.4h7.4
			c0.3-0.4,0.4-0.9,0.4-1.4C399.3,148.7,398.3,147.6,397,147.6z"/>
	</g>
	<rect x="44.6" y="82.8" class="st6" width="108.2" height="67.2"/>
	<rect x="88" y="108.4" class="st1" width="22.7" height="41.7"/>
	<path class="st2" d="M94.6,132.7c0,1-0.8,1.9-1.8,1.9c-1,0-1.8-0.8-1.8-1.9c0-1,0.8-1.9,1.8-1.9C93.9,130.9,94.6,131.7,94.6,132.7z
		"/>
	<path class="st3" d="M89.9,150.7c0,1.5-1.2,2.7-2.7,2.7l0,0c-1.5,0-2.7-1.2-2.7-2.7v-40.9c0-1.5,1.2-2.7,2.7-2.7l0,0
		c1.5,0,2.7,1.2,2.7,2.7V150.7z"/>
	<path class="st3" d="M114.7,150.7c0,1.5-1.2,2.7-2.7,2.7l0,0c-1.5,0-2.7-1.2-2.7-2.7v-40.9c0-1.5,1.2-2.7,2.7-2.7l0,0
		c1.5,0,2.7,1.2,2.7,2.7V150.7z"/>
	<path class="st3" d="M114.7,108.2c0,1.7-1.4,3.1-3.1,3.1h-24c-1.7,0-3.1-1.4-3.1-3.1l0,0c0-1.7,1.4-3.1,3.1-3.1h24
		C113.3,105.1,114.7,106.5,114.7,108.2L114.7,108.2z"/>
	<path class="st1" d="M54.4,112.7v4.8h10v-6.1h-8.7C55,111.3,54.4,111.9,54.4,112.7z M74.1,111.3h-8.7v6.1h10v-4.8
		C75.3,111.9,74.8,111.3,74.1,111.3z M65.3,124.5h8.7c0.7,0,1.3-0.6,1.3-1.4v-4.8h-10V124.5z M54.4,123.1c0,0.8,0.6,1.4,1.3,1.4h8.7
		v-6.1h-10V123.1z"/>
	<path class="st1" d="M122.8,112.7v4.8h10v-6.1h-8.7C123.4,111.3,122.8,111.9,122.8,112.7z M142.5,111.3h-8.7v6.1h10v-4.8
		C143.7,111.9,143.2,111.3,142.5,111.3z M133.7,124.5h8.7c0.7,0,1.3-0.6,1.3-1.4v-4.8h-10V124.5z M122.8,123.1
		c0,0.8,0.6,1.4,1.3,1.4h8.7v-6.1h-10V123.1z"/>
	<g>
		<polygon class="st7" points="52,83.2 35.1,83.2 47.1,57.6 97.2,57.6 		"/>
		<rect x="49.6" y="57.6" class="st7" width="56.2" height="25.6"/>
		<polygon class="st7" points="144.4,83.2 161.4,83.2 149.4,57.6 99.3,57.6 		"/>
		<rect x="90.7" y="57.6" class="st7" width="56.2" height="25.6"/>
	</g>
	<g>
		<path class="st5" d="M115.1,80.7c0,9-7.3,16.4-16.4,16.4c-9.1,0-16.4-7.3-16.4-16.4c0-9.1,7.3-16.4,16.4-16.4
			C107.7,64.3,115.1,71.6,115.1,80.7z"/>
		<g>
			<path class="st4" d="M94.6,78.4c-1.3,0.1-1.7,1.8-1.8,2.9l0,0v0c0,0.2,0,0.3,0,0.5c0,0.5,0,0.9-0.1,1.5c0,0.2-0.1,0.6-0.1,0.6
				c-0.5,0-0.9-0.7-1-1c-0.3-0.8-0.6-1.7-0.7-2.6c-0.2-0.9-0.3-1.9-0.3-2.9c0-0.4,0-0.8,0-1.2c0-0.2,0-0.3,0-0.5c0-0.1,0-0.3,0-0.3
				c0.1-0.7-0.9,0-1.1,0.3c-1.1,1.9-0.8,4.1-0.7,6.2c0,0.6,0,1.1-0.1,1.7c-0.1,0.4-0.1,1.1-0.5,1.4c-0.2,0.2-0.6,0-0.7,0
				c-0.3-0.1-0.4-0.4-0.5-0.7c0-0.3-0.4-0.1-0.6,0c-0.2,0.2-0.5,0.6-0.4,1c0.1,0.7,0.8,1.4,1.6,1.2c1.2-0.4,1.7-1.8,2-2.9
				c0.1-0.5,0.2-1.1,0.3-1.7c0.2,0.8,0.4,1.6,0.8,2.3c0.3,0.5,0.7,1.1,1.4,1c0.5-0.1,0.9-0.6,1.1-1.3c0.2,0.5,0.6,0.9,1.2,0.9
				c0.7-0.1,1.2-0.8,1.5-1.3c0.3-0.7,0.4-1.4,0.4-2.1C96.3,80.2,96,78.2,94.6,78.4z M95,83.1c0,0.1-0.1,0.3-0.1,0.4
				c-0.3,0-0.5-0.4-0.5-0.6c-0.2-0.4-0.3-0.9-0.4-1.4c0-0.5,0-1,0.1-1.5c0-0.1,0.1-0.3,0.1-0.4c0.7,0.4,0.8,1.3,0.9,2
				C95.1,82,95.1,82.6,95,83.1z"/>
			<path class="st4" d="M110.9,80.3c-1.5-0.5-2.3,1.4-2.6,2.5c-0.3,1-0.6,2.8,0.7,3.4c0.6,0.3,1.3-0.2,1.7-0.6
				c0.4-0.5,0.7-1.1,0.9-1.8C111.9,82.7,112.2,80.8,110.9,80.3z M110,85c-0.1,0.1-0.1,0.2-0.2,0.3c-0.2-0.1-0.3-0.6-0.3-0.8
				c-0.1-0.5,0-1,0.1-1.5c0.1-0.5,0.2-1,0.5-1.4c0.1-0.1,0.1-0.2,0.2-0.3c0.6,0.6,0.4,1.6,0.3,2.3C110.4,84,110.2,84.5,110,85z"/>
			<path class="st4" d="M106.9,80.5c0.3-0.4,0.5-0.8,0.8-1.1c0.5-0.8,1.1-1.8,1-2.8c-0.1-0.9-1.3-1-2-0.7c-0.9,0.5-1.5,1.4-1.7,2.4
				c-0.4,1.3-0.6,2.5-0.6,3.8v0c-0.5,0.5-1.4,1.7-2.2,1.2c-0.2-0.1-0.3-0.4-0.4-0.6c0.6-0.6,1.1-1.3,1.6-2c0.4-0.7,0.7-1.8-0.1-2.2
				c-0.7-0.4-1.6,0-2.1,0.6c-0.5,0.6-0.7,1.3-0.8,2.1c0,0.4-0.1,1.1,0,1.7c-0.4,0.3-1,0.4-1.5,0.3c-0.6-0.1-0.8-0.7-0.9-1.2
				c-0.2-0.7-0.1-1.4,0-2.1c0-0.2,0.1-0.4,0.2-0.6c0-0.1,0-0.1,0.1-0.2c0.4,0.1,0.5,0.7,0.6,0.9c0.2,0.5,1.4-0.3,1.3-0.8
				c-0.1-0.5-0.3-1-0.9-1.2c-0.5-0.2-1.2,0.2-1.5,0.5c-0.9,0.9-1,2.2-0.9,3.4c0,0.7,0.2,1.7,0.9,2.1c0.9,0.5,2.1,0.1,3-0.5
				c0.2,0.6,0.6,0.9,1.3,0.8c0.9-0.1,1.7-0.6,2.3-1.2c0,0.7,0.2,1.4,0.7,1.7c0.8,0.4,1.7-0.1,2.2-0.7c0.7-0.8,1-2,0.7-3.1
				C107.8,80.8,107.3,80.6,106.9,80.5z M102,80c0.1-0.2,0.1-0.4,0.2-0.5c0,0,0,0,0,0c0.3,0.1,0.4,0.6,0.4,0.8
				c-0.1,0.6-0.4,1.1-0.8,1.6c0-0.1,0-0.2,0-0.3C101.7,81,101.8,80.5,102,80z M106.7,77.3c0.1-0.2,0.2-0.4,0.4-0.5c0,0,0,0,0,0
				c0.6,0.6,0,1.5-0.3,2.1c-0.3,0.6-0.7,1.2-1.1,1.7c0.1-0.6,0.2-1.1,0.3-1.7C106.2,78.3,106.4,77.8,106.7,77.3z M106.4,84
				c0,0.1-0.1,0.2-0.1,0.2c0,0-0.1,0-0.1,0c-0.4-0.2-0.4-1-0.4-1.3c0-0.3,0-0.6,0-0.8c0.2-0.2,0.3-0.3,0.5-0.5
				c0.3-0.2,0.6,0.2,0.6,0.5C106.9,82.7,106.6,83.5,106.4,84z"/>
		</g>
	</g>
	<rect x="153" y="74.8" class="st4" width="108.9" height="74.5"/>
	<rect x="164.1" y="138.9" class="st8" width="13.7" height="10.4"/>
	<rect x="161.4" y="137.8" class="st9" width="19.1" height="2.6"/>
	<rect x="187.8" y="139" class="st8" width="13.7" height="10.4"/>
	<rect x="185.1" y="137.9" class="st9" width="19.1" height="2.6"/>
	<rect x="237.1" y="139" class="st8" width="13.7" height="10.4"/>
	<rect x="234.4" y="137.9" class="st9" width="19.1" height="2.6"/>
	<rect x="212.3" y="138.7" class="st8" width="13.7" height="10.4"/>
	<rect x="209.6" y="137.6" class="st9" width="19.1" height="2.6"/>
	<polygon class="st10" points="164.8,44.8 147.1,74.2 146.6,75 267.9,75 253.7,44.8 248.4,44.8 	"/>
	<path class="st2" d="M171.4,102.3h5.8v-3.4h-5.8V102.3z M164.9,102.3h5.8v-3.4h-5.8V102.3z M164.9,98.2h5.8v-3.9h-5.8V98.2z
		 M164.9,91.8v1.8h5.8v-3.9h-5.5c0.1-0.2,0.1-0.5,0.2-0.7h5.3v-4c0.1,0,0.2,0,0.3,0C167.7,85,164.9,88.1,164.9,91.8z M171.4,98.2
		h5.8v-3.9h-5.8V98.2z M171.1,85c0.1,0,0.2,0,0.3,0v4h5.3c0.1,0.2,0.2,0.5,0.2,0.7h-5.5v3.9h5.8v-1.8C177.2,88.1,174.5,85,171.1,85z
		"/>
	<path class="st2" d="M244.1,102.3h5.8v-3.4h-5.8V102.3z M237.6,102.3h5.8v-3.4h-5.8V102.3z M237.6,98.2h5.8v-3.9h-5.8V98.2z
		 M237.6,91.8v1.8h5.8v-3.9H238c0.1-0.2,0.1-0.5,0.2-0.7h5.3v-4c0.1,0,0.2,0,0.3,0C240.4,85,237.6,88.1,237.6,91.8z M244.1,98.2h5.8
		v-3.9h-5.8V98.2z M243.8,85c0.1,0,0.2,0,0.3,0v4h5.3c0.1,0.2,0.2,0.5,0.2,0.7h-5.5v3.9h5.8v-1.8C249.9,88.1,247.2,85,243.8,85z"/>
	<path class="st2" d="M171.4,132.7h5.8v-3.4h-5.8V132.7z M164.9,132.7h5.8v-3.4h-5.8V132.7z M164.9,128.6h5.8v-3.9h-5.8V128.6z
		 M164.9,122.2v1.8h5.8v-3.9h-5.5c0.1-0.2,0.1-0.5,0.2-0.7h5.3v-4c0.1,0,0.2,0,0.3,0C167.7,115.4,164.9,118.4,164.9,122.2z
		 M171.4,128.6h5.8v-3.9h-5.8V128.6z M171.1,115.4c0.1,0,0.2,0,0.3,0v4h5.3c0.1,0.2,0.2,0.5,0.2,0.7h-5.5v3.9h5.8v-1.8
		C177.2,118.4,174.5,115.4,171.1,115.4z"/>
	<path class="st2" d="M195.6,132.7h5.8v-3.4h-5.8V132.7z M189.2,132.7h5.8v-3.4h-5.8V132.7z M189.2,128.6h5.8v-3.9h-5.8V128.6z
		 M189.2,122.2v1.8h5.8v-3.9h-5.5c0.1-0.2,0.1-0.5,0.2-0.7h5.3v-4c0.1,0,0.2,0,0.3,0C191.9,115.4,189.2,118.4,189.2,122.2z
		 M195.6,128.6h5.8v-3.9h-5.8V128.6z M195.3,115.4c0.1,0,0.2,0,0.3,0v4h5.3c0.1,0.2,0.2,0.5,0.2,0.7h-5.5v3.9h5.8v-1.8
		C201.4,118.4,198.7,115.4,195.3,115.4z"/>
	<path class="st2" d="M219.9,132.7h5.8v-3.4h-5.8V132.7z M213.4,132.7h5.8v-3.4h-5.8V132.7z M213.4,128.6h5.8v-3.9h-5.8V128.6z
		 M213.4,122.2v1.8h5.8v-3.9h-5.5c0.1-0.2,0.1-0.5,0.2-0.7h5.3v-4c0.1,0,0.2,0,0.3,0C216.2,115.4,213.4,118.4,213.4,122.2z
		 M219.9,128.6h5.8v-3.9h-5.8V128.6z M219.5,115.4c0.1,0,0.2,0,0.3,0v4h5.3c0.1,0.2,0.2,0.5,0.2,0.7h-5.5v3.9h5.8v-1.8
		C225.7,118.4,222.9,115.4,219.5,115.4z"/>
	<path class="st2" d="M244.1,132.7h5.8v-3.4h-5.8V132.7z M237.6,132.7h5.8v-3.4h-5.8V132.7z M237.6,128.6h5.8v-3.9h-5.8V128.6z
		 M237.6,122.2v1.8h5.8v-3.9H238c0.1-0.2,0.1-0.5,0.2-0.7h5.3v-4c0.1,0,0.2,0,0.3,0C240.4,115.4,237.6,118.4,237.6,122.2z
		 M244.1,128.6h5.8v-3.9h-5.8V128.6z M243.8,115.4c0.1,0,0.2,0,0.3,0v4h5.3c0.1,0.2,0.2,0.5,0.2,0.7h-5.5v3.9h5.8v-1.8
		C249.9,118.4,247.2,115.4,243.8,115.4z"/>
	<rect x="152.2" y="107.8" class="st9" width="110.4" height="5.3"/>
	<rect x="195.9" y="60.7" class="st11" width="22.6" height="9.5"/>
	<polygon class="st11" points="195.4,61.1 207.2,48.6 219.2,61.2 207.2,63.3 	"/>
	<polygon class="st9" points="207.2,50.2 194.5,63.1 192.4,61 207.2,45.9 222,61 219.9,63.1 207.2,50.2 	"/>
	<g>
		<path class="st2" d="M201.7,60.2h5v-5C204.1,55.3,201.9,57.5,201.7,60.2z M207.7,55.1v5h5C212.5,57.5,210.4,55.3,207.7,55.1z
			 M206.7,66.1v-5h-5C201.9,63.8,204.1,65.9,206.7,66.1z M207.7,66.1c2.7-0.2,4.8-2.4,5-5h-5V66.1z"/>
	</g>
	<g>
		<path class="st5" d="M222.7,102.3c0,8.4-6.8,15.2-15.2,15.2c-8.4,0-15.2-6.8-15.2-15.2c0-8.4,6.8-15.2,15.2-15.2
			C215.8,87.1,222.7,93.9,222.7,102.3z"/>
		<g>
			<path class="st4" d="M203.6,100.2c-1.3,0.1-1.6,1.6-1.6,2.7l0,0v0c0,0.2,0,0.3,0,0.4c0,0.5,0,0.9-0.1,1.4c0,0.2-0.1,0.6-0.1,0.6
				c-0.5,0-0.8-0.6-0.9-1c-0.3-0.8-0.5-1.6-0.7-2.4c-0.2-0.9-0.2-1.8-0.3-2.7c0-0.4,0-0.7,0-1.1c0-0.2,0-0.3,0-0.4
				c0-0.1,0-0.2,0-0.2c0.1-0.7-0.8,0-1,0.3c-1,1.8-0.7,3.9-0.7,5.8c0,0.5,0,1-0.1,1.6c-0.1,0.4-0.1,1-0.4,1.3c-0.2,0.2-0.5,0-0.7,0
				c-0.2-0.1-0.4-0.4-0.4-0.7c0-0.3-0.4-0.1-0.5,0c-0.2,0.2-0.4,0.6-0.4,0.9c0.1,0.7,0.7,1.3,1.5,1.1c1.1-0.3,1.6-1.7,1.9-2.7
				c0.1-0.5,0.2-1,0.2-1.5c0.2,0.8,0.4,1.5,0.7,2.2c0.3,0.5,0.7,1,1.3,0.9c0.5-0.1,0.8-0.6,1-1.2c0.2,0.5,0.6,0.9,1.1,0.8
				c0.6,0,1.2-0.7,1.4-1.2c0.3-0.6,0.4-1.3,0.3-1.9C205.2,101.9,205,100,203.6,100.2z M204,104.5c0,0.1-0.1,0.3-0.1,0.4
				c-0.2,0-0.4-0.4-0.5-0.6c-0.2-0.4-0.3-0.9-0.3-1.3c0-0.5,0-1,0.1-1.4c0-0.1,0.1-0.2,0.1-0.4c0.6,0.4,0.8,1.2,0.8,1.9
				C204.1,103.6,204.1,104.1,204,104.5z"/>
			<path class="st4" d="M218.8,102c-1.4-0.5-2.1,1.3-2.4,2.4c-0.2,1-0.5,2.6,0.7,3.1c0.6,0.2,1.3-0.2,1.6-0.6
				c0.4-0.5,0.7-1.1,0.8-1.7C219.8,104.2,220,102.4,218.8,102z M218,106.3c-0.1,0.1-0.1,0.2-0.2,0.3c-0.2-0.1-0.3-0.6-0.3-0.8
				c-0.1-0.5,0-1,0.1-1.4c0.1-0.5,0.2-0.9,0.4-1.3c0.1-0.1,0.1-0.2,0.2-0.3c0.5,0.6,0.4,1.5,0.2,2.2
				C218.3,105.4,218.2,105.9,218,106.3z"/>
			<path class="st4" d="M215.1,102.2c0.3-0.3,0.5-0.7,0.7-1.1c0.5-0.8,1-1.7,1-2.6c0-0.9-1.2-0.9-1.8-0.6c-0.9,0.4-1.4,1.3-1.6,2.2
				c-0.3,1.2-0.5,2.4-0.6,3.6v0c-0.4,0.5-1.3,1.6-2,1.1c-0.2-0.1-0.3-0.3-0.3-0.6c0.6-0.6,1.1-1.2,1.5-1.9c0.4-0.6,0.7-1.7-0.1-2.1
				c-0.7-0.4-1.5,0-1.9,0.6c-0.4,0.5-0.6,1.2-0.7,1.9c0,0.4-0.1,1,0,1.6c-0.4,0.2-0.9,0.4-1.4,0.3c-0.5-0.1-0.7-0.7-0.8-1.1
				c-0.1-0.6-0.1-1.3,0-1.9c0-0.2,0.1-0.4,0.2-0.6c0,0,0-0.1,0.1-0.1c0.3,0.1,0.5,0.6,0.5,0.9c0.1,0.5,1.3-0.3,1.2-0.7
				c-0.1-0.5-0.3-0.9-0.8-1.1c-0.5-0.2-1.1,0.2-1.4,0.5c-0.8,0.8-0.9,2-0.9,3.1c0,0.7,0.2,1.6,0.8,1.9c0.8,0.5,2,0.1,2.7-0.4
				c0.2,0.5,0.6,0.9,1.3,0.8c0.8-0.1,1.6-0.6,2.1-1.1c0,0.6,0.2,1.3,0.6,1.6c0.7,0.4,1.6-0.1,2.1-0.7c0.6-0.8,1-1.9,0.6-2.9
				C215.9,102.4,215.5,102.2,215.1,102.2z M210.5,101.7c0.1-0.2,0.1-0.3,0.2-0.5c0,0,0,0,0,0c0.3,0.1,0.4,0.5,0.3,0.8
				c-0.1,0.5-0.4,1-0.8,1.5c0-0.1,0-0.2,0-0.3C210.3,102.6,210.3,102.1,210.5,101.7z M214.9,99.2c0.1-0.2,0.2-0.4,0.3-0.5
				c0,0,0,0,0,0c0.5,0.6,0,1.4-0.3,2c-0.3,0.5-0.6,1.1-1,1.6c0.1-0.5,0.2-1,0.3-1.6C214.5,100.1,214.6,99.6,214.9,99.2z
				 M214.6,105.4c0,0.1-0.1,0.2-0.1,0.2c0,0-0.1,0-0.1,0c-0.3-0.2-0.4-0.9-0.4-1.2c0-0.3,0-0.5,0-0.8c0.1-0.2,0.3-0.3,0.4-0.5
				c0.3-0.2,0.5,0.2,0.6,0.5C215,104.2,214.8,104.9,214.6,105.4z"/>
		</g>
	</g>
	<g>
		<path class="st1" d="M25.9,151.1c2,3.2,51.3,2.5,51.9-1.9c0.5-4.4-2.3-6-5.3-5.2c0,0-0.1-9.1-9.3-5.6c0,0-4.4-5.7-8.1-3.1
			c-3.7,2.6-5.6,2.3-7.2,0.9c-1.6-1.4-8.3,0.5-7.9,4.5c0,0-2.1-3.1-7.2-1.2c-5.2,1.8-2.7,7.3-2.7,7.3S22.8,146.1,25.9,151.1z"/>
		<path class="st1" d="M120.5,151.7c0.2-3.1,1.8-9.6,8.2-8.9c0,0,2.6-11.6,12.4-5.3c0,0,1.9-3.9,7.1-3.3c5.2,0.6,1.6,5.3,4.9,4.3
			c3.3-1,5.6-3.4,7.9-1c2.3,2.4,1.4,3.8,1.4,3.8s3.7-3.3,7.2-0.5c3.5,2.8,4.8,12.1-4.6,12.4C155.6,153.3,120.4,153.4,120.5,151.7z"
			/>
	</g>
</g>
<g id="car">
	<g>
		<rect x="298.6" y="164" class="st12" width="112.1" height="21"/>
		<circle class="st13" cx="396.6" cy="182.8" r="12.4"/>
		<rect x="329" y="112.4" class="st4" width="87.5" height="56.5"/>
		<circle class="st13" cx="299.3" cy="182.8" r="12.4"/>
		<path class="st4" d="M277.1,168.7v11h7.2c1.5-7,7.6-12.2,15-12.2c7.4,0,13.6,5.2,15,12.2h12.2v-55.9
			C326.5,123.8,277.1,135,277.1,168.7z"/>
		<circle class="st14" cx="299.3" cy="182.8" r="5.7"/>
		<circle class="st14" cx="396.6" cy="182.8" r="5.7"/>
		<path class="st4" d="M296,183.1c-0.1,0-0.2,0-0.3,0c-0.4-0.2-0.7-0.6-0.5-1.1c1-3,3.1-3.3,3.2-3.3c0.5-0.1,0.9,0.2,1,0.7
			c0.1,0.5-0.2,0.9-0.7,1c-0.1,0-1.2,0.3-1.8,2.2C296.6,182.9,296.3,183.1,296,183.1z"/>
		<path class="st4" d="M393.3,183.1c-0.1,0-0.2,0-0.3,0c-0.4-0.2-0.7-0.6-0.5-1.1c1-3,3.1-3.3,3.2-3.3c0.5-0.1,0.9,0.2,1,0.7
			c0.1,0.5-0.2,0.9-0.7,1c-0.1,0-1.2,0.3-1.8,2.2C393.9,182.9,393.6,183.1,393.3,183.1z"/>
		<path class="st12" d="M326.5,130.8c0,0-17,0.6-27.3,12.8c0,0-2.2,2.9-2.1,4.5h29.4V130.8z"/>
		<path class="st15" d="M319.3,156.9c0,0.5-0.4,0.9-0.9,0.9h-2.2c-0.5,0-0.9-0.4-0.9-0.9l0,0c0-0.5,0.4-0.9,0.9-0.9h2.2
			C318.9,156,319.3,156.4,319.3,156.9L319.3,156.9z"/>
		<path class="st15" d="M397.5,168c0,0.5-0.4,0.9-0.9,0.9h-2.3c-0.5,0-0.9-0.4-0.9-0.9l0,0c0-0.5,0.4-0.9,0.9-0.9h2.3
			C397.1,167.1,397.5,167.5,397.5,168L397.5,168z"/>
		<path class="st15" d="M352.1,168c0,0.5-0.4,0.9-0.9,0.9h-2.3c-0.5,0-0.9-0.4-0.9-0.9l0,0c0-0.5,0.4-0.9,0.9-0.9h2.3
			C351.7,167.1,352.1,167.5,352.1,168L352.1,168z"/>
		<circle class="st16" cx="316.1" cy="156.8" r="0.6"/>
		<circle class="st16" cx="349" cy="168" r="0.6"/>
		<circle class="st16" cx="394.4" cy="168" r="0.6"/>
		<g>
			<path class="st5" d="M390.5,139c0,9.7-7.9,17.6-17.6,17.6c-9.7,0-17.6-7.9-17.6-17.6c0-9.7,7.9-17.6,17.6-17.6
				C382.6,121.3,390.5,129.2,390.5,139z"/>
			<g>
				<path class="st4" d="M368.5,136.5c-1.5,0.2-1.9,1.9-1.9,3.1l0,0v0c0,0.2,0,0.4,0,0.5c0,0.6,0,1-0.1,1.6c0,0.2-0.1,0.7-0.2,0.7
					c-0.5,0.1-0.9-0.7-1.1-1.1c-0.4-0.9-0.6-1.8-0.8-2.8c-0.2-1-0.3-2.1-0.4-3.1c0-0.4,0-0.9,0-1.3c0-0.2,0-0.3,0-0.5
					c0-0.1,0-0.3,0-0.3c0.1-0.8-1,0-1.2,0.3c-1.2,2-0.8,4.5-0.8,6.7c0,0.6,0,1.2-0.1,1.8c-0.1,0.4-0.1,1.1-0.5,1.5
					c-0.2,0.2-0.6,0.1-0.8-0.1c-0.3-0.2-0.5-0.5-0.5-0.8c-0.1-0.3-0.4-0.2-0.6,0c-0.3,0.3-0.5,0.7-0.5,1c0.1,0.8,0.9,1.5,1.7,1.2
					c1.3-0.4,1.9-2,2.2-3.2c0.2-0.6,0.2-1.2,0.3-1.8c0.2,0.9,0.4,1.7,0.8,2.5c0.3,0.6,0.8,1.2,1.6,1c0.5-0.1,0.9-0.7,1.2-1.4
					c0.3,0.6,0.7,1,1.3,1c0.7-0.1,1.3-0.9,1.6-1.4c0.3-0.7,0.4-1.5,0.4-2.2C370.3,138.5,370,136.3,368.5,136.5z M369,141.5
					c0,0.1-0.1,0.3-0.1,0.4c-0.3,0-0.5-0.5-0.6-0.7c-0.2-0.5-0.3-1-0.4-1.5c0-0.5,0-1.1,0.1-1.7c0-0.1,0.1-0.3,0.1-0.4
					c0.7,0.5,0.9,1.4,1,2.2C369.1,140.4,369.1,141,369,141.5z"/>
				<path class="st4" d="M386,138.5c-1.6-0.6-2.5,1.6-2.8,2.7c-0.3,1.1-0.6,3.1,0.8,3.6c0.7,0.3,1.5-0.2,1.8-0.7
					c0.5-0.5,0.8-1.2,1-2C387.2,141.1,387.5,139.1,386,138.5z M385.1,143.6c-0.1,0.1-0.1,0.2-0.2,0.4c-0.2-0.2-0.3-0.6-0.4-0.9
					c-0.1-0.6,0-1.1,0.1-1.6c0.1-0.5,0.3-1.1,0.5-1.5c0.1-0.1,0.1-0.2,0.2-0.4c0.6,0.7,0.4,1.7,0.3,2.5
					C385.5,142.6,385.3,143.1,385.1,143.6z"/>
				<path class="st4" d="M381.7,138.8c0.3-0.4,0.6-0.8,0.8-1.2c0.6-0.9,1.2-1.9,1.1-3c-0.1-1-1.4-1.1-2.1-0.7
					c-1,0.5-1.6,1.6-1.9,2.6c-0.4,1.4-0.6,2.7-0.7,4.1v0c-0.5,0.6-1.5,1.8-2.3,1.3c-0.2-0.1-0.3-0.4-0.4-0.6
					c0.6-0.7,1.2-1.4,1.7-2.2c0.5-0.7,0.8-1.9-0.1-2.4c-0.8-0.4-1.7,0-2.2,0.7c-0.5,0.6-0.7,1.4-0.8,2.2c0,0.4-0.1,1.2,0,1.8
					c-0.5,0.3-1,0.5-1.6,0.4c-0.6-0.1-0.8-0.8-0.9-1.2c-0.2-0.7-0.1-1.5,0-2.2c0-0.2,0.1-0.5,0.2-0.7c0-0.1,0-0.1,0.1-0.2
					c0.4,0.2,0.5,0.7,0.6,1c0.2,0.5,1.5-0.3,1.4-0.8c-0.2-0.5-0.4-1-1-1.3c-0.6-0.3-1.3,0.2-1.6,0.5c-0.9,0.9-1.1,2.4-1,3.6
					c0,0.8,0.2,1.8,0.9,2.3c0.9,0.6,2.3,0.1,3.2-0.5c0.2,0.6,0.7,1,1.5,0.9c0.9-0.1,1.8-0.6,2.5-1.3c0,0.7,0.2,1.5,0.7,1.8
					c0.8,0.5,1.9-0.1,2.4-0.8c0.7-0.9,1.1-2.2,0.7-3.3C382.6,139,382.2,138.8,381.7,138.8z M376.4,138.2c0.1-0.2,0.1-0.4,0.2-0.6
					c0,0,0,0,0,0c0.4,0.1,0.4,0.6,0.4,0.9c-0.1,0.6-0.5,1.2-0.9,1.7c0-0.1,0-0.2,0-0.3C376.2,139.4,376.2,138.8,376.4,138.2z
					 M381.5,135.3c0.1-0.2,0.2-0.4,0.4-0.6c0,0,0,0,0,0c0.6,0.7,0,1.6-0.3,2.3c-0.3,0.6-0.7,1.3-1.1,1.9c0.1-0.6,0.2-1.2,0.4-1.8
					C381,136.4,381.2,135.9,381.5,135.3z M381.2,142.5c0,0.1-0.1,0.2-0.2,0.3c0,0-0.1,0-0.1,0c-0.4-0.2-0.4-1.1-0.4-1.4
					c0-0.3,0-0.6,0-0.9c0.2-0.2,0.3-0.4,0.5-0.6c0.3-0.2,0.6,0.2,0.7,0.6C381.7,141.1,381.4,142,381.2,142.5z"/>
			</g>
		</g>
		<rect x="410.7" y="171.9" class="st1" width="7.8" height="2.6"/>
		<path class="st17" d="M287.4,160.3c0,0-9.2,0.8-9.2,8.3h8.8L287.4,160.3z"/>
	</g>
</g>
</svg>
