<?xml version="1.0" encoding="utf-8"?>
<!-- Generator: Adobe Illustrator 19.0.0, SVG Export Plug-In . SVG Version: 6.00 Build 0)  -->
<svg version="1.1" xmlns="http://www.w3.org/2000/svg" xmlns:xlink="http://www.w3.org/1999/xlink" x="0px" y="0px"
	 viewBox="0 0 310.6 230" style="enable-background:new 0 0 310.6 230;" xml:space="preserve">
<style type="text/css">
	.st0{fill:#519E38;}
	.st1{fill:#F9F5DC;}
	.st2{fill:#FFFFFF;}
	.st3{fill:url(#SVGID_1_);}
	.st4{fill:url(#SVGID_2_);}
	.st5{fill:url(#SVGID_3_);}
	.st6{fill:url(#SVGID_4_);}
	.st7{fill:url(#SVGID_5_);}
</style>
<g id="manty">
	<g>
		<path class="st0" d="M217.7,70.7c0,0-35.3,20.6-9.7,48.4s68,10.5,72.3-4.2c4.3-14.7,4-28.5-15-44.3S217.7,70.7,217.7,70.7z"/>
		<path class="st0" d="M182.5,123.6c0,0-29.8-7.8-41.3,18.2c-11.4,26,16.7,35.8,18.3,39.5c1.6,3.8,6.7,6.9,9.5,1.9s3-12.5,9.9-7.7
			s2.7,9.2-0.1,11c-2.8,1.9,2.8,9.8,11,4.2c8.2-5.6,22.1-9.4,25.1-22.9C218.1,154.4,215.4,128.6,182.5,123.6z"/>
		<g>
			<path class="st0" d="M182.4,62.9c-27.2-28.4-72.2-30.4-101.8-4.1s-32.8,71.2-7.8,101.5l-0.1,0l4,4.5l0,0c2.2,2.5,6,2.7,8.5,0.5
				L186,75.9c2.5-2.2,2.7-6,0.5-8.5l0,0L182.4,62.9L182.4,62.9z"/>
			<circle class="st0" cx="64.4" cy="150.9" r="9.7"/>
			<circle class="st0" cx="56.7" cy="134.3" r="9.7"/>
			<circle class="st0" cx="54.9" cy="115.7" r="9.7"/>
			<circle class="st0" cx="56.9" cy="97.1" r="9.7"/>
			<circle class="st0" cx="63.5" cy="80" r="9.7"/>
			<circle class="st0" cx="74.4" cy="64.4" r="9.7"/>
			<circle class="st0" cx="89.7" cy="52.4" r="9.7"/>
			<circle class="st0" cx="106.8" cy="43.6" r="9.7"/>
			<circle class="st0" cx="124.8" cy="40.5" r="9.7"/>
			<circle class="st0" cx="142.9" cy="40.6" r="9.7"/>
			<circle class="st0" cx="159.7" cy="47.1" r="9.7"/>
			<circle class="st0" cx="176.3" cy="55.9" r="9.7"/>
		</g>
		<g>
			<path class="st1" d="M169.6,59.9c-27.2-28.4-72.2-30.4-101.8-4S35,127.2,60.1,157.4l-0.1,0l4,4.5l0,0c2.2,2.5,6,2.7,8.5,0.5
				l100.6-89.6c2.5-2.2,2.7-6,0.5-8.5l0,0L169.6,59.9L169.6,59.9z"/>
			<circle class="st1" cx="51.5" cy="148" r="9.7"/>
			<circle class="st1" cx="43.9" cy="131.3" r="9.7"/>
			<circle class="st1" cx="42.1" cy="112.8" r="9.7"/>
			<circle class="st1" cx="44.1" cy="94.1" r="9.7"/>
			<circle class="st1" cx="50.7" cy="77" r="9.7"/>
			<circle class="st1" cx="61.6" cy="61.5" r="9.7"/>
			<circle class="st1" cx="76.8" cy="49.4" r="9.7"/>
			<circle class="st1" cx="93.9" cy="40.6" r="9.7"/>
			<circle class="st1" cx="111.9" cy="37.6" r="9.7"/>
			<circle class="st1" cx="130.1" cy="37.6" r="9.7"/>
			<circle class="st1" cx="146.8" cy="44.2" r="9.7"/>
			<circle class="st1" cx="163.4" cy="52.9" r="9.7"/>
		</g>
		<path class="st1" d="M179.6,116.2c0,0-29.8-7.8-41.3,18.2c-11.4,26,16.7,35.8,18.3,39.5c1.6,3.8,6.7,6.9,9.5,1.9s3-12.5,9.9-7.7
			s2.7,9.2-0.1,11c-2.8,1.9,2.8,9.8,11,4.2s22.1-9.4,25.1-22.9S212.5,121.2,179.6,116.2z"/>
		<path class="st0" d="M67.1,147"/>
		<path class="st1" d="M212.1,64.8c0,0-35.3,20.6-9.7,48.4s68,10.5,72.3-4.2s4-28.5-15-44.3S212.1,64.8,212.1,64.8z"/>
		<path class="st1" d="M226.9,59.3c0,0,8.9-1.7,3.5-11.8s6.3-8.4,8.7-6.6c2.3,1.8,3,9.4,5,5.6s6-9.1,13.3-3.5c7.3,5.7-7,6.5-4.3,9.1
			c2.7,2.6,8-1,8.3-2.7c0.3-1.7,11.7-0.4,6.3,6.8c-5.3,7.2-6.1,0.3-9,3.1s-3.3,5.7-0.7,7.5c2.7,1.9-11.3,0.9-11.3,0.9L226.9,59.3z"
			/>
	</g>
</g>
<g id="snow">
	<g>
		<circle class="st2" cx="283.2" cy="80" r="1.5"/>
		<g>
			<linearGradient id="SVGID_1_" gradientUnits="userSpaceOnUse" x1="257.7333" y1="39.4649" x2="273.7207" y2="84.7628">
				<stop  offset="0" style="stop-color:#404B71"/>
				<stop  offset="0.6044" style="stop-color:#3C476E"/>
				<stop  offset="1" style="stop-color:#354169"/>
			</linearGradient>
			<path class="st3" d="M261.3,80.4l-1.7-6.4l1.6-2.7l0.2,0.8c0.2,0.8,1.1,1.3,1.9,1.1c0.1,0,0.3-0.1,0.4-0.2
				c0.6-0.3,0.9-1.1,0.7-1.8l-1-3.9l1.9-3.3l1.9,3.3l-1,3.9c-0.2,0.8,0.3,1.7,1.1,1.9c0.4,0.1,0.9,0,1.2-0.2c0.4-0.2,0.6-0.5,0.7-1
				l0.2-0.8L271,74l-1.7,6.4c-0.2,0.8,0.3,1.7,1.1,1.9c0.4,0.1,0.9,0,1.2-0.2c0.4-0.2,0.6-0.5,0.7-1l0.9-3.3l2.5,4.4
				c0.4,0.8,1.4,1,2.2,0.6c0.8-0.4,1-1.4,0.6-2.2l-2.5-4.4l3.3,0.9c0.4,0.1,0.9,0,1.2-0.2c0.4-0.2,0.6-0.5,0.7-1
				c0.2-0.8-0.3-1.7-1.1-1.9l-6.4-1.7l-1.6-2.7l0.8,0.2c0.4,0.1,0.9,0,1.2-0.2c0.4-0.2,0.6-0.5,0.7-1c0.2-0.8-0.3-1.7-1.1-1.9
				l-3.8-1l-1.9-3.3h3.8l2.8,2.8c0.5,0.5,1.3,0.6,1.9,0.3c0.1-0.1,0.2-0.2,0.3-0.3c0.6-0.6,0.6-1.6,0-2.2l-0.6-0.6l3.1,0l4.7,4.7
				c0.5,0.5,1.3,0.6,1.9,0.3c0.1-0.1,0.2-0.2,0.3-0.3c0.6-0.6,0.6-1.6,0-2.2l-2.4-2.4l5,0c0.3,0,0.6-0.1,0.8-0.2
				c0.5-0.3,0.8-0.8,0.8-1.4c0-0.9-0.7-1.6-1.6-1.6h-5l2.4-2.4c0.6-0.6,0.6-1.6,0-2.2c-0.6-0.6-1.6-0.6-2.2,0l-4.7,4.7h-3.1l0.6-0.6
				c0.6-0.6,0.6-1.6,0-2.2c-0.6-0.6-1.6-0.6-2.2,0l-2.8,2.8h-3.8l1.9-3.3l3.9-1c0.1,0,0.3-0.1,0.4-0.2c0.6-0.3,0.9-1.1,0.7-1.8
				c-0.2-0.8-1.1-1.3-1.9-1.1l-0.8,0.2l1.6-2.7l6.4-1.7c0.1,0,0.3-0.1,0.4-0.2c0.6-0.4,0.9-1.1,0.7-1.8c-0.2-0.8-1.1-1.3-1.9-1.1
				l-3.3,0.9l2.5-4.4c0.4-0.8,0.2-1.7-0.6-2.2c-0.8-0.4-1.7-0.2-2.2,0.6l-2.5,4.4l-0.9-3.3c-0.2-0.8-1.1-1.3-1.9-1.1
				c-0.8,0.2-1.4,1.1-1.1,1.9l1.7,6.4l-1.6,2.7l-0.2-0.8c-0.2-0.8-1.1-1.3-1.9-1.1c-0.8,0.2-1.3,1.1-1.1,1.9l1,3.9l-1.9,3.3
				l-1.9-3.3l1-3.9c0.2-0.8-0.3-1.7-1.1-1.9c-0.8-0.2-1.7,0.3-1.9,1.1l-0.2,0.8l-1.6-2.7l1.7-6.4c0.2-0.8-0.3-1.7-1.1-1.9
				c-0.8-0.2-1.7,0.3-1.9,1.1l-0.9,3.3l-2.5-4.4c-0.4-0.8-1.4-1-2.2-0.6c-0.8,0.4-1,1.4-0.6,2.2l2.5,4.4l-3.3-0.9
				c-0.8-0.2-1.7,0.3-1.9,1.1c-0.2,0.8,0.3,1.7,1.1,1.9l6.4,1.7l1.6,2.7l-0.8-0.2c-0.8-0.2-1.7,0.3-1.9,1.1
				c-0.2,0.8,0.3,1.7,1.1,1.9l3.8,1l1.9,3.3h-3.8l-2.8-2.8c-0.6-0.6-1.6-0.6-2.2,0c-0.6,0.6-0.6,1.6,0,2.2l0.6,0.6h-3.1l-4.7-4.7
				c-0.6-0.6-1.6-0.6-2.2,0c-0.6,0.6-0.6,1.6,0,2.2l2.4,2.4h-5c-0.9,0-1.6,0.7-1.6,1.6c0,0.9,0.7,1.6,1.6,1.6l5,0l-2.4,2.4
				c-0.6,0.6-0.6,1.6,0,2.2c0.5,0.5,1.3,0.6,1.9,0.3c0.1-0.1,0.2-0.2,0.3-0.3l4.7-4.7h3.1l-0.6,0.6c-0.6,0.6-0.6,1.6,0,2.2
				c0.5,0.5,1.3,0.6,1.9,0.3c0.1-0.1,0.2-0.2,0.3-0.3l2.8-2.8h3.8l-1.9,3.3l-3.9,1c-0.8,0.2-1.3,1.1-1.1,1.9
				c0.2,0.8,1.1,1.3,1.9,1.1l0.8-0.2l-1.6,2.7l-6.4,1.7c-0.8,0.2-1.3,1.1-1.1,1.9c0.2,0.8,1.1,1.3,1.9,1.1l3.3-0.9l-2.5,4.4
				c-0.4,0.8-0.2,1.7,0.6,2.2c0.5,0.3,1.1,0.3,1.6,0c0.2-0.1,0.4-0.3,0.6-0.6l2.5-4.4l0.9,3.3c0.2,0.8,1.1,1.3,1.9,1.1
				c0.1,0,0.3-0.1,0.4-0.2C261.2,81.8,261.5,81.1,261.3,80.4z"/>
			<linearGradient id="SVGID_2_" gradientUnits="userSpaceOnUse" x1="139.116" y1="103.2837" x2="143.9498" y2="116.9795">
				<stop  offset="0" style="stop-color:#404B71"/>
				<stop  offset="0.6044" style="stop-color:#3C476E"/>
				<stop  offset="1" style="stop-color:#354169"/>
			</linearGradient>
			<path class="st4" d="M140.2,115.7l-0.5-1.9l0.5-0.8l0.1,0.2c0.1,0.3,0.3,0.4,0.6,0.3c0,0,0.1,0,0.1,0c0.2-0.1,0.3-0.3,0.2-0.5
				l-0.3-1.2l0.6-1l0.6,1l-0.3,1.2c-0.1,0.3,0.1,0.5,0.3,0.6c0.1,0,0.3,0,0.4,0c0.1-0.1,0.2-0.2,0.2-0.3l0.1-0.2l0.5,0.8l-0.5,1.9
				c-0.1,0.3,0.1,0.5,0.3,0.6c0.1,0,0.3,0,0.4,0c0.1-0.1,0.2-0.2,0.2-0.3l0.3-1l0.8,1.3c0.1,0.2,0.4,0.3,0.7,0.2
				c0.2-0.1,0.3-0.4,0.2-0.7l-0.8-1.3l1,0.3c0.1,0,0.3,0,0.4,0c0.1-0.1,0.2-0.2,0.2-0.3c0.1-0.3-0.1-0.5-0.3-0.6l-1.9-0.5l-0.5-0.8
				l0.2,0.1c0.1,0,0.3,0,0.4,0c0.1-0.1,0.2-0.2,0.2-0.3c0.1-0.3-0.1-0.5-0.3-0.6l-1.2-0.3l-0.6-1h1.2l0.9,0.9
				c0.2,0.2,0.4,0.2,0.6,0.1c0,0,0.1,0,0.1-0.1c0.2-0.2,0.2-0.5,0-0.7l-0.2-0.2h0.9l1.4,1.4c0.2,0.2,0.4,0.2,0.6,0.1
				c0,0,0.1,0,0.1-0.1c0.2-0.2,0.2-0.5,0-0.7l-0.7-0.7h1.5c0.1,0,0.2,0,0.2-0.1c0.1-0.1,0.2-0.2,0.2-0.4c0-0.3-0.2-0.5-0.5-0.5h-1.5
				l0.7-0.7c0.2-0.2,0.2-0.5,0-0.7c-0.2-0.2-0.5-0.2-0.7,0l-1.4,1.4h-0.9l0.2-0.2c0.2-0.2,0.2-0.5,0-0.7c-0.2-0.2-0.5-0.2-0.7,0
				l-0.9,0.9h-1.2l0.6-1l1.2-0.3c0,0,0.1,0,0.1,0c0.2-0.1,0.3-0.3,0.2-0.5c-0.1-0.3-0.3-0.4-0.6-0.3l-0.2,0.1l0.5-0.8l1.9-0.5
				c0,0,0.1,0,0.1,0c0.2-0.1,0.3-0.3,0.2-0.5c-0.1-0.3-0.3-0.4-0.6-0.3l-1,0.3l0.8-1.3c0.1-0.2,0.1-0.5-0.2-0.7
				c-0.2-0.1-0.5-0.1-0.7,0.2l-0.8,1.3l-0.3-1c-0.1-0.3-0.3-0.4-0.6-0.3c-0.3,0.1-0.4,0.3-0.3,0.6l0.5,1.9l-0.5,0.8l-0.1-0.2
				c-0.1-0.3-0.3-0.4-0.6-0.3c-0.3,0.1-0.4,0.3-0.3,0.6l0.3,1.2l-0.6,1l-0.6-1l0.3-1.2c0.1-0.3-0.1-0.5-0.3-0.6
				c-0.3-0.1-0.5,0.1-0.6,0.3l-0.1,0.2l-0.5-0.8l0.5-1.9c0.1-0.3-0.1-0.5-0.3-0.6c-0.3-0.1-0.5,0.1-0.6,0.3l-0.3,1l-0.8-1.3
				c-0.1-0.2-0.4-0.3-0.7-0.2c-0.2,0.1-0.3,0.4-0.2,0.7l0.8,1.3l-1-0.3c-0.3-0.1-0.5,0.1-0.6,0.3c-0.1,0.3,0.1,0.5,0.3,0.6l1.9,0.5
				l0.5,0.8l-0.2-0.1c-0.3-0.1-0.5,0.1-0.6,0.3c-0.1,0.3,0.1,0.5,0.3,0.6l1.2,0.3l0.6,1h-1.2l-0.9-0.9c-0.2-0.2-0.5-0.2-0.7,0
				c-0.2,0.2-0.2,0.5,0,0.7l0.2,0.2h-0.9l-1.4-1.4c-0.2-0.2-0.5-0.2-0.7,0c-0.2,0.2-0.2,0.5,0,0.7l0.7,0.7h-1.5
				c-0.3,0-0.5,0.2-0.5,0.5c0,0.3,0.2,0.5,0.5,0.5h1.5L135,111c-0.2,0.2-0.2,0.5,0,0.7c0.2,0.2,0.4,0.2,0.6,0.1c0,0,0.1,0,0.1-0.1
				l1.4-1.4h0.9l-0.2,0.2c-0.2,0.2-0.2,0.5,0,0.7c0.2,0.2,0.4,0.2,0.6,0.1c0,0,0.1,0,0.1-0.1l0.9-0.9h1.2l-0.6,1l-1.2,0.3
				c-0.3,0.1-0.4,0.3-0.3,0.6c0.1,0.3,0.3,0.4,0.6,0.3l0.2-0.1l-0.5,0.8l-1.9,0.5c-0.3,0.1-0.4,0.3-0.3,0.6c0.1,0.3,0.3,0.4,0.6,0.3
				l1-0.3l-0.8,1.3c-0.1,0.2-0.1,0.5,0.2,0.7c0.2,0.1,0.3,0.1,0.5,0c0.1,0,0.1-0.1,0.2-0.2l0.8-1.3l0.3,1c0.1,0.3,0.3,0.4,0.6,0.3
				c0,0,0.1,0,0.1,0C140.2,116.1,140.3,115.9,140.2,115.7z"/>
			<linearGradient id="SVGID_3_" gradientUnits="userSpaceOnUse" x1="74.2263" y1="127.8441" x2="84.6466" y2="157.3682">
				<stop  offset="0" style="stop-color:#404B71"/>
				<stop  offset="0.6044" style="stop-color:#3C476E"/>
				<stop  offset="1" style="stop-color:#354169"/>
			</linearGradient>
			<path class="st5" d="M76.6,154.5l-1.1-4.2l1-1.8l0.1,0.5c0.1,0.6,0.7,0.9,1.3,0.7c0.1,0,0.2-0.1,0.2-0.1c0.4-0.2,0.6-0.7,0.5-1.2
				l-0.7-2.5l1.2-2.2l1.2,2.2l-0.7,2.5c-0.1,0.6,0.2,1.1,0.7,1.3c0.3,0.1,0.6,0,0.8-0.1c0.2-0.1,0.4-0.4,0.5-0.6l0.1-0.5l1,1.8
				l-1.1,4.2c-0.1,0.6,0.2,1.1,0.7,1.3c0.3,0.1,0.6,0,0.8-0.1c0.2-0.1,0.4-0.4,0.5-0.6l0.6-2.2l1.6,2.8c0.3,0.5,0.9,0.7,1.4,0.4
				c0.5-0.3,0.7-0.9,0.4-1.4l-1.6-2.8l2.2,0.6c0.3,0.1,0.6,0,0.8-0.1c0.2-0.1,0.4-0.4,0.5-0.6c0.1-0.6-0.2-1.1-0.7-1.3l-4.2-1.1
				l-1-1.8l0.5,0.1c0.3,0.1,0.6,0,0.8-0.1c0.2-0.1,0.4-0.4,0.5-0.6c0.1-0.6-0.2-1.1-0.7-1.3l-2.5-0.7l-1.2-2.2h2.5l1.8,1.8
				c0.3,0.3,0.9,0.4,1.2,0.2c0.1,0,0.1-0.1,0.2-0.2c0.4-0.4,0.4-1.1,0-1.5l-0.4-0.4l2,0l3,3c0.3,0.3,0.9,0.4,1.2,0.2
				c0.1,0,0.1-0.1,0.2-0.2c0.4-0.4,0.4-1.1,0-1.5l-1.6-1.6l3.3,0c0.2,0,0.4,0,0.5-0.1c0.3-0.2,0.5-0.5,0.5-0.9c0-0.6-0.5-1-1-1h-3.3
				l1.6-1.6c0.4-0.4,0.4-1.1,0-1.5c-0.4-0.4-1.1-0.4-1.5,0l-3,3h-2l0.4-0.4c0.4-0.4,0.4-1.1,0-1.5c-0.4-0.4-1.1-0.4-1.5,0l-1.8,1.8
				H81l1.2-2.2l2.5-0.7c0.1,0,0.2-0.1,0.2-0.1c0.4-0.2,0.6-0.7,0.5-1.2c-0.1-0.6-0.7-0.9-1.3-0.7l-0.5,0.1l1-1.8l4.2-1.1
				c0.1,0,0.2-0.1,0.2-0.1c0.4-0.2,0.6-0.7,0.5-1.2c-0.1-0.6-0.7-0.9-1.3-0.7l-2.2,0.6l1.6-2.8c0.3-0.5,0.1-1.1-0.4-1.4
				c-0.5-0.3-1.1-0.1-1.4,0.4l-1.6,2.8l-0.6-2.2c-0.1-0.6-0.7-0.9-1.3-0.7c-0.5,0.1-0.9,0.7-0.7,1.3l1.1,4.2l-1,1.8l-0.1-0.5
				c-0.1-0.6-0.7-0.9-1.3-0.7c-0.6,0.2-0.9,0.7-0.7,1.3l0.7,2.5l-1.2,2.2l-1.2-2.2l0.7-2.5c0.1-0.6-0.2-1.1-0.7-1.3
				c-0.6-0.1-1.1,0.2-1.3,0.7l-0.1,0.5l-1-1.8l1.1-4.2c0.1-0.6-0.2-1.1-0.7-1.3c-0.6-0.1-1.1,0.2-1.3,0.7l-0.6,2.2l-1.6-2.8
				c-0.3-0.5-0.9-0.7-1.4-0.4c-0.5,0.3-0.7,0.9-0.4,1.4l1.6,2.8l-2.2-0.6c-0.6-0.1-1.1,0.2-1.3,0.7c-0.1,0.6,0.2,1.1,0.7,1.3
				l4.2,1.1l1,1.8l-0.5-0.1c-0.6-0.1-1.1,0.2-1.3,0.7c-0.1,0.6,0.2,1.1,0.7,1.3l2.5,0.7l1.2,2.2h-2.5l-1.8-1.8
				c-0.4-0.4-1.1-0.4-1.5,0c-0.4,0.4-0.4,1.1,0,1.5l0.4,0.4h-2l-3-3c-0.4-0.4-1.1-0.4-1.5,0c-0.4,0.4-0.4,1.1,0,1.5l1.6,1.6h-3.3
				c-0.6,0-1,0.5-1,1c0,0.6,0.5,1,1,1l3.3,0l-1.6,1.6c-0.4,0.4-0.4,1.1,0,1.5c0.3,0.3,0.9,0.4,1.2,0.2c0.1,0,0.1-0.1,0.2-0.2l3-3h2
				l-0.4,0.4c-0.4,0.4-0.4,1.1,0,1.5c0.3,0.3,0.9,0.4,1.2,0.2c0.1,0,0.2-0.1,0.2-0.2l1.8-1.8h2.5l-1.2,2.2l-2.5,0.7
				c-0.5,0.2-0.9,0.7-0.7,1.3c0.1,0.6,0.7,0.9,1.3,0.7l0.5-0.1l-1,1.8l-4.2,1.1c-0.5,0.2-0.9,0.7-0.7,1.3c0.1,0.6,0.7,0.9,1.3,0.7
				l2.2-0.6l-1.6,2.8c-0.3,0.5-0.1,1.1,0.4,1.4c0.3,0.2,0.7,0.2,1,0c0.2-0.1,0.3-0.2,0.4-0.4l1.6-2.8l0.6,2.2
				c0.1,0.6,0.7,0.9,1.3,0.7c0.1,0,0.2-0.1,0.3-0.1C76.5,155.5,76.7,155,76.6,154.5z"/>
			<linearGradient id="SVGID_4_" gradientUnits="userSpaceOnUse" x1="191.275" y1="130.2374" x2="220.3732" y2="198.3395">
				<stop  offset="0" style="stop-color:#404B71"/>
				<stop  offset="0.6044" style="stop-color:#3C476E"/>
				<stop  offset="1" style="stop-color:#354169"/>
			</linearGradient>
			<path class="st6" d="M238.8,160.8l-6.3,0l3-3c0.8-0.8,0.8-2,0-2.8c-0.8-0.8-2-0.8-2.8,0l-5.9,5.9l-3.9,0l1.7-1.7
				c0.8-0.8,0.8-2,0-2.8c-0.8-0.8-2-0.8-2.8,0l-4.6,4.6h-3.8l0.1-0.1c0.8-0.8,0.8-2,0.1-2.7c-0.3-1-1.4-1.6-2.4-1.3l-0.2,0l1.9-3.3
				l6.2-1.7c0.2,0,0.3-0.1,0.5-0.2c0.8-0.4,1.2-1.4,0.9-2.2c-0.3-1.1-1.4-1.7-2.4-1.4l-2.4,0.6l2-3.4l8-2.1c0.2,0,0.3-0.1,0.5-0.2
				c0.8-0.4,1.2-1.4,0.9-2.2c-0.3-1.1-1.4-1.7-2.4-1.4l-4.2,1.1l3.2-5.5c0.6-1,0.2-2.2-0.7-2.7c-1-0.5-2.2-0.2-2.7,0.7l-3.2,5.5
				L216,134c-0.3-1.1-1.4-1.7-2.4-1.4c-1.1,0.3-1.7,1.4-1.4,2.4l2.1,8l-2,3.4l-0.6-2.4c-0.3-1.1-1.4-1.7-2.4-1.4
				c-1.1,0.3-1.7,1.4-1.4,2.4l1.7,6.2l-1.9,3.3l0-0.2c-0.3-1-1.3-1.7-2.4-1.4c-1-0.2-2.1,0.4-2.3,1.4l0,0.2l-1.9-3.3l1.7-6.2
				c0.3-1.1-0.3-2.2-1.4-2.4c-1.1-0.3-2.2,0.3-2.4,1.4l-0.6,2.4l-2-3.4l2.1-8c0.3-1.1-0.3-2.2-1.4-2.4c-1.1-0.3-2.2,0.3-2.4,1.4
				l-1.1,4.2l-3.2-5.5c-0.5-1-1.8-1.3-2.7-0.7c-1,0.5-1.3,1.8-0.7,2.7l3.2,5.5l-4.2-1.1c-1.1-0.3-2.2,0.3-2.4,1.4
				c-0.3,1.1,0.3,2.2,1.4,2.4l8,2.1l2,3.4l-2.4-0.6c-1.1-0.3-2.2,0.3-2.4,1.4c-0.3,1.1,0.3,2.2,1.4,2.4l6.2,1.7l1.9,3.3l-0.2,0
				c-1-0.3-2,0.3-2.4,1.3c-0.8,0.8-0.8,2,0,2.8l0.1,0.1l-3.8,0l-4.6-4.6c-0.8-0.8-2-0.8-2.8,0c-0.8,0.8-0.8,2,0,2.8l1.7,1.7l-3.9,0
				l-5.9-5.9c-0.8-0.8-2-0.8-2.8,0c-0.8,0.8-0.8,2,0,2.8l3,3h-6.3c-1.1,0-2,0.9-2,2c0,1.1,0.9,2,2,2l6.3,0l-3,3
				c-0.8,0.8-0.8,2,0,2.8c0.7,0.7,1.6,0.8,2.4,0.3c0.1-0.1,0.3-0.2,0.4-0.3l5.9-5.9l3.9,0l-1.7,1.7c-0.8,0.8-0.8,2,0,2.8
				c0.7,0.7,1.6,0.8,2.4,0.3c0.1-0.1,0.3-0.2,0.4-0.3l4.6-4.6l3.8,0l-0.1,0.1c-0.8,0.8-0.8,2-0.1,2.7c0.3,1,1.4,1.6,2.4,1.3l0.2,0
				l-1.9,3.3l-6.2,1.7c-1.1,0.3-1.7,1.4-1.4,2.4c0.3,1.1,1.4,1.7,2.4,1.4l2.4-0.6l-2,3.4l-8,2.1c-1.1,0.3-1.7,1.4-1.4,2.4
				c0.3,1.1,1.4,1.7,2.4,1.4l4.2-1.1l-3.2,5.5c-0.5,1-0.2,2.2,0.7,2.7c0.6,0.4,1.4,0.3,2,0c0.3-0.2,0.5-0.4,0.7-0.7l3.2-5.5l1.1,4.2
				c0.3,1.1,1.4,1.7,2.4,1.4c0.2,0,0.3-0.1,0.5-0.2c0.8-0.4,1.2-1.3,0.9-2.2l-2.1-8l2-3.4l0.6,2.4c0.3,1.1,1.4,1.7,2.4,1.4
				c0.2,0,0.3-0.1,0.5-0.2c0.8-0.4,1.2-1.3,0.9-2.2l-1.7-6.2l1.9-3.3l0,0.2c0.3,1,1.3,1.7,2.4,1.4c0.5,0.1,1,0,1.4-0.2
				c0.4-0.3,0.8-0.7,0.9-1.2l0-0.2l1.9,3.3l-1.7,6.2c-0.3,1.1,0.3,2.2,1.4,2.4c0.5,0.1,1.1,0.1,1.5-0.2c0.4-0.3,0.8-0.7,0.9-1.2
				l0.6-2.4l2,3.4l-2.1,8c-0.3,1.1,0.3,2.2,1.4,2.4c0.5,0.1,1.1,0.1,1.5-0.2c0.4-0.3,0.8-0.7,0.9-1.2l1.1-4.2l3.2,5.5
				c0.5,1,1.8,1.3,2.7,0.7c1-0.6,1.3-1.8,0.7-2.7l-3.2-5.5l4.2,1.1c0.5,0.1,1.1,0.1,1.5-0.2c0.4-0.3,0.8-0.7,0.9-1.2
				c0.3-1.1-0.3-2.2-1.4-2.4l-8-2.1l-2-3.4l2.4,0.6c0.5,0.1,1.1,0.1,1.5-0.2c0.4-0.3,0.8-0.7,0.9-1.2c0.3-1.1-0.3-2.2-1.4-2.4
				l-6.2-1.7l-1.9-3.3l0.2,0c0.5,0.1,1.1,0.1,1.5-0.2c0.4-0.2,0.7-0.6,0.9-1.1c0.8-0.8,0.8-2,0-2.8l-0.1-0.1h3.8l4.6,4.6
				c0.7,0.7,1.6,0.8,2.4,0.3c0.1-0.1,0.3-0.2,0.4-0.3c0.8-0.8,0.8-2,0-2.8l-1.7-1.7h3.9l5.9,5.9c0.7,0.7,1.6,0.8,2.4,0.3
				c0.1-0.1,0.3-0.2,0.4-0.3c0.8-0.8,0.8-2,0-2.8l-3-3h6.3c0.4,0,0.7-0.1,1-0.3c0.6-0.3,1-1,1-1.7
				C240.8,161.6,239.9,160.8,238.8,160.8z M206.4,164.9c-1.2,0.7-2.8,0.3-3.5-0.9c-0.7-1.2-0.3-2.8,0.9-3.5c1.2-0.7,2.8-0.3,3.5,0.9
				C208.1,162.7,207.7,164.2,206.4,164.9z"/>
			<linearGradient id="SVGID_5_" gradientUnits="userSpaceOnUse" x1="150.7405" y1="45.848" x2="162.7624" y2="73.9902">
				<stop  offset="0" style="stop-color:#404B71"/>
				<stop  offset="0.6044" style="stop-color:#3C476E"/>
				<stop  offset="1" style="stop-color:#354169"/>
			</linearGradient>
			<path class="st7" d="M172.2,60.2h-1l0.4-0.5c0.2-0.3,0.1-0.8-0.2-1c-0.3-0.2-0.8-0.1-1,0.2l-0.9,1.3H168l2-2.8
				c0.2-0.3,0.1-0.8-0.2-1c-0.3-0.2-0.8-0.1-1,0.2l-2.6,3.7h-1.3l1.2-1.7c0.2-0.3,0.1-0.8-0.2-1c-0.3-0.2-0.8-0.1-1,0.2l-1.7,2.5
				h-0.9l0.4-0.5c0.2-0.3,0.1-0.8-0.2-1c-0.3-0.2-0.8-0.1-1,0.2l-0.9,1.3h-0.3l-0.8-1.5l0.2-0.3l1.6-0.1c0.4,0,0.7-0.4,0.7-0.8
				c0-0.4-0.4-0.7-0.8-0.7l-0.6,0.1l0.4-0.8l3-0.3c0.4,0,0.7-0.4,0.7-0.8c0-0.4-0.4-0.7-0.8-0.7l-2,0.2l0.7-1.1l4.5-0.4
				c0.4,0,0.7-0.4,0.7-0.8c0-0.4-0.4-0.7-0.8-0.7l-3.4,0.3l0.7-1.3l1.6-0.1c0.4,0,0.7-0.4,0.7-0.8c0-0.4-0.4-0.7-0.8-0.7l-0.6,0.1
				l0.5-0.9c0.2-0.3,0.1-0.8-0.3-1c-0.3-0.2-0.8-0.1-1,0.3l-0.5,0.9l-0.3-0.6c-0.2-0.4-0.6-0.5-1-0.4c-0.4,0.2-0.5,0.6-0.4,1
				l0.7,1.5l-0.7,1.3l-1.5-3.1c-0.2-0.4-0.6-0.5-1-0.3c-0.4,0.2-0.5,0.6-0.4,1l1.9,4.1l-0.7,1.1l-0.9-1.8c-0.2-0.4-0.6-0.5-1-0.4
				c-0.4,0.2-0.5,0.6-0.4,1l1.3,2.8l-0.4,0.8l-0.3-0.6c-0.2-0.4-0.6-0.5-1-0.3c-0.4,0.2-0.5,0.6-0.4,1l0.7,1.5L158,58h-1.7l-0.2-0.3
				l0.7-1.5c0.2-0.4,0-0.8-0.4-1c-0.4-0.2-0.8,0-1,0.3l-0.3,0.6l-0.4-0.8l1.3-2.8c0.2-0.4,0-0.8-0.4-1c-0.4-0.2-0.8,0-1,0.3
				l-0.9,1.8l-0.7-1.1l1.9-4.1c0.2-0.4,0-0.8-0.4-1c-0.4-0.2-0.8,0-1,0.4l-1.5,3.1l-0.7-1.3l0.7-1.5c0.2-0.4,0-0.8-0.4-1
				c-0.4-0.2-0.8,0-1,0.4l-0.3,0.6l-0.5-0.9c-0.2-0.3-0.6-0.5-1-0.3c-0.3,0.2-0.5,0.6-0.3,1l0.5,0.9l-0.6-0.1
				c-0.4,0-0.8,0.3-0.8,0.7c0,0.4,0.3,0.8,0.7,0.8l1.6,0.1l0.7,1.3l-3.4-0.3c-0.4,0-0.8,0.3-0.8,0.7c0,0.4,0.3,0.8,0.7,0.8l4.5,0.4
				l0.7,1.1l-2-0.2c-0.4,0-0.8,0.3-0.8,0.7c0,0.4,0.3,0.8,0.7,0.8l3,0.3l0.4,0.8l-0.6-0.1c-0.4,0-0.8,0.3-0.8,0.7
				c0,0.4,0.3,0.8,0.7,0.8l1.6,0.1l0.2,0.3l-0.8,1.5h-0.3l-0.9-1.3c-0.2-0.3-0.7-0.4-1-0.2c-0.3,0.2-0.4,0.7-0.2,1l0.4,0.5h-0.9
				l-1.7-2.5c-0.2-0.3-0.7-0.4-1-0.2c-0.3,0.2-0.4,0.7-0.2,1l1.2,1.7h-1.3l-2.6-3.7c-0.2-0.3-0.7-0.4-1-0.2c-0.3,0.2-0.4,0.7-0.2,1
				l2,2.8h-1.5l-0.9-1.3c-0.2-0.3-0.7-0.4-1-0.2c-0.3,0.2-0.4,0.7-0.2,1l0.4,0.5h-1c-0.4,0-0.7,0.3-0.7,0.7c0,0.4,0.3,0.7,0.7,0.7h1
				l-0.4,0.5c-0.2,0.3-0.1,0.8,0.2,1c0.1,0.1,0.3,0.1,0.4,0.1c0.2,0,0.5-0.1,0.6-0.3l0.9-1.3h1.5l-2,2.8c-0.2,0.3-0.1,0.8,0.2,1
				c0.1,0.1,0.3,0.1,0.4,0.1c0.2,0,0.5-0.1,0.6-0.3l2.6-3.7h1.3l-1.2,1.7c-0.2,0.3-0.1,0.8,0.2,1c0.1,0.1,0.3,0.1,0.4,0.1
				c0.2,0,0.5-0.1,0.6-0.3l1.7-2.5h0.9l-0.4,0.5c-0.2,0.3-0.1,0.8,0.2,1c0.1,0.1,0.3,0.1,0.4,0.1c0.2,0,0.5-0.1,0.6-0.3l0.9-1.3h0.3
				l0.8,1.5l-0.2,0.3l-1.6,0.1c-0.4,0-0.7,0.4-0.7,0.8c0,0.4,0.4,0.7,0.7,0.7c0,0,0,0,0.1,0L154,65l-0.4,0.8l-3,0.3
				c-0.4,0-0.7,0.4-0.7,0.8c0,0.4,0.4,0.7,0.7,0.7c0,0,0,0,0.1,0l2-0.2l-0.7,1.1l-4.5,0.4c-0.4,0-0.7,0.4-0.7,0.8
				c0,0.4,0.4,0.7,0.7,0.7c0,0,0,0,0.1,0l3.4-0.3l-0.7,1.3l-1.6,0.1c-0.4,0-0.7,0.4-0.7,0.8c0,0.4,0.4,0.7,0.7,0.7c0,0,0,0,0.1,0
				l0.6-0.1l-0.5,0.9c-0.2,0.3-0.1,0.8,0.3,1c0.1,0.1,0.2,0.1,0.4,0.1c0.3,0,0.5-0.1,0.6-0.4l0.5-0.9l0.3,0.6
				c0.1,0.3,0.4,0.4,0.7,0.4c0.1,0,0.2,0,0.3-0.1c0.4-0.2,0.5-0.6,0.4-1l-0.7-1.5l0.7-1.3l1.5,3.1c0.1,0.3,0.4,0.4,0.7,0.4
				c0.1,0,0.2,0,0.3-0.1c0.4-0.2,0.5-0.6,0.4-1l-1.9-4.1L154,68l0.9,1.8c0.1,0.3,0.4,0.4,0.7,0.4c0.1,0,0.2,0,0.3-0.1
				c0.4-0.2,0.5-0.6,0.4-1l-1.3-2.8l0.4-0.8l0.3,0.6c0.1,0.3,0.4,0.4,0.7,0.4c0.1,0,0.2,0,0.3-0.1c0.4-0.2,0.5-0.6,0.4-1l-0.7-1.5
				l0.2-0.3h1.7l0.2,0.3l-0.7,1.5c-0.2,0.4,0,0.8,0.4,1c0.1,0,0.2,0.1,0.3,0.1c0.3,0,0.5-0.2,0.7-0.4l0.3-0.6l0.4,0.8l-1.3,2.8
				c-0.2,0.4,0,0.8,0.4,1c0.1,0,0.2,0.1,0.3,0.1c0.3,0,0.5-0.2,0.7-0.4l0.9-1.8l0.7,1.1l-1.9,4.1c-0.2,0.4,0,0.8,0.4,1
				c0.1,0,0.2,0.1,0.3,0.1c0.3,0,0.5-0.2,0.7-0.4l1.5-3.1l0.7,1.3l-0.7,1.5c-0.2,0.4,0,0.8,0.4,1c0.1,0,0.2,0.1,0.3,0.1
				c0.3,0,0.5-0.2,0.7-0.4l0.3-0.6l0.5,0.9c0.1,0.2,0.4,0.4,0.6,0.4c0.1,0,0.2,0,0.4-0.1c0.3-0.2,0.5-0.6,0.3-1l-0.5-0.9l0.6,0.1
				c0,0,0,0,0.1,0c0.4,0,0.7-0.3,0.7-0.7c0-0.4-0.3-0.8-0.7-0.8l-1.6-0.1l-0.7-1.3l3.4,0.3c0,0,0,0,0.1,0c0.4,0,0.7-0.3,0.7-0.7
				c0-0.4-0.3-0.8-0.7-0.8l-4.5-0.4l-0.7-1.1l2,0.2c0,0,0,0,0.1,0c0.4,0,0.7-0.3,0.7-0.7c0-0.4-0.3-0.8-0.7-0.8l-3-0.3l-0.4-0.8
				L161,65c0,0,0,0,0.1,0c0.4,0,0.7-0.3,0.7-0.7c0-0.4-0.3-0.8-0.7-0.8l-1.6-0.1l-0.2-0.3l0.8-1.5h0.3l0.9,1.3
				c0.1,0.2,0.4,0.3,0.6,0.3c0.1,0,0.3,0,0.4-0.1c0.3-0.2,0.4-0.7,0.2-1l-0.4-0.5h0.9l1.7,2.5c0.1,0.2,0.4,0.3,0.6,0.3
				c0.1,0,0.3,0,0.4-0.1c0.3-0.2,0.4-0.7,0.2-1l-1.2-1.7h1.3l2.6,3.7c0.1,0.2,0.4,0.3,0.6,0.3c0.1,0,0.3,0,0.4-0.1
				c0.3-0.2,0.4-0.7,0.2-1l-2-2.8h1.5l0.9,1.3c0.1,0.2,0.4,0.3,0.6,0.3c0.1,0,0.3,0,0.4-0.1c0.3-0.2,0.4-0.7,0.2-1l-0.4-0.5h1
				c0.4,0,0.7-0.3,0.7-0.7C173,60.5,172.6,60.2,172.2,60.2z M156.4,62.4l-0.8-1.5l0.8-1.5h1.7l0.8,1.5l-0.8,1.5H156.4z"/>
			<circle class="st2" cx="184.9" cy="42.3" r="3.4"/>
			<circle class="st2" cx="59.2" cy="106.5" r="3.4"/>
			<circle class="st2" cx="64.2" cy="119.6" r="1.5"/>
			<circle class="st2" cx="52.4" cy="127.4" r="1.5"/>
			<circle class="st2" cx="173" cy="38.8" r="1.5"/>
			<circle class="st2" cx="200.6" cy="74.7" r="3.8"/>
			<circle class="st2" cx="229.5" cy="198.4" r="3.8"/>
			<circle class="st2" cx="221.4" cy="84.6" r="2.8"/>
			<circle class="st2" cx="216" cy="93.1" r="1.5"/>
			<circle class="st2" cx="189.9" cy="83.1" r="1.5"/>
			<circle class="st2" cx="269.4" cy="106.5" r="1.5"/>
			<circle class="st2" cx="238.5" cy="84.6" r="1.5"/>
			<circle class="st2" cx="232.5" cy="96.1" r="1.5"/>
			<circle class="st2" cx="231" cy="84.4" r="1.5"/>
			<circle class="st2" cx="238.5" cy="74.7" r="1.5"/>
			<circle class="st2" cx="278.7" cy="86.1" r="1.5"/>
			<circle class="st2" cx="235.5" cy="189.9" r="1.5"/>
			<circle class="st2" cx="246.9" cy="188.4" r="1.5"/>
			<circle class="st2" cx="240" cy="196.9" r="1.5"/>
			<circle class="st2" cx="208" cy="73.2" r="1.5"/>
			<circle class="st2" cx="214.5" cy="80" r="1.5"/>
		</g>
	</g>
</g>
</svg>
