<?xml version="1.0" encoding="utf-8"?>
<!-- Generator: Adobe Illustrator 19.0.0, SVG Export Plug-In . SVG Version: 6.00 Build 0)  -->
<svg version="1.1" xmlns="http://www.w3.org/2000/svg" xmlns:xlink="http://www.w3.org/1999/xlink" x="0px" y="0px"
	 viewBox="0 0 348 169" style="enable-background:new 0 0 348 169;" xml:space="preserve">
<style type="text/css">
	.st0{fill:#2D2D2D;}
	.st1{fill:#4D4C4B;}
	.st2{fill:#FFFFFF;}
	.st3{fill:#231F20;}
	.st4{fill:#F9F5DC;}
	.st5{fill:#F9DDC5;}
	.st6{fill:#EC145A;}
	.st7{fill:#62BA47;}
</style>
<g id="Layer_2">
</g>
<g id="kolba_4">
</g>
<g id="kolba_3">
</g>
<g id="kolby">
</g>
<g id="doma">
</g>
<g id="butylka_3">
</g>
<g id="butylka_2">
</g>
<g id="butylka_1">
</g>
<g id="vanna_2">
</g>
<g id="sneg">
</g>
<g id="vanna_1">
</g>
<g id="shariki_2">
</g>
<g id="shariki_1">
</g>
<g id="voronka">
</g>
<g id="gradusnik">
</g>
<g id="kolba_2">
</g>
<g id="kolba_1">
</g>
<g id="probirki">
</g>
<g id="potato">
</g>
<g id="zavod">
</g>
<g id="blank">
</g>
<g id="ticks">
</g>
<g id="car">
</g>
<g id="lupa">
	<path class="st0" d="M210.5,136.9h-70c-3.4,0-6.2-2.8-6.2-6.2v-91c0-3.4,2.8-6.2,6.2-6.2h70c3.4,0,6.2,2.8,6.2,6.2v91
		C216.7,134.1,213.9,136.9,210.5,136.9z"/>
	<path class="st1" d="M209.9,33.4c3.7,0,6.8,3.1,6.8,6.8v89.8c0,3.7-3.1,6.8-6.8,6.8H141c-3.7,0-6.8-3.1-6.8-6.8V40.2
		c0-3.7,3.1-6.8,6.8-6.8H209.9 M209.9,29.5H141c-5.9,0-10.8,4.8-10.8,10.8v89.8c0,5.9,4.8,10.8,10.8,10.8h68.9
		c5.9,0,10.8-4.8,10.8-10.8V40.2C220.7,34.3,215.9,29.5,209.9,29.5L209.9,29.5z"/>
	<path class="st2" d="M143.7,68.2L143.7,68.2c-1.5,0-2.6-1.2-2.6-2.6V50.8c0-1.5,1.2-2.6,2.6-2.6l0,0c1.5,0,2.6,1.2,2.6,2.6v14.8
		C146.4,67,145.2,68.2,143.7,68.2z"/>
	<circle class="st2" cx="143.7" cy="42.3" r="2.8"/>
	<path class="st0" d="M313.9,136.9h-69.2c-3.7,0-6.6-3-6.6-6.6V40.1c0-3.7,3-6.6,6.6-6.6h69.2c3.7,0,6.6,3,6.6,6.6v90.1
		C320.6,133.9,317.6,136.9,313.9,136.9z"/>
	<path class="st1" d="M313.8,33.4c3.7,0,6.8,3.1,6.8,6.8v89.8c0,3.7-3.1,6.8-6.8,6.8h-68.9c-3.7,0-6.8-3.1-6.8-6.8V40.2
		c0-3.7,3.1-6.8,6.8-6.8H313.8 M313.8,29.5h-68.9c-5.9,0-10.8,4.8-10.8,10.8v89.8c0,5.9,4.8,10.8,10.8,10.8h68.9
		c5.9,0,10.8-4.8,10.8-10.8V40.2C324.5,34.3,319.7,29.5,313.8,29.5L313.8,29.5z"/>
	<path class="st2" d="M247.6,68.2L247.6,68.2c-1.5,0-2.6-1.2-2.6-2.6V50.8c0-1.5,1.2-2.6,2.6-2.6l0,0c1.5,0,2.6,1.2,2.6,2.6v14.8
		C250.2,67,249,68.2,247.6,68.2z"/>
	<circle class="st2" cx="247.6" cy="42.3" r="2.8"/>
	<path class="st0" d="M106.8,136.9H35.3c-3,0-5.5-2.5-5.5-5.5V38.9c0-3,2.5-5.5,5.5-5.5h71.5c3,0,5.5,2.5,5.5,5.5v92.4
		C112.3,134.4,109.8,136.9,106.8,136.9z"/>
	<path class="st1" d="M105.5,33.4c3.7,0,6.8,3.1,6.8,6.8v89.8c0,3.7-3.1,6.8-6.8,6.8H36.6c-3.7,0-6.8-3.1-6.8-6.8V40.2
		c0-3.7,3.1-6.8,6.8-6.8H105.5 M105.5,29.5H36.6c-5.9,0-10.8,4.8-10.8,10.8v89.8c0,5.9,4.8,10.8,10.8,10.8h68.9
		c5.9,0,10.8-4.8,10.8-10.8V40.2C116.3,34.3,111.5,29.5,105.5,29.5L105.5,29.5z"/>
	<g>
		<g>
			<path class="st3" d="M94,58.4c-9.8-10.3-26.1-11-36.8-1.5s-11.9,25.8-2.8,36.7l0,0l1.5,1.6l0,0c0.8,0.9,2.2,1,3.1,0.2l36.4-32.4
				c0.9-0.8,1-2.2,0.2-3.1l0,0L94,58.4L94,58.4z"/>
			<circle class="st3" cx="51.3" cy="90.3" r="3.5"/>
			<circle class="st3" cx="48.5" cy="84.3" r="3.5"/>
			<circle class="st3" cx="47.9" cy="77.5" r="3.5"/>
			<circle class="st3" cx="48.6" cy="70.8" r="3.5"/>
			<circle class="st3" cx="51" cy="64.6" r="3.5"/>
			<circle class="st3" cx="54.9" cy="59" r="3.5"/>
			<circle class="st3" cx="60.5" cy="54.6" r="3.5"/>
			<circle class="st3" cx="66.7" cy="51.4" r="3.5"/>
			<circle class="st3" cx="73.2" cy="50.3" r="3.5"/>
			<circle class="st3" cx="79.7" cy="50.4" r="3.5"/>
			<circle class="st3" cx="85.8" cy="52.7" r="3.5"/>
			<circle class="st3" cx="91.8" cy="55.9" r="3.5"/>
		</g>
		<g>
			<path class="st4" d="M89.4,57.4c-9.8-10.3-26.1-11-36.8-1.5s-11.9,25.8-2.8,36.7l0,0l1.5,1.6l0,0c0.8,0.9,2.2,1,3.1,0.2L90.7,62
				c0.9-0.8,1-2.2,0.2-3.1l0,0L89.4,57.4L89.4,57.4z"/>
			<circle class="st4" cx="46.7" cy="89.2" r="3.5"/>
			<circle class="st4" cx="43.9" cy="83.2" r="3.5"/>
			<circle class="st4" cx="43.2" cy="76.5" r="3.5"/>
			<circle class="st4" cx="44" cy="69.7" r="3.5"/>
			<circle class="st4" cx="46.4" cy="63.6" r="3.5"/>
			<circle class="st4" cx="50.3" cy="57.9" r="3.5"/>
			<circle class="st4" cx="55.8" cy="53.6" r="3.5"/>
			<circle class="st4" cx="62" cy="50.4" r="3.5"/>
			<circle class="st4" cx="68.5" cy="49.3" r="3.5"/>
			<circle class="st4" cx="75.1" cy="49.3" r="3.5"/>
			<circle class="st4" cx="81.1" cy="51.7" r="3.5"/>
			<circle class="st4" cx="87.1" cy="54.8" r="3.5"/>
		</g>
	</g>
	<g>
		<g>
			<path class="st3" d="M51.5,104.9c9.8,10.3,26.1,11,36.8,1.5s11.9-25.8,2.8-36.7l0,0L89.7,68l0,0c-0.8-0.9-2.2-1-3.1-0.2
				l-36.4,32.4c-0.9,0.8-1,2.2-0.2,3.1l0,0L51.5,104.9L51.5,104.9z"/>
			<circle class="st3" cx="94.2" cy="73.1" r="3.5"/>
			<circle class="st3" cx="97" cy="79.1" r="3.5"/>
			<circle class="st3" cx="97.6" cy="85.8" r="3.5"/>
			<circle class="st3" cx="96.9" cy="92.5" r="3.5"/>
			<circle class="st3" cx="94.5" cy="98.7" r="3.5"/>
			<circle class="st3" cx="90.6" cy="104.4" r="3.5"/>
			<circle class="st3" cx="85.1" cy="108.7" r="3.5"/>
			<circle class="st3" cx="78.9" cy="111.9" r="3.5"/>
			<circle class="st3" cx="72.3" cy="113" r="3.5"/>
			<circle class="st3" cx="65.8" cy="113" r="3.5"/>
			<circle class="st3" cx="59.7" cy="110.6" r="3.5"/>
			<circle class="st3" cx="53.7" cy="107.5" r="3.5"/>
		</g>
		<g>
			<path class="st4" d="M56.1,106c9.8,10.3,26.1,11,36.8,1.5s11.9-25.8,2.8-36.7l0,0L94.3,69l0,0c-0.8-0.9-2.2-1-3.1-0.2l-36.4,32.4
				c-0.9,0.8-1,2.2-0.2,3.1l0,0L56.1,106L56.1,106z"/>
			<circle class="st4" cx="98.9" cy="74.1" r="3.5"/>
			<circle class="st4" cx="101.6" cy="80.1" r="3.5"/>
			<circle class="st4" cx="102.3" cy="86.9" r="3.5"/>
			<circle class="st4" cx="101.6" cy="93.6" r="3.5"/>
			<circle class="st4" cx="99.2" cy="99.8" r="3.5"/>
			<circle class="st4" cx="95.2" cy="105.4" r="3.5"/>
			<circle class="st4" cx="89.7" cy="109.8" r="3.5"/>
			<circle class="st4" cx="83.5" cy="113" r="3.5"/>
			<circle class="st4" cx="77" cy="114.1" r="3.5"/>
			<circle class="st4" cx="70.4" cy="114.1" r="3.5"/>
			<circle class="st4" cx="64.4" cy="111.7" r="3.5"/>
			<circle class="st4" cx="58.4" cy="108.5" r="3.5"/>
		</g>
	</g>
	<g>
		<path class="st3" d="M160.9,46.5c0,0-7-1.8-9.7,4.3c-2.7,6.1,3.9,8.4,4.3,9.3c0.4,0.9,1.6,1.6,2.2,0.4c0.7-1.2,0.7-2.9,2.3-1.8
			c1.6,1.1,0.6,2.1,0,2.6c-0.7,0.4,0.7,2.3,2.6,1c1.9-1.3,5.2-2.2,5.9-5.4C169.3,53.7,168.6,47.6,160.9,46.5z"/>
		<path class="st4" d="M160.2,44.7c0,0-7-1.8-9.7,4.3c-2.7,6.1,3.9,8.4,4.3,9.3c0.4,0.9,1.6,1.6,2.2,0.4c0.7-1.2,0.7-2.9,2.3-1.8
			c1.6,1.1,0.6,2.1,0,2.6c-0.7,0.4,0.7,2.3,2.6,1s5.2-2.2,5.9-5.4C168.6,51.9,168,45.9,160.2,44.7z"/>
	</g>
	<g>
		<path class="st3" d="M208.9,64.5c0,0-7-1.8-9.7,4.3c-2.7,6.1,3.9,8.4,4.3,9.3c0.4,0.9,1.6,1.6,2.2,0.4c0.7-1.2,0.7-2.9,2.3-1.8
			c1.6,1.1,0.6,2.1,0,2.6c-0.7,0.4,0.7,2.3,2.6,1s5.2-2.2,5.9-5.4S216.6,65.7,208.9,64.5z"/>
		<path class="st4" d="M208.2,62.8c0,0-7-1.8-9.7,4.3c-2.7,6.1,3.9,8.4,4.3,9.3s1.6,1.6,2.2,0.4c0.7-1.2,0.7-2.9,2.3-1.8
			c1.6,1.1,0.6,2.1,0,2.6c-0.7,0.4,0.7,2.3,2.6,1s5.2-2.2,5.9-5.4C216.5,70,215.9,63.9,208.2,62.8z"/>
	</g>
	<g>
		<path class="st3" d="M154.5,67.9c0,0-7.2,1.1-7.2,7.7c-0.1,6.7,6.9,6.2,7.6,6.8c0.7,0.7,2.1,0.9,2.2-0.5c0.1-1.3-0.5-3,1.4-2.6
			s1.4,1.7,1,2.4c-0.4,0.7,1.5,1.9,2.8-0.1c1.3-2,3.9-4.1,3.3-7.3C165,71.3,162.1,65.9,154.5,67.9z"/>
		<path class="st4" d="M153.2,66.6c0,0-7.2,1.1-7.2,7.7c-0.1,6.7,6.9,6.2,7.6,6.8c0.7,0.7,2.1,0.9,2.2-0.5s-0.5-3,1.4-2.6
			s1.4,1.7,1,2.4s1.5,1.9,2.8-0.1s3.9-4.1,3.3-7.3S160.8,64.6,153.2,66.6z"/>
	</g>
	<path class="st3" d="M174.3,76.7c0,0,6.2,3.7,10.5-1.4c4.3-5.1-1.4-9.2-1.6-10.1c-0.1-1-1.1-2-2-1c-1,0.9-1.5,2.6-2.7,1.1
		c-1.3-1.5,0-2.2,0.7-2.5c0.7-0.2,0-2.4-2.2-1.7c-2.2,0.7-5.6,0.7-7.2,3.5C168.3,67.5,167.2,73.5,174.3,76.7z"/>
	<path class="st4" d="M173.4,74.6c0,0,6.2,3.7,10.5-1.4c4.3-5.1-1.4-9.2-1.6-10.1c-0.1-1-1.1-2-2-1c-1,0.9-1.5,2.6-2.7,1.1
		c-1.3-1.5,0-2.2,0.7-2.5c0.7-0.2,0-2.4-2.2-1.7c-2.2,0.7-5.6,0.7-7.2,3.5C167.4,65.4,166.3,71.4,173.4,74.6z"/>
	<path class="st3" d="M181.6,50.9c0,0,6.3-3.6,3.8-9.9s-8.7-3.2-9.6-3.5s-2.2,0-1.9,1.3c0.4,1.3,1.6,2.6-0.4,2.9s-2-1.1-1.8-1.9
		c0.2-0.8-2.1-1.2-2.5,1.1c-0.4,2.3-2.1,5.2-0.4,8C170.6,51.7,175.3,55.5,181.6,50.9z"/>
	<path class="st4" d="M179.7,49.7c0,0,6.3-3.6,3.8-9.9s-8.7-3.2-9.6-3.5s-2.2,0-1.9,1.3s1.6,2.6-0.4,2.9s-2-1.1-1.8-1.9
		c0.2-0.8-2.1-1.2-2.5,1.1c-0.4,2.3-2.1,5.2-0.4,8C168.7,50.4,173.4,54.3,179.7,49.7z"/>
	<path class="st3" d="M199.5,64c0,0,6.3-3.6,3.8-9.9c-2.4-6.2-8.7-3.2-9.6-3.5c-0.9-0.4-2.2,0-1.9,1.3s1.6,2.6-0.4,2.9
		s-2-1.1-1.8-1.9c0.2-0.8-2.1-1.2-2.5,1.1c-0.4,2.3-2.1,5.2-0.4,8S193.2,68.6,199.5,64z"/>
	<path class="st4" d="M197.6,62.7c0,0,6.3-3.6,3.8-9.9s-8.7-3.2-9.6-3.5c-0.9-0.4-2.2,0-1.9,1.3s1.6,2.6-0.4,2.9s-2-1.1-1.8-1.9
		c0.2-0.8-2.1-1.2-2.5,1.1c-0.4,2.3-2.1,5.2-0.4,8C186.5,63.5,191.3,67.4,197.6,62.7z"/>
	<path class="st3" d="M193.3,92.1c0,0,7.2-0.6,7.7-7.2c0.5-6.7-6.5-6.6-7.1-7.3c-0.7-0.7-2-1-2.3,0.3c-0.2,1.3,0.3,3-1.6,2.5
		c-1.9-0.5-1.3-1.8-0.8-2.4c0.5-0.6-1.4-1.9-2.8-0.1c-1.4,1.9-4.2,3.8-3.8,7S185.6,93.5,193.3,92.1z"/>
	<path class="st4" d="M192,90.1c0,0,7.2-0.6,7.7-7.2c0.5-6.7-6.5-6.6-7.1-7.3c-0.7-0.7-2-1-2.3,0.3s0.3,3-1.6,2.5s-1.3-1.8-0.8-2.4
		c0.5-0.6-1.4-1.9-2.8-0.1c-1.4,1.9-4.2,3.8-3.8,7C181.8,86,184.4,91.6,192,90.1z"/>
	<path class="st3" d="M199,94.9c0,0-5.8-4.3-10.6,0.4c-4.7,4.7,0.6,9.2,0.6,10.2c0,1,0.9,2.1,1.9,1.2c1-0.8,1.7-2.5,2.8-0.8
		c1.1,1.7-0.2,2.2-1,2.4s-0.2,2.4,2,1.9c2.3-0.5,5.6-0.1,7.5-2.8C204.1,104.7,205.7,98.8,199,94.9z"/>
	<path class="st4" d="M198.6,97.2c0,0-5.8-4.3-10.6,0.4c-4.7,4.7,0.6,9.2,0.6,10.2c0,1,0.9,2.1,1.9,1.2s1.7-2.5,2.8-0.8
		c1.1,1.7-0.2,2.2-1,2.4c-0.8,0.2-0.2,2.4,2,1.9s5.6-0.1,7.5-2.8S205.4,101.1,198.6,97.2z"/>
	<path class="st3" d="M151.2,102.6c0,0,7.2-0.6,7.7-7.2c0.5-6.7-6.5-6.6-7.1-7.3c-0.7-0.7-2-1-2.3,0.3c-0.2,1.3,0.3,3-1.6,2.5
		c-1.9-0.5-1.3-1.8-0.8-2.4c0.5-0.6-1.4-1.9-2.8-0.1c-1.4,1.9-4.2,3.8-3.8,7S143.6,104.1,151.2,102.6z"/>
	<path class="st4" d="M150,100.7c0,0,7.2-0.6,7.7-7.2c0.5-6.7-6.5-6.6-7.1-7.3c-0.7-0.7-2-1-2.3,0.3c-0.2,1.3,0.3,3-1.6,2.5
		c-1.9-0.5-1.3-1.8-0.8-2.4c0.5-0.6-1.4-1.9-2.8-0.1c-1.4,1.9-4.2,3.8-3.8,7C139.7,96.6,142.3,102.1,150,100.7z"/>
	<path class="st3" d="M166.9,98.6c0,0,6.2,3.7,10.5-1.4c4.3-5.1-1.4-9.2-1.6-10.1c-0.1-1-1.1-2-2-1c-1,0.9-1.5,2.6-2.7,1.1
		c-1.3-1.5,0-2.2,0.7-2.5c0.7-0.2,0-2.4-2.2-1.7s-5.6,0.7-7.2,3.5S159.8,95.4,166.9,98.6z"/>
	<path class="st4" d="M166.1,96.5c0,0,6.2,3.7,10.5-1.4c4.3-5.1-1.4-9.2-1.6-10.1c-0.1-1-1.1-2-2-1c-1,0.9-1.5,2.6-2.7,1.1
		c-1.3-1.5,0-2.2,0.7-2.5c0.7-0.2,0-2.4-2.2-1.7s-5.6,0.7-7.2,3.5S159,93.3,166.1,96.5z"/>
	<g>
		<path class="st3" d="M263.6,51.5c0,0-13.3,7.8-3.6,18.3c9.7,10.5,25.6,4,27.3-1.6c1.6-5.5,1.5-10.8-5.7-16.7
			S263.6,51.5,263.6,51.5z"/>
		<path class="st4" d="M261.5,49.3c0,0-13.3,7.8-3.6,18.3c9.7,10.5,25.6,4,27.3-1.6c1.6-5.5,1.5-10.8-5.7-16.7
			S261.5,49.3,261.5,49.3z"/>
		<path class="st4" d="M267,47.2c0,0,3.3-0.6,1.3-4.5c-2-3.8,2.4-3.2,3.3-2.5c0.9,0.7,1.1,3.6,1.9,2.1c0.8-1.4,2.3-3.4,5-1.3
			c2.8,2.1-2.6,2.5-1.6,3.4c1,1,3-0.4,3.1-1s4.4-0.1,2.4,2.6s-2.3,0.1-3.4,1.2c-1.1,1-1.3,2.1-0.3,2.8c1,0.7-4.3,0.3-4.3,0.3
			L267,47.2z"/>
	</g>
	<g>
		<path class="st3" d="M253.8,86.1c0,0-13.3,7.8-3.6,18.3c9.7,10.5,25.6,4,27.3-1.6c1.6-5.5,1.5-10.8-5.7-16.7
			C264.6,80.2,253.8,86.1,253.8,86.1z"/>
		<path class="st4" d="M251.7,83.9c0,0-13.3,7.8-3.6,18.3s25.6,4,27.3-1.6c1.6-5.5,1.5-10.8-5.7-16.7
			C262.5,77.9,251.7,83.9,251.7,83.9z"/>
		<path class="st4" d="M257.3,81.8c0,0,3.3-0.6,1.3-4.5c-2-3.8,2.4-3.2,3.3-2.5c0.9,0.7,1.1,3.6,1.9,2.1c0.8-1.4,2.3-3.4,5-1.3
			c2.8,2.1-2.6,2.5-1.6,3.4c1,1,3-0.4,3.1-1c0.1-0.6,4.4-0.1,2.4,2.6s-2.3,0.1-3.4,1.2c-1.1,1-1.3,2.1-0.3,2.8
			c1,0.7-4.3,0.3-4.3,0.3L257.3,81.8z"/>
	</g>
	<g>
		<path class="st3" d="M306,70.5c0,0,13.3,7.8,3.6,18.3c-9.7,10.5-25.6,4-27.3-1.6c-1.6-5.5-1.5-10.8,5.7-16.7
			C295.2,64.6,306,70.5,306,70.5z"/>
		<path class="st4" d="M308.1,68.3c0,0,13.3,7.8,3.6,18.3c-9.7,10.5-25.6,4-27.3-1.6c-1.6-5.5-1.5-10.8,5.7-16.7
			C297.3,62.4,308.1,68.3,308.1,68.3z"/>
		<path class="st4" d="M302.5,66.2c0,0-3.3-0.6-1.3-4.5c2-3.8-2.4-3.2-3.3-2.5c-0.9,0.7-1.1,3.6-1.9,2.1c-0.8-1.4-2.3-3.4-5-1.3
			c-2.8,2.1,2.6,2.5,1.6,3.4c-1,1-3-0.4-3.1-1c-0.1-0.6-4.4-0.1-2.4,2.6c2,2.7,2.3,0.1,3.4,1.2c1.1,1,1.3,2.1,0.3,2.8
			c-1,0.7,4.3,0.3,4.3,0.3L302.5,66.2z"/>
	</g>
	<path class="st5" d="M130.2,97.2v32.9c0,5.9,4.8,10.8,10.8,10.8h68.9c5.9,0,10.8-4.8,10.8-10.8V97.2H130.2z"/>
	<g>
		<path class="st6" d="M182.7,112.1c-0.1,0-0.2,0-0.4,0c-1-2.3-3.3-3.9-6-3.9c-2.7,0-5,1.6-6,3.9c-0.1,0-0.1,0-0.2,0
			c-3.2,0-6.3,3.2-6.3,6.4c0,2.5,2.1,6,4.4,6.8c0.7-0.2,1.8-0.5,3.2-0.7c-1.6-0.5-1.7-1.6-1.7-1.6c0-0.1,0.1-0.2,0.2-0.3
			c0.1,0,0.2,0.1,0.3,0.2c0,0.1,0.2,1.2,2.4,1.5c0,0,0,0,0.1,0c0.5-0.1,1.1-0.1,1.7-0.2c-0.5-0.7-0.8-1.8-0.8-2
			c0-0.1,0.1-0.3,0.2-0.3c0.1,0,0.3,0.1,0.3,0.2c0.1,0.4,0.4,1.6,0.9,2c0,0,0,0,0,0c1.7-0.1,3.6-0.1,5.7,0.2c0.1,0,0.2,0,0.2-0.1
			c2-0.4,2.1-1.4,2.1-1.5c0-0.1,0.1-0.2,0.3-0.2c0.1,0,0.2,0.1,0.2,0.2c0,0-0.1,1.1-1.7,1.7c1,0.2,2,0.4,3,0.7
			c2.2-0.8,4.2-4.2,4.2-6.6C189,115.5,186,112.1,182.7,112.1z"/>
		<g>
			<circle class="st7" cx="187.4" cy="109.2" r="7.1"/>
			<g>
				<path class="st2" d="M185.7,108.2c-0.6,0.1-0.7,0.8-0.8,1.2l0,0v0c0,0.1,0,0.1,0,0.2c0,0.2,0,0.4,0,0.6c0,0.1,0,0.3-0.1,0.3
					c-0.2,0-0.4-0.3-0.4-0.4c-0.1-0.4-0.2-0.7-0.3-1.1c-0.1-0.4-0.1-0.8-0.1-1.3c0-0.2,0-0.3,0-0.5c0-0.1,0-0.1,0-0.2
					c0,0,0-0.1,0-0.1c0.1-0.3-0.4,0-0.5,0.1c-0.5,0.8-0.3,1.8-0.3,2.7c0,0.2,0,0.5,0,0.7c0,0.2-0.1,0.5-0.2,0.6
					c-0.1,0.1-0.2,0-0.3,0c-0.1-0.1-0.2-0.2-0.2-0.3c0-0.1-0.2-0.1-0.2,0c-0.1,0.1-0.2,0.3-0.2,0.4c0.1,0.3,0.3,0.6,0.7,0.5
					c0.5-0.2,0.8-0.8,0.9-1.3c0.1-0.2,0.1-0.5,0.1-0.7c0.1,0.4,0.2,0.7,0.3,1c0.1,0.2,0.3,0.5,0.6,0.4c0.2,0,0.4-0.3,0.5-0.5
					c0.1,0.2,0.3,0.4,0.5,0.4c0.3,0,0.5-0.3,0.6-0.6c0.1-0.3,0.2-0.6,0.2-0.9C186.4,109,186.3,108.1,185.7,108.2z M185.9,110.2
					c0,0.1,0,0.1,0,0.2c-0.1,0-0.2-0.2-0.2-0.3c-0.1-0.2-0.1-0.4-0.2-0.6c0-0.2,0-0.4,0-0.7c0-0.1,0-0.1,0-0.2
					c0.3,0.2,0.4,0.6,0.4,0.9C185.9,109.8,185.9,110,185.9,110.2z"/>
				<path class="st2" d="M192.7,109c-0.6-0.2-1,0.6-1.1,1.1c-0.1,0.5-0.2,1.2,0.3,1.5c0.3,0.1,0.6-0.1,0.7-0.3
					c0.2-0.2,0.3-0.5,0.4-0.8C193.2,110.1,193.3,109.2,192.7,109z M192.4,111c0,0-0.1,0.1-0.1,0.1c-0.1-0.1-0.1-0.3-0.1-0.4
					c0-0.2,0-0.4,0-0.7c0-0.2,0.1-0.4,0.2-0.6c0,0,0.1-0.1,0.1-0.1c0.2,0.3,0.2,0.7,0.1,1C192.5,110.6,192.4,110.9,192.4,111z"/>
				<path class="st2" d="M191,109.1c0.1-0.2,0.2-0.3,0.3-0.5c0.2-0.4,0.5-0.8,0.4-1.2c0-0.4-0.6-0.4-0.9-0.3c-0.4,0.2-0.6,0.6-0.8,1
					c-0.2,0.5-0.2,1.1-0.3,1.7c0,0,0,0,0,0c-0.2,0.2-0.6,0.7-0.9,0.5c-0.1,0-0.1-0.2-0.2-0.3c0.3-0.3,0.5-0.6,0.7-0.9
					c0.2-0.3,0.3-0.8,0-1c-0.3-0.2-0.7,0-0.9,0.3c-0.2,0.2-0.3,0.6-0.3,0.9c0,0.2,0,0.5,0,0.7c-0.2,0.1-0.4,0.2-0.6,0.1
					c-0.2,0-0.3-0.3-0.4-0.5c-0.1-0.3-0.1-0.6,0-0.9c0-0.1,0-0.2,0.1-0.3c0,0,0,0,0-0.1c0.2,0.1,0.2,0.3,0.2,0.4
					c0.1,0.2,0.6-0.1,0.5-0.3c-0.1-0.2-0.1-0.4-0.4-0.5c-0.2-0.1-0.5,0.1-0.7,0.2c-0.4,0.4-0.4,1-0.4,1.5c0,0.3,0.1,0.7,0.4,0.9
					c0.4,0.2,0.9,0,1.3-0.2c0.1,0.2,0.3,0.4,0.6,0.4c0.4-0.1,0.7-0.3,1-0.5c0,0.3,0.1,0.6,0.3,0.7c0.3,0.2,0.7,0,1-0.3
					c0.3-0.4,0.4-0.9,0.3-1.3C191.4,109.2,191.2,109.1,191,109.1z M188.9,108.9c0-0.1,0.1-0.2,0.1-0.2c0,0,0,0,0,0
					c0.2,0,0.2,0.2,0.2,0.4c0,0.2-0.2,0.5-0.4,0.7c0,0,0-0.1,0-0.1C188.8,109.3,188.8,109.1,188.9,108.9z M190.9,107.7
					c0-0.1,0.1-0.2,0.2-0.2c0,0,0,0,0,0c0.2,0.3,0,0.7-0.1,0.9c-0.1,0.2-0.3,0.5-0.5,0.7c0-0.2,0.1-0.5,0.1-0.7
					C190.7,108.2,190.8,107.9,190.9,107.7z M190.8,110.6c0,0,0,0.1-0.1,0.1c0,0,0,0-0.1,0c-0.2-0.1-0.2-0.4-0.2-0.6
					c0-0.1,0-0.2,0-0.4c0.1-0.1,0.1-0.1,0.2-0.2c0.1-0.1,0.2,0.1,0.3,0.2C191,110.1,190.9,110.4,190.8,110.6z"/>
			</g>
		</g>
		<g>
			<path class="st7" d="M155.6,114c0,0.1,0.2,0.1,0.3,0.2c0,0.1-0.1,0-0.2,0c0,0.1,0.1,0.1,0.1,0.1c0,0-0.1,0-0.1,0.1
				c0.1,0.1,0.2,0.3,0.4,0.3c0.3,0.1,0.7,0.2,0.7,0.3c0-0.6-0.2-1.1,0.3-1.6c0-0.1-0.1,0-0.1-0.1c0,0,0,0,0.1,0
				c0-0.1-0.1-0.1-0.1-0.2c0,0,0.1,0,0.1,0c0.1,0-0.1-0.1-0.1-0.1c0-0.1,0.1,0,0.1,0c0-0.1-0.2-0.2-0.2-0.3c0.1,0,0.2,0.1,0.2,0.2
				c0-0.1-0.2-0.2-0.2-0.4c0.1,0,0.2,0.2,0.3,0.2c-0.1-0.2-0.2-0.3-0.2-0.4c0.2,0.1,0.2,0.3,0.4,0.3c-0.1-0.2-0.3-0.5-0.2-0.7
				c0.2,0.2,0.2,0.4,0.3,0.6c0-0.3-0.2-0.6-0.1-0.9c0.1,0.2,0.2,0.6,0.3,0.9c0-0.3-0.2-0.7-0.1-1.1c0.1,0.3,0.1,0.6,0.2,1
				c0-0.3-0.1-0.8,0-1.1c0.1,0.3,0.1,0.7,0.2,1.1c0-0.3-0.1-0.8,0.1-1c0,0.3,0,0.6,0,0.8c0,0.5,0.2,0.9,0.1,1.3
				c-0.2,0.4-0.5,0.8-0.5,1.4c0.7,0.2,0.9,0.2,1.4,0.2c0.2,0,0.4-0.1,0.7-0.1c0.1,0,0.1,0.1,0.2,0.1c0.2,0.1,0.3,0.1,0.5,0.1
				c-0.3,0.1-0.8,0.1-0.8,0.1c-0.1,0-0.5-0.1-0.2-0.1c0.2,0,0.4,0,0.3-0.1c0-0.2-0.3,0-0.5,0c-0.6,0.1-0.9,0.2-1.8,0
				c0.3,0,0.2-0.2,0.2-0.3c0-0.7,0.1-0.9,0.3-1.2c0.4-0.6-0.1-0.6-0.3-0.9c-0.1,0.1,0,0.2,0,0.3c-0.1-0.1-0.1-0.2-0.2-0.3
				c-0.1,0.1,0,0.2,0.1,0.3c-0.1,0-0.1-0.1-0.2-0.2c-0.1,0.1,0.1,0.2,0.1,0.2c-0.1,0-0.1-0.1-0.2-0.1c-0.1,0.1,0,0.1,0,0.2
				c-0.1,0-0.1,0-0.1,0c0,0.1,0,0.1,0.1,0.1c0,0,0,0-0.1,0c-0.1,0,0,0.1,0,0.1c-0.5-0.1-0.1,1.4-0.5,2c0.2,0.2,0.8,0.1,1.2,0.1
				c-0.5,0.3-0.9,0.2-1.3,0.3c-0.1,0-0.1,0-0.2,0.1c-0.3,0.1-0.5,0.2-0.8,0.3c-0.3,0.1-1.2,0.3-1.3,0.3c2.2-0.8,1.9-0.9,2-1
				c-0.4-0.1-0.5-0.5-0.7-0.7c0,0,0,0,0.1-0.1c0,0-0.1,0-0.1,0c0,0,0-0.1,0.1-0.1c0-0.1-0.1,0-0.2-0.1c0-0.1,0.1-0.1,0.1-0.1
				c0-0.1-0.2,0-0.2-0.1c0-0.1,0.1-0.1,0.2-0.1c-0.1-0.1-0.3,0-0.3-0.2c0.1,0,0.2,0,0.3,0c-0.1-0.1-0.4-0.1-0.4-0.3
				c0.2,0,0.3,0.1,0.5,0.1c-0.2-0.1-0.4-0.2-0.5-0.4c0.2,0.1,0.4,0.2,0.6,0.3c-0.1-0.2-0.4-0.3-0.5-0.5c0.2,0,0.4,0.3,0.7,0.3
				c-0.1,0-0.3-0.2-0.5-0.2c0.1,0.2,0.3,0.3,0.5,0.4c-0.1,0.1-0.3-0.1-0.4-0.1c0,0.1,0.2,0.2,0.4,0.3C155.8,114,155.7,114,155.6,114
				"/>
			<path class="st7" d="M157.6,110c-2.5,0-4.5,2-4.5,4.5c0,2.5,2,4.5,4.5,4.5c2.5,0,4.5-2,4.5-4.5C162.1,112,160.1,110,157.6,110
				 M157.6,110.2c2.4,0,4.3,1.9,4.3,4.3c0,2.4-1.9,4.3-4.3,4.3c-2.4,0-4.3-1.9-4.3-4.3C153.3,112.1,155.2,110.2,157.6,110.2"/>
		</g>
		<g>
			<g>
				<g>
					<path class="st2" d="M166.9,122c0.5,0.9,1.5,0.1,1.6-0.7c0.1-1.2-0.6-2.3-1.2-3.3c-0.1-0.1-0.2,0-0.3,0.1
						c-0.6,0.5-1.2,1.4-0.8,2c0.1,0.2,0.5-0.4,0.4-0.6c-0.2-0.3,0.2-0.8,0.5-1c-0.1,0-0.2,0.1-0.3,0.1c0.2,0.4,0.5,0.8,0.7,1.2
						c0.1,0.2,0.2,0.5,0.3,0.7c0.1,0.2,0.1,0.3,0.2,0.5c-0.2,0.8-0.4,0.9-0.7,0.4C167.2,121.2,166.8,121.8,166.9,122L166.9,122z"/>
					<path class="st2" d="M169.9,120.8c-0.2,0.5-0.5-0.4-0.5-0.5c-0.1-0.2-0.2-0.4-0.3-0.5c-0.3-0.3-0.7-0.1-1,0.1
						c0.1,0,0.1,0,0.2,0c-0.2-0.5-0.5-1.8,0.6-1.3c0.2,0.1,0.6-0.5,0.4-0.6c-0.6-0.3-1-0.1-1.4,0.5c-0.4,0.6-0.2,1.3,0.1,1.9
						c0,0.1,0.1,0.1,0.2,0c0.8-0.7,0.9,0.7,1.4,1.1c0.4,0.3,0.7-0.6,0.8-0.8C170.4,120.4,170,120.5,169.9,120.8L169.9,120.8z"/>
				</g>
				<path class="st2" d="M172,120.6c0.2,0.6,0.8,0.4,1.1-0.1c0.2-0.3,0.2-0.6,0.2-1c0-0.5,0-1,0.2-1.5c-0.2,0.1-0.4,0.2-0.6,0.3
					c0.1,0.7,0.2,1.8,0.8,2.4c0.4,0.4,1-0.5,1.1-0.7c0.2-0.4-0.4-0.1-0.5,0.1c-0.2,0.5-0.5-0.2-0.5-0.4c-0.2-0.5-0.3-1.1-0.3-1.7
					c0-0.3-0.5,0.2-0.6,0.3c-0.1,0.3-0.2,0.7-0.2,1c0,0.2,0,0.4,0,0.6c0,0.1,0,0.2,0,0.3c0,0.3-0.2,0.1-0.2,0
					C172.5,119.9,172,120.4,172,120.6L172,120.6z"/>
				<path class="st2" d="M176.4,117.9c0.1,0.8,0.1,1.6,0.1,2.4c0,0.3,0.5-0.1,0.5-0.3c0.1-0.5,0.2-0.7,0.5-1
					c0.4-0.4,0.6-0.8,0.7-1.3c0.1-0.4-0.5,0-0.6,0.1c-0.3,0.6-0.3,1.3-0.2,2c0,0.2,0,0.4,0.2,0.6c0.2,0.2,0.6-0.1,0.8-0.2
					c0.3-0.2,0.1-0.5-0.2-0.2c-0.2,0.2-0.2-0.8-0.2-0.9c0-0.4,0.1-0.9,0.2-1.3c-0.2,0-0.4,0.1-0.6,0.1c-0.1,0.5-0.3,0.8-0.7,1.2
					c-0.3,0.4-0.4,0.8-0.5,1.3c0.2-0.1,0.3-0.2,0.5-0.3c0.1-0.8,0-1.6,0-2.4C177,117.4,176.4,117.7,176.4,117.9L176.4,117.9z"/>
				<g>
					<path class="st2" d="M180.4,120.3c-0.1,0.6,0.5,0.8,1,0.5c0.5-0.3,0.7-0.8,0.8-1.3c0.1-0.4,0.2-1-0.3-1.3c-0.2-0.1-0.5,0-0.7,0
						c-0.4,0.2-0.6,0.5-0.6,0.9c-0.1,0.3,0.6,0,0.6-0.2c0.1-0.4,0.2-0.4,0.4,0c0.1,0.2,0.1,0.4,0,0.7c0,0.3-0.1,0.5-0.2,0.8
						c0,0.1-0.1,0.2-0.2,0.2c0,0,0-0.1-0.1,0c-0.2-0.1-0.2-0.2-0.2-0.4C181,119.8,180.4,120.1,180.4,120.3L180.4,120.3z"/>
					<path class="st2" d="M180.6,117.9c0,1.5-0.3,3-0.7,4.5c-0.1,0.3,0.5,0,0.6-0.2c0.4-1.5,0.8-3,0.8-4.6
						C181.3,117.4,180.6,117.7,180.6,117.9L180.6,117.9z"/>
				</g>
				<g>
					<path class="st2" d="M185.9,119.7c-0.3,0.5-0.6,1.1-0.7,1.6c-0.1,0.2-0.1,0.6,0.1,0.8c0.3,0.3,0.7,0.2,1,0.1
						c0.4-0.2,0-0.4-0.3-0.3c-0.2,0.1-0.2-0.5-0.2-0.5c0-0.3,0.1-0.5,0.2-0.8c0.1-0.3,0.3-0.7,0.5-1
						C186.7,119.5,186,119.5,185.9,119.7L185.9,119.7z"/>
					<path class="st2" d="M184,121.4c0,0.5,0.5,0.6,0.9,0.5c0.5-0.2,0.9-0.7,1.2-1.1c0.1-0.3-0.5-0.1-0.6,0c-0.1,0.1,0,0,0.1,0
						c0,0-0.1,0-0.1-0.1c-0.1-0.1-0.1-0.2-0.1-0.3c0-0.2,0.1-0.4,0.2-0.6c0.2-0.3,0.3,0.1,0.3,0.3c-0.1,0.3,0.6,0.2,0.7,0
						c0.2-0.4-0.1-0.8-0.6-0.8c-0.6,0-1,0.6-1.1,1c-0.2,0.9,1,1,1.4,0.4c-0.2,0-0.4,0-0.6,0c-0.1,0.2-0.3,0.4-0.4,0.6
						c-0.2,0.2-0.3,0-0.3-0.2C184.7,120.9,184,121.1,184,121.4L184,121.4z"/>
				</g>
				<path class="st2" d="M176.4,120c-0.3,0.3-0.4-0.8-0.4-0.9c0-0.5,0-0.9,0-1.4c0-0.3-0.6,0.1-0.6,0.3c0,0.4,0,0.8,0,1.2
					c0,0.2,0,0.4,0,0.6c0,0.2,0,0.3-0.2,0.2c-0.5-0.3-0.4-1.6-0.3-2.1c0.1-0.4-0.5,0-0.5,0.2c-0.1,0.5-0.3,2.7,0.7,2.5
					c1.2-0.2,0.9-2.1,0.9-2.9c-0.2,0.1-0.4,0.2-0.6,0.3c0,0.7,0,1.5,0.2,2.1c0.2,0.6,0.7,0.3,1,0C176.9,119.9,176.7,119.7,176.4,120
					L176.4,120z"/>
				<path class="st2" d="M184.1,121.1c-0.4,0.2-0.1-0.9-0.1-1c0.1-0.4,0.3-0.9,0.4-1.3c0.1-0.3-0.6-0.1-0.6,0.1
					c-0.1,0.4-0.3,0.7-0.4,1.1c-0.1,0.2-0.2,0.4-0.3,0.6c-0.1,0.2-0.1,0.3-0.3,0.1c-0.4-0.5,0.2-1.6,0.5-2.1c0.2-0.3-0.5-0.2-0.6,0
					c-0.2,0.4-1.1,2.4-0.2,2.6c1.1,0.2,1.5-1.7,1.8-2.4c-0.2,0-0.4,0.1-0.6,0.1c-0.2,0.7-0.5,1.4-0.5,2.1c0,0.6,0.5,0.6,1,0.4
					C184.6,121.2,184.4,120.9,184.1,121.1L184.1,121.1z"/>
				<path class="st2" d="M180.1,118.3c0.1-0.8-1.1-0.5-1.4-0.1c-0.4,0.5-0.5,1.2-0.5,1.8c0.1,0.6,0.5,0.8,1,0.4
					C180,120,180,119,180.1,118.3c-0.2,0.1-0.4,0.1-0.6,0.2c-0.1,0.4-0.6,2.7,0.7,2.2c0.3-0.1,0.4-0.5-0.1-0.4
					c-0.1,0-0.1-0.6-0.1-0.7C180,119.2,180.1,118.7,180.1,118.3c0.1-0.3-0.6,0-0.6,0.2c-0.1,0.4-0.1,0.8-0.2,1.2
					c0,0.1-0.1,0.4-0.2,0.4c-0.1,0-0.2-0.2-0.2-0.2c-0.1-0.3-0.1-0.6,0-0.9c0-0.2,0.1-0.3,0.2-0.5c0-0.1,0.1-0.2,0.1-0.2
					c0.1-0.1,0.3,0.2,0.3,0.2C179.5,118.8,180.1,118.5,180.1,118.3L180.1,118.3z"/>
				<g>
					<path class="st2" d="M169.7,118.9c0.2,0.5,0.3,2.6,1.2,2.3c1-0.4,0.6-2.3,0.5-3c0-0.3-0.5,0.2-0.5,0.4c0.1,0.5,0.1,1,0.2,1.6
						c0,0.2,0.1,0.6-0.2,0.5c-0.3-0.1-0.4-0.8-0.4-1c-0.1-0.4-0.1-0.8-0.3-1.2C170.1,118.2,169.7,118.7,169.7,118.9L169.7,118.9z"/>
					<path class="st2" d="M170.9,118.6c0.2,1,0.5,2,0.8,3c0.1,0.2,0.3,1.2,0,1.2c-0.6,0,0.1-1.8,0.2-2c0.2-0.4-0.2-0.3-0.4,0
						c-0.4,0.7-0.7,1.6-0.3,2.3c0.1,0.3,0.5,0.3,0.7,0.1c0.4-0.5,0.4-1,0.3-1.6c-0.1-1.1-0.5-2.2-0.8-3.3
						C171.3,117.9,170.9,118.4,170.9,118.6L170.9,118.6z"/>
				</g>
				<path class="st2" d="M181.4,118.5c0.5,0.5,1.1,0.6,1.7,0.3c0.1,0,0.2-0.1,0.2-0.2c-0.1-0.1-0.2,0-0.3,0c-0.3,0.2-0.8-0.1-1-0.4
					C181.8,118.1,181.3,118.4,181.4,118.5L181.4,118.5z"/>
			</g>
		</g>
		<g>
			<path class="st6" d="M184.8,130.8v-5c-7.8-2.2-14.4-0.6-16.6,0v5.1C170.4,130.3,177,128.7,184.8,130.8z"/>
			<path class="st6" d="M169,131.2c1.2,0.4,3.9,1,7.4,1c3.5,0,6.3-0.7,7.6-1.1C177.3,129.5,171.5,130.5,169,131.2z"/>
		</g>
	</g>
	<path class="st5" d="M25.8,97.2v32.9c0,5.9,4.8,10.8,10.8,10.8h68.9c5.9,0,10.8-4.8,10.8-10.8V97.2H25.8z"/>
	<g>
		<path class="st6" d="M78.3,112.1c-0.1,0-0.2,0-0.4,0c-1-2.3-3.3-3.9-6-3.9c-2.7,0-5,1.6-6,3.9c-0.1,0-0.1,0-0.2,0
			c-3.2,0-6.3,3.2-6.3,6.4c0,2.5,2.1,6,4.4,6.8c0.7-0.2,1.8-0.5,3.2-0.7c-1.6-0.5-1.7-1.6-1.7-1.6c0-0.1,0.1-0.2,0.2-0.3
			c0.1,0,0.2,0.1,0.3,0.2c0,0.1,0.2,1.2,2.4,1.5c0,0,0,0,0.1,0c0.5-0.1,1.1-0.1,1.7-0.2c-0.5-0.7-0.8-1.8-0.8-2
			c0-0.1,0.1-0.3,0.2-0.3c0.1,0,0.3,0.1,0.3,0.2c0.1,0.4,0.4,1.6,0.9,2c0,0,0,0,0,0c1.7-0.1,3.6-0.1,5.7,0.2c0.1,0,0.2,0,0.2-0.1
			c2-0.4,2.1-1.4,2.1-1.5c0-0.1,0.1-0.2,0.3-0.2c0.1,0,0.2,0.1,0.2,0.2c0,0-0.1,1.1-1.7,1.7c1,0.2,2,0.4,3,0.7
			c2.2-0.8,4.2-4.2,4.2-6.6C84.6,115.5,81.6,112.1,78.3,112.1z"/>
		<g>
			<circle class="st7" cx="83" cy="109.2" r="7.1"/>
			<g>
				<path class="st2" d="M81.3,108.2c-0.6,0.1-0.7,0.8-0.8,1.2l0,0v0c0,0.1,0,0.1,0,0.2c0,0.2,0,0.4,0,0.6c0,0.1,0,0.3-0.1,0.3
					c-0.2,0-0.4-0.3-0.4-0.4c-0.1-0.4-0.2-0.7-0.3-1.1c-0.1-0.4-0.1-0.8-0.1-1.3c0-0.2,0-0.3,0-0.5c0-0.1,0-0.1,0-0.2
					c0,0,0-0.1,0-0.1c0.1-0.3-0.4,0-0.5,0.1c-0.5,0.8-0.3,1.8-0.3,2.7c0,0.2,0,0.5,0,0.7c0,0.2-0.1,0.5-0.2,0.6
					c-0.1,0.1-0.2,0-0.3,0c-0.1-0.1-0.2-0.2-0.2-0.3c0-0.1-0.2-0.1-0.2,0c-0.1,0.1-0.2,0.3-0.2,0.4c0.1,0.3,0.3,0.6,0.7,0.5
					c0.5-0.2,0.8-0.8,0.9-1.3c0.1-0.2,0.1-0.5,0.1-0.7c0.1,0.4,0.2,0.7,0.3,1c0.1,0.2,0.3,0.5,0.6,0.4c0.2,0,0.4-0.3,0.5-0.5
					c0.1,0.2,0.3,0.4,0.5,0.4c0.3,0,0.5-0.3,0.6-0.6c0.1-0.3,0.2-0.6,0.2-0.9C82,109,81.9,108.1,81.3,108.2z M81.5,110.2
					c0,0.1,0,0.1,0,0.2c-0.1,0-0.2-0.2-0.2-0.3c-0.1-0.2-0.1-0.4-0.2-0.6c0-0.2,0-0.4,0-0.7c0-0.1,0-0.1,0-0.2
					c0.3,0.2,0.4,0.6,0.4,0.9C81.5,109.8,81.5,110,81.5,110.2z"/>
				<path class="st2" d="M88.3,109c-0.6-0.2-1,0.6-1.1,1.1c-0.1,0.5-0.2,1.2,0.3,1.5c0.3,0.1,0.6-0.1,0.7-0.3
					c0.2-0.2,0.3-0.5,0.4-0.8C88.8,110.1,88.9,109.2,88.3,109z M87.9,111c0,0-0.1,0.1-0.1,0.1c-0.1-0.1-0.1-0.3-0.1-0.4
					c0-0.2,0-0.4,0-0.7c0-0.2,0.1-0.4,0.2-0.6c0,0,0.1-0.1,0.1-0.1c0.2,0.3,0.2,0.7,0.1,1C88.1,110.6,88,110.9,87.9,111z"/>
				<path class="st2" d="M86.6,109.1c0.1-0.2,0.2-0.3,0.3-0.5c0.2-0.4,0.5-0.8,0.4-1.2c0-0.4-0.6-0.4-0.9-0.3
					c-0.4,0.2-0.6,0.6-0.8,1c-0.2,0.5-0.2,1.1-0.3,1.7c0,0,0,0,0,0c-0.2,0.2-0.6,0.7-0.9,0.5c-0.1,0-0.1-0.2-0.2-0.3
					c0.3-0.3,0.5-0.6,0.7-0.9c0.2-0.3,0.3-0.8,0-1c-0.3-0.2-0.7,0-0.9,0.3c-0.2,0.2-0.3,0.6-0.3,0.9c0,0.2,0,0.5,0,0.7
					c-0.2,0.1-0.4,0.2-0.6,0.1c-0.2,0-0.3-0.3-0.4-0.5c-0.1-0.3-0.1-0.6,0-0.9c0-0.1,0-0.2,0.1-0.3c0,0,0,0,0-0.1
					c0.2,0.1,0.2,0.3,0.2,0.4c0.1,0.2,0.6-0.1,0.5-0.3c-0.1-0.2-0.1-0.4-0.4-0.5c-0.2-0.1-0.5,0.1-0.7,0.2c-0.4,0.4-0.4,1-0.4,1.5
					c0,0.3,0.1,0.7,0.4,0.9c0.4,0.2,0.9,0,1.3-0.2c0.1,0.2,0.3,0.4,0.6,0.4c0.4-0.1,0.7-0.3,1-0.5c0,0.3,0.1,0.6,0.3,0.7
					c0.3,0.2,0.7,0,1-0.3c0.3-0.4,0.4-0.9,0.3-1.3C87,109.2,86.8,109.1,86.6,109.1z M84.5,108.9c0-0.1,0.1-0.2,0.1-0.2c0,0,0,0,0,0
					c0.2,0,0.2,0.2,0.2,0.4c0,0.2-0.2,0.5-0.4,0.7c0,0,0-0.1,0-0.1C84.4,109.3,84.4,109.1,84.5,108.9z M86.5,107.7
					c0-0.1,0.1-0.2,0.2-0.2c0,0,0,0,0,0c0.2,0.3,0,0.7-0.1,0.9c-0.1,0.2-0.3,0.5-0.5,0.7c0-0.2,0.1-0.5,0.1-0.7
					C86.3,108.2,86.4,107.9,86.5,107.7z M86.4,110.6c0,0,0,0.1-0.1,0.1c0,0,0,0-0.1,0c-0.2-0.1-0.2-0.4-0.2-0.6c0-0.1,0-0.2,0-0.4
					c0.1-0.1,0.1-0.1,0.2-0.2c0.1-0.1,0.2,0.1,0.3,0.2C86.6,110.1,86.5,110.4,86.4,110.6z"/>
			</g>
		</g>
		<g>
			<path class="st7" d="M51.2,114c0,0.1,0.2,0.1,0.3,0.2c0,0.1-0.1,0-0.2,0c0,0.1,0.1,0.1,0.1,0.1c0,0-0.1,0-0.1,0.1
				c0.1,0.1,0.2,0.3,0.4,0.3c0.3,0.1,0.7,0.2,0.7,0.3c0-0.6-0.2-1.1,0.3-1.6c0-0.1-0.1,0-0.1-0.1c0,0,0,0,0.1,0
				c0-0.1-0.1-0.1-0.1-0.2c0,0,0.1,0,0.1,0c0.1,0-0.1-0.1-0.1-0.1c0-0.1,0.1,0,0.1,0c0-0.1-0.2-0.2-0.2-0.3c0.1,0,0.2,0.1,0.2,0.2
				c0-0.1-0.2-0.2-0.2-0.4c0.1,0,0.2,0.2,0.3,0.2c-0.1-0.2-0.2-0.3-0.2-0.4c0.2,0.1,0.2,0.3,0.4,0.3c-0.1-0.2-0.3-0.5-0.2-0.7
				c0.2,0.2,0.2,0.4,0.3,0.6c0-0.3-0.2-0.6-0.1-0.9c0.1,0.2,0.2,0.6,0.3,0.9c0-0.3-0.2-0.7-0.1-1.1c0.1,0.3,0.1,0.6,0.2,1
				c0-0.3-0.1-0.8,0-1.1c0.1,0.3,0.1,0.7,0.2,1.1c0-0.3-0.1-0.8,0.1-1c0,0.3,0,0.6,0,0.8c0,0.5,0.2,0.9,0.1,1.3
				c-0.2,0.4-0.5,0.8-0.5,1.4c0.7,0.2,0.9,0.2,1.4,0.2c0.2,0,0.4-0.1,0.7-0.1c0.1,0,0.1,0.1,0.2,0.1c0.2,0.1,0.3,0.1,0.5,0.1
				c-0.3,0.1-0.8,0.1-0.8,0.1c-0.1,0-0.5-0.1-0.2-0.1c0.2,0,0.4,0,0.3-0.1c0-0.2-0.3,0-0.5,0c-0.6,0.1-0.9,0.2-1.8,0
				c0.3,0,0.2-0.2,0.2-0.3c0-0.7,0.1-0.9,0.3-1.2c0.4-0.6-0.1-0.6-0.3-0.9c-0.1,0.1,0,0.2,0,0.3c-0.1-0.1-0.1-0.2-0.2-0.3
				c-0.1,0.1,0,0.2,0.1,0.3c-0.1,0-0.1-0.1-0.2-0.2c-0.1,0.1,0.1,0.2,0.1,0.2c-0.1,0-0.1-0.1-0.2-0.1c-0.1,0.1,0,0.1,0,0.2
				c-0.1,0-0.1,0-0.1,0c0,0.1,0,0.1,0.1,0.1c0,0,0,0-0.1,0c-0.1,0,0,0.1,0,0.1c-0.5-0.1-0.1,1.4-0.5,2c0.2,0.2,0.8,0.1,1.2,0.1
				c-0.5,0.3-0.9,0.2-1.3,0.3c-0.1,0-0.1,0-0.2,0.1c-0.3,0.1-0.5,0.2-0.8,0.3c-0.3,0.1-1.2,0.3-1.3,0.3c2.2-0.8,1.9-0.9,2-1
				c-0.4-0.1-0.5-0.5-0.7-0.7c0,0,0,0,0.1-0.1c0,0-0.1,0-0.1,0c0,0,0-0.1,0.1-0.1c0-0.1-0.1,0-0.2-0.1c0-0.1,0.1-0.1,0.1-0.1
				c0-0.1-0.2,0-0.2-0.1c0-0.1,0.1-0.1,0.2-0.1c-0.1-0.1-0.3,0-0.3-0.2c0.1,0,0.2,0,0.3,0c-0.1-0.1-0.4-0.1-0.4-0.3
				c0.2,0,0.3,0.1,0.5,0.1c-0.2-0.1-0.4-0.2-0.5-0.4c0.2,0.1,0.4,0.2,0.6,0.3c-0.1-0.2-0.4-0.3-0.5-0.5c0.2,0,0.4,0.3,0.7,0.3
				c-0.1,0-0.3-0.2-0.5-0.2c0.1,0.2,0.3,0.3,0.5,0.4c-0.1,0.1-0.3-0.1-0.4-0.1c0,0.1,0.2,0.2,0.4,0.3C51.4,114,51.3,114,51.2,114"/>
			<path class="st7" d="M53.2,110c-2.5,0-4.5,2-4.5,4.5c0,2.5,2,4.5,4.5,4.5c2.5,0,4.5-2,4.5-4.5C57.7,112,55.7,110,53.2,110
				 M53.2,110.2c2.4,0,4.3,1.9,4.3,4.3c0,2.4-1.9,4.3-4.3,4.3c-2.4,0-4.3-1.9-4.3-4.3C48.9,112.1,50.8,110.2,53.2,110.2"/>
		</g>
		<g>
			<g>
				<g>
					<path class="st2" d="M62.5,122c0.5,0.9,1.5,0.1,1.6-0.7c0.1-1.2-0.6-2.3-1.2-3.3c-0.1-0.1-0.2,0-0.3,0.1
						c-0.6,0.5-1.2,1.4-0.8,2c0.1,0.2,0.5-0.4,0.4-0.6c-0.2-0.3,0.2-0.8,0.5-1c-0.1,0-0.2,0.1-0.3,0.1c0.2,0.4,0.5,0.8,0.7,1.2
						c0.1,0.2,0.2,0.5,0.3,0.7c0.1,0.2,0.1,0.3,0.2,0.5c-0.2,0.8-0.4,0.9-0.7,0.4C62.8,121.2,62.4,121.8,62.5,122L62.5,122z"/>
					<path class="st2" d="M65.5,120.8c-0.2,0.5-0.5-0.4-0.5-0.5c-0.1-0.2-0.2-0.4-0.3-0.5c-0.3-0.3-0.7-0.1-1,0.1c0.1,0,0.1,0,0.2,0
						c-0.2-0.5-0.5-1.8,0.6-1.3c0.2,0.1,0.6-0.5,0.4-0.6c-0.6-0.3-1-0.1-1.4,0.5c-0.4,0.6-0.2,1.3,0.1,1.9c0,0.1,0.1,0.1,0.2,0
						c0.8-0.7,0.9,0.7,1.4,1.1c0.4,0.3,0.7-0.6,0.8-0.8C66,120.4,65.6,120.5,65.5,120.8L65.5,120.8z"/>
				</g>
				<path class="st2" d="M67.6,120.6c0.2,0.6,0.8,0.4,1.1-0.1c0.2-0.3,0.2-0.6,0.2-1c0-0.5,0-1,0.2-1.5c-0.2,0.1-0.4,0.2-0.6,0.3
					c0.1,0.7,0.2,1.8,0.8,2.4c0.4,0.4,1-0.5,1.1-0.7c0.2-0.4-0.4-0.1-0.5,0.1c-0.2,0.5-0.5-0.2-0.5-0.4c-0.2-0.5-0.3-1.1-0.3-1.7
					c0-0.3-0.5,0.2-0.6,0.3c-0.1,0.3-0.2,0.7-0.2,1c0,0.2,0,0.4,0,0.6c0,0.1,0,0.2,0,0.3c0,0.3-0.2,0.1-0.2,0
					C68.1,119.9,67.6,120.4,67.6,120.6L67.6,120.6z"/>
				<path class="st2" d="M72,117.9c0.1,0.8,0.1,1.6,0.1,2.4c0,0.3,0.5-0.1,0.5-0.3c0.1-0.5,0.2-0.7,0.5-1c0.4-0.4,0.6-0.8,0.7-1.3
					c0.1-0.4-0.5,0-0.6,0.1c-0.3,0.6-0.3,1.3-0.2,2c0,0.2,0,0.4,0.2,0.6c0.2,0.2,0.6-0.1,0.8-0.2c0.3-0.2,0.1-0.5-0.2-0.2
					c-0.2,0.2-0.2-0.8-0.2-0.9c0-0.4,0.1-0.9,0.2-1.3c-0.2,0-0.4,0.1-0.6,0.1c-0.1,0.5-0.3,0.8-0.7,1.2c-0.3,0.4-0.4,0.8-0.5,1.3
					c0.2-0.1,0.3-0.2,0.5-0.3c0.1-0.8,0-1.6,0-2.4C72.6,117.4,72,117.7,72,117.9L72,117.9z"/>
				<g>
					<path class="st2" d="M76,120.3c-0.1,0.6,0.5,0.8,1,0.5c0.5-0.3,0.7-0.8,0.8-1.3c0.1-0.4,0.2-1-0.3-1.3c-0.2-0.1-0.5,0-0.7,0
						c-0.4,0.2-0.6,0.5-0.6,0.9c-0.1,0.3,0.6,0,0.6-0.2c0.1-0.4,0.2-0.4,0.4,0c0.1,0.2,0.1,0.4,0,0.7c0,0.3-0.1,0.5-0.2,0.8
						c0,0.1-0.1,0.2-0.2,0.2c0,0,0-0.1-0.1,0c-0.2-0.1-0.2-0.2-0.2-0.4C76.6,119.8,76,120.1,76,120.3L76,120.3z"/>
					<path class="st2" d="M76.2,117.9c0,1.5-0.3,3-0.7,4.5c-0.1,0.3,0.5,0,0.6-0.2c0.4-1.5,0.8-3,0.8-4.6
						C76.9,117.4,76.2,117.7,76.2,117.9L76.2,117.9z"/>
				</g>
				<g>
					<path class="st2" d="M81.5,119.7c-0.3,0.5-0.6,1.1-0.7,1.6c-0.1,0.2-0.1,0.6,0.1,0.8c0.3,0.3,0.7,0.2,1,0.1
						c0.4-0.2,0-0.4-0.3-0.3c-0.2,0.1-0.2-0.5-0.2-0.5c0-0.3,0.1-0.5,0.2-0.8c0.1-0.3,0.3-0.7,0.5-1
						C82.3,119.5,81.6,119.5,81.5,119.7L81.5,119.7z"/>
					<path class="st2" d="M79.6,121.4c0,0.5,0.5,0.6,0.9,0.5c0.5-0.2,0.9-0.7,1.2-1.1c0.1-0.3-0.5-0.1-0.6,0c-0.1,0.1,0,0,0.1,0
						c0,0-0.1,0-0.1-0.1c-0.1-0.1-0.1-0.2-0.1-0.3c0-0.2,0.1-0.4,0.2-0.6c0.2-0.3,0.3,0.1,0.3,0.3c-0.1,0.3,0.6,0.2,0.7,0
						c0.2-0.4-0.1-0.8-0.6-0.8c-0.6,0-1,0.6-1.1,1c-0.2,0.9,1,1,1.4,0.4c-0.2,0-0.4,0-0.6,0c-0.1,0.2-0.3,0.4-0.4,0.6
						c-0.2,0.2-0.3,0-0.3-0.2C80.3,120.9,79.6,121.1,79.6,121.4L79.6,121.4z"/>
				</g>
				<path class="st2" d="M72,120c-0.3,0.3-0.4-0.8-0.4-0.9c0-0.5,0-0.9,0-1.4c0-0.3-0.6,0.1-0.6,0.3c0,0.4,0,0.8,0,1.2
					c0,0.2,0,0.4,0,0.6c0,0.2,0,0.3-0.2,0.2c-0.5-0.3-0.4-1.6-0.3-2.1c0.1-0.4-0.5,0-0.5,0.2c-0.1,0.5-0.3,2.7,0.7,2.5
					c1.2-0.2,0.9-2.1,0.9-2.9c-0.2,0.1-0.4,0.2-0.6,0.3c0,0.7,0,1.5,0.2,2.1c0.2,0.6,0.7,0.3,1,0C72.5,119.9,72.3,119.7,72,120
					L72,120z"/>
				<path class="st2" d="M79.7,121.1c-0.4,0.2-0.1-0.9-0.1-1c0.1-0.4,0.3-0.9,0.4-1.3c0.1-0.3-0.6-0.1-0.6,0.1
					c-0.1,0.4-0.3,0.7-0.4,1.1c-0.1,0.2-0.2,0.4-0.3,0.6c-0.1,0.2-0.1,0.3-0.3,0.1c-0.4-0.5,0.2-1.6,0.5-2.1c0.2-0.3-0.5-0.2-0.6,0
					c-0.2,0.4-1.1,2.4-0.2,2.6c1.1,0.2,1.5-1.7,1.8-2.4c-0.2,0-0.4,0.1-0.6,0.1c-0.2,0.7-0.5,1.4-0.5,2.1c0,0.6,0.5,0.6,1,0.4
					C80.2,121.2,80,120.9,79.7,121.1L79.7,121.1z"/>
				<path class="st2" d="M75.7,118.3c0.1-0.8-1.1-0.5-1.4-0.1c-0.4,0.5-0.5,1.2-0.5,1.8c0.1,0.6,0.5,0.8,1,0.4
					C75.6,120,75.6,119,75.7,118.3c-0.2,0.1-0.4,0.1-0.6,0.2c-0.1,0.4-0.6,2.7,0.7,2.2c0.3-0.1,0.4-0.5-0.1-0.4
					c-0.1,0-0.1-0.6-0.1-0.7C75.6,119.2,75.7,118.7,75.7,118.3c0.1-0.3-0.6,0-0.6,0.2c-0.1,0.4-0.1,0.8-0.2,1.2
					c0,0.1-0.1,0.4-0.2,0.4c-0.1,0-0.2-0.2-0.2-0.2c-0.1-0.3-0.1-0.6,0-0.9c0-0.2,0.1-0.3,0.2-0.5c0-0.1,0.1-0.2,0.1-0.2
					c0.1-0.1,0.3,0.2,0.3,0.2C75.1,118.8,75.7,118.5,75.7,118.3L75.7,118.3z"/>
				<g>
					<path class="st2" d="M65.3,118.9c0.2,0.5,0.3,2.6,1.2,2.3c1-0.4,0.6-2.3,0.5-3c0-0.3-0.5,0.2-0.5,0.4c0.1,0.5,0.1,1,0.2,1.6
						c0,0.2,0.1,0.6-0.2,0.5c-0.3-0.1-0.4-0.8-0.4-1c-0.1-0.4-0.1-0.8-0.3-1.2C65.7,118.2,65.3,118.7,65.3,118.9L65.3,118.9z"/>
					<path class="st2" d="M66.5,118.6c0.2,1,0.5,2,0.8,3c0.1,0.2,0.3,1.2,0,1.2c-0.6,0,0.1-1.8,0.2-2c0.2-0.4-0.2-0.3-0.4,0
						c-0.4,0.7-0.7,1.6-0.3,2.3c0.1,0.3,0.5,0.3,0.7,0.1c0.4-0.5,0.4-1,0.3-1.6c-0.1-1.1-0.5-2.2-0.8-3.3
						C66.9,117.9,66.5,118.4,66.5,118.6L66.5,118.6z"/>
				</g>
				<path class="st2" d="M77,118.5c0.5,0.5,1.1,0.6,1.7,0.3c0.1,0,0.2-0.1,0.2-0.2c-0.1-0.1-0.2,0-0.3,0c-0.3,0.2-0.8-0.1-1-0.4
					C77.4,118.1,76.9,118.4,77,118.5L77,118.5z"/>
			</g>
		</g>
		<g>
			<path class="st6" d="M80.4,130.8v-5c-7.8-2.2-14.4-0.6-16.6,0v5.1C66,130.3,72.6,128.7,80.4,130.8z"/>
			<path class="st6" d="M64.6,131.2c1.2,0.4,3.9,1,7.4,1c3.5,0,6.3-0.7,7.6-1.1C72.9,129.5,67.1,130.5,64.6,131.2z"/>
		</g>
	</g>
	<path class="st2" d="M39.3,68.2L39.3,68.2c-1.5,0-2.6-1.2-2.6-2.6V50.8c0-1.5,1.2-2.6,2.6-2.6h0c1.5,0,2.6,1.2,2.6,2.6v14.8
		C42,67,40.8,68.2,39.3,68.2z"/>
	<circle class="st2" cx="39.3" cy="42.3" r="2.8"/>
	<path class="st5" d="M234.1,97.2v32.9c0,5.9,4.8,10.8,10.8,10.8h68.9c5.9,0,10.8-4.8,10.8-10.8V97.2H234.1z"/>
	<g>
		<path class="st6" d="M286.6,112.1c-0.1,0-0.2,0-0.4,0c-1-2.3-3.3-3.9-6-3.9c-2.7,0-5,1.6-6,3.9c-0.1,0-0.1,0-0.2,0
			c-3.2,0-6.3,3.2-6.3,6.4c0,2.5,2.1,6,4.4,6.8c0.7-0.2,1.8-0.5,3.2-0.7c-1.6-0.5-1.7-1.6-1.7-1.6c0-0.1,0.1-0.2,0.2-0.3
			c0.1,0,0.2,0.1,0.3,0.2c0,0.1,0.2,1.2,2.4,1.5c0,0,0,0,0.1,0c0.5-0.1,1.1-0.1,1.7-0.2c-0.5-0.7-0.8-1.8-0.8-2
			c0-0.1,0.1-0.3,0.2-0.3c0.1,0,0.3,0.1,0.3,0.2c0.1,0.4,0.4,1.6,0.9,2c0,0,0,0,0,0c1.7-0.1,3.6-0.1,5.7,0.2c0.1,0,0.2,0,0.2-0.1
			c2-0.4,2.1-1.4,2.1-1.5c0-0.1,0.1-0.2,0.3-0.2c0.1,0,0.2,0.1,0.2,0.2c0,0-0.1,1.1-1.7,1.7c1,0.2,2,0.4,3,0.7
			c2.2-0.8,4.2-4.2,4.2-6.6C292.9,115.5,289.8,112.1,286.6,112.1z"/>
		<g>
			<circle class="st7" cx="291.3" cy="109.2" r="7.1"/>
			<g>
				<path class="st2" d="M289.5,108.2c-0.6,0.1-0.7,0.8-0.8,1.2l0,0v0c0,0.1,0,0.1,0,0.2c0,0.2,0,0.4,0,0.6c0,0.1,0,0.3-0.1,0.3
					c-0.2,0-0.4-0.3-0.4-0.4c-0.1-0.4-0.2-0.7-0.3-1.1c-0.1-0.4-0.1-0.8-0.1-1.3c0-0.2,0-0.3,0-0.5c0-0.1,0-0.1,0-0.2
					c0,0,0-0.1,0-0.1c0.1-0.3-0.4,0-0.5,0.1c-0.5,0.8-0.3,1.8-0.3,2.7c0,0.2,0,0.5,0,0.7c0,0.2-0.1,0.5-0.2,0.6
					c-0.1,0.1-0.2,0-0.3,0c-0.1-0.1-0.2-0.2-0.2-0.3c0-0.1-0.2-0.1-0.2,0c-0.1,0.1-0.2,0.3-0.2,0.4c0.1,0.3,0.3,0.6,0.7,0.5
					c0.5-0.2,0.8-0.8,0.9-1.3c0.1-0.2,0.1-0.5,0.1-0.7c0.1,0.4,0.2,0.7,0.3,1c0.1,0.2,0.3,0.5,0.6,0.4c0.2,0,0.4-0.3,0.5-0.5
					c0.1,0.2,0.3,0.4,0.5,0.4c0.3,0,0.5-0.3,0.6-0.6c0.1-0.3,0.2-0.6,0.2-0.9C290.3,109,290.1,108.1,289.5,108.2z M289.7,110.2
					c0,0.1,0,0.1,0,0.2c-0.1,0-0.2-0.2-0.2-0.3c-0.1-0.2-0.1-0.4-0.2-0.6c0-0.2,0-0.4,0-0.7c0-0.1,0-0.1,0-0.2
					c0.3,0.2,0.4,0.6,0.4,0.9C289.7,109.8,289.8,110,289.7,110.2z"/>
				<path class="st2" d="M296.6,109c-0.6-0.2-1,0.6-1.1,1.1c-0.1,0.5-0.2,1.2,0.3,1.5c0.3,0.1,0.6-0.1,0.7-0.3
					c0.2-0.2,0.3-0.5,0.4-0.8C297,110.1,297.2,109.2,296.6,109z M296.2,111c0,0-0.1,0.1-0.1,0.1c-0.1-0.1-0.1-0.3-0.1-0.4
					c0-0.2,0-0.4,0-0.7c0-0.2,0.1-0.4,0.2-0.6c0,0,0.1-0.1,0.1-0.1c0.2,0.3,0.2,0.7,0.1,1C296.4,110.6,296.3,110.9,296.2,111z"/>
				<path class="st2" d="M294.9,109.1c0.1-0.2,0.2-0.3,0.3-0.5c0.2-0.4,0.5-0.8,0.4-1.2c0-0.4-0.6-0.4-0.9-0.3
					c-0.4,0.2-0.6,0.6-0.8,1c-0.2,0.5-0.2,1.1-0.3,1.7c0,0,0,0,0,0c-0.2,0.2-0.6,0.7-0.9,0.5c-0.1,0-0.1-0.2-0.2-0.3
					c0.3-0.3,0.5-0.6,0.7-0.9c0.2-0.3,0.3-0.8,0-1c-0.3-0.2-0.7,0-0.9,0.3c-0.2,0.2-0.3,0.6-0.3,0.9c0,0.2,0,0.5,0,0.7
					c-0.2,0.1-0.4,0.2-0.6,0.1c-0.2,0-0.3-0.3-0.4-0.5c-0.1-0.3-0.1-0.6,0-0.9c0-0.1,0-0.2,0.1-0.3c0,0,0,0,0-0.1
					c0.2,0.1,0.2,0.3,0.2,0.4c0.1,0.2,0.6-0.1,0.5-0.3c-0.1-0.2-0.1-0.4-0.4-0.5c-0.2-0.1-0.5,0.1-0.7,0.2c-0.4,0.4-0.4,1-0.4,1.5
					c0,0.3,0.1,0.7,0.4,0.9c0.4,0.2,0.9,0,1.3-0.2c0.1,0.2,0.3,0.4,0.6,0.4c0.4-0.1,0.7-0.3,1-0.5c0,0.3,0.1,0.6,0.3,0.7
					c0.3,0.2,0.7,0,1-0.3c0.3-0.4,0.4-0.9,0.3-1.3C295.2,109.2,295,109.1,294.9,109.1z M292.7,108.9c0-0.1,0.1-0.2,0.1-0.2
					c0,0,0,0,0,0c0.2,0,0.2,0.2,0.2,0.4c0,0.2-0.2,0.5-0.4,0.7c0,0,0-0.1,0-0.1C292.6,109.3,292.6,109.1,292.7,108.9z M294.8,107.7
					c0-0.1,0.1-0.2,0.2-0.2c0,0,0,0,0,0c0.2,0.3,0,0.7-0.1,0.9c-0.1,0.2-0.3,0.5-0.5,0.7c0-0.2,0.1-0.5,0.1-0.7
					C294.6,108.2,294.6,107.9,294.8,107.7z M294.6,110.6c0,0,0,0.1-0.1,0.1c0,0,0,0-0.1,0c-0.2-0.1-0.2-0.4-0.2-0.6
					c0-0.1,0-0.2,0-0.4c0.1-0.1,0.1-0.1,0.2-0.2c0.1-0.1,0.2,0.1,0.3,0.2C294.8,110.1,294.7,110.4,294.6,110.6z"/>
			</g>
		</g>
		<g>
			<path class="st7" d="M259.5,114c0,0.1,0.2,0.1,0.3,0.2c0,0.1-0.1,0-0.2,0c0,0.1,0.1,0.1,0.1,0.1c0,0-0.1,0-0.1,0.1
				c0.1,0.1,0.2,0.3,0.4,0.3c0.3,0.1,0.7,0.2,0.7,0.3c0-0.6-0.2-1.1,0.3-1.6c0-0.1-0.1,0-0.1-0.1c0,0,0,0,0.1,0
				c0-0.1-0.1-0.1-0.1-0.2c0,0,0.1,0,0.1,0c0.1,0-0.1-0.1-0.1-0.1c0-0.1,0.1,0,0.1,0c0-0.1-0.2-0.2-0.2-0.3c0.1,0,0.2,0.1,0.2,0.2
				c0-0.1-0.2-0.2-0.2-0.4c0.1,0,0.2,0.2,0.3,0.2c-0.1-0.2-0.2-0.3-0.2-0.4c0.2,0.1,0.2,0.3,0.4,0.3c-0.1-0.2-0.3-0.5-0.2-0.7
				c0.2,0.2,0.2,0.4,0.3,0.6c0-0.3-0.2-0.6-0.1-0.9c0.1,0.2,0.2,0.6,0.3,0.9c0-0.3-0.2-0.7-0.1-1.1c0.1,0.3,0.1,0.6,0.2,1
				c0-0.3-0.1-0.8,0-1.1c0.1,0.3,0.1,0.7,0.2,1.1c0-0.3-0.1-0.8,0.1-1c0,0.3,0,0.6,0,0.8c0,0.5,0.2,0.9,0.1,1.3
				c-0.2,0.4-0.5,0.8-0.5,1.4c0.7,0.2,0.9,0.2,1.4,0.2c0.2,0,0.4-0.1,0.7-0.1c0.1,0,0.1,0.1,0.2,0.1c0.2,0.1,0.3,0.1,0.5,0.1
				c-0.3,0.1-0.8,0.1-0.8,0.1c-0.1,0-0.5-0.1-0.2-0.1c0.2,0,0.4,0,0.3-0.1c0-0.2-0.3,0-0.5,0c-0.6,0.1-0.9,0.2-1.8,0
				c0.3,0,0.2-0.2,0.2-0.3c0-0.7,0.1-0.9,0.3-1.2c0.4-0.6-0.1-0.6-0.3-0.9c-0.1,0.1,0,0.2,0,0.3c-0.1-0.1-0.1-0.2-0.2-0.3
				c-0.1,0.1,0,0.2,0.1,0.3c-0.1,0-0.1-0.1-0.2-0.2c-0.1,0.1,0.1,0.2,0.1,0.2c-0.1,0-0.1-0.1-0.2-0.1c-0.1,0.1,0,0.1,0,0.2
				c-0.1,0-0.1,0-0.1,0c0,0.1,0,0.1,0.1,0.1c0,0,0,0-0.1,0c-0.1,0,0,0.1,0,0.1c-0.5-0.1-0.1,1.4-0.5,2c0.2,0.2,0.8,0.1,1.2,0.1
				c-0.5,0.3-0.9,0.2-1.3,0.3c-0.1,0-0.1,0-0.2,0.1c-0.3,0.1-0.5,0.2-0.8,0.3c-0.3,0.1-1.2,0.3-1.3,0.3c2.2-0.8,1.9-0.9,2-1
				c-0.4-0.1-0.5-0.5-0.7-0.7c0,0,0,0,0.1-0.1c0,0-0.1,0-0.1,0c0,0,0-0.1,0.1-0.1c0-0.1-0.1,0-0.2-0.1c0-0.1,0.1-0.1,0.1-0.1
				c0-0.1-0.2,0-0.2-0.1c0-0.1,0.1-0.1,0.2-0.1c-0.1-0.1-0.3,0-0.3-0.2c0.1,0,0.2,0,0.3,0c-0.1-0.1-0.4-0.1-0.4-0.3
				c0.2,0,0.3,0.1,0.5,0.1c-0.2-0.1-0.4-0.2-0.5-0.4c0.2,0.1,0.4,0.2,0.6,0.3c-0.1-0.2-0.4-0.3-0.5-0.5c0.2,0,0.4,0.3,0.7,0.3
				c-0.1,0-0.3-0.2-0.5-0.2c0.1,0.2,0.3,0.3,0.5,0.4c-0.1,0.1-0.3-0.1-0.4-0.1c0,0.1,0.2,0.2,0.4,0.3C259.7,114,259.6,114,259.5,114
				"/>
			<path class="st7" d="M261.4,110c-2.5,0-4.5,2-4.5,4.5c0,2.5,2,4.5,4.5,4.5c2.5,0,4.5-2,4.5-4.5C265.9,112,263.9,110,261.4,110
				 M261.4,110.2c2.4,0,4.3,1.9,4.3,4.3c0,2.4-1.9,4.3-4.3,4.3c-2.4,0-4.3-1.9-4.3-4.3C257.1,112.1,259.1,110.2,261.4,110.2"/>
		</g>
		<g>
			<g>
				<g>
					<path class="st2" d="M270.8,122c0.5,0.9,1.5,0.1,1.6-0.7c0.1-1.2-0.6-2.3-1.2-3.3c-0.1-0.1-0.2,0-0.3,0.1
						c-0.6,0.5-1.2,1.4-0.8,2c0.1,0.2,0.5-0.4,0.4-0.6c-0.2-0.3,0.2-0.8,0.5-1c-0.1,0-0.2,0.1-0.3,0.1c0.2,0.4,0.5,0.8,0.7,1.2
						c0.1,0.2,0.2,0.5,0.3,0.7c0.1,0.2,0.1,0.3,0.2,0.5c-0.2,0.8-0.4,0.9-0.7,0.4C271,121.2,270.7,121.8,270.8,122L270.8,122z"/>
					<path class="st2" d="M273.8,120.8c-0.2,0.5-0.5-0.4-0.5-0.5c-0.1-0.2-0.2-0.4-0.3-0.5c-0.3-0.3-0.7-0.1-1,0.1
						c0.1,0,0.1,0,0.2,0c-0.2-0.5-0.5-1.8,0.6-1.3c0.2,0.1,0.6-0.5,0.4-0.6c-0.6-0.3-1-0.1-1.4,0.5c-0.4,0.6-0.2,1.3,0.1,1.9
						c0,0.1,0.1,0.1,0.2,0c0.8-0.7,0.9,0.7,1.4,1.1c0.4,0.3,0.7-0.6,0.8-0.8C274.3,120.4,273.9,120.5,273.8,120.8L273.8,120.8z"/>
				</g>
				<path class="st2" d="M275.9,120.6c0.2,0.6,0.8,0.4,1.1-0.1c0.2-0.3,0.2-0.6,0.2-1c0-0.5,0-1,0.2-1.5c-0.2,0.1-0.4,0.2-0.6,0.3
					c0.1,0.7,0.2,1.8,0.8,2.4c0.4,0.4,1-0.5,1.1-0.7c0.2-0.4-0.4-0.1-0.5,0.1c-0.2,0.5-0.5-0.2-0.5-0.4c-0.2-0.5-0.3-1.1-0.3-1.7
					c0-0.3-0.5,0.2-0.6,0.3c-0.1,0.3-0.2,0.7-0.2,1c0,0.2,0,0.4,0,0.6c0,0.1,0,0.2,0,0.3c0,0.3-0.2,0.1-0.2,0
					C276.3,119.9,275.8,120.4,275.9,120.6L275.9,120.6z"/>
				<path class="st2" d="M280.3,117.9c0.1,0.8,0.1,1.6,0.1,2.4c0,0.3,0.5-0.1,0.5-0.3c0.1-0.5,0.2-0.7,0.5-1
					c0.4-0.4,0.6-0.8,0.7-1.3c0.1-0.4-0.5,0-0.6,0.1c-0.3,0.6-0.3,1.3-0.2,2c0,0.2,0,0.4,0.2,0.6c0.2,0.2,0.6-0.1,0.8-0.2
					c0.3-0.2,0.1-0.5-0.2-0.2c-0.2,0.2-0.2-0.8-0.2-0.9c0-0.4,0.1-0.9,0.2-1.3c-0.2,0-0.4,0.1-0.6,0.1c-0.1,0.5-0.3,0.8-0.7,1.2
					c-0.3,0.4-0.4,0.8-0.5,1.3c0.2-0.1,0.3-0.2,0.5-0.3c0.1-0.8,0-1.6,0-2.4C280.8,117.4,280.3,117.7,280.3,117.9L280.3,117.9z"/>
				<g>
					<path class="st2" d="M284.2,120.3c-0.1,0.6,0.5,0.8,1,0.5c0.5-0.3,0.7-0.8,0.8-1.3c0.1-0.4,0.2-1-0.3-1.3c-0.2-0.1-0.5,0-0.7,0
						c-0.4,0.2-0.6,0.5-0.6,0.9c-0.1,0.3,0.6,0,0.6-0.2c0.1-0.4,0.2-0.4,0.4,0c0.1,0.2,0.1,0.4,0,0.7c0,0.3-0.1,0.5-0.2,0.8
						c0,0.1-0.1,0.2-0.2,0.2c0,0,0-0.1-0.1,0c-0.2-0.1-0.2-0.2-0.2-0.4C284.9,119.8,284.2,120.1,284.2,120.3L284.2,120.3z"/>
					<path class="st2" d="M284.4,117.9c0,1.5-0.3,3-0.7,4.5c-0.1,0.3,0.5,0,0.6-0.2c0.4-1.5,0.8-3,0.8-4.6
						C285.1,117.4,284.4,117.7,284.4,117.9L284.4,117.9z"/>
				</g>
				<g>
					<path class="st2" d="M289.8,119.7c-0.3,0.5-0.6,1.1-0.7,1.6c-0.1,0.2-0.1,0.6,0.1,0.8c0.3,0.3,0.7,0.2,1,0.1
						c0.4-0.2,0-0.4-0.3-0.3c-0.2,0.1-0.2-0.5-0.2-0.5c0-0.3,0.1-0.5,0.2-0.8c0.1-0.3,0.3-0.7,0.5-1
						C290.6,119.5,289.9,119.5,289.8,119.7L289.8,119.7z"/>
					<path class="st2" d="M287.9,121.4c0,0.5,0.5,0.6,0.9,0.5c0.5-0.2,0.9-0.7,1.2-1.1c0.1-0.3-0.5-0.1-0.6,0c-0.1,0.1,0,0,0.1,0
						c0,0-0.1,0-0.1-0.1c-0.1-0.1-0.1-0.2-0.1-0.3c0-0.2,0.1-0.4,0.2-0.6c0.2-0.3,0.3,0.1,0.3,0.3c-0.1,0.3,0.6,0.2,0.7,0
						c0.2-0.4-0.1-0.8-0.6-0.8c-0.6,0-1,0.6-1.1,1c-0.2,0.9,1,1,1.4,0.4c-0.2,0-0.4,0-0.6,0c-0.1,0.2-0.3,0.4-0.4,0.6
						c-0.2,0.2-0.3,0-0.3-0.2C288.5,120.9,287.9,121.1,287.9,121.4L287.9,121.4z"/>
				</g>
				<path class="st2" d="M280.2,120c-0.3,0.3-0.4-0.8-0.4-0.9c0-0.5,0-0.9,0-1.4c0-0.3-0.6,0.1-0.6,0.3c0,0.4,0,0.8,0,1.2
					c0,0.2,0,0.4,0,0.6c0,0.2,0,0.3-0.2,0.2c-0.5-0.3-0.4-1.6-0.3-2.1c0.1-0.4-0.5,0-0.5,0.2c-0.1,0.5-0.3,2.7,0.7,2.5
					c1.2-0.2,0.9-2.1,0.9-2.9c-0.2,0.1-0.4,0.2-0.6,0.3c0,0.7,0,1.5,0.2,2.1c0.2,0.6,0.7,0.3,1,0C280.7,119.9,280.5,119.7,280.2,120
					L280.2,120z"/>
				<path class="st2" d="M287.9,121.1c-0.4,0.2-0.1-0.9-0.1-1c0.1-0.4,0.3-0.9,0.4-1.3c0.1-0.3-0.6-0.1-0.6,0.1
					c-0.1,0.4-0.3,0.7-0.4,1.1c-0.1,0.2-0.2,0.4-0.3,0.6c-0.1,0.2-0.1,0.3-0.3,0.1c-0.4-0.5,0.2-1.6,0.5-2.1c0.2-0.3-0.5-0.2-0.6,0
					c-0.2,0.4-1.1,2.4-0.2,2.6c1.1,0.2,1.5-1.7,1.8-2.4c-0.2,0-0.4,0.1-0.6,0.1c-0.2,0.7-0.5,1.4-0.5,2.1c0,0.6,0.5,0.6,1,0.4
					C288.4,121.2,288.3,120.9,287.9,121.1L287.9,121.1z"/>
				<path class="st2" d="M284,118.3c0.1-0.8-1.1-0.5-1.4-0.1c-0.4,0.5-0.5,1.2-0.5,1.8c0.1,0.6,0.5,0.8,1,0.4
					C283.8,120,283.8,119,284,118.3c-0.2,0.1-0.4,0.1-0.6,0.2c-0.1,0.4-0.6,2.7,0.7,2.2c0.3-0.1,0.4-0.5-0.1-0.4
					c-0.1,0-0.1-0.6-0.1-0.7C283.8,119.2,283.9,118.7,284,118.3c0.1-0.3-0.6,0-0.6,0.2c-0.1,0.4-0.1,0.8-0.2,1.2
					c0,0.1-0.1,0.4-0.2,0.4c-0.1,0-0.2-0.2-0.2-0.2c-0.1-0.3-0.1-0.6,0-0.9c0-0.2,0.1-0.3,0.2-0.5c0-0.1,0.1-0.2,0.1-0.2
					c0.1-0.1,0.3,0.2,0.3,0.2C283.3,118.8,284,118.5,284,118.3L284,118.3z"/>
				<g>
					<path class="st2" d="M273.6,118.9c0.2,0.5,0.3,2.6,1.2,2.3c1-0.4,0.6-2.3,0.5-3c0-0.3-0.5,0.2-0.5,0.4c0.1,0.5,0.1,1,0.2,1.6
						c0,0.2,0.1,0.6-0.2,0.5c-0.3-0.1-0.4-0.8-0.4-1c-0.1-0.4-0.1-0.8-0.3-1.2C274,118.2,273.5,118.7,273.6,118.9L273.6,118.9z"/>
					<path class="st2" d="M274.7,118.6c0.2,1,0.5,2,0.8,3c0.1,0.2,0.3,1.2,0,1.2c-0.6,0,0.1-1.8,0.2-2c0.2-0.4-0.2-0.3-0.4,0
						c-0.4,0.7-0.7,1.6-0.3,2.3c0.1,0.3,0.5,0.3,0.7,0.1c0.4-0.5,0.4-1,0.3-1.6c-0.1-1.1-0.5-2.2-0.8-3.3
						C275.2,117.9,274.7,118.4,274.7,118.6L274.7,118.6z"/>
				</g>
				<path class="st2" d="M285.3,118.5c0.5,0.5,1.1,0.6,1.7,0.3c0.1,0,0.2-0.1,0.2-0.2c-0.1-0.1-0.2,0-0.3,0c-0.3,0.2-0.8-0.1-1-0.4
					C285.6,118.1,285.1,118.4,285.3,118.5L285.3,118.5z"/>
			</g>
		</g>
		<g>
			<path class="st6" d="M288.7,130.8v-5c-7.8-2.2-14.4-0.6-16.6,0v5.1C274.2,130.3,280.9,128.7,288.7,130.8z"/>
			<path class="st6" d="M272.9,131.2c1.2,0.4,3.9,1,7.4,1c3.5,0,6.3-0.7,7.6-1.1C281.1,129.5,275.4,130.5,272.9,131.2z"/>
		</g>
	</g>
</g>
</svg>
