<?xml version="1.0" encoding="utf-8"?>
<!-- Generator: Adobe Illustrator 19.0.0, SVG Export Plug-In . SVG Version: 6.00 Build 0)  -->
<svg version="1.1" xmlns="http://www.w3.org/2000/svg" xmlns:xlink="http://www.w3.org/1999/xlink" x="0px" y="0px"
	 viewBox="0 0 316 336.1" style="enable-background:new 0 0 316 336.1;" xml:space="preserve">
<style type="text/css">
	.st0{fill:#519E38;}
	.st1{fill:#F9B23E;}
	.st2{fill:#E5B283;}
	.st3{fill:#F9C88F;}
	.st4{fill:#F9BD6E;}
	.st5{fill:#FFDEB6;}
	.st6{fill:#FCCC8B;}
	.st7{fill:#FAE6C0;}
	.st8{fill-rule:evenodd;clip-rule:evenodd;fill:#A16125;}
	.st9{fill:#A16125;}
	.st10{fill:#F9D4AF;}
	.st11{fill:#DA811F;}
	.st12{fill:#FFCA58;}
	.st13{fill:#FFFFFF;}
	.st14{fill:#B2603D;}
	.st15{fill:#2E723D;}
	.st16{fill:#F9A25A;}
	.st17{fill:#DB8B4F;}
	.st18{fill:#F9B17A;}
	.st19{fill:#BA703E;}
	.st20{fill:#E8904D;}
	.st21{fill:#4C2D15;}
	.st22{fill-rule:evenodd;clip-rule:evenodd;fill:#351000;}
	.st23{fill-rule:evenodd;clip-rule:evenodd;fill:#2C6D0F;}
	.st24{fill:#552D84;}
	.st25{fill:#72569B;}
</style>
<g id="Layer_2">
</g>
<g id="kolba_4">
</g>
<g id="kolba_3">
</g>
<g id="kolby">
	<g>
		<path class="st0" d="M150.6,224.8l-13.7-16.2c1-0.9,1.7-1.7,1.9-2.4c0.3-1.6-0.5-2.4-1.6-2.6c-1.1-0.2,0.4-1.9,0.2-3
			c-0.2-1.1-2.1-1.2-2-2c0.1-0.8,0.4-1.1-0.1-2.2s-1.8-1.8-2.6-1.8c-0.8,0-0.9-1.1-2.1-2.2s-2.8,0.1-3-0.2c-0.3-0.3-1.2-3.9-6.4,1
			c0,0-2.8,2-2.5,3.9c0.3,1.9,1.4,1.7,0.8,3.4c-0.5,1.7,1.1,2.7,1.7,3.2c0.6,0.4,0.2,1.2,0.2,1.2s-0.6,1.5,1.9,2.2
			c2.5,0.7,1.9,0.7,2,1.5c0.1,0.9,1.5,2.2,3.2,1.3c1.1-0.1,0.6,0.6,0.7,1.4c0.1,0.8,1.5,1.8,3.7,0.3c0.5-0.3,1-0.7,1.6-1.1
			l13.8,16.3c0.6,0.7,1.6,0.7,2.2,0.2C151.1,226.4,151.2,225.4,150.6,224.8z"/>
		<path class="st1" d="M124.7,212.8L124.7,212.8L124.7,212.8c0-0.1-0.1-0.2-0.2-0.3l-2.8-5.5l-2.7,5.6c-0.1,0.1-0.1,0.2-0.1,0.3l0,0
			l0,0c-0.2,0.4-0.2,0.8-0.2,1.2c0,1.7,1.4,3.1,3.2,3.1c1.7,0,3.1-1.4,3.1-3.2C124.9,213.6,124.8,213.2,124.7,212.8z"/>
		<path class="st2" d="M149.2,224.9l-14.6-17.1c-0.6-0.7-0.5-1.7,0.2-2.2l0,0c0.7-0.6,1.7-0.5,2.2,0.2l14.6,17.1
			c0.6,0.7,0.5,1.7-0.2,2.2l0,0C150.8,225.7,149.8,225.6,149.2,224.9z"/>
		<path class="st1" d="M122.2,191.3c0,0-2.8,2-2.5,3.9s1.4,1.7,0.8,3.4c-0.5,1.7,1.1,2.7,1.7,3.2c0.6,0.4,0.2,1.2,0.2,1.2
			s-0.6,1.5,1.9,2.2c2.5,0.7,1.9,0.7,2,1.5c0.1,0.9,1.5,2.2,3.2,1.3c1.1-0.1,0.6,0.6,0.7,1.4s1.5,1.8,3.7,0.3
			c2.1-1.5,5.6-3.9,5.9-5.5c0.3-1.6-0.5-2.4-1.6-2.6c-1.1-0.2,0.4-1.9,0.2-3s-2.1-1.2-2-2c0.1-0.8,0.4-1.1-0.1-2.2
			c-0.5-1-1.8-1.8-2.6-1.8c-0.8,0-0.9-1.1-2.1-2.2s-2.8,0.1-3-0.2S127.3,186.4,122.2,191.3z"/>
		
			<ellipse transform="matrix(0.7621 -0.6475 0.6475 0.7621 -98.1422 131.1057)" class="st3" cx="129.3" cy="199.1" rx="6.4" ry="9.2"/>
		<path class="st4" d="M127.2,192l-4.5,3.8c-0.7,0.6-1.7,0.5-2.2-0.2l0,0c-0.6-0.7-0.5-1.7,0.2-2.2l4.5-3.8c0.7-0.6,1.7-0.5,2.2,0.2
			l0,0C127.9,190.4,127.9,191.4,127.2,192z"/>
		<path class="st4" d="M138.2,205l-4.5,3.8c-0.7,0.6-1.7,0.5-2.2-0.2l0,0c-0.6-0.7-0.5-1.7,0.2-2.2l4.5-3.8c0.7-0.6,1.7-0.5,2.2,0.2
			l0,0C138.9,203.4,138.9,204.4,138.2,205z"/>
		<path class="st4" d="M131.5,193.8l-7.7,6.6c-0.7,0.6-1.7,0.5-2.2-0.2l0,0c-0.6-0.7-0.5-1.7,0.2-2.2l7.7-6.6
			c0.7-0.6,1.7-0.5,2.2,0.2l0,0C132.2,192.3,132.2,193.3,131.5,193.8z"/>
		<path class="st4" d="M137,200.3l-7.7,6.6c-0.7,0.6-1.7,0.5-2.2-0.2l0,0c-0.6-0.7-0.5-1.7,0.2-2.2l7.7-6.6c0.7-0.6,1.7-0.5,2.2,0.2
			l0,0C137.7,198.7,137.6,199.7,137,200.3z"/>
		<path class="st4" d="M135.1,196.3l-9.5,8.1c-0.7,0.6-1.7,0.5-2.2-0.2l0,0c-0.6-0.7-0.5-1.7,0.2-2.2l9.5-8.1
			c0.7-0.6,1.7-0.5,2.2,0.2l0,0C135.9,194.7,135.8,195.7,135.1,196.3z"/>
		<path class="st5" d="M123.4,199.9c-0.1-0.1-0.2-0.1-0.3-0.2c-2-2.7-0.9-5.5-0.8-5.6c0.2-0.4,0.7-0.6,1.1-0.5
			c0.4,0.2,0.6,0.7,0.5,1.1c0,0.1-0.8,2,0.6,4c0.3,0.4,0.2,0.9-0.2,1.2C124,200.1,123.6,200.1,123.4,199.9z"/>
		<circle class="st5" cx="125.7" cy="202" r="1"/>
		<circle class="st6" cx="120.4" cy="214.3" r="1"/>
	</g>
</g>
<g id="nut_2">
	<path class="st7" d="M179.5,202c0.3-0.7,0.7-1.5,1.3-2.1c0.3-0.3,0.7-0.5,1-0.8c0.3-0.3,0.5-0.6,0.8-0.9c0.8-0.7,1.9-1.1,2.8-1.7
		c0.9-0.6,1.7-1.3,2.6-1.3c1,0,2-0.1,2.9,0.4c0.9,0.4,1.1,0.8,1.7,1.4c0.4,0.4,0.8,0.6,0.9,1.2c0.2,0.6,0.2,1.1,0.1,1.7
		c0,0.4-0.1,1-0.1,1.4c0,0.3,0.3,0.5,0.3,0.7c0,0.2-0.2,0.6-0.2,0.8c-0.1,0.6-1.9,8.1-2.3,8.7c-0.8,1.1-1.9,3.8-3.1,4.1
		c-1.2,0.3-3,0.4-4.3,0.4c-1.4-0.1-2.3-0.6-3.4-1.4c-0.2-0.1-2.3-1.5-2.6-2.5c-0.2-0.8-0.4-2.5-0.6-3.4c-0.3-1.2,1-3,0.9-3.3
		C177.9,204.9,179.6,202.7,179.5,202"/>
	<path class="st8" d="M176.8,207.1c0.1-0.2,0.1-0.3,0.3-0.2c0.1,0,0.1,0,0.2,0.1c0,0,0,0,0,0c0.5,0.5,0.8,1,1,1.6
		c0.1,0.3,0.2,0.7,0.3,1c-0.3,0-0.4,0-0.6,0c-0.2,0-0.4,0-0.6,0c0,0.1,0,0.2,0,0.3c0.1,0,0.1-0.1,0.2-0.1c0.7-0.2,1.2,0,1.5,0.6
		c0.8,1.3,1.6,2.6,2.8,3.6c0,0,0,0.1,0,0.1c-1.3-0.1-3.3-1.2-4.4-2.4c0,0,0,0,0,0c-0.2-0.2-0.3-0.5-0.4-0.7
		c-0.1-1.2-0.2-2.4-0.4-3.7C176.7,207.3,176.7,207.2,176.8,207.1z"/>
	<path class="st8" d="M190.9,204.3c-0.4-0.5-0.8-1-1.2-1.5c-0.4-0.6-0.9-1-1.6-1.2c-0.6-0.2-1.2-0.4-1.8-0.5
		c-0.6-0.2-1.1,0.1-1.6,0.3c0.3,0.6,0.7,1.1,1,1.6c0.2,0.4,0.4,0.7,0.7,1.1c0.1,0.1,0.2,0.2,0.2,0.2
		C188,204.3,189.4,204.3,190.9,204.3C190.8,204.3,190.9,204.3,190.9,204.3z"/>
	<path class="st8" d="M189.1,212.2c-0.2-0.2-0.3-0.3-0.4-0.5c-0.2-0.2-0.4-0.4-0.6-0.6c-0.5-0.8-1.2-1.1-2.2-1
		c-0.8,0.1-1.6,0-2.5,0.1c-0.2,0-0.4,0-0.6,0.1c0,0.1,0.1,0.1,0.1,0.2c0.8,0.8,1.5,1.6,2.3,2.5c0.1,0.1,0.2,0.2,0.3,0.1
		c1-0.2,2.1-0.4,3.1-0.7C188.8,212.3,188.9,212.2,189.1,212.2z"/>
	<path class="st8" d="M187.7,198.7c0.7,1,1.5,1.8,1.7,2.9c1.2-0.3,2.4-0.6,3.6-0.9c-0.3-0.9-0.6-1.8-1.5-2.3
		c-0.1-0.1-0.3-0.1-0.4-0.1c-0.7,0-1.4,0-2.1,0C188.7,198.3,188.2,198.5,187.7,198.7z"/>
	<path class="st8" d="M189.2,201.6c-0.2-0.4-0.4-0.9-0.6-1.2c-0.4-0.6-0.8-1.1-1.2-1.6c-0.1-0.1-0.2-0.2-0.3-0.2
		c-1-0.2-2.1-0.4-3.1-0.6c-0.1,0-0.2,0-0.4,0c0.4,1.1,0.7,2.1,1.1,3.1c0.1,0,0.1,0,0.1,0c0.7-0.5,1.4-0.4,2.2-0.1
		c0.6,0.2,1.3,0.4,1.9,0.6C188.9,201.6,189,201.7,189.2,201.6C189.1,201.7,189.2,201.6,189.2,201.6z"/>
	<path class="st8" d="M183.5,206c0.7,0.8,1.4,1.5,2,2.2c0.1,0.1,0.3,0.2,0.5,0.2c1.3,0.1,2.5,0.1,3.8,0.2c0,0,0.1,0,0.2,0
		c-0.5-0.5-1-0.9-1.5-1.4c-0.6-0.8-1.4-1.1-2.4-1.1c-0.7,0-1.5-0.1-2.2-0.1C183.8,206,183.7,206,183.5,206z"/>
	<path class="st8" d="M187.3,205.8c-0.3-0.4-0.6-0.7-0.9-1c-0.2-0.3-0.5-0.5-0.7-0.8c-0.2-0.3-0.5-0.6-0.9-0.6
		c-1-0.2-2.1-0.4-3.2-0.6c0.3,1,0.6,1.9,1.4,2.5c0.1,0.1,0.3,0.2,0.5,0.3C184.7,205.9,185.9,205.8,187.3,205.8z"/>
	<path class="st8" d="M180.7,207c0.6,0.9,1.2,1.8,1.8,2.7c0,0.1,0.1,0.1,0.2,0.1c1.3,0,2.6,0,3.9,0c0,0,0.1,0,0.1,0
		c-0.6-0.6-1.1-1.1-1.7-1.6c-0.1-0.1-0.3-0.2-0.4-0.4c-0.3-0.4-0.7-0.5-1.2-0.6C182.6,207.2,181.7,207.1,180.7,207z"/>
	<path class="st8" d="M180.2,211.6c0.5,0.9,1,1.7,1.7,2.3c0.4,0.4,0.9,0.6,1.4,0.6c0.9,0.1,1.7-0.1,2.7-0.3
		c-0.2-0.2-0.3-0.3-0.4-0.4c-0.5-0.4-0.9-0.9-1.4-1.3c-0.3-0.3-0.6-0.4-1-0.5c-0.9-0.1-1.8-0.2-2.8-0.3
		C180.4,211.6,180.3,211.6,180.2,211.6z"/>
	<path class="st8" d="M188.8,198.1c0.8,0,1.5,0,2.2,0c0.6,0,1-0.2,1.5-0.4c-0.3-1.2-1.1-2-2.2-2.5c-0.2-0.1-0.6,0-0.8,0.1
		c-0.3,0.1-0.6,0.4-0.9,0.6c-0.1,0.1-0.2,0.3-0.2,0.5C188.6,197,188.7,197.5,188.8,198.1z"/>
	<path class="st8" d="M189.4,201.9c0.5,0.6,1,1.2,1.4,1.8c0.3,0.4,0.6,0.5,1,0.3c1-0.4,1.7-1.1,2.1-2c0.2-0.5-0.4-1.2-0.9-1
		C191.8,201.3,190.6,201.6,189.4,201.9z"/>
	<path class="st8" d="M185.5,203.3c-0.3-0.5-0.5-1-0.8-1.5c-0.2-0.4-0.5-0.9-0.7-1.3c-0.1-0.1-0.1-0.2-0.2-0.2
		c-0.8-0.2-1.6-0.3-2.4-0.5c-0.3,0.6-0.2,1.3-0.1,1.9c0.2,0.8,0.2,0.8,1.1,0.8C183.4,202.7,184.4,202.8,185.5,203.3z"/>
	<path class="st8" d="M178.4,208.3c0,0.1,0,0.3,0.1,0.4c0.3,0.9,0.9,1.7,1.4,2.5c0,0,0.1,0.1,0.2,0.1c1.2,0.1,2.3,0.3,3.6,0.4
		c-0.3-0.3-0.6-0.6-0.8-0.9c-0.4-0.4-0.7-0.9-1-1.4c0-0.1-0.1-0.1-0.2-0.2C180.5,208.9,179.5,208.6,178.4,208.3z"/>
	<path class="st8" d="M181.6,208.8c-0.2-0.4-0.4-0.7-0.6-1c-0.6-0.9-1.1-1.8-1.7-2.7c-0.2-0.3-0.4-0.3-0.6-0.3
		c-0.7-0.1-0.7-0.1-0.9,0.5c-0.3,0.9-0.1,1.7,0.4,2.5c0,0.1,0.1,0.1,0.2,0.2c1,0.3,2,0.6,3,0.9C181.5,208.9,181.5,208.8,181.6,208.8
		z"/>
	<path class="st8" d="M192.3,206c-0.4-0.4-0.7-0.8-1.1-1.1c-0.1-0.1-0.2-0.1-0.3-0.1c-1.4-0.1-2.8-0.2-4.2-0.3c0,0,0,0.1,0,0.1
		c0.2,0.2,0.3,0.3,0.5,0.5c0.6,0.6,1.1,1.2,1.7,1.7c0.1,0.1,0.2,0.2,0.4,0.1C190.2,206.6,191.2,206.3,192.3,206z"/>
	<path class="st8" d="M184.1,206.9c-0.3-0.3-0.5-0.6-0.8-0.9c-0.5-0.6-1-1.2-1.5-1.7c-0.1-0.1-0.2-0.2-0.4-0.2c-0.5,0-1,0-1.5,0
		c-0.4,0-0.5,0.2-0.5,0.6c0.1,0.8,0.6,1.4,1,2c0,0,0.1,0.1,0.2,0.1C181.9,206.8,183,206.9,184.1,206.9z"/>
	<path class="st8" d="M188.5,198c-0.2-0.5-0.3-1.1-0.5-1.7c-0.1-0.4-0.8-0.7-1.2-0.5c-0.2,0.1-0.4,0.1-0.6,0.2
		c-1.2,0.5-1.1,0.4-1.7,1.8c0.7,0.1,1.4,0.3,2,0.5C187.3,198.5,187.9,198.5,188.5,198z"/>
	<path class="st8" d="M186.3,208.9c0.7,0.6,1.4,1.3,2.1,1.9c0,0,0.1,0.1,0.2,0c0.9-0.3,1.8-0.7,2.7-1.1c-0.6-0.4-1.1-0.8-1.8-0.8
		c-1.1-0.1-2.1-0.1-3.2-0.1C186.3,208.8,186.3,208.8,186.3,208.9z"/>
	<path class="st8" d="M185.8,213.3c0.4,0.9,1.2,1.4,2.1,1.4c0.4,0,0.8-0.1,1.1-0.5c0.4-0.5,0.5-1.1,0.6-1.7
		C188.3,212.7,187.1,213,185.8,213.3z"/>
	<path class="st8" d="M189.1,207.2c0.6,0.6,1,1,1.5,1.5c0.1,0.1,0.2,0.1,0.3,0.1c0.7-0.4,1.5-0.9,2.2-1.3c-0.4-0.6-1-1-1.7-0.8
		C190.7,206.7,189.9,206.9,189.1,207.2z"/>
	<path class="st8" d="M181.7,203.9c-0.4-0.9-0.7-1.8-1-2.7c-0.3,0.1-0.7,0.2-1,0.3c-0.1,0-0.1,0.1-0.1,0.2c-0.1,0.7-0.2,1.3-0.2,2
		c0,0.1,0.1,0.2,0.2,0.2C180.3,203.9,181,203.9,181.7,203.9z"/>
	<path class="st8" d="M193.6,203.5c-0.8,0.4-1.6,0.7-2.4,1.1c0.5,0.5,0.9,1.1,1.4,1.6c0,0,0.2,0.1,0.3,0c0.2-0.1,0.3-0.3,0.4-0.5
		C193.5,205,193.6,204.3,193.6,203.5z"/>
	<path class="st8" d="M191.6,210.3c-1.1,0.3-2,0.5-3.1,0.8c0.5,0.5,0.9,0.9,1.3,1.3c0.1,0.1,0.2,0.1,0.3,0c0.7-0.4,1.2-0.9,1.5-1.6
		C191.6,210.6,191.6,210.5,191.6,210.3z"/>
	<path class="st8" d="M183,214.7c0.1,0.2,0.2,0.3,0.2,0.3c0.7,0.5,1.4,0.8,2.2,0.7c0.5-0.1,1-0.6,1.1-1c0-0.2-0.3-0.4-0.5-0.4
		c-0.5,0.1-1,0.3-1.5,0.4C184.1,214.8,183.6,214.7,183,214.7z"/>
	<path class="st8" d="M184,200.1c-0.4-0.7-0.8-1.4-1.2-2.2c-0.5,0.5-1,1-1.5,1.6C182.2,199.7,183,199.9,184,200.1z"/>
	<path class="st8" d="M193.5,197.8c-0.5,0.1-1.1,0.2-1.7,0.4c0.7,0.7,1.1,1.4,1.4,2.2c0,0.1,0.1,0.1,0.2,0.1c0.1,0,0.2-0.1,0.2-0.2
		C193.6,199.5,193.8,198.6,193.5,197.8z"/>
	<path class="st8" d="M185.1,216.2c0.6,0.1,1.3,0.3,1.9,0.4c0.5,0.1,0.8-0.3,0.7-0.8c-0.1-0.5-0.4-0.9-0.9-1.2
		c0,0.5-0.1,0.9-0.6,1.1C185.9,215.8,185.5,215.9,185.1,216.2C185.1,216.1,185.1,216.1,185.1,216.2z"/>
	<path class="st8" d="M184.5,215.8c-0.6-0.3-1.2-0.5-1.8-0.2c-0.4,0.1-0.8,0.2-1.2,0.3C182.4,217,183.5,217,184.5,215.8z"/>
	<path class="st8" d="M189.9,212.8c-0.1,0.5-0.2,0.8-0.3,1.2c-0.1,0.5-0.4,0.8-0.9,0.8c-0.4,0.1-0.9,0.1-1.4,0.1
		c0.2,0.1,0.3,0.2,0.5,0.2c0.6,0.2,1.2,0.1,1.7-0.2c0.1-0.1,0.3-0.2,0.3-0.3C190.2,214.1,190.2,213.5,189.9,212.8z"/>
	<path class="st8" d="M190.9,209c0.1,0.2,0.2,0.3,0.2,0.4c0.4,0.4,0.7,0.4,1,0c0.3-0.4,0.5-0.8,0.7-1.2c0,0,0,0-0.1-0.1
		C192.2,208.4,191.6,208.7,190.9,209z"/>
	<path class="st8" d="M178.7,202.8c-0.4,0.5-0.5,1-0.6,1.6c0.4,0.1,0.7,0.2,1.2,0.3c-0.2-0.7-0.3-1.3-0.5-1.9
		C178.8,202.8,178.7,202.8,178.7,202.8z"/>
	<path class="st8" d="M188.9,195.2c-0.6,0-1.1,0-1.7,0c0,0,0,0.1,0,0.1c0.4,0.3,0.7,0.6,1.2,0.9c0.2-0.3,0.4-0.6,0.6-0.8
		C188.9,195.3,188.9,195.2,188.9,195.2z"/>
	<path class="st8" d="M180.2,201c0.2,0,0.4-0.1,0.6-0.1c0.1-0.4,0.1-0.9,0.2-1.3c0,0,0,0-0.1,0C180.6,200,180.3,200.4,180.2,201
		C180.1,200.9,180.1,200.9,180.2,201z"/>
	<path class="st8" d="M180,215.1c-0.1,0-0.3-0.2-0.3-0.2c-0.6-0.6-1-1.2-1.3-1.8c1.6,0.7,3.1,1.4,4.6,2.2c0,0,0,0,0,0.1
		c-0.7,0.1-1.4,0.2-2.1,0.3C181,215.5,180.5,215.5,180,215.1z"/>
	<polygon class="st9" points="180.1,200.9 180.9,199.5 182.7,198 185.2,196.3 187.2,195.1 188.9,195.2 190.4,195.2 191.1,195.6 
		191.7,196.1 193.5,197.8 193.6,198.8 193.8,201.7 193.6,201.8 193.6,200.3 193.4,198.4 193.3,197.9 193,197.6 191.5,196.2 
		190.5,195.4 189.7,195.3 188.4,196.1 185.7,196.3 183.5,197.8 181.1,199.7 180.5,200.8 	"/>
	<path class="st10" d="M195.2,212.8c0-0.7-0.6-1.3-1.3-1.3c-0.7,0-1.3,0.6-1.3,1.3c0,0.7,0.6,2.2,1.3,2.2
		C194.6,215,195.2,213.5,195.2,212.8z"/>
	<path class="st10" d="M197.6,210.1c-0.7-0.3-1.4,0-1.7,0.7c-0.3,0.7,0,1.4,0.7,1.7c0.7,0.3,2.3,0.3,2.5-0.4
		C199.4,211.5,198.2,210.4,197.6,210.1z"/>
	<path class="st10" d="M196.9,214.5c-0.7-0.3-1.4,0-1.7,0.7c-0.3,0.7,0,1.4,0.7,1.7c0.7,0.3,2.3,0.3,2.5-0.4
		C198.7,215.9,197.6,214.8,196.9,214.5z"/>
</g>
<g id="nut">
	<g>
		<path class="st11" d="M93.5,204.8l1.7-1.9l2.8-1.2c0,0,2.5-0.2,3.3-0.3c1.5-0.1,4,1,4,1l2.1,1.1l2.4,2.1l1.5,1.9l1,2.6l0.5,2.6
			l0,2.8l-0.8,3.6l-1.1,2.9l-3.7,0.3l-3.6,0.2l-2.6-0.5l-2.5-0.8l-2.8-1.6l-1.8-1.7l-1.5-2.5l-1.1-3l-0.1-3l0.8-2.8L93.5,204.8z"/>
		<path class="st9" d="M112.9,214.7c0,0,0.4-1.8-0.7-5.4c0,0-0.1,0-0.1-0.1c-0.1-0.2-0.2-0.4-0.3-0.6c-0.2-0.3-0.3-0.6-0.4-1
			c0-0.1-0.8-1.8-3.2-3.9c-2.6-2.2-5.7-3.3-9.2-2.7c-5.2,0.9-8.6,5.3-8,10.6c0.3,2.3,1.1,4.6,2.8,6.3c3.2,3.3,7.2,4.8,11.8,4.4
			c1-0.1,2-0.2,3-0.3c0.8-0.1,1.6,0,2.4,0c0-0.3,0.1-0.8,0.2-0.7C111.4,220.8,112.8,217.3,112.9,214.7z M110.6,221.7
			c-1.3,0.1-2.8,0.2-4.2,0.4c-2,0.3-4,0-5.9-0.5c-0.9-0.2-1.8-0.6-2.7-1c-1.5-0.7-2.9-1.6-3.9-3c-1-1.4-1.8-2.9-2.2-4.6
			c-0.2-0.9-0.5-1.8-0.4-2.8c0.1-0.7,0.3-1.5,0.4-2.2l0,0c0.3-0.7,0.5-1.3,0.8-2c0,0,0.1,0,0.1,0c0,0.1,0,0.2,0,0.3
			c0.7-0.6,1.3-1.1,2-1.7c0.2-0.2,0.3-0.6,0.4-1c1-1.1,2.1-2.1,3.7-2.2c1.5-0.1,3.1-0.3,4.6,0.1c0,0.1,0,0.4,0.1,0.4
			c0.5,0.2,1,0.4,1.5,0.6c0.3,0.1,0.5,0.3,0.7,0.5c1.6,0.9,2.9,2.2,4.1,3.7c1.1,1.4,1.5,3,1.9,4.6c0.4,1.8,0.3,3.4-0.4,5.1
			c0,0.1,0,0.2,0,0.4c0.2-0.3,0.3-0.4,0.4-0.7c0,1.7-1.5,3-1.4,4.8c0.5-1.1,0.9-2,1.3-3c0.7-2,1.2-4.1,0.7-6.3
			c-0.4-1.5-0.8-3.2-1.6-4.5c-0.8-1.4-2.1-2.4-3.2-3.6c-0.1-0.1-0.2-0.2-0.2-0.4c0.3,0.2,0.6,0.3,0.8,0.5c0.7,0.7,1.5,1.3,2.1,2.1
			c3.1,4.3,3.3,8.8,1.3,13.6C111,220.3,110.8,221.1,110.6,221.7z"/>
		<path class="st9" d="M94,214.6c0.1,0,0.1,0,0.3,0.1c1.2,0.9,2.6,0.4,3.3,1.7c0.4,0.7,0.9,2,2.9,2.1c1.1,0.1,2,1.2,3.1,1.1
			c0.9-0.1,3.3-0.8,4-1.4c0.9-0.7,2-2.7,2.9-3c-0.8,1.4,0.1,3.8-1.4,5c-1.8,1.4-5.6,0.1-7.6-0.3c-1.9-0.4-3.8-0.9-5.2-2.2
			c-1.1-1-1.5-2.3-2.4-3.4"/>
		<polygon class="st12" points="92.4,207.4 93.8,207.4 94.5,206.8 94.4,205.5 95.8,204.7 96.3,203.1 98.4,202.8 100.9,202.6 
			103.2,203.4 106,204 107.8,205.8 108.5,207.8 110,209.1 110.3,210.5 110.3,212.8 110.4,214.8 110.1,215.3 109,216 108,217.5 
			105.8,219.3 102.5,219.3 100.6,218.2 99.3,218.2 98.4,217.9 97.6,216 94.7,215 93.2,213.1 92,209.6 		"/>
		<path class="st9" d="M110.4,212.3c-0.1-0.2-0.1-0.6,0-0.8c0.4-0.9,0.4-1.7-0.2-2.5c-0.1-0.2-0.2-0.4-0.3-0.7c0,0-0.2,0.1-0.3,0
			c-0.6-0.4-1.2-0.9-1.3-1.7c-0.1-0.4-0.1-0.8-0.4-1.2c-0.7-1.1-2.6-2.1-3.9-1.9c-0.2,0-0.6,0-0.7-0.2c-0.9-0.9-2.5-1.3-3.8-0.8
			c-0.4,0.2-1,0.2-1.5,0.1c-1.3-0.3-2.1,0.2-2.4,1.5c-0.1,0.4-0.2,0.8-0.7,0.9c-0.8,0.2-1,0.7-0.7,1.5c0,0.2,0,0.4-0.1,0.5
			c-0.1,0.1-0.3,0.2-0.5,0.1c-1.3-0.2-1.5-0.1-2,1.1c0,0,0,0,0,0c0.1,0.8,0,1.7,0.2,2.5c0.4,1.1,1,2.2,1.4,3.3
			c0.5,1.2,1.3,1.9,2.6,1.9c1,0,1.5,0.3,1.9,1.3c0.5,1.4,1.2,1.7,2.7,1.5c0.2,0,0.4,0.1,0.6,0.2c0.7,0.7,1.6,1,2.6,0.9
			c0.5,0,1.1-0.1,1.6-0.1c0.9,0.1,1.6-0.2,2.1-0.9c0.1-0.2,0.3-0.3,0.5-0.4c0.8-0.4,1.3-1,1.5-2c0.1-0.4,0.2-0.6,0.6-0.7
			c0.3-0.1,0.5-0.4,0.6-0.7C110.9,214.1,110.7,213.2,110.4,212.3z M92.7,207.9c0.8,0,1.1,0.2,1.4,1c0.1,0.2,0.1,0.7,0.6,0.5
			c0,0,0.2,0.4,0.3,0.6c0.1-0.1,0.2-0.3,0.2-0.3c0.2,0.1,0.3,0.2,0.4,0.3c0.4-0.5,0.4-0.7-0.4-1.3c-0.4-0.3-0.8-0.6-1.2-1
			c0.2-0.1,0.4-0.2,0.7-0.3c0.1,0.3,0.2,0.6,0.3,0.9c0.2-0.1,0.3-0.2,0.5-0.3c0.2,0.5,0.4,0.8,0.9,0.7c0.2,0.8,0.7,0.2,1.2,0.5
			c-0.2,0.1-0.3,0.2-0.5,0.3c-0.8,0.3-1.6,0.7-1.9,1.5c-0.3,0.9-0.3,1.9,0.5,2.6c0.1,0.1,0.2,0.2,0.4,0.4c-0.5-0.1-0.8-0.2-1-0.7
			c-0.1-0.3-0.5-0.6-0.7-0.9c-0.2-0.3-0.7-0.6-0.6-1.1c0-0.1-0.4-0.4-0.6-0.5c-0.1,0-0.2,0.1-0.3,0.2
			C92.5,209.8,92.1,208.9,92.7,207.9z M108.3,216.2v-0.6c0,0-0.1,0-0.1,0c-0.1,0.2-0.2,0.5-0.3,0.6c-0.7-0.5-1.4-1-2.1-1.5
			c0.3,0,0.7,0,1,0.1c0,0,0-0.1,0-0.1l-0.9-0.3c0-0.1,0-0.1,0.1-0.2c0.2,0,0.4,0,0.6,0.1c0.6,0.3,1.2,0.7,1.7,1.1
			c0.2,0.1,0.1,0.5,0.1,0.8C108.4,216.2,108.4,216.2,108.3,216.2z M109.7,215.3c-0.2,0-0.4-0.1-0.5-0.2h-0.8
			c0.3-0.3,0.5-0.4,0.6-0.6c-0.4-0.4-0.8-0.8-1.3-1.2c-0.1,0-0.1,0.1-0.2,0.1c0.1,0.2,0.1,0.3,0.2,0.5c-0.1,0-0.1,0-0.2,0
			c-0.3,0-0.6-0.1-0.9-0.1c-1.3,0.2-2.2-0.6-2.7-1.8c-0.6-1.4-0.5-2.8-0.2-4.2c0.1-0.4,0.1-1.4-0.4-1.5c-0.6-0.2-1.1,0.1-1.3,0.8
			c-0.1,0.6-0.3,1.7-0.2,1.7c0.2,0.6,0.2,1.2,0.5,1.7c0.2,0.5,0.1,0.7-0.3,0.9c-0.6,0.3-1.2,0.3-1.8-0.1c-0.7-0.5-1.3-0.5-2.1-0.3
			c-0.4,0.1-0.5,0.3-0.4,0.6c0.1,0.3,0.4,0.8,0.7,0.9c0.9,0.2,1.8,0.3,2.7,0.3c1.1-0.1,1.5,0.1,2.1,1c0.4,0.5,0.8,1,1.3,1.3
			c0.8,0.6,1.9,0.9,2.1,2.2c0,0.3,0,0.3,0,0.6c-0.5,0.9-1,1.1-2,0.9c-0.3,0-0.6,0.1-0.9,0.2c-0.2,0-0.3,0.1-0.5,0.2
			c0,0-0.5,0-0.8-0.1c-0.2,0-0.8-1-0.8-1.1c-0.1-0.1-0.4-0.1-0.7-0.1c-0.3,0.1-0.6,0.3-0.9,0.3c-0.5,0-0.9-0.3-1.3-0.4
			c-0.1-0.4-0.2-0.6-0.3-0.9c0-0.1,0-0.2,0-0.4c0,0,0,0,0,0c0.1-0.2,0.4-0.3,0.4-0.5c0-0.1-0.1-0.4-0.2-0.5
			c-0.1-0.1-0.3-0.1-0.5-0.1c-0.3,0-0.7,0.1-1,0.1c0,0,0,0-0.1,0c-0.4,0.1-0.7-0.1-1.1-0.2c0,0,0,0,0,0c-0.3-0.1-0.6-0.2-0.9-0.3
			c0,0-0.1,0-0.1-0.1c-0.1-0.1-0.3-0.1-0.4-0.2c-0.9-0.7-1.1-1.8-1.7-2.8c0.7,0.2,0.9,0.6,1.2,1c0.2,0.3,0.4,0.6,0.6,0.9
			c0.1,0,0.2,0.1,0.3,0.2c0.1,0.2,0.4,0.3,0.7,0.2v0c0.7,0,1.4-0.1,2.2-0.1c0.7,0,1.2,0.2,1.6,0.9c0.3,0.7,0.9,1.2,1.5,1.8
			c0.1,0.1,0.3,0.1,0.5,0.1c0.5-0.1,1.2-0.2,1.7,0c0.2,0.1,0,0.7,0.4,0.9c0.2,0.1,0.4,0.2,0.6,0.2c0.2,0,0.6-0.2,0.7-0.5
			c0.2-0.5-0.2-1.1-0.7-1.3c-0.3-0.1-0.6-0.1-0.8-0.1c-1.1,0.3-2-0.2-2.8-0.8c-0.2-0.1-0.1-0.3-0.1-0.3c0-0.2,0.3-0.2,0.4-0.3
			c1-0.2,0.7-1.7-0.2-1.5c-0.8,0.2-1.6,0.4-2.3,0.5c-0.1-0.2-0.2-0.4-0.3-0.7c-0.1,0.2-0.1,0.4-0.1,0.6c-0.4-0.2-0.9-0.5-1.3-0.8
			c0,0-0.1,0.1-0.1,0.1c-0.1-0.2-0.1-0.4-0.2-0.7c-0.1,0.2-0.1,0.3-0.1,0.4c-0.3-0.3-0.5-1-0.3-1.4c0.3-0.6,1.3-1.1,2-1
			c0.4,0,0.6,0,0.6-0.3c0,0,0-0.1,0.1-0.2c-0.2-0.1,0.3-0.4,0.7-0.3c0.4,0.1,0.6-0.1,0.8-0.4c0.2-0.4-0.1-0.5-0.4-0.5
			c-0.1,0-0.1-0.3-0.2-0.5c-0.1,0.3-0.1,0.5-0.2,0.7c-0.1-0.3-0.1-0.7-0.5-0.2c0,0-0.1,0-0.1,0.1c0-0.1-0.1-0.3-0.1-0.5
			c-0.1,0.2-0.2,0.4-0.3,0.7c-0.5-0.4-1-0.7-1.5-1c-0.2-0.1-0.3-0.2-0.5-0.2c-0.8-0.3-1.2-1-1.4-1.8c0-0.1,0-0.3,0-0.4
			c0.1-0.2,1.6-0.6,1.9-0.6c0,0,0,0,0,0v0c-0.5-0.4-0.2-0.9-0.1-1.3c0.1-0.3,0.6-0.5,0.9-0.5c0.4,0.1,0.8,0.4,1.1,0.7
			c0.2,0.2,0.3,0.3,0.5,0.3c0.3-0.1,0.5-0.1,1-0.2c0-0.1,0-0.3-0.1-0.7c0.4-0.1,1-0.2,1.6-0.2c0.7,0,1,0.6,1.1,1.3
			c-0.9-0.1-1.5,0.5-2.1,1.2c0,0,0,0,0,0.1c0,0,0,0,0,0c-0.2,0.5-0.3,1-0.5,1.6c-0.4-0.3-0.6-0.6-1-0.9c0.2-0.1,0.4-0.2,0.6-0.3
			c0,0.2,0,0.3,0,0.3c0.2-0.2,0.5-0.4,0.9-0.7c0,0,0,0,0,0c0,0,0,0,0-0.1c0.1-0.3,0.2-0.6,0.3-0.9c-0.2,0-0.4,0-0.7,0
			c0,0.1-0.1,0.2-0.1,0.3c-0.4-0.1-0.8-0.2-1.3-0.3c0.1,0.2,0.1,0.3,0.1,0.3c0,0,0,0,0,0c-0.1-0.1-0.2-0.3-0.3-0.5
			c-0.1,0.2-0.1,0.3-0.2,0.5c-0.4-0.6-0.8-1.1-1.5-1c-0.1,0.5-0.1,0.7-0.2,1c0,0,0,0,0,0c0,0,0,0,0,0c-0.1,0.3-0.1,0.5-0.2,0.7
			c1.4-0.1,2.1,0.8,2.9,1.7c0.3,0.3,0.5,0.8,0.7,1.1c0.2-0.7,0.4-1.4,0.7-2.1c0.3-0.8,1.1-1.1,1.8-1.4c0.1,0,0.2,0,0.3,0
			c0.9,0.5,1.9,1,2,2.3c0,0.2,0.1,0.4,0.3,0.6c0-0.4-0.1-0.8-0.1-1.1c0.5,1,0.9,2,1,3.2c0,0.7,0.6,1.4,1,2c0.2,0.3,0.5,0.5,0.8,0.7
			c0.1-0.1,0.2-0.2,0.4-0.3c-0.1,0.6,0.2,0.9,0.6,1.1v-0.4c0.2,0.1,0.3,0.3,0.6,0.5c-0.1-0.3-0.1-0.4-0.1-0.5
			c-0.5-0.5-0.7-1.1-0.8-1.8c0-0.3,0-0.6-0.1-0.8c-0.2-0.4-0.5-0.8-0.9-1.3c0.3,0.1,0.5,0.3,0.8,0.4c0,0,0,0,0.1-0.1
			c-0.1-0.1-0.2-0.2-0.3-0.3c-0.3-0.2-0.6-0.3-0.9-0.4c-0.6-0.2-0.9-0.5-1-1.3c-0.1-1.1-0.7-1.9-1.7-2.4c-0.4-0.2-0.8-0.4-1.1-0.7
			c0.9,0.1,1.9,0,2.6,0.8l0.1-0.2c-0.1-0.1-0.3-0.3-0.5-0.5c1.2,0.4,2,1,2.2,2c0.1,0.4-0.3,0.9-0.6,1.5c0.2,0.2,0.5,0.5,0.8,0.8
			c0,0,0.1-0.1,0.1-0.1c0-0.1,0-0.3,0-0.4c0.8-0.2,1.9,1,2,2.2c-0.1,0-0.2-0.1-0.3-0.1c-0.2,0.4,0.1,1.1-0.9,1
			c0.4,0.4,0.3,1.1,1,1.3c0.2,0,0.3,0.6,0.3,0.9c-0.1-0.1-0.2-0.2-0.4-0.5c0.2,0.7,0.3,1.1,0.4,1.6
			C110.3,215,110.1,215.2,109.7,215.3z M104,213.1c0,0-0.1,0.1-0.1,0.1c-0.3-0.4-0.5-0.7-0.8-1.1c-0.1,0.2-0.1,0.4-0.2,0.5
			c-0.1,0-0.1,0-0.1,0c0.1-0.5,0.2-0.9,0.3-1.2C103.3,211.9,103.6,212.5,104,213.1z"/>
	</g>
</g>
<g id="honey">
</g>
<g id="doma">
</g>
<g id="car">
</g>
<g id="butylka_3">
</g>
<g id="butylka_2">
</g>
<g id="tvorog">
</g>
<g id="butylka_1">
</g>
<g id="vanna_2">
</g>
<g id="sneg">
</g>
<g id="vigimka">
</g>
<g id="vanna_1">
</g>
<g id="zakvaska">
</g>
<g id="shariki_2">
</g>
<g id="shariki_1">
</g>
<g id="voronka">
</g>
<g id="gradusnik">
</g>
<g id="kolba_2">
</g>
<g id="kolba_1">
</g>
<g id="probirki">
</g>
<g id="lupa">
</g>
<g id="tvorog_1_">
	<g>
		<g>
			<circle class="st0" cx="158.2" cy="240.2" r="2"/>
			<path class="st0" d="M156.2,249.7c0-2.1-1.3-3.8-3-4.5c0.1-0.2,0.2-0.5,0.2-0.8c0-1.1-0.9-2-2-2c-1.1,0-2,0.9-2,2
				c0,0.3,0.1,0.6,0.2,0.8c-0.5,0.2-0.9,0.4-1.2,0.7c-1.8-2-4.4-3.2-7.2-3.2c0,0,0,0,0,0c-0.1-1-0.3-1.9-0.7-2.7
				c1.7-0.2,3.1-1.7,3.1-3.4c0-1.9-1.6-3.5-3.5-3.5c-1.7,0-3.1,1.2-3.4,2.8c-0.9-0.5-1.9-0.8-3-0.9c0.7-0.6,1.1-1.5,1.1-2.5
				c0-1.9-1.6-3.5-3.5-3.5c-1.5,0-2.7,0.9-3.2,2.2c-1.7-1.6-4.1-2.6-6.6-2.6c-3.8,0-7,2.1-8.7,5.2c-0.3-0.8-1-1.3-1.9-1.3
				c-1.1,0-2,0.9-2,2c0,0.5,0.2,1,0.5,1.3c-1.4,0.7-2.6,1.8-3.5,3.1c-0.3-2.3-2.3-4-4.6-4c-2.6,0-4.7,2.1-4.7,4.7
				c0,0.9,0.3,1.8,0.7,2.5c-0.3,0-0.6-0.1-0.9-0.1c-3.3,0-6.1,2.3-6.8,5.4c-0.7-0.4-1.5-0.6-2.3-0.6c-2.7,0-4.9,2.2-4.9,4.9
				c0,2.7,2.2,4.9,4.9,4.9c0.8,0,1.5-0.2,2.1-0.5c0,0.2,0,0.3,0,0.5c0,5.4,4.4,9.8,9.8,9.8c1.7,0,3.3-0.4,4.8-1.2
				c0.2,0.9,1,1.6,2,1.6c1.1,0,2-0.9,2-2c0-0.1,0-0.2,0-0.4c0.9,0.2,1.9,0.4,2.9,0.4c1.1,0,2.1-0.1,3.1-0.4c1.6,3.4,5,5.7,8.9,5.7
				c5.4,0,9.8-4.4,9.8-9.8c0-0.3,0-0.5,0-0.8c0.3-0.2,0.6-0.5,0.9-0.8c1.8,2.2,4.5,3.6,7.6,3.6c3,0,5.7-1.3,7.5-3.4
				c0.7,0.9,1.7,1.4,2.9,1.4c2,0,3.7-1.6,3.7-3.7c0-1.1-0.5-2.1-1.2-2.7C155.2,253.1,156.2,251.5,156.2,249.7z M101.3,244.4
				C101.3,244.4,101.3,244.3,101.3,244.4c0-0.1,0-0.1,0.1-0.1C101.4,244.3,101.4,244.4,101.3,244.4z"/>
		</g>
		<circle class="st13" cx="91.6" cy="245.1" r="7"/>
		<circle class="st13" cx="96.5" cy="235.7" r="4.7"/>
		<circle class="st13" cx="126.6" cy="228.5" r="3.5"/>
		<circle class="st13" cx="135.3" cy="232.6" r="3.5"/>
		<circle class="st13" cx="146.8" cy="240.4" r="2"/>
		<circle class="st13" cx="153.8" cy="236.3" r="2"/>
		<circle class="st13" cx="101.2" cy="261" r="2"/>
		<circle class="st13" cx="146.8" cy="252.8" r="3.7"/>
		<circle class="st13" cx="106.2" cy="230.6" r="2"/>
		<circle class="st13" cx="82.5" cy="247.9" r="4.9"/>
		<circle class="st13" cx="146.8" cy="245.8" r="4.9"/>
		<circle class="st13" cx="108.3" cy="239.4" r="8.4"/>
		<circle class="st13" cx="128" cy="239.4" r="8.4"/>
		<circle class="st13" cx="116.8" cy="234.5" r="9.8"/>
		<circle class="st13" cx="122" cy="247.9" r="9.8"/>
		<circle class="st13" cx="118.2" cy="256.4" r="9.8"/>
		<circle class="st13" cx="106.2" cy="248.6" r="12.4"/>
		<circle class="st13" cx="94.5" cy="252.8" r="9.8"/>
		<circle class="st13" cx="136.4" cy="248.6" r="9.8"/>
	</g>
	<g>
		<g>
			<circle class="st0" cx="246.8" cy="240.2" r="2"/>
			<path class="st0" d="M244.8,249.7c0-2.1-1.3-3.8-3-4.5c0.1-0.2,0.2-0.5,0.2-0.8c0-1.1-0.9-2-2-2c-1.1,0-2,0.9-2,2
				c0,0.3,0.1,0.6,0.2,0.8c-0.5,0.2-0.9,0.4-1.2,0.7c-1.8-2-4.4-3.2-7.2-3.2c0,0,0,0,0,0c-0.1-1-0.3-1.9-0.7-2.7
				c1.7-0.2,3.1-1.7,3.1-3.4c0-1.9-1.6-3.5-3.5-3.5c-1.7,0-3.1,1.2-3.4,2.8c-0.9-0.5-1.9-0.8-3-0.9c0.7-0.6,1.1-1.5,1.1-2.5
				c0-1.9-1.6-3.5-3.5-3.5c-1.5,0-2.7,0.9-3.2,2.2c-1.7-1.6-4.1-2.6-6.6-2.6c-3.8,0-7,2.1-8.7,5.2c-0.3-0.8-1-1.3-1.9-1.3
				c-1.1,0-2,0.9-2,2c0,0.5,0.2,1,0.5,1.3c-1.4,0.7-2.6,1.8-3.5,3.1c-0.3-2.3-2.3-4-4.6-4c-2.6,0-4.7,2.1-4.7,4.7
				c0,0.9,0.3,1.8,0.7,2.5c-0.3,0-0.6-0.1-0.9-0.1c-3.3,0-6.1,2.3-6.8,5.4c-0.7-0.4-1.5-0.6-2.3-0.6c-2.7,0-4.9,2.2-4.9,4.9
				c0,2.7,2.2,4.9,4.9,4.9c0.8,0,1.5-0.2,2.1-0.5c0,0.2,0,0.3,0,0.5c0,5.4,4.4,9.8,9.8,9.8c1.7,0,3.3-0.4,4.8-1.2
				c0.2,0.9,1,1.6,2,1.6c1.1,0,2-0.9,2-2c0-0.1,0-0.2,0-0.4c0.9,0.2,1.9,0.4,2.9,0.4c1.1,0,2.1-0.1,3.1-0.4c1.6,3.4,5,5.7,8.9,5.7
				c5.4,0,9.8-4.4,9.8-9.8c0-0.3,0-0.5,0-0.8c0.3-0.2,0.6-0.5,0.9-0.8c1.8,2.2,4.5,3.6,7.6,3.6c3,0,5.7-1.3,7.5-3.4
				c0.7,0.9,1.7,1.4,2.9,1.4c2,0,3.7-1.6,3.7-3.7c0-1.1-0.5-2.1-1.2-2.7C243.8,253.1,244.8,251.5,244.8,249.7z M189.9,244.4
				C189.9,244.4,189.9,244.3,189.9,244.4c0-0.1,0-0.1,0.1-0.1C190,244.3,190,244.4,189.9,244.4z"/>
		</g>
		<circle class="st13" cx="180.2" cy="245.1" r="7"/>
		<circle class="st13" cx="185.1" cy="235.7" r="4.7"/>
		<circle class="st13" cx="215.2" cy="228.5" r="3.5"/>
		<circle class="st13" cx="223.9" cy="232.6" r="3.5"/>
		<circle class="st13" cx="235.4" cy="240.4" r="2"/>
		<circle class="st13" cx="242.4" cy="236.3" r="2"/>
		<circle class="st13" cx="189.8" cy="261" r="2"/>
		<circle class="st13" cx="235.4" cy="252.8" r="3.7"/>
		<circle class="st13" cx="194.8" cy="230.6" r="2"/>
		<circle class="st13" cx="171.1" cy="247.9" r="4.9"/>
		<circle class="st13" cx="235.4" cy="245.8" r="4.9"/>
		<circle class="st13" cx="196.9" cy="239.4" r="8.4"/>
		<circle class="st13" cx="216.6" cy="239.4" r="8.4"/>
		<circle class="st13" cx="205.4" cy="234.5" r="9.8"/>
		<circle class="st13" cx="210.6" cy="247.9" r="9.8"/>
		<circle class="st13" cx="206.8" cy="256.4" r="9.8"/>
		<circle class="st13" cx="194.8" cy="248.6" r="12.4"/>
		<circle class="st13" cx="183.1" cy="252.8" r="9.8"/>
		<circle class="st13" cx="225" cy="248.6" r="9.8"/>
	</g>
	<g>
		<g>
			<circle class="st0" cx="158.8" cy="128.7" r="2"/>
			<path class="st0" d="M156.7,138.3c0-2.1-1.3-3.8-3-4.5c0.1-0.2,0.2-0.5,0.2-0.8c0-1.1-0.9-2-2-2c-1.1,0-2,0.9-2,2
				c0,0.3,0.1,0.6,0.2,0.8c-0.5,0.2-0.9,0.4-1.2,0.7c-1.8-2-4.4-3.2-7.2-3.2c0,0,0,0,0,0c-0.1-1-0.3-1.9-0.7-2.7
				c1.7-0.2,3.1-1.7,3.1-3.4c0-1.9-1.6-3.5-3.5-3.5c-1.7,0-3.1,1.2-3.4,2.8c-0.9-0.5-1.9-0.8-3-0.9c0.7-0.6,1.1-1.5,1.1-2.5
				c0-1.9-1.6-3.5-3.5-3.5c-1.5,0-2.7,0.9-3.2,2.2c-1.7-1.6-4.1-2.6-6.6-2.6c-3.8,0-7,2.1-8.7,5.2c-0.3-0.8-1-1.3-1.9-1.3
				c-1.1,0-2,0.9-2,2c0,0.5,0.2,1,0.5,1.3c-1.4,0.7-2.6,1.8-3.5,3.1c-0.3-2.3-2.3-4-4.6-4c-2.6,0-4.7,2.1-4.7,4.7
				c0,0.9,0.3,1.8,0.7,2.5c-0.3,0-0.6-0.1-0.9-0.1c-3.3,0-6.1,2.3-6.8,5.4c-0.7-0.4-1.5-0.6-2.3-0.6c-2.7,0-4.9,2.2-4.9,4.9
				c0,2.7,2.2,4.9,4.9,4.9c0.8,0,1.5-0.2,2.1-0.5c0,0.2,0,0.3,0,0.5c0,5.4,4.4,9.8,9.8,9.8c1.7,0,3.3-0.4,4.8-1.2
				c0.2,0.9,1,1.6,2,1.6c1.1,0,2-0.9,2-2c0-0.1,0-0.2,0-0.4c0.9,0.2,1.9,0.4,2.9,0.4c1.1,0,2.1-0.1,3.1-0.4c1.6,3.4,5,5.7,8.9,5.7
				c5.4,0,9.8-4.4,9.8-9.8c0-0.3,0-0.5,0-0.8c0.3-0.2,0.6-0.5,0.9-0.8c1.8,2.2,4.5,3.6,7.6,3.6c3,0,5.7-1.3,7.5-3.4
				c0.7,0.9,1.7,1.4,2.9,1.4c2,0,3.7-1.6,3.7-3.7c0-1.1-0.5-2.1-1.2-2.7C155.7,141.7,156.7,140.1,156.7,138.3z M101.9,133
				C101.9,132.9,101.8,132.9,101.9,133c0-0.1,0-0.1,0.1-0.1C102,132.9,101.9,132.9,101.9,133z"/>
		</g>
		<circle class="st13" cx="92.2" cy="133.7" r="7"/>
		<circle class="st13" cx="97.1" cy="124.3" r="4.7"/>
		<circle class="st13" cx="127.2" cy="117.1" r="3.5"/>
		<circle class="st13" cx="135.9" cy="121.2" r="3.5"/>
		<circle class="st13" cx="147.4" cy="129" r="2"/>
		<circle class="st13" cx="154.3" cy="124.8" r="2"/>
		<circle class="st13" cx="101.8" cy="149.6" r="2"/>
		<circle class="st13" cx="147.4" cy="141.3" r="3.7"/>
		<circle class="st13" cx="106.7" cy="119.1" r="2"/>
		<circle class="st13" cx="83.1" cy="136.4" r="4.9"/>
		<circle class="st13" cx="147.4" cy="134.3" r="4.9"/>
		<circle class="st13" cx="108.9" cy="128" r="8.4"/>
		<circle class="st13" cx="128.6" cy="128" r="8.4"/>
		<circle class="st13" cx="117.3" cy="123.1" r="9.8"/>
		<circle class="st13" cx="122.6" cy="136.4" r="9.8"/>
		<circle class="st13" cx="118.7" cy="145" r="9.8"/>
		<circle class="st13" cx="106.7" cy="137.2" r="12.4"/>
		<circle class="st13" cx="95" cy="141.3" r="9.8"/>
		<circle class="st13" cx="137" cy="137.2" r="9.8"/>
	</g>
	<g>
		<g>
			<circle class="st0" cx="248.3" cy="128.7" r="2"/>
			<path class="st0" d="M246.3,138.3c0-2.1-1.3-3.8-3-4.5c0.1-0.2,0.2-0.5,0.2-0.8c0-1.1-0.9-2-2-2c-1.1,0-2,0.9-2,2
				c0,0.3,0.1,0.6,0.2,0.8c-0.5,0.2-0.9,0.4-1.2,0.7c-1.8-2-4.4-3.2-7.2-3.2c0,0,0,0,0,0c-0.1-1-0.3-1.9-0.7-2.7
				c1.7-0.2,3.1-1.7,3.1-3.4c0-1.9-1.6-3.5-3.5-3.5c-1.7,0-3.1,1.2-3.4,2.8c-0.9-0.5-1.9-0.8-3-0.9c0.7-0.6,1.1-1.5,1.1-2.5
				c0-1.9-1.6-3.5-3.5-3.5c-1.5,0-2.7,0.9-3.2,2.2c-1.7-1.6-4.1-2.6-6.6-2.6c-3.8,0-7,2.1-8.7,5.2c-0.3-0.8-1-1.3-1.9-1.3
				c-1.1,0-2,0.9-2,2c0,0.5,0.2,1,0.5,1.3c-1.4,0.7-2.6,1.8-3.5,3.1c-0.3-2.3-2.3-4-4.6-4c-2.6,0-4.7,2.1-4.7,4.7
				c0,0.9,0.3,1.8,0.7,2.5c-0.3,0-0.6-0.1-0.9-0.1c-3.3,0-6.1,2.3-6.8,5.4c-0.7-0.4-1.5-0.6-2.3-0.6c-2.7,0-4.9,2.2-4.9,4.9
				c0,2.7,2.2,4.9,4.9,4.9c0.8,0,1.5-0.2,2.1-0.5c0,0.2,0,0.3,0,0.5c0,5.4,4.4,9.8,9.8,9.8c1.7,0,3.3-0.4,4.8-1.2
				c0.2,0.9,1,1.6,2,1.6c1.1,0,2-0.9,2-2c0-0.1,0-0.2,0-0.4c0.9,0.2,1.9,0.4,2.9,0.4c1.1,0,2.1-0.1,3.1-0.4c1.6,3.4,5,5.7,8.9,5.7
				c5.4,0,9.8-4.4,9.8-9.8c0-0.3,0-0.5,0-0.8c0.3-0.2,0.6-0.5,0.9-0.8c1.8,2.2,4.5,3.6,7.6,3.6c3,0,5.7-1.3,7.5-3.4
				c0.7,0.9,1.7,1.4,2.9,1.4c2,0,3.7-1.6,3.7-3.7c0-1.1-0.5-2.1-1.2-2.7C245.3,141.7,246.3,140.1,246.3,138.3z M191.4,133
				C191.4,132.9,191.4,132.9,191.4,133c0-0.1,0-0.1,0.1-0.1C191.5,132.9,191.4,132.9,191.4,133z"/>
		</g>
		<circle class="st13" cx="181.7" cy="133.7" r="7"/>
		<circle class="st13" cx="186.6" cy="124.3" r="4.7"/>
		<circle class="st13" cx="216.7" cy="117.1" r="3.5"/>
		<circle class="st13" cx="225.4" cy="121.2" r="3.5"/>
		<circle class="st13" cx="236.9" cy="129" r="2"/>
		<circle class="st13" cx="243.9" cy="124.8" r="2"/>
		<circle class="st13" cx="191.3" cy="149.6" r="2"/>
		<circle class="st13" cx="236.9" cy="141.3" r="3.7"/>
		<circle class="st13" cx="196.3" cy="119.1" r="2"/>
		<circle class="st13" cx="172.6" cy="136.4" r="4.9"/>
		<circle class="st13" cx="236.9" cy="134.3" r="4.9"/>
		<circle class="st13" cx="198.4" cy="128" r="8.4"/>
		<circle class="st13" cx="218.1" cy="128" r="8.4"/>
		<circle class="st13" cx="206.8" cy="123.1" r="9.8"/>
		<circle class="st13" cx="212.1" cy="136.4" r="9.8"/>
		<circle class="st13" cx="208.3" cy="145" r="9.8"/>
		<circle class="st13" cx="196.3" cy="137.2" r="12.4"/>
		<circle class="st13" cx="184.6" cy="141.3" r="9.8"/>
		<circle class="st13" cx="226.5" cy="137.2" r="9.8"/>
	</g>
</g>
<g id="kuraga">
	<g>
		<g>
			<ellipse class="st14" cx="113" cy="89.4" rx="11.9" ry="11.8"/>
			<path class="st15" d="M116.6,78.7c0,0-2-8-11.5-8.5c0,0-1,7.9,11.4,8.7"/>
			<path class="st15" d="M116.5,78.7c0,0-1.8-8,6.4-12.8c0,0,4.5,6.6-6.2,12.9"/>
		</g>
		<g>
			<path class="st16" d="M134.6,98.2c3.3-10.2-4.2-11.4-4.2-11.4s-4.9-5.8-11.9,2.3c-7.1,8.1-3.2,14.5,1.1,16.9
				C123.8,108.4,131.3,108.4,134.6,98.2z"/>
		</g>
		<path class="st17" d="M134.6,98.2c3.3-10.2-4.2-11.4-4.2-11.4L119.5,106C123.8,108.4,131.3,108.4,134.6,98.2z"/>
		<path class="st18" d="M117.3,101.9c-0.2,0-0.5-0.1-0.6-0.4c-2-3.5-0.1-7.6,0-7.7c0.2-0.3,0.6-0.5,0.9-0.3c0.3,0.2,0.5,0.6,0.3,0.9
			c0,0-1.6,3.6,0,6.5c0.2,0.3,0.1,0.8-0.3,1C117.6,101.9,117.5,101.9,117.3,101.9z"/>
		<path class="st18" d="M118.9,92.6c0,0.3-0.3,0.6-0.6,0.6l0,0c-0.3,0-0.6-0.3-0.6-0.6v0c0-0.3,0.3-0.6,0.6-0.6l0,0
			C118.7,92,118.9,92.2,118.9,92.6L118.9,92.6z"/>
		<path class="st19" d="M127.9,91.2c0,0,3.1,2.8,0.4,7.1c-2.7,4.2-6,2.9-6,2.9L127.9,91.2z"/>
		<path class="st20" d="M127.9,91.2c0,0-4-1.2-6.2,3.3c-2.2,4.5,0.6,6.6,0.6,6.6L127.9,91.2z"/>
		<path class="st21" d="M127.2,92.4c0,0-2.7-0.7-4.4,2.3c-1.7,3-0.3,4.8,0,5.5c0.8-0.1,3,0.2,4.7-2.8
			C129.2,94.4,127.2,92.4,127.2,92.4z"/>
	</g>
	<g>
		<g>
			<ellipse class="st14" cx="217.4" cy="205.9" rx="11.9" ry="11.8"/>
			<path class="st15" d="M221,195.1c0,0-2-8-11.5-8.5c0,0-1,7.9,11.4,8.7"/>
			<path class="st15" d="M220.9,195.2c0,0-1.8-8,6.4-12.8c0,0,4.5,6.6-6.2,12.9"/>
		</g>
		<g>
			<path class="st16" d="M239,214.7c3.3-10.2-4.2-11.4-4.2-11.4s-4.9-5.8-11.9,2.3c-7.1,8.1-3.2,14.5,1.1,16.9
				C228.2,224.9,235.7,224.9,239,214.7z"/>
		</g>
		<path class="st17" d="M239,214.7c3.3-10.2-4.2-11.4-4.2-11.4l-10.9,19.2C228.2,224.9,235.7,224.9,239,214.7z"/>
		<path class="st18" d="M221.7,218.4c-0.2,0-0.5-0.1-0.6-0.4c-2-3.5-0.1-7.6,0-7.7c0.2-0.3,0.6-0.5,0.9-0.3c0.3,0.2,0.5,0.6,0.3,0.9
			c0,0-1.6,3.6,0,6.5c0.2,0.3,0.1,0.8-0.3,1C222,218.4,221.9,218.4,221.7,218.4z"/>
		<path class="st18" d="M223.3,209c0,0.3-0.3,0.6-0.6,0.6l0,0c-0.3,0-0.6-0.3-0.6-0.6v0c0-0.3,0.3-0.6,0.6-0.6l0,0
			C223.1,208.4,223.3,208.7,223.3,209L223.3,209z"/>
		<path class="st19" d="M232.3,207.7c0,0,3.1,2.8,0.4,7.1c-2.7,4.2-6,2.9-6,2.9L232.3,207.7z"/>
		<path class="st20" d="M232.3,207.7c0,0-4-1.2-6.2,3.3c-2.2,4.5,0.6,6.6,0.6,6.6L232.3,207.7z"/>
		<path class="st21" d="M231.6,208.9c0,0-2.7-0.7-4.4,2.3c-1.7,3-0.3,4.8,0,5.5c0.8-0.1,3,0.2,4.7-2.8
			C233.6,210.8,231.6,208.9,231.6,208.9z"/>
	</g>
</g>
<g id="maslo">
</g>
<g id="isum">
	<g>
		<g>
			<path class="st22" d="M208.9,73.2c-2,1.4-4.9,1-6.1-1.3c-0.8-1.5-0.1-3.2,1-4.2c2.1-1.8,4.7,0.7,3.6,2.9c-0.8,1.5-3.2,0.7-2.8-1
				c0.4-0.9,1-0.9,1.8,0.1c0,0.7-1.3,0.4-0.8-0.2c0,0-0.4-0.2-0.4-0.1c-0.7,1,0.6,1.4,1.3,1.1c0.8-0.3,0.2-1.3-0.1-1.6
				c-0.2-0.2-0.7-0.3-1-0.3c-1.7,0-1.5,2.3-0.3,2.9c1.5,0.7,2.9-0.3,3.1-1.8c0.2-1.3-1.2-2.5-2.5-2.6c-1.9-0.2-3.4,1-3.7,2.9
				c-0.7,4,4.7,5.3,7.3,3.5C209.4,73.3,209,73.1,208.9,73.2z"/>
			<g>
				<path class="st23" d="M213.1,77.8c0,0-2.6-6.4,4.2-8.5c0,0,1.1-0.4,1.3,1.2c0,0,5.8-2.1,3.9,1.7c0,0-0.2,1.9-2.6,2.3
					c-2.4,0.4-1.5,1.5-0.2,1.2c1.3-0.4,3.7-2,4.5-1c0.8,1,1.6,0.4,1.6,0.4s0.6,0.2,0.7,1.1c0.1,1,6.8,1.6,3.1,3.6c0,0-3,0-2.8,1.4
					c0.2,1.4-2.8,2.7-5.8,0.6c-3-2.1-2.2,0.8,0.5,2c0,0,1.6,2.4,1,3.8c0,0-4.1,1.6-4.4-0.5c-0.4-2.1-1.6-0.4-1.3,0.7
					C217,89.1,210,85.8,213.1,77.8"/>
				<path class="st22" d="M202,77.1l4.8-0.8l3.1-4.2l-0.1-1.4c0,0,3.4,0.3,0.3,3.1c0,0-3.1,2.2-1.7,3.3c1.4,1.1,5.4,0.6,5.4,0.6
					l0.1,0.1l0.1,0.2c0,0-3.8,0.7-5.9-0.6c0,0,0.3,1.7,1.6,3c1.3,1.3,1.2,1.9,1.2,1.9l-0.6,0.2c0,0-0.5-1.7-1.6-2.2
					c-1.1-0.5-1.3-3.1-1.3-3.1l-2.4,3l-0.7-0.1l1.9-2.6l-3.8,0L202,77.1z"/>
				<circle class="st24" cx="200.6" cy="76.6" r="2.2"/>
				<circle class="st24" cx="202.7" cy="80.5" r="2.2"/>
				<circle class="st24" cx="206.1" cy="82.6" r="2.2"/>
				<circle class="st24" cx="210.1" cy="83.9" r="2.2"/>
				<circle class="st24" cx="198.2" cy="80.3" r="2.2"/>
				<circle class="st24" cx="201.4" cy="83.6" r="2.2"/>
				<circle class="st24" cx="204.5" cy="86.1" r="2.2"/>
				<circle class="st24" cx="197.3" cy="84.9" r="2.2"/>
				<circle class="st24" cx="190.9" cy="107.8" r="2.2"/>
				<circle class="st24" cx="191.3" cy="103.7" r="2.2"/>
				<circle class="st24" cx="194.5" cy="106.2" r="2.2"/>
				<circle class="st24" cx="198.5" cy="104" r="2.2"/>
				<circle class="st24" cx="192.7" cy="99.4" r="2.2"/>
				<circle class="st24" cx="195.5" cy="101.2" r="2.2"/>
				<circle class="st24" cx="199.1" cy="99.7" r="2.2"/>
				<circle class="st24" cx="195.1" cy="91.3" r="2.2"/>
				<circle class="st24" cx="197.6" cy="97.1" r="2.2"/>
				<circle class="st24" cx="203.5" cy="100.8" r="2.2"/>
				<circle class="st24" cx="201.8" cy="96.2" r="2.2"/>
				<circle class="st24" cx="198.9" cy="92.7" r="2.2"/>
				<circle class="st24" cx="194" cy="87.1" r="2.2"/>
				<circle class="st24" cx="198.2" cy="89.6" r="2.2"/>
				<circle class="st24" cx="202.5" cy="92.5" r="2.2"/>
				<circle class="st24" cx="201.8" cy="89.4" r="2.2"/>
				<circle class="st24" cx="198.4" cy="92.4" r="2.2"/>
				<circle class="st24" cx="198.8" cy="96.9" r="2.2"/>
				<circle class="st24" cx="194.7" cy="95.2" r="2.2"/>
				<circle class="st24" cx="194" cy="102.9" r="2.2"/>
				<circle class="st24" cx="199.3" cy="92.9" r="2.2"/>
				<circle class="st24" cx="200.1" cy="86.6" r="2.2"/>
				<circle class="st24" cx="203.2" cy="87.3" r="2.2"/>
				<circle class="st24" cx="209" cy="88.9" r="2.2"/>
				<circle class="st24" cx="205.5" cy="89.3" r="2.2"/>
				<circle class="st24" cx="206.3" cy="93.2" r="2.2"/>
				<circle class="st24" cx="206.8" cy="93.3" r="2.2"/>
				<circle class="st24" cx="210.2" cy="92" r="2.2"/>
				<circle class="st24" cx="205.5" cy="96.9" r="2.2"/>
				<circle class="st24" cx="207.5" cy="86.1" r="2.2"/>
				<circle class="st24" cx="212.9" cy="87.7" r="2.2"/>
			</g>
		</g>
		<circle class="st25" cx="200" cy="75.6" r="0.9"/>
		<circle class="st25" cx="193.4" cy="86.1" r="0.9"/>
		<circle class="st25" cx="190.5" cy="107" r="0.9"/>
		<circle class="st25" cx="201.2" cy="87.2" r="0.9"/>
		<circle class="st25" cx="197.6" cy="96.2" r="0.9"/>
	</g>
</g>
<g id="klukva">
</g>
<g id="blank">
</g>
<g id="ticks">
</g>
<g id="clock">
</g>
</svg>
