<?xml version="1.0" encoding="utf-8"?>
<!-- Generator: Adobe Illustrator 19.0.0, SVG Export Plug-In . SVG Version: 6.00 Build 0)  -->
<svg version="1.1" xmlns="http://www.w3.org/2000/svg" xmlns:xlink="http://www.w3.org/1999/xlink" x="0px" y="0px"
	 viewBox="0 0 414.7 291.2" style="enable-background:new 0 0 414.7 291.2;" xml:space="preserve">
<style type="text/css">
	.st0{fill:#519E38;}
	.st1{fill:#FFFFFF;}
	.st2{fill:#EFE43D;}
	.st3{fill:#FFF8C2;}
	.st4{fill:#FCAC2B;}
	.st5{fill:#E59725;}
	.st6{fill:#723322;}
	.st7{fill:#F4F4F4;}
	.st8{fill:#D6D6D6;}
	.st9{fill:#EAEAEA;}
	.st10{fill:#86D2E0;}
	.st11{fill:#F7E8DF;}
	.st12{fill:#FFF8F5;}
	.st13{fill:#FCE5B4;}
	.st14{fill:#3A1305;}
	.st15{fill:#EACC96;}
	.st16{fill:#D1AF79;}
</style>
<g id="Layer_2">
</g>
<g id="kolba_4">
</g>
<g id="kolba_3">
</g>
<g id="nut_2">
</g>
<g id="nut">
</g>
<g id="honey">
</g>
<g id="doma">
</g>
<g id="car">
</g>
<g id="butylka_3">
</g>
<g id="butylka_2">
</g>
<g id="tvorog">
</g>
<g id="butylka_1">
</g>
<g id="vanna_2">
</g>
<g id="sneg">
</g>
<g id="vigimka">
</g>
<g id="vanna_1">
</g>
<g id="zakvaska">
</g>
<g id="shariki_2">
</g>
<g id="shariki_1">
</g>
<g id="voronka">
</g>
<g id="gradusnik">
</g>
<g id="kolba_2">
</g>
<g id="kolba_1">
</g>
<g id="probirki">
</g>
<g id="lupa">
</g>
<g id="tvorog_1_">
	<g>
		<g>
			<circle class="st0" cx="264.8" cy="172.6" r="3.1"/>
			<path class="st0" d="M261.7,187.1c0-3.1-1.9-5.8-4.6-6.9c0.2-0.4,0.3-0.8,0.3-1.2c0-1.7-1.4-3.1-3.1-3.1c-1.7,0-3.1,1.4-3.1,3.1
				c0,0.4,0.1,0.9,0.3,1.2c-0.7,0.3-1.3,0.7-1.9,1.1c-2.7-3-6.7-4.9-11-4.9c0,0,0,0-0.1,0c-0.1-1.5-0.5-2.9-1-4.2
				c2.6-0.3,4.7-2.5,4.7-5.2c0-2.9-2.4-5.3-5.3-5.3c-2.6,0-4.7,1.9-5.2,4.3c-1.4-0.7-2.9-1.2-4.5-1.4c1-1,1.7-2.3,1.7-3.9
				c0-2.9-2.4-5.3-5.3-5.3c-2.2,0-4.1,1.4-4.9,3.3c-2.7-2.4-6.2-3.9-10.1-3.9c-5.7,0-10.7,3.2-13.2,7.9c-0.4-1.2-1.6-2-2.9-2
				c-1.7,0-3.1,1.4-3.1,3.1c0,0.8,0.3,1.5,0.8,2c-2.2,1.1-4,2.7-5.3,4.8c-0.5-3.5-3.5-6.1-7.1-6.1c-4,0-7.2,3.2-7.2,7.2
				c0,1.4,0.4,2.7,1.1,3.8c-0.4-0.1-0.9-0.1-1.4-0.1c-5,0-9.3,3.5-10.4,8.2c-1-0.6-2.2-0.9-3.5-0.9c-4.1,0-7.5,3.4-7.5,7.5
				c0,4.1,3.4,7.5,7.5,7.5c1.2,0,2.3-0.3,3.2-0.7c0,0.2,0,0.5,0,0.7c0,8.3,6.7,15,15,15c2.6,0,5.1-0.7,7.2-1.9
				c0.3,1.4,1.5,2.5,3.1,2.5c1.7,0,3.1-1.4,3.1-3.1c0-0.2,0-0.4-0.1-0.6c1.4,0.4,2.9,0.6,4.5,0.6c1.6,0,3.2-0.2,4.7-0.6
				c2.4,5.1,7.6,8.7,13.6,8.7c8.3,0,15-6.7,15-15c0-0.4,0-0.8-0.1-1.2c0.5-0.4,0.9-0.7,1.4-1.2c2.8,3.3,6.9,5.4,11.5,5.4
				c4.6,0,8.6-2,11.4-5.2c1,1.3,2.6,2.2,4.4,2.2c3.1,0,5.6-2.5,5.6-5.6c0-1.7-0.7-3.1-1.9-4.2C260.1,192.4,261.7,189.9,261.7,187.1z
				 M178.1,179.1c0,0-0.1-0.1-0.1-0.1c0.1,0,0.2,0,0.3,0C178.2,179,178.1,179.1,178.1,179.1z"/>
		</g>
		<circle class="st1" cx="163.3" cy="180.2" r="10.7"/>
		<circle class="st1" cx="170.8" cy="165.9" r="7.2"/>
		<circle class="st1" cx="216.6" cy="154.9" r="5.3"/>
		<circle class="st1" cx="229.9" cy="161.1" r="5.3"/>
		<circle class="st1" cx="247.4" cy="173" r="3.1"/>
		<circle class="st1" cx="258" cy="166.7" r="3.1"/>
		<circle class="st1" cx="177.9" cy="204.4" r="3.1"/>
		<circle class="st1" cx="247.4" cy="191.9" r="5.6"/>
		<circle class="st1" cx="185.5" cy="158" r="3.1"/>
		<circle class="st1" cx="149.4" cy="184.4" r="7.5"/>
		<circle class="st1" cx="247.4" cy="181.2" r="7.5"/>
		<circle class="st1" cx="188.8" cy="171.5" r="12.8"/>
		<circle class="st1" cx="218.8" cy="171.5" r="12.8"/>
		<circle class="st1" cx="201.6" cy="164" r="15"/>
		<circle class="st1" cx="209.6" cy="184.4" r="15"/>
		<circle class="st1" cx="203.8" cy="197.4" r="15"/>
		<circle class="st1" cx="185.5" cy="185.5" r="18.8"/>
		<circle class="st1" cx="167.6" cy="191.9" r="15"/>
		<circle class="st1" cx="231.6" cy="185.5" r="15"/>
	</g>
</g>
<g id="kuraga">
</g>
<g id="maslo">
	<g>
		<path class="st2" d="M251.7,130.5c-0.3,1.1-1.4,1.8-2.6,1.6l-14.8-3.7c-1.1-0.3-1.8-1.4-1.6-2.6l4-15.9c0.3-1.1,1.4-1.8,2.6-1.6
			l14.8,3.7c1.1,0.3,1.8,1.4,1.6,2.6L251.7,130.5z"/>
		<path class="st3" d="M239.7,115.2c-0.2,0.6-0.8,1-1.4,0.8l0,0c-0.6-0.2-1-0.8-0.8-1.4l0.7-3c0.2-0.6,0.8-1,1.4-0.8l0,0
			c0.6,0.2,1,0.8,0.8,1.4L239.7,115.2z"/>
		<path class="st3" d="M238.9,118.5c-0.2,0.6-0.8,1-1.4,0.8l-0.1,0c-0.6-0.2-1-0.8-0.8-1.4l0,0c0.1-0.6,0.8-1,1.4-0.8l0.1,0
			C238.7,117.3,239.1,117.9,238.9,118.5L238.9,118.5z"/>
	</g>
</g>
<g id="klukva">
	
		<rect x="165.7" y="65.7" transform="matrix(0.9982 -5.926137e-02 5.926137e-02 0.9982 -5.3592 11.3751)" class="st0" width="46.8" height="60.7"/>
	<g>
		<path class="st0" d="M144.5,151c1.4,6.2-2.6,12.4-8.8,13.8l-46.5,10.3c-6.2,1.4-12.4-2.6-13.8-8.8l-14.2-64.1
			C59.9,96,63.8,89.8,70,88.4l46.5-10.3c6.2-1.4,12.4,2.6,13.8,8.8L144.5,151z"/>
		<path class="st4" d="M140.9,148.7c1.4,6.2-2.6,12.4-8.8,13.8l-46.5,10.3c-6.2,1.4-12.4-2.6-13.8-8.8L57.6,99.9
			c-1.4-6.2,2.6-12.4,8.8-13.8l46.5-10.3c6.2-1.4,12.4,2.6,13.8,8.8L140.9,148.7z"/>
		<path class="st5" d="M113,75.8l-22.5,5l19.2,86.7l22.5-5c6.2-1.4,10.2-7.6,8.8-13.8l-14.2-64.1C125.5,78.3,119.3,74.4,113,75.8z"
			/>
		<g>
			<path class="st6" d="M84.2,137.3l1.9-0.4l2.4,3.5l0.7-4.2l1.8-0.4l0.1,0.7l-0.6,0.1l0.9,4.1l0.6-0.1l0.1,0.7l-2.1,0.5L90,141
				l0.6-0.1l-0.9-4.1l-0.9,5.2l-0.2,0l-3-4.4l0.9,4.1l0.6-0.1l0.1,0.7l-2,0.4l-0.1-0.7l0.6-0.1l-0.9-4.1l-0.6,0.1L84.2,137.3z"/>
			<path class="st6" d="M92.5,141.2l-0.1-0.7l0.6-0.1l0.5-4.4l-0.7,0.2l-0.1-0.7l2.7-0.6l0.1,0.7l-0.7,0.1l2.3,3.8l0.6-0.1l0.1,0.7
				l-2,0.5l-0.1-0.7l0.7-0.1l-0.7-1.2l-1.8,0.4l-0.1,1.3l0.6-0.1l0.1,0.7L92.5,141.2z M94,138.2l1.4-0.3l-1.1-1.9L94,138.2z"/>
			<path class="st6" d="M98.6,134.8l0.3,1.5l2.4-0.5l-0.3-1.5l-0.6,0.1l-0.1-0.7l2.1-0.5l0.1,0.7l-0.6,0.1l0.9,4.1l0.6-0.1l0.1,0.7
				l-2.1,0.5l-0.1-0.7l0.6-0.1l-0.4-1.9l-2.4,0.5l0.4,1.9l0.6-0.1l0.1,0.7l-2.1,0.5l-0.1-0.7l0.6-0.1l-0.9-4.1l-0.6,0.1l-0.1-0.7
				l2.1-0.5l0.1,0.7L98.6,134.8z"/>
			<path class="st6" d="M104.2,133.6l0.3,1.5l2.4-0.5l-0.3-1.5l-0.6,0.1l-0.1-0.7l2.1-0.5l0.1,0.7l-0.6,0.1l0.9,4.1l0.6-0.1l0.1,0.7
				L107,138l-0.1-0.7l0.6-0.1l-0.4-1.9l-2.4,0.5l0.4,1.9l0.6-0.1l0.1,0.7l-2.1,0.5l-0.1-0.7l0.6-0.1l-0.9-4.1l-0.6,0.1l-0.1-0.7
				l2.1-0.5l0.1,0.7L104.2,133.6z"/>
			<path class="st6" d="M109.4,137.4l-0.1-0.7l0.6-0.1l0.5-4.4l-0.7,0.2l-0.1-0.7l2.7-0.6l0.1,0.7l-0.7,0.1l2.3,3.8l0.6-0.1l0.1,0.7
				l-2,0.5l-0.1-0.7l0.7-0.1l-0.7-1.2l-1.8,0.4l-0.1,1.4l0.6-0.1l0.1,0.7L109.4,137.4z M110.8,134.4l1.4-0.3l-1.1-1.9L110.8,134.4z"
				/>
			<path class="st6" d="M117.6,133.3l-1,0.2l-0.6,2.5l-1.1,0.2l-0.1-0.7l0.6-0.1l0.4-1.9c-0.7-0.1-1.2-0.5-1.4-1.2
				c-0.1-0.5,0-0.9,0.2-1.3c0.3-0.4,0.7-0.6,1.3-0.8l2.3-0.5l0.1,0.7l-0.6,0.1l0.9,4.1l0.6-0.1l0.1,0.7l-2.1,0.5l-0.1-0.7l0.6-0.1
				L117.6,133.3z M117.5,132.6l-0.4-1.9l-0.8,0.2c-0.4,0.1-0.7,0.2-0.8,0.4c-0.2,0.2-0.2,0.4-0.1,0.7c0.1,0.3,0.2,0.5,0.4,0.7
				c0.2,0.1,0.5,0.2,0.9,0.1L117.5,132.6z"/>
			<path class="st6" d="M87.5,145.3l0.4,1.9l1.4-2.3l-0.6,0.1l-0.1-0.7l2-0.5l0.1,0.7l-0.6,0.1l-1.4,2.2l2.3,1.9l0.6-0.1l0.1,0.7
				l-2.1,0.5l-0.1-0.7l0.5-0.1l-2.3-1.8l0.5,2.2l0.6-0.1l0.1,0.7l-2.1,0.5l-0.1-0.7l0.6-0.1l-0.9-4.1l-0.6,0.1l-0.1-0.7l2.1-0.5
				l0.1,0.7L87.5,145.3z"/>
			<path class="st6" d="M93.2,146.8l0.3,1.4l0.6-0.1l0.1,0.7l-2.1,0.5l-0.1-0.7l0.6-0.1l-0.9-4.1l-0.6,0.1l-0.1-0.7l2.2-0.5
				c0.7-0.2,1.3-0.1,1.7,0c0.4,0.2,0.7,0.6,0.8,1.2c0.1,0.6,0.1,1-0.2,1.4c-0.3,0.3-0.8,0.6-1.5,0.8L93.2,146.8z M92.6,144.2l0.5,2
				l0.7-0.1c0.5-0.1,0.8-0.3,1-0.4c0.2-0.2,0.2-0.5,0.2-0.9c-0.1-0.4-0.3-0.6-0.5-0.7c-0.3-0.1-0.6-0.1-1.1,0L92.6,144.2z"/>
			<path class="st6" d="M98.2,147.3c0.2,0,0.3-0.1,0.4-0.2c0.1-0.1,0.2-0.2,0.2-0.4l0.1-0.2l-2.3-3.3l-0.7,0.1l-0.1-0.7l2.1-0.5
				L98,143l-0.6,0.1l1.7,2.5l0.6-3l-0.7,0.2l-0.1-0.7l2.1-0.5l0.1,0.7l-0.7,0.1l-0.9,4c-0.1,0.6-0.3,1-0.5,1.2
				c-0.2,0.2-0.4,0.3-0.7,0.4c-0.2,0-0.3,0-0.5,0l-0.2-0.7c0.1,0,0.1,0,0.2,0C98,147.3,98.1,147.3,98.2,147.3z"/>
			<path class="st6" d="M105.3,141.3l-2.4,0.5l0.9,4.1l0.6-0.1l0.1,0.7l-2.1,0.5l-0.1-0.7l0.6-0.1l-0.9-4.1l-0.6,0.1l-0.1-0.7
				l5.2-1.2l0.1,0.7l-0.6,0.1l0.9,4.1l0.6-0.1l0.1,0.7l-2.1,0.5l-0.1-0.7l0.6-0.1L105.3,141.3z"/>
			<path class="st6" d="M108.1,145.7l-0.1-0.7l0.6-0.1l0.5-4.4l-0.7,0.2l-0.1-0.7l2.7-0.6l0.1,0.7l-0.7,0.1l2.3,3.8l0.6-0.1l0.1,0.7
				l-2,0.5l-0.1-0.7l0.7-0.1l-0.7-1.2l-1.8,0.4l-0.1,1.4l0.6-0.1l0.1,0.7L108.1,145.7z M109.5,142.7l1.4-0.3l-1.1-1.9L109.5,142.7z"
				/>
		</g>
		<g>
			<path class="st6" d="M90.5,125.2c-3-1.9-5.1-4.9-5.9-8.4c-1.6-7.2,3-14.4,10.2-16.1c3.5-0.8,7.1-0.1,10.1,1.8
				c3,1.9,5.1,4.9,5.9,8.4c1.6,7.2-3,14.4-10.2,16.1C97.1,127.8,93.5,127.2,90.5,125.2z M104.7,103c-2.9-1.9-6.4-2.5-9.7-1.7
				c-7,1.5-11.4,8.5-9.8,15.4c0.7,3.4,2.8,6.2,5.7,8.1c2.9,1.9,6.4,2.5,9.7,1.7c7-1.5,11.4-8.5,9.8-15.4
				C109.6,107.7,107.6,104.9,104.7,103z"/>
			<path class="st6" d="M97.5,114c0,0-1.8-4.8-6.8-3.7C90.7,110.3,91.1,115.4,97.5,114z"/>
			<path class="st6" d="M96.8,111.5c0,0,2.8-4.3-1.1-7.6C95.8,103.9,91.9,107.2,96.8,111.5z"/>
			<path class="st6" d="M98.5,118.5c0,0-1.8-4.8-6.8-3.7C91.7,114.8,92.1,119.9,98.5,118.5z"/>
			<path class="st6" d="M99.5,123.2c0,0-1.8-4.8-6.8-3.7C92.7,119.5,93.1,124.6,99.5,123.2z"/>
			<path class="st6" d="M97.5,113.9c0,0-0.4-5.1,4.6-6.2C102.1,107.7,103.9,112.5,97.5,113.9z"/>
			<path class="st6" d="M98.5,118.5c0,0-0.4-5.1,4.6-6.2C103.1,112.3,104.9,117.1,98.5,118.5z"/>
			<path class="st6" d="M99.5,123.2c0,0-0.4-5.1,4.6-6.2C104.1,117,105.9,121.7,99.5,123.2z"/>
			
				<rect x="98.3" y="110.8" transform="matrix(0.9762 -0.217 0.217 0.9762 -23.4372 24.2204)" class="st6" width="0.5" height="16.1"/>
		</g>
	</g>
	<g>
		<path class="st0" d="M330,219.2c0,0,6.6-38.6,10.1-59.6c3.6-21-3.8-30.5-3.8-30.5c4.5-12.6-1-17.6-1-17.6l0.8-4.7l1.3,0.2
			c0,0,0.9-5,1.1-6.7c0.3-1.7-2.1-1.9-2.1-1.9L328,97l-0.8-0.1l-8.5-1.5c0,0-2.3-0.6-2.6,1.1c-0.3,1.7-1.1,6.7-1.1,6.7l1.4,0.2
			l-0.8,4.7l-0.1,0c0,0-6.9,2.9-6.8,16.2c0,0-10.1,6.5-13.7,27.5c-3.6,21-10.1,59.6-10.1,59.6s-3.1,12.7,6.4,14.3
			c2.5,0.4,4.7,0.8,6.5,1.1c4.8,0.8,7,1.2,7,1.2l0.4,0.1l0.5,0.1l0,0l7,1.2l0,0c1.8,0.3,3.9,0.7,6.4,1.1c0,0,0,0,0,0
			C328.7,232.2,330,219.2,330,219.2z"/>
		<path class="st7" d="M326,215.4c0,0,6.6-38.6,10.1-59.6c3.6-21-3.8-30.5-3.8-30.5c4.5-12.6-1-17.6-1-17.6l0.8-4.8l-19.8-3.4
			l-0.8,4.8l-0.1,0c0,0-6.9,2.9-6.8,16.2c0,0-10.1,6.5-13.7,27.5c-3.6,21-10.1,59.6-10.1,59.6s-3.1,12.7,6.4,14.3
			c2.5,0.4,4.7,0.8,6.5,1.1c4.8,0.8,7,1.2,7,1.2l1,0.2l7,1.2c1.8,0.3,3.9,0.7,6.5,1.1C324.7,228.4,326,215.4,326,215.4z"/>
		<path class="st8" d="M332.5,94.7l-8.5-1.5l-0.8-0.1l-8.5-1.5c0,0-2.3-0.6-2.6,1.1c-0.3,1.7-1.1,6.7-1.1,6.7l10.9,1.8l0.8,0.1
			l10.9,1.8c0,0,0.9-5,1.1-6.7C334.9,94.9,332.5,94.7,332.5,94.7z"/>
		<path class="st9" d="M326,215.4c0,0,6.6-38.6,10.1-59.6c3.6-21-3.8-30.5-3.8-30.5c4.5-12.6-1-17.6-1-17.6l0.8-4.8l-9.9-1.7
			l-21,123.1l0.5,0.1l7,1.2c1.8,0.3,3.9,0.7,6.5,1.1C324.7,228.4,326,215.4,326,215.4z"/>
		<circle class="st10" cx="309.7" cy="175.7" r="17.2"/>
		<path class="st1" d="M322.2,177.7c-1.3-0.7-2.3,0.9-2.8,1.9c0,0,0,0,0,0.1l0,0c-0.4,1-0.9,1.4-0.9,1.4c-0.3-0.2-0.1-0.6-0.1-0.9
			c0.1-0.4,0.2-0.9,0-1.4c-0.1-0.4-0.5-0.5-0.8-0.6c0-0.1,0.1-0.1,0.1-0.2c0-0.1,0.1-0.1,0.1-0.2c0.2-0.3,0.5-0.6,0.8-0.8
			c0,0,0,0,0,0c0,0,0,0,0,0c0.1,0.1,0.3,0.3,0.3,0.4c0.3,0.4,1.5,0,1.3-0.4c-0.4-0.6-0.9-0.8-1.4-0.8c-0.3,0-0.7,0.1-1,0.3
			c-0.1,0-0.1,0.1-0.2,0.1c0.1-0.6,0.3-1.2,0.3-1.8c0-0.3-0.7-0.3-1.1,0c-0.1,0-0.1,0.1-0.2,0.2c0,0,0,0,0,0l0,0
			c-0.2,0.4-1,0.5-1.5-0.2l0,0c-0.1-0.2-0.3-0.3-0.5-0.3c-1.4-0.4-2.2,1.2-2.5,2.2v0c-0.2,0.7-0.8,1.6-1.2,1.7
			c-0.1-0.1-0.1-0.2-0.1-0.3c-0.1-0.4-0.1-0.8-0.1-1.1c0.1-1,0.2-2.1,0.4-3.1c0-0.2-0.1-0.3-0.4-0.3c-0.4,0-0.7,0.2-0.9,0.5
			c-0.6,0.8-1,1.8-1.3,2.8c-0.1,0.3-0.2,0.5-0.2,0.8c0,0.1-0.1,0.2-0.1,0.3c-0.2,0-0.4-0.3-0.3-0.5c0.1-0.4-0.4-0.3-0.8,0
			c0.3-0.5,0.4-1,0.5-1.6c0.2-0.9,0.2-2.8-1.1-2.9c-1.3-0.1-2,1.5-2.2,2.6c-0.2,1-0.4,1.9-0.5,2c-0.6,0-0.8-0.7-0.9-1.1
			c-0.2-0.7-0.2-1.5-0.1-2.3c0.1-1.3,0.2-2.6,0.5-3.8c0-0.2-0.2-0.3-0.4-0.2c-0.3,0.1-0.6,0.3-0.8,0.5c-0.6,0.8-0.8,1.9-1.1,2.8
			c0,0,0,0,0,0c0-0.1,0-0.2,0-0.3c0-0.8,0-1.6,0.1-2.4c0-0.5,0.1-1.1,0.2-1.5c0.2-0.6-0.8-0.2-1,0.1c-1.2,1.6-1.3,3.7-1.5,5.7
			c-0.1,0.5-0.2,1-0.3,1.5c-0.1,0.3-0.3,1-0.6,1.2c-0.2,0.2-0.5,0-0.7-0.2c-0.2-0.2-0.3-0.5-0.3-0.8c0-0.3-0.3-0.2-0.5-0.1
			c-0.3,0.2-0.5,0.5-0.5,0.8c0,0.7,0.5,1.4,1.3,1.3c1.2-0.2,2-1.5,2.4-2.5c0.3-0.6,0.4-1.2,0.5-1.9c0,1.2,0.1,2.4,0.1,3.6
			c0,0.6,1.1-0.3,1.1-0.6c0.1-0.8,0.3-1.7,0.5-2.5c0,1-0.2,3.4,1.4,3.4c0.6,0,1-0.4,1.3-0.9c0.1,0.5,0.4,0.9,1,1
			c0.5,0.1,1-0.3,1.4-0.7c0,0.4,0.2,0.7,0.7,0.9c0.6,0.1,1.2-0.1,1.6-0.5c0.2-0.2,0.3-0.4,0.4-0.6c0,0.1,0,0.2,0,0.3
			c0,0.3,0.1,0.8,0.3,1.1c0.3,0.3,0.8,0.2,1.1,0.1c0.4-0.2,0.7-0.5,1-0.8c0,0.7,0.2,1.4,0.8,1.6c0.6,0.2,1.3-0.2,1.7-0.6
			c0.5-0.5,0.7-1.1,0.9-1.7c0.1-0.4,0.3-1,0.2-1.7c0.5,0.1,0.8,0,1.1-0.2c-0.4,1.6-0.9,3.2-1.4,4.8c-0.1,0.3,0.2,0.4,0.4,0.3
			c0.3,0,0.6-0.2,0.8-0.4c0.2-0.5,0.4-0.9,0.7-1.4c0.5,0.8-0.2,1.7,0.1,2.4c0.2,0.4,0.9,0.5,1.3,0.3c0.2-0.1,0.3-0.1,0.4-0.2
			c0,0.5,0.1,1,0.6,1.3c0.5,0.3,1.3,0,1.7-0.3c0.5-0.4,0.9-0.9,1.1-1.5C322.8,180.1,323.4,178.3,322.2,177.7z M306.4,177.3
			c0,0.1-0.1,0.2-0.2,0.3c-0.2-0.1-0.4-0.5-0.4-0.7c-0.1-0.4-0.1-0.9-0.1-1.4c0-0.5,0.1-1,0.3-1.4c0-0.1,0.1-0.2,0.2-0.3
			c0.6,0.2,0.5,1.6,0.5,2C306.6,176.3,306.5,176.8,306.4,177.3z M313.7,178.8c-0.1,0.1-0.1,0.2-0.2,0.3c-0.2-0.1-0.3-0.5-0.3-0.7
			c-0.1-0.5,0-0.9,0.1-1.4c0.1-0.5,0.3-0.9,0.5-1.3c0.1-0.1,0.1-0.2,0.2-0.3c0.5,0.6,0.3,1.4,0.2,2.1
			C314.1,177.9,314,178.4,313.7,178.8z M320.7,181.9c-0.1,0.1-0.2,0.2-0.2,0.3c-0.2-0.2-0.2-0.6-0.2-0.8c0-0.5,0.1-1,0.3-1.4
			c0.2-0.4,0.4-0.9,0.7-1.3c0.1-0.1,0.2-0.2,0.2-0.3c0.3,0.7,0.1,1.5-0.1,2.2C321.1,181,320.9,181.5,320.7,181.9z"/>
		<path class="st1" d="M299.6,142.4c-0.1,0-0.2,0-0.3-0.1c-1.3-0.4-2.1-1.8-1.7-3.2c2.6-8.4,7.6-12.9,7.9-13.1
			c1-0.9,2.6-0.8,3.6,0.2c0.9,1,0.8,2.6-0.2,3.6c-0.1,0.1-4.2,3.9-6.4,10.8C302,141.9,300.8,142.7,299.6,142.4z"/>
	</g>
	<g>
		<path class="st0" d="M89.6,187.3c-10.8-9.6-16.6-6.8-18-6c-1.4,0.8-6.6,4.5-3.5,18.6c3.1,14.1,13.6,19.6,22.8,14.2
			C100.1,208.7,100.4,196.9,89.6,187.3z"/>
		<path class="st11" d="M86.6,185.7c-10.8-9.6-16.6-6.8-18-6c-1.4,0.8-6.6,4.5-3.5,18.6c3.1,14.1,13.6,19.6,22.8,14.2
			C97.1,207.1,97.5,195.3,86.6,185.7z"/>
		<path class="st12" d="M72.1,198c0.3,1.1-0.3,2.2-1.4,2.5l0,0c-1.1,0.3-2.2-0.3-2.5-1.4l-1.5-5.3c-0.3-1.1,0.3-2.2,1.4-2.5l0,0
			c1.1-0.3,2.2,0.3,2.5,1.4L72.1,198z"/>
	</g>
	
		<rect x="161.5" y="62" transform="matrix(0.9982 -5.926187e-02 5.926187e-02 0.9982 -5.1449 11.1188)" class="st13" width="46.8" height="60.7"/>
	<g>
		<path class="st6" d="M170.5,114.3c0.7,0.2,1.1,0.6,1.2,1.3c0,0.5-0.1,0.9-0.4,1.1s-0.7,0.4-1.3,0.5l-2.2,0.1l0-0.6l0.6,0l-0.2-4
			l-0.6,0l0-0.7l2.1-0.1c1.1-0.1,1.7,0.4,1.7,1.2C171.2,113.7,171,114.1,170.5,114.3z M168.8,112.6l0.1,1.6l0.6,0c0.7,0,1-0.3,1-0.8
			c0-0.3-0.1-0.4-0.3-0.6c-0.2-0.1-0.4-0.2-0.8-0.2L168.8,112.6z M168.9,114.8l0.1,1.8l0.7,0c0.4,0,0.6-0.1,0.8-0.3
			c0.2-0.2,0.3-0.4,0.3-0.7c0-0.3-0.1-0.5-0.4-0.6c-0.2-0.1-0.5-0.2-1-0.2L168.9,114.8z"/>
		<path class="st6" d="M172.1,117.1l0-0.6l0.6,0l1.2-4.1l-0.7,0l0-0.7l2.6-0.2l0,0.7l-0.6,0l1.6,3.9l0.6,0l0,0.6l-2,0.1l0-0.6l0.6,0
			l-0.5-1.2l-1.8,0.1l-0.3,1.2l0.6,0l0,0.6L172.1,117.1z M173.9,114.4l1.3-0.1l-0.8-1.9L173.9,114.4z"/>
		<path class="st6" d="M178.8,112l0.1,1.5l2.3-0.1l-0.1-1.5l-0.6,0l0-0.7l2-0.1l0,0.7l-0.6,0l0.2,4l0.6,0l0,0.6l-2,0.1l0-0.6l0.6,0
			l-0.1-1.9l-2.3,0.1l0.1,1.9l0.6,0l0,0.6l-2,0.1l0-0.6l0.6,0l-0.2-4l-0.6,0l0-0.7l2-0.1l0,0.7L178.8,112z"/>
		<path class="st6" d="M184.2,111.7l0.2,3.5l2-4.3l1.4-0.1l0,0.7l-0.6,0l0.2,4l0.6,0l0,0.6l-2,0.1l0-0.6l0.6,0l-0.2-3.5l-2,4.2
			l-1.5,0.1l0-0.6l0.6,0l-0.2-4l-0.6,0l0-0.7l2-0.1l0,0.7L184.2,111.7z"/>
		<path class="st6" d="M191.9,111.2l-1.9,0.1l0.1,1.9c0.1,1,0,1.7-0.2,2.2c-0.2,0.5-0.5,0.7-1,0.7c-0.2,0-0.4,0-0.5,0l0-0.7
			c0,0,0.1,0,0.2,0c0.1,0,0.2,0,0.2,0c0.2,0,0.4-0.2,0.5-0.5c0.1-0.4,0.2-1,0.1-1.8l-0.1-1.8l-0.6,0l0-0.7l4.6-0.3l0,0.7l-0.6,0
			l0.2,4l0.6,0l0,0.6l-2,0.1l0-0.6l0.6,0L191.9,111.2z"/>
		<path class="st6" d="M195,111.1l0.2,3.5l2-4.3l1.4-0.1l0,0.7l-0.6,0l0.2,4l0.6,0l0,0.6l-2,0.1l0-0.6l0.6,0l-0.2-3.5l-2,4.2
			l-1.5,0.1l0-0.6l0.6,0l-0.2-4l-0.6,0l0-0.7l2-0.1l0,0.7L195,111.1z"/>
		<path class="st6" d="M200.4,110.7l0.1,1.5l2.3-0.1l-0.1-1.5l-0.6,0l0-0.7l2-0.1l0,0.7l-0.6,0l0.2,4l0.6,0l0,0.6l-2,0.1l0-0.6
			l0.6,0l-0.1-1.9l-2.3,0.1l0.1,1.9l0.6,0l0,0.6l-2,0.1l0-0.6l0.6,0l-0.2-4l-0.6,0l0-0.7l2-0.1l0,0.7L200.4,110.7z"/>
	</g>
	<g>
		<path class="st14" d="M170.8,105.4c0,0-1.3,0.9-1,1.7c0.3,0.7,1.4,0,1.7-0.8c0.3-0.8,3.1-3.5,3.6-3.9c0.5-0.3,6.9-9.3,6.9-9.3
			s11.6-16.8,12-19.4c0.4-2.6,2.1-5.5,2.1-5.5l-0.7-0.1c0,0-2.6,5.4-5.4,9.8c-2.8,4.3-15.2,22.4-17.4,24.8
			C170.3,105.1,170.8,105.4,170.8,105.4z"/>
		<path class="st14" d="M176.4,105.8c0,0,1.1,0.9-0.5,1.4c-1.6,0.6-2.6-1.4-1.8-3.3c0.8-1.8,2.9-4,3.7-5.3c0.7-1.3,0.9-1.8,1.9-3.9
			c1-2,4.1-7.3,4.1-7.3l8.8-12.9c0,0,2.9-1.5,3.7-2.9c0.8-1.4,1.7-3.4-0.5-2.5c-2.2,0.9,1.6-2.4,2.3-0.2c0.7,2.2-2.8,5.2-4.8,7
			c-2,1.8-6.3,9.9-6.3,9.9l-1.1,2.5c0,0-4.7,6.3-5,7.5c-0.3,1.2-3.7,7-5.6,8.6C173.4,106.1,175.9,106.2,176.4,105.8z"/>
		<path class="st15" d="M182.3,86.2c-0.4-0.3-3.6-2.8-3.6-2.8s-2-6.4-0.3-7.8c0,0,3-0.7,5.9,4.2l0.3,6.6l-0.6-0.3
			c0,0-1.7-6.9-4.4-9.1c0,0,5,7.8,3.9,9.4L182.3,86.2z"/>
		<path class="st15" d="M189.1,89c0,0,6.9-1.1,9.1-4.2c0,0-5-4.5-10.4-2l-1.8,3.3c0,0,4.5-2.3,10.4-1.5c0,0-7.5-0.7-10.7,2.6
			L189.1,89z"/>
		<path class="st15" d="M173.8,96.4c0,0-0.3-5.6,3.6-8.1l5-0.2l0.8,0.1c0,0-4.5,1.3-7.6,5.6c0,0,4.6-4.3,7.8-5.4l0.7,1.8
			C184.1,90.2,183.7,93.7,173.8,96.4z"/>
		<path class="st15" d="M182.4,88.4c0,0-8.8,0.6-11.1-2.1c0,0,4.3-6.9,12.6-0.3l-1,0.8c0,0-5.4-1.7-8.5-1.1c0,0,6.6,0.1,8.2,1.6
			L182.4,88.4z"/>
		<path class="st15" d="M183.5,84.6c0,0-2.7-5.5,6.4-9.3c0,0,0.2,0-0.3,3.8c-0.5,3.8-3.9,8.8-3.9,8.8l-0.8-1.2l-0.2-1
			c0,0-0.6-5,3.8-8.2c0,0-3.8,1.8-4.2,8L183.5,84.6z"/>
		<path class="st15" d="M182.7,89.3c0,0-2.8,0.8,1.8,5.1c4.6,4.3,4,3.7,4,3.7s0.8,2.8,1.3-1.1c0.5-3.9,0.5-8.9-3.3-10l-1.6,1.3
			c0,0,4.1,2.9,3.9,8.3c0,0-0.9-6.7-4.1-7.5L182.7,89.3z"/>
		<path d="M182.9,85.7c0,0,0.1,0.8,0,1.1c-0.1,0.3-1,1-1,1s1.7,0.5,1.5,1.9c0,0,1-0.9,1.9-0.2c0,0-0.6-1.3,1.1-2.2
			c0,0-2.1-1.6-1.5-2.2C184.9,85.2,183.9,86.1,182.9,85.7z"/>
		<path d="M184.8,90.7c0.1,0.1,0.1,0.2,0,0.3c-0.1,0.1-0.2,0.1-0.3,0c-0.1-0.1-0.1-0.2,0-0.3C184.5,90.6,184.7,90.6,184.8,90.7z"/>
		<circle cx="185.2" cy="90.6" r="0.2"/>
		<circle cx="186.3" cy="88.8" r="0.2"/>
		<path class="st16" d="M174.3,85.7c0,0,4.3-3.4,8.5,0l0,1.1C182.8,86.8,177.2,85.3,174.3,85.7z"/>
		<path class="st16" d="M184.9,84.7c0,0,0-4.8,3.7-6.9c0,0,0.9,5.2-2.6,8.8C186,86.6,184.9,86.3,184.9,84.7z"/>
		<path class="st16" d="M186.8,86.9c0,0,4-3,10.9-1.7c0,0-6.5,3.8-9.1,3.3C188.7,88.5,188.3,87.5,186.8,86.9z"/>
		<path class="st1" d="M184.2,88.3c0,0,0.7,1,0.4,2.5c0,0,0.1-1.6-0.5-2.3C183.5,87.8,184.2,88.3,184.2,88.3z"/>
		<path class="st1" d="M184.4,88.2c0,0,0.8,0.9,0.8,2.4c0,0-0.1-1.6-0.9-2.2C183.5,87.8,184.4,88.2,184.4,88.2z"/>
		<path class="st1" d="M184.4,87.7c0,0,1,0,1.9,1.1c0,0-1.1-1.1-1.8-0.9C183.7,88,184.4,87.7,184.4,87.7z"/>
	</g>
	<g>
		<g>
			<path class="st1" d="M246.4,84.9v0.5h0.8v0.9h-2.7v-0.9h0.8v-0.5h-0.5c-0.8,0-1.5-0.2-1.9-0.6c-0.4-0.4-0.7-0.9-0.7-1.6
				c0-0.7,0.2-1.3,0.6-1.7c0.4-0.4,1.1-0.6,1.9-0.6h0.5V80h-0.8v-0.9h2.7V80h-0.8v0.4h0.5c0.8,0,1.5,0.2,1.9,0.6
				c0.4,0.4,0.6,0.9,0.6,1.7c0,0.7-0.2,1.2-0.7,1.6c-0.4,0.4-1.1,0.6-1.9,0.6H246.4z M245.4,84.1v-2.8h-0.5c-0.5,0-0.8,0.1-1.1,0.4
				c-0.3,0.2-0.4,0.6-0.4,1.1c0,0.5,0.1,0.8,0.4,1c0.3,0.2,0.6,0.3,1.1,0.3H245.4z M246.4,81.3v2.8h0.5c0.5,0,0.9-0.1,1.1-0.3
				c0.3-0.2,0.4-0.6,0.4-1.1c0-0.5-0.1-0.8-0.4-1.1c-0.3-0.2-0.6-0.4-1.1-0.4H246.4z"/>
			<path class="st1" d="M251.5,82c0.3-0.2,0.5-0.4,0.7-0.5c0.3-0.1,0.6-0.2,0.9-0.2c0.7,0,1.2,0.2,1.7,0.7c0.4,0.5,0.7,1.1,0.7,1.9
				c0,0.8-0.2,1.4-0.7,1.9c-0.4,0.5-1,0.7-1.7,0.7c-0.6,0-1.2-0.3-1.7-0.8v1.4h0.7v0.9h-2.3v-0.9h0.7v-5h-0.7v-0.8h1.6V82z
				 M253,85.5c0.4,0,0.8-0.2,1.1-0.5c0.3-0.3,0.4-0.7,0.4-1.2c0-0.5-0.1-1-0.4-1.3c-0.3-0.3-0.6-0.5-1.1-0.5c-0.5,0-0.8,0.2-1.1,0.4
				c-0.3,0.3-0.4,0.7-0.4,1.3c0,0.5,0.1,1,0.4,1.3C252.1,85.4,252.5,85.5,253,85.5z"/>
			<path class="st1" d="M256.6,87.9v-0.8h1.2l0.4-1l-1.6-4H256v-0.8h2.1v0.8h-0.6l1.1,2.8l1.1-2.8h-0.6v-0.8h2v0.8h-0.6l-2.2,5.8
				H256.6z"/>
			<path class="st1" d="M263.1,82.1v3.3h0.7v0.9h-2.3v-0.9h0.7v-3.3h-0.7v-0.8h2.3v0.8H263.1z M265,82.1h-0.6v-0.8h2.2v0.8h-0.6
				l-1.8,1.5l1.7,1.8h0.7v0.9h-1.2l-2.4-2.6L265,82.1z"/>
			<path class="st1" d="M267.1,81.3h4.6v2.1h-0.8v-1.3h-1v3.3h0.7v0.9h-2.3v-0.9h0.7v-3.3h-1v1.3h-0.8V81.3z"/>
			<path class="st1" d="M277.2,83.8c0,0.8-0.2,1.4-0.7,1.9c-0.5,0.5-1.1,0.7-1.8,0.7c-0.7,0-1.4-0.2-1.8-0.7
				c-0.5-0.5-0.7-1.1-0.7-1.9c0-0.8,0.2-1.4,0.7-1.9c0.5-0.5,1.1-0.7,1.8-0.7c0.7,0,1.4,0.2,1.8,0.7C277,82.3,277.2,83,277.2,83.8z
				 M274.7,85.5c0.4,0,0.8-0.2,1.1-0.5c0.3-0.3,0.4-0.7,0.4-1.2c0-0.5-0.1-1-0.4-1.3c-0.3-0.3-0.6-0.5-1.1-0.5
				c-0.5,0-0.8,0.2-1.1,0.4c-0.3,0.3-0.4,0.7-0.4,1.3c0,0.5,0.1,1,0.4,1.3C273.9,85.3,274.3,85.5,274.7,85.5z"/>
			<path class="st1" d="M279.3,84.1v-0.8h0.4c0.7,0,1-0.2,1-0.7c0-0.2-0.1-0.4-0.2-0.5c-0.2-0.1-0.4-0.2-0.7-0.2
				c-0.3,0-0.5,0.1-0.7,0.3c-0.2,0.2-0.3,0.4-0.4,0.7H278v-1.7h0.8v0.4c0.1-0.2,0.3-0.3,0.5-0.4c0.2-0.1,0.5-0.2,0.7-0.2
				c0.4,0,0.8,0.1,1.1,0.4c0.4,0.3,0.6,0.6,0.6,1c0,0.3-0.1,0.6-0.3,0.8c-0.2,0.2-0.4,0.3-0.7,0.4c0.3,0.1,0.6,0.2,0.8,0.4
				c0.2,0.2,0.4,0.5,0.4,0.8c0,0.5-0.2,0.9-0.6,1.2c-0.4,0.2-0.8,0.4-1.4,0.4c-0.5,0-1-0.1-1.3-0.3c-0.4-0.2-0.6-0.6-0.8-1.1
				l0.8-0.4c0.1,0.3,0.2,0.5,0.4,0.7c0.2,0.2,0.5,0.3,0.8,0.3c0.3,0,0.6-0.1,0.8-0.2c0.2-0.1,0.3-0.3,0.3-0.5c0-0.3-0.1-0.4-0.3-0.6
				c-0.2-0.1-0.5-0.2-0.8-0.2H279.3z"/>
			<path class="st1" d="M285.7,86.3v-0.5c-0.5,0.4-1,0.6-1.6,0.6c-0.5,0-0.9-0.1-1.2-0.4c-0.3-0.3-0.5-0.7-0.5-1.2
				c0-0.5,0.2-0.9,0.5-1.2c0.3-0.3,0.8-0.5,1.3-0.5c0.4,0,0.8,0.1,1.4,0.4v-0.3c0-0.9-0.4-1.3-1.1-1.3c-0.3,0-0.5,0-0.7,0.1
				c-0.2,0.1-0.4,0.3-0.5,0.5l-0.9-0.2c0.3-0.8,1.1-1.2,2.2-1.2c0.7,0,1.2,0.2,1.5,0.5c0.3,0.3,0.4,0.8,0.4,1.6v2.2h0.7v0.9H285.7z
				 M285.7,84.9v-0.4c-0.2-0.1-0.5-0.2-0.7-0.3c-0.2-0.1-0.4-0.1-0.6-0.1c-0.3,0-0.5,0.1-0.7,0.2c-0.2,0.1-0.3,0.3-0.3,0.5
				c0,0.2,0.1,0.4,0.2,0.5c0.1,0.1,0.3,0.2,0.6,0.2C284.7,85.5,285.1,85.3,285.7,84.9z"/>
		</g>
		<circle class="st1" cx="254.5" cy="56.7" r="1.9"/>
		<circle class="st1" cx="253.9" cy="65.8" r="1.9"/>
		<circle class="st1" cx="258.3" cy="61.1" r="1.9"/>
		<circle class="st1" cx="260.2" cy="67.6" r="1.9"/>
		<circle class="st1" cx="263.6" cy="60.1" r="1.9"/>
		<circle class="st1" cx="263.6" cy="52" r="1.9"/>
		<circle class="st1" cx="258.3" cy="40.3" r="1.9"/>
		<circle class="st1" cx="274.4" cy="65.8" r="1.9"/>
		<circle class="st1" cx="274.4" cy="40.3" r="1.9"/>
		<circle class="st1" cx="248" cy="53" r="1.9"/>
	</g>
</g>
<g id="blank">
</g>
<g id="ticks">
</g>
<g id="clock">
</g>
</svg>
