<?xml version="1.0" encoding="utf-8"?>
<!-- Generator: Adobe Illustrator 19.0.0, SVG Export Plug-In . SVG Version: 6.00 Build 0)  -->
<svg version="1.1" xmlns="http://www.w3.org/2000/svg" xmlns:xlink="http://www.w3.org/1999/xlink" x="0px" y="0px"
	 viewBox="90 23 309 206" style="enable-background:new 90 23 309 206;" xml:space="preserve">
<style type="text/css">
	.st0{fill:#EFEFEF;}
	.st1{fill:#DDDDDD;}
	.st2{fill:#FFFFFF;}
	.st3{fill:#FCFCFC;}
	.st4{fill:#80CDC7;}
	.st5{fill:#62B947;}
	.st6{fill:#63B946;}
	.st7{fill:#636363;}
	.st8{fill:#1669B3;}
	.st9{fill:#EDEDED;}
	.st10{fill:none;stroke:#636363;stroke-width:0.75;}
	.st11{fill:#1E1E1E;}
</style>
<g id="Layer_1">
	<g id="Layer_2">
	</g>
	<g id="kolba_4">
	</g>
	<g id="kolba_3">
	</g>
	<g id="kolby">
		<g>
			<g>
				<path class="st0" d="M339.4,130.2h-29.5h-12H187.6h-11.9h-29.6l12.7,47.1l0,0c1.2,4.7,8.3,8.2,16.9,8.2h134.1
					c9.2,0,16.7-4.1,17.1-9.2L339.4,130.2z"/>
				<path class="st1" d="M309.8,130.2h-12h-55.1v55.4h67.1c9.2,0,16.7-4.1,17.1-9.2l12.5-46.1h-29.6V130.2z"/>
				<path class="st2" d="M171.3,158c0.8,2.6-0.6,5.4-3.2,6.2l0,0c-2.6,0.8-5.4-0.6-6.2-3.2l-3.9-12.7c-0.8-2.6,0.6-5.4,3.2-6.2l0,0
					c2.6-0.8,5.4,0.6,6.2,3.2L171.3,158z"/>
				<path class="st2" d="M158.2,96.8"/>
				<g>
					<polygon class="st0" points="339.2,123.5 144.7,123.5 161.6,93 321.2,93 					"/>
					<path class="st3" d="M321.2,93l18,30.4H144.7L161.6,93H321.2 M321.2,84.5H161.6c-3.1,0-6,1.7-7.5,4.4l-16.9,30.4
						c-1.5,2.7-1.4,5.9,0.1,8.5c1.5,2.6,4.4,4.2,7.4,4.2h194.5c3.1,0,5.9-1.7,7.5-4.3c1.5-2.7,1.5-6-0.1-8.6l-18-30.4
						C327,86.1,324.2,84.5,321.2,84.5L321.2,84.5z"/>
				</g>
			</g>
			<path class="st4" d="M311,185.3c0-5.6-4.6-10.2-10.2-10.2c-5.6,0-10.2,4.6-10.2,10.2c0,0.1,0,0.2,0,0.3H311
				C311,185.5,311,185.4,311,185.3z"/>
			<circle class="st4" cx="181" cy="145" r="6.5"/>
			<path class="st4" d="M296.9,142.5c4.2,0,7.6-3.4,7.6-7.6c0-1-0.2-2-0.6-2.8h-14c-0.4,0.9-0.6,1.8-0.6,2.8
				C289.3,139.1,292.7,142.5,296.9,142.5z"/>
			<g>
				<path class="st4" d="M247.1,144.6c-0.3,1.4-1.5,2.5-3,2.5c-1.6,0-3-1.3-3-2.9c-8.4,0.9-14.9,7.9-14.9,16.6
					c0,1.7,0.3,3.3,0.7,4.8c0.1,0,0.1,0,0.2,0c1.6,0,3,1.3,3,3c0,0.7-0.3,1.4-0.7,1.9c2.8,3.8,7.1,6.4,12.1,6.8c1.3,0.2,4,0,5.5-0.4
					c4-1,7.5-3.5,9.7-6.9c-0.2-0.4-0.3-0.8-0.3-1.3c0-1.4,1-2.5,2.3-2.8c0.5-1.6,0.8-3.4,0.8-5.2
					C259.5,152.9,254.2,146.5,247.1,144.6z M229.6,156.1c-0.9,0-1.6-0.7-1.6-1.6c0-0.9,0.7-1.6,1.6-1.6c0.9,0,1.6,0.7,1.6,1.6
					C231.1,155.4,230.4,156.1,229.6,156.1z M255.9,161.8c-1.1,0-1.9-0.9-1.9-1.9c0-1.1,0.9-1.9,1.9-1.9c1.1,0,1.9,0.9,1.9,1.9
					C257.8,160.9,257,161.8,255.9,161.8z"/>
				<path class="st4" d="M234.9,140.3c0,1.2-1,2.1-2.1,2.1c-1.2,0-2.1-1-2.1-2.1c0-1.2,1-2.1,2.1-2.1
					C234,138.1,234.9,139.1,234.9,140.3L234.9,140.3z"/>
				<path class="st5" d="M235,147.5c0,1.5-1.2,2.7-2.7,2.7s-2.7-1.2-2.7-2.7s1.2-2.7,2.7-2.7C233.8,144.7,235,146,235,147.5
					L235,147.5z"/>
				<path class="st5" d="M227.7,143.2c0,0.9-0.7,1.6-1.6,1.6c-0.9,0-1.6-0.7-1.6-1.6s0.7-1.6,1.6-1.6S227.7,142.3,227.7,143.2
					L227.7,143.2z"/>
				<g>
					<circle class="st5" cx="257.1" cy="145.5" r="9.2"/>
					<g>
						<path class="st2" d="M254.9,144.2c-0.8,0.1-1,1-1,1.6l0,0l0,0c0,0.1,0,0.2,0,0.3c0,0.3,0,0.5,0,0.8c0,0.1-0.1,0.4-0.1,0.4
							c-0.3,0-0.5-0.4-0.6-0.6c-0.2-0.5-0.3-1-0.4-1.5c-0.1-0.5-0.1-1.1-0.2-1.6c0-0.2,0-0.4,0-0.7c0-0.1,0-0.2,0-0.3s0-0.2,0-0.2
							c0.1-0.4-0.5,0-0.6,0.2c-0.6,1.1-0.4,2.3-0.4,3.5c0,0.3,0,0.6-0.1,1c0,0.2-0.1,0.6-0.3,0.8c-0.1,0.1-0.3,0-0.4,0
							c-0.1-0.1-0.2-0.2-0.3-0.4c0-0.2-0.2-0.1-0.3,0c-0.1,0.1-0.3,0.4-0.2,0.5c0.1,0.4,0.4,0.8,0.9,0.7c0.7-0.2,1-1,1.1-1.7
							c0.1-0.3,0.1-0.6,0.1-0.9c0.1,0.5,0.2,0.9,0.4,1.3c0.2,0.3,0.4,0.6,0.8,0.5c0.3-0.1,0.5-0.4,0.6-0.7c0.1,0.3,0.3,0.5,0.7,0.5
							s0.7-0.4,0.8-0.7c0.2-0.4,0.2-0.8,0.2-1.2C255.8,145.2,255.7,144.1,254.9,144.2z M255.1,146.8c0,0.1,0,0.2-0.1,0.2
							s-0.3-0.2-0.3-0.3c-0.1-0.3-0.2-0.5-0.2-0.8s0-0.6,0-0.9c0-0.1,0-0.1,0.1-0.2c0.4,0.2,0.5,0.7,0.5,1.1
							C255.2,146.2,255.2,146.6,255.1,146.8z"/>
						<path class="st2" d="M264,145.3c-0.8-0.3-1.3,0.8-1.4,1.4c-0.1,0.6-0.3,1.6,0.4,1.9c0.3,0.1,0.8-0.1,1-0.3
							c0.3-0.3,0.4-0.6,0.5-1C264.6,146.6,264.8,145.5,264,145.3z M263.5,147.9c0,0.1-0.1,0.1-0.1,0.2c-0.1-0.1-0.2-0.3-0.2-0.5
							c0-0.3,0-0.6,0-0.9c0.1-0.3,0.1-0.6,0.3-0.8c0-0.1,0.1-0.1,0.1-0.2c0.3,0.4,0.2,0.9,0.1,1.3
							C263.7,147.4,263.7,147.7,263.5,147.9z"/>
						<path class="st2" d="M261.8,145.4c0.2-0.2,0.3-0.4,0.4-0.6c0.3-0.5,0.6-1,0.6-1.6c0-0.5-0.7-0.6-1.1-0.4
							c-0.5,0.3-0.8,0.8-1,1.4c-0.2,0.7-0.3,1.4-0.3,2.2l0,0c-0.3,0.3-0.8,1-1.2,0.7c-0.1-0.1-0.2-0.2-0.2-0.3
							c0.3-0.4,0.6-0.7,0.9-1.1c0.2-0.4,0.4-1-0.1-1.3c-0.4-0.2-0.9,0-1.2,0.4c-0.3,0.3-0.4,0.8-0.4,1.2c0,0.2,0,0.6,0,1
							c-0.2,0.1-0.5,0.2-0.8,0.2c-0.3-0.1-0.4-0.4-0.5-0.7c-0.1-0.4-0.1-0.8,0-1.2c0-0.1,0-0.2,0.1-0.4v-0.1
							c0.2,0.1,0.3,0.4,0.3,0.5c0.1,0.3,0.8-0.2,0.7-0.4c-0.1-0.3-0.2-0.5-0.5-0.7c-0.3-0.1-0.7,0.1-0.9,0.3
							c-0.5,0.5-0.6,1.2-0.5,1.9c0,0.4,0.1,1,0.5,1.2c0.5,0.3,1.2,0,1.7-0.3c0.1,0.3,0.4,0.5,0.8,0.5c0.5-0.1,0.9-0.3,1.3-0.7
							c0,0.4,0.1,0.8,0.4,0.9c0.4,0.2,1,0,1.3-0.4c0.4-0.5,0.6-1.1,0.4-1.7C262.3,145.5,262,145.4,261.8,145.4z M259,145.1
							c0-0.1,0.1-0.2,0.1-0.3l0,0c0.2,0.1,0.2,0.3,0.2,0.5c0,0.3-0.2,0.6-0.5,0.9c0-0.1,0-0.1,0-0.2
							C258.9,145.7,258.9,145.4,259,145.1z M261.7,143.6c0.1-0.1,0.1-0.2,0.2-0.3l0,0c0.3,0.4,0,0.9-0.2,1.2c-0.2,0.3-0.4,0.7-0.6,1
							c0-0.3,0.1-0.6,0.2-0.9C261.4,144.2,261.5,143.9,261.7,143.6z M261.5,147.3l-0.1,0.1c0,0,0,0-0.1,0c-0.2-0.1-0.2-0.6-0.2-0.7
							c0-0.2,0-0.3,0-0.5c0.1-0.1,0.2-0.2,0.3-0.3c0.2-0.1,0.3,0.1,0.4,0.3C261.8,146.6,261.6,147.1,261.5,147.3z"/>
					</g>
				</g>
				<g>
					<g>
						<path class="st2" d="M250.5,158.5c0.3-0.8,0.4-1.8-0.2-2.5c-0.4-0.4-1-0.4-1.4-0.4c0-0.3,0.1-0.7,0.1-1s-0.6-0.2-0.7-0.2
							c-0.3,0.1-0.6,0.3-0.6,0.5c0,1.3-0.2,2.5-0.5,3.7c-0.3,0.1-0.5,0.3-0.8,0.4c-0.2,0.1-0.3,0.2-0.5,0.1
							c-0.3-0.1-0.3-0.6-0.3-0.9c-0.1-1.1,0-2.3,0.7-3.3c0.1-0.2-0.1-0.4-0.4-0.4c-0.4,0-0.8,0.3-0.9,0.5c-0.6,1.3-0.6,2.6-0.5,4.1
							c0,0.5,0.2,0.8,0.7,0.9c0.7,0.1,1.4-0.3,1.9-0.6c0,0.1,0,0.2-0.1,0.3c-0.3,1.2-0.6,2.3-0.9,3.5c-0.1,0.3,0.2,0.3,0.3,0.2
							c0.2-0.1,0.4-0.2,0.5-0.5c0.3-0.8,0.6-1.6,0.8-2.4c0.3,0.1,0.7,0.1,1.1,0C249.6,160.2,250.2,159.4,250.5,158.5z M248.9,156.3
							C249,156.3,249,156.3,248.9,156.3L248.9,156.3z M248.5,160L248.5,160L248.5,160z M248.5,159.9
							C248.5,159.9,248.4,160,248.5,159.9C248.4,160,248.4,160,248.5,159.9c-0.5-0.1-0.5-0.5-0.4-0.8V159c0.2-0.7,0.4-1.4,0.5-2l0,0
							c0.1-0.2,0.1-0.4,0.3-0.6l0,0l0,0c0.1,0,0.2,0.2,0.3,0.4c0.2,0.5,0.1,1.2,0,1.7C249.1,158.9,248.9,159.5,248.5,159.9z"/>
						<path class="st2" d="M242.9,155.7h-0.1c0,0,0,0-0.1,0c-0.3,0-0.6,0.1-0.8,0.3c0-0.5-0.1-0.9-0.2-1.4c0-0.2-0.5-0.1-0.6,0
							c-0.3,0.2-0.6,0.5-0.7,0.7c-0.1,0.6-0.2,1.1-0.3,1.7c-0.1,0.5-0.2,0.9-0.3,1.4c0,0.2-0.1,0.4-0.2,0.6c0,0.1-0.1,0.1-0.1,0.2
							c-0.2,0.3-0.6,0.3-0.9,0.2c-0.4-0.1-0.7-0.3-0.9-0.6c-0.7-0.7-1-1.7-1.2-2.6c-0.1-0.5-0.1-1,0-1.5c0-0.2,0.1-0.4,0.1-0.6
							c0-0.1,0.1-0.2,0.1-0.2s0-0.1,0.1-0.1l0,0l0,0l0,0l0,0c0,0,0,0,0.1-0.1c0,0,0.3-0.1,0.5-0.1c0.8-0.1,1.2,0.5,1.4,1
							c0.2,0.4,1.4-0.6,1.2-1c-0.3-0.8-1.1-1.4-1.9-1.2c-0.7,0.1-1.3,0.4-1.8,1c-0.9,1.1-1.1,2.6-0.9,3.9c0.3,1.2,0.9,2.4,2,3.1
							c0.4,0.3,0.9,0.4,1.3,0.3c1-0.2,1.6-1.3,2-2.2v-0.1c0,0,0,0,0-0.1c0.1,0.9,0.7,1.8,1.6,1.8c1,0,1.6-1.3,1.7-2.2
							C244.3,156.9,243.9,155.8,242.9,155.7z M243.1,158.8c0,0.1,0,0.1-0.1,0.2h-0.1c-0.5,0-0.8-0.8-0.9-1.2v-0.1l0,0
							c0-0.1,0-0.1,0-0.2c0-0.2,0-0.3,0.1-0.5c0-0.1,0.1-0.1,0.1-0.2c0,0,0,0,0.1,0c0.7,0,0.8,0.8,0.9,1.2
							C243.2,158.2,243.2,158.5,243.1,158.8z"/>
					</g>
				</g>
				<g>
					<path class="st2" d="M254.7,165.1C254.7,165,254.7,165,254.7,165.1c-0.1,0-0.1-0.1-0.1-0.1c-0.9-0.3-1.4,0.7-1.7,1.3
						c-0.1,0.1-0.1,0.3-0.2,0.6c-0.2,0.1-0.3,0.3-0.5,0.4l0,0l0,0l0,0c0-0.1,0-0.3,0-0.4c0.1-0.4,0.2-0.8,0.3-1.2
						c0.1-0.2,0.2-0.5,0.3-0.7c0.1-0.1,0.1-0.2,0.2-0.3c0.1-0.1,0-0.3-0.1-0.3c-0.2,0-0.4,0.1-0.5,0.2c-0.1,0.1-0.2,0.3-0.2,0.4
						c-0.1,0.2-0.2,0.3-0.4,0.5c-0.1,0.1-0.2,0.1-0.4,0.2l0,0c0.1-0.6,0.2-1.1,0.4-1.7c0.1-0.4-0.7-0.1-0.7,0.1
						c-0.1,0.6-0.2,1.2-0.4,1.8c-0.2,0.2-0.4,0.3-0.5,0.5c0,0,0,0-0.1,0l0,0l0,0l0,0c0-0.1,0-0.1,0-0.2c0-0.4,0.1-0.9,0.1-1.3
						c0-0.2,0.1-0.4,0.1-0.7c0.1-0.2,0.2-0.5,0.2-0.7c0.1-0.2-0.2-0.2-0.3-0.2c-0.2,0-0.4,0.2-0.4,0.3c-0.1,0.2-0.1,0.4-0.2,0.6
						c-0.2,0.5-0.3,1-0.6,1.4c0,0.1-0.1,0.1-0.1,0.2c-0.1,0.1-0.1,0.1-0.1,0.1l0,0h-0.1c-0.1,0-0.1-0.4,0-0.9v-0.1v-0.1
						c0.1-0.6,0.3-1.1,0.4-1.7c0.1-0.4-0.7,0-0.8,0.2c-0.1,0.6-0.2,1.2-0.4,1.8l0,0c-0.1,0.3-0.2,0.5-0.6,0.5
						c-0.3,0-0.4-0.1-0.4-0.4c0-0.3,0-0.6-0.1-0.9c-0.1-0.2-0.4-0.3-0.6-0.2V164v-0.1c0.1-0.2,0.2-0.4,0.3-0.5l0.1-0.1l0,0l0,0l0,0
						c0.1,0,0.2,0.1,0.3,0.2c0.3,0.2,1-0.3,0.7-0.5c-0.3-0.3-0.7-0.3-0.9-0.2s-0.4,0.2-0.6,0.4l-0.1,0.1c0-0.4,0-0.7-0.1-1.1
						c-0.1-0.3-0.8,0.2-0.7,0.4c0.1,0.7,0.1,1.5,0,2.3c0,0,0,0,0,0.1c-0.1,0.3-0.2,0.6-0.5,0.6s-0.3,0-0.4-0.3c0-0.3,0-0.7-0.2-1
						c-0.1-0.2-0.4-0.2-0.6-0.2V164v-0.1c0.1-0.2,0.1-0.4,0.2-0.5l0.1-0.1l0,0l0,0l0,0c0.1,0,0.2,0.1,0.2,0.1
						c0.2,0.2,0.8-0.4,0.6-0.5c-0.3-0.2-0.6-0.2-0.9-0.1c-0.2,0.1-0.4,0.2-0.5,0.4c0,0,0,0.1-0.1,0.1c0-0.4-0.1-0.7-0.2-1.1
						c-0.1-0.3-0.7,0.2-0.7,0.5c0.2,0.8,0.2,1.5,0.2,2.4c-0.1,0.2-0.2,0.4-0.3,0.5s-0.1,0.2-0.2,0.2l0,0c-0.1,0,0,0-0.1,0
						c-0.2-0.1-0.2-0.5-0.2-0.7c-0.1-0.6-0.1-1.1-0.1-1.7l0,0c0-0.4-0.4-0.6-0.8-0.5c0,0-0.1,0-0.2,0c-0.2,0.1-0.3,0.2-0.4,0.4
						c-0.1,0.1-0.2,0.2-0.2,0.3c-0.3,0.1-0.9,0-1.2-0.2l0,0c-0.1-0.1-0.2-0.1-0.3-0.2c-0.3-0.1-0.6,0.1-0.9,0.3
						c-0.1-0.2-0.1-0.4-0.2-0.6c-0.1-0.2-0.4,0-0.4,0.1c-0.1,0.1-0.3,0.3-0.2,0.5c0.3,0.8,0.4,1.6,0.6,2.4c-0.1,0.2-0.2,0.6-0.4,0.6
						h-0.1c0,0,0,0-0.1-0.1c-0.2-0.3-0.2-0.8-0.3-1.2s-0.2-0.8-0.4-1.2c-0.1-0.2-0.3-0.5-0.6-0.3c-0.2,0.1-0.4,0.4-0.5,0.7
						c-0.1-0.2-0.2-0.3-0.3-0.4c-0.2-0.1-0.4,0.1-0.5,0.2c-0.1,0.1-0.1,0.2-0.2,0.4c0-0.1-0.1-0.2-0.1-0.3c-0.1-0.3-0.6,0.3-0.5,0.6
						c0.1,0.2,0.1,0.4,0.2,0.6c0,0.6,0,1.2-0.2,1.8c-0.1,0.3-0.2,0.4-0.5,0.4c-0.7,0-1-0.8-1.3-1.4c-0.3-0.7-0.5-1.5-0.3-2.2
						c0-0.1,0-0.1,0-0.1s0,0,0-0.1l0,0h0.1c0,0,0.1,0,0.1-0.1c0.6-0.2,0.8,0.2,1.1,0.6c0.1,0.2,0.6-0.4,0.5-0.7
						c-0.2-0.4-0.6-0.9-1.2-0.7c-0.4,0.1-0.7,0.4-1,0.7c-0.5,0.8-0.4,1.7-0.2,2.6c0.2,0.8,0.6,1.6,1.3,2.1c0.3,0.2,0.6,0.2,0.9,0.1
						c0.4-0.2,0.7-0.8,0.8-1.2c0.1-0.2,0.1-0.3,0.1-0.5c0.1,0.4,0.2,0.7,0.3,1c0.1,0.4,0.5-0.3,0.5-0.5c-0.2-0.7-0.3-1.5-0.3-2.2
						c0-0.1,0-0.1,0-0.2l0,0c0.3,0.4,0.4,0.8,0.5,1.2c0.1,0.2,0.1,0.4,0.1,0.6c0.1,0.3,0.1,0.5,0.2,0.8c0.1,0.4,0.5-0.3,0.5-0.5
						s-0.1-0.4-0.1-0.6c-0.1-0.3-0.1-0.6-0.1-1c0-0.3,0-0.6,0-0.9c0.1,0.1,0.1,0.2,0.1,0.3c0.2,0.4,0.3,0.8,0.4,1.2
						c0.1,0.4,0.2,1.3,0.7,1.2c0.3-0.1,0.6-0.3,0.8-0.7c0,0.1,0,0.1,0,0.2c0.1,0.8,0.3,1.7,0.3,2.5c0,0.2,0.2,0.1,0.3,0
						s0.3-0.3,0.2-0.5c0-0.6-0.1-1.3-0.2-1.9c0.2,0,0.5-0.2,0.7-0.4c0.4-0.5,0.5-1.2,0.4-1.8c0-0.1,0-0.2-0.1-0.3h0.1
						c0.1,0,0.3,0,0.4-0.1c-0.1,0.6-0.1,1.2,0.1,1.7c0.1,0.2,0.2,0.5,0.5,0.6s0.7-0.2,0.9-0.4l0,0c0,0.1,0.1,0.3,0.2,0.3
						c0.2,0.1,0.4,0,0.6-0.1c0.2-0.1,0.3-0.3,0.5-0.5c0,0.1,0,0.3,0,0.4c0,0.4,0.6-0.1,0.6-0.4c0-0.3,0.1-0.6,0.1-1
						c0.2,0.1,0.2,0.4,0.3,0.6c0,0.3,0,0.7,0.3,0.8s0.7,0,1-0.2c0.1,0,0.1-0.1,0.2-0.1c0,0.1,0,0.2,0,0.3c0,0.4,0.6-0.1,0.7-0.3
						c0.1-0.3,0.1-0.6,0.2-0.9c0.2,0.1,0.2,0.4,0.2,0.6c0,0.3,0,0.7,0.3,0.8c0.3,0.2,0.8,0.1,1.1-0.1c0.1,0,0.2-0.1,0.2-0.1
						c0,0.3,0.1,0.5,0.4,0.5c0.4,0,0.8-0.2,1-0.5c0,0.2,0,0.5,0.1,0.6l0.1,0.1l0,0l0,0c0.1,0.1,0.2,0,0.4,0s0.4-0.2,0.6-0.3
						c0,0.1-0.1,0.2-0.1,0.4c-0.1,0.2,0.1,0.2,0.2,0.2c0.2,0,0.4-0.2,0.4-0.3c0.1-0.3,0.2-0.6,0.4-0.8c0.1-0.1,0.2-0.1,0.4-0.2l0,0
						l0,0c-0.1,0.5-0.3,1-0.3,1.5c0,0.1,0.2,0.3,0.2,0.3h0.1c0.1,0,0.1,0,0.2,0c0.3,0,0.5-0.1,0.8-0.2c0,0.3,0.1,0.6,0.4,0.7
						c0.4,0.2,0.8-0.1,1.1-0.3c0.3-0.3,0.5-0.6,0.7-1C255.1,166.4,255.4,165.5,254.7,165.1z M231.5,163.7L231.5,163.7L231.5,163.7
						L231.5,163.7z M238,163.7C238,163.6,238,163.6,238,163.7L238,163.7z M238.7,166L238.7,166L238.7,166z M238.7,165.9
						C238.7,165.9,238.7,166,238.7,165.9C238.7,166,238.7,166,238.7,165.9c-0.3,0.1-0.5-0.1-0.5-0.3c0,0,0,0,0-0.1
						c-0.1-0.5-0.2-0.9-0.2-1.4l0,0c0-0.1,0-0.3,0-0.4l0,0l0,0c0.1,0,0.2,0,0.3,0.1c0.3,0.2,0.4,0.7,0.5,1
						C238.8,165.1,238.8,165.6,238.7,165.9z M240.9,165.7h-0.1c-0.1,0-0.2-0.3-0.3-0.4c-0.2-0.4-0.2-1-0.1-1.5c0-0.1,0-0.2,0.1-0.3
						s0.1-0.1,0.2-0.2c0,0,0,0,0.1,0c0.2,0,0.3,0.1,0.3,0.2c0,0.6,0.1,1.3,0,1.9C241,165.6,240.9,165.7,240.9,165.7z M252.2,167.3
						L252.2,167.3L252.2,167.3L252.2,167.3z M253.5,167.9L253.5,167.9L253.5,167.9z M253.7,167.6c0,0.1-0.1,0.1-0.2,0.2
						c-0.1-0.1-0.1-0.4-0.1-0.5c0-0.3,0.1-0.6,0.2-0.9c0.1-0.3,0.2-0.6,0.4-0.8c0-0.1,0.1-0.1,0.1-0.2c0.3,0.2,0,1.1,0,1.3
						C254,167.1,253.9,167.4,253.7,167.6z"/>
				</g>
				<g>
					<circle class="st5" cx="229.6" cy="175.5" r="5.3"/>
					<path class="st2" d="M226.1,175.2c0.2-0.2,0.3-0.5,0.5-0.7c0.1-0.1,0.2-0.2,0.2-0.3c0.1-0.1,0.1-0.1,0,0c0,0.2,0,0.3,0,0.5
						c0,0.9,0,1.8-0.1,2.8c0,0.3,0.6-0.1,0.6-0.3c0.1-0.6,0.1-1.2,0.1-1.8c0-0.3,0.2-1.7-0.1-1.7c-0.6-0.2-1.3,1.2-1.6,1.6
						C225.4,175.4,225.9,175.4,226.1,175.2L226.1,175.2z"/>
					<path class="st2" d="M229,175.2c-0.2-0.1-0.9-0.7-0.4-1c0.2-0.1,0.4-0.1,0.6,0c0.5,0.1,0.1,0.5-0.1,0.7c-0.1,0.1-0.9,0.7-0.6,1
						c0.4,0.3,1.2,0,1.2,0.6c0,0.5-0.7,0.5-1,0.3c-0.4-0.3-0.4-0.7,0.1-1c0.2-0.1,0.5-0.7,0-0.5c-0.5,0.3-1,0.7-1,1.4
						c0,0.4,0.4,0.8,0.8,0.9c0.6,0.1,1.2-0.3,1.5-0.8s0.3-1.1-0.3-1.2c-0.2,0-0.6-0.2-0.7,0c0.2-0.3,0.5-0.4,0.7-0.7
						c0.4-0.5,0.2-1.1-0.4-1.2c-0.6-0.1-1.1,0.3-1.4,0.8c-0.4,0.6,0,1.1,0.6,1.4C228.8,175.9,229.3,175.3,229,175.2L229,175.2z"/>
					<g>
						<path class="st2" d="M233,173.9c-0.7,1.1-1.5,2.2-2.3,3.2c-0.3,0.5,0.2,0.4,0.4,0.1c0.8-1.1,1.7-2.2,2.4-3.4
							C233.8,173.4,233.2,173.7,233,173.9L233,173.9z"/>
						<path class="st2" d="M231.8,173.6c-0.4,0-0.7,0.4-0.8,0.8c-0.1,0.4,0.1,0.7,0.5,0.7C232.3,175.1,232.7,173.6,231.8,173.6
							c-0.2,0-0.5,0.4-0.2,0.4c0.2,0,0.3,0.2,0.3,0.4c0,0.1,0,0.2,0,0.2c0,0.1,0,0,0,0h-0.1c-0.2,0-0.3-0.2-0.3-0.3s0-0.2,0-0.2l0,0
							h0.1C231.7,174,232,173.6,231.8,173.6z"/>
						<path class="st2" d="M232.9,176c-0.4,0-0.7,0.4-0.8,0.8c-0.1,0.4,0.1,0.7,0.5,0.7C233.5,177.5,233.8,176,232.9,176
							c-0.2,0-0.5,0.4-0.2,0.4c0.2,0,0.3,0.2,0.3,0.4c0,0.1,0,0.2,0,0.2c0,0.1,0,0,0,0h-0.1c-0.2,0-0.3-0.2-0.3-0.3s0-0.2,0-0.2l0,0
							h0.1C232.9,176.4,233.2,176,232.9,176z"/>
					</g>
				</g>
				<g>
					<path class="st6" d="M222.6,153.7c-0.1,0-0.2-0.2-0.2-0.2c-0.4-0.1-0.6,0.1-1,0.1c-0.8,0-1.1,0-2-0.3c0-0.8,0.5-1.3,0.7-2
						c0.2-0.6-0.1-1.2-0.1-1.9c0-0.4,0-0.8,0-1.2c-0.3,0.3-0.1,1-0.2,1.4c-0.1-0.5-0.1-1.1-0.3-1.6c-0.1,0.5,0,1.1,0,1.6
						c-0.1-0.4-0.2-1-0.3-1.4c-0.2,0.4,0.1,1.1,0.1,1.5c-0.2-0.4-0.3-0.9-0.5-1.2c-0.1,0.5,0.2,1,0.2,1.3c-0.2-0.3-0.2-0.7-0.5-0.9
						c0,0.3,0.2,0.8,0.3,1.1c-0.2-0.1-0.3-0.4-0.5-0.5c0,0.3,0.2,0.4,0.3,0.6c-0.2-0.1-0.2-0.3-0.4-0.3c0,0.3,0.2,0.3,0.3,0.5
						c-0.1-0.1-0.2-0.2-0.3-0.2c0,0.2,0.3,0.3,0.2,0.4c0,0-0.2-0.1-0.2,0c0,0,0.2,0.1,0.1,0.1c-0.1,0-0.1,0-0.2,0
						c0,0.1,0.1,0.1,0.1,0.2h-0.1c0,0.1,0.1,0.1,0.1,0.2c-0.7,0.7-0.3,1.5-0.4,2.3c0-0.1-0.6-0.2-1-0.4c-0.3-0.1-0.3-0.4-0.5-0.5
						c0,0,0.1,0,0.1-0.1c-0.1,0-0.2-0.1-0.2-0.1c0.1,0,0.3,0,0.3,0c-0.1-0.1-0.4-0.1-0.4-0.3c0.2,0,0.3,0.1,0.5,0.1
						c-0.2-0.1-0.5-0.3-0.5-0.4c0.2,0.1,0.4,0.2,0.6,0.1c-0.3-0.1-0.7-0.4-0.8-0.6c0.2,0.1,0.5,0.4,0.7,0.3c-0.4-0.1-0.6-0.5-1-0.5
						c0.2,0.3,0.7,0.5,0.8,0.7c-0.2-0.2-0.5-0.3-0.8-0.4c0.1,0.3,0.5,0.4,0.7,0.6c-0.2,0-0.4-0.1-0.7-0.1c0.1,0.3,0.5,0.2,0.6,0.4
						c-0.1-0.1-0.3,0-0.4,0c0,0.2,0.3,0.1,0.4,0.2c-0.1,0-0.3,0-0.3,0.1c0.1,0.1,0.3,0.1,0.3,0.1c-0.1,0-0.2,0-0.2,0.1
						s0.2,0,0.2,0.1c0,0-0.1,0-0.1,0.1c0.1,0,0.1,0,0.2,0c0,0-0.1,0-0.1,0.1c0.4,0.2,0.6,0.8,1.1,1c-0.3,0.2,0.3,0.4-2.9,1.5
						c0.1,0,1.4-0.3,1.8-0.5c0.4-0.1,0.8-0.3,1.2-0.4c0.1,0,0.2-0.1,0.3-0.1c0.7-0.1,1.3,0.1,1.9-0.4c-0.5,0.1-1.3,0.2-1.7-0.1
						c0.4-0.7,0.1-2.4,0.5-2.8c0.4-0.3,0.9-1.5,1.6-0.5c0.1,0.2,0.1,0.4-0.1,0.8c-0.3,0.5-0.5,0.7-0.4,1.8c0,0.2,0,0.4-0.3,0.4
						c1.4,0.3,1.8,0.1,2.6,0C222.1,153.6,222.5,153.4,222.6,153.7c-0.1,0-0.4,0-0.6,0c-0.4,0,0.2,0.1,0.4,0.1c0.1,0,0.8-0.1,1.2-0.2
						C223,153.8,222.8,153.8,222.6,153.7z"/>
					<path class="st6" d="M218.5,146.5c-3.2,0-5.8,2.6-5.8,5.8s2.6,5.8,5.8,5.8c3.2,0,5.8-2.6,5.8-5.8S221.7,146.5,218.5,146.5
						 M218.5,146.7c3.1,0,5.6,2.5,5.6,5.6s-2.5,5.6-5.6,5.6s-5.6-2.5-5.6-5.6S215.4,146.7,218.5,146.7"/>
				</g>
			</g>
			<g>
				<path class="st4" d="M246.7,98.7c-0.3,1-1.6,1.7-3.2,1.7c-1.8,0-3.2-0.9-3.2-2c-9,0.6-16,5.4-16,11.3c0,1.2,0.3,2.3,0.8,3.3
					c0.1,0,0.1,0,0.2,0c1.8,0,3.2,0.9,3.2,2c0,0.5-0.3,1-0.8,1.3c3,2.6,7.7,4.4,13,4.7c1.4,0.1,4.3,0,5.9-0.3
					c4.3-0.7,8-2.4,10.4-4.7c-0.2-0.3-0.3-0.6-0.3-0.9c0-0.9,1.1-1.7,2.4-1.9c0.6-1.1,0.9-2.3,0.9-3.6
					C259.9,104.5,254.3,100,246.7,98.7z M227.8,106.6c-0.9,0-1.7-0.5-1.7-1.1s0.8-1.1,1.7-1.1s1.7,0.5,1.7,1.1
					C229.5,106.2,228.7,106.6,227.8,106.6z M256.1,110.5c-1.1,0-2.1-0.6-2.1-1.3c0-0.7,0.9-1.3,2.1-1.3c1.1,0,2.1,0.6,2.1,1.3
					S257.2,110.5,256.1,110.5z"/>
				<path class="st4" d="M233.6,95.8c0,0.8-1,1.5-2.3,1.5s-2.3-0.7-2.3-1.5s1-1.5,2.3-1.5S233.6,95,233.6,95.8L233.6,95.8z"/>
				<path class="st5" d="M233.7,100.7c0,1-1.3,1.9-2.9,1.9c-1.6,0-3-0.8-3-1.9c0-1,1.3-1.9,3-1.9C232.4,98.8,233.7,99.7,233.7,100.7
					L233.7,100.7z"/>
				<path class="st5" d="M225.8,97.8c0,0.6-0.8,1.1-1.7,1.1c-1,0-1.8-0.5-1.8-1.1s0.8-1.1,1.8-1.1C225,96.7,225.8,97.2,225.8,97.8
					L225.8,97.8z"/>
				<g>
					<ellipse class="st5" cx="257.4" cy="99.4" rx="9.9" ry="6.3"/>
					<g>
						<path class="st2" d="M255,98.5c-0.8,0.1-1,0.7-1.1,1.1l0,0l0,0c0,0.1,0,0.1,0,0.2c0,0.2,0,0.4-0.1,0.6c0,0.1-0.1,0.2-0.1,0.2
							c-0.3,0-0.5-0.3-0.6-0.4c-0.2-0.3-0.3-0.7-0.4-1c-0.1-0.4-0.2-0.7-0.2-1.1c0-0.2,0-0.3,0-0.5c0-0.1,0-0.1,0-0.2v-0.1
							c0.1-0.3-0.5,0-0.7,0.1c-0.7,0.7-0.5,1.6-0.4,2.4c0,0.2,0,0.4-0.1,0.7c0,0.1-0.1,0.4-0.3,0.5c-0.1,0.1-0.3,0-0.4,0
							c-0.2-0.1-0.3-0.2-0.3-0.3c0-0.1-0.2-0.1-0.3,0s-0.3,0.3-0.3,0.4c0.1,0.3,0.5,0.5,0.9,0.4c0.7-0.1,1.1-0.7,1.2-1.1
							c0.1-0.2,0.1-0.4,0.2-0.6c0.1,0.3,0.3,0.6,0.5,0.9c0.2,0.2,0.5,0.4,0.9,0.4c0.3,0,0.5-0.2,0.7-0.5c0.1,0.2,0.4,0.4,0.7,0.3
							c0.4,0,0.8-0.3,0.9-0.5c0.2-0.3,0.2-0.5,0.2-0.8C256,99.2,255.8,98.4,255,98.5z M255.2,100.3c0,0.1,0,0.1-0.1,0.2
							c-0.2,0-0.3-0.2-0.3-0.2c-0.1-0.2-0.2-0.4-0.2-0.6s0-0.4,0-0.6c0,0,0-0.1,0.1-0.1c0.4,0.2,0.5,0.5,0.5,0.8
							C255.3,99.9,255.3,100.1,255.2,100.3z"/>
						<path class="st2" d="M264.8,99.2c-0.9-0.2-1.4,0.6-1.5,1c-0.2,0.4-0.3,1.1,0.4,1.3c0.4,0.1,0.8-0.1,1-0.2
							c0.3-0.2,0.4-0.4,0.5-0.7C265.5,100.1,265.6,99.4,264.8,99.2z M264.3,101L264.3,101c-0.2,0-0.3-0.1-0.3-0.2c0-0.2,0-0.4,0-0.6
							c0.1-0.2,0.1-0.4,0.3-0.6l0.1-0.1c0.3,0.2,0.2,0.6,0.2,0.9C264.5,100.6,264.4,100.8,264.3,101z"/>
						<path class="st2" d="M262.4,99.3c0.2-0.1,0.3-0.3,0.5-0.4c0.3-0.3,0.6-0.7,0.6-1.1s-0.8-0.4-1.2-0.3c-0.6,0.2-0.9,0.6-1.1,0.9
							c-0.2,0.5-0.3,1-0.4,1.5l0,0c-0.3,0.2-0.9,0.7-1.3,0.5c-0.1,0-0.2-0.1-0.2-0.2c0.4-0.2,0.7-0.5,1-0.8c0.3-0.3,0.4-0.7-0.1-0.9
							c-0.4-0.2-1,0-1.3,0.2s-0.4,0.5-0.5,0.8c0,0.2-0.1,0.4,0,0.7c-0.3,0.1-0.6,0.2-0.9,0.1c-0.3,0-0.5-0.3-0.5-0.4
							c-0.1-0.3-0.1-0.5,0-0.8c0-0.1,0.1-0.2,0.1-0.2s0,0,0-0.1c0.2,0.1,0.3,0.3,0.3,0.4c0.1,0.2,0.8-0.1,0.8-0.3
							c-0.1-0.2-0.2-0.4-0.5-0.5s-0.7,0.1-0.9,0.2c-0.5,0.3-0.6,0.8-0.6,1.3c0,0.3,0.1,0.7,0.5,0.8c0.5,0.2,1.3,0,1.8-0.2
							c0.1,0.2,0.4,0.4,0.8,0.3c0.5,0,1-0.2,1.4-0.5c0,0.3,0.1,0.5,0.4,0.6c0.5,0.2,1,0,1.3-0.3c0.4-0.3,0.6-0.8,0.4-1.2
							C262.9,99.4,262.7,99.3,262.4,99.3z M259.4,99.1c0-0.1,0.1-0.1,0.1-0.2l0,0c0.2,0,0.2,0.2,0.2,0.3c0,0.2-0.3,0.4-0.5,0.6v-0.1
							C259.3,99.5,259.3,99.3,259.4,99.1z M262.3,98c0.1-0.1,0.1-0.1,0.2-0.2l0,0c0.3,0.2,0,0.6-0.2,0.8c-0.2,0.2-0.4,0.5-0.6,0.7
							c0-0.2,0.1-0.4,0.2-0.6C262,98.5,262.1,98.2,262.3,98z M262.1,100.6C262.1,100.7,262,100.7,262.1,100.6
							c-0.1,0.1-0.1,0.1-0.2,0.1c-0.2-0.1-0.2-0.4-0.3-0.5c0-0.1,0-0.2,0-0.3c0.1-0.1,0.2-0.1,0.3-0.2c0.2-0.1,0.3,0.1,0.4,0.2
							C262.4,100.1,262.2,100.4,262.1,100.6z"/>
					</g>
				</g>
				<g>
					<g>
						<path class="st2" d="M250.3,108.2c0.3-0.5,0.4-1.2-0.2-1.7c-0.4-0.3-1.1-0.3-1.5-0.2c0.1-0.2,0.1-0.4,0.1-0.7
							c0-0.2-0.6-0.2-0.8-0.1c-0.3,0.1-0.7,0.2-0.7,0.4c0,0.9-0.3,1.7-0.6,2.6c-0.3,0.1-0.6,0.2-0.9,0.3c-0.2,0-0.3,0.1-0.6,0.1
							c-0.4-0.1-0.3-0.4-0.4-0.6c-0.1-0.8,0.1-1.6,0.7-2.2c0.2-0.1-0.1-0.3-0.5-0.2c-0.4,0-0.8,0.2-1,0.3c-0.6,0.9-0.7,1.8-0.5,2.8
							c0.1,0.3,0.2,0.5,0.8,0.6c0.7,0.1,1.5-0.2,2-0.4c0,0.1,0,0.1-0.1,0.2c-0.3,0.8-0.6,1.6-1,2.4c-0.1,0.2,0.2,0.2,0.3,0.2
							c0.2,0,0.5-0.2,0.6-0.3c0.3-0.5,0.6-1.1,0.9-1.6c0.3,0.1,0.8,0.1,1.2,0C249.3,109.4,250,108.9,250.3,108.2z M248.6,106.8
							C248.6,106.8,248.7,106.8,248.6,106.8L248.6,106.8z M248.1,109.3L248.1,109.3L248.1,109.3z M248.1,109.2
							C248.1,109.2,248.1,109.3,248.1,109.2C248.1,109.3,248,109.3,248.1,109.2c-0.5,0-0.6-0.3-0.5-0.5c0,0,0,0,0-0.1
							c0.2-0.5,0.4-0.9,0.6-1.4l0,0c0.1-0.1,0.1-0.3,0.3-0.4l0,0l0,0c0.2,0,0.3,0.1,0.3,0.2c0.3,0.4,0.1,0.8,0,1.1
							C248.8,108.5,248.5,109,248.1,109.2z"/>
						<path class="st2" d="M242.1,106.4H242c0,0,0,0-0.1,0c-0.3,0-0.6,0.1-0.9,0.2c0-0.3-0.1-0.6-0.2-0.9c0-0.1-0.5,0-0.7,0
							c-0.4,0.1-0.7,0.3-0.7,0.5c-0.1,0.4-0.2,0.8-0.3,1.1c-0.1,0.3-0.2,0.6-0.3,0.9c-0.1,0.1-0.1,0.3-0.2,0.4
							c0,0.1-0.1,0.1-0.1,0.1c-0.2,0.2-0.6,0.2-1,0.1s-0.7-0.2-1-0.4c-0.7-0.5-1.1-1.1-1.3-1.8c-0.1-0.3-0.1-0.7,0-1
							c0-0.1,0.1-0.3,0.1-0.4s0.1-0.1,0.1-0.2c0,0,0-0.1,0.1-0.1l0,0l0,0l0,0l0,0c0,0,0,0,0.1,0s0.4-0.1,0.5-0.1
							c0.9-0.1,1.3,0.4,1.5,0.7c0.2,0.3,1.5-0.4,1.3-0.7c-0.3-0.6-1.1-0.9-2.1-0.9c-0.8,0.1-1.4,0.3-1.9,0.7c-1,0.7-1.2,1.8-0.9,2.7
							c0.3,0.8,1,1.6,2.1,2.1c0.4,0.2,1,0.3,1.4,0.2c1.1-0.1,1.8-0.9,2.2-1.5V108l0,0c0.1,0.6,0.7,1.2,1.7,1.2
							c1.1,0,1.7-0.9,1.8-1.5C243.6,107.2,243.2,106.4,242.1,106.4z M242.3,108.5c0,0,0,0.1-0.1,0.1h-0.1c-0.6,0-0.9-0.5-0.9-0.8
							v-0.1l0,0c0-0.1,0-0.1,0-0.2s0-0.2,0.1-0.4l0.1-0.1c0,0,0,0,0.1,0c0.7,0,0.9,0.5,1,0.8C242.4,108,242.4,108.3,242.3,108.5z"/>
					</g>
				</g>
				<g>
					<path class="st2" d="M254.8,112.7L254.8,112.7c-0.1,0-0.1,0-0.1,0c-0.9-0.2-1.5,0.5-1.8,0.9c-0.1,0.1-0.1,0.2-0.2,0.4
						c-0.2,0.1-0.3,0.2-0.5,0.3l0,0l0,0l0,0c0-0.1,0-0.2,0-0.2c0.1-0.3,0.2-0.6,0.4-0.8c0.1-0.2,0.2-0.3,0.3-0.5
						c0.1-0.1,0.2-0.1,0.2-0.2c0.1-0.1,0-0.2-0.2-0.2s-0.4,0.1-0.6,0.2c-0.1,0.1-0.2,0.2-0.3,0.3c-0.1,0.1-0.3,0.2-0.4,0.3
						c-0.1,0.1-0.2,0.1-0.4,0.2l0,0c0.1-0.4,0.3-0.8,0.4-1.1c0.1-0.3-0.7-0.1-0.8,0.1c-0.1,0.4-0.2,0.8-0.4,1.2
						c-0.2,0.1-0.4,0.2-0.6,0.3c0,0,0,0-0.1,0l0,0l0,0l0,0v-0.1c0-0.3,0.1-0.6,0.2-0.9c0-0.1,0.1-0.3,0.2-0.4
						c0.1-0.2,0.2-0.3,0.2-0.5c0.1-0.1-0.2-0.1-0.3-0.1c-0.2,0-0.4,0.1-0.5,0.2s-0.2,0.3-0.2,0.4c-0.2,0.3-0.4,0.7-0.6,1l-0.1,0.1
						c-0.1,0.1-0.1,0.1-0.1,0.1l0,0h-0.1c-0.1,0-0.1-0.3,0-0.6c0,0,0,0,0-0.1v-0.1c0.1-0.4,0.3-0.8,0.4-1.2c0.1-0.2-0.8,0-0.8,0.1
						c-0.1,0.4-0.2,0.8-0.4,1.2l0,0c-0.1,0.2-0.2,0.4-0.6,0.4c-0.3,0-0.4-0.1-0.4-0.3c0-0.2,0-0.4-0.2-0.6s-0.4-0.2-0.7-0.2v-0.1
						v-0.1c0.1-0.1,0.2-0.3,0.3-0.4l0.1-0.1l0,0l0,0l0,0c0.1,0,0.2,0.1,0.3,0.1c0.3,0.1,1-0.2,0.8-0.3c-0.3-0.2-0.7-0.2-1-0.1
						c-0.2,0-0.4,0.1-0.6,0.2c0,0-0.1,0-0.1,0.1c0-0.3,0-0.5-0.1-0.8c-0.1-0.2-0.8,0.1-0.8,0.3c0.1,0.5,0.1,1,0,1.5l0,0
						c-0.1,0.2-0.2,0.4-0.5,0.4s-0.4,0-0.4-0.2c-0.1-0.2,0-0.5-0.2-0.7c-0.1-0.2-0.4-0.2-0.6-0.1v-0.1v-0.1c0.1-0.1,0.1-0.3,0.2-0.4
						l0.1-0.1l0,0l0,0l0,0c0.1,0,0.2,0.1,0.3,0.1c0.3,0.1,0.9-0.2,0.7-0.4c-0.3-0.2-0.6-0.2-0.9-0.1c-0.2,0.1-0.4,0.2-0.5,0.3
						c0,0,0,0-0.1,0.1c0-0.3-0.1-0.5-0.2-0.7c-0.1-0.2-0.8,0.2-0.7,0.3c0.2,0.5,0.2,1.1,0.2,1.6c-0.1,0.1-0.2,0.2-0.4,0.4
						c-0.1,0.1-0.2,0.1-0.2,0.1l0,0c-0.1,0,0,0-0.1,0c-0.2-0.1-0.2-0.3-0.2-0.5c-0.1-0.4-0.1-0.8-0.1-1.2l0,0c0-0.3-0.4-0.4-0.8-0.3
						c-0.1,0-0.1,0-0.2,0c-0.2,0-0.3,0.1-0.4,0.2c-0.1,0.1-0.2,0.1-0.2,0.2c-0.3,0.1-1,0-1.3-0.1l0,0c-0.1,0-0.2-0.1-0.3-0.1
						c-0.3-0.1-0.7,0.1-0.9,0.2c-0.1-0.1-0.1-0.3-0.2-0.4c-0.1-0.1-0.4,0-0.5,0.1s-0.3,0.2-0.2,0.3c0.3,0.5,0.5,1.1,0.6,1.6
						c-0.1,0.2-0.3,0.4-0.4,0.4h-0.1c0,0-0.1,0-0.1-0.1c-0.2-0.2-0.2-0.5-0.3-0.8s-0.2-0.5-0.4-0.8c-0.1-0.2-0.3-0.3-0.6-0.2
						c-0.3,0.1-0.4,0.3-0.5,0.5c-0.1-0.1-0.2-0.2-0.4-0.3c-0.2-0.1-0.5,0.1-0.6,0.2s-0.2,0.2-0.2,0.3c0-0.1-0.1-0.1-0.1-0.2
						c-0.1-0.2-0.7,0.2-0.6,0.4c0.1,0.1,0.2,0.3,0.2,0.4c0,0.4,0,0.8-0.3,1.2c-0.1,0.2-0.2,0.3-0.5,0.3c-0.7,0-1.1-0.6-1.4-0.9
						c-0.3-0.5-0.5-1-0.3-1.5c0-0.1,0,0,0.1-0.1l0,0l0,0h0.1h0.1c0.6-0.1,0.9,0.1,1.1,0.4c0.1,0.2,0.7-0.3,0.5-0.5
						c-0.2-0.3-0.6-0.6-1.3-0.5c-0.5,0.1-0.8,0.3-1,0.5c-0.5,0.5-0.4,1.2-0.2,1.7s0.7,1.1,1.4,1.4c0.3,0.1,0.7,0.1,1,0
						c0.5-0.1,0.7-0.5,0.9-0.8c0.1-0.1,0.1-0.2,0.2-0.3c0.1,0.2,0.2,0.5,0.3,0.7s0.6-0.2,0.5-0.4c-0.2-0.5-0.3-1-0.4-1.5v-0.1l0,0
						c0.3,0.2,0.4,0.6,0.5,0.8c0.1,0.1,0.1,0.3,0.2,0.4c0.1,0.2,0.1,0.4,0.2,0.5c0.1,0.2,0.6-0.2,0.5-0.4c0-0.1-0.1-0.3-0.1-0.4
						c-0.1-0.2-0.1-0.4-0.1-0.7c0-0.2,0-0.4,0-0.6c0.1,0.1,0.1,0.1,0.1,0.2c0.2,0.3,0.3,0.5,0.4,0.8c0.1,0.2,0.2,0.9,0.7,0.8
						c0.4-0.1,0.6-0.2,0.9-0.5v0.1c0.2,0.6,0.3,1.2,0.4,1.7c0,0.1,0.2,0.1,0.3,0s0.3-0.2,0.3-0.3c0-0.4-0.1-0.9-0.2-1.3
						c0.3,0,0.5-0.1,0.7-0.3c0.5-0.3,0.5-0.8,0.4-1.3c0-0.1,0-0.1-0.1-0.2h0.1c0.1,0,0.3,0,0.4,0c-0.1,0.4-0.1,0.8,0.1,1.2
						c0.1,0.2,0.2,0.4,0.5,0.4c0.4,0.1,0.7-0.1,0.9-0.3l0,0c0,0.1,0.1,0.2,0.3,0.2c0.2,0.1,0.5,0,0.6-0.1c0.2-0.1,0.4-0.2,0.5-0.3
						c0,0.1,0,0.2,0,0.3c0,0.3,0.6-0.1,0.6-0.2c0-0.2,0.1-0.4,0.1-0.7c0.2,0,0.2,0.3,0.3,0.4c0,0.2,0,0.4,0.3,0.5s0.7,0,1.1-0.1
						c0.1,0,0.1,0,0.2-0.1c0,0.1,0,0.1,0,0.2c0,0.3,0.7,0,0.7-0.2c0.1-0.2,0.1-0.4,0.2-0.6c0.2,0.1,0.2,0.3,0.2,0.4
						c0,0.2,0,0.4,0.3,0.6c0.3,0.1,0.8,0,1.1-0.1c0.1,0,0.2-0.1,0.2-0.1c0,0.2,0.1,0.3,0.5,0.4c0.4,0,0.8-0.1,1.1-0.3
						c0,0.2,0,0.3,0.1,0.4l0.1,0.1l0,0l0,0c0.1,0,0.3,0,0.4,0c0.2,0,0.4-0.1,0.7-0.2c0,0.1-0.1,0.2-0.1,0.3
						c-0.1,0.1,0.1,0.1,0.3,0.1s0.4-0.1,0.5-0.2c0.1-0.2,0.2-0.4,0.5-0.5c0.1-0.1,0.2-0.1,0.4-0.2l0,0l0,0c-0.2,0.3-0.3,0.7-0.3,1
						c0,0.1,0.2,0.2,0.2,0.2h0.1c0.1,0,0.1,0,0.2,0c0.3,0,0.6-0.1,0.9-0.2c0,0.2,0.1,0.4,0.4,0.5c0.4,0.1,0.9-0.1,1.2-0.2
						c0.3-0.2,0.6-0.4,0.8-0.7C255.2,113.7,255.6,113,254.8,112.7z M229.9,111.8L229.9,111.8L229.9,111.8L229.9,111.8z M236.8,111.8
						L236.8,111.8L236.8,111.8z M237.7,113.4L237.7,113.4L237.7,113.4z M237.6,113.3C237.6,113.3,237.6,113.4,237.6,113.3
						C237.6,113.4,237.6,113.4,237.6,113.3c-0.3,0.1-0.5-0.1-0.5-0.2l0,0c-0.1-0.3-0.2-0.6-0.3-1l0,0c0-0.1,0-0.2,0-0.3l0,0l0,0
						c0.1,0,0.2,0,0.3,0.1c0.3,0.2,0.4,0.4,0.5,0.7C237.7,112.8,237.8,113.1,237.6,113.3z M240,113.2h-0.1c-0.1,0-0.2-0.2-0.3-0.3
						c-0.2-0.3-0.2-0.7-0.1-1c0-0.1,0.1-0.1,0.1-0.2c0.1,0,0.1-0.1,0.2-0.1c0,0,0,0,0.1,0c0.2,0,0.3,0.1,0.3,0.2
						c0,0.4,0.1,0.9,0,1.3C240,113.1,240,113.2,240,113.2z M252.1,114.3L252.1,114.3L252.1,114.3L252.1,114.3z M253.5,114.7
						L253.5,114.7L253.5,114.7z M253.7,114.5c0,0-0.1,0.1-0.2,0.1c-0.1-0.1-0.1-0.2-0.1-0.3c0-0.2,0.1-0.4,0.2-0.6
						c0.1-0.2,0.2-0.4,0.4-0.5c0,0,0.1-0.1,0.2-0.1c0.3,0.2,0.1,0.7,0,0.9C254.1,114.1,253.9,114.3,253.7,114.5z"/>
				</g>
				<g>
					<ellipse class="st5" cx="227.9" cy="119.9" rx="5.6" ry="3.6"/>
					<path class="st2" d="M224.1,119.7c0.2-0.1,0.4-0.3,0.5-0.5c0.1-0.1,0.2-0.1,0.2-0.2c0.1-0.1,0.1-0.1,0,0c0,0.1,0,0.2,0,0.3
						c0,0.6,0,1.3-0.1,1.9c0,0.2,0.6-0.1,0.6-0.2c0.1-0.4,0.1-0.8,0.1-1.2c0-0.2,0.2-1.1-0.1-1.2c-0.7-0.1-1.3,0.8-1.7,1.1
						C223.4,119.9,223.9,119.8,224.1,119.7L224.1,119.7z"/>
					<path class="st2" d="M227.2,119.7c-0.3-0.1-0.9-0.5-0.4-0.7c0.2-0.1,0.4,0,0.6,0c0.5,0.1,0.1,0.4-0.1,0.5
						c-0.1,0.1-1,0.5-0.6,0.7s1.2,0,1.2,0.4c0,0.3-0.8,0.3-1.1,0.2c-0.5-0.2-0.5-0.5,0.1-0.7c0.2-0.1,0.5-0.5,0-0.3
						s-1.1,0.5-1.1,0.9c0,0.3,0.4,0.6,0.9,0.6c0.6,0,1.3-0.2,1.6-0.5s0.3-0.7-0.3-0.8c-0.2,0-0.7-0.1-0.8,0c0.2-0.2,0.6-0.3,0.8-0.5
						c0.4-0.4,0.3-0.7-0.5-0.8c-0.6-0.1-1.2,0.2-1.5,0.5c-0.4,0.4,0,0.8,0.6,1C226.9,120.2,227.5,119.8,227.2,119.7L227.2,119.7z"/>
					<g>
						<path class="st2" d="M231.5,118.8c-0.7,0.8-1.6,1.5-2.5,2.2c-0.4,0.3,0.2,0.3,0.5,0.1c0.9-0.8,1.8-1.5,2.6-2.3
							C232.4,118.4,231.7,118.6,231.5,118.8L231.5,118.8z"/>
						<path class="st2" d="M230.2,118.6c-0.4,0-0.8,0.3-0.8,0.5c-0.1,0.2,0.2,0.5,0.6,0.5C230.7,119.6,231.2,118.6,230.2,118.6
							c-0.2,0-0.5,0.3-0.3,0.3s0.3,0.1,0.4,0.2c0,0,0,0.1,0,0.2l0,0h-0.1c-0.2,0-0.3-0.1-0.3-0.2s0-0.1,0-0.2l0,0h0.1
							C230.1,118.9,230.5,118.6,230.2,118.6z"/>
						<path class="st2" d="M231.4,120.2c-0.4,0-0.8,0.3-0.8,0.5c-0.1,0.2,0.2,0.5,0.6,0.5C232,121.3,232.4,120.3,231.4,120.2
							c-0.2,0-0.5,0.3-0.3,0.3s0.3,0.1,0.4,0.2v0.1l0,0h-0.1c-0.2,0-0.3-0.1-0.3-0.2s0-0.1,0-0.2l0,0h0.1
							C231.4,120.5,231.7,120.2,231.4,120.2z"/>
					</g>
				</g>
				<g>
					<path class="st6" d="M220.3,105c-0.1,0-0.2-0.1-0.3-0.1c-0.4-0.1-0.7,0.1-1,0.1c-0.9,0-1.2,0-2.2-0.2c0-0.6,0.5-0.9,0.7-1.3
						s-0.1-0.8-0.1-1.3c0-0.3,0-0.5,0-0.8c-0.3,0.2-0.2,0.7-0.2,0.9c-0.1-0.3-0.1-0.8-0.3-1.1c-0.1,0.3,0,0.8,0,1.1
						c-0.1-0.3-0.2-0.7-0.4-0.9c-0.2,0.3,0.1,0.8,0.1,1c-0.2-0.3-0.3-0.6-0.5-0.8c-0.1,0.4,0.2,0.7,0.2,0.9
						c-0.2-0.2-0.3-0.5-0.5-0.6c0,0.2,0.2,0.5,0.4,0.7c-0.2-0.1-0.3-0.3-0.6-0.3c0,0.2,0.2,0.3,0.3,0.4c-0.2-0.1-0.3-0.2-0.5-0.2
						c0,0.2,0.2,0.2,0.3,0.4c-0.1-0.1-0.2-0.1-0.4-0.2c0,0.1,0.3,0.2,0.2,0.3c0,0-0.2-0.1-0.2,0c0,0,0.2,0.1,0.1,0.1
						c-0.1,0-0.1,0-0.2,0c0,0.1,0.1,0.1,0.1,0.2c-0.1,0-0.1,0-0.1,0c0,0.1,0.1,0,0.1,0.1c-0.7,0.5-0.3,1-0.4,1.6
						c0-0.1-0.6-0.2-1.1-0.3c-0.3-0.1-0.3-0.3-0.5-0.3c0,0,0.1,0,0.1-0.1c-0.1,0-0.2,0-0.2-0.1c0.1,0,0.3,0,0.3,0
						c-0.1,0-0.5-0.1-0.4-0.2c0.2,0,0.4,0.1,0.5,0.1c-0.2-0.1-0.6-0.2-0.6-0.3c0.2,0,0.5,0.2,0.7,0.1c-0.3-0.1-0.7-0.3-0.8-0.4
						c0.2,0.1,0.5,0.2,0.7,0.2c-0.4-0.1-0.7-0.3-1-0.3c0.2,0.2,0.7,0.3,0.8,0.5c-0.3-0.1-0.6-0.2-0.9-0.3c0.1,0.2,0.5,0.3,0.8,0.4
						c-0.3,0-0.4-0.1-0.7-0.1c0.1,0.2,0.5,0.1,0.7,0.3c-0.1,0-0.3,0-0.5,0c0,0.1,0.3,0.1,0.5,0.2c-0.2,0-0.3,0-0.4,0.1
						c0.1,0.1,0.3,0,0.4,0.1c-0.1,0-0.2,0-0.2,0.1h0.2c-0.1,0-0.1,0-0.1,0.1c0.1,0,0.2,0,0.2,0s-0.1,0-0.1,0.1
						c0.4,0.1,0.6,0.5,1.2,0.7c-0.3,0.1,0.3,0.3-3.2,1c0.1,0,1.5-0.2,1.9-0.3c0.4-0.1,0.9-0.2,1.3-0.3c0.1,0,0.2,0,0.3-0.1
						c0.7,0,1.4,0,2.1-0.2c-0.5,0.1-1.4,0.1-1.8-0.1c0.5-0.5,0.1-1.6,0.5-1.9c0.4-0.2,1-1,1.7-0.3c0.1,0.1,0.1,0.3-0.1,0.5
						c-0.3,0.3-0.5,0.5-0.5,1.2c0,0.1,0,0.3-0.4,0.3c1.5,0.2,1.9,0.1,2.8,0c0.3,0,0.7-0.2,0.7,0c0,0.1-0.3,0.1-0.5,0.1
						c-0.4,0,0.2,0.1,0.4,0.1c0.1,0,0.9-0.1,1.3-0.1C220.7,105,220.6,105,220.3,105z"/>
					<path class="st6" d="M215.9,100.1c-3.4,0-6.2,1.8-6.2,4s2.8,4,6.2,4c3.4,0,6.2-1.8,6.2-4C222.1,101.8,219.3,100.1,215.9,100.1
						 M215.9,100.2c3.3,0,6,1.7,6,3.8c0,2.1-2.7,3.8-6,3.8s-6-1.7-6-3.8C209.9,101.9,212.6,100.2,215.9,100.2"/>
				</g>
			</g>
		</g>
	</g>
	<g id="doma">
	</g>
	<g id="butylka_3">
	</g>
	<g id="butylka_2">
	</g>
	<g id="butylka_1">
	</g>
	<g id="vanna_2">
	</g>
	<g id="sneg">
	</g>
	<g id="vanna_1">
	</g>
	<g id="shariki_2">
	</g>
	<g id="shariki_1">
	</g>
	<g id="voronka">
	</g>
	<g id="gradusnik">
	</g>
	<g id="kolba_2">
	</g>
	<g id="kolba_1">
	</g>
	<g id="probirki">
	</g>
	<g id="lupa">
	</g>
	<g id="zavod">
	</g>
	<g id="blank">
	</g>
	<g id="ticks">
	</g>
	<rect x="349.5" y="92.1" class="st7" width="5.1" height="1.9"/>
</g>
<g id="clock">
	<circle class="st8" cx="331.4" cy="93" r="30.3"/>
	<circle class="st9" cx="331.4" cy="93" r="25"/>
	<ellipse class="st10" cx="331.4" cy="93" rx="23" ry="23.1"/>
	<rect x="330.4" y="70" class="st7" width="1.9" height="5.1"/>
	
		<rect x="319.6" y="73.4" transform="matrix(-0.8118 0.5839 -0.5839 -0.8118 625.146 -49.5872)" class="st7" width="1.9" height="5.1"/>
	
		<rect x="313.1" y="80.4" transform="matrix(-0.4665 0.8845 -0.8845 -0.4665 533.8773 -156.0615)" class="st7" width="1.9" height="5.1"/>
	
		<rect x="341.6" y="73.1" transform="matrix(0.8118 0.5839 -0.5839 0.8118 108.6081 -185.7845)" class="st7" width="1.9" height="5.1"/>
	
		<rect x="348.5" y="80.4" transform="matrix(0.4665 0.8845 -0.8845 0.4665 259.7513 -264.8145)" class="st7" width="1.9" height="5.1"/>
	
		<rect x="319.6" y="107.9" transform="matrix(-0.8119 -0.5838 0.5838 -0.8119 516.3889 387.2679)" class="st7" width="1.9" height="5.1"/>
	
		<rect x="312.3" y="99.8" transform="matrix(-0.4665 -0.8845 0.8845 -0.4665 368.9037 427.1391)" class="st7" width="1.9" height="5.1"/>
	
		<rect x="342.1" y="107.6" transform="matrix(0.8119 -0.5838 0.5838 0.8119 0.2322 220.9745)" class="st7" width="1.9" height="5.1"/>
	
		<rect x="348.5" y="100.1" transform="matrix(0.4665 -0.8845 0.8845 0.4665 95.6061 363.8782)" class="st7" width="1.9" height="5.1"/>
	<rect x="330.4" y="111.4" class="st7" width="1.9" height="5.1"/>
	<rect x="308.2" y="92.1" class="st7" width="5.1" height="1.9"/>
	<circle class="st11" cx="331.7" cy="92.3" r="1.8"/>
</g>
<g id="hour">
	
		<rect x="336.9" y="87.2" transform="matrix(0.1079 -0.9942 0.9942 0.1079 208.7224 418.6501)" class="st11" width="1.4" height="11.7"/>
</g>
<g id="minute">
	
		<rect x="334" y="74.8" transform="matrix(-0.9386 -0.3451 0.3451 -0.9386 619.9211 278.2203)" class="st11" width="1.4" height="18.3"/>
</g>
</svg>
