<?xml version="1.0" encoding="utf-8"?>
<!-- Generator: Adobe Illustrator 19.0.0, SVG Export Plug-In . SVG Version: 6.00 Build 0)  -->
<svg version="1.1" xmlns="http://www.w3.org/2000/svg" xmlns:xlink="http://www.w3.org/1999/xlink" x="0px" y="0px"
	 viewBox="0 0 239.8 176" style="enable-background:new 0 0 239.8 176;" xml:space="preserve">
<style type="text/css">
	.st0{fill:#519E38;}
	.st1{fill:#FCF3E0;}
	.st2{fill:#FFFFFF;}
</style>
<g id="Layer_2">
</g>
<g id="kolba_4">
</g>
<g id="kolba_3">
</g>
<g id="doma">
</g>
<g id="butylka_3">
</g>
<g id="butylka_2">
</g>
<g id="butylka_1">
</g>
<g id="vanna_2">
</g>
<g id="sneg">
</g>
<g id="vanna_1">
</g>
<g id="shariki_2">
</g>
<g id="shariki_1">
</g>
<g id="voronka">
</g>
<g id="gradusnik">
</g>
<g id="kolba_2">
</g>
<g id="kolba_1">
</g>
<g id="probirki">
</g>
<g id="lupa">
</g>
<g id="zavod">
</g>
<g id="blank">
</g>
<g id="ticks">
</g>
<g id="car">
	<path class="st0" d="M163.7,130.4H92.3c-14.8,0-26.9-12.1-26.9-26.9V91.7c0-14.8,12.1-26.9,26.9-26.9h71.4
		c14.8,0,26.9,12.1,26.9,26.9v11.8C190.6,118.3,178.5,130.4,163.7,130.4z"/>
	<path class="st1" d="M155.4,124.3H84c-14.8,0-26.9-12.1-26.9-26.9V85.6c0-14.8,12.1-26.9,26.9-26.9h71.4
		c14.8,0,26.9,12.1,26.9,26.9v11.8C182.3,112.2,170.2,124.3,155.4,124.3z"/>
	<path class="st2" d="M83.6,80.9h-7.3c-1.5,0-2.6-1.2-2.6-2.6v-4.4c0-1.5,1.2-2.6,2.6-2.6h7.3c1.5,0,2.6,1.2,2.6,2.6v4.4
		C86.3,79.7,85.1,80.9,83.6,80.9z"/>
</g>
</svg>
