<?xml version="1.0" encoding="utf-8"?>
<!-- Generator: Adobe Illustrator 19.0.0, SVG Export Plug-In . SVG Version: 6.00 Build 0)  -->
<svg version="1.1" xmlns="http://www.w3.org/2000/svg" xmlns:xlink="http://www.w3.org/1999/xlink" x="0px" y="0px"
	 viewBox="0 0 380 260" style="enable-background:new 0 0 380 260;" xml:space="preserve">
<style type="text/css">
	.st0{fill:#9DD887;}
	.st1{fill:#FCF3E0;}
	.st2{fill:#FFFFFF;}
	.st3{fill:#EFEFEF;}
</style>
<g id="Layer_2">
</g>
<g id="kolba_4">
</g>
<g id="kolba_3">
</g>
<g id="doma">
</g>
<g id="butylka_3">
</g>
<g id="butylka_2">
</g>
<g id="butylka_1">
</g>
<g id="vanna_2">
</g>
<g id="sneg">
</g>
<g id="vanna_1">
</g>
<g id="shariki_2">
</g>
<g id="shariki_1">
</g>
<g id="voronka">
</g>
<g id="gradusnik">
</g>
<g id="kolba_2">
</g>
<g id="kolba_1">
</g>
<g id="probirki">
</g>
<g id="lupa">
</g>
<g id="zavod">
</g>
<g id="blank">
</g>
<g id="ticks">
</g>
<g id="car">
	<rect x="64.2" y="66.7" class="st0" width="255.1" height="145.7"/>
	<g>
		<path class="st1" d="M190.4,192.6l-84.3-12.3c-8.3-1.2-14.2-9-12.9-17.4l0.8-5.2c1.2-8.3,9-14.2,17.4-12.9l84.3,12.3
			c8.3,1.2,14.2,9,12.9,17.4l-0.8,5.2C206.5,188,198.7,193.8,190.4,192.6z"/>
		<path class="st2" d="M114.4,157.5l-6.3-0.9c-1.4-0.2-2.4-1.6-2.2-3h0c0.2-1.4,1.6-2.4,3-2.2l6.3,0.9c1.4,0.2,2.4,1.6,2.2,3l0,0
			C117.2,156.7,115.9,157.7,114.4,157.5z"/>
	</g>
	<g>
		<path class="st1" d="M199.6,109.9L116,126c-8.3,1.6-16.3-3.9-17.9-12.1l-1-5.2c-1.6-8.3,3.9-16.3,12.1-17.9l83.6-16.1
			c8.3-1.6,16.3,3.9,17.9,12.1l1,5.2C213.4,100.2,207.9,108.3,199.6,109.9z"/>
		<path class="st2" d="M116.4,101.7l-6.2,1.2c-1.4,0.3-2.8-0.7-3.1-2.1v0c-0.3-1.4,0.7-2.8,2.1-3.1l6.2-1.2c1.4-0.3,2.8,0.7,3.1,2.1
			v0C118.8,100,117.8,101.4,116.4,101.7z"/>
	</g>
	<g>
		<path class="st1" d="M280,178.5l-80-29.3c-7.9-2.9-12-11.7-9.1-19.6l1.8-5c2.9-7.9,11.7-12,19.6-9.1l80,29.3
			c7.9,2.9,12,11.7,9.1,19.6l-1.8,5C296.7,177.3,287.9,181.4,280,178.5z"/>
		<path class="st2" d="M212.8,128.6l-6-2.2c-1.4-0.5-2.1-2-1.6-3.4v0c0.5-1.4,2-2.1,3.4-1.6l6,2.2c1.4,0.5,2.1,2,1.6,3.4h0
			C215.7,128.4,214.2,129.1,212.8,128.6z"/>
	</g>
	<path class="st2" d="M313.1,215.3H69.6c-4.4,0-7.9-3.6-7.9-7.9V55.2c0-4.4,3.6-7.9,7.9-7.9h243.5c4.4,0,7.9,3.6,7.9,7.9v152.2
		C321,211.7,317.5,215.3,313.1,215.3z M69.6,52.6c-1.4,0-2.6,1.2-2.6,2.6v152.2c0,1.4,1.2,2.6,2.6,2.6h243.5c1.4,0,2.6-1.2,2.6-2.6
		V55.2c0-1.4-1.2-2.6-2.6-2.6H69.6z"/>
	<path class="st3" d="M326.9,48.1c0,3.2-2.6,5.7-5.7,5.7H60.1c-3.2,0-5.7-2.6-5.7-5.7l0,0c0-3.2,2.6-5.7,5.7-5.7h261.2
		C324.4,42.4,326.9,45,326.9,48.1L326.9,48.1z"/>
	<path class="st2" d="M91.5,117.6c-2.1,0-3.9-1.7-3.9-3.9c0-2.1,1.7-3.9,3.9-3.9c2.1,0,3.9,1.7,3.9,3.9
		C95.4,115.9,93.7,117.6,91.5,117.6z M91.5,111.2c-1.4,0-2.5,1.1-2.5,2.5c0,1.4,1.1,2.5,2.5,2.5c1.4,0,2.5-1.1,2.5-2.5
		C94.1,112.4,92.9,111.2,91.5,111.2z"/>
	<path class="st2" d="M175.7,148.5c-2.1,0-3.9-1.7-3.9-3.9c0-2.1,1.7-3.9,3.9-3.9c2.1,0,3.9,1.7,3.9,3.9
		C179.6,146.7,177.8,148.5,175.7,148.5z M175.7,142.1c-1.4,0-2.5,1.1-2.5,2.5c0,1.4,1.1,2.5,2.5,2.5c1.4,0,2.5-1.1,2.5-2.5
		C178.2,143.2,177.1,142.1,175.7,142.1z"/>
	<path class="st2" d="M299.9,125.2c-1.8,0-3.2-1.4-3.2-3.2s1.4-3.2,3.2-3.2c1.8,0,3.2,1.5,3.2,3.2S301.7,125.2,299.9,125.2z
		 M299.9,120c-1,0-1.9,0.9-1.9,1.9c0,1,0.9,1.9,1.9,1.9c1,0,1.9-0.9,1.9-1.9C301.8,120.9,301,120,299.9,120z"/>
	<path class="st2" d="M297.3,89.3c-1.8,0-3.2-1.4-3.2-3.2s1.4-3.2,3.2-3.2c1.8,0,3.2,1.5,3.2,3.2S299.1,89.3,297.3,89.3z
		 M297.3,84.2c-1,0-1.9,0.9-1.9,1.9c0,1,0.9,1.9,1.9,1.9c1,0,1.9-0.9,1.9-1.9C299.2,85,298.4,84.2,297.3,84.2z"/>
	<path class="st2" d="M299.8,99.1c-1.8,0-3.2-1.5-3.2-3.2s1.4-3.2,3.2-3.2c1.8,0,3.2,1.5,3.2,3.2S301.6,99.1,299.8,99.1z M299.8,94
		c-1,0-1.9,0.9-1.9,1.9c0,1,0.9,1.9,1.9,1.9c1,0,1.9-0.9,1.9-1.9C301.7,94.8,300.8,94,299.8,94z"/>
	<path class="st2" d="M221.8,189.8c-1.8,0-3.2-1.5-3.2-3.2c0-1.8,1.4-3.2,3.2-3.2c1.8,0,3.2,1.4,3.2,3.2
		C225,188.4,223.6,189.8,221.8,189.8z M221.8,184.7c-1,0-1.9,0.9-1.9,1.9c0,1,0.9,1.9,1.9,1.9c1,0,1.9-0.9,1.9-1.9
		C223.7,185.5,222.8,184.7,221.8,184.7z"/>
	<path class="st2" d="M99.4,134.5c-1.8,0-3.2-1.4-3.2-3.2c0-1.8,1.4-3.2,3.2-3.2c1.8,0,3.2,1.5,3.2,3.2
		C102.7,133.1,101.2,134.5,99.4,134.5z M99.4,129.4c-1,0-1.9,0.9-1.9,1.9c0,1,0.9,1.9,1.9,1.9c1,0,1.9-0.9,1.9-1.9
		C101.3,130.3,100.5,129.4,99.4,129.4z"/>
	<path class="st2" d="M87,200.9c-1.8,0-3.2-1.5-3.2-3.2c0-1.8,1.4-3.2,3.2-3.2c1.8,0,3.2,1.5,3.2,3.2
		C90.2,199.4,88.7,200.9,87,200.9z M87,195.8c-1,0-1.9,0.9-1.9,1.9s0.9,1.9,1.9,1.9c1,0,1.9-0.9,1.9-1.9S88,195.8,87,195.8z"/>
	<path class="st2" d="M132.2,85.4c-1.8,0-3.2-1.4-3.2-3.2s1.4-3.2,3.2-3.2c1.8,0,3.2,1.5,3.2,3.2S133.9,85.4,132.2,85.4z
		 M132.2,80.2c-1,0-1.9,0.9-1.9,1.9c0,1,0.9,1.9,1.9,1.9c1,0,1.9-0.9,1.9-1.9C134.1,81.1,133.2,80.2,132.2,80.2z"/>
	<path class="st2" d="M281.2,198.3c-1.8,0-3.2-1.5-3.2-3.2c0-1.8,1.4-3.2,3.2-3.2c1.8,0,3.2,1.5,3.2,3.2
		C284.4,196.9,283,198.3,281.2,198.3z M281.2,193.2c-1,0-1.9,0.9-1.9,1.9s0.9,1.9,1.9,1.9c1,0,1.9-0.9,1.9-1.9
		S282.2,193.2,281.2,193.2z"/>
	<path class="st2" d="M88.3,133.1c-3.3,0-5.9-2.7-5.9-5.9c0-3.3,2.7-5.9,5.9-5.9c3.3,0,5.9,2.7,5.9,5.9
		C94.3,130.5,91.6,133.1,88.3,133.1z M88.3,122.6c-2.5,0-4.6,2.1-4.6,4.6c0,2.5,2.1,4.6,4.6,4.6s4.6-2.1,4.6-4.6
		C92.9,124.7,90.9,122.6,88.3,122.6z"/>
	<path class="st2" d="M291.6,111.4c-3.3,0-5.9-2.7-5.9-5.9c0-3.3,2.7-5.9,5.9-5.9c3.3,0,5.9,2.7,5.9,5.9
		C297.6,108.7,294.9,111.4,291.6,111.4z M291.6,100.8c-2.5,0-4.6,2.1-4.6,4.6c0,2.5,2.1,4.6,4.6,4.6c2.5,0,4.6-2.1,4.6-4.6
		C296.2,102.9,294.2,100.8,291.6,100.8z"/>
	<path class="st2" d="M81.8,89.5h-1.7c-1.4,0-2.6-1.2-2.6-2.6V65.2c0-1.4,1.2-2.6,2.6-2.6h1.7c1.4,0,2.6,1.2,2.6,2.6v21.6
		C84.4,88.3,83.2,89.5,81.8,89.5z"/>
</g>
</svg>
