<?xml version="1.0" encoding="utf-8"?>
<!-- Generator: Adobe Illustrator 19.0.0, SVG Export Plug-In . SVG Version: 6.00 Build 0)  -->
<svg version="1.1" xmlns="http://www.w3.org/2000/svg" xmlns:xlink="http://www.w3.org/1999/xlink" x="0px" y="0px"
	 viewBox="0 0 243.7 162" style="enable-background:new 0 0 243.7 162;" xml:space="preserve">
<style type="text/css">
	.st0{fill:#519E38;}
	.st1{fill:#FCF3E0;}
	.st2{fill:#FFFFFF;}
</style>
<g id="Layer_2">
</g>
<g id="kolba_4">
</g>
<g id="kolba_3">
</g>
<g id="doma">
</g>
<g id="butylka_3">
</g>
<g id="butylka_2">
</g>
<g id="butylka_1">
</g>
<g id="vanna_2">
</g>
<g id="sneg">
</g>
<g id="vanna_1">
</g>
<g id="shariki_2">
</g>
<g id="shariki_1">
</g>
<g id="voronka">
</g>
<g id="gradusnik">
</g>
<g id="kolba_2">
</g>
<g id="kolba_1">
</g>
<g id="probirki">
</g>
<g id="lupa">
</g>
<g id="zavod">
</g>
<g id="blank">
</g>
<g id="ticks">
</g>
<g id="car">
	<path class="st0" d="M165.7,111.4H90.2c-13.7,0-24.8-11.2-24.8-24.8v0c0-13.7,11.2-24.8,24.8-24.8h75.5c13.7,0,24.8,11.2,24.8,24.8
		v0C190.6,100.2,179.4,111.4,165.7,111.4z"/>
	<path class="st1" d="M157.4,106.8H81.9c-13.7,0-24.8-11.2-24.8-24.8v0c0-13.7,11.2-24.8,24.8-24.8h75.5c13.7,0,24.8,11.2,24.8,24.8
		v0C182.3,95.6,171.1,106.8,157.4,106.8z"/>
	<path class="st2" d="M83.6,76.6h-7.3c-1.5,0-2.6-1.2-2.6-2.6v-4.4c0-1.5,1.2-2.6,2.6-2.6h7.3c1.5,0,2.6,1.2,2.6,2.6V74
		C86.3,75.4,85.1,76.6,83.6,76.6z"/>
</g>
</svg>
