<?xml version="1.0" encoding="utf-8"?>
<!-- Generator: Adobe Illustrator 19.0.0, SVG Export Plug-In . SVG Version: 6.00 Build 0)  -->
<svg version="1.1" xmlns="http://www.w3.org/2000/svg" xmlns:xlink="http://www.w3.org/1999/xlink" x="0px" y="0px"
	 viewBox="0 0 282.9 180" style="enable-background:new 0 0 282.9 180;" xml:space="preserve">
<style type="text/css">
	.st0{fill:#EFEFEF;}
	.st1{fill:#DDDDDD;}
	.st2{fill:#FFFFFF;}
	.st3{fill:#FCFCFC;}
	.st4{fill:#80CDC7;}
	.st5{fill-rule:evenodd;clip-rule:evenodd;fill:#80CDC7;}
	.st6{fill-rule:evenodd;clip-rule:evenodd;fill:#62B947;}
	.st7{fill:#62B947;}
	.st8{fill:#63B946;}
</style>
<g id="Layer_2">
</g>
<g id="kolba_4">
</g>
<g id="kolba_3">
</g>
<g id="kolby">
	<g>
		<g>
			<path class="st0" d="M239.4,87.5h-29.5h-12H87.6H75.7H46.1l12.7,47.1l0,0c1.2,4.7,8.3,8.2,16.9,8.2h134.1
				c9.2,0,16.7-4.1,17.1-9.2L239.4,87.5z"/>
			<path class="st1" d="M209.8,87.5h-12h-55.1v55.4h67.1c9.2,0,16.7-4.1,17.1-9.2l12.5-46.1H209.8z"/>
			<path class="st2" d="M71.3,115.3c0.8,2.6-0.6,5.4-3.2,6.2l0,0c-2.6,0.8-5.4-0.6-6.2-3.2L58,105.6c-0.8-2.6,0.6-5.4,3.2-6.2l0,0
				c2.6-0.8,5.4,0.6,6.2,3.2L71.3,115.3z"/>
			<path class="st2" d="M58.2,54"/>
			<g>
				<polygon class="st0" points="239.2,80.7 44.7,80.7 61.6,50.3 221.2,50.3 				"/>
				<path class="st3" d="M221.2,50.3l18,30.4H44.7l16.9-30.4H221.2 M221.2,41.7H61.6c-3.1,0-6,1.7-7.5,4.4L37.2,76.6
					c-1.5,2.7-1.4,5.9,0.1,8.5c1.5,2.6,4.4,4.2,7.4,4.2h194.5c3.1,0,5.9-1.7,7.5-4.3c1.5-2.7,1.5-6-0.1-8.6l-18-30.4
					C227,43.3,224.2,41.7,221.2,41.7L221.2,41.7z"/>
			</g>
		</g>
		<path class="st4" d="M211,142.6c0-5.6-4.6-10.2-10.2-10.2c-5.6,0-10.2,4.6-10.2,10.2c0,0.1,0,0.2,0,0.3H211
			C211,142.7,211,142.7,211,142.6z"/>
		<circle class="st4" cx="81" cy="102.3" r="6.5"/>
		<path class="st4" d="M196.9,99.7c4.2,0,7.6-3.4,7.6-7.6c0-1-0.2-2-0.6-2.8h-14c-0.4,0.9-0.6,1.8-0.6,2.8
			C189.3,96.3,192.7,99.7,196.9,99.7z"/>
		<g>
			<path class="st5" d="M147.1,101.8c-0.3,1.4-1.5,2.5-3,2.5c-1.6,0-3-1.3-3-2.9c-8.4,0.9-14.9,7.9-14.9,16.6c0,1.7,0.3,3.3,0.7,4.8
				c0.1,0,0.1,0,0.2,0c1.6,0,3,1.3,3,3c0,0.7-0.3,1.4-0.7,1.9c2.8,3.8,7.1,6.4,12.1,6.8c1.3,0.2,4,0,5.5-0.4c4-1,7.5-3.5,9.7-6.9
				c-0.2-0.4-0.3-0.8-0.3-1.3c0-1.4,1-2.5,2.3-2.8c0.5-1.6,0.8-3.4,0.8-5.2C159.5,110.2,154.2,103.7,147.1,101.8z M129.6,113.4
				c-0.9,0-1.6-0.7-1.6-1.6c0-0.9,0.7-1.6,1.6-1.6c0.9,0,1.6,0.7,1.6,1.6C131.1,112.7,130.4,113.4,129.6,113.4z M155.9,119
				c-1.1,0-1.9-0.9-1.9-1.9c0-1.1,0.9-1.9,1.9-1.9c1.1,0,1.9,0.9,1.9,1.9C157.8,118.2,157,119,155.9,119z"/>
			<path class="st5" d="M134.9,97.6c0,1.2-1,2.1-2.1,2.1c-1.2,0-2.1-1-2.1-2.1c0-1.2,1-2.1,2.1-2.1C134,95.4,134.9,96.4,134.9,97.6
				L134.9,97.6z"/>
			<path class="st6" d="M135,104.8c0,1.5-1.2,2.7-2.7,2.7c-1.5,0-2.7-1.2-2.7-2.7c0-1.5,1.2-2.7,2.7-2.7
				C133.8,102,135,103.2,135,104.8L135,104.8z"/>
			<path class="st6" d="M127.7,100.5c0,0.9-0.7,1.6-1.6,1.6c-0.9,0-1.6-0.7-1.6-1.6c0-0.9,0.7-1.6,1.6-1.6
				C127,98.9,127.7,99.6,127.7,100.5L127.7,100.5z"/>
			<g>
				<circle class="st7" cx="157.1" cy="102.8" r="9.2"/>
				<g>
					<path class="st2" d="M154.9,101.4c-0.8,0.1-1,1-1,1.6l0,0l0,0c0,0.1,0,0.2,0,0.3c0,0.3,0,0.5,0,0.8c0,0.1-0.1,0.4-0.1,0.4
						c-0.3,0-0.5-0.4-0.6-0.6c-0.2-0.5-0.3-1-0.4-1.5c-0.1-0.5-0.1-1.1-0.2-1.6c0-0.2,0-0.4,0-0.7c0-0.1,0-0.2,0-0.3
						c0-0.1,0-0.2,0-0.2c0.1-0.4-0.5,0-0.6,0.2c-0.6,1.1-0.4,2.3-0.4,3.5c0,0.3,0,0.6-0.1,1c0,0.2-0.1,0.6-0.3,0.8
						c-0.1,0.1-0.3,0-0.4,0c-0.1-0.1-0.2-0.2-0.3-0.4c0-0.2-0.2-0.1-0.3,0c-0.1,0.1-0.3,0.4-0.2,0.5c0.1,0.4,0.4,0.8,0.9,0.7
						c0.7-0.2,1-1,1.1-1.7c0.1-0.3,0.1-0.6,0.1-0.9c0.1,0.5,0.2,0.9,0.4,1.3c0.2,0.3,0.4,0.6,0.8,0.5c0.3-0.1,0.5-0.4,0.6-0.7
						c0.1,0.3,0.3,0.5,0.7,0.5c0.4,0,0.7-0.4,0.8-0.7c0.2-0.4,0.2-0.8,0.2-1.2C155.8,102.5,155.7,101.4,154.9,101.4z M155.1,104.1
						c0,0.1,0,0.2-0.1,0.2c-0.1,0-0.3-0.2-0.3-0.3c-0.1-0.3-0.2-0.5-0.2-0.8c0-0.3,0-0.6,0-0.9c0-0.1,0-0.1,0.1-0.2
						c0.4,0.2,0.5,0.7,0.5,1.1C155.2,103.5,155.2,103.8,155.1,104.1z"/>
					<path class="st2" d="M164,102.5c-0.8-0.3-1.3,0.8-1.4,1.4c-0.1,0.6-0.3,1.6,0.4,1.9c0.3,0.1,0.8-0.1,1-0.3
						c0.3-0.3,0.4-0.6,0.5-1C164.6,103.9,164.8,102.8,164,102.5z M163.5,105.2c0,0.1-0.1,0.1-0.1,0.2c-0.1-0.1-0.2-0.3-0.2-0.5
						c0-0.3,0-0.6,0-0.9c0.1-0.3,0.1-0.6,0.3-0.8c0-0.1,0.1-0.1,0.1-0.2c0.3,0.4,0.2,0.9,0.1,1.3
						C163.7,104.6,163.7,104.9,163.5,105.2z"/>
					<path class="st2" d="M161.8,102.7c0.2-0.2,0.3-0.4,0.4-0.6c0.3-0.5,0.6-1,0.6-1.6c0-0.5-0.7-0.6-1.1-0.4
						c-0.5,0.3-0.8,0.8-1,1.4c-0.2,0.7-0.3,1.4-0.3,2.2v0c-0.3,0.3-0.8,1-1.2,0.7c-0.1-0.1-0.2-0.2-0.2-0.3c0.3-0.4,0.6-0.7,0.9-1.1
						c0.2-0.4,0.4-1-0.1-1.3c-0.4-0.2-0.9,0-1.2,0.4c-0.3,0.3-0.4,0.8-0.4,1.2c0,0.2,0,0.6,0,1c-0.2,0.1-0.5,0.2-0.8,0.2
						c-0.3-0.1-0.4-0.4-0.5-0.7c-0.1-0.4-0.1-0.8,0-1.2c0-0.1,0-0.2,0.1-0.4c0,0,0-0.1,0-0.1c0.2,0.1,0.3,0.4,0.3,0.5
						c0.1,0.3,0.8-0.2,0.7-0.4c-0.1-0.3-0.2-0.5-0.5-0.7c-0.3-0.1-0.7,0.1-0.9,0.3c-0.5,0.5-0.6,1.2-0.5,1.9c0,0.4,0.1,1,0.5,1.2
						c0.5,0.3,1.2,0,1.7-0.3c0.1,0.3,0.4,0.5,0.8,0.5c0.5-0.1,0.9-0.3,1.3-0.7c0,0.4,0.1,0.8,0.4,0.9c0.4,0.2,1,0,1.3-0.4
						c0.4-0.5,0.6-1.1,0.4-1.7C162.3,102.8,162,102.7,161.8,102.7z M159,102.4c0-0.1,0.1-0.2,0.1-0.3c0,0,0,0,0,0
						c0.2,0.1,0.2,0.3,0.2,0.5c0,0.3-0.2,0.6-0.5,0.9c0-0.1,0-0.1,0-0.2C158.9,103,158.9,102.6,159,102.4z M161.7,100.8
						c0.1-0.1,0.1-0.2,0.2-0.3c0,0,0,0,0,0c0.3,0.4,0,0.9-0.2,1.2c-0.2,0.3-0.4,0.7-0.6,1c0-0.3,0.1-0.6,0.2-0.9
						C161.4,101.4,161.5,101.1,161.7,100.8z M161.5,104.6c0,0-0.1,0.1-0.1,0.1c0,0,0,0-0.1,0c-0.2-0.1-0.2-0.6-0.2-0.7
						c0-0.2,0-0.3,0-0.5c0.1-0.1,0.2-0.2,0.3-0.3c0.2-0.1,0.3,0.1,0.4,0.3C161.8,103.9,161.6,104.3,161.5,104.6z"/>
				</g>
			</g>
			<g>
				<g>
					<path class="st2" d="M150.5,115.7c0.3-0.8,0.4-1.8-0.2-2.5c-0.4-0.4-1-0.4-1.4-0.4c0-0.3,0.1-0.7,0.1-1c0-0.3-0.6-0.2-0.7-0.2
						c-0.3,0.1-0.6,0.3-0.6,0.5c0,1.3-0.2,2.5-0.5,3.7c-0.3,0.1-0.5,0.3-0.8,0.4c-0.2,0.1-0.3,0.2-0.5,0.1c-0.3-0.1-0.3-0.6-0.3-0.9
						c-0.1-1.1,0-2.3,0.7-3.3c0.1-0.2-0.1-0.4-0.4-0.4c-0.4,0-0.8,0.3-0.9,0.5c-0.6,1.3-0.6,2.6-0.5,4.1c0,0.5,0.2,0.8,0.7,0.9
						c0.7,0.1,1.4-0.3,1.9-0.6c0,0.1,0,0.2-0.1,0.3c-0.3,1.2-0.6,2.3-0.9,3.5c-0.1,0.3,0.2,0.3,0.3,0.2c0.2-0.1,0.4-0.2,0.5-0.5
						c0.3-0.8,0.6-1.6,0.8-2.4c0.3,0.1,0.7,0.1,1.1,0C149.6,117.5,150.2,116.6,150.5,115.7z M148.9,113.6
						C149,113.6,149,113.6,148.9,113.6L148.9,113.6z M148.5,117.2C148.5,117.2,148.5,117.2,148.5,117.2L148.5,117.2z M148.5,117.2
						C148.5,117.2,148.4,117.2,148.5,117.2C148.4,117.2,148.4,117.2,148.5,117.2c-0.5-0.1-0.5-0.5-0.4-0.8c0,0,0-0.1,0-0.1
						c0.2-0.7,0.4-1.4,0.5-2c0,0,0,0,0,0c0.1-0.2,0.1-0.4,0.3-0.6c0,0,0,0,0,0c0,0,0,0,0,0c0.1,0,0.2,0.2,0.3,0.4
						c0.2,0.5,0.1,1.2,0,1.7C149.1,116.2,148.9,116.8,148.5,117.2z"/>
					<path class="st2" d="M142.9,113c0,0-0.1,0-0.1,0c0,0,0,0-0.1,0c-0.3,0-0.6,0.1-0.8,0.3c0-0.5-0.1-0.9-0.2-1.4
						c0-0.2-0.5-0.1-0.6,0c-0.3,0.2-0.6,0.5-0.7,0.7c-0.1,0.6-0.2,1.1-0.3,1.7c-0.1,0.5-0.2,0.9-0.3,1.4c0,0.2-0.1,0.4-0.2,0.6
						c0,0.1-0.1,0.1-0.1,0.2c-0.2,0.3-0.6,0.3-0.9,0.2c-0.4-0.1-0.7-0.3-0.9-0.6c-0.7-0.7-1-1.7-1.2-2.6c-0.1-0.5-0.1-1,0-1.5
						c0-0.2,0.1-0.4,0.1-0.6c0-0.1,0.1-0.2,0.1-0.2c0,0,0-0.1,0.1-0.1c0,0,0,0,0,0c0,0,0,0,0,0c0,0,0,0,0,0c0,0,0,0,0,0
						c0,0,0,0,0.1-0.1c0,0,0.3-0.1,0.5-0.1c0.8-0.1,1.2,0.5,1.4,1c0.2,0.4,1.4-0.6,1.2-1c-0.3-0.8-1.1-1.4-1.9-1.2
						c-0.7,0.1-1.3,0.4-1.8,1c-0.9,1.1-1.1,2.6-0.9,3.9c0.3,1.2,0.9,2.4,2,3.1c0.4,0.3,0.9,0.4,1.3,0.3c1-0.2,1.6-1.3,2-2.2
						c0,0,0-0.1,0-0.1c0,0,0,0,0-0.1c0.1,0.9,0.7,1.8,1.6,1.8c1,0,1.6-1.3,1.7-2.2C144.3,114.2,143.9,113.1,142.9,113z M143.1,116
						c0,0.1,0,0.1-0.1,0.2c0,0-0.1,0-0.1,0c-0.5,0-0.8-0.8-0.9-1.2c0,0,0-0.1,0-0.1l0,0c0-0.1,0-0.1,0-0.2c0-0.2,0-0.3,0.1-0.5
						c0-0.1,0.1-0.1,0.1-0.2c0,0,0,0,0.1,0c0.7,0,0.8,0.8,0.9,1.2C143.2,115.5,143.2,115.8,143.1,116z"/>
				</g>
			</g>
			<g>
				<path class="st2" d="M154.7,122.3C154.7,122.3,154.7,122.3,154.7,122.3c-0.1,0-0.1-0.1-0.1-0.1c-0.9-0.3-1.4,0.7-1.7,1.3
					c-0.1,0.1-0.1,0.3-0.2,0.6c-0.2,0.1-0.3,0.3-0.5,0.4c0,0,0,0,0,0c0,0,0,0,0,0c0,0,0,0,0,0c0-0.1,0-0.3,0-0.4
					c0.1-0.4,0.2-0.8,0.3-1.2c0.1-0.2,0.2-0.5,0.3-0.7c0.1-0.1,0.1-0.2,0.2-0.3c0.1-0.1,0-0.3-0.1-0.3c-0.2,0-0.4,0.1-0.5,0.2
					c-0.1,0.1-0.2,0.3-0.2,0.4c-0.1,0.2-0.2,0.3-0.4,0.5c-0.1,0.1-0.2,0.1-0.4,0.2c0,0,0,0,0,0c0.1-0.6,0.2-1.1,0.4-1.7
					c0.1-0.4-0.7-0.1-0.7,0.1c-0.1,0.6-0.2,1.2-0.4,1.8c-0.2,0.2-0.4,0.3-0.5,0.5c0,0,0,0-0.1,0c0,0,0,0,0,0c0,0,0,0,0,0
					c0,0,0,0,0,0c0-0.1,0-0.1,0-0.2c0-0.4,0.1-0.9,0.1-1.3c0-0.2,0.1-0.4,0.1-0.7c0.1-0.2,0.2-0.5,0.2-0.7c0.1-0.2-0.2-0.2-0.3-0.2
					c-0.2,0-0.4,0.2-0.4,0.3c-0.1,0.2-0.1,0.4-0.2,0.6c-0.2,0.5-0.3,1-0.6,1.4c0,0.1-0.1,0.1-0.1,0.2c-0.1,0.1-0.1,0.1-0.1,0.1
					c0,0,0,0,0,0c0,0-0.1,0-0.1,0c-0.1,0-0.1-0.4,0-0.9c0,0,0-0.1,0-0.1c0,0,0-0.1,0-0.1c0.1-0.6,0.3-1.1,0.4-1.7
					c0.1-0.4-0.7,0-0.8,0.2c-0.1,0.6-0.2,1.2-0.4,1.8c0,0,0,0,0,0c-0.1,0.3-0.2,0.5-0.6,0.5c-0.3,0-0.4-0.1-0.4-0.4
					c0-0.3,0-0.6-0.1-0.9c-0.1-0.2-0.4-0.3-0.6-0.2c0,0,0-0.1,0-0.1c0,0,0-0.1,0-0.1c0.1-0.2,0.2-0.4,0.3-0.5c0,0,0.1-0.1,0.1-0.1
					c0,0,0,0,0,0c0,0,0,0,0,0c0,0,0,0,0,0c0.1,0,0.2,0.1,0.3,0.2c0.3,0.2,1-0.3,0.7-0.5c-0.3-0.3-0.7-0.3-0.9-0.2
					c-0.2,0.1-0.4,0.2-0.6,0.4c0,0-0.1,0.1-0.1,0.1c0-0.4,0-0.7-0.1-1.1c-0.1-0.3-0.8,0.2-0.7,0.4c0.1,0.7,0.1,1.5,0,2.3
					c0,0,0,0,0,0.1c-0.1,0.3-0.2,0.6-0.5,0.6c-0.3,0-0.3,0-0.4-0.3c0-0.3,0-0.7-0.2-1c-0.1-0.2-0.4-0.2-0.6-0.2c0,0,0-0.1,0-0.1
					c0,0,0-0.1,0-0.1c0.1-0.2,0.1-0.4,0.2-0.5c0,0,0.1-0.1,0.1-0.1c0,0,0,0,0,0h0c0,0,0,0,0,0c0.1,0,0.2,0.1,0.2,0.1
					c0.2,0.2,0.8-0.4,0.6-0.5c-0.3-0.2-0.6-0.2-0.9-0.1c-0.2,0.1-0.4,0.2-0.5,0.4c0,0,0,0.1-0.1,0.1c0-0.4-0.1-0.7-0.2-1.1
					c-0.1-0.3-0.7,0.2-0.7,0.5c0.2,0.8,0.2,1.5,0.2,2.4c-0.1,0.2-0.2,0.4-0.3,0.5c-0.1,0.1-0.1,0.2-0.2,0.2c0,0,0,0,0,0
					c-0.1,0,0,0-0.1,0c-0.2-0.1-0.2-0.5-0.2-0.7c-0.1-0.6-0.1-1.1-0.1-1.7c0,0,0,0,0,0c0-0.4-0.4-0.6-0.8-0.5c0,0-0.1,0-0.2,0
					c-0.2,0.1-0.3,0.2-0.4,0.4c-0.1,0.1-0.2,0.2-0.2,0.3c-0.3,0.1-0.9,0-1.2-0.2c0,0,0,0,0,0c-0.1-0.1-0.2-0.1-0.3-0.2
					c-0.3-0.1-0.6,0.1-0.9,0.3c-0.1-0.2-0.1-0.4-0.2-0.6c-0.1-0.2-0.4,0-0.4,0.1c-0.1,0.1-0.3,0.3-0.2,0.5c0.3,0.8,0.4,1.6,0.6,2.4
					c-0.1,0.2-0.2,0.6-0.4,0.6c0,0-0.1,0-0.1,0c0,0,0,0-0.1-0.1c-0.2-0.3-0.2-0.8-0.3-1.2c-0.1-0.4-0.2-0.8-0.4-1.2
					c-0.1-0.2-0.3-0.5-0.6-0.3c-0.2,0.1-0.4,0.4-0.5,0.7c-0.1-0.2-0.2-0.3-0.3-0.4c-0.2-0.1-0.4,0.1-0.5,0.2
					c-0.1,0.1-0.1,0.2-0.2,0.4c0-0.1-0.1-0.2-0.1-0.3c-0.1-0.3-0.6,0.3-0.5,0.6c0.1,0.2,0.1,0.4,0.2,0.6c0,0.6,0,1.2-0.2,1.8
					c-0.1,0.3-0.2,0.4-0.5,0.4c-0.7,0-1-0.8-1.3-1.4c-0.3-0.7-0.5-1.5-0.3-2.2c0-0.1,0-0.1,0-0.1c0,0,0,0,0-0.1c0,0,0,0,0,0
					c0,0,0.1,0,0.1,0s0.1,0,0.1-0.1c0.6-0.2,0.8,0.2,1.1,0.6c0.1,0.2,0.6-0.4,0.5-0.7c-0.2-0.4-0.6-0.9-1.2-0.7
					c-0.4,0.1-0.7,0.4-1,0.7c-0.5,0.8-0.4,1.7-0.2,2.6c0.2,0.8,0.6,1.6,1.3,2.1c0.3,0.2,0.6,0.2,0.9,0.1c0.4-0.2,0.7-0.8,0.8-1.2
					c0.1-0.2,0.1-0.3,0.1-0.5c0.1,0.4,0.2,0.7,0.3,1c0.1,0.4,0.5-0.3,0.5-0.5c-0.2-0.7-0.3-1.5-0.3-2.2c0-0.1,0-0.1,0-0.2
					c0,0,0,0,0,0c0.3,0.4,0.4,0.8,0.5,1.2c0.1,0.2,0.1,0.4,0.1,0.6c0.1,0.3,0.1,0.5,0.2,0.8c0.1,0.4,0.5-0.3,0.5-0.5
					c0-0.2-0.1-0.4-0.1-0.6c-0.1-0.3-0.1-0.6-0.1-1c0-0.3,0-0.6,0-0.9c0.1,0.1,0.1,0.2,0.1,0.3c0.2,0.4,0.3,0.8,0.4,1.2
					c0.1,0.4,0.2,1.3,0.7,1.2c0.3-0.1,0.6-0.3,0.8-0.7c0,0.1,0,0.1,0,0.2c0.1,0.8,0.3,1.7,0.3,2.5c0,0.2,0.2,0.1,0.3,0
					c0.1-0.1,0.3-0.3,0.2-0.5c0-0.6-0.1-1.3-0.2-1.9c0.2,0,0.5-0.2,0.7-0.4c0.4-0.5,0.5-1.2,0.4-1.8c0-0.1,0-0.2-0.1-0.3
					c0,0,0.1,0,0.1,0c0.1,0,0.3,0,0.4-0.1c-0.1,0.6-0.1,1.2,0.1,1.7c0.1,0.2,0.2,0.5,0.5,0.6c0.3,0.1,0.7-0.2,0.9-0.4c0,0,0,0,0,0
					c0,0.1,0.1,0.3,0.2,0.3c0.2,0.1,0.4,0,0.6-0.1c0.2-0.1,0.3-0.3,0.5-0.5c0,0.1,0,0.3,0,0.4c0,0.4,0.6-0.1,0.6-0.4
					c0-0.3,0.1-0.6,0.1-1c0.2,0.1,0.2,0.4,0.3,0.6c0,0.3,0,0.7,0.3,0.8c0.3,0.1,0.7,0,1-0.2c0.1,0,0.1-0.1,0.2-0.1
					c0,0.1,0,0.2,0,0.3c0,0.4,0.6-0.1,0.7-0.3c0.1-0.3,0.1-0.6,0.2-0.9c0.2,0.1,0.2,0.4,0.2,0.6c0,0.3,0,0.7,0.3,0.8
					c0.3,0.2,0.8,0.1,1.1-0.1c0.1,0,0.2-0.1,0.2-0.1c0,0.3,0.1,0.5,0.4,0.5c0.4,0,0.8-0.2,1-0.5c0,0.2,0,0.5,0.1,0.6
					c0,0,0.1,0.1,0.1,0.1c0,0,0,0,0,0c0,0,0,0,0,0c0.1,0.1,0.2,0,0.4,0c0.2,0,0.4-0.2,0.6-0.3c0,0.1-0.1,0.2-0.1,0.4
					c-0.1,0.2,0.1,0.2,0.2,0.2c0.2,0,0.4-0.2,0.4-0.3c0.1-0.3,0.2-0.6,0.4-0.8c0.1-0.1,0.2-0.1,0.4-0.2c0,0,0,0,0,0c0,0,0,0,0,0
					c-0.1,0.5-0.3,1-0.3,1.5c0,0.1,0.2,0.3,0.2,0.3s0.1,0,0.1,0c0.1,0,0.1,0,0.2,0c0.3,0,0.5-0.1,0.8-0.2c0,0.3,0.1,0.6,0.4,0.7
					c0.4,0.2,0.8-0.1,1.1-0.3c0.3-0.3,0.5-0.6,0.7-1C155.1,123.7,155.4,122.7,154.7,122.3z M131.5,121
					C131.5,121,131.5,121,131.5,121C131.5,121,131.5,121,131.5,121C131.5,121,131.5,121,131.5,121z M138,120.9
					C138,120.9,138,120.9,138,120.9L138,120.9z M138.7,123.2C138.7,123.2,138.7,123.2,138.7,123.2L138.7,123.2z M138.7,123.2
					C138.7,123.2,138.7,123.2,138.7,123.2C138.7,123.2,138.7,123.2,138.7,123.2c-0.3,0.1-0.5-0.1-0.5-0.3c0,0,0,0,0-0.1
					c-0.1-0.5-0.2-0.9-0.2-1.4c0,0,0,0,0,0c0-0.1,0-0.3,0-0.4c0,0,0,0,0,0c0,0,0,0,0,0c0.1,0,0.2,0,0.3,0.1c0.3,0.2,0.4,0.7,0.5,1
					C138.8,122.4,138.8,122.8,138.7,123.2z M140.9,123c0,0-0.1,0-0.1,0c-0.1,0-0.2-0.3-0.3-0.4c-0.2-0.4-0.2-1-0.1-1.5
					c0-0.1,0-0.2,0.1-0.3c0.1-0.1,0.1-0.1,0.2-0.2c0,0,0,0,0.1,0c0.2,0,0.3,0.1,0.3,0.2c0,0.6,0.1,1.3,0,1.9
					C141,122.8,140.9,122.9,140.9,123z M152.2,124.6L152.2,124.6C152.2,124.6,152.2,124.6,152.2,124.6
					C152.2,124.6,152.2,124.6,152.2,124.6z M153.5,125.1C153.5,125.2,153.5,125.2,153.5,125.1L153.5,125.1z M153.7,124.9
					c0,0.1-0.1,0.1-0.2,0.2c-0.1-0.1-0.1-0.4-0.1-0.5c0-0.3,0.1-0.6,0.2-0.9c0.1-0.3,0.2-0.6,0.4-0.8c0-0.1,0.1-0.1,0.1-0.2
					c0.3,0.2,0,1.1,0,1.3C154,124.4,153.9,124.7,153.7,124.9z"/>
			</g>
			<g>
				<circle class="st7" cx="129.6" cy="132.8" r="5.3"/>
				<path class="st2" d="M126.1,132.4c0.2-0.2,0.3-0.5,0.5-0.7c0.1-0.1,0.2-0.2,0.2-0.3c0.1-0.1,0.1-0.1,0,0c0,0.2,0,0.3,0,0.5
					c0,0.9,0,1.8-0.1,2.8c0,0.3,0.6-0.1,0.6-0.3c0.1-0.6,0.1-1.2,0.1-1.8c0-0.3,0.2-1.7-0.1-1.7c-0.6-0.2-1.3,1.2-1.6,1.6
					C125.4,132.7,125.9,132.7,126.1,132.4L126.1,132.4z"/>
				<path class="st2" d="M129,132.5c-0.2-0.1-0.9-0.7-0.4-1c0.2-0.1,0.4-0.1,0.6,0c0.5,0.1,0.1,0.5-0.1,0.7c-0.1,0.1-0.9,0.7-0.6,1
					c0.4,0.3,1.2,0,1.2,0.6c0,0.5-0.7,0.5-1,0.3c-0.4-0.3-0.4-0.7,0.1-1c0.2-0.1,0.5-0.7,0-0.5c-0.5,0.3-1,0.7-1,1.4
					c0,0.4,0.4,0.8,0.8,0.9c0.6,0.1,1.2-0.3,1.5-0.8c0.3-0.5,0.3-1.1-0.3-1.2c-0.2,0-0.6-0.2-0.7,0c0.2-0.3,0.5-0.4,0.7-0.7
					c0.4-0.5,0.2-1.1-0.4-1.2c-0.6-0.1-1.1,0.3-1.4,0.8c-0.4,0.6,0,1.1,0.6,1.4C128.8,133.2,129.3,132.6,129,132.5L129,132.5z"/>
				<g>
					<path class="st2" d="M133,131.2c-0.7,1.1-1.5,2.2-2.3,3.2c-0.3,0.5,0.2,0.4,0.4,0.1c0.8-1.1,1.7-2.2,2.4-3.4
						C133.8,130.7,133.2,130.9,133,131.2L133,131.2z"/>
					<path class="st2" d="M131.8,130.9c-0.4,0-0.7,0.4-0.8,0.8c-0.1,0.4,0.1,0.7,0.5,0.7C132.3,132.4,132.7,130.9,131.8,130.9
						c-0.2,0-0.5,0.4-0.2,0.4c0.2,0,0.3,0.2,0.3,0.4c0,0.1,0,0.2,0,0.2c0,0.1,0,0,0,0c0,0-0.1,0-0.1,0c-0.2,0-0.3-0.2-0.3-0.3
						c0-0.1,0-0.2,0-0.2c0,0,0,0,0,0c0,0,0.1,0,0.1,0C131.7,131.3,132,130.9,131.8,130.9z"/>
					<path class="st2" d="M132.9,133.3c-0.4,0-0.7,0.4-0.8,0.8c-0.1,0.4,0.1,0.7,0.5,0.7C133.5,134.8,133.8,133.3,132.9,133.3
						c-0.2,0-0.5,0.4-0.2,0.4c0.2,0,0.3,0.2,0.3,0.4c0,0.1,0,0.2,0,0.2c0,0.1,0,0,0,0c0,0-0.1,0-0.1,0c-0.2,0-0.3-0.2-0.3-0.3
						c0-0.1,0-0.2,0-0.2c0,0,0,0,0,0c0,0,0.1,0,0.1,0C132.9,133.7,133.2,133.3,132.9,133.3z"/>
				</g>
			</g>
			<g>
				<path class="st8" d="M122.6,110.9c-0.1,0-0.2-0.2-0.2-0.2c-0.4-0.1-0.6,0.1-1,0.1c-0.8,0-1.1,0-2-0.3c0-0.8,0.5-1.3,0.7-2
					c0.2-0.6-0.1-1.2-0.1-1.9c0-0.4,0-0.8,0-1.2c-0.3,0.3-0.1,1-0.2,1.4c-0.1-0.5-0.1-1.1-0.3-1.6c-0.1,0.5,0,1.1,0,1.6
					c-0.1-0.4-0.2-1-0.3-1.4c-0.2,0.4,0.1,1.1,0.1,1.5c-0.2-0.4-0.3-0.9-0.5-1.2c-0.1,0.5,0.2,1,0.2,1.3c-0.2-0.3-0.2-0.7-0.5-0.9
					c0,0.3,0.2,0.8,0.3,1.1c-0.2-0.1-0.3-0.4-0.5-0.5c0,0.3,0.2,0.4,0.3,0.6c-0.2-0.1-0.2-0.3-0.4-0.3c0,0.3,0.2,0.3,0.3,0.5
					c-0.1-0.1-0.2-0.2-0.3-0.2c0,0.2,0.3,0.3,0.2,0.4c0,0-0.2-0.1-0.2,0c0,0,0.2,0.1,0.1,0.1c-0.1,0-0.1,0-0.2,0
					c0,0.1,0.1,0.1,0.1,0.2c0,0-0.1,0-0.1,0c0,0.1,0.1,0.1,0.1,0.2c-0.7,0.7-0.3,1.5-0.4,2.3c0-0.1-0.6-0.2-1-0.4
					c-0.3-0.1-0.3-0.4-0.5-0.5c0,0,0.1,0,0.1-0.1c-0.1,0-0.2-0.1-0.2-0.1c0.1,0,0.3,0,0.3,0c-0.1-0.1-0.4-0.1-0.4-0.3
					c0.2,0,0.3,0.1,0.5,0.1c-0.2-0.1-0.5-0.3-0.5-0.4c0.2,0.1,0.4,0.2,0.6,0.1c-0.3-0.1-0.7-0.4-0.8-0.6c0.2,0.1,0.5,0.4,0.7,0.3
					c-0.4-0.1-0.6-0.5-1-0.5c0.2,0.3,0.7,0.5,0.8,0.7c-0.2-0.2-0.5-0.3-0.8-0.4c0.1,0.3,0.5,0.4,0.7,0.6c-0.2,0-0.4-0.1-0.7-0.1
					c0.1,0.3,0.5,0.2,0.6,0.4c-0.1-0.1-0.3,0-0.4,0c0,0.2,0.3,0.1,0.4,0.2c-0.1,0-0.3,0-0.3,0.1c0.1,0.1,0.3,0.1,0.3,0.1
					c-0.1,0-0.2,0-0.2,0.1c0,0.1,0.2,0,0.2,0.1c0,0-0.1,0-0.1,0.1c0.1,0,0.1,0,0.2,0c0,0-0.1,0-0.1,0.1c0.4,0.2,0.6,0.8,1.1,1
					c-0.3,0.2,0.3,0.4-2.9,1.5c0.1,0,1.4-0.3,1.8-0.5c0.4-0.1,0.8-0.3,1.2-0.4c0.1,0,0.2-0.1,0.3-0.1c0.7-0.1,1.3,0.1,1.9-0.4
					c-0.5,0.1-1.3,0.2-1.7-0.1c0.4-0.7,0.1-2.4,0.5-2.8c0.4-0.3,0.9-1.5,1.6-0.5c0.1,0.2,0.1,0.4-0.1,0.8c-0.3,0.5-0.5,0.7-0.4,1.8
					c0,0.2,0,0.4-0.3,0.4c1.4,0.3,1.8,0.1,2.6,0c0.3,0,0.7-0.2,0.7,0c0,0.1-0.3,0.1-0.5,0.1c-0.4,0,0.2,0.1,0.4,0.1
					c0.1,0,0.8-0.1,1.2-0.2C123,111,122.8,111,122.6,110.9z"/>
				<path class="st8" d="M118.5,103.8c-3.2,0-5.8,2.6-5.8,5.8c0,3.2,2.6,5.8,5.8,5.8c3.2,0,5.8-2.6,5.8-5.8
					C124.3,106.4,121.7,103.8,118.5,103.8 M118.5,104c3.1,0,5.6,2.5,5.6,5.6c0,3.1-2.5,5.6-5.6,5.6c-3.1,0-5.6-2.5-5.6-5.6
					C112.9,106.5,115.4,104,118.5,104"/>
			</g>
		</g>
		<g>
			<path class="st5" d="M146.7,56c-0.3,1-1.6,1.7-3.2,1.7c-1.8,0-3.2-0.9-3.2-2c-9,0.6-16,5.4-16,11.3c0,1.2,0.3,2.3,0.8,3.3
				c0.1,0,0.1,0,0.2,0c1.8,0,3.2,0.9,3.2,2c0,0.5-0.3,1-0.8,1.3c3,2.6,7.7,4.4,13,4.7c1.4,0.1,4.3,0,5.9-0.3c4.3-0.7,8-2.4,10.4-4.7
				c-0.2-0.3-0.3-0.6-0.3-0.9c0-0.9,1.1-1.7,2.4-1.9c0.6-1.1,0.9-2.3,0.9-3.6C159.9,61.7,154.3,57.3,146.7,56z M127.8,63.9
				c-0.9,0-1.7-0.5-1.7-1.1c0-0.6,0.8-1.1,1.7-1.1c0.9,0,1.7,0.5,1.7,1.1C129.5,63.4,128.7,63.9,127.8,63.9z M156.1,67.8
				c-1.1,0-2.1-0.6-2.1-1.3c0-0.7,0.9-1.3,2.1-1.3c1.1,0,2.1,0.6,2.1,1.3C158.2,67.2,157.2,67.8,156.1,67.8z"/>
			<path class="st5" d="M133.6,53.1c0,0.8-1,1.5-2.3,1.5c-1.3,0-2.3-0.7-2.3-1.5c0-0.8,1-1.5,2.3-1.5
				C132.6,51.6,133.6,52.3,133.6,53.1L133.6,53.1z"/>
			<path class="st6" d="M133.7,58c0,1-1.3,1.9-2.9,1.9c-1.6,0-3-0.8-3-1.9c0-1,1.3-1.9,3-1.9C132.4,56.1,133.7,57,133.7,58L133.7,58
				z"/>
			<path class="st6" d="M125.8,55.1c0,0.6-0.8,1.1-1.7,1.1c-1,0-1.8-0.5-1.8-1.1c0-0.6,0.8-1.1,1.8-1.1
				C125,54,125.8,54.5,125.8,55.1L125.8,55.1z"/>
			<g>
				<ellipse class="st7" cx="157.4" cy="56.6" rx="9.9" ry="6.3"/>
				<g>
					<path class="st2" d="M155,55.7c-0.8,0.1-1,0.7-1.1,1.1l0,0l0,0c0,0.1,0,0.1,0,0.2c0,0.2,0,0.4-0.1,0.6c0,0.1-0.1,0.2-0.1,0.2
						c-0.3,0-0.5-0.3-0.6-0.4c-0.2-0.3-0.3-0.7-0.4-1c-0.1-0.4-0.2-0.7-0.2-1.1c0-0.2,0-0.3,0-0.5c0-0.1,0-0.1,0-0.2
						c0,0,0-0.1,0-0.1c0.1-0.3-0.5,0-0.7,0.1c-0.7,0.7-0.5,1.6-0.4,2.4c0,0.2,0,0.4-0.1,0.7c0,0.1-0.1,0.4-0.3,0.5
						c-0.1,0.1-0.3,0-0.4,0c-0.2-0.1-0.3-0.2-0.3-0.3c0-0.1-0.2-0.1-0.3,0c-0.1,0.1-0.3,0.3-0.3,0.4c0.1,0.3,0.5,0.5,0.9,0.4
						c0.7-0.1,1.1-0.7,1.2-1.1c0.1-0.2,0.1-0.4,0.2-0.6c0.1,0.3,0.3,0.6,0.5,0.9c0.2,0.2,0.5,0.4,0.9,0.4c0.3,0,0.5-0.2,0.7-0.5
						c0.1,0.2,0.4,0.4,0.7,0.3c0.4,0,0.8-0.3,0.9-0.5c0.2-0.3,0.2-0.5,0.2-0.8C156,56.5,155.8,55.7,155,55.7z M155.2,57.5
						c0,0.1,0,0.1-0.1,0.2c-0.2,0-0.3-0.2-0.3-0.2c-0.1-0.2-0.2-0.4-0.2-0.6c0-0.2,0-0.4,0-0.6c0,0,0-0.1,0.1-0.1
						c0.4,0.2,0.5,0.5,0.5,0.8C155.3,57.1,155.3,57.4,155.2,57.5z"/>
					<path class="st2" d="M164.8,56.5c-0.9-0.2-1.4,0.6-1.5,1c-0.2,0.4-0.3,1.1,0.4,1.3c0.4,0.1,0.8-0.1,1-0.2
						c0.3-0.2,0.4-0.4,0.5-0.7C165.5,57.4,165.6,56.7,164.8,56.5z M164.3,58.3c0,0-0.1,0.1-0.1,0.1c-0.1-0.1-0.2-0.2-0.2-0.3
						c0-0.2,0-0.4,0-0.6c0.1-0.2,0.1-0.4,0.3-0.6c0,0,0.1-0.1,0.1-0.1c0.3,0.2,0.2,0.6,0.2,0.9C164.5,57.9,164.4,58.1,164.3,58.3z"
						/>
					<path class="st2" d="M162.4,56.6c0.2-0.1,0.3-0.3,0.5-0.4c0.3-0.3,0.6-0.7,0.6-1.1c0-0.4-0.8-0.4-1.2-0.3
						c-0.6,0.2-0.9,0.6-1.1,0.9c-0.2,0.5-0.3,1-0.4,1.5v0c-0.3,0.2-0.9,0.7-1.3,0.5c-0.1,0-0.2-0.1-0.2-0.2c0.4-0.2,0.7-0.5,1-0.8
						c0.3-0.3,0.4-0.7-0.1-0.9c-0.4-0.2-1,0-1.3,0.2c-0.3,0.2-0.4,0.5-0.5,0.8c0,0.2-0.1,0.4,0,0.7c-0.3,0.1-0.6,0.2-0.9,0.1
						c-0.3,0-0.5-0.3-0.5-0.4c-0.1-0.3-0.1-0.5,0-0.8c0-0.1,0.1-0.2,0.1-0.2c0,0,0,0,0-0.1c0.2,0.1,0.3,0.3,0.3,0.4
						c0.1,0.2,0.8-0.1,0.8-0.3c-0.1-0.2-0.2-0.4-0.5-0.5c-0.3-0.1-0.7,0.1-0.9,0.2c-0.5,0.3-0.6,0.8-0.6,1.3c0,0.3,0.1,0.7,0.5,0.8
						c0.5,0.2,1.3,0,1.8-0.2c0.1,0.2,0.4,0.4,0.8,0.3c0.5,0,1-0.2,1.4-0.5c0,0.3,0.1,0.5,0.4,0.6c0.5,0.2,1,0,1.3-0.3
						c0.4-0.3,0.6-0.8,0.4-1.2C162.9,56.6,162.7,56.6,162.4,56.6z M159.4,56.4c0-0.1,0.1-0.1,0.1-0.2c0,0,0,0,0,0
						c0.2,0,0.2,0.2,0.2,0.3c0,0.2-0.3,0.4-0.5,0.6c0,0,0-0.1,0-0.1C159.3,56.8,159.3,56.6,159.4,56.4z M162.3,55.3
						c0.1-0.1,0.1-0.1,0.2-0.2c0,0,0,0,0,0c0.3,0.2,0,0.6-0.2,0.8c-0.2,0.2-0.4,0.5-0.6,0.7c0-0.2,0.1-0.4,0.2-0.6
						C162,55.7,162.1,55.5,162.3,55.3z M162.1,57.9C162.1,57.9,162,58,162.1,57.9C162,58,162,58,161.9,58c-0.2-0.1-0.2-0.4-0.3-0.5
						c0-0.1,0-0.2,0-0.3c0.1-0.1,0.2-0.1,0.3-0.2c0.2-0.1,0.3,0.1,0.4,0.2C162.4,57.4,162.2,57.7,162.1,57.9z"/>
				</g>
			</g>
			<g>
				<g>
					<path class="st2" d="M150.3,65.5c0.3-0.5,0.4-1.2-0.2-1.7c-0.4-0.3-1.1-0.3-1.5-0.2c0.1-0.2,0.1-0.4,0.1-0.7
						c0-0.2-0.6-0.2-0.8-0.1c-0.3,0.1-0.7,0.2-0.7,0.4c0,0.9-0.3,1.7-0.6,2.6c-0.3,0.1-0.6,0.2-0.9,0.3c-0.2,0-0.3,0.1-0.6,0.1
						c-0.4-0.1-0.3-0.4-0.4-0.6c-0.1-0.8,0.1-1.6,0.7-2.2c0.2-0.1-0.1-0.3-0.5-0.2c-0.4,0-0.8,0.2-1,0.3c-0.6,0.9-0.7,1.8-0.5,2.8
						c0.1,0.3,0.2,0.5,0.8,0.6c0.7,0.1,1.5-0.2,2-0.4c0,0.1,0,0.1-0.1,0.2c-0.3,0.8-0.6,1.6-1,2.4c-0.1,0.2,0.2,0.2,0.3,0.2
						c0.2,0,0.5-0.2,0.6-0.3c0.3-0.5,0.6-1.1,0.9-1.6c0.3,0.1,0.8,0.1,1.2,0C149.3,66.7,150,66.1,150.3,65.5z M148.6,64
						C148.6,64,148.7,64,148.6,64L148.6,64z M148.1,66.5C148.1,66.5,148.1,66.5,148.1,66.5L148.1,66.5z M148.1,66.5
						C148.1,66.5,148.1,66.5,148.1,66.5C148.1,66.5,148,66.5,148.1,66.5c-0.5,0-0.6-0.3-0.5-0.5c0,0,0,0,0-0.1
						c0.2-0.5,0.4-0.9,0.6-1.4c0,0,0,0,0,0c0.1-0.1,0.1-0.3,0.3-0.4c0,0,0,0,0,0c0,0,0,0,0,0c0.2,0,0.3,0.1,0.3,0.2
						c0.3,0.4,0.1,0.8,0,1.1C148.8,65.8,148.5,66.2,148.1,66.5z"/>
					<path class="st2" d="M142.1,63.6c0,0-0.1,0-0.1,0c0,0,0,0-0.1,0c-0.3,0-0.6,0.1-0.9,0.2c0-0.3-0.1-0.6-0.2-0.9
						c0-0.1-0.5,0-0.7,0c-0.4,0.1-0.7,0.3-0.7,0.5c-0.1,0.4-0.2,0.8-0.3,1.1c-0.1,0.3-0.2,0.6-0.3,0.9c-0.1,0.1-0.1,0.3-0.2,0.4
						c0,0.1-0.1,0.1-0.1,0.1c-0.2,0.2-0.6,0.2-1,0.1c-0.4-0.1-0.7-0.2-1-0.4c-0.7-0.5-1.1-1.1-1.3-1.8c-0.1-0.3-0.1-0.7,0-1
						c0-0.1,0.1-0.3,0.1-0.4c0-0.1,0.1-0.1,0.1-0.2c0,0,0-0.1,0.1-0.1c0,0,0,0,0,0c0,0,0,0,0,0c0,0,0,0,0,0c0,0,0,0,0,0
						c0,0,0,0,0.1,0c0.1,0,0.4-0.1,0.5-0.1c0.9-0.1,1.3,0.4,1.5,0.7c0.2,0.3,1.5-0.4,1.3-0.7c-0.3-0.6-1.1-0.9-2.1-0.9
						c-0.8,0.1-1.4,0.3-1.9,0.7c-1,0.7-1.2,1.8-0.9,2.7c0.3,0.8,1,1.6,2.1,2.1c0.4,0.2,1,0.3,1.4,0.2c1.1-0.1,1.8-0.9,2.2-1.5
						c0,0,0-0.1,0-0.1c0,0,0,0,0,0c0.1,0.6,0.7,1.2,1.7,1.2c1.1,0,1.7-0.9,1.8-1.5C143.6,64.4,143.2,63.7,142.1,63.6z M142.3,65.7
						c0,0,0,0.1-0.1,0.1c0,0-0.1,0-0.1,0c-0.6,0-0.9-0.5-0.9-0.8c0,0,0-0.1,0-0.1l0,0c0-0.1,0-0.1,0-0.2c0-0.1,0-0.2,0.1-0.4
						c0,0,0.1-0.1,0.1-0.1c0,0,0,0,0.1,0c0.7,0,0.9,0.5,1,0.8C142.4,65.3,142.4,65.5,142.3,65.7z"/>
				</g>
			</g>
			<g>
				<path class="st2" d="M154.8,70C154.8,70,154.8,70,154.8,70c-0.1,0-0.1,0-0.1,0c-0.9-0.2-1.5,0.5-1.8,0.9
					c-0.1,0.1-0.1,0.2-0.2,0.4c-0.2,0.1-0.3,0.2-0.5,0.3c0,0,0,0,0,0c0,0,0,0,0,0c0,0,0,0,0,0c0-0.1,0-0.2,0-0.2
					c0.1-0.3,0.2-0.6,0.4-0.8c0.1-0.2,0.2-0.3,0.3-0.5c0.1-0.1,0.2-0.1,0.2-0.2c0.1-0.1,0-0.2-0.2-0.2c-0.2,0-0.4,0.1-0.6,0.2
					c-0.1,0.1-0.2,0.2-0.3,0.3c-0.1,0.1-0.3,0.2-0.4,0.3c-0.1,0.1-0.2,0.1-0.4,0.2c0,0,0,0,0,0c0.1-0.4,0.3-0.8,0.4-1.1
					c0.1-0.3-0.7-0.1-0.8,0.1c-0.1,0.4-0.2,0.8-0.4,1.2c-0.2,0.1-0.4,0.2-0.6,0.3c0,0,0,0-0.1,0c0,0,0,0,0,0c0,0,0,0,0,0
					c0,0,0,0,0,0c0,0,0-0.1,0-0.1c0-0.3,0.1-0.6,0.2-0.9c0-0.1,0.1-0.3,0.2-0.4c0.1-0.2,0.2-0.3,0.2-0.5c0.1-0.1-0.2-0.1-0.3-0.1
					c-0.2,0-0.4,0.1-0.5,0.2c-0.1,0.1-0.2,0.3-0.2,0.4c-0.2,0.3-0.4,0.7-0.6,1c0,0-0.1,0.1-0.1,0.1c-0.1,0.1-0.1,0.1-0.1,0.1
					c0,0,0,0,0,0c0,0-0.1,0-0.1,0c-0.1,0-0.1-0.3,0-0.6c0,0,0,0,0-0.1c0,0,0-0.1,0-0.1c0.1-0.4,0.3-0.8,0.4-1.2
					c0.1-0.2-0.8,0-0.8,0.1c-0.1,0.4-0.2,0.8-0.4,1.2c0,0,0,0,0,0c-0.1,0.2-0.2,0.4-0.6,0.4c-0.3,0-0.4-0.1-0.4-0.3
					c0-0.2,0-0.4-0.2-0.6c-0.2-0.2-0.4-0.2-0.7-0.2c0,0,0-0.1,0-0.1c0,0,0-0.1,0-0.1c0.1-0.1,0.2-0.3,0.3-0.4c0,0,0.1-0.1,0.1-0.1
					c0,0,0,0,0,0c0,0,0,0,0,0c0,0,0,0,0,0c0.1,0,0.2,0.1,0.3,0.1c0.3,0.1,1-0.2,0.8-0.3c-0.3-0.2-0.7-0.2-1-0.1
					c-0.2,0-0.4,0.1-0.6,0.2c0,0-0.1,0-0.1,0.1c0-0.3,0-0.5-0.1-0.8c-0.1-0.2-0.8,0.1-0.8,0.3c0.1,0.5,0.1,1,0,1.5c0,0,0,0,0,0
					c-0.1,0.2-0.2,0.4-0.5,0.4c-0.3,0-0.4,0-0.4-0.2c-0.1-0.2,0-0.5-0.2-0.7c-0.1-0.2-0.4-0.2-0.6-0.1c0,0,0-0.1,0-0.1
					c0,0,0-0.1,0-0.1c0.1-0.1,0.1-0.3,0.2-0.4c0,0,0.1-0.1,0.1-0.1c0,0,0,0,0,0h0c0,0,0,0,0,0c0.1,0,0.2,0.1,0.3,0.1
					c0.3,0.1,0.9-0.2,0.7-0.4c-0.3-0.2-0.6-0.2-0.9-0.1c-0.2,0.1-0.4,0.2-0.5,0.3c0,0,0,0-0.1,0.1c0-0.3-0.1-0.5-0.2-0.7
					c-0.1-0.2-0.8,0.2-0.7,0.3c0.2,0.5,0.2,1.1,0.2,1.6c-0.1,0.1-0.2,0.2-0.4,0.4c-0.1,0.1-0.2,0.1-0.2,0.1c0,0,0,0,0,0
					c-0.1,0,0,0-0.1,0c-0.2-0.1-0.2-0.3-0.2-0.5c-0.1-0.4-0.1-0.8-0.1-1.2c0,0,0,0,0,0c0-0.3-0.4-0.4-0.8-0.3c-0.1,0-0.1,0-0.2,0
					c-0.2,0-0.3,0.1-0.4,0.2c-0.1,0.1-0.2,0.1-0.2,0.2c-0.3,0.1-1,0-1.3-0.1c0,0,0,0,0,0c-0.1,0-0.2-0.1-0.3-0.1
					c-0.3-0.1-0.7,0.1-0.9,0.2c-0.1-0.1-0.1-0.3-0.2-0.4c-0.1-0.1-0.4,0-0.5,0.1c-0.1,0.1-0.3,0.2-0.2,0.3c0.3,0.5,0.5,1.1,0.6,1.6
					c-0.1,0.2-0.3,0.4-0.4,0.4c0,0-0.1,0-0.1,0c0,0-0.1,0-0.1-0.1c-0.2-0.2-0.2-0.5-0.3-0.8c-0.1-0.3-0.2-0.5-0.4-0.8
					c-0.1-0.2-0.3-0.3-0.6-0.2c-0.3,0.1-0.4,0.3-0.5,0.5c-0.1-0.1-0.2-0.2-0.4-0.3c-0.2-0.1-0.5,0.1-0.6,0.2
					c-0.1,0.1-0.2,0.2-0.2,0.3c0-0.1-0.1-0.1-0.1-0.2c-0.1-0.2-0.7,0.2-0.6,0.4c0.1,0.1,0.2,0.3,0.2,0.4c0,0.4,0,0.8-0.3,1.2
					c-0.1,0.2-0.2,0.3-0.5,0.3c-0.7,0-1.1-0.6-1.4-0.9c-0.3-0.5-0.5-1-0.3-1.5c0-0.1,0,0,0.1-0.1c0,0,0,0,0,0c0,0,0,0,0,0
					c0,0,0.1,0,0.1,0s0.1,0,0.1,0c0.6-0.1,0.9,0.1,1.1,0.4c0.1,0.2,0.7-0.3,0.5-0.5c-0.2-0.3-0.6-0.6-1.3-0.5
					c-0.5,0.1-0.8,0.3-1,0.5c-0.5,0.5-0.4,1.2-0.2,1.7c0.2,0.5,0.7,1.1,1.4,1.4c0.3,0.1,0.7,0.1,1,0c0.5-0.1,0.7-0.5,0.9-0.8
					c0.1-0.1,0.1-0.2,0.2-0.3c0.1,0.2,0.2,0.5,0.3,0.7c0.1,0.2,0.6-0.2,0.5-0.4c-0.2-0.5-0.3-1-0.4-1.5c0,0,0-0.1,0-0.1c0,0,0,0,0,0
					c0.3,0.2,0.4,0.6,0.5,0.8c0.1,0.1,0.1,0.3,0.2,0.4c0.1,0.2,0.1,0.4,0.2,0.5c0.1,0.2,0.6-0.2,0.5-0.4c0-0.1-0.1-0.3-0.1-0.4
					c-0.1-0.2-0.1-0.4-0.1-0.7c0-0.2,0-0.4,0-0.6c0.1,0.1,0.1,0.1,0.1,0.2c0.2,0.3,0.3,0.5,0.4,0.8c0.1,0.2,0.2,0.9,0.7,0.8
					c0.4-0.1,0.6-0.2,0.9-0.5c0,0,0,0.1,0,0.1c0.2,0.6,0.3,1.2,0.4,1.7c0,0.1,0.2,0.1,0.3,0c0.1-0.1,0.3-0.2,0.3-0.3
					c0-0.4-0.1-0.9-0.2-1.3c0.3,0,0.5-0.1,0.7-0.3c0.5-0.3,0.5-0.8,0.4-1.3c0-0.1,0-0.1-0.1-0.2c0,0,0.1,0,0.1,0c0.1,0,0.3,0,0.4,0
					c-0.1,0.4-0.1,0.8,0.1,1.2c0.1,0.2,0.2,0.4,0.5,0.4c0.4,0.1,0.7-0.1,0.9-0.3c0,0,0,0,0,0c0,0.1,0.1,0.2,0.3,0.2
					c0.2,0.1,0.5,0,0.6-0.1c0.2-0.1,0.4-0.2,0.5-0.3c0,0.1,0,0.2,0,0.3c0,0.3,0.6-0.1,0.6-0.2c0-0.2,0.1-0.4,0.1-0.7
					c0.2,0,0.2,0.3,0.3,0.4c0,0.2,0,0.4,0.3,0.5c0.3,0.1,0.7,0,1.1-0.1c0.1,0,0.1,0,0.2-0.1c0,0.1,0,0.1,0,0.2c0,0.3,0.7,0,0.7-0.2
					c0.1-0.2,0.1-0.4,0.2-0.6c0.2,0.1,0.2,0.3,0.2,0.4c0,0.2,0,0.4,0.3,0.6c0.3,0.1,0.8,0,1.1-0.1c0.1,0,0.2-0.1,0.2-0.1
					c0,0.2,0.1,0.3,0.5,0.4c0.4,0,0.8-0.1,1.1-0.3c0,0.2,0,0.3,0.1,0.4c0,0,0.1,0.1,0.1,0.1c0,0,0,0,0,0c0,0,0,0,0,0
					c0.1,0,0.3,0,0.4,0c0.2,0,0.4-0.1,0.7-0.2c0,0.1-0.1,0.2-0.1,0.3c-0.1,0.1,0.1,0.1,0.3,0.1c0.2,0,0.4-0.1,0.5-0.2
					c0.1-0.2,0.2-0.4,0.5-0.5c0.1-0.1,0.2-0.1,0.4-0.2c0,0,0,0,0,0c0,0,0,0,0,0c-0.2,0.3-0.3,0.7-0.3,1c0,0.1,0.2,0.2,0.2,0.2
					s0.1,0,0.1,0c0.1,0,0.1,0,0.2,0c0.3,0,0.6-0.1,0.9-0.2c0,0.2,0.1,0.4,0.4,0.5c0.4,0.1,0.9-0.1,1.2-0.2c0.3-0.2,0.6-0.4,0.8-0.7
					C155.2,71,155.6,70.3,154.8,70z M129.9,69.1C129.9,69.1,129.9,69.1,129.9,69.1C129.9,69.1,129.9,69.1,129.9,69.1
					C129.9,69.1,129.9,69.1,129.9,69.1z M136.8,69.1C136.8,69,136.8,69,136.8,69.1L136.8,69.1z M137.7,70.6
					C137.7,70.6,137.7,70.6,137.7,70.6L137.7,70.6z M137.6,70.6C137.6,70.6,137.6,70.6,137.6,70.6C137.6,70.6,137.6,70.6,137.6,70.6
					c-0.3,0.1-0.5-0.1-0.5-0.2c0,0,0,0,0,0c-0.1-0.3-0.2-0.6-0.3-1c0,0,0,0,0,0c0-0.1,0-0.2,0-0.3c0,0,0,0,0,0c0,0,0,0,0,0
					c0.1,0,0.2,0,0.3,0.1c0.3,0.2,0.4,0.4,0.5,0.7C137.7,70.1,137.8,70.4,137.6,70.6z M140,70.5c0,0-0.1,0-0.1,0
					c-0.1,0-0.2-0.2-0.3-0.3c-0.2-0.3-0.2-0.7-0.1-1c0-0.1,0.1-0.1,0.1-0.2c0.1,0,0.1-0.1,0.2-0.1c0,0,0,0,0.1,0
					c0.2,0,0.3,0.1,0.3,0.2c0,0.4,0.1,0.9,0,1.3C140,70.4,140,70.4,140,70.5z M152.1,71.5L152.1,71.5
					C152.1,71.5,152.1,71.5,152.1,71.5C152.1,71.5,152.1,71.5,152.1,71.5z M153.5,71.9C153.5,71.9,153.5,71.9,153.5,71.9L153.5,71.9
					z M153.7,71.8c0,0-0.1,0.1-0.2,0.1c-0.1-0.1-0.1-0.2-0.1-0.3c0-0.2,0.1-0.4,0.2-0.6c0.1-0.2,0.2-0.4,0.4-0.5
					c0,0,0.1-0.1,0.2-0.1c0.3,0.2,0.1,0.7,0,0.9C154.1,71.4,153.9,71.6,153.7,71.8z"/>
			</g>
			<g>
				<ellipse class="st7" cx="127.9" cy="77.2" rx="5.6" ry="3.6"/>
				<path class="st2" d="M124.1,76.9c0.2-0.1,0.4-0.3,0.5-0.5c0.1-0.1,0.2-0.1,0.2-0.2c0.1-0.1,0.1-0.1,0,0c0,0.1,0,0.2,0,0.3
					c0,0.6,0,1.3-0.1,1.9c0,0.2,0.6-0.1,0.6-0.2c0.1-0.4,0.1-0.8,0.1-1.2c0-0.2,0.2-1.1-0.1-1.2c-0.7-0.1-1.3,0.8-1.7,1.1
					C123.4,77.1,123.9,77.1,124.1,76.9L124.1,76.9z"/>
				<path class="st2" d="M127.2,76.9c-0.3-0.1-0.9-0.5-0.4-0.7c0.2-0.1,0.4,0,0.6,0c0.5,0.1,0.1,0.4-0.1,0.5c-0.1,0.1-1,0.5-0.6,0.7
					c0.4,0.2,1.2,0,1.2,0.4c0,0.3-0.8,0.3-1.1,0.2c-0.5-0.2-0.5-0.5,0.1-0.7c0.2-0.1,0.5-0.5,0-0.3c-0.5,0.2-1.1,0.5-1.1,0.9
					c0,0.3,0.4,0.6,0.9,0.6c0.6,0,1.3-0.2,1.6-0.5c0.3-0.3,0.3-0.7-0.3-0.8c-0.2,0-0.7-0.1-0.8,0c0.2-0.2,0.6-0.3,0.8-0.5
					c0.4-0.4,0.3-0.7-0.5-0.8c-0.6-0.1-1.2,0.2-1.5,0.5c-0.4,0.4,0,0.8,0.6,1C126.9,77.4,127.5,77,127.2,76.9L127.2,76.9z"/>
				<g>
					<path class="st2" d="M131.5,76.1c-0.7,0.8-1.6,1.5-2.5,2.2c-0.4,0.3,0.2,0.3,0.5,0.1c0.9-0.8,1.8-1.5,2.6-2.3
						C132.4,75.7,131.7,75.9,131.5,76.1L131.5,76.1z"/>
					<path class="st2" d="M130.2,75.9c-0.4,0-0.8,0.3-0.8,0.5c-0.1,0.2,0.2,0.5,0.6,0.5C130.7,76.9,131.2,75.9,130.2,75.9
						c-0.2,0-0.5,0.3-0.3,0.3c0.2,0,0.3,0.1,0.4,0.2c0,0,0,0.1,0,0.2c0,0,0,0,0,0c0,0-0.1,0-0.1,0c-0.2,0-0.3-0.1-0.3-0.2
						c0-0.1,0-0.1,0-0.2c0,0,0,0,0,0c0,0,0.1,0,0.1,0C130.1,76.2,130.5,75.9,130.2,75.9z"/>
					<path class="st2" d="M131.4,77.5c-0.4,0-0.8,0.3-0.8,0.5c-0.1,0.2,0.2,0.5,0.6,0.5C132,78.5,132.4,77.5,131.4,77.5
						c-0.2,0-0.5,0.3-0.3,0.3c0.2,0,0.3,0.1,0.4,0.2c0,0,0,0.1,0,0.1c0,0,0,0,0,0c0,0-0.1,0-0.1,0c-0.2,0-0.3-0.1-0.3-0.2
						c0-0.1,0-0.1,0-0.2c0,0,0,0,0,0c0,0,0.1,0,0.1,0C131.4,77.8,131.7,77.5,131.4,77.5z"/>
				</g>
			</g>
			<g>
				<path class="st8" d="M120.3,62.2c-0.1,0-0.2-0.1-0.3-0.1c-0.4-0.1-0.7,0.1-1,0.1c-0.9,0-1.2,0-2.2-0.2c0-0.6,0.5-0.9,0.7-1.3
					c0.2-0.4-0.1-0.8-0.1-1.3c0-0.3,0-0.5,0-0.8c-0.3,0.2-0.2,0.7-0.2,0.9c-0.1-0.3-0.1-0.8-0.3-1.1c-0.1,0.3,0,0.8,0,1.1
					c-0.1-0.3-0.2-0.7-0.4-0.9c-0.2,0.3,0.1,0.8,0.1,1c-0.2-0.3-0.3-0.6-0.5-0.8c-0.1,0.4,0.2,0.7,0.2,0.9c-0.2-0.2-0.3-0.5-0.5-0.6
					c0,0.2,0.2,0.5,0.4,0.7c-0.2-0.1-0.3-0.3-0.6-0.3c0,0.2,0.2,0.3,0.3,0.4c-0.2-0.1-0.3-0.2-0.5-0.2c0,0.2,0.2,0.2,0.3,0.4
					c-0.1-0.1-0.2-0.1-0.4-0.2c0,0.1,0.3,0.2,0.2,0.3c0,0-0.2-0.1-0.2,0c0,0,0.2,0.1,0.1,0.1c-0.1,0-0.1,0-0.2,0
					c0,0.1,0.1,0.1,0.1,0.2c-0.1,0-0.1,0-0.1,0c0,0.1,0.1,0,0.1,0.1c-0.7,0.5-0.3,1-0.4,1.6c0-0.1-0.6-0.2-1.1-0.3
					c-0.3-0.1-0.3-0.3-0.5-0.3c0,0,0.1,0,0.1-0.1c-0.1,0-0.2,0-0.2-0.1c0.1,0,0.3,0,0.3,0c-0.1,0-0.5-0.1-0.4-0.2
					c0.2,0,0.4,0.1,0.5,0.1c-0.2-0.1-0.6-0.2-0.6-0.3c0.2,0,0.5,0.2,0.7,0.1c-0.3-0.1-0.7-0.3-0.8-0.4c0.2,0.1,0.5,0.2,0.7,0.2
					c-0.4-0.1-0.7-0.3-1-0.3c0.2,0.2,0.7,0.3,0.8,0.5c-0.3-0.1-0.6-0.2-0.9-0.3c0.1,0.2,0.5,0.3,0.8,0.4c-0.3,0-0.4-0.1-0.7-0.1
					c0.1,0.2,0.5,0.1,0.7,0.3c-0.1,0-0.3,0-0.5,0c0,0.1,0.3,0.1,0.5,0.2c-0.2,0-0.3,0-0.4,0.1c0.1,0.1,0.3,0,0.4,0.1
					c-0.1,0-0.2,0-0.2,0.1c0,0,0.2,0,0.2,0c-0.1,0-0.1,0-0.1,0.1c0.1,0,0.2,0,0.2,0c0,0-0.1,0-0.1,0.1c0.4,0.1,0.6,0.5,1.2,0.7
					c-0.3,0.1,0.3,0.3-3.2,1c0.1,0,1.5-0.2,1.9-0.3c0.4-0.1,0.9-0.2,1.3-0.3c0.1,0,0.2,0,0.3-0.1c0.7,0,1.4,0,2.1-0.2
					c-0.5,0.1-1.4,0.1-1.8-0.1c0.5-0.5,0.1-1.6,0.5-1.9c0.4-0.2,1-1,1.7-0.3c0.1,0.1,0.1,0.3-0.1,0.5c-0.3,0.3-0.5,0.5-0.5,1.2
					c0,0.1,0,0.3-0.4,0.3c1.5,0.2,1.9,0.1,2.8,0c0.3,0,0.7-0.2,0.7,0c0,0.1-0.3,0.1-0.5,0.1c-0.4,0,0.2,0.1,0.4,0.1
					c0.1,0,0.9-0.1,1.3-0.1C120.7,62.3,120.6,62.3,120.3,62.2z"/>
				<path class="st8" d="M115.9,57.3c-3.4,0-6.2,1.8-6.2,4c0,2.2,2.8,4,6.2,4c3.4,0,6.2-1.8,6.2-4C122.1,59.1,119.3,57.3,115.9,57.3
					 M115.9,57.5c3.3,0,6,1.7,6,3.8c0,2.1-2.7,3.8-6,3.8c-3.3,0-6-1.7-6-3.8C109.9,59.2,112.6,57.5,115.9,57.5"/>
			</g>
		</g>
	</g>
</g>
<g id="doma">
</g>
<g id="butylka_3">
</g>
<g id="butylka_2">
</g>
<g id="butylka_1">
</g>
<g id="vanna_2">
</g>
<g id="sneg">
</g>
<g id="vanna_1">
</g>
<g id="shariki_2">
</g>
<g id="shariki_1">
</g>
<g id="voronka">
</g>
<g id="gradusnik">
</g>
<g id="kolba_2">
</g>
<g id="kolba_1">
</g>
<g id="probirki">
</g>
<g id="lupa">
</g>
<g id="zavod">
</g>
<g id="blank">
</g>
<g id="ticks">
</g>
<g id="car">
</g>
</svg>
