<?xml version="1.0" encoding="utf-8"?>
<!-- Generator: Adobe Illustrator 19.0.0, SVG Export Plug-In . SVG Version: 6.00 Build 0)  -->
<svg version="1.1" xmlns="http://www.w3.org/2000/svg" xmlns:xlink="http://www.w3.org/1999/xlink" x="0px" y="0px"
	 viewBox="0 0 1280 650" style="enable-background:new 0 0 1280 800;" xml:space="preserve">
<style type="text/css">
	.st0{fill:#61BB46;}
	.st1{fill:#FFD83E;}
	.st2{fill:#351101;}
	.st3{fill:#FFFFFF;}
	.st4{fill:#A5A4A4;}
	.st5{fill:#D1D1D1;}
	.st6{fill:#C3803A;}
	.st7{fill:#9B4E42;}
	.st8{fill:#873D42;}
	.st9{fill:#912813;}
	.st10{fill:#FFD33A;}
	.st11{fill:#529657;}
	.st12{fill:#3D7C35;}
	.st13{fill:#EA425B;}
	.st14{fill:#2D2E3A;}
	.st15{fill:#B5A596;}
	.st16{fill:#E8C3B8;}
	.st17{fill:#C4BCB5;}
	.st18{fill:#C9BFB5;}
	.st19{fill:#E0D9C6;}
	.st20{fill:#EDEBE6;}
	.st21{fill:#D0A3A4;}
	.st22{fill:#535250;}
	.st23{fill:#231F20;}
</style>
<g id="_x34_04">
	<g id="XMLID_53_">
		<path id="XMLID_60_" class="st0" d="M425.5,443.3h45.4v34.8h-45.4V554h-44.3v-75.9H240V453l138.4-227.9h47V443.3z M287.7,443.3
			h93.5V289.1l-1.4-0.2l-4.3,11.3L287.7,443.3z"/>
		<path id="XMLID_57_" class="st0" d="M719.7,437.9c0,37.2-9.4,66.6-28.3,88.3c-18.9,21.7-44.3,32.5-76.2,32.5
			c-31.8,0-57.2-10.8-76.2-32.5c-19-21.7-28.6-51.1-28.6-88.3v-96.7c0-36.9,9.4-66.2,28.3-88.1c18.9-21.8,44.2-32.7,76-32.7
			c31.9,0,57.4,10.9,76.4,32.7c19,21.8,28.6,51.2,28.6,88.1V437.9z M675.3,332c0-23.6-5.3-42.3-15.8-56
			c-10.5-13.7-25.4-20.6-44.7-20.6c-19.1,0-33.9,6.9-44.3,20.6s-15.6,32.4-15.6,56v115c0,23.6,5.3,42.4,15.9,56.2
			c10.6,13.9,25.4,20.8,44.4,20.8c19.3,0,34.1-6.9,44.5-20.7c10.4-13.8,15.6-32.6,15.6-56.3V332z"/>
		<path id="XMLID_54_" class="st0" d="M948.1,443.3h45.4v34.8h-45.4V554h-44.3v-75.9H762.7V453l138.4-227.9h47V443.3z M810.3,443.3
			h93.5V289.1l-1.4-0.2l-4.3,11.3L810.3,443.3z"/>
	</g>
	<path id="XMLID_5_" class="st0" d="M632.3,541.9c0.1,0.2,0.1,0.4,0.2,0.6c0.3,0.6,0.4,0.9,0.4,1c0.2,0.4,0.3,0.8,0.4,1.3
		c-0.8-3-1.3-4.2-1.4-4.5C632,540.8,632.2,541.3,632.3,541.9z"/>
	<path id="XMLID_4_" class="st0" d="M592.5,520c-8.6-3.4-15.8-9-21.8-16.7c-7.8-10.1-12.7-22.9-14.8-38.3c-6,4.7-14.7,6.5-21.7,4.9
		c-5.5-1.3-11-5.8-13.9-10.7c-3-5.2-3.3-10.3-2.6-16c-3.4-5.7-5.9-12.1-7.5-18.4V438c0,37.2,9.5,66.6,28.6,88.3
		c13.3,15.2,29.8,25.1,49.4,29.6c-1.4-4.1-2.4-8.2-3.2-12.3C583.2,534.4,586,525.7,592.5,520z"/>
	<path id="XMLID_3_" class="st0" d="M510.4,373.9v6.2c0,0,0-0.1,0-0.1c0.3-1,0.7-1.9,1-2.8C511.1,376.1,510.7,375,510.4,373.9z"/>
	<g id="XMLID_1_">
		<g id="XMLID_105_">
			<circle id="XMLID_112_" class="st1" cx="1010.7" cy="181.7" r="6.5"/>
			<circle id="XMLID_111_" class="st1" cx="1023.3" cy="185.4" r="6.5"/>
			
				<rect id="XMLID_110_" x="1010.5" y="177" transform="matrix(0.9587 0.2844 -0.2844 0.9587 94.1813 -281.5969)" class="st1" width="12.9" height="13.1"/>
			
				<rect id="XMLID_109_" x="1010" y="175.8" transform="matrix(0.9587 0.2844 -0.2844 0.9587 93.6798 -280.5064)" class="st2" width="5.5" height="13.1"/>
			
				<rect id="XMLID_108_" x="1018.1" y="178.2" transform="matrix(0.9587 0.2843 -0.2843 0.9587 94.6605 -282.6384)" class="st2" width="5.5" height="13.1"/>
			<path id="XMLID_107_" class="st3" d="M1014.6,182.8c0,0,0.6-11.2,10.7-12.2C1035.3,169.5,1031.3,187.6,1014.6,182.8z"/>
			<path id="XMLID_106_" class="st3" d="M1014.5,183c0,0-5.6,9.7,2.3,16.1C1024.7,205.4,1031.2,188,1014.5,183z"/>
		</g>
		<g id="XMLID_97_">
			<circle id="XMLID_104_" class="st1" cx="763.2" cy="276.1" r="6.5"/>
			<circle id="XMLID_103_" class="st1" cx="750.4" cy="279.1" r="6.5"/>
			
				<rect id="XMLID_102_" x="750.5" y="271" transform="matrix(-0.974 0.2266 -0.2266 -0.974 1557.0454 376.3945)" class="st1" width="12.9" height="13.1"/>
			
				<rect id="XMLID_101_" x="758.4" y="270" transform="matrix(-0.974 0.2266 -0.2266 -0.974 1565.2019 373.5129)" class="st2" width="5.5" height="13.1"/>
			
				<rect id="XMLID_100_" x="750.1" y="272" transform="matrix(-0.974 0.2266 -0.2266 -0.974 1549.3115 379.1288)" class="st2" width="5.5" height="13.1"/>
			<path id="XMLID_99_" class="st3" d="M759.3,277.1c0,0,5,10-3.2,15.9C747.8,298.9,742.4,281.1,759.3,277.1z"/>
			<path id="XMLID_98_" class="st3" d="M759.3,276.9c0,0,0.1-11.2-9.9-12.8S742.3,280.7,759.3,276.9z"/>
		</g>
		<g id="XMLID_89_">
			<circle id="XMLID_96_" class="st1" cx="999.8" cy="318.9" r="6.5"/>
			<circle id="XMLID_95_" class="st1" cx="990.8" cy="328.4" r="6.5"/>
			
				<rect id="XMLID_94_" x="988.9" y="317.1" transform="matrix(-0.6873 0.7264 -0.7264 -0.6873 1914.488 -176.9749)" class="st1" width="12.9" height="13.1"/>
			
				<rect id="XMLID_93_" x="995.6" y="313.9" transform="matrix(-0.6874 0.7263 -0.7263 -0.6874 1917.2902 -184.4135)" class="st2" width="5.5" height="13.1"/>
			
				<rect id="XMLID_92_" x="989.8" y="320.1" transform="matrix(-0.6873 0.7264 -0.7264 -0.6873 1911.865 -169.861)" class="st2" width="5.5" height="13.1"/>
			<path id="XMLID_91_" class="st3" d="M997.1,321.9c0,0,9.7,5.6,6.1,15.1C999.5,346.4,985.2,334.6,997.1,321.9z"/>
			<path id="XMLID_90_" class="st3" d="M997,321.7c0,0-6.1-9.4-15.4-5.2C972.3,320.7,984.9,334.3,997,321.7z"/>
		</g>
		<g id="XMLID_81_">
			<circle id="XMLID_88_" class="st1" cx="905" cy="210.2" r="6.5"/>
			<circle id="XMLID_87_" class="st1" cx="915.5" cy="202.4" r="6.5"/>
			
				<rect id="XMLID_86_" x="903.8" y="199.8" transform="matrix(0.8019 -0.5974 0.5974 0.8019 56.9854 584.6208)" class="st1" width="12.9" height="13.1"/>
			
				<rect id="XMLID_85_" x="903.9" y="202.4" transform="matrix(0.802 -0.5973 0.5973 0.802 54.6934 582.9492)" class="st2" width="5.5" height="13.1"/>
			
				<rect id="XMLID_84_" x="910.7" y="197.4" transform="matrix(0.8019 -0.5974 0.5974 0.8019 59.1333 586.1475)" class="st2" width="5.5" height="13.1"/>
			<path id="XMLID_83_" class="st3" d="M908.1,207.8c0,0-8.6-7.2-3.4-15.9C910,183.2,922.1,197.3,908.1,207.8z"/>
			<path id="XMLID_82_" class="st3" d="M908.3,207.9c0,0,4.4,10.3,14.2,7.8S922.3,197.6,908.3,207.9z"/>
		</g>
	</g>
</g>
<g id="chiken">
	<g id="XMLID_63_">
		<rect id="XMLID_80_" x="391" y="217" class="st4" width="1" height="8"/>
		<path id="XMLID_79_" class="st4" d="M399,224.7c0,0.2-0.2,0.3-0.4,0.3h-8.8c-0.3,0-0.8-0.1-0.8-0.3v-0.1c0-0.2,0.5-0.6,0.8-0.6
			h8.8c0.3,0,0.4,0.4,0.4,0.6V224.7z"/>
		<path id="XMLID_78_" class="st4" d="M391.4,224c-0.1-0.4,0.2-0.7,0.5-0.8l7.7-1.7c0.4-0.1,0.7,0.2,0.8,0.5l0,0.1
			c0.1,0.4-0.2,0.7-0.5,0.8l-7.7,1.7c-0.4,0.1-0.7-0.2-0.8-0.5L391.4,224z"/>
		<path id="XMLID_77_" class="st4" d="M395,224.5c0,0.3-0.2,0.5-0.5,0.5h-8.8c-0.3,0-0.5-0.2-0.5-0.5l0,0c0-0.3,0.2-0.5,0.5-0.5h8.8
			C394.8,224,395,224.2,395,224.5L395,224.5z"/>
		<rect id="XMLID_76_" x="393" y="217" class="st5" width="1" height="11"/>
		<path id="XMLID_75_" class="st6" d="M403.3,208c0,0-4.6,5.5-9.8,8.1c-5.1,2.6-11.7-7-11.7-9.5c0-2.5,17-1.2,17-1.2L403.3,208z"/>
		<path id="XMLID_74_" class="st7" d="M416.5,154c1.7,0,3.2,1.2,3.6,2.8c0.3-0.2,0.7-0.3,1.1-0.3c1.1,0,2,0.9,2,2c0,1.1-0.9,2-2,2
			c-0.6,0-1.2-0.3-1.6-0.7c-0.7,1-1.8,1.7-3.2,1.7c-2.1,0-3.8-1.7-3.8-3.8C412.8,155.7,414.4,154,416.5,154z"/>
		<path id="XMLID_73_" class="st8" d="M424.2,170.6c0,0,4.7,4.2,2.1,6.1c-2.6,1.9-3.8-2.7-3.6-4.8
			C422.9,169.8,424.2,170.6,424.2,170.6z"/>
		<path id="XMLID_72_" class="st7" d="M424,172.2c0,0,2.8,5.6-0.3,6.4c-3.1,0.8-2.6-3.9-1.6-5.8C423.1,171,424,172.2,424,172.2z"/>
		<polygon id="XMLID_71_" class="st9" points="433,166.1 426,168.7 426,163.8 		"/>
		<path id="XMLID_70_" class="st10" d="M369.7,183.7c-2.2-3.9-0.7-6.1-0.7-6.1c0.8,2.7,1.4,2.4,1.4,2.4c-2-3.2-1.1-7-1.1-7
			c7.2,11.4,17.7,8.2,17.7,8.2v0c0-0.3,1.3-0.6,2-0.8c1-0.5,2.4-0.9,4.8-1c0,0,0,0,0,0c0.6-0.1,1.1-0.1,1.7-0.1
			c3.7-0.4,6-1.2,7.3-1.9c6.5-4.5,11.2-13.9,11.2-13.9l0,0c1.1-2.3,3.4-3.9,6.1-3.9c3.7,0,6.8,3,6.8,6.7c0,2.8-1.7,5.1-4.1,6.2l0,0
			c-4.3,4.4-5.3,22.8-5.3,22.8c0,8.9-9.3,16.1-20.8,16.1c-5.1,0-9.7-1.4-13.3-3.7c0,0,0,0,0,0c-9.2-4.9-15.2-26.1-15.2-26.1
			C369.1,183.8,369.7,183.7,369.7,183.7z"/>
		<circle id="XMLID_69_" cx="422.4" cy="164.7" r="1.2"/>
		<circle id="XMLID_68_" class="st3" cx="422.5" cy="163.9" r="0.4"/>
		<path id="XMLID_67_" class="st10" d="M405.9,209.8c0,0-4.6,5.5-9.8,8.1c-5.1,2.6-11.7-7-11.7-9.5c0-2.5,17-1.2,17-1.2L405.9,209.8
			z"/>
		<path id="XMLID_66_" class="st5" d="M402,228.5c0,0.3-0.2,0.5-0.5,0.5h-9.1c-0.3,0-0.5-0.2-0.5-0.5v-0.1c0-0.3,0.2-0.5,0.5-0.5
			h9.1C401.8,228,402,228.2,402,228.5L402,228.5z"/>
		<path id="XMLID_65_" class="st5" d="M393.1,228.6c-0.1-0.4,0.2-0.7,0.5-0.8l7.7-1.7c0.4-0.1,0.7,0.1,0.8,0.5l0,0.1
			c0.1,0.4-0.2,0.7-0.5,0.8l-7.7,1.7c-0.4,0.1-0.7-0.2-0.8-0.5L393.1,228.6z"/>
		<path id="XMLID_64_" class="st5" d="M399,228.5c0,0.3-0.2,0.5-0.5,0.5h-9.1c-0.3,0-0.5-0.2-0.5-0.5v-0.1c0-0.3,0.2-0.5,0.5-0.5
			h9.1C398.8,228,399,228.2,399,228.5L399,228.5z"/>
	</g>
</g>
<g id="berries">
	<g id="XMLID_114_">
		<path id="XMLID_119_" class="st11" d="M995.4,536.4c-0.9-0.1-14.6-1.3-24.6,8.3c0.8-13.8-9.1-23.5-9.8-24.1v-0.1
			c0,0-10.6,9.9-9.8,24.2c-10-9.6-23.8-8.4-24.6-8.3l-0.1-0.1c0,0,1.1,30.2,34.4,29.7l0.1,0v0c0,0,0,0,0,0l0,0c0,0,0,0,0,0
			c0,0,0,0,0,0c0,0,0,0,0,0l0.1-0.1C994.3,566.5,995.4,536.3,995.4,536.4L995.4,536.4z"/>
		<path id="XMLID_118_" class="st12" d="M995.4,536.4c-0.9-0.1-14.6-1.3-24.6,8.3c0.8-13.8-9.1-23.5-9.8-24.1v-0.1c0,0,0,0,0,0v45.5
			c0,0,0,0,0,0c0,0,0,0,0,0l0.1-0.1C994.3,566.5,995.4,536.3,995.4,536.4L995.4,536.4z"/>
		<circle id="XMLID_117_" class="st13" cx="942.8" cy="523.9" r="6.9"/>
		<circle id="XMLID_116_" class="st13" cx="979.1" cy="523.9" r="6.9"/>
		<circle id="XMLID_115_" class="st13" cx="960.8" cy="510.8" r="6.9"/>
	</g>
</g>
<g id="cow">
	<g id="XMLID_6_">
		<path id="XMLID_52_" class="st14" d="M789.8,402.2c0,0,23.2-4.2,23.2,21.8c0,26,0,110.5,0,110.5s-0.9,4.5-1.8-4.3
			c-0.9-8.7-2.8-79.1-2.8-79.1s-0.3-39-14.3-38.4"/>
		<path id="XMLID_51_" class="st15" d="M769,575.3c0,4.1-3.6,7.7-7.8,7.7h-0.5c-4.2,0-8.7-3.5-8.7-7.7v-76.8c0-4.1,4.6-7.5,8.7-7.5
			h0.5c4.2,0,7.8,3.4,7.8,7.5V575.3z"/>
		<circle id="XMLID_50_" class="st16" cx="761.3" cy="519.6" r="27"/>
		<path id="XMLID_49_" class="st15" d="M611,572.7c0,4-3.6,7.3-8,7.3H603c-4.4,0-8-3.3-8-7.3v-77.4c0-4,3.6-7.3,8-7.3h0.1
			c4.4,0,8,3.3,8,7.3V572.7z"/>
		<path id="XMLID_48_" class="st17" d="M637,572.4c0,4.2-3.3,7.6-7.5,7.6h-0.6c-4.2,0-7.9-3.3-7.9-7.6v-77c0-4.2,3.7-7.4,7.9-7.4
			h0.6c4.2,0,7.5,3.2,7.5,7.4V572.4z"/>
		<path id="XMLID_47_" class="st17" d="M802,485.7c0,15.2-13.7,27.3-30.8,27.3H611.4c-17.2,0-29.4-12.1-29.4-27.3v-66.1
			c0-15.2,12.2-29.6,29.4-29.6h159.7c17.2,0,30.8,14.4,30.8,29.6V485.7z"/>
		<path id="XMLID_46_" class="st18" d="M763.4,509.8c0,0,8.6,12.4,19.2,18.2c10.6,5.7,15.6-5.8,15.6-5.8s-3.4-10.8,2.1-35
			c5.4-24.1-15.6-7.3-15.6-7.3L781,489l-17.6,19.4"/>
		<circle id="XMLID_45_" class="st14" cx="620.1" cy="422.9" r="24.7"/>
		<circle id="XMLID_44_" class="st14" cx="607.6" cy="447.6" r="11.6"/>
		<circle id="XMLID_43_" class="st14" cx="782.4" cy="452.1" r="11.6"/>
		<circle id="XMLID_42_" class="st14" cx="595" cy="472.8" r="8.9"/>
		<path id="XMLID_41_" class="st14" d="M615.9,482.9c0,2.3-1.8,4.1-4.1,4.1c-2.3,0-4.1-1.8-4.1-4.1c0-2.3,1.8-4.1,4.1-4.1
			C614,478.8,615.9,480.6,615.9,482.9z"/>
		<circle id="XMLID_40_" class="st14" cx="788.3" cy="439" r="4.1"/>
		<circle id="XMLID_39_" class="st14" cx="669.5" cy="452.1" r="11.6"/>
		<circle id="XMLID_38_" class="st14" cx="657.8" cy="409.9" r="11.6"/>
		<circle id="XMLID_37_" class="st14" cx="757.1" cy="416" r="10.5"/>
		<circle id="XMLID_36_" class="st14" cx="720.3" cy="439.3" r="7.8"/>
		<circle id="XMLID_35_" class="st14" cx="754.9" cy="468.5" r="33.3"/>
		<circle id="XMLID_34_" class="st14" cx="720.2" cy="478.6" r="15.1"/>
		<path id="XMLID_33_" class="st18" d="M782.6,521.1v3.2v49.5c0,4.3,3.5,7.8,7.8,7.8c4.3,0,7.8-3.5,7.8-7.8v-51.9
			C792.9,521.6,787.8,521.3,782.6,521.1z"/>
		<path id="XMLID_32_" class="st14" d="M557.8,366c0,0-16.7,4-21.1-20h-1.6c0,0-3.3,20.3,20.5,30.2
			C555.6,376.2,566.7,372.7,557.8,366z"/>
		<path id="XMLID_31_" class="st14" d="M603.8,366c0,0,16.7,4,21.1-20h1.6c0,0,3.3,20.3-20.5,30.2C606.1,376.2,595,372.7,603.8,366z
			"/>
		<path id="XMLID_30_" class="st19" d="M551.7,383.5c0,0-3.9-11.2-25.5-6.1c0,0-1.5,16,12.9,19.8c0,0,7.8,1.8,14-1.1
			c0,0,1.8-0.1,1.8,2.1V388L551.7,383.5z"/>
		<path id="XMLID_29_" class="st20" d="M609,438.6c0,5.4-4.7,9.4-10.1,9.4h-35c-5.4,0-9-4-9-9.4v-61.3c0-5.4,3.6-9.3,9-9.3h35
			c5.4,0,10.1,3.9,10.1,9.3V438.6z"/>
		<path id="XMLID_28_" class="st19" d="M608.2,380.5c0-4.3,1.2-14.5-5.9-14.5H587h-6.1h-0.5h-6.1H559c-7.1,0-5.9,10.2-5.9,14.5
			c0,4.3-5.3,3-5.3,3l5.5,7.7c13.6,0,15.7,14.9,15.7,14.9v20.4v2.6h10.3h2.8H595v-2.6v-20.4c0,0,0.7-15,14.3-15l4.7-7.6
			C614.1,383.5,608.2,384.8,608.2,380.5z"/>
		<path id="XMLID_27_" class="st21" d="M580.6,425.2c-23.2,0-19.6,8.2-19.6,15.4s6.6,5.4,6.6,5.4c3.7,9.1,12.9,7.9,12.9,7.9
			s9,1.2,12.7-7.9c0,0,6.8,1.7,6.8-5.4S603.8,425.2,580.6,425.2z"/>
		<path id="XMLID_26_" class="st22" d="M594,442c0,2.2-1.9,4-4.1,4h-20.7c-2.2,0-4.2-1.8-4.2-4v-9c0-2.2,1.9-4,4.2-4h20.7
			c2.2,0,4.1,1.7,4.1,4V442z"/>
		<g id="XMLID_23_">
			<path id="XMLID_25_" class="st22" d="M572.4,434.1c0,0,0.1,2.9,2.8,2.8"/>
			<path id="XMLID_24_" class="st23" d="M575,438.6c-1.1,0-2-0.3-2.7-1c-1.4-1.2-1.5-3.1-1.5-3.4c0-0.9,0.7-1.7,1.6-1.7
				c0.9-0.1,1.7,0.6,1.7,1.5c0,0.6,0.3,1.3,1.1,1.3c0.9-0.1,1.7,0.6,1.7,1.5c0.1,0.9-0.6,1.7-1.5,1.7
				C575.2,438.6,575.1,438.6,575,438.6z"/>
		</g>
		<g id="XMLID_20_">
			<path id="XMLID_22_" class="st22" d="M587.2,434.1c0,0-0.1,2.9-2.8,2.8"/>
			<path id="XMLID_21_" class="st23" d="M584.5,438.6c-0.1,0-0.2,0-0.3,0c-0.9,0-1.6-0.8-1.5-1.7c0-0.9,0.8-1.6,1.7-1.5
				c0.4,0,0.6-0.1,0.6-0.2c0.3-0.3,0.4-0.9,0.4-1.1c0-0.9,0.8-1.6,1.7-1.6c0.9,0,1.6,0.8,1.6,1.7c0,0.2-0.1,2.1-1.5,3.4
				C586.5,438.2,585.6,438.6,584.5,438.6z"/>
		</g>
		<circle id="XMLID_19_" cx="560.5" cy="400.6" r="3.4"/>
		<circle id="XMLID_18_" cx="603.1" cy="400.6" r="3.4"/>
		<circle id="XMLID_17_" class="st3" cx="559.4" cy="399.4" r="1.3"/>
		<circle id="XMLID_16_" class="st3" cx="602" cy="399.4" r="1.3"/>
		<path id="XMLID_15_" class="st18" d="M527.6,379c0,0,21.5-6.9,23.8,13.2C551.3,392.3,531.9,403.7,527.6,379z"/>
		<path id="XMLID_14_" class="st19" d="M549.5,381.1c0,0,1.6,2.2,2.7,1.9c1.1-0.3,0.4,1,0.4,1l-1,0.6l-0.9-1L549.5,381.1"/>
		<path id="XMLID_13_" class="st19" d="M612.4,381.1c0,0-1.6,2.2-2.7,1.9c-1.1-0.3-0.4,1-0.4,1l1,0.6l0.9-1L612.4,381.1"/>
		<path id="XMLID_12_" class="st16" d="M745,550.5c0,1.4-1.1,2.5-2.5,2.5l0,0c-1.4,0-2.5-1.1-2.5-2.5v-13c0-1.4,1.1-2.5,2.5-2.5l0,0
			c1.4,0,2.5,1.1,2.5,2.5V550.5z"/>
		<path id="XMLID_11_" class="st16" d="M757,555.5c0,1.4-1.1,2.5-2.5,2.5l0,0c-1.4,0-2.5-1.1-2.5-2.5v-13c0-1.4,1.1-2.5,2.5-2.5l0,0
			c1.4,0,2.5,1.1,2.5,2.5V555.5z"/>
		<path id="XMLID_10_" class="st16" d="M769,556.5c0,1.4,0.5,2.5-0.9,2.5h-0.6c-1.4,0-3.5-1.1-3.5-2.5v-14c0-1.4,2.1-2.5,3.5-2.5
			h0.6c1.4,0,0.9,1,0.9,2.5V556.5z"/>
		<path id="XMLID_9_" class="st16" d="M779,550.5c0,1.4-1.1,2.5-2.5,2.5l0,0c-1.4,0-2.5-1.1-2.5-2.5v-13c0-1.4,1.1-2.5,2.5-2.5l0,0
			c1.4,0,2.5,1.1,2.5,2.5V550.5z"/>
		<path id="XMLID_8_" class="st19" d="M636,377.3c-21.6-5.1-25.1,6.1-25.1,6.1l-2.7,4.4l0,3.1h-0.1v7.3l0.2-0.7v0.4
			c0-0.2,0-0.4,0-0.6l0.1-0.5c0.3-1,1.2-1,1.2-1c6.2,2.9,13.3,1.1,13.3,1.1C637.3,393.2,636,377.3,636,377.3z"/>
		<path id="XMLID_7_" class="st18" d="M634.3,379c0,0-21.5-6.9-23.8,13.2C610.5,392.3,630,403.7,634.3,379z"/>
	</g>
</g>
<g id="_x30_">
	<path id="XMLID_2_" class="st0" d="M691.2,253.3c-19-21.8-44.5-32.7-76.4-32.7c-31.8,0-57.1,10.9-76,32.7
		c-18.8,21.7-28.2,50.8-28.3,87.4c3.2-4.4,7.9-7.9,12.9-9.6c12.6-4.1,24.4,4.8,28.5,16.2c0.4,1.1,0.7,2.2,1,3.3
		c0.7,0.2,1.4,0.4,2.1,0.6v-19.2c0-23.6,5.2-42.3,15.6-56s25.1-20.6,44.3-20.6c19.3,0,34.2,6.9,44.7,20.6s15.8,32.4,15.8,56v115
		c0,23.8-5.2,42.6-15.6,56.3c-4.5,6-9.8,10.6-16,14c2.8,2.9,5.2,6.5,5.7,9.9c1.4,8.9,1.9,18-0.2,26.7c16.6-5.1,30.7-14.4,42.3-27.7
		c18.9-21.7,28.3-51.1,28.3-88.3v-96.7C719.7,304.5,710.2,275.1,691.2,253.3z"/>
</g>
</svg>
