<?xml version="1.0" encoding="utf-8"?>
<svg xmlns="http://www.w3.org/2000/svg"
	xmlns:xlink="http://www.w3.org/1999/xlink"
	width="85px" height="85px" viewBox="0 0 85 85">
<path fillRule="evenodd" d="M 70.7 52.99C 70.7 52.99 70.7 53.15 70.7 53.15 70.7 53.15 69.78 53.15 69.78 53.15 69.78 53.15 69.78 53.16 69.78 53.16 69.78 53.16 68.58 53.15 68.58 53.15 68.58 53.15 66.88 53.15 66.88 53.15 66.88 53.15 66.7 53.15 66.7 53.15 66.81 54.08 66.64 55.02 66.17 55.85 65.41 57.18 63.99 58.01 62.46 58.01 61.71 58.01 60.97 57.81 60.32 57.43 59.33 56.85 58.62 55.92 58.33 54.8 58.28 54.62 58.26 54.44 58.24 54.26 58.24 54.26 57.57 54.26 57.57 54.26 57.57 54.26 50.31 54.26 50.31 54.26 50.26 54.27 50.21 54.29 50.15 54.29 50.1 54.29 50.05 54.27 50 54.26 50 54.26 37.8 54.26 37.8 54.26 37.8 54.26 37.42 54.26 37.42 54.26 37.33 54.66 37.19 55.06 36.98 55.43 36.22 56.77 34.79 57.6 33.26 57.6 32.52 57.6 31.78 57.4 31.13 57.02 30.14 56.44 29.43 55.51 29.13 54.39 29.12 54.34 29.12 54.3 29.11 54.26 29.11 54.26 28.82 54.26 28.82 54.26 28.82 54.26 20.27 54.26 20.27 54.26 20.27 54.26 19.07 54.26 19.07 54.26 19.07 54.26 19.07 53.36 19.07 53.36 19.07 53.36 15.99 53.36 15.99 53.36 15.99 53.36 15.99 42.63 15.99 42.63 15.99 41.93 16.25 41.34 16.73 40.93 17.34 40.41 18.21 40.26 18.93 40.24 18.93 40.24 18.93 39.37 18.93 39.37 18.93 39.37 19.07 39.37 19.07 39.37 19.07 39.37 19.07 29.93 19.07 29.93 19.07 28.31 20.37 26.99 21.98 26.99 21.98 26.99 61.73 26.99 61.73 26.99 63.34 26.99 64.64 28.31 64.64 29.93 64.64 29.93 64.64 31.58 64.64 31.58 64.64 31.58 66.23 40.14 66.23 40.14 66.23 40.14 69.43 43.42 69.43 43.42 69.43 43.42 69.78 43.78 69.78 43.78 69.78 43.78 69.78 44.28 69.78 44.28 69.78 44.28 69.78 47.04 69.78 47.04 69.78 47.04 69.91 47.04 69.91 47.04 71.07 47.04 72.01 48 72.01 49.17 72.01 49.17 72.01 51.02 72.01 51.02 72.01 51.91 71.47 52.67 70.7 52.99ZM 19.07 42.46C 19.07 42.46 18.93 42.46 18.93 42.46 18.93 42.46 18.93 41.45 18.93 41.45 18.4 41.47 17.84 41.57 17.5 41.86 17.29 42.04 17.19 42.28 17.19 42.63 17.19 42.63 17.19 52.15 17.19 52.15 17.19 52.15 19.07 52.15 19.07 52.15 19.07 52.15 19.07 42.46 19.07 42.46ZM 60.92 56.38C 61.41 56.66 61.94 56.8 62.46 56.8 63.52 56.8 64.56 56.24 65.13 55.24 65.98 53.75 65.48 51.84 64.01 50.98 63.52 50.7 62.99 50.56 62.47 50.56 61.4 50.56 60.37 51.12 59.79 52.12 58.94 53.61 59.45 55.52 60.92 56.38ZM 50.75 53.04C 50.75 53.04 57.57 53.04 57.57 53.04 57.57 53.04 57.69 52.84 57.69 52.84 57.98 52.33 58.27 51.81 58.57 51.3 58.51 51.21 58.47 51.1 58.47 50.99 58.47 50.99 58.47 31.67 58.47 31.67 58.47 31.67 55.5 31.67 55.5 31.67 55.43 31.67 53.11 31.49 51.76 32.75 51.09 33.37 50.75 34.27 50.75 35.4 50.75 35.4 50.75 53.04 50.75 53.04ZM 31.73 55.97C 32.21 56.25 32.74 56.38 33.26 56.38 34.33 56.38 35.37 55.82 35.94 54.83 36.79 53.34 36.28 51.43 34.81 50.57 34.33 50.28 33.8 50.15 33.27 50.15 32.21 50.15 31.17 50.71 30.6 51.71 29.75 53.2 30.26 55.11 31.73 55.97ZM 63.44 29.93C 63.44 28.98 62.68 28.2 61.73 28.2 61.73 28.2 21.98 28.2 21.98 28.2 21.04 28.2 20.27 28.98 20.27 29.93 20.27 29.93 20.27 40.58 20.27 40.58 20.27 40.58 20.19 40.58 20.19 40.58 20.19 40.58 20.13 40.92 20.13 40.92 20.13 40.92 20.13 41.25 20.13 41.25 20.13 41.25 20.27 41.25 20.27 41.25 20.27 41.25 20.27 53.04 20.27 53.04 20.27 53.04 28.82 53.04 28.82 53.04 28.82 53.04 28.84 52.44 28.84 52.44 28.95 50.35 31.12 48.72 33.18 48.72 35.25 48.72 37.66 50.35 37.78 52.44 37.78 52.44 37.8 53.04 37.8 53.04 37.8 53.04 49.55 53.04 49.55 53.04 49.55 53.04 49.55 35.4 49.55 35.4 49.55 33.91 50.02 32.71 50.95 31.85 52.7 30.23 55.44 30.45 55.55 30.46 55.55 30.46 59.06 30.46 59.06 30.46 59.06 30.46 59.07 30.46 59.07 30.46 59.07 30.46 59.08 30.46 59.08 30.46 59.08 30.46 63.44 30.46 63.44 30.46 63.44 30.46 63.44 29.93 63.44 29.93ZM 68.58 44.28C 68.58 44.28 65.12 40.73 65.12 40.73 65.12 40.73 63.44 31.69 63.44 31.69 63.44 31.69 63.44 31.67 63.44 31.67 63.44 31.67 59.67 31.67 59.67 31.67 59.67 31.67 59.67 49.85 59.67 49.85 60.42 49.21 61.39 48.83 62.42 48.83 63.27 48.83 64.08 49.08 64.76 49.57 65.33 49.97 66.12 50.66 66.58 51.36 66.58 51.36 66.58 51.02 66.58 51.02 66.58 51.02 66.58 49.69 66.58 49.69 66.58 49.69 66.58 49.17 66.58 49.17 66.58 48.03 67.47 47.11 68.58 47.05 68.58 47.05 68.58 44.28 68.58 44.28ZM 68.58 48.28C 68.13 48.33 67.78 48.7 67.78 49.17 67.78 49.17 67.78 49.69 67.78 49.69 67.78 49.69 67.78 51.02 67.78 51.02 67.78 51.02 67.78 51.94 67.78 51.94 67.78 51.94 68.58 51.94 68.58 51.94 68.58 51.94 68.58 48.28 68.58 48.28ZM 70.81 49.17C 70.81 48.66 70.4 48.26 69.91 48.26 69.91 48.26 69.78 48.26 69.78 48.26 69.78 48.26 69.78 51.93 69.78 51.93 69.78 51.93 69.91 51.93 69.91 51.93 70.4 51.93 70.81 51.52 70.81 51.02 70.81 51.02 70.81 49.17 70.81 49.17ZM 47.79 50.25C 47.79 50.25 39.25 50.25 39.25 50.25 38.91 50.25 38.64 49.97 38.64 49.64 38.64 49.3 38.91 49.03 39.25 49.03 39.25 49.03 47.79 49.03 47.79 49.03 48.12 49.03 48.39 49.3 48.39 49.64 48.39 49.97 48.12 50.25 47.79 50.25ZM 47.79 47.4C 47.79 47.4 39.25 47.4 39.25 47.4 38.91 47.4 38.64 47.13 38.64 46.8 38.64 46.46 38.91 46.19 39.25 46.19 39.25 46.19 47.79 46.19 47.79 46.19 48.12 46.19 48.39 46.46 48.39 46.8 48.39 47.13 48.12 47.4 47.79 47.4ZM 42.71 38.53C 42.71 42.08 39.86 44.96 36.35 44.96 32.84 44.96 29.99 42.08 29.99 38.53 29.99 34.98 32.84 32.1 36.35 32.1 36.66 32.1 36.97 32.13 37.27 32.17 37.96 31.34 38.98 30.81 40.13 30.81 42.2 30.81 43.88 32.51 43.88 34.6 43.88 35.73 43.39 36.74 42.61 37.43 42.67 37.79 42.71 38.15 42.71 38.53ZM 36.6 33.34C 36.52 33.33 36.44 33.31 36.35 33.31 33.5 33.31 31.19 35.65 31.19 38.53 31.19 41.41 33.5 43.75 36.35 43.75 39.2 43.75 41.51 41.41 41.51 38.53 41.51 38.4 41.48 38.27 41.47 38.14 41.05 38.3 40.6 38.4 40.13 38.4 38.06 38.4 36.37 36.7 36.37 34.6 36.37 34.16 36.46 33.74 36.6 33.34ZM 37.8 33.55C 37.66 33.87 37.57 34.23 37.57 34.6 37.57 36.03 38.72 37.19 40.13 37.19 40.53 37.19 40.9 37.09 41.23 36.92 40.71 35.3 39.43 34.03 37.8 33.55ZM 42.68 34.6C 42.68 33.18 41.54 32.02 40.13 32.02 39.56 32.02 39.04 32.21 38.62 32.53 40.25 33.16 41.56 34.45 42.23 36.07 42.51 35.66 42.68 35.15 42.68 34.6ZM 26.91 50.25C 26.91 50.25 22.73 50.25 22.73 50.25 22.39 50.25 22.13 49.97 22.13 49.64 22.13 49.3 22.39 49.03 22.73 49.03 22.73 49.03 26.91 49.03 26.91 49.03 27.24 49.03 27.51 49.3 27.51 49.64 27.51 49.97 27.24 50.25 26.91 50.25ZM 26.91 47.4C 26.91 47.4 22.73 47.4 22.73 47.4 22.39 47.4 22.13 47.13 22.13 46.8 22.13 46.46 22.39 46.19 22.73 46.19 22.73 46.19 26.91 46.19 26.91 46.19 27.24 46.19 27.51 46.46 27.51 46.8 27.51 47.13 27.24 47.4 26.91 47.4ZM 33.27 51.16C 34.01 51.16 34.71 51.56 35.08 52.21 35.36 52.7 35.44 53.27 35.29 53.82 35.15 54.37 34.8 54.82 34.32 55.1 34 55.29 33.64 55.39 33.27 55.39 32.52 55.39 31.83 54.98 31.46 54.33 30.88 53.32 31.22 52.02 32.22 51.44 32.54 51.25 32.9 51.16 33.27 51.16ZM 32.5 53.72C 32.66 54.01 32.96 54.17 33.27 54.17 33.42 54.17 33.57 54.13 33.71 54.05 34.14 53.8 34.29 53.25 34.04 52.82 33.88 52.53 33.58 52.37 33.27 52.37 33.12 52.37 32.96 52.41 32.82 52.49 32.4 52.74 32.25 53.29 32.5 53.72ZM 54.58 33.47C 56.14 33.47 57.4 34.75 57.4 36.31 57.4 36.31 57.4 40.13 57.4 40.13 57.4 41.7 56.14 42.97 54.58 42.97 53.03 42.97 51.77 41.7 51.77 40.13 51.77 40.13 51.77 36.31 51.77 36.31 51.77 34.75 53.03 33.47 54.58 33.47ZM 52.97 40.13C 52.97 41.03 53.69 41.76 54.58 41.76 55.47 41.76 56.2 41.03 56.2 40.13 56.2 40.13 56.2 36.31 56.2 36.31 56.2 35.41 55.47 34.68 54.58 34.68 53.69 34.68 52.97 35.41 52.97 36.31 52.97 36.31 52.97 40.13 52.97 40.13ZM 62.46 51.56C 63.21 51.56 63.9 51.96 64.28 52.62 64.56 53.11 64.63 53.68 64.49 54.22 64.34 54.77 63.99 55.23 63.51 55.51 63.19 55.69 62.83 55.79 62.46 55.79 61.72 55.79 61.02 55.39 60.65 54.73 60.08 53.72 60.42 52.43 61.42 51.84 61.74 51.66 62.1 51.56 62.46 51.56ZM 61.69 54.13C 61.86 54.42 62.16 54.58 62.46 54.58 62.62 54.58 62.77 54.54 62.91 54.46 63.34 54.21 63.48 53.66 63.24 53.22 63.07 52.94 62.77 52.77 62.46 52.77 62.31 52.77 62.16 52.81 62.02 52.89 61.59 53.14 61.45 53.69 61.69 54.13Z" fill="rgb(81,81,81)"/><path fillRule="evenodd" d="M 42.5 84C 65.38 84 84 65.38 84 42.5 84 19.62 65.38 1 42.5 1 19.62 1 1 19.62 1 42.5 1 65.38 19.62 84 42.5 84M 42.5 85C 19.03 85-0 65.97-0 42.5-0 19.03 19.03 0 42.5 0 65.97 0 85 19.03 85 42.5 85 65.97 65.97 85 42.5 85 42.5 85 42.5 85 42.5 85Z" fill="rgb(81,81,81)"/></svg>