<?xml version="1.0" encoding="utf-8"?>
<svg xmlns="http://www.w3.org/2000/svg"
	xmlns:xlink="http://www.w3.org/1999/xlink"
	width="85px" height="85px" viewBox="0 0 85 85">
<path fillRule="evenodd" d="M 42.5 84C 65.38 84 84 65.38 84 42.5 84 19.62 65.38 1 42.5 1 19.62 1 1 19.62 1 42.5 1 65.38 19.62 84 42.5 84M 42.5 85C 19.03 85 0 65.97 0 42.5 0 19.03 19.03 0 42.5 0 65.97 0 85 19.03 85 42.5 85 65.97 65.97 85 42.5 85 42.5 85 42.5 85 42.5 85Z" fill="rgb(81,81,81)"/><path fillRule="evenodd" d="M 67.54 47.97C 67.54 47.97 66.56 48.16 66.56 48.16 66.42 48.77 66.23 49.37 65.97 49.96 65.97 49.96 66.7 50.72 66.7 50.72 67.34 51.39 67.36 52.42 66.77 53.12 66.77 53.12 65.37 54.76 65.37 54.76 65.02 55.16 64.51 55.4 63.98 55.4 63.62 55.4 63.27 55.29 62.97 55.1 62.97 55.1 62.06 54.5 62.06 54.5 61.51 54.84 60.93 55.13 60.33 55.36 60.33 55.36 60.3 56.46 60.3 56.46 60.27 57.37 59.55 58.12 58.63 58.2 58.63 58.2 56.47 58.38 56.47 58.38 56.42 58.39 56.37 58.39 56.32 58.39 55.45 58.39 54.7 57.78 54.53 56.94 54.53 56.94 54.29 55.8 54.29 55.8 53.72 55.67 53.16 55.49 52.6 55.25 52.6 55.25 51.77 56.03 51.77 56.03 51.43 56.34 50.99 56.52 50.52 56.52 50.09 56.52 49.68 56.37 49.35 56.09 49.35 56.09 47.69 54.71 47.69 54.71 46.99 54.12 46.84 53.1 47.35 52.33 47.35 52.33 47.99 51.38 47.99 51.38 47.68 50.9 47.42 50.4 47.2 49.89 47.2 49.89 46.06 49.86 46.06 49.86 45.14 49.83 44.38 49.12 44.3 48.21 44.3 48.21 44.12 46.07 44.12 46.07 44.05 45.15 44.67 44.33 45.58 44.15 45.58 44.15 46.61 43.94 46.61 43.94 46.73 43.33 46.91 42.74 47.15 42.16 47.15 42.16 46.42 41.39 46.42 41.39 45.78 40.73 45.76 39.7 46.36 38.99 46.36 38.99 47.75 37.35 47.75 37.35 48.1 36.94 48.61 36.71 49.14 36.71 49.5 36.71 49.85 36.81 50.15 37.01 50.15 37.01 50.96 37.54 50.96 37.54 51.53 37.16 52.15 36.84 52.79 36.58 52.79 36.58 52.82 35.65 52.82 35.65 52.85 34.74 53.57 33.99 54.49 33.91 54.49 33.91 56.65 33.73 56.65 33.73 56.7 33.72 56.75 33.72 56.8 33.72 57.67 33.72 58.42 34.33 58.59 35.17 58.59 35.17 58.78 36.09 58.78 36.09 59.44 36.23 60.08 36.43 60.69 36.7 60.69 36.7 61.36 36.08 61.36 36.08 61.69 35.77 62.14 35.59 62.6 35.59 63.03 35.59 63.45 35.74 63.78 36.02 63.78 36.02 65.43 37.4 65.43 37.4 66.15 38 66.29 39.02 65.76 39.79 65.76 39.79 65.23 40.58 65.23 40.58 65.56 41.1 65.85 41.65 66.08 42.22 66.08 42.22 67.05 42.25 67.05 42.25 67.98 42.28 68.73 42.99 68.81 43.91 68.81 43.91 69 46.05 69 46.05 69.07 46.96 68.44 47.78 67.54 47.97ZM 67.8 43.99C 67.76 43.59 67.43 43.28 67.02 43.26 67.02 43.26 65.36 43.21 65.36 43.21 65.36 43.21 65.24 42.89 65.24 42.89 64.98 42.17 64.63 41.49 64.2 40.86 64.2 40.86 64.01 40.58 64.01 40.58 64.01 40.58 64.92 39.22 64.92 39.22 65.15 38.88 65.09 38.43 64.78 38.17 64.78 38.17 63.12 36.79 63.12 36.79 62.98 36.67 62.79 36.6 62.6 36.6 62.4 36.6 62.2 36.68 62.05 36.81 62.05 36.81 60.88 37.9 60.88 37.9 60.88 37.9 60.57 37.75 60.57 37.75 59.85 37.4 59.07 37.16 58.26 37.01 58.26 37.01 57.92 36.95 57.92 36.95 57.92 36.95 57.6 35.37 57.6 35.37 57.52 34.98 57.15 34.7 56.74 34.73 56.74 34.73 54.58 34.91 54.58 34.91 54.17 34.95 53.86 35.28 53.84 35.68 53.84 35.68 53.79 37.29 53.79 37.29 53.79 37.29 53.46 37.41 53.46 37.41 52.67 37.69 51.93 38.07 51.26 38.55 51.26 38.55 50.98 38.76 50.98 38.76 50.98 38.76 49.59 37.85 49.59 37.85 49.46 37.76 49.3 37.71 49.14 37.71 48.91 37.71 48.68 37.82 48.53 38 48.53 38 47.13 39.64 47.13 39.64 46.87 39.95 46.88 40.41 47.16 40.7 47.16 40.7 48.35 41.96 48.35 41.96 48.35 41.96 48.21 42.26 48.21 42.26 47.9 42.96 47.67 43.7 47.55 44.45 47.55 44.45 47.49 44.79 47.49 44.79 47.49 44.79 45.78 45.14 45.78 45.14 45.38 45.22 45.1 45.58 45.13 45.99 45.13 45.99 45.32 48.12 45.32 48.12 45.35 48.52 45.69 48.84 46.09 48.85 46.09 48.85 47.91 48.91 47.91 48.91 47.91 48.91 48.03 49.22 48.03 49.22 48.28 49.87 48.61 50.5 49.02 51.09 49.02 51.09 49.21 51.37 49.21 51.37 49.21 51.37 48.2 52.89 48.2 52.89 47.97 53.23 48.04 53.68 48.35 53.94 48.35 53.94 50 55.32 50 55.32 50.15 55.44 50.33 55.51 50.52 55.51 50.73 55.51 50.92 55.43 51.07 55.29 51.07 55.29 52.41 54.05 52.41 54.05 52.41 54.05 52.72 54.2 52.72 54.2 53.4 54.51 54.11 54.74 54.82 54.88 54.82 54.88 55.16 54.94 55.16 54.94 55.16 54.94 55.52 56.74 55.52 56.74 55.6 57.13 55.97 57.41 56.38 57.38 56.38 57.38 58.54 57.2 58.54 57.2 58.95 57.16 59.26 56.83 59.28 56.43 59.28 56.43 59.34 54.65 59.34 54.65 59.34 54.65 59.66 54.53 59.66 54.53 60.41 54.27 61.12 53.92 61.77 53.48 61.77 53.48 62.05 53.29 62.05 53.29 62.05 53.29 63.53 54.26 63.53 54.26 63.66 54.34 63.82 54.39 63.98 54.39 64.21 54.39 64.44 54.29 64.59 54.11 64.59 54.11 65.99 52.47 65.99 52.47 66.25 52.16 66.24 51.71 65.96 51.41 65.96 51.41 64.76 50.15 64.76 50.15 64.76 50.15 64.91 49.84 64.91 49.84 65.25 49.13 65.49 48.39 65.62 47.65 65.62 47.65 65.68 47.31 65.68 47.31 65.68 47.31 67.34 46.98 67.34 46.98 67.74 46.9 68.01 46.53 67.98 46.13 67.98 46.13 67.8 43.99 67.8 43.99ZM 57.01 50.65C 56.87 50.66 56.74 50.66 56.6 50.66 54.15 50.66 52.07 48.77 51.87 46.35 51.76 45.1 52.15 43.88 52.97 42.92 53.8 41.96 54.94 41.37 56.21 41.27 56.34 41.26 56.48 41.25 56.61 41.25 59.06 41.25 61.14 43.14 61.34 45.56 61.45 46.81 61.06 48.03 60.24 48.99 59.42 49.96 58.27 50.54 57.01 50.65ZM 56.61 42.26C 56.51 42.26 56.4 42.26 56.29 42.27 55.3 42.35 54.4 42.82 53.75 43.57 53.11 44.33 52.8 45.29 52.88 46.27 53.04 48.17 54.68 49.66 56.6 49.66 56.71 49.66 56.81 49.65 56.92 49.64 57.92 49.56 58.82 49.1 59.46 48.34 60.11 47.59 60.42 46.63 60.33 45.65 60.17 43.75 58.54 42.26 56.61 42.26ZM 47.42 37.16C 47.42 37.16 45.89 37.33 45.89 37.33 45.65 38.1 45.34 38.85 44.94 39.57 44.94 39.57 45.95 40.83 45.95 40.83 46.52 41.55 46.47 42.59 45.81 43.25 45.81 43.25 43.59 45.44 43.59 45.44 43.24 45.78 42.78 45.97 42.29 45.97 41.88 45.97 41.47 45.83 41.15 45.58 41.15 45.58 39.85 44.56 39.85 44.56 39.11 44.95 38.34 45.26 37.55 45.48 37.55 45.48 37.35 47.13 37.35 47.13 37.25 48.05 36.46 48.74 35.53 48.74 35.53 48.74 32.39 48.74 32.39 48.74 31.46 48.74 30.68 48.05 30.57 47.13 30.57 47.13 30.36 45.4 30.36 45.4 29.63 45.17 28.92 44.88 28.25 44.52 28.25 44.52 26.9 45.57 26.9 45.57 26.58 45.83 26.17 45.97 25.76 45.97 25.76 45.97 25.76 45.97 25.76 45.97 25.27 45.97 24.81 45.78 24.46 45.44 24.46 45.44 22.24 43.24 22.24 43.24 21.59 42.58 21.53 41.54 22.1 40.82 22.1 40.82 23.18 39.48 23.18 39.48 22.84 38.84 22.56 38.17 22.33 37.48 22.33 37.48 20.63 37.29 20.63 37.29 19.7 37.18 19 36.4 19 35.48 19 35.48 19 32.38 19 32.38 19 31.45 19.7 30.68 20.63 30.57 20.63 30.57 22.22 30.39 22.22 30.39 22.43 29.62 22.73 28.88 23.1 28.16 23.1 28.16 22.1 26.91 22.1 26.91 21.52 26.18 21.58 25.15 22.24 24.49 22.24 24.49 24.46 22.3 24.46 22.3 24.81 21.95 25.27 21.77 25.76 21.77 26.17 21.77 26.58 21.91 26.9 22.16 26.9 22.16 28.08 23.08 28.08 23.08 28.85 22.65 29.67 22.31 30.52 22.06 30.52 22.06 30.69 20.61 30.69 20.61 30.8 19.69 31.59 19 32.52 19 32.52 19 35.66 19 35.66 19 36.59 19 37.37 19.69 37.48 20.61 37.48 20.61 37.65 22.06 37.65 22.06 38.48 22.3 39.27 22.63 40.02 23.04 40.02 23.04 41.15 22.16 41.15 22.16 41.47 21.91 41.88 21.76 42.29 21.76 42.78 21.76 43.24 21.95 43.59 22.3 43.59 22.3 45.8 24.49 45.8 24.49 46.46 25.15 46.52 26.18 45.94 26.9 45.94 26.9 45.01 28.06 45.01 28.06 45.39 28.77 45.69 29.51 45.92 30.27 45.92 30.27 47.42 30.44 47.42 30.44 48.35 30.55 49.05 31.32 49.05 32.25 49.05 32.25 49.05 35.35 49.05 35.35 49.05 36.27 48.35 37.05 47.42 37.16ZM 48.03 32.25C 48.03 31.83 47.72 31.49 47.3 31.44 47.3 31.44 45.12 31.19 45.12 31.19 45.12 31.19 45.03 30.85 45.03 30.85 44.79 29.96 44.43 29.09 43.96 28.26 43.96 28.26 43.79 27.96 43.79 27.96 43.79 27.96 45.14 26.28 45.14 26.28 45.4 25.96 45.37 25.49 45.08 25.2 45.08 25.2 42.87 23.01 42.87 23.01 42.58 22.73 42.1 22.7 41.78 22.95 41.78 22.95 40.11 24.26 40.11 24.26 40.11 24.26 39.81 24.08 39.81 24.08 38.95 23.58 38.02 23.2 37.05 22.94 37.05 22.94 36.72 22.85 36.72 22.85 36.72 22.85 36.47 20.73 36.47 20.73 36.42 20.32 36.07 20.01 35.66 20.01 35.66 20.01 32.52 20.01 32.52 20.01 32.1 20.01 31.75 20.32 31.71 20.73 31.71 20.73 31.46 22.85 31.46 22.85 31.46 22.85 31.12 22.94 31.12 22.94 30.13 23.2 29.18 23.6 28.29 24.12 28.29 24.12 27.99 24.3 27.99 24.3 27.99 24.3 26.27 22.95 26.27 22.95 25.95 22.7 25.47 22.73 25.18 23.01 25.18 23.01 22.96 25.21 22.96 25.21 22.67 25.5 22.64 25.96 22.9 26.28 22.9 26.28 24.32 28.06 24.32 28.06 24.32 28.06 24.16 28.35 24.16 28.35 23.69 29.18 23.34 30.06 23.11 30.97 23.11 30.97 23.03 31.31 23.03 31.31 23.03 31.31 20.74 31.57 20.74 31.57 20.33 31.62 20.02 31.97 20.02 32.38 20.02 32.38 20.02 35.48 20.02 35.48 20.02 35.89 20.33 36.24 20.74 36.29 20.74 36.29 23.12 36.56 23.12 36.56 23.12 36.56 23.21 36.88 23.21 36.88 23.46 37.72 23.8 38.53 24.23 39.28 24.23 39.28 24.4 39.58 24.4 39.58 24.4 39.58 22.9 41.45 22.9 41.45 22.64 41.77 22.67 42.24 22.96 42.53 22.96 42.53 25.18 44.72 25.18 44.72 25.33 44.88 25.54 44.96 25.76 44.96 25.94 44.96 26.12 44.9 26.27 44.78 26.27 44.78 28.15 43.31 28.15 43.31 28.15 43.31 28.45 43.48 28.45 43.48 29.24 43.93 30.09 44.28 30.97 44.53 30.97 44.53 31.3 44.62 31.3 44.62 31.3 44.62 31.58 47.01 31.58 47.01 31.63 47.42 31.98 47.73 32.39 47.73 32.39 47.73 35.53 47.73 35.53 47.73 35.94 47.73 36.29 47.42 36.34 47.01 36.34 47.01 36.61 44.69 36.61 44.69 36.61 44.69 36.95 44.6 36.95 44.6 37.89 44.36 38.8 44 39.65 43.52 39.65 43.52 39.95 43.36 39.95 43.36 39.95 43.36 41.78 44.79 41.78 44.79 42.1 45.04 42.58 45.01 42.87 44.73 42.87 44.73 45.09 42.53 45.09 42.53 45.38 42.24 45.41 41.78 45.15 41.45 45.15 41.45 43.72 39.66 43.72 39.66 43.72 39.66 43.89 39.36 43.89 39.36 44.38 38.52 44.76 37.64 45 36.74 45 36.74 45.09 36.41 45.09 36.41 45.09 36.41 47.31 36.16 47.31 36.16 47.72 36.11 48.03 35.76 48.03 35.35 48.03 35.35 48.03 32.25 48.03 32.25ZM 34.09 39.39C 30.95 39.39 28.39 36.86 28.39 33.75 28.39 30.65 30.95 28.12 34.09 28.12 37.23 28.12 39.79 30.65 39.79 33.75 39.79 36.86 37.23 39.39 34.09 39.39ZM 34.09 29.12C 31.51 29.12 29.41 31.2 29.41 33.75 29.41 36.31 31.51 38.38 34.09 38.38 36.67 38.38 38.77 36.31 38.77 33.75 38.77 31.2 36.67 29.12 34.09 29.12ZM 30.23 55.4C 30.23 55.4 30.8 55.34 30.8 55.34 30.94 54.9 31.12 54.46 31.35 54.03 31.35 54.03 30.99 53.57 30.99 53.57 30.42 52.85 30.49 51.82 31.15 51.18 31.15 51.18 32.11 50.25 32.11 50.25 32.45 49.92 32.9 49.74 33.38 49.74 33.8 49.74 34.21 49.88 34.53 50.14 34.53 50.14 34.92 50.46 34.92 50.46 35.39 50.22 35.88 50.02 36.39 49.87 36.39 49.87 36.45 49.39 36.45 49.39 36.56 48.49 37.34 47.82 38.25 47.82 38.25 47.82 39.61 47.83 39.61 47.83 40.53 47.84 41.31 48.53 41.4 49.45 41.4 49.45 41.45 49.93 41.45 49.93 41.93 50.09 42.4 50.29 42.85 50.53 42.85 50.53 43.22 50.26 43.22 50.26 43.54 50.01 43.93 49.88 44.33 49.88 44.83 49.88 45.29 50.07 45.64 50.42 45.64 50.42 46.57 51.36 46.57 51.36 47.21 52.02 47.26 53.05 46.68 53.76 46.68 53.76 46.36 54.15 46.36 54.15 46.56 54.57 46.74 55 46.87 55.45 46.87 55.45 47.39 55.52 47.39 55.52 48.31 55.63 48.99 56.41 48.98 57.33 48.98 57.33 48.96 58.65 48.96 58.65 48.95 59.56 48.25 60.33 47.33 60.42 47.33 60.42 46.79 60.48 46.79 60.48 46.64 60.93 46.45 61.37 46.21 61.79 46.21 61.79 46.57 62.24 46.57 62.24 47.13 62.97 47.06 64 46.4 64.64 46.4 64.64 45.45 65.56 45.45 65.56 45.11 65.89 44.66 66.07 44.18 66.07 43.76 66.07 43.35 65.93 43.03 65.67 43.03 65.67 42.55 65.29 42.55 65.29 42.11 65.5 41.65 65.68 41.18 65.82 41.18 65.82 41.11 66.43 41.11 66.43 40.99 67.32 40.22 68 39.3 68 39.3 68 37.95 67.99 37.95 67.99 37.02 67.98 36.25 67.28 36.15 66.37 36.15 66.37 36.08 65.7 36.08 65.7 35.66 65.56 35.25 65.38 34.85 65.17 34.85 65.17 34.34 65.56 34.34 65.56 34.01 65.81 33.63 65.94 33.22 65.94 32.73 65.94 32.26 65.75 31.92 65.4 31.92 65.4 30.99 64.45 30.99 64.45 30.34 63.8 30.29 62.77 30.88 62.06 30.88 62.06 31.3 61.55 31.3 61.55 31.11 61.17 30.95 60.78 30.82 60.38 30.82 60.38 30.17 60.3 30.17 60.3 29.25 60.18 28.56 59.4 28.58 58.49 28.58 58.49 28.59 57.17 28.59 57.17 28.6 56.26 29.3 55.49 30.23 55.4ZM 30.3 59.3C 30.3 59.3 31.61 59.47 31.61 59.47 31.61 59.47 31.7 59.79 31.7 59.79 31.85 60.34 32.07 60.87 32.35 61.36 32.35 61.36 32.52 61.66 32.52 61.66 32.52 61.66 31.67 62.69 31.67 62.69 31.41 63.01 31.43 63.46 31.72 63.75 31.72 63.75 32.65 64.69 32.65 64.69 32.8 64.85 33 64.93 33.22 64.93 33.4 64.93 33.57 64.87 33.72 64.76 33.72 64.76 34.77 63.96 34.77 63.96 34.77 63.96 35.07 64.13 35.07 64.13 35.59 64.44 36.14 64.67 36.7 64.84 36.7 64.84 37.03 64.93 37.03 64.93 37.03 64.93 37.17 66.27 37.17 66.27 37.21 66.67 37.55 66.98 37.96 66.98 37.96 66.98 39.3 66.99 39.3 66.99 39.7 66.99 40.04 66.7 40.1 66.3 40.1 66.3 40.26 65.01 40.26 65.01 40.26 65.01 40.6 64.93 40.6 64.93 41.21 64.78 41.81 64.55 42.37 64.25 42.37 64.25 42.67 64.09 42.67 64.09 42.67 64.09 43.67 64.88 43.67 64.88 43.98 65.14 44.45 65.11 44.74 64.84 44.74 64.84 45.69 63.92 45.69 63.92 45.98 63.63 46.01 63.18 45.76 62.86 45.76 62.86 44.99 61.86 44.99 61.86 44.99 61.86 45.17 61.57 45.17 61.57 45.49 61.03 45.74 60.46 45.91 59.87 45.91 59.87 46.01 59.54 46.01 59.54 46.01 59.54 47.22 59.42 47.22 59.42 47.63 59.38 47.94 59.04 47.94 58.64 47.94 58.64 47.96 57.32 47.96 57.32 47.96 56.91 47.66 56.57 47.26 56.52 47.26 56.52 46.06 56.36 46.06 56.36 46.06 56.36 45.98 56.03 45.98 56.03 45.82 55.43 45.6 54.86 45.3 54.33 45.3 54.33 45.14 54.03 45.14 54.03 45.14 54.03 45.89 53.12 45.89 53.12 46.14 52.81 46.12 52.36 45.84 52.07 45.84 52.07 44.91 51.13 44.91 51.13 44.75 50.97 44.55 50.89 44.33 50.89 44.15 50.89 43.98 50.94 43.84 51.05 43.84 51.05 42.93 51.75 42.93 51.75 42.93 51.75 42.63 51.57 42.63 51.57 42.07 51.23 41.47 50.98 40.84 50.8 40.84 50.8 40.51 50.71 40.51 50.71 40.51 50.71 40.39 49.55 40.39 49.55 40.35 49.15 40.01 48.84 39.6 48.84 39.6 48.84 38.27 48.82 38.27 48.82 38.27 48.82 38.27 48.82 38.27 48.82 37.85 48.82 37.51 49.12 37.46 49.52 37.46 49.52 37.31 50.67 37.31 50.67 37.31 50.67 36.98 50.75 36.98 50.75 36.33 50.92 35.7 51.17 35.12 51.5 35.12 51.5 34.82 51.68 34.82 51.68 34.82 51.68 33.89 50.93 33.89 50.93 33.58 50.68 33.11 50.7 32.82 50.97 32.82 50.97 31.87 51.9 31.87 51.9 31.57 52.18 31.54 52.64 31.79 52.96 31.79 52.96 32.56 53.94 32.56 53.94 32.56 53.94 32.39 54.23 32.39 54.23 32.08 54.79 31.84 55.36 31.69 55.93 31.69 55.93 31.6 56.27 31.6 56.27 31.6 56.27 30.33 56.4 30.33 56.4 29.92 56.44 29.61 56.78 29.61 57.18 29.61 57.18 29.6 58.5 29.6 58.5 29.59 58.91 29.89 59.25 30.3 59.3ZM 38.82 53.91C 38.82 53.91 38.87 53.91 38.87 53.91 39.93 53.92 40.92 54.34 41.66 55.09 42.4 55.84 42.8 56.83 42.79 57.88 42.76 60.02 40.98 61.76 38.82 61.76 38.82 61.76 38.77 61.76 38.77 61.76 36.59 61.74 34.83 59.95 34.85 57.79 34.88 55.65 36.66 53.91 38.82 53.91ZM 38.78 60.75C 38.78 60.75 38.82 60.75 38.82 60.75 40.43 60.75 41.75 59.46 41.77 57.87 41.78 57.09 41.48 56.35 40.93 55.79 40.38 55.24 39.64 54.92 38.86 54.91 38.86 54.91 38.82 54.91 38.82 54.91 37.21 54.91 35.89 56.21 35.87 57.8 35.85 59.41 37.16 60.73 38.78 60.75Z" fill="rgb(81,81,81)"/></svg>