<?xml version="1.0" encoding="utf-8"?>
<svg xmlns="http://www.w3.org/2000/svg"
	xmlns:xlink="http://www.w3.org/1999/xlink"
	width="85px" height="85px" viewBox="0 0 85 85">
<path fillRule="evenodd" d="M 42.5 84C 65.38 84 84 65.38 84 42.5 84 19.62 65.38 1 42.5 1 19.62 1 1 19.62 1 42.5 1 65.38 19.62 84 42.5 84M 42.5 85C 19.03 85 0 65.97 0 42.5 0 19.03 19.03 0 42.5 0 65.97 0 85 19.03 85 42.5 85 65.97 65.97 85 42.5 85 42.5 85 42.5 85 42.5 85Z" fill="rgb(81,81,81)"/><path fillRule="evenodd" d="M 63.55 63.77C 63.04 64.54 62.18 65 61.24 65 61.24 65 24.76 65 24.76 65 23.82 65 22.96 64.54 22.45 63.77 21.94 63 21.86 62.04 22.24 61.2 22.24 61.2 26.89 50.93 26.89 50.93 27.15 50.38 27.59 49.92 28.14 49.63 28.14 49.63 35.36 45.95 35.36 45.95 35.66 45.8 36.05 45.83 36.32 46.03 36.99 46.53 37.72 46.92 38.47 47.26 38.47 47.26 38.47 44.94 38.47 44.94 36.03 43.46 34.22 40.8 33.6 37.64 33.19 38.79 32.08 39.63 30.76 39.63 29.1 39.63 27.74 38.31 27.74 36.68 27.74 36.68 27.74 31.31 27.74 31.31 27.74 29.71 29.04 28.42 30.66 28.36 32.16 22.98 37.19 19 43.16 19 49.17 19 54.23 23.04 55.69 28.48 56.94 28.84 57.87 29.96 57.87 31.31 57.87 31.31 57.87 36.68 57.87 36.68 57.87 38.21 56.66 39.47 55.13 39.61 54.82 40.12 53.79 41.21 50.69 41.86 49.85 43.11 48.8 44.17 47.57 44.92 47.57 44.92 47.57 47.24 47.57 47.24 48.3 46.91 49.02 46.52 49.68 46.03 49.95 45.83 50.34 45.8 50.64 45.95 50.64 45.95 57.86 49.63 57.86 49.63 58.41 49.92 58.86 50.38 59.11 50.94 59.11 50.94 63.76 61.2 63.76 61.2 64.14 62.04 64.06 63 63.55 63.77ZM 28.61 31.31C 28.61 31.31 28.61 36.68 28.61 36.68 28.61 37.84 29.57 38.79 30.76 38.79 31.95 38.79 32.91 37.84 32.91 36.68 32.91 36.68 32.91 31.31 32.91 31.31 32.91 30.15 31.95 29.2 30.76 29.2 29.57 29.2 28.61 30.15 28.61 31.31ZM 43.16 19.85C 37.63 19.85 32.97 23.5 31.53 28.46 32.78 28.79 33.72 29.89 33.77 31.21 34.21 29.29 35.02 27.75 36.17 26.62 37.79 25.04 40.08 24.24 43 24.24 45.92 24.24 48.21 25.04 49.83 26.62 50.81 27.58 51.53 28.84 52.01 30.38 52.4 29.24 53.47 28.41 54.76 28.37 53.28 23.45 48.65 19.85 43.16 19.85ZM 54.85 38.79C 56.04 38.79 57.01 37.84 57.01 36.68 57.01 36.68 57.01 31.31 57.01 31.31 57.01 30.15 56.04 29.2 54.85 29.2 53.67 29.2 52.7 30.15 52.7 31.31 52.7 31.31 52.7 36.68 52.7 36.68 52.7 37.84 53.67 38.79 54.85 38.79ZM 54.06 39.53C 53.32 39.33 52.69 38.85 52.29 38.22 52.06 39.15 51.71 40.03 51.29 40.84 52.85 40.42 53.66 39.9 54.06 39.53ZM 49.48 42.07C 48.37 42.24 47.04 42.34 45.47 42.37 45.23 42.98 44.64 43.42 43.93 43.42 43.93 43.42 41.85 43.42 41.85 43.42 40.93 43.42 40.19 42.69 40.19 41.79 40.19 40.89 40.93 40.16 41.85 40.16 41.85 40.16 43.93 40.16 43.93 40.16 44.75 40.16 45.4 40.76 45.54 41.52 47.45 41.48 48.98 41.32 50.17 41.1 51.19 39.44 51.79 37.42 51.79 35.24 51.79 31.58 50.92 28.88 49.22 27.22 47.77 25.8 45.68 25.09 43 25.09 40.32 25.09 38.23 25.8 36.78 27.22 35.08 28.88 34.21 31.58 34.21 35.24 34.21 40.83 38.15 45.39 43 45.39 45.57 45.39 47.87 44.1 49.48 42.07ZM 43.93 41.01C 43.93 41.01 41.85 41.01 41.85 41.01 41.41 41.01 41.05 41.36 41.05 41.79 41.05 42.22 41.41 42.57 41.85 42.57 41.85 42.57 43.93 42.57 43.93 42.57 44.32 42.57 44.62 42.3 44.7 41.94 44.7 41.94 44.7 41.64 44.7 41.64 44.62 41.28 44.32 41.01 43.93 41.01ZM 39.32 47.62C 40.5 48.03 41.73 48.26 43 48.26 44.28 48.26 45.52 48.03 46.71 47.61 46.71 47.61 46.71 45.39 46.71 45.39 45.57 45.93 44.31 46.23 43 46.23 41.7 46.23 40.47 45.94 39.34 45.41 39.34 45.41 39.34 47.58 39.34 47.58 39.34 47.59 39.32 47.6 39.32 47.62ZM 62.97 61.54C 62.97 61.54 58.32 51.28 58.32 51.28 58.14 50.9 57.84 50.58 57.46 50.39 57.46 50.39 50.24 46.7 50.24 46.7 50.23 46.7 50.22 46.7 50.2 46.71 48.09 48.28 45.6 49.1 43 49.1 40.4 49.1 37.91 48.28 35.8 46.71 35.79 46.7 35.78 46.7 35.77 46.7 35.77 46.7 35.76 46.7 35.76 46.7 35.76 46.7 28.54 50.39 28.54 50.39 28.16 50.58 27.86 50.89 27.68 51.28 27.68 51.28 23.03 61.54 23.03 61.54 22.77 62.12 22.82 62.78 23.17 63.31 23.52 63.84 24.12 64.15 24.76 64.15 24.76 64.15 61.24 64.15 61.24 64.15 61.88 64.15 62.48 63.84 62.83 63.31 63.18 62.78 63.23 62.12 62.97 61.54Z" fill="rgb(81,81,81)"/></svg>