<?xml version="1.0" encoding="utf-8"?>
<svg xmlns="http://www.w3.org/2000/svg"
	xmlns:xlink="http://www.w3.org/1999/xlink"
	width="85px" height="85px" viewBox="0 0 85 85">
<path fillRule="evenodd" d="M 42.5 84C 65.38 84 84 65.38 84 42.5 84 19.62 65.38 1 42.5 1 19.62 1 1 19.62 1 42.5 1 65.38 19.62 84 42.5 84M 42.5 85C 19.03 85 0 65.97 0 42.5 0 19.03 19.03-0 42.5-0 65.97-0 85 19.03 85 42.5 85 65.97 65.97 85 42.5 85 42.5 85 42.5 85 42.5 85Z" fill="rgb(81,81,81)"/><path fillRule="evenodd" d="M 65.44 65.33C 60.93 67.11 52.21 67.99 43.5 67.99 34.78 67.99 26.07 67.11 21.56 65.33 20.38 64.86 19.87 63.37 20 60.77 20 60.77 20 60.6 20 60.6 20.19 56.57 20.46 50.49 23.97 45.4 24.03 45.32 25.1 43.91 27.59 42.98 27.68 42.95 32.65 41.45 34.87 39.89 35.08 39.74 35.38 39.74 35.6 39.9 35.6 39.9 36.31 40.41 36.54 40.54 36.55 40.55 36.57 40.56 36.59 40.57 36.79 40.67 36.93 40.88 36.93 41.11 36.93 41.13 36.83 46.91 36.81 47.81 36.81 47.81 42.49 62.66 42.49 62.66 42.49 62.66 40.28 49.58 40.28 49.58 40.25 49.39 40.32 49.18 40.47 49.05 40.47 49.05 42.37 47.24 42.37 47.24 42.37 47.24 40.12 43.85 40.12 43.85 39.97 43.63 39.98 43.35 40.15 43.14 40.31 42.94 40.59 42.85 40.84 42.94 41.74 43.24 42.61 43.39 43.44 43.39 43.44 43.39 43.71 43.39 43.71 43.39 44.52 43.35 45.34 43.22 46.14 42.98 46.39 42.92 46.66 42.99 46.82 43.2 46.97 43.41 46.98 43.69 46.84 43.9 46.84 43.9 44.61 47.24 44.61 47.24 44.61 47.24 46.53 49.05 46.53 49.05 46.68 49.18 46.75 49.39 46.71 49.58 46.71 49.58 44.52 62.64 44.52 62.64 44.52 62.64 50.18 47.81 50.18 47.81 50.18 47.81 50.07 41.12 50.07 41.12 50.07 40.92 50.17 40.72 50.34 40.61 50.34 40.61 51.41 39.89 51.41 39.89 51.62 39.74 51.91 39.74 52.12 39.89 54.35 41.46 59.31 42.95 59.36 42.96 61.88 43.91 62.97 45.31 63.01 45.37 66.53 50.49 66.81 56.57 66.99 60.59 66.99 60.59 67 60.77 67 60.77 67 60.77 67 60.77 67 60.77 67.12 63.39 66.6 64.88 65.44 65.33ZM 44.95 44.49C 44.55 44.55 44.15 44.59 43.75 44.61 43.74 44.61 43.73 44.61 43.72 44.61 43.72 44.61 43.44 44.61 43.44 44.61 42.98 44.61 42.51 44.57 42.03 44.49 42.03 44.49 43.49 46.68 43.49 46.68 43.49 46.68 44.95 44.49 44.95 44.49ZM 43.49 47.87C 43.49 47.87 41.57 49.7 41.57 49.7 41.57 49.7 43.5 61.17 43.5 61.17 43.5 61.17 45.43 49.7 45.43 49.7 45.43 49.7 43.49 47.87 43.49 47.87ZM 43.5 64.27C 43.33 64.27 43.18 64.21 43.05 64.13 43.05 64.13 43.18 64.48 43.18 64.48 43.28 64.74 43.71 64.73 43.82 64.47 43.82 64.47 43.95 64.14 43.95 64.14 43.81 64.22 43.67 64.27 43.5 64.27ZM 65.76 60.83C 65.76 60.83 65.75 60.64 65.75 60.64 65.57 56.76 65.3 50.89 61.99 46.08 61.99 46.08 61.06 44.91 58.96 44.12 58.8 44.07 54.26 42.71 51.76 41.13 51.76 41.13 51.32 41.43 51.32 41.43 51.32 41.43 51.43 47.91 51.43 47.91 51.43 47.98 51.42 48.06 51.39 48.13 51.39 48.13 44.98 64.9 44.98 64.9 44.74 65.51 44.14 65.91 43.49 65.91 42.84 65.91 42.24 65.51 42.01 64.9 42.01 64.9 35.6 48.13 35.6 48.13 35.58 48.06 35.56 47.98 35.56 47.91 35.56 47.91 35.65 42.84 35.68 41.45 35.55 41.37 35.4 41.26 35.22 41.14 32.72 42.71 28.19 44.07 27.99 44.13 25.91 44.91 24.99 46.09 24.99 46.1 21.69 50.89 21.43 56.76 21.25 60.65 21.25 60.65 21.24 60.83 21.24 60.83 21.15 62.74 21.43 63.97 22.02 64.2 30.85 67.67 56.14 67.67 64.98 64.2 65.25 64.09 65.87 63.55 65.76 60.83ZM 54.76 25.94C 55.5 26.9 55.25 28.57 54.99 29.74 54.78 30.65 54.46 31.41 54.08 31.87 53.2 36.15 49.44 42.16 43.67 42.44 43.58 42.45 43.48 42.45 43.38 42.45 38.8 42.45 33.82 37.43 32.91 31.86 32.52 31.39 32.23 30.74 32.05 29.92 32.05 29.92 32.05 29.92 32.05 29.92 32.05 29.92 32.66 29.8 32.66 29.8 32.66 29.8 32.02 29.79 32.02 29.79 31.76 28.63 31.38 26.89 32.15 25.89 32.19 25.85 32.22 25.8 32.26 25.76 31.32 22.17 31.89 19.95 32.32 18.92 34.86 12.99 40.11 10.68 46.35 12.73 48.59 13.46 51.14 14.4 53.01 16.35 56.32 19.78 55.23 23.66 54.61 25.77 54.68 25.84 54.72 25.89 54.76 25.94ZM 52.11 17.19C 50.43 15.45 48.05 14.57 45.95 13.89 44.62 13.45 43.33 13.23 42.12 13.23 38.29 13.23 35.19 15.38 33.47 19.38 33.16 20.12 32.55 22.21 33.56 25.8 33.63 26.04 33.54 26.3 33.33 26.45 33.24 26.52 33.19 26.57 33.15 26.62 32.72 27.18 33.06 28.71 33.24 29.53 33.24 29.53 33.27 29.67 33.27 29.67 33.42 30.36 33.65 30.86 33.95 31.17 34.04 31.26 34.1 31.38 34.11 31.51 34.92 36.99 39.79 41.23 43.4 41.23 43.47 41.23 43.54 41.23 43.61 41.22 48.77 40.97 52.14 35.37 52.88 31.48 52.91 31.36 52.96 31.25 53.05 31.17 53.27 30.95 53.58 30.34 53.77 29.48 54.17 27.69 53.96 26.94 53.73 26.63 53.71 26.61 53.64 26.55 53.59 26.51 53.58 26.5 53.47 26.4 53.46 26.38 53.3 26.23 53.25 26.01 53.31 25.8 53.31 25.8 53.4 25.49 53.4 25.49 54.02 23.36 54.96 20.14 52.11 17.19Z" fill="rgb(87,87,87)"/></svg>