<?xml version="1.0" encoding="utf-8"?>
<svg xmlns="http://www.w3.org/2000/svg"
	xmlns:xlink="http://www.w3.org/1999/xlink"
	width="85px" height="85px" viewBox="0 0 85 85">
<path fillRule="evenodd" d="M 42.5 84C 65.38 84 84 65.38 84 42.5 84 19.62 65.38 1 42.5 1 19.62 1 1 19.62 1 42.5 1 65.38 19.62 84 42.5 84M 42.5 85C 19.03 85 0 65.97 0 42.5 0 19.03 19.03-0 42.5-0 65.97-0 85 19.03 85 42.5 85 65.97 65.97 85 42.5 85 42.5 85 42.5 85 42.5 85Z" fill="rgb(81,81,81)"/><path fillRule="evenodd" d="M 48.87 43.3C 48 43.74 47.17 44.15 46.58 44.61 45.47 45.45 45 46.82 45 49.2 45 49.2 45 50.12 45 50.12 45 50.12 37.36 50.12 37.36 50.12 37.36 50.12 37.36 49.14 37.36 49.14 37.41 41.2 40.48 39.34 42.95 37.86 43.56 37.49 44.18 37.18 44.79 36.89 46.71 35.95 48.11 35.27 48.11 33.15 48.11 30.12 46.18 28.59 42.38 28.59 39.68 28.59 36.79 30.27 36.75 33.38 36.75 33.38 36.74 34.01 36.74 34.01 36.74 34.01 29 34.01 29 34.01 29 34.01 29 33.36 29 33.36 29.03 29.4 30.45 26.15 33.13 23.97 35.51 22.03 38.75 21 42.48 21 46.81 21 50.51 22.32 52.89 24.71 55.01 26.84 56.06 29.7 56 33.21 56 39.69 51.88 41.78 48.87 43.3ZM 51.96 25.62C 49.82 23.47 46.46 22.29 42.48 22.29 36.79 22.29 30.7 25.05 30.33 32.72 30.33 32.72 35.48 32.72 35.48 32.72 35.66 31.2 36.44 29.84 37.69 28.86 38.96 27.87 40.67 27.3 42.38 27.3 46.92 27.3 49.42 29.38 49.42 33.15 49.42 36.08 47.36 37.08 45.37 38.05 44.79 38.33 44.2 38.62 43.63 38.96 41.25 40.4 38.79 41.88 38.67 48.83 38.67 48.83 43.7 48.83 43.7 48.83 43.75 46.23 44.38 44.65 45.77 43.59 46.47 43.06 47.34 42.62 48.27 42.15 51.28 40.63 54.69 38.9 54.69 33.2 54.74 30.03 53.82 27.49 51.96 25.62ZM 41.41 53.04C 43.94 53.04 46.51 54.76 46.51 58.04 46.51 61.3 43.94 63 41.41 63 38.87 63 36.31 61.3 36.31 58.04 36.31 54.76 38.87 53.04 41.41 53.04ZM 41.41 61.71C 43.23 61.71 45.2 60.56 45.2 58.04 45.2 55.49 43.23 54.33 41.41 54.33 39.58 54.33 37.62 55.49 37.62 58.04 37.62 60.56 39.58 61.71 41.41 61.71Z" fill="rgb(81,81,81)"/></svg>