<?xml version="1.0" encoding="utf-8"?>
<svg xmlns="http://www.w3.org/2000/svg"
	xmlns:xlink="http://www.w3.org/1999/xlink"
	width="85px" height="85px" viewBox="0 0 85 85">
<path fillRule="evenodd" d="M 42.5 84C 65.38 84 84 65.38 84 42.5 84 19.62 65.38 1 42.5 1 19.62 1 1 19.62 1 42.5 1 65.38 19.62 84 42.5 84M 42.5 85C 19.03 85 0 65.97 0 42.5 0 19.03 19.03 0 42.5 0 65.97 0 85 19.03 85 42.5 85 65.97 65.97 85 42.5 85 42.5 85 42.5 85 42.5 85Z" fill="rgb(81,81,81)"/><path fillRule="evenodd" d="M 59.15 35.25C 59.15 35.25 59.15 62 59.15 62 59.15 62 36.41 62 36.41 62 36.41 62 28.34 62 28.34 62 28.34 62 23.93 62 23.93 62 23.93 62 23.93 35.25 23.93 35.25 23.93 35.25 19 35.25 19 35.25 19 35.25 26.92 23 26.92 23 26.92 23 55.08 23 55.08 23 55.08 23 63 35.25 63 35.25 63 35.25 59.15 35.25 59.15 35.25ZM 35.58 61.17C 35.58 61.17 35.58 48.69 35.58 48.69 35.58 48.69 29.17 48.69 29.17 48.69 29.17 48.69 29.17 61.17 29.17 61.17 29.17 61.17 35.58 61.17 35.58 61.17ZM 24.75 61.17C 24.75 61.17 28.34 61.17 28.34 61.17 28.34 61.17 28.34 47.86 28.34 47.86 28.34 47.86 36.41 47.86 36.41 47.86 36.41 47.86 36.41 61.17 36.41 61.17 36.41 61.17 58.33 61.17 58.33 61.17 58.33 61.17 58.33 35.39 58.33 35.39 58.33 35.39 47.22 35.39 47.22 35.39 47.05 38.67 44.36 41.3 41.05 41.3 37.74 41.3 35.05 38.67 34.89 35.39 34.89 35.39 24.75 35.39 24.75 35.39 24.75 35.39 24.75 61.17 24.75 61.17ZM 46.42 35.08C 46.42 32.1 44.01 29.68 41.05 29.68 38.09 29.68 35.68 32.1 35.68 35.08 35.68 38.05 38.09 40.48 41.05 40.48 44.01 40.48 46.42 38.05 46.42 35.08ZM 54.63 23.83C 54.63 23.83 27.37 23.83 27.37 23.83 27.37 23.83 20.52 34.42 20.52 34.42 20.52 34.42 34.92 34.42 34.92 34.42 35.25 31.3 37.86 28.85 41.05 28.85 44.25 28.85 46.85 31.3 47.18 34.42 47.18 34.42 61.48 34.42 61.48 34.42 61.48 34.42 54.63 23.83 54.63 23.83ZM 42.19 47.86C 42.19 47.86 44.24 47.86 44.24 47.86 44.24 47.86 45.01 47.86 45.01 47.86 45.01 47.86 47.05 47.86 47.05 47.86 47.05 47.86 47.88 47.86 47.88 47.86 47.88 47.86 49.86 47.86 49.86 47.86 49.86 47.86 50.69 47.86 50.69 47.86 50.69 47.86 52.73 47.86 52.73 47.86 52.73 47.86 53.5 47.86 53.5 47.86 53.5 47.86 56.37 47.86 56.37 47.86 56.37 47.86 56.37 51.97 56.37 51.97 56.37 52.5 56.01 52.94 55.51 53.2 55.51 53.2 55.51 59.15 55.51 59.15 55.51 59.15 39.22 59.15 39.22 59.15 39.22 59.15 39.22 53.09 39.22 53.09 38.83 52.82 38.56 52.43 38.56 51.97 38.56 51.97 38.56 47.86 38.56 47.86 38.56 47.86 41.37 47.86 41.37 47.86 41.37 47.86 42.19 47.86 42.19 47.86ZM 52.67 48.69C 52.67 48.69 50.69 48.69 50.69 48.69 50.69 48.69 50.69 51.97 50.69 51.97 50.69 52.32 51.14 52.62 51.68 52.62 52.22 52.62 52.67 52.32 52.67 51.97 52.67 51.97 52.67 48.69 52.67 48.69ZM 55.55 51.97C 55.55 51.97 55.55 48.69 55.55 48.69 55.55 48.69 53.56 48.69 53.56 48.69 53.56 48.69 53.56 51.97 53.56 51.97 53.56 52.32 54.01 52.62 54.55 52.62 55.09 52.62 55.55 52.32 55.55 51.97ZM 50.56 58.32C 50.56 58.32 54.68 58.32 54.68 58.32 54.68 58.32 54.68 53.43 54.68 53.43 54.64 53.43 54.6 53.45 54.55 53.45 53.95 53.45 53.45 53.2 53.12 52.83 52.79 53.2 52.28 53.45 51.68 53.45 51.25 53.45 50.87 53.32 50.56 53.11 50.56 53.11 50.56 58.32 50.56 58.32ZM 49.86 48.69C 49.86 48.69 47.88 48.69 47.88 48.69 47.88 48.69 47.88 51.97 47.88 51.97 47.88 52.32 48.33 52.62 48.87 52.62 49.41 52.62 49.86 52.32 49.86 51.97 49.86 51.97 49.86 48.69 49.86 48.69ZM 45.14 58.32C 45.14 58.32 49.74 58.32 49.74 58.32 49.74 58.32 49.74 53.25 49.74 53.25 49.48 53.37 49.19 53.45 48.87 53.45 48.29 53.45 47.8 53.22 47.46 52.87 47.13 53.22 46.64 53.45 46.06 53.45 45.72 53.45 45.41 53.36 45.14 53.22 45.14 53.22 45.14 58.32 45.14 58.32ZM 45.06 51.97C 45.06 52.32 45.52 52.62 46.06 52.62 46.6 52.62 47.05 52.32 47.05 51.97 47.05 51.97 47.05 48.69 47.05 48.69 47.05 48.69 45.06 48.69 45.06 48.69 45.06 48.69 45.06 51.97 45.06 51.97ZM 44.18 48.69C 44.18 48.69 42.19 48.69 42.19 48.69 42.19 48.69 42.19 51.97 42.19 51.97 42.19 52.32 42.65 52.62 43.19 52.62 43.73 52.62 44.18 52.32 44.18 51.97 44.18 51.97 44.18 48.69 44.18 48.69ZM 40.05 58.32C 40.05 58.32 44.32 58.32 44.32 58.32 44.32 58.32 44.32 53.1 44.32 53.1 44.01 53.31 43.62 53.45 43.19 53.45 42.61 53.45 42.11 53.22 41.78 52.87 41.45 53.22 40.95 53.45 40.38 53.45 40.26 53.45 40.16 53.41 40.05 53.4 40.05 53.4 40.05 58.32 40.05 58.32ZM 39.38 51.97C 39.38 52.32 39.84 52.62 40.38 52.62 40.91 52.62 41.37 52.32 41.37 51.97 41.37 51.97 41.37 48.69 41.37 48.69 41.37 48.69 39.38 48.69 39.38 48.69 39.38 48.69 39.38 51.97 39.38 51.97Z" fill="rgb(81,81,81)"/></svg>