<?xml version="1.0" encoding="utf-8"?>
<svg xmlns="http://www.w3.org/2000/svg"
	xmlns:xlink="http://www.w3.org/1999/xlink"
	width="85px" height="85px" viewBox="0 0 85 85">
<path fillRule="evenodd" d="M 42.5 84C 65.38 84 84 65.38 84 42.5 84 19.62 65.38 1 42.5 1 19.62 1 1 19.62 1 42.5 1 65.38 19.62 84 42.5 84M 42.5 85C 19.03 85 0 65.97 0 42.5 0 19.03 19.03 0 42.5 0 65.97 0 85 19.03 85 42.5 85 65.97 65.97 85 42.5 85 42.5 85 42.5 85 42.5 85Z" fill="rgb(81,81,81)"/><path fillRule="evenodd" d="M 73.97 58.37C 73.89 58.62 73.65 58.78 73.39 58.78 73.33 58.78 73.27 58.78 73.21 58.76 70.41 57.9 68.08 56.25 66.39 54.15 66.39 54.15 62.37 54.15 62.37 54.15 62.06 57.98 58.78 61 54.78 61 54.78 61 29.15 61 29.15 61 24.95 61 21.53 57.66 21.53 53.55 21.53 52.99 21.6 52.44 21.72 51.91 21.72 51.91 15.61 51.91 15.61 51.91 15.27 51.91 15 51.64 15 51.32 15 51.32 15 36.06 15 36.06 15 35.74 15.27 35.47 15.61 35.47 15.61 35.47 18.77 35.47 18.77 35.47 18.77 35.47 18.77 25.99 18.77 25.99 18.77 25.66 19.04 25.4 19.37 25.4 19.37 25.4 35.87 25.4 35.87 25.4 36.14 25.4 36.37 25.57 36.45 25.82 36.45 25.82 39.02 34.11 39.02 34.11 39.02 34.11 45.96 34.79 45.96 34.79 45.96 34.79 45.96 28.42 45.96 28.42 45.96 28.1 46.23 27.83 46.57 27.83 46.57 27.83 47.52 27.83 47.52 27.83 47.52 27.83 47.52 21.59 47.52 21.59 47.52 21.26 47.79 21 48.13 21 48.46 21 48.73 21.26 48.73 21.59 48.73 21.59 48.73 27.83 48.73 27.83 48.73 27.83 49.56 27.83 49.56 27.83 49.9 27.83 50.17 28.1 50.17 28.42 50.17 28.42 50.17 35.2 50.17 35.2 50.17 35.2 57.26 35.89 57.26 35.89 57.57 35.92 57.8 36.18 57.8 36.48 57.8 36.48 57.8 42.66 57.8 42.66 57.8 42.66 63.43 46.14 63.43 46.14 63.38 44.66 63.58 43.15 64.06 41.66 64.15 41.35 64.49 41.18 64.81 41.28 65.13 41.37 65.31 41.7 65.21 42.02 63.11 48.57 66.87 55.58 73.57 57.63 73.89 57.72 74.07 58.06 73.97 58.37ZM 16.21 50.72C 16.21 50.72 22.1 50.72 22.1 50.72 22.95 48.71 24.68 47.14 26.82 46.46 26.82 46.46 26.82 44.85 26.82 44.85 26.82 44.85 16.21 44.85 16.21 44.85 16.21 44.85 16.21 50.72 16.21 50.72ZM 16.21 43.67C 16.21 43.67 26.82 43.67 26.82 43.67 26.82 43.67 26.82 42.25 26.82 42.25 26.82 42.25 16.21 42.25 16.21 42.25 16.21 42.25 16.21 43.67 16.21 43.67ZM 19.23 36.65C 19.23 36.65 16.21 36.65 16.21 36.65 16.21 36.65 16.21 41.06 16.21 41.06 16.21 41.06 26.82 41.06 26.82 41.06 26.82 41.06 26.82 40.35 26.82 40.35 26.82 40.35 19.23 36.65 19.23 36.65ZM 37.96 34.75C 37.96 34.75 35.42 26.58 35.42 26.58 35.42 26.58 19.98 26.58 19.98 26.58 19.98 26.58 19.98 35.7 19.98 35.7 19.98 35.7 27.69 39.45 27.69 39.45 27.9 39.55 28.03 39.76 28.03 39.98 28.03 39.98 28.03 46.19 28.03 46.19 28.39 46.13 28.77 46.1 29.15 46.1 29.15 46.1 37.96 46.1 37.96 46.1 37.96 46.1 37.96 34.75 37.96 34.75ZM 48.96 29.02C 48.96 29.02 47.17 29.02 47.17 29.02 47.17 29.02 47.17 34.91 47.17 34.91 47.17 34.91 48.96 35.08 48.96 35.08 48.96 35.08 48.96 29.02 48.96 29.02ZM 56.59 37.02C 56.59 37.02 39.17 35.31 39.17 35.31 39.17 35.31 39.17 46.1 39.17 46.1 39.17 46.1 54.78 46.1 54.78 46.1 55.4 46.1 56.01 46.18 56.59 46.32 56.59 46.32 56.59 37.02 56.59 37.02ZM 54.78 47.29C 54.78 47.29 29.15 47.29 29.15 47.29 25.62 47.29 22.74 50.1 22.74 53.55 22.74 57.01 25.62 59.82 29.15 59.82 29.15 59.82 54.78 59.82 54.78 59.82 58.11 59.82 60.85 57.32 61.16 54.15 61.16 54.15 59.22 54.15 59.22 54.15 58.88 54.15 58.61 53.88 58.61 53.55 58.61 53.23 58.88 52.96 59.22 52.96 59.22 52.96 61.16 52.96 61.16 52.96 60.85 49.78 58.11 47.29 54.78 47.29ZM 63.56 47.62C 63.55 47.62 63.55 47.62 63.55 47.62 63.55 47.62 57.8 44.06 57.8 44.06 57.8 44.06 57.8 46.72 57.8 46.72 60.33 47.79 62.15 50.16 62.37 52.96 62.37 52.96 65.55 52.96 65.55 52.96 64.51 51.35 63.83 49.52 63.56 47.62ZM 54.21 56.8C 52.37 56.8 50.88 55.35 50.88 53.55 50.88 51.76 52.37 50.3 54.21 50.3 56.04 50.3 57.53 51.76 57.53 53.55 57.53 55.35 56.04 56.8 54.21 56.8ZM 54.21 51.49C 53.04 51.49 52.09 52.41 52.09 53.55 52.09 54.69 53.04 55.62 54.21 55.62 55.37 55.62 56.32 54.69 56.32 53.55 56.32 52.41 55.37 51.49 54.21 51.49ZM 48.56 54.15C 48.56 54.15 35.36 54.15 35.36 54.15 35.02 54.15 34.75 53.88 34.75 53.55 34.75 53.23 35.02 52.96 35.36 52.96 35.36 52.96 48.56 52.96 48.56 52.96 48.9 52.96 49.17 53.23 49.17 53.55 49.17 53.88 48.9 54.15 48.56 54.15ZM 29.29 56.8C 27.46 56.8 25.97 55.35 25.97 53.55 25.97 51.76 27.46 50.3 29.29 50.3 31.13 50.3 32.62 51.76 32.62 53.55 32.62 55.35 31.13 56.8 29.29 56.8ZM 29.29 51.49C 28.13 51.49 27.18 52.41 27.18 53.55 27.18 54.69 28.13 55.62 29.29 55.62 30.46 55.62 31.41 54.69 31.41 53.55 31.41 52.41 30.46 51.49 29.29 51.49ZM 49.01 44.85C 48.67 44.85 48.4 44.58 48.4 44.26 48.4 43.93 48.67 43.67 49.01 43.67 49.01 43.67 54.78 43.67 54.78 43.67 55.11 43.67 55.38 43.93 55.38 44.26 55.38 44.58 55.11 44.85 54.78 44.85 54.78 44.85 49.01 44.85 49.01 44.85ZM 54.78 42.25C 54.78 42.25 49.01 42.25 49.01 42.25 48.67 42.25 48.4 41.98 48.4 41.65 48.4 41.33 48.67 41.06 49.01 41.06 49.01 41.06 54.78 41.06 54.78 41.06 55.11 41.06 55.38 41.33 55.38 41.65 55.38 41.98 55.11 42.25 54.78 42.25ZM 54.78 39.64C 54.78 39.64 49.01 39.64 49.01 39.64 48.67 39.64 48.4 39.38 48.4 39.05 48.4 38.73 48.67 38.46 49.01 38.46 49.01 38.46 54.78 38.46 54.78 38.46 55.11 38.46 55.38 38.73 55.38 39.05 55.38 39.38 55.11 39.64 54.78 39.64ZM 30.25 28.05C 30.25 28.05 33.98 28.05 33.98 28.05 34.25 28.05 34.5 28.23 34.56 28.49 34.56 28.49 36.28 35 36.28 35 36.29 35.05 36.3 35.1 36.3 35.15 36.3 35.15 36.3 44.22 36.3 44.22 36.3 44.54 36.02 44.81 35.69 44.81 35.69 44.81 30.25 44.81 30.25 44.81 29.92 44.81 29.65 44.54 29.65 44.22 29.65 44.22 29.65 28.64 29.65 28.64 29.65 28.31 29.92 28.05 30.25 28.05ZM 30.86 43.62C 30.86 43.62 35.08 43.62 35.08 43.62 35.08 43.62 35.08 35.74 35.08 35.74 35.08 35.74 30.86 35.74 30.86 35.74 30.86 35.74 30.86 43.62 30.86 43.62ZM 30.86 34.56C 30.86 34.56 34.91 34.56 34.91 34.56 34.91 34.56 33.51 29.23 33.51 29.23 33.51 29.23 30.86 29.23 30.86 29.23 30.86 29.23 30.86 34.56 30.86 34.56ZM 27.48 37.04C 27.4 37.04 27.33 37.03 27.25 37 27.25 37 22.26 35.05 22.26 35.05 22.03 34.96 21.88 34.74 21.88 34.5 21.88 34.5 21.88 28.64 21.88 28.64 21.88 28.31 22.15 28.05 22.49 28.05 22.49 28.05 27.48 28.05 27.48 28.05 27.81 28.05 28.08 28.31 28.08 28.64 28.08 28.64 28.08 36.45 28.08 36.45 28.08 36.65 27.98 36.83 27.82 36.94 27.72 37.01 27.6 37.04 27.48 37.04ZM 26.87 29.23C 26.87 29.23 23.09 29.23 23.09 29.23 23.09 29.23 23.09 34.1 23.09 34.1 23.09 34.1 26.87 35.57 26.87 35.57 26.87 35.57 26.87 29.23 26.87 29.23Z" fill="rgb(81,81,81)"/></svg>