<?xml version="1.0" encoding="utf-8"?>
<svg xmlns="http://www.w3.org/2000/svg"
	xmlns:xlink="http://www.w3.org/1999/xlink"
	width="85px" height="85px" viewBox="0 0 85 85">
<path fillRule="evenodd" d="M 42.5 84C 65.38 84 84 65.38 84 42.5 84 19.62 65.38 1 42.5 1 19.62 1 1 19.62 1 42.5 1 65.38 19.62 84 42.5 84M 42.5 85C 19.03 85 0 65.97 0 42.5 0 19.03 19.03 0 42.5 0 65.97 0 85 19.03 85 42.5 85 65.97 65.97 85 42.5 85 42.5 85 42.5 85 42.5 85Z" fill="rgb(81,81,81)"/><path fillRule="evenodd" d="M 69.34 46.49C 69.34 46.49 68.77 47.27 68.77 47.27 68.77 47.27 68.19 46.49 68.19 46.49 66.78 44.6 66.28 43 66.71 41.72 67.06 40.64 67.98 40.11 68.52 39.94 68.51 36.77 67.97 35.49 66.9 34.61 65.42 33.39 63.27 33.1 62.07 33.04 62.52 34.01 62.79 35.08 62.79 36.22 62.79 36.22 62.79 46.34 62.79 46.34 62.79 48.73 61.65 50.85 59.92 52.2 59.92 52.2 59.92 62.12 59.92 62.12 59.92 63.71 58.65 65.01 57.09 65.01 55.54 65.01 54.27 63.71 54.27 62.12 54.27 62.12 54.27 53.73 54.27 53.73 54.27 53.73 33.93 53.73 33.93 53.73 33.93 53.73 33.93 62.12 33.93 62.12 33.93 63.71 32.66 65.01 31.1 65.01 29.54 65.01 28.28 63.71 28.28 62.12 28.28 62.12 28.28 51.7 28.28 51.7 26.88 50.35 25.99 48.45 25.99 46.34 25.99 46.34 25.99 40.28 25.99 40.28 25.99 40.28 25.92 40.28 25.92 40.28 23.26 40.28 21.09 38.1 21.09 35.42 21.09 35.42 21.09 28.51 21.09 28.51 19.49 28.32 18.34 27.74 17.67 26.8 16.69 25.43 17.11 23.82 17.11 23.81 17.11 23.81 17.19 23.48 17.19 23.48 17.19 23.48 17.53 23.47 17.53 23.47 19.66 23.41 20.94 24.38 21.6 25.11 21.87 24.57 22.25 24.08 22.71 23.66 22.71 23.66 22.71 21.33 22.71 21.33 22.71 20.59 23.31 19.99 24.04 19.99 24.78 19.99 25.37 20.59 25.37 21.33 25.37 21.33 25.37 22.46 25.37 22.46 25.56 22.43 25.74 22.42 25.92 22.42 25.92 22.42 29.21 22.42 29.21 22.42 29.45 22.42 29.69 22.45 29.95 22.49 29.95 22.49 29.95 21.33 29.95 21.33 29.95 20.59 30.55 19.99 31.28 19.99 32.02 19.99 32.61 20.59 32.61 21.33 32.61 21.33 32.61 23.82 32.61 23.82 32.61 23.83 32.61 23.83 32.61 23.84 33 24.22 33.31 24.65 33.54 25.12 34.18 24.41 35.4 23.47 37.44 23.47 37.5 23.47 37.56 23.47 37.62 23.47 37.62 23.47 37.95 23.48 37.95 23.48 37.95 23.48 38.04 23.81 38.04 23.81 38.08 23.98 38.42 25.5 37.48 26.8 36.81 27.75 35.65 28.32 34.04 28.51 34.04 28.51 34.04 28.83 34.04 28.83 34.04 28.83 55.55 28.83 55.55 28.83 58.01 28.83 60.19 30.1 61.5 32.02 62.6 32.13 65.41 32.59 67.35 34.19 68.61 35.21 69.24 36.78 69.24 39.98 69.24 39.98 69.12 39.98 69.12 39.98 69.66 40.18 70.5 40.7 70.83 41.72 71.25 43 70.75 44.6 69.34 46.49ZM 21.09 27.37C 20.93 27.04 20.26 25.81 18.85 25.63 18.61 25.59 18.44 25.37 18.47 25.12 18.5 24.88 18.73 24.69 18.97 24.73 19.7 24.83 20.28 25.13 20.72 25.49 20.19 25 19.29 24.43 17.92 24.37 17.88 24.81 17.9 25.6 18.39 26.28 18.9 26.99 19.81 27.43 21.09 27.6 21.09 27.6 21.09 27.37 21.09 27.37ZM 55.16 62.12C 55.16 63.21 56.03 64.1 57.09 64.1 58.16 64.1 59.03 63.21 59.03 62.12 59.03 62.12 59.03 52.8 59.03 52.8 57.99 53.38 56.81 53.73 55.55 53.73 55.55 53.73 55.16 53.73 55.16 53.73 55.16 53.73 55.16 62.12 55.16 62.12ZM 55.55 52.82C 56.3 52.82 57.01 52.66 57.68 52.41 57.9 51.61 58.51 48.97 57.46 47.47 56.95 46.74 56.07 46.37 54.85 46.37 52.22 46.37 51.03 47.64 50.5 48.71 49.77 50.18 49.96 51.93 50.56 52.82 50.56 52.82 55.55 52.82 55.55 52.82ZM 29.17 62.12C 29.17 63.21 30.04 64.1 31.1 64.1 32.17 64.1 33.03 63.21 33.03 62.12 33.03 62.12 33.03 53.71 33.03 53.71 31.6 53.67 30.28 53.2 29.17 52.42 29.17 52.42 29.17 62.12 29.17 62.12ZM 24.49 21.33C 24.49 21.09 24.29 20.89 24.04 20.89 23.8 20.89 23.6 21.09 23.6 21.33 23.6 21.33 23.6 23.03 23.6 23.03 23.88 22.87 24.17 22.75 24.49 22.65 24.49 22.65 24.49 21.33 24.49 21.33ZM 27.53 23.32C 27.53 23.32 25.92 23.32 25.92 23.32 23.74 23.32 21.97 25.1 21.97 27.28 21.97 27.28 21.97 31.97 21.97 31.97 22.01 31.97 22.05 31.97 22.08 31.97 24.07 31.97 25.56 31.38 26.5 30.22 28.33 27.96 27.69 24.13 27.53 23.32ZM 31.73 21.33C 31.73 21.09 31.53 20.89 31.28 20.89 31.04 20.89 30.84 21.09 30.84 21.33 30.84 21.33 30.84 22.71 30.84 22.71 31.14 22.82 31.44 22.97 31.73 23.14 31.73 23.14 31.73 21.33 31.73 21.33ZM 33.16 30.39C 32.64 30.58 31.94 31.1 31.72 32.49 31.64 32.98 31.74 33.38 32.01 33.68 32.31 34.01 32.77 34.19 33.16 34.25 33.16 34.25 33.16 30.39 33.16 30.39ZM 33.16 35.16C 32.74 35.1 31.93 34.92 31.36 34.28 30.9 33.78 30.72 33.11 30.84 32.35 31.07 30.87 31.79 30.14 32.36 29.79 32.65 29.61 32.94 29.52 33.16 29.46 33.16 29.46 33.16 27.28 33.16 27.28 33.16 25.1 31.39 23.32 29.21 23.32 29.21 23.32 28.44 23.32 28.44 23.32 28.67 24.53 29.18 28.33 27.19 30.78 26.07 32.17 24.35 32.87 22.09 32.87 22.05 32.87 22.01 32.87 21.97 32.87 21.97 32.87 21.97 35.42 21.97 35.42 21.97 37.61 23.74 39.38 25.92 39.38 25.92 39.38 29.21 39.38 29.21 39.38 31.39 39.38 33.16 37.61 33.16 35.42 33.16 35.42 33.16 35.16 33.16 35.16ZM 36.76 26.28C 37.25 25.59 37.27 24.81 37.23 24.37 35.81 24.43 34.9 25.04 34.38 25.54 34.83 25.16 35.43 24.84 36.2 24.73 36.46 24.7 36.66 24.88 36.7 25.12 36.73 25.37 36.55 25.59 36.31 25.63 34.71 25.83 34.05 27.42 34.04 27.44 34.04 27.44 34.04 27.61 34.04 27.61 35.34 27.44 36.25 26.99 36.76 26.28ZM 54.76 29.74C 54.76 29.74 40.71 29.74 40.71 29.74 40.58 31.15 40.56 36.46 47.57 38.43 49.5 38.98 51.07 38.77 52.23 37.81 54.63 35.83 54.78 31.21 54.76 29.74ZM 61.89 36.22C 61.89 32.68 59.1 29.81 55.64 29.75 55.67 31.36 55.52 36.25 52.79 38.51 51.89 39.25 50.79 39.63 49.53 39.63 48.85 39.63 48.11 39.52 47.33 39.3 39.91 37.21 39.72 31.47 39.84 29.74 39.84 29.74 34.04 29.74 34.04 29.74 34.04 29.74 34.04 35.42 34.04 35.42 34.04 38.1 31.88 40.28 29.21 40.28 29.21 40.28 26.89 40.28 26.89 40.28 26.89 40.28 26.89 46.34 26.89 46.34 26.89 49.91 29.73 52.82 33.23 52.82 33.23 52.82 49.56 52.82 49.56 52.82 49.04 51.66 48.93 49.89 49.72 48.31 50.24 47.25 51.61 45.47 54.85 45.47 56.37 45.47 57.49 45.97 58.18 46.95 59.22 48.43 58.98 50.62 58.71 51.91 59.15 51.65 59.56 51.37 59.92 51.01 59.92 51.01 59.92 51.01 59.92 51.01 59.92 51.01 59.92 51.01 59.92 51.01 61.13 49.83 61.89 48.18 61.89 46.34 61.89 46.34 61.89 36.22 61.89 36.22ZM 68.77 40.63C 68.77 40.63 65.43 41.57 68.77 46.05 72.11 41.57 68.77 40.63 68.77 40.63ZM 39.2 49.09C 39.03 49.11 38.85 49.12 38.66 49.12 37.08 49.12 35.52 48.47 34.48 47.38 33.7 46.55 32.82 45.08 33.1 42.74 33.27 41.34 33.8 40.31 34.69 39.68 36.15 38.63 37.99 39.07 38.06 39.08 38.06 39.08 38.1 39.09 38.1 39.09 42.29 40.57 44.63 42.89 44.34 45.29 44.11 47.29 42.04 48.82 39.2 49.09ZM 37.84 39.95C 37.81 39.95 37.5 39.88 37.06 39.88 36.55 39.88 35.81 39.98 35.19 40.42 34.52 40.9 34.11 41.72 33.97 42.84 33.79 44.42 34.18 45.77 35.11 46.75 36.1 47.79 37.64 48.33 39.12 48.2 41.53 47.97 43.28 46.76 43.47 45.19 43.7 43.23 41.59 41.28 37.84 39.95ZM 28.86 28C 28.86 27.29 29.44 26.7 30.15 26.7 30.86 26.7 31.44 27.29 31.44 28 31.44 28.72 30.86 29.3 30.15 29.3 29.44 29.3 28.86 28.72 28.86 28ZM 30.55 28C 30.55 27.78 30.37 27.6 30.15 27.6 29.92 27.6 29.74 27.78 29.74 28 29.74 28.22 29.92 28.4 30.15 28.4 30.37 28.4 30.55 28.22 30.55 28ZM 29.8 34.54C 29.8 34.54 29.8 34.54 29.8 34.54 29.92 34.55 30.03 34.61 30.1 34.71 30.17 34.81 30.2 34.92 30.18 35.04 30.15 35.28 29.92 35.47 29.69 35.43 29.68 35.43 28.99 35.35 28.62 35.67 28.45 35.82 28.37 36.04 28.37 36.35 28.37 36.6 28.17 36.8 27.93 36.8 27.68 36.8 27.48 36.6 27.48 36.35 27.48 35.77 27.67 35.31 28.04 34.99 28.68 34.44 29.62 34.51 29.8 34.54ZM 29.78 34.74C 29.78 34.74 29.78 34.74 29.78 34.74 29.78 34.74 29.78 34.74 29.78 34.74 29.78 34.74 29.78 34.74 29.78 34.74ZM 26.75 36.8C 26.5 36.8 26.3 36.6 26.3 36.35 26.3 36.04 26.22 35.82 26.05 35.67 25.68 35.34 24.99 35.43 24.99 35.43 24.73 35.45 24.52 35.28 24.49 35.04 24.48 34.92 24.51 34.81 24.58 34.71 24.65 34.61 24.75 34.55 24.87 34.54 25.06 34.51 26 34.44 26.63 34.99 27 35.32 27.19 35.77 27.19 36.35 27.19 36.6 26.99 36.8 26.75 36.8ZM 24.89 29.3C 24.18 29.3 23.6 28.72 23.6 28 23.6 27.29 24.18 26.7 24.89 26.7 25.6 26.7 26.18 27.29 26.18 28 26.18 28.72 25.6 29.3 24.89 29.3ZM 24.89 27.6C 24.67 27.6 24.49 27.78 24.49 28 24.49 28.22 24.67 28.4 24.89 28.4 25.11 28.4 25.29 28.22 25.29 28 25.29 27.78 25.11 27.6 24.89 27.6Z" fill="rgb(81,81,81)"/></svg>