<?xml version="1.0" encoding="utf-8"?>
<svg xmlns="http://www.w3.org/2000/svg"
	xmlns:xlink="http://www.w3.org/1999/xlink"
	width="85px" height="85px" viewBox="0 0 85 85">
<path fillRule="evenodd" d="M 42.5 84C 65.38 84 84 65.38 84 42.5 84 19.62 65.38 1 42.5 1 19.62 1 1 19.62 1 42.5 1 65.38 19.62 84 42.5 84M 42.5 85C 19.03 85 0 65.97 0 42.5 0 19.03 19.03 0 42.5 0 65.97 0 85 19.03 85 42.5 85 65.97 65.97 85 42.5 85 42.5 85 42.5 85 42.5 85Z" fill="rgb(81,81,81)"/><path fillRule="evenodd" d="M 40.5 47C 47.39 47 53 41.39 53 34.5 53 27.61 47.39 22 40.5 22 33.61 22 28 27.61 28 34.5 28 41.39 33.61 47 40.5 47M 40.5 48C 33.04 48 27 41.96 27 34.5 27 27.04 33.04 21 40.5 21 47.96 21 54 27.04 54 34.5 54 41.96 47.96 48 40.5 48 40.5 48 40.5 48 40.5 48Z" fill="rgb(81,81,81)"/><path fillRule="evenodd" d="M 51.5 57C 58.39 57 64 51.39 64 44.5 64 37.61 58.39 32 51.5 32 44.61 32 39 37.61 39 44.5 39 51.39 44.61 57 51.5 57M 51.5 58C 44.04 58 38 51.96 38 44.5 38 37.04 44.04 31 51.5 31 58.96 31 65 37.04 65 44.5 65 51.96 58.96 58 51.5 58 51.5 58 51.5 58 51.5 58Z" fill="rgb(81,81,81)"/><path fillRule="evenodd" d="M 35.5 61C 42.39 61 48 55.39 48 48.5 48 41.61 42.39 36 35.5 36 28.61 36 23 41.61 23 48.5 23 55.39 28.61 61 35.5 61M 35.5 62C 28.04 62 22 55.96 22 48.5 22 41.04 28.04 35 35.5 35 42.96 35 49 41.04 49 48.5 49 55.96 42.96 62 35.5 62 35.5 62 35.5 62 35.5 62Z" fill="rgb(81,81,81)"/></svg>