<?xml version="1.0" encoding="utf-8"?>
<svg xmlns="http://www.w3.org/2000/svg"
	xmlns:xlink="http://www.w3.org/1999/xlink"
	width="85px" height="85px" viewBox="0 0 85 85">
<path fillRule="evenodd" d="M 42.5 84C 65.38 84 84 65.38 84 42.5 84 19.62 65.38 1 42.5 1 19.62 1 1 19.62 1 42.5 1 65.38 19.62 84 42.5 84M 42.5 85C 19.03 85 0 65.97 0 42.5 0 19.03 19.03 0 42.5 0 65.97 0 85 19.03 85 42.5 85 65.97 65.97 85 42.5 85 42.5 85 42.5 85 42.5 85Z" fill="rgb(81,81,81)"/><path fillRule="evenodd" d="M 63.86 50.28C 63.33 50.11 62.95 49.4 62.46 49.22 60.41 48.49 58.9 49.67 56.98 49.71 52.41 49.81 50.77 49.75 45.3 48.06 45.13 43.27 48 40.42 49.27 36.75 50.41 33.48 48.83 29.71 48.61 25.89 48.48 23.65 48.76 21.43 48.61 19.07 47.01 20.51 47.78 24.88 47.51 26.96 46.82 24.14 47.05 20.42 45.97 18 45.28 20.7 46.06 24.45 45.97 26.96 45.19 24.43 44.95 21.39 43.98 19.07 42.73 21.62 44.76 25.46 44.43 27.81 43.43 25.57 42.97 22.82 41.78 20.77 41.39 23.85 42.75 26.36 42.66 28.45 41.74 26.64 41.23 24.43 39.79 23.12 39.7 25.08 41.04 27.44 41.78 29.3 40.48 28.63 40.08 27.1 38.69 26.52 38.92 28.09 39.93 28.88 40.45 30.15 39.53 29.63 39.11 28.6 38.03 28.23 38.05 29.7 39.29 30 39.58 31.22 38.93 30.78 38.36 30.25 37.59 29.94 37.6 31.01 39.11 31.72 38.91 32.29 38.78 32.16 37.86 31.78 37.81 32.29 38.05 32.43 38.95 32.99 38.47 33.14 38.09 33.15 37.78 33.09 37.59 32.93 37.47 33.68 38.37 33.44 38.25 34.2 37.97 34.19 37.95 33.93 37.59 33.99 37.42 34.64 38.2 34.4 38.03 35.05 34.09 39.12 36.24 43.55 35.83 48.27 36.08 47.6 32.61 46.87 29.92 45.8 28.46 45.21 28.18 43.5 27.02 42.94 27.02 42.66 27.4 42.74 27.45 42.51 27.02 42.3 26.51 42.15 26.36 41.67 26.81 41.53 27.8 41.92 27.89 41.45 27.2 41.05 25.34 40.66 25.69 39.96 26.66 40.04 27.56 40.54 28.34 40.38 27.2 39.84 25.26 38.95 25.25 38.04 26.18 38.42 27.68 39.38 28.77 38.88 27.14 38.05 24.83 36.75 24.37 35.48 25.58 36.09 27.1 37.53 28.34 37.4 26.31 36.8 24.77 34.6 22.83 34.63 23.7 36.42 26.58 37.4 27.24 38.68 25.82 37.77 24.17 37.09 22.61 36.34 23.27 38.25 25.35 38.79 26.8 39.96 25.39 39.82 24.53 39.17 23.05 39.11 23.48 40.6 25.79 40.29 26.57 41.45 26.1 41.06 24.96 41.31 24.15 41.24 24.37 42.23 25.88 41.98 26.57 42.51 25.73 42.48 24.97 42.52 24.59 42.94 25.05 43.42 26.21 43.23 26.57 43.79 26.02 43.76 25.5 43.76 25.47 44.23 25.63 44.64 26.7 44.17 26.8 44.65 26.51 44.73 26.34 44.92 26.36 45.29 26.68 45.33 27.17 45.21 27.24 45.5 26.99 45.55 26.9 45.74 26.8 45.93 28.9 47.06 30.03 50.48 32.96 51.46 31.32 52.61 34.47 53.61 16 60 16.65 60 24.08 58.16 26.37 57.39 28.63 56.62 30.93 55.94 33.13 55.26 33.69 55.09 34.13 54.89 34.74 54.83 38.6 54.46 42 55.16 45.74 52.75 42.84 53.19 38.01 53.76 36.05 52.1 38.61 48.21 36.82 38.36 38.76 36.13 40.84 34.17 43.87 27.74 47.75 33.2 48.37 34.08 48.48 35.33 47.09 37.62 45.4 40.42 44.35 41.7 44.68 47.7 44.74 48.91 44.89 50.26 42.78 50.2 50.78 51.9 53.16 51.07 57.87 50.4 59.41 50.18 61.63 48.99 61.83 50.48 61.92 51.07 60.3 51.05 58.97 51.05 56.74 51.06 59.92 51.83 61.01 51.78 61.49 51.8 65.75 51.29 68 50.83 66.24 50.69 65.24 50.71 63.86 50.28Z" fill="rgb(81,81,81)"/></svg>