<?xml version="1.0" encoding="utf-8"?>
<svg xmlns="http://www.w3.org/2000/svg"
	xmlns:xlink="http://www.w3.org/1999/xlink"
	width="50px" height="50px" viewBox="0 0 50 50">
<circle cx="25.00" cy="25.00" r="25.00" fill="rgb(50,121,157)"/><path fillRule="evenodd" d="M 25.44 34.97C 23.45 34.97 21.59 34.09 20.33 32.57 19.55 33.53 18.37 34.1 17.11 34.1 15.04 34.1 13.31 32.55 13 30.55 10.83 30.76 9 29.05 9 26.91 9 24.78 10.84 23.06 12.99 23.27 13.31 20.65 15.55 18.6 18.23 18.6 18.96 18.6 19.67 18.76 20.33 19.05 20.72 16.17 23.14 13.98 26.06 13.98 28.85 13.98 31.2 15.95 31.73 18.65 34.74 18.25 37.33 20.46 37.65 23.33 37.88 23.28 38.12 23.26 38.36 23.26 40.37 23.26 42 24.9 42 26.91 42 28.67 40.79 30.14 39.13 30.49 38.85 32.55 37.11 34.1 35.01 34.1 34.04 34.1 33.13 33.77 32.4 33.18 31.43 33.96 30.16 34.28 28.9 34 27.85 34.64 26.67 34.97 25.44 34.97ZM 20.31 31.51C 20.48 31.51 20.64 31.44 20.73 31.58 21.78 33.17 23.55 34.05 25.44 34.05 26.54 34.05 27.61 33.69 28.54 33.08 28.66 33 28.8 32.96 28.94 32.99 30.1 33.31 31.25 32.97 32.04 32.16 32.23 31.96 32.56 31.96 32.75 32.15 33.35 32.76 34.15 33.1 35.01 33.1 36.71 33.1 38.1 31.75 38.17 30.04 38.17 29.78 38.37 29.58 38.62 29.55 39.98 29.42 41 28.29 41 26.91 41 25.45 39.82 24.26 38.36 24.26 38.02 24.26 37.68 24.33 37.37 24.46 37.21 24.52 37.03 24.5 36.89 24.4 36.75 24.31 36.67 24.14 36.68 23.97 36.68 21.22 34.21 19.07 31.42 19.73 31.28 19.76 31.14 19.73 31.02 19.65 30.9 19.56 30.83 19.43 30.81 19.29 30.56 16.84 28.51 14.99 26.06 14.99 23.42 14.99 21.28 17.14 21.28 19.79 21.28 19.98 21.18 20.18 21.02 20.26 20.86 20.35 20.67 20.38 20.51 20.28 19.83 19.84 19.04 19.61 18.23 19.61 15.89 19.61 13.97 21.52 13.95 23.87 13.95 24.03 13.88 24.17 13.75 24.27 13.63 24.36 13.47 24.39 13.32 24.35 11.6 23.89 10 25.23 10 26.91 10 28.6 11.55 29.95 13.32 29.47 13.47 29.43 13.63 29.47 13.75 29.56 13.87 29.65 13.95 29.8 13.95 29.95 13.97 31.69 15.39 33.09 17.11 33.09 18.26 33.09 19.32 32.62 19.88 31.62 19.96 31.46 20.12 31.51 20.29 31.51 20.3 31.51 20.31 31.51 20.31 31.51Z" fill="rgb(255,255,255)"/></svg>