<svg xmlns="http://www.w3.org/2000/svg" xmlns:xlink="http://www.w3.org/1999/xlink" preserveAspectRatio="xMidYMid" width="19.031" height="19.031" viewBox="0 0 19.031 19.031">
  <defs>
    <style>
      .cart-icon {
        fill: #c6c6c6;
        fill-rule: evenodd;
      }
    </style>
  </defs>
  <path d="M18.613,1.145 L16.613,1.645 L14.892,12.545 L14.892,12.551 L14.889,12.566 C14.880,12.598 14.865,12.627 14.854,12.659 C14.842,12.694 14.836,12.728 14.819,12.760 C14.799,12.795 14.770,12.821 14.746,12.850 C14.723,12.874 14.708,12.903 14.685,12.923 C14.653,12.949 14.615,12.967 14.578,12.984 C14.554,12.999 14.534,13.016 14.508,13.028 C14.441,13.051 14.371,13.065 14.299,13.065 L3.141,13.065 L3.437,14.254 L15.490,14.254 C15.819,14.254 16.084,14.521 16.084,14.850 C16.084,15.178 15.819,15.445 15.490,15.445 L2.972,15.445 C2.899,15.445 2.827,15.428 2.760,15.405 C2.737,15.396 2.719,15.382 2.696,15.370 C2.655,15.347 2.617,15.323 2.583,15.291 C2.562,15.271 2.542,15.254 2.524,15.230 C2.498,15.198 2.472,15.164 2.452,15.123 C2.440,15.097 2.426,15.071 2.417,15.042 C2.411,15.027 2.399,15.012 2.397,14.995 L1.801,12.615 L0.012,5.472 C-0.008,5.391 -0.008,5.309 0.004,5.228 C0.007,5.208 0.018,5.190 0.024,5.170 C0.041,5.112 0.059,5.056 0.091,5.007 C0.094,5.001 0.094,4.995 0.097,4.990 C0.112,4.969 0.135,4.961 0.152,4.940 C0.184,4.902 0.219,4.868 0.259,4.839 C0.289,4.818 0.321,4.807 0.355,4.792 C0.384,4.781 0.411,4.760 0.445,4.751 C0.460,4.748 0.472,4.751 0.486,4.748 C0.498,4.746 0.507,4.740 0.518,4.737 L15.194,2.979 L15.496,1.069 C15.534,0.834 15.709,0.642 15.941,0.584 L18.325,-0.012 C18.645,-0.090 18.967,0.104 19.046,0.421 C19.127,0.741 18.933,1.063 18.613,1.145 ZM3.178,5.618 L1.330,5.838 L2.841,11.874 L4.074,11.874 L3.178,5.618 ZM6.219,5.254 L4.362,5.474 L5.278,11.874 L6.522,11.874 L6.219,5.254 ZM7.406,5.112 L7.717,11.874 L8.958,11.874 L9.263,4.888 L7.406,5.112 ZM10.461,4.746 L10.153,11.874 L11.388,11.874 L12.307,4.525 L10.461,4.746 ZM13.528,4.376 L12.589,11.874 L13.775,11.874 L14.796,4.225 L13.528,4.376 ZM5.356,16.634 C6.016,16.634 6.548,17.169 6.548,17.826 C6.548,18.482 6.016,19.017 5.356,19.017 C4.699,19.017 4.164,18.485 4.164,17.826 C4.164,17.169 4.699,16.634 5.356,16.634 ZM13.107,16.634 C13.764,16.634 14.299,17.169 14.299,17.826 C14.299,18.482 13.764,19.017 13.107,19.017 C12.447,19.017 11.915,18.485 11.915,17.826 C11.915,17.169 12.447,16.634 13.107,16.634 Z" class="cart-icon menu-icon"/>
</svg>
