<?xml version="1.0" encoding="utf-8"?>
<!-- Generator: Adobe Illustrator 19.0.0, SVG Export Plug-In . SVG Version: 6.00 Build 0)  -->
<svg version="1.1" id="Layer_1" xmlns="http://www.w3.org/2000/svg" xmlns:xlink="http://www.w3.org/1999/xlink" x="0px" y="0px"
	 viewBox="-232 349.9 131 142" style="enable-background:new -232 349.9 131 142;" xml:space="preserve">
<style type="text/css">
	.st0{fill:#F8B319;}
	.st1{fill:#FFFFFF;}
</style>
<g id="cheese">
	<path class="st0" d="M-151.8,367.8c-0.8,4.6-4.9,8.1-9.8,8.1c-5.4,0-9.8-4.3-9.9-9.6c-27.5,2.9-49,26.1-49.2,54.6
		c0,5.5,0.8,10.9,2.4,15.9c0.2,0,0.4,0,0.6,0c5.4,0,9.8,4.4,9.8,9.8c0,2.4-0.9,4.6-2.3,6.3c9.1,12.6,23.5,21.1,39.8,22.5
		c4.2,0.5,13.2-0.1,18.2-1.5c13.2-3.4,24.5-11.6,31.9-22.6c-0.7-1.3-1-2.7-1-4.2c0-4.5,3.2-8.3,7.5-9.1c1.8-5.4,2.7-11.1,2.7-17.1
		C-111,395.4-128.3,374-151.8,367.8z M-209.6,405.9c-2.9,0-5.3-2.3-5.3-5.2c0-2.9,2.4-5.3,5.3-5.3c2.9,0,5.2,2.3,5.2,5.3
		C-204.3,403.6-206.7,405.9-209.6,405.9z M-122.9,424.4c-3.5,0-6.4-2.8-6.4-6.4c0-3.5,2.9-6.4,6.4-6.4s6.4,2.8,6.4,6.4
		C-116.5,421.6-119.3,424.4-122.9,424.4z"/>
	<g>
		<g>
			<path class="st1" d="M-140.9,423.1c0.9-2.6,1.4-6-0.7-8.1c-1.3-1.3-3.3-1.4-4.7-1.2c0.2-1.1,0.3-2.2,0.4-3.3
				c0.1-0.9-1.9-0.7-2.3-0.6c-1,0.2-2,0.8-2.1,1.7c-0.1,4.2-0.9,8.4-1.8,12.4c-0.9,0.4-1.8,0.9-2.8,1.3c-0.5,0.2-1,0.5-1.7,0.3
				c-1.1-0.3-1-2.1-1.1-3.1c-0.2-3.7,0.2-7.7,2.3-10.8c0.5-0.7-0.2-1.3-1.4-1.2c-1.3,0.1-2.6,0.9-3,1.7c-1.9,4.1-2.1,8.6-1.6,13.3
				c0.2,1.6,0.5,2.6,2.4,2.9c2.1,0.4,4.5-0.9,6.2-1.8c-0.1,0.3-0.1,0.6-0.2,0.9c-0.9,3.8-1.9,7.6-3,11.4c-0.3,0.9,0.5,0.9,1,0.8
				c0.6-0.2,1.4-0.8,1.7-1.7c0.9-2.6,1.8-5.2,2.6-7.8c1,0.4,2.3,0.4,3.6-0.1C-143.9,428.9-141.9,426.1-140.9,423.1z M-146.1,416
				C-146,416-146,416-146.1,416L-146.1,416z M-147.7,428.1L-147.7,428.1L-147.7,428.1z M-147.6,427.9c-0.1,0.1-0.1,0.1-0.2,0.2l0,0
				c-1.2-0.4-1.5-1.7-1.2-2.7c0-0.1,0-0.2,0-0.3c0.7-2.2,1.3-4.5,1.8-6.7c0,0,0-0.1,0.1-0.1c0.2-0.7,0.4-1.4,0.9-2l0,0l0,0
				c0.5,0.1,0.8,0.6,1,1.2c0.8,1.8,0.4,3.9,0,5.5C-145.6,424.6-146.3,426.6-147.6,427.9z"/>
			<path class="st1" d="M-166,414.1c-0.1,0-0.2,0-0.3,0s-0.1,0-0.2,0c-1,0.1-1.9,0.4-2.6,0.9c-0.1-1.5-0.3-3-0.6-4.5
				c-0.1-0.7-1.6-0.2-2,0c-1.1,0.6-2.1,1.5-2.2,2.5c-0.2,1.8-0.6,3.7-0.9,5.5c-0.3,1.5-0.6,3-1,4.5c-0.2,0.6-0.4,1.3-0.6,1.9
				c-0.1,0.3-0.2,0.5-0.3,0.6c-0.8,0.9-1.9,1-3.1,0.7c-1.2-0.3-2.2-1.1-3-2c-2.2-2.4-3.4-5.5-4-8.6c-0.3-1.6-0.4-3.2-0.1-4.9
				c0.1-0.6,0.2-1.3,0.4-1.9c0.1-0.4,0.2-0.6,0.3-0.8c0.1-0.1,0.1-0.3,0.2-0.4l0,0l0.1-0.1c0,0,0-0.1,0.1-0.1c0,0,0,0,0.1-0.1
				c0,0,0.1-0.1,0.3-0.2c0.2-0.1,1.1-0.4,1.6-0.4c2.8-0.4,3.9,1.7,4.6,3.4c0.5,1.2,4.5-1.9,4.1-3.1c-1-2.7-3.5-4.5-6.4-4.1
				c-2.4,0.3-4.4,1.5-5.9,3.2c-3.1,3.6-3.8,8.4-2.8,12.9c0.9,4,3.1,7.8,6.6,10.1c1.3,0.9,2.9,1.3,4.3,1c3.2-0.7,5.4-4.4,6.6-7.3
				c0.1-0.2,0.1-0.3,0.1-0.4c0-0.1,0.1-0.1,0.1-0.2c0.2,2.8,2.2,5.9,5.1,5.8c3.2-0.1,5.2-4.2,5.6-7.1
				C-161.5,418-162.6,414.5-166,414.1z M-165.4,424.1c-0.1,0.2-0.1,0.4-0.2,0.6c-0.1,0-0.2,0-0.4,0c-1.8,0.1-2.7-2.5-2.9-3.9
				c0-0.2,0-0.3-0.1-0.5l0,0c0-0.2,0-0.5,0-0.7c0-0.6,0.1-1.1,0.2-1.7c0-0.2,0.2-0.4,0.3-0.6c0.1,0,0.1,0,0.2,0
				c2.1-0.1,2.8,2.5,3,3.9C-165.1,422.2-165.2,423.2-165.4,424.1z"/>
		</g>
	</g>
</g>
</svg>
