<?xml version="1.0" encoding="utf-8"?>
<!-- Generator: Adobe Illustrator 19.0.0, SVG Export Plug-In . SVG Version: 6.00 Build 0)  -->
<svg version="1.1" xmlns="http://www.w3.org/2000/svg" xmlns:xlink="http://www.w3.org/1999/xlink" x="0px" y="0px"
	 viewBox="0 0 124 137" style="enable-background:new 0 0 124 137;" xml:space="preserve">
<style type="text/css">
	.st0{fill:#F19A67;}
	.st1{fill:#FFFFFF;}
	.st2{fill-rule:evenodd;clip-rule:evenodd;fill:#62BC47;}
</style>
<g id="chiken">
	<path class="st0" d="M9.9,77.3c0-18.3,1.2-43.1,16-51.7c12-7,29-1.3,44.7,15.7c12.4,13.4,49.6,8.7,49.6,35.9
		c0,30.5-24.7,55.1-55.1,55.1C34.6,132.4,9.9,107.8,9.9,77.3z"/>
	<g>
		<path class="st1" d="M85,61.5c-0.1-0.1-0.2-0.1-0.3-0.2c-0.1,0-0.1-0.1-0.2-0.1c-3.4-1-5.5,2.7-6.4,5.4c-0.1,0.1-0.1,0.2-0.1,0.3
			c-0.6,1.7-1.8,3.6-3.1,4.2c-0.1,0.1-0.1,0-0.6,0.1c-0.4,0-0.8,0-1.2-0.1c-0.7-0.3-1.1-0.9-1.4-1.7c-0.1-0.3-0.2-0.6-0.2-1
			c0-0.1,0-0.3,0-0.4c-0.1-1.4,0.2-2.9,0.5-4.3c0.2-1,0.6-2.2,1.2-3.1c0.1,0.1,0.2,0.2,0.3,0.4c0.5,0.6,0.5,1.5,0.6,2.2
			c0.1,1.3,3.2-0.1,3.1-1.3c-0.1-1.5-0.4-3.6-2.4-3.8c-1.9-0.2-3.8,1.4-4.7,2.7c-1.6,2.6-1.8,5.3-1.8,8.4c-1,0.8-2.1,1.4-2.8,0.1
			c-0.6-1.2-0.6-3-0.5-4.3c0-0.4,0-0.9,0-1.3c0,0,0,0,0-0.1c0-0.1,0-0.1,0-0.2c0.1-1.1,0.2-2.2,0.4-3.3c0-0.1,0-0.2,0.1-0.2
			c0,0,0-0.1,0-0.1c0.1-0.7,0.3-1.5,0.4-2.2c0.2-0.8-0.9-0.7-1.4-0.5c-0.1,0-0.2,0.1-0.2,0.1c-0.7-0.4-1.8-0.5-2.8,0.1
			c-2.7,1.4-3.5,4.9-3.1,7.7c0.3,1.6,1.5,2.9,3,2.7c0.2,0,0.5-0.1,0.7-0.2c-0.1,0.7-0.4,1.5-0.7,2.1c-0.3,0.7-1.3-0.4-1.4-0.9
			c-0.3-0.9-1.5,0.1-2.1,1.1c-0.8,0.2-1.5-2.4-1.7-3c-0.6-2-1-4.1-1.4-6.1c-0.6-3.3-1.1-6.6-0.9-9.8c0-0.6-0.7-0.6-1.3-0.4
			c-0.9,0.3-1.6,1-2,1.7c-1.1,2.4-1.3,5.3-1.4,8c0,0,0,0.1,0,0.1c-0.1-0.2-0.1-0.5-0.2-0.7c-0.5-2.2-0.9-4.3-1.3-6.5
			c-0.2-1.3-0.5-3.1-0.4-4.2c0.2-1.8-2.3,0-2.7,0.8c-2.4,5-0.7,10.7,0.1,15.9c0.2,1.4,0.3,2.8,0.3,4.2c0,0.9,0.1,2.6-0.4,3.4
			c-0.4,0.5-1.2,0.1-1.6-0.1c-0.7-0.4-1.2-1-1.4-1.8c-0.2-0.8-1-0.3-1.4,0.1c-0.5,0.6-1,1.6-0.8,2.4c0.6,1.8,2.7,3.4,4.3,2.7
			c2.6-1.1,3.1-5,3.3-7.6c0.1-1.7,0.1-3.5-0.1-5.2c0.9,3.2,1.7,6.3,2.6,9.5c0.4,1.7,2.1-1.1,2.1-2c-0.1-2.9-0.1-5.8,0-8.8
			c0.2,0.9,0.4,1.8,0.6,2.6c0.5,2.2,1.1,4.4,2.2,6.3c0.4,0.8,1,1.7,1.9,1.6c0.7-0.1,1.4-0.4,1.9-0.9c1.1,1.2,2.9,0.4,3.9-0.8
			c0.2-0.2,0.4-0.5,0.6-0.7c0.2,0.9,0.6,1.7,1.3,2.1c0.6,0.4,1.6,0.1,2.3-0.1c0.8-0.3,1.6-0.7,2.3-1.2c0.9,2.5,3.5,3,5.5,2.2
			c1-0.4,1.8-0.9,2.7-1.6c-0.2,1.8,0,3.4,1.3,4.1c1.3,0.6,3.1-0.5,4.2-1.5c1.3-1.2,2.3-2.8,3-4.4C86.5,67.4,87.9,63.3,85,61.5z
			 M60.9,63.3c-0.3-1-0.2-3.1,0.4-3.8c-0.1,0.1,0.3,0,0.6,0.1c0.5,0.3,0.6,0.9,0.7,1.4c-0.1,1.3-0.2,2.6-0.2,3.8
			C61.6,64.8,61.1,64.1,60.9,63.3z M79.9,73.8C79.9,73.9,79.9,73.9,79.9,73.8L79.9,73.8z M80.8,72.7c-0.2,0.3-0.4,0.6-0.6,0.8
			c-0.5-0.4-0.5-1.5-0.5-2c0-1.3,0.3-2.5,0.7-3.8c0.4-1.2,0.9-2.5,1.5-3.6c0.2-0.3,0.4-0.5,0.6-0.8c1.2,1,0.2,4.7-0.1,5.7
			C82,70.4,81.5,71.6,80.8,72.7z"/>
	</g>
	<g>
		<g>
			<path class="st1" d="M92.3,92.9c-0.4,0.1-0.8,0.3-1.2,0c-0.6-0.4-0.3-1.7-0.1-2.4c0.5-2.8,1.4-5.7,3.2-7.9c0.4-0.5,0.1-1-0.6-1
				c-0.8,0-1.7,0.3-2,0.9c-2,2.9-2.9,6.2-3.4,9.8c-0.2,1.2-0.1,2.1,1.1,2.6c0.5,0.2,0.9,0.1,2.4-0.6C92.5,93.9,93.2,92.6,92.3,92.9z
				"/>
			<path class="st1" d="M87.3,82.8c-0.1,0-0.1-0.1-0.2-0.1c0,0-0.1,0-0.1,0c-0.7-0.1-1.3-0.1-1.8,0.1c0.3-1.1,0.5-2.3,0.6-3.5
				c0.1-0.5-0.9-0.5-1.1-0.4c-0.7,0.2-1.4,0.7-1.7,1.3c-0.5,1.3-1.1,2.6-1.7,3.8c-0.5,1-1.1,2-1.7,3c-0.3,0.4-0.6,0.8-0.9,1.2
				c-0.3,0.3-0.5,0.5-0.6,0.6c-0.1,0.1-0.2,0.1-0.3,0.2c-0.2,0-0.2-0.1-0.3-0.4c-0.1-0.5-0.2-1.1-0.2-1.7c-0.1-1.9,0.1-3.8,0.4-5.7
				c0.3-1.1,0.5-2.1,0.8-3.1c0.2-0.7-0.8-0.7-1.3-0.5c-0.8,0.2-1.5,0.8-1.7,1.5c-0.2,0.8-0.4,1.6-0.6,2.5c-0.4,1.9-1,3.8-1.8,5.5
				c-0.1,0.3-0.3,0.6-0.4,0.8c-0.2,0.3-0.2,0.3-0.3,0.4c0,0,0,0,0,0c-0.2,0-0.3,0.1-0.5,0.1c-0.3-0.1-0.4-0.8-0.4-1.8
				c0.1-0.2,0.2-0.5,0-0.7c0.2-2.8,0.8-5.7,1-8.4c0.1-1.4-2.7,0.2-2.7,1.1c-0.1,2.6-0.5,5.3-0.6,7.9c0,0.1,0,0.3,0,0.5
				c-0.6,0.6-1.3,1.2-2,1.2c-0.1,0-0.1,0-0.2,0c0,0-0.1,0-0.1-0.2c-0.2-0.4-0.3-1-0.4-1.5c-0.3-1.9-0.5-3.9-0.4-6
				c0.1-1.1,0.2-2.3,0.3-3.3c0.1-0.7-0.8-0.6-1.2-0.4c-0.7,0.3-1.2,1-1.3,1.7c-0.1,0.8-0.2,1.6-0.2,2.4c-0.2,2-0.4,4-0.9,5.9
				c-0.1,0.3-0.2,0.6-0.3,0.9c-0.1,0.3-0.2,0.4-0.2,0.4c0,0,0,0,0,0c-0.1,0.1-0.3,0.1-0.4,0.1c-0.5,0-0.7-1.5-0.8-3.4
				c0-0.2,0.1-0.5,0.1-0.7c0-0.2,0-0.3-0.1-0.4c0-2.2,0.1-4.4,0-6.5c-0.1-1.4-2.7,0.6-2.5,1.5c0.3,2.2,0.3,4.5,0.3,6.8
				c0,0,0,0,0,0.1c0,1.1-0.4,2.1-1.5,2.7c-0.1,0.1-0.2,0.1-0.3,0.1l0,0c-0.3-0.2-0.4-0.7-0.5-1c-0.5-1.5-0.4-3.2-0.7-4.7
				c-0.2-1.4-0.5-2.9-1.2-4.2c-1.2-2.3-3.5-0.1-4.3,1.6c-0.3-0.7-0.7-1.3-1.3-1.6c-0.7-0.4-1.7,0.2-2.2,0.8
				c-0.4,0.4-0.6,0.9-0.8,1.3c-0.1-0.3-0.2-0.7-0.3-1c-0.4-1.4-2.5,1.1-2.2,2c0.7,2.1,1.3,4.4,1.8,6.6C45,89,44.9,90,44.4,90.8
				c-0.5,0.9-1.1,0.9-1.7,0.1c-0.9-1.2-1.1-2.9-1.5-4.3c-0.4-1.4-0.8-2.9-1.6-4.1c-0.6-0.9-1.5-1.3-2.6-0.8
				c-1.2,0.7-1.8,2.1-2.1,3.3c-0.3-0.6-0.7-1.3-1.1-1.9c-0.6-0.9-2.6,1.9-2,2.7c1,1.4,1.6,3,2.3,4.5c0.8,1.9,1.6,3.9,2.3,5.9
				c0.5,1.3,2.2-1.3,1.8-2.2c-0.7-2-1.2-4-1.4-6.1c-0.1-1.1-0.2-2.5,0-3.6c0,0,0.1,0,0.1,0c0.5,0.1,0.8,0.6,1,1
				c0.8,1.2,1.2,2.7,1.6,4c0.5,1.9,1.4,5.1,3.4,4.8c1.3-0.2,2.3-1.8,2.9-3.3c0.1,0.6,0.3,1.1,0.4,1.7c0.4,1.4,2-1,1.8-1.9
				c-0.5-2.8-0.9-5.6-0.7-8.4c0-0.2,0-0.5,0.1-0.7c0,0,0,0.1,0.1,0.1c0.9,1.4,1.2,3.2,1.5,4.8c0.2,0.7,0.3,1.5,0.4,2.2
				c0.1,1,0.3,2,0.5,2.9c0.3,1.4,2.1-0.9,2-1.8c-0.1-0.7-0.2-1.5-0.3-2.2c-0.1-1.2-0.2-2.5-0.1-3.7c0-1.1,0.1-2.2,0.4-3.2
				c0.2,0.3,0.3,0.7,0.4,1c0.6,1.5,0.8,3,1,4.6c0.2,1.3,0.3,5.5,2.7,4.6c1.1-0.4,2-1.1,2.8-2c0.3,1.1,0.8,1.9,1.9,1.7
				c1.5-0.3,2.4-1.5,3.1-2.8c0.1,0.5,0.2,1,0.4,1.5c0.7,2.4,2.9,0.9,4.7-0.5c0.1,1,0.5,1.9,1.6,1.8c1.5-0.1,2.7-1.1,3.7-2.3
				c0,0.7,0.1,1.3,0.3,2c0.3,0.9,1.1,1,1.9,0.9c0,0.1,0,0.2,0,0.3c-0.1,0.5-0.1,0.9-0.2,1.4c-0.2,1.4,2.4,0,2.5-0.9
				c0.1-0.7,0.3-1.4,0.4-2.1c0.9-0.7,1.6-1.6,2.3-2.5c-0.5,1.9-0.3,4.8,1.8,5.5c2.3,0.7,4.5-2,5.3-4.1
				C89.4,86.7,89.5,83.9,87.3,82.8z M85.6,90.4c-0.1,0.2-0.2,0.3-0.3,0.4c0,0-0.1,0-0.3,0c-1.3-0.3-1.3-2.5-1.1-3.5
				c0-0.1,0-0.2,0.1-0.4c0,0,0,0,0,0c0-0.2,0.1-0.4,0.1-0.5c0.1-0.4,0.3-0.8,0.5-1.2c0.1-0.1,0.2-0.3,0.3-0.4c0,0,0.1,0,0.1,0
				c1.4,0.4,1.3,2.5,1.2,3.6C86.2,89,86,89.8,85.6,90.4z"/>
		</g>
	</g>
	<path class="st1" d="M58.6,121.1c-3.9-1.7-6-4.8-5.9-9c0-0.7,0-1.5,0.1-2.2c0.1-2.2,0.2-4.5-0.2-6.7c-0.1,0.1-0.2,0.2-0.3,0.2
		l-0.2,0c-0.3,0-0.5-0.2-0.7-0.5c-0.3-0.4-0.4-0.6-0.2-1.3c0.1-0.4,0.3-0.7,0.6-0.9c-0.3-0.4-0.9-0.6-1.7-0.6c-0.2,0-0.4,0-0.5,0
		l-0.8,0l0.5-0.7c0.9-1.1,1.9-1.8,2.9-2.4L51.7,97v-0.2c0-0.7,0.6-1.1,1.2-1.1c0.4,0,0.7,0.1,1,0.3c0.1,0,0.2,0.1,0.3,0.1
		c0.4-0.3,0.8-0.5,1.1-0.5c0.7,0,1.1,0.6,1.4,1.1c0,0,0.1,0,0.2,0c0.4,0,0.9,0.1,1.2,1c0,0.1,0,0.6-0.3,1l2.2,4.6
		c0.2,0.4,0.4,0.8,0.6,1.1c0.6,1.1,1.5,1.7,2.8,1.7c1.9,0,3.6,0.1,5.1,0.3c1.1,0.1,2.2,0.4,3.2,0.9c0.8,0.4,1.3,0.3,1.9-0.4
		c0.8-0.9,1.6-1.8,2.4-2.7l2.1-2.4l0.3,0.4c0.7,0.9,0.6,1.8,0.4,2.6l0.5-0.5l0.2,0.4c0,0.1,0.1,0.2,0.1,0.3c0.2,0.2,0.3,0.5,0.3,0.8
		c0,0.6-0.1,1.2-0.2,1.7c0,0.1,0,0.2,0,0.4c0.1,0.1,0.1,0.1,0.2,0.2c0.2,0.2,0.5,0.5,0.5,0.8l0,0.3c0,0.7-0.1,1.4-0.4,2
		c-1.3,2.3-3,5-4.8,7.6c-0.6,0.9-1.6,1.7-2.7,2.2c-2.5,1.1-5,1.6-7.4,1.6l0,0C62.8,122.5,60.7,122,58.6,121.1z M78.7,105.7
		c-0.1,0.1-0.2,0.2-0.3,0.4c0,0.1-0.1,0.1-0.1,0.2l-0.9,1.3l0.2-1.6c0-0.4,0.2-0.7,0.3-1.1c0.2-0.7,0.4-1.3,0.1-2l-1.5,1.7
		c-0.8,0.9-1.6,1.8-2.4,2.7c-0.8,0.9-1.7,1.1-2.8,0.6c-0.9-0.4-2-0.7-3-0.8c-1.5-0.2-3.1-0.3-5-0.3c-1.6,0-2.7-0.7-3.5-2.1
		c-0.2-0.4-0.4-0.8-0.6-1.2l-2.5-5.3l0.4-0.1c0.1-0.1,0.2-0.3,0.2-0.3l0,0c-0.1-0.4-0.2-0.4-0.4-0.4c-0.2,0-0.4,0-0.6-0.1l-0.1-0.1
		l0-0.1c-0.4-0.7-0.7-0.8-0.8-0.8c-0.2,0-0.5,0.1-0.8,0.4l-0.2,0.1l-0.2-0.1c-0.2-0.1-0.3-0.1-0.5-0.2c-0.3-0.1-0.5-0.3-0.8-0.2
		c0,0-0.3,0.1-0.3,0.2l0.8,0.7l-0.6,0.3c-0.9,0.5-1.7,1-2.4,1.7c0.8,0,1.7,0.3,2.3,1.3l0.1,0.2l0.4,1.2l0.1,0.2
		c0,0.2,0.1,0.3,0.1,0.5c0.5,2.4,0.4,4.8,0.3,7.1c0,0.7-0.1,1.4-0.1,2.2c-0.1,3.9,1.8,6.8,5.5,8.3c4.1,1.8,8.7,1.7,13.3-0.3
		c0.9-0.4,1.8-1.1,2.4-1.9c1.8-2.6,3.4-5.3,4.8-7.6c0.3-0.4,0.3-1.1,0.3-1.7l0-0.2c0,0-0.2-0.2-0.2-0.3c-0.1-0.1-0.2-0.2-0.3-0.3
		l-0.1-0.1l0-0.2c0-0.2,0-0.3,0.1-0.5c0.1-0.5,0.1-1.1,0.1-1.6c0-0.1-0.1-0.2-0.2-0.4C79,105.5,78.8,105.6,78.7,105.7z M52.2,101.4
		c-0.3,0.2-0.3,0.3-0.4,0.5c-0.1,0.4-0.1,0.5,0.1,0.6c0,0,0.1,0.1,0.1,0.1c0.4,0.1,0.3-0.2,0.4-0.4L52.2,101.4L52.2,101.4z
		 M63.1,118.9c-3-0.6-4.8-1.8-5.4-3.6c-0.9-2.6,1.3-5.4,1.4-5.5l0.2-0.2l11.1,5.7c1.8,0.5,2.5,1,2.5,1.5c0,0.7-1.1,0.9-2,1
		c-3.4,1-6.2,1.1-7.3,1.1C63.3,119,63.2,119,63.1,118.9z M70.1,116l-10.6-5.4c-0.5,0.7-1.7,2.7-1.1,4.5c0.5,1.5,2.2,2.5,4.8,3.1
		c0,0,0.1,0,0.4,0c1,0,3.8-0.1,7.1-1.1c0.5-0.1,1.1-0.2,1.3-0.4C71.9,116.7,71.5,116.4,70.1,116z"/>
</g>
<g id="bubbles">
	<path class="st2" d="M39.1,10.2c0,3.9-3.2,7-7,7c-3.9,0-7.1-3.2-7.1-7c0-3.9,3.2-7.1,7.1-7.1C36,3.1,39.1,6.3,39.1,10.2L39.1,10.2z
		"/>
	<path class="st2" d="M15.2,20c0,3-2.4,5.4-5.4,5.4c-3,0-5.4-2.4-5.4-5.4c0-3,2.4-5.4,5.4-5.4C12.8,14.6,15.2,17,15.2,20L15.2,20z"
		/>
</g>
</svg>
