<?xml version="1.0" encoding="utf-8"?>
<!-- Generator: Adobe Illustrator 19.0.0, SVG Export Plug-In . SVG Version: 6.00 Build 0)  -->
<svg version="1.1" id="Layer_1" xmlns="http://www.w3.org/2000/svg" xmlns:xlink="http://www.w3.org/1999/xlink" x="0px" y="0px"
	 viewBox="-235 352.9 124 137" style="enable-background:new -235 352.9 124 137;" xml:space="preserve">
<style type="text/css">
	.st0{opacity:0.5;}
	.st1{fill:#F19A67;}
	.st2{fill:#FFFFFF;}
	.st3{fill:#62BC47;}
</style>
<g id="chiken" class="st0">
	<path class="st1" d="M-230.9,424.7c0-18.3,1.2-43.1,16-51.7c12-7,29-1.3,44.7,15.7c12.4,13.4,49.6,8.7,49.6,35.9
		c0,30.5-24.7,55.1-55.1,55.1C-206.2,479.8-230.9,455.2-230.9,424.7z"/>
	<g>
		<path class="st2" d="M-155.8,408.9c-0.1-0.1-0.2-0.1-0.3-0.2c-0.1,0-0.1-0.1-0.2-0.1c-3.4-1-5.5,2.7-6.4,5.4
			c-0.1,0.1-0.1,0.2-0.1,0.3c-0.6,1.7-1.8,3.6-3.1,4.2c-0.1,0.1-0.1,0-0.6,0.1c-0.4,0-0.8,0-1.2-0.1c-0.7-0.3-1.1-0.9-1.4-1.7
			c-0.1-0.3-0.2-0.6-0.2-1c0-0.1,0-0.3,0-0.4c-0.1-1.4,0.2-2.9,0.5-4.3c0.2-1,0.6-2.2,1.2-3.1c0.1,0.1,0.2,0.2,0.3,0.4
			c0.5,0.6,0.5,1.5,0.6,2.2c0.1,1.3,3.2-0.1,3.1-1.3c-0.1-1.5-0.4-3.6-2.4-3.8c-1.9-0.2-3.8,1.4-4.7,2.7c-1.6,2.6-1.8,5.3-1.8,8.4
			c-1,0.8-2.1,1.4-2.8,0.1c-0.6-1.2-0.6-3-0.5-4.3c0-0.4,0-0.9,0-1.3c0,0,0,0,0-0.1s0-0.1,0-0.2c0.1-1.1,0.2-2.2,0.4-3.3
			c0-0.1,0-0.2,0.1-0.2v-0.1c0.1-0.7,0.3-1.5,0.4-2.2c0.2-0.8-0.9-0.7-1.4-0.5c-0.1,0-0.2,0.1-0.2,0.1c-0.7-0.4-1.8-0.5-2.8,0.1
			c-2.7,1.4-3.5,4.9-3.1,7.7c0.3,1.6,1.5,2.9,3,2.7c0.2,0,0.5-0.1,0.7-0.2c-0.1,0.7-0.4,1.5-0.7,2.1c-0.3,0.7-1.3-0.4-1.4-0.9
			c-0.3-0.9-1.5,0.1-2.1,1.1c-0.8,0.2-1.5-2.4-1.7-3c-0.6-2-1-4.1-1.4-6.1c-0.6-3.3-1.1-6.6-0.9-9.8c0-0.6-0.7-0.6-1.3-0.4
			c-0.9,0.3-1.6,1-2,1.7c-1.1,2.4-1.3,5.3-1.4,8v0.1c-0.1-0.2-0.1-0.5-0.2-0.7c-0.5-2.2-0.9-4.3-1.3-6.5c-0.2-1.3-0.5-3.1-0.4-4.2
			c0.2-1.8-2.3,0-2.7,0.8c-2.4,5-0.7,10.7,0.1,15.9c0.2,1.4,0.3,2.8,0.3,4.2c0,0.9,0.1,2.6-0.4,3.4c-0.4,0.5-1.2,0.1-1.6-0.1
			c-0.7-0.4-1.2-1-1.4-1.8s-1-0.3-1.4,0.1c-0.5,0.6-1,1.6-0.8,2.4c0.6,1.8,2.7,3.4,4.3,2.7c2.6-1.1,3.1-5,3.3-7.6
			c0.1-1.7,0.1-3.5-0.1-5.2c0.9,3.2,1.7,6.3,2.6,9.5c0.4,1.7,2.1-1.1,2.1-2c-0.1-2.9-0.1-5.8,0-8.8c0.2,0.9,0.4,1.8,0.6,2.6
			c0.5,2.2,1.1,4.4,2.2,6.3c0.4,0.8,1,1.7,1.9,1.6c0.7-0.1,1.4-0.4,1.9-0.9c1.1,1.2,2.9,0.4,3.9-0.8c0.2-0.2,0.4-0.5,0.6-0.7
			c0.2,0.9,0.6,1.7,1.3,2.1c0.6,0.4,1.6,0.1,2.3-0.1c0.8-0.3,1.6-0.7,2.3-1.2c0.9,2.5,3.5,3,5.5,2.2c1-0.4,1.8-0.9,2.7-1.6
			c-0.2,1.8,0,3.4,1.3,4.1c1.3,0.6,3.1-0.5,4.2-1.5c1.3-1.2,2.3-2.8,3-4.4C-154.3,414.8-152.9,410.7-155.8,408.9z M-179.9,410.7
			c-0.3-1-0.2-3.1,0.4-3.8c-0.1,0.1,0.3,0,0.6,0.1c0.5,0.3,0.6,0.9,0.7,1.4c-0.1,1.3-0.2,2.6-0.2,3.8
			C-179.2,412.2-179.8,411.5-179.9,410.7z M-160.9,421.2C-160.9,421.3-160.9,421.3-160.9,421.2L-160.9,421.2z M-160,420.1
			c-0.2,0.3-0.4,0.6-0.6,0.8c-0.5-0.4-0.5-1.5-0.5-2c0-1.3,0.3-2.5,0.7-3.8c0.4-1.2,0.9-2.5,1.5-3.6c0.2-0.3,0.4-0.5,0.6-0.8
			c1.2,1,0.2,4.7-0.1,5.7C-158.8,417.8-159.3,419-160,420.1z"/>
	</g>
	<g>
		<g>
			<path class="st2" d="M-148.5,440.3c-0.4,0.1-0.8,0.3-1.2,0c-0.6-0.4-0.3-1.7-0.1-2.4c0.5-2.8,1.4-5.7,3.2-7.9
				c0.4-0.5,0.1-1-0.6-1c-0.8,0-1.7,0.3-2,0.9c-2,2.9-2.9,6.2-3.4,9.8c-0.2,1.2-0.1,2.1,1.1,2.6c0.5,0.2,0.9,0.1,2.4-0.6
				C-148.3,441.3-147.6,440-148.5,440.3z"/>
			<path class="st2" d="M-153.5,430.2c-0.1,0-0.1-0.1-0.2-0.1h-0.1c-0.7-0.1-1.3-0.1-1.8,0.1c0.3-1.1,0.5-2.3,0.6-3.5
				c0.1-0.5-0.9-0.5-1.1-0.4c-0.7,0.2-1.4,0.7-1.7,1.3c-0.5,1.3-1.1,2.6-1.7,3.8c-0.5,1-1.1,2-1.7,3c-0.3,0.4-0.6,0.8-0.9,1.2
				c-0.3,0.3-0.5,0.5-0.6,0.6s-0.2,0.1-0.3,0.2c-0.2,0-0.2-0.1-0.3-0.4c-0.1-0.5-0.2-1.1-0.2-1.7c-0.1-1.9,0.1-3.8,0.4-5.7
				c0.3-1.1,0.5-2.1,0.8-3.1c0.2-0.7-0.8-0.7-1.3-0.5c-0.8,0.2-1.5,0.8-1.7,1.5c-0.2,0.8-0.4,1.6-0.6,2.5c-0.4,1.9-1,3.8-1.8,5.5
				c-0.1,0.3-0.3,0.6-0.4,0.8c-0.2,0.3-0.2,0.3-0.3,0.4l0,0c-0.2,0-0.3,0.1-0.5,0.1c-0.3-0.1-0.4-0.8-0.4-1.8c0.1-0.2,0.2-0.5,0-0.7
				c0.2-2.8,0.8-5.7,1-8.4c0.1-1.4-2.7,0.2-2.7,1.1c-0.1,2.6-0.5,5.3-0.6,7.9c0,0.1,0,0.3,0,0.5c-0.6,0.6-1.3,1.2-2,1.2
				c-0.1,0-0.1,0-0.2,0c0,0-0.1,0-0.1-0.2c-0.2-0.4-0.3-1-0.4-1.5c-0.3-1.9-0.5-3.9-0.4-6c0.1-1.1,0.2-2.3,0.3-3.3
				c0.1-0.7-0.8-0.6-1.2-0.4c-0.7,0.3-1.2,1-1.3,1.7c-0.1,0.8-0.2,1.6-0.2,2.4c-0.2,2-0.4,4-0.9,5.9c-0.1,0.3-0.2,0.6-0.3,0.9
				s-0.2,0.4-0.2,0.4l0,0c-0.1,0.1-0.3,0.1-0.4,0.1c-0.5,0-0.7-1.5-0.8-3.4c0-0.2,0.1-0.5,0.1-0.7s0-0.3-0.1-0.4
				c0-2.2,0.1-4.4,0-6.5c-0.1-1.4-2.7,0.6-2.5,1.5c0.3,2.2,0.3,4.5,0.3,6.8c0,0,0,0,0,0.1c0,1.1-0.4,2.1-1.5,2.7
				c-0.1,0.1-0.2,0.1-0.3,0.1l0,0c-0.3-0.2-0.4-0.7-0.5-1c-0.5-1.5-0.4-3.2-0.7-4.7c-0.2-1.4-0.5-2.9-1.2-4.2
				c-1.2-2.3-3.5-0.1-4.3,1.6c-0.3-0.7-0.7-1.3-1.3-1.6c-0.7-0.4-1.7,0.2-2.2,0.8c-0.4,0.4-0.6,0.9-0.8,1.3c-0.1-0.3-0.2-0.7-0.3-1
				c-0.4-1.4-2.5,1.1-2.2,2c0.7,2.1,1.3,4.4,1.8,6.6c-0.4,0.8-0.5,1.8-1,2.6c-0.5,0.9-1.1,0.9-1.7,0.1c-0.9-1.2-1.1-2.9-1.5-4.3
				s-0.8-2.9-1.6-4.1c-0.6-0.9-1.5-1.3-2.6-0.8c-1.2,0.7-1.8,2.1-2.1,3.3c-0.3-0.6-0.7-1.3-1.1-1.9c-0.6-0.9-2.6,1.9-2,2.7
				c1,1.4,1.6,3,2.3,4.5c0.8,1.9,1.6,3.9,2.3,5.9c0.5,1.3,2.2-1.3,1.8-2.2c-0.7-2-1.2-4-1.4-6.1c-0.1-1.1-0.2-2.5,0-3.6h0.1
				c0.5,0.1,0.8,0.6,1,1c0.8,1.2,1.2,2.7,1.6,4c0.5,1.9,1.4,5.1,3.4,4.8c1.3-0.2,2.3-1.8,2.9-3.3c0.1,0.6,0.3,1.1,0.4,1.7
				c0.4,1.4,2-1,1.8-1.9c-0.5-2.8-0.9-5.6-0.7-8.4c0-0.2,0-0.5,0.1-0.7c0,0,0,0.1,0.1,0.1c0.9,1.4,1.2,3.2,1.5,4.8
				c0.2,0.7,0.3,1.5,0.4,2.2c0.1,1,0.3,2,0.5,2.9c0.3,1.4,2.1-0.9,2-1.8c-0.1-0.7-0.2-1.5-0.3-2.2c-0.1-1.2-0.2-2.5-0.1-3.7
				c0-1.1,0.1-2.2,0.4-3.2c0.2,0.3,0.3,0.7,0.4,1c0.6,1.5,0.8,3,1,4.6c0.2,1.3,0.3,5.5,2.7,4.6c1.1-0.4,2-1.1,2.8-2
				c0.3,1.1,0.8,1.9,1.9,1.7c1.5-0.3,2.4-1.5,3.1-2.8c0.1,0.5,0.2,1,0.4,1.5c0.7,2.4,2.9,0.9,4.7-0.5c0.1,1,0.5,1.9,1.6,1.8
				c1.5-0.1,2.7-1.1,3.7-2.3c0,0.7,0.1,1.3,0.3,2c0.3,0.9,1.1,1,1.9,0.9c0,0.1,0,0.2,0,0.3c-0.1,0.5-0.1,0.9-0.2,1.4
				c-0.2,1.4,2.4,0,2.5-0.9c0.1-0.7,0.3-1.4,0.4-2.1c0.9-0.7,1.6-1.6,2.3-2.5c-0.5,1.9-0.3,4.8,1.8,5.5c2.3,0.7,4.5-2,5.3-4.1
				C-151.4,434.1-151.3,431.3-153.5,430.2z M-155.2,437.8c-0.1,0.2-0.2,0.3-0.3,0.4c0,0-0.1,0-0.3,0c-1.3-0.3-1.3-2.5-1.1-3.5
				c0-0.1,0-0.2,0.1-0.4l0,0c0-0.2,0.1-0.4,0.1-0.5c0.1-0.4,0.3-0.8,0.5-1.2c0.1-0.1,0.2-0.3,0.3-0.4h0.1c1.4,0.4,1.3,2.5,1.2,3.6
				C-154.6,436.4-154.8,437.2-155.2,437.8z"/>
		</g>
	</g>
	<path class="st2" d="M-182.2,468.5c-3.9-1.7-6-4.8-5.9-9c0-0.7,0-1.5,0.1-2.2c0.1-2.2,0.2-4.5-0.2-6.7c-0.1,0.1-0.2,0.2-0.3,0.2
		h-0.2c-0.3,0-0.5-0.2-0.7-0.5c-0.3-0.4-0.4-0.6-0.2-1.3c0.1-0.4,0.3-0.7,0.6-0.9c-0.3-0.4-0.9-0.6-1.7-0.6c-0.2,0-0.4,0-0.5,0h-0.8
		l0.5-0.7c0.9-1.1,1.9-1.8,2.9-2.4h-0.5v-0.2c0-0.7,0.6-1.1,1.2-1.1c0.4,0,0.7,0.1,1,0.3c0.1,0,0.2,0.1,0.3,0.1
		c0.4-0.3,0.8-0.5,1.1-0.5c0.7,0,1.1,0.6,1.4,1.1c0,0,0.1,0,0.2,0c0.4,0,0.9,0.1,1.2,1c0,0.1,0,0.6-0.3,1l2.2,4.6
		c0.2,0.4,0.4,0.8,0.6,1.1c0.6,1.1,1.5,1.7,2.8,1.7c1.9,0,3.6,0.1,5.1,0.3c1.1,0.1,2.2,0.4,3.2,0.9c0.8,0.4,1.3,0.3,1.9-0.4
		c0.8-0.9,1.6-1.8,2.4-2.7l2.1-2.4l0.3,0.4c0.7,0.9,0.6,1.8,0.4,2.6l0.5-0.5l0.2,0.4c0,0.1,0.1,0.2,0.1,0.3c0.2,0.2,0.3,0.5,0.3,0.8
		c0,0.6-0.1,1.2-0.2,1.7c0,0.1,0,0.2,0,0.4c0.1,0.1,0.1,0.1,0.2,0.2c0.2,0.2,0.5,0.5,0.5,0.8v0.3c0,0.7-0.1,1.4-0.4,2
		c-1.3,2.3-3,5-4.8,7.6c-0.6,0.9-1.6,1.7-2.7,2.2c-2.5,1.1-5,1.6-7.4,1.6l0,0C-178,469.9-180.1,469.4-182.2,468.5z M-162.1,453.1
		c-0.1,0.1-0.2,0.2-0.3,0.4c0,0.1-0.1,0.1-0.1,0.2l-0.9,1.3l0.2-1.6c0-0.4,0.2-0.7,0.3-1.1c0.2-0.7,0.4-1.3,0.1-2l-1.5,1.7
		c-0.8,0.9-1.6,1.8-2.4,2.7s-1.7,1.1-2.8,0.6c-0.9-0.4-2-0.7-3-0.8c-1.5-0.2-3.1-0.3-5-0.3c-1.6,0-2.7-0.7-3.5-2.1
		c-0.2-0.4-0.4-0.8-0.6-1.2l-2.5-5.3l0.4-0.1c0.1-0.1,0.2-0.3,0.2-0.3l0,0c-0.1-0.4-0.2-0.4-0.4-0.4s-0.4,0-0.6-0.1l-0.1-0.1v-0.1
		c-0.4-0.7-0.7-0.8-0.8-0.8c-0.2,0-0.5,0.1-0.8,0.4l-0.2,0.1l-0.2-0.1c-0.2-0.1-0.3-0.1-0.5-0.2c-0.3-0.1-0.5-0.3-0.8-0.2
		c0,0-0.3,0.1-0.3,0.2l0.8,0.7l-0.6,0.3c-0.9,0.5-1.7,1-2.4,1.7c0.8,0,1.7,0.3,2.3,1.3l0.1,0.2l0.4,1.2l0.1,0.2
		c0,0.2,0.1,0.3,0.1,0.5c0.5,2.4,0.4,4.8,0.3,7.1c0,0.7-0.1,1.4-0.1,2.2c-0.1,3.9,1.8,6.8,5.5,8.3c4.1,1.8,8.7,1.7,13.3-0.3
		c0.9-0.4,1.8-1.1,2.4-1.9c1.8-2.6,3.4-5.3,4.8-7.6c0.3-0.4,0.3-1.1,0.3-1.7v-0.2c0,0-0.2-0.2-0.2-0.3c-0.1-0.1-0.2-0.2-0.3-0.3
		l-0.1-0.1V455c0-0.2,0-0.3,0.1-0.5c0.1-0.5,0.1-1.1,0.1-1.6c0-0.1-0.1-0.2-0.2-0.4C-161.8,452.9-162,453-162.1,453.1z
		 M-188.6,448.8c-0.3,0.2-0.3,0.3-0.4,0.5c-0.1,0.4-0.1,0.5,0.1,0.6l0.1,0.1c0.4,0.1,0.3-0.2,0.4-0.4L-188.6,448.8L-188.6,448.8z
		 M-177.8,466.3c-3-0.6-4.8-1.8-5.4-3.6c-0.9-2.6,1.3-5.4,1.4-5.5l0.2-0.2l11.1,5.7c1.8,0.5,2.5,1,2.5,1.5c0,0.7-1.1,0.9-2,1
		c-3.4,1-6.2,1.1-7.3,1.1C-177.5,466.4-177.6,466.4-177.8,466.3z M-170.8,463.4l-10.6-5.4c-0.5,0.7-1.7,2.7-1.1,4.5
		c0.5,1.5,2.2,2.5,4.8,3.1c0,0,0.1,0,0.4,0c1,0,3.8-0.1,7.1-1.1c0.5-0.1,1.1-0.2,1.3-0.4C-168.9,464.1-169.3,463.8-170.8,463.4z"/>
</g>
<g id="soon">
	<path class="st3" d="M-115,388.7c0,16.3-13.4,29.3-29.3,29.3c-16.3,0-29.8-13.4-29.8-29.3c0-16.3,13.4-29.8,29.8-29.8
		C-128,358.9-115,372.3-115,388.7L-115,388.7z"/>
	<g>
		<path class="st2" d="M-158.5,390.2L-158.5,390.2c0,1.2-0.3,2.1-1,2.7s-1.6,0.9-2.9,0.9s-2.3-0.4-3.1-1.2c-0.8-0.8-1.2-1.8-1.2-3.1
			v-2.1c0-1.3,0.4-2.3,1.1-3c0.7-0.8,1.7-1.2,2.9-1.2c1.3,0,2.3,0.3,3,0.9s1.1,1.5,1,2.6l0,0h-2.3c0-0.6-0.1-1.1-0.4-1.4
			s-0.7-0.4-1.3-0.4c-0.5,0-0.9,0.2-1.2,0.6s-0.4,1-0.4,1.7v2.2c0,0.7,0.2,1.3,0.5,1.7s0.8,0.6,1.4,0.6c0.5,0,0.9-0.1,1.2-0.4
			s0.4-0.7,0.4-1.4h2.3V390.2z"/>
		<path class="st2" d="M-154.1,389.5h-0.7v4.1h-2.4v-10.3h2.4v4h0.5l2.3-4h3l-3.2,4.7l3.5,5.6h-3.1L-154.1,389.5z"/>
		<path class="st2" d="M-139.6,389.4c0,1.3-0.4,2.3-1.2,3.1c-0.8,0.8-1.9,1.2-3.1,1.2c-1.3,0-2.4-0.4-3.2-1.2
			c-0.8-0.8-1.2-1.9-1.2-3.1v-1.8c0-1.3,0.4-2.3,1.2-3.1c0.8-0.8,1.9-1.2,3.2-1.2s2.3,0.4,3.1,1.2c0.8,0.8,1.2,1.9,1.2,3.1V389.4z
			 M-142,387.5c0-0.7-0.2-1.3-0.5-1.8s-0.8-0.7-1.5-0.7c-0.6,0-1.1,0.2-1.5,0.7c-0.3,0.5-0.5,1.1-0.5,1.8v1.9c0,0.7,0.2,1.4,0.5,1.8
			c0.3,0.5,0.8,0.7,1.5,0.7c0.6,0,1.1-0.2,1.5-0.7s0.5-1.1,0.5-1.8V387.5z"/>
		<path class="st2" d="M-135.8,390.1v3.5h-2.4v-10.3h3.9c1.2,0,2.2,0.3,2.9,0.9s1.1,1.4,1.1,2.4s-0.4,1.8-1.1,2.4
			c-0.7,0.6-1.7,0.9-2.9,0.9h-1.5V390.1z M-135.8,388.3h1.5c0.5,0,0.9-0.1,1.2-0.4s0.4-0.7,0.4-1.1c0-0.5-0.1-0.8-0.4-1.1
			c-0.3-0.3-0.7-0.4-1.2-0.4h-1.5V388.3z"/>
		<path class="st2" d="M-120.4,389.4c0,1.3-0.4,2.3-1.2,3.1c-0.8,0.8-1.9,1.2-3.1,1.2c-1.3,0-2.4-0.4-3.2-1.2
			c-0.8-0.8-1.2-1.9-1.2-3.1v-1.8c0-1.3,0.4-2.3,1.2-3.1c0.8-0.8,1.9-1.2,3.2-1.2s2.3,0.4,3.1,1.2c0.8,0.8,1.2,1.9,1.2,3.1
			C-120.5,387.6-120.5,389.4-120.4,389.4z M-122.8,387.5c0-0.7-0.2-1.3-0.5-1.8s-0.8-0.7-1.5-0.7c-0.6,0-1.1,0.2-1.5,0.7
			c-0.3,0.5-0.5,1.1-0.5,1.8v1.9c0,0.7,0.2,1.4,0.5,1.8s0.8,0.7,1.5,0.7c0.6,0,1.1-0.2,1.5-0.7c0.3-0.5,0.5-1.1,0.5-1.8V387.5z"/>
	</g>
</g>
</svg>
