<?xml version="1.0" encoding="utf-8"?>
<!-- Generator: Adobe Illustrator 19.0.0, SVG Export Plug-In . SVG Version: 6.00 Build 0)  -->
<svg version="1.1" id="Layer_1" xmlns="http://www.w3.org/2000/svg" xmlns:xlink="http://www.w3.org/1999/xlink" x="0px" y="0px"
	 viewBox="0 0 121 113" style="enable-background:new 0 0 121 113;" xml:space="preserve">
<style type="text/css">
	.st0{fill:#ED145B;}
	.st1{fill:#FFFFFF;}
</style>
<path class="st0" d="M87.9,23.2c-0.5,0-1,0-1.5,0C82.1,13.4,72.3,6.4,60.8,6.4c-11.5,0-21.3,6.9-25.7,16.8c-0.3,0-0.5,0-0.8,0
	c-13.8,0-27,13.7-27,27.4c0,10.9,9,25.4,18.7,28.8c3.1-0.9,7.7-2,13.6-3c-6.6-2.3-7.1-6.8-7.2-7c-0.1-0.5,0.4-1,0.9-1.1
	c0.5-0.1,1,0.3,1.1,0.9c0,0.2,0.7,5.2,10.4,6.3c0.1,0,0.2,0.1,0.3,0.1c2.2-0.3,4.6-0.5,7.1-0.7c-2.2-2.8-3.2-7.7-3.4-8.3
	c-0.1-0.5,0.2-1.1,0.8-1.2c0.5-0.1,1.1,0.2,1.2,0.8c0.4,1.8,1.8,6.9,3.9,8.5c0.1,0,0.1,0.1,0.1,0.1c7.4-0.4,15.2-0.2,24.1,1
	c0.5-0.2,0.8-0.2,1-0.2c8.5-1.8,9.1-6.1,9.1-6.3c0.1-0.5,0.5-0.9,1.1-0.9c0.5,0,0.9,0.5,0.9,1.1c0,0.2-0.4,4.6-7.3,7.1
	c4.2,0.7,8.6,1.6,13,2.9c9.4-3.6,17.8-17.7,17.8-28.3C114.6,37.4,101.7,23.2,87.9,23.2z"/>
<g>
	<g>
		<g>
			<path class="st1" d="M20.5,65.3c2.1,3.8,6.4,0.6,6.8-2.8c0.6-4.9-2.6-9.9-5-14c-0.2-0.4-1,0.1-1.2,0.4c-2.4,2.3-5.1,6.1-3.4,8.7
				c0.5,0.8,2.3-1.8,1.8-2.6c-0.9-1.4,1-3.3,2.1-4.3c-0.4,0.1-0.8,0.2-1.2,0.4c1,1.7,2.1,3.3,3,5.1c0.5,1,0.9,2.1,1.2,3.1
				c0.2,0.7,0.5,1.4,0.7,2c-0.7,3.3-1.7,4-3.1,1.9C21.7,62.1,20,64.6,20.5,65.3L20.5,65.3z"/>
			<path class="st1" d="M33.3,60.3c-0.7,2.2-2-1.7-2.2-2.2c-0.3-0.7-0.7-1.6-1.3-2.1c-1.4-1.2-2.9-0.5-4.3,0.6
				c0.3,0,0.6,0.1,0.9,0.1c-0.8-2.1-2.1-7.5,2.4-5.5c0.9,0.4,2.5-2.1,1.5-2.5c-2.7-1.2-4.4-0.3-6,2.1c-1.6,2.5-0.7,5.6,0.2,7.9
				c0.2,0.4,0.6,0.4,0.9,0.1c3.6-2.9,3.9,3.2,5.9,4.7c1.6,1.3,3.1-2.4,3.4-3.2C35.4,58.5,33.7,59,33.3,60.3L33.3,60.3z"/>
		</g>
		<path class="st1" d="M42.3,59.2c0.7,2.4,3.5,1.5,4.6-0.3c0.9-1.4,0.7-2.7,0.7-4.2c0-2.2,0-4.3,0.8-6.5c-0.8,0.4-1.7,0.9-2.5,1.3
			c0.4,2.9,0.7,7.9,3.2,10.1c1.9,1.6,4.5-2.1,4.9-3.2c0.7-1.7-1.6-0.6-1.9,0.3c-0.8,2.1-2-1-2.3-1.6c-0.8-2.3-1.2-4.8-1.5-7.2
			c-0.2-1.4-2.3,0.8-2.5,1.3c-0.5,1.5-0.6,2.9-0.7,4.4c0,0.9,0,1.7,0.1,2.6c0,0.5,0,0.9,0.1,1.4c0.1,1.2-0.9,0.4-1-0.1
			C44,56.4,42.1,58.4,42.3,59.2L42.3,59.2z"/>
		<path class="st1" d="M61,47.9c0.2,3.4,0.5,6.9,0.4,10.3c-0.1,1.3,2-0.4,2.2-1.2c0.3-2,0.7-3.1,2.1-4.4c1.6-1.5,2.4-3.4,3.1-5.4
			c0.5-1.5-2-0.2-2.3,0.6c-1.1,2.6-1.1,5.7-0.9,8.5c0,0.7,0.1,1.9,0.7,2.4c1,0.8,2.7-0.5,3.4-1c1.3-1,0.4-2.1-0.9-1.1
			c-1,0.8-0.9-3.3-0.9-3.8c0.1-1.9,0.2-3.9,1-5.6c-0.8,0.2-1.6,0.4-2.3,0.6c-0.6,2.1-1.4,3.4-2.9,5c-1.5,1.5-1.9,3.5-2.1,5.5
			c0.7-0.4,1.4-0.8,2.2-1.2c0.2-3.4,0-6.9-0.1-10.3C63.4,45.4,61,47,61,47.9L61,47.9z"/>
		<g>
			<path class="st1" d="M77.8,57.9c-0.2,2.5,2.2,3.5,4.3,2.2c2-1.2,2.9-3.5,3.3-5.6c0.3-1.7,0.7-4.3-1.1-5.6
				c-0.8-0.6-2.3-0.2-3.1,0.2c-1.7,0.7-2.5,2.2-2.8,3.7c-0.2,1.2,2.5,0.1,2.7-0.8c0.3-1.6,1.1-1.7,1.5-0.2c0.3,0.9,0.2,1.9,0.2,2.8
				c-0.1,1.1-0.4,2.2-0.8,3.2c-0.2,0.4-0.4,0.8-0.7,1c0.2-0.2,0.1-0.2-0.3-0.2c-0.7-0.2-0.8-0.9-0.8-1.6
				C80.6,55.9,77.9,57.1,77.8,57.9L77.8,57.9z"/>
			<path class="st1" d="M78.8,47.9c0.1,6.4-1.2,12.9-2.9,19.1c-0.3,1.2,2.1,0,2.4-0.8c1.8-6.3,3.3-12.9,3.4-19.5
				C81.7,45.8,78.8,47,78.8,47.9L78.8,47.9z"/>
		</g>
		<g>
			<path class="st1" d="M101.5,55.5c-1.3,2.2-2.4,4.5-3.1,7c-0.3,1-0.5,2.5,0.3,3.4c1.1,1.2,3.1,0.8,4.4,0.2
				c1.8-0.7-0.1-1.6-1.4-1.1c-0.8,0.3-0.7-1.9-0.7-2.1c0.1-1.1,0.6-2.2,1.1-3.3c0.6-1.5,1.4-2.9,2.3-4.2
				C105,54.4,101.9,54.8,101.5,55.5L101.5,55.5z"/>
			<path class="st1" d="M93.4,62.5c0,2,2.1,2.4,3.7,1.9c2.3-0.7,3.9-2.8,5-4.7c0.6-1.1-2.3-0.6-2.7,0.2c-0.2,0.4,0.1,0,0.3,0.1
				c-0.2,0-0.4-0.1-0.5-0.2c-0.5-0.3-0.6-0.9-0.6-1.3c0-0.9,0.5-1.7,1-2.4c0.9-1.2,1.4,0.5,1.1,1.2c-0.5,1.2,2.5,0.7,2.8-0.1
				c0.7-1.8-0.5-3.2-2.7-3.2c-2.5,0-4.3,2.4-4.8,4.3c-0.9,4,4.5,4.4,6.1,1.6c-0.9,0-1.8,0.1-2.7,0.2c-0.5,1-1.1,1.9-1.8,2.7
				c-0.7,0.7-1.5,0-1.4-0.8C96.1,60.7,93.4,61.6,93.4,62.5L93.4,62.5z"/>
		</g>
		<path class="st1" d="M60.8,56.6c-1.2,1.2-1.8-3.4-1.8-3.7C58.8,51,58.8,49,58.8,47c0-1.3-2.4,0.5-2.4,1.3c0,1.7,0,3.4,0,5
			c0,0.9-0.1,1.8-0.2,2.7c-0.2,1-0.1,1.3-1,0.8c-2.3-1.4-1.5-6.9-1.1-9c0.3-1.6-2.1,0-2.3,0.9c-0.4,2-1.2,11.3,3,10.5
			c4.9-0.9,3.8-9,3.9-12.3c-0.8,0.4-1.6,0.9-2.4,1.3c0,3-0.1,6.3,1,9.1c0.9,2.5,3,1.4,4.3,0.1C63,56.4,62,55.4,60.8,56.6L60.8,56.6z
			"/>
		<path class="st1" d="M93.5,61.4C92,62.1,93,57.6,93,57.3c0.5-1.9,1.2-3.7,1.8-5.6c0.4-1.2-2.4-0.4-2.6,0.4
			c-0.6,1.6-1.1,3.2-1.7,4.8c-0.3,0.8-0.7,1.7-1.1,2.4c-0.5,0.9-0.5,1.2-1.1,0.4c-1.6-2,0.9-7,2-8.8c0.8-1.4-2-0.7-2.4,0.1
			c-1,1.8-4.8,10.3-0.8,10.9c4.8,0.7,6.5-7.2,7.7-10.3c-0.9,0.1-1.8,0.3-2.6,0.4c-1,2.8-2.2,5.9-2.2,8.9c0,2.6,2.3,2.4,4.1,1.6
			C95.7,62,95,60.7,93.5,61.4L93.5,61.4z"/>
		<path class="st1" d="M76.9,49.5c0.2-3.3-4.5-2.1-6-0.5c-1.9,2.1-2.2,5.1-2,7.7c0.3,2.5,2.2,3.4,4.4,1.8
			C76.1,56.6,76.2,52.4,76.9,49.5c-0.9,0.3-1.9,0.5-2.7,0.8c-0.3,1.9-2.6,11.6,2.8,9.2c1.3-0.6,1.6-2.3-0.2-1.5
			c-0.5,0.2-0.6-2.7-0.6-2.9C76.1,53.3,76.5,51.4,76.9,49.5c0.2-1.2-2.6,0-2.7,0.8c-0.3,1.7-0.6,3.5-1,5.2c-0.1,0.5-0.5,1.8-0.8,1.7
			c-0.5-0.1-0.7-0.7-0.8-1c-0.4-1.2-0.3-2.7,0-3.9c0.1-0.7,0.4-1.4,0.7-2.1c0.2-0.3,0.3-0.7,0.6-0.9c0.6-0.6,1.4,0.7,1.4,1
			C74,51.6,76.8,50.4,76.9,49.5L76.9,49.5z"/>
		<g>
			<path class="st1" d="M32.4,52.1c0.7,2,1.4,11.2,5,9.8c4.3-1.7,2.5-9.6,2.2-12.8c-0.1-1.2-2.3,0.8-2.2,1.7
				c0.3,2.2,0.6,4.4,0.7,6.7c0,0.8,0.3,2.5-0.8,2.1c-1.3-0.5-1.6-3.3-1.8-4.4c-0.4-1.6-0.6-3.3-1.1-4.9C34,49.1,32.1,51.3,32.4,52.1
				L32.4,52.1z"/>
			<path class="st1" d="M37.4,50.8c1,4.3,2.2,8.6,3.2,12.9c0.2,0.9,1.4,5.1-0.2,4.9c-2.7-0.2,0.3-7.5,0.7-8.3c0.9-1.6-1-1.2-1.5-0.1
				c-1.5,2.9-2.8,6.6-1.3,9.8c0.6,1.4,2.3,1.3,3.1,0.3c1.7-1.9,1.7-4.4,1.4-7c-0.6-4.8-2.2-9.5-3.2-14.2
				C39.3,47.9,37.2,50,37.4,50.8L37.4,50.8z"/>
		</g>
		<path class="st1" d="M82.3,50.3c2,2,4.6,2.6,7.1,1.4c0.3-0.1,1-0.6,0.7-1c-0.3-0.4-1-0.1-1.3,0.1c-1.5,0.7-3.4-0.6-4.4-1.6
			C83.8,48.5,81.7,49.8,82.3,50.3L82.3,50.3z"/>
	</g>
</g>
<g>
	<path class="st0" d="M96.8,102.8V81.6c-33.1-9.2-61.2-2.8-70.7,0v21.8C35.3,100.6,63.5,93.9,96.8,102.8z"/>
	<path class="st0" d="M29.4,104.5c5.3,1.5,16.5,4.2,31.4,4.2c15.1,0,27-3,32.6-4.7C64.6,97,40.1,101.7,29.4,104.5z"/>
</g>
</svg>
