<?xml version="1.0" encoding="utf-8"?>
<svg xmlns="http://www.w3.org/2000/svg"
	xmlns:xlink="http://www.w3.org/1999/xlink"
	width="38px" height="38px" viewBox="0 0 38 38">
<path fillRule="evenodd" d="M 19 37C 28.93 37 37 28.93 37 19 37 9.07 28.93 1 19 1 9.07 1 1 9.07 1 19 1 28.93 9.07 37 19 37M 19 38C 8.51 38 0 29.49 0 19 0 8.51 8.51-0 19-0 29.49-0 38 8.51 38 19 38 29.49 29.49 38 19 38 19 38 19 38 19 38Z" fill="rgb(255,255,255)"/><path fillRule="evenodd" d="M 24.01 18.5C 24.01 18.5 23.58 18.92 23.58 18.92 23.58 18.92 23.58 18.92 23.58 18.92 23.58 18.92 16.43 26.01 16.43 26.01 16.43 26.01 16.01 25.59 16.01 25.59 16.01 25.59 23.16 18.5 23.16 18.5 23.16 18.5 16.01 11.41 16.01 11.41 16.01 11.41 16.43 10.99 16.43 10.99 16.43 10.99 23.58 18.08 23.58 18.08 23.58 18.08 23.58 18.08 23.58 18.08 23.58 18.08 24.01 18.5 24.01 18.5Z" fill="rgb(255,255,255)"/></svg>