<?xml version="1.0" encoding="utf-8"?>
<svg xmlns="http://www.w3.org/2000/svg"
	xmlns:xlink="http://www.w3.org/1999/xlink"
	width="49px" height="49px" viewBox="0 0 49 49">
<path fillRule="evenodd" d="M 24.5 48C 37.46 48 48 37.46 48 24.5 48 11.54 37.46 1 24.5 1 11.54 1 1 11.54 1 24.5 1 37.46 11.54 48 24.5 48M 24.5 49C 10.97 49 0 38.03 0 24.5 0 10.97 10.97 0 24.5 0 38.03 0 49 10.97 49 24.5 49 38.03 38.03 49 24.5 49 24.5 49 24.5 49 24.5 49Z" fill="rgb(255,255,255)"/><path fillRule="evenodd" d="M 29.33 39C 29.33 39 20.67 39 20.67 39 19.75 39 19 38.23 19 37.28 19 37.28 19 23.21 19 23.21 19 20.45 19.19 19.28 20.49 16.25 21.57 13.74 21.85 11.03 21.9 10.29 21.9 10.29 21.6 10.01 21.6 10.01 21.59 10.01 21.59 10 21.58 9.99 21.58 9.99 21.58 9.99 21.58 9.99 21.58 9.99 21.58 9.99 21.58 9.99 21.58 9.99 21.58 9.99 21.57 9.99 21.57 9.99 21.57 9.99 21.57 9.99 21.57 9.99 21.57 9.99 21.57 9.99 21.57 9.99 21.57 9.99 21.57 9.99 21.57 9.99 21.57 9.99 21.57 9.99 21.57 9.99 21.57 9.99 21.57 9.99 21.57 9.99 21.57 9.99 21.57 9.99 21.57 9.99 21.57 9.99 21.57 9.99 21.57 9.99 21.57 9.99 21.57 9.99 21.57 9.99 21.57 9.99 21.57 9.99 21.5 9.91 21.46 9.81 21.46 9.71 21.46 9.71 21.46 7.41 21.46 7.41 21.46 7.19 21.64 7 21.86 7 21.86 7 28.14 7 28.14 7 28.36 7 28.54 7.19 28.54 7.41 28.54 7.41 28.54 9.71 28.54 9.71 28.54 9.81 28.5 9.91 28.43 9.99 28.43 9.99 28.43 9.99 28.43 9.99 28.43 9.99 28.43 9.99 28.43 9.99 28.43 9.99 28.43 9.99 28.43 9.99 28.43 9.99 28.43 9.99 28.43 9.99 28.43 9.99 28.43 9.99 28.43 9.99 28.43 9.99 28.43 9.99 28.43 9.99 28.43 9.99 28.43 9.99 28.43 9.99 28.43 9.99 28.43 9.99 28.43 9.99 28.43 9.99 28.42 9.99 28.42 9.99 28.42 9.99 28.42 9.99 28.42 9.99 28.42 9.99 28.42 9.99 28.42 9.99 28.42 9.99 28.42 9.99 28.42 9.99 28.42 9.99 28.42 9.99 28.42 9.99 28.42 10 28.41 10.01 28.4 10.01 28.4 10.01 28.1 10.29 28.1 10.29 28.15 11.03 28.43 13.74 29.51 16.25 30.81 19.28 31 20.45 31 23.21 31 23.21 31 37.28 31 37.28 31 38.23 30.25 39 29.33 39ZM 27.75 7.82C 27.75 7.82 22.26 7.82 22.26 7.82 22.26 7.82 22.26 9.29 22.26 9.29 22.26 9.29 27.75 9.29 27.75 9.29 27.75 9.29 27.75 7.82 27.75 7.82ZM 27.29 10.13C 27.29 10.13 27.29 10.12 27.29 10.11 27.29 10.11 22.71 10.11 22.71 10.11 22.71 10.12 22.71 10.13 22.71 10.13 22.71 10.22 22.63 11.64 22.22 13.47 22.22 13.47 27.78 13.47 27.78 13.47 27.37 11.64 27.29 10.22 27.29 10.13ZM 30.21 23.21C 30.21 20.55 30.04 19.49 28.78 16.58 28.45 15.81 28.19 15.03 27.99 14.29 27.99 14.29 22.1 14.29 22.1 14.29 22.07 14.29 22.04 14.28 22.01 14.28 21.81 15.02 21.55 15.81 21.22 16.58 19.96 19.49 19.8 20.55 19.8 23.21 19.8 23.21 19.8 37.28 19.8 37.28 19.8 37.78 20.19 38.18 20.67 38.18 20.67 38.18 29.33 38.18 29.33 38.18 29.81 38.18 30.21 37.78 30.21 37.28 30.21 37.28 30.21 23.21 30.21 23.21ZM 22.26 35.54C 21.98 35.54 21.76 35.31 21.76 35.03 21.76 35.03 21.76 24.32 21.76 24.32 21.76 24.04 21.98 23.81 22.26 23.81 22.53 23.81 22.75 24.04 22.75 24.32 22.75 24.32 22.75 35.03 22.75 35.03 22.75 35.31 22.53 35.54 22.26 35.54Z" fill="rgb(255,255,255)"/></svg>