<?xml version="1.0" encoding="utf-8"?>
<svg xmlns="http://www.w3.org/2000/svg"
	xmlns:xlink="http://www.w3.org/1999/xlink"
	width="39px" height="42px" viewBox="0 0 39 42">
<path fillRule="evenodd" d="M 34.19 37.2C 30.49 40.24 25.81 41.96 20.92 41.96 9.39 41.96-0 32.55-0 20.98-0 9.41 9.39-0 20.92-0 26.59-0 31.9 2.24 35.87 6.3 36.8 7.25 36.78 8.78 35.83 9.71 34.88 10.64 33.36 10.62 32.43 9.67 29.38 6.55 25.29 4.82 20.92 4.82 12.04 4.82 4.81 12.07 4.81 20.98 4.81 29.89 12.04 37.11 20.92 37.11 24.41 37.11 27.76 36 30.51 33.91 30.51 33.91 28.58 33.91 28.58 33.91 27.25 33.91 26.17 32.83 26.17 31.5 26.17 30.17 27.25 29.09 28.58 29.09 28.58 29.09 36.59 29.09 36.59 29.09 36.59 29.09 36.59 29.09 36.59 29.09 37.92 29.09 39 30.22 39 31.55 39 31.55 39 39.59 39 39.59 39 40.92 37.92 42 36.6 42 35.27 42 34.19 40.92 34.19 39.59 34.19 39.59 34.19 37.2 34.19 37.2Z" fill="rgb(238,238,238)"/></svg>