<svg xmlns="http://www.w3.org/2000/svg" xmlns:xlink="http://www.w3.org/1999/xlink" preserveAspectRatio="xMidYMid" width="17" height="17" viewBox="0 0 17 17">
  <defs>
    <style>
      .fb-icon {
        fill: #c6c6c6;
        fill-rule: evenodd;
      }
    </style>
  </defs>
  <path d="M15.005,17.000 L1.993,17.000 C0.889,17.000 -0.007,16.105 -0.007,15.000 L-0.007,2.000 C-0.007,0.895 0.889,-0.000 1.993,-0.000 L15.005,-0.000 C16.109,-0.000 17.005,0.895 17.005,2.000 L17.005,15.000 C17.005,16.105 16.109,17.000 15.005,17.000 ZM11.987,6.502 L9.492,6.502 L9.492,5.011 C9.492,4.582 9.756,4.261 9.992,4.261 L11.987,4.261 L11.987,1.999 L9.992,1.999 C8.340,1.999 7.137,3.457 7.137,5.251 L7.137,6.502 L5.001,6.502 L5.001,8.627 L7.137,8.627 L7.137,15.007 L9.492,15.007 L9.492,8.627 L11.987,8.627 L11.987,6.502 Z" class="fb-icon"/>
</svg>
