<?xml version="1.0" encoding="utf-8"?>
<!-- Generator: Adobe Illustrator 19.0.0, SVG Export Plug-In . SVG Version: 6.00 Build 0)  -->
<svg version="1.1" id="Layer_1" xmlns="http://www.w3.org/2000/svg" xmlns:xlink="http://www.w3.org/1999/xlink" x="0px" y="0px"
	 viewBox="-740 267.7 296 271.3" style="enable-background:new -740 267.7 296 271.3;" xml:space="preserve">
<style type="text/css">
	.st0{fill:#B71E4E;}
	.st1{fill:#FFFFFF;}
	.st2{fill:#63BA46;}
	.st3{fill:#435F2C;}
	.st4{fill:#64B846;}
	.st5{fill:#EB2046;}
</style>
<g>
	<g id="Layer_1_1_">
		<path class="st0" d="M-494.3,471.9c5.3-19.9-8.2-35.6-26.9-43.2c-8.2-3.4-19,1.9-28,1.9c-10.6,0-19.4-5.3-28.4-1.9
			c-16.1,6-27.7,17.1-27.6,31.8c0.2,29.4,27.6,72.1,57.3,72.1C-521.6,532.6-502.2,501.9-494.3,471.9z"/>
		<g>
			<g>
				<path class="st1" d="M-567.3,482.5c-1.1-0.1-2,1.2-2.3,2c-1.2,2.4-3.6,1-4.7-0.6c-1.7-2.4-2.7-5.6-3.5-8.5
					c-0.1-0.5-0.3-1-0.4-1.5c0,0,0,0,0-0.1c0-0.1,0-0.2-0.1-0.2c-0.6-2.3-1.1-4.7-1.4-7.2c0-0.1,0-0.2,0-0.3s0-0.2-0.1-0.3
					c-0.2-1.5-0.4-3.1-0.5-4.6c-0.1-1.1-1.5-0.4-2,0.1c-0.3,0.2-0.5,0.5-0.7,0.8c-0.1,0-0.3-0.1-0.4-0.1c-2.2-0.3-4.3,0.9-5.9,2.6
					c-4.1,4.2-4.7,11-1.7,15.9c1.7,2.7,5.2,3.9,8.2,2.5c0.9-0.4,1.6-1,2.3-1.7c0.3,2.2,0.3,4.5-0.3,6.6c-0.7,2.5-4,2.8-5.5,0.8
					c-1-1.3-3.8,2.9-2.8,4.1c1.6,1.8,3.8,1.9,6,1.1c1.9-0.7,3-2.5,3.9-4.1c0.6-1.2,1-2.5,1.3-3.8c0.7,1.3,1.6,2.5,2.6,3.3
					c3.3,2.4,6.8-1.9,8.3-4.6C-566.8,484.1-566.2,482.5-567.3,482.5z M-582.6,479c-2,0.7-3.9-0.6-5-2c-1-1.3-1.4-2.9-1.6-4.4
					c-0.2-1.4-0.5-3.6,0.4-5.1c0.6-0.9,1.9-1.3,2.8-1.2c1.5,0.2,2.3,1.3,2.7,2.6c0.5,2.8,1.1,5.5,1.9,8.2c0.1,0.3,0.1,0.7,0.1,1v0.1
					c-0.1,0.1-0.1,0.1-0.3,0.3C-581.8,478.7-582.2,478.8-582.6,479z M-581.3,478.2L-581.3,478.2L-581.3,478.2z"/>
				<path class="st1" d="M-507.6,490.9c-1-0.7-2.5-0.2-3.2,0.2c-0.2,0.1-0.3,0.2-0.3,0.2s0-0.1,0-0.3c-0.1-0.6,0-1.1,0-1.7
					c0.2-1.5,0.6-3,1.1-4.5c0.8-2.6,1.8-5.5,3.6-7.8c0.1-0.1,0.3-0.3,0.4-0.4c0.1-0.1,0.1-0.1,0.2-0.2s0.1-0.1,0.2-0.2
					c0.7-0.7,0.2-1.5-0.9-1.6c-1.3-0.2-2.6,0.3-3.3,1.1c-0.2,0.2-0.3,0.4-0.5,0.6c-1.4,1.1-5.5-0.4-7.2-1c-0.1,0-0.1,0-0.2-0.1
					c-0.1,0-0.1,0-0.2-0.1c-1-0.2-1.9-0.2-2.8,0.1c0.2-0.7,0.3-1.5,0.5-2.2c0.1-0.1,0.1-0.2,0.1-0.3c0.2-0.9,0.3-1.7,0.4-2.6
					c0.1-1-1.9-0.7-2.3-0.5c-1,0.4-2,1.1-2.1,2.1c-0.1,0.7-0.1,1.5-0.3,2.2v0.1c0,0-0.3,0.5-0.4,0.6c-0.2,0.3-0.3,0.4-0.6,0.8
					c-0.8,0.9-1.6,1.8-2.4,2.7c-0.7,0.7-1.4,1.4-2,2.1c0.5-3.9,1.1-7.8,1.7-11.7c0.2-1.3-1.5-1.1-3-0.4c-0.6-0.6-1.4-1-2.4-1.2
					c-0.1,0-0.3-0.1-0.5-0.1c-0.1,0-0.2,0-0.3,0c-0.3,0-0.6,0-0.9,0c-0.9-0.3-2.2,0.3-2.7,0.7l-0.1,0.1l0,0c-0.5,0.3-1,0.4-1.6,0.6
					c-2.4,0.6-4.6-0.3-6.4-1.6c-0.1-0.1-0.2-0.1-0.3-0.1c-0.4-0.3-0.9-0.5-1.4-0.6c-0.1,0-0.3-0.1-0.4,0c-0.1,0-0.2,0-0.3,0
					c-4.7,0.7-5.7,6.5-5.8,10.4c-0.2,0.7-0.3,1.5-0.5,2.2c-0.3,0.9-0.6,1.8-0.9,2.7c-0.1,0.3-0.3,0.6-0.4,0.8c0,0.1-0.4,0.7-0.4,0.6
					c-0.1,0.2-0.4,0.5-0.4,0.5s-0.3,0.2-0.2,0.1c-0.2,0.1-0.4,0.2-0.6,0.3c-1.1,0.3-2.2,0-3.1-0.7c-1.5-1.2-0.6-3.5,0.1-4.9
					c1.3-2.7,3.2-4.9,3.1-7.9c0-1.8-1.2-3.3-3.5-3.4c-3.3-0.2-5.5,2.4-7.4,4.1c-0.7,0.6-1.7,2-1.2,2.8c0.5,0.9,1.9-0.2,2.4-0.6
					c0.8-0.7,1.9-2.4,3.2-2.4c1.2,0,1.9,0.5,2.3,1.2c1.3,2.6-2.3,5.9-3.1,8.3c-1.1,3.2-0.1,7.8,4.2,7.4c3.2-0.2,5.5-2.4,7-4.7
					c0.1-0.1,0.2-0.3,0.2-0.4c0.6,2.2,1.7,4.2,3.7,4.2c1.9,0.1,3.6-2.2,4.4-3.9c1-2.1,1.4-4.4,1.5-6.7c0.1-1,0.1-2.6,0-4.2
					c1,0.1,2,0,3-0.2c-0.8,1.7-1.2,3.6-1.3,5.1c-0.4,3.4-0.6,9.8,3.9,10.5c0.8,0.1,1.7-0.1,2.6-0.4c-1.4,1.6-2.6,3.2-3.6,5
					c-1.2,1.9-2.2,4-2.6,6.3c-0.5,3.1,1.7,4.6,4.5,3.6c2.4-0.9,4.1-3.2,4.8-5.4c1.2-3.6,1.8-7.5,2.3-11.4c1.7-1.8,3.4-3.4,5-5.1
					c-0.1,0.6-0.3,1.2-0.4,1.9c-0.9,3-0.5,7.5,2.6,8.6c3.4,1.2,6.8-2.7,7.9-5.8c0.5-1.4,0.8-3.2,0.6-5c0.9,0.1,1.9,0.1,2.8,0
					c-1.3,2.7-2,5.6-2.7,8.4c-0.4,1.6-0.7,3.3-0.4,4.9c0.6,2.8,5.5,0.7,6.8,0.1C-508,492.6-506.7,491.6-507.6,490.9z M-548.9,483.4
					C-548.9,483.4-549,483.4-548.9,483.4L-548.9,483.4z M-547.9,476.5c0.1,1.7,0,3.4-0.4,5.1c-0.1,0.4-0.2,0.9-0.4,1.3
					c-0.7-0.2-1.2-1.5-1.4-2.2c-0.5-1.5-0.7-3.2-0.8-4.8c0-0.4,0-0.8,0-1.2c0.4-1.7,0.7-3.4,1-5h0.1c0,0.1,0.1,0.1,0.2,0.2
					c0.1,0,0.1,0.1,0.2,0.1C-548.2,471.4-547.9,475.3-547.9,476.5z M-538.8,476.5c0.1-1.7,0.4-3.4,1-4.9c0.2-0.5,0.5-1,0.8-1.4
					c2.8,0.6,2.8,5.7,2.7,7.3c-0.1,1.7-0.4,3.4-1.1,4.9c-0.1,0.3-0.3,0.7-0.5,1c0,0.1-0.2,0.3-0.3,0.4c0,0,0,0-0.1,0
					C-539.1,483.5-538.9,478.1-538.8,476.5z M-537,497.4c-0.2,0.4-0.3,0.8-0.6,1.1c-0.1,0-0.2,0-0.4-0.1c-0.5-0.2-0.5-0.2-0.7-0.5
					c-0.9-1,0.1-3,0.7-4.1c0.7-1.3,1.5-2.6,2.5-3.7c-0.1,0.7-0.2,1.3-0.2,2C-536,493.9-536.3,495.7-537,497.4z M-520.3,486.6
					c-0.1,0.2-0.3,0.4-0.4,0.6c-0.1,0-0.2,0-0.3-0.1c-1.9-0.6-1.9-3.8-1.6-5.3c0-0.2,0.1-0.4,0.1-0.6c0,0,0,0,0-0.1
					c0.1-0.3,0.1-0.5,0.2-0.8c0.2-0.6,0.5-1.2,0.8-1.8c0.1-0.2,0.3-0.4,0.5-0.6c0.1,0,0.1,0,0.2,0c1.9,0.7,1.7,3.9,1.5,5.4
					C-519.4,484.6-519.8,485.7-520.3,486.6z"/>
			</g>
		</g>
	</g>
	<g id="leafs">
		<path class="st2" d="M-548.8,415.9c2.8,4.1-0.6,12.8-0.6,12.8s-9.4,0.2-12.2-3.9c-2.8-4.1-2.4-17.2-2.4-17.2
			S-551.7,411.8-548.8,415.9L-548.8,415.9z"/>
		<path class="st2" d="M-579.3,430.1c3.2,1.9,3.5,8.8,3.5,8.8s-6.3,3-9.5,1.1c-3.2-1.9-6.9-10.9-6.9-10.9S-582.5,428.2-579.3,430.1
			L-579.3,430.1z"/>
		<path class="st0" d="M-577.9,410.2c1,2.5-2,6.7-2,6.7s-5-1.1-6-3.6c-1-2.6,0.9-9.5,0.9-9.5S-578.9,407.7-577.9,410.2L-577.9,410.2
			z"/>
		<path class="st2" d="M-601.7,418.1c1.9,1.2,1.9,5.3,1.9,5.3s-3.8,1.7-5.7,0.5c-1.9-1.2-4-6.7-4-6.7S-603.6,416.9-601.7,418.1
			L-601.7,418.1z"/>
	</g>
</g>
<g>
	<g id="Layer_1_2_">
		<path class="st3" d="M-608.6,422.3c0,22-12.9,41.1-31.6,49.9c-7.1,3.4-15.1,1.3-23.5,1.3c-7.6,0-14.8,2.4-21.4-0.4
			c-19.8-8.4-33.7-28-33.7-50.8c0-19.5,10.1-36.6,25.3-46.4c8.6-5.5,18.8,0.5,29.8,0.5c10.7,0,20.6-6.2,29.1-0.9
			C-619,385.1-608.6,402.5-608.6,422.3z"/>
		<g>
			<path class="st1" d="M-703.1,411.6c-4.9,2-5.7,8.2-4.9,12.6c1,5.2,3.1,9.6,6.3,14c2,2.7,6.5,4.9,8.9,1c2.5-4.1,2-9.5,1-13.9
				c-0.9-3.8-2.2-7.3-4.2-10.5C-697.4,412.8-699.9,410.5-703.1,411.6c-1.6,0.6-3.4,5.1-1,4.3c1.6-0.6,3.2,0.7,4.1,1.6
				c1.7,1.7,2.8,3.9,3.7,6.1c1,2.4,1.7,5,2.2,7.6c0.2,1.1,0.3,2.2,0.3,3.3c0,0.8-0.1,2-0.2,2.4c-0.1,0.2,0,0.1,0.1-0.1
				c-0.1,0.2,0.1,0-0.3,0.2c-0.5,0.3-1.2,0.1-1.8-0.1c-1.7-0.7-3-2.5-4-4.1c-3-4.5-4.4-9.3-4.7-14.3c0-0.8,0.2-2.1,0.3-2.5
				c0.2-0.7-0.3,0.5,0.1-0.1c0.3-0.6-0.3,0.4,0.1-0.1c-0.4,0.5-0.2,0.2,0.2,0C-702.6,415.2-700.8,410.6-703.1,411.6z"/>
			<path class="st1" d="M-669.5,414.2c-5.2,0.6-6.4,7-6.1,11.2c0.2,3.3,1.3,9.7,5.7,9.6c2-0.1,3.6-2.4,4.4-4.2
				c0.9-2.1,1.2-4.5,1.2-6.7C-664.2,420.7-664.7,414.1-669.5,414.2c-1.6,0-4.2,3.9-1.9,3.8c2.7-0.1,3.4,5.1,3.6,6.7
				c0.2,1.7,0.2,3.4-0.1,5.1c-0.1,0.4-0.1,0.7-0.2,1c0,0.1-0.3,0.8-0.2,0.6c-0.1,0.2-0.1,0.2,0,0c0.3-0.3,0.4-0.2-0.1-0.1
				c-2.4,0.3-3.3-5.1-3.5-6.7c-0.2-1.7-0.2-3.4,0.1-5.1c0.1-0.7,0.3-1.3,0.6-2c0,0-0.8,0.5-0.3,0.4
				C-669.8,417.8-667.2,413.9-669.5,414.2z"/>
			<path class="st1" d="M-684,424.9c0.6-1.2,1.6-0.6,2.2,0.3c1.2,1.6,1.2,4,1.2,5.9c0,0.6,0,1.2-0.2,1.8c-0.2,0.7,0.1,0,0.1,0
				c-1.1,0.5-1.9-1-2.3-1.7c-1.9-3.6-2.8-7.4-3.6-11.6c-0.7-3.6-0.9-7.5,0.2-11c0.2-0.5,0.7-0.8-0.1-0.2c-0.5,0.4,0.1,0,0.6,0.3
				c1,0.5,1.1,2.1,1.2,2.9c0.1,3.8-0.7,7.5-1.5,11.4c-0.2,0.8-0.4,1.6-0.6,2.4c-0.1,0.4,0.2-0.6,0-0.1c-0.1,0.2-0.2,0.4-0.3,0.6
				c-0.5,1.1-1.1,2.2-1.7,3.3c-1.5,2.8-3.1,5.7-5.3,7.9c-0.7,0.7-1.3,1.9-1.3,3c0,0.9,0.7,1.3,1.4,0.7c2.5-2.4,4.4-5.6,6.1-8.6
				c1.3-2.3,3.1-4.9,4-7.5c1.4-3.7,2.3-7.6,3-11.6c0.4-2.5,1.2-6.3-1.2-8.3c-2.6-2.1-6.4,1.9-7.1,3.6c-1.3,3.5-1.6,7.1-1,11.1
				c0.7,4.4,1.8,8.6,3.4,12.8c0.8,2.1,2.5,5.8,5.2,4.5c4.3-2,4.8-7.6,4.3-11.8c-0.3-2-1.2-4.5-3.8-4.7c-2.7-0.2-4.7,2.8-5.5,4.6
				c-0.2,0.5-0.7,2.1,0.3,2.1C-685.2,426.9-684.3,425.7-684,424.9L-684,424.9z"/>
			<path class="st1" d="M-625.1,438.2c-1.4,0.4-1.3-0.2-1.3-1.4c0.1-1.6,0.5-3.2,0.9-4.7c0.9-3.3,2-6.6,3.7-9.6
				c-1.5,0.1-3,0.3-4.4,0.4c-1.7,3.8-3.4,7.6-5.6,11c-0.2,0.4-0.5,0.7-0.8,1.1s-0.4,0.4-0.5,0.5c-0.2,0.1,0.2,0,0,0s-0.6,0-0.6-0.1
				c-1.8-2.1,2.8-11.3,4-15.8c0.5-2-3.9-0.6-4.2,0.8c-0.8,3.7-2.1,7.6-3.1,11.3c-0.5,2.1-1.8,6.2,1,6.7c2.7,0.4,5.2-1.5,7.1-3.5
				c3.2-3.6,5.2-8.1,7.2-12.4c0.4-0.9-0.9-1.3-1.6-1.2c-1.2,0.1-2.4,0.7-2.8,1.6c-1.8,3.9-3,8-3.9,12.3c-0.3,1.5-0.6,3.1-0.3,4.6
				c0.4,2,3.9,1.2,5.1,0.9c0.8-0.2,2.3-0.8,2.4-1.8C-622.9,438-624.6,438.1-625.1,438.2L-625.1,438.2z"/>
			<path class="st1" d="M-653.1,417.1c-0.8,4.1-1.6,8.2-2.9,12.1c-0.2,0.4-0.4,0.9-0.6,1.3c-0.2,0.5-0.3,0.5-0.4,0.6
				c-0.2,0.2,0.2-0.1,0,0c-0.2,0.1-0.6,0.2-0.7,0.1c-2.2-1.6,0.1-11.6,0.2-16.3c0.1-2.1-3.1,0.3-3.6,1c-0.1,0.1-0.2,0.4,0.1-0.2
				c-0.1,0.2-0.3,0.4-0.4,0.6c-0.4,0.6-0.7,0.8-1.2,1.3c-1.3,1.2-2.9-0.4-3.6-1.5c-1-1.6-4.4,1.7-3.6,2.9c1.9,2.7,4.2,3.5,7,1.7
				c1.9-1.3,3.6-3,4.9-4.9c-1.2,0.3-2.4,0.7-3.5,1c0,3.9-0.3,7.9-0.4,11.8c0,2.1-0.3,6.5,2.5,6.2c2.7-0.3,4.8-2.8,6.2-5.3
				c2.3-4.2,3.3-9.1,4.3-13.8c0.2-1-1.2-1-1.9-0.7C-651.7,415.2-652.9,416.1-653.1,417.1L-653.1,417.1z"/>
			<path class="st1" d="M-639.8,437.7c0.3-1.2,0.6-2.4,0.8-3.6c0.2-1.5-1.3-0.9-2.1-0.9c-0.3,0-0.4-0.1-0.5-0.7
				c-0.1-0.8-0.1-1.7-0.1-2.5c0.1-4.4,0.8-8.9,2.4-13c-1.4,0.4-2.9,0.8-4.3,1.2c-1.1,4.1-2.2,8.1-4,11.8c-0.2,0.4-0.5,0.8-0.7,1.2
				c-0.3,0.4-0.4,0.5-0.5,0.6c-0.2,0.1,0.3-0.1-0.1,0c-0.3,0.1-0.7,0.1-0.8,0c-2.2-1.7,0.9-11.7,1.4-16.3c0.2-2-4.3,0.1-4.4,1.5
				c-0.2,3.8-0.9,7.9-1.3,11.7c-0.2,2.1-0.9,6.4,2.4,6.4c3.1-0.1,5.6-2.4,7.1-4.8c2.6-4,3.8-8.8,5.2-13.4c0.3-1-1-1.1-1.8-0.9
				c-1.1,0.3-2.3,1.1-2.6,2.1c-1.2,3.9-1.7,7.9-1.9,12c-0.1,1.5-0.1,3.2,0.2,4.7c0.5,2,2.5,1.6,4,1.1c-0.4,0-0.8,0-1.1,0
				c-0.2-0.4-0.3-0.5-0.3-0.1c0,0.3-0.1,0.6-0.2,0.8c-0.1,0.7-0.3,1.4-0.4,2.1C-643.8,440.9-640.2,439.1-639.8,437.7L-639.8,437.7z"
				/>
		</g>
	</g>
	<g id="leafs_1_">
		<path class="st4" d="M-663.6,360.8c2.8,4.1-0.6,12.8-0.6,12.8s-9.4,0.2-12.2-3.9c-2.8-4.1-2.4-17.2-2.4-17.2
			S-666.4,356.7-663.6,360.8L-663.6,360.8z"/>
		<path class="st4" d="M-694.1,375c3.2,1.9,3.5,8.8,3.5,8.8s-6.3,3-9.5,1.1S-707,374-707,374S-697.3,373-694.1,375L-694.1,375z"/>
		<path class="st3" d="M-692.7,355.1c1,2.5-2,6.7-2,6.7s-5-1.1-6-3.6c-0.9-2.5,0.9-9.5,0.9-9.5S-693.7,352.6-692.7,355.1
			L-692.7,355.1z"/>
		<path class="st4" d="M-716.5,362.9c1.9,1.2,1.9,5.3,1.9,5.3s-3.8,1.7-5.7,0.5c-1.9-1.2-4-6.7-4-6.7S-718.4,361.7-716.5,362.9
			L-716.5,362.9z"/>
	</g>
</g>
<g>
	<g id="fruits_2">
		<path class="st5" d="M-511.8,348.3c0,22-12.9,41.1-31.6,49.9c-7.1,3.4-15.1,1.3-23.5,1.3c-7.6,0-14.8,2.4-21.4-0.4
			c-19.8-8.4-33.7-28-33.7-50.8c0-19.5,10.1-36.6,25.3-46.4c8.6-5.5,18.8,0.5,29.8,0.5c10.7,0,20.6-6.2,29.1-0.9
			C-522.2,311.2-511.8,328.5-511.8,348.3z"/>
		<g>
			<path class="st1" d="M-524,359.1c-0.7-0.5-1.9-0.2-2.4,0.1c-0.2,0.1-0.7,0.2-0.7,0.3c0,0,0-0.1-0.1-0.1c-0.1-0.3,0-0.7,0-1
				c0.1-1.1,0.4-2.2,0.7-3.3c0.6-2.1,1.4-4.3,2.8-6.1c0.1-0.1,0.2-0.2,0.3-0.3c0-0.1,0.1-0.1,0.1-0.2c0,0,0.1-0.1,0.1-0.2
				c0.5-0.5,0.1-1.1-0.7-1.2c-1-0.1-2,0.3-2.5,0.9c-0.1,0.1-0.3,0.3-0.4,0.5c-1.1,0.8-4.4-0.3-5.8-0.8c0,0-0.1,0-0.1-0.1
				c-0.1,0-0.1,0-0.2,0c-0.8-0.2-1.5-0.2-2.2,0c0.3-1.2,0.6-2.4,0.8-3.6v-0.1v-0.1c0.1-0.8-1.5-0.5-1.8-0.4c-0.5,0.2-1,0.5-1.3,0.9
				c-0.1,0.1-0.2,0.3-0.2,0.4c-0.7,2.8-1.8,5.3-3.4,7.7c-0.3,0.5-0.8,1.1-1.3,1.5c-0.1,0.1-0.3,0.2-0.4,0.3l0,0c0,0,0-0.1-0.1-0.1
				c-0.1-0.1-0.1-0.3-0.1-0.5c-0.2-1.5,0.3-2.9,0.6-4.3s0.5-2.9,0.6-4.3c0.1-1,0.2-2.4-0.6-3.3s-2.5-0.3-3.3,0.1
				c-0.6,0.3-1,0.7-1.4,1.1c-0.1-0.8-0.3-1.6-0.9-2.2c-0.7-0.7-2.2-0.5-2.9-0.1c-0.6,0.3-1.1,0.7-1.5,1.1c0-0.4,0-0.8,0-1.2
				c0.1-0.4-0.1-0.5-0.4-0.6c-0.1,0-0.3-0.1-0.5,0c-0.2,0-0.5,0.1-0.6,0.1c-0.5,0.2-1,0.5-1.3,0.8c-0.3,0.3-0.5,0.6-0.5,0.9
				c-0.8,2.8-1.7,5.5-3,8.2c-0.3,0.7-0.8,1.4-1.2,2c-0.3-0.4-0.3-1-0.4-1.4c-0.1-0.9-0.2-1.8-0.5-2.7c-0.5-1.7-1.7-2.2-3.1-1.9
				c0-0.1,0.1-0.2,0.1-0.4c0.3-1.2,0.7-2.5,1.5-3.6l0,0c0.4,0.1,0.8,0.3,1.1,0.5c1.1,0.8,3.9-1.5,2.9-2.3c-1.5-1.2-3-1.1-4.2-0.3
				c-0.9,0.4-1.7,1.2-2.3,2c-0.1-1.6-0.4-3.1-0.8-4.7c-0.4-1.2-3.4,1-3,2.1c0,0.1,0.1,0.2,0.1,0.3c0,0,0,0,0,0.1
				c-0.8,2.7-2,5.3-3.3,7.9c-0.1-2.5-0.3-5-0.5-7.5c0-0.4-0.2-0.6-0.6-0.5c-0.3,0-0.7,0.1-1,0.3c-0.8,0.4-1.5,1.2-1.5,2
				c0,3.1-0.1,6.2-0.5,9.2c-0.1,0.4-0.2,0.8-0.3,1.2c0,0.1-0.1,0.3-0.2,0.4c-0.1,0-0.3,0.1-0.5,0.1c-2.5-0.3-2.3-8.8-2.4-11.5v-0.1
				c0-0.1,0-0.2,0-0.3c-0.3-1.4-2.8,0.4-3.1,1.6c-0.1,0.1-0.1,0.1-0.1,0.1c-0.2,0.2-0.4,0.3-0.7,0.5c-1.4,0.9-2.8,0.6-4-0.1
				c-0.4-0.3-0.8-0.6-1.3-0.7c-1.3-0.3-2.5,0.5-3.4,1.4c-0.3-0.9-0.6-1.7-1-2.6c-0.3-0.7-1.5,0.3-1.7,0.6c-0.3,0.3-0.5,0.7-0.7,1.1
				c-0.1-0.7-0.3-1.3-0.5-1.9c-0.7-2.1-1.8-4.8-4.2-5.2c-1.3-0.2-2.7,0.8-3.6,1.8c-0.4-0.8-0.8-1.7-1.2-2.5
				c-0.4-0.7-1.6,0.5-1.9,0.8c-0.5,0.7-1,1.6-0.7,2.3c-0.9,0.5-1.7,1.4-2.2,2.1c-1.4,2.2-1.3,5-0.5,7.4c0.8,2.2,2.1,4.4,4.3,5.4
				c0.9,0.4,2.1,0.2,3.1-0.3c0.4-0.2,0.7-0.5,1-0.8c0.9,2.8,1.8,5.7,2.5,8.6c0.2,0.8,1,0.3,1.4-0.1c0.5-0.6,1-1.5,0.8-2.3
				c-0.5-2.3-1.1-4.6-1.7-6.9c1-0.4,2-1.3,2.7-2.3c0.9-1.4,1.1-3.1,1-4.6c1.7,4.3,3,8.6,4.1,13c0.9,3.5,1.7,7.1,2.3,10.7
				c0.1,0.8,0.8,0.4,1.2,0c0.5-0.5,0.9-1.4,0.8-2.2c-0.4-2.7-0.9-5.4-1.5-8.1c0.9-0.3,1.9-1,2.5-2c1.5-2.3,1.5-5.3,0.8-7.9
				c-0.1-0.4-0.2-0.9-0.4-1.4c1.1-0.3,2.1-0.9,3.1-1.7c0.3,2.2,0.3,4.5,0.7,6.7c0.3,1.8,0.9,4.8,3.7,4.2c1.2-0.3,2.2-0.9,2.9-1.8
				c-0.9,1.9-1.7,3.9-2.4,5.9c-0.5,1.6-1,3.3-0.8,5c0.3,2.1,2.7,2.8,4.3,1.6c1.5-1.1,2.3-3.1,2.4-4.9c0.3-3.2,0-6.5-0.3-9.8
				c1.3-2.6,2.6-5.2,3.9-7.8c0.3,3.5,0.2,7,0.2,10.4c0,1.6,2.6-0.5,2.7-1.5c0.1-1.3,0.2-2.7,0.5-4c1.4,1.6,0.8,7,4.1,5.7
				c1.8-0.7,3.1-2.8,4.1-4.4c-0.2,1.5-0.3,3-0.4,4.5c-0.1,1.6,2.9-0.1,3-1.2c0.5-3.2,1.2-6.2,2.5-9.1c0.1-0.2,0.2-0.5,0.4-0.7v0.1
				c0.5,1.8,0.2,3.9,0,5.7c-0.1,0.9-0.2,1.7-0.3,2.6c-0.2,1.1-0.4,2.1-0.5,3.2c-0.2,1.6,3,0,3.2-1s0.4-1.9,0.6-2.9
				c0.6-2.4,1.5-4.6,2.7-6.7c0.3,1.1,0.1,2.3,0.1,3.4c-0.1,1.5-0.4,3-0.7,4.5c-0.2,1.1-0.4,2.4,0,3.5c0.4,1,1.2,1.2,2.1,0.9
				c1.6-0.2,3-1.5,4.1-2.6c-0.2,1.9,0.4,4,2.4,4.6c2.9,1,5.5-1.8,6.5-4.2c0.4-1,0.6-2.4,0.5-3.7c0.7,0.1,1.5,0.1,2.2,0
				c-1,2.1-1.7,4.4-2.1,6.6c-0.2,1.1-0.6,2.4-0.2,3.5c0.7,2.1,4.7,0.2,5.7-0.3C-524.3,360.3-523.2,359.6-524,359.1z M-603.3,349.8
				c-0.6-0.1-1.2-0.4-1.6-0.8c-1.3-1.1-2-2.6-2.5-4c-0.4-1.2-0.8-2.6-0.5-4c0.1,0,0.2,0,0.4,0.1c1.4,0.3,2.3,1.5,2.8,2.5l0,0
				c0.8,1.9,1.5,3.9,2.2,5.9c0,0.1,0,0.1,0,0.2c0,0-0.1,0-0.1,0.1C-602.9,349.8-603.2,349.8-603.3,349.8z M-597.8,347.8
				L-597.8,347.8L-597.8,347.8z M-597.9,347.6c0,0.1,0,0.2-0.1,0.2l0,0c-1.1,0.5-2-0.1-2.3-1l0,0c-0.7-2.1-1.3-4.2-2.2-6.3
				c-0.2-0.5-0.3-1-0.3-1.6l0,0c0,0,0,0,0.1,0c0.4-0.2,0.8,0,1.3,0.2c1.4,0.8,2.1,2.4,2.7,3.7C-598.1,344.3-597.6,346-597.9,347.6z
				 M-591.1,344.9L-591.1,344.9L-591.1,344.9z M-587.3,354.4L-587.3,354.4L-587.3,354.4z M-587.3,354.2c0,0.1,0,0.2-0.1,0.2l0,0
				c-1,0.4-1.8-0.5-2-1.3c0-0.1,0-0.1-0.1-0.2c-0.4-2-0.9-3.9-1.5-5.8V347c-0.2-0.6-0.3-1.2-0.2-1.9l0,0l0,0
				c0.4-0.1,0.8,0.1,1.1,0.4c1.2,0.9,1.8,2.6,2.2,4C-587.3,350.9-587,352.7-587.3,354.2z M-573.9,362.8c0,0.3-0.1,0.7-0.2,1.1
				c0,0-0.1,0-0.2,0c-0.4-0.1-0.4-0.1-0.7-0.3c-0.9-0.5-0.6-1.9-0.4-2.8c0.3-1.4,0.8-2.8,1.3-4.1c0.1,0.7,0.1,1.3,0.2,2
				C-573.8,359.9-573.8,361.4-573.9,362.8z M-560.1,352L-560.1,352L-560.1,352L-560.1,352z M-542.7,354.2L-542.7,354.2L-542.7,354.2
				C-542.8,354.2-542.7,354.2-542.7,354.2z M-534.5,356.1c-0.1,0.1-0.2,0.3-0.3,0.4c-0.1,0-0.1,0-0.2-0.1c-1.6-0.5-1.5-2.9-1.3-4
				c0-0.1,0.1-0.3,0.1-0.4l0,0c0.1-0.2,0.1-0.4,0.2-0.6c0.2-0.5,0.4-0.9,0.7-1.3c0.1-0.1,0.3-0.3,0.4-0.4c0,0,0.1,0,0.2,0
				c1.5,0.5,1.3,3,1.2,4.1C-533.8,354.6-534.1,355.4-534.5,356.1z"/>
		</g>
	</g>
	<g id="leafs_2_">
		<path class="st2" d="M-567,286.9c2.8,4.1-0.6,12.8-0.6,12.8s-9.4,0.2-12.2-3.9c-2.9-4.2-2.5-17.3-2.5-17.3S-569.9,282.8-567,286.9
			L-567,286.9z"/>
		<path class="st2" d="M-597.5,301c3.2,1.9,3.5,8.8,3.5,8.8s-6.3,3-9.5,1.1s-6.9-10.9-6.9-10.9S-600.7,299.1-597.5,301L-597.5,301z"
			/>
		<path class="st5" d="M-596.1,281.2c1,2.5-2,6.7-2,6.7s-5-1.1-6-3.6c-1-2.6,0.9-9.5,0.9-9.5S-597.1,278.6-596.1,281.2L-596.1,281.2
			z"/>
		<path class="st2" d="M-619.9,289c1.9,1.2,1.9,5.3,1.9,5.3s-3.8,1.7-5.7,0.5c-1.9-1.2-4-6.7-4-6.7S-621.8,287.8-619.9,289
			L-619.9,289z"/>
	</g>
</g>
</svg>
