<?xml version="1.0" encoding="utf-8"?>
<!-- Generator: Adobe Illustrator 19.0.0, SVG Export Plug-In . SVG Version: 6.00 Build 0)  -->
<svg version="1.1" xmlns="http://www.w3.org/2000/svg" xmlns:xlink="http://www.w3.org/1999/xlink" x="0px" y="0px"
	 viewBox="-358 229.3 124 137" style="enable-background:new -358 229.3 124 137;" xml:space="preserve">
<style type="text/css">
	.st0{opacity:0.56;}
	.st1{fill:#B71E4E;}
	.st2{fill:#FFFFFF;}
	.st3{fill:#63BA46;}
	.st4{fill:#435F2C;}
	.st5{fill:#64B846;}
	.st6{fill:#EB2046;}
	.st7{fill:#62BC47;}
</style>
<g id="Layer_1">
	<g class="st0">
		<g>
			<g id="Layer_1_1_">
				<path class="st1" d="M-243.8,330.8c2.6-9.6-4-17.3-13-20.9c-4-1.6-9.2,0.9-13.6,0.9c-5.1,0-9.4-2.6-13.8-0.9
					c-7.8,2.9-13.4,8.3-13.4,15.4c0.1,14.3,13.4,35,27.8,35C-257,360.2-247.6,345.4-243.8,330.8z"/>
				<g>
					<g>
						<path class="st2" d="M-279.2,336c-0.5,0-1,0.6-1.1,1c-0.6,1.2-1.7,0.5-2.3-0.3c-0.8-1.2-1.3-2.7-1.7-4.1
							c0-0.2-0.1-0.5-0.2-0.7c0,0,0,0,0,0c0,0,0-0.1,0-0.1c-0.3-1.1-0.5-2.3-0.7-3.5c0,0,0-0.1,0-0.1s0-0.1,0-0.1
							c-0.1-0.7-0.2-1.5-0.2-2.2c0-0.5-0.7-0.2-1,0c-0.1,0.1-0.2,0.2-0.3,0.4c0,0-0.1,0-0.2,0c-1.1-0.1-2.1,0.4-2.9,1.3
							c-2,2-2.3,5.3-0.8,7.7c0.8,1.3,2.5,1.9,4,1.2c0.4-0.2,0.8-0.5,1.1-0.8c0.1,1.1,0.1,2.2-0.1,3.2c-0.3,1.2-1.9,1.4-2.7,0.4
							c-0.5-0.6-1.8,1.4-1.4,2c0.8,0.9,1.8,0.9,2.9,0.5c0.9-0.3,1.5-1.2,1.9-2c0.3-0.6,0.5-1.2,0.6-1.8c0.3,0.6,0.8,1.2,1.3,1.6
							c1.6,1.2,3.3-0.9,4-2.2C-278.9,336.7-278.6,336-279.2,336z M-286.6,334.3c-1,0.3-1.9-0.3-2.4-1c-0.5-0.6-0.7-1.4-0.8-2.1
							c-0.1-0.7-0.2-1.7,0.2-2.5c0.3-0.4,0.9-0.6,1.4-0.6c0.7,0.1,1.1,0.6,1.3,1.3c0.2,1.4,0.5,2.7,0.9,4c0,0.1,0,0.3,0,0.5v0
							c0,0,0,0-0.1,0.1C-286.2,334.1-286.4,334.2-286.6,334.3z M-285.9,333.9L-285.9,333.9L-285.9,333.9z"/>
						<path class="st2" d="M-250.2,340c-0.5-0.3-1.2-0.1-1.6,0.1c-0.1,0-0.1,0.1-0.1,0.1s0,0,0-0.1c0-0.3,0-0.5,0-0.8
							c0.1-0.7,0.3-1.5,0.5-2.2c0.4-1.3,0.9-2.7,1.7-3.8c0,0,0.1-0.1,0.2-0.2s0,0,0.1-0.1c0,0,0,0,0.1-0.1c0.3-0.3,0.1-0.7-0.4-0.8
							c-0.6-0.1-1.3,0.1-1.6,0.5c-0.1,0.1-0.1,0.2-0.2,0.3c-0.7,0.5-2.7-0.2-3.5-0.5c0,0,0,0-0.1,0c0,0,0,0-0.1,0
							c-0.5-0.1-0.9-0.1-1.4,0c0.1-0.3,0.1-0.7,0.2-1.1c0,0,0-0.1,0-0.1c0.1-0.4,0.1-0.8,0.2-1.3c0-0.5-0.9-0.3-1.1-0.2
							c-0.5,0.2-1,0.5-1,1c0,0.3,0,0.7-0.1,1.1v0c0,0-0.1,0.2-0.2,0.3c-0.1,0.1-0.1,0.2-0.3,0.4c-0.4,0.4-0.8,0.9-1.2,1.3
							c-0.3,0.3-0.7,0.7-1,1c0.2-1.9,0.5-3.8,0.8-5.7c0.1-0.6-0.7-0.5-1.5-0.2c-0.3-0.3-0.7-0.5-1.2-0.6c0,0-0.1,0-0.2,0
							c0,0-0.1,0-0.1,0c-0.1,0-0.3,0-0.4,0c-0.4-0.1-1.1,0.1-1.3,0.3l0,0l0,0c-0.2,0.1-0.5,0.2-0.8,0.3c-1.2,0.3-2.2-0.1-3.1-0.8
							c0,0-0.1,0-0.1,0c-0.2-0.1-0.4-0.2-0.7-0.3c0,0-0.1,0-0.2,0c0,0-0.1,0-0.1,0c-2.3,0.3-2.8,3.2-2.8,5c-0.1,0.3-0.1,0.7-0.2,1.1
							c-0.1,0.4-0.3,0.9-0.4,1.3c0,0.1-0.1,0.3-0.2,0.4c0,0-0.2,0.3-0.2,0.3c0,0.1-0.2,0.2-0.2,0.2s-0.1,0.1-0.1,0
							c-0.1,0-0.2,0.1-0.3,0.1c-0.5,0.1-1.1,0-1.5-0.3c-0.7-0.6-0.3-1.7,0-2.4c0.6-1.3,1.6-2.4,1.5-3.8c0-0.9-0.6-1.6-1.7-1.6
							c-1.6-0.1-2.7,1.2-3.6,2c-0.3,0.3-0.8,1-0.6,1.4c0.2,0.4,0.9-0.1,1.2-0.3c0.4-0.3,0.9-1.2,1.6-1.2c0.6,0,0.9,0.2,1.1,0.6
							c0.6,1.3-1.1,2.9-1.5,4c-0.5,1.6,0,3.8,2,3.6c1.6-0.1,2.7-1.2,3.4-2.3c0,0,0.1-0.1,0.1-0.2c0.3,1.1,0.8,2,1.8,2
							c0.9,0,1.7-1.1,2.1-1.9c0.5-1,0.7-2.1,0.7-3.2c0-0.5,0-1.3,0-2c0.5,0,1,0,1.5-0.1c-0.4,0.8-0.6,1.7-0.6,2.5
							c-0.2,1.6-0.3,4.8,1.9,5.1c0.4,0,0.8,0,1.3-0.2c-0.7,0.8-1.3,1.6-1.7,2.4c-0.6,0.9-1.1,1.9-1.3,3.1c-0.2,1.5,0.8,2.2,2.2,1.7
							c1.2-0.4,2-1.6,2.3-2.6c0.6-1.7,0.9-3.6,1.1-5.5c0.8-0.9,1.6-1.6,2.4-2.5c0,0.3-0.1,0.6-0.2,0.9c-0.4,1.5-0.2,3.6,1.3,4.2
							c1.6,0.6,3.3-1.3,3.8-2.8c0.2-0.7,0.4-1.6,0.3-2.4c0.4,0,0.9,0,1.4,0c-0.6,1.3-1,2.7-1.3,4.1c-0.2,0.8-0.3,1.6-0.2,2.4
							c0.3,1.4,2.7,0.3,3.3,0C-250.4,340.9-249.8,340.4-250.2,340z M-270.2,336.4C-270.2,336.4-270.3,336.4-270.2,336.4
							L-270.2,336.4z M-269.8,333c0,0.8,0,1.6-0.2,2.5c0,0.2-0.1,0.4-0.2,0.6c-0.3-0.1-0.6-0.7-0.7-1.1c-0.2-0.7-0.3-1.6-0.4-2.3
							c0-0.2,0-0.4,0-0.6c0.2-0.8,0.3-1.6,0.5-2.4h0c0,0,0,0,0.1,0.1c0,0,0,0,0.1,0C-269.9,330.6-269.8,332.5-269.8,333z
							 M-265.3,333c0-0.8,0.2-1.6,0.5-2.4c0.1-0.2,0.2-0.5,0.4-0.7c1.4,0.3,1.4,2.8,1.3,3.5c0,0.8-0.2,1.6-0.5,2.4
							c0,0.1-0.1,0.3-0.2,0.5c0,0-0.1,0.1-0.1,0.2c0,0,0,0,0,0C-265.5,336.4-265.4,333.8-265.3,333z M-264.5,343.2
							c-0.1,0.2-0.1,0.4-0.3,0.5c0,0-0.1,0-0.2,0c-0.2-0.1-0.2-0.1-0.3-0.2c-0.4-0.5,0-1.5,0.3-2c0.3-0.6,0.7-1.3,1.2-1.8
							c0,0.3-0.1,0.6-0.1,1C-264,341.5-264.1,342.4-264.5,343.2z M-256.4,337.9c0,0.1-0.1,0.2-0.2,0.3c0,0-0.1,0-0.1,0
							c-0.9-0.3-0.9-1.8-0.8-2.6c0-0.1,0-0.2,0-0.3c0,0,0,0,0,0c0-0.1,0-0.2,0.1-0.4c0.1-0.3,0.2-0.6,0.4-0.9c0-0.1,0.1-0.2,0.2-0.3
							c0,0,0,0,0.1,0c0.9,0.3,0.8,1.9,0.7,2.6C-255.9,337-256.1,337.5-256.4,337.9z"/>
					</g>
				</g>
			</g>
			<g id="leafs">
				<path class="st3" d="M-270.2,303.7c1.4,2-0.3,6.2-0.3,6.2s-4.6,0.1-5.9-1.9c-1.4-2-1.2-8.3-1.2-8.3S-271.6,301.7-270.2,303.7
					L-270.2,303.7z"/>
				<path class="st3" d="M-285,310.6c1.6,0.9,1.7,4.3,1.7,4.3s-3.1,1.5-4.6,0.5c-1.6-0.9-3.3-5.3-3.3-5.3S-286.5,309.6-285,310.6
					L-285,310.6z"/>
				<path class="st1" d="M-284.3,300.9c0.5,1.2-1,3.2-1,3.2s-2.4-0.5-2.9-1.7c-0.5-1.3,0.4-4.6,0.4-4.6S-284.8,299.7-284.3,300.9
					L-284.3,300.9z"/>
				<path class="st3" d="M-295.8,304.7c0.9,0.6,0.9,2.6,0.9,2.6s-1.8,0.8-2.8,0.2c-0.9-0.6-1.9-3.2-1.9-3.2
					S-296.8,304.2-295.8,304.7L-295.8,304.7z"/>
			</g>
		</g>
		<g>
			<g id="Layer_1_2_">
				<path class="st4" d="M-299.2,306.8c0,10.7-6.3,19.9-15.3,24.2c-3.4,1.6-7.3,0.6-11.4,0.6c-3.7,0-7.2,1.2-10.4-0.2
					c-9.6-4.1-16.3-13.6-16.3-24.6c0-9.5,4.9-17.7,12.3-22.5c4.2-2.7,9.1,0.2,14.4,0.2c5.2,0,10-3,14.1-0.4
					C-304.2,288.7-299.2,297.2-299.2,306.8z"/>
				<g>
					<path class="st2" d="M-345,301.6c-2.4,1-2.8,4-2.4,6.1c0.5,2.5,1.5,4.7,3.1,6.8c1,1.3,3.2,2.4,4.3,0.5c1.2-2,1-4.6,0.5-6.7
						c-0.4-1.8-1.1-3.5-2-5.1C-342.2,302.2-343.4,301.1-345,301.6c-0.8,0.3-1.6,2.5-0.5,2.1c0.8-0.3,1.6,0.3,2,0.8
						c0.8,0.8,1.4,1.9,1.8,3c0.5,1.2,0.8,2.4,1.1,3.7c0.1,0.5,0.1,1.1,0.1,1.6c0,0.4,0,1-0.1,1.2c0,0.1,0,0,0,0c0,0.1,0,0-0.1,0.1
						c-0.2,0.1-0.6,0-0.9,0c-0.8-0.3-1.5-1.2-1.9-2c-1.5-2.2-2.1-4.5-2.3-6.9c0-0.4,0.1-1,0.1-1.2c0.1-0.3-0.1,0.2,0,0
						c0.1-0.3-0.1,0.2,0,0c-0.2,0.2-0.1,0.1,0.1,0C-344.8,303.3-343.9,301.1-345,301.6z"/>
					<path class="st2" d="M-328.7,302.8c-2.5,0.3-3.1,3.4-3,5.4c0.1,1.6,0.6,4.7,2.8,4.7c1,0,1.7-1.2,2.1-2c0.4-1,0.6-2.2,0.6-3.2
						C-326.1,306-326.4,302.8-328.7,302.8c-0.8,0-2,1.9-0.9,1.8c1.3,0,1.6,2.5,1.7,3.2c0.1,0.8,0.1,1.6,0,2.5c0,0.2,0,0.3-0.1,0.5
						c0,0-0.1,0.4-0.1,0.3c0,0.1,0,0.1,0,0c0.1-0.1,0.2-0.1,0,0c-1.2,0.1-1.6-2.5-1.7-3.2c-0.1-0.8-0.1-1.6,0-2.5
						c0-0.3,0.1-0.6,0.3-1c0,0-0.4,0.2-0.1,0.2C-328.9,304.6-327.6,302.7-328.7,302.8z"/>
					<path class="st2" d="M-335.7,308c0.3-0.6,0.8-0.3,1.1,0.1c0.6,0.8,0.6,1.9,0.6,2.9c0,0.3,0,0.6-0.1,0.9c-0.1,0.3,0,0,0,0
						c-0.5,0.2-0.9-0.5-1.1-0.8c-0.9-1.7-1.4-3.6-1.7-5.6c-0.3-1.7-0.4-3.6,0.1-5.3c0.1-0.2,0.3-0.4,0-0.1c-0.2,0.2,0,0,0.3,0.1
						c0.5,0.2,0.5,1,0.6,1.4c0,1.8-0.3,3.6-0.7,5.5c-0.1,0.4-0.2,0.8-0.3,1.2c0,0.2,0.1-0.3,0,0c0,0.1-0.1,0.2-0.1,0.3
						c-0.2,0.5-0.5,1.1-0.8,1.6c-0.7,1.4-1.5,2.8-2.6,3.8c-0.3,0.3-0.6,0.9-0.6,1.5c0,0.4,0.3,0.6,0.7,0.3c1.2-1.2,2.1-2.7,3-4.2
						C-337,310.5-336.1,309.2-335.7,308c0.7-1.9,1.2-3.8,1.5-5.7c0.2-1.2,0.6-3.1-0.6-4c-1.3-1-3.1,0.9-3.4,1.7
						c-0.6,1.7-0.8,3.4-0.5,5.4c0.3,2.1,0.9,4.2,1.6,6.2c0.4,1,1.2,2.8,2.5,2.2c2.1-1,2.3-3.7,2.1-5.7c-0.1-1-0.6-2.2-1.8-2.3
						c-1.3-0.1-2.3,1.4-2.7,2.2c-0.1,0.2-0.3,1,0.1,1C-336.3,309-335.9,308.4-335.7,308L-335.7,308z"/>
					<path class="st2" d="M-307.2,314.5c-0.7,0.2-0.6-0.1-0.6-0.7c0-0.8,0.2-1.6,0.4-2.3c0.4-1.6,1-3.2,1.8-4.7
						c-0.7,0-1.5,0.1-2.1,0.2c-0.8,1.8-1.6,3.7-2.7,5.3c-0.1,0.2-0.2,0.3-0.4,0.5c-0.1,0.2-0.2,0.2-0.2,0.2c-0.1,0,0.1,0,0,0
						s-0.3,0-0.3,0c-0.9-1,1.4-5.5,1.9-7.7c0.2-1-1.9-0.3-2,0.4c-0.4,1.8-1,3.7-1.5,5.5c-0.2,1-0.9,3,0.5,3.2
						c1.3,0.2,2.5-0.7,3.4-1.7c1.6-1.7,2.5-3.9,3.5-6c0.2-0.4-0.4-0.6-0.8-0.6c-0.6,0-1.2,0.3-1.4,0.8c-0.9,1.9-1.5,3.9-1.9,6
						c-0.1,0.7-0.3,1.5-0.1,2.2c0.2,1,1.9,0.6,2.5,0.4c0.4-0.1,1.1-0.4,1.2-0.9C-306.1,314.4-306.9,314.4-307.2,314.5L-307.2,314.5z
						"/>
					<path class="st2" d="M-320.8,304.3c-0.4,2-0.8,4-1.4,5.9c-0.1,0.2-0.2,0.4-0.3,0.6c-0.1,0.2-0.1,0.2-0.2,0.3
						c-0.1,0.1,0.1,0,0,0c-0.1,0-0.3,0.1-0.3,0c-1.1-0.8,0-5.6,0.1-7.9c0-1-1.5,0.1-1.7,0.5c0,0-0.1,0.2,0-0.1
						c0,0.1-0.1,0.2-0.2,0.3c-0.2,0.3-0.3,0.4-0.6,0.6c-0.6,0.6-1.4-0.2-1.7-0.7c-0.5-0.8-2.1,0.8-1.7,1.4c0.9,1.3,2,1.7,3.4,0.8
						c0.9-0.6,1.7-1.5,2.4-2.4c-0.6,0.1-1.2,0.3-1.7,0.5c0,1.9-0.1,3.8-0.2,5.7c0,1-0.1,3.2,1.2,3c1.3-0.1,2.3-1.4,3-2.6
						c1.1-2,1.6-4.4,2.1-6.7c0.1-0.5-0.6-0.5-0.9-0.3C-320.1,303.3-320.7,303.8-320.8,304.3L-320.8,304.3z"/>
					<path class="st2" d="M-314.3,314.2c0.1-0.6,0.3-1.2,0.4-1.7c0.1-0.7-0.6-0.4-1-0.4c-0.1,0-0.2,0-0.2-0.3c0-0.4,0-0.8,0-1.2
						c0-2.1,0.4-4.3,1.2-6.3c-0.7,0.2-1.4,0.4-2.1,0.6c-0.5,2-1.1,3.9-1.9,5.7c-0.1,0.2-0.2,0.4-0.3,0.6c-0.1,0.2-0.2,0.2-0.2,0.3
						c-0.1,0,0.1,0,0,0c-0.1,0-0.3,0-0.4,0c-1.1-0.8,0.4-5.7,0.7-7.9c0.1-1-2.1,0-2.1,0.7c-0.1,1.8-0.4,3.8-0.6,5.7
						c-0.1,1-0.4,3.1,1.2,3.1c1.5,0,2.7-1.2,3.4-2.3c1.3-1.9,1.8-4.3,2.5-6.5c0.1-0.5-0.5-0.5-0.9-0.4c-0.5,0.1-1.1,0.5-1.3,1
						c-0.6,1.9-0.8,3.8-0.9,5.8c0,0.7,0,1.6,0.1,2.3c0.2,1,1.2,0.8,1.9,0.5c-0.2,0-0.4,0-0.5,0c-0.1-0.2-0.1-0.2-0.1,0
						c0,0.1,0,0.3-0.1,0.4c0,0.3-0.1,0.7-0.2,1C-316.2,315.8-314.5,314.9-314.3,314.2L-314.3,314.2z"/>
				</g>
			</g>
			<g id="leafs_1_">
				<path class="st5" d="M-325.8,277c1.4,2-0.3,6.2-0.3,6.2s-4.6,0.1-5.9-1.9c-1.4-2-1.2-8.3-1.2-8.3S-327.2,275-325.8,277
					L-325.8,277z"/>
				<path class="st5" d="M-340.6,283.8c1.6,0.9,1.7,4.3,1.7,4.3s-3.1,1.5-4.6,0.5c-1.6-0.9-3.3-5.3-3.3-5.3
					S-342.2,282.9-340.6,283.8L-340.6,283.8z"/>
				<path class="st4" d="M-340,274.2c0.5,1.2-1,3.2-1,3.2s-2.4-0.5-2.9-1.7c-0.4-1.2,0.4-4.6,0.4-4.6S-340.4,273-340,274.2
					L-340,274.2z"/>
				<path class="st5" d="M-351.5,278c0.9,0.6,0.9,2.6,0.9,2.6s-1.8,0.8-2.8,0.2c-0.9-0.6-1.9-3.2-1.9-3.2S-352.4,277.4-351.5,278
					L-351.5,278z"/>
			</g>
		</g>
		<g>
			<g id="fruits_2">
				<path class="st6" d="M-252.3,270.9c0,10.7-6.3,19.9-15.3,24.2c-3.4,1.6-7.3,0.6-11.4,0.6c-3.7,0-7.2,1.2-10.4-0.2
					c-9.6-4.1-16.3-13.6-16.3-24.6c0-9.5,4.9-17.7,12.3-22.5c4.2-2.7,9.1,0.2,14.4,0.2c5.2,0,10-3,14.1-0.4
					C-257.3,252.9-252.3,261.3-252.3,270.9z"/>
				<g>
					<path class="st2" d="M-258.2,276.1c-0.3-0.2-0.9-0.1-1.2,0c-0.1,0-0.3,0.1-0.3,0.1c0,0,0,0,0,0c0-0.1,0-0.3,0-0.5
						c0-0.5,0.2-1.1,0.3-1.6c0.3-1,0.7-2.1,1.4-3c0,0,0.1-0.1,0.1-0.1c0,0,0,0,0-0.1c0,0,0,0,0-0.1c0.2-0.2,0-0.5-0.3-0.6
						c-0.5,0-1,0.1-1.2,0.4c0,0-0.1,0.1-0.2,0.2c-0.5,0.4-2.1-0.1-2.8-0.4c0,0,0,0,0,0c0,0,0,0-0.1,0c-0.4-0.1-0.7-0.1-1.1,0
						c0.1-0.6,0.3-1.2,0.4-1.7v0v0c0-0.4-0.7-0.2-0.9-0.2c-0.2,0.1-0.5,0.2-0.6,0.4c0,0-0.1,0.1-0.1,0.2c-0.3,1.4-0.9,2.6-1.6,3.7
						c-0.1,0.2-0.4,0.5-0.6,0.7c0,0-0.1,0.1-0.2,0.1l0,0c0,0,0,0,0,0c0,0,0-0.1,0-0.2c-0.1-0.7,0.1-1.4,0.3-2.1s0.2-1.4,0.3-2.1
						c0-0.5,0.1-1.2-0.3-1.6c-0.4-0.4-1.2-0.1-1.6,0c-0.3,0.1-0.5,0.3-0.7,0.5c0-0.4-0.1-0.8-0.4-1.1c-0.3-0.3-1.1-0.2-1.4,0
						c-0.3,0.1-0.5,0.3-0.7,0.5c0-0.2,0-0.4,0-0.6c0-0.2,0-0.2-0.2-0.3c0,0-0.1,0-0.2,0c-0.1,0-0.2,0-0.3,0
						c-0.2,0.1-0.5,0.2-0.6,0.4s-0.2,0.3-0.2,0.4c-0.4,1.4-0.8,2.7-1.5,4c-0.1,0.3-0.4,0.7-0.6,1c-0.1-0.2-0.1-0.5-0.2-0.7
						c0-0.4-0.1-0.9-0.2-1.3c-0.2-0.8-0.8-1.1-1.5-0.9c0,0,0-0.1,0-0.2c0.1-0.6,0.3-1.2,0.7-1.7l0,0c0.2,0,0.4,0.1,0.5,0.2
						c0.5,0.4,1.9-0.7,1.4-1.1c-0.7-0.6-1.5-0.5-2-0.1c-0.4,0.2-0.8,0.6-1.1,1c0-0.8-0.2-1.5-0.4-2.3c-0.2-0.6-1.6,0.5-1.5,1
						c0,0,0,0.1,0,0.1c0,0,0,0,0,0c-0.4,1.3-1,2.6-1.6,3.8c0-1.2-0.1-2.4-0.2-3.6c0-0.2-0.1-0.3-0.3-0.2c-0.1,0-0.3,0-0.5,0.1
						c-0.4,0.2-0.7,0.6-0.7,1c0,1.5,0,3-0.2,4.5c0,0.2-0.1,0.4-0.1,0.6c0,0,0,0.1-0.1,0.2c0,0-0.1,0-0.2,0c-1.2-0.1-1.1-4.3-1.2-5.6
						v0c0,0,0-0.1,0-0.1c-0.1-0.7-1.4,0.2-1.5,0.8c0,0,0,0,0,0c-0.1,0.1-0.2,0.1-0.3,0.2c-0.7,0.4-1.4,0.3-1.9,0
						c-0.2-0.1-0.4-0.3-0.6-0.3c-0.6-0.1-1.2,0.2-1.6,0.7c-0.1-0.4-0.3-0.8-0.5-1.3c-0.1-0.3-0.7,0.1-0.8,0.3
						c-0.1,0.1-0.2,0.3-0.3,0.5c0-0.3-0.1-0.6-0.2-0.9c-0.3-1-0.9-2.3-2-2.5c-0.6-0.1-1.3,0.4-1.7,0.9c-0.2-0.4-0.4-0.8-0.6-1.2
						c-0.2-0.3-0.8,0.2-0.9,0.4c-0.2,0.3-0.5,0.8-0.3,1.1c-0.4,0.2-0.8,0.7-1.1,1c-0.7,1.1-0.6,2.4-0.2,3.6c0.4,1.1,1,2.1,2.1,2.6
						c0.4,0.2,1,0.1,1.5-0.1c0.2-0.1,0.3-0.2,0.5-0.4c0.4,1.4,0.9,2.8,1.2,4.2c0.1,0.4,0.5,0.1,0.7,0c0.2-0.3,0.5-0.7,0.4-1.1
						c-0.2-1.1-0.5-2.2-0.8-3.3c0.5-0.2,1-0.6,1.3-1.1c0.4-0.7,0.5-1.5,0.5-2.2c0.8,2.1,1.5,4.2,2,6.3c0.4,1.7,0.8,3.4,1.1,5.2
						c0,0.4,0.4,0.2,0.6,0c0.2-0.2,0.4-0.7,0.4-1.1c-0.2-1.3-0.4-2.6-0.7-3.9c0.4-0.1,0.9-0.5,1.2-1c0.7-1.1,0.7-2.6,0.4-3.8
						c0-0.2-0.1-0.4-0.2-0.7c0.5-0.1,1-0.4,1.5-0.8c0.1,1.1,0.1,2.2,0.3,3.2c0.1,0.9,0.4,2.3,1.8,2c0.6-0.1,1.1-0.4,1.4-0.9
						c-0.4,0.9-0.8,1.9-1.2,2.9c-0.2,0.8-0.5,1.6-0.4,2.4c0.1,1,1.3,1.4,2.1,0.8c0.7-0.5,1.1-1.5,1.2-2.4c0.1-1.6,0-3.2-0.1-4.8
						c0.6-1.3,1.3-2.5,1.9-3.8c0.1,1.7,0.1,3.4,0.1,5c0,0.8,1.3-0.2,1.3-0.7c0-0.6,0.1-1.3,0.2-1.9c0.7,0.8,0.4,3.4,2,2.8
						c0.9-0.3,1.5-1.4,2-2.1c-0.1,0.7-0.1,1.5-0.2,2.2c0,0.8,1.4,0,1.5-0.6c0.2-1.6,0.6-3,1.2-4.4c0-0.1,0.1-0.2,0.2-0.3v0
						c0.2,0.9,0.1,1.9,0,2.8c0,0.4-0.1,0.8-0.1,1.3c-0.1,0.5-0.2,1-0.2,1.6c-0.1,0.8,1.5,0,1.6-0.5c0.1-0.5,0.2-0.9,0.3-1.4
						c0.3-1.2,0.7-2.2,1.3-3.2c0.1,0.5,0,1.1,0,1.6c0,0.7-0.2,1.5-0.3,2.2c-0.1,0.5-0.2,1.2,0,1.7c0.2,0.5,0.6,0.6,1,0.4
						c0.8-0.1,1.5-0.7,2-1.3c-0.1,0.9,0.2,1.9,1.2,2.2c1.4,0.5,2.7-0.9,3.2-2c0.2-0.5,0.3-1.2,0.2-1.8c0.3,0,0.7,0,1.1,0
						c-0.5,1-0.8,2.1-1,3.2c-0.1,0.5-0.3,1.2-0.1,1.7c0.3,1,2.3,0.1,2.8-0.1C-258.3,276.7-257.8,276.4-258.2,276.1z M-296.6,271.6
						c-0.3,0-0.6-0.2-0.8-0.4c-0.6-0.5-1-1.3-1.2-1.9c-0.2-0.6-0.4-1.3-0.2-1.9c0,0,0.1,0,0.2,0c0.7,0.1,1.1,0.7,1.4,1.2l0,0
						c0.4,0.9,0.7,1.9,1.1,2.9c0,0,0,0,0,0.1c0,0,0,0,0,0C-296.4,271.6-296.6,271.6-296.6,271.6z M-293.9,270.7L-293.9,270.7
						L-293.9,270.7z M-294,270.6C-294,270.6-294,270.7-294,270.6L-294,270.6c-0.6,0.3-1,0-1.2-0.4l0,0c-0.3-1-0.6-2-1.1-3.1
						c-0.1-0.2-0.1-0.5-0.1-0.8l0,0c0,0,0,0,0,0c0.2-0.1,0.4,0,0.6,0.1c0.7,0.4,1,1.2,1.3,1.8C-294.1,269-293.9,269.8-294,270.6z
						 M-290.7,269.3L-290.7,269.3L-290.7,269.3z M-288.9,273.9L-288.9,273.9L-288.9,273.9z M-288.9,273.8
						C-288.9,273.8-288.9,273.9-288.9,273.8L-288.9,273.8c-0.5,0.3-0.9-0.1-1-0.5c0,0,0,0,0-0.1c-0.2-1-0.4-1.9-0.7-2.8v0
						c-0.1-0.3-0.1-0.6-0.1-0.9l0,0l0,0c0.2,0,0.4,0,0.5,0.2c0.6,0.4,0.9,1.3,1.1,1.9C-288.9,272.2-288.7,273-288.9,273.8z
						 M-282.4,277.9c0,0.1,0,0.3-0.1,0.5c0,0,0,0-0.1,0c-0.2,0-0.2,0-0.3-0.1c-0.4-0.2-0.3-0.9-0.2-1.4c0.1-0.7,0.4-1.4,0.6-2
						c0,0.3,0,0.6,0.1,1C-282.3,276.5-282.3,277.3-282.4,277.9z M-275.7,272.7L-275.7,272.7L-275.7,272.7L-275.7,272.7z
						 M-267.2,273.8L-267.2,273.8L-267.2,273.8C-267.3,273.8-267.2,273.8-267.2,273.8z M-263.3,274.7c0,0-0.1,0.1-0.1,0.2
						c0,0,0,0-0.1,0c-0.8-0.2-0.7-1.4-0.6-1.9c0,0,0-0.1,0-0.2l0,0c0-0.1,0-0.2,0.1-0.3c0.1-0.2,0.2-0.4,0.3-0.6
						c0,0,0.1-0.1,0.2-0.2c0,0,0,0,0.1,0c0.7,0.2,0.6,1.5,0.6,2C-262.9,274-263.1,274.3-263.3,274.7z"/>
				</g>
			</g>
			<g id="leafs_2_">
				<path class="st3" d="M-279,241.1c1.4,2-0.3,6.2-0.3,6.2s-4.6,0.1-5.9-1.9c-1.4-2-1.2-8.4-1.2-8.4S-280.4,239.2-279,241.1
					L-279,241.1z"/>
				<path class="st3" d="M-293.8,248c1.6,0.9,1.7,4.3,1.7,4.3s-3.1,1.5-4.6,0.5c-1.6-0.9-3.3-5.3-3.3-5.3S-295.4,247.1-293.8,248
					L-293.8,248z"/>
				<path class="st6" d="M-293.1,238.4c0.5,1.2-1,3.2-1,3.2s-2.4-0.5-2.9-1.7c-0.5-1.3,0.4-4.6,0.4-4.6S-293.6,237.1-293.1,238.4
					L-293.1,238.4z"/>
				<path class="st3" d="M-304.7,242.2c0.9,0.6,0.9,2.6,0.9,2.6s-1.8,0.8-2.8,0.2s-1.9-3.2-1.9-3.2S-305.6,241.6-304.7,242.2
					L-304.7,242.2z"/>
			</g>
		</g>
	</g>
</g>
<g id="soon">
	<path class="st7" d="M-236.2,266.7c0,16.3-13.4,29.3-29.3,29.3c-16.3,0-29.8-13.4-29.8-29.3c0-16.3,13.4-29.8,29.8-29.8
		C-249.2,236.9-236.2,250.3-236.2,266.7L-236.2,266.7z"/>
	<g>
		<path class="st2" d="M-279.7,268.2L-279.7,268.2c0,1.2-0.3,2.1-1,2.7c-0.7,0.6-1.6,0.9-2.9,0.9c-1.3,0-2.3-0.4-3.1-1.2
			c-0.8-0.8-1.2-1.8-1.2-3.1v-2.1c0-1.3,0.4-2.3,1.1-3c0.7-0.8,1.7-1.2,2.9-1.2c1.3,0,2.3,0.3,3,0.9s1.1,1.5,1,2.6l0,0h-2.3
			c0-0.6-0.1-1.1-0.4-1.4c-0.3-0.3-0.7-0.4-1.3-0.4c-0.5,0-0.9,0.2-1.2,0.6c-0.3,0.4-0.4,1-0.4,1.7v2.2c0,0.7,0.2,1.3,0.5,1.7
			s0.8,0.6,1.4,0.6c0.5,0,0.9-0.1,1.2-0.4s0.4-0.7,0.4-1.4H-279.7z"/>
		<path class="st2" d="M-275.3,267.5h-0.7v4.1h-2.4v-10.3h2.4v4h0.5l2.3-4h3l-3.2,4.7l3.5,5.6h-3.1L-275.3,267.5z"/>
		<path class="st2" d="M-260.8,267.4c0,1.3-0.4,2.3-1.2,3.1c-0.8,0.8-1.9,1.2-3.1,1.2c-1.3,0-2.4-0.4-3.2-1.2
			c-0.8-0.8-1.2-1.9-1.2-3.1v-1.8c0-1.3,0.4-2.3,1.2-3.1c0.8-0.8,1.9-1.2,3.2-1.2c1.3,0,2.3,0.4,3.1,1.2c0.8,0.8,1.2,1.9,1.2,3.1
			V267.4z M-263.2,265.5c0-0.7-0.2-1.3-0.5-1.8c-0.3-0.5-0.8-0.7-1.5-0.7c-0.6,0-1.1,0.2-1.5,0.7c-0.3,0.5-0.5,1.1-0.5,1.8v1.9
			c0,0.7,0.2,1.4,0.5,1.8c0.3,0.5,0.8,0.7,1.5,0.7c0.6,0,1.1-0.2,1.5-0.7s0.5-1.1,0.5-1.8V265.5z"/>
		<path class="st2" d="M-257,268.1v3.5h-2.4v-10.3h3.9c1.2,0,2.2,0.3,2.9,0.9c0.7,0.6,1.1,1.4,1.1,2.4s-0.4,1.8-1.1,2.4
			c-0.7,0.6-1.7,0.9-2.9,0.9H-257z M-257,266.3h1.5c0.5,0,0.9-0.1,1.2-0.4c0.3-0.3,0.4-0.7,0.4-1.1c0-0.5-0.1-0.8-0.4-1.1
			c-0.3-0.3-0.7-0.4-1.2-0.4h-1.5V266.3z"/>
		<path class="st2" d="M-241.6,267.4c0,1.3-0.4,2.3-1.2,3.1c-0.8,0.8-1.9,1.2-3.1,1.2c-1.3,0-2.4-0.4-3.2-1.2
			c-0.8-0.8-1.2-1.9-1.2-3.1v-1.8c0-1.3,0.4-2.3,1.2-3.1c0.8-0.8,1.9-1.2,3.2-1.2c1.3,0,2.3,0.4,3.1,1.2c0.8,0.8,1.2,1.9,1.2,3.1
			V267.4z M-244,265.5c0-0.7-0.2-1.3-0.5-1.8s-0.8-0.7-1.5-0.7c-0.6,0-1.1,0.2-1.5,0.7c-0.3,0.5-0.5,1.1-0.5,1.8v1.9
			c0,0.7,0.2,1.4,0.5,1.8s0.8,0.7,1.5,0.7c0.6,0,1.1-0.2,1.5-0.7c0.3-0.5,0.5-1.1,0.5-1.8V265.5z"/>
	</g>
</g>
</svg>
