<?xml version="1.0" encoding="utf-8"?>
<!-- Generator: Adobe Illustrator 19.0.0, SVG Export Plug-In . SVG Version: 6.00 Build 0)  -->
<svg version="1.1" xmlns="http://www.w3.org/2000/svg" xmlns:xlink="http://www.w3.org/1999/xlink" x="0px" y="0px"
	 viewBox="0 0 125 135" style="enable-background:new 0 0 125 135;" xml:space="preserve">
<style type="text/css">
	.st0{fill:#EB2046;}
	.st1{fill:#FFFFFF;}
	.st2{fill-rule:evenodd;clip-rule:evenodd;fill:#63BA46;}
	.st3{fill-rule:evenodd;clip-rule:evenodd;fill:#EB2046;}
</style>
<g id="fruits_2">
	<path class="st0" d="M122.7,79.8c0,22-12.9,41.1-31.6,49.9c-7.1,3.4-15.1,1.3-23.5,1.3c-7.6,0-14.8,2.4-21.4-0.4
		c-19.8-8.4-33.7-28-33.7-50.8c0-19.5,10.1-36.6,25.3-46.4c8.6-5.5,18.8,0.5,29.8,0.5c10.7,0,20.6-6.2,29.1-0.9
		C112.3,42.7,122.7,60,122.7,79.8z"/>
	<g>
		<path class="st1" d="M110.5,90.6c-0.7-0.5-1.9-0.2-2.4,0.1c-0.2,0.1-0.7,0.2-0.7,0.3c0,0,0-0.1-0.1-0.1c-0.1-0.3,0-0.7,0-1
			c0.1-1.1,0.4-2.2,0.7-3.3c0.6-2.1,1.4-4.3,2.8-6.1c0.1-0.1,0.2-0.2,0.3-0.3c0-0.1,0.1-0.1,0.1-0.2c0,0,0.1-0.1,0.1-0.2
			c0.5-0.5,0.1-1.1-0.7-1.2c-1-0.1-2,0.3-2.5,0.9c-0.1,0.1-0.3,0.3-0.4,0.5c-1.1,0.8-4.4-0.3-5.8-0.8c0,0-0.1,0-0.1-0.1
			c-0.1,0-0.1,0-0.2,0c-0.8-0.2-1.5-0.2-2.2,0c0.3-1.2,0.6-2.4,0.8-3.6c0,0,0-0.1,0-0.1c0,0,0-0.1,0-0.1c0.1-0.8-1.5-0.5-1.8-0.4
			c-0.5,0.2-1,0.5-1.3,0.9c-0.1,0.1-0.2,0.3-0.2,0.4c-0.7,2.8-1.8,5.3-3.4,7.7c-0.3,0.5-0.8,1.1-1.3,1.5c-0.1,0.1-0.3,0.2-0.4,0.3
			c0,0,0,0,0,0c0,0,0-0.1-0.1-0.1c-0.1-0.1-0.1-0.3-0.1-0.5c-0.2-1.5,0.3-2.9,0.6-4.3c0.3-1.4,0.5-2.9,0.6-4.3
			c0.1-1,0.2-2.4-0.6-3.3c-0.8-0.9-2.5-0.3-3.3,0.1c-0.6,0.3-1,0.7-1.4,1.1c-0.1-0.8-0.3-1.6-0.9-2.2c-0.7-0.7-2.2-0.5-2.9-0.1
			c-0.6,0.3-1.1,0.7-1.5,1.1c0-0.4,0-0.8,0-1.2c0.1-0.4-0.1-0.5-0.4-0.6c-0.1,0-0.3-0.1-0.5,0c-0.2,0-0.5,0.1-0.6,0.1
			c-0.5,0.2-1,0.5-1.3,0.8c-0.3,0.3-0.5,0.6-0.5,0.9c-0.8,2.8-1.7,5.5-3,8.2c-0.3,0.7-0.8,1.4-1.2,2c-0.3-0.4-0.3-1-0.4-1.4
			c-0.1-0.9-0.2-1.8-0.5-2.7c-0.5-1.7-1.7-2.2-3.1-1.9c0-0.1,0.1-0.2,0.1-0.4c0.3-1.2,0.7-2.5,1.5-3.6c0,0,0,0,0,0
			c0.4,0.1,0.8,0.3,1.1,0.5c1.1,0.8,3.9-1.5,2.9-2.3c-1.5-1.2-3-1.1-4.2-0.3c-0.9,0.4-1.7,1.2-2.3,2c-0.1-1.6-0.4-3.1-0.8-4.7
			c-0.4-1.2-3.4,1-3,2.1c0,0.1,0.1,0.2,0.1,0.3c0,0,0,0,0,0.1c-0.8,2.7-2,5.3-3.3,7.9c-0.1-2.5-0.3-5-0.5-7.5c0-0.4-0.2-0.6-0.6-0.5
			c-0.3,0-0.7,0.1-1,0.3c-0.8,0.4-1.5,1.2-1.5,2c0,3.1-0.1,6.2-0.5,9.2c-0.1,0.4-0.2,0.8-0.3,1.2c0,0.1-0.1,0.3-0.2,0.4
			c-0.1,0-0.3,0.1-0.5,0.1c-2.5-0.3-2.3-8.8-2.4-11.5c0,0,0-0.1,0-0.1c0-0.1,0-0.2,0-0.3c-0.3-1.4-2.8,0.4-3.1,1.6
			c-0.1,0.1-0.1,0.1-0.1,0.1c-0.2,0.2-0.4,0.3-0.7,0.5c-1.4,0.9-2.8,0.6-4-0.1c-0.4-0.3-0.8-0.6-1.3-0.7c-1.3-0.3-2.5,0.5-3.4,1.4
			c-0.3-0.9-0.6-1.7-1-2.6c-0.3-0.7-1.5,0.3-1.7,0.6c-0.3,0.3-0.5,0.7-0.7,1.1c-0.1-0.7-0.3-1.3-0.5-1.9c-0.7-2.1-1.8-4.8-4.2-5.2
			c-1.3-0.2-2.7,0.8-3.6,1.8c-0.4-0.8-0.8-1.7-1.2-2.5c-0.4-0.7-1.6,0.5-1.9,0.8c-0.5,0.7-1,1.6-0.7,2.3c-0.9,0.5-1.7,1.4-2.2,2.1
			c-1.4,2.2-1.3,5-0.5,7.4c0.8,2.2,2.1,4.4,4.3,5.4c0.9,0.4,2.1,0.2,3.1-0.3c0.4-0.2,0.7-0.5,1-0.8c0.9,2.8,1.8,5.7,2.5,8.6
			c0.2,0.8,1,0.3,1.4-0.1c0.5-0.6,1-1.5,0.8-2.3c-0.5-2.3-1.1-4.6-1.7-6.9c1-0.4,2-1.3,2.7-2.3c0.9-1.4,1.1-3.1,1-4.6
			c1.7,4.3,3,8.6,4.1,13c0.9,3.5,1.7,7.1,2.3,10.7c0.1,0.8,0.8,0.4,1.2,0c0.5-0.5,0.9-1.4,0.8-2.2c-0.4-2.7-0.9-5.4-1.5-8.1
			c0.9-0.3,1.9-1,2.5-2c1.5-2.3,1.5-5.3,0.8-7.9c-0.1-0.4-0.2-0.9-0.4-1.4c1.1-0.3,2.1-0.9,3.1-1.7c0.3,2.2,0.3,4.5,0.7,6.7
			c0.3,1.8,0.9,4.8,3.7,4.2c1.2-0.3,2.2-0.9,2.9-1.8c-0.9,1.9-1.7,3.9-2.4,5.9c-0.5,1.6-1,3.3-0.8,5c0.3,2.1,2.7,2.8,4.3,1.6
			c1.5-1.1,2.3-3.1,2.4-4.9c0.3-3.2,0-6.5-0.3-9.8c1.3-2.6,2.6-5.2,3.9-7.8c0.3,3.5,0.2,7,0.2,10.4c0,1.6,2.6-0.5,2.7-1.5
			c0.1-1.3,0.2-2.7,0.5-4c1.4,1.6,0.8,7,4.1,5.7c1.8-0.7,3.1-2.8,4.1-4.4c-0.2,1.5-0.3,3-0.4,4.5c-0.1,1.6,2.9-0.1,3-1.2
			c0.5-3.2,1.2-6.2,2.5-9.1c0.1-0.2,0.2-0.5,0.4-0.7c0,0,0,0.1,0,0.1c0.5,1.8,0.2,3.9,0,5.7c-0.1,0.9-0.2,1.7-0.3,2.6
			c-0.2,1.1-0.4,2.1-0.5,3.2c-0.2,1.6,3,0,3.2-1c0.2-1,0.4-1.9,0.6-2.9c0.6-2.4,1.5-4.6,2.7-6.7c0.3,1.1,0.1,2.3,0.1,3.4
			c-0.1,1.5-0.4,3-0.7,4.5c-0.2,1.1-0.4,2.4,0,3.5c0.4,1,1.2,1.2,2.1,0.9c1.6-0.2,3-1.5,4.1-2.6c-0.2,1.9,0.4,4,2.4,4.6
			c2.9,1,5.5-1.8,6.5-4.2c0.4-1,0.6-2.4,0.5-3.7c0.7,0.1,1.5,0.1,2.2,0c-1,2.1-1.7,4.4-2.1,6.6c-0.2,1.1-0.6,2.4-0.2,3.5
			c0.7,2.1,4.7,0.2,5.7-0.3C110.2,91.8,111.3,91.1,110.5,90.6z M31.2,81.3c-0.6-0.1-1.2-0.4-1.6-0.8c-1.3-1.1-2-2.6-2.5-4
			c-0.4-1.2-0.8-2.6-0.5-4c0.1,0,0.2,0,0.4,0.1c1.4,0.3,2.3,1.5,2.8,2.5l0,0c0.8,1.9,1.5,3.9,2.2,5.9c0,0.1,0,0.1,0,0.2
			c0,0-0.1,0-0.1,0.1C31.6,81.3,31.3,81.3,31.2,81.3z M36.7,79.3C36.7,79.3,36.7,79.3,36.7,79.3L36.7,79.3z M36.6,79.1
			c0,0.1,0,0.2-0.1,0.2c0,0,0,0,0,0c-1.1,0.5-2-0.1-2.3-1c0,0,0,0,0,0c-0.7-2.1-1.3-4.2-2.2-6.3c-0.2-0.5-0.3-1-0.3-1.6c0,0,0,0,0,0
			c0,0,0,0,0.1,0c0.4-0.2,0.8,0,1.3,0.2c1.4,0.8,2.1,2.4,2.7,3.7C36.4,75.8,36.9,77.5,36.6,79.1z M43.4,76.4
			C43.4,76.4,43.4,76.4,43.4,76.4L43.4,76.4z M47.2,85.9C47.2,85.9,47.2,85.9,47.2,85.9L47.2,85.9z M47.2,85.7c0,0.1,0,0.2-0.1,0.2
			c0,0,0,0,0,0c-1,0.4-1.8-0.5-2-1.3c0-0.1,0-0.1-0.1-0.2c-0.4-2-0.9-3.9-1.5-5.8c0,0,0-0.1,0-0.1c-0.2-0.6-0.3-1.2-0.2-1.9
			c0,0,0,0,0,0c0,0,0,0,0,0c0.4-0.1,0.8,0.1,1.1,0.4c1.2,0.9,1.8,2.6,2.2,4C47.2,82.4,47.5,84.2,47.2,85.7z M60.6,94.3
			c0,0.3-0.1,0.7-0.2,1.1c0,0-0.1,0-0.2,0c-0.4-0.1-0.4-0.1-0.7-0.3c-0.9-0.5-0.6-1.9-0.4-2.8c0.3-1.4,0.8-2.8,1.3-4.1
			c0.1,0.7,0.1,1.3,0.2,2C60.7,91.4,60.7,92.9,60.6,94.3z M74.4,83.5C74.4,83.5,74.4,83.5,74.4,83.5C74.4,83.5,74.4,83.5,74.4,83.5
			C74.4,83.5,74.4,83.5,74.4,83.5z M91.8,85.7L91.8,85.7L91.8,85.7C91.7,85.7,91.8,85.7,91.8,85.7z M100,87.6
			c-0.1,0.1-0.2,0.3-0.3,0.4c-0.1,0-0.1,0-0.2-0.1c-1.6-0.5-1.5-2.9-1.3-4c0-0.1,0.1-0.3,0.1-0.4c0,0,0,0,0,0
			c0.1-0.2,0.1-0.4,0.2-0.6c0.2-0.5,0.4-0.9,0.7-1.3c0.1-0.1,0.3-0.3,0.4-0.4c0,0,0.1,0,0.2,0c1.5,0.5,1.3,3,1.2,4.1
			C100.7,86.1,100.4,86.9,100,87.6z"/>
	</g>
</g>
<g id="leafs">
	<path class="st2" d="M67.5,18.4c2.8,4.1-0.6,12.8-0.6,12.8s-9.4,0.2-12.2-3.9C51.8,23.1,52.2,10,52.2,10S64.6,14.3,67.5,18.4
		L67.5,18.4z"/>
	<path class="st2" d="M37,32.5c3.2,1.9,3.5,8.8,3.5,8.8s-6.3,3-9.5,1.1c-3.2-1.9-6.9-10.9-6.9-10.9S33.8,30.6,37,32.5L37,32.5z"/>
	<path class="st3" d="M38.4,12.7c1,2.5-2,6.7-2,6.7s-5-1.1-6-3.6c-1-2.6,0.9-9.5,0.9-9.5S37.4,10.1,38.4,12.7L38.4,12.7z"/>
	<path class="st2" d="M14.6,20.5c1.9,1.2,1.9,5.3,1.9,5.3s-3.8,1.7-5.7,0.5c-1.9-1.2-4-6.7-4-6.7S12.7,19.3,14.6,20.5L14.6,20.5z"/>
</g>
</svg>
