<?xml version="1.0" encoding="utf-8"?>
<!-- Generator: Adobe Illustrator 19.0.0, SVG Export Plug-In . SVG Version: 6.00 Build 0)  -->
<svg version="1.1" id="Layer_1" xmlns="http://www.w3.org/2000/svg" xmlns:xlink="http://www.w3.org/1999/xlink" x="0px" y="0px"
	 viewBox="-234 351.4 126 139.5" style="enable-background:new -234 351.4 126 139.5;" xml:space="preserve">
<style type="text/css">
	.st0{opacity:0.5;}
	.st1{fill:#FFCA59;}
	.st2{fill:#FFFFFF;}
	.st3{fill:#62BC47;}
</style>
<g id="honey" class="st0">
	<path class="st1" d="M-225.6,428c0-6,0-11.9,0-17.9c0-7.1,3.1-12.3,9.2-15.9c9.8-5.7,19.5-11.4,29.2-17.3c7.4-4.6,14.5-4.6,22,0
		c9.7,6,19.6,11.7,29.4,17.4c6,3.5,9.1,8.8,9.1,15.7c0,11.8,0,23.6,0,35.5c0,7.4-3.2,13-9.7,16.6c-9.7,5.4-19.3,11-28.8,16.7
		c-7.2,4.3-13.8,4.9-21.3,0.1c-9.4-6-19.4-11.2-29.1-16.7c-6.8-3.8-10.1-9.3-9.9-17.1C-225.4,439.5-225.6,433.8-225.6,428
		L-225.6,428z"/>
	<g>
		<g>
			<path class="st2" d="M-146.2,431.6c-1.3,0-2.5,0.5-3,1.3c-0.2,0.3-1,1-1.5,1.3c-0.6,0.5-1.3,1-2,1.5c0.3-1.1,0.7-2.2,1-3.3
				c0.7-2.4,1.4-4.8,2.2-7.2c0.4-1.1-1.3-1.3-2.7-0.9c-0.5-0.6-1.1-1.2-1.9-1.5c-0.1-0.1-0.2-0.1-0.4-0.2c-0.1,0-0.2,0-0.3-0.1
				c-4.3-0.9-7.5,2.7-8.7,6.4v0.1c-0.2,0.5-0.3,1-0.4,1.4c-0.6,1.8-1.8,3.3-3.7,4.4c-1.1,0.7-3,1.4-4.2,0.9c-0.7-0.3-1.1-1-1.4-1.8
				c2.4-2.5,4.7-5.1,6.3-8.1c0.9-1.8,1.1-5-2.2-5.7c-3.1-0.7-5.5,1.5-6.7,3.3c-1.3,2.2-1.7,4.7-1.7,7.2c0,1.4,0.1,3,0.5,4.5
				c-0.5,0.4-1.1,0.6-1.6,0.4c-0.1-0.1-0.3-0.1-0.4-0.1c-0.9-0.7-1.5-2.2-1.8-3c-0.9-2.4-1.3-5-1.6-7.6c-0.5-4.2-0.7-8.6-0.1-12.8
				c0.1-0.7-1-0.8-1.7-0.5c-1.2,0.4-2.4,1.2-2.8,2c-1.6,3-2.3,6.3-2.8,9.9v0.1c-0.1-0.3-0.1-0.6-0.2-0.9c-0.5-2.7-1-5.3-1.4-8
				c-0.2-1.6-0.6-3.8-0.2-5.1c0.5-2.2-3.6,0-4.2,1c-3.4,6-2,12.6-1.2,19.7c0.2,1.7,0.2,3.4,0.2,5.2c-0.1,1.2-0.1,3.3-0.9,4.3
				c-0.6,0.7-1.8,0.2-2.4,0c-0.9-0.4-1.6-1.2-1.8-2.2c-0.3-1-1.4-0.3-2,0.3c-0.8,0.8-1.6,2.2-1.3,3.1c0.7,2.2,3.5,4,6,3.1
				c3.7-1.4,4.8-6.2,5.4-9.8c0.4-2.1,0.4-4.3,0.4-6.5c1,3.9,2,7.9,3,11.8c0.5,2,3.5-1.4,3.5-2.6c0-2.8,0.2-5.7,0.6-8.5
				c0.6,3.7,1.8,10.9,6.7,10.8c0.1,0,0.2,0,0.2,0c1.2-0.1,2.3-1,3.4-2c0,0,0,0,0,0.1c2.5,4.5,9.1,0.1,11.9-1.7
				c0.2,2.4,1.1,4.7,3.4,5.4c0.7,0.2,1.4,0.2,2.1,0c-0.4,0.4-0.8,0.8-1.2,1.2c-1.8,1.9-3.4,3.9-4.6,6.2c-0.8,1.5-1.5,3.4-0.8,5
				c1.4,3.1,4.9,0.8,6.3-0.8c2.2-2.6,3.3-6.1,4.2-9.3c0.3-1.1,0.7-2.2,1-3.3c1.4-1.1,2.9-2.1,4.4-3.1c1.8-1.2,3.9-2.3,5.2-4
				C-143.6,432.1-145.5,431.6-146.2,431.6z M-173.6,426.7c0.1-0.8,0.4-1.6,0.7-2.4c0.1-0.3,0.3-0.6,0.5-0.9l0,0
				c0.1,0,0.2,0.1,0.4,0.1c0.8,0.3,1,1.2,1.1,1.8c0,2.1-1.5,4-2.8,5.7C-174,429.5-173.9,428.1-173.6,426.7z M-159.9,431.1
				c0.1-0.5,0.2-1,0.3-1.5c0.2-0.5,0.4-1,0.5-1.5V428c0.2-0.5,0.4-1,0.7-1.4s0.5-0.8,0.9-1.2c2.6,0.9,1.8,5.8,1.5,7.3
				s-0.8,3.1-1.6,4.5c-0.2,0.3-0.4,0.6-0.5,0.8c0,0.1-0.2,0.2-0.3,0.4c0,0,0,0-0.1,0C-160.8,437.6-160.2,432.5-159.9,431.1z
				 M-160.8,450.7c-0.2,0.4-0.4,0.9-0.7,1.2c0,0,0,0,0,0.1c0,0,0,0-0.1-0.1s-0.3-0.2-0.4-0.3c-0.1-0.1-0.1-0.1-0.1-0.1s0,0-0.1-0.1
				c-0.7-1.1,0.3-2.8,0.8-3.7c0.8-1.3,1.7-2.4,2.7-3.5c-0.1,0.5-0.2,1-0.4,1.4C-159.5,447.4-160,449.1-160.8,450.7z"/>
			<path class="st2" d="M-175.4,418c1.1,0.3,2.5-0.6,3.2-1.2c0.9-0.9,1.9-2,2-3.2c0.1-1-1.3-0.9-2.2-0.6c-1.1,0.4-2.5,1.3-2.5,2.3
				c0,0.1,0,0.2,0,0.3v0.1l0,0c0,0.1-0.1,0.3-0.2,0.4s-0.1,0.2-0.2,0.3c-0.1,0.1-0.1,0.1-0.1,0.1
				C-175.9,416.9-176.3,417.8-175.4,418z"/>
			<path class="st2" d="M-168.8,417.5c1.5,0.1,2.7-0.7,3.6-1.4c0.8-0.7,1.4-1.5,1.7-2.4c0.3-1-1.6-1-2.5-0.8
				c-1.3,0.3-2.7,1.1-2.9,2.1c0,0.1,0,0.2-0.1,0.2l0,0l0,0c0,0.1-0.1,0.2-0.2,0.3c-0.1,0.1-0.2,0.2-0.3,0.3
				C-169.9,416.4-170.1,417.5-168.8,417.5z"/>
		</g>
	</g>
	<g>
		<path class="st2" d="M-180,474c-1.1-0.2-2.1-0.4-3.2-0.6c-0.2,0-0.4-0.1-0.6-0.2c-0.1,0-0.2-0.1-0.3-0.1c0,0-0.1,0-0.2,0
			c-0.1,0-0.3-0.1-0.3-0.1c-0.2-0.4-0.5-0.5-0.9-0.5c-0.2,0-0.3,0-0.5-0.1c-0.5-0.2-0.9-0.5-1.3-0.8c-0.5-0.3-0.9-0.6-1.3-0.9
			l-0.4-0.3c-0.1-0.1-0.2-0.1-0.2-0.2c0-0.5-0.3-0.9-0.6-1.2c-0.1-0.2-0.3-0.4-0.4-0.6c-0.1-0.2-0.2-0.4-0.3-0.5l-0.3-0.4
			c-0.1-0.1-0.2-0.3-0.2-0.4c-0.2-0.6-0.5-1.2-0.6-1.8c0-0.2,0-0.3,0-0.5c0-0.1,0-0.2,0-0.3s0-0.2-0.1-0.3c-0.1-0.3-0.3-0.6-0.4-0.9
			c-0.3-0.6-0.6-1.2-0.8-1.9c-0.2-0.6-0.4-1.4-0.2-2.2c0.1-0.4,0-0.9-0.1-1.4v-0.3c-0.1-0.5-0.2-1-0.4-1.6c-0.2-0.5-0.4-1-0.8-1.6
			c-0.1-0.2-0.3-0.4-0.5-0.7c-0.1-0.1-0.2-0.2-0.3-0.4l-0.1-0.1h0.5c0.2,0,0.4,0,0.5,0c1.1-0.1,2-0.5,2.7-1.1
			c0.1-0.1,0.2-0.1,0.2-0.1c0.1,0,0.1,0,0.2-0.1c0.2-0.1,0.4-0.3,0.6-0.5l0.4-0.2c0.3-0.1,0.6-0.2,0.9-0.4c0.1,0,0.3-0.1,0.4-0.1
			c0.1,0,0.2,0,0.3-0.1c0.2-0.1,0.5-0.2,0.7-0.3l0.3-0.1c0.1,0,0.1-0.1,0.2-0.1c0.1-0.1,0.3-0.1,0.4-0.1h0.2c1-0.1,1.9-0.1,2.5-1
			c0.1-0.1,0.2-0.1,0.3-0.1h0.1c0.2-0.1,0.3-0.1,0.5-0.2c0.4-0.2,0.7-0.3,1.1-0.4c0.4,0,0.8-0.2,1.2-0.4c0.4-0.2,0.9-0.4,1.4-0.4
			c0.2,0,0.4,0,0.6,0.1h0.1c0.3-0.2,0.6-0.2,1-0.2c0.2,0,0.5,0,0.7,0.1c0.2,0,0.5,0.1,0.7,0.1c0.1,0,0.2,0,0.3,0h0.1
			c0.3,0.2,0.7,0.4,1.1,0.5c0.6,0.2,1.1,0.4,1.5,0.9c0.2,0.1,0.5,0.2,0.7,0.3c0.5,0.3,1.1,0.5,1.6,0.9c0.3,0.2,0.5,0.4,0.7,0.6
			s0.4,0.4,0.6,0.6c1.2,0.8,2,2,2.6,3.5c0.1,0.3,0.1,0.6,0.1,0.9c0,0.1,0,0.2,0,0.3s0,0.1,0,0.2s0,0.1,0,0.2
			c0.5,0.7,0.4,1.4,0.3,2.1c0,0.3-0.1,0.6,0,0.8v0.2c0,1,0.1,2.2-0.6,3.1c-0.8,1.1-1.7,1.6-2.8,1.8c-0.2,0-0.5,0-0.7,0.1h-0.1
			c0.7,0.2,3,1,4.9,1.6c0.2,0,0.6,0.1,0.9,0.1c0.5,0.1,1,0.1,1.4,0.2s0.6,0.2,0.8,0.4c0.1,0.2,0.2,0.5,0,1l-1-0.2l-3-0.8
			c-1.1-0.3-2.2-0.6-3.3-0.9c-0.1,0-0.3-0.1-0.5-0.2c-0.3-0.1-0.7-0.3-0.9-0.3c-0.1,0-0.2,0-0.3-0.1c-0.2,0-0.4-0.1-0.5-0.1
			c-0.4,0.4-0.6,0.9-0.7,1.4c-0.1,0.4-0.1,0.8-0.1,1.3s-0.1,1-0.2,1.5c-0.1,0.5-0.4,0.9-0.7,1.3c-0.3,0.3-0.5,0.6-0.7,0.8
			c-0.2,0.2-0.3,0.3-0.5,0.5c-0.1,0.1-0.2,0.3-0.4,0.4c-0.4,0.5-0.7,1-1.6,1c-0.5,0-1,0.2-1.5,0.5c-0.2,0.1-0.5,0.2-0.7,0.3h-0.1
			C-179.8,473.9-179.9,474-180,474L-180,474z M-181.5,473v0.1c0.4,0.3,0.7,0.4,1.1,0.4c0.5,0,0.9-0.3,1.3-0.7
			c0.3-0.4,0.5-0.7,0.6-1.1c0.4-1.3,0.8-2.6,1.2-3.7c0.1-0.4,0.3-1.1,0.4-1.6v-0.1c-0.8,0.4-1.4,0.7-1.7,0.9
			c-0.3,0.2-0.6,0.6-0.8,0.9c-0.2,0.4-0.3,0.9-0.4,1.3c-0.2,0.5-0.3,1-0.5,1.5s-0.5,1-0.8,1.4c-0.1,0.2-0.2,0.4-0.4,0.5
			C-181.5,473-181.5,473-181.5,473z M-183,472.1l-0.3,0.6c0.3,0.4,0.5,0.5,0.8,0.5c0.2,0,0.5-0.1,0.9-0.4v-0.1
			c0-0.1,0.1-0.2,0.2-0.3c0.7-1.1,1.1-2.3,1.5-3.6c0.1-0.4,0.2-0.7,0.3-1.1c-0.2,0.1-0.3,0.1-0.4,0.2c-0.4,0.2-0.7,0.4-1.1,0.5
			c-0.5,0.2-0.8,0.5-1,1.1l-0.1,0.3c-0.1,0.3-0.1,0.5-0.2,0.8c-0.1,0.4-0.3,0.7-0.4,1.1L-183,472.1L-183,472.1z M-176.5,466.2
			c-0.4,2.2-1.1,4.9-2.4,7.1c0.6-0.2,1.3-0.4,1.9-0.7c0.2-0.1,0.2-0.4,0.3-0.6c0-0.1,0.1-0.2,0.1-0.3c0.2-0.5,0.6-2.2,1-3.8
			c0.2-1,0.5-1.8,0.6-2.2c0-0.1,0-0.1,0-0.1C-175,465.5-176.3,466-176.5,466.2L-176.5,466.2z M-185.2,472L-185.2,472
			c0.3,0.1,0.6,0.2,0.7,0.3c0.1,0.2,0.3,0.3,0.4,0.3c0.1,0,0.3-0.1,0.5-0.3l0.5-0.4l0.9-3.2c-0.1,0.1-0.3,0.2-0.5,0.2
			c-0.7,0.2-1.3,0.3-1.6,0.9L-185.2,472L-185.2,472z M-176.5,472.1c0.2-0.2,0.4-0.5,0.6-0.7c0.2-0.3,0.5-0.6,0.8-0.8
			c0.5-0.4,0.6-0.9,0.5-1.5c0-0.1,0-0.3,0-0.4v-0.2l0.2-0.1l0.3,1.3c0.1-0.2,0.1-0.4,0.2-0.6c0-0.1,0.1-0.2,0.1-0.3
			c0-0.1,0.1-0.8,0.2-1.4c0.1-0.8,0.2-1.6,0.3-1.8l0.1-0.3l-0.4,0.5l-0.2-0.1l0,0v-0.1l0.6-0.8l-0.5,0.2l-0.1-0.1l0,0l0,0l0,0
			c-0.2,0.1-0.4,0.2-0.7,0.4L-176.5,472.1z M-186.7,469.9l-2,0.2c0.4,0.5,0.8,1,1.5,1c0.1,0,0.2,0.1,0.3,0.2
			c0.2,0.4,0.4,0.6,0.8,0.6c0.3,0,0.7-0.2,0.9-0.6c0.1-0.2,0.3-0.5,0.4-0.7l0.2-0.3v-0.6L-186.7,469.9z M-177.9,462.7
			c-0.1,0-0.2,0-0.3,0c-1.7,0.7-3.4,1.4-5.1,2.1l-1.5,0.7c-0.1,0.1-0.3,0.2-0.4,0.3l-0.5,0.5c-1.1,1-2.2,2.1-3.8,2.4
			c0.4,0.7,0.9,1.1,1.8,1.1c0.1,0,0.2,0,0.3,0c2.4-0.1,4.7-0.8,7.1-2c0.6-0.3,2-1,3.3-1.6c1-0.5,2-0.9,2.5-1.2h0.1l0,0l0.3-0.2
			l0.3-0.1l-1.2-0.6c-0.2-0.2-0.5-0.3-0.8-0.4c-0.2-0.1-0.5-0.2-0.7-0.4c0,0-0.1-0.1-0.2-0.1s-0.3-0.1-0.4-0.2
			C-177.3,462.8-177.6,462.7-177.9,462.7z M-190.5,466.7c0.1,0.2,0.2,0.3,0.2,0.5c0.1,0.1,0.1,0.2,0.2,0.3c0.1,0.1,0.2,0.3,0.3,0.4
			c0.1,0.3,0.2,0.3,0.4,0.3c0.1,0,0.1,0,0.2,0c1.4-0.3,2.3-1.2,3.2-2.1c-1.1,0.4-2.2,0.5-3,0.5c-0.5,0-1.1,0-1.6-0.1L-190.5,466.7z
			 M-191.6,463.1c0.1,0.3,0.3,0.5,0.4,0.8c0,0.1,0.1,0.4,0.1,0.6c-0.1,0.2,0,0.6,0.3,1c0.2,0.3,0.5,0.6,0.7,0.6
			c0.4,0.1,0.8,0.1,1.2,0.1c1.4,0,2.7-0.5,3.7-0.9c1.7-0.7,3.5-1.5,5.2-2.3l1.5-0.6c0.1,0,0.1-0.1,0.2-0.1l0.2-0.1
			c-0.3,0-0.5-0.2-0.8-0.3c-0.6-0.3-1.1-0.5-1.7-0.8c-0.2-0.1-0.5-0.2-0.7-0.2s-0.5,0.1-0.7,0.2l-0.1-0.1l0.4-0.5
			c-0.2,0-0.4-0.1-0.6-0.2c-0.4-0.2-0.9-0.4-1.3-0.7c-0.3-0.2-0.6-0.3-0.9-0.3s-0.6,0.1-0.9,0.3l-0.1-0.1l0.6-0.6l-0.6-0.3
			c-0.6-0.3-1.2-0.7-1.7-1c-0.1,0-0.2-0.1-0.3-0.1s-0.2,0-0.2,0c-0.8,0.4-1.7,0.6-2.7,0.6h-0.2c-0.3,0-0.5,0-0.8,0h-1.3v0.1
			c0,0.1,0,0.2,0,0.3c-0.2,1.1,0,1.2,1.1,1.5c0.2,0,0.3,0,0.5,0.1c0.2,0,0.4,0,0.6,0c1.7,0,3.4-0.4,5.1-0.8l0.1,0.1
			c-0.1,0-0.1,0.1-0.2,0.1c-0.1,0.1-0.2,0.2-0.4,0.2l-0.6,0.1c-1.2,0.3-2.4,0.6-3.7,0.6c-0.7,0-1.3-0.1-1.9-0.3c-0.1,0-0.2,0-0.2,0
			c-0.1,0-0.2,0-0.3,0.1c0,0.1-0.1,0.2,0,0.3l0.1,0.2c0.2,0.6,0.4,1.3,1.1,1.6c0.7,0.3,1.4,0.5,2.2,0.5c0.6,0,1.2-0.1,1.8-0.2
			c1-0.2,2-0.5,3-0.8c0.4-0.1,0.9-0.3,1.3-0.4v0.1l-0.7,0.3c-1.7,0.7-3.5,1.4-5.4,1.4c-0.9,0-1.8-0.2-2.6-0.5L-191.6,463.1z
			 M-171.9,463.8h0.1c0.1,0.1,0.2,0.1,0.3,0.2c0.1,0,0.2,0,0.2,0h0.4c1.6-0.4,2.8-1.5,3.4-3c0.2-0.4,0.2-0.9,0.2-1.4
			c0-0.2,0-0.4,0-0.6h-0.1l-0.2,0.2l-0.4,0.3c0,0,0.2-0.6,0.3-0.8c0.2-0.4,0.3-0.9,0.4-1.3c0-0.1,0-0.2,0-0.3h-0.1
			c-0.1,0-0.2,0-0.3,0.1l-0.1-0.1c0.3-0.6,0.3-1.3,0.3-1.9l-0.4,0.3l-2.6,1.2l0.2-0.6c0.1-0.3,0.2-0.6,0.3-0.8s0.1-0.5,0-0.6
			c-0.7-0.7-0.7-1.5-0.8-2.4v-0.4c-0.1-0.8-0.2-1.6-1.2-1.9c-0.4-0.1-0.8-0.5-1.1-0.8c-0.1-0.1-0.3-0.3-0.4-0.4l-0.6-0.3
			c-0.5-0.3-1-0.5-1.6-0.8c-0.2-0.1-0.4-0.1-0.6-0.1c0,0-0.2,0-0.3,0s-0.5,0-0.5,0h-0.8c-0.8,0-1.7,0-2.5,0c-0.1,0-0.1,0-0.2,0.1
			c0,0-0.1,0.1-0.2,0.1l-0.9,0.3c-0.7,0.2-1.3,0.5-1.9,0.7c-0.1,0.1-0.3,0.2-0.4,0.3c-0.1,0.1-0.1,0.1-0.2,0.2l-0.9,0.5
			c-0.2,0.4-0.5,0.4-0.7,0.4c-0.1,0-0.2,0-0.3,0s-0.2,0-0.3,0c-0.2,0-0.3,0-0.4,0.1l0.6,1.3l-0.1,0.1l-1-1.4l-0.7,0.3l-0.7,0.2h0.1
			l0.1,0.5h-0.1l-0.4-0.6c0,0.1-0.1,0.1-0.2,0.1c-0.2,0.1-0.3,0.2-0.5,0.2c-0.4,0.1-0.6,0.1-0.6,0.2s0.1,0.3,0.3,0.7l-0.1,0.1
			c-0.3-0.2-0.5-0.3-0.7-0.3c-0.3,0-0.5,0.1-0.6,0.4l0.4,0.5l0.1,0.1l0,0c0.1,0.1,0.2,0.3,0.3,0.4c0.2,0.3,0.4,0.7,0.5,1
			c0.2,1,0.8,1.4,1.6,1.8c0.2,0.1,0.4,0.2,0.6,0.3l-0.6-2.3h0.1l0.8,2.2v0.1c0,0.1,0.1,0.3,0.1,0.3c0.7,0.4,1.3,0.8,2,1.1l0.6,0.4
			v-0.1l-1.4-3h0.1l1.5,3l0.1,0.1c0.1,0.1,0.1,0.3,0.2,0.3c0.7,0.4,1.5,0.8,2.3,1.2l0.7,0.4l-0.5-1.3h0.1l0.2,0.3
			c0.2,0.3,0.3,0.5,0.5,0.8l0.1,0.1c0.1,0.1,0.2,0.3,0.3,0.4c0.7,0.4,1.4,0.7,2.2,1.1l0.8,0.4v-0.2c0-0.2-0.1-0.4-0.1-0.6
			c-0.1-0.4-0.3-0.8-0.4-1.2l-0.2-0.5h0.1c0.1,0.2,0.2,0.4,0.3,0.7c0.2,0.5,0.5,1,0.6,1.6c0.1,0.5,0.5,0.7,0.9,0.8
			c0.2,0.1,0.4,0.2,0.6,0.3c0.3,0.2,0.7,0.3,1,0.5c0,0,0.1,0,0.2,0h0.1l-0.1,0.1l1.4,0.4l-0.1-0.2V463h0.2h0.1l0.3,0.7l0.2-0.6h0.1
			l0.1,0.6l0.7-0.5L-171.9,463.8C-172,463.8-171.9,463.8-171.9,463.8z M-192.1,458c0.1,0,0.3,0,0.4,0c0.3,0,0.7,0,1,0
			c0.9,0,2-0.1,3.1-0.7l-0.7-0.3c-0.5-0.3-1-0.6-1.5-0.9c-0.1-0.1-0.3-0.1-0.5-0.1c-0.1,0-0.1,0-0.2,0c-0.6,0.1-1.2,0.3-1.8,0.4
			l-0.7,0.2l0.4,1.4C-192.4,458-192.3,458-192.1,458z M-193.8,454.1c0.3,0.4,0.5,0.8,0.6,1.3c0.2,0.7,0.3,0.9,0.6,0.9
			c0.2,0,0.4-0.1,0.8-0.1c0.3-0.1,0.6-0.2,0.9-0.2l0.3-0.1l-3.5-2.1C-194,453.8-193.9,453.9-193.8,454.1z M-168.4,453.8
			c-0.2,0.2-0.4,0.3-0.6,0.5c-0.1,0-0.1,0.1-0.2,0.1c-0.1,0.1-0.2,0.1-0.2,0.2c-0.1,0.3-0.2,0.6-0.3,1l-0.1,0.4
			c0.2-0.1,1.3-0.4,1.7-0.8C-167.6,454.8-168.1,453.9-168.4,453.8L-168.4,453.8z M-190.8,454.8l0.6,0.3V455l-0.8-2.1
			c-0.3-0.2-0.6-0.3-0.9-0.3c-0.4,0-0.8,0.2-1.2,0.3c-0.3,0.1-0.5,0.2-0.8,0.3L-190.8,454.8z M-170.3,451.7c-0.4,1-0.1,2,0.7,2.7
			C-169,452.7-169.1,452.2-170.3,451.7z M-169,453.1l-0.1,0.9l0.8-0.5c0-0.4-0.2-0.5-0.5-0.7c-0.1,0-0.2-0.1-0.2-0.1V453.1z"/>
		<path class="st2" d="M-163.8,466.2c-0.8-0.1-1.9-0.3-2.4-0.3c0,0-5.2-1.6-5.2-1.7c0.3,0,0.7,0,1-0.1c1.2-0.1,2.1-0.8,2.8-1.7
			c0.7-1,0.6-2.2,0.6-3.3c0-1,0.4-2-0.3-2.9c-0.1-0.1,0.1-0.3,0-0.4c0-0.4,0-0.8-0.1-1.2c-0.5-1.4-1.4-2.6-2.6-3.5
			c-0.5-0.3-0.8-0.9-1.3-1.2c-0.7-0.5-1.6-0.8-2.3-1.2c0.5,0.4,1,1,1.6,1.2c1,0.4,1.2,1.2,1.2,2c0.1,1,0,2,0.8,2.8
			c0.1,0.1,0.1,0.5,0,0.7c-0.1,0.4-0.3,0.8-0.4,1.3c1-0.5,2-0.9,2.9-1.4c0,0.6,0,1.3-0.3,1.9c0.4-0.3,0.6-0.2,0.5,0.2
			c-0.1,0.7-0.4,1.3-0.6,1.9c0.2-0.1,0.3-0.3,0.5-0.4c0.1,0,0.1,0,0.2,0.1c0,0.7,0.1,1.5-0.2,2.1c-1.1,2.6-3.5,3-3.5,3
			c-0.2,0-0.4,0-0.7,0c-0.2,0-0.3-0.2-0.5-0.3c0-0.1,0.1-0.3,0.2-0.4c-0.2,0.1-0.4,0.3-0.6,0.5v-0.7h-0.1c-0.1,0.2-0.2,0.4-0.3,0.7
			c-0.1-0.3-0.2-0.5-0.3-0.8h-0.1c0,0.2,0,0.4,0.1,0.7c-0.5-0.2-1-0.3-1.4-0.5l0,0c-0.1,0-0.1,0-0.2-0.1c-0.5-0.3-1-0.5-1.6-0.8l0,0
			c-0.4-0.1-0.8-0.3-1-0.9c-0.2-0.8-0.6-1.5-0.9-2.3c0.2,0.5,0.4,1.1,0.5,1.6c0.1,0.3,0.1,0.5,0.2,0.9c-1.1-0.5-2.1-1-3.1-1.5
			c-0.2-0.1-0.3-0.3-0.4-0.5c-0.2-0.4-0.4-0.8-0.7-1.1c0.1,0.4,0.3,0.8,0.5,1.4c-1.2-0.6-2.2-1.1-3.2-1.6c-0.1-0.1-0.2-0.3-0.3-0.5
			c-0.5-1-1-2-1.5-3c0.5,1,0.9,2,1.4,3l-0.1,0.1c-0.9-0.5-1.8-1-2.6-1.5c-0.1-0.1-0.2-0.3-0.2-0.5c-0.3-0.7-0.5-1.5-0.8-2.2
			c0.2,0.8,0.4,1.5,0.6,2.5c-1-0.6-2.2-0.8-2.4-2.2c-0.1-0.5-0.5-0.9-0.8-1.4l0,0c0.3,0.7,0.6,1.5,0.9,2.2l-0.1,0.1
			c-0.2-0.1-0.4-0.2-0.6-0.3c-1-0.5-2.1-1-3.2-1.6c1.1-0.2,2-1.2,3-0.3l0,0l0,0l0,0c-0.1-0.2-0.3-0.4-0.5-0.7
			c0.3-0.5,0.8-0.6,1.5-0.2c-0.5-0.8-0.5-0.8,0.4-1c0.2,0,0.5-0.2,0.7-0.3c0.1,0.2,0.3,0.4,0.4,0.6c0-0.2-0.1-0.4-0.1-0.6
			c0.4-0.2,0.9-0.3,1.4-0.5c0.3,0.4,0.6,0.9,1,1.4c-0.2-0.5-0.4-0.9-0.6-1.4c0.6-0.3,1.3,0.3,1.7-0.5c0.3-0.2,0.6-0.3,0.9-0.5
			c0.2-0.2,0.4-0.4,0.6-0.5c0.9-0.4,1.9-0.7,2.8-1c0.1,0,0.2-0.2,0.4-0.2c1.1,0,2.2,0,3.3-0.1c0.2,0,0.4,0,0.7,0
			c0.2,0,0.5,0,0.7,0.1c0.7,0.4,1.5,0.8,2.2,1.1c-0.7-0.8-1.8-0.9-2.6-1.5c0,0,0,0-0.1,0c-0.8,0.1-1.7-0.4-2.5,0.1
			c-0.1,0-0.2,0-0.3,0c-1.2-0.5-2.1,0.6-3.3,0.7c-0.5,0-1.1,0.4-1.6,0.6c-0.1,0-0.3,0-0.4,0.1c-0.7,0.9-1.7,1-2.7,1
			c-0.2,0-0.4,0.2-0.6,0.2c-0.3,0.1-0.6,0.3-1,0.4c-0.2,0.1-0.5,0.1-0.7,0.2c-0.4,0.2-0.8,0.3-1.3,0.5c-0.2,0.2-0.4,0.4-0.6,0.5
			c-0.1,0.1-0.3,0.1-0.4,0.2c-0.8,0.7-1.7,1.1-2.7,1.2c-0.3,0-0.5,0-0.9,0.1c0.4,0.4,0.7,0.7,0.9,1.1c0.3,0.5,0.6,1,0.8,1.6
			c0.2,0.5,0.3,1.1,0.4,1.6c0.1,0.6,0.2,1.2,0.1,1.8c-0.2,0.8,0,1.5,0.2,2.2c0.3,1,0.8,1.8,1.2,2.8c0,0.1,0.1,0.2,0.1,0.4
			c0,0.3-0.1,0.5,0,0.8c0.2,0.6,0.4,1.2,0.6,1.8c0.1,0.2,0.2,0.3,0.3,0.5c0.2,0.3,0.4,0.5,0.5,0.8c0.3,0.6,1,1,0.9,1.8
			c0,0.1,0.1,0.1,0.2,0.2c0.5,0.4,1.1,0.8,1.6,1.2c0.4,0.3,0.9,0.6,1.3,0.8c0.5,0.2,1.1,0,1.4,0.7c0,0.1,0.3,0.1,0.4,0.1
			c0.3,0.1,0.6,0.2,0.9,0.3c1.1,0.2,2.1,0.4,3.2,0.6c0.1,0,0.3-0.1,0.4-0.1c0.7-0.3,1.5-0.7,2.2-0.7c1.1,0,1.3-0.9,1.9-1.4
			c0.4-0.4,0.8-0.8,1.2-1.2c0.3-0.4,0.7-0.8,0.8-1.3c0.2-0.9,0.2-1.9,0.3-2.8c0.1-0.5,0.3-1,0.6-1.4c0.1-0.1,0.6,0.1,1,0.1
			c0.2,0,1.1,0.4,1.4,0.5c1.5,0.4,3,0.8,4.6,1.3c0.9,0.2,1.8,0.5,2.7,0.7C-162.9,466.8-163.1,466.4-163.8,466.2z M-170.4,451.7
			c1.3,0.5,1.4,1,0.7,2.8C-170.5,453.7-170.8,452.7-170.4,451.7z M-168,455.2c-0.5,0.4-1.8,0.8-1.8,0.7c0.2-0.5,0.3-0.9,0.5-1.4
			c0.1-0.1,0.3-0.2,0.4-0.3c0.2-0.2,0.5-0.4,0.7-0.6l0,0c-0.3,0.2-0.5,0.3-0.9,0.5c0.1-0.6,0.1-1,0.2-1.4c0.4,0.3,0.8,0.3,0.8,0.9
			l0,0l0,0C-168.3,453.6-167.4,454.7-168,455.2z M-180.2,460.9c0.9,0.4,1.8,0.9,2.7,1.3c0,0,0,0.1-0.1,0.1c-0.9-0.4-1.8-0.9-2.7-1.3
			C-180.2,460.9-180.2,460.9-180.2,460.9z M-193.3,455.3c-0.2-0.6-0.6-1.2-1-1.9c1.2,0.8,2.5,1.5,3.8,2.3c-0.5,0.1-0.9,0.2-1.3,0.4
			C-192.9,456.4-192.9,456.3-193.3,455.3z M-193,456.6c0.8-0.2,1.7-0.4,2.5-0.6c0.2,0,0.5,0,0.7,0.1c0.7,0.4,1.4,0.8,2.2,1.3
			c-1.7,1-3.4,0.7-5,0.7C-192.8,457.5-192.9,457.1-193,456.6z M-191.2,464.5c0.1-0.2,0-0.4-0.1-0.5c-0.2-0.4-0.4-0.7-0.6-1.2
			c3.2,1.3,6,0,8.8-1.1c-1.4,0.4-2.9,0.9-4.3,1.2c-1.4,0.3-2.7,0.4-4.1-0.2c-0.8-0.4-1-1.1-1.2-1.9c-0.1-0.3,0.2-0.5,0.6-0.4
			c2.1,0.6,4.2,0,6.2-0.5c0.2,0,0.4-0.2,0.5-0.3c-1.9,0.4-3.7,0.8-5.7,0.7c-0.2,0-0.4,0-0.5-0.1c-1.1-0.2-1.3-0.4-1.1-1.5
			c0-0.2,0-0.3,0-0.5c0.7,0,1.4,0,2.1,0c1,0,2-0.1,2.9-0.6c0.2-0.1,0.4-0.1,0.6,0c0.8,0.4,1.6,0.9,2.4,1.3c-0.2,0.2-0.4,0.4-0.6,0.6
			c0.6-0.4,1.2-0.4,1.8,0s1.2,0.6,1.9,1c-0.2,0.2-0.3,0.4-0.4,0.5c0.5-0.3,0.9-0.3,1.4,0c0.8,0.4,1.6,0.8,2.4,1.2
			c-0.2,0.1-0.3,0.2-0.4,0.2c-2.2,1-4.5,1.9-6.7,2.9c-1.6,0.7-3.2,1.2-5,0.8C-190.8,466.1-191.4,465-191.2,464.5z M-189.9,467.9
			c-0.1-0.3-0.3-0.5-0.5-0.7c-0.1-0.2-0.2-0.4-0.4-0.8c1.8,0.1,3.4,0.2,5-0.5c-1,1-1.9,2.1-3.4,2.3
			C-189.5,468.3-189.7,468.3-189.9,467.9z M-173.6,464.5c-0.3,0.2-0.5,0.3-0.7,0.4l0,0l0,0l0.1,0.1c-0.1,0,0.5-0.2,0.4-0.1
			c0.2-0.1,0.4-0.1,0.7-0.2c-0.3,0.4-0.5,0.7-0.7,0.9l0.1,0.1c0.2-0.2,0.3-0.3,0.6-0.6c-0.1,0.3-0.1,0.4-0.1,0.5
			c-0.1,0.4-0.4,2.9-0.5,3.1c-0.1,0.4-0.2,0.8-0.4,1.1c-0.1-0.5-0.2-0.9-0.3-1.4c-0.1,0-0.1,0-0.2,0c0,0.2,0.1,0.4,0.1,0.6
			c0,0.6,0,1.1-0.5,1.5c-0.5,0.5-0.9,1.1-1.5,1.7l1.9-7.1c0,0-0.2,0.1-0.3,0.1c0,0,0,0.1-0.1,0.2c-0.3,1.1-1.3,5.2-1.6,6
			c-0.1,0.3-0.2,0.8-0.4,1c-0.6,0.4-1.3,0.6-2,0.8c1.3-2.1,2-4.9,2.4-7.2c-0.1,0-0.1,0-0.3,0.1c-0.1,0.5-0.3,1.3-0.5,1.8
			c-0.4,1.2-0.8,2.5-1.2,3.7c-0.1,0.4-0.4,0.8-0.6,1.1c-0.7,0.9-1.6,1-2.4,0.4c-0.1,0,0-0.2,0-0.3l0,0l0,0l0,0
			c-0.9,0.6-1.1,0.5-1.8-0.1c0.1-0.2,0.2-0.5,0.3-0.7l0,0l0,0l0,0c-0.2,0.1-0.3,0.3-0.5,0.4c-0.3,0.3-0.6,0.5-1-0.1
			c-0.1-0.2-0.5-0.3-0.7-0.4c0.2-0.6,0.6-1.5,0.9-2c-0.2,0.3-0.5,1-0.7,1.3c-0.5,0.9-1.4,0.9-1.8,0c0-0.1-0.2-0.2-0.2-0.2
			c-0.8,0-1.2-0.6-1.5-1.1c1.3-0.1,2.7-0.3,4.1-0.4c0,0.2,0,0.5,0,0.7c0.4-1.1,1.4-1.1,2.4-1.4c-0.3,1.1-0.6,2.2-0.9,3.2l0,0
			c0.2-0.5,0.4-1,0.6-1.5c0.1-0.4,0.2-0.7,0.3-1.1c0.1-0.6,0.5-0.9,1-1.1s1-0.5,1.6-0.8c-0.6,1.7-0.9,3.4-1.9,4.8
			c-0.1,0.1-0.1,0.3-0.2,0.5l0,0c0.4-0.7,0.9-1.3,1.2-2c0.4-0.9,0.6-1.9,1-2.8c0.1-0.4,0.5-0.7,0.8-0.9c0.6-0.4,3.7-1.8,4.7-2.3
			c-0.1,0-0.3,0.1-0.4,0.1c0,0,0-0.1-0.1-0.1c-1.2,0.6-4.6,2.2-5.8,2.8c-2.3,1.1-4.6,1.9-7.2,2c-1,0.1-1.7-0.1-2.1-1.2
			c1.8-0.3,3-1.6,4.2-2.8c0.1-0.1,0.3-0.2,0.4-0.3c2.2-1,4.4-1.9,6.6-2.8c0.5-0.2,1.1,0.2,1.5,0.3l0,0c0.1,0,0.1,0,0.2,0.1
			c0.4,0.3,1.1,0.4,1.4,0.8l0,0c0.2,0.1,0.4,0.2,0.6,0.3C-174.1,464.2-173.9,464.3-173.6,464.5z"/>
		<path class="st2" d="M-184.3,449.7L-184.3,449.7c-0.2,0-0.3,0-0.4,0c-0.1,0-0.2,0-0.3,0.1l0,0l0,0l0,0c0.1-0.1,0.3-0.2,0.4-0.3
			c0.2-0.1,0.3-0.3,0.5-0.4l0.4-0.2l0.1,0.1c-0.4,0.5-0.2,0.9,0,1.3c0.1,0.2,0.3,0.4,0.3,0.7v0.2L-184.3,449.7z"/>
		<path class="st2" d="M-183.5,450.8c-0.3-0.4-0.6-0.7-0.8-1.1c-0.3-0.1-0.4-0.2-0.8,0c0.3-0.2,0.6-0.5,0.9-0.7
			c0.1-0.1,0.2-0.1,0.4-0.2C-184.5,449.7-183.5,450.1-183.5,450.8z"/>
		<path class="st2" d="M-174.1,460.2c-1.8-4.2-4-8.9-6.4-12.8l0.1-0.1c0.1,0.1,0.1,0.1,0.1,0.1s0-0.1,0.1-0.1c0,0,0.1,0,0.2,0.1
			s0.3,0.4,0.5,0.7c0.4,0.6,1,1.5,1.1,1.6l0.1-2.2h-0.6l-0.6-0.1v-0.1c0.4,0,0.7-0.1,1.2-0.1c0.5-0.1,1-0.2,1.5-0.2
			c0.7,0,1.3,0.2,1.7,0.6l0.2,0.1h-0.2h-0.1c-0.1,0-0.3,0-0.3,0l-0.1,0.6c-0.2,0.9-0.4,1.7-0.6,2.6c-0.1,0.2-0.1,0.4-0.2,0.5
			c-0.7,0.8-0.4,1.6,0.1,2.5c0.2,0.3,0.3,0.6,0.5,1c0.1,0.1,0.1,0.3,0.2,0.4c0.7-1.5,1.1-2.9,1.4-4.4c0.1-0.4,0.1-0.7,0.1-1.1
			c0-0.2,0-0.4,0-0.6c0.1-0.5,0-0.9-0.4-1.1l-0.1-0.1v-0.1l1.2,0.6c0,0.1-0.1,0.2-0.1,0.2c-0.1,0.1-0.2,0.1-0.2,0.2
			c-0.1,2-0.6,4.1-1.6,6.6c-0.1,0.2-0.1,0.4,0,0.5c0.3,0.8,0.7,1.5,1,2.4l0.3,0.7l0.2-0.4c0.2-0.3,0.3-0.7,0.5-1
			c1-2.2,1.9-4.5,1.7-7.1c0-0.2-0.1-0.3-0.1-0.5l-0.1-0.2l0.7,0.1c0,0.1,0,0.2-0.1,0.2c-0.1,0.1-0.2,0.2-0.2,0.3
			c0.1,1.9-0.3,3.7-1.2,6.1c-0.1,0.3-0.3,0.6-0.4,1c-0.2,0.4-0.4,0.8-0.5,1.2c-0.1,0.3-0.2,0.6-0.3,0.9c0,0.1-0.1,0.6-0.1,0.6
			L-174.1,460.2z M-177.5,447.5c-0.3,0-0.4,0.1-0.5,0.2s-0.1,0.2-0.1,0.4c0.1,0.4,0.1,0.9-0.1,1.3c-0.4,0.9,0,1.5,0.4,2.3
			c0.1,0.2,0.3,0.4,0.4,0.7c0.7-1.2,0.9-2.5,1.1-3.6c0.1-0.5,0.1-0.9,0-1s-0.3-0.2-0.8-0.2C-177.2,447.5-177.3,447.5-177.5,447.5z"
			/>
		<path class="st2" d="M-175.3,447.7c-0.2,0-0.4,0-0.5,0c-0.3,1.1-0.5,2.2-0.8,3.2c0,0.2-0.1,0.3-0.2,0.5c-0.7,0.9-0.4,1.7,0.1,2.6
			c0.3,0.4,0.4,0.9,0.7,1.5c0.7-1.5,1.2-3,1.4-4.5c0.1-0.6,0.1-1.1,0.2-1.7c0.1-0.5,0-1-0.6-1.3c0.4,0.2,0.8,0.4,1.2,0.6
			c-0.1,0.1-0.3,0.2-0.3,0.3c-0.1,2.3-0.7,4.5-1.6,6.6c-0.1,0.2-0.1,0.4,0,0.6c0.4,1,0.9,2,1.4,3.2c0.3-0.6,0.5-1,0.7-1.5
			c1-2.3,1.9-4.6,1.7-7.1c0-0.2-0.1-0.5-0.1-0.7c0.3,0.1,0.6,0.1,0.8,0.2c-0.1,0.2-0.3,0.3-0.3,0.5c0.1,2.1-0.4,4.1-1.2,6.1
			c-0.3,0.7-0.7,1.4-0.9,2.2c-0.2,0.4-0.2,0.9-0.4,1.4c-1.8-4.1-4-8.9-6.4-12.8c0.2,0.3,0.1-0.2,0.3,0.1c0.2,0.3,1.5,2.4,1.6,2.3
			c0.1-0.7,0.1-1.5,0.2-2.2c-0.4,0-1-0.1-1.3-0.1C-178.2,447.4-176.6,446.7-175.3,447.7z M-177.4,452.3c0.8-1.2,1-2.4,1.2-3.6
			s0-1.3-1.3-1.3c-0.5,0-0.7,0.2-0.6,0.7c0,0.4,0.1,0.9-0.1,1.2C-178.8,450.5-177.9,451.3-177.4,452.3z"/>
		<path class="st2" d="M-178.4,459.1c-0.1-0.1-0.2-0.2-0.2-0.3c-0.5-0.9-1.5-2.4-2.4-3.9c-1-1.6-2-3.2-2.6-4.3c-0.1-0.1,0-0.2,0-0.2
			l0.1-0.1c0.2,0.3,0.7,1,1.3,1.8c0.5,0.7,1.1,1.5,1.4,1.9c0-1.8-1.6-4.6-2.1-5.5l0.1-0.1c0.9,1,2.3,3.5,2.3,4.9
			c0,0.9,0.3,1.7,0.7,2.5s0.8,1.6,1.2,2.4c0.2,0.3,0.3,0.7,0.5,1l-0.1,0.1L-178.4,459.1z"/>
		<path class="st2" d="M-178.2,459.2c-0.1-0.2-0.3-0.3-0.4-0.5c-1.1-2-3.9-6.2-5-8.2c-0.1-0.1,0.1-0.1,0-0.3
			c0.4,0.5,2.3,3.2,2.8,3.8c0.1-1.7-1.4-4.4-2.1-5.7c0.9,1,2.3,3.5,2.3,4.9c0,0.9,0.3,1.7,0.8,2.5
			C-179.3,456.9-178.8,458.1-178.2,459.2z"/>
		<path class="st2" d="M-184.4,454.3c-0.1-0.1-0.1-0.1-0.2-0.2c-0.2-0.1-0.3-0.3-0.4-0.4c-0.3-0.5-0.6-1-0.9-1.5l-0.3-0.6l0.1-0.1
			L-184.4,454.3L-184.4,454.3z"/>
		<path class="st2" d="M-184.4,454.2c-0.2-0.2-0.5-0.4-0.6-0.6c-0.4-0.7-0.8-1.4-1.2-2.1C-185.6,452.4-185,453.3-184.4,454.2z"/>
		<polygon class="st2" points="-185.3,472 -185.4,471.6 -184.5,469.5 -184.3,469.9 -185.2,472.1 		"/>
		<polygon class="st2" points="-185.3,471.6 -184.5,469.6 -184.4,470 -185.3,472 		"/>
		<path class="st2" d="M-183.2,473.1c-0.1,0-0.6-0.2-0.7-0.3l-0.1-0.1h0.1c0,0,0.7-0.3,1.1-1.9l0.1-0.2l0.1,0.5
			c-0.3,0.9-0.6,1.8-0.6,1.9L-183.2,473.1L-183.2,473.1z"/>
		<path class="st2" d="M-183.9,472.7c0,0,0.7-0.2,1.2-2l0.1,0.3c0,0-0.7,1.8-0.5,1.9C-183.1,473.1-183.9,472.7-183.9,472.7z"/>
		<path class="st2" d="M-182,473.2c0-0.1,0.5-0.6,1.3-2.2h0.1l-0.1,0.6c-0.4,0.7-0.9,1.5-0.8,1.6l0.1,0.1L-182,473.2z"/>
		<path class="st2" d="M-181.9,473.1c0,0,0.6-0.5,1.3-2.1l-0.1,0.6c0,0-1,1.5-0.8,1.6L-181.9,473.1z"/>
		<path class="st2" d="M-174.6,468.7l-0.5-2.3l0.1-0.4h0.1l0.6,2.8c0.1,0.4,0.2,0.8,0.2,0.8l0.1-0.2v0.2v0.3l-0.5,0.4L-174.6,468.7z
			"/>
		<path class="st2" d="M-174.6,468.6l-0.5-2.3l0.1-0.4l0.6,2.8c0,0,0.2,1,0.3,0.8v0.3l-0.4,0.3L-174.6,468.6z"/>
		<path class="st2" d="M-190.2,455.2c-0.1-0.1-0.3-1.8-1.2-2.5l-0.3-0.5l0.5-0.3l0.1-0.1v0.1c0,0-0.1,0.3,0.1,0.6l0.6,0.9l0.3,0.8
			l0.3,1H-190.2z"/>
		<path class="st2" d="M-190.2,455.1c0,0-0.3-1.8-1.2-2.5l-0.3-0.5l0.5-0.2c0,0-0.1,0.4,0.1,0.7l0.6,0.9l0.3,0.8l0.3,0.9
			L-190.2,455.1z"/>
		<polygon class="st2" points="-175,465.2 -174.9,465.1 -174,464.6 -173.6,464.7 -173.5,464.7 -174.6,465.3 -174.7,465.6 
			-175,465.7 -175.1,465.7 		"/>
		<polygon class="st2" points="-174.9,465.2 -175,465.7 -174.8,465.6 -174.7,465.2 -173.7,464.8 -174,464.7 -174.8,465.1 		"/>
		<path class="st2" d="M-174.9,466.7l1.2-1.5l0,0c0.1,0,0.1,0,0.1,0.1s0,0.2,0,0.2l-1.3,1.6V466.7z"/>
		<path class="st2" d="M-173.7,465.3l-1.2,1.4l0.1,0.2l1.2-1.5C-173.6,465.4-173.5,465.3-173.7,465.3z"/>
		<path class="st2" d="M-173.2,463.7c-0.1-1.3-1.2-4.3-1.2-4.3v-0.1l0.4,0.2c1,2.2,1.2,4.2,1.3,4.3v0.1L-173.2,463.7z"/>
		<path class="st2" d="M-174.3,459.4c0,0,1.1,3,1.2,4.3l0.4,0.1c0,0-0.3-2.1-1.2-4.2L-174.3,459.4z"/>
		<path class="st2" d="M-172.7,463.5c0-0.1,2.1-6.4,2.5-7.6l0.3-0.1c0,0.4-2.3,7.6-2.5,8v0.1L-172.7,463.5z"/>
		<path class="st2" d="M-172.7,463.5c0,0,2.1-6.4,2.5-7.5h0.3c0,0-2.3,7.5-2.6,7.9L-172.7,463.5z"/>
		<path class="st2" d="M-177.6,461.8c-0.1-1.3-2-4.8-2.1-4.9l0.3-0.2c1.5,2.6,2.2,4.9,2.2,4.9L-177.6,461.8L-177.6,461.8
			L-177.6,461.8z"/>
		<path class="st2" d="M-179.7,456.9c0,0,1.9,3.5,2.1,4.9l0.3-0.1c0,0-0.6-2.3-2.1-4.8H-179.7z"/>
		<path class="st2" d="M-172.6,463.8l0.1-0.1c0,0,3.5-2.6,5.1-6.1h0.1v1.2c0,0-1.2,1.8-4.7,5l0,0H-172.6z"/>
		<path class="st2" d="M-172.5,463.8c0,0,3.5-2.5,5.1-6.1v1.2c0,0-1.2,1.8-4.6,5L-172.5,463.8z"/>
		<path class="st2" d="M-181.1,460.1c-0.1-0.1-4.6-7.5-6.1-9.9l0.4-0.1c0.1,0.1,4.3,6.4,6.1,10.1l0.1,0.1L-181.1,460.1z"/>
		<path class="st2" d="M-181.1,460.1c0,0-4.5-7.5-6-9.9h0.4c0,0,4.3,6.3,6,10L-181.1,460.1z"/>
		<path class="st2" d="M-186.2,462.8c-0.2-0.1-0.2-0.2-0.2-0.2l0,0h0.1c0.1,0,3.2-0.9,4.6-1.9l1,0.5v0.1c0,0-0.3-0.1-0.6-0.1
			c-0.2,0-0.4,0.1-0.6,0.2C-181.8,461.2-183.8,462.1-186.2,462.8L-186.2,462.8L-186.2,462.8z"/>
		<path class="st2" d="M-186.2,462.6c0,0,3.1-0.9,4.6-1.9l1,0.5c0,0-0.7-0.3-1.2,0.1c0,0-2,0.9-4.3,1.6
			C-186.1,462.8-186.5,462.6-186.2,462.6z"/>
	</g>
</g>
<g id="soon">
	<path class="st3" d="M-114.4,387.9c0,16.3-13.4,29.3-29.3,29.3c-16.3,0-29.8-13.4-29.8-29.3c0-16.3,13.4-29.8,29.8-29.8
		C-127.4,358.1-114.4,371.5-114.4,387.9L-114.4,387.9z"/>
	<g>
		<path class="st2" d="M-157.9,389.4L-157.9,389.4c0,1.2-0.3,2.1-1,2.7s-1.6,0.9-2.9,0.9s-2.3-0.4-3.1-1.2c-0.8-0.8-1.2-1.8-1.2-3.1
			v-2.1c0-1.3,0.4-2.3,1.1-3c0.7-0.8,1.7-1.2,2.9-1.2c1.3,0,2.3,0.3,3,0.9s1.1,1.5,1,2.6l0,0h-2.3c0-0.6-0.1-1.1-0.4-1.4
			s-0.7-0.4-1.3-0.4c-0.5,0-0.9,0.2-1.2,0.6s-0.4,1-0.4,1.7v2.2c0,0.7,0.2,1.3,0.5,1.7s0.8,0.6,1.4,0.6c0.5,0,0.9-0.1,1.2-0.4
			s0.4-0.7,0.4-1.4h2.3V389.4z"/>
		<path class="st2" d="M-153.5,388.7h-0.7v4.1h-2.4v-10.3h2.4v4h0.5l2.3-4h3l-3.2,4.7l3.5,5.6h-3.1L-153.5,388.7z"/>
		<path class="st2" d="M-139,388.6c0,1.3-0.4,2.3-1.2,3.1c-0.8,0.8-1.9,1.2-3.1,1.2c-1.3,0-2.4-0.4-3.2-1.2
			c-0.8-0.8-1.2-1.9-1.2-3.1v-1.8c0-1.3,0.4-2.3,1.2-3.1c0.8-0.8,1.9-1.2,3.2-1.2s2.3,0.4,3.1,1.2c0.8,0.8,1.2,1.9,1.2,3.1V388.6z
			 M-141.4,386.7c0-0.7-0.2-1.3-0.5-1.8s-0.8-0.7-1.5-0.7c-0.6,0-1.1,0.2-1.5,0.7c-0.3,0.5-0.5,1.1-0.5,1.8v1.9
			c0,0.7,0.2,1.4,0.5,1.8c0.3,0.5,0.8,0.7,1.5,0.7c0.6,0,1.1-0.2,1.5-0.7s0.5-1.1,0.5-1.8V386.7z"/>
		<path class="st2" d="M-135.2,389.3v3.5h-2.4v-10.3h3.9c1.2,0,2.2,0.3,2.9,0.9s1.1,1.4,1.1,2.4s-0.4,1.8-1.1,2.4
			c-0.7,0.6-1.7,0.9-2.9,0.9h-1.5V389.3z M-135.2,387.5h1.5c0.5,0,0.9-0.1,1.2-0.4s0.4-0.7,0.4-1.1c0-0.5-0.1-0.8-0.4-1.1
			c-0.3-0.3-0.7-0.4-1.2-0.4h-1.5V387.5z"/>
		<path class="st2" d="M-119.8,388.6c0,1.3-0.4,2.3-1.2,3.1c-0.8,0.8-1.9,1.2-3.1,1.2c-1.3,0-2.4-0.4-3.2-1.2
			c-0.8-0.8-1.2-1.9-1.2-3.1v-1.8c0-1.3,0.4-2.3,1.2-3.1c0.8-0.8,1.9-1.2,3.2-1.2s2.3,0.4,3.1,1.2c0.8,0.8,1.2,1.9,1.2,3.1V388.6z
			 M-122.2,386.7c0-0.7-0.2-1.3-0.5-1.8s-0.8-0.7-1.5-0.7c-0.6,0-1.1,0.2-1.5,0.7c-0.3,0.5-0.5,1.1-0.5,1.8v1.9
			c0,0.7,0.2,1.4,0.5,1.8s0.8,0.7,1.5,0.7c0.6,0,1.1-0.2,1.5-0.7c0.3-0.5,0.5-1.1,0.5-1.8V386.7z"/>
	</g>
</g>
</svg>
