<?xml version="1.0" encoding="utf-8"?>
<!-- Generator: Adobe Illustrator 19.0.0, SVG Export Plug-In . SVG Version: 6.00 Build 0)  -->
<svg version="1.1" xmlns="http://www.w3.org/2000/svg" xmlns:xlink="http://www.w3.org/1999/xlink" x="0px" y="0px"
	 viewBox="0 0 126 139.5" style="enable-background:new 0 0 126 139.5;" xml:space="preserve">
<style type="text/css">
	.st0{fill-rule:evenodd;clip-rule:evenodd;fill:#FFCA59;}
	.st1{fill:#FFFFFF;}
	.st2{fill-rule:evenodd;clip-rule:evenodd;fill:#FFFFFF;}
	.st3{fill-rule:evenodd;clip-rule:evenodd;fill:#62BC47;}
</style>
<g id="honey">
	<path class="st0" d="M19.5,82c0-6,0-11.9,0-17.9c0-7.1,3.1-12.3,9.2-15.9c9.8-5.7,19.5-11.4,29.2-17.3c7.4-4.6,14.5-4.6,22,0
		c9.7,6,19.6,11.7,29.4,17.4c6,3.5,9.1,8.8,9.1,15.7c0,11.8,0,23.6,0,35.5c0,7.4-3.2,13-9.7,16.6c-9.7,5.4-19.3,11-28.8,16.7
		c-7.2,4.3-13.8,4.9-21.3,0.1c-9.4-6-19.4-11.2-29.1-16.7c-6.8-3.8-10.1-9.3-9.9-17.1C19.7,93.5,19.5,87.8,19.5,82L19.5,82z"/>
	<g>
		<g>
			<path class="st1" d="M98.9,85.6c-1.3,0-2.5,0.5-3,1.3c-0.2,0.3-1,1-1.5,1.3c-0.6,0.5-1.3,1-2,1.5c0.3-1.1,0.7-2.2,1-3.3
				c0.7-2.4,1.4-4.8,2.2-7.2c0.4-1.1-1.3-1.3-2.7-0.9c-0.5-0.6-1.1-1.2-1.9-1.5c-0.1-0.1-0.2-0.1-0.4-0.2c-0.1,0-0.2,0-0.3-0.1
				c-4.3-0.9-7.5,2.7-8.7,6.4c0,0,0,0.1,0,0.1c-0.2,0.5-0.3,1-0.4,1.4c-0.6,1.8-1.8,3.3-3.7,4.4c-1.1,0.7-3,1.4-4.2,0.9
				c-0.7-0.3-1.1-1-1.4-1.8c2.4-2.5,4.7-5.1,6.3-8.1c0.9-1.8,1.1-5-2.2-5.7c-3.1-0.7-5.5,1.5-6.7,3.3c-1.3,2.2-1.7,4.7-1.7,7.2
				c0,1.4,0.1,3,0.5,4.5c-0.5,0.4-1.1,0.6-1.6,0.4c-0.1-0.1-0.3-0.1-0.4-0.1c-0.9-0.7-1.5-2.2-1.8-3c-0.9-2.4-1.3-5-1.6-7.6
				c-0.5-4.2-0.7-8.6-0.1-12.8c0.1-0.7-1-0.8-1.7-0.5c-1.2,0.4-2.4,1.2-2.8,2c-1.6,3-2.3,6.3-2.8,9.9c0,0,0,0.1,0,0.1
				c-0.1-0.3-0.1-0.6-0.2-0.9c-0.5-2.7-1-5.3-1.4-8c-0.2-1.6-0.6-3.8-0.2-5.1c0.5-2.2-3.6,0-4.2,1c-3.4,6-2,12.6-1.2,19.7
				c0.2,1.7,0.2,3.4,0.2,5.2c-0.1,1.2-0.1,3.3-0.9,4.3c-0.6,0.7-1.8,0.2-2.4,0c-0.9-0.4-1.6-1.2-1.8-2.2c-0.3-1-1.4-0.3-2,0.3
				c-0.8,0.8-1.6,2.2-1.3,3.1c0.7,2.2,3.5,4,6,3.1c3.7-1.4,4.8-6.2,5.4-9.8c0.4-2.1,0.4-4.3,0.4-6.5c1,3.9,2,7.9,3,11.8
				c0.5,2,3.5-1.4,3.5-2.6c0-2.8,0.2-5.7,0.6-8.5c0.6,3.7,1.8,10.9,6.7,10.8c0.1,0,0.2,0,0.2,0c1.2-0.1,2.3-1,3.4-2c0,0,0,0,0,0.1
				c2.5,4.5,9.1,0.1,11.9-1.7c0.2,2.4,1.1,4.7,3.4,5.4c0.7,0.2,1.4,0.2,2.1,0c-0.4,0.4-0.8,0.8-1.2,1.2c-1.8,1.9-3.4,3.9-4.6,6.2
				c-0.8,1.5-1.5,3.4-0.8,5c1.4,3.1,4.9,0.8,6.3-0.8c2.2-2.6,3.3-6.1,4.2-9.3c0.3-1.1,0.7-2.2,1-3.3c1.4-1.1,2.9-2.1,4.4-3.1
				c1.8-1.2,3.9-2.3,5.2-4C101.5,86.1,99.6,85.6,98.9,85.6z M71.5,80.7c0.1-0.8,0.4-1.6,0.7-2.4c0.1-0.3,0.3-0.6,0.5-0.9
				c0,0,0,0,0,0c0.1,0,0.2,0.1,0.4,0.1c0.8,0.3,1,1.2,1.1,1.8c0,2.1-1.5,4-2.8,5.7C71.1,83.5,71.2,82.1,71.5,80.7z M85.2,85.1
				c0.1-0.5,0.2-1,0.3-1.5c0.2-0.5,0.4-1,0.5-1.5c0,0,0-0.1,0-0.1c0.2-0.5,0.4-1,0.7-1.4c0.3-0.4,0.5-0.8,0.9-1.2
				c2.6,0.9,1.8,5.8,1.5,7.3c-0.3,1.5-0.8,3.1-1.6,4.5c-0.2,0.3-0.4,0.6-0.5,0.8c0,0.1-0.2,0.2-0.3,0.4c0,0,0,0-0.1,0
				C84.3,91.6,84.9,86.5,85.2,85.1z M84.3,104.7c-0.2,0.4-0.4,0.9-0.7,1.2c0,0,0,0,0,0.1c0,0,0,0-0.1-0.1c-0.1-0.1-0.3-0.2-0.4-0.3
				c-0.1-0.1-0.1-0.1-0.1-0.1c0,0,0,0-0.1-0.1c-0.7-1.1,0.3-2.8,0.8-3.7c0.8-1.3,1.7-2.4,2.7-3.5c-0.1,0.5-0.2,1-0.4,1.4
				C85.6,101.4,85.1,103.1,84.3,104.7z"/>
			<path class="st1" d="M69.7,72c1.1,0.3,2.5-0.6,3.2-1.2c0.9-0.9,1.9-2,2-3.2c0.1-1-1.3-0.9-2.2-0.6c-1.1,0.4-2.5,1.3-2.5,2.3
				c0,0.1,0,0.2,0,0.3c0,0,0,0.1,0,0.1c0,0,0,0,0,0c0,0.1-0.1,0.3-0.2,0.4c-0.1,0.1-0.1,0.2-0.2,0.3c-0.1,0.1-0.1,0.1-0.1,0.1
				C69.2,70.9,68.8,71.8,69.7,72z"/>
			<path class="st1" d="M76.3,71.5c1.5,0.1,2.7-0.7,3.6-1.4c0.8-0.7,1.4-1.5,1.7-2.4c0.3-1-1.6-1-2.5-0.8c-1.3,0.3-2.7,1.1-2.9,2.1
				c0,0.1,0,0.2-0.1,0.2c0,0,0,0,0,0l0,0c0,0.1-0.1,0.2-0.2,0.3c-0.1,0.1-0.2,0.2-0.3,0.3C75.2,70.4,75,71.5,76.3,71.5z"/>
		</g>
	</g>
	<g>
		<path class="st2" d="M65.1,128c-1.1-0.2-2.1-0.4-3.2-0.6c-0.2,0-0.4-0.1-0.6-0.2c-0.1,0-0.2-0.1-0.3-0.1c0,0-0.1,0-0.2,0
			c-0.1,0-0.3-0.1-0.3-0.1c-0.2-0.4-0.5-0.5-0.9-0.5c-0.2,0-0.3,0-0.5-0.1c-0.5-0.2-0.9-0.5-1.3-0.8c-0.5-0.3-0.9-0.6-1.3-0.9
			l-0.4-0.3c-0.1-0.1-0.2-0.1-0.2-0.2c0-0.5-0.3-0.9-0.6-1.2c-0.1-0.2-0.3-0.4-0.4-0.6c-0.1-0.2-0.2-0.4-0.3-0.5l-0.3-0.4
			c-0.1-0.1-0.2-0.3-0.2-0.4c-0.2-0.6-0.5-1.2-0.6-1.8c0-0.2,0-0.3,0-0.5c0-0.1,0-0.2,0-0.3c0-0.1,0-0.2-0.1-0.3
			c-0.1-0.3-0.3-0.6-0.4-0.9c-0.3-0.6-0.6-1.2-0.8-1.9c-0.2-0.6-0.4-1.4-0.2-2.2c0.1-0.4,0-0.9-0.1-1.4l0-0.3
			c-0.1-0.5-0.2-1-0.4-1.6c-0.2-0.5-0.4-1-0.8-1.6c-0.1-0.2-0.3-0.4-0.5-0.7c-0.1-0.1-0.2-0.2-0.3-0.4l-0.1-0.1l0.5,0
			c0.2,0,0.4,0,0.5,0c1.1-0.1,2-0.5,2.7-1.1c0.1-0.1,0.2-0.1,0.2-0.1c0.1,0,0.1,0,0.2-0.1c0.2-0.1,0.4-0.3,0.6-0.5l0.4-0.2
			c0.3-0.1,0.6-0.2,0.9-0.4c0.1,0,0.3-0.1,0.4-0.1c0.1,0,0.2,0,0.3-0.1c0.2-0.1,0.5-0.2,0.7-0.3l0.3-0.1c0.1,0,0.1-0.1,0.2-0.1
			c0.1-0.1,0.3-0.1,0.4-0.1l0.2,0c1-0.1,1.9-0.1,2.5-1c0.1-0.1,0.2-0.1,0.3-0.1c0,0,0.1,0,0.1,0c0.2-0.1,0.3-0.1,0.5-0.2
			c0.4-0.2,0.7-0.3,1.1-0.4c0.4,0,0.8-0.2,1.2-0.4c0.4-0.2,0.9-0.4,1.4-0.4c0.2,0,0.4,0,0.6,0.1c0,0,0.1,0,0.1,0
			c0.3-0.2,0.6-0.2,1-0.2c0.2,0,0.5,0,0.7,0.1c0.2,0,0.5,0.1,0.7,0.1c0.1,0,0.2,0,0.3,0l0.1,0c0.3,0.2,0.7,0.4,1.1,0.5
			c0.6,0.2,1.1,0.4,1.5,0.9c0.2,0.1,0.5,0.2,0.7,0.3c0.5,0.3,1.1,0.5,1.6,0.9c0.3,0.2,0.5,0.4,0.7,0.6c0.2,0.2,0.4,0.4,0.6,0.6
			c1.2,0.8,2,2,2.6,3.5c0.1,0.3,0.1,0.6,0.1,0.9c0,0.1,0,0.2,0,0.3c0,0.1,0,0.1,0,0.2c0,0.1,0,0.1,0,0.2c0.5,0.7,0.4,1.4,0.3,2.1
			c0,0.3-0.1,0.6,0,0.8l0,0.2c0,1,0.1,2.2-0.6,3.1c-0.8,1.1-1.7,1.6-2.8,1.8c-0.2,0-0.5,0-0.7,0.1l-0.1,0c0.7,0.2,3,1,4.9,1.6
			c0.2,0,0.6,0.1,0.9,0.1c0.5,0.1,1,0.1,1.4,0.2c0.4,0.1,0.6,0.2,0.8,0.4c0.1,0.2,0.2,0.5,0,1l-1-0.2l-3-0.8
			c-1.1-0.3-2.2-0.6-3.3-0.9c-0.1,0-0.3-0.1-0.5-0.2c-0.3-0.1-0.7-0.3-0.9-0.3c-0.1,0-0.2,0-0.3-0.1c-0.2,0-0.4-0.1-0.5-0.1
			c-0.4,0.4-0.6,0.9-0.7,1.4c-0.1,0.4-0.1,0.8-0.1,1.3c0,0.5-0.1,1-0.2,1.5c-0.1,0.5-0.4,0.9-0.7,1.3c-0.3,0.3-0.5,0.6-0.7,0.8
			c-0.2,0.2-0.3,0.3-0.5,0.5c-0.1,0.1-0.2,0.3-0.4,0.4c-0.4,0.5-0.7,1-1.6,1c-0.5,0-1,0.2-1.5,0.5c-0.2,0.1-0.5,0.2-0.7,0.3l-0.1,0
			C65.3,127.9,65.2,128,65.1,128L65.1,128z M63.6,127c0,0,0,0.1,0,0.1c0.4,0.3,0.7,0.4,1.1,0.4c0.5,0,0.9-0.3,1.3-0.7
			c0.3-0.4,0.5-0.7,0.6-1.1c0.4-1.3,0.8-2.6,1.2-3.7c0.1-0.4,0.3-1.1,0.4-1.6l0-0.1c-0.8,0.4-1.4,0.7-1.7,0.9
			c-0.3,0.2-0.6,0.6-0.8,0.9c-0.2,0.4-0.3,0.9-0.4,1.3c-0.2,0.5-0.3,1-0.5,1.5c-0.2,0.5-0.5,1-0.8,1.4c-0.1,0.2-0.2,0.4-0.4,0.5
			C63.6,127,63.6,127,63.6,127z M62.1,126.1l-0.3,0.6c0.3,0.4,0.5,0.5,0.8,0.5c0.2,0,0.5-0.1,0.9-0.4l0-0.1c0-0.1,0.1-0.2,0.2-0.3
			c0.7-1.1,1.1-2.3,1.5-3.6c0.1-0.4,0.2-0.7,0.3-1.1c-0.2,0.1-0.3,0.1-0.4,0.2c-0.4,0.2-0.7,0.4-1.1,0.5c-0.5,0.2-0.8,0.5-1,1.1
			l-0.1,0.3c-0.1,0.3-0.1,0.5-0.2,0.8c-0.1,0.4-0.3,0.7-0.4,1.1L62.1,126.1L62.1,126.1z M68.6,120.2c-0.4,2.2-1.1,4.9-2.4,7.1
			c0.6-0.2,1.3-0.4,1.9-0.7c0.2-0.1,0.2-0.4,0.3-0.6c0-0.1,0.1-0.2,0.1-0.3c0.2-0.5,0.6-2.2,1-3.8c0.2-1,0.5-1.8,0.6-2.2
			c0-0.1,0-0.1,0-0.1C70.1,119.5,68.8,120,68.6,120.2L68.6,120.2z M59.9,126c0,0,0.1,0,0.1,0c0.2,0.1,0.5,0.2,0.6,0.3
			c0.1,0.2,0.3,0.3,0.4,0.3c0.1,0,0.3-0.1,0.5-0.3l0.5-0.4l0.9-3.2c-0.1,0.1-0.3,0.2-0.5,0.2c-0.7,0.2-1.3,0.3-1.6,0.9L59.9,126
			C59.9,126,59.9,126,59.9,126z M68.6,126.1c0.2-0.2,0.4-0.5,0.6-0.7c0.2-0.3,0.5-0.6,0.8-0.8c0.5-0.4,0.6-0.9,0.5-1.5
			c0-0.1,0-0.3,0-0.4l0-0.2l0.2-0.1l0.3,1.3c0.1-0.2,0.1-0.4,0.2-0.6c0-0.1,0.1-0.2,0.1-0.3c0-0.1,0.1-0.8,0.2-1.4
			c0.1-0.8,0.2-1.6,0.3-1.8l0.1-0.3l-0.4,0.5l-0.2-0.1l0,0l0-0.1l0.6-0.8l-0.5,0.2l-0.1-0.1l0,0v0l0,0c-0.2,0.1-0.4,0.2-0.7,0.4
			L68.6,126.1z M58.4,123.9l-2,0.2c0.4,0.5,0.8,1,1.5,1c0.1,0,0.2,0.1,0.3,0.2c0.2,0.4,0.4,0.6,0.8,0.6c0.3,0,0.7-0.2,0.9-0.6
			c0.1-0.2,0.3-0.5,0.4-0.7l0.2-0.3l0-0.6L58.4,123.9z M67.2,116.7c-0.1,0-0.2,0-0.3,0c-1.7,0.7-3.4,1.4-5.1,2.1l-1.5,0.7
			c-0.1,0.1-0.3,0.2-0.4,0.3l-0.5,0.5c-1.1,1-2.2,2.1-3.8,2.4c0.4,0.7,0.9,1.1,1.8,1.1c0.1,0,0.2,0,0.3,0c2.4-0.1,4.7-0.8,7.1-2
			c0.6-0.3,2-1,3.3-1.6c1-0.5,2-0.9,2.5-1.2l0.1,0l0,0l0.3-0.2l0.3-0.1l-1.2-0.6c-0.2-0.2-0.5-0.3-0.8-0.4c-0.2-0.1-0.5-0.2-0.7-0.4
			c0,0-0.1-0.1-0.2-0.1c-0.1,0-0.3-0.1-0.4-0.2C67.8,116.8,67.5,116.7,67.2,116.7z M54.6,120.7c0.1,0.2,0.2,0.3,0.2,0.5
			c0.1,0.1,0.1,0.2,0.2,0.3c0.1,0.1,0.2,0.3,0.3,0.4c0.1,0.3,0.2,0.3,0.4,0.3c0.1,0,0.1,0,0.2,0c1.4-0.3,2.3-1.2,3.2-2.1
			c-1.1,0.4-2.2,0.5-3,0.5c-0.5,0-1.1,0-1.6-0.1L54.6,120.7z M53.5,117.1c0.1,0.3,0.3,0.5,0.4,0.8c0,0.1,0.1,0.4,0.1,0.6
			c-0.1,0.2,0,0.6,0.3,1c0.2,0.3,0.5,0.6,0.7,0.6c0.4,0.1,0.8,0.1,1.2,0.1c1.4,0,2.7-0.5,3.7-0.9c1.7-0.7,3.5-1.5,5.2-2.3l1.5-0.6
			c0.1,0,0.1-0.1,0.2-0.1l0.2-0.1c-0.3,0-0.5-0.2-0.8-0.3c-0.6-0.3-1.1-0.5-1.7-0.8c-0.2-0.1-0.5-0.2-0.7-0.2
			c-0.2,0-0.5,0.1-0.7,0.2l-0.1-0.1l0.4-0.5c-0.2,0-0.4-0.1-0.6-0.2c-0.4-0.2-0.9-0.4-1.3-0.7c-0.3-0.2-0.6-0.3-0.9-0.3
			c-0.3,0-0.6,0.1-0.9,0.3l-0.1-0.1l0.6-0.6l-0.6-0.3c-0.6-0.3-1.2-0.7-1.7-1c-0.1,0-0.2-0.1-0.3-0.1c-0.1,0-0.2,0-0.2,0
			c-0.8,0.4-1.7,0.6-2.7,0.6l-0.2,0c-0.3,0-0.5,0-0.8,0l-1.3,0l0,0.1c0,0.1,0,0.2,0,0.3c-0.2,1.1,0,1.2,1.1,1.5c0.2,0,0.3,0,0.5,0.1
			c0.2,0,0.4,0,0.6,0c1.7,0,3.4-0.4,5.1-0.8l0.1,0.1c-0.1,0-0.1,0.1-0.2,0.1c-0.1,0.1-0.2,0.2-0.4,0.2l-0.6,0.1
			c-1.2,0.3-2.4,0.6-3.7,0.6c-0.7,0-1.3-0.1-1.9-0.3c-0.1,0-0.2,0-0.2,0c-0.1,0-0.2,0-0.3,0.1c0,0.1-0.1,0.2,0,0.3l0.1,0.2
			c0.2,0.6,0.4,1.3,1.1,1.6c0.7,0.3,1.4,0.5,2.2,0.5c0.6,0,1.2-0.1,1.8-0.2c1-0.2,2-0.5,3-0.8c0.4-0.1,0.9-0.3,1.3-0.4l0,0.1
			l-0.7,0.3c-1.7,0.7-3.5,1.4-5.4,1.4c-0.9,0-1.8-0.2-2.6-0.5L53.5,117.1z M73.2,117.8c0,0,0.1,0,0.1,0c0.1,0.1,0.2,0.1,0.3,0.2
			c0.1,0,0.2,0,0.2,0l0.4,0c1.6-0.4,2.8-1.5,3.4-3c0.2-0.4,0.2-0.9,0.2-1.4c0-0.2,0-0.4,0-0.6l-0.1,0l-0.2,0.2l-0.4,0.3
			c0,0,0.2-0.6,0.3-0.8c0.2-0.4,0.3-0.9,0.4-1.3c0-0.1,0-0.2,0-0.3c0,0-0.1,0-0.1,0c-0.1,0-0.2,0-0.3,0.1l-0.1-0.1
			c0.3-0.6,0.3-1.3,0.3-1.9l-0.4,0.3l-2.6,1.2l0.2-0.6c0.1-0.3,0.2-0.6,0.3-0.8c0.1-0.2,0.1-0.5,0-0.6c-0.7-0.7-0.7-1.5-0.8-2.4
			l0-0.4c-0.1-0.8-0.2-1.6-1.2-1.9c-0.4-0.1-0.8-0.5-1.1-0.8c-0.1-0.1-0.3-0.3-0.4-0.4l-0.6-0.3c-0.5-0.3-1-0.5-1.6-0.8
			c-0.2-0.1-0.4-0.1-0.6-0.1c0,0-0.2,0-0.3,0c-0.1,0-0.5,0-0.5,0l-0.8,0c-0.8,0-1.7,0-2.5,0c-0.1,0-0.1,0-0.2,0.1
			c0,0-0.1,0.1-0.2,0.1l-0.9,0.3c-0.7,0.2-1.3,0.5-1.9,0.7c-0.1,0.1-0.3,0.2-0.4,0.3c-0.1,0.1-0.1,0.1-0.2,0.2l-0.9,0.5
			c-0.2,0.4-0.5,0.4-0.7,0.4c-0.1,0-0.2,0-0.3,0c-0.1,0-0.2,0-0.3,0c-0.2,0-0.3,0-0.4,0.1l0.6,1.3l-0.1,0.1l-1-1.4l-0.7,0.3
			l-0.7,0.2l0.1,0l0.1,0.5l-0.1,0l-0.4-0.6c0,0.1-0.1,0.1-0.2,0.1c-0.2,0.1-0.3,0.2-0.5,0.2c-0.4,0.1-0.6,0.1-0.6,0.2
			c0,0.1,0.1,0.3,0.3,0.7l-0.1,0.1c-0.3-0.2-0.5-0.3-0.7-0.3c-0.3,0-0.5,0.1-0.6,0.4l0.4,0.5l0.1,0.1l0,0c0.1,0.1,0.2,0.3,0.3,0.4
			c0.2,0.3,0.4,0.7,0.5,1c0.2,1,0.8,1.4,1.6,1.8c0.2,0.1,0.4,0.2,0.6,0.3l-0.6-2.3l0.1,0l0.8,2.2c0,0,0,0.1,0,0.1
			c0,0.1,0.1,0.3,0.1,0.3c0.7,0.4,1.3,0.8,2,1.1l0.6,0.4l0-0.1l-1.4-3l0.1,0l1.5,3l0.1,0.1c0.1,0.1,0.1,0.3,0.2,0.3
			c0.7,0.4,1.5,0.8,2.3,1.2l0.7,0.4l-0.5-1.3l0.1,0l0.2,0.3c0.2,0.3,0.3,0.5,0.5,0.8l0.1,0.1c0.1,0.1,0.2,0.3,0.3,0.4
			c0.7,0.4,1.4,0.7,2.2,1.1l0.8,0.4l0-0.2c0-0.2-0.1-0.4-0.1-0.6c-0.1-0.4-0.3-0.8-0.4-1.2l-0.2-0.5l0.1,0c0.1,0.2,0.2,0.4,0.3,0.7
			c0.2,0.5,0.5,1,0.6,1.6c0.1,0.5,0.5,0.7,0.9,0.8c0.2,0.1,0.4,0.2,0.6,0.3c0.3,0.2,0.7,0.3,1,0.5c0,0,0.1,0,0.2,0l0.1,0l-0.1,0.1
			l1.4,0.4l-0.1-0.2l0-0.4l0.2,0l0.1,0l0.3,0.7l0.2-0.6l0.1,0l0.1,0.6l0.7-0.5L73.2,117.8C73.1,117.8,73.2,117.8,73.2,117.8z
			 M53,112c0.1,0,0.3,0,0.4,0c0.3,0,0.7,0,1,0c0.9,0,2-0.1,3.1-0.7l-0.7-0.3c-0.5-0.3-1-0.6-1.5-0.9c-0.1-0.1-0.3-0.1-0.5-0.1
			c-0.1,0-0.1,0-0.2,0c-0.6,0.1-1.2,0.3-1.8,0.4l-0.7,0.2l0.4,1.4C52.7,112,52.8,112,53,112z M51.3,108.1c0.3,0.4,0.5,0.8,0.6,1.3
			c0.2,0.7,0.3,0.9,0.6,0.9c0.2,0,0.4-0.1,0.8-0.1c0.3-0.1,0.6-0.2,0.9-0.2l0.3-0.1l-3.5-2.1C51.1,107.8,51.2,107.9,51.3,108.1z
			 M76.7,107.8c-0.2,0.2-0.4,0.3-0.6,0.5c-0.1,0-0.1,0.1-0.2,0.1c-0.1,0.1-0.2,0.1-0.2,0.2c-0.1,0.3-0.2,0.6-0.3,1l-0.1,0.4
			c0.2-0.1,1.3-0.4,1.7-0.8C77.5,108.8,77,107.9,76.7,107.8L76.7,107.8z M54.3,108.8l0.6,0.3l0-0.1l-0.8-2.1
			c-0.3-0.2-0.6-0.3-0.9-0.3c-0.4,0-0.8,0.2-1.2,0.3c-0.3,0.1-0.5,0.2-0.8,0.3L54.3,108.8z M74.8,105.7c-0.4,1-0.1,2,0.7,2.7
			C76.1,106.7,76,106.2,74.8,105.7z M76.1,107.1l-0.1,0.9l0.8-0.5c0-0.4-0.2-0.5-0.5-0.7c-0.1,0-0.2-0.1-0.2-0.1L76.1,107.1z"/>
		<path class="st2" d="M81.3,120.2c-0.8-0.1-1.9-0.3-2.4-0.3c0,0-5.2-1.6-5.2-1.7c0.3,0,0.7,0,1-0.1c1.2-0.1,2.1-0.8,2.8-1.7
			c0.7-1,0.6-2.2,0.6-3.3c0-1,0.4-2-0.3-2.9c-0.1-0.1,0.1-0.3,0-0.4c0-0.4,0-0.8-0.1-1.2c-0.5-1.4-1.4-2.6-2.6-3.5
			c-0.5-0.3-0.8-0.9-1.3-1.2c-0.7-0.5-1.6-0.8-2.3-1.2c0.5,0.4,1,1,1.6,1.2c1,0.4,1.2,1.2,1.2,2c0.1,1,0,2,0.8,2.8
			c0.1,0.1,0.1,0.5,0,0.7c-0.1,0.4-0.3,0.8-0.4,1.3c1-0.5,2-0.9,2.9-1.4c0,0.6,0,1.3-0.3,1.9c0.4-0.3,0.6-0.2,0.5,0.2
			c-0.1,0.7-0.4,1.3-0.6,1.9c0.2-0.1,0.3-0.3,0.5-0.4c0.1,0,0.1,0,0.2,0.1c0,0.7,0.1,1.5-0.2,2.1c-1.1,2.6-3.5,3-3.5,3
			c-0.2,0-0.4,0-0.7,0c-0.2,0-0.3-0.2-0.5-0.3c0-0.1,0.1-0.3,0.2-0.4c-0.2,0.1-0.4,0.3-0.6,0.5v-0.7c0,0-0.1,0-0.1,0
			c-0.1,0.2-0.2,0.4-0.3,0.7c-0.1-0.3-0.2-0.5-0.3-0.8c0,0-0.1,0-0.1,0c0,0.2,0,0.4,0.1,0.7c-0.5-0.2-1-0.3-1.4-0.5c0,0,0,0,0,0
			c-0.1,0-0.1,0-0.2-0.1c-0.5-0.3-1-0.5-1.6-0.8c0,0,0,0,0,0c-0.4-0.1-0.8-0.3-1-0.9c-0.2-0.8-0.6-1.5-0.9-2.3
			c0.2,0.5,0.4,1.1,0.5,1.6c0.1,0.3,0.1,0.5,0.2,0.9c-1.1-0.5-2.1-1-3.1-1.5c-0.2-0.1-0.3-0.3-0.4-0.5c-0.2-0.4-0.4-0.8-0.7-1.1
			c0.1,0.4,0.3,0.8,0.5,1.4c-1.2-0.6-2.2-1.1-3.2-1.6c-0.1-0.1-0.2-0.3-0.3-0.5c-0.5-1-1-2-1.5-3c0.5,1,0.9,2,1.4,3
			c0,0-0.1,0.1-0.1,0.1c-0.9-0.5-1.8-1-2.6-1.5c-0.1-0.1-0.2-0.3-0.2-0.5c-0.3-0.7-0.5-1.5-0.8-2.2c0.2,0.8,0.4,1.5,0.6,2.5
			c-1-0.6-2.2-0.8-2.4-2.2c-0.1-0.5-0.5-0.9-0.8-1.4c0,0,0,0,0,0c0.3,0.7,0.6,1.5,0.9,2.2c0,0-0.1,0.1-0.1,0.1
			c-0.2-0.1-0.4-0.2-0.6-0.3c-1-0.5-2.1-1-3.2-1.6c1.1-0.2,2-1.2,3-0.3c0,0,0,0,0,0c0,0,0,0,0,0c0,0,0,0,0,0
			c-0.1-0.2-0.3-0.4-0.5-0.7c0.3-0.5,0.8-0.6,1.5-0.2c-0.5-0.8-0.5-0.8,0.4-1c0.2,0,0.5-0.2,0.7-0.3c0.1,0.2,0.3,0.4,0.4,0.6
			c0-0.2-0.1-0.4-0.1-0.6c0.4-0.2,0.9-0.3,1.4-0.5c0.3,0.4,0.6,0.9,1,1.4c-0.2-0.5-0.4-0.9-0.6-1.4c0.6-0.3,1.3,0.3,1.7-0.5
			c0.3-0.2,0.6-0.3,0.9-0.5c0.2-0.2,0.4-0.4,0.6-0.5c0.9-0.4,1.9-0.7,2.8-1c0.1,0,0.2-0.2,0.4-0.2c1.1,0,2.2,0,3.3-0.1
			c0.2,0,0.4,0,0.7,0c0.2,0,0.5,0,0.7,0.1c0.7,0.4,1.5,0.8,2.2,1.1c-0.7-0.8-1.8-0.9-2.6-1.5c0,0,0,0-0.1,0
			c-0.8,0.1-1.7-0.4-2.5,0.1c-0.1,0-0.2,0-0.3,0c-1.2-0.5-2.1,0.6-3.3,0.7c-0.5,0-1.1,0.4-1.6,0.6c-0.1,0-0.3,0-0.4,0.1
			c-0.7,0.9-1.7,1-2.7,1c-0.2,0-0.4,0.2-0.6,0.2c-0.3,0.1-0.6,0.3-1,0.4c-0.2,0.1-0.5,0.1-0.7,0.2c-0.4,0.2-0.8,0.3-1.3,0.5
			c-0.2,0.2-0.4,0.4-0.6,0.5c-0.1,0.1-0.3,0.1-0.4,0.2c-0.8,0.7-1.7,1.1-2.7,1.2c-0.3,0-0.5,0-0.9,0.1c0.4,0.4,0.7,0.7,0.9,1.1
			c0.3,0.5,0.6,1,0.8,1.6c0.2,0.5,0.3,1.1,0.4,1.6c0.1,0.6,0.2,1.2,0.1,1.8c-0.2,0.8,0,1.5,0.2,2.2c0.3,1,0.8,1.8,1.2,2.8
			c0,0.1,0.1,0.2,0.1,0.4c0,0.3-0.1,0.5,0,0.8c0.2,0.6,0.4,1.2,0.6,1.8c0.1,0.2,0.2,0.3,0.3,0.5c0.2,0.3,0.4,0.5,0.5,0.8
			c0.3,0.6,1,1,0.9,1.8c0,0.1,0.1,0.1,0.2,0.2c0.5,0.4,1.1,0.8,1.6,1.2c0.4,0.3,0.9,0.6,1.3,0.8c0.5,0.2,1.1,0,1.4,0.7
			c0,0.1,0.3,0.1,0.4,0.1c0.3,0.1,0.6,0.2,0.9,0.3c1.1,0.2,2.1,0.4,3.2,0.6c0.1,0,0.3-0.1,0.4-0.1c0.7-0.3,1.5-0.7,2.2-0.7
			c1.1,0,1.3-0.9,1.9-1.4c0.4-0.4,0.8-0.8,1.2-1.2c0.3-0.4,0.7-0.8,0.8-1.3c0.2-0.9,0.2-1.9,0.3-2.8c0.1-0.5,0.3-1,0.6-1.4
			c0.1-0.1,0.6,0.1,1,0.1c0.2,0,1.1,0.4,1.4,0.5c1.5,0.4,3,0.8,4.6,1.3c0.9,0.2,1.8,0.5,2.7,0.7C82.2,120.8,82,120.4,81.3,120.2z
			 M74.7,105.7c1.3,0.5,1.4,1,0.7,2.8C74.6,107.7,74.3,106.7,74.7,105.7z M77.1,109.2c-0.5,0.4-1.8,0.8-1.8,0.7
			c0.2-0.5,0.3-0.9,0.5-1.4c0.1-0.1,0.3-0.2,0.4-0.3c0.2-0.2,0.5-0.4,0.7-0.6c0,0,0,0,0,0c-0.3,0.2-0.5,0.3-0.9,0.5
			c0.1-0.6,0.1-1,0.2-1.4c0.4,0.3,0.8,0.3,0.8,0.9c0,0,0,0,0,0c0,0,0,0,0,0C76.8,107.6,77.7,108.7,77.1,109.2z M64.9,114.9
			c0.9,0.4,1.8,0.9,2.7,1.3c0,0,0,0.1-0.1,0.1c-0.9-0.4-1.8-0.9-2.7-1.3C64.9,114.9,64.9,114.9,64.9,114.9z M51.8,109.3
			c-0.2-0.6-0.6-1.2-1-1.9c1.2,0.8,2.5,1.5,3.8,2.3c-0.5,0.1-0.9,0.2-1.3,0.4C52.2,110.4,52.2,110.3,51.8,109.3z M52.1,110.6
			c0.8-0.2,1.7-0.4,2.5-0.6c0.2,0,0.5,0,0.7,0.1c0.7,0.4,1.4,0.8,2.2,1.3c-1.7,1-3.4,0.7-5,0.7C52.3,111.5,52.2,111.1,52.1,110.6z
			 M53.9,118.5c0.1-0.2,0-0.4-0.1-0.5c-0.2-0.4-0.4-0.7-0.6-1.2c3.2,1.3,6,0,8.8-1.1c-1.4,0.4-2.9,0.9-4.3,1.2
			c-1.4,0.3-2.7,0.4-4.1-0.2c-0.8-0.4-1-1.1-1.2-1.9c-0.1-0.3,0.2-0.5,0.6-0.4c2.1,0.6,4.2,0,6.2-0.5c0.2,0,0.4-0.2,0.5-0.3
			c-1.9,0.4-3.7,0.8-5.7,0.7c-0.2,0-0.4,0-0.5-0.1c-1.1-0.2-1.3-0.4-1.1-1.5c0-0.2,0-0.3,0-0.5c0.7,0,1.4,0,2.1,0c1,0,2-0.1,2.9-0.6
			c0.2-0.1,0.4-0.1,0.6,0c0.8,0.4,1.6,0.9,2.4,1.3c-0.2,0.2-0.4,0.4-0.6,0.6c0.6-0.4,1.2-0.4,1.8,0c0.6,0.4,1.2,0.6,1.9,1
			c-0.2,0.2-0.3,0.4-0.4,0.5c0.5-0.3,0.9-0.3,1.4,0c0.8,0.4,1.6,0.8,2.4,1.2c-0.2,0.1-0.3,0.2-0.4,0.2c-2.2,1-4.5,1.9-6.7,2.9
			c-1.6,0.7-3.2,1.2-5,0.8C54.3,120.1,53.7,119,53.9,118.5z M55.2,121.9c-0.1-0.3-0.3-0.5-0.5-0.7c-0.1-0.2-0.2-0.4-0.4-0.8
			c1.8,0.1,3.4,0.2,5-0.5c-1,1-1.9,2.1-3.4,2.3C55.6,122.3,55.4,122.3,55.2,121.9z M71.5,118.5c-0.3,0.2-0.5,0.3-0.7,0.4
			c0,0,0,0,0,0c0,0,0,0,0,0l0.1,0.1c-0.1,0,0.5-0.2,0.4-0.1c0.2-0.1,0.4-0.1,0.7-0.2c-0.3,0.4-0.5,0.7-0.7,0.9c0,0,0.1,0.1,0.1,0.1
			c0.2-0.2,0.3-0.3,0.6-0.6c-0.1,0.3-0.1,0.4-0.1,0.5c-0.1,0.4-0.4,2.9-0.5,3.1c-0.1,0.4-0.2,0.8-0.4,1.1c-0.1-0.5-0.2-0.9-0.3-1.4
			c-0.1,0-0.1,0-0.2,0c0,0.2,0.1,0.4,0.1,0.6c0,0.6,0,1.1-0.5,1.5c-0.5,0.5-0.9,1.1-1.5,1.7l1.9-7.1c0,0-0.2,0.1-0.3,0.1
			c0,0,0,0.1-0.1,0.2c-0.3,1.1-1.3,5.2-1.6,6c-0.1,0.3-0.2,0.8-0.4,1c-0.6,0.4-1.3,0.6-2,0.8c1.3-2.1,2-4.9,2.4-7.2
			c-0.1,0-0.1,0-0.3,0.1c-0.1,0.5-0.3,1.3-0.5,1.8c-0.4,1.2-0.8,2.5-1.2,3.7c-0.1,0.4-0.4,0.8-0.6,1.1c-0.7,0.9-1.6,1-2.4,0.4
			c-0.1,0,0-0.2,0-0.3c0,0,0,0,0,0c0,0,0,0,0,0c0,0,0,0,0,0c-0.9,0.6-1.1,0.5-1.8-0.1c0.1-0.2,0.2-0.5,0.3-0.7c0,0,0,0,0,0
			c0,0,0,0,0,0c0,0,0,0,0,0c-0.2,0.1-0.3,0.3-0.5,0.4c-0.3,0.3-0.6,0.5-1-0.1c-0.1-0.2-0.5-0.3-0.7-0.4c0.2-0.6,0.6-1.5,0.9-2
			c-0.2,0.3-0.5,1-0.7,1.3c-0.5,0.9-1.4,0.9-1.8,0c0-0.1-0.2-0.2-0.2-0.2c-0.8,0-1.2-0.6-1.5-1.1c1.3-0.1,2.7-0.3,4.1-0.4
			c0,0.2,0,0.5,0,0.7c0.4-1.1,1.4-1.1,2.4-1.4c-0.3,1.1-0.6,2.2-0.9,3.2l0,0c0.2-0.5,0.4-1,0.6-1.5c0.1-0.4,0.2-0.7,0.3-1.1
			c0.1-0.6,0.5-0.9,1-1.1c0.5-0.2,1-0.5,1.6-0.8c-0.6,1.7-0.9,3.4-1.9,4.8c-0.1,0.1-0.1,0.3-0.2,0.5c0,0,0,0,0,0
			c0.4-0.7,0.9-1.3,1.2-2c0.4-0.9,0.6-1.9,1-2.8c0.1-0.4,0.5-0.7,0.8-0.9c0.6-0.4,3.7-1.8,4.7-2.3c-0.1,0-0.3,0.1-0.4,0.1
			c0,0,0-0.1-0.1-0.1c-1.2,0.6-4.6,2.2-5.8,2.8c-2.3,1.1-4.6,1.9-7.2,2c-1,0.1-1.7-0.1-2.1-1.2c1.8-0.3,3-1.6,4.2-2.8
			c0.1-0.1,0.3-0.2,0.4-0.3c2.2-1,4.4-1.9,6.6-2.8c0.5-0.2,1.1,0.2,1.5,0.3v0c0.1,0,0.1,0,0.2,0.1c0.4,0.3,1.1,0.4,1.4,0.8
			c0,0,0,0,0,0c0.2,0.1,0.4,0.2,0.6,0.3C71,118.2,71.2,118.3,71.5,118.5z"/>
		<path class="st2" d="M60.8,103.7l-0.1,0c-0.1,0-0.2,0-0.3,0c-0.1,0-0.2,0-0.3,0.1l0,0l0,0l0,0c0.1-0.1,0.3-0.2,0.4-0.3
			c0.2-0.1,0.3-0.3,0.5-0.4l0.4-0.2l0.1,0.1c-0.4,0.5-0.2,0.9,0,1.3c0.1,0.2,0.3,0.4,0.3,0.7l0,0.2L60.8,103.7z"/>
		<path class="st2" d="M61.6,104.8c-0.3-0.4-0.6-0.7-0.8-1.1c-0.3-0.1-0.4-0.2-0.8,0c0.3-0.2,0.6-0.5,0.9-0.7
			c0.1-0.1,0.2-0.1,0.4-0.2C60.6,103.7,61.6,104.1,61.6,104.8z"/>
		<path class="st2" d="M71,114.2c-1.8-4.2-4-8.9-6.4-12.8l0.1-0.1c0.1,0.1,0.1,0.1,0.1,0.1c0,0,0-0.1,0.1-0.1c0,0,0.1,0,0.2,0.1
			c0.1,0.1,0.3,0.4,0.5,0.7c0.4,0.6,1,1.5,1.1,1.6l0.1-2.2l-0.6,0l-0.6-0.1l0-0.1c0.4,0,0.7-0.1,1.2-0.1c0.5-0.1,1-0.2,1.5-0.2
			c0.7,0,1.3,0.2,1.7,0.6l0.2,0.1l-0.2,0c0,0-0.1,0-0.1,0c-0.1,0-0.3,0-0.3,0l-0.1,0.6c-0.2,0.9-0.4,1.7-0.6,2.6
			c-0.1,0.2-0.1,0.4-0.2,0.5c-0.7,0.8-0.4,1.6,0.1,2.5c0.2,0.3,0.3,0.6,0.5,1c0.1,0.1,0.1,0.3,0.2,0.4c0.7-1.5,1.1-2.9,1.4-4.4
			c0.1-0.4,0.1-0.7,0.1-1.1c0-0.2,0-0.4,0-0.6c0.1-0.5,0-0.9-0.4-1.1l-0.1-0.1l0-0.1c0,0,1.2,0.6,1.2,0.6c0,0.1-0.1,0.2-0.1,0.2
			c-0.1,0.1-0.2,0.1-0.2,0.2c-0.1,2-0.6,4.1-1.6,6.6c-0.1,0.2-0.1,0.4,0,0.5c0.3,0.8,0.7,1.5,1,2.4l0.3,0.7l0.2-0.4
			c0.2-0.3,0.3-0.7,0.5-1c1-2.2,1.9-4.5,1.7-7.1c0-0.2-0.1-0.3-0.1-0.5l-0.1-0.2L74,104c0,0.1,0,0.2-0.1,0.2
			c-0.1,0.1-0.2,0.2-0.2,0.3c0.1,1.9-0.3,3.7-1.2,6.1c-0.1,0.3-0.3,0.6-0.4,1c-0.2,0.4-0.4,0.8-0.5,1.2c-0.1,0.3-0.2,0.6-0.3,0.9
			c0,0.1-0.1,0.6-0.1,0.6L71,114.2z M67.6,101.5c-0.3,0-0.4,0.1-0.5,0.2c-0.1,0.1-0.1,0.2-0.1,0.4c0.1,0.4,0.1,0.9-0.1,1.3
			c-0.4,0.9,0,1.5,0.4,2.3c0.1,0.2,0.3,0.4,0.4,0.7c0.7-1.2,0.9-2.5,1.1-3.6c0.1-0.5,0.1-0.9,0-1c-0.1-0.1-0.3-0.2-0.8-0.2
			C67.9,101.5,67.8,101.5,67.6,101.5z"/>
		<path class="st2" d="M69.8,101.7c-0.2,0-0.4,0-0.5,0c-0.3,1.1-0.5,2.2-0.8,3.2c0,0.2-0.1,0.3-0.2,0.5c-0.7,0.9-0.4,1.7,0.1,2.6
			c0.3,0.4,0.4,0.9,0.7,1.5c0.7-1.5,1.2-3,1.4-4.5c0.1-0.6,0.1-1.1,0.2-1.7c0.1-0.5,0-1-0.6-1.3c0.4,0.2,0.8,0.4,1.2,0.6
			c-0.1,0.1-0.3,0.2-0.3,0.3c-0.1,2.3-0.7,4.5-1.6,6.6c-0.1,0.2-0.1,0.4,0,0.6c0.4,1,0.9,2,1.4,3.2c0.3-0.6,0.5-1,0.7-1.5
			c1-2.3,1.9-4.6,1.7-7.1c0-0.2-0.1-0.5-0.1-0.7c0.3,0.1,0.6,0.1,0.8,0.2c-0.1,0.2-0.3,0.3-0.3,0.5c0.1,2.1-0.4,4.1-1.2,6.1
			c-0.3,0.7-0.7,1.4-0.9,2.2c-0.2,0.4-0.2,0.9-0.4,1.4c-1.8-4.1-4-8.9-6.4-12.8c0.2,0.3,0.1-0.2,0.3,0.1c0.2,0.3,1.5,2.4,1.6,2.3
			c0.1-0.7,0.1-1.5,0.2-2.2c-0.4,0-1-0.1-1.3-0.1C66.9,101.4,68.5,100.7,69.8,101.7z M67.7,106.3c0.8-1.2,1-2.4,1.2-3.6
			c0.2-1.2,0-1.3-1.3-1.3c-0.5,0-0.7,0.2-0.6,0.7c0,0.4,0.1,0.9-0.1,1.2C66.3,104.5,67.2,105.3,67.7,106.3z"/>
		<path class="st2" d="M66.7,113.1c-0.1-0.1-0.2-0.2-0.2-0.3c-0.5-0.9-1.5-2.4-2.4-3.9c-1-1.6-2-3.2-2.6-4.3c-0.1-0.1,0-0.2,0-0.2
			l0.1-0.1c0.2,0.3,0.7,1,1.3,1.8c0.5,0.7,1.1,1.5,1.4,1.9c0-1.8-1.6-4.6-2.1-5.5l0.1-0.1c0.9,1,2.3,3.5,2.3,4.9
			c0,0.9,0.3,1.7,0.7,2.5c0.4,0.8,0.8,1.6,1.2,2.4c0.2,0.3,0.3,0.7,0.5,1l-0.1,0.1L66.7,113.1z"/>
		<path class="st2" d="M66.9,113.2c-0.1-0.2-0.3-0.3-0.4-0.5c-1.1-2-3.9-6.2-5-8.2c-0.1-0.1,0.1-0.1,0-0.3c0.4,0.5,2.3,3.2,2.8,3.8
			c0.1-1.7-1.4-4.4-2.1-5.7c0.9,1,2.3,3.5,2.3,4.9c0,0.9,0.3,1.7,0.8,2.5C65.8,110.9,66.3,112.1,66.9,113.2z"/>
		<path class="st2" d="M60.7,108.3c-0.1-0.1-0.1-0.1-0.2-0.2c-0.2-0.1-0.3-0.3-0.4-0.4c-0.3-0.5-0.6-1-0.9-1.5l-0.3-0.6l0.1-0.1
			L60.7,108.3L60.7,108.3z"/>
		<path class="st2" d="M60.7,108.2c-0.2-0.2-0.5-0.4-0.6-0.6c-0.4-0.7-0.8-1.4-1.2-2.1C59.5,106.4,60.1,107.3,60.7,108.2z"/>
		<polygon class="st2" points="59.8,126 59.7,125.6 60.6,123.5 60.8,123.9 59.9,126.1 		"/>
		<polygon class="st2" points="59.8,125.6 60.6,123.6 60.7,124 59.8,126 		"/>
		<path class="st2" d="M61.9,127.1c-0.1,0-0.6-0.2-0.7-0.3l-0.1-0.1l0.1,0c0,0,0.7-0.3,1.1-1.9l0.1-0.2l0.1,0.5
			c-0.3,0.9-0.6,1.8-0.6,1.9L61.9,127.1z"/>
		<path class="st2" d="M61.2,126.7c0,0,0.7-0.2,1.2-2l0.1,0.3c0,0-0.7,1.8-0.5,1.9C62,127.1,61.2,126.7,61.2,126.7z"/>
		<path class="st2" d="M63.1,127.2c0-0.1,0.5-0.6,1.3-2.2l0.1,0l-0.1,0.6c-0.4,0.7-0.9,1.5-0.8,1.6l0.1,0.1L63.1,127.2z"/>
		<path class="st2" d="M63.2,127.1c0,0,0.6-0.5,1.3-2.1l-0.1,0.6c0,0-1,1.5-0.8,1.6L63.2,127.1z"/>
		<path class="st2" d="M70.5,122.7l-0.5-2.3l0.1-0.4l0.1,0l0.6,2.8c0.1,0.4,0.2,0.8,0.2,0.8l0.1-0.2l0,0.2l0,0.3l-0.5,0.4
			L70.5,122.7z"/>
		<path class="st2" d="M70.5,122.6l-0.5-2.3l0.1-0.4l0.6,2.8c0,0,0.2,1,0.3,0.8l0,0.3l-0.4,0.3L70.5,122.6z"/>
		<path class="st2" d="M54.9,109.2c-0.1-0.1-0.3-1.8-1.2-2.5l-0.3-0.5l0.5-0.3l0.1-0.1l0,0.1c0,0-0.1,0.3,0.1,0.6l0.6,0.9l0.3,0.8
			l0.3,1L54.9,109.2z"/>
		<path class="st2" d="M54.9,109.1c0,0-0.3-1.8-1.2-2.5l-0.3-0.5l0.5-0.2c0,0-0.1,0.4,0.1,0.7l0.6,0.9l0.3,0.8l0.3,0.9L54.9,109.1z"
			/>
		<polygon class="st2" points="70.1,119.2 70.2,119.1 71.1,118.6 71.5,118.7 71.6,118.7 70.5,119.3 70.4,119.6 70.1,119.7 70,119.7 
					"/>
		<polygon class="st2" points="70.2,119.2 70.1,119.7 70.3,119.6 70.4,119.2 71.4,118.8 71.1,118.7 70.3,119.1 		"/>
		<path class="st2" d="M70.2,120.7l1.2-1.5c0,0,0,0,0,0c0.1,0,0.1,0,0.1,0.1c0,0.1,0,0.2,0,0.2l-1.3,1.6L70.2,120.7z"/>
		<path class="st2" d="M71.4,119.3l-1.2,1.4l0.1,0.2l1.2-1.5C71.5,119.4,71.6,119.3,71.4,119.3z"/>
		<path class="st2" d="M71.9,117.7c-0.1-1.3-1.2-4.3-1.2-4.3l0-0.1l0.4,0.2c1,2.2,1.2,4.2,1.3,4.3l0,0.1L71.9,117.7z"/>
		<path class="st2" d="M70.8,113.4c0,0,1.1,3,1.2,4.3l0.4,0.1c0,0-0.3-2.1-1.2-4.2L70.8,113.4z"/>
		<path class="st2" d="M72.4,117.5c0-0.1,2.1-6.4,2.5-7.6l0.3-0.1c0,0.4-2.3,7.6-2.5,8l0,0.1L72.4,117.5z"/>
		<path class="st2" d="M72.4,117.5c0,0,2.1-6.4,2.5-7.5l0.3,0c0,0-2.3,7.5-2.6,7.9L72.4,117.5z"/>
		<path class="st2" d="M67.5,115.8c-0.1-1.3-2-4.8-2.1-4.9l0.3-0.2c1.5,2.6,2.2,4.9,2.2,4.9L67.5,115.8L67.5,115.8L67.5,115.8z"/>
		<path class="st2" d="M65.4,110.9c0,0,1.9,3.5,2.1,4.9l0.3-0.1c0,0-0.6-2.3-2.1-4.8L65.4,110.9z"/>
		<path class="st2" d="M72.5,117.8l0.1-0.1c0,0,3.5-2.6,5.1-6.1l0.1,0l0,1.2c0,0-1.2,1.8-4.7,5l0,0L72.5,117.8z"/>
		<path class="st2" d="M72.6,117.8c0,0,3.5-2.5,5.1-6.1l0,1.2c0,0-1.2,1.8-4.6,5L72.6,117.8z"/>
		<path class="st2" d="M64,114.1c-0.1-0.1-4.6-7.5-6.1-9.9l0.4-0.1c0.1,0.1,4.3,6.4,6.1,10.1l0.1,0.1L64,114.1z"/>
		<path class="st2" d="M64,114.1c0,0-4.5-7.5-6-9.9l0.4,0c0,0,4.3,6.3,6,10L64,114.1z"/>
		<path class="st2" d="M58.9,116.8c-0.2-0.1-0.2-0.2-0.2-0.2l0,0l0.1,0c0.1,0,3.2-0.9,4.6-1.9l1,0.5l0,0.1c0,0-0.3-0.1-0.6-0.1
			c-0.2,0-0.4,0.1-0.6,0.2C63.3,115.2,61.3,116.1,58.9,116.8L58.9,116.8L58.9,116.8z"/>
		<path class="st2" d="M58.9,116.6c0,0,3.1-0.9,4.6-1.9l1,0.5c0,0-0.7-0.3-1.2,0.1c0,0-2,0.9-4.3,1.6
			C59,116.8,58.6,116.6,58.9,116.6z"/>
	</g>
</g>
<g id="bubbles">
	<path class="st3" d="M23.5,32.2c0-1.1,0-2.2,0-3.4c0-1.3,0.6-2.3,1.7-3c1.8-1.1,3.7-2.1,5.5-3.2c1.4-0.9,2.7-0.9,4.1,0
		c1.8,1.1,3.7,2.2,5.5,3.3c1.1,0.7,1.7,1.6,1.7,3c0,2.2,0,4.4,0,6.7c0,1.4-0.6,2.4-1.8,3.1c-1.8,1-3.6,2.1-5.4,3.1
		c-1.3,0.8-2.6,0.9-4,0c-1.8-1.1-3.6-2.1-5.5-3.1c-1.3-0.7-1.9-1.7-1.9-3.2C23.5,34.4,23.4,33.3,23.5,32.2L23.5,32.2z"/>
	<path class="st3" d="M9,23.6c0-0.6,0-1.2,0-1.8c0-0.7,0.3-1.2,0.9-1.6c1-0.6,1.9-1.1,2.9-1.7c0.7-0.5,1.4-0.5,2.2,0
		c1,0.6,2,1.2,2.9,1.7c0.6,0.4,0.9,0.9,0.9,1.6c0,1.2,0,2.4,0,3.5c0,0.7-0.3,1.3-1,1.7c-1,0.5-1.9,1.1-2.9,1.7
		c-0.7,0.4-1.4,0.5-2.1,0C11.9,28.1,11,27.6,10,27c-0.7-0.4-1-0.9-1-1.7C9,24.8,9,24.2,9,23.6L9,23.6z"/>
	<path class="st0" d="M29.6,14c0-0.8,0-1.6,0-2.3c0-0.9,0.4-1.6,1.2-2.1c1.3-0.7,2.5-1.5,3.8-2.2c1-0.6,1.9-0.6,2.9,0
		c1.3,0.8,2.5,1.5,3.8,2.3c0.8,0.5,1.2,1.1,1.2,2c0,1.5,0,3.1,0,4.6c0,1-0.4,1.7-1.3,2.2c-1.3,0.7-2.5,1.4-3.7,2.2
		c-0.9,0.6-1.8,0.6-2.8,0c-1.2-0.8-2.5-1.5-3.8-2.2c-0.9-0.5-1.3-1.2-1.3-2.2C29.6,15.5,29.6,14.8,29.6,14L29.6,14z"/>
</g>
</svg>
