<svg xmlns="http://www.w3.org/2000/svg" xmlns:xlink="http://www.w3.org/1999/xlink" preserveAspectRatio="xMidYMid" width="17" height="17" viewBox="0 0 17 17">
  <defs>
    <style>
      .instagram-icon {
        fill: #c6c6c6;
        fill-rule: evenodd;
      }
    </style>
  </defs>
  <path d="M16.232,0.005 L0.772,0.005 C0.347,0.005 0.004,0.347 0.004,0.772 L0.004,16.233 C0.004,16.653 0.347,17.000 0.772,17.000 L16.232,17.000 C16.652,17.000 17.000,16.653 17.000,16.233 L17.000,0.772 C17.000,0.347 16.652,0.005 16.232,0.005 L16.232,0.005 ZM8.499,5.539 C10.138,5.539 11.466,6.867 11.466,8.499 C11.466,10.139 10.138,11.467 8.499,11.467 C6.866,11.467 5.538,10.139 5.538,8.499 C5.538,6.867 6.866,5.539 8.499,5.539 L8.499,5.539 ZM14.873,14.874 L2.131,14.874 L2.131,7.442 L3.525,7.442 C3.454,7.784 3.411,8.137 3.411,8.499 C3.411,11.311 5.694,13.593 8.499,13.593 C11.310,13.593 13.593,11.311 13.593,8.499 C13.593,8.137 13.551,7.784 13.478,7.442 L14.873,7.442 L14.873,14.874 ZM14.873,5.316 L11.689,5.316 L11.689,2.132 L14.873,2.132 L14.873,5.316 Z" class="instagram-icon"/>
</svg>
