<svg xmlns="http://www.w3.org/2000/svg" xmlns:xlink="http://www.w3.org/1999/xlink" preserveAspectRatio="xMidYMid" width="76.969" height="32.969" viewBox="0 0 76.969 32.969">
  <defs>
    <style>
      .lsv_logo_svg {
        fill: #61bb46;
        fill-rule: evenodd;
      }
    </style>
  </defs>
  <path d="M76.276,25.482 C75.741,27.424 74.922,29.337 73.587,30.782 C72.505,31.957 70.332,33.308 68.491,32.556 C64.734,31.025 65.635,25.776 66.387,22.733 C67.171,19.572 69.639,13.789 73.995,15.360 C77.978,16.797 77.138,22.375 76.276,25.482 ZM71.965,18.050 C71.746,18.332 71.538,18.671 71.356,18.988 C70.669,20.271 70.226,21.736 69.951,23.192 C69.689,24.610 69.535,26.114 69.762,27.618 C69.856,28.229 70.091,29.561 70.762,29.980 C70.984,29.694 71.197,29.352 71.375,29.020 C72.055,27.733 72.460,26.227 72.740,24.796 C73.176,22.601 73.627,19.930 71.965,18.050 ZM62.178,16.082 C63.457,16.094 64.688,16.682 65.216,18.141 C66.328,21.173 65.241,24.648 63.255,27.110 C61.749,28.977 58.913,30.458 56.621,29.171 C55.225,28.388 54.761,26.209 54.655,24.284 C52.751,26.053 50.382,27.455 47.775,27.807 C45.683,28.096 44.435,26.944 43.771,25.341 C41.232,26.865 37.575,28.282 34.969,26.711 C33.024,25.541 32.522,22.778 32.412,20.598 C32.234,17.210 32.564,13.335 35.152,10.778 C36.054,9.886 38.147,8.639 39.676,9.332 C41.306,10.074 41.914,11.487 42.334,12.914 C42.730,14.249 39.044,16.578 38.587,15.150 C38.358,14.395 37.923,12.843 36.887,12.434 C36.823,12.577 36.756,12.737 36.698,12.887 C36.478,13.482 36.316,14.091 36.223,14.705 C35.919,16.682 35.808,18.802 36.263,20.764 C36.565,22.080 37.153,23.801 38.853,24.137 C40.334,24.428 41.905,23.946 43.193,23.173 C42.926,21.353 43.055,19.399 43.189,18.240 C43.421,16.095 44.074,13.881 45.473,12.201 C46.896,10.487 49.592,9.176 51.686,10.349 C54.115,11.712 53.255,14.985 51.960,16.915 C50.521,19.054 48.963,20.934 47.157,22.805 C47.379,23.480 47.724,24.216 48.222,24.539 C50.452,26.006 53.309,22.646 54.661,21.038 C54.661,21.014 54.661,20.994 54.663,20.975 C54.816,17.176 55.418,13.476 56.483,9.786 C57.301,6.956 58.921,4.073 61.685,2.728 C63.595,1.793 67.383,1.940 67.530,4.712 C67.680,7.604 66.098,10.398 64.497,12.786 C63.761,13.876 62.995,15.011 62.178,16.082 ZM49.275,15.301 C49.380,14.522 49.203,13.178 48.157,12.905 C48.152,12.910 48.146,12.921 48.144,12.925 C47.845,13.396 47.628,13.965 47.462,14.481 C46.966,15.944 46.768,17.531 46.754,19.068 C46.752,19.316 46.749,19.587 46.759,19.873 C47.972,18.481 49.054,16.918 49.275,15.301 ZM58.533,23.026 C58.624,23.894 58.680,26.216 59.772,26.751 C59.923,26.826 60.062,26.839 60.163,26.841 C60.312,26.635 60.510,26.298 60.593,26.131 C61.334,24.598 62.044,22.390 61.631,20.592 C61.416,19.646 60.739,18.415 59.779,19.043 C59.330,19.561 58.871,20.074 58.405,20.573 C58.410,21.397 58.453,22.219 58.533,23.026 ZM62.701,4.929 C62.671,4.948 62.661,4.964 62.635,4.991 C62.204,5.481 61.852,6.026 61.550,6.588 C60.745,8.065 60.144,9.638 59.705,11.251 C59.287,12.826 58.935,14.460 58.702,16.116 C59.881,14.519 60.915,12.764 61.846,11.101 C62.831,9.350 64.375,6.792 62.701,4.929 ZM25.069,28.013 C23.239,28.141 22.129,26.990 21.427,25.428 C20.683,27.223 19.605,28.816 18.089,29.107 C16.026,29.496 14.617,27.855 13.802,26.278 C12.688,24.128 11.946,21.800 11.450,19.433 C11.351,21.053 11.119,22.678 10.702,24.272 C9.830,27.560 8.245,31.807 4.644,32.850 C2.371,33.500 0.374,31.575 0.002,29.467 C-0.153,28.569 0.576,27.349 1.282,26.664 C1.795,26.166 2.814,25.649 2.955,26.572 C3.079,27.454 3.562,28.293 4.342,28.721 C4.828,29.004 5.917,29.461 6.522,28.871 C7.470,27.977 7.692,25.981 7.857,24.861 C8.116,23.199 8.225,21.546 8.200,19.915 C8.092,13.849 7.107,7.285 10.354,1.752 C10.909,0.812 13.935,-1.164 13.561,0.914 C13.561,0.926 13.500,1.375 13.477,1.710 C13.443,2.172 13.422,2.628 13.409,3.099 C13.394,4.266 13.409,5.443 13.489,6.583 C13.685,9.409 13.963,12.304 14.455,15.041 C14.930,17.609 15.638,20.166 16.606,22.601 C17.012,23.614 18.148,25.748 19.610,25.613 C19.776,25.602 19.975,24.362 20.053,23.743 C20.230,22.266 20.290,21.052 20.310,19.506 C20.290,19.089 20.294,18.614 20.317,18.116 L20.317,18.113 C20.420,14.855 21.560,10.151 25.562,9.721 C29.772,9.269 30.586,15.213 30.617,18.113 C30.645,20.127 30.390,22.238 29.499,24.160 C28.781,25.701 27.084,27.866 25.069,28.013 ZM26.994,18.996 C26.805,16.839 26.400,14.363 24.362,13.072 C24.221,13.429 24.114,13.834 24.040,14.196 C23.725,15.690 23.714,17.227 23.858,18.705 C24.005,20.132 24.271,21.596 24.911,22.889 C25.172,23.413 25.766,24.538 26.537,24.644 C26.677,24.280 26.783,23.865 26.858,23.478 C27.152,22.006 27.116,20.435 26.994,18.996 Z" class="lsv_logo_svg"/>
</svg>
