<svg xmlns="http://www.w3.org/2000/svg" xmlns:xlink="http://www.w3.org/1999/xlink" preserveAspectRatio="xMidYMid" width="30.25" height="45.374" viewBox="0 0 30.25 45.374">
  <defs>
    <style>
      .cls-1 {
        fill: #515151;
        fill-rule: evenodd;
      }
    </style>
  </defs>
  <path d="M15.128,0.006 C6.773,0.006 0.001,6.640 0.001,14.823 C0.001,17.492 0.725,19.994 1.986,22.158 L1.986,22.158 L15.128,45.374 L27.820,22.878 C29.358,20.559 30.254,17.794 30.254,14.823 C30.254,6.640 23.482,0.006 15.128,0.006 ZM15.319,20.605 C12.251,20.605 9.763,18.168 9.763,15.163 C9.763,12.157 12.251,9.721 15.319,9.721 C18.388,9.721 20.875,12.157 20.875,15.163 C20.875,18.168 18.388,20.605 15.319,20.605 Z" class="cls-1"/>
</svg>
