<?xml version="1.0" encoding="utf-8"?>
<svg xmlns="http://www.w3.org/2000/svg"
	xmlns:xlink="http://www.w3.org/1999/xlink"
	width="50px" height="50px" viewBox="0 0 50 50">
<circle cx="25.00" cy="25.00" r="25.00" fill="rgb(107,191,83)"/><path fillRule="evenodd" d="M 32.94 43.57C 31.8 44.4 30.44 44.82 29.03 44.82 28.07 44.82 27.09 44.61 26.13 44.22 26.13 44.22 26.13 49.91 26.13 49.91 26.13 49.91 25.21 49.91 25.21 49.91 25.21 49.91 25.21 44.06 25.21 44.06 22.77 45.21 20.07 45.04 18.05 43.57 15.95 42.05 14.99 39.44 15.47 36.59 16.46 30.71 24.68 6.35 25.03 5.32 25.03 5.32 25.5 3.93 25.5 3.93 25.5 3.93 25.97 5.32 25.97 5.32 26.32 6.35 34.53 30.71 35.52 36.59 36 39.44 35.04 42.05 32.94 43.57ZM 30.77 23.29C 29.94 23.88 28.08 25.09 26.13 25.56 26.13 25.56 26.13 34.93 26.13 34.93 29.26 34.18 32.4 31.76 33.14 31.16 32.47 28.82 31.64 26.09 30.77 23.29ZM 30.45 22.27C 28.86 17.23 27.2 12.16 26.13 8.96 26.13 8.96 26.13 24.51 26.13 24.51 28.07 23.99 29.93 22.66 30.45 22.27ZM 17.84 31.22C 18.75 31.95 22.04 34.43 25.21 35.02 25.21 35.02 25.21 25.72 25.21 25.72 25.09 25.71 24.97 25.67 24.89 25.59 22.96 25.16 21.09 23.97 20.21 23.35 19.33 26.15 18.5 28.88 17.84 31.22ZM 18.63 42.75C 20.47 44.09 22.99 44.16 25.21 42.95 25.21 42.95 25.21 36.11 25.21 36.11 25.1 36.11 24.99 36.07 24.9 36 21.83 35.39 18.79 33.24 17.54 32.27 17.01 34.18 16.62 35.76 16.45 36.76 16.04 39.22 16.85 41.46 18.63 42.75ZM 20.52 22.33C 21.19 22.83 23.22 24.22 25.21 24.62 25.21 24.62 25.21 7.9 25.21 7.9 24.19 10.95 22.31 16.67 20.52 22.33ZM 25.47 7.13C 25.47 7.13 25.53 7.13 25.53 7.13 25.52 7.11 25.51 7.07 25.5 7.05 25.49 7.07 25.48 7.11 25.47 7.13ZM 34.54 36.76C 34.37 35.75 33.97 34.14 33.43 32.2 32.26 33.12 29.23 35.3 26.13 35.96 26.13 35.96 26.13 43.12 26.13 43.12 28.27 44.14 30.62 44.02 32.37 42.75 34.14 41.46 34.96 39.22 34.54 36.76Z" fill="rgb(255,255,255)"/></svg>