<?xml version="1.0" encoding="utf-8"?>
<!-- Generator: Adobe Illustrator 19.0.0, SVG Export Plug-In . SVG Version: 6.00 Build 0)  -->
<svg version="1.1" id="Layer_1" xmlns="http://www.w3.org/2000/svg" xmlns:xlink="http://www.w3.org/1999/xlink" x="0px" y="0px"
	 viewBox="-233 353.9 128 135" style="enable-background:new -233 353.9 128 135;" xml:space="preserve">
<style type="text/css">
	.st0{fill:#B82927;}
	.st1{fill:#FFFFFF;}
	.st2{fill:#FFFFFF;stroke:#010101;stroke-width:1.0201;stroke-miterlimit:10;}
	.st3{clip-path:url(#SVGID_3_);}
</style>
<g id="meat">
	<path class="st0" d="M-114.5,419.2c0-18.1-9.1-33.3-22.6-43.4c-4.7-3.5-24-9.2-37.3,7.9c-11.1,14.2-49,8.6-49,35.5
		c0,30.1,24.4,54.4,54.4,54.4C-138.9,473.7-114.5,449.3-114.5,419.2z"/>
	<g>
		<g>
			<path class="st1" d="M-182.8,417.8c-0.5-0.2-1-0.1-1.4,0c0.5-1.5,0.9-3.1,1.3-4.7c0.4-2,1.2-5.1,0-7.1c-1.3-2.2-3.7,0.1-4.6,1.6
				c-1.2,2-1.5,4.5-1.6,6.7c-0.2,0.3-0.3,0.6-0.4,0.9c-0.3,1.1-0.5,2-1.6,2c-0.5,0-0.9-0.1-1.3-0.4c-0.1,0-0.2-0.1-0.3-0.1
				c-0.5-0.4-1.1-0.6-1.8-0.6c-0.1,0-0.2,0-0.3,0c-0.1,0-0.1,0-0.2,0c-3.4,1-3.6,5.9-3.2,8.6c0,0.3,0.1,0.6,0.2,0.9
				c-0.3,0.4-0.6,0.9-0.7,1.2c-0.7,1.8-3.1,2.3-4.7,1.4c-2.7-1.5-1.4-5.1-0.2-7.3c1.5-2.8,3.9-8,1.2-11c-1-1.1-2.8-1.4-4.3-1
				c-2.1,0.5-3.6,2.2-4.8,3.9c-0.7,0.9-1.6,2.6-1,3.7c0.7,1,2.2-0.4,2.6-1c0.4-0.5,0.7-0.9,0.9-1.1c0.5-0.4,1.5-0.3,2.1-0.2
				c1.3,0.3,1.8,1.4,1.7,2.6c-0.1,2.2-1.6,4.2-2.3,6.2c-0.8,2-1.1,4.1-0.8,6.1c0.4,2.4,2.3,4.1,4.6,4.3c2.8,0.2,5.3-2.1,6.9-4.5
				c0.7,1.4,1.8,2.5,3.3,2.3c1.5-0.2,2.5-2.1,2.9-3.4c0.5-1.6,0.5-3.3,0.3-4.9c-0.1-0.8-0.3-2-0.6-3.1c0.7-0.3,1.3-0.9,1.9-1.5
				c0.2,2.4,0.6,4.7,1.2,6.9c0.4,1.6,1.2,4.8,3.3,4.4c2.1-0.4,3.3-2.9,3.6-4.8C-180.7,422.9-180.4,418.6-182.8,417.8z M-192.6,427.2
				c0,0.3-0.1,0.5-0.1,0.8c0,0.1-0.1,0.2-0.1,0.4l0,0c-1.7,0.4-2.7-3.4-2.9-4.4c-0.3-1.2-0.4-2.4-0.3-3.7c0-0.4,0.1-0.8,0.2-1.2
				c1.8-0.2,2.7,3.4,2.9,4.5C-192.7,424.8-192.5,426.1-192.6,427.2z M-186.7,415c0-2,0.1-4.2,0.8-6.3c0-0.1,0.1-0.2,0.1-0.3
				c0.5,0.1,0.7,0.8,0.8,1.3c0.4,1.9-0.2,4.3-0.6,6.1c-0.2,1-0.5,2.1-0.8,3.1C-186.7,417.5-186.7,416.3-186.7,415z M-183.3,423.8
				c0.1,1,0,1.9-0.2,2.9c0,0.1,0,0.1-0.1,0.2c-0.1,0-0.2,0-0.3,0c-1.2-0.2-1.8-3.4-2-4.3c0-0.1,0-0.1,0-0.2v-0.1
				c0.2-0.5,0.4-1,0.6-1.4c0.3-0.5,0.6-0.4,1.1,0C-183.4,421.5-183.4,422.9-183.3,423.8z"/>
			<path class="st1" d="M-126.9,431.7c-0.3-0.4-0.9-0.4-1.4-0.2c-1-0.3-0.6-2.5-0.5-3.1c0.2-2.2,0.7-4.3,1.3-6.5v-0.1
				c0.3-1.6-1-2.8-2.8-2.9s-3.2,0.7-4.3,1.8c-1.9,1.9-2.7,4.9-2.8,7.6c-0.4,0.1-0.8,0.2-1,0.4c-0.8,0.5-0.8-0.3-0.8-1
				c-0.1-1.1,0-2.1,0.2-3.2c0.2-1.6,0.5-3.4,1.2-5.1c0.3-0.5,0.5-1,0.7-1.5c0.3-0.6,0-1.1-0.8-1.1c-0.8,0.1-1.7,0.6-2,1.2
				c-0.4,0.6-0.6,1.3-0.9,1.9c-0.4,0.7-0.8,1.3-1.3,1.9c-0.5,0.5-0.9,0.6-1.5,1.1l-0.1,0.1c0.2-2.2,0.4-4.5,0.6-6.9
				c0.1-1.6-2.9-0.1-3,0.9c-0.2,2.8-0.3,5.4-0.6,8c-0.1,0.1-0.2,0.2-0.2,0.2c-0.5,0.7-1.3,1.2-2.2,1.4c-0.9,0.2-1.1-2.2-1.2-2.6
				c-0.3-2.9,0.3-6,0.8-9.1c0.1-0.8-0.7-0.8-1.3-0.6c-0.7,0.3-1.5,0.9-1.6,1.7c-0.4,2.4-0.6,4.7-1.1,7c-0.2,1-0.5,2-0.9,2.9
				c0,0,0,0.1-0.1,0.1c-0.2,0-0.4-0.2-0.5-0.2c-1.4-0.8-1.1-3.7-1-5c0-0.1,0-0.2,0-0.3c0.1-0.1,0.1-0.3,0-0.4
				c0.2-1.7,0.6-3.5,1.2-5.2c0.2-0.6-0.1-1.1-0.8-0.9c-0.7,0.2-1.6,0.8-1.8,1.5c-0.6,1.8-1.1,3.7-1.3,5.6c-0.9,0.8-1.7,1.7-2.5,2.6
				c0-1.4,0.1-2.9,0.1-4.4c0.1-1.7,0.1-3.5,0.2-5.3c0-1-1-0.7-1.8,0c-0.4-0.4-0.8-0.6-1.4-0.7c-0.1,0-0.2,0-0.3,0s-0.1,0-0.2,0
				c-3.5,0.2-4.6,5-4.8,7.7c-0.1,1.1,0,2.8,0.3,4.2c-0.3,0.2-0.6,0.5-0.7,0.7c-0.1,0-0.1,0-0.2,0c-0.2,0-0.3-0.1-0.4-0.2
				c-0.4-0.3-0.5-0.7-0.7-1.2c-0.4-1.3-0.5-2.7-0.5-4.1c0-0.1,0-0.3,0-0.4v-0.1c0-1.1,0-2.2,0.1-3.3c0-0.1,0-0.1,0-0.2v-0.1
				c0.1-0.7,0.1-1.5,0.2-2.2c0.1-0.8-0.8-0.6-1.3-0.4c-0.1,0-0.2,0.1-0.2,0.1c-0.7-0.4-1.7-0.3-2.7,0.3c-2.6,1.5-3.3,5-2.9,7.5
				c0.3,1.5,1.5,2.7,3.1,2.4c0.3,0,0.5-0.1,0.7-0.2c-0.1,0.7-0.3,1.4-0.6,2c-0.3,0.7-1.4-0.3-1.6-0.8c-0.4-1.1-2.7,1.1-2.3,2.1
				c0.9,2.4,3.5,1.4,4.8,0c0.2-0.2,0.4-0.5,0.6-0.8c0.2,0.5,0.5,1,0.8,1.4c1.5,1.7,3.5,0.2,4.5-1c0.5,0.8,1.2,1.3,2.2,1.4
				c0.4,0,0.8-0.1,1.2-0.2c-1.5,1.8-2.7,3.8-3.4,6.1c-0.4,1.5-0.8,4.2,0.4,5.4c2,1.9,4.6-1.6,5.4-3.5c1.1-2.7,1.1-5.7,1.2-8.4
				c0-0.5,0-0.9,0-1.3c0.6-0.6,1.2-1.2,1.7-1.8c0.2-0.2,0.5-0.5,0.7-0.7c0,1.8,0.3,4.3,2.3,4.7c1.5,0.3,2.7-0.4,3.6-1.5
				c0.1,0.2,0.1,0.4,0.2,0.6c1,2.6,3.5,1.5,5.6,0.1c-0.1,0.5-0.2,0.9-0.3,1.4c-0.1,0.7,0.7,0.7,1.2,0.6c0.7-0.2,1.5-0.8,1.7-1.5
				c0.3-1.1,0.7-2.3,1.4-3.3c0.4-0.5,0.6-0.6,1.4-1c0,0,0,0,0.1,0c-0.2,1.1-0.3,2.2-0.3,3.2c-0.1,1.1-0.1,2.2,0.3,3.3
				c0.6,1.5,3.7,0.2,4.5-0.3c0,0,0.1,0,0.1-0.1c0.2,0.6,0.4,1.2,1,1.7c1.2,0.9,3,0.4,4.1-0.2c0.1,0,0.1-0.1,0.2-0.1
				c0,0.5,0.1,1.1,0.5,1.5c1,1.1,2.5,0.7,3.6,0.3C-127.4,432.8-126.5,432.2-126.9,431.7z M-175.8,420c-0.3-0.9-0.2-2.9,0.3-3.7
				c-0.1,0.1,0.3,0,0.6,0.1c0.5,0.3,0.7,0.8,0.7,1.3c-0.1,1.2-0.1,2.5-0.1,3.7C-175,421.4-175.5,420.8-175.8,420z M-169.7,425.9
				C-169.6,425.8-169.6,425.8-169.7,425.9L-169.7,425.9z M-166.7,420.6c0-1.2,0.1-2.5,0.4-3.6c0.1-0.4,0.2-0.7,0.4-1.1
				c1.8,0.2,2,3.9,2,5.1c0,1.2-0.1,2.4-0.4,3.6c-0.1,0.2-0.2,0.5-0.2,0.7c0,0-0.1,0.2-0.2,0.3l0,0
				C-166.5,425.6-166.7,421.7-166.7,420.6z M-165,437L-165,437L-165,437L-165,437z M-165,436.9c0,0,0,0.1-0.1,0.1h-0.1
				c0,0-0.1,0-0.3,0c0,0-0.2-0.1-0.3-0.1c0,0-0.1-0.1-0.2-0.1c-0.1-0.1-0.2-0.3-0.3-0.4c-0.4-0.7-0.2-1.9-0.1-2.7
				c0.4-1.7,1.3-3.3,2.3-4.6c0,0.2,0,0.3,0,0.5C-164,431.9-163.9,434.7-165,436.9z M-154.7,426.2L-154.7,426.2L-154.7,426.2z
				 M-133.2,429.9c-0.1,0-0.3,0-0.4-0.1c-0.5-0.3-0.6-1.2-0.7-1.7c-0.2-1.9,0.3-3.9,1.1-5.5c0.3-0.5,0.8-1.3,1.1-1.6h0.1
				c0.1,0,0.3,0.1,0.5,0.1c0.7,0.2,1,0.8,0.8,1.3c-0.7,2.4-1,4.9-2.2,7C-133,429.5-133.1,429.7-133.2,429.9z"/>
		</g>
	</g>
	<g>
		<path class="st2" d="M-163.7,453.9"/>
		<g>
			<g>
				<path id="SVGID_1_" class="st1" d="M-181.2,463.6c-0.3,0-0.6,0-0.9-0.1h-0.2c-0.6-0.1-0.8-0.5-1-0.8c0-0.1-0.1-0.1-0.1-0.2
					c0,0,0,0,0-0.1c-0.8-0.2-0.7-0.9-0.7-1.2v-0.1c0-1.4-0.1-2.9-0.4-4.7c-0.1-0.3-0.1-0.7,0-1l0,0c-0.2-0.1-0.6-0.2-0.6-0.8
					c0-2.2-0.2-4.4-0.4-6.5c-0.1-0.6-0.1-1.3-0.2-1.9c-0.1-1.8,0.6-3,2.2-3.8h0.2c0.7-0.2,1.4-0.3,2.1-0.3c0.3,0,0.6,0,0.9-0.1h0.3
					c0.2,0,0.5,0,0.7,0c0.5,0,1.1,0.1,1.6,0.2c0.8,0.2,1.7,0.2,2.4,0.2h1.7h2.1c0.2,0,0.5,0,0.6,0c0.9-0.1,1.8-0.1,2.7-0.2h0.2
					c0.4,0,1.4-0.1,1.8-0.2c0.5-0.1,0.9-0.1,1.1-0.1c0.8,0,1.9-0.1,2.9-0.1s1.4,0.1,1.7,0.2h0.7c0.6,0,1.2,0,1.9,0
					c0.9,0,1.7,0,2.4-0.1c0.1,0,0.3,0,0.5-0.1c0.2,0,0.3,0,0.5-0.1c0.5-0.1,1-0.3,1.5-0.4l0.3-0.1c0.9-0.3,1.6-0.3,2.3,0.1
					c0.4,0.2,0.7,0.2,1.2-0.1c0.2-0.1,0.4-0.2,0.6-0.2s0.4,0.1,0.6,0.3c0.1,0.2,0.1,0.4,0.1,0.6c-0.1,0.3-0.3,0.5-0.5,0.6
					c-0.6,0.4-1.2,0.6-1.8,0.5c0.4,0.7,0.7,1.4,0.9,2.2c0.2,0.6,0.5,1.2,0.9,1.8c0.1,0.2,0.2,0.4,0.3,0.6c0.4,0.7,0.3,1.4-0.2,2.1
					c-0.1,0.2-0.4,0.5-0.9,0.5l0,0c-0.1,0-0.3,0-0.4-0.1c-0.3,0.3-0.7,0.4-1.1,0.3c-0.1,0-0.3-0.1-0.4-0.3c-0.4-0.5-0.9-0.6-1.6-0.6
					l0,0c-0.3,0-0.4-0.1-0.5-0.1h-0.1c-0.2-0.1-0.3-0.2-0.5-0.3l0,0c-0.1,0.1-0.3,0.2-0.5,0.4l-0.3,0.2c-0.4,0.3-0.8,0.7-1.1,1.1
					c0,0.1-0.1,0.2-0.3,0.4c-0.5,0.5-0.9,1.1-1.3,1.9c-0.8,1.4-2,1.9-3,2.2c-0.3,0.1-0.5,0.1-0.8,0.2l-0.3,0.1v0.1
					c0,0.3,0,0.5-0.1,0.8c-0.1,0.4-0.2,0.7-0.2,1.1c-0.1,0.4-0.2,0.8-0.3,1.2c-0.2,0.8,0.1,1.5,0.7,2.2c0.2,0.2,0.6,0.6,0.4,1.1
					c-0.2,0.3-0.5,0.5-0.9,0.5c0,0.1,0,0.1,0,0.2c0,0.2-0.2,0.6-0.8,0.7s-1.2,0-1.8-0.1c-0.4-0.1-0.6-0.3-0.7-0.7
					c0-0.1-0.1-0.2-0.2-0.3c-0.5-0.3-0.5-0.8-0.5-1.1c0-0.3,0-0.6,0.1-0.8c0-0.5,0.1-0.9,0.1-1.3v-0.3c0-0.2,0-0.4-0.1-0.5v-0.1
					v-0.2c-0.1-0.5-0.1-1.1-0.1-1.7c0-0.3,0-0.6,0-0.9c0,0,0-0.1-0.1-0.1h-0.7c-2.1,0-4.2,0-6.3-0.4c-0.6-0.1-0.6-0.1-0.8-0.2h-0.1
					c-1.2-0.3-2.3-0.7-3.3-1.2l0,0l0,0c-1,1.8-1.1,3.5-0.2,5.2c0.4,0.7,0.8,1.3,1.3,2l0.4,0.5l0.1,0.1c0.2,0.2,0.6,0.7,0.3,1.2
					c-0.2,0.5-0.8,0.5-1,0.5h-0.1l-0.2-0.5v0.5c-0.1,0-0.2,0-0.3,0c-0.8,0-1-0.4-1.3-1.1c-0.1-0.2-0.1-0.2-0.2-0.2
					c-0.3,0-0.5-0.1-0.5-0.2c-0.1-0.1-0.2-0.3-0.2-0.6c0.1-0.8-0.3-1.4-0.8-2.1c-0.1-0.2-0.3-0.5-0.4-0.7c-0.1-0.1-0.2-0.3-0.3-0.4
					c-0.2-0.2-0.4-0.5-0.6-0.7c-0.1,0.3-0.2,0.6-0.3,0.7v0.1c-0.1,0.7-0.1,1.4-0.1,2c0,0.3,0.1,0.5,0.2,0.7c0,0,0.1,0.1,0.2,0.2
					l1.2,1.2c0.2,0.2,0.5,0.5,0.3,1c-0.2,0.5-0.7,0.5-0.9,0.5C-181,463.6-181.1,463.6-181.2,463.6z M-183.5,447.9l0.3,1
					c0.3,1,0.6,2,0.9,2.9c0.1,0.3,0.1,0.5,0.2,0.8c0,0.5-0.1,0.9-0.3,1.3l-0.2,0.4c-0.1,0.1-0.1,0.1-0.1,0.2
					c-0.1,0.2-0.3,0.4-0.5,0.6c-0.4,0.3-0.5,0.6-0.3,1.3c0.3,1.9,0.4,3.4,0.4,4.8v0.1c0,0.1,0,0.2,0,0.3c0.4,0.1,0.6,0.4,0.7,0.6
					v0.1c0.1,0.2,0.2,0.3,0.2,0.3h0.2c0.2,0,0.5,0.1,0.7,0.1l-1.1-1.3c0,0-0.1-0.1-0.1-0.2c-0.2-0.3-0.3-0.7-0.3-1.1
					c0-0.8,0-1.5,0.1-2.2v-0.1c0.1-0.6,0.6-1.7,0.8-1.9s0.3-0.5,0.7-0.5l0.7-0.2l-0.1,0.7c-0.1,0.5,0.1,0.9,0.4,1.2
					c0.2,0.2,0.4,0.4,0.5,0.7c0.1,0.2,0.3,0.4,0.4,0.6c0.4,0.7,0.9,1.5,0.9,2.5c0.6,0.1,0.7,0.7,0.8,0.9c0.1,0.2,0.1,0.4,0.2,0.4
					c0,0,0,0,0.1,0c0.1,0,0.2,0,0.3,0c0.1,0,0.1,0,0.2,0h0.2l-0.1-0.1c-0.1-0.1-0.1-0.1-0.1-0.2l-0.4-0.5c-0.5-0.7-1-1.4-1.4-2.1
					c-1.1-2-1-4.1,0.2-6.2c0.1-0.1,0.3-0.6,0.8-0.6c0.2,0,0.4,0.1,0.6,0.2c0.9,0.5,1.9,0.9,3.1,1.1l0.2,0.1c0.1,0,0.1,0,0.6,0.1
					c2,0.3,4.1,0.3,6.1,0.4h1.3l0.1,0.1c0.3,0.2,0.3,0.4,0.3,0.6h0.1v0.2c0,0.4,0,0.8,0,1.2c0,0.6,0,1.1,0.1,1.6v0.2
					c0.1,0.3,0.1,0.5,0.1,0.7v0.2c0,0.5,0,1-0.1,1.5c0,0.2,0,0.5-0.1,0.7c0,0.1,0,0.2,0,0.3c0.3,0.1,0.5,0.4,0.7,0.7
					c0.3,0.1,0.6,0.2,0.9,0.2c-0.2-0.1-0.4-0.3-0.5-0.6l-0.2-0.4l0.6-0.4h0.2l0.4,0.1c0.2,0,0.3,0.1,0.5,0.1c-0.8-0.9-1-1.8-0.8-2.9
					c0.1-0.4,0.2-0.8,0.3-1.2s0.2-0.7,0.2-1.1c0.1-0.3,0.1-0.5,0.1-0.7v-0.2c0.1-0.7,0.6-0.8,0.8-0.8l0.4-0.1c0.2,0,0.5-0.1,0.7-0.2
					c1.2-0.4,2-0.9,2.4-1.8c0.5-0.9,1-1.6,1.5-2.1l0.1-0.1c0,0,0-0.1,0.1-0.1c0.4-0.5,0.9-1,1.4-1.3l0.3-0.2c0.2-0.2,0.6-0.5,1-0.6
					h0.2c0.3,0,0.5,0.2,0.7,0.3l0.1,0.1c0.1,0,0.1,0.1,0.2,0.1c0.1,0,0.3,0,0.4,0c0.9,0,1.6,0.3,2.1,0.9l0,0v-0.7l0.7,0.3
					c0.2,0.1,0.3,0.1,0.4,0.2c0,0,0,0,0.1-0.1c0.3-0.4,0.3-0.7,0.1-1c-0.1-0.2-0.2-0.4-0.3-0.6c-0.4-0.6-0.7-1.3-1-2
					c-0.2-0.9-0.6-1.7-1.1-2.5c-0.2-0.2-0.4-0.5-0.3-1v-0.1c-0.2,0-0.4,0.1-0.6,0.1l-0.3,0.1c-0.5,0.2-1.1,0.4-1.7,0.5l-0.5,0.1
					c-0.2,0-0.3,0.1-0.5,0.1c-0.7,0.1-1.5,0.1-2.5,0.1c-0.6,0-1.3,0-1.9,0h-1.1l-0.1-0.1c-0.1,0-0.4-0.1-1.2-0.1
					c-0.9,0-2.1,0.1-2.8,0.1h-0.1c-0.1,0-0.3,0-0.9,0.1c-0.1,0-0.1,0-0.1,0c-0.4,0-1.4,0.1-1.8,0.2h-0.2c-0.9,0.1-1.8,0.2-2.7,0.2
					c-0.1,0-0.5,0-0.7,0h-2.1h-1.7c-0.8,0-1.7,0-2.6-0.2c-0.7-0.2-1.4-0.2-2.1-0.1h-0.3c-0.3,0-0.6,0.1-0.9,0.1
					c-0.6,0-1.2,0.1-1.8,0.3h-0.2c-1.2,0.6-1.7,1.5-1.5,2.8c0,0.5,0.1,7.3,0.2,7.8l0.4-5.5L-183.5,447.9L-183.5,447.9z
					 M-183.5,451.3c0,0.9-0.1,1.8-0.2,2.8l0.1-0.1c0.1-0.1,0.1-0.2,0.2-0.2v-0.1c0.1-0.3,0.2-0.6,0.2-0.9c0-0.2,0-0.3-0.1-0.6
					C-183.3,451.8-183.4,451.6-183.5,451.3z"/>
			</g>
			<g>
				<defs>
					<path id="SVGID_2_" d="M-181.2,463.6c-0.3,0-0.6,0-0.9-0.1h-0.2c-0.6-0.1-0.8-0.5-1-0.8c0-0.1-0.1-0.1-0.1-0.2c0,0,0,0,0-0.1
						c-0.8-0.2-0.7-0.9-0.7-1.2v-0.1c0-1.4-0.1-2.9-0.4-4.7c-0.1-0.3-0.1-0.7,0-1l0,0c-0.2-0.1-0.6-0.2-0.6-0.8
						c0-2.2-0.2-4.4-0.4-6.5c-0.1-0.6-0.1-1.3-0.2-1.9c-0.1-1.8,0.6-3,2.2-3.8h0.2c0.7-0.2,1.4-0.3,2.1-0.3c0.3,0,0.6,0,0.9-0.1h0.3
						c0.2,0,0.5,0,0.7,0c0.5,0,1.1,0.1,1.6,0.2c0.8,0.2,1.7,0.2,2.4,0.2h1.7h2.1c0.2,0,0.5,0,0.6,0c0.9-0.1,1.8-0.1,2.7-0.2h0.2
						c0.4,0,1.4-0.1,1.8-0.2c0.5-0.1,0.9-0.1,1.1-0.1c0.8,0,1.9-0.1,2.9-0.1s1.4,0.1,1.7,0.2h0.7c0.6,0,1.2,0,1.9,0
						c0.9,0,1.7,0,2.4-0.1c0.1,0,0.3,0,0.5-0.1c0.2,0,0.3,0,0.5-0.1c0.5-0.1,1-0.3,1.5-0.4l0.3-0.1c0.9-0.3,1.6-0.3,2.3,0.1
						c0.4,0.2,0.7,0.2,1.2-0.1c0.2-0.1,0.4-0.2,0.6-0.2s0.4,0.1,0.6,0.3c0.1,0.2,0.1,0.4,0.1,0.6c-0.1,0.3-0.3,0.5-0.5,0.6
						c-0.6,0.4-1.2,0.6-1.8,0.5c0.4,0.7,0.7,1.4,0.9,2.2c0.2,0.6,0.5,1.2,0.9,1.8c0.1,0.2,0.2,0.4,0.3,0.6c0.4,0.7,0.3,1.4-0.2,2.1
						c-0.1,0.2-0.4,0.5-0.9,0.5l0,0c-0.1,0-0.3,0-0.4-0.1c-0.3,0.3-0.7,0.4-1.1,0.3c-0.1,0-0.3-0.1-0.4-0.3
						c-0.4-0.5-0.9-0.6-1.6-0.6l0,0c-0.3,0-0.4-0.1-0.5-0.1h-0.1c-0.2-0.1-0.3-0.2-0.5-0.3l0,0c-0.1,0.1-0.3,0.2-0.5,0.4l-0.3,0.2
						c-0.4,0.3-0.8,0.7-1.1,1.1c0,0.1-0.1,0.2-0.3,0.4c-0.5,0.5-0.9,1.1-1.3,1.9c-0.8,1.4-2,1.9-3,2.2c-0.3,0.1-0.5,0.1-0.8,0.2
						l-0.3,0.1v0.1c0,0.3,0,0.5-0.1,0.8c-0.1,0.4-0.2,0.7-0.2,1.1c-0.1,0.4-0.2,0.8-0.3,1.2c-0.2,0.8,0.1,1.5,0.7,2.2
						c0.2,0.2,0.6,0.6,0.4,1.1c-0.2,0.3-0.5,0.5-0.9,0.5c0,0.1,0,0.1,0,0.2c0,0.2-0.2,0.6-0.8,0.7s-1.2,0-1.8-0.1
						c-0.4-0.1-0.6-0.3-0.7-0.7c0-0.1-0.1-0.2-0.2-0.3c-0.5-0.3-0.5-0.8-0.5-1.1c0-0.3,0-0.6,0.1-0.8c0-0.5,0.1-0.9,0.1-1.3v-0.3
						c0-0.2,0-0.4-0.1-0.5v-0.1v-0.2c-0.1-0.5-0.1-1.1-0.1-1.7c0-0.3,0-0.6,0-0.9c0,0,0-0.1-0.1-0.1h-0.7c-2.1,0-4.2,0-6.3-0.4
						c-0.6-0.1-0.6-0.1-0.8-0.2h-0.1c-1.2-0.3-2.3-0.7-3.3-1.2l0,0l0,0c-1,1.8-1.1,3.5-0.2,5.2c0.4,0.7,0.8,1.3,1.3,2l0.4,0.5
						l0.1,0.1c0.2,0.2,0.6,0.7,0.3,1.2c-0.2,0.5-0.8,0.5-1,0.5h-0.1l-0.2-0.5v0.5c-0.1,0-0.2,0-0.3,0c-0.8,0-1-0.4-1.3-1.1
						c-0.1-0.2-0.1-0.2-0.2-0.2c-0.3,0-0.5-0.1-0.5-0.2c-0.1-0.1-0.2-0.3-0.2-0.6c0.1-0.8-0.3-1.4-0.8-2.1c-0.1-0.2-0.3-0.5-0.4-0.7
						c-0.1-0.1-0.2-0.3-0.3-0.4c-0.2-0.2-0.4-0.5-0.6-0.7c-0.1,0.3-0.2,0.6-0.3,0.7v0.1c-0.1,0.7-0.1,1.4-0.1,2
						c0,0.3,0.1,0.5,0.2,0.7c0,0,0.1,0.1,0.2,0.2l1.2,1.2c0.2,0.2,0.5,0.5,0.3,1c-0.2,0.5-0.7,0.5-0.9,0.5
						C-181,463.6-181.1,463.6-181.2,463.6z M-183.5,447.9l0.3,1c0.3,1,0.6,2,0.9,2.9c0.1,0.3,0.1,0.5,0.2,0.8c0,0.5-0.1,0.9-0.3,1.3
						l-0.2,0.4c-0.1,0.1-0.1,0.1-0.1,0.2c-0.1,0.2-0.3,0.4-0.5,0.6c-0.4,0.3-0.5,0.6-0.3,1.3c0.3,1.9,0.4,3.4,0.4,4.8v0.1
						c0,0.1,0,0.2,0,0.3c0.4,0.1,0.6,0.4,0.7,0.6v0.1c0.1,0.2,0.2,0.3,0.2,0.3h0.2c0.2,0,0.5,0.1,0.7,0.1l-1.1-1.3
						c0,0-0.1-0.1-0.1-0.2c-0.2-0.3-0.3-0.7-0.3-1.1c0-0.8,0-1.5,0.1-2.2v-0.1c0.1-0.6,0.6-1.7,0.8-1.9s0.3-0.5,0.7-0.5l0.7-0.2
						l-0.1,0.7c-0.1,0.5,0.1,0.9,0.4,1.2c0.2,0.2,0.4,0.4,0.5,0.7c0.1,0.2,0.3,0.4,0.4,0.6c0.4,0.7,0.9,1.5,0.9,2.5
						c0.6,0.1,0.7,0.7,0.8,0.9c0.1,0.2,0.1,0.4,0.2,0.4c0,0,0,0,0.1,0c0.1,0,0.2,0,0.3,0c0.1,0,0.1,0,0.2,0h0.2l-0.1-0.1
						c-0.1-0.1-0.1-0.1-0.1-0.2l-0.4-0.5c-0.5-0.7-1-1.4-1.4-2.1c-1.1-2-1-4.1,0.2-6.2c0.1-0.1,0.3-0.6,0.8-0.6
						c0.2,0,0.4,0.1,0.6,0.2c0.9,0.5,1.9,0.9,3.1,1.1l0.2,0.1c0.1,0,0.1,0,0.6,0.1c2,0.3,4.1,0.3,6.1,0.4h1.3l0.1,0.1
						c0.3,0.2,0.3,0.4,0.3,0.6h0.1v0.2c0,0.4,0,0.8,0,1.2c0,0.6,0,1.1,0.1,1.6v0.2c0.1,0.3,0.1,0.5,0.1,0.7v0.2c0,0.5,0,1-0.1,1.5
						c0,0.2,0,0.5-0.1,0.7c0,0.1,0,0.2,0,0.3c0.3,0.1,0.5,0.4,0.7,0.7c0.3,0.1,0.6,0.2,0.9,0.2c-0.2-0.1-0.4-0.3-0.5-0.6l-0.2-0.4
						l0.6-0.4h0.2l0.4,0.1c0.2,0,0.3,0.1,0.5,0.1c-0.8-0.9-1-1.8-0.8-2.9c0.1-0.4,0.2-0.8,0.3-1.2s0.2-0.7,0.2-1.1
						c0.1-0.3,0.1-0.5,0.1-0.7v-0.2c0.1-0.7,0.6-0.8,0.8-0.8l0.4-0.1c0.2,0,0.5-0.1,0.7-0.2c1.2-0.4,2-0.9,2.4-1.8
						c0.5-0.9,1-1.6,1.5-2.1l0.1-0.1c0,0,0-0.1,0.1-0.1c0.4-0.5,0.9-1,1.4-1.3l0.3-0.2c0.2-0.2,0.6-0.5,1-0.6h0.2
						c0.3,0,0.5,0.2,0.7,0.3l0.1,0.1c0.1,0,0.1,0.1,0.2,0.1c0.1,0,0.3,0,0.4,0c0.9,0,1.6,0.3,2.1,0.9l0,0v-0.7l0.7,0.3
						c0.2,0.1,0.3,0.1,0.4,0.2c0,0,0,0,0.1-0.1c0.3-0.4,0.3-0.7,0.1-1c-0.1-0.2-0.2-0.4-0.3-0.6c-0.4-0.6-0.7-1.3-1-2
						c-0.2-0.9-0.6-1.7-1.1-2.5c-0.2-0.2-0.4-0.5-0.3-1v-0.1c-0.2,0-0.4,0.1-0.6,0.1l-0.3,0.1c-0.5,0.2-1.1,0.4-1.7,0.5l-0.5,0.1
						c-0.2,0-0.3,0.1-0.5,0.1c-0.7,0.1-1.5,0.1-2.5,0.1c-0.6,0-1.3,0-1.9,0h-1.1l-0.1-0.1c-0.1,0-0.4-0.1-1.2-0.1
						c-0.9,0-2.1,0.1-2.8,0.1h-0.1c-0.1,0-0.3,0-0.9,0.1c-0.1,0-0.1,0-0.1,0c-0.4,0-1.4,0.1-1.8,0.2h-0.2c-0.9,0.1-1.8,0.2-2.7,0.2
						c-0.1,0-0.5,0-0.7,0h-2.1h-1.7c-0.8,0-1.7,0-2.6-0.2c-0.7-0.2-1.4-0.2-2.1-0.1h-0.3c-0.3,0-0.6,0.1-0.9,0.1
						c-0.6,0-1.2,0.1-1.8,0.3h-0.2c-1.2,0.6-1.7,1.5-1.5,2.8c0,0.5,0.1,7.3,0.2,7.8l0.4-5.5L-183.5,447.9L-183.5,447.9z
						 M-183.5,451.3c0,0.9-0.1,1.8-0.2,2.8l0.1-0.1c0.1-0.1,0.1-0.2,0.2-0.2v-0.1c0.1-0.3,0.2-0.6,0.2-0.9c0-0.2,0-0.3-0.1-0.6
						C-183.3,451.8-183.4,451.6-183.5,451.3z"/>
				</defs>
				<clipPath id="SVGID_3_">
					<use xlink:href="#SVGID_2_"  style="overflow:visible;"/>
				</clipPath>
				<g class="st3">
					<path class="st2" d="M-160.5,450.5"/>
				</g>
			</g>
		</g>
	</g>
</g>
</svg>
