<?xml version="1.0" encoding="utf-8"?>
<!-- Generator: Adobe Illustrator 19.0.0, SVG Export Plug-In . SVG Version: 6.00 Build 0)  -->
<svg version="1.1" id="Layer_1" xmlns="http://www.w3.org/2000/svg" xmlns:xlink="http://www.w3.org/1999/xlink" x="0px" y="0px"
	 viewBox="-226 348.9 143 145" style="enable-background:new -226 348.9 143 145;" xml:space="preserve">
<style type="text/css">
	.st0{fill:#119BD7;}
	.st1{fill:#FFFFFF;}
</style>
<circle class="st0" cx="-154.5" cy="421.4" r="55"/>
<path class="st1" d="M-113.9,420.9c-4.4-1.5-6.9,4.1-7.7,7.5c0,0.1,0,0.2-0.1,0.2l0,0c-0.8,3.3-2,4.9-2.3,4.8
	c-1-0.4-0.7-1.8-0.6-2.7c0.1-1.5,0.2-3-0.6-4.4c-0.6-1-1.8-1.3-3-1.3c0.1-0.2,0.1-0.4,0.2-0.5c0.1-0.2,0.2-0.4,0.3-0.7
	c0.5-1.1,1.2-2.2,2.1-3c0,0,0,0,0.1,0h0.1c0.5,0.2,1,0.8,1.2,1c1.2,1.2,4.8-0.7,3.8-1.9c-1.4-1.7-3.1-2-4.7-1.7
	c-1.1,0.2-2.1,0.7-3,1.4c-0.2,0.1-0.3,0.3-0.5,0.4c0.2-1.9,0.2-3.8-0.1-5.7c-0.1-1.1-2.4-0.5-3.5,0.5c-0.2,0.1-0.4,0.3-0.5,0.6l0,0
	l0,0c-0.4,1.3-2.8,2-4.8,0.3l0,0c-0.5-0.4-1.1-0.7-1.9-0.8c-4.5-0.4-6.2,4.8-6.7,8.4l0,0c-0.2,2.3-1.6,5.4-2.9,5.9
	c-0.3-0.3-0.5-0.6-0.6-1c-0.5-1.1-0.7-2.4-0.8-3.6c-0.3-3.3-0.4-6.7-0.3-10.1c0-0.7-0.6-0.9-1.3-0.7c-1.2,0.3-2.1,1.1-2.5,2
	c-1.4,3-2.1,6.3-2.5,9.5c-0.1,0.9-0.2,1.8-0.3,2.7c0,0.3-0.1,0.7-0.1,1.1c-0.7,0-1.3-0.8-1.3-1.3c0-1.2-1.5-0.6-2.5,0.3
	c0.6-1.7,0.8-3.5,0.8-5.2c0-3-0.8-9-4.9-8.7c-4.3,0.3-5.4,5.9-5.5,9.3c-0.1,3.3-0.3,6.1-0.5,6.7c-1.9,0.3-3-1.9-3.4-2.9
	c-0.9-2.3-1.4-4.7-1.7-7.1c-0.4-4.1-0.7-8.2-0.5-12.2c0-0.7-0.8-0.7-1.4-0.4c-0.9,0.4-1.7,1.2-2.1,2c-1.3,3-1.6,6.3-1.9,9.5v0.1
	c-0.1-0.3-0.1-0.6-0.1-0.8c-0.4-2.5-0.8-5.1-1.1-7.7c-0.2-1.5-0.5-3.6-0.2-4.9c0.4-2.1-2.7,0-3.2,0.9c-2.9,5.8-2,12.2-1.8,18.9
	c0.1,1.6,0,3.3-0.3,5c-0.2,1.1-0.4,3.2-1.3,4.1c-0.6,0.6-1.7,0.1-2.2-0.1c-0.8-0.4-1.3-1.3-1.4-2.2c-0.1-0.9-1.2-0.4-1.7,0.1
	c-0.7,0.7-1.4,1.9-1.3,2.9c0.4,2.2,2.3,4.2,4.7,3.5c3.8-1.2,5.4-5.7,6.2-9.2c0.5-2.1,0.6-4.2,0.6-6.2c0.8,3.8,1.5,7.5,2.3,11.3
	c0.4,2,3.2-1.4,3.2-2.6c0-2.7,0.1-5.4,0.4-8.2c0.5,3.2,1.3,10.7,6.2,9.9c2-0.3,3.1-1.8,3.8-3.5c0.7,1.5,1.8,2.6,3.5,2.5
	c1.6-0.1,3-1.5,4-2.8c0.2,1.3,1,2.3,2.5,2.3c1.9,0.1,3.7-1.1,4.8-2.5c0.5-0.6,0.8-1.3,1-2c0.1,0.3,0.1,0.7,0.2,1
	c0.2,1.1,0.6,2.4,1.5,3.2c1,0.9,2.6,0.3,3.5-0.4c1.1-0.7,1.9-1.8,2.6-3c0.3,2.2,1.2,4.2,3.4,4.6c2,0.3,4-1.4,5-2.8
	c1.2-1.7,1.7-3.8,2-5.8c0.2-1.2,0.3-3.4-0.1-5.4c1.5,0,2.5-0.5,3.2-1.1c-0.2,5.3-1.1,10.5-2,15.8c-0.2,0.9,0.9,1,1.5,0.8
	c0.9-0.2,1.9-0.9,2.1-1.8c0.4-1.6,0.9-3.2,1.4-4.7c1.9,2.2,0.2,5.3,1.6,7.4c0.8,1.1,3.2,1.1,4.4,0.4c0.5-0.3,0.9-0.6,1.2-0.9
	c0.3,1.7,1,3.1,2.6,3.7c1.9,0.8,4.1-0.6,5.2-1.8c1.4-1.5,2.2-3.4,2.7-5.4C-110.8,428.1-109.9,422.3-113.9,420.9z M-164,428.1
	c-0.1,0.4-0.2,0.8-0.3,1.2c-0.8-0.1-1.4-1.3-1.6-1.8c-0.6-1.3-0.9-2.8-1-4.3c-0.1-1.5-0.1-3.1,0.3-4.6c0.1-0.4,0.2-0.8,0.3-1.1
	c1.9,0.4,2.4,4.9,2.5,6.1C-163.7,425-163.7,426.6-164,428.1z M-140,428.9c-0.1,0.4-0.3,0.8-0.5,1.1c-0.7-0.3-1.2-1.6-1.3-2.2
	c-0.4-1.5-0.5-3-0.4-4.5c0.1-1.5,0.3-3.1,0.9-4.5c0.1-0.4,0.3-0.7,0.5-1.1c1.8,1.6,1.8,4.3,1.7,6.6
	C-139.3,425.9-139.5,427.5-140,428.9z M-116.6,434.9c-0.2,0.3-0.4,0.7-0.6,1c-0.7-0.4-0.9-1.8-1-2.4c-0.2-1.5,0-3.1,0.2-4.5
	c0.3-1.5,0.7-3,1.4-4.3c0.2-0.3,0.4-0.7,0.6-1c1.4,2.1,1.2,4.6,0.7,6.9C-115.6,432-116,433.6-116.6,434.9z"/>
<g id="bubbles">
</g>
</svg>
