<?xml version="1.0" encoding="utf-8"?>
<svg xmlns="http://www.w3.org/2000/svg"
	xmlns:xlink="http://www.w3.org/1999/xlink"
	width="50px" height="50px" viewBox="0 0 50 50">
<circle cx="25.00" cy="25.00" r="25.00" fill="rgb(141,228,70)"/><path fillRule="evenodd" d="M 39.77 25.44C 39.52 26.46 39.25 27.41 38.97 28.32 38.97 28.32 38.98 28.32 38.98 28.32 38.97 28.34 38.94 28.44 38.87 28.59 34.75 41.2 27 42.71 25.28 42.88 25.28 42.88 25.28 49.98 25.28 49.98 25.28 49.98 24.36 49.98 24.36 49.98 24.36 49.98 24.36 42.85 24.36 42.85 22.23 42.55 15 40.63 11.09 28.5 11.05 28.4 11.03 28.34 11.02 28.32 11.02 28.32 11.03 28.32 11.03 28.32 10.74 27.41 10.47 26.47 10.22 25.44 8.99 20.35 9.56 16.23 11.93 13.21 15.98 8.04 23.73 7.97 24.05 7.97 24.05 7.97 24.95 7.99 24.95 7.99 24.95 7.99 26.04 7.97 26.04 7.97 26.36 7.97 34.04 8.04 38.06 13.18 40.43 16.21 41.01 20.33 39.77 25.44ZM 37.08 30.58C 36.37 31.05 35.41 31.45 34.11 31.64 34.11 31.65 34.1 31.66 34.1 31.67 33.05 36.01 31.34 38.6 29.68 40.15 32.07 38.64 34.92 35.82 37.08 30.58ZM 24.89 40.99C 24.99 40.99 28.08 40.8 29.38 35.44 29.75 33.88 29.6 32.64 28.91 31.76 27.74 30.26 25.36 30.2 25.26 30.2 25.26 30.2 24.89 30.21 24.89 30.21 24.89 30.21 24.56 30.2 24.56 30.2 24.55 30.2 22.08 30.23 20.88 31.77 20.2 32.65 20.04 33.88 20.42 35.44 21.72 40.85 24.86 40.99 24.89 40.99ZM 19.77 39.84C 18.22 38.26 16.67 35.73 15.69 31.67 15.68 31.65 15.68 31.63 15.68 31.61 14.47 31.4 13.56 31.01 12.89 30.56 14.9 35.48 17.5 38.26 19.77 39.84ZM 11.18 25.21C 11.43 26.23 11.7 27.18 11.98 28.07 12.06 28.29 12.75 29.93 15.46 30.54 15.03 27.88 15.47 25.7 16.77 24.03 17.27 23.39 17.87 22.88 18.5 22.46 13.95 21.37 11.95 18.54 11.13 16.88 10.4 19.21 10.4 21.99 11.18 25.21ZM 24.54 8.97C 24.54 8.97 24.05 8.97 24.05 8.97 24.01 8.97 21.25 9 18.24 10.08 18.79 11.38 20.62 14.81 24.54 14.98 24.54 14.98 24.54 8.97 24.54 8.97ZM 24.54 15.97C 19.87 15.81 17.91 11.89 17.34 10.43 15.65 11.15 13.97 12.22 12.71 13.83 12.29 14.36 11.95 14.95 11.66 15.56 11.96 16.51 13.67 20.75 19.89 21.72 22.05 20.79 24.19 20.76 24.32 20.76 24.32 20.76 24.54 20.76 24.54 20.76 24.54 20.76 24.54 15.97 24.54 15.97ZM 24.87 21.77C 24.87 21.77 24.31 21.76 24.31 21.76 24.28 21.76 19.77 21.8 17.55 24.65 16.26 26.29 15.96 28.58 16.65 31.43 17.82 36.26 19.79 38.77 21.52 40.07 20.72 39.14 19.95 37.75 19.45 35.67 19 33.8 19.22 32.28 20.11 31.15 21.61 29.23 24.45 29.21 24.57 29.21 24.57 29.21 24.89 29.21 24.89 29.21 24.89 29.21 25.26 29.21 25.26 29.21 25.38 29.21 28.19 29.23 29.69 31.14 30.57 32.27 30.79 33.8 30.34 35.67 29.85 37.71 29.1 39.08 28.31 40.02 30.03 38.7 31.99 36.2 33.14 31.43 33.83 28.56 33.53 26.27 32.24 24.63 30.05 21.83 25.67 21.76 25.53 21.76 25.53 21.76 24.87 21.77 24.87 21.77ZM 26.04 8.97C 26.04 8.97 25.46 8.97 25.46 8.97 25.46 8.97 25.46 14.95 25.46 14.95 29.23 14.6 31.05 11.19 31.57 9.99 28.72 9.01 26.15 8.97 26.04 8.97ZM 37.28 13.8C 35.98 12.13 34.21 11.05 32.47 10.33 31.94 11.66 30 15.6 25.46 15.95 25.46 15.95 25.46 20.76 25.46 20.76 25.46 20.76 25.53 20.76 25.53 20.76 25.67 20.76 27.82 20.79 29.99 21.74 36.33 20.81 38.04 16.49 38.34 15.55 38.05 14.93 37.71 14.34 37.28 13.8ZM 38.86 16.88C 38.05 18.56 36.01 21.41 31.37 22.49 31.97 22.9 32.54 23.4 33.02 24.02 34.34 25.69 34.77 27.9 34.32 30.58 36.88 30.08 37.75 28.66 37.96 28.19 38.27 27.26 38.55 26.27 38.8 25.21 39.58 21.98 39.59 19.2 38.86 16.88Z" fill="rgb(255,255,255)"/></svg>