<?xml version="1.0" encoding="utf-8"?>
<svg xmlns="http://www.w3.org/2000/svg"
	xmlns:xlink="http://www.w3.org/1999/xlink"
	width="50px" height="50px" viewBox="0 0 50 50">
<circle cx="25.00" cy="25.00" r="25.00" fill="rgb(55,156,24)"/><path fillRule="evenodd" d="M 36.76 36.82C 36.66 36.96 36.5 37.15 36.45 37.23 36.46 37.34 36.51 37.57 36.55 37.74 36.74 38.47 37.01 39.59 36.32 40.7 35.7 41.7 34.95 42.16 33.94 42.16 33.43 42.16 32.89 42.04 32.37 41.91 32.24 42 32.03 42.24 31.89 42.39 31.43 42.9 30.86 43.53 29.98 43.53 28.94 43.53 28.27 42.64 27.85 41.96 27.39 41.21 27.07 40.93 26.93 40.83 26.89 40.89 26.84 40.94 26.77 41.01 26.77 41.01 26.05 41.68 26.05 41.68 26.02 41.71 25.99 41.72 25.96 41.74 25.96 41.74 25.96 49.98 25.96 49.98 25.96 49.98 25.02 49.98 25.02 49.98 25.02 49.98 25.02 41.88 25.02 41.88 24.85 41.83 24.69 41.74 24.57 41.6 24.57 41.6 24 40.93 24 40.93 23.98 40.91 23.96 40.89 23.95 40.87 23.78 41 23.49 41.29 23.08 41.96 22.66 42.64 21.99 43.53 20.96 43.53 20.07 43.53 19.51 42.9 19.06 42.39 18.92 42.24 18.71 42 18.59 41.91 18.04 42.04 17.53 42.16 17.03 42.16 16.02 42.16 15.27 41.7 14.65 40.7 13.96 39.59 14.24 38.47 14.43 37.73 14.47 37.57 14.52 37.35 14.54 37.24 14.47 37.13 14.32 36.95 14.22 36.82 13.71 36.18 13.01 35.3 13.23 34.32 13.32 33.94 13.59 33.41 14.35 33.04 15.12 32.67 15.67 32.15 15.73 31.74 15.77 31.5 15.61 31.23 15.27 30.92 15.24 30.9 15.22 30.87 15.19 30.85 15.09 30.73 14.82 30.42 14.55 30.01 14.49 29.95 14.45 29.88 14.43 29.81 14.03 29.15 13.68 28.28 13.88 27.47 14.04 26.81 14.53 26.31 15.24 26.03 15.35 25.99 15.42 25.96 15.46 25.93 15.41 25.78 15.26 25.51 15.17 25.33 14.94 24.93 14.7 24.51 14.69 24.02 14.67 23.19 14.97 22.39 15.53 21.83 16.19 21.17 17.14 20.84 18.37 20.84 18.52 20.84 18.68 20.84 18.84 20.85 18.86 20.85 18.87 20.86 18.88 20.86 18.8 20.7 18.71 20.54 18.65 20.42 18.37 19.92 18.12 19.48 18.11 19.01 18.08 17.96 18.62 16.67 21.35 16.46 21.76 16.43 21.87 16.27 21.94 16.13 22.07 15.81 21.96 15.4 21.88 15.31 21.23 14.6 20.19 12.1 20.53 9.86 20.75 8.38 21.53 7.21 22.74 6.5 23.54 5.97 24.37 5.19 24.45 4.89 24.5 4.38 24.94 3.97 25.46 3.97 25.99 3.97 26.43 4.36 26.47 4.88 26.55 5.18 27.41 5.96 28.21 6.47 29.45 7.21 30.23 8.38 30.45 9.86 30.79 12.1 29.76 14.6 29.11 15.31 29.02 15.4 28.91 15.81 29.05 16.13 29.11 16.27 29.23 16.43 29.63 16.46 32.36 16.67 32.9 17.96 32.88 19.01 32.86 19.48 32.62 19.92 32.33 20.42 32.27 20.54 32.18 20.7 32.1 20.86 32.11 20.86 32.13 20.85 32.14 20.85 32.31 20.84 32.46 20.84 32.61 20.84 33.84 20.84 34.79 21.17 35.45 21.83 36.01 22.39 36.32 23.19 36.3 24.02 36.29 24.51 36.05 24.93 35.82 25.33 35.72 25.51 35.57 25.78 35.52 25.93 35.56 25.96 35.63 25.99 35.74 26.03 36.46 26.31 36.94 26.81 37.1 27.47 37.46 28.91 36.07 30.54 35.79 30.85 35.77 30.87 35.74 30.9 35.71 30.92 35.37 31.23 35.22 31.5 35.25 31.74 35.31 32.15 35.86 32.67 36.63 33.04 37.4 33.41 37.66 33.94 37.75 34.32 37.98 35.3 37.28 36.18 36.76 36.82ZM 25.02 5.84C 24.39 6.61 23.3 7.32 23.3 7.32 20.06 9.25 22.01 13.96 22.63 14.64 23.26 15.32 23.27 17.31 21.43 17.45 19.59 17.59 19.1 18.19 19.12 18.98 19.13 19.44 19.88 20.35 20.03 21.03 20.79 21.58 22.93 23.02 25.02 23.42 25.02 23.42 25.02 5.84 25.02 5.84ZM 25.02 24.43C 22.64 24.03 20.27 22.44 19.43 21.83 19.32 21.85 19.19 21.86 19.05 21.86 18.97 21.86 18.87 21.85 18.78 21.85 18.63 21.84 18.5 21.83 18.37 21.83 16.06 21.83 15.68 23.24 15.7 24 15.72 24.79 17.53 26.24 15.61 26.96 14.41 27.41 14.83 28.55 15.33 29.34 16.26 29.94 22.17 33.66 25.02 34.35 25.02 34.35 25.02 24.43 25.02 24.43ZM 25.02 35.36C 22.86 34.92 19.08 32.8 16.72 31.38 16.93 32.43 15.97 33.37 14.8 33.93 13.21 34.7 15.28 36.25 15.51 36.94 15.75 37.64 14.75 38.95 15.52 40.19 15.97 40.93 16.43 41.16 17.03 41.16 17.42 41.16 17.88 41.06 18.44 40.92 18.51 40.91 18.57 40.9 18.62 40.9 19.52 40.9 20.1 42.54 20.96 42.54 21.31 42.54 21.72 42.25 22.21 41.45 23.02 40.14 23.62 39.78 24.04 39.78 24.54 39.78 24.77 40.29 24.77 40.29 24.77 40.29 25.02 40.58 25.02 40.58 25.02 40.58 25.02 35.36 25.02 35.36ZM 28.72 41.45C 29.21 42.25 29.62 42.54 29.98 42.54 30.84 42.54 31.43 40.9 32.33 40.9 32.39 40.9 32.45 40.91 32.51 40.92 33.07 41.06 33.53 41.16 33.94 41.16 34.53 41.16 35 40.93 35.45 40.19 36.22 38.95 35.23 37.64 35.47 36.94 35.65 36.42 36.86 35.42 36.77 34.62 35.52 35.5 30.62 38.88 27.5 40.03 27.85 40.27 28.25 40.68 28.72 41.45ZM 27.68 7.32C 27.68 7.32 26.62 6.64 25.96 5.89 25.96 5.89 25.96 17.55 25.96 17.55 25.97 17.55 25.98 17.54 26 17.54 26.75 17.44 27.65 16.79 28.09 16.42 27.86 15.78 28.01 15.02 28.35 14.64 28.98 13.96 30.93 9.25 27.68 7.32ZM 32.61 21.83C 32.49 21.83 32.35 21.84 32.21 21.85 32.11 21.85 32.02 21.86 31.93 21.86 29.7 21.86 31.84 19.75 31.86 18.98 31.88 18.19 31.39 17.59 29.55 17.45 29.21 17.43 28.95 17.32 28.73 17.19 28.28 17.57 27.2 18.39 26.13 18.52 26.1 18.53 26.08 18.53 26.06 18.53 26.03 18.53 25.99 18.52 25.96 18.51 25.96 18.51 25.96 23.83 25.96 23.83 25.99 23.9 26 23.97 26 24.05 25.99 24.09 25.97 24.12 25.96 24.16 25.96 24.16 25.96 29.48 25.96 29.48 25.98 29.48 25.99 29.47 26 29.47 28.02 29.24 33.26 25.8 35.13 24.48 35.22 24.3 35.28 24.14 35.28 24 35.3 23.24 34.92 21.83 32.61 21.83ZM 35.03 30.19C 35.03 30.19 37.3 27.69 35.38 26.96 34.78 26.74 34.54 26.44 34.5 26.12 32.38 27.54 28.14 30.22 26.12 30.46 26.1 30.46 26.08 30.46 26.06 30.46 26.03 30.46 25.99 30.45 25.96 30.44 25.96 30.44 25.96 34.77 25.96 34.77 25.99 34.84 26 34.91 26 34.99 25.99 35.03 25.97 35.06 25.96 35.1 25.96 35.1 25.96 39.43 25.96 39.43 25.98 39.43 25.99 39.42 26 39.42 28.43 39.13 34.49 35 36.09 33.88 34.54 33.1 33.39 31.65 35.03 30.19Z" fill="rgb(255,255,255)"/></svg>