<?xml version="1.0" encoding="utf-8"?>
<svg xmlns="http://www.w3.org/2000/svg"
	xmlns:xlink="http://www.w3.org/1999/xlink"
	width="18px" height="28px" viewBox="0 0 18 28">
<path fillRule="evenodd" d="M 17.68 24.96C 17.68 24.96 14.85 27.79 14.85 27.79 14.85 27.79 3.54 16.47 3.54 16.47 3.54 16.47 3.54 16.47 3.54 16.47 3.54 16.47 3.34 16.28 3.34 16.28 3.34 16.28 1.42 14.35 1.42 14.35 1.42 14.35 1.42 14.35 1.42 14.35 1.42 14.35 0.71 13.65 0.71 13.65 0.71 13.65 14.15 0.21 14.15 0.21 14.15 0.21 16.97 3.04 16.97 3.04 16.97 3.04 6.37 13.65 6.37 13.65 6.37 13.65 17.68 24.96 17.68 24.96Z" fill="rgb(55,55,55)"/></svg>