<?xml version="1.0" encoding="utf-8"?>
<svg xmlns="http://www.w3.org/2000/svg"
	xmlns:xlink="http://www.w3.org/1999/xlink"
	width="34px" height="34px" viewBox="0 0 34 34">
<path fillRule="evenodd" d="M 0 17C 0 7.61 7.61-0 17-0 26.39-0 34 7.61 34 17 34 26.39 26.39 34 17 34 7.61 34 0 26.39 0 17Z" fill="rgb(255,255,255)"/><path fillRule="evenodd" d="M 20 21.77C 20 21.77 18.83 23 18.83 23 18.83 23 13.29 17.15 13.29 17.15 13.29 17.15 13.29 17.15 13.29 17.15 13.29 17.15 13 16.85 13 16.85 13 16.85 18.54 11 18.54 11 18.54 11 19.71 12.23 19.71 12.23 19.71 12.23 15.33 16.85 15.33 16.85 15.33 16.85 20 21.77 20 21.77Z" fill="rgb(97,187,69)"/></svg>