<?xml version="1.0" encoding="utf-8"?>
<svg xmlns="http://www.w3.org/2000/svg"
	xmlns:xlink="http://www.w3.org/1999/xlink"
	width="50px" height="50px" viewBox="0 0 50 50">
<circle cx="25.00" cy="25.00" r="25.00" fill="rgb(235,83,57)"/><path fillRule="evenodd" d="M 39.01 24.99C 39.01 27.14 37.58 28.93 35.62 29.53 36.93 31.38 36.77 33.97 35.11 35.63 34.18 36.56 32.96 37.02 31.74 37.02 30.88 37.02 30.03 36.77 29.27 36.31 28.5 37.89 26.88 39 25 39 22.97 39 21.24 37.71 20.56 35.91 19.68 36.64 18.62 37.02 17.54 37.02 16.32 37.02 15.1 36.56 14.17 35.63 12.45 33.9 12.35 31.2 13.82 29.33 12.16 28.58 11 26.92 11 24.99 11 23.1 12.11 21.48 13.72 20.71 12.34 18.84 12.48 16.2 14.17 14.52 15.91 12.78 18.65 12.69 20.52 14.2 21.17 12.34 22.92 10.99 25 10.99 26.93 10.99 28.59 12.15 29.34 13.8 31.16 12.73 33.55 12.95 35.11 14.52 36.73 16.14 36.92 18.63 35.71 20.48 37.62 21.1 39.01 22.88 39.01 24.99ZM 29.77 34.23C 29.77 34.71 29.68 35.16 29.54 35.6 31.11 36.63 33.22 36.49 34.6 35.11 36.08 33.63 36.15 31.28 34.84 29.7 34.64 29.72 34.45 29.76 34.24 29.76 33.32 29.76 32.43 29.49 31.65 28.99 31.65 28.99 30.04 28.1 30.04 28.1 29.55 28.87 28.87 29.5 28.08 29.96 28.08 29.96 29.14 31.87 29.14 31.87 29.55 32.59 29.77 33.41 29.77 34.23ZM 25.12 20.04C 22.42 20.04 20.22 22.23 20.22 24.94 20.22 27.64 22.42 29.84 25.12 29.84 27.83 29.84 30.02 27.64 30.02 24.94 30.02 22.23 27.83 20.04 25.12 20.04ZM 25 38.27C 27.23 38.27 29.04 36.46 29.04 34.23 29.04 33.53 28.86 32.84 28.51 32.23 28.51 32.23 28.51 32.23 28.51 32.23 28.51 32.23 27.45 30.31 27.45 30.31 26.73 30.62 25.95 30.8 25.12 30.8 24.23 30.8 23.38 30.58 22.62 30.21 22.62 30.21 21.63 32.01 21.63 32.01 21.19 32.69 20.97 33.45 20.97 34.23 20.97 36.46 22.78 38.27 25 38.27ZM 14.68 35.11C 16.24 36.67 18.76 36.68 20.33 35.16 20.27 34.86 20.24 34.55 20.24 34.23 20.24 33.31 20.51 32.41 21.01 31.64 21.01 31.64 21.99 29.87 21.99 29.87 21.24 29.39 20.62 28.75 20.15 28 20.15 28 18.12 29.13 18.12 29.13 17.4 29.54 16.59 29.76 15.76 29.76 15.34 29.76 14.93 29.68 14.54 29.58 13.13 31.16 13.16 33.59 14.68 35.11ZM 11.73 24.99C 11.73 27.22 13.54 29.03 15.76 29.03 16.46 29.03 17.16 28.85 17.76 28.5 17.76 28.5 17.77 28.5 17.77 28.5 17.77 28.5 19.81 27.37 19.81 27.37 19.47 26.62 19.26 25.8 19.26 24.94 19.26 24.1 19.44 23.32 19.76 22.6 19.76 22.6 17.98 21.62 17.98 21.62 17.3 21.18 16.55 20.95 15.76 20.95 13.54 20.95 11.73 22.76 11.73 24.99ZM 20.24 15.75C 20.24 15.48 20.28 15.23 20.32 14.97 19.54 14.23 18.54 13.85 17.54 13.85 16.5 13.85 15.47 14.25 14.68 15.03 13.2 16.51 13.14 18.85 14.44 20.44 14.86 20.31 15.3 20.23 15.76 20.23 16.69 20.23 17.58 20.49 18.36 20.99 18.36 20.99 20.1 21.96 20.1 21.96 20.56 21.19 21.18 20.52 21.93 20.03 21.93 20.03 20.86 18.11 20.86 18.11 20.86 18.11 20.86 18.11 20.86 18.11 20.46 17.39 20.24 16.58 20.24 15.75ZM 25 11.71C 22.78 11.71 20.97 13.52 20.97 15.75 20.97 16.45 21.15 17.14 21.5 17.75 21.5 17.75 21.5 17.75 21.5 17.75 21.5 17.75 22.57 19.69 22.57 19.69 23.35 19.31 24.2 19.08 25.12 19.08 25.96 19.08 26.76 19.26 27.49 19.58 27.49 19.58 28.38 17.97 28.38 17.97 28.82 17.29 29.04 16.53 29.04 15.75 29.04 13.52 27.23 11.71 25 11.71ZM 34.6 15.03C 33.81 14.25 32.78 13.85 31.74 13.85 30.99 13.85 30.24 14.08 29.58 14.5 29.69 14.9 29.77 15.32 29.77 15.75 29.77 16.67 29.5 17.57 29 18.34 29 18.34 28.12 19.93 28.12 19.93 28.92 20.41 29.59 21.06 30.08 21.85 30.08 21.85 31.89 20.85 31.89 20.85 32.6 20.44 33.42 20.23 34.24 20.23 34.48 20.23 34.71 20.26 34.94 20.3 36.13 18.72 36.04 16.47 34.6 15.03ZM 34.24 20.95C 33.54 20.95 32.85 21.14 32.25 21.48 32.25 21.48 32.24 21.49 32.24 21.49 32.24 21.49 30.43 22.49 30.43 22.49 30.78 23.24 30.98 24.06 30.98 24.94 30.98 25.84 30.76 26.69 30.39 27.46 30.39 27.46 32.03 28.37 32.03 28.37 32.7 28.8 33.46 29.03 34.24 29.03 36.47 29.03 38.28 27.22 38.28 24.99 38.28 22.76 36.47 20.95 34.24 20.95Z" fill="rgb(255,255,255)"/></svg>