<?xml version="1.0" encoding="utf-8"?>
<svg xmlns="http://www.w3.org/2000/svg"
	xmlns:xlink="http://www.w3.org/1999/xlink"
	width="50px" height="50px" viewBox="0 0 50 50">
<circle cx="25.00" cy="25.00" r="25.00" fill="rgb(252,204,55)"/><path fillRule="evenodd" d="M 40.9 24.44C 40.96 24.44 41 24.62 41 24.85 41 25.09 40.96 25.27 40.9 25.27 40.9 25.27 35.65 25.27 35.65 25.27 35.5 27.73 34.47 29.95 32.87 31.63 32.87 31.63 36.69 35.45 36.69 35.45 36.73 35.49 36.62 35.65 36.46 35.82 36.3 35.98 36.13 36.08 36.1 36.04 36.1 36.04 32.27 32.22 32.27 32.22 30.57 33.74 28.36 34.7 25.92 34.8 25.92 34.8 25.92 39.9 25.92 39.9 25.92 39.96 25.73 40 25.5 40 25.27 40 25.08 39.96 25.08 39.9 25.08 39.9 25.08 34.8 25.08 34.8 22.65 34.7 20.44 33.73 18.74 32.21 18.74 32.21 14.9 36.04 14.9 36.04 14.87 36.08 14.7 35.98 14.54 35.82 14.38 35.65 14.27 35.49 14.31 35.45 14.31 35.45 18.14 31.62 18.14 31.62 16.55 29.94 15.52 27.73 15.37 25.27 15.37 25.27 10.1 25.27 10.1 25.27 10.04 25.27 10 25.09 10 24.85 10 24.62 10.04 24.44 10.1 24.44 10.1 24.44 15.34 24.44 15.34 24.44 15.4 21.92 16.37 19.63 17.94 17.88 17.94 17.88 14.31 14.26 14.31 14.26 14.27 14.22 14.38 14.06 14.54 13.89 14.7 13.73 14.87 13.63 14.9 13.67 14.9 13.67 18.52 17.28 18.52 17.28 20.25 15.65 22.54 14.6 25.08 14.49 25.08 14.49 25.08 9.1 25.08 9.1 25.08 9.04 25.27 9 25.5 9 25.73 9 25.92 9.04 25.92 9.1 25.92 9.1 25.92 14.49 25.92 14.49 28.46 14.59 30.76 15.64 32.49 17.27 32.49 17.27 36.1 13.67 36.1 13.67 36.13 13.63 36.3 13.73 36.46 13.89 36.62 14.06 36.73 14.22 36.69 14.26 36.69 14.26 33.07 17.87 33.07 17.87 34.64 19.63 35.62 21.91 35.67 24.44 35.67 24.44 40.9 24.44 40.9 24.44ZM 25.51 15.31C 20.36 15.31 16.17 19.5 16.17 24.65 16.17 29.79 20.36 33.98 25.51 33.98 30.66 33.98 34.85 29.79 34.85 24.65 34.85 19.5 30.66 15.31 25.51 15.31Z" fill="rgb(255,255,255)"/></svg>