<?xml version="1.0" encoding="utf-8"?>
<!-- Generator: Adobe Illustrator 19.0.0, SVG Export Plug-In . SVG Version: 6.00 Build 0)  -->
<svg version="1.1" id="Layer_1" xmlns="http://www.w3.org/2000/svg" xmlns:xlink="http://www.w3.org/1999/xlink" x="0px" y="0px"
	 viewBox="0 0 107.4 43" style="enable-background:new 0 0 107.4 43;" xml:space="preserve">
	 <style type='text/css'>
	 	path{
	 		fill: #515151;
	 	}
	 </style>
<path d="M12.6,24.2c0.1,4.1,3.9,3.7,5.9,1c3.7-4.9,1.2-11.8,4.3-16.8c-0.7,0.2-1.5,0.5-2.2,0.7c-1.1,5.5-0.1,11.8,0.2,17.3
	c0.1,1.5,2.3-0.5,2.4-1.3c0.6-4.6,1.1-10.1,3-14.3c-0.7,0.2-1.5,0.5-2.2,0.7c-0.4,2.9-2,15.1,2.5,15.7c1,0.1,2.8-2.2,1.8-2.3
	c-3.7-0.5-2.3-12-1.9-14.6c0.2-1.3-2,0.3-2.2,0.7c-2.1,4.6-2.8,10.5-3.4,15.5c0.8-0.4,1.6-0.9,2.4-1.3c-0.3-5.5-1.4-11.9-0.2-17.3
	c0.3-1.4-2,0.4-2.2,0.7c-1.4,2.3-1.7,4.9-2,7.5c-0.2,1.5-0.2,3-0.5,4.5c-0.1,0.8-0.2,2.3-0.8,3c-1.1,1.4-2.5,1.1-2.5-0.7
	C15,21.5,12.6,23.2,12.6,24.2L12.6,24.2z"/>
<path d="M38.8,16.6c0.8-0.6,2-0.4,2.3,0.7c0.3,1.4-1.6,2.9-2.2,3.9c-0.8,1.2-1.5,2.8-1.1,4.2c0.9,3.4,4.5,1.6,6.2,0.1
	c1.4-1.2,0.3-2.3-1.1-1.1c-2,1.7-3.4-0.7-2.6-2.5c0.9-1.8,2.7-3.1,3.1-5.2c0.6-3.4-3.1-3.3-5-1.7C37.2,16,37.2,17.9,38.8,16.6
	L38.8,16.6z"/>
<path d="M70.9,15.7c0.2,3.7,0.5,7.5,0.3,11.2c-0.1,1.4,2.3-0.4,2.4-1.3c0.3-2.4,0.8-3.4,2.2-5.1c1.5-1.7,2.2-3.7,2.7-5.9
	c0.4-1.7-2-0.1-2.3,0.8c-1,2.9-1,6.3-0.6,9.3c0.1,0.7,0.2,2.1,0.9,2.6c1.1,0.7,2.8-0.7,3.6-1.4c1.3-1.2,0.2-2.3-1.1-1.1
	c-1,1-1.2-3.8-1.2-4.3c0-2,0-4,0.6-5.9c-0.8,0.3-1.5,0.5-2.3,0.8c-0.6,2.5-1.4,3.8-2.9,5.6c-1.4,1.7-1.8,3.7-2.1,5.9
	c0.8-0.4,1.6-0.9,2.4-1.3c0.2-3.7-0.1-7.5-0.3-11.2C73.2,13,70.9,14.7,70.9,15.7L70.9,15.7z"/>
<g>
	<path d="M54,25.9c4.2-0.6,5.2-6.1,4.6-9.5c-0.2-1.3-0.9-3-2.5-2.8c-2.5,0.3-3.7,3.1-3.8,5.3c0,1.4,2.4-0.3,2.4-1.3
		c0-0.9,0-2.4,1-1.2c0.5,0.6,0.6,1.6,0.7,2.3c0.1,1.1,0.1,4.6-1,4.8C54.4,23.6,52.7,26.1,54,25.9L54,25.9z"/>
	<path d="M57.9,25.7c-3,1.9-6.9,6.3-6,10.3c0.8,3.3,4.5,1.3,5.8-0.5c2-2.9,3.5-15-3-11.8c-1,0.5-1.9,2.9-0.2,2
		c3.2-1.6,2.6,6.2,2.2,7.5c-0.3,1-0.9,3.3-2.3,1.8c-1.8-2,1.7-6.3,3.2-7.3C58.6,27.1,59.5,24.7,57.9,25.7L57.9,25.7z"/>
</g>
<path d="M71,23.8c-0.5,0.5-1.5,1.4-2.3,1c-0.6-0.3-0.8-1.8-0.9-2.4c-0.4-2.6-0.2-5.4-0.1-8c0.1-1.3-2.3,0.4-2.4,1.3
	c-0.1,2-0.1,4-0.3,6c-0.1,0.9-0.2,1.9-0.5,2.8c-0.3,0.8-0.4,1-1,0.2c-1.9-2.3-1-7-0.3-9.7c0.4-1.6-2-0.2-2.3,0.8
	c-0.6,2.4-2.5,11.8,2.1,11.7c5.3-0.1,4.5-9.9,4.7-13c-0.8,0.4-1.6,0.9-2.4,1.3c-0.1,3-0.9,8,0.9,10.7c1.5,2.3,4.5-0.2,5.8-1.5
	C73.4,23.6,72.3,22.6,71,23.8L71,23.8z"/>
<g>
	<path d="M88.9,15.8c-1,2.9-1,6.3-0.6,9.3c0.1,0.7,0.2,2.1,0.9,2.6c1.1,0.7,2.8-0.7,3.6-1.4c1.3-1.2,0.2-2.3-1.1-1.1
		c-1,1-1.2-3.8-1.2-4.3c0-2,0-4,0.6-5.9C91.7,13.5,89.2,14.9,88.9,15.8L88.9,15.8z"/>
	<path d="M80.6,24.3c1.1-0.5,3.3-1.4,3.8,0.3c0.4,1.3-1.1,0.7-1.6,0c-1.7-2.4-0.7-7.2,0-9.8c0.4-1.7-2.1-0.2-2.4,0.8
		c-0.7,2.5-2.5,14.2,3.3,12c1.7-0.6,3.3-2.6,3.1-4.5c-0.3-2.9-3.8-1.9-5.5-1.2c-0.6,0.2-1.5,0.9-1.6,1.6
		C79.8,24.1,79.9,24.6,80.6,24.3L80.6,24.3z"/>
</g>
<path d="M34.2,15.9c-0.2-3.6-4.3-1.6-5.5,0.2c-1.6,2.4-1.9,5.8-1.4,8.5c0.5,2.6,2.6,3.5,4.6,1.5C34.5,23.7,34,19.1,34.2,15.9
	c-0.8,0.4-1.6,0.9-2.4,1.3c-0.1,2.1-1.1,13,3.8,9.5c1.2-0.8,1.2-2.8-0.5-1.6c-0.4,0.3-0.9-2.9-0.9-3C34.1,20.1,34.1,18,34.2,15.9
	c0.1-1.4-2.3,0.4-2.4,1.3c-0.1,1.9-0.1,3.9-0.4,5.8c-0.1,0.6-0.3,2-0.6,2c-0.5-0.1-0.8-0.8-0.9-1.2c-0.5-1.3-0.5-2.9-0.3-4.3
	c0.1-0.8,0.2-1.5,0.5-2.3c0.3-0.7,1.7-2,1.8,0C31.9,18.6,34.3,16.9,34.2,15.9L34.2,15.9z"/>
<path d="M50.9,15.9c-0.2-3.6-4.3-1.6-5.5,0.2c-1.6,2.4-1.9,5.8-1.4,8.5c0.5,2.6,2.6,3.5,4.6,1.5C51.3,23.7,50.7,19.1,50.9,15.9
	c-0.8,0.4-1.6,0.9-2.4,1.3c-0.1,2.1-1.1,13,3.8,9.5c1.2-0.8,1.2-2.8-0.5-1.6c-0.4,0.3-0.9-2.9-0.9-3C50.8,20.1,50.9,18,50.9,15.9
	c0.1-1.4-2.3,0.4-2.4,1.3c-0.1,1.9-0.1,3.9-0.4,5.8c-0.1,0.6-0.3,2-0.6,2c-0.5-0.1-0.8-0.8-0.9-1.2c-0.5-1.3-0.5-2.9-0.3-4.3
	c0.1-0.8,0.2-1.5,0.5-2.3c0.3-0.7,1.7-2,1.8,0C48.6,18.6,51,16.9,50.9,15.9L50.9,15.9z"/>
</svg>
