<?xml version="1.0" encoding="utf-8"?>
<!-- Generator: Adobe Illustrator 19.0.0, SVG Export Plug-In . SVG Version: 6.00 Build 0)  -->
<svg version="1.1" id="Layer_1" xmlns="http://www.w3.org/2000/svg" xmlns:xlink="http://www.w3.org/1999/xlink" x="0px" y="0px"
	 viewBox="0 0 63.9 36.7" style="enable-background:new 0 0 63.9 36.7;" xml:space="preserve">
	 <style type='text/css'>
	 	path{
	 		fill: #515151;
	 	}
	 </style>
<g>
	<g>
		<g>
			<path d="M11,24c-0.1,2.5,2,3.9,4.2,2.9c2.4-1.1,3.7-3.5,4-6c0.1-0.7-0.7-0.6-1.1-0.3c-0.6,0.3-1.2,1-1.3,1.6
				c-0.1,0.8-0.2,2.2-1.1,2.6c-1.4,0.6-2.4-0.7-2.4-2C13.4,21.3,11,23,11,24L11,24z"/>
		</g>
	</g>
	<g>
		<g>
			<g>
				<path d="M18.2,6.3c-3.1,0.2-7.4,1.7-7.9,5.2c-0.1,0.7,0.7,0.5,1.1,0.3c0.6-0.3,1.2-0.9,1.3-1.6c0.2-1.2,3.2-1.5,4.2-1.6
					c0.7,0,1.3-0.7,1.6-1.3C18.8,7,18.9,6.2,18.2,6.3L18.2,6.3z"/>
			</g>
		</g>
		<g>
			<g>
				<path d="M19.2,12.8c-0.1-0.9-0.6-3.1-1.8-3.3c-1-0.2-2.1,0.2-2.9,0.8c-1.8,1.3-2.7,3.3-2.9,5.5c-0.2,1.9,0.4,4.3,2.1,5.4
					c2.3,1.5,4.8-0.5,5.4-2.8c0.5-1.6-2-0.2-2.3,0.8c-0.2,0.6-1.7-0.6-2-0.9c-0.7-0.8-0.9-2-1-3c0-1,0.1-2.2,0.7-3
					c1.1-1.6,2.1,1.7,2.2,2.4C17,15.5,19.3,13.8,19.2,12.8L19.2,12.8z"/>
			</g>
		</g>
		<g>
			<g>
				<path d="M16.9,19.3c0.1,2.5,2.6,3,4.5,1.5c1.9-1.5,2.6-3.8,2.6-6.2c-0.1-1.9-0.6-4.3-2.5-5.1c-2.7-1.2-4.5,2.8-4.5,4.8
					c0,1.4,2.4-0.4,2.4-1.3c0-0.6-0.1-1.5,0.7-1c0.3,0.2,0.6,0.5,0.8,0.8c0.6,0.9,0.8,2.1,0.9,3.1c0.1,1-0.1,1.9-0.4,2.8
					c-0.4,1.1-1.8,0.4-1.9-0.8C19.2,16.6,16.9,18.3,16.9,19.3L16.9,19.3z"/>
			</g>
		</g>
		<g>
			<g>
				<path d="M16.4,8.4c0.6,4.4,0.6,9,0.4,13.4c-0.1,1.4,2.3-0.4,2.4-1.3c0.2-4.6,0.2-9.3-0.4-13.9C18.6,5.6,16.3,7.4,16.4,8.4
					L16.4,8.4z"/>
			</g>
		</g>
	</g>
</g>
<g>
	<g>
		<path d="M26.2,23.7c1.3-1.6,6.4-8.6,2.2-10c-2.8-0.9-4.3,3.5-4.6,5.4c-0.4,2.3-0.6,6.7,1.9,7.9c2.4,1.1,6.8-3.1,7.9-5
			c1-1.7-1.4-0.8-2,0.2c-0.6,1-3.3,3-4.3,2.3C26,23.7,26,21.3,26,20c0-0.9,0.1-1.8,0.3-2.6c0.1-0.4,0.2-0.7,0.3-1.1
			c0.3-0.8,0.3-0.2,0-0.2c2.9,0.3-1.4,6.4-2,7.2C23.3,24.8,25.3,24.8,26.2,23.7L26.2,23.7z"/>
	</g>
</g>
<g>
	<g>
		<path d="M35.9,23.2c0.7,3.7,4,3.4,5.6,0.6c1.7-3.1,0.6-7.3,2.3-10.2c-0.7,0.2-1.4,0.3-2.1,0.5c-1.2,3.6,0.4,7.9,0.7,11.5
			c0.1,1.4,2.3-0.4,2.4-1.3c0.1-3.3,1.1-7.2,2.5-10.2c-0.7,0.2-1.4,0.3-2.1,0.5c-0.9,3.1-1,7.7,0.5,10.6c1.5,2.9,6-1.2,6.7-2.8
			c0.8-1.8-1.5-0.9-2,0.2c-0.2,0.4-1.5,1.6-2.1,1.2c-0.8-0.5-0.9-2.1-1-2.9c-0.3-2.1-0.4-4.8,0.2-6.9c0.4-1.6-1.8-0.3-2.1,0.5
			c-1.5,3.4-2.7,7.6-2.9,11.4c0.8-0.4,1.6-0.9,2.4-1.3c-0.2-3.3-1.9-7.7-0.8-11c0.5-1.6-1.8-0.1-2.1,0.5c-0.9,1.5-0.9,3.5-1.2,5.2
			c-0.2,1.3-0.4,2.6-0.7,3.9c-0.1,0.2-0.1,0.3-0.2,0.5c-0.3,0.7-0.3,0.8,0,0.3c-1.1-0.1-1.4-1.4-1.6-2.2
			C38,20.4,35.7,22.2,35.9,23.2L35.9,23.2z"/>
	</g>
</g>
<g>
	<g>
		<g>
			<path d="M31.5,23.5c0.2,2.8,2.7,3.4,4.7,1.6c1.8-1.7,2.2-4.3,2.1-6.7c-0.1-1.9-0.4-4.7-2.2-5.7c-0.9-0.5-2.1,0.3-2.7,0.8
				c-1.4,1-1.9,2.8-1.9,4.5c0,1.4,2.4-0.4,2.4-1.3c0-1.8,0.7-2,1.4-0.5c0.4,0.9,0.6,2,0.7,3c0.1,1.2,0.1,2.4-0.2,3.6
				c-0.1,0.4-0.2,0.9-0.5,1.2c0.1-0.2,0-0.3-0.3-0.2c-0.8-0.1-1-0.8-1.1-1.5C33.7,20.8,31.4,22.6,31.5,23.5L31.5,23.5z"/>
		</g>
	</g>
	<g>
		<g>
			<path d="M30.9,12.6c0.9,6.9,0.8,14.1,0.1,21c-0.1,1.3,2.3-0.4,2.4-1.3c0.7-7.1,0.8-14.4-0.1-21.5C33.1,9.9,30.7,11.6,30.9,12.6
				L30.9,12.6z"/>
		</g>
	</g>
</g>
<g>
	<g>
		<path d="M57.1,14.6c-0.2-3.6-4.3-1.6-5.5,0.2c-1.6,2.4-1.8,5.7-1.4,8.5c0.5,2.6,2.7,3.5,4.6,1.5C57.4,22.4,56.9,17.9,57.1,14.6
			c-0.8,0.4-1.6,0.9-2.4,1.3c-0.1,2.1-1.1,13,3.8,9.5c1.2-0.8,1.2-2.8-0.5-1.6c-0.4,0.3-0.9-2.9-0.9-3C56.9,18.8,57,16.7,57.1,14.6
			c0.1-1.4-2.3,0.4-2.4,1.3c-0.1,1.9-0.1,3.9-0.4,5.8c-0.1,0.6-0.3,2-0.6,2c-0.5-0.1-0.7-0.7-0.9-1c-0.6-1.3-0.5-2.8-0.4-4.2
			c0.1-0.8,0.2-1.6,0.4-2.3c0.1-0.4,0.3-0.8,0.5-1.1c0.5-0.7,1.3,0.6,1.4,0.9C54.8,17.3,57.1,15.5,57.1,14.6L57.1,14.6z"/>
	</g>
</g>
</svg>
