<?xml version="1.0" encoding="utf-8"?>
<!-- Generator: Adobe Illustrator 19.0.0, SVG Export Plug-In . SVG Version: 6.00 Build 0)  -->
<svg version="1.1" id="Layer_1" xmlns="http://www.w3.org/2000/svg" xmlns:xlink="http://www.w3.org/1999/xlink" x="0px" y="0px"
	 viewBox="0 0 122.9 51" style="enable-background:new 0 0 122.9 51;" xml:space="preserve">
	 <style type='text/css'>
	 	path{
	 		fill: #515151;
	 	}
	 </style>
<path d="M8.9,17c1,5.3,0.4,11.1,0.4,16.5c0,1.4,2.3-0.4,2.4-1.3c0.1-2.7,0.3-5.4,0.9-8c0.3-1.4,0.7-5,1.9-6.1c0.7-0.6,0.4-1,1.2-0.2
	c0.4,0.4,0.6,1.4,0.7,1.9c0.4,1.7,0.3,3.6,0.3,5.4c-0.1,4.2-0.4,11.4,5.5,7.5c1.2-0.8,1.2-2.7-0.5-1.6c-3.9,2.5-2.7-7.2-2.7-9.1
	c0-2,0.1-6.6-2.7-6.9c-2.1-0.2-3.6,2.3-4.3,3.9c-2.1,4.5-2.7,9.7-2.8,14.5c0.8-0.4,1.6-0.9,2.4-1.3c0-5.6,0.6-11.5-0.5-17
	C11,14.2,8.7,16,8.9,17L8.9,17z"/>
<path d="M57.9,25.7c1.4-1.6,2.2,4.4,1.3,5.1c-1.3,1-1.6-2.1-1.8-2.7c-0.5-2.9-0.5-6-0.1-8.8c0.1-0.6,0.4-4.5,1.6-3.7
	c0.5,0.3-0.3,3.3-0.3,3.4c-0.7,2.8-1.9,5.5-3.4,8.1c-1,1.7,1.5,0.8,2-0.2c1.1-2,7.2-13.4,2.6-14.4c-5.1-1.1-5.3,11.3-5.2,13.6
	c0.1,1.9-0.1,6.5,2.1,7.4c1.7,0.8,3.5-1.1,4.2-2.4c0.9-1.8,1.7-5.9,0.1-7.5c-1.7-1.6-3.7,0.4-4.8,1.7C55,26.7,57,26.7,57.9,25.7
	L57.9,25.7z"/>
<path d="M101.8,26.1c1.3-1.6,2.2,4.4,1.3,5.1c-1.3,1-1.6-2.1-1.8-2.7c-0.5-2.9-0.5-6-0.1-8.8c0.1-0.6,0.4-4.5,1.6-3.7
	c0.5,0.3-0.3,3.3-0.3,3.4c-0.7,2.8-1.9,5.5-3.4,8.1c-1,1.7,1.5,0.8,2-0.2c1.1-2,7.2-13.4,2.6-14.4c-5.1-1.1-5.3,11.3-5.2,13.6
	c0.1,1.9-0.1,6.5,2.1,7.4c1.7,0.8,3.5-1.1,4.2-2.4c0.9-1.8,1.7-5.9,0.1-7.5c-1.7-1.6-3.7,0.4-4.8,1.7
	C98.8,27.2,100.8,27.2,101.8,26.1L101.8,26.1z"/>
<path d="M85.8,22.9c-0.6-2-1.9-3.6-3.9-2c-1.9,1.5-2.4,4.3-2.4,6.6c0,1.9,0,4.7,1.8,5.8c1.8,1.2,3.8,0.1,5.2-1.2
	c1.3-1.2,0.2-2.3-1.1-1.1c-2.3,2.2-3.5-2.3-3.6-3.7c-0.1-1.2,0-2.5,0.3-3.6c0.1-0.5,0.2-0.9,0.4-1.4c0,0.1,0,0.3,0,0.4
	c0.6,0.4,0.8,1.3,1,1.9C83.8,25.7,86.1,23.9,85.8,22.9L85.8,22.9z"/>
<g>
	<path d="M21.8,30.7c0.2,2.8,2.7,3.3,4.7,1.6c1.9-1.7,2.2-4.5,2.1-6.9c-0.1-1.6-0.4-4.9-2.3-5.5c-2.8-0.9-4.5,3.2-4.6,5.3
		c0,1.4,2.4-0.3,2.4-1.3c0-0.7-0.1-1.8,0.7-1.5c0.3,0.1,0.5,0.7,0.7,1c0.5,1,0.6,2.2,0.7,3.3c0.1,1.1,0.1,2.4-0.2,3.5
		c-0.1,0.3-0.3,1-0.4,1c-0.7,0.2-1.4-1.1-1.4-1.6C24.1,28.1,21.8,29.8,21.8,30.7L21.8,30.7z"/>
	<path d="M21.2,19.8c0.9,6.9,0.8,14.1,0.1,21c-0.1,1.3,2.3-0.3,2.4-1.3c0.7-7.1,0.8-14.4-0.1-21.5C23.4,17.1,21.1,18.8,21.2,19.8
		L21.2,19.8z"/>
</g>
<path d="M86.5,21.9c0.3,3.7,0,7.5,0,11.2c0,1.4,2.3-0.4,2.4-1.3c0.1-2.6,0.3-5.3,1-7.8c0.1-0.4,0.3-0.8,0.4-1.2
	c0.1-0.2,0.1-0.3,0.2-0.4c0.3-0.4,0.1-0.4-0.6,0.1c0,0.1,0.5,1.2,0.5,1.4c0.7,3,0.4,6.3,0.2,9.3c0.8-0.4,1.6-0.9,2.4-1.3
	c0-2.9,0.3-6.1,1.3-8.9c0.1-0.2,0.2-0.5,0.3-0.7c0.2-0.5,0.1-0.3-0.4,0.4c0,0.2,0.3,1,0.4,1.2c0.3,1.3,0.3,2.6,0.3,3.9
	c0,1.4-0.5,4.2,0.6,5.3c1,1.1,2.7-0.4,3.4-1.1c1.3-1.2,0.3-2.3-1.1-1.1c-0.6,0.5-0.6-2-0.6-2.4c0-1.4,0-2.7-0.1-4
	c-0.1-1.2,0-4.5-1.9-4.5c-1.7,0-2.7,2.5-3.2,3.7c-1.1,2.9-1.4,6.3-1.4,9.4c0,1.4,2.3-0.4,2.4-1.3c0.1-2.4,0.2-4.9,0-7.4
	c-0.1-1.1,0-3.9-1.4-4.4c-1.5-0.5-2.9,1.7-3.3,2.8c-1.4,3.1-1.6,6.9-1.7,10.2c0.8-0.4,1.6-0.9,2.4-1.3c0-3.7,0.3-7.5,0-11.2
	C88.8,19.3,86.4,21,86.5,21.9L86.5,21.9z"/>
<path d="M66.7,20.2c-3,0.3-4.1,4.1-4.3,6.6c-0.2,2.1-0.1,6.8,2.9,7c3,0.2,4.2-3.9,4.4-6.2c0.2-2,0.1-7.1-2.8-7.4
	c-1-0.1-2.7,2.2-1.8,2.3c1.6,0.1,2,2.4,2.1,3.7c0.1,1,0.1,2.1,0,3.1c-0.1,0.5-0.2,1.1-0.3,1.6c-0.1,0.6-0.3,0.5-0.1,0.5
	c-1.6,0.1-1.9-2.9-2-3.9c-0.1-1,0-2,0.1-3c0.1-0.5,0.2-0.9,0.3-1.4c0.1-0.6,0.4-0.5,0.1-0.5C66.4,22.5,68,20.1,66.7,20.2z"/>
<path d="M110.8,20.5c-3,0.3-4.1,4.1-4.3,6.6c-0.2,2.1-0.1,6.8,2.9,7c3,0.2,4.2-3.9,4.4-6.2c0.2-2,0.1-7.1-2.8-7.4
	c-1-0.1-2.7,2.2-1.8,2.3c1.6,0.1,2,2.4,2.1,3.7c0.1,1,0.1,2.1,0,3.1c-0.1,0.5-0.2,1.1-0.3,1.6c-0.1,0.6-0.3,0.5-0.1,0.5
	c-1.6,0.1-1.9-2.9-2-3.9c-0.1-1,0-2,0.1-3c0.1-0.5,0.2-0.9,0.3-1.4c0.1-0.6,0.4-0.5,0.1-0.5C110.4,22.8,112.1,20.3,110.8,20.5z"/>
<path d="M33.4,19.8c-3,0.3-4.1,4.1-4.3,6.6c-0.2,2.1-0.1,6.8,2.9,7c3,0.2,4.2-3.9,4.4-6.2c0.2-2,0.1-7.1-2.8-7.4
	c-1-0.1-2.7,2.2-1.8,2.3c1.6,0.1,2,2.4,2.1,3.7c0.1,1,0.1,2.1,0,3.1c-0.1,0.5-0.2,1.1-0.3,1.6c-0.1,0.6-0.3,0.5-0.1,0.5
	c-1.6,0.1-1.9-2.9-2-3.9c-0.1-1,0-2,0.1-3c0.1-0.5,0.2-0.9,0.3-1.4c0.1-0.6,0.4-0.5,0.1-0.5C33.1,22.1,34.7,19.7,33.4,19.8z"/>
<g>
	<path d="M75,20.1c-3,0.3-4.1,4.1-4.3,6.6c-0.2,2.1-0.1,6.8,2.9,7c3,0.2,4.2-3.9,4.4-6.2c0.2-2,0.1-7.1-2.8-7.4
		c-1-0.1-2.7,2.2-1.8,2.3c1.6,0.1,2,2.4,2.1,3.7c0.1,1,0.1,2.1,0,3.1c-0.1,0.5-0.2,1.1-0.3,1.6c-0.1,0.6-0.3,0.5-0.1,0.5
		c-1.6,0.1-1.9-2.9-2-3.9c-0.1-1,0-2,0.1-3c0.1-0.5,0.2-0.9,0.3-1.4c0.1-0.6,0.4-0.5,0.1-0.5C74.6,22.4,76.3,20,75,20.1z"/>
	<path d="M75.7,21.9c0,4.8,0.3,9.6,0.2,14.4c0,0.8,0,6.2-1.5,5.2c-2.8-1.8,1.9-7.4,2.9-8.7c1.3-1.6-0.7-1.5-1.6-0.5
		c-1.8,2.1-6.1,7.4-4.1,10.6c0.8,1.3,2.2,1.2,3.4,0.5c2.4-1.3,3-4.5,3.2-7c0.3-5.2-0.2-10.6-0.2-15.8C78,19.3,75.7,21,75.7,21.9
		L75.7,21.9z"/>
</g>
<g>
	<path d="M48.9,30.8c4.2-0.6,5.2-6.1,4.6-9.5c-0.2-1.3-0.9-3-2.5-2.8c-2.5,0.3-3.7,3.1-3.8,5.3c0,1.4,2.4-0.3,2.4-1.3
		c0-0.9,0-2.4,1-1.2c0.5,0.6,0.6,1.6,0.7,2.3c0.1,1.1,0.1,4.6-1,4.8C49.3,28.6,47.6,31,48.9,30.8L48.9,30.8z"/>
	<path d="M52.8,30.6c-3,1.9-6.9,6.3-6,10.3c0.8,3.3,4.5,1.3,5.8-0.5c2-2.9,3.5-15-3-11.8c-1,0.5-1.9,2.9-0.2,2
		c3.2-1.6,2.6,6.2,2.2,7.5c-0.3,1-0.9,3.3-2.3,1.8c-1.8-2,1.7-6.3,3.2-7.3C53.6,32.1,54.5,29.6,52.8,30.6L52.8,30.6z"/>
</g>
<path d="M48.4,29.4c-0.5,0.5-1.5,1.4-2.3,1c-0.6-0.3-0.8-1.8-0.9-2.4c-0.4-2.6-0.2-5.4-0.1-8c0.1-1.3-2.3,0.4-2.4,1.3
	c-0.1,2-0.1,4-0.3,6c-0.1,0.9-0.2,1.9-0.5,2.8c-0.3,0.8-0.4,1-1,0.2c-1.9-2.3-1-7-0.3-9.7c0.4-1.6-2-0.2-2.3,0.8
	c-0.6,2.4-2.5,11.8,2.1,11.7c5.3-0.1,4.5-9.9,4.7-13c-0.8,0.4-1.6,0.9-2.4,1.3c-0.1,3-0.9,8,0.9,10.7c1.5,2.3,4.5-0.2,5.8-1.5
	C50.8,29.2,49.7,28.2,48.4,29.4L48.4,29.4z"/>
</svg>
