<?xml version="1.0" encoding="utf-8"?>
<!-- Generator: Adobe Illustrator 19.0.0, SVG Export Plug-In . SVG Version: 6.00 Build 0)  -->
<svg version="1.1" id="Layer_1" xmlns="http://www.w3.org/2000/svg" xmlns:xlink="http://www.w3.org/1999/xlink" x="0px" y="0px"
	 viewBox="0 0 55.3 33.2" style="enable-background:new 0 0 55.3 33.2;" xml:space="preserve" class='lsv-vacancies__category-img'>
	 <style type='text/css'>
	 	path{
	 		fill: #515151;
	 	}
	 </style>
	 <g class='office'>
<path d="M13.7,4.5c-4.1,0.4-5.2,5.8-5.5,9c-0.2,2.9-0.2,10,4,10.3c4,0.2,5.5-5.4,5.7-8.4c0.2-2.9,0.2-10.5-4-10.9
	c-1-0.1-2.7,2.2-1.8,2.3c2.5,0.2,3.1,3.7,3.3,5.7c0.2,1.7,0.7,8.2-1.6,8.9C9.8,22.7,9.1,7.2,12.4,6.9C13.3,6.8,15,4.4,13.7,4.5z"/>
<path d="M48.8,11.8c-0.6-2-1.9-3.6-3.9-2c-1.9,1.5-2.4,4.3-2.4,6.6c0,1.9,0,4.7,1.8,5.8c1.8,1.2,3.8,0.1,5.2-1.2
	c1.3-1.2,0.2-2.3-1.1-1.1c-2.3,2.2-3.5-2.3-3.6-3.7c-0.1-1.2,0-2.5,0.3-3.6c0.1-0.5,0.2-0.9,0.4-1.4c0,0.1,0,0.3,0,0.4
	c0.6,0.4,0.8,1.3,1,1.9C46.8,14.7,49.1,12.8,48.8,11.8L48.8,11.8z"/>
<path d="M42.7,19c-0.5,0.5-1.5,1.4-2.3,1c-0.6-0.3-0.8-1.8-0.9-2.4c-0.4-2.6-0.2-5.4-0.1-8c0.1-1.3-2.3,0.4-2.4,1.3
	c-0.1,2-0.1,4-0.3,6c-0.1,0.9-0.2,1.9-0.5,2.8c-0.3,0.8-0.4,1-1,0.2c-1.9-2.3-1-7-0.3-9.7c0.4-1.6-2-0.2-2.3,0.8
	c-0.6,2.4-2.5,11.8,2.1,11.7c5.3-0.1,4.5-9.9,4.7-13c-0.8,0.4-1.6,0.9-2.4,1.3c-0.1,2.2-0.2,4.5,0,6.7c0.1,1.3,0.1,2.9,0.9,4
	c1.5,2.3,4.5-0.2,5.8-1.5C45,18.8,44,17.8,42.7,19L42.7,19z"/>
	<path d="M26,13.6c-0.4-2.6-2.1-5-4.6-2.8c-1.6,1.5-2.1,3.9-2.2,6.1c-0.1,1.9,0,4.7,1.6,6.1c2.2,1.8,4.6-1,5.2-3
		c0.5-1.6-2-0.2-2.3,0.8c-0.3,1.2-1.5-0.8-1.7-1.2c-0.4-1.1-0.5-2.3-0.5-3.5c0-1.1,0.1-2.3,0.4-3.3c0.3-0.8,0.2-0.8,0.6-0.1
		c0.6,0.9,0.9,1.7,1.1,2.8C23.8,16.4,26.1,14.6,26,13.6L26,13.6z"/>
	<path d="M23.7,20.8c0.2,2.8,2.8,3.3,4.7,1.5c1.9-1.7,2.2-4.5,2.1-6.9c-0.1-1.6-0.4-4.9-2.3-5.5c-2.8-0.9-4.6,3.2-4.6,5.3
		c0,1.4,2.4-0.3,2.4-1.3c0-0.7,0-1.8,0.7-1.5c0.3,0.1,0.5,0.7,0.7,1c0.5,1,0.6,2.2,0.7,3.3c0.1,1.1,0.1,2.4-0.2,3.5
		c-0.1,0.3-0.3,1-0.4,1c-0.7,0.3-1.4-1.1-1.4-1.6C26,18.1,23.7,19.9,23.7,20.8L23.7,20.8z"/>
	<path d="M23.2,9.9c0.9,6.9,0.8,14.1,0.1,21c-0.1,1.3,2.3-0.3,2.4-1.3c0.7-7.1,0.8-14.4-0.1-21.5C25.4,7.1,23,8.8,23.2,9.9L23.2,9.9
		z"/>
</g>
</svg>
