<?xml version="1.0" encoding="utf-8"?>
<!-- Generator: Adobe Illustrator 19.0.0, SVG Export Plug-In . SVG Version: 6.00 Build 0)  -->
<svg version="1.1" xmlns="http://www.w3.org/2000/svg" xmlns:xlink="http://www.w3.org/1999/xlink" x="0px" y="0px"
	 viewBox="0 0 130 137" style="enable-background:new 0 0 130 137;" xml:space="preserve">
<style type="text/css">
	.st0{fill:#435F2C;}
	.st1{fill:#FFFFFF;}
	.st2{fill-rule:evenodd;clip-rule:evenodd;fill:#64B846;}
	.st3{fill-rule:evenodd;clip-rule:evenodd;fill:#435F2C;}
</style>
<g id="Layer_1">
	<path class="st0" d="M121.7,78.6c0,22-12.9,41.1-31.6,49.9c-7.1,3.4-15.1,1.3-23.5,1.3c-7.6,0-14.8,2.4-21.4-0.4
		c-19.8-8.4-33.7-28-33.7-50.8c0-19.5,10.1-36.6,25.3-46.4c8.6-5.5,18.8,0.5,29.8,0.5c10.7,0,20.6-6.2,29.1-0.9
		C111.3,41.4,121.7,58.8,121.7,78.6z"/>
	<g>
		<path class="st1" d="M27.2,67.9c-4.9,2-5.7,8.2-4.9,12.6c1,5.2,3.1,9.6,6.3,14c2,2.7,6.5,4.9,8.9,1c2.5-4.1,2-9.5,1-13.9
			c-0.9-3.8-2.2-7.3-4.2-10.5C32.9,69.1,30.4,66.8,27.2,67.9c-1.6,0.6-3.4,5.1-1,4.3c1.6-0.6,3.2,0.7,4.1,1.6
			c1.7,1.7,2.8,3.9,3.7,6.1c1,2.4,1.7,5,2.2,7.6c0.2,1.1,0.3,2.2,0.3,3.3c0,0.8-0.1,2-0.2,2.4c-0.1,0.2,0,0.1,0.1-0.1
			c-0.1,0.2,0.1,0-0.3,0.2c-0.5,0.3-1.2,0.1-1.8-0.1c-1.7-0.7-3-2.5-4-4.1c-3-4.5-4.4-9.3-4.7-14.3c0-0.8,0.2-2.1,0.3-2.5
			c0.2-0.7-0.3,0.5,0.1-0.1c0.3-0.6-0.3,0.4,0.1-0.1c-0.4,0.5-0.2,0.2,0.2,0C27.7,71.5,29.5,66.9,27.2,67.9z"/>
		<path class="st1" d="M60.8,70.5c-5.2,0.6-6.4,7-6.1,11.2c0.2,3.3,1.3,9.7,5.7,9.6c2-0.1,3.6-2.4,4.4-4.2c0.9-2.1,1.2-4.5,1.2-6.7
			C66.1,77,65.6,70.4,60.8,70.5c-1.6,0-4.2,3.9-1.9,3.8c2.7-0.1,3.4,5.1,3.6,6.7c0.2,1.7,0.2,3.4-0.1,5.1c-0.1,0.4-0.1,0.7-0.2,1
			c0,0.1-0.3,0.8-0.2,0.6c-0.1,0.2-0.1,0.2,0,0c0.3-0.3,0.4-0.2-0.1-0.1c-2.4,0.3-3.3-5.1-3.5-6.7c-0.2-1.7-0.2-3.4,0.1-5.1
			c0.1-0.7,0.3-1.3,0.6-2c0,0-0.8,0.5-0.3,0.4C60.5,74.1,63.1,70.2,60.8,70.5z"/>
		<path class="st1" d="M46.3,81.2c0.6-1.2,1.6-0.6,2.2,0.3c1.2,1.6,1.2,4,1.2,5.9c0,0.6,0,1.2-0.2,1.8c-0.2,0.7,0.1,0,0.1,0
			c-1.1,0.5-1.9-1-2.3-1.7c-1.9-3.6-2.8-7.4-3.6-11.6c-0.7-3.6-0.9-7.5,0.2-11c0.2-0.5,0.7-0.8-0.1-0.2c-0.5,0.4,0.1,0,0.6,0.3
			c1,0.5,1.1,2.1,1.2,2.9c0.1,3.8-0.7,7.5-1.5,11.4c-0.2,0.8-0.4,1.6-0.6,2.4c-0.1,0.4,0.2-0.6,0-0.1c-0.1,0.2-0.2,0.4-0.3,0.6
			c-0.5,1.1-1.1,2.2-1.7,3.3c-1.5,2.8-3.1,5.7-5.3,7.9c-0.7,0.7-1.3,1.9-1.3,3c0,0.9,0.7,1.3,1.4,0.7c2.5-2.4,4.4-5.6,6.1-8.6
			c1.3-2.3,3.1-4.9,4-7.5c1.4-3.7,2.3-7.6,3-11.6c0.4-2.5,1.2-6.3-1.2-8.3c-2.6-2.1-6.4,1.9-7.1,3.6c-1.3,3.5-1.6,7.1-1,11.1
			c0.7,4.4,1.8,8.6,3.4,12.8c0.8,2.1,2.5,5.8,5.2,4.5c4.3-2,4.8-7.6,4.3-11.8c-0.3-2-1.2-4.5-3.8-4.7c-2.7-0.2-4.7,2.8-5.5,4.6
			c-0.2,0.5-0.7,2.1,0.3,2.1C45.1,83.2,46,82,46.3,81.2L46.3,81.2z"/>
		<path class="st1" d="M105.2,94.5c-1.4,0.4-1.3-0.2-1.3-1.4c0.1-1.6,0.5-3.2,0.9-4.7c0.9-3.3,2-6.6,3.7-9.6c-1.5,0.1-3,0.3-4.4,0.4
			c-1.7,3.8-3.4,7.6-5.6,11c-0.2,0.4-0.5,0.7-0.8,1.1c-0.3,0.4-0.4,0.4-0.5,0.5c-0.2,0.1,0.2,0,0,0c-0.2,0-0.6,0-0.6-0.1
			c-1.8-2.1,2.8-11.3,4-15.8c0.5-2-3.9-0.6-4.2,0.8c-0.8,3.7-2.1,7.6-3.1,11.3c-0.5,2.1-1.8,6.2,1,6.7c2.7,0.4,5.2-1.5,7.1-3.5
			c3.2-3.6,5.2-8.1,7.2-12.4c0.4-0.9-0.9-1.3-1.6-1.2c-1.2,0.1-2.4,0.7-2.8,1.6c-1.8,3.9-3,8-3.9,12.3c-0.3,1.5-0.6,3.1-0.3,4.6
			c0.4,2,3.9,1.2,5.1,0.9c0.8-0.2,2.3-0.8,2.4-1.8C107.4,94.3,105.7,94.4,105.2,94.5L105.2,94.5z"/>
		<path class="st1" d="M77.2,73.4c-0.8,4.1-1.6,8.2-2.9,12.1c-0.2,0.4-0.4,0.9-0.6,1.3c-0.2,0.5-0.3,0.5-0.4,0.6
			c-0.2,0.2,0.2-0.1,0,0c-0.2,0.1-0.6,0.2-0.7,0.1c-2.2-1.6,0.1-11.6,0.2-16.3c0.1-2.1-3.1,0.3-3.6,1c-0.1,0.1-0.2,0.4,0.1-0.2
			c-0.1,0.2-0.3,0.4-0.4,0.6c-0.4,0.6-0.7,0.8-1.2,1.3c-1.3,1.2-2.9-0.4-3.6-1.5c-1-1.6-4.4,1.7-3.6,2.9c1.9,2.7,4.2,3.5,7,1.7
			c1.9-1.3,3.6-3,4.9-4.9c-1.2,0.3-2.4,0.7-3.5,1c0,3.9-0.3,7.9-0.4,11.8c0,2.1-0.3,6.5,2.5,6.2c2.7-0.3,4.8-2.8,6.2-5.3
			c2.3-4.2,3.3-9.1,4.3-13.8c0.2-1-1.2-1-1.9-0.7C78.6,71.5,77.4,72.4,77.2,73.4L77.2,73.4z"/>
		<path class="st1" d="M90.5,94c0.3-1.2,0.6-2.4,0.8-3.6c0.2-1.5-1.3-0.9-2.1-0.9c-0.3,0-0.4-0.1-0.5-0.7c-0.1-0.8-0.1-1.7-0.1-2.5
			c0.1-4.4,0.8-8.9,2.4-13c-1.4,0.4-2.9,0.8-4.3,1.2c-1.1,4.1-2.2,8.1-4,11.8c-0.2,0.4-0.5,0.8-0.7,1.2c-0.3,0.4-0.4,0.5-0.5,0.6
			c-0.2,0.1,0.3-0.1-0.1,0c-0.3,0.1-0.7,0.1-0.8,0c-2.2-1.7,0.9-11.7,1.4-16.3c0.2-2-4.3,0.1-4.4,1.5c-0.2,3.8-0.9,7.9-1.3,11.7
			c-0.2,2.1-0.9,6.4,2.4,6.4c3.1-0.1,5.6-2.4,7.1-4.8c2.6-4,3.8-8.8,5.2-13.4c0.3-1-1-1.1-1.8-0.9c-1.1,0.3-2.3,1.1-2.6,2.1
			c-1.2,3.9-1.7,7.9-1.9,12c-0.1,1.5-0.1,3.2,0.2,4.7c0.5,2,2.5,1.6,4,1.1c-0.4,0-0.8,0-1.1,0c-0.2-0.4-0.3-0.5-0.3-0.1
			c0,0.3-0.1,0.6-0.2,0.8c-0.1,0.7-0.3,1.4-0.4,2.1C86.5,97.2,90.1,95.4,90.5,94L90.5,94z"/>
	</g>
</g>
<g id="leafs">
	<path class="st2" d="M66.7,17.1c2.8,4.1-0.6,12.8-0.6,12.8s-9.4,0.2-12.2-3.9c-2.8-4.1-2.4-17.2-2.4-17.2S63.9,13,66.7,17.1
		L66.7,17.1z"/>
	<path class="st2" d="M36.2,31.3c3.2,1.9,3.5,8.8,3.5,8.8s-6.3,3-9.5,1.1c-3.2-1.9-6.9-10.9-6.9-10.9S33,29.3,36.2,31.3L36.2,31.3z"
		/>
	<path class="st3" d="M37.6,11.4c1,2.5-2,6.7-2,6.7s-5-1.1-6-3.6C28.7,12,30.5,5,30.5,5S36.6,8.9,37.6,11.4L37.6,11.4z"/>
	<path class="st2" d="M13.8,19.2c1.9,1.2,1.9,5.3,1.9,5.3s-3.8,1.7-5.7,0.5c-1.9-1.2-4-6.7-4-6.7S11.9,18,13.8,19.2L13.8,19.2z"/>
</g>
</svg>
