<svg xmlns="http://www.w3.org/2000/svg" xmlns:xlink="http://www.w3.org/1999/xlink" preserveAspectRatio="xMidYMid" width="25.062" height="13.969" viewBox="0 0 25.062 13.969">
  <defs>
    <style>
      .vk-icon{
        fill: #c6c6c6;
        fill-rule: evenodd;
      }
    </style>
  </defs>
  <path d="M24.001,11.327 C23.256,10.443 22.379,9.690 21.550,8.890 C20.802,8.168 20.753,7.750 21.356,6.917 C22.012,6.008 22.719,5.134 23.381,4.229 C23.999,3.383 24.632,2.539 24.958,1.526 C25.164,0.883 24.982,0.598 24.313,0.485 C24.197,0.465 24.079,0.465 23.961,0.465 L19.996,0.460 C19.508,0.453 19.238,0.663 19.066,1.091 C18.831,1.669 18.592,2.247 18.313,2.806 C17.684,4.070 16.980,5.294 15.994,6.330 C15.776,6.557 15.535,6.846 15.172,6.727 C14.715,6.563 14.583,5.823 14.589,5.572 L14.585,1.048 C14.498,0.403 14.353,0.113 13.704,-0.012 L9.585,-0.011 C9.035,-0.011 8.759,0.199 8.465,0.539 C8.296,0.736 8.245,0.863 8.593,0.928 C9.277,1.056 9.662,1.493 9.765,2.171 C9.928,3.254 9.917,4.341 9.823,5.427 C9.795,5.745 9.739,6.062 9.611,6.357 C9.413,6.824 9.091,6.918 8.669,6.631 C8.287,6.372 8.017,6.006 7.755,5.638 C6.767,4.259 5.978,2.771 5.336,1.207 C5.151,0.756 4.830,0.482 4.346,0.475 C3.156,0.457 1.967,0.453 0.776,0.475 C0.061,0.489 -0.152,0.832 0.140,1.474 C1.435,4.323 2.877,7.093 4.759,9.615 C5.726,10.911 6.836,12.053 8.269,12.863 C9.894,13.782 11.642,14.057 13.485,13.972 C14.347,13.932 14.607,13.711 14.646,12.860 C14.674,12.280 14.740,11.701 15.031,11.179 C15.315,10.667 15.747,10.569 16.244,10.888 C16.492,11.048 16.701,11.251 16.900,11.465 C17.385,11.991 17.854,12.531 18.358,13.038 C18.990,13.674 19.738,14.050 20.679,13.973 L24.324,13.973 C24.911,13.936 25.216,13.223 24.879,12.577 C24.642,12.122 24.331,11.718 24.001,11.327 L24.001,11.327 Z" class="vk-icon"/>
</svg>
