<?xml version="1.0" encoding="utf-8"?>
<svg xmlns="http://www.w3.org/2000/svg"
	xmlns:xlink="http://www.w3.org/1999/xlink"
	width="50px" height="50px" viewBox="0 0 50 50">
<circle cx="25.00" cy="25.00" r="25.00" fill="rgb(69,163,187)"/><path fillRule="evenodd" d="M 39.77 27.73C 38.76 27.73 37.92 27.05 37.64 26.13 37.64 26.13 26.5 26.13 26.5 26.13 26.5 26.13 34.2 33.83 34.2 33.83 34.58 33.53 35.05 33.34 35.57 33.34 36.8 33.34 37.8 34.34 37.8 35.57 37.8 36.8 36.8 37.8 35.57 37.8 34.34 37.8 33.34 36.8 33.34 35.57 33.34 35.17 33.46 34.79 33.65 34.46 33.65 34.46 25.9 26.72 25.9 26.72 25.9 26.72 25.9 37.58 25.9 37.58 26.94 37.77 27.72 38.68 27.72 39.77 27.72 41 26.72 41.99 25.49 41.99 24.26 41.99 23.26 41 23.26 39.77 23.26 38.68 24.04 37.78 25.06 37.58 25.06 37.58 25.06 26.72 25.06 26.72 25.06 26.72 17.33 34.45 17.33 34.45 17.53 34.78 17.65 35.16 17.65 35.57 17.65 36.8 16.65 37.8 15.42 37.8 14.19 37.8 13.19 36.8 13.19 35.57 13.19 34.34 14.19 33.34 15.42 33.34 15.93 33.34 16.4 33.52 16.78 33.82 16.78 33.82 24.47 26.13 24.47 26.13 24.47 26.13 13.35 26.13 13.35 26.13 13.07 27.05 12.23 27.73 11.22 27.73 9.99 27.73 8.99 26.73 8.99 25.5 8.99 24.27 9.99 23.27 11.22 23.27 12.38 23.27 13.32 24.16 13.43 25.29 13.43 25.29 24.47 25.29 24.47 25.29 24.47 25.29 16.58 17.4 16.58 17.4 16.56 17.39 16.57 17.36 16.55 17.34 16.22 17.54 15.83 17.66 15.42 17.66 14.19 17.66 13.19 16.66 13.19 15.43 13.19 14.2 14.19 13.2 15.42 13.2 16.65 13.2 17.65 14.2 17.65 15.43 17.65 15.95 17.46 16.43 17.16 16.81 17.16 16.81 17.17 16.81 17.17 16.81 17.17 16.81 25.06 24.7 25.06 24.7 25.06 24.7 25.06 13.54 25.06 13.54 25.06 13.5 25.1 13.47 25.11 13.43 24.07 13.25 23.26 12.34 23.26 11.24 23.26 10.01 24.26 9.01 25.49 9.01 26.72 9.01 27.72 10.01 27.72 11.24 27.72 12.34 26.91 13.25 25.86 13.43 25.87 13.47 25.9 13.5 25.9 13.54 25.9 13.54 25.9 24.7 25.9 24.7 25.9 24.7 33.8 16.81 33.8 16.81 33.81 16.8 33.82 16.81 33.82 16.8 33.53 16.42 33.34 15.95 33.34 15.43 33.34 14.2 34.34 13.2 35.57 13.2 36.8 13.2 37.8 14.2 37.8 15.43 37.8 16.66 36.8 17.66 35.57 17.66 35.15 17.66 34.76 17.54 34.42 17.33 34.41 17.36 34.41 17.38 34.39 17.4 34.39 17.4 26.5 25.29 26.5 25.29 26.5 25.29 37.56 25.29 37.56 25.29 37.67 24.16 38.61 23.27 39.77 23.27 41 23.27 42 24.27 42 25.5 42 26.73 41 27.73 39.77 27.73ZM 35.57 36.96C 36.34 36.96 36.96 36.34 36.96 35.57 36.96 34.8 36.34 34.18 35.57 34.18 34.8 34.18 34.18 34.8 34.18 35.57 34.18 36.34 34.8 36.96 35.57 36.96ZM 11.22 24.11C 10.45 24.11 9.83 24.73 9.83 25.5 9.83 26.27 10.45 26.89 11.22 26.89 11.99 26.89 12.61 26.27 12.61 25.5 12.61 24.73 11.99 24.11 11.22 24.11ZM 15.42 14.04C 14.65 14.04 14.03 14.67 14.03 15.43 14.03 16.2 14.65 16.82 15.42 16.82 16.18 16.82 16.81 16.2 16.81 15.43 16.81 14.67 16.18 14.04 15.42 14.04ZM 26.88 11.24C 26.88 10.47 26.26 9.85 25.49 9.85 24.73 9.85 24.1 10.47 24.1 11.24 24.1 12 24.73 12.63 25.49 12.63 26.26 12.63 26.88 12 26.88 11.24ZM 35.57 16.82C 36.34 16.82 36.96 16.2 36.96 15.43 36.96 14.67 36.34 14.04 35.57 14.04 34.8 14.04 34.18 14.67 34.18 15.43 34.18 16.2 34.8 16.82 35.57 16.82ZM 15.42 34.18C 14.65 34.18 14.03 34.8 14.03 35.57 14.03 36.34 14.65 36.96 15.42 36.96 16.18 36.96 16.81 36.34 16.81 35.57 16.81 34.8 16.18 34.18 15.42 34.18ZM 24.1 39.77C 24.1 40.53 24.73 41.16 25.49 41.16 26.26 41.16 26.88 40.53 26.88 39.77 26.88 39 26.26 38.38 25.49 38.38 24.73 38.38 24.1 39 24.1 39.77ZM 39.77 24.11C 39 24.11 38.38 24.73 38.38 25.5 38.38 26.27 39 26.89 39.77 26.89 40.54 26.89 41.16 26.27 41.16 25.5 41.16 24.73 40.54 24.11 39.77 24.11Z" fill="rgb(255,255,255)"/></svg>