<svg xmlns="http://www.w3.org/2000/svg" xmlns:xlink="http://www.w3.org/1999/xlink" preserveAspectRatio="xMidYMid" width="19.032" height="22" viewBox="0 0 19.032 22">
  <defs>
    <style>
      .youtube-icon {
        fill: #c6c6c6;
        fill-rule: evenodd;
      }
    </style>
  </defs>
  <path d="M15.918,22.000 L3.126,22.000 C1.414,22.000 0.015,20.726 0.015,19.170 L0.015,12.682 C0.015,11.125 1.414,9.852 3.126,9.852 L15.918,9.852 C17.629,9.852 19.029,11.125 19.029,12.682 L19.029,19.170 C19.029,20.726 17.629,22.000 15.918,22.000 ZM5.565,12.028 L1.337,12.022 L1.337,13.017 L2.657,13.021 L2.657,19.874 L3.979,19.874 L3.979,13.040 L5.565,13.040 L5.565,12.028 ZM8.734,14.058 L8.732,14.058 L7.410,14.058 L7.410,17.708 C7.410,18.236 7.444,18.499 7.409,18.592 C7.301,18.875 6.819,19.176 6.629,18.623 C6.598,18.527 6.625,18.234 6.625,17.733 L6.621,14.058 L5.306,14.058 L5.310,17.675 C5.311,18.229 5.296,18.643 5.315,18.831 C5.347,19.163 5.334,19.549 5.654,19.770 C6.249,20.183 7.389,19.708 7.674,19.117 L7.671,19.872 L8.734,19.873 L8.734,14.058 ZM12.960,15.199 C12.958,14.042 12.060,13.349 10.840,14.285 L10.847,12.026 L9.526,12.029 L9.519,19.824 L10.605,19.809 L10.704,19.323 C12.092,20.551 12.964,19.710 12.962,18.238 L12.960,15.199 ZM17.100,17.834 L16.109,17.840 C16.107,17.877 16.106,17.921 16.106,17.969 L16.106,18.503 C16.106,18.788 15.861,19.020 15.564,19.020 L15.370,19.020 C15.073,19.020 14.827,18.788 14.827,18.503 L14.827,17.099 L17.098,17.099 L17.098,16.276 C17.098,15.674 17.081,15.072 17.031,14.727 C16.868,13.639 15.283,13.466 14.482,14.023 C14.231,14.198 14.039,14.430 13.927,14.744 C13.815,15.057 13.759,15.484 13.759,16.029 L13.759,17.839 C13.759,20.851 17.552,20.425 17.100,17.834 ZM15.442,14.824 L15.522,14.824 C15.846,14.824 16.112,15.080 16.112,15.391 L16.099,16.092 L14.846,16.092 L14.852,15.391 C14.852,15.080 15.117,14.824 15.442,14.824 ZM11.401,18.915 C11.084,18.915 10.824,18.709 10.824,18.457 L10.824,15.047 C10.824,14.796 11.084,14.589 11.401,14.589 C11.721,14.589 11.980,14.796 11.980,15.047 L11.980,18.457 C11.980,18.709 11.721,18.915 11.401,18.915 ZM13.751,7.924 C13.650,8.127 13.527,8.279 13.380,8.381 C13.233,8.484 13.065,8.533 12.874,8.533 C12.656,8.533 12.474,8.485 12.333,8.388 C12.188,8.291 12.083,8.160 12.015,8.002 C11.947,7.839 11.905,7.672 11.889,7.498 C11.873,7.323 11.863,6.976 11.863,6.457 L11.863,2.381 L13.073,2.381 L13.073,7.084 C13.073,7.339 13.291,7.547 13.556,7.547 C13.822,7.547 14.040,7.339 14.040,7.084 L14.040,2.381 L15.200,2.381 L15.200,8.424 L13.726,8.424 L13.751,7.924 ZM10.669,7.949 C10.522,8.176 10.333,8.344 10.103,8.452 C9.870,8.562 9.604,8.614 9.303,8.614 C8.967,8.614 8.684,8.570 8.451,8.475 C8.217,8.384 8.036,8.243 7.908,8.057 C7.778,7.870 7.686,7.644 7.631,7.380 C7.575,7.115 7.549,6.717 7.549,6.189 L7.549,4.588 C7.549,4.008 7.600,3.556 7.699,3.228 C7.799,2.903 7.980,2.642 8.241,2.444 C8.501,2.246 8.834,2.147 9.240,2.147 C9.580,2.147 9.872,2.212 10.116,2.338 C10.362,2.465 10.551,2.629 10.682,2.833 C10.816,3.038 10.906,3.248 10.955,3.463 C11.004,3.681 11.029,4.009 11.029,4.452 L11.029,5.981 C11.029,6.541 11.005,6.954 10.960,7.215 C10.916,7.478 10.819,7.721 10.669,7.949 ZM9.874,3.772 C9.874,3.430 9.611,3.151 9.289,3.151 C8.967,3.151 8.703,3.430 8.703,3.772 L8.703,6.988 C8.703,7.331 8.967,7.610 9.289,7.610 C9.611,7.610 9.874,7.331 9.874,6.988 L9.874,3.772 ZM6.015,8.613 L4.625,8.613 L4.623,3.980 L2.875,-0.000 L4.380,-0.000 L5.265,2.957 L6.139,0.008 L7.659,0.008 L6.017,3.978 L6.015,8.613 Z" class="youtube-icon"/>
</svg>
