<?xml version="1.0" encoding="utf-8"?>
<!-- Generator: Adobe Illustrator 19.0.0, SVG Export Plug-In . SVG Version: 6.00 Build 0)  -->
<svg version="1.1" xmlns="http://www.w3.org/2000/svg" xmlns:xlink="http://www.w3.org/1999/xlink" x="0px" y="0px"
	 viewBox="104 -15.5 337.5 280.5" style="enable-background:new 104 -15.5 337.5 280.5;" xml:space="preserve">
<style type="text/css">
	.st0{fill:#519E38;}
	.st1{fill:#F2F2F2;}
	.st2{fill:#FFFFFF;}
	.st3{fill:url(#SVGID_1_);}
	.st4{fill:url(#SVGID_2_);}
	.st5{fill:url(#SVGID_3_);}
	.st6{fill:url(#SVGID_4_);}
	.st7{fill:url(#SVGID_5_);}
</style>
<g id="Layer_1">
</g>
<g id="snow_1_">
	<g id="snow">
		<g id="Layer_1_1_">
			<g id="Layer_2">
			</g>
			<g id="kolba_4">
			</g>
			<g id="kolba_3">
			</g>
			<g id="doma">
			</g>
			<g id="car">
			</g>
			<g id="butylka_3">
			</g>
			<g id="butylka_1">
			</g>
			<g id="vanna_2">
			</g>
			<g id="sneg">
			</g>
			<g id="vigimka">
				<g>
					<path class="st0" d="M309.7,131.8L309.7,131.8L309.7,131.8c-0.4-1-0.9-2-1.5-3l-25.6-51.9l-25.6,52c-0.5,0.9-1,1.8-1.4,2.7l0,0
						l0,0c-1.5,3.5-2.4,7.4-2.4,11.5c0,16.2,13.1,29.4,29.4,29.4s29.4-13.1,29.4-29.4C312,139.2,311.2,135.2,309.7,131.8z"/>
					<path class="st1" d="M295.9,124.9L295.9,124.9L295.9,124.9c-0.4-1-0.9-2-1.5-3L268.8,70l-25.6,51.9c-0.5,0.9-1,1.8-1.4,2.7l0,0
						l0,0c-1.5,3.5-2.4,7.4-2.4,11.5c0,16.2,13.1,29.4,29.4,29.4s29.4-13.1,29.4-29.4C298.2,132.2,297.4,128.4,295.9,124.9z"/>
					<ellipse class="st2" cx="256.3" cy="129.4" rx="8" ry="8.2"/>
				</g>
			</g>
			<g id="chernichny_sok">
			</g>
			<g id="brusnichny_sok">
			</g>
			<g id="vanna_1">
			</g>
			<g id="zakvaska">
			</g>
			<g id="shariki_2">
			</g>
			<g id="shariki_1">
			</g>
			<g id="voronka">
			</g>
			<g id="gradusnik">
			</g>
			<g id="kolba_2">
			</g>
			<g id="kolba_1">
			</g>
			<g id="probirki">
			</g>
			<g id="lupa">
			</g>
			<g id="bidon">
			</g>
			<g id="blank">
			</g>
			<g id="clock">
				<g>
					
						<linearGradient id="SVGID_1_" gradientUnits="userSpaceOnUse" x1="360.5199" y1="36.5063" x2="378.2954" y2="86.8707" gradientTransform="matrix(1 0 0 1 0 -1)">
						<stop  offset="0" style="stop-color:#404B71"/>
						<stop  offset="0.6044" style="stop-color:#3C476E"/>
						<stop  offset="1" style="stop-color:#354169"/>
					</linearGradient>
					<path class="st3" d="M364.6,81l-1.9-7.1l1.7-3l0.2,0.9c0.3,0.9,1.2,1.5,2.2,1.2c0.2,0,0.3-0.1,0.4-0.2c0.7-0.4,1-1.2,0.8-2
						l-1-4.2l2.1-3.7l2.1,3.7l-1.2,4.3c-0.3,0.9,0.3,1.9,1.2,2.2c0.5,0.1,0.9,0,1.3-0.2s0.7-0.6,0.8-1.1l0.2-0.9l1.7,3l-1.9,7.1
						c-0.3,0.9,0.3,1.9,1.2,2.2c0.5,0.1,0.9,0,1.3-0.2s0.7-0.6,0.8-1.1l1-3.7l2.8,4.8c0.5,0.8,1.6,1.1,2.4,0.6s1.1-1.6,0.6-2.4
						l-2.8-4.8l3.7,1c0.5,0.1,0.9,0,1.3-0.2s0.7-0.6,0.8-1.1c0.3-0.9-0.3-1.9-1.2-2.2l-7.1-1.9l-1.7-3l0.9,0.2
						c0.5,0.1,0.9,0.1,1.3-0.2c0.4-0.2,0.7-0.6,0.8-1.1c0.3-0.9-0.3-1.9-1.2-2.2l-4.3-1.1l-2.1-3.7h4.2l3.1,3.1
						c0.6,0.6,1.5,0.7,2.1,0.3c0.1-0.1,0.3-0.2,0.4-0.3c0.7-0.7,0.7-1.8,0-2.5l-0.6-0.6h3.5l5.2,5.2c0.6,0.6,1.5,0.7,2.1,0.3
						c0.1-0.1,0.3-0.2,0.4-0.3c0.7-0.7,0.7-1.8,0-2.5l-2.7-2.7h5.6c0.3,0,0.6-0.1,0.9-0.2c0.5-0.3,0.9-0.9,0.9-1.5
						c0-1-0.8-1.8-1.8-1.8h-5.6l2.7-2.7c0.7-0.7,0.7-1.8,0-2.5s-1.8-0.7-2.5,0l-5.2,5.2H381l0.6-0.6c0.7-0.7,0.7-1.8,0-2.5
						s-1.8-0.7-2.5,0l-3.1,3.1h-4.2l2.1-3.7l4.3-1.1c0.2,0,0.3-0.1,0.4-0.2c0.7-0.4,1-1.2,0.8-2c-0.3-0.9-1.2-1.5-2.2-1.2l-0.9,0.2
						l1.7-3l7.1-1.9c0.2,0,0.3-0.1,0.4-0.2c0.7-0.4,1-1.2,0.8-2c-0.3-0.9-1.2-1.5-2.2-1.2l-3.7,1l2.8-4.8c0.5-0.8,0.2-1.9-0.6-2.4
						c-0.8-0.5-1.9-0.2-2.4,0.6l-2.8,4.8l-1-3.7c-0.3-0.9-1.2-1.5-2.2-1.2c-0.9,0.3-1.5,1.2-1.2,2.2l1.9,7.1l-1.7,3l-0.2-0.9
						c-0.3-0.9-1.2-1.5-2.2-1.2c-0.9,0.3-1.5,1.2-1.2,2.2l1.1,4.3l-2.1,3.7l-2.1-3.7l1.1-4.3c0.3-0.9-0.3-1.9-1.2-2.2
						c-0.9-0.3-1.9,0.3-2.2,1.2l-0.2,0.9l-1.7-3l1.9-7.1c0.3-0.9-0.3-1.9-1.2-2.2c-0.9-0.3-1.9,0.3-2.2,1.2l-1,3.7l-2.8-4.8
						c-0.5-0.8-1.6-1.1-2.4-0.6s-1.1,1.6-0.6,2.4l2.8,4.8l-3.7-1c-0.9-0.3-1.9,0.3-2.2,1.2c-0.3,0.9,0.3,1.9,1.2,2.2l7.1,1.9l1.7,3
						l-0.9-0.2c-0.9-0.3-1.9,0.3-2.2,1.2c-0.3,0.9,0.3,1.9,1.2,2.2l4.3,1.1l2.7,3.9h-4.2l-3.1-3.1c-0.7-0.7-1.8-0.7-2.5,0
						s-0.7,1.8,0,2.5l0.6,0.6h-3.5l-5.2-5.2c-0.7-0.7-1.8-0.7-2.5,0s-0.7,1.8,0,2.5l2.7,2.7h-5.6c-1,0-1.8,0.8-1.8,1.8
						s0.8,1.8,1.8,1.8h5.6l-2.7,2.7c-0.7,0.7-0.7,1.8,0,2.5c0.6,0.6,1.5,0.7,2.1,0.3c0.1-0.1,0.3-0.2,0.4-0.3l5.2-5.2h3.5l-0.6,0.6
						c-0.7,0.7-0.7,1.8,0,2.5c0.6,0.6,1.5,0.7,2.1,0.3c0.1-0.1,0.3-0.2,0.4-0.3l3.1-3.1h4.2l-2.1,3.7l-4.3,1.1
						c-0.9,0.3-1.5,1.2-1.2,2.2c0.3,0.9,1.2,1.5,2.2,1.2l0.9-0.2l-1.7,3l-7.1,1.9c-0.9,0.3-1.5,1.2-1.2,2.2c0.3,0.9,1.2,1.5,2.2,1.2
						l3.7-1l-2.8,4.8c-0.5,0.8-0.2,1.9,0.6,2.4c0.6,0.3,1.2,0.3,1.8,0c0.3-0.1,0.5-0.4,0.6-0.6l2.8-4.8l1,3.7
						c0.3,0.9,1.2,1.5,2.2,1.2c0.2,0,0.3-0.1,0.4-0.2C364.5,82.6,364.8,81.8,364.6,81z"/>
					
						<linearGradient id="SVGID_2_" gradientUnits="userSpaceOnUse" x1="228.7363" y1="107.4276" x2="234.1108" y2="122.6552" gradientTransform="matrix(1 0 0 1 0 -1)">
						<stop  offset="0" style="stop-color:#404B71"/>
						<stop  offset="0.6044" style="stop-color:#3C476E"/>
						<stop  offset="1" style="stop-color:#354169"/>
					</linearGradient>
					<path class="st4" d="M230,120.2l-0.6-2.1l0.5-0.9l0.1,0.3c0.1,0.3,0.4,0.5,0.7,0.4c0,0,0.1,0,0.1-0.1c0.2-0.1,0.3-0.4,0.2-0.6
						l-0.3-1.3l0.6-1.1l0.6,1.1l-0.3,1.3c-0.1,0.3,0.1,0.6,0.4,0.7c0.1,0,0.3,0,0.4-0.1c0.1-0.1,0.2-0.2,0.2-0.3l0.1-0.3l0.5,0.9
						l-0.6,2.1c-0.1,0.3,0.1,0.6,0.4,0.7c0.1,0,0.3,0,0.4-0.1c0.1-0.1,0.2-0.2,0.2-0.3l0.3-1.1l0.8,1.5c0.1,0.3,0.5,0.3,0.7,0.2
						c0.3-0.1,0.3-0.5,0.2-0.7l-0.8-1.5l1.1,0.3c0.1,0,0.3,0,0.4-0.1c0.1-0.1,0.2-0.2,0.2-0.3c0.1-0.3-0.1-0.6-0.4-0.7l-2.1-0.6
						l-0.5-0.9l0.3,0.1c0.1,0,0.3,0,0.4-0.1c0.1-0.1,0.2-0.2,0.2-0.3c0.1-0.3-0.1-0.6-0.4-0.7l-1.3-0.3l-0.6-1.1h1.3l0.9,0.9
						c0.2,0.2,0.4,0.2,0.6,0.1l0.1-0.1c0.2-0.2,0.2-0.5,0-0.8l-0.2-0.2h1.1l1.6,1.6c0.2,0.2,0.4,0.2,0.6,0.1c0,0,0.1,0,0.1-0.1
						c0.2-0.2,0.2-0.5,0-0.8l-0.8-0.8h1.7c0.1,0,0.2,0,0.3-0.1c0.2-0.1,0.3-0.3,0.3-0.5c0-0.3-0.2-0.5-0.5-0.5h-1.7l0.8-0.8
						c0.2-0.2,0.2-0.5,0-0.8c-0.2-0.2-0.5-0.2-0.8,0l-1.6,1.6H235l0.2-0.2c0.2-0.2,0.2-0.5,0-0.8c-0.2-0.2-0.5-0.2-0.8,0l-0.9,0.9
						h-1.3l0.6-1.1l1.3-0.3c0,0,0.1,0,0.1-0.1c0.2-0.1,0.3-0.4,0.2-0.6c-0.1-0.3-0.4-0.5-0.7-0.4l-0.3,0.1l0.5-0.9l2.1-0.6
						c0,0,0.1,0,0.1-0.1c0.2-0.1,0.3-0.4,0.2-0.6c-0.1-0.3-0.4-0.5-0.7-0.4l-1.1,0.3l0.8-1.5c0.1-0.3,0.1-0.6-0.2-0.7
						s-0.6-0.1-0.7,0.2l-0.8,1.5l-0.3-1.1c-0.1-0.3-0.4-0.5-0.7-0.4s-0.5,0.4-0.4,0.7l0.6,2.1l-0.5,0.9l-0.1-0.3
						c-0.1-0.3-0.4-0.5-0.7-0.4s-0.5,0.4-0.4,0.7l0.3,1.3l-0.6,1.1l-0.6-1.1l0.3-1.3c0.1-0.3-0.1-0.6-0.4-0.7
						c-0.3-0.1-0.6,0.1-0.7,0.4l-0.1,0.3l-0.5-0.9l0.6-2.1c0.1-0.3-0.1-0.6-0.4-0.7c-0.3-0.1-0.6,0.1-0.7,0.4l-0.3,1.1l-0.8-1.5
						c-0.1-0.3-0.5-0.3-0.7-0.2c-0.3,0.1-0.3,0.5-0.2,0.7l0.8,1.5l-1.1-0.3c-0.3-0.1-0.6,0.1-0.7,0.4c-0.1,0.3,0.1,0.6,0.4,0.7
						l2.1,0.6l0.5,0.9l-0.3-0.1c-0.3-0.1-0.6,0.1-0.7,0.4c-0.1,0.3,0.1,0.6,0.4,0.7l1.3,0.3l0.6,1.1h-1.3l-0.9-0.9
						c-0.2-0.2-0.5-0.2-0.8,0c-0.2,0.2-0.2,0.5,0,0.8l0.2,0.2h-1.1l-0.7-1.4c-0.2-0.2-0.5-0.2-0.8,0c-0.2,0.2-0.2,0.5,0,0.8l0.8,0.8
						h-1.7c-0.3,0-0.5,0.2-0.5,0.5s0.2,0.5,0.5,0.5h1.7l-0.8,0.8c-0.2,0.2-0.2,0.5,0,0.8c0.2,0.2,0.4,0.2,0.6,0.1c0,0,0.1,0,0.1-0.1
						l1.6-1.6h1.1l-0.2,0.2c-0.2,0.2-0.2,0.5,0,0.8c0.2,0.2,0.4,0.2,0.6,0.1l0.1-0.1l0.9-0.9h1.3l-0.6,1.1l-1.3,0.3
						c-0.3,0.1-0.5,0.4-0.4,0.7s0.4,0.5,0.7,0.4l0.3-0.1l-0.5,0.9l-2.1,0.6c-0.3,0.1-0.5,0.4-0.4,0.7s0.4,0.5,0.7,0.4l1.1-0.3
						l-0.8,1.5c-0.1,0.3-0.1,0.6,0.2,0.7c0.2,0.1,0.4,0.1,0.5,0c0.1,0,0.1-0.1,0.2-0.2l0.8-1.5l0.3,1.1c0.1,0.3,0.4,0.5,0.7,0.4
						c0,0,0.1,0,0.1-0.1C229.9,120.7,230,120.5,230,120.2z"/>
					
						<linearGradient id="SVGID_3_" gradientUnits="userSpaceOnUse" x1="156.6818" y1="134.7021" x2="168.2675" y2="167.5285" gradientTransform="matrix(1 0 0 1 0 -1)">
						<stop  offset="0" style="stop-color:#404B71"/>
						<stop  offset="0.6044" style="stop-color:#3C476E"/>
						<stop  offset="1" style="stop-color:#354169"/>
					</linearGradient>
					<path class="st5" d="M159.2,163.4l-1.2-4.6l1.1-2l0.2,0.6c0.2,0.6,0.8,1,1.4,0.8c0.1,0,0.2-0.1,0.3-0.1
						c0.4-0.3,0.7-0.8,0.5-1.3l-0.7-2.8l1.4-2.4l1.4,2.4l-0.8,2.8c-0.2,0.6,0.2,1.2,0.8,1.4c0.3,0.1,0.6,0,0.9-0.1s0.5-0.4,0.5-0.7
						l0.2-0.6l1.1,2l-1.2,4.6c-0.2,0.6,0.2,1.2,0.8,1.4c0.3,0.1,0.6,0,0.9-0.1s0.5-0.4,0.5-0.7l0.6-2.4l1.8,3.2
						c0.3,0.5,1,0.7,1.6,0.4c0.5-0.3,0.7-1,0.4-1.6l-1.8-3.2l2.4,0.6c0.3,0.1,0.6,0,0.9-0.1c0.3-0.1,0.5-0.4,0.5-0.7
						c0.2-0.6-0.2-1.2-0.8-1.4l-4.6-1.2l-1.1-2l0.6,0.2c0.3,0.1,0.6,0,0.9-0.1c0.3-0.1,0.5-0.4,0.5-0.7c0.2-0.6-0.2-1.2-0.8-1.4
						l-2.8-0.7l-1.4-2.4h2.8l2,2c0.4,0.4,0.9,0.4,1.4,0.2c0.1-0.1,0.2-0.1,0.2-0.2c0.4-0.4,0.4-1.2,0-1.6l-0.4-0.4h2.3l3.4,3.4
						c0.4,0.4,0.9,0.4,1.4,0.2c0.1,0,0.2-0.1,0.2-0.2c0.4-0.4,0.4-1.2,0-1.6l-1.8-1.8h3.6c0.2,0,0.4-0.1,0.6-0.2
						c0.3-0.2,0.6-0.6,0.6-1c0-0.6-0.5-1.2-1.2-1.2h-3.6l1.8-1.8c0.4-0.4,0.4-1.2,0-1.6c-0.5-0.5-1.2-0.4-1.6,0l-3.4,3.4h-2.3
						l0.4-0.4c0.4-0.4,0.4-1.2,0-1.6c-0.5-0.4-1.2-0.4-1.6,0l-2,2h-2.8l1.4-2.4l2.8-0.7c0.1,0,0.2-0.1,0.3-0.1
						c0.4-0.3,0.7-0.8,0.5-1.3c-0.2-0.6-0.8-1-1.4-0.8l-0.6,0.2l1.1-2l4.6-1.2c0.1,0,0.2-0.1,0.3-0.1c0.4-0.3,0.7-0.8,0.5-1.3
						c-0.2-0.6-0.8-1-1.4-0.8l-2.4,0.6l1.8-3.2c0.3-0.6,0.1-1.3-0.4-1.6s-1.3-0.1-1.6,0.4l-1.8,3.2l-0.6-2.4c-0.2-0.6-0.8-1-1.4-0.8
						c-0.6,0.2-1,0.8-0.8,1.4l1.2,4.6l-1.1,2l-0.2-0.6c-0.2-0.6-0.8-1-1.4-0.8c-0.6,0.2-1,0.8-0.8,1.4l0.7,2.8l-1.4,2.4l-1.4-2.4
						l0.7-2.8c0.2-0.6-0.2-1.2-0.8-1.4s-1.2,0.2-1.4,0.8l-0.2,0.6l-1.1-2l1.2-4.6c0.2-0.6-0.2-1.2-0.8-1.4s-1.2,0.2-1.4,0.8
						l-0.6,2.4l-1.8-3.2c-0.3-0.5-1-0.7-1.6-0.4s-0.7,1-0.4,1.6l1.8,3.2l-2.4-0.6c-0.6-0.2-1.2,0.2-1.4,0.8s0.2,1.2,0.8,1.4l4.6,1.2
						l1.1,2l-0.6-0.2c-0.6-0.2-1.2,0.2-1.4,0.8s0.2,1.2,0.8,1.4l2.8,0.7l1.4,2.4h-2.8l-2-2c-0.4-0.5-1.2-0.4-1.6,0
						c-0.4,0.5-0.4,1.2,0,1.6l0.4,0.4h-2.3l-3.4-3.4c-0.4-0.4-1.2-0.4-1.6,0c-0.4,0.4-0.4,1.2,0,1.6l1.8,1.8h-3.6
						c-0.6,0-1.1,0.5-1.1,1.1s0.5,1.1,1.1,1.1h3.6l-1.8,1.8c-0.4,0.5-0.4,1.2,0,1.6c0.4,0.4,0.9,0.4,1.4,0.2c0.1,0,0.2-0.1,0.2-0.2
						l3.4-3.4h2.3l-0.4,0.4c-0.4,0.4-0.4,1.2,0,1.6c0.4,0.4,0.9,0.4,1.4,0.2c0.1,0,0.2-0.1,0.2-0.2l2-2h2.8l-1.4,2.4l-2.8,0.7
						c-0.6,0.2-1,0.8-0.8,1.4c0.2,0.6,0.8,1,1.4,0.8l0.6-0.2l-1.1,2l-4.6,1.2c-0.6,0.2-1,0.8-0.8,1.4c0.2,0.6,0.8,1,1.4,0.8l2.4-0.6
						l-1.8,3.2c-0.3,0.6-0.1,1.3,0.4,1.6c0.4,0.2,0.8,0.2,1.2,0c0.2-0.1,0.3-0.2,0.4-0.4l1.8-3.2l0.6,2.4c0.2,0.6,0.8,1,1.4,0.8
						c0.1,0,0.2-0.1,0.3-0.1C159.1,164.4,159.3,163.9,159.2,163.4z"/>
					
						<linearGradient id="SVGID_4_" gradientUnits="userSpaceOnUse" x1="287.0031" y1="137.3328" x2="319.3559" y2="213.0521" gradientTransform="matrix(1 0 0 1 0 -1)">
						<stop  offset="0" style="stop-color:#404B71"/>
						<stop  offset="0.6044" style="stop-color:#3C476E"/>
						<stop  offset="1" style="stop-color:#354169"/>
					</linearGradient>
					<path class="st6" d="M339.6,170.4h-7l3.4-3.4c0.9-0.9,0.9-2.3,0-3.1c-0.9-0.9-2.3-0.9-3.1,0l-6.5,6.5H322l1.9-1.9
						c0.9-0.9,0.9-2.3,0-3.1c-0.9-0.9-2.3-0.9-3.1,0l-5.1,5.1h-4.3l0.1-0.1c0.8-0.8,0.9-2.2,0.1-3c-0.3-1.1-1.5-1.8-2.7-1.5
						l-0.2,0.1l2.1-3.7l6.9-1.9c0.2,0,0.4-0.1,0.5-0.2c0.8-0.5,1.3-1.5,1-2.5c-0.3-1.2-1.5-1.9-2.7-1.6l-2.5,0.5l2.2-3.8l8.9-2.4
						c0.2-0.1,0.4-0.1,0.5-0.2c0.8-0.5,1.3-1.5,1-2.5c-0.3-1.2-1.5-1.9-2.7-1.6l-4.6,1.2l3.5-6.1c0.6-1.1,0.2-2.4-0.8-3
						c-1.1-0.6-2.4-0.2-3,0.8l-3.5,6.1l-1.2-4.6c-0.3-1.2-1.5-1.9-2.7-1.6c-1.2,0.3-1.9,1.5-1.6,2.7l2.4,8.9l-2.2,3.8l-0.7-2.6
						c-0.3-1.2-1.5-1.9-2.7-1.6c-1.2,0.3-1.9,1.5-1.6,2.7l1.9,6.9l-2.1,3.7v-0.2c-0.3-1.2-1.5-1.8-2.6-1.6c-1.1-0.2-2.3,0.4-2.6,1.6
						v0.2l-2.1-3.7l1.9-6.9c0.3-1.2-0.4-2.4-1.6-2.7s-2.4,0.4-2.7,1.6l-0.7,2.6l-2.2-3.8l2.4-8.9c0.3-1.2-0.4-2.4-1.6-2.7
						s-2.4,0.4-2.7,1.6l-1.2,4.6l-3.5-6.1c-0.6-1.1-2-1.4-3-0.8c-1.1,0.6-1.4,2-0.8,3l3.5,6.1l-4.6-1.2c-1.2-0.3-2.4,0.4-2.7,1.6
						c-0.3,1.2,0.4,2.4,1.6,2.7l8.9,2.4l2.2,3.8l-2.6-0.7c-1.2-0.3-2.4,0.4-2.7,1.6c-0.3,1.2,0.4,2.4,1.6,2.7l6.9,1.9l2.1,3.7H296
						c-1.1-0.3-2.3,0.3-2.6,1.4c-0.9,0.9-0.8,2.3,0,3.1l0.1,0.1h-4.3l-5.1-5.1c-0.9-0.9-2.3-0.9-3.1,0c-0.9,0.9-0.9,2.3,0,3.1
						l1.9,1.9h-4.4l-6.5-6.5c-0.9-0.9-2.3-0.9-3.1,0c-0.9,0.9-0.9,2.3,0,3.1l3.4,3.4h-7c-1.2,0-2.2,1-2.2,2.2s1,2.2,2.2,2.2h7
						l-3.4,3.4c-0.9,0.9-0.9,2.3,0,3.1c0.7,0.7,1.8,0.8,2.7,0.4c0.2-0.1,0.3-0.2,0.5-0.4l6.5-6.5h4.4l-1.9,1.9
						c-0.9,0.9-0.9,2.3,0,3.1c0.7,0.7,1.8,0.8,2.7,0.4c0.2-0.1,0.3-0.2,0.5-0.4l5.1-5.1h4.3l-0.1,0.1c-0.8,0.8-0.9,2.2-0.1,3
						c0.3,1.1,1.5,1.8,2.7,1.5h0.2l-2.1,3.7l-6.9,1.9c-1.2,0.3-1.9,1.5-1.6,2.7s1.5,1.9,2.7,1.6l2.6-0.7l-2.2,3.8l-8.9,2.4
						c-1.2,0.3-1.9,1.5-1.6,2.7s1.5,1.9,2.7,1.6l4.6-1.2l-3.5,6.1c-0.6,1.1-0.2,2.4,0.8,3c0.7,0.4,1.6,0.4,2.2,0
						c0.3-0.2,0.6-0.5,0.8-0.8l3.5-6.1l1.2,4.6c0.3,1.2,1.5,1.9,2.7,1.6c0.2-0.1,0.4-0.1,0.5-0.2c0.8-0.5,1.3-1.5,1-2.5l-2.4-8.9
						l2.2-3.8l0.7,2.6c0.3,1.2,1.5,1.9,2.7,1.6c0.2,0,0.4-0.1,0.5-0.2c0.8-0.5,1.3-1.5,1-2.5l-1.9-6.9l2.1-3.7v0.2
						c0.3,1.2,1.5,1.8,2.6,1.6c0.6,0.1,1.1,0,1.6-0.2c0.5-0.3,0.9-0.8,1-1.3v-0.2l2.1,3.7l-1.9,6.9c-0.3,1.2,0.4,2.4,1.6,2.7
						c0.6,0.2,1.2,0.1,1.7-0.2s0.9-0.8,1-1.3l0.7-2.6l2.2,3.8l-2.4,8.9c-0.3,1.2,0.4,2.4,1.6,2.7c0.6,0.2,1.2,0.1,1.7-0.2
						s0.9-0.8,1-1.3l1.2-4.6l3.5,6.1c0.6,1.1,2,1.4,3,0.8c1.1-0.6,1.4-2,0.8-3l-3.5-6.1l4.6,1.2c0.6,0.2,1.2,0.1,1.7-0.2
						s0.9-0.8,1-1.3c0.3-1.2-0.4-2.4-1.6-2.7l-8.9-2.4l-2.2-3.8l2.6,0.7c0.6,0.2,1.2,0.1,1.7-0.2s0.9-0.8,1-1.3
						c0.3-1.2-0.4-2.4-1.6-2.7l-6.9-1.9l-2.1-3.7h0.2c0.6,0.2,1.2,0.1,1.7-0.2c0.4-0.3,0.8-0.7,1-1.2c0.9-0.9,0.8-2.3,0-3.1
						l-0.1-0.1h4.3l5.1,5.1c0.7,0.7,1.8,0.8,2.7,0.4c0.2-0.1,0.3-0.2,0.5-0.4c0.9-0.9,0.9-2.3,0-3.1l-1.9-1.9h4.4l6.5,6.5
						c0.7,0.7,1.8,0.8,2.7,0.4c0.2-0.1,0.3-0.2,0.5-0.4c0.9-0.9,0.9-2.3,0-3.1l-3.4-3.4h7c0.4,0,0.8-0.1,1.1-0.3
						c0.7-0.4,1.1-1.1,1.1-1.9C341.8,171.4,340.8,170.4,339.6,170.4z M303.6,174.9c-1.4,0.8-3.1,0.3-3.9-1c-0.8-1.4-0.3-3.1,1-3.9
						c1.4-0.8,3.1-0.3,3.9,1C305.4,172.4,305,174.2,303.6,174.9z"/>
					
						<linearGradient id="SVGID_5_" gradientUnits="userSpaceOnUse" x1="241.6787" y1="43.5625" x2="255.0452" y2="74.8523" gradientTransform="matrix(1 0 0 1 0 -1)">
						<stop  offset="0" style="stop-color:#404B71"/>
						<stop  offset="0.6044" style="stop-color:#3C476E"/>
						<stop  offset="1" style="stop-color:#354169"/>
					</linearGradient>
					<path class="st7" d="M265.6,58.6h-1.1l0.4-0.6c0.3-0.4,0.2-0.9-0.2-1.1c-0.4-0.3-0.9-0.2-1.1,0.2l-1,1.5H261l2.2-3.2
						c0.3-0.4,0.2-0.9-0.2-1.1c-0.4-0.3-0.9-0.2-1.1,0.2l-2.8,4.1h-1.5l1.3-1.9c0.3-0.4,0.2-0.9-0.2-1.1c-0.4-0.3-0.9-0.2-1.1,0.2
						l-1.9,2.8h-1l0.4-0.6c0.3-0.4,0.2-0.9-0.2-1.1c-0.4-0.3-0.9-0.2-1.1,0.2l-1,1.5h-0.4l-0.9-1.6l0.2-0.3l1.8-0.2
						c0.4,0,0.8-0.4,0.7-0.9c0-0.4-0.4-0.8-0.9-0.7l-0.7,0.1l0.5-0.9l3.4-0.3c0.4,0,0.8-0.4,0.7-0.9c0-0.4-0.4-0.8-0.9-0.7l-2.3,0.2
						l0.7-1.3l5-0.4c0.4,0,0.8-0.4,0.7-0.9c0-0.4-0.4-0.8-0.9-0.7l-3.8,0.3l0.8-1.4l1.8-0.2c0.4,0,0.8-0.4,0.7-0.9
						c0-0.4-0.4-0.8-0.9-0.7l-0.7,0.1l0.6-1c0.2-0.4,0.1-0.9-0.3-1.1c-0.4-0.2-0.9-0.1-1.1,0.3l-0.6,1l-0.3-0.6
						c-0.2-0.4-0.7-0.6-1.1-0.4c-0.4,0.2-0.6,0.7-0.4,1.1l0.8,1.7l-0.8,1.4l-1.6-3.5c-0.2-0.4-0.7-0.6-1.1-0.4s-0.6,0.7-0.4,1.1
						l2.1,4.5l-0.7,1.3l-1-2.1c-0.2-0.4-0.7-0.6-1.1-0.4c-0.4,0.2-0.6,0.7-0.4,1.1l1.4,3.1l-0.5,0.9l-0.3-0.6
						c-0.2-0.4-0.7-0.6-1.1-0.4c-0.4,0.2-0.6,0.7-0.4,1.1l0.8,1.7l-0.2,0.3h-1.9l-0.2-0.3l0.8-1.7c0.2-0.4,0-0.9-0.4-1.1
						s-0.9,0-1.1,0.4l-0.3,0.6l-0.5-0.9l1.4-3.1c0.2-0.4,0-0.9-0.4-1.1s-0.9,0-1.1,0.4l-1,2.1l-0.7-1.3l2.1-4.5
						c0.2-0.4,0-0.9-0.4-1.1s-0.9,0-1.1,0.4l-1.6,3.5l-0.8-1.4l0.8-1.7c0.2-0.4,0-0.9-0.4-1.1s-0.9,0-1.1,0.4l-0.3,0.6l-0.6-1
						c-0.2-0.4-0.7-0.5-1.1-0.3c-0.4,0.2-0.5,0.7-0.3,1.1l0.6,1l-0.7-0.1c-0.4,0-0.8,0.3-0.9,0.7c0,0.4,0.3,0.8,0.7,0.9l1.8,0.2
						l0.8,1.4l-3.8-0.3c-0.4,0-0.8,0.3-0.9,0.7c0,0.4,0.3,0.8,0.7,0.9l5,0.4l0.7,1.3l-2.3-0.2c-0.4,0-0.8,0.3-0.9,0.7
						c0,0.4,0.3,0.8,0.7,0.9l3.4,0.3l0.5,0.9l-0.7-0.1c-0.4,0-0.8,0.3-0.9,0.7c0,0.4,0.3,0.8,0.7,0.9l1.8,0.2L246,57l-0.9,1.6h-0.4
						l-1-1.5c-0.3-0.4-0.8-0.5-1.1-0.2c-0.4,0.3-0.5,0.8-0.2,1.1l0.4,0.6h-1l-1.9-2.8c-0.3-0.4-0.8-0.5-1.1-0.2
						c-0.4,0.3-0.5,0.8-0.2,1.1l1.3,1.9h-1.5l-2.8-4.1c-0.3-0.4-0.8-0.5-1.1-0.2c-0.4,0.3-0.5,0.8-0.2,1.1l2.2,3.2h-1.6l-1-1.5
						c-0.3-0.4-0.8-0.5-1.1-0.2c-0.4,0.3-0.5,0.8-0.2,1.1l0.4,0.6h-1.1c-0.4,0-0.8,0.4-0.8,0.8s0.4,0.8,0.8,0.8h1.1l-0.4,0.6
						c-0.3,0.4-0.2,0.9,0.2,1.1c0.1,0.1,0.3,0.1,0.5,0.1c0.3,0,0.5-0.1,0.7-0.3l1-1.5h1.6l-2.2,3.2c-0.3,0.4-0.2,0.9,0.2,1.1
						c0.1,0.1,0.3,0.1,0.5,0.1c0.3,0,0.5-0.1,0.7-0.3l2.8-4.1h1.5l-1.3,1.9c-0.3,0.4-0.2,0.9,0.2,1.1c0.1,0.1,0.3,0.1,0.5,0.1
						c0.3,0,0.5-0.1,0.7-0.3l1.9-2.8h1l-0.4,0.6c-0.3,0.4-0.2,0.9,0.2,1.1c0.1,0.1,0.3,0.1,0.5,0.1c0.3,0,0.5-0.1,0.7-0.3l1-1.5h0.4
						l0.9,1.6l-0.2,0.3l-1.8,0.2c-0.4,0-0.8,0.4-0.7,0.9c0,0.4,0.4,0.7,0.8,0.7c0,0,0,0,0.1,0l0.7-0.1l-0.5,0.9l-3.4,0.3
						c-0.4,0-0.8,0.4-0.7,0.9c0,0.4,0.4,0.7,0.8,0.7c0,0,0,0,0.1,0l2.3-0.2l-0.7,1.3l-5,0.4c-0.4,0-0.8,0.4-0.7,0.9
						c0,0.4,0.4,0.7,0.8,0.7c0,0,0,0,0.1,0l3.8-0.3l-0.8,1.4l-1.8,0.2c-0.4,0-0.8,0.4-0.7,0.9c0,0.4,0.4,0.7,0.8,0.7c0,0,0,0,0.1,0
						l0.7-0.1l-0.6,1c-0.2,0.4-0.1,0.9,0.3,1.1c0.1,0.1,0.3,0.1,0.4,0.1c0.3,0,0.6-0.1,0.7-0.4l0.6-1l0.3,0.6
						c0.1,0.3,0.4,0.5,0.7,0.5c0.1,0,0.2,0,0.3-0.1c0.4-0.2,0.6-0.7,0.4-1.1l-0.8-1.7l0.8-1.4l1.6,3.5c0.1,0.3,0.4,0.5,0.7,0.5
						c0.1,0,0.2,0,0.3-0.1c0.4-0.2,0.6-0.7,0.4-1.1l-2.1-4.5l0.7-1.3l1,2.1c0.1,0.3,0.4,0.5,0.7,0.5c0.1,0,0.2,0,0.3-0.1
						c0.4-0.2,0.6-0.7,0.4-1.1l-1.4-3.1l0.5-0.9l0.3,0.6c0.1,0.3,0.4,0.5,0.7,0.5c0.1,0,0.2,0,0.3-0.1c0.4-0.2,0.6-0.7,0.4-1.1
						l-0.8-1.7l0.2-0.3h1.9l0.2,0.3l-0.8,1.7c-0.2,0.4,0,0.9,0.4,1.1c0.1,0.1,0.2,0.1,0.3,0.1c0.3,0,0.6-0.2,0.7-0.5l0.3-0.6
						l0.5,0.9l-1.3,3.2c-0.2,0.4,0,0.9,0.4,1.1c0.1,0.1,0.2,0.1,0.3,0.1c0.3,0,0.6-0.2,0.7-0.5l1-2.1l0.7,1.3L251,73
						c-0.2,0.4,0,0.9,0.4,1.1c0.1,0.1,0.2,0.1,0.3,0.1c0.3,0,0.6-0.2,0.7-0.5l1.6-3.5l1,1.4l-0.8,1.7c-0.2,0.4,0,0.9,0.4,1.1
						c0.1,0.1,0.2,0.1,0.3,0.1c0.3,0,0.6-0.2,0.7-0.5l0.3-0.6l0.6,1c0.2,0.3,0.4,0.4,0.7,0.4c0.1,0,0.3,0,0.4-0.1
						c0.4-0.2,0.5-0.7,0.3-1.1l-0.6-1l0.7,0.1c0,0,0,0,0.1,0c0.4,0,0.8-0.3,0.8-0.7c0-0.4-0.3-0.8-0.7-0.9l-1.8-0.2l-0.8-1.4
						l3.8,0.3c0,0,0,0,0.1,0c0.4,0,0.8-0.3,0.8-0.7c0-0.4-0.3-0.8-0.7-0.9l-5-0.4l-0.7-1.3l2.3,0.2c0,0,0,0,0.1,0
						c0.4,0,0.8-0.3,0.8-0.7c0-0.4-0.3-0.8-0.7-0.9l-3.4-0.3l-0.5-0.9l0.7,0.1c0,0,0,0,0.1,0c0.4,0,0.8-0.3,0.8-0.7
						c0-0.4-0.3-0.8-0.7-0.9l-1.8-0.2l-0.2-0.3l0.9-1.6h0.4l1,1.5c0.2,0.2,0.4,0.3,0.7,0.3c0.2,0,0.3,0,0.5-0.1
						c0.4-0.3,0.5-0.8,0.2-1.1l-0.4-0.6h1l1.9,2.8c0.2,0.2,0.4,0.3,0.7,0.3c0.2,0,0.3,0,0.5-0.1c0.4-0.3,0.5-0.8,0.2-1.1l-1.3-1.9
						h1.5l2.8,4.1c0.2,0.2,0.4,0.3,0.7,0.3c0.2,0,0.3,0,0.5-0.1c0.4-0.3,0.5-0.8,0.2-1.1l-2.2-3.2h1.6l1,1.5
						c0.2,0.2,0.4,0.3,0.7,0.3c0.2,0,0.3,0,0.5-0.1c0.4-0.3,0.5-0.8,0.2-1.1l-0.4-0.6h1.1c0.4,0,0.8-0.4,0.8-0.8
						C266.4,58.9,266,58.6,265.6,58.6z M247.9,61l-0.9-1.6l0.9-1.6h1.9l0.9,1.6l-0.9,1.6H247.9z"/>
					<circle class="st2" cx="279.7" cy="38.6" r="3.8"/>
					<circle class="st2" cx="140" cy="110.1" r="3.8"/>
					<circle class="st2" cx="145.5" cy="124.6" r="1.7"/>
					<circle class="st2" cx="132.3" cy="133.2" r="1.7"/>
					<circle class="st2" cx="266.4" cy="34.8" r="1.7"/>
					<circle class="st2" cx="297.1" cy="74.7" r="4.2"/>
					<circle class="st2" cx="329.2" cy="212.2" r="4.2"/>
					<circle class="st2" cx="320.3" cy="85.7" r="3.1"/>
					<circle class="st2" cx="314.3" cy="95.1" r="1.7"/>
					<circle class="st2" cx="285.2" cy="84" r="1.7"/>
					<circle class="st2" cx="373.6" cy="110.1" r="1.7"/>
					<circle class="st2" cx="339.3" cy="85.7" r="1.7"/>
					<circle class="st2" cx="332.6" cy="98.5" r="1.7"/>
					<circle class="st2" cx="330.9" cy="85.5" r="1.7"/>
					<circle class="st2" cx="339.3" cy="74.7" r="1.7"/>
					<circle class="st2" cx="384" cy="87.4" r="1.7"/>
					<circle class="st2" cx="389" cy="80.6" r="1.7"/>
					<circle class="st2" cx="336" cy="202.8" r="1.7"/>
					<circle class="st2" cx="348.6" cy="201.1" r="1.7"/>
					<circle class="st2" cx="341" cy="210.6" r="1.7"/>
					<circle class="st2" cx="305.4" cy="73" r="1.7"/>
					<circle class="st2" cx="312.6" cy="80.6" r="1.7"/>
				</g>
			</g>
		</g>
	</g>
</g>
</svg>
