<?xml version="1.0" encoding="utf-8"?>
<!-- Generator: Adobe Illustrator 19.0.0, SVG Export Plug-In . SVG Version: 6.00 Build 0)  -->
<svg version="1.1" xmlns="http://www.w3.org/2000/svg" xmlns:xlink="http://www.w3.org/1999/xlink" x="0px" y="0px"
	 viewBox="0 0 351.2 305" style="enable-background:new 0 0 351.2 305;" xml:space="preserve">
<style type="text/css">
	.st0{fill:#519E38;}
	.st1{fill:#F4F4F4;}
	.st2{fill:#D6D6D6;}
	.st3{fill:#EAEAEA;}
	.st4{fill:#FFFFFF;}
	.st5{fill:#99C5E9;}
	.st6{fill:#62BA47;}
	.st7{fill-rule:evenodd;clip-rule:evenodd;fill:#99C5E9;}
	.st8{fill-rule:evenodd;clip-rule:evenodd;fill:#62BA47;}
	.st9{fill:#62BA46;}
	.st10{fill-rule:evenodd;clip-rule:evenodd;fill:#DA1B51;}
	.st11{fill-rule:evenodd;clip-rule:evenodd;fill:#F1788A;}
	.st12{fill:#483290;}
	.st13{fill:#712F8F;}
</style>
<g id="Layer_2">
</g>
<g id="kolba_4">
</g>
<g id="kolba_3">
</g>
<g id="kolby">
</g>
<g id="doma">
</g>
<g id="car">
</g>
<g id="butylka_3">
</g>
<g id="butylka_2">
	<g>
		<path class="st0" d="M287.1,243c0,0,0-64.5,0-99.6c0-35.1-14.6-48.4-14.6-48.4c3.9-21.7-6.5-28.2-6.5-28.2V59h2.2
			c0,0,0-8.4,0-11.2c0-2.8-3.9-2.5-3.9-2.5h-14.3h-1.3h-14.3c0,0-3.9-0.3-3.9,2.5c0,2.8,0,11.2,0,11.2h2.3v7.8h-0.1
			c0,0-10.4,6.5-6.5,28.2c0,0-14.6,13.4-14.6,48.4c0,35.1,0,99.6,0,99.6s-1.5,21.4,14.3,21.4c4.3,0,7.8,0,10.8,0
			c8.1,0,11.8,0,11.8,0h0.7h0.8h0.1H262h0.1c3,0,6.5,0,10.8,0c0,0,0,0,0.1,0C288.6,264.4,287.1,243,287.1,243z"/>
		<path class="st1" d="M279.5,238c0,0,0-64.5,0-99.6c0-35.1-14.6-48.4-14.6-48.4c3.9-21.7-6.5-28.2-6.5-28.2v-8h-33v8h-0.1
			c0,0-10.4,6.5-6.5,28.2c0,0-14.6,13.4-14.6,48.4c0,35.1,0,99.6,0,99.6s-1.5,21.4,14.3,21.4c4.3,0,7.8,0,10.8,0
			c8.1,0,11.8,0,11.8,0h1.6h11.8c3,0,6.6,0,10.8,0C281,259.4,279.5,238,279.5,238z"/>
		<path class="st2" d="M256.7,40.3h-14.3h-1.3h-14.3c0,0-3.9-0.3-3.9,2.5c0,2.8,0,11.2,0,11.2h18.1h1.3h18.1c0,0,0-8.4,0-11.2
			C260.6,40,256.7,40.3,256.7,40.3z"/>
		<path class="st3" d="M279.4,238c0,0,0-64.5,0-99.6c0-35.1-14.6-48.4-14.6-48.4c3.9-21.7-6.5-28.2-6.5-28.2v-8h-16.6v205.6h0.8
			h11.8c3,0,6.6,0,10.8,0C280.9,259.4,279.4,238,279.4,238z"/>
		<path class="st4" d="M216.5,126.9c-0.2,0-0.4,0-0.5,0c-2.3-0.3-3.9-2.4-3.6-4.7c1.9-14.4,8.8-23.1,9.1-23.5
			c1.4-1.8,4.1-2.1,5.9-0.6c1.8,1.4,2.1,4.1,0.6,5.8c-0.1,0.1-5.8,7.4-7.4,19.3C220.3,125.3,218.5,126.9,216.5,126.9z"/>
	</g>
	<g>
		<path class="st0" d="M159.8,243c0,0,0-64.5,0-99.6c0-35.1-14.6-48.4-14.6-48.4c3.9-21.7-6.5-28.2-6.5-28.2V59h2.2
			c0,0,0-8.4,0-11.2c0-2.8-3.9-2.5-3.9-2.5h-14.3h-1.3h-14.3c0,0-3.9-0.3-3.9,2.5c0,2.8,0,11.2,0,11.2h2.3v7.8h-0.1
			c0,0-10.4,6.5-6.5,28.2c0,0-14.6,13.4-14.6,48.4c0,35.1,0,99.6,0,99.6s-1.5,21.4,14.3,21.4c4.3,0,7.8,0,10.8,0
			c8.1,0,11.8,0,11.8,0h0.7h0.8h0.1h11.7h0.1c3,0,6.5,0,10.8,0c0,0,0,0,0.1,0C161.3,264.4,159.8,243,159.8,243z"/>
		<path class="st1" d="M152.2,238c0,0,0-64.5,0-99.6c0-35.1-14.6-48.4-14.6-48.4c3.9-21.7-6.5-28.2-6.5-28.2v-8h-33v8h-0.1
			c0,0-10.4,6.5-6.5,28.2c0,0-14.6,13.4-14.6,48.4c0,35.1,0,99.6,0,99.6s-1.5,21.4,14.3,21.4c4.3,0,7.8,0,10.8,0
			c8.1,0,11.8,0,11.8,0h1.6h11.8c3,0,6.6,0,10.8,0C153.6,259.4,152.2,238,152.2,238z"/>
		<path class="st2" d="M129.4,40.3h-14.3h-1.3H99.6c0,0-3.9-0.3-3.9,2.5c0,2.8,0,11.2,0,11.2h18.1h1.3h18.1c0,0,0-8.4,0-11.2
			C133.3,40,129.4,40.3,129.4,40.3z"/>
		<path class="st3" d="M152.1,238c0,0,0-64.5,0-99.6c0-35.1-14.6-48.4-14.6-48.4c3.9-21.7-6.5-28.2-6.5-28.2v-8h-16.6v205.6h0.8H127
			c3,0,6.6,0,10.8,0C153.6,259.4,152.1,238,152.1,238z"/>
		<path class="st4" d="M89.1,126.9c-0.2,0-0.4,0-0.5,0c-2.3-0.3-3.9-2.4-3.6-4.7c1.9-14.4,8.8-23.1,9.1-23.5
			c1.4-1.8,4.1-2.1,5.9-0.6c1.8,1.4,2.1,4.1,0.6,5.8c-0.1,0.1-5.8,7.4-7.4,19.3C93,125.3,91.2,126.9,89.1,126.9z"/>
	</g>
	<g>
		<circle class="st5" cx="243.4" cy="171.7" r="20"/>
		<circle class="st6" cx="227.4" cy="189.5" r="6.3"/>
		<path class="st7" d="M233.9,147.3c0,1.4-1.1,2.5-2.6,2.5c-1.4,0-2.6-1.1-2.6-2.5c0-1.4,1.1-2.6,2.6-2.6
			C232.8,144.7,233.9,145.9,233.9,147.3L233.9,147.3z"/>
		<path class="st8" d="M234,155.9c0,1.8-1.5,3.3-3.3,3.3s-3.3-1.5-3.3-3.3c0-1.8,1.5-3.3,3.3-3.3S234,154.1,234,155.9L234,155.9z"/>
		<path class="st8" d="M225.2,150.8c0,1.1-0.9,1.9-1.9,1.9c-1.1,0-2-0.9-2-1.9c0-1.1,0.9-2,2-2C224.4,148.9,225.2,149.8,225.2,150.8
			L225.2,150.8z"/>
		<g>
			<circle class="st6" cx="260.4" cy="153.5" r="11"/>
			<g>
				<path class="st4" d="M257.7,151.9c-0.9,0.1-1.2,1.2-1.2,1.9l0,0v0c0,0.1,0,0.2,0,0.3c0,0.4,0,0.6-0.1,1c0,0.1-0.1,0.4-0.1,0.4
					c-0.3,0-0.6-0.5-0.7-0.7c-0.2-0.6-0.4-1.2-0.5-1.7c-0.1-0.6-0.2-1.3-0.2-1.9c0-0.3,0-0.5,0-0.8c0-0.1,0-0.2,0-0.3
					c0-0.1,0-0.2,0-0.2c0.1-0.5-0.6,0-0.7,0.2c-0.7,1.3-0.5,2.8-0.5,4.2c0,0.4,0,0.8-0.1,1.1c0,0.3-0.1,0.7-0.3,0.9
					c-0.1,0.1-0.4,0-0.5,0c-0.2-0.1-0.3-0.3-0.3-0.5c0-0.2-0.3-0.1-0.4,0c-0.2,0.2-0.3,0.4-0.3,0.6c0.1,0.5,0.5,0.9,1,0.8
					c0.8-0.2,1.2-1.2,1.4-2c0.1-0.4,0.1-0.7,0.2-1.1c0.1,0.5,0.3,1.1,0.5,1.6c0.2,0.4,0.5,0.7,1,0.7c0.3-0.1,0.6-0.4,0.8-0.8
					c0.2,0.4,0.4,0.6,0.8,0.6c0.5,0,0.8-0.5,1-0.9c0.2-0.4,0.3-0.9,0.3-1.4C258.8,153.2,258.7,151.8,257.7,151.9z M258,155.1
					c0,0.1,0,0.2-0.1,0.3c-0.2,0-0.3-0.3-0.4-0.4c-0.1-0.3-0.2-0.6-0.2-1c0-0.3,0-0.7,0-1c0-0.1,0-0.2,0.1-0.3
					c0.5,0.3,0.6,0.9,0.6,1.4C258.1,154.4,258.1,154.8,258,155.1z"/>
				<path class="st4" d="M268.6,153.2c-1-0.4-1.5,1-1.7,1.7c-0.2,0.7-0.4,1.9,0.5,2.3c0.4,0.2,0.9-0.1,1.2-0.4
					c0.3-0.3,0.5-0.8,0.6-1.2C269.4,154.9,269.5,153.6,268.6,153.2z M268.1,156.4c0,0.1-0.1,0.2-0.1,0.2c-0.2-0.1-0.2-0.4-0.2-0.5
					c-0.1-0.3,0-0.7,0-1c0.1-0.3,0.2-0.7,0.3-1c0-0.1,0.1-0.2,0.1-0.2c0.4,0.4,0.3,1,0.2,1.6C268.3,155.8,268.2,156.1,268.1,156.4z"
					/>
				<path class="st4" d="M266,153.4c0.2-0.2,0.4-0.5,0.5-0.8c0.4-0.5,0.7-1.2,0.7-1.9c0-0.6-0.9-0.7-1.3-0.5c-0.6,0.3-1,1-1.2,1.6
					c-0.2,0.9-0.4,1.7-0.4,2.6v0c-0.3,0.4-1,1.1-1.5,0.8c-0.1-0.1-0.2-0.2-0.2-0.4c0.4-0.4,0.8-0.9,1.1-1.4c0.3-0.4,0.5-1.2-0.1-1.5
					c-0.5-0.3-1.1,0-1.4,0.4c-0.3,0.4-0.5,0.9-0.5,1.4c0,0.3-0.1,0.7,0,1.1c-0.3,0.2-0.6,0.3-1,0.2c-0.4-0.1-0.5-0.5-0.6-0.8
					c-0.1-0.5-0.1-0.9,0-1.4c0-0.1,0.1-0.3,0.1-0.4c0,0,0-0.1,0-0.1c0.2,0.1,0.3,0.5,0.4,0.6c0.1,0.3,0.9-0.2,0.8-0.5
					c-0.1-0.3-0.2-0.7-0.6-0.8c-0.3-0.2-0.8,0.1-1,0.3c-0.6,0.6-0.7,1.5-0.6,2.3c0,0.5,0.1,1.1,0.6,1.4c0.6,0.4,1.4,0,2-0.3
					c0.2,0.4,0.4,0.6,0.9,0.6c0.6-0.1,1.1-0.4,1.6-0.8c0,0.4,0.1,0.9,0.4,1.1c0.5,0.3,1.2,0,1.5-0.5c0.4-0.6,0.7-1.4,0.4-2.1
					C266.5,153.5,266.3,153.4,266,153.4z M262.7,153c0-0.1,0.1-0.3,0.2-0.4c0,0,0,0,0,0c0.2,0.1,0.3,0.4,0.3,0.6
					c-0.1,0.4-0.3,0.7-0.6,1.1c0-0.1,0-0.1,0-0.2C262.5,153.7,262.5,153.4,262.7,153z M265.8,151.2c0.1-0.1,0.1-0.3,0.2-0.4
					c0,0,0,0,0,0c0.4,0.4,0,1-0.2,1.4c-0.2,0.4-0.4,0.8-0.7,1.2c0.1-0.4,0.1-0.8,0.2-1.1C265.5,151.9,265.7,151.6,265.8,151.2z
					 M265.6,155.7c0,0-0.1,0.1-0.1,0.2c0,0-0.1,0-0.1,0c-0.2-0.1-0.3-0.7-0.3-0.9c0-0.2,0-0.4,0-0.6c0.1-0.1,0.2-0.2,0.3-0.4
					c0.2-0.1,0.4,0.1,0.4,0.4C265.9,154.9,265.8,155.4,265.6,155.7z"/>
			</g>
		</g>
		<g>
			<path class="st4" d="M232.3,188.2c-0.6,1-1.3,1.8-2,2.7c-0.3,0.4,0.2,0.4,0.4,0.1c0.7-0.9,1.5-1.9,2.1-2.9
				C233.1,187.7,232.5,187.9,232.3,188.2L232.3,188.2z"/>
			<path class="st4" d="M231.3,187.9c-0.4,0-0.6,0.3-0.7,0.7c-0.1,0.3,0.1,0.6,0.4,0.6C231.7,189.2,232.1,187.9,231.3,187.9
				c-0.2,0-0.4,0.4-0.2,0.4c0.2,0,0.3,0.2,0.3,0.3c0,0.1,0,0.1,0,0.2c0,0,0,0,0,0c0,0-0.1,0-0.1,0c-0.2,0-0.3-0.1-0.3-0.3
				c0-0.1,0-0.1,0-0.2c0,0,0,0,0,0c0,0,0.1,0,0.1,0C231.2,188.3,231.5,187.9,231.3,187.9z"/>
			<path class="st4" d="M232.3,189.9c-0.4,0-0.6,0.3-0.7,0.7c-0.1,0.3,0.1,0.6,0.4,0.6C232.7,191.2,233.1,190,232.3,189.9
				c-0.2,0-0.4,0.4-0.2,0.4c0.2,0,0.3,0.2,0.3,0.3c0,0.1,0,0.1,0,0.2c0,0,0,0,0,0c0,0-0.1,0-0.1,0c-0.2,0-0.3-0.1-0.3-0.3
				c0-0.1,0-0.1,0-0.2c0,0,0,0,0,0c0,0,0.1,0,0.1,0C232.2,190.3,232.5,189.9,232.3,189.9z"/>
		</g>
		<g>
			<g>
				<g>
					<path class="st4" d="M258.7,175.3c-0.2,0-0.4,0.1-0.5,0.2c-0.3-1.1,0-2.2,0.3-3.1c0,0,0,0,0,0c0.1-0.5-0.3-0.9-0.8-1
						c-0.5-0.1-1,0.2-1.3,0.5c-0.4,0.4-0.7,1.1-0.8,1.7c-0.1,0.5-0.4,0.8-0.5,0.8c-0.3-0.1-0.2-0.5-0.2-0.7c0-0.4,0-0.8-0.2-1.1
						c-0.1-0.3-0.4-0.3-0.7-0.3c0.3-0.9,0.5-1,0.6-1.1c0.2,0.1,0.3,0.2,0.3,0.2c0.3,0.3,1.2-0.2,0.9-0.5c-0.3-0.4-0.7-0.5-1.1-0.4
						c-0.3,0-0.5,0.2-0.7,0.4c0,0-0.1,0.1-0.1,0.1c0-0.5,0-1,0-1.4c0-0.4-1,0-1,0.4c0,0.2,0.1,0.5,0.1,0.7c0,1-0.3,2.1-1.1,2.9
						c0-0.1,0-0.2,0-0.3c0-0.7,0.2-1.3,0.2-2c0-0.4,0.1-1-0.2-1.4c-0.3-0.4-1,0-1.2,0.2c0,0-0.1,0.1-0.1,0.1c0-0.2-0.1-0.5-0.3-0.7
						c-0.2-0.2-0.6-0.1-0.8,0c-0.2,0.1-0.3,0.2-0.4,0.3c0-0.1,0-0.2,0-0.2c0-0.2,0-0.3-0.1-0.3c-0.2,0-0.3,0-0.4,0.1
						c-0.2,0.1-0.2,0.2-0.3,0.3c-0.1,0.1-0.2,0.1-0.4,0.1c-0.7-0.1-0.7-0.7-1.3-0.7c-1-0.1-1.4,1.1-1.5,2c0,0,0,0,0,0
						c-0.1,0.4-0.3,1-0.7,1.3c0.2-0.5,0.2-1,0.2-1.5c0-0.6-0.1-1.6-0.8-1.8c-0.4-0.2-0.8,0-1.1,0.2c0-0.3-0.1-0.8-0.1-0.9
						c0-0.1-0.2-0.1-0.3-0.1c-0.3,0.1-0.5,0.3-0.6,0.5c-0.1,0.2-0.1,0.6-0.5,0.5c-0.3,0-0.5-0.3-1-0.3c-1.1,0.3-1.3,1.5-1.3,2.5
						c0,0.7,0.1,2.2,1.1,2.1c0.5,0,0.9-0.6,1.1-1c0.2-0.5,0.3-1,0.3-1.5c0-0.3,0-0.7-0.1-1.2c0.2-0.1,0.4-0.2,0.5-0.4
						c0.1,0.3,0.1,0.7,0.1,1c0,0,0,0,0,0c0,0,0,0,0,0.1c0.1,0.8,0.1,1.5,0.1,2.3c0,1,0,2,0,3.1c0,0.2,0.3,0.2,0.4,0.1
						c0.2-0.1,0.4-0.3,0.4-0.6c0.1-0.7,0.1-1.5,0.1-2.2c0.9,0,1.7-0.6,2.1-1.1c0.1,0.6,0.3,1.2,0.9,1.3c0.5,0.1,1-0.4,1.2-0.8
						c0.3-0.5,0.4-1,0.4-1.5c0-0.2,0-0.5,0-0.8c0.2,0,0.4-0.1,0.6-0.2c-0.1,1.1-0.2,2.2-0.2,3.3c0,0.5,0.9,0,0.9-0.3
						c0.1-1,0.2-2.1,0.7-3c0.2,0.2,0.1,1.2,0.1,1.7c0,0.3-0.1,0.6-0.1,0.9c0,0.3-0.1,0.5-0.1,0.8c0,0.5,0.8,0,0.9-0.3
						c0-0.3,0.1-0.5,0.1-0.8c0.1-0.5,0.3-2,0.7-2.1c0.2,0.1,0.1,1,0,1.3c0,0.6-0.2,1.3-0.1,1.9c0.1,1,1.1,0.3,1.5-0.1
						c0.1-0.1,0.2-0.2,0.3-0.3c-0.1,0.3-0.1,0.6-0.2,0.9c-0.1,0.5,0.8,0.1,0.9-0.2c0.1-0.4,0.2-0.8,0.3-1.2c0.5,0.3,0,1.5,0.4,1.9
						c0.3,0.3,0.8,0.2,1.1,0.1c0.1,0,0.2-0.1,0.3-0.2c0,0.3,0.1,0.5,0.3,0.7c0.4,0.3,0.9,0.2,1.2,0c0,0,0.1,0,0.1-0.1
						c0,0.1,0,0.2,0,0.2c0.2,1,1.4,0.5,1.7,0C259,175.4,258.9,175.3,258.7,175.3z M240.4,172.6c0,0.1,0,0.2-0.1,0.3
						c-0.2,0-0.3-0.3-0.4-0.5c-0.2-0.3-0.2-0.7-0.2-1.1c0-0.4,0-0.8,0.1-1.2c0-0.1,0-0.2,0.1-0.3c0,0,0,0,0.1,0c0,0,0,0,0,0
						c0,0,0.1,0.1,0.1,0.1c0.3,0.3,0.4,1.2,0.4,1.4C240.5,171.8,240.4,172.2,240.4,172.6z M242.8,172.2c0-0.6,0-1.3-0.1-1.9
						c0-0.4,0.1-0.4,0.1-0.5c0.2,0,0.3,0.1,0.4,0.2c0.3,0.3,0.4,0.9,0.4,1.3c0,0.5-0.1,1.3-0.2,1.5
						C243,172.8,242.9,172.5,242.8,172.2z M246.4,172.6c0,0.1-0.1,0.2-0.1,0.3c-0.2-0.1-0.3-0.4-0.4-0.5c-0.1-0.4-0.1-0.7-0.1-1.1
						c0-0.4,0-0.8,0.2-1.1c0-0.1,0.1-0.2,0.1-0.3c0.5,0.2,0.5,1.3,0.5,1.6C246.6,171.8,246.5,172.2,246.4,172.6z M256.7,174.9
						c0,0-0.1,0-0.1-0.1c-0.2-0.1-0.2-0.4-0.2-0.6c-0.1-0.6,0.1-1.3,0.4-1.8c0.1-0.2,0.3-0.4,0.4-0.5c0,0,0.1,0,0.2,0
						c0.2,0.1,0.3,0.3,0.2,0.5c-0.2,0.8-0.3,1.6-0.7,2.3C256.8,174.8,256.8,174.9,256.7,174.9z"/>
					<path class="st4" d="M237.9,170.4c-0.2-0.1-0.4-0.1-0.6,0c0.1-0.4,0.3-0.8,0.4-1.3c0.1-0.6,0.4-1.5,0-2.1
						c-0.4-0.6-1.2,0-1.5,0.4c-0.5,0.7-0.5,1.5-0.5,2.3c0,0.9,0.1,1.7,0.3,2.6c-0.1,0.3-0.2,1-0.5,1.4c-0.2,0-0.3-0.4-0.3-0.6
						c-0.3-0.9-0.4-2-0.2-2.9c0-0.2-0.1-0.3-0.3-0.2c-0.2,0.1-0.5,0.4-0.5,0.6c0,0.2-0.1,0.8-0.4,0.9c-0.2,0.1-0.4,0.1-0.7,0
						c-0.3-0.1-0.8,0.1-1.1,0.4c-0.1-0.4-0.1-0.8-0.3-1.1c-0.1-0.2-0.4,0.1-0.5,0.2c-0.1,0.1-0.2,0.3-0.3,0.5c0,0.5,0.1,1.6-0.2,2.9
						c-0.1,0.2-0.3,0.7-0.6,0.8c-0.4,0.1-0.7-0.2-0.9-0.5c-0.6-0.9-0.8-2-0.8-3.1c0-0.4,0.1-1,0.3-1.3c0,0,0,0,0-0.1c0,0,0,0,0,0
						c0,0,0,0,0,0s0.4-0.1,0.6-0.1c0.4,0,0.5,0.5,0.6,0.8c0.1,0.5,0.9-0.4,0.8-0.7c-0.1-0.6-0.4-1.2-1.2-1.1c-0.5,0.1-1,0.4-1.3,0.9
						c-0.6,1-0.7,2.2-0.6,3.3c0.1,1,0.4,2.2,1.2,2.8c0.9,0.7,2-0.5,2.3-1.3c0.1-0.2,0.1-0.4,0.2-0.6c0.1,0.7,0.5,1.4,1.3,1.2
						c0.9-0.2,1.3-1.5,1.2-2.2c0-0.2-0.1-0.5-0.2-0.8c0.1-0.1,0.2-0.2,0.3-0.3c0,0.2,0,0.4,0.1,0.5c0.1,0.6,0.2,1.3,0.4,1.8
						c0.2,0.4,0.6,0.4,1,0.1c0.3-0.3,0.5-0.6,0.7-1c0.2,0.5,0.5,0.9,1,0.8c0.7-0.1,1.2-0.8,1.3-1.5
						C238.6,172,238.6,170.7,237.9,170.4z M233.1,173.9c0,0.1,0,0.1,0,0.2c0,0,0,0-0.1,0c-0.5,0.1-0.8-0.5-0.9-0.8c0,0,0-0.1,0-0.1
						c0,0,0,0,0,0c0-0.1,0-0.1,0-0.2c0-0.1,0-0.3,0-0.5c0,0,0-0.1,0-0.2c0,0,0,0,0.1,0c0.5-0.1,0.8,0.5,0.9,0.8
						C233.1,173.4,233.2,173.7,233.1,173.9z M236.5,169.4c0-0.6,0.2-1.8,0.2-1.8s0,0,0,0c0,0,0,0,0,0c0.2,0,0.2,0.3,0.3,0.4
						c0.1,0.6-0.1,1.3-0.2,1.9c-0.1,0.2-0.1,0.5-0.2,0.7C236.5,170.3,236.5,169.9,236.5,169.4z M237.6,173.1
						C237.6,173.2,237.6,173.2,237.6,173.1C237.6,173.2,237.6,173.2,237.6,173.1c-0.3,0-0.4-0.2-0.5-0.4c-0.2-0.3-0.3-0.6-0.4-1
						c0.1-0.2,0.1-0.3,0.2-0.5c0,0,0,0,0-0.1c0,0,0,0,0,0c0.1,0,0.2,0,0.3,0.1c0.3,0.2,0.3,0.6,0.3,0.9
						C237.7,172.5,237.7,172.8,237.6,173.1z"/>
				</g>
			</g>
		</g>
		<g>
			<path class="st4" d="M223.2,187.8c-0.7,0.1-1,0.9-1,1.5c-0.1,0.5-0.1,1.7,0.7,1.8c0.8,0.1,1.1-0.9,1.1-1.5
				C224,189.1,223.9,187.9,223.2,187.8c-0.2,0-0.6,0.6-0.4,0.6c0.4,0,0.5,0.6,0.5,0.9c0,0.2,0,0.5,0,0.8c0,0.1,0,0.2-0.1,0.3
				c0,0.1-0.1,0.3,0,0.2c-0.4,0.2-0.5-0.7-0.5-0.9c0-0.2,0-0.5,0-0.8c0-0.1,0-0.3,0.1-0.4c0-0.1,0.1-0.1,0-0.1
				C223.1,188.4,223.5,187.8,223.2,187.8z"/>
			<path class="st4" d="M226.5,187.8c-0.7,0.1-1,0.9-1,1.5c-0.1,0.5-0.1,1.7,0.7,1.8c0.8,0.1,1.1-0.9,1.1-1.5
				C227.3,189.1,227.3,187.9,226.5,187.8c-0.2,0-0.6,0.6-0.4,0.6c0.4,0,0.5,0.6,0.5,0.9c0,0.2,0,0.5,0,0.8c0,0.1,0,0.2-0.1,0.3
				c0,0.1-0.1,0.3,0,0.2c-0.4,0.2-0.5-0.7-0.5-0.9c0-0.2,0-0.5,0-0.8c0-0.1,0-0.3,0.1-0.4c0-0.1,0.1-0.1,0-0.1
				C226.4,188.4,226.8,187.8,226.5,187.8z"/>
			<path class="st4" d="M227.6,190.5c0.4,1.3,2.4,0.4,2.1-0.8c-0.2-0.6-0.8-0.5-1.3-0.7c-0.3-0.1-0.3-0.3-0.3-0.5
				c0.1-0.3,0.1-0.3-0.1-0.1c0.1,0,0.1,0,0.2-0.1c0.4-0.1,0.9-0.1,1.2,0.1c0.2,0.1,0.6-0.4,0.4-0.5c-0.5-0.2-1.1-0.2-1.6-0.1
				c-0.5,0.1-0.6,0.6-0.6,1c0,0.6,0.5,0.6,1,0.7c0.3,0.1,0.6,0.1,0.7,0.5c0.1,0.6-0.6,0.5-0.9,0.4c-0.1-0.1-0.2-0.3-0.3-0.4
				C228,189.9,227.5,190.3,227.6,190.5L227.6,190.5z"/>
			<path class="st4" d="M224.5,191.7c0.3-0.2,0.4-0.6,0.5-0.9c0-0.1,0-0.2-0.1-0.3c-0.1-0.1-0.3,0-0.5,0c-0.1,0.1-0.3,0.2-0.3,0.4
				c0,0.2,0.2,0.1,0.3,0.1c0,0,0,0,0,0c0,0,0,0,0,0c0,0,0,0.1,0,0.1c0,0.1,0,0.1-0.1,0.2c0,0,0,0,0,0.1c0,0,0,0,0,0c0,0,0,0,0,0
				c0.1-0.1,0,0,0,0c-0.1,0.1-0.2,0.3-0.1,0.4C224.2,192,224.4,191.8,224.5,191.7L224.5,191.7z"/>
		</g>
		<g>
			<path class="st9" d="M219.1,163.3c-0.1,0-0.2-0.2-0.3-0.2c-0.4-0.2-0.7,0.1-1.1,0.1c-0.9,0-1.3,0-2.4-0.3c0-1,0.6-1.6,0.8-2.4
				c0.2-0.7-0.1-1.5-0.1-2.3c0-0.5,0-0.9,0-1.4c-0.3,0.3-0.2,1.2-0.2,1.6c-0.1-0.6-0.1-1.4-0.3-1.9c-0.1,0.6,0,1.3,0,1.9
				c-0.2-0.5-0.2-1.2-0.4-1.6c-0.3,0.5,0.2,1.3,0.1,1.8c-0.2-0.5-0.3-1-0.5-1.5c-0.1,0.6,0.2,1.2,0.2,1.6c-0.2-0.4-0.3-0.8-0.6-1.1
				c0,0.4,0.3,0.9,0.4,1.3c-0.3-0.1-0.4-0.5-0.6-0.6c0,0.3,0.3,0.5,0.4,0.8c-0.2-0.1-0.3-0.3-0.5-0.4c0,0.3,0.3,0.4,0.3,0.6
				c-0.1-0.1-0.3-0.2-0.4-0.3c0,0.2,0.3,0.4,0.3,0.5c0,0-0.2-0.1-0.2,0c0,0,0.2,0.1,0.1,0.2c-0.1,0-0.1,0-0.2,0
				c0,0.2,0.2,0.1,0.1,0.3c-0.1,0-0.1-0.1-0.1,0c0,0.1,0.1,0.1,0.1,0.2c-0.8,0.8-0.4,1.8-0.5,2.8c0.1-0.1-0.7-0.3-1.2-0.5
				c-0.3-0.1-0.4-0.5-0.6-0.6c0-0.1,0.1,0,0.1-0.1c-0.1,0-0.2-0.1-0.2-0.2c0.1,0,0.3,0.1,0.3,0c-0.1-0.1-0.5-0.2-0.5-0.3
				c0.2,0,0.4,0.1,0.5,0.1c-0.2-0.1-0.6-0.3-0.6-0.5c0.2,0.1,0.5,0.3,0.7,0.2c-0.3-0.2-0.8-0.4-0.9-0.7c0.3,0.1,0.6,0.4,0.8,0.4
				c-0.4-0.1-0.7-0.6-1.1-0.6c0.2,0.4,0.8,0.6,0.9,0.8c-0.3-0.2-0.6-0.3-1-0.5c0.1,0.4,0.6,0.5,0.9,0.8c-0.3,0-0.5-0.2-0.8-0.2
				c0.1,0.3,0.6,0.2,0.7,0.5c-0.1-0.1-0.3,0-0.5,0c0,0.2,0.4,0.2,0.5,0.3c-0.2,0-0.3,0-0.4,0.1c0.1,0.1,0.3,0.1,0.4,0.2
				c-0.1,0-0.2,0-0.2,0.1c0,0.1,0.3,0,0.3,0.1c-0.1,0-0.1,0.1-0.1,0.1c0.1,0,0.2,0,0.2,0c-0.1,0-0.1,0-0.1,0.1
				c0.4,0.2,0.7,0.9,1.3,1.2c-0.3,0.2,0.3,0.4-3.5,1.8c0.1,0,1.7-0.4,2.2-0.5c0.5-0.2,0.9-0.3,1.4-0.4c0.1,0,0.2-0.1,0.3-0.1
				c0.8-0.1,1.5,0.1,2.3-0.4c-0.6,0.1-1.6,0.2-2-0.1c0.5-0.8,0.2-2.9,0.6-3.3c0.4-0.4,1.1-1.7,1.9-0.6c0.1,0.2,0.2,0.4-0.1,0.9
				c-0.4,0.6-0.6,0.8-0.5,2.1c0,0.3,0,0.5-0.4,0.5c1.7,0.4,2.2,0.2,3.1,0c0.3,0,0.8-0.3,0.8,0c0,0.1-0.3,0.1-0.6,0.1
				c-0.5,0,0.2,0.2,0.4,0.2c0.1,0,1-0.1,1.5-0.2C219.6,163.4,219.4,163.4,219.1,163.3z"/>
			<path class="st9" d="M214.2,154.7c-3.8,0-6.9,3.1-6.9,6.9c0,3.8,3.1,6.9,6.9,6.9c3.8,0,6.9-3.1,6.9-6.9
				C221.2,157.8,218.1,154.7,214.2,154.7 M214.2,155c3.7,0,6.7,3,6.7,6.7c0,3.7-3,6.7-6.7,6.7c-3.7,0-6.7-3-6.7-6.7
				C207.6,158,210.6,155,214.2,155"/>
		</g>
		<g>
			<g>
				<path class="st8" d="M271.3,178.8c-0.7-1.5-1.8-1.1-2.3,0c-1.4,3.2,0.7,3.7,0.9,3.7c0-0.1-0.3-0.4-0.3-1c-0.1-0.1-0.6-0.6-0.6-1
					l0-0.2l0.1,0.2c0.1,0.2,0.2,0.6,0.6,0.9c0-0.1,0.1-0.2,0.1-0.4c-0.1-0.1-0.6-0.5-0.6-1c0,0,0-0.1,0-0.1c0,0,0-0.3,0-0.3l0.1,0.4
					c0,0.2,0.2,0.6,0.6,0.9l0,0c0.1-0.1,0.1-0.3,0.2-0.4c-0.1-0.1-0.6-0.4-0.7-1.1l0-0.1l0-0.1l0.1,0.3c0,0.2,0.2,0.8,0.7,0.9
					c0-0.2,0.1-0.3,0.1-0.5c0,0,0,0,0,0c0,0-0.5-0.2-0.6-1c0,0,0-0.1,0-0.2c0,0,0-0.1,0-0.1l0,0.3c0.1,0.2,0.2,0.7,0.5,0.9
					c0.1-0.8-0.2-1.5-0.2-1.5l-0.1-0.2c0,0,0.1,0.1,0.1,0.1c0,0,0.1,0.3,0.2,0.7c0.2-0.3,0.2-0.6,0.2-0.6l0-0.1l0.1,0.1
					c0.1,0.3-0.2,0.7-0.2,0.8c0,0.4,0,0.7,0,1c0.8-0.3,0.9-0.9,0.9-0.9l0-0.2l0.1,0.2c0,0.7-0.8,1-1,1.1c0,0,0,0,0,0.1l0,0
					c0,0.1-0.1,0.2-0.1,0.2c0.7,0,1.3-0.8,1.3-0.8l0.1-0.1c0,0,0,0.2-0.1,0.4c-0.5,0.7-1.3,0.8-1.3,0.8c-0.1,0.2-0.1,0.3-0.2,0.5
					c0.2,0,0.9-0.2,1.4-0.6l0,0l0,0l0,0l0.1-0.1l-0.1,0.2c-0.2,0.2-0.8,0.7-1.4,0.7c0,0.2,0,0.4,0,0.5c0.1,0,0.1,0,0.2,0
					c0.6,0,1-0.4,1.2-0.7l0.2-0.2l-0.1,0.3c-0.5,0.8-1.1,0.8-1.3,0.8c0,0,0,0-0.1,0c0,0.2,0.2,0.4,0.2,0.5l0.1,0
					C271.8,181.2,271.8,179.9,271.3,178.8z"/>
				<path class="st8" d="M275.3,181.5c1-0.9,0.4-1.7-0.6-1.7c-2.8-0.2-2.6,1.5-2.6,1.6c0,0,0.2-0.4,0.7-0.5c0-0.1,0.3-0.6,0.6-0.8
					l0.2-0.1l-0.2,0.1c-0.1,0.1-0.4,0.3-0.5,0.7c0.1,0,0.2,0,0.3,0c0-0.1,0.2-0.6,0.6-0.7c0,0,0.1,0,0.1,0c0,0,0.2-0.1,0.2-0.1
					l-0.3,0.2c-0.2,0.1-0.4,0.3-0.5,0.7l0,0c0.1,0,0.2,0,0.4,0c0-0.1,0.1-0.6,0.6-0.8l0.1,0l0.1,0l-0.2,0.1
					c-0.2,0.1-0.5,0.3-0.5,0.8c0.1,0,0.3,0,0.4-0.1l0,0c0,0,0.1-0.4,0.6-0.7c0,0,0,0,0.1,0c0,0,0.1,0,0.1,0l-0.2,0.1
					c-0.2,0.1-0.5,0.4-0.5,0.6c0.6-0.2,1.1-0.5,1.1-0.5l0.1-0.1c0,0-0.1,0.1-0.1,0.1c0,0-0.2,0.2-0.5,0.4c0.2,0.1,0.5,0,0.5,0
					l0.1-0.1l-0.1,0.1c-0.2,0.1-0.6,0-0.7,0c-0.3,0.1-0.5,0.2-0.8,0.2c0.5,0.6,0.9,0.4,0.9,0.4l0.1,0l-0.1,0.1
					c-0.5,0.2-1-0.4-1.1-0.5c0,0,0,0-0.1,0l0,0c-0.1,0-0.1,0-0.2,0c0.2,0.6,1,0.8,1,0.8l0.1,0c0,0-0.1,0-0.3,0
					c-0.6-0.2-0.9-0.8-1-0.8c-0.1,0-0.3,0-0.4,0c0.1,0.1,0.4,0.7,0.8,0.9l0,0l0,0l0,0l0.1,0.1l-0.2,0c-0.2-0.1-0.7-0.4-0.9-0.9
					c-0.1,0-0.3,0.1-0.4,0.1c0,0,0,0.1,0,0.1c0.1,0.4,0.6,0.6,0.8,0.7l0.2,0.1l-0.2,0c-0.7-0.2-0.9-0.6-1-0.8c0,0,0,0,0,0
					c-0.1,0.1-0.3,0.3-0.3,0.3l0,0.1C273.6,182.5,274.6,182.2,275.3,181.5z"/>
				<path class="st8" d="M272.3,183c0.7-0.3,0.5-0.8,0-1c-1.4-0.6-1.6,0.3-1.6,0.3c0,0,0.2-0.1,0.4-0.1c0,0,0.3-0.2,0.5-0.3l0.1,0
					l-0.1,0c-0.1,0-0.2,0.1-0.4,0.3c0.1,0,0.1,0,0.2,0c0,0,0.2-0.2,0.5-0.3c0,0,0,0,0.1,0c0,0,0.1,0,0.1,0l-0.2,0
					c-0.1,0-0.3,0.1-0.4,0.3l0,0c0.1,0,0.1,0.1,0.2,0.1c0,0,0.2-0.3,0.5-0.3l0.1,0l0.1,0l-0.1,0c-0.1,0-0.3,0.1-0.4,0.3
					c0.1,0,0.1,0,0.2,0v0c0,0,0.1-0.2,0.4-0.2c0,0,0,0,0.1,0c0,0,0.1,0,0.1,0l-0.1,0c-0.1,0-0.3,0.1-0.4,0.2c0.4,0,0.6-0.1,0.6-0.1
					l0.1,0c0,0,0,0-0.1,0.1c0,0-0.1,0.1-0.3,0.1c0.1,0.1,0.3,0.1,0.3,0.1l0.1,0l-0.1,0c-0.1,0-0.3-0.1-0.3-0.1c-0.2,0-0.3,0-0.4,0
					c0.1,0.4,0.4,0.4,0.4,0.4L272.3,183l-0.1-0.1c-0.3,0-0.4-0.4-0.5-0.4c0,0,0,0,0,0l0,0c0,0-0.1,0-0.1,0c0,0.3,0.3,0.6,0.4,0.6
					l0.1,0c0,0-0.1,0-0.2-0.1c-0.3-0.2-0.3-0.6-0.3-0.6c-0.1,0-0.1-0.1-0.2-0.1c0,0.1,0.1,0.4,0.2,0.6l0,0l0,0l0,0l0.1,0.1l-0.1-0.1
					c-0.1-0.1-0.3-0.3-0.3-0.6c-0.1,0-0.2,0-0.2,0c0,0,0,0.1,0,0.1c0,0.3,0.2,0.4,0.3,0.5l0.1,0.1l-0.1-0.1
					c-0.3-0.2-0.4-0.5-0.4-0.6c0,0,0,0,0,0c-0.1,0-0.2,0.1-0.2,0.1l0,0.1C271.2,183.2,271.7,183.2,272.3,183z"/>
				<path class="st8" d="M271.1,185.2c1.3-0.6,1-1.5,0-1.9c-2.7-1.2-3.1,0.5-3.1,0.7c0,0,0.4-0.3,0.9-0.2c0.1-0.1,0.5-0.4,0.9-0.5
					l0.2,0l-0.2,0.1c-0.2,0-0.5,0.2-0.7,0.5c0.1,0,0.2,0.1,0.3,0.1c0.1-0.1,0.4-0.5,0.9-0.5c0,0,0.1,0,0.1,0s0.3,0,0.3,0l-0.4,0.1
					c-0.2,0-0.5,0.2-0.7,0.5l0,0c0.1,0.1,0.2,0.1,0.4,0.2c0.1-0.1,0.3-0.5,0.9-0.6l0.1,0l0.1,0l-0.2,0.1c-0.2,0-0.6,0.1-0.8,0.5
					c0.1,0,0.3,0.1,0.4,0.1v0c0,0,0.2-0.4,0.8-0.5c0,0,0.1,0,0.1,0c0,0,0.1,0,0.1,0l-0.2,0c-0.2,0-0.6,0.2-0.7,0.4
					c0.7,0.1,1.2-0.1,1.2-0.1l0.1-0.1c0,0-0.1,0.1-0.1,0.1c0,0-0.3,0.1-0.6,0.2c0.2,0.2,0.5,0.2,0.5,0.2l0.1,0l-0.1,0.1
					c-0.3,0-0.6-0.2-0.7-0.2c-0.3,0-0.6,0-0.8-0.1c0.3,0.7,0.8,0.7,0.8,0.7l0.1,0l-0.1,0c-0.6,0-0.8-0.7-0.9-0.8c0,0,0,0-0.1,0l0,0
					c-0.1,0-0.1-0.1-0.2-0.1c0,0.6,0.7,1.1,0.7,1.1l0.1,0.1c0,0-0.1,0-0.3-0.1c-0.6-0.4-0.6-1.1-0.6-1.1c-0.1-0.1-0.3-0.1-0.4-0.2
					c0,0.2,0.2,0.8,0.5,1.2l0,0l0,0l0,0l0.1,0.1l-0.2-0.1c-0.1-0.1-0.5-0.7-0.6-1.2c-0.1,0-0.3,0-0.4,0c0,0,0,0.1,0,0.1
					c0,0.5,0.3,0.8,0.6,1l0.2,0.1l-0.2-0.1c-0.6-0.5-0.7-0.9-0.7-1.1c0,0,0,0,0,0c-0.2,0-0.4,0.2-0.4,0.2l0,0.1
					C269.1,185.6,270.1,185.6,271.1,185.2z"/>
				<path class="st8" d="M267.2,181.8c-0.7-1.4-1.7-1-2.1,0.1c-1.2,3,0.7,3.4,0.8,3.4c0,0-0.3-0.4-0.3-0.9c-0.1-0.1-0.5-0.5-0.6-1
					l0-0.2l0.1,0.2c0.1,0.2,0.2,0.5,0.6,0.8c0-0.1,0-0.2,0.1-0.3c-0.1-0.1-0.5-0.5-0.6-0.9c0,0,0-0.1,0-0.1c0,0,0-0.3,0-0.3l0.1,0.4
					c0,0.2,0.2,0.5,0.6,0.8l0,0c0.1-0.1,0.1-0.3,0.2-0.4c-0.1-0.1-0.6-0.3-0.6-1l0-0.1l0-0.1l0.1,0.2c0,0.2,0.2,0.7,0.6,0.8
					c0-0.1,0.1-0.3,0.1-0.4c0,0,0,0,0,0c0,0-0.4-0.2-0.5-0.9c0,0,0-0.1,0-0.1c0,0,0-0.1,0-0.1l0,0.3c0.1,0.2,0.2,0.7,0.5,0.8
					c0.1-0.8-0.2-1.3-0.2-1.4l-0.1-0.2c0,0,0.1,0.1,0.1,0.1c0,0,0.1,0.3,0.2,0.7c0.2-0.2,0.2-0.6,0.2-0.6l0-0.1l0.1,0.1
					c0.1,0.3-0.2,0.7-0.2,0.7c0,0.3,0,0.6,0,0.9c0.8-0.3,0.8-0.9,0.8-0.9l0-0.2l0.1,0.2c0,0.6-0.8,1-0.9,1c0,0,0,0,0,0.1l0,0
					c0,0.1-0.1,0.1-0.1,0.2c0.7,0,1.2-0.8,1.2-0.8l0.1-0.1c0,0,0,0.2-0.1,0.3c-0.5,0.6-1.2,0.7-1.2,0.8c-0.1,0.1-0.1,0.3-0.2,0.5
					c0.2,0,0.9-0.2,1.3-0.6l0,0l0,0l0,0l0.1-0.1l-0.1,0.2c-0.2,0.1-0.7,0.6-1.3,0.7c0,0.2,0,0.3,0,0.5c0.1,0,0.1,0,0.2,0
					c0.5,0,0.9-0.4,1.1-0.7l0.1-0.2l-0.1,0.2c-0.5,0.7-1,0.8-1.2,0.8c0,0,0,0-0.1,0c0,0.2,0.2,0.4,0.2,0.4h0.1
					C267.7,184,267.7,182.8,267.2,181.8z"/>
				<path class="st8" d="M266.9,185.4c-0.4-0.9-1-0.6-1.3,0c-0.8,1.9,0.4,2.1,0.5,2.2c0,0-0.2-0.2-0.2-0.6c0,0-0.3-0.3-0.4-0.6
					l0-0.1l0,0.1c0,0.1,0.1,0.3,0.4,0.5c0-0.1,0-0.1,0.1-0.2c-0.1-0.1-0.3-0.3-0.4-0.6c0,0,0-0.1,0-0.1c0,0,0-0.2,0-0.2l0.1,0.2
					c0,0.1,0.1,0.3,0.4,0.5l0,0c0-0.1,0.1-0.2,0.1-0.3c-0.1,0-0.4-0.2-0.4-0.6l0-0.1l0-0.1l0.1,0.1c0,0.1,0.1,0.4,0.4,0.5
					c0-0.1,0-0.2,0.1-0.3c0,0,0,0,0,0c0,0-0.3-0.1-0.3-0.6c0,0,0,0,0-0.1c0,0,0-0.1,0-0.1l0,0.2c0,0.1,0.1,0.4,0.3,0.5
					c0-0.5-0.1-0.8-0.1-0.9l0-0.1c0,0,0.1,0.1,0.1,0.1c0,0,0.1,0.2,0.1,0.4c0.1-0.1,0.1-0.4,0.1-0.4l0-0.1l0.1,0.1
					c0,0.2-0.1,0.4-0.1,0.5c0,0.2,0,0.4,0,0.6c0.5-0.2,0.5-0.5,0.5-0.5l0-0.1l0,0.1c0,0.4-0.5,0.6-0.6,0.6c0,0,0,0,0,0l0,0
					c0,0,0,0.1-0.1,0.1c0.4,0,0.8-0.5,0.8-0.5l0-0.1c0,0,0,0.1-0.1,0.2c-0.3,0.4-0.7,0.5-0.8,0.5c0,0.1-0.1,0.2-0.1,0.3
					c0.1,0,0.5-0.1,0.8-0.4l0,0l0,0l0,0l0.1-0.1l-0.1,0.1c-0.1,0.1-0.4,0.4-0.8,0.4c0,0.1,0,0.2,0,0.3c0,0,0.1,0,0.1,0
					c0.3,0,0.6-0.3,0.7-0.4l0.1-0.1l-0.1,0.2c-0.3,0.4-0.6,0.5-0.8,0.5c0,0,0,0,0,0c0,0.1,0.1,0.3,0.1,0.3h0.1
					C267.3,186.8,267.3,186.1,266.9,185.4z"/>
				<path class="st8" d="M269.1,189.2c1.3-0.6,1-1.5,0-2c-2.7-1.2-3.2,0.5-3.2,0.7c0,0,0.4-0.3,0.9-0.2c0.1-0.1,0.5-0.5,0.9-0.5
					l0.2,0l-0.2,0.1c-0.2,0-0.5,0.2-0.8,0.5c0.1,0,0.2,0.1,0.3,0.1c0.1-0.1,0.4-0.5,0.9-0.5c0,0,0.1,0,0.1,0c0,0,0.3,0,0.3,0
					l-0.4,0.1c-0.2,0-0.5,0.2-0.8,0.5l0,0c0.1,0.1,0.2,0.1,0.4,0.2c0.1-0.1,0.3-0.5,0.9-0.6l0.1,0l0.1,0l-0.2,0.1
					c-0.2,0-0.7,0.1-0.8,0.6c0.1,0,0.3,0.1,0.4,0.1l0,0c0,0,0.2-0.4,0.8-0.5c0,0,0.1,0,0.1,0c0,0,0.1,0,0.1,0l-0.2,0
					c-0.2,0-0.6,0.2-0.7,0.4c0.7,0.1,1.3-0.1,1.3-0.1l0.1-0.1c0,0-0.1,0.1-0.1,0.1c0,0-0.3,0.1-0.6,0.2c0.2,0.2,0.5,0.2,0.5,0.2
					l0.1,0l-0.1,0.1c-0.3,0-0.6-0.2-0.7-0.2c-0.3,0-0.6,0-0.8,0c0.3,0.7,0.8,0.8,0.8,0.8l0.1,0l-0.1,0.1c-0.6,0-0.9-0.7-0.9-0.9
					c0,0,0,0-0.1,0l0,0c-0.1,0-0.1-0.1-0.2-0.1c0,0.6,0.7,1.1,0.7,1.1l0.1,0.1c0,0-0.1,0-0.3-0.1c-0.6-0.4-0.7-1.1-0.7-1.1
					c-0.1-0.1-0.3-0.1-0.4-0.2c0,0.2,0.2,0.8,0.5,1.2l0,0l0,0l0,0l0.1,0.1l-0.2-0.1c-0.1-0.1-0.6-0.7-0.6-1.3c-0.2,0-0.3,0-0.5,0
					c0,0.1,0,0.1,0,0.1c0,0.5,0.4,0.9,0.6,1l0.2,0.1l-0.2-0.1c-0.6-0.5-0.7-1-0.7-1.1c0,0,0,0,0-0.1c-0.2,0-0.4,0.2-0.4,0.2l0,0.1
					C267,189.7,268.1,189.7,269.1,189.2z"/>
				<path class="st8" d="M268.2,191.5c1.4-0.1,1.3-1,0.4-1.6c-2.4-1.7-3.2-0.4-3.2-0.2c0.1,0,0.4-0.1,0.9,0c0.1,0,0.6-0.3,1-0.2
					l0.2,0l-0.2,0c-0.2,0-0.5,0-0.8,0.2c0.1,0,0.2,0.1,0.3,0.2c0.1-0.1,0.5-0.3,1-0.2c0,0,0.1,0,0.1,0c0,0,0.3,0.1,0.3,0.1l-0.4,0
					c-0.2,0-0.5,0-0.8,0.3l0,0c0.1,0.1,0.2,0.2,0.3,0.2c0.1-0.1,0.4-0.3,1-0.2l0.1,0l0.1,0l-0.2,0c-0.2,0-0.7,0-0.9,0.3
					c0.1,0.1,0.2,0.1,0.4,0.2c0,0,0,0,0,0c0,0,0.3-0.3,0.9-0.2c0,0,0.1,0,0.1,0c0,0,0.1,0.1,0.1,0.1l-0.2,0c-0.2,0-0.7,0-0.8,0.2
					c0.7,0.2,1.2,0.2,1.2,0.2l0.2,0c0,0-0.1,0-0.1,0.1c0,0-0.3,0-0.7,0c0.2,0.2,0.5,0.3,0.5,0.3l0.1,0l-0.1,0
					c-0.3,0-0.6-0.3-0.6-0.4c-0.3,0-0.6-0.1-0.8-0.3c0.1,0.7,0.6,0.8,0.6,0.8l0.1,0l-0.2,0c-0.6-0.2-0.7-0.8-0.7-0.9c0,0,0,0,0,0
					l0,0c-0.1,0-0.1-0.1-0.2-0.1c-0.1,0.5,0.4,1.1,0.4,1.1l0.1,0.1c0,0-0.1,0-0.3-0.2c-0.5-0.5-0.4-1.1-0.4-1.1
					c-0.1-0.1-0.2-0.2-0.4-0.2c0,0.1,0,0.7,0.2,1.1l0,0l0,0l0,0l0.1,0.1l-0.2-0.1c-0.1-0.2-0.4-0.7-0.3-1.2
					c-0.1-0.1-0.3-0.1-0.4-0.1c0,0,0,0.1,0,0.1c-0.1,0.4,0.2,0.8,0.3,1l0.2,0.2l-0.2-0.1c-0.5-0.6-0.5-1-0.4-1.1c0,0,0,0,0,0
					c-0.2,0-0.4,0-0.4,0.1l0,0.1C266.1,191.3,267.2,191.6,268.2,191.5z"/>
				<path class="st8" d="M262.1,183.1c-1.7-0.7-2.1,0.3-1.5,1.6c1.7,3.5,3.5,2.5,3.6,2.3c-0.1,0-0.6-0.1-1-0.6
					c-0.1,0-0.9-0.1-1.3-0.4l-0.2-0.2l0.2,0.1c0.2,0.1,0.6,0.3,1.1,0.3c-0.1-0.1-0.2-0.2-0.2-0.4c-0.1,0-0.8,0-1.3-0.4
					c0,0-0.1-0.1-0.1-0.1c0,0-0.3-0.2-0.3-0.2l0.4,0.3c0.2,0.2,0.6,0.3,1.1,0.2l0,0c-0.1-0.2-0.1-0.3-0.2-0.5
					c-0.1,0-0.7,0.1-1.3-0.4l-0.1-0.1l-0.1-0.1l0.3,0.1c0.2,0.2,0.7,0.5,1.2,0.3c-0.1-0.2-0.2-0.3-0.3-0.5c0,0,0,0,0,0
					c0,0-0.5,0.2-1.2-0.4c0,0-0.1,0-0.1-0.1c0,0-0.1-0.1-0.1-0.1l0.2,0.2c0.2,0.1,0.8,0.4,1.1,0.3c-0.6-0.7-1.3-1-1.3-1l-0.2-0.1
					c0,0,0.2,0,0.2,0c0,0,0.3,0.2,0.8,0.4c-0.1-0.4-0.4-0.6-0.4-0.6l-0.1-0.1l0.2,0c0.3,0.2,0.5,0.7,0.5,0.8
					c0.3,0.3,0.6,0.5,0.8,0.8c0.3-0.8-0.2-1.4-0.2-1.4l-0.1-0.1l0.2,0.1c0.5,0.5,0.3,1.4,0.2,1.5c0,0,0,0,0,0.1l0,0
					c0,0.1,0.1,0.2,0.1,0.3c0.5-0.5,0.2-1.6,0.2-1.6l-0.1-0.1c0,0,0.1,0.1,0.2,0.4c0.2,0.9-0.2,1.5-0.2,1.6c0.1,0.2,0.2,0.4,0.3,0.5
					c0.1-0.2,0.5-0.8,0.4-1.4l0-0.1l0,0l0,0l0-0.2l0.1,0.3c0,0.2,0,1.1-0.4,1.6c0.1,0.2,0.3,0.3,0.4,0.4c0,0,0.1-0.1,0.1-0.1
					c0.4-0.4,0.3-1,0.2-1.4l-0.1-0.3l0.1,0.3c0.3,1-0.1,1.4-0.2,1.6c0,0,0,0,0,0c0.2,0.1,0.5,0.2,0.5,0.2l0.1-0.1
					C264.5,184.7,263.5,183.7,262.1,183.1z"/>
				<path class="st8" d="M264.9,191.6c0.8,0.4,1.1-0.1,0.8-0.7c-0.7-1.8-1.6-1.4-1.7-1.3c0,0,0.3,0.1,0.5,0.4c0.1,0,0.4,0.1,0.6,0.3
					l0.1,0.1l-0.1-0.1c-0.1-0.1-0.3-0.2-0.5-0.2c0,0.1,0.1,0.1,0.1,0.2c0.1,0,0.4,0,0.6,0.2c0,0,0,0,0.1,0c0,0,0.1,0.1,0.1,0.1
					l-0.2-0.2c-0.1-0.1-0.3-0.2-0.6-0.2l0,0c0,0.1,0.1,0.2,0.1,0.2c0.1,0,0.4,0,0.6,0.2l0,0l0.1,0.1l-0.1-0.1
					c-0.1-0.1-0.3-0.3-0.6-0.2c0,0.1,0.1,0.2,0.1,0.2l0,0c0,0,0.3-0.1,0.6,0.2c0,0,0,0,0.1,0.1c0,0,0,0.1,0,0.1l-0.1-0.1
					c-0.1-0.1-0.4-0.3-0.5-0.2c0.3,0.4,0.6,0.6,0.6,0.6l0.1,0c0,0-0.1,0-0.1,0c0,0-0.2-0.1-0.4-0.3c0,0.2,0.1,0.3,0.1,0.3l0.1,0
					l-0.1,0c-0.1-0.1-0.2-0.4-0.2-0.4c-0.1-0.1-0.3-0.3-0.3-0.4c-0.2,0.4,0,0.7,0,0.7l0.1,0.1l-0.1-0.1c-0.2-0.3-0.1-0.7,0-0.8
					c0,0,0,0,0,0l0,0c0,0,0-0.1,0-0.1c-0.3,0.2-0.2,0.8-0.2,0.8l0,0.1c0,0-0.1-0.1-0.1-0.2c-0.1-0.4,0.2-0.7,0.2-0.8
					c0-0.1-0.1-0.2-0.1-0.3c-0.1,0.1-0.3,0.4-0.3,0.7l0,0l0,0l0,0l0,0.1l0-0.1c0-0.1,0-0.5,0.3-0.8c-0.1-0.1-0.1-0.2-0.2-0.2
					c0,0,0,0-0.1,0c-0.2,0.2-0.2,0.5-0.2,0.7l0,0.1l-0.1-0.1c-0.1-0.5,0.1-0.7,0.2-0.8c0,0,0,0,0,0c-0.1-0.1-0.2-0.1-0.3-0.1l0,0
					C263.8,190.7,264.2,191.3,264.9,191.6z"/>
			</g>
			<g>
				<path class="st6" d="M265.4,186.2c0-0.1,0.1-0.2,0.1-0.3c-2.5,2.6-3.8,5.1-3.8,5.1l0.2,0.1c0,0,1.1-2.3,3.4-4.7
					C265.4,186.3,265.4,186.3,265.4,186.2z"/>
				<path class="st6" d="M272.1,181.5c-0.1,0,0.2-0.3,0.2-0.3s-0.1,0.1-0.1,0.1c-2.3,1-4.2,2.3-5.7,3.7c0.1,0,0.1,0.1,0.2,0.2
					c1.5-1.4,3.3-2.7,5.6-3.7C272.7,181.3,272.2,181.5,272.1,181.5z"/>
				<path class="st10" d="M266.7,189.1c-0.4,0.8-1.3,1.2-2.1,0.8c-0.8-0.4-1.2-1.3-0.8-2.1c0.4-0.8,1.3-1.2,2.1-0.8
					C266.7,187.3,267,188.3,266.7,189.1"/>
				<path class="st11" d="M266.4,188.1c-0.1,0.2-0.4,0.1-0.7-0.1c-0.2-0.2-0.3-0.5-0.1-0.7c0.1-0.2,0.4-0.1,0.7,0.1
					C266.5,187.7,266.5,188,266.4,188.1"/>
				<path class="st10" d="M264.2,188.9c0.5,0.6,0.3,1.6-0.3,2c-0.6,0.5-1.6,0.3-2-0.3c-0.5-0.6-0.3-1.6,0.3-2
					C262.8,188.1,263.7,188.2,264.2,188.9"/>
				<path class="st11" d="M263.3,188.7c0.1,0.2-0.1,0.4-0.4,0.5c-0.3,0.1-0.5,0-0.6-0.2c-0.1-0.2,0.1-0.4,0.4-0.5
					C263,188.4,263.2,188.5,263.3,188.7"/>
				<path class="st10" d="M263.1,186.4c0.3,0.5,0.2,1.1-0.2,1.5c-0.5,0.3-1.1,0.2-1.5-0.2c-0.3-0.5-0.2-1.1,0.2-1.5
					C262.1,185.9,262.8,186,263.1,186.4"/>
				<path class="st11" d="M262.4,186.3c0,0.1-0.1,0.3-0.3,0.4c-0.2,0.1-0.4,0-0.4-0.1c0-0.1,0.1-0.3,0.3-0.4
					C262.2,186.1,262.4,186.1,262.4,186.3"/>
				<path class="st10" d="M265.2,184.3c0.3,0.5,0.2,1.1-0.2,1.5c-0.5,0.3-1.1,0.2-1.5-0.2c-0.3-0.5-0.2-1.1,0.2-1.5
					C264.2,183.8,264.9,183.9,265.2,184.3"/>
				<path class="st11" d="M264.6,184.2c0,0.1-0.1,0.3-0.3,0.4c-0.2,0.1-0.4,0-0.4-0.1c0-0.1,0.1-0.3,0.3-0.4
					C264.4,184,264.5,184,264.6,184.2"/>
				<path class="st10" d="M267.7,180.8c0.6,0.1,1,0.6,0.9,1.2c-0.1,0.6-0.6,1-1.2,0.9c-0.6-0.1-1-0.6-0.9-1.2
					C266.6,181.1,267.1,180.8,267.7,180.8"/>
				<path class="st11" d="M267.1,181.2c0.1,0.1,0.2,0.3,0.1,0.4c-0.1,0.2-0.3,0.3-0.4,0.2c-0.1-0.1-0.2-0.3-0.1-0.4
					C266.8,181.2,267,181.1,267.1,181.2"/>
				<path class="st10" d="M268.5,187.3c-0.6,0.4-1.4,0.3-1.8-0.3c-0.4-0.6-0.3-1.4,0.3-1.8c0.6-0.4,1.4-0.3,1.8,0.3
					C269.2,186,269,186.8,268.5,187.3"/>
				<path class="st11" d="M268.7,186.4c-0.2,0.1-0.4-0.1-0.4-0.3c-0.1-0.2,0-0.5,0.2-0.5c0.2-0.1,0.4,0.1,0.4,0.3
					C268.9,186.2,268.8,186.4,268.7,186.4"/>
			</g>
		</g>
		<g>
			<g>
				<g>
					<path class="st4" d="M251.7,180.8c0.2,0.2,0.5,0.5,0.7,0.1c0.2-0.2,0.2-0.5,0.1-0.8c-0.1-0.3-0.2-0.6-0.4-0.9
						c-0.1-0.2-0.3-0.5-0.4-0.8c-0.1,0.1-0.2,0.2-0.3,0.3c0.2,0.7,0.9,1.1,1.4,1.7c0.2,0.2,0.4-0.4,0.3-0.5
						c-0.4-0.5-0.6-1.2-0.8-1.9c-0.1,0.1-0.2,0.2-0.3,0.4c0.1,0.4,1.3,2.3,1.9,1.1c0.1-0.2,0-0.7-0.2-0.3c-0.1,0.2-0.7-0.3-0.8-0.4
						c-0.2-0.2-0.5-0.5-0.6-0.9c-0.1-0.3-0.3,0.2-0.3,0.4c0.1,0.7,0.4,1.5,0.8,2.1c0.1-0.2,0.2-0.4,0.3-0.5
						c-0.2-0.3-0.5-0.5-0.7-0.7c-0.2-0.2-0.5-0.5-0.6-0.8c-0.1-0.3-0.3,0.2-0.3,0.3c0,0.4,0.3,0.7,0.4,1c0.1,0.2,0.2,0.4,0.3,0.7
						c0,0,0,0.1,0,0.1c0.1-0.1,0.1-0.1-0.1-0.1c-0.1,0-0.2-0.2-0.3-0.3C251.8,180.1,251.6,180.7,251.7,180.8L251.7,180.8z"/>
				</g>
				<g>
					<path class="st4" d="M241.2,181.7c-0.1-0.4-0.3-0.8-0.8-0.5c-0.5,0.3-0.7,0.9-0.8,1.4c-0.1,0.4,0.1,0.9,0.7,1
						c0.6,0,1.1-0.3,1.5-0.6c0.3-0.2,0.1-0.4-0.2-0.2c-0.4,0.3-1.3,0.7-1.4-0.1c-0.1-0.3,0-0.6,0.1-0.8c0-0.2,0.1-0.3,0.2-0.5
						c-0.1,0.1,0.1,0.4,0.1,0.5C240.7,182.2,241.3,181.9,241.2,181.7L241.2,181.7z"/>
				</g>
				<g>
					<path class="st4" d="M234.3,178.8c0.1-0.3,0.1-0.7-0.3-0.8c-0.5-0.1-0.9,0.2-1.3,0.5c-0.3,0.3-0.6,0.7-0.4,1.2
						c0.2,0.5,0.7,0.6,1.1,0.6c0.4,0,0.3-0.3-0.1-0.3c-0.6,0-0.4-0.8-0.2-1c0.1-0.2,0.3-0.3,0.4-0.5c0.1,0,0.1-0.1,0.2-0.1
						c0.2-0.1,0.2-0.1,0.1,0c0.1,0.1,0,0.3-0.1,0.4C233.6,178.9,234.2,178.9,234.3,178.8L234.3,178.8z"/>
				</g>
				<g>
					<path class="st4" d="M247.1,181.2c0.2,0.7,0.5,1.3,0.6,2c0.1,0.3,0.5-0.2,0.5-0.4c-0.1-0.4,0-0.6,0.2-1
						c0.2-0.4,0.2-0.8,0.1-1.2c0-0.3-0.3,0.1-0.3,0.3c0,0.4,0.1,0.8,0.2,1.1c0.1,0.3,0.2,0.7,0.5,0.9c0.2,0.2,0.6-0.2,0.7-0.4
						c0.2-0.4,0.2-0.9,0.1-1.3c-0.1-0.2-0.3,0.2-0.3,0.4c0,0.1,0,0.9-0.1,0.9c-0.1,0-0.2-0.3-0.3-0.4c-0.2-0.4-0.4-0.9-0.4-1.4
						c-0.1,0.1-0.2,0.2-0.3,0.3c0,0.4,0,0.7-0.2,1.1c-0.2,0.4-0.2,0.8-0.2,1.2c0.2-0.1,0.3-0.3,0.5-0.4c-0.2-0.7-0.4-1.3-0.7-2
						C247.4,180.6,247,181.1,247.1,181.2L247.1,181.2z"/>
				</g>
				<g>
					<path class="st4" d="M241.6,181.6c0,0.7-0.1,1.4-0.2,2.1c0,0.3,0.5,0,0.5-0.2c0.1-0.4,0.2-0.6,0.5-0.9c0.3-0.3,0.4-0.7,0.5-1.1
						c0.1-0.3-0.3,0-0.4,0.1c-0.1,0.4-0.2,0.8-0.2,1.1c0,0.3-0.1,0.7,0.1,1c0.1,0.2,0.4,0.1,0.5,0.1c0.4-0.2,0.7-0.5,0.8-0.9
						c0.1-0.3-0.3-0.1-0.4,0c-0.1,0.2-0.2,0.5-0.5,0.5c-0.1,0-0.1-0.3-0.1-0.4c0-0.5,0-1.1,0.1-1.5c-0.1,0-0.2,0.1-0.4,0.1
						c-0.1,0.4-0.3,0.7-0.6,1c-0.3,0.3-0.4,0.7-0.5,1.1c0.2-0.1,0.3-0.1,0.5-0.2c0.1-0.7,0.1-1.4,0.1-2.1
						C242.1,181.2,241.6,181.5,241.6,181.6L241.6,181.6z"/>
				</g>
				<g>
					<g>
						<path class="st4" d="M235.8,181.7c-0.2,0.5,0.2,0.8,0.7,0.7c0.5-0.1,0.7-0.6,0.9-1c0.1-0.3,0.3-0.8,0-1.1
							c-0.1-0.1-0.4-0.1-0.5-0.1c-0.3,0.1-0.5,0.3-0.7,0.6c-0.1,0.2,0.4,0.1,0.5,0c0.1-0.3,0.3-0.3,0.3,0c0,0.2,0,0.4-0.1,0.6
							c-0.1,0.2-0.2,0.4-0.3,0.6c0,0.1-0.1,0.1-0.2,0.2c0,0,0,0,0-0.1c-0.1-0.1-0.1-0.2-0.1-0.4
							C236.5,181.4,235.9,181.5,235.8,181.7L235.8,181.7z"/>
					</g>
					<g>
						<path class="st4" d="M236.6,179.8c-0.4,1.2-1,2.4-1.7,3.5c-0.1,0.2,0.5,0.2,0.6,0c0.7-1.1,1.3-2.4,1.7-3.6
							C237.2,179.5,236.7,179.6,236.6,179.8L236.6,179.8z"/>
					</g>
				</g>
				<g>
					<path class="st4" d="M236.3,179.5c-0.7-0.2-1.3,0.3-1.6,0.9c-0.2,0.4-0.3,1.4,0.5,1.2c0.9-0.2,1.3-1.4,1.2-2.2
						c0-0.2,0-0.4-0.1-0.7c0-0.1,0-0.2,0-0.3c0-0.1,0-0.1,0.1-0.2c-0.2,0-0.2,0.1-0.1,0.1c0.3,0.3,0.5,0.6,0.9,0.7
						c0.2,0,0.6-0.3,0.3-0.3c-0.5,0-0.6-0.8-1.1-0.8c-0.4,0-0.6,0.4-0.6,0.9c0,0.4,0.1,0.8,0,1.2c0,0.1-0.5,1.3-0.7,1.2
						c-0.4-0.4,0.4-1.6,0.8-1.5C236.1,179.9,236.6,179.6,236.3,179.5L236.3,179.5z"/>
				</g>
				<g>
					<path class="st4" d="M245.1,183.3c-0.2,0.3-0.4-0.7-0.4-0.7c-0.1-0.4-0.1-0.8-0.1-1.2c0-0.3-0.4,0.1-0.4,0.3c0,0.3,0,0.7,0,1
						c0,0.2,0,0.4,0,0.5c0,0.2,0,0.3-0.2,0.2c-0.4-0.3-0.2-1.4-0.2-1.8c0.1-0.3-0.3,0-0.4,0.2c-0.1,0.4-0.4,2.3,0.4,2.2
						c1-0.2,0.7-1.8,0.7-2.5c-0.1,0.1-0.3,0.2-0.4,0.3c0,0.6,0,1.3,0.2,1.8c0.2,0.5,0.7,0.2,0.9-0.1
						C245.6,183.1,245.4,183,245.1,183.3L245.1,183.3z"/>
				</g>
				<g>
					<g>
						<path class="st4" d="M250.2,179.7c0.1,0.6,0.4,1.1,0.7,1.6c0.1,0.1,0.2,0.3,0.4,0.3c0.3,0,0.4-0.4,0.5-0.6
							c0.1-0.4-0.2-0.4-0.3,0c-0.1,0.3-0.5-0.4-0.6-0.5c-0.2-0.3-0.4-0.7-0.5-1.1C250.4,179.1,250.2,179.5,250.2,179.7L250.2,179.7z
							"/>
					</g>
					<g>
						<path class="st4" d="M249.6,181.9c0.1-0.2,0.4-0.5,0.7-0.3c0.2,0.2-0.1,0.2-0.2,0.2c-0.5-0.2-0.7-1.2-0.8-1.7
							c-0.1-0.3-0.3,0.1-0.3,0.3c0.1,0.5,0.6,2.7,1.4,1.8c0.3-0.3,0.3-0.8,0.2-1.1c-0.3-0.5-0.8,0-1,0.3c-0.1,0.1-0.2,0.3-0.2,0.4
							C249.4,181.9,249.5,182,249.6,181.9L249.6,181.9z"/>
					</g>
				</g>
				<g>
					<path class="st4" d="M247.1,183c-0.5,0.1-0.5-1.6-0.5-1.9c0-0.2-0.4,0.2-0.4,0.3c0,0.1,0,0.2-0.1,0.4c-0.1,0.2-0.2,0.1-0.3,0
						c-0.1-0.1-0.1-0.3-0.1-0.4c0-0.3-0.3,0-0.4,0.1c-0.1,0.1-0.2,0.3-0.3,0.4c-0.2,0.3,0.2,0.3,0.3,0c0.1-0.1,0.2-0.3,0.3-0.5
						c-0.1,0-0.2,0.1-0.4,0.1c0,0.4,0.1,1.1,0.8,0.7c0.4-0.2,0.5-0.7,0.5-1.1c-0.1,0.1-0.3,0.2-0.4,0.3c0,0.4-0.1,2.2,0.6,2.1
						C247,183.4,247.3,182.9,247.1,183L247.1,183z"/>
				</g>
				<g>
					<path class="st4" d="M246.8,183.5c0.3-0.1,0.5-0.3,0.6-0.5c0.2-0.2,0.4-0.5,0.6-0.7c0-0.1,0.1-0.3,0-0.3
						c-0.1,0-0.3,0.1-0.3,0.2c-0.1,0.2-0.2,0.3-0.4,0.5c-0.1,0.1-0.2,0.2-0.2,0.2c0,0-0.1,0.1-0.1,0.1c-0.2,0.1-0.3,0.2-0.3,0.3
						C246.7,183.4,246.7,183.5,246.8,183.5L246.8,183.5z"/>
				</g>
				<g>
					<g>
						<path class="st4" d="M238.1,180.7c-0.1,0.4-1.2,2-0.3,2.2c1.1,0.2,1.6-1.4,1.8-2c0.1-0.2-0.5-0.1-0.5,0.1
							c-0.2,0.4-0.3,0.8-0.6,1.2c-0.1,0.1-0.2,0.5-0.4,0.3c-0.2-0.2,0.1-0.7,0.2-1c0.1-0.3,0.3-0.6,0.4-1
							C238.7,180.4,238.2,180.5,238.1,180.7L238.1,180.7z"/>
					</g>
					<g>
						<path class="st4" d="M239.1,181c-0.1,0.5-0.8,3.6-1.3,3.4c-0.7-0.3,0.8-1.2,1-1.3c0.4-0.2,0.9-0.4,1.3-0.6
							c0.3-0.2,0.1-0.4-0.2-0.2c-0.8,0.4-1.6,0.6-2.2,1.1c-0.3,0.2-1.1,1-0.3,1.3c0.6,0.3,1.2-0.2,1.4-0.5c0.6-0.9,0.6-2.3,0.9-3.3
							C239.7,180.7,239.1,180.9,239.1,181L239.1,181z"/>
					</g>
				</g>
				<g>
					<path class="st4" d="M237.1,180.5c0.2,0.4,0.9,0.4,1.3,0.3c0.2-0.1,0.3-0.3,0-0.2c-0.2,0.1-0.8,0-0.9-0.3
						C237.4,180.2,237,180.4,237.1,180.5L237.1,180.5z"/>
				</g>
			</g>
		</g>
		<g>
			<g>
				<g>
					<path class="st4" d="M245.5,186.8c0.1,0.2,0.3,0.6,0.7,0.4c0.2-0.1,0.3-0.4,0.4-0.6c0-0.3,0-0.6-0.1-0.9c0-0.2-0.2-0.6-0.1-0.8
						c-0.1,0.1-0.2,0.1-0.3,0.2c0,0.7,0.5,1.3,0.7,2c0.1,0.2,0.4-0.2,0.4-0.4c-0.2-0.6-0.2-1.3-0.2-1.9c-0.1,0.1-0.2,0.2-0.3,0.2
						c0,0.4,0.6,2.6,1.4,1.7c0.2-0.2,0.2-0.7-0.1-0.4c-0.2,0.2-0.6-0.5-0.6-0.6c-0.2-0.3-0.3-0.7-0.3-1c0-0.3-0.3,0.1-0.3,0.2
						c0,0.7,0,1.5,0.1,2.1c0.1-0.1,0.3-0.2,0.4-0.4c-0.1-0.3-0.3-0.6-0.5-0.9c-0.1-0.3-0.3-0.6-0.3-0.9c0-0.3-0.3,0.1-0.3,0.2
						c-0.1,0.3,0,0.7,0.1,1c0,0.2,0,0.5,0,0.7c0,0,0,0.1,0,0.1c0.1-0.1,0.1-0.1,0-0.1c-0.1-0.1-0.2-0.2-0.2-0.3
						C245.8,186.3,245.4,186.7,245.5,186.8L245.5,186.8z"/>
				</g>
				<g>
					<path class="st4" d="M240.5,185.2c0-0.5-0.2-0.7-0.7-0.5c-0.5,0.2-0.8,0.9-1,1.4c-0.3,1.2,1.5,0.8,1.9,0.2
						c0.1-0.1,0-0.2-0.1-0.2c-0.1,0-0.3,0.1-0.3,0.2c-0.4,0.4-1,0.2-0.9-0.3c0-0.2,0.1-0.5,0.2-0.7c0.1-0.1,0.2-0.3,0.3-0.4
						c-0.1,0.1,0,0.3,0,0.4C240,185.6,240.5,185.4,240.5,185.2L240.5,185.2z"/>
				</g>
				<g>
					<path class="st4" d="M241.5,185c-0.5,0-0.8,0.5-1,0.9c-0.1,0.3-0.4,1.2,0.2,1.4c0.6,0.2,1.1-0.5,1.2-0.9
						C241.9,186,242,185.2,241.5,185c-0.1,0-0.5,0.3-0.3,0.4c0.3,0.1,0.3,0.5,0.2,0.7c0,0.2,0,0.4-0.1,0.5c0,0.1-0.1,0.1-0.1,0.2
						c0,0.1-0.2,0.2-0.1,0.1c-0.3,0.1-0.3-0.6-0.3-0.7c0-0.2,0.1-0.3,0.1-0.5c0-0.1,0.1-0.2,0.1-0.3c0.1-0.1,0.1-0.1,0-0.1
						C241.3,185.4,241.7,185,241.5,185z"/>
				</g>
				<g>
					<path class="st4" d="M244.6,185.1c-0.5,0.1-0.7,0.8-0.7,1.2c0,0.4,0,1.3,0.6,1.3c0.7,0,0.9-0.8,0.9-1.2
						C245.3,185.9,245.2,185.1,244.6,185.1c-0.2,0-0.4,0.5-0.2,0.5c0.3,0,0.4,0.4,0.5,0.6c0.1,0.2,0.1,0.4,0.1,0.5
						c0,0.1,0,0.2,0,0.2c0,0.1-0.1,0.2,0,0.2c-0.3,0.2-0.5-0.5-0.5-0.6c0-0.2,0-0.4,0-0.5c0-0.1,0-0.2,0-0.3c0-0.1,0.1-0.1,0-0.1
						C244.6,185.5,244.8,185,244.6,185.1z"/>
				</g>
				<g>
					<path class="st4" d="M242.3,185.2c0.1,0.8-0.1,1.5-0.2,2.3c0,0.3,0.5,0,0.5-0.2c0.1-0.4,0.1-0.7,0.2-1c0.1-0.2,0.1-0.7,0.4-0.5
						c0.1-0.1,0.2-0.3,0.4-0.4c-0.7-0.5-1.2,0.7-1.3,1.2c0,0.1,0.1,0.1,0.2,0.1c0.5-0.2,0.2,0.7,0.5,0.9c0.3,0.2,0.9-0.3,1.1-0.5
						c0.3-0.2,0-0.4-0.2-0.2c-0.3,0.2-0.4,0.3-0.5,0c0-0.2,0-0.3-0.1-0.5c-0.1-0.3-0.4-0.2-0.7-0.1c0.1,0,0.1,0,0.2,0.1
						c0-0.2,0.1-0.9,0.4-0.7c0.2,0.1,0.5-0.3,0.4-0.4c-1-0.7-1.5,1.6-1.6,2.1c0.2-0.1,0.4-0.1,0.5-0.2c0.1-0.8,0.2-1.5,0.1-2.4
						C242.7,184.8,242.3,185,242.3,185.2L242.3,185.2z"/>
				</g>
				<g>
					<path class="st4" d="M241.3,185.3c0.3,0.2,0.9,0.2,1.2,0.1c0.2-0.1,0.2-0.4,0-0.2c-0.2,0.1-0.7,0.1-0.8-0.1
						C241.5,185,241.2,185.3,241.3,185.3L241.3,185.3z"/>
				</g>
			</g>
		</g>
	</g>
	<g>
		<g>
			<g>
				<path class="st8" d="M142.6,177c-0.7-1.5-1.8-1.1-2.3,0c-1.4,3.2,0.7,3.7,0.9,3.7c0-0.1-0.3-0.4-0.3-1c-0.1-0.1-0.6-0.6-0.6-1
					l0-0.2l0.1,0.2c0.1,0.2,0.2,0.6,0.6,0.9c0-0.1,0.1-0.2,0.1-0.4c-0.1-0.1-0.6-0.5-0.6-1c0,0,0-0.1,0-0.1c0,0,0-0.3,0-0.3l0.1,0.4
					c0,0.2,0.2,0.6,0.6,0.9l0,0c0.1-0.1,0.1-0.3,0.2-0.4c-0.1-0.1-0.6-0.4-0.7-1.1l0-0.1l0-0.1l0.1,0.3c0,0.2,0.2,0.8,0.7,0.9
					c0-0.2,0.1-0.3,0.1-0.5l0,0c0,0-0.5-0.2-0.6-1c0,0,0-0.1,0-0.2c0,0,0-0.1,0-0.1l0,0.3c0.1,0.2,0.2,0.7,0.5,0.9
					c0.1-0.8-0.2-1.5-0.2-1.5l-0.1-0.2c0,0,0.1,0.1,0.1,0.1c0,0,0.1,0.3,0.2,0.7c0.2-0.3,0.2-0.6,0.2-0.6l0-0.1l0.1,0.1
					c0.1,0.3-0.2,0.7-0.2,0.8c0,0.4,0,0.7,0,1c0.8-0.3,0.9-0.9,0.9-0.9l0-0.2l0.1,0.2c0,0.7-0.8,1-1,1.1c0,0,0,0,0,0.1l0,0
					c0,0.1-0.1,0.2-0.1,0.2c0.7,0,1.3-0.8,1.3-0.8l0.1-0.1c0,0,0,0.2-0.1,0.4c-0.5,0.7-1.3,0.8-1.3,0.8c-0.1,0.2-0.1,0.3-0.2,0.5
					c0.2,0,0.9-0.2,1.4-0.6l0,0l0,0l0,0l0.1-0.1l-0.1,0.2c-0.2,0.2-0.8,0.7-1.4,0.7c0,0.2,0,0.4,0,0.5c0.1,0,0.1,0,0.2,0
					c0.6,0,1-0.4,1.2-0.7l0.2-0.2l-0.1,0.3c-0.5,0.8-1.1,0.8-1.3,0.8c0,0,0,0-0.1,0c0,0.2,0.2,0.4,0.2,0.5l0.1,0
					C143.2,179.4,143.1,178.1,142.6,177z"/>
				<path class="st8" d="M146.7,179.7c1-0.9,0.4-1.7-0.6-1.7c-2.8-0.2-2.6,1.5-2.6,1.6c0,0,0.2-0.4,0.7-0.5c0-0.1,0.3-0.6,0.6-0.8
					l0.2-0.1l-0.2,0.1c-0.1,0.1-0.4,0.3-0.5,0.7c0.1,0,0.2,0,0.3,0c0-0.1,0.2-0.6,0.6-0.7c0,0,0.1,0,0.1,0c0,0,0.2-0.1,0.2-0.1
					l-0.3,0.2c-0.2,0.1-0.4,0.3-0.5,0.7l0,0c0.1,0,0.2,0,0.4,0c0-0.1,0.1-0.6,0.6-0.8l0.1,0l0.1,0l-0.2,0.1
					c-0.2,0.1-0.5,0.3-0.5,0.8c0.1,0,0.3,0,0.4-0.1l0,0c0,0,0.1-0.4,0.6-0.7c0,0,0,0,0.1,0c0,0,0.1,0,0.1,0l-0.2,0.1
					c-0.2,0.1-0.5,0.4-0.5,0.6c0.6-0.2,1.1-0.5,1.1-0.5l0.1-0.1c0,0-0.1,0.1-0.1,0.1c0,0-0.2,0.2-0.5,0.4c0.2,0.1,0.5,0,0.5,0
					l0.1-0.1l-0.1,0.1c-0.2,0.1-0.6,0-0.7,0c-0.3,0.1-0.5,0.2-0.8,0.2c0.5,0.6,0.9,0.4,0.9,0.4l0.1,0l-0.1,0.1
					c-0.5,0.2-1-0.4-1.1-0.5c0,0,0,0-0.1,0l0,0c-0.1,0-0.1,0-0.2,0c0.2,0.6,1,0.8,1,0.8l0.1,0c0,0-0.1,0-0.3,0
					c-0.6-0.2-0.9-0.8-1-0.8c-0.1,0-0.3,0-0.4,0c0.1,0.1,0.4,0.7,0.8,0.9l0,0l0,0l0,0l0.1,0.1l-0.2,0c-0.2-0.1-0.7-0.4-0.9-0.9
					c-0.1,0-0.3,0.1-0.4,0.1c0,0,0,0.1,0,0.1c0.1,0.4,0.6,0.6,0.8,0.7l0.2,0.1l-0.2,0c-0.7-0.2-0.9-0.6-1-0.8c0,0,0,0,0,0
					c-0.1,0.1-0.3,0.3-0.3,0.3l0,0.1C144.9,180.7,145.9,180.4,146.7,179.7z"/>
				<path class="st8" d="M143.6,181.2c0.7-0.3,0.5-0.8,0-1c-1.4-0.6-1.6,0.3-1.6,0.3c0,0,0.2-0.1,0.4-0.1c0,0,0.3-0.2,0.5-0.3l0.1,0
					l-0.1,0c-0.1,0-0.2,0.1-0.4,0.3c0.1,0,0.1,0,0.2,0c0,0,0.2-0.2,0.5-0.3c0,0,0,0,0.1,0c0,0,0.1,0,0.1,0l-0.2,0
					c-0.1,0-0.3,0.1-0.4,0.3l0,0c0.1,0,0.1,0.1,0.2,0.1c0,0,0.2-0.3,0.5-0.3l0.1,0l0.1,0l-0.1,0c-0.1,0-0.3,0.1-0.4,0.3
					c0.1,0,0.1,0,0.2,0v0c0,0,0.1-0.2,0.4-0.2c0,0,0,0,0.1,0c0,0,0.1,0,0.1,0l-0.1,0c-0.1,0-0.3,0.1-0.4,0.2c0.4,0,0.6-0.1,0.6-0.1
					l0.1,0c0,0,0,0-0.1,0.1c0,0-0.1,0.1-0.3,0.1c0.1,0.1,0.3,0.1,0.3,0.1l0.1,0l-0.1,0c-0.1,0-0.3-0.1-0.3-0.1c-0.2,0-0.3,0-0.4,0
					c0.1,0.4,0.4,0.4,0.4,0.4L143.6,181.2l-0.1-0.1c-0.3,0-0.4-0.4-0.5-0.4c0,0,0,0,0,0l0,0c0,0-0.1,0-0.1,0c0,0.3,0.3,0.6,0.4,0.6
					l0.1,0c0,0-0.1,0-0.2-0.1c-0.3-0.2-0.3-0.6-0.3-0.6c-0.1,0-0.1-0.1-0.2-0.1c0,0.1,0.1,0.4,0.2,0.6l0,0l0,0l0,0l0.1,0.1l-0.1-0.1
					c-0.1-0.1-0.3-0.3-0.3-0.6c-0.1,0-0.2,0-0.2,0c0,0,0,0.1,0,0.1c0,0.3,0.2,0.4,0.3,0.5l0.1,0.1l-0.1-0.1
					c-0.3-0.2-0.4-0.5-0.4-0.6c0,0,0,0,0,0c-0.1,0-0.2,0.1-0.2,0.1l0,0.1C142.5,181.4,143.1,181.4,143.6,181.2z"/>
				<path class="st8" d="M142.5,183.4c1.3-0.6,1-1.5,0-1.9c-2.7-1.2-3.1,0.5-3.1,0.7c0,0,0.4-0.3,0.9-0.2c0.1-0.1,0.5-0.4,0.9-0.5
					l0.2,0l-0.2,0.1c-0.2,0-0.5,0.2-0.7,0.5c0.1,0,0.2,0.1,0.3,0.1c0.1-0.1,0.4-0.5,0.9-0.5c0,0,0.1,0,0.1,0s0.3,0,0.3,0l-0.4,0.1
					c-0.2,0-0.5,0.2-0.7,0.5l0,0c0.1,0.1,0.2,0.1,0.4,0.2c0.1-0.1,0.3-0.5,0.9-0.6l0.1,0l0.1,0l-0.2,0.1c-0.2,0-0.6,0.1-0.8,0.5
					c0.1,0,0.3,0.1,0.4,0.1v0c0,0,0.2-0.4,0.8-0.5c0,0,0.1,0,0.1,0c0,0,0.1,0,0.1,0l-0.2,0c-0.2,0-0.6,0.2-0.7,0.4
					c0.7,0.1,1.2-0.1,1.2-0.1l0.1-0.1c0,0-0.1,0.1-0.1,0.1c0,0-0.3,0.1-0.6,0.2c0.2,0.2,0.5,0.2,0.5,0.2l0.1,0l-0.1,0.1
					c-0.3,0-0.6-0.2-0.7-0.2c-0.3,0-0.6,0-0.8-0.1c0.3,0.7,0.8,0.7,0.8,0.7l0.1,0l-0.1,0c-0.6,0-0.8-0.7-0.9-0.8c0,0,0,0-0.1,0l0,0
					c-0.1,0-0.1-0.1-0.2-0.1c0,0.6,0.7,1.1,0.7,1.1l0.1,0.1c0,0-0.1,0-0.3-0.1c-0.6-0.4-0.6-1.1-0.6-1.1c-0.1-0.1-0.3-0.1-0.4-0.2
					c0,0.2,0.2,0.8,0.5,1.2l0,0l0,0l0,0l0.1,0.1l-0.2-0.1c-0.1-0.1-0.5-0.7-0.6-1.2c-0.1,0-0.3,0-0.4,0c0,0,0,0.1,0,0.1
					c0,0.5,0.3,0.8,0.6,1l0.2,0.1l-0.2-0.1c-0.6-0.5-0.7-0.9-0.7-1.1c0,0,0,0,0,0c-0.2,0-0.4,0.2-0.4,0.2l0,0.1
					C140.4,183.8,141.5,183.8,142.5,183.4z"/>
				<path class="st8" d="M138.5,180c-0.7-1.4-1.7-1-2.1,0.1c-1.2,3,0.7,3.4,0.8,3.4c0,0-0.3-0.4-0.3-0.9c-0.1-0.1-0.5-0.5-0.6-1
					l0-0.2l0.1,0.2c0.1,0.2,0.2,0.5,0.6,0.8c0-0.1,0-0.2,0.1-0.3c-0.1-0.1-0.5-0.5-0.6-0.9c0,0,0-0.1,0-0.1c0,0,0-0.3,0-0.3l0.1,0.4
					c0,0.2,0.2,0.5,0.6,0.8l0,0c0.1-0.1,0.1-0.3,0.2-0.4c-0.1-0.1-0.6-0.3-0.6-1l0-0.1l0-0.1l0.1,0.2c0,0.2,0.2,0.7,0.6,0.8
					c0-0.1,0.1-0.3,0.1-0.4c0,0,0,0,0,0c0,0-0.4-0.2-0.5-0.9c0,0,0-0.1,0-0.1c0,0,0-0.1,0-0.1l0,0.3c0.1,0.2,0.2,0.7,0.5,0.8
					c0.1-0.8-0.2-1.3-0.2-1.4l-0.1-0.2c0,0,0.1,0.1,0.1,0.1c0,0,0.1,0.3,0.2,0.7c0.2-0.2,0.2-0.6,0.2-0.6l0-0.1l0.1,0.1
					c0.1,0.3-0.2,0.7-0.2,0.7c0,0.3,0,0.6,0,0.9c0.8-0.3,0.8-0.9,0.8-0.9l0-0.2l0.1,0.2c0,0.6-0.8,1-0.9,1c0,0,0,0,0,0.1l0,0
					c0,0.1-0.1,0.1-0.1,0.2c0.7,0,1.2-0.8,1.2-0.8l0.1-0.1c0,0,0,0.2-0.1,0.3c-0.5,0.6-1.2,0.7-1.2,0.8c-0.1,0.1-0.1,0.3-0.2,0.5
					c0.2,0,0.9-0.2,1.3-0.6l0,0l0,0l0,0l0.1-0.1l-0.1,0.2c-0.2,0.1-0.7,0.6-1.3,0.7c0,0.2,0,0.3,0,0.5c0.1,0,0.1,0,0.2,0
					c0.5,0,0.9-0.4,1.1-0.7l0.1-0.2l-0.1,0.2c-0.5,0.7-1,0.8-1.2,0.8c0,0,0,0-0.1,0c0,0.2,0.2,0.4,0.2,0.4h0.1
					C139.1,182.2,139,181,138.5,180z"/>
				<path class="st8" d="M138.3,183.6c-0.4-0.9-1-0.6-1.3,0c-0.8,1.9,0.4,2.1,0.5,2.2c0,0-0.2-0.2-0.2-0.6c0,0-0.3-0.3-0.4-0.6
					l0-0.1l0,0.1c0,0.1,0.1,0.3,0.4,0.5c0-0.1,0-0.1,0.1-0.2c-0.1-0.1-0.3-0.3-0.4-0.6c0,0,0-0.1,0-0.1c0,0,0-0.2,0-0.2l0.1,0.2
					c0,0.1,0.1,0.3,0.4,0.5l0,0c0-0.1,0.1-0.2,0.1-0.3c-0.1,0-0.4-0.2-0.4-0.6l0-0.1l0-0.1l0.1,0.1c0,0.1,0.1,0.4,0.4,0.5
					c0-0.1,0-0.2,0.1-0.3c0,0,0,0,0,0c0,0-0.3-0.1-0.3-0.6c0,0,0,0,0-0.1c0,0,0-0.1,0-0.1l0,0.2c0,0.1,0.1,0.4,0.3,0.5
					c0-0.5-0.1-0.8-0.1-0.9l0-0.1c0,0,0.1,0.1,0.1,0.1c0,0,0.1,0.2,0.1,0.4c0.1-0.1,0.1-0.4,0.1-0.4l0-0.1l0.1,0.1
					c0,0.2-0.1,0.4-0.1,0.5c0,0.2,0,0.4,0,0.6c0.5-0.2,0.5-0.5,0.5-0.5l0-0.1l0,0.1c0,0.4-0.5,0.6-0.6,0.6c0,0,0,0,0,0l0,0
					c0,0,0,0.1-0.1,0.1c0.4,0,0.8-0.5,0.8-0.5l0-0.1c0,0,0,0.1-0.1,0.2c-0.3,0.4-0.7,0.5-0.8,0.5c0,0.1-0.1,0.2-0.1,0.3
					c0.1,0,0.5-0.1,0.8-0.4l0,0l0,0l0,0l0.1-0.1l-0.1,0.1c-0.1,0.1-0.4,0.4-0.8,0.4c0,0.1,0,0.2,0,0.3c0,0,0.1,0,0.1,0
					c0.3,0,0.6-0.3,0.7-0.4l0.1-0.1l-0.1,0.2c-0.3,0.4-0.6,0.5-0.8,0.5c0,0,0,0,0,0c0,0.1,0.1,0.3,0.1,0.3h0.1
					C138.6,185,138.6,184.3,138.3,183.6z"/>
				<path class="st8" d="M140.4,187.4c1.3-0.6,1-1.5,0-2c-2.7-1.2-3.2,0.5-3.2,0.7c0,0,0.4-0.3,0.9-0.2c0.1-0.1,0.5-0.5,0.9-0.5
					l0.2,0l-0.2,0.1c-0.2,0-0.5,0.2-0.8,0.5c0.1,0,0.2,0.1,0.3,0.1c0.1-0.1,0.4-0.5,0.9-0.5c0,0,0.1,0,0.1,0c0,0,0.3,0,0.3,0
					l-0.4,0.1c-0.2,0-0.5,0.2-0.8,0.5l0,0c0.1,0.1,0.2,0.1,0.4,0.2c0.1-0.1,0.3-0.5,0.9-0.6l0.1,0l0.1,0l-0.2,0.1
					c-0.2,0-0.7,0.1-0.8,0.6c0.1,0,0.3,0.1,0.4,0.1l0,0c0,0,0.2-0.4,0.8-0.5c0,0,0.1,0,0.1,0c0,0,0.1,0,0.1,0l-0.2,0
					c-0.2,0-0.6,0.2-0.7,0.4c0.7,0.1,1.3-0.1,1.3-0.1l0.1-0.1c0,0-0.1,0.1-0.1,0.1c0,0-0.3,0.1-0.6,0.2c0.2,0.2,0.5,0.2,0.5,0.2
					l0.1,0l-0.1,0.1c-0.3,0-0.6-0.2-0.7-0.2c-0.3,0-0.6,0-0.8,0c0.3,0.7,0.8,0.8,0.8,0.8l0.1,0l-0.1,0.1c-0.6,0-0.9-0.7-0.9-0.9
					c0,0,0,0-0.1,0l0,0c-0.1,0-0.1-0.1-0.2-0.1c0,0.6,0.7,1.1,0.7,1.1l0.1,0.1c0,0-0.1,0-0.3-0.1c-0.6-0.4-0.7-1.1-0.7-1.1
					c-0.1-0.1-0.3-0.1-0.4-0.2c0,0.2,0.2,0.8,0.5,1.2l0,0l0,0l0,0l0.1,0.1l-0.2-0.1c-0.1-0.1-0.6-0.7-0.6-1.3c-0.2,0-0.3,0-0.5,0
					c0,0.1,0,0.1,0,0.1c0,0.5,0.4,0.9,0.6,1l0.2,0.1l-0.2-0.1c-0.6-0.5-0.7-1-0.7-1.1c0,0,0,0,0-0.1c-0.2,0-0.4,0.2-0.4,0.2l0,0.1
					C138.3,187.9,139.4,187.9,140.4,187.4z"/>
				<path class="st8" d="M139.6,189.7c1.4-0.1,1.3-1,0.4-1.6c-2.4-1.7-3.2-0.4-3.2-0.2c0.1,0,0.4-0.1,0.9,0c0.1,0,0.6-0.3,1-0.2
					l0.2,0l-0.2,0c-0.2,0-0.5,0-0.8,0.2c0.1,0,0.2,0.1,0.3,0.2c0.1-0.1,0.5-0.3,1-0.2c0,0,0.1,0,0.1,0c0,0,0.3,0.1,0.3,0.1l-0.4,0
					c-0.2,0-0.5,0-0.8,0.3l0,0c0.1,0.1,0.2,0.2,0.3,0.2c0.1-0.1,0.4-0.3,1-0.2l0.1,0l0.1,0l-0.2,0c-0.2,0-0.7,0-0.9,0.3
					c0.1,0.1,0.2,0.1,0.4,0.2c0,0,0,0,0,0c0,0,0.3-0.3,0.9-0.2c0,0,0.1,0,0.1,0c0,0,0.1,0.1,0.1,0.1l-0.2,0c-0.2,0-0.7,0-0.8,0.2
					c0.7,0.2,1.2,0.2,1.2,0.2l0.2,0c0,0-0.1,0-0.1,0.1c0,0-0.3,0-0.7,0c0.2,0.2,0.5,0.3,0.5,0.3l0.1,0l-0.1,0
					c-0.3,0-0.6-0.3-0.6-0.4c-0.3,0-0.6-0.1-0.8-0.3c0.1,0.7,0.6,0.8,0.6,0.8l0.1,0l-0.2,0c-0.6-0.2-0.7-0.8-0.7-0.9c0,0,0,0,0,0
					l0,0c-0.1,0-0.1-0.1-0.2-0.1c-0.1,0.5,0.4,1.1,0.4,1.1l0.1,0.1c0,0-0.1,0-0.3-0.2c-0.5-0.5-0.4-1.1-0.4-1.1
					c-0.1-0.1-0.2-0.2-0.4-0.2c0,0.1,0,0.7,0.2,1.1l0,0l0,0l0,0l0.1,0.1l-0.2-0.1c-0.1-0.2-0.4-0.7-0.3-1.2
					c-0.1-0.1-0.3-0.1-0.4-0.1c0,0,0,0.1,0,0.1c-0.1,0.4,0.2,0.8,0.3,1l0.2,0.2l-0.2-0.1c-0.5-0.6-0.5-1-0.4-1.1c0,0,0,0,0,0
					c-0.2,0-0.4,0-0.4,0.1l0,0.1C137.5,189.5,138.5,189.8,139.6,189.7z"/>
				<path class="st8" d="M133.5,181.3c-1.7-0.7-2.1,0.3-1.5,1.6c1.7,3.5,3.5,2.5,3.6,2.3c-0.1,0-0.6-0.1-1-0.6
					c-0.1,0-0.9-0.1-1.3-0.4l-0.2-0.2l0.2,0.1c0.2,0.1,0.6,0.3,1.1,0.3c-0.1-0.1-0.2-0.2-0.2-0.4c-0.1,0-0.8,0-1.3-0.4
					c0,0-0.1-0.1-0.1-0.1c0,0-0.3-0.2-0.3-0.2l0.4,0.3c0.2,0.2,0.6,0.3,1.1,0.2l0,0c-0.1-0.2-0.1-0.3-0.2-0.5
					c-0.1,0-0.7,0.1-1.3-0.4l-0.1-0.1l-0.1-0.1l0.3,0.1c0.2,0.2,0.7,0.5,1.2,0.3c-0.1-0.2-0.2-0.3-0.3-0.5c0,0,0,0,0,0
					c0,0-0.5,0.2-1.2-0.4c0,0-0.1,0-0.1-0.1c0,0-0.1-0.1-0.1-0.1l0.2,0.2c0.2,0.1,0.8,0.4,1.1,0.3c-0.6-0.7-1.3-1-1.3-1l-0.2-0.1
					c0,0,0.2,0,0.2,0c0,0,0.3,0.2,0.8,0.4c-0.1-0.4-0.4-0.6-0.4-0.6l-0.1-0.1l0.2,0c0.3,0.2,0.5,0.7,0.5,0.8
					c0.3,0.3,0.6,0.5,0.8,0.8c0.3-0.8-0.2-1.4-0.2-1.4l-0.1-0.1l0.2,0.1c0.5,0.5,0.3,1.4,0.2,1.5c0,0,0,0,0,0.1l0,0
					c0,0.1,0.1,0.2,0.1,0.3c0.5-0.5,0.2-1.6,0.2-1.6l-0.1-0.1c0,0,0.1,0.1,0.2,0.4c0.2,0.9-0.2,1.5-0.2,1.6c0.1,0.2,0.2,0.4,0.3,0.5
					c0.1-0.2,0.5-0.8,0.4-1.4l0-0.1l0,0l0,0l0-0.2l0.1,0.3c0,0.2,0,1.1-0.4,1.6c0.1,0.2,0.3,0.3,0.4,0.4c0,0,0.1-0.1,0.1-0.1
					c0.4-0.4,0.3-1,0.2-1.4l-0.1-0.3l0.1,0.3c0.3,1-0.1,1.4-0.2,1.6c0,0,0,0,0,0c0.2,0.1,0.5,0.2,0.5,0.2l0.1-0.1
					C135.8,182.9,134.8,181.9,133.5,181.3z"/>
				<path class="st8" d="M136.2,189.8c0.8,0.4,1.1-0.1,0.8-0.7c-0.7-1.8-1.6-1.4-1.7-1.3c0,0,0.3,0.1,0.5,0.4c0.1,0,0.4,0.1,0.6,0.3
					l0.1,0.1l-0.1-0.1c-0.1-0.1-0.3-0.2-0.5-0.2c0,0.1,0.1,0.1,0.1,0.2c0.1,0,0.4,0,0.6,0.2c0,0,0,0,0.1,0c0,0,0.1,0.1,0.1,0.1
					l-0.2-0.2c-0.1-0.1-0.3-0.2-0.6-0.2l0,0c0,0.1,0.1,0.2,0.1,0.2c0.1,0,0.4,0,0.6,0.2l0,0l0.1,0.1l-0.1-0.1
					c-0.1-0.1-0.3-0.3-0.6-0.2c0,0.1,0.1,0.2,0.1,0.2l0,0c0,0,0.3-0.1,0.6,0.2c0,0,0,0,0.1,0.1c0,0,0,0.1,0,0.1l-0.1-0.1
					c-0.1-0.1-0.4-0.3-0.5-0.2c0.3,0.4,0.6,0.6,0.6,0.6l0.1,0c0,0-0.1,0-0.1,0c0,0-0.2-0.1-0.4-0.3c0,0.2,0.1,0.3,0.1,0.3l0.1,0
					l-0.1,0c-0.1-0.1-0.2-0.4-0.2-0.4c-0.1-0.1-0.3-0.3-0.3-0.4c-0.2,0.4,0,0.7,0,0.7l0.1,0.1l-0.1-0.1c-0.2-0.3-0.1-0.7,0-0.8
					c0,0,0,0,0,0l0,0c0,0,0-0.1,0-0.1c-0.3,0.2-0.2,0.8-0.2,0.8l0,0.1c0,0-0.1-0.1-0.1-0.2c-0.1-0.4,0.2-0.7,0.2-0.8
					c0-0.1-0.1-0.2-0.1-0.3c-0.1,0.1-0.3,0.4-0.3,0.7l0,0l0,0l0,0l0,0.1l0-0.1c0-0.1,0-0.5,0.3-0.8c-0.1-0.1-0.1-0.2-0.2-0.2
					c0,0,0,0-0.1,0c-0.2,0.2-0.2,0.5-0.2,0.7l0,0.1l-0.1-0.1c-0.1-0.5,0.1-0.7,0.2-0.8c0,0,0,0,0,0c-0.1-0.1-0.2-0.1-0.3-0.1l0,0
					C135.1,188.9,135.6,189.5,136.2,189.8z"/>
			</g>
			<path class="st6" d="M136.8,184.4c0-0.1,0.1-0.2,0.1-0.3c-2.5,2.6-3.8,5.1-3.8,5.1l0.2,0.1c0,0,1.1-2.3,3.4-4.7
				C136.7,184.5,136.7,184.5,136.8,184.4z"/>
			<path class="st6" d="M143.4,179.7c-0.1,0,0.2-0.3,0.2-0.3s-0.1,0.1-0.1,0.1c-2.3,1-4.2,2.3-5.7,3.7c0.1,0,0.1,0.1,0.2,0.2
				c1.5-1.4,3.3-2.7,5.6-3.7C144.1,179.5,143.5,179.7,143.4,179.7z"/>
			<g>
				<circle class="st12" cx="136.6" cy="186.6" r="1.6"/>
				
					<ellipse transform="matrix(0.7343 0.6789 -0.6789 0.7343 162.7634 -43.7136)" class="st13" cx="137.2" cy="186" rx="1" ry="0.7"/>
				
					<ellipse transform="matrix(0.7345 0.6786 -0.6786 0.7345 162.6348 -43.8484)" class="st12" cx="137.4" cy="185.9" rx="0.6" ry="0.4"/>
			</g>
			<g>
				<circle class="st13" cx="134.3" cy="187.9" r="1.5"/>
				
					<ellipse transform="matrix(0.9476 -0.3195 0.3195 0.9476 -52.7751 52.6817)" class="st12" cx="134.2" cy="187.2" rx="0.9" ry="0.6"/>
				
					<ellipse transform="matrix(0.9475 -0.3197 0.3197 0.9475 -52.7439 52.6887)" class="st13" cx="134.1" cy="187" rx="0.5" ry="0.3"/>
			</g>
			<g>
				<circle class="st12" cx="133.6" cy="185.3" r="1.1"/>
				
					<ellipse transform="matrix(0.9477 -0.3192 0.3192 0.9477 -51.9874 52.2689)" class="st13" cx="133.5" cy="184.7" rx="0.7" ry="0.4"/>
				
					<ellipse transform="matrix(0.9473 -0.3202 0.3202 0.9473 -52.0885 52.4479)" class="st12" cx="133.4" cy="184.6" rx="0.4" ry="0.3"/>
			</g>
			<g>
				<circle class="st13" cx="135.7" cy="183.2" r="1.1"/>
				
					<ellipse transform="matrix(0.9475 -0.3198 0.3198 0.9475 -51.2741 52.9599)" class="st12" cx="135.6" cy="182.6" rx="0.7" ry="0.4"/>
				
					<ellipse transform="matrix(0.9479 -0.3186 0.3186 0.9479 -51.0765 52.7136)" class="st13" cx="135.6" cy="182.5" rx="0.4" ry="0.3"/>
			</g>
			<g>
				<circle class="st12" cx="138.9" cy="180.1" r="1.1"/>
				
					<ellipse transform="matrix(0.4498 -0.8931 0.8931 0.4498 -84.4299 222.5109)" class="st13" cx="138.4" cy="179.8" rx="0.7" ry="0.4"/>
				
					<ellipse transform="matrix(0.451 -0.8925 0.8925 0.451 -84.4766 222.108)" class="st12" cx="138.3" cy="179.7" rx="0.4" ry="0.3"/>
			</g>
			<g>
				<circle class="st13" cx="139" cy="184.4" r="1.3"/>
				
					<ellipse transform="matrix(0.3128 0.9498 -0.9498 0.3128 271.015 -6.0885)" class="st12" cx="139.7" cy="184.3" rx="0.8" ry="0.6"/>
				
					<ellipse transform="matrix(0.3126 0.9499 -0.9499 0.3126 271.1474 -6.203)" class="st13" cx="139.9" cy="184.2" rx="0.4" ry="0.3"/>
			</g>
		</g>
		<circle class="st5" cx="114.7" cy="169.9" r="20"/>
		<circle class="st6" cx="98.8" cy="187.7" r="6.3"/>
		<path class="st7" d="M105.3,145.5c0,1.4-1.1,2.5-2.6,2.5c-1.4,0-2.6-1.1-2.6-2.5c0-1.4,1.1-2.6,2.6-2.6
			C104.1,142.9,105.3,144.1,105.3,145.5L105.3,145.5z"/>
		<path class="st8" d="M105.4,154.1c0,1.8-1.5,3.3-3.3,3.3c-1.8,0-3.3-1.5-3.3-3.3c0-1.8,1.5-3.3,3.3-3.3
			C103.9,150.8,105.4,152.3,105.4,154.1L105.4,154.1z"/>
		<path class="st8" d="M96.6,149c0,1.1-0.9,1.9-1.9,1.9c-1.1,0-2-0.9-2-1.9c0-1.1,0.9-2,2-2C95.7,147.1,96.6,147.9,96.6,149
			L96.6,149z"/>
		<g>
			<circle class="st6" cx="131.8" cy="151.7" r="11"/>
			<g>
				<path class="st4" d="M129,150.1c-0.9,0.1-1.2,1.2-1.2,1.9l0,0v0c0,0.1,0,0.2,0,0.3c0,0.4,0,0.6-0.1,1c0,0.1-0.1,0.4-0.1,0.4
					c-0.3,0-0.6-0.5-0.7-0.7c-0.2-0.6-0.4-1.2-0.5-1.7c-0.1-0.6-0.2-1.3-0.2-1.9c0-0.3,0-0.5,0-0.8c0-0.1,0-0.2,0-0.3
					c0-0.1,0-0.2,0-0.2c0.1-0.5-0.6,0-0.7,0.2c-0.7,1.3-0.5,2.8-0.5,4.2c0,0.4,0,0.8-0.1,1.1c0,0.3-0.1,0.7-0.3,0.9
					c-0.1,0.1-0.4,0-0.5,0c-0.2-0.1-0.3-0.3-0.3-0.5c0-0.2-0.3-0.1-0.4,0c-0.2,0.2-0.3,0.4-0.3,0.6c0.1,0.5,0.5,0.9,1,0.8
					c0.8-0.2,1.2-1.2,1.4-2c0.1-0.4,0.1-0.7,0.2-1.1c0.1,0.5,0.3,1.1,0.5,1.6c0.2,0.4,0.5,0.7,1,0.7c0.3-0.1,0.6-0.4,0.8-0.8
					c0.2,0.4,0.4,0.6,0.8,0.6c0.5,0,0.8-0.5,1-0.9c0.2-0.4,0.3-0.9,0.3-1.4C130.2,151.4,130,150,129,150.1z M129.3,153.3
					c0,0.1,0,0.2-0.1,0.3c-0.2,0-0.3-0.3-0.4-0.4c-0.1-0.3-0.2-0.6-0.2-1c0-0.3,0-0.7,0-1c0-0.1,0-0.2,0.1-0.3
					c0.5,0.3,0.6,0.9,0.6,1.4C129.4,152.6,129.4,153,129.3,153.3z"/>
				<path class="st4" d="M140,151.4c-1-0.4-1.5,1-1.7,1.7c-0.2,0.7-0.4,1.9,0.5,2.3c0.4,0.2,0.9-0.1,1.2-0.4
					c0.3-0.3,0.5-0.8,0.6-1.2C140.7,153.1,140.9,151.8,140,151.4z M139.4,154.6c0,0.1-0.1,0.2-0.1,0.2c-0.2-0.1-0.2-0.4-0.2-0.5
					c-0.1-0.3,0-0.7,0-1c0.1-0.3,0.2-0.7,0.3-1c0-0.1,0.1-0.2,0.1-0.2c0.4,0.4,0.3,1,0.2,1.6C139.6,153.9,139.5,154.3,139.4,154.6z"
					/>
				<path class="st4" d="M137.3,151.6c0.2-0.2,0.4-0.5,0.5-0.8c0.4-0.6,0.7-1.2,0.7-1.9c0-0.6-0.9-0.7-1.3-0.5c-0.6,0.3-1,1-1.2,1.6
					c-0.2,0.9-0.4,1.7-0.4,2.6v0c-0.3,0.4-1,1.1-1.5,0.8c-0.1-0.1-0.2-0.2-0.2-0.4c0.4-0.4,0.8-0.9,1.1-1.4c0.3-0.4,0.5-1.2-0.1-1.5
					c-0.5-0.3-1.1,0-1.4,0.4c-0.3,0.4-0.5,0.9-0.5,1.4c0,0.3-0.1,0.7,0,1.1c-0.3,0.2-0.6,0.3-1,0.2c-0.4-0.1-0.5-0.5-0.6-0.8
					c-0.1-0.5-0.1-0.9,0-1.4c0-0.1,0.1-0.3,0.1-0.4c0,0,0-0.1,0-0.1c0.2,0.1,0.3,0.5,0.4,0.6c0.1,0.3,0.9-0.2,0.8-0.5
					c-0.1-0.3-0.2-0.7-0.6-0.8c-0.3-0.2-0.8,0.1-1,0.3c-0.6,0.6-0.7,1.5-0.6,2.3c0,0.5,0.1,1.1,0.6,1.4c0.6,0.4,1.4,0,2-0.3
					c0.2,0.4,0.4,0.6,0.9,0.6c0.6-0.1,1.1-0.4,1.6-0.8c0,0.4,0.1,0.9,0.4,1.1c0.5,0.3,1.2,0,1.5-0.5c0.4-0.6,0.7-1.4,0.4-2.1
					C137.9,151.7,137.6,151.6,137.3,151.6z M134,151.2c0-0.1,0.1-0.3,0.2-0.4c0,0,0,0,0,0c0.2,0.1,0.3,0.4,0.3,0.6
					c-0.1,0.4-0.3,0.7-0.6,1.1c0-0.1,0-0.1,0-0.2C133.8,151.9,133.9,151.6,134,151.2z M137.2,149.4c0.1-0.1,0.1-0.3,0.2-0.4
					c0,0,0,0,0,0c0.4,0.4,0,1-0.2,1.4c-0.2,0.4-0.4,0.8-0.7,1.2c0.1-0.4,0.1-0.8,0.2-1.1C136.9,150.1,137,149.8,137.2,149.4z
					 M137,153.9c0,0-0.1,0.1-0.1,0.2c0,0-0.1,0-0.1,0c-0.2-0.1-0.3-0.7-0.3-0.9c0-0.2,0-0.4,0-0.6c0.1-0.1,0.2-0.2,0.3-0.4
					c0.2-0.1,0.4,0.1,0.4,0.4C137.3,153.1,137.1,153.6,137,153.9z"/>
			</g>
		</g>
		<g>
			<path class="st4" d="M103.7,186.3c-0.6,1-1.3,1.8-2,2.7c-0.3,0.4,0.2,0.4,0.4,0.1c0.7-0.9,1.5-1.9,2.1-2.9
				C104.4,185.9,103.8,186.1,103.7,186.3L103.7,186.3z"/>
			<path class="st4" d="M102.6,186.1c-0.4,0-0.6,0.3-0.7,0.7c-0.1,0.3,0.1,0.6,0.4,0.6C103.1,187.4,103.4,186.1,102.6,186.1
				c-0.2,0-0.4,0.4-0.2,0.4c0.2,0,0.3,0.2,0.3,0.3c0,0.1,0,0.1,0,0.2c0,0,0,0,0,0c0,0-0.1,0-0.1,0c-0.2,0-0.3-0.1-0.3-0.3
				c0-0.1,0-0.1,0-0.2c0,0,0,0,0,0c0,0,0.1,0,0.1,0C102.6,186.5,102.8,186.1,102.6,186.1z"/>
			<path class="st4" d="M103.6,188.1c-0.4,0-0.6,0.3-0.7,0.7c-0.1,0.3,0.1,0.6,0.4,0.6C104.1,189.4,104.4,188.1,103.6,188.1
				c-0.2,0-0.4,0.4-0.2,0.4c0.2,0,0.3,0.2,0.3,0.3c0,0.1,0,0.1,0,0.2c0,0,0,0,0,0c0,0-0.1,0-0.1,0c-0.2,0-0.3-0.1-0.3-0.3
				c0-0.1,0-0.1,0-0.2c0,0,0,0,0,0c0,0,0.1,0,0.1,0C103.6,188.5,103.8,188.1,103.6,188.1z"/>
		</g>
		<g>
			<g>
				<g>
					<path class="st4" d="M130,173.4c-0.2,0-0.4,0.1-0.5,0.2c-0.3-1.1,0-2.2,0.3-3.1c0,0,0,0,0,0c0.1-0.5-0.3-0.9-0.8-1
						c-0.5-0.1-1,0.2-1.3,0.5c-0.4,0.4-0.7,1.1-0.8,1.7c-0.1,0.5-0.4,0.8-0.5,0.8c-0.3-0.1-0.2-0.5-0.2-0.7c0-0.4,0-0.8-0.2-1.1
						c-0.1-0.3-0.4-0.3-0.7-0.3c0.3-0.9,0.5-1,0.6-1.1c0.2,0.1,0.3,0.2,0.3,0.2c0.3,0.3,1.2-0.2,0.9-0.5c-0.3-0.4-0.7-0.5-1.1-0.4
						c-0.3,0-0.5,0.2-0.7,0.4c0,0-0.1,0.1-0.1,0.1c0-0.5,0-1,0-1.4c0-0.4-1,0-1,0.4c0,0.2,0.1,0.5,0.1,0.7c0,1-0.3,2.1-1.1,2.9
						c0-0.1,0-0.2,0-0.3c0-0.7,0.2-1.3,0.2-2c0-0.4,0.1-1-0.2-1.4c-0.3-0.4-1,0-1.2,0.2c0,0-0.1,0.1-0.1,0.1c0-0.2-0.1-0.5-0.3-0.7
						c-0.2-0.2-0.6-0.1-0.8,0c-0.2,0.1-0.3,0.2-0.4,0.3c0-0.1,0-0.2,0-0.2c0-0.2,0-0.3-0.1-0.3c-0.2,0-0.3,0-0.4,0.1
						c-0.2,0.1-0.2,0.2-0.3,0.3c-0.1,0.1-0.2,0.1-0.4,0.1c-0.7-0.1-0.7-0.7-1.3-0.7c-1-0.1-1.4,1.1-1.5,2c0,0,0,0,0,0
						c-0.1,0.4-0.3,1-0.7,1.3c0.2-0.5,0.2-1,0.2-1.5c0-0.6-0.1-1.6-0.8-1.8c-0.4-0.2-0.8,0-1.1,0.2c0-0.3-0.1-0.8-0.1-0.9
						c0-0.1-0.2-0.1-0.3-0.1c-0.3,0.1-0.5,0.3-0.6,0.5c-0.1,0.2-0.1,0.6-0.5,0.5c-0.3,0-0.5-0.3-1-0.3c-1.1,0.3-1.3,1.5-1.3,2.5
						c0,0.7,0.1,2.2,1.1,2.1c0.5,0,0.9-0.6,1.1-1c0.2-0.5,0.3-1,0.3-1.5c0-0.3,0-0.7-0.1-1.2c0.2-0.1,0.4-0.2,0.5-0.4
						c0.1,0.3,0.1,0.7,0.1,1c0,0,0,0,0,0c0,0,0,0,0,0.1c0.1,0.8,0.1,1.5,0.1,2.3c0,1,0,2,0,3.1c0,0.2,0.3,0.2,0.4,0.1
						c0.2-0.1,0.4-0.3,0.4-0.6c0.1-0.7,0.1-1.5,0.1-2.2c0.9,0,1.7-0.6,2.1-1.1c0.1,0.6,0.3,1.2,0.9,1.3c0.5,0.1,1-0.4,1.2-0.8
						c0.3-0.5,0.4-1,0.4-1.5c0-0.2,0-0.5,0-0.8c0.2,0,0.4-0.1,0.6-0.2c-0.1,1.1-0.2,2.2-0.2,3.3c0,0.5,0.9,0,0.9-0.3
						c0.1-1,0.2-2.1,0.7-3c0.2,0.2,0.1,1.2,0.1,1.7c0,0.3-0.1,0.6-0.1,0.9c0,0.3-0.1,0.5-0.1,0.8c0,0.5,0.8,0,0.9-0.3
						c0-0.3,0.1-0.5,0.1-0.8c0.1-0.5,0.3-2,0.7-2.1c0.2,0.1,0.1,1,0,1.3c0,0.6-0.2,1.3-0.1,1.9c0.1,1,1.1,0.3,1.5-0.1
						c0.1-0.1,0.2-0.2,0.3-0.3c-0.1,0.3-0.1,0.6-0.2,0.9c-0.1,0.5,0.8,0.1,0.9-0.2c0.1-0.4,0.2-0.8,0.3-1.2c0.5,0.3,0,1.5,0.4,1.9
						c0.3,0.3,0.8,0.2,1.1,0.1c0.1,0,0.2-0.1,0.3-0.2c0,0.3,0.1,0.5,0.3,0.7c0.4,0.3,0.9,0.2,1.2,0c0,0,0.1,0,0.1-0.1
						c0,0.1,0,0.2,0,0.2c0.2,1,1.4,0.5,1.7,0C130.3,173.6,130.2,173.5,130,173.4z M111.7,170.8c0,0.1,0,0.2-0.1,0.3
						c-0.2,0-0.3-0.3-0.4-0.5c-0.2-0.3-0.2-0.7-0.2-1.1c0-0.4,0-0.8,0.1-1.2c0-0.1,0-0.2,0.1-0.3c0,0,0,0,0.1,0c0,0,0,0,0,0
						c0,0,0.1,0.1,0.1,0.1c0.3,0.3,0.4,1.2,0.4,1.4C111.8,170,111.8,170.4,111.7,170.8z M114.2,170.3c0-0.6,0-1.3-0.1-1.9
						c0-0.4,0.1-0.4,0.1-0.5c0.2,0,0.3,0.1,0.4,0.2c0.3,0.3,0.4,0.9,0.4,1.3c0,0.5-0.1,1.3-0.2,1.5
						C114.4,171,114.2,170.7,114.2,170.3z M117.8,170.8c0,0.1-0.1,0.2-0.1,0.3c-0.2-0.1-0.3-0.4-0.4-0.5c-0.1-0.4-0.1-0.7-0.1-1.1
						c0-0.4,0-0.8,0.2-1.1c0-0.1,0.1-0.2,0.1-0.3c0.5,0.2,0.5,1.3,0.5,1.6C117.9,170,117.9,170.4,117.8,170.8z M128.1,173.1
						c0,0-0.1,0-0.1-0.1c-0.2-0.1-0.2-0.4-0.2-0.6c-0.1-0.6,0.1-1.3,0.4-1.8c0.1-0.2,0.3-0.4,0.4-0.5c0,0,0.1,0,0.2,0
						c0.2,0.1,0.3,0.3,0.2,0.5c-0.2,0.8-0.3,1.6-0.7,2.3C128.2,173,128.1,173.1,128.1,173.1z"/>
					<path class="st4" d="M109.2,168.6c-0.2-0.1-0.4-0.1-0.6,0c0.1-0.4,0.3-0.8,0.4-1.3c0.1-0.6,0.4-1.5,0-2.1
						c-0.4-0.6-1.2,0-1.5,0.4c-0.5,0.7-0.5,1.5-0.5,2.3c0,0.9,0.1,1.7,0.3,2.6c-0.1,0.3-0.2,1-0.5,1.4c-0.2,0-0.3-0.4-0.3-0.6
						c-0.3-0.9-0.4-2-0.2-2.9c0-0.2-0.1-0.3-0.3-0.2c-0.2,0.1-0.5,0.4-0.5,0.6c0,0.2-0.1,0.8-0.4,0.9c-0.2,0.1-0.4,0.1-0.7,0
						c-0.3-0.1-0.8,0.1-1.1,0.4c-0.1-0.4-0.1-0.8-0.3-1.1c-0.1-0.2-0.4,0.1-0.5,0.2c-0.1,0.1-0.2,0.3-0.3,0.5c0,0.5,0.1,1.6-0.2,2.9
						c-0.1,0.2-0.3,0.7-0.6,0.8c-0.4,0.1-0.7-0.2-0.9-0.5c-0.6-0.9-0.8-2-0.8-3.1c0-0.4,0.1-1,0.3-1.3c0,0,0,0,0-0.1c0,0,0,0,0,0
						c0,0,0,0,0,0s0.4-0.1,0.6-0.1c0.4,0,0.5,0.5,0.6,0.8c0.1,0.5,0.9-0.4,0.8-0.7c-0.1-0.6-0.4-1.2-1.2-1.1c-0.5,0.1-1,0.4-1.3,0.9
						c-0.6,1-0.7,2.2-0.6,3.3c0.1,1,0.4,2.2,1.2,2.8c0.9,0.7,2-0.5,2.3-1.3c0.1-0.2,0.1-0.4,0.2-0.6c0.1,0.7,0.5,1.4,1.3,1.2
						c0.9-0.2,1.3-1.5,1.2-2.2c0-0.2-0.1-0.5-0.2-0.8c0.1-0.1,0.2-0.2,0.3-0.3c0,0.2,0,0.4,0.1,0.5c0.1,0.6,0.2,1.3,0.4,1.8
						c0.2,0.4,0.6,0.4,1,0.1c0.3-0.3,0.5-0.6,0.7-1c0.2,0.5,0.5,0.9,1,0.8c0.7-0.1,1.2-0.8,1.3-1.5
						C109.9,170.1,110,168.9,109.2,168.6z M104.5,172.1c0,0.1,0,0.1,0,0.2c0,0,0,0-0.1,0c-0.5,0.1-0.8-0.5-0.9-0.8c0,0,0-0.1,0-0.1
						c0,0,0,0,0,0c0-0.1,0-0.1,0-0.2c0-0.1,0-0.3,0-0.5c0,0,0-0.1,0-0.2c0,0,0,0,0.1,0c0.5-0.1,0.8,0.5,0.9,0.8
						C104.5,171.6,104.5,171.9,104.5,172.1z M107.8,167.6c0-0.6,0.2-1.8,0.2-1.8s0,0,0,0c0,0,0,0,0,0c0.2,0,0.2,0.3,0.3,0.4
						c0.1,0.6-0.1,1.3-0.2,1.9c-0.1,0.2-0.1,0.5-0.2,0.7C107.8,168.5,107.8,168,107.8,167.6z M109,171.3
						C109,171.3,109,171.4,109,171.3C108.9,171.4,108.9,171.4,109,171.3c-0.3,0-0.4-0.2-0.5-0.4c-0.2-0.3-0.3-0.6-0.4-1
						c0.1-0.2,0.1-0.3,0.2-0.5c0,0,0,0,0-0.1c0,0,0,0,0,0c0.1,0,0.2,0,0.3,0.1c0.3,0.2,0.3,0.6,0.3,0.9C109,170.7,109,171,109,171.3
						z"/>
				</g>
			</g>
		</g>
		<g>
			<path class="st4" d="M94.5,186c-0.7,0.1-1,0.9-1,1.5c-0.1,0.5-0.1,1.7,0.7,1.8c0.8,0.1,1.1-0.9,1.1-1.5
				C95.3,187.3,95.3,186.1,94.5,186c-0.2,0-0.6,0.6-0.4,0.6c0.4,0,0.5,0.6,0.5,0.9c0,0.2,0,0.5,0,0.8c0,0.1,0,0.2-0.1,0.3
				c0,0.1-0.1,0.3,0,0.2c-0.4,0.2-0.5-0.7-0.5-0.9c0-0.2,0-0.5,0-0.8c0-0.1,0-0.3,0.1-0.4c0-0.1,0.1-0.1,0-0.1
				C94.4,186.6,94.8,186,94.5,186z"/>
			<path class="st4" d="M97.9,186c-0.7,0.1-1,0.9-1,1.5c-0.1,0.5-0.1,1.7,0.7,1.8c0.8,0.1,1.1-0.9,1.1-1.5
				C98.6,187.3,98.6,186.1,97.9,186c-0.2,0-0.6,0.6-0.4,0.6c0.4,0,0.5,0.6,0.5,0.9c0,0.2,0,0.5,0,0.8c0,0.1,0,0.2-0.1,0.3
				c0,0.1-0.1,0.3,0,0.2c-0.4,0.2-0.5-0.7-0.5-0.9c0-0.2,0-0.5,0-0.8c0-0.1,0-0.3,0.1-0.4c0-0.1,0.1-0.1,0-0.1
				C97.8,186.6,98.2,186,97.9,186z"/>
			<path class="st4" d="M98.9,188.7c0.4,1.3,2.4,0.4,2.1-0.8c-0.2-0.6-0.8-0.5-1.3-0.7c-0.3-0.1-0.3-0.3-0.3-0.5
				c0.1-0.3,0.1-0.3-0.1-0.1c0.1,0,0.1,0,0.2-0.1c0.4-0.1,0.9-0.1,1.2,0.1c0.2,0.1,0.6-0.4,0.4-0.5c-0.5-0.2-1.1-0.2-1.6-0.1
				c-0.5,0.1-0.6,0.6-0.6,1c0,0.6,0.5,0.6,1,0.7c0.3,0.1,0.6,0.1,0.7,0.5c0.1,0.6-0.6,0.5-0.9,0.4c-0.1-0.1-0.2-0.3-0.3-0.4
				C99.3,188.1,98.8,188.5,98.9,188.7L98.9,188.7z"/>
			<path class="st4" d="M95.8,189.9c0.3-0.2,0.4-0.6,0.5-0.9c0-0.1,0-0.2-0.1-0.3c-0.1-0.1-0.3,0-0.5,0c-0.1,0.1-0.3,0.2-0.3,0.4
				c0,0.2,0.2,0.1,0.3,0.1c0,0,0,0,0,0c0,0,0,0,0,0c0,0,0,0.1,0,0.1c0,0.1,0,0.1-0.1,0.2c0,0,0,0,0,0.1c0,0,0,0,0,0c0,0,0,0,0,0
				c0.1-0.1,0,0,0,0c-0.1,0.1-0.2,0.3-0.1,0.4C95.5,190.2,95.7,190,95.8,189.9L95.8,189.9z"/>
		</g>
		<g>
			<path class="st9" d="M90.5,161.5c-0.1,0-0.2-0.2-0.3-0.2c-0.4-0.2-0.7,0.1-1.1,0.1c-0.9,0-1.3,0-2.4-0.3c0-1,0.6-1.6,0.8-2.4
				c0.2-0.7-0.1-1.5-0.1-2.3c0-0.5,0-0.9,0-1.4c-0.3,0.3-0.2,1.2-0.2,1.6c-0.1-0.6-0.1-1.4-0.3-1.9c-0.1,0.6,0,1.3,0,1.9
				c-0.2-0.5-0.2-1.2-0.4-1.6c-0.3,0.5,0.2,1.3,0.1,1.8c-0.2-0.5-0.3-1-0.5-1.5c-0.1,0.6,0.2,1.2,0.2,1.6c-0.2-0.4-0.3-0.8-0.6-1.1
				c0,0.4,0.3,0.9,0.4,1.3c-0.3-0.1-0.4-0.5-0.6-0.6c0,0.3,0.3,0.5,0.4,0.8c-0.2-0.1-0.3-0.3-0.5-0.4c0,0.3,0.3,0.4,0.3,0.6
				c-0.1-0.1-0.3-0.2-0.4-0.3c0,0.2,0.3,0.4,0.3,0.5c0,0-0.2-0.1-0.2,0c0,0,0.2,0.1,0.1,0.2c-0.1,0-0.1,0-0.2,0
				c0,0.2,0.2,0.1,0.1,0.3c-0.1,0-0.1-0.1-0.1,0c0,0.1,0.1,0.1,0.1,0.2c-0.8,0.8-0.4,1.8-0.5,2.8c0.1-0.1-0.7-0.3-1.2-0.5
				c-0.3-0.1-0.4-0.5-0.6-0.6c0-0.1,0.1,0,0.1-0.1c-0.1,0-0.2-0.1-0.2-0.2c0.1,0,0.3,0.1,0.3,0c-0.1-0.1-0.5-0.2-0.5-0.3
				c0.2,0,0.4,0.1,0.5,0.1c-0.2-0.1-0.6-0.3-0.6-0.5c0.2,0.1,0.5,0.3,0.7,0.2c-0.3-0.2-0.8-0.4-0.9-0.7c0.3,0.1,0.6,0.4,0.8,0.4
				c-0.4-0.1-0.7-0.6-1.1-0.6c0.2,0.4,0.8,0.6,0.9,0.8c-0.3-0.2-0.6-0.3-1-0.5c0.1,0.4,0.6,0.5,0.9,0.8c-0.3,0-0.5-0.2-0.8-0.2
				c0.1,0.3,0.6,0.2,0.7,0.5c-0.1-0.1-0.3,0-0.5,0c0,0.2,0.4,0.2,0.5,0.3c-0.2,0-0.3,0-0.4,0.1c0.1,0.1,0.3,0.1,0.4,0.2
				c-0.1,0-0.2,0-0.2,0.1c0,0.1,0.3,0,0.3,0.1c-0.1,0-0.1,0.1-0.1,0.1c0.1,0,0.2,0,0.2,0c-0.1,0-0.1,0-0.1,0.1
				c0.4,0.2,0.7,0.9,1.3,1.2c-0.3,0.2,0.3,0.4-3.5,1.8c0.1,0,1.7-0.4,2.2-0.5c0.5-0.2,0.9-0.3,1.4-0.4c0.1,0,0.2-0.1,0.3-0.1
				c0.8-0.1,1.5,0.1,2.3-0.4c-0.6,0.1-1.6,0.2-2-0.1c0.5-0.8,0.2-2.9,0.6-3.3c0.4-0.4,1.1-1.7,1.9-0.6c0.1,0.2,0.2,0.4-0.1,0.9
				c-0.4,0.6-0.6,0.8-0.5,2.1c0,0.3,0,0.5-0.4,0.5c1.7,0.4,2.2,0.2,3.1,0c0.3,0,0.8-0.3,0.8,0c0,0.1-0.3,0.1-0.6,0.1
				c-0.5,0,0.2,0.2,0.4,0.2c0.1,0,1-0.1,1.5-0.2C91,161.6,90.8,161.6,90.5,161.5z"/>
			<path class="st9" d="M85.6,152.9c-3.8,0-6.9,3.1-6.9,6.9c0,3.8,3.1,6.9,6.9,6.9c3.8,0,6.9-3.1,6.9-6.9
				C92.5,156,89.4,152.9,85.6,152.9 M85.6,153.2c3.7,0,6.7,3,6.7,6.7c0,3.7-3,6.7-6.7,6.7c-3.7,0-6.7-3-6.7-6.7
				C78.9,156.2,81.9,153.2,85.6,153.2"/>
		</g>
		<g>
			<g>
				<path class="st4" d="M109.2,180.6c0.4-0.2,1.7-1.1,1-1.6c-0.4-0.3-0.9,0.4-1.1,0.6c-0.2,0.4-0.6,1.1-0.2,1.5
					c0.2,0.2,0.5,0.1,0.8,0.1c0.5-0.1,0.9-0.3,1.2-0.6c0.3-0.3-0.3-0.2-0.4-0.1c-0.2,0.2-0.7,0.6-1,0.4c-0.2-0.2-0.1-0.7,0-0.9
					c0.1-0.1,0.1-0.3,0.2-0.4c0-0.1,0.1-0.1,0.1-0.2c0,0,0.1-0.1,0.1-0.1c0,0,0,0,0,0c0.5,0.2-0.7,1-0.8,1.1
					C108.6,180.6,109,180.8,109.2,180.6L109.2,180.6z"/>
				<g>
					<path class="st4" d="M110.3,181.1c-0.1,0.5,0.5,0.8,1,0.6c0.5-0.2,0.6-0.7,0.7-1.1c0.1-0.3,0.1-0.9-0.2-1.1
						c-0.1-0.1-0.4,0-0.6,0c-0.3,0.1-0.5,0.4-0.6,0.7c-0.1,0.2,0.5,0.1,0.5-0.1c0.1-0.3,0.2-0.3,0.3,0c0,0.2,0,0.4,0,0.6
						c0,0.2-0.1,0.5-0.2,0.6c0,0.1-0.1,0.1-0.2,0.2c0,0,0,0-0.1,0c-0.2-0.1-0.2-0.2-0.2-0.3C110.9,180.8,110.3,181,110.3,181.1
						L110.3,181.1z"/>
					<path class="st4" d="M110.7,179.1c-0.2,1.3-0.6,2.6-1.1,3.8c-0.1,0.2,0.6,0.1,0.6-0.1c0.5-1.2,0.8-2.6,1-3.9
						C111.3,178.8,110.7,179,110.7,179.1L110.7,179.1z"/>
				</g>
				<path class="st4" d="M122.9,179.4c0.2,0.2,0.5,0.5,0.8,0.2c0.2-0.2,0.2-0.5,0.2-0.8c-0.1-0.3-0.2-0.6-0.4-0.9
					c-0.1-0.2-0.3-0.5-0.4-0.8c-0.1,0.1-0.2,0.2-0.3,0.3c0.2,0.7,0.9,1.1,1.4,1.6c0.2,0.2,0.4-0.4,0.3-0.5c-0.4-0.5-0.6-1.2-0.8-1.8
					c-0.1,0.1-0.2,0.2-0.3,0.4c0.2,0.4,1.4,2.3,1.9,1.1c0.1-0.2,0-0.7-0.2-0.3c-0.1,0.2-0.7-0.3-0.8-0.4c-0.2-0.2-0.5-0.5-0.6-0.9
					c-0.1-0.3-0.3,0.2-0.3,0.4c0.2,0.7,0.4,1.5,0.8,2.1c0.1-0.2,0.2-0.4,0.3-0.5c-0.2-0.3-0.5-0.5-0.8-0.7c-0.2-0.2-0.5-0.5-0.6-0.8
					c-0.1-0.3-0.3,0.2-0.3,0.3c0,0.4,0.3,0.7,0.4,1c0.1,0.2,0.2,0.4,0.3,0.7c0,0,0,0.1,0,0.1c0.1-0.1,0.1-0.1-0.1-0.1
					c-0.1,0-0.2-0.2-0.3-0.3C123,178.7,122.8,179.2,122.9,179.4L122.9,179.4z"/>
				<path class="st4" d="M118,179.7c0.2,0.7,0.4,1.3,0.6,2c0,0.3,0.5-0.2,0.5-0.4c-0.1-0.4,0-0.6,0.2-1c0.2-0.4,0.2-0.8,0.2-1.2
					c0-0.3-0.4,0.1-0.4,0.3c0,0.4,0.1,0.8,0.2,1.1c0.1,0.3,0.2,0.7,0.4,0.9c0.2,0.2,0.6-0.2,0.7-0.4c0.2-0.4,0.3-0.9,0.2-1.3
					c-0.1-0.2-0.4,0.2-0.3,0.4c0.1,0.3,0,0.6-0.2,0.9c0,0-0.3-0.3-0.3-0.4c-0.2-0.4-0.4-1-0.4-1.5c-0.1,0.1-0.2,0.2-0.4,0.3
					c0,0.4,0,0.7-0.3,1.1c-0.2,0.4-0.2,0.8-0.2,1.2c0.2-0.1,0.3-0.2,0.5-0.4c-0.1-0.7-0.4-1.3-0.6-2
					C118.3,179.1,118,179.5,118,179.7L118,179.7z"/>
				<path class="st4" d="M112.3,179.8c-0.1,0.7-0.1,1.4-0.3,2.1c-0.1,0.3,0.5,0,0.5-0.2c0.1-0.4,0.2-0.6,0.5-0.8
					c0.3-0.3,0.5-0.7,0.6-1.1c0.1-0.3-0.4-0.1-0.4,0.1c-0.2,0.4-0.2,0.7-0.3,1.1c0,0.3-0.1,0.7,0,1c0.1,0.2,0.4,0.1,0.6,0.1
					c0.5-0.1,0.7-0.5,0.9-0.9c0.2-0.3-0.3-0.2-0.4,0c-0.1,0.2-0.2,0.5-0.5,0.5c-0.1,0-0.1-0.3-0.1-0.4c0-0.5,0-1.1,0.2-1.5
					c-0.1,0-0.3,0.1-0.4,0.1c-0.1,0.4-0.3,0.7-0.7,0.9c-0.3,0.3-0.5,0.6-0.6,1c0.2,0,0.4-0.1,0.5-0.2c0.1-0.7,0.2-1.4,0.2-2.1
					C112.8,179.4,112.4,179.7,112.3,179.8L112.3,179.8z"/>
				<path class="st4" d="M116.1,181.6c-0.2,0.3-0.4-0.7-0.4-0.7c-0.1-0.4-0.1-0.8-0.1-1.2c0-0.3-0.4,0.1-0.4,0.3c0,0.3,0,0.7,0,1
					c0,0.2,0,0.4-0.1,0.5c0,0.2,0,0.3-0.2,0.1c-0.5-0.3-0.2-1.4-0.1-1.8c0.1-0.3-0.4,0-0.4,0.1c-0.1,0.4-0.5,2.3,0.4,2.2
					c1.1-0.1,0.8-1.8,0.8-2.5c-0.1,0.1-0.3,0.2-0.4,0.3c0,0.6,0,1.3,0.2,1.8c0.2,0.5,0.7,0.3,1,0
					C116.6,181.5,116.3,181.4,116.1,181.6L116.1,181.6z"/>
				<g>
					<path class="st4" d="M121.4,178.3c0.1,0.6,0.4,1.1,0.7,1.6c0.1,0.1,0.2,0.3,0.4,0.3c0.3,0,0.5-0.4,0.5-0.6
						c0.1-0.3-0.2-0.4-0.3-0.1c-0.1,0.3-0.5-0.4-0.6-0.5c-0.2-0.3-0.4-0.7-0.5-1.1C121.6,177.6,121.3,178.1,121.4,178.3L121.4,178.3
						z"/>
					<path class="st4" d="M120.6,180.4c0.2-0.2,0.5-0.5,0.7-0.3c0.2,0.2-0.1,0.2-0.3,0.2c-0.5-0.2-0.7-1.2-0.7-1.7
						c-0.1-0.3-0.4,0.1-0.3,0.3c0.1,0.5,0.5,2.7,1.5,1.8c0.3-0.3,0.4-0.7,0.2-1c-0.3-0.5-0.8,0-1.1,0.3c-0.1,0.1-0.2,0.2-0.2,0.4
						C120.4,180.4,120.5,180.5,120.6,180.4L120.6,180.4z"/>
				</g>
				<path class="st4" d="M118,181.4c-0.5,0.1-0.4-1.6-0.4-1.9c0-0.2-0.4,0.1-0.4,0.3c0,0.1,0,0.2-0.1,0.4c-0.1,0.2-0.2,0.1-0.3,0
					c-0.1-0.1-0.1-0.3-0.1-0.5c0-0.3-0.3,0-0.4,0.1c-0.1,0.1-0.2,0.3-0.3,0.4c-0.2,0.3,0.2,0.3,0.3,0c0.1-0.1,0.2-0.3,0.3-0.4
					c-0.1,0-0.2,0.1-0.4,0.1c-0.1,0.4,0.1,1.1,0.7,0.8c0.4-0.2,0.5-0.7,0.5-1.1c-0.1,0.1-0.3,0.2-0.4,0.3c0,0.4-0.2,2.1,0.5,2.1
					C117.9,181.9,118.2,181.4,118,181.4L118,181.4z"/>
				<path class="st4" d="M117.8,181.9c0.2-0.1,0.4-0.3,0.6-0.4c0.2-0.2,0.4-0.5,0.6-0.7c0-0.1,0.1-0.3,0-0.3
					c-0.1-0.1-0.3,0.1-0.3,0.2c-0.1,0.2-0.2,0.3-0.4,0.5c-0.1,0.1-0.2,0.2-0.2,0.2c0,0-0.1,0.1-0.1,0.1c-0.2,0-0.3,0.2-0.3,0.3
					C117.6,181.8,117.6,181.9,117.8,181.9L117.8,181.9z"/>
				<path class="st4" d="M108.2,180.4c-0.4-0.2,0.6-1.5,0.8-1.8c0.1-0.2-0.3-0.1-0.4,0c-0.1,0.1-0.2,0.2-0.3,0.3
					c-0.1,0.1-0.2-0.1-0.2-0.2c0-0.2,0.1-0.3,0.2-0.4c0.2-0.2-0.2-0.2-0.3-0.1c-0.1,0.1-0.3,0.1-0.4,0.2c-0.3,0.1,0,0.3,0.2,0.2
					c0.1-0.1,0.3-0.1,0.4-0.2c-0.1,0-0.2-0.1-0.3-0.1c-0.3,0.3-0.6,1,0,1c0.4,0,0.7-0.3,1-0.6c-0.1,0-0.3,0-0.4,0
					c-0.2,0.3-1.3,1.6-0.8,2C107.9,180.7,108.4,180.5,108.2,180.4L108.2,180.4z"/>
				<path class="st4" d="M107.8,180.6c0.2,0.1,0.4,0,0.6,0c0.2,0,0.5-0.1,0.7-0.2c0.1,0,0.3-0.1,0.2-0.2c0-0.1-0.2-0.1-0.3,0
					c-0.1,0.1-0.3,0.1-0.5,0.2c-0.1,0-0.2,0.1-0.3,0c-0.1,0-0.3,0-0.4,0.1C107.8,180.5,107.7,180.6,107.8,180.6L107.8,180.6z"/>
				<path class="st4" d="M111.2,179.7c0.4,0.3,1.1,0.3,1.5,0.1c0.2-0.1,0.2-0.4,0-0.2c-0.2,0.1-0.8,0.1-1-0.1
					C111.5,179.4,111.1,179.6,111.2,179.7L111.2,179.7z"/>
				<path class="st4" d="M106.5,177.4c0.1-0.3,0.2-0.7-0.3-0.8c-0.5-0.1-0.9,0.2-1.2,0.5c-0.3,0.3-0.6,0.7-0.5,1.1
					c0.2,0.5,0.7,0.6,1.1,0.6c0.4,0,0.3-0.3-0.1-0.3c-0.6,0-0.4-0.8-0.2-1c0.1-0.2,0.3-0.3,0.4-0.5c0.1,0,0.1-0.1,0.2-0.1
					c0.2-0.1,0.2-0.1,0.1,0c0,0.1,0,0.3-0.1,0.4C105.9,177.5,106.4,177.6,106.5,177.4L106.5,177.4z"/>
			</g>
		</g>
		<g>
			<g>
				<path class="st4" d="M116.9,185.3c0.1,0.2,0.3,0.6,0.6,0.4c0.2-0.1,0.3-0.4,0.4-0.6c0-0.3,0-0.6,0-1c0-0.3-0.1-0.6-0.1-0.9
					c-0.1,0.1-0.2,0.1-0.3,0.2c0,0.7,0.4,1.4,0.6,2c0.1,0.3,0.4-0.2,0.4-0.4c-0.1-0.6-0.2-1.3-0.1-1.9c-0.1,0.1-0.2,0.1-0.3,0.2
					c0,0.4,0.4,2.6,1.2,1.7c0.2-0.2,0.2-0.6-0.1-0.4c-0.2,0.2-0.5-0.5-0.5-0.6c-0.1-0.3-0.3-0.7-0.3-1c0-0.3-0.3,0.1-0.3,0.2
					c-0.1,0.7-0.1,1.5,0,2.2c0.1-0.1,0.3-0.2,0.4-0.4c-0.1-0.3-0.3-0.6-0.4-0.9c-0.1-0.3-0.3-0.6-0.3-1c0-0.3-0.3,0.1-0.3,0.2
					c-0.1,0.3,0,0.7,0,1.1c0,0.2,0,0.5,0,0.7c0,0,0,0.1,0,0.1c0.1-0.1,0.1-0.1,0-0.1c-0.1-0.1-0.1-0.3-0.2-0.4
					C117.2,184.8,116.8,185.2,116.9,185.3L116.9,185.3z"/>
				<path class="st4" d="M111.9,183.7c0-0.5-0.2-0.8-0.7-0.5c-0.5,0.3-0.7,0.9-0.8,1.4c-0.3,1.3,1.5,0.9,1.9,0.3
					c0.1-0.1,0-0.2-0.1-0.2c-0.1,0-0.2,0.1-0.3,0.2c-0.3,0.5-0.9,0.2-0.9-0.4c0-0.2,0.1-0.5,0.2-0.7c0.1-0.2,0.1-0.3,0.3-0.4
					c-0.1,0.1,0,0.4,0,0.5C111.4,184.1,111.9,183.9,111.9,183.7L111.9,183.7z"/>
				<path class="st4" d="M113,183.4c-0.5,0-0.8,0.5-0.9,1c-0.1,0.4-0.3,1.3,0.2,1.4c0.6,0.2,1-0.6,1.1-1
					C113.5,184.5,113.6,183.6,113,183.4c-0.1,0-0.5,0.3-0.3,0.4c0.3,0.1,0.3,0.5,0.3,0.7c0,0.2,0,0.4-0.1,0.6c0,0.1,0,0.1-0.1,0.2
					c0,0.1-0.1,0.2-0.1,0.1c-0.3,0.1-0.3-0.6-0.3-0.7c0-0.2,0.1-0.4,0.1-0.6c0-0.1,0.1-0.2,0.1-0.3c0-0.1,0.1-0.1,0-0.1
					C112.9,183.8,113.3,183.5,113,183.4z"/>
				<path class="st4" d="M116,183.5c-0.5,0.1-0.6,0.8-0.7,1.2c0,0.4,0,1.3,0.6,1.3c0.7,0,0.8-0.8,0.8-1.2
					C116.7,184.4,116.6,183.5,116,183.5c-0.1,0-0.4,0.5-0.2,0.5c0.3,0,0.4,0.4,0.5,0.6c0.1,0.2,0.1,0.4,0.1,0.6c0,0.1,0,0.2,0,0.2
					c0,0.1-0.1,0.2,0,0.2c-0.3,0.2-0.5-0.5-0.5-0.6c0-0.2,0-0.4,0-0.6c0-0.1,0-0.2,0-0.3c0-0.1,0.1-0.1,0-0.1
					C116,183.9,116.3,183.5,116,183.5z"/>
				<path class="st4" d="M113.8,183.6c0.1,0.8-0.1,1.6-0.1,2.4c0,0.3,0.5,0,0.5-0.2c0.1-0.4,0.1-0.7,0.2-1.1
					c0.1-0.2,0.1-0.8,0.4-0.5c0.1-0.1,0.2-0.3,0.3-0.4c-0.7-0.5-1.1,0.8-1.2,1.3c0,0.1,0.1,0.1,0.2,0.1c0.5-0.2,0.2,0.7,0.5,0.9
					c0.3,0.2,0.8-0.3,1-0.5c0.3-0.2,0-0.4-0.2-0.2c-0.3,0.2-0.4,0.3-0.5,0c0-0.2,0-0.3-0.1-0.5c-0.1-0.3-0.4-0.2-0.6-0.1
					c0.1,0,0.1,0,0.2,0.1c0-0.2,0.1-0.9,0.4-0.7c0.1,0.1,0.5-0.3,0.3-0.4c-0.9-0.7-1.3,1.7-1.4,2.2c0.2-0.1,0.3-0.1,0.5-0.2
					c0.1-0.8,0.2-1.7,0.1-2.5C114.2,183.1,113.8,183.4,113.8,183.6L113.8,183.6z"/>
				<path class="st4" d="M112.9,183.8c0.3,0.3,0.9,0.2,1.2,0c0.2-0.1,0.2-0.4,0-0.2c-0.2,0.1-0.6,0.1-0.8,0
					C113.1,183.4,112.8,183.7,112.9,183.8L112.9,183.8z"/>
			</g>
		</g>
	</g>
</g>
<g id="butylka_1">
</g>
<g id="vanna_2">
</g>
<g id="sneg">
</g>
<g id="vigimka">
</g>
<g id="vanna_1">
</g>
<g id="zakvaska">
</g>
<g id="shariki_2">
</g>
<g id="shariki_1">
</g>
<g id="voronka">
</g>
<g id="gradusnik">
</g>
<g id="kolba_2">
</g>
<g id="kolba_1">
</g>
<g id="probirki">
</g>
<g id="lupa">
</g>
<g id="bidon">
</g>
<g id="blank">
</g>
<g id="ticks">
</g>
<g id="clock">
</g>
</svg>
