<?xml version="1.0" encoding="utf-8"?>
<!-- Generator: Adobe Illustrator 19.0.0, SVG Export Plug-In . SVG Version: 6.00 Build 0)  -->
<svg version="1.1" xmlns="http://www.w3.org/2000/svg" xmlns:xlink="http://www.w3.org/1999/xlink" x="0px" y="0px"
	 viewBox="81 -21 291.2 292" style="enable-background:new 81 -21 291.2 292;" xml:space="preserve">
<style type="text/css">
	.st0{fill:#519E38;}
	.st1{fill:#DCBCED;}
	.st2{fill:#FFCFD8;}
	.st3{fill:none;stroke:#FFFFFF;stroke-width:4;stroke-miterlimit:10;}
	.st4{fill:#EFEFEF;}
	.st5{fill:#FFFFFF;}
	.st6{fill:#712F8F;}
	.st7{fill:#F4F4F4;}
	.st8{fill:#8F42B7;}
	.st9{fill:#267918;}
	.st10{fill:#483290;}
	.st11{fill:#DA1B51;}
	.st12{fill:#FFB0BF;}
	.st13{fill:#F1788A;}
</style>
<g id="bath">
	<g id="Layer_2">
	</g>
	<g id="kolba_4">
	</g>
	<g id="kolba_3">
	</g>
	<g id="kolby">
	</g>
	<g id="doma">
	</g>
	<g id="car">
	</g>
	<g id="butylka_3">
	</g>
	<path class="st0" d="M323.5,115.1c0-2.2-1.8-4-4-4h-183c-2.2,0-4,1.8-4,4s1.8,4,4,4v103.8h5.3V119.1h172.7l-0.3,16.7l-1.4,70.8
		l-7,18.8c0,0-166.2-2.8-166.2,2.7s5,5.8,5,5.8h167.2c9,0,7.7-11.2,7.7-11.2l0.1-103.5C321.8,119.1,323.5,117.3,323.5,115.1z"/>
	<rect x="137.9" y="165.9" class="st1" width="86.7" height="60.1"/>
	<rect x="224.5" y="165.9" class="st2" width="88.5" height="60.1"/>
	<path class="st3" d="M314.5,224.4c0,2-1.6,3.7-3.7,3.7H140.2c-2,0-3.7-1.6-3.7-3.7V117.8c0-2,1.6-3.7,3.7-3.7h170.6
		c2,0,3.7,1.6,3.7,3.7V224.4z"/>
	<path class="st4" d="M320.5,112.1c0,2.2-1.8,4-4,4h-183c-2.2,0-4-1.8-4-4l0,0c0-2.2,1.8-4,4-4h183
		C318.8,108.1,320.5,109.9,320.5,112.1L320.5,112.1z"/>
	<path class="st5" d="M153.4,152.7c0,1.7-1.4,3.1-3.1,3.1l0,0c-1.7,0-3.1-1.4-3.1-3.1v-22.8c0-1.7,1.4-3.1,3.1-3.1l0,0
		c1.7,0,3.1,1.4,3.1,3.1V152.7z"/>
	<rect x="223.5" y="116.1" class="st5" width="1" height="112"/>
	<g id="butylka_1">
	</g>
	<g id="vanna_2">
	</g>
	<g id="sneg">
	</g>
	<g id="vigimka">
	</g>
	<g id="vanna_1">
	</g>
	<g id="zakvaska">
	</g>
	<g id="shariki_2">
	</g>
	<g id="shariki_1">
	</g>
	<g id="voronka">
	</g>
	<g id="gradusnik">
	</g>
	<g id="kolba_2">
	</g>
	<g id="kolba_1">
	</g>
	<g id="probirki">
	</g>
	<g id="lupa">
	</g>
	<g id="bidon">
	</g>
	<g id="blank">
	</g>
	<g id="ticks">
	</g>
</g>
<g id="chernika_juice_bottle">
	<path class="st0" d="M212.4,51.5c0,0-16.8-10.8-26-16.6c-9.2-5.9-15.1-4.3-15.1-4.3c-5-4.6-8.5-3-8.5-3l-2-1.3l0.4-0.6
		c0,0-2.2-1.4-2.9-1.9c-0.7-0.5-1.3,0.6-1.3,0.6l-2.4,3.7l-0.2,0.3l-2.4,3.8c0,0-0.7,1,0,1.4c0.7,0.5,2.9,1.9,2.9,1.9l0.4-0.6l2,1.3
		l0,0c0,0,0,3.8,6.3,6.4c0,0,1.1,6,10.2,11.9c9.2,5.9,26,16.6,26,16.6s5.3,4,8-0.2c0.7-1.1,1.3-2,1.8-2.8c1.4-2.1,2-3.1,2-3.1
		l0.1-0.2l0.1-0.2l0,0l2-3.1l0,0c0.5-0.8,1.1-1.7,1.8-2.8l0,0C218.3,54.7,212.4,51.5,212.4,51.5z"/>
	<path class="st6" d="M188.4,31.1c-4.1-2.8-12.1-7.5-17.9-6c0,0-4-4.6-8.8-3.3l-2.5-1.6l-1.8,2.9l-0.5,0.8l-1.8,2.9l2.5,1.6
		c0.8,4.9,6.7,6.6,6.7,6.6c1.2,6.4,10.1,12.1,14,14.3c9,5.8,20.3,13,20.3,13s5.3,3.9,7.6,0.2c0.6-1,1.2-1.8,1.6-2.5
		c1.2-1.9,1.7-2.7,1.7-2.7l0.2-0.4l1.7-2.7c0.4-0.7,1-1.5,1.6-2.5c2.3-3.7-3.4-6.8-3.4-6.8S197.6,37,188.4,31.1z"/>
	<g>
		<path class="st7" d="M160.1,19.4l2.1,1.3c0,0,0.6-0.3,1.6-0.3c1.5,0,3.9,0.6,6.8,3.3c0,0,0.7-0.2,2.1-0.2c2.5,0,7.1,0.7,13,4.5
			c9.2,5.9,26,16.6,26,16.6s5.8,3.2,3.2,7.3c-0.7,1.1-1.3,2-1.8,2.8l-2,3.1l-0.3,0.4c0,0-0.6,1-2,3.1c-0.5,0.8-1.1,1.7-1.8,2.8
			c-0.9,1.4-2.1,1.9-3.3,1.9c-2.3,0-4.6-1.7-4.6-1.7s-16.8-10.8-26-16.6C164,41.8,163,35.8,163,35.8c-6.3-2.6-6.3-6.4-6.3-6.4l0,0
			l-2.1-1.4L160.1,19.4 M159.8,18l-0.5,0.8l-5.5,8.6l-0.5,0.8l0.8,0.5l1.7,1.1c0.2,1.2,1.3,4.3,6.4,6.6c0.5,1.7,2.6,6.9,10.5,12
			l26,16.6c0.3,0.2,2.7,1.9,5.2,1.9c1.8,0,3.2-0.8,4.2-2.3l1.3-2.1l0.5-0.7l2-3.1l0.3-0.4l2-3.1l0.4-0.6l1.4-2.2
			c0.8-1.2,1-2.5,0.7-3.9c-0.7-2.8-3.8-4.6-4.2-4.8l-26-16.6c-6-3.8-10.7-4.6-13.6-4.6c-0.8,0-1.4,0.1-1.8,0.1
			c-3-2.6-5.5-3.2-7.1-3.2c-0.6,0-1.1,0.1-1.5,0.2l-1.7-1.1L159.8,18L159.8,18z"/>
	</g>
	<g>
		<path class="st7" d="M149.8,26.4c-0.3-0.2-0.5-0.5-0.5-0.8c-0.1-0.7,0.3-1.3,0.4-1.4l5-7.8c0-0.1,0.5-0.9,1.3-0.9
			c0.2,0,0.4,0.1,0.6,0.2l3.3,2.1l-6.8,10.7L149.8,26.4z"/>
		<path class="st7" d="M155.9,16c0.1,0,0.2,0,0.4,0.1c0.7,0.5,2.9,1.9,2.9,1.9l-3,4.7l-0.2,0.4l-3,4.7c0,0-2.2-1.4-2.9-1.9
			c-0.7-0.5,0-1.4,0-1.4l2.4-3.7l0.2-0.3l2.4-3.7C155,16.7,155.4,16,155.9,16 M155.9,15c-1,0-1.6,0.9-1.8,1.2l-2.4,3.7l-0.2,0.3
			l-2.3,3.8c-0.2,0.2-0.6,0.9-0.5,1.7c0.1,0.5,0.4,0.8,0.8,1.1l2.9,1.9l0.8,0.5l0.5-0.8l3-4.7l0.2-0.3l3-4.7l0.5-0.8l-0.8-0.5
			l-2.9-1.9C156.5,15.1,156.2,15,155.9,15L155.9,15z"/>
	</g>
	<path class="st1" d="M173.2,42.6L173.2,42.6c-0.5,0.7-1.3,0.9-1.9,0.5c-3.7-2.5-5.2-5.6-5.3-5.8c-0.3-0.6,0-1.4,0.6-1.7
		s1.4,0,1.7,0.6c0,0,1.3,2.6,4.4,4.7C173.3,41.3,173.5,42,173.2,42.6z"/>
	<circle class="st8" cx="190.7" cy="51" r="0.7"/>
	<circle class="st8" cx="199.2" cy="55.3" r="0.7"/>
	<circle class="st8" cx="192.8" cy="41.7" r="0.7"/>
	<circle class="st8" cx="198.1" cy="42" r="0.7"/>
	<circle class="st8" cx="203.7" cy="47.2" r="0.7"/>
	<circle class="st8" cx="200.3" cy="50" r="0.7"/>
	<circle class="st8" cx="203.7" cy="52.2" r="1.5"/>
	<circle class="st8" cx="164.2" cy="28.2" r="1.5"/>
	<circle class="st8" cx="175.5" cy="30" r="1.5"/>
	<circle class="st8" cx="170.2" cy="32.3" r="1.5"/>
	<circle class="st8" cx="194.5" cy="48.9" r="1.7"/>
	<g>
		<circle class="st5" cx="184.3" cy="40.7" r="8.4"/>
		<g>
			<g>
				<path class="st9" d="M180.6,36.7c-1.3,0.3-1.1,1.2-0.3,1.8c2.3,1.5,2.9,0,3-0.1c0,0-0.4,0.2-0.8,0.1c-0.1,0-0.5,0.3-0.9,0.3
					h-0.2h0.2c0.2,0,0.5-0.1,0.8-0.3c-0.1,0-0.2-0.1-0.3-0.1c-0.1,0.1-0.5,0.4-0.9,0.3h-0.1h-0.2h0.3c0.2,0,0.5-0.1,0.8-0.4l0,0
					c-0.1-0.1-0.2-0.1-0.3-0.2c-0.1,0.1-0.4,0.4-0.9,0.4h-0.1h-0.1h0.2c0.2,0,0.6,0,0.8-0.4c-0.1-0.1-0.2-0.1-0.4-0.1l0,0
					c0,0-0.2,0.3-0.8,0.3c0,0,0,0-0.1,0h-0.1h0.2c0.2,0,0.6-0.1,0.7-0.3c-0.6-0.2-1.1-0.1-1.2-0.1h-0.1l0.1-0.1c0,0,0.3-0.1,0.6-0.1
					c-0.2-0.2-0.4-0.2-0.4-0.2H180l0.1-0.1c0.2,0,0.5,0.3,0.6,0.3c0.3,0,0.5,0.1,0.8,0.2c-0.1-0.7-0.6-0.8-0.6-0.8h-0.1h0.1
					c0.5,0.1,0.7,0.8,0.7,0.9l0,0l0,0c0.1,0,0.1,0.1,0.2,0.1c0.1-0.6-0.5-1.1-0.5-1.1l-0.1-0.1c0,0,0.1,0,0.3,0.2
					c0.4,0.5,0.4,1.1,0.4,1.1c0.1,0.1,0.2,0.2,0.4,0.2c0-0.2,0-0.8-0.3-1.2l0,0l0,0l0,0l-0.1-0.1L182,37c0.1,0.2,0.4,0.7,0.3,1.2
					c0.1,0,0.3,0.1,0.4,0.1v-0.1c0.1-0.4-0.2-0.8-0.4-1l-0.1-0.2l0.2,0.1c0.5,0.5,0.5,1,0.5,1.1l0,0c0.2,0,0.4-0.1,0.4-0.1V38
					C182.5,36.6,181.5,36.5,180.6,36.7z"/>
				<path class="st9" d="M183.2,34c-0.6-0.9-1.2-0.6-1.4,0.2c-0.6,2.1,0.8,2.3,0.9,2.3c0,0-0.3-0.2-0.3-0.6c-0.1,0-0.4-0.3-0.5-0.6
					v-0.2l0.1,0.1c0,0.1,0.2,0.3,0.5,0.5c0-0.1,0-0.2,0-0.2c-0.1,0-0.4-0.3-0.5-0.6v-0.1v-0.2l0.1,0.3c0.1,0.2,0.2,0.4,0.5,0.5l0,0
					c0-0.1,0.1-0.2,0.1-0.3c-0.1,0-0.4-0.2-0.5-0.6v-0.1v-0.1l0.1,0.2c0,0.1,0.2,0.5,0.5,0.5c0-0.1,0-0.2,0-0.3l0,0
					c0,0-0.3-0.1-0.5-0.6c0,0,0,0,0-0.1v-0.1v0.2c0.1,0.1,0.2,0.5,0.4,0.5c0-0.5-0.2-0.9-0.2-0.9l-0.1-0.1l0.1,0.1
					c0,0,0.1,0.2,0.2,0.5c0.1-0.2,0.1-0.4,0.1-0.4v-0.1l0.1,0.1c0.1,0.2-0.1,0.5-0.1,0.5c0.1,0.2,0.1,0.4,0.1,0.6
					c0.5-0.3,0.5-0.7,0.5-0.7v-0.1l0.1,0.1c0.1,0.4-0.4,0.7-0.5,0.8l0,0l0,0c0,0,0,0.1,0,0.2c0.5-0.1,0.8-0.6,0.8-0.6v-0.1
					c0,0,0,0.1-0.1,0.2c-0.3,0.5-0.7,0.6-0.8,0.6c0,0.1-0.1,0.2-0.1,0.3c0.1,0,0.6-0.2,0.8-0.5l0,0l0,0l0,0l0.1-0.1l-0.1,0.1
					c-0.1,0.1-0.4,0.5-0.9,0.6c0,0.1,0,0.2,0,0.3h0.1c0.4-0.1,0.6-0.4,0.7-0.5l0.1-0.2l-0.1,0.2c-0.3,0.5-0.6,0.6-0.7,0.7l0,0
					c0,0.1,0.2,0.3,0.2,0.3h0.1C183.8,35.5,183.7,34.7,183.2,34z"/>
				<path class="st9" d="M184,36.6c-0.1-0.6-0.5-0.5-0.8-0.2c-0.7,1,0,1.3,0,1.3s-0.1-0.2,0-0.4c0,0-0.1-0.2-0.1-0.4v-0.1v0.1
					c0,0.1,0,0.2,0.1,0.3c0,0,0-0.1,0.1-0.1c0,0-0.1-0.2-0.1-0.4l0,0v-0.1v0.1c0,0.1,0,0.2,0.2,0.3l0,0l0.1-0.1c0,0-0.2-0.2-0.2-0.4
					l0,0l0,0v0.1c0,0.1,0,0.3,0.2,0.4c0-0.1,0-0.1,0.1-0.2l0,0c0,0-0.1-0.1-0.1-0.4c0,0,0,0,0-0.1l0,0v0.1c0,0.1,0,0.3,0.1,0.3
					c0.1-0.3,0-0.5,0-0.5v-0.1c0,0,0,0,0,0.1c0,0,0,0.1,0,0.3c0.1-0.1,0.1-0.2,0.1-0.2l0,0l0,0c0,0.1-0.1,0.2-0.1,0.3s0,0.2-0.1,0.3
					C183.8,36.9,183.9,36.6,184,36.6L184,36.6L184,36.6c-0.1,0.3-0.4,0.4-0.5,0.4l0,0l0,0c0,0,0,0-0.1,0.1c0.2,0,0.5-0.2,0.5-0.2
					l0,0c0,0,0,0.1-0.1,0.1c-0.2,0.2-0.5,0.2-0.5,0.2s-0.1,0.1-0.1,0.2c0.1,0,0.3,0,0.5-0.1l0,0l0,0l0,0l0,0l-0.1,0.1
					c-0.1,0-0.3,0.2-0.5,0.1c0,0.1,0,0.1,0,0.2c0,0,0,0,0.1,0c0.2,0,0.4-0.1,0.4-0.1l0.1-0.1l-0.1,0.1c-0.2,0.2-0.4,0.2-0.5,0.2l0,0
					c0,0.1,0,0.2,0,0.2l0,0C184,37.4,184.1,37,184,36.6z"/>
				<path class="st9" d="M185.5,37.7c-0.2-1.1-1-1-1.5-0.3c-1.3,1.9-0.1,2.5,0.1,2.5c0,0-0.2-0.3,0-0.7c0-0.1-0.3-0.5-0.3-0.8v-0.2
					v0.2c0,0.1,0,0.4,0.3,0.6c0-0.1,0.1-0.2,0.1-0.2c-0.1-0.1-0.3-0.4-0.3-0.7V38v-0.2v0.3c0,0.2,0,0.4,0.3,0.6l0,0
					c0.1-0.1,0.1-0.2,0.2-0.3c-0.1-0.1-0.3-0.3-0.3-0.8v-0.1v-0.1v0.2c0,0.1,0,0.5,0.3,0.7c0.1-0.1,0.1-0.2,0.1-0.3l0,0
					c0,0-0.3-0.2-0.2-0.7c0,0,0,0,0-0.1v-0.1v0.2c0,0.2,0,0.5,0.2,0.6c0.2-0.5,0.1-1,0.1-1v-0.1l0.1,0.1c0,0,0,0.2,0,0.5
					c0.2-0.1,0.2-0.4,0.2-0.4v-0.1V37c0,0.2-0.2,0.4-0.3,0.5c0,0.2-0.1,0.4-0.2,0.6c0.6-0.1,0.7-0.5,0.7-0.5v-0.1v0.1
					c-0.1,0.4-0.7,0.5-0.8,0.6l0,0l0,0l-0.1,0.1c0.5,0.1,1-0.4,1-0.4l0.1-0.1c0,0,0,0.1-0.1,0.2c-0.4,0.4-0.9,0.3-1,0.3
					c-0.1,0.1-0.1,0.2-0.2,0.3c0.1,0,0.6,0,1-0.2l0,0l0,0l0,0l0.1-0.1l-0.1,0.1c-0.1,0.1-0.6,0.3-1,0.3c0,0.1-0.1,0.2-0.1,0.3h0.1
					c0.4,0.1,0.7-0.1,0.9-0.3l0.1-0.1l-0.1,0.2c-0.5,0.4-0.8,0.4-1,0.4l0,0c0,0.1,0.1,0.3,0.1,0.3h0.1
					C185.5,39.4,185.7,38.6,185.5,37.7z"/>
				<path class="st9" d="M182.3,40.3c-1.2,0.3-1,1.1-0.3,1.6c2.1,1.4,2.7,0,2.8-0.2c0,0-0.4,0.2-0.8,0.1c-0.1,0-0.5,0.3-0.8,0.3H183
					h0.2c0.1,0,0.4-0.1,0.7-0.3c-0.1,0-0.2-0.1-0.2-0.1c-0.1,0.1-0.4,0.3-0.8,0.3h-0.1h-0.2h0.3c0.2,0,0.4-0.1,0.7-0.3l0,0
					c-0.1-0.1-0.2-0.1-0.3-0.2c-0.1,0.1-0.3,0.4-0.8,0.4h-0.1h-0.1h0.2c0.2,0,0.6,0,0.7-0.4c-0.1-0.1-0.2-0.1-0.3-0.1l0,0
					c0,0-0.2,0.3-0.8,0.3c0,0,0,0-0.1,0h-0.1h0.2c0.2,0,0.6-0.1,0.7-0.3c-0.6-0.2-1.1-0.1-1.1-0.1h-0.1l0.1-0.1c0,0,0.2-0.1,0.6-0.1
					c-0.2-0.2-0.4-0.2-0.4-0.2h-0.1l0.1-0.1c0.2,0,0.5,0.2,0.5,0.3c0.3,0,0.5,0.1,0.7,0.1c-0.1-0.6-0.6-0.7-0.6-0.7h-0.1h0.1
					c0.5,0.1,0.6,0.7,0.7,0.8l0,0l0,0c0.1,0,0.1,0.1,0.2,0.1c0.1-0.5-0.4-1-0.4-1l-0.1-0.1c0,0,0.1,0,0.2,0.1c0.4,0.4,0.4,1,0.4,1
					c0.1,0.1,0.2,0.1,0.3,0.2c0-0.1,0-0.7-0.3-1.1l0,0l0,0l0,0l-0.1-0.1l0.1,0.1c0.1,0.1,0.4,0.6,0.3,1.1c0.1,0,0.2,0.1,0.4,0.1
					v-0.1c0.1-0.4-0.2-0.8-0.4-0.9l-0.1-0.1l0.2,0.1c0.5,0.5,0.5,0.9,0.4,1l0,0c0.2,0,0.3-0.1,0.4-0.1v-0.1
					C184.1,40.2,183.2,40.1,182.3,40.3z"/>
				<path class="st9" d="M185.1,41c-0.7,0.2-0.6,0.7-0.2,1c1.3,0.9,1.7,0,1.7-0.1c0,0-0.2,0.1-0.5,0c0,0-0.3,0.2-0.5,0.2h-0.1h0.1
					c0.1,0,0.3,0,0.4-0.2c-0.1,0-0.1,0-0.2-0.1c-0.1,0-0.3,0.2-0.5,0.2c0,0,0,0-0.1,0h-0.1h0.2c0.1,0,0.3,0,0.4-0.2l0,0
					c-0.1,0-0.1-0.1-0.2-0.1c0,0-0.2,0.2-0.5,0.2h-0.1h-0.1h0.1c0.1,0,0.4,0,0.5-0.2c-0.1,0-0.1-0.1-0.2-0.1l0,0
					c0,0-0.1,0.2-0.5,0.2c0,0,0,0-0.1,0h-0.1h0.1c0.1,0,0.4,0,0.4-0.2c-0.4-0.1-0.7,0-0.7,0h-0.1h0.1c0,0,0.2,0,0.4,0
					c-0.1-0.1-0.3-0.1-0.3-0.1h-0.1h0.1c0.1,0,0.3,0.1,0.3,0.2c0.2,0,0.3,0,0.4,0.1c-0.1-0.4-0.4-0.5-0.4-0.5L185.1,41L185.1,41
					c0.4,0.2,0.5,0.6,0.5,0.6l0,0l0,0c0,0,0.1,0,0.1,0.1c0-0.3-0.3-0.7-0.3-0.7h-0.1c0,0,0.1,0,0.1,0.1c0.3,0.3,0.3,0.6,0.3,0.7
					c0.1,0,0.1,0.1,0.2,0.1c0-0.1,0-0.4-0.2-0.7l0,0l0,0l0,0l-0.1-0.1l0.1,0.1c0.1,0.1,0.2,0.4,0.2,0.7c0.1,0,0.2,0,0.2,0v-0.1
					c0-0.3-0.1-0.5-0.2-0.6l-0.1-0.1l0.1,0.1c0.3,0.3,0.3,0.6,0.3,0.7l0,0c0.1,0,0.2-0.1,0.2-0.1v-0.1C186.2,41,185.6,40.9,185.1,41
					z"/>
				<path class="st9" d="M188.3,39.9c-0.3-1.1-1-1-1.5-0.3c-1.4,1.9-0.1,2.5,0.1,2.6c0,0-0.2-0.3,0-0.7c0-0.1-0.3-0.5-0.3-0.8v-0.2
					v0.2c0,0.1,0.1,0.4,0.3,0.7c0-0.1,0.1-0.2,0.1-0.2c-0.1-0.1-0.3-0.4-0.3-0.8v-0.1v-0.2v0.3c0,0.2,0.1,0.4,0.3,0.7l0,0
					c0.1-0.1,0.1-0.2,0.2-0.3c-0.1-0.1-0.3-0.3-0.3-0.8v-0.1v-0.1V40c0,0.2,0,0.5,0.3,0.7c0.1-0.1,0.1-0.2,0.1-0.3l0,0
					c0,0-0.3-0.2-0.2-0.7c0,0,0,0,0-0.1v-0.1v0.2c0,0.2,0,0.5,0.2,0.6c0.2-0.5,0.1-1,0.1-1v-0.1l0.1,0.1c0,0,0,0.2,0,0.5
					c0.2-0.1,0.2-0.4,0.2-0.4v-0.1v0.1c0,0.2-0.2,0.5-0.3,0.5c0,0.2-0.1,0.5-0.2,0.6c0.6-0.1,0.7-0.5,0.7-0.5v-0.1V40
					c-0.1,0.4-0.7,0.6-0.8,0.6l0,0l0,0l-0.1,0.1c0.5,0.1,1-0.4,1-0.4l0.1-0.1c0,0,0,0.1-0.1,0.2c-0.4,0.4-1,0.3-1,0.3
					c-0.1,0.1-0.1,0.2-0.2,0.3c0.1,0,0.6,0,1-0.2l0,0l0,0l0,0l0.1-0.1l-0.1,0.1c-0.1,0.1-0.6,0.3-1.1,0.3c0,0.1-0.1,0.2-0.1,0.3h0.1
					c0.4,0.1,0.7-0.2,0.9-0.3l0.1-0.1l-0.1,0.2c-0.5,0.4-0.8,0.4-1,0.4l0,0c0,0.1,0.1,0.3,0.1,0.3h0.1
					C188.4,41.6,188.5,40.8,188.3,39.9z"/>
				<path class="st9" d="M190,40.9c0.1-1.1-0.6-1.1-1.2-0.6c-1.7,1.6-0.7,2.4-0.7,2.5c0,0,0-0.3,0.2-0.7c0-0.1-0.1-0.5,0-0.8
					l0.1-0.2v0.2c0,0.1-0.1,0.4,0.1,0.7c0-0.1,0.1-0.1,0.2-0.2c0-0.1-0.1-0.4,0-0.8v-0.1l0.1-0.2l-0.1,0.3c0,0.2-0.1,0.4,0.1,0.7
					l0,0c0.1-0.1,0.1-0.1,0.2-0.2c0-0.1-0.2-0.4,0-0.8v-0.1v-0.1v0.2c0,0.1-0.1,0.5,0.1,0.7c0.1-0.1,0.1-0.2,0.2-0.3l0,0
					c0,0-0.2-0.3,0-0.7c0,0,0,0,0-0.1l0.1-0.1l-0.1,0.2c0,0.2-0.1,0.5,0,0.7c0.3-0.5,0.3-0.9,0.3-0.9v-0.1v0.1c0,0,0,0.2-0.1,0.5
					c0.2-0.1,0.3-0.3,0.3-0.3v-0.1v0.1c-0.1,0.2-0.3,0.4-0.4,0.4c-0.1,0.2-0.2,0.4-0.3,0.6c0.5,0,0.7-0.3,0.7-0.3V41v0.1
					c-0.2,0.4-0.7,0.4-0.8,0.4l0,0l0,0l-0.1,0.1c0.4,0.2,0.9-0.2,0.9-0.2l0.1-0.1c0,0-0.1,0.1-0.2,0.2c-0.5,0.3-0.9,0.2-0.9,0.1
					c-0.1,0.1-0.2,0.2-0.2,0.3c0.1,0,0.5,0.1,0.9,0l0,0l0,0l0,0h0.1l-0.1,0.1c-0.1,0.1-0.6,0.2-1,0.1c-0.1,0.1-0.1,0.2-0.2,0.3h0.1
					c0.3,0.1,0.6,0,0.8-0.1l0.1-0.1l-0.1,0.1c-0.5,0.3-0.8,0.2-0.9,0.2l0,0c0,0.1,0,0.3,0,0.3h0.1C189.5,42.5,189.9,41.7,190,40.9z"
					/>
				<path class="st9" d="M182.6,44.4c-0.8,1.2,0,1.7,1,1.4c3-0.8,2.4-2.3,2.3-2.5c0,0.1-0.2,0.4-0.6,0.7c0,0.1-0.2,0.7-0.5,0.9
					l-0.2,0.1l0.1-0.2c0.1-0.1,0.3-0.4,0.4-0.8c-0.1,0-0.2,0.1-0.3,0.1c0,0.1-0.1,0.6-0.5,0.9l-0.1,0.1l-0.2,0.2l0.3-0.3
					c0.2-0.2,0.3-0.4,0.4-0.8l0,0c-0.1,0-0.3,0.1-0.4,0.1c0,0.1,0,0.6-0.5,1l-0.1,0.1l-0.1,0.1l0.1-0.2c0.1-0.1,0.5-0.5,0.4-0.9
					c-0.1,0.1-0.3,0.1-0.4,0.2l0,0c0,0,0,0.4-0.5,0.9c0,0,0,0-0.1,0.1l-0.1,0.1l0.2-0.2c0.1-0.2,0.5-0.5,0.4-0.8
					c-0.6,0.4-1,0.9-1,0.9l-0.1,0.1c0,0,0-0.1,0-0.2c0,0,0.2-0.2,0.5-0.5c-0.3,0-0.5,0.2-0.5,0.2l-0.1,0.1v-0.1
					c0.2-0.2,0.6-0.3,0.7-0.3c0.2-0.2,0.5-0.4,0.7-0.5c-0.6-0.4-1.1-0.1-1.1-0.1L182.6,44.4l0.1-0.1c0.5-0.3,1.1,0,1.2,0
					c0,0,0,0,0.1,0l0,0c0.1,0,0.1,0,0.2-0.1c-0.4-0.4-1.2-0.4-1.2-0.4h-0.1c0,0,0.1-0.1,0.3-0.1c0.7,0,1.2,0.4,1.2,0.4
					c0.1,0,0.3-0.1,0.5-0.2c-0.1-0.1-0.6-0.5-1.1-0.6l0,0l0,0l0,0h-0.2h0.2c0.2,0,0.8,0.1,1.2,0.5c0.1-0.1,0.3-0.2,0.4-0.3
					c0,0,0-0.1-0.1-0.1c-0.3-0.4-0.8-0.4-1-0.4h-0.2l0.2-0.1c0.8-0.1,1.1,0.3,1.2,0.4l0,0c0.1-0.1,0.2-0.4,0.2-0.4l-0.1-0.1
					C184.1,42.8,183.2,43.5,182.6,44.4z"/>
				<path class="st9" d="M189.5,43.5c0.5-0.6,0.1-0.8-0.4-0.7c-1.5,0.3-1.3,1-1.3,1.1c0,0,0.1-0.2,0.3-0.3c0,0,0.1-0.3,0.3-0.4
					l0.1-0.1l-0.1,0.1c-0.1,0.1-0.2,0.2-0.2,0.4c0.1,0,0.1,0,0.2,0c0-0.1,0.1-0.3,0.3-0.4l0,0l0.1-0.1l-0.1,0.1
					c-0.1,0.1-0.2,0.2-0.2,0.4l0,0c0.1,0,0.1,0,0.2,0c0-0.1,0-0.3,0.3-0.5l0,0h0.1L189,43c-0.1,0.1-0.3,0.2-0.2,0.4
					c0.1,0,0.1,0,0.2-0.1l0,0c0,0,0-0.2,0.3-0.4c0,0,0,0,0.1,0h0.1l-0.1,0.1c-0.1,0.1-0.2,0.2-0.2,0.4c0.3-0.2,0.5-0.4,0.5-0.4v-0.1
					V43c0,0-0.1,0.1-0.2,0.2c0.1,0,0.3-0.1,0.3-0.1l0,0v0.1c-0.1,0.1-0.3,0.1-0.4,0.1c-0.1,0.1-0.3,0.2-0.4,0.2
					C189.3,43.7,189.5,43.6,189.5,43.5L189.5,43.5h-0.1c-0.3,0.1-0.6-0.1-0.6-0.1l0,0l0,0h-0.1c0.2,0.2,0.6,0.2,0.6,0.2h0.1
					c0,0-0.1,0-0.2,0c-0.4,0-0.5-0.2-0.6-0.3c-0.1,0-0.2,0-0.2,0.1c0.1,0.1,0.3,0.3,0.5,0.3l0,0l0,0l0,0h0.1h-0.1
					c-0.1,0-0.4-0.1-0.5-0.3c-0.1,0-0.1,0.1-0.2,0.1c0,0,0,0,0,0.1c0.1,0.2,0.4,0.2,0.5,0.2h0.1h-0.1c-0.4,0-0.5-0.2-0.6-0.2l0,0
					c-0.1,0.1-0.1,0.2-0.1,0.2l0,0C188.7,44.2,189.2,44,189.5,43.5z"/>
			</g>
			<path class="st9" d="M185.5,42.3c-0.1,0-0.2-0.1-0.2-0.2c1.6,2.3,3.4,3.6,3.4,3.7l0.1-0.2c0,0-1.6-1.2-3.2-3.3
				C185.6,42.3,185.5,42.3,185.5,42.3z"/>
			<path class="st9" d="M182.8,36.5l-0.2-0.2l0.1,0.1c0.4,1.9,1.2,3.5,2.1,4.9c0-0.1,0.1-0.1,0.2-0.1
				C184,39.8,183.2,38.2,182.8,36.5C182.7,35.9,182.8,36.4,182.8,36.5z"/>
			<g>
				<circle class="st10" cx="187.1" cy="42.8" r="1.3"/>
				
					<ellipse transform="matrix(-0.5966 -0.8026 0.8026 -0.5966 264.3978 217.2928)" class="st6" cx="186.8" cy="42.2" rx="0.5" ry="0.8"/>
				
					<ellipse transform="matrix(-0.5974 -0.8019 0.8019 -0.5974 264.5048 217.0116)" class="st10" cx="186.7" cy="42.1" rx="0.3" ry="0.4"/>
			</g>
			<g>
				<circle class="st6" cx="187.8" cy="44.7" r="1.1"/>
				
					<ellipse transform="matrix(-0.9902 0.1393 -0.1393 -0.9902 378.8487 62.9747)" class="st10" cx="187.2" cy="44.7" rx="0.5" ry="0.7"/>
				
					<ellipse transform="matrix(-0.99 0.1409 -0.1409 -0.99 378.6187 62.6219)" class="st6" cx="187.1" cy="44.7" rx="0.3" ry="0.4"/>
			</g>
			<g>
				<circle class="st10" cx="185.7" cy="44.9" r="0.8"/>
				
					<ellipse transform="matrix(-0.9903 0.1393 -0.1393 -0.9903 374.9263 63.6153)" class="st6" cx="185.2" cy="44.9" rx="0.4" ry="0.5"/>
				
					<ellipse transform="matrix(-0.9902 0.1398 -0.1398 -0.9902 374.7643 63.5574)" class="st10" cx="185.1" cy="44.9" rx="0.2" ry="0.3"/>
			</g>
			<g>
				<circle class="st6" cx="184.4" cy="42.9" r="0.8"/>
				
					<ellipse transform="matrix(-0.9901 0.1402 -0.1402 -0.9901 371.9871 59.6721)" class="st10" cx="183.9" cy="42.9" rx="0.3" ry="0.5"/>
				
					<ellipse transform="matrix(-0.9903 0.1389 -0.1389 -0.9903 371.7846 59.9429)" class="st6" cx="183.8" cy="42.9" rx="0.2" ry="0.3"/>
			</g>
			<g>
				<circle class="st10" cx="182.4" cy="40.1" r="0.8"/>
				
					<ellipse transform="matrix(-0.6064 0.7952 -0.7952 -0.6064 324.7419 -79.9995)" class="st6" cx="182.2" cy="40.4" rx="0.3" ry="0.5"/>
				
					<ellipse transform="matrix(-0.6079 0.794 -0.794 -0.6079 324.8035 -79.4901)" class="st10" cx="182" cy="40.5" rx="0.2" ry="0.3"/>
			</g>
			<g>
				<circle class="st6" cx="185.8" cy="40.6" r="1"/>
				
					<ellipse transform="matrix(-0.1323 -0.9912 0.9912 -0.1323 170.7277 229.4572)" class="st10" cx="185.8" cy="40" rx="0.4" ry="0.6"/>
				
					<ellipse transform="matrix(-0.1317 -0.9913 0.9913 -0.1317 170.724 229.3361)" class="st6" cx="185.8" cy="39.9" rx="0.2" ry="0.4"/>
			</g>
		</g>
	</g>
	<path class="st5" d="M153.3,22.3c0.5,0.3,0.7,1,0.3,1.5l-1,1.6c-0.3,0.5-1,0.7-1.5,0.3l0,0c-0.5-0.3-0.7-1-0.3-1.5l1-1.6
		C152.1,22.1,152.8,21.9,153.3,22.3L153.3,22.3z"/>
</g>
<g id="brusnika_juice_bottle">
	<path class="st0" d="M305,51.5c0,0-16.8-10.8-26-16.6c-9.2-5.9-15.1-4.3-15.1-4.3c-5-4.6-8.5-3-8.5-3l-2-1.3l0.4-0.6
		c0,0-2.2-1.4-2.9-1.9s-1.3,0.6-1.3,0.6l-2.4,3.7l-0.2,0.3l-2.4,3.7c0,0-0.7,1,0,1.4c0.7,0.5,2.9,1.9,2.9,1.9l0.4-0.6l2,1.3l0,0
		c0,0,0,3.8,6.3,6.4c0,0,1.1,6,10.2,11.9c9.2,5.9,26,16.6,26,16.6s5.3,4,8-0.2c0.7-1.1,1.3-2,1.8-2.8c1.4-2.1,2-3.1,2-3.1l0.1-0.2
		l0.1-0.2l0,0l2-3.1l0,0c0.5-0.8,1.1-1.7,1.8-2.8l0,0C310.9,54.7,305,51.5,305,51.5z"/>
	<path class="st11" d="M281,31.1c-4.1-2.8-12.1-7.5-17.9-6c0,0-4-4.6-8.8-3.3l-2.5-1.6l-1.8,2.9l-0.5,0.8l-1.8,2.9l2.5,1.6
		c0.8,4.9,6.7,6.6,6.7,6.6c1.2,6.4,10.1,12.1,14,14.3c9,5.8,20.3,13,20.3,13s5.3,3.9,7.6,0.2c0.6-1,1.2-1.8,1.6-2.5
		c1.2-1.9,1.7-2.7,1.7-2.7l0.2-0.4l1.7-2.7c0.4-0.7,1-1.5,1.6-2.5c2.3-3.7-3.4-6.8-3.4-6.8S290.2,37,281,31.1z"/>
	<g>
		<path class="st7" d="M252.7,19.4l2.1,1.3c0,0,0.6-0.3,1.6-0.3c1.5,0,3.9,0.6,6.8,3.3c0,0,0.7-0.2,2.1-0.2c2.5,0,7.1,0.7,13,4.5
			c9.2,5.9,26,16.6,26,16.6s5.8,3.2,3.2,7.3c-0.7,1.1-1.3,2-1.8,2.8l-2,3.1l-0.3,0.4c0,0-0.6,1-2,3.1c-0.5,0.8-1.1,1.7-1.8,2.8
			c-0.9,1.4-2.1,1.9-3.3,1.9c-2.3,0-4.6-1.7-4.6-1.7s-16.8-10.8-26-16.6c-9.2-5.9-10.2-11.9-10.2-11.9c-6.3-2.6-6.3-6.4-6.3-6.4l0,0
			l-2.1-1.3L252.7,19.4 M252.4,18l-0.5,0.8l-5.5,8.6l-0.5,0.8l0.8,0.5l1.7,1.1c0.2,1.2,1.3,4.3,6.4,6.6c0.5,1.7,2.6,6.9,10.5,12
			l26,16.6c0.3,0.2,2.7,1.9,5.2,1.9c1.8,0,3.2-0.8,4.2-2.3l1.3-2.1l0.5-0.7l2-3.1l0.3-0.4l2-3.1l0.4-0.7l1.4-2.2
			c0.8-1.2,1-2.5,0.7-3.9c-0.7-2.8-3.8-4.6-4.2-4.8l-26-16.6c-6-3.8-10.7-4.6-13.6-4.6c-0.8,0-1.4,0.1-1.8,0.1
			c-3-2.6-5.5-3.2-7.1-3.2c-0.6,0-1.1,0.1-1.5,0.2l-1.7-1.1L252.4,18L252.4,18z"/>
	</g>
	<g>
		<path class="st7" d="M242.4,26.4c-0.3-0.2-0.5-0.5-0.5-0.8c-0.1-0.7,0.3-1.3,0.4-1.4l5-7.8c0-0.1,0.5-0.9,1.3-0.9
			c0.2,0,0.4,0.1,0.6,0.2l3.3,2.1l-6.8,10.7L242.4,26.4z"/>
		<path class="st7" d="M248.5,16c0.1,0,0.2,0,0.4,0.1c0.7,0.5,2.9,1.9,2.9,1.9l-3,4.7l-0.2,0.3l-3,4.7c0,0-2.2-1.4-2.9-1.9
			s0-1.4,0-1.4l2.4-3.7l0.2-0.3l2.4-3.7C247.6,16.7,248,16,248.5,16 M248.5,15c-1,0-1.6,0.9-1.8,1.2l-2.4,3.7l-0.2,0.3l-2.4,3.7
			c-0.2,0.2-0.6,0.9-0.5,1.7c0.1,0.5,0.4,0.8,0.8,1.1l2.9,1.9l0.8,0.5l0.5-0.8l3-4.7l0.2-0.3l3-4.7l0.5-0.8l-0.8-0.5l-2.9-1.9
			C249.1,15.1,248.8,15,248.5,15L248.5,15z"/>
	</g>
	<path class="st12" d="M265.8,42.6L265.8,42.6c-0.5,0.7-1.3,0.9-1.9,0.5c-3.7-2.5-5.2-5.6-5.3-5.8c-0.3-0.6,0-1.4,0.6-1.7
		c0.6-0.3,1.4,0,1.7,0.6c0,0,1.3,2.6,4.4,4.7C265.9,41.3,266.1,42,265.8,42.6z"/>
	<circle class="st13" cx="283.3" cy="51" r="0.7"/>
	<circle class="st13" cx="291.8" cy="55.3" r="0.7"/>
	<circle class="st13" cx="285.4" cy="41.7" r="0.7"/>
	<circle class="st13" cx="290.7" cy="42" r="0.7"/>
	<circle class="st13" cx="298.8" cy="45.5" r="0.7"/>
	<circle class="st13" cx="292.9" cy="50" r="0.7"/>
	<circle class="st13" cx="296.3" cy="52.2" r="1.5"/>
	<circle class="st13" cx="256.8" cy="28.2" r="1.5"/>
	<circle class="st13" cx="268.1" cy="30" r="1.5"/>
	<circle class="st13" cx="262.8" cy="32.3" r="1.5"/>
	<circle class="st13" cx="287.1" cy="48.9" r="1.7"/>
	<circle class="st5" cx="276.9" cy="40.7" r="8.4"/>
	<path class="st5" d="M245.9,22.3c0.5,0.3,0.7,1,0.3,1.5l-1,1.6c-0.3,0.5-1,0.7-1.5,0.3l0,0c-0.5-0.3-0.7-1-0.3-1.5l1-1.6
		C244.7,22.1,245.4,21.9,245.9,22.3L245.9,22.3z"/>
	<g>
		<g>
			<path class="st9" d="M274.9,35.2c-1.3-0.4-1.6,0.5-1.2,1.4c1.3,2.5,2.6,1.5,2.7,1.4c-0.1,0-0.4,0-0.8-0.4c-0.1,0-0.6,0-1-0.1
				l-0.2-0.1l0.2,0.1c0.1,0.1,0.4,0.2,0.9,0.1c-0.1-0.1-0.1-0.2-0.2-0.3c-0.1,0-0.6,0.1-0.9-0.1h-0.1l-0.2-0.2l0.3,0.2
				c0.2,0.1,0.5,0.2,0.9,0.1l0,0c0-0.1-0.1-0.2-0.2-0.3c-0.1,0-0.5,0.2-1-0.1l-0.1-0.1l-0.1-0.1l0.2,0.1c0.2,0.1,0.6,0.3,0.9,0.1
				c-0.1-0.1-0.2-0.2-0.2-0.3l0,0c0,0-0.4,0.2-0.9-0.1c0,0,0,0-0.1-0.1l-0.1-0.1l0.2,0.1c0.2,0.1,0.6,0.2,0.8,0.1
				c-0.5-0.5-1-0.6-1-0.6h-0.1c0,0,0.1,0,0.2,0c0,0,0.3,0.1,0.6,0.3c0-0.3-0.3-0.4-0.3-0.4H274h0.1c0.2,0.1,0.3,0.5,0.4,0.6
				c0.2,0.2,0.4,0.3,0.6,0.5c0.2-0.7-0.1-1-0.1-1l-0.1-0.1h0.1c0.4,0.3,0.2,1.1,0.2,1.2l0,0l0,0c0,0.1,0.1,0.1,0.1,0.2
				c0.4-0.5,0.2-1.2,0.2-1.2l-0.1-0.1c0,0,0.1,0.1,0.1,0.3c0.2,0.7-0.2,1.2-0.2,1.2c0.1,0.1,0.1,0.3,0.2,0.4
				c0.1-0.1,0.4-0.7,0.3-1.2l0,0l0,0l0,0v-0.1l0.1,0.2c0,0.2,0,0.8-0.3,1.3c0.1,0.1,0.2,0.2,0.3,0.3l0.1-0.1
				c0.3-0.4,0.2-0.8,0.2-1.1l-0.1-0.2l0.1,0.2c0.2,0.7,0,1.1-0.2,1.2l0,0c0.1,0.1,0.4,0.1,0.4,0.1l0.1-0.1
				C276.7,36.1,275.9,35.4,274.9,35.2z"/>
			<path class="st9" d="M278.7,34.1c-0.1-1.1-0.8-1.1-1.4-0.5c-1.6,1.6-0.5,2.4-0.3,2.5c0,0-0.1-0.3,0.1-0.7c0-0.1-0.2-0.5-0.1-0.8
				v-0.2v0.2c0,0.1,0,0.4,0.2,0.7c0-0.1,0.1-0.1,0.1-0.2c0-0.1-0.2-0.4-0.1-0.8v-0.1l0.1-0.2v0.3c0,0.2,0,0.4,0.2,0.7l0,0
				c0.1-0.1,0.1-0.1,0.2-0.2c-0.1-0.1-0.3-0.4-0.2-0.8v-0.1v-0.1V34c0,0.1-0.1,0.5,0.2,0.7c0.1-0.1,0.1-0.2,0.2-0.3l0,0
				c0,0-0.2-0.3-0.1-0.7c0,0,0,0,0-0.1l0.1-0.1l-0.1,0.2c0,0.2,0,0.5,0.1,0.6c0.2-0.5,0.2-0.9,0.2-0.9v-0.1v0.1c0,0,0,0.2,0,0.5
				c0.2-0.1,0.3-0.3,0.3-0.3v-0.1v0.1c0,0.2-0.3,0.4-0.3,0.4c-0.1,0.2-0.1,0.4-0.3,0.6c0.6,0,0.7-0.4,0.7-0.4v-0.1v0.1
				c-0.2,0.4-0.8,0.4-0.8,0.4l0,0l0,0l-0.1,0.1c0.5,0.2,1-0.2,1-0.2l0.1-0.1c0,0,0,0.1-0.2,0.2c-0.5,0.3-1,0.2-1,0.2
				c-0.1,0.1-0.2,0.2-0.2,0.3c0.1,0,0.6,0.1,1,0l0,0l0,0l0,0l0.1-0.1l-0.1,0.1c-0.1,0.1-0.6,0.2-1,0.1c-0.1,0.1-0.1,0.2-0.1,0.3h0.1
				c0.3,0.1,0.7,0,0.9-0.1l0.2-0.1l-0.1,0.1c-0.5,0.3-0.9,0.3-1,0.2l0,0c0,0.1,0,0.3,0,0.3h0.1C278.4,35.7,278.7,34.9,278.7,34.1z"
				/>
			<path class="st9" d="M278,36.7c0.2-0.6-0.2-0.7-0.6-0.5c-1.1,0.5-0.7,1.1-0.6,1.2c0,0,0-0.2,0.2-0.3c0,0,0-0.3,0.1-0.4l0.1-0.1
				v0.1c0,0.1-0.1,0.2,0,0.4l0.1-0.1c0,0,0-0.3,0.1-0.4l0,0l0.1-0.1l-0.1,0.1c0,0.1-0.1,0.2,0,0.4l0,0c0.1,0,0.1,0,0.1-0.1
				c0,0-0.1-0.2,0.1-0.4l0,0l0,0v0.1c0,0.1-0.1,0.2,0,0.4l0.1-0.1l0,0c0,0-0.1-0.2,0.1-0.4l0,0l0,0l-0.1,0.1c0,0.1-0.1,0.2-0.1,0.3
				c0.2-0.2,0.3-0.4,0.3-0.4v-0.1v0.1c0,0,0,0.1-0.1,0.2C277.9,36.7,278,36.6,278,36.7L278,36.7L278,36.7c-0.1,0.1-0.2,0.1-0.3,0.2
				c-0.1,0.1-0.2,0.2-0.2,0.3c0.3,0.1,0.4,0,0.4,0L278,36.7h-0.1c-0.2,0.2-0.5,0.1-0.5,0.1l0,0l0,0h-0.1c0.2,0.2,0.5,0.1,0.5,0.1
				l0,0c0,0,0,0-0.1,0.1c-0.3,0.1-0.5-0.1-0.5-0.1c-0.1,0-0.1,0.1-0.2,0.1c0.1,0,0.3,0.2,0.5,0.2l0,0l0,0l0,0h0.1h-0.1
				c-0.1,0-0.4,0-0.5-0.2l-0.1,0.1l0,0c0.2,0.1,0.4,0.1,0.5,0.1h0.1h-0.1c-0.3,0.1-0.5,0-0.5-0.1l0,0c0,0.1,0,0.2,0,0.2l0,0
				C277.6,37.5,277.9,37.2,278,36.7z"/>
			<path class="st9" d="M278.8,38.6c0.3-1.1-0.4-1.4-1.2-1c-2.1,1-1.3,2.2-1.2,2.3c0,0,0-0.4,0.3-0.6c0-0.1,0-0.5,0.1-0.8l0.1-0.1
				l-0.1,0.2c-0.1,0.1-0.1,0.4-0.1,0.7c0.1-0.1,0.1-0.1,0.2-0.1c0-0.1-0.1-0.5,0.1-0.8v-0.1l0.1-0.2l-0.1,0.2
				c-0.1,0.1-0.2,0.4-0.1,0.7l0,0c0.1,0,0.2-0.1,0.3-0.1c0-0.1-0.1-0.5,0.1-0.8V38l0.1-0.1l-0.1,0.2c-0.1,0.1-0.2,0.5-0.1,0.8
				c0.1-0.1,0.2-0.1,0.3-0.2l0,0c0,0-0.1-0.3,0.1-0.7c0,0,0,0,0.1-0.1l0.1-0.1l-0.1,0.2c-0.1,0.1-0.2,0.5-0.1,0.7
				c0.4-0.4,0.6-0.8,0.6-0.8v-0.1v0.1c0,0-0.1,0.2-0.2,0.5c0.2,0,0.4-0.2,0.4-0.2v-0.1v0.1c-0.1,0.2-0.4,0.3-0.5,0.3
				c-0.1,0.2-0.3,0.4-0.5,0.5c0.6,0.2,0.9-0.1,0.9-0.1l0.1-0.1v0.1c-0.3,0.3-0.9,0.1-1,0.1l0,0l0,0c0,0-0.1,0.1-0.2,0.1
				c0.4,0.3,1,0.2,1,0.2h0.1c0,0-0.1,0.1-0.2,0.1c-0.5,0.1-1-0.2-1-0.2c-0.1,0.1-0.2,0.1-0.3,0.2c0.1,0.1,0.6,0.3,1,0.3l0,0l0,0l0,0
				h0.1l-0.2,0.1c-0.2,0-0.7,0-1-0.3c-0.1,0.1-0.2,0.2-0.2,0.3l0.1,0.1c0.3,0.3,0.7,0.2,0.9,0.2h0.2l-0.2,0.1
				c-0.6,0.1-0.9-0.1-1-0.2l0,0c-0.1,0.1-0.1,0.3-0.1,0.3l0.1,0.1C278,40,278.5,39.4,278.8,38.6z"/>
			<path class="st9" d="M274.6,39.2c-1.2-0.3-1.5,0.5-1.1,1.3c1.2,2.3,2.4,1.3,2.5,1.2c-0.1,0-0.4,0-0.7-0.3c-0.1,0-0.6,0-0.9-0.1
				l-0.1-0.1l0.2,0.1c0.1,0.1,0.4,0.1,0.8,0.1c-0.1-0.1-0.1-0.1-0.2-0.2c-0.1,0-0.5,0.1-0.9-0.1h-0.1l-0.2-0.1l0.3,0.1
				c0.2,0.1,0.4,0.2,0.8,0l0,0c0-0.1-0.1-0.2-0.2-0.3c-0.1,0-0.5,0.2-0.9-0.1l-0.1-0.1l-0.1-0.1l0.2,0.1c0.1,0.1,0.5,0.2,0.8,0
				c-0.1-0.1-0.1-0.2-0.2-0.3l0,0c0,0-0.4,0.2-0.8-0.1c0,0,0,0-0.1-0.1l-0.1-0.1l0.2,0.1c0.2,0.1,0.5,0.2,0.7,0.1
				c-0.4-0.4-0.9-0.6-0.9-0.6h-0.1h0.1c0,0,0.2,0.1,0.5,0.2c0-0.2-0.2-0.4-0.2-0.4h-0.1h0.1c0.2,0.1,0.3,0.5,0.3,0.5
				c0.2,0.1,0.4,0.3,0.5,0.5c0.2-0.6-0.1-0.9-0.1-0.9l-0.1-0.1h0.1c0.4,0.3,0.2,1,0.2,1.1l0,0l0,0c0,0,0.1,0.1,0.1,0.2
				c0.3-0.4,0.1-1.1,0.1-1.1v-0.1c0,0,0.1,0.1,0.1,0.2c0.2,0.6-0.1,1.1-0.2,1.1c0.1,0.1,0.1,0.2,0.2,0.3c0.1-0.1,0.3-0.6,0.3-1.1
				l0,0l0,0l0,0v-0.1l0.1,0.2c0,0.2,0,0.8-0.3,1.2c0.1,0.1,0.2,0.2,0.3,0.2l0.1-0.1c0.3-0.3,0.2-0.8,0.2-1v-0.2l0.1,0.2
				c0.2,0.7,0,1-0.1,1.1l0,0c0.1,0.1,0.3,0.1,0.4,0.1l0.1-0.1C276.3,40.1,275.6,39.5,274.6,39.2z"/>
			<path class="st9" d="M276.8,41.3c-0.8-0.2-0.9,0.3-0.7,0.8c0.7,1.4,1.5,0.8,1.6,0.8c0,0-0.3,0-0.4-0.2c0,0-0.4,0-0.6-0.1
				l-0.1-0.1h0.1c0.1,0,0.3,0.1,0.5,0l-0.1-0.1c-0.1,0-0.3,0-0.6-0.1c0,0,0,0-0.1,0l-0.1-0.1l0.2,0.1c0.1,0.1,0.3,0.1,0.5,0l0,0
				c0-0.1-0.1-0.1-0.1-0.2c-0.1,0-0.3,0.1-0.6-0.1l0,0h-0.1h0.1c0.1,0.1,0.3,0.2,0.5,0c0-0.1-0.1-0.1-0.1-0.2l0,0
				c0,0-0.2,0.1-0.5-0.1c0,0,0,0-0.1,0v-0.1l0.1,0.1c0.1,0,0.3,0.1,0.5,0.1c-0.3-0.3-0.6-0.4-0.6-0.4H276h0.1c0,0,0.2,0,0.3,0.1
				c0-0.2-0.2-0.3-0.2-0.3h-0.1h0.1c0.1,0.1,0.2,0.3,0.2,0.3c0.1,0.1,0.3,0.2,0.3,0.3c0.1-0.4-0.1-0.6-0.1-0.6h-0.1h0.1
				c0.2,0.2,0.1,0.6,0.1,0.7l0,0l0,0c0,0,0,0.1,0.1,0.1C277,41.7,276.9,41.3,276.8,41.3L276.8,41.3c0.1-0.1,0.2,0,0.2,0.1
				c0.1,0.4-0.1,0.7-0.1,0.7c0,0.1,0.1,0.1,0.1,0.2c0-0.1,0.2-0.4,0.2-0.7l0,0l0,0l0,0v-0.1v0.1c0,0.1,0,0.5-0.2,0.7
				c0.1,0.1,0.1,0.1,0.2,0.2c0,0,0,0,0.1-0.1c0.2-0.2,0.1-0.5,0.1-0.6v-0.1l0.1,0.1c0.1,0.4,0,0.6-0.1,0.7l0,0
				c0.1,0,0.2,0.1,0.2,0.1l0,0C277.8,41.8,277.3,41.4,276.8,41.3z"/>
			<path class="st9" d="M280.2,41.9c0.3-1.1-0.4-1.4-1.2-1c-2.2,1-1.3,2.2-1.2,2.3c0,0,0-0.4,0.3-0.6c0-0.1,0-0.6,0.1-0.8l0.1-0.1
				l-0.1,0.2c-0.1,0.1-0.1,0.4-0.1,0.7c0.1-0.1,0.1-0.1,0.2-0.1c0-0.1-0.1-0.5,0.1-0.8v-0.1l0.1-0.2l-0.1,0.3
				c-0.1,0.2-0.2,0.4-0.1,0.7l0,0c0.1,0,0.2-0.1,0.3-0.1c0-0.1-0.1-0.5,0.1-0.9v-0.1l0.1-0.1l-0.1,0.2c-0.1,0.1-0.2,0.5-0.1,0.8
				c0.1-0.1,0.2-0.1,0.3-0.2l0,0c0,0-0.1-0.3,0.1-0.8c0,0,0,0,0.1-0.1l0.1-0.1l-0.1,0.2c-0.1,0.1-0.2,0.5-0.1,0.7
				c0.4-0.4,0.6-0.8,0.6-0.8V41v0.1c0,0-0.1,0.2-0.2,0.5c0.2,0,0.4-0.2,0.4-0.2v-0.1v0.1c-0.1,0.2-0.4,0.3-0.5,0.3
				c-0.1,0.2-0.3,0.4-0.5,0.5c0.6,0.2,0.9-0.1,0.9-0.1l0.1-0.1v0.1c-0.3,0.3-0.9,0.2-1,0.1l0,0l0,0c0,0-0.1,0.1-0.2,0.1
				c0.4,0.3,1.1,0.2,1.1,0.2h0.1c0,0-0.1,0.1-0.2,0.1c-0.6,0.1-1-0.2-1-0.2c-0.1,0.1-0.2,0.1-0.3,0.2c0.1,0.1,0.6,0.3,1,0.3l0,0l0,0
				l0,0h0.1l-0.2,0.1c-0.2,0-0.7,0-1.1-0.3c-0.1,0.1-0.2,0.2-0.2,0.3l0.1,0.1c0.3,0.3,0.7,0.2,0.9,0.2h0.2l-0.2,0.1
				c-0.6,0.1-1-0.1-1.1-0.2l0,0c-0.1,0.1-0.1,0.3-0.1,0.3l0.1,0.1C279.4,43.4,280,42.8,280.2,41.9z"/>
			<path class="st9" d="M281.2,43.6c0.6-0.9,0.1-1.3-0.8-1.1c-2.3,0.6-1.9,1.8-1.8,1.9c0,0,0.1-0.3,0.5-0.5c0-0.1,0.2-0.5,0.4-0.7
				l0.1-0.1l-0.1,0.1c-0.1,0.1-0.2,0.3-0.3,0.6c0.1,0,0.2-0.1,0.2-0.1c0-0.1,0.1-0.5,0.4-0.7c0,0,0,0,0.1-0.1l0.2-0.1l-0.2,0.2
				c-0.1,0.1-0.3,0.3-0.3,0.6l0,0c0.1,0,0.2,0,0.3-0.1c0-0.1,0-0.4,0.4-0.7l0.1-0.1l0.1-0.1l-0.1,0.1c-0.1,0.1-0.4,0.4-0.3,0.7
				c0.1,0,0.2-0.1,0.3-0.1l0,0c0,0,0-0.3,0.4-0.7c0,0,0,0,0.1-0.1h0.1l-0.2,0.1c-0.1,0.1-0.4,0.4-0.3,0.6c0.5-0.3,0.8-0.7,0.8-0.7
				l0.1-0.1v0.1c0,0-0.1,0.2-0.4,0.4c0.2,0,0.4-0.1,0.4-0.1l0.1-0.1v0.1c-0.2,0.1-0.5,0.2-0.5,0.2c-0.2,0.2-0.4,0.3-0.6,0.4
				C280.9,43.7,281.2,43.5,281.2,43.6l0.1-0.2L281.2,43.6c-0.4,0.2-0.9-0.1-0.9-0.1l0,0l0,0c-0.1,0-0.1,0-0.2,0
				c0.3,0.3,0.9,0.3,0.9,0.3h0.1c0,0-0.1,0.1-0.2,0.1c-0.5,0-0.9-0.3-0.9-0.3c-0.1,0-0.2,0.1-0.3,0.1c0.1,0.1,0.4,0.4,0.8,0.4l0,0
				l0,0l0,0h0.1h-0.2c-0.1,0-0.6-0.1-0.9-0.4c-0.1,0.1-0.2,0.1-0.3,0.2c0,0,0,0.1,0.1,0.1c0.2,0.3,0.6,0.3,0.8,0.3h0.2h-0.2
				c-0.6,0-0.8-0.2-0.9-0.3l0,0c-0.1,0.1-0.2,0.3-0.2,0.3v0.1C280,44.8,280.7,44.3,281.2,43.6z"/>
			<path class="st9" d="M272.9,43.1c-1.3,0.7-0.9,1.5,0.2,1.8c3,0.8,3.3-0.9,3.3-1c0,0-0.4,0.3-0.9,0.3c-0.1,0.1-0.5,0.5-0.9,0.6
				h-0.2l0.2-0.1c0.2-0.1,0.5-0.2,0.8-0.6c-0.1,0-0.2,0-0.3,0c-0.1,0.1-0.4,0.5-0.9,0.6h-0.1h-0.3l0.4-0.1c0.2-0.1,0.5-0.2,0.7-0.6
				l0,0c-0.1,0-0.3-0.1-0.4-0.1c-0.1,0.1-0.3,0.5-0.9,0.6h-0.1h-0.1l0.2-0.1c0.2-0.1,0.7-0.2,0.8-0.6c-0.1,0-0.3,0-0.4,0l0,0
				c0,0-0.2,0.4-0.8,0.5h-0.1H273h0.3c0.2-0.1,0.7-0.2,0.7-0.5c-0.8,0-1.3,0.3-1.3,0.3l-0.1,0.1l0.1-0.1c0,0,0.3-0.1,0.7-0.2
				c-0.2-0.1-0.6-0.1-0.6-0.1h-0.1l0.1-0.1c0.3-0.1,0.7,0.1,0.8,0.1c0.3-0.1,0.6-0.1,0.9-0.1c-0.4-0.6-0.9-0.6-0.9-0.6h-0.2l0.1-0.1
				c0.6-0.1,1,0.6,1.1,0.7c0,0,0,0,0.1,0l0,0c0.1,0,0.1,0,0.2,0.1c-0.1-0.6-0.9-0.9-0.9-0.9h-0.1c0,0,0.2,0,0.3,0.1
				c0.7,0.3,0.8,0.9,0.8,1c0.2,0,0.3,0.1,0.5,0.1c-0.1-0.1-0.3-0.7-0.7-1l0,0l0,0l0,0l-0.1-0.1l0.2,0.1c0.2,0.1,0.7,0.5,0.8,1.1
				c0.2,0,0.3,0,0.5,0v-0.1c0-0.4-0.5-0.7-0.7-0.9l-0.2-0.1l0.2,0.1c0.7,0.4,0.9,0.8,0.9,0.9l0,0c0.2-0.1,0.4-0.2,0.4-0.2v-0.1
				C275.1,42.4,273.9,42.5,272.9,43.1z"/>
			<path class="st9" d="M279.5,45.7c0.7-0.3,0.5-0.7,0-0.9c-1.5-0.5-1.7,0.3-1.7,0.3s0.2-0.1,0.5-0.1c0,0,0.3-0.2,0.5-0.3h0.1h-0.1
				c-0.1,0-0.3,0.1-0.4,0.2c0.1,0,0.1,0,0.2,0c0,0,0.2-0.2,0.5-0.2c0,0,0,0,0.1,0h0.1h-0.2c-0.1,0-0.3,0.1-0.4,0.2l0,0
				c0.1,0,0.1,0,0.2,0.1c0,0,0.2-0.2,0.5-0.3h0.1h0.1h-0.1c-0.1,0-0.3,0.1-0.4,0.3c0.1,0,0.1,0,0.2,0l0,0c0,0,0.1-0.2,0.4-0.2
				c0,0,0,0,0.1,0h0.1h-0.1c-0.1,0-0.3,0.1-0.4,0.2c0.4,0,0.7-0.1,0.7-0.1h0.1c0,0,0,0-0.1,0.1c0,0-0.1,0.1-0.3,0.1
				c0.1,0.1,0.3,0.1,0.3,0.1h0.1h-0.1c-0.1,0-0.3-0.1-0.4-0.1c-0.2,0-0.3,0-0.4,0c0.1,0.3,0.4,0.3,0.4,0.3L279.5,45.7h-0.1
				c-0.3,0-0.5-0.3-0.5-0.4l0,0l0,0h-0.1c0,0.3,0.4,0.5,0.4,0.5h0.1c0,0-0.1,0-0.2,0c-0.3-0.2-0.4-0.5-0.4-0.5
				c-0.1,0-0.2-0.1-0.2-0.1c0,0.1,0.1,0.4,0.3,0.5l0,0l0,0l0,0h0.1h-0.1c-0.1-0.1-0.3-0.3-0.3-0.6c-0.1,0-0.2,0-0.2,0s0,0,0,0.1
				c0,0.2,0.2,0.4,0.3,0.5l0.1,0.1h-0.1c-0.3-0.2-0.4-0.4-0.4-0.5l0,0c-0.1,0-0.2,0.1-0.2,0.1l0,0C278.4,46,279,45.9,279.5,45.7z"/>
		</g>
		<path class="st9" d="M276.5,42.6c0-0.1-0.1-0.2-0.1-0.3c0.3,2.9,1.2,4.9,1.2,5l0.2-0.1c0,0-0.8-1.9-1.1-4.5
			C276.5,42.7,276.5,42.7,276.5,42.6z"/>
		<path class="st9" d="M277,36.1c-0.1,0-0.1-0.3-0.1-0.3v0.1c-0.6,1.9-0.7,3.7-0.6,5.4c0.1,0,0.1,0,0.2,0
			C276.4,39.7,276.5,37.8,277,36.1C277.2,35.6,277.1,36,277,36.1z"/>
		<path class="st11" d="M279.2,42.2c0.3,0.7,0,1.5-0.7,1.8s-1.5,0-1.8-0.7c-0.3-0.7,0-1.5,0.7-1.8C278.1,41.2,278.9,41.5,279.2,42.2
			"/>
		<path class="st13" d="M278.4,41.8c0,0.2-0.2,0.3-0.4,0.4c-0.3,0-0.5-0.1-0.5-0.3s0.2-0.3,0.4-0.4
			C278.2,41.5,278.4,41.6,278.4,41.8"/>
		<path class="st11" d="M277.7,43.7c0.7,0,1.2,0.6,1.1,1.3c0,0.7-0.6,1.2-1.3,1.1c-0.7,0-1.2-0.6-1.1-1.3
			C276.5,44.1,277.1,43.6,277.7,43.7"/>
		<path class="st13" d="M277.1,44.1c0.2,0.1,0.2,0.3,0.1,0.5c-0.1,0.2-0.3,0.3-0.4,0.3c-0.2-0.1-0.2-0.3-0.1-0.5
			C276.8,44.2,276.9,44.1,277.1,44.1"/>
		<path class="st11" d="M275.6,43c0.5,0,0.9,0.5,0.8,0.9c0,0.5-0.5,0.9-0.9,0.8c-0.5,0-0.9-0.5-0.8-0.9
			C274.6,43.4,275.1,43,275.6,43"/>
		<path class="st11" d="M275.4,40.5c0.5,0,0.9,0.5,0.8,0.9c0,0.5-0.5,0.9-0.9,0.8c-0.5,0-0.9-0.5-0.8-0.9
			C274.4,40.8,274.9,40.5,275.4,40.5"/>
		<path class="st13" d="M274.9,40.8c0.1,0,0.1,0.2,0.1,0.4c-0.1,0.2-0.2,0.2-0.3,0.2c-0.1,0-0.1-0.2-0.1-0.4
			C274.6,40.9,274.8,40.8,274.9,40.8"/>
		<path class="st11" d="M274.4,37c0.4-0.3,0.9-0.3,1.3,0.1c0.3,0.4,0.3,0.9-0.1,1.3c-0.4,0.3-0.9,0.3-1.3-0.1
			C274,37.9,274.1,37.3,274.4,37"/>
		<path class="st13" d="M274.3,37.6c0.1,0,0.2,0,0.3,0.2s0,0.3-0.1,0.4c-0.1,0-0.2,0-0.3-0.2C274.2,37.8,274.2,37.6,274.3,37.6"/>
		<path class="st11" d="M279,40c0,0.6-0.6,1.1-1.2,1c-0.6,0-1.1-0.6-1-1.2c0-0.6,0.6-1.1,1.2-1C278.6,38.9,279,39.4,279,40"/>
		<path class="st13" d="M278.6,39.4c-0.1,0.1-0.3,0.2-0.4,0.1c-0.2-0.1-0.3-0.2-0.3-0.4c0.1-0.1,0.3-0.2,0.4-0.1
			C278.5,39.1,278.6,39.3,278.6,39.4"/>
	</g>
</g>
<g id="chernika_juice">
	<g id="chernichny_sok">
		<path class="st0" d="M169.5,65.3L169.5,65.3L169.5,65.3c-0.1-0.3-0.2-0.5-0.4-0.8l-6.6-13.3l-6.6,13.4c-0.1,0.2-0.2,0.5-0.3,0.7
			l0,0l0,0c-0.4,0.9-0.6,1.9-0.6,3c0,4.2,3.4,7.5,7.5,7.5c4.2,0,7.5-3.4,7.5-7.5C170.1,67.2,169.8,66.2,169.5,65.3z"/>
		<path class="st6" d="M165.2,63.7L165.2,63.7L165.2,63.7c-0.1-0.3-0.2-0.5-0.4-0.8l-6.6-13.3L151.6,63c-0.1,0.2-0.2,0.5-0.3,0.7
			l0,0l0,0c-0.4,0.9-0.6,1.9-0.6,3c0,4.2,3.4,7.5,7.5,7.5c4.2,0,7.5-3.4,7.5-7.5C165.7,65.6,165.5,64.6,165.2,63.7z"/>
		<ellipse class="st8" cx="155" cy="64.9" rx="2" ry="2.1"/>
	</g>
</g>
<g id="brusnika_x5F_juice">
	<g id="brusnichny_sok">
		<path class="st0" d="M262.1,65.3L262.1,65.3L262.1,65.3c-0.1-0.3-0.2-0.5-0.4-0.8l-6.6-13.3l-6.6,13.4c-0.1,0.2-0.2,0.5-0.3,0.7
			l0,0l0,0c-0.4,0.9-0.6,1.9-0.6,3c0,4.2,3.4,7.5,7.5,7.5c4.2,0,7.5-3.4,7.5-7.5C262.6,67.2,262.4,66.2,262.1,65.3z"/>
		<path class="st11" d="M257.8,63.7L257.8,63.7L257.8,63.7c-0.1-0.3-0.2-0.5-0.4-0.8l-6.6-13.3L244.2,63c-0.1,0.2-0.2,0.5-0.3,0.7
			l0,0l0,0c-0.4,0.9-0.6,1.9-0.6,3c0,4.2,3.4,7.5,7.5,7.5c4.2,0,7.5-3.4,7.5-7.5C258.3,65.6,258.1,64.6,257.8,63.7z"/>
		<ellipse class="st13" cx="247.6" cy="64.9" rx="2" ry="2.1"/>
	</g>
</g>
</svg>
