<?xml version="1.0" encoding="utf-8"?>
<!-- Generator: Adobe Illustrator 19.0.0, SVG Export Plug-In . SVG Version: 6.00 Build 0)  -->
<svg version="1.1" xmlns="http://www.w3.org/2000/svg" xmlns:xlink="http://www.w3.org/1999/xlink" x="0px" y="0px"
	 viewBox="105 -52 340.5 354" style="enable-background:new 105 -52 340.5 354;" xml:space="preserve">
<style type="text/css">
	.st0{fill:#519E38;}
	.st1{fill:#F4F4F4;}
	.st2{fill:#D6D6D6;}
	.st3{fill:#EAEAEA;}
	.st4{fill:#FFFFFF;}
	.st5{fill:#00AA55;}
	.st6{fill:#62BA47;}
	.st7{fill:#63B746;}
	.st8{fill:#009373;}
	.st9{fill:url(#SVGID_1_);}
	.st10{fill:url(#SVGID_2_);}
	.st11{fill:url(#SVGID_3_);}
	.st12{fill:url(#SVGID_4_);}
	.st13{fill:url(#SVGID_5_);}
</style>
<g id="Layer_1">
	<g id="kolba_4">
	</g>
	<g id="kolba_3">
	</g>
	<g id="kolby">
	</g>
	<g id="doma">
	</g>
	<g id="car">
	</g>
	<g id="butylka_3">
	</g>
	<g id="butylka_2">
	</g>
	<g id="butylka_1">
	</g>
	<g id="vanna_2">
	</g>
	<g id="sneg">
	</g>
	<g id="vanna_1">
	</g>
	<g id="zakvaska">
	</g>
	<g id="shariki_2">
	</g>
	<g id="shariki_1">
	</g>
	<g id="voronka">
	</g>
	<g id="gradusnik">
	</g>
	<g id="kolba_2">
	</g>
	<g id="kolba_1">
	</g>
	<g id="probirki">
	</g>
	<g id="lupa">
	</g>
	<g id="bidon">
	</g>
	<g id="blank">
	</g>
	<g id="ticks">
	</g>
	<g>
		<path class="st0" d="M372.5,210.9c0,0,0-64.5,0-99.6s-14.6-48.4-14.6-48.4c3.9-21.7-6.5-28.2-6.5-28.2v-7.8h2.2c0,0,0-8.4,0-11.2
			c0-2.8-3.9-2.5-3.9-2.5h-14.3h-1.3h-14.3c0,0-3.9-0.3-3.9,2.5s0,11.2,0,11.2h2.3v7.8h-0.1c0,0-10.4,6.5-6.5,28.2
			c0,0-14.6,13.4-14.6,48.4s0,99.6,0,99.6s-1.5,21.4,14.3,21.4c4.3,0,7.8,0,10.8,0c8.1,0,11.8,0,11.8,0h0.7h0.8h0.1h11.7h0.1
			c3,0,6.5,0,10.8,0c0,0,0,0,0.1,0C373.9,232.3,372.5,210.9,372.5,210.9z"/>
		<path class="st1" d="M364.8,205.9c0,0,0-64.5,0-99.6s-14.6-48.4-14.6-48.4c3.9-21.7-6.5-28.2-6.5-28.2v-8h-33v8h-0.1
			c0,0-10.4,6.5-6.5,28.2c0,0-14.6,13.4-14.6,48.4c0,35.1,0,99.6,0,99.6s-1.5,21.4,14.3,21.4c4.3,0,7.8,0,10.8,0
			c8.1,0,11.8,0,11.8,0h1.6h11.8c3,0,6.6,0,10.8,0C366.3,227.3,364.8,205.9,364.8,205.9z"/>
		<path class="st2" d="M342.1,8.2h-14.3h-1.3h-14.3c0,0-3.9-0.3-3.9,2.5s0,11.2,0,11.2h18.1h1.3h18.1c0,0,0-8.4,0-11.2
			S342.1,8.2,342.1,8.2z"/>
		<path class="st3" d="M364.7,205.9c0,0,0-64.5,0-99.6s-14.6-48.4-14.6-48.4c3.9-21.7-6.5-28.2-6.5-28.2v-8H327v205.6h0.8h11.8
			c3,0,6.6,0,10.8,0C366.2,227.3,364.7,205.9,364.7,205.9z"/>
		<path class="st4" d="M301.8,94.8c-0.2,0-0.4,0-0.5,0c-2.3-0.3-3.9-2.4-3.6-4.7c1.9-14.4,8.8-23.1,9.1-23.5
			c1.4-1.8,4.1-2.1,5.9-0.6c1.8,1.4,2.1,4.1,0.6,5.8c-0.1,0.1-5.8,7.4-7.4,19.3C305.6,93.3,303.8,94.8,301.8,94.8z"/>
	</g>
	<g>
		<path class="st0" d="M259.7,210.9c0,0,0-64.5,0-99.6s-14.6-48.4-14.6-48.4c3.9-21.7-6.5-28.2-6.5-28.2v-7.8h2.2c0,0,0-8.4,0-11.2
			c0-2.8-3.9-2.5-3.9-2.5h-14.3h-1.3H207c0,0-3.9-0.3-3.9,2.5s0,11.2,0,11.2h2.3v7.8h-0.1c0,0-10.4,6.5-6.5,28.2
			c0,0-14.6,13.4-14.6,48.4s0,99.6,0,99.6s-1.5,21.4,14.3,21.4c4.3,0,7.8,0,10.8,0c8.1,0,11.8,0,11.8,0h0.7h0.8h0.1h11.7h0.1
			c3,0,6.5,0,10.8,0c0,0,0,0,0.1,0C261.2,232.3,259.7,210.9,259.7,210.9z"/>
		<path class="st1" d="M252.1,205.9c0,0,0-64.5,0-99.6s-14.6-48.4-14.6-48.4c3.9-21.7-6.5-28.2-6.5-28.2v-8h-33v8h-0.1
			c0,0-10.4,6.5-6.5,28.2c0,0-14.6,13.4-14.6,48.4c0,35.1,0,99.6,0,99.6s-1.5,21.4,14.3,21.4c4.3,0,7.8,0,10.8,0
			c8.1,0,11.8,0,11.8,0h1.6H227c3,0,6.6,0,10.8,0C253.6,227.3,252.1,205.9,252.1,205.9z"/>
		<path class="st2" d="M229.3,8.2H215h-1.3h-14.2c0,0-3.9-0.3-3.9,2.5s0,11.2,0,11.2h18.1h1.3h18.1c0,0,0-8.4,0-11.2
			S229.3,8.2,229.3,8.2z"/>
		<path class="st3" d="M252,205.9c0,0,0-64.5,0-99.6s-14.6-48.4-14.6-48.4c3.9-21.7-6.5-28.2-6.5-28.2v-8h-16.6v205.6h0.8h11.8
			c3,0,6.6,0,10.8,0C253.5,227.3,252,205.9,252,205.9z"/>
		<path class="st4" d="M189,94.8c-0.2,0-0.4,0-0.5,0c-2.3-0.3-3.9-2.4-3.6-4.7c1.9-14.4,8.8-23.1,9.1-23.5c1.4-1.8,4.1-2.1,5.9-0.6
			c1.8,1.4,2.1,4.1,0.6,5.8c-0.1,0.1-5.8,7.4-7.4,19.3C192.9,93.3,191.1,94.8,189,94.8z"/>
	</g>
	<g>
		<circle class="st5" cx="214.4" cy="141.5" r="19.4"/>
		<circle class="st6" cx="198.9" cy="158.7" r="6.1"/>
		<path class="st5" d="M205.2,117.8c0,1.4-1.1,2.5-2.5,2.5s-2.5-1.1-2.5-2.5s1.1-2.5,2.5-2.5S205.2,116.4,205.2,117.8L205.2,117.8z"
			/>
		<path class="st6" d="M205.3,126.1c0,1.8-1.4,3.2-3.2,3.2c-1.8,0-3.2-1.4-3.2-3.2s1.4-3.2,3.2-3.2
			C203.9,122.9,205.3,124.3,205.3,126.1L205.3,126.1z"/>
		<path class="st6" d="M196.8,121.2c0,1-0.8,1.9-1.9,1.9c-1.1,0-1.9-0.8-1.9-1.9c0-1.1,0.8-1.9,1.9-1.9
			C195.9,119.3,196.8,120.1,196.8,121.2L196.8,121.2z"/>
		<g>
			<circle class="st6" cx="231" cy="123.8" r="10.7"/>
			<g>
				<path class="st4" d="M228.3,122.3c-0.9,0.1-1.1,1.2-1.2,1.9l0,0l0,0c0,0.1,0,0.2,0,0.3c0,0.3,0,0.6-0.1,0.9
					c0,0.1-0.1,0.4-0.1,0.4c-0.3,0-0.6-0.4-0.7-0.7c-0.2-0.5-0.4-1.1-0.5-1.7c-0.1-0.6-0.2-1.3-0.2-1.9c0-0.3,0-0.5,0-0.8
					c0-0.1,0-0.2,0-0.3s0-0.2,0-0.2c0.1-0.5-0.6,0-0.7,0.2c-0.7,1.2-0.5,2.7-0.5,4.1c0,0.4,0,0.7-0.1,1.1c0,0.2-0.1,0.7-0.3,0.9
					c-0.1,0.1-0.4,0-0.5,0c-0.2-0.1-0.3-0.3-0.3-0.5s-0.3-0.1-0.4,0c-0.2,0.2-0.3,0.4-0.3,0.6c0.1,0.5,0.5,0.9,1,0.8
					c0.8-0.2,1.1-1.2,1.3-1.9c0.1-0.4,0.1-0.7,0.2-1.1c0.1,0.5,0.3,1.1,0.5,1.5s0.5,0.7,0.9,0.6c0.3-0.1,0.6-0.4,0.7-0.8
					c0.2,0.4,0.4,0.6,0.8,0.6c0.4,0,0.8-0.5,1-0.9c0.2-0.4,0.3-0.9,0.2-1.4C229.4,123.5,229.2,122.2,228.3,122.3z M228.6,125.4
					c0,0.1,0,0.2-0.1,0.3c-0.2,0-0.3-0.3-0.4-0.4c-0.1-0.3-0.2-0.6-0.2-0.9c0-0.3,0-0.7,0-1c0-0.1,0-0.2,0.1-0.3
					c0.4,0.3,0.5,0.8,0.6,1.3C228.7,124.7,228.7,125,228.6,125.4z"/>
				<path class="st4" d="M238.9,123.5c-1-0.4-1.5,0.9-1.7,1.7c-0.2,0.7-0.4,1.9,0.5,2.2c0.4,0.2,0.9-0.1,1.1-0.4
					c0.3-0.3,0.5-0.8,0.6-1.2C239.6,125.1,239.8,123.9,238.9,123.5z M238.4,126.6c0,0.1-0.1,0.2-0.1,0.2c-0.1-0.1-0.2-0.4-0.2-0.5
					c-0.1-0.3,0-0.7,0-1c0.1-0.3,0.2-0.7,0.3-0.9c0-0.1,0.1-0.1,0.1-0.2c0.4,0.4,0.3,1,0.2,1.5C238.6,126,238.5,126.3,238.4,126.6z"
					/>
				<path class="st4" d="M236.4,123.7c0.2-0.2,0.3-0.5,0.5-0.7c0.4-0.5,0.7-1.2,0.7-1.8s-0.9-0.7-1.3-0.4c-0.6,0.3-1,0.9-1.1,1.6
					c-0.2,0.8-0.4,1.7-0.4,2.5l0,0c-0.3,0.4-0.9,1.1-1.4,0.8c-0.1-0.1-0.2-0.2-0.2-0.4c0.4-0.4,0.7-0.8,1.1-1.3
					c0.3-0.4,0.5-1.2-0.1-1.5c-0.5-0.3-1.1,0-1.4,0.4c-0.3,0.4-0.5,0.9-0.5,1.4c0,0.3-0.1,0.7,0,1.1c-0.3,0.2-0.6,0.3-1,0.2
					c-0.4-0.1-0.5-0.5-0.6-0.8c-0.1-0.4-0.1-0.9,0-1.4c0-0.1,0.1-0.3,0.1-0.4v-0.1c0.2,0.1,0.3,0.4,0.4,0.6c0.1,0.3,0.9-0.2,0.8-0.5
					s-0.2-0.6-0.6-0.8c-0.3-0.2-0.8,0.1-1,0.3c-0.6,0.6-0.6,1.4-0.6,2.2c0,0.5,0.1,1.1,0.6,1.4c0.6,0.4,1.4,0,1.9-0.3
					c0.1,0.4,0.4,0.6,0.9,0.6c0.6-0.1,1.1-0.4,1.5-0.8c0,0.4,0.1,0.9,0.4,1.1c0.5,0.3,1.1,0,1.5-0.5c0.4-0.6,0.7-1.3,0.4-2
					C236.9,123.8,236.6,123.7,236.4,123.7z M233.1,123.3c0-0.1,0.1-0.2,0.1-0.3l0,0c0.2,0.1,0.3,0.4,0.2,0.5c0,0.4-0.3,0.7-0.6,1
					c0-0.1,0-0.1,0-0.2C233,124,233,123.7,233.1,123.3z M236.2,121.6c0.1-0.1,0.1-0.2,0.2-0.4l0,0c0.4,0.4,0,1-0.2,1.4
					s-0.4,0.8-0.7,1.1c0.1-0.4,0.1-0.7,0.2-1.1C235.9,122.3,236,121.9,236.2,121.6z M236,126c0,0-0.1,0.1-0.1,0.2h-0.1
					c-0.2-0.1-0.3-0.6-0.3-0.8s0-0.4,0-0.5c0.1-0.1,0.2-0.2,0.3-0.3c0.2-0.1,0.4,0.1,0.4,0.3C236.3,125.1,236.2,125.6,236,126z"/>
			</g>
		</g>
		<g>
			<path class="st4" d="M196,158.5c0.2-0.2,0.4-0.5,0.6-0.8c0.1-0.1,0.2-0.2,0.3-0.4c0.1-0.1,0.1-0.1,0,0c0,0.2,0,0.4,0,0.6
				c0,1.1,0,2.1-0.1,3.2c0,0.4,0.7-0.1,0.7-0.4c0.1-0.7,0.1-1.4,0.1-2.1c0-0.3,0.2-1.9-0.1-2c-0.7-0.2-1.4,1.4-1.8,1.8
				C195.1,158.8,195.7,158.8,196,158.5L196,158.5z"/>
			<path class="st4" d="M201.4,157c-0.7,1.2-1.7,2.4-2.5,3.5c-0.4,0.5,0.2,0.5,0.5,0.1c0.9-1.2,1.9-2.4,2.7-3.7
				C202.3,156.5,201.6,156.7,201.4,157L201.4,157z"/>
			<path class="st4" d="M200.1,156.7c-0.5,0-0.8,0.4-0.9,0.9c-0.1,0.4,0.2,0.7,0.6,0.7C200.6,158.3,201.1,156.7,200.1,156.7
				c-0.2,0-0.6,0.5-0.3,0.5c0.2,0,0.3,0.2,0.4,0.4c0,0.1,0,0.2,0,0.2c0,0.1,0,0,0,0h-0.1c-0.2,0-0.3-0.2-0.4-0.4c0-0.1,0-0.2,0-0.3
				s0,0,0,0h0.1C200,157.2,200.3,156.7,200.1,156.7z"/>
			<path class="st4" d="M201.3,159.3c-0.5,0-0.8,0.4-0.9,0.9c-0.1,0.4,0.2,0.7,0.6,0.7C201.9,161,202.3,159.4,201.3,159.3
				c-0.2,0-0.6,0.5-0.3,0.5c0.2,0,0.3,0.2,0.4,0.4c0,0.1,0,0.2,0,0.2c0,0.1,0,0,0,0h-0.1c-0.2,0-0.3-0.2-0.4-0.4c0-0.1,0-0.2,0-0.3
				s0,0,0,0h0.1C201.3,159.8,201.6,159.3,201.3,159.3z"/>
		</g>
		<g>
			<g>
				<g>
					<path class="st4" d="M229.8,144.1c0.2-1,0.3-2.3-0.5-3.2c-0.4-0.5-1.2-0.4-1.7-0.3c0-0.4,0.1-0.8,0.1-1.3
						c0-0.4-0.7-0.3-0.9-0.2c-0.3,0.1-0.7,0.4-0.7,0.7c0,1.4-0.2,2.9-0.4,4.3l0,0c-0.1,0.4-0.3,1.1-0.7,1.3s-0.6-1.2-0.6-1.4
						c0-1.4,0.3-2.9,0.6-4.3c0.1-0.3-0.4-0.4-0.6-0.3c-0.4,0.1-0.8,0.3-0.9,0.7c-0.2,1.1-0.4,2.2-0.7,3.3c-0.1,0.5-0.3,0.9-0.5,1.4
						c0,0,0,0,0,0.1c-0.1,0-0.2-0.1-0.3-0.1c-0.7-0.4-0.6-1.9-0.5-2.4c0.1-0.9,0.3-1.9,0.7-2.7c0.1-0.3,0-0.5-0.4-0.5
						c-0.2,0-0.4,0.1-0.6,0.2c-0.1,0.1-0.4,0.2-0.4,0.2c-0.1,0-0.2,0.1-0.3,0.1c-0.8,0.3-1.4-0.1-1.8-0.7l0,0
						c-0.1-0.2-0.3-0.3-0.4-0.4c-0.6-0.3-1.2-0.1-1.8,0.1c0-0.4-0.1-0.8-0.1-1.3c-0.1-0.3-0.7-0.1-0.9,0c-0.3,0.2-0.6,0.5-0.6,0.8
						c-0.4,0-0.9,0.3-1.1,0.5c-0.9,0.7-1.2,1.9-1.2,3l0,0c-0.1,1-0.7,2.5-1.8,2.4c-0.2,0-0.5-0.4-0.6-0.6c0.4-0.5,0.7-1.1,1-1.6
						c0.6-0.9,1-2.3,0.3-3.2c-0.5-0.6-1.7-0.1-2.2,0.4c-0.7,0.7-0.9,1.6-0.9,2.4c0,0.6,0,1.6,0.3,2.5c-0.2,0.2-0.4,0.6-0.7,0.4
						c-0.2-0.1-0.3-0.4-0.4-0.7c-0.3-0.8-0.3-1.6-0.6-2.4c-0.5-1.1-1.6-1.1-2.7-0.6c-0.1-1-0.2-2,0.3-2.9c0.5-1.1,1.7-0.7,2.4-0.2
						c0.5,0.3,1.7-1,1.2-1.3c-0.7-0.5-1.5-0.9-2.5-0.5c-0.8,0.3-1.5,0.9-1.9,1.6c-0.1,0.1-0.2,0.2-0.2,0.4c-0.2-0.7-0.5-1.4-0.8-2.1
						c-0.1-0.3-0.6,0-0.7,0.1c-1.5,1-4,3.2-3,5.2c0.2,0.5,1.4-0.9,1.2-1.4c-0.4-0.8,0.5-1.7,1.3-2.4c0.6,1.7,1.1,3.4,1.5,5.1
						c0.2,1.1,0.4,2.3-0.1,3.2c-0.5,1-1.8,0.4-2-0.4c-0.1-0.7-1.2,0.7-1.1,1.1c0.1,0.6,0.4,1,1,1.3c0.5,0.2,1.1-0.1,1.6-0.4
						c1.2-0.8,1.9-2.1,2-3.5c0.1-0.6,0-1.1,0-1.7c0.4-0.1,0.8-0.1,1,0.3c0.6,0.6,0.6,1.7,0.8,2.5c0.2,0.6,0.4,1.3,1.2,1.2
						c0.6-0.1,1.1-0.5,1.5-1c0.3,0.3,0.6,0.6,1,0.6c0.8,0.1,1.7-0.6,2.2-1c0.2-0.2,0.4-0.4,0.6-0.6c0.1,0.4,0.3,0.7,0.6,1
						s0.8,0.4,1.2,0.4c0.2,0,0.4-0.1,0.5-0.1c-0.1,1.3-0.1,2.7-0.3,4c0,0.4,0.4,0.3,0.6,0.2c0.3-0.2,0.6-0.5,0.7-0.8
						c0.1-1.1,0.2-2.1,0.3-3.2c0.5,0,1.1-0.2,1.5-0.5c1-0.8,1.3-2.1,1.3-3.3c0-0.2,0-0.4,0-0.7c0.4,0,0.9-0.1,1.3-0.2
						c-0.3,0.8-0.4,1.7-0.5,2.6c0,0.9,0,2.3,1.2,2.6c0.8,0.2,1.4-0.1,1.9-0.5c0,0.2,0.1,0.3,0.2,0.5c0.4,1,1.4,0.7,2.1,0.4
						c-0.3,1.4-0.6,2.9-1,4.3c-0.1,0.3,0.3,0.4,0.5,0.3c0.3-0.1,0.7-0.3,0.8-0.6c0.3-1,0.6-2.1,0.8-3.1c0.5,0.1,1,0.1,1.5-0.1
						C229.1,146.5,229.6,145.2,229.8,144.1z M209.5,141.4c0-0.5,0-1.1,0.2-1.6c0.1,0,0.2,0,0.3,0.1c0.7,0.4,0.2,1.5,0,2
						c-0.1,0.2-0.2,0.4-0.3,0.6C209.6,142.2,209.5,141.8,209.5,141.4z M215,144c-0.1,0-0.2,0-0.2-0.1c-0.2-0.1-0.4-0.4-0.5-0.6
						c-0.3-0.7-0.4-1.4-0.4-2.1c0-0.6,0.1-1.2,0.4-1.8l0.1,0.1c0.5,0.3,0.7,1,0.8,1.5l0,0C215.1,142.1,215.1,143.1,215,144
						C215.1,144,215,144,215,144L215,144z M217.3,144C217.3,144.1,217.3,144.1,217.3,144C217.3,144.1,217.3,144.1,217.3,144
						c-0.6,0.1-0.9-0.3-0.9-0.7l0,0c0-1,0.1-2,0-3c0-0.5,0.1-0.7,0.1-0.7c0.1,0,0.4,0.1,0.5,0.3c0.5,0.6,0.5,1.4,0.6,2
						C217.7,142.6,217.7,143.4,217.3,144z M227.6,146.2L227.6,146.2C227.6,146.3,227.6,146.3,227.6,146.2c-0.6,0-0.8-0.6-0.7-1
						c0,0,0.4-1.8,0.5-2.8c0-0.1,0.2-0.6,0.3-0.8l0,0l0,0c0.2,0,0.3,0.2,0.4,0.4c0.3,0.7,0.3,1.5,0.2,2.2
						C228.3,144.8,228.1,145.7,227.6,146.2z"/>
				</g>
			</g>
		</g>
		<g>
			<path class="st7" d="M190.9,133.3c-0.1,0-0.2-0.2-0.3-0.2c-0.4-0.1-0.7,0.1-1.1,0.1c-0.9,0-1.3,0-2.4-0.3c0-1,0.5-1.5,0.8-2.3
				c0.2-0.7-0.1-1.4-0.1-2.2c0-0.5,0-0.9,0-1.4c-0.3,0.3-0.2,1.2-0.2,1.6c-0.1-0.6-0.1-1.3-0.3-1.8c-0.1,0.5,0,1.3,0,1.8
				c-0.2-0.5-0.2-1.1-0.4-1.6c-0.3,0.5,0.2,1.3,0.1,1.8c-0.2-0.5-0.3-1-0.5-1.4c-0.1,0.6,0.2,1.1,0.2,1.6c-0.2-0.4-0.3-0.8-0.6-1.1
				c0,0.4,0.3,0.9,0.4,1.3c-0.3-0.1-0.3-0.4-0.6-0.6c0,0.3,0.3,0.5,0.4,0.7c-0.2-0.1-0.3-0.3-0.5-0.4c0,0.3,0.3,0.4,0.3,0.6
				c-0.1-0.1-0.2-0.2-0.4-0.3c0,0.2,0.3,0.4,0.3,0.5c0,0-0.2-0.1-0.2,0c0,0,0.2,0.1,0.1,0.2c-0.1,0-0.1,0-0.2,0
				c0,0.2,0.2,0.1,0.1,0.3c-0.1,0-0.1-0.1-0.1,0s0.1,0.1,0.1,0.2c-0.8,0.8-0.4,1.7-0.4,2.7c0.1-0.1-0.7-0.3-1.2-0.5
				c-0.3-0.1-0.4-0.5-0.6-0.6c0-0.1,0.1,0,0.1-0.1c-0.1,0-0.2-0.1-0.2-0.2c0.1,0,0.3,0.1,0.3,0c-0.1-0.1-0.5-0.2-0.4-0.3
				c0.2,0,0.4,0.1,0.5,0.1c-0.2-0.1-0.6-0.3-0.6-0.5c0.2,0.1,0.5,0.3,0.7,0.2c-0.3-0.2-0.8-0.4-0.9-0.7c0.2,0.1,0.6,0.4,0.8,0.4
				c-0.4-0.1-0.7-0.6-1.1-0.6c0.2,0.4,0.8,0.6,0.9,0.8c-0.3-0.2-0.6-0.3-0.9-0.5c0.1,0.4,0.6,0.5,0.8,0.7c-0.3,0-0.5-0.2-0.8-0.2
				c0.1,0.3,0.6,0.2,0.7,0.5c-0.1-0.1-0.3,0-0.5,0c0,0.2,0.3,0.2,0.5,0.3c-0.2,0-0.3,0-0.4,0.1c0.1,0.1,0.3,0.1,0.4,0.2
				c-0.1,0-0.2,0-0.2,0.1s0.2,0,0.3,0.1c-0.1,0-0.1,0.1-0.1,0.1c0.1,0,0.2,0,0.2,0c-0.1,0-0.1,0-0.1,0.1c0.4,0.2,0.7,0.9,1.2,1.1
				c-0.3,0.2,0.3,0.4-3.4,1.7c0.1,0,1.6-0.4,2.1-0.5c0.5-0.2,0.9-0.3,1.4-0.4c0.1,0,0.2-0.1,0.3-0.1c0.8-0.1,1.5,0.1,2.2-0.4
				c-0.6,0.1-1.6,0.2-2-0.1c0.5-0.8,0.2-2.8,0.5-3.2c0.4-0.4,1-1.7,1.8-0.6c0.1,0.2,0.1,0.4-0.1,0.9c-0.3,0.6-0.6,0.8-0.5,2
				c0,0.2,0,0.5-0.4,0.5c1.6,0.3,2.1,0.2,3,0c0.3,0,0.8-0.3,0.8,0c0,0.1-0.3,0.1-0.6,0.1c-0.4,0,0.2,0.2,0.4,0.1
				c0.1,0,1-0.1,1.4-0.2C191.3,133.4,191.1,133.4,190.9,133.3z"/>
			<path class="st7" d="M186.1,125c-3.7,0-6.7,3-6.7,6.7s3,6.7,6.7,6.7c3.7,0,6.7-3,6.7-6.7C192.8,128,189.8,125,186.1,125
				 M186.1,125.3c3.6,0,6.5,2.9,6.5,6.5s-2.9,6.5-6.5,6.5c-3.6,0-6.5-2.9-6.5-6.5S182.5,125.3,186.1,125.3"/>
		</g>
	</g>
	<g>
		<circle class="st8" cx="329.4" cy="141.3" r="21.1"/>
		<circle class="st6" cx="312.6" cy="160" r="6.6"/>
		<path class="st8" d="M319.4,115.5c0,1.5-1.2,2.7-2.7,2.7s-2.7-1.2-2.7-2.7s1.2-2.7,2.7-2.7S319.4,114,319.4,115.5L319.4,115.5z"/>
		<path class="st6" d="M319.5,124.6c0,1.9-1.5,3.5-3.5,3.5c-1.9,0-3.5-1.5-3.5-3.5c0-1.9,1.6-3.5,3.5-3.5
			C318,121.1,319.5,122.7,319.5,124.6L319.5,124.6z"/>
		<path class="st6" d="M310.3,119.2c0,1.1-0.9,2.1-2.1,2.1c-1.1,0-2.1-0.9-2.1-2.1c0-1.1,0.9-2.1,2.1-2.1
			C309.3,117.2,310.3,118.1,310.3,119.2L310.3,119.2z"/>
		<g>
			<circle class="st6" cx="347.4" cy="122.1" r="11.6"/>
			<g>
				<path class="st4" d="M344.5,120.4c-1,0.1-1.2,1.3-1.3,2l0,0l0,0c0,0.1,0,0.2,0,0.3c0,0.4,0,0.7-0.1,1c0,0.2-0.1,0.5-0.1,0.5
					c-0.3,0-0.6-0.5-0.7-0.7c-0.2-0.6-0.4-1.2-0.5-1.8c-0.1-0.7-0.2-1.4-0.2-2.1c0-0.3,0-0.6,0-0.8c0-0.1,0-0.2,0-0.3s0-0.2,0-0.2
					c0.1-0.5-0.6,0-0.8,0.2c-0.8,1.3-0.5,2.9-0.5,4.4c0,0.4,0,0.8-0.1,1.2c0,0.3-0.1,0.8-0.3,1c-0.1,0.1-0.4,0-0.5,0
					c-0.2-0.1-0.3-0.3-0.3-0.5s-0.3-0.1-0.4,0c-0.2,0.2-0.3,0.5-0.3,0.7c0.1,0.5,0.6,1,1.1,0.8c0.9-0.3,1.2-1.3,1.4-2.1
					c0.1-0.4,0.2-0.8,0.2-1.2c0.1,0.6,0.3,1.1,0.6,1.7c0.2,0.4,0.5,0.8,1,0.7c0.4-0.1,0.6-0.5,0.8-0.9c0.2,0.4,0.4,0.7,0.9,0.6
					c0.5,0,0.9-0.6,1.1-0.9c0.2-0.5,0.3-1,0.3-1.5C345.7,121.7,345.5,120.3,344.5,120.4z M344.8,123.8c0,0.1,0,0.2-0.1,0.3
					c-0.2,0-0.3-0.3-0.4-0.4c-0.2-0.3-0.2-0.7-0.3-1c0-0.4,0-0.7,0-1.1c0-0.1,0-0.2,0.1-0.3c0.5,0.3,0.6,0.9,0.6,1.4
					C344.9,123,344.9,123.4,344.8,123.8z"/>
				<path class="st4" d="M356.1,121.8c-1-0.4-1.6,1-1.8,1.8c-0.2,0.7-0.4,2,0.5,2.4c0.4,0.2,1-0.1,1.2-0.4c0.3-0.4,0.5-0.8,0.6-1.3
					C356.8,123.5,357,122.1,356.1,121.8z M355.5,125.1c0,0.1-0.1,0.2-0.1,0.2c-0.2-0.1-0.2-0.4-0.2-0.6c-0.1-0.4,0-0.7,0-1.1
					c0.1-0.4,0.2-0.7,0.3-1c0-0.1,0.1-0.2,0.1-0.2c0.4,0.5,0.3,1.1,0.2,1.6C355.7,124.4,355.6,124.8,355.5,125.1z"/>
				<path class="st4" d="M353.3,122c0.2-0.3,0.4-0.5,0.6-0.8c0.4-0.6,0.8-1.3,0.7-2c0-0.7-0.9-0.7-1.4-0.5c-0.7,0.3-1,1-1.2,1.7
					c-0.3,0.9-0.4,1.8-0.4,2.7l0,0c-0.3,0.4-1,1.2-1.5,0.9c-0.1-0.1-0.2-0.3-0.3-0.4c0.4-0.5,0.8-0.9,1.1-1.4s0.5-1.3-0.1-1.6
					c-0.5-0.3-1.1,0-1.5,0.5c-0.3,0.4-0.5,0.9-0.5,1.5c0,0.3-0.1,0.8,0,1.2c-0.3,0.2-0.7,0.3-1,0.2c-0.4-0.1-0.5-0.5-0.6-0.8
					c-0.1-0.5-0.1-1,0-1.5c0-0.1,0.1-0.3,0.1-0.4v-0.1c0.2,0.1,0.4,0.5,0.4,0.7c0.1,0.3,1-0.2,0.9-0.5s-0.2-0.7-0.6-0.9
					c-0.4-0.2-0.9,0.1-1.1,0.4c-0.6,0.6-0.7,1.6-0.7,2.4c0,0.5,0.1,1.2,0.6,1.5c0.6,0.4,1.5,0,2.1-0.3c0.2,0.4,0.5,0.7,1,0.6
					c0.6-0.1,1.2-0.4,1.6-0.9c0,0.5,0.1,1,0.5,1.2c0.5,0.3,1.2,0,1.6-0.5c0.5-0.6,0.7-1.4,0.5-2.2C353.9,122.1,353.6,122,353.3,122z
					 M349.8,121.6c0-0.1,0.1-0.3,0.2-0.4l0,0c0.2,0.1,0.3,0.4,0.3,0.6c-0.1,0.4-0.3,0.8-0.6,1.1c0-0.1,0-0.1,0-0.2
					C349.6,122.3,349.6,121.9,349.8,121.6z M353.1,119.6c0.1-0.1,0.2-0.3,0.3-0.4l0,0c0.4,0.5,0,1.1-0.2,1.5s-0.5,0.8-0.8,1.2
					c0.1-0.4,0.1-0.8,0.2-1.2C352.8,120.4,352.9,120,353.1,119.6z M352.9,124.4c0,0-0.1,0.1-0.1,0.2h-0.1c-0.3-0.1-0.3-0.7-0.3-0.9
					s0-0.4,0-0.6c0.1-0.1,0.2-0.2,0.3-0.4c0.2-0.2,0.4,0.1,0.4,0.4C353.2,123.5,353.1,124,352.9,124.4z"/>
			</g>
		</g>
		<g>
			<path class="st4" d="M308.1,159c0.2-0.6,0.7-0.2,0.9,0.1c0.2,0.5,0,0.9-0.3,1.3c-0.2,0.3-0.5,0.6-0.9,0.8
				c-0.2,0.1-0.3,0.2-0.4,0.4c0,0.1-0.1,0.2,0,0.3c0.2,0.2,0.7,0.2,1,0.2c0.5,0,1,0,1.5-0.2c0.3-0.1,0.5-0.7,0-0.5
				c-0.4,0.2-0.8,0.1-1.2,0.1c-0.2,0-0.6,0-0.8-0.1c0,0.1,0,0.2,0,0.3c-0.2,0.4-0.1,0.2,0.1,0.1c0.1-0.1,0.3-0.2,0.4-0.3
				c0.2-0.2,0.5-0.4,0.7-0.7c0.4-0.5,0.7-1.1,0.5-1.7c-0.3-1.4-1.8-0.4-2.1,0.4C307.4,159.6,308,159.2,308.1,159L308.1,159z"/>
			<path class="st4" d="M311.8,161.4c0.5,1.6,2.9,0.5,2.5-0.9c-0.2-0.7-1-0.6-1.6-0.8c-0.3-0.1-0.3-0.4-0.3-0.6
				c0.1-0.3,0.1-0.4-0.1-0.2c0.1,0,0.2-0.1,0.3-0.1c0.5-0.1,1-0.1,1.5,0.1c0.2,0.1,0.7-0.4,0.4-0.6c-0.6-0.3-1.3-0.2-1.9-0.1
				c-0.6,0.1-0.7,0.7-0.8,1.2c0,0.7,0.6,0.8,1.1,0.9c0.4,0.1,0.8,0.2,0.8,0.6c0.1,0.7-0.7,0.7-1.1,0.4c-0.2-0.1-0.3-0.3-0.3-0.5
				C312.3,160.7,311.7,161.1,311.8,161.4L311.8,161.4z"/>
			<g>
				<path class="st4" d="M317.4,158.5c-0.7,1.1-1.5,2.2-2.3,3.2c-0.3,0.5,0.2,0.4,0.4,0.1c0.8-1.1,1.7-2.2,2.4-3.4
					C318.2,157.9,317.5,158.2,317.4,158.5L317.4,158.5z"/>
				<path class="st4" d="M316.1,158.2c-0.4,0-0.7,0.4-0.8,0.8c-0.1,0.4,0.1,0.7,0.5,0.7C316.6,159.7,317,158.2,316.1,158.2
					c-0.2,0-0.5,0.4-0.2,0.4c0.2,0,0.3,0.2,0.3,0.4c0,0.1,0,0.2,0,0.2c0,0.1,0,0,0,0h-0.1c-0.2,0-0.3-0.2-0.3-0.3s0-0.2,0-0.2l0,0
					h0.1C316.1,158.6,316.4,158.1,316.1,158.2z"/>
				<path class="st4" d="M317.3,160.6c-0.4,0-0.7,0.4-0.8,0.8c-0.1,0.4,0.1,0.7,0.5,0.7C317.8,162,318.2,160.6,317.3,160.6
					c-0.2,0-0.5,0.4-0.2,0.4c0.2,0,0.3,0.2,0.3,0.4c0,0.1,0,0.2,0,0.2c0,0.1,0,0,0,0h-0.1c-0.2,0-0.3-0.2-0.3-0.3s0-0.2,0-0.2l0,0
					h0.1C317.2,161,317.5,160.5,317.3,160.6z"/>
			</g>
			<path class="st4" d="M310.8,162.8c0.3-0.3,0.5-0.7,0.6-1c0-0.1,0-0.3-0.1-0.4c-0.1-0.1-0.4,0-0.5,0c-0.2,0.1-0.3,0.3-0.4,0.5
				c0,0.2,0.2,0.2,0.3,0.1l0,0l0,0c0,0.1,0,0.1,0,0.2c0,0.1-0.1,0.2-0.1,0.2s0,0,0,0.1l0,0c0,0,0,0,0,0.1c0.1-0.1,0,0,0,0
				c-0.1,0.1-0.3,0.3-0.2,0.4C310.5,163.1,310.8,162.9,310.8,162.8L310.8,162.8z"/>
		</g>
		<g>
			<g>
				<g>
					<path class="st4" d="M346.4,144.1c0.2-1.1,0.3-2.5-0.5-3.4c-0.4-0.5-1.3-0.5-1.9-0.3c0-0.5,0.1-0.9,0.1-1.4
						c0-0.4-0.8-0.3-0.9-0.2c-0.4,0.1-0.8,0.4-0.8,0.8c-0.1,1.5-0.2,3.1-0.4,4.7l0,0c-0.1,0.5-0.3,1.2-0.8,1.4s-0.7-1.3-0.7-1.5
						c0-1.6,0.3-3.1,0.6-4.7c0.1-0.4-0.4-0.4-0.7-0.4c-0.4,0.1-0.9,0.4-1,0.7c-0.2,1.2-0.4,2.4-0.7,3.5c-0.1,0.5-0.3,1-0.6,1.5
						c0,0,0,0,0,0.1c-0.1,0-0.2-0.1-0.3-0.1c-0.8-0.5-0.6-2-0.5-2.7c0.1-1,0.4-2,0.8-3c0.1-0.3,0-0.5-0.5-0.5
						c-0.2,0-0.5,0.1-0.7,0.2c-0.1,0.1-0.4,0.3-0.5,0.3c-0.1,0.1-0.2,0.1-0.4,0.1c-0.9,0.3-1.5-0.1-2-0.7l0,0
						c-0.1-0.2-0.3-0.3-0.5-0.4c-0.6-0.4-1.3-0.1-1.9,0.1c0-0.5-0.1-0.9-0.2-1.4c-0.1-0.4-0.8-0.1-1,0c-0.3,0.2-0.7,0.5-0.7,0.9
						c-0.5,0.1-0.9,0.3-1.2,0.6c-0.9,0.8-1.3,2-1.3,3.3l0,0c-0.1,1.1-0.7,2.7-2,2.6c-0.3,0-0.5-0.4-0.7-0.7c0.4-0.6,0.8-1.2,1.1-1.7
						c0.6-1,1.1-2.5,0.3-3.5c-0.5-0.6-1.8-0.1-2.4,0.5c-0.8,0.7-1,1.7-1,2.6c0,0.6,0,1.8,0.3,2.7c-0.2,0.3-0.5,0.6-0.8,0.4
						c-0.3-0.1-0.4-0.5-0.4-0.7c-0.3-0.8-0.3-1.8-0.6-2.6c-0.5-1.2-1.7-1.2-2.9-0.7c-0.2-1-0.2-2.2,0.3-3.2c0.5-1.2,1.8-0.7,2.6-0.2
						c0.5,0.3,1.9-1,1.3-1.4c-0.7-0.5-1.7-0.9-2.7-0.5c-0.9,0.3-1.6,1-2.1,1.7c-0.1,0.1-0.2,0.3-0.3,0.4c-0.3-0.8-0.5-1.6-0.8-2.3
						c-0.1-0.3-0.6,0-0.8,0.1c-1.6,1.1-4.3,3.5-3.3,5.7c0.2,0.5,1.5-1,1.3-1.5c-0.4-0.8,0.5-1.9,1.5-2.6c0.6,1.8,1.2,3.7,1.6,5.5
						c0.3,1.1,0.5,2.5-0.1,3.5c-0.6,1.1-2,0.4-2.2-0.5c-0.1-0.8-1.3,0.7-1.2,1.2c0.1,0.6,0.5,1.1,1.1,1.4c0.6,0.2,1.2-0.1,1.8-0.4
						c1.3-0.8,2-2.3,2.2-3.8c0.1-0.6,0-1.2,0-1.9c0.4-0.1,0.8-0.1,1.1,0.3c0.6,0.7,0.6,1.8,0.9,2.7c0.2,0.6,0.5,1.4,1.3,1.3
						c0.7-0.1,1.2-0.6,1.7-1.1c0.3,0.4,0.6,0.6,1.1,0.7c0.9,0.1,1.8-0.6,2.4-1.1c0.2-0.2,0.4-0.4,0.6-0.7c0.1,0.4,0.4,0.8,0.6,1.1
						c0.3,0.4,0.8,0.5,1.4,0.4c0.2,0,0.4-0.1,0.6-0.2c-0.1,1.5-0.2,2.9-0.3,4.4c0,0.4,0.4,0.3,0.6,0.2c0.3-0.2,0.7-0.5,0.7-0.9
						c0.2-1.2,0.3-2.3,0.3-3.5c0.5,0,1.2-0.2,1.6-0.5c1.1-0.9,1.4-2.3,1.4-3.6c0-0.2,0-0.5,0-0.8c0.5,0,1-0.1,1.4-0.2
						c-0.3,0.9-0.5,1.9-0.5,2.8c0,0.9,0,2.5,1.3,2.9c0.8,0.2,1.5-0.1,2.1-0.6c0,0.2,0.1,0.4,0.2,0.5c0.4,1,1.6,0.8,2.3,0.5
						c-0.3,1.6-0.7,3.1-1.1,4.7c-0.1,0.4,0.3,0.4,0.6,0.4c0.4-0.1,0.7-0.3,0.9-0.7c0.3-1.1,0.6-2.2,0.9-3.4c0.5,0.2,1.1,0.1,1.6-0.1
						C345.6,146.7,346.1,145.3,346.4,144.1z M324.3,141.2c0-0.6,0-1.1,0.2-1.7c0.1,0,0.2,0,0.3,0.1c0.7,0.4,0.2,1.6,0,2.2
						c-0.1,0.2-0.2,0.5-0.3,0.7C324.4,142,324.3,141.6,324.3,141.2z M330.2,144.1c-0.1,0-0.2,0-0.3-0.1c-0.3-0.1-0.4-0.4-0.6-0.6
						c-0.4-0.7-0.5-1.5-0.4-2.3c0-0.6,0.1-1.3,0.4-1.9c0.1,0,0.1,0.1,0.1,0.1c0.5,0.4,0.8,1.1,0.8,1.7l0,0
						C330.3,141.9,330.4,143,330.2,144.1C330.3,144.1,330.3,144.1,330.2,144.1C330.3,144.1,330.3,144.1,330.2,144.1z M332.8,144.1
						L332.8,144.1c-0.1,0.1-0.1,0.1-0.1,0.1c-0.6,0-0.9-0.4-0.9-0.9l0,0c0-1.1,0.1-2.2,0-3.3c0-0.6,0.2-0.8,0.2-0.8
						c0.1,0,0.4,0.1,0.6,0.3c0.5,0.6,0.6,1.5,0.6,2.2C333.2,142.5,333.2,143.4,332.8,144.1z M344,146.4L344,146.4
						c-0.1,0.1-0.1,0.1-0.1,0.1c-0.6-0.1-0.7-0.7-0.7-1.2c0,0,0.4-2,0.5-3c0-0.1,0.2-0.7,0.3-0.9l0,0l0,0c0.2,0,0.3,0.3,0.5,0.5
						c0.4,0.7,0.3,1.7,0.2,2.4C344.7,144.9,344.5,145.8,344,146.4z"/>
				</g>
			</g>
		</g>
		<g>
			<path class="st7" d="M303.8,132.4c-0.1,0-0.2-0.2-0.3-0.2c-0.4-0.2-0.8,0.1-1.2,0.1c-1,0-1.4,0-2.6-0.4c0-1.1,0.6-1.7,0.9-2.5
				c0.2-0.7-0.1-1.5-0.1-2.4c0-0.5,0-1,0-1.5c-0.3,0.3-0.2,1.3-0.2,1.7c-0.2-0.6-0.1-1.4-0.3-2c-0.2,0.6,0,1.4,0,2
				c-0.2-0.6-0.2-1.2-0.4-1.7c-0.3,0.6,0.2,1.4,0.1,1.9c-0.2-0.5-0.3-1.1-0.6-1.5c-0.1,0.7,0.2,1.2,0.2,1.7
				c-0.2-0.4-0.3-0.9-0.6-1.2c0,0.4,0.3,1,0.4,1.4c-0.3-0.1-0.4-0.5-0.7-0.6c0.1,0.3,0.3,0.5,0.4,0.8c-0.2-0.1-0.3-0.3-0.5-0.4
				c0,0.3,0.3,0.4,0.3,0.7c-0.1-0.1-0.3-0.2-0.4-0.3c0,0.2,0.3,0.4,0.3,0.5c0,0-0.2-0.1-0.2,0c0.1,0,0.2,0.2,0.1,0.2s-0.2,0-0.2,0
				c0,0.2,0.2,0.1,0.1,0.3c-0.1,0-0.1-0.1-0.1,0s0.1,0.1,0.1,0.2c-0.9,0.9-0.4,1.9-0.5,2.9c0.1-0.1-0.7-0.3-1.3-0.5
				c-0.3-0.1-0.4-0.5-0.6-0.6c0-0.1,0.1,0,0.1-0.1c-0.1,0-0.2-0.1-0.2-0.2c0.1,0,0.3,0.1,0.3,0c-0.2-0.1-0.6-0.2-0.5-0.3
				c0.2,0,0.4,0.1,0.6,0.1c-0.2-0.1-0.7-0.3-0.7-0.5c0.2,0.1,0.5,0.3,0.8,0.2c-0.4-0.2-0.9-0.5-1-0.7c0.3,0.1,0.6,0.5,0.9,0.4
				c-0.4-0.1-0.8-0.6-1.2-0.6c0.2,0.4,0.8,0.6,1,0.9c-0.3-0.2-0.7-0.3-1-0.5c0.1,0.4,0.6,0.5,0.9,0.8c-0.3,0-0.5-0.2-0.8-0.2
				c0.1,0.3,0.6,0.3,0.8,0.5c-0.1-0.1-0.4,0-0.5,0c0,0.2,0.4,0.2,0.5,0.3c-0.2,0-0.3,0-0.4,0.1c0.1,0.1,0.4,0.1,0.4,0.2
				c-0.1,0-0.2,0-0.2,0.1s0.3,0,0.3,0.1c-0.1,0-0.1,0.1-0.1,0.1c0.1,0,0.2,0,0.2,0c-0.1,0-0.1,0.1-0.1,0.1c0.5,0.2,0.7,1,1.4,1.2
				c-0.4,0.3,0.3,0.5-3.7,1.9c0.1,0,1.8-0.4,2.3-0.6c0.5-0.2,1-0.3,1.5-0.5c0.1,0,0.2-0.1,0.4-0.1c0.8-0.1,1.6,0.1,2.4-0.5
				c-0.6,0.1-1.7,0.2-2.1-0.1c0.6-0.9,0.2-3,0.6-3.5c0.5-0.4,1.1-1.8,2-0.6c0.1,0.2,0.2,0.5-0.1,1c-0.4,0.6-0.6,0.9-0.5,2.2
				c0,0.3,0,0.6-0.4,0.5c1.8,0.4,2.3,0.2,3.3,0c0.3,0,0.8-0.3,0.9,0c0,0.1-0.3,0.1-0.6,0.1c-0.5,0,0.2,0.2,0.4,0.2
				c0.1,0,1-0.1,1.5-0.2C304.4,132.5,304.1,132.5,303.8,132.4z"/>
			<path class="st7" d="M298.7,123.4c-4,0-7.3,3.3-7.3,7.3s3.3,7.3,7.3,7.3s7.3-3.3,7.3-7.3C306,126.6,302.7,123.4,298.7,123.4
				 M298.7,123.7c3.9,0,7,3.2,7,7c0,3.9-3.2,7-7,7c-3.9,0-7-3.2-7-7C291.6,126.8,294.8,123.7,298.7,123.7"/>
		</g>
	</g>
</g>
<g id="snow">
	<g>
		
			<linearGradient id="SVGID_1_" gradientUnits="userSpaceOnUse" x1="376.7257" y1="204.8433" x2="394.5013" y2="154.4789" gradientTransform="matrix(1 0 0 -1 0 250)">
			<stop  offset="0" style="stop-color:#404B71"/>
			<stop  offset="0.6044" style="stop-color:#3C476E"/>
			<stop  offset="1" style="stop-color:#354169"/>
		</linearGradient>
		<path class="st9" d="M381.1,90.5l-1.9-7.1l1.7-3l0.2,0.9c0.3,0.9,1.2,1.5,2.2,1.2c0.2,0,0.3-0.1,0.4-0.2c0.7-0.4,1-1.2,0.8-2
			l-1.1-4.3l2.1-3.7l2.1,3.7l-1.2,4.3c-0.3,0.9,0.3,1.9,1.2,2.2c0.5,0.1,0.9,0,1.3-0.2s0.7-0.6,0.8-1.1l0.2-0.9l1.7,3l-1.9,7.1
			c-0.3,0.9,0.3,1.9,1.2,2.2c0.5,0.1,0.9,0,1.3-0.2s0.7-0.6,0.8-1.1l1-3.7l2.8,4.8c0.5,0.8,1.6,1.1,2.4,0.6s1.1-1.6,0.6-2.4
			l-2.8-4.8l3.7,1c0.5,0.1,0.9,0,1.3-0.2s0.7-0.6,0.8-1.1c0.3-0.9-0.3-1.9-1.2-2.2l-7.1-1.9l-1.7-3l0.9,0.2c0.5,0.1,0.9,0.1,1.3-0.2
			c0.4-0.2,0.7-0.6,0.8-1.1c0.3-0.9-0.3-1.9-1.2-2.2l-4.3-1.1l-2.1-3.7h4.2l3.1,3.1c0.6,0.6,1.5,0.7,2.1,0.3
			c0.1-0.1,0.3-0.2,0.4-0.3c0.7-0.7,0.7-1.8,0-2.5l-0.6-0.6h3.5l5.2,5.2c0.6,0.6,1.5,0.7,2.1,0.3c0.1-0.1,0.3-0.2,0.4-0.3
			c0.7-0.7,0.7-1.8,0-2.5l-2.7-2.7h5.6c0.3,0,0.6-0.1,0.9-0.2c0.5-0.3,0.9-0.9,0.9-1.5c0-1-0.8-1.8-1.8-1.8h-5.6l2.7-2.7
			c0.7-0.7,0.7-1.8,0-2.5s-1.8-0.7-2.5,0l-5.2,5.2h-3.5l0.6-0.6c0.7-0.7,0.7-1.8,0-2.5s-1.8-0.7-2.5,0l-3.1,3.1h-4.2l2.1-3.7
			l4.3-1.1c0.2,0,0.3-0.1,0.4-0.2c0.7-0.4,1-1.2,0.8-2c-0.3-0.9-1.2-1.5-2.2-1.2l-0.9,0.2l1.7-3l7.1-1.9c0.2,0,0.3-0.1,0.4-0.2
			c0.7-0.4,1-1.2,0.8-2c-0.3-0.9-1.2-1.5-2.2-1.2l-3.7,1l2.8-4.8c0.5-0.8,0.2-1.9-0.6-2.4c-0.8-0.5-1.9-0.2-2.4,0.6l-2.8,4.8l-1-3.7
			c-0.3-0.9-1.2-1.5-2.2-1.2c-0.9,0.3-1.5,1.2-1.2,2.2l1.9,7.1l-1.7,3l-0.2-0.9c-0.3-0.9-1.2-1.5-2.2-1.2c-0.9,0.3-1.5,1.2-1.2,2.2
			l1.1,4.3l-2.1,3.7l-2.1-3.7l1.1-4.3c0.3-0.9-0.3-1.9-1.2-2.2c-0.9-0.3-1.9,0.3-2.2,1.2l-0.2,0.9l-1.7-3l1.9-7.1
			c0.3-0.9-0.3-1.9-1.2-2.2c-0.9-0.3-1.9,0.3-2.2,1.2l-1,3.7l-2.8-4.8c-0.5-0.8-1.6-1.1-2.4-0.6s-1.1,1.6-0.6,2.4l2.8,4.8l-3.7-1
			c-0.9-0.3-1.9,0.3-2.2,1.2c-0.3,0.9,0.3,1.9,1.2,2.2l7.1,1.9l1.7,3l-0.9-0.2c-0.9-0.3-1.9,0.3-2.2,1.2c-0.3,0.9,0.3,1.9,1.2,2.2
			l4.3,1.1l2.1,3.7h-4.2l-3.1-3.1c-0.7-0.7-1.8-0.7-2.5,0s-0.7,1.8,0,2.5l0.6,0.6h-3.5l-5.2-5.2c-0.7-0.7-1.8-0.7-2.5,0
			s-0.7,1.8,0,2.5l2.7,2.7h-5.6c-1,0-1.8,0.8-1.8,1.8s0.8,1.8,1.8,1.8h5.6l-2.7,2.7c-0.7,0.7-0.7,1.8,0,2.5c0.6,0.6,1.5,0.7,2.1,0.3
			c0.1-0.1,0.3-0.2,0.4-0.3l5.2-5.2h3.5L372,71c-0.7,0.7-0.7,1.8,0,2.5c0.6,0.6,1.5,0.7,2.1,0.3c0.1-0.1,0.3-0.2,0.4-0.3l3.1-3.1
			h4.2l-2.1,3.7l-4.3,1.1c-0.9,0.3-1.5,1.2-1.2,2.2c0.3,0.9,1.2,1.5,2.2,1.2l0.9-0.2l-1.7,3l-7.1,1.9c-0.9,0.3-1.5,1.2-1.2,2.2
			c0.3,0.9,1.2,1.5,2.2,1.2l3.7-1l-2.8,4.8c-0.5,0.8-0.2,1.9,0.6,2.4c0.6,0.3,1.2,0.3,1.8,0c0.3-0.1,0.5-0.4,0.6-0.6l2.8-4.8l1,3.7
			c0.3,0.9,1.2,1.5,2.2,1.2c0.2,0,0.3-0.1,0.4-0.2C381,92.1,381.4,91.3,381.1,90.5z"/>
		
			<linearGradient id="SVGID_2_" gradientUnits="userSpaceOnUse" x1="244.7775" y1="133.8639" x2="250.1519" y2="118.6363" gradientTransform="matrix(1 0 0 -1 0 250)">
			<stop  offset="0" style="stop-color:#404B71"/>
			<stop  offset="0.6044" style="stop-color:#3C476E"/>
			<stop  offset="1" style="stop-color:#354169"/>
		</linearGradient>
		<path class="st10" d="M246.5,129.7l-0.6-2.1l0.5-0.9l0.1,0.3c0.1,0.3,0.4,0.5,0.7,0.4c0,0,0.1,0,0.1-0.1c0.2-0.1,0.3-0.4,0.2-0.6
			l-0.3-1.3l0.6-1.1l0.6,1.1l-0.3,1.3c-0.1,0.3,0.1,0.6,0.4,0.7c0.1,0,0.3,0,0.4-0.1c0.1-0.1,0.2-0.2,0.2-0.3l0.1-0.3l0.5,0.9
			l-0.6,2.1c-0.1,0.3,0.1,0.6,0.4,0.7c0.1,0,0.3,0,0.4-0.1c0.1-0.1,0.2-0.2,0.2-0.3l0.3-1.1l0.8,1.5c0.1,0.3,0.5,0.3,0.7,0.2
			c0.3-0.1,0.3-0.5,0.2-0.7l-0.8-1.5l1.1,0.3c0.1,0,0.3,0,0.4-0.1c0.1-0.1,0.2-0.2,0.2-0.3c0.1-0.3-0.1-0.6-0.4-0.7l-2.1-0.6
			l-0.5-0.9l0.3,0.1c0.1,0,0.3,0,0.4-0.1c0.1-0.1,0.2-0.2,0.2-0.3c0.1-0.3-0.1-0.6-0.4-0.7l-1.3-0.3l-0.6-1.1h1.3l0.9,0.9
			c0.2,0.2,0.4,0.2,0.6,0.1l0.1-0.1c0.2-0.2,0.2-0.5,0-0.8l-0.2-0.2h1.1l1.6,1.6c0.2,0.2,0.4,0.2,0.6,0.1c0,0,0.1,0,0.1-0.1
			c0.2-0.2,0.2-0.5,0-0.8l-0.8-0.8h1.7c0.1,0,0.2,0,0.3-0.1c0.2-0.1,0.3-0.3,0.3-0.5c0-0.3-0.2-0.5-0.5-0.5H254l0.8-0.8
			c0.2-0.2,0.2-0.5,0-0.8c-0.2-0.2-0.5-0.2-0.8,0l-1.6,1.6h-1.1l0.2-0.2c0.2-0.2,0.2-0.5,0-0.8c-0.2-0.2-0.5-0.2-0.8,0l-0.9,0.9
			h-1.3l0.6-1.1l1.3-0.3c0,0,0.1,0,0.1-0.1c0.2-0.1,0.3-0.4,0.2-0.6c-0.1-0.3-0.4-0.5-0.7-0.4l-0.3,0.1l0.5-0.9l2.1-0.6
			c0,0,0.1,0,0.1-0.1c0.2-0.1,0.3-0.4,0.2-0.6c-0.1-0.3-0.4-0.5-0.7-0.4l-1.1,0.3l0.8-1.5c0.1-0.3,0.1-0.6-0.2-0.7
			c-0.3-0.1-0.6-0.1-0.7,0.2l-0.8,1.5l-0.3-1.1c-0.1-0.3-0.4-0.5-0.7-0.4s-0.5,0.4-0.4,0.7l0.6,2.1l-0.5,0.9l-0.1-0.3
			c-0.1-0.3-0.4-0.5-0.7-0.4s-0.5,0.4-0.4,0.7l0.3,1.3l-0.6,1.1l-0.6-1.1l0.3-1.3c0.1-0.3-0.1-0.6-0.4-0.7c-0.3-0.1-0.6,0.1-0.7,0.4
			l-0.1,0.3l-0.5-0.9l0.6-2.1c0.1-0.3-0.1-0.6-0.4-0.7c-0.3-0.1-0.6,0.1-0.7,0.4l-0.3,1.1l-0.8-1.5c-0.1-0.3-0.5-0.3-0.7-0.2
			c-0.3,0.1-0.3,0.5-0.2,0.7l0.8,1.5l-1.1-0.3c-0.3-0.1-0.6,0.1-0.7,0.4c-0.1,0.3,0.1,0.6,0.4,0.7l2.1,0.6l0.5,0.9l-0.3-0.1
			c-0.3-0.1-0.6,0.1-0.7,0.4c-0.1,0.3,0.1,0.6,0.4,0.7l1.3,0.3l0.6,1.1h-1.3l-0.9-0.9c-0.2-0.2-0.5-0.2-0.8,0
			c-0.2,0.2-0.2,0.5,0,0.8l0.2,0.2H242l-1.6-1.6c-0.2-0.2-0.5-0.2-0.8,0c-0.2,0.2-0.2,0.5,0,0.8l0.8,0.8h-1.7
			c-0.3,0-0.5,0.2-0.5,0.5s0.2,0.5,0.5,0.5h1.7l-0.8,0.8c-0.2,0.2-0.2,0.5,0,0.8c0.2,0.2,0.4,0.2,0.6,0.1c0,0,0.1,0,0.1-0.1l1.6-1.6
			h1.1l-0.2,0.2c-0.2,0.2-0.2,0.5,0,0.8c0.2,0.2,0.4,0.2,0.6,0.1l0.1-0.1l0.9-0.9h1.3l-0.6,1.1l-1.3,0.3c-0.3,0.1-0.5,0.4-0.4,0.7
			s0.4,0.5,0.7,0.4l0.3-0.1l0.6,1l-2.1,0.6c-0.3,0.1-0.5,0.4-0.4,0.7s0.4,0.5,0.7,0.4l1.1-0.3l-0.8,1.5c-0.1,0.3-0.1,0.6,0.2,0.7
			c0.2,0.1,0.4,0.1,0.5,0c0.1,0,0.1-0.1,0.2-0.2l0.8-1.5l0.3,1.1c0.1,0.3,0.4,0.5,0.7,0.4c0,0,0.1,0,0.1-0.1
			C246.4,130.2,246.6,130,246.5,129.7z"/>
		
			<linearGradient id="SVGID_3_" gradientUnits="userSpaceOnUse" x1="173.1807" y1="106.7509" x2="184.7665" y2="73.9245" gradientTransform="matrix(1 0 0 -1 0 250)">
			<stop  offset="0" style="stop-color:#404B71"/>
			<stop  offset="0.6044" style="stop-color:#3C476E"/>
			<stop  offset="1" style="stop-color:#354169"/>
		</linearGradient>
		<path class="st11" d="M175.7,172.9l-1.2-4.6l1.1-2l0.2,0.6c0.2,0.6,0.8,1,1.4,0.8c0.1,0,0.2-0.1,0.3-0.1c0.4-0.3,0.7-0.8,0.5-1.3
			l-0.7-2.8l1.4-2.4l1.4,2.4l-0.8,2.8c-0.2,0.6,0.2,1.2,0.8,1.4c0.3,0.1,0.6,0,0.9-0.1c0.3-0.1,0.5-0.4,0.5-0.7l0.2-0.6l1.1,2
			l-1.2,4.6c-0.2,0.6,0.2,1.2,0.8,1.4c0.3,0.1,0.6,0,0.9-0.1c0.3-0.1,0.5-0.4,0.5-0.7l0.6-2.4l1.8,3.2c0.3,0.5,1,0.7,1.6,0.4
			c0.5-0.3,0.7-1,0.4-1.6l-1.8-3.2l2.4,0.6c0.3,0.1,0.6,0,0.9-0.1s0.5-0.4,0.5-0.7c0.2-0.6-0.2-1.2-0.8-1.4l-4.6-1.2l-1.1-2l0.6,0.2
			c0.3,0.1,0.6,0,0.9-0.1s0.5-0.4,0.5-0.7c0.2-0.6-0.2-1.2-0.8-1.4l-2.8-0.7l-1.4-2.4h2.8l2,2c0.4,0.4,0.9,0.4,1.4,0.2
			c0.1,0,0.2-0.1,0.2-0.2c0.4-0.4,0.4-1.2,0-1.6l-0.4-0.4h2.3l3.4,3.4c0.4,0.4,0.9,0.4,1.4,0.2c0.1-0.1,0.2-0.1,0.2-0.2
			c0.4-0.4,0.4-1.2,0-1.6l-1.8-1.8h3.6c0.2,0,0.4-0.1,0.6-0.2c0.3-0.2,0.6-0.6,0.6-1c0-0.6-0.5-1.2-1.2-1.2h-3.6l1.8-1.8
			c0.4-0.4,0.4-1.2,0-1.6c-0.4-0.5-1.2-0.4-1.6,0l-3.4,3.4h-2.3l0.4-0.4c0.4-0.4,0.4-1.2,0-1.6c-0.5-0.4-1.2-0.4-1.6,0l-2,2h-2.8
			l1.4-2.4l2.8-0.7c0.1,0,0.2-0.1,0.3-0.1c0.4-0.3,0.7-0.8,0.5-1.3c-0.2-0.6-0.8-1-1.4-0.8l-0.6,0.2l1.1-2l4.6-1.2
			c0.1,0,0.2-0.1,0.3-0.1c0.4-0.3,0.7-0.8,0.5-1.3c-0.2-0.6-0.8-1-1.4-0.8l-2.4,0.6l1.8-3.2c0.3-0.6,0.1-1.3-0.4-1.6
			s-1.3-0.1-1.6,0.4l-1.8,3.2l-0.6-2.4c-0.2-0.6-0.8-1-1.4-0.8s-1,0.8-0.8,1.4l1.2,4.6l-1.1,2l-0.2-0.6c-0.2-0.6-0.8-1-1.4-0.8
			s-1,0.8-0.8,1.4l0.7,2.8l-1.4,2.4l-1.4-2.4l0.7-2.8c0.2-0.6-0.2-1.2-0.8-1.4c-0.6-0.2-1.2,0.2-1.4,0.8l-0.2,0.6l-1.1-2l1.2-4.6
			c0.2-0.6-0.2-1.2-0.8-1.4s-1.2,0.2-1.4,0.8l-0.6,2.4l-1.8-3.2c-0.3-0.5-1-0.7-1.6-0.4c-0.6,0.3-0.7,1-0.4,1.6l1.8,3.2l-2.4-0.6
			c-0.6-0.2-1.2,0.2-1.4,0.8s0.2,1.2,0.8,1.4l4.6,1.2l1.1,2l-0.6-0.2c-0.6-0.2-1.2,0.2-1.4,0.8s0.2,1.2,0.8,1.4l2.8,0.7l1.4,2.4
			h-2.8l-2-2c-0.4-0.5-1.2-0.4-1.6,0c-0.4,0.5-0.4,1.2,0,1.6l0.4,0.4h-2.3l-3.4-3.4c-0.4-0.4-1.2-0.4-1.6,0c-0.4,0.4-0.4,1.2,0,1.6
			l1.8,1.8h-3.6c-0.6,0-1.1,0.5-1.1,1.1s0.5,1.1,1.1,1.1h3.6l-1.8,1.8c-0.4,0.5-0.4,1.2,0,1.6c0.4,0.4,0.9,0.4,1.4,0.2
			c0.1,0,0.2-0.1,0.2-0.2l3.4-3.4h2.3l-0.4,0.4c-0.4,0.4-0.4,1.2,0,1.6c0.4,0.4,0.9,0.4,1.4,0.2c0.1,0,0.2-0.1,0.2-0.2l2-2h2.8
			l-1.4,2.4l-2.8,0.7c-0.6,0.2-1,0.8-0.8,1.4c0.2,0.6,0.8,1,1.4,0.8l0.6-0.2l-1.1,2l-4.6,1.2c-0.6,0.2-1,0.8-0.8,1.4
			c0.2,0.6,0.8,1,1.4,0.8l2.4-0.6l-1.8,3.2c-0.3,0.6-0.1,1.3,0.4,1.6c0.4,0.2,0.8,0.2,1.2,0c0.2-0.1,0.3-0.2,0.4-0.4l1.8-3.2
			l0.6,2.4c0.2,0.6,0.8,1,1.4,0.8c0.1,0,0.2-0.1,0.3-0.1C175.6,174,175.9,173.4,175.7,172.9z"/>
		
			<linearGradient id="SVGID_4_" gradientUnits="userSpaceOnUse" x1="303.3824" y1="104.1186" x2="335.7352" y2="28.3993" gradientTransform="matrix(1 0 0 -1 0 250)">
			<stop  offset="0" style="stop-color:#404B71"/>
			<stop  offset="0.6044" style="stop-color:#3C476E"/>
			<stop  offset="1" style="stop-color:#354169"/>
		</linearGradient>
		<path class="st12" d="M356.1,179.9h-7l3.4-3.4c0.9-0.9,0.9-2.3,0-3.1c-0.9-0.9-2.3-0.9-3.1,0l-6.5,6.5h-4.4l1.9-1.9
			c0.9-0.9,0.9-2.3,0-3.1c-0.9-0.9-2.3-0.9-3.1,0l-5.1,5.1h-4.3l0.1-0.1c0.8-0.8,0.9-2.2,0.1-3c-0.3-1.1-1.5-1.8-2.7-1.5l-0.2,0.1
			l2.1-3.7l6.9-1.9c0.2,0,0.4-0.1,0.5-0.2c0.8-0.5,1.3-1.5,1-2.5c-0.3-1.2-1.5-1.9-2.7-1.6l-2.6,0.7l2.2-3.8l8.9-2.4
			c0.2-0.1,0.4-0.1,0.5-0.2c0.8-0.5,1.3-1.5,1-2.5c-0.3-1.2-1.5-1.9-2.7-1.6l-4.6,1.2l3.5-6.1c0.6-1.1,0.2-2.4-0.8-3
			c-1.1-0.6-2.4-0.2-3,0.8l-3.5,6.1l-1.2-4.6c-0.3-1.2-1.5-1.9-2.7-1.6c-1.2,0.3-1.9,1.5-1.6,2.7l2.4,8.9l-2.2,3.8l-0.7-2.6
			c-0.3-1.2-1.5-1.9-2.7-1.6c-1.2,0.3-1.9,1.5-1.6,2.7l1.9,6.9l-2.1,3.7v-0.2c-0.3-1.2-1.5-1.8-2.6-1.6c-1.1-0.2-2.3,0.4-2.6,1.6
			v0.2l-2.1-3.7l1.9-6.9c0.3-1.2-0.4-2.4-1.6-2.7c-1.2-0.3-2.4,0.4-2.7,1.6L311,164l-2.2-3.8l2.4-8.9c0.3-1.2-0.4-2.4-1.6-2.7
			c-1.2-0.3-2.4,0.4-2.7,1.6l-1.2,4.6l-3.5-6.1c-0.6-1.1-2-1.4-3-0.8c-1.1,0.6-1.4,2-0.8,3l3.5,6.1l-4.6-1.2
			c-1.2-0.3-2.4,0.4-2.7,1.6c-0.3,1.2,0.4,2.4,1.6,2.7l8.9,2.4l2.2,3.8l-2.6-0.7c-1.2-0.3-2.4,0.4-2.7,1.6c-0.3,1.2,0.4,2.4,1.6,2.7
			l6.9,1.9l2.1,3.7h-0.2c-1.1-0.3-2.3,0.3-2.6,1.4c-0.9,0.9-0.8,2.3,0,3.1l0.1,0.1h-4.3l-5.1-5.1c-0.9-0.9-2.3-0.9-3.1,0
			c-0.9,0.9-0.9,2.3,0,3.1l1.9,1.9h-4.4l-6.5-6.5c-0.9-0.9-2.3-0.9-3.1,0c-0.9,0.9-0.9,2.3,0,3.1l3.4,3.4h-7c-1.2,0-2.2,1-2.2,2.2
			s1,2.2,2.2,2.2h7l-3.4,3.4c-0.9,0.9-0.9,2.3,0,3.1c0.7,0.7,1.8,0.8,2.7,0.4c0.2-0.1,0.3-0.2,0.5-0.4l6.5-6.5h4.4l-1.9,1.9
			c-0.9,0.9-0.9,2.3,0,3.1c0.7,0.7,1.8,0.8,2.7,0.4c0.2-0.1,0.3-0.2,0.5-0.4l5.1-5.1h4.3l-0.1,0.1c-0.8,0.8-0.9,2.2-0.1,3
			c0.3,1.1,1.5,1.8,2.7,1.5h0.2l-2.1,3.7l-6.9,1.9c-1.2,0.3-1.9,1.5-1.6,2.7s1.5,1.9,2.7,1.6l2.6-0.7l-2.2,3.8l-8.9,2.4
			c-1.2,0.3-1.9,1.5-1.6,2.7c0.3,1.2,1.5,1.9,2.7,1.6l4.6-1.2l-3.5,6.1c-0.6,1.1-0.2,2.4,0.8,3c0.7,0.4,1.6,0.4,2.2,0
			c0.3-0.2,0.6-0.5,0.8-0.8l3.5-6.1l1.2,4.6c0.3,1.2,1.5,1.9,2.7,1.6c0.2-0.1,0.4-0.1,0.5-0.2c0.8-0.5,1.3-1.5,1-2.5l-2.4-8.9
			l2.2-3.8l0.7,2.6c0.3,1.2,1.5,1.9,2.7,1.6c0.2,0,0.4-0.1,0.5-0.2c0.8-0.5,1.3-1.5,1-2.5l-1.9-6.9l2.1-3.7v0.2
			c0.3,1.2,1.5,1.8,2.6,1.6c0.6,0.1,1.1,0,1.6-0.2c0.5-0.3,0.9-0.8,1-1.3v-0.2l2.1,3.7l-1.9,6.9c-0.3,1.2,0.4,2.4,1.6,2.7
			c0.6,0.2,1.2,0.1,1.7-0.2c0.5-0.3,0.9-0.8,1-1.3l0.7-2.6l2.2,3.8l-2.4,8.9c-0.3,1.2,0.4,2.4,1.6,2.7c0.6,0.2,1.2,0.1,1.7-0.2
			c0.5-0.3,0.9-0.8,1-1.3l1.2-4.6l3.5,6.1c0.6,1.1,2,1.4,3,0.8c1.1-0.6,1.4-2,0.8-3l-3.5-6.1l4.6,1.2c0.6,0.2,1.2,0.1,1.7-0.2
			c0.5-0.3,0.9-0.8,1-1.3c0.3-1.2-0.4-2.4-1.6-2.7l-8.9-2.4l-2.2-3.8l2.6,0.7c0.6,0.2,1.2,0.1,1.7-0.2s0.9-0.8,1-1.3
			c0.3-1.2-0.4-2.4-1.6-2.7l-6.9-1.9l-2.1-3.7h0.2c0.6,0.2,1.2,0.1,1.7-0.2c0.4-0.3,0.8-0.7,1-1.2c0.9-0.9,0.8-2.3,0-3.1l-0.1-0.1
			h4.3l5.1,5.1c0.7,0.7,1.8,0.8,2.7,0.4c0.2-0.1,0.3-0.2,0.5-0.4c0.9-0.9,0.9-2.3,0-3.1l-1.9-1.9h4.4l6.5,6.5
			c0.7,0.7,1.8,0.8,2.7,0.4c0.2-0.1,0.3-0.2,0.5-0.4c0.9-0.9,0.9-2.3,0-3.1l-3.4-3.4h7c0.4,0,0.8-0.1,1.1-0.3
			c0.7-0.4,1.1-1.1,1.1-1.9C358.3,180.8,357.3,179.9,356.1,179.9z M320.1,184.5c-1.4,0.8-3.1,0.3-3.9-1c-0.8-1.4-0.3-3.1,1-3.9
			c1.4-0.8,3.1-0.3,3.9,1C322,182,321.5,183.7,320.1,184.5z"/>
		
			<linearGradient id="SVGID_5_" gradientUnits="userSpaceOnUse" x1="258.1589" y1="197.8804" x2="271.5254" y2="166.5906" gradientTransform="matrix(1 0 0 -1 0 250)">
			<stop  offset="0" style="stop-color:#404B71"/>
			<stop  offset="0.6044" style="stop-color:#3C476E"/>
			<stop  offset="1" style="stop-color:#354169"/>
		</linearGradient>
		<path class="st13" d="M282.1,68.1H281l0.4-0.6c0.3-0.4,0.2-0.9-0.2-1.1c-0.4-0.3-0.9-0.2-1.1,0.2l-1,1.5h-1.6l2.2-3.2
			c0.3-0.4,0.2-0.9-0.2-1.1c-0.4-0.3-0.9-0.2-1.1,0.2l-2.8,4.1H274l1.3-1.9c0.3-0.4,0.2-0.9-0.2-1.1c-0.4-0.3-0.9-0.2-1.1,0.2
			l-1.9,2.8h-1l0.4-0.6c0.3-0.4,0.2-0.9-0.2-1.1c-0.4-0.3-0.9-0.2-1.1,0.2l-1,1.5h-0.4l-0.9-1.6l0.2-0.3l1.8-0.2
			c0.4,0,0.8-0.4,0.7-0.9c0-0.4-0.4-0.8-0.9-0.7l-0.7,0.1l0.5-0.9l3.4-0.3c0.4,0,0.8-0.4,0.7-0.9c0-0.4-0.4-0.8-0.9-0.7l-2.3,0.2
			l0.7-1.3l5-0.4c0.4,0,0.8-0.4,0.7-0.9c0-0.4-0.4-0.8-0.9-0.7l-3.8,0.3l0.8-1.4l1.8-0.2c0.4,0,0.8-0.4,0.7-0.9
			c0-0.4-0.4-0.8-0.9-0.7l-0.7,0.1l0.6-1c0.2-0.4,0.1-0.9-0.3-1.1c-0.4-0.2-0.9-0.1-1.1,0.3l-0.6,1l-0.3-0.6
			c-0.2-0.4-0.7-0.6-1.1-0.4c-0.4,0.2-0.6,0.7-0.4,1.1l0.8,1.7l-0.8,1.4l-1.6-3.5c-0.2-0.4-0.7-0.6-1.1-0.4s-0.6,0.7-0.4,1.1
			l2.1,4.5L269,61l-1-2.1c-0.2-0.4-0.7-0.6-1.1-0.4s-0.6,0.7-0.4,1.1l1.4,3.1l-0.5,0.9l-0.3-0.6c-0.2-0.4-0.7-0.6-1.1-0.4
			c-0.4,0.2-0.6,0.7-0.4,1.1l0.8,1.7l-0.2,0.3h-1.9l-0.2-0.3l0.8-1.7c0.2-0.4,0-0.9-0.4-1.1c-0.4-0.2-0.9,0-1.1,0.4l-0.3,0.6
			l-0.5-0.9l1.4-3.1c0.2-0.4,0-0.9-0.4-1.1s-0.9,0-1.1,0.4l-1,2.1l-0.7-1.3l2.1-4.5c0.2-0.4,0-0.9-0.4-1.1c-0.4-0.2-0.9,0-1.1,0.4
			l-1.6,3.5l-0.8-1.4l0.8-1.7c0.2-0.4,0-0.9-0.4-1.1c-0.4-0.2-0.9,0-1.1,0.4l-0.3,0.6l-0.6-1c-0.2-0.4-0.7-0.5-1.1-0.3
			c-0.4,0.2-0.5,0.7-0.3,1.1l0.6,1l-0.7-0.1c-0.4,0-0.8,0.3-0.9,0.7c0,0.4,0.3,0.8,0.7,0.9l1.8,0.2l0.8,1.4l-3.8-0.3
			c-0.4,0-0.8,0.3-0.9,0.7c0,0.4,0.3,0.8,0.7,0.9l5,0.4l0.7,1.3l-2.3-0.2c-0.4,0-0.8,0.3-0.9,0.7c0,0.4,0.3,0.8,0.7,0.9l3.4,0.3
			l0.5,0.9l-0.7-0.1c-0.4,0-0.8,0.3-0.9,0.7c0,0.4,0.3,0.8,0.7,0.9l1.8,0.2l0.2,0.3l-0.9,1.6h-0.4l-1-1.5c-0.3-0.4-0.8-0.5-1.1-0.2
			c-0.4,0.3-0.5,0.8-0.2,1.1l0.4,0.6h-1l-1.9-2.8c-0.3-0.4-0.8-0.5-1.1-0.2c-0.4,0.3-0.5,0.8-0.2,1.1l1.3,1.9h-1.5l-2.8-4.1
			c-0.3-0.4-0.8-0.5-1.1-0.2c-0.4,0.3-0.5,0.8-0.2,1.1l2.2,3.2h-1.6l-1-1.5c-0.3-0.4-0.8-0.5-1.1-0.2c-0.4,0.3-0.5,0.8-0.2,1.1
			l0.4,0.6h-1.1c-0.4,0-0.8,0.4-0.8,0.8s0.4,0.8,0.8,0.8h1.1l-0.4,0.6c-0.3,0.4-0.2,0.9,0.2,1.1c0.1,0.1,0.3,0.1,0.5,0.1
			c0.3,0,0.5-0.1,0.7-0.3l1-1.5h1.6l-2.2,3.2c-0.3,0.4-0.2,0.9,0.2,1.1c0.1,0.1,0.3,0.1,0.5,0.1c0.3,0,0.5-0.1,0.7-0.3l2.8-4.1h1.5
			l-1.3,1.9c-0.3,0.4-0.2,0.9,0.2,1.1c0.1,0.1,0.3,0.1,0.5,0.1c0.3,0,0.5-0.1,0.7-0.3l1.9-2.8h1l-0.4,0.6c-0.3,0.4-0.2,0.9,0.2,1.1
			c0.1,0.1,0.3,0.1,0.5,0.1c0.3,0,0.5-0.1,0.7-0.3l1-1.5h0.4l0.9,1.6l-0.2,0.3l-1.8,0.2c-0.4,0-0.8,0.4-0.7,0.9
			c0,0.4,0.4,0.7,0.8,0.7c0,0,0,0,0.1,0l0.7-0.1l-0.5,0.9l-3.4,0.3c-0.4,0-0.8,0.4-0.7,0.9c0,0.4,0.4,0.7,0.8,0.7c0,0,0,0,0.1,0
			l2.3-0.2l-0.7,1.3l-5,0.4c-0.4,0-0.8,0.4-0.7,0.9c0,0.4,0.4,0.7,0.8,0.7c0,0,0,0,0.1,0l3.8-0.3l-0.8,1.4l-1.8,0.2
			c-0.4,0-0.8,0.4-0.7,0.9c0,0.4,0.4,0.7,0.8,0.7c0,0,0,0,0.1,0l0.7-0.1l-0.6,1c-0.2,0.4-0.1,0.9,0.3,1.1c0.1,0.1,0.3,0.1,0.4,0.1
			c0.3,0,0.6-0.1,0.7-0.4l0.6-1l0.3,0.6c0.1,0.3,0.4,0.5,0.7,0.5c0.1,0,0.2,0,0.3-0.1c0.4-0.2,0.6-0.7,0.4-1.1l-0.8-1.7l0.8-1.4
			l1.6,3.5c0.1,0.3,0.4,0.5,0.7,0.5c0.1,0,0.2,0,0.3-0.1c0.4-0.2,0.6-0.7,0.4-1.1l-2.1-4.5l0.7-1.3l1,2.1c0.1,0.3,0.4,0.5,0.7,0.5
			c0.1,0,0.2,0,0.3-0.1c0.4-0.2,0.6-0.7,0.4-1.1l-1.4-3.1l0.5-0.9l0.3,0.6c0.1,0.3,0.4,0.5,0.7,0.5c0.1,0,0.2,0,0.3-0.1
			c0.4-0.2,0.6-0.7,0.4-1.1l-0.8-1.7l0.2-0.3h1.9l0.2,0.3l-0.8,1.7c-0.2,0.4,0,0.9,0.4,1.1c0.1,0.1,0.2,0.1,0.3,0.1
			c0.3,0,0.6-0.2,0.7-0.5l0.3-0.6l0.5,0.9l-1.4,3.1c-0.2,0.4,0,0.9,0.4,1.1c0.1,0.1,0.2,0.1,0.3,0.1c0.3,0,0.6-0.2,0.7-0.5l1-2.1
			l0.7,1.3l-2.1,4.5c-0.2,0.4,0,0.9,0.4,1.1c0.1,0.1,0.2,0.1,0.3,0.1c0.3,0,0.6-0.2,0.7-0.5l1.6-3.5l0.8,1.4l-0.8,1.7
			c-0.2,0.4,0,0.9,0.4,1.1c0.1,0.1,0.2,0.1,0.3,0.1c0.3,0,0.6-0.2,0.7-0.5l0.3-0.6l0.6,1c0.2,0.3,0.4,0.4,0.7,0.4
			c0.1,0,0.3,0,0.4-0.1c0.4-0.2,0.5-0.7,0.3-1.1l-0.6-1l0.7,0.1c0,0,0,0,0.1,0c0.4,0,0.8-0.3,0.8-0.7s-0.3-0.8-0.7-0.9l-1.8-0.2
			l-0.8-1.4l3.8,0.3c0,0,0,0,0.1,0c0.4,0,0.8-0.3,0.8-0.7s-0.3-0.8-0.7-0.9l-5-0.4l-0.7-1.3l2.3,0.2c0,0,0,0,0.1,0
			c0.4,0,0.8-0.3,0.8-0.7c0-0.4-0.3-0.8-0.7-0.9l-3.4-0.3l-0.5-0.9l0.7,0.1c0,0,0,0,0.1,0c0.4,0,0.8-0.3,0.8-0.7
			c0-0.4-0.3-0.8-0.7-0.9l-1.8-0.2l-0.2-0.3l0.9-1.6h0.4l1,1.5c0.2,0.2,0.4,0.3,0.7,0.3c0.2,0,0.3,0,0.5-0.1
			c0.4-0.3,0.5-0.8,0.2-1.1l-0.4-0.6h1l1.9,2.8c0.2,0.2,0.4,0.3,0.7,0.3c0.2,0,0.3,0,0.5-0.1c0.4-0.3,0.5-0.8,0.2-1.1l-1.3-1.9h1.5
			l2.8,4.1c0.2,0.2,0.4,0.3,0.7,0.3c0.2,0,0.3,0,0.5-0.1c0.4-0.3,0.5-0.8,0.2-1.1l-2.2-3.2h1.6l1,1.5c0.2,0.2,0.4,0.3,0.7,0.3
			c0.2,0,0.3,0,0.5-0.1c0.4-0.3,0.5-0.8,0.2-1.1l-0.4-0.6h1.1c0.4,0,0.8-0.4,0.8-0.8C282.9,68.4,282.6,68.1,282.1,68.1z M264.5,70.5
			l-0.9-1.6l0.9-1.6h1.9l0.9,1.6l-0.9,1.6H264.5z"/>
		<circle class="st4" cx="296.3" cy="48.1" r="3.8"/>
		<circle class="st4" cx="156.5" cy="119.6" r="3.8"/>
		<circle class="st4" cx="162" cy="134.1" r="1.7"/>
		<circle class="st4" cx="148.9" cy="142.8" r="1.7"/>
		<circle class="st4" cx="282.9" cy="44.3" r="1.7"/>
		<circle class="st4" cx="313.6" cy="84.2" r="4.2"/>
		<circle class="st4" cx="345.8" cy="221.8" r="4.2"/>
		<circle class="st4" cx="336.8" cy="95.2" r="3.1"/>
		<circle class="st4" cx="330.8" cy="104.6" r="1.7"/>
		<circle class="st4" cx="301.7" cy="93.5" r="1.7"/>
		<circle class="st4" cx="390.1" cy="119.6" r="1.7"/>
		<circle class="st4" cx="355.8" cy="95.2" r="1.7"/>
		<circle class="st4" cx="349.1" cy="108" r="1.7"/>
		<circle class="st4" cx="347.4" cy="95" r="1.7"/>
		<circle class="st4" cx="355.8" cy="84.2" r="1.7"/>
		<circle class="st4" cx="400.5" cy="96.8" r="1.7"/>
		<circle class="st4" cx="405.5" cy="90.1" r="1.7"/>
		<circle class="st4" cx="352.5" cy="212.3" r="1.7"/>
		<circle class="st4" cx="365.1" cy="210.6" r="1.7"/>
		<circle class="st4" cx="357.5" cy="220.1" r="1.7"/>
		<circle class="st4" cx="321.9" cy="82.5" r="1.7"/>
		<circle class="st4" cx="329.1" cy="90.1" r="1.7"/>
	</g>
</g>
</svg>
