<?xml version="1.0" encoding="utf-8"?>
<!-- Generator: Adobe Illustrator 19.0.0, SVG Export Plug-In . SVG Version: 6.00 Build 0)  -->
<svg version="1.1" id="Layer_1" xmlns="http://www.w3.org/2000/svg" xmlns:xlink="http://www.w3.org/1999/xlink" x="0px" y="0px"
	 viewBox="0 0 130 153.8" style="enable-background:new 0 0 130 153.8;" xml:space="preserve">
<style type="text/css">
	.st0{fill:#E2E2E2;}
	.st1{fill:#EFEFEF;}
	.st2{fill:#D3D3D3;}
	.st3{fill:#FFFFFF;}
	.st4{fill:#ED3F8A;}
	.st5{fill:#62BA47;}
	.st6{fill-rule:evenodd;clip-rule:evenodd;fill:#ED3F8A;}
	.st7{fill-rule:evenodd;clip-rule:evenodd;fill:#62BA47;}
	.st8{fill:#62BA46;}
</style>
<g>
	<path class="st0" d="M106.2,29.2H78.1H67h-4.6H51.3H23.2l10.7,83.4H34c1.4,8.5,8.6,15,17.3,15h26.8c8.7,0,15.9-6.5,17.3-15h0
		L106.2,29.2z"/>
	<path class="st1" d="M111.1,26.3c0,1.6-1.3,2.9-2.9,2.9H22.4c-1.6,0-2.9-1.3-2.9-2.9l0,0c0-1.6,1.3-2.9,2.9-2.9h85.8
		C109.8,23.4,111.1,24.7,111.1,26.3L111.1,26.3z"/>
	<path class="st2" d="M78.1,29.2H67h-2.3v98.3h13.4c8.7,0,15.9-6.5,17.3-15h0l10.7-83.4H78.1z"/>
	<path class="st3" d="M38.9,46.5c0.3,2.5-1.4,4.7-3.9,5l0,0c-2.5,0.3-4.7-1.4-5-3.9l-1.2-9.1c-0.3-2.5,1.4-4.7,3.9-5l0,0
		c2.5-0.3,4.7,1.4,5,3.9L38.9,46.5z"/>
</g>
<g>
	<g>
		<circle class="st4" cx="64.7" cy="74.9" r="18.7"/>
		<circle class="st5" cx="49.7" cy="91.5" r="5.9"/>
		<path class="st6" d="M55.8,52c0,1.3-1.1,2.4-2.4,2.4c-1.3,0-2.4-1.1-2.4-2.4c0-1.3,1.1-2.4,2.4-2.4C54.8,49.6,55.8,50.7,55.8,52
			L55.8,52z"/>
		<path class="st7" d="M55.9,60.1c0,1.7-1.4,3.1-3.1,3.1c-1.7,0-3.1-1.4-3.1-3.1c0-1.7,1.4-3.1,3.1-3.1C54.6,57,55.9,58.3,55.9,60.1
			L55.9,60.1z"/>
		<path class="st7" d="M47.7,55.3c0,1-0.8,1.8-1.8,1.8c-1,0-1.8-0.8-1.8-1.8c0-1,0.8-1.8,1.8-1.8C46.9,53.5,47.7,54.3,47.7,55.3
			L47.7,55.3z"/>
		<g>
			<circle class="st5" cx="80.7" cy="57.8" r="10.3"/>
			<g>
				<path class="st3" d="M78.1,56.3c-0.8,0.1-1.1,1.1-1.1,1.8l0,0l0,0c0,0.1,0,0.2,0,0.3c0,0.3,0,0.6-0.1,0.9c0,0.1-0.1,0.4-0.1,0.4
					c-0.3,0-0.5-0.4-0.6-0.7c-0.2-0.5-0.4-1.1-0.5-1.6c-0.1-0.6-0.2-1.2-0.2-1.8c0-0.2,0-0.5,0-0.8c0-0.1,0-0.2,0-0.3
					c0-0.1,0-0.2,0-0.2c0.1-0.5-0.6,0-0.7,0.2c-0.7,1.2-0.5,2.6-0.5,3.9c0,0.4,0,0.7-0.1,1.1c0,0.2-0.1,0.7-0.3,0.9
					c-0.1,0.1-0.4,0-0.5,0c-0.2-0.1-0.3-0.3-0.3-0.5c0-0.2-0.2-0.1-0.4,0c-0.1,0.1-0.3,0.4-0.3,0.6c0.1,0.5,0.5,0.9,1,0.7
					c0.8-0.2,1.1-1.1,1.3-1.9c0.1-0.3,0.1-0.7,0.2-1c0.1,0.5,0.3,1,0.5,1.5c0.2,0.3,0.5,0.7,0.9,0.6c0.3-0.1,0.5-0.4,0.7-0.8
					c0.1,0.3,0.4,0.6,0.8,0.6c0.4,0,0.8-0.5,0.9-0.8c0.2-0.4,0.2-0.9,0.2-1.3C79.2,57.5,79,56.3,78.1,56.3z M78.4,59.3
					c0,0.1,0,0.2-0.1,0.3c-0.2,0-0.3-0.3-0.3-0.4c-0.1-0.3-0.2-0.6-0.2-0.9c0-0.3,0-0.7,0-1c0-0.1,0-0.2,0.1-0.2
					c0.4,0.3,0.5,0.8,0.6,1.3C78.4,58.7,78.5,59,78.4,59.3z"/>
				<path class="st3" d="M88.4,57.6c-0.9-0.3-1.4,0.9-1.6,1.6c-0.2,0.7-0.3,1.8,0.4,2.1c0.4,0.2,0.8-0.1,1.1-0.4
					c0.3-0.3,0.5-0.7,0.6-1.1C89,59.1,89.2,57.9,88.4,57.6z M87.8,60.5c0,0.1-0.1,0.1-0.1,0.2c-0.1-0.1-0.2-0.4-0.2-0.5
					c0-0.3,0-0.7,0-1c0.1-0.3,0.2-0.6,0.3-0.9c0-0.1,0.1-0.1,0.1-0.2c0.4,0.4,0.3,1,0.2,1.5C88.1,59.9,88,60.2,87.8,60.5z"/>
				<path class="st3" d="M85.9,57.7c0.2-0.2,0.3-0.5,0.5-0.7c0.3-0.5,0.7-1.1,0.6-1.7c0-0.6-0.8-0.6-1.2-0.4
					c-0.6,0.3-0.9,0.9-1.1,1.5c-0.2,0.8-0.4,1.6-0.4,2.4v0c-0.3,0.3-0.9,1.1-1.4,0.8c-0.1-0.1-0.2-0.2-0.2-0.4
					c0.4-0.4,0.7-0.8,1-1.3c0.3-0.4,0.5-1.1-0.1-1.4c-0.4-0.3-1,0-1.3,0.4c-0.3,0.4-0.4,0.8-0.5,1.3c0,0.2-0.1,0.7,0,1.1
					c-0.3,0.2-0.6,0.3-0.9,0.2c-0.4-0.1-0.5-0.4-0.5-0.7c-0.1-0.4-0.1-0.9,0-1.3c0-0.1,0.1-0.3,0.1-0.4c0,0,0-0.1,0-0.1
					c0.2,0.1,0.3,0.4,0.4,0.6c0.1,0.3,0.9-0.2,0.8-0.5c-0.1-0.3-0.2-0.6-0.6-0.8c-0.3-0.2-0.8,0.1-1,0.3c-0.5,0.6-0.6,1.4-0.6,2.1
					c0,0.5,0.1,1.1,0.5,1.3c0.6,0.3,1.3,0,1.9-0.3c0.1,0.3,0.4,0.6,0.8,0.5c0.6-0.1,1.1-0.4,1.5-0.8c0,0.4,0.1,0.9,0.4,1.1
					c0.5,0.3,1.1,0,1.4-0.4c0.4-0.5,0.7-1.3,0.4-1.9C86.4,57.9,86.1,57.7,85.9,57.7z M82.8,57.4c0-0.1,0.1-0.2,0.1-0.3l0,0
					c0.2,0.1,0.3,0.3,0.2,0.5c0,0.3-0.3,0.7-0.5,1c0-0.1,0-0.1,0-0.2C82.6,58,82.7,57.7,82.8,57.4z M85.7,55.7
					c0.1-0.1,0.1-0.2,0.2-0.3c0,0,0,0,0,0c0.4,0.4,0,1-0.2,1.3c-0.2,0.4-0.4,0.7-0.7,1.1c0-0.4,0.1-0.7,0.2-1.1
					C85.4,56.3,85.6,56,85.7,55.7z M85.5,59.9c0,0-0.1,0.1-0.1,0.2c0,0-0.1,0-0.1,0c-0.2-0.1-0.2-0.6-0.3-0.8c0-0.2,0-0.4,0-0.5
					c0.1-0.1,0.2-0.2,0.3-0.3c0.2-0.1,0.3,0.1,0.4,0.3C85.8,59.1,85.7,59.6,85.5,59.9z"/>
			</g>
		</g>
		<path class="st3" d="M80,79.5c0-0.3-0.5-0.2-0.6-0.2c0,0-0.1-0.1-0.1-0.4c0-0.3,0-0.6,0-0.9c0.1-0.9,0.3-1.8,0.6-2.6
			c0,0,0,0,0-0.1c0.1-0.6-0.4-1.1-1.1-1.2C78,74,77.5,74.4,77,74.8c-0.6,0.6-0.9,1.4-1,2.2c0,0,0,0,0,0c-0.2,1.1-0.5,1-0.6,1
			c-0.2-0.1-0.1-0.8-0.1-1.1c0-0.9,0.2-1.8,0.5-2.7c0.1-0.2,0.2-0.4,0.3-0.6c0.1-0.2,0-0.4-0.3-0.4c-0.3,0-0.7,0.2-0.8,0.5
			c-0.1,0.2-0.2,0.4-0.3,0.7c-0.2,0.3-0.3,0.6-0.6,0.8c-0.2,0.2-0.3,0.3-0.6,0.4c0,0,0,0-0.1,0c0.1-0.9,0.1-1.8,0.2-2.7
			c0-0.6-1.2-0.1-1.2,0.3c0,0.5,0,1.1-0.1,1.6c-0.1,0.3-0.2,0.7-0.3,1c-0.2,0.4-0.4,0.9-0.7,1.2c0,0,0,0,0,0
			c-0.1-0.3-0.1-0.6-0.1-0.9c0-0.5,0-1,0.1-1.5c0-0.3,0.1-0.5,0.1-0.8c0-0.2,0.1-0.4,0.1-0.6c0,0,0,0,0-0.1c0-0.6-0.5-1-1.2-0.9
			c-0.7,0.1-1.3,0.5-1.6,1c-0.5,0.7-0.7,1.5-0.7,2.4c0,0.2-0.1,0.9-0.4,1c0,0,0,0-0.1-0.1c-0.1-0.3-0.1-0.5-0.1-0.8
			c0-1.1,0.2-2.4-0.3-3.4c-0.4-0.8-1.3-0.1-1.8,0.5c-0.1-0.3-0.2-0.6-0.4-0.8c-0.3-0.2-0.8,0-1,0.1c-0.2,0.1-0.4,0.3-0.5,0.5
			c0-0.1,0-0.3,0-0.4c-0.1-0.6-1.2,0.2-1.2,0.6c0.1,0.6,0.1,1.2,0.1,1.8c0,0.9-0.4,2.4-1.6,2.3c-0.3,0-0.4-0.3-0.6-0.5
			c0.3-0.4,0.6-0.9,0.9-1.4c0.5-0.8,0.9-1.9,0.3-2.6c-0.4-0.5-1.4,0-1.8,0.4c-0.5,0.6-0.7,1.3-0.8,2c0,0.4,0,1.3,0.2,2
			c-0.1,0.1-0.2,0.2-0.3,0.2c0,0,0,0-0.1,0c0,0,0,0-0.1,0c-0.1-0.1-0.2-0.2-0.3-0.3c-0.2-0.4-0.3-0.8-0.4-1.2
			c-0.2-0.8-0.3-1.7-0.1-2.5c0-0.2,0-0.4-0.3-0.3c-0.3,0.1-0.6,0.4-0.7,0.7c0,0,0,0.1,0,0.1h0l0,0c-0.2,0.5-0.3,1-0.4,1.5
			c-0.2-0.6-0.4-1.3-0.3-1.9c0.1-0.2,0-0.4-0.3-0.3C55.3,73,55,73.3,55,73.5c-0.4,0.9-0.3,1.9-0.3,3c0,0.5,0,1-0.1,1.4
			c0,0-0.1,0-0.1,0c-0.3-0.1-0.4-0.5-0.4-0.7c0,0,0-0.1,0-0.1c0,0,0,0,0,0c0-0.1-0.2-0.1-0.3,0c0,0-0.1,0-0.1,0
			c-0.2,0.1-0.3,0.2-0.4,0.4c-0.1,0.1-0.2,0.3-0.2,0.4c0,0,0,0,0,0c-0.1,0.3-0.1,0.5-0.5,0.6c-0.2,0-0.3,0-0.5,0
			c-0.4-0.1-0.7-0.4-0.8-0.7c-0.5-0.9-0.7-1.8-0.9-2.9c-0.1-0.5,0-1,0.1-1.6c0-0.2,0.1-0.4,0.1-0.6c0,0,0.1-0.3,0.1-0.2
			c0,0,0-0.1,0.1-0.1c0,0,0,0,0,0c0,0,0,0,0,0c0,0,0,0,0,0c0,0,0,0,0,0c0,0,0,0,0.1-0.1c0,0,0.3-0.1,0.4-0.1
			c0.8-0.1,1.1,0.6,1.3,1.1c0.1,0.4,1.1-0.6,1-1c-0.2-0.7-0.7-1.4-1.7-1.3c-0.6,0.1-1.2,0.4-1.6,0.9c-0.9,1.1-1.1,2.6-1,4
			c0.1,1.3,0.4,2.6,1.3,3.5c0.3,0.3,0.8,0.5,1.3,0.4c0.6-0.1,1-0.5,1.4-1c0.3,0.4,0.7,0.6,1.3,0.1c0.5-0.4,0.8-1.1,0.9-1.6
			c0.1,0.4,0.2,0.8,0.3,1.2c0.1,0.6,1-0.4,1-0.8c0-0.2,0-0.5,0-0.7c0.3,1,0.9,1.6,1.8,0.9c0,0,0.1,0,0.1-0.1
			c0.1-0.1,0.3-0.3,0.4-0.4c0.2,0.3,0.5,0.5,0.9,0.5c0.7,0,1.4-0.5,1.8-0.9c0.1-0.1,0.3-0.3,0.4-0.4c0,0.3,0,0.6,0,0.9
			c0,0.6,1.1-0.2,1.1-0.6c0-1.2,0.2-2.3,0.4-3.5c0-0.1,0.1-0.2,0.1-0.3c0,0,0,0,0,0c0.3,0.6,0.3,1.4,0.3,2.1c0,0.3,0,0.6,0,1
			c0,0.4,0,0.8,0,1.2c0,0.6,1.1-0.2,1.1-0.6c0-0.4,0-0.9,0.1-1.3c0.1-0.8,0.2-1.7,0.6-2.4c0,0.1,0.1,0.2,0.1,0.3
			c0.2,0.6,0.2,1.3,0.2,1.8c0,0.8-0.2,2.1,0.6,2.4c0.3,0.1,1-0.3,1.3-0.6c0.1,0.3,0.2,0.5,0.5,0.7c0.5,0.3,1.2,0,1.6-0.3
			c0,0.2,0.1,0.5,0.3,0.6c0.2,0.1,0.6,0.1,0.8,0c0.4-0.1,0.7-0.4,0.9-0.6c0,0.2-0.1,0.5-0.1,0.7c0,0.3,0.3,0.3,0.5,0.2
			c0.3-0.1,0.6-0.3,0.7-0.6c0.1-0.5,0.2-0.9,0.5-1.3c0.2-0.2,0.3-0.2,0.6-0.4c0,0,0,0,0,0c-0.1,0.7-0.2,1.4-0.1,2.2
			c0.1,0.7,0.5,0.9,1.2,0.7c0.3-0.1,0.5-0.2,0.7-0.3c0.1,0.3,0.2,0.5,0.4,0.7c0.5,0.4,1.2,0.2,1.6,0c0,0,0,0,0.1,0
			c0,0.2,0,0.4,0.1,0.6c0.3,0.5,0.9,0.4,1.2,0.3C79.6,80,80,79.8,80,79.5z M59.8,73.3C59.8,73.3,59.8,73.3,59.8,73.3L59.8,73.3z
			 M59.7,74.7c0-0.5,0.1-0.9,0.2-1.4c0,0,0,0,0,0c0.1,0,0.1,0,0.2,0.1c0.5,0.3,0.2,1.1,0,1.5c-0.1,0.2-0.2,0.5-0.4,0.7
			C59.8,75.3,59.7,75,59.7,74.7z M69.7,76.6c0,0-0.1,0.2-0.1,0.2c0,0-0.1,0-0.2,0c-0.2-0.1-0.3-0.5-0.4-0.6
			c-0.2-0.7-0.1-1.6,0.2-2.3c0.1-0.2,0.3-0.6,0.4-0.7c0,0,0.1,0,0.2,0c0.3,0.1,0.4,0.2,0.4,0.5C70.1,74.7,70,75.7,69.7,76.6z
			 M77.7,78.4c0,0-0.1,0.1-0.1,0.2c0,0-0.1,0-0.2-0.1c-0.2-0.1-0.2-0.5-0.3-0.7c-0.1-0.8,0.1-1.6,0.4-2.2c0.1-0.2,0.3-0.5,0.4-0.6
			c0,0,0.1,0,0.2,0c0.3,0.1,0.4,0.3,0.3,0.5C78.3,76.5,78.1,77.5,77.7,78.4z"/>
		<g>
			<path class="st3" d="M45.4,91.2c0.2-0.2,0.4-0.5,0.5-0.7c0.1-0.1,0.2-0.2,0.2-0.3c0.1-0.1,0.1-0.1,0,0c0,0.2,0,0.3,0,0.5
				c0,1,0,2-0.1,2.9c0,0.4,0.6-0.1,0.6-0.3c0.1-0.6,0.1-1.3,0.1-1.9c0-0.3,0.2-1.8-0.1-1.9c-0.7-0.2-1.3,1.3-1.6,1.7
				C44.6,91.5,45.2,91.5,45.4,91.2L45.4,91.2z"/>
			<path class="st3" d="M47.3,92.8c0.5,1.7,3.1,0.5,2.6-1c-0.2-0.7-1.1-0.6-1.7-0.8C48,90.9,48,90.7,48,90.4
				c0.1-0.3,0.1-0.4-0.1-0.2c0.1,0,0.2-0.1,0.3-0.1c0.5-0.1,1.1-0.1,1.5,0.2c0.2,0.1,0.7-0.5,0.5-0.6c-0.6-0.3-1.3-0.3-2-0.1
				c-0.6,0.1-0.8,0.7-0.8,1.3c0,0.7,0.6,0.8,1.2,0.9c0.4,0.1,0.8,0.2,0.8,0.7c0.1,0.8-0.7,0.7-1.1,0.4c-0.2-0.1-0.3-0.3-0.3-0.5
				C47.9,92.1,47.3,92.6,47.3,92.8L47.3,92.8z"/>
			<g>
				<path class="st3" d="M53.5,89.8c-0.7,1.2-1.6,2.3-2.5,3.4c-0.4,0.5,0.2,0.5,0.5,0.1c0.9-1.2,1.8-2.3,2.6-3.6
					C54.4,89.3,53.7,89.5,53.5,89.8L53.5,89.8z"/>
				<path class="st3" d="M52.2,89.5c-0.4,0-0.8,0.4-0.8,0.8c-0.1,0.4,0.2,0.7,0.5,0.7C52.7,91.1,53.1,89.5,52.2,89.5
					c-0.2,0-0.5,0.5-0.3,0.5c0.2,0,0.3,0.2,0.3,0.4c0,0.1,0,0.2,0,0.2c0,0.1,0,0,0,0c0,0-0.1,0-0.1,0c-0.2,0-0.3-0.2-0.3-0.4
					c0-0.1,0-0.2,0-0.2c0-0.1,0,0,0,0c0,0,0.1,0,0.1,0C52.1,90,52.4,89.5,52.2,89.5z"/>
				<path class="st3" d="M53.4,92c-0.4,0-0.8,0.4-0.8,0.8c-0.1,0.4,0.2,0.7,0.5,0.7C54,93.6,54.4,92.1,53.4,92
					c-0.2,0-0.5,0.5-0.3,0.5c0.2,0,0.3,0.2,0.3,0.4c0,0.1,0,0.2,0,0.2c0,0.1,0,0,0,0c0,0-0.1,0-0.1,0c-0.2,0-0.3-0.2-0.3-0.4
					c0-0.1,0-0.2,0-0.2c0-0.1,0,0,0,0c0,0,0.1,0,0.1,0C53.3,92.5,53.7,92,53.4,92z"/>
			</g>
		</g>
	</g>
	<g>
		<path class="st8" d="M42,67c-0.1,0-0.2-0.2-0.3-0.2c-0.4-0.1-0.7,0.1-1.1,0.1c-0.9,0-1.2,0-2.3-0.3c0-0.9,0.5-1.5,0.8-2.2
			c0.2-0.6-0.1-1.4-0.1-2.1c0-0.4,0-0.9,0-1.3c-0.3,0.3-0.2,1.1-0.2,1.5c-0.1-0.5-0.1-1.3-0.3-1.7c-0.1,0.5,0,1.3,0,1.7
			c-0.2-0.5-0.2-1.1-0.4-1.5c-0.2,0.5,0.2,1.2,0.1,1.7c-0.2-0.4-0.3-1-0.5-1.4c-0.1,0.6,0.2,1.1,0.2,1.5c-0.2-0.4-0.3-0.8-0.6-1
			c0,0.4,0.2,0.8,0.4,1.2c-0.3-0.1-0.3-0.4-0.6-0.5c0,0.3,0.2,0.5,0.3,0.7c-0.2-0.1-0.3-0.3-0.5-0.4c0,0.3,0.2,0.3,0.3,0.6
			c-0.1-0.1-0.2-0.2-0.4-0.3c0,0.2,0.3,0.3,0.3,0.5c0,0-0.2-0.1-0.2,0c0,0,0.2,0.1,0.1,0.2c-0.1,0-0.1,0-0.2,0
			c0,0.1,0.2,0.1,0.1,0.2c-0.1,0-0.1-0.1-0.1,0c0,0.1,0.1,0.1,0.1,0.2c-0.8,0.8-0.3,1.7-0.4,2.6c0-0.1-0.6-0.3-1.2-0.5
			c-0.3-0.1-0.3-0.4-0.6-0.6c0-0.1,0.1,0,0.1-0.1c-0.1,0-0.2-0.1-0.2-0.2c0.1,0,0.3,0,0.3,0c-0.1-0.1-0.5-0.2-0.4-0.3
			c0.2,0,0.4,0.1,0.5,0.1c-0.2-0.1-0.6-0.3-0.6-0.5c0.2,0.1,0.5,0.3,0.7,0.2c-0.3-0.2-0.8-0.4-0.9-0.7c0.2,0.1,0.5,0.4,0.8,0.4
			c-0.4-0.1-0.7-0.5-1.1-0.5c0.2,0.3,0.7,0.5,0.9,0.8c-0.3-0.2-0.6-0.3-0.9-0.5c0.1,0.4,0.5,0.5,0.8,0.7c-0.3,0-0.4-0.2-0.7-0.2
			c0.1,0.3,0.5,0.2,0.7,0.5c-0.1-0.1-0.3,0-0.5,0c0,0.2,0.3,0.1,0.5,0.2c-0.2,0-0.3,0-0.4,0.1c0.1,0.1,0.3,0.1,0.4,0.2
			c-0.1,0-0.2,0-0.2,0.1c0,0.1,0.2,0,0.3,0.1c-0.1,0-0.1,0.1-0.1,0.1c0.1,0,0.2,0,0.2,0c0,0-0.1,0-0.1,0.1c0.4,0.2,0.6,0.9,1.2,1.1
			c-0.3,0.2,0.3,0.4-3.3,1.7c0.1,0,1.6-0.4,2-0.5c0.4-0.2,0.9-0.3,1.3-0.4c0.1,0,0.2-0.1,0.3-0.1c0.8-0.1,1.4,0.1,2.1-0.4
			c-0.6,0.1-1.5,0.2-1.9-0.1c0.5-0.8,0.2-2.7,0.5-3.1c0.4-0.4,1-1.6,1.7-0.6c0.1,0.2,0.1,0.4-0.1,0.9c-0.3,0.5-0.5,0.8-0.5,2
			c0,0.2,0,0.5-0.4,0.5c1.6,0.3,2,0.2,2.9,0c0.3,0,0.7-0.3,0.8,0c0,0.1-0.3,0.1-0.6,0.1c-0.4,0,0.2,0.2,0.4,0.1
			c0.1,0,0.9-0.1,1.4-0.2C42.5,67,42.3,67,42,67z"/>
		<path class="st8" d="M37.4,59c-3.6,0-6.5,2.9-6.5,6.5c0,3.6,2.9,6.5,6.5,6.5c3.6,0,6.5-2.9,6.5-6.5C43.9,61.9,41,59,37.4,59
			 M37.4,59.2c3.4,0,6.2,2.8,6.2,6.2c0,3.4-2.8,6.2-6.2,6.2c-3.4,0-6.2-2.8-6.2-6.2C31.2,62,34,59.2,37.4,59.2"/>
	</g>
</g>
</svg>
