<?xml version="1.0" encoding="utf-8"?>
<!-- Generator: Adobe Illustrator 19.0.0, SVG Export Plug-In . SVG Version: 6.00 Build 0)  -->
<svg version="1.1" xmlns="http://www.w3.org/2000/svg" xmlns:xlink="http://www.w3.org/1999/xlink" x="0px" y="0px"
	 viewBox="0 0 340 218" style="enable-background:new 0 0 340 218;" xml:space="preserve">
<style type="text/css">
	.st0{fill:#E2E2E2;}
	.st1{fill:#EFEFEF;}
	.st2{fill:#D3D3D3;}
	.st3{fill:#FFFFFF;}
	.st4{fill:#ED3F8A;}
	.st5{fill:#62BA47;}
	.st6{fill-rule:evenodd;clip-rule:evenodd;fill:#ED3F8A;}
	.st7{fill-rule:evenodd;clip-rule:evenodd;fill:#62BA47;}
	.st8{fill:#62BA46;}
	.st9{fill:#C62263;}
	.st10{fill-rule:evenodd;clip-rule:evenodd;fill:#C62263;}
</style>
<g id="Layer_2">
</g>
<g id="kolba_4">
</g>
<g id="kolba_3">
</g>
<g id="kolby">
</g>
<g id="doma">
</g>
<g id="car">
</g>
<g id="butylka_3">
</g>
<g id="butylka_2">
</g>
<g id="butylka_1">
	<g>
		<path class="st0" d="M158.2,67.8h-28.1H119h-4.6h-11.1H75.2l10.7,83.4H86c1.4,8.5,8.6,15,17.3,15h26.8c8.7,0,15.9-6.5,17.3-15h0
			L158.2,67.8z"/>
		<path class="st1" d="M163.1,64.9c0,1.6-1.3,2.9-2.9,2.9H74.4c-1.6,0-2.9-1.3-2.9-2.9l0,0c0-1.6,1.3-2.9,2.9-2.9h85.8
			C161.8,62,163.1,63.3,163.1,64.9L163.1,64.9z"/>
		<path class="st2" d="M130.1,67.8H119h-2.3v98.3h13.4c8.7,0,15.9-6.5,17.3-15h0l10.7-83.4H130.1z"/>
		<path class="st3" d="M90.9,85.1c0.3,2.5-1.4,4.7-3.9,5l0,0c-2.5,0.3-4.7-1.4-5-3.9l-1.2-9.1c-0.3-2.5,1.4-4.7,3.9-5l0,0
			c2.5-0.3,4.7,1.4,5,3.9L90.9,85.1z"/>
	</g>
	<g>
		<path class="st0" d="M270,67.8h-28.1h-11.1h-4.6h-11.1h-28.1l10.7,83.4h0.1c1.4,8.5,8.6,15,17.3,15h26.8c8.7,0,15.9-6.5,17.3-15h0
			L270,67.8z"/>
		<path class="st1" d="M274.8,64.9c0,1.6-1.3,2.9-2.9,2.9h-85.8c-1.6,0-2.9-1.3-2.9-2.9l0,0c0-1.6,1.3-2.9,2.9-2.9h85.8
			C273.5,62,274.8,63.3,274.8,64.9L274.8,64.9z"/>
		<path class="st2" d="M241.9,67.8h-11.1h-2.3v98.3h13.4c8.7,0,15.9-6.5,17.3-15h0L270,67.8H241.9z"/>
		<path class="st3" d="M202.7,85.1c0.3,2.5-1.4,4.7-3.9,5l0,0c-2.5,0.3-4.7-1.4-5-3.9l-1.2-9.1c-0.3-2.5,1.4-4.7,3.9-5l0,0
			c2.5-0.3,4.7,1.4,5,3.9L202.7,85.1z"/>
	</g>
	<g>
		<g>
			<circle class="st4" cx="116.7" cy="113.5" r="18.7"/>
			<circle class="st5" cx="101.7" cy="130.1" r="5.9"/>
			<path class="st6" d="M107.8,90.6c0,1.3-1.1,2.4-2.4,2.4c-1.3,0-2.4-1.1-2.4-2.4c0-1.3,1.1-2.4,2.4-2.4
				C106.8,88.2,107.8,89.2,107.8,90.6L107.8,90.6z"/>
			<path class="st7" d="M107.9,98.6c0,1.7-1.4,3.1-3.1,3.1c-1.7,0-3.1-1.4-3.1-3.1c0-1.7,1.4-3.1,3.1-3.1
				C106.6,95.6,107.9,96.9,107.9,98.6L107.9,98.6z"/>
			<path class="st7" d="M99.7,93.9c0,1-0.8,1.8-1.8,1.8c-1,0-1.8-0.8-1.8-1.8c0-1,0.8-1.8,1.8-1.8C98.9,92.1,99.7,92.9,99.7,93.9
				L99.7,93.9z"/>
			<g>
				<circle class="st5" cx="132.7" cy="96.4" r="10.3"/>
				<g>
					<path class="st3" d="M130.1,94.9c-0.8,0.1-1.1,1.1-1.1,1.8l0,0l0,0c0,0.1,0,0.2,0,0.3c0,0.3,0,0.6-0.1,0.9
						c0,0.1-0.1,0.4-0.1,0.4c-0.3,0-0.5-0.4-0.6-0.7c-0.2-0.5-0.4-1.1-0.5-1.6c-0.1-0.6-0.2-1.2-0.2-1.8c0-0.2,0-0.5,0-0.8
						c0-0.1,0-0.2,0-0.3c0-0.1,0-0.2,0-0.2c0.1-0.5-0.6,0-0.7,0.2c-0.7,1.2-0.5,2.6-0.5,3.9c0,0.4,0,0.7-0.1,1.1
						c0,0.2-0.1,0.7-0.3,0.9c-0.1,0.1-0.4,0-0.5,0c-0.2-0.1-0.3-0.3-0.3-0.5c0-0.2-0.2-0.1-0.4,0c-0.1,0.1-0.3,0.4-0.3,0.6
						c0.1,0.5,0.5,0.9,1,0.7c0.8-0.2,1.1-1.1,1.3-1.9c0.1-0.3,0.1-0.7,0.2-1c0.1,0.5,0.3,1,0.5,1.5c0.2,0.3,0.5,0.7,0.9,0.6
						c0.3-0.1,0.5-0.4,0.7-0.8c0.1,0.3,0.4,0.6,0.8,0.6c0.4,0,0.8-0.5,0.9-0.8c0.2-0.4,0.2-0.9,0.2-1.3
						C131.2,96.1,131,94.8,130.1,94.9z M130.4,97.9c0,0.1,0,0.2-0.1,0.3c-0.2,0-0.3-0.3-0.3-0.4c-0.1-0.3-0.2-0.6-0.2-0.9
						c0-0.3,0-0.7,0-1c0-0.1,0-0.2,0.1-0.2c0.4,0.3,0.5,0.8,0.6,1.3C130.4,97.2,130.5,97.6,130.4,97.9z"/>
					<path class="st3" d="M140.4,96.1c-0.9-0.3-1.4,0.9-1.6,1.6c-0.2,0.7-0.3,1.8,0.4,2.1c0.4,0.2,0.8-0.1,1.1-0.4
						c0.3-0.3,0.5-0.7,0.6-1.1C141,97.7,141.2,96.5,140.4,96.1z M139.8,99.1c0,0.1-0.1,0.1-0.1,0.2c-0.1-0.1-0.2-0.4-0.2-0.5
						c0-0.3,0-0.7,0-1c0.1-0.3,0.2-0.6,0.3-0.9c0-0.1,0.1-0.1,0.1-0.2c0.4,0.4,0.3,1,0.2,1.5C140.1,98.5,140,98.8,139.8,99.1z"/>
					<path class="st3" d="M137.9,96.3c0.2-0.2,0.3-0.5,0.5-0.7c0.3-0.5,0.7-1.1,0.6-1.7c0-0.6-0.8-0.6-1.2-0.4
						c-0.6,0.3-0.9,0.9-1.1,1.5c-0.2,0.8-0.4,1.6-0.4,2.4v0c-0.3,0.3-0.9,1.1-1.4,0.8c-0.1-0.1-0.2-0.2-0.2-0.4
						c0.4-0.4,0.7-0.8,1-1.3c0.3-0.4,0.5-1.1-0.1-1.4c-0.4-0.3-1,0-1.3,0.4c-0.3,0.4-0.4,0.8-0.5,1.3c0,0.2-0.1,0.7,0,1.1
						c-0.3,0.2-0.6,0.3-0.9,0.2c-0.4-0.1-0.5-0.4-0.5-0.7c-0.1-0.4-0.1-0.9,0-1.3c0-0.1,0.1-0.3,0.1-0.4c0,0,0-0.1,0-0.1
						c0.2,0.1,0.3,0.4,0.4,0.6c0.1,0.3,0.9-0.2,0.8-0.5c-0.1-0.3-0.2-0.6-0.6-0.8c-0.3-0.2-0.8,0.1-1,0.3c-0.5,0.6-0.6,1.4-0.6,2.1
						c0,0.5,0.1,1.1,0.5,1.3c0.6,0.3,1.3,0,1.9-0.3c0.1,0.3,0.4,0.6,0.8,0.5c0.6-0.1,1.1-0.4,1.5-0.8c0,0.4,0.1,0.9,0.4,1.1
						c0.5,0.3,1.1,0,1.4-0.4c0.4-0.5,0.7-1.3,0.4-1.9C138.4,96.4,138.1,96.3,137.9,96.3z M134.8,96c0-0.1,0.1-0.2,0.1-0.3l0,0
						c0.2,0.1,0.3,0.3,0.2,0.5c0,0.3-0.3,0.7-0.5,1c0-0.1,0-0.1,0-0.2C134.6,96.6,134.7,96.3,134.8,96z M137.7,94.3
						c0.1-0.1,0.1-0.2,0.2-0.3c0,0,0,0,0,0c0.4,0.4,0,1-0.2,1.3c-0.2,0.4-0.4,0.7-0.7,1.1c0-0.4,0.1-0.7,0.2-1.1
						C137.4,94.9,137.6,94.6,137.7,94.3z M137.5,98.5c0,0-0.1,0.1-0.1,0.2c0,0-0.1,0-0.1,0c-0.2-0.1-0.2-0.6-0.3-0.8
						c0-0.2,0-0.4,0-0.5c0.1-0.1,0.2-0.2,0.3-0.3c0.2-0.1,0.3,0.1,0.4,0.3C137.8,97.7,137.7,98.1,137.5,98.5z"/>
				</g>
			</g>
			<path class="st3" d="M132,118.1c0-0.3-0.5-0.2-0.6-0.2c0,0-0.1-0.1-0.1-0.4c0-0.3,0-0.6,0-0.9c0.1-0.9,0.3-1.8,0.6-2.6
				c0,0,0,0,0-0.1c0.1-0.6-0.4-1.1-1.1-1.2c-0.7-0.1-1.3,0.2-1.7,0.7c-0.6,0.6-0.9,1.4-1,2.2c0,0,0,0,0,0c-0.2,1.1-0.5,1-0.6,1
				c-0.2-0.1-0.1-0.8-0.1-1.1c0-0.9,0.2-1.8,0.5-2.7c0.1-0.2,0.2-0.4,0.3-0.6c0.1-0.2,0-0.4-0.3-0.4c-0.3,0-0.7,0.2-0.8,0.5
				c-0.1,0.2-0.2,0.4-0.3,0.7c-0.2,0.3-0.3,0.6-0.6,0.8c-0.2,0.2-0.3,0.3-0.6,0.4c0,0,0,0-0.1,0c0.1-0.9,0.1-1.8,0.2-2.7
				c0-0.6-1.2-0.1-1.2,0.3c0,0.5,0,1.1-0.1,1.6c-0.1,0.3-0.2,0.7-0.3,1c-0.2,0.4-0.4,0.9-0.7,1.2c0,0,0,0,0,0
				c-0.1-0.3-0.1-0.6-0.1-0.9c0-0.5,0-1,0.1-1.5c0-0.3,0.1-0.5,0.1-0.8c0-0.2,0.1-0.4,0.1-0.6c0,0,0,0,0-0.1c0-0.6-0.5-1-1.2-0.9
				c-0.7,0.1-1.3,0.5-1.6,1c-0.5,0.7-0.7,1.5-0.7,2.4c0,0.2-0.1,0.9-0.4,1c0,0,0,0-0.1-0.1c-0.1-0.3-0.1-0.5-0.1-0.8
				c0-1.1,0.2-2.4-0.3-3.4c-0.4-0.8-1.3-0.1-1.8,0.5c-0.1-0.3-0.2-0.6-0.4-0.8c-0.3-0.2-0.8,0-1,0.1c-0.2,0.1-0.4,0.3-0.5,0.5
				c0-0.1,0-0.3,0-0.4c-0.1-0.6-1.2,0.2-1.2,0.6c0.1,0.6,0.1,1.2,0.1,1.8c0,0.9-0.4,2.4-1.6,2.3c-0.3,0-0.4-0.3-0.6-0.5
				c0.3-0.4,0.6-0.9,0.9-1.4c0.5-0.8,0.9-1.9,0.3-2.6c-0.4-0.5-1.4,0-1.8,0.4c-0.5,0.6-0.7,1.3-0.8,2c0,0.4,0,1.3,0.2,2
				c-0.1,0.1-0.2,0.2-0.3,0.2c0,0,0,0-0.1,0c0,0,0,0-0.1,0c-0.1-0.1-0.2-0.2-0.3-0.3c-0.2-0.4-0.3-0.8-0.4-1.2
				c-0.2-0.8-0.3-1.7-0.1-2.5c0-0.2,0-0.4-0.3-0.3c-0.3,0.1-0.6,0.4-0.7,0.7c0,0,0,0.1,0,0.1h0l0,0c-0.2,0.5-0.3,1-0.4,1.5
				c-0.2-0.6-0.4-1.3-0.3-1.9c0.1-0.2,0-0.4-0.3-0.3c-0.3,0.1-0.6,0.4-0.6,0.6c-0.4,0.9-0.3,1.9-0.3,3c0,0.5,0,1-0.1,1.4
				c0,0-0.1,0-0.1,0c-0.3-0.1-0.4-0.5-0.4-0.7c0,0,0-0.1,0-0.1c0,0,0,0,0,0c0-0.1-0.2-0.1-0.3,0c0,0-0.1,0-0.1,0
				c-0.2,0.1-0.3,0.2-0.4,0.4c-0.1,0.1-0.2,0.3-0.2,0.4c0,0,0,0,0,0c-0.1,0.3-0.1,0.5-0.5,0.6c-0.2,0-0.3,0-0.5,0
				c-0.4-0.1-0.7-0.4-0.8-0.7c-0.5-0.9-0.7-1.8-0.9-2.9c-0.1-0.5,0-1,0.1-1.6c0-0.2,0.1-0.4,0.1-0.6c0,0,0.1-0.3,0.1-0.2
				c0,0,0-0.1,0.1-0.1c0,0,0,0,0,0c0,0,0,0,0,0c0,0,0,0,0,0c0,0,0,0,0,0c0,0,0,0,0.1-0.1c0,0,0.3-0.1,0.4-0.1
				c0.8-0.1,1.1,0.6,1.3,1.1c0.1,0.4,1.1-0.6,1-1c-0.2-0.7-0.7-1.4-1.7-1.3c-0.6,0.1-1.2,0.4-1.6,0.9c-0.9,1.1-1.1,2.6-1,4
				c0.1,1.3,0.4,2.6,1.3,3.5c0.3,0.3,0.8,0.5,1.3,0.4c0.6-0.1,1-0.5,1.4-1c0.3,0.4,0.7,0.6,1.3,0.1c0.5-0.4,0.8-1.1,0.9-1.6
				c0.1,0.4,0.2,0.8,0.3,1.2c0.1,0.6,1-0.4,1-0.8c0-0.2,0-0.5,0-0.7c0.3,1,0.9,1.6,1.8,0.9c0,0,0.1,0,0.1-0.1
				c0.1-0.1,0.3-0.3,0.4-0.4c0.2,0.3,0.5,0.5,0.9,0.5c0.7,0,1.4-0.5,1.8-0.9c0.1-0.1,0.3-0.3,0.4-0.4c0,0.3,0,0.6,0,0.9
				c0,0.6,1.1-0.2,1.1-0.6c0-1.2,0.2-2.3,0.4-3.5c0-0.1,0.1-0.2,0.1-0.3c0,0,0,0,0,0c0.3,0.6,0.3,1.4,0.3,2.1c0,0.3,0,0.6,0,1
				c0,0.4,0,0.8,0,1.2c0,0.6,1.1-0.2,1.1-0.6c0-0.4,0-0.9,0.1-1.3c0.1-0.8,0.2-1.7,0.6-2.4c0,0.1,0.1,0.2,0.1,0.3
				c0.2,0.6,0.2,1.3,0.2,1.8c0,0.8-0.2,2.1,0.6,2.4c0.3,0.1,1-0.3,1.3-0.6c0.1,0.3,0.2,0.5,0.5,0.7c0.5,0.3,1.2,0,1.6-0.3
				c0,0.2,0.1,0.5,0.3,0.6c0.2,0.1,0.6,0.1,0.8,0c0.4-0.1,0.7-0.4,0.9-0.6c0,0.2-0.1,0.5-0.1,0.7c0,0.3,0.3,0.3,0.5,0.2
				c0.3-0.1,0.6-0.3,0.7-0.6c0.1-0.5,0.2-0.9,0.5-1.3c0.2-0.2,0.3-0.2,0.6-0.4c0,0,0,0,0,0c-0.1,0.7-0.2,1.4-0.1,2.2
				c0.1,0.7,0.5,0.9,1.2,0.7c0.3-0.1,0.5-0.2,0.7-0.3c0.1,0.3,0.2,0.5,0.4,0.7c0.5,0.4,1.2,0.2,1.6,0c0,0,0,0,0.1,0
				c0,0.2,0,0.4,0.1,0.6c0.3,0.5,0.9,0.4,1.2,0.3C131.6,118.5,132,118.4,132,118.1z M111.8,111.9
				C111.8,111.9,111.8,111.9,111.8,111.9L111.8,111.9z M111.7,113.2c0-0.5,0.1-0.9,0.2-1.4c0,0,0,0,0,0c0.1,0,0.1,0,0.2,0.1
				c0.5,0.3,0.2,1.1,0,1.5c-0.1,0.2-0.2,0.5-0.4,0.7C111.8,113.8,111.7,113.5,111.7,113.2z M121.7,115.2c0,0-0.1,0.2-0.1,0.2
				c0,0-0.1,0-0.2,0c-0.2-0.1-0.3-0.5-0.4-0.6c-0.2-0.7-0.1-1.6,0.2-2.3c0.1-0.2,0.3-0.6,0.4-0.7c0,0,0.1,0,0.2,0
				c0.3,0.1,0.4,0.2,0.4,0.5C122.1,113.3,122,114.3,121.7,115.2z M129.7,116.9c0,0-0.1,0.1-0.1,0.2c0,0-0.1,0-0.2-0.1
				c-0.2-0.1-0.2-0.5-0.3-0.7c-0.1-0.8,0.1-1.6,0.4-2.2c0.1-0.2,0.3-0.5,0.4-0.6c0,0,0.1,0,0.2,0c0.3,0.1,0.4,0.3,0.3,0.5
				C130.3,115.1,130.1,116.1,129.7,116.9z"/>
			<g>
				<path class="st3" d="M97.4,129.8c0.2-0.2,0.4-0.5,0.5-0.7c0.1-0.1,0.2-0.2,0.2-0.3c0.1-0.1,0.1-0.1,0,0c0,0.2,0,0.3,0,0.5
					c0,1,0,2-0.1,2.9c0,0.4,0.6-0.1,0.6-0.3c0.1-0.6,0.1-1.3,0.1-1.9c0-0.3,0.2-1.8-0.1-1.9c-0.7-0.2-1.3,1.3-1.6,1.7
					C96.6,130.1,97.2,130.1,97.4,129.8L97.4,129.8z"/>
				<path class="st3" d="M99.3,131.4c0.5,1.7,3.1,0.5,2.6-1c-0.2-0.7-1.1-0.6-1.7-0.8c-0.3-0.1-0.4-0.4-0.3-0.7
					c0.1-0.3,0.1-0.4-0.1-0.2c0.1,0,0.2-0.1,0.3-0.1c0.5-0.1,1.1-0.1,1.5,0.2c0.2,0.1,0.7-0.5,0.5-0.6c-0.6-0.3-1.3-0.3-2-0.1
					c-0.6,0.1-0.8,0.7-0.8,1.3c0,0.7,0.6,0.8,1.2,0.9c0.4,0.1,0.8,0.2,0.8,0.7c0.1,0.8-0.7,0.7-1.1,0.4c-0.2-0.1-0.3-0.3-0.3-0.5
					C99.9,130.7,99.3,131.2,99.3,131.4L99.3,131.4z"/>
				<g>
					<path class="st3" d="M105.5,128.4c-0.7,1.2-1.6,2.3-2.5,3.4c-0.4,0.5,0.2,0.5,0.5,0.1c0.9-1.2,1.8-2.3,2.6-3.6
						C106.4,127.9,105.7,128.1,105.5,128.4L105.5,128.4z"/>
					<path class="st3" d="M104.2,128.1c-0.4,0-0.8,0.4-0.8,0.8c-0.1,0.4,0.2,0.7,0.5,0.7C104.7,129.7,105.1,128.1,104.2,128.1
						c-0.2,0-0.5,0.5-0.3,0.5c0.2,0,0.3,0.2,0.3,0.4c0,0.1,0,0.2,0,0.2c0,0.1,0,0,0,0c0,0-0.1,0-0.1,0c-0.2,0-0.3-0.2-0.3-0.4
						c0-0.1,0-0.2,0-0.2c0-0.1,0,0,0,0c0,0,0.1,0,0.1,0C104.1,128.5,104.4,128.1,104.2,128.1z"/>
					<path class="st3" d="M105.4,130.6c-0.4,0-0.8,0.4-0.8,0.8c-0.1,0.4,0.2,0.7,0.5,0.7C106,132.2,106.4,130.7,105.4,130.6
						c-0.2,0-0.5,0.5-0.3,0.5c0.2,0,0.3,0.2,0.3,0.4c0,0.1,0,0.2,0,0.2c0,0.1,0,0,0,0c0,0-0.1,0-0.1,0c-0.2,0-0.3-0.2-0.3-0.4
						c0-0.1,0-0.2,0-0.2c0-0.1,0,0,0,0c0,0,0.1,0,0.1,0C105.3,131.1,105.7,130.6,105.4,130.6z"/>
				</g>
			</g>
		</g>
		<g>
			<path class="st8" d="M94,105.5c-0.1,0-0.2-0.2-0.3-0.2c-0.4-0.1-0.7,0.1-1.1,0.1c-0.9,0-1.2,0-2.3-0.3c0-0.9,0.5-1.5,0.8-2.2
				c0.2-0.6-0.1-1.4-0.1-2.1c0-0.4,0-0.9,0-1.3c-0.3,0.3-0.2,1.1-0.2,1.5c-0.1-0.5-0.1-1.3-0.3-1.7c-0.1,0.5,0,1.3,0,1.7
				c-0.2-0.5-0.2-1.1-0.4-1.5c-0.2,0.5,0.2,1.2,0.1,1.7c-0.2-0.4-0.3-1-0.5-1.4c-0.1,0.6,0.2,1.1,0.2,1.5c-0.2-0.4-0.3-0.8-0.6-1
				c0,0.4,0.2,0.8,0.4,1.2c-0.3-0.1-0.3-0.4-0.6-0.5c0,0.3,0.2,0.5,0.3,0.7c-0.2-0.1-0.3-0.3-0.5-0.4c0,0.3,0.2,0.3,0.3,0.6
				c-0.1-0.1-0.2-0.2-0.4-0.3c0,0.2,0.3,0.3,0.3,0.5c0,0-0.2-0.1-0.2,0c0,0,0.2,0.1,0.1,0.2c-0.1,0-0.1,0-0.2,0
				c0,0.1,0.2,0.1,0.1,0.2c-0.1,0-0.1-0.1-0.1,0c0,0.1,0.1,0.1,0.1,0.2c-0.8,0.8-0.3,1.7-0.4,2.6c0-0.1-0.6-0.3-1.2-0.5
				c-0.3-0.1-0.3-0.4-0.6-0.6c0-0.1,0.1,0,0.1-0.1c-0.1,0-0.2-0.1-0.2-0.2c0.1,0,0.3,0,0.3,0c-0.1-0.1-0.5-0.2-0.4-0.3
				c0.2,0,0.4,0.1,0.5,0.1c-0.2-0.1-0.6-0.3-0.6-0.5c0.2,0.1,0.5,0.3,0.7,0.2c-0.3-0.2-0.8-0.4-0.9-0.7c0.2,0.1,0.5,0.4,0.8,0.4
				c-0.4-0.1-0.7-0.5-1.1-0.5c0.2,0.3,0.7,0.5,0.9,0.8c-0.3-0.2-0.6-0.3-0.9-0.5c0.1,0.4,0.5,0.5,0.8,0.7c-0.3,0-0.4-0.2-0.7-0.2
				c0.1,0.3,0.5,0.2,0.7,0.5c-0.1-0.1-0.3,0-0.5,0c0,0.2,0.3,0.1,0.5,0.2c-0.2,0-0.3,0-0.4,0.1c0.1,0.1,0.3,0.1,0.4,0.2
				c-0.1,0-0.2,0-0.2,0.1c0,0.1,0.2,0,0.3,0.1c-0.1,0-0.1,0.1-0.1,0.1c0.1,0,0.2,0,0.2,0c0,0-0.1,0-0.1,0.1c0.4,0.2,0.6,0.9,1.2,1.1
				c-0.3,0.2,0.3,0.4-3.3,1.7c0.1,0,1.6-0.4,2-0.5c0.4-0.2,0.9-0.3,1.3-0.4c0.1,0,0.2-0.1,0.3-0.1c0.8-0.1,1.4,0.1,2.1-0.4
				c-0.6,0.1-1.5,0.2-1.9-0.1c0.5-0.8,0.2-2.7,0.5-3.1c0.4-0.4,1-1.6,1.7-0.6c0.1,0.2,0.1,0.4-0.1,0.9c-0.3,0.5-0.5,0.8-0.5,2
				c0,0.2,0,0.5-0.4,0.5c1.6,0.3,2,0.2,2.9,0c0.3,0,0.7-0.3,0.8,0c0,0.1-0.3,0.1-0.6,0.1c-0.4,0,0.2,0.2,0.4,0.1
				c0.1,0,0.9-0.1,1.4-0.2C94.5,105.6,94.3,105.6,94,105.5z"/>
			<path class="st8" d="M89.4,97.5c-3.6,0-6.5,2.9-6.5,6.5s2.9,6.5,6.5,6.5c3.6,0,6.5-2.9,6.5-6.5S93,97.5,89.4,97.5 M89.4,97.8
				c3.4,0,6.2,2.8,6.2,6.2c0,3.4-2.8,6.2-6.2,6.2c-3.4,0-6.2-2.8-6.2-6.2C83.2,100.6,86,97.8,89.4,97.8"/>
		</g>
	</g>
	<g>
		<circle class="st9" cx="228.8" cy="113" r="18.8"/>
		<circle class="st5" cx="213.8" cy="129.7" r="5.9"/>
		<path class="st10" d="M219.9,90c0,1.3-1.1,2.4-2.4,2.4c-1.3,0-2.4-1.1-2.4-2.4c0-1.3,1.1-2.4,2.4-2.4
			C218.8,87.6,219.9,88.6,219.9,90L219.9,90z"/>
		<path class="st7" d="M220,98.1c0,1.7-1.4,3.1-3.1,3.1s-3.1-1.4-3.1-3.1c0-1.7,1.4-3.1,3.1-3.1S220,96.4,220,98.1L220,98.1z"/>
		<path class="st7" d="M211.8,93.3c0,1-0.8,1.8-1.8,1.8c-1,0-1.8-0.8-1.8-1.8c0-1,0.8-1.8,1.8-1.8C210.9,91.5,211.8,92.3,211.8,93.3
			L211.8,93.3z"/>
		<g>
			<circle class="st5" cx="244.9" cy="95.8" r="10.4"/>
			<g>
				<path class="st3" d="M242.3,94.4c-0.9,0.1-1.1,1.1-1.1,1.8l0,0l0,0c0,0.1,0,0.2,0,0.3c0,0.3,0,0.6-0.1,0.9
					c0,0.1-0.1,0.4-0.1,0.4c-0.3,0-0.6-0.4-0.6-0.7c-0.2-0.5-0.4-1.1-0.5-1.6c-0.1-0.6-0.2-1.2-0.2-1.8c0-0.2,0-0.5,0-0.8
					c0-0.1,0-0.2,0-0.3c0-0.1,0-0.2,0-0.2c0.1-0.5-0.6,0-0.7,0.2c-0.7,1.2-0.5,2.6-0.5,3.9c0,0.4,0,0.7-0.1,1.1
					c0,0.2-0.1,0.7-0.3,0.9c-0.1,0.1-0.4,0-0.5,0c-0.2-0.1-0.3-0.3-0.3-0.5c0-0.2-0.2-0.1-0.4,0c-0.1,0.1-0.3,0.4-0.3,0.6
					c0.1,0.5,0.5,0.9,1,0.7c0.8-0.2,1.1-1.1,1.3-1.9c0.1-0.3,0.1-0.7,0.2-1c0.1,0.5,0.3,1,0.5,1.5c0.2,0.3,0.5,0.7,0.9,0.6
					c0.3-0.1,0.6-0.4,0.7-0.8c0.1,0.3,0.4,0.6,0.8,0.6c0.4,0,0.8-0.5,0.9-0.8c0.2-0.4,0.2-0.9,0.2-1.3
					C243.4,95.5,243.2,94.3,242.3,94.4z M242.6,97.3c0,0.1,0,0.2-0.1,0.3c-0.2,0-0.3-0.3-0.3-0.4c-0.1-0.3-0.2-0.6-0.2-0.9
					c0-0.3,0-0.7,0-1c0-0.1,0-0.2,0.1-0.2c0.4,0.3,0.5,0.8,0.6,1.3C242.6,96.7,242.6,97,242.6,97.3z"/>
				<path class="st3" d="M252.6,95.6c-0.9-0.3-1.4,0.9-1.6,1.6c-0.2,0.7-0.4,1.8,0.4,2.1c0.4,0.2,0.9-0.1,1.1-0.4
					c0.3-0.3,0.5-0.7,0.6-1.1C253.3,97.1,253.4,95.9,252.6,95.6z M252,98.5c0,0.1-0.1,0.1-0.1,0.2c-0.1-0.1-0.2-0.4-0.2-0.5
					c0-0.3,0-0.7,0-1c0.1-0.3,0.2-0.6,0.3-0.9c0-0.1,0.1-0.1,0.1-0.2c0.4,0.4,0.3,1,0.2,1.5C252.3,97.9,252.2,98.3,252,98.5z"/>
				<path class="st3" d="M250.1,95.7c0.2-0.2,0.3-0.5,0.5-0.7c0.3-0.5,0.7-1.1,0.6-1.8c0-0.6-0.8-0.6-1.2-0.4
					c-0.6,0.3-0.9,0.9-1.1,1.5c-0.2,0.8-0.4,1.6-0.4,2.4v0c-0.3,0.3-0.9,1.1-1.4,0.8c-0.1-0.1-0.2-0.2-0.2-0.4
					c0.4-0.4,0.7-0.8,1-1.3c0.3-0.4,0.5-1.1-0.1-1.4c-0.4-0.3-1,0-1.3,0.4c-0.3,0.4-0.4,0.8-0.5,1.3c0,0.2-0.1,0.7,0,1.1
					c-0.3,0.2-0.6,0.3-0.9,0.2c-0.4-0.1-0.5-0.4-0.6-0.7c-0.1-0.4-0.1-0.9,0-1.3c0-0.1,0.1-0.3,0.1-0.4c0,0,0-0.1,0-0.1
					c0.2,0.1,0.3,0.4,0.4,0.6c0.1,0.3,0.9-0.2,0.8-0.5c-0.1-0.3-0.2-0.6-0.6-0.8c-0.3-0.2-0.8,0.1-1,0.3c-0.6,0.6-0.6,1.4-0.6,2.1
					c0,0.5,0.1,1.1,0.5,1.3c0.6,0.3,1.3,0,1.9-0.3c0.1,0.3,0.4,0.6,0.9,0.5c0.6-0.1,1.1-0.4,1.5-0.8c0,0.4,0.1,0.9,0.4,1.1
					c0.5,0.3,1.1,0,1.4-0.4c0.4-0.5,0.7-1.3,0.4-1.9C250.6,95.9,250.4,95.7,250.1,95.7z M247,95.4c0-0.1,0.1-0.2,0.1-0.3l0,0
					c0.2,0.1,0.3,0.4,0.2,0.5c0,0.4-0.3,0.7-0.5,1c0-0.1,0-0.1,0-0.2C246.8,96.1,246.8,95.7,247,95.4z M249.9,93.7
					c0.1-0.1,0.1-0.2,0.2-0.3c0,0,0,0,0,0c0.4,0.4,0,1-0.2,1.3c-0.2,0.4-0.4,0.7-0.7,1.1c0-0.4,0.1-0.7,0.2-1.1
					C249.6,94.3,249.8,94,249.9,93.7z M249.7,97.9c0,0-0.1,0.1-0.1,0.2c0,0-0.1,0-0.1,0c-0.2-0.1-0.2-0.6-0.3-0.8c0-0.2,0-0.4,0-0.5
					c0.1-0.1,0.2-0.2,0.3-0.3c0.2-0.1,0.3,0.1,0.4,0.3C250.1,97.1,249.9,97.6,249.7,97.9z"/>
			</g>
		</g>
		<path class="st3" d="M244.2,117.6c0-0.3-0.5-0.2-0.6-0.2c0,0-0.1-0.1-0.1-0.4c0-0.3,0-0.6,0-0.9c0.1-0.9,0.3-1.8,0.6-2.7
			c0,0,0,0,0-0.1c0.1-0.6-0.4-1.1-1.1-1.2c-0.7-0.1-1.3,0.2-1.7,0.7c-0.6,0.6-0.9,1.4-1,2.2c0,0,0,0,0,0c-0.2,1.1-0.5,1-0.6,1
			c-0.2-0.1-0.1-0.8-0.1-1.1c0-0.9,0.2-1.8,0.5-2.7c0.1-0.2,0.2-0.4,0.3-0.6c0.1-0.2,0-0.4-0.3-0.4c-0.3,0-0.7,0.2-0.8,0.5
			c-0.1,0.2-0.2,0.4-0.3,0.7c-0.2,0.3-0.3,0.6-0.6,0.8c-0.2,0.2-0.3,0.3-0.6,0.4c0,0,0,0-0.1,0c0.1-0.9,0.1-1.8,0.2-2.7
			c0-0.6-1.2-0.1-1.2,0.3c0,0.5,0,1.1-0.1,1.6c-0.1,0.3-0.2,0.7-0.3,1c-0.2,0.4-0.4,1-0.7,1.2l0,0c-0.1-0.3-0.1-0.6-0.1-0.9
			c0-0.5,0-1,0.1-1.5c0-0.3,0.1-0.5,0.1-0.8c0-0.2,0.1-0.4,0.1-0.6c0,0,0,0,0-0.1c0-0.6-0.5-1-1.2-1c-0.7,0.1-1.3,0.5-1.6,1
			c-0.5,0.7-0.7,1.5-0.7,2.4c0,0.2-0.1,0.9-0.4,1c0,0,0,0-0.1-0.1c-0.1-0.3-0.1-0.5-0.1-0.8c0-1.1,0.2-2.4-0.3-3.4
			c-0.4-0.8-1.4-0.1-1.8,0.5c-0.1-0.3-0.2-0.6-0.4-0.8c-0.3-0.2-0.8,0-1,0.1c-0.2,0.1-0.4,0.3-0.5,0.5c0-0.2,0-0.3,0-0.4
			c-0.1-0.6-1.2,0.2-1.2,0.6c0.1,0.6,0.1,1.2,0.1,1.8c0,0.9-0.4,2.4-1.6,2.3c-0.3,0-0.4-0.3-0.6-0.5c0.3-0.4,0.6-0.9,0.9-1.4
			c0.5-0.8,0.9-1.9,0.3-2.6c-0.4-0.5-1.4,0-1.8,0.4c-0.5,0.6-0.7,1.3-0.8,2c0,0.4,0,1.3,0.2,2c-0.1,0.1-0.2,0.2-0.3,0.2
			c0,0,0,0-0.1,0c0,0,0,0-0.1,0c-0.1-0.1-0.2-0.2-0.3-0.3c-0.2-0.4-0.3-0.8-0.4-1.2c-0.2-0.8-0.3-1.7-0.1-2.5c0-0.2,0-0.4-0.3-0.3
			c-0.3,0.1-0.6,0.4-0.7,0.7c0,0,0,0.1,0,0.1l0,0l0,0c-0.2,0.5-0.3,1-0.4,1.5c-0.2-0.6-0.4-1.3-0.3-1.9c0.1-0.2,0-0.4-0.3-0.3
			c-0.3,0.1-0.6,0.4-0.6,0.6c-0.4,0.9-0.3,1.9-0.3,3c0,0.5,0,1-0.1,1.5c0,0-0.1,0-0.1,0c-0.3-0.1-0.4-0.5-0.4-0.7c0,0,0-0.1,0-0.1
			c0,0,0,0,0,0c0-0.1-0.2-0.1-0.3,0c0,0-0.1,0-0.1,0c-0.2,0.1-0.3,0.2-0.4,0.4c-0.1,0.1-0.2,0.3-0.2,0.4c0,0,0,0,0,0
			c-0.1,0.3-0.1,0.5-0.5,0.6c-0.2,0-0.3,0-0.5,0c-0.4-0.1-0.7-0.4-0.8-0.7c-0.5-0.9-0.8-1.8-0.9-2.9c-0.1-0.5,0-1,0.1-1.6
			c0-0.2,0.1-0.4,0.1-0.6c0-0.1,0.1-0.3,0.1-0.3c0,0,0-0.1,0.1-0.1c0,0,0,0,0,0c0,0,0,0,0,0c0,0,0,0,0,0c0,0,0,0,0,0
			c0,0,0,0,0.1-0.1c0,0,0.3-0.1,0.4-0.1c0.8-0.1,1.1,0.6,1.3,1.1c0.1,0.4,1.2-0.6,1-1c-0.2-0.7-0.7-1.4-1.7-1.3
			c-0.6,0.1-1.2,0.4-1.6,0.9c-0.9,1.1-1.1,2.7-1,4.1c0.1,1.3,0.4,2.6,1.3,3.5c0.3,0.3,0.8,0.5,1.3,0.4c0.6-0.1,1-0.5,1.4-1
			c0.3,0.4,0.7,0.6,1.3,0.1c0.5-0.4,0.8-1.1,0.9-1.7c0.1,0.4,0.2,0.8,0.3,1.2c0.1,0.6,1-0.4,1-0.8c0-0.2,0-0.5,0-0.7
			c0.3,1,0.9,1.6,1.8,0.9c0,0,0.1,0,0.1-0.1c0.1-0.1,0.3-0.3,0.4-0.4c0.2,0.3,0.5,0.5,0.9,0.5c0.7,0,1.4-0.5,1.8-0.9
			c0.1-0.1,0.3-0.3,0.4-0.4c0,0.3,0,0.6,0,0.9c0,0.6,1.1-0.2,1.1-0.6c0-1.2,0.2-2.3,0.4-3.5c0-0.1,0.1-0.2,0.1-0.3c0,0,0,0,0,0
			c0.3,0.6,0.3,1.4,0.3,2.1c0,0.3,0,0.6,0,1c0,0.4,0,0.8,0,1.2c0,0.6,1.1-0.2,1.1-0.6c0-0.4,0-0.9,0.1-1.3c0.1-0.8,0.2-1.7,0.6-2.4
			c0,0.1,0.1,0.2,0.1,0.3c0.2,0.6,0.2,1.3,0.2,1.8c0,0.8-0.2,2.1,0.6,2.4c0.3,0.1,1-0.3,1.3-0.6c0.1,0.3,0.2,0.5,0.5,0.7
			c0.5,0.3,1.2,0,1.6-0.3c0,0.2,0.1,0.5,0.3,0.6c0.2,0.1,0.6,0.1,0.8,0c0.4-0.1,0.7-0.4,0.9-0.6c0,0.2-0.1,0.5-0.1,0.7
			c0,0.3,0.3,0.3,0.5,0.2c0.3-0.1,0.6-0.3,0.7-0.6c0.1-0.5,0.2-0.9,0.5-1.3c0.2-0.2,0.3-0.2,0.6-0.4c0,0,0,0,0,0
			c-0.1,0.7-0.2,1.4-0.1,2.2c0.1,0.7,0.5,0.9,1.2,0.7c0.3-0.1,0.5-0.2,0.7-0.3c0.1,0.3,0.2,0.5,0.4,0.7c0.5,0.4,1.2,0.2,1.6,0
			c0,0,0,0,0.1,0c0,0.2,0,0.4,0.1,0.6c0.3,0.5,0.9,0.4,1.2,0.3C243.8,118.1,244.2,117.9,244.2,117.6z M223.9,111.4
			C223.9,111.4,223.9,111.4,223.9,111.4L223.9,111.4z M223.8,112.7c0-0.5,0.1-0.9,0.2-1.4c0,0,0,0,0,0c0.1,0,0.1,0,0.2,0.1
			c0.5,0.3,0.2,1.1,0,1.5c-0.1,0.2-0.2,0.5-0.4,0.7C223.9,113.3,223.8,113,223.8,112.7z M233.9,114.7c0,0-0.1,0.2-0.1,0.2
			c0,0-0.1,0-0.2,0c-0.2-0.1-0.3-0.5-0.4-0.7c-0.2-0.7-0.1-1.6,0.2-2.3c0.1-0.2,0.3-0.6,0.4-0.7c0,0,0.1,0,0.2,0
			c0.3,0.1,0.4,0.3,0.4,0.5C234.3,112.8,234.2,113.8,233.9,114.7z M241.9,116.5c0,0-0.1,0.1-0.1,0.2c0,0-0.1,0-0.2-0.1
			c-0.2-0.1-0.2-0.5-0.3-0.7c-0.1-0.8,0.1-1.6,0.4-2.3c0.1-0.2,0.3-0.5,0.4-0.6c0,0,0.1,0,0.2,0c0.3,0.1,0.4,0.3,0.3,0.5
			C242.5,114.6,242.3,115.6,241.9,116.5z"/>
		<g>
			<path class="st3" d="M213.8,127.5c-0.9,0.1-1.2,1.2-1.3,2c-0.1,0.6-0.1,2.3,0.9,2.4c1,0.1,1.3-1.2,1.4-1.9
				C214.8,129.2,214.8,127.6,213.8,127.5c-0.2,0-0.7,0.6-0.4,0.7c0.5,0,0.7,0.8,0.7,1.2c0,0.3,0.1,1.7-0.2,1.8
				c-0.5,0.2-0.7-0.9-0.7-1.2c0-0.3-0.1-1.8,0.3-1.8C213.7,128.1,214.1,127.5,213.8,127.5z"/>
			<path class="st3" d="M210.1,128.6c0.3-0.7,0.8-0.2,1,0.1c0.2,0.5,0,1-0.3,1.4c-0.2,0.3-0.6,0.6-0.9,0.8c-0.2,0.1-0.3,0.2-0.5,0.4
				c0,0.1-0.1,0.2,0,0.3c0.3,0.2,0.8,0.2,1.1,0.2c0.5,0,1.1,0,1.6-0.2c0.3-0.1,0.5-0.8,0-0.6c-0.4,0.2-0.9,0.2-1.3,0.1
				c-0.2,0-0.7,0-0.8-0.1c0,0.1,0,0.2,0,0.3c-0.2,0.4-0.1,0.2,0.1,0.1c0.2-0.1,0.3-0.2,0.5-0.4c0.3-0.2,0.5-0.5,0.7-0.8
				c0.4-0.5,0.7-1.2,0.6-1.9c-0.3-1.6-2-0.4-2.3,0.4C209.3,129.2,210,128.8,210.1,128.6L210.1,128.6z"/>
			<g>
				<path class="st3" d="M218,128c-0.7,1.2-1.6,2.3-2.5,3.5c-0.4,0.5,0.2,0.5,0.5,0.1c0.9-1.2,1.9-2.4,2.6-3.6
					C218.9,127.4,218.2,127.7,218,128L218,128z"/>
				<path class="st3" d="M216.7,127.7c-0.4,0-0.8,0.4-0.9,0.8c-0.1,0.4,0.2,0.7,0.6,0.7C217.2,129.3,217.6,127.7,216.7,127.7
					c-0.2,0-0.5,0.5-0.3,0.5c0.2,0,0.3,0.2,0.4,0.4c0,0.1,0,0.2,0,0.2c0,0.1,0,0,0,0c0,0-0.1,0-0.1,0c-0.2,0-0.3-0.2-0.3-0.4
					c0-0.1,0-0.2,0-0.2c0-0.1,0,0,0,0c0,0,0.1,0,0.1,0C216.6,128.1,216.9,127.6,216.7,127.7z"/>
				<path class="st3" d="M217.9,130.2c-0.4,0-0.8,0.4-0.9,0.8c-0.1,0.4,0.2,0.7,0.6,0.7C218.5,131.8,218.9,130.3,217.9,130.2
					c-0.2,0-0.5,0.5-0.3,0.5c0.2,0,0.3,0.2,0.4,0.4c0,0.1,0,0.2,0,0.2c0,0.1,0,0,0,0c0,0-0.1,0-0.1,0c-0.2,0-0.3-0.2-0.3-0.4
					c0-0.1,0-0.2,0-0.2c0-0.1,0,0,0,0c0,0,0.1,0,0.1,0C217.8,130.7,218.2,130.2,217.9,130.2z"/>
			</g>
		</g>
		<g>
			<path class="st8" d="M206,105c-0.1,0-0.2-0.2-0.3-0.2c-0.4-0.1-0.7,0.1-1.1,0.1c-0.9,0-1.2,0-2.3-0.3c0-0.9,0.5-1.5,0.8-2.2
				c0.2-0.6-0.1-1.4-0.1-2.1c0-0.4,0-0.9,0-1.3c-0.3,0.3-0.2,1.1-0.2,1.5c-0.1-0.6-0.1-1.3-0.3-1.8c-0.1,0.5,0,1.3,0,1.8
				c-0.2-0.5-0.2-1.1-0.4-1.5c-0.2,0.5,0.2,1.3,0.1,1.7c-0.2-0.4-0.3-1-0.5-1.4c-0.1,0.6,0.2,1.1,0.2,1.5c-0.2-0.4-0.3-0.8-0.6-1
				c0,0.4,0.2,0.8,0.4,1.2c-0.3-0.1-0.3-0.4-0.6-0.5c0,0.3,0.2,0.5,0.3,0.7c-0.2-0.1-0.3-0.3-0.5-0.4c0,0.3,0.2,0.3,0.3,0.6
				c-0.1-0.1-0.2-0.2-0.4-0.3c0,0.2,0.3,0.3,0.3,0.5c0,0-0.2-0.1-0.2,0c0,0,0.2,0.1,0.1,0.2c-0.1,0-0.1,0-0.2,0
				c0,0.1,0.2,0.1,0.1,0.3c-0.1,0-0.1-0.1-0.1,0c0,0.1,0.1,0.1,0.1,0.2c-0.8,0.8-0.3,1.7-0.4,2.6c0-0.1-0.6-0.3-1.2-0.5
				c-0.3-0.1-0.3-0.5-0.6-0.6c0-0.1,0.1,0,0.1-0.1c-0.1,0-0.2-0.1-0.2-0.2c0.1,0,0.3,0.1,0.3,0c-0.1-0.1-0.5-0.2-0.4-0.3
				c0.2,0,0.4,0.1,0.5,0.1c-0.2-0.1-0.6-0.3-0.6-0.5c0.2,0.1,0.5,0.3,0.7,0.2c-0.3-0.2-0.8-0.4-0.9-0.7c0.2,0.1,0.5,0.4,0.8,0.4
				c-0.4-0.1-0.7-0.5-1.1-0.5c0.2,0.4,0.7,0.5,0.9,0.8c-0.3-0.2-0.6-0.3-0.9-0.5c0.1,0.4,0.5,0.5,0.8,0.7c-0.3,0-0.4-0.2-0.7-0.2
				c0.1,0.3,0.5,0.2,0.7,0.5c-0.1-0.1-0.3,0-0.5,0c0,0.2,0.3,0.1,0.5,0.2c-0.2,0-0.3,0-0.4,0.1c0.1,0.1,0.3,0.1,0.4,0.2
				c-0.1,0-0.2,0-0.2,0.1c0,0.1,0.2,0,0.3,0.1c-0.1,0-0.1,0.1-0.1,0.1c0.1,0,0.2,0,0.2,0c0,0-0.1,0-0.1,0.1c0.4,0.2,0.6,0.9,1.2,1.1
				c-0.3,0.2,0.3,0.4-3.3,1.7c0.1,0,1.6-0.4,2-0.5c0.4-0.2,0.9-0.3,1.3-0.4c0.1,0,0.2-0.1,0.3-0.1c0.8-0.1,1.4,0.1,2.2-0.4
				c-0.6,0.1-1.5,0.2-1.9-0.1c0.5-0.8,0.2-2.7,0.5-3.1c0.4-0.4,1-1.6,1.8-0.6c0.1,0.2,0.1,0.4-0.1,0.9c-0.3,0.5-0.5,0.8-0.5,2
				c0,0.2,0,0.5-0.4,0.5c1.6,0.3,2,0.2,2.9,0c0.3,0,0.7-0.3,0.8,0c0,0.1-0.3,0.1-0.6,0.1c-0.4,0,0.2,0.2,0.4,0.1
				c0.1,0,0.9-0.1,1.4-0.2C206.5,105.1,206.3,105.1,206,105z"/>
			<path class="st8" d="M201.4,97c-3.6,0-6.5,2.9-6.5,6.5c0,3.6,2.9,6.5,6.5,6.5c3.6,0,6.5-2.9,6.5-6.5C207.9,99.9,205,97,201.4,97
				 M201.4,97.3c3.5,0,6.3,2.8,6.3,6.3c0,3.5-2.8,6.3-6.3,6.3c-3.5,0-6.3-2.8-6.3-6.3C195.2,100.1,198,97.3,201.4,97.3"/>
		</g>
	</g>
</g>
<g id="vanna_2">
</g>
<g id="sneg">
</g>
<g id="vanna_1">
</g>
<g id="zakvaska">
</g>
<g id="shariki_2">
</g>
<g id="gradusnik">
</g>
<g id="kolba_2">
</g>
<g id="kolba_1">
</g>
<g id="probirki">
</g>
<g id="shariki_1">
</g>
<g id="voronka">
</g>
<g id="lupa">
</g>
<g id="bidon">
</g>
<g id="blank">
</g>
<g id="ticks">
</g>
<g id="clock">
</g>
</svg>
