<?xml version="1.0" encoding="utf-8"?>
<!-- Generator: Adobe Illustrator 19.0.0, SVG Export Plug-In . SVG Version: 6.00 Build 0)  -->
<svg version="1.1" id="Layer_1" xmlns="http://www.w3.org/2000/svg" xmlns:xlink="http://www.w3.org/1999/xlink" x="0px" y="0px"
	 viewBox="0 0 130 153.8" style="enable-background:new 0 0 130 153.8;" xml:space="preserve">
<style type="text/css">
	.st0{fill:#E2E2E2;}
	.st1{fill:#EFEFEF;}
	.st2{fill:#D3D3D3;}
	.st3{fill:#FFFFFF;}
	.st4{fill:#C62263;}
	.st5{fill:#62BA47;}
	.st6{fill-rule:evenodd;clip-rule:evenodd;fill:#C62263;}
	.st7{fill-rule:evenodd;clip-rule:evenodd;fill:#62BA47;}
	.st8{fill:#62BA46;}
</style>
<g>
	<path class="st0" d="M106,29.8H77.9H66.8h-4.6H51.1H22.9l10.7,83.4h0.1c1.4,8.5,8.6,15,17.3,15h26.8c8.7,0,15.9-6.5,17.3-15h0
		L106,29.8z"/>
	<path class="st1" d="M110.8,26.9c0,1.6-1.3,2.9-2.9,2.9H22.1c-1.6,0-2.9-1.3-2.9-2.9l0,0c0-1.6,1.3-2.9,2.9-2.9h85.8
		C109.5,24,110.8,25.3,110.8,26.9L110.8,26.9z"/>
	<path class="st2" d="M77.9,29.8H66.8h-2.3v98.3h13.4c8.7,0,15.9-6.5,17.3-15h0L106,29.8H77.9z"/>
	<path class="st3" d="M38.7,47.1c0.3,2.5-1.4,4.7-3.9,5l0,0c-2.5,0.3-4.7-1.4-5-3.9l-1.2-9.1c-0.3-2.5,1.4-4.7,3.9-5l0,0
		c2.5-0.3,4.7,1.4,5,3.9L38.7,47.1z"/>
</g>
<g>
	<circle class="st4" cx="64.8" cy="75" r="18.8"/>
	<circle class="st5" cx="49.8" cy="91.7" r="5.9"/>
	<path class="st6" d="M55.9,52c0,1.3-1.1,2.4-2.4,2.4c-1.3,0-2.4-1.1-2.4-2.4c0-1.3,1.1-2.4,2.4-2.4C54.8,49.6,55.9,50.6,55.9,52
		L55.9,52z"/>
	<path class="st7" d="M56,60.1c0,1.7-1.4,3.1-3.1,3.1c-1.7,0-3.1-1.4-3.1-3.1c0-1.7,1.4-3.1,3.1-3.1C54.6,57,56,58.4,56,60.1
		L56,60.1z"/>
	<path class="st7" d="M47.8,55.3c0,1-0.8,1.8-1.8,1.8c-1,0-1.8-0.8-1.8-1.8c0-1,0.8-1.8,1.8-1.8C46.9,53.5,47.8,54.3,47.8,55.3
		L47.8,55.3z"/>
	<g>
		<circle class="st5" cx="80.9" cy="57.8" r="10.4"/>
		<g>
			<path class="st3" d="M78.3,56.4c-0.9,0.1-1.1,1.1-1.1,1.8l0,0l0,0c0,0.1,0,0.2,0,0.3c0,0.3,0,0.6-0.1,0.9c0,0.1-0.1,0.4-0.1,0.4
				c-0.3,0-0.6-0.4-0.6-0.7c-0.2-0.5-0.4-1.1-0.5-1.6c-0.1-0.6-0.2-1.2-0.2-1.8c0-0.2,0-0.5,0-0.8c0-0.1,0-0.2,0-0.3
				c0-0.1,0-0.2,0-0.2c0.1-0.5-0.6,0-0.7,0.2c-0.7,1.2-0.5,2.6-0.5,3.9c0,0.4,0,0.7-0.1,1.1c0,0.2-0.1,0.7-0.3,0.9
				c-0.1,0.1-0.4,0-0.5,0c-0.2-0.1-0.3-0.3-0.3-0.5c0-0.2-0.2-0.1-0.4,0c-0.1,0.1-0.3,0.4-0.3,0.6c0.1,0.5,0.5,0.9,1,0.7
				c0.8-0.2,1.1-1.1,1.3-1.9c0.1-0.3,0.1-0.7,0.2-1c0.1,0.5,0.3,1,0.5,1.5c0.2,0.3,0.5,0.7,0.9,0.6c0.3-0.1,0.6-0.4,0.7-0.8
				c0.1,0.3,0.4,0.6,0.8,0.6c0.4,0,0.8-0.5,0.9-0.8c0.2-0.4,0.2-0.9,0.2-1.3C79.4,57.5,79.2,56.3,78.3,56.4z M78.6,59.3
				c0,0.1,0,0.2-0.1,0.3c-0.2,0-0.3-0.3-0.3-0.4c-0.1-0.3-0.2-0.6-0.2-0.9c0-0.3,0-0.7,0-1c0-0.1,0-0.2,0.1-0.2
				c0.4,0.3,0.5,0.8,0.6,1.3C78.6,58.7,78.6,59,78.6,59.3z"/>
			<path class="st3" d="M88.6,57.6c-0.9-0.3-1.4,0.9-1.6,1.6c-0.2,0.7-0.4,1.8,0.4,2.1c0.4,0.2,0.9-0.1,1.1-0.4
				c0.3-0.3,0.5-0.7,0.6-1.1C89.3,59.1,89.4,57.9,88.6,57.6z M88,60.5c0,0.1-0.1,0.1-0.1,0.2c-0.1-0.1-0.2-0.4-0.2-0.5
				c0-0.3,0-0.7,0-1c0.1-0.3,0.2-0.6,0.3-0.9c0-0.1,0.1-0.1,0.1-0.2c0.4,0.4,0.3,1,0.2,1.5C88.3,59.9,88.2,60.3,88,60.5z"/>
			<path class="st3" d="M86.1,57.7c0.2-0.2,0.3-0.5,0.5-0.7c0.3-0.5,0.7-1.1,0.6-1.8c0-0.6-0.8-0.6-1.2-0.4
				c-0.6,0.3-0.9,0.9-1.1,1.5c-0.2,0.8-0.4,1.6-0.4,2.4v0c-0.3,0.3-0.9,1.1-1.4,0.8c-0.1-0.1-0.2-0.2-0.2-0.4c0.4-0.4,0.7-0.8,1-1.3
				c0.3-0.4,0.5-1.1-0.1-1.4c-0.4-0.3-1,0-1.3,0.4c-0.3,0.4-0.4,0.8-0.5,1.3c0,0.2-0.1,0.7,0,1.1c-0.3,0.2-0.6,0.3-0.9,0.2
				c-0.4-0.1-0.5-0.4-0.6-0.7c-0.1-0.4-0.1-0.9,0-1.3c0-0.1,0.1-0.3,0.1-0.4c0,0,0-0.1,0-0.1c0.2,0.1,0.3,0.4,0.4,0.6
				c0.1,0.3,0.9-0.2,0.8-0.5c-0.1-0.3-0.2-0.6-0.6-0.8c-0.3-0.2-0.8,0.1-1,0.3c-0.6,0.6-0.6,1.4-0.6,2.1c0,0.5,0.1,1.1,0.5,1.3
				c0.6,0.3,1.3,0,1.9-0.3c0.1,0.3,0.4,0.6,0.9,0.5c0.6-0.1,1.1-0.4,1.5-0.8c0,0.4,0.1,0.9,0.4,1.1c0.5,0.3,1.1,0,1.4-0.4
				c0.4-0.5,0.7-1.3,0.4-1.9C86.6,57.9,86.4,57.7,86.1,57.7z M83,57.4c0-0.1,0.1-0.2,0.1-0.3l0,0c0.2,0.1,0.3,0.4,0.2,0.5
				c0,0.4-0.3,0.7-0.5,1c0-0.1,0-0.1,0-0.2C82.8,58.1,82.8,57.7,83,57.4z M85.9,55.7c0.1-0.1,0.1-0.2,0.2-0.3c0,0,0,0,0,0
				c0.4,0.4,0,1-0.2,1.3c-0.2,0.4-0.4,0.7-0.7,1.1c0-0.4,0.1-0.7,0.2-1.1C85.6,56.3,85.8,56,85.9,55.7z M85.7,59.9
				c0,0-0.1,0.1-0.1,0.2c0,0-0.1,0-0.1,0c-0.2-0.1-0.2-0.6-0.3-0.8c0-0.2,0-0.4,0-0.5c0.1-0.1,0.2-0.2,0.3-0.3
				c0.2-0.1,0.3,0.1,0.4,0.3C86.1,59.1,85.9,59.6,85.7,59.9z"/>
		</g>
	</g>
	<path class="st3" d="M80.2,79.6c0-0.3-0.5-0.2-0.6-0.2c0,0-0.1-0.1-0.1-0.4c0-0.3,0-0.6,0-0.9c0.1-0.9,0.3-1.8,0.6-2.7
		c0,0,0,0,0-0.1c0.1-0.6-0.4-1.1-1.1-1.2c-0.7-0.1-1.3,0.2-1.7,0.7c-0.6,0.6-0.9,1.4-1,2.2c0,0,0,0,0,0c-0.2,1.1-0.5,1-0.6,1
		c-0.2-0.1-0.1-0.8-0.1-1.1c0-0.9,0.2-1.8,0.5-2.7c0.1-0.2,0.2-0.4,0.3-0.6c0.1-0.2,0-0.4-0.3-0.4c-0.3,0-0.7,0.2-0.8,0.5
		c-0.1,0.2-0.2,0.4-0.3,0.7c-0.2,0.3-0.3,0.6-0.6,0.8c-0.2,0.2-0.3,0.3-0.6,0.4c0,0,0,0-0.1,0c0.1-0.9,0.1-1.8,0.2-2.7
		c0-0.6-1.2-0.1-1.2,0.3c0,0.5,0,1.1-0.1,1.6c-0.1,0.3-0.2,0.7-0.3,1c-0.2,0.4-0.4,1-0.7,1.2l0,0c-0.1-0.3-0.1-0.6-0.1-0.9
		c0-0.5,0-1,0.1-1.5c0-0.3,0.1-0.5,0.1-0.8c0-0.2,0.1-0.4,0.1-0.6c0,0,0,0,0-0.1c0-0.6-0.5-1-1.2-1c-0.7,0.1-1.3,0.5-1.6,1
		C68.2,74,68,74.8,68,75.7c0,0.2-0.1,0.9-0.4,1c0,0,0,0-0.1-0.1c-0.1-0.3-0.1-0.5-0.1-0.8c0-1.1,0.2-2.4-0.3-3.4
		c-0.4-0.8-1.4-0.1-1.8,0.5c-0.1-0.3-0.2-0.6-0.4-0.8c-0.3-0.2-0.8,0-1,0.1c-0.2,0.1-0.4,0.3-0.5,0.5c0-0.2,0-0.3,0-0.4
		c-0.1-0.6-1.2,0.2-1.2,0.6c0.1,0.6,0.1,1.2,0.1,1.8c0,0.9-0.4,2.4-1.6,2.3c-0.3,0-0.4-0.3-0.6-0.5c0.3-0.4,0.6-0.9,0.9-1.4
		c0.5-0.8,0.9-1.9,0.3-2.6c-0.4-0.5-1.4,0-1.8,0.4c-0.5,0.6-0.7,1.3-0.8,2c0,0.4,0,1.3,0.2,2c-0.1,0.1-0.2,0.2-0.3,0.2
		c0,0,0,0-0.1,0c0,0,0,0-0.1,0c-0.1-0.1-0.2-0.2-0.3-0.3c-0.2-0.4-0.3-0.8-0.4-1.2c-0.2-0.8-0.3-1.7-0.1-2.5c0-0.2,0-0.4-0.3-0.3
		c-0.3,0.1-0.6,0.4-0.7,0.7c0,0,0,0.1,0,0.1l0,0l0,0c-0.2,0.5-0.3,1-0.4,1.5c-0.2-0.6-0.4-1.3-0.3-1.9c0.1-0.2,0-0.4-0.3-0.3
		c-0.3,0.1-0.6,0.4-0.6,0.6c-0.4,0.9-0.3,1.9-0.3,3c0,0.5,0,1-0.1,1.5c0,0-0.1,0-0.1,0c-0.3-0.1-0.4-0.5-0.4-0.7c0,0,0-0.1,0-0.1
		c0,0,0,0,0,0c0-0.1-0.2-0.1-0.3,0c0,0-0.1,0-0.1,0c-0.2,0.1-0.3,0.2-0.4,0.4c-0.1,0.1-0.2,0.3-0.2,0.4c0,0,0,0,0,0
		c-0.1,0.3-0.1,0.5-0.5,0.6c-0.2,0-0.3,0-0.5,0c-0.4-0.1-0.7-0.4-0.8-0.7c-0.5-0.9-0.8-1.8-0.9-2.9c-0.1-0.5,0-1,0.1-1.6
		c0-0.2,0.1-0.4,0.1-0.6c0-0.1,0.1-0.3,0.1-0.3c0,0,0-0.1,0.1-0.1c0,0,0,0,0,0c0,0,0,0,0,0c0,0,0,0,0,0c0,0,0,0,0,0c0,0,0,0,0.1-0.1
		c0,0,0.3-0.1,0.4-0.1c0.8-0.1,1.1,0.6,1.3,1.1c0.1,0.4,1.2-0.6,1-1c-0.2-0.7-0.7-1.4-1.7-1.3c-0.6,0.1-1.2,0.4-1.6,0.9
		c-0.9,1.1-1.1,2.7-1,4.1c0.1,1.3,0.4,2.6,1.3,3.5c0.3,0.3,0.8,0.5,1.3,0.4c0.6-0.1,1-0.5,1.4-1c0.3,0.4,0.7,0.6,1.3,0.1
		c0.5-0.4,0.8-1.1,0.9-1.7c0.1,0.4,0.2,0.8,0.3,1.2c0.1,0.6,1-0.4,1-0.8c0-0.2,0-0.5,0-0.7c0.3,1,0.9,1.6,1.8,0.9c0,0,0.1,0,0.1-0.1
		c0.1-0.1,0.3-0.3,0.4-0.4c0.2,0.3,0.5,0.5,0.9,0.5c0.7,0,1.4-0.5,1.8-0.9c0.1-0.1,0.3-0.3,0.4-0.4c0,0.3,0,0.6,0,0.9
		c0,0.6,1.1-0.2,1.1-0.6c0-1.2,0.2-2.3,0.4-3.5c0-0.1,0.1-0.2,0.1-0.3c0,0,0,0,0,0c0.3,0.6,0.3,1.4,0.3,2.1c0,0.3,0,0.6,0,1
		c0,0.4,0,0.8,0,1.2c0,0.6,1.1-0.2,1.1-0.6c0-0.4,0-0.9,0.1-1.3c0.1-0.8,0.2-1.7,0.6-2.4c0,0.1,0.1,0.2,0.1,0.3
		c0.2,0.6,0.2,1.3,0.2,1.8c0,0.8-0.2,2.1,0.6,2.4c0.3,0.1,1-0.3,1.3-0.6c0.1,0.3,0.2,0.5,0.5,0.7c0.5,0.3,1.2,0,1.6-0.3
		c0,0.2,0.1,0.5,0.3,0.6c0.2,0.1,0.6,0.1,0.8,0c0.4-0.1,0.7-0.4,0.9-0.6c0,0.2-0.1,0.5-0.1,0.7c0,0.3,0.3,0.3,0.5,0.2
		c0.3-0.1,0.6-0.3,0.7-0.6c0.1-0.5,0.2-0.9,0.5-1.3c0.2-0.2,0.3-0.2,0.6-0.4c0,0,0,0,0,0c-0.1,0.7-0.2,1.4-0.1,2.2
		c0.1,0.7,0.5,0.9,1.2,0.7c0.3-0.1,0.5-0.2,0.7-0.3c0.1,0.3,0.2,0.5,0.4,0.7c0.5,0.4,1.2,0.2,1.6,0c0,0,0,0,0.1,0
		c0,0.2,0,0.4,0.1,0.6c0.3,0.5,0.9,0.4,1.2,0.3C79.8,80.1,80.2,79.9,80.2,79.6z M59.9,73.4C59.9,73.4,59.9,73.4,59.9,73.4L59.9,73.4
		z M59.8,74.7c0-0.5,0.1-0.9,0.2-1.4c0,0,0,0,0,0c0.1,0,0.1,0,0.2,0.1c0.5,0.3,0.2,1.1,0,1.5c-0.1,0.2-0.2,0.5-0.4,0.7
		C59.9,75.3,59.8,75,59.8,74.7z M69.9,76.7c0,0-0.1,0.2-0.1,0.2c0,0-0.1,0-0.2,0c-0.2-0.1-0.3-0.5-0.4-0.7c-0.2-0.7-0.1-1.6,0.2-2.3
		c0.1-0.2,0.3-0.6,0.4-0.7c0,0,0.1,0,0.2,0c0.3,0.1,0.4,0.3,0.4,0.5C70.3,74.8,70.2,75.8,69.9,76.7z M77.9,78.5c0,0-0.1,0.1-0.1,0.2
		c0,0-0.1,0-0.2-0.1c-0.2-0.1-0.2-0.5-0.3-0.7c-0.1-0.8,0.1-1.6,0.4-2.3c0.1-0.2,0.3-0.5,0.4-0.6c0,0,0.1,0,0.2,0
		c0.3,0.1,0.4,0.3,0.3,0.5C78.5,76.6,78.3,77.6,77.9,78.5z"/>
	<g>
		<path class="st3" d="M49.8,89.5c-0.9,0.1-1.2,1.2-1.3,2c-0.1,0.6-0.1,2.3,0.9,2.4c1,0.1,1.3-1.2,1.4-1.9
			C50.8,91.2,50.8,89.6,49.8,89.5c-0.2,0-0.7,0.6-0.4,0.7c0.5,0,0.7,0.8,0.7,1.2c0,0.3,0.1,1.7-0.2,1.8c-0.5,0.2-0.7-0.9-0.7-1.2
			c0-0.3-0.1-1.8,0.3-1.8C49.7,90.1,50.1,89.5,49.8,89.5z"/>
		<path class="st3" d="M46.1,90.6c0.3-0.7,0.8-0.2,1,0.1c0.2,0.5,0,1-0.3,1.4c-0.2,0.3-0.6,0.6-0.9,0.8c-0.2,0.1-0.3,0.2-0.5,0.4
			c0,0.1-0.1,0.2,0,0.3c0.3,0.2,0.8,0.2,1.1,0.2c0.5,0,1.1,0,1.6-0.2c0.3-0.1,0.5-0.8,0-0.6c-0.4,0.2-0.9,0.2-1.3,0.1
			c-0.2,0-0.7,0-0.8-0.1c0,0.1,0,0.2,0,0.3c-0.2,0.4-0.1,0.2,0.1,0.1c0.2-0.1,0.3-0.2,0.5-0.4c0.3-0.2,0.5-0.5,0.7-0.8
			c0.4-0.5,0.7-1.2,0.6-1.9c-0.3-1.6-2-0.4-2.3,0.4C45.3,91.2,46,90.8,46.1,90.6L46.1,90.6z"/>
		<g>
			<path class="st3" d="M54,90c-0.7,1.2-1.6,2.3-2.5,3.5c-0.4,0.5,0.2,0.5,0.5,0.1c0.9-1.2,1.9-2.4,2.6-3.6
				C54.9,89.4,54.2,89.7,54,90L54,90z"/>
			<path class="st3" d="M52.7,89.7c-0.4,0-0.8,0.4-0.9,0.8c-0.1,0.4,0.2,0.7,0.6,0.7C53.2,91.3,53.6,89.7,52.7,89.7
				c-0.2,0-0.5,0.5-0.3,0.5c0.2,0,0.3,0.2,0.4,0.4c0,0.1,0,0.2,0,0.2c0,0.1,0,0,0,0c0,0-0.1,0-0.1,0c-0.2,0-0.3-0.2-0.3-0.4
				c0-0.1,0-0.2,0-0.2c0-0.1,0,0,0,0c0,0,0.1,0,0.1,0C52.6,90.1,52.9,89.6,52.7,89.7z"/>
			<path class="st3" d="M53.9,92.2c-0.4,0-0.8,0.4-0.9,0.8c-0.1,0.4,0.2,0.7,0.6,0.7C54.5,93.8,54.9,92.3,53.9,92.2
				c-0.2,0-0.5,0.5-0.3,0.5c0.2,0,0.3,0.2,0.4,0.4c0,0.1,0,0.2,0,0.2c0,0.1,0,0,0,0c0,0-0.1,0-0.1,0c-0.2,0-0.3-0.2-0.3-0.4
				c0-0.1,0-0.2,0-0.2c0-0.1,0,0,0,0c0,0,0.1,0,0.1,0C53.8,92.7,54.2,92.2,53.9,92.2z"/>
		</g>
	</g>
	<g>
		<path class="st8" d="M42,67c-0.1,0-0.2-0.2-0.3-0.2c-0.4-0.1-0.7,0.1-1.1,0.1c-0.9,0-1.2,0-2.3-0.3c0-0.9,0.5-1.5,0.8-2.2
			c0.2-0.6-0.1-1.4-0.1-2.1c0-0.4,0-0.9,0-1.3c-0.3,0.3-0.2,1.1-0.2,1.5c-0.1-0.6-0.1-1.3-0.3-1.8c-0.1,0.5,0,1.3,0,1.8
			c-0.2-0.5-0.2-1.1-0.4-1.5c-0.2,0.5,0.2,1.3,0.1,1.7c-0.2-0.4-0.3-1-0.5-1.4c-0.1,0.6,0.2,1.1,0.2,1.5c-0.2-0.4-0.3-0.8-0.6-1
			c0,0.4,0.2,0.8,0.4,1.2c-0.3-0.1-0.3-0.4-0.6-0.5c0,0.3,0.2,0.5,0.3,0.7c-0.2-0.1-0.3-0.3-0.5-0.4c0,0.3,0.2,0.3,0.3,0.6
			c-0.1-0.1-0.2-0.2-0.4-0.3c0,0.2,0.3,0.3,0.3,0.5c0,0-0.2-0.1-0.2,0c0,0,0.2,0.1,0.1,0.2c-0.1,0-0.1,0-0.2,0
			c0,0.1,0.2,0.1,0.1,0.3c-0.1,0-0.1-0.1-0.1,0c0,0.1,0.1,0.1,0.1,0.2c-0.8,0.8-0.3,1.7-0.4,2.6c0-0.1-0.6-0.3-1.2-0.5
			c-0.3-0.1-0.3-0.5-0.6-0.6c0-0.1,0.1,0,0.1-0.1c-0.1,0-0.2-0.1-0.2-0.2c0.1,0,0.3,0.1,0.3,0c-0.1-0.1-0.5-0.2-0.4-0.3
			c0.2,0,0.4,0.1,0.5,0.1c-0.2-0.1-0.6-0.3-0.6-0.5c0.2,0.1,0.5,0.3,0.7,0.2c-0.3-0.2-0.8-0.4-0.9-0.7c0.2,0.1,0.5,0.4,0.8,0.4
			C34.7,64.4,34.4,64,34,64c0.2,0.4,0.7,0.5,0.9,0.8c-0.3-0.2-0.6-0.3-0.9-0.5c0.1,0.4,0.5,0.5,0.8,0.7c-0.3,0-0.4-0.2-0.7-0.2
			c0.1,0.3,0.5,0.2,0.7,0.5c-0.1-0.1-0.3,0-0.5,0c0,0.2,0.3,0.1,0.5,0.2c-0.2,0-0.3,0-0.4,0.1c0.1,0.1,0.3,0.1,0.4,0.2
			c-0.1,0-0.2,0-0.2,0.1c0,0.1,0.2,0,0.3,0.1c-0.1,0-0.1,0.1-0.1,0.1c0.1,0,0.2,0,0.2,0c0,0-0.1,0-0.1,0.1c0.4,0.2,0.6,0.9,1.2,1.1
			c-0.3,0.2,0.3,0.4-3.3,1.7c0.1,0,1.6-0.4,2-0.5c0.4-0.2,0.9-0.3,1.3-0.4c0.1,0,0.2-0.1,0.3-0.1c0.8-0.1,1.4,0.1,2.2-0.4
			c-0.6,0.1-1.5,0.2-1.9-0.1c0.5-0.8,0.2-2.7,0.5-3.1c0.4-0.4,1-1.6,1.8-0.6c0.1,0.2,0.1,0.4-0.1,0.9c-0.3,0.5-0.5,0.8-0.5,2
			c0,0.2,0,0.5-0.4,0.5c1.6,0.3,2,0.2,2.9,0c0.3,0,0.7-0.3,0.8,0c0,0.1-0.3,0.1-0.6,0.1c-0.4,0,0.2,0.2,0.4,0.1
			c0.1,0,0.9-0.1,1.4-0.2C42.5,67.1,42.3,67.1,42,67z"/>
		<path class="st8" d="M37.4,59c-3.6,0-6.5,2.9-6.5,6.5c0,3.6,2.9,6.5,6.5,6.5c3.6,0,6.5-2.9,6.5-6.5C43.9,61.9,41,59,37.4,59
			 M37.4,59.3c3.5,0,6.3,2.8,6.3,6.3c0,3.5-2.8,6.3-6.3,6.3c-3.5,0-6.3-2.8-6.3-6.3C31.2,62.1,34,59.3,37.4,59.3"/>
	</g>
</g>
</svg>
