<?xml version="1.0" encoding="utf-8"?>
<!-- Generator: Adobe Illustrator 19.0.0, SVG Export Plug-In . SVG Version: 6.00 Build 0)  -->
<svg version="1.1" xmlns="http://www.w3.org/2000/svg" xmlns:xlink="http://www.w3.org/1999/xlink" x="0px" y="0px"
	 viewBox="0 0 368.5 194.6" style="enable-background:new 0 0 368.5 194.6;" xml:space="preserve">
<style type="text/css">
	.st0{fill:#AF1D00;}
	.st1{fill:#8D1D00;}
	.st2{fill:#971D00;}
	.st3{fill:#761200;}
	.st4{fill:#FFC7A1;}
	.st5{fill:#FFB200;}
	.st6{fill:#FF9C00;}
	.st7{fill:#FFFFFF;}
	.st8{fill:#F9963D;}
	.st9{fill:#493240;}
	.st10{fill:#331713;}
	.st11{fill:#492F2C;}
	.st12{fill:#A5133C;}
	.st13{fill:#E8E8E8;}
	.st14{fill:#E07E33;}
	.st15{fill:#62BA47;}
	.st16{fill:#000003;}
	.st17{fill:#E5DFDA;}
	.st18{fill:#F05A33;}
	.st19{fill:#E2DED5;}
	.st20{fill:#2E2B33;}
	.st21{fill:#BBBDBF;}
	.st22{fill:#1A3B51;}
	.st23{opacity:0.15;fill:#264575;}
	.st24{opacity:0.44;}
	.st25{fill:#8CB596;}
	.st26{opacity:0.33;fill:#E2DED5;}
	.st27{opacity:0.33;}
	.st28{fill:#F7FCEF;}
	.st29{opacity:0.55;fill:#000003;}
	.st30{fill:#D0D2D3;}
	.st31{fill:#E6E7E8;}
	.st32{opacity:0.15;}
	.st33{fill:#264575;}
	.st34{fill:#A6A8AB;}
</style>
<g id="factory">
	<g id="XMLID_152_">
		<rect id="XMLID_380_" x="170.6" y="42.4" class="st0" width="176.2" height="121.1"/>
		<rect id="XMLID_379_" x="104.5" y="73.2" class="st1" width="66.1" height="90.3"/>
		<path id="XMLID_378_" class="st2" d="M238.2,143.9c0,0.9-0.7,1.6-1.6,1.6h-9.3c-0.9,0-1.6-0.7-1.6-1.6V141c0-0.9,0.7-1.6,1.6-1.6
			h9.3c0.9,0,1.6,0.7,1.6,1.6V143.9z"/>
		<path id="XMLID_377_" class="st2" d="M265,143.9c0,0.9-0.7,1.6-1.6,1.6h-9.3c-0.9,0-1.6-0.7-1.6-1.6V141c0-0.9,0.7-1.6,1.6-1.6
			h9.3c0.9,0,1.6,0.7,1.6,1.6V143.9z"/>
		<path id="XMLID_376_" class="st2" d="M318.6,143.9c0,0.9-0.7,1.6-1.6,1.6h-9.3c-0.9,0-1.6-0.7-1.6-1.6V141c0-0.9,0.7-1.6,1.6-1.6
			h9.3c0.9,0,1.6,0.7,1.6,1.6V143.9z"/>
		<path id="XMLID_375_" class="st2" d="M349.1,151.9c0,0.9-0.7,1.6-1.6,1.6h-9.3c-0.9,0-1.6-0.7-1.6-1.6V149c0-0.9,0.7-1.6,1.6-1.6
			h9.3c0.9,0,1.6,0.7,1.6,1.6V151.9z"/>
		<path id="XMLID_374_" class="st2" d="M186.2,136.5c0,0.9-0.7,1.6-1.6,1.6h-9.3c-0.9,0-1.6-0.7-1.6-1.6v-2.9c0-0.9,0.7-1.6,1.6-1.6
			h9.3c0.9,0,1.6,0.7,1.6,1.6V136.5z"/>
		<path id="XMLID_373_" class="st2" d="M179.9,136.5c0,0.9-0.7,1.6-1.6,1.6H169c-0.9,0-1.6-0.7-1.6-1.6v-2.9c0-0.9,0.7-1.6,1.6-1.6
			h9.3c0.9,0,1.6,0.7,1.6,1.6V136.5z"/>
		<path id="XMLID_372_" class="st2" d="M218.8,136.5c0,0.9-0.7,1.6-1.6,1.6h-9.3c-0.9,0-1.6-0.7-1.6-1.6v-2.9c0-0.9,0.7-1.6,1.6-1.6
			h9.3c0.9,0,1.6,0.7,1.6,1.6V136.5z"/>
		<path id="XMLID_371_" class="st2" d="M289.9,137.3c0,0.9-0.7,1.6-1.6,1.6H279c-0.9,0-1.6-0.7-1.6-1.6v-2.9c0-0.9,0.7-1.6,1.6-1.6
			h9.3c0.9,0,1.6,0.7,1.6,1.6V137.3z"/>
		<path id="XMLID_370_" class="st2" d="M312.7,136.5c0,0.9-0.7,1.6-1.6,1.6h-9.3c-0.9,0-1.6-0.7-1.6-1.6v-2.9c0-0.9,0.7-1.6,1.6-1.6
			h9.3c0.9,0,1.6,0.7,1.6,1.6V136.5z"/>
		<path id="XMLID_369_" class="st2" d="M339.2,136.8c0,0.9-0.7,1.6-1.6,1.6h-9.3c-0.9,0-1.6-0.7-1.6-1.6v-2.9c0-0.9,0.7-1.6,1.6-1.6
			h9.3c0.9,0,1.6,0.7,1.6,1.6V136.8z"/>
		<path id="XMLID_368_" class="st2" d="M211.2,129.2c0,0.9-0.7,1.6-1.6,1.6h-9.3c-0.9,0-1.6-0.7-1.6-1.6v-2.9c0-0.9,0.7-1.6,1.6-1.6
			h9.3c0.9,0,1.6,0.7,1.6,1.6V129.2z"/>
		<path id="XMLID_367_" class="st3" d="M114.2,129.2c0,0.9-0.7,1.6-1.6,1.6h-9.3c-0.9,0-1.6-0.7-1.6-1.6v-2.9c0-0.9,0.7-1.6,1.6-1.6
			h9.3c0.9,0,1.6,0.7,1.6,1.6V129.2z"/>
		<path id="XMLID_366_" class="st3" d="M164.5,102.4c0,0.9-0.7,1.6-1.6,1.6h-9.3c-0.9,0-1.6-0.7-1.6-1.6v-2.9c0-0.9,0.7-1.6,1.6-1.6
			h9.3c0.9,0,1.6,0.7,1.6,1.6V102.4z"/>
		<path id="XMLID_365_" class="st3" d="M128.2,88.1c0,0.9-0.7,1.6-1.6,1.6h-9.3c-0.9,0-1.6-0.7-1.6-1.6v-2.9c0-0.9,0.7-1.6,1.6-1.6
			h9.3c0.9,0,1.6,0.7,1.6,1.6V88.1z"/>
		<path id="XMLID_364_" class="st3" d="M114.2,151.9c0,0.9-0.7,1.6-1.6,1.6h-9.3c-0.9,0-1.6-0.7-1.6-1.6V149c0-0.9,0.7-1.6,1.6-1.6
			h9.3c0.9,0,1.6,0.7,1.6,1.6V151.9z"/>
		<path id="XMLID_363_" class="st3" d="M114.2,110c0,0.9-0.7,1.6-1.6,1.6h-9.3c-0.9,0-1.6-0.7-1.6-1.6v-2.9c0-0.9,0.7-1.6,1.6-1.6
			h9.3c0.9,0,1.6,0.7,1.6,1.6V110z"/>
		<path id="XMLID_362_" class="st3" d="M114.2,100.8c0,0.9-0.7,1.6-1.6,1.6h-9.3c-0.9,0-1.6-0.7-1.6-1.6v-2.9c0-0.9,0.7-1.6,1.6-1.6
			h9.3c0.9,0,1.6,0.7,1.6,1.6V100.8z"/>
		<path id="XMLID_361_" class="st3" d="M123.3,100.8c0,0.9-0.7,1.6-1.6,1.6h-9.3c-0.9,0-1.6-0.7-1.6-1.6v-2.9c0-0.9,0.7-1.6,1.6-1.6
			h9.3c0.9,0,1.6,0.7,1.6,1.6V100.8z"/>
		<path id="XMLID_360_" class="st3" d="M145.1,100.8c0,0.9-0.7,1.6-1.6,1.6h-9.3c-0.9,0-1.6-0.7-1.6-1.6v-2.9c0-0.9,0.7-1.6,1.6-1.6
			h9.3c0.9,0,1.6,0.7,1.6,1.6V100.8z"/>
		<path id="XMLID_359_" class="st2" d="M331.6,129.5c0,0.9-0.7,1.6-1.6,1.6h-9.3c-0.9,0-1.6-0.7-1.6-1.6v-2.9c0-0.9,0.7-1.6,1.6-1.6
			h9.3c0.9,0,1.6,0.7,1.6,1.6V129.5z"/>
		<path id="XMLID_358_" class="st2" d="M179.9,121.8c0,0.9-0.7,1.6-1.6,1.6H169c-0.9,0-1.6-0.7-1.6-1.6v-2.9c0-0.9,0.7-1.6,1.6-1.6
			h9.3c0.9,0,1.6,0.7,1.6,1.6V121.8z"/>
		<path id="XMLID_357_" class="st2" d="M312.7,121.8c0,0.9-0.7,1.6-1.6,1.6h-9.3c-0.9,0-1.6-0.7-1.6-1.6v-2.9c0-0.9,0.7-1.6,1.6-1.6
			h9.3c0.9,0,1.6,0.7,1.6,1.6V121.8z"/>
		<path id="XMLID_356_" class="st2" d="M349,122.1c0,0.9-0.7,1.6-1.6,1.6H338c-0.9,0-1.6-0.7-1.6-1.6v-2.9c0-0.9,0.7-1.6,1.6-1.6
			h9.3c0.9,0,1.6,0.7,1.6,1.6V122.1z"/>
		<path id="XMLID_355_" class="st2" d="M224.6,114.3c0,0.9-0.7,1.6-1.6,1.6h-9.3c-0.9,0-1.6-0.7-1.6-1.6v-2.9c0-0.9,0.7-1.6,1.6-1.6
			h9.3c0.9,0,1.6,0.7,1.6,1.6V114.3z"/>
		<path id="XMLID_354_" class="st2" d="M318.6,114.3c0,0.9-0.7,1.6-1.6,1.6h-9.3c-0.9,0-1.6-0.7-1.6-1.6v-2.9c0-0.9,0.7-1.6,1.6-1.6
			h9.3c0.9,0,1.6,0.7,1.6,1.6V114.3z"/>
		<path id="XMLID_353_" class="st2" d="M180.8,92.5c0,0.9-0.7,1.6-1.6,1.6h-9.3c-0.9,0-1.6-0.7-1.6-1.6v-2.9c0-0.9,0.7-1.6,1.6-1.6
			h9.3c0.9,0,1.6,0.7,1.6,1.6V92.5z"/>
		<path id="XMLID_352_" class="st2" d="M218.8,106.9c0,0.9-0.7,1.6-1.6,1.6h-9.3c-0.9,0-1.6-0.7-1.6-1.6V104c0-0.9,0.7-1.6,1.6-1.6
			h9.3c0.9,0,1.6,0.7,1.6,1.6V106.9z"/>
		<path id="XMLID_351_" class="st2" d="M259.2,106.9c0,0.9-0.7,1.6-1.6,1.6h-9.3c-0.9,0-1.6-0.7-1.6-1.6V104c0-0.9,0.7-1.6,1.6-1.6
			h9.3c0.9,0,1.6,0.7,1.6,1.6V106.9z"/>
		<path id="XMLID_350_" class="st2" d="M211.2,154.9c0,0.9-0.7,1.6-1.6,1.6h-9.3c-0.9,0-1.6-0.7-1.6-1.6V152c0-0.9,0.7-1.6,1.6-1.6
			h9.3c0.9,0,1.6,0.7,1.6,1.6V154.9z"/>
		<path id="XMLID_349_" class="st2" d="M334.2,107.2c0,0.9-0.7,1.6-1.6,1.6h-9.3c-0.9,0-1.6-0.7-1.6-1.6v-2.9c0-0.9,0.7-1.6,1.6-1.6
			h9.3c0.9,0,1.6,0.7,1.6,1.6V107.2z"/>
		<path id="XMLID_348_" class="st2" d="M349,107.2c0,0.9-0.7,1.6-1.6,1.6H338c-0.9,0-1.6-0.7-1.6-1.6v-2.9c0-0.9,0.7-1.6,1.6-1.6
			h9.3c0.9,0,1.6,0.7,1.6,1.6V107.2z"/>
		<path id="XMLID_347_" class="st2" d="M188.8,151.4c0,0.9-0.7,1.6-1.6,1.6h-9.3c-0.9,0-1.6-0.7-1.6-1.6v-2.9c0-0.9,0.7-1.6,1.6-1.6
			h9.3c0.9,0,1.6,0.7,1.6,1.6V151.4z"/>
		<path id="XMLID_346_" class="st2" d="M305.1,99.6c0,0.9-0.7,1.6-1.6,1.6h-9.3c-0.9,0-1.6-0.7-1.6-1.6v-2.9c0-0.9,0.7-1.6,1.6-1.6
			h9.3c0.9,0,1.6,0.7,1.6,1.6V99.6z"/>
		<path id="XMLID_345_" class="st2" d="M340.5,107.2c0,0.9-0.7,1.6-1.6,1.6h-9.3c-0.9,0-1.6-0.7-1.6-1.6v-2.9c0-0.9,0.7-1.6,1.6-1.6
			h9.3c0.9,0,1.6,0.7,1.6,1.6V107.2z"/>
		<path id="XMLID_344_" class="st2" d="M188.8,85.1c0,0.9-0.7,1.6-1.6,1.6h-9.3c-0.9,0-1.6-0.7-1.6-1.6v-2.9c0-0.9,0.7-1.6,1.6-1.6
			h9.3c0.9,0,1.6,0.7,1.6,1.6V85.1z"/>
		<path id="XMLID_343_" class="st2" d="M259.2,92.2c0,0.9-0.7,1.6-1.6,1.6h-9.3c-0.9,0-1.6-0.7-1.6-1.6v-2.9c0-0.9,0.7-1.6,1.6-1.6
			h9.3c0.9,0,1.6,0.7,1.6,1.6V92.2z"/>
		<path id="XMLID_342_" class="st2" d="M312.7,92.2c0,0.9-0.7,1.6-1.6,1.6h-9.3c-0.9,0-1.6-0.7-1.6-1.6v-2.9c0-0.9,0.7-1.6,1.6-1.6
			h9.3c0.9,0,1.6,0.7,1.6,1.6V92.2z"/>
		<path id="XMLID_341_" class="st2" d="M339.2,92.5c0,0.9-0.7,1.6-1.6,1.6h-9.3c-0.9,0-1.6-0.7-1.6-1.6v-2.9c0-0.9,0.7-1.6,1.6-1.6
			h9.3c0.9,0,1.6,0.7,1.6,1.6V92.5z"/>
		<path id="XMLID_340_" class="st2" d="M180.8,85.1c0,0.9-0.7,1.6-1.6,1.6h-9.3c-0.9,0-1.6-0.7-1.6-1.6v-2.9c0-0.9,0.7-1.6,1.6-1.6
			h9.3c0.9,0,1.6,0.7,1.6,1.6V85.1z"/>
		<path id="XMLID_339_" class="st2" d="M238.2,85.1c0,0.9-0.7,1.6-1.6,1.6h-9.3c-0.9,0-1.6-0.7-1.6-1.6v-2.9c0-0.9,0.7-1.6,1.6-1.6
			h9.3c0.9,0,1.6,0.7,1.6,1.6V85.1z"/>
		<path id="XMLID_338_" class="st2" d="M331.6,85.4c0,0.9-0.7,1.6-1.6,1.6h-9.3c-0.9,0-1.6-0.7-1.6-1.6v-2.9c0-0.9,0.7-1.6,1.6-1.6
			h9.3c0.9,0,1.6,0.7,1.6,1.6V85.4z"/>
		<path id="XMLID_337_" class="st2" d="M205.4,77.7c0,0.9-0.7,1.6-1.6,1.6h-9.3c-0.9,0-1.6-0.7-1.6-1.6v-2.9c0-0.9,0.7-1.6,1.6-1.6
			h9.3c0.9,0,1.6,0.7,1.6,1.6V77.7z"/>
		<path id="XMLID_336_" class="st2" d="M245.7,77.7c0,0.9-0.7,1.6-1.6,1.6h-9.3c-0.9,0-1.6-0.7-1.6-1.6v-2.9c0-0.9,0.7-1.6,1.6-1.6
			h9.3c0.9,0,1.6,0.7,1.6,1.6V77.7z"/>
		<path id="XMLID_335_" class="st2" d="M299.3,77.7c0,0.9-0.7,1.6-1.6,1.6h-9.3c-0.9,0-1.6-0.7-1.6-1.6v-2.9c0-0.9,0.7-1.6,1.6-1.6
			h9.3c0.9,0,1.6,0.7,1.6,1.6V77.7z"/>
		<path id="XMLID_334_" class="st2" d="M325.8,78c0,0.9-0.7,1.6-1.6,1.6h-9.3c-0.9,0-1.6-0.7-1.6-1.6v-2.9c0-0.9,0.7-1.6,1.6-1.6
			h9.3c0.9,0,1.6,0.7,1.6,1.6V78z"/>
		<path id="XMLID_333_" class="st2" d="M349,78c0,0.9-0.7,1.6-1.6,1.6H338c-0.9,0-1.6-0.7-1.6-1.6v-2.9c0-0.9,0.7-1.6,1.6-1.6h9.3
			c0.9,0,1.6,0.7,1.6,1.6V78z"/>
		<path id="XMLID_332_" class="st2" d="M197.8,70.3c0,0.9-0.7,1.6-1.6,1.6h-9.3c-0.9,0-1.6-0.7-1.6-1.6v-2.9c0-0.9,0.7-1.6,1.6-1.6
			h9.3c0.9,0,1.6,0.7,1.6,1.6V70.3z"/>
		<path id="XMLID_331_" class="st2" d="M224.6,70.3c0,0.9-0.7,1.6-1.6,1.6h-9.3c-0.9,0-1.6-0.7-1.6-1.6v-2.9c0-0.9,0.7-1.6,1.6-1.6
			h9.3c0.9,0,1.6,0.7,1.6,1.6V70.3z"/>
		<path id="XMLID_330_" class="st2" d="M278.4,70.3c0,0.9-0.7,1.6-1.6,1.6h-9.3c-0.9,0-1.6-0.7-1.6-1.6v-2.9c0-0.9,0.7-1.6,1.6-1.6
			h9.3c0.9,0,1.6,0.7,1.6,1.6V70.3z"/>
		<path id="XMLID_329_" class="st2" d="M305.1,70.3c0,0.9-0.7,1.6-1.6,1.6h-9.3c-0.9,0-1.6-0.7-1.6-1.6v-2.9c0-0.9,0.7-1.6,1.6-1.6
			h9.3c0.9,0,1.6,0.7,1.6,1.6V70.3z"/>
		<path id="XMLID_328_" class="st2" d="M318.6,70.3c0,0.9-0.7,1.6-1.6,1.6h-9.3c-0.9,0-1.6-0.7-1.6-1.6v-2.9c0-0.9,0.7-1.6,1.6-1.6
			h9.3c0.9,0,1.6,0.7,1.6,1.6V70.3z"/>
		<path id="XMLID_327_" class="st2" d="M345,70.7c0,0.9-0.7,1.6-1.6,1.6h-9.3c-0.9,0-1.6-0.7-1.6-1.6v-2.9c0-0.9,0.7-1.6,1.6-1.6
			h9.3c0.9,0,1.6,0.7,1.6,1.6V70.7z"/>
		<path id="XMLID_326_" class="st2" d="M205.4,63c0,0.9-0.7,1.6-1.6,1.6h-9.3c-0.9,0-1.6-0.7-1.6-1.6v-2.9c0-0.9,0.7-1.6,1.6-1.6
			h9.3c0.9,0,1.6,0.7,1.6,1.6V63z"/>
		<path id="XMLID_325_" class="st2" d="M232.3,63c0,0.9-0.7,1.6-1.6,1.6h-9.3c-0.9,0-1.6-0.7-1.6-1.6v-2.9c0-0.9,0.7-1.6,1.6-1.6
			h9.3c0.9,0,1.6,0.7,1.6,1.6V63z"/>
		<path id="XMLID_324_" class="st2" d="M259.2,63c0,0.9-0.7,1.6-1.6,1.6h-9.3c-0.9,0-1.6-0.7-1.6-1.6v-2.9c0-0.9,0.7-1.6,1.6-1.6
			h9.3c0.9,0,1.6,0.7,1.6,1.6V63z"/>
		<path id="XMLID_323_" class="st2" d="M285.9,63c0,0.9-0.7,1.6-1.6,1.6H275c-0.9,0-1.6-0.7-1.6-1.6v-2.9c0-0.9,0.7-1.6,1.6-1.6h9.3
			c0.9,0,1.6,0.7,1.6,1.6V63z"/>
		<path id="XMLID_322_" class="st2" d="M312.7,63c0,0.9-0.7,1.6-1.6,1.6h-9.3c-0.9,0-1.6-0.7-1.6-1.6v-2.9c0-0.9,0.7-1.6,1.6-1.6
			h9.3c0.9,0,1.6,0.7,1.6,1.6V63z"/>
		<path id="XMLID_321_" class="st2" d="M339.2,63.3c0,0.9-0.7,1.6-1.6,1.6h-9.3c-0.9,0-1.6-0.7-1.6-1.6v-2.9c0-0.9,0.7-1.6,1.6-1.6
			h9.3c0.9,0,1.6,0.7,1.6,1.6V63.3z"/>
		<path id="XMLID_320_" class="st2" d="M197.8,55.4c0,0.9-0.7,1.6-1.6,1.6h-9.3c-0.9,0-1.6-0.7-1.6-1.6v-2.9c0-0.9,0.7-1.6,1.6-1.6
			h9.3c0.9,0,1.6,0.7,1.6,1.6V55.4z"/>
		<path id="XMLID_319_" class="st2" d="M219.6,55.8c0,0.9-0.7,1.6-1.6,1.6h-9.3c-0.9,0-1.6-0.7-1.6-1.6v-2.9c0-0.9,0.7-1.6,1.6-1.6
			h9.3c0.9,0,1.6,0.7,1.6,1.6V55.8z"/>
		<path id="XMLID_318_" class="st2" d="M251.6,55.4c0,0.9-0.7,1.6-1.6,1.6h-9.3c-0.9,0-1.6-0.7-1.6-1.6v-2.9c0-0.9,0.7-1.6,1.6-1.6
			h9.3c0.9,0,1.6,0.7,1.6,1.6V55.4z"/>
		<path id="XMLID_317_" class="st2" d="M278.4,55.4c0,0.9-0.7,1.6-1.6,1.6h-9.3c-0.9,0-1.6-0.7-1.6-1.6v-2.9c0-0.9,0.7-1.6,1.6-1.6
			h9.3c0.9,0,1.6,0.7,1.6,1.6V55.4z"/>
		<path id="XMLID_316_" class="st2" d="M318.6,55.4c0,0.9-0.7,1.6-1.6,1.6h-9.3c-0.9,0-1.6-0.7-1.6-1.6v-2.9c0-0.9,0.7-1.6,1.6-1.6
			h9.3c0.9,0,1.6,0.7,1.6,1.6V55.4z"/>
		<path id="XMLID_315_" class="st2" d="M345,55.8c0,0.9-0.7,1.6-1.6,1.6h-9.3c-0.9,0-1.6-0.7-1.6-1.6v-2.9c0-0.9,0.7-1.6,1.6-1.6
			h9.3c0.9,0,1.6,0.7,1.6,1.6V55.8z"/>
		<path id="XMLID_314_" class="st2" d="M205.4,48.1c0,0.9-0.7,1.6-1.6,1.6h-9.3c-0.9,0-1.6-0.7-1.6-1.6v-2.9c0-0.9,0.7-1.6,1.6-1.6
			h9.3c0.9,0,1.6,0.7,1.6,1.6V48.1z"/>
		<path id="XMLID_313_" class="st2" d="M226.3,48.1c0,0.9-0.7,1.6-1.6,1.6h-9.3c-0.9,0-1.6-0.7-1.6-1.6v-2.9c0-0.9,0.7-1.6,1.6-1.6
			h9.3c0.9,0,1.6,0.7,1.6,1.6V48.1z"/>
		<path id="XMLID_312_" class="st2" d="M272.6,48.1c0,0.9-0.7,1.6-1.6,1.6h-9.3c-0.9,0-1.6-0.7-1.6-1.6v-2.9c0-0.9,0.7-1.6,1.6-1.6
			h9.3c0.9,0,1.6,0.7,1.6,1.6V48.1z"/>
		<path id="XMLID_311_" class="st2" d="M312.7,48.1c0,0.9-0.7,1.6-1.6,1.6h-9.3c-0.9,0-1.6-0.7-1.6-1.6v-2.9c0-0.9,0.7-1.6,1.6-1.6
			h9.3c0.9,0,1.6,0.7,1.6,1.6V48.1z"/>
		<path id="XMLID_310_" class="st2" d="M339.2,48.4c0,0.9-0.7,1.6-1.6,1.6h-9.3c-0.9,0-1.6-0.7-1.6-1.6v-2.9c0-0.9,0.7-1.6,1.6-1.6
			h9.3c0.9,0,1.6,0.7,1.6,1.6V48.4z"/>
		<rect id="XMLID_309_" x="164.9" y="35.8" class="st4" width="186.8" height="6.6"/>
		<rect id="XMLID_308_" x="101" y="66.4" class="st4" width="69.6" height="6.6"/>
		<rect id="XMLID_307_" x="196.1" y="15.9" class="st5" width="124.4" height="19.9"/>
		<rect id="XMLID_306_" x="256.6" y="15.9" class="st6" width="63.9" height="19.9"/>
		<g id="XMLID_275_">
			<path id="XMLID_304_" class="st7" d="M221.8,29.7c0,0,0,0.1,0,0.1c0,0-0.1,0.1-0.1,0.1c-0.1,0-0.1,0-0.3,0.1c-0.1,0-0.2,0-0.4,0
				c-0.2,0-0.3,0-0.4,0c-0.1,0-0.2,0-0.3-0.1c-0.1,0-0.1-0.1-0.1-0.1c0,0,0-0.1,0-0.1v-7h0l-2.5,7c0,0.1,0,0.1-0.1,0.1
				c0,0-0.1,0.1-0.2,0.1c-0.1,0-0.2,0-0.3,0c-0.1,0-0.2,0-0.4,0c-0.1,0-0.3,0-0.4,0c-0.1,0-0.2,0-0.3-0.1c-0.1,0-0.1-0.1-0.2-0.1
				c0,0-0.1-0.1-0.1-0.1l-2.4-7h0v7c0,0,0,0.1,0,0.1c0,0-0.1,0.1-0.1,0.1c-0.1,0-0.2,0-0.3,0.1c-0.1,0-0.2,0-0.4,0
				c-0.2,0-0.3,0-0.4,0c-0.1,0-0.2,0-0.3-0.1c-0.1,0-0.1-0.1-0.1-0.1c0,0,0-0.1,0-0.1V22c0-0.2,0.1-0.4,0.2-0.5
				c0.1-0.1,0.3-0.2,0.5-0.2h1.1c0.2,0,0.4,0,0.5,0c0.1,0,0.3,0.1,0.4,0.2c0.1,0.1,0.2,0.2,0.3,0.3c0.1,0.1,0.1,0.3,0.2,0.5l1.9,5.1
				h0l1.9-5.1c0.1-0.2,0.1-0.3,0.2-0.5c0.1-0.1,0.1-0.2,0.2-0.3c0.1-0.1,0.2-0.1,0.3-0.2c0.1,0,0.3,0,0.4,0h1.2c0.1,0,0.2,0,0.3,0
				c0.1,0,0.2,0.1,0.2,0.1c0.1,0.1,0.1,0.1,0.1,0.2c0,0.1,0,0.2,0,0.3V29.7z"/>
			<path id="XMLID_301_" class="st7" d="M231.4,25.5c0,0.7-0.1,1.3-0.3,1.9c-0.2,0.6-0.4,1-0.8,1.4c-0.3,0.4-0.8,0.7-1.3,0.9
				c-0.5,0.2-1.1,0.3-1.8,0.3c-0.7,0-1.2-0.1-1.7-0.3c-0.5-0.2-0.9-0.4-1.2-0.8c-0.3-0.4-0.6-0.8-0.7-1.4c-0.2-0.6-0.2-1.2-0.2-2
				c0-0.7,0.1-1.3,0.3-1.9c0.2-0.6,0.4-1,0.8-1.4c0.3-0.4,0.8-0.7,1.3-0.9c0.5-0.2,1.1-0.3,1.8-0.3c0.6,0,1.2,0.1,1.7,0.3
				c0.5,0.2,0.9,0.4,1.2,0.8c0.3,0.4,0.6,0.8,0.8,1.4C231.3,24.1,231.4,24.8,231.4,25.5z M229.6,25.6c0-0.5,0-0.9-0.1-1.2
				c-0.1-0.4-0.2-0.7-0.4-0.9c-0.2-0.3-0.4-0.5-0.7-0.6c-0.3-0.1-0.6-0.2-1.1-0.2c-0.4,0-0.8,0.1-1.1,0.2c-0.3,0.2-0.5,0.4-0.7,0.6
				c-0.2,0.3-0.3,0.6-0.4,0.9c-0.1,0.4-0.1,0.7-0.1,1.1c0,0.5,0,0.9,0.1,1.3c0.1,0.4,0.2,0.7,0.4,1c0.2,0.3,0.4,0.5,0.7,0.6
				c0.3,0.1,0.6,0.2,1.1,0.2c0.4,0,0.8-0.1,1.1-0.2c0.3-0.2,0.5-0.4,0.7-0.6c0.2-0.3,0.3-0.6,0.4-1C229.5,26.4,229.6,26,229.6,25.6z
				"/>
			<path id="XMLID_299_" class="st7" d="M239.2,29.7c0,0,0,0.1,0,0.1c0,0-0.1,0.1-0.1,0.1c-0.1,0-0.2,0-0.3,0c-0.1,0-0.3,0-0.4,0
				c-0.2,0-0.3,0-0.4,0c-0.1,0-0.2,0-0.3,0c-0.1,0-0.1,0-0.1-0.1c0,0,0-0.1,0-0.1v-6.9h-1.8c-0.1,1-0.2,1.9-0.4,2.7
				c-0.1,0.8-0.3,1.4-0.4,1.9c-0.1,0.5-0.3,1-0.5,1.3c-0.2,0.3-0.4,0.6-0.6,0.8c-0.2,0.2-0.5,0.3-0.8,0.4c-0.3,0.1-0.6,0.1-1,0.1
				c-0.1,0-0.1,0-0.2,0c0,0-0.1-0.1-0.1-0.1c0,0-0.1-0.1-0.1-0.2c0-0.1,0-0.2,0-0.3c0-0.2,0-0.3,0-0.5c0-0.1,0-0.2,0-0.3
				c0-0.1,0.1-0.1,0.1-0.1c0,0,0.1,0,0.1,0c0.1,0,0.3,0,0.4-0.1c0.1-0.1,0.2-0.2,0.4-0.3c0.1-0.2,0.2-0.4,0.3-0.7
				c0.1-0.3,0.2-0.7,0.3-1.2c0.1-0.5,0.2-1.1,0.3-1.8c0.1-0.7,0.2-1.5,0.3-2.5c0-0.2,0.1-0.4,0.2-0.5c0.1-0.1,0.2-0.1,0.4-0.1h4.2
				c0.2,0,0.3,0,0.4,0.1c0.1,0.1,0.1,0.2,0.1,0.4V29.7z"/>
			<path id="XMLID_296_" class="st7" d="M248.8,25.5c0,0.7-0.1,1.3-0.3,1.9c-0.2,0.6-0.4,1-0.8,1.4c-0.3,0.4-0.8,0.7-1.3,0.9
				c-0.5,0.2-1.1,0.3-1.8,0.3c-0.7,0-1.2-0.1-1.7-0.3c-0.5-0.2-0.9-0.4-1.2-0.8c-0.3-0.4-0.6-0.8-0.7-1.4c-0.2-0.6-0.2-1.2-0.2-2
				c0-0.7,0.1-1.3,0.3-1.9c0.2-0.6,0.4-1,0.8-1.4c0.3-0.4,0.8-0.7,1.3-0.9c0.5-0.2,1.1-0.3,1.8-0.3c0.6,0,1.2,0.1,1.7,0.3
				c0.5,0.2,0.9,0.4,1.2,0.8c0.3,0.4,0.6,0.8,0.8,1.4C248.7,24.1,248.8,24.8,248.8,25.5z M246.9,25.6c0-0.5,0-0.9-0.1-1.2
				c-0.1-0.4-0.2-0.7-0.4-0.9c-0.2-0.3-0.4-0.5-0.7-0.6c-0.3-0.1-0.6-0.2-1.1-0.2c-0.4,0-0.8,0.1-1.1,0.2c-0.3,0.2-0.5,0.4-0.7,0.6
				c-0.2,0.3-0.3,0.6-0.4,0.9c-0.1,0.4-0.1,0.7-0.1,1.1c0,0.5,0,0.9,0.1,1.3c0.1,0.4,0.2,0.7,0.4,1c0.2,0.3,0.4,0.5,0.7,0.6
				c0.3,0.1,0.6,0.2,1.1,0.2c0.4,0,0.8-0.1,1.1-0.2c0.3-0.2,0.5-0.4,0.7-0.6c0.2-0.3,0.3-0.6,0.4-1C246.9,26.4,246.9,26,246.9,25.6z
				"/>
			<path id="XMLID_294_" class="st7" d="M256.6,29.7c0,0,0,0.1,0,0.1c0,0-0.1,0.1-0.1,0.1c-0.1,0-0.2,0-0.3,0c-0.1,0-0.3,0-0.4,0
				c-0.2,0-0.3,0-0.5,0c-0.1,0-0.2,0-0.3-0.1c-0.1,0-0.1-0.1-0.2-0.1c0,0-0.1-0.1-0.1-0.2l-0.7-1.9c-0.1-0.3-0.2-0.5-0.3-0.7
				c-0.1-0.2-0.2-0.3-0.4-0.5c-0.1-0.1-0.3-0.2-0.4-0.2c-0.2,0-0.3-0.1-0.5-0.1H252v3.4c0,0,0,0.1,0,0.1c0,0-0.1,0.1-0.1,0.1
				c-0.1,0-0.2,0-0.3,0.1c-0.1,0-0.3,0-0.4,0c-0.2,0-0.3,0-0.4,0c-0.1,0-0.2,0-0.3-0.1c-0.1,0-0.1-0.1-0.1-0.1c0,0,0-0.1,0-0.1v-8.1
				c0,0,0-0.1,0-0.1c0,0,0.1-0.1,0.1-0.1c0.1,0,0.2,0,0.3,0c0.1,0,0.3,0,0.4,0c0.2,0,0.3,0,0.4,0c0.1,0,0.2,0,0.3,0
				c0.1,0,0.1,0,0.1,0.1c0,0,0,0.1,0,0.1v3.2h0.4c0.2,0,0.4,0,0.5-0.1c0.2-0.1,0.3-0.1,0.4-0.3c0.1-0.1,0.2-0.3,0.3-0.4
				c0.1-0.2,0.2-0.4,0.3-0.7l0.6-1.7c0-0.1,0-0.1,0.1-0.2c0,0,0.1-0.1,0.1-0.1c0.1,0,0.2,0,0.3-0.1c0.1,0,0.3,0,0.5,0
				c0.2,0,0.3,0,0.4,0c0.1,0,0.2,0,0.3,0c0.1,0,0.1,0,0.1,0.1c0,0,0,0.1,0,0.1c0,0.1,0,0.1,0,0.2c0,0.1-0.1,0.2-0.1,0.3l-0.6,1.5
				c-0.1,0.3-0.2,0.5-0.3,0.7c-0.1,0.2-0.2,0.4-0.3,0.5c-0.1,0.1-0.2,0.3-0.4,0.3c-0.1,0.1-0.3,0.2-0.4,0.2v0
				c0.2,0.1,0.3,0.2,0.5,0.3c0.1,0.1,0.3,0.2,0.4,0.4c0.1,0.1,0.2,0.3,0.4,0.5c0.1,0.2,0.2,0.5,0.4,0.8l0.7,1.8
				c0.1,0.2,0.1,0.3,0.1,0.4C256.6,29.6,256.6,29.6,256.6,29.7z"/>
			<path id="XMLID_291_" class="st7" d="M265.2,25.5c0,0.7-0.1,1.3-0.3,1.9c-0.2,0.6-0.4,1-0.8,1.4c-0.3,0.4-0.8,0.7-1.3,0.9
				c-0.5,0.2-1.1,0.3-1.8,0.3c-0.7,0-1.2-0.1-1.7-0.3c-0.5-0.2-0.9-0.4-1.2-0.8c-0.3-0.4-0.6-0.8-0.7-1.4c-0.2-0.6-0.2-1.2-0.2-2
				c0-0.7,0.1-1.3,0.3-1.9c0.2-0.6,0.4-1,0.8-1.4c0.3-0.4,0.8-0.7,1.3-0.9c0.5-0.2,1.1-0.3,1.8-0.3c0.6,0,1.2,0.1,1.7,0.3
				c0.5,0.2,0.9,0.4,1.2,0.8c0.3,0.4,0.6,0.8,0.8,1.4C265.2,24.1,265.2,24.8,265.2,25.5z M263.4,25.6c0-0.5,0-0.9-0.1-1.2
				c-0.1-0.4-0.2-0.7-0.4-0.9c-0.2-0.3-0.4-0.5-0.7-0.6c-0.3-0.1-0.6-0.2-1.1-0.2c-0.4,0-0.8,0.1-1.1,0.2c-0.3,0.2-0.5,0.4-0.7,0.6
				c-0.2,0.3-0.3,0.6-0.4,0.9c-0.1,0.4-0.1,0.7-0.1,1.1c0,0.5,0,0.9,0.1,1.3c0.1,0.4,0.2,0.7,0.4,1c0.2,0.3,0.4,0.5,0.7,0.6
				c0.3,0.1,0.6,0.2,1.1,0.2c0.4,0,0.8-0.1,1.1-0.2c0.3-0.2,0.5-0.4,0.7-0.6c0.2-0.3,0.3-0.6,0.4-1C263.4,26.4,263.4,26,263.4,25.6z
				"/>
			<path id="XMLID_289_" class="st7" d="M271.7,27.4c0,0.4-0.1,0.8-0.2,1.1c-0.2,0.3-0.4,0.6-0.7,0.8c-0.3,0.2-0.7,0.4-1.1,0.5
				c-0.4,0.1-0.9,0.2-1.4,0.2c-0.3,0-0.5,0-0.8-0.1c-0.2,0-0.4-0.1-0.6-0.1c-0.2-0.1-0.3-0.1-0.4-0.2c-0.1-0.1-0.2-0.1-0.2-0.1
				c0,0-0.1-0.1-0.1-0.1c0,0,0-0.1-0.1-0.2c0-0.1,0-0.2,0-0.3c0-0.1,0-0.2,0-0.4c0-0.2,0-0.3,0-0.4c0-0.1,0.1-0.1,0.1-0.1
				c0.1,0,0.1,0,0.2,0.1c0.1,0.1,0.2,0.1,0.4,0.2c0.1,0.1,0.3,0.1,0.5,0.2c0.2,0.1,0.5,0.1,0.7,0.1c0.2,0,0.5,0,0.6-0.1
				c0.2-0.1,0.4-0.1,0.5-0.2c0.1-0.1,0.2-0.2,0.3-0.4c0.1-0.1,0.1-0.3,0.1-0.5c0-0.2,0-0.4-0.1-0.5c-0.1-0.2-0.2-0.3-0.3-0.4
				c-0.1-0.1-0.3-0.2-0.6-0.3c-0.2-0.1-0.5-0.1-0.8-0.1H267c-0.1,0-0.1,0-0.2,0c0,0-0.1-0.1-0.1-0.1c0,0,0-0.1,0-0.2
				c0-0.1,0-0.2,0-0.3c0-0.1,0-0.2,0-0.3c0-0.1,0-0.1,0.1-0.2c0,0,0.1-0.1,0.1-0.1c0,0,0.1,0,0.1,0h0.9c0.3,0,0.5,0,0.7-0.1
				c0.2-0.1,0.4-0.1,0.5-0.2c0.1-0.1,0.2-0.2,0.3-0.4c0.1-0.1,0.1-0.3,0.1-0.5c0-0.2,0-0.3-0.1-0.4c-0.1-0.1-0.1-0.2-0.2-0.3
				c-0.1-0.1-0.2-0.2-0.4-0.2c-0.2-0.1-0.4-0.1-0.6-0.1c-0.3,0-0.5,0-0.7,0.1c-0.2,0.1-0.4,0.1-0.6,0.2c-0.2,0.1-0.3,0.1-0.4,0.2
				c-0.1,0.1-0.2,0.1-0.2,0.1c0,0-0.1,0-0.1,0c0,0,0,0-0.1-0.1c0,0,0-0.1,0-0.2c0-0.1,0-0.2,0-0.3c0-0.1,0-0.2,0-0.2
				c0-0.1,0-0.1,0-0.2c0-0.1,0-0.1,0.1-0.2c0,0,0.1-0.1,0.1-0.1c0,0,0.1-0.1,0.3-0.2c0.1-0.1,0.3-0.1,0.5-0.2
				c0.2-0.1,0.4-0.1,0.7-0.1c0.3,0,0.5-0.1,0.8-0.1c0.5,0,0.9,0,1.2,0.1c0.3,0.1,0.6,0.2,0.9,0.4c0.2,0.2,0.4,0.4,0.5,0.7
				c0.1,0.3,0.2,0.6,0.2,0.9c0,0.3,0,0.5-0.1,0.7c-0.1,0.2-0.2,0.4-0.3,0.6c-0.1,0.2-0.3,0.3-0.5,0.4c-0.2,0.1-0.4,0.2-0.6,0.3v0
				c0.3,0,0.5,0.1,0.7,0.2c0.2,0.1,0.4,0.3,0.6,0.4c0.2,0.2,0.3,0.4,0.4,0.6C271.7,26.9,271.7,27.2,271.7,27.4z"/>
			<path id="XMLID_286_" class="st7" d="M280,29.3c0.1,0.2,0.1,0.3,0.1,0.4c0,0.1,0,0.2-0.1,0.2c0,0-0.1,0.1-0.3,0.1
				c-0.1,0-0.3,0-0.5,0c-0.2,0-0.4,0-0.5,0c-0.1,0-0.2,0-0.3,0c-0.1,0-0.1,0-0.1-0.1c0,0,0-0.1-0.1-0.1l-0.6-1.7h-3.2l-0.5,1.7
				c0,0.1,0,0.1-0.1,0.2c0,0-0.1,0.1-0.1,0.1c-0.1,0-0.2,0-0.3,0c-0.1,0-0.3,0-0.5,0c-0.2,0-0.4,0-0.5,0c-0.1,0-0.2,0-0.2-0.1
				c0-0.1-0.1-0.1,0-0.2c0-0.1,0-0.2,0.1-0.4l2.6-7.6c0-0.1,0.1-0.1,0.1-0.2c0,0,0.1-0.1,0.2-0.1c0.1,0,0.2,0,0.3,0
				c0.1,0,0.3,0,0.5,0c0.3,0,0.5,0,0.6,0c0.2,0,0.3,0,0.4,0c0.1,0,0.1,0.1,0.2,0.1c0,0,0.1,0.1,0.1,0.2L280,29.3z M276.1,23
				L276.1,23l-1.2,3.6h2.4L276.1,23z"/>
			<path id="XMLID_282_" class="st7" d="M287.5,27.3c0,0.3,0,0.6-0.1,0.8c-0.1,0.2-0.2,0.5-0.3,0.7c-0.1,0.2-0.3,0.4-0.5,0.5
				c-0.2,0.1-0.4,0.2-0.7,0.3c-0.2,0.1-0.5,0.2-0.8,0.2c-0.3,0-0.6,0.1-0.9,0.1h-2.3c-0.1,0-0.3,0-0.4-0.1c-0.1-0.1-0.1-0.2-0.1-0.4
				v-7.5c0-0.2,0-0.3,0.1-0.4c0.1-0.1,0.2-0.1,0.4-0.1h2.2c0.5,0,1,0,1.3,0.1c0.4,0.1,0.7,0.2,0.9,0.4c0.2,0.2,0.4,0.4,0.6,0.7
				c0.1,0.3,0.2,0.6,0.2,1c0,0.2,0,0.4-0.1,0.6c-0.1,0.2-0.1,0.4-0.2,0.5c-0.1,0.1-0.2,0.3-0.4,0.4c-0.1,0.1-0.3,0.2-0.5,0.3
				c0.2,0,0.5,0.1,0.7,0.2c0.2,0.1,0.4,0.3,0.5,0.4c0.2,0.2,0.3,0.4,0.4,0.6C287.4,26.8,287.5,27,287.5,27.3z M285.2,23.7
				c0-0.2,0-0.3-0.1-0.5c-0.1-0.1-0.1-0.3-0.2-0.3c-0.1-0.1-0.2-0.2-0.4-0.2c-0.2,0-0.4-0.1-0.6-0.1H283v2.2h1c0.3,0,0.5,0,0.6-0.1
				c0.1-0.1,0.3-0.1,0.4-0.2c0.1-0.1,0.2-0.2,0.2-0.4C285.2,24,285.2,23.9,285.2,23.7z M285.6,27.4c0-0.2,0-0.4-0.1-0.5
				c-0.1-0.2-0.2-0.3-0.3-0.4c-0.1-0.1-0.3-0.2-0.5-0.2c-0.2-0.1-0.5-0.1-0.8-0.1h-1v2.4h1.3c0.2,0,0.4,0,0.6-0.1
				c0.2-0.1,0.3-0.1,0.4-0.2c0.1-0.1,0.2-0.2,0.3-0.4C285.6,27.8,285.6,27.6,285.6,27.4z"/>
			<path id="XMLID_279_" class="st7" d="M296.6,25.5c0,0.7-0.1,1.3-0.3,1.9c-0.2,0.6-0.4,1-0.8,1.4c-0.3,0.4-0.8,0.7-1.3,0.9
				c-0.5,0.2-1.1,0.3-1.8,0.3c-0.7,0-1.2-0.1-1.7-0.3c-0.5-0.2-0.9-0.4-1.2-0.8c-0.3-0.4-0.6-0.8-0.7-1.4c-0.2-0.6-0.2-1.2-0.2-2
				c0-0.7,0.1-1.3,0.3-1.9c0.2-0.6,0.4-1,0.8-1.4c0.3-0.4,0.8-0.7,1.3-0.9c0.5-0.2,1.1-0.3,1.8-0.3c0.6,0,1.2,0.1,1.7,0.3
				c0.5,0.2,0.9,0.4,1.2,0.8c0.3,0.4,0.6,0.8,0.8,1.4C296.5,24.1,296.6,24.8,296.6,25.5z M294.7,25.6c0-0.5,0-0.9-0.1-1.2
				c-0.1-0.4-0.2-0.7-0.4-0.9c-0.2-0.3-0.4-0.5-0.7-0.6c-0.3-0.1-0.6-0.2-1.1-0.2c-0.4,0-0.8,0.1-1.1,0.2c-0.3,0.2-0.5,0.4-0.7,0.6
				c-0.2,0.3-0.3,0.6-0.4,0.9c-0.1,0.4-0.1,0.7-0.1,1.1c0,0.5,0,0.9,0.1,1.3c0.1,0.4,0.2,0.7,0.4,1c0.2,0.3,0.4,0.5,0.7,0.6
				c0.3,0.1,0.6,0.2,1.1,0.2c0.4,0,0.8-0.1,1.1-0.2c0.3-0.2,0.5-0.4,0.7-0.6c0.2-0.3,0.3-0.6,0.4-1C294.7,26.4,294.7,26,294.7,25.6z
				"/>
			<path id="XMLID_276_" class="st7" d="M305.6,31.9c0,0,0,0.1,0,0.1c0,0-0.1,0.1-0.1,0.1c-0.1,0-0.1,0-0.2,0c-0.1,0-0.2,0-0.4,0
				c-0.1,0-0.3,0-0.4,0c-0.1,0-0.2,0-0.2,0c-0.1,0-0.1,0-0.1-0.1c0,0,0-0.1,0-0.1v-2h-5.7v2c0,0,0,0.1,0,0.1c0,0-0.1,0.1-0.1,0.1
				c-0.1,0-0.1,0-0.2,0c-0.1,0-0.2,0-0.4,0c-0.1,0-0.3,0-0.4,0c-0.1,0-0.2,0-0.2,0c-0.1,0-0.1,0-0.1-0.1c0,0,0-0.1,0-0.1v-3.1
				c0-0.1,0-0.2,0.1-0.3c0.1-0.1,0.1-0.1,0.2-0.1h0.4c0.1-0.1,0.2-0.3,0.3-0.5c0.1-0.2,0.2-0.3,0.3-0.6c0.1-0.2,0.2-0.5,0.3-0.8
				c0.1-0.3,0.2-0.7,0.3-1.1c0.1-0.4,0.2-1,0.3-1.6c0.1-0.6,0.2-1.3,0.3-2.1c0-0.2,0.1-0.3,0.2-0.4c0.1-0.1,0.2-0.1,0.3-0.1h4.4
				c0.2,0,0.3,0,0.4,0.1c0.1,0.1,0.1,0.2,0.1,0.4v6.6h0.7c0.1,0,0.2,0,0.3,0.1c0,0.1,0.1,0.2,0.1,0.3V31.9z M302.8,22.7h-2
				c-0.1,0.7-0.2,1.3-0.2,1.8c-0.1,0.5-0.2,1-0.2,1.3c-0.1,0.4-0.2,0.7-0.2,1c-0.1,0.3-0.2,0.5-0.2,0.7c-0.1,0.2-0.2,0.4-0.3,0.5
				c-0.1,0.1-0.2,0.3-0.3,0.4h3.5V22.7z"/>
		</g>
		<circle id="XMLID_274_" class="st7" cx="201.7" cy="66.9" r="9"/>
		<circle id="XMLID_273_" class="st8" cx="201.8" cy="66.9" r="7.6"/>
		<circle id="XMLID_272_" class="st9" cx="201.8" cy="66.9" r="6.2"/>
		<rect id="XMLID_271_" x="201.4" y="60.4" class="st8" width="1.1" height="12.9"/>
		<rect id="XMLID_270_" x="195.5" y="66.4" class="st8" width="12.9" height="1.1"/>
		<circle id="XMLID_269_" class="st7" cx="258.4" cy="66.9" r="9"/>
		<circle id="XMLID_268_" class="st8" cx="258.5" cy="66.9" r="7.6"/>
		<circle id="XMLID_267_" class="st9" cx="258.5" cy="66.9" r="6.2"/>
		<rect id="XMLID_266_" x="258" y="60.4" class="st8" width="1.1" height="12.9"/>
		<rect id="XMLID_265_" x="252.1" y="66.4" class="st8" width="12.9" height="1.1"/>
		<circle id="XMLID_264_" class="st7" cx="315.3" cy="66.9" r="9"/>
		<circle id="XMLID_263_" class="st8" cx="315.4" cy="66.9" r="7.6"/>
		<circle id="XMLID_262_" class="st9" cx="315.4" cy="66.9" r="6.2"/>
		<rect id="XMLID_261_" x="314.9" y="60.4" class="st8" width="1.1" height="12.9"/>
		<rect id="XMLID_260_" x="309" y="66.4" class="st8" width="12.9" height="1.1"/>
		<rect id="XMLID_259_" x="121.9" y="124.7" class="st10" width="42.6" height="38.8"/>
		<rect id="XMLID_258_" x="125.7" y="128.1" class="st11" width="15.6" height="1.5"/>
		<rect id="XMLID_257_" x="125.7" y="131.7" class="st11" width="15.6" height="1.5"/>
		<rect id="XMLID_256_" x="125.7" y="135.2" class="st11" width="15.6" height="1.5"/>
		<rect id="XMLID_255_" x="125.7" y="138.7" class="st11" width="15.6" height="1.5"/>
		<rect id="XMLID_254_" x="125.7" y="142.2" class="st11" width="15.6" height="1.5"/>
		<rect id="XMLID_253_" x="125.7" y="145.8" class="st11" width="15.6" height="1.5"/>
		<rect id="XMLID_252_" x="125.7" y="149.3" class="st11" width="15.6" height="1.5"/>
		<rect id="XMLID_251_" x="125.7" y="152.8" class="st11" width="15.6" height="1.5"/>
		<rect id="XMLID_250_" x="125.7" y="156.3" class="st11" width="15.6" height="1.5"/>
		<rect id="XMLID_249_" x="125.7" y="159.9" class="st11" width="15.6" height="1.5"/>
		<rect id="XMLID_248_" x="145.4" y="128.1" class="st11" width="15.6" height="1.5"/>
		<rect id="XMLID_247_" x="145.4" y="131.7" class="st11" width="15.6" height="1.5"/>
		<rect id="XMLID_246_" x="145.4" y="135.2" class="st11" width="15.6" height="1.5"/>
		<rect id="XMLID_245_" x="145.4" y="138.7" class="st11" width="15.6" height="1.5"/>
		<rect id="XMLID_244_" x="145.4" y="142.2" class="st11" width="15.6" height="1.5"/>
		<rect id="XMLID_243_" x="145.4" y="145.8" class="st11" width="15.6" height="1.5"/>
		<rect id="XMLID_242_" x="145.4" y="149.3" class="st11" width="15.6" height="1.5"/>
		<rect id="XMLID_241_" x="145.4" y="152.8" class="st11" width="15.6" height="1.5"/>
		<rect id="XMLID_240_" x="145.4" y="156.3" class="st11" width="15.6" height="1.5"/>
		<rect id="XMLID_239_" x="145.4" y="159.9" class="st11" width="15.6" height="1.5"/>
		<g id="XMLID_223_">
			<rect id="XMLID_238_" x="189.4" y="106.6" class="st7" width="24.6" height="2"/>
			<rect id="XMLID_237_" x="191.8" y="108.3" class="st7" width="2" height="33.2"/>
			<rect id="XMLID_236_" x="190.4" y="139.5" class="st7" width="22.9" height="2"/>
			<rect id="XMLID_235_" x="209.8" y="108.3" class="st7" width="2" height="33.2"/>
			<rect id="XMLID_234_" x="193.8" y="108.6" class="st8" width="16" height="30.9"/>
			<polygon id="XMLID_233_" class="st12" points="201.7,101.8 190.9,107 211.9,107 			"/>
			
				<rect id="XMLID_232_" x="195" y="97.4" transform="matrix(0.4491 0.8935 -0.8935 0.4491 201.1926 -117.716)" class="st7" width="2" height="13.8"/>
			
				<rect id="XMLID_231_" x="206.4" y="97.4" transform="matrix(-0.4491 0.8935 -0.8935 -0.4491 393.7667 -34.2058)" class="st7" width="2" height="13.8"/>
			<rect id="XMLID_230_" x="195.7" y="110.2" class="st9" width="5.6" height="13.2"/>
			<rect id="XMLID_229_" x="195.7" y="124.9" class="st9" width="5.6" height="12.9"/>
			<rect id="XMLID_228_" x="202.4" y="124.9" class="st9" width="5.6" height="12.9"/>
			<rect id="XMLID_227_" x="202.4" y="110.2" class="st9" width="5.6" height="13.2"/>
			<rect id="XMLID_226_" x="191.8" y="108.6" class="st13" width="2" height="1.6"/>
			<rect id="XMLID_225_" x="193.8" y="108.6" class="st14" width="16" height="1.6"/>
			<rect id="XMLID_224_" x="209.8" y="108.6" class="st13" width="2" height="1.6"/>
		</g>
		<g id="XMLID_207_">
			<rect id="XMLID_222_" x="246.4" y="106.6" class="st7" width="24.6" height="2"/>
			<rect id="XMLID_221_" x="248.8" y="108.3" class="st7" width="2" height="33.2"/>
			<rect id="XMLID_220_" x="247.4" y="139.5" class="st7" width="22.9" height="2"/>
			<rect id="XMLID_219_" x="266.8" y="108.3" class="st7" width="2" height="33.2"/>
			<rect id="XMLID_218_" x="250.8" y="108.6" class="st8" width="16" height="30.9"/>
			<polygon id="XMLID_217_" class="st12" points="258.7,101.8 247.9,107 268.9,107 			"/>
			
				<rect id="XMLID_216_" x="252" y="97.4" transform="matrix(0.4491 0.8935 -0.8935 0.4491 232.5946 -168.6448)" class="st7" width="2" height="13.8"/>
			
				<rect id="XMLID_215_" x="263.4" y="97.4" transform="matrix(-0.4491 0.8935 -0.8935 -0.4491 476.3731 -85.1255)" class="st7" width="2" height="13.8"/>
			<rect id="XMLID_214_" x="252.7" y="110.2" class="st9" width="5.6" height="13.2"/>
			<rect id="XMLID_213_" x="252.7" y="124.9" class="st9" width="5.6" height="12.9"/>
			<rect id="XMLID_212_" x="259.4" y="124.9" class="st9" width="5.6" height="12.9"/>
			<rect id="XMLID_211_" x="259.4" y="110.2" class="st9" width="5.6" height="13.2"/>
			<rect id="XMLID_210_" x="248.8" y="108.6" class="st13" width="2" height="1.6"/>
			<rect id="XMLID_209_" x="250.8" y="108.6" class="st14" width="16" height="1.6"/>
			<rect id="XMLID_208_" x="266.8" y="108.6" class="st13" width="2" height="1.6"/>
		</g>
		<g id="XMLID_153_">
			<rect id="XMLID_206_" x="303" y="106.6" class="st7" width="24.6" height="2"/>
			<rect id="XMLID_205_" x="305.3" y="108.3" class="st7" width="2" height="33.2"/>
			<rect id="XMLID_204_" x="304" y="139.5" class="st7" width="22.9" height="2"/>
			<rect id="XMLID_165_" x="323.4" y="108.3" class="st7" width="2" height="33.2"/>
			<rect id="XMLID_164_" x="307.3" y="108.6" class="st8" width="16" height="30.9"/>
			<polygon id="XMLID_163_" class="st12" points="315.3,101.8 304.5,107 325.4,107 			"/>
			
				<rect id="XMLID_162_" x="308.6" y="97.4" transform="matrix(0.4491 0.8935 -0.8935 0.4491 263.7541 -219.1601)" class="st7" width="2" height="13.8"/>
			
				<rect id="XMLID_161_" x="319.9" y="97.4" transform="matrix(-0.449 0.8935 -0.8935 -0.449 558.2771 -135.6606)" class="st7" width="2" height="13.8"/>
			<rect id="XMLID_160_" x="309.2" y="110.2" class="st9" width="5.6" height="13.2"/>
			<rect id="XMLID_159_" x="309.2" y="124.9" class="st9" width="5.6" height="12.9"/>
			<rect id="XMLID_158_" x="315.9" y="124.9" class="st9" width="5.6" height="12.9"/>
			<rect id="XMLID_157_" x="315.9" y="110.2" class="st9" width="5.6" height="13.2"/>
			<rect id="XMLID_156_" x="305.3" y="108.6" class="st13" width="2" height="1.6"/>
			<rect id="XMLID_155_" x="307.3" y="108.6" class="st14" width="16" height="1.6"/>
			<rect id="XMLID_154_" x="323.4" y="108.6" class="st13" width="2" height="1.6"/>
		</g>
	</g>
</g>
<g id="car">
	<g id="XMLID_29_">
		<path id="XMLID_151_" class="st7" d="M101.3,156H31.6c-6.6,0-12-5.4-12-12v-29.6c0-6.6,5.4-12,12-12h69.7c6.6,0,12,5.4,12,12V144
			C113.3,150.6,107.9,156,101.3,156z"/>
		<path id="XMLID_146_" class="st15" d="M88.4,125.9c-2.8-0.9-4.3,2.6-4.8,4.7c0,0,0,0.1,0,0.1l0,0c-0.5,2.1-1.2,3.1-1.4,3
			c-0.6-0.2-0.4-1.1-0.4-1.7c0-0.9,0.1-1.9-0.4-2.8c-0.4-0.7-1.1-0.8-1.9-0.8c0-0.1,0.1-0.2,0.1-0.3c0.1-0.1,0.1-0.3,0.2-0.4
			c0.3-0.7,0.7-1.4,1.3-1.9c0,0,0,0,0,0c0,0,0,0,0,0c0.3,0.1,0.6,0.5,0.8,0.6c0.7,0.8,3-0.5,2.4-1.2c-0.9-1-2-1.2-2.9-1
			c-0.7,0.1-1.3,0.5-1.9,0.9c-0.1,0.1-0.2,0.2-0.3,0.2c0.1-1.2,0.1-2.4-0.1-3.6c-0.1-0.7-1.5-0.3-2.2,0.3c-0.1,0.1-0.2,0.2-0.3,0.4
			c0,0,0,0,0,0v0c-0.3,0.8-1.7,1.3-3,0.2c0,0,0,0,0,0c-0.3-0.3-0.7-0.4-1.2-0.5c-2.8-0.2-3.9,3.1-4.1,5.3l0,0
			c-0.1,1.4-1,3.4-1.8,3.7c-0.2-0.2-0.3-0.4-0.4-0.6c-0.3-0.7-0.5-1.5-0.5-2.2c-0.2-2.1-0.3-4.2-0.2-6.3c0-0.4-0.4-0.5-0.8-0.4
			c-0.7,0.2-1.3,0.7-1.5,1.3c-0.9,1.9-1.3,3.9-1.5,5.9c-0.1,0.5-0.1,1.1-0.2,1.7c0,0.2,0,0.4-0.1,0.7c-0.4,0-0.8-0.5-0.8-0.8
			c0-0.7-0.9-0.4-1.6,0.2c0.4-1,0.5-2.2,0.5-3.3c0-1.9-0.5-5.6-3.1-5.4c-2.7,0.2-3.3,3.7-3.4,5.9c0,2.1-0.1,3.8-0.2,4.2
			c-1.2,0.2-1.9-1.1-2.2-1.8c-0.6-1.4-0.9-2.9-1.1-4.4c-0.3-2.6-0.5-5.1-0.4-7.6c0-0.4-0.5-0.4-0.9-0.3c-0.6,0.3-1.1,0.8-1.3,1.3
			c-0.8,1.9-1,4-1.2,6c0,0,0,0,0,0.1c0-0.2-0.1-0.4-0.1-0.5c-0.3-1.6-0.6-3.2-0.8-4.8c-0.1-1-0.3-2.3-0.2-3.1c0.2-1.3-1.7,0-2,0.6
			c-1.8,3.7-1.2,7.7-1,11.8c0,1,0,2.1-0.1,3.1c-0.1,0.7-0.2,2-0.8,2.6c-0.4,0.4-1.1,0.1-1.4-0.1c-0.5-0.3-0.8-0.8-0.9-1.4
			c-0.1-0.6-0.7-0.3-1.1,0.1c-0.4,0.4-0.9,1.2-0.8,1.8c0.2,1.4,1.5,2.6,2.9,2.1c2.4-0.8,3.3-3.6,3.8-5.8c0.3-1.3,0.4-2.6,0.4-3.9
			c0.5,2.4,1,4.7,1.5,7.1c0.3,1.2,2-0.9,2-1.6c0-1.7,0.1-3.4,0.2-5.1c0.3,2,0.9,6.7,3.9,6.2c1.2-0.2,1.9-1.1,2.3-2.2
			c0.4,0.9,1.1,1.6,2.2,1.6c1-0.1,1.9-0.9,2.5-1.8c0.1,0.8,0.6,1.4,1.6,1.4c1.2,0,2.3-0.7,3-1.6c0.3-0.4,0.5-0.8,0.6-1.3
			c0,0.2,0.1,0.4,0.1,0.6c0.2,0.7,0.4,1.5,0.9,2c0.6,0.6,1.6,0.2,2.2-0.2c0.7-0.5,1.2-1.2,1.6-1.9c0.2,1.4,0.8,2.6,2.2,2.9
			c1.3,0.2,2.5-0.9,3.1-1.8c0.7-1.1,1.1-2.4,1.2-3.7c0.1-0.8,0.2-2.1-0.1-3.4c0.9,0,1.6-0.3,2-0.7c-0.1,3.3-0.6,6.6-1.2,9.9
			c-0.1,0.6,0.6,0.6,1,0.5c0.6-0.2,1.2-0.6,1.3-1.1c0.2-1,0.5-2,0.8-3c1.2,1.4,0.2,3.3,1,4.6c0.5,0.7,2,0.6,2.7,0.2
			c0.3-0.2,0.5-0.4,0.8-0.6c0.2,1,0.6,1.9,1.6,2.3c1.2,0.5,2.5-0.4,3.2-1.1c0.8-0.9,1.3-2.2,1.7-3.4C90.4,130.4,91,126.8,88.4,125.9
			z M57.1,130.7c0,0.2-0.1,0.5-0.2,0.7c-0.5-0.1-0.9-0.8-1-1.1c-0.4-0.8-0.6-1.8-0.6-2.7c-0.1-0.9-0.1-1.9,0.1-2.9
			c0.1-0.2,0.1-0.5,0.2-0.7c1.2,0.3,1.5,3,1.6,3.8C57.3,128.7,57.3,129.7,57.1,130.7z M72.2,131.1c-0.1,0.2-0.2,0.5-0.3,0.7
			c-0.5-0.2-0.7-1-0.9-1.3c-0.3-0.9-0.3-1.9-0.3-2.8c0-0.9,0.2-1.9,0.5-2.8c0.1-0.2,0.2-0.5,0.3-0.7c1.1,1,1.2,2.7,1.1,4.1
			C72.6,129.2,72.5,130.2,72.2,131.1z M86.8,134.7c-0.1,0.2-0.2,0.4-0.4,0.6c-0.4-0.3-0.6-1.1-0.6-1.5c-0.1-1,0-1.9,0.1-2.8
			c0.2-0.9,0.4-1.9,0.9-2.7c0.1-0.2,0.2-0.4,0.4-0.6c0.9,1.3,0.8,2.9,0.5,4.3C87.5,132.9,87.3,133.8,86.8,134.7z"/>
		
			<rect id="XMLID_145_" x="59.4" y="175.1" transform="matrix(0.9952 -9.794991e-02 9.794991e-02 0.9952 -16.8191 9.5592)" class="st16" width="59.2" height="1.9"/>
		<polygon id="XMLID_144_" class="st16" points="167.3,151.8 139.2,148.3 139.2,153.5 113.4,153.5 113.4,170.2 28.2,170.2 
			28.2,172.8 28.3,172.8 30.5,174.7 164.7,174.7 170.5,172.8 		"/>
		<rect id="XMLID_143_" x="66" y="168.2" class="st16" width="8.6" height="2.6"/>
		<rect id="XMLID_142_" x="30.5" y="168.2" class="st16" width="6.9" height="2.6"/>
		<rect id="XMLID_141_" x="99" y="168.2" class="st16" width="6.9" height="2.6"/>
		<rect id="XMLID_140_" x="27.2" y="157.3" class="st16" width="94.5" height="11.4"/>
		<path id="XMLID_139_" class="st17" d="M177.3,152.2h-0.1v12h0.1c1,0,1.9-0.8,1.9-1.9v-8.2C179.2,153.1,178.3,152.2,177.3,152.2z"
			/>
		<path id="XMLID_138_" class="st17" d="M25,174.3h0.1v-7.9H25c-1,0-1.9,0.8-1.9,1.9v4.2C23.1,173.5,23.9,174.3,25,174.3z"/>
		<polygon id="XMLID_137_" class="st16" points="159.7,180.6 138.6,180.6 131,168 169.6,168 		"/>
		<g id="XMLID_134_">
			<path id="XMLID_136_" class="st18" d="M157.5,119.3c0-0.7-0.6-1.3-1.3-1.3c-0.7,0-1.3,0.6-1.3,1.3v1h2.6L157.5,119.3
				C157.5,119.3,157.5,119.3,157.5,119.3z"/>
			<path id="XMLID_135_" class="st19" d="M157.5,119.7h-2.7c-0.5,0.4-0.9,1.1-0.9,1.8v2.3h4.5v-2.3
				C158.5,120.7,158.1,120.1,157.5,119.7z"/>
		</g>
		<g id="XMLID_128_">
			<rect id="XMLID_133_" x="30.5" y="160.6" class="st20" width="2.2" height="3.7"/>
			<rect id="XMLID_132_" x="51.9" y="160.6" class="st20" width="2.2" height="3.7"/>
			<rect id="XMLID_131_" x="73.3" y="160.6" class="st20" width="2.2" height="3.7"/>
			<rect id="XMLID_130_" x="94.6" y="160.6" class="st20" width="2.2" height="3.7"/>
			<rect id="XMLID_129_" x="116" y="160.6" class="st20" width="2.2" height="3.7"/>
		</g>
		<path id="XMLID_127_" class="st7" d="M168.3,146.7l-4.3-20l-0.1-0.3c0-3-2.4-5.4-5.4-5.4h-28.7c-3,0-5.4,2.4-5.4,5.4l-1.7,19.8v18
			h3.1c1.8,0,3.3,1.5,3.3,3.3v5.4h15.3c0.6-1.1,1.2-2.1,1.9-3.2c2.3-4.1,6.8-6.6,11.6-6.6c2.7,0,5.3,0.8,7.5,2.3
			c2.3,1.6,4,3.9,4.9,6.6l0.3,0.8h7v-22.3L168.3,146.7z"/>
		<path id="XMLID_126_" class="st21" d="M121.2,160.3c0,0.5-0.4,0.9-0.9,0.9l0,0c-0.5,0-0.9-0.4-0.9-0.9v-32.8
			c0-0.5,0.4-0.9,0.9-0.9l0,0c0.5,0,0.9,0.4,0.9,0.9V160.3z"/>
		<rect id="XMLID_125_" x="24.7" y="163.6" class="st20" width="2.5" height="11.8"/>
		<g id="XMLID_123_">
			<path id="XMLID_124_" class="st20" d="M36.2,184c-0.1,0-0.3,0-0.4-0.1c-0.4-0.2-0.6-0.8-0.4-1.2c2.9-5.2,4.3-11,4.1-16.9
				c0-0.5,0.4-0.9,0.9-0.9c0.5,0,0.9,0.4,0.9,0.9c0.2,6.2-1.3,12.3-4.3,17.8C36.8,183.8,36.5,184,36.2,184L36.2,184z"/>
		</g>
		<path id="XMLID_122_" class="st22" d="M157.6,142.4l-2.2-11.2c-0.4-2.1-2.4-3.8-4.6-3.8h-10.1c-2.2,0-4.1,1.8-4.1,4.1v11.1
			c0,2.2,1.8,4.1,4.1,4.1H154c1.1,0,2.1-0.5,2.8-1.3C157.5,144.6,157.8,143.5,157.6,142.4z"/>
		<path id="XMLID_121_" class="st23" d="M127.6,127.4h-3.3l-1.6,18.8v0.5h4.8c2.2,0,4.1-1.8,4.1-4.1v-11.1
			C131.6,129.2,129.8,127.4,127.6,127.4z"/>
		<path id="XMLID_120_" class="st22" d="M164.3,127.4h-0.4c-1.1,0-2.1,0.5-2.8,1.3c-0.7,0.8-0.9,1.9-0.7,3l2.2,11.2
			c0.4,2.1,2.4,3.8,4.6,3.8h1.2L164.3,127.4z"/>
		<g id="XMLID_115_" class="st24">
			<polygon id="XMLID_119_" class="st25" points="157.6,142.4 155.8,133.2 142.3,146.7 153.3,146.7 			"/>
			<path id="XMLID_118_" class="st25" d="M136.7,142.6c0,1,0.4,2,1.1,2.7l8.2-8.2c1-1,1-2.7,0-3.8c-1-1-2.7-1-3.8,0l-5.5,5.5V142.6z
				"/>
			<path id="XMLID_117_" class="st25" d="M162.3,141.8l0.2,1.1c0.3,1.5,1.4,2.8,2.8,3.4c0,0,0,0,0,0l2.4-2.4l-1.3-6.2L162.3,141.8z"
				/>
			<path id="XMLID_116_" class="st25" d="M164.2,127.4h-0.4c-1.1,0-2.1,0.5-2.8,1.3c-0.7,0.8-0.9,1.9-0.7,3l1.3,6.7l4.1-4.1
				L164.2,127.4z"/>
		</g>
		<path id="XMLID_114_" class="st26" d="M168.3,146.7l-4.3-20l-0.1-0.3c0-3-2.4-5.4-5.4-5.4h-28.7c-3,0-5.4,2.4-5.4,5.4l-1.7,19.8
			v1.7l1.7-19.8c0-3,2.4-5.4,5.4-5.4h28.7c3,0,5.4,2.4,5.4,5.4l0.1,0.3l4.3,20l9.2,3.8v-1.8L168.3,146.7z"/>
		<g id="XMLID_111_" class="st27">
			<path id="XMLID_113_" class="st22" d="M140.8,128.9h10.1c2.2,0,4.2,1.7,4.6,3.8l2.1,11.2c0.1-0.5,0.1-0.9,0-1.4l-2.2-11.2
				c-0.4-2.1-2.4-3.8-4.6-3.8h-10.1c-2.2,0-4.1,1.8-4.1,4.1v1.5C136.7,130.7,138.5,128.9,140.8,128.9z"/>
			<path id="XMLID_112_" class="st22" d="M160.4,131.7c0.1-0.6,0.4-1.1,0.7-1.5c0.7-0.8,1.7-1.3,2.8-1.3h0.7l-0.3-1.5h-0.4
				c-1.1,0-2.1,0.5-2.8,1.3C160.4,129.5,160.1,130.5,160.4,131.7L160.4,131.7z"/>
		</g>
		<path id="XMLID_110_" class="st17" d="M179.5,161.2h-3.9c-1.6,0-2.9,1.3-2.9,2.9v1.7v4.2v2.9h5.5v0h1.3c1.6,0,2.9-1.3,2.9-2.9
			v-5.8C182.3,162.5,181.1,161.2,179.5,161.2z"/>
		<path id="XMLID_109_" class="st28" d="M179.5,161.2h-3.9c-1.6,0-2.9,1.3-2.9,2.9v1.3c0-1.6,1.3-2.9,2.9-2.9h3.9
			c1.6,0,2.9,1.3,2.9,2.9v-1.3C182.3,162.5,181.1,161.2,179.5,161.2z"/>
		<g id="XMLID_86_">
			<path id="XMLID_107_" class="st20" d="M163.1,187.1c-5.2,3-11.8,1.2-14.8-4c-3-5.2-1.2-11.8,4-14.8c5.2-3,11.8-1.2,14.8,4
				C170.1,177.5,168.3,184.1,163.1,187.1L163.1,187.1z"/>
			<path id="XMLID_104_" class="st29" d="M161.5,184.2c-3.6,2.1-8.2,0.8-10.2-2.7c-2.1-3.6-0.8-8.2,2.7-10.2
				c3.6-2.1,8.2-0.8,10.2,2.7C166.3,177.6,165.1,182.2,161.5,184.2L161.5,184.2z M155.5,173.8c-2.2,1.2-2.9,4-1.6,6.2
				c1.2,2.1,4,2.9,6.2,1.6c2.2-1.2,2.9-4,1.6-6.2C160.4,173.3,157.6,172.6,155.5,173.8L155.5,173.8z"/>
			<path id="XMLID_101_" class="st30" d="M160.9,183.2c-3,1.7-6.9,0.7-8.6-2.3c-1.7-3-0.7-6.9,2.3-8.6c3-1.7,6.9-0.7,8.6,2.3
				C164.9,177.6,163.9,181.5,160.9,183.2L160.9,183.2z M155.8,174.5c-1.8,1-2.4,3.4-1.4,5.2c1,1.8,3.4,2.4,5.2,1.4
				c1.8-1,2.4-3.4,1.4-5.2C160,174,157.6,173.4,155.8,174.5L155.8,174.5z"/>
			<circle id="XMLID_100_" class="st28" cx="157.7" cy="177.7" r="4.8"/>
			<circle id="XMLID_99_" class="st31" cx="157.7" cy="177.7" r="3.2"/>
			<g id="XMLID_92_">
				<circle id="XMLID_98_" class="st21" cx="158.7" cy="179.4" r="0.9"/>
				<circle id="XMLID_97_" class="st21" cx="156.8" cy="176.1" r="0.9"/>
				<circle id="XMLID_96_" class="st21" cx="159.6" cy="177.7" r="0.9"/>
				<circle id="XMLID_95_" class="st21" cx="155.8" cy="177.7" r="0.9"/>
				<circle id="XMLID_94_" class="st21" cx="158.7" cy="176.1" r="0.9"/>
				<path id="XMLID_93_" class="st21" d="M156,179c0.2-0.4,0.8-0.6,1.2-0.3c0.4,0.2,0.5,0.8,0.3,1.2c-0.2,0.4-0.8,0.5-1.2,0.3
					C155.9,179.9,155.8,179.4,156,179z"/>
			</g>
			<g id="XMLID_87_">
				<path id="XMLID_91_" class="st16" d="M156.1,174.8c0.8-0.5,1.2-1.2,1.1-1.9c-0.6,0.1-1.3,0.3-1.9,0.6c-0.6,0.3-1.1,0.8-1.5,1.3
					C154.4,175.3,155.3,175.3,156.1,174.8z"/>
				<path id="XMLID_90_" class="st16" d="M159.4,180.6c-0.8,0.5-1.2,1.2-1.1,1.9c0.6-0.1,1.3-0.3,1.9-0.6c0.6-0.3,1.1-0.8,1.5-1.3
					C161.1,180.2,160.2,180.2,159.4,180.6z"/>
				<path id="XMLID_89_" class="st16" d="M160.6,173.9c-0.4,0.5-0.4,1.4,0,2.2c0.5,0.8,1.2,1.2,1.9,1.1c-0.1-0.6-0.3-1.3-0.6-1.9
					C161.6,174.7,161.1,174.2,160.6,173.9z"/>
				<path id="XMLID_88_" class="st16" d="M154.8,179.4c-0.5-0.8-1.2-1.2-1.9-1.1c0.1,0.6,0.3,1.3,0.6,1.9c0.3,0.6,0.8,1.1,1.3,1.5
					C155.3,181.1,155.3,180.2,154.8,179.4z"/>
			</g>
		</g>
		<g id="XMLID_84_" class="st32">
			<path id="XMLID_85_" class="st33" d="M172.7,172.7v-2.9v-4.2V164c0-1.6,1.3-2.9,2.9-2.9h2v-1.7h-2c-2.5,0-4.6,2.1-4.6,4.6v1.6
				v4.2v2.9v0L172.7,172.7z"/>
		</g>
		<g id="XMLID_81_">
			<circle id="XMLID_83_" class="st21" cx="175.1" cy="170.5" r="0.9"/>
			<circle id="XMLID_82_" class="st21" cx="175.1" cy="166.1" r="0.9"/>
		</g>
		<rect id="XMLID_80_" x="149.1" y="127.4" class="st17" width="1.7" height="19.3"/>
		<g id="XMLID_73_">
			<path id="XMLID_79_" class="st30" d="M112.9,166.4H98.8c-2.4,0-4.3,1.9-4.3,4.3v3.3c0,2.4,1.9,4.3,4.3,4.3h14.2
				c2.4,0,4.3-1.9,4.3-4.3v-3.3C117.3,168.4,115.3,166.4,112.9,166.4z"/>
			<path id="XMLID_78_" class="st21" d="M112.9,166.4H98.8c-2.4,0-4.3,1.9-4.3,4.3v2.4c0-2.4,1.9-4.3,4.3-4.3h14.2
				c2.4,0,4.3,1.9,4.3,4.3v-2.4C117.3,168.4,115.3,166.4,112.9,166.4z"/>
			<path id="XMLID_77_" class="st21" d="M98.8,178.5h14.2c2.4,0,4.3-1.9,4.3-4.3v-2.4c0,2.4-1.9,4.3-4.3,4.3H98.8
				c-2.4,0-4.3-1.9-4.3-4.3v2.4C94.4,176.6,96.4,178.5,98.8,178.5z"/>
			<g id="XMLID_74_">
				<rect id="XMLID_76_" x="99.5" y="166" class="st21" width="2" height="12.9"/>
				<rect id="XMLID_75_" x="110.2" y="166" class="st21" width="2" height="12.9"/>
			</g>
		</g>
		<g id="XMLID_70_">
			<circle id="XMLID_72_" class="st17" cx="166.5" cy="160.6" r="2.3"/>
			<circle id="XMLID_71_" class="st18" cx="166.5" cy="160.6" r="1.3"/>
		</g>
		<path id="XMLID_69_" class="st21" d="M160.9,150.2h2c1,0,1.7-0.8,1.7-1.7c0-1-0.8-1.7-1.7-1.7h-2V150.2z"/>
		<path id="XMLID_66_" class="st23" d="M160.9,142.7c0-0.3,0-0.7-0.1-1v0l0,0l-2.2-11.5c-0.7-3.6-4-6.4-7.6-6.4h-10.3
			c-3.9,0-7.2,3.2-7.2,7.2v31.4c0,4,3.2,7.2,7.2,7.2h3.5l0.6-1c2.7-4.6,7.8-7.5,13.3-7.5c1,0,2.1,0.1,3.1,0.3
			C160.9,161.4,160.9,142.8,160.9,142.7z M143.1,167.7L143.1,167.7l-2.5,0.1c-3,0-5.4-2.4-5.4-5.4V131c0-3,2.4-5.4,5.4-5.4H151
			c2.8,0,5.4,2.2,5.9,4.9L159,142c0,0.3,0.1,0.5,0.1,0.7c0,0.1,0,11,0,16.5c-0.4,0-0.8,0-1.2,0C151.8,159.3,146.1,162.5,143.1,167.7
			z"/>
		<g id="XMLID_62_">
			<path id="XMLID_65_" class="st17" d="M139.2,152.8c0,0.4-0.3,0.7-0.7,0.7H136c-0.4,0-0.7-0.3-0.7-0.7v-4c0-0.4,0.3-0.7,0.7-0.7
				h2.5c0.4,0,0.7,0.3,0.7,0.7V152.8z"/>
			<rect id="XMLID_64_" x="135.2" y="148.2" class="st21" width="1.7" height="5.3"/>
			<circle id="XMLID_63_" class="st17" cx="138.5" cy="155.5" r="0.8"/>
		</g>
		<circle id="XMLID_61_" class="st21" cx="169.6" cy="151.3" r="1.3"/>
		<g id="XMLID_38_">
			<path id="XMLID_59_" class="st20" d="M61.7,183.3c-3,5.2-9.6,7-14.8,4c-5.2-3-7-9.6-4-14.8c3-5.2,9.6-7,14.8-4
				C62.9,171.5,64.7,178.1,61.7,183.3L61.7,183.3z"/>
			<path id="XMLID_56_" class="st29" d="M56.1,184.4c-3.6,2.1-8.2,0.8-10.2-2.7c-2.1-3.6-0.8-8.2,2.7-10.2c3.6-2.1,8.2-0.8,10.2,2.7
				C60.9,177.7,59.6,182.3,56.1,184.4L56.1,184.4z M50.1,174c-2.2,1.2-2.9,4-1.6,6.2c1.2,2.1,4,2.9,6.2,1.6c2.1-1.2,2.9-4,1.6-6.2
				C55,173.5,52.2,172.8,50.1,174L50.1,174z"/>
			<path id="XMLID_53_" class="st17" d="M57.8,181.1c-1.7,3-5.6,4-8.6,2.3c-3-1.7-4-5.6-2.3-8.6c1.7-3,5.6-4,8.6-2.3
				C58.5,174.2,59.5,178,57.8,181.1L57.8,181.1z M49,176c-1,1.8-0.4,4.1,1.4,5.2c1.8,1,4.1,0.4,5.2-1.4c1-1.8,0.4-4.1-1.4-5.2
				C52.4,173.6,50.1,174.2,49,176L49,176z"/>
			<circle id="XMLID_52_" class="st34" cx="52.3" cy="177.9" r="4.8"/>
			<circle id="XMLID_51_" class="st31" cx="52.3" cy="177.9" r="3.2"/>
			<g id="XMLID_44_">
				<circle id="XMLID_50_" class="st21" cx="54" cy="178.9" r="0.9"/>
				<circle id="XMLID_49_" class="st21" cx="50.7" cy="176.9" r="0.9"/>
				<path id="XMLID_48_" class="st21" d="M53.5,176.2c0.4-0.2,0.9-0.1,1.2,0.3c0.2,0.4,0.1,0.9-0.3,1.2c-0.4,0.2-0.9,0.1-1.2-0.3
					C53,177,53.1,176.4,53.5,176.2z"/>
				<circle id="XMLID_47_" class="st21" cx="50.7" cy="178.9" r="0.9"/>
				<circle id="XMLID_46_" class="st21" cx="52.3" cy="176" r="0.9"/>
				<circle id="XMLID_45_" class="st21" cx="52.3" cy="179.8" r="0.9"/>
			</g>
			<g id="XMLID_39_">
				<path id="XMLID_43_" class="st16" d="M49.4,176.2c0.5-0.8,0.4-1.7,0-2.2c-0.5,0.4-1,0.9-1.3,1.5c-0.3,0.6-0.5,1.2-0.6,1.9
					C48.2,177.5,49,177,49.4,176.2z"/>
				<path id="XMLID_42_" class="st16" d="M55.2,179.6c-0.5,0.8-0.4,1.7,0,2.2c0.5-0.4,1-0.9,1.3-1.5c0.3-0.6,0.5-1.2,0.6-1.9
					C56.4,178.4,55.7,178.8,55.2,179.6z"/>
				<path id="XMLID_41_" class="st16" d="M52.9,173.1c-0.1,0.7,0.3,1.4,1.1,1.9c0.8,0.5,1.7,0.4,2.2,0c-0.4-0.5-0.9-1-1.5-1.3
					C54.1,173.4,53.5,173.2,52.9,173.1z"/>
				<path id="XMLID_40_" class="st16" d="M50.6,180.8c-0.8-0.5-1.7-0.4-2.2,0c0.4,0.5,0.9,1,1.5,1.3c0.6,0.3,1.2,0.5,1.9,0.6
					C51.9,182,51.4,181.3,50.6,180.8z"/>
			</g>
		</g>
		<g id="XMLID_36_">
			<path id="XMLID_37_" class="st31" d="M163.1,149c-0.2,0-0.3-0.1-0.4-0.2c-0.2-0.2-0.2-0.6,0.1-0.8l8.5-7.6
				c0.2-0.2,0.6-0.2,0.8,0.1c0.2,0.2,0.2,0.6-0.1,0.8l-8.5,7.6C163.4,149,163.3,149,163.1,149L163.1,149z"/>
		</g>
		<g id="XMLID_34_">
			<path id="XMLID_35_" class="st31" d="M169.6,151.9c0,0-0.1,0-0.1,0c-0.3-0.1-0.5-0.4-0.5-0.7l2.9-14.4c0.1-0.3,0.4-0.5,0.7-0.5
				c0.3,0.1,0.5,0.4,0.5,0.7l-2.9,14.4C170.1,151.7,169.9,151.9,169.6,151.9L169.6,151.9z"/>
		</g>
		<path id="XMLID_33_" class="st21" d="M171.4,133.7h-0.1v4.6h0.1c1,0,1.9-0.8,1.9-1.9v-0.8C173.3,134.5,172.4,133.7,171.4,133.7z"
			/>
		<path id="XMLID_32_" class="st17" d="M168.5,130.5h-0.2v10.2h0.2c1.6,0,2.9-1.3,2.9-2.9v-4.5C171.3,131.8,170,130.5,168.5,130.5z"
			/>
		<circle id="XMLID_31_" class="st20" cx="123.1" cy="169.7" r="3.9"/>
		<path id="XMLID_30_" class="st21" d="M75.9,162h2.3c0.5-0.3,0.8-0.9,0.8-1.5h-3.8C75.1,161.1,75.4,161.7,75.9,162z"/>
	</g>
</g>
</svg>
