<?xml version="1.0" encoding="utf-8"?>
<!-- Generator: Adobe Illustrator 19.0.0, SVG Export Plug-In . SVG Version: 6.00 Build 0)  -->
<svg version="1.1" xmlns="http://www.w3.org/2000/svg" xmlns:xlink="http://www.w3.org/1999/xlink" x="0px" y="0px"
	 viewBox="0 0 326 243" style="enable-background:new 0 0 326 243;" xml:space="preserve">
<style type="text/css">
	.st0{fill:#519E38;}
	.st1{fill:#FEBEBD;}
	.st2{fill:#9D360A;}
	.st3{fill:#CA655F;}
	.st4{fill:#0E3656;}
	.st5{fill:#446666;}
	.st6{fill:#FFFFFF;}
</style>
<g id="Layer_2">
</g>
<g id="kolba_4">
</g>
<g id="kolba_3">
</g>
<g id="kolby">
</g>
<g id="doma">
</g>
<g id="car">
</g>
<g id="butylka_3">
</g>
<g id="butylka_2">
</g>
<g id="butylka_1">
</g>
<g id="vanna_2">
</g>
<g id="sneg">
</g>
<g id="vanna_1">
</g>
<g id="shariki_2">
</g>
<g id="shariki_1">
</g>
<g id="voronka">
</g>
<g id="gradusnik">
</g>
<g id="kolba_2">
</g>
<g id="kolba_1">
</g>
<g id="probirki">
</g>
<g id="lupa">
</g>
<g id="bidon">
</g>
<g id="blank">
</g>
<g id="ticks">
	<path class="st0" d="M252.4,93.5c-30.3-56.5-96.3-25-96.3-25s-20.2,10.1-61.2,3c-34.2-6-49.4,26.2-44.8,43.2
		c-1.9,9-0.3,17.5,5,21.4c14.9,10.7,35.1,16,62.4,14.3c27.3-1.8,103.4,10.7,103.4,10.7s46.1,1.7,39.1-34.2
		C261.9,119,260.3,108.3,252.4,93.5z"/>
	<path class="st1" d="M216.9,140.1c0,0,61.8,2.4,31.5-54.1s-96.3-25-96.3-25s-20.2,10.1-61.2,3s-54.7,40.4-39.8,51.1
		s35.1,16,62.4,14.3C140.8,127.6,216.9,140.1,216.9,140.1z"/>
	<path class="st2" d="M216.9,139.8c0,0-76.1-12.5-103.4-10.7c-27.3,1.8-47.5-3.6-62.4-14.3c-2.4-1.8-4.1-4.5-5-7.8
		c-2,9.1-0.3,17.7,5,21.6c14.9,10.7,35.1,16,62.4,14.3c27.3-1.8,103.4,10.7,103.4,10.7s46.3,1.8,39.1-34.4
		C250.4,141.1,216.9,139.8,216.9,139.8z"/>
	<path class="st3" d="M104.5,75.9c0,0-24.2-13.1-42.4,2S51,123.1,88.7,120.7s42,1.6,43.2-4C133,111.2,104.5,75.9,104.5,75.9z"/>
	<path class="st3" d="M216.6,130.3c0,0,34.1,8.2,34.9-23.3s-33.3-19.6-33.3-19.6s-9.9,11.1-18.6,11.9s-24.6,2.4-17.4,14.7
		C189.3,126.3,216.6,130.3,216.6,130.3z"/>
	<path class="st3" d="M231.3,77.1c0,0-6.3-26.1-61-14.3s5.2,7.5,13.1,12.7C191.3,80.7,213.5,90.6,231.3,77.1z"/>
	<path class="st3" d="M136.6,114.8c0,0,8.3,7.9,19.8,8.3c11.5,0.4,21.4,2.8,24,0c2.6-2.8-29.4-27.3-29.4-27.3s-35.4-22.2-38.6-21
		C109.3,75.9,136.6,114.8,136.6,114.8z"/>
	<path class="st3" d="M192.5,87.8c0,0-11.1-9.9-25-10.3c-13.9-0.4-19.8-5.8-23.8-5.7s-15.5,3.8,0,12.1s19.1,13.5,30.9,15.7
		C186.4,101.7,202.4,91.4,192.5,87.8z"/>
	<g>
		<path class="st4" d="M249.7,117.3c-13.8-13.8-36.2-13.8-49.9,0c-13.8,13.8-13.8,36.2,0,49.9c13.8,13.8,36.2,13.8,49.9,0
			C263.5,153.5,263.5,131.1,249.7,117.3z M243.4,161c-5,5-11.7,7.8-18.7,7.8S211,166,206,161c-5-5-7.8-11.7-7.8-18.7
			c0-7.1,2.8-13.7,7.8-18.7c5-5,11.7-7.8,18.7-7.8s13.7,2.8,18.7,7.8c5,5,7.8,11.7,7.8,18.7C251.2,149.4,248.4,156,243.4,161z"/>
		<g>
			<g>
				<g>
					<g>
						
							<rect x="257.7" y="162.1" transform="matrix(0.7071 -0.7071 0.7071 0.7071 -50.3178 238.0199)" class="st5" width="8.8" height="35.3"/>
					</g>
				</g>
			</g>
		</g>
		<g>
			<g>
				<g>
					<g>
						
							<rect x="265.8" y="168.7" transform="matrix(0.7071 -0.7071 0.7071 0.7071 -55.4867 250.5283)" class="st4" width="17.7" height="47.1"/>
					</g>
				</g>
			</g>
		</g>
		<g>
			<g>
				<g>
					<g>
						<g>
							<path class="st6" d="M217.4,155.8c-1.7,1.7-4.5,1.7-6.2,0c-3.6-3.6-5.6-8.4-5.6-13.5c0-5.1,2-9.9,5.6-13.5
								c1.7-1.7,4.5-1.7,6.2,0c1.7,1.7,1.7,4.5,0,6.2c-1.9,1.9-3,4.5-3,7.3c0,2.8,1.1,5.3,3,7.3
								C219.1,151.3,219.1,154.1,217.4,155.8z"/>
						</g>
					</g>
				</g>
			</g>
		</g>
	</g>
</g>
</svg>
