<?xml version="1.0" encoding="utf-8"?>
<!-- Generator: Adobe Illustrator 19.0.0, SVG Export Plug-In . SVG Version: 6.00 Build 0)  -->
<svg version="1.1" xmlns="http://www.w3.org/2000/svg" xmlns:xlink="http://www.w3.org/1999/xlink" x="0px" y="0px"
	 viewBox="0 0 296 224" style="enable-background:new 0 0 296 224;" xml:space="preserve">
<style type="text/css">
	.st0{fill:#519E38;}
	.st1{fill:#CA655F;}
	.st2{fill:#FEBEBD;}
	.st3{fill:#B75856;}
	.st4{fill:#EFA8A8;}
	.st5{fill:#EFEFEF;}
	.st6{fill:#DDDDDD;}
	.st7{fill:#FFFFFF;}
</style>
<g id="Layer_2">
</g>
<g id="kolba_4">
</g>
<g id="kolba_3">
</g>
<g id="kolby">
</g>
<g id="doma">
</g>
<g id="car">
</g>
<g id="butylka_3">
</g>
<g id="butylka_2">
</g>
<g id="butylka_1">
</g>
<g id="vanna_2">
</g>
<g id="sneg">
</g>
<g id="vanna_1">
</g>
<g id="shariki_2">
</g>
<g id="shariki_1">
</g>
<g id="voronka">
</g>
<g id="gradusnik">
</g>
<g id="kolba_2">
</g>
<g id="kolba_1">
</g>
<g id="probirki">
</g>
<g id="lupa">
</g>
<g id="bidon">
</g>
<g id="blank">
</g>
<g id="ticks">
	<path class="st0" d="M275.1,111.1h-17.6c1.6-18.2-9.6-35.3-27-41c-2.2-1.6-4.6-3.2-7.2-4.7c-0.3-0.2-0.6-0.3-0.9-0.3
		c-1.2-0.2-2.5,0.3-3.2,1.4c-0.3,0.5-0.4,1-0.4,1.5c-2.5-0.1-5,0.1-7.4,0.5c-0.8-0.5-1.6-1.1-2.5-1.6c-0.3-0.2-0.7-0.3-1-0.4
		c-1.2-0.2-2.4,0.3-3.1,1.3c-0.4,0.6-0.5,1.2-0.5,1.8c-0.3-0.6-0.9-1.1-1.6-1.3c-0.2-0.1-0.6-0.2-1.4-0.5c-0.4-2.5-1.1-5-2-7.4
		c0.7-0.3,1.3-0.8,1.6-1.6c0.6-1.5-0.1-3.3-1.6-3.9c-0.1-0.1-1.3-0.5-3.3-1.2c-1.6-2.6-3.5-5.1-5.6-7.3c0.2-0.2,0.4-0.4,0.5-0.7
		c0.7-1.5,0.1-3.3-1.4-4c-0.2-0.1-4.1-2-10.2-3.2c-1.2-0.6-2.4-1.1-3.6-1.5c-19-6.9-39.9,1.7-48.8,19.4c-1.9,2-3.8,4.1-5.7,6.4
		c-0.2,0.3-0.4,0.5-0.5,0.8c-0.4,1.2-0.1,2.5,1,3.4c0.4,0.4,1,0.5,1.5,0.6c-0.1,0.3-0.1,0.6-0.2,0.9c-1.6-0.8-3.3-1.6-5-2.2
		c-0.2-0.8-0.2-1.3-0.2-1.4c-0.2-1.6-1.7-2.8-3.3-2.6c-1.3,0.2-2.3,1.1-2.6,2.3c-2.3-0.4-4.7-0.6-7.1-0.6c-1.2,0-2.4,0.1-3.6,0.2
		c-0.3-0.7-0.4-1.1-0.5-1.2c-0.6-1.6-2.3-2.4-3.8-1.8c-1.6,0.6-2.4,2.3-1.8,3.8c0,0,0,0.1,0.1,0.2c-1.4,0.3-2.7,0.8-4,1.2
		c-0.4-1.1-1.5-1.9-2.8-1.9h0c-1.7,0-3,1.3-3,3c0,0.2,0,0.7,0.1,1.5c-2.2,1.3-4.3,2.7-6.3,4.4c-0.5-0.6-1.2-0.9-2-1
		c-1.6-0.1-3.1,1.2-3.2,2.8c0,0.2-0.1,1.4,0,3.5c-1.9,2.4-3.6,5-4.9,7.8c-0.3-0.1-0.5-0.2-0.9-0.2c-1.6-0.2-3.1,1-3.3,2.7
		c0,0.3-0.5,4.5,0.5,10.7c-0.1,1.3-0.2,2.6-0.2,3.9c0,2.5,0.2,4.9,0.7,7.2H50.1c-2.4,0-4.3,2-4.3,4.3c0,2.4,2,4.3,4.3,4.3h1.2
		c16.1,45.9,59.8,78.8,111.2,78.8s95.1-32.9,111.2-78.8h1.3c2.4,0,4.3-2,4.3-4.3C279.5,113.1,277.5,111.1,275.1,111.1z M146.3,111.1
		c-0.1-0.2-0.2-0.4-0.3-0.6c0.4,0.2,0.9,0.4,1.3,0.6H146.3z"/>
	<g>
		<circle class="st1" cx="92.1" cy="99.2" r="39.6"/>
		<path class="st2" d="M96.2,141.8c-0.3,0-0.6-0.1-1-0.2c-24.5-8.2-34.9-23.3-39.3-34.4c-4.8-12.1-3.8-22.3-3.8-22.7
			c0.2-1.6,1.7-2.8,3.3-2.7c1.6,0.2,2.8,1.7,2.7,3.3c-0.2,1.5-3.3,36.5,39,50.8c1.6,0.5,2.4,2.2,1.9,3.8
			C98.6,141,97.4,141.8,96.2,141.8z"/>
		<path class="st2" d="M110,137.5c-0.4,0-0.7-0.1-1.1-0.2c-26-10-37.6-27.5-42.8-40.4c-5.6-14-5-25.6-5-26c0.1-1.7,1.5-2.9,3.2-2.8
			c1.7,0.1,2.9,1.5,2.8,3.2l0,0c0,0.1-0.5,10.9,4.7,23.7c6.9,17,20.1,29.4,39.3,36.8c1.5,0.6,2.3,2.3,1.7,3.9
			C112.4,136.8,111.3,137.5,110,137.5z"/>
		<path class="st2" d="M118.5,131.7c-0.5,0-1.1-0.1-1.5-0.4c-43.9-26.4-44.4-66.4-44.4-68.1c0-1.7,1.3-3,3-3h0c1.7,0,3,1.3,3,3
			c0,0.5,0.7,38.4,41.5,63c1.4,0.9,1.9,2.7,1,4.1C120.5,131.2,119.5,131.7,118.5,131.7z"/>
		<path class="st2" d="M126.6,121.6c-0.5,0-0.9-0.1-1.4-0.3c-25.5-13.2-42.2-58.7-42.9-60.6c-0.6-1.6,0.2-3.3,1.8-3.8
			c1.6-0.6,3.3,0.2,3.8,1.8c0.2,0.5,16.6,45.2,40,57.3c1.5,0.8,2.1,2.6,1.3,4C128.8,121,127.7,121.6,126.6,121.6z"/>
		<path class="st2" d="M130.8,110.7c-0.7,0-1.4-0.2-1.9-0.7c-26.2-22.4-29.6-47.6-29.7-48.7c-0.2-1.6,1-3.1,2.6-3.3
			c1.6-0.2,3.1,1,3.3,2.6l0,0c0,0.2,3.3,24.1,27.7,44.9c1.3,1.1,1.4,3,0.3,4.2C132.5,110.3,131.6,110.7,130.8,110.7z"/>
		<path class="st2" d="M130.8,93.8c-0.4,0-0.7-0.1-1.1-0.2c-4.7-1.9-9.1-6.8-12.9-14.7c-2.7-5.6-4.2-10.6-4.3-10.8
			c-0.5-1.6,0.5-3.3,2-3.7c1.6-0.5,3.3,0.5,3.7,2c1.5,5.1,6.9,19,13.6,21.6c1.5,0.6,2.3,2.3,1.7,3.9C133.1,93.1,132,93.8,130.8,93.8
			z"/>
	</g>
	<g>
		<circle class="st3" cx="149.5" cy="69.8" r="39.6"/>
		<path class="st4" d="M108.1,59.2c0.1-0.3,0.3-0.6,0.5-0.8c16.1-20.2,33.7-24.9,45.7-25.3c13-0.4,22.2,4,22.6,4.2
			c1.5,0.7,2.1,2.5,1.4,4c-0.7,1.5-2.5,2.1-4,1.4c-1.4-0.7-33.2-15.5-61,19.5c-1,1.3-2.9,1.5-4.2,0.5
			C108,61.7,107.6,60.4,108.1,59.2z"/>
		<path class="st4" d="M107.4,73.7c0.1-0.3,0.3-0.7,0.6-0.9c18.2-21.1,38.6-26.1,52.5-26.5c15.1-0.5,25.7,4,26.2,4.2
			c1.5,0.6,2.2,2.4,1.6,3.9c-0.6,1.5-2.4,2.2-3.9,1.6l0,0c-0.1,0-10.1-4.2-23.9-3.7c-18.4,0.7-34.5,8.9-47.9,24.5
			c-1.1,1.3-3,1.4-4.2,0.3C107.3,76.1,107,74.8,107.4,73.7z"/>
		<path class="st4" d="M110,83.6c0.2-0.5,0.5-1,0.9-1.3c39.8-32.3,77.5-19.2,79.1-18.6c1.6,0.6,2.4,2.3,1.8,3.8l0,0
			c-0.6,1.6-2.3,2.4-3.8,1.8c-0.5-0.2-36.3-12.4-73.3,17.6c-1.3,1-3.2,0.8-4.2-0.4C109.8,85.7,109.7,84.6,110,83.6z"/>
		<path class="st4" d="M116.8,94.7c0.2-0.4,0.4-0.8,0.8-1.2c21.1-19.6,69.5-19.8,71.6-19.8c1.7,0,3,1.3,3,3c0,1.7-1.3,3-3,3
			c-0.5,0-48.2,0.2-67.5,18.2c-1.2,1.1-3.1,1.1-4.2-0.2C116.6,96.9,116.4,95.7,116.8,94.7z"/>
		<path class="st4" d="M125.6,102.3c0.2-0.6,0.7-1.2,1.3-1.6c30-17.1,54.9-11.7,55.9-11.4c1.6,0.4,2.6,2,2.3,3.6
			c-0.4,1.6-2,2.6-3.6,2.3l0,0c-0.2-0.1-23.7-5-51.6,10.8c-1.4,0.8-3.3,0.3-4.1-1.1C125.4,104,125.4,103.1,125.6,102.3z"/>
		<path class="st4" d="M141.5,108c0.1-0.3,0.3-0.7,0.6-1c3.4-3.8,9.5-6.2,18.2-7.2c6.2-0.7,11.4-0.3,11.7-0.3
			c1.7,0.1,2.9,1.5,2.8,3.2c-0.1,1.7-1.5,2.9-3.2,2.8c-5.3-0.3-20.2,0-25,5.5c-1.1,1.2-3,1.4-4.2,0.3
			C141.4,110.5,141.1,109.2,141.5,108z"/>
	</g>
	<g>
		<circle class="st1" cx="205.3" cy="103" r="39.6"/>
		<path class="st2" d="M209.6,60.4c0.3,0.1,0.6,0.2,0.9,0.3c22.4,12.9,29.6,29.7,31.8,41.5c2.3,12.8-0.7,22.6-0.8,23
			c-0.5,1.6-2.2,2.5-3.8,2c-1.6-0.5-2.5-2.2-2-3.8c0.5-1.5,10.4-35.2-28.3-57.5c-1.4-0.8-1.9-2.7-1.1-4.1
			C207.1,60.7,208.4,60.1,209.6,60.4z"/>
		<path class="st2" d="M195.2,61.9c0.3,0.1,0.7,0.2,1,0.4c23.5,14.9,31.5,34.3,34,48c2.7,14.8-0.1,26-0.2,26.5
			c-0.4,1.6-2.1,2.5-3.7,2.1c-1.6-0.4-2.6-2.1-2.1-3.7l0,0c0-0.1,2.7-10.6,0.1-24.2c-3.4-18.1-13.9-32.8-31.3-43.8
			c-1.4-0.9-1.8-2.7-0.9-4.1C192.7,62.1,194,61.6,195.2,61.9z"/>
		<path class="st2" d="M185.7,65.9c0.5,0.1,1,0.3,1.4,0.7c37.8,34.6,30.4,73.9,30.1,75.5c-0.3,1.6-1.9,2.7-3.5,2.3l0,0
			c-1.6-0.3-2.7-1.9-2.3-3.5c0.1-0.5,6.9-37.8-28.2-69.9c-1.2-1.1-1.3-3-0.2-4.2C183.7,66,184.7,65.7,185.7,65.9z"/>
		<path class="st2" d="M175.8,74.3c0.5,0.1,0.9,0.3,1.3,0.6c22.5,17.9,29.8,65.8,30.1,67.9c0.2,1.6-0.9,3.2-2.5,3.4
			c-1.6,0.2-3.2-0.9-3.4-2.5c-0.1-0.5-7.3-47.6-27.9-64.1c-1.3-1-1.5-2.9-0.5-4.2C173.6,74.4,174.7,74,175.8,74.3z"/>
		<path class="st2" d="M169.6,84.1c0.7,0.1,1.3,0.5,1.8,1.1c21.3,27.2,19.6,52.5,19.6,53.6c-0.1,1.7-1.6,2.9-3.2,2.8
			c-1.6-0.1-2.9-1.6-2.8-3.2l0,0c0-0.2,1.5-24.2-18.3-49.5c-1-1.3-0.8-3.2,0.5-4.2C167.8,84.1,168.7,84,169.6,84.1z"/>
		<path class="st2" d="M166.2,100.7c0.4,0.1,0.7,0.2,1,0.4c4.3,2.8,7.6,8.5,9.8,17c1.6,6,2,11.3,2,11.5c0.1,1.7-1.1,3.1-2.7,3.2
			c-1.7,0.1-3.1-1.1-3.2-2.7c-0.5-5.3-3-19.9-9.1-23.9c-1.4-0.9-1.8-2.8-0.9-4.1C163.8,100.9,165.1,100.4,166.2,100.7z"/>
	</g>
	<path class="st5" d="M38.5,115.1c16.1,45.9,59.8,78.8,111.2,78.8S244.9,161,261,115.1H38.5z"/>
	<path class="st6" d="M262.3,115.1h-225c-2.4,0-4.3-2-4.3-4.3v0c0-2.4,2-4.3,4.3-4.3h225c2.4,0,4.3,1.9,4.3,4.3v0
		C266.7,113.1,264.7,115.1,262.3,115.1z"/>
	<path class="st7" d="M78.7,153.7c-1,0-2.1-0.3-3-0.8c-13.6-7.9-19.9-22.6-20.2-23.2c-1.3-3,0.1-6.6,3.2-7.9c3-1.3,6.6,0.1,7.9,3.2
		c0.1,0.2,5.1,11.7,15.2,17.5c2.9,1.7,3.8,5.3,2.2,8.2C82.7,152.6,80.7,153.7,78.7,153.7z"/>
</g>
</svg>
