<?xml version="1.0" encoding="utf-8"?>
<!-- Generator: Adobe Illustrator 19.0.0, SVG Export Plug-In . SVG Version: 6.00 Build 0)  -->
<svg version="1.1" xmlns="http://www.w3.org/2000/svg" xmlns:xlink="http://www.w3.org/1999/xlink" x="0px" y="0px"
	 viewBox="0 0 252.3 203" style="enable-background:new 0 0 252.3 203;" xml:space="preserve">
<style type="text/css">
	.st0{fill:#519E38;}
	.st1{fill:#D96F47;}
	.st2{fill:#FCDAD0;}
</style>
<g id="Layer_2">
</g>
<g id="kolba_4">
</g>
<g id="kolba_3">
</g>
<g id="kolby">
</g>
<g id="doma">
</g>
<g id="car">
</g>
<g id="butylka_3">
</g>
<g id="butylka_2">
</g>
<g id="butylka_1">
</g>
<g id="vanna_2">
</g>
<g id="sneg">
</g>
<g id="vanna_1">
</g>
<g id="shariki_2">
</g>
<g id="shariki_1">
</g>
<g id="voronka">
</g>
<g id="gradusnik">
</g>
<g id="kolba_2">
</g>
<g id="kolba_1">
</g>
<g id="probirki">
</g>
<g id="lupa">
</g>
<g id="bidon">
</g>
<g id="blank">
</g>
<g id="ticks">
	<path class="st0" d="M197.8,36.2c-36-0.4-58.8,15.8-71.6,29.4c-9.1,9.6-14.4,19.2-17.2,25c-3.4,4.6-3.7,11-0.4,16.1
		c4.3,6.6,13.1,8.4,19.6,4.2c2.2-1.4,3.9-3.3,5-5.5l0.1,0l0,0.1c0.6-1.7,15.8-41.6,64.3-41.1c2.9,0,5.6-0.8,7.8-2.3
		c3.8-2.5,6.4-6.8,6.4-11.7C211.8,42.6,205.6,36.2,197.8,36.2z"/>
	<path class="st0" d="M205.6,77.7c-34.6,9.8-51.9,31.8-60.3,48.5c-6,11.8-8.4,22.5-9.4,28.9c-1.9,5.4-0.4,11.6,4.2,15.5
		c6,5.1,14.9,4.4,20-1.6c1.7-2,2.7-4.3,3.2-6.7l0.1,0l0,0.1c0.1-1.8,3.3-44.4,50-57.7c2.8-0.8,5.1-2.3,6.8-4.4c3-3.5,4.2-8.3,2.8-13
		C220.9,79.9,213.1,75.6,205.6,77.7z"/>
	<path class="st0" d="M52.4,67.6c-6.6,35.3,5.3,60.6,16.5,75.7c7.9,10.6,16.4,17.6,21.7,21.3c4,4.1,10.2,5.6,15.8,3.2
		c7.2-3.1,10.6-11.4,7.5-18.6c-1-2.4-2.6-4.4-4.6-5.8l0.1-0.1l0.1,0c-1.6-0.9-38.3-22.8-29.3-70.5c0.5-2.8,0.2-5.6-0.9-8.1
		c-1.8-4.2-5.6-7.4-10.4-8.3C61.2,54.9,53.8,59.9,52.4,67.6z"/>
	<path class="st1" d="M190.2,32c-36-0.4-58.8,15.8-71.6,29.4c-9.1,9.6-14.4,19.2-17.2,25c-3.4,4.6-3.7,11-0.4,16.1
		c4.3,6.6,13.1,8.4,19.6,4.2c2.2-1.4,3.9-3.3,5-5.5l0.1,0l0,0.1c0.6-1.7,15.8-41.6,64.3-41.1c2.9,0,5.6-0.8,7.8-2.3
		c3.8-2.5,6.4-6.8,6.4-11.7C204.2,38.4,198,32.1,190.2,32z"/>
	<path class="st2" d="M109.9,90.3c-0.2,0-0.4-0.1-0.6-0.1c-1.2-0.4-1.9-1.8-1.4-3c2.9-8.3,9.1-16.9,18.4-25.6
		c6.9-6.4,12.8-10.4,13.1-10.5c1.1-0.7,2.5-0.4,3.3,0.7c0.7,1.1,0.4,2.5-0.7,3.3c-0.2,0.2-23.3,15.6-29.6,33.7
		C111.9,89.7,110.9,90.3,109.9,90.3z"/>
	<circle class="st2" cx="107.7" cy="95.3" r="3"/>
	<path class="st1" d="M203.8,70.4c-34.6,9.8-52,31.7-60.5,48.4c-6,11.8-8.4,22.5-9.5,28.9c-1.9,5.4-0.5,11.6,4.1,15.5
		c5.9,5.1,14.9,4.4,20-1.5c1.7-2,2.8-4.3,3.2-6.7l0.1,0l0,0.1c0.1-1.8,3.4-44.4,50.1-57.6c2.8-0.8,5.1-2.3,6.9-4.4
		c3-3.5,4.2-8.3,2.9-13C219.1,72.7,211.3,68.3,203.8,70.4z"/>
	<path class="st2" d="M143.2,149c-0.2,0-0.4,0.1-0.6,0c-1.3-0.1-2.3-1.2-2.2-2.5c0.4-8.8,3.9-18.8,10.4-29.7
		c4.8-8.1,9.4-13.6,9.6-13.8c0.8-1,2.3-1.1,3.3-0.3c1,0.8,1.1,2.3,0.3,3.3c-0.2,0.2-18,21.5-18.9,40.7
		C145,147.9,144.2,148.7,143.2,149z"/>
	<circle class="st2" cx="142.5" cy="154.4" r="3"/>
	<path class="st1" d="M48.2,62.3c-9,34.8,1.2,60.9,11.3,76.6c7.2,11.1,15.2,18.6,20.2,22.7c3.7,4.4,9.8,6.2,15.5,4.3
		c7.4-2.6,11.3-10.6,8.8-18.1c-0.9-2.5-2.3-4.5-4.2-6.1l0.1-0.1l0.1,0c-1.5-1-36.6-25.3-24.5-72.3c0.7-2.8,0.6-5.6-0.3-8.1
		c-1.5-4.3-5-7.8-9.8-9C57.8,50.2,50.1,54.7,48.2,62.3z"/>
	<path class="st2" d="M85.4,154.2c-0.1,0.2-0.2,0.4-0.3,0.6c-0.7,1.1-2.2,1.4-3.2,0.7c-7.4-4.8-14.2-12.9-20.4-24
		c-4.6-8.2-7-15-7.1-15.2c-0.4-1.2,0.2-2.6,1.4-3c1.2-0.4,2.6,0.2,3,1.4c0.1,0.3,9.5,26.4,25.6,36.8
		C85.4,152.1,85.8,153.2,85.4,154.2z"/>
	<circle class="st2" cx="89.9" cy="157.5" r="3"/>
</g>
</svg>
