<?xml version="1.0" encoding="utf-8"?>
<!-- Generator: Adobe Illustrator 19.0.0, SVG Export Plug-In . SVG Version: 6.00 Build 0)  -->
<svg version="1.1" xmlns="http://www.w3.org/2000/svg" xmlns:xlink="http://www.w3.org/1999/xlink" x="0px" y="0px"
	 viewBox="0 0 203.5 207" style="enable-background:new 0 0 203.5 207;" xml:space="preserve">
<style type="text/css">
	.st0{fill:#2D2D2D;}
	.st1{fill:#4D4C4B;}
	.st2{fill:#231F20;}
	.st3{fill:#D96F47;}
	.st4{fill:#FCDAD0;}
	.st5{fill:#F9DDC5;}
	.st6{fill:#EC145A;}
	.st7{fill:#62BA47;}
	.st8{fill:#FFFFFF;}
</style>
<g id="Layer_2">
</g>
<g id="kolba_4">
</g>
<g id="kolba_3">
</g>
<g id="kolby">
</g>
<g id="doma">
</g>
<g id="car">
</g>
<g id="butylka_3">
</g>
<g id="butylka_2">
</g>
<g id="butylka_1">
</g>
<g id="vanna_2">
</g>
<g id="sneg">
</g>
<g id="vanna_1">
</g>
<g id="shariki_2">
</g>
<g id="shariki_1">
</g>
<g id="voronka">
</g>
<g id="gradusnik">
</g>
<g id="kolba_2">
</g>
<g id="kolba_1">
</g>
<g id="probirki">
</g>
<g id="lupa">
</g>
<g id="bidon">
</g>
<g id="blank">
</g>
<g id="ticks">
	<path class="st0" d="M164.7,187.4H44c-4.3,0-7.9-3.5-7.9-7.9V24.2c0-4.3,3.5-7.9,7.9-7.9h120.8c4.3,0,7.9,3.5,7.9,7.9v155.4
		C172.6,183.9,169.1,187.4,164.7,187.4z"/>
	<path class="st1" d="M161.3,16.3c6.2,0,11.3,5.1,11.3,11.3v148.6c0,6.2-5.1,11.3-11.3,11.3h-114c-6.2,0-11.3-5.1-11.3-11.3V27.5
		c0-6.2,5.1-11.3,11.3-11.3H161.3 M161.3,9.7h-114c-9.8,0-17.8,8-17.8,17.8v148.6c0,9.8,8,17.8,17.8,17.8h114
		c9.8,0,17.8-8,17.8-17.8V27.5C179.2,17.7,171.2,9.7,161.3,9.7L161.3,9.7z"/>
	<g>
		<path class="st2" d="M153.5,46.7c-26.5-16.1-50.5-14.2-66-9.8c-11,3.1-19.2,7.9-23.8,11c-4.5,1.9-7.6,6.5-7.4,11.7
			c0.3,6.7,6,12,12.7,11.7c2.3-0.1,4.3-0.8,6.1-1.9l0.1,0.1l-0.1,0c1.2-1,30-23.9,65.7-2.2c2.1,1.3,4.5,1.9,6.8,1.8
			c3.9-0.2,7.7-2.2,9.9-5.8C161,57.6,159.2,50.1,153.5,46.7z"/>
		<path class="st3" d="M149.7,40.2c-26.5-16.1-50.5-14.2-66-9.8c-11,3.1-19.2,7.9-23.8,11c-4.5,1.9-7.6,6.5-7.4,11.7
			c0.3,6.7,6,12,12.7,11.7c2.3-0.1,4.3-0.8,6.1-1.9l0.1,0.1l-0.1,0c1.2-1,30-23.9,65.7-2.2c2.1,1.3,4.5,1.9,6.8,1.8
			c3.9-0.2,7.7-2.2,9.9-5.8C157.2,51.2,155.4,43.7,149.7,40.2z"/>
		<path class="st4" d="M64.5,48c-0.1-0.1-0.3-0.2-0.4-0.4c-0.7-0.9-0.6-2.1,0.2-2.9c5.8-4.9,14.2-8.5,24.9-10.9
			c7.9-1.7,14.1-2,14.3-2c1.1-0.1,2.1,0.8,2.1,1.9c0.1,1.1-0.8,2.1-1.9,2.1c-0.2,0-24.1,1.3-36.8,11.9C66.3,48.5,65.3,48.5,64.5,48z
			"/>
		<circle class="st4" cx="60.7" cy="50.8" r="2.6"/>
	</g>
	<g>
		<path class="st2" d="M153.5,80c-26.5-16.1-50.5-14.2-66-9.8c-11,3.1-19.2,7.9-23.8,11c-4.5,1.9-7.6,6.5-7.4,11.7
			c0.3,6.7,6,12,12.7,11.7c2.3-0.1,4.3-0.8,6.1-1.9l0.1,0.1l-0.1,0c1.2-1,30-23.9,65.7-2.2c2.1,1.3,4.5,1.9,6.8,1.8
			c3.9-0.2,7.7-2.2,9.9-5.8C161,91,159.2,83.5,153.5,80z"/>
		<path class="st3" d="M149.7,73.6c-26.5-16.1-50.5-14.2-66-9.8c-11,3.1-19.2,7.9-23.8,11c-4.5,1.9-7.6,6.5-7.4,11.7
			c0.3,6.7,6,12,12.7,11.7c2.3-0.1,4.3-0.8,6.1-1.9l0.1,0.1l-0.1,0c1.2-1,30-23.9,65.7-2.2c2.1,1.3,4.5,1.9,6.8,1.8
			c3.9-0.2,7.7-2.2,9.9-5.8C157.2,84.5,155.4,77.1,149.7,73.6z"/>
		<path class="st4" d="M64.5,81.4c-0.1-0.1-0.3-0.2-0.4-0.4c-0.7-0.9-0.6-2.1,0.2-2.9c5.8-4.9,14.2-8.5,24.9-10.9
			c7.9-1.7,14.1-2,14.3-2c1.1-0.1,2.1,0.8,2.1,1.9c0.1,1.1-0.8,2.1-1.9,2.1c-0.2,0-24.1,1.3-36.8,11.9
			C66.3,81.9,65.3,81.9,64.5,81.4z"/>
		<circle class="st4" cx="60.7" cy="84.2" r="2.6"/>
	</g>
	<g>
		<path class="st2" d="M153.5,114.4c-26.5-16.1-50.5-14.2-66-9.8c-11,3.1-19.2,7.9-23.8,11c-4.5,1.9-7.6,6.5-7.4,11.7
			c0.3,6.7,6,12,12.7,11.7c2.3-0.1,4.3-0.8,6.1-1.9l0.1,0.1l-0.1,0c1.2-1,30-23.9,65.7-2.2c2.1,1.3,4.5,1.9,6.8,1.8
			c3.9-0.2,7.7-2.2,9.9-5.8C161,125.3,159.2,117.8,153.5,114.4z"/>
		<path class="st3" d="M149.7,107.9c-26.5-16.1-50.5-14.2-66-9.8c-11,3.1-19.2,7.9-23.8,11c-4.5,1.9-7.6,6.5-7.4,11.7
			c0.3,6.7,6,12,12.7,11.7c2.3-0.1,4.3-0.8,6.1-1.9l0.1,0.1l-0.1,0c1.2-1,30-23.9,65.7-2.2c2.1,1.3,4.5,1.9,6.8,1.8
			c3.9-0.2,7.7-2.2,9.9-5.8C157.2,118.9,155.4,111.4,149.7,107.9z"/>
		<path class="st4" d="M64.5,115.8c-0.1-0.1-0.3-0.2-0.4-0.4c-0.7-0.9-0.6-2.1,0.2-2.9c5.8-4.9,14.2-8.5,24.9-10.9
			c7.9-1.7,14.1-2,14.3-2c1.1-0.1,2.1,0.8,2.1,1.9c0.1,1.1-0.8,2.1-1.9,2.1c-0.2,0-24.1,1.3-36.8,11.9
			C66.3,116.2,65.3,116.3,64.5,115.8z"/>
		<circle class="st4" cx="60.7" cy="118.6" r="2.6"/>
	</g>
	<g>
		<path class="st5" d="M29.5,121.7v54.4c0,9.8,8,17.8,17.8,17.8h114c9.8,0,17.8-8,17.8-17.8v-54.4H29.5z"/>
		<path class="st6" d="M116.4,146.5c-0.2,0-0.4,0-0.6,0c-1.7-3.8-5.5-6.5-10-6.5c-4.5,0-8.3,2.7-10,6.5c-0.1,0-0.2,0-0.3,0
			c-5.3,0-10.5,5.3-10.5,10.6c0,4.2,3.5,9.9,7.3,11.2c1.2-0.3,3-0.8,5.3-1.2c-2.6-0.9-2.8-2.6-2.8-2.7c0-0.2,0.1-0.4,0.4-0.4
			c0.2,0,0.4,0.1,0.4,0.3c0,0.1,0.3,2,4,2.5c0,0,0.1,0,0.1,0c0.9-0.1,1.8-0.2,2.8-0.3c-0.8-1.1-1.3-3-1.3-3.2c0-0.2,0.1-0.4,0.3-0.5
			c0.2,0,0.4,0.1,0.5,0.3c0.2,0.7,0.7,2.7,1.5,3.3c0,0,0,0,0.1,0.1c2.9-0.1,5.9-0.1,9.4,0.4c0.2-0.1,0.3-0.1,0.4-0.1
			c3.3-0.7,3.5-2.4,3.5-2.5c0-0.2,0.2-0.4,0.4-0.3c0.2,0,0.4,0.2,0.4,0.4c0,0.1-0.2,1.8-2.8,2.8c1.6,0.3,3.3,0.6,5,1.1
			c3.6-1.4,6.9-6.9,6.9-11C126.7,152,121.7,146.5,116.4,146.5z"/>
		<g>
			<circle class="st7" cx="124.1" cy="141.6" r="11.7"/>
			<g>
				<path class="st8" d="M121.2,140c-1,0.1-1.2,1.3-1.3,2.1l0,0v0c0,0.1,0,0.2,0,0.3c0,0.4,0,0.7-0.1,1c0,0.2-0.1,0.5-0.1,0.5
					c-0.4,0-0.6-0.5-0.7-0.7c-0.2-0.6-0.4-1.2-0.5-1.9c-0.1-0.7-0.2-1.4-0.2-2.1c0-0.3,0-0.6,0-0.9c0-0.1,0-0.2,0-0.3
					c0-0.1,0-0.2,0-0.2c0.1-0.5-0.6,0-0.8,0.2c-0.8,1.4-0.5,3-0.5,4.5c0,0.4,0,0.8-0.1,1.2c0,0.3-0.1,0.8-0.3,1
					c-0.1,0.1-0.4,0-0.5,0c-0.2-0.1-0.3-0.3-0.3-0.5c0-0.2-0.3-0.1-0.4,0c-0.2,0.2-0.3,0.5-0.3,0.7c0.1,0.5,0.6,1,1.1,0.8
					c0.9-0.3,1.3-1.3,1.5-2.1c0.1-0.4,0.2-0.8,0.2-1.2c0.1,0.6,0.3,1.2,0.6,1.7c0.2,0.4,0.5,0.8,1,0.7c0.4-0.1,0.6-0.5,0.8-0.9
					c0.2,0.4,0.4,0.7,0.9,0.6c0.5,0,0.9-0.6,1.1-0.9c0.2-0.5,0.3-1,0.3-1.5C122.4,141.3,122.2,139.8,121.2,140z M121.5,143.3
					c0,0.1,0,0.2-0.1,0.3c-0.2,0-0.3-0.3-0.4-0.4c-0.2-0.3-0.2-0.7-0.3-1c0-0.4,0-0.7,0-1.1c0-0.1,0-0.2,0.1-0.3
					c0.5,0.3,0.6,0.9,0.6,1.5C121.6,142.6,121.6,143,121.5,143.3z"/>
				<path class="st8" d="M132.9,141.3c-1-0.4-1.6,1-1.8,1.8c-0.2,0.7-0.4,2,0.5,2.4c0.4,0.2,1-0.1,1.2-0.4c0.3-0.4,0.5-0.8,0.6-1.3
					C133.7,143.1,133.9,141.7,132.9,141.3z M132.3,144.7c0,0.1-0.1,0.2-0.1,0.2c-0.2-0.1-0.2-0.4-0.2-0.6c-0.1-0.4,0-0.7,0-1.1
					c0.1-0.4,0.2-0.7,0.3-1c0-0.1,0.1-0.2,0.1-0.2c0.4,0.5,0.3,1.1,0.2,1.7C132.5,144,132.4,144.4,132.3,144.7z"/>
				<path class="st8" d="M130,141.5c0.2-0.3,0.4-0.5,0.6-0.8c0.4-0.6,0.8-1.3,0.7-2c0-0.7-0.9-0.7-1.4-0.5c-0.7,0.3-1.1,1-1.3,1.7
					c-0.3,0.9-0.4,1.8-0.4,2.8c0,0,0,0,0,0c-0.3,0.4-1,1.2-1.6,0.9c-0.1-0.1-0.2-0.3-0.3-0.4c0.4-0.5,0.8-0.9,1.2-1.4
					c0.3-0.5,0.5-1.3-0.1-1.6c-0.5-0.3-1.2,0-1.5,0.5c-0.3,0.4-0.5,1-0.6,1.5c0,0.3-0.1,0.8,0,1.2c-0.3,0.2-0.7,0.3-1,0.2
					c-0.4-0.1-0.6-0.5-0.6-0.8c-0.1-0.5-0.1-1,0-1.5c0-0.2,0.1-0.3,0.1-0.4c0,0,0-0.1,0-0.1c0.3,0.1,0.4,0.5,0.4,0.7
					c0.1,0.4,1-0.2,0.9-0.5c-0.1-0.4-0.2-0.7-0.6-0.9c-0.4-0.2-0.9,0.1-1.1,0.4c-0.6,0.6-0.7,1.6-0.7,2.4c0,0.5,0.1,1.2,0.6,1.5
					c0.6,0.4,1.5,0,2.1-0.3c0.2,0.4,0.5,0.7,1,0.6c0.6-0.1,1.2-0.4,1.7-0.9c0,0.5,0.1,1,0.5,1.2c0.6,0.3,1.2,0,1.6-0.5
					c0.5-0.6,0.7-1.5,0.5-2.2C130.7,141.7,130.4,141.5,130,141.5z M126.5,141.1c0-0.1,0.1-0.3,0.2-0.4c0,0,0,0,0,0
					c0.3,0.1,0.3,0.4,0.3,0.6c-0.1,0.4-0.3,0.8-0.6,1.1c0-0.1,0-0.1,0-0.2C126.3,141.9,126.4,141.5,126.5,141.1z M129.9,139.2
					c0.1-0.1,0.2-0.3,0.3-0.4c0,0,0,0,0,0c0.4,0.5,0,1.1-0.2,1.5c-0.2,0.4-0.5,0.8-0.8,1.2c0.1-0.4,0.1-0.8,0.2-1.2
					C129.6,139.9,129.7,139.6,129.9,139.2z M129.7,144c0,0-0.1,0.1-0.1,0.2c0,0-0.1,0-0.1,0c-0.3-0.1-0.3-0.7-0.3-0.9
					c0-0.2,0-0.4,0-0.6c0.1-0.1,0.2-0.2,0.3-0.4c0.2-0.2,0.4,0.1,0.4,0.4C130,143.1,129.8,143.6,129.7,144z"/>
			</g>
		</g>
		<g>
			<path class="st7" d="M71.5,149.5c-0.1,0.1,0.3,0.2,0.4,0.3c0,0.1-0.2,0-0.3,0c0,0.1,0.1,0.1,0.2,0.2c0,0-0.1,0-0.1,0.1
				c0.2,0.1,0.3,0.5,0.6,0.6c0.5,0.2,1.2,0.4,1.2,0.5c0.1-0.9-0.3-1.8,0.4-2.6c0-0.1-0.1-0.1-0.1-0.2c0.1,0,0.1,0,0.1,0
				c0-0.2-0.2-0.1-0.1-0.3c0,0,0.1,0,0.2,0c0.1,0-0.1-0.1-0.1-0.2c0-0.1,0.2,0,0.2,0c0-0.1-0.3-0.3-0.3-0.5c0.2,0.1,0.3,0.2,0.4,0.3
				c-0.1-0.2-0.3-0.3-0.3-0.6c0.2,0.1,0.3,0.3,0.5,0.4c-0.1-0.3-0.3-0.4-0.4-0.7c0.3,0.1,0.4,0.4,0.6,0.6c-0.1-0.4-0.4-0.8-0.4-1.2
				c0.3,0.3,0.4,0.7,0.6,1.1c0-0.4-0.3-0.9-0.2-1.5c0.2,0.4,0.3,1,0.5,1.4c0.1-0.5-0.3-1.2-0.1-1.8c0.2,0.5,0.2,1.1,0.4,1.6
				c0-0.5-0.1-1.3,0-1.8c0.2,0.5,0.2,1.2,0.3,1.8c0.1-0.4-0.1-1.3,0.2-1.6c0,0.5,0,0.9,0,1.4c0,0.8,0.4,1.5,0.1,2.2
				c-0.3,0.7-0.8,1.3-0.8,2.3c1.1,0.3,1.4,0.3,2.3,0.3c0.4,0,0.7-0.2,1.1-0.1c0.1,0,0.2,0.2,0.3,0.2c0.3,0.1,0.5,0.1,0.8,0.1
				c-0.5,0.1-1.3,0.2-1.4,0.2c-0.2,0-0.9-0.1-0.4-0.1c0.3,0,0.6,0,0.6-0.1c0-0.3-0.5-0.1-0.8,0c-0.9,0.1-1.4,0.3-3,0
				c0.4,0,0.4-0.3,0.4-0.5c-0.1-1.2,0.1-1.5,0.5-2c0.6-1-0.2-1-0.4-1.4c-0.1,0.1,0,0.4,0,0.5c-0.1-0.1-0.2-0.4-0.4-0.5
				c-0.1,0.1,0.1,0.3,0.1,0.5c-0.1-0.1-0.2-0.2-0.3-0.3c-0.1,0.1,0.1,0.3,0.1,0.4c-0.1,0-0.2-0.2-0.3-0.2c-0.1,0.1,0.1,0.1,0,0.3
				c-0.1,0-0.1-0.1-0.2,0c0,0.1,0,0.2,0.1,0.2c0,0.1-0.1,0-0.1,0c-0.1,0,0,0.1,0,0.2c-0.8-0.1-0.2,2.4-0.8,3.3
				c0.4,0.3,1.4,0.2,1.9,0.1c-0.7,0.5-1.4,0.3-2.2,0.4c-0.1,0-0.2,0.1-0.3,0.1c-0.4,0.1-0.9,0.3-1.4,0.4c-0.5,0.2-1.9,0.5-2.1,0.5
				c3.7-1.3,3.1-1.5,3.4-1.7c-0.6-0.2-0.8-0.9-1.2-1.1c0,0,0-0.1,0.1-0.1c0-0.1-0.1,0-0.2,0c0-0.1,0-0.1,0.1-0.1
				c0-0.1-0.2,0-0.3-0.1c0-0.1,0.1-0.1,0.2-0.1c-0.1-0.1-0.3-0.1-0.4-0.2c0.1-0.1,0.2-0.1,0.4-0.1c-0.1-0.1-0.4-0.1-0.5-0.3
				c0.2,0,0.4,0,0.5,0c-0.2-0.2-0.6-0.2-0.7-0.5c0.3,0,0.5,0.1,0.7,0.2c-0.3-0.2-0.7-0.3-0.8-0.7c0.3,0.2,0.6,0.3,0.9,0.5
				c-0.1-0.3-0.7-0.5-0.9-0.8c0.4,0,0.7,0.4,1.1,0.6c-0.2,0-0.6-0.3-0.8-0.4c0.1,0.3,0.6,0.5,0.9,0.7c-0.2,0.1-0.5-0.1-0.7-0.2
				c0,0.2,0.4,0.4,0.6,0.5C71.9,149.7,71.7,149.6,71.5,149.5"/>
			<path class="st7" d="M74.7,143c-4.1,0-7.4,3.3-7.4,7.4c0,4.1,3.3,7.4,7.4,7.4c4.1,0,7.4-3.3,7.4-7.4
				C82.1,146.3,78.8,143,74.7,143 M74.7,143.2c3.9,0,7.1,3.2,7.1,7.1c0,3.9-3.2,7.1-7.1,7.1c-3.9,0-7.1-3.2-7.1-7.1
				C67.6,146.4,70.8,143.2,74.7,143.2"/>
		</g>
		<g>
			<g>
				<g>
					<path class="st8" d="M90.2,162.9c0.8,1.5,2.5,0.2,2.6-1.1c0.2-1.9-1-3.8-1.9-5.4c-0.1-0.2-0.4,0.1-0.5,0.1
						c-0.9,0.9-2,2.4-1.3,3.4c0.2,0.3,0.9-0.7,0.7-1c-0.3-0.5,0.4-1.3,0.8-1.7c-0.1,0-0.3,0.1-0.5,0.1c0.4,0.6,0.8,1.3,1.2,2
						c0.2,0.4,0.3,0.8,0.5,1.2c0.1,0.3,0.2,0.5,0.3,0.8c-0.3,1.3-0.7,1.5-1.2,0.7C90.7,161.6,90,162.6,90.2,162.9L90.2,162.9z"/>
					<path class="st8" d="M95.2,160.9c-0.3,0.8-0.8-0.7-0.9-0.9c-0.1-0.3-0.3-0.6-0.5-0.8c-0.5-0.4-1.1-0.2-1.7,0.2
						c0.1,0,0.2,0,0.4,0c-0.3-0.8-0.8-2.9,0.9-2.1c0.4,0.2,1-0.8,0.6-1c-1-0.5-1.7-0.1-2.3,0.8c-0.6,1-0.3,2.2,0.1,3.1
						c0.1,0.2,0.2,0.1,0.4,0c1.4-1.1,1.5,1.2,2.3,1.8c0.6,0.5,1.2-0.9,1.3-1.3C96,160.2,95.3,160.4,95.2,160.9L95.2,160.9z"/>
				</g>
				<path class="st8" d="M98.7,160.5c0.3,0.9,1.4,0.6,1.8-0.1c0.3-0.5,0.3-1.1,0.3-1.6c0-0.8,0-1.7,0.3-2.5c-0.3,0.2-0.6,0.3-1,0.5
					c0.2,1.1,0.3,3.1,1.3,3.9c0.7,0.6,1.7-0.8,1.9-1.2c0.3-0.7-0.6-0.2-0.8,0.1c-0.3,0.8-0.8-0.4-0.9-0.6c-0.3-0.9-0.5-1.9-0.6-2.8
					c-0.1-0.5-0.9,0.3-1,0.5c-0.2,0.6-0.3,1.1-0.3,1.7c0,0.3,0,0.7,0,1c0,0.2,0,0.4,0,0.5c0,0.5-0.3,0.2-0.4,0
					C99.3,159.4,98.6,160.2,98.7,160.5L98.7,160.5z"/>
				<path class="st8" d="M105.9,156.1c0.1,1.3,0.2,2.7,0.1,4c0,0.5,0.8-0.2,0.8-0.5c0.1-0.8,0.3-1.2,0.8-1.7
					c0.6-0.6,0.9-1.3,1.2-2.1c0.2-0.6-0.8-0.1-0.9,0.2c-0.4,1-0.4,2.2-0.4,3.3c0,0.3,0,0.7,0.3,0.9c0.4,0.3,1-0.2,1.3-0.4
					c0.5-0.4,0.1-0.8-0.4-0.4c-0.4,0.3-0.4-1.3-0.3-1.5c0-0.7,0.1-1.5,0.4-2.2c-0.3,0.1-0.6,0.1-0.9,0.2c-0.2,0.8-0.5,1.3-1.1,1.9
					c-0.6,0.6-0.7,1.4-0.8,2.1c0.3-0.2,0.6-0.3,0.8-0.5c0.1-1.3,0-2.7-0.1-4C106.8,155.1,105.9,155.8,105.9,156.1L105.9,156.1z"/>
				<g>
					<path class="st8" d="M112.5,160c-0.1,1,0.8,1.3,1.7,0.9c0.8-0.5,1.1-1.3,1.3-2.2c0.1-0.7,0.3-1.7-0.4-2.2
						c-0.3-0.2-0.9-0.1-1.2,0.1c-0.7,0.3-1,0.9-1.1,1.4c-0.1,0.5,1,0,1.1-0.3c0.1-0.6,0.4-0.6,0.6-0.1c0.1,0.4,0.1,0.7,0.1,1.1
						c0,0.4-0.1,0.9-0.3,1.2c-0.1,0.1-0.1,0.3-0.3,0.4c0.1-0.1,0-0.1-0.1-0.1c-0.3-0.1-0.3-0.4-0.3-0.6
						C113.5,159.2,112.5,159.6,112.5,160L112.5,160z"/>
					<path class="st8" d="M112.8,156.1c0,2.5-0.5,5-1.1,7.4c-0.1,0.5,0.8,0,0.9-0.3c0.7-2.4,1.3-5,1.3-7.6
						C113.9,155.3,112.8,155.7,112.8,156.1L112.8,156.1z"/>
				</g>
				<g>
					<path class="st8" d="M121.6,159c-0.5,0.8-0.9,1.8-1.2,2.7c-0.1,0.4-0.2,1,0.1,1.3c0.4,0.5,1.2,0.3,1.7,0.1
						c0.7-0.3,0-0.6-0.5-0.4c-0.3,0.1-0.3-0.8-0.3-0.8c0.1-0.4,0.2-0.9,0.4-1.3c0.2-0.6,0.5-1.1,0.9-1.6
						C123,158.6,121.8,158.8,121.6,159L121.6,159z"/>
					<path class="st8" d="M118.5,161.8c0,0.8,0.8,0.9,1.4,0.7c0.9-0.3,1.5-1.1,1.9-1.8c0.2-0.4-0.9-0.2-1.1,0.1c-0.1,0.2,0,0,0.1,0
						c-0.1,0-0.1-0.1-0.2-0.1c-0.2-0.1-0.2-0.3-0.2-0.5c0-0.3,0.2-0.7,0.4-0.9c0.3-0.5,0.5,0.2,0.4,0.5c-0.2,0.5,1,0.3,1.1,0
						c0.3-0.7-0.2-1.3-1-1.3c-1,0-1.7,0.9-1.9,1.7c-0.4,1.6,1.7,1.7,2.4,0.6c-0.4,0-0.7,0-1.1,0.1c-0.2,0.4-0.4,0.7-0.7,1.1
						c-0.3,0.3-0.6,0-0.6-0.3C119.5,161.1,118.5,161.4,118.5,161.8L118.5,161.8z"/>
				</g>
				<path class="st8" d="M105.8,159.5c-0.5,0.5-0.7-1.3-0.7-1.4c-0.1-0.8-0.1-1.5-0.1-2.3c0-0.5-0.9,0.2-0.9,0.5c0,0.7,0,1.3,0,2
					c0,0.3,0,0.7-0.1,1c-0.1,0.4,0,0.5-0.4,0.3c-0.9-0.5-0.6-2.7-0.4-3.5c0.1-0.6-0.8,0-0.9,0.4c-0.2,0.8-0.4,4.4,1.2,4.1
					c1.9-0.4,1.5-3.5,1.5-4.8c-0.3,0.2-0.6,0.3-0.9,0.5c0,1.2,0,2.4,0.4,3.5c0.3,1,1.1,0.6,1.7,0C106.7,159.4,106.3,159,105.8,159.5
					L105.8,159.5z"/>
				<path class="st8" d="M118.5,161.3c-0.6,0.3-0.2-1.5-0.2-1.6c0.2-0.7,0.4-1.4,0.7-2.2c0.2-0.5-0.9-0.1-1,0.2
					c-0.2,0.6-0.4,1.2-0.7,1.8c-0.1,0.3-0.3,0.6-0.4,0.9c-0.2,0.3-0.2,0.4-0.4,0.2c-0.6-0.8,0.3-2.7,0.8-3.4c0.3-0.5-0.8-0.3-0.9,0
					c-0.4,0.7-1.9,4-0.3,4.2c1.9,0.3,2.5-2.8,3-4c-0.3,0.1-0.7,0.1-1,0.2c-0.4,1.1-0.8,2.3-0.8,3.5c0,1,0.9,0.9,1.6,0.6
					C119.4,161.5,119.1,161.1,118.5,161.3L118.5,161.3z"/>
				<path class="st8" d="M112.1,156.7c0.1-1.3-1.8-0.8-2.3-0.2c-0.7,0.8-0.9,2-0.8,3c0.1,1,0.8,1.3,1.7,0.7
					C111.8,159.5,111.8,157.8,112.1,156.7c-0.4,0.1-0.7,0.2-1.1,0.3c-0.1,0.7-1,4.5,1.1,3.6c0.5-0.2,0.6-0.9-0.1-0.6
					c-0.2,0.1-0.2-1.1-0.2-1.1C111.8,158.2,111.9,157.4,112.1,156.7c0.1-0.5-1,0-1.1,0.3c-0.1,0.7-0.2,1.4-0.4,2
					c-0.1,0.2-0.2,0.7-0.3,0.7c-0.2,0-0.3-0.3-0.3-0.4c-0.2-0.5-0.1-1,0-1.5c0-0.3,0.1-0.5,0.3-0.8c0.1-0.1,0.1-0.3,0.2-0.4
					c0.2-0.2,0.5,0.3,0.5,0.4C111,157.5,112.1,157,112.1,156.7L112.1,156.7z"/>
				<g>
					<path class="st8" d="M94.8,157.7c0.3,0.8,0.5,4.4,1.9,3.8c1.7-0.7,1-3.7,0.8-5c0-0.5-0.9,0.3-0.8,0.7c0.1,0.9,0.2,1.7,0.3,2.6
						c0,0.3,0.1,1-0.3,0.8c-0.5-0.2-0.6-1.3-0.7-1.7c-0.1-0.6-0.2-1.3-0.4-1.9C95.5,156.6,94.7,157.4,94.8,157.7L94.8,157.7z"/>
					<path class="st8" d="M96.8,157.2c0.4,1.7,0.8,3.3,1.3,5c0.1,0.4,0.5,2-0.1,1.9c-1.1-0.1,0.1-2.9,0.3-3.2c0.3-0.6-0.4-0.5-0.6,0
						c-0.6,1.1-1.1,2.6-0.5,3.8c0.2,0.5,0.9,0.5,1.2,0.1c0.6-0.7,0.7-1.7,0.5-2.7c-0.2-1.8-0.9-3.7-1.2-5.5
						C97.5,156.1,96.7,156.9,96.8,157.2L96.8,157.2z"/>
				</g>
				<path class="st8" d="M114.2,157c0.8,0.8,1.8,1,2.7,0.5c0.1-0.1,0.4-0.2,0.3-0.4c-0.1-0.2-0.4,0-0.5,0c-0.6,0.3-1.3-0.2-1.7-0.6
					C114.8,156.3,114,156.8,114.2,157L114.2,157z"/>
			</g>
		</g>
		<g>
			<path class="st6" d="M119.8,177.4v-8.2c-12.8-3.6-23.8-1.1-27.4,0v8.5C96,176.5,106.9,174,119.8,177.4z"/>
			<path class="st6" d="M93.7,178.1c2,0.6,6.4,1.6,12.2,1.6c5.9,0,10.5-1.2,12.6-1.8C107.3,175.2,97.8,176.9,93.7,178.1z"/>
		</g>
	</g>
	<path class="st8" d="M52.6,73.9H51c-2,0-3.6-1.6-3.6-3.6v-26c0-2,1.6-3.6,3.6-3.6h1.6c2,0,3.6,1.6,3.6,3.6v26
		C56.2,72.2,54.6,73.9,52.6,73.9z"/>
	<circle class="st8" cx="51.8" cy="31" r="4.7"/>
</g>
</svg>
