<?xml version="1.0" encoding="utf-8"?>
<!-- Generator: Adobe Illustrator 19.0.0, SVG Export Plug-In . SVG Version: 6.00 Build 0)  -->
<svg version="1.1" xmlns="http://www.w3.org/2000/svg" xmlns:xlink="http://www.w3.org/1999/xlink" x="0px" y="0px"
	 viewBox="0 0 325.5 298.5" style="enable-background:new 0 0 325.5 298.5;" xml:space="preserve">
<style type="text/css">
	.st0{fill:#519E38;}
	.st1{fill:#F4F4F4;}
	.st2{fill:#D6D6D6;}
	.st3{fill:#EAEAEA;}
	.st4{fill:#FFFFFF;}
	.st5{fill-rule:evenodd;clip-rule:evenodd;fill:#904720;}
	.st6{fill-rule:evenodd;clip-rule:evenodd;fill:#EDA820;}
	.st7{fill:#E90E8A;}
	.st8{fill:#62BA47;}
	.st9{fill-rule:evenodd;clip-rule:evenodd;fill:#E90E8A;}
	.st10{fill-rule:evenodd;clip-rule:evenodd;fill:#62BA47;}
	.st11{fill:#62BA46;}
	.st12{fill:#F5A3BD;}
	.st13{fill-rule:evenodd;clip-rule:evenodd;fill:#F5A3BD;}
</style>
<g id="Layer_2">
</g>
<g id="kolba_4">
</g>
<g id="kolba_3">
</g>
<g id="kolby">
</g>
<g id="doma">
</g>
<g id="car">
</g>
<g id="butylka_3">
</g>
<g id="butylka_2">
	<g>
		<path class="st0" d="M151.3,239.8c0,0,0-63.1,0-97.4C151.3,108.1,137,95,137,95c3.8-21.2-6.4-27.6-6.4-27.6v-7.7h2.2
			c0,0,0-8.2,0-10.9c0-2.7-3.8-2.4-3.8-2.4h-14h-1.3h-14c0,0-3.8-0.3-3.8,2.4c0,2.7,0,10.9,0,10.9h2.3v7.7h-0.1
			c0,0-10.2,6.4-6.4,27.6c0,0-14.2,13.1-14.2,47.4c0,34.3,0,97.4,0,97.4s-1.5,20.9,14,20.9c4.2,0,7.7,0,10.6,0c7.9,0,11.5,0,11.5,0
			h0.7h0.8h0.1h11.4h0.1c2.9,0,6.4,0,10.5,0c0,0,0,0,0.1,0C152.7,260.7,151.3,239.8,151.3,239.8z"/>
		<path class="st1" d="M143.8,234.9c0,0,0-63.1,0-97.4c0-34.3-14.2-47.4-14.2-47.4c3.8-21.2-6.4-27.6-6.4-27.6v-7.8H90.9v7.8h-0.1
			c0,0-10.2,6.4-6.4,27.6c0,0-14.2,13.1-14.2,47.4c0,34.3,0,97.4,0,97.4s-1.5,20.9,14,20.9c4.2,0,7.7,0,10.6,0c7.9,0,11.5,0,11.5,0
			h1.6h11.5c2.9,0,6.4,0,10.6,0C145.2,255.8,143.8,234.9,143.8,234.9z"/>
		<path class="st2" d="M121.5,41.5h-14h-1.3h-14c0,0-3.8-0.3-3.8,2.4c0,2.7,0,10.9,0,10.9h17.7h1.3h17.7c0,0,0-8.2,0-10.9
			C125.3,41.2,121.5,41.5,121.5,41.5z"/>
		<path class="st3" d="M143.7,234.9c0,0,0-63.1,0-97.4c0-34.3-14.2-47.4-14.2-47.4c3.8-21.2-6.4-27.6-6.4-27.6v-7.8h-16.2v201.2h0.8
			h11.5c2.9,0,6.4,0,10.6,0C145.2,255.8,143.7,234.9,143.7,234.9z"/>
		<path class="st4" d="M82.1,126.2c-0.2,0-0.4,0-0.5,0c-2.2-0.3-3.8-2.3-3.5-4.6c1.8-14.1,8.6-22.6,8.9-23c1.4-1.8,4-2,5.7-0.6
			c1.7,1.4,2,4,0.6,5.7c-0.1,0.1-5.7,7.3-7.2,18.9C85.9,124.7,84.1,126.2,82.1,126.2z"/>
	</g>
	<g>
		<path class="st0" d="M275.9,239.8c0,0,0-63.1,0-97.4c0-34.3-14.2-47.4-14.2-47.4c3.8-21.2-6.4-27.6-6.4-27.6v-7.7h2.2
			c0,0,0-8.2,0-10.9c0-2.7-3.8-2.4-3.8-2.4h-14h-1.3h-14c0,0-3.8-0.3-3.8,2.4c0,2.7,0,10.9,0,10.9h2.3v7.7h-0.1
			c0,0-10.2,6.4-6.4,27.6c0,0-14.2,13.1-14.2,47.4c0,34.3,0,97.4,0,97.4s-1.5,20.9,14,20.9c4.2,0,7.7,0,10.6,0c7.9,0,11.5,0,11.5,0
			h0.7h0.8h0.1h11.4h0.1c2.9,0,6.4,0,10.5,0c0,0,0,0,0.1,0C277.4,260.7,275.9,239.8,275.9,239.8z"/>
		<path class="st1" d="M268.5,234.9c0,0,0-63.1,0-97.4c0-34.3-14.2-47.4-14.2-47.4c3.8-21.2-6.4-27.6-6.4-27.6v-7.8h-32.3v7.8h-0.1
			c0,0-10.2,6.4-6.4,27.6c0,0-14.2,13.1-14.2,47.4c0,34.3,0,97.4,0,97.4s-1.5,20.9,14,20.9c4.2,0,7.7,0,10.6,0c7.9,0,11.5,0,11.5,0
			h1.6h11.5c2.9,0,6.4,0,10.6,0C269.9,255.8,268.5,234.9,268.5,234.9z"/>
		<path class="st2" d="M246.2,41.5h-14H231h-14c0,0-3.8-0.3-3.8,2.4c0,2.7,0,10.9,0,10.9H231h1.3H250c0,0,0-8.2,0-10.9
			C250,41.2,246.2,41.5,246.2,41.5z"/>
		<path class="st3" d="M268.4,234.9c0,0,0-63.1,0-97.4c0-34.3-14.2-47.4-14.2-47.4c3.8-21.2-6.4-27.6-6.4-27.6v-7.8h-16.2v201.2h0.8
			h11.5c2.9,0,6.4,0,10.6,0C269.8,255.8,268.4,234.9,268.4,234.9z"/>
		<path class="st4" d="M206.8,126.2c-0.2,0-0.4,0-0.5,0c-2.2-0.3-3.8-2.3-3.5-4.6c1.8-14.1,8.6-22.6,8.9-23c1.4-1.8,4-2,5.7-0.6
			c1.7,1.4,2,4,0.6,5.7c-0.1,0.1-5.7,7.3-7.2,18.9C210.5,124.7,208.8,126.2,206.8,126.2z"/>
	</g>
	<g>
		<g>
			<path class="st5" d="M131.6,177.6l-0.1,0.2C131.5,177.7,131.5,177.7,131.6,177.6L131.6,177.6z M132.9,177.1L132.9,177.1l-0.2,0.3
				C132.8,177.3,132.9,177.2,132.9,177.1L132.9,177.1z M138,177.9L138,177.9c0,0,1.1,0.2,1.9,0.8c-0.5-0.4-1.3-0.8-2.1-0.9
				c-0.7-0.2-1.2-0.3-1.6-0.2c0.4-0.2,0.6-0.3,0.8-0.3c0.6,0,1.1,0.2,1.8,0.6c-0.6-0.4-1.6-0.7-2.4-0.7c-0.4-0.1-0.8-0.1-1.2,0.1
				l0.8-0.5c0.5,0,1.1,0,1.8,0.3c-0.5-0.2-1.3-0.4-2-0.4c-0.8-0.1-1.4,0.1-1.9,0.5l0.7-0.7c0.5-0.1,1-0.1,1.8-0.1
				c-0.7-0.1-1.6-0.1-2.3,0.1c-0.6,0.2-1,0.3-1.3,0.6l0.4-0.6c0.6-0.3,1.8-0.5,2.3-0.5c-1.2-0.1-3.1,0.6-3.3,0.8
				c-0.4,0.2-0.6,0.5-0.8,0.8l0.4-0.8c0.6-0.4,1.3-0.7,2.3-0.8c-0.8,0.1-1.6,0.3-2.4,0.7c-0.8,0.4-1.3,0.9-1.5,1.6l0.2-0.9
				c0.5-0.5,1.3-1,2.3-1.3c-1,0.2-2,0.8-2.7,1.5c-0.3,0.4-0.6,0.7-0.6,1.1c0-0.2-0.1-0.3-0.1-0.3c0.2-0.3,1.2-1.4,2.2-2
				c-1.4,0.8-2.1,1.6-2.4,2.1c-0.5,0.7-0.5,1.4,0,2c0.4,0.3,0.9,0.3,1.6-0.1c0.6-0.1,1.2-0.1,2.1,0c-0.6-0.2-1.3-0.2-2-0.2l-0.1,0
				c0.3,0,0.6-0.1,1-0.3c0.5,0,1.1,0.1,1.7,0.4c-0.4-0.2-1.1-0.4-1.7-0.5l-0.3-0.1c0.4,0.1,0.8,0.2,1.3,0.1c0.4,0.1,1,0.2,1.4,0.2
				c-0.6-0.1-1-0.2-1.4-0.3l-0.7-0.5c0.6,0.3,1.1,0.3,1.8,0.3c0.4,0.1,0.9,0.3,1.3,0.5c-0.3-0.2-0.8-0.5-1.3-0.6l-0.6-0.4
				c0.4,0.2,0.9,0.3,1.4,0.5c0,0,0.7,0.2,1.2,0.5c-0.3-0.3-0.8-0.5-1.3-0.7l-0.3-0.4l0.2,0.1c0.3,0.2,0.6,0.3,1,0.3
				c0.3,0.1,0.6,0.3,1,0.6c-0.3-0.2-0.6-0.4-0.9-0.6l-0.3-0.5c0.5,0.3,1.1,0.6,1.8,0.8c0.3,0.2,0.6,0.4,0.9,0.6
				c-0.2-0.2-0.5-0.4-0.8-0.6c-0.1-0.2-0.3-0.4-0.5-0.6c0.3,0.2,0.9,0.4,1.7,0.7l0,0c0.3,0.2,0.6,0.4,0.9,0.6
				c-0.3-0.3-0.6-0.5-1-0.7l-0.6-0.6l0.2,0.1c0.6,0.1,1.1,0.4,1.7,0.9c-0.4-0.4-1-0.8-1.6-1c0.4,0.1,0.9,0.1,1.4,0.1
				c0.6,0.1,1.1,0.4,1.7,0.9c-0.3-0.4-0.9-0.7-1.5-1c-0.7-0.4-1.4-0.7-2-0.8L138,177.9z"/>
			<path class="st6" d="M131.6,179.8c-0.8-0.3-1.5-0.4-1.7-0.1C130.2,180.1,130.5,180.1,131.6,179.8L131.6,179.8z M132.6,179.6
				L132.6,179.6c-0.8-0.7-1.6-0.9-1.9-0.7C130.8,179.4,131.5,179.5,132.6,179.6L132.6,179.6z M133.6,179.3L133.6,179.3
				c-0.8-0.7-1.7-1-2-0.8C131.7,179,132.5,179.2,133.6,179.3L133.6,179.3z M134.3,179.2L134.3,179.2c-0.6-0.8-1.3-1.2-1.7-1.1
				C132.6,178.6,133.3,178.8,134.3,179.2L134.3,179.2z M135.3,179.1L135.3,179.1c-0.6-0.8-1.1-1.2-1.5-1
				C133.7,178.4,134.3,178.7,135.3,179.1L135.3,179.1z M135,178.2L135,178.2c0.1,0.3,0.6,0.6,1.7,1
				C135.9,178.4,135.4,178.1,135,178.2L135,178.2z M135.9,178.2L135.9,178.2c0.1,0.3,0.8,0.7,2,1.1
				C137,178.5,136.4,178.1,135.9,178.2L135.9,178.2z M135.7,178L135.7,178c0.3,0.2,1,0.1,2.1-0.1C136.6,177.7,135.9,177.7,135.7,178
				L135.7,178z M134.7,178L134.7,178c0.2-0.1,0.4-0.2,0.5-0.2c-0.1,0-0.2,0.1-0.3,0.2c0.8-0.1,1.2-0.6,1.8-0.8
				C135.6,177.1,134.8,177.3,134.7,178L134.7,178z M133.9,177.8L133.9,177.8c0.1-0.1,0.4-0.3,0.5-0.3c-0.1,0.1-0.3,0.2-0.4,0.4
				c0.6-0.1,1-0.7,1.8-1.1C134.7,176.8,133.8,177.2,133.9,177.8L133.9,177.8z M132.8,177.9L132.8,177.9c0.1-0.2,0.4-0.3,0.5-0.3
				c-0.1,0.1-0.3,0.2-0.4,0.4c0.5-0.2,1-0.9,1.7-1.4C133.4,176.7,132.6,177.3,132.8,177.9L132.8,177.9z M131.7,178.3L131.7,178.3
				c0.1-0.2,0.3-0.4,0.4-0.4c-0.1,0.1-0.2,0.3-0.2,0.5c0.5-0.3,0.7-1,1.3-1.7C132,177,131.3,177.8,131.7,178.3L131.7,178.3z
				 M131.7,177L131.7,177c-0.9,0.5-1.5,1.2-1.2,1.9c0.2-0.4,0.4-0.7,0.6-0.8c-0.2,0.2-0.3,0.5-0.4,0.8
				C131.3,178.5,131.2,177.8,131.7,177L131.7,177z M130.4,177.5L130.4,177.5c-0.8,0.5-1,1.2-0.7,2c0.1-0.1,0.2-0.5,0.3-1
				c0,0.5,0,0.9-0.1,1.1C130.5,179.2,130,178.1,130.4,177.5L130.4,177.5z M129.4,178.5L129.4,178.5c-0.5,0.7-0.6,1.3-0.1,1.8
				C130,180,129.5,179.3,129.4,178.5L129.4,178.5z M130.7,180.2L130.7,180.2c-0.8-0.2-1.2-0.1-1.3,0.2
				C129.6,180.5,129.7,180.7,130.7,180.2L130.7,180.2z M136.7,178.2L136.7,178.2c0.3,0.2,1,0.5,2.3,0.5
				C137.8,178.3,137.2,178.1,136.7,178.2L136.7,178.2z"/>
			<path class="st5" d="M119.6,179.5c0.6,0.3,1,0.7,1.4,1.2c1.7,2.6,2.4,4.2,2.7,4.5c0.2,0.4-0.2,0.9-1,1.4
				c-0.4,0.2-3.3-1.9-7.7-4.3l0-1c1.6,0.5,3.1,1.3,4.4,2.3c1.6,1.2,2.8,1.9,3.4,2.1c0.1-0.3-0.4-1.4-1.6-3.4
				c-0.3-0.6-0.5-1.1-0.6-1.5C120.4,180.4,120.1,179.9,119.6,179.5L119.6,179.5z"/>
			<path class="st6" d="M122.9,185.7l0,0.2c-0.5,0-1.5-0.5-3-1.4c1.3,0.9,2.3,1.4,2.9,1.5c-0.2,0.2-0.8,0-1.7-0.5
				c0.8,0.5,1.3,0.7,1.6,0.7c0,0.1,0,0.1-0.1,0.2c-0.6,0-3.2-1.7-7.6-4.3l0-0.6c2.4,0.7,3.4,1.7,4.6,2.5
				C121.2,185,122.3,185.8,122.9,185.7L122.9,185.7z M120.1,179.9L120.1,179.9c1,0.8,1.3,1.8,2.2,3.2c0.6,1,1,1.8,1.3,2.2
				c0,0.4-0.2,0.7-0.7,0.9c0.4-0.4-0.3-1.8-1-2.9C121,181.7,121.2,181.1,120.1,179.9L120.1,179.9z"/>
			<path class="st5" d="M129.6,173.3c0.6-1.8,1.3-2.7,1.9-3.5c-0.9,1.5-1.2,1.9-1.6,3l0,0.5c0-0.3,0.1-0.6,0.3-0.9
				c0.6-1.8,1.5-2.7,2.1-3.5c-0.9,1.5-1.3,1.9-1.7,3l0.1,0.4c0.1-0.5,0.3-0.9,0.5-1.2c0.8-1.7,1.5-2.2,2.2-3c-1.1,1.5-1.6,1.9-2,3.1
				l0.1,0.4c0.1-0.5,0.2-0.7,0.4-1c1-1.8,1.8-2.3,2.5-3.1c-1.2,1.5-1.7,1.8-2.3,3c0,0.1,0.1,0.2,0.1,0.3c0.1-0.5,0.4-1,0.8-1.5
				c0.5-0.6,1.5-1.7,2.5-2.7c-1.2,1.3-2.2,2.5-2.4,2.9l0,0.2c0.2-0.4,0.5-0.7,0.7-0.9c0.4-0.5,1.4-1.5,2.5-2.6
				c-1.1,1.2-2.2,2.4-2.5,2.7l0,0.5c0.4-0.4,0.9-0.7,1.4-1c0.5-0.4,1.4-1.4,2.4-2.5c-0.8,1-1.7,2-2.3,2.5c-0.2,0.6-0.5,1.1-0.9,1.6
				c0.1,0,0.3,0,0.5-0.1c0.4-0.3,1.5-1.4,2.5-2.6c-1,1.2-2.2,2.5-2.6,2.9c-0.2,0.2-0.4,0.5-0.7,0.7l0.3,0c0.3-0.2,1.1-1,2.3-2
				c-0.9,1-1.8,1.8-2.3,2.2c-0.2,0.2-0.4,0.4-0.8,0.6l0.4,0c0.4-0.3,1.1-1,2.1-1.9c-1,1-1.8,1.8-2.3,2.2c-0.2,0.2-0.5,0.4-0.8,0.6
				l0.4,0c0.4-0.3,1.1-0.8,2-1.5c-0.9,0.8-1.6,1.4-2.2,1.8c-0.3,0.2-0.6,0.4-0.9,0.6l0.4,0c0.4-0.2,1.1-0.7,2-1.4
				c-0.8,0.7-1.5,1.2-2.1,1.6c-0.3,0.3-0.5,0.5-0.9,0.8l0.1,0.1c0.5-0.3,1.3-0.8,2.1-1.4c-0.9,0.8-1.6,1.3-2.2,1.7
				c-0.2,0.2-0.4,0.4-0.7,0.5l0.2,0c0.4-0.2,1.1-0.7,2.1-1.4c-0.9,0.8-1.6,1.4-2.3,1.7c-0.9,0.9-1.7,1.3-2.6,1.1
				c-0.5-0.7-0.5-1.5,0-2.5c0.7-2,1.4-2.8,2-3.6c-0.9,1.5-1.2,2-1.6,3.1l0.1,0.4C129.3,173.9,129.5,173.6,129.6,173.3L129.6,173.3z"
				/>
			<path class="st6" d="M134,172.1c-0.7,0.7-1,0.9-2,0.7c0.2-0.1,0.2-0.2,0.8-0.4c-0.6,0-0.6,0.1-0.8,0.2
				C132.7,171.8,133.2,172.2,134,172.1L134,172.1z M131.1,175.8L131.1,175.8c-0.6,0.9-1.1,1.2-2.1,1.2c0.1-0.2,0.5-0.4,1.2-0.7
				c-0.6,0.2-1,0.4-1.2,0.5C129.5,175.7,130.3,176,131.1,175.8L131.1,175.8z M131.8,175L131.8,175c-0.7,0.7-1.1,1-2.1,0.7
				c0.2-0.1,0.6-0.4,1.3-0.5c-0.6,0-1.1,0.2-1.3,0.3C130.5,174.6,131,175,131.8,175L131.8,175z M132.6,174L132.6,174
				c-0.7,0.7-1.1,1-2.1,0.7c0.2-0.1,0.6-0.4,1.3-0.5c-0.6,0-1.1,0.2-1.3,0.3C131.3,173.7,131.8,174.1,132.6,174L132.6,174z
				 M133.3,173.1L133.3,173.1c-0.7,0.7-1.1,1-2.1,0.7c0.2-0.1,0.4-0.3,1-0.4c-0.6,0-0.8,0.1-1.1,0.2
				C132,172.7,132.6,173.1,133.3,173.1L133.3,173.1z M134.3,171.3L134.3,171.3c-0.7,0.7-0.9,0.8-1.8,0.6c0.1-0.1,0.1-0.2,0.8-0.3
				c-0.6,0-0.6,0-0.8,0.1C133.1,171.2,133.6,171.4,134.3,171.3L134.3,171.3z M134.8,170.4L134.8,170.4c-0.5,0.7-0.6,0.9-1.5,0.9
				c0.1-0.1,0.1-0.2,0.6-0.4c-0.5,0.1-0.5,0.1-0.7,0.2C133.6,170.4,134.1,170.5,134.8,170.4L134.8,170.4z M129.1,174.3L129.1,174.3
				c0.1,0.8,0.5,1.5-0.2,2.4c0.1-0.2-0.1-0.5,0-1c-0.2,0.5-0.1,0.9-0.2,1C128.3,175.8,128.5,175.2,129.1,174.3L129.1,174.3z
				 M129.8,173.3L129.8,173.3c0.1,0.7,0.5,1.3-0.2,2.1c0.1-0.2-0.1-0.4,0-0.9c-0.1,0.4-0.1,0.7-0.2,0.9
				C129.2,174.6,129.3,174.1,129.8,173.3L129.8,173.3z M130.6,172.5L130.6,172.5c0.1,0.7,0.4,1.6-0.3,2.1
				C129.9,173.8,130.1,173.2,130.6,172.5L130.6,172.5z M131.3,171.6L131.3,171.6c0.1,0.7,0.4,1.6-0.3,2.1
				C130.7,172.8,130.8,172.3,131.3,171.6L131.3,171.6z M132,170.9L132,170.9c0.1,0.6,0.3,1.4-0.3,1.8
				C131.5,172,131.6,171.5,132,170.9L132,170.9z M132.9,170L132.9,170c0,0.6,0.1,1.4-0.6,1.7C132.2,171,132.4,170.5,132.9,170
				L132.9,170z M133.6,169.4L133.6,169.4c0,0.5,0.1,1.2-0.5,1.5C133,170.2,133.2,169.9,133.6,169.4L133.6,169.4z M135,168.9
				L135,168.9c-0.2,0.5-0.5,1.4-1.4,1.6C133.7,169.6,134.6,169.2,135,168.9L135,168.9z"/>
			<path class="st5" d="M125.3,184.2c-0.2,0.2-0.5,0.3-0.8,0.3c-2.9,0.4-6-0.5-9.4-2.5l0-0.6c3.4,2.1,6.4,2.9,9.2,2.5
				c0.1-0.2,0.3-0.3,0.4-0.4L125.3,184.2z"/>
			<path class="st5" d="M128.3,181.3l-0.2,0.1C128.2,181.4,128.3,181.3,128.3,181.3L128.3,181.3z M128.9,179.8L128.9,179.8l-0.4,0.2
				C128.7,179.9,128.8,179.8,128.9,179.8L128.9,179.8z M127.8,174L127.8,174c0,0-0.3-1.3-1-2.2c0.5,0.6,1,1.5,1.2,2.4
				c0.3,0.8,0.4,1.4,0.3,1.8c0.2-0.4,0.3-0.7,0.3-0.9c-0.1-0.7-0.3-1.2-0.7-2c0.5,0.7,0.9,1.8,1,2.7c0.1,0.5,0.1,0.9-0.1,1.3
				l0.6-0.9c0-0.6-0.1-1.2-0.4-2c0.3,0.6,0.5,1.5,0.5,2.3c0.1,0.9-0.1,1.6-0.6,2.1l0.9-0.8c0.2-0.6,0.2-1.2,0.1-2
				c0.2,0.8,0.2,1.8-0.1,2.7c-0.2,0.6-0.4,1.1-0.8,1.4l0.8-0.5c0.3-0.7,0.6-2,0.6-2.6c0.1,1.3-0.8,3.5-1,3.7c-0.2,0.4-0.6,0.7-1,0.9
				l1-0.4c0.5-0.7,0.8-1.5,1-2.6c-0.1,0.8-0.4,1.8-0.9,2.7c-0.4,0.9-1.1,1.5-2,1.7l1.1-0.2c0.6-0.6,1.2-1.4,1.6-2.6
				c-0.3,1.1-1,2.2-1.8,3.1c-0.4,0.4-0.9,0.7-1.3,0.7c0.2,0,0.3,0.1,0.4,0.2c0.4-0.2,1.7-1.3,2.5-2.4c-1,1.5-2,2.3-2.5,2.7
				c-0.9,0.5-1.7,0.5-2.5,0c-0.4-0.5-0.4-1.1,0.1-1.9c0.2-0.7,0.1-1.4-0.1-2.3c0.2,0.7,0.3,1.5,0.2,2.3l0,0.1c0-0.3,0.2-0.6,0.4-1.1
				c0-0.5-0.2-1.2-0.5-1.9c0.3,0.5,0.5,1.2,0.6,1.9l0.2,0.3c-0.1-0.5-0.2-0.9-0.2-1.5c-0.2-0.5-0.3-1.1-0.3-1.6
				c0.1,0.7,0.2,1.2,0.4,1.6l0.6,0.8c-0.3-0.7-0.5-1.3-0.4-2c-0.1-0.4-0.4-1-0.7-1.5c0.3,0.4,0.6,0.9,0.8,1.5l0.6,0.7
				c-0.2-0.4-0.4-1-0.6-1.6c0,0-0.3-0.8-0.7-1.4c0.4,0.4,0.7,0.9,0.9,1.5l0.5,0.3l-0.1-0.2c-0.2-0.3-0.3-0.7-0.4-1.1
				c-0.2-0.4-0.4-0.7-0.7-1.2c0.3,0.3,0.5,0.7,0.7,1.1l0.7,0.4c-0.4-0.5-0.8-1.2-1.1-2.1c-0.2-0.3-0.5-0.7-0.8-1
				c0.3,0.2,0.6,0.6,0.8,0.9c0.3,0.1,0.5,0.3,0.8,0.6c-0.3-0.4-0.6-1-0.9-1.9l0,0c-0.2-0.3-0.5-0.7-0.8-1c0.3,0.3,0.7,0.7,0.9,1.2
				l0.8,0.7l-0.1-0.2c-0.2-0.7-0.5-1.2-1.2-1.9c0.5,0.4,1,1.1,1.3,1.8c-0.1-0.5-0.1-1-0.1-1.6c-0.2-0.7-0.5-1.2-1.2-1.9
				c0.5,0.4,0.9,1,1.2,1.7c0.5,0.8,0.9,1.5,1,2.3L127.8,174z"/>
			<path class="st6" d="M125.6,181.2c0.4,0.9,0.6,1.7,0.1,1.9C125.2,182.8,125.2,182.4,125.6,181.2L125.6,181.2z M125.8,180.1
				L125.8,180.1c0.8,0.9,1.1,1.8,0.8,2.2C126,182.2,125.9,181.4,125.8,180.1L125.8,180.1z M126.2,179L126.2,179
				c0.8,0.9,1.3,1.9,1,2.3C126.5,181.1,126.3,180.2,126.2,179L126.2,179z M126.3,178.1L126.3,178.1c1,0.7,1.5,1.5,1.3,1.9
				C127.1,180.1,126.7,179.3,126.3,178.1L126.3,178.1z M126.4,177.1L126.4,177.1c1,0.7,1.5,1.3,1.3,1.7
				C127.3,178.8,126.8,178.2,126.4,177.1L126.4,177.1z M127.5,177.4L127.5,177.4c-0.4-0.1-0.8-0.8-1.3-2
				C127.2,176.3,127.7,177,127.5,177.4L127.5,177.4z M127.5,176.3L127.5,176.3c-0.4-0.2-0.8-0.9-1.4-2.3
				C127.1,175.1,127.6,175.9,127.5,176.3L127.5,176.3z M127.7,176.6L127.7,176.6c-0.2-0.3-0.2-1.1,0.1-2.4
				C128.2,175.6,128.1,176.4,127.7,176.6L127.7,176.6z M127.7,177.8L127.7,177.8c0.2-0.2,0.2-0.4,0.2-0.6c0,0.1-0.1,0.2-0.3,0.4
				c0.1-0.9,0.8-1.4,0.9-2C128.8,176.7,128.6,177.6,127.7,177.8L127.7,177.8z M128,178.6L128,178.6c0.2-0.2,0.3-0.5,0.3-0.6
				c-0.1,0.1-0.2,0.3-0.5,0.4c0.2-0.6,0.8-1.2,1.4-2C129.3,177.8,128.8,178.8,128,178.6L128,178.6z M128,179.9L128,179.9
				c0.2-0.1,0.4-0.4,0.4-0.5c-0.1,0.1-0.3,0.3-0.5,0.4c0.3-0.6,1.1-1.1,1.7-1.9C129.4,179.2,128.7,180.2,128,179.9L128,179.9z
				 M127.5,181.1L127.5,181.1c0.2-0.1,0.5-0.3,0.5-0.4c-0.2,0.1-0.3,0.2-0.6,0.3c0.4-0.5,1.3-0.8,2.1-1.4
				C129.1,180.8,128.1,181.6,127.5,181.1L127.5,181.1z M129.1,181.1L129.1,181.1c-0.6,1.1-1.5,1.7-2.3,1.3c0.5-0.2,0.8-0.4,1-0.6
				c-0.3,0.2-0.6,0.4-1,0.4C127.2,181.6,128.1,181.7,129.1,181.1L129.1,181.1z M128.4,182.6L128.4,182.6c-0.7,0.9-1.5,1.1-2.5,0.7
				c0.2-0.1,0.6-0.2,1.3-0.3c-0.6,0-1.1,0-1.3,0.1C126.4,182.5,127.7,183,128.4,182.6L128.4,182.6z M127.3,183.8L127.3,183.8
				c-0.8,0.6-1.6,0.6-2.2,0.1C125.3,183,126.2,183.6,127.3,183.8L127.3,183.8z M125.1,182.2L125.1,182.2c0.2,0.9,0.1,1.4-0.2,1.5
				C124.7,183.5,124.5,183.3,125.1,182.2L125.1,182.2z M127.5,175.5L127.5,175.5c-0.3-0.3-0.7-1.1-0.7-2.6
				C127.4,174.3,127.6,175,127.5,175.5L127.5,175.5z"/>
			<path class="st6" d="M125,184.2c-0.2-0.1-0.3-0.2-0.4-0.4c-0.1,0-0.2,0.1-0.3,0.2c-2.6,0.5-5.7-0.3-9.2-2.5l0,0.3
				c3.6,2.1,6.6,2.9,9.2,2.5C124.7,184.4,124.9,184.3,125,184.2L125,184.2z"/>
		</g>
		<circle class="st7" cx="107.2" cy="167" r="20"/>
		<g>
			<path class="st4" d="M123.1,166.6c-0.3-0.3-0.7-0.3-1.1-0.2c0-0.3,0-0.6,0.1-0.8c0-0.2-0.4-0.2-0.5-0.1c-0.2,0.1-0.4,0.2-0.5,0.4
				c-0.3,0-0.5,0-0.7,0.1c-0.7,0.3-1,1.1-1.1,1.8c0,0.1-0.1,0.3-0.1,0.5c0,0,0,0,0,0c-0.1,0.3-0.2,0.7-0.4,0.9
				c-0.2,0.1-0.3-0.8-0.3-0.9c0-1,0.2-1.9,0.4-2.8c0-0.2-0.2-0.3-0.4-0.2c-0.2,0.1-0.5,0.2-0.6,0.4c-0.2,0.7-0.3,1.4-0.4,2.2
				c-0.1,0.3-0.2,0.6-0.3,0.9c0,0,0,0,0,0c-0.1,0-0.1-0.1-0.2-0.1c-0.5-0.3-0.3-1.2-0.3-1.6c0.1-0.6,0.2-1.2,0.5-1.8
				c0.1-0.2,0-0.3-0.3-0.3c-0.2,0-0.5,0.2-0.6,0.4c-0.2,0.5-0.3,1-0.5,1.6c-0.1,0.5-0.4,1-0.7,1.3c0,0-0.1,0.1-0.1,0.1
				c0,0,0,0,0-0.1c-0.1-0.4-0.1-0.9,0-1.2c0-0.6,0.1-1.2,0.2-1.8c0,0,0,0,0,0c0-0.5-0.4-0.8-0.9-0.8c-0.6,0-1,0.4-1.3,0.7
				c-0.3,0.5-0.5,1.2-0.6,1.3c-0.1,0.5-0.3,1-0.6,1.4c-0.1,0-0.1-0.1-0.1-0.2c-0.1-0.3-0.2-0.6-0.2-0.9c-0.1-0.9-0.1-1.8,0-2.6
				c0,0,0,0,0,0c0,0,0-0.1,0-0.1c0,0-0.1,0-0.1-0.1c-0.2-0.1-0.5,0.1-0.7,0.3c-0.5,0.6-0.5,1.4-0.6,2.1c-0.1,0.4-0.2,0.8-0.3,1.2
				c0,0,0,0.1-0.1,0.2c-0.1-0.1-0.2-0.2-0.2-0.3c0,0,0,0,0,0c0-0.2-0.1-0.3-0.3-0.2c-0.2,0.1-0.5,0.3-0.6,0.5c0,0,0,0,0,0
				c0,0,0,0,0,0c-0.2,0-0.2-0.2-0.3-0.3c-0.1-0.3-0.1-0.6-0.1-0.9c0-0.2,0-0.4,0-0.6c0-0.5,0.1-1,0.1-1.4c0-0.1,0-0.3,0-0.4
				c0-0.2-0.3-0.2-0.4-0.1c-0.2,0.1-0.5,0.3-0.5,0.6c0,0.3,0,0.5,0,0.8c0,0.3,0,0.5,0,0.8c0,0.2,0,0.4-0.1,0.7c0,0.3-0.1,0.7-0.2,1
				c0,0,0,0,0,0c-0.1,0-0.1,0-0.2,0c-0.5-0.2-0.5-1.1-0.5-1.5c0-0.6,0-1.3,0.2-1.8c0-0.1,0.1-0.2,0-0.3c-0.1-0.1-0.3,0-0.4,0.1
				c-0.1,0.1-0.4,0.4-0.6,0.5c-0.4,0.2-0.8,0.1-1.1-0.1c-0.1-0.1-0.2-0.2-0.4-0.3c-0.4-0.2-0.8,0-1.1,0.3c0-0.3-0.1-0.5-0.2-0.8
				c-0.1-0.2-0.5,0-0.5,0.1c-0.2,0.1-0.4,0.4-0.3,0.6c-0.3,0.1-0.5,0.3-0.7,0.4c-0.6,0.6-0.6,1.4-0.6,2.1c0,0.1,0,0.3,0,0.5
				c0,0.1,0,0.8-0.2,1c-0.2,0.2-0.6-0.6-0.6-0.7c-0.3-0.9-0.3-1.9-0.4-2.8c0-0.2-0.3-0.1-0.4,0c-0.2,0.1-0.4,0.4-0.4,0.7
				c0,0.7,0.1,1.5,0.1,2.2c0,0.3,0,0.7-0.1,1c0,0,0,0,0,0c-0.1,0-0.2,0-0.2,0c-0.5-0.1-0.6-1-0.7-1.4c-0.1-0.6-0.1-1.3,0-1.9
				c0-0.2-0.1-0.3-0.3-0.2c-0.2,0.1-0.5,0.4-0.5,0.6c-0.1,0.8-0.1,1.6,0.1,2.4c0.1,0.6,0.4,1.5,1.1,1.4c0.5-0.1,0.9-0.4,1.1-0.8
				c0.1,0.1,0.1,0.2,0.2,0.3c0.5,0.5,1.1,0,1.5-0.4c0-0.1,0.1-0.1,0.1-0.2c0.1,0.1,0.2,0.2,0.3,0.3c0.2,0.2,0.5,0.2,0.8,0.1
				c0.1,0,0.2-0.1,0.3-0.1c0,0.9,0.1,1.8,0.1,2.7c0,0.2,0.3,0.2,0.4,0.1c0.2-0.1,0.4-0.4,0.4-0.6c0-0.7,0-1.4,0-2.2
				c0.3,0,0.7-0.2,0.9-0.5c0.6-0.6,0.7-1.5,0.6-2.3c0-0.1,0-0.3-0.1-0.4c0.3,0,0.5-0.2,0.8-0.3c-0.1,0.6-0.1,1.2-0.1,1.8
				c0,0.6,0.2,1.5,1,1.6c0.5,0,0.8-0.2,1.1-0.5c0.2,0.3,0.5,0.6,0.9,0.5c0.2,0,0.3-0.1,0.4-0.2c0.3,0.3,0.8,0.3,1.2,0
				c0.3-0.3,0.5-0.6,0.6-0.9c0,0.1,0,0.2,0,0.3c0.1,0.3,0.1,0.6,0.3,0.9c0.2,0.3,0.6,0.1,0.9,0c0.2-0.1,0.5-0.3,0.6-0.5
				c0.1,0.3,0.2,0.6,0.4,0.7c0.4,0.2,0.9,0,1.2-0.2c0,0.2,0.1,0.4,0.3,0.5c0.5,0.2,1-0.2,1.3-0.5c0,0,0,0,0,0c0.1,0.4,0.2,0.8,0.7,1
				c0.5,0.2,0.9,0,1.2-0.3c0,0.1,0.1,0.2,0.1,0.3c0.3,0.7,1,0.4,1.4,0.2c0.1,0,0.1-0.1,0.2-0.1c0,0.1,0.1,0.3,0.2,0.4
				c0.1,0.3,0.4,0.4,0.7,0.5c0.1,0,0.2,0,0.3,0c-0.2,0.9-0.4,1.7-0.7,2.6c-0.1,0.2,0.2,0.3,0.3,0.2c0.2,0,0.5-0.2,0.5-0.4
				c0.2-0.7,0.4-1.4,0.6-2c0.3,0.1,0.7,0.1,1-0.1c0.7-0.3,1-1.2,1.2-2C123.4,168.1,123.6,167.1,123.1,166.6z M102.2,167.9
				c0,0-0.1,0-0.2,0c-0.2-0.1-0.3-0.2-0.4-0.3c-0.3-0.4-0.3-0.9-0.4-1.4c0-0.4,0-0.8,0.1-1.2c0,0,0.1,0,0.1,0c0.3,0.2,0.5,0.6,0.6,1
				l0,0C102.1,166.5,102.2,167.2,102.2,167.9C102.2,167.8,102.2,167.9,102.2,167.9z M103.7,167.6
				C103.7,167.7,103.7,167.7,103.7,167.6C103.6,167.7,103.6,167.7,103.7,167.6c-0.4,0.1-0.6-0.1-0.6-0.4c0,0,0,0,0,0
				c0-0.7-0.1-1.3-0.2-2c0-0.2,0-0.3,0-0.5c0,0,0,0,0,0c0,0,0,0,0,0c0.1,0,0.2,0,0.3,0.1c0,0,0,0,0,0c0,0,0.1,0.1,0.1,0.1
				c0.3,0.3,0.4,0.8,0.4,1.2C103.8,166.6,103.9,167.2,103.7,167.6z M114.1,165.4c-0.1,0.8-0.2,1.7-0.5,2.4c0,0-0.1,0.1-0.1,0.2
				c0,0-0.1,0-0.1,0c-0.2-0.1-0.2-0.4-0.3-0.5c-0.1-0.6,0-1.3,0.2-1.9c0.1-0.2,0.2-0.5,0.3-0.5c0,0,0,0,0,0c0,0,0.1,0,0.1,0
				C114.1,165,114.2,165.2,114.1,165.4z M120.9,167.7L120.9,167.7c-0.1,0.6-0.2,1.2-0.3,1.9c0,0,0,0,0,0c0,0,0,0,0,0
				c0,0-0.1-0.1-0.1-0.1c-0.1-0.1-0.2-0.3-0.3-0.5c-0.1-0.5-0.1-1,0-1.5c0.1-0.4,0.2-0.8,0.4-1.1c0,0,0,0.1,0.1,0.1
				C120.9,166.9,120.9,167.4,120.9,167.7z M122.4,168.7c-0.1,0.5-0.2,1-0.5,1.3c0,0,0,0,0,0c0,0,0,0,0,0c-0.3-0.1-0.4-0.4-0.4-0.7
				l0,0c0.1-0.6,0.3-1.3,0.4-2c0-0.2,0.1-0.3,0.2-0.5c0,0,0,0,0,0c0,0,0,0,0,0c0.1,0,0.2,0.2,0.3,0.3
				C122.5,167.7,122.5,168.3,122.4,168.7z"/>
			<path class="st4" d="M119.1,164.1c0.1-0.1,0.4-0.3,0.3-0.5c-0.1-0.2-0.5-0.1-0.6,0c-0.3,0.2-0.6,0.3-1,0
				c-0.1-0.1-0.3-0.2-0.4-0.3c-0.2-0.3-1.1,0.2-0.9,0.5C117.2,164.9,118.4,164.6,119.1,164.1z"/>
			<path class="st4" d="M93.8,165.7c-0.1-0.4-0.2-0.7-0.3-1.1c0.8-0.2,1.5-0.5,2.3-0.8c0.2-0.1,0.5-0.4,0.5-0.7
				c0-0.2-0.1-0.3-0.3-0.2c-1.3,0.6-2.8,0.9-4.1,1.4c-0.5,0.2-1.1,0.6-1.3,1.1c-0.3,0.6-0.2,1.2,0.1,1.7c0.2,0.3,0.9-0.6,0.7-0.9
				c-0.1-0.2-0.2-0.4-0.3-0.6c0,0,0-0.1,0-0.1c0.3-0.3,0.8-0.4,1.2-0.6c0.1,0,0.2-0.1,0.3-0.1c0.2,0.4,0.3,0.8,0.4,1.2
				c-0.5,0.3-0.8,0.8-1.1,1.2c-0.5,1-0.6,3.7,1.2,3.4c1.2-0.2,1.3-1.6,1.2-2.6c-0.1-0.5-0.1-1.1-0.2-1.6c0.1,0,0.2,0,0.3,0
				c0.7,0.1,1,0.7,1.1,1.3c0.1,0.5,0,1.2-0.4,1.6c-0.1,0.1-0.3,0.5-0.2,0.7c0.1,0.2,0.4-0.1,0.5-0.2c0.9-1,1.3-2.8,0.4-3.9
				C95.3,165.6,94.5,165.5,93.8,165.7z M93.4,169.8c-0.3,0-0.6-0.1-0.7-0.2c-0.5-0.5-0.6-1.5-0.2-2.2c0.2-0.3,0.4-0.5,0.7-0.6
				c0.2,0.6,0.3,1.3,0.4,2c0,0.3,0.1,0.6,0.1,0.9c0,0,0,0.1,0,0.1C93.5,169.8,93.4,169.8,93.4,169.8z"/>
		</g>
		<g>
			<path class="st4" d="M112.1,181.4c-0.2,0.3-0.6-0.5-0.6-0.6c0-0.1-0.1-0.2-0.1-0.3c-0.1-0.2-0.2-0.5-0.2-0.7c0,0,0-0.1,0-0.1
				c-0.1-0.2-0.3,0.2-0.3,0.4c0.1,0.3,0.2,0.6,0.2,1c0,0.2,0.1,0.3,0.1,0.5c0,0.2,0,0.3-0.2,0.2c-0.5-0.2-0.5-1.3-0.5-1.7
				c0-0.3-0.3,0.1-0.3,0.2c0,0.2,0,0.9,0.2,1.4c-0.1,0.2-0.3,0.4-0.4,0.3c-0.1-0.1-0.1-0.4-0.2-0.5c-0.1-0.3-0.3-0.3-0.6-0.2
				c0,0,0,0,0,0c0-0.1,0-0.3,0.1-0.5c0-0.1,0.1-0.2,0.3-0.2c0.2,0.1,0.5-0.4,0.3-0.5c-0.4-0.2-0.7,0-0.9,0.5c0-0.3-0.1-0.5-0.2-0.8
				c-0.1-0.2-0.4,0.2-0.4,0.4c0.2,0.5,0.2,1.1,0.2,1.7c0,0,0,0,0,0c-0.2,0.2-0.5,0.6-0.6,0.2c-0.1-0.2-0.1-0.5-0.1-0.7
				c0-0.2,0-0.4,0-0.6c0-0.1,0-0.1,0-0.2c0,0,0,0,0,0c-0.1-0.6-0.7-0.3-0.9,0.1c-0.3,0.4-0.4,1-0.4,1.5c-0.3,0.1-0.4,0.1-0.5-0.3
				c-0.1-0.5,0-1.1,0.1-1.6c0-0.3-0.4,0-0.4,0.1c-0.2,0.2-0.3,0.5-0.4,0.8c-0.1,0.2-0.1,0.3-0.2,0.5c0,0.1-0.1,0.2-0.1,0.3
				c-0.1,0.2-0.2,0-0.2-0.1c0-0.1,0-0.1-0.1-0.1c0,0-0.1,0-0.1,0c-0.2,0-0.3,0.1-0.5,0.1c0-0.1-0.1-0.2-0.2-0.3
				c0.3-0.3,0.5-0.8,0.6-1.2c0-0.3,0-0.6-0.3-0.6c-0.4-0.1-0.8,0.3-1,0.6c-0.1,0.2,0.5,0.1,0.5,0c0-0.1,0.1-0.4,0.2-0.2
				c0.1,0.1,0,0.3,0,0.4c0,0.2-0.2,0.7-0.4,0.8c-0.1,0-0.1,0-0.2,0c-0.1,0-0.3,0.1-0.3,0.2c-0.1,0.1-0.1,0.1,0,0.1
				c0.1,0,0.2,0,0.3,0c0.1,0,0.2,0.1,0.2,0.3c-0.5,0.2-1.1,0.4-1.5,0.9c-0.4,0.5,0.2,1,0.9,0.9c0.7-0.1,1-0.8,1.1-1.4
				c0-0.1,0-0.2,0-0.2c0.1,0,0.1,0,0.2,0c0,0.4,0.6,0.4,0.9,0.2c0.1-0.1,0.2-0.2,0.2-0.3c0,0.2,0.1,0.3,0.1,0.4c0.2,0.3,0.7,0.2,1,0
				c0.1,0.3,0.5,0.4,0.8,0.1c0,0,0,0,0.1-0.1c0,0.1,0.1,0.2,0.1,0.2c0.2,0.2,0.7-0.1,1-0.4c0,0.1,0,0.2,0,0.3c0,0.3,0.5-0.1,0.5-0.3
				c0-0.2,0-0.4,0-0.7c0.3,0,0.2,0.8,0.5,0.8c0.3,0.1,0.6-0.2,0.8-0.5c0.1,0.2,0.3,0.3,0.6,0.2c0.2-0.1,0.4-0.3,0.5-0.5
				c0.3,0.4,0.7,0,0.9-0.3C112.6,181.1,112.3,181.1,112.1,181.4z M103.5,182.4c-0.1,0.4-0.2,0.8-0.6,1c-0.1,0.1-0.2,0-0.3-0.1
				c-0.1-0.2,0-0.3,0.1-0.5c0.2-0.3,0.5-0.5,0.8-0.6C103.6,182.3,103.5,182.4,103.5,182.4z M107.1,182.3c-0.1,0-0.1-0.1-0.2-0.2
				c-0.1-0.2-0.1-0.5,0-0.8c0-0.1,0.1-0.3,0.1-0.4c0-0.1,0.1-0.1,0.1-0.2c0.1-0.1,0.2,0.1,0.2,0.2c0,0.4,0,0.7-0.1,1.1
				C107.3,182.1,107.2,182.4,107.1,182.3z"/>
		</g>
		<circle class="st8" cx="91.2" cy="184.7" r="6.3"/>
		<path class="st9" d="M97.7,142.6c0,1.4-1.1,2.5-2.6,2.5c-1.4,0-2.6-1.1-2.6-2.5c0-1.4,1.1-2.6,2.6-2.6
			C96.6,140,97.7,141.2,97.7,142.6L97.7,142.6z"/>
		<path class="st10" d="M97.8,151.2c0,1.8-1.5,3.3-3.3,3.3c-1.8,0-3.3-1.5-3.3-3.3c0-1.8,1.5-3.3,3.3-3.3
			C96.3,147.9,97.8,149.4,97.8,151.2L97.8,151.2z"/>
		<path class="st10" d="M89,146.1c0,1.1-0.9,1.9-1.9,1.9c-1.1,0-2-0.9-2-1.9c0-1.1,0.9-2,2-2C88.2,144.2,89,145,89,146.1L89,146.1z"
			/>
		<g>
			<circle class="st8" cx="124.2" cy="148.8" r="11"/>
			<g>
				<path class="st4" d="M121.5,147.2c-0.9,0.1-1.2,1.2-1.2,1.9l0,0v0c0,0.1,0,0.2,0,0.3c0,0.4,0,0.6-0.1,1c0,0.1-0.1,0.4-0.1,0.4
					c-0.3,0-0.6-0.5-0.7-0.7c-0.2-0.6-0.4-1.2-0.5-1.7c-0.1-0.6-0.2-1.3-0.2-1.9c0-0.3,0-0.5,0-0.8c0-0.1,0-0.2,0-0.3
					c0-0.1,0-0.2,0-0.2c0.1-0.5-0.6,0-0.7,0.2c-0.7,1.3-0.5,2.8-0.5,4.2c0,0.4,0,0.8-0.1,1.1c0,0.3-0.1,0.7-0.3,0.9
					c-0.1,0.1-0.4,0-0.5,0c-0.2-0.1-0.3-0.3-0.3-0.5c0-0.2-0.3-0.1-0.4,0c-0.2,0.2-0.3,0.4-0.3,0.6c0.1,0.5,0.5,0.9,1,0.8
					c0.8-0.2,1.2-1.2,1.4-2c0.1-0.4,0.1-0.7,0.2-1.1c0.1,0.5,0.3,1.1,0.5,1.6c0.2,0.4,0.5,0.7,1,0.7c0.3-0.1,0.6-0.4,0.8-0.8
					c0.2,0.4,0.4,0.6,0.8,0.6c0.5,0,0.8-0.5,1-0.9c0.2-0.4,0.3-0.9,0.3-1.4C122.6,148.5,122.4,147.1,121.5,147.2z M121.8,150.4
					c0,0.1,0,0.2-0.1,0.3c-0.2,0-0.3-0.3-0.4-0.4c-0.1-0.3-0.2-0.6-0.2-1c0-0.3,0-0.7,0-1c0-0.1,0-0.2,0.1-0.3
					c0.5,0.3,0.6,0.9,0.6,1.4C121.8,149.7,121.9,150.1,121.8,150.4z"/>
				<path class="st4" d="M132.4,148.5c-1-0.4-1.5,1-1.7,1.7c-0.2,0.7-0.4,1.9,0.5,2.3c0.4,0.2,0.9-0.1,1.2-0.4
					c0.3-0.3,0.5-0.8,0.6-1.2C133.1,150.1,133.3,148.9,132.4,148.5z M131.8,151.7c0,0.1-0.1,0.2-0.1,0.2c-0.2-0.1-0.2-0.4-0.2-0.5
					c-0.1-0.3,0-0.7,0-1c0.1-0.3,0.2-0.7,0.3-1c0-0.1,0.1-0.2,0.1-0.2c0.4,0.4,0.3,1.1,0.2,1.6C132.1,151,132,151.4,131.8,151.7z"/>
				<path class="st4" d="M129.8,148.7c0.2-0.2,0.4-0.5,0.5-0.8c0.4-0.5,0.7-1.2,0.7-1.9c0-0.6-0.9-0.7-1.3-0.5c-0.6,0.3-1,1-1.2,1.6
					c-0.2,0.8-0.4,1.7-0.4,2.6c0,0,0,0,0,0c-0.3,0.4-1,1.2-1.5,0.8c-0.1-0.1-0.2-0.2-0.2-0.4c0.4-0.4,0.8-0.9,1.1-1.4
					c0.3-0.4,0.5-1.2-0.1-1.5c-0.5-0.3-1.1,0-1.4,0.4c-0.3,0.4-0.5,0.9-0.5,1.4c0,0.3-0.1,0.7,0,1.1c-0.3,0.2-0.6,0.3-1,0.2
					c-0.4-0.1-0.5-0.5-0.6-0.8c-0.1-0.5-0.1-0.9,0-1.4c0-0.1,0.1-0.3,0.1-0.4c0,0,0-0.1,0-0.1c0.2,0.1,0.3,0.5,0.4,0.6
					c0.1,0.3,0.9-0.2,0.8-0.5c-0.1-0.3-0.2-0.7-0.6-0.8c-0.3-0.2-0.8,0.1-1,0.3c-0.6,0.6-0.7,1.5-0.6,2.3c0,0.5,0.1,1.1,0.6,1.4
					c0.6,0.4,1.4,0,2-0.3c0.2,0.4,0.4,0.6,0.9,0.6c0.6-0.1,1.1-0.4,1.6-0.8c0,0.4,0.1,0.9,0.4,1.1c0.5,0.3,1.2,0,1.5-0.5
					c0.4-0.6,0.7-1.4,0.4-2.1C130.3,148.8,130.1,148.7,129.8,148.7z M126.4,148.3c0-0.1,0.1-0.3,0.2-0.4c0,0,0,0,0,0
					c0.2,0.1,0.3,0.4,0.3,0.6c-0.1,0.4-0.3,0.7-0.6,1.1c0-0.1,0-0.1,0-0.2C126.3,149,126.3,148.7,126.4,148.3z M129.6,146.5
					c0.1-0.1,0.1-0.3,0.2-0.4c0,0,0,0,0,0c0.4,0.4,0,1-0.2,1.4c-0.2,0.4-0.4,0.8-0.7,1.2c0.1-0.4,0.1-0.8,0.2-1.1
					C129.3,147.2,129.4,146.8,129.6,146.5z M129.4,151c0,0-0.1,0.1-0.1,0.2c0,0-0.1,0-0.1,0c-0.2-0.1-0.3-0.7-0.3-0.9
					c0-0.2,0-0.4,0-0.6c0.1-0.1,0.2-0.2,0.3-0.4c0.2-0.1,0.4,0.1,0.4,0.4C129.7,150.1,129.6,150.7,129.4,151z"/>
			</g>
		</g>
		<g>
			<path class="st4" d="M87,183.8c0.2-0.6,0.7-0.2,0.8,0.1c0.2,0.4,0,0.9-0.3,1.2c-0.2,0.3-0.5,0.5-0.8,0.7
				c-0.2,0.1-0.3,0.2-0.4,0.3c0,0.1-0.1,0.2,0,0.2c0.2,0.2,0.7,0.2,0.9,0.2c0.5,0,1,0,1.4-0.2c0.2-0.1,0.5-0.7,0-0.5
				c-0.3,0.2-0.8,0.1-1.1,0.1c-0.2,0-0.6,0-0.7-0.1c0,0.1,0,0.2,0,0.2c-0.2,0.3-0.1,0.2,0.1,0.1c0.1-0.1,0.3-0.2,0.4-0.3
				c0.2-0.2,0.4-0.4,0.6-0.7c0.4-0.5,0.6-1,0.5-1.6c-0.2-1.4-1.7-0.4-2,0.4C86.3,184.4,86.9,184,87,183.8L87,183.8z"/>
			<path class="st4" d="M90.5,186c0.5,1.5,2.8,0.5,2.4-0.9c-0.2-0.7-1-0.6-1.5-0.7c-0.3-0.1-0.3-0.3-0.3-0.6
				c0.1-0.3,0.1-0.3-0.1-0.2c0.1,0,0.2,0,0.3-0.1c0.5-0.1,1-0.1,1.4,0.1c0.2,0.1,0.7-0.4,0.4-0.5c-0.6-0.3-1.2-0.2-1.8-0.1
				c-0.6,0.1-0.7,0.6-0.7,1.2c0,0.7,0.6,0.7,1.1,0.8c0.4,0.1,0.7,0.2,0.8,0.6c0.1,0.7-0.7,0.6-1,0.4c-0.2-0.1-0.2-0.3-0.3-0.5
				C91,185.3,90.4,185.8,90.5,186L90.5,186z"/>
			<g>
				<path class="st4" d="M95.8,183.3c-0.6,1.1-1.4,2.1-2.2,3c-0.3,0.4,0.2,0.4,0.4,0.1c0.8-1,1.6-2.1,2.3-3.2
					C96.6,182.8,95.9,183,95.8,183.3L95.8,183.3z"/>
				<path class="st4" d="M94.6,183c-0.4,0-0.7,0.4-0.7,0.7c-0.1,0.3,0.1,0.6,0.5,0.6C95.1,184.4,95.4,183,94.6,183
					c-0.2,0-0.5,0.4-0.2,0.4c0.2,0,0.3,0.2,0.3,0.3c0,0.1,0,0.1,0,0.2c0,0.1,0,0,0,0c0,0-0.1,0-0.1,0c-0.2,0-0.3-0.2-0.3-0.3
					c0-0.1,0-0.2,0-0.2c0,0,0,0,0,0c0,0,0.1,0,0.1,0C94.5,183.4,94.8,183,94.6,183z"/>
				<path class="st4" d="M95.7,185.2c-0.4,0-0.7,0.4-0.7,0.7c-0.1,0.3,0.1,0.6,0.5,0.6C96.2,186.7,96.6,185.3,95.7,185.2
					c-0.2,0-0.5,0.4-0.2,0.4c0.2,0,0.3,0.2,0.3,0.3c0,0.1,0,0.1,0,0.2c0,0.1,0,0,0,0c0,0-0.1,0-0.1,0c-0.2,0-0.3-0.2-0.3-0.3
					c0-0.1,0-0.2,0-0.2c0,0,0,0,0,0c0,0,0.1,0,0.1,0C95.6,185.7,95.9,185.2,95.7,185.2z"/>
			</g>
			<path class="st4" d="M89.6,187.4c0.3-0.2,0.5-0.6,0.5-1c0-0.1,0-0.3-0.1-0.3c-0.1-0.1-0.4,0-0.5,0c-0.2,0.1-0.3,0.3-0.3,0.4
				c0,0.2,0.2,0.1,0.3,0.1c0,0,0,0,0,0c0,0,0,0,0,0c0,0.1,0,0.1,0,0.1c0,0.1,0,0.1-0.1,0.2c0,0,0,0,0,0.1c0,0,0,0,0,0c0,0,0,0,0,0.1
				c0.1-0.1,0,0,0,0c-0.1,0.1-0.3,0.3-0.1,0.4C89.3,187.6,89.5,187.4,89.6,187.4L89.6,187.4z"/>
		</g>
		<g>
			<path class="st11" d="M82.9,158.6c-0.1,0-0.2-0.2-0.3-0.2c-0.4-0.2-0.7,0.1-1.1,0.1c-0.9,0-1.3,0-2.4-0.3c0-1,0.6-1.6,0.8-2.4
				c0.2-0.7-0.1-1.5-0.1-2.3c0-0.5,0-0.9,0-1.4c-0.3,0.3-0.2,1.2-0.2,1.6c-0.1-0.6-0.1-1.4-0.3-1.9c-0.1,0.6,0,1.3,0,1.9
				c-0.2-0.5-0.2-1.2-0.4-1.6c-0.3,0.5,0.2,1.3,0.1,1.8c-0.2-0.5-0.3-1-0.5-1.5c-0.1,0.6,0.2,1.2,0.2,1.6c-0.2-0.4-0.3-0.8-0.6-1.1
				c0,0.4,0.3,0.9,0.4,1.3c-0.3-0.1-0.4-0.5-0.6-0.6c0,0.3,0.3,0.5,0.4,0.8c-0.2-0.1-0.3-0.3-0.5-0.4c0,0.3,0.3,0.4,0.3,0.6
				c-0.1-0.1-0.3-0.2-0.4-0.3c0,0.2,0.3,0.4,0.3,0.5c0,0-0.2-0.1-0.2,0c0,0,0.2,0.1,0.1,0.2c-0.1,0-0.1,0-0.2,0
				c0,0.2,0.2,0.1,0.1,0.3c-0.1,0-0.1-0.1-0.1,0c0,0.1,0.1,0.1,0.1,0.2c-0.8,0.8-0.4,1.8-0.5,2.8c0.1-0.1-0.7-0.3-1.2-0.5
				c-0.3-0.1-0.4-0.5-0.6-0.6c0-0.1,0.1,0,0.1-0.1c-0.1,0-0.2-0.1-0.2-0.2c0.1,0,0.3,0.1,0.3,0c-0.1-0.1-0.5-0.2-0.5-0.3
				c0.2,0,0.4,0.1,0.5,0.1c-0.2-0.1-0.6-0.3-0.6-0.5c0.2,0.1,0.5,0.3,0.7,0.2c-0.3-0.2-0.8-0.4-0.9-0.7c0.3,0.1,0.6,0.4,0.8,0.4
				c-0.4-0.1-0.7-0.6-1.1-0.6c0.2,0.4,0.8,0.6,0.9,0.8c-0.3-0.2-0.6-0.3-1-0.5c0.1,0.4,0.6,0.5,0.9,0.8c-0.3,0-0.5-0.2-0.8-0.2
				c0.1,0.3,0.6,0.2,0.7,0.5c-0.1-0.1-0.3,0-0.5,0c0,0.2,0.4,0.2,0.5,0.3c-0.2,0-0.3,0-0.4,0.1c0.1,0.1,0.3,0.1,0.4,0.2
				c-0.1,0-0.2,0-0.2,0.1c0,0.1,0.3,0,0.3,0.1c-0.1,0-0.1,0.1-0.1,0.1c0.1,0,0.2,0,0.2,0c-0.1,0-0.1,0-0.1,0.1
				c0.4,0.2,0.7,0.9,1.3,1.2c-0.3,0.2,0.3,0.4-3.5,1.8c0.1,0,1.7-0.4,2.2-0.5c0.5-0.2,0.9-0.3,1.4-0.4c0.1,0,0.2-0.1,0.3-0.1
				c0.8-0.1,1.5,0.1,2.3-0.4c-0.6,0.1-1.6,0.2-2-0.1c0.5-0.8,0.2-2.9,0.6-3.3c0.4-0.4,1.1-1.7,1.9-0.6c0.1,0.2,0.2,0.4-0.1,0.9
				c-0.4,0.6-0.6,0.8-0.5,2.1c0,0.3,0,0.5-0.4,0.5c1.7,0.4,2.2,0.2,3.1,0c0.3,0,0.8-0.3,0.8,0c0,0.1-0.3,0.1-0.6,0.1
				c-0.5,0,0.2,0.2,0.4,0.2c0.1,0,1-0.1,1.5-0.2C83.4,158.7,83.2,158.7,82.9,158.6z"/>
			<path class="st11" d="M78,150c-3.8,0-6.9,3.1-6.9,6.9c0,3.8,3.1,6.9,6.9,6.9c3.8,0,6.9-3.1,6.9-6.9C85,153.1,81.9,150,78,150
				 M78,150.3c3.7,0,6.7,3,6.7,6.7c0,3.7-3,6.7-6.7,6.7c-3.7,0-6.7-3-6.7-6.7C71.4,153.3,74.4,150.3,78,150.3"/>
		</g>
	</g>
	<g>
		<g>
			<path class="st5" d="M256,178.8l-0.1,0.2C255.9,179,255.9,178.9,256,178.8L256,178.8z M257.3,178.3L257.3,178.3l-0.2,0.3
				C257.2,178.5,257.3,178.4,257.3,178.3L257.3,178.3z M262.4,179.2L262.4,179.2c0,0,1.1,0.2,1.9,0.8c-0.5-0.4-1.3-0.7-2.1-0.9
				c-0.7-0.2-1.2-0.3-1.6-0.2c0.4-0.2,0.6-0.3,0.8-0.3c0.6,0,1.1,0.2,1.8,0.6c-0.6-0.4-1.5-0.7-2.3-0.7c-0.4-0.1-0.8-0.1-1.2,0.1
				l0.8-0.5c0.5,0,1.1,0,1.8,0.3c-0.5-0.2-1.3-0.4-2-0.4c-0.8-0.1-1.4,0.1-1.9,0.5l0.7-0.7c0.5-0.1,1-0.1,1.7-0.1
				c-0.7-0.1-1.6-0.1-2.3,0.1c-0.6,0.2-1,0.3-1.3,0.6l0.4-0.6c0.6-0.3,1.7-0.5,2.3-0.5c-1.2-0.1-3.1,0.6-3.3,0.8
				c-0.4,0.2-0.6,0.5-0.8,0.8l0.4-0.8c0.6-0.4,1.3-0.7,2.3-0.8c-0.8,0.1-1.6,0.3-2.4,0.7c-0.8,0.4-1.3,0.9-1.5,1.6l0.2-0.9
				c0.5-0.5,1.2-1,2.3-1.3c-0.9,0.2-2,0.8-2.7,1.5c-0.3,0.4-0.6,0.7-0.6,1.1c0-0.2-0.1-0.3-0.1-0.3c0.2-0.3,1.2-1.4,2.2-2
				c-1.3,0.8-2.1,1.6-2.4,2c-0.5,0.7-0.5,1.3,0,2c0.4,0.3,0.9,0.3,1.6-0.1c0.6-0.1,1.2-0.1,2.1,0c-0.6-0.2-1.3-0.2-2-0.2l-0.1,0
				c0.3,0,0.6-0.1,0.9-0.3c0.5,0,1.1,0.1,1.7,0.4c-0.4-0.2-1.1-0.4-1.7-0.5l-0.3-0.1c0.4,0.1,0.8,0.2,1.3,0.1c0.4,0.1,1,0.2,1.4,0.2
				c-0.6-0.1-1-0.2-1.4-0.3l-0.7-0.5c0.6,0.3,1.1,0.3,1.8,0.3c0.4,0.1,0.9,0.3,1.3,0.5c-0.3-0.2-0.8-0.5-1.3-0.6l-0.6-0.4
				c0.4,0.2,0.8,0.3,1.4,0.5c0,0,0.7,0.2,1.2,0.5c-0.3-0.3-0.8-0.5-1.3-0.7l-0.3-0.4l0.2,0.1c0.3,0.2,0.6,0.3,1,0.3
				c0.3,0.1,0.6,0.3,1,0.6c-0.2-0.2-0.6-0.4-0.9-0.6l-0.3-0.5c0.4,0.3,1.1,0.6,1.8,0.8c0.3,0.2,0.6,0.4,0.9,0.6
				c-0.2-0.2-0.5-0.4-0.8-0.6c-0.1-0.2-0.3-0.4-0.5-0.6c0.3,0.2,0.9,0.4,1.7,0.7l0,0c0.3,0.2,0.6,0.4,0.9,0.6
				c-0.3-0.3-0.6-0.5-1-0.7l-0.6-0.6l0.2,0.1c0.6,0.1,1,0.4,1.7,0.9c-0.4-0.4-1-0.8-1.6-1c0.4,0.1,0.9,0.1,1.4,0.1
				c0.6,0.1,1,0.4,1.7,0.9c-0.3-0.4-0.9-0.7-1.5-0.9c-0.7-0.4-1.3-0.7-2-0.8L262.4,179.2z"/>
			<path class="st6" d="M256,181c-0.8-0.3-1.5-0.4-1.7-0.1C254.6,181.3,254.9,181.3,256,181L256,181z M257,180.9L257,180.9
				c-0.8-0.7-1.6-0.9-1.9-0.7C255.2,180.7,255.9,180.8,257,180.9L257,180.9z M258,180.5L258,180.5c-0.8-0.7-1.6-1-2-0.8
				C256.1,180.3,256.9,180.5,258,180.5L258,180.5z M258.7,180.4L258.7,180.4c-0.6-0.8-1.3-1.2-1.7-1.1
				C257,179.8,257.7,180.1,258.7,180.4L258.7,180.4z M259.7,180.3L259.7,180.3c-0.6-0.8-1.1-1.1-1.5-1
				C258.1,179.7,258.6,180,259.7,180.3L259.7,180.3z M259.3,179.5L259.3,179.5c0.1,0.3,0.6,0.6,1.7,1
				C260.3,179.7,259.7,179.3,259.3,179.5L259.3,179.5z M260.3,179.5L260.3,179.5c0.1,0.3,0.8,0.7,2,1.1
				C261.4,179.7,260.7,179.4,260.3,179.5L260.3,179.5z M260.1,179.3L260.1,179.3c0.3,0.2,0.9,0.1,2.1-0.1
				C261,178.9,260.3,178.9,260.1,179.3L260.1,179.3z M259,179.3L259,179.3c0.2-0.1,0.3-0.2,0.5-0.2c-0.1,0-0.2,0.1-0.3,0.2
				c0.8-0.1,1.2-0.6,1.8-0.8C260,178.4,259.2,178.6,259,179.3L259,179.3z M258.3,179L258.3,179c0.1-0.1,0.4-0.3,0.5-0.3
				c-0.1,0.1-0.3,0.2-0.4,0.4c0.6-0.1,1-0.6,1.8-1.1C259,178,258.2,178.5,258.3,179L258.3,179z M257.2,179.1L257.2,179.1
				c0.1-0.2,0.4-0.3,0.5-0.3c-0.1,0.1-0.3,0.2-0.3,0.4c0.5-0.2,1-0.9,1.7-1.4C257.8,177.9,257,178.6,257.2,179.1L257.2,179.1z
				 M256.1,179.5L256.1,179.5c0.1-0.2,0.3-0.4,0.4-0.4c-0.1,0.1-0.2,0.3-0.2,0.5c0.5-0.3,0.7-1,1.3-1.7
				C256.4,178.2,255.7,179,256.1,179.5L256.1,179.5z M256.1,178.2L256.1,178.2c-0.9,0.5-1.5,1.2-1.2,1.9c0.2-0.4,0.4-0.6,0.6-0.8
				c-0.2,0.2-0.3,0.5-0.4,0.8C255.7,179.7,255.6,179,256.1,178.2L256.1,178.2z M254.8,178.8L254.8,178.8c-0.8,0.5-1,1.2-0.7,2
				c0.1-0.1,0.2-0.5,0.3-1c0,0.5,0,0.9-0.1,1.1C254.9,180.4,254.5,179.4,254.8,178.8L254.8,178.8z M253.8,179.7L253.8,179.7
				c-0.5,0.7-0.5,1.3-0.1,1.8C254.4,181.3,253.9,180.6,253.8,179.7L253.8,179.7z M255.1,181.4L255.1,181.4c-0.8-0.2-1.2-0.1-1.3,0.2
				C254,181.7,254.1,181.9,255.1,181.4L255.1,181.4z M261,179.5L261,179.5c0.3,0.2,1,0.5,2.2,0.5C262.1,179.5,261.5,179.4,261,179.5
				L261,179.5z"/>
			<path class="st5" d="M244.1,180.8c0.6,0.3,1,0.7,1.4,1.1c1.7,2.6,2.4,4.2,2.7,4.5c0.2,0.4-0.2,0.9-1,1.4
				c-0.4,0.2-3.3-1.9-7.7-4.3l0-1c1.6,0.5,3.1,1.3,4.4,2.3c1.6,1.2,2.7,1.9,3.4,2.1c0.1-0.3-0.4-1.4-1.6-3.4
				c-0.3-0.6-0.5-1.1-0.6-1.5C244.9,181.6,244.5,181.2,244.1,180.8L244.1,180.8z"/>
			<path class="st6" d="M247.4,186.9l0,0.2c-0.5,0-1.4-0.5-3-1.4c1.3,0.9,2.3,1.4,2.9,1.5c-0.2,0.2-0.8,0-1.7-0.5
				c0.8,0.5,1.3,0.7,1.6,0.7c0,0.1,0,0.1-0.1,0.2c-0.6,0-3.2-1.7-7.6-4.3l0-0.6c2.3,0.7,3.3,1.7,4.6,2.5
				C245.7,186.2,246.8,187,247.4,186.9L247.4,186.9z M244.6,181.1L244.6,181.1c1,0.8,1.3,1.7,2.2,3.2c0.6,1,1,1.8,1.3,2.2
				c0,0.4-0.2,0.7-0.7,0.9c0.4-0.4-0.3-1.8-1-2.9C245.4,182.9,245.7,182.3,244.6,181.1L244.6,181.1z"/>
			<path class="st5" d="M254,174.6c0.6-1.8,1.3-2.6,1.9-3.5c-0.9,1.5-1.2,1.9-1.6,3l0,0.5c0-0.3,0.1-0.6,0.3-0.8
				c0.6-1.8,1.5-2.7,2.1-3.5c-0.9,1.5-1.3,1.9-1.7,2.9l0.1,0.4c0.1-0.5,0.3-0.9,0.5-1.1c0.8-1.7,1.5-2.2,2.2-3
				c-1.1,1.5-1.5,1.9-2,3.1l0.1,0.4c0.1-0.5,0.2-0.7,0.4-1c1-1.8,1.8-2.3,2.5-3.1c-1.2,1.5-1.7,1.8-2.3,3c0,0.1,0.1,0.2,0.1,0.3
				c0.1-0.5,0.4-1,0.8-1.5c0.5-0.6,1.5-1.7,2.4-2.7c-1.2,1.3-2.2,2.5-2.4,2.8l0,0.2c0.2-0.4,0.5-0.7,0.7-0.9
				c0.4-0.5,1.4-1.5,2.5-2.6c-1.1,1.2-2.2,2.3-2.4,2.7l0,0.5c0.4-0.4,0.9-0.7,1.4-1c0.5-0.4,1.4-1.4,2.4-2.5c-0.8,1-1.7,2-2.3,2.5
				c-0.2,0.6-0.5,1.1-0.9,1.6c0.1,0,0.3,0,0.5-0.1c0.4-0.3,1.5-1.4,2.5-2.6c-1,1.2-2.1,2.5-2.6,2.8c-0.2,0.2-0.4,0.5-0.7,0.7l0.3,0
				c0.3-0.2,1.1-1,2.3-2c-0.9,1-1.8,1.8-2.2,2.2c-0.2,0.2-0.4,0.4-0.7,0.6l0.4,0c0.4-0.3,1.1-1,2.1-1.8c-0.9,1-1.8,1.8-2.2,2.2
				c-0.2,0.2-0.5,0.4-0.8,0.6l0.4,0c0.4-0.3,1.1-0.8,2-1.5c-0.9,0.8-1.6,1.4-2.2,1.8c-0.3,0.2-0.6,0.4-0.9,0.6l0.4,0
				c0.4-0.2,1.1-0.7,2-1.4c-0.8,0.7-1.5,1.2-2.1,1.5c-0.3,0.3-0.5,0.5-0.9,0.7l0.1,0.1c0.5-0.3,1.3-0.8,2.1-1.4
				c-0.9,0.8-1.6,1.3-2.2,1.6c-0.2,0.2-0.4,0.4-0.7,0.5l0.2,0c0.4-0.2,1.1-0.7,2.1-1.4c-0.8,0.8-1.6,1.3-2.3,1.7
				c-0.9,0.9-1.7,1.3-2.6,1.1c-0.5-0.7-0.5-1.5,0-2.5c0.7-2,1.4-2.7,1.9-3.6c-0.9,1.5-1.2,1.9-1.6,3l0.1,0.4
				C253.7,175.2,253.9,174.9,254,174.6L254,174.6z"/>
			<path class="st6" d="M258.3,173.4c-0.7,0.7-1,0.9-2,0.7c0.2-0.1,0.2-0.2,0.8-0.4c-0.6,0-0.6,0.1-0.8,0.2
				C257.1,173.1,257.6,173.5,258.3,173.4L258.3,173.4z M255.5,177L255.5,177c-0.6,0.9-1,1.2-2.1,1.2c0.1-0.2,0.5-0.4,1.1-0.7
				c-0.6,0.2-1,0.4-1.2,0.5C253.9,177,254.8,177.3,255.5,177L255.5,177z M256.2,176.2L256.2,176.2c-0.7,0.7-1.1,1-2.1,0.7
				c0.2-0.1,0.6-0.4,1.3-0.5c-0.6,0-1.1,0.2-1.3,0.3C254.9,175.9,255.4,176.3,256.2,176.2L256.2,176.2z M257,175.3L257,175.3
				c-0.7,0.7-1.1,1-2.1,0.7c0.2-0.1,0.6-0.4,1.3-0.5c-0.6,0-1.1,0.2-1.3,0.3C255.7,175,256.2,175.3,257,175.3L257,175.3z
				 M257.7,174.3L257.7,174.3c-0.7,0.7-1.1,1-2.1,0.7c0.2-0.1,0.4-0.3,1-0.4c-0.6,0-0.8,0.1-1,0.2
				C256.4,174,256.9,174.4,257.7,174.3L257.7,174.3z M258.7,172.6L258.7,172.6c-0.7,0.7-0.9,0.8-1.8,0.6c0.1-0.1,0.1-0.2,0.7-0.3
				c-0.6,0-0.6,0-0.8,0.1C257.4,172.5,258,172.7,258.7,172.6L258.7,172.6z M259.2,171.7L259.2,171.7c-0.5,0.7-0.6,0.9-1.5,0.8
				c0.1-0.1,0.1-0.2,0.6-0.4c-0.5,0.1-0.5,0.1-0.7,0.2C258,171.7,258.5,171.8,259.2,171.7L259.2,171.7z M253.5,175.6L253.5,175.6
				c0.1,0.8,0.5,1.5-0.2,2.4c0.1-0.2-0.1-0.5,0-1c-0.2,0.5-0.1,0.9-0.2,1C252.7,177.1,252.9,176.4,253.5,175.6L253.5,175.6z
				 M254.3,174.6L254.3,174.6c0.1,0.7,0.5,1.3-0.2,2.1c0.1-0.2-0.1-0.4,0-0.9c-0.1,0.4-0.1,0.7-0.2,0.9
				C253.6,175.9,253.8,175.3,254.3,174.6L254.3,174.6z M255,173.8L255,173.8c0.1,0.7,0.4,1.6-0.3,2.1
				C254.3,175,254.5,174.5,255,173.8L255,173.8z M255.7,172.9L255.7,172.9c0.1,0.7,0.4,1.6-0.3,2.1
				C255.1,174.1,255.2,173.6,255.7,172.9L255.7,172.9z M256.4,172.2L256.4,172.2c0.1,0.6,0.3,1.3-0.3,1.8
				C255.9,173.3,256,172.8,256.4,172.2L256.4,172.2z M257.3,171.3L257.3,171.3c0,0.6,0.1,1.4-0.6,1.7
				C256.6,172.3,256.8,171.8,257.3,171.3L257.3,171.3z M258,170.7L258,170.7c0,0.5,0.1,1.2-0.5,1.5
				C257.3,171.5,257.5,171.2,258,170.7L258,170.7z M259.4,170.2L259.4,170.2c-0.2,0.5-0.5,1.4-1.4,1.6
				C258.1,170.9,259,170.5,259.4,170.2L259.4,170.2z"/>
			<path class="st5" d="M249.7,185.4c-0.2,0.2-0.5,0.3-0.8,0.3c-2.8,0.3-6-0.5-9.3-2.5l0-0.6c3.4,2.1,6.4,2.9,9.1,2.5
				c0.1-0.2,0.3-0.3,0.4-0.3L249.7,185.4z"/>
			<path class="st5" d="M252.7,182.5l-0.2,0.1C252.6,182.6,252.7,182.6,252.7,182.5L252.7,182.5z M253.3,181L253.3,181l-0.4,0.2
				C253.1,181.2,253.2,181.1,253.3,181L253.3,181z M252.2,175.2L252.2,175.2c0,0-0.2-1.3-1-2.2c0.5,0.6,0.9,1.5,1.2,2.4
				c0.3,0.8,0.4,1.4,0.3,1.8c0.2-0.4,0.3-0.7,0.3-0.9c-0.1-0.6-0.3-1.2-0.7-2c0.5,0.7,0.9,1.8,1,2.7c0.1,0.5,0.1,0.9-0.1,1.3
				l0.6-0.9c0-0.6-0.1-1.2-0.4-2c0.3,0.6,0.5,1.5,0.5,2.2c0.1,0.9-0.1,1.6-0.6,2.1l0.9-0.8c0.2-0.6,0.2-1.2,0.1-2
				c0.2,0.8,0.2,1.8-0.1,2.6c-0.2,0.6-0.4,1.1-0.8,1.4l0.7-0.5c0.3-0.7,0.6-2,0.6-2.6c0.1,1.3-0.8,3.5-1,3.7
				c-0.2,0.4-0.6,0.7-0.9,0.9l1-0.4c0.5-0.7,0.8-1.5,1-2.6c-0.1,0.8-0.4,1.8-0.8,2.7c-0.4,0.9-1.1,1.5-2,1.7l1.1-0.2
				c0.6-0.6,1.2-1.4,1.6-2.5c-0.3,1.1-1,2.2-1.8,3c-0.4,0.4-0.9,0.7-1.3,0.7c0.2,0,0.3,0.1,0.4,0.2c0.4-0.2,1.7-1.3,2.5-2.4
				c-1,1.5-2,2.3-2.5,2.7c-0.9,0.5-1.7,0.5-2.5,0c-0.4-0.5-0.4-1.1,0.1-1.8c0.2-0.7,0.1-1.4-0.1-2.3c0.2,0.7,0.3,1.5,0.2,2.3l0,0.1
				c0-0.3,0.1-0.6,0.4-1.1c0-0.5-0.2-1.2-0.5-1.9c0.3,0.5,0.5,1.2,0.6,1.9l0.2,0.3c-0.1-0.5-0.2-0.9-0.2-1.5
				c-0.2-0.5-0.3-1.1-0.3-1.6c0.1,0.7,0.2,1.2,0.4,1.6l0.6,0.8c-0.3-0.7-0.4-1.3-0.4-2c-0.1-0.4-0.4-1-0.7-1.5
				c0.3,0.4,0.6,0.9,0.8,1.5l0.6,0.7c-0.2-0.4-0.4-1-0.6-1.6c0,0-0.3-0.8-0.7-1.4c0.4,0.4,0.7,0.9,0.9,1.5l0.5,0.3l-0.1-0.2
				c-0.2-0.3-0.3-0.7-0.4-1.1c-0.2-0.4-0.4-0.7-0.7-1.1c0.3,0.3,0.5,0.7,0.7,1.1l0.6,0.4c-0.4-0.5-0.8-1.2-1.1-2.1
				c-0.2-0.3-0.5-0.7-0.8-1c0.3,0.2,0.6,0.6,0.8,0.9c0.3,0.1,0.5,0.3,0.8,0.6c-0.3-0.4-0.6-1-0.9-1.9l0,0c-0.2-0.3-0.5-0.7-0.8-1
				c0.3,0.3,0.7,0.7,0.9,1.2l0.8,0.7l-0.1-0.2c-0.2-0.7-0.5-1.2-1.2-1.9c0.5,0.4,1,1.1,1.3,1.8c-0.1-0.5-0.1-1-0.1-1.6
				c-0.2-0.6-0.5-1.2-1.2-1.9c0.5,0.4,0.9,1,1.2,1.7c0.5,0.8,0.9,1.5,1,2.3L252.2,175.2z"/>
			<path class="st6" d="M250.1,182.5c0.4,0.9,0.6,1.7,0.1,1.9C249.7,184,249.7,183.6,250.1,182.5L250.1,182.5z M250.2,181.3
				L250.2,181.3c0.8,0.9,1.1,1.8,0.8,2.2C250.5,183.4,250.3,182.6,250.2,181.3L250.2,181.3z M250.6,180.2L250.6,180.2
				c0.8,0.9,1.3,1.9,1,2.3C251,182.3,250.7,181.4,250.6,180.2L250.6,180.2z M250.8,179.4L250.8,179.4c1,0.7,1.5,1.5,1.3,1.9
				C251.5,181.3,251.2,180.6,250.8,179.4L250.8,179.4z M250.9,178.3L250.9,178.3c1,0.7,1.4,1.3,1.2,1.7
				C251.7,180.1,251.3,179.5,250.9,178.3L250.9,178.3z M251.9,178.7L251.9,178.7c-0.3-0.1-0.8-0.8-1.3-2
				C251.7,177.6,252.1,178.3,251.9,178.7L251.9,178.7z M251.9,177.6L251.9,177.6c-0.4-0.2-0.8-0.9-1.4-2.3
				C251.6,176.4,252,177.1,251.9,177.6L251.9,177.6z M252.2,177.9L252.2,177.9c-0.2-0.3-0.2-1.1,0.1-2.4
				C252.6,176.9,252.6,177.7,252.2,177.9L252.2,177.9z M252.2,179L252.2,179c0.2-0.2,0.2-0.4,0.2-0.6c0,0.1-0.1,0.2-0.3,0.4
				c0.1-0.9,0.8-1.4,0.9-2C253.2,178,253,178.9,252.2,179L252.2,179z M252.5,179.8L252.5,179.8c0.2-0.2,0.3-0.5,0.3-0.6
				c-0.1,0.1-0.2,0.3-0.5,0.4c0.2-0.6,0.8-1.1,1.3-2C253.7,179.1,253.2,180.1,252.5,179.8L252.5,179.8z M252.4,181.1L252.4,181.1
				c0.2-0.1,0.4-0.4,0.4-0.5c-0.1,0.1-0.3,0.3-0.5,0.4c0.3-0.6,1.1-1.1,1.7-1.8C253.9,180.5,253.1,181.4,252.4,181.1L252.4,181.1z
				 M251.9,182.4L251.9,182.4c0.2-0.1,0.5-0.3,0.5-0.4c-0.2,0.1-0.3,0.2-0.6,0.3c0.4-0.5,1.3-0.8,2.1-1.4
				C253.5,182.1,252.5,182.8,251.9,182.4L251.9,182.4z M253.5,182.4L253.5,182.4c-0.6,1-1.5,1.6-2.3,1.3c0.5-0.2,0.8-0.4,1-0.6
				c-0.3,0.2-0.6,0.4-1,0.4C251.6,182.8,252.6,182.9,253.5,182.4L253.5,182.4z M252.8,183.8L252.8,183.8c-0.6,0.9-1.5,1.1-2.5,0.7
				c0.2-0.1,0.6-0.2,1.3-0.3c-0.6,0-1.1,0-1.3,0.1C250.8,183.7,252.1,184.2,252.8,183.8L252.8,183.8z M251.7,185L251.7,185
				c-0.8,0.6-1.6,0.6-2.2,0.1C249.7,184.3,250.6,184.8,251.7,185L251.7,185z M249.6,183.5L249.6,183.5c0.2,0.9,0.1,1.4-0.2,1.5
				C249.2,184.7,248.9,184.5,249.6,183.5L249.6,183.5z M251.9,176.8L251.9,176.8c-0.3-0.3-0.7-1.1-0.7-2.6
				C251.8,175.6,252,176.2,251.9,176.8L251.9,176.8z"/>
			<path class="st6" d="M249.5,185.5c-0.2-0.1-0.3-0.2-0.4-0.4c-0.1,0-0.2,0.1-0.3,0.2c-2.6,0.5-5.7-0.3-9.1-2.4l0,0.3
				c3.5,2.1,6.6,2.9,9.1,2.5C249.1,185.6,249.4,185.5,249.5,185.5L249.5,185.5z"/>
		</g>
		<circle class="st12" cx="231.7" cy="168.3" r="19.8"/>
		<g>
			<path class="st4" d="M247.5,167.9c-0.3-0.3-0.7-0.3-1.1-0.2c0-0.3,0-0.6,0.1-0.8c0-0.2-0.4-0.2-0.5-0.1c-0.2,0.1-0.4,0.2-0.5,0.4
				c-0.3,0-0.5,0-0.7,0.1c-0.7,0.3-1,1.1-1.1,1.8c0,0.1-0.1,0.3-0.1,0.5c0,0,0,0,0,0c-0.1,0.3-0.2,0.7-0.4,0.8
				c-0.2,0.1-0.3-0.8-0.3-0.9c0-1,0.2-1.9,0.4-2.8c0-0.2-0.2-0.3-0.4-0.2c-0.2,0.1-0.5,0.2-0.6,0.4c-0.2,0.7-0.3,1.4-0.4,2.1
				c-0.1,0.3-0.2,0.6-0.3,0.9c0,0,0,0,0,0c-0.1,0-0.1-0.1-0.2-0.1c-0.5-0.3-0.3-1.2-0.3-1.6c0.1-0.6,0.2-1.2,0.5-1.8
				c0.1-0.2,0-0.3-0.2-0.3c-0.2,0-0.5,0.2-0.6,0.4c-0.2,0.5-0.3,1-0.5,1.5c-0.1,0.5-0.4,1-0.6,1.3c0,0-0.1,0.1-0.1,0.1
				c0,0,0,0,0-0.1c-0.1-0.4-0.1-0.8,0-1.2c0-0.6,0.1-1.2,0.2-1.8c0,0,0,0,0,0c0-0.5-0.4-0.8-0.9-0.8c-0.5,0-1,0.4-1.3,0.7
				c-0.3,0.5-0.5,1.2-0.6,1.3c-0.1,0.5-0.3,1-0.6,1.4c-0.1,0-0.1-0.1-0.1-0.2c-0.1-0.3-0.2-0.6-0.2-0.9c-0.1-0.9-0.1-1.7,0-2.6
				c0,0,0,0,0,0c0,0,0-0.1,0-0.1c0,0-0.1,0-0.1-0.1c-0.2-0.1-0.5,0.1-0.7,0.3c-0.5,0.6-0.5,1.4-0.6,2c-0.1,0.4-0.2,0.8-0.3,1.2
				c0,0,0,0.1-0.1,0.2c-0.1-0.1-0.2-0.2-0.2-0.3c0,0,0,0,0,0c0-0.2-0.1-0.2-0.3-0.2c-0.2,0.1-0.5,0.3-0.6,0.5c0,0,0,0,0,0
				c0,0,0,0,0,0c-0.2,0-0.2-0.2-0.3-0.3c-0.1-0.3-0.1-0.6-0.1-0.9c0-0.2,0-0.4,0-0.6c0-0.5,0.1-0.9,0.1-1.4c0-0.1,0-0.3,0-0.4
				c0-0.2-0.3-0.2-0.4-0.1c-0.2,0.1-0.5,0.3-0.5,0.6c0,0.3,0,0.5,0,0.8c0,0.3,0,0.5,0,0.8c0,0.2,0,0.4-0.1,0.7c0,0.3-0.1,0.6-0.2,1
				c0,0,0,0,0,0c-0.1,0-0.1,0-0.2,0c-0.5-0.2-0.5-1.1-0.5-1.5c0-0.6,0-1.3,0.2-1.8c0-0.1,0.1-0.2,0-0.3c-0.1-0.1-0.3,0-0.4,0.1
				c-0.1,0.1-0.4,0.4-0.6,0.5c-0.4,0.2-0.8,0.1-1.1-0.1c-0.1-0.1-0.2-0.2-0.4-0.3c-0.4-0.2-0.8,0-1.1,0.3c0-0.3-0.1-0.5-0.2-0.8
				c-0.1-0.2-0.5,0-0.5,0.1c-0.2,0.1-0.4,0.4-0.3,0.6c-0.3,0.1-0.5,0.3-0.7,0.4c-0.6,0.6-0.6,1.4-0.6,2.1c0,0.1,0,0.3,0,0.5
				c0,0.1,0,0.8-0.2,1c-0.2,0.2-0.6-0.6-0.6-0.7c-0.3-0.9-0.3-1.9-0.4-2.8c0-0.2-0.3-0.1-0.4,0c-0.2,0.1-0.4,0.4-0.4,0.6
				c0,0.7,0.1,1.5,0.1,2.2c0,0.3,0,0.7-0.1,1c0,0,0,0,0,0c-0.1,0-0.1,0-0.2,0c-0.5-0.1-0.6-1-0.7-1.4c-0.1-0.6-0.1-1.3,0-1.9
				c0-0.2-0.1-0.3-0.3-0.2c-0.2,0.1-0.5,0.4-0.5,0.6c-0.1,0.8-0.1,1.6,0.1,2.4c0.1,0.6,0.4,1.5,1.1,1.4c0.5-0.1,0.8-0.4,1.1-0.8
				c0.1,0.1,0.1,0.2,0.2,0.3c0.4,0.5,1.1,0,1.5-0.4c0-0.1,0.1-0.1,0.1-0.2c0.1,0.1,0.2,0.2,0.3,0.3c0.2,0.2,0.5,0.2,0.8,0.1
				c0.1,0,0.2-0.1,0.3-0.1c0,0.9,0.1,1.8,0.1,2.7c0,0.2,0.3,0.2,0.4,0.1c0.2-0.1,0.4-0.4,0.4-0.6c0-0.7,0-1.4,0-2.1
				c0.3,0,0.7-0.2,0.9-0.5c0.6-0.6,0.7-1.5,0.6-2.3c0-0.1,0-0.3-0.1-0.4c0.3,0,0.5-0.2,0.8-0.3c-0.1,0.6-0.1,1.2-0.1,1.8
				c0,0.6,0.2,1.5,0.9,1.6c0.4,0,0.8-0.2,1.1-0.5c0.2,0.3,0.5,0.5,0.9,0.5c0.2,0,0.3-0.1,0.4-0.2c0.3,0.3,0.8,0.3,1.2,0
				c0.3-0.3,0.5-0.6,0.6-0.9c0,0.1,0,0.2,0,0.3c0.1,0.3,0.1,0.6,0.3,0.9c0.2,0.3,0.6,0.1,0.9,0c0.2-0.1,0.5-0.3,0.6-0.5
				c0.1,0.3,0.2,0.6,0.4,0.7c0.4,0.2,0.9,0,1.2-0.2c0,0.2,0.1,0.4,0.3,0.5c0.5,0.2,1-0.2,1.3-0.5c0,0,0,0,0,0
				c0.1,0.4,0.2,0.8,0.7,0.9c0.5,0.2,0.9,0,1.2-0.3c0,0.1,0.1,0.2,0.1,0.3c0.3,0.7,1,0.4,1.4,0.2c0.1,0,0.1-0.1,0.2-0.1
				c0,0.1,0.1,0.3,0.2,0.4c0.1,0.3,0.4,0.4,0.7,0.5c0.1,0,0.2,0,0.3,0c-0.2,0.9-0.4,1.7-0.7,2.6c-0.1,0.2,0.2,0.3,0.3,0.2
				c0.2,0,0.5-0.2,0.5-0.4c0.2-0.7,0.4-1.3,0.6-2c0.3,0.1,0.7,0.1,1-0.1c0.7-0.3,1-1.2,1.2-2C247.8,169.4,248,168.4,247.5,167.9z
				 M226.7,169.2c0,0-0.1,0-0.1,0c-0.2-0.1-0.3-0.2-0.4-0.3c-0.3-0.4-0.3-0.9-0.4-1.4c0-0.4,0-0.8,0.1-1.2c0,0,0.1,0,0.1,0
				c0.3,0.2,0.5,0.6,0.6,1l0,0C226.6,167.9,226.7,168.5,226.7,169.2C226.8,169.1,226.8,169.2,226.7,169.2z M228.2,169
				C228.2,169,228.2,169,228.2,169C228.2,169,228.2,169,228.2,169c-0.4,0.1-0.6-0.1-0.6-0.4c0,0,0,0,0,0c0-0.7-0.1-1.3-0.2-2
				c0-0.2,0-0.3,0-0.5c0,0,0,0,0,0c0,0,0,0,0,0c0.1,0,0.2,0,0.3,0.1c0,0,0,0,0,0c0,0,0.1,0.1,0.1,0.1c0.3,0.3,0.4,0.8,0.4,1.2
				C228.4,168,228.4,168.5,228.2,169z M238.6,166.7c-0.1,0.8-0.2,1.6-0.5,2.4c0,0-0.1,0.1-0.1,0.2c0,0-0.1,0-0.1,0
				c-0.2-0.1-0.2-0.4-0.3-0.5c-0.1-0.6,0-1.3,0.2-1.8c0.1-0.2,0.2-0.5,0.3-0.5c0,0,0,0,0,0c0,0,0.1,0,0.1,0
				C238.5,166.4,238.6,166.6,238.6,166.7z M245.3,169.1L245.3,169.1c-0.1,0.6-0.2,1.2-0.3,1.8c0,0,0,0,0,0c0,0,0,0,0,0
				c0,0-0.1-0.1-0.1-0.1c-0.1-0.1-0.2-0.3-0.2-0.5c-0.1-0.5-0.1-1,0-1.5c0.1-0.4,0.2-0.8,0.4-1.1c0,0,0,0.1,0.1,0.1
				C245.3,168.2,245.4,168.7,245.3,169.1z M246.8,170c-0.1,0.5-0.2,1-0.5,1.3c0,0,0,0,0,0c0,0,0,0,0,0c-0.3-0.1-0.4-0.4-0.4-0.7
				c0,0,0,0,0,0c0.1-0.6,0.3-1.3,0.4-2c0-0.2,0.1-0.3,0.2-0.5c0,0,0,0,0,0c0,0,0,0,0,0c0.1,0,0.2,0.2,0.3,0.3
				C246.9,169,246.9,169.6,246.8,170z"/>
			<path class="st4" d="M243.5,165.5c0.1-0.1,0.4-0.3,0.3-0.5c-0.1-0.2-0.5-0.1-0.6,0c-0.3,0.2-0.6,0.3-1,0
				c-0.1-0.1-0.3-0.2-0.4-0.3c-0.2-0.3-1.1,0.2-0.9,0.5C241.6,166.2,242.8,165.9,243.5,165.5z"/>
			<path class="st4" d="M218.4,167c-0.1-0.4-0.2-0.7-0.3-1.1c0.8-0.2,1.5-0.5,2.2-0.8c0.2-0.1,0.4-0.4,0.5-0.6
				c0-0.2-0.1-0.3-0.3-0.2c-1.3,0.6-2.8,0.9-4.1,1.4c-0.5,0.2-1.1,0.6-1.3,1.1c-0.3,0.6-0.2,1.2,0.1,1.7c0.2,0.3,0.9-0.6,0.7-0.9
				c-0.1-0.2-0.2-0.4-0.3-0.6c0,0,0-0.1,0-0.1c0.3-0.3,0.8-0.4,1.2-0.5c0.1,0,0.2-0.1,0.3-0.1c0.2,0.4,0.3,0.8,0.4,1.2
				c-0.5,0.3-0.8,0.8-1.1,1.2c-0.5,1-0.6,3.7,1.2,3.4c1.2-0.2,1.3-1.6,1.2-2.6c-0.1-0.5-0.1-1.1-0.2-1.6c0.1,0,0.2,0,0.3,0
				c0.7,0.1,1,0.7,1.1,1.3c0.1,0.5,0,1.2-0.4,1.6c-0.1,0.1-0.3,0.5-0.2,0.7c0.1,0.2,0.4-0.1,0.5-0.2c0.9-1,1.3-2.7,0.4-3.9
				C219.9,166.9,219.1,166.8,218.4,167z M218,171.1c-0.3,0-0.5-0.1-0.7-0.2c-0.5-0.4-0.6-1.5-0.2-2.2c0.2-0.3,0.4-0.4,0.7-0.6
				c0.2,0.6,0.3,1.3,0.4,1.9c0,0.3,0.1,0.6,0.1,0.9c0,0,0,0.1,0,0.1C218.1,171.1,218,171.1,218,171.1z"/>
		</g>
		<g>
			<path class="st4" d="M236.6,177.1c-0.2,0.3-0.6-0.5-0.6-0.6c0-0.1-0.1-0.2-0.1-0.3c-0.1-0.2-0.2-0.5-0.2-0.7c0,0,0-0.1,0-0.1
				c-0.1-0.2-0.3,0.2-0.3,0.4c0.1,0.3,0.2,0.6,0.2,1c0,0.2,0.1,0.3,0.1,0.5c0,0.2,0,0.3-0.2,0.2c-0.5-0.2-0.5-1.3-0.5-1.7
				c0-0.3-0.3,0.1-0.3,0.2c0,0.2,0,0.9,0.2,1.4c-0.1,0.2-0.3,0.4-0.4,0.3c-0.1-0.1-0.1-0.4-0.2-0.5c-0.1-0.3-0.3-0.3-0.6-0.2l0,0
				c0-0.1,0-0.3,0.1-0.4c0-0.1,0.1-0.2,0.3-0.2c0.2,0.1,0.5-0.4,0.3-0.4c-0.4-0.2-0.7,0-0.9,0.5c0-0.3-0.1-0.5-0.2-0.8
				c-0.1-0.2-0.4,0.2-0.4,0.4c0.2,0.5,0.2,1.1,0.2,1.7c0,0,0,0,0,0c-0.2,0.2-0.5,0.5-0.6,0.2c-0.1-0.2-0.1-0.5-0.1-0.7
				c0-0.2,0-0.4,0-0.6c0-0.1,0-0.1,0-0.2c0,0,0,0,0,0c-0.1-0.6-0.7-0.3-0.9,0.1c-0.3,0.4-0.4,0.9-0.4,1.4c-0.3,0.1-0.4,0.1-0.5-0.3
				c-0.1-0.5,0-1.1,0.1-1.6c0-0.3-0.4,0-0.4,0.1c-0.2,0.2-0.3,0.5-0.4,0.8c-0.1,0.2-0.1,0.3-0.2,0.5c0,0.1-0.1,0.2-0.1,0.3
				c-0.1,0.2-0.2,0-0.2-0.1c0-0.1,0-0.1-0.1-0.1c0,0-0.1,0-0.1,0c-0.2,0-0.3,0.1-0.5,0.1c0-0.1-0.1-0.2-0.2-0.3
				c0.3-0.3,0.5-0.8,0.6-1.2c0-0.3,0-0.6-0.3-0.6c-0.4-0.1-0.8,0.3-1,0.6c-0.1,0.2,0.5,0.1,0.5,0c0-0.1,0.1-0.4,0.2-0.2
				c0.1,0.1,0,0.3,0,0.4c0,0.2-0.2,0.7-0.4,0.8c-0.1,0-0.1,0-0.2,0c-0.1,0-0.3,0.1-0.3,0.2c-0.1,0.1-0.1,0.1,0,0.1
				c0.1,0,0.2,0,0.3,0c0.1,0,0.2,0.1,0.2,0.3c-0.5,0.2-1.1,0.4-1.4,0.9c-0.4,0.5,0.2,1,0.8,0.9c0.7-0.1,1-0.8,1.1-1.4
				c0-0.1,0-0.2,0-0.2c0.1,0,0.1,0,0.2,0c0,0.4,0.6,0.4,0.9,0.2c0.1-0.1,0.2-0.2,0.2-0.3c0,0.2,0.1,0.3,0.1,0.4c0.2,0.3,0.7,0.2,1,0
				c0.1,0.3,0.5,0.4,0.8,0.1c0,0,0,0,0.1-0.1c0,0.1,0.1,0.2,0.1,0.2c0.2,0.2,0.7-0.1,1-0.4c0,0.1,0,0.2,0,0.3c0,0.3,0.5-0.1,0.5-0.3
				c0-0.2,0-0.4,0-0.7c0.3,0,0.2,0.8,0.5,0.8c0.3,0.1,0.6-0.2,0.8-0.5c0.1,0.2,0.3,0.3,0.6,0.2c0.2-0.1,0.4-0.3,0.5-0.5
				c0.3,0.4,0.7,0,0.9-0.3C237,176.9,236.7,176.8,236.6,177.1z M228.1,178.1c-0.1,0.4-0.2,0.8-0.6,1c-0.1,0.1-0.2,0-0.3-0.1
				c-0.1-0.2,0-0.3,0.1-0.4c0.2-0.3,0.5-0.5,0.8-0.6C228.1,178.1,228.1,178.1,228.1,178.1z M231.6,178.1c-0.1,0-0.1-0.1-0.2-0.2
				c-0.1-0.2-0.1-0.5,0-0.8c0-0.1,0.1-0.3,0.1-0.4c0-0.1,0.1-0.1,0.1-0.2c0.1-0.1,0.2,0.1,0.2,0.2c0,0.3,0,0.7-0.1,1
				C231.8,177.9,231.7,178.1,231.6,178.1z"/>
		</g>
		<g>
			<g>
				<path class="st4" d="M230.3,181.5c0.1,0.8-0.1,1.6-0.2,2.4c0,0.3,0.5,0,0.5-0.2c0.1-0.4,0.1-0.7,0.2-1.1
					c0.1-0.2,0.2-0.8,0.4-0.5c0.1-0.1,0.3-0.2,0.4-0.4c-0.8-0.5-1.2,0.7-1.4,1.3c0,0.1,0.1,0.1,0.2,0.1c0.5-0.2,0.3,0.6,0.4,0.8
					c0.2,0.3,0.6,0,0.8-0.1c0.3-0.2,0-0.4-0.2-0.2c-0.2,0.2-0.2-0.3-0.2-0.3c0-0.1,0-0.3-0.1-0.4c-0.2-0.3-0.4-0.2-0.7-0.1
					c0.1,0,0.1,0.1,0.2,0.1c0.1-0.2,0.1-0.9,0.5-0.7c0.2,0.1,0.5-0.3,0.4-0.4c-1-0.8-1.5,1.7-1.6,2.2c0.2-0.1,0.3-0.1,0.5-0.2
					c0.1-0.8,0.2-1.6,0.1-2.5C230.7,181,230.2,181.3,230.3,181.5L230.3,181.5z"/>
				<path class="st4" d="M239.2,180.1c-0.3-0.6-0.8,0.1-1,0.5c-0.2,0.6-0.1,1.1,0.2,1.6c0.2,0.4,0.7,0.4,1-0.2
					C239.8,181.3,239.4,180.6,239.2,180.1c-0.1,0.1-0.2,0.3-0.3,0.4c0.1,0.4,0.6,2.3,1.3,1.3c0.2-0.2,0-0.6-0.2-0.2
					c-0.1,0.1-0.4-0.4-0.4-0.4C239.5,180.8,239.4,180.4,239.2,180.1c-0.1-0.2-0.4,0.3-0.3,0.4c0.1,0.3,0.2,0.7,0.3,1
					c0,0.1,0.1,0.4,0,0.4c-0.1,0-0.2,0-0.2-0.1c-0.2-0.2-0.3-0.4-0.3-0.7c0-0.1,0-0.3,0-0.4c0-0.1,0-0.2,0-0.2c0-0.2,0.3,0,0.3,0
					C239,180.7,239.3,180.2,239.2,180.1L239.2,180.1z"/>
				<path class="st4" d="M226.2,182.7c-0.1,0.5,0.4,0.8,0.9,0.6c0.5-0.2,0.6-0.6,0.7-1.1c0.1-0.3,0.1-0.9-0.2-1.1
					c-0.1-0.1-0.4-0.1-0.6,0c-0.3,0.1-0.5,0.4-0.6,0.6c-0.1,0.2,0.5,0.1,0.5-0.1c0.1-0.3,0.2-0.3,0.3,0c0,0.2,0,0.4,0,0.6
					c0,0.2-0.1,0.4-0.2,0.6c0,0.1-0.1,0.1-0.2,0.2c0,0,0,0-0.1-0.1c-0.2-0.1-0.2-0.2-0.2-0.3C226.8,182.4,226.3,182.5,226.2,182.7
					L226.2,182.7z"/>
				<path class="st4" d="M226.7,180.7c-0.2,1.3-0.5,2.5-1,3.7c-0.1,0.2,0.5,0.1,0.6,0c0.5-1.2,0.8-2.5,1-3.8
					C227.2,180.4,226.7,180.5,226.7,180.7L226.7,180.7z"/>
				<path class="st4" d="M232.1,181.9c0.1,0.7,0,1.4,0,2c0,0.2,0.5-0.1,0.5-0.2c0-0.5,0-1,0.1-1.4c0-0.1,0-0.1,0.1-0.2
					c0,0,0-0.1,0-0.1c0.1-0.1,0-0.1-0.1,0c0.1,0,0.1,0.2,0.1,0.2c0.2,0.5,0.1,1.1,0.1,1.7c0.2-0.1,0.3-0.2,0.5-0.3
					c0-0.5,0-1,0.1-1.5c0-0.1,0-0.2,0.1-0.3c-0.1,0.2-0.1,0.1,0,0.2c0.1,0.2,0.1,0.5,0.1,0.7c0,0.3-0.1,0.8,0.2,1
					c0.2,0.2,0.6-0.1,0.7-0.3c0.3-0.3,0-0.4-0.2-0.2c-0.1,0.1-0.1-0.2-0.2-0.3c0-0.3-0.1-0.6-0.1-0.8c0-0.2-0.1-0.8-0.4-0.8
					c-0.3,0-0.5,0.5-0.6,0.7c-0.2,0.5-0.2,1.2-0.2,1.7c0,0.3,0.5-0.1,0.5-0.3c0-0.4,0-0.9-0.1-1.3c0-0.2-0.1-0.8-0.3-0.8
					c-0.3-0.1-0.5,0.3-0.6,0.5c-0.2,0.6-0.3,1.2-0.3,1.9c0.2-0.1,0.3-0.2,0.5-0.2c0-0.7,0-1.4-0.1-2
					C232.5,181.4,232.1,181.7,232.1,181.9L232.1,181.9z"/>
				<path class="st4" d="M235.4,181.1c-0.5,0.2-0.7,0.8-0.7,1.3c0,0.4,0.1,1.3,0.7,1.2c0.7-0.1,0.8-0.9,0.8-1.3
					C236.2,181.9,236,181,235.4,181.1c-0.2,0-0.4,0.5-0.2,0.5c0.3,0,0.4,0.3,0.5,0.6c0.1,0.2,0.1,0.4,0.1,0.5c0,0.1,0,0.2,0,0.2
					c0,0.1-0.1,0.2,0,0.2c-0.3,0.2-0.5-0.4-0.5-0.5c-0.1-0.2-0.1-0.4-0.1-0.5c0-0.1,0-0.2,0-0.3c0-0.1,0.1-0.1,0-0.1
					C235.4,181.6,235.6,181.1,235.4,181.1z"/>
				<path class="st4" d="M237,182.8c0.8-0.4,0.8-1.4,0.5-2c-0.1-0.2-0.3-0.4-0.6-0.3c-0.5,0.2-0.6,0.8-0.5,1.2
					c0,0.2,0.4-0.2,0.4-0.4c0-0.1-0.1-0.4,0.1-0.3c0.1,0.1,0.2,0.2,0.2,0.3c0.1,0.2,0.2,0.8,0,1C237,182.4,236.7,182.9,237,182.8
					L237,182.8z"/>
				<path class="st4" d="M237.8,182.5c-0.6,0.6-1.1,1.5-0.9,2.2c0.2,0.6,1.1-0.2,1.3-0.5c0.3-0.7,0.1-2.8-1.1-1.8
					c-0.2,0.2-0.3,0.6,0,0.4c0.6-0.5,0.8,0.9,0.8,1.1c0,0.2-0.1,0.6-0.4,0.5c-0.5-0.2,0.1-1.2,0.4-1.5
					C238,182.7,238,182.2,237.8,182.5L237.8,182.5z"/>
				<path class="st4" d="M225.3,180.9c0.1-0.5-0.1-1.1-0.7-0.9c-0.4,0.1-0.6,0.5-0.8,0.8c-0.2,0.3-0.3,0.8-0.1,1.2
					c0.3,0.5,1,0.2,1.2,0c0.2-0.2-0.4-0.2-0.5-0.1c-0.1,0.2-0.2-0.3-0.2-0.3c0-0.2,0-0.5,0.1-0.7c0.1-0.2,0.2-0.4,0.3-0.5
					c0,0,0.1-0.1,0.1-0.1c0,0,0.1,0,0,0.1c0.1,0.2,0.1,0.5,0,0.6C224.7,181.1,225.3,181.1,225.3,180.9L225.3,180.9z"/>
				<path class="st4" d="M224.4,181.9c-0.1,0.5,0.4,0.8,0.9,0.7c0.5-0.1,0.7-0.6,0.8-1c0.1-0.3,0.2-0.8-0.1-1.2
					c-0.1-0.2-0.4-0.1-0.6-0.1c-0.3,0.1-0.5,0.3-0.6,0.6c-0.1,0.2,0.5,0.2,0.5,0c0.1-0.3,0.2-0.3,0.3,0c0,0.2,0,0.4,0,0.6
					c0,0.2-0.1,0.4-0.2,0.6c0,0.1-0.1,0.1-0.2,0.2c0,0,0,0-0.1-0.1c-0.2-0.1-0.2-0.2-0.1-0.4C225,181.6,224.5,181.7,224.4,181.9
					L224.4,181.9z"/>
				<path class="st4" d="M225,180c-0.3,1.3-0.7,2.5-1.3,3.6c-0.1,0.2,0.5,0.2,0.6,0c0.6-1.1,1-2.4,1.3-3.7
					C225.6,179.7,225,179.8,225,180L225,180z"/>
				<path class="st4" d="M228.4,181.6c-0.1,0.4-0.8,2.1,0.1,2.2c1.1,0.1,1.2-1.6,1.4-2.2c0-0.2-0.4,0-0.5,0.2
					c-0.1,0.4-0.2,0.9-0.4,1.3c-0.1,0.2-0.1,0.5-0.3,0.3c-0.2-0.2,0-0.7,0-0.9c0.1-0.3,0.2-0.6,0.2-1
					C228.9,181.2,228.4,181.4,228.4,181.6L228.4,181.6z"/>
				<path class="st4" d="M229.4,181.8c-0.1,0.9-0.2,1.7-0.3,2.6c0,0.2-0.1,1-0.5,0.9c-0.7-0.3,0.7-1.4,0.8-1.5
					c0.3-0.2-0.1-0.3-0.3-0.1c-0.5,0.4-1.3,0.9-1.2,1.6c0,0.3,0.5,0.5,0.8,0.4c0.6-0.2,0.8-0.7,0.9-1.2c0.2-0.9,0.2-1.9,0.3-2.9
					C229.9,181.3,229.4,181.6,229.4,181.8L229.4,181.8z"/>
			</g>
		</g>
		<circle class="st8" cx="215.8" cy="186" r="6.2"/>
		<path class="st13" d="M222.3,144.1c0,1.4-1.1,2.5-2.5,2.5c-1.4,0-2.5-1.1-2.5-2.5c0-1.4,1.1-2.5,2.5-2.5
			C221.1,141.5,222.3,142.7,222.3,144.1L222.3,144.1z"/>
		<path class="st10" d="M222.4,152.6c0,1.8-1.5,3.3-3.3,3.3c-1.8,0-3.3-1.5-3.3-3.3c0-1.8,1.5-3.3,3.3-3.3
			C220.9,149.3,222.4,150.8,222.4,152.6L222.4,152.6z"/>
		<path class="st10" d="M213.7,147.6c0,1.1-0.9,1.9-1.9,1.9c-1.1,0-1.9-0.9-1.9-1.9c0-1.1,0.9-1.9,1.9-1.9
			C212.8,145.6,213.7,146.5,213.7,147.6L213.7,147.6z"/>
		<g>
			<circle class="st8" cx="248.6" cy="150.2" r="10.9"/>
			<g>
				<path class="st4" d="M245.9,148.7c-0.9,0.1-1.2,1.2-1.2,1.9l0,0v0c0,0.1,0,0.2,0,0.3c0,0.4,0,0.6-0.1,1c0,0.1-0.1,0.4-0.1,0.4
					c-0.3,0-0.6-0.5-0.7-0.7c-0.2-0.6-0.4-1.1-0.5-1.7c-0.1-0.6-0.2-1.3-0.2-1.9c0-0.3,0-0.5,0-0.8c0-0.1,0-0.2,0-0.3
					c0-0.1,0-0.2,0-0.2c0.1-0.5-0.6,0-0.7,0.2c-0.7,1.3-0.5,2.8-0.5,4.2c0,0.4,0,0.8-0.1,1.1c0,0.3-0.1,0.7-0.3,0.9
					c-0.1,0.1-0.4,0-0.5,0c-0.2-0.1-0.3-0.3-0.3-0.5c0-0.2-0.3-0.1-0.4,0c-0.2,0.2-0.3,0.4-0.3,0.6c0.1,0.5,0.5,0.9,1,0.8
					c0.8-0.2,1.2-1.2,1.4-2c0.1-0.4,0.1-0.7,0.2-1.1c0.1,0.5,0.3,1.1,0.5,1.6c0.2,0.4,0.5,0.7,1,0.6c0.3-0.1,0.6-0.4,0.7-0.8
					c0.2,0.4,0.4,0.6,0.8,0.6c0.5,0,0.8-0.5,1-0.9c0.2-0.4,0.3-0.9,0.3-1.4C247,149.9,246.8,148.6,245.9,148.7z M246.2,151.8
					c0,0.1,0,0.2-0.1,0.3c-0.2,0-0.3-0.3-0.4-0.4c-0.1-0.3-0.2-0.6-0.2-1c0-0.3,0-0.7,0-1c0-0.1,0-0.2,0.1-0.3
					c0.5,0.3,0.5,0.9,0.6,1.4C246.2,151.1,246.3,151.5,246.2,151.8z"/>
				<path class="st4" d="M256.8,150c-1-0.4-1.5,1-1.7,1.7c-0.2,0.7-0.4,1.9,0.5,2.2c0.4,0.2,0.9-0.1,1.1-0.4
					c0.3-0.3,0.5-0.8,0.6-1.2C257.5,151.6,257.7,150.3,256.8,150z M256.2,153.1c0,0.1-0.1,0.2-0.1,0.2c-0.2-0.1-0.2-0.4-0.2-0.5
					c-0.1-0.3,0-0.7,0-1c0.1-0.3,0.2-0.7,0.3-1c0-0.1,0.1-0.1,0.1-0.2c0.4,0.4,0.3,1,0.2,1.5C256.4,152.5,256.3,152.8,256.2,153.1z"
					/>
				<path class="st4" d="M254.1,150.1c0.2-0.2,0.4-0.5,0.5-0.8c0.4-0.5,0.7-1.2,0.7-1.9c0-0.6-0.9-0.7-1.3-0.5c-0.6,0.3-1,1-1.2,1.6
					c-0.2,0.8-0.4,1.7-0.4,2.6v0c-0.3,0.4-0.9,1.1-1.4,0.8c-0.1-0.1-0.2-0.2-0.2-0.4c0.4-0.4,0.8-0.9,1.1-1.3
					c0.3-0.4,0.5-1.2-0.1-1.5c-0.5-0.3-1.1,0-1.4,0.4c-0.3,0.4-0.5,0.9-0.5,1.4c0,0.3-0.1,0.7,0,1.1c-0.3,0.2-0.6,0.3-1,0.2
					c-0.4-0.1-0.5-0.5-0.6-0.8c-0.1-0.4-0.1-0.9,0-1.4c0-0.1,0.1-0.3,0.1-0.4c0,0,0-0.1,0-0.1c0.2,0.1,0.3,0.5,0.4,0.6
					c0.1,0.3,0.9-0.2,0.8-0.5c-0.1-0.3-0.2-0.6-0.6-0.8c-0.3-0.2-0.8,0.1-1,0.3c-0.6,0.6-0.7,1.5-0.6,2.2c0,0.5,0.1,1.1,0.6,1.4
					c0.6,0.4,1.4,0,2-0.3c0.1,0.4,0.4,0.6,0.9,0.6c0.6-0.1,1.1-0.4,1.5-0.8c0,0.4,0.1,0.9,0.4,1.1c0.5,0.3,1.2,0,1.5-0.5
					c0.4-0.6,0.7-1.4,0.4-2.1C254.7,150.3,254.4,150.1,254.1,150.1z M250.8,149.8c0-0.1,0.1-0.2,0.2-0.4c0,0,0,0,0,0
					c0.2,0.1,0.3,0.4,0.3,0.5c-0.1,0.4-0.3,0.7-0.6,1c0-0.1,0-0.1,0-0.2C250.7,150.5,250.7,150.1,250.8,149.8z M254,148
					c0.1-0.1,0.1-0.3,0.2-0.4c0,0,0,0,0,0c0.4,0.4,0,1-0.2,1.4c-0.2,0.4-0.4,0.8-0.7,1.1c0.1-0.4,0.1-0.8,0.2-1.1
					C253.7,148.7,253.8,148.3,254,148z M253.8,152.4c0,0-0.1,0.1-0.1,0.2c0,0-0.1,0-0.1,0c-0.2-0.1-0.3-0.7-0.3-0.9
					c0-0.2,0-0.4,0-0.6c0.1-0.1,0.2-0.2,0.3-0.3c0.2-0.1,0.4,0.1,0.4,0.4C254.1,151.6,253.9,152.1,253.8,152.4z"/>
			</g>
		</g>
		<g>
			<path class="st4" d="M211.5,185c0.2-0.6,0.7-0.2,0.8,0.1c0.2,0.4,0,0.9-0.3,1.2c-0.2,0.3-0.5,0.5-0.8,0.7
				c-0.2,0.1-0.3,0.2-0.4,0.3c0,0.1-0.1,0.2,0,0.2c0.2,0.2,0.7,0.2,0.9,0.2c0.5,0,1,0,1.4-0.2c0.2-0.1,0.5-0.7,0-0.5
				c-0.3,0.2-0.7,0.1-1.1,0.1c-0.2,0-0.6,0-0.7-0.1c0,0.1,0,0.2,0,0.2c-0.2,0.3-0.1,0.2,0.1,0.1c0.1-0.1,0.3-0.2,0.4-0.3
				c0.2-0.2,0.4-0.4,0.6-0.7c0.4-0.5,0.6-1,0.5-1.6c-0.2-1.4-1.7-0.4-2,0.4C210.8,185.6,211.4,185.2,211.5,185L211.5,185z"/>
			<path class="st4" d="M215,187.2c0.5,1.5,2.7,0.5,2.4-0.9c-0.2-0.7-1-0.6-1.5-0.7c-0.3-0.1-0.3-0.3-0.3-0.6
				c0.1-0.3,0.1-0.3-0.1-0.2c0.1,0,0.2,0,0.3-0.1c0.5-0.1,1-0.1,1.4,0.1c0.2,0.1,0.7-0.4,0.4-0.5c-0.5-0.3-1.2-0.2-1.8-0.1
				c-0.6,0.1-0.7,0.6-0.7,1.2c0,0.6,0.6,0.7,1.1,0.8c0.4,0.1,0.7,0.2,0.8,0.6c0.1,0.7-0.7,0.6-1,0.4c-0.2-0.1-0.2-0.3-0.3-0.5
				C215.4,186.5,214.9,187,215,187.2L215,187.2z"/>
			<g>
				<path class="st4" d="M220.2,184.5c-0.6,1.1-1.4,2-2.2,3c-0.3,0.4,0.2,0.4,0.4,0.1c0.8-1,1.6-2.1,2.3-3.2
					C221,184,220.4,184.2,220.2,184.5L220.2,184.5z"/>
				<path class="st4" d="M219,184.2c-0.4,0-0.7,0.4-0.7,0.7c-0.1,0.3,0.1,0.6,0.5,0.6C219.5,185.6,219.9,184.2,219,184.2
					c-0.2,0-0.5,0.4-0.2,0.4c0.2,0,0.3,0.2,0.3,0.3c0,0.1,0,0.1,0,0.2c0,0.1,0,0,0,0c0,0-0.1,0-0.1,0c-0.2,0-0.3-0.2-0.3-0.3
					c0-0.1,0-0.2,0-0.2c0,0,0,0,0,0c0,0,0.1,0,0.1,0C219,184.6,219.3,184.2,219,184.2z"/>
				<path class="st4" d="M220.1,186.4c-0.4,0-0.7,0.4-0.7,0.7c-0.1,0.3,0.1,0.6,0.5,0.6C220.6,187.9,221,186.5,220.1,186.4
					c-0.2,0-0.5,0.4-0.2,0.4c0.2,0,0.3,0.2,0.3,0.3c0,0.1,0,0.1,0,0.2c0,0.1,0,0,0,0c0,0-0.1,0-0.1,0c-0.2,0-0.3-0.2-0.3-0.3
					c0-0.1,0-0.2,0-0.2c0,0,0,0,0,0c0,0,0.1,0,0.1,0C220.1,186.9,220.4,186.4,220.1,186.4z"/>
			</g>
			<path class="st4" d="M214.1,188.6c0.3-0.2,0.5-0.6,0.5-1c0-0.1,0-0.3-0.1-0.3c-0.1-0.1-0.4,0-0.5,0c-0.2,0.1-0.3,0.3-0.3,0.4
				c0,0.2,0.2,0.1,0.3,0.1c0,0,0,0,0,0c0,0,0,0,0,0c0,0.1,0,0.1,0,0.1c0,0.1,0,0.1-0.1,0.2c0,0,0,0,0,0.1c0,0,0,0,0,0c0,0,0,0,0,0.1
				c0.1-0.1,0,0,0,0c-0.1,0.1-0.3,0.3-0.1,0.4C213.8,188.8,214,188.6,214.1,188.6L214.1,188.6z"/>
		</g>
		<g>
			<path class="st11" d="M207.6,160c-0.1,0-0.2-0.2-0.3-0.2c-0.4-0.2-0.7,0.1-1.1,0.1c-0.9,0-1.3,0-2.4-0.3c0-1,0.6-1.6,0.8-2.3
				c0.2-0.7-0.1-1.5-0.1-2.2c0-0.5,0-0.9,0-1.4c-0.3,0.3-0.2,1.2-0.2,1.6c-0.1-0.6-0.1-1.4-0.3-1.9c-0.1,0.6,0,1.3,0,1.9
				c-0.2-0.5-0.2-1.2-0.4-1.6c-0.3,0.5,0.2,1.3,0.1,1.8c-0.2-0.5-0.3-1-0.5-1.5c-0.1,0.6,0.2,1.2,0.2,1.6c-0.2-0.4-0.3-0.8-0.6-1.1
				c0,0.4,0.3,0.9,0.4,1.3c-0.3-0.1-0.4-0.5-0.6-0.6c0,0.3,0.3,0.5,0.4,0.8c-0.2-0.1-0.3-0.3-0.5-0.4c0,0.3,0.3,0.4,0.3,0.6
				c-0.1-0.1-0.3-0.2-0.4-0.3c0,0.2,0.3,0.4,0.3,0.5c0,0-0.2-0.1-0.2,0c0,0,0.2,0.1,0.1,0.2c-0.1,0-0.1,0-0.2,0
				c0,0.2,0.2,0.1,0.1,0.3c-0.1,0-0.1-0.1-0.1,0c0,0.1,0.1,0.1,0.1,0.2c-0.8,0.8-0.4,1.8-0.5,2.7c0.1-0.1-0.7-0.3-1.2-0.5
				c-0.3-0.1-0.4-0.5-0.6-0.6c0-0.1,0.1,0,0.1-0.1c-0.1,0-0.2-0.1-0.2-0.2c0.1,0,0.3,0.1,0.3,0c-0.1-0.1-0.5-0.2-0.5-0.3
				c0.2,0,0.4,0.1,0.5,0.1c-0.2-0.1-0.6-0.3-0.6-0.5c0.2,0.1,0.5,0.3,0.7,0.2c-0.3-0.2-0.8-0.4-0.9-0.7c0.2,0.1,0.6,0.4,0.8,0.4
				c-0.4-0.1-0.7-0.6-1.1-0.6c0.2,0.4,0.8,0.6,0.9,0.8c-0.3-0.2-0.6-0.3-1-0.5c0.1,0.4,0.6,0.5,0.9,0.7c-0.3,0-0.5-0.2-0.8-0.2
				c0.1,0.3,0.6,0.2,0.7,0.5c-0.1-0.1-0.3,0-0.5,0c0,0.2,0.4,0.2,0.5,0.3c-0.2,0-0.3,0-0.4,0.1c0.1,0.1,0.3,0.1,0.4,0.2
				c-0.1,0-0.2,0-0.2,0.1c0,0.1,0.3,0,0.3,0.1c-0.1,0-0.1,0.1-0.1,0.1c0.1,0,0.2,0,0.2,0c-0.1,0-0.1,0-0.1,0.1
				c0.4,0.2,0.7,0.9,1.3,1.1c-0.3,0.2,0.3,0.4-3.5,1.8c0.1,0,1.7-0.4,2.1-0.5c0.5-0.2,0.9-0.3,1.4-0.4c0.1,0,0.2-0.1,0.3-0.1
				c0.8-0.1,1.5,0.1,2.3-0.4c-0.6,0.1-1.6,0.2-2-0.1c0.5-0.8,0.2-2.8,0.6-3.3c0.4-0.4,1.1-1.7,1.9-0.6c0.1,0.2,0.1,0.4-0.1,0.9
				c-0.3,0.6-0.6,0.8-0.5,2.1c0,0.2,0,0.5-0.4,0.5c1.6,0.3,2.1,0.2,3.1,0c0.3,0,0.8-0.3,0.8,0c0,0.1-0.3,0.1-0.6,0.1
				c-0.5,0,0.2,0.2,0.4,0.2c0.1,0,1-0.1,1.4-0.2C208.1,160,207.9,160,207.6,160z"/>
			<path class="st11" d="M202.8,151.5c-3.8,0-6.9,3.1-6.9,6.9c0,3.8,3.1,6.9,6.9,6.9c3.8,0,6.9-3.1,6.9-6.9
				C209.6,154.5,206.5,151.5,202.8,151.5 M202.8,151.7c3.6,0,6.6,3,6.6,6.6c0,3.6-3,6.6-6.6,6.6c-3.6,0-6.6-3-6.6-6.6
				C196.1,154.7,199.1,151.7,202.8,151.7"/>
		</g>
	</g>
</g>
<g id="butylka_1">
</g>
<g id="vanna_2">
</g>
<g id="sneg">
</g>
<g id="fruktoza">
</g>
<g id="zakvaska">
</g>
<g id="shariki_2">
</g>
<g id="shariki_1">
</g>
<g id="voronka">
</g>
<g id="gradusnik">
</g>
<g id="kolba_2">
</g>
<g id="kolba_1">
</g>
<g id="probirki">
</g>
<g id="lupa">
</g>
<g id="bidon">
</g>
<g id="blank">
</g>
<g id="ticks">
</g>
</svg>
