<?xml version="1.0" encoding="utf-8"?>
<!-- Generator: Adobe Illustrator 19.0.0, SVG Export Plug-In . SVG Version: 6.00 Build 0)  -->
<svg version="1.1" xmlns="http://www.w3.org/2000/svg" xmlns:xlink="http://www.w3.org/1999/xlink" x="0px" y="0px"
	 viewBox="-442 271.7 362 336" style="enable-background:new -442 271.7 362 336;" xml:space="preserve">
<style type="text/css">
	.st0{fill:#519E38;}
	.st1{fill:#F4F4F4;}
	.st2{fill:#D6D6D6;}
	.st3{fill:#EAEAEA;}
	.st4{fill:#FFFFFF;}
	.st5{fill:#904720;}
	.st6{fill:#EDA820;}
	.st7{fill:#E90E8A;}
	.st8{fill:#62BA47;}
	.st9{fill:#62BA46;}
	.st10{fill:#F5A3BD;}
	.st11{fill:url(#SVGID_1_);}
	.st12{fill:url(#SVGID_2_);}
	.st13{fill:url(#SVGID_3_);}
	.st14{fill:url(#SVGID_4_);}
	.st15{fill:url(#SVGID_5_);}
</style>
<g id="bottle">
	<g id="Layer_2">
	</g>
	<g id="kolba_4">
	</g>
	<g id="kolba_3">
	</g>
	<g id="kolby">
	</g>
	<g id="doma">
	</g>
	<g id="car">
	</g>
	<g id="butylka_3">
	</g>
	<g>
		<path class="st0" d="M-276.6,518.2c0,0,0-63.1,0-97.4s-14.2-47.4-14.2-47.4c3.8-21.2-6.4-27.6-6.4-27.6v-7.7h2.2c0,0,0-8.2,0-10.9
			c0-2.7-3.8-2.4-3.8-2.4h-14h-1.3h-14c0,0-3.8-0.3-3.8,2.4c0,2.7,0,10.9,0,10.9h2.3v7.7h-0.1c0,0-10.2,6.4-6.4,27.6
			c0,0-14.2,13.1-14.2,47.4s0,97.4,0,97.4s-1.5,20.9,14,20.9c4.2,0,7.7,0,10.6,0c7.9,0,11.5,0,11.5,0h0.7h0.8h0.1h11.4h0.1
			c2.9,0,6.4,0,10.5,0c0,0,0,0,0.1,0C-275.2,539.2-276.6,518.2-276.6,518.2z"/>
		<path class="st1" d="M-284.1,513.3c0,0,0-63.1,0-97.4s-14.2-47.4-14.2-47.4c3.8-21.2-6.4-27.6-6.4-27.6v-7.8H-337v7.8h-0.1
			c0,0-10.2,6.4-6.4,27.6c0,0-14.2,13.1-14.2,47.4s0,97.4,0,97.4s-1.5,20.9,14,20.9c4.2,0,7.7,0,10.6,0c7.9,0,11.5,0,11.5,0h1.6
			h11.5c2.9,0,6.4,0,10.6,0C-282.6,534.2-284.1,513.3-284.1,513.3z"/>
		<path class="st2" d="M-306.4,319.9h-14h-1.3h-14c0,0-3.8-0.3-3.8,2.4c0,2.7,0,10.9,0,10.9h17.7h1.3h17.7c0,0,0-8.2,0-10.9
			C-302.6,319.6-306.4,319.9-306.4,319.9z"/>
		<path class="st3" d="M-284.2,513.3c0,0,0-63.1,0-97.4s-14.2-47.4-14.2-47.4c3.8-21.2-6.4-27.6-6.4-27.6v-7.8H-321v201.2h0.8h11.5
			c2.9,0,6.4,0,10.6,0C-282.7,534.2-284.2,513.3-284.2,513.3z"/>
		<path class="st4" d="M-345.8,404.6c-0.2,0-0.4,0-0.5,0c-2.2-0.3-3.8-2.3-3.5-4.6c1.8-14.1,8.6-22.6,8.9-23c1.4-1.8,4-2,5.7-0.6
			c1.7,1.4,2,4,0.6,5.7c-0.1,0.1-5.7,7.3-7.2,18.9C-342,403.1-343.8,404.6-345.8,404.6z"/>
	</g>
	<g>
		<path class="st0" d="M-152,518.2c0,0,0-63.1,0-97.4s-14.2-47.4-14.2-47.4c3.8-21.2-6.4-27.6-6.4-27.6v-7.7h2.2c0,0,0-8.2,0-10.9
			c0-2.7-3.8-2.4-3.8-2.4h-14h-1.3h-14c0,0-3.8-0.3-3.8,2.4c0,2.7,0,10.9,0,10.9h2.3v7.7h0c0,0-10.2,6.4-6.4,27.6
			c0,0-14.2,13.1-14.2,47.4s0,97.4,0,97.4s-1.5,20.9,14,20.9c4.2,0,7.7,0,10.6,0c7.9,0,11.5,0,11.5,0h0.7h0.8h0.1h11.4h0.1
			c2.9,0,6.4,0,10.5,0c0,0,0,0,0.1,0C-150.5,539.2-152,518.2-152,518.2z"/>
		<path class="st1" d="M-159.4,513.3c0,0,0-63.1,0-97.4s-14.2-47.4-14.2-47.4c3.8-21.2-6.4-27.6-6.4-27.6v-7.8h-32.3v7.8h-0.1
			c0,0-10.2,6.4-6.4,27.6c0,0-14.2,13.1-14.2,47.4s0,97.4,0,97.4s-1.5,20.9,14,20.9c4.2,0,7.7,0,10.6,0c7.9,0,11.5,0,11.5,0h1.6
			h11.3c2.9,0,6.4,0,10.6,0C-158,534.2-159.4,513.3-159.4,513.3z"/>
		<path class="st2" d="M-181.7,319.9h-14h-1.3h-14c0,0-3.8-0.3-3.8,2.4c0,2.7,0,10.9,0,10.9h17.7h1.3h17.7c0,0,0-8.2,0-10.9
			C-177.9,319.6-181.7,319.9-181.7,319.9z"/>
		<path class="st3" d="M-159.5,513.3c0,0,0-63.1,0-97.4s-14.2-47.4-14.2-47.4c3.8-21.2-6.4-27.6-6.4-27.6v-7.8h-16.2v201.2h0.8h11.5
			c2.9,0,6.4,0,10.6,0C-158.1,534.2-159.5,513.3-159.5,513.3z"/>
		<path class="st4" d="M-221.1,404.6c-0.2,0-0.4,0-0.5,0c-2.2-0.3-3.8-2.3-3.5-4.6c1.8-14.1,8.6-22.6,8.9-23c1.4-1.8,4-2,5.7-0.6
			c1.7,1.4,2,4,0.6,5.7c-0.1,0.1-5.7,7.3-7.2,18.9C-217.3,403.1-219.1,404.6-221.1,404.6z"/>
	</g>
	<g>
		<g>
			<path class="st5" d="M-296.3,456l-0.1,0.2C-296.4,456.1-296.3,456.1-296.3,456L-296.3,456z M-294.9,455.5L-294.9,455.5l-0.2,0.3
				C-295.1,455.7-295,455.6-294.9,455.5L-294.9,455.5z M-289.8,456.4L-289.8,456.4c0,0,1.1,0.2,1.9,0.8c-0.5-0.4-1.3-0.8-2.1-0.9
				c-0.7-0.2-1.2-0.3-1.6-0.2c0.4-0.2,0.6-0.3,0.8-0.3c0.6,0,1.1,0.2,1.8,0.6c-0.6-0.4-1.6-0.7-2.4-0.7c-0.4-0.1-0.8-0.1-1.2,0.1
				l0.8-0.5c0.5,0,1.1,0,1.8,0.3c-0.5-0.2-1.3-0.4-2-0.4c-0.8-0.1-1.4,0.1-1.9,0.5l0.7-0.7c0.5-0.1,1-0.1,1.8-0.1
				c-0.7-0.1-1.6-0.1-2.3,0.1c-0.6,0.2-1,0.3-1.3,0.6l0.4-0.6c0.6-0.3,1.8-0.5,2.3-0.5c-1.2-0.1-3.1,0.6-3.3,0.8
				c-0.4,0.2-0.6,0.5-0.8,0.8l0.4-0.8c0.6-0.4,1.3-0.7,2.3-0.8c-0.8,0.1-1.6,0.3-2.4,0.7c-0.8,0.4-1.3,0.9-1.5,1.6l0.2-0.9
				c0.5-0.5,1.3-1,2.3-1.3c-1,0.2-2,0.8-2.7,1.5c-0.3,0.4-0.6,0.7-0.6,1.1c0-0.2-0.1-0.3-0.1-0.3c0.2-0.3,1.2-1.4,2.2-2
				c-1.4,0.8-2.1,1.6-2.4,2.1c-0.5,0.7-0.5,1.4,0,2c0.4,0.3,0.9,0.3,1.6-0.1c0.6-0.1,1.2-0.1,2.1,0c-0.6-0.2-1.3-0.2-2-0.2h-0.1
				c0.3,0,0.6-0.1,1-0.3c0.5,0,1.1,0.1,1.7,0.4c-0.4-0.2-1.1-0.4-1.7-0.5l-0.3-0.1c0.4,0.1,0.8,0.2,1.3,0.1c0.4,0.1,1,0.2,1.4,0.2
				c-0.6-0.1-1-0.2-1.4-0.3l-0.7-0.5c0.6,0.3,1.1,0.3,1.8,0.3c0.4,0.1,0.9,0.3,1.3,0.5c-0.3-0.2-0.8-0.5-1.3-0.6l-0.6-0.4
				c0.4,0.2,0.9,0.3,1.4,0.5c0,0,0.7,0.2,1.2,0.5c-0.3-0.3-0.8-0.5-1.3-0.7l-0.3-0.4l0.2,0.1c0.3,0.2,0.6,0.3,1,0.3
				c0.3,0.1,0.6,0.3,1,0.6c-0.3-0.2-0.6-0.4-0.9-0.6l-0.3-0.5c0.5,0.3,1.1,0.6,1.8,0.8c0.3,0.2,0.6,0.4,0.9,0.6
				c-0.2-0.2-0.5-0.4-0.8-0.6c-0.1-0.2-0.3-0.4-0.5-0.6c0.3,0.2,0.9,0.4,1.7,0.7l0,0c0.3,0.2,0.6,0.4,0.9,0.6
				c-0.3-0.3-0.6-0.5-1-0.7l-0.6-0.6l0.2,0.1c0.6,0.1,1.1,0.4,1.7,0.9c-0.4-0.4-1-0.8-1.6-1c0.4,0.1,0.9,0.1,1.4,0.1
				c0.6,0.1,1.1,0.4,1.7,0.9c-0.3-0.4-0.9-0.7-1.5-1c-0.7-0.4-1.4-0.7-2-0.8L-289.8,456.4z"/>
			<path class="st6" d="M-296.3,458.2c-0.8-0.3-1.5-0.4-1.7-0.1C-297.7,458.5-297.4,458.5-296.3,458.2L-296.3,458.2z M-295.3,458
				L-295.3,458c-0.8-0.7-1.6-0.9-1.9-0.7C-297.1,457.9-296.4,458-295.3,458L-295.3,458z M-294.3,457.7L-294.3,457.7
				c-0.8-0.7-1.7-1-2-0.8C-296.2,457.4-295.4,457.7-294.3,457.7L-294.3,457.7z M-293.6,457.6L-293.6,457.6c-0.6-0.8-1.3-1.2-1.7-1.1
				C-295.3,457-294.6,457.3-293.6,457.6L-293.6,457.6z M-292.6,457.5L-292.6,457.5c-0.6-0.8-1.1-1.2-1.5-1
				C-294.1,456.8-293.6,457.2-292.6,457.5L-292.6,457.5z M-292.9,456.7L-292.9,456.7c0.1,0.3,0.6,0.6,1.7,1
				C-292,456.9-292.5,456.5-292.9,456.7L-292.9,456.7z M-292,456.7L-292,456.7c0.1,0.3,0.8,0.7,2,1.1
				C-290.9,456.9-291.5,456.6-292,456.7L-292,456.7z M-292.2,456.4L-292.2,456.4c0.3,0.2,1,0.1,2.1-0.1
				C-291.3,456.1-292,456.1-292.2,456.4L-292.2,456.4z M-293.2,456.4L-293.2,456.4c0.2-0.1,0.4-0.2,0.5-0.2c-0.1,0-0.2,0.1-0.3,0.2
				c0.8-0.1,1.2-0.6,1.8-0.8C-292.3,455.6-293.1,455.8-293.2,456.4L-293.2,456.4z M-293.9,456.2L-293.9,456.2
				c0.1-0.1,0.4-0.3,0.5-0.3c-0.1,0.1-0.3,0.2-0.4,0.4c0.6-0.1,1-0.7,1.8-1.1C-293.2,455.2-294.1,455.6-293.9,456.2L-293.9,456.2z
				 M-295.1,456.3L-295.1,456.3c0.1-0.2,0.4-0.3,0.5-0.3c-0.1,0.1-0.3,0.2-0.4,0.4c0.5-0.2,1-0.9,1.7-1.4
				C-294.5,455.1-295.3,455.7-295.1,456.3L-295.1,456.3z M-296.2,456.7L-296.2,456.7c0.1-0.2,0.3-0.4,0.4-0.4
				c-0.1,0.1-0.2,0.3-0.2,0.5c0.5-0.3,0.7-1,1.3-1.7C-295.9,455.4-296.6,456.2-296.2,456.7L-296.2,456.7z M-296.2,455.4
				L-296.2,455.4c-0.9,0.5-1.5,1.2-1.2,1.9c0.2-0.4,0.4-0.7,0.6-0.8c-0.2,0.2-0.3,0.5-0.4,0.8C-296.6,456.9-296.6,456.2-296.2,455.4
				L-296.2,455.4z M-297.5,456L-297.5,456c-0.8,0.5-1,1.2-0.7,2c0.1-0.1,0.2-0.5,0.3-1c0,0.5,0,0.9-0.1,1.1
				C-297.4,457.6-297.9,456.6-297.5,456L-297.5,456z M-298.5,456.9L-298.5,456.9c-0.5,0.7-0.6,1.3-0.1,1.8
				C-297.9,458.5-298.4,457.8-298.5,456.9L-298.5,456.9z M-297.2,458.6L-297.2,458.6c-0.8-0.2-1.2-0.1-1.3,0.2
				C-298.3,458.9-298.2,459.1-297.2,458.6L-297.2,458.6z M-291.2,456.7L-291.2,456.7c0.3,0.2,1,0.5,2.3,0.5
				C-290.1,456.7-290.7,456.6-291.2,456.7L-291.2,456.7z"/>
			<path class="st5" d="M-308.2,458c0.6,0.3,1,0.7,1.4,1.2c1.7,2.6,2.4,4.2,2.7,4.5c0.2,0.4-0.2,0.9-1,1.4c-0.4,0.2-3.3-1.9-7.7-4.3
				v-1c1.6,0.5,3.1,1.3,4.4,2.3c1.6,1.2,2.8,1.9,3.4,2.1c0.1-0.3-0.4-1.4-1.6-3.4c-0.3-0.6-0.5-1.1-0.6-1.5
				C-307.5,458.8-307.8,458.4-308.2,458L-308.2,458z"/>
			<path class="st6" d="M-305,464.2v0.2c-0.5,0-1.5-0.5-3-1.4c1.3,0.9,2.3,1.4,2.9,1.5c-0.2,0.2-0.8,0-1.7-0.5
				c0.8,0.5,1.3,0.7,1.6,0.7c0,0.1,0,0.1-0.1,0.2c-0.6,0-3.2-1.7-7.6-4.3V460c2.4,0.7,3.4,1.7,4.6,2.5
				C-306.6,463.4-305.6,464.3-305,464.2L-305,464.2z M-307.8,458.3L-307.8,458.3c1,0.8,1.3,1.8,2.2,3.2c0.6,1,1,1.8,1.3,2.2
				c0,0.4-0.2,0.7-0.7,0.9c0.4-0.4-0.3-1.8-1-2.9C-306.9,460.1-306.7,459.5-307.8,458.3L-307.8,458.3z"/>
			<path class="st5" d="M-298.3,451.8c0.6-1.8,1.3-2.7,1.9-3.5c-0.9,1.5-1.2,1.9-1.6,3v0.5c0-0.3,0.1-0.6,0.3-0.9
				c0.6-1.8,1.5-2.7,2.1-3.5c-0.9,1.5-1.3,1.9-1.7,3l0.1,0.4c0.1-0.5,0.3-0.9,0.5-1.2c0.8-1.7,1.5-2.2,2.2-3c-1.1,1.5-1.6,1.9-2,3.1
				l0.1,0.4c0.1-0.5,0.2-0.7,0.4-1c1-1.8,1.8-2.3,2.5-3.1c-1.2,1.5-1.7,1.8-2.3,3c0,0.1,0.1,0.2,0.1,0.3c0.1-0.5,0.4-1,0.8-1.5
				c0.5-0.6,1.5-1.7,2.5-2.7c-1.2,1.3-2.2,2.5-2.4,2.9v0.2c0.2-0.4,0.5-0.7,0.7-0.9c0.4-0.5,1.4-1.5,2.5-2.6
				c-1.1,1.2-2.2,2.4-2.5,2.7v0.5c0.4-0.4,0.9-0.7,1.4-1c0.5-0.4,1.4-1.4,2.4-2.5c-0.8,1-1.7,2-2.3,2.5c-0.2,0.6-0.5,1.1-0.9,1.6
				c0.1,0,0.3,0,0.5-0.1c0.4-0.3,1.5-1.4,2.5-2.6c-1,1.2-2.2,2.5-2.6,2.9c-0.2,0.2-0.4,0.5-0.7,0.7h0.3c0.3-0.2,1.1-1,2.3-2
				c-0.9,1-1.8,1.8-2.3,2.2c-0.2,0.2-0.4,0.4-0.8,0.6h0.4c0.4-0.3,1.1-1,2.1-1.9c-1,1-1.8,1.8-2.3,2.2c-0.2,0.2-0.5,0.4-0.8,0.6h0.4
				c0.4-0.3,1.1-0.8,2-1.5c-0.9,0.8-1.6,1.4-2.2,1.8c-0.3,0.2-0.6,0.4-0.9,0.6h0.4c0.4-0.2,1.1-0.7,2-1.4c-0.8,0.7-1.5,1.2-2.1,1.6
				c-0.3,0.3-0.5,0.5-0.9,0.8l0.1,0.1c0.5-0.3,1.3-0.8,2.1-1.4c-0.9,0.8-1.6,1.3-2.2,1.7c-0.2,0.2-0.4,0.4-0.7,0.5h0.2
				c0.4-0.2,1.1-0.7,2.1-1.4c-0.9,0.8-1.6,1.4-2.3,1.7c-0.9,0.9-1.7,1.3-2.6,1.1c-0.5-0.7-0.5-1.5,0-2.5c0.7-2,1.4-2.8,2-3.6
				c-0.9,1.5-1.2,2-1.6,3.1l0.1,0.4C-298.6,452.4-298.4,452-298.3,451.8L-298.3,451.8z"/>
			<path class="st6" d="M-293.9,450.6c-0.7,0.7-1,0.9-2,0.7c0.2-0.1,0.2-0.2,0.8-0.4c-0.6,0-0.6,0.1-0.8,0.2
				C-295.2,450.3-294.7,450.6-293.9,450.6L-293.9,450.6z M-296.8,454.2L-296.8,454.2c-0.6,0.9-1.1,1.2-2.1,1.2
				c0.1-0.2,0.5-0.4,1.2-0.7c-0.6,0.2-1,0.4-1.2,0.5C-298.4,454.1-297.5,454.4-296.8,454.2L-296.8,454.2z M-296.1,453.4
				L-296.1,453.4c-0.7,0.7-1.1,1-2.1,0.7c0.2-0.1,0.6-0.4,1.3-0.5c-0.6,0-1.1,0.2-1.3,0.3C-297.4,453.1-296.9,453.4-296.1,453.4
				L-296.1,453.4z M-295.3,452.5L-295.3,452.5c-0.7,0.7-1.1,1-2.1,0.7c0.2-0.1,0.6-0.4,1.3-0.5c-0.6,0-1.1,0.2-1.3,0.3
				C-296.6,452.1-296.1,452.5-295.3,452.5L-295.3,452.5z M-294.6,451.5L-294.6,451.5c-0.7,0.7-1.1,1-2.1,0.7c0.2-0.1,0.4-0.3,1-0.4
				c-0.6,0-0.8,0.1-1.1,0.2C-295.9,451.2-295.3,451.5-294.6,451.5L-294.6,451.5z M-293.6,449.8L-293.6,449.8
				c-0.7,0.7-0.9,0.8-1.8,0.6c0.1-0.1,0.1-0.2,0.8-0.3c-0.6,0-0.6,0-0.8,0.1C-294.8,449.6-294.3,449.8-293.6,449.8L-293.6,449.8z
				 M-293.1,448.8L-293.1,448.8c-0.5,0.7-0.6,0.9-1.5,0.9c0.1-0.1,0.1-0.2,0.6-0.4c-0.5,0.1-0.5,0.1-0.7,0.2
				C-294.3,448.9-293.8,449-293.1,448.8L-293.1,448.8z M-298.8,452.7L-298.8,452.7c0.1,0.8,0.5,1.5-0.2,2.4c0.1-0.2-0.1-0.5,0-1
				c-0.2,0.5-0.1,0.9-0.2,1C-299.6,454.2-299.4,453.6-298.8,452.7L-298.8,452.7z M-298,451.8L-298,451.8c0.1,0.7,0.5,1.3-0.2,2.1
				c0.1-0.2-0.1-0.4,0-0.9c-0.1,0.4-0.1,0.7-0.2,0.9C-298.7,453-298.6,452.5-298,451.8L-298,451.8z M-297.3,450.9L-297.3,450.9
				c0.1,0.7,0.4,1.6-0.3,2.1C-298,452.2-297.8,451.6-297.3,450.9L-297.3,450.9z M-296.6,450L-296.6,450c0.1,0.7,0.4,1.6-0.3,2.1
				C-297.2,451.3-297.1,450.7-296.6,450L-296.6,450z M-295.8,449.3L-295.8,449.3c0.1,0.6,0.3,1.4-0.3,1.8
				C-296.4,450.4-296.3,450-295.8,449.3L-295.8,449.3z M-295,448.4L-295,448.4c0,0.6,0.1,1.4-0.6,1.7
				C-295.7,449.4-295.5,449-295,448.4L-295,448.4z M-294.3,447.8L-294.3,447.8c0,0.5,0.1,1.2-0.5,1.5
				C-294.9,448.7-294.7,448.3-294.3,447.8L-294.3,447.8z M-292.9,447.3L-292.9,447.3c-0.2,0.5-0.5,1.4-1.4,1.6
				C-294.2,448-293.3,447.6-292.9,447.3L-292.9,447.3z"/>
			<path class="st5" d="M-302.6,462.7c-0.2,0.2-0.5,0.3-0.8,0.3c-2.9,0.4-6-0.5-9.4-2.5v-0.6c3.4,2.1,6.4,2.9,9.2,2.5
				c0.1-0.2,0.3-0.3,0.4-0.4L-302.6,462.7z"/>
			<path class="st5" d="M-299.6,459.7l-0.2,0.1C-299.7,459.8-299.6,459.8-299.6,459.7L-299.6,459.7z M-299,458.2L-299,458.2
				l-0.4,0.2C-299.2,458.4-299.1,458.3-299,458.2L-299,458.2z M-300.1,452.4L-300.1,452.4c0,0-0.3-1.3-1-2.2c0.5,0.6,1,1.5,1.2,2.4
				c0.3,0.8,0.4,1.4,0.3,1.8c0.2-0.4,0.3-0.7,0.3-0.9c-0.1-0.7-0.3-1.2-0.7-2c0.5,0.7,0.9,1.8,1,2.7c0.1,0.5,0.1,0.9-0.1,1.3
				l0.6-0.9c0-0.6-0.1-1.2-0.4-2c0.3,0.6,0.5,1.5,0.5,2.3c0.1,0.9-0.1,1.6-0.6,2.1l0.9-0.8c0.2-0.6,0.2-1.2,0.1-2
				c0.2,0.8,0.2,1.8-0.1,2.7c-0.2,0.6-0.4,1.1-0.8,1.4l0.8-0.5c0.3-0.7,0.6-2,0.6-2.6c0.1,1.3-0.8,3.5-1,3.7c-0.2,0.4-0.6,0.7-1,0.9
				l1-0.4c0.5-0.7,0.8-1.5,1-2.6c-0.1,0.8-0.4,1.8-0.9,2.7c-0.4,0.9-1.1,1.5-2,1.7l1.1-0.2c0.6-0.6,1.2-1.4,1.6-2.6
				c-0.3,1.1-1,2.2-1.8,3.1c-0.4,0.4-0.9,0.7-1.3,0.7c0.2,0,0.3,0.1,0.4,0.2c0.4-0.2,1.7-1.3,2.5-2.4c-1,1.5-2,2.3-2.5,2.7
				c-0.9,0.5-1.7,0.5-2.5,0c-0.4-0.5-0.4-1.1,0.1-1.9c0.2-0.7,0.1-1.4-0.1-2.3c0.2,0.7,0.3,1.5,0.2,2.3v0.1c0-0.3,0.2-0.6,0.4-1.1
				c0-0.5-0.2-1.2-0.5-1.9c0.3,0.5,0.5,1.2,0.6,1.9l0.2,0.3c-0.1-0.5-0.2-0.9-0.2-1.5c-0.2-0.5-0.3-1.1-0.3-1.6
				c0.1,0.7,0.2,1.2,0.4,1.6l0.6,0.8c-0.3-0.7-0.5-1.3-0.4-2c-0.1-0.4-0.4-1-0.7-1.5c0.3,0.4,0.6,0.9,0.8,1.5l0.6,0.7
				c-0.2-0.4-0.4-1-0.6-1.6c0,0-0.3-0.8-0.7-1.4c0.4,0.4,0.7,0.9,0.9,1.5l0.5,0.3l-0.1-0.2c-0.2-0.3-0.3-0.7-0.4-1.1
				c-0.2-0.4-0.4-0.7-0.7-1.2c0.3,0.3,0.5,0.7,0.7,1.1l0.7,0.4c-0.4-0.5-0.8-1.2-1.1-2.1c-0.2-0.3-0.5-0.7-0.8-1
				c0.3,0.2,0.6,0.6,0.8,0.9c0.3,0.1,0.5,0.3,0.8,0.6c-0.3-0.4-0.6-1-0.9-1.9l0,0c-0.2-0.3-0.5-0.7-0.8-1c0.3,0.3,0.7,0.7,0.9,1.2
				l0.8,0.7l-0.1-0.2c-0.2-0.7-0.5-1.2-1.2-1.9c0.5,0.4,1,1.1,1.3,1.8c-0.1-0.5-0.1-1-0.1-1.6c-0.2-0.7-0.5-1.2-1.2-1.9
				c0.5,0.4,0.9,1,1.2,1.7c0.5,0.8,0.9,1.5,1,2.3L-300.1,452.4z"/>
			<path class="st6" d="M-302.3,459.7c0.4,0.9,0.6,1.7,0.1,1.9C-302.6,461.2-302.7,460.8-302.3,459.7L-302.3,459.7z M-302.1,458.5
				L-302.1,458.5c0.8,0.9,1.1,1.8,0.8,2.2C-301.9,460.6-302,459.8-302.1,458.5L-302.1,458.5z M-301.7,457.4L-301.7,457.4
				c0.8,0.9,1.3,1.9,1,2.3C-301.4,459.5-301.6,458.6-301.7,457.4L-301.7,457.4z M-301.6,456.6L-301.6,456.6c1,0.7,1.5,1.5,1.3,1.9
				C-300.8,458.5-301.1,457.7-301.6,456.6L-301.6,456.6z M-301.4,455.5L-301.4,455.5c1,0.7,1.5,1.3,1.3,1.7
				C-300.6,457.2-301,456.7-301.4,455.5L-301.4,455.5z M-300.4,455.9L-300.4,455.9c-0.4-0.1-0.8-0.8-1.3-2
				C-300.7,454.8-300.2,455.4-300.4,455.9L-300.4,455.9z M-300.4,454.8L-300.4,454.8c-0.4-0.2-0.8-0.9-1.4-2.3
				C-300.8,453.5-300.3,454.3-300.4,454.8L-300.4,454.8z M-300.1,455.1L-300.1,455.1c-0.2-0.3-0.2-1.1,0.1-2.4
				C-299.7,454-299.8,454.8-300.1,455.1L-300.1,455.1z M-300.1,456.2L-300.1,456.2c0.2-0.2,0.2-0.4,0.2-0.6c0,0.1-0.1,0.2-0.3,0.4
				c0.1-0.9,0.8-1.4,0.9-2C-299.1,455.1-299.3,456.1-300.1,456.2L-300.1,456.2z M-299.8,457L-299.8,457c0.2-0.2,0.3-0.5,0.3-0.6
				c-0.1,0.1-0.2,0.3-0.5,0.4c0.2-0.6,0.8-1.2,1.4-2C-298.6,456.3-299.1,457.2-299.8,457L-299.8,457z M-299.9,458.3L-299.9,458.3
				c0.2-0.1,0.4-0.4,0.4-0.5c-0.1,0.1-0.3,0.3-0.5,0.4c0.3-0.6,1.1-1.1,1.7-1.9C-298.4,457.7-299.2,458.6-299.9,458.3L-299.9,458.3z
				 M-300.4,459.6L-300.4,459.6c0.2-0.1,0.5-0.3,0.5-0.4c-0.2,0.1-0.3,0.2-0.6,0.3c0.4-0.5,1.3-0.8,2.1-1.4
				C-298.8,459.3-299.8,460-300.4,459.6L-300.4,459.6z M-298.8,459.6L-298.8,459.6c-0.6,1.1-1.5,1.7-2.3,1.3c0.5-0.2,0.8-0.4,1-0.6
				c-0.3,0.2-0.6,0.4-1,0.4C-300.7,460-299.8,460.1-298.8,459.6L-298.8,459.6z M-299.5,461L-299.5,461c-0.7,0.9-1.5,1.1-2.5,0.7
				c0.2-0.1,0.6-0.2,1.3-0.3c-0.6,0-1.1,0-1.3,0.1C-301.5,460.9-300.2,461.5-299.5,461L-299.5,461z M-300.6,462.2L-300.6,462.2
				c-0.8,0.6-1.6,0.6-2.2,0.1C-302.6,461.5-301.7,462.1-300.6,462.2L-300.6,462.2z M-302.8,460.7L-302.8,460.7
				c0.2,0.9,0.1,1.4-0.2,1.5C-303.2,461.9-303.4,461.7-302.8,460.7L-302.8,460.7z M-300.4,454L-300.4,454c-0.3-0.3-0.7-1.1-0.7-2.6
				C-300.5,452.7-300.3,453.4-300.4,454L-300.4,454z"/>
			<path class="st6" d="M-302.9,462.7c-0.2-0.1-0.3-0.2-0.4-0.4c-0.1,0-0.2,0.1-0.3,0.2c-2.6,0.5-5.7-0.3-9.2-2.5v0.3
				c3.6,2.1,6.6,2.9,9.2,2.5C-303.2,462.8-303,462.8-302.9,462.7L-302.9,462.7z"/>
		</g>
		<circle class="st7" cx="-320.7" cy="445.5" r="20"/>
		<g>
			<path class="st4" d="M-304.8,445c-0.3-0.3-0.7-0.3-1.1-0.2c0-0.3,0-0.6,0.1-0.8c0-0.2-0.4-0.2-0.5-0.1c-0.2,0.1-0.4,0.2-0.5,0.4
				c-0.3,0-0.5,0-0.7,0.1c-0.7,0.3-1,1.1-1.1,1.8c0,0.1-0.1,0.3-0.1,0.5l0,0c-0.1,0.3-0.2,0.7-0.4,0.9c-0.2,0.1-0.3-0.8-0.3-0.9
				c0-1,0.2-1.9,0.4-2.8c0-0.2-0.2-0.3-0.4-0.2c-0.2,0.1-0.5,0.2-0.6,0.4c-0.2,0.7-0.3,1.4-0.4,2.2c-0.1,0.3-0.2,0.6-0.3,0.9l0,0
				c-0.1,0-0.1-0.1-0.2-0.1c-0.5-0.3-0.3-1.2-0.3-1.6c0.1-0.6,0.2-1.2,0.5-1.8c0.1-0.2,0-0.3-0.3-0.3c-0.2,0-0.5,0.2-0.6,0.4
				c-0.2,0.5-0.3,1-0.5,1.6c-0.1,0.5-0.4,1-0.7,1.3l-0.1,0.1c0,0,0,0,0-0.1c-0.1-0.4-0.1-0.9,0-1.2c0-0.6,0.1-1.2,0.2-1.8l0,0
				c0-0.5-0.4-0.8-0.9-0.8c-0.6,0-1,0.4-1.3,0.7c-0.3,0.5-0.5,1.2-0.6,1.3c-0.1,0.5-0.3,1-0.6,1.4c-0.1,0-0.1-0.1-0.1-0.2
				c-0.1-0.3-0.2-0.6-0.2-0.9c-0.1-0.9-0.1-1.8,0-2.6l0,0v-0.1c0,0-0.1,0-0.1-0.1c-0.2-0.1-0.5,0.1-0.7,0.3
				c-0.5,0.6-0.5,1.4-0.6,2.1c-0.1,0.4-0.2,0.8-0.3,1.2c0,0,0,0.1-0.1,0.2c-0.1-0.1-0.2-0.2-0.2-0.3l0,0c0-0.2-0.1-0.3-0.3-0.2
				s-0.5,0.3-0.6,0.5l0,0l0,0c-0.2,0-0.2-0.2-0.3-0.3c-0.1-0.3-0.1-0.6-0.1-0.9c0-0.2,0-0.4,0-0.6c0-0.5,0.1-1,0.1-1.4
				c0-0.1,0-0.3,0-0.4c0-0.2-0.3-0.2-0.4-0.1c-0.2,0.1-0.5,0.3-0.5,0.6c0,0.3,0,0.5,0,0.8c0,0.3,0,0.5,0,0.8c0,0.2,0,0.4-0.1,0.7
				c0,0.3-0.1,0.7-0.2,1l0,0c-0.1,0-0.1,0-0.2,0c-0.5-0.2-0.5-1.1-0.5-1.5c0-0.6,0-1.3,0.2-1.8c0-0.1,0.1-0.2,0-0.3s-0.3,0-0.4,0.1
				s-0.4,0.4-0.6,0.5c-0.4,0.2-0.8,0.1-1.1-0.1c-0.1-0.1-0.2-0.2-0.4-0.3c-0.4-0.2-0.8,0-1.1,0.3c0-0.3-0.1-0.5-0.2-0.8
				c-0.1-0.2-0.5,0-0.5,0.1c-0.2,0.1-0.4,0.4-0.3,0.6c-0.3,0.1-0.5,0.3-0.7,0.4c-0.6,0.6-0.6,1.4-0.6,2.1c0,0.1,0,0.3,0,0.5
				c0,0.1,0,0.8-0.2,1c-0.2,0.2-0.6-0.6-0.6-0.7c-0.3-0.9-0.3-1.9-0.4-2.8c0-0.2-0.3-0.1-0.4,0c-0.2,0.1-0.4,0.4-0.4,0.7
				c0,0.7,0.1,1.5,0.1,2.2c0,0.3,0,0.7-0.1,1l0,0c-0.1,0-0.2,0-0.2,0c-0.5-0.1-0.6-1-0.7-1.4c-0.1-0.6-0.1-1.3,0-1.9
				c0-0.2-0.1-0.3-0.3-0.2c-0.2,0.1-0.5,0.4-0.5,0.6c-0.1,0.8-0.1,1.6,0.1,2.4c0.1,0.6,0.4,1.5,1.1,1.4c0.5-0.1,0.9-0.4,1.1-0.8
				c0.1,0.1,0.1,0.2,0.2,0.3c0.5,0.5,1.1,0,1.5-0.4c0-0.1,0.1-0.1,0.1-0.2c0.1,0.1,0.2,0.2,0.3,0.3c0.2,0.2,0.5,0.2,0.8,0.1
				c0.1,0,0.2-0.1,0.3-0.1c0,0.9,0.1,1.8,0.1,2.7c0,0.2,0.3,0.2,0.4,0.1c0.2-0.1,0.4-0.4,0.4-0.6c0-0.7,0-1.4,0-2.2
				c0.3,0,0.7-0.2,0.9-0.5c0.6-0.6,0.7-1.5,0.6-2.3c0-0.1,0-0.3-0.1-0.4c0.3,0,0.5-0.2,0.8-0.3c-0.1,0.6-0.1,1.2-0.1,1.8
				s0.2,1.5,1,1.6c0.5,0,0.8-0.2,1.1-0.5c0.2,0.3,0.5,0.6,0.9,0.5c0.2,0,0.3-0.1,0.4-0.2c0.3,0.3,0.8,0.3,1.2,0
				c0.3-0.3,0.5-0.6,0.6-0.9c0,0.1,0,0.2,0,0.3c0.1,0.3,0.1,0.6,0.3,0.9c0.2,0.3,0.6,0.1,0.9,0c0.2-0.1,0.5-0.3,0.6-0.5
				c0.1,0.3,0.2,0.6,0.4,0.7c0.4,0.2,0.9,0,1.2-0.2c0,0.2,0.1,0.4,0.3,0.5c0.5,0.2,1-0.2,1.3-0.5l0,0c0.1,0.4,0.2,0.8,0.7,1
				c0.5,0.2,0.9,0,1.2-0.3c0,0.1,0.1,0.2,0.1,0.3c0.3,0.7,1,0.4,1.4,0.2c0.1,0,0.1-0.1,0.2-0.1c0,0.1,0.1,0.3,0.2,0.4
				c0.1,0.3,0.4,0.4,0.7,0.5c0.1,0,0.2,0,0.3,0c-0.2,0.9-0.4,1.7-0.7,2.6c-0.1,0.2,0.2,0.3,0.3,0.2c0.2,0,0.5-0.2,0.5-0.4
				c0.2-0.7,0.4-1.4,0.6-2c0.3,0.1,0.7,0.1,1-0.1c0.7-0.3,1-1.2,1.2-2C-304.5,446.5-304.3,445.5-304.8,445z M-325.7,446.3
				c0,0-0.1,0-0.2,0c-0.2-0.1-0.3-0.2-0.4-0.3c-0.3-0.4-0.3-0.9-0.4-1.4c0-0.4,0-0.8,0.1-1.2h0.1c0.3,0.2,0.5,0.6,0.6,1l0,0
				C-325.8,445-325.7,445.6-325.7,446.3L-325.7,446.3z M-324.2,446.1L-324.2,446.1C-324.3,446.1-324.3,446.1-324.2,446.1
				c-0.4,0.1-0.6-0.1-0.6-0.4l0,0c0-0.7-0.1-1.3-0.2-2c0-0.2,0-0.3,0-0.5l0,0l0,0c0.1,0,0.2,0,0.3,0.1l0,0l0.1,0.1
				c0.3,0.3,0.4,0.8,0.4,1.2C-324.1,445.1-324,445.6-324.2,446.1z M-313.8,443.8c-0.1,0.8-0.2,1.7-0.5,2.4c0,0-0.1,0.1-0.1,0.2h-0.1
				c-0.2-0.1-0.2-0.4-0.3-0.5c-0.1-0.6,0-1.3,0.2-1.9c0.1-0.2,0.2-0.5,0.3-0.5l0,0h0.1C-313.8,443.5-313.7,443.6-313.8,443.8z
				 M-307,446.2L-307,446.2c-0.1,0.6-0.2,1.2-0.3,1.9l0,0l0,0l-0.1-0.1c-0.1-0.1-0.2-0.3-0.3-0.5c-0.1-0.5-0.1-1,0-1.5
				c0.1-0.4,0.2-0.8,0.4-1.1c0,0,0,0.1,0.1,0.1C-307,445.3-307,445.8-307,446.2z M-305.5,447.1c-0.1,0.5-0.2,1-0.5,1.3l0,0l0,0
				c-0.3-0.1-0.4-0.4-0.4-0.7l0,0c0.1-0.6,0.3-1.3,0.4-2c0-0.2,0.1-0.3,0.2-0.5l0,0l0,0c0.1,0,0.2,0.2,0.3,0.3
				C-305.4,446.1-305.4,446.7-305.5,447.1z"/>
			<path class="st4" d="M-308.8,442.6c0.1-0.1,0.4-0.3,0.3-0.5c-0.1-0.2-0.5-0.1-0.6,0c-0.3,0.2-0.6,0.3-1,0
				c-0.1-0.1-0.3-0.2-0.4-0.3c-0.2-0.3-1.1,0.2-0.9,0.5C-310.7,443.3-309.5,443-308.8,442.6z"/>
			<path class="st4" d="M-334.1,444.1c-0.1-0.4-0.2-0.7-0.3-1.1c0.8-0.2,1.5-0.5,2.3-0.8c0.2-0.1,0.5-0.4,0.5-0.7
				c0-0.2-0.1-0.3-0.3-0.2c-1.3,0.6-2.8,0.9-4.1,1.4c-0.5,0.2-1.1,0.6-1.3,1.1c-0.3,0.6-0.2,1.2,0.1,1.7c0.2,0.3,0.9-0.6,0.7-0.9
				c-0.1-0.2-0.2-0.4-0.3-0.6v-0.1c0.3-0.3,0.8-0.4,1.2-0.6c0.1,0,0.2-0.1,0.3-0.1c0.2,0.4,0.3,0.8,0.4,1.2
				c-0.5,0.3-0.8,0.8-1.1,1.2c-0.5,1-0.6,3.7,1.2,3.4c1.2-0.2,1.3-1.6,1.2-2.6c-0.1-0.5-0.1-1.1-0.2-1.6c0.1,0,0.2,0,0.3,0
				c0.7,0.1,1,0.7,1.1,1.3c0.1,0.5,0,1.2-0.4,1.6c-0.1,0.1-0.3,0.5-0.2,0.7c0.1,0.2,0.4-0.1,0.5-0.2c0.9-1,1.3-2.8,0.4-3.9
				C-332.6,444-333.4,443.9-334.1,444.1z M-334.5,448.2c-0.3,0-0.6-0.1-0.7-0.2c-0.5-0.5-0.6-1.5-0.2-2.2c0.2-0.3,0.4-0.5,0.7-0.6
				c0.2,0.6,0.3,1.3,0.4,2c0,0.3,0.1,0.6,0.1,0.9v0.1C-334.4,448.2-334.5,448.2-334.5,448.2z"/>
		</g>
		<g>
			<path class="st4" d="M-315.8,459.8c-0.2,0.3-0.6-0.5-0.6-0.6s-0.1-0.2-0.1-0.3c-0.1-0.2-0.2-0.5-0.2-0.7v-0.1
				c-0.1-0.2-0.3,0.2-0.3,0.4c0.1,0.3,0.2,0.6,0.2,1c0,0.2,0.1,0.3,0.1,0.5c0,0.2,0,0.3-0.2,0.2c-0.5-0.2-0.5-1.3-0.5-1.7
				c0-0.3-0.3,0.1-0.3,0.2c0,0.2,0,0.9,0.2,1.4c-0.1,0.2-0.3,0.4-0.4,0.3c-0.1-0.1-0.1-0.4-0.2-0.5c-0.1-0.3-0.3-0.3-0.6-0.2l0,0
				c0-0.1,0-0.3,0.1-0.5c0-0.1,0.1-0.2,0.3-0.2c0.2,0.1,0.5-0.4,0.3-0.5c-0.4-0.2-0.7,0-0.9,0.5c0-0.3-0.1-0.5-0.2-0.8
				c-0.1-0.2-0.4,0.2-0.4,0.4c0.2,0.5,0.2,1.1,0.2,1.7l0,0c-0.2,0.2-0.5,0.6-0.6,0.2c-0.1-0.2-0.1-0.5-0.1-0.7c0-0.2,0-0.4,0-0.6
				c0-0.1,0-0.1,0-0.2l0,0c-0.1-0.6-0.7-0.3-0.9,0.1c-0.3,0.4-0.4,1-0.4,1.5c-0.3,0.1-0.4,0.1-0.5-0.3c-0.1-0.5,0-1.1,0.1-1.6
				c0-0.3-0.4,0-0.4,0.1c-0.2,0.2-0.3,0.5-0.4,0.8c-0.1,0.2-0.1,0.3-0.2,0.5c0,0.1-0.1,0.2-0.1,0.3c-0.1,0.2-0.2,0-0.2-0.1
				s0-0.1-0.1-0.1h-0.1c-0.2,0-0.3,0.1-0.5,0.1c0-0.1-0.1-0.2-0.2-0.3c0.3-0.3,0.5-0.8,0.6-1.2c0-0.3,0-0.6-0.3-0.6
				c-0.4-0.1-0.8,0.3-1,0.6c-0.1,0.2,0.5,0.1,0.5,0s0.1-0.4,0.2-0.2c0.1,0.1,0,0.3,0,0.4c0,0.2-0.2,0.7-0.4,0.8c-0.1,0-0.1,0-0.2,0
				s-0.3,0.1-0.3,0.2c-0.1,0.1-0.1,0.1,0,0.1c0.1,0,0.2,0,0.3,0s0.2,0.1,0.2,0.3c-0.5,0.2-1.1,0.4-1.5,0.9c-0.4,0.5,0.2,1,0.9,0.9
				c0.7-0.1,1-0.8,1.1-1.4c0-0.1,0-0.2,0-0.2c0.1,0,0.1,0,0.2,0c0,0.4,0.6,0.4,0.9,0.2c0.1-0.1,0.2-0.2,0.2-0.3
				c0,0.2,0.1,0.3,0.1,0.4c0.2,0.3,0.7,0.2,1,0c0.1,0.3,0.5,0.4,0.8,0.1c0,0,0,0,0.1-0.1c0,0.1,0.1,0.2,0.1,0.2
				c0.2,0.2,0.7-0.1,1-0.4c0,0.1,0,0.2,0,0.3c0,0.3,0.5-0.1,0.5-0.3c0-0.2,0-0.4,0-0.7c0.3,0,0.2,0.8,0.5,0.8
				c0.3,0.1,0.6-0.2,0.8-0.5c0.1,0.2,0.3,0.3,0.6,0.2c0.2-0.1,0.4-0.3,0.5-0.5c0.3,0.4,0.7,0,0.9-0.3
				C-315.3,459.6-315.6,459.5-315.8,459.8z M-324.4,460.8c-0.1,0.4-0.2,0.8-0.6,1c-0.1,0.1-0.2,0-0.3-0.1c-0.1-0.2,0-0.3,0.1-0.5
				c0.2-0.3,0.5-0.5,0.8-0.6C-324.3,460.7-324.3,460.8-324.4,460.8z M-320.8,460.8c-0.1,0-0.1-0.1-0.2-0.2c-0.1-0.2-0.1-0.5,0-0.8
				c0-0.1,0.1-0.3,0.1-0.4s0.1-0.1,0.1-0.2c0.1-0.1,0.2,0.1,0.2,0.2c0,0.4,0,0.7-0.1,1.1C-320.6,460.5-320.7,460.8-320.8,460.8z"/>
		</g>
		<circle class="st8" cx="-336.7" cy="463.2" r="6.3"/>
		<path class="st7" d="M-330.2,421c0,1.4-1.1,2.5-2.6,2.5c-1.4,0-2.6-1.1-2.6-2.5s1.1-2.6,2.6-2.6S-330.2,419.6-330.2,421
			L-330.2,421z"/>
		<path class="st8" d="M-330.1,429.6c0,1.8-1.5,3.3-3.3,3.3c-1.8,0-3.3-1.5-3.3-3.3c0-1.8,1.5-3.3,3.3-3.3
			C-331.6,426.3-330.1,427.8-330.1,429.6L-330.1,429.6z"/>
		<path class="st8" d="M-338.9,424.5c0,1.1-0.9,1.9-1.9,1.9c-1.1,0-2-0.9-2-1.9c0-1.1,0.9-2,2-2
			C-339.7,422.6-338.9,423.5-338.9,424.5L-338.9,424.5z"/>
		<g>
			<circle class="st8" cx="-303.7" cy="427.2" r="11"/>
			<g>
				<path class="st4" d="M-306.4,425.7c-0.9,0.1-1.2,1.2-1.2,1.9l0,0l0,0c0,0.1,0,0.2,0,0.3c0,0.4,0,0.6-0.1,1
					c0,0.1-0.1,0.4-0.1,0.4c-0.3,0-0.6-0.5-0.7-0.7c-0.2-0.6-0.4-1.2-0.5-1.7c-0.1-0.6-0.2-1.3-0.2-1.9c0-0.3,0-0.5,0-0.8
					c0-0.1,0-0.2,0-0.3s0-0.2,0-0.2c0.1-0.5-0.6,0-0.7,0.2c-0.7,1.3-0.5,2.8-0.5,4.2c0,0.4,0,0.8-0.1,1.1c0,0.3-0.1,0.7-0.3,0.9
					c-0.1,0.1-0.4,0-0.5,0c-0.2-0.1-0.3-0.3-0.3-0.5c0-0.2-0.3-0.1-0.4,0c-0.2,0.2-0.3,0.4-0.3,0.6c0.1,0.5,0.5,0.9,1,0.8
					c0.8-0.2,1.2-1.2,1.4-2c0.1-0.4,0.1-0.7,0.2-1.1c0.1,0.5,0.3,1.1,0.5,1.6c0.2,0.4,0.5,0.7,1,0.7c0.3-0.1,0.6-0.4,0.8-0.8
					c0.2,0.4,0.4,0.6,0.8,0.6c0.5,0,0.8-0.5,1-0.9s0.3-0.9,0.3-1.4C-305.3,426.9-305.4,425.6-306.4,425.7z M-306.1,428.8
					c0,0.1,0,0.2-0.1,0.3c-0.2,0-0.3-0.3-0.4-0.4c-0.1-0.3-0.2-0.6-0.2-1c0-0.3,0-0.7,0-1c0-0.1,0-0.2,0.1-0.3
					c0.5,0.3,0.6,0.9,0.6,1.4C-306.1,428.1-306,428.5-306.1,428.8z"/>
				<path class="st4" d="M-295.5,427c-1-0.4-1.5,1-1.7,1.7c-0.2,0.7-0.4,1.9,0.5,2.3c0.4,0.2,0.9-0.1,1.2-0.4
					c0.3-0.3,0.5-0.8,0.6-1.2C-294.7,428.6-294.6,427.3-295.5,427z M-296,430.1c0,0.1-0.1,0.2-0.1,0.2c-0.2-0.1-0.2-0.4-0.2-0.5
					c-0.1-0.3,0-0.7,0-1c0.1-0.3,0.2-0.7,0.3-1c0-0.1,0.1-0.2,0.1-0.2c0.4,0.4,0.3,1.1,0.2,1.6C-295.8,429.5-295.9,429.8-296,430.1z
					"/>
				<path class="st4" d="M-298.1,427.1c0.2-0.2,0.4-0.5,0.5-0.8c0.4-0.5,0.7-1.2,0.7-1.9c0-0.6-0.9-0.7-1.3-0.5
					c-0.6,0.3-1,1-1.2,1.6c-0.2,0.8-0.4,1.7-0.4,2.6l0,0c-0.3,0.4-1,1.2-1.5,0.8c-0.1-0.1-0.2-0.2-0.2-0.4c0.4-0.4,0.8-0.9,1.1-1.4
					c0.3-0.4,0.5-1.2-0.1-1.5c-0.5-0.3-1.1,0-1.4,0.4c-0.3,0.4-0.5,0.9-0.5,1.4c0,0.3-0.1,0.7,0,1.1c-0.3,0.2-0.6,0.3-1,0.2
					s-0.5-0.5-0.6-0.8c-0.1-0.5-0.1-0.9,0-1.4c0-0.1,0.1-0.3,0.1-0.4V426c0.2,0.1,0.3,0.5,0.4,0.6c0.1,0.3,0.9-0.2,0.8-0.5
					c-0.1-0.3-0.2-0.7-0.6-0.8c-0.3-0.2-0.8,0.1-1,0.3c-0.6,0.6-0.7,1.5-0.6,2.3c0,0.5,0.1,1.1,0.6,1.4c0.6,0.4,1.4,0,2-0.3
					c0.2,0.4,0.4,0.6,0.9,0.6c0.6-0.1,1.1-0.4,1.6-0.8c0,0.4,0.1,0.9,0.4,1.1c0.5,0.3,1.2,0,1.5-0.5c0.4-0.6,0.7-1.4,0.4-2.1
					C-297.6,427.3-297.8,427.1-298.1,427.1z M-301.5,426.8c0-0.1,0.1-0.3,0.2-0.4l0,0c0.2,0.1,0.3,0.4,0.3,0.6
					c-0.1,0.4-0.3,0.7-0.6,1.1c0-0.1,0-0.1,0-0.2C-301.6,427.5-301.6,427.1-301.5,426.8z M-298.3,424.9c0.1-0.1,0.1-0.3,0.2-0.4l0,0
					c0.4,0.4,0,1-0.2,1.4c-0.2,0.4-0.4,0.8-0.7,1.2c0.1-0.4,0.1-0.8,0.2-1.1C-298.6,425.6-298.5,425.3-298.3,424.9z M-298.5,429.4
					c0,0-0.1,0.1-0.1,0.2h-0.1c-0.2-0.1-0.3-0.7-0.3-0.9c0-0.2,0-0.4,0-0.6c0.1-0.1,0.2-0.2,0.3-0.4c0.2-0.1,0.4,0.1,0.4,0.4
					C-298.2,428.6-298.3,429.1-298.5,429.4z"/>
			</g>
		</g>
		<g>
			<path class="st4" d="M-340.9,462.2c0.2-0.6,0.7-0.2,0.8,0.1c0.2,0.4,0,0.9-0.3,1.2c-0.2,0.3-0.5,0.5-0.8,0.7
				c-0.2,0.1-0.3,0.2-0.4,0.3c0,0.1-0.1,0.2,0,0.2c0.2,0.2,0.7,0.2,0.9,0.2c0.5,0,1,0,1.4-0.2c0.2-0.1,0.5-0.7,0-0.5
				c-0.3,0.2-0.8,0.1-1.1,0.1c-0.2,0-0.6,0-0.7-0.1c0,0.1,0,0.2,0,0.2c-0.2,0.3-0.1,0.2,0.1,0.1c0.1-0.1,0.3-0.2,0.4-0.3
				c0.2-0.2,0.4-0.4,0.6-0.7c0.4-0.5,0.6-1,0.5-1.6c-0.2-1.4-1.7-0.4-2,0.4C-341.6,462.8-341,462.4-340.9,462.2L-340.9,462.2z"/>
			<path class="st4" d="M-337.4,464.4c0.5,1.5,2.8,0.5,2.4-0.9c-0.2-0.7-1-0.6-1.5-0.7c-0.3-0.1-0.3-0.3-0.3-0.6
				c0.1-0.3,0.1-0.3-0.1-0.2c0.1,0,0.2,0,0.3-0.1c0.5-0.1,1-0.1,1.4,0.1c0.2,0.1,0.7-0.4,0.4-0.5c-0.6-0.3-1.2-0.2-1.8-0.1
				s-0.7,0.6-0.7,1.2c0,0.7,0.6,0.7,1.1,0.8c0.4,0.1,0.7,0.2,0.8,0.6c0.1,0.7-0.7,0.6-1,0.4c-0.2-0.1-0.2-0.3-0.3-0.5
				C-336.9,463.8-337.5,464.2-337.4,464.4L-337.4,464.4z"/>
			<g>
				<path class="st4" d="M-332.1,461.7c-0.6,1.1-1.4,2.1-2.2,3c-0.3,0.4,0.2,0.4,0.4,0.1c0.8-1,1.6-2.1,2.3-3.2
					C-331.3,461.2-332,461.4-332.1,461.7L-332.1,461.7z"/>
				<path class="st4" d="M-333.3,461.4c-0.4,0-0.7,0.4-0.7,0.7c-0.1,0.3,0.1,0.6,0.5,0.6C-332.8,462.8-332.4,461.4-333.3,461.4
					c-0.2,0-0.5,0.4-0.2,0.4c0.2,0,0.3,0.2,0.3,0.3s0,0.1,0,0.2s0,0,0,0h-0.1c-0.2,0-0.3-0.2-0.3-0.3s0-0.2,0-0.2l0,0h0.1
					C-333.4,461.8-333.1,461.4-333.3,461.4z"/>
				<path class="st4" d="M-332.2,463.7c-0.4,0-0.7,0.4-0.7,0.7c-0.1,0.3,0.1,0.6,0.5,0.6C-331.7,465.1-331.3,463.7-332.2,463.7
					c-0.2,0-0.5,0.4-0.2,0.4c0.2,0,0.3,0.2,0.3,0.3s0,0.1,0,0.2c0,0.1,0,0,0,0h-0.1c-0.2,0-0.3-0.2-0.3-0.3s0-0.2,0-0.2l0,0h0.1
					C-332.3,464.1-332,463.7-332.2,463.7z"/>
			</g>
			<path class="st4" d="M-338.3,465.8c0.3-0.2,0.5-0.6,0.5-1c0-0.1,0-0.3-0.1-0.3c-0.1-0.1-0.4,0-0.5,0c-0.2,0.1-0.3,0.3-0.3,0.4
				c0,0.2,0.2,0.1,0.3,0.1l0,0l0,0c0,0.1,0,0.1,0,0.1c0,0.1,0,0.1-0.1,0.2c0,0,0,0,0,0.1l0,0c0,0,0,0,0,0.1c0.1-0.1,0,0,0,0
				c-0.1,0.1-0.3,0.3-0.1,0.4C-338.6,466.1-338.4,465.9-338.3,465.8L-338.3,465.8z"/>
		</g>
		<g>
			<path class="st9" d="M-345,437c-0.1,0-0.2-0.2-0.3-0.2c-0.4-0.2-0.7,0.1-1.1,0.1c-0.9,0-1.3,0-2.4-0.3c0-1,0.6-1.6,0.8-2.4
				c0.2-0.7-0.1-1.5-0.1-2.3c0-0.5,0-0.9,0-1.4c-0.3,0.3-0.2,1.2-0.2,1.6c-0.1-0.6-0.1-1.4-0.3-1.9c-0.1,0.6,0,1.3,0,1.9
				c-0.2-0.5-0.2-1.2-0.4-1.6c-0.3,0.5,0.2,1.3,0.1,1.8c-0.2-0.5-0.3-1-0.5-1.5c-0.1,0.6,0.2,1.2,0.2,1.6c-0.2-0.4-0.3-0.8-0.6-1.1
				c0,0.4,0.3,0.9,0.4,1.3c-0.3-0.1-0.4-0.5-0.6-0.6c0,0.3,0.3,0.5,0.4,0.8c-0.2-0.1-0.3-0.3-0.5-0.4c0,0.3,0.3,0.4,0.3,0.6
				c-0.1-0.1-0.3-0.2-0.4-0.3c0,0.2,0.3,0.4,0.3,0.5c0,0-0.2-0.1-0.2,0c0,0,0.2,0.1,0.1,0.2c-0.1,0-0.1,0-0.2,0
				c0,0.2,0.2,0.1,0.1,0.3c-0.1,0-0.1-0.1-0.1,0s0.1,0.1,0.1,0.2c-0.8,0.8-0.4,1.8-0.5,2.8c0.1-0.1-0.7-0.3-1.2-0.5
				c-0.3-0.1-0.4-0.5-0.6-0.6c0-0.1,0.1,0,0.1-0.1c-0.1,0-0.2-0.1-0.2-0.2c0.1,0,0.3,0.1,0.3,0c-0.1-0.1-0.5-0.2-0.5-0.3
				c0.2,0,0.4,0.1,0.5,0.1c-0.2-0.1-0.6-0.3-0.6-0.5c0.2,0.1,0.5,0.3,0.7,0.2c-0.3-0.2-0.8-0.4-0.9-0.7c0.3,0.1,0.6,0.4,0.8,0.4
				c-0.4-0.1-0.7-0.6-1.1-0.6c0.2,0.4,0.8,0.6,0.9,0.8c-0.3-0.2-0.6-0.3-1-0.5c0.1,0.4,0.6,0.5,0.9,0.8c-0.3,0-0.5-0.2-0.8-0.2
				c0.1,0.3,0.6,0.2,0.7,0.5c-0.1-0.1-0.3,0-0.5,0c0,0.2,0.4,0.2,0.5,0.3c-0.2,0-0.3,0-0.4,0.1c0.1,0.1,0.3,0.1,0.4,0.2
				c-0.1,0-0.2,0-0.2,0.1s0.3,0,0.3,0.1c-0.1,0-0.1,0.1-0.1,0.1c0.1,0,0.2,0,0.2,0c-0.1,0-0.1,0-0.1,0.1c0.4,0.2,0.7,0.9,1.3,1.2
				c-0.3,0.2,0.3,0.4-3.5,1.8c0.1,0,1.7-0.4,2.2-0.5c0.5-0.2,0.9-0.3,1.4-0.4c0.1,0,0.2-0.1,0.3-0.1c0.8-0.1,1.5,0.1,2.3-0.4
				c-0.6,0.1-1.6,0.2-2-0.1c0.5-0.8,0.2-2.9,0.6-3.3c0.4-0.4,1.1-1.7,1.9-0.6c0.1,0.2,0.2,0.4-0.1,0.9c-0.4,0.6-0.6,0.8-0.5,2.1
				c0,0.3,0,0.5-0.4,0.5c1.7,0.4,2.2,0.2,3.1,0c0.3,0,0.8-0.3,0.8,0c0,0.1-0.3,0.1-0.6,0.1c-0.5,0,0.2,0.2,0.4,0.2
				c0.1,0,1-0.1,1.5-0.2C-344.5,437.1-344.7,437.1-345,437z"/>
			<path class="st9" d="M-349.8,428.5c-3.8,0-6.9,3.1-6.9,6.9s3.1,6.9,6.9,6.9c3.8,0,6.9-3.1,6.9-6.9
				C-342.9,431.6-346,428.5-349.8,428.5 M-349.8,428.7c3.7,0,6.7,3,6.7,6.7c0,3.7-3,6.7-6.7,6.7c-3.7,0-6.7-3-6.7-6.7
				C-356.5,431.7-353.5,428.7-349.8,428.7"/>
		</g>
	</g>
	<g>
		<g>
			<path class="st5" d="M-171.9,457.3l-0.1,0.2C-172,457.4-171.9,457.3-171.9,457.3L-171.9,457.3z M-170.6,456.8L-170.6,456.8
				l-0.2,0.3C-170.7,457-170.6,456.9-170.6,456.8L-170.6,456.8z M-165.5,457.6L-165.5,457.6c0,0,1.1,0.2,1.9,0.8
				c-0.5-0.4-1.3-0.7-2.1-0.9c-0.7-0.2-1.2-0.3-1.6-0.2c0.4-0.2,0.6-0.3,0.8-0.3c0.6,0,1.1,0.2,1.8,0.6c-0.6-0.4-1.5-0.7-2.3-0.7
				c-0.4-0.1-0.8-0.1-1.2,0.1l0.8-0.5c0.5,0,1.1,0,1.8,0.3c-0.5-0.2-1.3-0.4-2-0.4c-0.8-0.1-1.4,0.1-1.9,0.5l0.7-0.7
				c0.5-0.1,1-0.1,1.7-0.1c-0.7-0.1-1.6-0.1-2.3,0.1c-0.6,0.2-1,0.3-1.3,0.6l0.4-0.6c0.6-0.3,1.7-0.5,2.3-0.5
				c-1.2-0.1-3.1,0.6-3.3,0.8c-0.4,0.2-0.6,0.5-0.8,0.8l0.4-0.8c0.6-0.4,1.3-0.7,2.3-0.8c-0.8,0.1-1.6,0.3-2.4,0.7s-1.3,0.9-1.5,1.6
				l0.2-0.9c0.5-0.5,1.2-1,2.3-1.3c-0.9,0.2-2,0.8-2.7,1.5c-0.3,0.4-0.6,0.7-0.6,1.1c0-0.2-0.1-0.3-0.1-0.3c0.2-0.3,1.2-1.4,2.2-2
				c-1.3,0.8-2.1,1.6-2.4,2c-0.5,0.7-0.5,1.3,0,2c0.4,0.3,0.9,0.3,1.6-0.1c0.6-0.1,1.2-0.1,2.1,0c-0.6-0.2-1.3-0.2-2-0.2h-0.1
				c0.3,0,0.6-0.1,0.9-0.3c0.5,0,1.1,0.1,1.7,0.4c-0.4-0.2-1.1-0.4-1.7-0.5l-0.3-0.1c0.4,0.1,0.8,0.2,1.3,0.1c0.4,0.1,1,0.2,1.4,0.2
				c-0.6-0.1-1-0.2-1.4-0.3l-0.7-0.5c0.6,0.3,1.1,0.3,1.8,0.3c0.4,0.1,0.9,0.3,1.3,0.5c-0.3-0.2-0.8-0.5-1.3-0.6l-0.6-0.4
				c0.4,0.2,0.8,0.3,1.4,0.5c0,0,0.7,0.2,1.2,0.5c-0.3-0.3-0.8-0.5-1.3-0.7l-0.3-0.4l0.2,0.1c0.3,0.2,0.6,0.3,1,0.3
				c0.3,0.1,0.6,0.3,1,0.6c-0.2-0.2-0.6-0.4-0.9-0.6l-0.3-0.5c0.4,0.3,1.1,0.6,1.8,0.8c0.3,0.2,0.6,0.4,0.9,0.6
				c-0.2-0.2-0.5-0.4-0.8-0.6c-0.1-0.2-0.3-0.4-0.5-0.6c0.3,0.2,0.9,0.4,1.7,0.7l0,0c0.3,0.2,0.6,0.4,0.9,0.6
				c-0.3-0.3-0.6-0.5-1-0.7l-0.6-0.6l0.2,0.1c0.6,0.1,1,0.4,1.7,0.9c-0.4-0.4-1-0.8-1.6-1c0.4,0.1,0.9,0.1,1.4,0.1
				c0.6,0.1,1,0.4,1.7,0.9c-0.3-0.4-0.9-0.7-1.5-0.9c-0.7-0.4-1.3-0.7-2-0.8L-165.5,457.6z"/>
			<path class="st6" d="M-171.9,459.4c-0.8-0.3-1.5-0.4-1.7-0.1C-173.3,459.7-173,459.7-171.9,459.4L-171.9,459.4z M-170.9,459.3
				L-170.9,459.3c-0.8-0.7-1.6-0.9-1.9-0.7C-172.7,459.1-172,459.2-170.9,459.3L-170.9,459.3z M-169.9,459L-169.9,459
				c-0.8-0.7-1.6-1-2-0.8C-171.8,458.7-171,458.9-169.9,459L-169.9,459z M-169.2,458.8L-169.2,458.8c-0.6-0.8-1.3-1.2-1.7-1.1
				C-170.9,458.3-170.2,458.5-169.2,458.8L-169.2,458.8z M-168.2,458.7L-168.2,458.7c-0.6-0.8-1.1-1.1-1.5-1
				C-169.8,458.1-169.3,458.4-168.2,458.7L-168.2,458.7z M-168.6,457.9L-168.6,457.9c0.1,0.3,0.6,0.6,1.7,1
				C-167.6,458.1-168.2,457.8-168.6,457.9L-168.6,457.9z M-167.6,457.9L-167.6,457.9c0.1,0.3,0.8,0.7,2,1.1
				C-166.5,458.2-167.2,457.8-167.6,457.9L-167.6,457.9z M-167.8,457.7L-167.8,457.7c0.3,0.2,0.9,0.1,2.1-0.1
				C-166.9,457.3-167.6,457.4-167.8,457.7L-167.8,457.7z M-168.9,457.7L-168.9,457.7c0.2-0.1,0.3-0.2,0.5-0.2
				c-0.1,0-0.2,0.1-0.3,0.2c0.8-0.1,1.2-0.6,1.8-0.8C-167.9,456.8-168.7,457-168.9,457.7L-168.9,457.7z M-169.6,457.5L-169.6,457.5
				c0.1-0.1,0.4-0.3,0.5-0.3c-0.1,0.1-0.3,0.2-0.4,0.4c0.6-0.1,1-0.6,1.8-1.1C-168.8,456.5-169.7,456.9-169.6,457.5L-169.6,457.5z
				 M-170.7,457.6L-170.7,457.6c0.1-0.2,0.4-0.3,0.5-0.3c-0.1,0.1-0.3,0.2-0.3,0.4c0.5-0.2,1-0.9,1.7-1.4
				C-170.1,456.4-170.9,457-170.7,457.6L-170.7,457.6z M-171.8,457.9L-171.8,457.9c0.1-0.2,0.3-0.4,0.4-0.4
				c-0.1,0.1-0.2,0.3-0.2,0.5c0.5-0.3,0.7-1,1.3-1.7C-171.5,456.7-172.2,457.4-171.8,457.9L-171.8,457.9z M-171.8,456.6
				L-171.8,456.6c-0.9,0.5-1.5,1.2-1.2,1.9c0.2-0.4,0.4-0.6,0.6-0.8c-0.2,0.2-0.3,0.5-0.4,0.8C-172.2,458.2-172.2,457.4-171.8,456.6
				L-171.8,456.6z M-173.1,457.2L-173.1,457.2c-0.8,0.5-1,1.2-0.7,2c0.1-0.1,0.2-0.5,0.3-1c0,0.5,0,0.9-0.1,1.1
				C-173,458.8-173.4,457.8-173.1,457.2L-173.1,457.2z M-174.1,458.1L-174.1,458.1c-0.5,0.7-0.5,1.3-0.1,1.8
				C-173.5,459.7-174,459-174.1,458.1L-174.1,458.1z M-172.8,459.8L-172.8,459.8c-0.8-0.2-1.2-0.1-1.3,0.2
				C-173.9,460.2-173.8,460.3-172.8,459.8L-172.8,459.8z M-166.9,457.9L-166.9,457.9c0.3,0.2,1,0.5,2.2,0.5
				C-165.8,458-166.4,457.8-166.9,457.9L-166.9,457.9z"/>
			<path class="st5" d="M-183.8,459.2c0.6,0.3,1,0.7,1.4,1.1c1.7,2.6,2.4,4.2,2.7,4.5c0.2,0.4-0.2,0.9-1,1.4
				c-0.4,0.2-3.3-1.9-7.7-4.3v-1c1.6,0.5,3.1,1.3,4.4,2.3c1.6,1.2,2.7,1.9,3.4,2.1c0.1-0.3-0.4-1.4-1.6-3.4
				c-0.3-0.6-0.5-1.1-0.6-1.5C-183,460-183.3,459.6-183.8,459.2L-183.8,459.2z"/>
			<path class="st6" d="M-180.5,465.4v0.2c-0.5,0-1.4-0.5-3-1.4c1.3,0.9,2.3,1.4,2.9,1.5c-0.2,0.2-0.8,0-1.7-0.5
				c0.8,0.5,1.3,0.7,1.6,0.7c0,0.1,0,0.1-0.1,0.2c-0.6,0-3.2-1.7-7.6-4.3v-0.6c2.3,0.7,3.3,1.7,4.6,2.5
				C-182.2,464.6-181.1,465.5-180.5,465.4L-180.5,465.4z M-183.3,459.6L-183.3,459.6c1,0.8,1.3,1.7,2.2,3.2c0.6,1,1,1.8,1.3,2.2
				c0,0.4-0.2,0.7-0.7,0.9c0.4-0.4-0.3-1.8-1-2.9C-182.5,461.4-182.2,460.7-183.3,459.6L-183.3,459.6z"/>
			<path class="st5" d="M-173.8,453c0.6-1.8,1.3-2.6,1.9-3.5c-0.9,1.5-1.2,1.9-1.6,3v0.5c0-0.3,0.1-0.6,0.3-0.8
				c0.6-1.8,1.5-2.7,2.1-3.5c-0.9,1.5-1.3,1.9-1.7,2.9l0.1,0.4c0.1-0.5,0.3-0.9,0.5-1.1c0.8-1.7,1.5-2.2,2.2-3
				c-1.1,1.5-1.5,1.9-2,3.1l0.1,0.4c0.1-0.5,0.2-0.7,0.4-1c1-1.8,1.8-2.3,2.5-3.1c-1.2,1.5-1.7,1.8-2.3,3c0,0.1,0.1,0.2,0.1,0.3
				c0.1-0.5,0.4-1,0.8-1.5c0.5-0.6,1.5-1.7,2.4-2.7c-1.2,1.3-2.2,2.5-2.4,2.8v0.2c0.2-0.4,0.5-0.7,0.7-0.9c0.4-0.5,1.4-1.5,2.5-2.6
				c-1.1,1.2-2.2,2.3-2.4,2.7v0.5c0.4-0.4,0.9-0.7,1.4-1c0.5-0.4,1.4-1.4,2.4-2.5c-0.8,1-1.7,2-2.3,2.5c-0.2,0.6-0.5,1.1-0.9,1.6
				c0.1,0,0.3,0,0.5-0.1c0.4-0.3,1.5-1.4,2.5-2.6c-1,1.2-2.1,2.5-2.6,2.8c-0.2,0.2-0.4,0.5-0.7,0.7h0.3c0.3-0.2,1.1-1,2.3-2
				c-0.9,1-1.8,1.8-2.2,2.2c-0.2,0.2-0.4,0.4-0.7,0.6h0.4c0.4-0.3,1.1-1,2.1-1.8c-0.9,1-1.8,1.8-2.2,2.2c-0.2,0.2-0.5,0.4-0.8,0.6
				h0.4c0.4-0.3,1.1-0.8,2-1.5c-0.9,0.8-1.6,1.4-2.2,1.8c-0.3,0.2-0.6,0.4-0.9,0.6h0.4c0.4-0.2,1.1-0.7,2-1.4
				c-0.8,0.7-1.5,1.2-2.1,1.5c-0.3,0.3-0.5,0.5-0.9,0.7l0.1,0.1c0.5-0.3,1.3-0.8,2.1-1.4c-0.9,0.8-1.6,1.3-2.2,1.6
				c-0.2,0.2-0.4,0.4-0.7,0.5h0.2c0.4-0.2,1.1-0.7,2.1-1.4c-0.8,0.8-1.6,1.3-2.3,1.7c-0.9,0.9-1.7,1.3-2.6,1.1
				c-0.5-0.7-0.5-1.5,0-2.5c0.7-2,1.4-2.7,1.9-3.6c-0.9,1.5-1.2,1.9-1.6,3l0.1,0.4C-174.1,453.6-174,453.3-173.8,453L-173.8,453z"/>
			<path class="st6" d="M-169.5,451.9c-0.7,0.7-1,0.9-2,0.7c0.2-0.1,0.2-0.2,0.8-0.4c-0.6,0-0.6,0.1-0.8,0.2
				C-170.8,451.5-170.3,451.9-169.5,451.9L-169.5,451.9z M-172.4,455.5L-172.4,455.5c-0.6,0.9-1,1.2-2.1,1.2
				c0.1-0.2,0.5-0.4,1.1-0.7c-0.6,0.2-1,0.4-1.2,0.5C-174,455.4-173.1,455.7-172.4,455.5L-172.4,455.5z M-171.7,454.7L-171.7,454.7
				c-0.7,0.7-1.1,1-2.1,0.7c0.2-0.1,0.6-0.4,1.3-0.5c-0.6,0-1.1,0.2-1.3,0.3C-173,454.3-172.5,454.7-171.7,454.7L-171.7,454.7z
				 M-170.9,453.7L-170.9,453.7c-0.7,0.7-1.1,1-2.1,0.7c0.2-0.1,0.6-0.4,1.3-0.5c-0.6,0-1.1,0.2-1.3,0.3
				C-172.2,453.4-171.7,453.8-170.9,453.7L-170.9,453.7z M-170.2,452.8L-170.2,452.8c-0.7,0.7-1.1,1-2.1,0.7c0.2-0.1,0.4-0.3,1-0.4
				c-0.6,0-0.8,0.1-1,0.2C-171.5,452.4-170.9,452.8-170.2,452.8L-170.2,452.8z M-169.2,451.1L-169.2,451.1c-0.7,0.7-0.9,0.8-1.8,0.6
				c0.1-0.1,0.1-0.2,0.7-0.3c-0.6,0-0.6,0-0.8,0.1C-170.4,450.9-169.9,451.1-169.2,451.1L-169.2,451.1z M-168.7,450.1L-168.7,450.1
				c-0.5,0.7-0.6,0.9-1.5,0.8c0.1-0.1,0.1-0.2,0.6-0.4c-0.5,0.1-0.5,0.1-0.7,0.2C-169.9,450.2-169.4,450.3-168.7,450.1L-168.7,450.1
				z M-174.4,454L-174.4,454c0.1,0.8,0.5,1.5-0.2,2.4c0.1-0.2-0.1-0.5,0-1c-0.2,0.5-0.1,0.9-0.2,1C-175.2,455.5-175,454.9-174.4,454
				L-174.4,454z M-173.6,453L-173.6,453c0.1,0.7,0.5,1.3-0.2,2.1c0.1-0.2-0.1-0.4,0-0.9c-0.1,0.4-0.1,0.7-0.2,0.9
				C-174.3,454.3-174.1,453.8-173.6,453L-173.6,453z M-172.9,452.2L-172.9,452.2c0.1,0.7,0.4,1.6-0.3,2.1
				C-173.6,453.5-173.4,452.9-172.9,452.2L-172.9,452.2z M-172.2,451.3L-172.2,451.3c0.1,0.7,0.4,1.6-0.3,2.1
				C-172.8,452.6-172.7,452-172.2,451.3L-172.2,451.3z M-171.4,450.6L-171.4,450.6c0.1,0.6,0.3,1.3-0.3,1.8
				C-172,451.7-171.9,451.2-171.4,450.6L-171.4,450.6z M-170.6,449.7L-170.6,449.7c0,0.6,0.1,1.4-0.6,1.7
				C-171.3,450.7-171.1,450.3-170.6,449.7L-170.6,449.7z M-169.9,449.1L-169.9,449.1c0,0.5,0.1,1.2-0.5,1.5
				C-170.5,450-170.4,449.6-169.9,449.1L-169.9,449.1z M-168.5,448.6L-168.5,448.6c-0.2,0.5-0.5,1.4-1.4,1.6
				C-169.8,449.3-168.9,449-168.5,448.6L-168.5,448.6z"/>
			<path class="st5" d="M-178.1,463.9c-0.2,0.2-0.5,0.3-0.8,0.3c-2.8,0.3-6-0.5-9.3-2.5v-0.6c3.4,2.1,6.4,2.9,9.1,2.5
				c0.1-0.2,0.3-0.3,0.4-0.3L-178.1,463.9z"/>
			<path class="st5" d="M-175.2,460.9l-0.2,0.1C-175.3,461-175.2,461-175.2,460.9L-175.2,460.9z M-174.6,459.4L-174.6,459.4
				l-0.4,0.2C-174.8,459.6-174.7,459.5-174.6,459.4L-174.6,459.4z M-175.7,453.7L-175.7,453.7c0,0-0.2-1.3-1-2.2
				c0.5,0.6,0.9,1.5,1.2,2.4c0.3,0.8,0.4,1.4,0.3,1.8c0.2-0.4,0.3-0.7,0.3-0.9c-0.1-0.6-0.3-1.2-0.7-2c0.5,0.7,0.9,1.8,1,2.7
				c0.1,0.5,0.1,0.9-0.1,1.3l0.6-0.9c0-0.6-0.1-1.2-0.4-2c0.3,0.6,0.5,1.5,0.5,2.2c0.1,0.9-0.1,1.6-0.6,2.1l0.9-0.8
				c0.2-0.6,0.2-1.2,0.1-2c0.2,0.8,0.2,1.8-0.1,2.6c-0.2,0.6-0.4,1.1-0.8,1.4l0.7-0.5c0.3-0.7,0.6-2,0.6-2.6c0.1,1.3-0.8,3.5-1,3.7
				c-0.2,0.4-0.6,0.7-0.9,0.9l1-0.4c0.5-0.7,0.8-1.5,1-2.6c-0.1,0.8-0.4,1.8-0.8,2.7s-1.1,1.5-2,1.7l1.1-0.2
				c0.6-0.6,1.2-1.4,1.6-2.5c-0.3,1.1-1,2.2-1.8,3c-0.4,0.4-0.9,0.7-1.3,0.7c0.2,0,0.3,0.1,0.4,0.2c0.4-0.2,1.7-1.3,2.5-2.4
				c-1,1.5-2,2.3-2.5,2.7c-0.9,0.5-1.7,0.5-2.5,0c-0.4-0.5-0.4-1.1,0.1-1.8c0.2-0.7,0.1-1.4-0.1-2.3c0.2,0.7,0.3,1.5,0.2,2.3v0.1
				c0-0.3,0.1-0.6,0.4-1.1c0-0.5-0.2-1.2-0.5-1.9c0.3,0.5,0.5,1.2,0.6,1.9l0.2,0.3c-0.1-0.5-0.2-0.9-0.2-1.5
				c-0.2-0.5-0.3-1.1-0.3-1.6c0.1,0.7,0.2,1.2,0.4,1.6l0.6,0.8c-0.3-0.7-0.4-1.3-0.4-2c-0.1-0.4-0.4-1-0.7-1.5
				c0.3,0.4,0.6,0.9,0.8,1.5l0.6,0.7c-0.2-0.4-0.4-1-0.6-1.6c0,0-0.3-0.8-0.7-1.4c0.4,0.4,0.7,0.9,0.9,1.5l0.5,0.3l-0.1-0.2
				c-0.2-0.3-0.3-0.7-0.4-1.1c-0.2-0.4-0.4-0.7-0.7-1.1c0.3,0.3,0.5,0.7,0.7,1.1l0.6,0.4c-0.4-0.5-0.8-1.2-1.1-2.1
				c-0.2-0.3-0.5-0.7-0.8-1c0.3,0.2,0.6,0.6,0.8,0.9c0.3,0.1,0.5,0.3,0.8,0.6c-0.3-0.4-0.6-1-0.9-1.9l0,0c-0.2-0.3-0.5-0.7-0.8-1
				c0.3,0.3,0.7,0.7,0.9,1.2l0.8,0.7l-0.1-0.2c-0.2-0.7-0.5-1.2-1.2-1.9c0.5,0.4,1,1.1,1.3,1.8c-0.1-0.5-0.1-1-0.1-1.6
				c-0.2-0.6-0.5-1.2-1.2-1.9c0.5,0.4,0.9,1,1.2,1.7c0.5,0.8,0.9,1.5,1,2.3L-175.7,453.7z"/>
			<path class="st6" d="M-177.8,460.9c0.4,0.9,0.6,1.7,0.1,1.9C-178.2,462.4-178.2,462.1-177.8,460.9L-177.8,460.9z M-177.7,459.8
				L-177.7,459.8c0.8,0.9,1.1,1.8,0.8,2.2C-177.4,461.8-177.6,461-177.7,459.8L-177.7,459.8z M-177.3,458.6L-177.3,458.6
				c0.8,0.9,1.3,1.9,1,2.3C-176.9,460.8-177.2,459.9-177.3,458.6L-177.3,458.6z M-177.1,457.8L-177.1,457.8c1,0.7,1.5,1.5,1.3,1.9
				C-176.4,459.7-176.7,459-177.1,457.8L-177.1,457.8z M-177,456.7L-177,456.7c1,0.7,1.4,1.3,1.2,1.7
				C-176.2,458.5-176.6,457.9-177,456.7L-177,456.7z M-176,457.1L-176,457.1c-0.3-0.1-0.8-0.8-1.3-2
				C-176.2,456-175.8,456.7-176,457.1L-176,457.1z M-176,456L-176,456c-0.4-0.2-0.8-0.9-1.4-2.3C-176.3,454.8-175.9,455.6-176,456
				L-176,456z M-175.7,456.3L-175.7,456.3c-0.2-0.3-0.2-1.1,0.1-2.4C-175.3,455.3-175.3,456.1-175.7,456.3L-175.7,456.3z
				 M-175.7,457.5L-175.7,457.5c0.2-0.2,0.2-0.4,0.2-0.6c0,0.1-0.1,0.2-0.3,0.4c0.1-0.9,0.8-1.4,0.9-2
				C-174.6,456.4-174.9,457.3-175.7,457.5L-175.7,457.5z M-175.4,458.3L-175.4,458.3c0.2-0.2,0.3-0.5,0.3-0.6
				c-0.1,0.1-0.2,0.3-0.5,0.4c0.2-0.6,0.8-1.1,1.3-2C-174.2,457.5-174.7,458.5-175.4,458.3L-175.4,458.3z M-175.5,459.6
				L-175.5,459.6c0.2-0.1,0.4-0.4,0.4-0.5c-0.1,0.1-0.3,0.3-0.5,0.4c0.3-0.6,1.1-1.1,1.7-1.8C-174,458.9-174.8,459.8-175.5,459.6
				L-175.5,459.6z M-176,460.8L-176,460.8c0.2-0.1,0.5-0.3,0.5-0.4c-0.2,0.1-0.3,0.2-0.6,0.3c0.4-0.5,1.3-0.8,2.1-1.4
				C-174.4,460.5-175.4,461.2-176,460.8L-176,460.8z M-174.3,460.8L-174.3,460.8c-0.6,1-1.5,1.6-2.3,1.3c0.5-0.2,0.8-0.4,1-0.6
				c-0.3,0.2-0.6,0.4-1,0.4C-176.2,461.3-175.3,461.3-174.3,460.8L-174.3,460.8z M-175.1,462.2L-175.1,462.2
				c-0.6,0.9-1.5,1.1-2.5,0.7c0.2-0.1,0.6-0.2,1.3-0.3c-0.6,0-1.1,0-1.3,0.1C-177.1,462.1-175.8,462.7-175.1,462.2L-175.1,462.2z
				 M-176.2,463.4L-176.2,463.4c-0.8,0.6-1.6,0.6-2.2,0.1C-178.2,462.7-177.3,463.3-176.2,463.4L-176.2,463.4z M-178.3,461.9
				L-178.3,461.9c0.2,0.9,0.1,1.4-0.2,1.5C-178.7,463.1-179,463-178.3,461.9L-178.3,461.9z M-176,455.2L-176,455.2
				c-0.3-0.3-0.7-1.1-0.7-2.6C-176.1,454-175.9,454.6-176,455.2L-176,455.2z"/>
			<path class="st6" d="M-178.4,463.9c-0.2-0.1-0.3-0.2-0.4-0.4c-0.1,0-0.2,0.1-0.3,0.2c-2.6,0.5-5.7-0.3-9.1-2.4v0.3
				c3.5,2.1,6.6,2.9,9.1,2.5C-178.8,464-178.5,464-178.4,463.9L-178.4,463.9z"/>
		</g>
		<circle class="st10" cx="-196.2" cy="446.8" r="19.8"/>
		<g>
			<path class="st4" d="M-180.4,446.3c-0.3-0.3-0.7-0.3-1.1-0.2c0-0.3,0-0.6,0.1-0.8c0-0.2-0.4-0.2-0.5-0.1
				c-0.2,0.1-0.4,0.2-0.5,0.4c-0.3,0-0.5,0-0.7,0.1c-0.7,0.3-1,1.1-1.1,1.8c0,0.1-0.1,0.3-0.1,0.5l0,0c-0.1,0.3-0.2,0.7-0.4,0.8
				c-0.2,0.1-0.3-0.8-0.3-0.9c0-1,0.2-1.9,0.4-2.8c0-0.2-0.2-0.3-0.4-0.2c-0.2,0.1-0.5,0.2-0.6,0.4c-0.2,0.7-0.3,1.4-0.4,2.1
				c-0.1,0.3-0.2,0.6-0.3,0.9l0,0c-0.1,0-0.1-0.1-0.2-0.1c-0.5-0.3-0.3-1.2-0.3-1.6c0.1-0.6,0.2-1.2,0.5-1.8c0.1-0.2,0-0.3-0.2-0.3
				s-0.5,0.2-0.6,0.4c-0.2,0.5-0.3,1-0.5,1.5c-0.1,0.5-0.4,1-0.6,1.3l-0.1,0.1c0,0,0,0,0-0.1c-0.1-0.4-0.1-0.8,0-1.2
				c0-0.6,0.1-1.2,0.2-1.8l0,0c0-0.5-0.4-0.8-0.9-0.8s-1,0.4-1.3,0.7c-0.3,0.5-0.5,1.2-0.6,1.3c-0.1,0.5-0.3,1-0.6,1.4
				c-0.1,0-0.1-0.1-0.1-0.2c-0.1-0.3-0.2-0.6-0.2-0.9c-0.1-0.9-0.1-1.7,0-2.6l0,0v-0.1c0,0-0.1,0-0.1-0.1c-0.2-0.1-0.5,0.1-0.7,0.3
				c-0.5,0.6-0.5,1.4-0.6,2c-0.1,0.4-0.2,0.8-0.3,1.2c0,0,0,0.1-0.1,0.2c-0.1-0.1-0.2-0.2-0.2-0.3l0,0c0-0.2-0.1-0.2-0.3-0.2
				c-0.2,0.1-0.5,0.3-0.6,0.5l0,0l0,0c-0.2,0-0.2-0.2-0.3-0.3c-0.1-0.3-0.1-0.6-0.1-0.9c0-0.2,0-0.4,0-0.6c0-0.5,0.1-0.9,0.1-1.4
				c0-0.1,0-0.3,0-0.4c0-0.2-0.3-0.2-0.4-0.1c-0.2,0.1-0.5,0.3-0.5,0.6c0,0.3,0,0.5,0,0.8c0,0.3,0,0.5,0,0.8c0,0.2,0,0.4-0.1,0.7
				c0,0.3-0.1,0.6-0.2,1l0,0c-0.1,0-0.1,0-0.2,0c-0.5-0.2-0.5-1.1-0.5-1.5c0-0.6,0-1.3,0.2-1.8c0-0.1,0.1-0.2,0-0.3s-0.3,0-0.4,0.1
				c-0.1,0.1-0.4,0.4-0.6,0.5c-0.4,0.2-0.8,0.1-1.1-0.1c-0.1-0.1-0.2-0.2-0.4-0.3c-0.4-0.2-0.8,0-1.1,0.3c0-0.3-0.1-0.5-0.2-0.8
				c-0.1-0.2-0.5,0-0.5,0.1c-0.2,0.1-0.4,0.4-0.3,0.6c-0.3,0.1-0.5,0.3-0.7,0.4c-0.6,0.6-0.6,1.4-0.6,2.1c0,0.1,0,0.3,0,0.5
				c0,0.1,0,0.8-0.2,1c-0.2,0.2-0.6-0.6-0.6-0.7c-0.3-0.9-0.3-1.9-0.4-2.8c0-0.2-0.3-0.1-0.4,0c-0.2,0.1-0.4,0.4-0.4,0.6
				c0,0.7,0.1,1.5,0.1,2.2c0,0.3,0,0.7-0.1,1l0,0c-0.1,0-0.1,0-0.2,0c-0.5-0.1-0.6-1-0.7-1.4c-0.1-0.6-0.1-1.3,0-1.9
				c0-0.2-0.1-0.3-0.3-0.2s-0.5,0.4-0.5,0.6c-0.1,0.8-0.1,1.6,0.1,2.4c0.1,0.6,0.4,1.5,1.1,1.4c0.5-0.1,0.8-0.4,1.1-0.8
				c0.1,0.1,0.1,0.2,0.2,0.3c0.4,0.5,1.1,0,1.5-0.4c0-0.1,0.1-0.1,0.1-0.2c0.1,0.1,0.2,0.2,0.3,0.3c0.2,0.2,0.5,0.2,0.8,0.1
				c0.1,0,0.2-0.1,0.3-0.1c0,0.9,0.1,1.8,0.1,2.7c0,0.2,0.3,0.2,0.4,0.1c0.2-0.1,0.4-0.4,0.4-0.6c0-0.7,0-1.4,0-2.1
				c0.3,0,0.7-0.2,0.9-0.5c0.6-0.6,0.7-1.5,0.6-2.3c0-0.1,0-0.3-0.1-0.4c0.3,0,0.5-0.2,0.8-0.3c-0.1,0.6-0.1,1.2-0.1,1.8
				s0.2,1.5,0.9,1.6c0.4,0,0.8-0.2,1.1-0.5c0.2,0.3,0.5,0.5,0.9,0.5c0.2,0,0.3-0.1,0.4-0.2c0.3,0.3,0.8,0.3,1.2,0
				c0.3-0.3,0.5-0.6,0.6-0.9c0,0.1,0,0.2,0,0.3c0.1,0.3,0.1,0.6,0.3,0.9s0.6,0.1,0.9,0c0.2-0.1,0.5-0.3,0.6-0.5
				c0.1,0.3,0.2,0.6,0.4,0.7c0.4,0.2,0.9,0,1.2-0.2c0,0.2,0.1,0.4,0.3,0.5c0.5,0.2,1-0.2,1.3-0.5l0,0c0.1,0.4,0.2,0.8,0.7,0.9
				c0.5,0.2,0.9,0,1.2-0.3c0,0.1,0.1,0.2,0.1,0.3c0.3,0.7,1,0.4,1.4,0.2c0.1,0,0.1-0.1,0.2-0.1c0,0.1,0.1,0.3,0.2,0.4
				c0.1,0.3,0.4,0.4,0.7,0.5c0.1,0,0.2,0,0.3,0c-0.2,0.9-0.4,1.7-0.7,2.6c-0.1,0.2,0.2,0.3,0.3,0.2c0.2,0,0.5-0.2,0.5-0.4
				c0.2-0.7,0.4-1.3,0.6-2c0.3,0.1,0.7,0.1,1-0.1c0.7-0.3,1-1.2,1.2-2C-180.1,447.8-179.9,446.8-180.4,446.3z M-201.2,447.6h-0.1
				c-0.2-0.1-0.3-0.2-0.4-0.3c-0.3-0.4-0.3-0.9-0.4-1.4c0-0.4,0-0.8,0.1-1.2h0.1c0.3,0.2,0.5,0.6,0.6,1l0,0
				C-201.2,446.3-201.2,446.9-201.2,447.6C-201.1,447.6-201.1,447.6-201.2,447.6z M-199.7,447.4L-199.7,447.4
				C-199.7,447.5-199.7,447.5-199.7,447.4c-0.4,0.1-0.6-0.1-0.6-0.4l0,0c0-0.7-0.1-1.3-0.2-2c0-0.2,0-0.3,0-0.5l0,0l0,0
				c0.1,0,0.2,0,0.3,0.1l0,0l0.1,0.1c0.3,0.3,0.4,0.8,0.4,1.2C-199.5,446.4-199.5,446.9-199.7,447.4z M-189.3,445.2
				c-0.1,0.8-0.2,1.6-0.5,2.4c0,0-0.1,0.1-0.1,0.2h-0.1c-0.2-0.1-0.2-0.4-0.3-0.5c-0.1-0.6,0-1.3,0.2-1.8c0.1-0.2,0.2-0.5,0.3-0.5
				l0,0h0.1C-189.4,444.8-189.3,445-189.3,445.2z M-182.6,447.5L-182.6,447.5c-0.1,0.6-0.2,1.2-0.3,1.8l0,0l0,0l-0.1-0.1
				c-0.1-0.1-0.2-0.3-0.2-0.5c-0.1-0.5-0.1-1,0-1.5c0.1-0.4,0.2-0.8,0.4-1.1c0,0,0,0.1,0.1,0.1
				C-182.6,446.7-182.5,447.1-182.6,447.5z M-181.1,448.4c-0.1,0.5-0.2,1-0.5,1.3l0,0l0,0c-0.3-0.1-0.4-0.4-0.4-0.7l0,0
				c0.1-0.6,0.3-1.3,0.4-2c0-0.2,0.1-0.3,0.2-0.5l0,0l0,0c0.1,0,0.2,0.2,0.3,0.3C-181,447.4-181,448-181.1,448.4z"/>
			<path class="st4" d="M-184.3,443.9c0.1-0.1,0.4-0.3,0.3-0.5c-0.1-0.2-0.5-0.1-0.6,0c-0.3,0.2-0.6,0.3-1,0
				c-0.1-0.1-0.3-0.2-0.4-0.3c-0.2-0.3-1.1,0.2-0.9,0.5C-186.3,444.6-185,444.3-184.3,443.9z"/>
			<path class="st4" d="M-209.5,445.5c-0.1-0.4-0.2-0.7-0.3-1.1c0.8-0.2,1.5-0.5,2.2-0.8c0.2-0.1,0.4-0.4,0.5-0.6
				c0-0.2-0.1-0.3-0.3-0.2c-1.3,0.6-2.8,0.9-4.1,1.4c-0.5,0.2-1.1,0.6-1.3,1.1c-0.3,0.6-0.2,1.2,0.1,1.7c0.2,0.3,0.9-0.6,0.7-0.9
				c-0.1-0.2-0.2-0.4-0.3-0.6v-0.1c0.3-0.3,0.8-0.4,1.2-0.5c0.1,0,0.2-0.1,0.3-0.1c0.2,0.4,0.3,0.8,0.4,1.2
				c-0.5,0.3-0.8,0.8-1.1,1.2c-0.5,1-0.6,3.7,1.2,3.4c1.2-0.2,1.3-1.6,1.2-2.6c-0.1-0.5-0.1-1.1-0.2-1.6c0.1,0,0.2,0,0.3,0
				c0.7,0.1,1,0.7,1.1,1.3c0.1,0.5,0,1.2-0.4,1.6c-0.1,0.1-0.3,0.5-0.2,0.7c0.1,0.2,0.4-0.1,0.5-0.2c0.9-1,1.3-2.7,0.4-3.9
				C-208,445.3-208.8,445.3-209.5,445.5z M-209.9,449.5c-0.3,0-0.5-0.1-0.7-0.2c-0.5-0.4-0.6-1.5-0.2-2.2c0.2-0.3,0.4-0.4,0.7-0.6
				c0.2,0.6,0.3,1.3,0.4,1.9c0,0.3,0.1,0.6,0.1,0.9v0.1C-209.8,449.5-209.9,449.5-209.9,449.5z"/>
		</g>
		<g>
			<path class="st4" d="M-191.3,455.6c-0.2,0.3-0.6-0.5-0.6-0.6s-0.1-0.2-0.1-0.3c-0.1-0.2-0.2-0.5-0.2-0.7v-0.1
				c-0.1-0.2-0.3,0.2-0.3,0.4c0.1,0.3,0.2,0.6,0.2,1c0,0.2,0.1,0.3,0.1,0.5c0,0.2,0,0.3-0.2,0.2c-0.5-0.2-0.5-1.3-0.5-1.7
				c0-0.3-0.3,0.1-0.3,0.2c0,0.2,0,0.9,0.2,1.4c-0.1,0.2-0.3,0.4-0.4,0.3c-0.1-0.1-0.1-0.4-0.2-0.5c-0.1-0.3-0.3-0.3-0.6-0.2l0,0
				c0-0.1,0-0.3,0.1-0.4c0-0.1,0.1-0.2,0.3-0.2c0.2,0.1,0.5-0.4,0.3-0.4c-0.4-0.2-0.7,0-0.9,0.5c0-0.3-0.1-0.5-0.2-0.8
				c-0.1-0.2-0.4,0.2-0.4,0.4c0.2,0.5,0.2,1.1,0.2,1.7l0,0c-0.2,0.2-0.5,0.5-0.6,0.2c-0.1-0.2-0.1-0.5-0.1-0.7c0-0.2,0-0.4,0-0.6
				c0-0.1,0-0.1,0-0.2l0,0c-0.1-0.6-0.7-0.3-0.9,0.1c-0.3,0.4-0.4,0.9-0.4,1.4c-0.3,0.1-0.4,0.1-0.5-0.3c-0.1-0.5,0-1.1,0.1-1.6
				c0-0.3-0.4,0-0.4,0.1c-0.2,0.2-0.3,0.5-0.4,0.8c-0.1,0.2-0.1,0.3-0.2,0.5c0,0.1-0.1,0.2-0.1,0.3c-0.1,0.2-0.2,0-0.2-0.1
				s0-0.1-0.1-0.1h-0.1c-0.2,0-0.3,0.1-0.5,0.1c0-0.1-0.1-0.2-0.2-0.3c0.3-0.3,0.5-0.8,0.6-1.2c0-0.3,0-0.6-0.3-0.6
				c-0.4-0.1-0.8,0.3-1,0.6c-0.1,0.2,0.5,0.1,0.5,0s0.1-0.4,0.2-0.2c0.1,0.1,0,0.3,0,0.4c0,0.2-0.2,0.7-0.4,0.8c-0.1,0-0.1,0-0.2,0
				c-0.1,0-0.3,0.1-0.3,0.2c-0.1,0.1-0.1,0.1,0,0.1s0.2,0,0.3,0s0.2,0.1,0.2,0.3c-0.5,0.2-1.1,0.4-1.4,0.9c-0.4,0.5,0.2,1,0.8,0.9
				c0.7-0.1,1-0.8,1.1-1.4c0-0.1,0-0.2,0-0.2c0.1,0,0.1,0,0.2,0c0,0.4,0.6,0.4,0.9,0.2c0.1-0.1,0.2-0.2,0.2-0.3
				c0,0.2,0.1,0.3,0.1,0.4c0.2,0.3,0.7,0.2,1,0c0.1,0.3,0.5,0.4,0.8,0.1c0,0,0,0,0.1-0.1c0,0.1,0.1,0.2,0.1,0.2
				c0.2,0.2,0.7-0.1,1-0.4c0,0.1,0,0.2,0,0.3c0,0.3,0.5-0.1,0.5-0.3c0-0.2,0-0.4,0-0.7c0.3,0,0.2,0.8,0.5,0.8
				c0.3,0.1,0.6-0.2,0.8-0.5c0.1,0.2,0.3,0.3,0.6,0.2c0.2-0.1,0.4-0.3,0.5-0.5c0.3,0.4,0.7,0,0.9-0.3
				C-190.9,455.3-191.1,455.3-191.3,455.6z M-199.8,456.6c-0.1,0.4-0.2,0.8-0.6,1c-0.1,0.1-0.2,0-0.3-0.1c-0.1-0.2,0-0.3,0.1-0.4
				c0.2-0.3,0.5-0.5,0.8-0.6C-199.8,456.5-199.8,456.5-199.8,456.6z M-196.2,456.5c-0.1,0-0.1-0.1-0.2-0.2c-0.1-0.2-0.1-0.5,0-0.8
				c0-0.1,0.1-0.3,0.1-0.4c0-0.1,0.1-0.1,0.1-0.2c0.1-0.1,0.2,0.1,0.2,0.2c0,0.3,0,0.7-0.1,1C-196.1,456.3-196.2,456.5-196.2,456.5z
				"/>
		</g>
		<g>
			<g>
				<path class="st4" d="M-197.6,459.9c0.1,0.8-0.1,1.6-0.2,2.4c0,0.3,0.5,0,0.5-0.2c0.1-0.4,0.1-0.7,0.2-1.1
					c0.1-0.2,0.2-0.8,0.4-0.5c0.1-0.1,0.3-0.2,0.4-0.4c-0.8-0.5-1.2,0.7-1.4,1.3c0,0.1,0.1,0.1,0.2,0.1c0.5-0.2,0.3,0.6,0.4,0.8
					c0.2,0.3,0.6,0,0.8-0.1c0.3-0.2,0-0.4-0.2-0.2c-0.2,0.2-0.2-0.3-0.2-0.3c0-0.1,0-0.3-0.1-0.4c-0.2-0.3-0.4-0.2-0.7-0.1
					c0.1,0,0.1,0.1,0.2,0.1c0.1-0.2,0.1-0.9,0.5-0.7c0.2,0.1,0.5-0.3,0.4-0.4c-1-0.8-1.5,1.7-1.6,2.2c0.2-0.1,0.3-0.1,0.5-0.2
					c0.1-0.8,0.2-1.6,0.1-2.5C-197.2,459.4-197.7,459.7-197.6,459.9L-197.6,459.9z"/>
				<path class="st4" d="M-188.6,458.5c-0.3-0.6-0.8,0.1-1,0.5c-0.2,0.6-0.1,1.1,0.2,1.6c0.2,0.4,0.7,0.4,1-0.2
					S-188.5,459.1-188.6,458.5c-0.1,0.1-0.2,0.3-0.3,0.4c0.1,0.4,0.6,2.3,1.3,1.3c0.2-0.2,0-0.6-0.2-0.2c-0.1,0.1-0.4-0.4-0.4-0.4
					C-188.4,459.2-188.5,458.8-188.6,458.5c-0.1-0.2-0.4,0.3-0.3,0.4c0.1,0.3,0.2,0.7,0.3,1c0,0.1,0.1,0.4,0,0.4s-0.2,0-0.2-0.1
					c-0.2-0.2-0.3-0.4-0.3-0.7c0-0.1,0-0.3,0-0.4s0-0.2,0-0.2c0-0.2,0.3,0,0.3,0C-188.9,459.1-188.6,458.6-188.6,458.5L-188.6,458.5
					z"/>
				<path class="st4" d="M-201.7,461.1c-0.1,0.5,0.4,0.8,0.9,0.6c0.5-0.2,0.6-0.6,0.7-1.1c0.1-0.3,0.1-0.9-0.2-1.1
					c-0.1-0.1-0.4-0.1-0.6,0c-0.3,0.1-0.5,0.4-0.6,0.6s0.5,0.1,0.5-0.1c0.1-0.3,0.2-0.3,0.3,0c0,0.2,0,0.4,0,0.6s-0.1,0.4-0.2,0.6
					c0,0.1-0.1,0.1-0.2,0.2c0,0,0,0-0.1-0.1c-0.2-0.1-0.2-0.2-0.2-0.3C-201,460.8-201.6,460.9-201.7,461.1L-201.7,461.1z"/>
				<path class="st4" d="M-201.2,459.1c-0.2,1.3-0.5,2.5-1,3.7c-0.1,0.2,0.5,0.1,0.6,0c0.5-1.2,0.8-2.5,1-3.8
					C-200.7,458.8-201.2,458.9-201.2,459.1L-201.2,459.1z"/>
				<path class="st4" d="M-195.8,460.3c0.1,0.7,0,1.4,0,2c0,0.2,0.5-0.1,0.5-0.2c0-0.5,0-1,0.1-1.4c0-0.1,0-0.1,0.1-0.2v-0.1
					c0.1-0.1,0-0.1-0.1,0c0.1,0,0.1,0.2,0.1,0.2c0.2,0.5,0.1,1.1,0.1,1.7c0.2-0.1,0.3-0.2,0.5-0.3c0-0.5,0-1,0.1-1.5
					c0-0.1,0-0.2,0.1-0.3c-0.1,0.2-0.1,0.1,0,0.2c0.1,0.2,0.1,0.5,0.1,0.7c0,0.3-0.1,0.8,0.2,1c0.2,0.2,0.6-0.1,0.7-0.3
					c0.3-0.3,0-0.4-0.2-0.2c-0.1,0.1-0.1-0.2-0.2-0.3c0-0.3-0.1-0.6-0.1-0.8c0-0.2-0.1-0.8-0.4-0.8c-0.3,0-0.5,0.5-0.6,0.7
					c-0.2,0.5-0.2,1.2-0.2,1.7c0,0.3,0.5-0.1,0.5-0.3c0-0.4,0-0.9-0.1-1.3c0-0.2-0.1-0.8-0.3-0.8c-0.3-0.1-0.5,0.3-0.6,0.5
					c-0.2,0.6-0.3,1.2-0.3,1.9c0.2-0.1,0.3-0.2,0.5-0.2c0-0.7,0-1.4-0.1-2C-195.3,459.8-195.8,460.1-195.8,460.3L-195.8,460.3z"/>
				<path class="st4" d="M-192.5,459.6c-0.5,0.2-0.7,0.8-0.7,1.3c0,0.4,0.1,1.3,0.7,1.2c0.7-0.1,0.8-0.9,0.8-1.3
					S-191.9,459.5-192.5,459.6c-0.2,0-0.4,0.5-0.2,0.5c0.3,0,0.4,0.3,0.5,0.6c0.1,0.2,0.1,0.4,0.1,0.5s0,0.2,0,0.2
					c0,0.1-0.1,0.2,0,0.2c-0.3,0.2-0.5-0.4-0.5-0.5c-0.1-0.2-0.1-0.4-0.1-0.5s0-0.2,0-0.3s0.1-0.1,0-0.1
					C-192.5,460-192.3,459.5-192.5,459.6z"/>
				<path class="st4" d="M-190.9,461.2c0.8-0.4,0.8-1.4,0.5-2c-0.1-0.2-0.3-0.4-0.6-0.3c-0.5,0.2-0.6,0.8-0.5,1.2
					c0,0.2,0.4-0.2,0.4-0.4c0-0.1-0.1-0.4,0.1-0.3c0.1,0.1,0.2,0.2,0.2,0.3c0.1,0.2,0.2,0.8,0,1
					C-190.9,460.8-191.2,461.3-190.9,461.2L-190.9,461.2z"/>
				<path class="st4" d="M-190.1,460.9c-0.6,0.6-1.1,1.5-0.9,2.2c0.2,0.6,1.1-0.2,1.3-0.5c0.3-0.7,0.1-2.8-1.1-1.8
					c-0.2,0.2-0.3,0.6,0,0.4c0.6-0.5,0.8,0.9,0.8,1.1c0,0.2-0.1,0.6-0.4,0.5c-0.5-0.2,0.1-1.2,0.4-1.5
					C-189.9,461.1-189.8,460.6-190.1,460.9L-190.1,460.9z"/>
				<path class="st4" d="M-202.6,459.3c0.1-0.5-0.1-1.1-0.7-0.9c-0.4,0.1-0.6,0.5-0.8,0.8c-0.2,0.3-0.3,0.8-0.1,1.2
					c0.3,0.5,1,0.2,1.2,0c0.2-0.2-0.4-0.2-0.5-0.1c-0.1,0.2-0.2-0.3-0.2-0.3c0-0.2,0-0.5,0.1-0.7c0.1-0.2,0.2-0.4,0.3-0.5l0.1-0.1
					c0,0,0.1,0,0,0.1c0.1,0.2,0.1,0.5,0,0.6C-203.2,459.6-202.6,459.5-202.6,459.3L-202.6,459.3z"/>
				<path class="st4" d="M-203.5,460.3c-0.1,0.5,0.4,0.8,0.9,0.7s0.7-0.6,0.8-1c0.1-0.3,0.2-0.8-0.1-1.2c-0.1-0.2-0.4-0.1-0.6-0.1
					c-0.3,0.1-0.5,0.3-0.6,0.6c-0.1,0.2,0.5,0.2,0.5,0c0.1-0.3,0.2-0.3,0.3,0c0,0.2,0,0.4,0,0.6s-0.1,0.4-0.2,0.6
					c0,0.1-0.1,0.1-0.2,0.2c0,0,0,0-0.1-0.1c-0.2-0.1-0.2-0.2-0.1-0.4C-202.9,460.1-203.4,460.2-203.5,460.3L-203.5,460.3z"/>
				<path class="st4" d="M-202.9,458.4c-0.3,1.3-0.7,2.5-1.3,3.6c-0.1,0.2,0.5,0.2,0.6,0c0.6-1.1,1-2.4,1.3-3.7
					C-202.3,458.1-202.9,458.2-202.9,458.4L-202.9,458.4z"/>
				<path class="st4" d="M-199.5,460c-0.1,0.4-0.8,2.1,0.1,2.2c1.1,0.1,1.2-1.6,1.4-2.2c0-0.2-0.4,0-0.5,0.2
					c-0.1,0.4-0.2,0.9-0.4,1.3c-0.1,0.2-0.1,0.5-0.3,0.3c-0.2-0.2,0-0.7,0-0.9c0.1-0.3,0.2-0.6,0.2-1
					C-199,459.6-199.5,459.8-199.5,460L-199.5,460z"/>
				<path class="st4" d="M-198.5,460.2c-0.1,0.9-0.2,1.7-0.3,2.6c0,0.2-0.1,1-0.5,0.9c-0.7-0.3,0.7-1.4,0.8-1.5
					c0.3-0.2-0.1-0.3-0.3-0.1c-0.5,0.4-1.3,0.9-1.2,1.6c0,0.3,0.5,0.5,0.8,0.4c0.6-0.2,0.8-0.7,0.9-1.2c0.2-0.9,0.2-1.9,0.3-2.9
					C-198,459.8-198.5,460-198.5,460.2L-198.5,460.2z"/>
			</g>
		</g>
		<circle class="st8" cx="-212.1" cy="464.4" r="6.2"/>
		<path class="st10" d="M-205.6,422.5c0,1.4-1.1,2.5-2.5,2.5s-2.5-1.1-2.5-2.5s1.1-2.5,2.5-2.5
			C-206.8,419.9-205.6,421.1-205.6,422.5L-205.6,422.5z"/>
		<path class="st8" d="M-205.5,431c0,1.8-1.5,3.3-3.3,3.3s-3.3-1.5-3.3-3.3c0-1.8,1.5-3.3,3.3-3.3C-207,427.8-205.5,429.2-205.5,431
			L-205.5,431z"/>
		<path class="st8" d="M-214.2,426c0,1.1-0.9,1.9-1.9,1.9c-1.1,0-1.9-0.9-1.9-1.9c0-1.1,0.9-1.9,1.9-1.9
			C-215.1,424.1-214.2,424.9-214.2,426L-214.2,426z"/>
		<g>
			<circle class="st8" cx="-179.3" cy="428.7" r="10.9"/>
			<g>
				<path class="st4" d="M-182,427.1c-0.9,0.1-1.2,1.2-1.2,1.9l0,0l0,0c0,0.1,0,0.2,0,0.3c0,0.4,0,0.6-0.1,1c0,0.1-0.1,0.4-0.1,0.4
					c-0.3,0-0.6-0.5-0.7-0.7c-0.2-0.6-0.4-1.1-0.5-1.7c-0.1-0.6-0.2-1.3-0.2-1.9c0-0.3,0-0.5,0-0.8c0-0.1,0-0.2,0-0.3s0-0.2,0-0.2
					c0.1-0.5-0.6,0-0.7,0.2c-0.7,1.3-0.5,2.8-0.5,4.2c0,0.4,0,0.8-0.1,1.1c0,0.3-0.1,0.7-0.3,0.9c-0.1,0.1-0.4,0-0.5,0
					c-0.2-0.1-0.3-0.3-0.3-0.5c0-0.2-0.3-0.1-0.4,0c-0.2,0.2-0.3,0.4-0.3,0.6c0.1,0.5,0.5,0.9,1,0.8c0.8-0.2,1.2-1.2,1.4-2
					c0.1-0.4,0.1-0.7,0.2-1.1c0.1,0.5,0.3,1.1,0.5,1.6c0.2,0.4,0.5,0.7,1,0.6c0.3-0.1,0.6-0.4,0.7-0.8c0.2,0.4,0.4,0.6,0.8,0.6
					c0.5,0,0.8-0.5,1-0.9s0.3-0.9,0.3-1.4C-180.9,428.4-181.1,427-182,427.1z M-181.7,430.3c0,0.1,0,0.2-0.1,0.3
					c-0.2,0-0.3-0.3-0.4-0.4c-0.1-0.3-0.2-0.6-0.2-1c0-0.3,0-0.7,0-1c0-0.1,0-0.2,0.1-0.3c0.5,0.3,0.5,0.9,0.6,1.4
					C-181.6,429.6-181.6,429.9-181.7,430.3z"/>
				<path class="st4" d="M-171.1,428.4c-1-0.4-1.5,1-1.7,1.7c-0.2,0.7-0.4,1.9,0.5,2.2c0.4,0.2,0.9-0.1,1.1-0.4
					c0.3-0.3,0.5-0.8,0.6-1.2C-170.4,430-170.2,428.7-171.1,428.4z M-171.7,431.5c0,0.1-0.1,0.2-0.1,0.2c-0.2-0.1-0.2-0.4-0.2-0.5
					c-0.1-0.3,0-0.7,0-1c0.1-0.3,0.2-0.7,0.3-1c0-0.1,0.1-0.1,0.1-0.2c0.4,0.4,0.3,1,0.2,1.5C-171.5,430.9-171.6,431.2-171.7,431.5z
					"/>
				<path class="st4" d="M-173.8,428.6c0.2-0.2,0.4-0.5,0.5-0.8c0.4-0.5,0.7-1.2,0.7-1.9c0-0.6-0.9-0.7-1.3-0.5
					c-0.6,0.3-1,1-1.2,1.6c-0.2,0.8-0.4,1.7-0.4,2.6l0,0c-0.3,0.4-0.9,1.1-1.4,0.8c-0.1-0.1-0.2-0.2-0.2-0.4
					c0.4-0.4,0.8-0.9,1.1-1.3c0.3-0.4,0.5-1.2-0.1-1.5c-0.5-0.3-1.1,0-1.4,0.4s-0.5,0.9-0.5,1.4c0,0.3-0.1,0.7,0,1.1
					c-0.3,0.2-0.6,0.3-1,0.2s-0.5-0.5-0.6-0.8c-0.1-0.4-0.1-0.9,0-1.4c0-0.1,0.1-0.3,0.1-0.4v-0.1c0.2,0.1,0.3,0.5,0.4,0.6
					c0.1,0.3,0.9-0.2,0.8-0.5c-0.1-0.3-0.2-0.6-0.6-0.8c-0.3-0.2-0.8,0.1-1,0.3c-0.6,0.6-0.7,1.5-0.6,2.2c0,0.5,0.1,1.1,0.6,1.4
					c0.6,0.4,1.4,0,2-0.3c0.1,0.4,0.4,0.6,0.9,0.6c0.6-0.1,1.1-0.4,1.5-0.8c0,0.4,0.1,0.9,0.4,1.1c0.5,0.3,1.2,0,1.5-0.5
					c0.4-0.6,0.7-1.4,0.4-2.1C-173.2,428.7-173.5,428.6-173.8,428.6z M-177.1,428.2c0-0.1,0.1-0.2,0.2-0.4l0,0
					c0.2,0.1,0.3,0.4,0.3,0.5c-0.1,0.4-0.3,0.7-0.6,1c0-0.1,0-0.1,0-0.2C-177.2,428.9-177.2,428.5-177.1,428.2z M-173.9,426.4
					c0.1-0.1,0.1-0.3,0.2-0.4l0,0c0.4,0.4,0,1-0.2,1.4s-0.4,0.8-0.7,1.1c0.1-0.4,0.1-0.8,0.2-1.1
					C-174.2,427.1-174.1,426.7-173.9,426.4z M-174.1,430.9c0,0-0.1,0.1-0.1,0.2h-0.1c-0.2-0.1-0.3-0.7-0.3-0.9c0-0.2,0-0.4,0-0.6
					c0.1-0.1,0.2-0.2,0.3-0.3c0.2-0.1,0.4,0.1,0.4,0.4C-173.8,430-174,430.5-174.1,430.9z"/>
			</g>
		</g>
		<g>
			<path class="st4" d="M-216.4,463.4c0.2-0.6,0.7-0.2,0.8,0.1c0.2,0.4,0,0.9-0.3,1.2c-0.2,0.3-0.5,0.5-0.8,0.7
				c-0.2,0.1-0.3,0.2-0.4,0.3c0,0.1-0.1,0.2,0,0.2c0.2,0.2,0.7,0.2,0.9,0.2c0.5,0,1,0,1.4-0.2c0.2-0.1,0.5-0.7,0-0.5
				c-0.3,0.2-0.7,0.1-1.1,0.1c-0.2,0-0.6,0-0.7-0.1c0,0.1,0,0.2,0,0.2c-0.2,0.3-0.1,0.2,0.1,0.1c0.1-0.1,0.3-0.2,0.4-0.3
				c0.2-0.2,0.4-0.4,0.6-0.7c0.4-0.5,0.6-1,0.5-1.6c-0.2-1.4-1.7-0.4-2,0.4C-217.1,464-216.5,463.6-216.4,463.4L-216.4,463.4z"/>
			<path class="st4" d="M-212.9,465.6c0.5,1.5,2.7,0.5,2.4-0.9c-0.2-0.7-1-0.6-1.5-0.7c-0.3-0.1-0.3-0.3-0.3-0.6
				c0.1-0.3,0.1-0.3-0.1-0.2c0.1,0,0.2,0,0.3-0.1c0.5-0.1,1-0.1,1.4,0.1c0.2,0.1,0.7-0.4,0.4-0.5c-0.5-0.3-1.2-0.2-1.8-0.1
				c-0.6,0.1-0.7,0.6-0.7,1.2s0.6,0.7,1.1,0.8c0.4,0.1,0.7,0.2,0.8,0.6c0.1,0.7-0.7,0.6-1,0.4c-0.2-0.1-0.2-0.3-0.3-0.5
				C-212.4,465-213,465.4-212.9,465.6L-212.9,465.6z"/>
			<g>
				<path class="st4" d="M-207.7,462.9c-0.6,1.1-1.4,2-2.2,3c-0.3,0.4,0.2,0.4,0.4,0.1c0.8-1,1.6-2.1,2.3-3.2
					C-206.9,462.4-207.5,462.7-207.7,462.9L-207.7,462.9z"/>
				<path class="st4" d="M-208.8,462.6c-0.4,0-0.7,0.4-0.7,0.7c-0.1,0.3,0.1,0.6,0.5,0.6C-208.4,464-208,462.7-208.8,462.6
					c-0.2,0-0.5,0.4-0.2,0.4c0.2,0,0.3,0.2,0.3,0.3s0,0.1,0,0.2c0,0.1,0,0,0,0h-0.1c-0.2,0-0.3-0.2-0.3-0.3s0-0.2,0-0.2l0,0h0.1
					C-208.9,463-208.6,462.6-208.8,462.6z"/>
				<path class="st4" d="M-207.7,464.9c-0.4,0-0.7,0.4-0.7,0.7c-0.1,0.3,0.1,0.6,0.5,0.6C-207.3,466.3-206.9,464.9-207.7,464.9
					c-0.2,0-0.5,0.4-0.2,0.4c0.2,0,0.3,0.2,0.3,0.3s0,0.1,0,0.2s0,0,0,0h-0.1c-0.2,0-0.3-0.2-0.3-0.3s0-0.2,0-0.2l0,0h0.1
					C-207.8,465.3-207.5,464.9-207.7,464.9z"/>
			</g>
			<path class="st4" d="M-213.8,467c0.3-0.2,0.5-0.6,0.5-1c0-0.1,0-0.3-0.1-0.3c-0.1-0.1-0.4,0-0.5,0c-0.2,0.1-0.3,0.3-0.3,0.4
				c0,0.2,0.2,0.1,0.3,0.1l0,0l0,0c0,0.1,0,0.1,0,0.1c0,0.1,0,0.1-0.1,0.2c0,0,0,0,0,0.1l0,0c0,0,0,0,0,0.1c0.1-0.1,0,0,0,0
				c-0.1,0.1-0.3,0.3-0.1,0.4C-214.1,467.2-213.9,467.1-213.8,467L-213.8,467z"/>
		</g>
		<g>
			<path class="st9" d="M-220.3,438.4c-0.1,0-0.2-0.2-0.3-0.2c-0.4-0.2-0.7,0.1-1.1,0.1c-0.9,0-1.3,0-2.4-0.3c0-1,0.6-1.6,0.8-2.3
				c0.2-0.7-0.1-1.5-0.1-2.2c0-0.5,0-0.9,0-1.4c-0.3,0.3-0.2,1.2-0.2,1.6c-0.1-0.6-0.1-1.4-0.3-1.9c-0.1,0.6,0,1.3,0,1.9
				c-0.2-0.5-0.2-1.2-0.4-1.6c-0.3,0.5,0.2,1.3,0.1,1.8c-0.2-0.5-0.3-1-0.5-1.5c-0.1,0.6,0.2,1.2,0.2,1.6c-0.2-0.4-0.3-0.8-0.6-1.1
				c0,0.4,0.3,0.9,0.4,1.3c-0.3-0.1-0.4-0.5-0.6-0.6c0,0.3,0.3,0.5,0.4,0.8c-0.2-0.1-0.3-0.3-0.5-0.4c0,0.3,0.3,0.4,0.3,0.6
				c-0.1-0.1-0.3-0.2-0.4-0.3c0,0.2,0.3,0.4,0.3,0.5c0,0-0.2-0.1-0.2,0c0,0,0.2,0.1,0.1,0.2c-0.1,0-0.1,0-0.2,0
				c0,0.2,0.2,0.1,0.1,0.3c-0.1,0-0.1-0.1-0.1,0s0.1,0.1,0.1,0.2c-0.8,0.8-0.4,1.8-0.5,2.7c0.1-0.1-0.7-0.3-1.2-0.5
				c-0.3-0.1-0.4-0.5-0.6-0.6c0-0.1,0.1,0,0.1-0.1c-0.1,0-0.2-0.1-0.2-0.2c0.1,0,0.3,0.1,0.3,0c-0.1-0.1-0.5-0.2-0.5-0.3
				c0.2,0,0.4,0.1,0.5,0.1c-0.2-0.1-0.6-0.3-0.6-0.5c0.2,0.1,0.5,0.3,0.7,0.2c-0.3-0.2-0.8-0.4-0.9-0.7c0.2,0.1,0.6,0.4,0.8,0.4
				c-0.4-0.1-0.7-0.6-1.1-0.6c0.2,0.4,0.8,0.6,0.9,0.8c-0.3-0.2-0.6-0.3-1-0.5c0.1,0.4,0.6,0.5,0.9,0.7c-0.3,0-0.5-0.2-0.8-0.2
				c0.1,0.3,0.6,0.2,0.7,0.5c-0.1-0.1-0.3,0-0.5,0c0,0.2,0.4,0.2,0.5,0.3c-0.2,0-0.3,0-0.4,0.1c0.1,0.1,0.3,0.1,0.4,0.2
				c-0.1,0-0.2,0-0.2,0.1s0.3,0,0.3,0.1c-0.1,0-0.1,0.1-0.1,0.1c0.1,0,0.2,0,0.2,0c-0.1,0-0.1,0-0.1,0.1c0.4,0.2,0.7,0.9,1.3,1.1
				c-0.3,0.2,0.3,0.4-3.5,1.8c0.1,0,1.7-0.4,2.1-0.5c0.5-0.2,0.9-0.3,1.4-0.4c0.1,0,0.2-0.1,0.3-0.1c0.8-0.1,1.5,0.1,2.3-0.4
				c-0.6,0.1-1.6,0.2-2-0.1c0.5-0.8,0.2-2.8,0.6-3.3c0.4-0.4,1.1-1.7,1.9-0.6c0.1,0.2,0.1,0.4-0.1,0.9c-0.3,0.6-0.6,0.8-0.5,2.1
				c0,0.2,0,0.5-0.4,0.5c1.6,0.3,2.1,0.2,3.1,0c0.3,0,0.8-0.3,0.8,0c0,0.1-0.3,0.1-0.6,0.1c-0.5,0,0.2,0.2,0.4,0.2
				c0.1,0,1-0.1,1.4-0.2C-219.8,438.5-220,438.5-220.3,438.4z"/>
			<path class="st9" d="M-225.1,429.9c-3.8,0-6.9,3.1-6.9,6.9s3.1,6.9,6.9,6.9c3.8,0,6.9-3.1,6.9-6.9
				C-218.3,433-221.3,429.9-225.1,429.9 M-225.1,430.2c3.6,0,6.6,3,6.6,6.6s-3,6.6-6.6,6.6s-6.6-3-6.6-6.6
				C-231.8,433.1-228.8,430.2-225.1,430.2"/>
		</g>
	</g>
	<g id="butylka_1">
	</g>
	<g id="vanna_2">
	</g>
	<g id="fruktoza">
	</g>
	<g id="zakvaska">
	</g>
	<g id="shariki_2">
	</g>
	<g id="shariki_1">
	</g>
	<g id="voronka">
	</g>
	<g id="gradusnik">
	</g>
	<g id="kolba_2">
	</g>
	<g id="kolba_1">
	</g>
	<g id="probirki">
	</g>
	<g id="lupa">
	</g>
	<g id="bidon">
	</g>
	<g id="blank">
	</g>
	<g id="ticks">
	</g>
</g>
<g id="snow">
	<g id="sneg">
		<g>
			
				<linearGradient id="SVGID_1_" gradientUnits="userSpaceOnUse" x1="-167.1499" y1="506.3297" x2="-151.1624" y2="461.0318" gradientTransform="matrix(1 0 0 -1 0 880.22)">
				<stop  offset="0" style="stop-color:#404B71"/>
				<stop  offset="0.6044" style="stop-color:#3C476E"/>
				<stop  offset="1" style="stop-color:#354169"/>
			</linearGradient>
			<path class="st11" d="M-163.7,414.9l-1.7-6.4l1.6-2.7l0.2,0.8c0.2,0.8,1.1,1.3,1.9,1.1c0.1,0,0.3-0.1,0.4-0.2
				c0.6-0.3,0.9-1.1,0.7-1.8l-1-3.9l1.9-3.3l1.9,3.3l-1,3.9c-0.2,0.8,0.3,1.7,1.1,1.9c0.4,0.1,0.9,0,1.2-0.2c0.4-0.2,0.6-0.5,0.7-1
				l0.2-0.8l1.6,2.7l-1.7,6.4c-0.2,0.8,0.3,1.7,1.1,1.9c0.4,0.1,0.9,0,1.2-0.2c0.4-0.2,0.6-0.5,0.7-1l0.9-3.3l2.5,4.4
				c0.4,0.8,1.4,1,2.2,0.6c0.8-0.4,1-1.4,0.6-2.2l-2.5-4.4l3.3,0.9c0.4,0.1,0.9,0,1.2-0.2c0.4-0.2,0.6-0.5,0.7-1
				c0.2-0.8-0.3-1.7-1.1-1.9l-6.4-1.7l-1.6-2.7l0.8,0.2c0.4,0.1,0.9,0,1.2-0.2c0.4-0.2,0.6-0.5,0.7-1c0.2-0.8-0.3-1.7-1.1-1.9
				l-3.8-1l-1.9-3.3h3.8l2.8,2.8c0.5,0.5,1.3,0.6,1.9,0.3c0.1-0.1,0.2-0.2,0.3-0.3c0.6-0.6,0.6-1.6,0-2.2l-0.6-0.6h3.1l4.7,4.7
				c0.5,0.5,1.3,0.6,1.9,0.3c0.1-0.1,0.2-0.2,0.3-0.3c0.6-0.6,0.6-1.6,0-2.2l-2.4-2.4h5c0.3,0,0.6-0.1,0.8-0.2
				c0.5-0.3,0.8-0.8,0.8-1.4c0-0.9-0.7-1.6-1.6-1.6h-5l2.4-2.4c0.6-0.6,0.6-1.6,0-2.2s-1.6-0.6-2.2,0l-4.7,4.7h-3.1l0.6-0.6
				c0.6-0.6,0.6-1.6,0-2.2s-1.6-0.6-2.2,0l-2.8,2.8h-3.8l1.9-3.3l3.9-1c0.1,0,0.3-0.1,0.4-0.2c0.6-0.3,0.9-1.1,0.7-1.8
				c-0.2-0.8-1.1-1.3-1.9-1.1l-0.8,0.2l1.6-2.7l6.4-1.7c0.1,0,0.3-0.1,0.4-0.2c0.6-0.4,0.9-1.1,0.7-1.8c-0.2-0.8-1.1-1.3-1.9-1.1
				l-3.3,0.9l2.5-4.4c0.4-0.8,0.2-1.7-0.6-2.2c-0.8-0.4-1.7-0.2-2.2,0.6l-2.5,4.4l-0.9-3.3c-0.2-0.8-1.1-1.3-1.9-1.1
				c-0.8,0.2-1.4,1.1-1.1,1.9l1.7,6.4l-1.6,2.7l-0.2-0.8c-0.2-0.8-1.1-1.3-1.9-1.1s-1.3,1.1-1.1,1.9l1,3.9l-1.9,3.3l-1.9-3.3l1-3.9
				c0.2-0.8-0.3-1.7-1.1-1.9c-0.8-0.2-1.7,0.3-1.9,1.1l-0.2,0.8l-1.6-2.7l1.7-6.4c0.2-0.8-0.3-1.7-1.1-1.9c-0.8-0.2-1.7,0.3-1.9,1.1
				l-0.9,3.3l-2.5-4.4c-0.4-0.8-1.4-1-2.2-0.6c-0.8,0.4-1,1.4-0.6,2.2l2.5,4.4l-3.3-0.9c-0.8-0.2-1.7,0.3-1.9,1.1
				c-0.2,0.8,0.3,1.7,1.1,1.9l6.4,1.7l1.6,2.7l-0.8-0.2c-0.8-0.2-1.7,0.3-1.9,1.1c-0.2,0.8,0.3,1.7,1.1,1.9l3.8,1l1.9,3.3h-3.8
				l-2.8-2.8c-0.6-0.6-1.6-0.6-2.2,0c-0.6,0.6-0.6,1.6,0,2.2l0.6,0.6h-3.1l-4.7-4.7c-0.6-0.6-1.6-0.6-2.2,0c-0.6,0.6-0.6,1.6,0,2.2
				l2.4,2.4h-5c-0.9,0-1.6,0.7-1.6,1.6s0.7,1.6,1.6,1.6h5l-2.4,2.4c-0.6,0.6-0.6,1.6,0,2.2c0.5,0.5,1.3,0.6,1.9,0.3
				c0.1-0.1,0.2-0.2,0.3-0.3l4.7-4.7h3.1l-0.6,0.6c-0.6,0.6-0.6,1.6,0,2.2c0.5,0.5,1.3,0.6,1.9,0.3c0.1-0.1,0.2-0.2,0.3-0.3l2.8-2.8
				h3.8l-1.9,3.3l-3.9,1c-0.8,0.2-1.3,1.1-1.1,1.9c0.2,0.8,1.1,1.3,1.9,1.1l0.8-0.2l-1.6,2.7l-6.4,1.7c-0.8,0.2-1.3,1.1-1.1,1.9
				c0.2,0.8,1.1,1.3,1.9,1.1l3.3-0.9l-2.5,4.4c-0.4,0.8-0.2,1.7,0.6,2.2c0.5,0.3,1.1,0.3,1.6,0c0.2-0.1,0.4-0.3,0.6-0.6l2.5-4.4
				l0.9,3.3c0.2,0.8,1.1,1.3,1.9,1.1c0.1,0,0.3-0.1,0.4-0.2C-163.9,416.3-163.6,415.6-163.7,414.9z"/>
			
				<linearGradient id="SVGID_2_" gradientUnits="userSpaceOnUse" x1="-286.2324" y1="442.3468" x2="-281.3986" y2="428.6509" gradientTransform="matrix(1 0 0 -1 0 880.22)">
				<stop  offset="0" style="stop-color:#404B71"/>
				<stop  offset="0.6044" style="stop-color:#3C476E"/>
				<stop  offset="1" style="stop-color:#354169"/>
			</linearGradient>
			<path class="st12" d="M-284.9,450.1l-0.5-1.9l0.5-0.8l0.1,0.2c0.1,0.3,0.3,0.4,0.6,0.3h0.1c0.2-0.1,0.3-0.3,0.2-0.5l-0.3-1.2
				l0.6-1l0.6,1l-0.3,1.2c-0.1,0.3,0.1,0.5,0.3,0.6c0.1,0,0.3,0,0.4,0c0.1-0.1,0.2-0.2,0.2-0.3l0.1-0.2l0.5,0.8l-0.5,1.9
				c-0.1,0.3,0.1,0.5,0.3,0.6c0.1,0,0.3,0,0.4,0c0.1-0.1,0.2-0.2,0.2-0.3l0.3-1l0.8,1.3c0.1,0.2,0.4,0.3,0.7,0.2
				c0.2-0.1,0.3-0.4,0.2-0.7l-0.8-1.3l1,0.3c0.1,0,0.3,0,0.4,0c0.1-0.1,0.2-0.2,0.2-0.3c0.1-0.3-0.1-0.5-0.3-0.6l-1.9-0.5l-0.5-0.8
				l0.2,0.1c0.1,0,0.3,0,0.4,0c0.1-0.1,0.2-0.2,0.2-0.3c0.1-0.3-0.1-0.5-0.3-0.6l-1.2-0.3l-0.6-1h1.2l0.9,0.9
				c0.2,0.2,0.4,0.2,0.6,0.1c0,0,0.1,0,0.1-0.1c0.2-0.2,0.2-0.5,0-0.7l-0.2-0.2h0.9l1.4,1.4c0.2,0.2,0.4,0.2,0.6,0.1
				c0,0,0.1,0,0.1-0.1c0.2-0.2,0.2-0.5,0-0.7l-1-1h1.5c0.1,0,0.2,0,0.2-0.1c0.1-0.1,0.2-0.2,0.2-0.4c0-0.3-0.2-0.5-0.5-0.5h-1.4
				l0.7-0.7c0.2-0.2,0.2-0.5,0-0.7c-0.2-0.2-0.5-0.2-0.7,0l-1.4,1.4h-0.9l0.2-0.2c0.2-0.2,0.2-0.5,0-0.7c-0.2-0.2-0.5-0.2-0.7,0
				l-0.9,0.9h-1.2l0.6-1l1.2-0.3h0.1c0.2-0.1,0.3-0.3,0.2-0.5c-0.1-0.3-0.3-0.4-0.6-0.3l-0.2,0.1l0.5-0.8l1.9-0.5h0.1
				c0.2-0.1,0.3-0.3,0.2-0.5c-0.1-0.3-0.3-0.4-0.6-0.3l-1,0.3l0.8-1.3c0.1-0.2,0.1-0.5-0.2-0.7c-0.2-0.1-0.5-0.1-0.7,0.2l-0.8,1.3
				l-0.3-1c-0.1-0.3-0.3-0.4-0.6-0.3c-0.3,0.1-0.4,0.3-0.3,0.6l0.5,1.9l-0.5,0.8l-0.1-0.2c-0.1-0.3-0.3-0.4-0.6-0.3
				c-0.3,0.1-0.4,0.3-0.3,0.6l0.3,1.2l-0.6,1l-0.6-1l0.3-1.2c0.1-0.3-0.1-0.5-0.3-0.6c-0.3-0.1-0.5,0.1-0.6,0.3l-0.1,0.2l-0.5-0.8
				l0.5-1.9c0.1-0.3-0.1-0.5-0.3-0.6c-0.3-0.1-0.5,0.1-0.6,0.3l-0.3,1l-0.8-1.3c-0.1-0.2-0.4-0.3-0.7-0.2c-0.2,0.1-0.3,0.4-0.2,0.7
				l0.8,1.3l-1-0.3c-0.3-0.1-0.5,0.1-0.6,0.3c-0.1,0.3,0.1,0.5,0.3,0.6l1.9,0.5l0.5,0.8l-0.2-0.1c-0.3-0.1-0.5,0.1-0.6,0.3
				c-0.1,0.3,0.1,0.5,0.3,0.6l1.2,0.3l0.6,1h-1.2l-0.9-0.9c-0.2-0.2-0.5-0.2-0.7,0c-0.2,0.2-0.2,0.5,0,0.7l0.2,0.2h-0.9l-1.4-1.4
				c-0.2-0.2-0.5-0.2-0.7,0c-0.2,0.2-0.2,0.5,0,0.7l0.7,0.7h-1.5c-0.3,0-0.5,0.2-0.5,0.5c0,0.3,0.2,0.5,0.5,0.5h1.5l-0.7,0.7
				c-0.2,0.2-0.2,0.5,0,0.7c0.2,0.2,0.4,0.2,0.6,0.1c0,0,0.1,0,0.1-0.1l1.4-1.4h0.9l-0.2,0.2c-0.2,0.2-0.2,0.5,0,0.7
				c0.2,0.2,0.4,0.2,0.6,0.1c0,0,0.1,0,0.1-0.1l0.9-0.9h1.2l-0.6,1l-1.2,0.3c-0.3,0.1-0.4,0.3-0.3,0.6c0.1,0.3,0.3,0.4,0.6,0.3
				l0.2-0.1l-0.5,0.8l-1.9,0.5c-0.3,0.1-0.4,0.3-0.3,0.6c0.1,0.3,0.3,0.4,0.6,0.3l1-0.3l-0.8,1.3c-0.1,0.2-0.1,0.5,0.2,0.7
				c0.2,0.1,0.3,0.1,0.5,0c0.1,0,0.1-0.1,0.2-0.2l0.8-1.3l0.3,1c0.1,0.3,0.3,0.4,0.6,0.3h0.1C-284.9,450.5-284.8,450.3-284.9,450.1z
				"/>
			
				<linearGradient id="SVGID_3_" gradientUnits="userSpaceOnUse" x1="-350.992" y1="417.8322" x2="-340.5717" y2="388.3082" gradientTransform="matrix(1 0 0 -1 0 880.22)">
				<stop  offset="0" style="stop-color:#404B71"/>
				<stop  offset="0.6044" style="stop-color:#3C476E"/>
				<stop  offset="1" style="stop-color:#354169"/>
			</linearGradient>
			<path class="st13" d="M-348.5,489l-1.1-4.2l1-1.8l0.1,0.5c0.1,0.6,0.7,0.9,1.3,0.7c0.1,0,0.2-0.1,0.2-0.1
				c0.4-0.2,0.6-0.7,0.5-1.2l-0.7-2.5l1.2-2.2l1.2,2.2l-0.7,2.5c-0.1,0.6,0.2,1.1,0.7,1.3c0.3,0.1,0.6,0,0.8-0.1s0.4-0.4,0.5-0.6
				l0.1-0.5l1,1.8l-1.1,4.2c-0.1,0.6,0.2,1.1,0.7,1.3c0.3,0.1,0.6,0,0.8-0.1s0.4-0.4,0.5-0.6l0.6-2.2l1.6,2.8
				c0.3,0.5,0.9,0.7,1.4,0.4c0.5-0.3,0.7-0.9,0.4-1.4l-1.6-2.8l2.2,0.6c0.3,0.1,0.6,0,0.8-0.1c0.2-0.1,0.4-0.4,0.5-0.6
				c0.1-0.6-0.2-1.1-0.7-1.3l-4.2-1.1l-1-1.8l0.5,0.1c0.3,0.1,0.6,0,0.8-0.1c0.2-0.1,0.4-0.4,0.5-0.6c0.1-0.6-0.2-1.1-0.7-1.3
				l-2.5-0.7l-1.2-2.2h2.5l1.8,1.8c0.3,0.3,0.9,0.4,1.2,0.2c0.1,0,0.1-0.1,0.2-0.2c0.4-0.4,0.4-1.1,0-1.5l-0.4-0.4h2l3,3
				c0.3,0.3,0.9,0.4,1.2,0.2c0.1,0,0.1-0.1,0.2-0.2c0.4-0.4,0.4-1.1,0-1.5l-1.6-1.6h3.3c0.2,0,0.4,0,0.5-0.1
				c0.3-0.2,0.5-0.5,0.5-0.9c0-0.6-0.5-1-1-1h-3.3l1.6-1.6c0.4-0.4,0.4-1.1,0-1.5s-1.1-0.4-1.5,0l-3,3h-2l0.4-0.4
				c0.4-0.4,0.4-1.1,0-1.5c-0.4-0.4-1.1-0.4-1.5,0l-1.8,1.8h-2.5l1.2-2.2l2.5-0.7c0.1,0,0.2-0.1,0.2-0.1c0.4-0.2,0.6-0.7,0.5-1.2
				c-0.1-0.6-0.7-0.9-1.3-0.7l-0.5,0.1l1-1.8l4.2-1.1c0.1,0,0.2-0.1,0.2-0.1c0.4-0.2,0.6-0.7,0.5-1.2c-0.1-0.6-0.7-0.9-1.3-0.7
				l-2.2,0.6l1.6-2.8c0.3-0.5,0.1-1.1-0.4-1.4c-0.5-0.3-1.1-0.1-1.4,0.4l-1.6,2.8l-0.6-2.2c-0.1-0.6-0.7-0.9-1.3-0.7
				c-0.5,0.1-0.9,0.7-0.7,1.3l1.1,4.2l-1,1.8l-0.1-0.5c-0.1-0.6-0.7-0.9-1.3-0.7c-0.6,0.2-0.9,0.7-0.7,1.3l0.7,2.5l-1.2,2.2
				l-1.2-2.2l0.7-2.5c0.1-0.6-0.2-1.1-0.7-1.3c-0.6-0.1-1.1,0.2-1.3,0.7l-0.1,0.5l-1-1.8l1.1-4.2c0.1-0.6-0.2-1.1-0.7-1.3
				c-0.6-0.1-1.1,0.2-1.3,0.7l-0.6,2.2l-1.6-2.8c-0.3-0.5-0.9-0.7-1.4-0.4c-0.5,0.3-0.7,0.9-0.4,1.4l1.6,2.8l-1.9-0.1
				c-0.6-0.1-1.1,0.2-1.3,0.7c-0.1,0.6,0.2,1.1,0.7,1.3l4.2,1.1l1,1.8l-0.5-0.1c-0.6-0.1-1.1,0.2-1.3,0.7c-0.1,0.6,0.2,1.1,0.7,1.3
				l2.5,0.7l1.2,2.2h-2.5l-1.8-1.8c-0.4-0.4-1.1-0.4-1.5,0c-0.4,0.4-0.4,1.1,0,1.5l0.4,0.4h-2l-3-3c-0.4-0.4-1.1-0.4-1.5,0
				c-0.4,0.4-0.4,1.1,0,1.5l1.6,1.6h-3.3c-0.6,0-1,0.5-1,1c0,0.6,0.5,1,1,1h3.3l-1.6,1.6c-0.4,0.4-0.4,1.1,0,1.5
				c0.3,0.3,0.9,0.4,1.2,0.2c0.1,0,0.1-0.1,0.2-0.2l3-3h2l-0.4,0.4c-0.4,0.4-0.4,1.1,0,1.5c0.3,0.3,0.9,0.4,1.2,0.2
				c0.1,0,0.2-0.1,0.2-0.2l1.8-1.8h2.5l-1.2,2.2l-2.5,0.7c-0.5,0.2-0.9,0.7-0.7,1.3c0.1,0.6,0.7,0.9,1.3,0.7l0.5-0.1l-1,1.8
				l-4.2,1.1c-0.5,0.2-0.9,0.7-0.7,1.3c0.1,0.6,0.7,0.9,1.3,0.7l2.2-0.6l-1.6,2.8c-0.3,0.5-0.1,1.1,0.4,1.4c0.3,0.2,0.7,0.2,1,0
				c0.2-0.1,0.3-0.2,0.4-0.4l1.6-2.8l0.6,2.2c0.1,0.6,0.7,0.9,1.3,0.7c0.1,0,0.2-0.1,0.3-0.1C-348.6,489.9-348.4,489.4-348.5,489z"
				/>
			
				<linearGradient id="SVGID_4_" gradientUnits="userSpaceOnUse" x1="-233.7246" y1="415.5196" x2="-204.6264" y2="347.4174" gradientTransform="matrix(1 0 0 -1 0 880.22)">
				<stop  offset="0" style="stop-color:#404B71"/>
				<stop  offset="0.6044" style="stop-color:#3C476E"/>
				<stop  offset="1" style="stop-color:#354169"/>
			</linearGradient>
			<path class="st14" d="M-186.3,495.2h-6.3l3-3c0.8-0.8,0.8-2,0-2.8c-0.8-0.8-2-0.8-2.8,0l-5.9,5.9h-3.9l1.7-1.7
				c0.8-0.8,0.8-2,0-2.8c-0.8-0.8-2-0.8-2.8,0l-4.6,4.6h-3.8l0.1-0.1c0.8-0.8,0.8-2,0.1-2.7c-0.3-1-1.4-1.6-2.4-1.3h-0.2l1.9-3.3
				l6.2-1.7c0.2,0,0.3-0.1,0.5-0.2c0.8-0.4,1.2-1.4,0.9-2.2c-0.3-1.1-1.4-1.7-2.4-1.4l-2.4,0.6l2-3.4l8-2.1c0.2,0,0.3-0.1,0.5-0.2
				c0.8-0.4,1.2-1.4,0.9-2.2c-0.3-1.1-1.4-1.7-2.4-1.4l-4.2,1.1l3.2-5.5c0.6-1,0.2-2.2-0.7-2.7c-1-0.5-2.2-0.2-2.7,0.7l-3.2,5.5
				l-1.1-4.2c-0.3-1.1-1.4-1.7-2.4-1.4c-1.1,0.3-1.7,1.4-1.4,2.4l2.1,8l-2,3.4l-0.6-2.4c-0.3-1.1-1.4-1.7-2.4-1.4
				c-1.1,0.3-1.7,1.4-1.4,2.4l1.7,6.2l-1.9,3.3V489c-0.3-1-1.3-1.7-2.4-1.4c-1-0.2-2.1,0.4-2.3,1.4v0.2l-1.9-3.3l1.7-6.2
				c0.3-1.1-0.3-2.2-1.4-2.4c-1.1-0.3-2.2,0.3-2.4,1.4l-0.6,2.4l-2-3.4l2.1-8c0.3-1.1-0.3-2.2-1.4-2.4c-1.1-0.3-2.2,0.3-2.4,1.4
				l-1.1,4.2l-3.2-5.5c-0.5-1-1.8-1.3-2.7-0.7c-1,0.5-1.3,1.8-0.7,2.7l3.2,5.5l-4.2-1.1c-1.1-0.3-2.2,0.3-2.4,1.4
				c-0.3,1.1,0.3,2.2,1.4,2.4l8,2.1l2,3.4l-2.4-0.6c-1.1-0.3-2.2,0.3-2.4,1.4c-0.3,1.1,0.3,2.2,1.4,2.4l6.2,1.7l1.9,3.3h-0.2
				c-1-0.3-2,0.3-2.4,1.3c-0.8,0.8-0.8,2,0,2.8l0.1,0.1h-3.8l-4.6-4.6c-0.8-0.8-2-0.8-2.8,0c-0.8,0.8-0.8,2,0,2.8l1.7,1.7h-3.9
				l-5.9-5.9c-0.8-0.8-2-0.8-2.8,0c-0.8,0.8-0.8,2,0,2.8l3,3h-6.3c-1.1,0-2,0.9-2,2s0.9,2,2,2h6.3l-3,3c-0.8,0.8-0.8,2,0,2.8
				c0.7,0.7,1.6,0.8,2.4,0.3c0.1-0.1,0.3-0.2,0.4-0.3l5.9-5.9h3.9l-1.7,1.7c-0.8,0.8-0.8,2,0,2.8c0.7,0.7,1.6,0.8,2.4,0.3
				c0.1-0.1,0.3-0.2,0.4-0.3l4.6-4.6h3.8l-0.1,0.1c-0.8,0.8-0.8,2-0.1,2.7c0.3,1,1.4,1.6,2.4,1.3h0.2l-1.9,3.3l-6.2,1.7
				c-1.1,0.3-1.7,1.4-1.4,2.4c0.3,1.1,1.4,1.7,2.4,1.4l2.4-0.6l-2,3.4l-8,2.1c-1.1,0.3-1.7,1.4-1.4,2.4c0.3,1.1,1.4,1.7,2.4,1.4
				l4.2-1.1l-3.2,5.5c-0.5,1-0.2,2.2,0.7,2.7c0.6,0.4,1.4,0.3,2,0c0.3-0.2,0.5-0.4,0.7-0.7l3.2-5.5l1.1,4.2c0.3,1.1,1.4,1.7,2.4,1.4
				c0.2,0,0.3-0.1,0.5-0.2c0.8-0.4,1.2-1.3,0.9-2.2l-2.1-8l2-3.4l0.6,2.4c0.3,1.1,1.4,1.7,2.4,1.4c0.2,0,0.3-0.1,0.5-0.2
				c0.8-0.4,1.2-1.3,0.9-2.2l-1.7-6.2l1.9-3.3v0.2c0.3,1,1.3,1.7,2.4,1.4c0.5,0.1,1,0,1.4-0.2c0.4-0.3,0.8-0.7,0.9-1.2v-0.2l1.9,3.3
				l-1.7,6.2c-0.3,1.1,0.3,2.2,1.4,2.4c0.5,0.1,1.1,0.1,1.5-0.2s0.8-0.7,0.9-1.2l0.6-2.4l2,3.4l-2.1,8c-0.3,1.1,0.3,2.2,1.4,2.4
				c0.5,0.1,1.1,0.1,1.5-0.2s0.8-0.7,0.9-1.2l1.1-4.2l3.2,5.5c0.5,1,1.8,1.3,2.7,0.7c1-0.6,1.3-1.8,0.7-2.7l-3.2-5.5l4.2,1.1
				c0.5,0.1,1.1,0.1,1.5-0.2s0.8-0.7,0.9-1.2c0.3-1.1-0.3-2.2-1.4-2.4l-8-2.1l-2-3.4l2.4,0.6c0.5,0.1,1.1,0.1,1.5-0.2
				c0.4-0.3,0.8-0.7,0.9-1.2c0.3-1.1-0.3-2.2-1.4-2.4l-6.2-1.7l-1.9-3.3h0.2c0.5,0.1,1.1,0.1,1.5-0.2c0.4-0.2,0.7-0.6,0.9-1.1
				c0.8-0.8,0.8-2,0-2.8l-0.1-0.1h3.8l4.6,4.6c0.7,0.7,1.6,0.8,2.4,0.3c0.1-0.1,0.3-0.2,0.4-0.3c0.8-0.8,0.8-2,0-2.8l-1.7-1.7h3.9
				l5.9,5.9c0.7,0.7,1.6,0.8,2.4,0.3c0.1-0.1,0.3-0.2,0.4-0.3c0.8-0.8,0.8-2,0-2.8l-3-3h6.3c0.4,0,0.7-0.1,1-0.3c0.6-0.3,1-1,1-1.7
				C-184.3,496.1-185.2,495.2-186.3,495.2z M-218.6,499.4c-1.2,0.7-2.8,0.3-3.5-0.9c-0.7-1.2-0.3-2.8,0.9-3.5
				c1.2-0.7,2.8-0.3,3.5,0.9C-217,497.1-217.4,498.7-218.6,499.4z"/>
			
				<linearGradient id="SVGID_5_" gradientUnits="userSpaceOnUse" x1="-274.3977" y1="499.8497" x2="-262.3758" y2="471.7075" gradientTransform="matrix(1 0 0 -1 0 880.22)">
				<stop  offset="0" style="stop-color:#404B71"/>
				<stop  offset="0.6044" style="stop-color:#3C476E"/>
				<stop  offset="1" style="stop-color:#354169"/>
			</linearGradient>
			<path class="st15" d="M-252.8,394.7h-1l0.4-0.5c0.2-0.3,0.1-0.8-0.2-1c-0.3-0.2-0.8-0.1-1,0.2l-0.9,1.3h-1.5l2-2.8
				c0.2-0.3,0.1-0.8-0.2-1c-0.3-0.2-0.8-0.1-1,0.2l-2.6,3.7h-1.3l1.2-1.7c0.2-0.3,0.1-0.8-0.2-1c-0.3-0.2-0.8-0.1-1,0.2l-1.7,2.5
				h-0.9l0.4-0.5c0.2-0.3,0.1-0.8-0.2-1c-0.3-0.2-0.8-0.1-1,0.2l-0.9,1.3h-0.3l-0.8-1.5l0.2-0.3l1.6-0.1c0.4,0,0.7-0.4,0.7-0.8
				s-0.4-0.7-0.8-0.7l-0.6,0.1l0.4-0.8l3-0.3c0.4,0,0.7-0.4,0.7-0.8s-0.4-0.7-0.8-0.7l-2,0.2l0.7-1.1l4.5-0.4c0.4,0,0.7-0.4,0.7-0.8
				c0-0.4-0.4-0.7-0.8-0.7l-3.4,0.3l0.7-1.3l1.6-0.1c0.4,0,0.7-0.4,0.7-0.8c0-0.4-0.4-0.7-0.8-0.7l-0.6,0.1l0.5-0.9
				c0.2-0.3,0.1-0.8-0.3-1c-0.3-0.2-0.8-0.1-1,0.3l-0.5,0.9l-0.3-0.6c-0.2-0.4-0.6-0.5-1-0.4c-0.4,0.2-0.5,0.6-0.4,1l0.7,1.5
				l-0.7,1.3l-1.5-3.1c-0.2-0.4-0.6-0.5-1-0.3c-0.4,0.2-0.5,0.6-0.4,1l1.9,4.1l-0.7,1.1l-0.9-1.8c-0.2-0.4-0.6-0.5-1-0.4
				c-0.4,0.2-0.5,0.6-0.4,1l1.3,2.8l-0.5,0.6l-0.3-0.6c-0.2-0.4-0.6-0.5-1-0.3c-0.4,0.2-0.5,0.6-0.4,1l0.7,1.5l-0.2,0.3h-1.7
				l-0.2-0.3l0.7-1.5c0.2-0.4,0-0.8-0.4-1c-0.4-0.2-0.8,0-1,0.3l-0.3,0.6l-0.4-0.8l1.3-2.8c0.2-0.4,0-0.8-0.4-1
				c-0.4-0.2-0.8,0-1,0.3l-0.9,1.8l-0.7-1.1l1.9-4.1c0.2-0.4,0-0.8-0.4-1c-0.4-0.2-0.8,0-1,0.4l-1.5,3.1l-0.7-1.3l0.7-1.5
				c0.2-0.4,0-0.8-0.4-1c-0.4-0.2-0.8,0-1,0.4l-0.3,0.6l-0.5-0.9c-0.2-0.3-0.6-0.5-1-0.3c-0.3,0.2-0.5,0.6-0.3,1l0.5,0.9l-0.6-0.1
				c-0.4,0-0.8,0.3-0.8,0.7s0.3,0.8,0.7,0.8l1.6,0.1l0.7,1.3l-3.4-0.3c-0.4,0-0.8,0.3-0.8,0.7c0,0.4,0.3,0.8,0.7,0.8l4.5,0.4
				l0.7,1.1l-2-0.2c-0.4,0-0.8,0.3-0.8,0.7s0.3,0.8,0.7,0.8l3,0.3l0.4,0.8l-0.6-0.1c-0.4,0-0.8,0.3-0.8,0.7s0.3,0.8,0.7,0.8l1.6,0.1
				l0.2,0.3l-0.8,1.5h-0.3l-0.9-1.3c-0.2-0.3-0.7-0.4-1-0.2c-0.3,0.2-0.4,0.7-0.2,1l0.4,0.5h-0.9l-1.7-2.5c-0.2-0.3-0.7-0.4-1-0.2
				c-0.3,0.2-0.4,0.7-0.2,1l1.2,1.7h-1.3l-2.6-3.7c-0.2-0.3-0.7-0.4-1-0.2c-0.3,0.2-0.4,0.7-0.2,1l2,2.8h-1.5l-0.9-1.3
				c-0.2-0.3-0.7-0.4-1-0.2c-0.3,0.2-0.4,0.7-0.2,1l0.4,0.5h-1c-0.4,0-0.7,0.3-0.7,0.7s0.3,0.7,0.7,0.7h1l-0.4,0.5
				c-0.2,0.3-0.1,0.8,0.2,1c0.1,0.1,0.3,0.1,0.4,0.1c0.2,0,0.5-0.1,0.6-0.3l0.9-1.3h1.5l-2,2.8c-0.2,0.3-0.1,0.8,0.2,1
				c0.1,0.1,0.3,0.1,0.4,0.1c0.2,0,0.5-0.1,0.6-0.3l2.6-3.7h1.3l-1.2,1.7c-0.2,0.3-0.1,0.8,0.2,1c0.1,0.1,0.3,0.1,0.4,0.1
				c0.2,0,0.5-0.1,0.6-0.3l1.7-2.5h0.9l-0.4,0.5c-0.2,0.3-0.1,0.8,0.2,1c0.1,0.1,0.3,0.1,0.4,0.1c0.2,0,0.5-0.1,0.6-0.3l0.9-1.3h0.3
				l0.8,1.5l-0.2,0.3l-1.6,0.1c-0.4,0-0.7,0.4-0.7,0.8c0,0.4,0.4,0.7,0.7,0.7c0,0,0,0,0.1,0l0.6-0.1l-0.4,0.8l-3,0.3
				c-0.4,0-0.7,0.4-0.7,0.8c0,0.4,0.4,0.7,0.7,0.7c0,0,0,0,0.1,0l2-0.2l-0.7,1.1l-4.5,0.4c-0.4,0-0.7,0.4-0.7,0.8s0.4,0.7,0.7,0.7
				c0,0,0,0,0.1,0l3.4-0.3l-0.7,1.3l-1.6,0.1c-0.4,0-0.7,0.4-0.7,0.8s0.4,0.7,0.7,0.7c0,0,0,0,0.1,0l0.6-0.1l-0.5,0.9
				c-0.2,0.3-0.1,0.8,0.3,1c0.1,0.1,0.2,0.1,0.4,0.1c0.3,0,0.5-0.1,0.6-0.4l0.5-0.9l0.3,0.6c0.1,0.3,0.4,0.4,0.7,0.4
				c0.1,0,0.2,0,0.3-0.1c0.4-0.2,0.5-0.6,0.4-1l-0.7-1.5l0.7-1.3l1.5,3.1c0.1,0.3,0.4,0.4,0.7,0.4c0.1,0,0.2,0,0.3-0.1
				c0.4-0.2,0.5-0.6,0.4-1l-1.9-4.1l0.7-1.1l0.9,1.8c0.1,0.3,0.4,0.4,0.7,0.4c0.1,0,0.2,0,0.3-0.1c0.4-0.2,0.5-0.6,0.4-1l-1.3-2.8
				l0.4-0.8l0.3,0.6c0.1,0.3,0.4,0.4,0.7,0.4c0.1,0,0.2,0,0.3-0.1c0.4-0.2,0.5-0.6,0.4-1l-0.7-1.5l0.2-0.3h1.7l0.2,0.3l-0.7,1.5
				c-0.2,0.4,0,0.8,0.4,1c0.1,0,0.2,0.1,0.3,0.1c0.3,0,0.5-0.2,0.7-0.4l0.3-0.6l0.4,0.8l-1.3,2.8c-0.2,0.4,0,0.8,0.4,1
				c0.1,0,0.2,0.1,0.3,0.1c0.3,0,0.5-0.2,0.7-0.4l0.9-1.8l0.7,1.1l-1.9,4.1c-0.2,0.4,0,0.8,0.4,1c0.1,0,0.2,0.1,0.3,0.1
				c0.3,0,0.5-0.2,0.7-0.4l1.5-3.1l0.7,1.3l-0.7,1.5c-0.2,0.4,0,0.8,0.4,1c0.1,0,0.2,0.1,0.3,0.1c0.3,0,0.5-0.2,0.7-0.4l0.3-0.6
				l0.5,0.9c0.1,0.2,0.4,0.4,0.6,0.4c0.1,0,0.2,0,0.4-0.1c0.3-0.2,0.5-0.6,0.3-1l-0.5-0.9l0.6,0.1c0,0,0,0,0.1,0
				c0.4,0,0.7-0.3,0.7-0.7s-0.3-0.8-0.7-0.8l-1.6-0.1l-0.7-1.3l3.4,0.3c0,0,0,0,0.1,0c0.4,0,0.7-0.3,0.7-0.7s-0.3-0.8-0.7-0.8
				l-4.5-0.4l-0.7-1.1l2,0.2c0,0,0,0,0.1,0c0.4,0,0.7-0.3,0.7-0.7s-0.3-0.8-0.7-0.8l-3-0.3l-0.4-0.8l0.6,0.1c0,0,0,0,0.1,0
				c0.4,0,0.7-0.3,0.7-0.7c0-0.4-0.3-0.8-0.7-0.8l-1.6-0.1l-0.2-0.3l0.8-1.5h0.3l0.9,1.3c0.1,0.2,0.4,0.3,0.6,0.3
				c0.1,0,0.3,0,0.4-0.1c0.3-0.2,0.4-0.7,0.2-1l-0.4-0.5h0.9l1.7,2.5c0.1,0.2,0.4,0.3,0.6,0.3c0.1,0,0.3,0,0.4-0.1
				c0.3-0.2,0.4-0.7,0.2-1l-1.2-1.7h1.3l2.6,3.7c0.1,0.2,0.4,0.3,0.6,0.3c0.1,0,0.3,0,0.4-0.1c0.3-0.2,0.4-0.7,0.2-1l-2-2.8h1.5
				l0.9,1.3c0.1,0.2,0.4,0.3,0.6,0.3c0.1,0,0.3,0,0.4-0.1c0.3-0.2,0.4-0.7,0.2-1l-0.4-0.5h1c0.4,0,0.7-0.3,0.7-0.7
				C-252.1,395-252.4,394.7-252.8,394.7z M-268.7,396.8l-0.8-1.5l0.8-1.5h1.7l0.8,1.5l-0.8,1.5H-268.7z"/>
			<circle class="st4" cx="-240.1" cy="376.7" r="3.4"/>
			<circle class="st4" cx="-365.8" cy="441" r="3.4"/>
			<circle class="st4" cx="-360.8" cy="454" r="1.5"/>
			<circle class="st4" cx="-372.7" cy="461.9" r="1.5"/>
			<circle class="st4" cx="-252.1" cy="373.3" r="1.5"/>
			<circle class="st4" cx="-224.5" cy="409.2" r="3.8"/>
			<circle class="st4" cx="-195.6" cy="532.9" r="3.8"/>
			<circle class="st4" cx="-203.6" cy="419" r="2.8"/>
			<circle class="st4" cx="-209" cy="427.5" r="1.5"/>
			<circle class="st4" cx="-235.2" cy="417.5" r="1.5"/>
			<circle class="st4" cx="-155.7" cy="441" r="1.5"/>
			<circle class="st4" cx="-186.5" cy="419" r="1.5"/>
			<circle class="st4" cx="-192.5" cy="430.5" r="1.5"/>
			<circle class="st4" cx="-194.1" cy="418.9" r="1.5"/>
			<circle class="st4" cx="-186.5" cy="409.2" r="1.5"/>
			<circle class="st4" cx="-146.3" cy="420.5" r="1.5"/>
			<circle class="st4" cx="-141.8" cy="414.5" r="1.5"/>
			<circle class="st4" cx="-189.5" cy="524.4" r="1.5"/>
			<circle class="st4" cx="-178.2" cy="522.9" r="1.5"/>
			<circle class="st4" cx="-185" cy="531.4" r="1.5"/>
			<circle class="st4" cx="-217" cy="407.6" r="1.5"/>
			<circle class="st4" cx="-210.5" cy="414.5" r="1.5"/>
		</g>
	</g>
</g>
</svg>
