<?xml version="1.0" encoding="utf-8"?>
<!-- Generator: Adobe Illustrator 19.0.0, SVG Export Plug-In . SVG Version: 6.00 Build 0)  -->
<svg version="1.1" xmlns="http://www.w3.org/2000/svg" xmlns:xlink="http://www.w3.org/1999/xlink" x="0px" y="0px"
	 viewBox="-480 272.7 285.6 335" style="enable-background:new -480 272.7 285.6 335;" xml:space="preserve">
<style type="text/css">
	.st0{fill:#519E38;}
	.st1{fill:#F4F1D9;}
	.st2{fill:none;stroke:#FFFFFF;stroke-width:4;stroke-miterlimit:10;}
	.st3{fill:#EFEFEF;}
	.st4{fill:#FFFFFF;}
	.st5{fill:#FFE2B3;}
</style>
<g id="bath">
	<g id="Layer_2">
	</g>
	<g id="kolba_4">
	</g>
	<g id="kolba_3">
	</g>
	<g id="kolby">
	</g>
	<g id="doma">
	</g>
	<g id="car">
	</g>
	<g id="butylka_3">
	</g>
	<g id="butylka_1">
	</g>
	<g id="vanna_2">
	</g>
	<path class="st0" d="M-241.3,431.6c0-2.2-1.8-4-4-4h-183c-2.2,0-4,1.8-4,4c0,2.2,1.8,4,4,4v103.7h5.3V435.6h172.7l-0.3,16.7
		l-1.4,70.8l-7,18.7c0,0-166.2-2.8-166.2,2.7s5,5.8,5,5.8H-253c9,0,7.7-11.2,7.7-11.2l0.1-103.5C-243,435.6-241.3,433.8-241.3,431.6
		z"/>
	<rect x="-426.9" y="483.4" class="st1" width="86.7" height="60.1"/>
	<rect x="-340.3" y="483.4" class="st1" width="88.5" height="60.1"/>
	<path class="st2" d="M-250.3,540.9c0,2-1.6,3.7-3.7,3.7h-170.6c-2,0-3.7-1.6-3.7-3.7V434.3c0-2,1.6-3.7,3.7-3.7H-254
		c2,0,3.7,1.6,3.7,3.7V540.9z"/>
	<path class="st3" d="M-244.3,428.6c0,2.2-1.8,4-4,4h-183c-2.2,0-4-1.8-4-4l0,0c0-2.2,1.8-4,4-4h183
		C-246.1,424.6-244.3,426.4-244.3,428.6L-244.3,428.6z"/>
	<path class="st4" d="M-411.5,469.2c0,1.7-1.4,3.1-3.1,3.1l0,0c-1.7,0-3.1-1.4-3.1-3.1v-22.8c0-1.7,1.4-3.1,3.1-3.1l0,0
		c1.7,0,3.1,1.4,3.1,3.1V469.2z"/>
	<rect x="-341.3" y="432.6" class="st4" width="1" height="112"/>
	<circle class="st4" cx="-316.4" cy="330.4" r="2.4"/>
	<circle class="st4" cx="-317.2" cy="341.8" r="2.4"/>
	<circle class="st4" cx="-311.7" cy="309.6" r="2.4"/>
	<circle class="st4" cx="-291.4" cy="309.6" r="2.4"/>
	<circle class="st4" cx="-324.7" cy="325.6" r="2.4"/>
	<g id="fruktoza">
	</g>
	<g id="zakvaska">
	</g>
	<g id="shariki_2">
	</g>
	<g id="shariki_1">
	</g>
	<g id="voronka">
	</g>
	<g id="gradusnik">
	</g>
	<g id="kolba_2">
	</g>
	<g id="kolba_1">
	</g>
	<g id="probirki">
	</g>
	<g id="lupa">
	</g>
	<g id="bidon">
	</g>
	<g id="blank">
	</g>
	<g id="ticks">
	</g>
</g>
<g id="ingredients_1">
	<g>
		<path class="st5" d="M-421,387.6c0,0,8,6.7,14.8-2.1C-406.2,385.5-413.9,381.2-421,387.6z"/>
		<path class="st5" d="M-412.3,372.3c0,0,10,3,6.4,13.5C-405.9,385.7-413.7,381.7-412.3,372.3z"/>
		<path class="st5" d="M-422.8,380.1c0,0,3.5,6.1,9.8,2.1C-413,382.2-416.8,377.7-422.8,380.1z"/>
		<path class="st5" d="M-415.7,372.3c0,0,6.3,3,3,9.6C-412.7,381.9-417.5,378.4-415.7,372.3z"/>
		<path class="st5" d="M-411.7,391.4c0,0,8,6.7,14.8-2.1C-397,389.3-404.6,385-411.7,391.4z"/>
		<path class="st5" d="M-405.1,376.7c0,0,10.2,2,7.7,12.7C-397.4,389.4-405.6,386.2-405.1,376.7z"/>
		<path class="st5" d="M-403,395.8c0,0,9.1,5,14.1-4.8C-388.9,391-397.3,388.2-403,395.8z"/>
		<path class="st5" d="M-398.1,379.1c0,0,10.4,0.9,9,11.9C-389,391-397.5,388.6-398.1,379.1z"/>
		<path class="st5" d="M-393.5,398.9c0,0,9.8,3.4,13.1-7.1C-380.4,391.8-389.1,390.5-393.5,398.9z"/>
		<path class="st5" d="M-390.6,380.2c0,0,10.4,0.9,9,11.9C-381.6,392-390,389.7-390.6,380.2z"/>
		<path class="st5" d="M-384.3,400.7c0,0,10.3,1.5,11.5-9.5C-372.8,391.2-381.6,391.6-384.3,400.7z"/>
		<path class="st5" d="M-383.1,380.8c0,0,10.4,0.3,9.7,11.3C-373.4,392-382,390.2-383.1,380.8z"/>
		<path class="st5" d="M-379.4,392.3c-20,0-34-10.4-34.2-10.6l0.4-0.5c0.2,0.2,24.6,18.4,55.2,6.3l0.3,0.6
			C-365.5,391.1-372.8,392.3-379.4,392.3z"/>
	</g>
</g>
<g id="ingredients_2">
	<g>
		<path class="st4" d="M-313.8,357.9v0.5h0.8v0.9h-2.7v-0.9h0.8v-0.5h-0.5c-0.8,0-1.5-0.2-1.9-0.6s-0.7-0.9-0.7-1.6
			c0-0.7,0.2-1.3,0.6-1.7c0.4-0.4,1.1-0.6,1.9-0.6h0.5V353h-0.8v-0.9h2.7v0.9h-0.8v0.4h0.5c0.8,0,1.5,0.2,1.9,0.6s0.6,0.9,0.6,1.7
			c0,0.7-0.2,1.2-0.7,1.6c-0.4,0.4-1.1,0.6-1.9,0.6H-313.8z M-314.9,357v-2.8h-0.5c-0.5,0-0.8,0.1-1.1,0.4c-0.3,0.2-0.4,0.6-0.4,1.1
			s0.1,0.8,0.4,1c0.3,0.2,0.6,0.3,1.1,0.3H-314.9z M-313.8,354.2v2.8h0.5c0.5,0,0.9-0.1,1.1-0.3c0.3-0.2,0.4-0.6,0.4-1.1
			s-0.1-0.8-0.4-1.1c-0.3-0.2-0.6-0.4-1.1-0.4L-313.8,354.2L-313.8,354.2z"/>
		<path class="st4" d="M-308.7,354.9c0.3-0.2,0.5-0.4,0.7-0.5c0.3-0.1,0.6-0.2,0.9-0.2c0.7,0,1.2,0.2,1.7,0.7
			c0.4,0.5,0.7,1.1,0.7,1.9c0,0.8-0.2,1.4-0.7,1.9c-0.4,0.5-1,0.7-1.7,0.7c-0.6,0-1.2-0.3-1.7-0.8v1.4h0.7v0.9h-2.3V360h0.7v-5h-0.7
			v-0.8h1.6L-308.7,354.9L-308.7,354.9z M-307.3,358.5c0.4,0,0.8-0.2,1.1-0.5c0.3-0.3,0.4-0.7,0.4-1.2s-0.1-1-0.4-1.3
			c-0.3-0.3-0.6-0.5-1.1-0.5s-0.8,0.1-1.1,0.4c-0.3,0.3-0.4,0.7-0.4,1.3c0,0.5,0.1,1,0.4,1.3C-308.1,358.3-307.7,358.5-307.3,358.5z
			"/>
		<path class="st4" d="M-303.7,360.9v-0.8h1.2l0.4-1l-1.6-4h-0.6v-0.8h2.1v0.8h-0.6l1.1,2.8l1.1-2.8h-0.6v-0.8h2v0.8h-0.6l-2.2,5.8
			H-303.7z"/>
		<path class="st4" d="M-297.1,355v3.3h0.7v0.9h-2.3v-0.9h0.7V355h-0.7v-0.8h2.3v0.8H-297.1z M-295.2,355h-0.6v-0.8h2.2v0.8h-0.6
			l-1.8,1.5l1.7,1.8h0.7v0.9h-1.2l-2.4-2.6L-295.2,355z"/>
		<path class="st4" d="M-293.1,354.2h4.6v2.1h-0.8V355h-1v3.3h0.7v0.9h-2.4v-0.9h0.7V355h-1v1.3h-0.8V354.2z"/>
		<path class="st4" d="M-283,356.7c0,0.8-0.2,1.4-0.7,1.9s-1.1,0.7-1.8,0.7s-1.4-0.2-1.8-0.7c-0.5-0.5-0.7-1.1-0.7-1.9
			c0-0.8,0.2-1.4,0.7-1.9s1.1-0.7,1.8-0.7s1.4,0.2,1.8,0.7C-283.2,355.3-283,355.9-283,356.7z M-285.5,358.4c0.4,0,0.8-0.2,1.1-0.5
			c0.3-0.3,0.4-0.7,0.4-1.2s-0.1-1-0.4-1.3c-0.3-0.3-0.6-0.5-1.1-0.5s-0.8,0.2-1.1,0.5c-0.3,0.3-0.4,0.8-0.4,1.3s0.1,1,0.4,1.3
			C-286.3,358.3-286,358.4-285.5,358.4z"/>
		<path class="st4" d="M-280.9,357.1v-0.8h0.4c0.7,0,1-0.2,1-0.7c0-0.2-0.1-0.4-0.2-0.5c-0.2-0.1-0.4-0.2-0.7-0.2s-0.5,0.1-0.7,0.3
			c-0.2,0.2-0.3,0.4-0.4,0.7h-0.8v-1.7h0.8v0.4c0.1-0.2,0.3-0.3,0.5-0.4c0.2-0.1,0.5-0.2,0.7-0.2c0.4,0,0.8,0.1,1.1,0.4
			c0.4,0.3,0.6,0.6,0.6,1c0,0.3-0.1,0.6-0.3,0.8c-0.2,0.2-0.4,0.3-0.7,0.4c0.3,0.1,0.6,0.2,0.8,0.4c0.2,0.2,0.4,0.5,0.4,0.8
			c0,0.5-0.2,0.9-0.6,1.2c-0.4,0.2-0.8,0.4-1.4,0.4c-0.5,0-1-0.1-1.3-0.3c-0.4-0.2-0.6-0.6-0.8-1.1l0.8-0.4c0.1,0.3,0.2,0.5,0.4,0.7
			c0.2,0.2,0.5,0.3,0.8,0.3c0.3,0,0.6-0.1,0.8-0.2c0.2-0.1,0.3-0.3,0.3-0.5c0-0.3-0.1-0.4-0.3-0.6c-0.2-0.1-0.5-0.2-0.8-0.2H-280.9
			L-280.9,357.1z"/>
		<path class="st4" d="M-274.6,359.2v-0.5c-0.5,0.4-1,0.6-1.6,0.6c-0.5,0-0.9-0.1-1.2-0.4c-0.3-0.3-0.5-0.7-0.5-1.2s0.2-0.9,0.5-1.2
			c0.3-0.3,0.8-0.5,1.3-0.5c0.4,0,0.8,0.1,1.4,0.4v-0.3c0-0.9-0.4-1.3-1.1-1.3c-0.3,0-0.5,0-0.7,0.1c-0.2,0.1-0.4,0.3-0.5,0.5
			l-0.9-0.2c0.3-0.8,1.1-1.2,2.2-1.2c0.7,0,1.2,0.2,1.5,0.5c0.3,0.3,0.4,0.8,0.4,1.6v2.2h0.7v0.9H-274.6z M-274.6,357.8v-0.4
			c-0.2-0.1-0.5-0.2-0.7-0.3c-0.2-0.1-0.4-0.1-0.6-0.1c-0.3,0-0.5,0.1-0.7,0.2s-0.3,0.3-0.3,0.5c0,0.2,0.1,0.4,0.2,0.5
			c0.1,0.1,0.3,0.2,0.6,0.2C-275.6,358.4-275.1,358.2-274.6,357.8z"/>
	</g>
	<circle class="st4" cx="-311.7" cy="335.9" r="2.4"/>
	<circle class="st4" cx="-309.3" cy="344.1" r="2.4"/>
	<circle class="st4" cx="-305" cy="334.6" r="2.4"/>
	<circle class="st4" cx="-305" cy="324.4" r="2.4"/>
	<circle class="st4" cx="-291.4" cy="341.8" r="2.4"/>
	<g>
		<path class="st5" d="M-327.7,387.1c0,0,7.8,6.9,14.8-1.6C-312.9,385.5-320.4,380.9-327.7,387.1z"/>
		<path class="st5" d="M-318.6,372.1c0,0,9.9,3.3,6,13.6C-312.6,385.7-320.3,381.4-318.6,372.1z"/>
		<path class="st5" d="M-329.3,379.5c0,0,3.3,6.2,9.7,2.4C-319.5,381.9-323.3,377.3-329.3,379.5z"/>
		<path class="st5" d="M-321.9,372c0,0,6.3,3.2,2.7,9.7C-319.3,381.6-324,378-321.9,372z"/>
		<path class="st5" d="M-318.6,391.2c0,0,7.8,6.9,14.8-1.6C-303.8,389.6-311.3,385-318.6,391.2z"/>
		<path class="st5" d="M-311.5,376.7c0,0,10.1,2.3,7.3,13C-304.2,389.7-312.3,386.2-311.5,376.7z"/>
		<path class="st5" d="M-310,395.9c0,0,9,5.3,14.2-4.4C-295.8,391.5-304,388.5-310,395.9z"/>
		<path class="st5" d="M-304.5,379.3c0,0,10.3,1.3,8.6,12.1C-295.9,391.5-304.3,388.8-304.5,379.3z"/>
		<path class="st5" d="M-300.6,399.3c0,0,9.7,3.7,13.3-6.7C-287.3,392.6-295.9,391-300.6,399.3z"/>
		<path class="st5" d="M-297.1,380.6c0,0,10.3,1.3,8.6,12.1C-288.5,392.8-296.8,390.1-297.1,380.6z"/>
		<path class="st5" d="M-291.4,401.3c0,0,10.3,1.8,11.8-9.1C-279.7,392.2-288.5,392.3-291.4,401.3z"/>
		<path class="st5" d="M-289.7,381.5c0,0,10.4,0.6,9.4,11.6C-280.3,393-288.8,390.9-289.7,381.5z"/>
		<path class="st5" d="M-286.3,393.1c-20-0.6-33.7-11.5-33.8-11.6l0.4-0.5c0.2,0.2,24,19.2,55,8l0.2,0.6
			C-272.4,392.4-279.7,393.3-286.3,393.1z"/>
	</g>
</g>
</svg>
