<?xml version="1.0" encoding="utf-8"?>
<!-- Generator: Adobe Illustrator 19.0.0, SVG Export Plug-In . SVG Version: 6.00 Build 0)  -->
<svg version="1.1" xmlns="http://www.w3.org/2000/svg" xmlns:xlink="http://www.w3.org/1999/xlink" x="0px" y="0px"
	 viewBox="126 -122 309 300" style="enable-background:new 126 -122 309 300;" xml:space="preserve">
<style type="text/css">
	.st0{fill:#519E38;}
	.st1{fill:none;stroke:#FFFFFF;stroke-width:4;stroke-miterlimit:10;}
	.st2{fill:#FFFFFF;}
	.st3{fill:#EFEFEF;}
	.st4{fill:#F2F2F2;}
	.st5{fill:#00B2E7;}
	.st6{fill:#D5D6D7;}
</style>
<g id="bath">
	<g id="kolba_3">
	</g>
	<g id="kolby">
	</g>
	<g id="doma">
	</g>
	<g id="car">
	</g>
	<g id="butylka_3">
	</g>
	<g id="butylka_1">
	</g>
	<g id="vanna_1">
		<rect x="190.7" y="32.7" class="st0" width="5.3" height="105.1"/>
		<path class="st0" d="M373.8,32.7l-0.1,104.8c0,0,1.3,11.2-7.7,11.2H198.7c0,0-5-0.3-5-5.8s166.2-2.7,166.2-2.7l7-18.8l1.4-70.8
			l0.3-18.1h5.2V32.7z"/>
		<path class="st0" d="M377.7,30c0,2.2-1.8,4-4,4h-183c-2.2,0-4-1.8-4-4l0,0c0-2.2,1.8-4,4-4h183C375.9,26,377.7,27.8,377.7,30
			L377.7,30z"/>
		<path class="st1" d="M368.7,139.3c0,2-1.6,3.7-3.7,3.7H194.4c-2,0-3.7-1.6-3.7-3.7V32.7c0-2,1.6-3.7,3.7-3.7H365
			c2,0,3.7,1.6,3.7,3.7V139.3z"/>
		<rect x="190.7" y="78.8" class="st2" width="177.7" height="64.1"/>
		<path class="st3" d="M374.7,27c0,2.2-1.8,4-4,4h-183c-2.2,0-4-1.8-4-4l0,0c0-2.2,1.8-4,4-4h183C372.9,23,374.7,24.8,374.7,27
			L374.7,27z"/>
		<path class="st2" d="M207.5,64.9c0,1.7-1.4,3.1-3.1,3.1l0,0c-1.7,0-3.1-1.4-3.1-3.1V42.1c0-1.7,1.4-3.1,3.1-3.1l0,0
			c1.7,0,3.1,1.4,3.1,3.1V64.9z"/>
	</g>
	<g id="shariki_2">
	</g>
	<g id="shariki_1">
	</g>
	<g id="voronka">
	</g>
	<g id="gradusnik">
	</g>
	<g id="kolba_2">
	</g>
	<g id="kolba_1">
	</g>
	<g id="probirki">
	</g>
	<g id="lupa">
	</g>
	<g id="bidon">
	</g>
	<g id="blank">
	</g>
	<g id="ticks">
	</g>
</g>
<g id="drop">
	<path class="st4" d="M265.5-13.4L265.5-13.4L265.5-13.4c-0.1-0.2-0.2-0.4-0.3-0.6l-5.5-11.2L254.2-14c-0.1,0.2-0.2,0.4-0.3,0.6l0,0
		l0,0c-0.3,0.8-0.5,1.6-0.5,2.5c0,3.5,2.8,6.3,6.3,6.3s6.3-2.8,6.3-6.3C266-11.8,265.8-12.6,265.5-13.4z"/>
	<ellipse class="st2" cx="256.9" cy="-12.4" rx="1.7" ry="1.8"/>
</g>
<g id="bottle">
	<path class="st4" d="M321.1-30c1.1,1.5,0.9,3.6-0.6,4.7L299.2-8.5c-1.5,1.1-3.6,0.9-4.7-0.6l-24.2-30.7c-1.1-1.5-0.9-3.6,0.6-4.7
		l21.3-16.8c1.5-1.1,3.6-0.9,4.7,0.6L321.1-30z"/>
	
		<rect x="268.1" y="-60.5" transform="matrix(-0.7853 0.6191 -0.6191 -0.7853 463.553 -272.5664)" class="st4" width="21.9" height="9.2"/>
	<circle class="st5" cx="310.5" cy="-28.2" r="2.8"/>
	<circle class="st5" cx="306.3" cy="-36.4" r="1.7"/>
	<circle class="st5" cx="297.6" cy="-40.6" r="2.4"/>
	<circle class="st5" cx="301.8" cy="-20.9" r="2.5"/>
	<circle class="st5" cx="298.4" cy="-30.1" r="5.5"/>
	<path class="st6" d="M285.2-68.1c0.4,0.5,0.3,1.2-0.2,1.6l-18,14.2c-0.5,0.4-1.2,0.3-1.6-0.2l0,0c-0.4-0.5-0.3-1.2,0.2-1.6l18-14.2
		C284.1-68.7,284.8-68.6,285.2-68.1L285.2-68.1z"/>
	<path class="st2" d="M281-36.5c0.6,0.8,0.5,2-0.3,2.6l0,0c-0.8,0.6-2,0.5-2.6-0.3l-3.8-4.8c-0.6-0.8-0.5-2,0.3-2.6l0,0
		c0.8-0.6,2-0.5,2.6,0.3L281-36.5z"/>
</g>
</svg>
