<?xml version="1.0" encoding="utf-8"?>
<!-- Generator: Adobe Illustrator 19.0.0, SVG Export Plug-In . SVG Version: 6.00 Build 0)  -->
<svg version="1.1" xmlns="http://www.w3.org/2000/svg" xmlns:xlink="http://www.w3.org/1999/xlink" x="0px" y="0px"
	 viewBox="0 0 356 265" style="enable-background:new 0 0 356 265;" xml:space="preserve">
<style type="text/css">
	.st0{fill:#EFEFEF;}
	.st1{fill:#DDDDDD;}
	.st2{fill:#E0E0E0;}
	.st3{fill:#FFFFFF;}
	.st4{fill:#F05E24;}
	.st5{fill-rule:evenodd;clip-rule:evenodd;fill:#F05E24;}
	.st6{fill-rule:evenodd;clip-rule:evenodd;fill:#62BA47;}
	.st7{fill:#62BA47;}
	.st8{fill-rule:evenodd;clip-rule:evenodd;fill:#F05B24;}
	.st9{fill-rule:evenodd;clip-rule:evenodd;fill:#F8A78A;}
	.st10{fill-rule:evenodd;clip-rule:evenodd;fill:#FFFFFF;}
	.st11{fill-rule:evenodd;clip-rule:evenodd;}
	.st12{fill:#62BA46;}
	.st13{fill:#5C308F;}
	.st14{fill-rule:evenodd;clip-rule:evenodd;fill:#5C308F;}
	.st15{fill-rule:evenodd;clip-rule:evenodd;fill:#82BC00;}
	.st16{fill-rule:evenodd;clip-rule:evenodd;fill:#824098;}
	.st17{fill-rule:evenodd;clip-rule:evenodd;fill:#F3F4F5;}
	.st18{fill:#AB1D43;}
	.st19{fill-rule:evenodd;clip-rule:evenodd;fill:#AB1D43;}
	.st20{fill:#ED265C;}
</style>
<g id="Layer_2">
</g>
<g id="kolba_4">
</g>
<g id="kolba_3">
</g>
<g id="kolby">
</g>
<g id="doma">
</g>
<g id="car">
</g>
<g id="butylka_3">
</g>
<g id="tvorog">
	<g>
		<path class="st0" d="M160.1,63.5h-17.6h-7.2H69.4h-7.1H44.6l7.6,49.8l0,0c0.7,4.9,5,8.7,10.1,8.7h80.1c5.5,0,10-4.3,10.2-9.8
			L160.1,63.5z"/>
		<path class="st1" d="M142.4,63.5h-7.2h-32.9v58.5h40.1c5.5,0,10-4.3,10.2-9.8l7.4-48.8H142.4z"/>
		<path class="st2" d="M160.9,60.2c0,1.3-1.1,2.4-2.4,2.4H46c-1.3,0-2.4-1.1-2.4-2.4l0,0c0-1.3,1.1-2.4,2.4-2.4h112.5
			C159.8,57.8,160.9,58.9,160.9,60.2L160.9,60.2z"/>
		<path class="st3" d="M163.7,63.5c0,1.3-1.1,2.4-2.4,2.4H42.6c-1.3,0-2.4-1.1-2.4-2.4l0,0c0-1.3,1.1-2.4,2.4-2.4h118.7
			C162.6,61.1,163.7,62.2,163.7,63.5L163.7,63.5z"/>
		<path class="st3" d="M60.3,83.2c0.3,2.2-1.2,4.1-3.4,4.5l0,0c-2.2,0.3-4.2-1.2-4.5-3.4L51,73.8c-0.3-2.2,1.2-4.2,3.4-4.5l0,0
			c2.2-0.3,4.2,1.2,4.5,3.4L60.3,83.2z"/>
	</g>
	<g>
		<path class="st0" d="M320.9,63.5h-17.6H296h-65.8h-7.1h-17.7l7.6,49.8l0,0c0.7,4.9,5,8.7,10.1,8.7h80.1c5.5,0,10-4.3,10.2-9.8
			L320.9,63.5z"/>
		<path class="st1" d="M303.2,63.5H296h-32.9v58.5h40.1c5.5,0,10-4.3,10.2-9.8l7.4-48.8H303.2z"/>
		<path class="st2" d="M321.7,60.2c0,1.3-1.1,2.4-2.4,2.4H206.8c-1.3,0-2.4-1.1-2.4-2.4l0,0c0-1.3,1.1-2.4,2.4-2.4h112.5
			C320.6,57.8,321.7,58.9,321.7,60.2L321.7,60.2z"/>
		<path class="st3" d="M324.5,63.5c0,1.3-1.1,2.4-2.4,2.4H203.4c-1.3,0-2.4-1.1-2.4-2.4l0,0c0-1.3,1.1-2.4,2.4-2.4h118.7
			C323.4,61.1,324.5,62.2,324.5,63.5L324.5,63.5z"/>
		<path class="st3" d="M221.1,83.2c0.3,2.2-1.2,4.1-3.4,4.5l0,0c-2.2,0.3-4.2-1.2-4.5-3.4l-1.5-10.5c-0.3-2.2,1.2-4.2,3.4-4.5l0,0
			c2.2-0.3,4.2,1.2,4.5,3.4L221.1,83.2z"/>
	</g>
	<g>
		<path class="st0" d="M240.5,164.4h-17.6h-7.2h-65.8h-7.1H125l7.6,49.8l0,0c0.7,4.9,5,8.7,10.1,8.7h80.1c5.5,0,10-4.3,10.2-9.8
			L240.5,164.4z"/>
		<path class="st1" d="M222.8,164.4h-7.2h-32.9V223h40.1c5.5,0,10-4.3,10.2-9.8l7.4-48.8H222.8z"/>
		<path class="st2" d="M241.3,161.1c0,1.3-1.1,2.4-2.4,2.4H126.4c-1.3,0-2.4-1.1-2.4-2.4l0,0c0-1.3,1.1-2.4,2.4-2.4h112.5
			C240.2,158.7,241.3,159.8,241.3,161.1L241.3,161.1z"/>
		<path class="st3" d="M244.1,164.4c0,1.3-1.1,2.4-2.4,2.4H122.9c-1.3,0-2.4-1.1-2.4-2.4l0,0c0-1.3,1.1-2.4,2.4-2.4h118.7
			C243,162,244.1,163.1,244.1,164.4L244.1,164.4z"/>
		<path class="st3" d="M140.7,184.1c0.3,2.2-1.2,4.1-3.4,4.5l0,0c-2.2,0.3-4.2-1.2-4.5-3.4l-1.5-10.5c-0.3-2.2,1.2-4.2,3.4-4.5l0,0
			c2.2-0.3,4.2,1.2,4.5,3.4L140.7,184.1z"/>
	</g>
	<g>
		<circle class="st4" cx="102.5" cy="94.6" r="16.1"/>
		<path class="st5" d="M94.9,74.8c0,1.1-0.9,2.1-2.1,2.1c-1.1,0-2.1-0.9-2.1-2.1c0-1.1,0.9-2.1,2.1-2.1C94,72.7,94.9,73.7,94.9,74.8
			L94.9,74.8z"/>
		<path class="st6" d="M95,81.8c0,1.5-1.2,2.6-2.6,2.6c-1.5,0-2.7-1.2-2.7-2.6c0-1.5,1.2-2.7,2.7-2.7C93.8,79.1,95,80.3,95,81.8
			L95,81.8z"/>
		<path class="st6" d="M87.9,77.7c0,0.9-0.7,1.6-1.6,1.6c-0.9,0-1.6-0.7-1.6-1.6c0-0.9,0.7-1.6,1.6-1.6
			C87.2,76.1,87.9,76.8,87.9,77.7L87.9,77.7z"/>
		<g>
			<circle class="st7" cx="116.3" cy="79.8" r="8.9"/>
			<g>
				<path class="st3" d="M114.1,78.6c-0.7,0.1-0.9,1-1,1.6l0,0l0,0c0,0.1,0,0.2,0,0.3c0,0.3,0,0.5,0,0.8c0,0.1-0.1,0.3-0.1,0.3
					c-0.3,0-0.5-0.4-0.5-0.6c-0.2-0.5-0.3-0.9-0.4-1.4c-0.1-0.5-0.1-1-0.2-1.6c0-0.2,0-0.4,0-0.7c0-0.1,0-0.2,0-0.3
					c0-0.1,0-0.1,0-0.1c0.1-0.4-0.5,0-0.6,0.2c-0.6,1-0.4,2.3-0.4,3.4c0,0.3,0,0.6-0.1,0.9c0,0.2-0.1,0.6-0.2,0.7
					c-0.1,0.1-0.3,0-0.4,0c-0.1-0.1-0.2-0.2-0.3-0.4c0-0.2-0.2-0.1-0.3,0c-0.1,0.1-0.3,0.4-0.2,0.5c0.1,0.4,0.4,0.8,0.8,0.6
					c0.7-0.2,0.9-1,1.1-1.6c0.1-0.3,0.1-0.6,0.1-0.9c0.1,0.4,0.2,0.9,0.4,1.3c0.1,0.3,0.4,0.6,0.8,0.5c0.3-0.1,0.5-0.4,0.6-0.7
					c0.1,0.3,0.3,0.5,0.7,0.5c0.4,0,0.7-0.4,0.8-0.7c0.2-0.4,0.2-0.8,0.2-1.1C115,79.6,114.9,78.5,114.1,78.6z M114.4,81.1
					c0,0.1,0,0.1-0.1,0.2c-0.1,0-0.2-0.2-0.3-0.3c-0.1-0.2-0.2-0.5-0.2-0.8c0-0.3,0-0.6,0-0.8c0-0.1,0-0.1,0.1-0.2
					c0.4,0.2,0.4,0.7,0.5,1.1C114.4,80.6,114.4,80.9,114.4,81.1z"/>
				<path class="st3" d="M123,79.6c-0.8-0.3-1.2,0.8-1.4,1.4c-0.1,0.6-0.3,1.5,0.4,1.8c0.3,0.1,0.7-0.1,0.9-0.3
					c0.2-0.3,0.4-0.6,0.5-1C123.5,80.9,123.7,79.9,123,79.6z M122.5,82.2c0,0.1-0.1,0.1-0.1,0.2c-0.1-0.1-0.2-0.3-0.2-0.4
					c0-0.3,0-0.6,0-0.8c0.1-0.3,0.1-0.5,0.3-0.8c0-0.1,0.1-0.1,0.1-0.2c0.3,0.4,0.2,0.8,0.1,1.3C122.7,81.7,122.6,81.9,122.5,82.2z"
					/>
				<path class="st3" d="M120.8,79.8c0.1-0.2,0.3-0.4,0.4-0.6c0.3-0.4,0.6-1,0.6-1.5c0-0.5-0.7-0.5-1.1-0.4
					c-0.5,0.2-0.8,0.8-0.9,1.3c-0.2,0.7-0.3,1.4-0.3,2.1c0,0,0,0,0,0c-0.2,0.3-0.8,0.9-1.2,0.7c-0.1-0.1-0.2-0.2-0.2-0.3
					c0.3-0.3,0.6-0.7,0.9-1.1c0.2-0.4,0.4-1,0-1.2c-0.4-0.2-0.9,0-1.1,0.3c-0.3,0.3-0.4,0.7-0.4,1.1c0,0.2,0,0.6,0,0.9
					c-0.2,0.1-0.5,0.2-0.8,0.2c-0.3-0.1-0.4-0.4-0.5-0.6c-0.1-0.4-0.1-0.8,0-1.1c0-0.1,0-0.2,0.1-0.3c0,0,0-0.1,0-0.1
					c0.2,0.1,0.3,0.4,0.3,0.5c0.1,0.3,0.8-0.2,0.7-0.4c-0.1-0.3-0.2-0.5-0.5-0.7c-0.3-0.1-0.7,0.1-0.8,0.3c-0.5,0.5-0.5,1.2-0.5,1.8
					c0,0.4,0.1,0.9,0.5,1.1c0.5,0.3,1.1,0,1.6-0.3c0.1,0.3,0.3,0.5,0.7,0.5c0.5-0.1,0.9-0.3,1.3-0.7c0,0.4,0.1,0.8,0.4,0.9
					c0.4,0.2,0.9,0,1.2-0.4c0.4-0.5,0.6-1.1,0.4-1.7C121.3,79.9,121,79.8,120.8,79.8z M118.1,79.5c0-0.1,0.1-0.2,0.1-0.3
					c0,0,0,0,0,0c0.2,0,0.2,0.3,0.2,0.4c0,0.3-0.2,0.6-0.5,0.9c0-0.1,0-0.1,0-0.2C118,80,118,79.7,118.1,79.5z M120.7,78
					c0.1-0.1,0.1-0.2,0.2-0.3c0,0,0,0,0,0c0.3,0.3,0,0.8-0.2,1.2c-0.2,0.3-0.4,0.6-0.6,0.9c0-0.3,0.1-0.6,0.2-0.9
					C120.4,78.6,120.5,78.3,120.7,78z M120.5,81.6c0,0-0.1,0.1-0.1,0.1c0,0,0,0-0.1,0c-0.2-0.1-0.2-0.5-0.2-0.7c0-0.2,0-0.3,0-0.5
					c0.1-0.1,0.2-0.2,0.3-0.3c0.2-0.1,0.3,0.1,0.3,0.3C120.8,80.9,120.7,81.4,120.5,81.6z"/>
			</g>
		</g>
		<g>
			<g>
				<g>
					<path class="st3" d="M102.4,89.9C102.4,89.9,102.4,89.9,102.4,89.9c-0.1,0-0.1,0-0.1,0c-0.9,0.1-1.1,1.3-1.1,2
						c0,0.6,0.1,1.8,0.9,1.8c0.4,0,0.7-0.4,0.9-0.7c0.2-0.4,0.3-0.8,0.3-1.2C103.3,91.2,103.2,90,102.4,89.9z M102.5,92.8
						c0,0.1,0,0.1-0.1,0.2c0,0,0,0.1,0,0.1c0,0,0,0,0,0c-0.5,0-0.6-1-0.6-1.3c0-0.3,0-0.6,0.1-0.9c0-0.1,0.1-0.2,0.1-0.3
						c0.5,0,0.6,1,0.6,1.3C102.6,92.2,102.6,92.5,102.5,92.8z"/>
					<path class="st3" d="M100.2,90.1c-0.3-0.1-0.6,0-0.9,0.2c-0.1-0.2-0.1-0.4-0.2-0.7c-0.1-0.2-0.4,0-0.5,0.1
						c-0.1,0.1-0.2,0.2-0.2,0.3c0,0,0,0,0,0.1c0,0.2-0.1,0.3-0.1,0.4c0,0,0,0-0.1,0.1c-0.2,0.1-0.5,0-0.6-0.1c0,0,0,0,0,0
						c-0.1,0-0.2-0.1-0.4-0.1c0,0,0,0-0.1,0c0,0,0,0,0,0c-1,0.2-1,1.5-0.9,2.1c0.1,0.6,0.4,1.8,1.2,1.6c0.4-0.1,0.7-0.5,0.9-0.9
						c0.2-0.4,0.2-0.8,0.1-1.3c0-0.2-0.1-0.6-0.2-0.9c0.1-0.1,0.3-0.2,0.4-0.3c0.2,0.9,0.3,1.8,0.4,2.7c0.1,0.8,0.2,1.7,0.2,2.5
						c0,0.2,0.2,0.1,0.3,0.1c0.1-0.1,0.3-0.3,0.3-0.5c0-0.6,0-1.2-0.1-1.7c0.2,0,0.5-0.2,0.7-0.4c0.4-0.5,0.5-1.3,0.4-1.9
						C100.8,91.1,100.7,90.3,100.2,90.1z M97.8,93.2c0,0.1,0,0.1,0,0.2c0,0,0,0.1,0,0.1c0,0,0,0,0,0c-0.5,0.1-0.7-0.9-0.8-1.1
						c-0.1-0.3-0.1-0.6-0.1-0.9c0-0.1,0-0.2,0.1-0.3c0,0,0.1,0,0.1,0c0,0,0,0,0,0c0,0,0.1,0,0.1,0c0.3,0.2,0.5,0.8,0.5,1.1
						C97.8,92.6,97.8,92.9,97.8,93.2z M99.5,90.7C99.5,90.7,99.5,90.7,99.5,90.7L99.5,90.7z M100.2,93.2
						C100.2,93.2,100.2,93.2,100.2,93.2L100.2,93.2z M100.2,93.1C100.2,93.2,100.2,93.2,100.2,93.1
						C100.1,93.2,100.1,93.2,100.2,93.1c-0.3,0.1-0.5-0.1-0.5-0.3c0,0,0,0,0-0.1c0-0.5-0.1-1-0.2-1.5c0,0,0,0,0,0c0-0.2,0-0.3,0-0.5
						c0,0,0,0,0,0c0,0,0,0,0,0c0.1,0,0.2,0,0.3,0.1c0.3,0.3,0.4,0.7,0.4,1C100.3,92.3,100.3,92.8,100.2,93.1z"/>
					<path class="st3" d="M94.9,91.8c0.1-0.3,0.1-0.7,0.2-1c0.1-0.5,0.2-1.3-0.2-1.7c-0.3-0.5-0.9,0-1.2,0.3
						c-0.4,0.6-0.3,1.3-0.3,1.9c0.1,0.7,0.3,1.4,0.5,2.1c-0.1,0.3-0.1,0.7-0.3,1c0,0,0,0.1,0,0.1c0,0-0.1-0.1-0.1-0.1
						c-0.1-0.1-0.1-0.3-0.2-0.4c-0.4-1-0.6-2.2-1.1-3.1c-0.2-0.3-0.5-0.8-1-0.6c-0.4,0.2-0.5,0.5-0.6,0.9c-0.2-0.3-0.6-0.5-1-0.2
						c-0.2,0.1-0.3,0.3-0.4,0.5c-0.1-0.2-0.1-0.3-0.3-0.4c-0.3-0.2-0.8,0.6-0.6,0.8c0.2,0.1,0.2,0.3,0.3,0.5
						c0.2,0.4,0.3,0.7,0.5,1.1c0.1,0.2,0.2,0.4,0.2,0.6c0.3,0.8,0.6,1.6,0.9,2.4c0,0.1,0.1,0.1,0.1,0.1c0.2,0,0.5-0.5,0.4-0.7
						c-0.3-0.7-0.5-1.4-0.8-2.1c-0.1-0.3-0.2-0.6-0.3-0.9c-0.1-0.3-0.2-0.7-0.2-1c0,0,0-0.1,0-0.1c0.5-0.2,0.9,0.9,1,1.1
						c0.2,0.4,0.3,0.8,0.5,1.2c0.2,0.6,0.4,1.2,0.6,1.8c0,0.1,0.1,0.1,0.1,0.1c0.2,0,0.5-0.5,0.4-0.7c-0.2-0.6-0.4-1.3-0.6-1.9
						c0-0.2-0.1-0.3-0.1-0.5c-0.1-0.5-0.3-1.1-0.3-1.7c0,0,0,0,0,0c0.1,0,0.3,0.1,0.3,0.2c0.4,0.5,0.6,1.2,0.9,1.9
						c0.1,0.4,0.3,0.9,0.4,1.3c0.1,0.3,0.2,0.6,0.4,0.8c0.2,0.3,0.5,0,0.7-0.2c0.2-0.2,0.3-0.5,0.4-0.8c0.2,0.4,0.4,0.7,0.8,0.7
						c0.6-0.1,0.8-0.7,0.9-1.2c0.1-0.5,0-1.5-0.6-1.8C95.2,91.7,95.1,91.7,94.9,91.8z M94.1,91.1c-0.1-0.5-0.1-1,0-1.5c0,0,0,0,0,0
						c0.2,0,0.2,0.2,0.2,0.4c0.1,0.5,0.1,1,0,1.5c0,0.2-0.1,0.4-0.1,0.6C94.2,91.8,94.2,91.4,94.1,91.1z M95.4,93.2
						c0,0.2,0.1,0.5,0,0.7c0,0,0,0,0,0c0,0-0.1,0-0.1,0c-0.1,0-0.3-0.2-0.3-0.3c-0.2-0.2-0.3-0.5-0.4-0.7c0-0.1,0.1-0.3,0.1-0.4
						c0.1-0.1,0.2-0.1,0.3,0C95.2,92.7,95.3,93,95.4,93.2z"/>
					<path class="st3" d="M115,95.4c-0.1-0.1-0.3-0.1-0.4-0.1c0,0,0,0,0,0c0,0-0.1-0.1-0.1-0.1c-0.1-0.1,0-0.3,0-0.4
						c0-0.3,0.1-0.7,0.3-1c0,0,0,0,0,0c0.1-0.3,0.2-0.5,0.3-0.8c0,0,0,0,0,0c0,0,0,0,0,0c0.1-0.2,0.2-0.3,0.3-0.5
						c0.1-0.2-0.2-0.2-0.3-0.2c0,0,0,0-0.1,0c-0.2-0.2-0.4-0.2-0.7-0.2c-0.8,0.1-1.3,0.8-1.4,1.5c-0.1,0.4,0.2,0.8,0.6,0.9
						c0.1,0,0.1,0,0.2,0c-0.1,0.2-0.2,0.3-0.4,0.4c-0.1,0.1-0.3-0.2-0.3-0.4c0-0.1-0.1-0.1-0.2-0.1c0,0,0,0,0,0
						c-0.2,0-0.3,0.1-0.4,0.2c0,0,0,0,0-0.1c-0.1-0.2,0-0.4,0-0.6c0.1-0.6,0.3-1.3,0.5-1.9c0,0,0,0,0,0c0.1-0.4-0.2-0.7-0.6-0.7
						c-0.4,0-0.8,0.2-1.1,0.5c-0.4,0.4-0.6,1-0.7,1.5h0c-0.1,0.1-0.1,0.4-0.3,0.6c0,0,0,0,0,0c0,0-0.1,0-0.1,0c-0.1-0.1,0-0.5,0-0.7
						c0-0.6,0.2-1.2,0.4-1.8c0.1-0.1,0.1-0.3,0.2-0.4c0.1-0.1,0-0.3-0.2-0.3c-0.2,0-0.4,0.1-0.5,0.3c-0.1,0.1-0.2,0.3-0.2,0.4
						c-0.1,0.2-0.2,0.4-0.4,0.5c-0.1,0.1-0.2,0.2-0.4,0.3c0,0,0,0,0,0c0.1-0.6,0.1-1.2,0.2-1.8c0-0.1,0-0.1-0.1-0.2c0,0,0,0,0,0l0,0
						c0,0,0,0,0,0c0,0,0,0,0,0h0c-0.1,0-0.1,0-0.2,0c-0.1,0-0.3,0.1-0.4,0.3c0,0-0.1,0.1-0.1,0.1c-0.2,0.8-0.5,1.7-1,2.4
						c0,0-0.1,0.1-0.1,0.1c0,0,0,0,0,0c0,0,0,0,0,0c0,0,0,0,0,0c-0.2-0.1-0.2-0.3-0.3-0.4c-0.2-0.5-0.1-1,0-1.5
						c0-0.1,0.1-0.2,0.1-0.3c0-0.1,0.1-0.1,0.1-0.2c0,0,0,0,0,0c0,0,0,0,0,0c0.1,0.1,0.2,0.2,0.2,0.3c0.1,0.2,0.9-0.2,0.8-0.5
						c-0.2-0.4-0.7-0.5-1.1-0.3c-0.3,0.2-0.5,0.4-0.6,0.6c0,0,0,0,0,0.1c0,0,0,0,0,0c0,0,0,0.1-0.1,0.1c0,0,0,0,0,0
						c-0.1,0.1-0.1,0.3-0.2,0.4c0.1-0.5,0.1-1,0.2-1.5c0-0.4-0.7,0-0.7,0.2c-0.1,0.2-0.2,0.4-0.3,0.6c0-0.2-0.1-0.4-0.2-0.6
						c-0.3-0.5-0.8-0.5-1.2-0.1c-0.1,0.1-0.3,0.3-0.2,0.4c0.1,0.1,0.3,0,0.4-0.1c0,0,0,0,0,0c0,0,0.1,0.1,0.1,0.1
						c0.1,0.1,0.1,0.2,0.2,0.3c0.1,0.3,0.1,0.6,0.1,1c0,0.3,0,0.6-0.1,0.9c0,0,0,0,0,0.1c0,0,0,0.1,0,0.1c-0.1,0-0.2-0.2-0.2-0.2
						c-0.1-0.2-0.8,0.3-0.6,0.6c0.4,0.6,1,0.2,1.3-0.2c0.1-0.2,0.2-0.4,0.3-0.6c0.1-0.2,0.1-0.3,0.2-0.5c0,0.5-0.1,1-0.2,1.5
						c0,0.2,0.2,0.2,0.3,0.1c0.2-0.1,0.3-0.2,0.4-0.4c0-0.2,0.1-0.4,0.2-0.6c0,0.2,0,0.4,0.1,0.6c0.1,0.2,0.2,0.5,0.5,0.6
						c0.4,0.1,0.8-0.2,1-0.4c0.2-0.2,0.4-0.4,0.6-0.6c0,0.3-0.1,0.7-0.2,1c0,0.2,0.2,0.2,0.3,0.1c0.2-0.1,0.4-0.2,0.4-0.4
						c0.1-0.3,0.2-0.6,0.4-0.9c0.1-0.1,0.2-0.2,0.4-0.3c0,0,0,0,0,0c-0.1,0.5-0.2,0.9-0.1,1.4c0,0.4,0.3,0.5,0.7,0.4
						c0.2,0,0.3-0.1,0.5-0.2c0,0.2,0.1,0.3,0.2,0.4c0.3,0.2,0.7,0.1,1-0.1c0,0,0.1,0,0.1-0.1c0,0.1,0,0.1,0,0.2
						c0.1,0.4,0.4,0.5,0.8,0.4c0.2,0.4,0.8,0.4,1.2,0.2c0.1,0,0.2-0.1,0.2-0.1c0,0.1,0,0.2,0,0.2c0.1,0.5,0.6,0.6,1,0.4
						C114.8,95.7,115.1,95.5,115,95.4z M111.2,94.1c0,0-0.1,0-0.1,0c-0.1-0.1-0.1-0.3-0.1-0.5c0-0.2,0-0.4,0-0.6c0,0,0,0,0,0
						c0,0,0,0,0-0.1c0.1-0.3,0.2-0.5,0.3-0.8c0.1-0.1,0.2-0.3,0.3-0.4c0,0,0,0,0,0c0,0,0.1,0,0.1,0c0.2,0,0.2,0.2,0.2,0.3
						c-0.2,0.6-0.4,1.3-0.7,1.9C111.3,94,111.2,94.1,111.2,94.1z M112.3,94.5L112.3,94.5C112.3,94.5,112.3,94.6,112.3,94.5
						C112.3,94.6,112.3,94.5,112.3,94.5z M113.7,93.3c0-0.3,0.2-0.7,0.4-0.8c0,0,0.1,0,0.2,0.1c0.1,0.1,0.1,0.3,0.1,0.4
						c-0.1,0.3-0.2,0.6-0.3,0.9C113.7,93.7,113.7,93.5,113.7,93.3z M114.7,95.3C114.7,95.3,114.7,95.3,114.7,95.3L114.7,95.3z"/>
				</g>
			</g>
			<path class="st3" d="M108,99.8C108,99.8,108,99.8,108,99.8c-0.1-0.1-0.1-0.2-0.1-0.2c0-0.2,0-0.4,0-0.6c0-0.6,0.1-1.2,0.2-1.7
				c0,0,0,0,0,0c0-0.4-0.3-0.7-0.7-0.6c-0.4,0-0.7,0.3-1,0.6c-0.3,0.4-0.4,0.8-0.5,1.3c-0.1,0.2-0.1,0.4-0.2,0.6
				c0,0.1-0.1,0.1-0.1,0.2c0,0.1-0.1,0.1-0.1,0.1c0,0,0,0-0.1,0c-0.1,0,0,0-0.1,0c-0.2,0-0.4-0.1-0.5-0.3c-0.3-0.4-0.2-1-0.2-1.4
				c0-0.2,0.1-0.5,0.2-0.7c0,0,0.1,0,0.1,0.1c0.1,0.1,0.2,0.3,0.2,0.5c0.1,0.3,0.8-0.1,0.7-0.4c-0.1-0.3-0.2-0.8-0.6-0.8
				c-0.4,0-0.8,0.3-0.9,0.7c-0.2,0.4-0.3,0.8-0.3,1.3c0,0.2-0.1,0.5-0.2,0.7c0,0.1-0.1,0.1-0.1,0.2c0,0.1-0.1,0.1-0.1,0.1l-0.1,0
				c-0.1,0,0,0-0.1,0c-0.2,0-0.4-0.1-0.5-0.2c-0.3-0.3-0.3-1-0.2-1.4c0-0.2,0.1-0.5,0.2-0.8c0,0,0.1,0,0.1,0.1
				c0.1,0.1,0.2,0.3,0.2,0.5c0.1,0.3,0.8-0.2,0.7-0.5c-0.1-0.3-0.3-0.8-0.7-0.8c-0.4,0-0.8,0.4-0.9,0.7c-0.2,0.4-0.3,0.9-0.3,1.4
				c0,0.1,0,0.1,0,0.1c0,0.2-0.1,0.5-0.2,0.8c-0.2-0.1-0.2-0.6-0.2-0.7c-0.1-0.6-0.1-1.2,0-1.7c0,0,0,0,0,0c0-0.4-0.4-0.6-0.8-0.5
				c-0.4,0.1-0.7,0.4-0.9,0.8c-0.2,0.4-0.3,0.9-0.3,1.4c0,0.3-0.1,0.5-0.1,0.8c0,0,0,0.1,0,0.1c-0.1,0-0.1-0.1-0.1-0.2
				c-0.1-0.2-0.2-0.6-0.2-0.8c-0.1-0.5-0.2-1.2,0-1.7c0-0.1,0-0.2-0.2-0.2c-0.2,0-0.4,0.2-0.5,0.4c0,0,0,0.1,0,0.1h0v0
				c-0.1,0.3-0.2,0.6-0.3,1c-0.1-0.4-0.2-0.9-0.1-1.2c0-0.1,0-0.2-0.2-0.2c-0.2,0-0.3,0.2-0.4,0.3C97,97.4,97,98.1,97,98.7
				c0,0.3,0,0.6-0.1,0.9c0,0,0,0,0,0c-0.2-0.1-0.2-0.4-0.2-0.6c0-0.2-0.3,0-0.4,0.1c-0.1,0.1-0.2,0.3-0.2,0.5c0.1,0.4,0.4,1,0.9,0.6
				c0.3-0.2,0.5-0.6,0.6-1c0.1,0.3,0.1,0.5,0.2,0.8c0.1,0.4,0.6-0.2,0.6-0.4c0-0.2,0-0.3,0-0.5c0.2,0.7,0.5,1.1,1,0.7
				c0.1-0.1,0.2-0.2,0.3-0.3c0.1,0.2,0.2,0.3,0.3,0.4c0.3,0.1,0.7-0.1,0.9-0.4c0,0,0,0,0,0c0,0.1,0.1,0.2,0.1,0.3
				c0.1,0.1,0.3,0.1,0.4,0.1c0.3,0,0.5-0.3,0.6-0.5c0.3,0.5,0.9,0.6,1.4,0.3c0.2-0.1,0.4-0.3,0.5-0.4c0,0,0,0.1,0.1,0.1
				c0.2,0.5,0.9,0.7,1.4,0.4c0.2-0.1,0.3-0.2,0.5-0.3c0,0.2,0.1,0.4,0.3,0.6c0.3,0.2,0.7,0,0.9-0.2c0,0,0,0,0,0
				c0,0.1,0.1,0.2,0.1,0.3c0.2,0.3,0.6,0.2,0.8,0c0.1-0.1,0.3-0.2,0.3-0.4C108.4,99.7,108,99.8,108,99.8z M100.6,99.1
				c0,0,0,0.1,0,0.2c0,0-0.1,0-0.1,0c-0.1,0-0.2-0.3-0.2-0.4c-0.2-0.5-0.1-1,0-1.5c0-0.1,0.1-0.4,0.2-0.5c0,0,0,0,0,0
				c0,0,0.1,0,0.1,0c0.2,0,0.3,0.1,0.3,0.3C100.8,97.8,100.8,98.5,100.6,99.1z M106.9,99.4c0,0,0,0.1-0.1,0.1c0,0-0.1,0-0.1,0
				c-0.1-0.1-0.2-0.3-0.2-0.4c-0.1-0.5,0-1,0.1-1.5c0-0.1,0.2-0.4,0.2-0.4c0,0,0,0,0,0c0,0,0.1,0,0.1,0c0.2,0,0.2,0.2,0.2,0.3
				C107.2,98.1,107.1,98.8,106.9,99.4z"/>
		</g>
		<g>
			<circle class="st7" cx="89.6" cy="108.9" r="5.1"/>
			<g>
				<path class="st3" d="M91.9,107.5c-0.6,1-1.4,2-2.1,2.9c-0.3,0.4,0.2,0.4,0.4,0.1c0.8-1,1.6-2,2.2-3.1
					C92.7,107,92.1,107.2,91.9,107.5L91.9,107.5z"/>
				<path class="st3" d="M90.8,107.2c-0.4,0-0.7,0.4-0.7,0.7c-0.1,0.3,0.1,0.6,0.5,0.6C91.3,108.6,91.6,107.2,90.8,107.2
					c-0.2,0-0.5,0.4-0.2,0.4c0.2,0,0.3,0.2,0.3,0.3c0,0.1,0,0.1,0,0.2c0,0.1,0,0,0,0c0,0-0.1,0-0.1,0c-0.2,0-0.3-0.2-0.3-0.3
					c0-0.1,0-0.1,0-0.2c0,0,0,0,0,0c0,0,0.1,0,0.1,0C90.7,107.6,91,107.2,90.8,107.2z"/>
				<path class="st3" d="M91.9,109.4c-0.4,0-0.7,0.4-0.7,0.7c-0.1,0.3,0.1,0.6,0.5,0.6C92.3,110.8,92.7,109.4,91.9,109.4
					c-0.2,0-0.5,0.4-0.2,0.4c0.2,0,0.3,0.2,0.3,0.3c0,0.1,0,0.1,0,0.2c0,0.1,0,0,0,0c0,0-0.1,0-0.1,0c-0.2,0-0.3-0.2-0.3-0.3
					c0-0.1,0-0.1,0-0.2c0,0,0,0,0,0c0,0,0.1,0,0.1,0C91.8,109.8,92.1,109.4,91.9,109.4z"/>
			</g>
			<path class="st3" d="M87.9,108.6c-0.2-0.1-0.8-0.7-0.4-1c0.2-0.1,0.4-0.1,0.6,0c0.5,0.1,0.1,0.5-0.1,0.7
				c-0.1,0.1-0.9,0.7-0.6,0.9c0.4,0.3,1.1,0,1.1,0.6c0,0.4-0.7,0.5-1,0.3c-0.4-0.3-0.4-0.7,0.1-1c0.2-0.1,0.4-0.7,0-0.5
				c-0.5,0.3-1,0.7-1,1.3c0,0.4,0.4,0.8,0.8,0.9c0.6,0.1,1.2-0.3,1.5-0.8c0.3-0.4,0.3-1-0.3-1.2c-0.2,0-0.6-0.2-0.7,0
				c0.2-0.3,0.5-0.4,0.7-0.7c0.4-0.5,0.2-1.1-0.4-1.2c-0.6-0.1-1.1,0.3-1.3,0.8c-0.3,0.6,0,1.1,0.5,1.4
				C87.7,109.3,88.2,108.8,87.9,108.6L87.9,108.6z"/>
		</g>
		<g>
			<g>
				<path class="st3" d="M103.2,105.6c-0.1-0.1-0.3,0-0.4,0.1c0-0.1,0-0.3,0-0.4c0-0.2-0.4,0.1-0.4,0.3c0,0.3,0,0.5,0.1,0.8
					c0,0,0,0,0,0c0,0,0,0,0,0c0,0.1,0,0.2,0,0.4c-0.1,0.1-0.2,0.2-0.3,0.2c0-0.5,0-1,0-1.4c0,0,0,0,0-0.1c0,0,0,0,0,0c0,0,0,0,0,0
					c0,0,0,0,0,0c-0.1,0-0.3,0.1-0.4,0.2c0,0,0,0,0,0c-0.1,0.4-0.1,0.7-0.3,1.1c0,0.1-0.1,0.4-0.3,0.3c-0.2-0.2-0.1-0.6,0-0.8
					c0.1-0.3,0.1-0.6,0.2-0.8c0-0.2-0.4,0-0.4,0.1c0,0.2-0.2,0.7-0.3,1.2c-0.2,0.1-0.5,0.3-0.6,0.1c-0.1-0.1,0-0.3,0-0.5
					c0-0.3-0.2-0.4-0.4-0.4c0,0,0,0,0,0c0-0.1,0.1-0.2,0.2-0.3c0.1-0.1,0.2-0.1,0.3,0c0.1,0.1,0.6-0.1,0.4-0.2
					c-0.3-0.3-0.6-0.2-0.9,0.1c0-0.2,0.1-0.4,0.1-0.7c0-0.2-0.4,0-0.4,0.1c-0.1,0.7-0.3,1.3-0.6,1.9c-0.1,0.2,0.5,0.1,0.5,0
					c0.1-0.2,0.2-0.3,0.2-0.5c0.3,0.1-0.1,0.7,0.2,0.8c0.3,0.2,0.7,0,1-0.1c0,0.2,0.2,0.4,0.4,0.4c0.3,0,0.5-0.1,0.6-0.2
					c0,0,0,0.1,0,0.1c-0.2,0.2-0.4,0.3-0.6,0.5c-0.2,0.2-1,1.1-0.2,1.3c0.6,0.1,1-0.3,1.1-0.7c0.1-0.3,0.2-0.7,0.2-1.1
					c0.1-0.1,0.2-0.2,0.3-0.3c0,0,0,0.1,0,0.1c0,0,0,0,0,0c0,0,0,0,0,0.1c0,0.5-0.1,1-0.2,1.5c0,0.2,0.5,0,0.5-0.2
					c0-0.3,0.1-0.6,0.1-1c0.1,0,0.3-0.1,0.4-0.2c0.3-0.3,0.4-0.7,0.3-1.1C103.5,106.1,103.5,105.7,103.2,105.6z M101.2,108.8
					c-0.5-0.1-0.1-0.5,0.4-1C101.4,108.4,101.3,108.8,101.2,108.8z M103.2,107.1c0,0.1,0,0.1-0.1,0.2c0,0,0,0-0.1,0
					c-0.1,0-0.2-0.1-0.2-0.2c0-0.3,0-0.6,0-0.9c0-0.3,0.1-0.3,0.2-0.1c0.1,0.1,0.1,0.3,0.1,0.5C103.2,106.7,103.2,106.9,103.2,107.1
					z"/>
				<path class="st3" d="M107,104.5C107,104.5,107,104.5,107,104.5c-0.4,0.3-0.4,0.8-0.3,1.2c0,0.1,0.1,0.3,0.2,0.5
					c-0.1,0.2-0.3,0.5-0.6,0.5c-0.5-0.1,0-0.8,0-1.1c0.1-0.7-0.5-0.7-0.9-0.2c-0.1,0.2-0.1,0.5,0.1,0.2c0.2-0.2,0.4-0.1,0.4,0.1
					c0,0.2-0.2,0.5-0.3,0.7c0,0.1-0.1,0.2,0,0.4c-0.2,0.2-0.4,0.3-0.5,0c-0.1-0.2-0.2-0.4-0.2-0.6c0-0.1,0-0.3-0.1-0.4
					c0-0.1,0-0.1,0-0.2c0,0,0,0,0,0c-0.2-0.5-0.7-0.1-0.9,0.2c-0.2,0.4-0.2,0.9-0.1,1.3c0.1,0.4,0.6,0.5,0.9,0.1c0,0,0,0,0-0.1
					c0,0.1,0.1,0.1,0.1,0.2c0.2,0.2,0.6-0.1,0.8-0.4c0,0,0,0,0.1,0.1c0.4,0.3,0.9-0.2,1.2-0.7c0.1,0.2,0.3,0.3,0.5,0.2
					c0.5-0.2,0.4-0.9,0.3-1.3C107.8,105,107.4,104.3,107,104.5z M104.6,107.1c-0.1,0-0.2-0.1-0.2-0.1c-0.1-0.2-0.2-0.4-0.2-0.6
					c0-0.1,0-0.2,0-0.4c0-0.1,0-0.1,0.1-0.2c0.1-0.1,0.2,0.1,0.3,0.1c0,0.3,0.1,0.6,0.1,0.9C104.7,106.8,104.6,107.1,104.6,107.1z
					 M107.7,105.8c0,0.1,0,0.1,0,0.2c0,0.1,0,0.1,0,0.1s-0.5-0.3-0.5-0.4c-0.1-0.1-0.1-0.3-0.2-0.5c0-0.1,0-0.2,0-0.3
					c0,0,0-0.1,0-0.1c0.2,0,0.4,0.2,0.5,0.4C107.6,105.5,107.6,105.6,107.7,105.8z"/>
				<path class="st3" d="M108,103.7c0.2-0.1,0.3-0.5,0.2-0.8c0-0.1-0.1-0.2-0.1-0.1c-0.1,0.1-0.1,0.2-0.1,0.3c0,0,0,0.1,0,0.1
					c0,0,0,0,0,0c0,0,0,0,0,0c0,0,0,0,0,0c0,0,0,0,0,0c0,0,0,0,0,0s-0.1,0.1-0.2,0.1c0,0.1-0.1,0.3,0,0.3
					C107.8,103.7,107.9,103.8,108,103.7z"/>
				<path class="st3" d="M109.8,104.7c-0.1,0.3-0.6-0.3-0.7-0.3c-0.1-0.1-0.1-0.1-0.2-0.2c-0.1-0.2-0.2-0.4-0.3-0.5
					c0,0,0-0.1-0.1-0.1c-0.1-0.2-0.3,0.3-0.2,0.4c0.1,0.3,0.3,0.5,0.4,0.8c0.1,0.1,0.1,0.3,0.2,0.4c0.1,0.2,0.1,0.2-0.1,0.2
					c-0.5,0-0.7-0.9-0.8-1.3c-0.1-0.3-0.3,0.2-0.2,0.3c0.1,0.3,0.5,1.9,1.2,1.4c0.2-0.2,0.3-0.3,0.3-0.5c0.3,0.2,0.7-0.2,0.8-0.5
					C110.1,104.4,109.9,104.4,109.8,104.7z"/>
				<path class="st3" d="M96.9,105.4c-0.2,0-0.5,0-0.7-0.2c-0.2-0.2-0.1-0.4,0-0.6c0.1-0.2,0.2-0.4,0.4-0.5c0,0,0.1-0.1,0.1-0.1
					c0.1-0.1,0.1-0.1,0.1,0c0.1,0.1,0,0.2,0,0.3c0,0.2,0.5,0.1,0.5,0c0.1-0.3,0-0.6-0.4-0.6c-0.5,0-0.8,0.4-1,0.7
					c-0.2,0.3-0.3,0.6,0,1c0.3,0.4,1,0.4,1.3,0.3C97.3,105.6,97.2,105.4,96.9,105.4z"/>
			</g>
		</g>
		<g>
			<path class="st8" d="M120.6,107c0,0.8-0.7,1.5-1.5,1.5c-0.8,0-1.5-0.7-1.5-1.5c0-0.8,0.7-1.5,1.5-1.5
				C120,105.5,120.6,106.2,120.6,107"/>
			<path class="st6" d="M120.9,104.3c0,0,0.7-1.6-1.9-2.8C119,101.5,117.1,103.8,120.9,104.3"/>
			<path class="st5" d="M117.9,109.5c0,0-2.5-2.6,0.3-5.3c0,0,1.3-1.3,2.9,0C121.1,104.2,118.3,106,117.9,109.5"/>
			<path class="st9" d="M119.2,109.8c-0.7,0.1-2.4,0.1-1.3-2.8c0.2-0.5,0.5-1.1,0.8-1.4c1.5-1.7,3.4-1.9,3.9,0.2
				C123.4,108.7,120.6,109.6,119.2,109.8"/>
			<path class="st10" d="M118.8,109.3c0,0,3-0.2,3.1-2.3C121.9,107,121,109.1,118.8,109.3"/>
			<path class="st10" d="M117.6,107.2c0,0,0.4-2.6,2.1-3.1C119.7,104.1,117.6,104.3,117.6,107.2"/>
			<path class="st6" d="M121,104.2c0,0,2.2,1,3.8-2.6C124.8,101.6,120.6,100.3,121,104.2 M121.4,103.9c1.3,0.3,3.1-2.1,3.1-2.1
				C122.6,104.9,121.2,103.9,121.4,103.9z"/>
			<path class="st5" d="M124.3,105.6c0.2,0.1,0.3,0.2,0.5,0.3c0.5,0.5-0.2,0.6,0,0.8c0.3,0.3,1.4-0.2,1.6,1.4c0.3,1.4-1.4,2.6-3,2.6
				c-1.6,0-3.1-1.2-3.1-2.6c0-1.4,1.4-2.6,3.1-2.6C123.8,105.5,124,105.5,124.3,105.6"/>
			<path class="st9" d="M121.1,109.6c0,0-1.9-2.1,0.6-3.6c0,0,1.8-1,3-0.1c0,0,0.3,0.3,0,0.6c-0.3,0.3,0.1,0.4,0.1,0.4
				c0,0,1.3,0,1.5,1.2C126.5,109.4,123.3,111.3,121.1,109.6"/>
			<path class="st11" d="M121.7,108.6c0,0-0.4-1,0.3-1.8c0.7-0.7,2.2-0.7,2.4,0C124.5,106.8,126,109,121.7,108.6L121.7,108.6z"/>
		</g>
		<g>
			<path class="st12" d="M82.9,87.8c-0.1,0-0.2-0.1-0.2-0.2c-0.3-0.1-0.6,0.1-0.9,0.1c-0.8,0-1,0-2-0.3c0-0.8,0.5-1.3,0.7-1.9
				c0.2-0.5-0.1-1.2-0.1-1.8c0-0.4,0-0.7,0-1.1c-0.3,0.2-0.1,1-0.2,1.3c-0.1-0.5-0.1-1.1-0.3-1.5c-0.1,0.5,0,1.1,0,1.5
				c-0.1-0.4-0.2-0.9-0.3-1.3c-0.2,0.4,0.1,1.1,0.1,1.5c-0.2-0.4-0.2-0.8-0.4-1.2c-0.1,0.5,0.2,0.9,0.1,1.3
				c-0.2-0.3-0.2-0.7-0.5-0.9c0,0.3,0.2,0.7,0.3,1c-0.2-0.1-0.3-0.4-0.5-0.5c0,0.3,0.2,0.4,0.3,0.6c-0.2-0.1-0.2-0.3-0.4-0.3
				c0,0.2,0.2,0.3,0.3,0.5c-0.1-0.1-0.2-0.2-0.3-0.2c0,0.2,0.3,0.3,0.2,0.4c0,0-0.2-0.1-0.2,0c0,0,0.2,0.1,0.1,0.1
				c-0.1,0-0.1,0-0.1,0c0,0.1,0.1,0.1,0.1,0.2c0,0-0.1,0-0.1,0c0,0.1,0.1,0.1,0.1,0.2c-0.7,0.7-0.3,1.4-0.4,2.2c0-0.1-0.5-0.2-1-0.4
				c-0.2-0.1-0.3-0.4-0.5-0.5c0,0,0.1,0,0.1-0.1c-0.1,0-0.2-0.1-0.2-0.1c0.1,0,0.2,0,0.3,0c-0.1-0.1-0.4-0.1-0.4-0.3
				c0.2,0,0.3,0.1,0.4,0.1c-0.2-0.1-0.5-0.2-0.5-0.4c0.2,0.1,0.4,0.2,0.6,0.1c-0.3-0.1-0.7-0.4-0.7-0.6c0.2,0.1,0.5,0.3,0.7,0.3
				c-0.3-0.1-0.6-0.5-0.9-0.5c0.1,0.3,0.6,0.5,0.7,0.7c-0.2-0.2-0.5-0.3-0.8-0.4c0.1,0.3,0.5,0.4,0.7,0.6c-0.2,0-0.4-0.1-0.6-0.1
				c0.1,0.3,0.5,0.2,0.6,0.4c-0.1-0.1-0.3,0-0.4,0c0,0.2,0.3,0.1,0.4,0.2c-0.1,0-0.3,0-0.3,0.1c0.1,0.1,0.3,0,0.3,0.1
				c-0.1,0-0.2,0-0.2,0.1c0,0.1,0.2,0,0.2,0.1c0,0-0.1,0-0.1,0.1c0.1,0,0.1,0,0.1,0c0,0-0.1,0-0.1,0.1c0.4,0.2,0.5,0.8,1,0.9
				c-0.3,0.2,0.3,0.4-2.8,1.4c0.1,0,1.4-0.3,1.7-0.4c0.4-0.1,0.8-0.2,1.1-0.4c0.1,0,0.2-0.1,0.3-0.1c0.6-0.1,1.2,0.1,1.8-0.4
				c-0.5,0.1-1.3,0.2-1.6-0.1c0.4-0.7,0.1-2.3,0.5-2.7c0.4-0.3,0.9-1.4,1.5-0.5c0.1,0.1,0.1,0.4-0.1,0.7c-0.3,0.5-0.5,0.7-0.4,1.7
				c0,0.2,0,0.4-0.3,0.4c1.3,0.3,1.7,0.1,2.5,0c0.3,0,0.6-0.2,0.7,0c0,0.1-0.3,0.1-0.5,0.1c-0.4,0,0.2,0.1,0.3,0.1
				c0.1,0,0.8-0.1,1.2-0.2C83.3,87.8,83.2,87.8,82.9,87.8z"/>
			<path class="st12" d="M79,80.9c-3.1,0-5.6,2.5-5.6,5.6c0,3.1,2.5,5.6,5.6,5.6s5.6-2.5,5.6-5.6C84.6,83.4,82.1,80.9,79,80.9
				 M79,81.1c3,0,5.4,2.4,5.4,5.4c0,3-2.4,5.4-5.4,5.4c-3,0-5.4-2.4-5.4-5.4C73.6,83.5,76,81.1,79,81.1"/>
		</g>
	</g>
	<g>
		<circle class="st13" cx="183.9" cy="193.3" r="16.1"/>
		<g>
			<circle class="st7" cx="171" cy="207.6" r="5.1"/>
			<g>
				<path class="st3" d="M173.3,206.2c-0.6,1-1.4,2-2.1,2.9c-0.3,0.4,0.2,0.4,0.4,0.1c0.8-1,1.6-2,2.2-3.1
					C174.1,205.7,173.4,206,173.3,206.2L173.3,206.2z"/>
				<path class="st3" d="M172.2,205.9c-0.4,0-0.7,0.4-0.7,0.7c-0.1,0.3,0.1,0.6,0.5,0.6C172.6,207.3,173,205.9,172.2,205.9
					c-0.2,0-0.5,0.4-0.2,0.4c0.2,0,0.3,0.2,0.3,0.3c0,0.1,0,0.1,0,0.2c0,0.1,0,0,0,0c0,0-0.1,0-0.1,0c-0.2,0-0.3-0.2-0.3-0.3
					c0-0.1,0-0.1,0-0.2c0,0,0,0,0,0c0,0,0.1,0,0.1,0C172.1,206.3,172.4,205.9,172.2,205.9z"/>
				<path class="st3" d="M173.2,208.1c-0.4,0-0.7,0.4-0.7,0.7c-0.1,0.3,0.1,0.6,0.5,0.6C173.7,209.5,174.1,208.1,173.2,208.1
					c-0.2,0-0.5,0.4-0.2,0.4c0.2,0,0.3,0.2,0.3,0.3c0,0.1,0,0.1,0,0.2c0,0.1,0,0,0,0c0,0-0.1,0-0.1,0c-0.2,0-0.3-0.2-0.3-0.3
					c0-0.1,0-0.1,0-0.2c0,0,0,0,0,0c0,0,0.1,0,0.1,0C173.2,208.5,173.5,208.1,173.2,208.1z"/>
			</g>
			<path class="st3" d="M169.3,207.3c-0.2-0.1-0.8-0.7-0.4-1c0.2-0.1,0.4-0.1,0.6,0c0.5,0.1,0.1,0.5-0.1,0.7
				c-0.1,0.1-0.9,0.7-0.6,0.9c0.4,0.3,1.1,0,1.1,0.6c0,0.4-0.7,0.5-1,0.3c-0.4-0.3-0.4-0.7,0.1-1c0.2-0.1,0.4-0.7,0-0.5
				c-0.5,0.3-1,0.7-1,1.3c0,0.4,0.4,0.8,0.8,0.9c0.6,0.1,1.2-0.3,1.5-0.8c0.3-0.4,0.3-1-0.3-1.2c-0.2,0-0.6-0.2-0.7,0
				c0.2-0.3,0.5-0.4,0.7-0.7c0.4-0.5,0.2-1.1-0.4-1.2c-0.6-0.1-1.1,0.3-1.3,0.8c-0.3,0.6,0,1.1,0.5,1.4
				C169.1,208,169.6,207.5,169.3,207.3L169.3,207.3z"/>
		</g>
		<path class="st14" d="M176.3,173.5c0,1.1-0.9,2.1-2.1,2.1c-1.1,0-2.1-0.9-2.1-2.1c0-1.1,0.9-2.1,2.1-2.1
			C175.3,171.5,176.3,172.4,176.3,173.5L176.3,173.5z"/>
		<path class="st6" d="M176.3,180.5c0,1.5-1.2,2.6-2.6,2.6c-1.5,0-2.7-1.2-2.7-2.6c0-1.5,1.2-2.7,2.7-2.7
			C175.2,177.8,176.3,179,176.3,180.5L176.3,180.5z"/>
		<path class="st6" d="M169.2,176.4c0,0.9-0.7,1.6-1.6,1.6c-0.9,0-1.6-0.7-1.6-1.6c0-0.9,0.7-1.6,1.6-1.6
			C168.5,174.8,169.2,175.5,169.2,176.4L169.2,176.4z"/>
		<g>
			<circle class="st7" cx="197.7" cy="178.5" r="8.9"/>
			<g>
				<path class="st3" d="M195.5,177.3c-0.7,0.1-0.9,1-1,1.6l0,0l0,0c0,0.1,0,0.2,0,0.3c0,0.3,0,0.5,0,0.8c0,0.1-0.1,0.3-0.1,0.3
					c-0.3,0-0.5-0.4-0.5-0.6c-0.2-0.5-0.3-0.9-0.4-1.4c-0.1-0.5-0.1-1-0.2-1.6c0-0.2,0-0.4,0-0.7c0-0.1,0-0.2,0-0.3
					c0-0.1,0-0.1,0-0.1c0.1-0.4-0.5,0-0.6,0.2c-0.6,1-0.4,2.3-0.4,3.4c0,0.3,0,0.6-0.1,0.9c0,0.2-0.1,0.6-0.2,0.7
					c-0.1,0.1-0.3,0-0.4,0c-0.1-0.1-0.2-0.2-0.3-0.4c0-0.2-0.2-0.1-0.3,0c-0.1,0.1-0.3,0.4-0.2,0.5c0.1,0.4,0.4,0.8,0.8,0.6
					c0.7-0.2,0.9-1,1.1-1.6c0.1-0.3,0.1-0.6,0.1-0.9c0.1,0.4,0.2,0.9,0.4,1.3c0.1,0.3,0.4,0.6,0.8,0.5c0.3-0.1,0.5-0.4,0.6-0.7
					c0.1,0.3,0.3,0.5,0.7,0.5c0.4,0,0.7-0.4,0.8-0.7c0.2-0.4,0.2-0.8,0.2-1.1C196.4,178.3,196.3,177.2,195.5,177.3z M195.7,179.8
					c0,0.1,0,0.1-0.1,0.2c-0.1,0-0.2-0.2-0.3-0.3c-0.1-0.2-0.2-0.5-0.2-0.8c0-0.3,0-0.6,0-0.8c0-0.1,0-0.1,0.1-0.2
					c0.4,0.2,0.4,0.7,0.5,1.1C195.8,179.3,195.8,179.6,195.7,179.8z"/>
				<path class="st3" d="M204.3,178.3c-0.8-0.3-1.2,0.8-1.4,1.4c-0.1,0.6-0.3,1.5,0.4,1.8c0.3,0.1,0.7-0.1,0.9-0.3
					c0.2-0.3,0.4-0.6,0.5-1C204.9,179.6,205.1,178.6,204.3,178.3z M203.8,180.9c0,0.1-0.1,0.1-0.1,0.2c-0.1-0.1-0.2-0.3-0.2-0.4
					c0-0.3,0-0.6,0-0.8c0.1-0.3,0.1-0.5,0.3-0.8c0-0.1,0.1-0.1,0.1-0.2c0.3,0.4,0.2,0.8,0.1,1.3C204,180.4,204,180.6,203.8,180.9z"
					/>
				<path class="st3" d="M202.2,178.5c0.1-0.2,0.3-0.4,0.4-0.6c0.3-0.4,0.6-1,0.6-1.5c0-0.5-0.7-0.5-1.1-0.4
					c-0.5,0.2-0.8,0.8-0.9,1.3c-0.2,0.7-0.3,1.4-0.3,2.1c0,0,0,0,0,0c-0.2,0.3-0.8,0.9-1.2,0.7c-0.1-0.1-0.2-0.2-0.2-0.3
					c0.3-0.3,0.6-0.7,0.9-1.1c0.2-0.4,0.4-1-0.1-1.2c-0.4-0.2-0.9,0-1.1,0.3c-0.3,0.3-0.4,0.7-0.4,1.1c0,0.2,0,0.6,0,0.9
					c-0.2,0.1-0.5,0.2-0.8,0.2c-0.3-0.1-0.4-0.4-0.5-0.6c-0.1-0.4-0.1-0.8,0-1.1c0-0.1,0-0.2,0.1-0.3c0,0,0-0.1,0-0.1
					c0.2,0.1,0.3,0.4,0.3,0.5c0.1,0.3,0.8-0.2,0.7-0.4c-0.1-0.3-0.2-0.5-0.5-0.7c-0.3-0.1-0.7,0.1-0.8,0.3c-0.5,0.5-0.5,1.2-0.5,1.8
					c0,0.4,0.1,0.9,0.5,1.1c0.5,0.3,1.1,0,1.6-0.3c0.1,0.3,0.3,0.5,0.7,0.5c0.5-0.1,0.9-0.3,1.3-0.7c0,0.4,0.1,0.8,0.4,0.9
					c0.4,0.2,0.9,0,1.2-0.4c0.4-0.5,0.6-1.1,0.4-1.7C202.6,178.6,202.4,178.5,202.2,178.5z M199.5,178.2c0-0.1,0.1-0.2,0.1-0.3
					c0,0,0,0,0,0c0.2,0,0.2,0.3,0.2,0.4c0,0.3-0.2,0.6-0.5,0.9c0-0.1,0-0.1,0-0.2C199.4,178.7,199.4,178.4,199.5,178.2z
					 M202.1,176.7c0.1-0.1,0.1-0.2,0.2-0.3c0,0,0,0,0,0c0.3,0.3,0,0.8-0.2,1.2c-0.2,0.3-0.4,0.6-0.6,0.9c0-0.3,0.1-0.6,0.2-0.9
					C201.8,177.3,201.9,177,202.1,176.7z M201.9,180.3c0,0-0.1,0.1-0.1,0.1c0,0,0,0-0.1,0c-0.2-0.1-0.2-0.5-0.2-0.7
					c0-0.2,0-0.3,0-0.5c0.1-0.1,0.2-0.2,0.3-0.3c0.2-0.1,0.3,0.1,0.3,0.3C202.1,179.6,202,180.1,201.9,180.3z"/>
			</g>
		</g>
		<g>
			<g>
				<g>
					<path class="st3" d="M183.7,188.6C183.7,188.6,183.6,188.6,183.7,188.6c-0.1,0-0.1,0-0.1,0c-0.9,0.1-1.1,1.3-1.1,2
						c0,0.6,0.1,1.8,0.9,1.8c0.4,0,0.7-0.4,0.9-0.7c0.2-0.4,0.3-0.8,0.3-1.2C184.6,189.9,184.5,188.7,183.7,188.6z M183.8,191.5
						c0,0.1,0,0.1-0.1,0.2c0,0,0,0.1,0,0.1c0,0,0,0,0,0c-0.5,0-0.6-1-0.6-1.3c0-0.3,0-0.6,0.1-0.9c0-0.1,0.1-0.2,0.1-0.3
						c0.5,0,0.6,1,0.6,1.3C183.9,190.9,183.9,191.2,183.8,191.5z"/>
					<path class="st3" d="M181.4,188.8c-0.3-0.1-0.6,0-0.9,0.2c-0.1-0.2-0.1-0.4-0.2-0.7c-0.1-0.2-0.4,0-0.5,0.1
						c-0.1,0.1-0.2,0.2-0.2,0.3c0,0,0,0,0,0.1c0,0.2-0.1,0.3-0.1,0.4c0,0,0,0-0.1,0.1c-0.2,0.1-0.5,0-0.6-0.1c0,0,0,0,0,0
						c-0.1,0-0.2-0.1-0.4-0.1c0,0,0,0-0.1,0c0,0,0,0,0,0c-1,0.2-1,1.5-0.9,2.1c0.1,0.6,0.4,1.8,1.2,1.6c0.4-0.1,0.7-0.5,0.9-0.9
						c0.2-0.4,0.2-0.8,0.1-1.3c0-0.2-0.1-0.6-0.2-0.9c0.1-0.1,0.3-0.2,0.4-0.3c0.2,0.9,0.3,1.8,0.4,2.7c0.1,0.8,0.2,1.7,0.2,2.5
						c0,0.2,0.2,0.1,0.3,0.1c0.1-0.1,0.3-0.3,0.3-0.5c0-0.6,0-1.2-0.1-1.7c0.2,0,0.5-0.2,0.7-0.4c0.4-0.5,0.5-1.3,0.4-1.9
						C182.1,189.8,182,189,181.4,188.8z M179,191.9c0,0.1,0,0.1,0,0.2c0,0,0,0.1,0,0.1c0,0,0,0,0,0c-0.5,0.1-0.7-0.9-0.8-1.1
						c-0.1-0.3-0.1-0.6-0.1-0.9c0-0.1,0-0.2,0.1-0.3c0,0,0.1,0,0.1,0c0,0,0,0,0,0c0,0,0.1,0,0.1,0c0.3,0.2,0.5,0.8,0.5,1.1
						C179,191.3,179.1,191.6,179,191.9z M180.8,189.5C180.8,189.4,180.8,189.4,180.8,189.5L180.8,189.5z M181.4,191.9
						C181.4,191.9,181.5,191.9,181.4,191.9L181.4,191.9z M181.4,191.8C181.4,191.9,181.4,191.9,181.4,191.8
						C181.4,191.9,181.4,191.9,181.4,191.8c-0.3,0.1-0.5-0.1-0.5-0.3c0,0,0,0,0-0.1c0-0.5-0.1-1-0.2-1.5c0,0,0,0,0,0
						c0-0.2,0-0.3,0-0.5c0,0,0,0,0,0c0,0,0,0,0,0c0.1,0,0.2,0,0.3,0.1c0.3,0.3,0.4,0.7,0.4,1C181.5,191,181.6,191.5,181.4,191.8z"/>
					<path class="st3" d="M176.2,190.5c0.1-0.3,0.1-0.7,0.2-1c0.1-0.5,0.2-1.3-0.2-1.7c-0.3-0.5-0.9,0-1.2,0.3
						c-0.4,0.6-0.3,1.3-0.3,1.9c0.1,0.7,0.3,1.4,0.5,2.1c-0.1,0.3-0.1,0.7-0.3,1c0,0,0,0.1,0,0.1c0,0-0.1-0.1-0.1-0.1
						c-0.1-0.1-0.1-0.3-0.2-0.4c-0.4-1-0.6-2.2-1.1-3.1c-0.2-0.3-0.5-0.8-1-0.6c-0.4,0.2-0.5,0.5-0.6,0.9c-0.2-0.3-0.6-0.5-1-0.2
						c-0.2,0.1-0.3,0.3-0.4,0.5c-0.1-0.2-0.1-0.3-0.3-0.4c-0.3-0.2-0.8,0.6-0.6,0.8c0.2,0.1,0.2,0.3,0.3,0.5
						c0.2,0.4,0.3,0.7,0.5,1.1c0.1,0.2,0.2,0.4,0.2,0.6c0.3,0.8,0.6,1.6,0.9,2.4c0,0.1,0.1,0.1,0.1,0.1c0.2,0,0.5-0.5,0.4-0.7
						c-0.3-0.7-0.5-1.4-0.8-2.1c-0.1-0.3-0.2-0.6-0.3-0.9c-0.1-0.3-0.2-0.7-0.2-1c0,0,0-0.1,0-0.1c0.5-0.2,0.9,0.9,1,1.1
						c0.2,0.4,0.3,0.8,0.5,1.2c0.2,0.6,0.4,1.2,0.6,1.8c0,0.1,0.1,0.1,0.1,0.1c0.2,0,0.5-0.5,0.4-0.7c-0.2-0.6-0.4-1.3-0.6-1.9
						c0-0.2-0.1-0.3-0.1-0.5c-0.1-0.5-0.3-1.1-0.3-1.7c0,0,0,0,0,0c0.1,0,0.3,0.1,0.3,0.2c0.4,0.5,0.6,1.2,0.9,1.9
						c0.1,0.4,0.3,0.9,0.4,1.3c0.1,0.3,0.2,0.6,0.4,0.8c0.2,0.3,0.5,0,0.7-0.2c0.2-0.2,0.3-0.5,0.4-0.8c0.2,0.4,0.4,0.7,0.8,0.7
						c0.6-0.1,0.8-0.7,0.9-1.2c0.1-0.5,0-1.5-0.6-1.8C176.5,190.4,176.3,190.4,176.2,190.5z M175.4,189.8c-0.1-0.5-0.1-1,0-1.5
						c0,0,0,0,0,0c0.2,0,0.2,0.2,0.2,0.4c0.1,0.5,0.1,1,0,1.5c0,0.2-0.1,0.4-0.1,0.6C175.5,190.5,175.4,190.1,175.4,189.8z
						 M176.6,192c0,0.2,0.1,0.5,0,0.7c0,0,0,0,0,0c0,0-0.1,0-0.1,0c-0.1,0-0.3-0.2-0.3-0.3c-0.2-0.2-0.3-0.5-0.4-0.7
						c0-0.1,0.1-0.3,0.1-0.4c0.1-0.1,0.2-0.1,0.3,0C176.5,191.4,176.6,191.7,176.6,192z"/>
					<path class="st3" d="M196.3,194.1c-0.1-0.1-0.3-0.1-0.4-0.1c0,0,0,0,0,0c0,0-0.1-0.1-0.1-0.1c-0.1-0.1,0-0.3,0-0.4
						c0-0.3,0.1-0.7,0.3-1c0,0,0,0,0,0c0.1-0.3,0.2-0.5,0.3-0.8c0,0,0,0,0,0c0,0,0,0,0,0c0.1-0.2,0.2-0.3,0.3-0.5
						c0.1-0.2-0.2-0.2-0.3-0.2c0,0,0,0-0.1,0c-0.2-0.2-0.4-0.2-0.7-0.2c-0.8,0.1-1.3,0.8-1.4,1.5c-0.1,0.4,0.2,0.8,0.6,0.9
						c0.1,0,0.1,0,0.2,0c-0.1,0.2-0.2,0.3-0.4,0.4c-0.1,0.1-0.3-0.2-0.3-0.4c0-0.1-0.1-0.1-0.2-0.1c0,0,0,0,0,0
						c-0.2,0-0.3,0.1-0.4,0.2c0,0,0,0,0-0.1c-0.1-0.2,0-0.4,0-0.6c0.1-0.6,0.3-1.3,0.5-1.9c0,0,0,0,0,0c0.1-0.4-0.2-0.7-0.6-0.7
						c-0.4,0-0.8,0.2-1.1,0.5c-0.4,0.4-0.6,1-0.7,1.5h0c-0.1,0.1-0.1,0.4-0.3,0.6c0,0,0,0,0,0c0,0-0.1,0-0.1,0c-0.1-0.1,0-0.5,0-0.7
						c0-0.6,0.2-1.2,0.4-1.8c0.1-0.1,0.1-0.3,0.2-0.4c0.1-0.1,0-0.3-0.2-0.3c-0.2,0-0.4,0.1-0.5,0.3c-0.1,0.1-0.2,0.3-0.2,0.4
						c-0.1,0.2-0.2,0.4-0.4,0.5c-0.1,0.1-0.2,0.2-0.4,0.3c0,0,0,0,0,0c0.1-0.6,0.1-1.2,0.2-1.8c0-0.1,0-0.1-0.1-0.2c0,0,0,0,0,0l0,0
						c0,0,0,0,0,0c0,0,0,0,0,0h0c-0.1,0-0.1,0-0.2,0c-0.1,0-0.3,0.1-0.4,0.3c0,0-0.1,0.1-0.1,0.1c-0.2,0.8-0.5,1.7-1,2.4
						c0,0-0.1,0.1-0.1,0.1c0,0,0,0,0,0c0,0,0,0,0,0c0,0,0,0,0,0c-0.2-0.1-0.2-0.3-0.3-0.4c-0.2-0.5-0.1-1,0-1.5
						c0-0.1,0.1-0.2,0.1-0.3c0-0.1,0.1-0.1,0.1-0.2c0,0,0,0,0,0c0,0,0,0,0,0c0.1,0.1,0.2,0.2,0.2,0.3c0.1,0.2,0.9-0.2,0.8-0.5
						c-0.2-0.4-0.7-0.5-1.1-0.3c-0.3,0.2-0.5,0.4-0.6,0.6c0,0,0,0,0,0.1c0,0,0,0,0,0c0,0,0,0.1-0.1,0.1c0,0,0,0,0,0
						c-0.1,0.1-0.1,0.3-0.2,0.4c0.1-0.5,0.1-1,0.2-1.5c0-0.4-0.7,0-0.7,0.2c-0.1,0.2-0.2,0.4-0.3,0.6c0-0.2-0.1-0.4-0.2-0.6
						c-0.3-0.5-0.8-0.5-1.2-0.1c-0.1,0.1-0.3,0.3-0.2,0.4c0.1,0.1,0.3,0,0.4-0.1c0,0,0,0,0,0c0,0,0.1,0.1,0.1,0.1
						c0.1,0.1,0.1,0.2,0.2,0.3c0.1,0.3,0.1,0.6,0.1,1c0,0.3,0,0.6-0.1,0.9c0,0,0,0,0,0.1c0,0,0,0.1,0,0.1c-0.1,0-0.2-0.2-0.2-0.2
						c-0.1-0.2-0.8,0.3-0.6,0.6c0.4,0.6,1,0.2,1.3-0.2c0.1-0.2,0.2-0.4,0.3-0.6c0.1-0.2,0.1-0.3,0.2-0.5c0,0.5-0.1,1-0.2,1.5
						c0,0.2,0.2,0.2,0.3,0.1c0.2-0.1,0.3-0.2,0.4-0.4c0-0.2,0.1-0.4,0.2-0.6c0,0.2,0,0.4,0.1,0.6c0.1,0.2,0.2,0.5,0.5,0.6
						c0.4,0.1,0.8-0.2,1-0.4c0.2-0.2,0.4-0.4,0.6-0.6c0,0.3-0.1,0.7-0.2,1c0,0.2,0.2,0.2,0.3,0.1c0.2-0.1,0.4-0.2,0.4-0.4
						c0.1-0.3,0.2-0.6,0.4-0.9c0.1-0.1,0.2-0.2,0.4-0.3c0,0,0,0,0,0c-0.1,0.5-0.2,0.9-0.1,1.4c0,0.4,0.3,0.5,0.7,0.4
						c0.2,0,0.3-0.1,0.5-0.2c0,0.2,0.1,0.3,0.2,0.4c0.3,0.2,0.7,0.1,1-0.1c0,0,0.1,0,0.1-0.1c0,0.1,0,0.1,0,0.2
						c0.1,0.4,0.4,0.5,0.8,0.4c0.2,0.4,0.8,0.4,1.2,0.2c0.1,0,0.2-0.1,0.2-0.1c0,0.1,0,0.2,0,0.2c0.1,0.5,0.6,0.6,1,0.4
						C196.1,194.4,196.4,194.2,196.3,194.1z M192.5,192.8c0,0-0.1,0-0.1,0c-0.1-0.1-0.1-0.3-0.1-0.5c0-0.2,0-0.4,0-0.6c0,0,0,0,0,0
						c0,0,0,0,0-0.1c0.1-0.3,0.2-0.5,0.3-0.8c0.1-0.1,0.2-0.3,0.3-0.4c0,0,0,0,0,0c0,0,0.1,0,0.1,0c0.2,0,0.2,0.2,0.2,0.3
						c-0.2,0.6-0.4,1.3-0.7,1.9C192.5,192.7,192.5,192.8,192.5,192.8z M193.5,193.2L193.5,193.2
						C193.5,193.3,193.5,193.3,193.5,193.2C193.5,193.3,193.5,193.3,193.5,193.2z M194.9,192c0-0.3,0.2-0.7,0.4-0.8
						c0,0,0.1,0,0.2,0.1c0.1,0.1,0.1,0.3,0.1,0.4c-0.1,0.3-0.2,0.6-0.3,0.9C195,192.4,194.9,192.2,194.9,192z M195.9,194
						C195.9,194,195.9,194,195.9,194L195.9,194z"/>
				</g>
			</g>
			<path class="st3" d="M189.3,198.5C189.3,198.5,189.2,198.5,189.3,198.5c-0.1-0.1-0.1-0.2-0.1-0.2c0-0.2,0-0.4,0-0.6
				c0-0.6,0.1-1.2,0.2-1.7c0,0,0,0,0,0c0-0.4-0.3-0.7-0.7-0.6c-0.4,0-0.7,0.3-1,0.6c-0.3,0.4-0.4,0.8-0.5,1.3
				c-0.1,0.2-0.1,0.4-0.2,0.6c0,0.1-0.1,0.1-0.1,0.2c0,0.1-0.1,0.1-0.1,0.1c0,0-0.1,0-0.1,0c-0.1,0,0,0-0.1,0
				c-0.2,0-0.4-0.1-0.5-0.3c-0.3-0.4-0.2-1-0.2-1.4c0-0.2,0.1-0.5,0.2-0.7c0,0,0.1,0,0.1,0.1c0.1,0.1,0.2,0.3,0.2,0.5
				c0.1,0.3,0.8-0.1,0.7-0.4c-0.1-0.3-0.2-0.8-0.6-0.8c-0.4,0-0.8,0.3-0.9,0.7c-0.2,0.4-0.3,0.8-0.3,1.3c0,0.2-0.1,0.5-0.2,0.7
				c0,0.1-0.1,0.1-0.1,0.2c0,0.1-0.1,0.1-0.1,0.1l-0.1,0c-0.1,0,0,0-0.1,0c-0.2,0-0.4-0.1-0.5-0.2c-0.3-0.3-0.3-1-0.2-1.4
				c0-0.2,0.1-0.5,0.2-0.8c0,0,0.1,0,0.1,0.1c0.1,0.1,0.2,0.3,0.2,0.5c0.1,0.3,0.8-0.2,0.7-0.5c-0.1-0.3-0.3-0.8-0.7-0.8
				c-0.4,0-0.8,0.4-0.9,0.7c-0.2,0.4-0.3,0.9-0.3,1.4c0,0.1,0,0.1,0,0.1c0,0.2-0.1,0.5-0.2,0.8c-0.2-0.1-0.2-0.6-0.2-0.7
				c-0.1-0.6-0.1-1.2,0-1.7c0,0,0,0,0,0c0-0.4-0.4-0.6-0.8-0.5c-0.4,0.1-0.7,0.4-0.9,0.8c-0.2,0.4-0.3,0.9-0.3,1.4
				c0,0.3-0.1,0.5-0.1,0.8c0,0,0,0.1,0,0.1c-0.1,0-0.1-0.1-0.1-0.2c-0.1-0.2-0.2-0.6-0.2-0.8c-0.1-0.5-0.2-1.2,0-1.7
				c0-0.1,0-0.2-0.2-0.2c-0.2,0-0.4,0.2-0.5,0.4c0,0,0,0.1,0,0.1h0l0,0c-0.1,0.3-0.2,0.6-0.3,1c-0.1-0.4-0.2-0.9-0.1-1.2
				c0-0.1,0-0.2-0.2-0.2c-0.2,0-0.3,0.2-0.4,0.3c-0.3,0.6-0.3,1.3-0.3,1.9c0,0.3,0,0.6-0.1,0.9c0,0,0,0,0,0
				c-0.2-0.1-0.2-0.4-0.2-0.6c0-0.2-0.3,0-0.4,0.1c-0.1,0.1-0.2,0.3-0.2,0.5c0.1,0.4,0.4,1,0.9,0.6c0.3-0.2,0.5-0.6,0.6-1
				c0.1,0.3,0.1,0.5,0.2,0.8c0.1,0.4,0.6-0.2,0.6-0.4c0-0.2,0-0.3,0-0.5c0.2,0.7,0.5,1.1,1,0.7c0.1-0.1,0.2-0.2,0.3-0.3
				c0.1,0.2,0.2,0.3,0.3,0.4c0.3,0.1,0.7-0.1,0.9-0.4c0,0,0,0,0,0c0,0.1,0.1,0.2,0.1,0.3c0.1,0.1,0.3,0.1,0.4,0.1
				c0.3,0,0.5-0.3,0.6-0.5c0.3,0.5,0.9,0.6,1.4,0.3c0.2-0.1,0.4-0.3,0.5-0.4c0,0,0,0.1,0.1,0.1c0.2,0.5,0.9,0.7,1.4,0.4
				c0.2-0.1,0.3-0.2,0.5-0.3c0,0.2,0.1,0.4,0.3,0.6c0.3,0.2,0.7,0,0.9-0.2c0,0,0,0,0,0c0,0.1,0.1,0.2,0.1,0.3c0.2,0.3,0.6,0.2,0.8,0
				c0.1-0.1,0.3-0.2,0.3-0.4C189.6,198.4,189.3,198.5,189.3,198.5z M181.9,197.8c0,0,0,0.1,0,0.2c0,0-0.1,0-0.1,0
				c-0.1,0-0.2-0.3-0.2-0.4c-0.2-0.5-0.2-1,0-1.5c0-0.1,0.1-0.4,0.2-0.5c0,0,0,0,0,0c0,0,0.1,0,0.1,0c0.2,0,0.3,0.1,0.3,0.3
				C182,196.5,182,197.2,181.9,197.8z M188.2,198.1c0,0,0,0.1-0.1,0.1c0,0-0.1,0-0.1,0c-0.1-0.1-0.2-0.3-0.2-0.4
				c-0.1-0.5,0-1,0.1-1.5c0-0.1,0.2-0.4,0.2-0.4c0,0,0,0,0,0c0,0,0.1,0,0.1,0c0.2,0,0.2,0.2,0.2,0.3
				C188.5,196.9,188.4,197.5,188.2,198.1z"/>
		</g>
		<g>
			<g>
				<path class="st3" d="M184.3,204.1c-0.5,0.1-0.6,0.7-0.7,1.1c0,0.3-0.1,1.2,0.4,1.2c0.6,0,0.7-0.7,0.8-1
					C184.8,205,184.7,204.1,184.3,204.1c-0.1,0-0.4,0.4-0.2,0.4c0.5,0,0.4,1.3,0.3,1.5c0.1-0.1,0.1,0,0-0.1c-0.1,0-0.1-0.1-0.1-0.2
					c-0.1-0.1-0.1-0.3-0.1-0.5c0-0.2,0-0.3,0-0.5c0-0.1,0-0.1,0-0.2c0,0,0-0.1,0-0.1c0-0.1,0-0.1,0,0
					C184.2,204.5,184.5,204.1,184.3,204.1z"/>
				<path class="st3" d="M182.9,204.4c0.1,0.6,0,1.2-0.1,1.8c0,0.2,0.4,0,0.5-0.2c0.1-0.5,0.6-0.8,0.7-1.3c0.1-0.3-0.3,0-0.4,0.1
					c-0.1,0.3-0.3,0.4-0.5,0.7c-0.2,0.2-0.3,0.4-0.3,0.7c0.2-0.1,0.3-0.1,0.5-0.2c0.1-0.6,0.1-1.3,0-1.9
					C183.3,204,182.9,204.2,182.9,204.4L182.9,204.4z"/>
				<path class="st3" d="M184.8,205.8c0,0.2,0.2,0.6,0.6,0.5c0.2-0.1,0.4-0.3,0.5-0.5c0.1-0.3,0.1-0.6,0.1-0.9c0-0.2-0.1-0.6,0-0.8
					c-0.1,0-0.2,0.1-0.4,0.1c-0.1,0.6,0.3,1.3,0.4,1.9c0.1,0.2,0.5-0.2,0.4-0.3c-0.1-0.5,0-1.2,0.1-1.8c-0.1,0.1-0.2,0.1-0.3,0.2
					c0,0.4,0.3,2.4,1.1,1.7c0.2-0.1,0.2-0.6-0.1-0.3c-0.2,0.1-0.4-0.5-0.5-0.6c-0.1-0.3-0.2-0.6-0.2-1c0-0.3-0.3,0-0.3,0.2
					c-0.1,0.6-0.3,1.4-0.2,2c0.2-0.1,0.3-0.2,0.4-0.3c-0.1-0.3-0.2-0.6-0.3-0.9c-0.1-0.3-0.2-0.6-0.2-0.9c0-0.3-0.3,0-0.4,0.1
					c-0.1,0.3-0.1,0.7-0.1,1c0,0.2,0,0.4-0.1,0.7c0,0,0,0.1,0,0.1c0.1-0.1,0.1-0.1,0-0.1c-0.1-0.1-0.1-0.2-0.2-0.3
					C185.1,205.3,184.7,205.6,184.8,205.8L184.8,205.8z"/>
				<path class="st3" d="M188.3,204.9c0.1,0.2,0.4,0.5,0.7,0.2c0.2-0.2,0.3-0.4,0.3-0.7c0-0.3-0.1-0.6-0.2-0.9
					c-0.1-0.2-0.2-0.5-0.2-0.8c-0.1,0.1-0.2,0.2-0.3,0.3c0.1,0.6,0.7,1.2,1,1.7c0.1,0.2,0.4-0.3,0.3-0.4c-0.3-0.5-0.4-1.2-0.5-1.7
					c-0.1,0.1-0.2,0.2-0.3,0.3c0.1,0.4,0.9,2.2,1.5,1.2c0.1-0.2,0.1-0.6-0.2-0.3c-0.1,0.2-0.6-0.4-0.6-0.4c-0.2-0.2-0.4-0.5-0.5-0.8
					c-0.1-0.3-0.3,0.1-0.3,0.3c0.1,0.6,0.2,1.4,0.4,2c0.1-0.1,0.2-0.3,0.3-0.4c-0.2-0.3-0.4-0.5-0.6-0.7c-0.2-0.2-0.4-0.5-0.5-0.8
					c0-0.3-0.3,0.1-0.3,0.3c0,0.3,0.1,0.7,0.2,1c0.1,0.2,0.1,0.4,0.1,0.6c0,0,0,0.1,0,0.1c0.1-0.1,0.1-0.1-0.1-0.1
					c-0.1,0-0.2-0.2-0.2-0.3C188.5,204.3,188.2,204.8,188.3,204.9L188.3,204.9z"/>
				<path class="st3" d="M187.4,203.4c-0.4,0.2-0.4,0.8-0.4,1.2c0.1,0.3,0.3,1.2,0.9,1c0.6-0.2,0.6-0.9,0.4-1.3
					C188.2,204,187.8,203.2,187.4,203.4c-0.1,0-0.3,0.5-0.1,0.5c0.3-0.1,0.4,0.3,0.6,0.4c0.1,0.1,0.1,0.3,0.2,0.5c0,0.1,0,0.1,0,0.2
					c0,0.1,0,0.2,0,0.1c-0.2,0.2-0.5-0.3-0.6-0.4c-0.1-0.2-0.1-0.3-0.2-0.5c0-0.1,0-0.2,0-0.3c0-0.1,0-0.1,0-0.1
					C187.4,203.8,187.6,203.3,187.4,203.4z"/>
				<g>
					<path class="st3" d="M181.4,205.9c0.9,0.1,1.1-0.8,1.1-1.4c0-0.2-0.1-0.5-0.4-0.5c-0.4,0-0.8,0.4-0.8,0.7
						c-0.1,0.2,0.5,0,0.5-0.1c0-0.1,0.1-0.4,0.2-0.2c0.1,0.1,0.1,0.3,0.1,0.4c0,0.2-0.1,0.8-0.3,0.8
						C181.6,205.5,181.2,205.9,181.4,205.9L181.4,205.9z"/>
					<path class="st3" d="M183.2,205.4c-0.6,0.3-1.4,0.7-2,1.2c-0.3,0.2-0.7,0.6-0.5,1c0.2,0.3,0.5,0.3,0.8,0.3
						c1-0.2,1.6-2.6,0.2-2.3c-0.2,0-0.5,0.4-0.1,0.3c0.7-0.1,0.5,1.6,0,1.7c-0.5,0.1-0.3-0.5-0.2-0.6c0.2-0.2,0.4-0.4,0.7-0.5
						c0.4-0.2,0.8-0.5,1.2-0.7C183.5,205.6,183.5,205.3,183.2,205.4L183.2,205.4z"/>
				</g>
				<path class="st3" d="M180.9,205.5c-0.3,0.1-0.2-0.7-0.2-0.8c0.1-0.3,0.2-0.7,0.3-1c0.1-0.2-0.4-0.1-0.5,0.1
					c-0.1,0.3-0.2,0.6-0.3,0.9c-0.1,0.1-0.1,0.3-0.2,0.4c-0.1,0.2-0.1,0.2-0.2,0c-0.3-0.4,0.3-1.3,0.5-1.6c0.2-0.2-0.3-0.2-0.4,0
					c-0.2,0.3-1.2,1.7-0.4,2c1,0.3,1.3-1.2,1.5-1.8c-0.1,0-0.3,0.1-0.5,0.1c-0.2,0.5-0.4,1.1-0.4,1.6c0,0.5,0.6,0.5,0.9,0.3
					C181.4,205.6,181.2,205.4,180.9,205.5L180.9,205.5z"/>
				<path class="st3" d="M178.6,203c0.1-0.3,0-0.7-0.4-0.7c-0.5,0-0.9,0.4-1.1,0.8c-0.2,0.3-0.4,0.6-0.1,1c0.3,0.4,1,0.4,1.3,0.3
					c0.3-0.1,0.2-0.3-0.1-0.3c-0.2,0-0.5,0-0.7-0.2c-0.2-0.2-0.1-0.4,0-0.6c0.1-0.2,0.2-0.4,0.4-0.6c0,0,0.1-0.1,0.1-0.1
					c0.1-0.1,0.2-0.1,0.1,0c0.1,0.1,0,0.3,0,0.4C178.1,203.2,178.6,203.2,178.6,203L178.6,203z"/>
			</g>
		</g>
		<path class="st15" d="M205.4,199.7c0,0-1.2-0.9-0.2-2.1c0,0,0.2-0.2,0.4,0.1c0,0,0.8-1.1,0.9-0.1c0,0,0.2,0.4-0.2,0.7
			c-0.4,0.4-0.1,0.5,0.1,0.2c0.2-0.2,0.4-0.8,0.7-0.7c0.3,0.1,0.4-0.1,0.4-0.1s0.1,0,0.3,0.1c0.1,0.2,1.5-0.5,1,0.3
			c0,0-0.6,0.4-0.4,0.6c0.2,0.2-0.2,0.8-1,0.8c-0.8,0-0.3,0.4,0.3,0.3c0,0,0.6,0.3,0.6,0.6c0,0-0.6,0.8-0.9,0.4
			c-0.3-0.4-0.4,0.1-0.1,0.3C207.5,201.4,205.8,201.6,205.4,199.7"/>
		<path class="st16" d="M205.4,200.9c0.2,0.2,0.2,0.6,0,0.8c-0.2,0.2-0.6,0.2-0.8,0c-0.2-0.2-0.2-0.6,0-0.8
			C204.8,200.6,205.2,200.6,205.4,200.9"/>
		<path class="st16" d="M206.5,200.8c0.3,0.3,0.2,0.7-0.1,1c-0.3,0.3-0.7,0.2-1-0.1c-0.3-0.3-0.2-0.7,0.1-1
			C205.8,200.5,206.3,200.5,206.5,200.8"/>
		<path class="st14" d="M206.4,202.7c0.3,0.3,0.2,0.7-0.1,1c-0.3,0.3-0.7,0.2-1-0.1c-0.3-0.3-0.2-0.7,0.1-1
			C205.7,202.4,206.2,202.4,206.4,202.7"/>
		<path class="st16" d="M205.8,201.9c0.2,0.2,0.2,0.6,0,0.8c-0.2,0.2-0.6,0.2-0.8,0c-0.2-0.2-0.2-0.6,0-0.8
			C205.2,201.6,205.6,201.6,205.8,201.9"/>
		<path class="st16" d="M204.7,202.9c0.2,0.2,0.2,0.5,0,0.7c-0.2,0.2-0.5,0.2-0.7,0c-0.2-0.2-0.2-0.5,0-0.7
			C204.1,202.7,204.5,202.7,204.7,202.9"/>
		<path class="st16" d="M202.9,202.6c0.2,0.3,0.2,0.7,0,0.9c-0.3,0.2-0.7,0.2-0.9,0c-0.2-0.3-0.2-0.7,0-0.9
			C202.3,202.3,202.7,202.3,202.9,202.6"/>
		<path class="st16" d="M202.4,203.7c0.2,0.3,0.2,0.7,0,0.9c-0.3,0.2-0.7,0.2-0.9,0c-0.2-0.3-0.2-0.7,0-0.9
			C201.8,203.4,202.2,203.4,202.4,203.7"/>
		<path class="st14" d="M201.9,202.6c0.2,0.3,0.2,0.7,0,0.9c-0.3,0.2-0.7,0.2-0.9,0c-0.2-0.3-0.2-0.7,0-0.9
			C201.3,202.3,201.6,202.4,201.9,202.6"/>
		<path class="st14" d="M201.4,203.9c0.2,0.3,0.2,0.7,0,0.9c-0.3,0.2-0.7,0.2-0.9,0c-0.2-0.3-0.2-0.7,0-0.9
			C200.8,203.7,201.2,203.7,201.4,203.9"/>
		<path class="st16" d="M200.7,205.7c0.2,0.2,0.2,0.5,0,0.7c-0.2,0.2-0.5,0.2-0.7,0c-0.2-0.2-0.2-0.5,0-0.7
			C200.2,205.5,200.5,205.5,200.7,205.7"/>
		<path class="st16" d="M199.9,208.3c0.2,0.3,0.2,0.7-0.2,1c-0.3,0.3-0.8,0.3-1,0c-0.2-0.3-0.2-0.7,0.2-1
			C199.2,208,199.7,208,199.9,208.3"/>
		<path class="st14" d="M201,207.6c0.1,0.3-0.1,0.7-0.5,0.8c-0.4,0.1-0.8,0-0.9-0.4c-0.1-0.3,0.1-0.7,0.5-0.8
			C200.5,207.1,200.9,207.3,201,207.6"/>
		<path class="st16" d="M202.1,207c0.1,0.3-0.1,0.7-0.4,0.8c-0.3,0.1-0.7-0.1-0.8-0.4c-0.1-0.3,0.1-0.7,0.4-0.8
			C201.6,206.5,202,206.7,202.1,207"/>
		<path class="st16" d="M201.7,206.5c0.1,0.4-0.1,0.8-0.5,0.9c-0.4,0.1-0.9,0-1-0.4c-0.1-0.4,0.1-0.8,0.5-0.9
			C201.1,206,201.6,206.2,201.7,206.5"/>
		<path class="st16" d="M202.8,205.8c0.1,0.3-0.1,0.6-0.4,0.7c-0.3,0.1-0.7,0-0.8-0.3c-0.1-0.3,0.1-0.6,0.4-0.7
			C202.4,205.4,202.7,205.6,202.8,205.8"/>
		<path class="st16" d="M202.7,204.8c0.1,0.3-0.1,0.6-0.4,0.7c-0.3,0.1-0.7,0-0.8-0.3c-0.1-0.3,0.1-0.6,0.4-0.7
			C202.2,204.4,202.6,204.5,202.7,204.8"/>
		<path class="st16" d="M201.6,205.4c0.1,0.3-0.1,0.7-0.4,0.8c-0.3,0.1-0.7-0.1-0.8-0.4c-0.1-0.3,0.1-0.7,0.4-0.8
			C201.2,204.8,201.5,205,201.6,205.4"/>
		<path class="st14" d="M203.1,206.2c0.1,0.3-0.1,0.7-0.4,0.8c-0.3,0.1-0.7-0.1-0.8-0.4c-0.1-0.3,0.1-0.7,0.4-0.8
			C202.7,205.7,203,205.9,203.1,206.2"/>
		<path class="st16" d="M202.8,201.6c0.2,0.3,0.2,0.7-0.1,0.9c-0.3,0.2-0.7,0.2-0.9,0c-0.2-0.3-0.2-0.7,0.1-0.9
			C202.1,201.3,202.5,201.3,202.8,201.6"/>
		<path class="st16" d="M203.3,200.7c0.2,0.2,0.2,0.6-0.1,0.9c-0.3,0.2-0.7,0.2-0.9,0c-0.2-0.2-0.2-0.6,0.1-0.9
			C202.7,200.4,203,200.4,203.3,200.7"/>
		<path class="st14" d="M203.7,203.6c0.2,0.3,0.2,0.7-0.1,0.9c-0.3,0.2-0.7,0.2-0.9,0c-0.2-0.3-0.2-0.7,0.1-0.9
			C203.1,203.4,203.5,203.4,203.7,203.6"/>
		<path class="st14" d="M203.9,202.7c0.2,0.3,0.2,0.7-0.1,0.9c-0.3,0.2-0.7,0.2-0.9,0c-0.2-0.3-0.2-0.7,0.1-0.9
			C203.3,202.4,203.7,202.4,203.9,202.7"/>
		<path class="st14" d="M205.6,203c0.2,0.3,0.2,0.7-0.1,0.9c-0.3,0.2-0.7,0.2-0.9,0c-0.2-0.3-0.2-0.7,0.1-0.9
			C205,202.7,205.4,202.8,205.6,203"/>
		<path class="st16" d="M205.9,203.5c0.2,0.3,0.2,0.7-0.1,0.9c-0.3,0.2-0.7,0.2-0.9,0c-0.2-0.3-0.2-0.7,0.1-0.9
			C205.3,203.3,205.7,203.3,205.9,203.5"/>
		<path class="st16" d="M204.5,203.9c0.2,0.3,0.2,0.7-0.1,0.9c-0.3,0.2-0.7,0.2-0.9,0c-0.2-0.3-0.2-0.7,0.1-0.9
			C203.9,203.6,204.3,203.7,204.5,203.9"/>
		<path class="st14" d="M205.1,204.3c0.2,0.3,0.2,0.7-0.1,0.9c-0.3,0.2-0.7,0.2-0.9,0c-0.2-0.3-0.2-0.7,0.1-0.9
			C204.5,204,204.9,204,205.1,204.3"/>
		<path class="st14" d="M204.1,205.1c0.2,0.3,0.2,0.7-0.1,0.9c-0.3,0.3-0.7,0.3-0.9,0c-0.2-0.3-0.2-0.7,0.1-0.9
			C203.4,204.8,203.9,204.8,204.1,205.1"/>
		<path class="st16" d="M203.5,204.7c0.2,0.3,0.2,0.7-0.1,0.9c-0.3,0.3-0.7,0.3-0.9,0c-0.2-0.3-0.2-0.7,0.1-0.9
			C202.9,204.5,203.3,204.5,203.5,204.7"/>
		<path class="st16" d="M204.8,201.2c0.2,0.2,0.2,0.6-0.1,0.9c-0.3,0.2-0.7,0.2-0.9,0c-0.2-0.2-0.2-0.6,0.1-0.9
			C204.2,201,204.6,201,204.8,201.2"/>
		<path class="st14" d="M204,201.4c0.2,0.3,0.2,0.7-0.1,0.9c-0.3,0.3-0.7,0.3-0.9,0c-0.2-0.2-0.2-0.7,0.1-0.9
			C203.4,201.2,203.8,201.2,204,201.4"/>
		<path class="st11" d="M203.3,200.9l0.8-0.7l0.1-1.2l-0.2-0.2c0,0,0.7-0.3,0.4,0.5c0,0-0.3,0.8,0.1,0.8c0.4,0,1.1-0.5,1.1-0.5l0,0
			l0,0c0,0-0.6,0.6-1.2,0.6c0,0,0.2,0.3,0.6,0.4c0.4,0.1,0.4,0.2,0.4,0.2l-0.1,0.1c0,0-0.3-0.3-0.6-0.2c-0.3,0-0.6-0.4-0.6-0.4
			l-0.1,0.8l-0.1,0.1l0-0.7L203.3,200.9L203.3,200.9z"/>
		<path class="st17" d="M198.7,208.9c0,0,0.4-0.6,0.8-0.5C199.5,208.4,199.1,208.2,198.7,208.9"/>
		<path class="st17" d="M202.2,206.7c0,0,0.7,0.1,0.8-0.6C202.9,206.1,202.9,206.9,202.2,206.7"/>
		<path class="st17" d="M201.1,203.5c0,0-0.3-0.8,0.4-0.9C201.5,202.5,200.7,202.6,201.1,203.5"/>
		<path class="st17" d="M200.7,205.9c0,0-0.3-0.6,0.4-0.9C201.1,205,200.3,205.1,200.7,205.9"/>
		<path class="st17" d="M200.3,206.9c0,0,0.5-0.8,1.3-0.4C201.6,206.5,200.7,205.9,200.3,206.9"/>
		<path class="st17" d="M205.5,201.8c0,0-0.6-0.1-0.5,0.7C205,202.4,204.7,201.7,205.5,201.8"/>
		<path class="st17" d="M205.4,203.4c0,0,0.9,0.4,0.1,1.1C205.5,204.5,206.5,203.9,205.4,203.4"/>
		<path class="st17" d="M203.5,202.6c0,0-0.8,0.1-0.3,1C203.2,203.6,202.8,202.9,203.5,202.6"/>
		<path class="st17" d="M199.8,208.2c0,0-0.2-0.4,0.2-0.7C200,207.5,199.4,207.7,199.8,208.2"/>
		<path class="st11" d="M204.1,199.3c-0.2,0.5-0.8,0.8-1.3,0.5c-0.3-0.2-0.4-0.6-0.3-0.9c0.2-0.6,1-0.4,1,0.1c0,0.4-0.5,0.5-0.6,0.1
			c0-0.2,0.1-0.3,0.4-0.2c0.1,0.1-0.2,0.2-0.2,0.1c0,0-0.1,0-0.1,0c0,0.3,0.3,0.2,0.4,0c0.1-0.1-0.1-0.3-0.2-0.3
			c-0.1,0-0.2,0-0.2,0.1c-0.3,0.2,0,0.6,0.3,0.6c0.4,0,0.5-0.4,0.4-0.7c-0.1-0.3-0.5-0.3-0.8-0.2c-0.4,0.2-0.5,0.6-0.4,1
			C202.8,200.4,204,200,204.1,199.3C204.2,199.3,204.1,199.3,204.1,199.3z"/>
		<g>
			<path class="st12" d="M164.3,186.5c-0.1,0-0.2-0.1-0.2-0.2c-0.3-0.1-0.6,0.1-0.9,0.1c-0.8,0-1,0-2-0.3c0-0.8,0.5-1.3,0.7-1.9
				c0.2-0.5-0.1-1.2-0.1-1.8c0-0.4,0-0.7,0-1.1c-0.3,0.2-0.1,1-0.2,1.3c-0.1-0.5-0.1-1.1-0.3-1.5c-0.1,0.5,0,1.1,0,1.5
				c-0.1-0.4-0.2-0.9-0.3-1.3c-0.2,0.4,0.1,1.1,0.1,1.5c-0.2-0.4-0.2-0.8-0.4-1.2c-0.1,0.5,0.2,0.9,0.1,1.3
				c-0.2-0.3-0.2-0.7-0.5-0.9c0,0.3,0.2,0.7,0.3,1c-0.2-0.1-0.3-0.4-0.5-0.5c0,0.3,0.2,0.4,0.3,0.6c-0.2-0.1-0.2-0.3-0.4-0.3
				c0,0.2,0.2,0.3,0.3,0.5c-0.1-0.1-0.2-0.2-0.3-0.2c0,0.2,0.3,0.3,0.2,0.4c0,0-0.2-0.1-0.2,0c0,0,0.2,0.1,0.1,0.1
				c-0.1,0-0.1,0-0.1,0c0,0.1,0.1,0.1,0.1,0.2c0,0-0.1,0-0.1,0c0,0.1,0.1,0.1,0.1,0.2c-0.7,0.7-0.3,1.4-0.4,2.2c0-0.1-0.5-0.2-1-0.4
				c-0.2-0.1-0.3-0.4-0.5-0.5c0,0,0.1,0,0.1-0.1c-0.1,0-0.2-0.1-0.2-0.1c0.1,0,0.2,0,0.3,0c-0.1-0.1-0.4-0.1-0.4-0.3
				c0.2,0,0.3,0.1,0.4,0.1c-0.2-0.1-0.5-0.2-0.5-0.4c0.2,0.1,0.4,0.2,0.6,0.1c-0.3-0.1-0.7-0.4-0.7-0.6c0.2,0.1,0.5,0.3,0.7,0.3
				c-0.3-0.1-0.6-0.5-0.9-0.5c0.1,0.3,0.6,0.5,0.7,0.7c-0.2-0.2-0.5-0.3-0.8-0.4c0.1,0.3,0.5,0.4,0.7,0.6c-0.2,0-0.4-0.1-0.6-0.1
				c0.1,0.3,0.5,0.2,0.6,0.4c-0.1-0.1-0.3,0-0.4,0c0,0.2,0.3,0.1,0.4,0.2c-0.1,0-0.3,0-0.3,0.1c0.1,0.1,0.3,0,0.3,0.1
				c-0.1,0-0.2,0-0.2,0.1c0,0.1,0.2,0,0.2,0.1c0,0-0.1,0-0.1,0.1c0.1,0,0.1,0,0.1,0c0,0-0.1,0-0.1,0.1c0.4,0.2,0.5,0.8,1,0.9
				c-0.3,0.2,0.3,0.4-2.8,1.4c0.1,0,1.4-0.3,1.7-0.4c0.4-0.1,0.8-0.2,1.1-0.4c0.1,0,0.2-0.1,0.3-0.1c0.6-0.1,1.2,0.1,1.8-0.4
				c-0.5,0.1-1.3,0.2-1.6-0.1c0.4-0.7,0.1-2.3,0.5-2.7c0.3-0.3,0.9-1.4,1.5-0.5c0.1,0.1,0.1,0.4-0.1,0.7c-0.3,0.5-0.5,0.7-0.4,1.7
				c0,0.2,0,0.4-0.3,0.4c1.3,0.3,1.7,0.1,2.5,0c0.3,0,0.6-0.2,0.7,0c0,0.1-0.3,0.1-0.5,0.1c-0.4,0,0.2,0.1,0.3,0.1
				c0.1,0,0.8-0.1,1.2-0.2C164.7,186.5,164.5,186.5,164.3,186.5z"/>
			<path class="st12" d="M160.4,179.6c-3.1,0-5.6,2.5-5.6,5.6c0,3.1,2.5,5.6,5.6,5.6c3.1,0,5.6-2.5,5.6-5.6
				C165.9,182.1,163.4,179.6,160.4,179.6 M160.4,179.8c3,0,5.4,2.4,5.4,5.4c0,3-2.4,5.4-5.4,5.4c-3,0-5.4-2.4-5.4-5.4
				C155,182.2,157.4,179.8,160.4,179.8"/>
		</g>
	</g>
	<g>
		<circle class="st18" cx="263.2" cy="92.9" r="16.1"/>
		<g>
			<circle class="st7" cx="250.3" cy="107.3" r="5.1"/>
			<g>
				<path class="st3" d="M252.6,105.8c-0.6,1-1.4,2-2.1,2.9c-0.3,0.4,0.2,0.4,0.4,0.1c0.8-1,1.6-2,2.2-3.1
					C253.4,105.4,252.8,105.6,252.6,105.8L252.6,105.8z"/>
				<path class="st3" d="M251.5,105.6c-0.4,0-0.7,0.4-0.7,0.7c-0.1,0.3,0.1,0.6,0.5,0.6C252,106.9,252.3,105.6,251.5,105.6
					c-0.2,0-0.5,0.4-0.2,0.4c0.2,0,0.3,0.2,0.3,0.3c0,0.1,0,0.1,0,0.2c0,0.1,0,0,0,0c0,0-0.1,0-0.1,0c-0.2,0-0.3-0.2-0.3-0.3
					c0-0.1,0-0.1,0-0.2c0,0,0,0,0,0c0,0,0.1,0,0.1,0C251.4,106,251.7,105.6,251.5,105.6z"/>
				<path class="st3" d="M252.6,107.7c-0.4,0-0.7,0.4-0.7,0.7c-0.1,0.3,0.1,0.6,0.5,0.6C253,109.1,253.4,107.8,252.6,107.7
					c-0.2,0-0.5,0.4-0.2,0.4c0.2,0,0.3,0.2,0.3,0.3c0,0.1,0,0.1,0,0.2c0,0.1,0,0,0,0c0,0-0.1,0-0.1,0c-0.2,0-0.3-0.2-0.3-0.3
					c0-0.1,0-0.1,0-0.2c0,0,0,0,0,0c0,0,0.1,0,0.1,0C252.5,108.1,252.8,107.7,252.6,107.7z"/>
			</g>
			<path class="st3" d="M248.6,107c-0.2-0.1-0.8-0.7-0.4-1c0.2-0.1,0.4-0.1,0.6,0c0.5,0.1,0.1,0.5-0.1,0.7c-0.1,0.1-0.9,0.7-0.6,0.9
				c0.4,0.3,1.1,0,1.1,0.6c0,0.4-0.7,0.5-1,0.3c-0.4-0.3-0.4-0.7,0.1-1c0.2-0.1,0.4-0.7,0-0.5c-0.5,0.3-1,0.7-1,1.3
				c0,0.4,0.4,0.8,0.8,0.9c0.6,0.1,1.2-0.3,1.5-0.8c0.3-0.4,0.3-1-0.3-1.2c-0.2,0-0.6-0.2-0.7,0c0.2-0.3,0.5-0.4,0.7-0.7
				c0.4-0.5,0.2-1.1-0.4-1.2c-0.6-0.1-1.1,0.3-1.3,0.8c-0.3,0.6,0,1.1,0.5,1.4C248.4,107.7,248.9,107.1,248.6,107L248.6,107z"/>
		</g>
		<path class="st19" d="M255.6,73.2c0,1.1-0.9,2.1-2.1,2.1c-1.1,0-2.1-0.9-2.1-2.1c0-1.1,0.9-2.1,2.1-2.1
			C254.7,71.1,255.6,72,255.6,73.2L255.6,73.2z"/>
		<path class="st6" d="M255.7,80.1c0,1.5-1.2,2.6-2.6,2.6c-1.5,0-2.7-1.2-2.7-2.6c0-1.5,1.2-2.7,2.7-2.7
			C254.5,77.5,255.7,78.7,255.7,80.1L255.7,80.1z"/>
		<path class="st6" d="M248.6,76c0,0.9-0.7,1.6-1.6,1.6c-0.9,0-1.6-0.7-1.6-1.6c0-0.9,0.7-1.6,1.6-1.6
			C247.9,74.5,248.6,75.2,248.6,76L248.6,76z"/>
		<g>
			<circle class="st7" cx="277" cy="78.2" r="8.9"/>
			<g>
				<path class="st3" d="M274.8,76.9c-0.7,0.1-0.9,1-1,1.6l0,0l0,0c0,0.1,0,0.2,0,0.3c0,0.3,0,0.5,0,0.8c0,0.1-0.1,0.3-0.1,0.3
					c-0.3,0-0.5-0.4-0.5-0.6c-0.2-0.5-0.3-0.9-0.4-1.4c-0.1-0.5-0.1-1-0.2-1.6c0-0.2,0-0.4,0-0.7c0-0.1,0-0.2,0-0.3
					c0-0.1,0-0.1,0-0.1c0.1-0.4-0.5,0-0.6,0.2c-0.6,1-0.4,2.3-0.4,3.4c0,0.3,0,0.6-0.1,0.9c0,0.2-0.1,0.6-0.2,0.7
					c-0.1,0.1-0.3,0-0.4,0c-0.1-0.1-0.2-0.2-0.3-0.4c0-0.2-0.2-0.1-0.3,0c-0.1,0.1-0.3,0.4-0.2,0.5c0.1,0.4,0.4,0.8,0.8,0.6
					c0.7-0.2,0.9-1,1.1-1.6c0.1-0.3,0.1-0.6,0.1-0.9c0.1,0.4,0.2,0.9,0.4,1.3c0.1,0.3,0.4,0.6,0.8,0.5c0.3-0.1,0.5-0.4,0.6-0.7
					c0.1,0.3,0.3,0.5,0.7,0.5c0.4,0,0.7-0.4,0.8-0.7c0.2-0.4,0.2-0.8,0.2-1.1C275.7,78,275.6,76.9,274.8,76.9z M275.1,79.5
					c0,0.1,0,0.1-0.1,0.2c-0.1,0-0.2-0.2-0.3-0.3c-0.1-0.2-0.2-0.5-0.2-0.8c0-0.3,0-0.6,0-0.8c0-0.1,0-0.1,0.1-0.2
					c0.4,0.2,0.4,0.7,0.5,1.1C275.1,78.9,275.1,79.2,275.1,79.5z"/>
				<path class="st3" d="M283.7,78c-0.8-0.3-1.2,0.8-1.4,1.4c-0.1,0.6-0.3,1.5,0.4,1.8c0.3,0.1,0.7-0.1,0.9-0.3
					c0.2-0.3,0.4-0.6,0.5-1C284.2,79.3,284.4,78.3,283.7,78z M283.2,80.5c0,0.1-0.1,0.1-0.1,0.2c-0.1-0.1-0.2-0.3-0.2-0.4
					c0-0.3,0-0.6,0-0.8c0.1-0.3,0.1-0.5,0.3-0.8c0-0.1,0.1-0.1,0.1-0.2c0.3,0.4,0.2,0.8,0.1,1.3C283.4,80,283.3,80.3,283.2,80.5z"/>
				<path class="st3" d="M281.5,78.1c0.1-0.2,0.3-0.4,0.4-0.6c0.3-0.4,0.6-1,0.6-1.5c0-0.5-0.7-0.5-1.1-0.4c-0.5,0.2-0.8,0.8-1,1.3
					c-0.2,0.7-0.3,1.4-0.3,2.1c0,0,0,0,0,0c-0.2,0.3-0.8,0.9-1.2,0.7c-0.1-0.1-0.2-0.2-0.2-0.3c0.3-0.3,0.6-0.7,0.9-1.1
					c0.2-0.4,0.4-1-0.1-1.2c-0.4-0.2-0.9,0-1.1,0.3c-0.3,0.3-0.4,0.7-0.4,1.1c0,0.2,0,0.6,0,0.9c-0.2,0.1-0.5,0.2-0.8,0.2
					c-0.3-0.1-0.4-0.4-0.5-0.6c-0.1-0.4-0.1-0.8,0-1.1c0-0.1,0-0.2,0.1-0.3c0,0,0-0.1,0-0.1c0.2,0.1,0.3,0.4,0.3,0.5
					c0.1,0.3,0.8-0.2,0.7-0.4c-0.1-0.3-0.2-0.5-0.5-0.7c-0.3-0.1-0.7,0.1-0.8,0.3c-0.5,0.5-0.5,1.2-0.5,1.8c0,0.4,0.1,0.9,0.5,1.1
					c0.5,0.3,1.1,0,1.6-0.3c0.1,0.3,0.3,0.5,0.7,0.5c0.5-0.1,0.9-0.3,1.3-0.7c0,0.4,0.1,0.8,0.4,0.9c0.4,0.2,0.9,0,1.2-0.4
					c0.4-0.5,0.6-1.1,0.4-1.7C282,78.2,281.7,78.1,281.5,78.1z M278.8,77.8c0-0.1,0.1-0.2,0.1-0.3c0,0,0,0,0,0
					c0.2,0,0.2,0.3,0.2,0.4c0,0.3-0.2,0.6-0.5,0.9c0-0.1,0-0.1,0-0.2C278.7,78.4,278.7,78.1,278.8,77.8z M281.4,76.3
					c0.1-0.1,0.1-0.2,0.2-0.3c0,0,0,0,0,0c0.3,0.3,0,0.8-0.2,1.2c-0.2,0.3-0.4,0.6-0.6,0.9c0-0.3,0.1-0.6,0.2-0.9
					C281.1,76.9,281.2,76.6,281.4,76.3z M281.2,80c0,0-0.1,0.1-0.1,0.1c0,0,0,0-0.1,0c-0.2-0.1-0.2-0.5-0.2-0.7c0-0.2,0-0.3,0-0.5
					c0.1-0.1,0.2-0.2,0.3-0.3c0.2-0.1,0.3,0.1,0.3,0.3C281.5,79.3,281.4,79.7,281.2,80z"/>
			</g>
		</g>
		<g>
			<g>
				<g>
					<path class="st3" d="M263,88.3C263,88.3,263,88.3,263,88.3c-0.1,0-0.1,0-0.1,0c-0.9,0.1-1.1,1.3-1.1,2c0,0.6,0.1,1.8,0.9,1.8
						c0.4,0,0.7-0.4,0.9-0.7c0.2-0.4,0.3-0.8,0.3-1.2C263.9,89.6,263.8,88.4,263,88.3z M263.1,91.1c0,0.1,0,0.1-0.1,0.2
						c0,0,0,0.1,0,0.1c0,0,0,0,0,0c-0.5,0-0.6-1-0.6-1.3c0-0.3,0-0.6,0.1-0.9c0-0.1,0.1-0.2,0.1-0.3c0.5,0,0.6,1,0.6,1.3
						C263.2,90.5,263.2,90.8,263.1,91.1z"/>
					<path class="st3" d="M260.8,88.5c-0.3-0.1-0.6,0-0.9,0.2c0-0.2-0.1-0.4-0.2-0.7c-0.1-0.2-0.4,0-0.5,0.1
						c-0.1,0.1-0.2,0.2-0.2,0.3c0,0,0,0,0,0.1c0,0.2-0.1,0.3-0.1,0.4c0,0,0,0-0.1,0.1c-0.2,0.1-0.5,0-0.6-0.1c0,0,0,0,0,0
						c-0.1,0-0.2-0.1-0.4-0.1c0,0,0,0-0.1,0c0,0,0,0,0,0c-1,0.2-1,1.5-0.9,2.1c0.1,0.6,0.4,1.8,1.2,1.6c0.4-0.1,0.7-0.5,0.9-0.9
						c0.2-0.4,0.2-0.8,0.1-1.3c0-0.2-0.1-0.6-0.2-0.9c0.1-0.1,0.3-0.2,0.4-0.3c0.2,0.9,0.3,1.8,0.4,2.7c0.1,0.8,0.2,1.7,0.2,2.5
						c0,0.2,0.2,0.1,0.3,0.1c0.1-0.1,0.3-0.3,0.3-0.5c0-0.6,0-1.2-0.1-1.7c0.2,0,0.5-0.2,0.7-0.4c0.4-0.5,0.5-1.3,0.4-1.9
						C261.4,89.5,261.3,88.7,260.8,88.5z M258.4,91.6c0,0.1,0,0.1,0,0.2c0,0,0,0.1,0,0.1c0,0,0,0,0,0c-0.5,0.1-0.7-0.9-0.8-1.1
						c-0.1-0.3-0.1-0.6-0.1-0.9c0-0.1,0-0.2,0.1-0.3c0,0,0.1,0,0.1,0c0,0,0,0,0,0c0,0,0.1,0,0.1,0c0.3,0.2,0.5,0.8,0.5,1.1
						C258.4,91,258.4,91.3,258.4,91.6z M260.1,89.1C260.1,89.1,260.1,89.1,260.1,89.1L260.1,89.1z M260.8,91.5
						C260.8,91.5,260.8,91.5,260.8,91.5L260.8,91.5z M260.8,91.5C260.8,91.5,260.8,91.5,260.8,91.5
						C260.8,91.5,260.8,91.5,260.8,91.5c-0.3,0.1-0.5-0.1-0.5-0.3c0,0,0,0,0-0.1c0-0.5-0.1-1-0.2-1.5c0,0,0,0,0,0c0-0.2,0-0.3,0-0.5
						c0,0,0,0,0,0c0,0,0,0,0,0c0.1,0,0.2,0,0.3,0.1c0.3,0.3,0.4,0.7,0.4,1C260.9,90.7,260.9,91.1,260.8,91.5z"/>
					<path class="st3" d="M255.5,90.1c0.1-0.3,0.1-0.7,0.2-1c0.1-0.5,0.2-1.3-0.2-1.7c-0.3-0.5-0.9,0-1.2,0.3
						c-0.4,0.6-0.3,1.3-0.3,1.9c0.1,0.7,0.3,1.4,0.5,2.1c-0.1,0.3-0.1,0.7-0.3,1c0,0,0,0.1,0,0.1c0,0-0.1-0.1-0.1-0.1
						c-0.1-0.1-0.1-0.3-0.2-0.4c-0.4-1-0.6-2.2-1.1-3.1c-0.2-0.3-0.5-0.8-1-0.6c-0.4,0.2-0.5,0.5-0.6,0.9c-0.2-0.3-0.6-0.5-1-0.2
						c-0.2,0.1-0.3,0.3-0.4,0.5c-0.1-0.2-0.1-0.3-0.3-0.4c-0.3-0.2-0.8,0.6-0.6,0.8c0.2,0.1,0.2,0.3,0.3,0.5
						c0.2,0.4,0.3,0.7,0.5,1.1c0.1,0.2,0.2,0.4,0.2,0.6c0.3,0.8,0.6,1.6,0.9,2.4c0,0.1,0.1,0.1,0.1,0.1c0.2,0,0.5-0.5,0.4-0.7
						c-0.3-0.7-0.5-1.4-0.8-2.1c-0.1-0.3-0.2-0.6-0.3-0.9c-0.1-0.3-0.2-0.7-0.2-1c0,0,0-0.1,0-0.1c0.5-0.2,0.9,0.9,1,1.1
						c0.2,0.4,0.3,0.8,0.5,1.2c0.2,0.6,0.4,1.2,0.6,1.8c0,0.1,0.1,0.1,0.1,0.1c0.2,0,0.5-0.5,0.4-0.7c-0.2-0.6-0.4-1.3-0.6-1.9
						c0-0.2-0.1-0.3-0.1-0.5c-0.1-0.5-0.3-1.1-0.3-1.7c0,0,0,0,0,0c0.1,0,0.3,0.1,0.3,0.2c0.4,0.5,0.6,1.2,0.9,1.9
						c0.1,0.4,0.3,0.9,0.4,1.3c0.1,0.3,0.2,0.6,0.4,0.8c0.2,0.3,0.5,0,0.7-0.2c0.2-0.2,0.3-0.5,0.4-0.8c0.2,0.4,0.4,0.7,0.8,0.7
						c0.6-0.1,0.8-0.7,0.9-1.2c0.1-0.5,0-1.5-0.6-1.8C255.9,90,255.7,90,255.5,90.1z M254.7,89.5c-0.1-0.5-0.1-1,0-1.5c0,0,0,0,0,0
						c0.2,0,0.2,0.2,0.2,0.4c0.1,0.5,0.1,1,0,1.5c0,0.2-0.1,0.4-0.1,0.6C254.8,90.1,254.8,89.8,254.7,89.5z M256,91.6
						c0,0.2,0.1,0.5,0,0.7c0,0,0,0,0,0c0,0-0.1,0-0.1,0c-0.1,0-0.3-0.2-0.3-0.3c-0.2-0.2-0.3-0.5-0.4-0.7c0-0.1,0.1-0.3,0.1-0.4
						c0.1-0.1,0.2-0.1,0.3,0C255.9,91,255.9,91.4,256,91.6z"/>
					<path class="st3" d="M275.7,93.7c-0.1-0.1-0.3-0.1-0.4-0.1c0,0,0,0,0,0c0,0-0.1-0.1-0.1-0.1c-0.1-0.1,0-0.3,0-0.4
						c0-0.3,0.1-0.7,0.3-1c0,0,0,0,0,0c0.1-0.3,0.2-0.5,0.3-0.8c0,0,0,0,0,0c0,0,0,0,0,0c0.1-0.2,0.2-0.3,0.3-0.5
						c0.1-0.2-0.2-0.2-0.3-0.2c0,0,0,0-0.1,0c-0.2-0.2-0.4-0.2-0.7-0.2c-0.8,0.1-1.3,0.8-1.4,1.5c-0.1,0.4,0.2,0.8,0.6,0.9
						c0.1,0,0.1,0,0.2,0c-0.1,0.2-0.2,0.3-0.3,0.4c-0.1,0.1-0.3-0.2-0.3-0.4c0-0.1-0.1-0.1-0.2-0.1c0,0,0,0,0,0
						c-0.2,0-0.3,0.1-0.4,0.2c0,0,0,0,0-0.1c-0.1-0.2,0-0.4,0-0.6c0.1-0.6,0.3-1.3,0.5-1.9c0,0,0,0,0,0c0.1-0.4-0.2-0.7-0.6-0.7
						c-0.4,0-0.8,0.2-1.1,0.5c-0.4,0.4-0.6,1-0.7,1.5h0c-0.1,0.1-0.1,0.4-0.3,0.6c0,0,0,0,0,0c0,0-0.1,0-0.1,0c-0.1-0.1,0-0.5,0-0.7
						c0-0.6,0.2-1.2,0.4-1.8c0.1-0.1,0.1-0.3,0.2-0.4c0.1-0.1,0-0.3-0.2-0.3c-0.2,0-0.4,0.1-0.5,0.3c-0.1,0.1-0.2,0.3-0.2,0.4
						c-0.1,0.2-0.2,0.4-0.4,0.5c-0.1,0.1-0.2,0.2-0.4,0.3c0,0,0,0,0,0c0.1-0.6,0.1-1.2,0.2-1.8c0-0.1,0-0.1-0.1-0.2c0,0,0,0,0,0l0,0
						c0,0,0,0,0,0c0,0,0,0,0,0h0c-0.1,0-0.1,0-0.2,0c-0.1,0-0.3,0.1-0.4,0.3c0,0-0.1,0.1-0.1,0.1c-0.2,0.8-0.5,1.7-1,2.4
						c0,0-0.1,0.1-0.1,0.1c0,0,0,0,0,0c0,0,0,0,0,0c0,0,0,0,0,0c-0.2-0.1-0.2-0.3-0.3-0.4c-0.2-0.5-0.1-1,0-1.5
						c0-0.1,0.1-0.2,0.1-0.3c0-0.1,0.1-0.1,0.1-0.2c0,0,0,0,0,0c0,0,0,0,0,0c0.1,0.1,0.2,0.2,0.2,0.3c0.1,0.2,0.9-0.2,0.8-0.5
						c-0.2-0.4-0.7-0.5-1.1-0.3c-0.3,0.2-0.5,0.4-0.6,0.6c0,0,0,0,0,0.1c0,0,0,0,0,0c0,0,0,0.1-0.1,0.1c0,0,0,0,0,0
						c-0.1,0.1-0.1,0.3-0.2,0.4c0.1-0.5,0.1-1,0.2-1.5c0-0.4-0.7,0-0.7,0.2c-0.1,0.2-0.2,0.4-0.3,0.6c0-0.2-0.1-0.4-0.2-0.6
						c-0.3-0.5-0.8-0.5-1.2-0.1c-0.1,0.1-0.3,0.3-0.2,0.4c0.1,0.1,0.3,0,0.4-0.1c0,0,0,0,0,0c0,0,0.1,0.1,0.1,0.1
						c0.1,0.1,0.1,0.2,0.2,0.3c0.1,0.3,0.1,0.6,0.1,1c0,0.3,0,0.6-0.1,0.9c0,0,0,0,0,0.1c0,0,0,0.1,0,0.1c-0.1,0-0.2-0.2-0.2-0.2
						c-0.1-0.2-0.8,0.3-0.6,0.6c0.4,0.6,1,0.2,1.3-0.2c0.1-0.2,0.2-0.4,0.3-0.6c0.1-0.2,0.1-0.3,0.2-0.5c0,0.5-0.1,1-0.2,1.5
						c0,0.2,0.2,0.2,0.3,0.1c0.2-0.1,0.3-0.2,0.4-0.4c0-0.2,0.1-0.4,0.2-0.6c0,0.2,0,0.4,0.1,0.6c0.1,0.2,0.2,0.5,0.5,0.6
						c0.4,0.1,0.8-0.2,1-0.4c0.2-0.2,0.4-0.4,0.6-0.6c0,0.3-0.1,0.7-0.2,1c0,0.2,0.2,0.2,0.3,0.1c0.2-0.1,0.4-0.2,0.4-0.4
						c0.1-0.3,0.2-0.6,0.4-0.9c0.1-0.1,0.2-0.2,0.4-0.3c0,0,0,0,0,0c-0.1,0.5-0.2,0.9-0.1,1.4c0,0.4,0.3,0.5,0.7,0.4
						c0.2,0,0.3-0.1,0.5-0.2c0,0.2,0.1,0.3,0.2,0.4c0.3,0.2,0.7,0.1,1-0.1c0,0,0.1,0,0.1-0.1c0,0.1,0,0.1,0,0.2
						c0.1,0.4,0.4,0.5,0.7,0.4c0.2,0.4,0.8,0.4,1.2,0.2c0.1,0,0.2-0.1,0.2-0.1c0,0.1,0,0.2,0,0.2c0.1,0.5,0.6,0.6,1,0.4
						C275.5,94,275.7,93.9,275.7,93.7z M271.8,92.5c0,0-0.1,0-0.1,0c-0.1-0.1-0.1-0.3-0.1-0.5c0-0.2,0-0.4,0-0.6c0,0,0,0,0,0
						c0,0,0,0,0-0.1c0.1-0.3,0.2-0.5,0.3-0.8c0.1-0.1,0.2-0.3,0.3-0.4c0,0,0,0,0,0c0,0,0.1,0,0.1,0c0.2,0,0.2,0.2,0.2,0.3
						c-0.2,0.6-0.4,1.3-0.7,1.9C271.9,92.4,271.8,92.4,271.8,92.5z M272.9,92.9L272.9,92.9C272.9,92.9,272.9,92.9,272.9,92.9
						C272.9,92.9,272.9,92.9,272.9,92.9z M274.3,91.6c0-0.3,0.2-0.7,0.4-0.8c0,0,0.1,0,0.2,0.1c0.1,0.1,0.1,0.3,0.1,0.4
						c-0.1,0.3-0.2,0.6-0.3,0.9C274.3,92.1,274.3,91.8,274.3,91.6z M275.3,93.7C275.3,93.7,275.3,93.7,275.3,93.7L275.3,93.7z"/>
				</g>
			</g>
			<path class="st3" d="M268.6,98.2C268.6,98.2,268.6,98.1,268.6,98.2c-0.1-0.1-0.1-0.2-0.1-0.2c0-0.2,0-0.4,0-0.6
				c0-0.6,0.1-1.2,0.2-1.7c0,0,0,0,0,0c0-0.4-0.3-0.7-0.7-0.6c-0.4,0-0.7,0.3-1,0.6c-0.3,0.4-0.4,0.8-0.5,1.3
				c-0.1,0.2-0.1,0.4-0.2,0.6c0,0.1-0.1,0.1-0.1,0.2c0,0.1-0.1,0.1-0.1,0.1c0,0-0.1,0-0.1,0c-0.1,0,0,0-0.1,0
				c-0.2,0-0.4-0.1-0.5-0.3c-0.3-0.4-0.2-1-0.2-1.4c0-0.2,0.1-0.5,0.2-0.7c0,0,0.1,0,0.1,0.1c0.1,0.1,0.2,0.3,0.2,0.5
				c0.1,0.3,0.8-0.1,0.7-0.4c-0.1-0.3-0.2-0.8-0.6-0.8c-0.4,0-0.8,0.3-0.9,0.7c-0.2,0.4-0.3,0.8-0.3,1.3c0,0.2-0.1,0.5-0.2,0.7
				c0,0.1-0.1,0.1-0.1,0.2c0,0.1-0.1,0.1-0.1,0.1l-0.1,0c-0.1,0,0,0-0.1,0c-0.2,0-0.4-0.1-0.5-0.2c-0.3-0.3-0.3-1-0.2-1.4
				c0-0.2,0.1-0.5,0.2-0.8c0,0,0.1,0,0.1,0.1c0.1,0.1,0.2,0.3,0.2,0.5c0.1,0.3,0.8-0.2,0.7-0.5c-0.1-0.3-0.3-0.8-0.7-0.8
				c-0.4,0-0.8,0.4-0.9,0.7c-0.2,0.4-0.3,0.9-0.3,1.4c0,0.1,0,0.1,0,0.1c0,0.2-0.1,0.5-0.2,0.8c-0.2-0.1-0.2-0.6-0.2-0.7
				c-0.1-0.6-0.1-1.2,0-1.7c0,0,0,0,0,0c0-0.4-0.4-0.6-0.8-0.5c-0.4,0.1-0.7,0.4-0.9,0.8c-0.2,0.4-0.3,0.9-0.3,1.4
				c0,0.3-0.1,0.5-0.1,0.8c0,0,0,0.1,0,0.1c-0.1,0-0.1-0.1-0.1-0.2c-0.1-0.2-0.2-0.6-0.2-0.8c-0.1-0.5-0.2-1.2,0-1.7
				c0-0.1,0-0.2-0.2-0.2c-0.2,0-0.4,0.2-0.5,0.4c0,0,0,0.1,0,0.1l0,0l0,0c-0.1,0.3-0.2,0.6-0.3,1c-0.1-0.4-0.2-0.9-0.1-1.2
				c0-0.1,0-0.2-0.2-0.2c-0.2,0-0.3,0.2-0.4,0.3c-0.3,0.6-0.3,1.3-0.3,1.9c0,0.3,0,0.6-0.1,0.9c0,0,0,0,0,0
				c-0.2-0.1-0.2-0.4-0.2-0.6c0-0.2-0.3,0-0.4,0.1c-0.1,0.1-0.2,0.3-0.2,0.5c0.1,0.4,0.4,1,0.9,0.6c0.3-0.2,0.5-0.6,0.6-1
				c0.1,0.3,0.1,0.5,0.2,0.8c0.1,0.4,0.6-0.2,0.6-0.4c0-0.2,0-0.3,0-0.5c0.2,0.7,0.5,1.1,1,0.7c0.1-0.1,0.2-0.2,0.3-0.3
				c0.1,0.2,0.2,0.3,0.3,0.4c0.3,0.1,0.7-0.1,0.9-0.4c0,0,0,0,0,0c0,0.1,0.1,0.2,0.1,0.3c0.1,0.1,0.3,0.1,0.4,0.1
				c0.3,0,0.5-0.3,0.6-0.5c0.3,0.5,0.9,0.6,1.4,0.3c0.2-0.1,0.4-0.3,0.5-0.4c0,0,0,0.1,0.1,0.1c0.2,0.5,0.9,0.7,1.4,0.4
				c0.2-0.1,0.3-0.2,0.5-0.3c0,0.2,0.1,0.4,0.3,0.6c0.3,0.2,0.7,0,0.9-0.2c0,0,0,0,0,0c0,0.1,0.1,0.2,0.1,0.3c0.2,0.3,0.6,0.2,0.8,0
				c0.1-0.1,0.3-0.2,0.3-0.4C269,98,268.6,98.2,268.6,98.2z M261.2,97.5c0,0,0,0.1,0,0.2c0,0-0.1,0-0.1,0c-0.1,0-0.2-0.3-0.2-0.4
				c-0.2-0.5-0.1-1,0-1.5c0-0.1,0.1-0.4,0.2-0.5c0,0,0,0,0,0c0,0,0.1,0,0.1,0c0.2,0,0.3,0.1,0.3,0.3
				C261.4,96.2,261.4,96.8,261.2,97.5z M267.5,97.8c0,0,0,0.1-0.1,0.1c0,0-0.1,0-0.1,0c-0.1-0.1-0.2-0.3-0.2-0.4
				c-0.1-0.5,0-1,0.1-1.5c0-0.1,0.2-0.4,0.2-0.4c0,0,0,0,0,0c0,0,0.1,0,0.1,0c0.2,0,0.2,0.2,0.2,0.3
				C267.8,96.5,267.8,97.2,267.5,97.8z"/>
		</g>
		<g>
			<g>
				<path class="st3" d="M259.8,105.1c-0.1,0.5,0.7,0.5,1,0.3c0.3-0.2,0.3-0.4,0.4-0.7c0.1-0.4,0.2-0.8,0.4-1.1
					c-0.1,0-0.3,0.1-0.5,0.1c-0.1,0.4-0.1,0.8-0.1,1.2c0,0.2,0,0.6,0.2,0.8c0.1,0.1,0.4,0.1,0.5,0c0.3-0.1,0.6-0.3,0.7-0.6
					c0.1-0.3-0.4-0.1-0.4,0.1c-0.2,0.5-0.4,0.1-0.4-0.2c-0.1-0.5,0-1,0.1-1.5c0-0.3-0.4,0-0.5,0.1c-0.2,0.2-0.3,0.5-0.4,0.7
					c-0.1,0.2-0.1,0.3-0.2,0.5c0,0.1-0.1,0.2-0.1,0.2c-0.1,0.2-0.2,0-0.2-0.1C260.4,104.8,259.8,105,259.8,105.1L259.8,105.1z"/>
				<g>
					<path class="st3" d="M263.4,103.5c-0.5,0.1-0.7,0.7-0.7,1.1c0,0.3-0.1,1.2,0.5,1.3c0.6,0,0.8-0.7,0.8-1.1
						C264,104.5,263.9,103.6,263.4,103.5c-0.1,0-0.4,0.4-0.3,0.4c0.5,0,0.4,1.3,0.2,1.6c0.1-0.1,0.1,0,0-0.1c-0.1,0-0.1-0.1-0.1-0.2
						c-0.1-0.1-0.1-0.3-0.1-0.5c0-0.2,0-0.3,0-0.5c0-0.1,0-0.1,0-0.2c0,0,0-0.1,0-0.1c0-0.1,0-0.1,0,0
						C263.4,103.9,263.6,103.5,263.4,103.5z"/>
					<path class="st3" d="M262,103.8c0.1,0.6,0,1.3-0.1,1.9c0,0.2,0.5,0,0.5-0.2c0.1-0.5,0.6-0.8,0.8-1.3c0.1-0.3-0.3,0-0.4,0.1
						c-0.1,0.3-0.3,0.5-0.5,0.7c-0.2,0.2-0.3,0.4-0.3,0.7c0.2-0.1,0.3-0.1,0.5-0.2c0.1-0.7,0.2-1.3,0-2
						C262.4,103.4,262,103.7,262,103.8L262,103.8z"/>
				</g>
				<path class="st3" d="M266.7,104c0.3-0.5,0.8,1.6,0.1,0.6c-0.3-0.5-0.4-1.1-0.5-1.6c0-0.2,0-0.4,0-0.6c0.1-0.1,0.2-0.1,0.2,0.1
					c0,0.1,0,0.3,0,0.4c0,0.5-0.1,1-0.3,1.5c-0.1,0.3,0.3,0.1,0.4-0.1c0.1-0.3,0.6-2.7-0.2-2.5c-0.9,0.2-0.5,2-0.4,2.5
					c0.1,0.3,0.2,1.2,0.7,1.2c0.4,0,0.7-0.4,0.8-0.7c0.2-0.4,0-1-0.4-1.2c-0.3-0.3-0.7,0.3-0.8,0.5
					C266.1,104.4,266.5,104.3,266.7,104L266.7,104z"/>
				<path class="st3" d="M268,102.5c-0.4,0.3-0.4,0.9-0.3,1.3c0.1,0.3,0.4,1.2,0.9,1c0.6-0.2,0.5-1,0.4-1.4
					C268.9,103.1,268.5,102.3,268,102.5c-0.1,0-0.3,0.5-0.1,0.5c0.3-0.1,0.5,0.2,0.6,0.4c0.1,0.2,0.2,0.3,0.2,0.5c0,0.1,0,0.1,0,0.2
					c0,0.1,0,0.2,0,0.1c-0.2,0.2-0.5-0.3-0.6-0.4c-0.1-0.2-0.1-0.3-0.2-0.5c0-0.1,0-0.2,0-0.3c0-0.1,0-0.1,0-0.1
					C268.1,102.9,268.2,102.4,268,102.5z"/>
				<path class="st3" d="M269.1,101.5c0.1,0,0.2,0.1,0.3,0c0.3-0.1,0.3-0.6,0.3-0.8c0-0.1-0.1-0.2-0.2-0.1c-0.1,0.1-0.1,0.2-0.1,0.4
					c0,0,0,0.1,0,0.1c0,0,0,0,0,0c0,0.1,0,0,0,0c0,0,0,0,0,0c0,0,0,0,0,0c0,0,0,0,0,0c0,0,0,0,0,0c0,0,0,0,0,0c0,0,0,0,0,0
					c0,0,0,0,0,0c0,0-0.1,0,0,0c-0.1-0.1-0.2,0.1-0.2,0.2C269.1,101.3,269,101.5,269.1,101.5L269.1,101.5z"/>
				<path class="st3" d="M271.3,102.7c-0.1,0.4-0.7-0.3-0.7-0.4c-0.2-0.3-0.4-0.6-0.6-0.9c-0.1-0.2-0.3,0.3-0.3,0.4
					c0.1,0.3,0.3,0.6,0.4,0.8c0.1,0.2,0.1,0.3,0.2,0.5c0,0.2,0.1,0.2-0.1,0.2c-0.5,0-0.8-1-0.9-1.4c-0.1-0.3-0.3,0.2-0.3,0.3
					c0.1,0.4,0.5,2.2,1.3,1.6c0.9-0.7,0-1.9-0.3-2.5c-0.1,0.2-0.2,0.3-0.3,0.4c0.3,0.5,0.5,1.1,1,1.4c0.4,0.3,0.8-0.2,0.9-0.6
					C271.8,102.3,271.5,102.3,271.3,102.7L271.3,102.7z"/>
				<path class="st3" d="M268.1,103c0.6,0.3,1-0.2,1.2-0.7c0.1-0.2,0-0.5-0.2-0.2c-0.2,0.4-0.5,0.5-0.8,0.4
					C268.1,102.4,267.9,102.9,268.1,103L268.1,103z"/>
				<path class="st3" d="M256.6,102c0.1-0.4,0-0.7-0.5-0.7c-0.5,0-0.9,0.4-1.2,0.8c-0.2,0.3-0.4,0.7-0.1,1.1c0.3,0.4,1,0.4,1.4,0.4
					c0.3,0,0.2-0.3-0.1-0.3c-0.3,0-0.5,0-0.7-0.2c-0.2-0.2-0.1-0.5,0-0.6c0.1-0.2,0.2-0.4,0.4-0.6c0,0,0.1-0.1,0.1-0.1
					c0.1-0.1,0.2-0.1,0.1,0c0.1,0.1,0,0.3,0,0.4C256,102.2,256.5,102.1,256.6,102L256.6,102z"/>
				<path class="st3" d="M258.7,102.8c-0.1,0.8-0.4,1.5-0.7,2.1c-0.1,0.2,0.5,0.1,0.5,0c0.1-0.3,0.3-0.6,0.5-0.9
					c0.1-0.2,0.3-0.7,0.6-0.4c0.2-0.1,0.3-0.2,0.5-0.2c-0.7-0.7-1.4,0.4-1.6,0.8c-0.1,0.1,0.1,0.1,0.2,0.1c0.6,0,0.1,0.7,0.3,0.9
					c0.3,0.3,1,0,1.2-0.1c0.3-0.1,0.1-0.4-0.2-0.2c-0.4,0.1-0.6,0.2-0.5-0.1c0-0.2,0-0.3,0-0.5c-0.1-0.3-0.4-0.3-0.7-0.3
					c0.1,0,0.1,0.1,0.2,0.1c0.1-0.2,0.3-0.8,0.6-0.5c0.1,0.2,0.6-0.1,0.5-0.2c-0.9-1-1.9,1.2-2.1,1.6c0.2,0,0.4,0,0.5,0
					c0.3-0.7,0.6-1.5,0.7-2.2C259.2,102.5,258.7,102.6,258.7,102.8L258.7,102.8z"/>
				<path class="st3" d="M264,103.6c0.2,0.7,0.2,1.5,0.2,2.2c0,0.2,0.5-0.1,0.5-0.3c0-0.3,0-0.7,0.1-1c0-0.2,0-0.7,0.4-0.6
					c0.1-0.1,0.2-0.3,0.3-0.4c-0.9-0.3-1.1,0.9-1.2,1.4c0,0.1,0.2,0.1,0.2,0c0.5-0.3,0.4,0.6,0.6,0.7c0.4,0.1,0.9-0.4,1.1-0.6
					c0.3-0.3,0-0.4-0.3-0.1c-0.3,0.3-0.4,0.4-0.5,0.1c-0.1-0.1-0.1-0.3-0.2-0.4c-0.2-0.3-0.5-0.1-0.7,0c0.1,0,0.1,0,0.2,0
					c0-0.2,0-0.9,0.4-0.7c0.2,0.1,0.5-0.4,0.3-0.4c-1.2-0.5-1.2,1.9-1.2,2.3c0.2-0.1,0.3-0.2,0.5-0.3c0-0.8-0.1-1.6-0.3-2.3
					C264.4,103.1,264,103.4,264,103.6L264,103.6z"/>
			</g>
		</g>
		<g>
			<path class="st7" d="M286.7,103.4c0,0,0.9,0.2,1.5-1.4c0,0,0.6-1.4,0.2-1.9c0,0-0.6-0.3-1.4,1.2C287,101.3,286.2,103,286.7,103.4
				z"/>
			<path class="st7" d="M285.6,106.1c0,0,0.5,0.7,2.1-0.1c0,0,1.4-0.7,1.4-1.3c0,0-0.3-0.6-1.9,0
				C287.2,104.7,285.4,105.4,285.6,106.1z"/>
			<path class="st6" d="M283.5,106.7l1.1,1.6c0,0-0.5,0.4-0.5,0.3c-0.1-0.6-0.9-1.8-0.9-1.8L283.5,106.7z"/>
			<path class="st6" d="M286.1,106.2l0.4,1.9c0,0-0.5,0.2-0.5,0.1c0.1-0.6-0.2-2-0.2-2L286.1,106.2z"/>
			<path class="st6" d="M288.3,104.7l1.2,1c0,0-0.2,0.4-0.3,0.3c-0.2-0.4-1-1.2-1-1.2L288.3,104.7z"/>
			<path class="st7" d="M281.1,105.4c0,0-0.8,0.4-0.4,2c0,0,0.4,1.5,1,1.6c0,0,0.7-0.2,0.4-1.8C282.1,107.3,281.8,105.4,281.1,105.4
				z"/>
			<path class="st7" d="M281.4,105.5c0,0-0.5-0.7-2.1-0.1c0,0-1.4,0.6-1.5,1.2c0,0,0.2,0.6,1.8,0.2
				C279.7,106.7,281.5,106.2,281.4,105.5z"/>
			<path class="st7" d="M281.3,105.7c0,0,0.3-0.8-1.1-1.7c0,0-1.3-0.8-1.8-0.5c0,0-0.4,0.6,1,1.6C279.3,105,280.8,106.2,281.3,105.7
				z"/>
			<path class="st7" d="M282.7,104.2c0,0,0.4-0.8-0.8-1.9c0,0-1.2-1-1.7-0.8c0,0-0.5,0.5,0.7,1.7
				C280.9,103.2,282.2,104.6,282.7,104.2z"/>
			<path class="st7" d="M285.8,103.5c0,0,0.9-0.2,0.8-1.9c0,0-0.1-1.5-0.6-1.8c0,0-0.7,0-0.7,1.7
				C285.1,101.5,285.1,103.4,285.8,103.5z"/>
			<path class="st7" d="M285.7,103.3c0,0,0.4-0.7-0.7-1.8c0,0-1.1-1-1.6-0.8c0,0-0.4,0.5,0.6,1.6C284,102.3,285.2,103.7,285.7,103.3
				z"/>
			<rect x="280.8" y="104.6" transform="matrix(0.6981 -0.716 0.716 0.6981 10.078 233.4442)" class="st6" width="2" height="0.3"/>
		</g>
		<g>
			<circle class="st18" cx="285.7" cy="105.5" r="1.5"/>
			<circle class="st20" cx="285.7" cy="105.7" r="1.3"/>
			
				<ellipse transform="matrix(-0.9447 0.3278 -0.3278 -0.9447 590.4191 112.9139)" class="st18" cx="285.7" cy="106.2" rx="1" ry="0.8"/>
			<circle class="st20" cx="285.7" cy="106.5" r="0.5"/>
		</g>
		<g>
			<circle class="st18" cx="284" cy="103.6" r="1.5"/>
			<circle class="st20" cx="283.9" cy="103.4" r="1.3"/>
			<ellipse transform="matrix(0.6981 -0.716 0.716 0.6981 11.9182 234.2247)" class="st18" cx="283.7" cy="103" rx="1" ry="0.8"/>
			<circle class="st20" cx="283.6" cy="102.8" r="0.5"/>
		</g>
		<g>
			<circle class="st18" cx="283.3" cy="106.3" r="1.5"/>
			<circle class="st20" cx="283.2" cy="106.1" r="1.3"/>
			<ellipse transform="matrix(0.6982 -0.7159 0.7159 0.6982 9.7525 234.4841)" class="st18" cx="283" cy="105.7" rx="1" ry="0.8"/>
			<circle class="st20" cx="282.9" cy="105.4" r="0.5"/>
		</g>
		<g>
			<circle class="st18" cx="287.6" cy="103.3" r="1.5"/>
			<circle class="st20" cx="287.5" cy="103.2" r="1.3"/>
			
				<ellipse transform="matrix(0.2674 -0.9636 0.9636 0.2674 111.0692 351.9709)" class="st18" cx="287" cy="102.9" rx="1" ry="0.8"/>
			<circle class="st20" cx="286.8" cy="102.8" r="0.5"/>
		</g>
		<g>
			<path class="st12" d="M243.7,86.1c-0.1,0-0.2-0.1-0.2-0.2c-0.3-0.1-0.6,0.1-0.9,0.1c-0.8,0-1,0-2-0.3c0-0.8,0.5-1.3,0.7-1.9
				c0.2-0.5-0.1-1.2-0.1-1.8c0-0.4,0-0.7,0-1.1c-0.3,0.2-0.1,1-0.2,1.3c-0.1-0.5-0.1-1.1-0.3-1.5c-0.1,0.5,0,1.1,0,1.5
				c-0.1-0.4-0.2-0.9-0.3-1.3c-0.2,0.4,0.1,1.1,0.1,1.5c-0.2-0.4-0.2-0.8-0.4-1.2c-0.1,0.5,0.2,0.9,0.1,1.3
				c-0.2-0.3-0.2-0.7-0.5-0.9c0,0.3,0.2,0.7,0.3,1c-0.2-0.1-0.3-0.4-0.5-0.5c0,0.3,0.2,0.4,0.3,0.6c-0.2-0.1-0.2-0.3-0.4-0.3
				c0,0.2,0.2,0.3,0.3,0.5c-0.1-0.1-0.2-0.2-0.3-0.2c0,0.2,0.3,0.3,0.2,0.4c0,0-0.2-0.1-0.2,0c0,0,0.2,0.1,0.1,0.1
				c-0.1,0-0.1,0-0.1,0c0,0.1,0.1,0.1,0.1,0.2c0,0-0.1,0-0.1,0c0,0.1,0.1,0.1,0.1,0.2c-0.7,0.7-0.3,1.4-0.4,2.2c0-0.1-0.5-0.2-1-0.4
				c-0.2-0.1-0.3-0.4-0.5-0.5c0,0,0.1,0,0.1-0.1c-0.1,0-0.2-0.1-0.2-0.1c0.1,0,0.2,0,0.3,0c-0.1-0.1-0.4-0.1-0.4-0.3
				c0.2,0,0.3,0.1,0.4,0.1c-0.2-0.1-0.5-0.2-0.5-0.4c0.2,0.1,0.4,0.2,0.6,0.1c-0.3-0.1-0.7-0.4-0.7-0.6c0.2,0.1,0.5,0.3,0.7,0.3
				c-0.3-0.1-0.6-0.5-0.9-0.5c0.1,0.3,0.6,0.5,0.7,0.7c-0.2-0.2-0.5-0.3-0.8-0.4c0.1,0.3,0.5,0.4,0.7,0.6c-0.2,0-0.4-0.1-0.6-0.1
				c0.1,0.3,0.5,0.2,0.6,0.4c-0.1-0.1-0.3,0-0.4,0c0,0.2,0.3,0.1,0.4,0.2c-0.1,0-0.3,0-0.3,0.1c0.1,0.1,0.3,0,0.3,0.1
				c-0.1,0-0.2,0-0.2,0.1c0,0.1,0.2,0,0.2,0.1c0,0-0.1,0-0.1,0.1c0.1,0,0.1,0,0.1,0c0,0-0.1,0-0.1,0.1c0.4,0.2,0.5,0.8,1,0.9
				c-0.3,0.2,0.3,0.4-2.8,1.4c0.1,0,1.4-0.3,1.7-0.4c0.4-0.1,0.8-0.2,1.1-0.4c0.1,0,0.2-0.1,0.3-0.1c0.6-0.1,1.2,0.1,1.8-0.4
				c-0.5,0.1-1.3,0.2-1.6-0.1c0.4-0.7,0.1-2.3,0.5-2.7c0.4-0.3,0.9-1.4,1.5-0.5c0.1,0.1,0.1,0.4-0.1,0.7c-0.3,0.5-0.5,0.7-0.4,1.7
				c0,0.2,0,0.4-0.3,0.4c1.3,0.3,1.7,0.1,2.5,0c0.3,0,0.6-0.2,0.7,0c0,0.1-0.3,0.1-0.5,0.1c-0.4,0,0.2,0.1,0.3,0.1
				c0.1,0,0.8-0.1,1.2-0.2C244.1,86.2,243.9,86.2,243.7,86.1z"/>
			<path class="st12" d="M239.7,79.2c-3.1,0-5.6,2.5-5.6,5.6c0,3.1,2.5,5.6,5.6,5.6c3.1,0,5.6-2.5,5.6-5.6
				C245.3,81.7,242.8,79.2,239.7,79.2 M239.7,79.4c3,0,5.4,2.4,5.4,5.4c0,3-2.4,5.4-5.4,5.4c-3,0-5.4-2.4-5.4-5.4
				C234.3,81.8,236.7,79.4,239.7,79.4"/>
		</g>
	</g>
</g>
<g id="butylka_1">
</g>
<g id="vanna_2">
</g>
<g id="sneg">
</g>
<g id="vigimka">
</g>
<g id="vanna_1">
</g>
<g id="zakvaska">
</g>
<g id="shariki_2">
</g>
<g id="shariki_1">
</g>
<g id="voronka">
</g>
<g id="gradusnik">
</g>
<g id="kolba_2">
</g>
<g id="kolba_1">
</g>
<g id="probirki">
</g>
<g id="lupa">
</g>
<g id="blank">
</g>
<g id="ticks">
</g>
<g id="clock">
</g>
</svg>
