<?xml version="1.0" encoding="utf-8"?>
<!-- Generator: Adobe Illustrator 19.0.0, SVG Export Plug-In . SVG Version: 6.00 Build 0)  -->
<svg version="1.1" xmlns="http://www.w3.org/2000/svg" xmlns:xlink="http://www.w3.org/1999/xlink" x="0px" y="0px"
	 viewBox="0 0 258.6 171" style="enable-background:new 0 0 258.6 171;" xml:space="preserve">
<style type="text/css">
	.st0{fill:#519E38;}
	.st1{fill:#FFFFFF;}
</style>
<g id="Layer_2">
</g>
<g id="kolba_4">
</g>
<g id="kolba_3">
</g>
<g id="kolby">
</g>
<g id="doma">
</g>
<g id="car">
</g>
<g id="butylka_3">
</g>
<g id="butylka_1">
</g>
<g id="vanna_2">
</g>
<g id="sneg">
</g>
<g id="vigimka">
</g>
<g id="vanna_1">
</g>
<g id="zakvaska">
</g>
<g id="shariki_2">
</g>
<g id="shariki_1">
</g>
<g id="voronka">
</g>
<g id="gradusnik">
</g>
<g id="kolba_2">
</g>
<g id="kolba_1">
</g>
<g id="probirki">
</g>
<g id="lupa">
</g>
<g id="tvorog_1_">
	<g>
		<circle class="st0" cx="188.2" cy="82.2" r="3.1"/>
		<path class="st0" d="M185.1,96.7c0-3.1-1.9-5.8-4.6-6.9c0.2-0.4,0.3-0.8,0.3-1.2c0-1.7-1.4-3.1-3.1-3.1c-1.7,0-3.1,1.4-3.1,3.1
			c0,0.4,0.1,0.9,0.3,1.2c-0.7,0.3-1.3,0.7-1.9,1.1c-2.7-3-6.7-4.9-11-4.9c0,0,0,0-0.1,0c-0.1-1.5-0.5-2.9-1-4.2
			c2.6-0.3,4.7-2.5,4.7-5.2c0-2.9-2.4-5.3-5.3-5.3c-2.6,0-4.7,1.9-5.2,4.3c-1.4-0.7-2.9-1.2-4.5-1.4c1-1,1.7-2.3,1.7-3.9
			c0-2.9-2.4-5.3-5.3-5.3c-2.2,0-4.1,1.4-4.9,3.3c-2.7-2.4-6.2-3.9-10.1-3.9c-5.7,0-10.7,3.2-13.2,7.9c-0.4-1.2-1.6-2-2.9-2
			c-1.7,0-3.1,1.4-3.1,3.1c0,0.8,0.3,1.5,0.8,2c-2.2,1.1-4,2.7-5.3,4.8c-0.5-3.5-3.5-6.1-7.1-6.1c-4,0-7.2,3.2-7.2,7.2
			c0,1.4,0.4,2.7,1.1,3.8C94.4,85.1,94,85,93.5,85c-5,0-9.3,3.5-10.4,8.2c-1-0.6-2.2-0.9-3.5-0.9c-4.1,0-7.5,3.4-7.5,7.5
			c0,4.1,3.4,7.5,7.5,7.5c1.2,0,2.3-0.3,3.2-0.7c0,0.2,0,0.5,0,0.7c0,8.3,6.7,15,15,15c2.6,0,5.1-0.7,7.2-1.9
			c0.3,1.4,1.5,2.5,3.1,2.5c1.7,0,3.1-1.4,3.1-3.1c0-0.2,0-0.4-0.1-0.6c1.4,0.4,2.9,0.6,4.5,0.6c1.6,0,3.2-0.2,4.7-0.6
			c2.4,5.1,7.6,8.7,13.6,8.7c8.3,0,15-6.7,15-15c0-0.4,0-0.8-0.1-1.2c0.5-0.4,0.9-0.7,1.4-1.2c2.8,3.3,6.9,5.4,11.5,5.4
			c4.6,0,8.6-2,11.4-5.2c1,1.3,2.6,2.2,4.4,2.2c3.1,0,5.6-2.5,5.6-5.6c0-1.7-0.7-3.1-1.9-4.2C183.6,101.9,185.1,99.5,185.1,96.7z
			 M101.5,88.7c0,0-0.1-0.1-0.1-0.1c0.1,0,0.2,0,0.3,0C101.6,88.6,101.6,88.6,101.5,88.7z"/>
	</g>
	<circle class="st1" cx="87.7" cy="89.7" r="10.7"/>
	<circle class="st1" cx="95.2" cy="75.4" r="7.2"/>
	<circle class="st1" cx="141" cy="64.4" r="5.3"/>
	<circle class="st1" cx="154.3" cy="70.7" r="5.3"/>
	<circle class="st1" cx="171.8" cy="82.6" r="3.1"/>
	<circle class="st1" cx="182.4" cy="76.2" r="3.1"/>
	<circle class="st1" cx="102.4" cy="113.9" r="3.1"/>
	<circle class="st1" cx="171.8" cy="101.4" r="5.6"/>
	<circle class="st1" cx="109.9" cy="67.6" r="3.1"/>
	<circle class="st1" cx="73.9" cy="93.9" r="7.5"/>
	<circle class="st1" cx="171.8" cy="90.7" r="7.5"/>
	<circle class="st1" cx="113.2" cy="81.1" r="12.8"/>
	<circle class="st1" cx="143.2" cy="81.1" r="12.8"/>
	<circle class="st1" cx="126" cy="73.6" r="15"/>
	<circle class="st1" cx="134" cy="93.9" r="15"/>
	<circle class="st1" cx="128.2" cy="107" r="15"/>
	<circle class="st1" cx="109.9" cy="95.1" r="18.8"/>
	<circle class="st1" cx="92.1" cy="101.4" r="15"/>
	<circle class="st1" cx="156" cy="95.1" r="15"/>
</g>
<g id="blank">
</g>
<g id="ticks">
</g>
<g id="clock">
</g>
</svg>
