<?xml version="1.0" encoding="utf-8"?>
<svg xmlns="http://www.w3.org/2000/svg"
	xmlns:xlink="http://www.w3.org/1999/xlink"
	width="317px" height="51px" viewBox="0 0 317 51">
<path fillRule="evenodd" d="M-0.02 51.03C-0.02 51.03-0.02-0.03-0.02-0.03-0.02-0.03 317-0.03 317-0.03 317-0.03 317 51.03 317 51.03 317 51.03-0.02 51.03-0.02 51.03ZM 313.31 3.65C 313.31 3.65 3.67 3.65 3.67 3.65 3.67 3.65 3.67 47.35 3.67 47.35 3.67 47.35 313.31 47.35 313.31 47.35 313.31 47.35 313.31 3.65 313.31 3.65ZM 43.8 12.04C 43.8 12.04 43.8 38.96 43.8 38.96 43.8 38.96 39.57 38.96 39.57 38.96 39.57 38.96 39.57 23.43 39.57 23.43 39.57 23.43 31.18 33.3 31.18 33.3 31.18 33.3 22.75 23.43 22.75 23.43 22.75 23.43 22.75 38.96 22.75 38.96 22.75 38.96 18.55 38.96 18.55 38.96 18.55 38.96 18.55 12.04 18.55 12.04 18.55 12.04 31.18 26.81 31.18 26.81 31.18 26.81 43.8 12.04 43.8 12.04ZM 66.59 12.04C 70.14 12.04 72.2 13.49 73.28 14.73 74.7 16.28 75.45 18.46 75.45 20.96 75.45 23.43 74.7 25.62 73.28 27.17 72.63 27.9 71.62 28.73 70.17 29.24 70.17 29.24 77.4 38.96 77.4 38.96 77.4 38.96 72.67 38.96 72.67 38.96 72.67 38.96 65.9 29.86 65.9 29.86 65.9 29.86 62.83 29.86 62.83 29.86 62.83 29.86 62.83 38.96 62.83 38.96 62.83 38.96 58.63 38.96 58.63 38.96 58.63 38.96 58.63 12.04 58.63 12.04 58.63 12.04 62.18 12.04 62.18 12.04 62.18 12.04 66.59 12.04 66.59 12.04ZM 62.83 26.08C 62.83 26.08 66.59 26.08 66.59 26.08 68.33 26.08 69.63 25.58 70.46 24.63 71.47 23.54 71.66 22.02 71.66 20.96 71.66 19.88 71.47 18.35 70.46 17.26 69.63 16.32 68.33 15.85 66.59 15.85 66.59 15.85 62.83 15.85 62.83 15.85 62.83 15.85 62.83 26.08 62.83 26.08ZM 91.62 33.89C 93 33.89 94.15 35.05 94.15 36.42 94.15 37.84 93 38.96 91.62 38.96 90.21 38.96 89.09 37.84 89.09 36.42 89.09 35.05 90.21 33.89 91.62 33.89ZM 115.6 12.04C 118.53 12.04 120.27 13.24 121.21 14.28 122.37 15.6 123.02 17.37 123.02 19.44 123.02 21.33 122.51 22.96 121.54 24.23 122.19 24.63 122.69 25.07 123.06 25.5 124.32 26.92 125.01 28.81 125.01 31.02 125.01 33.26 124.32 35.15 123.06 36.57 122.08 37.65 120.23 38.96 117.08 38.96 117.08 38.96 111.7 38.96 111.7 38.96 111.7 38.96 107.94 38.96 107.94 38.96 107.94 38.96 107.94 12.04 107.94 12.04 107.94 12.04 112.13 12.04 112.13 12.04 112.13 12.04 115.6 12.04 115.6 12.04ZM 112.13 35.15C 112.13 35.15 117.08 35.15 117.08 35.15 118.5 35.15 119.59 34.79 120.27 34.03 121.07 33.15 121.21 31.92 121.21 31.02 121.21 30.14 121.07 28.91 120.27 28.04 119.59 27.28 118.5 26.92 117.08 26.92 117.08 26.92 112.13 26.92 112.13 26.92 112.13 26.92 112.13 35.15 112.13 35.15ZM 112.13 23.11C 112.13 23.11 115.6 23.11 115.6 23.11 116.87 23.11 117.78 22.74 118.39 22.09 119.08 21.33 119.22 20.24 119.22 19.44 119.22 18.68 119.08 17.59 118.39 16.83 117.78 16.17 116.87 15.82 115.6 15.82 115.6 15.82 112.13 15.82 112.13 15.82 112.13 15.82 112.13 23.11 112.13 23.11ZM 146.1 12.04C 149.64 12.04 151.71 13.49 152.79 14.73 154.2 16.28 154.96 18.46 154.96 20.96 154.96 23.43 154.2 25.62 152.79 27.17 152.14 27.9 151.12 28.73 149.68 29.24 149.68 29.24 156.91 38.96 156.91 38.96 156.91 38.96 152.18 38.96 152.18 38.96 152.18 38.96 145.42 29.86 145.42 29.86 145.42 29.86 142.34 29.86 142.34 29.86 142.34 29.86 142.34 38.96 142.34 38.96 142.34 38.96 138.14 38.96 138.14 38.96 138.14 38.96 138.14 12.04 138.14 12.04 138.14 12.04 141.69 12.04 141.69 12.04 141.69 12.04 146.1 12.04 146.1 12.04ZM 142.34 26.08C 142.34 26.08 146.1 26.08 146.1 26.08 147.83 26.08 149.14 25.58 149.97 24.63 150.98 23.54 151.16 22.02 151.16 20.96 151.16 19.88 150.98 18.35 149.97 17.26 149.14 16.32 147.83 15.85 146.1 15.85 146.1 15.85 142.34 15.85 142.34 15.85 142.34 15.85 142.34 26.08 142.34 26.08ZM 172.5 15.96C 173.73 14.73 175.15 13.78 176.77 13.1 178.4 12.41 180.17 12.04 181.98 12.04 183.79 12.04 185.56 12.41 187.23 13.1 188.81 13.78 190.23 14.73 191.49 15.96 192.72 17.23 193.66 18.64 194.35 20.24 195.04 21.9 195.4 23.69 195.4 25.5 195.4 27.31 195.04 29.09 194.35 30.73 193.66 32.36 192.72 33.78 191.49 35.01 190.23 36.24 188.81 37.22 187.23 37.91 185.56 38.6 183.79 38.96 181.98 38.96 180.17 38.96 178.4 38.6 176.77 37.91 175.15 37.22 173.73 36.24 172.5 35.01 171.28 33.78 170.3 32.36 169.61 30.73 168.92 29.09 168.56 27.31 168.56 25.5 168.56 23.69 168.92 21.9 169.61 20.24 170.3 18.64 171.28 17.23 172.5 15.96ZM 175.47 32.03C 177.21 33.78 179.52 34.75 181.98 34.75 184.44 34.75 186.75 33.78 188.49 32.03 190.23 30.29 191.21 27.97 191.21 25.5 191.21 23.04 190.23 20.71 188.49 18.97 186.75 17.23 184.44 16.25 181.98 16.25 179.52 16.25 177.21 17.23 175.47 18.97 173.73 20.71 172.75 23.04 172.75 25.5 172.75 27.97 173.73 30.29 175.47 32.03ZM 211.86 15.96C 213.09 14.73 214.51 13.78 216.13 13.1 217.76 12.41 219.53 12.04 221.34 12.04 223.15 12.04 224.92 12.41 226.58 13.1 228.18 13.78 229.58 14.73 230.85 15.96 232.08 17.23 233.02 18.64 233.7 20.24 234.39 21.9 234.76 23.69 234.76 25.5 234.76 27.31 234.39 29.09 233.7 30.73 233.02 32.36 232.08 33.78 230.85 35.01 229.58 36.24 228.18 37.22 226.58 37.91 224.92 38.6 223.15 38.96 221.34 38.96 219.53 38.96 217.76 38.6 216.13 37.91 214.51 37.22 213.09 36.24 211.86 35.01 210.63 33.78 209.65 32.36 208.97 30.73 208.28 29.09 207.92 27.31 207.92 25.5 207.92 23.69 208.28 21.9 208.97 20.24 209.65 18.64 210.63 17.23 211.86 15.96ZM 214.82 32.03C 216.56 33.78 218.88 34.75 221.34 34.75 223.8 34.75 226.11 33.78 227.85 32.03 229.58 30.29 230.56 27.97 230.56 25.5 230.56 23.04 229.58 20.71 227.85 18.97 226.11 17.23 223.8 16.25 221.34 16.25 218.88 16.25 216.56 17.23 214.82 18.97 213.09 20.71 212.12 23.04 212.12 25.5 212.12 27.97 213.09 30.29 214.82 32.03ZM 252.7 23.14C 252.7 23.14 261.31 12.04 261.31 12.04 261.31 12.04 266.59 12.04 266.59 12.04 266.59 12.04 256.75 24.99 256.75 24.99 256.75 24.99 268.58 38.96 268.58 38.96 268.58 38.96 263.34 38.96 263.34 38.96 263.34 38.96 252.7 26.77 252.7 26.77 252.7 26.77 252.7 38.96 252.7 38.96 252.7 38.96 248.51 38.96 248.51 38.96 248.51 38.96 248.51 12.04 248.51 12.04 248.51 12.04 252.7 12.04 252.7 12.04 252.7 12.04 252.7 23.14 252.7 23.14ZM 288.15 34.93C 289.74 35.08 291.19 34.72 292.35 33.96 293.9 32.94 294.7 31.27 294.37 29.82 293.97 28.12 292.07 26.96 289.16 26.58 287.06 26.33 285.29 25.68 283.92 24.67 282.62 23.65 281.67 22.34 281.28 20.86 280.92 19.55 280.99 18.17 281.45 16.86 281.89 15.56 282.73 14.44 283.81 13.6 285.15 12.59 286.77 12.04 288.59 12.04 290.51 12.04 292.49 12.66 294.51 13.85 294.51 13.85 292.53 17.26 292.53 17.26 291.12 16.47 289.78 16.04 288.59 16.04 287.68 16.04 286.85 16.28 286.24 16.76 285.76 17.12 285.4 17.62 285.18 18.17 285 18.72 284.97 19.29 285.11 19.8 285.54 21.29 287.17 22.34 289.64 22.64 291.99 22.92 293.94 23.62 295.42 24.74 296.86 25.83 297.85 27.24 298.24 28.87 298.6 30.43 298.43 32.07 297.74 33.59 297.05 35.08 295.97 36.35 294.55 37.29 292.89 38.39 290.94 38.96 288.84 38.96 288.52 38.96 288.15 38.93 287.83 38.93 285.07 38.67 282.26 37.55 279.47 35.48 279.47 35.48 281.83 32.28 281.83 32.28 284.03 33.89 286.13 34.75 288.15 34.93Z" fill="rgb(237,197,153)"/></svg>