<?xml version="1.0" encoding="utf-8"?>
<svg xmlns="http://www.w3.org/2000/svg"
	xmlns:xlink="http://www.w3.org/1999/xlink"
	width="104px" height="104px" viewBox="0 0 104 104">
<path fillRule="evenodd" d="M 51.99 104.01C 23.28 104.01-0 80.73-0 52-0 23.26 23.28-0.01 51.99-0.01 80.71-0.01 103.99 23.26 103.99 52 103.99 80.73 80.71 104.01 51.99 104.01ZM 39.08 44.63C 34.81 45.09 33.6 50.22 33.49 53.76 33.49 53.76 33.49 53.77 33.49 53.77 33.46 54.31 33.46 54.83 33.48 55.28 33.46 56.96 33.39 58.29 33.2 59.89 33.12 60.57 32.91 61.92 32.73 61.93 31.17 62.08 29.96 59.75 29.52 58.65 28.49 56 27.74 53.21 27.23 50.42 26.71 47.44 26.41 44.29 26.2 41.21 26.11 39.97 26.1 38.69 26.11 37.42 26.13 36.9 26.15 36.41 26.19 35.9 26.21 35.54 26.28 35.05 26.28 35.04 26.68 32.77 23.45 34.92 22.86 35.95 19.39 41.97 20.44 49.12 20.56 55.73 20.58 57.5 20.47 59.3 20.19 61.11 20.02 62.33 19.78 64.5 18.77 65.48 18.12 66.12 16.96 65.62 16.44 65.31 15.61 64.85 15.09 63.93 14.96 62.97 14.81 61.97 13.72 62.53 13.18 63.07 12.42 63.82 11.65 65.15 11.81 66.13 12.21 68.42 14.34 70.52 16.76 69.81 20.61 68.68 22.3 64.05 23.23 60.47 23.67 58.73 23.92 56.97 24.02 55.2 24.55 57.78 25.35 60.31 26.53 62.65 27.4 64.37 28.91 66.16 31.11 65.73 32.73 65.42 33.88 63.68 34.67 61.73 35.42 63.43 36.6 64.68 38.55 64.54 40.7 64.38 42.51 62.02 43.28 60.35 44.23 58.26 44.5 55.96 44.47 53.76 44.44 50.61 43.57 44.13 39.08 44.63ZM 77.62 37.01C 74.67 38.48 72.94 41.61 72.07 44.7 70.93 48.72 70.29 52.74 70.13 56.88 70.12 56.9 70.12 56.92 70.12 56.95 68.68 58.7 65.63 62.36 63.25 60.76 62.72 60.41 62.36 59.61 62.12 58.87 64.05 56.84 65.71 54.79 67.24 52.46 68.62 50.36 69.54 46.79 66.95 45.31 64.72 44.03 61.84 45.46 60.32 47.33 58.83 49.16 58.13 51.57 57.89 53.9 57.74 55.16 57.6 57.29 57.89 59.27 56.51 60.11 54.84 60.64 53.26 60.32 51.45 59.96 50.82 58.08 50.5 56.65 50.01 54.51 50.13 52.21 50.45 50.05 50.55 49.38 50.73 48.72 50.96 48.07 51.02 47.91 51.09 47.74 51.16 47.58 52.27 48.03 52.73 49.72 52.98 50.54 53.46 52.09 57.4 49.56 56.97 48.1 56.53 46.55 55.88 45.01 54.14 44.2 52.51 43.45 50.27 44.81 49.31 45.78 46.55 48.56 46.2 52.78 46.39 56.47 46.5 58.84 47.04 61.85 49.12 63.13 51.9 64.84 55.8 63.29 58.51 61.63 59.22 63.38 60.55 64.63 62.78 64.32 65.56 63.94 68.09 62.41 70.12 60.48 70.23 62.58 70.73 64.95 72.21 65.8 74.66 67.21 77.69 65.59 79.29 63.56 81.41 60.88 82.57 57.1 81.38 53.79 80.82 52.21 79.51 51.57 78.14 51.55 79.02 50.39 79.83 49.15 80.62 47.96 82.33 45.36 84.01 42.32 83.85 39.17 83.7 36.15 79.66 35.99 77.62 37.01ZM 90.75 50.77C 86.1 49.06 83.47 55.35 82.63 58.8 81.83 62.11 80.87 67.82 84.88 69.49 86.84 70.31 89.16 68.84 90.31 67.56 91.74 65.98 92.61 63.9 93.18 61.79 94.1 58.41 95 52.33 90.75 50.77ZM 87.96 65.64C 87.76 66 87.54 66.37 87.3 66.69 86.58 66.23 86.33 64.78 86.23 64.11 85.99 62.48 86.16 60.84 86.44 59.29 86.73 57.71 87.2 56.11 87.93 54.72 88.13 54.37 88.35 54 88.59 53.69 90.36 55.74 89.88 58.65 89.41 61.04 89.11 62.6 88.68 64.24 87.96 65.64ZM 74.44 51.59C 74.68 49.79 75.06 48.01 75.51 46.29 75.97 44.53 76.62 42.82 77.47 41.21 77.8 40.6 78.17 40.01 78.63 39.48 78.66 39.45 78.67 39.43 78.7 39.41 80.49 41.44 78.84 44.22 77.79 46.13 76.8 47.94 75.69 49.85 74.44 51.59ZM 77.56 56.46C 78 58.42 77.24 60.83 76.45 62.49 76.36 62.68 76.15 63.04 75.99 63.27 75.89 63.27 75.74 63.25 75.58 63.17 74.41 62.59 74.35 60.06 74.25 59.11 74.17 58.23 74.12 57.34 74.12 56.44 74.62 55.9 75.1 55.34 75.58 54.78 76.61 54.09 77.33 55.43 77.56 56.46ZM 61.69 54.8C 61.7 53.13 61.91 51.4 62.44 49.81 62.62 49.25 62.85 48.63 63.17 48.12 63.17 48.11 63.18 48.1 63.18 48.09 64.3 48.39 64.49 49.85 64.38 50.7 64.14 52.46 62.99 54.16 61.69 55.68 61.68 55.37 61.69 55.07 61.69 54.8ZM 40.12 60.88C 39.3 60.76 38.66 59.53 38.39 58.96 37.7 57.56 37.42 55.96 37.26 54.41 37.11 52.8 37.12 51.13 37.46 49.5 37.53 49.11 37.65 48.66 37.8 48.27 39.97 49.68 40.41 52.38 40.61 54.73 40.74 56.29 40.78 58 40.46 59.6 40.38 60.03 40.27 60.48 40.12 60.88Z" fill="rgb(42,42,42)"/></svg>