<?xml version="1.0" encoding="utf-8"?>
<!-- Generator: Adobe Illustrator 19.0.0, SVG Export Plug-In . SVG Version: 6.00 Build 0)  -->
<svg version="1.1" xmlns="http://www.w3.org/2000/svg" xmlns:xlink="http://www.w3.org/1999/xlink" x="0px" y="0px"
	 viewBox="82 -29 294.2 308" style="enable-background:new 82 -29 294.2 308;" xml:space="preserve">
<style type="text/css">
	.st0{fill:#54A4AF;}
	.st1{fill:#519E38;}
	.st2{fill:none;stroke:#FFFFFF;stroke-width:4;stroke-miterlimit:10;}
	.st3{fill:#FFFFFF;}
	.st4{fill:#EFEFEF;}
	.st5{fill:#F2F2F2;}
	.st6{fill:#00A79D;}
	.st7{fill:#D5D6D7;}
	.st8{fill:#00B2E7;}
</style>
<g id="bath">
	<g id="Layer_2">
	</g>
	<g id="kolba_4">
		<path class="st0" d="M333.8,49.9"/>
	</g>
	<g id="kolba_3">
	</g>
	<g id="kolby">
	</g>
	<g id="doma">
	</g>
	<g id="car">
	</g>
	<g id="butylka_3">
	</g>
	<g id="butylka_2">
	</g>
	<g id="butylka_1">
	</g>
	<g id="vanna_2">
	</g>
	<g id="sneg">
	</g>
	<g id="vigimka">
	</g>
	<g id="vanna_1">
		<rect x="143.5" y="107.7" class="st1" width="5.3" height="105.1"/>
		<path class="st1" d="M326.6,107.7l-0.1,104.8c0,0,1.3,11.2-7.7,11.2H151.5c0,0-5-0.3-5-5.8s166.2-2.7,166.2-2.7l7-18.8l1.4-70.8
			l0.3-18.1h5.2V107.7z"/>
		<path class="st1" d="M330.5,105c0,2.2-1.8,4-4,4h-183c-2.2,0-4-1.8-4-4l0,0c0-2.2,1.8-4,4-4h183C328.7,101,330.5,102.8,330.5,105
			L330.5,105z"/>
		<path class="st2" d="M321.5,214.3c0,2-1.6,3.7-3.7,3.7H147.2c-2,0-3.7-1.6-3.7-3.7V107.7c0-2,1.6-3.7,3.7-3.7h170.6
			c2,0,3.7,1.6,3.7,3.7V214.3z"/>
		<rect x="143.5" y="153.9" class="st3" width="177.7" height="64.1"/>
		<path class="st4" d="M327.5,102c0,2.2-1.8,4-4,4h-183c-2.2,0-4-1.8-4-4l0,0c0-2.2,1.8-4,4-4h183C325.7,98,327.5,99.8,327.5,102
			L327.5,102z"/>
		<path class="st3" d="M160.3,139.9c0,1.7-1.4,3.1-3.1,3.1l0,0c-1.7,0-3.1-1.4-3.1-3.1v-22.8c0-1.7,1.4-3.1,3.1-3.1l0,0
			c1.7,0,3.1,1.4,3.1,3.1V139.9z"/>
	</g>
	<g id="shariki_2">
	</g>
	<g id="shariki_1">
	</g>
	<g id="voronka">
	</g>
	<g id="gradusnik">
	</g>
	<g id="kolba_2">
	</g>
	<g id="kolba_1">
	</g>
	<g id="probirki">
	</g>
	<g id="lupa">
	</g>
	<g id="bidon">
	</g>
	<g id="blank">
	</g>
	<g id="ticks">
	</g>
	<g id="press">
	</g>
</g>
<g id="bottle_1">
	<path class="st5" d="M144.8,43.9c-1.1,1.5-0.9,3.6,0.6,4.7l21.3,16.8c1.5,1.1,3.6,0.9,4.7-0.6l24.2-30.7c1.1-1.5,0.9-3.6-0.6-4.7
		l-21.3-16.8c-1.5-1.1-3.6-0.9-4.7,0.6L144.8,43.9z"/>
	
		<rect x="175.8" y="13.4" transform="matrix(0.7853 0.6191 -0.6191 0.7853 51.2577 -111.7811)" class="st5" width="21.9" height="9.2"/>
	<circle class="st6" cx="155.3" cy="45.7" r="2.8"/>
	<circle class="st6" cx="159.6" cy="37.5" r="1.7"/>
	<circle class="st6" cx="168.2" cy="33.3" r="2.4"/>
	<circle class="st6" cx="164.1" cy="53" r="2.5"/>
	<circle class="st6" cx="167.5" cy="43.8" r="5.5"/>
	<path class="st7" d="M180.6,5.8c-0.4,0.5-0.3,1.2,0.2,1.6l18,14.2c0.5,0.4,1.2,0.3,1.6-0.2l0,0c0.4-0.5,0.3-1.2-0.2-1.6l-18-14.2
		C181.7,5.2,181,5.3,180.6,5.8L180.6,5.8z"/>
	<path class="st3" d="M184.8,37.4c-0.6,0.8-0.5,2,0.3,2.6l0,0c0.8,0.6,2,0.5,2.6-0.3l3.8-4.8c0.6-0.8,0.5-2-0.3-2.6l0,0
		c-0.8-0.6-2-0.5-2.6,0.3L184.8,37.4z"/>
</g>
<g id="bottle_2">
	<path class="st5" d="M312.5,45.1c1.1,1.5,0.9,3.6-0.6,4.7l-21.3,16.8c-1.5,1.1-3.6,0.9-4.7-0.6l-24.2-30.7
		c-1.1-1.5-0.9-3.6,0.6-4.7l21.3-16.8c1.5-1.1,3.6-0.9,4.7,0.6L312.5,45.1z"/>
	
		<rect x="259.5" y="14.6" transform="matrix(-0.7853 0.6191 -0.6191 -0.7853 494.7755 -133.1585)" class="st5" width="21.9" height="9.2"/>
	<circle class="st8" cx="302" cy="46.8" r="2.8"/>
	<circle class="st8" cx="297.7" cy="38.7" r="1.7"/>
	<circle class="st8" cx="289.1" cy="34.4" r="2.4"/>
	<circle class="st8" cx="293.2" cy="54.2" r="2.5"/>
	<circle class="st8" cx="289.8" cy="44.9" r="5.5"/>
	<path class="st7" d="M276.7,6.9c0.4,0.5,0.3,1.2-0.2,1.6l-18,14.2c-0.5,0.4-1.2,0.3-1.6-0.2l0,0c-0.4-0.5-0.3-1.2,0.2-1.6l18-14.2
		C275.6,6.3,276.3,6.4,276.7,6.9L276.7,6.9z"/>
	<path class="st3" d="M272.5,38.6c0.6,0.8,0.5,2-0.3,2.6l0,0c-0.8,0.6-2,0.5-2.6-0.3l-3.8-4.8c-0.6-0.8-0.5-2,0.3-2.6l0,0
		c0.8-0.6,2-0.5,2.6,0.3L272.5,38.6z"/>
</g>
<g id="drop_2">
	<path class="st5" d="M256.9,61.7L256.9,61.7L256.9,61.7c-0.1-0.2-0.2-0.4-0.3-0.6l-5.5-11.2L245.5,61c-0.1,0.2-0.2,0.4-0.3,0.6l0,0
		l0,0c-0.3,0.8-0.5,1.6-0.5,2.5c0,3.5,2.8,6.3,6.3,6.3s6.3-2.8,6.3-6.3C257.4,63.3,257.3,62.4,256.9,61.7z"/>
	<ellipse class="st3" cx="248.4" cy="62.6" rx="1.7" ry="1.8"/>
</g>
<g id="drop_1">
	<path class="st5" d="M200.4,60.5L200.4,60.5L200.4,60.5c0.1-0.2,0.2-0.4,0.3-0.6l5.5-11.2l5.5,11.2c0.1,0.2,0.2,0.4,0.3,0.6l0,0
		l0,0c0.3,0.8,0.5,1.6,0.5,2.5c0,3.5-2.8,6.3-6.3,6.3s-6.3-2.8-6.3-6.3C199.9,62.1,200,61.3,200.4,60.5z"/>
	<ellipse class="st3" cx="208.9" cy="61.5" rx="1.7" ry="1.8"/>
</g>
</svg>
