<?xml version="1.0" encoding="utf-8"?>
<!-- Generator: Adobe Illustrator 19.0.0, SVG Export Plug-In . SVG Version: 6.00 Build 0)  -->
<svg version="1.1" xmlns="http://www.w3.org/2000/svg" xmlns:xlink="http://www.w3.org/1999/xlink" x="0px" y="0px"
	 viewBox="118 -1 366 252" style="enable-background:new 118 -1 366 252;" xml:space="preserve">
<style type="text/css">
	.st0{fill:#519E38;}
	.st1{fill:#FFFFFF;}
	.st2{fill:#EFEFEF;}
	.st3{fill:url(#SVGID_1_);}
	.st4{fill:url(#SVGID_2_);}
	.st5{fill:url(#SVGID_3_);}
	.st6{fill:url(#SVGID_4_);}
	.st7{fill:url(#SVGID_5_);}
</style>
<g id="Layer_1">
	<g id="Layer_2">
	</g>
	<g id="kolba_3">
	</g>
	<g id="kolby">
	</g>
	<g id="doma">
	</g>
	<g id="car">
	</g>
	<g id="butylka_3">
	</g>
	<g id="butylka_2">
	</g>
	<g id="butylka_1">
	</g>
	<g id="vanna_2">
	</g>
	<g id="sneg">
	</g>
	<g id="vigimka">
	</g>
	<g id="shariki_2">
	</g>
	<g id="shariki_1">
	</g>
	<g id="voronka">
	</g>
	<g id="gradusnik">
	</g>
	<g id="kolba_2">
	</g>
	<g id="kolba_1">
	</g>
	<g id="probirki">
	</g>
	<g id="lupa">
	</g>
	<g id="bidon">
	</g>
	<g id="blank">
	</g>
	<g id="ticks">
	</g>
	<g id="clock">
		<g>
			<path class="st0" d="M239.8,111.1h-53.9c-6.6,0-12-5.4-12-12V73.5c0-6.6,5.4-12,12-12h53.9c6.6,0,12,5.4,12,12v25.6
				C251.8,105.7,246.4,111.1,239.8,111.1z"/>
			<path class="st1" d="M234.9,106.5h-54c-6.6,0-12-5.4-12-12V69c0-6.6,5.4-12,12-12h53.9c6.6,0,12,5.4,12,12v25.6
				C246.9,101.1,241.5,106.5,234.9,106.5z"/>
			<circle class="st1" cx="189.8" cy="57" r="5.2"/>
			<circle class="st2" cx="182.5" cy="71.1" r="3.3"/>
			<circle class="st2" cx="210.2" cy="72.8" r="3.3"/>
			<circle class="st2" cx="203.6" cy="74.4" r="1.6"/>
			<circle class="st2" cx="215.6" cy="84.3" r="5.8"/>
			<circle class="st1" cx="207.4" cy="105.3" r="3.8"/>
			<circle class="st1" cx="229.8" cy="57" r="3.8"/>
			<circle class="st1" cx="246.9" cy="81.7" r="3.8"/>
			<circle class="st1" cx="216.7" cy="57" r="2.3"/>
			<circle class="st1" cx="246.9" cy="76.6" r="2.3"/>
			<circle class="st1" cx="222.5" cy="106.5" r="2.3"/>
			<circle class="st1" cx="168.9" cy="76.6" r="3.8"/>
			<circle class="st1" cx="168.9" cy="84.5" r="5.6"/>
			<circle class="st1" cx="216.7" cy="103.3" r="5.6"/>
		</g>
		<g>
			<path class="st0" d="M340.6,111.1h-53.9c-6.6,0-12-5.4-12-12V73.5c0-6.6,5.4-12,12-12h53.9c6.6,0,12,5.4,12,12v25.6
				C352.6,105.7,347.2,111.1,340.6,111.1z"/>
			<path class="st1" d="M335.6,106.5h-53.9c-6.6,0-12-5.4-12-12V69c0-6.6,5.4-12,12-12h53.9c6.6,0,12,5.4,12,12v25.6
				C347.6,101.1,342.2,106.5,335.6,106.5z"/>
			<circle class="st1" cx="290.6" cy="57" r="5.2"/>
			<circle class="st2" cx="283.2" cy="71.1" r="3.3"/>
			<circle class="st2" cx="310.9" cy="72.8" r="3.3"/>
			<circle class="st2" cx="304.3" cy="74.4" r="1.6"/>
			<circle class="st2" cx="316.3" cy="84.3" r="5.8"/>
			<circle class="st1" cx="308.1" cy="105.3" r="3.8"/>
			<circle class="st1" cx="330.5" cy="57" r="3.8"/>
			<circle class="st1" cx="347.6" cy="81.7" r="3.8"/>
			<circle class="st1" cx="317.4" cy="57" r="2.3"/>
			<circle class="st1" cx="347.6" cy="76.6" r="2.3"/>
			<circle class="st1" cx="323.2" cy="106.5" r="2.3"/>
			<circle class="st1" cx="269.6" cy="76.6" r="3.8"/>
			<circle class="st1" cx="269.6" cy="84.5" r="5.6"/>
			<circle class="st1" cx="317.4" cy="103.3" r="5.6"/>
		</g>
		<g>
			<path class="st0" d="M237.5,188.2h-54c-6.6,0-12-5.4-12-12v-25.6c0-6.6,5.4-12,12-12h53.9c6.6,0,12,5.4,12,12v25.6
				C249.5,182.8,244.1,188.2,237.5,188.2z"/>
			<path class="st1" d="M232.5,183.7h-54c-6.6,0-12-5.4-12-12v-25.6c0-6.6,5.4-12,12-12h53.9c6.6,0,12,5.4,12,12v25.6
				C244.5,178.3,239.1,183.7,232.5,183.7z"/>
			<circle class="st1" cx="187.5" cy="134.1" r="5.2"/>
			<circle class="st2" cx="180.1" cy="148.2" r="3.3"/>
			<circle class="st2" cx="207.8" cy="149.9" r="3.3"/>
			<circle class="st2" cx="201.2" cy="151.5" r="1.6"/>
			<circle class="st2" cx="213.2" cy="161.4" r="5.8"/>
			<circle class="st1" cx="205" cy="182.5" r="3.8"/>
			<circle class="st1" cx="227.4" cy="134.1" r="3.8"/>
			<circle class="st1" cx="244.5" cy="158.9" r="3.8"/>
			<circle class="st1" cx="214.3" cy="134.1" r="2.3"/>
			<circle class="st1" cx="244.5" cy="153.8" r="2.3"/>
			<circle class="st1" cx="220.1" cy="183.7" r="2.3"/>
			<circle class="st1" cx="166.5" cy="153.8" r="3.8"/>
			<circle class="st1" cx="166.5" cy="161.6" r="5.6"/>
			<circle class="st1" cx="214.3" cy="180.5" r="5.6"/>
		</g>
		<g>
			<path class="st0" d="M340.9,188.2H287c-6.6,0-12-5.4-12-12v-25.6c0-6.6,5.4-12,12-12h53.9c6.6,0,12,5.4,12,12v25.6
				C352.9,182.8,347.5,188.2,340.9,188.2z"/>
			<path class="st1" d="M335.9,183.7H282c-6.6,0-12-5.4-12-12v-25.6c0-6.6,5.4-12,12-12h53.9c6.6,0,12,5.4,12,12v25.6
				C347.9,178.3,342.5,183.7,335.9,183.7z"/>
			<circle class="st1" cx="290.9" cy="134.1" r="5.2"/>
			<circle class="st2" cx="283.5" cy="148.2" r="3.3"/>
			<circle class="st2" cx="311.2" cy="149.9" r="3.3"/>
			<circle class="st2" cx="304.6" cy="151.5" r="1.6"/>
			<circle class="st2" cx="316.7" cy="161.4" r="5.8"/>
			<circle class="st1" cx="308.4" cy="182.5" r="3.8"/>
			<circle class="st1" cx="330.8" cy="134.1" r="3.8"/>
			<circle class="st1" cx="347.9" cy="158.9" r="3.8"/>
			<circle class="st1" cx="317.7" cy="134.1" r="2.3"/>
			<circle class="st1" cx="347.9" cy="153.8" r="2.3"/>
			<circle class="st1" cx="323.5" cy="183.7" r="2.3"/>
			<circle class="st1" cx="270" cy="153.8" r="3.8"/>
			<circle class="st1" cx="270" cy="161.6" r="5.6"/>
			<circle class="st1" cx="317.7" cy="180.5" r="5.6"/>
		</g>
		<g>
			<path class="st0" d="M437.5,187h-53.9c-6.6,0-12-5.4-12-12v-25.6c0-6.6,5.4-12,12-12h53.9c6.6,0,12,5.4,12,12V175
				C449.5,181.6,444.1,187,437.5,187z"/>
			<path class="st1" d="M432.5,182.4h-53.9c-6.6,0-12-5.4-12-12v-25.6c0-6.6,5.4-12,12-12h53.9c6.6,0,12,5.4,12,12v25.6
				C444.5,177,439.1,182.4,432.5,182.4z"/>
			<circle class="st1" cx="387.5" cy="132.9" r="5.2"/>
			<circle class="st2" cx="380.1" cy="147" r="3.3"/>
			<circle class="st2" cx="407.8" cy="148.7" r="3.3"/>
			<circle class="st2" cx="401.2" cy="150.3" r="1.6"/>
			<circle class="st2" cx="413.3" cy="160.2" r="5.8"/>
			<circle class="st1" cx="405.1" cy="181.2" r="3.8"/>
			<circle class="st1" cx="427.4" cy="132.9" r="3.8"/>
			<circle class="st1" cx="444.5" cy="157.7" r="3.8"/>
			<circle class="st1" cx="414.3" cy="132.9" r="2.3"/>
			<circle class="st1" cx="444.5" cy="152.5" r="2.3"/>
			<circle class="st1" cx="420.2" cy="182.4" r="2.3"/>
			<circle class="st1" cx="366.6" cy="152.5" r="3.8"/>
			<circle class="st1" cx="366.6" cy="160.4" r="5.6"/>
			<circle class="st1" cx="414.3" cy="179.3" r="5.6"/>
		</g>
		<g>
			<path class="st0" d="M439.9,111.4H386c-6.6,0-12-5.4-12-12V73.8c0-6.6,5.4-12,12-12h53.9c6.6,0,12,5.4,12,12v25.6
				C451.9,106,446.5,111.4,439.9,111.4z"/>
			<path class="st1" d="M434.9,106.9H381c-6.6,0-12-5.4-12-12V69.3c0-6.6,5.4-12,12-12h53.9c6.6,0,12,5.4,12,12v25.6
				C446.9,101.5,441.5,106.9,434.9,106.9z"/>
			<circle class="st1" cx="389.9" cy="57.3" r="5.2"/>
			<circle class="st2" cx="382.5" cy="71.4" r="3.3"/>
			<circle class="st2" cx="410.2" cy="73.1" r="3.3"/>
			<circle class="st2" cx="403.6" cy="74.7" r="1.6"/>
			<circle class="st2" cx="415.7" cy="84.6" r="5.8"/>
			<circle class="st1" cx="407.5" cy="105.6" r="3.8"/>
			<circle class="st1" cx="429.8" cy="57.3" r="3.8"/>
			<circle class="st1" cx="446.9" cy="82.1" r="3.8"/>
			<circle class="st1" cx="416.7" cy="57.3" r="2.3"/>
			<circle class="st1" cx="446.9" cy="76.9" r="2.3"/>
			<circle class="st1" cx="422.5" cy="106.9" r="2.3"/>
			<circle class="st1" cx="369" cy="76.9" r="3.8"/>
			<circle class="st1" cx="369" cy="84.8" r="5.6"/>
			<circle class="st1" cx="416.7" cy="103.7" r="5.6"/>
		</g>
	</g>
	<g id="press">
	</g>
	<g id="sneg_1_">
		<g>
			
				<linearGradient id="SVGID_1_" gradientUnits="userSpaceOnUse" x1="397.7162" y1="218.8125" x2="415.4918" y2="168.4481" gradientTransform="matrix(1 0 0 -1 0 250)">
				<stop  offset="0" style="stop-color:#404B71"/>
				<stop  offset="0.6044" style="stop-color:#3C476E"/>
				<stop  offset="1" style="stop-color:#354169"/>
			</linearGradient>
			<path class="st3" d="M401.8,76.7l-1.9-7.1l1.7-3l0.2,0.9c0.3,0.9,1.2,1.5,2.2,1.2c0.2,0,0.3-0.1,0.4-0.2c0.7-0.4,1-1.2,0.8-2
				l-1.1-4.3l2.1-3.7l2.1,3.7l-1.2,4.3c-0.3,0.9,0.3,1.9,1.2,2.2c0.5,0.1,0.9,0,1.3-0.2s0.7-0.6,0.8-1.1l0.2-0.9l1.7,3l-1.9,7.1
				c-0.3,0.9,0.3,1.9,1.2,2.2c0.5,0.1,0.9,0,1.3-0.2s0.7-0.6,0.8-1.1l1-3.7l2.8,4.8c0.5,0.8,1.6,1.1,2.4,0.6s1.1-1.6,0.6-2.4
				l-2.8-4.8l3.7,1c0.5,0.1,0.9,0,1.3-0.2s0.7-0.6,0.8-1.1c0.3-0.9-0.3-1.9-1.2-2.2l-7.1-1.9l-1.7-3l0.9,0.2
				c0.5,0.1,0.9,0.1,1.3-0.2c0.4-0.2,0.7-0.6,0.8-1.1c0.3-0.9-0.3-1.9-1.2-2.2l-4.3-1.1l-2.1-3.7h4.2l3.1,3.1
				c0.6,0.6,1.5,0.7,2.1,0.3c0.1-0.1,0.3-0.2,0.4-0.3c0.7-0.7,0.7-1.8,0-2.5l-0.6-0.6h3.5l5.2,5.2c0.6,0.6,1.5,0.7,2.1,0.3
				c0.1-0.1,0.3-0.2,0.4-0.3c0.7-0.7,0.7-1.8,0-2.5l-2.7-2.7h5.6c0.3,0,0.6-0.1,0.9-0.2c0.5-0.3,0.9-0.9,0.9-1.5
				c0-1-0.8-1.8-1.8-1.8h-5.6l2.7-2.7c0.7-0.7,0.7-1.8,0-2.5s-1.8-0.7-2.5,0l-5.2,5.2h-3.5l0.6-0.6c0.7-0.7,0.7-1.8,0-2.5
				s-1.8-0.7-2.5,0l-3.1,3.1h-4.2l2.1-3.7l4.3-1.1c0.2,0,0.3-0.1,0.4-0.2c0.7-0.4,1-1.2,0.8-2c-0.3-0.9-1.2-1.5-2.2-1.2l-0.9,0.2
				l1.7-3l7.1-1.9c0.2,0,0.3-0.1,0.4-0.2c0.7-0.4,1-1.2,0.8-2c-0.3-0.9-1.2-1.5-2.2-1.2l-3.7,1l2.8-4.8c0.5-0.8,0.2-1.9-0.6-2.4
				c-0.8-0.5-1.9-0.2-2.4,0.6l-2.8,4.8l-1-3.7c-0.3-0.9-1.2-1.5-2.2-1.2c-0.9,0.3-1.5,1.2-1.2,2.2l1.9,7.1l-1.7,3l-0.2-0.9
				c-0.3-0.9-1.2-1.5-2.2-1.2c-0.9,0.3-1.5,1.2-1.2,2.2l1.1,4.3l-2.1,3.7l-2.1-3.7l1.1-4.3c0.3-0.9-0.3-1.9-1.2-2.2
				c-0.9-0.3-1.9,0.3-2.2,1.2l-0.2,0.9l-1.7-3l1.9-7.1c0.3-0.9-0.3-1.9-1.2-2.2c-0.9-0.3-1.9,0.3-2.2,1.2l-1,3.7l-2.8-4.8
				c-0.5-0.8-1.6-1.1-2.4-0.6c-0.8,0.5-1.1,1.6-0.6,2.4l2.8,4.8l-3.7-1c-0.9-0.3-1.9,0.3-2.2,1.2c-0.3,0.9,0.3,1.9,1.2,2.2l7.1,1.9
				l1.7,3l-0.9-0.2c-0.9-0.3-1.9,0.3-2.2,1.2c-0.3,0.9,0.3,1.9,1.2,2.2l4.3,1.1l2.1,3.7H399l-3.1-3.1c-0.7-0.7-1.8-0.7-2.5,0
				s-0.7,1.8,0,2.5L394,53h-3.5l-5.2-5.2c-0.7-0.7-1.8-0.7-2.5,0s-0.7,1.8,0,2.5l2.7,2.7h-5.6c-1,0-1.8,0.8-1.8,1.8s0.8,1.8,1.8,1.8
				h5.6l-2.7,2.7c-0.7,0.7-0.7,1.8,0,2.5c0.6,0.6,1.5,0.7,2.1,0.3c0.1-0.1,0.3-0.2,0.4-0.3l5.2-5.2h3.5l-0.6,0.6
				c-0.7,0.7-0.7,1.8,0,2.5c0.6,0.6,1.5,0.7,2.1,0.3c0.1-0.1,0.3-0.2,0.4-0.3l3.1-3.1h4.2l-2.1,3.7l-4.3,1.1
				c-0.9,0.3-1.5,1.2-1.2,2.2c0.3,0.9,1.2,1.5,2.2,1.2l0.9-0.2l-1.7,3l-7.1,1.9c-0.9,0.3-1.5,1.2-1.2,2.2c0.3,0.9,1.2,1.5,2.2,1.2
				l3.7-1l-2.8,4.8c-0.5,0.8-0.2,1.9,0.6,2.4c0.6,0.3,1.2,0.3,1.8,0c0.3-0.1,0.5-0.4,0.6-0.6l2.8-4.8l1,3.7c0.3,0.9,1.2,1.5,2.2,1.2
				c0.2,0,0.3-0.1,0.4-0.2C401.7,78.3,402.1,77.4,401.8,76.7z"/>
			
				<linearGradient id="SVGID_2_" gradientUnits="userSpaceOnUse" x1="265.4565" y1="147.7232" x2="270.831" y2="132.4956" gradientTransform="matrix(1 0 0 -1 0 250)">
				<stop  offset="0" style="stop-color:#404B71"/>
				<stop  offset="0.6044" style="stop-color:#3C476E"/>
				<stop  offset="1" style="stop-color:#354169"/>
			</linearGradient>
			<path class="st4" d="M267.2,115.9l-0.6-2.1l0.5-0.9l0.1,0.3c0.1,0.3,0.4,0.5,0.7,0.4c0,0,0.1,0,0.1-0.1c0.2-0.1,0.3-0.4,0.2-0.6
				l-0.3-1.3l0.6-1.1l0.6,1.1l-0.3,1.3c-0.1,0.3,0.1,0.6,0.4,0.7c0.1,0,0.3,0,0.4-0.1c0.1-0.1,0.2-0.2,0.2-0.3l0.1-0.3l0.5,0.9
				l-0.6,2.1c-0.1,0.3,0.1,0.6,0.4,0.7c0.1,0,0.3,0,0.4-0.1c0.1-0.1,0.2-0.2,0.2-0.3l0.3-1.1l0.8,1.5c0.1,0.3,0.5,0.3,0.7,0.2
				c0.3-0.1,0.3-0.5,0.2-0.7l-0.8-1.5l1.1,0.3c0.1,0,0.3,0,0.4-0.1s0.2-0.2,0.2-0.3c0.1-0.3-0.1-0.6-0.4-0.7l-2.1-0.6l-0.5-0.9
				l0.3,0.1c0.1,0,0.3,0,0.4-0.1c0.1-0.1,0.2-0.2,0.2-0.3c0.1-0.3-0.1-0.6-0.4-0.7l-1.3-0.3l-0.6-1.1h1.3l0.9,0.9
				c0.2,0.2,0.4,0.2,0.6,0.1l0.1-0.1c0.2-0.2,0.2-0.5,0-0.8l-0.2-0.2h1.1l1.6,1.6c0.2,0.2,0.4,0.2,0.6,0.1c0,0,0.1,0,0.1-0.1
				c0.2-0.2,0.2-0.5,0-0.8l-0.8-0.8h1.7c0.1,0,0.2,0,0.3-0.1c0.2-0.1,0.3-0.3,0.3-0.5c0-0.3-0.2-0.5-0.5-0.5h-1.7l0.8-0.8
				c0.2-0.2,0.2-0.5,0-0.8c-0.2-0.2-0.5-0.2-0.8,0l-1.6,1.6H272l0.2-0.2c0.2-0.2,0.2-0.5,0-0.8c-0.2-0.2-0.5-0.2-0.8,0l-0.9,0.9
				h-1.3l0.6-1.1l1.3-0.3c0,0,0.1,0,0.1-0.1c0.2-0.1,0.3-0.4,0.2-0.6c-0.1-0.3-0.4-0.5-0.7-0.4l-0.3,0.1l0.5-0.9l2.1-0.6
				c0,0,0.1,0,0.1-0.1c0.2-0.1,0.3-0.4,0.2-0.6c-0.1-0.3-0.4-0.5-0.7-0.4l-1.1,0.3l0.8-1.5c0.1-0.3,0.1-0.6-0.2-0.7
				s-0.6-0.1-0.7,0.2l-0.8,1.5l-0.3-1.1c-0.1-0.3-0.4-0.5-0.7-0.4s-0.5,0.4-0.4,0.7l0.6,2.1l-0.5,0.9l-0.1-0.3
				c-0.1-0.3-0.4-0.5-0.7-0.4c-0.3,0.1-0.5,0.4-0.4,0.7l0.3,1.3l-0.6,1.1l-0.6-1.1l0.3-1.3c0.1-0.3-0.1-0.6-0.4-0.7
				c-0.3-0.1-0.6,0.1-0.7,0.4l-0.1,0.3l-0.5-0.9l0.6-2.1c0.1-0.3-0.1-0.6-0.4-0.7c-0.3-0.1-0.6,0.1-0.7,0.4l-0.3,1.1l-0.8-1.5
				c-0.1-0.3-0.5-0.3-0.7-0.2c-0.3,0.1-0.3,0.5-0.2,0.7l0.8,1.5l-1.1-0.3c-0.3-0.1-0.6,0.1-0.7,0.4c-0.1,0.3,0.1,0.6,0.4,0.7
				l2.1,0.6l0.5,0.9l-0.3-0.1c-0.3-0.1-0.6,0.1-0.7,0.4c-0.1,0.3,0.1,0.6,0.4,0.7l1.3,0.3l0.6,1.1h-1.3l-0.9-0.9
				c-0.2-0.2-0.5-0.2-0.8,0c-0.2,0.2-0.2,0.5,0,0.8l0.2,0.2h-1.1l-1.6-1.6c-0.2-0.2-0.5-0.2-0.8,0c-0.2,0.2-0.2,0.5,0,0.8l0.8,0.8
				h-1.7c-0.3,0-0.5,0.2-0.5,0.5s0.2,0.5,0.5,0.5h1.7l-0.8,0.8c-0.2,0.2-0.2,0.5,0,0.8c0.2,0.2,0.4,0.2,0.6,0.1c0,0,0.1,0,0.1-0.1
				l1.6-1.6h1.1l-0.2,0.2c-0.2,0.2-0.2,0.5,0,0.8c0.2,0.2,0.4,0.2,0.6,0.1l0.1-0.1l0.9-0.9h1.3l0.6,1.2l-1.3,0.3
				c-0.3,0.1-0.5,0.4-0.4,0.7c0.1,0.3,0.4,0.5,0.7,0.4l0.3-0.1l-0.5,0.9l-2.1,0.6c-0.3,0.1-0.5,0.4-0.4,0.7c0.1,0.3,0.4,0.5,0.7,0.4
				l1.1-0.3l-0.8,1.5c-0.1,0.3-0.1,0.6,0.2,0.7c0.2,0.1,0.4,0.1,0.5,0c0.1,0,0.1-0.1,0.2-0.2l0.8-1.5l0.3,1.1
				c0.1,0.3,0.4,0.5,0.7,0.4c0,0,0.1,0,0.1-0.1C267.1,116.3,267.3,116.1,267.2,115.9z"/>
			
				<linearGradient id="SVGID_3_" gradientUnits="userSpaceOnUse" x1="193.8597" y1="120.6102" x2="205.4455" y2="87.7838" gradientTransform="matrix(1 0 0 -1 0 250)">
				<stop  offset="0" style="stop-color:#404B71"/>
				<stop  offset="0.6044" style="stop-color:#3C476E"/>
				<stop  offset="1" style="stop-color:#354169"/>
			</linearGradient>
			<path class="st5" d="M196.4,159.1l-1.2-4.6l1.1-2l0.2,0.6c0.2,0.6,0.8,1,1.4,0.8c0.1,0,0.2-0.1,0.3-0.1c0.4-0.3,0.7-0.8,0.5-1.3
				l-0.7-2.8l1.4-2.4l1.4,2.4l-0.8,2.8c-0.2,0.6,0.2,1.2,0.8,1.4c0.3,0.1,0.6,0,0.9-0.1s0.5-0.4,0.5-0.7l0.2-0.6l1.1,2l-1.2,4.6
				c-0.2,0.6,0.2,1.2,0.8,1.4c0.3,0.1,0.6,0,0.9-0.1s0.5-0.4,0.5-0.7l0.6-2.4l1.8,3.2c0.3,0.5,1,0.7,1.6,0.4c0.5-0.3,0.7-1,0.4-1.6
				l-1.8-3.2l2.4,0.6c0.3,0.1,0.6,0,0.9-0.1c0.3-0.1,0.5-0.4,0.5-0.7c0.2-0.6-0.2-1.2-0.8-1.4l-4.6-1.2l-1.1-2l0.6,0.2
				c0.3,0.1,0.6,0,0.9-0.1c0.3-0.1,0.5-0.4,0.5-0.7c0.2-0.6-0.2-1.2-0.8-1.4l-2.8-0.7l-1.4-2.4h2.8l2,2c0.4,0.4,0.9,0.4,1.4,0.2
				c0.1-0.1,0.2-0.1,0.2-0.2c0.4-0.4,0.4-1.2,0-1.6l-0.4-0.4h2.3l3.4,3.4c0.4,0.4,0.9,0.4,1.4,0.2c0.1-0.1,0.2-0.1,0.2-0.2
				c0.4-0.4,0.4-1.2,0-1.6l-1.8-1.8h3.6c0.2,0,0.4-0.1,0.6-0.2c0.3-0.2,0.6-0.6,0.6-1c0-0.6-0.5-1.2-1.2-1.2h-3.6l1.8-1.8
				c0.4-0.4,0.4-1.2,0-1.6c-0.4-0.5-1.2-0.4-1.6,0l-3.4,3.4h-2.3l0.4-0.4c0.4-0.4,0.4-1.2,0-1.6c-0.5-0.4-1.2-0.4-1.6,0l-2,2h-2.8
				l1.4-2.4l2.8-0.7c0.1,0,0.2-0.1,0.3-0.1c0.4-0.3,0.7-0.8,0.5-1.3c-0.2-0.6-0.8-1-1.4-0.8l-0.6,0.2l1.1-2l4.6-1.2
				c0.1,0,0.2-0.1,0.3-0.1c0.4-0.3,0.7-0.8,0.5-1.3c-0.2-0.6-0.8-1-1.4-0.8l-2.4,0.6l1.8-3.2c0.3-0.6,0.1-1.3-0.4-1.6
				s-1.3-0.1-1.6,0.4l-1.8,3.2l-0.6-2.4c-0.2-0.6-0.8-1-1.4-0.8c-0.6,0.2-1,0.8-0.8,1.4l1.2,4.6l-1.1,2l-0.2-0.6
				c-0.2-0.6-0.8-1-1.4-0.8c-0.6,0.2-1,0.8-0.8,1.4l0.7,2.8l-1.4,2.4l-1.4-2.4l0.7-2.8c0.2-0.6-0.2-1.2-0.8-1.4
				c-0.6-0.2-1.2,0.2-1.4,0.8l-0.2,0.6l-1.1-2l1.2-4.6c0.2-0.6-0.2-1.2-0.8-1.4s-1.2,0.2-1.4,0.8l-0.6,2.4l-1.8-3.2
				c-0.3-0.5-1-0.7-1.6-0.4s-0.7,1-0.4,1.6l1.8,3.2l-2.4-0.6c-0.6-0.2-1.2,0.2-1.4,0.8c-0.2,0.6,0.2,1.2,0.8,1.4l4.6,1.2l1.1,2
				l-0.6-0.2c-0.6-0.2-1.2,0.2-1.4,0.8c-0.2,0.6,0.2,1.2,0.8,1.4l2.8,0.7l1.4,2.4h-2.8l-2-2c-0.4-0.5-1.2-0.4-1.6,0
				c-0.4,0.5-0.4,1.2,0,1.6l0.4,0.4h-2.3l-3.4-3.4c-0.4-0.4-1.2-0.4-1.6,0s-0.4,1.2,0,1.6l1.8,1.8h-3.6c-0.6,0-1.1,0.5-1.1,1.1
				s0.5,1.1,1.1,1.1h3.6l-1.8,1.8c-0.4,0.5-0.4,1.2,0,1.6c0.4,0.4,0.9,0.4,1.4,0.2c0.1,0,0.2-0.1,0.2-0.2l3.4-3.4h2.3l-0.4,0.4
				c-0.4,0.4-0.4,1.2,0,1.6c0.4,0.4,0.9,0.4,1.4,0.2c0.1,0,0.2-0.1,0.2-0.2l2-2h2.8l-1.4,2.4l-2.8,0.7c-0.6,0.2-1,0.8-0.8,1.4
				c0.2,0.6,0.8,1,1.4,0.8l0.6-0.2l-1.1,2l-4.6,1.2c-0.6,0.2-1,0.8-0.8,1.4c0.2,0.6,0.8,1,1.4,0.8l2.4-0.6l-1.8,3.2
				c-0.3,0.6-0.1,1.3,0.4,1.6c0.4,0.2,0.8,0.2,1.2,0c0.2-0.1,0.3-0.2,0.4-0.4l1.8-3.2l0.6,2.4c0.2,0.6,0.8,1,1.4,0.8
				c0.1,0,0.2-0.1,0.3-0.1C196.3,160.1,196.6,159.6,196.4,159.1z"/>
			
				<linearGradient id="SVGID_4_" gradientUnits="userSpaceOnUse" x1="324.0864" y1="117.9872" x2="356.4392" y2="42.2678" gradientTransform="matrix(1 0 0 -1 0 250)">
				<stop  offset="0" style="stop-color:#404B71"/>
				<stop  offset="0.6044" style="stop-color:#3C476E"/>
				<stop  offset="1" style="stop-color:#354169"/>
			</linearGradient>
			<path class="st6" d="M376.8,166h-7l3.4-3.4c0.9-0.9,0.9-2.3,0-3.1c-0.9-0.9-2.3-0.9-3.1,0l-6.5,6.5h-4.4l1.9-1.9
				c0.9-0.9,0.9-2.3,0-3.1c-0.9-0.9-2.3-0.9-3.1,0l-5.1,5.1h-4.3l0.1-0.1c0.8-0.8,0.9-2.2,0.1-3c-0.3-1.1-1.5-1.8-2.7-1.5l-0.2,0.1
				l2.1-3.7l6.9-1.9c0.2,0,0.4-0.1,0.5-0.2c0.8-0.5,1.3-1.5,1-2.5c-0.3-1.2-1.5-1.9-2.7-1.6l-2.6,0.7l2.2-3.8l8.9-2.4
				c0.2-0.1,0.4-0.1,0.5-0.2c0.8-0.5,1.3-1.5,1-2.5c-0.3-1.2-1.5-1.9-2.7-1.6l-4.6,1.2l3.5-6.1c0.6-1.1,0.2-2.4-0.8-3
				c-1.1-0.6-2.4-0.2-3,0.8l-3.5,6.1l-1.2-4.6c-0.3-1.2-1.5-1.9-2.7-1.6c-1.2,0.3-1.9,1.5-1.6,2.7l2.4,8.9l-2.2,3.8l-0.7-2.6
				c-0.3-1.2-1.5-1.9-2.7-1.6c-1.2,0.3-1.9,1.5-1.6,2.7l1.9,6.9l-2.1,3.7V159c-0.3-1.2-1.5-1.8-2.6-1.6c-1.1-0.2-2.3,0.4-2.6,1.6
				v0.2l-2.1-3.7l1.9-6.9c0.3-1.2-0.4-2.4-1.6-2.7s-2.4,0.4-2.7,1.6l-0.7,2.6l-2.2-3.8l2.4-8.9c0.3-1.2-0.4-2.4-1.6-2.7
				s-2.4,0.4-2.7,1.6l-1.2,4.6l-3.5-6.1c-0.6-1.1-2-1.4-3-0.8c-1.1,0.6-1.4,2-0.8,3l3.5,6.1l-4.6-1.2c-1.2-0.3-2.4,0.4-2.7,1.6
				c-0.3,1.2,0.4,2.4,1.6,2.7l8.9,2.4l2.2,3.8l-2.6-0.7c-1.2-0.3-2.4,0.4-2.7,1.6c-0.3,1.2,0.4,2.4,1.6,2.7l6.9,1.9l2.1,3.7h-0.2
				c-1.1-0.3-2.3,0.3-2.6,1.4c-0.9,0.9-0.8,2.3,0,3.1l0.1,0.1h-4.3l-5.1-5.1c-0.9-0.9-2.3-0.9-3.1,0c-0.9,0.9-0.9,2.3,0,3.1l1.9,1.9
				h-4.4l-6.5-6.5c-0.9-0.9-2.3-0.9-3.1,0c-0.9,0.9-0.9,2.3,0,3.1l3.4,3.4h-7c-1.2,0-2.2,1-2.2,2.2s1,2.2,2.2,2.2h7l-3.4,3.4
				c-0.9,0.9-0.9,2.3,0,3.1c0.7,0.7,1.8,0.8,2.7,0.4c0.2-0.1,0.3-0.2,0.5-0.4l6.5-6.5h4.4l-1.9,1.9c-0.9,0.9-0.9,2.3,0,3.1
				c0.7,0.7,1.8,0.8,2.7,0.4c0.2-0.1,0.3-0.2,0.5-0.4l5.1-5.1h4.3l-0.1,0.1c-0.8,0.8-0.9,2.2-0.1,3c0.3,1.1,1.5,1.8,2.7,1.5h0.2
				l-2.1,3.7l-6.9,1.9c-1.2,0.3-1.9,1.5-1.6,2.7c0.3,1.2,1.5,1.9,2.7,1.6l2.6-0.7L326,188l-8.9,2.4c-1.2,0.3-1.9,1.5-1.6,2.7
				s1.5,1.9,2.7,1.6l4.6-1.2l-3.5,6.1c-0.6,1.1-0.2,2.4,0.8,3c0.7,0.4,1.6,0.4,2.2,0c0.3-0.2,0.6-0.5,0.8-0.8l3.5-6.1l1.2,4.6
				c0.3,1.2,1.5,1.9,2.7,1.6c0.2-0.1,0.4-0.1,0.5-0.2c0.8-0.5,1.3-1.5,1-2.5l-2.4-8.9l2.2-3.8l0.7,2.6c0.3,1.2,1.5,1.9,2.7,1.6
				c0.2,0,0.4-0.1,0.5-0.2c0.8-0.5,1.3-1.5,1-2.5l-1.9-6.9l2.1-3.7v0.2c0.3,1.2,1.5,1.8,2.6,1.6c0.6,0.1,1.1,0,1.6-0.2
				c0.5-0.3,0.9-0.8,1-1.3v-0.2l2.1,3.7l-1.9,6.9c-0.3,1.2,0.4,2.4,1.6,2.7c0.6,0.2,1.2,0.1,1.7-0.2s0.9-0.8,1-1.3l0.7-2.6l2.2,3.8
				l-2.4,8.9c-0.3,1.2,0.4,2.4,1.6,2.7c0.6,0.2,1.2,0.1,1.7-0.2s0.9-0.8,1-1.3l1.2-4.6l3.5,6.1c0.6,1.1,2,1.4,3,0.8
				c1.1-0.6,1.4-2,0.8-3l-3.5-6.1l4.6,1.2c0.6,0.2,1.2,0.1,1.7-0.2s0.9-0.8,1-1.3c0.3-1.2-0.4-2.4-1.6-2.7l-8.9-2.4l-2.2-3.8
				l2.6,0.7c0.6,0.2,1.2,0.1,1.7-0.2s0.9-0.8,1-1.3c0.3-1.2-0.4-2.4-1.6-2.7l-6.9-1.9l-2.1-3.7h0.2c0.6,0.2,1.2,0.1,1.7-0.2
				c0.4-0.3,0.8-0.7,1-1.2c0.9-0.9,0.8-2.3,0-3.1l-0.1-0.1h4.3l5.1,5.1c0.7,0.7,1.8,0.8,2.7,0.4c0.2-0.1,0.3-0.2,0.5-0.4
				c0.9-0.9,0.9-2.3,0-3.1l-1.9-1.9h4.4l6.5,6.5c0.7,0.7,1.8,0.8,2.7,0.4c0.2-0.1,0.3-0.2,0.5-0.4c0.9-0.9,0.9-2.3,0-3.1l-3.4-3.4h7
				c0.4,0,0.8-0.1,1.1-0.3c0.7-0.4,1.1-1.1,1.1-1.9C379,167,378,166,376.8,166z M340.8,170.7c-1.4,0.8-3.1,0.3-3.9-1
				c-0.8-1.4-0.3-3.1,1-3.9c1.4-0.8,3.1-0.3,3.9,1C342.7,168.1,342.2,169.9,340.8,170.7z"/>
			
				<linearGradient id="SVGID_5_" gradientUnits="userSpaceOnUse" x1="278.8116" y1="211.7271" x2="292.178" y2="180.4372" gradientTransform="matrix(1 0 0 -1 0 250)">
				<stop  offset="0" style="stop-color:#404B71"/>
				<stop  offset="0.6044" style="stop-color:#3C476E"/>
				<stop  offset="1" style="stop-color:#354169"/>
			</linearGradient>
			<path class="st7" d="M302.8,54.2h-1.1l0.4-0.6c0.3-0.4,0.2-0.9-0.2-1.1c-0.4-0.3-0.9-0.2-1.1,0.2l-1,1.5h-1.6l2.2-3.2
				c0.3-0.4,0.2-0.9-0.2-1.1c-0.4-0.3-0.9-0.2-1.1,0.2l-2.8,4.1h-1.5l1.3-1.9c0.3-0.4,0.2-0.9-0.2-1.1c-0.4-0.3-0.9-0.2-1.1,0.2
				l-1.9,2.8h-1l0.4-0.6c0.3-0.4,0.2-0.9-0.2-1.1c-0.4-0.3-0.9-0.2-1.1,0.2l-1,1.5h-0.4l-0.9-1.6l0.2-0.3l1.8-0.2
				c0.4,0,0.8-0.4,0.7-0.9c0-0.4-0.4-0.8-0.9-0.7l-0.7,0.1l0.5-0.9l3.4-0.3c0.4,0,0.8-0.4,0.7-0.9c0-0.4-0.4-0.8-0.9-0.7l-2.3,0.2
				l0.7-1.3l5-0.4c0.4,0,0.8-0.4,0.7-0.9c0-0.4-0.4-0.8-0.9-0.7l-3.8,0.3l0.8-1.4l1.8-0.2c0.4,0,0.8-0.4,0.7-0.9
				c0-0.4-0.4-0.8-0.9-0.7l-0.7,0.1l0.6-1c0.2-0.4,0.1-0.9-0.3-1.1c-0.4-0.2-0.9-0.1-1.1,0.3l-0.6,1l-0.3-0.6
				c-0.2-0.4-0.7-0.6-1.1-0.4c-0.4,0.2-0.6,0.7-0.4,1.1l0.8,1.7l-0.8,1.4l-1.6-3.5c-0.2-0.4-0.7-0.6-1.1-0.4
				c-0.4,0.2-0.6,0.7-0.4,1.1l2.1,4.5l-0.7,1.3l-1-2.1c-0.2-0.4-0.7-0.6-1.1-0.4c-0.4,0.2-0.6,0.7-0.4,1.1l1.4,3.1l-0.5,0.9
				l-0.3-0.6c-0.2-0.4-0.7-0.6-1.1-0.4c-0.4,0.2-0.6,0.7-0.4,1.1l0.8,1.7l-0.2,0.3H285l-0.2-0.3l0.8-1.7c0.2-0.4,0-0.9-0.4-1.1
				c-0.4-0.2-0.9,0-1.1,0.4l-0.3,0.6l-0.5-0.9l1.4-3.1c0.2-0.4,0-0.9-0.4-1.1c-0.4-0.2-0.9,0-1.1,0.4l-1,2.1l-0.7-1.3l2.1-4.5
				c0.2-0.4,0-0.9-0.4-1.1c-0.4-0.2-0.9,0-1.1,0.4l-1.6,3.5l-0.8-1.4l0.8-1.7c0.2-0.4,0-0.9-0.4-1.1c-0.4-0.2-0.9,0-1.1,0.4
				l-0.3,0.6l-0.6-1c-0.2-0.4-0.7-0.5-1.1-0.3s-0.5,0.7-0.3,1.1l0.6,1l-0.7-0.1c-0.4,0-0.8,0.3-0.9,0.7c0,0.4,0.3,0.8,0.7,0.9
				l1.8,0.2L279,45l-3.8-0.3c-0.4,0-0.8,0.3-0.9,0.7c0,0.4,0.3,0.8,0.7,0.9l5,0.4l0.7,1.3l-2.3-0.2c-0.4,0-0.8,0.3-0.9,0.7
				c0,0.4,0.3,0.8,0.7,0.9l3.4,0.3l0.5,0.9l-0.7-0.1c-0.4,0-0.8,0.3-0.9,0.7c0,0.4,0.3,0.8,0.7,0.9l1.8,0.2l0.2,0.3l-0.9,1.6h-0.4
				l-1-1.5c-0.3-0.4-0.8-0.5-1.1-0.2c-0.4,0.3-0.5,0.8-0.2,1.1l0.4,0.6h-1l-1.9-2.8c-0.3-0.4-0.8-0.5-1.1-0.2
				c-0.4,0.3-0.5,0.8-0.2,1.1l1.3,1.9h-1.5l-2.8-4.1c-0.3-0.4-0.8-0.5-1.1-0.2c-0.4,0.3-0.5,0.8-0.2,1.1l2.2,3.2h-1.6l-1-1.5
				c-0.3-0.4-0.8-0.5-1.1-0.2c-0.4,0.3-0.5,0.8-0.2,1.1l0.4,0.6h-1.1c-0.4,0-0.8,0.4-0.8,0.8c0,0.4,0.4,0.8,0.8,0.8h1.1l-0.4,0.6
				c-0.3,0.4-0.2,0.9,0.2,1.1c0.1,0.1,0.3,0.1,0.5,0.1c0.3,0,0.5-0.1,0.7-0.3l1-1.5h1.6l-2.2,3.2c-0.3,0.4-0.2,0.9,0.2,1.1
				c0.1,0.1,0.3,0.1,0.5,0.1c0.3,0,0.5-0.1,0.7-0.3l2.8-4.1h1.5l-1.3,1.9c-0.3,0.4-0.2,0.9,0.2,1.1c0.1,0.1,0.3,0.1,0.5,0.1
				c0.3,0,0.5-0.1,0.7-0.3l1.9-2.8h1l-0.4,0.6c-0.3,0.4-0.2,0.9,0.2,1.1c0.1,0.1,0.3,0.1,0.5,0.1c0.3,0,0.5-0.1,0.7-0.3l1-1.5h0.4
				l0.9,1.6l-0.2,0.3l-1.8,0.2c-0.4,0-0.8,0.4-0.7,0.9c0,0.4,0.4,0.7,0.8,0.7c0,0,0,0,0.1,0l0.7-0.1l-0.5,0.9l-3.4,0.3
				c-0.4,0-0.8,0.4-0.7,0.9c0,0.4,0.4,0.7,0.8,0.7c0,0,0,0,0.1,0l2.3-0.2l-0.7,1.3l-5,0.4c-0.4,0-0.8,0.4-0.7,0.9
				c0,0.4,0.4,0.7,0.8,0.7c0,0,0,0,0.1,0l3.8-0.3l-0.8,1.4l-1.8,0.2c-0.4,0-0.8,0.4-0.7,0.9c0,0.4,0.4,0.7,0.8,0.7c0,0,0,0,0.1,0
				l0.7-0.1l-0.6,1c-0.2,0.4-0.1,0.9,0.3,1.1c0.1,0.1,0.3,0.1,0.4,0.1c0.3,0,0.6-0.1,0.7-0.4l0.6-1l0.3,0.6c0.1,0.3,0.4,0.5,0.7,0.5
				c0.1,0,0.2,0,0.3-0.1c0.4-0.2,0.6-0.7,0.4-1.1l-0.8-1.7l0.8-1.4l1.6,3.5c0.1,0.3,0.4,0.5,0.7,0.5c0.1,0,0.2,0,0.3-0.1
				c0.4-0.2,0.6-0.7,0.4-1.1l-2.1-4.5l0.7-1.3l1,2.1c0.1,0.3,0.4,0.5,0.7,0.5c0.1,0,0.2,0,0.3-0.1c0.4-0.2,0.6-0.7,0.4-1.1l-1.4-3.1
				l0.5-0.9l0.3,0.6c0.1,0.3,0.4,0.5,0.7,0.5c0.1,0,0.2,0,0.3-0.1c0.4-0.2,0.6-0.7,0.4-1.1l-0.8-1.7L285,58h1.9l0.2,0.3l-0.8,1.7
				c-0.2,0.4,0,0.9,0.4,1.1c0.1,0.1,0.2,0.1,0.3,0.1c0.3,0,0.6-0.2,0.7-0.5l0.3-0.6l0.5,0.9l-1.4,3.1c-0.2,0.4,0,0.9,0.4,1.1
				c0.1,0.1,0.2,0.1,0.3,0.1c0.3,0,0.6-0.2,0.7-0.5l1-2.1l0.7,1.3l-2.1,4.5c-0.2,0.4,0,0.9,0.4,1.1c0.1,0.1,0.2,0.1,0.3,0.1
				c0.3,0,0.6-0.2,0.7-0.5l1.6-3.5l0.8,1.4l-0.8,1.7c-0.2,0.4,0,0.9,0.4,1.1c0.1,0.1,0.2,0.1,0.3,0.1c0.3,0,0.6-0.2,0.7-0.5l0.3-0.6
				l0.6,1c0.2,0.3,0.4,0.4,0.7,0.4c0.1,0,0.3,0,0.4-0.1c0.4-0.2,0.5-0.7,0.3-1.1l-0.6-1l0.7,0.1c0,0,0,0,0.1,0
				c0.4,0,0.8-0.3,0.8-0.7c0-0.4-0.3-0.8-0.7-0.9l-1.8-0.2l-0.8-1.4l3.8,0.3c0,0,0,0,0.1,0c0.4,0,0.8-0.3,0.8-0.7
				c0-0.4-0.3-0.8-0.7-0.9l-5-0.4l-0.7-1.3l2.3,0.2c0,0,0,0,0.1,0c0.4,0,0.8-0.3,0.8-0.7s-0.3-0.8-0.7-0.9l-3.4-0.3l-0.5-0.9
				l0.7,0.1c0,0,0,0,0.1,0c0.4,0,0.8-0.3,0.8-0.7s-0.3-0.8-0.7-0.9l-1.8-0.2l-0.2-0.3l0.9-1.6h0.4l1,1.5c0.2,0.2,0.4,0.3,0.7,0.3
				c0.2,0,0.3,0,0.5-0.1c0.4-0.3,0.5-0.8,0.2-1.1l-0.4-0.6h1l1.9,2.8c0.2,0.2,0.4,0.3,0.7,0.3c0.2,0,0.3,0,0.5-0.1
				c0.4-0.3,0.5-0.8,0.2-1.1l-1.3-1.9h1.5l2.8,4.1c0.2,0.2,0.4,0.3,0.7,0.3c0.2,0,0.3,0,0.5-0.1c0.4-0.3,0.5-0.8,0.2-1.1l-2.2-3.2
				h1.6l1,1.5c0.2,0.2,0.4,0.3,0.7,0.3c0.2,0,0.3,0,0.5-0.1c0.4-0.3,0.5-0.8,0.2-1.1l-0.4-0.6h1.1c0.4,0,0.8-0.4,0.8-0.8
				C303.6,54.6,303.3,54.2,302.8,54.2z M285.2,56.6l-0.9-1.6l0.9-1.6h1.9L288,55l-0.9,1.6H285.2z"/>
			<circle class="st1" cx="317" cy="34.2" r="3.8"/>
			<circle class="st1" cx="177.2" cy="105.7" r="3.8"/>
			<circle class="st1" cx="182.7" cy="120.2" r="1.7"/>
			<circle class="st1" cx="169.6" cy="128.9" r="1.7"/>
			<circle class="st1" cx="303.6" cy="30.4" r="1.7"/>
			<circle class="st1" cx="334.3" cy="70.3" r="4.2"/>
			<circle class="st1" cx="366.5" cy="207.9" r="4.2"/>
			<circle class="st1" cx="357.5" cy="81.3" r="3.1"/>
			<circle class="st1" cx="351.5" cy="90.7" r="1.7"/>
			<circle class="st1" cx="322.4" cy="79.6" r="1.7"/>
			<circle class="st1" cx="410.8" cy="105.7" r="1.7"/>
			<circle class="st1" cx="376.5" cy="81.3" r="1.7"/>
			<circle class="st1" cx="369.8" cy="94.1" r="1.7"/>
			<circle class="st1" cx="368.1" cy="81.1" r="1.7"/>
			<circle class="st1" cx="376.5" cy="70.3" r="1.7"/>
			<circle class="st1" cx="421.2" cy="83" r="1.7"/>
			<circle class="st1" cx="426.2" cy="76.2" r="1.7"/>
			<circle class="st1" cx="373.2" cy="198.4" r="1.7"/>
			<circle class="st1" cx="385.8" cy="196.7" r="1.7"/>
			<circle class="st1" cx="378.2" cy="206.2" r="1.7"/>
			<circle class="st1" cx="342.6" cy="68.6" r="1.7"/>
			<circle class="st1" cx="349.8" cy="76.2" r="1.7"/>
		</g>
	</g>
</g>
<g id="snow">
</g>
</svg>
