<?xml version="1.0" encoding="utf-8"?>
<!-- Generator: Adobe Illustrator 19.0.0, SVG Export Plug-In . SVG Version: 6.00 Build 0)  -->
<svg version="1.1" xmlns="http://www.w3.org/2000/svg" xmlns:xlink="http://www.w3.org/1999/xlink" x="0px" y="0px"
	 viewBox="0 0 390 246" style="enable-background:new 0 0 390 246;" xml:space="preserve">
<style type="text/css">
	.st0{fill:#EFEFEF;}
	.st1{fill:#DDDDDD;}
	.st2{fill:#E0E0E0;}
	.st3{fill:#FFFFFF;}
	.st4{fill:#B66FAD;}
	.st5{fill:#62BA47;}
	.st6{fill-rule:evenodd;clip-rule:evenodd;fill:#B66FAD;}
	.st7{fill-rule:evenodd;clip-rule:evenodd;fill:#62BA47;}
	.st8{fill:#62BA46;}
	.st9{fill:#814195;}
	.st10{fill-rule:evenodd;clip-rule:evenodd;fill:#814195;}
	.st11{fill:#712F8F;}
	.st12{fill-rule:evenodd;clip-rule:evenodd;fill:#712F8F;}
</style>
<g id="Layer_2">
</g>
<g id="kolba_3">
</g>
<g id="kolby">
</g>
<g id="doma">
</g>
<g id="car">
</g>
<g id="butylka_3">
</g>
<g id="butylka_2">
</g>
<g id="tvorog">
	<path class="st0" d="M172.3,48.9h-17.6h-7.2H81.6h-7.1H56.8l7.6,49.8l0,0c0.7,4.9,5,8.7,10.1,8.7h80.1c5.5,0,10-4.3,10.2-9.8
		L172.3,48.9z"/>
	<path class="st1" d="M154.6,48.9h-7.2h-32.9v58.5h40.1c5.5,0,10-4.3,10.2-9.8l7.4-48.8H154.6z"/>
	<path class="st2" d="M173.1,45.5c0,1.3-1.1,2.4-2.4,2.4H58.2c-1.3,0-2.4-1.1-2.4-2.4l0,0c0-1.3,1.1-2.4,2.4-2.4h112.5
		C172,43.2,173.1,44.2,173.1,45.5L173.1,45.5z"/>
	<path class="st3" d="M175.9,48.9c0,1.3-1.1,2.4-2.4,2.4H54.8c-1.3,0-2.4-1.1-2.4-2.4l0,0c0-1.3,1.1-2.4,2.4-2.4h118.7
		C174.8,46.5,175.9,47.6,175.9,48.9L175.9,48.9z"/>
	<g>
		<circle class="st4" cx="115" cy="79.3" r="15.5"/>
		<circle class="st5" cx="102.6" cy="93.1" r="4.9"/>
		<path class="st6" d="M107.6,60.4c0,1.1-0.9,2-2,2c-1.1,0-2-0.9-2-2c0-1.1,0.9-2,2-2C106.7,58.4,107.6,59.3,107.6,60.4L107.6,60.4z
			"/>
		<path class="st7" d="M107.7,67c0,1.4-1.1,2.5-2.5,2.5s-2.5-1.1-2.5-2.5c0-1.4,1.1-2.5,2.5-2.5S107.7,65.6,107.7,67L107.7,67z"/>
		<path class="st7" d="M100.9,63.1c0,0.8-0.7,1.5-1.5,1.5c-0.8,0-1.5-0.7-1.5-1.5c0-0.8,0.7-1.5,1.5-1.5
			C100.2,61.6,100.9,62.3,100.9,63.1L100.9,63.1z"/>
		<g>
			<circle class="st5" cx="128.2" cy="65.2" r="8.5"/>
			<g>
				<path class="st3" d="M126.1,64c-0.7,0.1-0.9,0.9-0.9,1.5l0,0l0,0c0,0.1,0,0.2,0,0.2c0,0.3,0,0.5,0,0.8c0,0.1,0,0.3-0.1,0.3
					c-0.3,0-0.5-0.4-0.5-0.5c-0.2-0.4-0.3-0.9-0.4-1.4c-0.1-0.5-0.1-1-0.2-1.5c0-0.2,0-0.4,0-0.6c0-0.1,0-0.2,0-0.2
					c0-0.1,0-0.1,0-0.1c0.1-0.4-0.5,0-0.6,0.2c-0.6,1-0.4,2.2-0.4,3.2c0,0.3,0,0.6-0.1,0.9c0,0.2-0.1,0.6-0.2,0.7
					c-0.1,0.1-0.3,0-0.4,0c-0.1-0.1-0.2-0.2-0.2-0.4c0-0.2-0.2-0.1-0.3,0c-0.1,0.1-0.3,0.3-0.2,0.5c0.1,0.4,0.4,0.7,0.8,0.6
					c0.6-0.2,0.9-1,1.1-1.5c0.1-0.3,0.1-0.6,0.1-0.9c0.1,0.4,0.2,0.8,0.4,1.2c0.1,0.3,0.4,0.6,0.8,0.5c0.3-0.1,0.5-0.3,0.6-0.7
					c0.1,0.3,0.3,0.5,0.6,0.5c0.4,0,0.7-0.4,0.8-0.7c0.2-0.3,0.2-0.7,0.2-1.1C127,65,126.8,63.9,126.1,64z M126.3,66.4
					c0,0.1,0,0.1-0.1,0.2c-0.1,0-0.2-0.2-0.3-0.3c-0.1-0.2-0.2-0.5-0.2-0.7c0-0.3,0-0.5,0-0.8c0-0.1,0-0.1,0.1-0.2
					c0.4,0.2,0.4,0.7,0.5,1.1C126.4,65.9,126.4,66.2,126.3,66.4z"/>
				<path class="st3" d="M134.6,65c-0.8-0.3-1.2,0.8-1.3,1.3c-0.1,0.5-0.3,1.5,0.4,1.8c0.3,0.1,0.7-0.1,0.9-0.3
					c0.2-0.3,0.4-0.6,0.5-0.9C135.1,66.2,135.3,65.2,134.6,65z M134.1,67.4c0,0.1-0.1,0.1-0.1,0.2c-0.1-0.1-0.2-0.3-0.2-0.4
					c0-0.3,0-0.5,0-0.8c0-0.3,0.1-0.5,0.2-0.8c0-0.1,0.1-0.1,0.1-0.2c0.3,0.3,0.2,0.8,0.1,1.2C134.3,66.9,134.2,67.2,134.1,67.4z"/>
				<path class="st3" d="M132.5,65.1c0.1-0.2,0.3-0.4,0.4-0.6c0.3-0.4,0.6-0.9,0.5-1.4c0-0.5-0.7-0.5-1-0.4
					c-0.5,0.2-0.8,0.8-0.9,1.3c-0.2,0.7-0.3,1.3-0.3,2v0c-0.2,0.3-0.7,0.9-1.1,0.6c-0.1-0.1-0.1-0.2-0.2-0.3
					c0.3-0.3,0.6-0.7,0.8-1.1c0.2-0.3,0.4-0.9,0-1.2c-0.4-0.2-0.8,0-1.1,0.3c-0.2,0.3-0.4,0.7-0.4,1.1c0,0.2,0,0.6,0,0.9
					c-0.2,0.1-0.5,0.2-0.8,0.2c-0.3-0.1-0.4-0.4-0.5-0.6c-0.1-0.3-0.1-0.7,0-1.1c0-0.1,0-0.2,0.1-0.3c0,0,0-0.1,0-0.1
					c0.2,0.1,0.3,0.4,0.3,0.5c0.1,0.3,0.7-0.2,0.7-0.4c-0.1-0.3-0.2-0.5-0.5-0.6c-0.3-0.1-0.6,0.1-0.8,0.3c-0.5,0.5-0.5,1.1-0.5,1.8
					c0,0.4,0.1,0.9,0.4,1.1c0.5,0.3,1.1,0,1.5-0.2c0.1,0.3,0.3,0.5,0.7,0.4c0.5-0.1,0.9-0.3,1.2-0.6c0,0.3,0.1,0.7,0.3,0.9
					c0.4,0.2,0.9,0,1.2-0.4c0.4-0.4,0.5-1.1,0.3-1.6C132.9,65.2,132.7,65.1,132.5,65.1z M129.9,64.8c0-0.1,0.1-0.2,0.1-0.3l0,0
					c0.2,0,0.2,0.3,0.2,0.4c0,0.3-0.2,0.6-0.4,0.8c0-0.1,0-0.1,0-0.1C129.8,65.4,129.8,65.1,129.9,64.8z M132.4,63.4
					c0.1-0.1,0.1-0.2,0.2-0.3c0,0,0,0,0,0c0.3,0.3,0,0.8-0.1,1.1c-0.2,0.3-0.3,0.6-0.6,0.9c0-0.3,0.1-0.6,0.2-0.9
					C132.2,64,132.3,63.7,132.4,63.4z M132.2,66.9c0,0,0,0.1-0.1,0.1c0,0,0,0-0.1,0c-0.2-0.1-0.2-0.5-0.2-0.7c0-0.1,0-0.3,0-0.4
					c0.1-0.1,0.2-0.2,0.2-0.3c0.2-0.1,0.3,0.1,0.3,0.3C132.5,66.2,132.4,66.6,132.2,66.9z"/>
			</g>
		</g>
		<g>
			<path class="st3" d="M104.6,91.7c-0.6,1-1.3,1.9-2,2.8c-0.3,0.4,0.2,0.4,0.4,0.1c0.7-1,1.5-1.9,2.1-3
				C105.4,91.3,104.8,91.5,104.6,91.7L104.6,91.7z"/>
			<path class="st3" d="M103.5,91.5c-0.4,0-0.6,0.4-0.7,0.7c-0.1,0.3,0.1,0.6,0.5,0.6C104,92.8,104.3,91.5,103.5,91.5
				c-0.2,0-0.4,0.4-0.2,0.4c0.2,0,0.3,0.2,0.3,0.3c0,0.1,0,0.1,0,0.2c0,0.1,0,0,0,0c0,0-0.1,0-0.1,0c-0.2,0-0.3-0.2-0.3-0.3
				c0-0.1,0-0.1,0-0.2c0,0,0,0,0,0c0,0,0.1,0,0.1,0C103.5,91.8,103.8,91.4,103.5,91.5z"/>
			<path class="st3" d="M104.6,93.5c-0.4,0-0.6,0.4-0.7,0.7c-0.1,0.3,0.1,0.6,0.5,0.6C105,94.9,105.4,93.6,104.6,93.5
				c-0.2,0-0.4,0.4-0.2,0.4c0.2,0,0.3,0.2,0.3,0.3c0,0.1,0,0.1,0,0.2c0,0,0,0,0,0c0,0-0.1,0-0.1,0c-0.2,0-0.3-0.2-0.3-0.3
				c0-0.1,0-0.1,0-0.2c0,0,0,0,0,0c0,0,0.1,0,0.1,0C104.5,93.9,104.8,93.5,104.6,93.5z"/>
		</g>
		<g>
			<path class="st3" d="M119.8,77.6c-0.4-0.3-1-0.2-1.4,0c0-0.3,0-0.7-0.1-1c0-0.3-0.6-0.1-0.7,0c-0.1,0-0.1,0.1-0.2,0.1
				c-0.1,0.1-0.2,0.2-0.3,0.3c-0.4,1-1.1,0.4-1.3,0.3l0,0c-0.2-0.1-0.4-0.2-0.6-0.2c-1.4,0-1.8,1.7-1.8,2.9c0,0.9,0,2.6,1.2,2.7
				c0.6,0,1.2-0.6,1.4-1c0.3-0.5,0.4-1.2,0.5-1.8c0-0.4,0-1-0.1-1.6c0.3-0.1,0.5-0.2,0.8-0.4c0,1.4,0,2.9-0.1,4.3
				c-0.1,1.2-0.2,2.4-0.4,3.6c0,0.3,0.3,0.2,0.4,0.2c0.2-0.1,0.5-0.3,0.6-0.6c0.1-0.8,0.3-1.7,0.4-2.5c0.4,0,0.8-0.1,1.2-0.3
				c0.8-0.6,1.1-1.6,1.2-2.5C120.5,79.2,120.5,78.2,119.8,77.6z M115.3,81.4c0,0.1-0.1,0.2-0.1,0.3c-0.2-0.1-0.4-0.4-0.4-0.6
				c-0.2-0.4-0.2-0.9-0.2-1.3c0-0.5,0-0.9,0.2-1.4c0-0.1,0.1-0.2,0.1-0.3c0.6,0.5,0.7,1.2,0.6,1.9C115.5,80.4,115.5,80.9,115.3,81.4
				z M118.9,81.9C118.9,81.9,118.9,82,118.9,81.9C118.9,82,118.9,82,118.9,81.9c-0.5,0.1-0.7-0.3-0.6-0.7c0.1-0.7,0.1-1.4,0.1-2.1
				c0,0,0,0,0,0c0-0.2,0-0.4,0.1-0.6c0,0,0,0,0,0c0,0,0,0,0,0c0.1,0,0.3,0.1,0.4,0.3c0.3,0.5,0.4,1.1,0.4,1.6
				C119.3,80.8,119.2,81.5,118.9,81.9z"/>
			<path class="st3" d="M123,78.2c-1.4-0.3-2,1.4-2.2,2.4c-0.2,0.9-0.4,2.6,0.8,2.9c0.6,0.2,1.2-0.3,1.5-0.7
				c0.4-0.5,0.6-1.1,0.7-1.7C124.1,80.2,124.3,78.4,123,78.2z M122.5,82.3c0,0.1-0.1,0.2-0.2,0.3c-0.2-0.1-0.3-0.5-0.4-0.7
				c-0.1-0.4-0.1-0.9,0-1.3c0.1-0.4,0.2-0.9,0.4-1.3c0-0.1,0.1-0.2,0.2-0.3c0.5,0.5,0.5,1.3,0.4,2C122.7,81.5,122.7,81.9,122.5,82.3
				z"/>
			<path class="st3" d="M111.6,78.4c0.2-0.5,0.4-0.9,0.6-1.4c0.3-0.9,0.5-1.7,0.3-2.5c-0.2-0.7-1.5-0.2-1.9,0.2
				c-0.7,0.7-0.9,1.7-1,2.7c-0.1,1,0,2.1,0.2,3.2c-0.2,0.5-0.4,1-0.7,1.4c0,0-0.1,0.1-0.1,0.1c0,0-0.1-0.1-0.1-0.2
				c-0.1-0.2-0.1-0.4-0.1-0.6c-0.2-1.6-0.2-3.2-0.7-4.8c-0.1-0.5-0.5-1.3-1.3-1c-0.6,0.2-1,0.6-1.2,1.1c-0.3-0.5-0.7-0.8-1.5-0.4
				c-0.3,0.2-0.5,0.4-0.7,0.6c0-0.2-0.1-0.5-0.3-0.6c-0.4-0.3-1.3,0.8-1,1.1c0.2,0.2,0.2,0.5,0.3,0.8c0.1,0.6,0.2,1.1,0.3,1.7
				c0.1,0.3,0.1,0.6,0.2,0.9c0.2,1.2,0.4,2.5,0.7,3.7c0,0.1,0.1,0.2,0.1,0.2c0.3,0,0.8-0.7,0.7-1c-0.2-1.1-0.4-2.1-0.5-3.2
				c-0.1-0.5-0.1-0.9-0.1-1.4c0-0.5,0-1,0.1-1.5c0-0.1,0-0.2,0.1-0.2c0.8,0.1,0.9,1.1,1,1.8c0.1,0.6,0.2,1.2,0.3,1.9
				c0.1,0.9,0.3,1.9,0.4,2.8c0,0.1,0.1,0.2,0.2,0.2c0.3,0,0.8-0.7,0.8-1c-0.1-1-0.2-2-0.3-3c0-0.2,0-0.5-0.1-0.7
				c0-0.9,0-1.7,0.1-2.5c0,0,0,0,0-0.1c0.2,0,0.3,0.3,0.4,0.4c0.5,0.9,0.6,1.9,0.7,2.9c0.1,0.6,0.1,1.3,0.2,2
				c0.1,0.4,0.1,0.9,0.3,1.2c0.3,0.4,0.8,0.2,1.1-0.1c0.4-0.3,0.6-0.7,0.9-1.1c0.2,0.6,0.5,1.2,1,1.1c0.9-0.1,1.5-0.8,1.8-1.6
				c0.3-0.9,0.5-2.1-0.3-2.7C112.1,78.4,111.8,78.4,111.6,78.4z M110.6,77.3c0-0.7,0.2-1.5,0.5-2.1c0,0,0,0,0,0
				c0.2,0.1,0.3,0.4,0.3,0.6c0,0.8-0.2,1.5-0.5,2.2c-0.1,0.3-0.2,0.6-0.3,0.8C110.5,78.3,110.5,77.8,110.6,77.3z M111.8,80.7
				c0,0.4,0,0.7-0.2,1.1c0,0,0,0,0,0.1c0,0-0.1,0-0.1,0c-0.2,0-0.4-0.4-0.4-0.5c-0.2-0.4-0.3-0.8-0.3-1.2c0.1-0.2,0.2-0.4,0.3-0.6
				c0.1-0.2,0.3-0.1,0.5,0C111.8,79.8,111.8,80.3,111.8,80.7z"/>
			<path class="st3" d="M127,83.7c-0.1-0.3-0.6-0.1-0.7-0.1c-0.3,0.1-0.5,0.1-0.7-0.1c-0.2-0.1-0.3-0.4-0.4-0.6
				c-0.1-0.8,0.9-1.3,1.5-1.7c0.4-0.3,1-1,0.6-1.7c-0.4-0.7-1.4-0.8-2.1-0.5c-0.2,0.1-0.6,0.3-0.6,0.5c0,0.3,0.5,0.2,0.6,0.2
				c0.3-0.1,0.6,0,0.8,0.3c0.2,0.3,0.1,0.6-0.1,0.8c-0.3,0.4-0.9,0.6-1.2,0.9c-0.3,0.3-0.5,0.6-0.7,0.9c-0.2,0.5,0,1.1,0.4,1.4
				c0.6,0.5,1.4,0.4,2.1,0.1C126.7,84.2,127.1,84,127,83.7z"/>
		</g>
		<path class="st3" d="M101.2,91.3c-0.8,0.1-1.1,1.1-1.2,1.7c-0.1,0.6-0.1,2,0.7,2c0.9,0.1,1.2-1.1,1.3-1.7
			C102.1,92.8,102,91.4,101.2,91.3c-0.2,0-0.7,0.6-0.4,0.7c0.4,0,0.5,0.7,0.6,1c0,0.3,0,0.6,0,0.9c0,0.1,0,0.2-0.1,0.3
			c0,0.1-0.2,0.3,0,0.2c-0.4,0.2-0.6-0.8-0.6-1c0-0.3,0-0.6,0-0.9c0-0.2,0.1-0.3,0.1-0.4c0-0.2,0.1-0.2,0-0.1
			C101.1,91.9,101.5,91.2,101.2,91.3z"/>
		<g>
			<path class="st8" d="M96.2,72.8c-0.1,0-0.1-0.1-0.2-0.2c-0.3-0.1-0.6,0.1-0.9,0.1c-0.7,0-1,0-1.9-0.3c0-0.8,0.4-1.2,0.6-1.8
				c0.2-0.5-0.1-1.1-0.1-1.8c0-0.4,0-0.7,0-1.1c-0.3,0.2-0.1,0.9-0.2,1.3c-0.1-0.5-0.1-1.1-0.2-1.4c-0.1,0.4,0,1,0,1.4
				c-0.1-0.4-0.2-0.9-0.3-1.3c-0.2,0.4,0.1,1,0.1,1.4c-0.2-0.4-0.2-0.8-0.4-1.1c-0.1,0.5,0.2,0.9,0.1,1.2c-0.1-0.3-0.2-0.6-0.5-0.9
				c0,0.3,0.2,0.7,0.3,1c-0.2-0.1-0.3-0.4-0.5-0.4c0,0.3,0.2,0.4,0.3,0.6c-0.1-0.1-0.2-0.3-0.4-0.3c0,0.2,0.2,0.3,0.2,0.5
				c-0.1-0.1-0.2-0.2-0.3-0.2c0,0.2,0.2,0.3,0.2,0.4c0,0-0.2-0.1-0.2,0c0,0,0.2,0.1,0.1,0.1c-0.1,0-0.1,0-0.1,0
				c0,0.1,0.1,0.1,0.1,0.2c0,0-0.1,0-0.1,0c0,0.1,0.1,0.1,0.1,0.2c-0.6,0.7-0.3,1.4-0.4,2.1c0-0.1-0.5-0.2-1-0.4
				c-0.2-0.1-0.3-0.4-0.5-0.5c0,0,0.1,0,0.1-0.1c-0.1,0-0.2-0.1-0.2-0.1c0.1,0,0.2,0,0.2,0c-0.1-0.1-0.4-0.1-0.4-0.2
				c0.2,0,0.3,0.1,0.4,0.1C90.3,71.1,90,71,90,70.8c0.2,0.1,0.4,0.2,0.6,0.1c-0.3-0.1-0.6-0.3-0.7-0.5c0.2,0.1,0.4,0.3,0.6,0.3
				c-0.3-0.1-0.6-0.5-0.9-0.4c0.1,0.3,0.6,0.4,0.7,0.7c-0.2-0.1-0.5-0.3-0.7-0.4c0.1,0.3,0.4,0.4,0.7,0.6c-0.2,0-0.4-0.1-0.6-0.1
				c0.1,0.2,0.4,0.2,0.6,0.4c-0.1-0.1-0.3,0-0.4,0c0,0.2,0.3,0.1,0.4,0.2c-0.1,0-0.3,0-0.3,0.1c0.1,0.1,0.3,0,0.3,0.1
				c-0.1,0-0.2,0-0.2,0.1c0,0.1,0.2,0,0.2,0.1c0,0-0.1,0-0.1,0.1c0.1,0,0.1,0,0.1,0c0,0-0.1,0-0.1,0.1c0.3,0.2,0.5,0.7,1,0.9
				c-0.3,0.2,0.2,0.3-2.7,1.4c0.1,0,1.3-0.3,1.7-0.4c0.4-0.1,0.7-0.2,1.1-0.3c0.1,0,0.2-0.1,0.3-0.1c0.6-0.1,1.2,0.1,1.8-0.3
				c-0.5,0.1-1.2,0.2-1.6-0.1c0.4-0.6,0.1-2.2,0.4-2.6c0.3-0.3,0.8-1.4,1.4-0.5c0.1,0.1,0.1,0.3-0.1,0.7c-0.3,0.5-0.4,0.7-0.4,1.6
				c0,0.2,0,0.4-0.3,0.4c1.3,0.3,1.7,0.1,2.4,0c0.2,0,0.6-0.2,0.6,0c0,0.1-0.2,0.1-0.5,0.1c-0.4,0,0.2,0.1,0.3,0.1
				c0.1,0,0.8-0.1,1.1-0.2C96.6,72.9,96.4,72.9,96.2,72.8z"/>
			<path class="st8" d="M92.4,66.2c-3,0-5.4,2.4-5.4,5.4c0,3,2.4,5.4,5.4,5.4c3,0,5.4-2.4,5.4-5.4C97.7,68.6,95.3,66.2,92.4,66.2
				 M92.4,66.4c2.8,0,5.2,2.3,5.2,5.2c0,2.8-2.3,5.2-5.2,5.2c-2.8,0-5.2-2.3-5.2-5.2C87.2,68.7,89.5,66.4,92.4,66.4"/>
		</g>
	</g>
	<path class="st3" d="M72.5,68.6c0.3,2.2-1.2,4.1-3.4,4.5l0,0c-2.2,0.3-4.2-1.2-4.5-3.4l-1.5-10.5c-0.3-2.2,1.2-4.2,3.4-4.5l0,0
		c2.2-0.3,4.2,1.2,4.5,3.4L72.5,68.6z"/>
	<path class="st0" d="M333.1,48.9h-17.6h-7.2h-65.8h-7.1h-17.7l7.6,49.8l0,0c0.7,4.9,5,8.7,10.1,8.7h80.1c5.5,0,10-4.3,10.2-9.8
		L333.1,48.9z"/>
	<path class="st1" d="M315.4,48.9h-7.2h-32.9v58.5h40.1c5.5,0,10-4.3,10.2-9.8l7.4-48.8H315.4z"/>
	<path class="st2" d="M333.9,45.5c0,1.3-1.1,2.4-2.4,2.4H219c-1.3,0-2.4-1.1-2.4-2.4l0,0c0-1.3,1.1-2.4,2.4-2.4h112.5
		C332.8,43.2,333.9,44.2,333.9,45.5L333.9,45.5z"/>
	<path class="st3" d="M336.6,48.9c0,1.3-1.1,2.4-2.4,2.4H215.5c-1.3,0-2.4-1.1-2.4-2.4l0,0c0-1.3,1.1-2.4,2.4-2.4h118.7
		C335.6,46.5,336.6,47.6,336.6,48.9L336.6,48.9z"/>
	<path class="st3" d="M233.3,68.6c0.3,2.2-1.2,4.1-3.4,4.5l0,0c-2.2,0.3-4.2-1.2-4.5-3.4L224,59.2c-0.3-2.2,1.2-4.2,3.4-4.5l0,0
		c2.2-0.3,4.2,1.2,4.5,3.4L233.3,68.6z"/>
	<path class="st0" d="M254.4,147.4h-17.6h-7.2h-65.8h-7.1h-17.7l7.6,49.8l0,0c0.7,4.9,5,8.7,10.1,8.7h80.1c5.5,0,10-4.3,10.2-9.8
		L254.4,147.4z"/>
	<path class="st1" d="M236.8,147.4h-7.2h-32.9v58.5h40.1c5.5,0,10-4.3,10.2-9.8l7.4-48.8H236.8z"/>
	<path class="st2" d="M255.2,144c0,1.3-1.1,2.4-2.4,2.4H140.3c-1.3,0-2.4-1.1-2.4-2.4l0,0c0-1.3,1.1-2.4,2.4-2.4h112.5
		C254.2,141.7,255.2,142.7,255.2,144L255.2,144z"/>
	<path class="st3" d="M258,147.4c0,1.3-1.1,2.4-2.4,2.4H136.9c-1.3,0-2.4-1.1-2.4-2.4l0,0c0-1.3,1.1-2.4,2.4-2.4h118.7
		C256.9,145,258,146.1,258,147.4L258,147.4z"/>
	<path class="st3" d="M154.6,167.1c0.3,2.2-1.2,4.1-3.4,4.5l0,0c-2.2,0.3-4.2-1.2-4.5-3.4l-1.5-10.5c-0.3-2.2,1.2-4.2,3.4-4.5l0,0
		c2.2-0.3,4.2,1.2,4.5,3.4L154.6,167.1z"/>
	<g>
		<circle class="st9" cx="195.1" cy="179.5" r="14.4"/>
		<circle class="st5" cx="183.6" cy="192.3" r="4.5"/>
		<path class="st10" d="M188.3,161.9c0,1-0.8,1.8-1.8,1.8c-1,0-1.8-0.8-1.8-1.8c0-1,0.8-1.8,1.8-1.8
			C187.5,160,188.3,160.8,188.3,161.9L188.3,161.9z"/>
		<path class="st7" d="M188.4,168.1c0,1.3-1.1,2.4-2.4,2.4c-1.3,0-2.4-1.1-2.4-2.4c0-1.3,1.1-2.4,2.4-2.4
			C187.3,165.7,188.4,166.8,188.4,168.1L188.4,168.1z"/>
		<path class="st7" d="M182,164.4c0,0.8-0.6,1.4-1.4,1.4c-0.8,0-1.4-0.6-1.4-1.4c0-0.8,0.6-1.4,1.4-1.4
			C181.4,163,182,163.6,182,164.4L182,164.4z"/>
		<g>
			<circle class="st5" cx="207.4" cy="166.4" r="8"/>
			<g>
				<path class="st3" d="M205.5,165.2c-0.7,0.1-0.8,0.9-0.9,1.4l0,0l0,0c0,0.1,0,0.2,0,0.2c0,0.3,0,0.5,0,0.7c0,0.1,0,0.3-0.1,0.3
					c-0.2,0-0.4-0.3-0.5-0.5c-0.2-0.4-0.3-0.8-0.4-1.3c-0.1-0.5-0.1-0.9-0.2-1.4c0-0.2,0-0.4,0-0.6c0-0.1,0-0.2,0-0.2
					c0-0.1,0-0.1,0-0.1c0.1-0.3-0.4,0-0.5,0.1c-0.5,0.9-0.4,2-0.4,3c0,0.3,0,0.5-0.1,0.8c0,0.2-0.1,0.5-0.2,0.7
					c-0.1,0.1-0.3,0-0.4,0c-0.1-0.1-0.2-0.2-0.2-0.4c0-0.2-0.2-0.1-0.3,0c-0.1,0.1-0.2,0.3-0.2,0.5c0.1,0.4,0.4,0.7,0.8,0.6
					c0.6-0.2,0.8-0.9,1-1.4c0.1-0.3,0.1-0.5,0.1-0.8c0.1,0.4,0.2,0.8,0.4,1.1c0.1,0.3,0.4,0.5,0.7,0.5c0.2,0,0.4-0.3,0.5-0.6
					c0.1,0.3,0.3,0.5,0.6,0.4c0.3,0,0.6-0.4,0.7-0.6c0.1-0.3,0.2-0.7,0.2-1C206.3,166.1,206.2,165.2,205.5,165.2z M205.7,167.5
					c0,0.1,0,0.1-0.1,0.2c-0.1,0-0.2-0.2-0.3-0.3c-0.1-0.2-0.1-0.5-0.2-0.7c0-0.2,0-0.5,0-0.8c0-0.1,0-0.1,0.1-0.2
					c0.3,0.2,0.4,0.6,0.4,1C205.7,167,205.7,167.3,205.7,167.5z"/>
				<path class="st3" d="M213.4,166.2c-0.7-0.3-1.1,0.7-1.2,1.2c-0.1,0.5-0.3,1.4,0.3,1.6c0.3,0.1,0.7-0.1,0.8-0.3
					c0.2-0.2,0.4-0.6,0.4-0.9C213.9,167.3,214,166.4,213.4,166.2z M213,168.4c0,0.1-0.1,0.1-0.1,0.2c-0.1-0.1-0.1-0.3-0.2-0.4
					c0-0.2,0-0.5,0-0.7c0-0.2,0.1-0.5,0.2-0.7c0-0.1,0.1-0.1,0.1-0.2c0.3,0.3,0.2,0.8,0.1,1.1C213.1,168,213.1,168.2,213,168.4z"/>
				<path class="st3" d="M211.5,166.3c0.1-0.2,0.3-0.4,0.4-0.5c0.3-0.4,0.5-0.9,0.5-1.3c0-0.5-0.6-0.5-1-0.3
					c-0.5,0.2-0.7,0.7-0.8,1.2c-0.2,0.6-0.3,1.2-0.3,1.9v0c-0.2,0.3-0.7,0.8-1.1,0.6c-0.1-0.1-0.1-0.2-0.2-0.3
					c0.3-0.3,0.5-0.6,0.8-1c0.2-0.3,0.4-0.9,0-1.1c-0.3-0.2-0.8,0-1,0.3c-0.2,0.3-0.3,0.6-0.4,1c0,0.2,0,0.5,0,0.8
					c-0.2,0.1-0.5,0.2-0.7,0.2c-0.3-0.1-0.4-0.3-0.4-0.6c-0.1-0.3-0.1-0.7,0-1c0-0.1,0-0.2,0.1-0.3c0,0,0-0.1,0-0.1
					c0.2,0.1,0.2,0.3,0.3,0.5c0.1,0.2,0.7-0.2,0.6-0.4c-0.1-0.2-0.2-0.5-0.4-0.6c-0.2-0.1-0.6,0.1-0.7,0.2c-0.4,0.4-0.5,1.1-0.4,1.6
					c0,0.4,0.1,0.8,0.4,1c0.4,0.3,1,0,1.4-0.2c0.1,0.3,0.3,0.5,0.7,0.4c0.4-0.1,0.8-0.3,1.1-0.6c0,0.3,0.1,0.7,0.3,0.8
					c0.4,0.2,0.8,0,1.1-0.3c0.3-0.4,0.5-1,0.3-1.5C211.9,166.4,211.7,166.3,211.5,166.3z M209,166c0-0.1,0.1-0.2,0.1-0.3
					c0,0,0,0,0,0c0.2,0,0.2,0.3,0.2,0.4c0,0.3-0.2,0.5-0.4,0.8c0,0,0-0.1,0-0.1C208.9,166.5,209,166.3,209,166z M211.3,164.7
					c0-0.1,0.1-0.2,0.2-0.3c0,0,0,0,0,0c0.3,0.3,0,0.7-0.1,1c-0.2,0.3-0.3,0.6-0.5,0.8c0-0.3,0.1-0.5,0.2-0.8
					C211.1,165.2,211.2,165,211.3,164.7z M211.2,168c0,0,0,0.1-0.1,0.1c0,0,0,0-0.1,0c-0.2-0.1-0.2-0.5-0.2-0.6c0-0.1,0-0.3,0-0.4
					c0.1-0.1,0.1-0.2,0.2-0.3c0.2-0.1,0.3,0.1,0.3,0.3C211.4,167.3,211.3,167.7,211.2,168z"/>
			</g>
		</g>
		<g>
			<path class="st3" d="M185.8,191.1c-0.5,0.9-1.2,1.8-1.9,2.6c-0.3,0.4,0.2,0.4,0.4,0.1c0.7-0.9,1.4-1.8,2-2.8
				C186.5,190.6,185.9,190.9,185.8,191.1L185.8,191.1z"/>
			<path class="st3" d="M184.8,190.8c-0.3,0-0.6,0.3-0.6,0.6c-0.1,0.3,0.1,0.5,0.4,0.6C185.2,192,185.5,190.9,184.8,190.8
				c-0.1,0-0.4,0.4-0.2,0.4c0.2,0,0.2,0.1,0.3,0.3c0,0.1,0,0.1,0,0.2c0,0,0,0,0,0c0,0-0.1,0-0.1,0c-0.2,0-0.3-0.1-0.3-0.3
				c0-0.1,0-0.1,0-0.2c0,0,0,0,0,0c0,0,0.1,0,0.1,0C184.7,191.2,185,190.8,184.8,190.8z"/>
			<path class="st3" d="M185.7,192.8c-0.3,0-0.6,0.3-0.6,0.6c-0.1,0.3,0.1,0.5,0.4,0.6C186.1,194,186.5,192.8,185.7,192.8
				c-0.1,0-0.4,0.4-0.2,0.4c0.2,0,0.2,0.1,0.3,0.3c0,0.1,0,0.1,0,0.2c0,0,0,0,0,0c0,0-0.1,0-0.1,0c-0.2,0-0.3-0.1-0.3-0.3
				c0-0.1,0-0.1,0-0.2c0,0,0,0,0,0c0,0,0.1,0,0.1,0C185.7,193.1,185.9,192.8,185.7,192.8z"/>
		</g>
		<g>
			<path class="st3" d="M199.6,177.9c-0.4-0.3-0.9-0.1-1.3,0c0-0.3,0-0.6-0.1-0.9c0-0.3-0.5-0.1-0.6,0c-0.1,0-0.1,0.1-0.2,0.1
				c-0.1,0.1-0.2,0.2-0.2,0.3c-0.4,0.9-1,0.4-1.2,0.3l0,0c-0.2-0.1-0.3-0.2-0.6-0.2c-1.3,0-1.7,1.6-1.7,2.7c0,0.8,0,2.4,1.1,2.5
				c0.6,0,1.1-0.5,1.3-0.9c0.3-0.5,0.4-1.1,0.5-1.7c0-0.3,0-0.9-0.1-1.5c0.3-0.1,0.5-0.2,0.7-0.3c0,1.3,0,2.7-0.1,4
				c-0.1,1.1-0.2,2.3-0.4,3.4c0,0.3,0.3,0.2,0.4,0.2c0.2-0.1,0.5-0.3,0.5-0.6c0.1-0.8,0.2-1.6,0.3-2.3c0.4,0,0.8-0.1,1.1-0.3
				c0.7-0.5,1-1.5,1.1-2.4C200.3,179.4,200.3,178.4,199.6,177.9z M195.5,181.4c0,0.1-0.1,0.2-0.1,0.3c-0.2-0.1-0.4-0.4-0.4-0.6
				c-0.1-0.4-0.2-0.8-0.2-1.2c0-0.4,0-0.9,0.2-1.3c0-0.1,0.1-0.2,0.1-0.3c0.5,0.4,0.6,1.1,0.6,1.8
				C195.6,180.6,195.6,181,195.5,181.4z M198.8,181.9C198.8,182,198.8,182,198.8,181.9C198.8,182,198.8,182,198.8,181.9
				c-0.4,0.1-0.6-0.3-0.6-0.7c0.1-0.7,0.1-1.3,0.1-2c0,0,0,0,0,0c0-0.2,0-0.4,0.1-0.6c0,0,0,0,0,0c0,0,0,0,0,0
				c0.1,0,0.2,0.1,0.3,0.3c0.3,0.4,0.3,1.1,0.3,1.5C199.2,180.9,199.1,181.5,198.8,181.9z"/>
			<path class="st3" d="M202.6,178.4c-1.3-0.3-1.8,1.3-2,2.3c-0.2,0.9-0.3,2.4,0.8,2.7c0.5,0.2,1.1-0.3,1.4-0.6
				c0.4-0.4,0.6-1,0.7-1.6C203.6,180.3,203.8,178.7,202.6,178.4z M202.1,182.3c0,0.1-0.1,0.2-0.2,0.3c-0.2-0.1-0.3-0.5-0.3-0.6
				c-0.1-0.4-0.1-0.8,0-1.2c0.1-0.4,0.2-0.8,0.3-1.2c0-0.1,0.1-0.2,0.2-0.3c0.5,0.5,0.4,1.3,0.3,1.9
				C202.4,181.5,202.3,182,202.1,182.3z"/>
			<path class="st3" d="M192,178.7c0.2-0.4,0.4-0.9,0.5-1.3c0.3-0.9,0.5-1.6,0.2-2.3c-0.2-0.7-1.4-0.2-1.8,0.2
				c-0.6,0.7-0.9,1.6-0.9,2.5c-0.1,1,0,2,0.1,2.9c-0.2,0.4-0.4,0.9-0.7,1.3c0,0,0,0.1-0.1,0.1c0,0-0.1-0.1-0.1-0.2
				c-0.1-0.2-0.1-0.4-0.1-0.6c-0.2-1.5-0.2-3-0.6-4.5c-0.1-0.4-0.5-1.2-1.2-0.9c-0.5,0.2-0.9,0.6-1.1,1.1c-0.2-0.4-0.7-0.8-1.4-0.4
				c-0.3,0.2-0.5,0.4-0.7,0.6c0-0.2-0.1-0.5-0.3-0.6c-0.3-0.3-1.2,0.8-0.9,1c0.2,0.2,0.2,0.5,0.3,0.7c0.1,0.5,0.2,1.1,0.3,1.6
				c0.1,0.3,0.1,0.6,0.1,0.8c0.2,1.1,0.4,2.3,0.6,3.4c0,0.1,0.1,0.1,0.1,0.1c0.2,0,0.7-0.7,0.7-1c-0.2-1-0.3-2-0.5-3
				c-0.1-0.4-0.1-0.9-0.1-1.3c0-0.5,0-0.9,0-1.4c0-0.1,0-0.1,0-0.2c0.8,0.1,0.9,1.1,1,1.7c0.1,0.6,0.2,1.2,0.3,1.7
				c0.1,0.9,0.2,1.8,0.4,2.6c0,0.1,0.1,0.2,0.1,0.1c0.3,0,0.8-0.6,0.7-0.9c-0.1-0.9-0.2-1.8-0.3-2.8c0-0.2,0-0.4-0.1-0.7
				c0-0.8,0-1.6,0.1-2.4c0,0,0,0,0-0.1c0.2,0,0.3,0.2,0.4,0.3c0.5,0.8,0.6,1.8,0.7,2.7c0.1,0.6,0.1,1.2,0.2,1.8
				c0,0.4,0.1,0.8,0.3,1.1c0.3,0.4,0.7,0.1,1-0.1c0.3-0.3,0.6-0.7,0.8-1.1c0.2,0.5,0.4,1.1,0.9,1.1c0.8-0.1,1.4-0.7,1.7-1.5
				c0.3-0.8,0.5-2-0.3-2.6C192.5,178.6,192.2,178.6,192,178.7z M191,177.6c0-0.7,0.2-1.4,0.5-2c0,0,0,0,0,0c0.2,0.1,0.2,0.4,0.2,0.5
				c0,0.7-0.2,1.4-0.4,2.1c-0.1,0.3-0.2,0.5-0.3,0.8C191,178.6,191,178.1,191,177.6z M192.2,180.8c0,0.3,0,0.7-0.1,1c0,0,0,0,0,0.1
				c0,0-0.1,0-0.1,0c-0.2,0-0.3-0.4-0.4-0.5c-0.2-0.3-0.2-0.7-0.3-1.1c0.1-0.2,0.2-0.4,0.3-0.5c0.1-0.2,0.3-0.1,0.4,0
				C192.2,180,192.2,180.5,192.2,180.8z"/>
			<path class="st3" d="M206.3,183.6c-0.1-0.2-0.5-0.1-0.7-0.1c-0.2,0.1-0.4,0.1-0.7,0c-0.2-0.1-0.3-0.3-0.3-0.5
				c-0.1-0.8,0.8-1.2,1.4-1.5c0.4-0.3,0.9-1,0.5-1.6c-0.4-0.6-1.3-0.7-1.9-0.5c-0.2,0.1-0.6,0.2-0.5,0.5c0,0.3,0.5,0.2,0.6,0.2
				c0.3-0.1,0.6,0,0.8,0.3c0.2,0.3,0.1,0.5-0.1,0.7c-0.3,0.3-0.8,0.5-1.1,0.8c-0.3,0.2-0.5,0.5-0.6,0.9c-0.2,0.5,0,1,0.4,1.3
				c0.6,0.5,1.3,0.3,2,0.1C206.1,184.1,206.4,183.9,206.3,183.6z"/>
		</g>
		<path class="st3" d="M181.2,193.4c0.4,1.3,2.3,0.4,2-0.7c-0.2-0.6-0.8-0.5-1.3-0.6c-0.2-0.1-0.3-0.3-0.3-0.5
			c0.1-0.2,0.1-0.3-0.1-0.1c0.1,0,0.1,0,0.2-0.1c0.4-0.1,0.8-0.1,1.2,0.1c0.2,0.1,0.6-0.4,0.3-0.5c-0.5-0.2-1-0.2-1.5-0.1
			c-0.5,0.1-0.6,0.5-0.6,1c0,0.5,0.5,0.6,0.9,0.7c0.3,0.1,0.6,0.1,0.6,0.5c0,0.6-0.6,0.5-0.9,0.3c-0.1-0.1-0.2-0.2-0.3-0.4
			C181.6,192.8,181.1,193.2,181.2,193.4L181.2,193.4z"/>
		<g>
			<path class="st8" d="M177.6,173.4c-0.1,0-0.1-0.1-0.2-0.2c-0.3-0.1-0.5,0.1-0.8,0.1c-0.7,0-0.9,0-1.8-0.2c0-0.7,0.4-1.1,0.6-1.7
				c0.2-0.5-0.1-1.1-0.1-1.6c0-0.3,0-0.7,0-1c-0.2,0.2-0.1,0.9-0.2,1.2c-0.1-0.4-0.1-1-0.2-1.3c-0.1,0.4,0,1,0,1.3
				c-0.1-0.4-0.2-0.8-0.3-1.2c-0.2,0.4,0.1,1,0.1,1.3c-0.1-0.3-0.2-0.7-0.4-1.1c-0.1,0.5,0.1,0.8,0.1,1.2c-0.1-0.3-0.2-0.6-0.4-0.8
				c0,0.3,0.2,0.7,0.3,0.9c-0.2-0.1-0.3-0.3-0.5-0.4c0,0.2,0.2,0.4,0.3,0.5c-0.1-0.1-0.2-0.2-0.4-0.3c0,0.2,0.2,0.3,0.2,0.4
				c-0.1-0.1-0.2-0.1-0.3-0.2c0,0.2,0.2,0.3,0.2,0.4c0,0-0.2-0.1-0.2,0c0,0,0.2,0.1,0.1,0.1c-0.1,0-0.1,0-0.1,0
				c0,0.1,0.1,0.1,0.1,0.2c0,0,0,0-0.1,0c0,0.1,0.1,0.1,0.1,0.2c-0.6,0.6-0.3,1.3-0.3,2c0-0.1-0.5-0.2-0.9-0.4
				c-0.2-0.1-0.3-0.3-0.4-0.4c0,0,0.1,0,0.1-0.1c-0.1,0-0.1-0.1-0.2-0.1c0.1,0,0.2,0,0.2,0c-0.1-0.1-0.4-0.1-0.3-0.2
				c0.1,0,0.3,0.1,0.4,0.1c-0.2-0.1-0.5-0.2-0.5-0.4c0.1,0.1,0.4,0.2,0.5,0.1c-0.2-0.1-0.6-0.3-0.7-0.5c0.2,0.1,0.4,0.3,0.6,0.3
				c-0.3-0.1-0.5-0.4-0.8-0.4c0.1,0.3,0.6,0.4,0.7,0.6c-0.2-0.1-0.5-0.2-0.7-0.4c0.1,0.3,0.4,0.4,0.6,0.5c-0.2,0-0.3-0.1-0.6-0.1
				c0.1,0.2,0.4,0.2,0.5,0.4c-0.1-0.1-0.2,0-0.4,0c0,0.1,0.3,0.1,0.4,0.2c-0.1,0-0.2,0-0.3,0.1c0.1,0.1,0.2,0,0.3,0.1
				c-0.1,0-0.2,0-0.2,0.1c0,0.1,0.2,0,0.2,0.1c0,0-0.1,0-0.1,0.1c0,0,0.1,0,0.1,0c0,0-0.1,0-0.1,0.1c0.3,0.2,0.5,0.7,0.9,0.8
				c-0.2,0.2,0.2,0.3-2.5,1.3c0.1,0,1.2-0.3,1.6-0.4c0.3-0.1,0.7-0.2,1-0.3c0.1,0,0.2-0.1,0.2-0.1c0.6-0.1,1.1,0.1,1.7-0.3
				c-0.4,0.1-1.2,0.2-1.5-0.1c0.4-0.6,0.1-2.1,0.4-2.4c0.3-0.3,0.8-1.3,1.3-0.4c0.1,0.1,0.1,0.3-0.1,0.7c-0.3,0.4-0.4,0.6-0.4,1.5
				c0,0.2,0,0.4-0.3,0.4c1.2,0.3,1.6,0.1,2.3,0c0.2,0,0.6-0.2,0.6,0c0,0.1-0.2,0.1-0.4,0.1c-0.3,0,0.1,0.1,0.3,0.1
				c0.1,0,0.7-0.1,1-0.1C178,173.5,177.8,173.5,177.6,173.4z"/>
			<path class="st8" d="M174.1,167.3c-2.8,0-5,2.2-5,5c0,2.8,2.2,5,5,5c2.8,0,5-2.2,5-5C179.1,169.5,176.8,167.3,174.1,167.3
				 M174.1,167.5c2.7,0,4.8,2.2,4.8,4.8c0,2.7-2.2,4.8-4.8,4.8c-2.7,0-4.8-2.2-4.8-4.8C169.3,169.6,171.4,167.5,174.1,167.5"/>
		</g>
	</g>
	<g>
		<circle class="st11" cx="276" cy="80.1" r="15"/>
		<path class="st5" d="M268.8,93.4c0-2.6-2.1-4.7-4.7-4.7c-2.6,0-4.7,2.1-4.7,4.7c0,2.6,2.1,4.7,4.7,4.7
			C266.6,98.1,268.8,96,268.8,93.4z"/>
		<path class="st12" d="M268.9,61.7c0,1.1-0.9,1.9-1.9,1.9c-1.1,0-1.9-0.9-1.9-1.9c0-1.1,0.9-1.9,1.9-1.9
			C268.1,59.8,268.9,60.7,268.9,61.7L268.9,61.7z"/>
		<path class="st7" d="M269,68.2c0,1.4-1.1,2.5-2.5,2.5c-1.4,0-2.5-1.1-2.5-2.5c0-1.4,1.1-2.5,2.5-2.5C267.9,65.7,269,66.8,269,68.2
			L269,68.2z"/>
		<path class="st7" d="M262.4,64.4c0,0.8-0.7,1.5-1.5,1.5c-0.8,0-1.5-0.7-1.5-1.5c0-0.8,0.7-1.5,1.5-1.5
			C261.8,62.9,262.4,63.6,262.4,64.4L262.4,64.4z"/>
		<g>
			<circle class="st5" cx="288.8" cy="66.4" r="8.3"/>
			<g>
				<path class="st3" d="M286.8,65.2c-0.7,0.1-0.9,0.9-0.9,1.5l0,0l0,0c0,0.1,0,0.2,0,0.2c0,0.3,0,0.5,0,0.7c0,0.1,0,0.3-0.1,0.3
					c-0.2,0-0.4-0.3-0.5-0.5c-0.2-0.4-0.3-0.9-0.4-1.3c-0.1-0.5-0.1-1-0.2-1.5c0-0.2,0-0.4,0-0.6c0-0.1,0-0.2,0-0.2
					c0-0.1,0-0.1,0-0.1c0.1-0.4-0.4,0-0.5,0.1c-0.6,1-0.4,2.1-0.4,3.1c0,0.3,0,0.6-0.1,0.9c0,0.2-0.1,0.5-0.2,0.7
					c-0.1,0.1-0.3,0-0.4,0c-0.1-0.1-0.2-0.2-0.2-0.4c0-0.2-0.2-0.1-0.3,0c-0.1,0.1-0.2,0.3-0.2,0.5c0.1,0.4,0.4,0.7,0.8,0.6
					c0.6-0.2,0.9-0.9,1-1.5c0.1-0.3,0.1-0.6,0.1-0.8c0.1,0.4,0.2,0.8,0.4,1.2c0.1,0.3,0.4,0.6,0.7,0.5c0.3,0,0.4-0.3,0.6-0.6
					c0.1,0.3,0.3,0.5,0.6,0.4c0.3,0,0.6-0.4,0.8-0.7c0.2-0.3,0.2-0.7,0.2-1C287.6,66.2,287.5,65.2,286.8,65.2z M287,67.6
					c0,0.1,0,0.1-0.1,0.2c-0.1,0-0.2-0.2-0.3-0.3c-0.1-0.2-0.2-0.5-0.2-0.7c0-0.3,0-0.5,0-0.8c0-0.1,0-0.1,0.1-0.2
					c0.3,0.2,0.4,0.7,0.4,1C287,67.1,287,67.4,287,67.6z"/>
				<path class="st3" d="M295,66.2c-0.7-0.3-1.2,0.7-1.3,1.3c-0.1,0.5-0.3,1.4,0.4,1.7c0.3,0.1,0.7-0.1,0.9-0.3
					c0.2-0.2,0.4-0.6,0.5-0.9C295.5,67.4,295.6,66.5,295,66.2z M294.5,68.6c0,0.1-0.1,0.1-0.1,0.2c-0.1-0.1-0.2-0.3-0.2-0.4
					c0-0.3,0-0.5,0-0.8c0-0.3,0.1-0.5,0.2-0.7c0-0.1,0.1-0.1,0.1-0.2c0.3,0.3,0.2,0.8,0.1,1.2C294.7,68.1,294.6,68.3,294.5,68.6z"/>
				<path class="st3" d="M293,66.3c0.1-0.2,0.3-0.4,0.4-0.6c0.3-0.4,0.5-0.9,0.5-1.4c0-0.5-0.7-0.5-1-0.3c-0.5,0.2-0.7,0.7-0.9,1.2
					c-0.2,0.6-0.3,1.3-0.3,1.9v0c-0.2,0.3-0.7,0.9-1.1,0.6c-0.1-0.1-0.1-0.2-0.2-0.3c0.3-0.3,0.6-0.6,0.8-1c0.2-0.3,0.4-0.9,0-1.1
					c-0.4-0.2-0.8,0-1.1,0.3c-0.2,0.3-0.3,0.7-0.4,1c0,0.2,0,0.5,0,0.9c-0.2,0.1-0.5,0.2-0.7,0.2c-0.3-0.1-0.4-0.4-0.4-0.6
					c-0.1-0.3-0.1-0.7,0-1c0-0.1,0-0.2,0.1-0.3c0,0,0-0.1,0-0.1c0.2,0.1,0.2,0.3,0.3,0.5c0.1,0.2,0.7-0.2,0.6-0.4
					c-0.1-0.2-0.2-0.5-0.4-0.6c-0.3-0.1-0.6,0.1-0.8,0.3c-0.4,0.4-0.5,1.1-0.5,1.7c0,0.4,0.1,0.9,0.4,1.1c0.4,0.3,1.1,0,1.5-0.2
					c0.1,0.3,0.3,0.5,0.7,0.4c0.4-0.1,0.8-0.3,1.2-0.6c0,0.3,0.1,0.7,0.3,0.8c0.4,0.2,0.9,0,1.1-0.4c0.3-0.4,0.5-1,0.3-1.6
					C293.4,66.4,293.2,66.3,293,66.3z M290.5,66.1c0-0.1,0.1-0.2,0.1-0.3c0,0,0,0,0,0c0.2,0,0.2,0.3,0.2,0.4c0,0.3-0.2,0.6-0.4,0.8
					c0,0,0-0.1,0-0.1C290.4,66.6,290.4,66.3,290.5,66.1z M292.9,64.7c0.1-0.1,0.1-0.2,0.2-0.3c0,0,0,0,0,0c0.3,0.3,0,0.8-0.1,1.1
					c-0.2,0.3-0.3,0.6-0.5,0.9c0-0.3,0.1-0.6,0.2-0.8C292.6,65.2,292.7,64.9,292.9,64.7z M292.7,68.1c0,0,0,0.1-0.1,0.1
					c0,0,0,0-0.1,0c-0.2-0.1-0.2-0.5-0.2-0.6c0-0.1,0-0.3,0-0.4c0.1-0.1,0.2-0.2,0.2-0.3c0.2-0.1,0.3,0.1,0.3,0.3
					C292.9,67.4,292.8,67.8,292.7,68.1z"/>
			</g>
		</g>
		<g>
			<path class="st3" d="M266.1,92.1c-0.6,1-1.3,1.8-2,2.7c-0.3,0.4,0.2,0.4,0.4,0.1c0.7-0.9,1.5-1.9,2-2.9
				C266.8,91.6,266.3,91.8,266.1,92.1L266.1,92.1z"/>
			<path class="st3" d="M265.1,91.8c-0.4,0-0.6,0.3-0.7,0.7c-0.1,0.3,0.1,0.6,0.4,0.6C265.5,93.1,265.9,91.8,265.1,91.8
				c-0.1,0-0.4,0.4-0.2,0.4c0.2,0,0.3,0.1,0.3,0.3c0,0.1,0,0.1,0,0.2c0,0,0,0,0,0c0,0-0.1,0-0.1,0c-0.2,0-0.3-0.1-0.3-0.3
				c0-0.1,0-0.1,0-0.2c0,0,0,0,0,0c0,0,0.1,0,0.1,0C265,92.2,265.3,91.8,265.1,91.8z"/>
			<path class="st3" d="M266.1,93.8c-0.4,0-0.6,0.3-0.7,0.7c-0.1,0.3,0.1,0.6,0.4,0.6C266.5,95.1,266.8,93.9,266.1,93.8
				c-0.1,0-0.4,0.4-0.2,0.4c0.2,0,0.3,0.1,0.3,0.3c0,0.1,0,0.1,0,0.2c0,0,0,0,0,0c0,0-0.1,0-0.1,0c-0.2,0-0.3-0.1-0.3-0.3
				c0-0.1,0-0.1,0-0.2c0,0,0,0,0,0c0,0,0.1,0,0.1,0C266,94.2,266.3,93.8,266.1,93.8z"/>
		</g>
		<g>
			<path class="st3" d="M280.7,78.4c-0.4-0.3-0.9-0.1-1.3,0c0-0.3,0-0.6-0.1-1c0-0.3-0.5-0.1-0.7,0c-0.1,0-0.1,0.1-0.2,0.1
				c-0.1,0.1-0.2,0.2-0.2,0.3c-0.4,0.9-1.1,0.4-1.3,0.3l0,0c-0.2-0.1-0.3-0.2-0.6-0.2c-1.4,0-1.7,1.7-1.8,2.8c0,0.9,0,2.5,1.2,2.6
				c0.6,0,1.1-0.5,1.4-1c0.3-0.5,0.4-1.1,0.5-1.7c0-0.3,0-1-0.1-1.5c0.3-0.1,0.5-0.2,0.8-0.4c0,1.4,0,2.8-0.1,4.1
				c-0.1,1.2-0.2,2.3-0.4,3.5c0,0.3,0.3,0.2,0.4,0.2c0.2-0.1,0.5-0.3,0.5-0.6c0.1-0.8,0.3-1.6,0.4-2.4c0.4,0,0.8-0.1,1.1-0.3
				c0.8-0.6,1.1-1.6,1.1-2.5C281.4,79.9,281.4,78.9,280.7,78.4z M276.4,82c0,0.1-0.1,0.2-0.1,0.3c-0.2-0.1-0.4-0.4-0.4-0.6
				c-0.2-0.4-0.2-0.8-0.2-1.3c0-0.4,0-0.9,0.2-1.3c0-0.1,0.1-0.2,0.1-0.3c0.5,0.5,0.6,1.2,0.6,1.8C276.5,81.1,276.5,81.6,276.4,82z
				 M279.8,82.6C279.8,82.6,279.8,82.6,279.8,82.6C279.8,82.6,279.8,82.6,279.8,82.6c-0.5,0.1-0.7-0.3-0.6-0.7
				c0.1-0.7,0.1-1.4,0.1-2.1c0,0,0,0,0,0c0-0.2,0-0.4,0.1-0.6c0,0,0,0,0,0c0,0,0,0,0,0c0.1,0,0.3,0.1,0.4,0.3
				c0.3,0.4,0.3,1.1,0.3,1.6C280.2,81.5,280.1,82.1,279.8,82.6z"/>
			<path class="st3" d="M283.8,78.9c-1.3-0.3-1.9,1.4-2.1,2.4c-0.2,0.9-0.3,2.5,0.8,2.8c0.6,0.2,1.2-0.3,1.5-0.7
				c0.4-0.5,0.6-1,0.7-1.6C284.8,80.9,285,79.2,283.8,78.9z M283.3,83c0,0.1-0.1,0.2-0.2,0.3c-0.2-0.1-0.3-0.5-0.3-0.7
				c-0.1-0.4-0.1-0.9,0-1.3c0.1-0.4,0.2-0.9,0.3-1.3c0-0.1,0.1-0.2,0.2-0.3c0.5,0.5,0.4,1.3,0.4,1.9C283.5,82.1,283.4,82.6,283.3,83
				z"/>
			<path class="st3" d="M272.7,79.2c0.2-0.4,0.4-0.9,0.5-1.4c0.3-0.9,0.5-1.6,0.3-2.4c-0.2-0.7-1.4-0.2-1.8,0.2
				c-0.7,0.7-0.9,1.7-1,2.6c-0.1,1,0,2,0.2,3.1c-0.2,0.5-0.4,0.9-0.7,1.4c0,0-0.1,0.1-0.1,0.1c0,0-0.1-0.1-0.1-0.2
				c-0.1-0.2-0.1-0.4-0.1-0.6c-0.2-1.5-0.2-3.1-0.7-4.6c-0.1-0.5-0.5-1.2-1.3-1c-0.6,0.2-0.9,0.6-1.2,1.1c-0.3-0.5-0.7-0.8-1.4-0.4
				c-0.3,0.2-0.5,0.4-0.7,0.6c0-0.2-0.1-0.5-0.3-0.6c-0.4-0.3-1.2,0.8-0.9,1c0.2,0.2,0.2,0.5,0.3,0.8c0.1,0.5,0.2,1.1,0.3,1.7
				c0.1,0.3,0.1,0.6,0.2,0.9c0.2,1.2,0.4,2.4,0.6,3.6c0,0.1,0.1,0.2,0.1,0.1c0.3,0,0.8-0.7,0.7-1c-0.2-1-0.3-2.1-0.5-3.1
				c-0.1-0.4-0.1-0.9-0.1-1.3c0-0.5,0-1,0-1.5c0-0.1,0-0.2,0-0.2c0.8,0.1,0.9,1.1,1,1.7c0.1,0.6,0.2,1.2,0.3,1.8
				c0.1,0.9,0.2,1.8,0.4,2.7c0,0.1,0.1,0.2,0.1,0.2c0.3,0,0.8-0.6,0.7-0.9c-0.1-1-0.2-1.9-0.3-2.9c0-0.2,0-0.5-0.1-0.7
				c0-0.8,0-1.6,0.1-2.4c0,0,0,0,0-0.1c0.2,0,0.3,0.3,0.4,0.4c0.5,0.8,0.6,1.8,0.7,2.8c0.1,0.6,0.1,1.3,0.2,1.9
				c0,0.4,0.1,0.8,0.3,1.2c0.3,0.4,0.7,0.1,1.1-0.1c0.3-0.3,0.6-0.7,0.8-1.1c0.2,0.5,0.5,1.1,1,1.1c0.8-0.1,1.5-0.8,1.7-1.5
				c0.3-0.8,0.5-2-0.3-2.7C273.3,79.1,273,79.1,272.7,79.2z M271.7,78.1c0-0.7,0.2-1.4,0.5-2.1c0,0,0,0,0,0c0.2,0.1,0.3,0.4,0.3,0.5
				c0,0.7-0.2,1.5-0.5,2.1c-0.1,0.3-0.2,0.5-0.3,0.8C271.7,79.1,271.7,78.6,271.7,78.1z M272.9,81.4c0,0.3,0,0.7-0.1,1
				c0,0,0,0,0,0.1c0,0-0.1,0-0.1,0c-0.2,0-0.3-0.4-0.4-0.5c-0.2-0.4-0.2-0.7-0.3-1.1c0.1-0.2,0.2-0.4,0.3-0.6c0.1-0.2,0.3-0.1,0.5,0
				C273,80.6,272.9,81,272.9,81.4z"/>
			<path class="st3" d="M287.6,84.3c-0.1-0.2-0.5-0.1-0.7-0.1c-0.3,0.1-0.4,0.1-0.7-0.1c-0.2-0.1-0.3-0.3-0.4-0.5
				c-0.1-0.8,0.9-1.2,1.4-1.6c0.4-0.3,1-1,0.6-1.6c-0.4-0.6-1.3-0.7-2-0.5c-0.2,0.1-0.6,0.2-0.5,0.5c0,0.3,0.5,0.2,0.6,0.2
				c0.3-0.1,0.6,0,0.8,0.3c0.2,0.3,0.1,0.6-0.1,0.7c-0.3,0.4-0.8,0.5-1.2,0.9c-0.3,0.3-0.5,0.5-0.6,0.9c-0.2,0.5,0,1,0.4,1.4
				c0.6,0.5,1.4,0.4,2,0.1C287.4,84.8,287.7,84.6,287.6,84.3z"/>
		</g>
		<path class="st3" d="M263.4,93.2c-0.3,0.2-0.6,0.2-0.9,0.1c-0.5-0.2-0.2-1,0.2-1.1c0.5-0.1,0.6,0.9,0.5,1.2c0,0.4-0.2,0.8-0.5,1
			c-0.3,0.3-0.6-0.2-0.7-0.4c-0.1-0.2-0.6,0.2-0.5,0.4c0.2,0.3,0.5,0.7,0.9,0.5c0.4-0.1,0.7-0.5,0.9-0.8c0.3-0.5,0.4-1,0.4-1.5
			c0-0.4-0.2-0.9-0.6-1c-0.8-0.2-1.5,1-1.3,1.7c0.2,0.7,1.2,0.4,1.6,0.2C263.6,93.5,263.8,93,263.4,93.2L263.4,93.2z"/>
		<g>
			<path class="st8" d="M257.8,73.8c-0.1,0-0.1-0.1-0.2-0.2c-0.3-0.1-0.6,0.1-0.9,0.1c-0.7,0-1,0-1.8-0.3c0-0.7,0.4-1.2,0.6-1.8
				c0.2-0.5-0.1-1.1-0.1-1.7c0-0.3,0-0.7,0-1.1c-0.2,0.2-0.1,0.9-0.2,1.2c-0.1-0.4-0.1-1-0.2-1.4c-0.1,0.4,0,1,0,1.4
				c-0.1-0.4-0.2-0.9-0.3-1.2c-0.2,0.4,0.1,1,0.1,1.4c-0.2-0.3-0.2-0.8-0.4-1.1c-0.1,0.5,0.2,0.9,0.1,1.2c-0.1-0.3-0.2-0.6-0.4-0.8
				c0,0.3,0.2,0.7,0.3,1c-0.2-0.1-0.3-0.3-0.5-0.4c0,0.2,0.2,0.4,0.3,0.6c-0.1-0.1-0.2-0.2-0.4-0.3c0,0.2,0.2,0.3,0.2,0.5
				c-0.1-0.1-0.2-0.2-0.3-0.2c0,0.2,0.2,0.3,0.2,0.4c0,0-0.2-0.1-0.2,0c0,0,0.2,0.1,0.1,0.1c-0.1,0-0.1,0-0.1,0
				c0,0.1,0.1,0.1,0.1,0.2c0,0,0,0-0.1,0c0,0.1,0.1,0.1,0.1,0.2c-0.6,0.6-0.3,1.3-0.3,2.1c0-0.1-0.5-0.2-0.9-0.4
				c-0.2-0.1-0.3-0.4-0.5-0.4c0,0,0.1,0,0.1-0.1c-0.1,0-0.1-0.1-0.2-0.1c0.1,0,0.2,0,0.2,0c-0.1-0.1-0.4-0.1-0.3-0.2
				c0.2,0,0.3,0.1,0.4,0.1c-0.2-0.1-0.5-0.2-0.5-0.4c0.1,0.1,0.4,0.2,0.5,0.1c-0.3-0.1-0.6-0.3-0.7-0.5c0.2,0.1,0.4,0.3,0.6,0.3
				c-0.3-0.1-0.6-0.4-0.9-0.4c0.1,0.3,0.6,0.4,0.7,0.6c-0.2-0.1-0.5-0.2-0.7-0.4c0.1,0.3,0.4,0.4,0.7,0.6c-0.2,0-0.4-0.1-0.6-0.1
				c0.1,0.2,0.4,0.2,0.5,0.4c-0.1-0.1-0.3,0-0.4,0c0,0.2,0.3,0.1,0.4,0.2c-0.1,0-0.2,0-0.3,0.1c0.1,0.1,0.3,0,0.3,0.1
				c-0.1,0-0.2,0-0.2,0.1c0,0.1,0.2,0,0.2,0.1c0,0-0.1,0-0.1,0.1c0,0,0.1,0,0.1,0c0,0-0.1,0-0.1,0.1c0.3,0.2,0.5,0.7,1,0.9
				c-0.3,0.2,0.2,0.3-2.6,1.3c0.1,0,1.3-0.3,1.6-0.4c0.4-0.1,0.7-0.2,1.1-0.3c0.1,0,0.2-0.1,0.3-0.1c0.6-0.1,1.1,0.1,1.7-0.3
				c-0.5,0.1-1.2,0.2-1.5-0.1c0.4-0.6,0.1-2.1,0.4-2.5c0.3-0.3,0.8-1.3,1.4-0.5c0.1,0.1,0.1,0.3-0.1,0.7c-0.3,0.4-0.4,0.6-0.4,1.6
				c0,0.2,0,0.4-0.3,0.4c1.2,0.3,1.6,0.1,2.3,0c0.2,0,0.6-0.2,0.6,0c0,0.1-0.2,0.1-0.4,0.1c-0.3,0,0.1,0.1,0.3,0.1
				c0.1,0,0.7-0.1,1.1-0.1C258.2,73.8,258.1,73.8,257.8,73.8z"/>
			<path class="st8" d="M254.2,67.4c-2.9,0-5.2,2.3-5.2,5.2c0,2.9,2.3,5.2,5.2,5.2c2.9,0,5.2-2.3,5.2-5.2
				C259.4,69.7,257,67.4,254.2,67.4 M254.2,67.6c2.8,0,5,2.2,5,5c0,2.8-2.2,5-5,5c-2.8,0-5-2.2-5-5
				C249.2,69.8,251.4,67.6,254.2,67.6"/>
		</g>
	</g>
</g>
<g id="butylka_1">
</g>
<g id="vanna_2">
</g>
<g id="sneg">
</g>
<g id="vigimka">
</g>
<g id="shariki_2">
</g>
<g id="shariki_1">
</g>
<g id="voronka">
</g>
<g id="gradusnik">
</g>
<g id="kolba_2">
</g>
<g id="kolba_1">
</g>
<g id="probirki">
</g>
<g id="lupa">
</g>
<g id="bidon">
</g>
<g id="blank">
</g>
<g id="ticks">
</g>
<g id="press">
</g>
</svg>
